0, 0, Header, 1, 4, 240
1, 0, Start_track
1, 0, Time_signature, 9, 3, 36, 8
1, 0, Tempo, 555556
1, 55800, Tempo, 566038
1, 56160, Tempo, 594059
1, 56520, Tempo, 618557
1, 56760, Tempo, 645161
1, 56880, Tempo, 863275
1, 57000, Tempo, 769231
1, 57120, Tempo, 1000000
1, 57240, Tempo, 645161
1, 57240, End_track
2, 0, Start_track
2, 0, Text_t, "RH H"
2, 0, Note_on_c, 0, 69, 64
2, 120, Note_off_c, 0, 69, 68
2, 480, Note_on_c, 0, 68, 64
2, 600, Note_off_c, 0, 68, 61
2, 600, Note_on_c, 0, 73, 64
2, 720, Note_off_c, 0, 73, 68
2, 720, Note_on_c, 0, 69, 64
2, 840, Note_off_c, 0, 69, 46
2, 840, Note_on_c, 0, 74, 64
2, 960, Note_off_c, 0, 74, 49
2, 960, Note_on_c, 0, 71, 64
2, 1080, Note_off_c, 0, 71, 63
2, 1080, Note_on_c, 0, 76, 64
2, 1200, Note_off_c, 0, 76, 43
2, 1200, Note_on_c, 0, 73, 64
2, 1320, Note_off_c, 0, 73, 76
2, 1320, Note_on_c, 0, 78, 64
2, 1440, Note_off_c, 0, 78, 54
2, 1440, Note_on_c, 0, 76, 64
2, 1560, Note_off_c, 0, 76, 38
2, 1560, Note_on_c, 0, 81, 64
2, 1680, Note_off_c, 0, 81, 49
2, 1680, Note_on_c, 0, 74, 64
2, 1920, Note_off_c, 0, 74, 37
2, 1920, Note_on_c, 0, 73, 64
2, 2040, Note_off_c, 0, 73, 61
2, 2040, Note_on_c, 0, 75, 64
2, 2160, Note_off_c, 0, 75, 63
2, 2160, Note_on_c, 0, 80, 64
2, 2280, Note_off_c, 0, 80, 44
2, 2280, Note_on_c, 0, 76, 64
2, 2400, Note_off_c, 0, 76, 40
2, 2400, Note_on_c, 0, 81, 64
2, 2520, Note_off_c, 0, 81, 46
2, 2520, Note_on_c, 0, 80, 64
2, 2760, Note_off_c, 0, 80, 62
2, 2760, Note_on_c, 0, 78, 64
2, 2880, Note_off_c, 0, 78, 58
2, 2880, Note_on_c, 0, 71, 64
2, 3000, Note_off_c, 0, 71, 48
2, 3000, Note_on_c, 0, 76, 64
2, 3120, Note_off_c, 0, 76, 43
2, 3120, Note_on_c, 0, 74, 64
2, 3360, Note_off_c, 0, 74, 65
2, 3360, Note_on_c, 0, 73, 64
2, 3480, Note_off_c, 0, 73, 72
2, 3480, Note_on_c, 0, 75, 64
2, 3600, Note_off_c, 0, 75, 52
2, 3600, Note_on_c, 0, 76, 64
2, 3720, Note_off_c, 0, 76, 58
2, 3720, Note_on_c, 0, 71, 64
2, 3840, Note_off_c, 0, 71, 52
2, 3840, Note_on_c, 0, 76, 64
2, 4080, Note_off_c, 0, 76, 43
2, 4080, Note_on_c, 0, 78, 64
2, 4320, Note_off_c, 0, 78, 55
2, 4320, Note_on_c, 0, 80, 64
2, 4560, Note_off_c, 0, 80, 61
2, 4560, Note_on_c, 0, 81, 64
2, 4680, Note_off_c, 0, 81, 66
2, 4680, Note_on_c, 0, 80, 64
2, 4920, Note_off_c, 0, 80, 66
2, 4920, Note_on_c, 0, 78, 64
2, 5040, Note_off_c, 0, 78, 63
2, 5040, Note_on_c, 0, 80, 64
2, 5160, Note_off_c, 0, 80, 62
2, 5160, Note_on_c, 0, 81, 64
2, 5520, Note_off_c, 0, 81, 63
2, 5520, Note_on_c, 0, 80, 64
2, 5640, Note_off_c, 0, 80, 47
2, 5640, Note_on_c, 0, 83, 64
2, 5760, Note_off_c, 0, 83, 48
2, 5760, Note_on_c, 0, 76, 64
2, 6000, Note_off_c, 0, 76, 52
2, 6000, Note_on_c, 0, 75, 64
2, 6120, Note_off_c, 0, 75, 61
2, 6120, Note_on_c, 0, 76, 64
2, 6600, Note_off_c, 0, 76, 52
2, 6600, Note_on_c, 0, 74, 64
2, 6720, Note_off_c, 0, 74, 72
2, 6720, Note_on_c, 0, 73, 64
2, 6840, Note_off_c, 0, 73, 52
2, 6840, Note_on_c, 0, 74, 64
2, 7080, Note_off_c, 0, 74, 70
2, 7080, Note_on_c, 0, 73, 64
2, 7200, Note_off_c, 0, 73, 59
2, 7200, Note_on_c, 0, 71, 64
2, 7680, Note_off_c, 0, 71, 73
2, 7680, Note_on_c, 0, 69, 64
2, 7800, Note_off_c, 0, 69, 50
2, 7800, Note_on_c, 0, 73, 64
2, 7920, Note_off_c, 0, 73, 53
2, 7920, Note_on_c, 0, 66, 64
2, 8340, Note_off_c, 0, 66, 46
2, 8340, Note_on_c, 0, 68, 64
2, 8390, Note_off_c, 0, 68, 70
2, 8403, Note_on_c, 0, 69, 64
2, 8433, Note_off_c, 0, 69, 73
2, 8433, Note_on_c, 0, 68, 50
2, 8463, Note_off_c, 0, 68, 68
2, 8463, Note_on_c, 0, 69, 53
2, 8493, Note_off_c, 0, 69, 70
2, 8493, Note_on_c, 0, 68, 57
2, 8523, Note_off_c, 0, 68, 62
2, 8523, Note_on_c, 0, 69, 60
2, 8553, Note_off_c, 0, 69, 66
2, 8553, Note_on_c, 0, 68, 63
2, 8583, Note_off_c, 0, 68, 46
2, 8583, Note_on_c, 0, 66, 64
2, 8613, Note_off_c, 0, 66, 72
2, 8613, Note_on_c, 0, 68, 64
2, 8643, Note_off_c, 0, 68, 68
2, 8643, Note_on_c, 0, 69, 64
2, 8763, Note_off_c, 0, 69, 69
2, 9123, Note_on_c, 0, 68, 64
2, 9243, Note_off_c, 0, 68, 66
2, 9243, Note_on_c, 0, 73, 64
2, 9363, Note_off_c, 0, 73, 59
2, 9363, Note_on_c, 0, 69, 64
2, 9483, Note_off_c, 0, 69, 58
2, 9483, Note_on_c, 0, 74, 64
2, 9603, Note_off_c, 0, 74, 50
2, 9603, Note_on_c, 0, 71, 64
2, 9723, Note_off_c, 0, 71, 82
2, 9723, Note_on_c, 0, 76, 64
2, 9843, Note_off_c, 0, 76, 59
2, 9843, Note_on_c, 0, 73, 64
2, 9963, Note_off_c, 0, 73, 76
2, 9963, Note_on_c, 0, 78, 64
2, 10083, Note_off_c, 0, 78, 65
2, 10083, Note_on_c, 0, 76, 64
2, 10203, Note_off_c, 0, 76, 47
2, 10203, Note_on_c, 0, 81, 64
2, 10323, Note_off_c, 0, 81, 53
2, 10323, Note_on_c, 0, 74, 64
2, 10563, Note_off_c, 0, 74, 61
2, 10563, Note_on_c, 0, 73, 64
2, 10683, Note_off_c, 0, 73, 53
2, 10683, Note_on_c, 0, 75, 64
2, 10803, Note_off_c, 0, 75, 49
2, 10803, Note_on_c, 0, 76, 64
2, 11283, Note_off_c, 0, 76, 57
2, 11283, Note_on_c, 0, 74, 64
2, 11403, Note_off_c, 0, 74, 57
2, 11403, Note_on_c, 0, 79, 64
2, 11523, Note_off_c, 0, 79, 49
2, 11523, Note_on_c, 0, 73, 64
2, 11643, Note_off_c, 0, 73, 58
2, 11643, Note_on_c, 0, 78, 64
2, 11763, Note_off_c, 0, 78, 34
2, 11763, Note_on_c, 0, 74, 64
2, 11883, Note_off_c, 0, 74, 44
2, 11883, Note_on_c, 0, 71, 64
2, 12363, Note_off_c, 0, 71, 49
2, 12363, Note_on_c, 0, 69, 64
2, 12483, Note_off_c, 0, 69, 61
2, 12483, Note_on_c, 0, 74, 64
2, 12603, Note_off_c, 0, 74, 76
2, 12603, Note_on_c, 0, 68, 64
2, 12723, Note_off_c, 0, 68, 50
2, 12723, Note_on_c, 0, 73, 64
2, 12843, Note_off_c, 0, 73, 62
2, 12843, Note_on_c, 0, 71, 64
2, 12963, Note_off_c, 0, 71, 68
2, 12963, Note_on_c, 0, 69, 64
2, 13443, Note_off_c, 0, 69, 57
2, 13443, Note_on_c, 0, 68, 64
2, 13563, Note_off_c, 0, 68, 65
2, 13563, Note_on_c, 0, 66, 64
2, 13683, Note_off_c, 0, 66, 57
2, 13683, Note_on_c, 0, 74, 64
2, 14163, Note_off_c, 0, 74, 59
2, 14163, Note_on_c, 0, 73, 64
2, 14283, Note_off_c, 0, 73, 52
2, 14283, Note_on_c, 0, 78, 64
2, 14523, Note_off_c, 0, 78, 51
2, 14523, Note_on_c, 0, 76, 64
2, 14643, Note_off_c, 0, 76, 50
2, 14643, Note_on_c, 0, 74, 64
2, 14763, Note_off_c, 0, 74, 52
2, 14763, Note_on_c, 0, 73, 64
2, 15243, Note_off_c, 0, 73, 57
2, 15243, Note_on_c, 0, 71, 64
2, 15363, Note_off_c, 0, 71, 77
2, 15363, Note_on_c, 0, 70, 64
2, 15483, Note_off_c, 0, 70, 57
2, 15483, Note_on_c, 0, 71, 64
2, 15723, Note_off_c, 0, 71, 65
2, 15723, Note_on_c, 0, 73, 64
2, 15843, Note_off_c, 0, 73, 69
2, 15843, Note_on_c, 0, 66, 64
2, 15963, Note_off_c, 0, 66, 65
2, 15963, Note_on_c, 0, 71, 64
2, 16083, Note_off_c, 0, 71, 68
2, 16083, Note_on_c, 0, 70, 64
2, 16203, Note_off_c, 0, 70, 63
2, 16203, Note_on_c, 0, 71, 64
2, 16323, Note_off_c, 0, 71, 74
2, 16323, Note_on_c, 0, 74, 64
2, 16683, Note_off_c, 0, 74, 66
2, 16683, Note_on_c, 0, 73, 64
2, 16803, Note_off_c, 0, 73, 58
2, 16803, Note_on_c, 0, 78, 64
2, 17043, Note_off_c, 0, 78, 68
2, 17043, Note_on_c, 0, 76, 64
2, 17163, Note_off_c, 0, 76, 52
2, 17163, Note_on_c, 0, 81, 64
2, 17403, Note_off_c, 0, 81, 49
2, 17403, Note_on_c, 0, 80, 64
2, 17463, Note_off_c, 0, 80, 66
2, 17463, Note_on_c, 0, 78, 64
2, 17523, Note_off_c, 0, 78, 51
2, 17523, Note_on_c, 0, 80, 64
2, 17763, Note_off_c, 0, 80, 79
2, 17763, Note_on_c, 0, 78, 64
2, 17883, Note_off_c, 0, 78, 59
2, 17883, Note_on_c, 0, 76, 64
2, 18123, Note_off_c, 0, 76, 43
2, 18123, Note_on_c, 0, 75, 64
2, 18243, Note_off_c, 0, 75, 55
2, 18243, Note_on_c, 0, 78, 64
2, 18363, Note_off_c, 0, 78, 65
2, 18363, Note_on_c, 0, 71, 64
2, 18963, Note_off_c, 0, 71, 53
2, 18963, Note_on_c, 0, 69, 64
2, 19203, Note_off_c, 0, 69, 68
2, 19203, Note_on_c, 0, 68, 64
2, 19563, Note_off_c, 0, 68, 57
2, 19563, Note_on_c, 0, 66, 64
2, 19683, Note_off_c, 0, 66, 66
2, 19683, Note_on_c, 0, 69, 64
2, 19803, Note_off_c, 0, 69, 54
2, 19803, Note_on_c, 0, 63, 64
2, 19923, Note_off_c, 0, 63, 40
2, 19923, Note_on_c, 0, 71, 64
2, 20043, Note_off_c, 0, 71, 57
2, 20043, Note_on_c, 0, 68, 64
2, 20163, Note_off_c, 0, 68, 79
2, 20163, Note_on_c, 0, 73, 64
2, 20283, Note_off_c, 0, 73, 54
2, 20283, Note_on_c, 0, 66, 64
2, 20523, Note_off_c, 0, 66, 62
2, 20643, Note_on_c, 0, 76, 64
2, 20763, Note_off_c, 0, 76, 46
2, 20763, Note_on_c, 0, 71, 64
2, 20883, Note_off_c, 0, 71, 58
2, 20883, Note_on_c, 0, 73, 64
2, 21003, Note_off_c, 0, 73, 79
2, 21003, Note_on_c, 0, 78, 64
2, 21123, Note_off_c, 0, 78, 70
2, 21123, Note_on_c, 0, 73, 64
2, 21243, Note_off_c, 0, 73, 53
2, 21243, Note_on_c, 0, 74, 64
2, 21723, Note_off_c, 0, 74, 52
2, 21723, Note_on_c, 0, 71, 64
2, 21843, Note_off_c, 0, 71, 69
2, 21843, Note_on_c, 0, 76, 64
2, 21963, Note_off_c, 0, 76, 52
2, 21963, Note_on_c, 0, 73, 64
2, 22083, Note_off_c, 0, 73, 48
2, 22083, Note_on_c, 0, 78, 64
2, 22203, Note_off_c, 0, 78, 53
2, 22203, Note_on_c, 0, 74, 64
2, 22323, Note_off_c, 0, 74, 46
2, 22323, Note_on_c, 0, 80, 64
2, 22443, Note_off_c, 0, 80, 59
2, 22443, Note_on_c, 0, 76, 64
2, 22563, Note_off_c, 0, 76, 44
2, 22563, Note_on_c, 0, 81, 64
2, 22683, Note_off_c, 0, 81, 40
2, 22683, Note_on_c, 0, 78, 64
2, 22923, Note_off_c, 0, 78, 50
2, 22923, Note_on_c, 0, 83, 64
2, 23043, Note_off_c, 0, 83, 50
2, 23043, Note_on_c, 0, 76, 64
2, 23163, Note_off_c, 0, 76, 27
2, 23163, Note_on_c, 0, 81, 64
2, 23523, Note_off_c, 0, 81, 52
2, 23523, Note_on_c, 0, 80, 64
2, 23763, Note_off_c, 0, 80, 68
2, 23763, Note_on_c, 0, 81, 64
2, 23883, Note_off_c, 0, 81, 49
2, 26763, Note_on_c, 0, 73, 64
2, 26883, Note_off_c, 0, 73, 55
2, 26883, Note_on_c, 0, 69, 64
2, 27003, Note_off_c, 0, 69, 69
2, 27003, Note_on_c, 0, 74, 64
2, 27123, Note_off_c, 0, 74, 57
2, 27123, Note_on_c, 0, 71, 64
2, 27243, Note_off_c, 0, 71, 70
2, 27243, Note_on_c, 0, 76, 64
2, 27363, Note_off_c, 0, 76, 50
2, 27363, Note_on_c, 0, 73, 64
2, 27483, Note_off_c, 0, 73, 68
2, 27483, Note_on_c, 0, 78, 64
2, 27603, Note_off_c, 0, 78, 54
2, 27603, Note_on_c, 0, 76, 64
2, 27723, Note_off_c, 0, 76, 43
2, 27723, Note_on_c, 0, 81, 64
2, 27843, Note_off_c, 0, 81, 55
2, 27843, Note_on_c, 0, 80, 64
2, 27873, Note_off_c, 0, 80, 76
2, 27873, Note_on_c, 0, 78, 50
2, 27903, Note_off_c, 0, 78, 61
2, 27903, Note_on_c, 0, 80, 52
2, 27933, Note_off_c, 0, 80, 63
2, 27933, Note_on_c, 0, 78, 55
2, 27963, Note_off_c, 0, 78, 55
2, 27963, Note_on_c, 0, 80, 57
2, 27993, Note_off_c, 0, 80, 66
2, 27993, Note_on_c, 0, 78, 59
2, 28023, Note_off_c, 0, 78, 55
2, 28023, Note_on_c, 0, 80, 61
2, 28053, Note_off_c, 0, 80, 69
2, 28053, Note_on_c, 0, 78, 63
2, 28083, Note_off_c, 0, 78, 52
2, 28143, Note_on_c, 0, 78, 64
2, 28203, Note_off_c, 0, 78, 54
2, 28203, Note_on_c, 0, 80, 64
2, 28263, Note_off_c, 0, 80, 70
2, 28263, Note_on_c, 0, 76, 64
2, 28323, Note_off_c, 0, 76, 30
2, 28323, Note_on_c, 0, 80, 64
2, 28383, Note_off_c, 0, 80, 59
2, 28383, Note_on_c, 0, 81, 64
2, 28443, Note_off_c, 0, 81, 54
2, 28443, Note_on_c, 0, 83, 64
2, 28563, Note_off_c, 0, 83, 72
2, 30363, Note_on_c, 0, 83, 64
2, 30423, Note_off_c, 0, 83, 49
2, 30423, Note_on_c, 0, 81, 64
2, 30483, Note_off_c, 0, 81, 52
2, 30483, Note_on_c, 0, 80, 64
2, 30543, Note_off_c, 0, 80, 59
2, 30543, Note_on_c, 0, 78, 64
2, 30603, Note_off_c, 0, 78, 54
2, 30603, Note_on_c, 0, 76, 64
2, 30663, Note_off_c, 0, 76, 48
2, 30663, Note_on_c, 0, 78, 64
2, 30723, Note_off_c, 0, 78, 53
2, 30723, Note_on_c, 0, 80, 64
2, 30783, Note_off_c, 0, 80, 63
2, 30783, Note_on_c, 0, 76, 64
2, 30843, Note_off_c, 0, 76, 41
2, 30843, Note_on_c, 0, 74, 64
2, 30903, Note_off_c, 0, 74, 69
2, 30903, Note_on_c, 0, 73, 64
2, 30963, Note_off_c, 0, 73, 61
2, 30963, Note_on_c, 0, 74, 64
2, 31023, Note_off_c, 0, 74, 53
2, 31023, Note_on_c, 0, 73, 64
2, 31083, Note_off_c, 0, 73, 65
2, 31083, Note_on_c, 0, 74, 64
2, 31143, Note_off_c, 0, 74, 54
2, 31143, Note_on_c, 0, 78, 64
2, 31203, Note_off_c, 0, 78, 66
2, 31203, Note_on_c, 0, 76, 64
2, 31263, Note_off_c, 0, 76, 52
2, 31263, Note_on_c, 0, 74, 64
2, 31323, Note_off_c, 0, 74, 52
2, 31323, Note_on_c, 0, 73, 64
2, 31443, Note_off_c, 0, 73, 55
2, 31443, Note_on_c, 0, 69, 64
2, 31563, Note_off_c, 0, 69, 59
2, 31563, Note_on_c, 0, 74, 64
2, 31683, Note_off_c, 0, 74, 73
2, 31683, Note_on_c, 0, 73, 64
2, 31803, Note_off_c, 0, 73, 48
2, 31803, Note_on_c, 0, 81, 64
2, 31923, Note_off_c, 0, 81, 37
2, 31923, Note_on_c, 0, 74, 64
2, 32043, Note_off_c, 0, 74, 43
2, 32043, Note_on_c, 0, 71, 64
2, 32163, Note_off_c, 0, 71, 54
2, 32163, Note_on_c, 0, 76, 64
2, 32283, Note_off_c, 0, 76, 49
2, 32283, Note_on_c, 0, 73, 64
2, 32403, Note_off_c, 0, 73, 50
2, 32403, Note_on_c, 0, 74, 64
2, 32523, Note_off_c, 0, 74, 65
2, 32883, Note_on_c, 0, 64, 64
2, 33003, Note_off_c, 0, 64, 31
2, 33003, Note_on_c, 0, 69, 64
2, 33123, Note_off_c, 0, 69, 49
2, 33123, Note_on_c, 0, 66, 64
2, 33243, Note_off_c, 0, 66, 36
2, 33243, Note_on_c, 0, 71, 64
2, 33363, Note_off_c, 0, 71, 77
2, 33363, Note_on_c, 0, 73, 64
2, 33603, Note_off_c, 0, 73, 43
2, 33603, Note_on_c, 0, 74, 64
2, 33723, Note_off_c, 0, 74, 66
2, 33723, Note_on_c, 0, 79, 64
2, 33963, Note_off_c, 0, 79, 61
2, 33963, Note_on_c, 0, 78, 64
2, 34083, Note_off_c, 0, 78, 63
2, 34083, Note_on_c, 0, 76, 64
2, 34203, Note_off_c, 0, 76, 61
2, 34203, Note_on_c, 0, 69, 64
2, 34323, Note_off_c, 0, 69, 52
2, 34323, Note_on_c, 0, 74, 64
2, 34443, Note_off_c, 0, 74, 54
2, 34443, Note_on_c, 0, 73, 64
2, 34563, Note_off_c, 0, 73, 62
2, 34563, Note_on_c, 0, 74, 64
2, 34683, Note_off_c, 0, 74, 54
2, 34683, Note_on_c, 0, 78, 64
2, 34743, Note_off_c, 0, 78, 43
2, 34743, Note_on_c, 0, 76, 64
2, 34803, Note_off_c, 0, 76, 49
2, 34803, Note_on_c, 0, 74, 64
2, 34863, Note_off_c, 0, 74, 70
2, 34863, Note_on_c, 0, 73, 64
2, 34923, Note_off_c, 0, 73, 63
2, 34923, Note_on_c, 0, 71, 64
2, 35043, Note_off_c, 0, 71, 65
2, 35043, Note_on_c, 0, 76, 64
2, 35403, Note_off_c, 0, 76, 42
2, 35403, Note_on_c, 0, 74, 64
2, 35763, Note_off_c, 0, 74, 54
2, 35763, Note_on_c, 0, 73, 64
2, 36003, Note_off_c, 0, 73, 52
2, 36063, Note_on_c, 0, 71, 64
2, 36123, Note_off_c, 0, 71, 74
2, 36123, Note_on_c, 0, 70, 64
2, 36183, Note_off_c, 0, 70, 65
2, 36183, Note_on_c, 0, 71, 64
2, 36243, Note_off_c, 0, 71, 61
2, 36243, Note_on_c, 0, 73, 64
2, 36303, Note_off_c, 0, 73, 65
2, 36303, Note_on_c, 0, 74, 64
2, 36363, Note_off_c, 0, 74, 52
2, 36363, Note_on_c, 0, 76, 64
2, 36423, Note_off_c, 0, 76, 52
2, 36423, Note_on_c, 0, 74, 64
2, 36483, Note_off_c, 0, 74, 65
2, 36483, Note_on_c, 0, 76, 64
2, 36543, Note_off_c, 0, 76, 40
2, 36543, Note_on_c, 0, 78, 64
2, 36603, Note_off_c, 0, 78, 52
2, 36603, Note_on_c, 0, 79, 64
2, 36663, Note_off_c, 0, 79, 54
2, 36663, Note_on_c, 0, 76, 64
2, 36723, Note_off_c, 0, 76, 52
2, 36723, Note_on_c, 0, 82, 64
2, 36783, Note_off_c, 0, 82, 55
2, 36783, Note_on_c, 0, 78, 64
2, 36843, Note_off_c, 0, 78, 53
2, 36843, Note_on_c, 0, 83, 64
2, 36903, Note_off_c, 0, 83, 61
2, 36903, Note_on_c, 0, 81, 64
2, 36963, Note_off_c, 0, 81, 52
2, 36963, Note_on_c, 0, 79, 64
2, 37023, Note_off_c, 0, 79, 57
2, 37023, Note_on_c, 0, 78, 64
2, 37083, Note_off_c, 0, 78, 65
2, 37083, Note_on_c, 0, 76, 64
2, 37143, Note_off_c, 0, 76, 49
2, 37143, Note_on_c, 0, 74, 64
2, 37203, Note_off_c, 0, 74, 61
2, 37203, Note_on_c, 0, 73, 64
2, 37263, Note_off_c, 0, 73, 66
2, 37263, Note_on_c, 0, 71, 64
2, 37323, Note_off_c, 0, 71, 77
2, 37323, Note_on_c, 0, 70, 64
2, 37383, Note_off_c, 0, 70, 62
2, 37383, Note_on_c, 0, 71, 64
2, 37443, Note_off_c, 0, 71, 77
2, 37443, Note_on_c, 0, 79, 64
2, 37503, Note_off_c, 0, 79, 63
2, 37503, Note_on_c, 0, 78, 64
2, 37563, Note_off_c, 0, 78, 65
2, 37563, Note_on_c, 0, 76, 64
2, 37623, Note_off_c, 0, 76, 48
2, 37623, Note_on_c, 0, 74, 64
2, 37683, Note_off_c, 0, 74, 59
2, 37683, Note_on_c, 0, 73, 64
2, 37743, Note_off_c, 0, 73, 63
2, 37743, Note_on_c, 0, 71, 64
2, 37803, Note_off_c, 0, 71, 48
2, 37803, Note_on_c, 0, 71, 64
2, 37923, Note_off_c, 0, 71, 69
2, 37923, Note_on_c, 0, 74, 64
2, 38283, Note_off_c, 0, 74, 68
2, 38283, Note_on_c, 0, 71, 64
2, 38403, Note_off_c, 0, 71, 72
2, 38403, Note_on_c, 0, 76, 64
2, 38523, Note_off_c, 0, 76, 43
2, 38523, Note_on_c, 0, 73, 64
2, 38643, Note_off_c, 0, 73, 54
2, 38643, Note_on_c, 0, 78, 64
2, 38763, Note_off_c, 0, 78, 68
2, 38763, Note_on_c, 0, 75, 64
2, 38883, Note_off_c, 0, 75, 46
2, 38883, Note_on_c, 0, 71, 64
2, 39363, Note_off_c, 0, 71, 65
2, 39363, Note_on_c, 0, 68, 64
2, 39483, Note_off_c, 0, 68, 39
2, 39483, Note_on_c, 0, 73, 64
2, 39603, Note_off_c, 0, 73, 48
2, 39603, Note_on_c, 0, 69, 64
2, 40083, Note_off_c, 0, 69, 68
2, 40083, Note_on_c, 0, 71, 64
2, 40443, Note_off_c, 0, 71, 66
2, 40443, Note_on_c, 0, 69, 64
2, 40563, Note_off_c, 0, 69, 68
2, 40563, Note_on_c, 0, 65, 64
2, 40683, Note_off_c, 0, 65, 1
2, 40683, Note_on_c, 0, 66, 64
2, 41163, Note_off_c, 0, 66, 61
2, 41163, Note_on_c, 0, 63, 64
2, 41283, Note_off_c, 0, 63, 49
2, 41283, Note_on_c, 0, 68, 64
2, 41403, Note_off_c, 0, 68, 40
2, 41403, Note_on_c, 0, 65, 64
2, 41463, Note_off_c, 0, 65, 57
2, 41463, Note_on_c, 0, 61, 64
2, 41523, Note_off_c, 0, 61, 52
2, 41523, Note_on_c, 0, 63, 64
2, 41583, Note_off_c, 0, 63, 54
2, 41583, Note_on_c, 0, 65, 64
2, 41643, Note_off_c, 0, 65, 49
2, 41643, Note_on_c, 0, 66, 64
2, 41703, Note_off_c, 0, 66, 65
2, 41703, Note_on_c, 0, 68, 64
2, 41763, Note_off_c, 0, 68, 80
2, 41763, Note_on_c, 0, 69, 64
2, 41823, Note_off_c, 0, 69, 73
2, 41823, Note_on_c, 0, 66, 64
2, 41883, Note_off_c, 0, 66, 74
2, 41883, Note_on_c, 0, 68, 64
2, 41943, Note_off_c, 0, 68, 83
2, 41943, Note_on_c, 0, 69, 64
2, 42003, Note_off_c, 0, 69, 72
2, 42003, Note_on_c, 0, 71, 64
2, 42063, Note_off_c, 0, 71, 73
2, 42063, Note_on_c, 0, 73, 64
2, 42123, Note_off_c, 0, 73, 73
2, 42123, Note_on_c, 0, 74, 64
2, 42183, Note_off_c, 0, 74, 74
2, 42183, Note_on_c, 0, 71, 64
2, 42243, Note_off_c, 0, 71, 65
2, 42243, Note_on_c, 0, 73, 64
2, 42303, Note_off_c, 0, 73, 70
2, 42303, Note_on_c, 0, 75, 64
2, 42363, Note_off_c, 0, 75, 65
2, 42363, Note_on_c, 0, 77, 64
2, 42423, Note_off_c, 0, 77, 72
2, 42423, Note_on_c, 0, 78, 64
2, 42483, Note_off_c, 0, 78, 68
2, 42483, Note_on_c, 0, 74, 64
2, 42543, Note_off_c, 0, 74, 47
2, 42543, Note_on_c, 0, 76, 64
2, 42603, Note_off_c, 0, 76, 58
2, 42603, Note_on_c, 0, 74, 64
2, 42663, Note_off_c, 0, 74, 74
2, 42663, Note_on_c, 0, 73, 64
2, 42723, Note_off_c, 0, 73, 63
2, 42723, Note_on_c, 0, 71, 64
2, 42783, Note_off_c, 0, 71, 65
2, 42783, Note_on_c, 0, 69, 64
2, 42843, Note_off_c, 0, 69, 52
2, 42843, Note_on_c, 0, 68, 64
2, 42903, Note_off_c, 0, 68, 68
2, 42903, Note_on_c, 0, 71, 64
2, 42963, Note_off_c, 0, 71, 76
2, 42963, Note_on_c, 0, 69, 64
2, 43023, Note_off_c, 0, 69, 62
2, 43023, Note_on_c, 0, 68, 64
2, 43083, Note_off_c, 0, 68, 73
2, 43083, Note_on_c, 0, 66, 64
2, 43143, Note_off_c, 0, 66, 57
2, 43143, Note_on_c, 0, 65, 64
2, 43203, Note_off_c, 0, 65, 47
2, 43203, Note_on_c, 0, 71, 64
2, 43623, Note_off_c, 0, 71, 62
2, 43623, Note_on_c, 0, 69, 64
2, 43683, Note_off_c, 0, 69, 65
2, 43683, Note_on_c, 0, 71, 64
2, 43743, Note_off_c, 0, 71, 63
2, 43743, Note_on_c, 0, 68, 64
2, 43803, Note_off_c, 0, 68, 54
2, 43803, Note_on_c, 0, 69, 64
2, 43983, Note_off_c, 0, 69, 61
2, 43983, Note_on_c, 0, 71, 64
2, 44043, Note_off_c, 0, 71, 66
2, 44043, Note_on_c, 0, 68, 64
2, 44223, Note_off_c, 0, 68, 66
2, 44223, Note_on_c, 0, 66, 64
2, 44283, Note_off_c, 0, 66, 61
2, 44283, Note_on_c, 0, 66, 64
2, 44403, Note_off_c, 0, 66, 69
2, 44403, Note_on_c, 0, 61, 64
2, 44523, Note_off_c, 0, 61, 65
2, 44523, Note_on_c, 0, 66, 64
2, 44643, Note_off_c, 0, 66, 53
2, 44643, Note_on_c, 0, 64, 64
2, 44883, Note_off_c, 0, 64, 27
2, 44883, Note_on_c, 0, 69, 64
2, 45003, Note_off_c, 0, 69, 70
2, 45003, Note_on_c, 0, 66, 64
2, 45123, Note_off_c, 0, 66, 57
2, 45123, Note_on_c, 0, 71, 64
2, 45243, Note_off_c, 0, 71, 69
2, 45243, Note_on_c, 0, 68, 64
2, 45363, Note_off_c, 0, 68, 65
2, 45363, Note_on_c, 0, 73, 64
2, 45483, Note_off_c, 0, 73, 63
2, 45483, Note_on_c, 0, 69, 64
2, 45603, Note_off_c, 0, 69, 57
2, 45603, Note_on_c, 0, 74, 64
2, 45843, Note_off_c, 0, 74, 50
2, 45843, Note_on_c, 0, 73, 64
2, 45963, Note_off_c, 0, 73, 57
2, 45963, Note_on_c, 0, 71, 64
2, 46083, Note_off_c, 0, 71, 80
2, 46083, Note_on_c, 0, 64, 64
2, 46203, Note_off_c, 0, 64, 35
2, 46203, Note_on_c, 0, 69, 64
2, 46563, Note_off_c, 0, 69, 65
2, 46563, Note_on_c, 0, 68, 64
2, 46683, Note_off_c, 0, 68, 63
2, 46683, Note_on_c, 0, 71, 64
2, 46803, Note_off_c, 0, 71, 66
2, 46803, Note_on_c, 0, 64, 64
2, 46923, Note_off_c, 0, 64, 47
2, 46923, Note_on_c, 0, 69, 64
2, 47163, Note_off_c, 0, 69, 65
2, 47163, Note_on_c, 0, 68, 64
2, 47283, Note_off_c, 0, 68, 48
2, 47283, Note_on_c, 0, 73, 64
2, 47403, Note_off_c, 0, 73, 49
2, 47403, Note_on_c, 0, 69, 64
2, 47523, Note_off_c, 0, 69, 61
2, 47523, Note_on_c, 0, 74, 64
2, 47883, Note_off_c, 0, 74, 52
2, 47883, Note_on_c, 0, 73, 64
2, 48003, Note_off_c, 0, 73, 53
2, 48003, Note_on_c, 0, 78, 64
2, 48363, Note_off_c, 0, 78, 52
2, 48363, Note_on_c, 0, 76, 64
2, 48483, Note_off_c, 0, 76, 44
2, 48483, Note_on_c, 0, 74, 64
2, 48723, Note_off_c, 0, 74, 51
2, 48723, Note_on_c, 0, 73, 64
2, 49083, Note_off_c, 0, 73, 61
2, 49083, Note_on_c, 0, 71, 64
2, 49203, Note_off_c, 0, 71, 70
2, 49203, Note_on_c, 0, 69, 64
2, 49443, Note_off_c, 0, 69, 51
2, 49443, Note_on_c, 0, 68, 64
2, 49563, Note_off_c, 0, 68, 66
2, 49563, Note_on_c, 0, 71, 64
2, 49683, Note_off_c, 0, 71, 77
2, 49683, Note_on_c, 0, 76, 64
2, 50283, Note_off_c, 0, 76, 47
2, 50283, Note_on_c, 0, 74, 64
2, 50523, Note_off_c, 0, 74, 68
2, 50523, Note_on_c, 0, 73, 64
2, 50883, Note_off_c, 0, 73, 47
2, 50883, Note_on_c, 0, 71, 64
2, 51003, Note_off_c, 0, 71, 51
2, 51003, Note_on_c, 0, 74, 64
2, 51123, Note_off_c, 0, 74, 61
2, 51123, Note_on_c, 0, 68, 64
2, 51243, Note_off_c, 0, 68, 51
2, 51243, Note_on_c, 0, 76, 64
2, 51363, Note_off_c, 0, 76, 45
2, 51363, Note_on_c, 0, 73, 64
2, 51483, Note_off_c, 0, 73, 79
2, 51483, Note_on_c, 0, 78, 64
2, 51603, Note_off_c, 0, 78, 73
2, 51603, Note_on_c, 0, 71, 64
2, 51843, Note_off_c, 0, 71, 70
2, 51843, Note_on_c, 0, 69, 64
2, 51963, Note_off_c, 0, 69, 52
2, 51963, Note_on_c, 0, 76, 64
2, 52023, Note_off_c, 0, 76, 45
2, 52023, Note_on_c, 0, 74, 64
2, 52083, Note_off_c, 0, 74, 65
2, 52083, Note_on_c, 0, 73, 64
2, 52143, Note_off_c, 0, 73, 68
2, 52143, Note_on_c, 0, 71, 64
2, 52203, Note_off_c, 0, 71, 63
2, 52203, Note_on_c, 0, 69, 64
2, 52263, Note_off_c, 0, 69, 65
2, 52263, Note_on_c, 0, 71, 64
2, 52323, Note_off_c, 0, 71, 70
2, 52323, Note_on_c, 0, 73, 64
2, 52383, Note_off_c, 0, 73, 66
2, 52383, Note_on_c, 0, 69, 64
2, 52443, Note_off_c, 0, 69, 61
2, 52443, Note_on_c, 0, 67, 64
2, 52503, Note_off_c, 0, 67, 59
2, 52503, Note_on_c, 0, 66, 64
2, 52563, Note_off_c, 0, 66, 51
2, 52563, Note_on_c, 0, 67, 64
2, 52623, Note_off_c, 0, 67, 48
2, 52623, Note_on_c, 0, 66, 64
2, 52683, Note_off_c, 0, 66, 68
2, 52683, Note_on_c, 0, 67, 64
2, 52743, Note_off_c, 0, 67, 32
2, 52743, Note_on_c, 0, 71, 64
2, 52803, Note_off_c, 0, 71, 63
2, 52803, Note_on_c, 0, 69, 64
2, 52863, Note_off_c, 0, 69, 68
2, 52863, Note_on_c, 0, 67, 64
2, 52923, Note_off_c, 0, 67, 22
2, 52923, Note_on_c, 0, 66, 64
2, 53043, Note_off_c, 0, 66, 69
2, 53043, Note_on_c, 0, 62, 64
2, 53163, Note_off_c, 0, 62, 39
2, 53163, Note_on_c, 0, 69, 64
2, 53283, Note_off_c, 0, 69, 70
2, 53283, Note_on_c, 0, 68, 64
2, 53403, Note_off_c, 0, 68, 62
2, 53403, Note_on_c, 0, 76, 64
2, 53523, Note_off_c, 0, 76, 43
2, 53523, Note_on_c, 0, 69, 64
2, 53643, Note_off_c, 0, 69, 80
2, 53643, Note_on_c, 0, 78, 64
2, 53763, Note_off_c, 0, 78, 65
2, 53763, Note_on_c, 0, 71, 64
2, 53883, Note_off_c, 0, 71, 58
2, 53883, Note_on_c, 0, 80, 64
2, 54003, Note_off_c, 0, 80, 73
2, 54003, Note_on_c, 0, 81, 64
2, 54123, Note_off_c, 0, 81, 53
2, 54123, Note_on_c, 0, 76, 64
2, 54483, Note_off_c, 0, 76, 46
2, 54483, Note_on_c, 0, 74, 64
2, 54603, Note_off_c, 0, 74, 55
2, 54603, Note_on_c, 0, 78, 64
2, 54723, Note_off_c, 0, 78, 46
2, 54723, Note_on_c, 0, 71, 64
2, 55203, Note_off_c, 0, 71, 52
2, 55203, Note_on_c, 0, 69, 64
2, 55323, Note_off_c, 0, 69, 48
2, 55323, Note_on_c, 0, 67, 64
2, 55443, Note_off_c, 0, 67, 36
2, 55443, Note_on_c, 0, 66, 64
2, 55803, Note_off_c, 0, 66, 46
2, 55803, Note_on_c, 0, 71, 64
2, 55923, Note_off_c, 0, 71, 68
2, 55923, Note_on_c, 0, 64, 64
2, 56043, Note_off_c, 0, 64, 25
2, 56043, Note_on_c, 0, 69, 64
2, 56163, Note_off_c, 0, 69, 63
2, 56163, Note_on_c, 0, 62, 64
2, 56643, Note_off_c, 0, 62, 41
2, 56643, Note_on_c, 0, 61, 64
2, 56763, Note_off_c, 0, 61, 54
2, 56763, Note_on_c, 0, 69, 64
2, 57003, Note_off_c, 0, 69, 66
2, 57003, Note_on_c, 0, 69, 64
2, 57123, Note_off_c, 0, 69, 65
2, 57123, Note_on_c, 0, 68, 64
2, 57243, Note_off_c, 0, 68, 70
2, 57243, Note_on_c, 0, 69, 64
2, 58323, Note_off_c, 0, 69, 74
2, 58323, End_track
3, 0, Start_track
3, 0, Text_t, "RH L/ LH H\2108\221"
3, 64, Unknown_event, 00x
3, 128, Unknown_event, 00x
3, 248, Note_off_c, 1, 64, 32
3, 608, Note_on_c, 1, 61, 64
3, 728, Note_off_c, 1, 61, 43
3, 728, Note_on_c, 1, 66, 64
3, 848, Note_off_c, 1, 66, 2
3, 848, Note_on_c, 1, 64, 64
3, 968, Note_off_c, 1, 64, 47
3, 968, Note_on_c, 1, 69, 64
3, 1088, Note_off_c, 1, 69, 48
3, 1088, Note_on_c, 1, 66, 64
3, 1208, Note_off_c, 1, 66, 73
3, 1208, Note_on_c, 1, 71, 64
3, 1328, Note_off_c, 1, 71, 72
3, 1328, Note_on_c, 1, 68, 64
3, 1448, Note_off_c, 1, 68, 82
3, 1448, Note_on_c, 1, 73, 64
3, 1568, Note_off_c, 1, 73, 59
3, 1568, Note_on_c, 1, 71, 64
3, 1688, Note_off_c, 1, 71, 20
3, 1688, Note_on_c, 1, 76, 64
3, 1808, Note_off_c, 1, 76, 66
3, 1808, Note_on_c, 1, 69, 64
3, 2048, Note_off_c, 1, 69, 69
3, 2048, Note_on_c, 1, 68, 64
3, 2168, Note_off_c, 1, 68, 48
3, 2168, Note_on_c, 1, 71, 64
3, 2288, Note_off_c, 1, 71, 54
3, 2288, Note_on_c, 1, 64, 64
3, 2408, Note_off_c, 1, 64, 22
3, 2408, Note_on_c, 1, 69, 64
3, 2528, Note_off_c, 1, 69, 53
3, 2528, Note_on_c, 1, 66, 64
3, 2648, Note_off_c, 1, 66, 37
3, 2648, Note_on_c, 1, 68, 64
3, 3008, Note_off_c, 1, 68, 62
3, 3008, Note_on_c, 1, 73, 64
3, 3128, Note_off_c, 1, 73, 57
3, 3128, Note_on_c, 1, 69, 64
3, 3248, Note_off_c, 1, 69, 49
3, 3248, Note_on_c, 1, 74, 64
3, 3368, Note_off_c, 1, 74, 49
3, 3368, Note_on_c, 1, 71, 64
3, 3488, Note_off_c, 1, 71, 58
3, 3488, Note_on_c, 1, 76, 64
3, 3608, Note_off_c, 1, 76, 40
3, 3608, Note_on_c, 1, 74, 64
3, 3848, Note_off_c, 1, 74, 52
3, 3848, Note_on_c, 1, 73, 64
3, 4088, Note_off_c, 1, 73, 50
3, 4088, Note_on_c, 1, 71, 64
3, 4208, Note_off_c, 1, 71, 77
3, 4208, Note_on_c, 1, 76, 64
3, 4328, Note_off_c, 1, 76, 66
3, 4328, Note_on_c, 1, 78, 64
3, 4448, Note_off_c, 1, 78, 62
3, 4448, Note_on_c, 1, 71, 64
3, 4568, Note_off_c, 1, 71, 45
3, 4568, Note_on_c, 1, 76, 64
3, 4688, Note_off_c, 1, 76, 47
3, 4688, Note_on_c, 1, 74, 64
3, 4928, Note_off_c, 1, 74, 57
3, 4928, Note_on_c, 1, 73, 64
3, 4988, Note_off_c, 1, 73, 59
3, 4988, Note_on_c, 1, 71, 64
3, 5048, Note_off_c, 1, 71, 68
3, 5048, Note_on_c, 1, 73, 64
3, 5108, Note_off_c, 1, 73, 43
3, 5108, Note_on_c, 1, 69, 64
3, 5168, Note_off_c, 1, 69, 40
3, 5168, Note_on_c, 1, 68, 64
3, 5288, Note_off_c, 1, 68, 69
3, 5288, Note_on_c, 1, 73, 64
3, 5408, Note_off_c, 1, 73, 52
3, 5408, Note_on_c, 1, 69, 64
3, 5528, Note_off_c, 1, 69, 65
3, 5528, Note_on_c, 1, 66, 64
3, 5648, Note_off_c, 1, 66, 46
3, 5648, Note_on_c, 1, 71, 64
3, 5768, Note_off_c, 1, 71, 66
3, 5768, Note_on_c, 1, 69, 64
3, 6008, Note_off_c, 1, 69, 69
3, 6008, Note_on_c, 1, 68, 64
3, 6128, Note_off_c, 1, 68, 57
3, 6128, Note_on_c, 1, 69, 64
3, 6248, Note_off_c, 1, 69, 63
3, 6248, Note_on_c, 1, 62, 64
3, 6728, Note_off_c, 1, 62, 22
3, 6728, Note_on_c, 1, 61, 64
3, 6848, Note_off_c, 1, 61, 62
3, 6848, Note_on_c, 1, 64, 64
3, 6968, Note_off_c, 1, 64, 52
3, 6968, Note_on_c, 1, 57, 64
3, 7328, Note_off_c, 1, 57, 26
3, 7328, Note_on_c, 1, 62, 64
3, 7808, Note_off_c, 1, 62, 45
3, 7808, Note_on_c, 1, 61, 64
3, 7928, Note_off_c, 1, 61, 50
3, 7928, Note_on_c, 1, 66, 64
3, 8048, Note_off_c, 1, 66, 52
3, 8048, Note_on_c, 1, 59, 64
3, 8168, Note_off_c, 1, 59, 15
3, 8168, Note_on_c, 1, 64, 64
3, 8288, Note_off_c, 1, 64, 45
3, 8288, Note_on_c, 1, 68, 64
3, 8528, Note_off_c, 1, 68, 69
3, 8528, Note_on_c, 1, 66, 64
3, 8648, Note_off_c, 1, 66, 66
3, 8648, Note_on_c, 1, 68, 64
3, 8888, Note_off_c, 1, 68, 72
3, 8888, Note_on_c, 1, 69, 64
3, 9008, Note_off_c, 1, 69, 70
3, 9008, Note_on_c, 1, 71, 64
3, 9128, Note_off_c, 1, 71, 80
3, 9128, Note_on_c, 1, 73, 64
3, 9488, Note_off_c, 1, 73, 63
3, 9488, Note_on_c, 1, 71, 64
3, 9728, Note_off_c, 1, 71, 61
3, 9728, Note_on_c, 1, 69, 64
3, 9968, Note_off_c, 1, 69, 50
3, 9968, Note_on_c, 1, 68, 64
3, 10088, Note_off_c, 1, 68, 62
3, 10088, Note_on_c, 1, 73, 64
3, 10208, Note_off_c, 1, 73, 43
3, 10208, Note_on_c, 1, 66, 64
3, 10328, Note_off_c, 1, 66, 43
3, 10328, Note_on_c, 1, 71, 64
3, 10688, Note_off_c, 1, 71, 68
3, 10688, Note_on_c, 1, 69, 64
3, 10928, Note_off_c, 1, 69, 73
3, 10928, Note_on_c, 1, 68, 64
3, 11408, Note_off_c, 1, 68, 73
3, 11408, Note_on_c, 1, 66, 64
3, 11768, Note_off_c, 1, 66, 65
3, 11768, Note_on_c, 1, 65, 64
3, 11888, Note_off_c, 1, 65, 1
3, 11888, Note_on_c, 1, 68, 64
3, 12128, Note_off_c, 1, 68, 65
3, 12128, Note_on_c, 1, 66, 64
3, 12248, Note_off_c, 1, 66, 69
3, 12248, Note_on_c, 1, 64, 64
3, 12368, Note_off_c, 1, 64, 27
3, 12368, Note_on_c, 1, 62, 64
3, 12608, Note_off_c, 1, 62, 43
3, 12608, Note_on_c, 1, 61, 64
3, 12848, Note_off_c, 1, 61, 53
3, 12968, Note_on_c, 1, 71, 64
3, 13088, Note_off_c, 1, 71, 63
3, 13088, Note_on_c, 1, 65, 64
3, 13208, Note_off_c, 1, 65, 54
3, 13208, Note_on_c, 1, 66, 64
3, 13448, Note_off_c, 1, 66, 59
3, 13448, Note_on_c, 1, 68, 64
3, 13568, Note_off_c, 1, 68, 61
3, 13568, Note_on_c, 1, 70, 64
3, 13688, Note_off_c, 1, 70, 68
3, 13688, Note_on_c, 1, 71, 64
3, 13808, Note_off_c, 1, 71, 74
3, 13808, Note_on_c, 1, 64, 64
3, 14168, Note_off_c, 1, 64, 28
3, 14168, Note_on_c, 1, 62, 64
3, 14408, Note_off_c, 1, 62, 46
3, 14408, Note_on_c, 1, 67, 64
3, 14528, Note_off_c, 1, 67, 52
3, 14528, Note_on_c, 1, 66, 64
3, 14648, Note_off_c, 1, 66, 63
3, 14648, Note_on_c, 1, 64, 64
3, 14888, Note_off_c, 1, 64, 51
3, 14888, Note_on_c, 1, 62, 64
3, 15128, Note_off_c, 1, 62, 25
3, 15128, Note_on_c, 1, 61, 64
3, 15248, Note_off_c, 1, 61, 62
3, 15248, Note_on_c, 1, 62, 64
3, 15368, Note_off_c, 1, 62, 37
3, 15368, Note_on_c, 1, 66, 64
3, 15488, Note_off_c, 1, 66, 62
3, 15488, Note_on_c, 1, 71, 64
3, 15608, Note_off_c, 1, 71, 72
3, 15608, Note_on_c, 1, 68, 64
3, 15848, Note_off_c, 1, 68, 68
3, 15848, Note_on_c, 1, 73, 64
3, 15968, Note_off_c, 1, 73, 69
3, 15968, Note_on_c, 1, 71, 64
3, 16088, Note_off_c, 1, 71, 72
3, 16208, Note_on_c, 1, 73, 64
3, 16328, Note_off_c, 1, 73, 58
3, 16328, Note_on_c, 1, 71, 64
3, 16808, Note_off_c, 1, 71, 66
3, 16808, Note_on_c, 1, 69, 64
3, 16928, Note_off_c, 1, 69, 49
3, 16928, Note_on_c, 1, 73, 64
3, 17048, Note_off_c, 1, 73, 52
3, 17048, Note_on_c, 1, 66, 64
3, 17528, Note_off_c, 1, 66, 55
3, 17528, Note_on_c, 1, 64, 64
3, 17648, Note_off_c, 1, 64, 30
3, 17648, Note_on_c, 1, 68, 64
3, 17768, Note_off_c, 1, 68, 68
3, 17768, Note_on_c, 1, 61, 64
3, 18128, Note_off_c, 1, 61, 58
3, 18128, Note_on_c, 1, 66, 64
3, 18248, Note_off_c, 1, 66, 66
3, 18248, Note_on_c, 1, 59, 64
3, 18368, Note_off_c, 1, 59, 27
3, 18368, Note_on_c, 1, 64, 64
3, 18488, Note_off_c, 1, 64, 29
3, 18488, Note_on_c, 1, 61, 64
3, 18848, Note_off_c, 1, 61, 59
3, 18848, Note_on_c, 1, 59, 64
3, 19088, Note_off_c, 1, 59, 33
3, 19088, Note_on_c, 1, 64, 64
3, 19448, Note_off_c, 1, 64, 49
3, 19448, Note_on_c, 1, 63, 64
3, 19568, Note_off_c, 1, 63, 53
3, 19568, Note_on_c, 1, 64, 64
3, 19688, Note_off_c, 1, 64, 55
3, 20048, Note_on_c, 1, 69, 64
3, 20168, Note_off_c, 1, 69, 72
3, 20168, Note_on_c, 1, 64, 64
3, 20288, Note_off_c, 1, 64, 28
3, 20288, Note_on_c, 1, 66, 64
3, 20408, Note_off_c, 1, 66, 49
3, 20408, Note_on_c, 1, 71, 64
3, 20528, Note_off_c, 1, 71, 72
3, 20528, Note_on_c, 1, 66, 64
3, 20648, Note_off_c, 1, 66, 68
3, 20648, Note_on_c, 1, 68, 64
3, 20888, Note_off_c, 1, 68, 66
3, 21008, Note_on_c, 1, 64, 64
3, 21128, Note_off_c, 1, 64, 24
3, 21128, Note_on_c, 1, 69, 64
3, 21248, Note_off_c, 1, 69, 63
3, 21248, Note_on_c, 1, 66, 64
3, 21368, Note_off_c, 1, 66, 66
3, 21368, Note_on_c, 1, 71, 64
3, 21488, Note_off_c, 1, 71, 77
3, 21488, Note_on_c, 1, 68, 64
3, 21608, Note_off_c, 1, 68, 65
3, 21608, Note_on_c, 1, 73, 64
3, 21728, Note_off_c, 1, 73, 68
3, 21728, Note_on_c, 1, 69, 64
3, 21848, Note_off_c, 1, 69, 69
3, 21848, Note_on_c, 1, 74, 64
3, 22208, Note_off_c, 1, 74, 58
3, 22208, Note_on_c, 1, 73, 64
3, 22328, Note_off_c, 1, 73, 66
3, 22328, Note_on_c, 1, 78, 64
3, 22448, Note_off_c, 1, 78, 72
3, 22448, Note_on_c, 1, 71, 64
3, 22628, Note_off_c, 1, 71, 62
3, 22628, Note_on_c, 1, 78, 64
3, 22688, Note_off_c, 1, 78, 46
3, 22688, Note_on_c, 1, 76, 64
3, 22748, Note_off_c, 1, 76, 49
3, 22748, Note_on_c, 1, 74, 64
3, 22808, Note_off_c, 1, 74, 59
3, 22808, Note_on_c, 1, 73, 64
3, 22868, Note_off_c, 1, 73, 66
3, 22868, Note_on_c, 1, 74, 64
3, 22928, Note_off_c, 1, 74, 53
3, 22928, Note_on_c, 1, 76, 64
3, 22988, Note_off_c, 1, 76, 52
3, 22988, Note_on_c, 1, 73, 64
3, 23048, Note_off_c, 1, 73, 62
3, 23048, Note_on_c, 1, 71, 64
3, 23108, Note_off_c, 1, 71, 68
3, 23108, Note_on_c, 1, 69, 64
3, 23168, Note_off_c, 1, 69, 57
3, 23168, Note_on_c, 1, 68, 64
3, 23228, Note_off_c, 1, 68, 68
3, 23228, Note_on_c, 1, 69, 64
3, 23288, Note_off_c, 1, 69, 62
3, 23288, Note_on_c, 1, 71, 64
3, 23348, Note_off_c, 1, 71, 72
3, 23348, Note_on_c, 1, 68, 64
3, 23408, Note_off_c, 1, 68, 73
3, 23408, Note_on_c, 1, 66, 64
3, 23468, Note_off_c, 1, 66, 68
3, 23468, Note_on_c, 1, 64, 64
3, 23528, Note_off_c, 1, 64, 43
3, 23528, Note_on_c, 1, 66, 64
3, 23588, Note_off_c, 1, 66, 70
3, 23588, Note_on_c, 1, 64, 64
3, 23648, Note_off_c, 1, 64, 46
3, 23648, Note_on_c, 1, 66, 64
3, 23708, Note_off_c, 1, 66, 70
3, 23708, Note_on_c, 1, 69, 64
3, 23768, Note_off_c, 1, 69, 68
3, 23768, Note_on_c, 1, 68, 64
3, 23828, Note_off_c, 1, 68, 66
3, 23828, Note_on_c, 1, 66, 64
3, 23888, Note_off_c, 1, 66, 69
3, 23888, Note_on_c, 1, 68, 64
3, 23948, Note_off_c, 1, 68, 69
3, 23948, Note_on_c, 1, 71, 64
3, 24008, Note_off_c, 1, 71, 69
3, 24008, Note_on_c, 1, 69, 64
3, 24068, Note_off_c, 1, 69, 62
3, 24068, Note_on_c, 1, 68, 64
3, 24128, Note_off_c, 1, 68, 63
3, 24128, Note_on_c, 1, 69, 64
3, 24188, Note_off_c, 1, 69, 69
3, 24188, Note_on_c, 1, 71, 64
3, 24248, Note_off_c, 1, 71, 62
3, 24248, Note_on_c, 1, 73, 64
3, 24308, Note_off_c, 1, 73, 72
3, 24308, Note_on_c, 1, 71, 64
3, 24368, Note_off_c, 1, 71, 74
3, 24368, Note_on_c, 1, 73, 64
3, 24428, Note_off_c, 1, 73, 57
3, 24428, Note_on_c, 1, 74, 64
3, 24488, Note_off_c, 1, 74, 68
3, 24488, Note_on_c, 1, 76, 64
3, 24548, Note_off_c, 1, 76, 48
3, 24548, Note_on_c, 1, 78, 64
3, 24608, Note_off_c, 1, 78, 59
3, 24608, Note_on_c, 1, 80, 64
3, 24668, Note_off_c, 1, 80, 66
3, 24668, Note_on_c, 1, 83, 64
3, 24728, Note_off_c, 1, 83, 68
3, 24728, Note_on_c, 1, 81, 64
3, 24788, Note_off_c, 1, 81, 52
3, 24788, Note_on_c, 1, 80, 64
3, 24848, Note_off_c, 1, 80, 69
3, 24848, Note_on_c, 1, 78, 64
3, 24908, Note_off_c, 1, 78, 63
3, 24908, Note_on_c, 1, 81, 64
3, 24968, Note_off_c, 1, 81, 52
3, 24968, Note_on_c, 1, 80, 64
3, 25028, Note_off_c, 1, 80, 73
3, 25028, Note_on_c, 1, 81, 64
3, 25088, Note_off_c, 1, 81, 66
3, 25088, Note_on_c, 1, 83, 64
3, 25148, Note_off_c, 1, 83, 52
3, 25148, Note_on_c, 1, 78, 64
3, 25208, Note_off_c, 1, 78, 61
3, 25208, Note_on_c, 1, 76, 64
3, 25268, Note_off_c, 1, 76, 47
3, 25268, Note_on_c, 1, 74, 64
3, 25328, Note_off_c, 1, 74, 53
3, 25328, Note_on_c, 1, 73, 64
3, 25448, Note_off_c, 1, 73, 63
3, 25448, Note_on_c, 1, 61, 64
3, 25568, Note_off_c, 1, 61, 49
3, 25568, Note_on_c, 1, 66, 64
3, 25688, Note_off_c, 1, 66, 66
3, 25688, Note_on_c, 1, 64, 64
3, 25808, Note_off_c, 1, 64, 40
3, 25808, Note_on_c, 1, 69, 64
3, 25928, Note_off_c, 1, 69, 51
3, 25928, Note_on_c, 1, 66, 64
3, 26048, Note_off_c, 1, 66, 66
3, 26048, Note_on_c, 1, 71, 64
3, 26168, Note_off_c, 1, 71, 55
3, 26168, Note_on_c, 1, 68, 64
3, 26288, Note_off_c, 1, 68, 82
3, 26288, Note_on_c, 1, 73, 64
3, 26408, Note_off_c, 1, 73, 61
3, 26408, Note_on_c, 1, 69, 64
3, 26528, Note_off_c, 1, 69, 58
3, 26528, Note_on_c, 1, 74, 64
3, 26648, Note_off_c, 1, 74, 47
3, 26648, Note_on_c, 1, 73, 64
3, 26768, Note_off_c, 1, 73, 63
3, 26768, Note_on_c, 1, 78, 64
3, 26888, Note_off_c, 1, 78, 62
3, 26888, Note_on_c, 1, 75, 64
3, 27128, Note_off_c, 1, 75, 52
3, 27128, Note_on_c, 1, 76, 64
3, 27248, Note_off_c, 1, 76, 59
3, 27608, Note_on_c, 1, 63, 64
3, 27728, Note_off_c, 1, 63, 46
3, 27728, Note_on_c, 1, 68, 64
3, 27848, Note_off_c, 1, 68, 51
3, 27848, Note_on_c, 1, 64, 64
3, 27968, Note_off_c, 1, 64, 36
3, 27968, Note_on_c, 1, 69, 64
3, 28088, Note_off_c, 1, 69, 63
3, 28088, Note_on_c, 1, 66, 64
3, 28208, Note_off_c, 1, 66, 82
3, 28208, Note_on_c, 1, 71, 64
3, 28328, Note_off_c, 1, 71, 73
3, 28328, Note_on_c, 1, 68, 64
3, 28448, Note_off_c, 1, 68, 44
3, 28448, Note_on_c, 1, 73, 64
3, 28568, Note_off_c, 1, 73, 43
3, 28568, Note_on_c, 1, 71, 64
3, 28688, Note_off_c, 1, 71, 54
3, 28688, Note_on_c, 1, 76, 64
3, 28808, Note_off_c, 1, 76, 38
3, 28808, Note_on_c, 1, 69, 64
3, 29048, Note_off_c, 1, 69, 50
3, 29048, Note_on_c, 1, 66, 64
3, 29168, Note_off_c, 1, 66, 57
3, 29168, Note_on_c, 1, 71, 64
3, 29288, Note_off_c, 1, 71, 69
3, 29288, Note_on_c, 1, 68, 64
3, 29408, Note_off_c, 1, 68, 62
3, 31568, Note_on_c, 1, 57, 64
3, 31688, Note_off_c, 1, 57, 28
3, 31688, Note_on_c, 1, 62, 64
3, 31928, Note_off_c, 1, 62, 52
3, 31928, Note_on_c, 1, 61, 64
3, 32048, Note_off_c, 1, 61, 55
3, 32048, Note_on_c, 1, 66, 64
3, 32168, Note_off_c, 1, 66, 54
3, 32168, Note_on_c, 1, 62, 64
3, 32288, Note_off_c, 1, 62, 29
3, 32288, Note_on_c, 1, 67, 64
3, 32408, Note_off_c, 1, 67, 45
3, 32408, Note_on_c, 1, 64, 64
3, 32528, Note_off_c, 1, 64, 24
3, 32528, Note_on_c, 1, 69, 64
3, 32648, Note_off_c, 1, 69, 46
3, 32648, Note_on_c, 1, 66, 64
3, 32768, Note_off_c, 1, 66, 77
3, 32768, Note_on_c, 1, 71, 64
3, 32888, Note_off_c, 1, 71, 61
3, 32888, Note_on_c, 1, 69, 64
3, 33008, Note_off_c, 1, 69, 73
3, 33008, Note_on_c, 1, 74, 64
3, 33128, Note_off_c, 1, 74, 47
3, 33128, Note_on_c, 1, 67, 64
3, 33368, Note_off_c, 1, 67, 35
3, 33368, Note_on_c, 1, 66, 64
3, 33488, Note_off_c, 1, 66, 69
3, 33488, Note_on_c, 1, 64, 64
3, 33608, Note_off_c, 1, 64, 43
3, 33608, Note_on_c, 1, 66, 64
3, 33728, Note_off_c, 1, 66, 61
3, 34028, Note_on_c, 1, 74, 64
3, 34088, Note_off_c, 1, 74, 61
3, 34088, Note_on_c, 1, 73, 64
3, 34148, Note_off_c, 1, 73, 58
3, 34148, Note_on_c, 1, 71, 64
3, 34208, Note_off_c, 1, 71, 72
3, 34208, Note_on_c, 1, 70, 64
3, 34268, Note_off_c, 1, 70, 53
3, 34268, Note_on_c, 1, 68, 64
3, 34328, Note_off_c, 1, 68, 61
3, 34328, Note_on_c, 1, 66, 64
3, 34388, Note_off_c, 1, 66, 42
3, 34388, Note_on_c, 1, 73, 64
3, 34448, Note_off_c, 1, 73, 57
3, 34448, Note_on_c, 1, 71, 64
3, 34508, Note_off_c, 1, 71, 62
3, 34508, Note_on_c, 1, 69, 64
3, 34568, Note_off_c, 1, 69, 66
3, 34568, Note_on_c, 1, 67, 64
3, 34628, Note_off_c, 1, 67, 46
3, 34628, Note_on_c, 1, 66, 64
3, 34688, Note_off_c, 1, 66, 52
3, 34688, Note_on_c, 1, 64, 64
3, 34748, Note_off_c, 1, 64, 40
3, 34748, Note_on_c, 1, 71, 64
3, 34808, Note_off_c, 1, 71, 62
3, 34808, Note_on_c, 1, 70, 64
3, 34868, Note_off_c, 1, 70, 62
3, 34868, Note_on_c, 1, 68, 64
3, 34928, Note_off_c, 1, 68, 70
3, 34928, Note_on_c, 1, 66, 64
3, 34988, Note_off_c, 1, 66, 52
3, 34988, Note_on_c, 1, 64, 64
3, 35048, Note_off_c, 1, 64, 33
3, 35048, Note_on_c, 1, 62, 64
3, 35168, Note_off_c, 1, 62, 35
3, 35168, Note_on_c, 1, 61, 64
3, 35408, Note_off_c, 1, 61, 53
3, 35408, Note_on_c, 1, 62, 64
3, 35528, Note_off_c, 1, 62, 51
3, 35528, Note_on_c, 1, 71, 64
3, 35768, Note_off_c, 1, 71, 63
3, 35768, Note_on_c, 1, 73, 64
3, 35888, Note_off_c, 1, 73, 53
3, 35888, Note_on_c, 1, 66, 64
3, 36128, Note_off_c, 1, 66, 53
3, 36128, Note_on_c, 1, 67, 64
3, 36248, Note_off_c, 1, 67, 50
3, 36248, Note_on_c, 1, 64, 64
3, 36368, Note_off_c, 1, 64, 26
3, 36368, Note_on_c, 1, 66, 64
3, 36488, Note_off_c, 1, 66, 46
3, 36488, Note_on_c, 1, 59, 64
3, 36608, Note_off_c, 1, 59, 34
3, 36608, Note_on_c, 1, 58, 64
3, 36848, Note_off_c, 1, 58, 66
3, 36968, Note_on_c, 1, 66, 64
3, 37088, Note_off_c, 1, 66, 62
3, 37088, Note_on_c, 1, 71, 64
3, 37208, Note_off_c, 1, 71, 57
3, 37208, Note_on_c, 1, 68, 64
3, 37688, Note_off_c, 1, 68, 62
3, 37688, Note_on_c, 1, 73, 64
3, 37808, Note_off_c, 1, 73, 70
3, 37808, Note_on_c, 1, 69, 64
3, 38048, Note_off_c, 1, 69, 61
3, 38048, Note_on_c, 1, 68, 64
3, 38168, Note_off_c, 1, 68, 70
3, 38168, Note_on_c, 1, 63, 64
3, 38288, Note_off_c, 1, 63, 47
3, 38288, Note_on_c, 1, 64, 64
3, 38768, Note_off_c, 1, 64, 54
3, 38768, Note_on_c, 1, 61, 64
3, 38888, Note_off_c, 1, 61, 62
3, 38888, Note_on_c, 1, 66, 64
3, 39008, Note_off_c, 1, 66, 62
3, 39008, Note_on_c, 1, 63, 64
3, 39128, Note_off_c, 1, 63, 34
3, 39128, Note_on_c, 1, 68, 64
3, 39248, Note_off_c, 1, 68, 59
3, 39248, Note_on_c, 1, 65, 64
3, 39368, Note_off_c, 1, 65, 43
3, 39368, Note_on_c, 1, 61, 64
3, 39848, Note_off_c, 1, 61, 53
3, 39848, Note_on_c, 1, 57, 64
3, 39968, Note_off_c, 1, 57, 41
3, 39968, Note_on_c, 1, 62, 64
3, 40088, Note_off_c, 1, 62, 52
3, 40088, Note_on_c, 1, 59, 64
3, 40568, Note_off_c, 1, 59, 55
3, 40568, Note_on_c, 1, 57, 64
3, 40688, Note_off_c, 1, 57, 45
3, 40688, Note_on_c, 1, 59, 64
3, 40808, Note_off_c, 1, 59, 49
3, 40808, Note_on_c, 1, 53, 64
3, 40928, Note_off_c, 1, 53, 53
3, 42368, Note_on_c, 1, 68, 64
3, 42488, Note_off_c, 1, 68, 42
3, 42488, Note_on_c, 1, 63, 64
3, 42608, Note_off_c, 1, 63, 44
3, 42608, Note_on_c, 1, 65, 64
3, 42728, Note_off_c, 1, 65, 1
3, 42728, Note_on_c, 1, 61, 64
3, 42848, Note_off_c, 1, 61, 52
3, 42848, Note_on_c, 1, 66, 64
3, 43088, Note_off_c, 1, 66, 62
3, 43088, Note_on_c, 1, 65, 64
3, 43328, Note_off_c, 1, 65, 53
3, 43808, Note_on_c, 1, 56, 64
3, 43928, Note_off_c, 1, 56, 38
3, 43928, Note_on_c, 1, 61, 64
3, 44048, Note_off_c, 1, 61, 54
3, 44048, Note_on_c, 1, 57, 64
3, 44168, Note_off_c, 1, 57, 40
3, 44168, Note_on_c, 1, 62, 64
3, 44288, Note_off_c, 1, 62, 57
3, 44288, Note_on_c, 1, 59, 64
3, 44408, Note_off_c, 1, 59, 34
3, 44408, Note_on_c, 1, 64, 64
3, 44528, Note_off_c, 1, 64, 54
3, 44528, Note_on_c, 1, 61, 64
3, 44648, Note_off_c, 1, 61, 53
3, 44648, Note_on_c, 1, 66, 64
3, 44768, Note_off_c, 1, 66, 57
3, 44768, Note_on_c, 1, 64, 64
3, 44888, Note_off_c, 1, 64, 55
3, 44888, Note_on_c, 1, 69, 64
3, 45008, Note_off_c, 1, 69, 79
3, 45008, Note_on_c, 1, 62, 64
3, 45248, Note_off_c, 1, 62, 54
3, 45248, Note_on_c, 1, 61, 64
3, 45368, Note_off_c, 1, 61, 70
3, 45368, Note_on_c, 1, 63, 64
3, 45488, Note_off_c, 1, 63, 44
3, 45488, Note_on_c, 1, 64, 64
3, 45608, Note_off_c, 1, 64, 50
3, 45608, Note_on_c, 1, 59, 64
3, 45728, Note_off_c, 1, 59, 36
3, 45728, Note_on_c, 1, 62, 64
3, 45968, Note_off_c, 1, 62, 57
3, 45968, Note_on_c, 1, 61, 64
3, 46088, Note_off_c, 1, 61, 73
3, 46088, Note_on_c, 1, 63, 64
3, 46208, Note_off_c, 1, 63, 46
3, 46208, Note_on_c, 1, 64, 64
3, 46448, Note_off_c, 1, 64, 48
3, 46448, Note_on_c, 1, 66, 64
3, 46688, Note_off_c, 1, 66, 73
3, 46688, Note_on_c, 1, 71, 64
3, 46808, Note_off_c, 1, 71, 50
3, 46808, Note_on_c, 1, 64, 64
3, 47048, Note_off_c, 1, 64, 43
3, 47048, Note_on_c, 1, 62, 64
3, 47168, Note_off_c, 1, 62, 59
3, 47168, Note_on_c, 1, 61, 64
3, 47288, Note_off_c, 1, 61, 61
3, 47288, Note_on_c, 1, 59, 64
3, 47408, Note_off_c, 1, 59, 28
3, 47408, Note_on_c, 1, 68, 64
3, 47528, Note_off_c, 1, 68, 51
3, 47528, Note_on_c, 1, 71, 64
3, 47648, Note_off_c, 1, 71, 47
3, 47648, Note_on_c, 1, 64, 64
3, 48128, Note_off_c, 1, 64, 48
3, 48128, Note_on_c, 1, 62, 64
3, 48248, Note_off_c, 1, 62, 17
3, 48248, Note_on_c, 1, 66, 64
3, 48368, Note_off_c, 1, 66, 62
3, 48368, Note_on_c, 1, 59, 64
3, 48848, Note_off_c, 1, 59, 43
3, 48848, Note_on_c, 1, 57, 64
3, 48968, Note_off_c, 1, 57, 29
3, 48968, Note_on_c, 1, 61, 64
3, 49088, Note_off_c, 1, 61, 54
3, 49088, Note_on_c, 1, 66, 64
3, 49448, Note_off_c, 1, 66, 63
3, 49448, Note_on_c, 1, 71, 64
3, 49568, Note_off_c, 1, 71, 49
3, 49568, Note_on_c, 1, 64, 64
3, 49688, Note_off_c, 1, 64, 36
3, 49688, Note_on_c, 1, 69, 64
3, 49808, Note_off_c, 1, 69, 66
3, 49808, Note_on_c, 1, 66, 64
3, 50168, Note_off_c, 1, 66, 63
3, 50168, Note_on_c, 1, 64, 64
3, 50408, Note_off_c, 1, 64, 49
3, 50408, Note_on_c, 1, 69, 64
3, 50648, Note_off_c, 1, 69, 63
3, 50648, Note_on_c, 1, 69, 64
3, 50768, Note_off_c, 1, 69, 62
3, 50768, Note_on_c, 1, 68, 64
3, 50888, Note_off_c, 1, 68, 63
3, 53168, Note_on_c, 1, 73, 64
3, 53528, Note_off_c, 1, 73, 66
3, 53528, Note_on_c, 1, 71, 64
3, 53648, Note_off_c, 1, 71, 68
3, 53648, Note_on_c, 1, 69, 64
3, 53888, Note_off_c, 1, 69, 72
3, 53888, Note_on_c, 1, 68, 64
3, 54008, Note_off_c, 1, 68, 61
3, 54008, Note_on_c, 1, 64, 64
3, 54128, Note_off_c, 1, 64, 37
3, 54128, Note_on_c, 1, 61, 64
3, 54248, Note_off_c, 1, 61, 62
3, 54248, Note_on_c, 1, 62, 64
3, 54368, Note_off_c, 1, 62, 42
3, 54368, Note_on_c, 1, 64, 64
3, 54608, Note_off_c, 1, 64, 47
3, 54608, Note_on_c, 1, 57, 64
3, 54728, Note_off_c, 1, 57, 37
3, 54728, Note_on_c, 1, 62, 64
3, 54968, Note_off_c, 1, 62, 55
3, 54968, Note_on_c, 1, 61, 64
3, 55328, Note_off_c, 1, 61, 51
3, 55328, Note_on_c, 1, 59, 64
3, 55448, Note_off_c, 1, 59, 35
3, 55448, Note_on_c, 1, 62, 64
3, 55568, Note_off_c, 1, 62, 37
3, 55568, Note_on_c, 1, 56, 64
3, 55688, Note_off_c, 1, 56, 41
3, 55688, Note_on_c, 1, 64, 64
3, 55808, Note_off_c, 1, 64, 39
3, 55808, Note_on_c, 1, 61, 64
3, 55928, Note_off_c, 1, 61, 53
3, 55928, Note_on_c, 1, 66, 64
3, 56048, Note_off_c, 1, 66, 50
3, 56048, Note_on_c, 1, 59, 64
3, 56288, Note_off_c, 1, 59, 40
3, 56288, Note_on_c, 1, 61, 64
3, 57368, Note_off_c, 1, 61, 73
3, 57368, End_track
