0, 0, Header, 1, 3, 240
1, 0, Start_track
1, 0, Time_signature, 3, 2, 24, 8
1, 0, Tempo, 600000
1, 30000, Tempo, 612245
1, 30240, Tempo, 631579
1, 30360, Tempo, 855949
1, 30480, Tempo, 886263
1, 30600, Tempo, 910894
1, 30720, Tempo, 789474
1, 30840, Tempo, 882353
1, 30960, Tempo, 1052632
1, 30960, End_track
2, 0, Start_track
2, 0, Text_t, "RH B"
2, 120, Note_on_c, 0, 68, 64
2, 180, Note_off_c, 0, 68, 61
2, 180, Note_on_c, 0, 67, 64
2, 240, Note_off_c, 0, 67, 23
2, 240, Note_on_c, 0, 68, 64
2, 360, Note_off_c, 0, 68, 66
2, 360, Note_on_c, 0, 72, 64
2, 480, Note_off_c, 0, 72, 61
2, 480, Note_on_c, 0, 63, 64
2, 600, Note_off_c, 0, 63, 16
2, 600, Note_on_c, 0, 68, 64
2, 720, Note_off_c, 0, 68, 68
2, 840, Note_on_c, 0, 70, 64
2, 900, Note_off_c, 0, 70, 72
2, 900, Note_on_c, 0, 68, 64
2, 960, Note_off_c, 0, 68, 65
2, 960, Note_on_c, 0, 70, 64
2, 1080, Note_off_c, 0, 70, 76
2, 1080, Note_on_c, 0, 73, 64
2, 1200, Note_off_c, 0, 73, 65
2, 1200, Note_on_c, 0, 63, 64
2, 1320, Note_off_c, 0, 63, 14
2, 1320, Note_on_c, 0, 70, 64
2, 1440, Note_off_c, 0, 70, 69
2, 1440, Note_on_c, 0, 72, 64
2, 1680, Note_off_c, 0, 72, 76
2, 1680, Note_on_c, 0, 72, 64
2, 1680, Note_on_c, 0, 75, 64
2, 1680, Note_on_c, 0, 80, 64
2, 1920, Note_off_c, 0, 80, 73
2, 1920, Note_off_c, 0, 75, 57
2, 1920, Note_off_c, 0, 72, 55
2, 2040, Note_on_c, 0, 72, 64
2, 2040, Note_on_c, 0, 75, 64
2, 2160, Note_off_c, 0, 75, 49
2, 2160, Note_off_c, 0, 72, 53
2, 2160, Note_on_c, 0, 73, 64
2, 2160, Note_on_c, 0, 70, 64
2, 2400, Note_off_c, 0, 70, 45
2, 2400, Note_off_c, 0, 73, 61
2, 2400, Note_on_c, 0, 79, 64
2, 2640, Note_off_c, 0, 79, 47
2, 2760, Note_on_c, 0, 70, 64
2, 2760, Note_on_c, 0, 73, 64
2, 2760, Note_on_c, 0, 79, 64
2, 2880, Note_off_c, 0, 79, 38
2, 2880, Note_off_c, 0, 73, 65
2, 2880, Note_off_c, 0, 70, 41
2, 2880, Note_on_c, 0, 80, 64
2, 2880, Note_on_c, 0, 68, 64
2, 2880, Note_on_c, 0, 75, 64
2, 3120, Note_off_c, 0, 75, 44
2, 3120, Note_off_c, 0, 68, 57
2, 3120, Note_off_c, 0, 80, 52
2, 3120, Note_on_c, 0, 75, 64
2, 3360, Note_off_c, 0, 75, 54
2, 3480, Note_on_c, 0, 70, 64
2, 3480, Note_on_c, 0, 75, 64
2, 3600, Note_off_c, 0, 75, 50
2, 3600, Note_off_c, 0, 70, 68
2, 3600, Note_on_c, 0, 56, 64
2, 3600, Note_on_c, 0, 75, 64
2, 3720, Note_off_c, 0, 75, 42
2, 3720, Note_on_c, 0, 80, 64
2, 3780, Note_off_c, 0, 80, 69
2, 3780, Note_on_c, 0, 79, 64
2, 3840, Note_off_c, 0, 79, 59
2, 3840, Note_off_c, 0, 56, 52
2, 3840, Note_on_c, 0, 80, 64
2, 3960, Note_off_c, 0, 80, 70
2, 3960, Note_on_c, 0, 77, 64
2, 4080, Note_off_c, 0, 77, 62
2, 4080, Note_on_c, 0, 73, 64
2, 4200, Note_off_c, 0, 73, 33
2, 4200, Note_on_c, 0, 75, 64
2, 4320, Note_off_c, 0, 75, 54
2, 4320, Note_on_c, 0, 73, 64
2, 4320, Note_on_c, 0, 70, 64
2, 4560, Note_off_c, 0, 70, 74
2, 4560, Note_off_c, 0, 73, 72
2, 4560, Note_on_c, 0, 80, 64
2, 4800, Note_off_c, 0, 80, 65
2, 4920, Note_on_c, 0, 73, 64
2, 5040, Note_off_c, 0, 73, 66
2, 5040, Note_on_c, 0, 55, 64
2, 5040, Note_on_c, 0, 73, 64
2, 5160, Note_off_c, 0, 73, 76
2, 5160, Note_on_c, 0, 82, 64
2, 5220, Note_off_c, 0, 82, 63
2, 5220, Note_on_c, 0, 80, 64
2, 5280, Note_off_c, 0, 80, 72
2, 5280, Note_off_c, 0, 55, 57
2, 5280, Note_on_c, 0, 82, 64
2, 5400, Note_off_c, 0, 82, 53
2, 5400, Note_on_c, 0, 79, 64
2, 5520, Note_off_c, 0, 79, 55
2, 5520, Note_on_c, 0, 73, 64
2, 5640, Note_off_c, 0, 73, 40
2, 5640, Note_on_c, 0, 73, 64
2, 5640, Note_on_c, 0, 67, 64
2, 5640, Note_on_c, 0, 82, 64
2, 5760, Note_off_c, 0, 82, 72
2, 5760, Note_off_c, 0, 67, 61
2, 5760, Note_off_c, 0, 73, 73
2, 5760, Note_on_c, 0, 72, 64
2, 5760, Note_on_c, 0, 68, 64
2, 6000, Note_off_c, 0, 68, 54
2, 6000, Note_off_c, 0, 72, 65
2, 6060, Note_on_c, 0, 75, 64
2, 6120, Note_off_c, 0, 75, 52
2, 6120, Note_on_c, 0, 77, 64
2, 6180, Note_off_c, 0, 77, 62
2, 6180, Note_on_c, 0, 79, 64
2, 6240, Note_off_c, 0, 79, 61
2, 6240, Note_on_c, 0, 80, 64
2, 6300, Note_off_c, 0, 80, 59
2, 6300, Note_on_c, 0, 77, 64
2, 6360, Note_off_c, 0, 77, 63
2, 6360, Note_on_c, 0, 74, 64
2, 6420, Note_off_c, 0, 74, 37
2, 6420, Note_on_c, 0, 77, 64
2, 6480, Note_off_c, 0, 77, 66
2, 6480, Note_on_c, 0, 70, 64
2, 6780, Note_off_c, 0, 70, 73
2, 6780, Note_on_c, 0, 74, 64
2, 6840, Note_off_c, 0, 74, 57
2, 6840, Note_on_c, 0, 75, 64
2, 6900, Note_off_c, 0, 75, 47
2, 6900, Note_on_c, 0, 77, 64
2, 6960, Note_off_c, 0, 77, 65
2, 6960, Note_on_c, 0, 79, 64
2, 7020, Note_off_c, 0, 79, 52
2, 7020, Note_on_c, 0, 75, 64
2, 7080, Note_off_c, 0, 75, 53
2, 7080, Note_on_c, 0, 72, 64
2, 7140, Note_off_c, 0, 72, 53
2, 7140, Note_on_c, 0, 75, 64
2, 7200, Note_off_c, 0, 75, 65
2, 7200, Note_on_c, 0, 68, 64
2, 7260, Note_off_c, 0, 68, 74
2, 7260, Note_on_c, 0, 70, 64
2, 7320, Note_off_c, 0, 70, 68
2, 7320, Note_on_c, 0, 67, 64
2, 7380, Note_off_c, 0, 67, 40
2, 7380, Note_on_c, 0, 70, 64
2, 7440, Note_off_c, 0, 70, 63
2, 7440, Note_on_c, 0, 68, 64
2, 7500, Note_off_c, 0, 68, 73
2, 7500, Note_on_c, 0, 72, 64
2, 7560, Note_off_c, 0, 72, 74
2, 7560, Note_on_c, 0, 74, 64
2, 7620, Note_off_c, 0, 74, 69
2, 7620, Note_on_c, 0, 75, 64
2, 7680, Note_off_c, 0, 75, 45
2, 7680, Note_on_c, 0, 77, 64
2, 7740, Note_off_c, 0, 77, 68
2, 7740, Note_on_c, 0, 74, 64
2, 7800, Note_off_c, 0, 74, 73
2, 7800, Note_on_c, 0, 70, 64
2, 7860, Note_off_c, 0, 70, 62
2, 7860, Note_on_c, 0, 74, 64
2, 7920, Note_off_c, 0, 74, 69
2, 7920, Note_on_c, 0, 67, 64
2, 7980, Note_off_c, 0, 67, 40
2, 7980, Note_on_c, 0, 68, 64
2, 8040, Note_off_c, 0, 68, 68
2, 8040, Note_on_c, 0, 65, 64
2, 8100, Note_off_c, 0, 65, 1
2, 8100, Note_on_c, 0, 68, 64
2, 8160, Note_off_c, 0, 68, 70
2, 8160, Note_on_c, 0, 67, 64
2, 8220, Note_off_c, 0, 67, 23
2, 8220, Note_on_c, 0, 70, 64
2, 8280, Note_off_c, 0, 70, 58
2, 8280, Note_on_c, 0, 72, 64
2, 8340, Note_off_c, 0, 72, 70
2, 8340, Note_on_c, 0, 74, 64
2, 8400, Note_off_c, 0, 74, 69
2, 8400, Note_on_c, 0, 75, 64
2, 8460, Note_off_c, 0, 75, 40
2, 8460, Note_on_c, 0, 72, 64
2, 8520, Note_off_c, 0, 72, 77
2, 8520, Note_on_c, 0, 68, 64
2, 8580, Note_off_c, 0, 68, 69
2, 8580, Note_on_c, 0, 72, 64
2, 8640, Note_off_c, 0, 72, 79
2, 8640, Note_on_c, 0, 65, 64
2, 8700, Note_off_c, 0, 65, 6
2, 8700, Note_on_c, 0, 75, 64
2, 8760, Note_off_c, 0, 75, 39
2, 8760, Note_on_c, 0, 74, 64
2, 8820, Note_off_c, 0, 74, 65
2, 8820, Note_on_c, 0, 75, 64
2, 8880, Note_off_c, 0, 75, 49
2, 8880, Note_on_c, 0, 68, 64
2, 8940, Note_off_c, 0, 68, 48
2, 8940, Note_on_c, 0, 75, 64
2, 9000, Note_off_c, 0, 75, 58
2, 9000, Note_on_c, 0, 74, 64
2, 9060, Note_off_c, 0, 74, 58
2, 9060, Note_on_c, 0, 75, 64
2, 9120, Note_off_c, 0, 75, 52
2, 9120, Note_on_c, 0, 65, 64
2, 9180, Note_off_c, 0, 65, 9
2, 9180, Note_on_c, 0, 75, 64
2, 9240, Note_off_c, 0, 75, 46
2, 9240, Note_on_c, 0, 74, 64
2, 9300, Note_off_c, 0, 74, 53
2, 9300, Note_on_c, 0, 75, 64
2, 9360, Note_off_c, 0, 75, 54
2, 9360, Note_on_c, 0, 67, 64
2, 9420, Note_off_c, 0, 67, 32
2, 9420, Note_on_c, 0, 75, 64
2, 9480, Note_off_c, 0, 75, 49
2, 9480, Note_on_c, 0, 74, 64
2, 9540, Note_off_c, 0, 74, 54
2, 9540, Note_on_c, 0, 75, 64
2, 9600, Note_off_c, 0, 75, 58
2, 9600, Note_on_c, 0, 70, 64
2, 9660, Note_off_c, 0, 70, 53
2, 9660, Note_on_c, 0, 75, 64
2, 9720, Note_off_c, 0, 75, 55
2, 9720, Note_on_c, 0, 74, 64
2, 9780, Note_off_c, 0, 74, 55
2, 9780, Note_on_c, 0, 75, 64
2, 9840, Note_off_c, 0, 75, 52
2, 9840, Note_on_c, 0, 67, 64
2, 9900, Note_off_c, 0, 67, 43
2, 9900, Note_on_c, 0, 75, 64
2, 9960, Note_off_c, 0, 75, 55
2, 9960, Note_on_c, 0, 74, 64
2, 10020, Note_off_c, 0, 74, 62
2, 10020, Note_on_c, 0, 75, 64
2, 10080, Note_off_c, 0, 75, 55
2, 10080, Note_on_c, 0, 68, 64
2, 10140, Note_off_c, 0, 68, 44
2, 10140, Note_on_c, 0, 75, 64
2, 10200, Note_off_c, 0, 75, 58
2, 10200, Note_on_c, 0, 73, 64
2, 10260, Note_off_c, 0, 73, 62
2, 10260, Note_on_c, 0, 75, 64
2, 10320, Note_off_c, 0, 75, 43
2, 10320, Note_on_c, 0, 72, 64
2, 10380, Note_off_c, 0, 72, 59
2, 10380, Note_on_c, 0, 75, 64
2, 10440, Note_off_c, 0, 75, 54
2, 10440, Note_on_c, 0, 70, 64
2, 10500, Note_off_c, 0, 70, 51
2, 10500, Note_on_c, 0, 75, 64
2, 10560, Note_off_c, 0, 75, 51
2, 10560, Note_on_c, 0, 68, 64
2, 10620, Note_off_c, 0, 68, 58
2, 10620, Note_on_c, 0, 75, 64
2, 10680, Note_off_c, 0, 75, 30
2, 10680, Note_on_c, 0, 67, 64
2, 10740, Note_off_c, 0, 67, 40
2, 10740, Note_on_c, 0, 75, 64
2, 10800, Note_off_c, 0, 75, 34
2, 10800, Note_on_c, 0, 65, 64
2, 10860, Note_off_c, 0, 65, 46
2, 10860, Note_on_c, 0, 75, 64
2, 10920, Note_off_c, 0, 75, 43
2, 10920, Note_on_c, 0, 67, 64
2, 10980, Note_off_c, 0, 67, 38
2, 10980, Note_on_c, 0, 75, 64
2, 11040, Note_off_c, 0, 75, 40
2, 11040, Note_on_c, 0, 68, 64
2, 11100, Note_off_c, 0, 68, 47
2, 11100, Note_on_c, 0, 74, 64
2, 11160, Note_off_c, 0, 74, 55
2, 11160, Note_on_c, 0, 75, 64
2, 11220, Note_off_c, 0, 75, 37
2, 11220, Note_on_c, 0, 77, 64
2, 11280, Note_off_c, 0, 77, 73
2, 11280, Note_on_c, 0, 67, 64
2, 11340, Note_off_c, 0, 67, 42
2, 11340, Note_on_c, 0, 70, 64
2, 11400, Note_off_c, 0, 70, 59
2, 11400, Note_on_c, 0, 68, 64
2, 11460, Note_off_c, 0, 68, 62
2, 11460, Note_on_c, 0, 72, 64
2, 11520, Note_off_c, 0, 72, 73
2, 11520, Note_on_c, 0, 70, 64
2, 11580, Note_off_c, 0, 70, 66
2, 11580, Note_on_c, 0, 75, 64
2, 11640, Note_off_c, 0, 75, 35
2, 11640, Note_on_c, 0, 74, 64
2, 11700, Note_off_c, 0, 74, 68
2, 11700, Note_on_c, 0, 72, 64
2, 11760, Note_off_c, 0, 72, 68
2, 11760, Note_on_c, 0, 70, 64
2, 11820, Note_off_c, 0, 70, 66
2, 11820, Note_on_c, 0, 68, 64
2, 11880, Note_off_c, 0, 68, 63
2, 11880, Note_on_c, 0, 70, 64
2, 11940, Note_off_c, 0, 70, 58
2, 11940, Note_on_c, 0, 72, 64
2, 12000, Note_off_c, 0, 72, 77
2, 12000, Note_on_c, 0, 67, 72
2, 12000, Note_on_c, 0, 62, 64
2, 12020, Note_off_c, 0, 67, 58
2, 12020, Note_on_c, 0, 65, 53
2, 12040, Note_off_c, 0, 65, 66
2, 12040, Note_on_c, 0, 67, 56
2, 12060, Note_off_c, 0, 67, 61
2, 12060, Note_on_c, 0, 65, 60
2, 12080, Note_off_c, 0, 65, 77
2, 12080, Note_on_c, 0, 67, 88
2, 12100, Note_off_c, 0, 67, 65
2, 12100, Note_on_c, 0, 65, 86
2, 12180, Note_off_c, 0, 65, 79
2, 12180, Note_on_c, 0, 63, 64
2, 12230, Note_off_c, 0, 63, 55
2, 12230, Note_off_c, 0, 62, 46
2, 12243, Note_on_c, 0, 63, 64
2, 12483, Note_off_c, 0, 63, 61
2, 12483, Note_on_c, 0, 70, 64
2, 12483, Note_on_c, 0, 67, 64
2, 12483, Note_on_c, 0, 75, 64
2, 12723, Note_off_c, 0, 75, 49
2, 12723, Note_off_c, 0, 67, 37
2, 12723, Note_off_c, 0, 70, 76
2, 12843, Note_on_c, 0, 70, 64
2, 12843, Note_on_c, 0, 67, 64
2, 12963, Note_off_c, 0, 67, 27
2, 12963, Note_off_c, 0, 70, 74
2, 12963, Note_on_c, 0, 65, 64
2, 12963, Note_on_c, 0, 68, 64
2, 13203, Note_off_c, 0, 68, 69
2, 13203, Note_off_c, 0, 65, 42
2, 13203, Note_on_c, 0, 74, 64
2, 13443, Note_off_c, 0, 74, 61
2, 13563, Note_on_c, 0, 65, 64
2, 13563, Note_on_c, 0, 68, 64
2, 13563, Note_on_c, 0, 74, 64
2, 13683, Note_off_c, 0, 74, 37
2, 13683, Note_off_c, 0, 68, 72
2, 13683, Note_off_c, 0, 65, 32
2, 13683, Note_on_c, 0, 63, 64
2, 13683, Note_on_c, 0, 70, 64
2, 13683, Note_on_c, 0, 75, 64
2, 13683, Note_on_c, 0, 67, 64
2, 13803, Note_off_c, 0, 67, 40
2, 13803, Note_off_c, 0, 75, 15
2, 13803, Note_off_c, 0, 70, 69
2, 13803, Note_off_c, 0, 63, 13
2, 13803, Note_on_c, 0, 63, 64
2, 13863, Note_off_c, 0, 63, 47
2, 13863, Note_on_c, 0, 62, 64
2, 13923, Note_off_c, 0, 62, 40
2, 13923, Note_on_c, 0, 63, 64
2, 14043, Note_off_c, 0, 63, 49
2, 14043, Note_on_c, 0, 67, 64
2, 14163, Note_off_c, 0, 67, 61
2, 14163, Note_on_c, 0, 58, 64
2, 14283, Note_off_c, 0, 58, 30
2, 14283, Note_on_c, 0, 63, 64
2, 14403, Note_off_c, 0, 63, 52
2, 14523, Note_on_c, 0, 65, 64
2, 14583, Note_off_c, 0, 65, 52
2, 14583, Note_on_c, 0, 63, 64
2, 14643, Note_off_c, 0, 63, 50
2, 14643, Note_on_c, 0, 65, 64
2, 14763, Note_off_c, 0, 65, 55
2, 14763, Note_on_c, 0, 68, 64
2, 14883, Note_off_c, 0, 68, 74
2, 14883, Note_on_c, 0, 58, 64
2, 15003, Note_off_c, 0, 58, 38
2, 15003, Note_on_c, 0, 65, 64
2, 15123, Note_off_c, 0, 65, 69
2, 15123, Note_on_c, 0, 67, 64
2, 15243, Note_off_c, 0, 67, 46
2, 15243, Note_on_c, 0, 70, 64
2, 15303, Note_off_c, 0, 70, 69
2, 15303, Note_on_c, 0, 68, 64
2, 15363, Note_off_c, 0, 68, 69
2, 15363, Note_on_c, 0, 70, 64
2, 15483, Note_off_c, 0, 70, 62
2, 15483, Note_on_c, 0, 75, 64
2, 15603, Note_off_c, 0, 75, 61
2, 15603, Note_on_c, 0, 67, 64
2, 15723, Note_off_c, 0, 67, 43
2, 15723, Note_on_c, 0, 70, 64
2, 15843, Note_off_c, 0, 70, 66
2, 15843, Note_on_c, 0, 63, 64
2, 15963, Note_off_c, 0, 63, 11
2, 15963, Note_on_c, 0, 67, 64
2, 16023, Note_off_c, 0, 67, 49
2, 16023, Note_on_c, 0, 65, 64
2, 16083, Note_off_c, 0, 65, 35
2, 16083, Note_on_c, 0, 67, 64
2, 16203, Note_off_c, 0, 67, 46
2, 16203, Note_on_c, 0, 70, 64
2, 16323, Note_off_c, 0, 70, 49
2, 16323, Note_on_c, 0, 63, 64
2, 16443, Note_off_c, 0, 63, 19
2, 16443, Note_on_c, 0, 67, 64
2, 16563, Note_off_c, 0, 67, 61
2, 16563, Note_on_c, 0, 60, 64
2, 16683, Note_off_c, 0, 60, 36
2, 16923, Note_on_c, 0, 78, 64
2, 16983, Note_off_c, 0, 78, 68
2, 16983, Note_on_c, 0, 77, 64
2, 17043, Note_off_c, 0, 77, 63
2, 17043, Note_on_c, 0, 75, 64
2, 17103, Note_off_c, 0, 75, 51
2, 17103, Note_on_c, 0, 77, 64
2, 17163, Note_off_c, 0, 77, 63
2, 17163, Note_on_c, 0, 73, 64
2, 17223, Note_off_c, 0, 73, 52
2, 17223, Note_on_c, 0, 75, 64
2, 17283, Note_off_c, 0, 75, 49
2, 17283, Note_on_c, 0, 72, 64
2, 17343, Note_off_c, 0, 72, 62
2, 17343, Note_on_c, 0, 73, 64
2, 17403, Note_off_c, 0, 73, 68
2, 17403, Note_on_c, 0, 70, 64
2, 17463, Note_off_c, 0, 70, 69
2, 17463, Note_on_c, 0, 72, 64
2, 17523, Note_off_c, 0, 72, 77
2, 17523, Note_on_c, 0, 68, 64
2, 17583, Note_off_c, 0, 68, 72
2, 17583, Note_on_c, 0, 70, 64
2, 17643, Note_off_c, 0, 70, 76
2, 17643, Note_on_c, 0, 66, 64
2, 17703, Note_off_c, 0, 66, 1
2, 17703, Note_on_c, 0, 68, 64
2, 17763, Note_off_c, 0, 68, 66
2, 17763, Note_on_c, 0, 65, 64
2, 17823, Note_off_c, 0, 65, 22
2, 17823, Note_on_c, 0, 66, 64
2, 17883, Note_off_c, 0, 66, 73
2, 17883, Note_on_c, 0, 63, 64
2, 17943, Note_off_c, 0, 63, 51
2, 17943, Note_on_c, 0, 65, 64
2, 18003, Note_off_c, 0, 65, 66
2, 18003, Note_on_c, 0, 61, 64
2, 18123, Note_off_c, 0, 61, 52
2, 18123, Note_on_c, 0, 73, 64
2, 18183, Note_off_c, 0, 73, 68
2, 18183, Note_on_c, 0, 72, 64
2, 18243, Note_off_c, 0, 72, 80
2, 18243, Note_on_c, 0, 73, 64
2, 18363, Note_off_c, 0, 73, 72
2, 18363, Note_on_c, 0, 77, 64
2, 18483, Note_off_c, 0, 77, 41
2, 18483, Note_on_c, 0, 70, 64
2, 18603, Note_off_c, 0, 70, 68
2, 18603, Note_on_c, 0, 73, 64
2, 18723, Note_off_c, 0, 73, 72
2, 18723, Note_on_c, 0, 67, 64
2, 18843, Note_off_c, 0, 67, 36
2, 18843, Note_on_c, 0, 72, 64
2, 18903, Note_off_c, 0, 72, 66
2, 18903, Note_on_c, 0, 70, 64
2, 18963, Note_off_c, 0, 70, 66
2, 18963, Note_on_c, 0, 72, 64
2, 19083, Note_off_c, 0, 72, 68
2, 19083, Note_on_c, 0, 75, 64
2, 19203, Note_off_c, 0, 75, 68
2, 19203, Note_on_c, 0, 68, 64
2, 19323, Note_off_c, 0, 68, 52
2, 19323, Note_on_c, 0, 72, 64
2, 19443, Note_off_c, 0, 72, 79
2, 19443, Note_on_c, 0, 65, 64
2, 19563, Note_off_c, 0, 65, 31
2, 19563, Note_on_c, 0, 70, 64
2, 19623, Note_off_c, 0, 70, 73
2, 19623, Note_on_c, 0, 68, 64
2, 19683, Note_off_c, 0, 68, 72
2, 19683, Note_on_c, 0, 70, 64
2, 19803, Note_off_c, 0, 70, 72
2, 19803, Note_on_c, 0, 73, 64
2, 19923, Note_off_c, 0, 73, 43
2, 19923, Note_on_c, 0, 67, 64
2, 20043, Note_off_c, 0, 67, 36
2, 20043, Note_on_c, 0, 70, 64
2, 20163, Note_off_c, 0, 70, 61
2, 20163, Note_on_c, 0, 63, 64
2, 20283, Note_off_c, 0, 63, 27
2, 20283, Note_on_c, 0, 68, 64
2, 20343, Note_off_c, 0, 68, 69
2, 20343, Note_on_c, 0, 67, 64
2, 20403, Note_off_c, 0, 67, 55
2, 20403, Note_on_c, 0, 68, 64
2, 20523, Note_off_c, 0, 68, 59
2, 20523, Note_on_c, 0, 72, 64
2, 20643, Note_off_c, 0, 72, 72
2, 20643, Note_on_c, 0, 65, 64
2, 20763, Note_off_c, 0, 65, 32
2, 20763, Note_on_c, 0, 68, 64
2, 20883, Note_off_c, 0, 68, 72
2, 20883, Note_on_c, 0, 61, 64
2, 21003, Note_off_c, 0, 61, 43
2, 21003, Note_on_c, 0, 70, 64
2, 21063, Note_off_c, 0, 70, 70
2, 21063, Note_on_c, 0, 68, 64
2, 21123, Note_off_c, 0, 68, 61
2, 21123, Note_on_c, 0, 70, 64
2, 21243, Note_off_c, 0, 70, 79
2, 21243, Note_on_c, 0, 73, 64
2, 21363, Note_off_c, 0, 73, 57
2, 21363, Note_on_c, 0, 67, 64
2, 21483, Note_off_c, 0, 67, 34
2, 21483, Note_on_c, 0, 70, 64
2, 21603, Note_off_c, 0, 70, 74
2, 21603, Note_on_c, 0, 63, 64
2, 21723, Note_off_c, 0, 63, 21
2, 21723, Note_on_c, 0, 72, 64
2, 21783, Note_off_c, 0, 72, 65
2, 21783, Note_on_c, 0, 70, 64
2, 21843, Note_off_c, 0, 70, 66
2, 21843, Note_on_c, 0, 72, 64
2, 21963, Note_off_c, 0, 72, 77
2, 21963, Note_on_c, 0, 75, 64
2, 22083, Note_off_c, 0, 75, 49
2, 22083, Note_on_c, 0, 68, 64
2, 22203, Note_off_c, 0, 68, 53
2, 22203, Note_on_c, 0, 72, 64
2, 22323, Note_off_c, 0, 72, 73
2, 22323, Note_on_c, 0, 65, 64
2, 22443, Note_off_c, 0, 65, 46
2, 22443, Note_on_c, 0, 73, 64
2, 22503, Note_off_c, 0, 73, 77
2, 22503, Note_on_c, 0, 72, 64
2, 22563, Note_off_c, 0, 72, 82
2, 22563, Note_on_c, 0, 73, 64
2, 22683, Note_off_c, 0, 73, 54
2, 22683, Note_on_c, 0, 77, 64
2, 22803, Note_off_c, 0, 77, 73
2, 22803, Note_on_c, 0, 70, 64
2, 22923, Note_off_c, 0, 70, 65
2, 22923, Note_on_c, 0, 73, 64
2, 23043, Note_off_c, 0, 73, 72
2, 23043, Note_on_c, 0, 67, 64
2, 23163, Note_off_c, 0, 67, 47
2, 23163, Note_on_c, 0, 70, 64
2, 23283, Note_off_c, 0, 70, 70
2, 23283, Note_on_c, 0, 63, 64
2, 23403, Note_off_c, 0, 63, 22
2, 23403, Note_on_c, 0, 67, 64
2, 23523, Note_off_c, 0, 67, 52
2, 23523, Note_on_c, 0, 68, 64
2, 23823, Note_off_c, 0, 68, 68
2, 23823, Note_on_c, 0, 67, 64
2, 23883, Note_off_c, 0, 67, 42
2, 23883, Note_on_c, 0, 68, 64
2, 23943, Note_off_c, 0, 68, 68
2, 23943, Note_on_c, 0, 70, 64
2, 23993, Note_off_c, 0, 70, 69
2, 24006, Note_on_c, 0, 72, 72
2, 24006, Note_on_c, 0, 67, 64
2, 24026, Note_off_c, 0, 72, 83
2, 24026, Note_on_c, 0, 70, 52
2, 24046, Note_off_c, 0, 70, 79
2, 24046, Note_on_c, 0, 72, 54
2, 24066, Note_off_c, 0, 72, 76
2, 24066, Note_on_c, 0, 70, 56
2, 24086, Note_off_c, 0, 70, 77
2, 24086, Note_on_c, 0, 72, 58
2, 24106, Note_off_c, 0, 72, 77
2, 24106, Note_on_c, 0, 70, 60
2, 24366, Note_off_c, 0, 70, 79
2, 24366, Note_on_c, 0, 68, 64
2, 24476, Note_off_c, 0, 68, 77
2, 24476, Note_off_c, 0, 67, 52
2, 24489, Note_on_c, 0, 68, 64
2, 24609, Note_on_c, 0, 75, 64
2, 24669, Note_off_c, 0, 75, 46
2, 24669, Note_on_c, 0, 73, 64
2, 24729, Note_off_c, 0, 73, 70
2, 24729, Note_off_c, 0, 68, 73
2, 24729, Note_on_c, 0, 75, 64
2, 24849, Note_off_c, 0, 75, 48
2, 24849, Note_on_c, 0, 72, 64
2, 24969, Note_off_c, 0, 72, 73
2, 24969, Note_on_c, 0, 67, 64
2, 25089, Note_off_c, 0, 67, 40
2, 25089, Note_on_c, 0, 70, 64
2, 25189, Note_off_c, 0, 70, 69
2, 25209, Note_on_c, 0, 70, 72
2, 25229, Note_off_c, 0, 70, 74
2, 25229, Note_on_c, 0, 68, 51
2, 25249, Note_off_c, 0, 68, 73
2, 25249, Note_on_c, 0, 70, 53
2, 25269, Note_off_c, 0, 70, 73
2, 25269, Note_on_c, 0, 68, 55
2, 25289, Note_off_c, 0, 68, 69
2, 25289, Note_on_c, 0, 70, 57
2, 25309, Note_off_c, 0, 70, 77
2, 25309, Note_on_c, 0, 68, 60
2, 25449, Note_off_c, 0, 68, 83
2, 25449, Note_on_c, 0, 75, 64
2, 25749, Note_off_c, 0, 75, 57
2, 25749, Note_on_c, 0, 66, 64
2, 25809, Note_off_c, 0, 66, 52
2, 25809, Note_on_c, 0, 65, 64
2, 25869, Note_off_c, 0, 65, 9
2, 25869, Note_on_c, 0, 63, 64
2, 25929, Note_off_c, 0, 63, 43
2, 25929, Note_on_c, 0, 61, 64
2, 26049, Note_off_c, 0, 61, 48
2, 26049, Note_on_c, 0, 73, 64
2, 26109, Note_off_c, 0, 73, 74
2, 26109, Note_on_c, 0, 72, 64
2, 26169, Note_off_c, 0, 72, 69
2, 26169, Note_on_c, 0, 73, 64
2, 26289, Note_off_c, 0, 73, 73
2, 26289, Note_on_c, 0, 70, 64
2, 26409, Note_off_c, 0, 70, 69
2, 26409, Note_on_c, 0, 65, 64
2, 26529, Note_off_c, 0, 65, 51
2, 26529, Note_on_c, 0, 68, 64
2, 26649, Note_off_c, 0, 68, 73
2, 26649, Note_on_c, 0, 68, 72
2, 26669, Note_off_c, 0, 68, 74
2, 26669, Note_on_c, 0, 67, 51
2, 26689, Note_off_c, 0, 67, 73
2, 26689, Note_on_c, 0, 68, 53
2, 26709, Note_off_c, 0, 68, 73
2, 26709, Note_on_c, 0, 67, 55
2, 26729, Note_off_c, 0, 67, 69
2, 26729, Note_on_c, 0, 68, 57
2, 26749, Note_off_c, 0, 68, 77
2, 26749, Note_on_c, 0, 67, 60
2, 26889, Note_off_c, 0, 67, 83
2, 26889, Note_on_c, 0, 73, 64
2, 27189, Note_off_c, 0, 73, 66
2, 27189, Note_on_c, 0, 65, 64
2, 27249, Note_off_c, 0, 65, 66
2, 27249, Note_on_c, 0, 63, 64
2, 27309, Note_off_c, 0, 63, 46
2, 27309, Note_on_c, 0, 61, 64
2, 27369, Note_off_c, 0, 61, 63
2, 27369, Note_on_c, 0, 60, 64
2, 27429, Note_off_c, 0, 60, 20
2, 27429, Note_on_c, 0, 72, 64
2, 27489, Note_off_c, 0, 72, 37
2, 27489, Note_on_c, 0, 70, 64
2, 27549, Note_off_c, 0, 70, 68
2, 27549, Note_on_c, 0, 72, 64
2, 27609, Note_off_c, 0, 72, 70
2, 27609, Note_on_c, 0, 68, 64
2, 27669, Note_off_c, 0, 68, 72
2, 27669, Note_on_c, 0, 72, 64
2, 27729, Note_off_c, 0, 72, 70
2, 27729, Note_on_c, 0, 67, 64
2, 27789, Note_off_c, 0, 67, 47
2, 27789, Note_on_c, 0, 72, 64
2, 27849, Note_off_c, 0, 72, 69
2, 27849, Note_on_c, 0, 65, 64
2, 27909, Note_off_c, 0, 65, 45
2, 27909, Note_on_c, 0, 72, 64
2, 27969, Note_off_c, 0, 72, 65
2, 27969, Note_on_c, 0, 63, 64
2, 28029, Note_off_c, 0, 63, 23
2, 28029, Note_on_c, 0, 72, 64
2, 28089, Note_off_c, 0, 72, 74
2, 28089, Note_on_c, 0, 61, 64
2, 28149, Note_off_c, 0, 61, 37
2, 28149, Note_on_c, 0, 73, 64
2, 28209, Note_off_c, 0, 73, 51
2, 28209, Note_on_c, 0, 72, 64
2, 28269, Note_off_c, 0, 72, 73
2, 28269, Note_on_c, 0, 73, 64
2, 28329, Note_off_c, 0, 73, 62
2, 28329, Note_on_c, 0, 70, 64
2, 28389, Note_off_c, 0, 70, 73
2, 28389, Note_on_c, 0, 73, 64
2, 28449, Note_off_c, 0, 73, 73
2, 28449, Note_on_c, 0, 68, 64
2, 28509, Note_off_c, 0, 68, 62
2, 28509, Note_on_c, 0, 73, 64
2, 28569, Note_off_c, 0, 73, 70
2, 28569, Note_on_c, 0, 67, 64
2, 28629, Note_off_c, 0, 67, 46
2, 28629, Note_on_c, 0, 73, 64
2, 28689, Note_off_c, 0, 73, 68
2, 28689, Note_on_c, 0, 65, 64
2, 28749, Note_off_c, 0, 65, 54
2, 28749, Note_on_c, 0, 73, 64
2, 28809, Note_off_c, 0, 73, 73
2, 28809, Note_on_c, 0, 63, 64
2, 28929, Note_off_c, 0, 63, 40
2, 28929, Note_on_c, 0, 68, 69
2, 28949, Note_off_c, 0, 68, 74
2, 28949, Note_on_c, 0, 70, 50
2, 28969, Note_off_c, 0, 70, 73
2, 28969, Note_on_c, 0, 68, 58
2, 28989, Note_off_c, 0, 68, 66
2, 28989, Note_on_c, 0, 67, 64
2, 29049, Note_off_c, 0, 67, 48
2, 29049, Note_on_c, 0, 68, 64
2, 29169, Note_off_c, 0, 68, 66
2, 29169, Note_on_c, 0, 72, 64
2, 29289, Note_off_c, 0, 72, 66
2, 29289, Note_on_c, 0, 65, 64
2, 29409, Note_off_c, 0, 65, 35
2, 29409, Note_on_c, 0, 68, 64
2, 29529, Note_off_c, 0, 68, 63
2, 29529, Note_on_c, 0, 73, 64
2, 29649, Note_off_c, 0, 73, 65
2, 29649, Note_on_c, 0, 67, 69
2, 29669, Note_off_c, 0, 67, 59
2, 29669, Note_on_c, 0, 68, 50
2, 29689, Note_off_c, 0, 68, 69
2, 29689, Note_on_c, 0, 67, 58
2, 29709, Note_off_c, 0, 67, 58
2, 29709, Note_on_c, 0, 65, 64
2, 29769, Note_off_c, 0, 65, 36
2, 29769, Note_on_c, 0, 67, 64
2, 29889, Note_off_c, 0, 67, 42
2, 29889, Note_on_c, 0, 70, 64
2, 30009, Note_off_c, 0, 70, 68
2, 30009, Note_on_c, 0, 63, 64
2, 30129, Note_off_c, 0, 63, 27
2, 30129, Note_on_c, 0, 67, 64
2, 30249, Note_off_c, 0, 67, 57
2, 30249, Note_on_c, 0, 72, 64
2, 30369, Note_off_c, 0, 72, 59
2, 30369, Note_on_c, 0, 65, 64
2, 30369, Note_on_c, 0, 61, 64
2, 30369, Note_on_c, 0, 68, 64
2, 30489, Note_off_c, 0, 68, 70
2, 30489, Note_off_c, 0, 61, 16
2, 30489, Note_off_c, 0, 65, 58
2, 30489, Note_on_c, 0, 63, 64
2, 30489, Note_on_c, 0, 58, 64
2, 30489, Note_on_c, 0, 68, 64
2, 30729, Note_off_c, 0, 68, 72
2, 30729, Note_on_c, 0, 67, 64
2, 30969, Note_off_c, 0, 67, 61
2, 30969, Note_off_c, 0, 58, 35
2, 30969, Note_off_c, 0, 63, 53
2, 30969, Note_on_c, 0, 60, 64
2, 30969, Note_on_c, 0, 68, 64
2, 30969, Note_on_c, 0, 63, 64
2, 31689, Note_off_c, 0, 63, 45
2, 31689, Note_off_c, 0, 68, 74
2, 31689, Note_off_c, 0, 60, 61
2, 31689, End_track
3, 0, Start_track
3, 0, Text_t, "LH B"
3, 0, Note_on_c, 1, 56, 64
3, 0, Note_on_c, 1, 63, 64
3, 0, Note_on_c, 1, 60, 64
3, 240, Note_off_c, 1, 60, 48
3, 240, Note_off_c, 1, 63, 43
3, 240, Note_off_c, 1, 56, 30
3, 720, Note_on_c, 1, 63, 64
3, 720, Note_on_c, 1, 58, 64
3, 720, Note_on_c, 1, 55, 64
3, 960, Note_off_c, 1, 55, 52
3, 960, Note_off_c, 1, 58, 57
3, 960, Note_off_c, 1, 63, 48
3, 1560, Note_on_c, 1, 56, 64
3, 1620, Note_off_c, 1, 56, 52
3, 1620, Note_on_c, 1, 55, 64
3, 1680, Note_off_c, 1, 55, 40
3, 1680, Note_on_c, 1, 56, 64
3, 1800, Note_off_c, 1, 56, 50
3, 1800, Note_on_c, 1, 60, 64
3, 1920, Note_off_c, 1, 60, 52
3, 1920, Note_on_c, 1, 51, 64
3, 2040, Note_off_c, 1, 51, 29
3, 2040, Note_on_c, 1, 56, 64
3, 2160, Note_off_c, 1, 56, 54
3, 2280, Note_on_c, 1, 58, 64
3, 2340, Note_off_c, 1, 58, 72
3, 2340, Note_on_c, 1, 56, 64
3, 2400, Note_off_c, 1, 56, 57
3, 2400, Note_on_c, 1, 58, 64
3, 2520, Note_off_c, 1, 58, 73
3, 2520, Note_on_c, 1, 61, 64
3, 2640, Note_off_c, 1, 61, 72
3, 2640, Note_on_c, 1, 51, 64
3, 2760, Note_off_c, 1, 51, 42
3, 2760, Note_on_c, 1, 58, 64
3, 2880, Note_off_c, 1, 58, 65
3, 3000, Note_on_c, 1, 60, 64
3, 3060, Note_off_c, 1, 60, 46
3, 3060, Note_on_c, 1, 58, 64
3, 3120, Note_off_c, 1, 58, 62
3, 3120, Note_on_c, 1, 60, 64
3, 3240, Note_off_c, 1, 60, 62
3, 3240, Note_on_c, 1, 63, 64
3, 3360, Note_off_c, 1, 63, 46
3, 3360, Note_on_c, 1, 56, 64
3, 3480, Note_off_c, 1, 56, 49
3, 3480, Note_on_c, 1, 60, 64
3, 3600, Note_off_c, 1, 60, 65
3, 3600, Note_on_c, 1, 53, 64
3, 3840, Note_off_c, 1, 53, 31
3, 3840, Note_on_c, 1, 65, 64
3, 4080, Note_off_c, 1, 65, 1
3, 4440, Note_on_c, 1, 58, 64
3, 4500, Note_off_c, 1, 58, 65
3, 4500, Note_on_c, 1, 56, 64
3, 4560, Note_off_c, 1, 56, 52
3, 4560, Note_on_c, 1, 58, 64
3, 4680, Note_off_c, 1, 58, 62
3, 4680, Note_on_c, 1, 61, 64
3, 4800, Note_off_c, 1, 61, 48
3, 4800, Note_on_c, 1, 55, 64
3, 4920, Note_off_c, 1, 55, 35
3, 4920, Note_on_c, 1, 58, 64
3, 5040, Note_off_c, 1, 58, 62
3, 5040, Note_on_c, 1, 51, 64
3, 5280, Note_off_c, 1, 51, 25
3, 5280, Note_on_c, 1, 63, 64
3, 5520, Note_off_c, 1, 63, 39
3, 5880, Note_on_c, 1, 56, 64
3, 5940, Note_off_c, 1, 56, 52
3, 5940, Note_on_c, 1, 55, 64
3, 6000, Note_off_c, 1, 55, 46
3, 6000, Note_on_c, 1, 56, 64
3, 6120, Note_off_c, 1, 56, 45
3, 6120, Note_on_c, 1, 60, 64
3, 6240, Note_off_c, 1, 60, 52
3, 6240, Note_on_c, 1, 53, 64
3, 6360, Note_off_c, 1, 53, 49
3, 6360, Note_on_c, 1, 56, 64
3, 6480, Note_off_c, 1, 56, 49
3, 6480, Note_on_c, 1, 50, 64
3, 6600, Note_off_c, 1, 50, 28
3, 6600, Note_on_c, 1, 55, 64
3, 6660, Note_off_c, 1, 55, 69
3, 6660, Note_on_c, 1, 53, 64
3, 6720, Note_off_c, 1, 53, 62
3, 6720, Note_on_c, 1, 55, 64
3, 6840, Note_off_c, 1, 55, 61
3, 6840, Note_on_c, 1, 58, 64
3, 6960, Note_off_c, 1, 58, 52
3, 6960, Note_on_c, 1, 51, 64
3, 7080, Note_off_c, 1, 51, 33
3, 7080, Note_on_c, 1, 55, 64
3, 7200, Note_off_c, 1, 55, 57
3, 7200, Note_on_c, 1, 48, 64
3, 7320, Note_off_c, 1, 48, 34
3, 7320, Note_on_c, 1, 55, 64
3, 7380, Note_off_c, 1, 55, 61
3, 7380, Note_on_c, 1, 51, 64
3, 7440, Note_off_c, 1, 51, 58
3, 7440, Note_on_c, 1, 53, 64
3, 7560, Note_off_c, 1, 53, 62
3, 7560, Note_on_c, 1, 56, 64
3, 7680, Note_off_c, 1, 56, 57
3, 7680, Note_on_c, 1, 50, 64
3, 7800, Note_off_c, 1, 50, 46
3, 7800, Note_on_c, 1, 53, 64
3, 7920, Note_off_c, 1, 53, 58
3, 7920, Note_on_c, 1, 46, 64
3, 8040, Note_off_c, 1, 46, 27
3, 8040, Note_on_c, 1, 51, 64
3, 8100, Note_off_c, 1, 51, 57
3, 8100, Note_on_c, 1, 50, 64
3, 8160, Note_off_c, 1, 50, 40
3, 8160, Note_on_c, 1, 51, 64
3, 8280, Note_off_c, 1, 51, 55
3, 8280, Note_on_c, 1, 55, 64
3, 8400, Note_off_c, 1, 55, 58
3, 8400, Note_on_c, 1, 48, 64
3, 8520, Note_off_c, 1, 48, 27
3, 8520, Note_on_c, 1, 51, 64
3, 8640, Note_off_c, 1, 51, 54
3, 8640, Note_on_c, 1, 44, 64
3, 8760, Note_off_c, 1, 44, 40
3, 8760, Note_on_c, 1, 53, 64
3, 8820, Note_off_c, 1, 53, 55
3, 8820, Note_on_c, 1, 51, 64
3, 8880, Note_off_c, 1, 51, 66
3, 8880, Note_on_c, 1, 53, 64
3, 9000, Note_off_c, 1, 53, 54
3, 9000, Note_on_c, 1, 56, 64
3, 9120, Note_off_c, 1, 56, 66
3, 9120, Note_on_c, 1, 50, 64
3, 9240, Note_off_c, 1, 50, 46
3, 9240, Note_on_c, 1, 53, 64
3, 9360, Note_off_c, 1, 53, 49
3, 9360, Note_on_c, 1, 46, 64
3, 9480, Note_off_c, 1, 46, 22
3, 9480, Note_on_c, 1, 55, 64
3, 9540, Note_off_c, 1, 55, 52
3, 9540, Note_on_c, 1, 53, 64
3, 9600, Note_off_c, 1, 53, 53
3, 9600, Note_on_c, 1, 55, 64
3, 9720, Note_off_c, 1, 55, 62
3, 9720, Note_on_c, 1, 58, 64
3, 9840, Note_off_c, 1, 58, 51
3, 9840, Note_on_c, 1, 51, 64
3, 9960, Note_off_c, 1, 51, 29
3, 9960, Note_on_c, 1, 55, 64
3, 10080, Note_off_c, 1, 55, 65
3, 10080, Note_on_c, 1, 48, 64
3, 10200, Note_off_c, 1, 48, 30
3, 10200, Note_on_c, 1, 56, 64
3, 10260, Note_off_c, 1, 56, 62
3, 10260, Note_on_c, 1, 55, 64
3, 10320, Note_off_c, 1, 55, 52
3, 10320, Note_on_c, 1, 56, 64
3, 10440, Note_off_c, 1, 56, 59
3, 10440, Note_on_c, 1, 60, 64
3, 10560, Note_off_c, 1, 60, 42
3, 10560, Note_on_c, 1, 53, 64
3, 10680, Note_off_c, 1, 53, 40
3, 10680, Note_on_c, 1, 56, 64
3, 10800, Note_off_c, 1, 56, 62
3, 10800, Note_on_c, 1, 50, 64
3, 10920, Note_off_c, 1, 50, 47
3, 10920, Note_on_c, 1, 53, 64
3, 11040, Note_off_c, 1, 53, 72
3, 11040, Note_on_c, 1, 46, 64
3, 11160, Note_off_c, 1, 46, 30
3, 11160, Note_on_c, 1, 50, 64
3, 11280, Note_off_c, 1, 50, 51
3, 11280, Note_on_c, 1, 51, 64
3, 11400, Note_off_c, 1, 51, 51
3, 11400, Note_on_c, 1, 48, 64
3, 11520, Note_off_c, 1, 48, 58
3, 11520, Note_on_c, 1, 43, 64
3, 11640, Note_off_c, 1, 43, 23
3, 11640, Note_on_c, 1, 41, 64
3, 11760, Note_off_c, 1, 41, 29
3, 11760, Note_on_c, 1, 43, 64
3, 11880, Note_off_c, 1, 43, 48
3, 11880, Note_on_c, 1, 44, 64
3, 12000, Note_off_c, 1, 44, 65
3, 12000, Note_on_c, 1, 46, 64
3, 12240, Note_off_c, 1, 46, 57
3, 12360, Note_on_c, 1, 51, 64
3, 12420, Note_off_c, 1, 51, 63
3, 12420, Note_on_c, 1, 50, 64
3, 12480, Note_off_c, 1, 50, 54
3, 12480, Note_on_c, 1, 51, 64
3, 12600, Note_off_c, 1, 51, 46
3, 12600, Note_on_c, 1, 55, 64
3, 12720, Note_off_c, 1, 55, 58
3, 12720, Note_on_c, 1, 46, 64
3, 12840, Note_off_c, 1, 46, 30
3, 12840, Note_on_c, 1, 51, 64
3, 12960, Note_off_c, 1, 51, 55
3, 13080, Note_on_c, 1, 53, 64
3, 13140, Note_off_c, 1, 53, 62
3, 13140, Note_on_c, 1, 51, 64
3, 13200, Note_off_c, 1, 51, 57
3, 13200, Note_on_c, 1, 53, 64
3, 13320, Note_off_c, 1, 53, 49
3, 13320, Note_on_c, 1, 56, 64
3, 13440, Note_off_c, 1, 56, 69
3, 13440, Note_on_c, 1, 46, 64
3, 13560, Note_off_c, 1, 46, 34
3, 13560, Note_on_c, 1, 53, 64
3, 13680, Note_off_c, 1, 53, 54
3, 13680, Note_on_c, 1, 55, 64
3, 13920, Note_off_c, 1, 55, 62
3, 14040, Note_on_c, 1, 51, 64
3, 14100, Note_off_c, 1, 51, 55
3, 14100, Note_on_c, 1, 53, 64
3, 14160, Note_off_c, 1, 53, 61
3, 14160, Note_on_c, 1, 55, 64
3, 14220, Note_off_c, 1, 55, 57
3, 14220, Note_on_c, 1, 53, 64
3, 14280, Note_off_c, 1, 53, 53
3, 14280, Note_on_c, 1, 55, 64
3, 14340, Note_off_c, 1, 55, 55
3, 14340, Note_on_c, 1, 51, 64
3, 14400, Note_off_c, 1, 51, 50
3, 14400, Note_on_c, 1, 58, 64
3, 14520, Note_off_c, 1, 58, 72
3, 14520, Note_on_c, 1, 46, 64
3, 14640, Note_off_c, 1, 46, 21
3, 14760, Note_on_c, 1, 46, 64
3, 14820, Note_off_c, 1, 46, 47
3, 14820, Note_on_c, 1, 48, 64
3, 14880, Note_off_c, 1, 48, 49
3, 14880, Note_on_c, 1, 50, 64
3, 14940, Note_off_c, 1, 50, 55
3, 14940, Note_on_c, 1, 48, 64
3, 15000, Note_off_c, 1, 48, 44
3, 15000, Note_on_c, 1, 50, 64
3, 15060, Note_off_c, 1, 50, 65
3, 15060, Note_on_c, 1, 46, 64
3, 15120, Note_off_c, 1, 46, 44
3, 15120, Note_on_c, 1, 51, 64
3, 15240, Note_off_c, 1, 51, 69
3, 15240, Note_on_c, 1, 39, 64
3, 15360, Note_off_c, 1, 39, 49
3, 15480, Note_on_c, 1, 61, 64
3, 15540, Note_off_c, 1, 61, 59
3, 15540, Note_on_c, 1, 60, 64
3, 15600, Note_off_c, 1, 60, 49
3, 15600, Note_on_c, 1, 58, 64
3, 15660, Note_off_c, 1, 58, 59
3, 15660, Note_on_c, 1, 60, 64
3, 15720, Note_off_c, 1, 60, 73
3, 15720, Note_on_c, 1, 56, 64
3, 15780, Note_off_c, 1, 56, 55
3, 15780, Note_on_c, 1, 58, 64
3, 15840, Note_off_c, 1, 58, 52
3, 15840, Note_on_c, 1, 55, 64
3, 15900, Note_off_c, 1, 55, 43
3, 15900, Note_on_c, 1, 56, 64
3, 15960, Note_off_c, 1, 56, 52
3, 15960, Note_on_c, 1, 53, 64
3, 16020, Note_off_c, 1, 53, 48
3, 16020, Note_on_c, 1, 55, 64
3, 16080, Note_off_c, 1, 55, 70
3, 16080, Note_on_c, 1, 51, 64
3, 16140, Note_off_c, 1, 51, 52
3, 16140, Note_on_c, 1, 53, 64
3, 16200, Note_off_c, 1, 53, 69
3, 16200, Note_on_c, 1, 49, 64
3, 16260, Note_off_c, 1, 49, 62
3, 16260, Note_on_c, 1, 51, 64
3, 16320, Note_off_c, 1, 51, 62
3, 16320, Note_on_c, 1, 48, 64
3, 16380, Note_off_c, 1, 48, 37
3, 16380, Note_on_c, 1, 49, 64
3, 16440, Note_off_c, 1, 49, 63
3, 16440, Note_on_c, 1, 46, 64
3, 16500, Note_off_c, 1, 46, 45
3, 16500, Note_on_c, 1, 48, 64
3, 16560, Note_off_c, 1, 48, 68
3, 16560, Note_on_c, 1, 44, 64
3, 16680, Note_off_c, 1, 44, 52
3, 16680, Note_on_c, 1, 63, 64
3, 16740, Note_off_c, 1, 63, 48
3, 16740, Note_on_c, 1, 62, 64
3, 16800, Note_off_c, 1, 62, 51
3, 16800, Note_on_c, 1, 63, 64
3, 16920, Note_off_c, 1, 63, 47
3, 16920, Note_on_c, 1, 68, 64
3, 17040, Note_off_c, 1, 68, 45
3, 17040, Note_on_c, 1, 60, 64
3, 17160, Note_off_c, 1, 60, 36
3, 17160, Note_on_c, 1, 63, 64
3, 17280, Note_off_c, 1, 63, 46
3, 17280, Note_on_c, 1, 56, 64
3, 17400, Note_off_c, 1, 56, 17
3, 17400, Note_on_c, 1, 60, 64
3, 17460, Note_off_c, 1, 60, 72
3, 17460, Note_on_c, 1, 58, 64
3, 17520, Note_off_c, 1, 58, 68
3, 17520, Note_on_c, 1, 60, 64
3, 17640, Note_off_c, 1, 60, 55
3, 17640, Note_on_c, 1, 63, 64
3, 17760, Note_off_c, 1, 63, 53
3, 17760, Note_on_c, 1, 56, 64
3, 17880, Note_off_c, 1, 56, 8
3, 17880, Note_on_c, 1, 60, 64
3, 18000, Note_off_c, 1, 60, 61
3, 18000, Note_on_c, 1, 53, 64
3, 18300, Note_off_c, 1, 53, 9
3, 18300, Note_on_c, 1, 56, 64
3, 18360, Note_off_c, 1, 56, 47
3, 18360, Note_on_c, 1, 58, 64
3, 18420, Note_off_c, 1, 58, 70
3, 18420, Note_on_c, 1, 60, 64
3, 18480, Note_off_c, 1, 60, 41
3, 18480, Note_on_c, 1, 61, 64
3, 18540, Note_off_c, 1, 61, 69
3, 18540, Note_on_c, 1, 58, 64
3, 18600, Note_off_c, 1, 58, 55
3, 18600, Note_on_c, 1, 55, 64
3, 18660, Note_off_c, 1, 55, 46
3, 18660, Note_on_c, 1, 58, 64
3, 18720, Note_off_c, 1, 58, 52
3, 18720, Note_on_c, 1, 51, 64
3, 19020, Note_off_c, 1, 51, 39
3, 19020, Note_on_c, 1, 55, 64
3, 19080, Note_off_c, 1, 55, 43
3, 19080, Note_on_c, 1, 56, 64
3, 19140, Note_off_c, 1, 56, 47
3, 19140, Note_on_c, 1, 58, 64
3, 19200, Note_off_c, 1, 58, 66
3, 19200, Note_on_c, 1, 60, 64
3, 19260, Note_off_c, 1, 60, 62
3, 19260, Note_on_c, 1, 56, 64
3, 19320, Note_off_c, 1, 56, 50
3, 19320, Note_on_c, 1, 53, 64
3, 19380, Note_off_c, 1, 53, 38
3, 19380, Note_on_c, 1, 56, 64
3, 19440, Note_off_c, 1, 56, 51
3, 19440, Note_on_c, 1, 49, 64
3, 19500, Note_off_c, 1, 49, 61
3, 19500, Note_on_c, 1, 51, 64
3, 19560, Note_off_c, 1, 51, 61
3, 19560, Note_on_c, 1, 48, 64
3, 19620, Note_off_c, 1, 48, 37
3, 19620, Note_on_c, 1, 51, 64
3, 19680, Note_off_c, 1, 51, 57
3, 19680, Note_on_c, 1, 49, 64
3, 19740, Note_off_c, 1, 49, 49
3, 19740, Note_on_c, 1, 53, 64
3, 19800, Note_off_c, 1, 53, 74
3, 19800, Note_on_c, 1, 55, 64
3, 19860, Note_off_c, 1, 55, 51
3, 19860, Note_on_c, 1, 56, 64
3, 19920, Note_off_c, 1, 56, 57
3, 19920, Note_on_c, 1, 58, 64
3, 19980, Note_off_c, 1, 58, 53
3, 19980, Note_on_c, 1, 55, 64
3, 20040, Note_off_c, 1, 55, 69
3, 20040, Note_on_c, 1, 51, 64
3, 20100, Note_off_c, 1, 51, 48
3, 20100, Note_on_c, 1, 55, 64
3, 20160, Note_off_c, 1, 55, 74
3, 20160, Note_on_c, 1, 48, 64
3, 20220, Note_off_c, 1, 48, 28
3, 20220, Note_on_c, 1, 49, 64
3, 20280, Note_off_c, 1, 49, 54
3, 20280, Note_on_c, 1, 46, 64
3, 20340, Note_off_c, 1, 46, 40
3, 20340, Note_on_c, 1, 49, 64
3, 20400, Note_off_c, 1, 49, 66
3, 20400, Note_on_c, 1, 48, 64
3, 20460, Note_off_c, 1, 48, 27
3, 20460, Note_on_c, 1, 51, 64
3, 20520, Note_off_c, 1, 51, 51
3, 20520, Note_on_c, 1, 53, 64
3, 20580, Note_off_c, 1, 53, 66
3, 20580, Note_on_c, 1, 55, 64
3, 20640, Note_off_c, 1, 55, 36
3, 20640, Note_on_c, 1, 56, 64
3, 20700, Note_off_c, 1, 56, 49
3, 20700, Note_on_c, 1, 53, 64
3, 20760, Note_off_c, 1, 53, 53
3, 20760, Note_on_c, 1, 49, 64
3, 20820, Note_off_c, 1, 49, 34
3, 20820, Note_on_c, 1, 53, 64
3, 20880, Note_off_c, 1, 53, 49
3, 20880, Note_on_c, 1, 46, 64
3, 20940, Note_off_c, 1, 46, 37
3, 20940, Note_on_c, 1, 56, 64
3, 21000, Note_off_c, 1, 56, 46
3, 21000, Note_on_c, 1, 55, 64
3, 21060, Note_off_c, 1, 55, 61
3, 21060, Note_on_c, 1, 56, 64
3, 21120, Note_off_c, 1, 56, 50
3, 21120, Note_on_c, 1, 49, 64
3, 21180, Note_off_c, 1, 49, 45
3, 21180, Note_on_c, 1, 56, 64
3, 21240, Note_off_c, 1, 56, 52
3, 21240, Note_on_c, 1, 55, 64
3, 21300, Note_off_c, 1, 55, 58
3, 21300, Note_on_c, 1, 56, 64
3, 21360, Note_off_c, 1, 56, 57
3, 21360, Note_on_c, 1, 46, 64
3, 21420, Note_off_c, 1, 46, 46
3, 21420, Note_on_c, 1, 56, 64
3, 21480, Note_off_c, 1, 56, 39
3, 21480, Note_on_c, 1, 55, 64
3, 21540, Note_off_c, 1, 55, 46
3, 21540, Note_on_c, 1, 56, 64
3, 21600, Note_off_c, 1, 56, 46
3, 21600, Note_on_c, 1, 48, 64
3, 21660, Note_off_c, 1, 48, 37
3, 21660, Note_on_c, 1, 56, 64
3, 21720, Note_off_c, 1, 56, 61
3, 21720, Note_on_c, 1, 55, 64
3, 21780, Note_off_c, 1, 55, 52
3, 21780, Note_on_c, 1, 56, 64
3, 21840, Note_off_c, 1, 56, 61
3, 21840, Note_on_c, 1, 51, 64
3, 21900, Note_off_c, 1, 51, 49
3, 21900, Note_on_c, 1, 56, 64
3, 21960, Note_off_c, 1, 56, 52
3, 21960, Note_on_c, 1, 55, 64
3, 22020, Note_off_c, 1, 55, 54
3, 22020, Note_on_c, 1, 56, 64
3, 22080, Note_off_c, 1, 56, 52
3, 22080, Note_on_c, 1, 48, 64
3, 22140, Note_off_c, 1, 48, 49
3, 22140, Note_on_c, 1, 56, 64
3, 22200, Note_off_c, 1, 56, 49
3, 22200, Note_on_c, 1, 55, 64
3, 22260, Note_off_c, 1, 55, 54
3, 22260, Note_on_c, 1, 56, 64
3, 22320, Note_off_c, 1, 56, 62
3, 22320, Note_on_c, 1, 49, 64
3, 22380, Note_off_c, 1, 49, 49
3, 22380, Note_on_c, 1, 56, 64
3, 22440, Note_off_c, 1, 56, 49
3, 22440, Note_on_c, 1, 54, 64
3, 22500, Note_off_c, 1, 54, 48
3, 22500, Note_on_c, 1, 56, 64
3, 22560, Note_off_c, 1, 56, 50
3, 22560, Note_on_c, 1, 53, 64
3, 22620, Note_off_c, 1, 53, 43
3, 22620, Note_on_c, 1, 56, 64
3, 22680, Note_off_c, 1, 56, 62
3, 22680, Note_on_c, 1, 51, 64
3, 22740, Note_off_c, 1, 51, 43
3, 22740, Note_on_c, 1, 56, 64
3, 22800, Note_off_c, 1, 56, 52
3, 22800, Note_on_c, 1, 49, 64
3, 22860, Note_off_c, 1, 49, 48
3, 22860, Note_on_c, 1, 56, 64
3, 22920, Note_off_c, 1, 56, 40
3, 22920, Note_on_c, 1, 48, 64
3, 22980, Note_off_c, 1, 48, 37
3, 22980, Note_on_c, 1, 56, 64
3, 23040, Note_off_c, 1, 56, 42
3, 23040, Note_on_c, 1, 46, 64
3, 23100, Note_off_c, 1, 46, 46
3, 23100, Note_on_c, 1, 49, 64
3, 23160, Note_off_c, 1, 49, 50
3, 23160, Note_on_c, 1, 48, 64
3, 23220, Note_off_c, 1, 48, 40
3, 23220, Note_on_c, 1, 51, 64
3, 23280, Note_off_c, 1, 51, 51
3, 23280, Note_on_c, 1, 49, 64
3, 23340, Note_off_c, 1, 49, 52
3, 23340, Note_on_c, 1, 53, 64
3, 23400, Note_off_c, 1, 53, 46
3, 23400, Note_on_c, 1, 51, 64
3, 23460, Note_off_c, 1, 51, 43
3, 23460, Note_on_c, 1, 49, 64
3, 23520, Note_off_c, 1, 49, 52
3, 23520, Note_on_c, 1, 48, 64
3, 23580, Note_off_c, 1, 48, 43
3, 23580, Note_on_c, 1, 51, 64
3, 23640, Note_off_c, 1, 51, 55
3, 23640, Note_on_c, 1, 49, 64
3, 23700, Note_off_c, 1, 49, 52
3, 23700, Note_on_c, 1, 53, 64
3, 23760, Note_off_c, 1, 53, 53
3, 23760, Note_on_c, 1, 51, 64
3, 23880, Note_off_c, 1, 51, 49
3, 23880, Note_on_c, 1, 53, 64
3, 23940, Note_off_c, 1, 53, 52
3, 23940, Note_on_c, 1, 49, 64
3, 24000, Note_off_c, 1, 49, 52
3, 24000, Note_on_c, 1, 51, 64
3, 24120, Note_off_c, 1, 51, 57
3, 24120, Note_on_c, 1, 49, 64
3, 24240, Note_off_c, 1, 49, 68
3, 24240, Note_on_c, 1, 51, 64
3, 24360, Note_off_c, 1, 51, 76
3, 24360, Note_on_c, 1, 39, 64
3, 24480, Note_off_c, 1, 39, 29
3, 24480, Note_on_c, 1, 44, 64
3, 24720, Note_off_c, 1, 44, 66
3, 24720, Note_on_c, 1, 56, 64
3, 24960, Note_off_c, 1, 56, 55
3, 25320, Note_on_c, 1, 53, 64
3, 25380, Note_off_c, 1, 53, 61
3, 25380, Note_on_c, 1, 51, 64
3, 25440, Note_off_c, 1, 51, 47
3, 25440, Note_on_c, 1, 53, 64
3, 25560, Note_off_c, 1, 53, 65
3, 25560, Note_on_c, 1, 56, 64
3, 25680, Note_off_c, 1, 56, 50
3, 25680, Note_on_c, 1, 49, 64
3, 25800, Note_off_c, 1, 49, 58
3, 25800, Note_on_c, 1, 53, 64
3, 25920, Note_off_c, 1, 53, 52
3, 25920, Note_on_c, 1, 46, 64
3, 26160, Note_off_c, 1, 46, 32
3, 26160, Note_on_c, 1, 58, 64
3, 26400, Note_off_c, 1, 58, 49
3, 26760, Note_on_c, 1, 51, 64
3, 26820, Note_off_c, 1, 51, 59
3, 26820, Note_on_c, 1, 49, 64
3, 26880, Note_off_c, 1, 49, 73
3, 26880, Note_on_c, 1, 51, 64
3, 27000, Note_off_c, 1, 51, 58
3, 27000, Note_on_c, 1, 55, 64
3, 27120, Note_off_c, 1, 55, 59
3, 27120, Note_on_c, 1, 48, 64
3, 27240, Note_off_c, 1, 48, 40
3, 27240, Note_on_c, 1, 51, 64
3, 27360, Note_off_c, 1, 51, 49
3, 27360, Note_on_c, 1, 44, 64
3, 27420, Note_off_c, 1, 44, 63
3, 27420, Note_on_c, 1, 56, 64
3, 27480, Note_off_c, 1, 56, 49
3, 27480, Note_on_c, 1, 55, 64
3, 27540, Note_off_c, 1, 55, 54
3, 27540, Note_on_c, 1, 56, 64
3, 27600, Note_off_c, 1, 56, 59
3, 27600, Note_on_c, 1, 53, 64
3, 27660, Note_off_c, 1, 53, 42
3, 27660, Note_on_c, 1, 56, 64
3, 27720, Note_off_c, 1, 56, 65
3, 27720, Note_on_c, 1, 51, 64
3, 27780, Note_off_c, 1, 51, 52
3, 27780, Note_on_c, 1, 56, 64
3, 27840, Note_off_c, 1, 56, 61
3, 27840, Note_on_c, 1, 49, 64
3, 27900, Note_off_c, 1, 49, 49
3, 27900, Note_on_c, 1, 56, 64
3, 27960, Note_off_c, 1, 56, 30
3, 27960, Note_on_c, 1, 48, 64
3, 28020, Note_off_c, 1, 48, 41
3, 28020, Note_on_c, 1, 56, 64
3, 28080, Note_off_c, 1, 56, 41
3, 28080, Note_on_c, 1, 46, 64
3, 28140, Note_off_c, 1, 46, 49
3, 28140, Note_on_c, 1, 58, 64
3, 28200, Note_off_c, 1, 58, 61
3, 28200, Note_on_c, 1, 56, 64
3, 28260, Note_off_c, 1, 56, 58
3, 28260, Note_on_c, 1, 58, 64
3, 28320, Note_off_c, 1, 58, 54
3, 28320, Note_on_c, 1, 55, 64
3, 28380, Note_off_c, 1, 55, 21
3, 28380, Note_on_c, 1, 58, 64
3, 28440, Note_off_c, 1, 58, 55
3, 28440, Note_on_c, 1, 53, 64
3, 28500, Note_off_c, 1, 53, 46
3, 28500, Note_on_c, 1, 58, 64
3, 28560, Note_off_c, 1, 58, 50
3, 28560, Note_on_c, 1, 51, 64
3, 28620, Note_off_c, 1, 51, 45
3, 28620, Note_on_c, 1, 58, 64
3, 28680, Note_off_c, 1, 58, 50
3, 28680, Note_on_c, 1, 49, 64
3, 28740, Note_off_c, 1, 49, 47
3, 28740, Note_on_c, 1, 58, 64
3, 28800, Note_off_c, 1, 58, 52
3, 28800, Note_on_c, 1, 48, 64
3, 28920, Note_off_c, 1, 48, 8
3, 28920, Note_on_c, 1, 60, 64
3, 29040, Note_off_c, 1, 60, 47
3, 29160, Note_on_c, 1, 53, 64
3, 29220, Note_off_c, 1, 53, 40
3, 29220, Note_on_c, 1, 55, 64
3, 29280, Note_off_c, 1, 55, 53
3, 29280, Note_on_c, 1, 56, 64
3, 29340, Note_off_c, 1, 56, 54
3, 29340, Note_on_c, 1, 55, 64
3, 29400, Note_off_c, 1, 55, 52
3, 29400, Note_on_c, 1, 56, 64
3, 29460, Note_off_c, 1, 56, 46
3, 29460, Note_on_c, 1, 53, 64
3, 29520, Note_off_c, 1, 53, 40
3, 29520, Note_on_c, 1, 58, 64
3, 29640, Note_off_c, 1, 58, 59
3, 29640, Note_on_c, 1, 46, 64
3, 29760, Note_off_c, 1, 46, 23
3, 29880, Note_on_c, 1, 51, 64
3, 29940, Note_off_c, 1, 51, 52
3, 29940, Note_on_c, 1, 53, 64
3, 30000, Note_off_c, 1, 53, 55
3, 30000, Note_on_c, 1, 55, 64
3, 30060, Note_off_c, 1, 55, 58
3, 30060, Note_on_c, 1, 53, 64
3, 30120, Note_off_c, 1, 53, 49
3, 30120, Note_on_c, 1, 55, 64
3, 30180, Note_off_c, 1, 55, 53
3, 30180, Note_on_c, 1, 51, 64
3, 30240, Note_off_c, 1, 51, 51
3, 30240, Note_on_c, 1, 56, 64
3, 30360, Note_off_c, 1, 56, 57
3, 30360, Note_on_c, 1, 49, 64
3, 30480, Note_off_c, 1, 49, 65
3, 30480, Note_on_c, 1, 51, 64
3, 30600, Note_off_c, 1, 51, 65
3, 30600, Note_on_c, 1, 49, 64
3, 30720, Note_off_c, 1, 49, 63
3, 30720, Note_on_c, 1, 51, 64
3, 30840, Note_off_c, 1, 51, 74
3, 30840, Note_on_c, 1, 39, 64
3, 30960, Note_off_c, 1, 39, 40
3, 30960, Note_on_c, 1, 44, 64
3, 31680, Note_off_c, 1, 44, 59
3, 31680, End_track
0, 0, End_of_file
