0, 0, Header, 1, 4, 240
1, 0, Start_track
1, 0, Time_signature, 4, 2, 24, 8
1, 0, Tempo, 863275
1, 31920, Tempo, 878426
1, 32040, Tempo, 894282
1, 32160, Tempo, 740741
1, 32280, Tempo, 821918
1, 32400, Tempo, 909091
1, 32520, Tempo, 1016949
1, 32576, Tempo, 1132075
1, 32640, Tempo, 1250000
1, 32640, End_track
2, 0, Start_track
2, 0, Text_t, "RH H"
2, 120, Note_on_c, 0, 73, 69
2, 240, Note_off_c, 0, 73, 48
2, 240, Note_on_c, 0, 78, 69
2, 360, Note_off_c, 0, 78, 58
2, 360, Note_on_c, 0, 77, 69
2, 480, Note_off_c, 0, 77, 51
2, 480, Note_on_c, 0, 78, 69
2, 600, Note_off_c, 0, 78, 52
2, 600, Note_on_c, 0, 77, 64
2, 660, Note_off_c, 0, 77, 69
2, 660, Note_on_c, 0, 75, 64
2, 710, Note_off_c, 0, 75, 44
2, 723, Note_on_c, 0, 75, 72
2, 745, Note_off_c, 0, 75, 50
2, 745, Note_on_c, 0, 73, 50
2, 767, Note_off_c, 0, 73, 68
2, 767, Note_on_c, 0, 75, 52
2, 789, Note_off_c, 0, 75, 54
2, 789, Note_on_c, 0, 73, 55
2, 811, Note_off_c, 0, 73, 58
2, 811, Note_on_c, 0, 75, 57
2, 833, Note_off_c, 0, 75, 54
2, 833, Note_on_c, 0, 73, 59
2, 855, Note_off_c, 0, 73, 58
2, 855, Note_on_c, 0, 75, 61
2, 877, Note_off_c, 0, 75, 49
2, 877, Note_on_c, 0, 73, 63
2, 899, Note_off_c, 0, 73, 47
2, 903, Note_on_c, 0, 71, 72
2, 933, Note_off_c, 0, 71, 80
2, 933, Note_on_c, 0, 73, 64
2, 963, Note_off_c, 0, 73, 66
2, 963, Note_on_c, 0, 75, 64
2, 1203, Note_off_c, 0, 75, 44
2, 1323, Note_on_c, 0, 73, 64
2, 1443, Note_off_c, 0, 73, 61
2, 1443, Note_on_c, 0, 71, 64
2, 1563, Note_off_c, 0, 71, 77
2, 1563, Note_on_c, 0, 70, 64
2, 1683, Note_off_c, 0, 70, 79
2, 1683, Note_on_c, 0, 68, 64
2, 1803, Note_off_c, 0, 68, 65
2, 1803, Note_on_c, 0, 73, 64
2, 1923, Note_off_c, 0, 73, 43
2, 1923, Note_on_c, 0, 70, 64
2, 2043, Note_off_c, 0, 70, 46
2, 2103, Note_on_c, 0, 78, 64
2, 2163, Note_off_c, 0, 78, 62
2, 2163, Note_on_c, 0, 77, 64
2, 2223, Note_off_c, 0, 77, 48
2, 2223, Note_on_c, 0, 78, 64
2, 2283, Note_off_c, 0, 78, 43
2, 2283, Note_on_c, 0, 80, 64
2, 2343, Note_off_c, 0, 80, 51
2, 2343, Note_on_c, 0, 75, 64
2, 2403, Note_off_c, 0, 75, 44
2, 2403, Note_on_c, 0, 77, 64
2, 2463, Note_off_c, 0, 77, 49
2, 2463, Note_on_c, 0, 78, 64
2, 2523, Note_off_c, 0, 78, 54
2, 2523, Note_on_c, 0, 80, 64
2, 2703, Note_off_c, 0, 80, 70
2, 2703, Note_on_c, 0, 78, 64
2, 2763, Note_off_c, 0, 78, 54
2, 2763, Note_on_c, 0, 77, 64
2, 2823, Note_off_c, 0, 77, 69
2, 2823, Note_on_c, 0, 75, 64
2, 2883, Note_off_c, 0, 75, 48
2, 2883, Note_on_c, 0, 73, 64
2, 2943, Note_off_c, 0, 73, 72
2, 2943, Note_on_c, 0, 75, 64
2, 3003, Note_off_c, 0, 75, 52
2, 3003, Note_on_c, 0, 77, 64
2, 3063, Note_off_c, 0, 77, 61
2, 3063, Note_on_c, 0, 72, 64
2, 3123, Note_off_c, 0, 72, 52
2, 3123, Note_on_c, 0, 73, 64
2, 3183, Note_off_c, 0, 73, 57
2, 3183, Note_on_c, 0, 75, 64
2, 3243, Note_off_c, 0, 75, 42
2, 3243, Note_on_c, 0, 77, 64
2, 3303, Note_off_c, 0, 77, 59
2, 3303, Note_on_c, 0, 73, 64
2, 3363, Note_off_c, 0, 73, 48
2, 3363, Note_on_c, 0, 70, 64
2, 3423, Note_off_c, 0, 70, 65
2, 3423, Note_on_c, 0, 72, 64
2, 3483, Note_off_c, 0, 72, 70
2, 3483, Note_on_c, 0, 73, 64
2, 3723, Note_off_c, 0, 73, 69
2, 3723, Note_on_c, 0, 72, 64
2, 3843, Note_off_c, 0, 72, 53
2, 3843, Note_on_c, 0, 73, 64
2, 4433, Note_off_c, 0, 73, 70
2, 4503, Note_on_c, 0, 75, 64
2, 4563, Note_off_c, 0, 75, 49
2, 4563, Note_on_c, 0, 77, 64
2, 4803, Note_off_c, 0, 77, 72
2, 4803, Note_on_c, 0, 78, 64
2, 5043, Note_off_c, 0, 78, 72
2, 5163, Note_on_c, 0, 70, 64
2, 5283, Note_off_c, 0, 70, 20
2, 5283, Note_on_c, 0, 68, 64
2, 5403, Note_off_c, 0, 68, 63
2, 5403, Note_on_c, 0, 70, 64
2, 5523, Note_off_c, 0, 70, 55
2, 5523, Note_on_c, 0, 71, 64
2, 5643, Note_off_c, 0, 71, 63
2, 5643, Note_on_c, 0, 70, 64
2, 5703, Note_off_c, 0, 70, 66
2, 5703, Note_on_c, 0, 68, 64
2, 5763, Note_off_c, 0, 68, 63
2, 5763, Note_on_c, 0, 70, 64
2, 5823, Note_off_c, 0, 70, 52
2, 5823, Note_on_c, 0, 73, 64
2, 5883, Note_off_c, 0, 73, 69
2, 5883, Note_on_c, 0, 73, 64
2, 5943, Note_off_c, 0, 73, 68
2, 5943, Note_on_c, 0, 70, 64
2, 6003, Note_off_c, 0, 70, 69
2, 6003, Note_on_c, 0, 68, 64
2, 6063, Note_off_c, 0, 68, 62
2, 6063, Note_on_c, 0, 73, 64
2, 6123, Note_off_c, 0, 73, 73
2, 6123, Note_on_c, 0, 73, 64
2, 6183, Note_off_c, 0, 73, 70
2, 6183, Note_on_c, 0, 68, 64
2, 6243, Note_off_c, 0, 68, 72
2, 6243, Note_on_c, 0, 70, 64
2, 6363, Note_off_c, 0, 70, 74
2, 6363, Note_on_c, 0, 73, 64
2, 6483, Note_off_c, 0, 73, 53
2, 6483, Note_on_c, 0, 78, 64
2, 6843, Note_off_c, 0, 78, 65
2, 6843, Note_on_c, 0, 77, 64
2, 7083, Note_off_c, 0, 77, 74
2, 7083, Note_on_c, 0, 75, 64
2, 7143, Note_off_c, 0, 75, 52
2, 7143, Note_on_c, 0, 73, 64
2, 7203, Note_off_c, 0, 73, 68
2, 7203, Note_on_c, 0, 72, 64
2, 7323, Note_off_c, 0, 72, 80
2, 7323, Note_on_c, 0, 75, 64
2, 7443, Note_off_c, 0, 75, 52
2, 7443, Note_on_c, 0, 80, 64
2, 7803, Note_off_c, 0, 80, 79
2, 7803, Note_on_c, 0, 78, 64
2, 7863, Note_off_c, 0, 78, 70
2, 7863, Note_on_c, 0, 77, 64
2, 7923, Note_off_c, 0, 77, 77
2, 7923, Note_on_c, 0, 78, 64
2, 8283, Note_off_c, 0, 78, 68
2, 8283, Note_on_c, 0, 77, 64
2, 8343, Note_off_c, 0, 77, 76
2, 8343, Note_on_c, 0, 75, 64
2, 8403, Note_off_c, 0, 75, 57
2, 8403, Note_on_c, 0, 77, 64
2, 8763, Note_off_c, 0, 77, 47
2, 8763, Note_on_c, 0, 77, 64
2, 8883, Note_off_c, 0, 77, 66
2, 8883, Note_on_c, 0, 75, 64
2, 9003, Note_off_c, 0, 75, 66
2, 9003, Note_on_c, 0, 73, 64
2, 9123, Note_off_c, 0, 73, 72
2, 9123, Note_on_c, 0, 72, 64
2, 9243, Note_off_c, 0, 72, 68
2, 9243, Note_on_c, 0, 68, 64
2, 9363, Note_off_c, 0, 68, 54
2, 9363, Note_on_c, 0, 73, 64
2, 9873, Note_off_c, 0, 73, 65
2, 9903, Note_on_c, 0, 73, 64
2, 10023, Note_off_c, 0, 73, 65
2, 10023, Note_on_c, 0, 72, 64
2, 10083, Note_off_c, 0, 72, 77
2, 10083, Note_on_c, 0, 73, 64
2, 10183, Note_off_c, 0, 73, 70
2, 10203, Note_on_c, 0, 73, 69
2, 10323, Note_off_c, 0, 73, 63
2, 10323, Note_on_c, 0, 78, 69
2, 10443, Note_off_c, 0, 78, 65
2, 10443, Note_on_c, 0, 77, 69
2, 10563, Note_off_c, 0, 77, 68
2, 10563, Note_on_c, 0, 78, 69
2, 10683, Note_off_c, 0, 78, 62
2, 10683, Note_on_c, 0, 77, 64
2, 10743, Note_off_c, 0, 77, 72
2, 10743, Note_on_c, 0, 75, 64
2, 10803, Note_off_c, 0, 75, 47
2, 10803, Note_on_c, 0, 73, 64
2, 11043, Note_off_c, 0, 73, 65
2, 11043, Note_on_c, 0, 75, 64
2, 11283, Note_off_c, 0, 75, 50
2, 11403, Note_on_c, 0, 73, 64
2, 11523, Note_off_c, 0, 73, 63
2, 11523, Note_on_c, 0, 71, 64
2, 11643, Note_off_c, 0, 71, 73
2, 11643, Note_on_c, 0, 70, 64
2, 11763, Note_off_c, 0, 70, 52
2, 11883, Note_on_c, 0, 73, 64
2, 12003, Note_off_c, 0, 73, 59
2, 12003, Note_on_c, 0, 70, 64
2, 12123, Note_off_c, 0, 70, 73
2, 12123, Note_on_c, 0, 70, 64
2, 12243, Note_off_c, 0, 70, 72
2, 12243, Note_on_c, 0, 75, 64
2, 12363, Note_off_c, 0, 75, 47
2, 12363, Note_on_c, 0, 74, 64
2, 12483, Note_off_c, 0, 74, 68
2, 12483, Note_on_c, 0, 75, 64
2, 12723, Note_off_c, 0, 75, 50
2, 12843, Note_on_c, 0, 77, 64
2, 12963, Note_off_c, 0, 77, 53
2, 12963, Note_on_c, 0, 78, 64
2, 13083, Note_off_c, 0, 78, 48
2, 13083, Note_on_c, 0, 80, 64
2, 13203, Note_off_c, 0, 80, 55
2, 13203, Note_on_c, 0, 82, 64
2, 13323, Note_off_c, 0, 82, 61
2, 13323, Note_on_c, 0, 78, 64
2, 13443, Note_off_c, 0, 78, 58
2, 13443, Note_on_c, 0, 75, 64
2, 13683, Note_off_c, 0, 75, 49
2, 13803, Note_on_c, 0, 80, 64
2, 13923, Note_off_c, 0, 80, 48
2, 13923, Note_on_c, 0, 77, 64
2, 14163, Note_off_c, 0, 77, 68
2, 14283, Note_on_c, 0, 77, 64
2, 14403, Note_off_c, 0, 77, 69
2, 14403, Note_on_c, 0, 75, 64
2, 14463, Note_off_c, 0, 75, 47
2, 14463, Note_on_c, 0, 72, 64
2, 14523, Note_off_c, 0, 72, 52
2, 14523, Note_on_c, 0, 73, 64
2, 14583, Note_off_c, 0, 73, 49
2, 14583, Note_on_c, 0, 77, 64
2, 14643, Note_off_c, 0, 77, 54
2, 14643, Note_on_c, 0, 75, 64
2, 14703, Note_off_c, 0, 75, 46
2, 14703, Note_on_c, 0, 72, 64
2, 14763, Note_off_c, 0, 72, 46
2, 14763, Note_on_c, 0, 73, 64
2, 14943, Note_off_c, 0, 73, 51
2, 14943, Note_on_c, 0, 72, 64
2, 15003, Note_off_c, 0, 72, 50
2, 15003, Note_on_c, 0, 73, 64
2, 15243, Note_off_c, 0, 73, 52
2, 15243, Note_on_c, 0, 72, 64
2, 15363, Note_off_c, 0, 72, 62
2, 15363, Note_on_c, 0, 73, 64
2, 15603, Note_off_c, 0, 73, 59
2, 15723, Note_on_c, 0, 72, 64
2, 15843, Note_off_c, 0, 72, 43
2, 15843, Note_on_c, 0, 73, 64
2, 15903, Note_off_c, 0, 73, 57
2, 15903, Note_on_c, 0, 77, 64
2, 15963, Note_off_c, 0, 77, 68
2, 15963, Note_on_c, 0, 77, 64
2, 16023, Note_off_c, 0, 77, 62
2, 16023, Note_on_c, 0, 73, 64
2, 16083, Note_off_c, 0, 73, 39
2, 16083, Note_on_c, 0, 72, 64
2, 16143, Note_off_c, 0, 72, 54
2, 16143, Note_on_c, 0, 77, 64
2, 16203, Note_off_c, 0, 77, 61
2, 16203, Note_on_c, 0, 77, 64
2, 16263, Note_off_c, 0, 77, 53
2, 16263, Note_on_c, 0, 72, 64
2, 16323, Note_off_c, 0, 72, 43
2, 16323, Note_on_c, 0, 73, 64
2, 16443, Note_off_c, 0, 73, 59
2, 16443, Note_on_c, 0, 77, 64
2, 16563, Note_off_c, 0, 77, 70
2, 16563, Note_on_c, 0, 82, 64
2, 16923, Note_off_c, 0, 82, 59
2, 16923, Note_on_c, 0, 80, 64
2, 16983, Note_off_c, 0, 80, 70
2, 16983, Note_on_c, 0, 78, 64
2, 17043, Note_off_c, 0, 78, 57
2, 17043, Note_on_c, 0, 80, 64
2, 17403, Note_off_c, 0, 80, 59
2, 17403, Note_on_c, 0, 78, 64
2, 17463, Note_off_c, 0, 78, 65
2, 17463, Note_on_c, 0, 77, 64
2, 17523, Note_off_c, 0, 77, 59
2, 17523, Note_on_c, 0, 78, 64
2, 17883, Note_off_c, 0, 78, 58
2, 17883, Note_on_c, 0, 78, 64
2, 18003, Note_off_c, 0, 78, 69
2, 18003, Note_on_c, 0, 77, 64
2, 18123, Note_off_c, 0, 77, 73
2, 18123, Note_on_c, 0, 75, 64
2, 18243, Note_off_c, 0, 75, 45
2, 18243, Note_on_c, 0, 74, 64
2, 18363, Note_off_c, 0, 74, 66
2, 18843, Note_on_c, 0, 63, 64
2, 18903, Note_off_c, 0, 63, 62
2, 18903, Note_on_c, 0, 65, 64
2, 18963, Note_off_c, 0, 65, 61
2, 18963, Note_on_c, 0, 66, 64
2, 19023, Note_off_c, 0, 66, 69
2, 19023, Note_on_c, 0, 63, 64
2, 19083, Note_off_c, 0, 63, 49
2, 19083, Note_on_c, 0, 63, 64
2, 19143, Note_off_c, 0, 63, 55
2, 19143, Note_on_c, 0, 66, 64
2, 19203, Note_off_c, 0, 66, 70
2, 19203, Note_on_c, 0, 68, 64
2, 19263, Note_off_c, 0, 68, 74
2, 19263, Note_on_c, 0, 63, 64
2, 19323, Note_off_c, 0, 63, 63
2, 19323, Note_on_c, 0, 63, 64
2, 19383, Note_off_c, 0, 63, 57
2, 19383, Note_on_c, 0, 68, 64
2, 19443, Note_off_c, 0, 68, 82
2, 19443, Note_on_c, 0, 70, 64
2, 19503, Note_off_c, 0, 70, 80
2, 19503, Note_on_c, 0, 63, 64
2, 19563, Note_off_c, 0, 63, 61
2, 19563, Note_on_c, 0, 63, 64
2, 19623, Note_off_c, 0, 63, 58
2, 19623, Note_on_c, 0, 70, 64
2, 19683, Note_off_c, 0, 70, 79
2, 19683, Note_on_c, 0, 71, 64
2, 19743, Note_off_c, 0, 71, 66
2, 19743, Note_on_c, 0, 63, 64
2, 19803, Note_off_c, 0, 63, 58
2, 19803, Note_on_c, 0, 63, 64
2, 19863, Note_off_c, 0, 63, 53
2, 19863, Note_on_c, 0, 71, 64
2, 19923, Note_off_c, 0, 71, 69
2, 19923, Note_on_c, 0, 74, 64
2, 19983, Note_off_c, 0, 74, 65
2, 19983, Note_on_c, 0, 63, 64
2, 20043, Note_off_c, 0, 63, 38
2, 20043, Note_on_c, 0, 63, 64
2, 20103, Note_off_c, 0, 63, 25
2, 20103, Note_on_c, 0, 74, 64
2, 20163, Note_off_c, 0, 74, 72
2, 20163, Note_on_c, 0, 75, 64
2, 20403, Note_off_c, 0, 75, 49
2, 20463, Note_on_c, 0, 77, 64
2, 20523, Note_off_c, 0, 77, 65
2, 20523, Note_on_c, 0, 78, 64
2, 20583, Note_off_c, 0, 78, 68
2, 20583, Note_on_c, 0, 80, 64
2, 20643, Note_off_c, 0, 80, 49
2, 20643, Note_on_c, 0, 74, 64
2, 20703, Note_off_c, 0, 74, 40
2, 20703, Note_on_c, 0, 83, 64
2, 20763, Note_off_c, 0, 83, 45
2, 20763, Note_on_c, 0, 82, 64
2, 20883, Note_off_c, 0, 82, 68
2, 20883, Note_on_c, 0, 80, 72
2, 20905, Note_off_c, 0, 80, 62
2, 20905, Note_on_c, 0, 78, 52
2, 20927, Note_off_c, 0, 78, 54
2, 20927, Note_on_c, 0, 80, 55
2, 20949, Note_off_c, 0, 80, 54
2, 20949, Note_on_c, 0, 78, 58
2, 20971, Note_off_c, 0, 78, 57
2, 20971, Note_on_c, 0, 80, 61
2, 20993, Note_off_c, 0, 80, 47
2, 20993, Note_on_c, 0, 78, 65
2, 21006, Note_on_c, 0, 77, 64
2, 21018, Note_off_c, 0, 78, 46
2, 21066, Note_off_c, 0, 77, 76
2, 21066, Note_on_c, 0, 75, 64
2, 21116, Note_off_c, 0, 75, 57
2, 21129, Note_on_c, 0, 75, 64
2, 21249, Note_off_c, 0, 75, 57
2, 21249, Note_on_c, 0, 78, 64
2, 21369, Note_off_c, 0, 78, 59
2, 21369, Note_on_c, 0, 83, 64
2, 21489, Note_off_c, 0, 83, 55
2, 21489, Note_on_c, 0, 82, 64
2, 21609, Note_off_c, 0, 82, 45
2, 21609, Note_on_c, 0, 83, 64
2, 22209, Note_off_c, 0, 83, 44
2, 22209, Note_on_c, 0, 77, 64
2, 22329, Note_off_c, 0, 77, 43
2, 22329, Note_on_c, 0, 82, 64
2, 22449, Note_off_c, 0, 82, 50
2, 22449, Note_on_c, 0, 80, 64
2, 22569, Note_off_c, 0, 80, 62
2, 22569, Note_on_c, 0, 82, 64
2, 23159, Note_off_c, 0, 82, 54
2, 23172, Note_on_c, 0, 82, 64
2, 23292, Note_off_c, 0, 82, 58
2, 23292, Note_on_c, 0, 80, 64
2, 23412, Note_off_c, 0, 80, 69
2, 23412, Note_on_c, 0, 78, 64
2, 23532, Note_off_c, 0, 78, 49
2, 23532, Note_on_c, 0, 77, 64
2, 23772, Note_off_c, 0, 77, 57
2, 23772, Note_on_c, 0, 76, 64
2, 24072, Note_off_c, 0, 76, 44
2, 24072, Note_on_c, 0, 73, 64
2, 24132, Note_off_c, 0, 73, 41
2, 24132, Note_on_c, 0, 73, 64
2, 24192, Note_off_c, 0, 73, 43
2, 24192, Note_on_c, 0, 76, 64
2, 24252, Note_off_c, 0, 76, 57
2, 24252, Note_on_c, 0, 75, 64
2, 24312, Note_off_c, 0, 75, 48
2, 24312, Note_on_c, 0, 71, 64
2, 24372, Note_off_c, 0, 71, 40
2, 24372, Note_on_c, 0, 71, 64
2, 24432, Note_off_c, 0, 71, 44
2, 24432, Note_on_c, 0, 75, 64
2, 24492, Note_off_c, 0, 75, 50
2, 24492, Note_on_c, 0, 75, 64
2, 24552, Note_off_c, 0, 75, 45
2, 24552, Note_on_c, 0, 71, 64
2, 24612, Note_off_c, 0, 71, 49
2, 24612, Note_on_c, 0, 71, 64
2, 24672, Note_off_c, 0, 71, 50
2, 24672, Note_on_c, 0, 75, 64
2, 24732, Note_off_c, 0, 75, 43
2, 24732, Note_on_c, 0, 73, 64
2, 24792, Note_off_c, 0, 73, 72
2, 24792, Note_on_c, 0, 70, 64
2, 24852, Note_off_c, 0, 70, 72
2, 24852, Note_on_c, 0, 70, 64
2, 24912, Note_off_c, 0, 70, 68
2, 24912, Note_on_c, 0, 73, 64
2, 24972, Note_off_c, 0, 73, 73
2, 24972, Note_on_c, 0, 73, 64
2, 25032, Note_off_c, 0, 73, 68
2, 25032, Note_on_c, 0, 70, 64
2, 25092, Note_off_c, 0, 70, 73
2, 25092, Note_on_c, 0, 70, 64
2, 25152, Note_off_c, 0, 70, 59
2, 25152, Note_on_c, 0, 73, 64
2, 25212, Note_off_c, 0, 73, 66
2, 25212, Note_on_c, 0, 71, 64
2, 25272, Note_off_c, 0, 71, 76
2, 25272, Note_on_c, 0, 68, 64
2, 25332, Note_off_c, 0, 68, 61
2, 25332, Note_on_c, 0, 68, 64
2, 25392, Note_off_c, 0, 68, 62
2, 25392, Note_on_c, 0, 71, 64
2, 25452, Note_off_c, 0, 71, 73
2, 25452, Note_on_c, 0, 71, 64
2, 25512, Note_off_c, 0, 71, 68
2, 25512, Note_on_c, 0, 68, 64
2, 25572, Note_off_c, 0, 68, 50
2, 25572, Note_on_c, 0, 68, 64
2, 25632, Note_off_c, 0, 68, 54
2, 25632, Note_on_c, 0, 71, 64
2, 25692, Note_off_c, 0, 71, 65
2, 25692, Note_on_c, 0, 70, 64
2, 25752, Note_off_c, 0, 70, 43
2, 25752, Note_on_c, 0, 71, 64
2, 25812, Note_off_c, 0, 71, 70
2, 25812, Note_on_c, 0, 73, 64
2, 25872, Note_off_c, 0, 73, 58
2, 25872, Note_on_c, 0, 68, 64
2, 25932, Note_off_c, 0, 68, 51
2, 25932, Note_on_c, 0, 70, 64
2, 26052, Note_off_c, 0, 70, 47
2, 26052, Note_on_c, 0, 73, 64
2, 26172, Note_off_c, 0, 73, 66
2, 26172, Note_on_c, 0, 75, 64
2, 26292, Note_off_c, 0, 75, 52
2, 26292, Note_on_c, 0, 76, 64
2, 26472, Note_off_c, 0, 76, 61
2, 26472, Note_on_c, 0, 75, 64
2, 26532, Note_off_c, 0, 75, 49
2, 26532, Note_on_c, 0, 73, 64
2, 26592, Note_off_c, 0, 73, 55
2, 26592, Note_on_c, 0, 76, 64
2, 26652, Note_off_c, 0, 76, 48
2, 26652, Note_on_c, 0, 75, 64
2, 26712, Note_off_c, 0, 75, 43
2, 26712, Note_on_c, 0, 71, 64
2, 26772, Note_off_c, 0, 71, 48
2, 26772, Note_on_c, 0, 71, 64
2, 26832, Note_off_c, 0, 71, 46
2, 26832, Note_on_c, 0, 75, 64
2, 26892, Note_off_c, 0, 75, 44
2, 26892, Note_on_c, 0, 76, 64
2, 26952, Note_off_c, 0, 76, 57
2, 26952, Note_on_c, 0, 71, 64
2, 27012, Note_off_c, 0, 71, 53
2, 27012, Note_on_c, 0, 71, 64
2, 27072, Note_off_c, 0, 71, 46
2, 27072, Note_on_c, 0, 76, 64
2, 27132, Note_off_c, 0, 76, 52
2, 27132, Note_on_c, 0, 78, 64
2, 27192, Note_off_c, 0, 78, 49
2, 27192, Note_on_c, 0, 71, 64
2, 27252, Note_off_c, 0, 71, 66
2, 27252, Note_on_c, 0, 71, 64
2, 27312, Note_off_c, 0, 71, 48
2, 27312, Note_on_c, 0, 78, 64
2, 27372, Note_off_c, 0, 78, 65
2, 27372, Note_on_c, 0, 80, 64
2, 27432, Note_off_c, 0, 80, 74
2, 27432, Note_on_c, 0, 71, 64
2, 27492, Note_off_c, 0, 71, 58
2, 27492, Note_on_c, 0, 71, 64
2, 27552, Note_off_c, 0, 71, 53
2, 27552, Note_on_c, 0, 80, 64
2, 27612, Note_off_c, 0, 80, 70
2, 27612, Note_on_c, 0, 82, 64
2, 27672, Note_off_c, 0, 82, 59
2, 27672, Note_on_c, 0, 71, 64
2, 27732, Note_off_c, 0, 71, 53
2, 27732, Note_on_c, 0, 71, 64
2, 27792, Note_off_c, 0, 71, 26
2, 27792, Note_on_c, 0, 82, 64
2, 27852, Note_off_c, 0, 82, 65
2, 27852, Note_on_c, 0, 83, 64
2, 27972, Note_off_c, 0, 83, 55
2, 28452, Note_on_c, 0, 75, 64
2, 28572, Note_off_c, 0, 75, 43
2, 28572, Note_on_c, 0, 80, 64
2, 28692, Note_off_c, 0, 80, 62
2, 28692, Note_on_c, 0, 79, 64
2, 28812, Note_off_c, 0, 79, 73
2, 28812, Note_on_c, 0, 80, 64
2, 28932, Note_off_c, 0, 80, 77
2, 28932, Note_on_c, 0, 82, 64
2, 29052, Note_off_c, 0, 82, 68
2, 29052, Note_on_c, 0, 83, 64
2, 29172, Note_off_c, 0, 83, 46
2, 29172, Note_on_c, 0, 80, 64
2, 29292, Note_off_c, 0, 80, 62
2, 29292, Note_on_c, 0, 77, 64
2, 29412, Note_off_c, 0, 77, 51
2, 29412, Note_on_c, 0, 73, 69
2, 29532, Note_off_c, 0, 73, 50
2, 29532, Note_on_c, 0, 78, 69
2, 29652, Note_off_c, 0, 78, 51
2, 29652, Note_on_c, 0, 77, 69
2, 29772, Note_off_c, 0, 77, 52
2, 29772, Note_on_c, 0, 78, 69
2, 29892, Note_off_c, 0, 78, 63
2, 29892, Note_on_c, 0, 77, 64
2, 29952, Note_off_c, 0, 77, 42
2, 29952, Note_on_c, 0, 75, 64
2, 30002, Note_off_c, 0, 75, 50
2, 30015, Note_on_c, 0, 75, 72
2, 30037, Note_off_c, 0, 75, 50
2, 30037, Note_on_c, 0, 73, 50
2, 30059, Note_off_c, 0, 73, 68
2, 30059, Note_on_c, 0, 75, 52
2, 30081, Note_off_c, 0, 75, 54
2, 30081, Note_on_c, 0, 73, 55
2, 30103, Note_off_c, 0, 73, 58
2, 30103, Note_on_c, 0, 75, 57
2, 30125, Note_off_c, 0, 75, 54
2, 30125, Note_on_c, 0, 73, 59
2, 30147, Note_off_c, 0, 73, 58
2, 30147, Note_on_c, 0, 75, 61
2, 30169, Note_off_c, 0, 75, 49
2, 30169, Note_on_c, 0, 73, 63
2, 30191, Note_off_c, 0, 73, 47
2, 30195, Note_on_c, 0, 71, 64
2, 30225, Note_off_c, 0, 71, 41
2, 30225, Note_on_c, 0, 73, 64
2, 30255, Note_off_c, 0, 73, 62
2, 30255, Note_on_c, 0, 75, 64
2, 30495, Note_off_c, 0, 75, 61
2, 30615, Note_on_c, 0, 73, 64
2, 30735, Note_off_c, 0, 73, 53
2, 30735, Note_on_c, 0, 71, 64
2, 30855, Note_off_c, 0, 71, 28
2, 30855, Note_on_c, 0, 70, 64
2, 30975, Note_off_c, 0, 70, 76
2, 30975, Note_on_c, 0, 68, 64
2, 31095, Note_off_c, 0, 68, 72
2, 31095, Note_on_c, 0, 73, 64
2, 31215, Note_off_c, 0, 73, 65
2, 31215, Note_on_c, 0, 70, 64
2, 31275, Note_off_c, 0, 70, 70
2, 31275, Note_on_c, 0, 73, 64
2, 31335, Note_off_c, 0, 73, 73
2, 31335, Note_on_c, 0, 73, 64
2, 31395, Note_off_c, 0, 73, 68
2, 31395, Note_on_c, 0, 70, 64
2, 31455, Note_off_c, 0, 70, 76
2, 31455, Note_on_c, 0, 68, 64
2, 31515, Note_off_c, 0, 68, 70
2, 31515, Note_on_c, 0, 73, 64
2, 31575, Note_off_c, 0, 73, 72
2, 31575, Note_on_c, 0, 73, 64
2, 31635, Note_off_c, 0, 73, 68
2, 31635, Note_on_c, 0, 68, 64
2, 31695, Note_off_c, 0, 68, 66
2, 31695, Note_on_c, 0, 70, 64
2, 31815, Note_off_c, 0, 70, 73
2, 31815, Note_on_c, 0, 73, 64
2, 31935, Note_off_c, 0, 73, 74
2, 31935, Note_on_c, 0, 78, 64
2, 32415, Note_off_c, 0, 78, 61
2, 32415, Note_on_c, 0, 77, 64
2, 32655, Note_off_c, 0, 77, 58
2, 32655, Note_on_c, 0, 78, 64
2, 33615, Note_off_c, 0, 78, 66
2, 33615, End_track
3, 0, Start_track
3, 0, Text_t, "RH L/ LH H\217x\221"
3, 66, Unknown_event, 00x
3, 130, Unknown_event, 00x
3, 250, Note_off_c, 1, 66, 24
3, 250, Note_on_c, 1, 73, 69
3, 370, Note_off_c, 1, 73, 68
3, 370, Note_on_c, 1, 72, 69
3, 490, Note_off_c, 1, 72, 66
3, 490, Note_on_c, 1, 73, 69
3, 610, Note_off_c, 1, 73, 63
3, 610, Note_on_c, 1, 72, 64
3, 670, Note_off_c, 1, 72, 83
3, 670, Note_on_c, 1, 70, 64
3, 720, Note_off_c, 1, 70, 63
3, 733, Note_on_c, 1, 70, 72
3, 755, Note_off_c, 1, 70, 50
3, 755, Note_on_c, 1, 68, 50
3, 777, Note_off_c, 1, 68, 68
3, 777, Note_on_c, 1, 70, 52
3, 799, Note_off_c, 1, 70, 54
3, 799, Note_on_c, 1, 68, 55
3, 821, Note_off_c, 1, 68, 58
3, 821, Note_on_c, 1, 70, 57
3, 843, Note_off_c, 1, 70, 54
3, 843, Note_on_c, 1, 68, 59
3, 865, Note_off_c, 1, 68, 58
3, 865, Note_on_c, 1, 70, 61
3, 887, Note_off_c, 1, 70, 49
3, 887, Note_on_c, 1, 68, 63
3, 909, Note_off_c, 1, 68, 47
3, 913, Note_on_c, 1, 66, 64
3, 943, Note_off_c, 1, 66, 70
3, 943, Note_on_c, 1, 68, 64
3, 973, Note_off_c, 1, 68, 73
3, 973, Note_on_c, 1, 70, 64
3, 1213, Note_off_c, 1, 70, 62
3, 1333, Note_on_c, 1, 68, 64
3, 1453, Note_off_c, 1, 68, 66
3, 1453, Note_on_c, 1, 66, 64
3, 1573, Note_off_c, 1, 66, 57
3, 1573, Note_on_c, 1, 65, 64
3, 1693, Note_off_c, 1, 65, 1
3, 1693, Note_on_c, 1, 63, 64
3, 1813, Note_off_c, 1, 63, 53
3, 1813, Note_on_c, 1, 68, 64
3, 1933, Note_off_c, 1, 68, 83
3, 1933, Note_on_c, 1, 65, 64
3, 2053, Note_off_c, 1, 65, 27
3, 2053, Note_on_c, 1, 61, 64
3, 2113, Note_off_c, 1, 61, 39
3, 2113, Note_on_c, 1, 71, 64
3, 2173, Note_off_c, 1, 71, 66
3, 2173, Note_on_c, 1, 70, 64
3, 2233, Note_off_c, 1, 70, 55
3, 2233, Note_on_c, 1, 71, 64
3, 2293, Note_off_c, 1, 71, 53
3, 2293, Note_on_c, 1, 73, 64
3, 2353, Note_off_c, 1, 73, 66
3, 2353, Note_on_c, 1, 68, 64
3, 2413, Note_off_c, 1, 68, 66
3, 2413, Note_on_c, 1, 70, 64
3, 2473, Note_off_c, 1, 70, 66
3, 2473, Note_on_c, 1, 71, 64
3, 2533, Note_off_c, 1, 71, 59
3, 2533, Note_on_c, 1, 73, 64
3, 2713, Note_off_c, 1, 73, 65
3, 2713, Note_on_c, 1, 71, 64
3, 2773, Note_off_c, 1, 71, 69
3, 2773, Note_on_c, 1, 70, 64
3, 2833, Note_off_c, 1, 70, 73
3, 2833, Note_on_c, 1, 68, 64
3, 2893, Note_off_c, 1, 68, 70
3, 2893, Note_on_c, 1, 66, 64
3, 2953, Note_off_c, 1, 66, 70
3, 2953, Note_on_c, 1, 68, 64
3, 3013, Note_off_c, 1, 68, 73
3, 3013, Note_on_c, 1, 70, 64
3, 3073, Note_off_c, 1, 70, 63
3, 3073, Note_on_c, 1, 65, 64
3, 3133, Note_off_c, 1, 65, 63
3, 3133, Note_on_c, 1, 66, 64
3, 3193, Note_off_c, 1, 66, 76
3, 3193, Note_on_c, 1, 68, 64
3, 3253, Note_off_c, 1, 68, 74
3, 3313, Note_on_c, 1, 66, 64
3, 3373, Note_off_c, 1, 66, 65
3, 3373, Note_on_c, 1, 63, 64
3, 3433, Note_off_c, 1, 63, 52
3, 3433, Note_on_c, 1, 65, 64
3, 3493, Note_off_c, 1, 65, 53
3, 3493, Note_on_c, 1, 66, 64
3, 3733, Note_off_c, 1, 66, 70
3, 3733, Note_on_c, 1, 65, 64
3, 3853, Note_off_c, 1, 65, 58
3, 3853, Note_on_c, 1, 66, 64
3, 4093, Note_off_c, 1, 66, 73
3, 4213, Note_on_c, 1, 65, 64
3, 4333, Note_off_c, 1, 65, 61
3, 4333, Note_on_c, 1, 66, 64
3, 4573, Note_off_c, 1, 66, 59
3, 4693, Note_on_c, 1, 70, 64
3, 4813, Note_off_c, 1, 70, 51
3, 4813, Note_on_c, 1, 75, 64
3, 4873, Note_off_c, 1, 75, 38
3, 4873, Note_on_c, 1, 68, 64
3, 4933, Note_off_c, 1, 68, 49
3, 4933, Note_on_c, 1, 68, 64
3, 4993, Note_off_c, 1, 68, 46
3, 4993, Note_on_c, 1, 73, 64
3, 5053, Note_off_c, 1, 73, 65
3, 5053, Note_on_c, 1, 70, 64
3, 5113, Note_off_c, 1, 70, 61
3, 5113, Note_on_c, 1, 66, 64
3, 5173, Note_off_c, 1, 66, 48
3, 5173, Note_on_c, 1, 66, 64
3, 5233, Note_off_c, 1, 66, 47
3, 5233, Note_on_c, 1, 70, 64
3, 5293, Note_off_c, 1, 70, 62
3, 5293, Note_on_c, 1, 68, 64
3, 5533, Note_off_c, 1, 68, 69
3, 5653, Note_on_c, 1, 72, 64
3, 5773, Note_off_c, 1, 72, 73
3, 5773, Note_on_c, 1, 70, 64
3, 6013, Note_off_c, 1, 70, 70
3, 6133, Note_on_c, 1, 70, 64
3, 6253, Note_off_c, 1, 70, 61
3, 6253, Note_on_c, 1, 68, 64
3, 6493, Note_off_c, 1, 68, 72
3, 6613, Note_on_c, 1, 68, 64
3, 6733, Note_off_c, 1, 68, 69
3, 6733, Note_on_c, 1, 66, 64
3, 7033, Note_off_c, 1, 66, 62
3, 7033, Note_on_c, 1, 68, 64
3, 7093, Note_off_c, 1, 68, 65
3, 7093, Note_on_c, 1, 70, 64
3, 7153, Note_off_c, 1, 70, 66
3, 7153, Note_on_c, 1, 66, 64
3, 7213, Note_off_c, 1, 66, 66
3, 7213, Note_on_c, 1, 63, 64
3, 7453, Note_off_c, 1, 63, 49
3, 7573, Note_on_c, 1, 68, 64
3, 7693, Note_off_c, 1, 68, 68
3, 7693, Note_on_c, 1, 66, 64
3, 7813, Note_off_c, 1, 66, 66
3, 7813, Note_on_c, 1, 65, 64
3, 7933, Note_off_c, 1, 65, 65
3, 7933, Note_on_c, 1, 63, 64
3, 8053, Note_off_c, 1, 63, 57
3, 8053, Note_on_c, 1, 63, 64
3, 8173, Note_off_c, 1, 63, 51
3, 8173, Note_on_c, 1, 65, 64
3, 8233, Note_off_c, 1, 65, 44
3, 8233, Note_on_c, 1, 68, 64
3, 8293, Note_off_c, 1, 68, 73
3, 8353, Note_on_c, 1, 71, 64
3, 8413, Note_off_c, 1, 71, 79
3, 8413, Note_on_c, 1, 70, 64
3, 8473, Note_off_c, 1, 70, 72
3, 8473, Note_on_c, 1, 71, 64
3, 8533, Note_off_c, 1, 71, 30
3, 8533, Note_on_c, 1, 73, 64
3, 8593, Note_off_c, 1, 73, 66
3, 8593, Note_on_c, 1, 68, 64
3, 8653, Note_off_c, 1, 68, 69
3, 8653, Note_on_c, 1, 70, 64
3, 8713, Note_off_c, 1, 70, 68
3, 8713, Note_on_c, 1, 71, 64
3, 8773, Note_off_c, 1, 71, 68
3, 8773, Note_on_c, 1, 73, 64
3, 8893, Note_off_c, 1, 73, 74
3, 8953, Note_on_c, 1, 71, 64
3, 9013, Note_off_c, 1, 71, 73
3, 9013, Note_on_c, 1, 70, 64
3, 9073, Note_off_c, 1, 70, 74
3, 9073, Note_on_c, 1, 68, 64
3, 9133, Note_off_c, 1, 68, 70
3, 9133, Note_on_c, 1, 66, 64
3, 9193, Note_off_c, 1, 66, 72
3, 9193, Note_on_c, 1, 68, 64
3, 9253, Note_off_c, 1, 68, 55
3, 9253, Note_on_c, 1, 70, 64
3, 9313, Note_off_c, 1, 70, 83
3, 9313, Note_on_c, 1, 65, 64
3, 9373, Note_off_c, 1, 65, 1
3, 9373, Note_on_c, 1, 66, 64
3, 9433, Note_off_c, 1, 66, 66
3, 9433, Note_on_c, 1, 68, 64
3, 9493, Note_off_c, 1, 68, 76
3, 9493, Note_on_c, 1, 70, 64
3, 9553, Note_off_c, 1, 70, 82
3, 9553, Note_on_c, 1, 65, 64
3, 9613, Note_off_c, 1, 65, 66
3, 9613, Note_on_c, 1, 66, 64
3, 9853, Note_off_c, 1, 66, 73
3, 9853, Note_on_c, 1, 68, 64
3, 10213, Note_off_c, 1, 68, 74
3, 10213, Note_on_c, 1, 66, 64
3, 10333, Note_off_c, 1, 66, 76
3, 10693, Note_on_c, 1, 70, 64
3, 10813, Note_off_c, 1, 70, 40
3, 10813, Note_on_c, 1, 75, 64
3, 10933, Note_off_c, 1, 75, 45
3, 10933, Note_on_c, 1, 74, 64
3, 11053, Note_off_c, 1, 74, 76
3, 11053, Note_on_c, 1, 75, 64
3, 11173, Note_off_c, 1, 75, 45
3, 11173, Note_on_c, 1, 77, 64
3, 11293, Note_off_c, 1, 77, 77
3, 11293, Note_on_c, 1, 78, 64
3, 11413, Note_off_c, 1, 78, 72
3, 11413, Note_on_c, 1, 75, 64
3, 11533, Note_off_c, 1, 75, 52
3, 11533, Note_on_c, 1, 72, 64
3, 11653, Note_off_c, 1, 72, 76
3, 11653, Note_on_c, 1, 68, 69
3, 11773, Note_off_c, 1, 68, 70
3, 11773, Note_on_c, 1, 73, 69
3, 11893, Note_off_c, 1, 73, 63
3, 11893, Note_on_c, 1, 72, 69
3, 12013, Note_off_c, 1, 72, 74
3, 12013, Note_on_c, 1, 73, 69
3, 12133, Note_off_c, 1, 73, 61
3, 12133, Note_on_c, 1, 72, 64
3, 12193, Note_off_c, 1, 72, 74
3, 12193, Note_on_c, 1, 70, 64
3, 12253, Note_off_c, 1, 70, 72
3, 12253, Note_on_c, 1, 70, 72
3, 12275, Note_off_c, 1, 70, 50
3, 12275, Note_on_c, 1, 68, 50
3, 12297, Note_off_c, 1, 68, 68
3, 12297, Note_on_c, 1, 70, 52
3, 12319, Note_off_c, 1, 70, 54
3, 12319, Note_on_c, 1, 68, 55
3, 12341, Note_off_c, 1, 68, 58
3, 12341, Note_on_c, 1, 70, 57
3, 12363, Note_off_c, 1, 70, 54
3, 12363, Note_on_c, 1, 68, 59
3, 12385, Note_off_c, 1, 68, 58
3, 12385, Note_on_c, 1, 70, 61
3, 12407, Note_off_c, 1, 70, 49
3, 12407, Note_on_c, 1, 68, 63
3, 12429, Note_off_c, 1, 68, 47
3, 12433, Note_on_c, 1, 66, 64
3, 12463, Note_off_c, 1, 66, 66
3, 12463, Note_on_c, 1, 68, 64
3, 12493, Note_off_c, 1, 68, 76
3, 12493, Note_on_c, 1, 70, 64
3, 12733, Note_off_c, 1, 70, 63
3, 12853, Note_on_c, 1, 68, 64
3, 12973, Note_off_c, 1, 68, 73
3, 12973, Note_on_c, 1, 66, 64
3, 13093, Note_off_c, 1, 66, 73
3, 13093, Note_on_c, 1, 65, 64
3, 13213, Note_off_c, 1, 65, 66
3, 13213, Note_on_c, 1, 63, 64
3, 13333, Note_off_c, 1, 63, 54
3, 13333, Note_on_c, 1, 68, 64
3, 13453, Note_off_c, 1, 68, 79
3, 13453, Note_on_c, 1, 65, 64
3, 13513, Note_off_c, 1, 65, 49
3, 13513, Note_on_c, 1, 68, 64
3, 13573, Note_off_c, 1, 68, 80
3, 13573, Note_on_c, 1, 68, 64
3, 13633, Note_off_c, 1, 68, 74
3, 13633, Note_on_c, 1, 65, 64
3, 13693, Note_off_c, 1, 65, 58
3, 13693, Note_on_c, 1, 63, 64
3, 13753, Note_off_c, 1, 63, 34
3, 13753, Note_on_c, 1, 68, 64
3, 13813, Note_off_c, 1, 68, 73
3, 13813, Note_on_c, 1, 68, 64
3, 13873, Note_off_c, 1, 68, 73
3, 13873, Note_on_c, 1, 63, 64
3, 13933, Note_off_c, 1, 63, 30
3, 13933, Note_on_c, 1, 65, 64
3, 14173, Note_off_c, 1, 65, 62
3, 14293, Note_on_c, 1, 69, 64
3, 14413, Note_off_c, 1, 69, 77
3, 14413, Note_on_c, 1, 70, 64
3, 14653, Note_off_c, 1, 70, 70
3, 14773, Note_on_c, 1, 73, 64
3, 14893, Note_off_c, 1, 73, 46
3, 14893, Note_on_c, 1, 71, 64
3, 15133, Note_off_c, 1, 71, 66
3, 15253, Note_on_c, 1, 71, 64
3, 15373, Note_off_c, 1, 71, 65
3, 15373, Note_on_c, 1, 70, 64
3, 15613, Note_off_c, 1, 70, 58
3, 15733, Note_on_c, 1, 70, 64
3, 15853, Note_off_c, 1, 70, 49
3, 15853, Note_on_c, 1, 68, 64
3, 16393, Note_off_c, 1, 68, 61
3, 16393, Note_on_c, 1, 71, 64
3, 16453, Note_off_c, 1, 71, 83
3, 16453, Note_on_c, 1, 70, 64
3, 16513, Note_off_c, 1, 70, 69
3, 16513, Note_on_c, 1, 68, 64
3, 16573, Note_off_c, 1, 68, 82
3, 16573, Note_on_c, 1, 66, 64
3, 16633, Note_off_c, 1, 66, 66
3, 16633, Note_on_c, 1, 68, 64
3, 16693, Note_off_c, 1, 68, 61
3, 16693, Note_on_c, 1, 70, 64
3, 16753, Note_off_c, 1, 70, 36
3, 16753, Note_on_c, 1, 65, 64
3, 16813, Note_off_c, 1, 65, 23
3, 16813, Note_on_c, 1, 66, 64
3, 16873, Note_off_c, 1, 66, 65
3, 16873, Note_on_c, 1, 68, 64
3, 16933, Note_off_c, 1, 68, 65
3, 16933, Note_on_c, 1, 70, 64
3, 17053, Note_off_c, 1, 70, 74
3, 17173, Note_on_c, 1, 75, 64
3, 17293, Note_off_c, 1, 75, 55
3, 17293, Note_on_c, 1, 75, 64
3, 18013, Note_off_c, 1, 75, 63
3, 18013, Note_on_c, 1, 68, 64
3, 18313, Note_off_c, 1, 68, 70
3, 18313, Note_on_c, 1, 66, 64
3, 18373, Note_off_c, 1, 66, 39
3, 18373, Note_on_c, 1, 68, 64
3, 18433, Note_off_c, 1, 68, 73
3, 18433, Note_on_c, 1, 70, 64
3, 18493, Note_off_c, 1, 70, 72
3, 18493, Note_on_c, 1, 71, 64
3, 18733, Note_off_c, 1, 71, 79
3, 18733, Note_on_c, 1, 70, 64
3, 18853, Note_off_c, 1, 70, 68
3, 18913, Note_on_c, 1, 75, 64
3, 19093, Note_off_c, 1, 75, 48
3, 19093, Note_on_c, 1, 74, 64
3, 19213, Note_off_c, 1, 74, 63
3, 19813, Note_on_c, 1, 75, 64
3, 19933, Note_off_c, 1, 75, 51
3, 19933, Note_on_c, 1, 80, 64
3, 20053, Note_off_c, 1, 80, 80
3, 20053, Note_on_c, 1, 78, 64
3, 20173, Note_off_c, 1, 78, 52
3, 20173, Note_on_c, 1, 80, 64
3, 20773, Note_off_c, 1, 80, 79
3, 20773, Note_on_c, 1, 73, 64
3, 20893, Note_off_c, 1, 73, 61
3, 20893, Note_on_c, 1, 78, 64
3, 21013, Note_off_c, 1, 78, 65
3, 21013, Note_on_c, 1, 77, 64
3, 21133, Note_off_c, 1, 77, 69
3, 21133, Note_on_c, 1, 78, 64
3, 21253, Note_off_c, 1, 78, 72
3, 21253, Note_on_c, 1, 73, 64
3, 21373, Note_off_c, 1, 73, 73
3, 21373, Note_on_c, 1, 75, 64
3, 21673, Note_off_c, 1, 75, 55
3, 21673, Note_on_c, 1, 68, 64
3, 21733, Note_off_c, 1, 68, 41
3, 21733, Note_on_c, 1, 68, 64
3, 21793, Note_off_c, 1, 68, 45
3, 21793, Note_on_c, 1, 73, 64
3, 21853, Note_off_c, 1, 73, 66
3, 21853, Note_on_c, 1, 73, 64
3, 21913, Note_off_c, 1, 73, 58
3, 21913, Note_on_c, 1, 68, 64
3, 21973, Note_off_c, 1, 68, 42
3, 21973, Note_on_c, 1, 68, 64
3, 22033, Note_off_c, 1, 68, 46
3, 22033, Note_on_c, 1, 71, 64
3, 22093, Note_off_c, 1, 71, 58
3, 22093, Note_on_c, 1, 70, 64
3, 22573, Note_off_c, 1, 70, 69
3, 22573, Note_on_c, 1, 68, 64
3, 23053, Note_off_c, 1, 68, 70
3, 23053, Note_on_c, 1, 66, 64
3, 23533, Note_off_c, 1, 66, 59
3, 23533, Note_on_c, 1, 65, 64
3, 23773, Note_off_c, 1, 65, 37
3, 24133, Note_on_c, 1, 66, 69
3, 24253, Note_off_c, 1, 66, 49
3, 24253, Note_on_c, 1, 71, 69
3, 24373, Note_off_c, 1, 71, 76
3, 24373, Note_on_c, 1, 70, 69
3, 24493, Note_off_c, 1, 70, 69
3, 24493, Note_on_c, 1, 71, 69
3, 24613, Note_off_c, 1, 71, 73
3, 24613, Note_on_c, 1, 70, 64
3, 24673, Note_off_c, 1, 70, 66
3, 24673, Note_on_c, 1, 68, 64
3, 24723, Note_off_c, 1, 68, 68
3, 24736, Note_on_c, 1, 68, 72
3, 24758, Note_off_c, 1, 68, 50
3, 24758, Note_on_c, 1, 66, 50
3, 24780, Note_off_c, 1, 66, 68
3, 24780, Note_on_c, 1, 68, 52
3, 24802, Note_off_c, 1, 68, 54
3, 24802, Note_on_c, 1, 66, 55
3, 24824, Note_off_c, 1, 66, 58
3, 24824, Note_on_c, 1, 68, 57
3, 24846, Note_off_c, 1, 68, 54
3, 24846, Note_on_c, 1, 66, 59
3, 24868, Note_off_c, 1, 66, 58
3, 24868, Note_on_c, 1, 68, 61
3, 24890, Note_off_c, 1, 68, 49
3, 24890, Note_on_c, 1, 66, 63
3, 24912, Note_off_c, 1, 66, 47
3, 24916, Note_on_c, 1, 64, 64
3, 24946, Note_off_c, 1, 64, 16
3, 24946, Note_on_c, 1, 66, 64
3, 24976, Note_off_c, 1, 66, 57
3, 24976, Note_on_c, 1, 68, 64
3, 25216, Note_off_c, 1, 68, 62
3, 25336, Note_on_c, 1, 66, 64
3, 25456, Note_off_c, 1, 66, 49
3, 25456, Note_on_c, 1, 64, 64
3, 25576, Note_off_c, 1, 64, 50
3, 25576, Note_on_c, 1, 63, 64
3, 25696, Note_off_c, 1, 63, 49
3, 25696, Note_on_c, 1, 61, 64
3, 25816, Note_off_c, 1, 61, 55
3, 25816, Note_on_c, 1, 66, 64
3, 25936, Note_off_c, 1, 66, 62
3, 25936, Note_on_c, 1, 63, 64
3, 26056, Note_off_c, 1, 63, 44
3, 26056, Note_on_c, 1, 63, 64
3, 26176, Note_off_c, 1, 63, 49
3, 26176, Note_on_c, 1, 68, 64
3, 26296, Note_off_c, 1, 68, 69
3, 26296, Note_on_c, 1, 67, 64
3, 26416, Note_off_c, 1, 67, 40
3, 26416, Note_on_c, 1, 68, 64
3, 26656, Note_off_c, 1, 68, 65
3, 26776, Note_on_c, 1, 70, 64
3, 26896, Note_off_c, 1, 70, 58
3, 26896, Note_on_c, 1, 71, 64
3, 27016, Note_off_c, 1, 71, 74
3, 27016, Note_on_c, 1, 73, 64
3, 27136, Note_off_c, 1, 73, 66
3, 27136, Note_on_c, 1, 75, 64
3, 27256, Note_off_c, 1, 75, 40
3, 27256, Note_on_c, 1, 71, 64
3, 27376, Note_off_c, 1, 71, 74
3, 27376, Note_on_c, 1, 68, 64
3, 27616, Note_off_c, 1, 68, 66
3, 27736, Note_on_c, 1, 73, 64
3, 27856, Note_off_c, 1, 73, 63
3, 27856, Note_on_c, 1, 70, 64
3, 28096, Note_off_c, 1, 70, 63
3, 28216, Note_on_c, 1, 70, 64
3, 28336, Note_off_c, 1, 70, 58
3, 28336, Note_on_c, 1, 68, 64
3, 28396, Note_off_c, 1, 68, 68
3, 28396, Note_on_c, 1, 65, 64
3, 28456, Note_off_c, 1, 65, 35
3, 28456, Note_on_c, 1, 66, 64
3, 28516, Note_off_c, 1, 66, 58
3, 28516, Note_on_c, 1, 70, 64
3, 28576, Note_off_c, 1, 70, 52
3, 28576, Note_on_c, 1, 68, 64
3, 28636, Note_off_c, 1, 68, 52
3, 28636, Note_on_c, 1, 65, 64
3, 28696, Note_off_c, 1, 65, 37
3, 28696, Note_on_c, 1, 66, 64
3, 28876, Note_off_c, 1, 66, 62
3, 28876, Note_on_c, 1, 65, 64
3, 28936, Note_off_c, 1, 65, 20
3, 28936, Note_on_c, 1, 66, 64
3, 29176, Note_off_c, 1, 66, 69
3, 29176, Note_on_c, 1, 65, 64
3, 29296, Note_off_c, 1, 65, 30
3, 29296, Note_on_c, 1, 66, 64
3, 29536, Note_off_c, 1, 66, 69
3, 29656, Note_on_c, 1, 65, 64
3, 29776, Note_off_c, 1, 65, 29
3, 29776, Note_on_c, 1, 66, 64
3, 30016, Note_off_c, 1, 66, 66
3, 30136, Note_on_c, 1, 70, 64
3, 30256, Note_off_c, 1, 70, 65
3, 30256, Note_on_c, 1, 68, 64
3, 30316, Note_off_c, 1, 68, 55
3, 30316, Note_on_c, 1, 75, 64
3, 30376, Note_off_c, 1, 75, 55
3, 30376, Note_on_c, 1, 75, 64
3, 30436, Note_off_c, 1, 75, 55
3, 30436, Note_on_c, 1, 71, 64
3, 30496, Note_off_c, 1, 71, 74
3, 30496, Note_on_c, 1, 68, 64
3, 30556, Note_off_c, 1, 68, 47
3, 30556, Note_on_c, 1, 73, 64
3, 30616, Note_off_c, 1, 73, 66
3, 30616, Note_on_c, 1, 73, 64
3, 30676, Note_off_c, 1, 73, 57
3, 30676, Note_on_c, 1, 71, 64
3, 30736, Note_off_c, 1, 71, 57
3, 30736, Note_on_c, 1, 70, 64
3, 31696, Note_off_c, 1, 70, 80
3, 31696, End_track
4, 0, Start_track
4, 0, Text_t, "LH L"
4, 3960, Note_on_c, 2, 49, 69
4, 4080, Note_off_c, 2, 49, 35
4, 4080, Note_on_c, 2, 54, 69
4, 4200, Note_off_c, 2, 54, 52
4, 4200, Note_on_c, 2, 53, 69
4, 4320, Note_off_c, 2, 53, 35
4, 4320, Note_on_c, 2, 54, 69
4, 4440, Note_off_c, 2, 54, 52
4, 4440, Note_on_c, 2, 53, 64
4, 4500, Note_off_c, 2, 53, 73
4, 4500, Note_on_c, 2, 51, 64
4, 4560, Note_off_c, 2, 51, 58
4, 4560, Note_on_c, 2, 51, 72
4, 4582, Note_off_c, 2, 51, 50
4, 4582, Note_on_c, 2, 49, 50
4, 4604, Note_off_c, 2, 49, 68
4, 4604, Note_on_c, 2, 51, 52
4, 4626, Note_off_c, 2, 51, 54
4, 4626, Note_on_c, 2, 49, 55
4, 4648, Note_off_c, 2, 49, 58
4, 4648, Note_on_c, 2, 51, 57
4, 4670, Note_off_c, 2, 51, 54
4, 4670, Note_on_c, 2, 49, 59
4, 4692, Note_off_c, 2, 49, 58
4, 4692, Note_on_c, 2, 51, 61
4, 4714, Note_off_c, 2, 51, 49
4, 4714, Note_on_c, 2, 49, 63
4, 4736, Note_off_c, 2, 49, 47
4, 4740, Note_on_c, 2, 47, 64
4, 4770, Note_off_c, 2, 47, 23
4, 4770, Note_on_c, 2, 49, 64
4, 4800, Note_off_c, 2, 49, 58
4, 4800, Note_on_c, 2, 51, 64
4, 5040, Note_off_c, 2, 51, 50
4, 5160, Note_on_c, 2, 49, 64
4, 5280, Note_off_c, 2, 49, 42
4, 5280, Note_on_c, 2, 47, 64
4, 5400, Note_off_c, 2, 47, 17
4, 5400, Note_on_c, 2, 46, 64
4, 5520, Note_off_c, 2, 46, 20
4, 5520, Note_on_c, 2, 44, 64
4, 5640, Note_off_c, 2, 44, 34
4, 5640, Note_on_c, 2, 49, 64
4, 5760, Note_off_c, 2, 49, 55
4, 5760, Note_on_c, 2, 42, 64
4, 5880, Note_off_c, 2, 42, 44
4, 5880, Note_on_c, 2, 54, 64
4, 6000, Note_off_c, 2, 54, 40
4, 6000, Note_on_c, 2, 53, 64
4, 6120, Note_off_c, 2, 53, 47
4, 6120, Note_on_c, 2, 49, 64
4, 6240, Note_off_c, 2, 49, 53
4, 6240, Note_on_c, 2, 54, 64
4, 6300, Note_off_c, 2, 54, 58
4, 6300, Note_on_c, 2, 58, 64
4, 6360, Note_off_c, 2, 58, 68
4, 6360, Note_on_c, 2, 58, 64
4, 6420, Note_off_c, 2, 58, 58
4, 6420, Note_on_c, 2, 54, 64
4, 6480, Note_off_c, 2, 54, 57
4, 6480, Note_on_c, 2, 51, 64
4, 6540, Note_off_c, 2, 51, 57
4, 6540, Note_on_c, 2, 54, 64
4, 6600, Note_off_c, 2, 54, 55
4, 6600, Note_on_c, 2, 54, 64
4, 6660, Note_off_c, 2, 54, 52
4, 6660, Note_on_c, 2, 51, 64
4, 6720, Note_off_c, 2, 51, 51
4, 6720, Note_on_c, 2, 48, 64
4, 6840, Note_off_c, 2, 48, 30
4, 6840, Note_on_c, 2, 49, 64
4, 6960, Note_off_c, 2, 49, 62
4, 6960, Note_on_c, 2, 54, 64
4, 7260, Note_off_c, 2, 54, 49
4, 7260, Note_on_c, 2, 56, 64
4, 7320, Note_off_c, 2, 56, 44
4, 7320, Note_on_c, 2, 60, 64
4, 7380, Note_off_c, 2, 60, 59
4, 7380, Note_on_c, 2, 56, 64
4, 7440, Note_off_c, 2, 56, 49
4, 7440, Note_on_c, 2, 53, 64
4, 7500, Note_off_c, 2, 53, 33
4, 7500, Note_on_c, 2, 56, 64
4, 7560, Note_off_c, 2, 56, 55
4, 7560, Note_on_c, 2, 56, 64
4, 7620, Note_off_c, 2, 56, 52
4, 7620, Note_on_c, 2, 53, 64
4, 7680, Note_off_c, 2, 53, 35
4, 7680, Note_on_c, 2, 50, 64
4, 7740, Note_off_c, 2, 50, 34
4, 7740, Note_on_c, 2, 58, 64
4, 7800, Note_off_c, 2, 58, 49
4, 7800, Note_on_c, 2, 58, 64
4, 7860, Note_off_c, 2, 58, 41
4, 7860, Note_on_c, 2, 54, 64
4, 7920, Note_off_c, 2, 54, 39
4, 7920, Note_on_c, 2, 51, 64
4, 7980, Note_off_c, 2, 51, 50
4, 7980, Note_on_c, 2, 54, 64
4, 8040, Note_off_c, 2, 54, 52
4, 8040, Note_on_c, 2, 54, 64
4, 8100, Note_off_c, 2, 54, 44
4, 8100, Note_on_c, 2, 51, 64
4, 8160, Note_off_c, 2, 51, 33
4, 8160, Note_on_c, 2, 48, 64
4, 8220, Note_off_c, 2, 48, 37
4, 8220, Note_on_c, 2, 56, 64
4, 8280, Note_off_c, 2, 56, 48
4, 8280, Note_on_c, 2, 56, 64
4, 8340, Note_off_c, 2, 56, 43
4, 8340, Note_on_c, 2, 53, 64
4, 8400, Note_off_c, 2, 53, 57
4, 8400, Note_on_c, 2, 49, 64
4, 8460, Note_off_c, 2, 49, 20
4, 8460, Note_on_c, 2, 53, 64
4, 8520, Note_off_c, 2, 53, 30
4, 8520, Note_on_c, 2, 53, 64
4, 8580, Note_off_c, 2, 53, 57
4, 8580, Note_on_c, 2, 49, 64
4, 8640, Note_off_c, 2, 49, 52
4, 8640, Note_on_c, 2, 46, 64
4, 8700, Note_off_c, 2, 46, 52
4, 8700, Note_on_c, 2, 49, 64
4, 8760, Note_off_c, 2, 49, 68
4, 8760, Note_on_c, 2, 49, 64
4, 8820, Note_off_c, 2, 49, 49
4, 8820, Note_on_c, 2, 46, 64
4, 8880, Note_off_c, 2, 46, 62
4, 8880, Note_on_c, 2, 42, 64
4, 9000, Note_off_c, 2, 42, 40
4, 9000, Note_on_c, 2, 54, 64
4, 9180, Note_off_c, 2, 54, 46
4, 9180, Note_on_c, 2, 54, 64
4, 9240, Note_off_c, 2, 54, 57
4, 9240, Note_on_c, 2, 53, 64
4, 9300, Note_off_c, 2, 53, 69
4, 9300, Note_on_c, 2, 51, 64
4, 9360, Note_off_c, 2, 51, 62
4, 9360, Note_on_c, 2, 49, 64
4, 9420, Note_off_c, 2, 49, 53
4, 9420, Note_on_c, 2, 51, 64
4, 9480, Note_off_c, 2, 51, 58
4, 9480, Note_on_c, 2, 53, 64
4, 9540, Note_off_c, 2, 53, 52
4, 9540, Note_on_c, 2, 49, 64
4, 9600, Note_off_c, 2, 49, 70
4, 9600, Note_on_c, 2, 46, 64
4, 9660, Note_off_c, 2, 46, 53
4, 9660, Note_on_c, 2, 48, 64
4, 9720, Note_off_c, 2, 48, 49
4, 9720, Note_on_c, 2, 49, 64
4, 9780, Note_off_c, 2, 49, 58
4, 9780, Note_on_c, 2, 46, 64
4, 9840, Note_off_c, 2, 46, 58
4, 9840, Note_on_c, 2, 42, 64
4, 9960, Note_off_c, 2, 42, 63
4, 9960, Note_on_c, 2, 44, 64
4, 10080, Note_off_c, 2, 44, 55
4, 10080, Note_on_c, 2, 37, 64
4, 10320, Note_off_c, 2, 37, 62
4, 10680, Note_on_c, 2, 54, 64
4, 10740, Note_off_c, 2, 54, 49
4, 10740, Note_on_c, 2, 56, 64
4, 10800, Note_off_c, 2, 56, 62
4, 10800, Note_on_c, 2, 58, 64
4, 10860, Note_off_c, 2, 58, 62
4, 10860, Note_on_c, 2, 54, 64
4, 10920, Note_off_c, 2, 54, 63
4, 10920, Note_on_c, 2, 54, 64
4, 10980, Note_off_c, 2, 54, 46
4, 10980, Note_on_c, 2, 58, 64
4, 11040, Note_off_c, 2, 58, 53
4, 11040, Note_on_c, 2, 59, 64
4, 11100, Note_off_c, 2, 59, 44
4, 11100, Note_on_c, 2, 54, 64
4, 11160, Note_off_c, 2, 54, 54
4, 11160, Note_on_c, 2, 54, 64
4, 11220, Note_off_c, 2, 54, 28
4, 11220, Note_on_c, 2, 59, 64
4, 11280, Note_off_c, 2, 59, 44
4, 11280, Note_on_c, 2, 61, 64
4, 11340, Note_off_c, 2, 61, 63
4, 11340, Note_on_c, 2, 54, 64
4, 11400, Note_off_c, 2, 54, 65
4, 11400, Note_on_c, 2, 54, 64
4, 11460, Note_off_c, 2, 54, 40
4, 11460, Note_on_c, 2, 61, 64
4, 11520, Note_off_c, 2, 61, 66
4, 11520, Note_on_c, 2, 63, 64
4, 11580, Note_off_c, 2, 63, 38
4, 11580, Note_on_c, 2, 54, 64
4, 11640, Note_off_c, 2, 54, 48
4, 11640, Note_on_c, 2, 54, 64
4, 11700, Note_off_c, 2, 54, 41
4, 11700, Note_on_c, 2, 63, 64
4, 11760, Note_off_c, 2, 63, 43
4, 11760, Note_on_c, 2, 65, 64
4, 11820, Note_off_c, 2, 65, 46
4, 11820, Note_on_c, 2, 54, 64
4, 11880, Note_off_c, 2, 54, 35
4, 11880, Note_on_c, 2, 54, 64
4, 11940, Note_off_c, 2, 54, 14
4, 11940, Note_on_c, 2, 65, 64
4, 12000, Note_off_c, 2, 65, 69
4, 12000, Note_on_c, 2, 66, 64
4, 12060, Note_off_c, 2, 66, 62
4, 12060, Note_on_c, 2, 65, 64
4, 12120, Note_off_c, 2, 65, 72
4, 12120, Note_on_c, 2, 63, 64
4, 12180, Note_off_c, 2, 63, 52
4, 12180, Note_on_c, 2, 61, 64
4, 12240, Note_off_c, 2, 61, 65
4, 12240, Note_on_c, 2, 59, 64
4, 12300, Note_off_c, 2, 59, 34
4, 12300, Note_on_c, 2, 68, 64
4, 12360, Note_off_c, 2, 68, 76
4, 12360, Note_on_c, 2, 68, 64
4, 12420, Note_off_c, 2, 68, 76
4, 12420, Note_on_c, 2, 59, 64
4, 12480, Note_off_c, 2, 59, 49
4, 12480, Note_on_c, 2, 58, 64
4, 12540, Note_off_c, 2, 58, 41
4, 12540, Note_on_c, 2, 66, 64
4, 12600, Note_off_c, 2, 66, 80
4, 12600, Note_on_c, 2, 66, 64
4, 12660, Note_off_c, 2, 66, 76
4, 12660, Note_on_c, 2, 58, 64
4, 12720, Note_off_c, 2, 58, 53
4, 12720, Note_on_c, 2, 56, 64
4, 12780, Note_off_c, 2, 56, 43
4, 12780, Note_on_c, 2, 65, 64
4, 12840, Note_off_c, 2, 65, 46
4, 12840, Note_on_c, 2, 65, 64
4, 12900, Note_off_c, 2, 65, 59
4, 12900, Note_on_c, 2, 56, 64
4, 12960, Note_off_c, 2, 56, 37
4, 12960, Note_on_c, 2, 54, 64
4, 13020, Note_off_c, 2, 54, 34
4, 13020, Note_on_c, 2, 56, 64
4, 13080, Note_off_c, 2, 56, 59
4, 13080, Note_on_c, 2, 54, 64
4, 13140, Note_off_c, 2, 54, 65
4, 13140, Note_on_c, 2, 53, 64
4, 13200, Note_off_c, 2, 53, 66
4, 13200, Note_on_c, 2, 51, 64
4, 13260, Note_off_c, 2, 51, 51
4, 13260, Note_on_c, 2, 53, 64
4, 13320, Note_off_c, 2, 53, 54
4, 13320, Note_on_c, 2, 54, 64
4, 13380, Note_off_c, 2, 54, 49
4, 13380, Note_on_c, 2, 51, 64
4, 13440, Note_off_c, 2, 51, 70
4, 13440, Note_on_c, 2, 56, 64
4, 13500, Note_off_c, 2, 56, 59
4, 13500, Note_on_c, 2, 58, 64
4, 13560, Note_off_c, 2, 58, 63
4, 13560, Note_on_c, 2, 56, 64
4, 13620, Note_off_c, 2, 56, 69
4, 13620, Note_on_c, 2, 54, 64
4, 13680, Note_off_c, 2, 54, 61
4, 13680, Note_on_c, 2, 53, 64
4, 13740, Note_off_c, 2, 53, 55
4, 13740, Note_on_c, 2, 54, 64
4, 13800, Note_off_c, 2, 54, 62
4, 13800, Note_on_c, 2, 56, 64
4, 13860, Note_off_c, 2, 56, 59
4, 13860, Note_on_c, 2, 53, 64
4, 13920, Note_off_c, 2, 53, 45
4, 13920, Note_on_c, 2, 58, 64
4, 13980, Note_off_c, 2, 58, 48
4, 13980, Note_on_c, 2, 60, 64
4, 14040, Note_off_c, 2, 60, 69
4, 14040, Note_on_c, 2, 61, 64
4, 14220, Note_off_c, 2, 61, 68
4, 14220, Note_on_c, 2, 60, 64
4, 14280, Note_off_c, 2, 60, 63
4, 14280, Note_on_c, 2, 58, 64
4, 14340, Note_off_c, 2, 58, 54
4, 14340, Note_on_c, 2, 56, 64
4, 14400, Note_off_c, 2, 56, 52
4, 14400, Note_on_c, 2, 54, 64
4, 14460, Note_off_c, 2, 54, 54
4, 14460, Note_on_c, 2, 56, 64
4, 14520, Note_off_c, 2, 56, 54
4, 14520, Note_on_c, 2, 58, 64
4, 14580, Note_off_c, 2, 58, 57
4, 14580, Note_on_c, 2, 53, 64
4, 14640, Note_off_c, 2, 53, 59
4, 14640, Note_on_c, 2, 54, 64
4, 14700, Note_off_c, 2, 54, 59
4, 14700, Note_on_c, 2, 56, 64
4, 14760, Note_off_c, 2, 56, 54
4, 14760, Note_on_c, 2, 58, 64
4, 14820, Note_off_c, 2, 58, 50
4, 14820, Note_on_c, 2, 54, 64
4, 14880, Note_off_c, 2, 54, 49
4, 14880, Note_on_c, 2, 51, 64
4, 15000, Note_off_c, 2, 51, 44
4, 15000, Note_on_c, 2, 53, 64
4, 15060, Note_off_c, 2, 53, 37
4, 15060, Note_on_c, 2, 54, 64
4, 15120, Note_off_c, 2, 54, 53
4, 15120, Note_on_c, 2, 56, 64
4, 15240, Note_off_c, 2, 56, 66
4, 15240, Note_on_c, 2, 44, 64
4, 15360, Note_off_c, 2, 44, 40
4, 15360, Note_on_c, 2, 49, 64
4, 15480, Note_off_c, 2, 49, 57
4, 15480, Note_on_c, 2, 61, 64
4, 15600, Note_off_c, 2, 61, 66
4, 15600, Note_on_c, 2, 60, 64
4, 15720, Note_off_c, 2, 60, 62
4, 15720, Note_on_c, 2, 56, 64
4, 15840, Note_off_c, 2, 56, 46
4, 15840, Note_on_c, 2, 61, 64
4, 15960, Note_off_c, 2, 61, 54
4, 15960, Note_on_c, 2, 58, 64
4, 16080, Note_off_c, 2, 58, 52
4, 16080, Note_on_c, 2, 57, 64
4, 16200, Note_off_c, 2, 57, 47
4, 16200, Note_on_c, 2, 53, 64
4, 16320, Note_off_c, 2, 53, 47
4, 16320, Note_on_c, 2, 58, 64
4, 16380, Note_off_c, 2, 58, 63
4, 16380, Note_on_c, 2, 61, 64
4, 16440, Note_off_c, 2, 61, 77
4, 16440, Note_on_c, 2, 61, 64
4, 16500, Note_off_c, 2, 61, 70
4, 16500, Note_on_c, 2, 58, 64
4, 16560, Note_off_c, 2, 58, 54
4, 16560, Note_on_c, 2, 54, 64
4, 16620, Note_off_c, 2, 54, 44
4, 16620, Note_on_c, 2, 58, 64
4, 16680, Note_off_c, 2, 58, 52
4, 16680, Note_on_c, 2, 58, 64
4, 16740, Note_off_c, 2, 58, 59
4, 16740, Note_on_c, 2, 54, 64
4, 16800, Note_off_c, 2, 54, 49
4, 16800, Note_on_c, 2, 51, 64
4, 16860, Note_off_c, 2, 51, 44
4, 16860, Note_on_c, 2, 59, 64
4, 16920, Note_off_c, 2, 59, 43
4, 16920, Note_on_c, 2, 59, 64
4, 16980, Note_off_c, 2, 59, 45
4, 16980, Note_on_c, 2, 56, 64
4, 17040, Note_off_c, 2, 56, 49
4, 17040, Note_on_c, 2, 53, 64
4, 17100, Note_off_c, 2, 53, 57
4, 17100, Note_on_c, 2, 56, 64
4, 17160, Note_off_c, 2, 56, 62
4, 17160, Note_on_c, 2, 56, 64
4, 17220, Note_off_c, 2, 56, 37
4, 17220, Note_on_c, 2, 53, 64
4, 17280, Note_off_c, 2, 53, 49
4, 17280, Note_on_c, 2, 50, 64
4, 17340, Note_off_c, 2, 50, 31
4, 17340, Note_on_c, 2, 58, 64
4, 17400, Note_off_c, 2, 58, 52
4, 17400, Note_on_c, 2, 58, 64
4, 17460, Note_off_c, 2, 58, 48
4, 17460, Note_on_c, 2, 54, 64
4, 17520, Note_off_c, 2, 54, 45
4, 17520, Note_on_c, 2, 51, 64
4, 17580, Note_off_c, 2, 51, 62
4, 17580, Note_on_c, 2, 54, 64
4, 17640, Note_off_c, 2, 54, 57
4, 17640, Note_on_c, 2, 54, 64
4, 17700, Note_off_c, 2, 54, 49
4, 17700, Note_on_c, 2, 51, 64
4, 17760, Note_off_c, 2, 51, 54
4, 17760, Note_on_c, 2, 47, 64
4, 17820, Note_off_c, 2, 47, 35
4, 17820, Note_on_c, 2, 51, 64
4, 17880, Note_off_c, 2, 51, 61
4, 17880, Note_on_c, 2, 51, 64
4, 17940, Note_off_c, 2, 51, 55
4, 17940, Note_on_c, 2, 47, 64
4, 18000, Note_off_c, 2, 47, 44
4, 18000, Note_on_c, 2, 44, 64
4, 18060, Note_off_c, 2, 44, 35
4, 18060, Note_on_c, 2, 47, 64
4, 18120, Note_off_c, 2, 47, 52
4, 18120, Note_on_c, 2, 47, 64
4, 18180, Note_off_c, 2, 47, 54
4, 18180, Note_on_c, 2, 44, 64
4, 18240, Note_off_c, 2, 44, 44
4, 18240, Note_on_c, 2, 46, 64
4, 18340, Note_off_c, 2, 46, 45
4, 18360, Note_on_c, 2, 46, 69
4, 18480, Note_off_c, 2, 46, 36
4, 18480, Note_on_c, 2, 51, 69
4, 18600, Note_off_c, 2, 51, 55
4, 18600, Note_on_c, 2, 50, 69
4, 18720, Note_off_c, 2, 50, 63
4, 18720, Note_on_c, 2, 51, 69
4, 18840, Note_off_c, 2, 51, 52
4, 18840, Note_on_c, 2, 49, 64
4, 18900, Note_off_c, 2, 49, 55
4, 18900, Note_on_c, 2, 47, 64
4, 18960, Note_off_c, 2, 47, 58
4, 18960, Note_on_c, 2, 47, 72
4, 18982, Note_off_c, 2, 47, 50
4, 18982, Note_on_c, 2, 46, 50
4, 19004, Note_off_c, 2, 46, 68
4, 19004, Note_on_c, 2, 47, 52
4, 19026, Note_off_c, 2, 47, 54
4, 19026, Note_on_c, 2, 46, 55
4, 19048, Note_off_c, 2, 46, 58
4, 19048, Note_on_c, 2, 47, 57
4, 19070, Note_off_c, 2, 47, 54
4, 19070, Note_on_c, 2, 46, 59
4, 19092, Note_off_c, 2, 46, 58
4, 19092, Note_on_c, 2, 47, 61
4, 19114, Note_off_c, 2, 47, 49
4, 19114, Note_on_c, 2, 46, 63
4, 19136, Note_off_c, 2, 46, 47
4, 19140, Note_on_c, 2, 44, 64
4, 19170, Note_off_c, 2, 44, 52
4, 19170, Note_on_c, 2, 46, 64
4, 19200, Note_off_c, 2, 46, 69
4, 19200, Note_on_c, 2, 47, 64
4, 19440, Note_off_c, 2, 47, 55
4, 19560, Note_on_c, 2, 46, 64
4, 19680, Note_off_c, 2, 46, 65
4, 19680, Note_on_c, 2, 44, 64
4, 19800, Note_off_c, 2, 44, 62
4, 19800, Note_on_c, 2, 42, 64
4, 19920, Note_off_c, 2, 42, 49
4, 19920, Note_on_c, 2, 41, 64
4, 20040, Note_off_c, 2, 41, 25
4, 20040, Note_on_c, 2, 46, 64
4, 20160, Note_off_c, 2, 46, 40
4, 20160, Note_on_c, 2, 39, 64
4, 20280, Note_off_c, 2, 39, 57
4, 20280, Note_on_c, 2, 42, 64
4, 20400, Note_off_c, 2, 42, 68
4, 20400, Note_on_c, 2, 44, 64
4, 20640, Note_off_c, 2, 44, 62
4, 20700, Note_on_c, 2, 53, 64
4, 20760, Note_off_c, 2, 53, 34
4, 20760, Note_on_c, 2, 54, 64
4, 20820, Note_off_c, 2, 54, 49
4, 20820, Note_on_c, 2, 56, 64
4, 20880, Note_off_c, 2, 56, 54
4, 20880, Note_on_c, 2, 58, 64
4, 21000, Note_off_c, 2, 58, 63
4, 21000, Note_on_c, 2, 46, 64
4, 21120, Note_off_c, 2, 46, 46
4, 21120, Note_on_c, 2, 51, 64
4, 21180, Note_off_c, 2, 51, 66
4, 21180, Note_on_c, 2, 58, 64
4, 21240, Note_off_c, 2, 58, 50
4, 21240, Note_on_c, 2, 58, 64
4, 21300, Note_off_c, 2, 58, 48
4, 21300, Note_on_c, 2, 54, 64
4, 21360, Note_off_c, 2, 54, 57
4, 21360, Note_on_c, 2, 51, 64
4, 21420, Note_off_c, 2, 51, 59
4, 21420, Note_on_c, 2, 54, 64
4, 21480, Note_off_c, 2, 54, 66
4, 21480, Note_on_c, 2, 54, 64
4, 21540, Note_off_c, 2, 54, 53
4, 21540, Note_on_c, 2, 51, 64
4, 21600, Note_off_c, 2, 51, 65
4, 21600, Note_on_c, 2, 44, 64
4, 21660, Note_off_c, 2, 44, 63
4, 21660, Note_on_c, 2, 63, 64
4, 21720, Note_off_c, 2, 63, 45
4, 21720, Note_on_c, 2, 63, 64
4, 21780, Note_off_c, 2, 63, 50
4, 21780, Note_on_c, 2, 59, 64
4, 21840, Note_off_c, 2, 59, 51
4, 21840, Note_on_c, 2, 56, 64
4, 21900, Note_off_c, 2, 56, 34
4, 21900, Note_on_c, 2, 59, 64
4, 21960, Note_off_c, 2, 59, 53
4, 21960, Note_on_c, 2, 59, 64
4, 22020, Note_off_c, 2, 59, 49
4, 22020, Note_on_c, 2, 56, 64
4, 22080, Note_off_c, 2, 56, 50
4, 22080, Note_on_c, 2, 53, 64
4, 22140, Note_off_c, 2, 53, 45
4, 22140, Note_on_c, 2, 56, 64
4, 22200, Note_off_c, 2, 56, 61
4, 22200, Note_on_c, 2, 56, 64
4, 22260, Note_off_c, 2, 56, 65
4, 22260, Note_on_c, 2, 53, 64
4, 22320, Note_off_c, 2, 53, 53
4, 22320, Note_on_c, 2, 49, 64
4, 22380, Note_off_c, 2, 49, 29
4, 22380, Note_on_c, 2, 53, 64
4, 22440, Note_off_c, 2, 53, 55
4, 22440, Note_on_c, 2, 53, 64
4, 22500, Note_off_c, 2, 53, 58
4, 22500, Note_on_c, 2, 49, 64
4, 22560, Note_off_c, 2, 49, 79
4, 22560, Note_on_c, 2, 42, 64
4, 22620, Note_off_c, 2, 42, 63
4, 22620, Note_on_c, 2, 61, 64
4, 22680, Note_off_c, 2, 61, 73
4, 22680, Note_on_c, 2, 61, 64
4, 22740, Note_off_c, 2, 61, 62
4, 22740, Note_on_c, 2, 58, 64
4, 22800, Note_off_c, 2, 58, 61
4, 22800, Note_on_c, 2, 54, 64
4, 22860, Note_off_c, 2, 54, 44
4, 22860, Note_on_c, 2, 58, 64
4, 22920, Note_off_c, 2, 58, 63
4, 22920, Note_on_c, 2, 58, 64
4, 22980, Note_off_c, 2, 58, 65
4, 22980, Note_on_c, 2, 54, 64
4, 23040, Note_off_c, 2, 54, 54
4, 23040, Note_on_c, 2, 51, 64
4, 23100, Note_off_c, 2, 51, 49
4, 23100, Note_on_c, 2, 54, 64
4, 23160, Note_off_c, 2, 54, 59
4, 23160, Note_on_c, 2, 54, 64
4, 23220, Note_off_c, 2, 54, 52
4, 23220, Note_on_c, 2, 51, 64
4, 23280, Note_off_c, 2, 51, 59
4, 23280, Note_on_c, 2, 47, 64
4, 23340, Note_off_c, 2, 47, 40
4, 23340, Note_on_c, 2, 51, 64
4, 23400, Note_off_c, 2, 51, 66
4, 23400, Note_on_c, 2, 51, 64
4, 23460, Note_off_c, 2, 51, 63
4, 23460, Note_on_c, 2, 47, 64
4, 23520, Note_off_c, 2, 47, 42
4, 23520, Note_on_c, 2, 49, 64
4, 23640, Note_off_c, 2, 49, 79
4, 23640, Note_on_c, 2, 37, 64
4, 23760, Note_off_c, 2, 37, 44
4, 23880, Note_on_c, 2, 61, 64
4, 23940, Note_off_c, 2, 61, 53
4, 23940, Note_on_c, 2, 59, 64
4, 24000, Note_off_c, 2, 59, 49
4, 24000, Note_on_c, 2, 61, 64
4, 24120, Note_off_c, 2, 61, 70
4, 24120, Note_on_c, 2, 54, 64
4, 24240, Note_off_c, 2, 54, 27
4, 24240, Note_on_c, 2, 59, 64
4, 24360, Note_off_c, 2, 59, 57
4, 24360, Note_on_c, 2, 58, 64
4, 24480, Note_off_c, 2, 58, 49
4, 24480, Note_on_c, 2, 59, 64
4, 24600, Note_off_c, 2, 59, 62
4, 24600, Note_on_c, 2, 53, 64
4, 24720, Note_off_c, 2, 53, 38
4, 24720, Note_on_c, 2, 58, 64
4, 24840, Note_off_c, 2, 58, 50
4, 24840, Note_on_c, 2, 56, 64
4, 24960, Note_off_c, 2, 56, 46
4, 24960, Note_on_c, 2, 58, 64
4, 25080, Note_off_c, 2, 58, 63
4, 25080, Note_on_c, 2, 51, 64
4, 25200, Note_off_c, 2, 51, 46
4, 25200, Note_on_c, 2, 56, 64
4, 25320, Note_off_c, 2, 56, 47
4, 25320, Note_on_c, 2, 54, 64
4, 25440, Note_off_c, 2, 54, 44
4, 25440, Note_on_c, 2, 56, 64
4, 25560, Note_off_c, 2, 56, 61
4, 25560, Note_on_c, 2, 49, 64
4, 25680, Note_off_c, 2, 49, 51
4, 25680, Note_on_c, 2, 54, 64
4, 25800, Note_off_c, 2, 54, 1
4, 25800, Note_on_c, 2, 53, 64
4, 25920, Note_off_c, 2, 53, 57
4, 25920, Note_on_c, 2, 54, 64
4, 25980, Note_off_c, 2, 54, 55
4, 25980, Note_on_c, 2, 58, 64
4, 26040, Note_off_c, 2, 58, 72
4, 26040, Note_on_c, 2, 58, 64
4, 26100, Note_off_c, 2, 58, 68
4, 26100, Note_on_c, 2, 54, 64
4, 26160, Note_off_c, 2, 54, 49
4, 26160, Note_on_c, 2, 51, 64
4, 26220, Note_off_c, 2, 51, 41
4, 26220, Note_on_c, 2, 54, 64
4, 26280, Note_off_c, 2, 54, 55
4, 26280, Note_on_c, 2, 54, 64
4, 26340, Note_off_c, 2, 54, 65
4, 26340, Note_on_c, 2, 51, 64
4, 26400, Note_off_c, 2, 51, 55
4, 26400, Note_on_c, 2, 47, 64
4, 26520, Note_off_c, 2, 47, 31
4, 26760, Note_on_c, 2, 59, 64
4, 26870, Note_off_c, 2, 59, 61
4, 26883, Note_on_c, 2, 59, 64
4, 27903, Note_off_c, 2, 59, 59
4, 27903, Note_on_c, 2, 58, 64
4, 27963, Note_off_c, 2, 58, 62
4, 27963, Note_on_c, 2, 56, 64
4, 28023, Note_off_c, 2, 56, 57
4, 28023, Note_on_c, 2, 54, 64
4, 28083, Note_off_c, 2, 54, 49
4, 28083, Note_on_c, 2, 52, 64
4, 28143, Note_off_c, 2, 52, 45
4, 28143, Note_on_c, 2, 61, 64
4, 28203, Note_off_c, 2, 61, 55
4, 28203, Note_on_c, 2, 61, 64
4, 28263, Note_off_c, 2, 61, 54
4, 28263, Note_on_c, 2, 52, 64
4, 28323, Note_off_c, 2, 52, 48
4, 28323, Note_on_c, 2, 51, 64
4, 28383, Note_off_c, 2, 51, 38
4, 28383, Note_on_c, 2, 59, 64
4, 28443, Note_off_c, 2, 59, 17
4, 28443, Note_on_c, 2, 59, 64
4, 28503, Note_off_c, 2, 59, 53
4, 28503, Note_on_c, 2, 51, 64
4, 28563, Note_off_c, 2, 51, 49
4, 28563, Note_on_c, 2, 49, 64
4, 28623, Note_off_c, 2, 49, 43
4, 28623, Note_on_c, 2, 58, 64
4, 28683, Note_off_c, 2, 58, 55
4, 28683, Note_on_c, 2, 58, 64
4, 28743, Note_off_c, 2, 58, 61
4, 28743, Note_on_c, 2, 49, 64
4, 28803, Note_off_c, 2, 49, 51
4, 28803, Note_on_c, 2, 47, 64
4, 28863, Note_off_c, 2, 47, 25
4, 28863, Note_on_c, 2, 49, 64
4, 28923, Note_off_c, 2, 49, 59
4, 28923, Note_on_c, 2, 47, 64
4, 28983, Note_off_c, 2, 47, 38
4, 28983, Note_on_c, 2, 46, 64
4, 29043, Note_off_c, 2, 46, 54
4, 29043, Note_on_c, 2, 44, 64
4, 29103, Note_off_c, 2, 44, 50
4, 29103, Note_on_c, 2, 46, 64
4, 29163, Note_off_c, 2, 46, 41
4, 29163, Note_on_c, 2, 47, 64
4, 29223, Note_off_c, 2, 47, 53
4, 29223, Note_on_c, 2, 44, 64
4, 29283, Note_off_c, 2, 44, 66
4, 29283, Note_on_c, 2, 49, 64
4, 29343, Note_off_c, 2, 49, 63
4, 29343, Note_on_c, 2, 51, 64
4, 29403, Note_off_c, 2, 51, 57
4, 29403, Note_on_c, 2, 49, 64
4, 29463, Note_off_c, 2, 49, 57
4, 29463, Note_on_c, 2, 47, 64
4, 29523, Note_off_c, 2, 47, 46
4, 29523, Note_on_c, 2, 46, 64
4, 29583, Note_off_c, 2, 46, 51
4, 29583, Note_on_c, 2, 47, 64
4, 29643, Note_off_c, 2, 47, 41
4, 29643, Note_on_c, 2, 49, 64
4, 29703, Note_off_c, 2, 49, 57
4, 29703, Note_on_c, 2, 46, 64
4, 29763, Note_off_c, 2, 46, 65
4, 29763, Note_on_c, 2, 51, 64
4, 29823, Note_off_c, 2, 51, 59
4, 29823, Note_on_c, 2, 53, 64
4, 29883, Note_off_c, 2, 53, 24
4, 29883, Note_on_c, 2, 54, 64
4, 30063, Note_off_c, 2, 54, 49
4, 30063, Note_on_c, 2, 53, 64
4, 30123, Note_off_c, 2, 53, 69
4, 30123, Note_on_c, 2, 51, 64
4, 30183, Note_off_c, 2, 51, 66
4, 30183, Note_on_c, 2, 49, 64
4, 30243, Note_off_c, 2, 49, 55
4, 30243, Note_on_c, 2, 47, 64
4, 30303, Note_off_c, 2, 47, 38
4, 30303, Note_on_c, 2, 49, 64
4, 30363, Note_off_c, 2, 49, 62
4, 30363, Note_on_c, 2, 51, 64
4, 30423, Note_off_c, 2, 51, 66
4, 30423, Note_on_c, 2, 46, 64
4, 30483, Note_off_c, 2, 46, 65
4, 30483, Note_on_c, 2, 47, 64
4, 30543, Note_off_c, 2, 47, 38
4, 30543, Note_on_c, 2, 49, 64
4, 30603, Note_off_c, 2, 49, 58
4, 30603, Note_on_c, 2, 51, 64
4, 30663, Note_off_c, 2, 51, 66
4, 30663, Note_on_c, 2, 47, 64
4, 30723, Note_off_c, 2, 47, 42
4, 30723, Note_on_c, 2, 44, 64
4, 30843, Note_off_c, 2, 44, 57
4, 30843, Note_on_c, 2, 46, 64
4, 30903, Note_off_c, 2, 46, 47
4, 30903, Note_on_c, 2, 47, 64
4, 30963, Note_off_c, 2, 47, 65
4, 30963, Note_on_c, 2, 49, 64
4, 31083, Note_off_c, 2, 49, 79
4, 31083, Note_on_c, 2, 37, 64
4, 31203, Note_off_c, 2, 37, 62
4, 31203, Note_on_c, 2, 42, 64
4, 31323, Note_off_c, 2, 42, 63
4, 31323, Note_on_c, 2, 54, 64
4, 31443, Note_off_c, 2, 54, 53
4, 31443, Note_on_c, 2, 53, 64
4, 31563, Note_off_c, 2, 53, 72
4, 31563, Note_on_c, 2, 49, 64
4, 31683, Note_off_c, 2, 49, 65
4, 31683, Note_on_c, 2, 54, 64
4, 31743, Note_off_c, 2, 54, 61
4, 31743, Note_on_c, 2, 58, 64
4, 31803, Note_off_c, 2, 58, 69
4, 31803, Note_on_c, 2, 58, 64
4, 31863, Note_off_c, 2, 58, 65
4, 31863, Note_on_c, 2, 54, 64
4, 31923, Note_off_c, 2, 54, 61
4, 31923, Note_on_c, 2, 51, 64
4, 31983, Note_off_c, 2, 51, 65
4, 31983, Note_on_c, 2, 54, 64
4, 32043, Note_off_c, 2, 54, 62
4, 32043, Note_on_c, 2, 54, 64
4, 32103, Note_off_c, 2, 54, 61
4, 32103, Note_on_c, 2, 51, 64
4, 32163, Note_off_c, 2, 51, 61
4, 32163, Note_on_c, 2, 47, 64
4, 32283, Note_off_c, 2, 47, 68
4, 32283, Note_on_c, 2, 44, 64
4, 32403, Note_off_c, 2, 44, 63
4, 32403, Note_on_c, 2, 49, 64
4, 32523, Note_off_c, 2, 49, 74
4, 32523, Note_on_c, 2, 37, 64
4, 32643, Note_off_c, 2, 37, 61
4, 32643, Note_on_c, 2, 42, 64
4, 33603, Note_off_c, 2, 42, 79
4, 33603, End_track
0, 0, End_of_file
