0, 0, Header, 1, 4, 240
1, 0, Start_track
1, 0, Time_signature, 3, 3, 12, 8
1, 0, Tempo, 731707
1, 25320, Tempo, 750000
1, 25440, Tempo, 779221
1, 25560, Tempo, 810811
1, 25680, Tempo, 833333
1, 25740, Tempo, 869565
1, 25800, Tempo, 967742
1, 25860, Tempo, 1071429
1, 25920, Tempo, 1304348
1, 26280, Tempo, 731707
1, 26280, End_track
2, 0, Start_track
2, 0, Text_t, "RH H"
2, 1680, Note_on_c, 0, 65, 64
2, 1800, Note_off_c, 0, 65, 44
2, 1800, Note_on_c, 0, 69, 64
2, 1920, Note_off_c, 0, 69, 80
2, 1920, Note_on_c, 0, 67, 64
2, 2040, Note_off_c, 0, 67, 62
2, 2040, Note_on_c, 0, 65, 64
2, 2160, Note_off_c, 0, 65, 52
2, 2160, Note_on_c, 0, 67, 64
2, 2280, Note_off_c, 0, 67, 63
2, 2280, Note_on_c, 0, 59, 64
2, 2340, Note_off_c, 0, 59, 43
2, 2340, Note_on_c, 0, 60, 64
2, 2400, Note_off_c, 0, 60, 52
2, 2400, Note_on_c, 0, 62, 64
2, 2460, Note_off_c, 0, 62, 51
2, 2460, Note_on_c, 0, 64, 64
2, 2520, Note_off_c, 0, 64, 48
2, 2520, Note_on_c, 0, 65, 64
2, 2640, Note_off_c, 0, 65, 70
2, 2640, Note_on_c, 0, 67, 64
2, 2700, Note_off_c, 0, 67, 59
2, 2700, Note_on_c, 0, 65, 64
2, 2760, Note_off_c, 0, 65, 66
2, 2760, Note_on_c, 0, 64, 64
2, 2820, Note_off_c, 0, 64, 47
2, 2820, Note_on_c, 0, 62, 64
2, 2880, Note_off_c, 0, 62, 47
2, 2880, Note_on_c, 0, 64, 64
2, 2940, Note_off_c, 0, 64, 52
2, 2940, Note_on_c, 0, 62, 64
2, 3000, Note_off_c, 0, 62, 55
2, 3000, Note_on_c, 0, 60, 64
2, 3060, Note_off_c, 0, 60, 57
2, 3060, Note_on_c, 0, 62, 64
2, 3120, Note_off_c, 0, 62, 52
2, 3120, Note_on_c, 0, 64, 64
2, 3180, Note_off_c, 0, 64, 52
2, 3180, Note_on_c, 0, 65, 64
2, 3240, Note_off_c, 0, 65, 52
2, 3240, Note_on_c, 0, 67, 64
2, 3360, Note_off_c, 0, 67, 49
2, 3360, Note_on_c, 0, 65, 64
2, 3480, Note_off_c, 0, 65, 70
2, 3480, Note_on_c, 0, 64, 64
2, 3600, Note_off_c, 0, 64, 50
2, 3600, Note_on_c, 0, 65, 64
2, 3660, Note_off_c, 0, 65, 69
2, 3660, Note_on_c, 0, 64, 64
2, 3720, Note_off_c, 0, 64, 35
2, 3720, Note_on_c, 0, 62, 64
2, 3780, Note_off_c, 0, 62, 47
2, 3780, Note_on_c, 0, 64, 64
2, 3840, Note_off_c, 0, 64, 46
2, 3840, Note_on_c, 0, 65, 64
2, 3900, Note_off_c, 0, 65, 63
2, 3900, Note_on_c, 0, 67, 64
2, 3960, Note_off_c, 0, 67, 63
2, 3960, Note_on_c, 0, 69, 64
2, 4020, Note_off_c, 0, 69, 70
2, 4020, Note_on_c, 0, 72, 64
2, 4080, Note_off_c, 0, 72, 79
2, 4080, Note_on_c, 0, 70, 64
2, 4140, Note_off_c, 0, 70, 77
2, 4140, Note_on_c, 0, 69, 64
2, 4200, Note_off_c, 0, 69, 72
2, 4200, Note_on_c, 0, 67, 64
2, 4260, Note_off_c, 0, 67, 55
2, 4260, Note_on_c, 0, 65, 64
2, 4310, Note_off_c, 0, 65, 48
2, 4323, Note_on_c, 0, 65, 74
2, 4345, Note_off_c, 0, 65, 63
2, 4345, Note_on_c, 0, 64, 43
2, 4367, Note_off_c, 0, 64, 58
2, 4367, Note_on_c, 0, 65, 48
2, 4389, Note_off_c, 0, 65, 69
2, 4389, Note_on_c, 0, 64, 53
2, 4411, Note_off_c, 0, 64, 63
2, 4411, Note_on_c, 0, 65, 58
2, 4433, Note_off_c, 0, 65, 1
2, 4433, Note_on_c, 0, 64, 64
2, 4683, Note_off_c, 0, 64, 26
2, 4683, Note_on_c, 0, 65, 64
2, 4803, Note_off_c, 0, 65, 72
2, 4803, Note_on_c, 0, 69, 64
2, 5043, Note_off_c, 0, 69, 77
2, 5043, Note_on_c, 0, 67, 64
2, 5163, Note_off_c, 0, 67, 51
2, 5163, Note_on_c, 0, 72, 64
2, 5403, Note_off_c, 0, 72, 82
2, 5403, Note_on_c, 0, 71, 64
2, 5523, Note_off_c, 0, 71, 76
2, 5523, Note_on_c, 0, 76, 64
2, 5763, Note_off_c, 0, 76, 25
2, 5763, Note_on_c, 0, 74, 64
2, 6173, Note_off_c, 0, 74, 76
2, 6186, Note_on_c, 0, 74, 64
2, 6246, Note_off_c, 0, 74, 70
2, 6246, Note_on_c, 0, 72, 64
2, 6366, Note_off_c, 0, 72, 79
2, 6366, Note_on_c, 0, 72, 64
2, 6486, Note_off_c, 0, 72, 77
2, 6486, Note_on_c, 0, 74, 64
2, 6606, Note_off_c, 0, 74, 76
2, 6606, Note_on_c, 0, 72, 64
2, 6726, Note_off_c, 0, 72, 77
2, 6726, Note_on_c, 0, 70, 64
2, 6846, Note_off_c, 0, 70, 58
2, 6846, Note_on_c, 0, 72, 64
2, 6966, Note_off_c, 0, 72, 72
2, 6966, Note_on_c, 0, 64, 64
2, 7026, Note_off_c, 0, 64, 40
2, 7026, Note_on_c, 0, 65, 64
2, 7086, Note_off_c, 0, 65, 63
2, 7086, Note_on_c, 0, 67, 64
2, 7146, Note_off_c, 0, 67, 59
2, 7146, Note_on_c, 0, 69, 64
2, 7206, Note_off_c, 0, 69, 74
2, 7206, Note_on_c, 0, 70, 64
2, 7326, Note_off_c, 0, 70, 76
2, 7326, Note_on_c, 0, 72, 64
2, 7386, Note_off_c, 0, 72, 83
2, 7386, Note_on_c, 0, 70, 64
2, 7446, Note_off_c, 0, 70, 76
2, 7446, Note_on_c, 0, 69, 64
2, 7506, Note_off_c, 0, 69, 63
2, 7506, Note_on_c, 0, 67, 64
2, 7566, Note_off_c, 0, 67, 43
2, 7566, Note_on_c, 0, 69, 64
2, 7626, Note_off_c, 0, 69, 72
2, 7626, Note_on_c, 0, 67, 64
2, 7686, Note_off_c, 0, 67, 47
2, 7686, Note_on_c, 0, 65, 64
2, 7746, Note_off_c, 0, 65, 54
2, 7746, Note_on_c, 0, 67, 64
2, 7806, Note_off_c, 0, 67, 48
2, 7806, Note_on_c, 0, 69, 64
2, 7866, Note_off_c, 0, 69, 74
2, 7866, Note_on_c, 0, 70, 64
2, 7926, Note_off_c, 0, 70, 76
2, 7926, Note_on_c, 0, 72, 64
2, 7986, Note_off_c, 0, 72, 77
2, 7986, Note_on_c, 0, 70, 64
2, 8046, Note_off_c, 0, 70, 76
2, 8046, Note_on_c, 0, 69, 64
2, 8106, Note_off_c, 0, 69, 66
2, 8106, Note_on_c, 0, 70, 64
2, 8166, Note_off_c, 0, 70, 77
2, 8166, Note_on_c, 0, 72, 64
2, 8226, Note_off_c, 0, 72, 79
2, 8226, Note_on_c, 0, 74, 64
2, 8286, Note_off_c, 0, 74, 73
2, 8286, Note_on_c, 0, 76, 64
2, 8346, Note_off_c, 0, 76, 54
2, 8346, Note_on_c, 0, 79, 64
2, 8406, Note_off_c, 0, 79, 73
2, 8406, Note_on_c, 0, 77, 64
2, 8466, Note_off_c, 0, 77, 70
2, 8466, Note_on_c, 0, 76, 64
2, 8526, Note_off_c, 0, 76, 47
2, 8526, Note_on_c, 0, 74, 64
2, 8586, Note_off_c, 0, 74, 63
2, 8586, Note_on_c, 0, 72, 64
2, 8636, Note_off_c, 0, 72, 61
2, 8649, Note_on_c, 0, 72, 74
2, 8671, Note_off_c, 0, 72, 74
2, 8671, Note_on_c, 0, 71, 42
2, 8693, Note_off_c, 0, 71, 62
2, 8693, Note_on_c, 0, 72, 47
2, 8715, Note_off_c, 0, 72, 80
2, 8715, Note_on_c, 0, 71, 52
2, 8737, Note_off_c, 0, 71, 76
2, 8737, Note_on_c, 0, 72, 57
2, 8759, Note_off_c, 0, 72, 73
2, 8759, Note_on_c, 0, 71, 64
2, 9009, Note_off_c, 0, 71, 83
2, 9009, Note_on_c, 0, 72, 64
2, 9069, Note_off_c, 0, 72, 59
2, 9069, Note_on_c, 0, 74, 64
2, 9129, Note_off_c, 0, 74, 65
2, 9129, Note_on_c, 0, 76, 64
2, 9189, Note_off_c, 0, 76, 46
2, 9189, Note_on_c, 0, 77, 64
2, 9249, Note_off_c, 0, 77, 62
2, 9249, Note_on_c, 0, 79, 64
2, 9309, Note_off_c, 0, 79, 61
2, 9309, Note_on_c, 0, 81, 64
2, 9369, Note_off_c, 0, 81, 59
2, 9369, Note_on_c, 0, 70, 64
2, 9429, Note_off_c, 0, 70, 50
2, 9429, Note_on_c, 0, 72, 64
2, 9489, Note_off_c, 0, 72, 54
2, 9489, Note_on_c, 0, 74, 64
2, 9549, Note_off_c, 0, 74, 68
2, 9549, Note_on_c, 0, 76, 64
2, 9609, Note_off_c, 0, 76, 52
2, 9609, Note_on_c, 0, 77, 64
2, 9669, Note_off_c, 0, 77, 54
2, 9669, Note_on_c, 0, 79, 64
2, 9729, Note_off_c, 0, 79, 62
2, 9729, Note_on_c, 0, 81, 64
2, 9789, Note_off_c, 0, 81, 53
2, 9789, Note_on_c, 0, 84, 64
2, 9849, Note_off_c, 0, 84, 59
2, 9849, Note_on_c, 0, 82, 64
2, 9909, Note_off_c, 0, 82, 70
2, 9909, Note_on_c, 0, 81, 64
2, 9969, Note_off_c, 0, 81, 68
2, 9969, Note_on_c, 0, 79, 64
2, 10029, Note_off_c, 0, 79, 52
2, 10029, Note_on_c, 0, 77, 64
2, 10089, Note_off_c, 0, 77, 61
2, 10089, Note_on_c, 0, 77, 64
2, 10199, Note_off_c, 0, 77, 68
2, 10212, Note_on_c, 0, 77, 74
2, 10234, Note_off_c, 0, 77, 54
2, 10234, Note_on_c, 0, 76, 42
2, 10256, Note_off_c, 0, 76, 52
2, 10256, Note_on_c, 0, 77, 47
2, 10278, Note_off_c, 0, 77, 65
2, 10278, Note_on_c, 0, 76, 53
2, 10300, Note_off_c, 0, 76, 55
2, 10300, Note_on_c, 0, 77, 58
2, 10322, Note_off_c, 0, 77, 61
2, 10322, Note_on_c, 0, 76, 64
2, 10452, Note_off_c, 0, 76, 68
2, 10452, Note_on_c, 0, 77, 64
2, 10572, Note_off_c, 0, 77, 76
2, 10812, Note_on_c, 0, 79, 64
2, 11222, Note_off_c, 0, 79, 73
2, 11235, Note_on_c, 0, 79, 64
2, 11295, Note_off_c, 0, 79, 68
2, 11295, Note_on_c, 0, 77, 64
2, 11355, Note_off_c, 0, 77, 68
2, 11355, Note_on_c, 0, 76, 64
2, 11415, Note_off_c, 0, 76, 49
2, 11415, Note_on_c, 0, 74, 64
2, 11475, Note_off_c, 0, 74, 44
2, 11475, Note_on_c, 0, 72, 64
2, 11535, Note_off_c, 0, 72, 62
2, 11535, Note_on_c, 0, 77, 64
2, 11945, Note_off_c, 0, 77, 76
2, 11958, Note_on_c, 0, 77, 64
2, 12018, Note_off_c, 0, 77, 65
2, 12018, Note_on_c, 0, 76, 64
2, 12078, Note_off_c, 0, 76, 52
2, 12078, Note_on_c, 0, 74, 64
2, 12138, Note_off_c, 0, 74, 59
2, 12138, Note_on_c, 0, 73, 64
2, 12198, Note_off_c, 0, 73, 70
2, 12198, Note_on_c, 0, 71, 64
2, 12258, Note_off_c, 0, 71, 59
2, 12258, Note_on_c, 0, 76, 64
2, 12738, Note_off_c, 0, 76, 55
2, 12738, Note_on_c, 0, 69, 64
2, 12858, Note_off_c, 0, 69, 44
2, 12858, Note_on_c, 0, 74, 64
2, 12978, Note_off_c, 0, 74, 52
2, 12978, Note_on_c, 0, 73, 64
2, 13218, Note_off_c, 0, 73, 53
2, 13218, Note_on_c, 0, 81, 64
2, 13338, Note_off_c, 0, 81, 66
2, 13338, Note_on_c, 0, 82, 64
2, 13458, Note_off_c, 0, 82, 69
2, 13458, Note_on_c, 0, 81, 64
2, 13578, Note_off_c, 0, 81, 62
2, 13578, Note_on_c, 0, 79, 64
2, 13698, Note_off_c, 0, 79, 52
2, 13698, Note_on_c, 0, 81, 64
2, 13818, Note_off_c, 0, 81, 63
2, 13818, Note_on_c, 0, 73, 64
2, 13878, Note_off_c, 0, 73, 68
2, 13878, Note_on_c, 0, 74, 64
2, 13938, Note_off_c, 0, 74, 34
2, 13938, Note_on_c, 0, 76, 64
2, 13998, Note_off_c, 0, 76, 43
2, 13998, Note_on_c, 0, 77, 64
2, 14058, Note_off_c, 0, 77, 62
2, 14058, Note_on_c, 0, 79, 64
2, 14178, Note_off_c, 0, 79, 54
2, 14178, Note_on_c, 0, 81, 64
2, 14238, Note_off_c, 0, 81, 69
2, 14238, Note_on_c, 0, 79, 64
2, 14298, Note_off_c, 0, 79, 66
2, 14298, Note_on_c, 0, 77, 64
2, 14358, Note_off_c, 0, 77, 52
2, 14358, Note_on_c, 0, 76, 64
2, 14418, Note_off_c, 0, 76, 52
2, 14418, Note_on_c, 0, 77, 64
2, 14478, Note_off_c, 0, 77, 65
2, 14478, Note_on_c, 0, 81, 64
2, 14538, Note_off_c, 0, 81, 53
2, 14538, Note_on_c, 0, 79, 64
2, 14598, Note_off_c, 0, 79, 55
2, 14598, Note_on_c, 0, 77, 64
2, 14658, Note_off_c, 0, 77, 49
2, 14658, Note_on_c, 0, 76, 64
2, 14718, Note_off_c, 0, 76, 50
2, 14718, Note_on_c, 0, 74, 64
2, 14778, Note_off_c, 0, 74, 52
2, 14778, Note_on_c, 0, 73, 64
2, 15188, Note_off_c, 0, 73, 65
2, 15201, Note_on_c, 0, 74, 64
2, 15231, Note_off_c, 0, 74, 65
2, 15231, Note_on_c, 0, 72, 64
2, 15261, Note_off_c, 0, 72, 58
2, 15261, Note_on_c, 0, 70, 64
2, 15321, Note_off_c, 0, 70, 61
2, 15321, Note_on_c, 0, 69, 64
2, 15381, Note_off_c, 0, 69, 62
2, 15381, Note_on_c, 0, 67, 64
2, 15441, Note_off_c, 0, 67, 45
2, 15441, Note_on_c, 0, 65, 64
2, 15501, Note_off_c, 0, 65, 17
2, 15501, Note_on_c, 0, 70, 64
2, 15621, Note_off_c, 0, 70, 68
2, 15621, Note_on_c, 0, 69, 64
2, 15741, Note_off_c, 0, 69, 70
2, 15741, Note_on_c, 0, 67, 64
2, 15861, Note_off_c, 0, 67, 41
2, 15861, Note_on_c, 0, 69, 64
2, 16271, Note_off_c, 0, 69, 58
2, 16284, Note_on_c, 0, 70, 64
2, 16344, Note_off_c, 0, 70, 58
2, 16344, Note_on_c, 0, 65, 74
2, 16366, Note_off_c, 0, 65, 1
2, 16366, Note_on_c, 0, 64, 43
2, 16388, Note_off_c, 0, 64, 63
2, 16388, Note_on_c, 0, 65, 48
2, 16410, Note_off_c, 0, 65, 1
2, 16410, Note_on_c, 0, 64, 53
2, 16432, Note_off_c, 0, 64, 62
2, 16432, Note_on_c, 0, 65, 58
2, 16454, Note_off_c, 0, 65, 70
2, 16454, Note_on_c, 0, 64, 64
2, 16524, Note_off_c, 0, 64, 31
2, 16524, Note_on_c, 0, 62, 64
2, 16584, Note_off_c, 0, 62, 45
2, 16644, Note_on_c, 0, 64, 64
2, 16704, Note_off_c, 0, 64, 42
2, 16704, Note_on_c, 0, 65, 64
2, 16764, Note_off_c, 0, 65, 54
2, 16764, Note_on_c, 0, 67, 64
2, 16824, Note_off_c, 0, 67, 49
2, 16824, Note_on_c, 0, 69, 64
2, 16884, Note_off_c, 0, 69, 76
2, 16884, Note_on_c, 0, 70, 64
2, 16944, Note_off_c, 0, 70, 76
2, 16944, Note_on_c, 0, 72, 64
2, 17004, Note_off_c, 0, 72, 74
2, 17004, Note_on_c, 0, 70, 64
2, 17064, Note_off_c, 0, 70, 70
2, 17064, Note_on_c, 0, 72, 64
2, 17124, Note_off_c, 0, 72, 79
2, 17124, Note_on_c, 0, 74, 64
2, 17184, Note_off_c, 0, 74, 65
2, 17184, Note_on_c, 0, 75, 64
2, 17244, Note_off_c, 0, 75, 66
2, 17244, Note_on_c, 0, 74, 64
2, 17304, Note_off_c, 0, 74, 66
2, 17304, Note_on_c, 0, 67, 76
2, 17326, Note_off_c, 0, 67, 52
2, 17326, Note_on_c, 0, 66, 50
2, 17348, Note_off_c, 0, 66, 38
2, 17348, Note_on_c, 0, 67, 64
2, 17364, Note_on_c, 0, 64, 64
2, 17370, Note_off_c, 0, 67, 49
2, 17424, Note_off_c, 0, 64, 43
2, 17424, Note_on_c, 0, 62, 64
2, 17484, Note_off_c, 0, 62, 41
2, 17484, Note_on_c, 0, 64, 64
2, 17544, Note_off_c, 0, 64, 49
2, 17544, Note_on_c, 0, 66, 64
2, 17604, Note_off_c, 0, 66, 83
2, 17604, Note_on_c, 0, 67, 64
2, 17664, Note_off_c, 0, 67, 48
2, 17664, Note_on_c, 0, 69, 64
2, 18074, Note_off_c, 0, 69, 72
2, 18087, Note_on_c, 0, 67, 64
2, 18147, Note_off_c, 0, 67, 26
2, 18147, Note_on_c, 0, 69, 64
2, 18207, Note_off_c, 0, 69, 59
2, 18207, Note_on_c, 0, 70, 64
2, 18267, Note_off_c, 0, 70, 63
2, 18267, Note_on_c, 0, 72, 64
2, 18327, Note_off_c, 0, 72, 74
2, 18327, Note_on_c, 0, 74, 64
2, 18387, Note_off_c, 0, 74, 68
2, 18387, Note_on_c, 0, 75, 64
2, 18507, Note_off_c, 0, 75, 59
2, 18507, Note_on_c, 0, 74, 64
2, 18627, Note_off_c, 0, 74, 76
2, 18627, Note_on_c, 0, 72, 64
2, 18747, Note_off_c, 0, 72, 80
2, 18747, Note_on_c, 0, 74, 64
2, 18867, Note_off_c, 0, 74, 72
2, 18867, Note_on_c, 0, 66, 64
2, 18927, Note_off_c, 0, 66, 69
2, 18927, Note_on_c, 0, 67, 64
2, 18987, Note_off_c, 0, 67, 50
2, 18987, Note_on_c, 0, 69, 64
2, 19047, Note_off_c, 0, 69, 77
2, 19047, Note_on_c, 0, 70, 64
2, 19107, Note_off_c, 0, 70, 70
2, 19107, Note_on_c, 0, 72, 64
2, 19167, Note_off_c, 0, 72, 79
2, 19167, Note_on_c, 0, 70, 64
2, 19227, Note_off_c, 0, 70, 82
2, 19227, Note_on_c, 0, 74, 64
2, 19287, Note_off_c, 0, 74, 70
2, 19287, Note_on_c, 0, 72, 64
2, 19347, Note_off_c, 0, 72, 77
2, 19347, Note_on_c, 0, 70, 64
2, 19407, Note_off_c, 0, 70, 80
2, 19407, Note_on_c, 0, 69, 64
2, 19467, Note_off_c, 0, 69, 69
2, 19467, Note_on_c, 0, 70, 64
2, 19527, Note_off_c, 0, 70, 79
2, 19527, Note_on_c, 0, 66, 64
2, 19587, Note_off_c, 0, 66, 77
2, 19587, Note_on_c, 0, 67, 64
2, 19647, Note_off_c, 0, 67, 54
2, 19647, Note_on_c, 0, 69, 64
2, 19707, Note_off_c, 0, 69, 80
2, 19707, Note_on_c, 0, 70, 64
2, 19767, Note_off_c, 0, 70, 77
2, 19767, Note_on_c, 0, 73, 64
2, 19827, Note_off_c, 0, 73, 72
2, 19827, Note_on_c, 0, 74, 64
2, 19887, Note_off_c, 0, 74, 76
2, 19887, Note_on_c, 0, 79, 64
2, 19947, Note_off_c, 0, 79, 61
2, 19947, Note_on_c, 0, 72, 74
2, 19969, Note_off_c, 0, 72, 70
2, 19969, Note_on_c, 0, 70, 41
2, 19991, Note_off_c, 0, 70, 46
2, 19991, Note_on_c, 0, 72, 46
2, 20013, Note_off_c, 0, 72, 63
2, 20013, Note_on_c, 0, 70, 50
2, 20035, Note_off_c, 0, 70, 53
2, 20035, Note_on_c, 0, 72, 55
2, 20057, Note_off_c, 0, 72, 65
2, 20057, Note_on_c, 0, 70, 57
2, 20070, Note_on_c, 0, 69, 64
2, 20082, Note_off_c, 0, 70, 36
2, 20130, Note_off_c, 0, 69, 69
2, 20130, Note_on_c, 0, 67, 64
2, 20190, Note_off_c, 0, 67, 50
2, 20190, Note_on_c, 0, 67, 64
2, 20310, Note_off_c, 0, 67, 46
2, 20310, Note_on_c, 0, 70, 64
2, 20600, Note_off_c, 0, 70, 62
2, 20613, Note_on_c, 0, 67, 64
2, 20673, Note_off_c, 0, 67, 44
2, 20673, Note_on_c, 0, 72, 64
2, 20733, Note_off_c, 0, 72, 77
2, 20733, Note_on_c, 0, 70, 64
2, 20793, Note_off_c, 0, 70, 73
2, 20793, Note_on_c, 0, 69, 64
2, 20853, Note_off_c, 0, 69, 63
2, 20853, Note_on_c, 0, 67, 64
2, 20913, Note_off_c, 0, 67, 47
2, 20913, Note_on_c, 0, 69, 64
2, 21323, Note_off_c, 0, 69, 68
2, 21336, Note_on_c, 0, 65, 64
2, 21396, Note_off_c, 0, 65, 36
2, 21396, Note_on_c, 0, 70, 64
2, 21456, Note_off_c, 0, 70, 76
2, 21456, Note_on_c, 0, 69, 64
2, 21516, Note_off_c, 0, 69, 70
2, 21516, Note_on_c, 0, 67, 64
2, 21576, Note_off_c, 0, 67, 52
2, 21576, Note_on_c, 0, 65, 64
2, 21636, Note_off_c, 0, 65, 44
2, 21636, Note_on_c, 0, 64, 64
2, 21756, Note_off_c, 0, 64, 50
2, 21756, Note_on_c, 0, 65, 64
2, 21876, Note_off_c, 0, 65, 70
2, 21876, Note_on_c, 0, 67, 64
2, 21996, Note_off_c, 0, 67, 66
2, 21996, Note_on_c, 0, 69, 64
2, 22116, Note_off_c, 0, 69, 82
2, 22116, Note_on_c, 0, 70, 64
2, 22236, Note_off_c, 0, 70, 72
2, 22236, Note_on_c, 0, 72, 64
2, 22356, Note_off_c, 0, 72, 82
2, 22356, Note_on_c, 0, 74, 64
2, 22476, Note_off_c, 0, 74, 69
2, 22476, Note_on_c, 0, 76, 64
2, 22596, Note_off_c, 0, 76, 59
2, 22596, Note_on_c, 0, 77, 64
2, 22716, Note_off_c, 0, 77, 77
2, 22716, Note_on_c, 0, 79, 64
2, 23126, Note_off_c, 0, 79, 63
2, 23139, Note_on_c, 0, 72, 64
2, 23199, Note_off_c, 0, 72, 65
2, 23199, Note_on_c, 0, 77, 64
2, 23259, Note_off_c, 0, 77, 77
2, 23259, Note_on_c, 0, 75, 64
2, 23319, Note_off_c, 0, 75, 68
2, 23319, Note_on_c, 0, 74, 64
2, 23379, Note_off_c, 0, 74, 66
2, 23379, Note_on_c, 0, 72, 64
2, 23439, Note_off_c, 0, 72, 77
2, 23439, Note_on_c, 0, 74, 64
2, 23499, Note_off_c, 0, 74, 73
2, 23499, Note_on_c, 0, 72, 64
2, 23559, Note_off_c, 0, 72, 79
2, 23559, Note_on_c, 0, 75, 64
2, 23619, Note_off_c, 0, 75, 65
2, 23619, Note_on_c, 0, 74, 64
2, 23679, Note_off_c, 0, 74, 76
2, 23679, Note_on_c, 0, 72, 64
2, 23739, Note_off_c, 0, 72, 77
2, 23739, Note_on_c, 0, 70, 64
2, 23799, Note_off_c, 0, 70, 68
2, 23799, Note_on_c, 0, 72, 64
2, 23919, Note_off_c, 0, 72, 82
2, 23919, Note_on_c, 0, 64, 64
2, 23979, Note_off_c, 0, 64, 54
2, 23979, Note_on_c, 0, 65, 64
2, 24039, Note_off_c, 0, 65, 66
2, 24039, Note_on_c, 0, 67, 64
2, 24099, Note_off_c, 0, 67, 59
2, 24099, Note_on_c, 0, 69, 64
2, 24159, Note_off_c, 0, 69, 66
2, 24159, Note_on_c, 0, 70, 64
2, 24219, Note_off_c, 0, 70, 79
2, 24219, Note_on_c, 0, 69, 64
2, 24279, Note_off_c, 0, 69, 76
2, 24279, Note_on_c, 0, 72, 64
2, 24339, Note_off_c, 0, 72, 80
2, 24339, Note_on_c, 0, 70, 64
2, 24399, Note_off_c, 0, 70, 76
2, 24399, Note_on_c, 0, 69, 64
2, 24459, Note_off_c, 0, 69, 65
2, 24459, Note_on_c, 0, 67, 64
2, 24519, Note_off_c, 0, 67, 52
2, 24519, Note_on_c, 0, 69, 64
2, 24579, Note_off_c, 0, 69, 73
2, 24579, Note_on_c, 0, 67, 64
2, 24639, Note_off_c, 0, 67, 55
2, 24639, Note_on_c, 0, 70, 64
2, 24699, Note_off_c, 0, 70, 80
2, 24699, Note_on_c, 0, 69, 64
2, 24759, Note_off_c, 0, 69, 72
2, 24759, Note_on_c, 0, 72, 64
2, 24819, Note_off_c, 0, 72, 73
2, 24819, Note_on_c, 0, 70, 64
2, 24879, Note_off_c, 0, 70, 74
2, 24879, Note_on_c, 0, 74, 64
2, 24939, Note_off_c, 0, 74, 73
2, 24939, Note_on_c, 0, 72, 64
2, 24999, Note_off_c, 0, 72, 73
2, 24999, Note_on_c, 0, 76, 64
2, 25059, Note_off_c, 0, 76, 58
2, 25059, Note_on_c, 0, 74, 64
2, 25119, Note_off_c, 0, 74, 69
2, 25119, Note_on_c, 0, 77, 64
2, 25179, Note_off_c, 0, 77, 74
2, 25179, Note_on_c, 0, 76, 64
2, 25239, Note_off_c, 0, 76, 61
2, 25239, Note_on_c, 0, 79, 64
2, 25299, Note_off_c, 0, 79, 72
2, 25299, Note_on_c, 0, 69, 64
2, 25359, Note_off_c, 0, 69, 55
2, 25359, Note_on_c, 0, 70, 64
2, 25419, Note_off_c, 0, 70, 70
2, 25419, Note_on_c, 0, 67, 64
2, 25479, Note_off_c, 0, 67, 42
2, 25479, Note_on_c, 0, 69, 64
2, 25659, Note_off_c, 0, 69, 52
2, 25659, Note_on_c, 0, 70, 64
2, 25719, Note_off_c, 0, 70, 70
2, 25719, Note_on_c, 0, 69, 76
2, 25741, Note_off_c, 0, 69, 63
2, 25741, Note_on_c, 0, 67, 40
2, 25763, Note_off_c, 0, 67, 49
2, 25763, Note_on_c, 0, 69, 46
2, 25785, Note_off_c, 0, 69, 66
2, 25785, Note_on_c, 0, 67, 52
2, 25807, Note_off_c, 0, 67, 47
2, 25807, Note_on_c, 0, 69, 58
2, 25829, Note_off_c, 0, 69, 58
2, 25829, Note_on_c, 0, 67, 64
2, 25899, Note_off_c, 0, 67, 36
2, 25899, Note_on_c, 0, 65, 70
2, 25959, Note_off_c, 0, 65, 51
2, 25959, End_track
3, 0, Start_track
3, 0, Text_t, "RH L /LH H\201p\221"
3, 60, Unknown_event, 00x
3, 124, Unknown_event, 00x
3, 244, Note_off_c, 1, 60, 64
3, 244, Note_on_c, 1, 62, 64
3, 364, Note_off_c, 1, 62, 57
3, 364, Note_on_c, 1, 60, 64
3, 484, Note_off_c, 1, 60, 69
3, 484, Note_on_c, 1, 58, 64
3, 604, Note_off_c, 1, 58, 52
3, 604, Note_on_c, 1, 60, 64
3, 724, Note_off_c, 1, 60, 55
3, 724, Note_on_c, 1, 52, 64
3, 784, Note_off_c, 1, 52, 44
3, 784, Note_on_c, 1, 53, 64
3, 844, Note_off_c, 1, 53, 57
3, 844, Note_on_c, 1, 55, 64
3, 904, Note_off_c, 1, 55, 59
3, 904, Note_on_c, 1, 57, 64
3, 964, Note_off_c, 1, 57, 57
3, 964, Note_on_c, 1, 58, 64
3, 1084, Note_off_c, 1, 58, 62
3, 1084, Note_on_c, 1, 60, 64
3, 1144, Note_off_c, 1, 60, 68
3, 1144, Note_on_c, 1, 58, 64
3, 1204, Note_off_c, 1, 58, 62
3, 1204, Note_on_c, 1, 57, 64
3, 1264, Note_off_c, 1, 57, 54
3, 1264, Note_on_c, 1, 55, 64
3, 1324, Note_off_c, 1, 55, 53
3, 1324, Note_on_c, 1, 57, 64
3, 1384, Note_off_c, 1, 57, 54
3, 1384, Note_on_c, 1, 55, 64
3, 1444, Note_off_c, 1, 55, 54
3, 1444, Note_on_c, 1, 53, 64
3, 1504, Note_off_c, 1, 53, 47
3, 1504, Note_on_c, 1, 55, 64
3, 1564, Note_off_c, 1, 55, 53
3, 1564, Note_on_c, 1, 57, 64
3, 1624, Note_off_c, 1, 57, 62
3, 1624, Note_on_c, 1, 58, 64
3, 1684, Note_off_c, 1, 58, 54
3, 1684, Note_on_c, 1, 60, 64
3, 1744, Note_off_c, 1, 60, 59
3, 1744, Note_on_c, 1, 58, 64
3, 1804, Note_off_c, 1, 58, 65
3, 1804, Note_on_c, 1, 57, 64
3, 1864, Note_off_c, 1, 57, 52
3, 1864, Note_on_c, 1, 58, 64
3, 1924, Note_off_c, 1, 58, 61
3, 1924, Note_on_c, 1, 60, 64
3, 1984, Note_off_c, 1, 60, 58
3, 1984, Note_on_c, 1, 62, 64
3, 2044, Note_off_c, 1, 62, 48
3, 2044, Note_on_c, 1, 64, 64
3, 2104, Note_off_c, 1, 64, 47
3, 2104, Note_on_c, 1, 67, 64
3, 2164, Note_off_c, 1, 67, 52
3, 2164, Note_on_c, 1, 65, 64
3, 2224, Note_off_c, 1, 65, 69
3, 2224, Note_on_c, 1, 64, 64
3, 2284, Note_off_c, 1, 64, 49
3, 2284, Note_on_c, 1, 62, 64
3, 2344, Note_off_c, 1, 62, 61
3, 2344, Note_on_c, 1, 60, 64
3, 2394, Note_off_c, 1, 60, 46
3, 2407, Note_on_c, 1, 60, 74
3, 2429, Note_off_c, 1, 60, 72
3, 2429, Note_on_c, 1, 59, 42
3, 2451, Note_off_c, 1, 59, 61
3, 2451, Note_on_c, 1, 60, 47
3, 2473, Note_off_c, 1, 60, 70
3, 2473, Note_on_c, 1, 59, 52
3, 2495, Note_off_c, 1, 59, 65
3, 2495, Note_on_c, 1, 60, 57
3, 2517, Note_off_c, 1, 60, 69
3, 2517, Note_on_c, 1, 59, 64
3, 2767, Note_off_c, 1, 59, 69
3, 2767, Note_on_c, 1, 60, 64
3, 2887, Note_off_c, 1, 60, 70
3, 2887, Note_on_c, 1, 58, 64
3, 3007, Note_off_c, 1, 58, 66
3, 3007, Note_on_c, 1, 57, 64
3, 3127, Note_off_c, 1, 57, 46
3, 3127, Note_on_c, 1, 58, 64
3, 3187, Note_off_c, 1, 58, 66
3, 3187, Note_on_c, 1, 57, 64
3, 3247, Note_off_c, 1, 57, 47
3, 3247, Note_on_c, 1, 55, 64
3, 3307, Note_off_c, 1, 55, 49
3, 3307, Note_on_c, 1, 57, 64
3, 3367, Note_off_c, 1, 57, 54
3, 3367, Note_on_c, 1, 58, 64
3, 3427, Note_off_c, 1, 58, 61
3, 3427, Note_on_c, 1, 60, 64
3, 3487, Note_off_c, 1, 60, 57
3, 3487, Note_on_c, 1, 57, 64
3, 3727, Note_off_c, 1, 57, 46
3, 3727, Note_on_c, 1, 62, 64
3, 3847, Note_off_c, 1, 62, 63
3, 3847, Note_on_c, 1, 64, 64
3, 3967, Note_off_c, 1, 64, 49
3, 3967, Note_on_c, 1, 67, 64
3, 4087, Note_off_c, 1, 67, 50
3, 4087, Note_on_c, 1, 60, 64
3, 4207, Note_off_c, 1, 60, 38
3, 4207, Note_on_c, 1, 60, 64
3, 4807, Note_off_c, 1, 60, 44
3, 4807, Note_on_c, 1, 65, 64
3, 4927, Note_off_c, 1, 65, 55
3, 4927, Note_on_c, 1, 64, 64
3, 5167, Note_off_c, 1, 64, 41
3, 5167, Note_on_c, 1, 69, 64
3, 5287, Note_off_c, 1, 69, 49
3, 5287, Note_on_c, 1, 67, 64
3, 5527, Note_off_c, 1, 67, 52
3, 5527, Note_on_c, 1, 72, 64
3, 5707, Note_off_c, 1, 72, 62
3, 5707, Note_on_c, 1, 72, 64
3, 5767, Note_off_c, 1, 72, 51
3, 5767, Note_on_c, 1, 71, 64
3, 5827, Note_off_c, 1, 71, 70
3, 5827, Note_on_c, 1, 69, 64
3, 5887, Note_off_c, 1, 69, 68
3, 5887, Note_on_c, 1, 67, 64
3, 5947, Note_off_c, 1, 67, 49
3, 5947, Note_on_c, 1, 65, 64
3, 6007, Note_off_c, 1, 65, 46
3, 6007, Note_on_c, 1, 64, 64
3, 6187, Note_off_c, 1, 64, 27
3, 6187, Note_on_c, 1, 70, 64
3, 6247, Note_off_c, 1, 70, 76
3, 6247, Note_on_c, 1, 69, 64
3, 6307, Note_off_c, 1, 69, 72
3, 6307, Note_on_c, 1, 67, 64
3, 6367, Note_off_c, 1, 67, 46
3, 6367, Note_on_c, 1, 65, 64
3, 6427, Note_off_c, 1, 65, 53
3, 6427, Note_on_c, 1, 64, 64
3, 6487, Note_off_c, 1, 64, 37
3, 6487, Note_on_c, 1, 62, 64
3, 6547, Note_off_c, 1, 62, 45
3, 6547, Note_on_c, 1, 64, 64
3, 6607, Note_off_c, 1, 64, 46
3, 6607, Note_on_c, 1, 65, 64
3, 6667, Note_off_c, 1, 65, 61
3, 6667, Note_on_c, 1, 67, 64
3, 6727, Note_off_c, 1, 67, 50
3, 6727, Note_on_c, 1, 69, 64
3, 6847, Note_off_c, 1, 69, 66
3, 7687, Note_on_c, 1, 65, 64
3, 7807, Note_off_c, 1, 65, 68
3, 7807, Note_on_c, 1, 69, 64
3, 7927, Note_off_c, 1, 69, 74
3, 7927, Note_on_c, 1, 67, 64
3, 8047, Note_off_c, 1, 67, 55
3, 8047, Note_on_c, 1, 65, 64
3, 8167, Note_off_c, 1, 65, 68
3, 8167, Note_on_c, 1, 67, 64
3, 8287, Note_off_c, 1, 67, 58
3, 8287, Note_on_c, 1, 59, 64
3, 8347, Note_off_c, 1, 59, 52
3, 8347, Note_on_c, 1, 60, 64
3, 8407, Note_off_c, 1, 60, 66
3, 8407, Note_on_c, 1, 62, 64
3, 8467, Note_off_c, 1, 62, 52
3, 8467, Note_on_c, 1, 64, 64
3, 8527, Note_off_c, 1, 64, 53
3, 8527, Note_on_c, 1, 65, 64
3, 8647, Note_off_c, 1, 65, 63
3, 8647, Note_on_c, 1, 67, 64
3, 8707, Note_off_c, 1, 67, 62
3, 8707, Note_on_c, 1, 65, 64
3, 8767, Note_off_c, 1, 65, 70
3, 8767, Note_on_c, 1, 64, 64
3, 8827, Note_off_c, 1, 64, 50
3, 8827, Note_on_c, 1, 62, 64
3, 8887, Note_off_c, 1, 62, 53
3, 8887, Note_on_c, 1, 64, 64
3, 8947, Note_off_c, 1, 64, 53
3, 8947, Note_on_c, 1, 62, 64
3, 9007, Note_off_c, 1, 62, 57
3, 9007, Note_on_c, 1, 60, 64
3, 9067, Note_off_c, 1, 60, 61
3, 9067, Note_on_c, 1, 62, 64
3, 9127, Note_off_c, 1, 62, 44
3, 9127, Note_on_c, 1, 64, 64
3, 9187, Note_off_c, 1, 64, 53
3, 9187, Note_on_c, 1, 60, 64
3, 9247, Note_off_c, 1, 60, 54
3, 9247, Note_on_c, 1, 62, 64
3, 9487, Note_off_c, 1, 62, 48
3, 9847, Note_on_c, 1, 72, 64
3, 9967, Note_off_c, 1, 72, 79
3, 9967, Note_on_c, 1, 74, 64
3, 10087, Note_off_c, 1, 74, 69
3, 10087, Note_on_c, 1, 72, 64
3, 10207, Note_off_c, 1, 72, 77
3, 10207, Note_on_c, 1, 70, 64
3, 10327, Note_off_c, 1, 70, 57
3, 10327, Note_on_c, 1, 72, 64
3, 10447, Note_off_c, 1, 72, 74
3, 10447, Note_on_c, 1, 64, 64
3, 10507, Note_off_c, 1, 64, 49
3, 10507, Note_on_c, 1, 65, 64
3, 10567, Note_off_c, 1, 65, 57
3, 10567, Note_on_c, 1, 67, 64
3, 10627, Note_off_c, 1, 67, 54
3, 10627, Note_on_c, 1, 69, 64
3, 10687, Note_off_c, 1, 69, 52
3, 10687, Note_on_c, 1, 70, 64
3, 10807, Note_off_c, 1, 70, 69
3, 10807, Note_on_c, 1, 72, 64
3, 10867, Note_off_c, 1, 72, 79
3, 10867, Note_on_c, 1, 70, 64
3, 10927, Note_off_c, 1, 70, 77
3, 10927, Note_on_c, 1, 69, 64
3, 10987, Note_off_c, 1, 69, 61
3, 10987, Note_on_c, 1, 67, 64
3, 11047, Note_off_c, 1, 67, 44
3, 11047, Note_on_c, 1, 69, 64
3, 11527, Note_off_c, 1, 69, 72
3, 11527, Note_on_c, 1, 70, 64
3, 11587, Note_off_c, 1, 70, 76
3, 11587, Note_on_c, 1, 69, 64
3, 11647, Note_off_c, 1, 69, 76
3, 11647, Note_on_c, 1, 67, 64
3, 11707, Note_off_c, 1, 67, 49
3, 11707, Note_on_c, 1, 65, 64
3, 11767, Note_off_c, 1, 65, 42
3, 11767, Note_on_c, 1, 67, 64
3, 12247, Note_off_c, 1, 67, 52
3, 12247, Note_on_c, 1, 69, 64
3, 12307, Note_off_c, 1, 69, 72
3, 12307, Note_on_c, 1, 67, 64
3, 12367, Note_off_c, 1, 67, 57
3, 12367, Note_on_c, 1, 65, 64
3, 12427, Note_off_c, 1, 65, 53
3, 12427, Note_on_c, 1, 64, 64
3, 12487, Note_off_c, 1, 64, 45
3, 12487, Note_on_c, 1, 65, 64
3, 12547, Note_off_c, 1, 65, 63
3, 12547, Note_on_c, 1, 64, 64
3, 12607, Note_off_c, 1, 64, 58
3, 12607, Note_on_c, 1, 65, 64
3, 12667, Note_off_c, 1, 65, 74
3, 12667, Note_on_c, 1, 67, 64
3, 12727, Note_off_c, 1, 67, 57
3, 12727, Note_on_c, 1, 69, 64
3, 12787, Note_off_c, 1, 69, 76
3, 12787, Note_on_c, 1, 67, 64
3, 12847, Note_off_c, 1, 67, 49
3, 12847, Note_on_c, 1, 69, 64
3, 12907, Note_off_c, 1, 69, 76
3, 12907, Note_on_c, 1, 70, 64
3, 12967, Note_off_c, 1, 70, 74
3, 12967, Note_on_c, 1, 69, 64
3, 13027, Note_off_c, 1, 69, 72
3, 13027, Note_on_c, 1, 67, 64
3, 13087, Note_off_c, 1, 67, 61
3, 13087, Note_on_c, 1, 65, 64
3, 13147, Note_off_c, 1, 65, 62
3, 13147, Note_on_c, 1, 64, 64
3, 13207, Note_off_c, 1, 64, 54
3, 13207, Note_on_c, 1, 62, 64
3, 13267, Note_off_c, 1, 62, 37
3, 13267, Note_on_c, 1, 61, 64
3, 13327, Note_off_c, 1, 61, 66
3, 13327, Note_on_c, 1, 62, 64
3, 13387, Note_off_c, 1, 62, 46
3, 13387, Note_on_c, 1, 65, 64
3, 13447, Note_off_c, 1, 65, 63
3, 13447, Note_on_c, 1, 64, 64
3, 13507, Note_off_c, 1, 64, 53
3, 13507, Note_on_c, 1, 62, 64
3, 13567, Note_off_c, 1, 62, 47
3, 13567, Note_on_c, 1, 61, 64
3, 13687, Note_off_c, 1, 61, 54
3, 13807, Note_on_c, 1, 69, 64
3, 13927, Note_off_c, 1, 69, 51
3, 13927, Note_on_c, 1, 70, 64
3, 14047, Note_off_c, 1, 70, 63
3, 14047, Note_on_c, 1, 69, 64
3, 14167, Note_off_c, 1, 69, 66
3, 14167, Note_on_c, 1, 67, 64
3, 14287, Note_off_c, 1, 67, 44
3, 14287, Note_on_c, 1, 69, 64
3, 14407, Note_off_c, 1, 69, 61
3, 14407, Note_on_c, 1, 61, 64
3, 14467, Note_off_c, 1, 61, 52
3, 14467, Note_on_c, 1, 62, 64
3, 14527, Note_off_c, 1, 62, 58
3, 14527, Note_on_c, 1, 64, 64
3, 14587, Note_off_c, 1, 64, 42
3, 14587, Note_on_c, 1, 65, 64
3, 14647, Note_off_c, 1, 65, 65
3, 14647, Note_on_c, 1, 67, 64
3, 14767, Note_off_c, 1, 67, 47
3, 14767, Note_on_c, 1, 69, 64
3, 14827, Note_off_c, 1, 69, 68
3, 14827, Note_on_c, 1, 67, 64
3, 14887, Note_off_c, 1, 67, 54
3, 14887, Note_on_c, 1, 65, 64
3, 14947, Note_off_c, 1, 65, 57
3, 14947, Note_on_c, 1, 64, 64
3, 15007, Note_off_c, 1, 64, 33
3, 15007, Note_on_c, 1, 65, 64
3, 15247, Note_off_c, 1, 65, 54
3, 15367, Note_on_c, 1, 61, 64
3, 15777, Note_off_c, 1, 61, 65
3, 15790, Note_on_c, 1, 57, 64
3, 15850, Note_off_c, 1, 57, 38
3, 15850, Note_on_c, 1, 59, 64
3, 15910, Note_off_c, 1, 59, 46
3, 15910, Note_on_c, 1, 61, 64
3, 15970, Note_off_c, 1, 61, 74
3, 15970, Note_on_c, 1, 62, 64
3, 16030, Note_off_c, 1, 62, 49
3, 16030, Note_on_c, 1, 64, 64
3, 16090, Note_off_c, 1, 64, 43
3, 16090, Note_on_c, 1, 65, 64
3, 16150, Note_off_c, 1, 65, 61
3, 16150, Note_on_c, 1, 64, 64
3, 16210, Note_off_c, 1, 64, 47
3, 16210, Note_on_c, 1, 61, 64
3, 16450, Note_off_c, 1, 61, 54
3, 16450, Note_on_c, 1, 62, 64
3, 16690, Note_off_c, 1, 62, 53
3, 17410, Note_on_c, 1, 62, 64
3, 17530, Note_off_c, 1, 62, 53
3, 17530, Note_on_c, 1, 63, 64
3, 17650, Note_off_c, 1, 63, 53
3, 17650, Note_on_c, 1, 62, 64
3, 17770, Note_off_c, 1, 62, 55
3, 17770, Note_on_c, 1, 60, 64
3, 17890, Note_off_c, 1, 60, 46
3, 17890, Note_on_c, 1, 62, 64
3, 18010, Note_off_c, 1, 62, 47
3, 18010, Note_on_c, 1, 54, 64
3, 18070, Note_off_c, 1, 54, 54
3, 18070, Note_on_c, 1, 55, 64
3, 18130, Note_off_c, 1, 55, 40
3, 18130, Note_on_c, 1, 57, 64
3, 18190, Note_off_c, 1, 57, 52
3, 18190, Note_on_c, 1, 58, 64
3, 18250, Note_off_c, 1, 58, 52
3, 18250, Note_on_c, 1, 60, 64
3, 18310, Note_off_c, 1, 60, 59
3, 18310, Note_on_c, 1, 58, 64
3, 18370, Note_off_c, 1, 58, 61
3, 18370, Note_on_c, 1, 62, 64
3, 18430, Note_off_c, 1, 62, 52
3, 18430, Note_on_c, 1, 60, 64
3, 18490, Note_off_c, 1, 60, 63
3, 18490, Note_on_c, 1, 58, 64
3, 18550, Note_off_c, 1, 58, 61
3, 18550, Note_on_c, 1, 57, 64
3, 18610, Note_off_c, 1, 57, 50
3, 18610, Note_on_c, 1, 58, 64
3, 18670, Note_off_c, 1, 58, 68
3, 18670, Note_on_c, 1, 62, 64
3, 18730, Note_off_c, 1, 62, 57
3, 18730, Note_on_c, 1, 60, 64
3, 18790, Note_off_c, 1, 60, 53
3, 18790, Note_on_c, 1, 58, 64
3, 18850, Note_off_c, 1, 58, 68
3, 18850, Note_on_c, 1, 57, 64
3, 18910, Note_off_c, 1, 57, 46
3, 18910, Note_on_c, 1, 55, 64
3, 18970, Note_off_c, 1, 55, 41
3, 18970, Note_on_c, 1, 54, 64
3, 19090, Note_off_c, 1, 54, 58
3, 19330, Note_on_c, 1, 55, 64
3, 19390, Note_off_c, 1, 55, 50
3, 19390, Note_on_c, 1, 57, 64
3, 19450, Note_off_c, 1, 57, 44
3, 19450, Note_on_c, 1, 58, 64
3, 19510, Note_off_c, 1, 58, 55
3, 19510, Note_on_c, 1, 60, 64
3, 19570, Note_off_c, 1, 60, 65
3, 19570, Note_on_c, 1, 62, 64
3, 19630, Note_off_c, 1, 62, 52
3, 19630, Note_on_c, 1, 57, 64
3, 19690, Note_off_c, 1, 57, 47
3, 19690, Note_on_c, 1, 58, 64
3, 19810, Note_off_c, 1, 58, 61
3, 19810, Note_on_c, 1, 55, 64
3, 19930, Note_off_c, 1, 55, 55
3, 19930, Note_on_c, 1, 54, 64
3, 20050, Note_off_c, 1, 54, 45
3, 20050, Note_on_c, 1, 55, 64
3, 20110, Note_off_c, 1, 55, 45
3, 20110, Note_on_c, 1, 62, 64
3, 20170, Note_off_c, 1, 62, 49
3, 20170, Note_on_c, 1, 67, 64
3, 20230, Note_off_c, 1, 67, 35
3, 20230, Note_on_c, 1, 65, 64
3, 20290, Note_off_c, 1, 65, 45
3, 20290, Note_on_c, 1, 63, 64
3, 20350, Note_off_c, 1, 63, 48
3, 20350, Note_on_c, 1, 62, 64
3, 20410, Note_off_c, 1, 62, 43
3, 20410, Note_on_c, 1, 63, 64
3, 20770, Note_off_c, 1, 63, 48
3, 20830, Note_on_c, 1, 60, 64
3, 20890, Note_off_c, 1, 60, 41
3, 20890, Note_on_c, 1, 65, 64
3, 20950, Note_off_c, 1, 65, 48
3, 20950, Note_on_c, 1, 63, 64
3, 21010, Note_off_c, 1, 63, 45
3, 21010, Note_on_c, 1, 62, 64
3, 21070, Note_off_c, 1, 62, 46
3, 21070, Note_on_c, 1, 60, 64
3, 21130, Note_off_c, 1, 60, 41
3, 21130, Note_on_c, 1, 62, 64
3, 21490, Note_off_c, 1, 62, 43
3, 21490, Note_on_c, 1, 60, 64
3, 21610, Note_off_c, 1, 60, 34
3, 21610, Note_on_c, 1, 62, 64
3, 21730, Note_off_c, 1, 62, 37
3, 21730, Note_on_c, 1, 63, 64
3, 21850, Note_off_c, 1, 63, 49
3, 21850, Note_on_c, 1, 65, 64
3, 21970, Note_off_c, 1, 65, 50
3, 21970, Note_on_c, 1, 67, 64
3, 22090, Note_off_c, 1, 67, 49
3, 22090, Note_on_c, 1, 69, 64
3, 22210, Note_off_c, 1, 69, 59
3, 22210, Note_on_c, 1, 70, 64
3, 22620, Note_off_c, 1, 70, 55
3, 22633, Note_on_c, 1, 67, 64
3, 22693, Note_off_c, 1, 67, 34
3, 22693, Note_on_c, 1, 72, 64
3, 22753, Note_off_c, 1, 72, 72
3, 22753, Note_on_c, 1, 70, 64
3, 22813, Note_off_c, 1, 70, 68
3, 22813, Note_on_c, 1, 69, 64
3, 22873, Note_off_c, 1, 69, 59
3, 22873, Note_on_c, 1, 67, 64
3, 22933, Note_off_c, 1, 67, 40
3, 22933, Note_on_c, 1, 69, 64
3, 23413, Note_off_c, 1, 69, 53
3, 23413, Note_on_c, 1, 62, 64
3, 23533, Note_off_c, 1, 62, 26
3, 23533, Note_on_c, 1, 67, 64
3, 23713, Note_off_c, 1, 67, 37
3, 23713, Note_on_c, 1, 65, 64
3, 23773, Note_off_c, 1, 65, 37
3, 23773, Note_on_c, 1, 70, 64
3, 23833, Note_off_c, 1, 70, 74
3, 23833, Note_on_c, 1, 69, 64
3, 23893, Note_off_c, 1, 69, 65
3, 23893, Note_on_c, 1, 67, 64
3, 23953, Note_off_c, 1, 67, 46
3, 23953, Note_on_c, 1, 65, 64
3, 24013, Note_off_c, 1, 65, 50
3, 24013, Note_on_c, 1, 67, 64
3, 24133, Note_off_c, 1, 67, 52
3, 24133, Note_on_c, 1, 58, 64
3, 24193, Note_off_c, 1, 58, 72
3, 24193, Note_on_c, 1, 60, 64
3, 24253, Note_off_c, 1, 60, 66
3, 24253, Note_on_c, 1, 62, 64
3, 24313, Note_off_c, 1, 62, 50
3, 24313, Note_on_c, 1, 64, 64
3, 24373, Note_off_c, 1, 64, 42
3, 24373, Note_on_c, 1, 65, 64
3, 24973, Note_off_c, 1, 65, 51
3, 24973, Note_on_c, 1, 58, 64
3, 25213, Note_off_c, 1, 58, 55
3, 25213, Note_on_c, 1, 64, 64
3, 25333, Note_off_c, 1, 64, 49
3, 25333, Note_on_c, 1, 65, 64
3, 25573, Note_off_c, 1, 65, 55
3, 25573, Note_on_c, 1, 64, 64
3, 25813, Note_off_c, 1, 64, 44
3, 25813, Note_on_c, 1, 65, 64
3, 26293, Note_off_c, 1, 65, 52
3, 26293, End_track
4, 0, Start_track
4, 0, Text_t, "LH L"
4, 3480, Note_on_c, 2, 48, 64
4, 3600, Note_off_c, 2, 48, 46
4, 3600, Note_on_c, 2, 50, 64
4, 3720, Note_off_c, 2, 50, 72
4, 3720, Note_on_c, 2, 48, 64
4, 3840, Note_off_c, 2, 48, 47
4, 3840, Note_on_c, 2, 46, 64
4, 3960, Note_off_c, 2, 46, 62
4, 3960, Note_on_c, 2, 48, 64
4, 4080, Note_off_c, 2, 48, 72
4, 4080, Note_on_c, 2, 40, 64
4, 4140, Note_off_c, 2, 40, 40
4, 4140, Note_on_c, 2, 41, 64
4, 4200, Note_off_c, 2, 41, 59
4, 4200, Note_on_c, 2, 43, 64
4, 4260, Note_off_c, 2, 43, 68
4, 4260, Note_on_c, 2, 45, 64
4, 4320, Note_off_c, 2, 45, 54
4, 4320, Note_on_c, 2, 46, 64
4, 4440, Note_off_c, 2, 46, 68
4, 4440, Note_on_c, 2, 48, 64
4, 4500, Note_off_c, 2, 48, 69
4, 4500, Note_on_c, 2, 46, 64
4, 4560, Note_off_c, 2, 46, 69
4, 4560, Note_on_c, 2, 45, 64
4, 4620, Note_off_c, 2, 45, 59
4, 4620, Note_on_c, 2, 43, 64
4, 4680, Note_off_c, 2, 43, 61
4, 4680, Note_on_c, 2, 45, 64
4, 4740, Note_off_c, 2, 45, 68
4, 4740, Note_on_c, 2, 43, 64
4, 4800, Note_off_c, 2, 43, 53
4, 4800, Note_on_c, 2, 41, 64
4, 4860, Note_off_c, 2, 41, 58
4, 4860, Note_on_c, 2, 43, 64
4, 4920, Note_off_c, 2, 43, 50
4, 4920, Note_on_c, 2, 45, 64
4, 4980, Note_off_c, 2, 45, 69
4, 4980, Note_on_c, 2, 46, 64
4, 5040, Note_off_c, 2, 46, 63
4, 5040, Note_on_c, 2, 48, 64
4, 5100, Note_off_c, 2, 48, 52
4, 5100, Note_on_c, 2, 47, 64
4, 5160, Note_off_c, 2, 47, 57
4, 5160, Note_on_c, 2, 45, 64
4, 5220, Note_off_c, 2, 45, 48
4, 5220, Note_on_c, 2, 47, 64
4, 5280, Note_off_c, 2, 47, 70
4, 5280, Note_on_c, 2, 48, 64
4, 5340, Note_off_c, 2, 48, 65
4, 5340, Note_on_c, 2, 50, 64
4, 5400, Note_off_c, 2, 50, 73
4, 5400, Note_on_c, 2, 52, 64
4, 5460, Note_off_c, 2, 52, 62
4, 5460, Note_on_c, 2, 55, 64
4, 5520, Note_off_c, 2, 55, 74
4, 5520, Note_on_c, 2, 53, 64
4, 5580, Note_off_c, 2, 53, 63
4, 5580, Note_on_c, 2, 52, 64
4, 5640, Note_off_c, 2, 52, 70
4, 5640, Note_on_c, 2, 50, 64
4, 5700, Note_off_c, 2, 50, 59
4, 5700, Note_on_c, 2, 48, 64
4, 5760, Note_off_c, 2, 48, 29
4, 5760, Note_on_c, 2, 48, 76
4, 5782, Note_off_c, 2, 48, 52
4, 5782, Note_on_c, 2, 47, 42
4, 5804, Note_off_c, 2, 47, 57
4, 5804, Note_on_c, 2, 48, 47
4, 5826, Note_off_c, 2, 48, 66
4, 5826, Note_on_c, 2, 47, 53
4, 5848, Note_off_c, 2, 47, 49
4, 5848, Note_on_c, 2, 48, 58
4, 5870, Note_off_c, 2, 48, 57
4, 5870, Note_on_c, 2, 47, 64
4, 6120, Note_off_c, 2, 47, 30
4, 6120, Note_on_c, 2, 48, 64
4, 6240, Note_off_c, 2, 48, 36
4, 6240, Note_on_c, 2, 50, 64
4, 6300, Note_off_c, 2, 50, 58
4, 6300, Note_on_c, 2, 52, 64
4, 6360, Note_off_c, 2, 52, 66
4, 6360, Note_on_c, 2, 53, 64
4, 6480, Note_off_c, 2, 53, 62
4, 6480, Note_on_c, 2, 58, 64
4, 6840, Note_off_c, 2, 58, 61
4, 6840, Note_on_c, 2, 57, 64
4, 6900, Note_off_c, 2, 57, 65
4, 6900, Note_on_c, 2, 60, 64
4, 6960, Note_off_c, 2, 60, 72
4, 6960, Note_on_c, 2, 58, 64
4, 7020, Note_off_c, 2, 58, 72
4, 7020, Note_on_c, 2, 57, 64
4, 7080, Note_off_c, 2, 57, 61
4, 7080, Note_on_c, 2, 55, 64
4, 7140, Note_off_c, 2, 55, 42
4, 7140, Note_on_c, 2, 53, 64
4, 7190, Note_off_c, 2, 53, 48
4, 7203, Note_on_c, 2, 53, 74
4, 7225, Note_off_c, 2, 53, 73
4, 7225, Note_on_c, 2, 52, 40
4, 7247, Note_off_c, 2, 52, 63
4, 7247, Note_on_c, 2, 53, 46
4, 7269, Note_off_c, 2, 53, 63
4, 7269, Note_on_c, 2, 52, 52
4, 7291, Note_off_c, 2, 52, 70
4, 7291, Note_on_c, 2, 53, 59
4, 7313, Note_off_c, 2, 53, 74
4, 7313, Note_on_c, 2, 52, 64
4, 7563, Note_off_c, 2, 52, 43
4, 7563, Note_on_c, 2, 53, 64
4, 7803, Note_off_c, 2, 53, 53
4, 9243, Note_on_c, 2, 60, 64
4, 9363, Note_off_c, 2, 60, 52
4, 9363, Note_on_c, 2, 62, 64
4, 9483, Note_off_c, 2, 62, 53
4, 9483, Note_on_c, 2, 60, 64
4, 9603, Note_off_c, 2, 60, 69
4, 9603, Note_on_c, 2, 58, 64
4, 9723, Note_off_c, 2, 58, 68
4, 9723, Note_on_c, 2, 60, 64
4, 9843, Note_off_c, 2, 60, 70
4, 9843, Note_on_c, 2, 52, 64
4, 9903, Note_off_c, 2, 52, 57
4, 9903, Note_on_c, 2, 53, 64
4, 9963, Note_off_c, 2, 53, 52
4, 9963, Note_on_c, 2, 55, 64
4, 10023, Note_off_c, 2, 55, 72
4, 10023, Note_on_c, 2, 57, 64
4, 10083, Note_off_c, 2, 57, 49
4, 10083, Note_on_c, 2, 58, 64
4, 10203, Note_off_c, 2, 58, 70
4, 10203, Note_on_c, 2, 60, 64
4, 10263, Note_off_c, 2, 60, 65
4, 10263, Note_on_c, 2, 58, 64
4, 10323, Note_off_c, 2, 58, 69
4, 10323, Note_on_c, 2, 57, 64
4, 10383, Note_off_c, 2, 57, 51
4, 10383, Note_on_c, 2, 55, 64
4, 10443, Note_off_c, 2, 55, 59
4, 10443, Note_on_c, 2, 57, 64
4, 10503, Note_off_c, 2, 57, 59
4, 10503, Note_on_c, 2, 60, 64
4, 10563, Note_off_c, 2, 60, 51
4, 10563, Note_on_c, 2, 58, 64
4, 10623, Note_off_c, 2, 58, 72
4, 10623, Note_on_c, 2, 57, 64
4, 10683, Note_off_c, 2, 57, 57
4, 10683, Note_on_c, 2, 55, 64
4, 10743, Note_off_c, 2, 55, 55
4, 10743, Note_on_c, 2, 53, 64
4, 10793, Note_off_c, 2, 53, 48
4, 10806, Note_on_c, 2, 53, 75
4, 10828, Note_off_c, 2, 53, 72
4, 10828, Note_on_c, 2, 52, 41
4, 10850, Note_off_c, 2, 52, 79
4, 10850, Note_on_c, 2, 53, 47
4, 10872, Note_off_c, 2, 53, 72
4, 10872, Note_on_c, 2, 52, 53
4, 10894, Note_off_c, 2, 52, 72
4, 10894, Note_on_c, 2, 53, 59
4, 10916, Note_off_c, 2, 53, 72
4, 10916, Note_on_c, 2, 52, 64
4, 11166, Note_off_c, 2, 52, 49
4, 11166, Note_on_c, 2, 53, 64
4, 11286, Note_off_c, 2, 53, 49
4, 11286, Note_on_c, 2, 55, 64
4, 11406, Note_off_c, 2, 55, 53
4, 11406, Note_on_c, 2, 57, 64
4, 11526, Note_off_c, 2, 57, 43
4, 11526, Note_on_c, 2, 50, 64
4, 11766, Note_off_c, 2, 50, 40
4, 11886, Note_on_c, 2, 52, 64
4, 12006, Note_off_c, 2, 52, 46
4, 12006, Note_on_c, 2, 53, 64
4, 12126, Note_off_c, 2, 53, 66
4, 12126, Note_on_c, 2, 55, 64
4, 12246, Note_off_c, 2, 55, 55
4, 12246, Note_on_c, 2, 49, 64
4, 12486, Note_off_c, 2, 49, 42
4, 12486, Note_on_c, 2, 61, 64
4, 12606, Note_off_c, 2, 61, 66
4, 12606, Note_on_c, 2, 62, 64
4, 12726, Note_off_c, 2, 62, 54
4, 12726, Note_on_c, 2, 60, 64
4, 12846, Note_off_c, 2, 60, 70
4, 12846, Note_on_c, 2, 58, 64
4, 12966, Note_off_c, 2, 58, 57
4, 12966, Note_on_c, 2, 57, 64
4, 14646, Note_off_c, 2, 57, 53
4, 14646, Note_on_c, 2, 57, 64
4, 14766, Note_off_c, 2, 57, 61
4, 14766, Note_on_c, 2, 58, 64
4, 14886, Note_off_c, 2, 58, 65
4, 14886, Note_on_c, 2, 57, 64
4, 15006, Note_off_c, 2, 57, 51
4, 15006, Note_on_c, 2, 55, 64
4, 15126, Note_off_c, 2, 55, 40
4, 15126, Note_on_c, 2, 57, 64
4, 15246, Note_off_c, 2, 57, 52
4, 15246, Note_on_c, 2, 49, 64
4, 15306, Note_off_c, 2, 49, 39
4, 15306, Note_on_c, 2, 50, 64
4, 15366, Note_off_c, 2, 50, 37
4, 15366, Note_on_c, 2, 52, 64
4, 15426, Note_off_c, 2, 52, 55
4, 15426, Note_on_c, 2, 53, 64
4, 15486, Note_off_c, 2, 53, 65
4, 15486, Note_on_c, 2, 55, 64
4, 15606, Note_off_c, 2, 55, 53
4, 15606, Note_on_c, 2, 57, 64
4, 15666, Note_off_c, 2, 57, 65
4, 15666, Note_on_c, 2, 55, 64
4, 15726, Note_off_c, 2, 55, 73
4, 15726, Note_on_c, 2, 53, 64
4, 15786, Note_off_c, 2, 53, 52
4, 15786, Note_on_c, 2, 52, 64
4, 15846, Note_off_c, 2, 52, 43
4, 15846, Note_on_c, 2, 53, 64
4, 16026, Note_off_c, 2, 53, 62
4, 16026, Note_on_c, 2, 55, 64
4, 16086, Note_off_c, 2, 55, 68
4, 16086, Note_on_c, 2, 53, 64
4, 16146, Note_off_c, 2, 53, 62
4, 16146, Note_on_c, 2, 52, 64
4, 16206, Note_off_c, 2, 52, 46
4, 16206, Note_on_c, 2, 50, 64
4, 16266, Note_off_c, 2, 50, 44
4, 16266, Note_on_c, 2, 55, 64
4, 16326, Note_off_c, 2, 55, 66
4, 16326, Note_on_c, 2, 57, 64
4, 16446, Note_off_c, 2, 57, 68
4, 16446, Note_on_c, 2, 45, 64
4, 16566, Note_off_c, 2, 45, 41
4, 16566, Note_on_c, 2, 38, 64
4, 16806, Note_off_c, 2, 38, 4
4, 16806, Note_on_c, 2, 50, 64
4, 16926, Note_off_c, 2, 50, 74
4, 16926, Note_on_c, 2, 51, 64
4, 17046, Note_off_c, 2, 51, 69
4, 17046, Note_on_c, 2, 50, 64
4, 17166, Note_off_c, 2, 50, 73
4, 17166, Note_on_c, 2, 48, 64
4, 17286, Note_off_c, 2, 48, 66
4, 17286, Note_on_c, 2, 50, 64
4, 17406, Note_off_c, 2, 50, 62
4, 17406, Note_on_c, 2, 42, 64
4, 17466, Note_off_c, 2, 42, 58
4, 17466, Note_on_c, 2, 43, 64
4, 17526, Note_off_c, 2, 43, 41
4, 17526, Note_on_c, 2, 45, 64
4, 17586, Note_off_c, 2, 45, 51
4, 17586, Note_on_c, 2, 46, 64
4, 17646, Note_off_c, 2, 46, 59
4, 17646, Note_on_c, 2, 48, 64
4, 17706, Note_off_c, 2, 48, 62
4, 17706, Note_on_c, 2, 46, 64
4, 17766, Note_off_c, 2, 46, 65
4, 17766, Note_on_c, 2, 50, 64
4, 17826, Note_off_c, 2, 50, 53
4, 17826, Note_on_c, 2, 48, 64
4, 17886, Note_off_c, 2, 48, 54
4, 17886, Note_on_c, 2, 46, 64
4, 17946, Note_off_c, 2, 46, 59
4, 17946, Note_on_c, 2, 45, 64
4, 18006, Note_off_c, 2, 45, 54
4, 18006, Note_on_c, 2, 46, 64
4, 18126, Note_off_c, 2, 46, 42
4, 18366, Note_on_c, 2, 54, 64
4, 18486, Note_off_c, 2, 54, 65
4, 18726, Note_on_c, 2, 55, 64
4, 18846, Note_off_c, 2, 55, 68
4, 19086, Note_on_c, 2, 51, 64
4, 19206, Note_off_c, 2, 51, 62
4, 19446, Note_on_c, 2, 50, 64
4, 19566, Note_off_c, 2, 50, 66
4, 19866, Note_on_c, 2, 48, 64
4, 19926, Note_off_c, 2, 48, 43
4, 19926, Note_on_c, 2, 50, 64
4, 20046, Note_off_c, 2, 50, 63
4, 20046, Note_on_c, 2, 50, 64
4, 20166, Note_off_c, 2, 50, 63
4, 20166, Note_on_c, 2, 43, 64
4, 20286, Note_off_c, 2, 43, 52
4, 20286, Note_on_c, 2, 45, 64
4, 20406, Note_off_c, 2, 45, 70
4, 20406, Note_on_c, 2, 46, 64
4, 20526, Note_off_c, 2, 46, 69
4, 20526, Note_on_c, 2, 48, 64
4, 20646, Note_off_c, 2, 48, 44
4, 20646, Note_on_c, 2, 50, 64
4, 20766, Note_off_c, 2, 50, 65
4, 20766, Note_on_c, 2, 52, 64
4, 20886, Note_off_c, 2, 52, 72
4, 20886, Note_on_c, 2, 53, 64
4, 21006, Note_off_c, 2, 53, 65
4, 21006, Note_on_c, 2, 55, 64
4, 21126, Note_off_c, 2, 55, 63
4, 21126, Note_on_c, 2, 57, 64
4, 21246, Note_off_c, 2, 57, 55
4, 21246, Note_on_c, 2, 58, 64
4, 21666, Note_off_c, 2, 58, 61
4, 21666, Note_on_c, 2, 55, 64
4, 21726, Note_off_c, 2, 55, 51
4, 21726, Note_on_c, 2, 60, 64
4, 21786, Note_off_c, 2, 60, 69
4, 21786, Note_on_c, 2, 58, 64
4, 21846, Note_off_c, 2, 58, 55
4, 21846, Note_on_c, 2, 57, 64
4, 21906, Note_off_c, 2, 57, 52
4, 21906, Note_on_c, 2, 55, 64
4, 21966, Note_off_c, 2, 55, 12
4, 21966, Note_on_c, 2, 53, 64
4, 22026, Note_off_c, 2, 53, 63
4, 22026, Note_on_c, 2, 48, 64
4, 22086, Note_off_c, 2, 48, 47
4, 22086, Note_on_c, 2, 53, 64
4, 22146, Note_off_c, 2, 53, 63
4, 22146, Note_on_c, 2, 51, 64
4, 22206, Note_off_c, 2, 51, 69
4, 22206, Note_on_c, 2, 50, 64
4, 22266, Note_off_c, 2, 50, 61
4, 22266, Note_on_c, 2, 48, 64
4, 22326, Note_off_c, 2, 48, 49
4, 22326, Note_on_c, 2, 46, 64
4, 22386, Note_off_c, 2, 46, 58
4, 22386, Note_on_c, 2, 48, 64
4, 22446, Note_off_c, 2, 48, 61
4, 22446, Note_on_c, 2, 46, 64
4, 22506, Note_off_c, 2, 46, 63
4, 22506, Note_on_c, 2, 45, 64
4, 22566, Note_off_c, 2, 45, 55
4, 22566, Note_on_c, 2, 43, 64
4, 22626, Note_off_c, 2, 43, 40
4, 22626, Note_on_c, 2, 41, 64
4, 22686, Note_off_c, 2, 41, 55
4, 22686, Note_on_c, 2, 40, 64
4, 22926, Note_off_c, 2, 40, 45
4, 23046, Note_on_c, 2, 41, 64
4, 23166, Note_off_c, 2, 41, 43
4, 23166, Note_on_c, 2, 43, 64
4, 23286, Note_off_c, 2, 43, 68
4, 23286, Note_on_c, 2, 45, 64
4, 23406, Note_off_c, 2, 45, 59
4, 23406, Note_on_c, 2, 46, 64
4, 23646, Note_off_c, 2, 46, 55
4, 23766, Note_on_c, 2, 45, 64
4, 24006, Note_off_c, 2, 45, 57
4, 24126, Note_on_c, 2, 43, 64
4, 24366, Note_off_c, 2, 43, 47
4, 24486, Note_on_c, 2, 41, 64
4, 24606, Note_off_c, 2, 41, 37
4, 24606, Note_on_c, 2, 43, 64
4, 24726, Note_off_c, 2, 43, 53
4, 24726, Note_on_c, 2, 45, 64
4, 24846, Note_off_c, 2, 45, 70
4, 24846, Note_on_c, 2, 46, 64
4, 24966, Note_off_c, 2, 46, 59
4, 24966, Note_on_c, 2, 48, 64
4, 25086, Note_off_c, 2, 48, 48
4, 25086, Note_on_c, 2, 50, 64
4, 25206, Note_off_c, 2, 50, 57
4, 25206, Note_on_c, 2, 52, 64
4, 25326, Note_off_c, 2, 52, 73
4, 25326, Note_on_c, 2, 48, 64
4, 25446, Note_off_c, 2, 48, 37
4, 25446, Note_on_c, 2, 53, 64
4, 25566, Note_off_c, 2, 53, 73
4, 25566, Note_on_c, 2, 46, 64
4, 25686, Note_off_c, 2, 46, 62
4, 25686, Note_on_c, 2, 48, 64
4, 25806, Note_off_c, 2, 48, 73
4, 25806, Note_on_c, 2, 36, 64
4, 25926, Note_off_c, 2, 36, 43
4, 25926, Note_on_c, 2, 41, 64
4, 26406, Note_off_c, 2, 41, 66
4, 26406, End_track
0, 0, End_of_file
