0, 0, Header, 1, 6, 240
1, 0, Start_track
1, 0, Time_signature, 2, 1, 48, 8
1, 0, Tempo, 416667
1, 107760, Tempo, 428571
1, 108000, Tempo, 437956
1, 108240, Tempo, 454545
1, 108480, Tempo, 468750
1, 108720, Tempo, 483871
1, 108960, Tempo, 517241
1, 109200, Tempo, 576923
1, 109440, Tempo, 631579
1, 109440, End_track
2, 0, Start_track
2, 0, Text_t, "RH H"
2, 12960, Note_on_c, 0, 73, 64
2, 13440, Note_off_c, 0, 73, 79
2, 13440, Note_on_c, 0, 72, 64
2, 13920, Note_off_c, 0, 72, 73
2, 13920, Note_on_c, 0, 76, 64
2, 14400, Note_off_c, 0, 76, 63
2, 14400, Note_on_c, 0, 75, 64
2, 15360, Note_off_c, 0, 75, 65
2, 15360, Note_on_c, 0, 73, 64
2, 16080, Note_off_c, 0, 73, 73
2, 16080, Note_on_c, 0, 75, 64
2, 16320, Note_off_c, 0, 75, 68
2, 16320, Note_on_c, 0, 76, 64
2, 16560, Note_off_c, 0, 76, 61
2, 16560, Note_on_c, 0, 75, 64
2, 16800, Note_off_c, 0, 75, 62
2, 16800, Note_on_c, 0, 73, 64
2, 17280, Note_off_c, 0, 73, 80
2, 17280, Note_on_c, 0, 71, 64
2, 17760, Note_off_c, 0, 71, 79
2, 17760, Note_on_c, 0, 73, 64
2, 18240, Note_off_c, 0, 73, 79
2, 18240, Note_on_c, 0, 75, 64
2, 18720, Note_off_c, 0, 75, 74
2, 19440, Note_on_c, 0, 76, 64
2, 19680, Note_off_c, 0, 76, 53
2, 19680, Note_on_c, 0, 75, 64
2, 19920, Note_off_c, 0, 75, 66
2, 19920, Note_on_c, 0, 73, 64
2, 20160, Note_off_c, 0, 73, 80
2, 20160, Note_on_c, 0, 71, 64
2, 20400, Note_off_c, 0, 71, 58
2, 20400, Note_on_c, 0, 75, 64
2, 20640, Note_off_c, 0, 75, 66
2, 20640, Note_on_c, 0, 80, 64
2, 21360, Note_off_c, 0, 80, 77
2, 21360, Note_on_c, 0, 78, 64
2, 21600, Note_off_c, 0, 78, 73
2, 21600, Note_on_c, 0, 80, 64
2, 21840, Note_off_c, 0, 80, 76
2, 21840, Note_on_c, 0, 81, 64
2, 22080, Note_off_c, 0, 81, 72
2, 22080, Note_on_c, 0, 83, 64
2, 23280, Note_off_c, 0, 83, 46
2, 23280, Note_on_c, 0, 81, 64
2, 23520, Note_off_c, 0, 81, 68
2, 23520, Note_on_c, 0, 80, 64
2, 23760, Note_off_c, 0, 80, 82
2, 23760, Note_on_c, 0, 78, 64
2, 24000, Note_off_c, 0, 78, 77
2, 24000, Note_on_c, 0, 80, 64
2, 24120, Note_off_c, 0, 80, 70
2, 24120, Note_on_c, 0, 78, 64
2, 24240, Note_off_c, 0, 78, 76
2, 24240, Note_on_c, 0, 76, 64
2, 24360, Note_off_c, 0, 76, 21
2, 24360, Note_on_c, 0, 75, 64
2, 24480, Note_off_c, 0, 75, 1
2, 24480, Note_on_c, 0, 73, 64
2, 25440, Note_off_c, 0, 73, 76
2, 25440, Note_on_c, 0, 71, 64
2, 26160, Note_off_c, 0, 71, 83
2, 26160, Note_on_c, 0, 73, 64
2, 26400, Note_off_c, 0, 73, 76
2, 26400, Note_on_c, 0, 71, 64
2, 26640, Note_off_c, 0, 71, 76
2, 26640, Note_on_c, 0, 69, 64
2, 26880, Note_off_c, 0, 69, 55
2, 26880, Note_on_c, 0, 68, 64
2, 27360, Note_off_c, 0, 68, 85
2, 27360, Note_on_c, 0, 70, 64
2, 27600, Note_off_c, 0, 70, 82
2, 27600, Note_on_c, 0, 71, 64
2, 27840, Note_off_c, 0, 71, 79
2, 27840, Note_on_c, 0, 73, 64
2, 28320, Note_off_c, 0, 73, 73
2, 28320, Note_on_c, 0, 71, 64
2, 29280, Note_off_c, 0, 71, 83
2, 29280, Note_on_c, 0, 70, 64
2, 29760, Note_off_c, 0, 70, 80
2, 29760, Note_on_c, 0, 71, 64
2, 30960, Note_off_c, 0, 71, 66
2, 30960, Note_on_c, 0, 73, 64
2, 31200, Note_off_c, 0, 73, 69
2, 31200, Note_on_c, 0, 75, 64
2, 31440, Note_off_c, 0, 75, 66
2, 31440, Note_on_c, 0, 76, 64
2, 32160, Note_off_c, 0, 76, 66
2, 32160, Note_on_c, 0, 75, 64
2, 32640, Note_off_c, 0, 75, 12
2, 32640, Note_on_c, 0, 76, 64
2, 32880, Note_off_c, 0, 76, 68
2, 32880, Note_on_c, 0, 75, 64
2, 33120, Note_off_c, 0, 75, 69
2, 33120, Note_on_c, 0, 76, 64
2, 33360, Note_off_c, 0, 76, 46
2, 33360, Note_on_c, 0, 78, 64
2, 33600, Note_off_c, 0, 78, 66
2, 33600, Note_on_c, 0, 80, 64
2, 33720, Note_off_c, 0, 80, 73
2, 33720, Note_on_c, 0, 78, 64
2, 33840, Note_off_c, 0, 78, 62
2, 33840, Note_on_c, 0, 80, 64
2, 33960, Note_off_c, 0, 80, 77
2, 33960, Note_on_c, 0, 81, 64
2, 34080, Note_off_c, 0, 81, 59
2, 34080, Note_on_c, 0, 80, 64
2, 34200, Note_off_c, 0, 80, 72
2, 34200, Note_on_c, 0, 78, 64
2, 34320, Note_off_c, 0, 78, 76
2, 34320, Note_on_c, 0, 76, 64
2, 34440, Note_off_c, 0, 76, 49
2, 34440, Note_on_c, 0, 80, 64
2, 34560, Note_off_c, 0, 80, 72
2, 34560, Note_on_c, 0, 78, 64
2, 34680, Note_off_c, 0, 78, 70
2, 34680, Note_on_c, 0, 76, 64
2, 34800, Note_off_c, 0, 76, 32
2, 34800, Note_on_c, 0, 78, 64
2, 34920, Note_off_c, 0, 78, 68
2, 34920, Note_on_c, 0, 80, 64
2, 35040, Note_off_c, 0, 80, 65
2, 35040, Note_on_c, 0, 78, 64
2, 35160, Note_off_c, 0, 78, 72
2, 35160, Note_on_c, 0, 76, 64
2, 35280, Note_off_c, 0, 76, 47
2, 35280, Note_on_c, 0, 75, 64
2, 35400, Note_off_c, 0, 75, 49
2, 35400, Note_on_c, 0, 78, 64
2, 35520, Note_off_c, 0, 78, 58
2, 35520, Note_on_c, 0, 76, 64
2, 35640, Note_off_c, 0, 76, 41
2, 35640, Note_on_c, 0, 75, 64
2, 35760, Note_off_c, 0, 75, 49
2, 35760, Note_on_c, 0, 76, 64
2, 35880, Note_off_c, 0, 76, 49
2, 35880, Note_on_c, 0, 78, 64
2, 36000, Note_off_c, 0, 78, 74
2, 36000, Note_on_c, 0, 76, 64
2, 36120, Note_off_c, 0, 76, 38
2, 36120, Note_on_c, 0, 75, 64
2, 36240, Note_off_c, 0, 75, 50
2, 36240, Note_on_c, 0, 73, 64
2, 36360, Note_off_c, 0, 73, 70
2, 36360, Note_on_c, 0, 76, 64
2, 36480, Note_off_c, 0, 76, 52
2, 36480, Note_on_c, 0, 75, 64
2, 36600, Note_off_c, 0, 75, 53
2, 36600, Note_on_c, 0, 73, 64
2, 36720, Note_off_c, 0, 73, 66
2, 36720, Note_on_c, 0, 75, 64
2, 36840, Note_off_c, 0, 75, 52
2, 36840, Note_on_c, 0, 76, 64
2, 36960, Note_off_c, 0, 76, 46
2, 36960, Note_on_c, 0, 75, 64
2, 37080, Note_off_c, 0, 75, 50
2, 37080, Note_on_c, 0, 73, 64
2, 37200, Note_off_c, 0, 73, 63
2, 37200, Note_on_c, 0, 71, 64
2, 37320, Note_off_c, 0, 71, 65
2, 37320, Note_on_c, 0, 75, 64
2, 37440, Note_off_c, 0, 75, 52
2, 37440, Note_on_c, 0, 73, 64
2, 37560, Note_off_c, 0, 73, 59
2, 37560, Note_on_c, 0, 71, 64
2, 37680, Note_off_c, 0, 71, 49
2, 37680, Note_on_c, 0, 73, 64
2, 37800, Note_off_c, 0, 73, 70
2, 37800, Note_on_c, 0, 75, 64
2, 37920, Note_off_c, 0, 75, 46
2, 37920, Note_on_c, 0, 73, 64
2, 38040, Note_off_c, 0, 73, 72
2, 38040, Note_on_c, 0, 71, 64
2, 38160, Note_off_c, 0, 71, 49
2, 38160, Note_on_c, 0, 70, 64
2, 38280, Note_off_c, 0, 70, 62
2, 38280, Note_on_c, 0, 73, 64
2, 38400, Note_off_c, 0, 73, 76
2, 38400, Note_on_c, 0, 71, 64
2, 39000, Note_off_c, 0, 71, 49
2, 39000, Note_on_c, 0, 73, 64
2, 39120, Note_off_c, 0, 73, 65
2, 39120, Note_on_c, 0, 75, 64
2, 39240, Note_off_c, 0, 75, 62
2, 39240, Note_on_c, 0, 71, 64
2, 39360, Note_off_c, 0, 71, 72
2, 39360, Note_on_c, 0, 73, 64
2, 40080, Note_off_c, 0, 73, 80
2, 40080, Note_on_c, 0, 76, 64
2, 40320, Note_off_c, 0, 76, 62
2, 40320, Note_on_c, 0, 75, 64
2, 41040, Note_off_c, 0, 75, 68
2, 41040, Note_on_c, 0, 78, 64
2, 41280, Note_off_c, 0, 78, 66
2, 41280, Note_on_c, 0, 76, 64
2, 42480, Note_off_c, 0, 76, 66
2, 42480, Note_on_c, 0, 75, 64
2, 42960, Note_off_c, 0, 75, 68
2, 42960, Note_on_c, 0, 73, 64
2, 43440, Note_off_c, 0, 73, 1
2, 43440, Note_on_c, 0, 72, 64
2, 43560, Note_off_c, 0, 72, 83
2, 43560, Note_on_c, 0, 70, 64
2, 43680, Note_off_c, 0, 70, 66
2, 43680, Note_on_c, 0, 72, 64
2, 43920, Note_off_c, 0, 72, 74
2, 43920, Note_on_c, 0, 75, 64
2, 44160, Note_off_c, 0, 75, 69
2, 44160, Note_on_c, 0, 80, 64
2, 44280, Note_off_c, 0, 80, 82
2, 44280, Note_on_c, 0, 78, 64
2, 44400, Note_off_c, 0, 78, 66
2, 44400, Note_on_c, 0, 80, 64
2, 44520, Note_off_c, 0, 80, 68
2, 44520, Note_on_c, 0, 81, 64
2, 44640, Note_off_c, 0, 81, 52
2, 44640, Note_on_c, 0, 80, 64
2, 44760, Note_off_c, 0, 80, 62
2, 44760, Note_on_c, 0, 78, 64
2, 44880, Note_off_c, 0, 78, 59
2, 44880, Note_on_c, 0, 76, 64
2, 45000, Note_off_c, 0, 76, 55
2, 45000, Note_on_c, 0, 80, 64
2, 45120, Note_off_c, 0, 80, 69
2, 45120, Note_on_c, 0, 78, 64
2, 45240, Note_off_c, 0, 78, 72
2, 45240, Note_on_c, 0, 76, 64
2, 45360, Note_off_c, 0, 76, 40
2, 45360, Note_on_c, 0, 78, 64
2, 45480, Note_off_c, 0, 78, 57
2, 45480, Note_on_c, 0, 80, 64
2, 45600, Note_off_c, 0, 80, 59
2, 45600, Note_on_c, 0, 78, 64
2, 45720, Note_off_c, 0, 78, 73
2, 45720, Note_on_c, 0, 76, 64
2, 45840, Note_off_c, 0, 76, 40
2, 45840, Note_on_c, 0, 75, 64
2, 45960, Note_off_c, 0, 75, 54
2, 45960, Note_on_c, 0, 78, 64
2, 46080, Note_off_c, 0, 78, 74
2, 46080, Note_on_c, 0, 77, 64
2, 46560, Note_off_c, 0, 77, 77
2, 46560, Note_on_c, 0, 81, 64
2, 47040, Note_off_c, 0, 81, 70
2, 47040, Note_on_c, 0, 80, 64
2, 48240, Note_off_c, 0, 80, 79
2, 48240, Note_on_c, 0, 78, 64
2, 48360, Note_off_c, 0, 78, 68
2, 48360, Note_on_c, 0, 76, 64
2, 48480, Note_off_c, 0, 76, 54
2, 48480, Note_on_c, 0, 74, 64
2, 48960, Note_off_c, 0, 74, 79
2, 49200, Note_on_c, 0, 73, 64
2, 49440, Note_off_c, 0, 73, 77
2, 49440, Note_on_c, 0, 78, 64
2, 49670, Note_off_c, 0, 78, 73
2, 49683, Note_on_c, 0, 78, 64
2, 49913, Note_off_c, 0, 78, 70
2, 49926, Note_on_c, 0, 78, 64
2, 50166, Note_off_c, 0, 78, 65
2, 50166, Note_on_c, 0, 76, 64
2, 50286, Note_off_c, 0, 76, 49
2, 50286, Note_on_c, 0, 74, 64
2, 50406, Note_off_c, 0, 74, 77
2, 50406, Note_on_c, 0, 76, 64
2, 51126, Note_off_c, 0, 76, 62
2, 51126, Note_on_c, 0, 74, 64
2, 51246, Note_off_c, 0, 74, 59
2, 51246, Note_on_c, 0, 73, 64
2, 51366, Note_off_c, 0, 73, 77
2, 51366, Note_on_c, 0, 74, 64
2, 52326, Note_off_c, 0, 74, 73
2, 52326, Note_on_c, 0, 73, 64
2, 52806, Note_off_c, 0, 73, 76
2, 52806, Note_on_c, 0, 78, 64
2, 53286, Note_off_c, 0, 78, 39
2, 53286, Note_on_c, 0, 76, 64
2, 54126, Note_off_c, 0, 76, 51
2, 54126, Note_on_c, 0, 78, 64
2, 54246, Note_off_c, 0, 78, 68
2, 54246, Note_on_c, 0, 76, 64
2, 54366, Note_off_c, 0, 76, 65
2, 54366, Note_on_c, 0, 74, 64
2, 54486, Note_off_c, 0, 74, 37
2, 54486, Note_on_c, 0, 73, 64
2, 54606, Note_off_c, 0, 73, 70
2, 54606, Note_on_c, 0, 76, 64
2, 54726, Note_off_c, 0, 76, 54
2, 54726, Note_on_c, 0, 74, 64
2, 54846, Note_off_c, 0, 74, 49
2, 54846, Note_on_c, 0, 73, 64
2, 54966, Note_off_c, 0, 73, 63
2, 54966, Note_on_c, 0, 74, 64
2, 55086, Note_off_c, 0, 74, 54
2, 55086, Note_on_c, 0, 76, 64
2, 55206, Note_off_c, 0, 76, 53
2, 55206, Note_on_c, 0, 74, 64
2, 55326, Note_off_c, 0, 74, 49
2, 55326, Note_on_c, 0, 73, 64
2, 55446, Note_off_c, 0, 73, 69
2, 55446, Note_on_c, 0, 71, 64
2, 55566, Note_off_c, 0, 71, 69
2, 55566, Note_on_c, 0, 74, 64
2, 55686, Note_off_c, 0, 74, 69
2, 55686, Note_on_c, 0, 73, 64
2, 56646, Note_off_c, 0, 73, 77
2, 56646, Note_on_c, 0, 72, 64
2, 57126, Note_off_c, 0, 72, 73
2, 57126, Note_on_c, 0, 76, 64
2, 57606, Note_off_c, 0, 76, 65
2, 57606, Note_on_c, 0, 75, 64
2, 58806, Note_off_c, 0, 75, 68
2, 58806, Note_on_c, 0, 68, 64
2, 59046, Note_off_c, 0, 68, 74
2, 59046, Note_on_c, 0, 73, 64
2, 59286, Note_off_c, 0, 73, 66
2, 59286, Note_on_c, 0, 73, 64
2, 59526, Note_off_c, 0, 73, 70
2, 59526, Note_on_c, 0, 73, 64
2, 59766, Note_off_c, 0, 73, 49
2, 59766, Note_on_c, 0, 71, 64
2, 59886, Note_off_c, 0, 71, 77
2, 59886, Note_on_c, 0, 69, 64
2, 60006, Note_off_c, 0, 69, 73
2, 60006, Note_on_c, 0, 71, 64
2, 60966, Note_off_c, 0, 71, 74
2, 60966, Note_on_c, 0, 69, 64
2, 61446, Note_off_c, 0, 69, 57
2, 61446, Note_on_c, 0, 68, 64
2, 61926, Note_off_c, 0, 68, 88
2, 62406, Note_on_c, 0, 75, 64
2, 63366, Note_off_c, 0, 75, 63
2, 63366, Note_on_c, 0, 74, 64
2, 63846, Note_off_c, 0, 74, 77
2, 63846, Note_on_c, 0, 78, 64
2, 64326, Note_off_c, 0, 78, 76
2, 64326, Note_on_c, 0, 77, 64
2, 64806, Note_off_c, 0, 77, 76
2, 64806, Note_on_c, 0, 76, 64
2, 65286, Note_off_c, 0, 76, 61
2, 65286, Note_on_c, 0, 75, 64
2, 65406, Note_off_c, 0, 75, 68
2, 65406, Note_on_c, 0, 73, 64
2, 65526, Note_off_c, 0, 73, 70
2, 65526, Note_on_c, 0, 75, 64
2, 65646, Note_off_c, 0, 75, 59
2, 65646, Note_on_c, 0, 76, 64
2, 65766, Note_off_c, 0, 76, 54
2, 65766, Note_on_c, 0, 75, 64
2, 65886, Note_off_c, 0, 75, 43
2, 65886, Note_on_c, 0, 73, 64
2, 66006, Note_off_c, 0, 73, 66
2, 66006, Note_on_c, 0, 71, 64
2, 66126, Note_off_c, 0, 71, 72
2, 66126, Note_on_c, 0, 75, 64
2, 66246, Note_off_c, 0, 75, 57
2, 66246, Note_on_c, 0, 73, 64
2, 66366, Note_off_c, 0, 73, 72
2, 66366, Note_on_c, 0, 71, 64
2, 66486, Note_off_c, 0, 71, 61
2, 66486, Note_on_c, 0, 73, 64
2, 66606, Note_off_c, 0, 73, 69
2, 66606, Note_on_c, 0, 75, 64
2, 66726, Note_off_c, 0, 75, 50
2, 66726, Note_on_c, 0, 73, 64
2, 66846, Note_off_c, 0, 73, 73
2, 66846, Note_on_c, 0, 76, 64
2, 66966, Note_off_c, 0, 76, 53
2, 66966, Note_on_c, 0, 75, 64
2, 67086, Note_off_c, 0, 75, 51
2, 67086, Note_on_c, 0, 73, 64
2, 67206, Note_off_c, 0, 73, 76
2, 67206, Note_on_c, 0, 72, 64
2, 67686, Note_off_c, 0, 72, 82
2, 67686, Note_on_c, 0, 71, 64
2, 68166, Note_off_c, 0, 71, 85
2, 68166, Note_on_c, 0, 70, 64
2, 68646, Note_off_c, 0, 70, 74
2, 68646, Note_on_c, 0, 69, 64
2, 69126, Note_off_c, 0, 69, 79
2, 69126, Note_on_c, 0, 68, 64
2, 69606, Note_off_c, 0, 68, 88
2, 72006, Note_on_c, 0, 73, 64
2, 72966, Note_off_c, 0, 73, 77
2, 72966, Note_on_c, 0, 72, 64
2, 73446, Note_off_c, 0, 72, 63
2, 73446, Note_on_c, 0, 76, 64
2, 73926, Note_off_c, 0, 76, 68
2, 73926, Note_on_c, 0, 75, 64
2, 75366, Note_off_c, 0, 75, 69
2, 75366, Note_on_c, 0, 73, 64
2, 76326, Note_off_c, 0, 73, 77
2, 76326, Note_on_c, 0, 72, 64
2, 76806, Note_off_c, 0, 72, 77
2, 77046, Note_on_c, 0, 73, 64
2, 77166, Note_off_c, 0, 73, 62
2, 77166, Note_on_c, 0, 75, 64
2, 77286, Note_off_c, 0, 75, 63
2, 77286, Note_on_c, 0, 76, 64
2, 77526, Note_off_c, 0, 76, 57
2, 77526, Note_on_c, 0, 78, 64
2, 77766, Note_off_c, 0, 78, 70
2, 77766, Note_on_c, 0, 80, 64
2, 77886, Note_off_c, 0, 80, 77
2, 77886, Note_on_c, 0, 78, 64
2, 78006, Note_off_c, 0, 78, 65
2, 78006, Note_on_c, 0, 80, 64
2, 78126, Note_off_c, 0, 80, 70
2, 78126, Note_on_c, 0, 81, 64
2, 78246, Note_off_c, 0, 81, 58
2, 78246, Note_on_c, 0, 80, 64
2, 78366, Note_off_c, 0, 80, 63
2, 78366, Note_on_c, 0, 78, 64
2, 78486, Note_off_c, 0, 78, 68
2, 78486, Note_on_c, 0, 76, 64
2, 78606, Note_off_c, 0, 76, 51
2, 78606, Note_on_c, 0, 80, 64
2, 78726, Note_off_c, 0, 80, 73
2, 78726, Note_on_c, 0, 78, 64
2, 78846, Note_off_c, 0, 78, 72
2, 78846, Note_on_c, 0, 76, 64
2, 78966, Note_off_c, 0, 76, 40
2, 78966, Note_on_c, 0, 78, 64
2, 79086, Note_off_c, 0, 78, 65
2, 79086, Note_on_c, 0, 80, 64
2, 79206, Note_off_c, 0, 80, 66
2, 79206, Note_on_c, 0, 78, 64
2, 79326, Note_off_c, 0, 78, 70
2, 79326, Note_on_c, 0, 76, 64
2, 79446, Note_off_c, 0, 76, 36
2, 79446, Note_on_c, 0, 75, 64
2, 79566, Note_off_c, 0, 75, 59
2, 79566, Note_on_c, 0, 78, 64
2, 79686, Note_off_c, 0, 78, 68
2, 79686, Note_on_c, 0, 76, 64
2, 79806, Note_off_c, 0, 76, 43
2, 79806, Note_on_c, 0, 75, 64
2, 79926, Note_off_c, 0, 75, 54
2, 79926, Note_on_c, 0, 76, 64
2, 80046, Note_off_c, 0, 76, 47
2, 80046, Note_on_c, 0, 78, 64
2, 80166, Note_off_c, 0, 78, 50
2, 80166, Note_on_c, 0, 76, 64
2, 80286, Note_off_c, 0, 76, 62
2, 80286, Note_on_c, 0, 74, 64
2, 80406, Note_off_c, 0, 74, 42
2, 80406, Note_on_c, 0, 73, 64
2, 80526, Note_off_c, 0, 73, 66
2, 80526, Note_on_c, 0, 76, 64
2, 80646, Note_off_c, 0, 76, 48
2, 80646, Note_on_c, 0, 74, 64
2, 80766, Note_off_c, 0, 74, 47
2, 80766, Note_on_c, 0, 73, 64
2, 80886, Note_off_c, 0, 73, 69
2, 80886, Note_on_c, 0, 74, 64
2, 81006, Note_off_c, 0, 74, 72
2, 81006, Note_on_c, 0, 76, 64
2, 81126, Note_off_c, 0, 76, 49
2, 81126, Note_on_c, 0, 74, 64
2, 81246, Note_off_c, 0, 74, 50
2, 81246, Note_on_c, 0, 73, 64
2, 81366, Note_off_c, 0, 73, 69
2, 81366, Note_on_c, 0, 71, 64
2, 81486, Note_off_c, 0, 71, 62
2, 81486, Note_on_c, 0, 74, 64
2, 81606, Note_off_c, 0, 74, 54
2, 81606, Note_on_c, 0, 73, 64
2, 81726, Note_off_c, 0, 73, 74
2, 81726, Note_on_c, 0, 71, 64
2, 81846, Note_off_c, 0, 71, 43
2, 81846, Note_on_c, 0, 73, 64
2, 81966, Note_off_c, 0, 73, 73
2, 81966, Note_on_c, 0, 74, 64
2, 82086, Note_off_c, 0, 74, 55
2, 82086, Note_on_c, 0, 73, 64
2, 82206, Note_off_c, 0, 73, 72
2, 82206, Note_on_c, 0, 71, 64
2, 82326, Note_off_c, 0, 71, 1
2, 82326, Note_on_c, 0, 69, 64
2, 82446, Note_off_c, 0, 69, 70
2, 82446, Note_on_c, 0, 73, 64
2, 82566, Note_off_c, 0, 73, 62
2, 82566, Note_on_c, 0, 71, 64
2, 82686, Note_off_c, 0, 71, 79
2, 82686, Note_on_c, 0, 69, 64
2, 82806, Note_off_c, 0, 69, 51
2, 82806, Note_on_c, 0, 71, 64
2, 82926, Note_off_c, 0, 71, 79
2, 82926, Note_on_c, 0, 73, 64
2, 83046, Note_off_c, 0, 73, 69
2, 83046, Note_on_c, 0, 71, 64
2, 83166, Note_off_c, 0, 71, 79
2, 83166, Note_on_c, 0, 69, 64
2, 83286, Note_off_c, 0, 69, 44
2, 83286, Note_on_c, 0, 68, 64
2, 83406, Note_off_c, 0, 68, 74
2, 83406, Note_on_c, 0, 71, 64
2, 83526, Note_off_c, 0, 71, 76
2, 83526, Note_on_c, 0, 69, 64
2, 84006, Note_off_c, 0, 69, 82
2, 84486, Note_on_c, 0, 73, 64
2, 85446, Note_off_c, 0, 73, 77
2, 85446, Note_on_c, 0, 72, 64
2, 85926, Note_off_c, 0, 72, 79
2, 85926, Note_on_c, 0, 76, 64
2, 86406, Note_off_c, 0, 76, 63
2, 86406, Note_on_c, 0, 75, 64
2, 87606, Note_off_c, 0, 75, 49
2, 87606, Note_on_c, 0, 73, 64
2, 87846, Note_off_c, 0, 73, 69
2, 87846, Note_on_c, 0, 80, 64
2, 88076, Note_off_c, 0, 80, 73
2, 88089, Note_on_c, 0, 80, 64
2, 88319, Note_off_c, 0, 80, 76
2, 88332, Note_on_c, 0, 80, 64
2, 88572, Note_off_c, 0, 80, 57
2, 88572, Note_on_c, 0, 78, 64
2, 88692, Note_off_c, 0, 78, 70
2, 88692, Note_on_c, 0, 76, 64
2, 88812, Note_off_c, 0, 76, 38
2, 88812, Note_on_c, 0, 78, 64
2, 89292, Note_off_c, 0, 78, 70
2, 89292, Note_on_c, 0, 76, 64
2, 90252, Note_off_c, 0, 76, 43
2, 90252, Note_on_c, 0, 75, 64
2, 90732, Note_off_c, 0, 75, 70
2, 90732, Note_on_c, 0, 79, 64
2, 91212, Note_off_c, 0, 79, 72
2, 91212, Note_on_c, 0, 78, 64
2, 91692, Note_off_c, 0, 78, 70
2, 91692, Note_on_c, 0, 66, 64
2, 92172, Note_off_c, 0, 66, 76
2, 92172, Note_on_c, 0, 65, 64
2, 92652, Note_off_c, 0, 65, 1
2, 94332, Note_on_c, 0, 72, 64
2, 94572, Note_off_c, 0, 72, 80
2, 94572, Note_on_c, 0, 78, 64
2, 94802, Note_off_c, 0, 78, 74
2, 94815, Note_on_c, 0, 78, 64
2, 95045, Note_off_c, 0, 78, 70
2, 95058, Note_on_c, 0, 78, 64
2, 95298, Note_off_c, 0, 78, 69
2, 95298, Note_on_c, 0, 76, 64
2, 95418, Note_off_c, 0, 76, 57
2, 95418, Note_on_c, 0, 75, 64
2, 95538, Note_off_c, 0, 75, 52
2, 95538, Note_on_c, 0, 76, 64
2, 95778, Note_off_c, 0, 76, 47
2, 95778, Note_on_c, 0, 75, 64
2, 95898, Note_off_c, 0, 75, 49
2, 95898, Note_on_c, 0, 73, 64
2, 96018, Note_off_c, 0, 73, 66
2, 96018, Note_on_c, 0, 75, 64
2, 96258, Note_off_c, 0, 75, 45
2, 96258, Note_on_c, 0, 72, 64
2, 96498, Note_off_c, 0, 72, 80
2, 96498, Note_on_c, 0, 73, 64
2, 97938, Note_off_c, 0, 73, 47
2, 97938, Note_on_c, 0, 72, 64
2, 98418, Note_off_c, 0, 72, 82
2, 98418, Note_on_c, 0, 71, 64
2, 98898, Note_off_c, 0, 71, 63
2, 98898, Note_on_c, 0, 70, 64
2, 99378, Note_off_c, 0, 70, 79
2, 99378, Note_on_c, 0, 69, 64
2, 99858, Note_off_c, 0, 69, 40
2, 99858, Note_on_c, 0, 68, 64
2, 100818, Note_off_c, 0, 68, 70
2, 100818, Note_on_c, 0, 70, 64
2, 101298, Note_off_c, 0, 70, 80
2, 101298, Note_on_c, 0, 72, 64
2, 101778, Note_off_c, 0, 72, 72
2, 101778, Note_on_c, 0, 73, 64
2, 102738, Note_off_c, 0, 73, 79
2, 102738, Note_on_c, 0, 72, 64
2, 103218, Note_off_c, 0, 72, 64
2, 103218, Note_on_c, 0, 76, 64
2, 104178, Note_off_c, 0, 76, 65
2, 104178, Note_on_c, 0, 75, 64
2, 104418, Note_off_c, 0, 75, 65
2, 104418, Note_on_c, 0, 73, 64
2, 104658, Note_off_c, 0, 73, 80
2, 104658, Note_on_c, 0, 72, 64
2, 105138, Note_off_c, 0, 72, 85
2, 105138, Note_on_c, 0, 73, 64
2, 106098, Note_off_c, 0, 73, 80
2, 106098, Note_on_c, 0, 72, 64
2, 106578, Note_off_c, 0, 72, 82
2, 106578, Note_on_c, 0, 73, 64
2, 110418, Note_off_c, 0, 73, 82
2, 110418, End_track
3, 0, Start_track
3, 0, Text_t, "RH M"
3, 11040, Note_on_c, 1, 68, 64
3, 11520, Note_off_c, 1, 68, 82
3, 11520, Note_on_c, 1, 65, 64
3, 12000, Note_off_c, 1, 65, 68
3, 12000, Note_on_c, 1, 69, 64
3, 12480, Note_off_c, 1, 69, 79
3, 12480, Note_on_c, 1, 68, 64
3, 12960, Note_off_c, 1, 68, 82
3, 12960, Note_on_c, 1, 66, 64
3, 13920, Note_off_c, 1, 66, 76
3, 13920, Note_on_c, 1, 73, 64
3, 14880, Note_off_c, 1, 73, 66
3, 14880, Note_on_c, 1, 71, 64
3, 15840, Note_off_c, 1, 71, 76
3, 15840, Note_on_c, 1, 69, 64
3, 16320, Note_off_c, 1, 69, 73
3, 16320, Note_on_c, 1, 68, 64
3, 16800, Note_off_c, 1, 68, 83
3, 16800, Note_on_c, 1, 69, 64
3, 17520, Note_off_c, 1, 69, 70
3, 17520, Note_on_c, 1, 68, 64
3, 17750, Note_off_c, 1, 68, 74
3, 17763, Note_on_c, 1, 68, 64
3, 18243, Note_off_c, 1, 68, 80
3, 18243, Note_on_c, 1, 70, 64
3, 18723, Note_off_c, 1, 70, 83
3, 18723, Note_on_c, 1, 68, 64
3, 19683, Note_off_c, 1, 68, 82
3, 19683, Note_on_c, 1, 67, 64
3, 20163, Note_off_c, 1, 67, 43
3, 20163, Note_on_c, 1, 68, 64
3, 20643, Note_off_c, 1, 68, 62
3, 20643, Note_on_c, 1, 59, 64
3, 21123, Note_off_c, 1, 59, 55
3, 21123, Note_on_c, 1, 61, 64
3, 21833, Note_off_c, 1, 61, 62
3, 21846, Note_on_c, 1, 61, 64
3, 22086, Note_off_c, 1, 61, 58
3, 22086, Note_on_c, 1, 63, 64
3, 22326, Note_off_c, 1, 63, 54
3, 22326, Note_on_c, 1, 61, 64
3, 22566, Note_off_c, 1, 61, 72
3, 22566, Note_on_c, 1, 63, 64
3, 22806, Note_off_c, 1, 63, 68
3, 22806, Note_on_c, 1, 65, 64
3, 23046, Note_off_c, 1, 65, 66
3, 23046, Note_on_c, 1, 66, 64
3, 23526, Note_on_c, 1, 69, 64
3, 23585, Note_off_c, 1, 66, 79
3, 24006, Note_off_c, 1, 69, 69
3, 24006, Note_on_c, 1, 68, 64
3, 24479, Note_off_c, 1, 68, 77
3, 24606, Note_on_c, 1, 71, 64
3, 24726, Note_off_c, 1, 71, 49
3, 24726, Note_on_c, 1, 69, 64
3, 24846, Note_off_c, 1, 69, 65
3, 24846, Note_on_c, 1, 68, 64
3, 24966, Note_off_c, 1, 68, 57
3, 24966, Note_on_c, 1, 66, 64
3, 25206, Note_off_c, 1, 66, 65
3, 25206, Note_on_c, 1, 69, 64
3, 25446, Note_off_c, 1, 69, 70
3, 25446, Note_on_c, 1, 68, 64
3, 25686, Note_off_c, 1, 68, 73
3, 25686, Note_on_c, 1, 66, 64
3, 25926, Note_off_c, 1, 66, 79
3, 25926, Note_on_c, 1, 65, 64
3, 26406, Note_off_c, 1, 65, 68
3, 26406, Note_on_c, 1, 66, 64
3, 27126, Note_off_c, 1, 66, 82
3, 27126, Note_on_c, 1, 64, 64
3, 28326, Note_off_c, 1, 64, 61
3, 28326, Note_on_c, 1, 63, 64
3, 28806, Note_off_c, 1, 63, 50
3, 28806, Note_on_c, 1, 64, 64
3, 30006, Note_off_c, 1, 64, 59
3, 30006, Note_on_c, 1, 63, 64
3, 30246, Note_off_c, 1, 63, 68
3, 30486, Note_on_c, 1, 66, 64
3, 30606, Note_off_c, 1, 66, 82
3, 30606, Note_on_c, 1, 68, 64
3, 30726, Note_off_c, 1, 68, 73
3, 30726, Note_on_c, 1, 66, 64
3, 31206, Note_off_c, 1, 66, 83
3, 31206, Note_on_c, 1, 71, 64
3, 31926, Note_off_c, 1, 71, 74
3, 31926, Note_on_c, 1, 73, 64
3, 32166, Note_off_c, 1, 73, 74
3, 32166, Note_on_c, 1, 71, 64
3, 32406, Note_off_c, 1, 71, 83
3, 32406, Note_on_c, 1, 69, 64
3, 32646, Note_off_c, 1, 69, 76
3, 32646, Note_on_c, 1, 68, 64
3, 33126, Note_off_c, 1, 68, 89
3, 41766, Note_on_c, 1, 73, 64
3, 42246, Note_off_c, 1, 73, 79
3, 42246, Note_on_c, 1, 72, 64
3, 42726, Note_off_c, 1, 72, 62
3, 42726, Note_on_c, 1, 76, 64
3, 43206, Note_off_c, 1, 76, 55
3, 43206, Note_on_c, 1, 75, 64
3, 44646, Note_off_c, 1, 75, 68
3, 44646, Note_on_c, 1, 73, 64
3, 45606, Note_off_c, 1, 73, 79
3, 45606, Note_on_c, 1, 72, 64
3, 45846, Note_off_c, 1, 72, 85
3, 45846, Note_on_c, 1, 71, 64
3, 46196, Note_off_c, 1, 71, 66
3, 46209, Note_on_c, 1, 71, 64
3, 46329, Note_off_c, 1, 71, 70
3, 46329, Note_on_c, 1, 73, 64
3, 46449, Note_off_c, 1, 73, 59
3, 46449, Note_on_c, 1, 74, 64
3, 46569, Note_off_c, 1, 74, 63
3, 46569, Note_on_c, 1, 73, 64
3, 46689, Note_off_c, 1, 73, 77
3, 46689, Note_on_c, 1, 71, 64
3, 46809, Note_off_c, 1, 71, 68
3, 46809, Note_on_c, 1, 69, 64
3, 46929, Note_off_c, 1, 69, 76
3, 46929, Note_on_c, 1, 73, 64
3, 47049, Note_off_c, 1, 73, 66
3, 47049, Note_on_c, 1, 71, 64
3, 47169, Note_off_c, 1, 71, 79
3, 47169, Note_on_c, 1, 69, 64
3, 47289, Note_off_c, 1, 69, 54
3, 47289, Note_on_c, 1, 71, 64
3, 47409, Note_off_c, 1, 71, 72
3, 47409, Note_on_c, 1, 73, 64
3, 47529, Note_off_c, 1, 73, 62
3, 47529, Note_on_c, 1, 71, 64
3, 47649, Note_off_c, 1, 71, 80
3, 47649, Note_on_c, 1, 69, 64
3, 47769, Note_off_c, 1, 69, 2
3, 47769, Note_on_c, 1, 68, 64
3, 47889, Note_off_c, 1, 68, 72
3, 47889, Note_on_c, 1, 71, 64
3, 48009, Note_off_c, 1, 71, 82
3, 48009, Note_on_c, 1, 69, 64
3, 48609, Note_off_c, 1, 69, 65
3, 48609, Note_on_c, 1, 73, 64
3, 48729, Note_off_c, 1, 73, 62
3, 48729, Note_on_c, 1, 71, 64
3, 48849, Note_off_c, 1, 71, 80
3, 48849, Note_on_c, 1, 69, 64
3, 48969, Note_off_c, 1, 69, 49
3, 48969, Note_on_c, 1, 68, 64
3, 49449, Note_off_c, 1, 68, 88
3, 51369, Note_on_c, 1, 69, 64
3, 51849, Note_off_c, 1, 69, 66
3, 51849, Note_on_c, 1, 68, 64
3, 52329, Note_off_c, 1, 68, 85
3, 52809, Note_on_c, 1, 71, 64
3, 54009, Note_off_c, 1, 71, 38
3, 54009, Note_on_c, 1, 64, 64
3, 54249, Note_off_c, 1, 64, 43
3, 54249, Note_on_c, 1, 69, 64
3, 54479, Note_off_c, 1, 69, 73
3, 54492, Note_on_c, 1, 69, 64
3, 54722, Note_off_c, 1, 69, 74
3, 54735, Note_on_c, 1, 69, 64
3, 54975, Note_off_c, 1, 69, 70
3, 54975, Note_on_c, 1, 68, 64
3, 55095, Note_off_c, 1, 68, 59
3, 55095, Note_on_c, 1, 66, 64
3, 55215, Note_off_c, 1, 66, 62
3, 55215, Note_on_c, 1, 68, 64
3, 55935, Note_off_c, 1, 68, 47
3, 55935, Note_on_c, 1, 61, 64
3, 56055, Note_off_c, 1, 61, 51
3, 56055, Note_on_c, 1, 63, 64
3, 56175, Note_off_c, 1, 63, 50
3, 56175, Note_on_c, 1, 64, 64
3, 56415, Note_off_c, 1, 64, 52
3, 56415, Note_on_c, 1, 66, 64
3, 56655, Note_off_c, 1, 66, 72
3, 56655, Note_on_c, 1, 68, 64
3, 56775, Note_off_c, 1, 68, 74
3, 56775, Note_on_c, 1, 66, 64
3, 56895, Note_off_c, 1, 66, 72
3, 56895, Note_on_c, 1, 68, 64
3, 57015, Note_off_c, 1, 68, 52
3, 57015, Note_on_c, 1, 69, 64
3, 57135, Note_off_c, 1, 69, 55
3, 57135, Note_on_c, 1, 68, 64
3, 57255, Note_off_c, 1, 68, 59
3, 57255, Note_on_c, 1, 66, 64
3, 57375, Note_off_c, 1, 66, 72
3, 57375, Note_on_c, 1, 64, 64
3, 57495, Note_off_c, 1, 64, 39
3, 57495, Note_on_c, 1, 68, 64
3, 57615, Note_off_c, 1, 68, 69
3, 57615, Note_on_c, 1, 66, 64
3, 57735, Note_off_c, 1, 66, 77
3, 57735, Note_on_c, 1, 64, 64
3, 57855, Note_off_c, 1, 64, 38
3, 57855, Note_on_c, 1, 66, 64
3, 57975, Note_off_c, 1, 66, 72
3, 57975, Note_on_c, 1, 68, 64
3, 58095, Note_off_c, 1, 68, 66
3, 58095, Note_on_c, 1, 66, 64
3, 58215, Note_off_c, 1, 66, 83
3, 58215, Note_on_c, 1, 64, 64
3, 58335, Note_off_c, 1, 64, 17
3, 58335, Note_on_c, 1, 63, 64
3, 58455, Note_off_c, 1, 63, 55
3, 58455, Note_on_c, 1, 66, 64
3, 58575, Note_off_c, 1, 66, 72
3, 58575, Note_on_c, 1, 64, 64
3, 58695, Note_off_c, 1, 64, 42
3, 58695, Note_on_c, 1, 63, 64
3, 58815, Note_off_c, 1, 63, 65
3, 58815, Note_on_c, 1, 64, 64
3, 58935, Note_off_c, 1, 64, 36
3, 58935, Note_on_c, 1, 66, 64
3, 59055, Note_off_c, 1, 66, 79
3, 59055, Note_on_c, 1, 64, 64
3, 59175, Note_off_c, 1, 64, 35
3, 59175, Note_on_c, 1, 63, 64
3, 59295, Note_off_c, 1, 63, 43
3, 59295, Note_on_c, 1, 61, 64
3, 59415, Note_off_c, 1, 61, 65
3, 59415, Note_on_c, 1, 64, 64
3, 59535, Note_off_c, 1, 64, 48
3, 59535, Note_on_c, 1, 75, 64
3, 59655, Note_off_c, 1, 75, 53
3, 59655, Note_on_c, 1, 73, 64
3, 59775, Note_off_c, 1, 73, 46
3, 59775, Note_on_c, 1, 75, 64
3, 59895, Note_off_c, 1, 75, 52
3, 59895, Note_on_c, 1, 76, 64
3, 60015, Note_off_c, 1, 76, 49
3, 60015, Note_on_c, 1, 74, 64
3, 60135, Note_off_c, 1, 74, 63
3, 60135, Note_on_c, 1, 73, 64
3, 60255, Note_off_c, 1, 73, 65
3, 60255, Note_on_c, 1, 71, 64
3, 60375, Note_off_c, 1, 71, 68
3, 60375, Note_on_c, 1, 74, 64
3, 60495, Note_off_c, 1, 74, 58
3, 60495, Note_on_c, 1, 73, 64
3, 60615, Note_off_c, 1, 73, 76
3, 60615, Note_on_c, 1, 71, 64
3, 60735, Note_off_c, 1, 71, 44
3, 60735, Note_on_c, 1, 73, 64
3, 60855, Note_off_c, 1, 73, 70
3, 60855, Note_on_c, 1, 74, 64
3, 60975, Note_off_c, 1, 74, 52
3, 60975, Note_on_c, 1, 73, 64
3, 61095, Note_off_c, 1, 73, 73
3, 61095, Note_on_c, 1, 76, 64
3, 61215, Note_off_c, 1, 76, 44
3, 61215, Note_on_c, 1, 75, 64
3, 61335, Note_off_c, 1, 75, 49
3, 61335, Note_on_c, 1, 73, 64
3, 61455, Note_off_c, 1, 73, 76
3, 61455, Note_on_c, 1, 72, 64
3, 61935, Note_off_c, 1, 72, 73
3, 61935, Note_on_c, 1, 73, 64
3, 62415, Note_off_c, 1, 73, 83
3, 62415, Note_on_c, 1, 63, 64
3, 62645, Note_off_c, 1, 63, 50
3, 62658, Note_on_c, 1, 63, 64
3, 62898, Note_off_c, 1, 63, 48
3, 62898, Note_on_c, 1, 68, 64
3, 63018, Note_off_c, 1, 68, 58
3, 63018, Note_on_c, 1, 70, 64
3, 63138, Note_off_c, 1, 70, 57
3, 63138, Note_on_c, 1, 71, 64
3, 63618, Note_off_c, 1, 71, 79
3, 63618, Note_on_c, 1, 70, 64
3, 63858, Note_off_c, 1, 70, 77
3, 63858, Note_on_c, 1, 75, 64
3, 64088, Note_off_c, 1, 75, 59
3, 64101, Note_on_c, 1, 75, 64
3, 64331, Note_off_c, 1, 75, 58
3, 64344, Note_on_c, 1, 75, 64
3, 64584, Note_off_c, 1, 75, 54
3, 64584, Note_on_c, 1, 73, 64
3, 64704, Note_off_c, 1, 73, 46
3, 64704, Note_on_c, 1, 72, 64
3, 64824, Note_off_c, 1, 72, 80
3, 64824, Note_on_c, 1, 73, 64
3, 65784, Note_off_c, 1, 73, 74
3, 65784, Note_on_c, 1, 71, 64
3, 66264, Note_off_c, 1, 71, 72
3, 66264, Note_on_c, 1, 70, 64
3, 66744, Note_off_c, 1, 70, 74
3, 66744, Note_on_c, 1, 69, 64
3, 67464, Note_off_c, 1, 69, 73
3, 67464, Note_on_c, 1, 63, 64
3, 67704, Note_off_c, 1, 63, 66
3, 67704, Note_on_c, 1, 68, 64
3, 67934, Note_off_c, 1, 68, 72
3, 67947, Note_on_c, 1, 68, 64
3, 68427, Note_off_c, 1, 68, 62
3, 68427, Note_on_c, 1, 66, 64
3, 68547, Note_off_c, 1, 66, 65
3, 68547, Note_on_c, 1, 65, 64
3, 68667, Note_off_c, 1, 65, 30
3, 68667, Note_on_c, 1, 66, 64
3, 69627, Note_off_c, 1, 66, 76
3, 69627, Note_on_c, 1, 64, 64
3, 70107, Note_off_c, 1, 64, 69
3, 70107, Note_on_c, 1, 63, 64
3, 70587, Note_off_c, 1, 63, 52
3, 70587, Note_on_c, 1, 61, 64
3, 71067, Note_off_c, 1, 61, 52
3, 71067, Note_on_c, 1, 63, 64
3, 72027, Note_off_c, 1, 63, 72
3, 73227, Note_on_c, 1, 68, 64
3, 73467, Note_off_c, 1, 68, 79
3, 73467, Note_on_c, 1, 73, 64
3, 73697, Note_off_c, 1, 73, 65
3, 73710, Note_on_c, 1, 73, 64
3, 73940, Note_off_c, 1, 73, 66
3, 73953, Note_on_c, 1, 73, 64
3, 74193, Note_off_c, 1, 73, 48
3, 74193, Note_on_c, 1, 72, 64
3, 74313, Note_off_c, 1, 72, 77
3, 74313, Note_on_c, 1, 70, 64
3, 74433, Note_off_c, 1, 70, 65
3, 74433, Note_on_c, 1, 72, 64
3, 74553, Note_off_c, 1, 72, 53
3, 74553, Note_on_c, 1, 73, 64
3, 74673, Note_off_c, 1, 73, 55
3, 74673, Note_on_c, 1, 75, 64
3, 74793, Note_off_c, 1, 75, 49
3, 74793, Note_on_c, 1, 72, 64
3, 74913, Note_off_c, 1, 72, 68
3, 74913, Note_on_c, 1, 68, 64
3, 75033, Note_off_c, 1, 68, 66
3, 75033, Note_on_c, 1, 66, 64
3, 75153, Note_off_c, 1, 66, 46
3, 75153, Note_on_c, 1, 68, 64
3, 75273, Note_off_c, 1, 68, 63
3, 75273, Note_on_c, 1, 69, 64
3, 75393, Note_off_c, 1, 69, 48
3, 75393, Note_on_c, 1, 68, 64
3, 75513, Note_off_c, 1, 68, 54
3, 75513, Note_on_c, 1, 66, 64
3, 75633, Note_off_c, 1, 66, 50
3, 75633, Note_on_c, 1, 64, 64
3, 75753, Note_off_c, 1, 64, 40
3, 75753, Note_on_c, 1, 68, 64
3, 75873, Note_off_c, 1, 68, 63
3, 75873, Note_on_c, 1, 66, 64
3, 75993, Note_off_c, 1, 66, 65
3, 75993, Note_on_c, 1, 64, 64
3, 76113, Note_off_c, 1, 64, 31
3, 76113, Note_on_c, 1, 66, 64
3, 76233, Note_off_c, 1, 66, 61
3, 76233, Note_on_c, 1, 68, 64
3, 76353, Note_off_c, 1, 68, 59
3, 76353, Note_on_c, 1, 66, 64
3, 76473, Note_off_c, 1, 66, 47
3, 76473, Note_on_c, 1, 64, 64
3, 76593, Note_off_c, 1, 64, 40
3, 76593, Note_on_c, 1, 63, 64
3, 76713, Note_off_c, 1, 63, 30
3, 76713, Note_on_c, 1, 66, 64
3, 76833, Note_off_c, 1, 66, 72
3, 76833, Note_on_c, 1, 64, 64
3, 76953, Note_off_c, 1, 64, 47
3, 76953, Note_on_c, 1, 68, 64
3, 77073, Note_off_c, 1, 68, 74
3, 77073, Note_on_c, 1, 69, 64
3, 77193, Note_off_c, 1, 69, 65
3, 77193, Note_on_c, 1, 71, 64
3, 77313, Note_off_c, 1, 71, 59
3, 77313, Note_on_c, 1, 73, 64
3, 77433, Note_off_c, 1, 73, 70
3, 77433, Note_on_c, 1, 75, 64
3, 77553, Note_off_c, 1, 75, 53
3, 77553, Note_on_c, 1, 72, 64
3, 77673, Note_off_c, 1, 72, 44
3, 77673, Note_on_c, 1, 73, 64
3, 77793, Note_off_c, 1, 73, 76
3, 77793, Note_on_c, 1, 75, 64
3, 78033, Note_off_c, 1, 75, 74
3, 80913, Note_on_c, 1, 66, 64
3, 81153, Note_off_c, 1, 66, 54
3, 81153, Note_on_c, 1, 71, 64
3, 81383, Note_off_c, 1, 71, 57
3, 81396, Note_on_c, 1, 71, 64
3, 81626, Note_off_c, 1, 71, 58
3, 81639, Note_on_c, 1, 71, 64
3, 81879, Note_off_c, 1, 71, 74
3, 81879, Note_on_c, 1, 69, 64
3, 81999, Note_off_c, 1, 69, 50
3, 81999, Note_on_c, 1, 68, 64
3, 82119, Note_off_c, 1, 68, 79
3, 82119, Note_on_c, 1, 69, 64
3, 82599, Note_off_c, 1, 69, 76
3, 82599, Note_on_c, 1, 68, 64
3, 83669, Note_off_c, 1, 68, 74
3, 83682, Note_on_c, 1, 68, 64
3, 83802, Note_off_c, 1, 68, 43
3, 83802, Note_on_c, 1, 66, 64
3, 83922, Note_off_c, 1, 66, 51
3, 83922, Note_on_c, 1, 65, 64
3, 84042, Note_off_c, 1, 65, 61
3, 84042, Note_on_c, 1, 66, 64
3, 84522, Note_off_c, 1, 66, 70
3, 84522, Note_on_c, 1, 68, 64
3, 85112, Note_off_c, 1, 68, 73
3, 85125, Note_on_c, 1, 68, 64
3, 85245, Note_off_c, 1, 68, 66
3, 85245, Note_on_c, 1, 66, 64
3, 85365, Note_off_c, 1, 66, 70
3, 85365, Note_on_c, 1, 64, 64
3, 85485, Note_off_c, 1, 64, 23
3, 85485, Note_on_c, 1, 63, 64
3, 85605, Note_off_c, 1, 63, 45
3, 85605, Note_on_c, 1, 69, 64
3, 85725, Note_off_c, 1, 69, 47
3, 85725, Note_on_c, 1, 68, 64
3, 85845, Note_off_c, 1, 68, 69
3, 85845, Note_on_c, 1, 66, 64
3, 85965, Note_off_c, 1, 66, 80
3, 85965, Note_on_c, 1, 64, 64
3, 86085, Note_off_c, 1, 64, 40
3, 86085, Note_on_c, 1, 68, 64
3, 86205, Note_off_c, 1, 68, 69
3, 86205, Note_on_c, 1, 73, 64
3, 86325, Note_off_c, 1, 73, 32
3, 86325, Note_on_c, 1, 71, 64
3, 86445, Note_off_c, 1, 71, 69
3, 86445, Note_on_c, 1, 69, 64
3, 86565, Note_off_c, 1, 69, 79
3, 86565, Note_on_c, 1, 68, 64
3, 86685, Note_off_c, 1, 68, 77
3, 86685, Note_on_c, 1, 69, 64
3, 86805, Note_off_c, 1, 69, 76
3, 86805, Note_on_c, 1, 66, 64
3, 86925, Note_off_c, 1, 66, 69
3, 86925, Note_on_c, 1, 68, 64
3, 87645, Note_off_c, 1, 68, 34
3, 87765, Note_on_c, 1, 72, 64
3, 87885, Note_off_c, 1, 72, 68
3, 87885, Note_on_c, 1, 73, 64
3, 88605, Note_off_c, 1, 73, 69
3, 88605, Note_on_c, 1, 70, 64
3, 88845, Note_off_c, 1, 70, 65
3, 88845, Note_on_c, 1, 75, 64
3, 89075, Note_off_c, 1, 75, 58
3, 89088, Note_on_c, 1, 75, 64
3, 89318, Note_off_c, 1, 75, 54
3, 89331, Note_on_c, 1, 75, 64
3, 89571, Note_off_c, 1, 75, 53
3, 89571, Note_on_c, 1, 73, 64
3, 89691, Note_off_c, 1, 73, 54
3, 89691, Note_on_c, 1, 71, 64
3, 89811, Note_off_c, 1, 71, 80
3, 89811, Note_on_c, 1, 73, 64
3, 90291, Note_off_c, 1, 73, 62
3, 90291, Note_on_c, 1, 71, 64
3, 90761, Note_off_c, 1, 71, 73
3, 90774, Note_on_c, 1, 71, 64
3, 91254, Note_off_c, 1, 71, 68
3, 91254, Note_on_c, 1, 70, 64
3, 91734, Note_off_c, 1, 70, 79
3, 91734, Note_on_c, 1, 74, 64
3, 92214, Note_off_c, 1, 74, 65
3, 92214, Note_on_c, 1, 73, 64
3, 93174, Note_off_c, 1, 73, 57
3, 93174, Note_on_c, 1, 68, 64
3, 93404, Note_off_c, 1, 68, 73
3, 93417, Note_on_c, 1, 68, 64
3, 93657, Note_off_c, 1, 68, 50
3, 93657, Note_on_c, 1, 73, 64
3, 93887, Note_off_c, 1, 73, 63
3, 93900, Note_on_c, 1, 73, 64
3, 94130, Note_off_c, 1, 73, 58
3, 94143, Note_on_c, 1, 73, 64
3, 94383, Note_off_c, 1, 73, 52
3, 94383, Note_on_c, 1, 72, 64
3, 94503, Note_off_c, 1, 72, 62
3, 94503, Note_on_c, 1, 70, 64
3, 94623, Note_off_c, 1, 70, 52
3, 94623, Note_on_c, 1, 72, 64
3, 94743, Note_off_c, 1, 72, 55
3, 94743, Note_on_c, 1, 73, 64
3, 94863, Note_off_c, 1, 73, 70
3, 94863, Note_on_c, 1, 75, 64
3, 95343, Note_off_c, 1, 75, 61
3, 95343, Note_on_c, 1, 73, 64
3, 95463, Note_off_c, 1, 73, 49
3, 95463, Note_on_c, 1, 72, 64
3, 95583, Note_off_c, 1, 72, 82
3, 95583, Note_on_c, 1, 73, 64
3, 96063, Note_off_c, 1, 73, 55
3, 96063, Note_on_c, 1, 66, 64
3, 96543, Note_off_c, 1, 66, 73
3, 96543, Note_on_c, 1, 68, 64
3, 97503, Note_off_c, 1, 68, 74
3, 97503, Note_on_c, 1, 66, 64
3, 98223, Note_off_c, 1, 66, 88
3, 99183, Note_on_c, 1, 61, 64
3, 99423, Note_off_c, 1, 61, 62
3, 99423, Note_on_c, 1, 66, 64
3, 99653, Note_off_c, 1, 66, 68
3, 99666, Note_on_c, 1, 66, 64
3, 99896, Note_off_c, 1, 66, 66
3, 99909, Note_on_c, 1, 66, 64
3, 100149, Note_off_c, 1, 66, 46
3, 100149, Note_on_c, 1, 64, 64
3, 100269, Note_off_c, 1, 64, 50
3, 100269, Note_on_c, 1, 63, 64
3, 100389, Note_off_c, 1, 63, 48
3, 100389, Note_on_c, 1, 64, 64
3, 101082, Note_off_c, 1, 64, 44
3, 101109, Note_on_c, 1, 66, 64
3, 101229, Note_off_c, 1, 66, 69
3, 101229, Note_on_c, 1, 68, 64
3, 101349, Note_off_c, 1, 68, 76
3, 101349, Note_on_c, 1, 69, 64
3, 101559, Note_off_c, 1, 69, 66
3, 101589, Note_on_c, 1, 68, 64
3, 102069, Note_on_c, 1, 64, 64
3, 102090, Note_off_c, 1, 68, 79
3, 102309, Note_off_c, 1, 64, 57
3, 102309, Note_on_c, 1, 69, 64
3, 102539, Note_off_c, 1, 69, 70
3, 102552, Note_on_c, 1, 69, 64
3, 102782, Note_off_c, 1, 69, 69
3, 102795, Note_on_c, 1, 69, 64
3, 103035, Note_off_c, 1, 69, 52
3, 103035, Note_on_c, 1, 68, 64
3, 103155, Note_off_c, 1, 68, 53
3, 103155, Note_on_c, 1, 66, 64
3, 103275, Note_off_c, 1, 66, 70
3, 103275, Note_on_c, 1, 68, 64
3, 103515, Note_off_c, 1, 68, 61
3, 103515, Note_on_c, 1, 70, 64
3, 103635, Note_off_c, 1, 70, 77
3, 103635, Note_on_c, 1, 72, 64
3, 103755, Note_off_c, 1, 72, 80
3, 103755, Note_on_c, 1, 73, 64
3, 104235, Note_off_c, 1, 73, 57
3, 104235, Note_on_c, 1, 70, 64
3, 104715, Note_off_c, 1, 70, 69
3, 104715, Note_on_c, 1, 68, 64
3, 105185, Note_off_c, 1, 68, 80
3, 105198, Note_on_c, 1, 68, 64
3, 107118, Note_off_c, 1, 68, 79
3, 107118, Note_on_c, 1, 66, 64
3, 107598, Note_off_c, 1, 66, 68
3, 107598, Note_on_c, 1, 65, 64
3, 108078, Note_off_c, 1, 65, 65
3, 108078, Note_on_c, 1, 69, 64
3, 108558, Note_off_c, 1, 69, 74
3, 108558, Note_on_c, 1, 68, 64
3, 110478, Note_off_c, 1, 68, 85
3, 110478, End_track
4, 0, Start_track
4, 0, Text_t, "LH H/RH L"
4, 6240, Note_on_c, 2, 61, 64
4, 6720, Note_off_c, 2, 61, 77
4, 6720, Note_on_c, 2, 60, 64
4, 7200, Note_off_c, 2, 60, 55
4, 7200, Note_on_c, 2, 64, 64
4, 7680, Note_off_c, 2, 64, 53
4, 7680, Note_on_c, 2, 63, 64
4, 8640, Note_off_c, 2, 63, 52
4, 8640, Note_on_c, 2, 61, 64
4, 9120, Note_off_c, 2, 61, 76
4, 9120, Note_on_c, 2, 66, 64
4, 9840, Note_off_c, 2, 66, 51
4, 9840, Note_on_c, 2, 64, 64
4, 10080, Note_off_c, 2, 64, 53
4, 10080, Note_on_c, 2, 63, 64
4, 10320, Note_off_c, 2, 63, 59
4, 10320, Note_on_c, 2, 61, 64
4, 10550, Note_off_c, 2, 61, 65
4, 10563, Note_on_c, 2, 61, 64
4, 11043, Note_off_c, 2, 61, 77
4, 11043, Note_on_c, 2, 59, 64
4, 11523, Note_off_c, 2, 59, 61
4, 11523, Note_on_c, 2, 61, 64
4, 12003, Note_off_c, 2, 61, 76
4, 12003, Note_on_c, 2, 66, 64
4, 12723, Note_off_c, 2, 66, 69
4, 12723, Note_on_c, 2, 64, 64
4, 12963, Note_off_c, 2, 64, 57
4, 12963, Note_on_c, 2, 63, 64
4, 13203, Note_off_c, 2, 63, 52
4, 13203, Note_on_c, 2, 61, 64
4, 13443, Note_off_c, 2, 61, 73
4, 13443, Note_on_c, 2, 63, 64
4, 13923, Note_off_c, 2, 63, 31
4, 13923, Note_on_c, 2, 68, 64
4, 14403, Note_off_c, 2, 68, 83
4, 14643, Note_on_c, 2, 69, 64
4, 14883, Note_off_c, 2, 69, 57
4, 14883, Note_on_c, 2, 68, 64
4, 15123, Note_off_c, 2, 68, 68
4, 15123, Note_on_c, 2, 66, 64
4, 15363, Note_off_c, 2, 66, 1
4, 15363, Note_on_c, 2, 65, 64
4, 15603, Note_off_c, 2, 65, 68
4, 15603, Note_on_c, 2, 61, 64
4, 15843, Note_off_c, 2, 61, 73
4, 15843, Note_on_c, 2, 66, 64
4, 16323, Note_off_c, 2, 66, 73
4, 16323, Note_on_c, 2, 64, 64
4, 17763, Note_off_c, 2, 64, 37
4, 17763, Note_on_c, 2, 66, 64
4, 18003, Note_off_c, 2, 66, 76
4, 18003, Note_on_c, 2, 64, 64
4, 18243, Note_off_c, 2, 64, 39
4, 18243, Note_on_c, 2, 63, 64
4, 18723, Note_off_c, 2, 63, 72
4, 23523, Note_on_c, 2, 61, 64
4, 24003, Note_off_c, 2, 61, 72
4, 24003, Note_on_c, 2, 60, 64
4, 24483, Note_off_c, 2, 60, 53
4, 24483, Note_on_c, 2, 64, 64
4, 24963, Note_off_c, 2, 64, 53
4, 24963, Note_on_c, 2, 63, 64
4, 25923, Note_off_c, 2, 63, 63
4, 25923, Note_on_c, 2, 61, 64
4, 27843, Note_off_c, 2, 61, 58
4, 27843, Note_on_c, 2, 54, 64
4, 28083, Note_off_c, 2, 54, 41
4, 28083, Note_on_c, 2, 56, 64
4, 28323, Note_off_c, 2, 56, 68
4, 28323, Note_on_c, 2, 58, 64
4, 28563, Note_off_c, 2, 58, 76
4, 28563, Note_on_c, 2, 59, 64
4, 28803, Note_off_c, 2, 59, 73
4, 28803, Note_on_c, 2, 61, 64
4, 29763, Note_off_c, 2, 61, 80
4, 30243, Note_on_c, 2, 64, 64
4, 30723, Note_off_c, 2, 64, 54
4, 30723, Note_on_c, 2, 63, 64
4, 31203, Note_off_c, 2, 63, 66
4, 31203, Note_on_c, 2, 68, 64
4, 31683, Note_off_c, 2, 68, 74
4, 31683, Note_on_c, 2, 66, 64
4, 32643, Note_off_c, 2, 66, 80
4, 32643, Note_on_c, 2, 64, 64
4, 33123, Note_off_c, 2, 64, 68
4, 36003, Note_on_c, 2, 68, 64
4, 36483, Note_off_c, 2, 68, 73
4, 36483, Note_on_c, 2, 67, 64
4, 36963, Note_off_c, 2, 67, 55
4, 36963, Note_on_c, 2, 71, 64
4, 37443, Note_off_c, 2, 71, 82
4, 37443, Note_on_c, 2, 70, 64
4, 38643, Note_off_c, 2, 70, 73
4, 38643, Note_on_c, 2, 63, 64
4, 38883, Note_off_c, 2, 63, 49
4, 38883, Note_on_c, 2, 68, 64
4, 39603, Note_off_c, 2, 68, 73
4, 39603, Note_on_c, 2, 66, 64
4, 39723, Note_off_c, 2, 66, 70
4, 39723, Note_on_c, 2, 64, 64
4, 39843, Note_off_c, 2, 64, 52
4, 39843, Note_on_c, 2, 66, 64
4, 40563, Note_off_c, 2, 66, 83
4, 40563, Note_on_c, 2, 64, 64
4, 40683, Note_off_c, 2, 64, 46
4, 40683, Note_on_c, 2, 66, 64
4, 40803, Note_off_c, 2, 66, 77
4, 40803, Note_on_c, 2, 68, 64
4, 43203, Note_off_c, 2, 68, 88
4, 46323, Note_on_c, 2, 61, 64
4, 46563, Note_off_c, 2, 61, 66
4, 46563, Note_on_c, 2, 66, 64
4, 46793, Note_off_c, 2, 66, 63
4, 46806, Note_on_c, 2, 66, 64
4, 47036, Note_off_c, 2, 66, 52
4, 47049, Note_on_c, 2, 66, 64
4, 47289, Note_off_c, 2, 66, 51
4, 47289, Note_on_c, 2, 65, 64
4, 47409, Note_off_c, 2, 65, 1
4, 47409, Note_on_c, 2, 63, 64
4, 47529, Note_off_c, 2, 63, 49
4, 47529, Note_on_c, 2, 65, 64
4, 48009, Note_off_c, 2, 65, 51
4, 48009, Note_on_c, 2, 66, 64
4, 48244, Note_off_c, 2, 66, 76
4, 48249, Note_on_c, 2, 54, 64
4, 48369, Note_off_c, 2, 54, 52
4, 48369, Note_on_c, 2, 56, 64
4, 48489, Note_off_c, 2, 56, 72
4, 48489, Note_on_c, 2, 57, 64
4, 48729, Note_off_c, 2, 57, 49
4, 48729, Note_on_c, 2, 59, 64
4, 48969, Note_off_c, 2, 59, 49
4, 48969, Note_on_c, 2, 61, 64
4, 49089, Note_off_c, 2, 61, 54
4, 49089, Note_on_c, 2, 59, 64
4, 49209, Note_off_c, 2, 59, 45
4, 49209, Note_on_c, 2, 61, 64
4, 49329, Note_off_c, 2, 61, 62
4, 49329, Note_on_c, 2, 62, 64
4, 49449, Note_off_c, 2, 62, 40
4, 49449, Note_on_c, 2, 61, 64
4, 49569, Note_off_c, 2, 61, 73
4, 49569, Note_on_c, 2, 59, 64
4, 49689, Note_off_c, 2, 59, 44
4, 49689, Note_on_c, 2, 57, 64
4, 49809, Note_off_c, 2, 57, 52
4, 49809, Note_on_c, 2, 61, 64
4, 49929, Note_off_c, 2, 61, 63
4, 49929, Note_on_c, 2, 59, 64
4, 50049, Note_off_c, 2, 59, 47
4, 50049, Note_on_c, 2, 57, 64
4, 50169, Note_off_c, 2, 57, 45
4, 50169, Note_on_c, 2, 59, 64
4, 50289, Note_off_c, 2, 59, 43
4, 50289, Note_on_c, 2, 61, 64
4, 50409, Note_off_c, 2, 61, 52
4, 50409, Note_on_c, 2, 59, 64
4, 50529, Note_off_c, 2, 59, 42
4, 50529, Note_on_c, 2, 57, 64
4, 50649, Note_off_c, 2, 57, 49
4, 50649, Note_on_c, 2, 56, 64
4, 50769, Note_off_c, 2, 56, 49
4, 50769, Note_on_c, 2, 59, 64
4, 50889, Note_off_c, 2, 59, 58
4, 50889, Note_on_c, 2, 57, 64
4, 51009, Note_off_c, 2, 57, 58
4, 51009, Note_on_c, 2, 56, 64
4, 51129, Note_off_c, 2, 56, 53
4, 51129, Note_on_c, 2, 57, 64
4, 51249, Note_off_c, 2, 57, 46
4, 51249, Note_on_c, 2, 59, 64
4, 51369, Note_off_c, 2, 59, 46
4, 51369, Note_on_c, 2, 57, 64
4, 51489, Note_off_c, 2, 57, 39
4, 51489, Note_on_c, 2, 59, 64
4, 51609, Note_off_c, 2, 59, 44
4, 51609, Note_on_c, 2, 61, 64
4, 51729, Note_off_c, 2, 61, 59
4, 51729, Note_on_c, 2, 62, 64
4, 51849, Note_off_c, 2, 62, 69
4, 51849, Note_on_c, 2, 64, 64
4, 51969, Note_off_c, 2, 64, 23
4, 51969, Note_on_c, 2, 62, 64
4, 52089, Note_off_c, 2, 62, 42
4, 52089, Note_on_c, 2, 64, 64
4, 52209, Note_off_c, 2, 64, 41
4, 52209, Note_on_c, 2, 66, 64
4, 52329, Note_off_c, 2, 66, 62
4, 52329, Note_on_c, 2, 64, 64
4, 52449, Note_off_c, 2, 64, 41
4, 52449, Note_on_c, 2, 62, 64
4, 52569, Note_off_c, 2, 62, 39
4, 52569, Note_on_c, 2, 61, 64
4, 52689, Note_off_c, 2, 61, 53
4, 52689, Note_on_c, 2, 64, 64
4, 52809, Note_off_c, 2, 64, 50
4, 52809, Note_on_c, 2, 62, 64
4, 52929, Note_off_c, 2, 62, 35
4, 52929, Note_on_c, 2, 61, 64
4, 53049, Note_off_c, 2, 61, 51
4, 53049, Note_on_c, 2, 62, 64
4, 53169, Note_off_c, 2, 62, 48
4, 53169, Note_on_c, 2, 64, 64
4, 53289, Note_off_c, 2, 64, 44
4, 53289, Note_on_c, 2, 62, 64
4, 53409, Note_off_c, 2, 62, 35
4, 53409, Note_on_c, 2, 61, 64
4, 53529, Note_off_c, 2, 61, 49
4, 53529, Note_on_c, 2, 59, 64
4, 53649, Note_off_c, 2, 59, 48
4, 53649, Note_on_c, 2, 62, 64
4, 53769, Note_off_c, 2, 62, 37
4, 53769, Note_on_c, 2, 61, 64
4, 53889, Note_off_c, 2, 61, 47
4, 53889, Note_on_c, 2, 59, 64
4, 54009, Note_off_c, 2, 59, 39
4, 54009, Note_on_c, 2, 61, 64
4, 54129, Note_off_c, 2, 61, 57
4, 54129, Note_on_c, 2, 62, 64
4, 54249, Note_off_c, 2, 62, 39
4, 54249, Note_on_c, 2, 61, 64
4, 54369, Note_off_c, 2, 61, 52
4, 54369, Note_on_c, 2, 59, 64
4, 54489, Note_off_c, 2, 59, 43
4, 54489, Note_on_c, 2, 57, 64
4, 54609, Note_off_c, 2, 57, 50
4, 54609, Note_on_c, 2, 61, 64
4, 54729, Note_off_c, 2, 61, 53
4, 54729, Note_on_c, 2, 59, 64
4, 55689, Note_off_c, 2, 59, 68
4, 55689, Note_on_c, 2, 57, 64
4, 55809, Note_off_c, 2, 57, 43
4, 55809, Note_on_c, 2, 56, 64
4, 55929, Note_off_c, 2, 56, 47
4, 55929, Note_on_c, 2, 54, 64
4, 56049, Note_off_c, 2, 54, 47
4, 56049, Note_on_c, 2, 52, 64
4, 56169, Note_off_c, 2, 52, 65
4, 56169, Note_on_c, 2, 51, 64
4, 56289, Note_off_c, 2, 51, 48
4, 56289, Note_on_c, 2, 49, 64
4, 56409, Note_off_c, 2, 49, 52
4, 56409, Note_on_c, 2, 48, 64
4, 56529, Note_off_c, 2, 48, 34
4, 56529, Note_on_c, 2, 49, 64
4, 56649, Note_off_c, 2, 49, 52
4, 56649, Note_on_c, 2, 51, 64
4, 57129, Note_off_c, 2, 51, 80
4, 60729, Note_on_c, 2, 49, 64
4, 60969, Note_off_c, 2, 49, 49
4, 60969, Note_on_c, 2, 54, 64
4, 61199, Note_off_c, 2, 54, 61
4, 61212, Note_on_c, 2, 54, 64
4, 61442, Note_off_c, 2, 54, 62
4, 61455, Note_on_c, 2, 56, 64
4, 62415, Note_off_c, 2, 56, 65
4, 62415, Note_on_c, 2, 55, 64
4, 62895, Note_off_c, 2, 55, 66
4, 62895, Note_on_c, 2, 56, 64
4, 63375, Note_off_c, 2, 56, 69
4, 63375, Note_on_c, 2, 53, 64
4, 63615, Note_off_c, 2, 53, 76
4, 69735, Note_on_c, 2, 63, 64
4, 69855, Note_off_c, 2, 63, 52
4, 69855, Note_on_c, 2, 64, 64
4, 69975, Note_off_c, 2, 64, 38
4, 69975, Note_on_c, 2, 66, 64
4, 70095, Note_off_c, 2, 66, 55
4, 70095, Note_on_c, 2, 68, 64
4, 70215, Note_off_c, 2, 68, 77
4, 70215, Note_on_c, 2, 66, 64
4, 70335, Note_off_c, 2, 66, 40
4, 70335, Note_on_c, 2, 68, 64
4, 70455, Note_off_c, 2, 68, 70
4, 70455, Note_on_c, 2, 69, 64
4, 70575, Note_off_c, 2, 69, 50
4, 70575, Note_on_c, 2, 68, 64
4, 70695, Note_off_c, 2, 68, 34
4, 70695, Note_on_c, 2, 66, 64
4, 70815, Note_off_c, 2, 66, 59
4, 70815, Note_on_c, 2, 64, 64
4, 70935, Note_off_c, 2, 64, 52
4, 70935, Note_on_c, 2, 68, 64
4, 71055, Note_off_c, 2, 68, 65
4, 71055, Note_on_c, 2, 66, 64
4, 71175, Note_off_c, 2, 66, 79
4, 71175, Note_on_c, 2, 64, 64
4, 71295, Note_off_c, 2, 64, 30
4, 71295, Note_on_c, 2, 66, 64
4, 71415, Note_off_c, 2, 66, 73
4, 71415, Note_on_c, 2, 68, 64
4, 71535, Note_off_c, 2, 68, 52
4, 71535, Note_on_c, 2, 66, 64
4, 71655, Note_off_c, 2, 66, 73
4, 71655, Note_on_c, 2, 64, 64
4, 71775, Note_off_c, 2, 64, 24
4, 71775, Note_on_c, 2, 63, 64
4, 71895, Note_off_c, 2, 63, 44
4, 71895, Note_on_c, 2, 66, 64
4, 72015, Note_off_c, 2, 66, 70
4, 72015, Note_on_c, 2, 64, 64
4, 72135, Note_off_c, 2, 64, 36
4, 72135, Note_on_c, 2, 63, 64
4, 72255, Note_off_c, 2, 63, 41
4, 72255, Note_on_c, 2, 64, 64
4, 72375, Note_off_c, 2, 64, 44
4, 72375, Note_on_c, 2, 66, 64
4, 72495, Note_off_c, 2, 66, 74
4, 72495, Note_on_c, 2, 64, 64
4, 72615, Note_off_c, 2, 64, 32
4, 72615, Note_on_c, 2, 63, 64
4, 72735, Note_off_c, 2, 63, 34
4, 72735, Note_on_c, 2, 61, 64
4, 72855, Note_off_c, 2, 61, 66
4, 72855, Note_on_c, 2, 64, 64
4, 72975, Note_off_c, 2, 64, 44
4, 72975, Note_on_c, 2, 63, 64
4, 73215, Note_off_c, 2, 63, 74
4, 78015, Note_on_c, 2, 56, 64
4, 78255, Note_off_c, 2, 56, 61
4, 78255, Note_on_c, 2, 61, 64
4, 78485, Note_off_c, 2, 61, 65
4, 78498, Note_on_c, 2, 61, 64
4, 78728, Note_off_c, 2, 61, 62
4, 78741, Note_on_c, 2, 61, 64
4, 78981, Note_off_c, 2, 61, 61
4, 78981, Note_on_c, 2, 60, 64
4, 79101, Note_off_c, 2, 60, 54
4, 79101, Note_on_c, 2, 58, 64
4, 79221, Note_off_c, 2, 58, 50
4, 79221, Note_on_c, 2, 60, 64
4, 79701, Note_off_c, 2, 60, 55
4, 79701, Note_on_c, 2, 61, 64
4, 80661, Note_off_c, 2, 61, 74
4, 80661, Note_on_c, 2, 59, 64
4, 81381, Note_off_c, 2, 59, 69
4, 81381, Note_on_c, 2, 66, 64
4, 81621, Note_off_c, 2, 66, 64
4, 81621, Note_on_c, 2, 65, 64
4, 82101, Note_off_c, 2, 65, 64
4, 82101, Note_on_c, 2, 66, 64
4, 82581, Note_off_c, 2, 66, 64
4, 82581, Note_on_c, 2, 59, 64
4, 83061, Note_off_c, 2, 59, 61
4, 83061, Note_on_c, 2, 61, 64
4, 84131, Note_off_c, 2, 61, 68
4, 84144, Note_on_c, 2, 61, 64
4, 84264, Note_off_c, 2, 61, 58
4, 84264, Note_on_c, 2, 59, 64
4, 84384, Note_off_c, 2, 59, 63
4, 84384, Note_on_c, 2, 57, 64
4, 84504, Note_off_c, 2, 57, 43
4, 84504, Note_on_c, 2, 56, 64
4, 85464, Note_off_c, 2, 56, 76
4, 90504, Note_on_c, 2, 59, 64
4, 90744, Note_off_c, 2, 59, 55
4, 90744, Note_on_c, 2, 64, 64
4, 90974, Note_off_c, 2, 64, 58
4, 90987, Note_on_c, 2, 64, 64
4, 91217, Note_off_c, 2, 64, 52
4, 91230, Note_on_c, 2, 64, 64
4, 91470, Note_off_c, 2, 64, 53
4, 91470, Note_on_c, 2, 62, 64
4, 91590, Note_off_c, 2, 62, 43
4, 91590, Note_on_c, 2, 61, 64
4, 91710, Note_off_c, 2, 61, 72
4, 91710, Note_on_c, 2, 59, 64
4, 91950, Note_off_c, 2, 59, 70
4, 92430, Note_on_c, 2, 61, 64
4, 92670, Note_off_c, 2, 61, 66
4, 92670, Note_on_c, 2, 66, 64
4, 92900, Note_off_c, 2, 66, 74
4, 92913, Note_on_c, 2, 66, 64
4, 93143, Note_off_c, 2, 66, 74
4, 93156, Note_on_c, 2, 66, 64
4, 93396, Note_off_c, 2, 66, 54
4, 93396, Note_on_c, 2, 64, 64
4, 93516, Note_off_c, 2, 64, 43
4, 93516, Note_on_c, 2, 63, 64
4, 93636, Note_off_c, 2, 63, 43
4, 93636, Note_on_c, 2, 64, 64
4, 94116, Note_off_c, 2, 64, 39
4, 94116, Note_on_c, 2, 66, 64
4, 94826, Note_off_c, 2, 66, 69
4, 94839, Note_on_c, 2, 66, 64
4, 94959, Note_off_c, 2, 66, 65
4, 94959, Note_on_c, 2, 68, 64
4, 95079, Note_off_c, 2, 68, 62
4, 95079, Note_on_c, 2, 69, 64
4, 95319, Note_off_c, 2, 69, 65
4, 95319, Note_on_c, 2, 68, 64
4, 95439, Note_off_c, 2, 68, 48
4, 95439, Note_on_c, 2, 66, 64
4, 95559, Note_off_c, 2, 66, 68
4, 95559, Note_on_c, 2, 68, 64
4, 95799, Note_off_c, 2, 68, 68
4, 95799, Note_on_c, 2, 66, 64
4, 95919, Note_off_c, 2, 66, 46
4, 95919, Note_on_c, 2, 64, 64
4, 96039, Note_off_c, 2, 64, 49
4, 96039, Note_on_c, 2, 63, 64
4, 96519, Note_off_c, 2, 63, 50
4, 96519, Note_on_c, 2, 64, 64
4, 97479, Note_off_c, 2, 64, 38
4, 97479, Note_on_c, 2, 63, 64
4, 97719, Note_off_c, 2, 63, 37
4, 97719, Note_on_c, 2, 61, 64
4, 97959, Note_off_c, 2, 61, 72
4, 97959, Note_on_c, 2, 63, 64
4, 98199, Note_off_c, 2, 63, 66
4, 98199, Note_on_c, 2, 65, 64
4, 98319, Note_off_c, 2, 65, 51
4, 98319, Note_on_c, 2, 66, 64
4, 98439, Note_off_c, 2, 66, 68
4, 98439, Note_on_c, 2, 68, 64
4, 98679, Note_off_c, 2, 68, 66
4, 98679, Note_on_c, 2, 68, 64
4, 98919, Note_off_c, 2, 68, 63
4, 98919, Note_on_c, 2, 68, 64
4, 99159, Note_off_c, 2, 68, 72
4, 99159, Note_on_c, 2, 66, 64
4, 99279, Note_off_c, 2, 66, 66
4, 99279, Note_on_c, 2, 64, 64
4, 99399, Note_off_c, 2, 64, 46
4, 99399, Note_on_c, 2, 63, 64
4, 99639, Note_off_c, 2, 63, 52
4, 99639, Note_on_c, 2, 61, 64
4, 99879, Note_off_c, 2, 61, 53
4, 99879, Note_on_c, 2, 60, 64
4, 100359, Note_off_c, 2, 60, 61
4, 100359, Note_on_c, 2, 61, 64
4, 101319, Note_off_c, 2, 61, 68
4, 101319, Note_on_c, 2, 63, 64
4, 101799, Note_off_c, 2, 63, 58
4, 101799, Note_on_c, 2, 61, 64
4, 102029, Note_off_c, 2, 61, 69
4, 102042, Note_on_c, 2, 61, 64
4, 102282, Note_off_c, 2, 61, 63
4, 102282, Note_on_c, 2, 66, 64
4, 102512, Note_off_c, 2, 66, 76
4, 102525, Note_on_c, 2, 66, 64
4, 102755, Note_off_c, 2, 66, 73
4, 102768, Note_on_c, 2, 66, 64
4, 103008, Note_off_c, 2, 66, 57
4, 103008, Note_on_c, 2, 64, 64
4, 103128, Note_off_c, 2, 64, 48
4, 103128, Note_on_c, 2, 63, 64
4, 103248, Note_off_c, 2, 63, 46
4, 103248, Note_on_c, 2, 64, 64
4, 103488, Note_off_c, 2, 64, 41
4, 103488, Note_on_c, 2, 66, 64
4, 103608, Note_off_c, 2, 66, 62
4, 103608, Note_on_c, 2, 68, 64
4, 103728, Note_off_c, 2, 68, 79
4, 103728, Note_on_c, 2, 70, 64
4, 104171, Note_off_c, 2, 70, 73
4, 104208, Note_on_c, 2, 63, 64
4, 105168, Note_off_c, 2, 63, 40
4, 105168, Note_on_c, 2, 64, 64
4, 105648, Note_off_c, 2, 64, 48
4, 105648, Note_on_c, 2, 63, 64
4, 106368, Note_off_c, 2, 63, 52
4, 106368, Note_on_c, 2, 64, 64
4, 106488, Note_off_c, 2, 64, 49
4, 106488, Note_on_c, 2, 66, 64
4, 106608, Note_off_c, 2, 66, 76
4, 106608, Note_on_c, 2, 65, 64
4, 106848, Note_off_c, 2, 65, 46
4, 106848, Note_on_c, 2, 61, 64
4, 107798, Note_off_c, 2, 61, 73
4, 107811, Note_on_c, 2, 61, 64
4, 108051, Note_off_c, 2, 61, 57
4, 108051, Note_on_c, 2, 66, 64
4, 108281, Note_off_c, 2, 66, 70
4, 108294, Note_on_c, 2, 66, 64
4, 108524, Note_off_c, 2, 66, 74
4, 108537, Note_on_c, 2, 66, 64
4, 108982, Note_off_c, 2, 66, 77
4, 109017, Note_on_c, 2, 65, 64
4, 109257, Note_off_c, 2, 65, 65
4, 109257, Note_on_c, 2, 63, 64
4, 109497, Note_off_c, 2, 63, 57
4, 109497, Note_on_c, 2, 65, 64
4, 110457, Note_off_c, 2, 65, 80
4, 110457, End_track
5, 0, Start_track
5, 0, Text_t, "LH M"
5, 2880, Note_on_c, 3, 56, 64
5, 3840, Note_off_c, 3, 56, 69
5, 3840, Note_on_c, 3, 55, 64
5, 4320, Note_off_c, 3, 55, 36
5, 4320, Note_on_c, 3, 59, 64
5, 4800, Note_off_c, 3, 59, 54
5, 4800, Note_on_c, 3, 58, 64
5, 5760, Note_off_c, 3, 58, 69
5, 5760, Note_on_c, 3, 56, 64
5, 6240, Note_off_c, 3, 56, 62
5, 6240, Note_on_c, 3, 57, 64
5, 6960, Note_off_c, 3, 57, 49
5, 6960, Note_on_c, 3, 56, 64
5, 7080, Note_off_c, 3, 56, 66
5, 7080, Note_on_c, 3, 54, 64
5, 7200, Note_off_c, 3, 54, 68
5, 7200, Note_on_c, 3, 56, 64
5, 7440, Note_off_c, 3, 56, 73
5, 7440, Note_on_c, 3, 61, 64
5, 7680, Note_off_c, 3, 61, 62
5, 7680, Note_on_c, 3, 54, 64
5, 7920, Note_off_c, 3, 54, 59
5, 7920, Note_on_c, 3, 56, 64
5, 8040, Note_off_c, 3, 56, 66
5, 8040, Note_on_c, 3, 57, 64
5, 8160, Note_off_c, 3, 57, 57
5, 8160, Note_on_c, 3, 59, 64
5, 8880, Note_off_c, 3, 59, 66
5, 8880, Note_on_c, 3, 57, 64
5, 9120, Note_off_c, 3, 57, 52
5, 9120, Note_on_c, 3, 56, 64
5, 9360, Note_off_c, 3, 56, 57
5, 9360, Note_on_c, 3, 54, 64
5, 9600, Note_off_c, 3, 54, 74
5, 9600, Note_on_c, 3, 56, 64
5, 10080, Note_off_c, 3, 56, 62
5, 10080, Note_on_c, 3, 54, 64
5, 10320, Note_off_c, 3, 54, 69
5, 10320, Note_on_c, 3, 52, 64
5, 10560, Note_off_c, 3, 52, 61
5, 10560, Note_on_c, 3, 51, 64
5, 11280, Note_off_c, 3, 51, 69
5, 11280, Note_on_c, 3, 50, 64
5, 11520, Note_off_c, 3, 50, 59
5, 11520, Note_on_c, 3, 49, 64
5, 13440, Note_off_c, 3, 49, 86
5, 17760, Note_on_c, 3, 56, 64
5, 18240, Note_off_c, 3, 56, 72
5, 18240, Note_on_c, 3, 55, 64
5, 18720, Note_off_c, 3, 55, 68
5, 18720, Note_on_c, 3, 59, 64
5, 19200, Note_off_c, 3, 59, 63
5, 19200, Note_on_c, 3, 58, 64
5, 20160, Note_off_c, 3, 58, 76
5, 20160, Note_on_c, 3, 56, 64
5, 20400, Note_off_c, 3, 56, 59
5, 20400, Note_on_c, 3, 57, 64
5, 20640, Note_off_c, 3, 57, 62
5, 20640, Note_on_c, 3, 56, 64
5, 20880, Note_off_c, 3, 56, 66
5, 20880, Note_on_c, 3, 54, 64
5, 21120, Note_off_c, 3, 54, 65
5, 21120, Note_on_c, 3, 53, 64
5, 21600, Note_off_c, 3, 53, 61
5, 21600, Note_on_c, 3, 57, 64
5, 22080, Note_off_c, 3, 57, 66
5, 22080, Note_on_c, 3, 56, 64
5, 23040, Note_off_c, 3, 56, 61
5, 23040, Note_on_c, 3, 54, 64
5, 24240, Note_off_c, 3, 54, 46
5, 24240, Note_on_c, 3, 56, 64
5, 24360, Note_off_c, 3, 56, 44
5, 24360, Note_on_c, 3, 54, 64
5, 24480, Note_off_c, 3, 54, 57
5, 24480, Note_on_c, 3, 52, 64
5, 24720, Note_off_c, 3, 52, 43
5, 24720, Note_on_c, 3, 54, 64
5, 24840, Note_off_c, 3, 54, 51
5, 24840, Note_on_c, 3, 56, 64
5, 24960, Note_off_c, 3, 56, 23
5, 24960, Note_on_c, 3, 57, 64
5, 25200, Note_off_c, 3, 57, 62
5, 25200, Note_on_c, 3, 54, 64
5, 25440, Note_off_c, 3, 54, 61
5, 25440, Note_on_c, 3, 56, 64
5, 25920, Note_off_c, 3, 56, 63
5, 25920, Note_on_c, 3, 49, 64
5, 28320, Note_off_c, 3, 49, 79
5, 28320, Note_on_c, 3, 54, 64
5, 28800, Note_off_c, 3, 54, 70
5, 28800, Note_on_c, 3, 52, 64
5, 29040, Note_off_c, 3, 52, 68
5, 29040, Note_on_c, 3, 51, 64
5, 29280, Note_off_c, 3, 51, 77
5, 29280, Note_on_c, 3, 52, 64
5, 29520, Note_off_c, 3, 52, 61
5, 29520, Note_on_c, 3, 54, 64
5, 29760, Note_off_c, 3, 54, 70
5, 29760, Note_on_c, 3, 56, 64
5, 30000, Note_off_c, 3, 56, 63
5, 30000, Note_on_c, 3, 54, 64
5, 30240, Note_off_c, 3, 54, 65
5, 30240, Note_on_c, 3, 56, 64
5, 30480, Note_off_c, 3, 56, 40
5, 30480, Note_on_c, 3, 57, 64
5, 30720, Note_off_c, 3, 57, 68
5, 30720, Note_on_c, 3, 59, 64
5, 33120, Note_off_c, 3, 59, 68
5, 33120, Note_on_c, 3, 61, 64
5, 33600, Note_off_c, 3, 61, 76
5, 33600, Note_on_c, 3, 60, 64
5, 34080, Note_off_c, 3, 60, 66
5, 34080, Note_on_c, 3, 64, 64
5, 34560, Note_off_c, 3, 64, 62
5, 34560, Note_on_c, 3, 63, 64
5, 35520, Note_off_c, 3, 63, 63
5, 35520, Note_on_c, 3, 61, 64
5, 36720, Note_off_c, 3, 61, 68
5, 36720, Note_on_c, 3, 59, 64
5, 36960, Note_off_c, 3, 59, 58
5, 36960, Note_on_c, 3, 58, 64
5, 37200, Note_off_c, 3, 58, 61
5, 37200, Note_on_c, 3, 56, 64
5, 37680, Note_off_c, 3, 56, 63
5, 37680, Note_on_c, 3, 55, 64
5, 37800, Note_off_c, 3, 55, 65
5, 37800, Note_on_c, 3, 53, 64
5, 37920, Note_off_c, 3, 53, 53
5, 37920, Note_on_c, 3, 55, 64
5, 38400, Note_off_c, 3, 55, 44
5, 38400, Note_on_c, 3, 56, 64
5, 38520, Note_off_c, 3, 56, 65
5, 38520, Note_on_c, 3, 58, 64
5, 38640, Note_off_c, 3, 58, 49
5, 38640, Note_on_c, 3, 56, 64
5, 38760, Note_off_c, 3, 56, 70
5, 38760, Note_on_c, 3, 55, 64
5, 38880, Note_off_c, 3, 55, 44
5, 38880, Note_on_c, 3, 56, 64
5, 39000, Note_off_c, 3, 56, 54
5, 39000, Note_on_c, 3, 58, 64
5, 39120, Note_off_c, 3, 58, 48
5, 39120, Note_on_c, 3, 59, 64
5, 39240, Note_off_c, 3, 59, 49
5, 39240, Note_on_c, 3, 56, 64
5, 39360, Note_off_c, 3, 56, 52
5, 39360, Note_on_c, 3, 57, 64
5, 39480, Note_off_c, 3, 57, 42
5, 39480, Note_on_c, 3, 59, 64
5, 39600, Note_off_c, 3, 59, 59
5, 39600, Note_on_c, 3, 57, 64
5, 39720, Note_off_c, 3, 57, 31
5, 39720, Note_on_c, 3, 56, 64
5, 39840, Note_off_c, 3, 56, 49
5, 39840, Note_on_c, 3, 58, 64
5, 39960, Note_off_c, 3, 58, 70
5, 39960, Note_on_c, 3, 59, 64
5, 40080, Note_off_c, 3, 59, 38
5, 40080, Note_on_c, 3, 61, 64
5, 40200, Note_off_c, 3, 61, 52
5, 40200, Note_on_c, 3, 58, 64
5, 40320, Note_off_c, 3, 58, 68
5, 40320, Note_on_c, 3, 59, 64
5, 40440, Note_off_c, 3, 59, 41
5, 40440, Note_on_c, 3, 61, 64
5, 40560, Note_off_c, 3, 61, 49
5, 40560, Note_on_c, 3, 59, 64
5, 40680, Note_off_c, 3, 59, 42
5, 40680, Note_on_c, 3, 58, 64
5, 40800, Note_off_c, 3, 58, 74
5, 40800, Note_on_c, 3, 60, 64
5, 40920, Note_off_c, 3, 60, 46
5, 40920, Note_on_c, 3, 61, 64
5, 41040, Note_off_c, 3, 61, 52
5, 41040, Note_on_c, 3, 63, 64
5, 41160, Note_off_c, 3, 63, 40
5, 41160, Note_on_c, 3, 60, 64
5, 41280, Note_off_c, 3, 60, 52
5, 41280, Note_on_c, 3, 61, 64
5, 42240, Note_off_c, 3, 61, 82
5, 48480, Note_on_c, 3, 54, 64
5, 48960, Note_off_c, 3, 54, 66
5, 48960, Note_on_c, 3, 53, 64
5, 49440, Note_off_c, 3, 53, 61
5, 49440, Note_on_c, 3, 57, 64
5, 49920, Note_off_c, 3, 57, 66
5, 49920, Note_on_c, 3, 56, 64
5, 50880, Note_off_c, 3, 56, 70
5, 50880, Note_on_c, 3, 54, 64
5, 51840, Note_off_c, 3, 54, 77
5, 56880, Note_on_c, 3, 56, 64
5, 57120, Note_off_c, 3, 56, 61
5, 57120, Note_on_c, 3, 61, 64
5, 57350, Note_off_c, 3, 61, 72
5, 57363, Note_on_c, 3, 61, 64
5, 57593, Note_off_c, 3, 61, 48
5, 57606, Note_on_c, 3, 61, 64
5, 57846, Note_off_c, 3, 61, 34
5, 57846, Note_on_c, 3, 60, 64
5, 57966, Note_off_c, 3, 60, 49
5, 57966, Note_on_c, 3, 58, 64
5, 58086, Note_off_c, 3, 58, 47
5, 58086, Note_on_c, 3, 60, 64
5, 58566, Note_off_c, 3, 60, 50
5, 58566, Note_on_c, 3, 61, 64
5, 59046, Note_off_c, 3, 61, 43
5, 59046, Note_on_c, 3, 57, 64
5, 59526, Note_off_c, 3, 57, 46
5, 59526, Note_on_c, 3, 54, 64
5, 60006, Note_off_c, 3, 54, 45
5, 60006, Note_on_c, 3, 56, 64
5, 60486, Note_off_c, 3, 56, 43
5, 60486, Note_on_c, 3, 53, 64
5, 60966, Note_off_c, 3, 53, 45
5, 60966, Note_on_c, 3, 54, 64
5, 61436, Note_off_c, 3, 54, 68
5, 61449, Note_on_c, 3, 54, 64
5, 61689, Note_off_c, 3, 54, 55
5, 61689, Note_on_c, 3, 52, 64
5, 61809, Note_off_c, 3, 52, 61
5, 61809, Note_on_c, 3, 50, 64
5, 61929, Note_off_c, 3, 50, 57
5, 61929, Note_on_c, 3, 52, 64
5, 62409, Note_off_c, 3, 52, 80
5, 62409, Note_on_c, 3, 51, 64
5, 63369, Note_off_c, 3, 51, 79
5, 65529, Note_on_c, 3, 51, 64
5, 65769, Note_off_c, 3, 51, 63
5, 65769, Note_on_c, 3, 56, 64
5, 65999, Note_off_c, 3, 56, 55
5, 66012, Note_on_c, 3, 56, 64
5, 66242, Note_off_c, 3, 56, 53
5, 66255, Note_on_c, 3, 56, 64
5, 66495, Note_off_c, 3, 56, 59
5, 66495, Note_on_c, 3, 54, 64
5, 66615, Note_off_c, 3, 54, 46
5, 66615, Note_on_c, 3, 52, 64
5, 66735, Note_off_c, 3, 52, 63
5, 66735, Note_on_c, 3, 54, 64
5, 67335, Note_off_c, 3, 54, 51
5, 67335, Note_on_c, 3, 57, 64
5, 67455, Note_off_c, 3, 57, 44
5, 67455, Note_on_c, 3, 56, 64
5, 67575, Note_off_c, 3, 56, 51
5, 67575, Note_on_c, 3, 54, 64
5, 67695, Note_off_c, 3, 54, 46
5, 67695, Note_on_c, 3, 53, 64
5, 67815, Note_off_c, 3, 53, 51
5, 67815, Note_on_c, 3, 51, 64
5, 67935, Note_off_c, 3, 51, 48
5, 67935, Note_on_c, 3, 53, 64
5, 68055, Note_off_c, 3, 53, 43
5, 68055, Note_on_c, 3, 49, 64
5, 68175, Note_off_c, 3, 49, 69
5, 68175, Note_on_c, 3, 54, 64
5, 68295, Note_off_c, 3, 54, 51
5, 68295, Note_on_c, 3, 53, 64
5, 68415, Note_off_c, 3, 53, 46
5, 68415, Note_on_c, 3, 54, 64
5, 68535, Note_off_c, 3, 54, 48
5, 68535, Note_on_c, 3, 56, 64
5, 68655, Note_off_c, 3, 56, 52
5, 68655, Note_on_c, 3, 57, 64
5, 68775, Note_off_c, 3, 57, 46
5, 68775, Note_on_c, 3, 56, 64
5, 68895, Note_off_c, 3, 56, 47
5, 68895, Note_on_c, 3, 57, 64
5, 69015, Note_off_c, 3, 57, 65
5, 69015, Note_on_c, 3, 59, 64
5, 69135, Note_off_c, 3, 59, 65
5, 69135, Note_on_c, 3, 61, 64
5, 69255, Note_off_c, 3, 61, 52
5, 69255, Note_on_c, 3, 60, 64
5, 69375, Note_off_c, 3, 60, 51
5, 69375, Note_on_c, 3, 61, 64
5, 69495, Note_off_c, 3, 61, 55
5, 69495, Note_on_c, 3, 63, 64
5, 69615, Note_off_c, 3, 63, 59
5, 70335, Note_on_c, 3, 44, 64
5, 70575, Note_off_c, 3, 44, 63
5, 70575, Note_on_c, 3, 49, 64
5, 70805, Note_off_c, 3, 49, 63
5, 70818, Note_on_c, 3, 49, 64
5, 71048, Note_off_c, 3, 49, 58
5, 71061, Note_on_c, 3, 49, 64
5, 71301, Note_off_c, 3, 49, 31
5, 71301, Note_on_c, 3, 48, 64
5, 71421, Note_off_c, 3, 48, 50
5, 71421, Note_on_c, 3, 46, 64
5, 71541, Note_off_c, 3, 46, 58
5, 71541, Note_on_c, 3, 48, 64
5, 72021, Note_off_c, 3, 48, 42
5, 72021, Note_on_c, 3, 49, 64
5, 72501, Note_off_c, 3, 49, 83
5, 76821, Note_on_c, 3, 49, 64
5, 77781, Note_off_c, 3, 49, 79
5, 77781, Note_on_c, 3, 48, 64
5, 78261, Note_off_c, 3, 48, 47
5, 78261, Note_on_c, 3, 52, 64
5, 78741, Note_off_c, 3, 52, 77
5, 78741, Note_on_c, 3, 51, 64
5, 79701, Note_off_c, 3, 51, 73
5, 79701, Note_on_c, 3, 49, 64
5, 79941, Note_off_c, 3, 49, 57
5, 79941, Note_on_c, 3, 52, 64
5, 80181, Note_off_c, 3, 52, 68
5, 80181, Note_on_c, 3, 57, 64
5, 80411, Note_off_c, 3, 57, 53
5, 80424, Note_on_c, 3, 57, 64
5, 80654, Note_off_c, 3, 57, 52
5, 80667, Note_on_c, 3, 57, 64
5, 80907, Note_off_c, 3, 57, 50
5, 80907, Note_on_c, 3, 56, 64
5, 81027, Note_off_c, 3, 56, 43
5, 81027, Note_on_c, 3, 54, 64
5, 81147, Note_off_c, 3, 54, 63
5, 81147, Note_on_c, 3, 56, 64
5, 82107, Note_off_c, 3, 56, 65
5, 82107, Note_on_c, 3, 54, 64
5, 82587, Note_off_c, 3, 54, 52
5, 82587, Note_on_c, 3, 56, 64
5, 83547, Note_off_c, 3, 56, 48
5, 83547, Note_on_c, 3, 57, 64
5, 84027, Note_off_c, 3, 57, 47
5, 84027, Note_on_c, 3, 54, 64
5, 84617, Note_off_c, 3, 54, 65
5, 84630, Note_on_c, 3, 54, 64
5, 84750, Note_off_c, 3, 54, 50
5, 84750, Note_on_c, 3, 52, 64
5, 84870, Note_off_c, 3, 52, 52
5, 84870, Note_on_c, 3, 51, 64
5, 84990, Note_off_c, 3, 51, 46
5, 84990, Note_on_c, 3, 52, 64
5, 85230, Note_off_c, 3, 52, 29
5, 85230, Note_on_c, 3, 49, 64
5, 85470, Note_off_c, 3, 49, 62
5, 85470, Note_on_c, 3, 56, 64
5, 86430, Note_off_c, 3, 56, 46
5, 86430, Note_on_c, 3, 54, 64
5, 86910, Note_off_c, 3, 54, 68
5, 86910, Note_on_c, 3, 51, 64
5, 87390, Note_off_c, 3, 51, 50
5, 87390, Note_on_c, 3, 52, 64
5, 87510, Note_off_c, 3, 52, 62
5, 87510, Note_on_c, 3, 51, 64
5, 87630, Note_off_c, 3, 51, 59
5, 87630, Note_on_c, 3, 52, 64
5, 87750, Note_off_c, 3, 52, 49
5, 87750, Note_on_c, 3, 54, 64
5, 87870, Note_off_c, 3, 54, 52
5, 87870, Note_on_c, 3, 52, 64
5, 87990, Note_off_c, 3, 52, 45
5, 87990, Note_on_c, 3, 51, 64
5, 88110, Note_off_c, 3, 51, 49
5, 88110, Note_on_c, 3, 49, 64
5, 88230, Note_off_c, 3, 49, 54
5, 88230, Note_on_c, 3, 52, 64
5, 88350, Note_off_c, 3, 52, 53
5, 88350, Note_on_c, 3, 51, 64
5, 88470, Note_off_c, 3, 51, 46
5, 88470, Note_on_c, 3, 49, 64
5, 88590, Note_off_c, 3, 49, 43
5, 88590, Note_on_c, 3, 51, 64
5, 88710, Note_off_c, 3, 51, 41
5, 88710, Note_on_c, 3, 52, 64
5, 88830, Note_off_c, 3, 52, 63
5, 88830, Note_on_c, 3, 51, 64
5, 88950, Note_off_c, 3, 51, 62
5, 88950, Note_on_c, 3, 49, 64
5, 89070, Note_off_c, 3, 49, 57
5, 89070, Note_on_c, 3, 48, 64
5, 89190, Note_off_c, 3, 48, 37
5, 89190, Note_on_c, 3, 51, 64
5, 89310, Note_off_c, 3, 51, 52
5, 89310, Note_on_c, 3, 49, 64
5, 89550, Note_off_c, 3, 49, 85
5, 91470, Note_on_c, 3, 54, 64
5, 91710, Note_off_c, 3, 54, 51
5, 91710, Note_on_c, 3, 59, 64
5, 91940, Note_off_c, 3, 59, 54
5, 91953, Note_on_c, 3, 59, 64
5, 92183, Note_off_c, 3, 59, 62
5, 92196, Note_on_c, 3, 59, 64
5, 92436, Note_off_c, 3, 59, 53
5, 92436, Note_on_c, 3, 57, 64
5, 92556, Note_off_c, 3, 57, 40
5, 92556, Note_on_c, 3, 56, 64
5, 92676, Note_off_c, 3, 56, 62
5, 92676, Note_on_c, 3, 57, 64
5, 92796, Note_off_c, 3, 57, 40
5, 92796, Note_on_c, 3, 56, 64
5, 92916, Note_off_c, 3, 56, 51
5, 92916, Note_on_c, 3, 54, 64
5, 93036, Note_off_c, 3, 54, 48
5, 93036, Note_on_c, 3, 52, 64
5, 93156, Note_off_c, 3, 52, 52
5, 93156, Note_on_c, 3, 51, 64
5, 93636, Note_off_c, 3, 51, 73
5, 93876, Note_on_c, 3, 56, 64
5, 94116, Note_off_c, 3, 56, 72
5, 94116, Note_on_c, 3, 63, 64
5, 94346, Note_off_c, 3, 63, 57
5, 94359, Note_on_c, 3, 63, 64
5, 94589, Note_off_c, 3, 63, 49
5, 94602, Note_on_c, 3, 63, 64
5, 94842, Note_off_c, 3, 63, 52
5, 94842, Note_on_c, 3, 61, 64
5, 94962, Note_off_c, 3, 61, 55
5, 94962, Note_on_c, 3, 60, 64
5, 95082, Note_off_c, 3, 60, 52
5, 95082, Note_on_c, 3, 61, 64
5, 96042, Note_off_c, 3, 61, 76
5, 96042, Note_on_c, 3, 60, 64
5, 96522, Note_off_c, 3, 60, 59
5, 96522, Note_on_c, 3, 64, 64
5, 97242, Note_off_c, 3, 64, 52
5, 97242, Note_on_c, 3, 49, 64
5, 97482, Note_off_c, 3, 49, 83
5, 97482, Note_on_c, 3, 54, 64
5, 97712, Note_off_c, 3, 54, 61
5, 97725, Note_on_c, 3, 54, 64
5, 97955, Note_off_c, 3, 54, 48
5, 97968, Note_on_c, 3, 54, 64
5, 98208, Note_off_c, 3, 54, 42
5, 98208, Note_on_c, 3, 53, 64
5, 98328, Note_off_c, 3, 53, 51
5, 98328, Note_on_c, 3, 51, 64
5, 98448, Note_off_c, 3, 51, 62
5, 98448, Note_on_c, 3, 49, 64
5, 99408, Note_on_c, 3, 51, 64
5, 99420, Note_off_c, 3, 49, 73
5, 100087, Note_off_c, 3, 51, 63
5, 100128, Note_on_c, 3, 51, 64
5, 100368, Note_off_c, 3, 51, 68
5, 100368, Note_on_c, 3, 56, 64
5, 100598, Note_off_c, 3, 56, 53
5, 100611, Note_on_c, 3, 56, 64
5, 100841, Note_off_c, 3, 56, 58
5, 100854, Note_on_c, 3, 56, 64
5, 101094, Note_off_c, 3, 56, 57
5, 101094, Note_on_c, 3, 54, 64
5, 101214, Note_off_c, 3, 54, 43
5, 101214, Note_on_c, 3, 52, 64
5, 101334, Note_off_c, 3, 52, 66
5, 101334, Note_on_c, 3, 54, 64
5, 101564, Note_off_c, 3, 54, 66
5, 101577, Note_on_c, 3, 54, 64
5, 101807, Note_off_c, 3, 54, 66
5, 101820, Note_on_c, 3, 54, 64
5, 102060, Note_off_c, 3, 54, 49
5, 102060, Note_on_c, 3, 52, 64
5, 102180, Note_off_c, 3, 52, 61
5, 102180, Note_on_c, 3, 51, 64
5, 102300, Note_off_c, 3, 51, 58
5, 102300, Note_on_c, 3, 52, 64
5, 102540, Note_off_c, 3, 52, 47
5, 102540, Note_on_c, 3, 51, 64
5, 102660, Note_off_c, 3, 51, 46
5, 102660, Note_on_c, 3, 49, 64
5, 102780, Note_off_c, 3, 49, 63
5, 102780, Note_on_c, 3, 51, 64
5, 103020, Note_off_c, 3, 51, 66
5, 103020, Note_on_c, 3, 44, 64
5, 103260, Note_off_c, 3, 44, 77
5, 103260, Note_on_c, 3, 49, 64
5, 103490, Note_off_c, 3, 49, 68
5, 103503, Note_on_c, 3, 49, 64
5, 103733, Note_off_c, 3, 49, 58
5, 103746, Note_on_c, 3, 49, 64
5, 103986, Note_off_c, 3, 49, 43
5, 103986, Note_on_c, 3, 47, 64
5, 104106, Note_off_c, 3, 47, 59
5, 104106, Note_on_c, 3, 46, 64
5, 104226, Note_off_c, 3, 46, 55
5, 104226, Note_on_c, 3, 49, 64
5, 104826, Note_off_c, 3, 49, 51
5, 104826, Note_on_c, 3, 52, 64
5, 104946, Note_off_c, 3, 52, 64
5, 104946, Note_on_c, 3, 54, 64
5, 105306, Note_off_c, 3, 54, 61
5, 105306, Note_on_c, 3, 52, 64
5, 105426, Note_off_c, 3, 52, 49
5, 105426, Note_on_c, 3, 51, 64
5, 105546, Note_off_c, 3, 51, 49
5, 105546, Note_on_c, 3, 49, 64
5, 105666, Note_off_c, 3, 49, 52
5, 105666, Note_on_c, 3, 56, 64
5, 106626, Note_off_c, 3, 56, 49
5, 106626, Note_on_c, 3, 57, 64
5, 107346, Note_off_c, 3, 57, 52
5, 107346, Note_on_c, 3, 56, 64
5, 107466, Note_off_c, 3, 56, 55
5, 107466, Note_on_c, 3, 57, 64
5, 107586, Note_off_c, 3, 57, 41
5, 107586, Note_on_c, 3, 59, 64
5, 107826, Note_off_c, 3, 59, 50
5, 107826, Note_on_c, 3, 57, 64
5, 108066, Note_off_c, 3, 57, 52
5, 108066, Note_on_c, 3, 56, 64
5, 108306, Note_off_c, 3, 56, 49
5, 108306, Note_on_c, 3, 54, 64
5, 108546, Note_off_c, 3, 54, 70
5, 108546, Note_on_c, 3, 61, 64
5, 108786, Note_off_c, 3, 61, 53
5, 108786, Note_on_c, 3, 59, 64
5, 108906, Note_off_c, 3, 59, 43
5, 108906, Note_on_c, 3, 57, 64
5, 109026, Note_off_c, 3, 57, 51
5, 109026, Note_on_c, 3, 56, 64
5, 109266, Note_off_c, 3, 56, 52
5, 109266, Note_on_c, 3, 54, 64
5, 109506, Note_off_c, 3, 54, 38
5, 109506, Note_on_c, 3, 56, 64
5, 110466, Note_off_c, 3, 56, 77
5, 110466, End_track
6, 0, Start_track
6, 0, Text_t, "LH L"
6, 0, Note_on_c, 3, 49, 64
6, 960, Note_off_c, 3, 49, 73
6, 960, Note_on_c, 3, 48, 64
6, 1440, Note_off_c, 3, 48, 58
6, 1440, Note_on_c, 3, 52, 64
6, 1920, Note_off_c, 3, 52, 70
6, 1920, Note_on_c, 3, 51, 64
6, 2880, Note_off_c, 3, 51, 74
6, 2880, Note_on_c, 3, 49, 64
6, 3120, Note_off_c, 3, 49, 82
6, 3120, Note_on_c, 3, 51, 64
6, 3360, Note_off_c, 3, 51, 74
6, 3360, Note_on_c, 3, 52, 64
6, 4080, Note_off_c, 3, 52, 49
6, 4080, Note_on_c, 3, 51, 64
6, 4200, Note_off_c, 3, 51, 58
6, 4200, Note_on_c, 3, 49, 64
6, 4320, Note_off_c, 3, 49, 77
6, 4320, Note_on_c, 3, 51, 64
6, 4560, Note_off_c, 3, 51, 74
6, 4560, Note_on_c, 3, 56, 64
6, 4800, Note_off_c, 3, 56, 52
6, 4800, Note_on_c, 3, 49, 64
6, 5040, Note_off_c, 3, 49, 54
6, 5040, Note_on_c, 3, 51, 64
6, 5160, Note_off_c, 3, 51, 73
6, 5160, Note_on_c, 3, 52, 64
6, 5280, Note_off_c, 3, 52, 73
6, 5280, Note_on_c, 3, 54, 64
6, 6000, Note_off_c, 3, 54, 66
6, 6000, Note_on_c, 3, 52, 64
6, 6240, Note_off_c, 3, 52, 53
6, 6240, Note_on_c, 3, 51, 64
6, 6480, Note_off_c, 3, 51, 66
6, 6480, Note_on_c, 3, 49, 64
6, 6720, Note_off_c, 3, 49, 77
6, 6720, Note_on_c, 3, 51, 64
6, 7200, Note_off_c, 3, 51, 66
6, 7200, Note_on_c, 3, 49, 64
6, 7920, Note_off_c, 3, 49, 70
6, 7920, Note_on_c, 3, 47, 64
6, 8160, Note_off_c, 3, 47, 50
6, 8160, Note_on_c, 3, 45, 64
6, 8400, Note_off_c, 3, 45, 49
6, 8400, Note_on_c, 3, 44, 64
6, 8640, Note_off_c, 3, 44, 74
6, 8640, Note_on_c, 3, 45, 64
6, 9120, Note_off_c, 3, 45, 52
6, 9120, Note_on_c, 3, 46, 64
6, 9600, Note_off_c, 3, 46, 77
6, 9600, Note_on_c, 3, 48, 64
6, 10080, Note_off_c, 3, 48, 65
6, 10080, Note_on_c, 3, 49, 64
6, 10560, Note_off_c, 3, 49, 72
6, 10560, Note_on_c, 3, 44, 64
6, 10800, Note_off_c, 3, 44, 61
6, 10800, Note_on_c, 3, 45, 64
6, 11040, Note_off_c, 3, 45, 69
6, 11040, Note_on_c, 3, 47, 64
6, 11760, Note_off_c, 3, 47, 49
6, 11760, Note_on_c, 3, 45, 64
6, 12000, Note_off_c, 3, 45, 58
6, 12000, Note_on_c, 3, 44, 64
6, 12240, Note_off_c, 3, 44, 38
6, 12240, Note_on_c, 3, 42, 64
6, 12480, Note_off_c, 3, 42, 70
6, 12480, Note_on_c, 3, 49, 64
6, 12960, Note_off_c, 3, 49, 74
6, 12960, Note_on_c, 3, 45, 64
6, 13680, Note_off_c, 3, 45, 45
6, 13680, Note_on_c, 3, 44, 64
6, 13920, Note_off_c, 3, 44, 57
6, 13920, Note_on_c, 3, 42, 64
6, 14160, Note_off_c, 3, 42, 51
6, 14160, Note_on_c, 3, 40, 64
6, 14400, Note_off_c, 3, 40, 46
6, 14400, Note_on_c, 3, 42, 64
6, 14880, Note_off_c, 3, 42, 74
6, 14880, Note_on_c, 3, 44, 64
6, 15360, Note_off_c, 3, 44, 77
6, 15360, Note_on_c, 3, 45, 64
6, 15600, Note_off_c, 3, 45, 51
6, 15600, Note_on_c, 3, 44, 64
6, 15840, Note_off_c, 3, 44, 76
6, 15840, Note_on_c, 3, 45, 64
6, 16080, Note_off_c, 3, 45, 59
6, 16080, Note_on_c, 3, 47, 64
6, 16320, Note_off_c, 3, 47, 59
6, 16320, Note_on_c, 3, 49, 64
6, 16560, Note_off_c, 3, 49, 62
6, 16560, Note_on_c, 3, 47, 64
6, 16800, Note_off_c, 3, 47, 23
6, 16800, Note_on_c, 3, 49, 64
6, 17040, Note_off_c, 3, 49, 62
6, 17040, Note_on_c, 3, 51, 64
6, 17280, Note_off_c, 3, 51, 41
6, 17280, Note_on_c, 3, 52, 64
6, 17760, Note_off_c, 3, 52, 68
6, 17760, Note_on_c, 3, 49, 64
6, 18480, Note_off_c, 3, 49, 77
6, 18480, Note_on_c, 3, 47, 64
6, 18720, Note_off_c, 3, 47, 53
6, 18720, Note_on_c, 3, 46, 64
6, 18960, Note_off_c, 3, 46, 69
6, 18960, Note_on_c, 3, 44, 64
6, 19200, Note_off_c, 3, 44, 74
6, 19200, Note_on_c, 3, 49, 64
6, 19680, Note_off_c, 3, 49, 73
6, 19680, Note_on_c, 3, 51, 64
6, 20160, Note_off_c, 3, 51, 76
6, 20160, Note_on_c, 3, 44, 64
6, 20640, Note_off_c, 3, 44, 79
6, 27360, Note_on_c, 3, 47, 64
6, 27840, Note_off_c, 3, 47, 44
6, 27840, Note_on_c, 3, 46, 64
6, 28320, Note_off_c, 3, 46, 68
6, 28320, Note_on_c, 3, 51, 64
6, 28800, Note_off_c, 3, 51, 72
6, 28800, Note_on_c, 3, 49, 64
6, 29760, Note_off_c, 3, 49, 72
6, 29760, Note_on_c, 3, 47, 64
6, 30960, Note_off_c, 3, 47, 52
6, 30960, Note_on_c, 3, 56, 64
6, 31200, Note_off_c, 3, 56, 61
6, 31200, Note_on_c, 3, 54, 64
6, 31440, Note_off_c, 3, 54, 52
6, 31440, Note_on_c, 3, 52, 64
6, 31680, Note_off_c, 3, 52, 46
6, 31680, Note_on_c, 3, 59, 64
6, 32160, Note_off_c, 3, 59, 51
6, 32160, Note_on_c, 3, 47, 64
6, 32640, Note_off_c, 3, 47, 48
6, 32640, Note_on_c, 3, 52, 64
6, 33120, Note_off_c, 3, 52, 76
6, 33120, Note_on_c, 3, 57, 64
6, 33600, Note_off_c, 3, 57, 66
6, 33600, Note_on_c, 3, 56, 64
6, 34080, Note_off_c, 3, 56, 70
6, 34080, Note_on_c, 3, 61, 64
6, 35040, Note_off_c, 3, 61, 74
6, 35040, Note_on_c, 3, 60, 64
6, 35520, Note_off_c, 3, 60, 65
6, 41520, Note_on_c, 3, 49, 64
6, 41640, Note_off_c, 3, 49, 69
6, 41640, Note_on_c, 3, 51, 64
6, 41760, Note_off_c, 3, 51, 66
6, 41760, Note_on_c, 3, 52, 64
6, 42000, Note_off_c, 3, 52, 46
6, 42000, Note_on_c, 3, 54, 64
6, 42240, Note_off_c, 3, 54, 58
6, 42240, Note_on_c, 3, 56, 64
6, 42360, Note_off_c, 3, 56, 62
6, 42360, Note_on_c, 3, 54, 64
6, 42480, Note_off_c, 3, 54, 46
6, 42480, Note_on_c, 3, 56, 64
6, 42600, Note_off_c, 3, 56, 53
6, 42600, Note_on_c, 3, 57, 64
6, 42720, Note_off_c, 3, 57, 25
6, 42720, Note_on_c, 3, 56, 64
6, 42840, Note_off_c, 3, 56, 38
6, 42840, Note_on_c, 3, 54, 64
6, 42960, Note_off_c, 3, 54, 49
6, 42960, Note_on_c, 3, 52, 64
6, 43080, Note_off_c, 3, 52, 46
6, 43080, Note_on_c, 3, 56, 64
6, 43200, Note_off_c, 3, 56, 43
6, 43200, Note_on_c, 3, 54, 64
6, 43320, Note_off_c, 3, 54, 62
6, 43320, Note_on_c, 3, 52, 64
6, 43440, Note_off_c, 3, 52, 42
6, 43440, Note_on_c, 3, 54, 64
6, 43560, Note_off_c, 3, 54, 48
6, 43560, Note_on_c, 3, 56, 64
6, 43680, Note_off_c, 3, 56, 44
6, 43680, Note_on_c, 3, 54, 64
6, 43800, Note_off_c, 3, 54, 50
6, 43800, Note_on_c, 3, 52, 64
6, 43920, Note_off_c, 3, 52, 18
6, 43920, Note_on_c, 3, 51, 64
6, 44040, Note_off_c, 3, 51, 52
6, 44040, Note_on_c, 3, 54, 64
6, 44160, Note_off_c, 3, 54, 49
6, 44160, Note_on_c, 3, 52, 64
6, 44280, Note_off_c, 3, 52, 47
6, 44280, Note_on_c, 3, 51, 64
6, 44400, Note_off_c, 3, 51, 49
6, 44400, Note_on_c, 3, 52, 64
6, 44520, Note_off_c, 3, 52, 47
6, 44520, Note_on_c, 3, 54, 64
6, 44640, Note_off_c, 3, 54, 47
6, 44640, Note_on_c, 3, 52, 64
6, 44760, Note_off_c, 3, 52, 24
6, 44760, Note_on_c, 3, 57, 64
6, 44880, Note_off_c, 3, 57, 46
6, 44880, Note_on_c, 3, 56, 64
6, 45000, Note_off_c, 3, 56, 50
6, 45000, Note_on_c, 3, 57, 64
6, 45120, Note_off_c, 3, 57, 53
6, 45120, Note_on_c, 3, 51, 64
6, 45240, Note_off_c, 3, 51, 52
6, 45240, Note_on_c, 3, 49, 64
6, 45360, Note_off_c, 3, 49, 49
6, 45360, Note_on_c, 3, 51, 64
6, 45480, Note_off_c, 3, 51, 59
6, 45480, Note_on_c, 3, 52, 64
6, 45600, Note_off_c, 3, 52, 43
6, 45600, Note_on_c, 3, 51, 64
6, 45720, Note_off_c, 3, 51, 63
6, 45720, Note_on_c, 3, 56, 64
6, 45840, Note_off_c, 3, 56, 22
6, 45840, Note_on_c, 3, 54, 64
6, 45960, Note_off_c, 3, 54, 55
6, 45960, Note_on_c, 3, 56, 64
6, 46080, Note_off_c, 3, 56, 70
6, 46080, Note_on_c, 3, 49, 64
6, 46560, Note_off_c, 3, 49, 83
6, 52080, Note_on_c, 3, 52, 64
6, 52320, Note_off_c, 3, 52, 40
6, 52320, Note_on_c, 3, 57, 64
6, 52550, Note_off_c, 3, 57, 54
6, 52563, Note_on_c, 3, 57, 64
6, 52793, Note_off_c, 3, 57, 55
6, 52806, Note_on_c, 3, 57, 64
6, 53046, Note_off_c, 3, 57, 37
6, 53046, Note_on_c, 3, 56, 64
6, 53166, Note_off_c, 3, 56, 53
6, 53166, Note_on_c, 3, 54, 64
6, 53286, Note_off_c, 3, 54, 55
6, 53286, Note_on_c, 3, 56, 64
6, 53766, Note_off_c, 3, 56, 46
6, 53766, Note_on_c, 3, 57, 64
6, 54246, Note_off_c, 3, 57, 46
6, 54246, Note_on_c, 3, 54, 64
6, 54726, Note_off_c, 3, 54, 54
6, 54726, Note_on_c, 3, 47, 64
6, 55206, Note_off_c, 3, 47, 53
6, 55206, Note_on_c, 3, 52, 64
6, 55686, Note_off_c, 3, 52, 74
6, 55686, Note_on_c, 3, 45, 64
6, 56646, Note_off_c, 3, 45, 48
6, 56646, Note_on_c, 3, 44, 64
6, 57126, Note_off_c, 3, 44, 79
6, 61686, Note_on_c, 3, 44, 64
6, 61926, Note_off_c, 3, 44, 58
6, 61926, Note_on_c, 3, 49, 64
6, 62156, Note_off_c, 3, 49, 68
6, 62169, Note_on_c, 3, 49, 64
6, 62399, Note_off_c, 3, 49, 82
6, 62412, Note_on_c, 3, 49, 89
6, 62652, Note_off_c, 3, 49, 59
6, 62652, Note_on_c, 3, 47, 66
6, 62772, Note_off_c, 3, 47, 52
6, 62772, Note_on_c, 3, 46, 68
6, 62892, Note_off_c, 3, 46, 70
6, 62892, Note_on_c, 3, 47, 72
6, 63012, Note_off_c, 3, 47, 45
6, 63012, Note_on_c, 3, 46, 70
6, 63132, Note_off_c, 3, 46, 34
6, 63132, Note_on_c, 3, 44, 70
6, 63252, Note_off_c, 3, 44, 52
6, 63252, Note_on_c, 3, 47, 50
6, 63372, Note_off_c, 3, 47, 52
6, 63372, Note_on_c, 3, 46, 66
6, 63492, Note_off_c, 3, 46, 50
6, 63492, Note_on_c, 3, 44, 51
6, 63612, Note_off_c, 3, 44, 61
6, 63612, Note_on_c, 3, 46, 53
6, 63732, Note_off_c, 3, 46, 1
6, 63732, Note_on_c, 3, 47, 37
6, 63852, Note_off_c, 3, 47, 45
6, 63852, Note_on_c, 3, 46, 52
6, 63972, Note_off_c, 3, 46, 49
6, 63972, Note_on_c, 3, 44, 52
6, 64092, Note_off_c, 3, 44, 53
6, 64092, Note_on_c, 3, 42, 62
6, 64212, Note_off_c, 3, 42, 52
6, 64212, Note_on_c, 3, 46, 57
6, 64332, Note_off_c, 3, 46, 57
6, 64332, Note_on_c, 3, 44, 61
6, 64452, Note_off_c, 3, 44, 63
6, 64452, Note_on_c, 3, 42, 55
6, 64572, Note_off_c, 3, 42, 44
6, 64572, Note_on_c, 3, 44, 57
6, 64692, Note_off_c, 3, 44, 55
6, 64692, Note_on_c, 3, 46, 59
6, 64812, Note_off_c, 3, 46, 52
6, 64812, Note_on_c, 3, 44, 65
6, 64932, Note_off_c, 3, 44, 61
6, 64932, Note_on_c, 3, 47, 54
6, 65052, Note_off_c, 3, 47, 53
6, 65052, Note_on_c, 3, 46, 58
6, 65172, Note_off_c, 3, 46, 45
6, 65172, Note_on_c, 3, 44, 61
6, 65292, Note_off_c, 3, 44, 68
6, 65292, Note_on_c, 3, 43, 69
6, 65772, Note_off_c, 3, 43, 61
6, 65772, Note_on_c, 3, 44, 74
6, 66252, Note_off_c, 3, 44, 63
6, 66252, Note_on_c, 3, 46, 66
6, 66732, Note_off_c, 3, 46, 80
6, 66732, Note_on_c, 3, 51, 62
6, 67212, Note_off_c, 3, 51, 61
6, 67212, Note_on_c, 3, 44, 77
6, 67692, Note_off_c, 3, 44, 79
6, 69132, Note_on_c, 3, 37, 59
6, 70092, Note_off_c, 3, 37, 62
6, 70092, Note_on_c, 3, 36, 72
6, 70572, Note_off_c, 3, 36, 61
6, 70572, Note_on_c, 3, 40, 80
6, 71052, Note_off_c, 3, 40, 66
6, 71052, Note_on_c, 3, 39, 76
6, 72012, Note_off_c, 3, 39, 49
6, 72012, Note_on_c, 3, 37, 74
6, 72242, Note_off_c, 3, 37, 66
6, 72255, Note_on_c, 3, 37, 74
6, 72375, Note_off_c, 3, 37, 46
6, 72375, Note_on_c, 3, 39, 61
6, 72495, Note_off_c, 3, 39, 43
6, 72495, Note_on_c, 3, 40, 76
6, 72735, Note_off_c, 3, 40, 23
6, 72735, Note_on_c, 3, 42, 69
6, 72975, Note_off_c, 3, 42, 73
6, 72975, Note_on_c, 3, 44, 69
6, 73095, Note_off_c, 3, 44, 50
6, 73095, Note_on_c, 3, 42, 70
6, 73215, Note_off_c, 3, 42, 43
6, 73215, Note_on_c, 3, 44, 66
6, 73335, Note_off_c, 3, 44, 46
6, 73335, Note_on_c, 3, 45, 62
6, 73455, Note_off_c, 3, 45, 27
6, 73455, Note_on_c, 3, 44, 73
6, 73575, Note_off_c, 3, 44, 25
6, 73575, Note_on_c, 3, 42, 57
6, 73695, Note_off_c, 3, 42, 37
6, 73695, Note_on_c, 3, 40, 74
6, 73815, Note_off_c, 3, 40, 46
6, 73815, Note_on_c, 3, 44, 73
6, 73935, Note_off_c, 3, 44, 23
6, 73935, Note_on_c, 3, 42, 68
6, 74055, Note_off_c, 3, 42, 52
6, 74055, Note_on_c, 3, 40, 63
6, 74175, Note_off_c, 3, 40, 33
6, 74175, Note_on_c, 3, 42, 73
6, 74295, Note_off_c, 3, 42, 34
6, 74295, Note_on_c, 3, 44, 62
6, 74415, Note_off_c, 3, 44, 44
6, 74415, Note_on_c, 3, 42, 74
6, 74535, Note_off_c, 3, 42, 59
6, 74535, Note_on_c, 3, 40, 61
6, 74655, Note_off_c, 3, 40, 12
6, 74655, Note_on_c, 3, 39, 61
6, 74775, Note_off_c, 3, 39, 49
6, 74775, Note_on_c, 3, 42, 63
6, 74895, Note_off_c, 3, 42, 66
6, 74895, Note_on_c, 3, 40, 83
6, 75135, Note_off_c, 3, 40, 34
6, 75135, Note_on_c, 3, 52, 74
6, 75375, Note_off_c, 3, 52, 65
6, 75375, Note_on_c, 3, 57, 88
6, 75605, Note_off_c, 3, 57, 62
6, 75618, Note_on_c, 3, 57, 79
6, 75848, Note_off_c, 3, 57, 53
6, 75861, Note_on_c, 3, 57, 77
6, 76101, Note_off_c, 3, 57, 58
6, 76101, Note_on_c, 3, 56, 68
6, 76221, Note_off_c, 3, 56, 43
6, 76221, Note_on_c, 3, 54, 63
6, 76341, Note_off_c, 3, 54, 54
6, 76341, Note_on_c, 3, 56, 61
6, 76581, Note_off_c, 3, 56, 34
6, 76581, Note_on_c, 3, 44, 73
6, 76821, Note_off_c, 3, 44, 61
6, 77061, Note_on_c, 3, 47, 70
6, 77301, Note_off_c, 3, 47, 49
6, 77301, Note_on_c, 3, 45, 77
6, 77781, Note_off_c, 3, 45, 57
6, 77781, Note_on_c, 3, 44, 82
6, 78021, Note_off_c, 3, 44, 77
6, 81861, Note_on_c, 3, 49, 88
6, 82101, Note_off_c, 3, 49, 52
6, 82101, Note_on_c, 3, 54, 70
6, 82331, Note_off_c, 3, 54, 62
6, 82344, Note_on_c, 3, 54, 77
6, 82574, Note_off_c, 3, 54, 59
6, 82587, Note_on_c, 3, 54, 79
6, 82827, Note_off_c, 3, 54, 47
6, 82827, Note_on_c, 3, 53, 69
6, 82947, Note_off_c, 3, 53, 49
6, 82947, Note_on_c, 3, 51, 66
6, 83067, Note_off_c, 3, 51, 58
6, 83067, Note_on_c, 3, 53, 74
6, 83547, Note_off_c, 3, 53, 50
6, 83547, Note_on_c, 3, 54, 80
6, 84027, Note_off_c, 3, 54, 76
6, 85707, Note_on_c, 3, 44, 76
6, 85947, Note_off_c, 3, 44, 62
6, 85947, Note_on_c, 3, 49, 83
6, 86177, Note_off_c, 3, 49, 58
6, 86190, Note_on_c, 3, 49, 80
6, 86420, Note_off_c, 3, 49, 58
6, 86433, Note_on_c, 3, 49, 80
6, 86673, Note_off_c, 3, 49, 59
6, 86673, Note_on_c, 3, 47, 68
6, 86793, Note_off_c, 3, 47, 47
6, 86793, Note_on_c, 3, 46, 58
6, 86913, Note_off_c, 3, 46, 54
6, 86913, Note_on_c, 3, 47, 68
6, 87033, Note_off_c, 3, 47, 48
6, 87033, Note_on_c, 3, 49, 73
6, 87153, Note_off_c, 3, 49, 62
6, 87153, Note_on_c, 3, 51, 57
6, 87273, Note_off_c, 3, 51, 55
6, 87273, Note_on_c, 3, 47, 66
6, 87393, Note_off_c, 3, 47, 47
6, 87393, Note_on_c, 3, 40, 79
6, 87873, Note_off_c, 3, 40, 68
6, 88113, Note_on_c, 3, 45, 82
6, 88353, Note_off_c, 3, 45, 52
6, 88353, Note_on_c, 3, 39, 79
6, 88833, Note_off_c, 3, 39, 74
6, 89073, Note_on_c, 3, 44, 76
6, 89313, Note_off_c, 3, 44, 61
6, 89313, Note_on_c, 3, 37, 76
6, 89553, Note_off_c, 3, 37, 72
6, 89553, Note_on_c, 3, 52, 68
6, 89793, Note_off_c, 3, 52, 57
6, 89793, Note_on_c, 3, 57, 76
6, 90023, Note_off_c, 3, 57, 58
6, 90036, Note_on_c, 3, 57, 82
6, 90266, Note_off_c, 3, 57, 49
6, 90279, Note_on_c, 3, 57, 73
6, 90519, Note_off_c, 3, 57, 54
6, 90519, Note_on_c, 3, 55, 66
6, 90639, Note_off_c, 3, 55, 43
6, 90639, Note_on_c, 3, 54, 65
6, 90759, Note_off_c, 3, 54, 49
6, 90759, Note_on_c, 3, 52, 82
6, 91239, Note_off_c, 3, 52, 74
6, 92679, Note_on_c, 3, 49, 96
6, 93159, Note_off_c, 3, 49, 61
6, 93159, Note_on_c, 3, 48, 80
6, 93639, Note_off_c, 3, 48, 59
6, 93639, Note_on_c, 3, 52, 83
6, 94119, Note_off_c, 3, 52, 65
6, 94119, Note_on_c, 3, 51, 73
6, 95079, Note_off_c, 3, 51, 52
6, 95079, Note_on_c, 3, 49, 80
6, 95319, Note_off_c, 3, 49, 65
6, 95319, Note_on_c, 3, 52, 76
6, 95559, Note_off_c, 3, 52, 45
6, 95559, Note_on_c, 3, 57, 79
6, 95789, Note_off_c, 3, 57, 59
6, 95802, Note_on_c, 3, 57, 74
6, 96032, Note_off_c, 3, 57, 57
6, 96045, Note_on_c, 3, 57, 72
6, 96285, Note_off_c, 3, 57, 46
6, 96285, Note_on_c, 3, 56, 73
6, 96405, Note_off_c, 3, 56, 47
6, 96405, Note_on_c, 3, 54, 66
6, 96525, Note_off_c, 3, 54, 46
6, 96525, Note_on_c, 3, 52, 72
6, 96645, Note_off_c, 3, 52, 52
6, 96645, Note_on_c, 3, 50, 63
6, 96765, Note_off_c, 3, 50, 57
6, 96765, Note_on_c, 3, 49, 76
6, 96885, Note_off_c, 3, 49, 42
6, 96885, Note_on_c, 3, 47, 65
6, 97005, Note_off_c, 3, 47, 63
6, 97005, Note_on_c, 3, 46, 79
6, 97485, Note_off_c, 3, 46, 52
6, 97485, Note_on_c, 3, 45, 80
6, 98205, Note_off_c, 3, 45, 44
6, 98205, Note_on_c, 3, 44, 72
6, 98325, Note_off_c, 3, 44, 51
6, 98325, Note_on_c, 3, 42, 72
6, 98445, Note_off_c, 3, 42, 37
6, 98445, Note_on_c, 3, 41, 82
6, 98925, Note_off_c, 3, 41, 51
6, 98925, Note_on_c, 3, 42, 91
6, 99885, Note_off_c, 3, 42, 52
6, 99885, Note_on_c, 3, 44, 89
6, 103725, Note_off_c, 3, 44, 36
6, 103725, Note_on_c, 3, 43, 72
6, 104685, Note_off_c, 3, 43, 47
6, 104685, Note_on_c, 3, 44, 82
6, 106605, Note_off_c, 3, 44, 72
6, 106605, Note_on_c, 3, 49, 88
6, 110445, Note_off_c, 3, 49, 83
6, 110445, End_track
0, 0, End_of_file
