0, 0, Header, 1, 2, 240
1, 0, Start_track
1, 0, Time_signature, 12, 3, 36, 8
1, 0, Tempo, 555556
1, 46080, Text_t, "B Section"
1, 160104, Tempo, 576923
1, 160344, Tempo, 612245
1, 160632, Tempo, 870765
1, 160848, Tempo, 910894
1, 161064, Tempo, 800000
1, 161280, Tempo, 789474
1, 161280, End_track
2, 0, Start_track
2, 0, Note_on_c, 0, 38, 64
2, 0, Note_on_c, 0, 50, 64
2, 120, Note_on_c, 0, 62, 64
2, 180, Note_off_c, 0, 62, 64
2, 180, Note_on_c, 0, 64, 64
2, 240, Note_off_c, 0, 64, 64
2, 240, Note_off_c, 0, 50, 76
2, 240, Note_off_c, 0, 38, 61
2, 240, Note_on_c, 0, 66, 64
2, 300, Note_off_c, 0, 66, 64
2, 300, Note_on_c, 0, 67, 64
2, 360, Note_off_c, 0, 67, 64
2, 360, Note_on_c, 0, 69, 64
2, 480, Note_off_c, 0, 69, 64
2, 480, Note_on_c, 0, 66, 64
2, 600, Note_off_c, 0, 66, 64
2, 600, Note_on_c, 0, 69, 64
2, 720, Note_off_c, 0, 69, 64
2, 720, Note_on_c, 0, 74, 64
2, 840, Note_off_c, 0, 74, 64
2, 840, Note_on_c, 0, 69, 64
2, 960, Note_off_c, 0, 69, 64
2, 960, Note_on_c, 0, 74, 64
2, 1080, Note_off_c, 0, 74, 64
2, 1080, Note_on_c, 0, 78, 64
2, 1200, Note_off_c, 0, 78, 64
2, 1200, Note_on_c, 0, 74, 64
2, 1320, Note_off_c, 0, 74, 64
2, 1320, Note_on_c, 0, 78, 64
2, 1440, Note_off_c, 0, 78, 64
2, 1440, Note_on_c, 0, 81, 64
2, 1800, Note_off_c, 0, 81, 64
2, 1800, Note_on_c, 0, 78, 64
2, 1800, Note_on_c, 0, 81, 64
2, 1800, Note_on_c, 0, 62, 64
2, 2160, Note_off_c, 0, 62, 64
2, 2160, Note_off_c, 0, 81, 64
2, 2160, Note_off_c, 0, 78, 64
2, 2160, Note_on_c, 0, 78, 64
2, 2160, Note_on_c, 0, 81, 64
2, 2160, Note_on_c, 0, 69, 64
2, 2340, Note_off_c, 0, 81, 64
2, 2340, Note_off_c, 0, 78, 64
2, 2340, Note_on_c, 0, 76, 64
2, 2340, Note_on_c, 0, 79, 64
2, 2520, Note_off_c, 0, 79, 64
2, 2520, Note_off_c, 0, 76, 64
2, 2520, Note_off_c, 0, 69, 64
2, 2520, Note_on_c, 0, 57, 64
2, 2520, Note_on_c, 0, 76, 64
2, 2520, Note_on_c, 0, 79, 64
2, 2700, Note_off_c, 0, 79, 64
2, 2700, Note_off_c, 0, 76, 64
2, 2700, Note_on_c, 0, 78, 64
2, 2700, Note_on_c, 0, 74, 64
2, 2880, Note_off_c, 0, 74, 64
2, 2880, Note_off_c, 0, 78, 64
2, 2880, Note_off_c, 0, 57, 64
2, 2880, Note_on_c, 0, 62, 64
2, 2880, Note_on_c, 0, 74, 64
2, 2880, Note_on_c, 0, 78, 64
2, 3000, Note_off_c, 0, 78, 64
2, 3000, Note_off_c, 0, 74, 64
2, 3000, Note_on_c, 0, 50, 64
2, 3060, Note_off_c, 0, 50, 64
2, 3060, Note_on_c, 0, 52, 64
2, 3120, Note_off_c, 0, 52, 64
2, 3120, Note_off_c, 0, 62, 64
2, 3120, Note_on_c, 0, 54, 64
2, 3180, Note_off_c, 0, 54, 64
2, 3180, Note_on_c, 0, 55, 64
2, 3240, Note_off_c, 0, 55, 64
2, 3240, Note_on_c, 0, 57, 64
2, 3360, Note_off_c, 0, 57, 64
2, 3360, Note_on_c, 0, 54, 64
2, 3480, Note_off_c, 0, 54, 64
2, 3480, Note_on_c, 0, 57, 64
2, 3600, Note_off_c, 0, 57, 64
2, 3600, Note_on_c, 0, 62, 64
2, 3720, Note_off_c, 0, 62, 64
2, 3720, Note_on_c, 0, 57, 64
2, 3840, Note_off_c, 0, 57, 64
2, 3840, Note_on_c, 0, 62, 64
2, 3960, Note_off_c, 0, 62, 64
2, 3960, Note_on_c, 0, 66, 64
2, 4080, Note_off_c, 0, 66, 64
2, 4080, Note_on_c, 0, 62, 64
2, 4200, Note_off_c, 0, 62, 64
2, 4200, Note_on_c, 0, 66, 64
2, 4320, Note_off_c, 0, 66, 64
2, 4320, Note_on_c, 0, 69, 64
2, 4680, Note_off_c, 0, 69, 64
2, 4680, Note_on_c, 0, 69, 64
2, 4680, Note_on_c, 0, 78, 64
2, 4680, Note_on_c, 0, 50, 64
2, 5040, Note_off_c, 0, 50, 64
2, 5040, Note_off_c, 0, 78, 64
2, 5040, Note_off_c, 0, 69, 64
2, 5040, Note_on_c, 0, 69, 64
2, 5040, Note_on_c, 0, 78, 64
2, 5040, Note_on_c, 0, 57, 64
2, 5220, Note_off_c, 0, 78, 64
2, 5220, Note_off_c, 0, 69, 64
2, 5220, Note_on_c, 0, 67, 64
2, 5220, Note_on_c, 0, 76, 64
2, 5400, Note_off_c, 0, 76, 64
2, 5400, Note_off_c, 0, 67, 64
2, 5400, Note_off_c, 0, 57, 64
2, 5400, Note_on_c, 0, 45, 64
2, 5400, Note_on_c, 0, 67, 64
2, 5400, Note_on_c, 0, 76, 64
2, 5580, Note_off_c, 0, 76, 64
2, 5580, Note_off_c, 0, 67, 64
2, 5580, Note_on_c, 0, 74, 64
2, 5580, Note_on_c, 0, 66, 64
2, 5760, Note_off_c, 0, 66, 64
2, 5760, Note_off_c, 0, 74, 64
2, 5760, Note_off_c, 0, 45, 64
2, 5760, Note_on_c, 0, 66, 64
2, 5760, Note_on_c, 0, 74, 64
2, 5760, Note_on_c, 0, 50, 64
2, 5880, Note_off_c, 0, 74, 64
2, 5880, Note_off_c, 0, 66, 64
2, 5880, Note_on_c, 0, 66, 64
2, 5940, Note_off_c, 0, 66, 64
2, 5940, Note_on_c, 0, 64, 64
2, 6000, Note_off_c, 0, 64, 64
2, 6000, Note_off_c, 0, 50, 64
2, 6000, Note_on_c, 0, 62, 64
2, 6000, Note_on_c, 0, 38, 64
2, 6060, Note_off_c, 0, 62, 64
2, 6060, Note_on_c, 0, 61, 64
2, 6120, Note_off_c, 0, 61, 64
2, 6120, Note_off_c, 0, 38, 64
2, 6120, Note_on_c, 0, 59, 64
2, 6120, Note_on_c, 0, 50, 64
2, 6240, Note_off_c, 0, 59, 64
2, 6240, Note_on_c, 0, 62, 64
2, 6360, Note_off_c, 0, 62, 64
2, 6360, Note_off_c, 0, 50, 64
2, 6360, Note_on_c, 0, 59, 64
2, 6360, Note_on_c, 0, 50, 64
2, 6480, Note_off_c, 0, 50, 64
2, 6480, Note_off_c, 0, 59, 64
2, 6480, Note_on_c, 0, 50, 64
2, 6480, Note_on_c, 0, 56, 64
2, 6600, Note_off_c, 0, 56, 64
2, 6600, Note_on_c, 0, 64, 64
2, 6660, Note_off_c, 0, 64, 64
2, 6660, Note_on_c, 0, 66, 64
2, 6720, Note_off_c, 0, 66, 64
2, 6720, Note_on_c, 0, 68, 64
2, 6780, Note_off_c, 0, 68, 64
2, 6780, Note_on_c, 0, 69, 64
2, 6840, Note_off_c, 0, 69, 64
2, 6840, Note_off_c, 0, 50, 64
2, 6840, Note_on_c, 0, 71, 64
2, 6960, Note_off_c, 0, 71, 64
2, 6960, Note_on_c, 0, 68, 64
2, 6960, Note_on_c, 0, 52, 64
2, 7020, Note_off_c, 0, 52, 64
2, 7020, Note_on_c, 0, 50, 64
2, 7080, Note_off_c, 0, 50, 64
2, 7080, Note_off_c, 0, 68, 64
2, 7080, Note_on_c, 0, 71, 64
2, 7080, Note_on_c, 0, 49, 64
2, 7140, Note_off_c, 0, 49, 64
2, 7140, Note_on_c, 0, 47, 64
2, 7200, Note_off_c, 0, 47, 64
2, 7200, Note_off_c, 0, 71, 64
2, 7200, Note_on_c, 0, 76, 64
2, 7200, Note_on_c, 0, 49, 64
2, 7320, Note_off_c, 0, 76, 64
2, 7320, Note_on_c, 0, 64, 64
2, 7380, Note_off_c, 0, 64, 64
2, 7380, Note_on_c, 0, 62, 64
2, 7440, Note_off_c, 0, 62, 64
2, 7440, Note_off_c, 0, 49, 64
2, 7440, Note_on_c, 0, 61, 64
2, 7440, Note_on_c, 0, 37, 64
2, 7500, Note_off_c, 0, 61, 64
2, 7500, Note_on_c, 0, 59, 64
2, 7560, Note_off_c, 0, 59, 64
2, 7560, Note_off_c, 0, 37, 64
2, 7560, Note_on_c, 0, 57, 64
2, 7560, Note_on_c, 0, 49, 64
2, 7680, Note_off_c, 0, 57, 64
2, 7680, Note_on_c, 0, 61, 64
2, 7800, Note_off_c, 0, 61, 64
2, 7800, Note_off_c, 0, 49, 64
2, 7800, Note_on_c, 0, 57, 64
2, 7800, Note_on_c, 0, 49, 64
2, 7920, Note_off_c, 0, 49, 64
2, 7920, Note_off_c, 0, 57, 64
2, 7920, Note_on_c, 0, 49, 64
2, 7920, Note_on_c, 0, 54, 64
2, 8040, Note_off_c, 0, 54, 64
2, 8040, Note_on_c, 0, 62, 64
2, 8100, Note_off_c, 0, 62, 64
2, 8100, Note_on_c, 0, 64, 64
2, 8160, Note_off_c, 0, 64, 64
2, 8160, Note_on_c, 0, 66, 64
2, 8220, Note_off_c, 0, 66, 64
2, 8220, Note_on_c, 0, 68, 64
2, 8280, Note_off_c, 0, 68, 64
2, 8280, Note_off_c, 0, 49, 64
2, 8280, Note_on_c, 0, 69, 64
2, 8400, Note_off_c, 0, 69, 64
2, 8400, Note_on_c, 0, 66, 64
2, 8400, Note_on_c, 0, 50, 64
2, 8460, Note_off_c, 0, 50, 64
2, 8460, Note_on_c, 0, 49, 64
2, 8520, Note_off_c, 0, 49, 64
2, 8520, Note_off_c, 0, 66, 64
2, 8520, Note_on_c, 0, 69, 64
2, 8520, Note_on_c, 0, 47, 64
2, 8580, Note_off_c, 0, 47, 64
2, 8580, Note_on_c, 0, 45, 64
2, 8640, Note_off_c, 0, 45, 64
2, 8640, Note_off_c, 0, 69, 64
2, 8640, Note_on_c, 0, 74, 64
2, 8640, Note_on_c, 0, 47, 64
2, 8760, Note_off_c, 0, 47, 64
2, 8760, Note_on_c, 0, 54, 64
2, 8820, Note_off_c, 0, 54, 64
2, 8820, Note_on_c, 0, 52, 64
2, 8880, Note_off_c, 0, 52, 64
2, 8880, Note_off_c, 0, 74, 64
2, 8880, Note_on_c, 0, 66, 64
2, 8880, Note_on_c, 0, 50, 64
2, 8940, Note_off_c, 0, 50, 64
2, 8940, Note_on_c, 0, 49, 64
2, 9000, Note_off_c, 0, 49, 64
2, 9000, Note_off_c, 0, 66, 64
2, 9000, Note_on_c, 0, 66, 64
2, 9000, Note_on_c, 0, 74, 64
2, 9000, Note_on_c, 0, 47, 64
2, 9120, Note_off_c, 0, 47, 64
2, 9120, Note_on_c, 0, 50, 64
2, 9240, Note_off_c, 0, 50, 64
2, 9240, Note_off_c, 0, 74, 64
2, 9240, Note_off_c, 0, 66, 64
2, 9240, Note_on_c, 0, 66, 64
2, 9240, Note_on_c, 0, 74, 64
2, 9240, Note_on_c, 0, 47, 64
2, 9360, Note_off_c, 0, 47, 64
2, 9360, Note_off_c, 0, 74, 64
2, 9360, Note_off_c, 0, 66, 64
2, 9360, Note_on_c, 0, 64, 64
2, 9360, Note_on_c, 0, 74, 64
2, 9360, Note_on_c, 0, 44, 64
2, 9480, Note_off_c, 0, 44, 64
2, 9480, Note_on_c, 0, 47, 64
2, 9600, Note_off_c, 0, 47, 64
2, 9600, Note_on_c, 0, 44, 64
2, 9720, Note_off_c, 0, 44, 64
2, 9720, Note_off_c, 0, 74, 64
2, 9720, Note_off_c, 0, 64, 64
2, 9720, Note_on_c, 0, 40, 64
2, 9840, Note_off_c, 0, 40, 64
2, 9840, Note_on_c, 0, 76, 64
2, 9840, Note_on_c, 0, 44, 64
2, 9900, Note_off_c, 0, 76, 64
2, 9900, Note_on_c, 0, 74, 64
2, 9960, Note_off_c, 0, 74, 64
2, 9960, Note_off_c, 0, 44, 64
2, 9960, Note_on_c, 0, 40, 64
2, 9960, Note_on_c, 0, 73, 64
2, 10020, Note_off_c, 0, 73, 64
2, 10020, Note_on_c, 0, 71, 64
2, 10080, Note_off_c, 0, 71, 64
2, 10080, Note_off_c, 0, 40, 64
2, 10080, Note_on_c, 0, 73, 64
2, 10080, Note_on_c, 0, 45, 64
2, 10200, Note_off_c, 0, 45, 64
2, 10200, Note_off_c, 0, 73, 64
2, 10200, Note_on_c, 0, 69, 64
2, 10200, Note_on_c, 0, 49, 64
2, 10260, Note_off_c, 0, 69, 64
2, 10260, Note_on_c, 0, 71, 64
2, 10320, Note_off_c, 0, 71, 64
2, 10320, Note_off_c, 0, 49, 64
2, 10320, Note_on_c, 0, 73, 64
2, 10320, Note_on_c, 0, 45, 64
2, 10380, Note_off_c, 0, 73, 64
2, 10380, Note_on_c, 0, 74, 64
2, 10440, Note_off_c, 0, 74, 64
2, 10440, Note_off_c, 0, 45, 64
2, 10440, Note_on_c, 0, 76, 64
2, 10440, Note_on_c, 0, 42, 64
2, 10560, Note_off_c, 0, 42, 64
2, 10560, Note_off_c, 0, 76, 64
2, 10560, Note_on_c, 0, 74, 64
2, 10560, Note_on_c, 0, 45, 64
2, 10620, Note_off_c, 0, 74, 64
2, 10620, Note_on_c, 0, 73, 64
2, 10680, Note_off_c, 0, 73, 64
2, 10680, Note_off_c, 0, 45, 64
2, 10680, Note_on_c, 0, 71, 64
2, 10680, Note_on_c, 0, 42, 64
2, 10740, Note_off_c, 0, 71, 64
2, 10740, Note_on_c, 0, 69, 64
2, 10800, Note_off_c, 0, 69, 64
2, 10800, Note_off_c, 0, 42, 64
2, 10800, Note_on_c, 0, 74, 64
2, 10800, Note_on_c, 0, 47, 64
2, 10920, Note_off_c, 0, 47, 64
2, 10920, Note_off_c, 0, 74, 64
2, 10920, Note_on_c, 0, 71, 64
2, 10920, Note_on_c, 0, 50, 64
2, 10980, Note_off_c, 0, 71, 64
2, 10980, Note_on_c, 0, 73, 64
2, 11040, Note_off_c, 0, 73, 64
2, 11040, Note_off_c, 0, 50, 64
2, 11040, Note_on_c, 0, 74, 64
2, 11040, Note_on_c, 0, 47, 64
2, 11100, Note_off_c, 0, 74, 64
2, 11100, Note_on_c, 0, 76, 64
2, 11160, Note_off_c, 0, 76, 64
2, 11160, Note_off_c, 0, 47, 64
2, 11160, Note_on_c, 0, 78, 64
2, 11160, Note_on_c, 0, 44, 64
2, 11280, Note_off_c, 0, 44, 64
2, 11280, Note_off_c, 0, 78, 64
2, 11280, Note_on_c, 0, 76, 64
2, 11280, Note_on_c, 0, 47, 64
2, 11340, Note_off_c, 0, 76, 64
2, 11340, Note_on_c, 0, 74, 64
2, 11400, Note_off_c, 0, 74, 64
2, 11400, Note_off_c, 0, 47, 64
2, 11400, Note_on_c, 0, 44, 64
2, 11400, Note_on_c, 0, 73, 64
2, 11460, Note_off_c, 0, 73, 64
2, 11460, Note_on_c, 0, 71, 64
2, 11520, Note_off_c, 0, 71, 64
2, 11520, Note_off_c, 0, 44, 64
2, 11520, Note_on_c, 0, 76, 64
2, 11520, Note_on_c, 0, 49, 64
2, 11640, Note_off_c, 0, 49, 64
2, 11640, Note_on_c, 0, 57, 64
2, 11700, Note_off_c, 0, 57, 64
2, 11700, Note_on_c, 0, 59, 64
2, 11760, Note_off_c, 0, 59, 64
2, 11760, Note_on_c, 0, 61, 64
2, 11820, Note_off_c, 0, 61, 64
2, 11820, Note_on_c, 0, 62, 64
2, 11880, Note_off_c, 0, 62, 64
2, 11880, Note_on_c, 0, 64, 64
2, 12000, Note_off_c, 0, 64, 64
2, 12000, Note_on_c, 0, 62, 64
2, 12060, Note_off_c, 0, 62, 64
2, 12060, Note_on_c, 0, 61, 64
2, 12120, Note_off_c, 0, 61, 64
2, 12120, Note_on_c, 0, 59, 64
2, 12180, Note_off_c, 0, 59, 64
2, 12180, Note_on_c, 0, 57, 64
2, 12240, Note_off_c, 0, 57, 64
2, 12240, Note_on_c, 0, 66, 64
2, 12240, Note_on_c, 0, 50, 64
2, 12360, Note_off_c, 0, 50, 64
2, 12360, Note_off_c, 0, 66, 64
2, 12360, Note_on_c, 0, 59, 64
2, 12420, Note_off_c, 0, 59, 64
2, 12420, Note_on_c, 0, 61, 64
2, 12480, Note_off_c, 0, 61, 64
2, 12480, Note_on_c, 0, 62, 64
2, 12540, Note_off_c, 0, 62, 64
2, 12540, Note_on_c, 0, 64, 64
2, 12600, Note_off_c, 0, 64, 64
2, 12600, Note_off_c, 0, 76, 64
2, 12600, Note_on_c, 0, 74, 64
2, 12600, Note_on_c, 0, 66, 64
2, 12720, Note_off_c, 0, 66, 64
2, 12720, Note_on_c, 0, 64, 64
2, 12780, Note_off_c, 0, 64, 64
2, 12780, Note_on_c, 0, 62, 64
2, 12840, Note_off_c, 0, 62, 64
2, 12840, Note_on_c, 0, 61, 64
2, 12900, Note_off_c, 0, 61, 64
2, 12900, Note_on_c, 0, 59, 64
2, 12960, Note_off_c, 0, 59, 64
2, 12960, Note_on_c, 0, 68, 64
2, 12960, Note_on_c, 0, 52, 64
2, 13080, Note_off_c, 0, 68, 64
2, 13080, Note_on_c, 0, 64, 64
2, 13140, Note_off_c, 0, 64, 64
2, 13140, Note_on_c, 0, 66, 64
2, 13200, Note_off_c, 0, 66, 64
2, 13200, Note_off_c, 0, 52, 64
2, 13200, Note_on_c, 0, 68, 64
2, 13200, Note_on_c, 0, 40, 64
2, 13260, Note_off_c, 0, 68, 64
2, 13260, Note_on_c, 0, 69, 64
2, 13320, Note_off_c, 0, 69, 64
2, 13320, Note_off_c, 0, 40, 64
2, 13320, Note_off_c, 0, 74, 64
2, 13320, Note_on_c, 0, 74, 64
2, 13320, Note_on_c, 0, 71, 64
2, 13320, Note_on_c, 0, 40, 64
2, 13440, Note_off_c, 0, 71, 64
2, 13440, Note_on_c, 0, 68, 64
2, 13560, Note_off_c, 0, 68, 64
2, 13560, Note_off_c, 0, 40, 64
2, 13560, Note_on_c, 0, 71, 64
2, 13560, Note_on_c, 0, 40, 64
2, 13680, Note_off_c, 0, 40, 64
2, 13680, Note_off_c, 0, 71, 64
2, 13680, Note_off_c, 0, 74, 64
2, 13680, Note_on_c, 0, 80, 64
2, 13680, Note_on_c, 0, 74, 64
2, 13680, Note_on_c, 0, 40, 64
2, 13800, Note_off_c, 0, 74, 64
2, 13800, Note_on_c, 0, 71, 64
2, 13920, Note_off_c, 0, 71, 64
2, 13920, Note_on_c, 0, 74, 64
2, 14040, Note_off_c, 0, 74, 64
2, 14040, Note_off_c, 0, 80, 64
2, 14040, Note_on_c, 0, 83, 64
2, 14040, Note_on_c, 0, 80, 64
2, 14160, Note_off_c, 0, 80, 64
2, 14160, Note_on_c, 0, 74, 64
2, 14220, Note_off_c, 0, 40, 64
2, 14220, Note_on_c, 0, 47, 64
2, 14280, Note_off_c, 0, 47, 64
2, 14280, Note_off_c, 0, 74, 64
2, 14280, Note_on_c, 0, 80, 64
2, 14280, Note_on_c, 0, 49, 64
2, 14340, Note_off_c, 0, 49, 64
2, 14340, Note_on_c, 0, 50, 64
2, 14400, Note_off_c, 0, 50, 64
2, 14400, Note_off_c, 0, 80, 64
2, 14400, Note_on_c, 0, 73, 64
2, 14400, Note_on_c, 0, 52, 64
2, 14520, Note_off_c, 0, 83, 64
2, 14520, Note_on_c, 0, 81, 64
2, 14580, Note_off_c, 0, 81, 64
2, 14580, Note_on_c, 0, 80, 64
2, 14640, Note_off_c, 0, 80, 64
2, 14640, Note_off_c, 0, 52, 64
2, 14640, Note_on_c, 0, 78, 64
2, 14640, Note_on_c, 0, 40, 64
2, 14700, Note_off_c, 0, 78, 64
2, 14700, Note_on_c, 0, 76, 64
2, 14760, Note_off_c, 0, 76, 64
2, 14760, Note_off_c, 0, 40, 64
2, 14760, Note_off_c, 0, 73, 64
2, 14760, Note_on_c, 0, 75, 64
2, 14760, Note_on_c, 0, 69, 64
2, 14760, Note_on_c, 0, 40, 64
2, 14880, Note_off_c, 0, 75, 64
2, 14880, Note_on_c, 0, 78, 64
2, 15000, Note_off_c, 0, 78, 64
2, 15000, Note_off_c, 0, 40, 64
2, 15000, Note_on_c, 0, 75, 64
2, 15000, Note_on_c, 0, 40, 64
2, 15120, Note_off_c, 0, 40, 64
2, 15120, Note_off_c, 0, 75, 64
2, 15120, Note_off_c, 0, 69, 64
2, 15120, Note_on_c, 0, 40, 64
2, 15120, Note_on_c, 0, 69, 64
2, 15120, Note_on_c, 0, 66, 64
2, 15240, Note_off_c, 0, 69, 64
2, 15240, Note_on_c, 0, 75, 64
2, 15360, Note_off_c, 0, 75, 64
2, 15360, Note_on_c, 0, 69, 64
2, 15480, Note_off_c, 0, 69, 64
2, 15480, Note_off_c, 0, 66, 64
2, 15480, Note_off_c, 0, 40, 64
2, 15480, Note_on_c, 0, 63, 64
2, 15480, Note_on_c, 0, 66, 64
2, 15600, Note_off_c, 0, 66, 64
2, 15600, Note_on_c, 0, 69, 64
2, 15720, Note_off_c, 0, 69, 64
2, 15720, Note_on_c, 0, 66, 64
2, 15840, Note_off_c, 0, 66, 64
2, 15840, Note_off_c, 0, 63, 64
2, 15840, Note_on_c, 0, 68, 64
2, 15840, Note_on_c, 0, 64, 64
2, 15960, Note_off_c, 0, 68, 64
2, 15960, Note_on_c, 0, 66, 64
2, 16080, Note_off_c, 0, 66, 64
2, 16080, Note_on_c, 0, 64, 64
2, 16080, Note_on_c, 0, 62, 64
2, 16081, Note_off_c, 0, 64, 64
2, 16140, Note_on_c, 0, 52, 64
2, 16200, Note_off_c, 0, 52, 64
2, 16200, Note_off_c, 0, 62, 64
2, 16200, Note_off_c, 0, 64, 64
2, 16200, Note_on_c, 0, 69, 64
2, 16200, Note_on_c, 0, 61, 64
2, 16200, Note_on_c, 0, 54, 64
2, 16320, Note_off_c, 0, 54, 64
2, 16320, Note_on_c, 0, 52, 64
2, 16440, Note_off_c, 0, 52, 64
2, 16440, Note_off_c, 0, 61, 64
2, 16440, Note_off_c, 0, 69, 64
2, 16440, Note_on_c, 0, 74, 64
2, 16440, Note_on_c, 0, 69, 64
2, 16440, Note_on_c, 0, 50, 64
2, 16560, Note_off_c, 0, 50, 64
2, 16560, Note_off_c, 0, 69, 64
2, 16560, Note_off_c, 0, 74, 64
2, 16560, Note_on_c, 0, 73, 64
2, 16560, Note_on_c, 0, 69, 64
2, 16560, Note_on_c, 0, 52, 64
2, 16910, Note_off_c, 0, 73, 64
2, 16923, Note_off_c, 0, 52, 64
2, 16923, Note_off_c, 0, 69, 64
2, 16923, Note_on_c, 0, 73, 72
2, 16923, Note_on_c, 0, 40, 64
2, 16923, Note_on_c, 0, 68, 64
2, 16953, Note_off_c, 0, 73, 44
2, 16953, Note_on_c, 0, 71, 52
2, 16983, Note_off_c, 0, 71, 66
2, 16983, Note_on_c, 0, 73, 56
2, 17013, Note_off_c, 0, 73, 44
2, 17013, Note_on_c, 0, 71, 61
2, 17043, Note_off_c, 0, 71, 64
2, 17043, Note_on_c, 0, 69, 64
2, 17163, Note_off_c, 0, 69, 64
2, 17163, Note_on_c, 0, 71, 64
2, 17283, Note_off_c, 0, 71, 64
2, 17283, Note_off_c, 0, 68, 64
2, 17283, Note_off_c, 0, 40, 64
2, 17283, Note_on_c, 0, 69, 64
2, 17283, Note_on_c, 0, 45, 64
2, 17403, Note_off_c, 0, 69, 64
2, 17403, Note_on_c, 0, 73, 64
2, 17463, Note_off_c, 0, 73, 64
2, 17463, Note_on_c, 0, 71, 64
2, 17523, Note_off_c, 0, 71, 64
2, 17523, Note_off_c, 0, 45, 64
2, 17523, Note_on_c, 0, 69, 64
2, 17523, Note_on_c, 0, 52, 64
2, 17583, Note_off_c, 0, 69, 64
2, 17583, Note_on_c, 0, 68, 64
2, 17643, Note_off_c, 0, 68, 64
2, 17643, Note_off_c, 0, 52, 64
2, 17643, Note_on_c, 0, 57, 64
2, 17643, Note_on_c, 0, 66, 64
2, 17673, Note_off_c, 0, 57, 64
2, 17675, Note_on_c, 0, 55, 64
2, 17703, Note_on_c, 0, 57, 64
2, 17705, Note_off_c, 0, 55, 64
2, 17763, Note_off_c, 0, 66, 64
2, 17763, Note_on_c, 0, 69, 64
2, 17823, Note_off_c, 0, 69, 64
2, 17823, Note_on_c, 0, 68, 64
2, 17883, Note_off_c, 0, 68, 64
2, 17883, Note_on_c, 0, 66, 64
2, 17943, Note_off_c, 0, 66, 64
2, 17943, Note_on_c, 0, 64, 64
2, 18003, Note_off_c, 0, 64, 64
2, 18003, Note_on_c, 0, 63, 64
2, 18123, Note_off_c, 0, 63, 64
2, 18123, Note_off_c, 0, 57, 64
2, 18123, Note_on_c, 0, 66, 64
2, 18123, Note_on_c, 0, 59, 64
2, 18183, Note_off_c, 0, 59, 64
2, 18183, Note_on_c, 0, 57, 64
2, 18243, Note_off_c, 0, 57, 64
2, 18243, Note_off_c, 0, 66, 64
2, 18243, Note_on_c, 0, 71, 64
2, 18243, Note_on_c, 0, 56, 64
2, 18303, Note_off_c, 0, 56, 64
2, 18303, Note_on_c, 0, 54, 64
2, 18363, Note_off_c, 0, 54, 64
2, 18363, Note_off_c, 0, 71, 64
2, 18363, Note_on_c, 0, 71, 64
2, 18363, Note_on_c, 0, 53, 64
2, 18483, Note_off_c, 0, 53, 64
2, 18483, Note_on_c, 0, 68, 64
2, 18483, Note_on_c, 0, 54, 64
2, 18543, Note_off_c, 0, 54, 64
2, 18543, Note_on_c, 0, 53, 64
2, 18603, Note_off_c, 0, 53, 64
2, 18603, Note_off_c, 0, 68, 64
2, 18603, Note_on_c, 0, 65, 64
2, 18603, Note_on_c, 0, 51, 64
2, 18663, Note_off_c, 0, 51, 64
2, 18663, Note_on_c, 0, 49, 64
2, 18723, Note_off_c, 0, 49, 64
2, 18723, Note_off_c, 0, 65, 64
2, 18723, Note_on_c, 0, 61, 64
2, 18723, Note_on_c, 0, 54, 64
2, 18843, Note_off_c, 0, 71, 64
2, 18843, Note_on_c, 0, 69, 64
2, 18903, Note_off_c, 0, 69, 64
2, 18903, Note_on_c, 0, 68, 64
2, 18963, Note_off_c, 0, 68, 64
2, 18963, Note_off_c, 0, 54, 64
2, 18963, Note_on_c, 0, 66, 64
2, 18963, Note_on_c, 0, 42, 64
2, 19023, Note_off_c, 0, 66, 64
2, 19023, Note_on_c, 0, 64, 64
2, 19083, Note_off_c, 0, 64, 64
2, 19083, Note_off_c, 0, 42, 64
2, 19083, Note_off_c, 0, 61, 64
2, 19083, Note_on_c, 0, 54, 64
2, 19083, Note_on_c, 0, 62, 64
2, 19113, Note_off_c, 0, 54, 64
2, 19115, Note_on_c, 0, 52, 64
2, 19143, Note_on_c, 0, 54, 64
2, 19145, Note_off_c, 0, 52, 64
2, 19203, Note_off_c, 0, 62, 64
2, 19203, Note_on_c, 0, 66, 64
2, 19263, Note_off_c, 0, 66, 64
2, 19263, Note_on_c, 0, 64, 64
2, 19323, Note_off_c, 0, 64, 64
2, 19323, Note_on_c, 0, 62, 64
2, 19383, Note_off_c, 0, 62, 64
2, 19383, Note_on_c, 0, 61, 64
2, 19443, Note_off_c, 0, 61, 64
2, 19443, Note_on_c, 0, 59, 64
2, 19563, Note_off_c, 0, 59, 64
2, 19563, Note_off_c, 0, 54, 64
2, 19563, Note_on_c, 0, 62, 64
2, 19563, Note_on_c, 0, 55, 64
2, 19623, Note_off_c, 0, 55, 64
2, 19623, Note_on_c, 0, 54, 64
2, 19683, Note_off_c, 0, 54, 64
2, 19683, Note_off_c, 0, 62, 64
2, 19683, Note_on_c, 0, 67, 64
2, 19683, Note_on_c, 0, 52, 64
2, 19743, Note_off_c, 0, 52, 64
2, 19743, Note_on_c, 0, 50, 64
2, 19803, Note_off_c, 0, 50, 64
2, 19803, Note_off_c, 0, 67, 64
2, 19803, Note_on_c, 0, 67, 64
2, 19803, Note_on_c, 0, 49, 64
2, 19923, Note_off_c, 0, 49, 64
2, 19923, Note_on_c, 0, 64, 64
2, 19923, Note_on_c, 0, 50, 64
2, 19983, Note_off_c, 0, 50, 64
2, 19983, Note_on_c, 0, 49, 64
2, 20043, Note_off_c, 0, 49, 64
2, 20043, Note_off_c, 0, 64, 64
2, 20043, Note_on_c, 0, 61, 64
2, 20043, Note_on_c, 0, 47, 64
2, 20103, Note_off_c, 0, 47, 64
2, 20103, Note_on_c, 0, 45, 64
2, 20163, Note_off_c, 0, 45, 64
2, 20163, Note_off_c, 0, 61, 64
2, 20163, Note_on_c, 0, 57, 64
2, 20163, Note_on_c, 0, 50, 64
2, 20283, Note_off_c, 0, 67, 64
2, 20283, Note_on_c, 0, 66, 64
2, 20343, Note_off_c, 0, 66, 64
2, 20343, Note_on_c, 0, 64, 64
2, 20403, Note_off_c, 0, 64, 64
2, 20403, Note_off_c, 0, 50, 64
2, 20403, Note_on_c, 0, 62, 64
2, 20403, Note_on_c, 0, 38, 64
2, 20463, Note_off_c, 0, 62, 64
2, 20463, Note_on_c, 0, 61, 64
2, 20523, Note_off_c, 0, 61, 64
2, 20523, Note_off_c, 0, 38, 64
2, 20523, Note_off_c, 0, 57, 64
2, 20523, Note_on_c, 0, 50, 64
2, 20523, Note_on_c, 0, 59, 64
2, 20553, Note_off_c, 0, 50, 64
2, 20555, Note_on_c, 0, 49, 64
2, 20583, Note_on_c, 0, 50, 64
2, 20585, Note_off_c, 0, 49, 64
2, 20643, Note_off_c, 0, 59, 64
2, 20643, Note_on_c, 0, 62, 64
2, 20703, Note_off_c, 0, 62, 64
2, 20703, Note_on_c, 0, 61, 64
2, 20763, Note_off_c, 0, 61, 64
2, 20763, Note_on_c, 0, 59, 64
2, 20823, Note_off_c, 0, 59, 64
2, 20823, Note_on_c, 0, 57, 64
2, 20883, Note_off_c, 0, 57, 64
2, 20883, Note_on_c, 0, 56, 64
2, 21003, Note_off_c, 0, 56, 64
2, 21003, Note_off_c, 0, 50, 64
2, 21003, Note_on_c, 0, 59, 64
2, 21003, Note_on_c, 0, 52, 64
2, 21063, Note_off_c, 0, 52, 64
2, 21063, Note_on_c, 0, 50, 64
2, 21123, Note_off_c, 0, 50, 64
2, 21123, Note_off_c, 0, 59, 64
2, 21123, Note_on_c, 0, 64, 64
2, 21123, Note_on_c, 0, 49, 64
2, 21183, Note_off_c, 0, 49, 64
2, 21183, Note_on_c, 0, 47, 64
2, 21243, Note_off_c, 0, 47, 64
2, 21243, Note_off_c, 0, 64, 64
2, 21243, Note_on_c, 0, 61, 64
2, 21243, Note_on_c, 0, 45, 64
2, 21363, Note_off_c, 0, 45, 64
2, 21363, Note_off_c, 0, 61, 64
2, 21363, Note_on_c, 0, 64, 64
2, 21363, Note_on_c, 0, 47, 64
2, 21423, Note_off_c, 0, 47, 64
2, 21423, Note_on_c, 0, 49, 64
2, 21483, Note_off_c, 0, 49, 64
2, 21483, Note_off_c, 0, 64, 64
2, 21483, Note_on_c, 0, 69, 64
2, 21483, Note_on_c, 0, 50, 64
2, 21543, Note_off_c, 0, 50, 64
2, 21543, Note_on_c, 0, 52, 64
2, 21603, Note_off_c, 0, 52, 64
2, 21603, Note_off_c, 0, 69, 64
2, 21603, Note_on_c, 0, 62, 64
2, 21603, Note_on_c, 0, 54, 64
2, 21723, Note_off_c, 0, 54, 64
2, 21723, Note_on_c, 0, 52, 64
2, 21843, Note_off_c, 0, 52, 64
2, 21843, Note_off_c, 0, 62, 64
2, 21843, Note_on_c, 0, 69, 64
2, 21843, Note_on_c, 0, 50, 64
2, 21903, Note_on_c, 0, 62, 64
2, 21963, Note_off_c, 0, 62, 64
2, 21963, Note_off_c, 0, 50, 64
2, 21963, Note_off_c, 0, 69, 64
2, 21963, Note_on_c, 0, 64, 64
2, 21963, Note_on_c, 0, 61, 64
2, 21963, Note_on_c, 0, 52, 64
2, 22083, Note_off_c, 0, 64, 64
2, 22083, Note_on_c, 0, 69, 64
2, 22203, Note_off_c, 0, 69, 64
2, 22203, Note_off_c, 0, 52, 64
2, 22203, Note_off_c, 0, 61, 64
2, 22203, Note_on_c, 0, 68, 64
2, 22203, Note_on_c, 0, 59, 64
2, 22203, Note_on_c, 0, 40, 64
2, 22323, Note_off_c, 0, 40, 64
2, 22323, Note_off_c, 0, 59, 64
2, 22323, Note_off_c, 0, 68, 64
2, 22323, Note_on_c, 0, 61, 64
2, 22323, Note_on_c, 0, 69, 64
2, 22323, Note_on_c, 0, 45, 64
2, 22443, Note_off_c, 0, 45, 64
2, 22443, Note_on_c, 0, 49, 64
2, 22563, Note_off_c, 0, 49, 64
2, 22563, Note_on_c, 0, 52, 64
2, 22683, Note_off_c, 0, 52, 64
2, 22683, Note_on_c, 0, 57, 64
2, 23043, Note_off_c, 0, 57, 64
2, 23043, Note_off_c, 0, 69, 64
2, 23043, Note_off_c, 0, 61, 64
2, 23043, Note_on_c, 0, 38, 64
2, 23043, Note_on_c, 0, 50, 64
2, 23163, Note_on_c, 0, 62, 64
2, 23223, Note_off_c, 0, 62, 64
2, 23223, Note_on_c, 0, 64, 64
2, 23283, Note_off_c, 0, 64, 64
2, 23283, Note_off_c, 0, 50, 76
2, 23283, Note_off_c, 0, 38, 61
2, 23283, Note_on_c, 0, 66, 64
2, 23343, Note_off_c, 0, 66, 64
2, 23343, Note_on_c, 0, 67, 64
2, 23403, Note_off_c, 0, 67, 64
2, 23403, Note_on_c, 0, 69, 64
2, 23523, Note_off_c, 0, 69, 64
2, 23523, Note_on_c, 0, 66, 64
2, 23643, Note_off_c, 0, 66, 64
2, 23643, Note_on_c, 0, 69, 64
2, 23763, Note_off_c, 0, 69, 64
2, 23763, Note_on_c, 0, 74, 64
2, 23883, Note_off_c, 0, 74, 64
2, 23883, Note_on_c, 0, 69, 64
2, 24003, Note_off_c, 0, 69, 64
2, 24003, Note_on_c, 0, 74, 64
2, 24123, Note_off_c, 0, 74, 64
2, 24123, Note_on_c, 0, 78, 64
2, 24243, Note_off_c, 0, 78, 64
2, 24243, Note_on_c, 0, 74, 64
2, 24363, Note_off_c, 0, 74, 64
2, 24363, Note_on_c, 0, 78, 64
2, 24483, Note_off_c, 0, 78, 64
2, 24483, Note_on_c, 0, 81, 64
2, 24843, Note_off_c, 0, 81, 64
2, 24843, Note_on_c, 0, 78, 64
2, 24843, Note_on_c, 0, 81, 64
2, 24843, Note_on_c, 0, 62, 64
2, 25203, Note_off_c, 0, 62, 64
2, 25203, Note_off_c, 0, 81, 64
2, 25203, Note_off_c, 0, 78, 64
2, 25203, Note_on_c, 0, 78, 64
2, 25203, Note_on_c, 0, 81, 64
2, 25203, Note_on_c, 0, 69, 64
2, 25383, Note_off_c, 0, 81, 64
2, 25383, Note_off_c, 0, 78, 64
2, 25383, Note_on_c, 0, 76, 64
2, 25383, Note_on_c, 0, 79, 64
2, 25563, Note_off_c, 0, 79, 64
2, 25563, Note_off_c, 0, 76, 64
2, 25563, Note_off_c, 0, 69, 64
2, 25563, Note_on_c, 0, 57, 64
2, 25563, Note_on_c, 0, 76, 64
2, 25563, Note_on_c, 0, 79, 64
2, 25743, Note_off_c, 0, 79, 64
2, 25743, Note_off_c, 0, 76, 64
2, 25743, Note_on_c, 0, 78, 64
2, 25743, Note_on_c, 0, 74, 64
2, 25923, Note_off_c, 0, 74, 64
2, 25923, Note_off_c, 0, 78, 64
2, 25923, Note_off_c, 0, 57, 64
2, 25923, Note_on_c, 0, 62, 64
2, 25923, Note_on_c, 0, 74, 64
2, 25923, Note_on_c, 0, 78, 64
2, 26043, Note_off_c, 0, 78, 64
2, 26043, Note_off_c, 0, 74, 64
2, 26043, Note_on_c, 0, 50, 64
2, 26103, Note_off_c, 0, 50, 64
2, 26103, Note_on_c, 0, 52, 64
2, 26163, Note_off_c, 0, 52, 64
2, 26163, Note_off_c, 0, 62, 64
2, 26163, Note_on_c, 0, 54, 64
2, 26223, Note_off_c, 0, 54, 64
2, 26223, Note_on_c, 0, 55, 64
2, 26283, Note_off_c, 0, 55, 64
2, 26283, Note_on_c, 0, 57, 64
2, 26403, Note_off_c, 0, 57, 64
2, 26403, Note_on_c, 0, 54, 64
2, 26523, Note_off_c, 0, 54, 64
2, 26523, Note_on_c, 0, 57, 64
2, 26643, Note_off_c, 0, 57, 64
2, 26643, Note_on_c, 0, 62, 64
2, 26763, Note_off_c, 0, 62, 64
2, 26763, Note_on_c, 0, 57, 64
2, 26883, Note_off_c, 0, 57, 64
2, 26883, Note_on_c, 0, 62, 64
2, 27003, Note_off_c, 0, 62, 64
2, 27003, Note_on_c, 0, 66, 64
2, 27123, Note_off_c, 0, 66, 64
2, 27123, Note_on_c, 0, 62, 64
2, 27243, Note_off_c, 0, 62, 64
2, 27243, Note_on_c, 0, 66, 64
2, 27363, Note_off_c, 0, 66, 64
2, 27363, Note_on_c, 0, 69, 64
2, 27723, Note_off_c, 0, 69, 64
2, 27723, Note_on_c, 0, 69, 64
2, 27723, Note_on_c, 0, 78, 64
2, 27723, Note_on_c, 0, 50, 64
2, 28083, Note_off_c, 0, 50, 64
2, 28083, Note_off_c, 0, 78, 64
2, 28083, Note_off_c, 0, 69, 64
2, 28083, Note_on_c, 0, 69, 64
2, 28083, Note_on_c, 0, 78, 64
2, 28083, Note_on_c, 0, 57, 64
2, 28263, Note_off_c, 0, 78, 64
2, 28263, Note_off_c, 0, 69, 64
2, 28263, Note_on_c, 0, 67, 64
2, 28263, Note_on_c, 0, 76, 64
2, 28443, Note_off_c, 0, 76, 64
2, 28443, Note_off_c, 0, 67, 64
2, 28443, Note_off_c, 0, 57, 64
2, 28443, Note_on_c, 0, 45, 64
2, 28443, Note_on_c, 0, 67, 64
2, 28443, Note_on_c, 0, 76, 64
2, 28623, Note_off_c, 0, 76, 64
2, 28623, Note_off_c, 0, 67, 64
2, 28623, Note_on_c, 0, 74, 64
2, 28623, Note_on_c, 0, 66, 64
2, 28803, Note_off_c, 0, 66, 64
2, 28803, Note_off_c, 0, 74, 64
2, 28803, Note_off_c, 0, 45, 64
2, 28803, Note_on_c, 0, 66, 64
2, 28803, Note_on_c, 0, 74, 64
2, 28803, Note_on_c, 0, 50, 64
2, 28923, Note_off_c, 0, 74, 64
2, 28923, Note_off_c, 0, 66, 64
2, 28923, Note_on_c, 0, 66, 64
2, 28983, Note_off_c, 0, 66, 64
2, 28983, Note_on_c, 0, 64, 64
2, 29043, Note_off_c, 0, 64, 64
2, 29043, Note_off_c, 0, 50, 64
2, 29043, Note_on_c, 0, 62, 64
2, 29043, Note_on_c, 0, 38, 64
2, 29103, Note_off_c, 0, 62, 64
2, 29103, Note_on_c, 0, 61, 64
2, 29163, Note_off_c, 0, 61, 64
2, 29163, Note_off_c, 0, 38, 64
2, 29163, Note_on_c, 0, 59, 64
2, 29163, Note_on_c, 0, 50, 64
2, 29283, Note_off_c, 0, 59, 64
2, 29283, Note_on_c, 0, 62, 64
2, 29403, Note_off_c, 0, 62, 64
2, 29403, Note_off_c, 0, 50, 64
2, 29403, Note_on_c, 0, 59, 64
2, 29403, Note_on_c, 0, 50, 64
2, 29523, Note_off_c, 0, 50, 64
2, 29523, Note_off_c, 0, 59, 64
2, 29523, Note_on_c, 0, 50, 64
2, 29523, Note_on_c, 0, 56, 64
2, 29643, Note_off_c, 0, 56, 64
2, 29643, Note_on_c, 0, 64, 64
2, 29703, Note_off_c, 0, 64, 64
2, 29703, Note_on_c, 0, 66, 64
2, 29763, Note_off_c, 0, 66, 64
2, 29763, Note_on_c, 0, 68, 64
2, 29823, Note_off_c, 0, 68, 64
2, 29823, Note_on_c, 0, 69, 64
2, 29883, Note_off_c, 0, 69, 64
2, 29883, Note_off_c, 0, 50, 64
2, 29883, Note_on_c, 0, 71, 64
2, 30003, Note_off_c, 0, 71, 64
2, 30003, Note_on_c, 0, 68, 64
2, 30003, Note_on_c, 0, 52, 64
2, 30063, Note_off_c, 0, 52, 64
2, 30063, Note_on_c, 0, 50, 64
2, 30123, Note_off_c, 0, 50, 64
2, 30123, Note_off_c, 0, 68, 64
2, 30123, Note_on_c, 0, 71, 64
2, 30123, Note_on_c, 0, 49, 64
2, 30183, Note_off_c, 0, 49, 64
2, 30183, Note_on_c, 0, 47, 64
2, 30243, Note_off_c, 0, 47, 64
2, 30243, Note_off_c, 0, 71, 64
2, 30243, Note_on_c, 0, 76, 64
2, 30243, Note_on_c, 0, 49, 64
2, 30363, Note_off_c, 0, 76, 64
2, 30363, Note_on_c, 0, 64, 64
2, 30423, Note_off_c, 0, 64, 64
2, 30423, Note_on_c, 0, 62, 64
2, 30483, Note_off_c, 0, 62, 64
2, 30483, Note_off_c, 0, 49, 64
2, 30483, Note_on_c, 0, 61, 64
2, 30483, Note_on_c, 0, 37, 64
2, 30543, Note_off_c, 0, 61, 64
2, 30543, Note_on_c, 0, 59, 64
2, 30603, Note_off_c, 0, 59, 64
2, 30603, Note_off_c, 0, 37, 64
2, 30603, Note_on_c, 0, 57, 64
2, 30603, Note_on_c, 0, 49, 64
2, 30723, Note_off_c, 0, 57, 64
2, 30723, Note_on_c, 0, 61, 64
2, 30843, Note_off_c, 0, 61, 64
2, 30843, Note_off_c, 0, 49, 64
2, 30843, Note_on_c, 0, 57, 64
2, 30843, Note_on_c, 0, 49, 64
2, 30963, Note_off_c, 0, 49, 64
2, 30963, Note_off_c, 0, 57, 64
2, 30963, Note_on_c, 0, 49, 64
2, 30963, Note_on_c, 0, 54, 64
2, 31083, Note_off_c, 0, 54, 64
2, 31083, Note_on_c, 0, 62, 64
2, 31143, Note_off_c, 0, 62, 64
2, 31143, Note_on_c, 0, 64, 64
2, 31203, Note_off_c, 0, 64, 64
2, 31203, Note_on_c, 0, 66, 64
2, 31263, Note_off_c, 0, 66, 64
2, 31263, Note_on_c, 0, 68, 64
2, 31323, Note_off_c, 0, 68, 64
2, 31323, Note_off_c, 0, 49, 64
2, 31323, Note_on_c, 0, 69, 64
2, 31443, Note_off_c, 0, 69, 64
2, 31443, Note_on_c, 0, 66, 64
2, 31443, Note_on_c, 0, 50, 64
2, 31503, Note_off_c, 0, 50, 64
2, 31503, Note_on_c, 0, 49, 64
2, 31563, Note_off_c, 0, 49, 64
2, 31563, Note_off_c, 0, 66, 64
2, 31563, Note_on_c, 0, 69, 64
2, 31563, Note_on_c, 0, 47, 64
2, 31623, Note_off_c, 0, 47, 64
2, 31623, Note_on_c, 0, 45, 64
2, 31683, Note_off_c, 0, 45, 64
2, 31683, Note_off_c, 0, 69, 64
2, 31683, Note_on_c, 0, 74, 64
2, 31683, Note_on_c, 0, 47, 64
2, 31803, Note_off_c, 0, 47, 64
2, 31803, Note_on_c, 0, 54, 64
2, 31863, Note_off_c, 0, 54, 64
2, 31863, Note_on_c, 0, 52, 64
2, 31923, Note_off_c, 0, 52, 64
2, 31923, Note_off_c, 0, 74, 64
2, 31923, Note_on_c, 0, 66, 64
2, 31923, Note_on_c, 0, 50, 64
2, 31983, Note_off_c, 0, 50, 64
2, 31983, Note_on_c, 0, 49, 64
2, 32043, Note_off_c, 0, 49, 64
2, 32043, Note_off_c, 0, 66, 64
2, 32043, Note_on_c, 0, 66, 64
2, 32043, Note_on_c, 0, 74, 64
2, 32043, Note_on_c, 0, 47, 64
2, 32163, Note_off_c, 0, 47, 64
2, 32163, Note_on_c, 0, 50, 64
2, 32283, Note_off_c, 0, 50, 64
2, 32283, Note_off_c, 0, 74, 64
2, 32283, Note_off_c, 0, 66, 64
2, 32283, Note_on_c, 0, 66, 64
2, 32283, Note_on_c, 0, 74, 64
2, 32283, Note_on_c, 0, 47, 64
2, 32403, Note_off_c, 0, 47, 64
2, 32403, Note_off_c, 0, 74, 64
2, 32403, Note_off_c, 0, 66, 64
2, 32403, Note_on_c, 0, 64, 64
2, 32403, Note_on_c, 0, 74, 64
2, 32403, Note_on_c, 0, 44, 64
2, 32523, Note_off_c, 0, 44, 64
2, 32523, Note_on_c, 0, 47, 64
2, 32643, Note_off_c, 0, 47, 64
2, 32643, Note_on_c, 0, 44, 64
2, 32763, Note_off_c, 0, 44, 64
2, 32763, Note_off_c, 0, 74, 64
2, 32763, Note_off_c, 0, 64, 64
2, 32763, Note_on_c, 0, 40, 64
2, 32883, Note_off_c, 0, 40, 64
2, 32883, Note_on_c, 0, 76, 64
2, 32883, Note_on_c, 0, 44, 64
2, 32943, Note_off_c, 0, 76, 64
2, 32943, Note_on_c, 0, 74, 64
2, 33003, Note_off_c, 0, 74, 64
2, 33003, Note_off_c, 0, 44, 64
2, 33003, Note_on_c, 0, 40, 64
2, 33003, Note_on_c, 0, 73, 64
2, 33063, Note_off_c, 0, 73, 64
2, 33063, Note_on_c, 0, 71, 64
2, 33123, Note_off_c, 0, 71, 64
2, 33123, Note_off_c, 0, 40, 64
2, 33123, Note_on_c, 0, 73, 64
2, 33123, Note_on_c, 0, 45, 64
2, 33243, Note_off_c, 0, 45, 64
2, 33243, Note_off_c, 0, 73, 64
2, 33243, Note_on_c, 0, 69, 64
2, 33243, Note_on_c, 0, 49, 64
2, 33303, Note_off_c, 0, 69, 64
2, 33303, Note_on_c, 0, 71, 64
2, 33363, Note_off_c, 0, 71, 64
2, 33363, Note_off_c, 0, 49, 64
2, 33363, Note_on_c, 0, 73, 64
2, 33363, Note_on_c, 0, 45, 64
2, 33423, Note_off_c, 0, 73, 64
2, 33423, Note_on_c, 0, 74, 64
2, 33483, Note_off_c, 0, 74, 64
2, 33483, Note_off_c, 0, 45, 64
2, 33483, Note_on_c, 0, 76, 64
2, 33483, Note_on_c, 0, 42, 64
2, 33603, Note_off_c, 0, 42, 64
2, 33603, Note_off_c, 0, 76, 64
2, 33603, Note_on_c, 0, 74, 64
2, 33603, Note_on_c, 0, 45, 64
2, 33663, Note_off_c, 0, 74, 64
2, 33663, Note_on_c, 0, 73, 64
2, 33723, Note_off_c, 0, 73, 64
2, 33723, Note_off_c, 0, 45, 64
2, 33723, Note_on_c, 0, 71, 64
2, 33723, Note_on_c, 0, 42, 64
2, 33783, Note_off_c, 0, 71, 64
2, 33783, Note_on_c, 0, 69, 64
2, 33843, Note_off_c, 0, 69, 64
2, 33843, Note_off_c, 0, 42, 64
2, 33843, Note_on_c, 0, 74, 64
2, 33843, Note_on_c, 0, 47, 64
2, 33963, Note_off_c, 0, 47, 64
2, 33963, Note_off_c, 0, 74, 64
2, 33963, Note_on_c, 0, 71, 64
2, 33963, Note_on_c, 0, 50, 64
2, 34023, Note_off_c, 0, 71, 64
2, 34023, Note_on_c, 0, 73, 64
2, 34083, Note_off_c, 0, 73, 64
2, 34083, Note_off_c, 0, 50, 64
2, 34083, Note_on_c, 0, 74, 64
2, 34083, Note_on_c, 0, 47, 64
2, 34143, Note_off_c, 0, 74, 64
2, 34143, Note_on_c, 0, 76, 64
2, 34203, Note_off_c, 0, 76, 64
2, 34203, Note_off_c, 0, 47, 64
2, 34203, Note_on_c, 0, 78, 64
2, 34203, Note_on_c, 0, 44, 64
2, 34323, Note_off_c, 0, 44, 64
2, 34323, Note_off_c, 0, 78, 64
2, 34323, Note_on_c, 0, 76, 64
2, 34323, Note_on_c, 0, 47, 64
2, 34383, Note_off_c, 0, 76, 64
2, 34383, Note_on_c, 0, 74, 64
2, 34443, Note_off_c, 0, 74, 64
2, 34443, Note_off_c, 0, 47, 64
2, 34443, Note_on_c, 0, 44, 64
2, 34443, Note_on_c, 0, 73, 64
2, 34503, Note_off_c, 0, 73, 64
2, 34503, Note_on_c, 0, 71, 64
2, 34563, Note_off_c, 0, 71, 64
2, 34563, Note_off_c, 0, 44, 64
2, 34563, Note_on_c, 0, 76, 64
2, 34563, Note_on_c, 0, 49, 64
2, 34683, Note_off_c, 0, 49, 64
2, 34683, Note_on_c, 0, 57, 64
2, 34743, Note_off_c, 0, 57, 64
2, 34743, Note_on_c, 0, 59, 64
2, 34803, Note_off_c, 0, 59, 64
2, 34803, Note_on_c, 0, 61, 64
2, 34863, Note_off_c, 0, 61, 64
2, 34863, Note_on_c, 0, 62, 64
2, 34923, Note_off_c, 0, 62, 64
2, 34923, Note_on_c, 0, 64, 64
2, 35043, Note_off_c, 0, 64, 64
2, 35043, Note_on_c, 0, 62, 64
2, 35103, Note_off_c, 0, 62, 64
2, 35103, Note_on_c, 0, 61, 64
2, 35163, Note_off_c, 0, 61, 64
2, 35163, Note_on_c, 0, 59, 64
2, 35223, Note_off_c, 0, 59, 64
2, 35223, Note_on_c, 0, 57, 64
2, 35283, Note_off_c, 0, 57, 64
2, 35283, Note_on_c, 0, 66, 64
2, 35283, Note_on_c, 0, 50, 64
2, 35403, Note_off_c, 0, 50, 64
2, 35403, Note_off_c, 0, 66, 64
2, 35403, Note_on_c, 0, 59, 64
2, 35463, Note_off_c, 0, 59, 64
2, 35463, Note_on_c, 0, 61, 64
2, 35523, Note_off_c, 0, 61, 64
2, 35523, Note_on_c, 0, 62, 64
2, 35583, Note_off_c, 0, 62, 64
2, 35583, Note_on_c, 0, 64, 64
2, 35643, Note_off_c, 0, 64, 64
2, 35643, Note_off_c, 0, 76, 64
2, 35643, Note_on_c, 0, 74, 64
2, 35643, Note_on_c, 0, 66, 64
2, 35763, Note_off_c, 0, 66, 64
2, 35763, Note_on_c, 0, 64, 64
2, 35823, Note_off_c, 0, 64, 64
2, 35823, Note_on_c, 0, 62, 64
2, 35883, Note_off_c, 0, 62, 64
2, 35883, Note_on_c, 0, 61, 64
2, 35943, Note_off_c, 0, 61, 64
2, 35943, Note_on_c, 0, 59, 64
2, 36003, Note_off_c, 0, 59, 64
2, 36003, Note_on_c, 0, 68, 64
2, 36003, Note_on_c, 0, 52, 64
2, 36123, Note_off_c, 0, 68, 64
2, 36123, Note_on_c, 0, 64, 64
2, 36183, Note_off_c, 0, 64, 64
2, 36183, Note_on_c, 0, 66, 64
2, 36243, Note_off_c, 0, 66, 64
2, 36243, Note_off_c, 0, 52, 64
2, 36243, Note_on_c, 0, 68, 64
2, 36243, Note_on_c, 0, 40, 64
2, 36303, Note_off_c, 0, 68, 64
2, 36303, Note_on_c, 0, 69, 64
2, 36363, Note_off_c, 0, 69, 64
2, 36363, Note_off_c, 0, 40, 64
2, 36363, Note_off_c, 0, 74, 64
2, 36363, Note_on_c, 0, 74, 64
2, 36363, Note_on_c, 0, 71, 64
2, 36363, Note_on_c, 0, 40, 64
2, 36483, Note_off_c, 0, 71, 64
2, 36483, Note_on_c, 0, 68, 64
2, 36603, Note_off_c, 0, 68, 64
2, 36603, Note_off_c, 0, 40, 64
2, 36603, Note_on_c, 0, 71, 64
2, 36603, Note_on_c, 0, 40, 64
2, 36723, Note_off_c, 0, 40, 64
2, 36723, Note_off_c, 0, 71, 64
2, 36723, Note_off_c, 0, 74, 64
2, 36723, Note_on_c, 0, 80, 64
2, 36723, Note_on_c, 0, 74, 64
2, 36723, Note_on_c, 0, 40, 64
2, 36843, Note_off_c, 0, 74, 64
2, 36843, Note_on_c, 0, 71, 64
2, 36963, Note_off_c, 0, 71, 64
2, 36963, Note_on_c, 0, 74, 64
2, 37083, Note_off_c, 0, 74, 64
2, 37083, Note_off_c, 0, 80, 64
2, 37083, Note_on_c, 0, 83, 64
2, 37083, Note_on_c, 0, 80, 64
2, 37203, Note_off_c, 0, 80, 64
2, 37203, Note_on_c, 0, 74, 64
2, 37263, Note_off_c, 0, 40, 64
2, 37263, Note_on_c, 0, 47, 64
2, 37323, Note_off_c, 0, 47, 64
2, 37323, Note_off_c, 0, 74, 64
2, 37323, Note_on_c, 0, 80, 64
2, 37323, Note_on_c, 0, 49, 64
2, 37383, Note_off_c, 0, 49, 64
2, 37383, Note_on_c, 0, 50, 64
2, 37443, Note_off_c, 0, 50, 64
2, 37443, Note_off_c, 0, 80, 64
2, 37443, Note_on_c, 0, 73, 64
2, 37443, Note_on_c, 0, 52, 64
2, 37563, Note_off_c, 0, 83, 64
2, 37563, Note_on_c, 0, 81, 64
2, 37623, Note_off_c, 0, 81, 64
2, 37623, Note_on_c, 0, 80, 64
2, 37683, Note_off_c, 0, 80, 64
2, 37683, Note_off_c, 0, 52, 64
2, 37683, Note_on_c, 0, 78, 64
2, 37683, Note_on_c, 0, 40, 64
2, 37743, Note_off_c, 0, 78, 64
2, 37743, Note_on_c, 0, 76, 64
2, 37803, Note_off_c, 0, 76, 64
2, 37803, Note_off_c, 0, 40, 64
2, 37803, Note_off_c, 0, 73, 64
2, 37803, Note_on_c, 0, 75, 64
2, 37803, Note_on_c, 0, 69, 64
2, 37803, Note_on_c, 0, 40, 64
2, 37923, Note_off_c, 0, 75, 64
2, 37923, Note_on_c, 0, 78, 64
2, 38043, Note_off_c, 0, 78, 64
2, 38043, Note_off_c, 0, 40, 64
2, 38043, Note_on_c, 0, 75, 64
2, 38043, Note_on_c, 0, 40, 64
2, 38163, Note_off_c, 0, 40, 64
2, 38163, Note_off_c, 0, 75, 64
2, 38163, Note_off_c, 0, 69, 64
2, 38163, Note_on_c, 0, 40, 64
2, 38163, Note_on_c, 0, 69, 64
2, 38163, Note_on_c, 0, 66, 64
2, 38283, Note_off_c, 0, 69, 64
2, 38283, Note_on_c, 0, 75, 64
2, 38403, Note_off_c, 0, 75, 64
2, 38403, Note_on_c, 0, 69, 64
2, 38523, Note_off_c, 0, 69, 64
2, 38523, Note_off_c, 0, 66, 64
2, 38523, Note_off_c, 0, 40, 64
2, 38523, Note_on_c, 0, 63, 64
2, 38523, Note_on_c, 0, 66, 64
2, 38643, Note_off_c, 0, 66, 64
2, 38643, Note_on_c, 0, 69, 64
2, 38763, Note_off_c, 0, 69, 64
2, 38763, Note_on_c, 0, 66, 64
2, 38883, Note_off_c, 0, 66, 64
2, 38883, Note_off_c, 0, 63, 64
2, 38883, Note_on_c, 0, 68, 64
2, 38883, Note_on_c, 0, 64, 64
2, 39003, Note_off_c, 0, 68, 64
2, 39003, Note_on_c, 0, 66, 64
2, 39123, Note_off_c, 0, 66, 64
2, 39123, Note_on_c, 0, 64, 64
2, 39123, Note_on_c, 0, 62, 64
2, 39124, Note_off_c, 0, 64, 64
2, 39183, Note_on_c, 0, 52, 64
2, 39243, Note_off_c, 0, 52, 64
2, 39243, Note_off_c, 0, 62, 64
2, 39243, Note_off_c, 0, 64, 64
2, 39243, Note_on_c, 0, 69, 64
2, 39243, Note_on_c, 0, 61, 64
2, 39243, Note_on_c, 0, 54, 64
2, 39363, Note_off_c, 0, 54, 64
2, 39363, Note_on_c, 0, 52, 64
2, 39483, Note_off_c, 0, 52, 64
2, 39483, Note_off_c, 0, 61, 64
2, 39483, Note_off_c, 0, 69, 64
2, 39483, Note_on_c, 0, 74, 64
2, 39483, Note_on_c, 0, 69, 64
2, 39483, Note_on_c, 0, 50, 64
2, 39603, Note_off_c, 0, 50, 64
2, 39603, Note_off_c, 0, 69, 64
2, 39603, Note_off_c, 0, 74, 64
2, 39603, Note_on_c, 0, 73, 64
2, 39603, Note_on_c, 0, 69, 64
2, 39603, Note_on_c, 0, 52, 64
2, 39953, Note_off_c, 0, 73, 64
2, 39966, Note_off_c, 0, 52, 64
2, 39966, Note_off_c, 0, 69, 64
2, 39966, Note_on_c, 0, 73, 72
2, 39966, Note_on_c, 0, 40, 64
2, 39966, Note_on_c, 0, 68, 64
2, 39996, Note_off_c, 0, 73, 44
2, 39996, Note_on_c, 0, 71, 52
2, 40026, Note_off_c, 0, 71, 66
2, 40026, Note_on_c, 0, 73, 56
2, 40056, Note_off_c, 0, 73, 44
2, 40056, Note_on_c, 0, 71, 61
2, 40086, Note_off_c, 0, 71, 64
2, 40086, Note_on_c, 0, 69, 64
2, 40206, Note_off_c, 0, 69, 64
2, 40206, Note_on_c, 0, 71, 64
2, 40326, Note_off_c, 0, 71, 64
2, 40326, Note_off_c, 0, 68, 64
2, 40326, Note_off_c, 0, 40, 64
2, 40326, Note_on_c, 0, 69, 64
2, 40326, Note_on_c, 0, 45, 64
2, 40446, Note_off_c, 0, 69, 64
2, 40446, Note_on_c, 0, 73, 64
2, 40506, Note_off_c, 0, 73, 64
2, 40506, Note_on_c, 0, 71, 64
2, 40566, Note_off_c, 0, 71, 64
2, 40566, Note_off_c, 0, 45, 64
2, 40566, Note_on_c, 0, 69, 64
2, 40566, Note_on_c, 0, 52, 64
2, 40626, Note_off_c, 0, 69, 64
2, 40626, Note_on_c, 0, 68, 64
2, 40686, Note_off_c, 0, 68, 64
2, 40686, Note_off_c, 0, 52, 64
2, 40686, Note_on_c, 0, 57, 64
2, 40686, Note_on_c, 0, 66, 64
2, 40716, Note_off_c, 0, 57, 64
2, 40718, Note_on_c, 0, 55, 64
2, 40746, Note_on_c, 0, 57, 64
2, 40748, Note_off_c, 0, 55, 64
2, 40806, Note_off_c, 0, 66, 64
2, 40806, Note_on_c, 0, 69, 64
2, 40866, Note_off_c, 0, 69, 64
2, 40866, Note_on_c, 0, 68, 64
2, 40926, Note_off_c, 0, 68, 64
2, 40926, Note_on_c, 0, 66, 64
2, 40986, Note_off_c, 0, 66, 64
2, 40986, Note_on_c, 0, 64, 64
2, 41046, Note_off_c, 0, 64, 64
2, 41046, Note_on_c, 0, 63, 64
2, 41166, Note_off_c, 0, 63, 64
2, 41166, Note_off_c, 0, 57, 64
2, 41166, Note_on_c, 0, 66, 64
2, 41166, Note_on_c, 0, 59, 64
2, 41226, Note_off_c, 0, 59, 64
2, 41226, Note_on_c, 0, 57, 64
2, 41286, Note_off_c, 0, 57, 64
2, 41286, Note_off_c, 0, 66, 64
2, 41286, Note_on_c, 0, 71, 64
2, 41286, Note_on_c, 0, 56, 64
2, 41346, Note_off_c, 0, 56, 64
2, 41346, Note_on_c, 0, 54, 64
2, 41406, Note_off_c, 0, 54, 64
2, 41406, Note_off_c, 0, 71, 64
2, 41406, Note_on_c, 0, 71, 64
2, 41406, Note_on_c, 0, 53, 64
2, 41526, Note_off_c, 0, 53, 64
2, 41526, Note_on_c, 0, 68, 64
2, 41526, Note_on_c, 0, 54, 64
2, 41586, Note_off_c, 0, 54, 64
2, 41586, Note_on_c, 0, 53, 64
2, 41646, Note_off_c, 0, 53, 64
2, 41646, Note_off_c, 0, 68, 64
2, 41646, Note_on_c, 0, 65, 64
2, 41646, Note_on_c, 0, 51, 64
2, 41706, Note_off_c, 0, 51, 64
2, 41706, Note_on_c, 0, 49, 64
2, 41766, Note_off_c, 0, 49, 64
2, 41766, Note_off_c, 0, 65, 64
2, 41766, Note_on_c, 0, 61, 64
2, 41766, Note_on_c, 0, 54, 64
2, 41886, Note_off_c, 0, 71, 64
2, 41886, Note_on_c, 0, 69, 64
2, 41946, Note_off_c, 0, 69, 64
2, 41946, Note_on_c, 0, 68, 64
2, 42006, Note_off_c, 0, 68, 64
2, 42006, Note_off_c, 0, 54, 64
2, 42006, Note_on_c, 0, 66, 64
2, 42006, Note_on_c, 0, 42, 64
2, 42066, Note_off_c, 0, 66, 64
2, 42066, Note_on_c, 0, 64, 64
2, 42126, Note_off_c, 0, 64, 64
2, 42126, Note_off_c, 0, 42, 64
2, 42126, Note_off_c, 0, 61, 64
2, 42126, Note_on_c, 0, 54, 64
2, 42126, Note_on_c, 0, 62, 64
2, 42156, Note_off_c, 0, 54, 64
2, 42158, Note_on_c, 0, 52, 64
2, 42186, Note_on_c, 0, 54, 64
2, 42188, Note_off_c, 0, 52, 64
2, 42246, Note_off_c, 0, 62, 64
2, 42246, Note_on_c, 0, 66, 64
2, 42306, Note_off_c, 0, 66, 64
2, 42306, Note_on_c, 0, 64, 64
2, 42366, Note_off_c, 0, 64, 64
2, 42366, Note_on_c, 0, 62, 64
2, 42426, Note_off_c, 0, 62, 64
2, 42426, Note_on_c, 0, 61, 64
2, 42486, Note_off_c, 0, 61, 64
2, 42486, Note_on_c, 0, 59, 64
2, 42606, Note_off_c, 0, 59, 64
2, 42606, Note_off_c, 0, 54, 64
2, 42606, Note_on_c, 0, 62, 64
2, 42606, Note_on_c, 0, 55, 64
2, 42666, Note_off_c, 0, 55, 64
2, 42666, Note_on_c, 0, 54, 64
2, 42726, Note_off_c, 0, 54, 64
2, 42726, Note_off_c, 0, 62, 64
2, 42726, Note_on_c, 0, 67, 64
2, 42726, Note_on_c, 0, 52, 64
2, 42786, Note_off_c, 0, 52, 64
2, 42786, Note_on_c, 0, 50, 64
2, 42846, Note_off_c, 0, 50, 64
2, 42846, Note_off_c, 0, 67, 64
2, 42846, Note_on_c, 0, 67, 64
2, 42846, Note_on_c, 0, 49, 64
2, 42966, Note_off_c, 0, 49, 64
2, 42966, Note_on_c, 0, 64, 64
2, 42966, Note_on_c, 0, 50, 64
2, 43026, Note_off_c, 0, 50, 64
2, 43026, Note_on_c, 0, 49, 64
2, 43086, Note_off_c, 0, 49, 64
2, 43086, Note_off_c, 0, 64, 64
2, 43086, Note_on_c, 0, 61, 64
2, 43086, Note_on_c, 0, 47, 64
2, 43146, Note_off_c, 0, 47, 64
2, 43146, Note_on_c, 0, 45, 64
2, 43206, Note_off_c, 0, 45, 64
2, 43206, Note_off_c, 0, 61, 64
2, 43206, Note_on_c, 0, 57, 64
2, 43206, Note_on_c, 0, 50, 64
2, 43326, Note_off_c, 0, 67, 64
2, 43326, Note_on_c, 0, 66, 64
2, 43386, Note_off_c, 0, 66, 64
2, 43386, Note_on_c, 0, 64, 64
2, 43446, Note_off_c, 0, 64, 64
2, 43446, Note_off_c, 0, 50, 64
2, 43446, Note_on_c, 0, 62, 64
2, 43446, Note_on_c, 0, 38, 64
2, 43506, Note_off_c, 0, 62, 64
2, 43506, Note_on_c, 0, 61, 64
2, 43566, Note_off_c, 0, 61, 64
2, 43566, Note_off_c, 0, 38, 64
2, 43566, Note_off_c, 0, 57, 64
2, 43566, Note_on_c, 0, 50, 64
2, 43566, Note_on_c, 0, 59, 64
2, 43596, Note_off_c, 0, 50, 64
2, 43598, Note_on_c, 0, 49, 64
2, 43626, Note_on_c, 0, 50, 64
2, 43628, Note_off_c, 0, 49, 64
2, 43686, Note_off_c, 0, 59, 64
2, 43686, Note_on_c, 0, 62, 64
2, 43746, Note_off_c, 0, 62, 64
2, 43746, Note_on_c, 0, 61, 64
2, 43806, Note_off_c, 0, 61, 64
2, 43806, Note_on_c, 0, 59, 64
2, 43866, Note_off_c, 0, 59, 64
2, 43866, Note_on_c, 0, 57, 64
2, 43926, Note_off_c, 0, 57, 64
2, 43926, Note_on_c, 0, 56, 64
2, 44046, Note_off_c, 0, 56, 64
2, 44046, Note_off_c, 0, 50, 64
2, 44046, Note_on_c, 0, 59, 64
2, 44046, Note_on_c, 0, 52, 64
2, 44106, Note_off_c, 0, 52, 64
2, 44106, Note_on_c, 0, 50, 64
2, 44166, Note_off_c, 0, 50, 64
2, 44166, Note_off_c, 0, 59, 64
2, 44166, Note_on_c, 0, 64, 64
2, 44166, Note_on_c, 0, 49, 64
2, 44226, Note_off_c, 0, 49, 64
2, 44226, Note_on_c, 0, 47, 64
2, 44286, Note_off_c, 0, 47, 64
2, 44286, Note_off_c, 0, 64, 64
2, 44286, Note_on_c, 0, 61, 64
2, 44286, Note_on_c, 0, 45, 64
2, 44406, Note_off_c, 0, 45, 64
2, 44406, Note_off_c, 0, 61, 64
2, 44406, Note_on_c, 0, 64, 64
2, 44406, Note_on_c, 0, 47, 64
2, 44466, Note_off_c, 0, 47, 64
2, 44466, Note_on_c, 0, 49, 64
2, 44526, Note_off_c, 0, 49, 64
2, 44526, Note_off_c, 0, 64, 64
2, 44526, Note_on_c, 0, 69, 64
2, 44526, Note_on_c, 0, 50, 64
2, 44586, Note_off_c, 0, 50, 64
2, 44586, Note_on_c, 0, 52, 64
2, 44646, Note_off_c, 0, 52, 64
2, 44646, Note_off_c, 0, 69, 64
2, 44646, Note_on_c, 0, 62, 64
2, 44646, Note_on_c, 0, 54, 64
2, 44766, Note_off_c, 0, 54, 64
2, 44766, Note_on_c, 0, 52, 64
2, 44886, Note_off_c, 0, 52, 64
2, 44886, Note_off_c, 0, 62, 64
2, 44886, Note_on_c, 0, 69, 64
2, 44886, Note_on_c, 0, 50, 64
2, 44946, Note_on_c, 0, 62, 64
2, 45006, Note_off_c, 0, 62, 64
2, 45006, Note_off_c, 0, 50, 64
2, 45006, Note_off_c, 0, 69, 64
2, 45006, Note_on_c, 0, 64, 64
2, 45006, Note_on_c, 0, 61, 64
2, 45006, Note_on_c, 0, 52, 64
2, 45126, Note_off_c, 0, 64, 64
2, 45126, Note_on_c, 0, 69, 64
2, 45246, Note_off_c, 0, 69, 64
2, 45246, Note_off_c, 0, 52, 64
2, 45246, Note_off_c, 0, 61, 64
2, 45246, Note_on_c, 0, 68, 64
2, 45246, Note_on_c, 0, 59, 64
2, 45246, Note_on_c, 0, 40, 64
2, 45366, Note_off_c, 0, 40, 64
2, 45366, Note_off_c, 0, 59, 64
2, 45366, Note_off_c, 0, 68, 64
2, 45366, Note_on_c, 0, 61, 64
2, 45366, Note_on_c, 0, 69, 64
2, 45366, Note_on_c, 0, 45, 64
2, 45486, Note_off_c, 0, 45, 64
2, 45486, Note_on_c, 0, 49, 64
2, 45606, Note_off_c, 0, 49, 64
2, 45606, Note_on_c, 0, 52, 64
2, 45726, Note_off_c, 0, 52, 64
2, 45726, Note_on_c, 0, 57, 64
2, 46086, Note_off_c, 0, 57, 64
2, 46086, Note_off_c, 0, 69, 64
2, 46086, Note_off_c, 0, 61, 64
2, 46086, Note_on_c, 0, 45, 64
2, 46206, Note_on_c, 0, 76, 64
2, 46266, Note_off_c, 0, 76, 64
2, 46266, Note_on_c, 0, 74, 64
2, 46326, Note_off_c, 0, 74, 64
2, 46326, Note_on_c, 0, 73, 64
2, 46386, Note_off_c, 0, 73, 64
2, 46386, Note_on_c, 0, 71, 64
2, 46446, Note_off_c, 0, 71, 64
2, 46446, Note_off_c, 0, 45, 64
2, 46446, Note_on_c, 0, 69, 64
2, 46566, Note_off_c, 0, 69, 64
2, 46566, Note_on_c, 0, 73, 64
2, 46686, Note_off_c, 0, 73, 64
2, 46686, Note_on_c, 0, 69, 64
2, 46806, Note_off_c, 0, 69, 64
2, 46806, Note_on_c, 0, 64, 64
2, 46926, Note_off_c, 0, 64, 64
2, 46926, Note_on_c, 0, 69, 64
2, 47046, Note_off_c, 0, 69, 64
2, 47046, Note_on_c, 0, 64, 64
2, 47166, Note_off_c, 0, 64, 64
2, 47166, Note_on_c, 0, 61, 64
2, 47286, Note_off_c, 0, 61, 64
2, 47286, Note_on_c, 0, 64, 64
2, 47406, Note_off_c, 0, 64, 64
2, 47406, Note_on_c, 0, 61, 64
2, 47526, Note_off_c, 0, 61, 64
2, 47526, Note_on_c, 0, 57, 64
2, 47646, Note_on_c, 0, 69, 64
2, 47706, Note_off_c, 0, 69, 64
2, 47706, Note_on_c, 0, 71, 64
2, 47766, Note_off_c, 0, 71, 64
2, 47766, Note_on_c, 0, 73, 64
2, 47826, Note_off_c, 0, 73, 64
2, 47826, Note_on_c, 0, 74, 64
2, 47886, Note_off_c, 0, 74, 64
2, 47886, Note_off_c, 0, 57, 64
2, 47886, Note_on_c, 0, 76, 64
2, 47886, Note_on_c, 0, 61, 64
2, 47886, Note_on_c, 0, 69, 64
2, 47886, Note_on_c, 0, 57, 64
2, 48006, Note_off_c, 0, 76, 64
2, 48006, Note_on_c, 0, 73, 64
2, 48126, Note_off_c, 0, 73, 64
2, 48126, Note_on_c, 0, 76, 64
2, 48246, Note_off_c, 0, 76, 64
2, 48246, Note_off_c, 0, 57, 64
2, 48246, Note_off_c, 0, 69, 64
2, 48246, Note_off_c, 0, 61, 64
2, 48246, Note_on_c, 0, 81, 64
2, 48246, Note_on_c, 0, 61, 64
2, 48246, Note_on_c, 0, 69, 64
2, 48246, Note_on_c, 0, 57, 64
2, 48306, Note_off_c, 0, 81, 64
2, 48306, Note_on_c, 0, 76, 64
2, 48366, Note_off_c, 0, 76, 64
2, 48366, Note_off_c, 0, 57, 64
2, 48366, Note_on_c, 0, 78, 64
2, 48426, Note_off_c, 0, 78, 64
2, 48426, Note_off_c, 0, 69, 64
2, 48426, Note_off_c, 0, 61, 64
2, 48426, Note_on_c, 0, 80, 64
2, 48426, Note_on_c, 0, 62, 64
2, 48426, Note_on_c, 0, 71, 64
2, 48486, Note_off_c, 0, 80, 64
2, 48486, Note_on_c, 0, 81, 64
2, 48546, Note_off_c, 0, 81, 64
2, 48546, Note_on_c, 0, 80, 64
2, 48606, Note_off_c, 0, 80, 64
2, 48606, Note_off_c, 0, 71, 64
2, 48606, Note_off_c, 0, 62, 64
2, 48606, Note_on_c, 0, 81, 64
2, 48606, Note_on_c, 0, 62, 64
2, 48606, Note_on_c, 0, 71, 64
2, 48666, Note_off_c, 0, 81, 64
2, 48666, Note_on_c, 0, 76, 64
2, 48726, Note_off_c, 0, 76, 64
2, 48726, Note_on_c, 0, 78, 64
2, 48786, Note_off_c, 0, 78, 64
2, 48786, Note_off_c, 0, 71, 64
2, 48786, Note_off_c, 0, 62, 64
2, 48786, Note_on_c, 0, 73, 64
2, 48786, Note_on_c, 0, 64, 64
2, 48786, Note_on_c, 0, 80, 64
2, 48846, Note_off_c, 0, 80, 64
2, 48846, Note_on_c, 0, 81, 64
2, 48906, Note_off_c, 0, 81, 64
2, 48906, Note_on_c, 0, 80, 64
2, 48966, Note_off_c, 0, 80, 64
2, 48966, Note_off_c, 0, 64, 64
2, 48966, Note_off_c, 0, 73, 64
2, 48966, Note_on_c, 0, 81, 64
2, 48966, Note_on_c, 0, 64, 64
2, 48966, Note_on_c, 0, 73, 64
2, 49086, Note_off_c, 0, 73, 64
2, 49086, Note_off_c, 0, 64, 64
2, 49086, Note_off_c, 0, 81, 64
2, 49086, Note_on_c, 0, 80, 64
2, 49086, Note_on_c, 0, 64, 64
2, 49146, Note_off_c, 0, 64, 64
2, 49146, Note_off_c, 0, 80, 64
2, 49146, Note_on_c, 0, 78, 64
2, 49146, Note_on_c, 0, 62, 64
2, 49206, Note_off_c, 0, 62, 64
2, 49206, Note_off_c, 0, 78, 64
2, 49206, Note_on_c, 0, 76, 64
2, 49206, Note_on_c, 0, 61, 64
2, 49266, Note_off_c, 0, 61, 64
2, 49266, Note_off_c, 0, 76, 64
2, 49266, Note_on_c, 0, 74, 64
2, 49266, Note_on_c, 0, 59, 64
2, 49326, Note_off_c, 0, 59, 64
2, 49326, Note_off_c, 0, 74, 64
2, 49326, Note_on_c, 0, 73, 64
2, 49326, Note_on_c, 0, 57, 64
2, 49386, Note_off_c, 0, 73, 64
2, 49386, Note_on_c, 0, 74, 64
2, 49446, Note_off_c, 0, 74, 64
2, 49446, Note_off_c, 0, 57, 64
2, 49446, Note_on_c, 0, 76, 64
2, 49446, Note_on_c, 0, 61, 64
2, 49506, Note_off_c, 0, 76, 64
2, 49506, Note_on_c, 0, 74, 64
2, 49566, Note_off_c, 0, 74, 64
2, 49566, Note_off_c, 0, 61, 64
2, 49566, Note_on_c, 0, 73, 64
2, 49566, Note_on_c, 0, 57, 64
2, 49626, Note_off_c, 0, 73, 64
2, 49626, Note_on_c, 0, 71, 64
2, 49676, Note_off_c, 0, 71, 64
2, 49689, Note_off_c, 0, 57, 64
2, 49689, Note_on_c, 0, 71, 74
2, 49689, Note_on_c, 0, 52, 64
2, 49719, Note_off_c, 0, 71, 52
2, 49719, Note_on_c, 0, 69, 50
2, 49749, Note_off_c, 0, 69, 58
2, 49749, Note_on_c, 0, 71, 50
2, 49779, Note_off_c, 0, 71, 62
2, 49779, Note_on_c, 0, 69, 51
2, 49809, Note_off_c, 0, 69, 51
2, 49809, Note_off_c, 0, 52, 64
2, 49809, Note_on_c, 0, 71, 52
2, 49809, Note_on_c, 0, 57, 64
2, 49839, Note_off_c, 0, 71, 72
2, 49839, Note_on_c, 0, 69, 52
2, 49869, Note_off_c, 0, 69, 69
2, 49869, Note_on_c, 0, 71, 53
2, 49899, Note_off_c, 0, 71, 70
2, 49899, Note_on_c, 0, 69, 54
2, 49929, Note_off_c, 0, 69, 69
2, 49929, Note_off_c, 0, 57, 64
2, 49929, Note_on_c, 0, 71, 54
2, 49929, Note_on_c, 0, 52, 64
2, 49959, Note_off_c, 0, 71, 68
2, 49959, Note_on_c, 0, 69, 55
2, 49989, Note_off_c, 0, 69, 72
2, 49989, Note_on_c, 0, 71, 56
2, 50019, Note_off_c, 0, 71, 79
2, 50019, Note_on_c, 0, 69, 56
2, 50049, Note_off_c, 0, 69, 72
2, 50049, Note_off_c, 0, 52, 64
2, 50049, Note_on_c, 0, 71, 57
2, 50049, Note_on_c, 0, 49, 64
2, 50079, Note_off_c, 0, 71, 72
2, 50079, Note_on_c, 0, 69, 58
2, 50109, Note_off_c, 0, 69, 65
2, 50109, Note_on_c, 0, 71, 58
2, 50139, Note_off_c, 0, 71, 73
2, 50139, Note_on_c, 0, 69, 59
2, 50169, Note_off_c, 0, 69, 61
2, 50169, Note_off_c, 0, 49, 64
2, 50169, Note_on_c, 0, 71, 60
2, 50169, Note_on_c, 0, 52, 64
2, 50199, Note_off_c, 0, 71, 73
2, 50199, Note_on_c, 0, 69, 60
2, 50229, Note_off_c, 0, 69, 72
2, 50229, Note_on_c, 0, 71, 61
2, 50259, Note_off_c, 0, 71, 77
2, 50259, Note_on_c, 0, 69, 62
2, 50289, Note_off_c, 0, 69, 50
2, 50289, Note_off_c, 0, 52, 64
2, 50289, Note_on_c, 0, 71, 62
2, 50289, Note_on_c, 0, 49, 64
2, 50319, Note_off_c, 0, 71, 59
2, 50319, Note_on_c, 0, 69, 63
2, 50349, Note_off_c, 0, 69, 47
2, 50349, Note_on_c, 0, 71, 82
2, 50379, Note_off_c, 0, 71, 62
2, 50379, Note_on_c, 0, 69, 73
2, 50409, Note_off_c, 0, 49, 64
2, 50409, Note_on_c, 0, 45, 64
2, 50469, Note_off_c, 0, 69, 57
2, 50469, Note_on_c, 0, 71, 64
2, 50529, Note_off_c, 0, 71, 64
2, 50529, Note_on_c, 0, 69, 64
2, 50589, Note_off_c, 0, 69, 64
2, 50589, Note_on_c, 0, 68, 64
2, 50649, Note_off_c, 0, 68, 64
2, 50649, Note_on_c, 0, 69, 64
2, 50709, Note_off_c, 0, 69, 64
2, 50709, Note_on_c, 0, 64, 64
2, 50769, Note_off_c, 0, 64, 64
2, 50769, Note_off_c, 0, 45, 64
2, 50769, Note_on_c, 0, 61, 64
2, 50769, Note_on_c, 0, 45, 64
2, 50769, Note_on_c, 0, 49, 64
2, 50769, Note_on_c, 0, 52, 64
2, 50829, Note_off_c, 0, 61, 64
2, 50829, Note_on_c, 0, 66, 64
2, 50889, Note_off_c, 0, 66, 64
2, 50889, Note_on_c, 0, 64, 64
2, 50949, Note_off_c, 0, 64, 64
2, 50949, Note_on_c, 0, 62, 64
2, 51009, Note_off_c, 0, 62, 64
2, 51009, Note_on_c, 0, 64, 64
2, 51069, Note_off_c, 0, 64, 64
2, 51069, Note_on_c, 0, 61, 64
2, 51129, Note_off_c, 0, 61, 64
2, 51129, Note_off_c, 0, 52, 64
2, 51129, Note_off_c, 0, 49, 64
2, 51129, Note_off_c, 0, 45, 64
2, 51129, Note_on_c, 0, 59, 72
2, 51129, Note_on_c, 0, 45, 64
2, 51129, Note_on_c, 0, 49, 64
2, 51129, Note_on_c, 0, 52, 64
2, 51159, Note_off_c, 0, 59, 49
2, 51159, Note_on_c, 0, 57, 72
2, 51189, Note_off_c, 0, 57, 59
2, 51189, Note_on_c, 0, 59, 50
2, 51219, Note_off_c, 0, 59, 54
2, 51219, Note_on_c, 0, 57, 51
2, 51249, Note_off_c, 0, 57, 48
2, 51249, Note_on_c, 0, 59, 51
2, 51279, Note_off_c, 0, 59, 61
2, 51279, Note_on_c, 0, 57, 52
2, 51309, Note_off_c, 0, 57, 57
2, 51309, Note_off_c, 0, 52, 64
2, 51309, Note_off_c, 0, 49, 64
2, 51309, Note_off_c, 0, 45, 64
2, 51309, Note_on_c, 0, 59, 53
2, 51309, Note_on_c, 0, 47, 64
2, 51309, Note_on_c, 0, 50, 64
2, 51339, Note_off_c, 0, 59, 62
2, 51339, Note_on_c, 0, 57, 53
2, 51369, Note_off_c, 0, 57, 55
2, 51369, Note_on_c, 0, 59, 54
2, 51399, Note_off_c, 0, 59, 59
2, 51399, Note_on_c, 0, 57, 55
2, 51429, Note_off_c, 0, 57, 65
2, 51429, Note_on_c, 0, 59, 55
2, 51459, Note_off_c, 0, 59, 59
2, 51459, Note_on_c, 0, 57, 56
2, 51489, Note_off_c, 0, 57, 58
2, 51489, Note_off_c, 0, 50, 64
2, 51489, Note_off_c, 0, 47, 64
2, 51489, Note_on_c, 0, 59, 57
2, 51489, Note_on_c, 0, 47, 64
2, 51489, Note_on_c, 0, 50, 64
2, 51519, Note_off_c, 0, 59, 52
2, 51519, Note_on_c, 0, 57, 57
2, 51549, Note_off_c, 0, 57, 59
2, 51549, Note_on_c, 0, 59, 58
2, 51579, Note_off_c, 0, 59, 49
2, 51579, Note_on_c, 0, 57, 59
2, 51609, Note_off_c, 0, 57, 46
2, 51609, Note_on_c, 0, 59, 59
2, 51639, Note_off_c, 0, 59, 50
2, 51639, Note_on_c, 0, 57, 60
2, 51669, Note_off_c, 0, 57, 61
2, 51669, Note_off_c, 0, 50, 64
2, 51669, Note_off_c, 0, 47, 64
2, 51669, Note_on_c, 0, 59, 61
2, 51669, Note_on_c, 0, 52, 64
2, 51669, Note_on_c, 0, 49, 64
2, 51699, Note_off_c, 0, 59, 48
2, 51699, Note_on_c, 0, 57, 62
2, 51729, Note_off_c, 0, 57, 43
2, 51729, Note_on_c, 0, 59, 62
2, 51759, Note_off_c, 0, 59, 48
2, 51759, Note_on_c, 0, 57, 63
2, 51789, Note_off_c, 0, 57, 38
2, 51789, Note_on_c, 0, 59, 63
2, 51819, Note_off_c, 0, 59, 50
2, 51819, Note_on_c, 0, 57, 79
2, 51849, Note_off_c, 0, 49, 64
2, 51849, Note_off_c, 0, 52, 64
2, 51849, Note_on_c, 0, 52, 64
2, 51849, Note_on_c, 0, 49, 64
2, 51899, Note_off_c, 0, 57, 52
2, 51969, Note_off_c, 0, 52, 64
2, 51969, Note_on_c, 0, 57, 64
2, 52029, Note_off_c, 0, 57, 64
2, 52029, Note_on_c, 0, 59, 64
2, 52089, Note_off_c, 0, 59, 64
2, 52089, Note_on_c, 0, 61, 64
2, 52149, Note_off_c, 0, 61, 64
2, 52149, Note_on_c, 0, 62, 64
2, 52209, Note_off_c, 0, 62, 64
2, 52209, Note_off_c, 0, 49, 64
2, 52209, Note_on_c, 0, 64, 64
2, 52329, Note_off_c, 0, 64, 64
2, 52329, Note_on_c, 0, 61, 64
2, 52449, Note_off_c, 0, 61, 64
2, 52449, Note_on_c, 0, 64, 64
2, 52509, Note_on_c, 0, 57, 64
2, 52569, Note_off_c, 0, 57, 64
2, 52569, Note_off_c, 0, 64, 64
2, 52569, Note_on_c, 0, 67, 64
2, 52569, Note_on_c, 0, 59, 64
2, 52689, Note_off_c, 0, 59, 64
2, 52689, Note_off_c, 0, 67, 64
2, 52689, Note_on_c, 0, 76, 64
2, 52689, Note_on_c, 0, 61, 64
2, 52749, Note_off_c, 0, 61, 64
2, 52749, Note_off_c, 0, 76, 64
2, 52749, Note_on_c, 0, 74, 64
2, 52749, Note_on_c, 0, 59, 64
2, 52809, Note_off_c, 0, 59, 64
2, 52809, Note_off_c, 0, 74, 64
2, 52809, Note_on_c, 0, 73, 64
2, 52809, Note_on_c, 0, 57, 64
2, 52869, Note_off_c, 0, 57, 64
2, 52869, Note_off_c, 0, 73, 64
2, 52869, Note_on_c, 0, 71, 64
2, 52869, Note_on_c, 0, 59, 64
2, 52929, Note_off_c, 0, 59, 64
2, 52929, Note_off_c, 0, 71, 64
2, 52929, Note_on_c, 0, 69, 64
2, 52929, Note_on_c, 0, 61, 64
2, 53049, Note_off_c, 0, 61, 64
2, 53049, Note_off_c, 0, 69, 64
2, 53049, Note_on_c, 0, 76, 64
2, 53049, Note_on_c, 0, 62, 64
2, 53109, Note_off_c, 0, 62, 64
2, 53109, Note_on_c, 0, 61, 64
2, 53169, Note_off_c, 0, 61, 64
2, 53169, Note_off_c, 0, 76, 64
2, 53169, Note_on_c, 0, 67, 64
2, 53169, Note_on_c, 0, 59, 64
2, 53229, Note_off_c, 0, 59, 64
2, 53229, Note_on_c, 0, 61, 64
2, 53289, Note_off_c, 0, 61, 64
2, 53289, Note_off_c, 0, 67, 64
2, 53289, Note_on_c, 0, 66, 64
2, 53289, Note_on_c, 0, 62, 64
2, 53409, Note_off_c, 0, 66, 64
2, 53409, Note_on_c, 0, 62, 64
2, 53469, Note_off_c, 0, 62, 64
2, 53469, Note_on_c, 0, 64, 64
2, 53529, Note_off_c, 0, 64, 64
2, 53529, Note_on_c, 0, 66, 64
2, 53589, Note_off_c, 0, 66, 64
2, 53589, Note_on_c, 0, 67, 64
2, 53649, Note_off_c, 0, 67, 64
2, 53649, Note_off_c, 0, 62, 64
2, 53649, Note_on_c, 0, 69, 64
2, 53769, Note_off_c, 0, 69, 64
2, 53769, Note_on_c, 0, 66, 64
2, 53889, Note_off_c, 0, 66, 64
2, 53889, Note_on_c, 0, 69, 64
2, 53949, Note_on_c, 0, 50, 64
2, 54009, Note_off_c, 0, 50, 64
2, 54009, Note_off_c, 0, 69, 64
2, 54009, Note_on_c, 0, 72, 64
2, 54009, Note_on_c, 0, 52, 64
2, 54129, Note_off_c, 0, 52, 64
2, 54129, Note_off_c, 0, 72, 64
2, 54129, Note_on_c, 0, 81, 64
2, 54129, Note_on_c, 0, 54, 64
2, 54189, Note_off_c, 0, 54, 64
2, 54189, Note_off_c, 0, 81, 64
2, 54189, Note_on_c, 0, 79, 64
2, 54189, Note_on_c, 0, 52, 64
2, 54249, Note_off_c, 0, 52, 64
2, 54249, Note_off_c, 0, 79, 64
2, 54249, Note_on_c, 0, 78, 64
2, 54249, Note_on_c, 0, 50, 64
2, 54309, Note_off_c, 0, 50, 64
2, 54309, Note_off_c, 0, 78, 64
2, 54309, Note_on_c, 0, 76, 64
2, 54309, Note_on_c, 0, 52, 64
2, 54369, Note_off_c, 0, 52, 64
2, 54369, Note_off_c, 0, 76, 64
2, 54369, Note_on_c, 0, 74, 64
2, 54369, Note_on_c, 0, 54, 64
2, 54489, Note_off_c, 0, 54, 64
2, 54489, Note_off_c, 0, 74, 64
2, 54489, Note_on_c, 0, 81, 64
2, 54489, Note_on_c, 0, 55, 64
2, 54549, Note_off_c, 0, 55, 64
2, 54549, Note_on_c, 0, 54, 64
2, 54609, Note_off_c, 0, 54, 64
2, 54609, Note_off_c, 0, 81, 64
2, 54609, Note_on_c, 0, 72, 64
2, 54609, Note_on_c, 0, 52, 64
2, 54669, Note_off_c, 0, 52, 64
2, 54669, Note_on_c, 0, 54, 64
2, 54729, Note_off_c, 0, 54, 64
2, 54729, Note_off_c, 0, 72, 64
2, 54729, Note_on_c, 0, 71, 64
2, 54729, Note_on_c, 0, 55, 64
2, 54849, Note_off_c, 0, 55, 64
2, 54849, Note_on_c, 0, 59, 64
2, 54909, Note_off_c, 0, 59, 64
2, 54909, Note_on_c, 0, 57, 64
2, 54969, Note_off_c, 0, 57, 64
2, 54969, Note_on_c, 0, 55, 64
2, 55029, Note_off_c, 0, 55, 64
2, 55029, Note_on_c, 0, 69, 64
2, 55029, Note_on_c, 0, 54, 64
2, 55089, Note_off_c, 0, 54, 64
2, 55089, Note_off_c, 0, 69, 64
2, 55089, Note_on_c, 0, 67, 64
2, 55089, Note_on_c, 0, 52, 64
2, 55209, Note_off_c, 0, 52, 64
2, 55209, Note_on_c, 0, 55, 64
2, 55269, Note_off_c, 0, 55, 64
2, 55269, Note_on_c, 0, 54, 64
2, 55329, Note_off_c, 0, 54, 64
2, 55329, Note_on_c, 0, 52, 64
2, 55389, Note_off_c, 0, 52, 64
2, 55389, Note_off_c, 0, 67, 64
2, 55389, Note_on_c, 0, 66, 64
2, 55389, Note_on_c, 0, 50, 64
2, 55449, Note_off_c, 0, 50, 64
2, 55449, Note_off_c, 0, 66, 64
2, 55449, Note_on_c, 0, 64, 64
2, 55449, Note_on_c, 0, 49, 64
2, 55569, Note_off_c, 0, 49, 64
2, 55569, Note_off_c, 0, 71, 64
2, 55569, Note_on_c, 0, 73, 64
2, 55569, Note_on_c, 0, 52, 64
2, 55629, Note_off_c, 0, 73, 64
2, 55629, Note_on_c, 0, 71, 64
2, 55689, Note_off_c, 0, 71, 64
2, 55689, Note_off_c, 0, 52, 64
2, 55689, Note_on_c, 0, 70, 64
2, 55689, Note_on_c, 0, 49, 64
2, 55749, Note_off_c, 0, 70, 64
2, 55749, Note_on_c, 0, 71, 64
2, 55809, Note_off_c, 0, 71, 64
2, 55809, Note_off_c, 0, 49, 64
2, 55809, Note_on_c, 0, 73, 64
2, 55809, Note_on_c, 0, 46, 64
2, 55929, Note_off_c, 0, 46, 64
2, 55929, Note_on_c, 0, 49, 64
2, 56049, Note_off_c, 0, 49, 64
2, 56049, Note_on_c, 0, 46, 64
2, 56109, Note_off_c, 0, 64, 64
2, 56109, Note_on_c, 0, 67, 64
2, 56169, Note_off_c, 0, 67, 64
2, 56169, Note_off_c, 0, 46, 64
2, 56169, Note_on_c, 0, 66, 64
2, 56169, Note_on_c, 0, 50, 64
2, 56289, Note_off_c, 0, 50, 64
2, 56289, Note_off_c, 0, 73, 64
2, 56289, Note_on_c, 0, 74, 64
2, 56289, Note_on_c, 0, 54, 64
2, 56349, Note_off_c, 0, 74, 64
2, 56349, Note_on_c, 0, 73, 64
2, 56409, Note_off_c, 0, 73, 64
2, 56409, Note_off_c, 0, 54, 64
2, 56409, Note_on_c, 0, 71, 64
2, 56409, Note_on_c, 0, 50, 64
2, 56469, Note_off_c, 0, 71, 64
2, 56469, Note_on_c, 0, 73, 64
2, 56529, Note_off_c, 0, 73, 64
2, 56529, Note_off_c, 0, 50, 64
2, 56529, Note_on_c, 0, 74, 64
2, 56529, Note_on_c, 0, 47, 64
2, 56649, Note_off_c, 0, 47, 64
2, 56649, Note_on_c, 0, 50, 64
2, 56769, Note_off_c, 0, 50, 64
2, 56769, Note_on_c, 0, 47, 64
2, 56829, Note_off_c, 0, 66, 64
2, 56829, Note_on_c, 0, 69, 64
2, 56889, Note_off_c, 0, 69, 64
2, 56889, Note_off_c, 0, 47, 64
2, 56889, Note_on_c, 0, 67, 64
2, 56889, Note_on_c, 0, 52, 64
2, 57009, Note_off_c, 0, 52, 64
2, 57009, Note_off_c, 0, 74, 64
2, 57009, Note_on_c, 0, 76, 64
2, 57009, Note_on_c, 0, 55, 64
2, 57069, Note_off_c, 0, 76, 64
2, 57069, Note_on_c, 0, 74, 64
2, 57129, Note_off_c, 0, 74, 64
2, 57129, Note_off_c, 0, 55, 64
2, 57129, Note_on_c, 0, 73, 64
2, 57129, Note_on_c, 0, 52, 64
2, 57189, Note_off_c, 0, 73, 64
2, 57189, Note_on_c, 0, 74, 64
2, 57249, Note_off_c, 0, 74, 64
2, 57249, Note_off_c, 0, 52, 64
2, 57249, Note_on_c, 0, 76, 64
2, 57249, Note_on_c, 0, 49, 64
2, 57369, Note_off_c, 0, 49, 64
2, 57369, Note_on_c, 0, 52, 64
2, 57489, Note_off_c, 0, 52, 64
2, 57489, Note_on_c, 0, 49, 64
2, 57549, Note_off_c, 0, 67, 64
2, 57549, Note_on_c, 0, 71, 64
2, 57609, Note_off_c, 0, 71, 64
2, 57609, Note_off_c, 0, 49, 64
2, 57609, Note_on_c, 0, 70, 64
2, 57609, Note_on_c, 0, 54, 64
2, 57729, Note_off_c, 0, 70, 64
2, 57729, Note_off_c, 0, 76, 64
2, 57729, Note_on_c, 0, 79, 64
2, 57789, Note_off_c, 0, 79, 64
2, 57789, Note_on_c, 0, 78, 64
2, 57849, Note_off_c, 0, 78, 64
2, 57849, Note_off_c, 0, 54, 64
2, 57849, Note_on_c, 0, 76, 64
2, 57849, Note_on_c, 0, 59, 64
2, 57909, Note_off_c, 0, 76, 64
2, 57909, Note_on_c, 0, 75, 64
2, 57969, Note_off_c, 0, 75, 64
2, 57969, Note_off_c, 0, 59, 64
2, 57969, Note_on_c, 0, 76, 64
2, 57969, Note_on_c, 0, 58, 64
2, 58089, Note_off_c, 0, 58, 64
2, 58089, Note_off_c, 0, 76, 64
2, 58089, Note_on_c, 0, 79, 64
2, 58089, Note_on_c, 0, 59, 64
2, 58209, Note_off_c, 0, 59, 64
2, 58209, Note_off_c, 0, 79, 64
2, 58209, Note_on_c, 0, 75, 64
2, 58209, Note_on_c, 0, 61, 64
2, 58329, Note_off_c, 0, 61, 64
2, 58329, Note_off_c, 0, 75, 64
2, 58329, Note_on_c, 0, 76, 64
2, 58329, Note_on_c, 0, 73, 64
2, 58329, Note_on_c, 0, 54, 64
2, 58449, Note_off_c, 0, 73, 64
2, 58449, Note_off_c, 0, 76, 64
2, 58449, Note_on_c, 0, 79, 64
2, 58509, Note_off_c, 0, 79, 64
2, 58509, Note_on_c, 0, 78, 64
2, 58569, Note_off_c, 0, 78, 64
2, 58569, Note_off_c, 0, 54, 64
2, 58569, Note_on_c, 0, 76, 64
2, 58569, Note_on_c, 0, 59, 64
2, 58629, Note_off_c, 0, 76, 64
2, 58629, Note_on_c, 0, 75, 64
2, 58689, Note_off_c, 0, 75, 64
2, 58689, Note_off_c, 0, 59, 64
2, 58689, Note_on_c, 0, 76, 64
2, 58689, Note_on_c, 0, 58, 64
2, 58809, Note_off_c, 0, 76, 64
2, 58809, Note_on_c, 0, 78, 64
2, 58869, Note_off_c, 0, 78, 64
2, 58869, Note_on_c, 0, 76, 64
2, 58929, Note_off_c, 0, 76, 64
2, 58929, Note_off_c, 0, 58, 64
2, 58929, Note_on_c, 0, 59, 64
2, 58929, Note_on_c, 0, 75, 64
2, 58989, Note_off_c, 0, 75, 64
2, 58989, Note_on_c, 0, 73, 64
2, 59049, Note_off_c, 0, 73, 64
2, 59049, Note_off_c, 0, 59, 64
2, 59049, Note_on_c, 0, 75, 64
2, 59049, Note_on_c, 0, 47, 64
2, 59169, Note_off_c, 0, 75, 64
2, 59169, Note_on_c, 0, 72, 64
2, 59229, Note_off_c, 0, 72, 64
2, 59229, Note_on_c, 0, 71, 64
2, 59289, Note_off_c, 0, 71, 64
2, 59289, Note_off_c, 0, 47, 64
2, 59289, Note_on_c, 0, 69, 64
2, 59289, Note_on_c, 0, 64, 64
2, 59349, Note_off_c, 0, 69, 64
2, 59349, Note_on_c, 0, 68, 64
2, 59409, Note_off_c, 0, 68, 64
2, 59409, Note_off_c, 0, 64, 64
2, 59409, Note_on_c, 0, 69, 64
2, 59409, Note_on_c, 0, 63, 64
2, 59529, Note_off_c, 0, 63, 64
2, 59529, Note_off_c, 0, 69, 64
2, 59529, Note_on_c, 0, 72, 64
2, 59529, Note_on_c, 0, 64, 64
2, 59649, Note_off_c, 0, 64, 64
2, 59649, Note_off_c, 0, 72, 64
2, 59649, Note_on_c, 0, 68, 64
2, 59649, Note_on_c, 0, 66, 64
2, 59769, Note_off_c, 0, 66, 64
2, 59769, Note_off_c, 0, 68, 64
2, 59769, Note_on_c, 0, 78, 64
2, 59769, Note_on_c, 0, 69, 64
2, 59769, Note_on_c, 0, 59, 64
2, 59889, Note_off_c, 0, 69, 64
2, 59889, Note_off_c, 0, 78, 64
2, 59889, Note_on_c, 0, 72, 64
2, 59949, Note_off_c, 0, 72, 64
2, 59949, Note_on_c, 0, 71, 64
2, 60009, Note_off_c, 0, 71, 64
2, 60009, Note_off_c, 0, 59, 64
2, 60009, Note_on_c, 0, 69, 64
2, 60009, Note_on_c, 0, 64, 64
2, 60069, Note_off_c, 0, 69, 64
2, 60069, Note_on_c, 0, 68, 64
2, 60129, Note_off_c, 0, 68, 64
2, 60129, Note_off_c, 0, 64, 64
2, 60129, Note_on_c, 0, 69, 64
2, 60129, Note_on_c, 0, 63, 64
2, 60249, Note_off_c, 0, 63, 64
2, 60249, Note_off_c, 0, 69, 64
2, 60249, Note_on_c, 0, 64, 64
2, 60249, Note_on_c, 0, 71, 64
2, 60309, Note_off_c, 0, 71, 64
2, 60309, Note_on_c, 0, 69, 64
2, 60369, Note_off_c, 0, 69, 64
2, 60369, Note_on_c, 0, 67, 64
2, 60429, Note_off_c, 0, 67, 64
2, 60429, Note_on_c, 0, 66, 64
2, 60489, Note_off_c, 0, 66, 64
2, 60489, Note_off_c, 0, 64, 64
2, 60489, Note_on_c, 0, 67, 64
2, 60489, Note_on_c, 0, 52, 64
2, 60549, Note_off_c, 0, 52, 64
2, 60549, Note_on_c, 0, 71, 64
2, 60549, Note_on_c, 0, 55, 64
2, 60609, Note_off_c, 0, 55, 64
2, 60609, Note_off_c, 0, 71, 64
2, 60609, Note_off_c, 0, 67, 64
2, 60609, Note_on_c, 0, 73, 64
2, 60609, Note_on_c, 0, 57, 64
2, 60669, Note_off_c, 0, 57, 64
2, 60669, Note_off_c, 0, 73, 64
2, 60669, Note_on_c, 0, 75, 64
2, 60669, Note_on_c, 0, 59, 64
2, 60729, Note_off_c, 0, 59, 64
2, 60729, Note_off_c, 0, 75, 64
2, 60729, Note_on_c, 0, 76, 64
2, 60729, Note_on_c, 0, 61, 64
2, 60789, Note_off_c, 0, 61, 64
2, 60789, Note_off_c, 0, 76, 64
2, 60789, Note_on_c, 0, 78, 64
2, 60789, Note_on_c, 0, 63, 64
2, 60849, Note_off_c, 0, 63, 64
2, 60849, Note_off_c, 0, 78, 64
2, 60849, Note_on_c, 0, 79, 64
2, 60849, Note_on_c, 0, 64, 64
2, 60909, Note_off_c, 0, 79, 64
2, 60909, Note_on_c, 0, 78, 64
2, 60969, Note_off_c, 0, 78, 64
2, 60969, Note_off_c, 0, 64, 64
2, 60969, Note_on_c, 0, 76, 64
2, 60969, Note_on_c, 0, 67, 64
2, 61029, Note_off_c, 0, 76, 64
2, 61029, Note_on_c, 0, 74, 64
2, 61089, Note_off_c, 0, 74, 64
2, 61089, Note_off_c, 0, 67, 64
2, 61089, Note_on_c, 0, 73, 64
2, 61089, Note_on_c, 0, 64, 64
2, 61149, Note_off_c, 0, 73, 64
2, 61149, Note_on_c, 0, 71, 64
2, 61209, Note_off_c, 0, 71, 64
2, 61209, Note_off_c, 0, 64, 64
2, 61209, Note_on_c, 0, 76, 64
2, 61209, Note_on_c, 0, 61, 64
2, 61269, Note_off_c, 0, 76, 64
2, 61269, Note_on_c, 0, 74, 64
2, 61329, Note_off_c, 0, 74, 64
2, 61329, Note_off_c, 0, 61, 64
2, 61329, Note_on_c, 0, 73, 64
2, 61329, Note_on_c, 0, 64, 64
2, 61389, Note_off_c, 0, 73, 64
2, 61389, Note_on_c, 0, 71, 64
2, 61449, Note_off_c, 0, 71, 64
2, 61449, Note_off_c, 0, 64, 64
2, 61449, Note_on_c, 0, 69, 64
2, 61449, Note_on_c, 0, 61, 64
2, 61509, Note_off_c, 0, 69, 64
2, 61509, Note_on_c, 0, 68, 64
2, 61569, Note_off_c, 0, 68, 64
2, 61569, Note_off_c, 0, 61, 64
2, 61569, Note_on_c, 0, 73, 64
2, 61569, Note_on_c, 0, 57, 64
2, 61629, Note_off_c, 0, 73, 64
2, 61629, Note_on_c, 0, 71, 64
2, 61689, Note_off_c, 0, 71, 64
2, 61689, Note_off_c, 0, 57, 64
2, 61689, Note_on_c, 0, 69, 64
2, 61689, Note_on_c, 0, 61, 64
2, 61749, Note_off_c, 0, 69, 64
2, 61749, Note_on_c, 0, 67, 64
2, 61809, Note_off_c, 0, 67, 64
2, 61809, Note_off_c, 0, 61, 64
2, 61809, Note_on_c, 0, 57, 64
2, 61809, Note_on_c, 0, 66, 64
2, 61869, Note_off_c, 0, 66, 64
2, 61869, Note_on_c, 0, 64, 64
2, 61929, Note_off_c, 0, 64, 64
2, 61929, Note_off_c, 0, 57, 64
2, 61929, Note_on_c, 0, 66, 64
2, 61929, Note_on_c, 0, 50, 64
2, 61989, Note_off_c, 0, 50, 64
2, 61989, Note_off_c, 0, 66, 64
2, 61989, Note_on_c, 0, 69, 64
2, 61989, Note_on_c, 0, 54, 64
2, 62049, Note_off_c, 0, 54, 64
2, 62049, Note_off_c, 0, 69, 64
2, 62049, Note_on_c, 0, 71, 64
2, 62049, Note_on_c, 0, 55, 64
2, 62109, Note_off_c, 0, 55, 64
2, 62109, Note_off_c, 0, 71, 64
2, 62109, Note_on_c, 0, 73, 64
2, 62109, Note_on_c, 0, 57, 64
2, 62169, Note_off_c, 0, 57, 64
2, 62169, Note_off_c, 0, 73, 64
2, 62169, Note_on_c, 0, 74, 64
2, 62169, Note_on_c, 0, 59, 64
2, 62229, Note_off_c, 0, 59, 64
2, 62229, Note_off_c, 0, 74, 64
2, 62229, Note_on_c, 0, 76, 64
2, 62229, Note_on_c, 0, 61, 64
2, 62289, Note_off_c, 0, 61, 64
2, 62289, Note_off_c, 0, 76, 64
2, 62289, Note_on_c, 0, 78, 64
2, 62289, Note_on_c, 0, 62, 64
2, 62349, Note_off_c, 0, 78, 64
2, 62349, Note_on_c, 0, 76, 64
2, 62409, Note_off_c, 0, 76, 64
2, 62409, Note_on_c, 0, 74, 64
2, 62469, Note_off_c, 0, 74, 64
2, 62469, Note_on_c, 0, 73, 64
2, 62529, Note_off_c, 0, 73, 64
2, 62529, Note_on_c, 0, 71, 64
2, 62589, Note_off_c, 0, 71, 64
2, 62589, Note_on_c, 0, 69, 64
2, 62649, Note_off_c, 0, 69, 64
2, 62649, Note_on_c, 0, 68, 64
2, 62709, Note_off_c, 0, 68, 64
2, 62709, Note_on_c, 0, 71, 64
2, 62769, Note_off_c, 0, 71, 64
2, 62769, Note_off_c, 0, 62, 64
2, 62769, Note_on_c, 0, 76, 64
2, 62769, Note_on_c, 0, 61, 64
2, 62829, Note_off_c, 0, 76, 64
2, 62829, Note_on_c, 0, 74, 64
2, 62889, Note_off_c, 0, 74, 64
2, 62889, Note_off_c, 0, 61, 64
2, 62889, Note_on_c, 0, 76, 64
2, 62889, Note_on_c, 0, 59, 64
2, 62949, Note_on_c, 0, 67, 64
2, 63009, Note_off_c, 0, 67, 64
2, 63009, Note_off_c, 0, 59, 64
2, 63009, Note_on_c, 0, 66, 64
2, 63009, Note_on_c, 0, 58, 64
2, 63069, Note_off_c, 0, 58, 64
2, 63069, Note_off_c, 0, 76, 64
2, 63069, Note_on_c, 0, 70, 64
2, 63069, Note_on_c, 0, 61, 64
2, 63129, Note_off_c, 0, 61, 64
2, 63129, Note_off_c, 0, 70, 64
2, 63129, Note_on_c, 0, 73, 64
2, 63129, Note_on_c, 0, 59, 64
2, 63189, Note_off_c, 0, 59, 64
2, 63189, Note_on_c, 0, 74, 64
2, 63189, Note_on_c, 0, 58, 64
2, 63249, Note_off_c, 0, 58, 64
2, 63249, Note_off_c, 0, 74, 64
2, 63249, Note_on_c, 0, 76, 64
2, 63249, Note_on_c, 0, 56, 64
2, 63309, Note_off_c, 0, 56, 64
2, 63309, Note_on_c, 0, 54, 64
2, 63369, Note_off_c, 0, 54, 64
2, 63369, Note_on_c, 0, 59, 64
2, 63419, Note_off_c, 0, 66, 64
2, 63432, Note_off_c, 0, 76, 64
2, 63432, Note_off_c, 0, 73, 64
2, 63432, Note_on_c, 0, 66, 64
2, 63492, Note_off_c, 0, 66, 64
2, 63492, Note_off_c, 0, 59, 64
2, 63492, Note_on_c, 0, 68, 64
2, 63492, Note_on_c, 0, 54, 64
2, 63552, Note_off_c, 0, 68, 64
2, 63552, Note_on_c, 0, 70, 64
2, 63612, Note_off_c, 0, 70, 64
2, 63612, Note_off_c, 0, 54, 64
2, 63612, Note_on_c, 0, 71, 64
2, 63612, Note_on_c, 0, 50, 64
2, 63672, Note_off_c, 0, 71, 64
2, 63672, Note_on_c, 0, 73, 64
2, 63732, Note_off_c, 0, 73, 64
2, 63732, Note_off_c, 0, 50, 64
2, 63732, Note_on_c, 0, 74, 64
2, 63732, Note_on_c, 0, 47, 64
2, 63792, Note_off_c, 0, 74, 64
2, 63792, Note_on_c, 0, 73, 64
2, 63852, Note_off_c, 0, 73, 64
2, 63852, Note_off_c, 0, 47, 64
2, 63852, Note_on_c, 0, 71, 64
2, 63852, Note_on_c, 0, 49, 64
2, 63912, Note_off_c, 0, 49, 64
2, 63912, Note_off_c, 0, 71, 64
2, 63912, Note_on_c, 0, 69, 64
2, 63912, Note_on_c, 0, 50, 64
2, 63972, Note_off_c, 0, 50, 64
2, 63972, Note_off_c, 0, 69, 64
2, 63972, Note_on_c, 0, 67, 64
2, 63972, Note_on_c, 0, 52, 64
2, 64032, Note_off_c, 0, 52, 64
2, 64032, Note_off_c, 0, 67, 64
2, 64032, Note_on_c, 0, 66, 64
2, 64032, Note_on_c, 0, 54, 64
2, 64092, Note_off_c, 0, 54, 64
2, 64092, Note_off_c, 0, 66, 64
2, 64092, Note_on_c, 0, 71, 64
2, 64092, Note_on_c, 0, 55, 64
2, 64152, Note_off_c, 0, 55, 64
2, 64152, Note_off_c, 0, 71, 64
2, 64152, Note_on_c, 0, 69, 64
2, 64152, Note_on_c, 0, 57, 64
2, 64212, Note_off_c, 0, 57, 64
2, 64212, Note_off_c, 0, 69, 64
2, 64212, Note_on_c, 0, 67, 64
2, 64212, Note_on_c, 0, 59, 64
2, 64272, Note_off_c, 0, 59, 64
2, 64272, Note_off_c, 0, 67, 64
2, 64272, Note_on_c, 0, 66, 64
2, 64272, Note_on_c, 0, 57, 64
2, 64332, Note_off_c, 0, 57, 64
2, 64332, Note_off_c, 0, 66, 64
2, 64332, Note_on_c, 0, 64, 64
2, 64332, Note_on_c, 0, 55, 64
2, 64392, Note_off_c, 0, 55, 64
2, 64392, Note_off_c, 0, 64, 64
2, 64392, Note_on_c, 0, 62, 64
2, 64392, Note_on_c, 0, 54, 64
2, 64452, Note_off_c, 0, 54, 64
2, 64452, Note_off_c, 0, 62, 64
2, 64452, Note_on_c, 0, 67, 64
2, 64452, Note_on_c, 0, 52, 64
2, 64512, Note_off_c, 0, 52, 64
2, 64512, Note_off_c, 0, 67, 64
2, 64512, Note_on_c, 0, 66, 64
2, 64512, Note_on_c, 0, 54, 64
2, 64572, Note_off_c, 0, 54, 64
2, 64572, Note_off_c, 0, 66, 64
2, 64572, Note_on_c, 0, 64, 64
2, 64572, Note_on_c, 0, 55, 64
2, 64632, Note_off_c, 0, 55, 64
2, 64632, Note_off_c, 0, 64, 64
2, 64632, Note_on_c, 0, 62, 64
2, 64632, Note_on_c, 0, 54, 64
2, 64692, Note_off_c, 0, 54, 64
2, 64692, Note_off_c, 0, 62, 64
2, 64692, Note_on_c, 0, 61, 64
2, 64692, Note_on_c, 0, 55, 64
2, 64752, Note_off_c, 0, 55, 64
2, 64752, Note_off_c, 0, 61, 64
2, 64752, Note_on_c, 0, 52, 64
2, 64752, Note_on_c, 0, 64, 64
2, 64812, Note_off_c, 0, 64, 64
2, 64812, Note_off_c, 0, 52, 64
2, 64812, Note_on_c, 0, 58, 64
2, 64812, Note_on_c, 0, 54, 64
2, 64932, Note_off_c, 0, 58, 64
2, 64932, Note_on_c, 0, 79, 64
2, 64992, Note_off_c, 0, 79, 64
2, 64992, Note_on_c, 0, 78, 64
2, 65052, Note_off_c, 0, 78, 64
2, 65052, Note_off_c, 0, 54, 64
2, 65052, Note_on_c, 0, 76, 64
2, 65052, Note_on_c, 0, 42, 64
2, 65112, Note_off_c, 0, 76, 64
2, 65112, Note_on_c, 0, 74, 64
2, 65172, Note_off_c, 0, 74, 64
2, 65172, Note_off_c, 0, 42, 64
2, 65172, Note_on_c, 0, 73, 64
2, 65172, Note_on_c, 0, 70, 64
2, 65172, Note_on_c, 0, 42, 64
2, 65292, Note_off_c, 0, 73, 64
2, 65292, Note_on_c, 0, 76, 64
2, 65412, Note_off_c, 0, 76, 64
2, 65412, Note_off_c, 0, 42, 64
2, 65412, Note_on_c, 0, 73, 64
2, 65412, Note_on_c, 0, 42, 64
2, 65532, Note_off_c, 0, 42, 64
2, 65532, Note_off_c, 0, 73, 64
2, 65532, Note_on_c, 0, 70, 64
2, 65532, Note_on_c, 0, 64, 64
2, 65532, Note_on_c, 0, 42, 64
2, 65533, Note_off_c, 0, 70, 64
2, 65652, Note_off_c, 0, 70, 64
2, 65652, Note_on_c, 0, 73, 64
2, 65772, Note_off_c, 0, 73, 64
2, 65772, Note_on_c, 0, 70, 64
2, 65892, Note_off_c, 0, 70, 64
2, 65892, Note_off_c, 0, 42, 64
2, 65892, Note_off_c, 0, 64, 64
2, 65892, Note_on_c, 0, 61, 64
2, 65892, Note_on_c, 0, 64, 64
2, 66012, Note_off_c, 0, 64, 64
2, 66012, Note_on_c, 0, 70, 64
2, 66072, Note_on_c, 0, 49, 64
2, 66132, Note_off_c, 0, 49, 64
2, 66132, Note_off_c, 0, 70, 64
2, 66132, Note_on_c, 0, 64, 64
2, 66132, Note_on_c, 0, 50, 64
2, 66192, Note_off_c, 0, 50, 64
2, 66192, Note_on_c, 0, 52, 64
2, 66252, Note_off_c, 0, 52, 64
2, 66252, Note_off_c, 0, 64, 64
2, 66252, Note_on_c, 0, 62, 64
2, 66252, Note_on_c, 0, 54, 64
2, 66372, Note_off_c, 0, 62, 64
2, 66372, Note_off_c, 0, 61, 64
2, 66372, Note_on_c, 0, 59, 64
2, 66432, Note_off_c, 0, 59, 64
2, 66432, Note_on_c, 0, 61, 64
2, 66492, Note_off_c, 0, 61, 64
2, 66492, Note_off_c, 0, 54, 64
2, 66492, Note_on_c, 0, 62, 64
2, 66492, Note_on_c, 0, 42, 64
2, 66552, Note_off_c, 0, 62, 64
2, 66552, Note_on_c, 0, 64, 64
2, 66612, Note_off_c, 0, 64, 64
2, 66612, Note_off_c, 0, 42, 64
2, 66612, Note_on_c, 0, 71, 64
2, 66612, Note_on_c, 0, 66, 64
2, 66612, Note_on_c, 0, 42, 64
2, 66732, Note_off_c, 0, 66, 64
2, 66732, Note_on_c, 0, 62, 64
2, 66852, Note_off_c, 0, 62, 64
2, 66852, Note_off_c, 0, 42, 64
2, 66852, Note_on_c, 0, 66, 64
2, 66852, Note_on_c, 0, 42, 64
2, 66972, Note_off_c, 0, 42, 64
2, 66972, Note_off_c, 0, 66, 64
2, 66972, Note_off_c, 0, 71, 64
2, 66972, Note_on_c, 0, 74, 64
2, 66972, Note_on_c, 0, 71, 64
2, 66972, Note_on_c, 0, 42, 64
2, 67092, Note_off_c, 0, 71, 64
2, 67092, Note_on_c, 0, 66, 64
2, 67212, Note_off_c, 0, 66, 64
2, 67212, Note_on_c, 0, 71, 64
2, 67332, Note_off_c, 0, 71, 64
2, 67332, Note_off_c, 0, 42, 64
2, 67332, Note_off_c, 0, 74, 64
2, 67332, Note_on_c, 0, 77, 64
2, 67332, Note_on_c, 0, 74, 64
2, 67452, Note_off_c, 0, 74, 64
2, 67452, Note_on_c, 0, 71, 64
2, 67572, Note_off_c, 0, 71, 64
2, 67572, Note_on_c, 0, 74, 64
2, 67692, Note_off_c, 0, 74, 64
2, 67692, Note_off_c, 0, 77, 64
2, 67692, Note_on_c, 0, 73, 64
2, 67692, Note_on_c, 0, 78, 64
2, 67812, Note_off_c, 0, 73, 64
2, 67812, Note_on_c, 0, 70, 64
2, 67872, Note_on_c, 0, 50, 64
2, 67932, Note_off_c, 0, 50, 64
2, 67932, Note_off_c, 0, 70, 64
2, 67932, Note_off_c, 0, 78, 64
2, 67932, Note_on_c, 0, 73, 64
2, 67932, Note_on_c, 0, 76, 64
2, 67932, Note_on_c, 0, 52, 64
2, 67992, Note_off_c, 0, 52, 64
2, 67992, Note_on_c, 0, 54, 64
2, 68052, Note_off_c, 0, 54, 64
2, 68052, Note_off_c, 0, 76, 64
2, 68052, Note_off_c, 0, 73, 64
2, 68052, Note_on_c, 0, 71, 64
2, 68052, Note_on_c, 0, 74, 64
2, 68052, Note_on_c, 0, 55, 64
2, 68172, Note_off_c, 0, 55, 64
2, 68172, Note_on_c, 0, 54, 64
2, 68292, Note_off_c, 0, 54, 64
2, 68292, Note_off_c, 0, 74, 64
2, 68292, Note_on_c, 0, 79, 64
2, 68292, Note_on_c, 0, 52, 64
2, 68412, Note_off_c, 0, 52, 64
2, 68412, Note_off_c, 0, 79, 64
2, 68412, Note_off_c, 0, 71, 64
2, 68412, Note_on_c, 0, 71, 64
2, 68412, Note_on_c, 0, 74, 64
2, 68412, Note_on_c, 0, 54, 64
2, 68772, Note_off_c, 0, 54, 64
2, 68772, Note_off_c, 0, 74, 64
2, 68772, Note_off_c, 0, 71, 64
2, 68772, Note_on_c, 0, 74, 64
2, 68772, Note_on_c, 0, 70, 64
2, 68772, Note_on_c, 0, 42, 64
2, 68802, Note_off_c, 0, 74, 64
2, 68804, Note_on_c, 0, 73, 64
2, 68834, Note_off_c, 0, 73, 64
2, 68836, Note_on_c, 0, 74, 64
2, 68862, Note_on_c, 0, 73, 64
2, 68866, Note_off_c, 0, 74, 64
2, 68892, Note_off_c, 0, 73, 64
2, 68892, Note_on_c, 0, 71, 64
2, 69012, Note_off_c, 0, 71, 64
2, 69012, Note_on_c, 0, 73, 64
2, 69132, Note_off_c, 0, 73, 64
2, 69132, Note_off_c, 0, 42, 64
2, 69132, Note_off_c, 0, 70, 64
2, 69132, Note_on_c, 0, 71, 64
2, 69132, Note_on_c, 0, 47, 64
2, 69252, Note_off_c, 0, 71, 64
2, 69252, Note_on_c, 0, 74, 64
2, 69312, Note_off_c, 0, 74, 64
2, 69312, Note_on_c, 0, 73, 64
2, 69372, Note_off_c, 0, 73, 64
2, 69372, Note_off_c, 0, 47, 64
2, 69372, Note_on_c, 0, 71, 64
2, 69372, Note_on_c, 0, 54, 64
2, 69432, Note_off_c, 0, 71, 64
2, 69432, Note_on_c, 0, 69, 64
2, 69492, Note_off_c, 0, 69, 64
2, 69492, Note_off_c, 0, 54, 64
2, 69492, Note_on_c, 0, 59, 64
2, 69492, Note_on_c, 0, 67, 64
2, 69522, Note_off_c, 0, 59, 64
2, 69524, Note_on_c, 0, 57, 64
2, 69552, Note_on_c, 0, 59, 64
2, 69554, Note_off_c, 0, 57, 64
2, 69612, Note_off_c, 0, 67, 64
2, 69612, Note_on_c, 0, 71, 64
2, 69672, Note_off_c, 0, 71, 64
2, 69672, Note_on_c, 0, 69, 64
2, 69732, Note_off_c, 0, 69, 64
2, 69732, Note_on_c, 0, 67, 64
2, 69792, Note_off_c, 0, 67, 64
2, 69792, Note_on_c, 0, 66, 64
2, 69852, Note_off_c, 0, 66, 64
2, 69852, Note_on_c, 0, 64, 64
2, 69972, Note_off_c, 0, 64, 64
2, 69972, Note_off_c, 0, 59, 64
2, 69972, Note_on_c, 0, 67, 64
2, 69972, Note_on_c, 0, 60, 64
2, 70032, Note_off_c, 0, 60, 64
2, 70032, Note_on_c, 0, 59, 64
2, 70092, Note_off_c, 0, 59, 64
2, 70092, Note_off_c, 0, 67, 64
2, 70092, Note_on_c, 0, 72, 64
2, 70092, Note_on_c, 0, 57, 64
2, 70152, Note_off_c, 0, 57, 64
2, 70152, Note_on_c, 0, 55, 64
2, 70212, Note_off_c, 0, 55, 64
2, 70212, Note_off_c, 0, 72, 64
2, 70212, Note_on_c, 0, 72, 64
2, 70212, Note_on_c, 0, 54, 64
2, 70332, Note_off_c, 0, 54, 64
2, 70332, Note_on_c, 0, 69, 64
2, 70332, Note_on_c, 0, 55, 64
2, 70392, Note_off_c, 0, 55, 64
2, 70392, Note_on_c, 0, 54, 64
2, 70452, Note_off_c, 0, 54, 64
2, 70452, Note_off_c, 0, 69, 64
2, 70452, Note_on_c, 0, 66, 64
2, 70452, Note_on_c, 0, 52, 64
2, 70512, Note_off_c, 0, 52, 64
2, 70512, Note_on_c, 0, 50, 64
2, 70572, Note_off_c, 0, 50, 64
2, 70572, Note_off_c, 0, 66, 64
2, 70572, Note_on_c, 0, 62, 64
2, 70572, Note_on_c, 0, 55, 64
2, 70632, Note_off_c, 0, 55, 64
2, 70632, Note_on_c, 0, 57, 64
2, 70692, Note_off_c, 0, 57, 64
2, 70692, Note_off_c, 0, 62, 64
2, 70692, Note_on_c, 0, 67, 64
2, 70692, Note_on_c, 0, 59, 64
2, 70752, Note_off_c, 0, 59, 64
2, 70752, Note_on_c, 0, 55, 64
2, 70812, Note_off_c, 0, 55, 64
2, 70812, Note_off_c, 0, 72, 64
2, 70812, Note_on_c, 0, 71, 64
2, 70812, Note_on_c, 0, 54, 64
2, 70872, Note_off_c, 0, 54, 64
2, 70872, Note_on_c, 0, 55, 64
2, 70932, Note_off_c, 0, 55, 64
2, 70932, Note_off_c, 0, 71, 64
2, 70932, Note_on_c, 0, 71, 64
2, 70932, Note_on_c, 0, 49, 64
2, 70992, Note_off_c, 0, 67, 64
2, 70992, Note_on_c, 0, 69, 64
2, 71052, Note_off_c, 0, 69, 53
2, 71052, Note_off_c, 0, 49, 64
2, 71052, Note_on_c, 0, 67, 64
2, 71052, Note_on_c, 0, 52, 64
2, 71112, Note_off_c, 0, 67, 29
2, 71112, Note_on_c, 0, 66, 64
2, 71172, Note_off_c, 0, 66, 47
2, 71172, Note_off_c, 0, 52, 64
2, 71172, Note_on_c, 0, 64, 64
2, 71172, Note_on_c, 0, 49, 64
2, 71232, Note_off_c, 0, 64, 36
2, 71232, Note_on_c, 0, 62, 64
2, 71292, Note_off_c, 0, 62, 24
2, 71292, Note_off_c, 0, 49, 64
2, 71292, Note_on_c, 0, 61, 64
2, 71292, Note_on_c, 0, 54, 64
2, 71352, Note_off_c, 0, 54, 64
2, 71352, Note_on_c, 0, 55, 64
2, 71412, Note_off_c, 0, 55, 64
2, 71412, Note_off_c, 0, 61, 64
2, 71412, Note_on_c, 0, 66, 64
2, 71412, Note_on_c, 0, 57, 64
2, 71472, Note_off_c, 0, 57, 64
2, 71472, Note_on_c, 0, 54, 64
2, 71532, Note_off_c, 0, 54, 64
2, 71532, Note_off_c, 0, 71, 64
2, 71532, Note_on_c, 0, 69, 64
2, 71532, Note_on_c, 0, 52, 64
2, 71592, Note_off_c, 0, 52, 64
2, 71592, Note_on_c, 0, 54, 64
2, 71652, Note_off_c, 0, 54, 64
2, 71652, Note_off_c, 0, 69, 64
2, 71652, Note_on_c, 0, 69, 64
2, 71652, Note_on_c, 0, 47, 64
2, 71712, Note_off_c, 0, 66, 64
2, 71712, Note_on_c, 0, 67, 64
2, 71772, Note_off_c, 0, 67, 49
2, 71772, Note_off_c, 0, 47, 64
2, 71772, Note_on_c, 0, 66, 64
2, 71772, Note_on_c, 0, 50, 64
2, 71832, Note_off_c, 0, 66, 58
2, 71832, Note_on_c, 0, 64, 64
2, 71892, Note_off_c, 0, 64, 16
2, 71892, Note_off_c, 0, 50, 64
2, 71892, Note_on_c, 0, 62, 64
2, 71892, Note_on_c, 0, 47, 64
2, 71952, Note_off_c, 0, 62, 43
2, 71952, Note_on_c, 0, 61, 64
2, 72012, Note_off_c, 0, 61, 45
2, 72012, Note_off_c, 0, 47, 64
2, 72012, Note_on_c, 0, 59, 64
2, 72012, Note_on_c, 0, 52, 64
2, 72072, Note_off_c, 0, 52, 64
2, 72072, Note_on_c, 0, 54, 64
2, 72132, Note_off_c, 0, 54, 64
2, 72132, Note_off_c, 0, 59, 27
2, 72132, Note_on_c, 0, 64, 64
2, 72132, Note_on_c, 0, 55, 64
2, 72192, Note_off_c, 0, 55, 64
2, 72192, Note_on_c, 0, 52, 64
2, 72252, Note_off_c, 0, 52, 64
2, 72252, Note_off_c, 0, 69, 64
2, 72252, Note_on_c, 0, 67, 64
2, 72252, Note_on_c, 0, 50, 64
2, 72312, Note_off_c, 0, 50, 64
2, 72312, Note_on_c, 0, 52, 64
2, 72372, Note_off_c, 0, 52, 64
2, 72372, Note_off_c, 0, 67, 64
2, 72372, Note_on_c, 0, 67, 64
2, 72372, Note_on_c, 0, 45, 64
2, 72432, Note_off_c, 0, 64, 19
2, 72432, Note_on_c, 0, 66, 64
2, 72492, Note_off_c, 0, 66, 66
2, 72492, Note_off_c, 0, 45, 64
2, 72492, Note_on_c, 0, 64, 64
2, 72492, Note_on_c, 0, 49, 64
2, 72552, Note_off_c, 0, 64, 43
2, 72552, Note_on_c, 0, 62, 64
2, 72612, Note_off_c, 0, 62, 49
2, 72612, Note_off_c, 0, 49, 64
2, 72612, Note_on_c, 0, 61, 64
2, 72612, Note_on_c, 0, 45, 64
2, 72672, Note_off_c, 0, 61, 48
2, 72672, Note_on_c, 0, 59, 64
2, 72732, Note_off_c, 0, 59, 43
2, 72732, Note_off_c, 0, 45, 64
2, 72732, Note_on_c, 0, 57, 64
2, 72732, Note_on_c, 0, 50, 64
2, 72792, Note_off_c, 0, 50, 64
2, 72792, Note_on_c, 0, 52, 64
2, 72852, Note_off_c, 0, 52, 64
2, 72852, Note_off_c, 0, 57, 52
2, 72852, Note_on_c, 0, 62, 64
2, 72852, Note_on_c, 0, 54, 64
2, 72912, Note_off_c, 0, 54, 64
2, 72912, Note_on_c, 0, 50, 64
2, 72972, Note_off_c, 0, 50, 64
2, 72972, Note_off_c, 0, 67, 64
2, 72972, Note_on_c, 0, 66, 64
2, 72972, Note_on_c, 0, 49, 64
2, 73032, Note_off_c, 0, 49, 64
2, 73032, Note_on_c, 0, 50, 64
2, 73092, Note_off_c, 0, 50, 64
2, 73092, Note_on_c, 0, 47, 64
2, 73152, Note_off_c, 0, 47, 64
2, 73152, Note_on_c, 0, 48, 64
2, 73212, Note_off_c, 0, 48, 64
2, 73212, Note_off_c, 0, 66, 64
2, 73212, Note_on_c, 0, 66, 64
2, 73212, Note_on_c, 0, 50, 64
2, 73272, Note_off_c, 0, 50, 64
2, 73272, Note_on_c, 0, 47, 64
2, 73332, Note_off_c, 0, 47, 64
2, 73332, Note_off_c, 0, 66, 64
2, 73332, Note_on_c, 0, 72, 64
2, 73332, Note_on_c, 0, 45, 64
2, 73392, Note_off_c, 0, 45, 64
2, 73392, Note_on_c, 0, 47, 64
2, 73452, Note_off_c, 0, 47, 64
2, 73452, Note_off_c, 0, 72, 64
2, 73452, Note_on_c, 0, 71, 64
2, 73452, Note_on_c, 0, 43, 64
2, 73512, Note_off_c, 0, 43, 64
2, 73512, Note_on_c, 0, 45, 64
2, 73572, Note_off_c, 0, 45, 64
2, 73572, Note_off_c, 0, 62, 30
2, 73572, Note_on_c, 0, 67, 64
2, 73572, Note_on_c, 0, 47, 64
2, 73632, Note_off_c, 0, 47, 64
2, 73632, Note_off_c, 0, 67, 35
2, 73632, Note_on_c, 0, 66, 64
2, 73632, Note_on_c, 0, 45, 64
2, 73692, Note_off_c, 0, 45, 64
2, 73692, Note_off_c, 0, 66, 53
2, 73692, Note_on_c, 0, 64, 64
2, 73692, Note_on_c, 0, 43, 64
2, 73752, Note_off_c, 0, 43, 64
2, 73752, Note_off_c, 0, 64, 30
2, 73752, Note_on_c, 0, 62, 64
2, 73752, Note_on_c, 0, 42, 64
2, 73812, Note_off_c, 0, 42, 64
2, 73812, Note_off_c, 0, 62, 33
2, 73812, Note_on_c, 0, 67, 64
2, 73812, Note_on_c, 0, 40, 64
2, 73872, Note_off_c, 0, 40, 64
2, 73872, Note_on_c, 0, 42, 64
2, 73932, Note_off_c, 0, 42, 64
2, 73932, Note_off_c, 0, 67, 30
2, 73932, Note_off_c, 0, 71, 64
2, 73932, Note_on_c, 0, 64, 64
2, 73932, Note_on_c, 0, 73, 64
2, 73932, Note_on_c, 0, 43, 64
2, 73992, Note_off_c, 0, 43, 64
2, 73992, Note_on_c, 0, 42, 64
2, 74052, Note_off_c, 0, 42, 64
2, 74052, Note_off_c, 0, 73, 64
2, 74052, Note_off_c, 0, 64, 27
2, 74052, Note_on_c, 0, 66, 64
2, 74052, Note_on_c, 0, 74, 64
2, 74052, Note_on_c, 0, 40, 64
2, 74112, Note_off_c, 0, 40, 64
2, 74112, Note_on_c, 0, 38, 64
2, 74172, Note_off_c, 0, 38, 64
2, 74172, Note_on_c, 0, 45, 64
2, 74292, Note_off_c, 0, 74, 64
2, 74292, Note_off_c, 0, 66, 57
2, 74292, Note_on_c, 0, 62, 64
2, 74292, Note_on_c, 0, 71, 64
2, 74412, Note_off_c, 0, 71, 64
2, 74412, Note_off_c, 0, 62, 27
2, 74412, Note_on_c, 0, 64, 64
2, 74412, Note_on_c, 0, 73, 64
2, 74532, Note_off_c, 0, 73, 64
2, 74532, Note_off_c, 0, 64, 31
2, 74532, Note_on_c, 0, 67, 64
2, 74532, Note_on_c, 0, 76, 64
2, 74592, Note_off_c, 0, 45, 64
2, 74592, Note_on_c, 0, 44, 64
2, 74652, Note_off_c, 0, 44, 64
2, 74652, Note_on_c, 0, 46, 64
2, 74712, Note_off_c, 0, 46, 64
2, 74712, Note_on_c, 0, 47, 64
2, 74772, Note_off_c, 0, 47, 64
2, 74772, Note_on_c, 0, 49, 64
2, 74832, Note_off_c, 0, 49, 64
2, 74832, Note_on_c, 0, 46, 64
2, 74892, Note_off_c, 0, 46, 64
2, 74892, Note_on_c, 0, 47, 64
2, 75012, Note_off_c, 0, 76, 64
2, 75012, Note_off_c, 0, 67, 43
2, 75012, Note_on_c, 0, 64, 64
2, 75012, Note_on_c, 0, 73, 64
2, 75132, Note_off_c, 0, 73, 64
2, 75132, Note_off_c, 0, 64, 26
2, 75132, Note_on_c, 0, 66, 64
2, 75132, Note_on_c, 0, 74, 64
2, 75252, Note_off_c, 0, 74, 64
2, 75252, Note_off_c, 0, 66, 41
2, 75252, Note_on_c, 0, 71, 64
2, 75252, Note_on_c, 0, 79, 64
2, 75312, Note_off_c, 0, 47, 64
2, 75312, Note_on_c, 0, 45, 64
2, 75372, Note_off_c, 0, 45, 64
2, 75372, Note_on_c, 0, 47, 64
2, 75432, Note_off_c, 0, 47, 64
2, 75432, Note_on_c, 0, 50, 64
2, 75492, Note_off_c, 0, 50, 64
2, 75492, Note_on_c, 0, 49, 64
2, 75552, Note_off_c, 0, 49, 64
2, 75552, Note_on_c, 0, 52, 64
2, 75612, Note_off_c, 0, 52, 64
2, 75612, Note_on_c, 0, 50, 64
2, 75732, Note_off_c, 0, 79, 64
2, 75732, Note_off_c, 0, 71, 48
2, 75732, Note_on_c, 0, 69, 64
2, 75732, Note_on_c, 0, 78, 64
2, 75852, Note_off_c, 0, 78, 64
2, 75852, Note_off_c, 0, 69, 41
2, 75852, Note_on_c, 0, 67, 64
2, 75852, Note_on_c, 0, 76, 64
2, 75972, Note_off_c, 0, 76, 64
2, 75972, Note_off_c, 0, 67, 45
2, 75972, Note_on_c, 0, 69, 64
2, 75972, Note_on_c, 0, 78, 64
2, 76032, Note_off_c, 0, 50, 64
2, 76032, Note_on_c, 0, 52, 64
2, 76092, Note_off_c, 0, 52, 64
2, 76092, Note_on_c, 0, 50, 64
2, 76152, Note_off_c, 0, 50, 64
2, 76152, Note_on_c, 0, 48, 64
2, 76212, Note_off_c, 0, 48, 64
2, 76212, Note_on_c, 0, 47, 64
2, 76272, Note_off_c, 0, 47, 64
2, 76272, Note_on_c, 0, 45, 64
2, 76332, Note_off_c, 0, 45, 64
2, 76332, Note_on_c, 0, 43, 64
2, 76392, Note_off_c, 0, 43, 64
2, 76392, Note_on_c, 0, 50, 64
2, 76452, Note_off_c, 0, 50, 64
2, 76452, Note_off_c, 0, 78, 64
2, 76452, Note_off_c, 0, 69, 58
2, 76452, Note_on_c, 0, 67, 64
2, 76452, Note_on_c, 0, 76, 64
2, 76452, Note_on_c, 0, 52, 64
2, 76512, Note_off_c, 0, 52, 64
2, 76512, Note_on_c, 0, 54, 64
2, 76572, Note_off_c, 0, 54, 64
2, 76572, Note_off_c, 0, 76, 64
2, 76572, Note_off_c, 0, 67, 43
2, 76572, Note_on_c, 0, 66, 64
2, 76572, Note_on_c, 0, 74, 64
2, 76572, Note_on_c, 0, 55, 64
2, 76632, Note_off_c, 0, 55, 64
2, 76632, Note_on_c, 0, 57, 64
2, 76692, Note_off_c, 0, 57, 64
2, 76692, Note_off_c, 0, 74, 64
2, 76692, Note_off_c, 0, 66, 51
2, 76692, Note_on_c, 0, 67, 64
2, 76692, Note_on_c, 0, 76, 64
2, 76692, Note_on_c, 0, 58, 64
2, 76812, Note_off_c, 0, 76, 64
2, 76812, Note_off_c, 0, 67, 35
2, 76812, Note_on_c, 0, 64, 64
2, 76812, Note_on_c, 0, 73, 64
2, 76932, Note_off_c, 0, 73, 64
2, 76932, Note_off_c, 0, 64, 35
2, 76932, Note_on_c, 0, 74, 64
2, 76932, Note_on_c, 0, 66, 64
2, 77042, Note_off_c, 0, 74, 64
2, 77055, Note_off_c, 0, 66, 52
2, 77055, Note_on_c, 0, 74, 72
2, 77055, Note_on_c, 0, 64, 64
2, 77085, Note_off_c, 0, 74, 49
2, 77085, Note_on_c, 0, 73, 65
2, 77115, Note_off_c, 0, 73, 52
2, 77115, Note_off_c, 0, 58, 64
2, 77115, Note_on_c, 0, 74, 52
2, 77115, Note_on_c, 0, 57, 64
2, 77145, Note_off_c, 0, 74, 45
2, 77145, Note_on_c, 0, 73, 55
2, 77175, Note_off_c, 0, 73, 46
2, 77175, Note_off_c, 0, 57, 64
2, 77175, Note_on_c, 0, 74, 58
2, 77175, Note_on_c, 0, 58, 64
2, 77205, Note_off_c, 0, 74, 37
2, 77205, Note_on_c, 0, 73, 60
2, 77235, Note_off_c, 0, 73, 47
2, 77235, Note_off_c, 0, 58, 64
2, 77235, Note_on_c, 0, 74, 63
2, 77235, Note_on_c, 0, 55, 64
2, 77265, Note_off_c, 0, 74, 43
2, 77265, Note_on_c, 0, 73, 64
2, 77295, Note_off_c, 0, 55, 64
2, 77295, Note_on_c, 0, 52, 64
2, 77355, Note_off_c, 0, 52, 64
2, 77355, Note_on_c, 0, 55, 64
2, 77415, Note_off_c, 0, 55, 64
2, 77415, Note_off_c, 0, 64, 57
2, 77415, Note_on_c, 0, 65, 64
2, 77415, Note_on_c, 0, 57, 64
2, 77475, Note_off_c, 0, 57, 64
2, 77475, Note_off_c, 0, 65, 21
2, 77475, Note_off_c, 0, 73, 64
2, 77475, Note_on_c, 0, 64, 64
2, 77475, Note_on_c, 0, 55, 64
2, 77535, Note_off_c, 0, 55, 64
2, 77535, Note_off_c, 0, 64, 30
2, 77535, Note_on_c, 0, 65, 64
2, 77535, Note_on_c, 0, 57, 64
2, 77595, Note_off_c, 0, 57, 64
2, 77595, Note_off_c, 0, 65, 33
2, 77595, Note_on_c, 0, 62, 64
2, 77595, Note_on_c, 0, 53, 64
2, 77655, Note_off_c, 0, 53, 64
2, 77655, Note_off_c, 0, 62, 40
2, 77655, Note_on_c, 0, 69, 64
2, 77655, Note_on_c, 0, 50, 64
2, 77715, Note_off_c, 0, 50, 64
2, 77715, Note_off_c, 0, 69, 1
2, 77715, Note_on_c, 0, 65, 64
2, 77715, Note_on_c, 0, 53, 64
2, 77775, Note_off_c, 0, 53, 64
2, 77775, Note_on_c, 0, 70, 64
2, 77775, Note_on_c, 0, 55, 64
2, 77835, Note_off_c, 0, 55, 64
2, 77835, Note_on_c, 0, 53, 64
2, 77895, Note_off_c, 0, 53, 64
2, 77895, Note_off_c, 0, 65, 27
2, 77895, Note_on_c, 0, 64, 64
2, 77895, Note_on_c, 0, 55, 64
2, 77955, Note_off_c, 0, 55, 64
2, 77955, Note_on_c, 0, 52, 64
2, 78015, Note_off_c, 0, 52, 64
2, 78015, Note_off_c, 0, 64, 30
2, 78015, Note_on_c, 0, 67, 64
2, 78015, Note_on_c, 0, 49, 64
2, 78075, Note_off_c, 0, 49, 64
2, 78075, Note_on_c, 0, 52, 64
2, 78135, Note_off_c, 0, 52, 64
2, 78135, Note_off_c, 0, 70, 64
2, 78135, Note_on_c, 0, 69, 64
2, 78135, Note_on_c, 0, 53, 64
2, 78195, Note_off_c, 0, 53, 64
2, 78195, Note_on_c, 0, 52, 64
2, 78255, Note_off_c, 0, 52, 64
2, 78255, Note_off_c, 0, 67, 43
2, 78255, Note_on_c, 0, 61, 64
2, 78255, Note_on_c, 0, 53, 64
2, 78315, Note_off_c, 0, 53, 64
2, 78315, Note_on_c, 0, 50, 64
2, 78375, Note_off_c, 0, 50, 64
2, 78375, Note_off_c, 0, 61, 48
2, 78375, Note_on_c, 0, 62, 64
2, 78375, Note_on_c, 0, 47, 64
2, 78435, Note_off_c, 0, 47, 64
2, 78435, Note_on_c, 0, 50, 64
2, 78495, Note_off_c, 0, 50, 64
2, 78495, Note_off_c, 0, 69, 64
2, 78495, Note_on_c, 0, 67, 64
2, 78495, Note_on_c, 0, 52, 64
2, 78555, Note_off_c, 0, 52, 64
2, 78555, Note_on_c, 0, 50, 64
2, 78615, Note_off_c, 0, 50, 64
2, 78615, Note_off_c, 0, 62, 58
2, 78615, Note_on_c, 0, 61, 64
2, 78615, Note_on_c, 0, 52, 64
2, 78675, Note_off_c, 0, 52, 64
2, 78675, Note_on_c, 0, 49, 64
2, 78735, Note_off_c, 0, 49, 64
2, 78735, Note_off_c, 0, 61, 69
2, 78735, Note_on_c, 0, 64, 64
2, 78735, Note_on_c, 0, 45, 64
2, 78795, Note_off_c, 0, 45, 64
2, 78795, Note_on_c, 0, 49, 64
2, 78855, Note_off_c, 0, 49, 64
2, 78855, Note_off_c, 0, 67, 64
2, 78855, Note_on_c, 0, 65, 64
2, 78855, Note_on_c, 0, 50, 64
2, 78915, Note_off_c, 0, 50, 64
2, 78915, Note_on_c, 0, 49, 64
2, 78975, Note_off_c, 0, 49, 64
2, 78975, Note_off_c, 0, 64, 17
2, 78975, Note_on_c, 0, 57, 64
2, 78975, Note_on_c, 0, 50, 64
2, 79035, Note_off_c, 0, 50, 64
2, 79035, Note_on_c, 0, 53, 64
2, 79095, Note_off_c, 0, 53, 64
2, 79095, Note_off_c, 0, 57, 31
2, 79095, Note_on_c, 0, 62, 64
2, 79095, Note_on_c, 0, 46, 64
2, 79155, Note_off_c, 0, 46, 64
2, 79155, Note_on_c, 0, 50, 64
2, 79215, Note_off_c, 0, 50, 64
2, 79215, Note_on_c, 0, 59, 64
2, 79215, Note_on_c, 0, 44, 64
2, 79275, Note_off_c, 0, 65, 64
2, 79275, Note_off_c, 0, 62, 44
2, 79275, Note_off_c, 0, 59, 64
2, 79275, Note_on_c, 0, 64, 64
2, 79335, Note_off_c, 0, 64, 64
2, 79335, Note_on_c, 0, 62, 64
2, 79395, Note_off_c, 0, 62, 64
2, 79395, Note_on_c, 0, 61, 64
2, 79455, Note_off_c, 0, 61, 64
2, 79455, Note_on_c, 0, 62, 64
2, 79515, Note_off_c, 0, 62, 64
2, 79515, Note_on_c, 0, 65, 64
2, 79575, Note_off_c, 0, 65, 64
2, 79575, Note_on_c, 0, 71, 64
2, 79635, Note_off_c, 0, 71, 64
2, 79635, Note_on_c, 0, 65, 64
2, 79695, Note_off_c, 0, 65, 64
2, 79695, Note_on_c, 0, 64, 64
2, 79755, Note_off_c, 0, 64, 64
2, 79755, Note_on_c, 0, 62, 64
2, 79815, Note_off_c, 0, 62, 64
2, 79815, Note_on_c, 0, 61, 64
2, 79875, Note_off_c, 0, 61, 64
2, 79875, Note_on_c, 0, 59, 64
2, 79935, Note_off_c, 0, 59, 64
2, 79935, Note_off_c, 0, 44, 64
2, 79935, Note_on_c, 0, 61, 64
2, 79935, Note_on_c, 0, 45, 64
2, 79995, Note_on_c, 0, 57, 64
2, 80055, Note_off_c, 0, 57, 64
2, 80055, Note_off_c, 0, 61, 64
2, 80055, Note_on_c, 0, 55, 64
2, 80115, Note_off_c, 0, 55, 64
2, 80115, Note_on_c, 0, 54, 64
2, 80175, Note_off_c, 0, 54, 64
2, 80175, Note_on_c, 0, 52, 64
2, 80235, Note_off_c, 0, 52, 64
2, 80235, Note_on_c, 0, 50, 64
2, 80295, Note_off_c, 0, 50, 64
2, 80295, Note_off_c, 0, 45, 64
2, 80295, Note_on_c, 0, 49, 64
2, 80355, Note_on_c, 0, 47, 64
2, 80415, Note_off_c, 0, 47, 64
2, 80415, Note_off_c, 0, 49, 64
2, 80415, Note_on_c, 0, 45, 64
2, 80475, Note_off_c, 0, 45, 64
2, 80475, Note_on_c, 0, 43, 64
2, 80535, Note_off_c, 0, 43, 64
2, 80535, Note_on_c, 0, 42, 64
2, 80595, Note_off_c, 0, 42, 64
2, 80595, Note_on_c, 0, 40, 64
2, 80655, Note_off_c, 0, 40, 64
2, 80655, Note_on_c, 0, 38, 64
2, 80775, Note_on_c, 0, 50, 64
2, 80835, Note_off_c, 0, 50, 64
2, 80835, Note_on_c, 0, 52, 64
2, 80895, Note_off_c, 0, 52, 64
2, 80895, Note_off_c, 0, 38, 64
2, 80895, Note_on_c, 0, 54, 64
2, 80955, Note_off_c, 0, 54, 64
2, 80955, Note_on_c, 0, 55, 64
2, 81015, Note_off_c, 0, 55, 64
2, 81015, Note_on_c, 0, 57, 64
2, 81135, Note_off_c, 0, 57, 64
2, 81135, Note_on_c, 0, 54, 64
2, 81255, Note_off_c, 0, 54, 64
2, 81255, Note_on_c, 0, 57, 64
2, 81375, Note_off_c, 0, 57, 64
2, 81375, Note_on_c, 0, 62, 64
2, 81495, Note_off_c, 0, 62, 64
2, 81495, Note_on_c, 0, 57, 64
2, 81615, Note_off_c, 0, 57, 64
2, 81615, Note_on_c, 0, 62, 64
2, 81735, Note_off_c, 0, 62, 64
2, 81735, Note_on_c, 0, 66, 64
2, 81855, Note_off_c, 0, 66, 64
2, 81855, Note_on_c, 0, 62, 64
2, 81975, Note_off_c, 0, 62, 64
2, 81975, Note_on_c, 0, 66, 64
2, 82095, Note_off_c, 0, 66, 64
2, 82095, Note_on_c, 0, 69, 64
2, 82455, Note_off_c, 0, 69, 64
2, 82455, Note_on_c, 0, 69, 64
2, 82455, Note_on_c, 0, 78, 64
2, 82455, Note_on_c, 0, 50, 64
2, 82815, Note_off_c, 0, 50, 64
2, 82815, Note_off_c, 0, 78, 64
2, 82815, Note_off_c, 0, 69, 64
2, 82815, Note_on_c, 0, 69, 64
2, 82815, Note_on_c, 0, 78, 64
2, 82815, Note_on_c, 0, 57, 64
2, 82995, Note_off_c, 0, 78, 64
2, 82995, Note_off_c, 0, 69, 64
2, 82995, Note_on_c, 0, 67, 64
2, 82995, Note_on_c, 0, 76, 64
2, 83175, Note_off_c, 0, 76, 64
2, 83175, Note_off_c, 0, 67, 64
2, 83175, Note_off_c, 0, 57, 64
2, 83175, Note_on_c, 0, 45, 64
2, 83175, Note_on_c, 0, 67, 64
2, 83175, Note_on_c, 0, 76, 64
2, 83355, Note_off_c, 0, 76, 64
2, 83355, Note_off_c, 0, 67, 64
2, 83355, Note_on_c, 0, 74, 64
2, 83355, Note_on_c, 0, 66, 64
2, 83535, Note_off_c, 0, 66, 64
2, 83535, Note_off_c, 0, 74, 64
2, 83535, Note_off_c, 0, 45, 64
2, 83535, Note_on_c, 0, 66, 64
2, 83535, Note_on_c, 0, 74, 64
2, 83535, Note_on_c, 0, 50, 64
2, 83655, Note_off_c, 0, 74, 64
2, 83655, Note_off_c, 0, 66, 64
2, 83655, Note_on_c, 0, 62, 64
2, 83715, Note_off_c, 0, 62, 64
2, 83715, Note_on_c, 0, 64, 64
2, 83775, Note_off_c, 0, 64, 64
2, 83775, Note_on_c, 0, 66, 64
2, 83835, Note_off_c, 0, 66, 64
2, 83835, Note_on_c, 0, 67, 64
2, 83895, Note_off_c, 0, 67, 64
2, 83895, Note_off_c, 0, 50, 64
2, 83895, Note_on_c, 0, 69, 64
2, 84015, Note_off_c, 0, 69, 64
2, 84015, Note_on_c, 0, 66, 64
2, 84015, Note_on_c, 0, 60, 64
2, 84075, Note_off_c, 0, 60, 64
2, 84075, Note_on_c, 0, 59, 64
2, 84135, Note_off_c, 0, 59, 64
2, 84135, Note_off_c, 0, 66, 64
2, 84135, Note_on_c, 0, 69, 64
2, 84135, Note_on_c, 0, 57, 64
2, 84195, Note_off_c, 0, 57, 64
2, 84195, Note_on_c, 0, 55, 64
2, 84255, Note_off_c, 0, 55, 64
2, 84255, Note_off_c, 0, 69, 64
2, 84255, Note_on_c, 0, 72, 64
2, 84255, Note_on_c, 0, 54, 64
2, 84375, Note_off_c, 0, 54, 64
2, 84375, Note_off_c, 0, 72, 64
2, 84375, Note_on_c, 0, 69, 64
2, 84375, Note_on_c, 0, 57, 64
2, 84495, Note_off_c, 0, 57, 64
2, 84495, Note_off_c, 0, 69, 64
2, 84495, Note_on_c, 0, 72, 64
2, 84495, Note_on_c, 0, 54, 64
2, 84615, Note_off_c, 0, 54, 64
2, 84615, Note_off_c, 0, 72, 64
2, 84615, Note_on_c, 0, 78, 64
2, 84615, Note_on_c, 0, 50, 64
2, 84735, Note_off_c, 0, 50, 64
2, 84735, Note_off_c, 0, 78, 64
2, 84735, Note_on_c, 0, 72, 64
2, 84735, Note_on_c, 0, 54, 64
2, 84855, Note_off_c, 0, 54, 64
2, 84855, Note_off_c, 0, 72, 64
2, 84855, Note_on_c, 0, 50, 64
2, 84855, Note_on_c, 0, 78, 64
2, 84975, Note_off_c, 0, 78, 64
2, 84975, Note_off_c, 0, 50, 64
2, 84975, Note_on_c, 0, 81, 64
2, 84975, Note_on_c, 0, 45, 64
2, 85095, Note_off_c, 0, 45, 64
2, 85095, Note_on_c, 0, 50, 64
2, 85215, Note_off_c, 0, 50, 64
2, 85215, Note_on_c, 0, 45, 64
2, 85335, Note_off_c, 0, 45, 64
2, 85335, Note_off_c, 0, 81, 64
2, 85335, Note_on_c, 0, 69, 64
2, 85335, Note_on_c, 0, 72, 64
2, 85335, Note_on_c, 0, 42, 64
2, 85455, Note_off_c, 0, 42, 64
2, 85455, Note_on_c, 0, 45, 64
2, 85575, Note_off_c, 0, 45, 64
2, 85575, Note_on_c, 0, 42, 64
2, 85695, Note_off_c, 0, 42, 64
2, 85695, Note_off_c, 0, 72, 64
2, 85695, Note_off_c, 0, 69, 64
2, 85695, Note_on_c, 0, 69, 64
2, 85695, Note_on_c, 0, 72, 64
2, 85695, Note_on_c, 0, 38, 64
2, 85875, Note_off_c, 0, 72, 64
2, 85875, Note_off_c, 0, 69, 64
2, 85875, Note_on_c, 0, 67, 64
2, 85875, Note_on_c, 0, 71, 64
2, 86055, Note_off_c, 0, 71, 64
2, 86055, Note_off_c, 0, 67, 64
2, 86055, Note_off_c, 0, 38, 64
2, 86055, Note_on_c, 0, 50, 64
2, 86055, Note_on_c, 0, 67, 64
2, 86055, Note_on_c, 0, 71, 64
2, 86235, Note_off_c, 0, 71, 64
2, 86235, Note_off_c, 0, 67, 64
2, 86235, Note_on_c, 0, 69, 64
2, 86235, Note_on_c, 0, 66, 64
2, 86415, Note_off_c, 0, 66, 64
2, 86415, Note_off_c, 0, 69, 64
2, 86415, Note_off_c, 0, 50, 64
2, 86415, Note_on_c, 0, 67, 64
2, 86415, Note_on_c, 0, 71, 64
2, 86415, Note_on_c, 0, 43, 64
2, 86535, Note_off_c, 0, 71, 64
2, 86535, Note_off_c, 0, 67, 64
2, 86535, Note_on_c, 0, 83, 64
2, 86595, Note_off_c, 0, 83, 64
2, 86595, Note_on_c, 0, 81, 64
2, 86655, Note_off_c, 0, 81, 64
2, 86655, Note_off_c, 0, 43, 64
2, 86655, Note_on_c, 0, 79, 64
2, 86655, Note_on_c, 0, 50, 64
2, 86715, Note_off_c, 0, 79, 64
2, 86715, Note_on_c, 0, 78, 64
2, 86775, Note_off_c, 0, 78, 64
2, 86775, Note_off_c, 0, 50, 64
2, 86775, Note_on_c, 0, 76, 64
2, 86775, Note_on_c, 0, 55, 64
2, 86895, Note_off_c, 0, 76, 64
2, 86895, Note_on_c, 0, 79, 64
2, 87015, Note_off_c, 0, 79, 64
2, 87015, Note_off_c, 0, 55, 64
2, 87015, Note_on_c, 0, 76, 64
2, 87015, Note_on_c, 0, 55, 64
2, 87135, Note_off_c, 0, 55, 64
2, 87135, Note_off_c, 0, 76, 64
2, 87135, Note_on_c, 0, 73, 64
2, 87135, Note_on_c, 0, 55, 64
2, 87255, Note_off_c, 0, 73, 64
2, 87255, Note_on_c, 0, 57, 64
2, 87315, Note_off_c, 0, 57, 64
2, 87315, Note_on_c, 0, 59, 64
2, 87375, Note_off_c, 0, 59, 64
2, 87375, Note_on_c, 0, 61, 64
2, 87435, Note_off_c, 0, 61, 64
2, 87435, Note_on_c, 0, 62, 64
2, 87495, Note_off_c, 0, 62, 64
2, 87495, Note_off_c, 0, 55, 64
2, 87495, Note_on_c, 0, 64, 64
2, 87615, Note_off_c, 0, 64, 64
2, 87615, Note_on_c, 0, 61, 64
2, 87615, Note_on_c, 0, 45, 64
2, 87675, Note_off_c, 0, 45, 64
2, 87675, Note_on_c, 0, 43, 64
2, 87735, Note_off_c, 0, 43, 64
2, 87735, Note_off_c, 0, 61, 64
2, 87735, Note_on_c, 0, 64, 64
2, 87735, Note_on_c, 0, 42, 64
2, 87795, Note_off_c, 0, 42, 64
2, 87795, Note_on_c, 0, 40, 64
2, 87855, Note_off_c, 0, 40, 64
2, 87855, Note_off_c, 0, 64, 64
2, 87855, Note_on_c, 0, 69, 64
2, 87855, Note_on_c, 0, 42, 64
2, 87975, Note_on_c, 0, 81, 64
2, 88035, Note_off_c, 0, 81, 45
2, 88035, Note_on_c, 0, 79, 64
2, 88095, Note_off_c, 0, 79, 59
2, 88095, Note_off_c, 0, 42, 64
2, 88095, Note_off_c, 0, 69, 64
2, 88095, Note_on_c, 0, 78, 64
2, 88095, Note_on_c, 0, 54, 64
2, 88155, Note_off_c, 0, 78, 54
2, 88155, Note_on_c, 0, 76, 64
2, 88215, Note_off_c, 0, 76, 47
2, 88215, Note_off_c, 0, 54, 64
2, 88215, Note_on_c, 0, 74, 64
2, 88215, Note_on_c, 0, 54, 64
2, 88335, Note_off_c, 0, 74, 64
2, 88335, Note_on_c, 0, 78, 64
2, 88455, Note_off_c, 0, 78, 64
2, 88455, Note_off_c, 0, 54, 64
2, 88455, Note_on_c, 0, 74, 64
2, 88455, Note_on_c, 0, 54, 64
2, 88575, Note_off_c, 0, 54, 64
2, 88575, Note_off_c, 0, 74, 64
2, 88575, Note_on_c, 0, 71, 64
2, 88575, Note_on_c, 0, 54, 64
2, 88695, Note_off_c, 0, 71, 64
2, 88695, Note_on_c, 0, 55, 64
2, 88755, Note_off_c, 0, 55, 64
2, 88755, Note_on_c, 0, 57, 64
2, 88815, Note_off_c, 0, 57, 64
2, 88815, Note_on_c, 0, 59, 64
2, 88875, Note_off_c, 0, 59, 64
2, 88875, Note_on_c, 0, 61, 64
2, 88935, Note_off_c, 0, 61, 64
2, 88935, Note_off_c, 0, 54, 64
2, 88935, Note_on_c, 0, 62, 64
2, 89055, Note_off_c, 0, 62, 64
2, 89055, Note_on_c, 0, 59, 64
2, 89055, Note_on_c, 0, 43, 64
2, 89115, Note_off_c, 0, 43, 64
2, 89115, Note_on_c, 0, 42, 64
2, 89175, Note_off_c, 0, 42, 64
2, 89175, Note_off_c, 0, 59, 64
2, 89175, Note_on_c, 0, 62, 64
2, 89175, Note_on_c, 0, 40, 64
2, 89235, Note_off_c, 0, 40, 64
2, 89235, Note_on_c, 0, 38, 64
2, 89295, Note_off_c, 0, 38, 64
2, 89295, Note_off_c, 0, 62, 64
2, 89295, Note_on_c, 0, 67, 64
2, 89295, Note_on_c, 0, 40, 64
2, 89415, Note_off_c, 0, 40, 64
2, 89415, Note_on_c, 0, 59, 64
2, 89475, Note_off_c, 0, 59, 64
2, 89475, Note_on_c, 0, 57, 64
2, 89535, Note_off_c, 0, 57, 64
2, 89535, Note_off_c, 0, 67, 64
2, 89535, Note_on_c, 0, 71, 64
2, 89535, Note_on_c, 0, 62, 64
2, 89535, Note_on_c, 0, 55, 64
2, 89595, Note_off_c, 0, 55, 64
2, 89595, Note_on_c, 0, 54, 64
2, 89655, Note_off_c, 0, 54, 64
2, 89655, Note_off_c, 0, 62, 64
2, 89655, Note_off_c, 0, 71, 64
2, 89655, Note_on_c, 0, 71, 64
2, 89655, Note_on_c, 0, 67, 64
2, 89655, Note_on_c, 0, 52, 64
2, 89775, Note_off_c, 0, 52, 64
2, 89775, Note_on_c, 0, 55, 64
2, 89895, Note_off_c, 0, 55, 64
2, 89895, Note_off_c, 0, 67, 64
2, 89895, Note_off_c, 0, 71, 64
2, 89895, Note_on_c, 0, 71, 64
2, 89895, Note_on_c, 0, 67, 64
2, 89895, Note_on_c, 0, 52, 64
2, 90015, Note_off_c, 0, 52, 64
2, 90015, Note_off_c, 0, 67, 64
2, 90015, Note_off_c, 0, 71, 64
2, 90015, Note_on_c, 0, 69, 64
2, 90015, Note_on_c, 0, 67, 64
2, 90015, Note_on_c, 0, 49, 64
2, 90135, Note_off_c, 0, 49, 64
2, 90135, Note_on_c, 0, 52, 64
2, 90255, Note_off_c, 0, 52, 64
2, 90255, Note_off_c, 0, 67, 64
2, 90255, Note_off_c, 0, 69, 64
2, 90255, Note_on_c, 0, 49, 64
2, 90375, Note_off_c, 0, 49, 64
2, 90375, Note_on_c, 0, 45, 64
2, 90495, Note_off_c, 0, 45, 64
2, 90495, Note_on_c, 0, 69, 64
2, 90495, Note_on_c, 0, 49, 64
2, 90555, Note_off_c, 0, 69, 64
2, 90555, Note_on_c, 0, 67, 64
2, 90615, Note_off_c, 0, 67, 64
2, 90615, Note_off_c, 0, 49, 64
2, 90615, Note_on_c, 0, 45, 64
2, 90615, Note_on_c, 0, 66, 64
2, 90675, Note_off_c, 0, 66, 64
2, 90675, Note_on_c, 0, 64, 64
2, 90735, Note_off_c, 0, 64, 64
2, 90735, Note_off_c, 0, 45, 64
2, 90735, Note_on_c, 0, 66, 64
2, 90735, Note_on_c, 0, 50, 64
2, 90855, Note_off_c, 0, 50, 64
2, 90855, Note_off_c, 0, 66, 64
2, 90855, Note_on_c, 0, 62, 64
2, 90855, Note_on_c, 0, 54, 64
2, 90915, Note_off_c, 0, 62, 64
2, 90915, Note_on_c, 0, 64, 64
2, 90975, Note_off_c, 0, 64, 64
2, 90975, Note_off_c, 0, 54, 64
2, 90975, Note_on_c, 0, 66, 64
2, 90975, Note_on_c, 0, 50, 64
2, 91035, Note_off_c, 0, 66, 64
2, 91035, Note_on_c, 0, 67, 64
2, 91095, Note_off_c, 0, 67, 64
2, 91095, Note_off_c, 0, 50, 64
2, 91095, Note_on_c, 0, 74, 64
2, 91095, Note_on_c, 0, 69, 64
2, 91095, Note_on_c, 0, 47, 64
2, 91215, Note_off_c, 0, 47, 64
2, 91215, Note_off_c, 0, 69, 64
2, 91215, Note_on_c, 0, 67, 64
2, 91215, Note_on_c, 0, 50, 64
2, 91275, Note_off_c, 0, 67, 64
2, 91275, Note_on_c, 0, 66, 64
2, 91335, Note_off_c, 0, 66, 64
2, 91335, Note_off_c, 0, 50, 64
2, 91335, Note_on_c, 0, 64, 64
2, 91335, Note_on_c, 0, 47, 64
2, 91395, Note_off_c, 0, 64, 64
2, 91395, Note_on_c, 0, 62, 64
2, 91455, Note_off_c, 0, 62, 64
2, 91455, Note_off_c, 0, 47, 64
2, 91455, Note_off_c, 0, 74, 64
2, 91455, Note_on_c, 0, 71, 64
2, 91455, Note_on_c, 0, 67, 64
2, 91455, Note_on_c, 0, 52, 64
2, 91575, Note_off_c, 0, 52, 64
2, 91575, Note_off_c, 0, 67, 64
2, 91575, Note_on_c, 0, 64, 64
2, 91575, Note_on_c, 0, 55, 64
2, 91635, Note_off_c, 0, 64, 64
2, 91635, Note_on_c, 0, 66, 64
2, 91695, Note_off_c, 0, 66, 64
2, 91695, Note_off_c, 0, 55, 64
2, 91695, Note_on_c, 0, 67, 64
2, 91695, Note_on_c, 0, 52, 64
2, 91755, Note_off_c, 0, 67, 64
2, 91755, Note_on_c, 0, 69, 64
2, 91815, Note_off_c, 0, 69, 64
2, 91815, Note_off_c, 0, 52, 64
2, 91815, Note_off_c, 0, 71, 64
2, 91815, Note_on_c, 0, 76, 64
2, 91815, Note_on_c, 0, 71, 64
2, 91815, Note_on_c, 0, 49, 64
2, 91935, Note_off_c, 0, 49, 64
2, 91935, Note_off_c, 0, 71, 64
2, 91935, Note_on_c, 0, 69, 64
2, 91935, Note_on_c, 0, 52, 64
2, 91995, Note_off_c, 0, 69, 64
2, 91995, Note_on_c, 0, 67, 64
2, 92055, Note_off_c, 0, 67, 64
2, 92055, Note_off_c, 0, 52, 64
2, 92055, Note_on_c, 0, 49, 64
2, 92055, Note_on_c, 0, 66, 64
2, 92115, Note_off_c, 0, 66, 64
2, 92115, Note_on_c, 0, 64, 64
2, 92175, Note_off_c, 0, 64, 64
2, 92175, Note_off_c, 0, 49, 64
2, 92175, Note_on_c, 0, 69, 64
2, 92175, Note_on_c, 0, 54, 64
2, 92295, Note_off_c, 0, 54, 64
2, 92295, Note_on_c, 0, 50, 64
2, 92355, Note_off_c, 0, 50, 64
2, 92355, Note_on_c, 0, 52, 64
2, 92415, Note_off_c, 0, 52, 64
2, 92415, Note_off_c, 0, 69, 64
2, 92415, Note_on_c, 0, 67, 64
2, 92415, Note_on_c, 0, 54, 64
2, 92475, Note_off_c, 0, 54, 64
2, 92475, Note_on_c, 0, 55, 64
2, 92535, Note_off_c, 0, 55, 64
2, 92535, Note_off_c, 0, 67, 64
2, 92535, Note_off_c, 0, 76, 64
2, 92535, Note_on_c, 0, 74, 64
2, 92535, Note_on_c, 0, 66, 64
2, 92535, Note_on_c, 0, 57, 64
2, 92655, Note_off_c, 0, 57, 64
2, 92655, Note_on_c, 0, 55, 64
2, 92715, Note_off_c, 0, 55, 64
2, 92715, Note_on_c, 0, 54, 64
2, 92775, Note_off_c, 0, 54, 64
2, 92775, Note_off_c, 0, 74, 64
2, 92775, Note_on_c, 0, 72, 64
2, 92775, Note_on_c, 0, 52, 64
2, 92835, Note_off_c, 0, 52, 64
2, 92835, Note_on_c, 0, 50, 64
2, 92895, Note_off_c, 0, 50, 64
2, 92895, Note_off_c, 0, 72, 64
2, 92895, Note_on_c, 0, 71, 64
2, 92895, Note_on_c, 0, 55, 64
2, 93015, Note_off_c, 0, 55, 64
2, 93015, Note_on_c, 0, 52, 64
2, 93075, Note_off_c, 0, 52, 64
2, 93075, Note_on_c, 0, 54, 64
2, 93135, Note_off_c, 0, 54, 64
2, 93135, Note_off_c, 0, 71, 64
2, 93135, Note_on_c, 0, 69, 64
2, 93135, Note_on_c, 0, 55, 64
2, 93195, Note_off_c, 0, 55, 64
2, 93195, Note_on_c, 0, 57, 64
2, 93255, Note_off_c, 0, 57, 64
2, 93255, Note_off_c, 0, 69, 64
2, 93255, Note_off_c, 0, 66, 64
2, 93255, Note_on_c, 0, 67, 64
2, 93255, Note_on_c, 0, 64, 64
2, 93255, Note_on_c, 0, 59, 64
2, 93375, Note_off_c, 0, 59, 64
2, 93375, Note_on_c, 0, 57, 64
2, 93435, Note_off_c, 0, 57, 64
2, 93435, Note_on_c, 0, 55, 64
2, 93495, Note_off_c, 0, 55, 64
2, 93495, Note_off_c, 0, 64, 64
2, 93495, Note_on_c, 0, 54, 64
2, 93495, Note_on_c, 0, 62, 64
2, 93555, Note_off_c, 0, 54, 64
2, 93555, Note_on_c, 0, 52, 64
2, 93615, Note_off_c, 0, 52, 64
2, 93615, Note_off_c, 0, 62, 64
2, 93615, Note_on_c, 0, 61, 64
2, 93615, Note_on_c, 0, 57, 64
2, 93735, Note_off_c, 0, 61, 64
2, 93735, Note_on_c, 0, 57, 64
2, 93795, Note_off_c, 0, 57, 64
2, 93795, Note_on_c, 0, 59, 64
2, 93855, Note_off_c, 0, 59, 64
2, 93855, Note_off_c, 0, 57, 64
2, 93855, Note_on_c, 0, 61, 64
2, 93855, Note_on_c, 0, 45, 64
2, 93915, Note_off_c, 0, 61, 64
2, 93915, Note_on_c, 0, 62, 64
2, 93975, Note_off_c, 0, 62, 64
2, 93975, Note_off_c, 0, 45, 64
2, 93975, Note_off_c, 0, 67, 64
2, 93975, Note_on_c, 0, 67, 64
2, 93975, Note_on_c, 0, 64, 64
2, 93975, Note_on_c, 0, 45, 64
2, 94095, Note_off_c, 0, 64, 64
2, 94095, Note_on_c, 0, 61, 64
2, 94215, Note_off_c, 0, 61, 64
2, 94215, Note_off_c, 0, 45, 64
2, 94215, Note_on_c, 0, 64, 64
2, 94215, Note_on_c, 0, 45, 64
2, 94335, Note_off_c, 0, 45, 64
2, 94335, Note_off_c, 0, 64, 64
2, 94335, Note_off_c, 0, 67, 64
2, 94335, Note_on_c, 0, 73, 64
2, 94335, Note_on_c, 0, 67, 64
2, 94335, Note_on_c, 0, 45, 64
2, 94455, Note_off_c, 0, 67, 64
2, 94455, Note_on_c, 0, 64, 64
2, 94575, Note_off_c, 0, 64, 64
2, 94575, Note_on_c, 0, 67, 64
2, 94695, Note_off_c, 0, 67, 64
2, 94695, Note_off_c, 0, 73, 64
2, 94695, Note_on_c, 0, 76, 64
2, 94695, Note_on_c, 0, 73, 64
2, 94815, Note_off_c, 0, 73, 64
2, 94815, Note_on_c, 0, 67, 64
2, 94875, Note_off_c, 0, 45, 64
2, 94875, Note_on_c, 0, 52, 64
2, 94935, Note_off_c, 0, 52, 64
2, 94935, Note_off_c, 0, 67, 64
2, 94935, Note_on_c, 0, 73, 64
2, 94935, Note_on_c, 0, 54, 64
2, 94995, Note_off_c, 0, 54, 64
2, 94995, Note_on_c, 0, 55, 64
2, 95055, Note_off_c, 0, 55, 64
2, 95055, Note_off_c, 0, 73, 64
2, 95055, Note_on_c, 0, 66, 64
2, 95055, Note_on_c, 0, 57, 64
2, 95175, Note_off_c, 0, 76, 64
2, 95175, Note_on_c, 0, 74, 64
2, 95235, Note_off_c, 0, 74, 64
2, 95235, Note_on_c, 0, 73, 64
2, 95295, Note_off_c, 0, 73, 64
2, 95295, Note_off_c, 0, 57, 64
2, 95295, Note_on_c, 0, 71, 64
2, 95295, Note_on_c, 0, 45, 64
2, 95355, Note_off_c, 0, 71, 64
2, 95355, Note_on_c, 0, 69, 64
2, 95415, Note_off_c, 0, 69, 64
2, 95415, Note_off_c, 0, 45, 64
2, 95415, Note_off_c, 0, 66, 64
2, 95415, Note_on_c, 0, 68, 64
2, 95415, Note_on_c, 0, 62, 64
2, 95415, Note_on_c, 0, 45, 64
2, 95535, Note_off_c, 0, 68, 64
2, 95535, Note_on_c, 0, 71, 64
2, 95655, Note_off_c, 0, 71, 64
2, 95655, Note_off_c, 0, 45, 64
2, 95655, Note_on_c, 0, 68, 64
2, 95655, Note_on_c, 0, 45, 64
2, 95775, Note_off_c, 0, 45, 64
2, 95775, Note_off_c, 0, 68, 64
2, 95775, Note_off_c, 0, 62, 64
2, 95775, Note_on_c, 0, 62, 64
2, 95775, Note_on_c, 0, 59, 64
2, 95775, Note_on_c, 0, 45, 64
2, 95895, Note_off_c, 0, 62, 64
2, 95895, Note_on_c, 0, 68, 64
2, 96015, Note_off_c, 0, 68, 64
2, 96015, Note_on_c, 0, 62, 64
2, 96135, Note_off_c, 0, 62, 64
2, 96135, Note_off_c, 0, 45, 64
2, 96135, Note_off_c, 0, 59, 64
2, 96135, Note_on_c, 0, 56, 64
2, 96135, Note_on_c, 0, 59, 64
2, 96255, Note_off_c, 0, 59, 64
2, 96255, Note_on_c, 0, 62, 64
2, 96375, Note_off_c, 0, 62, 64
2, 96375, Note_on_c, 0, 59, 64
2, 96495, Note_off_c, 0, 59, 64
2, 96495, Note_off_c, 0, 56, 64
2, 96495, Note_on_c, 0, 61, 64
2, 96495, Note_on_c, 0, 57, 64
2, 96615, Note_off_c, 0, 61, 64
2, 96615, Note_on_c, 0, 59, 64
2, 96675, Note_on_c, 0, 42, 64
2, 96735, Note_off_c, 0, 42, 64
2, 96735, Note_off_c, 0, 59, 64
2, 96735, Note_on_c, 0, 57, 64
2, 96735, Note_on_c, 0, 55, 64
2, 96735, Note_on_c, 0, 43, 64
2, 96736, Note_off_c, 0, 57, 64
2, 96795, Note_off_c, 0, 43, 64
2, 96795, Note_on_c, 0, 45, 64
2, 96855, Note_off_c, 0, 45, 64
2, 96855, Note_off_c, 0, 55, 64
2, 96855, Note_off_c, 0, 57, 64
2, 96855, Note_on_c, 0, 62, 64
2, 96855, Note_on_c, 0, 54, 64
2, 96855, Note_on_c, 0, 47, 64
2, 96975, Note_off_c, 0, 47, 64
2, 96975, Note_on_c, 0, 45, 64
2, 97095, Note_off_c, 0, 45, 64
2, 97095, Note_off_c, 0, 54, 64
2, 97095, Note_off_c, 0, 62, 64
2, 97095, Note_on_c, 0, 67, 64
2, 97095, Note_on_c, 0, 64, 64
2, 97095, Note_on_c, 0, 43, 64
2, 97215, Note_off_c, 0, 43, 64
2, 97215, Note_off_c, 0, 64, 64
2, 97215, Note_on_c, 0, 61, 64
2, 97215, Note_on_c, 0, 45, 64
2, 97335, Note_off_c, 0, 67, 64
2, 97335, Note_on_c, 0, 66, 64
2, 97395, Note_off_c, 0, 66, 64
2, 97395, Note_on_c, 0, 64, 64
2, 97455, Note_off_c, 0, 64, 64
2, 97455, Note_off_c, 0, 45, 64
2, 97455, Note_off_c, 0, 61, 64
2, 97455, Note_on_c, 0, 62, 64
2, 97455, Note_on_c, 0, 66, 64
2, 97455, Note_on_c, 0, 57, 64
2, 97575, Note_off_c, 0, 57, 64
2, 97575, Note_off_c, 0, 66, 64
2, 97575, Note_on_c, 0, 64, 64
2, 97575, Note_on_c, 0, 57, 64
2, 97695, Note_off_c, 0, 62, 64
2, 97695, Note_on_c, 0, 61, 64
2, 97755, Note_off_c, 0, 61, 64
2, 97755, Note_on_c, 0, 59, 64
2, 97815, Note_off_c, 0, 59, 64
2, 97815, Note_off_c, 0, 57, 64
2, 97815, Note_off_c, 0, 64, 64
2, 97815, Note_on_c, 0, 45, 64
2, 97815, Note_on_c, 0, 69, 64
2, 97815, Note_on_c, 0, 61, 64
2, 97935, Note_off_c, 0, 61, 64
2, 97935, Note_off_c, 0, 69, 64
2, 97935, Note_off_c, 0, 45, 64
2, 97935, Note_on_c, 0, 66, 64
2, 97935, Note_on_c, 0, 62, 64
2, 97935, Note_on_c, 0, 50, 64
2, 97995, Note_off_c, 0, 62, 64
2, 97995, Note_off_c, 0, 66, 64
2, 97995, Note_on_c, 0, 69, 64
2, 98055, Note_off_c, 0, 69, 64
2, 98055, Note_on_c, 0, 71, 64
2, 98115, Note_off_c, 0, 71, 64
2, 98115, Note_on_c, 0, 73, 64
2, 98175, Note_off_c, 0, 73, 64
2, 98175, Note_off_c, 0, 50, 64
2, 98175, Note_on_c, 0, 74, 64
2, 98175, Note_on_c, 0, 57, 64
2, 98235, Note_off_c, 0, 74, 64
2, 98235, Note_on_c, 0, 76, 64
2, 98295, Note_off_c, 0, 76, 64
2, 98295, Note_off_c, 0, 57, 64
2, 98295, Note_on_c, 0, 78, 64
2, 98295, Note_on_c, 0, 62, 64
2, 98355, Note_off_c, 0, 78, 64
2, 98355, Note_on_c, 0, 76, 64
2, 98415, Note_off_c, 0, 76, 64
2, 98415, Note_on_c, 0, 74, 64
2, 98475, Note_off_c, 0, 74, 64
2, 98475, Note_on_c, 0, 73, 64
2, 98535, Note_off_c, 0, 73, 64
2, 98535, Note_on_c, 0, 71, 64
2, 98595, Note_off_c, 0, 71, 64
2, 98595, Note_on_c, 0, 69, 64
2, 98655, Note_off_c, 0, 69, 64
2, 98655, Note_on_c, 0, 68, 64
2, 98775, Note_off_c, 0, 68, 64
2, 98775, Note_off_c, 0, 62, 64
2, 98775, Note_on_c, 0, 71, 64
2, 98775, Note_on_c, 0, 64, 64
2, 98835, Note_off_c, 0, 64, 64
2, 98835, Note_on_c, 0, 62, 64
2, 98895, Note_off_c, 0, 62, 64
2, 98895, Note_off_c, 0, 71, 64
2, 98895, Note_on_c, 0, 76, 64
2, 98895, Note_on_c, 0, 61, 64
2, 98955, Note_off_c, 0, 61, 64
2, 98955, Note_on_c, 0, 59, 64
2, 99015, Note_off_c, 0, 59, 64
2, 99015, Note_off_c, 0, 76, 64
2, 99015, Note_on_c, 0, 76, 64
2, 99015, Note_on_c, 0, 58, 64
2, 99135, Note_off_c, 0, 58, 64
2, 99135, Note_on_c, 0, 73, 64
2, 99135, Note_on_c, 0, 59, 64
2, 99195, Note_off_c, 0, 59, 64
2, 99195, Note_on_c, 0, 58, 64
2, 99255, Note_off_c, 0, 58, 64
2, 99255, Note_off_c, 0, 73, 64
2, 99255, Note_on_c, 0, 70, 64
2, 99255, Note_on_c, 0, 56, 64
2, 99315, Note_off_c, 0, 56, 64
2, 99315, Note_on_c, 0, 54, 64
2, 99375, Note_off_c, 0, 54, 64
2, 99375, Note_off_c, 0, 70, 64
2, 99375, Note_on_c, 0, 66, 64
2, 99375, Note_on_c, 0, 59, 64
2, 99495, Note_off_c, 0, 66, 64
2, 99495, Note_on_c, 0, 68, 64
2, 99555, Note_off_c, 0, 68, 64
2, 99555, Note_on_c, 0, 70, 64
2, 99615, Note_off_c, 0, 70, 64
2, 99615, Note_off_c, 0, 59, 64
2, 99615, Note_on_c, 0, 71, 64
2, 99615, Note_on_c, 0, 47, 64
2, 99675, Note_off_c, 0, 71, 64
2, 99675, Note_on_c, 0, 73, 64
2, 99735, Note_off_c, 0, 73, 64
2, 99735, Note_off_c, 0, 47, 64
2, 99735, Note_off_c, 0, 76, 64
2, 99735, Note_on_c, 0, 74, 64
2, 99735, Note_on_c, 0, 59, 64
2, 99795, Note_off_c, 0, 74, 64
2, 99795, Note_on_c, 0, 73, 64
2, 99795, Note_on_c, 0, 73, 64
2, 99855, Note_off_c, 0, 73, 64
2, 99855, Note_off_c, 0, 73, 64
2, 99855, Note_on_c, 0, 71, 64
2, 99915, Note_off_c, 0, 71, 64
2, 99915, Note_on_c, 0, 69, 64
2, 99975, Note_off_c, 0, 69, 64
2, 99975, Note_on_c, 0, 67, 64
2, 100035, Note_off_c, 0, 67, 64
2, 100035, Note_on_c, 0, 66, 64
2, 100095, Note_off_c, 0, 66, 64
2, 100095, Note_on_c, 0, 64, 64
2, 100215, Note_off_c, 0, 64, 64
2, 100215, Note_off_c, 0, 59, 64
2, 100215, Note_on_c, 0, 67, 64
2, 100215, Note_on_c, 0, 60, 64
2, 100275, Note_off_c, 0, 60, 64
2, 100275, Note_on_c, 0, 59, 64
2, 100335, Note_off_c, 0, 59, 64
2, 100335, Note_off_c, 0, 67, 64
2, 100335, Note_on_c, 0, 72, 64
2, 100335, Note_on_c, 0, 57, 64
2, 100395, Note_off_c, 0, 57, 64
2, 100395, Note_on_c, 0, 55, 64
2, 100455, Note_off_c, 0, 55, 64
2, 100455, Note_off_c, 0, 72, 64
2, 100455, Note_on_c, 0, 72, 64
2, 100455, Note_on_c, 0, 54, 64
2, 100575, Note_off_c, 0, 54, 64
2, 100575, Note_on_c, 0, 69, 64
2, 100575, Note_on_c, 0, 55, 64
2, 100635, Note_off_c, 0, 55, 64
2, 100635, Note_on_c, 0, 54, 64
2, 100695, Note_off_c, 0, 54, 64
2, 100695, Note_off_c, 0, 69, 64
2, 100695, Note_on_c, 0, 66, 64
2, 100695, Note_on_c, 0, 52, 64
2, 100755, Note_off_c, 0, 52, 64
2, 100755, Note_on_c, 0, 50, 64
2, 100815, Note_off_c, 0, 50, 64
2, 100815, Note_off_c, 0, 66, 64
2, 100815, Note_on_c, 0, 62, 64
2, 100815, Note_on_c, 0, 55, 64
2, 100935, Note_off_c, 0, 62, 64
2, 100935, Note_on_c, 0, 64, 64
2, 100995, Note_off_c, 0, 64, 64
2, 100995, Note_on_c, 0, 66, 64
2, 101055, Note_off_c, 0, 66, 64
2, 101055, Note_off_c, 0, 55, 64
2, 101055, Note_on_c, 0, 67, 64
2, 101055, Note_on_c, 0, 43, 64
2, 101115, Note_off_c, 0, 67, 64
2, 101115, Note_on_c, 0, 69, 64
2, 101175, Note_off_c, 0, 69, 64
2, 101175, Note_off_c, 0, 43, 64
2, 101175, Note_off_c, 0, 72, 64
2, 101175, Note_on_c, 0, 71, 64
2, 101175, Note_on_c, 0, 55, 64
2, 101235, Note_off_c, 0, 71, 64
2, 101235, Note_on_c, 0, 69, 64
2, 101295, Note_off_c, 0, 69, 64
2, 101295, Note_on_c, 0, 67, 64
2, 101355, Note_off_c, 0, 67, 64
2, 101355, Note_on_c, 0, 66, 64
2, 101415, Note_off_c, 0, 66, 64
2, 101415, Note_on_c, 0, 64, 64
2, 101475, Note_off_c, 0, 64, 64
2, 101475, Note_on_c, 0, 62, 64
2, 101535, Note_off_c, 0, 62, 64
2, 101535, Note_on_c, 0, 61, 64
2, 101655, Note_off_c, 0, 61, 64
2, 101655, Note_off_c, 0, 55, 64
2, 101655, Note_on_c, 0, 64, 64
2, 101655, Note_on_c, 0, 57, 64
2, 101715, Note_off_c, 0, 57, 64
2, 101715, Note_on_c, 0, 55, 64
2, 101775, Note_off_c, 0, 55, 64
2, 101775, Note_off_c, 0, 64, 64
2, 101775, Note_on_c, 0, 69, 64
2, 101775, Note_on_c, 0, 61, 64
2, 101775, Note_on_c, 0, 54, 64
2, 101835, Note_off_c, 0, 54, 64
2, 101835, Note_on_c, 0, 52, 64
2, 101895, Note_off_c, 0, 52, 64
2, 101895, Note_off_c, 0, 61, 64
2, 101895, Note_off_c, 0, 69, 64
2, 101895, Note_on_c, 0, 66, 64
2, 101895, Note_on_c, 0, 62, 64
2, 101895, Note_on_c, 0, 50, 64
2, 102015, Note_off_c, 0, 50, 64
2, 102015, Note_off_c, 0, 66, 64
2, 102015, Note_on_c, 0, 69, 64
2, 102015, Note_on_c, 0, 52, 64
2, 102075, Note_off_c, 0, 52, 64
2, 102075, Note_on_c, 0, 54, 64
2, 102135, Note_off_c, 0, 54, 64
2, 102135, Note_off_c, 0, 69, 64
2, 102135, Note_off_c, 0, 62, 64
2, 102135, Note_on_c, 0, 66, 64
2, 102135, Note_on_c, 0, 74, 64
2, 102135, Note_on_c, 0, 55, 64
2, 102195, Note_off_c, 0, 55, 64
2, 102195, Note_on_c, 0, 57, 64
2, 102255, Note_off_c, 0, 57, 64
2, 102255, Note_off_c, 0, 74, 64
2, 102255, Note_off_c, 0, 66, 64
2, 102255, Note_on_c, 0, 67, 64
2, 102255, Note_on_c, 0, 59, 64
2, 102375, Note_off_c, 0, 59, 64
2, 102375, Note_on_c, 0, 69, 64
2, 102375, Note_on_c, 0, 57, 64
2, 102495, Note_off_c, 0, 57, 64
2, 102495, Note_off_c, 0, 69, 64
2, 102495, Note_off_c, 0, 67, 64
2, 102495, Note_on_c, 0, 76, 64
2, 102495, Note_on_c, 0, 71, 64
2, 102495, Note_on_c, 0, 54, 64
2, 102615, Note_off_c, 0, 54, 64
2, 102615, Note_off_c, 0, 71, 64
2, 102615, Note_off_c, 0, 76, 64
2, 102615, Note_on_c, 0, 69, 64
2, 102615, Note_on_c, 0, 66, 64
2, 102615, Note_on_c, 0, 57, 64
2, 102735, Note_off_c, 0, 69, 64
2, 102735, Note_on_c, 0, 74, 64
2, 102855, Note_off_c, 0, 74, 64
2, 102855, Note_off_c, 0, 57, 64
2, 102855, Note_off_c, 0, 66, 64
2, 102855, Note_on_c, 0, 73, 64
2, 102855, Note_on_c, 0, 64, 64
2, 102855, Note_on_c, 0, 67, 64
2, 102855, Note_on_c, 0, 45, 64
2, 102975, Note_off_c, 0, 45, 64
2, 102975, Note_off_c, 0, 64, 64
2, 102975, Note_off_c, 0, 73, 64
2, 102975, Note_on_c, 0, 38, 64
2, 102975, Note_on_c, 0, 74, 64
2, 102975, Note_on_c, 0, 62, 64
2, 103095, Note_off_c, 0, 67, 64
2, 103095, Note_on_c, 0, 69, 64
2, 103215, Note_off_c, 0, 62, 64
2, 103215, Note_on_c, 0, 66, 64
2, 103335, Note_on_c, 0, 62, 64
2, 103695, Note_off_c, 0, 62, 64
2, 103695, Note_off_c, 0, 66, 64
2, 103695, Note_off_c, 0, 69, 64
2, 103695, Note_off_c, 0, 74, 64
2, 103695, Note_off_c, 0, 38, 64
2, 103695, Note_on_c, 0, 45, 64
2, 103815, Note_on_c, 0, 76, 64
2, 103875, Note_off_c, 0, 76, 64
2, 103875, Note_on_c, 0, 74, 64
2, 103935, Note_off_c, 0, 74, 64
2, 103935, Note_on_c, 0, 73, 64
2, 103995, Note_off_c, 0, 73, 64
2, 103995, Note_on_c, 0, 71, 64
2, 104055, Note_off_c, 0, 71, 64
2, 104055, Note_off_c, 0, 45, 64
2, 104055, Note_on_c, 0, 69, 64
2, 104175, Note_off_c, 0, 69, 64
2, 104175, Note_on_c, 0, 73, 64
2, 104295, Note_off_c, 0, 73, 64
2, 104295, Note_on_c, 0, 69, 64
2, 104415, Note_off_c, 0, 69, 64
2, 104415, Note_on_c, 0, 64, 64
2, 104535, Note_off_c, 0, 64, 64
2, 104535, Note_on_c, 0, 69, 64
2, 104655, Note_off_c, 0, 69, 64
2, 104655, Note_on_c, 0, 64, 64
2, 104775, Note_off_c, 0, 64, 64
2, 104775, Note_on_c, 0, 61, 64
2, 104895, Note_off_c, 0, 61, 64
2, 104895, Note_on_c, 0, 64, 64
2, 105015, Note_off_c, 0, 64, 64
2, 105015, Note_on_c, 0, 61, 64
2, 105135, Note_off_c, 0, 61, 64
2, 105135, Note_on_c, 0, 57, 64
2, 105255, Note_on_c, 0, 69, 64
2, 105315, Note_off_c, 0, 69, 64
2, 105315, Note_on_c, 0, 71, 64
2, 105375, Note_off_c, 0, 71, 64
2, 105375, Note_on_c, 0, 73, 64
2, 105435, Note_off_c, 0, 73, 64
2, 105435, Note_on_c, 0, 74, 64
2, 105495, Note_off_c, 0, 74, 64
2, 105495, Note_off_c, 0, 57, 64
2, 105495, Note_on_c, 0, 76, 64
2, 105495, Note_on_c, 0, 61, 64
2, 105495, Note_on_c, 0, 69, 64
2, 105495, Note_on_c, 0, 57, 64
2, 105615, Note_off_c, 0, 76, 64
2, 105615, Note_on_c, 0, 73, 64
2, 105735, Note_off_c, 0, 73, 64
2, 105735, Note_on_c, 0, 76, 64
2, 105855, Note_off_c, 0, 76, 64
2, 105855, Note_off_c, 0, 57, 64
2, 105855, Note_off_c, 0, 69, 64
2, 105855, Note_off_c, 0, 61, 64
2, 105855, Note_on_c, 0, 81, 64
2, 105855, Note_on_c, 0, 61, 64
2, 105855, Note_on_c, 0, 69, 64
2, 105855, Note_on_c, 0, 57, 64
2, 105915, Note_off_c, 0, 81, 64
2, 105915, Note_on_c, 0, 76, 64
2, 105975, Note_off_c, 0, 76, 64
2, 105975, Note_off_c, 0, 57, 64
2, 105975, Note_on_c, 0, 78, 64
2, 106035, Note_off_c, 0, 78, 64
2, 106035, Note_off_c, 0, 69, 64
2, 106035, Note_off_c, 0, 61, 64
2, 106035, Note_on_c, 0, 80, 64
2, 106035, Note_on_c, 0, 62, 64
2, 106035, Note_on_c, 0, 71, 64
2, 106095, Note_off_c, 0, 80, 64
2, 106095, Note_on_c, 0, 81, 64
2, 106155, Note_off_c, 0, 81, 64
2, 106155, Note_on_c, 0, 80, 64
2, 106215, Note_off_c, 0, 80, 64
2, 106215, Note_off_c, 0, 71, 64
2, 106215, Note_off_c, 0, 62, 64
2, 106215, Note_on_c, 0, 81, 64
2, 106215, Note_on_c, 0, 62, 64
2, 106215, Note_on_c, 0, 71, 64
2, 106275, Note_off_c, 0, 81, 64
2, 106275, Note_on_c, 0, 76, 64
2, 106335, Note_off_c, 0, 76, 64
2, 106335, Note_on_c, 0, 78, 64
2, 106395, Note_off_c, 0, 78, 64
2, 106395, Note_off_c, 0, 71, 64
2, 106395, Note_off_c, 0, 62, 64
2, 106395, Note_on_c, 0, 73, 64
2, 106395, Note_on_c, 0, 64, 64
2, 106395, Note_on_c, 0, 80, 64
2, 106455, Note_off_c, 0, 80, 64
2, 106455, Note_on_c, 0, 81, 64
2, 106515, Note_off_c, 0, 81, 64
2, 106515, Note_on_c, 0, 80, 64
2, 106575, Note_off_c, 0, 80, 64
2, 106575, Note_off_c, 0, 64, 64
2, 106575, Note_off_c, 0, 73, 64
2, 106575, Note_on_c, 0, 81, 64
2, 106575, Note_on_c, 0, 64, 64
2, 106575, Note_on_c, 0, 73, 64
2, 106695, Note_off_c, 0, 73, 64
2, 106695, Note_off_c, 0, 64, 64
2, 106695, Note_off_c, 0, 81, 64
2, 106695, Note_on_c, 0, 80, 64
2, 106695, Note_on_c, 0, 64, 64
2, 106755, Note_off_c, 0, 64, 64
2, 106755, Note_off_c, 0, 80, 64
2, 106755, Note_on_c, 0, 78, 64
2, 106755, Note_on_c, 0, 62, 64
2, 106815, Note_off_c, 0, 62, 64
2, 106815, Note_off_c, 0, 78, 64
2, 106815, Note_on_c, 0, 76, 64
2, 106815, Note_on_c, 0, 61, 64
2, 106875, Note_off_c, 0, 61, 64
2, 106875, Note_off_c, 0, 76, 64
2, 106875, Note_on_c, 0, 74, 64
2, 106875, Note_on_c, 0, 59, 64
2, 106935, Note_off_c, 0, 59, 64
2, 106935, Note_off_c, 0, 74, 64
2, 106935, Note_on_c, 0, 73, 64
2, 106935, Note_on_c, 0, 57, 64
2, 106995, Note_off_c, 0, 73, 64
2, 106995, Note_on_c, 0, 74, 64
2, 107055, Note_off_c, 0, 74, 64
2, 107055, Note_off_c, 0, 57, 64
2, 107055, Note_on_c, 0, 76, 64
2, 107055, Note_on_c, 0, 61, 64
2, 107115, Note_off_c, 0, 76, 64
2, 107115, Note_on_c, 0, 74, 64
2, 107175, Note_off_c, 0, 74, 64
2, 107175, Note_off_c, 0, 61, 64
2, 107175, Note_on_c, 0, 73, 64
2, 107175, Note_on_c, 0, 57, 64
2, 107235, Note_off_c, 0, 73, 64
2, 107235, Note_on_c, 0, 71, 64
2, 107285, Note_off_c, 0, 71, 64
2, 107298, Note_off_c, 0, 57, 64
2, 107298, Note_on_c, 0, 71, 74
2, 107298, Note_on_c, 0, 52, 64
2, 107328, Note_off_c, 0, 71, 52
2, 107328, Note_on_c, 0, 69, 50
2, 107358, Note_off_c, 0, 69, 58
2, 107358, Note_on_c, 0, 71, 50
2, 107388, Note_off_c, 0, 71, 62
2, 107388, Note_on_c, 0, 69, 51
2, 107418, Note_off_c, 0, 69, 51
2, 107418, Note_off_c, 0, 52, 64
2, 107418, Note_on_c, 0, 71, 52
2, 107418, Note_on_c, 0, 57, 64
2, 107448, Note_off_c, 0, 71, 72
2, 107448, Note_on_c, 0, 69, 52
2, 107478, Note_off_c, 0, 69, 69
2, 107478, Note_on_c, 0, 71, 53
2, 107508, Note_off_c, 0, 71, 70
2, 107508, Note_on_c, 0, 69, 54
2, 107538, Note_off_c, 0, 69, 69
2, 107538, Note_off_c, 0, 57, 64
2, 107538, Note_on_c, 0, 71, 54
2, 107538, Note_on_c, 0, 52, 64
2, 107568, Note_off_c, 0, 71, 68
2, 107568, Note_on_c, 0, 69, 55
2, 107598, Note_off_c, 0, 69, 72
2, 107598, Note_on_c, 0, 71, 56
2, 107628, Note_off_c, 0, 71, 79
2, 107628, Note_on_c, 0, 69, 56
2, 107658, Note_off_c, 0, 69, 72
2, 107658, Note_off_c, 0, 52, 64
2, 107658, Note_on_c, 0, 71, 57
2, 107658, Note_on_c, 0, 49, 64
2, 107688, Note_off_c, 0, 71, 72
2, 107688, Note_on_c, 0, 69, 58
2, 107718, Note_off_c, 0, 69, 65
2, 107718, Note_on_c, 0, 71, 58
2, 107748, Note_off_c, 0, 71, 73
2, 107748, Note_on_c, 0, 69, 59
2, 107778, Note_off_c, 0, 69, 61
2, 107778, Note_off_c, 0, 49, 64
2, 107778, Note_on_c, 0, 71, 60
2, 107778, Note_on_c, 0, 52, 64
2, 107808, Note_off_c, 0, 71, 73
2, 107808, Note_on_c, 0, 69, 60
2, 107838, Note_off_c, 0, 69, 72
2, 107838, Note_on_c, 0, 71, 61
2, 107868, Note_off_c, 0, 71, 77
2, 107868, Note_on_c, 0, 69, 62
2, 107898, Note_off_c, 0, 69, 50
2, 107898, Note_off_c, 0, 52, 64
2, 107898, Note_on_c, 0, 71, 62
2, 107898, Note_on_c, 0, 49, 64
2, 107928, Note_off_c, 0, 71, 59
2, 107928, Note_on_c, 0, 69, 63
2, 107958, Note_off_c, 0, 69, 47
2, 107958, Note_on_c, 0, 71, 82
2, 107988, Note_off_c, 0, 71, 62
2, 107988, Note_on_c, 0, 69, 73
2, 108018, Note_off_c, 0, 49, 64
2, 108018, Note_on_c, 0, 45, 64
2, 108078, Note_off_c, 0, 69, 57
2, 108078, Note_on_c, 0, 71, 64
2, 108138, Note_off_c, 0, 71, 64
2, 108138, Note_on_c, 0, 69, 64
2, 108198, Note_off_c, 0, 69, 64
2, 108198, Note_on_c, 0, 68, 64
2, 108258, Note_off_c, 0, 68, 64
2, 108258, Note_on_c, 0, 69, 64
2, 108318, Note_off_c, 0, 69, 64
2, 108318, Note_on_c, 0, 64, 64
2, 108378, Note_off_c, 0, 64, 64
2, 108378, Note_off_c, 0, 45, 64
2, 108378, Note_on_c, 0, 61, 64
2, 108378, Note_on_c, 0, 45, 64
2, 108378, Note_on_c, 0, 49, 64
2, 108378, Note_on_c, 0, 52, 64
2, 108438, Note_off_c, 0, 61, 64
2, 108438, Note_on_c, 0, 66, 64
2, 108498, Note_off_c, 0, 66, 64
2, 108498, Note_on_c, 0, 64, 64
2, 108558, Note_off_c, 0, 64, 64
2, 108558, Note_on_c, 0, 62, 64
2, 108618, Note_off_c, 0, 62, 64
2, 108618, Note_on_c, 0, 64, 64
2, 108678, Note_off_c, 0, 64, 64
2, 108678, Note_on_c, 0, 61, 64
2, 108738, Note_off_c, 0, 61, 64
2, 108738, Note_off_c, 0, 52, 64
2, 108738, Note_off_c, 0, 49, 64
2, 108738, Note_off_c, 0, 45, 64
2, 108738, Note_on_c, 0, 59, 72
2, 108738, Note_on_c, 0, 45, 64
2, 108738, Note_on_c, 0, 49, 64
2, 108738, Note_on_c, 0, 52, 64
2, 108768, Note_off_c, 0, 59, 49
2, 108768, Note_on_c, 0, 57, 72
2, 108798, Note_off_c, 0, 57, 59
2, 108798, Note_on_c, 0, 59, 50
2, 108828, Note_off_c, 0, 59, 54
2, 108828, Note_on_c, 0, 57, 51
2, 108858, Note_off_c, 0, 57, 48
2, 108858, Note_on_c, 0, 59, 51
2, 108888, Note_off_c, 0, 59, 61
2, 108888, Note_on_c, 0, 57, 52
2, 108918, Note_off_c, 0, 57, 57
2, 108918, Note_off_c, 0, 52, 64
2, 108918, Note_off_c, 0, 49, 64
2, 108918, Note_off_c, 0, 45, 64
2, 108918, Note_on_c, 0, 59, 53
2, 108918, Note_on_c, 0, 47, 64
2, 108918, Note_on_c, 0, 50, 64
2, 108948, Note_off_c, 0, 59, 62
2, 108948, Note_on_c, 0, 57, 53
2, 108978, Note_off_c, 0, 57, 55
2, 108978, Note_on_c, 0, 59, 54
2, 109008, Note_off_c, 0, 59, 59
2, 109008, Note_on_c, 0, 57, 55
2, 109038, Note_off_c, 0, 57, 65
2, 109038, Note_on_c, 0, 59, 55
2, 109068, Note_off_c, 0, 59, 59
2, 109068, Note_on_c, 0, 57, 56
2, 109098, Note_off_c, 0, 57, 58
2, 109098, Note_off_c, 0, 50, 64
2, 109098, Note_off_c, 0, 47, 64
2, 109098, Note_on_c, 0, 59, 57
2, 109098, Note_on_c, 0, 47, 64
2, 109098, Note_on_c, 0, 50, 64
2, 109128, Note_off_c, 0, 59, 52
2, 109128, Note_on_c, 0, 57, 57
2, 109158, Note_off_c, 0, 57, 59
2, 109158, Note_on_c, 0, 59, 58
2, 109188, Note_off_c, 0, 59, 49
2, 109188, Note_on_c, 0, 57, 59
2, 109218, Note_off_c, 0, 57, 46
2, 109218, Note_on_c, 0, 59, 59
2, 109248, Note_off_c, 0, 59, 50
2, 109248, Note_on_c, 0, 57, 60
2, 109278, Note_off_c, 0, 57, 61
2, 109278, Note_off_c, 0, 50, 64
2, 109278, Note_off_c, 0, 47, 64
2, 109278, Note_on_c, 0, 59, 61
2, 109278, Note_on_c, 0, 52, 64
2, 109278, Note_on_c, 0, 49, 64
2, 109308, Note_off_c, 0, 59, 48
2, 109308, Note_on_c, 0, 57, 62
2, 109338, Note_off_c, 0, 57, 43
2, 109338, Note_on_c, 0, 59, 62
2, 109368, Note_off_c, 0, 59, 48
2, 109368, Note_on_c, 0, 57, 63
2, 109398, Note_off_c, 0, 57, 38
2, 109398, Note_on_c, 0, 59, 63
2, 109428, Note_off_c, 0, 59, 50
2, 109428, Note_on_c, 0, 57, 79
2, 109458, Note_off_c, 0, 49, 64
2, 109458, Note_off_c, 0, 52, 64
2, 109458, Note_on_c, 0, 52, 64
2, 109458, Note_on_c, 0, 49, 64
2, 109508, Note_off_c, 0, 57, 52
2, 109578, Note_off_c, 0, 52, 64
2, 109578, Note_on_c, 0, 57, 64
2, 109638, Note_off_c, 0, 57, 64
2, 109638, Note_on_c, 0, 59, 64
2, 109698, Note_off_c, 0, 59, 64
2, 109698, Note_on_c, 0, 61, 64
2, 109758, Note_off_c, 0, 61, 64
2, 109758, Note_on_c, 0, 62, 64
2, 109818, Note_off_c, 0, 62, 64
2, 109818, Note_off_c, 0, 49, 64
2, 109818, Note_on_c, 0, 64, 64
2, 109938, Note_off_c, 0, 64, 64
2, 109938, Note_on_c, 0, 61, 64
2, 110058, Note_off_c, 0, 61, 64
2, 110058, Note_on_c, 0, 64, 64
2, 110118, Note_on_c, 0, 57, 64
2, 110178, Note_off_c, 0, 57, 64
2, 110178, Note_off_c, 0, 64, 64
2, 110178, Note_on_c, 0, 67, 64
2, 110178, Note_on_c, 0, 59, 64
2, 110298, Note_off_c, 0, 59, 64
2, 110298, Note_off_c, 0, 67, 64
2, 110298, Note_on_c, 0, 76, 64
2, 110298, Note_on_c, 0, 61, 64
2, 110358, Note_off_c, 0, 61, 64
2, 110358, Note_off_c, 0, 76, 64
2, 110358, Note_on_c, 0, 74, 64
2, 110358, Note_on_c, 0, 59, 64
2, 110418, Note_off_c, 0, 59, 64
2, 110418, Note_off_c, 0, 74, 64
2, 110418, Note_on_c, 0, 73, 64
2, 110418, Note_on_c, 0, 57, 64
2, 110478, Note_off_c, 0, 57, 64
2, 110478, Note_off_c, 0, 73, 64
2, 110478, Note_on_c, 0, 71, 64
2, 110478, Note_on_c, 0, 59, 64
2, 110538, Note_off_c, 0, 59, 64
2, 110538, Note_off_c, 0, 71, 64
2, 110538, Note_on_c, 0, 69, 64
2, 110538, Note_on_c, 0, 61, 64
2, 110658, Note_off_c, 0, 61, 64
2, 110658, Note_off_c, 0, 69, 64
2, 110658, Note_on_c, 0, 76, 64
2, 110658, Note_on_c, 0, 62, 64
2, 110718, Note_off_c, 0, 62, 64
2, 110718, Note_on_c, 0, 61, 64
2, 110778, Note_off_c, 0, 61, 64
2, 110778, Note_off_c, 0, 76, 64
2, 110778, Note_on_c, 0, 67, 64
2, 110778, Note_on_c, 0, 59, 64
2, 110838, Note_off_c, 0, 59, 64
2, 110838, Note_on_c, 0, 61, 64
2, 110898, Note_off_c, 0, 61, 64
2, 110898, Note_off_c, 0, 67, 64
2, 110898, Note_on_c, 0, 66, 64
2, 110898, Note_on_c, 0, 62, 64
2, 111018, Note_off_c, 0, 66, 64
2, 111018, Note_on_c, 0, 62, 64
2, 111078, Note_off_c, 0, 62, 64
2, 111078, Note_on_c, 0, 64, 64
2, 111138, Note_off_c, 0, 64, 64
2, 111138, Note_on_c, 0, 66, 64
2, 111198, Note_off_c, 0, 66, 64
2, 111198, Note_on_c, 0, 67, 64
2, 111258, Note_off_c, 0, 67, 64
2, 111258, Note_off_c, 0, 62, 64
2, 111258, Note_on_c, 0, 69, 64
2, 111378, Note_off_c, 0, 69, 64
2, 111378, Note_on_c, 0, 66, 64
2, 111498, Note_off_c, 0, 66, 64
2, 111498, Note_on_c, 0, 69, 64
2, 111558, Note_on_c, 0, 50, 64
2, 111618, Note_off_c, 0, 50, 64
2, 111618, Note_off_c, 0, 69, 64
2, 111618, Note_on_c, 0, 72, 64
2, 111618, Note_on_c, 0, 52, 64
2, 111738, Note_off_c, 0, 52, 64
2, 111738, Note_off_c, 0, 72, 64
2, 111738, Note_on_c, 0, 81, 64
2, 111738, Note_on_c, 0, 54, 64
2, 111798, Note_off_c, 0, 54, 64
2, 111798, Note_off_c, 0, 81, 64
2, 111798, Note_on_c, 0, 79, 64
2, 111798, Note_on_c, 0, 52, 64
2, 111858, Note_off_c, 0, 52, 64
2, 111858, Note_off_c, 0, 79, 64
2, 111858, Note_on_c, 0, 78, 64
2, 111858, Note_on_c, 0, 50, 64
2, 111918, Note_off_c, 0, 50, 64
2, 111918, Note_off_c, 0, 78, 64
2, 111918, Note_on_c, 0, 76, 64
2, 111918, Note_on_c, 0, 52, 64
2, 111978, Note_off_c, 0, 52, 64
2, 111978, Note_off_c, 0, 76, 64
2, 111978, Note_on_c, 0, 74, 64
2, 111978, Note_on_c, 0, 54, 64
2, 112098, Note_off_c, 0, 54, 64
2, 112098, Note_off_c, 0, 74, 64
2, 112098, Note_on_c, 0, 81, 64
2, 112098, Note_on_c, 0, 55, 64
2, 112158, Note_off_c, 0, 55, 64
2, 112158, Note_on_c, 0, 54, 64
2, 112218, Note_off_c, 0, 54, 64
2, 112218, Note_off_c, 0, 81, 64
2, 112218, Note_on_c, 0, 72, 64
2, 112218, Note_on_c, 0, 52, 64
2, 112278, Note_off_c, 0, 52, 64
2, 112278, Note_on_c, 0, 54, 64
2, 112338, Note_off_c, 0, 54, 64
2, 112338, Note_off_c, 0, 72, 64
2, 112338, Note_on_c, 0, 71, 64
2, 112338, Note_on_c, 0, 55, 64
2, 112458, Note_off_c, 0, 55, 64
2, 112458, Note_on_c, 0, 59, 64
2, 112518, Note_off_c, 0, 59, 64
2, 112518, Note_on_c, 0, 57, 64
2, 112578, Note_off_c, 0, 57, 64
2, 112578, Note_on_c, 0, 55, 64
2, 112638, Note_off_c, 0, 55, 64
2, 112638, Note_on_c, 0, 69, 64
2, 112638, Note_on_c, 0, 54, 64
2, 112698, Note_off_c, 0, 54, 64
2, 112698, Note_off_c, 0, 69, 64
2, 112698, Note_on_c, 0, 67, 64
2, 112698, Note_on_c, 0, 52, 64
2, 112818, Note_off_c, 0, 52, 64
2, 112818, Note_on_c, 0, 55, 64
2, 112878, Note_off_c, 0, 55, 64
2, 112878, Note_on_c, 0, 54, 64
2, 112938, Note_off_c, 0, 54, 64
2, 112938, Note_on_c, 0, 52, 64
2, 112998, Note_off_c, 0, 52, 64
2, 112998, Note_off_c, 0, 67, 64
2, 112998, Note_on_c, 0, 66, 64
2, 112998, Note_on_c, 0, 50, 64
2, 113058, Note_off_c, 0, 50, 64
2, 113058, Note_off_c, 0, 66, 64
2, 113058, Note_on_c, 0, 64, 64
2, 113058, Note_on_c, 0, 49, 64
2, 113178, Note_off_c, 0, 49, 64
2, 113178, Note_off_c, 0, 71, 64
2, 113178, Note_on_c, 0, 73, 64
2, 113178, Note_on_c, 0, 52, 64
2, 113238, Note_off_c, 0, 73, 64
2, 113238, Note_on_c, 0, 71, 64
2, 113298, Note_off_c, 0, 71, 64
2, 113298, Note_off_c, 0, 52, 64
2, 113298, Note_on_c, 0, 70, 64
2, 113298, Note_on_c, 0, 49, 64
2, 113358, Note_off_c, 0, 70, 64
2, 113358, Note_on_c, 0, 71, 64
2, 113418, Note_off_c, 0, 71, 64
2, 113418, Note_off_c, 0, 49, 64
2, 113418, Note_on_c, 0, 73, 64
2, 113418, Note_on_c, 0, 46, 64
2, 113538, Note_off_c, 0, 46, 64
2, 113538, Note_on_c, 0, 49, 64
2, 113658, Note_off_c, 0, 49, 64
2, 113658, Note_on_c, 0, 46, 64
2, 113718, Note_off_c, 0, 64, 64
2, 113718, Note_on_c, 0, 67, 64
2, 113778, Note_off_c, 0, 67, 64
2, 113778, Note_off_c, 0, 46, 64
2, 113778, Note_on_c, 0, 66, 64
2, 113778, Note_on_c, 0, 50, 64
2, 113898, Note_off_c, 0, 50, 64
2, 113898, Note_off_c, 0, 73, 64
2, 113898, Note_on_c, 0, 74, 64
2, 113898, Note_on_c, 0, 54, 64
2, 113958, Note_off_c, 0, 74, 64
2, 113958, Note_on_c, 0, 73, 64
2, 114018, Note_off_c, 0, 73, 64
2, 114018, Note_off_c, 0, 54, 64
2, 114018, Note_on_c, 0, 71, 64
2, 114018, Note_on_c, 0, 50, 64
2, 114078, Note_off_c, 0, 71, 64
2, 114078, Note_on_c, 0, 73, 64
2, 114138, Note_off_c, 0, 73, 64
2, 114138, Note_off_c, 0, 50, 64
2, 114138, Note_on_c, 0, 74, 64
2, 114138, Note_on_c, 0, 47, 64
2, 114258, Note_off_c, 0, 47, 64
2, 114258, Note_on_c, 0, 50, 64
2, 114378, Note_off_c, 0, 50, 64
2, 114378, Note_on_c, 0, 47, 64
2, 114438, Note_off_c, 0, 66, 64
2, 114438, Note_on_c, 0, 69, 64
2, 114498, Note_off_c, 0, 69, 64
2, 114498, Note_off_c, 0, 47, 64
2, 114498, Note_on_c, 0, 67, 64
2, 114498, Note_on_c, 0, 52, 64
2, 114618, Note_off_c, 0, 52, 64
2, 114618, Note_off_c, 0, 74, 64
2, 114618, Note_on_c, 0, 76, 64
2, 114618, Note_on_c, 0, 55, 64
2, 114678, Note_off_c, 0, 76, 64
2, 114678, Note_on_c, 0, 74, 64
2, 114738, Note_off_c, 0, 74, 64
2, 114738, Note_off_c, 0, 55, 64
2, 114738, Note_on_c, 0, 73, 64
2, 114738, Note_on_c, 0, 52, 64
2, 114798, Note_off_c, 0, 73, 64
2, 114798, Note_on_c, 0, 74, 64
2, 114858, Note_off_c, 0, 74, 64
2, 114858, Note_off_c, 0, 52, 64
2, 114858, Note_on_c, 0, 76, 64
2, 114858, Note_on_c, 0, 49, 64
2, 114978, Note_off_c, 0, 49, 64
2, 114978, Note_on_c, 0, 52, 64
2, 115098, Note_off_c, 0, 52, 64
2, 115098, Note_on_c, 0, 49, 64
2, 115158, Note_off_c, 0, 67, 64
2, 115158, Note_on_c, 0, 71, 64
2, 115218, Note_off_c, 0, 71, 64
2, 115218, Note_off_c, 0, 49, 64
2, 115218, Note_on_c, 0, 70, 64
2, 115218, Note_on_c, 0, 54, 64
2, 115338, Note_off_c, 0, 70, 64
2, 115338, Note_off_c, 0, 76, 64
2, 115338, Note_on_c, 0, 79, 64
2, 115398, Note_off_c, 0, 79, 64
2, 115398, Note_on_c, 0, 78, 64
2, 115458, Note_off_c, 0, 78, 64
2, 115458, Note_off_c, 0, 54, 64
2, 115458, Note_on_c, 0, 76, 64
2, 115458, Note_on_c, 0, 59, 64
2, 115518, Note_off_c, 0, 76, 64
2, 115518, Note_on_c, 0, 75, 64
2, 115578, Note_off_c, 0, 75, 64
2, 115578, Note_off_c, 0, 59, 64
2, 115578, Note_on_c, 0, 76, 64
2, 115578, Note_on_c, 0, 58, 64
2, 115698, Note_off_c, 0, 58, 64
2, 115698, Note_off_c, 0, 76, 64
2, 115698, Note_on_c, 0, 79, 64
2, 115698, Note_on_c, 0, 59, 64
2, 115818, Note_off_c, 0, 59, 64
2, 115818, Note_off_c, 0, 79, 64
2, 115818, Note_on_c, 0, 75, 64
2, 115818, Note_on_c, 0, 61, 64
2, 115938, Note_off_c, 0, 61, 64
2, 115938, Note_off_c, 0, 75, 64
2, 115938, Note_on_c, 0, 76, 64
2, 115938, Note_on_c, 0, 73, 64
2, 115938, Note_on_c, 0, 54, 64
2, 116058, Note_off_c, 0, 73, 64
2, 116058, Note_off_c, 0, 76, 64
2, 116058, Note_on_c, 0, 79, 64
2, 116118, Note_off_c, 0, 79, 64
2, 116118, Note_on_c, 0, 78, 64
2, 116178, Note_off_c, 0, 78, 64
2, 116178, Note_off_c, 0, 54, 64
2, 116178, Note_on_c, 0, 76, 64
2, 116178, Note_on_c, 0, 59, 64
2, 116238, Note_off_c, 0, 76, 64
2, 116238, Note_on_c, 0, 75, 64
2, 116298, Note_off_c, 0, 75, 64
2, 116298, Note_off_c, 0, 59, 64
2, 116298, Note_on_c, 0, 76, 64
2, 116298, Note_on_c, 0, 58, 64
2, 116418, Note_off_c, 0, 76, 64
2, 116418, Note_on_c, 0, 78, 64
2, 116478, Note_off_c, 0, 78, 64
2, 116478, Note_on_c, 0, 76, 64
2, 116538, Note_off_c, 0, 76, 64
2, 116538, Note_off_c, 0, 58, 64
2, 116538, Note_on_c, 0, 59, 64
2, 116538, Note_on_c, 0, 75, 64
2, 116598, Note_off_c, 0, 75, 64
2, 116598, Note_on_c, 0, 73, 64
2, 116658, Note_off_c, 0, 73, 64
2, 116658, Note_off_c, 0, 59, 64
2, 116658, Note_on_c, 0, 75, 64
2, 116658, Note_on_c, 0, 47, 64
2, 116778, Note_off_c, 0, 75, 64
2, 116778, Note_on_c, 0, 72, 64
2, 116838, Note_off_c, 0, 72, 64
2, 116838, Note_on_c, 0, 71, 64
2, 116898, Note_off_c, 0, 71, 64
2, 116898, Note_off_c, 0, 47, 64
2, 116898, Note_on_c, 0, 69, 64
2, 116898, Note_on_c, 0, 64, 64
2, 116958, Note_off_c, 0, 69, 64
2, 116958, Note_on_c, 0, 68, 64
2, 117018, Note_off_c, 0, 68, 64
2, 117018, Note_off_c, 0, 64, 64
2, 117018, Note_on_c, 0, 69, 64
2, 117018, Note_on_c, 0, 63, 64
2, 117138, Note_off_c, 0, 63, 64
2, 117138, Note_off_c, 0, 69, 64
2, 117138, Note_on_c, 0, 72, 64
2, 117138, Note_on_c, 0, 64, 64
2, 117258, Note_off_c, 0, 64, 64
2, 117258, Note_off_c, 0, 72, 64
2, 117258, Note_on_c, 0, 68, 64
2, 117258, Note_on_c, 0, 66, 64
2, 117378, Note_off_c, 0, 66, 64
2, 117378, Note_off_c, 0, 68, 64
2, 117378, Note_on_c, 0, 78, 64
2, 117378, Note_on_c, 0, 69, 64
2, 117378, Note_on_c, 0, 59, 64
2, 117498, Note_off_c, 0, 69, 64
2, 117498, Note_off_c, 0, 78, 64
2, 117498, Note_on_c, 0, 72, 64
2, 117558, Note_off_c, 0, 72, 64
2, 117558, Note_on_c, 0, 71, 64
2, 117618, Note_off_c, 0, 71, 64
2, 117618, Note_off_c, 0, 59, 64
2, 117618, Note_on_c, 0, 69, 64
2, 117618, Note_on_c, 0, 64, 64
2, 117678, Note_off_c, 0, 69, 64
2, 117678, Note_on_c, 0, 68, 64
2, 117738, Note_off_c, 0, 68, 64
2, 117738, Note_off_c, 0, 64, 64
2, 117738, Note_on_c, 0, 69, 64
2, 117738, Note_on_c, 0, 63, 64
2, 117858, Note_off_c, 0, 63, 64
2, 117858, Note_off_c, 0, 69, 64
2, 117858, Note_on_c, 0, 64, 64
2, 117858, Note_on_c, 0, 71, 64
2, 117918, Note_off_c, 0, 71, 64
2, 117918, Note_on_c, 0, 69, 64
2, 117978, Note_off_c, 0, 69, 64
2, 117978, Note_on_c, 0, 67, 64
2, 118038, Note_off_c, 0, 67, 64
2, 118038, Note_on_c, 0, 66, 64
2, 118098, Note_off_c, 0, 66, 64
2, 118098, Note_off_c, 0, 64, 64
2, 118098, Note_on_c, 0, 67, 64
2, 118098, Note_on_c, 0, 52, 64
2, 118158, Note_off_c, 0, 52, 64
2, 118158, Note_on_c, 0, 71, 64
2, 118158, Note_on_c, 0, 55, 64
2, 118218, Note_off_c, 0, 55, 64
2, 118218, Note_off_c, 0, 71, 64
2, 118218, Note_off_c, 0, 67, 64
2, 118218, Note_on_c, 0, 73, 64
2, 118218, Note_on_c, 0, 57, 64
2, 118278, Note_off_c, 0, 57, 64
2, 118278, Note_off_c, 0, 73, 64
2, 118278, Note_on_c, 0, 75, 64
2, 118278, Note_on_c, 0, 59, 64
2, 118338, Note_off_c, 0, 59, 64
2, 118338, Note_off_c, 0, 75, 64
2, 118338, Note_on_c, 0, 76, 64
2, 118338, Note_on_c, 0, 61, 64
2, 118398, Note_off_c, 0, 61, 64
2, 118398, Note_off_c, 0, 76, 64
2, 118398, Note_on_c, 0, 78, 64
2, 118398, Note_on_c, 0, 63, 64
2, 118458, Note_off_c, 0, 63, 64
2, 118458, Note_off_c, 0, 78, 64
2, 118458, Note_on_c, 0, 79, 64
2, 118458, Note_on_c, 0, 64, 64
2, 118518, Note_off_c, 0, 79, 64
2, 118518, Note_on_c, 0, 78, 64
2, 118578, Note_off_c, 0, 78, 64
2, 118578, Note_off_c, 0, 64, 64
2, 118578, Note_on_c, 0, 76, 64
2, 118578, Note_on_c, 0, 67, 64
2, 118638, Note_off_c, 0, 76, 64
2, 118638, Note_on_c, 0, 74, 64
2, 118698, Note_off_c, 0, 74, 64
2, 118698, Note_off_c, 0, 67, 64
2, 118698, Note_on_c, 0, 73, 64
2, 118698, Note_on_c, 0, 64, 64
2, 118758, Note_off_c, 0, 73, 64
2, 118758, Note_on_c, 0, 71, 64
2, 118818, Note_off_c, 0, 71, 64
2, 118818, Note_off_c, 0, 64, 64
2, 118818, Note_on_c, 0, 76, 64
2, 118818, Note_on_c, 0, 61, 64
2, 118878, Note_off_c, 0, 76, 64
2, 118878, Note_on_c, 0, 74, 64
2, 118938, Note_off_c, 0, 74, 64
2, 118938, Note_off_c, 0, 61, 64
2, 118938, Note_on_c, 0, 73, 64
2, 118938, Note_on_c, 0, 64, 64
2, 118998, Note_off_c, 0, 73, 64
2, 118998, Note_on_c, 0, 71, 64
2, 119058, Note_off_c, 0, 71, 64
2, 119058, Note_off_c, 0, 64, 64
2, 119058, Note_on_c, 0, 69, 64
2, 119058, Note_on_c, 0, 61, 64
2, 119118, Note_off_c, 0, 69, 64
2, 119118, Note_on_c, 0, 68, 64
2, 119178, Note_off_c, 0, 68, 64
2, 119178, Note_off_c, 0, 61, 64
2, 119178, Note_on_c, 0, 73, 64
2, 119178, Note_on_c, 0, 57, 64
2, 119238, Note_off_c, 0, 73, 64
2, 119238, Note_on_c, 0, 71, 64
2, 119298, Note_off_c, 0, 71, 64
2, 119298, Note_off_c, 0, 57, 64
2, 119298, Note_on_c, 0, 69, 64
2, 119298, Note_on_c, 0, 61, 64
2, 119358, Note_off_c, 0, 69, 64
2, 119358, Note_on_c, 0, 67, 64
2, 119418, Note_off_c, 0, 67, 64
2, 119418, Note_off_c, 0, 61, 64
2, 119418, Note_on_c, 0, 57, 64
2, 119418, Note_on_c, 0, 66, 64
2, 119478, Note_off_c, 0, 66, 64
2, 119478, Note_on_c, 0, 64, 64
2, 119538, Note_off_c, 0, 64, 64
2, 119538, Note_off_c, 0, 57, 64
2, 119538, Note_on_c, 0, 66, 64
2, 119538, Note_on_c, 0, 50, 64
2, 119598, Note_off_c, 0, 50, 64
2, 119598, Note_off_c, 0, 66, 64
2, 119598, Note_on_c, 0, 69, 64
2, 119598, Note_on_c, 0, 54, 64
2, 119658, Note_off_c, 0, 54, 64
2, 119658, Note_off_c, 0, 69, 64
2, 119658, Note_on_c, 0, 71, 64
2, 119658, Note_on_c, 0, 55, 64
2, 119718, Note_off_c, 0, 55, 64
2, 119718, Note_off_c, 0, 71, 64
2, 119718, Note_on_c, 0, 73, 64
2, 119718, Note_on_c, 0, 57, 64
2, 119778, Note_off_c, 0, 57, 64
2, 119778, Note_off_c, 0, 73, 64
2, 119778, Note_on_c, 0, 74, 64
2, 119778, Note_on_c, 0, 59, 64
2, 119838, Note_off_c, 0, 59, 64
2, 119838, Note_off_c, 0, 74, 64
2, 119838, Note_on_c, 0, 76, 64
2, 119838, Note_on_c, 0, 61, 64
2, 119898, Note_off_c, 0, 61, 64
2, 119898, Note_off_c, 0, 76, 64
2, 119898, Note_on_c, 0, 78, 64
2, 119898, Note_on_c, 0, 62, 64
2, 119958, Note_off_c, 0, 78, 64
2, 119958, Note_on_c, 0, 76, 64
2, 120018, Note_off_c, 0, 76, 64
2, 120018, Note_on_c, 0, 74, 64
2, 120078, Note_off_c, 0, 74, 64
2, 120078, Note_on_c, 0, 73, 64
2, 120138, Note_off_c, 0, 73, 64
2, 120138, Note_on_c, 0, 71, 64
2, 120198, Note_off_c, 0, 71, 64
2, 120198, Note_on_c, 0, 69, 64
2, 120258, Note_off_c, 0, 69, 64
2, 120258, Note_on_c, 0, 68, 64
2, 120318, Note_off_c, 0, 68, 64
2, 120318, Note_on_c, 0, 71, 64
2, 120378, Note_off_c, 0, 71, 64
2, 120378, Note_off_c, 0, 62, 64
2, 120378, Note_on_c, 0, 76, 64
2, 120378, Note_on_c, 0, 61, 64
2, 120438, Note_off_c, 0, 76, 64
2, 120438, Note_on_c, 0, 74, 64
2, 120498, Note_off_c, 0, 74, 64
2, 120498, Note_off_c, 0, 61, 64
2, 120498, Note_on_c, 0, 76, 64
2, 120498, Note_on_c, 0, 59, 64
2, 120558, Note_on_c, 0, 67, 64
2, 120618, Note_off_c, 0, 67, 64
2, 120618, Note_off_c, 0, 59, 64
2, 120618, Note_on_c, 0, 66, 64
2, 120618, Note_on_c, 0, 58, 64
2, 120678, Note_off_c, 0, 58, 64
2, 120678, Note_off_c, 0, 76, 64
2, 120678, Note_on_c, 0, 70, 64
2, 120678, Note_on_c, 0, 61, 64
2, 120738, Note_off_c, 0, 61, 64
2, 120738, Note_off_c, 0, 70, 64
2, 120738, Note_on_c, 0, 73, 64
2, 120738, Note_on_c, 0, 59, 64
2, 120798, Note_off_c, 0, 59, 64
2, 120798, Note_on_c, 0, 74, 64
2, 120798, Note_on_c, 0, 58, 64
2, 120858, Note_off_c, 0, 58, 64
2, 120858, Note_off_c, 0, 74, 64
2, 120858, Note_on_c, 0, 76, 64
2, 120858, Note_on_c, 0, 56, 64
2, 120918, Note_off_c, 0, 56, 64
2, 120918, Note_on_c, 0, 54, 64
2, 120978, Note_off_c, 0, 54, 64
2, 120978, Note_on_c, 0, 59, 64
2, 121028, Note_off_c, 0, 66, 64
2, 121041, Note_off_c, 0, 76, 64
2, 121041, Note_off_c, 0, 73, 64
2, 121041, Note_on_c, 0, 66, 64
2, 121101, Note_off_c, 0, 66, 64
2, 121101, Note_off_c, 0, 59, 64
2, 121101, Note_on_c, 0, 68, 64
2, 121101, Note_on_c, 0, 54, 64
2, 121161, Note_off_c, 0, 68, 64
2, 121161, Note_on_c, 0, 70, 64
2, 121221, Note_off_c, 0, 70, 64
2, 121221, Note_off_c, 0, 54, 64
2, 121221, Note_on_c, 0, 71, 64
2, 121221, Note_on_c, 0, 50, 64
2, 121281, Note_off_c, 0, 71, 64
2, 121281, Note_on_c, 0, 73, 64
2, 121341, Note_off_c, 0, 73, 64
2, 121341, Note_off_c, 0, 50, 64
2, 121341, Note_on_c, 0, 74, 64
2, 121341, Note_on_c, 0, 47, 64
2, 121401, Note_off_c, 0, 74, 64
2, 121401, Note_on_c, 0, 73, 64
2, 121461, Note_off_c, 0, 73, 64
2, 121461, Note_off_c, 0, 47, 64
2, 121461, Note_on_c, 0, 71, 64
2, 121461, Note_on_c, 0, 49, 64
2, 121521, Note_off_c, 0, 49, 64
2, 121521, Note_off_c, 0, 71, 64
2, 121521, Note_on_c, 0, 69, 64
2, 121521, Note_on_c, 0, 50, 64
2, 121581, Note_off_c, 0, 50, 64
2, 121581, Note_off_c, 0, 69, 64
2, 121581, Note_on_c, 0, 67, 64
2, 121581, Note_on_c, 0, 52, 64
2, 121641, Note_off_c, 0, 52, 64
2, 121641, Note_off_c, 0, 67, 64
2, 121641, Note_on_c, 0, 66, 64
2, 121641, Note_on_c, 0, 54, 64
2, 121701, Note_off_c, 0, 54, 64
2, 121701, Note_off_c, 0, 66, 64
2, 121701, Note_on_c, 0, 71, 64
2, 121701, Note_on_c, 0, 55, 64
2, 121761, Note_off_c, 0, 55, 64
2, 121761, Note_off_c, 0, 71, 64
2, 121761, Note_on_c, 0, 69, 64
2, 121761, Note_on_c, 0, 57, 64
2, 121821, Note_off_c, 0, 57, 64
2, 121821, Note_off_c, 0, 69, 64
2, 121821, Note_on_c, 0, 67, 64
2, 121821, Note_on_c, 0, 59, 64
2, 121881, Note_off_c, 0, 59, 64
2, 121881, Note_off_c, 0, 67, 64
2, 121881, Note_on_c, 0, 66, 64
2, 121881, Note_on_c, 0, 57, 64
2, 121941, Note_off_c, 0, 57, 64
2, 121941, Note_off_c, 0, 66, 64
2, 121941, Note_on_c, 0, 64, 64
2, 121941, Note_on_c, 0, 55, 64
2, 122001, Note_off_c, 0, 55, 64
2, 122001, Note_off_c, 0, 64, 64
2, 122001, Note_on_c, 0, 62, 64
2, 122001, Note_on_c, 0, 54, 64
2, 122061, Note_off_c, 0, 54, 64
2, 122061, Note_off_c, 0, 62, 64
2, 122061, Note_on_c, 0, 67, 64
2, 122061, Note_on_c, 0, 52, 64
2, 122121, Note_off_c, 0, 52, 64
2, 122121, Note_off_c, 0, 67, 64
2, 122121, Note_on_c, 0, 66, 64
2, 122121, Note_on_c, 0, 54, 64
2, 122181, Note_off_c, 0, 54, 64
2, 122181, Note_off_c, 0, 66, 64
2, 122181, Note_on_c, 0, 64, 64
2, 122181, Note_on_c, 0, 55, 64
2, 122241, Note_off_c, 0, 55, 64
2, 122241, Note_off_c, 0, 64, 64
2, 122241, Note_on_c, 0, 62, 64
2, 122241, Note_on_c, 0, 54, 64
2, 122301, Note_off_c, 0, 54, 64
2, 122301, Note_off_c, 0, 62, 64
2, 122301, Note_on_c, 0, 61, 64
2, 122301, Note_on_c, 0, 55, 64
2, 122361, Note_off_c, 0, 55, 64
2, 122361, Note_off_c, 0, 61, 64
2, 122361, Note_on_c, 0, 52, 64
2, 122361, Note_on_c, 0, 64, 64
2, 122421, Note_off_c, 0, 64, 64
2, 122421, Note_off_c, 0, 52, 64
2, 122421, Note_on_c, 0, 58, 64
2, 122421, Note_on_c, 0, 54, 64
2, 122541, Note_off_c, 0, 58, 64
2, 122541, Note_on_c, 0, 79, 64
2, 122601, Note_off_c, 0, 79, 64
2, 122601, Note_on_c, 0, 78, 64
2, 122661, Note_off_c, 0, 78, 64
2, 122661, Note_off_c, 0, 54, 64
2, 122661, Note_on_c, 0, 76, 64
2, 122661, Note_on_c, 0, 42, 64
2, 122721, Note_off_c, 0, 76, 64
2, 122721, Note_on_c, 0, 74, 64
2, 122781, Note_off_c, 0, 74, 64
2, 122781, Note_off_c, 0, 42, 64
2, 122781, Note_on_c, 0, 73, 64
2, 122781, Note_on_c, 0, 70, 64
2, 122781, Note_on_c, 0, 42, 64
2, 122901, Note_off_c, 0, 73, 64
2, 122901, Note_on_c, 0, 76, 64
2, 123021, Note_off_c, 0, 76, 64
2, 123021, Note_off_c, 0, 42, 64
2, 123021, Note_on_c, 0, 73, 64
2, 123021, Note_on_c, 0, 42, 64
2, 123141, Note_off_c, 0, 42, 64
2, 123141, Note_off_c, 0, 73, 64
2, 123141, Note_on_c, 0, 70, 64
2, 123141, Note_on_c, 0, 64, 64
2, 123141, Note_on_c, 0, 42, 64
2, 123142, Note_off_c, 0, 70, 64
2, 123261, Note_off_c, 0, 70, 64
2, 123261, Note_on_c, 0, 73, 64
2, 123381, Note_off_c, 0, 73, 64
2, 123381, Note_on_c, 0, 70, 64
2, 123501, Note_off_c, 0, 70, 64
2, 123501, Note_off_c, 0, 42, 64
2, 123501, Note_off_c, 0, 64, 64
2, 123501, Note_on_c, 0, 61, 64
2, 123501, Note_on_c, 0, 64, 64
2, 123621, Note_off_c, 0, 64, 64
2, 123621, Note_on_c, 0, 70, 64
2, 123681, Note_on_c, 0, 49, 64
2, 123741, Note_off_c, 0, 49, 64
2, 123741, Note_off_c, 0, 70, 64
2, 123741, Note_on_c, 0, 64, 64
2, 123741, Note_on_c, 0, 50, 64
2, 123801, Note_off_c, 0, 50, 64
2, 123801, Note_on_c, 0, 52, 64
2, 123861, Note_off_c, 0, 52, 64
2, 123861, Note_off_c, 0, 64, 64
2, 123861, Note_on_c, 0, 62, 64
2, 123861, Note_on_c, 0, 54, 64
2, 123981, Note_off_c, 0, 62, 64
2, 123981, Note_off_c, 0, 61, 64
2, 123981, Note_on_c, 0, 59, 64
2, 124041, Note_off_c, 0, 59, 64
2, 124041, Note_on_c, 0, 61, 64
2, 124101, Note_off_c, 0, 61, 64
2, 124101, Note_off_c, 0, 54, 64
2, 124101, Note_on_c, 0, 62, 64
2, 124101, Note_on_c, 0, 42, 64
2, 124161, Note_off_c, 0, 62, 64
2, 124161, Note_on_c, 0, 64, 64
2, 124221, Note_off_c, 0, 64, 64
2, 124221, Note_off_c, 0, 42, 64
2, 124221, Note_on_c, 0, 71, 64
2, 124221, Note_on_c, 0, 66, 64
2, 124221, Note_on_c, 0, 42, 64
2, 124341, Note_off_c, 0, 66, 64
2, 124341, Note_on_c, 0, 62, 64
2, 124461, Note_off_c, 0, 62, 64
2, 124461, Note_off_c, 0, 42, 64
2, 124461, Note_on_c, 0, 66, 64
2, 124461, Note_on_c, 0, 42, 64
2, 124581, Note_off_c, 0, 42, 64
2, 124581, Note_off_c, 0, 66, 64
2, 124581, Note_off_c, 0, 71, 64
2, 124581, Note_on_c, 0, 74, 64
2, 124581, Note_on_c, 0, 71, 64
2, 124581, Note_on_c, 0, 42, 64
2, 124701, Note_off_c, 0, 71, 64
2, 124701, Note_on_c, 0, 66, 64
2, 124821, Note_off_c, 0, 66, 64
2, 124821, Note_on_c, 0, 71, 64
2, 124941, Note_off_c, 0, 71, 64
2, 124941, Note_off_c, 0, 42, 64
2, 124941, Note_off_c, 0, 74, 64
2, 124941, Note_on_c, 0, 77, 64
2, 124941, Note_on_c, 0, 74, 64
2, 125061, Note_off_c, 0, 74, 64
2, 125061, Note_on_c, 0, 71, 64
2, 125181, Note_off_c, 0, 71, 64
2, 125181, Note_on_c, 0, 74, 64
2, 125301, Note_off_c, 0, 74, 64
2, 125301, Note_off_c, 0, 77, 64
2, 125301, Note_on_c, 0, 73, 64
2, 125301, Note_on_c, 0, 78, 64
2, 125421, Note_off_c, 0, 73, 64
2, 125421, Note_on_c, 0, 70, 64
2, 125481, Note_on_c, 0, 50, 64
2, 125541, Note_off_c, 0, 50, 64
2, 125541, Note_off_c, 0, 70, 64
2, 125541, Note_off_c, 0, 78, 64
2, 125541, Note_on_c, 0, 73, 64
2, 125541, Note_on_c, 0, 76, 64
2, 125541, Note_on_c, 0, 52, 64
2, 125601, Note_off_c, 0, 52, 64
2, 125601, Note_on_c, 0, 54, 64
2, 125661, Note_off_c, 0, 54, 64
2, 125661, Note_off_c, 0, 76, 64
2, 125661, Note_off_c, 0, 73, 64
2, 125661, Note_on_c, 0, 71, 64
2, 125661, Note_on_c, 0, 74, 64
2, 125661, Note_on_c, 0, 55, 64
2, 125781, Note_off_c, 0, 55, 64
2, 125781, Note_on_c, 0, 54, 64
2, 125901, Note_off_c, 0, 54, 64
2, 125901, Note_off_c, 0, 74, 64
2, 125901, Note_on_c, 0, 79, 64
2, 125901, Note_on_c, 0, 52, 64
2, 126021, Note_off_c, 0, 52, 64
2, 126021, Note_off_c, 0, 79, 64
2, 126021, Note_off_c, 0, 71, 64
2, 126021, Note_on_c, 0, 71, 64
2, 126021, Note_on_c, 0, 74, 64
2, 126021, Note_on_c, 0, 54, 64
2, 126381, Note_off_c, 0, 54, 64
2, 126381, Note_off_c, 0, 74, 64
2, 126381, Note_off_c, 0, 71, 64
2, 126381, Note_on_c, 0, 74, 64
2, 126381, Note_on_c, 0, 70, 64
2, 126381, Note_on_c, 0, 42, 64
2, 126411, Note_off_c, 0, 74, 64
2, 126413, Note_on_c, 0, 73, 64
2, 126443, Note_off_c, 0, 73, 64
2, 126445, Note_on_c, 0, 74, 64
2, 126471, Note_on_c, 0, 73, 64
2, 126475, Note_off_c, 0, 74, 64
2, 126501, Note_off_c, 0, 73, 64
2, 126501, Note_on_c, 0, 71, 64
2, 126621, Note_off_c, 0, 71, 64
2, 126621, Note_on_c, 0, 73, 64
2, 126741, Note_off_c, 0, 73, 64
2, 126741, Note_off_c, 0, 42, 64
2, 126741, Note_off_c, 0, 70, 64
2, 126741, Note_on_c, 0, 71, 64
2, 126741, Note_on_c, 0, 47, 64
2, 126861, Note_off_c, 0, 71, 64
2, 126861, Note_on_c, 0, 74, 64
2, 126921, Note_off_c, 0, 74, 64
2, 126921, Note_on_c, 0, 73, 64
2, 126981, Note_off_c, 0, 73, 64
2, 126981, Note_off_c, 0, 47, 64
2, 126981, Note_on_c, 0, 71, 64
2, 126981, Note_on_c, 0, 54, 64
2, 127041, Note_off_c, 0, 71, 64
2, 127041, Note_on_c, 0, 69, 64
2, 127101, Note_off_c, 0, 69, 64
2, 127101, Note_off_c, 0, 54, 64
2, 127101, Note_on_c, 0, 59, 64
2, 127101, Note_on_c, 0, 67, 64
2, 127131, Note_off_c, 0, 59, 64
2, 127133, Note_on_c, 0, 57, 64
2, 127161, Note_on_c, 0, 59, 64
2, 127163, Note_off_c, 0, 57, 64
2, 127221, Note_off_c, 0, 67, 64
2, 127221, Note_on_c, 0, 71, 64
2, 127281, Note_off_c, 0, 71, 64
2, 127281, Note_on_c, 0, 69, 64
2, 127341, Note_off_c, 0, 69, 64
2, 127341, Note_on_c, 0, 67, 64
2, 127401, Note_off_c, 0, 67, 64
2, 127401, Note_on_c, 0, 66, 64
2, 127461, Note_off_c, 0, 66, 64
2, 127461, Note_on_c, 0, 64, 64
2, 127581, Note_off_c, 0, 64, 64
2, 127581, Note_off_c, 0, 59, 64
2, 127581, Note_on_c, 0, 67, 64
2, 127581, Note_on_c, 0, 60, 64
2, 127641, Note_off_c, 0, 60, 64
2, 127641, Note_on_c, 0, 59, 64
2, 127701, Note_off_c, 0, 59, 64
2, 127701, Note_off_c, 0, 67, 64
2, 127701, Note_on_c, 0, 72, 64
2, 127701, Note_on_c, 0, 57, 64
2, 127761, Note_off_c, 0, 57, 64
2, 127761, Note_on_c, 0, 55, 64
2, 127821, Note_off_c, 0, 55, 64
2, 127821, Note_off_c, 0, 72, 64
2, 127821, Note_on_c, 0, 72, 64
2, 127821, Note_on_c, 0, 54, 64
2, 127941, Note_off_c, 0, 54, 64
2, 127941, Note_on_c, 0, 69, 64
2, 127941, Note_on_c, 0, 55, 64
2, 128001, Note_off_c, 0, 55, 64
2, 128001, Note_on_c, 0, 54, 64
2, 128061, Note_off_c, 0, 54, 64
2, 128061, Note_off_c, 0, 69, 64
2, 128061, Note_on_c, 0, 66, 64
2, 128061, Note_on_c, 0, 52, 64
2, 128121, Note_off_c, 0, 52, 64
2, 128121, Note_on_c, 0, 50, 64
2, 128181, Note_off_c, 0, 50, 64
2, 128181, Note_off_c, 0, 66, 64
2, 128181, Note_on_c, 0, 62, 64
2, 128181, Note_on_c, 0, 55, 64
2, 128241, Note_off_c, 0, 55, 64
2, 128241, Note_on_c, 0, 57, 64
2, 128301, Note_off_c, 0, 57, 64
2, 128301, Note_off_c, 0, 62, 64
2, 128301, Note_on_c, 0, 67, 64
2, 128301, Note_on_c, 0, 59, 64
2, 128361, Note_off_c, 0, 59, 64
2, 128361, Note_on_c, 0, 55, 64
2, 128421, Note_off_c, 0, 55, 64
2, 128421, Note_off_c, 0, 72, 64
2, 128421, Note_on_c, 0, 71, 64
2, 128421, Note_on_c, 0, 54, 64
2, 128481, Note_off_c, 0, 54, 64
2, 128481, Note_on_c, 0, 55, 64
2, 128541, Note_off_c, 0, 55, 64
2, 128541, Note_off_c, 0, 71, 64
2, 128541, Note_on_c, 0, 71, 64
2, 128541, Note_on_c, 0, 49, 64
2, 128601, Note_off_c, 0, 67, 64
2, 128601, Note_on_c, 0, 69, 64
2, 128661, Note_off_c, 0, 69, 53
2, 128661, Note_off_c, 0, 49, 64
2, 128661, Note_on_c, 0, 67, 64
2, 128661, Note_on_c, 0, 52, 64
2, 128721, Note_off_c, 0, 67, 29
2, 128721, Note_on_c, 0, 66, 64
2, 128781, Note_off_c, 0, 66, 47
2, 128781, Note_off_c, 0, 52, 64
2, 128781, Note_on_c, 0, 64, 64
2, 128781, Note_on_c, 0, 49, 64
2, 128841, Note_off_c, 0, 64, 36
2, 128841, Note_on_c, 0, 62, 64
2, 128901, Note_off_c, 0, 62, 24
2, 128901, Note_off_c, 0, 49, 64
2, 128901, Note_on_c, 0, 61, 64
2, 128901, Note_on_c, 0, 54, 64
2, 128961, Note_off_c, 0, 54, 64
2, 128961, Note_on_c, 0, 55, 64
2, 129021, Note_off_c, 0, 55, 64
2, 129021, Note_off_c, 0, 61, 64
2, 129021, Note_on_c, 0, 66, 64
2, 129021, Note_on_c, 0, 57, 64
2, 129081, Note_off_c, 0, 57, 64
2, 129081, Note_on_c, 0, 54, 64
2, 129141, Note_off_c, 0, 54, 64
2, 129141, Note_off_c, 0, 71, 64
2, 129141, Note_on_c, 0, 69, 64
2, 129141, Note_on_c, 0, 52, 64
2, 129201, Note_off_c, 0, 52, 64
2, 129201, Note_on_c, 0, 54, 64
2, 129261, Note_off_c, 0, 54, 64
2, 129261, Note_off_c, 0, 69, 64
2, 129261, Note_on_c, 0, 69, 64
2, 129261, Note_on_c, 0, 47, 64
2, 129321, Note_off_c, 0, 66, 64
2, 129321, Note_on_c, 0, 67, 64
2, 129381, Note_off_c, 0, 67, 49
2, 129381, Note_off_c, 0, 47, 64
2, 129381, Note_on_c, 0, 66, 64
2, 129381, Note_on_c, 0, 50, 64
2, 129441, Note_off_c, 0, 66, 58
2, 129441, Note_on_c, 0, 64, 64
2, 129501, Note_off_c, 0, 64, 16
2, 129501, Note_off_c, 0, 50, 64
2, 129501, Note_on_c, 0, 62, 64
2, 129501, Note_on_c, 0, 47, 64
2, 129561, Note_off_c, 0, 62, 43
2, 129561, Note_on_c, 0, 61, 64
2, 129621, Note_off_c, 0, 61, 45
2, 129621, Note_off_c, 0, 47, 64
2, 129621, Note_on_c, 0, 59, 64
2, 129621, Note_on_c, 0, 52, 64
2, 129681, Note_off_c, 0, 52, 64
2, 129681, Note_on_c, 0, 54, 64
2, 129741, Note_off_c, 0, 54, 64
2, 129741, Note_off_c, 0, 59, 27
2, 129741, Note_on_c, 0, 64, 64
2, 129741, Note_on_c, 0, 55, 64
2, 129801, Note_off_c, 0, 55, 64
2, 129801, Note_on_c, 0, 52, 64
2, 129861, Note_off_c, 0, 52, 64
2, 129861, Note_off_c, 0, 69, 64
2, 129861, Note_on_c, 0, 67, 64
2, 129861, Note_on_c, 0, 50, 64
2, 129921, Note_off_c, 0, 50, 64
2, 129921, Note_on_c, 0, 52, 64
2, 129981, Note_off_c, 0, 52, 64
2, 129981, Note_off_c, 0, 67, 64
2, 129981, Note_on_c, 0, 67, 64
2, 129981, Note_on_c, 0, 45, 64
2, 130041, Note_off_c, 0, 64, 19
2, 130041, Note_on_c, 0, 66, 64
2, 130101, Note_off_c, 0, 66, 66
2, 130101, Note_off_c, 0, 45, 64
2, 130101, Note_on_c, 0, 64, 64
2, 130101, Note_on_c, 0, 49, 64
2, 130161, Note_off_c, 0, 64, 43
2, 130161, Note_on_c, 0, 62, 64
2, 130221, Note_off_c, 0, 62, 49
2, 130221, Note_off_c, 0, 49, 64
2, 130221, Note_on_c, 0, 61, 64
2, 130221, Note_on_c, 0, 45, 64
2, 130281, Note_off_c, 0, 61, 48
2, 130281, Note_on_c, 0, 59, 64
2, 130341, Note_off_c, 0, 59, 43
2, 130341, Note_off_c, 0, 45, 64
2, 130341, Note_on_c, 0, 57, 64
2, 130341, Note_on_c, 0, 50, 64
2, 130401, Note_off_c, 0, 50, 64
2, 130401, Note_on_c, 0, 52, 64
2, 130461, Note_off_c, 0, 52, 64
2, 130461, Note_off_c, 0, 57, 52
2, 130461, Note_on_c, 0, 62, 64
2, 130461, Note_on_c, 0, 54, 64
2, 130521, Note_off_c, 0, 54, 64
2, 130521, Note_on_c, 0, 50, 64
2, 130581, Note_off_c, 0, 50, 64
2, 130581, Note_off_c, 0, 67, 64
2, 130581, Note_on_c, 0, 66, 64
2, 130581, Note_on_c, 0, 49, 64
2, 130641, Note_off_c, 0, 49, 64
2, 130641, Note_on_c, 0, 50, 64
2, 130701, Note_off_c, 0, 50, 64
2, 130701, Note_on_c, 0, 47, 64
2, 130761, Note_off_c, 0, 47, 64
2, 130761, Note_on_c, 0, 48, 64
2, 130821, Note_off_c, 0, 48, 64
2, 130821, Note_off_c, 0, 66, 64
2, 130821, Note_on_c, 0, 66, 64
2, 130821, Note_on_c, 0, 50, 64
2, 130881, Note_off_c, 0, 50, 64
2, 130881, Note_on_c, 0, 47, 64
2, 130941, Note_off_c, 0, 47, 64
2, 130941, Note_off_c, 0, 66, 64
2, 130941, Note_on_c, 0, 72, 64
2, 130941, Note_on_c, 0, 45, 64
2, 131001, Note_off_c, 0, 45, 64
2, 131001, Note_on_c, 0, 47, 64
2, 131061, Note_off_c, 0, 47, 64
2, 131061, Note_off_c, 0, 72, 64
2, 131061, Note_on_c, 0, 71, 64
2, 131061, Note_on_c, 0, 43, 64
2, 131121, Note_off_c, 0, 43, 64
2, 131121, Note_on_c, 0, 45, 64
2, 131181, Note_off_c, 0, 45, 64
2, 131181, Note_off_c, 0, 62, 30
2, 131181, Note_on_c, 0, 67, 64
2, 131181, Note_on_c, 0, 47, 64
2, 131241, Note_off_c, 0, 47, 64
2, 131241, Note_off_c, 0, 67, 35
2, 131241, Note_on_c, 0, 66, 64
2, 131241, Note_on_c, 0, 45, 64
2, 131301, Note_off_c, 0, 45, 64
2, 131301, Note_off_c, 0, 66, 53
2, 131301, Note_on_c, 0, 64, 64
2, 131301, Note_on_c, 0, 43, 64
2, 131361, Note_off_c, 0, 43, 64
2, 131361, Note_off_c, 0, 64, 30
2, 131361, Note_on_c, 0, 62, 64
2, 131361, Note_on_c, 0, 42, 64
2, 131421, Note_off_c, 0, 42, 64
2, 131421, Note_off_c, 0, 62, 33
2, 131421, Note_on_c, 0, 67, 64
2, 131421, Note_on_c, 0, 40, 64
2, 131481, Note_off_c, 0, 40, 64
2, 131481, Note_on_c, 0, 42, 64
2, 131541, Note_off_c, 0, 42, 64
2, 131541, Note_off_c, 0, 67, 30
2, 131541, Note_off_c, 0, 71, 64
2, 131541, Note_on_c, 0, 64, 64
2, 131541, Note_on_c, 0, 73, 64
2, 131541, Note_on_c, 0, 43, 64
2, 131601, Note_off_c, 0, 43, 64
2, 131601, Note_on_c, 0, 42, 64
2, 131661, Note_off_c, 0, 42, 64
2, 131661, Note_off_c, 0, 73, 64
2, 131661, Note_off_c, 0, 64, 27
2, 131661, Note_on_c, 0, 66, 64
2, 131661, Note_on_c, 0, 74, 64
2, 131661, Note_on_c, 0, 40, 64
2, 131721, Note_off_c, 0, 40, 64
2, 131721, Note_on_c, 0, 38, 64
2, 131781, Note_off_c, 0, 38, 64
2, 131781, Note_on_c, 0, 45, 64
2, 131901, Note_off_c, 0, 74, 64
2, 131901, Note_off_c, 0, 66, 57
2, 131901, Note_on_c, 0, 62, 64
2, 131901, Note_on_c, 0, 71, 64
2, 132021, Note_off_c, 0, 71, 64
2, 132021, Note_off_c, 0, 62, 27
2, 132021, Note_on_c, 0, 64, 64
2, 132021, Note_on_c, 0, 73, 64
2, 132141, Note_off_c, 0, 73, 64
2, 132141, Note_off_c, 0, 64, 31
2, 132141, Note_on_c, 0, 67, 64
2, 132141, Note_on_c, 0, 76, 64
2, 132201, Note_off_c, 0, 45, 64
2, 132201, Note_on_c, 0, 44, 64
2, 132261, Note_off_c, 0, 44, 64
2, 132261, Note_on_c, 0, 46, 64
2, 132321, Note_off_c, 0, 46, 64
2, 132321, Note_on_c, 0, 47, 64
2, 132381, Note_off_c, 0, 47, 64
2, 132381, Note_on_c, 0, 49, 64
2, 132441, Note_off_c, 0, 49, 64
2, 132441, Note_on_c, 0, 46, 64
2, 132501, Note_off_c, 0, 46, 64
2, 132501, Note_on_c, 0, 47, 64
2, 132621, Note_off_c, 0, 76, 64
2, 132621, Note_off_c, 0, 67, 43
2, 132621, Note_on_c, 0, 64, 64
2, 132621, Note_on_c, 0, 73, 64
2, 132741, Note_off_c, 0, 73, 64
2, 132741, Note_off_c, 0, 64, 26
2, 132741, Note_on_c, 0, 66, 64
2, 132741, Note_on_c, 0, 74, 64
2, 132861, Note_off_c, 0, 74, 64
2, 132861, Note_off_c, 0, 66, 41
2, 132861, Note_on_c, 0, 71, 64
2, 132861, Note_on_c, 0, 79, 64
2, 132921, Note_off_c, 0, 47, 64
2, 132921, Note_on_c, 0, 45, 64
2, 132981, Note_off_c, 0, 45, 64
2, 132981, Note_on_c, 0, 47, 64
2, 133041, Note_off_c, 0, 47, 64
2, 133041, Note_on_c, 0, 50, 64
2, 133101, Note_off_c, 0, 50, 64
2, 133101, Note_on_c, 0, 49, 64
2, 133161, Note_off_c, 0, 49, 64
2, 133161, Note_on_c, 0, 52, 64
2, 133221, Note_off_c, 0, 52, 64
2, 133221, Note_on_c, 0, 50, 64
2, 133341, Note_off_c, 0, 79, 64
2, 133341, Note_off_c, 0, 71, 48
2, 133341, Note_on_c, 0, 69, 64
2, 133341, Note_on_c, 0, 78, 64
2, 133461, Note_off_c, 0, 78, 64
2, 133461, Note_off_c, 0, 69, 41
2, 133461, Note_on_c, 0, 67, 64
2, 133461, Note_on_c, 0, 76, 64
2, 133581, Note_off_c, 0, 76, 64
2, 133581, Note_off_c, 0, 67, 45
2, 133581, Note_on_c, 0, 69, 64
2, 133581, Note_on_c, 0, 78, 64
2, 133641, Note_off_c, 0, 50, 64
2, 133641, Note_on_c, 0, 52, 64
2, 133701, Note_off_c, 0, 52, 64
2, 133701, Note_on_c, 0, 50, 64
2, 133761, Note_off_c, 0, 50, 64
2, 133761, Note_on_c, 0, 48, 64
2, 133821, Note_off_c, 0, 48, 64
2, 133821, Note_on_c, 0, 47, 64
2, 133881, Note_off_c, 0, 47, 64
2, 133881, Note_on_c, 0, 45, 64
2, 133941, Note_off_c, 0, 45, 64
2, 133941, Note_on_c, 0, 43, 64
2, 134001, Note_off_c, 0, 43, 64
2, 134001, Note_on_c, 0, 50, 64
2, 134061, Note_off_c, 0, 50, 64
2, 134061, Note_off_c, 0, 78, 64
2, 134061, Note_off_c, 0, 69, 58
2, 134061, Note_on_c, 0, 67, 64
2, 134061, Note_on_c, 0, 76, 64
2, 134061, Note_on_c, 0, 52, 64
2, 134121, Note_off_c, 0, 52, 64
2, 134121, Note_on_c, 0, 54, 64
2, 134181, Note_off_c, 0, 54, 64
2, 134181, Note_off_c, 0, 76, 64
2, 134181, Note_off_c, 0, 67, 43
2, 134181, Note_on_c, 0, 66, 64
2, 134181, Note_on_c, 0, 74, 64
2, 134181, Note_on_c, 0, 55, 64
2, 134241, Note_off_c, 0, 55, 64
2, 134241, Note_on_c, 0, 57, 64
2, 134301, Note_off_c, 0, 57, 64
2, 134301, Note_off_c, 0, 74, 64
2, 134301, Note_off_c, 0, 66, 51
2, 134301, Note_on_c, 0, 67, 64
2, 134301, Note_on_c, 0, 76, 64
2, 134301, Note_on_c, 0, 58, 64
2, 134421, Note_off_c, 0, 76, 64
2, 134421, Note_off_c, 0, 67, 35
2, 134421, Note_on_c, 0, 64, 64
2, 134421, Note_on_c, 0, 73, 64
2, 134541, Note_off_c, 0, 73, 64
2, 134541, Note_off_c, 0, 64, 35
2, 134541, Note_on_c, 0, 74, 64
2, 134541, Note_on_c, 0, 66, 64
2, 134651, Note_off_c, 0, 74, 64
2, 134664, Note_off_c, 0, 66, 52
2, 134664, Note_on_c, 0, 74, 72
2, 134664, Note_on_c, 0, 64, 64
2, 134694, Note_off_c, 0, 74, 49
2, 134694, Note_on_c, 0, 73, 65
2, 134724, Note_off_c, 0, 73, 52
2, 134724, Note_off_c, 0, 58, 64
2, 134724, Note_on_c, 0, 74, 52
2, 134724, Note_on_c, 0, 57, 64
2, 134754, Note_off_c, 0, 74, 45
2, 134754, Note_on_c, 0, 73, 55
2, 134784, Note_off_c, 0, 73, 46
2, 134784, Note_off_c, 0, 57, 64
2, 134784, Note_on_c, 0, 74, 58
2, 134784, Note_on_c, 0, 58, 64
2, 134814, Note_off_c, 0, 74, 37
2, 134814, Note_on_c, 0, 73, 60
2, 134844, Note_off_c, 0, 73, 47
2, 134844, Note_off_c, 0, 58, 64
2, 134844, Note_on_c, 0, 74, 63
2, 134844, Note_on_c, 0, 55, 64
2, 134874, Note_off_c, 0, 74, 43
2, 134874, Note_on_c, 0, 73, 64
2, 134904, Note_off_c, 0, 55, 64
2, 134904, Note_on_c, 0, 52, 64
2, 134964, Note_off_c, 0, 52, 64
2, 134964, Note_on_c, 0, 55, 64
2, 135024, Note_off_c, 0, 55, 64
2, 135024, Note_off_c, 0, 64, 57
2, 135024, Note_on_c, 0, 65, 64
2, 135024, Note_on_c, 0, 57, 64
2, 135084, Note_off_c, 0, 57, 64
2, 135084, Note_off_c, 0, 65, 21
2, 135084, Note_off_c, 0, 73, 64
2, 135084, Note_on_c, 0, 64, 64
2, 135084, Note_on_c, 0, 55, 64
2, 135144, Note_off_c, 0, 55, 64
2, 135144, Note_off_c, 0, 64, 30
2, 135144, Note_on_c, 0, 65, 64
2, 135144, Note_on_c, 0, 57, 64
2, 135204, Note_off_c, 0, 57, 64
2, 135204, Note_off_c, 0, 65, 33
2, 135204, Note_on_c, 0, 62, 64
2, 135204, Note_on_c, 0, 53, 64
2, 135264, Note_off_c, 0, 53, 64
2, 135264, Note_off_c, 0, 62, 40
2, 135264, Note_on_c, 0, 69, 64
2, 135264, Note_on_c, 0, 50, 64
2, 135324, Note_off_c, 0, 50, 64
2, 135324, Note_off_c, 0, 69, 1
2, 135324, Note_on_c, 0, 65, 64
2, 135324, Note_on_c, 0, 53, 64
2, 135384, Note_off_c, 0, 53, 64
2, 135384, Note_on_c, 0, 70, 64
2, 135384, Note_on_c, 0, 55, 64
2, 135444, Note_off_c, 0, 55, 64
2, 135444, Note_on_c, 0, 53, 64
2, 135504, Note_off_c, 0, 53, 64
2, 135504, Note_off_c, 0, 65, 27
2, 135504, Note_on_c, 0, 64, 64
2, 135504, Note_on_c, 0, 55, 64
2, 135564, Note_off_c, 0, 55, 64
2, 135564, Note_on_c, 0, 52, 64
2, 135624, Note_off_c, 0, 52, 64
2, 135624, Note_off_c, 0, 64, 30
2, 135624, Note_on_c, 0, 67, 64
2, 135624, Note_on_c, 0, 49, 64
2, 135684, Note_off_c, 0, 49, 64
2, 135684, Note_on_c, 0, 52, 64
2, 135744, Note_off_c, 0, 52, 64
2, 135744, Note_off_c, 0, 70, 64
2, 135744, Note_on_c, 0, 69, 64
2, 135744, Note_on_c, 0, 53, 64
2, 135804, Note_off_c, 0, 53, 64
2, 135804, Note_on_c, 0, 52, 64
2, 135864, Note_off_c, 0, 52, 64
2, 135864, Note_off_c, 0, 67, 43
2, 135864, Note_on_c, 0, 61, 64
2, 135864, Note_on_c, 0, 53, 64
2, 135924, Note_off_c, 0, 53, 64
2, 135924, Note_on_c, 0, 50, 64
2, 135984, Note_off_c, 0, 50, 64
2, 135984, Note_off_c, 0, 61, 48
2, 135984, Note_on_c, 0, 62, 64
2, 135984, Note_on_c, 0, 47, 64
2, 136044, Note_off_c, 0, 47, 64
2, 136044, Note_on_c, 0, 50, 64
2, 136104, Note_off_c, 0, 50, 64
2, 136104, Note_off_c, 0, 69, 64
2, 136104, Note_on_c, 0, 67, 64
2, 136104, Note_on_c, 0, 52, 64
2, 136164, Note_off_c, 0, 52, 64
2, 136164, Note_on_c, 0, 50, 64
2, 136224, Note_off_c, 0, 50, 64
2, 136224, Note_off_c, 0, 62, 58
2, 136224, Note_on_c, 0, 61, 64
2, 136224, Note_on_c, 0, 52, 64
2, 136284, Note_off_c, 0, 52, 64
2, 136284, Note_on_c, 0, 49, 64
2, 136344, Note_off_c, 0, 49, 64
2, 136344, Note_off_c, 0, 61, 69
2, 136344, Note_on_c, 0, 64, 64
2, 136344, Note_on_c, 0, 45, 64
2, 136404, Note_off_c, 0, 45, 64
2, 136404, Note_on_c, 0, 49, 64
2, 136464, Note_off_c, 0, 49, 64
2, 136464, Note_off_c, 0, 67, 64
2, 136464, Note_on_c, 0, 65, 64
2, 136464, Note_on_c, 0, 50, 64
2, 136524, Note_off_c, 0, 50, 64
2, 136524, Note_on_c, 0, 49, 64
2, 136584, Note_off_c, 0, 49, 64
2, 136584, Note_off_c, 0, 64, 17
2, 136584, Note_on_c, 0, 57, 64
2, 136584, Note_on_c, 0, 50, 64
2, 136644, Note_off_c, 0, 50, 64
2, 136644, Note_on_c, 0, 53, 64
2, 136704, Note_off_c, 0, 53, 64
2, 136704, Note_off_c, 0, 57, 31
2, 136704, Note_on_c, 0, 62, 64
2, 136704, Note_on_c, 0, 46, 64
2, 136764, Note_off_c, 0, 46, 64
2, 136764, Note_on_c, 0, 50, 64
2, 136824, Note_off_c, 0, 50, 64
2, 136824, Note_on_c, 0, 59, 64
2, 136824, Note_on_c, 0, 44, 64
2, 136884, Note_off_c, 0, 65, 64
2, 136884, Note_off_c, 0, 62, 44
2, 136884, Note_off_c, 0, 59, 64
2, 136884, Note_on_c, 0, 64, 64
2, 136944, Note_off_c, 0, 64, 64
2, 136944, Note_on_c, 0, 62, 64
2, 137004, Note_off_c, 0, 62, 64
2, 137004, Note_on_c, 0, 61, 64
2, 137064, Note_off_c, 0, 61, 64
2, 137064, Note_on_c, 0, 62, 64
2, 137124, Note_off_c, 0, 62, 64
2, 137124, Note_on_c, 0, 65, 64
2, 137184, Note_off_c, 0, 65, 64
2, 137184, Note_on_c, 0, 71, 64
2, 137244, Note_off_c, 0, 71, 64
2, 137244, Note_on_c, 0, 65, 64
2, 137304, Note_off_c, 0, 65, 64
2, 137304, Note_on_c, 0, 64, 64
2, 137364, Note_off_c, 0, 64, 64
2, 137364, Note_on_c, 0, 62, 64
2, 137424, Note_off_c, 0, 62, 64
2, 137424, Note_on_c, 0, 61, 64
2, 137484, Note_off_c, 0, 61, 64
2, 137484, Note_on_c, 0, 59, 64
2, 137544, Note_off_c, 0, 59, 64
2, 137544, Note_off_c, 0, 44, 64
2, 137544, Note_on_c, 0, 61, 64
2, 137544, Note_on_c, 0, 45, 64
2, 137604, Note_on_c, 0, 57, 64
2, 137664, Note_off_c, 0, 57, 64
2, 137664, Note_off_c, 0, 61, 64
2, 137664, Note_on_c, 0, 55, 64
2, 137724, Note_off_c, 0, 55, 64
2, 137724, Note_on_c, 0, 54, 64
2, 137784, Note_off_c, 0, 54, 64
2, 137784, Note_on_c, 0, 52, 64
2, 137844, Note_off_c, 0, 52, 64
2, 137844, Note_on_c, 0, 50, 64
2, 137904, Note_off_c, 0, 50, 64
2, 137904, Note_off_c, 0, 45, 64
2, 137904, Note_on_c, 0, 49, 64
2, 137964, Note_on_c, 0, 47, 64
2, 138024, Note_off_c, 0, 47, 64
2, 138024, Note_off_c, 0, 49, 64
2, 138024, Note_on_c, 0, 45, 64
2, 138084, Note_off_c, 0, 45, 64
2, 138084, Note_on_c, 0, 43, 64
2, 138144, Note_off_c, 0, 43, 64
2, 138144, Note_on_c, 0, 42, 64
2, 138204, Note_off_c, 0, 42, 64
2, 138204, Note_on_c, 0, 40, 64
2, 138264, Note_off_c, 0, 40, 64
2, 138264, Note_on_c, 0, 38, 64
2, 138384, Note_on_c, 0, 50, 64
2, 138444, Note_off_c, 0, 50, 64
2, 138444, Note_on_c, 0, 52, 64
2, 138504, Note_off_c, 0, 52, 64
2, 138504, Note_off_c, 0, 38, 64
2, 138504, Note_on_c, 0, 54, 64
2, 138564, Note_off_c, 0, 54, 64
2, 138564, Note_on_c, 0, 55, 64
2, 138624, Note_off_c, 0, 55, 64
2, 138624, Note_on_c, 0, 57, 64
2, 138744, Note_off_c, 0, 57, 64
2, 138744, Note_on_c, 0, 54, 64
2, 138864, Note_off_c, 0, 54, 64
2, 138864, Note_on_c, 0, 57, 64
2, 138984, Note_off_c, 0, 57, 64
2, 138984, Note_on_c, 0, 62, 64
2, 139104, Note_off_c, 0, 62, 64
2, 139104, Note_on_c, 0, 57, 64
2, 139224, Note_off_c, 0, 57, 64
2, 139224, Note_on_c, 0, 62, 64
2, 139344, Note_off_c, 0, 62, 64
2, 139344, Note_on_c, 0, 66, 64
2, 139464, Note_off_c, 0, 66, 64
2, 139464, Note_on_c, 0, 62, 64
2, 139584, Note_off_c, 0, 62, 64
2, 139584, Note_on_c, 0, 66, 64
2, 139704, Note_off_c, 0, 66, 64
2, 139704, Note_on_c, 0, 69, 64
2, 140064, Note_off_c, 0, 69, 64
2, 140064, Note_on_c, 0, 69, 64
2, 140064, Note_on_c, 0, 78, 64
2, 140064, Note_on_c, 0, 50, 64
2, 140424, Note_off_c, 0, 50, 64
2, 140424, Note_off_c, 0, 78, 64
2, 140424, Note_off_c, 0, 69, 64
2, 140424, Note_on_c, 0, 69, 64
2, 140424, Note_on_c, 0, 78, 64
2, 140424, Note_on_c, 0, 57, 64
2, 140604, Note_off_c, 0, 78, 64
2, 140604, Note_off_c, 0, 69, 64
2, 140604, Note_on_c, 0, 67, 64
2, 140604, Note_on_c, 0, 76, 64
2, 140784, Note_off_c, 0, 76, 64
2, 140784, Note_off_c, 0, 67, 64
2, 140784, Note_off_c, 0, 57, 64
2, 140784, Note_on_c, 0, 45, 64
2, 140784, Note_on_c, 0, 67, 64
2, 140784, Note_on_c, 0, 76, 64
2, 140964, Note_off_c, 0, 76, 64
2, 140964, Note_off_c, 0, 67, 64
2, 140964, Note_on_c, 0, 74, 64
2, 140964, Note_on_c, 0, 66, 64
2, 141144, Note_off_c, 0, 66, 64
2, 141144, Note_off_c, 0, 74, 64
2, 141144, Note_off_c, 0, 45, 64
2, 141144, Note_on_c, 0, 66, 64
2, 141144, Note_on_c, 0, 74, 64
2, 141144, Note_on_c, 0, 50, 64
2, 141264, Note_off_c, 0, 74, 64
2, 141264, Note_off_c, 0, 66, 64
2, 141264, Note_on_c, 0, 62, 64
2, 141324, Note_off_c, 0, 62, 64
2, 141324, Note_on_c, 0, 64, 64
2, 141384, Note_off_c, 0, 64, 64
2, 141384, Note_on_c, 0, 66, 64
2, 141444, Note_off_c, 0, 66, 64
2, 141444, Note_on_c, 0, 67, 64
2, 141504, Note_off_c, 0, 67, 64
2, 141504, Note_off_c, 0, 50, 64
2, 141504, Note_on_c, 0, 69, 64
2, 141624, Note_off_c, 0, 69, 64
2, 141624, Note_on_c, 0, 66, 64
2, 141624, Note_on_c, 0, 60, 64
2, 141684, Note_off_c, 0, 60, 64
2, 141684, Note_on_c, 0, 59, 64
2, 141744, Note_off_c, 0, 59, 64
2, 141744, Note_off_c, 0, 66, 64
2, 141744, Note_on_c, 0, 69, 64
2, 141744, Note_on_c, 0, 57, 64
2, 141804, Note_off_c, 0, 57, 64
2, 141804, Note_on_c, 0, 55, 64
2, 141864, Note_off_c, 0, 55, 64
2, 141864, Note_off_c, 0, 69, 64
2, 141864, Note_on_c, 0, 72, 64
2, 141864, Note_on_c, 0, 54, 64
2, 141984, Note_off_c, 0, 54, 64
2, 141984, Note_off_c, 0, 72, 64
2, 141984, Note_on_c, 0, 69, 64
2, 141984, Note_on_c, 0, 57, 64
2, 142104, Note_off_c, 0, 57, 64
2, 142104, Note_off_c, 0, 69, 64
2, 142104, Note_on_c, 0, 72, 64
2, 142104, Note_on_c, 0, 54, 64
2, 142224, Note_off_c, 0, 54, 64
2, 142224, Note_off_c, 0, 72, 64
2, 142224, Note_on_c, 0, 78, 64
2, 142224, Note_on_c, 0, 50, 64
2, 142344, Note_off_c, 0, 50, 64
2, 142344, Note_off_c, 0, 78, 64
2, 142344, Note_on_c, 0, 72, 64
2, 142344, Note_on_c, 0, 54, 64
2, 142464, Note_off_c, 0, 54, 64
2, 142464, Note_off_c, 0, 72, 64
2, 142464, Note_on_c, 0, 50, 64
2, 142464, Note_on_c, 0, 78, 64
2, 142584, Note_off_c, 0, 78, 64
2, 142584, Note_off_c, 0, 50, 64
2, 142584, Note_on_c, 0, 81, 64
2, 142584, Note_on_c, 0, 45, 64
2, 142704, Note_off_c, 0, 45, 64
2, 142704, Note_on_c, 0, 50, 64
2, 142824, Note_off_c, 0, 50, 64
2, 142824, Note_on_c, 0, 45, 64
2, 142944, Note_off_c, 0, 45, 64
2, 142944, Note_off_c, 0, 81, 64
2, 142944, Note_on_c, 0, 69, 64
2, 142944, Note_on_c, 0, 72, 64
2, 142944, Note_on_c, 0, 42, 64
2, 143064, Note_off_c, 0, 42, 64
2, 143064, Note_on_c, 0, 45, 64
2, 143184, Note_off_c, 0, 45, 64
2, 143184, Note_on_c, 0, 42, 64
2, 143304, Note_off_c, 0, 42, 64
2, 143304, Note_off_c, 0, 72, 64
2, 143304, Note_off_c, 0, 69, 64
2, 143304, Note_on_c, 0, 69, 64
2, 143304, Note_on_c, 0, 72, 64
2, 143304, Note_on_c, 0, 38, 64
2, 143484, Note_off_c, 0, 72, 64
2, 143484, Note_off_c, 0, 69, 64
2, 143484, Note_on_c, 0, 67, 64
2, 143484, Note_on_c, 0, 71, 64
2, 143664, Note_off_c, 0, 71, 64
2, 143664, Note_off_c, 0, 67, 64
2, 143664, Note_off_c, 0, 38, 64
2, 143664, Note_on_c, 0, 50, 64
2, 143664, Note_on_c, 0, 67, 64
2, 143664, Note_on_c, 0, 71, 64
2, 143844, Note_off_c, 0, 71, 64
2, 143844, Note_off_c, 0, 67, 64
2, 143844, Note_on_c, 0, 69, 64
2, 143844, Note_on_c, 0, 66, 64
2, 144024, Note_off_c, 0, 66, 64
2, 144024, Note_off_c, 0, 69, 64
2, 144024, Note_off_c, 0, 50, 64
2, 144024, Note_on_c, 0, 67, 64
2, 144024, Note_on_c, 0, 71, 64
2, 144024, Note_on_c, 0, 43, 64
2, 144144, Note_off_c, 0, 71, 64
2, 144144, Note_off_c, 0, 67, 64
2, 144144, Note_on_c, 0, 83, 64
2, 144204, Note_off_c, 0, 83, 64
2, 144204, Note_on_c, 0, 81, 64
2, 144264, Note_off_c, 0, 81, 64
2, 144264, Note_off_c, 0, 43, 64
2, 144264, Note_on_c, 0, 79, 64
2, 144264, Note_on_c, 0, 50, 64
2, 144324, Note_off_c, 0, 79, 64
2, 144324, Note_on_c, 0, 78, 64
2, 144384, Note_off_c, 0, 78, 64
2, 144384, Note_off_c, 0, 50, 64
2, 144384, Note_on_c, 0, 76, 64
2, 144384, Note_on_c, 0, 55, 64
2, 144504, Note_off_c, 0, 76, 64
2, 144504, Note_on_c, 0, 79, 64
2, 144624, Note_off_c, 0, 79, 64
2, 144624, Note_off_c, 0, 55, 64
2, 144624, Note_on_c, 0, 76, 64
2, 144624, Note_on_c, 0, 55, 64
2, 144744, Note_off_c, 0, 55, 64
2, 144744, Note_off_c, 0, 76, 64
2, 144744, Note_on_c, 0, 73, 64
2, 144744, Note_on_c, 0, 55, 64
2, 144864, Note_off_c, 0, 73, 64
2, 144864, Note_on_c, 0, 57, 64
2, 144924, Note_off_c, 0, 57, 64
2, 144924, Note_on_c, 0, 59, 64
2, 144984, Note_off_c, 0, 59, 64
2, 144984, Note_on_c, 0, 61, 64
2, 145044, Note_off_c, 0, 61, 64
2, 145044, Note_on_c, 0, 62, 64
2, 145104, Note_off_c, 0, 62, 64
2, 145104, Note_off_c, 0, 55, 64
2, 145104, Note_on_c, 0, 64, 64
2, 145224, Note_off_c, 0, 64, 64
2, 145224, Note_on_c, 0, 61, 64
2, 145224, Note_on_c, 0, 45, 64
2, 145284, Note_off_c, 0, 45, 64
2, 145284, Note_on_c, 0, 43, 64
2, 145344, Note_off_c, 0, 43, 64
2, 145344, Note_off_c, 0, 61, 64
2, 145344, Note_on_c, 0, 64, 64
2, 145344, Note_on_c, 0, 42, 64
2, 145404, Note_off_c, 0, 42, 64
2, 145404, Note_on_c, 0, 40, 64
2, 145464, Note_off_c, 0, 40, 64
2, 145464, Note_off_c, 0, 64, 64
2, 145464, Note_on_c, 0, 69, 64
2, 145464, Note_on_c, 0, 42, 64
2, 145584, Note_on_c, 0, 81, 64
2, 145644, Note_off_c, 0, 81, 45
2, 145644, Note_on_c, 0, 79, 64
2, 145704, Note_off_c, 0, 79, 59
2, 145704, Note_off_c, 0, 42, 64
2, 145704, Note_off_c, 0, 69, 64
2, 145704, Note_on_c, 0, 78, 64
2, 145704, Note_on_c, 0, 54, 64
2, 145764, Note_off_c, 0, 78, 54
2, 145764, Note_on_c, 0, 76, 64
2, 145824, Note_off_c, 0, 76, 47
2, 145824, Note_off_c, 0, 54, 64
2, 145824, Note_on_c, 0, 74, 64
2, 145824, Note_on_c, 0, 54, 64
2, 145944, Note_off_c, 0, 74, 64
2, 145944, Note_on_c, 0, 78, 64
2, 146064, Note_off_c, 0, 78, 64
2, 146064, Note_off_c, 0, 54, 64
2, 146064, Note_on_c, 0, 74, 64
2, 146064, Note_on_c, 0, 54, 64
2, 146184, Note_off_c, 0, 54, 64
2, 146184, Note_off_c, 0, 74, 64
2, 146184, Note_on_c, 0, 71, 64
2, 146184, Note_on_c, 0, 54, 64
2, 146304, Note_off_c, 0, 71, 64
2, 146304, Note_on_c, 0, 55, 64
2, 146364, Note_off_c, 0, 55, 64
2, 146364, Note_on_c, 0, 57, 64
2, 146424, Note_off_c, 0, 57, 64
2, 146424, Note_on_c, 0, 59, 64
2, 146484, Note_off_c, 0, 59, 64
2, 146484, Note_on_c, 0, 61, 64
2, 146544, Note_off_c, 0, 61, 64
2, 146544, Note_off_c, 0, 54, 64
2, 146544, Note_on_c, 0, 62, 64
2, 146664, Note_off_c, 0, 62, 64
2, 146664, Note_on_c, 0, 59, 64
2, 146664, Note_on_c, 0, 43, 64
2, 146724, Note_off_c, 0, 43, 64
2, 146724, Note_on_c, 0, 42, 64
2, 146784, Note_off_c, 0, 42, 64
2, 146784, Note_off_c, 0, 59, 64
2, 146784, Note_on_c, 0, 62, 64
2, 146784, Note_on_c, 0, 40, 64
2, 146844, Note_off_c, 0, 40, 64
2, 146844, Note_on_c, 0, 38, 64
2, 146904, Note_off_c, 0, 38, 64
2, 146904, Note_off_c, 0, 62, 64
2, 146904, Note_on_c, 0, 67, 64
2, 146904, Note_on_c, 0, 40, 64
2, 147024, Note_off_c, 0, 40, 64
2, 147024, Note_on_c, 0, 59, 64
2, 147084, Note_off_c, 0, 59, 64
2, 147084, Note_on_c, 0, 57, 64
2, 147144, Note_off_c, 0, 57, 64
2, 147144, Note_off_c, 0, 67, 64
2, 147144, Note_on_c, 0, 71, 64
2, 147144, Note_on_c, 0, 62, 64
2, 147144, Note_on_c, 0, 55, 64
2, 147204, Note_off_c, 0, 55, 64
2, 147204, Note_on_c, 0, 54, 64
2, 147264, Note_off_c, 0, 54, 64
2, 147264, Note_off_c, 0, 62, 64
2, 147264, Note_off_c, 0, 71, 64
2, 147264, Note_on_c, 0, 71, 64
2, 147264, Note_on_c, 0, 67, 64
2, 147264, Note_on_c, 0, 52, 64
2, 147384, Note_off_c, 0, 52, 64
2, 147384, Note_on_c, 0, 55, 64
2, 147504, Note_off_c, 0, 55, 64
2, 147504, Note_off_c, 0, 67, 64
2, 147504, Note_off_c, 0, 71, 64
2, 147504, Note_on_c, 0, 71, 64
2, 147504, Note_on_c, 0, 67, 64
2, 147504, Note_on_c, 0, 52, 64
2, 147624, Note_off_c, 0, 52, 64
2, 147624, Note_off_c, 0, 67, 64
2, 147624, Note_off_c, 0, 71, 64
2, 147624, Note_on_c, 0, 69, 64
2, 147624, Note_on_c, 0, 67, 64
2, 147624, Note_on_c, 0, 49, 64
2, 147744, Note_off_c, 0, 49, 64
2, 147744, Note_on_c, 0, 52, 64
2, 147864, Note_off_c, 0, 52, 64
2, 147864, Note_off_c, 0, 67, 64
2, 147864, Note_off_c, 0, 69, 64
2, 147864, Note_on_c, 0, 49, 64
2, 147984, Note_off_c, 0, 49, 64
2, 147984, Note_on_c, 0, 45, 64
2, 148104, Note_off_c, 0, 45, 64
2, 148104, Note_on_c, 0, 69, 64
2, 148104, Note_on_c, 0, 49, 64
2, 148164, Note_off_c, 0, 69, 64
2, 148164, Note_on_c, 0, 67, 64
2, 148224, Note_off_c, 0, 67, 64
2, 148224, Note_off_c, 0, 49, 64
2, 148224, Note_on_c, 0, 45, 64
2, 148224, Note_on_c, 0, 66, 64
2, 148284, Note_off_c, 0, 66, 64
2, 148284, Note_on_c, 0, 64, 64
2, 148344, Note_off_c, 0, 64, 64
2, 148344, Note_off_c, 0, 45, 64
2, 148344, Note_on_c, 0, 66, 64
2, 148344, Note_on_c, 0, 50, 64
2, 148464, Note_off_c, 0, 50, 64
2, 148464, Note_off_c, 0, 66, 64
2, 148464, Note_on_c, 0, 62, 64
2, 148464, Note_on_c, 0, 54, 64
2, 148524, Note_off_c, 0, 62, 64
2, 148524, Note_on_c, 0, 64, 64
2, 148584, Note_off_c, 0, 64, 64
2, 148584, Note_off_c, 0, 54, 64
2, 148584, Note_on_c, 0, 66, 64
2, 148584, Note_on_c, 0, 50, 64
2, 148644, Note_off_c, 0, 66, 64
2, 148644, Note_on_c, 0, 67, 64
2, 148704, Note_off_c, 0, 67, 64
2, 148704, Note_off_c, 0, 50, 64
2, 148704, Note_on_c, 0, 74, 64
2, 148704, Note_on_c, 0, 69, 64
2, 148704, Note_on_c, 0, 47, 64
2, 148824, Note_off_c, 0, 47, 64
2, 148824, Note_off_c, 0, 69, 64
2, 148824, Note_on_c, 0, 67, 64
2, 148824, Note_on_c, 0, 50, 64
2, 148884, Note_off_c, 0, 67, 64
2, 148884, Note_on_c, 0, 66, 64
2, 148944, Note_off_c, 0, 66, 64
2, 148944, Note_off_c, 0, 50, 64
2, 148944, Note_on_c, 0, 64, 64
2, 148944, Note_on_c, 0, 47, 64
2, 149004, Note_off_c, 0, 64, 64
2, 149004, Note_on_c, 0, 62, 64
2, 149064, Note_off_c, 0, 62, 64
2, 149064, Note_off_c, 0, 47, 64
2, 149064, Note_off_c, 0, 74, 64
2, 149064, Note_on_c, 0, 71, 64
2, 149064, Note_on_c, 0, 67, 64
2, 149064, Note_on_c, 0, 52, 64
2, 149184, Note_off_c, 0, 52, 64
2, 149184, Note_off_c, 0, 67, 64
2, 149184, Note_on_c, 0, 64, 64
2, 149184, Note_on_c, 0, 55, 64
2, 149244, Note_off_c, 0, 64, 64
2, 149244, Note_on_c, 0, 66, 64
2, 149304, Note_off_c, 0, 66, 64
2, 149304, Note_off_c, 0, 55, 64
2, 149304, Note_on_c, 0, 67, 64
2, 149304, Note_on_c, 0, 52, 64
2, 149364, Note_off_c, 0, 67, 64
2, 149364, Note_on_c, 0, 69, 64
2, 149424, Note_off_c, 0, 69, 64
2, 149424, Note_off_c, 0, 52, 64
2, 149424, Note_off_c, 0, 71, 64
2, 149424, Note_on_c, 0, 76, 64
2, 149424, Note_on_c, 0, 71, 64
2, 149424, Note_on_c, 0, 49, 64
2, 149544, Note_off_c, 0, 49, 64
2, 149544, Note_off_c, 0, 71, 64
2, 149544, Note_on_c, 0, 69, 64
2, 149544, Note_on_c, 0, 52, 64
2, 149604, Note_off_c, 0, 69, 64
2, 149604, Note_on_c, 0, 67, 64
2, 149664, Note_off_c, 0, 67, 64
2, 149664, Note_off_c, 0, 52, 64
2, 149664, Note_on_c, 0, 49, 64
2, 149664, Note_on_c, 0, 66, 64
2, 149724, Note_off_c, 0, 66, 64
2, 149724, Note_on_c, 0, 64, 64
2, 149784, Note_off_c, 0, 64, 64
2, 149784, Note_off_c, 0, 49, 64
2, 149784, Note_on_c, 0, 69, 64
2, 149784, Note_on_c, 0, 54, 64
2, 149904, Note_off_c, 0, 54, 64
2, 149904, Note_on_c, 0, 50, 64
2, 149964, Note_off_c, 0, 50, 64
2, 149964, Note_on_c, 0, 52, 64
2, 150024, Note_off_c, 0, 52, 64
2, 150024, Note_off_c, 0, 69, 64
2, 150024, Note_on_c, 0, 67, 64
2, 150024, Note_on_c, 0, 54, 64
2, 150084, Note_off_c, 0, 54, 64
2, 150084, Note_on_c, 0, 55, 64
2, 150144, Note_off_c, 0, 55, 64
2, 150144, Note_off_c, 0, 67, 64
2, 150144, Note_off_c, 0, 76, 64
2, 150144, Note_on_c, 0, 74, 64
2, 150144, Note_on_c, 0, 66, 64
2, 150144, Note_on_c, 0, 57, 64
2, 150264, Note_off_c, 0, 57, 64
2, 150264, Note_on_c, 0, 55, 64
2, 150324, Note_off_c, 0, 55, 64
2, 150324, Note_on_c, 0, 54, 64
2, 150384, Note_off_c, 0, 54, 64
2, 150384, Note_off_c, 0, 74, 64
2, 150384, Note_on_c, 0, 72, 64
2, 150384, Note_on_c, 0, 52, 64
2, 150444, Note_off_c, 0, 52, 64
2, 150444, Note_on_c, 0, 50, 64
2, 150504, Note_off_c, 0, 50, 64
2, 150504, Note_off_c, 0, 72, 64
2, 150504, Note_on_c, 0, 71, 64
2, 150504, Note_on_c, 0, 55, 64
2, 150624, Note_off_c, 0, 55, 64
2, 150624, Note_on_c, 0, 52, 64
2, 150684, Note_off_c, 0, 52, 64
2, 150684, Note_on_c, 0, 54, 64
2, 150744, Note_off_c, 0, 54, 64
2, 150744, Note_off_c, 0, 71, 64
2, 150744, Note_on_c, 0, 69, 64
2, 150744, Note_on_c, 0, 55, 64
2, 150804, Note_off_c, 0, 55, 64
2, 150804, Note_on_c, 0, 57, 64
2, 150864, Note_off_c, 0, 57, 64
2, 150864, Note_off_c, 0, 69, 64
2, 150864, Note_off_c, 0, 66, 64
2, 150864, Note_on_c, 0, 67, 64
2, 150864, Note_on_c, 0, 64, 64
2, 150864, Note_on_c, 0, 59, 64
2, 150984, Note_off_c, 0, 59, 64
2, 150984, Note_on_c, 0, 57, 64
2, 151044, Note_off_c, 0, 57, 64
2, 151044, Note_on_c, 0, 55, 64
2, 151104, Note_off_c, 0, 55, 64
2, 151104, Note_off_c, 0, 64, 64
2, 151104, Note_on_c, 0, 54, 64
2, 151104, Note_on_c, 0, 62, 64
2, 151164, Note_off_c, 0, 54, 64
2, 151164, Note_on_c, 0, 52, 64
2, 151224, Note_off_c, 0, 52, 64
2, 151224, Note_off_c, 0, 62, 64
2, 151224, Note_on_c, 0, 61, 64
2, 151224, Note_on_c, 0, 57, 64
2, 151344, Note_off_c, 0, 61, 64
2, 151344, Note_on_c, 0, 57, 64
2, 151404, Note_off_c, 0, 57, 64
2, 151404, Note_on_c, 0, 59, 64
2, 151464, Note_off_c, 0, 59, 64
2, 151464, Note_off_c, 0, 57, 64
2, 151464, Note_on_c, 0, 61, 64
2, 151464, Note_on_c, 0, 45, 64
2, 151524, Note_off_c, 0, 61, 64
2, 151524, Note_on_c, 0, 62, 64
2, 151584, Note_off_c, 0, 62, 64
2, 151584, Note_off_c, 0, 45, 64
2, 151584, Note_off_c, 0, 67, 64
2, 151584, Note_on_c, 0, 67, 64
2, 151584, Note_on_c, 0, 64, 64
2, 151584, Note_on_c, 0, 45, 64
2, 151704, Note_off_c, 0, 64, 64
2, 151704, Note_on_c, 0, 61, 64
2, 151824, Note_off_c, 0, 61, 64
2, 151824, Note_off_c, 0, 45, 64
2, 151824, Note_on_c, 0, 64, 64
2, 151824, Note_on_c, 0, 45, 64
2, 151944, Note_off_c, 0, 45, 64
2, 151944, Note_off_c, 0, 64, 64
2, 151944, Note_off_c, 0, 67, 64
2, 151944, Note_on_c, 0, 73, 64
2, 151944, Note_on_c, 0, 67, 64
2, 151944, Note_on_c, 0, 45, 64
2, 152064, Note_off_c, 0, 67, 64
2, 152064, Note_on_c, 0, 64, 64
2, 152184, Note_off_c, 0, 64, 64
2, 152184, Note_on_c, 0, 67, 64
2, 152304, Note_off_c, 0, 67, 64
2, 152304, Note_off_c, 0, 73, 64
2, 152304, Note_on_c, 0, 76, 64
2, 152304, Note_on_c, 0, 73, 64
2, 152424, Note_off_c, 0, 73, 64
2, 152424, Note_on_c, 0, 67, 64
2, 152484, Note_off_c, 0, 45, 64
2, 152484, Note_on_c, 0, 52, 64
2, 152544, Note_off_c, 0, 52, 64
2, 152544, Note_off_c, 0, 67, 64
2, 152544, Note_on_c, 0, 73, 64
2, 152544, Note_on_c, 0, 54, 64
2, 152604, Note_off_c, 0, 54, 64
2, 152604, Note_on_c, 0, 55, 64
2, 152664, Note_off_c, 0, 55, 64
2, 152664, Note_off_c, 0, 73, 64
2, 152664, Note_on_c, 0, 66, 64
2, 152664, Note_on_c, 0, 57, 64
2, 152784, Note_off_c, 0, 76, 64
2, 152784, Note_on_c, 0, 74, 64
2, 152844, Note_off_c, 0, 74, 64
2, 152844, Note_on_c, 0, 73, 64
2, 152904, Note_off_c, 0, 73, 64
2, 152904, Note_off_c, 0, 57, 64
2, 152904, Note_on_c, 0, 71, 64
2, 152904, Note_on_c, 0, 45, 64
2, 152964, Note_off_c, 0, 71, 64
2, 152964, Note_on_c, 0, 69, 64
2, 153024, Note_off_c, 0, 69, 64
2, 153024, Note_off_c, 0, 45, 64
2, 153024, Note_off_c, 0, 66, 64
2, 153024, Note_on_c, 0, 68, 64
2, 153024, Note_on_c, 0, 62, 64
2, 153024, Note_on_c, 0, 45, 64
2, 153144, Note_off_c, 0, 68, 64
2, 153144, Note_on_c, 0, 71, 64
2, 153264, Note_off_c, 0, 71, 64
2, 153264, Note_off_c, 0, 45, 64
2, 153264, Note_on_c, 0, 68, 64
2, 153264, Note_on_c, 0, 45, 64
2, 153384, Note_off_c, 0, 45, 64
2, 153384, Note_off_c, 0, 68, 64
2, 153384, Note_off_c, 0, 62, 64
2, 153384, Note_on_c, 0, 62, 64
2, 153384, Note_on_c, 0, 59, 64
2, 153384, Note_on_c, 0, 45, 64
2, 153504, Note_off_c, 0, 62, 64
2, 153504, Note_on_c, 0, 68, 64
2, 153624, Note_off_c, 0, 68, 64
2, 153624, Note_on_c, 0, 62, 64
2, 153744, Note_off_c, 0, 62, 64
2, 153744, Note_off_c, 0, 45, 64
2, 153744, Note_off_c, 0, 59, 64
2, 153744, Note_on_c, 0, 56, 64
2, 153744, Note_on_c, 0, 59, 64
2, 153864, Note_off_c, 0, 59, 64
2, 153864, Note_on_c, 0, 62, 64
2, 153984, Note_off_c, 0, 62, 64
2, 153984, Note_on_c, 0, 59, 64
2, 154104, Note_off_c, 0, 59, 64
2, 154104, Note_off_c, 0, 56, 64
2, 154104, Note_on_c, 0, 61, 64
2, 154104, Note_on_c, 0, 57, 64
2, 154224, Note_off_c, 0, 61, 64
2, 154224, Note_on_c, 0, 59, 64
2, 154284, Note_on_c, 0, 42, 64
2, 154344, Note_off_c, 0, 42, 64
2, 154344, Note_off_c, 0, 59, 64
2, 154344, Note_on_c, 0, 57, 64
2, 154344, Note_on_c, 0, 55, 64
2, 154344, Note_on_c, 0, 43, 64
2, 154345, Note_off_c, 0, 57, 64
2, 154404, Note_off_c, 0, 43, 64
2, 154404, Note_on_c, 0, 45, 64
2, 154464, Note_off_c, 0, 45, 64
2, 154464, Note_off_c, 0, 55, 64
2, 154464, Note_off_c, 0, 57, 64
2, 154464, Note_on_c, 0, 62, 64
2, 154464, Note_on_c, 0, 54, 64
2, 154464, Note_on_c, 0, 47, 64
2, 154584, Note_off_c, 0, 47, 64
2, 154584, Note_on_c, 0, 45, 64
2, 154704, Note_off_c, 0, 45, 64
2, 154704, Note_off_c, 0, 54, 64
2, 154704, Note_off_c, 0, 62, 64
2, 154704, Note_on_c, 0, 67, 64
2, 154704, Note_on_c, 0, 64, 64
2, 154704, Note_on_c, 0, 43, 64
2, 154824, Note_off_c, 0, 43, 64
2, 154824, Note_off_c, 0, 64, 64
2, 154824, Note_on_c, 0, 61, 64
2, 154824, Note_on_c, 0, 45, 64
2, 154944, Note_off_c, 0, 67, 64
2, 154944, Note_on_c, 0, 66, 64
2, 155004, Note_off_c, 0, 66, 64
2, 155004, Note_on_c, 0, 64, 64
2, 155064, Note_off_c, 0, 64, 64
2, 155064, Note_off_c, 0, 45, 64
2, 155064, Note_off_c, 0, 61, 64
2, 155064, Note_on_c, 0, 62, 64
2, 155064, Note_on_c, 0, 66, 64
2, 155064, Note_on_c, 0, 57, 64
2, 155184, Note_off_c, 0, 57, 64
2, 155184, Note_off_c, 0, 66, 64
2, 155184, Note_on_c, 0, 64, 64
2, 155184, Note_on_c, 0, 57, 64
2, 155304, Note_off_c, 0, 62, 64
2, 155304, Note_on_c, 0, 61, 64
2, 155364, Note_off_c, 0, 61, 64
2, 155364, Note_on_c, 0, 59, 64
2, 155424, Note_off_c, 0, 59, 64
2, 155424, Note_off_c, 0, 57, 64
2, 155424, Note_off_c, 0, 64, 64
2, 155424, Note_on_c, 0, 45, 64
2, 155424, Note_on_c, 0, 69, 64
2, 155424, Note_on_c, 0, 61, 64
2, 155544, Note_off_c, 0, 61, 64
2, 155544, Note_off_c, 0, 69, 64
2, 155544, Note_off_c, 0, 45, 64
2, 155544, Note_on_c, 0, 66, 64
2, 155544, Note_on_c, 0, 62, 64
2, 155544, Note_on_c, 0, 50, 64
2, 155604, Note_off_c, 0, 62, 64
2, 155604, Note_off_c, 0, 66, 64
2, 155604, Note_on_c, 0, 69, 64
2, 155664, Note_off_c, 0, 69, 64
2, 155664, Note_on_c, 0, 71, 64
2, 155724, Note_off_c, 0, 71, 64
2, 155724, Note_on_c, 0, 73, 64
2, 155784, Note_off_c, 0, 73, 64
2, 155784, Note_off_c, 0, 50, 64
2, 155784, Note_on_c, 0, 74, 64
2, 155784, Note_on_c, 0, 57, 64
2, 155844, Note_off_c, 0, 74, 64
2, 155844, Note_on_c, 0, 76, 64
2, 155904, Note_off_c, 0, 76, 64
2, 155904, Note_off_c, 0, 57, 64
2, 155904, Note_on_c, 0, 78, 64
2, 155904, Note_on_c, 0, 62, 64
2, 155964, Note_off_c, 0, 78, 64
2, 155964, Note_on_c, 0, 76, 64
2, 156024, Note_off_c, 0, 76, 64
2, 156024, Note_on_c, 0, 74, 64
2, 156084, Note_off_c, 0, 74, 64
2, 156084, Note_on_c, 0, 73, 64
2, 156144, Note_off_c, 0, 73, 64
2, 156144, Note_on_c, 0, 71, 64
2, 156204, Note_off_c, 0, 71, 64
2, 156204, Note_on_c, 0, 69, 64
2, 156264, Note_off_c, 0, 69, 64
2, 156264, Note_on_c, 0, 68, 64
2, 156384, Note_off_c, 0, 68, 64
2, 156384, Note_off_c, 0, 62, 64
2, 156384, Note_on_c, 0, 71, 64
2, 156384, Note_on_c, 0, 64, 64
2, 156444, Note_off_c, 0, 64, 64
2, 156444, Note_on_c, 0, 62, 64
2, 156504, Note_off_c, 0, 62, 64
2, 156504, Note_off_c, 0, 71, 64
2, 156504, Note_on_c, 0, 76, 64
2, 156504, Note_on_c, 0, 61, 64
2, 156564, Note_off_c, 0, 61, 64
2, 156564, Note_on_c, 0, 59, 64
2, 156624, Note_off_c, 0, 59, 64
2, 156624, Note_off_c, 0, 76, 64
2, 156624, Note_on_c, 0, 76, 64
2, 156624, Note_on_c, 0, 58, 64
2, 156744, Note_off_c, 0, 58, 64
2, 156744, Note_on_c, 0, 73, 64
2, 156744, Note_on_c, 0, 59, 64
2, 156804, Note_off_c, 0, 59, 64
2, 156804, Note_on_c, 0, 58, 64
2, 156864, Note_off_c, 0, 58, 64
2, 156864, Note_off_c, 0, 73, 64
2, 156864, Note_on_c, 0, 70, 64
2, 156864, Note_on_c, 0, 56, 64
2, 156924, Note_off_c, 0, 56, 64
2, 156924, Note_on_c, 0, 54, 64
2, 156984, Note_off_c, 0, 54, 64
2, 156984, Note_off_c, 0, 70, 64
2, 156984, Note_on_c, 0, 66, 64
2, 156984, Note_on_c, 0, 59, 64
2, 157104, Note_off_c, 0, 66, 64
2, 157104, Note_on_c, 0, 68, 64
2, 157164, Note_off_c, 0, 68, 64
2, 157164, Note_on_c, 0, 70, 64
2, 157224, Note_off_c, 0, 70, 64
2, 157224, Note_off_c, 0, 59, 64
2, 157224, Note_on_c, 0, 71, 64
2, 157224, Note_on_c, 0, 47, 64
2, 157284, Note_off_c, 0, 71, 64
2, 157284, Note_on_c, 0, 73, 64
2, 157344, Note_off_c, 0, 73, 64
2, 157344, Note_off_c, 0, 47, 64
2, 157344, Note_off_c, 0, 76, 64
2, 157344, Note_on_c, 0, 74, 64
2, 157344, Note_on_c, 0, 59, 64
2, 157404, Note_off_c, 0, 74, 64
2, 157404, Note_on_c, 0, 73, 64
2, 157404, Note_on_c, 0, 73, 64
2, 157464, Note_off_c, 0, 73, 64
2, 157464, Note_off_c, 0, 73, 64
2, 157464, Note_on_c, 0, 71, 64
2, 157524, Note_off_c, 0, 71, 64
2, 157524, Note_on_c, 0, 69, 64
2, 157584, Note_off_c, 0, 69, 64
2, 157584, Note_on_c, 0, 67, 64
2, 157644, Note_off_c, 0, 67, 64
2, 157644, Note_on_c, 0, 66, 64
2, 157704, Note_off_c, 0, 66, 64
2, 157704, Note_on_c, 0, 64, 64
2, 157824, Note_off_c, 0, 64, 64
2, 157824, Note_off_c, 0, 59, 64
2, 157824, Note_on_c, 0, 67, 64
2, 157824, Note_on_c, 0, 60, 64
2, 157884, Note_off_c, 0, 60, 64
2, 157884, Note_on_c, 0, 59, 64
2, 157944, Note_off_c, 0, 59, 64
2, 157944, Note_off_c, 0, 67, 64
2, 157944, Note_on_c, 0, 72, 64
2, 157944, Note_on_c, 0, 57, 64
2, 158004, Note_off_c, 0, 57, 64
2, 158004, Note_on_c, 0, 55, 64
2, 158064, Note_off_c, 0, 55, 64
2, 158064, Note_off_c, 0, 72, 64
2, 158064, Note_on_c, 0, 72, 64
2, 158064, Note_on_c, 0, 54, 64
2, 158184, Note_off_c, 0, 54, 64
2, 158184, Note_on_c, 0, 69, 64
2, 158184, Note_on_c, 0, 55, 64
2, 158244, Note_off_c, 0, 55, 64
2, 158244, Note_on_c, 0, 54, 64
2, 158304, Note_off_c, 0, 54, 64
2, 158304, Note_off_c, 0, 69, 64
2, 158304, Note_on_c, 0, 66, 64
2, 158304, Note_on_c, 0, 52, 64
2, 158364, Note_off_c, 0, 52, 64
2, 158364, Note_on_c, 0, 50, 64
2, 158424, Note_off_c, 0, 50, 64
2, 158424, Note_off_c, 0, 66, 64
2, 158424, Note_on_c, 0, 62, 64
2, 158424, Note_on_c, 0, 55, 64
2, 158544, Note_off_c, 0, 62, 64
2, 158544, Note_on_c, 0, 64, 64
2, 158604, Note_off_c, 0, 64, 64
2, 158604, Note_on_c, 0, 66, 64
2, 158664, Note_off_c, 0, 66, 64
2, 158664, Note_off_c, 0, 55, 64
2, 158664, Note_on_c, 0, 67, 64
2, 158664, Note_on_c, 0, 43, 64
2, 158724, Note_off_c, 0, 67, 64
2, 158724, Note_on_c, 0, 69, 64
2, 158784, Note_off_c, 0, 69, 64
2, 158784, Note_off_c, 0, 43, 64
2, 158784, Note_off_c, 0, 72, 64
2, 158784, Note_on_c, 0, 71, 64
2, 158784, Note_on_c, 0, 55, 64
2, 158844, Note_off_c, 0, 71, 64
2, 158844, Note_on_c, 0, 69, 64
2, 158904, Note_off_c, 0, 69, 64
2, 158904, Note_on_c, 0, 67, 64
2, 158964, Note_off_c, 0, 67, 64
2, 158964, Note_on_c, 0, 66, 64
2, 159024, Note_off_c, 0, 66, 64
2, 159024, Note_on_c, 0, 64, 64
2, 159084, Note_off_c, 0, 64, 64
2, 159084, Note_on_c, 0, 62, 64
2, 159144, Note_off_c, 0, 62, 64
2, 159144, Note_on_c, 0, 61, 64
2, 159264, Note_off_c, 0, 61, 64
2, 159264, Note_off_c, 0, 55, 64
2, 159264, Note_on_c, 0, 64, 64
2, 159264, Note_on_c, 0, 57, 64
2, 159324, Note_off_c, 0, 57, 64
2, 159324, Note_on_c, 0, 55, 64
2, 159384, Note_off_c, 0, 55, 64
2, 159384, Note_off_c, 0, 64, 64
2, 159384, Note_on_c, 0, 69, 64
2, 159384, Note_on_c, 0, 61, 64
2, 159384, Note_on_c, 0, 54, 64
2, 159444, Note_off_c, 0, 54, 64
2, 159444, Note_on_c, 0, 52, 64
2, 159504, Note_off_c, 0, 52, 64
2, 159504, Note_off_c, 0, 61, 64
2, 159504, Note_off_c, 0, 69, 64
2, 159504, Note_on_c, 0, 66, 64
2, 159504, Note_on_c, 0, 62, 64
2, 159504, Note_on_c, 0, 50, 64
2, 159624, Note_off_c, 0, 50, 64
2, 159624, Note_off_c, 0, 66, 64
2, 159624, Note_on_c, 0, 69, 64
2, 159624, Note_on_c, 0, 52, 64
2, 159684, Note_off_c, 0, 52, 64
2, 159684, Note_on_c, 0, 54, 64
2, 159744, Note_off_c, 0, 54, 64
2, 159744, Note_off_c, 0, 69, 64
2, 159744, Note_off_c, 0, 62, 64
2, 159744, Note_on_c, 0, 66, 64
2, 159744, Note_on_c, 0, 74, 64
2, 159744, Note_on_c, 0, 55, 64
2, 159804, Note_off_c, 0, 55, 64
2, 159804, Note_on_c, 0, 57, 64
2, 159864, Note_off_c, 0, 57, 64
2, 159864, Note_off_c, 0, 74, 64
2, 159864, Note_off_c, 0, 66, 64
2, 159864, Note_on_c, 0, 67, 64
2, 159864, Note_on_c, 0, 59, 64
2, 159984, Note_off_c, 0, 59, 64
2, 159984, Note_on_c, 0, 69, 64
2, 159984, Note_on_c, 0, 57, 64
2, 160104, Note_off_c, 0, 57, 64
2, 160104, Note_off_c, 0, 69, 64
2, 160104, Note_off_c, 0, 67, 64
2, 160104, Note_on_c, 0, 76, 64
2, 160104, Note_on_c, 0, 71, 64
2, 160104, Note_on_c, 0, 54, 64
2, 160224, Note_off_c, 0, 54, 64
2, 160224, Note_off_c, 0, 71, 64
2, 160224, Note_off_c, 0, 76, 64
2, 160224, Note_on_c, 0, 69, 64
2, 160224, Note_on_c, 0, 66, 64
2, 160224, Note_on_c, 0, 57, 64
2, 160344, Note_off_c, 0, 69, 64
2, 160344, Note_on_c, 0, 74, 64
2, 160464, Note_off_c, 0, 74, 64
2, 160464, Note_off_c, 0, 57, 64
2, 160464, Note_off_c, 0, 66, 64
2, 160464, Note_on_c, 0, 73, 64
2, 160464, Note_on_c, 0, 64, 64
2, 160464, Note_on_c, 0, 67, 64
2, 160464, Note_on_c, 0, 45, 64
2, 160584, Note_off_c, 0, 45, 64
2, 160584, Note_off_c, 0, 64, 64
2, 160584, Note_off_c, 0, 73, 64
2, 160584, Note_on_c, 0, 38, 64
2, 160584, Note_on_c, 0, 74, 64
2, 160584, Note_on_c, 0, 62, 64
2, 160704, Note_off_c, 0, 67, 64
2, 160704, Note_on_c, 0, 69, 64
2, 160824, Note_off_c, 0, 62, 64
2, 160824, Note_on_c, 0, 66, 64
2, 160944, Note_on_c, 0, 62, 64
2, 161304, Note_off_c, 0, 62, 64
2, 161304, Note_off_c, 0, 66, 64
2, 161304, Note_off_c, 0, 69, 64
2, 161304, Note_off_c, 0, 74, 64
2, 161304, Note_off_c, 0, 38, 64
2, 161304, End_track
0, 0, End_of_file
