0, 0, Header, 1, 2, 240
1, 0, Start_track
1, 0, Time_signature, 4, 2, 24, 8
1, 0, Tempo, 750000
1, 31680, Tempo, 789474
1, 31944, Tempo, 821918
1, 32220, Tempo, 857143
1, 32484, Tempo, 895522
1, 32640, Tempo, 937500
1, 32976, Tempo, 1000000
1, 33036, Tempo, 1250000
1, 33600, Tempo, 895522
1, 33600, End_track
2, 0, Start_track
2, 120, Note_on_c, 0, 49, 64
2, 240, Note_off_c, 0, 49, 64
2, 240, Note_on_c, 0, 53, 64
2, 360, Note_off_c, 0, 53, 64
2, 360, Note_on_c, 0, 49, 64
2, 480, Note_off_c, 0, 49, 64
2, 480, Note_on_c, 0, 56, 64
2, 600, Note_off_c, 0, 56, 64
2, 600, Note_on_c, 0, 68, 64
2, 720, Note_off_c, 0, 68, 64
2, 720, Note_on_c, 0, 72, 64
2, 720, Note_on_c, 0, 54, 64
2, 840, Note_off_c, 0, 54, 64
2, 840, Note_off_c, 0, 72, 64
2, 840, Note_on_c, 0, 68, 64
2, 960, Note_off_c, 0, 68, 64
2, 960, Note_on_c, 0, 73, 64
2, 960, Note_on_c, 0, 53, 64
2, 1020, Note_off_c, 0, 53, 64
2, 1020, Note_on_c, 0, 51, 64
2, 1080, Note_off_c, 0, 51, 64
2, 1080, Note_off_c, 0, 73, 64
2, 1080, Note_on_c, 0, 68, 64
2, 1080, Note_on_c, 0, 49, 64
2, 1200, Note_off_c, 0, 68, 64
2, 1200, Note_on_c, 0, 71, 64
2, 1200, Note_on_c, 0, 65, 64
2, 1260, Note_off_c, 0, 49, 64
2, 1260, Note_on_c, 0, 51, 64
2, 1320, Note_off_c, 0, 51, 64
2, 1320, Note_off_c, 0, 65, 64
2, 1320, Note_off_c, 0, 71, 64
2, 1320, Note_on_c, 0, 68, 64
2, 1320, Note_on_c, 0, 53, 64
2, 1380, Note_off_c, 0, 53, 64
2, 1380, Note_on_c, 0, 49, 64
2, 1440, Note_off_c, 0, 49, 64
2, 1440, Note_off_c, 0, 68, 64
2, 1440, Note_on_c, 0, 70, 64
2, 1440, Note_on_c, 0, 61, 64
2, 1440, Note_on_c, 0, 54, 64
2, 1500, Note_off_c, 0, 70, 64
2, 1500, Note_on_c, 0, 68, 64
2, 1560, Note_off_c, 0, 68, 64
2, 1560, Note_off_c, 0, 54, 64
2, 1560, Note_off_c, 0, 61, 64
2, 1560, Note_on_c, 0, 66, 64
2, 1680, Note_on_c, 0, 63, 64
2, 1680, Note_on_c, 0, 42, 64
2, 1740, Note_off_c, 0, 66, 64
2, 1740, Note_on_c, 0, 68, 64
2, 1800, Note_off_c, 0, 68, 64
2, 1800, Note_off_c, 0, 42, 64
2, 1800, Note_off_c, 0, 63, 64
2, 1800, Note_on_c, 0, 70, 64
2, 1860, Note_off_c, 0, 70, 64
2, 1860, Note_on_c, 0, 66, 64
2, 1920, Note_off_c, 0, 66, 64
2, 1920, Note_on_c, 0, 68, 64
2, 1920, Note_on_c, 0, 65, 64
2, 1980, Note_off_c, 0, 65, 64
2, 1980, Note_on_c, 0, 66, 64
2, 2040, Note_off_c, 0, 66, 64
2, 2040, Note_off_c, 0, 68, 64
2, 2040, Note_on_c, 0, 68, 64
2, 2040, Note_on_c, 0, 49, 64
2, 2160, Note_off_c, 0, 49, 64
2, 2160, Note_on_c, 0, 73, 64
2, 2160, Note_on_c, 0, 46, 64
2, 2220, Note_off_c, 0, 68, 64
2, 2220, Note_on_c, 0, 66, 64
2, 2280, Note_off_c, 0, 66, 64
2, 2280, Note_off_c, 0, 46, 64
2, 2280, Note_off_c, 0, 73, 64
2, 2280, Note_on_c, 0, 65, 64
2, 2280, Note_on_c, 0, 49, 64
2, 2340, Note_off_c, 0, 65, 64
2, 2340, Note_on_c, 0, 68, 64
2, 2400, Note_off_c, 0, 68, 64
2, 2400, Note_off_c, 0, 49, 64
2, 2400, Note_on_c, 0, 73, 64
2, 2400, Note_on_c, 0, 63, 64
2, 2400, Note_on_c, 0, 42, 64
2, 2460, Note_off_c, 0, 63, 64
2, 2460, Note_on_c, 0, 65, 64
2, 2520, Note_off_c, 0, 65, 64
2, 2520, Note_off_c, 0, 42, 64
2, 2520, Note_off_c, 0, 73, 64
2, 2520, Note_on_c, 0, 66, 64
2, 2520, Note_on_c, 0, 46, 64
2, 2640, Note_off_c, 0, 46, 64
2, 2640, Note_on_c, 0, 72, 64
2, 2640, Note_on_c, 0, 39, 64
2, 2700, Note_off_c, 0, 66, 64
2, 2700, Note_on_c, 0, 65, 64
2, 2760, Note_off_c, 0, 65, 64
2, 2760, Note_off_c, 0, 39, 64
2, 2760, Note_off_c, 0, 72, 64
2, 2760, Note_on_c, 0, 44, 64
2, 2760, Note_on_c, 0, 63, 64
2, 2820, Note_off_c, 0, 63, 64
2, 2820, Note_on_c, 0, 66, 64
2, 2880, Note_off_c, 0, 66, 64
2, 2880, Note_off_c, 0, 44, 64
2, 2880, Note_on_c, 0, 65, 64
2, 2880, Note_on_c, 0, 37, 64
2, 3000, Note_off_c, 0, 65, 64
2, 3000, Note_on_c, 0, 73, 64
2, 3120, Note_off_c, 0, 73, 64
2, 3120, Note_off_c, 0, 37, 64
2, 3120, Note_on_c, 0, 77, 64
2, 3240, Note_off_c, 0, 77, 64
2, 3240, Note_on_c, 0, 73, 64
2, 3240, Note_on_c, 0, 61, 64
2, 3360, Note_off_c, 0, 61, 64
2, 3360, Note_off_c, 0, 73, 64
2, 3360, Note_on_c, 0, 80, 64
2, 3360, Note_on_c, 0, 60, 64
2, 3480, Note_off_c, 0, 60, 64
2, 3480, Note_off_c, 0, 80, 64
2, 3480, Note_on_c, 0, 68, 64
2, 3480, Note_on_c, 0, 63, 64
2, 3600, Note_off_c, 0, 63, 64
2, 3600, Note_off_c, 0, 68, 64
2, 3600, Note_on_c, 0, 56, 64
2, 3600, Note_on_c, 0, 78, 64
2, 3600, Note_on_c, 0, 72, 64
2, 3720, Note_off_c, 0, 72, 64
2, 3720, Note_off_c, 0, 78, 64
2, 3720, Note_on_c, 0, 68, 64
2, 3840, Note_off_c, 0, 68, 64
2, 3840, Note_off_c, 0, 56, 64
2, 3840, Note_on_c, 0, 73, 64
2, 3840, Note_on_c, 0, 77, 64
2, 3900, Note_off_c, 0, 77, 64
2, 3900, Note_off_c, 0, 73, 64
2, 3900, Note_on_c, 0, 75, 64
2, 3960, Note_off_c, 0, 75, 64
2, 3960, Note_on_c, 0, 73, 64
2, 3960, Note_on_c, 0, 49, 64
2, 4080, Note_off_c, 0, 49, 64
2, 4080, Note_on_c, 0, 71, 64
2, 4080, Note_on_c, 0, 53, 64
2, 4140, Note_off_c, 0, 73, 64
2, 4140, Note_on_c, 0, 75, 64
2, 4200, Note_off_c, 0, 75, 64
2, 4200, Note_off_c, 0, 53, 64
2, 4200, Note_off_c, 0, 71, 64
2, 4200, Note_on_c, 0, 77, 64
2, 4200, Note_on_c, 0, 49, 64
2, 4260, Note_off_c, 0, 77, 64
2, 4260, Note_on_c, 0, 73, 64
2, 4320, Note_off_c, 0, 73, 64
2, 4320, Note_off_c, 0, 49, 64
2, 4320, Note_on_c, 0, 70, 64
2, 4320, Note_on_c, 0, 54, 64
2, 4380, Note_on_c, 0, 75, 64
2, 4440, Note_off_c, 0, 75, 64
2, 4440, Note_off_c, 0, 54, 64
2, 4440, Note_off_c, 0, 70, 64
2, 4440, Note_on_c, 0, 78, 64
2, 4500, Note_off_c, 0, 78, 64
2, 4500, Note_on_c, 0, 75, 64
2, 4560, Note_off_c, 0, 75, 64
2, 4560, Note_on_c, 0, 80, 64
2, 4560, Note_on_c, 0, 53, 64
2, 4620, Note_on_c, 0, 70, 64
2, 4680, Note_off_c, 0, 70, 64
2, 4680, Note_off_c, 0, 53, 64
2, 4680, Note_off_c, 0, 80, 64
2, 4680, Note_on_c, 0, 74, 64
2, 4740, Note_off_c, 0, 74, 64
2, 4740, Note_on_c, 0, 70, 64
2, 4800, Note_off_c, 0, 70, 64
2, 4800, Note_on_c, 0, 78, 64
2, 4800, Note_on_c, 0, 75, 64
2, 4860, Note_on_c, 0, 51, 64
2, 4920, Note_off_c, 0, 51, 64
2, 4920, Note_off_c, 0, 75, 64
2, 4920, Note_on_c, 0, 48, 64
2, 4980, Note_off_c, 0, 48, 64
2, 4980, Note_on_c, 0, 51, 64
2, 5040, Note_off_c, 0, 51, 64
2, 5040, Note_off_c, 0, 78, 64
2, 5040, Note_on_c, 0, 77, 64
2, 5040, Note_on_c, 0, 45, 64
2, 5100, Note_on_c, 0, 75, 64
2, 5160, Note_off_c, 0, 75, 64
2, 5160, Note_off_c, 0, 45, 64
2, 5160, Note_on_c, 0, 73, 64
2, 5160, Note_on_c, 0, 46, 64
2, 5210, Note_off_c, 0, 77, 64
2, 5223, Note_on_c, 0, 77, 64
2, 5283, Note_off_c, 0, 77, 64
2, 5283, Note_off_c, 0, 46, 64
2, 5283, Note_on_c, 0, 79, 64
2, 5283, Note_on_c, 0, 39, 64
2, 5343, Note_off_c, 0, 73, 64
2, 5343, Note_on_c, 0, 72, 64
2, 5403, Note_off_c, 0, 39, 64
2, 5403, Note_off_c, 0, 79, 64
2, 5403, Note_on_c, 0, 80, 64
2, 5403, Note_on_c, 0, 41, 64
2, 5463, Note_off_c, 0, 72, 64
2, 5463, Note_on_c, 0, 72, 64
2, 5523, Note_off_c, 0, 72, 64
2, 5523, Note_off_c, 0, 41, 64
2, 5523, Note_on_c, 0, 70, 64
2, 5523, Note_on_c, 0, 37, 64
2, 5583, Note_off_c, 0, 80, 64
2, 5583, Note_on_c, 0, 80, 64
2, 5643, Note_off_c, 0, 80, 64
2, 5643, Note_off_c, 0, 37, 64
2, 5643, Note_on_c, 0, 39, 64
2, 5643, Note_on_c, 0, 79, 64
2, 5703, Note_off_c, 0, 70, 64
2, 5703, Note_on_c, 0, 73, 64
2, 5763, Note_off_c, 0, 73, 64
2, 5763, Note_off_c, 0, 79, 64
2, 5763, Note_off_c, 0, 39, 64
2, 5763, Note_on_c, 0, 80, 64
2, 5763, Note_on_c, 0, 72, 64
2, 5883, Note_off_c, 0, 72, 64
2, 5883, Note_off_c, 0, 80, 64
2, 5883, Note_on_c, 0, 44, 64
2, 6003, Note_off_c, 0, 44, 64
2, 6003, Note_on_c, 0, 48, 64
2, 6123, Note_off_c, 0, 48, 64
2, 6123, Note_on_c, 0, 44, 64
2, 6243, Note_off_c, 0, 44, 64
2, 6243, Note_on_c, 0, 49, 64
2, 6363, Note_off_c, 0, 49, 64
2, 6363, Note_on_c, 0, 56, 64
2, 6483, Note_off_c, 0, 56, 64
2, 6483, Note_on_c, 0, 60, 64
2, 6483, Note_on_c, 0, 48, 64
2, 6603, Note_off_c, 0, 48, 64
2, 6603, Note_off_c, 0, 60, 64
2, 6603, Note_on_c, 0, 56, 64
2, 6723, Note_off_c, 0, 56, 64
2, 6723, Note_on_c, 0, 61, 64
2, 6723, Note_on_c, 0, 46, 64
2, 6783, Note_off_c, 0, 46, 64
2, 6783, Note_on_c, 0, 48, 64
2, 6843, Note_off_c, 0, 48, 64
2, 6843, Note_off_c, 0, 61, 64
2, 6843, Note_on_c, 0, 65, 64
2, 6843, Note_on_c, 0, 49, 64
2, 6903, Note_off_c, 0, 49, 64
2, 6903, Note_on_c, 0, 51, 64
2, 6963, Note_off_c, 0, 51, 64
2, 6963, Note_off_c, 0, 65, 64
2, 6963, Note_on_c, 0, 68, 64
2, 6963, Note_on_c, 0, 59, 64
2, 6963, Note_on_c, 0, 53, 64
2, 7023, Note_off_c, 0, 53, 64
2, 7023, Note_on_c, 0, 54, 64
2, 7083, Note_off_c, 0, 54, 64
2, 7083, Note_off_c, 0, 59, 64
2, 7083, Note_off_c, 0, 68, 64
2, 7083, Note_on_c, 0, 65, 64
2, 7083, Note_on_c, 0, 56, 64
2, 7113, Note_off_c, 0, 56, 64
2, 7113, Note_on_c, 0, 54, 64
2, 7143, Note_off_c, 0, 54, 64
2, 7143, Note_on_c, 0, 53, 64
2, 7203, Note_off_c, 0, 53, 64
2, 7203, Note_off_c, 0, 65, 64
2, 7203, Note_on_c, 0, 70, 64
2, 7203, Note_on_c, 0, 58, 64
2, 7203, Note_on_c, 0, 54, 64
2, 7263, Note_off_c, 0, 58, 64
2, 7263, Note_on_c, 0, 60, 64
2, 7323, Note_off_c, 0, 60, 64
2, 7323, Note_off_c, 0, 54, 64
2, 7323, Note_off_c, 0, 70, 64
2, 7323, Note_on_c, 0, 62, 64
2, 7383, Note_off_c, 0, 62, 64
2, 7383, Note_on_c, 0, 63, 64
2, 7443, Note_off_c, 0, 63, 64
2, 7443, Note_on_c, 0, 68, 64
2, 7443, Note_on_c, 0, 65, 64
2, 7443, Note_on_c, 0, 50, 64
2, 7503, Note_off_c, 0, 65, 64
2, 7503, Note_on_c, 0, 66, 64
2, 7563, Note_off_c, 0, 66, 64
2, 7563, Note_off_c, 0, 50, 64
2, 7563, Note_off_c, 0, 68, 64
2, 7563, Note_on_c, 0, 68, 64
2, 7593, Note_off_c, 0, 68, 64
2, 7593, Note_on_c, 0, 66, 64
2, 7623, Note_off_c, 0, 66, 64
2, 7623, Note_on_c, 0, 65, 64
2, 7683, Note_off_c, 0, 65, 64
2, 7683, Note_on_c, 0, 66, 64
2, 7683, Note_on_c, 0, 51, 64
2, 7743, Note_on_c, 0, 68, 64
2, 7803, Note_off_c, 0, 68, 64
2, 7803, Note_off_c, 0, 51, 64
2, 7803, Note_off_c, 0, 66, 64
2, 7803, Note_on_c, 0, 70, 64
2, 7863, Note_off_c, 0, 70, 64
2, 7863, Note_on_c, 0, 72, 64
2, 7923, Note_off_c, 0, 72, 64
2, 7923, Note_on_c, 0, 74, 64
2, 7923, Note_on_c, 0, 65, 64
2, 7983, Note_off_c, 0, 74, 64
2, 7983, Note_on_c, 0, 75, 64
2, 8043, Note_off_c, 0, 75, 64
2, 8043, Note_off_c, 0, 65, 64
2, 8043, Note_on_c, 0, 77, 64
2, 8043, Note_on_c, 0, 58, 64
2, 8073, Note_off_c, 0, 77, 64
2, 8073, Note_on_c, 0, 75, 64
2, 8103, Note_off_c, 0, 75, 64
2, 8103, Note_on_c, 0, 74, 64
2, 8163, Note_off_c, 0, 74, 64
2, 8163, Note_off_c, 0, 58, 64
2, 8163, Note_on_c, 0, 75, 64
2, 8163, Note_on_c, 0, 54, 64
2, 8283, Note_off_c, 0, 54, 64
2, 8283, Note_off_c, 0, 75, 64
2, 8283, Note_on_c, 0, 70, 64
2, 8283, Note_on_c, 0, 58, 64
2, 8403, Note_off_c, 0, 58, 64
2, 8403, Note_off_c, 0, 70, 64
2, 8403, Note_on_c, 0, 66, 64
2, 8403, Note_on_c, 0, 51, 64
2, 8523, Note_off_c, 0, 51, 64
2, 8523, Note_off_c, 0, 66, 64
2, 8523, Note_on_c, 0, 75, 64
2, 8523, Note_on_c, 0, 55, 64
2, 8523, Note_on_c, 0, 70, 64
2, 8643, Note_off_c, 0, 70, 64
2, 8643, Note_off_c, 0, 55, 64
2, 8643, Note_off_c, 0, 75, 64
2, 8643, Note_on_c, 0, 72, 64
2, 8643, Note_on_c, 0, 63, 64
2, 8643, Note_on_c, 0, 56, 64
2, 8703, Note_off_c, 0, 56, 64
2, 8703, Note_on_c, 0, 44, 64
2, 8763, Note_off_c, 0, 44, 64
2, 8763, Note_off_c, 0, 63, 64
2, 8763, Note_off_c, 0, 72, 64
2, 8763, Note_on_c, 0, 75, 64
2, 8763, Note_on_c, 0, 66, 64
2, 8763, Note_on_c, 0, 46, 64
2, 8823, Note_off_c, 0, 46, 64
2, 8823, Note_on_c, 0, 48, 64
2, 8883, Note_off_c, 0, 48, 64
2, 8883, Note_off_c, 0, 66, 64
2, 8883, Note_off_c, 0, 75, 64
2, 8883, Note_on_c, 0, 68, 64
2, 8883, Note_on_c, 0, 65, 64
2, 8883, Note_on_c, 0, 49, 64
2, 8943, Note_off_c, 0, 49, 64
2, 8943, Note_on_c, 0, 51, 64
2, 9003, Note_off_c, 0, 51, 64
2, 9003, Note_off_c, 0, 65, 64
2, 9003, Note_off_c, 0, 68, 64
2, 9003, Note_on_c, 0, 73, 64
2, 9003, Note_on_c, 0, 68, 64
2, 9003, Note_on_c, 0, 53, 64
2, 9033, Note_off_c, 0, 53, 64
2, 9033, Note_on_c, 0, 51, 64
2, 9063, Note_off_c, 0, 51, 64
2, 9063, Note_on_c, 0, 49, 64
2, 9123, Note_off_c, 0, 49, 64
2, 9123, Note_off_c, 0, 73, 64
2, 9123, Note_on_c, 0, 70, 64
2, 9123, Note_on_c, 0, 54, 64
2, 9183, Note_off_c, 0, 68, 64
2, 9183, Note_on_c, 0, 68, 64
2, 9243, Note_off_c, 0, 68, 64
2, 9243, Note_off_c, 0, 54, 64
2, 9243, Note_off_c, 0, 70, 64
2, 9243, Note_on_c, 0, 66, 64
2, 9243, Note_on_c, 0, 51, 64
2, 9303, Note_off_c, 0, 66, 64
2, 9303, Note_on_c, 0, 65, 64
2, 9363, Note_off_c, 0, 65, 64
2, 9363, Note_off_c, 0, 51, 64
2, 9363, Note_on_c, 0, 72, 64
2, 9363, Note_on_c, 0, 63, 64
2, 9423, Note_off_c, 0, 63, 64
2, 9423, Note_on_c, 0, 61, 64
2, 9483, Note_off_c, 0, 61, 64
2, 9483, Note_off_c, 0, 72, 64
2, 9483, Note_on_c, 0, 56, 64
2, 9483, Note_on_c, 0, 60, 64
2, 9513, Note_off_c, 0, 60, 64
2, 9513, Note_on_c, 0, 61, 64
2, 9543, Note_off_c, 0, 61, 64
2, 9543, Note_on_c, 0, 63, 64
2, 9603, Note_off_c, 0, 63, 64
2, 9603, Note_off_c, 0, 56, 64
2, 9603, Note_on_c, 0, 73, 64
2, 9603, Note_on_c, 0, 56, 64
2, 9603, Note_on_c, 0, 53, 64
2, 9723, Note_off_c, 0, 53, 64
2, 9723, Note_off_c, 0, 73, 64
2, 9723, Note_on_c, 0, 80, 64
2, 9723, Note_on_c, 0, 56, 64
2, 9843, Note_off_c, 0, 56, 64
2, 9843, Note_off_c, 0, 80, 64
2, 9843, Note_off_c, 0, 56, 64
2, 9843, Note_on_c, 0, 77, 64
2, 9843, Note_on_c, 0, 49, 64
2, 9963, Note_off_c, 0, 49, 64
2, 9963, Note_off_c, 0, 77, 64
2, 9963, Note_on_c, 0, 80, 64
2, 9963, Note_on_c, 0, 61, 64
2, 10083, Note_off_c, 0, 61, 64
2, 10083, Note_off_c, 0, 80, 64
2, 10083, Note_on_c, 0, 73, 64
2, 10083, Note_on_c, 0, 65, 64
2, 10203, Note_off_c, 0, 65, 64
2, 10203, Note_on_c, 0, 61, 64
2, 10203, Note_on_c, 0, 49, 64
2, 10323, Note_off_c, 0, 49, 64
2, 10323, Note_off_c, 0, 61, 64
2, 10323, Note_off_c, 0, 73, 64
2, 10323, Note_on_c, 0, 68, 64
2, 10323, Note_on_c, 0, 53, 64
2, 10383, Note_on_c, 0, 71, 64
2, 10443, Note_off_c, 0, 71, 64
2, 10443, Note_off_c, 0, 53, 64
2, 10443, Note_on_c, 0, 49, 64
2, 10443, Note_on_c, 0, 70, 64
2, 10503, Note_off_c, 0, 70, 64
2, 10503, Note_on_c, 0, 68, 64
2, 10563, Note_off_c, 0, 68, 64
2, 10563, Note_off_c, 0, 49, 64
2, 10563, Note_off_c, 0, 68, 64
2, 10563, Note_on_c, 0, 70, 64
2, 10563, Note_on_c, 0, 54, 64
2, 10623, Note_on_c, 0, 68, 64
2, 10683, Note_off_c, 0, 68, 64
2, 10683, Note_off_c, 0, 54, 64
2, 10683, Note_on_c, 0, 66, 64
2, 10683, Note_on_c, 0, 58, 64
2, 10743, Note_off_c, 0, 66, 64
2, 10743, Note_on_c, 0, 65, 64
2, 10803, Note_off_c, 0, 65, 64
2, 10803, Note_off_c, 0, 58, 64
2, 10803, Note_on_c, 0, 66, 64
2, 10803, Note_on_c, 0, 51, 64
2, 10863, Note_off_c, 0, 70, 64
2, 10863, Note_on_c, 0, 70, 64
2, 10923, Note_off_c, 0, 70, 64
2, 10923, Note_off_c, 0, 51, 64
2, 10923, Note_on_c, 0, 75, 64
2, 10923, Note_on_c, 0, 54, 64
2, 10983, Note_off_c, 0, 66, 64
2, 10983, Note_on_c, 0, 66, 64
2, 11043, Note_off_c, 0, 54, 64
2, 11043, Note_off_c, 0, 75, 64
2, 11043, Note_on_c, 0, 68, 64
2, 11043, Note_on_c, 0, 48, 64
2, 11103, Note_off_c, 0, 66, 64
2, 11103, Note_on_c, 0, 66, 64
2, 11163, Note_off_c, 0, 66, 64
2, 11163, Note_off_c, 0, 48, 64
2, 11163, Note_on_c, 0, 65, 64
2, 11163, Note_on_c, 0, 56, 64
2, 11223, Note_off_c, 0, 65, 64
2, 11223, Note_on_c, 0, 63, 64
2, 11283, Note_off_c, 0, 63, 64
2, 11283, Note_off_c, 0, 56, 64
2, 11283, Note_on_c, 0, 65, 64
2, 11283, Note_on_c, 0, 49, 64
2, 11343, Note_off_c, 0, 68, 64
2, 11343, Note_on_c, 0, 68, 64
2, 11403, Note_off_c, 0, 68, 64
2, 11403, Note_off_c, 0, 49, 64
2, 11403, Note_on_c, 0, 53, 64
2, 11403, Note_on_c, 0, 73, 64
2, 11463, Note_off_c, 0, 65, 64
2, 11463, Note_on_c, 0, 65, 64
2, 11523, Note_off_c, 0, 73, 64
2, 11523, Note_off_c, 0, 53, 64
2, 11523, Note_on_c, 0, 66, 64
2, 11523, Note_on_c, 0, 46, 64
2, 11583, Note_off_c, 0, 65, 64
2, 11583, Note_on_c, 0, 65, 64
2, 11643, Note_off_c, 0, 65, 64
2, 11643, Note_off_c, 0, 46, 64
2, 11643, Note_on_c, 0, 63, 64
2, 11643, Note_on_c, 0, 54, 64
2, 11703, Note_off_c, 0, 63, 64
2, 11703, Note_on_c, 0, 61, 64
2, 11763, Note_off_c, 0, 61, 64
2, 11763, Note_off_c, 0, 54, 64
2, 11763, Note_on_c, 0, 63, 64
2, 11763, Note_on_c, 0, 48, 64
2, 11823, Note_off_c, 0, 66, 64
2, 11823, Note_on_c, 0, 65, 64
2, 11883, Note_off_c, 0, 65, 64
2, 11883, Note_off_c, 0, 48, 64
2, 11883, Note_on_c, 0, 66, 64
2, 11883, Note_on_c, 0, 51, 64
2, 11943, Note_off_c, 0, 63, 64
2, 11943, Note_on_c, 0, 63, 64
2, 12003, Note_off_c, 0, 51, 64
2, 12003, Note_off_c, 0, 66, 64
2, 12003, Note_on_c, 0, 65, 64
2, 12003, Note_on_c, 0, 45, 64
2, 12063, Note_off_c, 0, 63, 64
2, 12063, Note_on_c, 0, 63, 64
2, 12123, Note_off_c, 0, 63, 64
2, 12123, Note_off_c, 0, 45, 64
2, 12123, Note_on_c, 0, 61, 64
2, 12123, Note_on_c, 0, 41, 64
2, 12183, Note_off_c, 0, 61, 64
2, 12183, Note_on_c, 0, 60, 64
2, 12243, Note_off_c, 0, 60, 64
2, 12243, Note_off_c, 0, 41, 64
2, 12243, Note_on_c, 0, 61, 64
2, 12243, Note_on_c, 0, 46, 64
2, 12303, Note_off_c, 0, 65, 64
2, 12303, Note_on_c, 0, 63, 64
2, 12363, Note_off_c, 0, 63, 64
2, 12363, Note_off_c, 0, 46, 64
2, 12363, Note_on_c, 0, 44, 64
2, 12363, Note_on_c, 0, 65, 64
2, 12423, Note_off_c, 0, 61, 64
2, 12423, Note_on_c, 0, 60, 64
2, 12483, Note_off_c, 0, 60, 64
2, 12483, Note_off_c, 0, 44, 64
2, 12483, Note_on_c, 0, 58, 64
2, 12483, Note_on_c, 0, 42, 64
2, 12543, Note_off_c, 0, 58, 64
2, 12543, Note_on_c, 0, 57, 64
2, 12603, Note_off_c, 0, 57, 64
2, 12603, Note_off_c, 0, 42, 64
2, 12603, Note_on_c, 0, 58, 64
2, 12603, Note_on_c, 0, 41, 64
2, 12663, Note_off_c, 0, 65, 64
2, 12663, Note_on_c, 0, 65, 64
2, 12723, Note_off_c, 0, 65, 64
2, 12723, Note_off_c, 0, 41, 64
2, 12723, Note_on_c, 0, 63, 64
2, 12723, Note_on_c, 0, 42, 64
2, 12783, Note_off_c, 0, 58, 64
2, 12783, Note_on_c, 0, 61, 64
2, 12843, Note_off_c, 0, 61, 64
2, 12843, Note_on_c, 0, 60, 64
2, 12903, Note_off_c, 0, 60, 64
2, 12903, Note_on_c, 0, 58, 64
2, 12963, Note_off_c, 0, 58, 64
2, 12963, Note_off_c, 0, 42, 64
2, 12963, Note_off_c, 0, 63, 64
2, 12963, Note_on_c, 0, 65, 64
2, 12963, Note_on_c, 0, 57, 64
2, 12963, Note_on_c, 0, 41, 64
2, 13083, Note_off_c, 0, 41, 64
2, 13083, Note_off_c, 0, 57, 64
2, 13083, Note_off_c, 0, 65, 64
2, 13083, Note_on_c, 0, 53, 64
2, 13203, Note_off_c, 0, 53, 64
2, 13203, Note_on_c, 0, 57, 64
2, 13323, Note_off_c, 0, 57, 64
2, 13323, Note_on_c, 0, 77, 64
2, 13323, Note_on_c, 0, 53, 64
2, 13443, Note_off_c, 0, 53, 64
2, 13443, Note_off_c, 0, 77, 64
2, 13443, Note_on_c, 0, 73, 64
2, 13443, Note_on_c, 0, 58, 64
2, 13563, Note_off_c, 0, 58, 64
2, 13563, Note_off_c, 0, 73, 64
2, 13563, Note_on_c, 0, 77, 64
2, 13563, Note_on_c, 0, 58, 64
2, 13683, Note_off_c, 0, 58, 64
2, 13683, Note_off_c, 0, 77, 64
2, 13683, Note_on_c, 0, 70, 64
2, 13683, Note_on_c, 0, 62, 64
2, 13683, Note_on_c, 0, 56, 64
2, 13803, Note_off_c, 0, 56, 64
2, 13803, Note_off_c, 0, 62, 64
2, 13803, Note_on_c, 0, 58, 64
2, 13923, Note_off_c, 0, 58, 64
2, 13923, Note_off_c, 0, 70, 64
2, 13923, Note_on_c, 0, 63, 64
2, 13923, Note_on_c, 0, 55, 64
2, 13983, Note_off_c, 0, 55, 64
2, 13983, Note_on_c, 0, 53, 64
2, 14043, Note_off_c, 0, 53, 64
2, 14043, Note_off_c, 0, 63, 64
2, 14043, Note_on_c, 0, 82, 64
2, 14043, Note_on_c, 0, 51, 64
2, 14163, Note_off_c, 0, 82, 64
2, 14163, Note_on_c, 0, 79, 64
2, 14163, Note_on_c, 0, 61, 64
2, 14223, Note_off_c, 0, 51, 64
2, 14223, Note_on_c, 0, 53, 64
2, 14283, Note_off_c, 0, 53, 64
2, 14283, Note_off_c, 0, 61, 64
2, 14283, Note_off_c, 0, 79, 64
2, 14283, Note_on_c, 0, 82, 64
2, 14283, Note_on_c, 0, 55, 64
2, 14313, Note_off_c, 0, 55, 64
2, 14313, Note_on_c, 0, 53, 64
2, 14343, Note_off_c, 0, 53, 64
2, 14343, Note_on_c, 0, 51, 64
2, 14403, Note_off_c, 0, 51, 64
2, 14403, Note_off_c, 0, 82, 64
2, 14403, Note_on_c, 0, 56, 64
2, 14403, Note_on_c, 0, 75, 64
2, 14403, Note_on_c, 0, 60, 64
2, 14463, Note_off_c, 0, 60, 64
2, 14463, Note_off_c, 0, 56, 64
2, 14463, Note_on_c, 0, 58, 64
2, 14523, Note_off_c, 0, 58, 64
2, 14523, Note_on_c, 0, 56, 64
2, 14643, Note_off_c, 0, 75, 64
2, 14643, Note_on_c, 0, 77, 64
2, 14703, Note_off_c, 0, 56, 64
2, 14703, Note_on_c, 0, 58, 64
2, 14763, Note_off_c, 0, 58, 64
2, 14763, Note_on_c, 0, 59, 64
2, 14793, Note_off_c, 0, 59, 64
2, 14793, Note_on_c, 0, 58, 64
2, 14823, Note_off_c, 0, 58, 64
2, 14823, Note_on_c, 0, 56, 64
2, 14883, Note_off_c, 0, 56, 64
2, 14883, Note_off_c, 0, 77, 64
2, 14883, Note_on_c, 0, 78, 64
2, 14883, Note_on_c, 0, 58, 64
2, 14943, Note_off_c, 0, 58, 64
2, 14943, Note_off_c, 0, 78, 64
2, 14943, Note_on_c, 0, 80, 64
2, 14943, Note_on_c, 0, 60, 64
2, 15003, Note_off_c, 0, 60, 64
2, 15003, Note_off_c, 0, 80, 64
2, 15003, Note_on_c, 0, 82, 64
2, 15003, Note_on_c, 0, 61, 64
2, 15033, Note_off_c, 0, 61, 64
2, 15033, Note_on_c, 0, 60, 64
2, 15063, Note_off_c, 0, 60, 64
2, 15063, Note_on_c, 0, 58, 64
2, 15123, Note_off_c, 0, 58, 64
2, 15123, Note_on_c, 0, 60, 64
2, 15183, Note_off_c, 0, 60, 64
2, 15183, Note_off_c, 0, 82, 64
2, 15183, Note_on_c, 0, 80, 64
2, 15183, Note_on_c, 0, 61, 64
2, 15243, Note_off_c, 0, 61, 64
2, 15243, Note_off_c, 0, 80, 64
2, 15243, Note_on_c, 0, 78, 64
2, 15243, Note_on_c, 0, 63, 64
2, 15273, Note_off_c, 0, 63, 64
2, 15273, Note_on_c, 0, 61, 64
2, 15303, Note_off_c, 0, 61, 64
2, 15303, Note_off_c, 0, 78, 64
2, 15303, Note_on_c, 0, 60, 64
2, 15303, Note_on_c, 0, 80, 64
2, 15363, Note_off_c, 0, 80, 64
2, 15363, Note_off_c, 0, 60, 64
2, 15363, Note_on_c, 0, 77, 64
2, 15363, Note_on_c, 0, 61, 64
2, 15423, Note_off_c, 0, 77, 64
2, 15423, Note_on_c, 0, 78, 64
2, 15483, Note_off_c, 0, 78, 64
2, 15483, Note_on_c, 0, 80, 64
2, 15483, Note_on_c, 0, 49, 64
2, 15603, Note_off_c, 0, 49, 64
2, 15603, Note_on_c, 0, 53, 64
2, 15663, Note_off_c, 0, 80, 64
2, 15663, Note_on_c, 0, 78, 64
2, 15723, Note_off_c, 0, 78, 64
2, 15723, Note_off_c, 0, 53, 64
2, 15723, Note_on_c, 0, 77, 64
2, 15723, Note_on_c, 0, 49, 64
2, 15783, Note_off_c, 0, 77, 64
2, 15783, Note_on_c, 0, 78, 64
2, 15843, Note_off_c, 0, 78, 64
2, 15843, Note_off_c, 0, 49, 64
2, 15843, Note_on_c, 0, 56, 64
2, 15843, Note_on_c, 0, 75, 64
2, 15903, Note_off_c, 0, 75, 64
2, 15903, Note_on_c, 0, 80, 64
2, 15963, Note_off_c, 0, 80, 64
2, 15963, Note_off_c, 0, 61, 64
2, 15963, Note_on_c, 0, 78, 64
2, 15963, Note_on_c, 0, 61, 64
2, 16023, Note_off_c, 0, 78, 64
2, 16023, Note_on_c, 0, 77, 64
2, 16083, Note_off_c, 0, 77, 64
2, 16083, Note_off_c, 0, 61, 64
2, 16083, Note_on_c, 0, 75, 64
2, 16083, Note_on_c, 0, 60, 64
2, 16143, Note_off_c, 0, 75, 64
2, 16143, Note_on_c, 0, 73, 64
2, 16203, Note_off_c, 0, 73, 64
2, 16203, Note_off_c, 0, 60, 64
2, 16203, Note_on_c, 0, 65, 64
2, 16203, Note_on_c, 0, 72, 64
2, 16233, Note_off_c, 0, 72, 64
2, 16233, Note_on_c, 0, 73, 64
2, 16263, Note_off_c, 0, 73, 64
2, 16263, Note_on_c, 0, 75, 64
2, 16323, Note_off_c, 0, 75, 64
2, 16323, Note_off_c, 0, 65, 64
2, 16323, Note_on_c, 0, 73, 64
2, 16323, Note_on_c, 0, 58, 64
2, 16383, Note_off_c, 0, 73, 64
2, 16383, Note_on_c, 0, 70, 64
2, 16443, Note_off_c, 0, 70, 64
2, 16443, Note_off_c, 0, 56, 64
2, 16443, Note_on_c, 0, 72, 64
2, 16443, Note_on_c, 0, 56, 64
2, 16503, Note_off_c, 0, 72, 64
2, 16503, Note_on_c, 0, 73, 64
2, 16563, Note_off_c, 0, 73, 64
2, 16563, Note_off_c, 0, 56, 64
2, 16563, Note_on_c, 0, 75, 64
2, 16563, Note_on_c, 0, 54, 64
2, 16623, Note_off_c, 0, 75, 64
2, 16623, Note_on_c, 0, 77, 64
2, 16683, Note_off_c, 0, 77, 64
2, 16683, Note_off_c, 0, 58, 64
2, 16683, Note_on_c, 0, 78, 64
2, 16683, Note_on_c, 0, 63, 64
2, 16713, Note_off_c, 0, 78, 64
2, 16713, Note_on_c, 0, 77, 64
2, 16743, Note_off_c, 0, 77, 64
2, 16743, Note_on_c, 0, 75, 64
2, 16803, Note_off_c, 0, 75, 64
2, 16803, Note_off_c, 0, 63, 64
2, 16803, Note_on_c, 0, 73, 64
2, 16803, Note_on_c, 0, 56, 64
2, 16863, Note_off_c, 0, 73, 64
2, 16863, Note_on_c, 0, 72, 64
2, 16923, Note_off_c, 0, 72, 64
2, 16923, Note_off_c, 0, 54, 64
2, 16923, Note_on_c, 0, 70, 64
2, 16923, Note_on_c, 0, 54, 64
2, 16983, Note_off_c, 0, 70, 64
2, 16983, Note_on_c, 0, 68, 64
2, 17043, Note_off_c, 0, 68, 64
2, 17043, Note_off_c, 0, 54, 64
2, 17043, Note_off_c, 0, 56, 64
2, 17043, Note_on_c, 0, 73, 64
2, 17043, Note_on_c, 0, 53, 64
2, 17103, Note_on_c, 0, 68, 64
2, 17163, Note_off_c, 0, 68, 64
2, 17163, Note_off_c, 0, 53, 64
2, 17163, Note_off_c, 0, 73, 64
2, 17163, Note_on_c, 0, 65, 64
2, 17223, Note_off_c, 0, 65, 64
2, 17223, Note_on_c, 0, 68, 64
2, 17283, Note_off_c, 0, 68, 64
2, 17283, Note_on_c, 0, 61, 64
2, 17283, Note_on_c, 0, 70, 64
2, 17343, Note_on_c, 0, 58, 64
2, 17403, Note_off_c, 0, 58, 64
2, 17403, Note_off_c, 0, 70, 64
2, 17403, Note_off_c, 0, 61, 64
2, 17403, Note_on_c, 0, 54, 64
2, 17463, Note_off_c, 0, 54, 64
2, 17463, Note_on_c, 0, 58, 64
2, 17523, Note_off_c, 0, 58, 64
2, 17523, Note_on_c, 0, 78, 64
2, 17523, Note_on_c, 0, 51, 64
2, 17583, Note_on_c, 0, 60, 64
2, 17643, Note_off_c, 0, 60, 64
2, 17643, Note_off_c, 0, 51, 64
2, 17643, Note_off_c, 0, 78, 64
2, 17643, Note_on_c, 0, 56, 64
2, 17703, Note_off_c, 0, 56, 64
2, 17703, Note_on_c, 0, 60, 64
2, 17763, Note_off_c, 0, 60, 64
2, 17763, Note_on_c, 0, 61, 64
2, 17763, Note_on_c, 0, 49, 64
2, 17823, Note_on_c, 0, 78, 64
2, 17883, Note_off_c, 0, 78, 64
2, 17883, Note_off_c, 0, 49, 64
2, 17883, Note_off_c, 0, 61, 64
2, 17883, Note_on_c, 0, 77, 64
2, 17883, Note_on_c, 0, 56, 64
2, 17943, Note_off_c, 0, 77, 64
2, 17943, Note_on_c, 0, 75, 64
2, 18003, Note_off_c, 0, 75, 64
2, 18003, Note_off_c, 0, 56, 64
2, 18003, Note_on_c, 0, 61, 64
2, 18003, Note_on_c, 0, 77, 64
2, 18033, Note_off_c, 0, 77, 64
2, 18033, Note_on_c, 0, 78, 64
2, 18063, Note_off_c, 0, 78, 64
2, 18063, Note_on_c, 0, 80, 64
2, 18063, Note_on_c, 0, 49, 64
2, 18123, Note_off_c, 0, 49, 64
2, 18123, Note_off_c, 0, 80, 64
2, 18123, Note_on_c, 0, 73, 64
2, 18123, Note_on_c, 0, 53, 64
2, 18153, Note_off_c, 0, 73, 64
2, 18153, Note_on_c, 0, 75, 64
2, 18183, Note_off_c, 0, 75, 64
2, 18183, Note_off_c, 0, 53, 64
2, 18183, Note_on_c, 0, 77, 64
2, 18183, Note_on_c, 0, 49, 64
2, 18243, Note_off_c, 0, 49, 64
2, 18243, Note_off_c, 0, 77, 64
2, 18243, Note_on_c, 0, 70, 64
2, 18243, Note_on_c, 0, 54, 64
2, 18303, Note_off_c, 0, 70, 64
2, 18303, Note_on_c, 0, 77, 64
2, 18363, Note_off_c, 0, 77, 64
2, 18363, Note_off_c, 0, 54, 64
2, 18363, Note_off_c, 0, 61, 64
2, 18363, Note_on_c, 0, 75, 64
2, 18363, Note_on_c, 0, 58, 64
2, 18423, Note_off_c, 0, 75, 64
2, 18423, Note_on_c, 0, 73, 64
2, 18483, Note_off_c, 0, 73, 64
2, 18483, Note_off_c, 0, 58, 64
2, 18483, Note_on_c, 0, 75, 64
2, 18483, Note_on_c, 0, 54, 64
2, 18513, Note_off_c, 0, 75, 64
2, 18513, Note_on_c, 0, 77, 64
2, 18543, Note_off_c, 0, 77, 64
2, 18543, Note_on_c, 0, 78, 64
2, 18603, Note_off_c, 0, 78, 64
2, 18603, Note_on_c, 0, 72, 64
2, 18603, Note_on_c, 0, 51, 64
2, 18633, Note_off_c, 0, 72, 64
2, 18633, Note_on_c, 0, 73, 64
2, 18663, Note_off_c, 0, 73, 64
2, 18663, Note_on_c, 0, 75, 64
2, 18723, Note_off_c, 0, 75, 64
2, 18723, Note_off_c, 0, 51, 64
2, 18723, Note_on_c, 0, 68, 64
2, 18723, Note_on_c, 0, 48, 64
2, 18783, Note_off_c, 0, 68, 64
2, 18783, Note_on_c, 0, 75, 64
2, 18843, Note_off_c, 0, 75, 64
2, 18843, Note_off_c, 0, 48, 64
2, 18843, Note_off_c, 0, 54, 64
2, 18843, Note_on_c, 0, 73, 64
2, 18843, Note_on_c, 0, 56, 64
2, 18903, Note_off_c, 0, 73, 64
2, 18903, Note_on_c, 0, 72, 64
2, 18963, Note_off_c, 0, 72, 64
2, 18963, Note_off_c, 0, 56, 64
2, 18963, Note_on_c, 0, 73, 64
2, 18963, Note_on_c, 0, 53, 64
2, 18993, Note_off_c, 0, 73, 64
2, 18993, Note_on_c, 0, 75, 64
2, 19023, Note_off_c, 0, 75, 64
2, 19023, Note_on_c, 0, 77, 64
2, 19083, Note_off_c, 0, 77, 64
2, 19083, Note_off_c, 0, 53, 64
2, 19083, Note_on_c, 0, 49, 64
2, 19083, Note_on_c, 0, 65, 64
2, 19083, Note_on_c, 0, 68, 64
2, 19113, Note_off_c, 0, 68, 64
2, 19113, Note_on_c, 0, 70, 64
2, 19143, Note_off_c, 0, 70, 64
2, 19143, Note_on_c, 0, 71, 64
2, 19203, Note_off_c, 0, 71, 64
2, 19203, Note_off_c, 0, 49, 64
2, 19203, Note_on_c, 0, 70, 64
2, 19203, Note_on_c, 0, 42, 64
2, 19263, Note_off_c, 0, 65, 64
2, 19263, Note_on_c, 0, 61, 64
2, 19323, Note_off_c, 0, 61, 64
2, 19323, Note_off_c, 0, 42, 64
2, 19323, Note_on_c, 0, 63, 64
2, 19323, Note_on_c, 0, 54, 64
2, 19383, Note_off_c, 0, 70, 64
2, 19383, Note_on_c, 0, 66, 64
2, 19443, Note_off_c, 0, 66, 64
2, 19443, Note_off_c, 0, 54, 64
2, 19443, Note_on_c, 0, 68, 64
2, 19443, Note_on_c, 0, 53, 64
2, 19503, Note_off_c, 0, 63, 64
2, 19503, Note_on_c, 0, 60, 64
2, 19563, Note_off_c, 0, 60, 64
2, 19563, Note_off_c, 0, 53, 64
2, 19563, Note_on_c, 0, 61, 64
2, 19563, Note_on_c, 0, 46, 64
2, 19623, Note_off_c, 0, 68, 64
2, 19623, Note_on_c, 0, 65, 64
2, 19683, Note_off_c, 0, 65, 64
2, 19683, Note_off_c, 0, 46, 64
2, 19683, Note_on_c, 0, 66, 64
2, 19683, Note_on_c, 0, 51, 64
2, 19743, Note_off_c, 0, 61, 64
2, 19743, Note_on_c, 0, 58, 64
2, 19803, Note_off_c, 0, 58, 64
2, 19803, Note_off_c, 0, 51, 64
2, 19803, Note_on_c, 0, 60, 64
2, 19803, Note_on_c, 0, 44, 64
2, 19863, Note_off_c, 0, 66, 64
2, 19863, Note_on_c, 0, 63, 64
2, 19923, Note_off_c, 0, 63, 64
2, 19923, Note_off_c, 0, 44, 64
2, 19923, Note_off_c, 0, 60, 64
2, 19923, Note_on_c, 0, 65, 64
2, 19923, Note_on_c, 0, 49, 64
2, 19983, Note_on_c, 0, 61, 64
2, 20043, Note_off_c, 0, 61, 64
2, 20043, Note_off_c, 0, 49, 64
2, 20043, Note_on_c, 0, 37, 64
2, 20043, Note_on_c, 0, 56, 64
2, 20103, Note_off_c, 0, 56, 64
2, 20103, Note_on_c, 0, 59, 64
2, 20163, Note_off_c, 0, 59, 64
2, 20163, Note_off_c, 0, 37, 64
2, 20163, Note_on_c, 0, 58, 64
2, 20163, Note_on_c, 0, 42, 64
2, 20223, Note_off_c, 0, 42, 64
2, 20223, Note_on_c, 0, 49, 64
2, 20283, Note_off_c, 0, 49, 64
2, 20283, Note_on_c, 0, 46, 64
2, 20343, Note_off_c, 0, 46, 64
2, 20343, Note_on_c, 0, 49, 64
2, 20403, Note_off_c, 0, 49, 64
2, 20403, Note_on_c, 0, 54, 64
2, 20463, Note_off_c, 0, 65, 64
2, 20463, Note_on_c, 0, 63, 64
2, 20523, Note_off_c, 0, 63, 64
2, 20523, Note_on_c, 0, 66, 64
2, 20583, Note_off_c, 0, 66, 64
2, 20583, Note_on_c, 0, 63, 64
2, 20643, Note_off_c, 0, 63, 64
2, 20643, Note_off_c, 0, 58, 64
2, 20643, Note_on_c, 0, 60, 64
2, 20703, Note_on_c, 0, 56, 64
2, 20763, Note_off_c, 0, 60, 64
2, 20763, Note_off_c, 0, 54, 64
2, 20763, Note_on_c, 0, 60, 64
2, 20763, Note_on_c, 0, 54, 64
2, 20823, Note_off_c, 0, 60, 64
2, 20823, Note_on_c, 0, 63, 64
2, 20883, Note_off_c, 0, 63, 64
2, 20883, Note_off_c, 0, 54, 64
2, 20883, Note_on_c, 0, 68, 64
2, 20883, Note_on_c, 0, 53, 64
2, 20943, Note_off_c, 0, 56, 64
2, 20943, Note_on_c, 0, 61, 64
2, 21003, Note_off_c, 0, 61, 64
2, 21003, Note_off_c, 0, 53, 64
2, 21003, Note_on_c, 0, 56, 64
2, 21003, Note_on_c, 0, 60, 64
2, 21063, Note_off_c, 0, 68, 64
2, 21063, Note_on_c, 0, 66, 64
2, 21123, Note_off_c, 0, 66, 64
2, 21123, Note_off_c, 0, 60, 64
2, 21123, Note_off_c, 0, 56, 64
2, 21123, Note_on_c, 0, 65, 64
2, 21123, Note_on_c, 0, 49, 64
2, 21183, Note_on_c, 0, 61, 64
2, 21243, Note_off_c, 0, 49, 64
2, 21243, Note_off_c, 0, 65, 64
2, 21243, Note_on_c, 0, 65, 64
2, 21243, Note_on_c, 0, 59, 64
2, 21303, Note_off_c, 0, 65, 64
2, 21303, Note_on_c, 0, 68, 64
2, 21363, Note_off_c, 0, 68, 64
2, 21363, Note_off_c, 0, 59, 64
2, 21363, Note_on_c, 0, 73, 64
2, 21363, Note_on_c, 0, 58, 64
2, 21423, Note_off_c, 0, 61, 64
2, 21423, Note_on_c, 0, 66, 64
2, 21483, Note_off_c, 0, 66, 64
2, 21483, Note_off_c, 0, 58, 64
2, 21483, Note_on_c, 0, 65, 64
2, 21483, Note_on_c, 0, 61, 64
2, 21543, Note_off_c, 0, 73, 64
2, 21543, Note_on_c, 0, 71, 64
2, 21603, Note_off_c, 0, 71, 64
2, 21603, Note_off_c, 0, 61, 64
2, 21603, Note_off_c, 0, 65, 64
2, 21603, Note_on_c, 0, 70, 64
2, 21603, Note_on_c, 0, 54, 64
2, 21663, Note_on_c, 0, 66, 64
2, 21723, Note_off_c, 0, 54, 64
2, 21723, Note_off_c, 0, 70, 64
2, 21723, Note_on_c, 0, 70, 64
2, 21723, Note_on_c, 0, 53, 64
2, 21783, Note_off_c, 0, 70, 64
2, 21783, Note_on_c, 0, 73, 64
2, 21843, Note_off_c, 0, 73, 64
2, 21843, Note_off_c, 0, 53, 64
2, 21843, Note_on_c, 0, 78, 64
2, 21843, Note_on_c, 0, 51, 64
2, 21903, Note_off_c, 0, 66, 64
2, 21903, Note_on_c, 0, 71, 64
2, 21963, Note_off_c, 0, 71, 64
2, 21963, Note_off_c, 0, 51, 64
2, 21963, Note_on_c, 0, 54, 64
2, 21963, Note_on_c, 0, 70, 64
2, 22023, Note_off_c, 0, 70, 64
2, 22023, Note_on_c, 0, 75, 64
2, 22083, Note_off_c, 0, 75, 64
2, 22083, Note_off_c, 0, 54, 64
2, 22083, Note_on_c, 0, 68, 64
2, 22083, Note_on_c, 0, 48, 64
2, 22143, Note_off_c, 0, 78, 64
2, 22143, Note_on_c, 0, 70, 64
2, 22203, Note_off_c, 0, 70, 64
2, 22203, Note_off_c, 0, 48, 64
2, 22203, Note_on_c, 0, 72, 64
2, 22203, Note_on_c, 0, 56, 64
2, 22263, Note_off_c, 0, 72, 64
2, 22263, Note_on_c, 0, 73, 64
2, 22323, Note_off_c, 0, 73, 64
2, 22323, Note_off_c, 0, 56, 64
2, 22323, Note_off_c, 0, 68, 64
2, 22323, Note_on_c, 0, 75, 64
2, 22323, Note_on_c, 0, 60, 64
2, 22383, Note_off_c, 0, 75, 64
2, 22383, Note_on_c, 0, 77, 64
2, 22443, Note_off_c, 0, 77, 64
2, 22443, Note_off_c, 0, 60, 64
2, 22443, Note_on_c, 0, 78, 64
2, 22443, Note_on_c, 0, 56, 64
2, 22473, Note_off_c, 0, 78, 64
2, 22473, Note_on_c, 0, 77, 64
2, 22503, Note_off_c, 0, 77, 64
2, 22503, Note_on_c, 0, 75, 64
2, 22563, Note_off_c, 0, 75, 64
2, 22563, Note_off_c, 0, 56, 64
2, 22563, Note_on_c, 0, 77, 64
2, 22563, Note_on_c, 0, 61, 64
2, 22623, Note_off_c, 0, 77, 64
2, 22623, Note_on_c, 0, 78, 64
2, 22623, Note_on_c, 0, 60, 64
2, 22683, Note_off_c, 0, 60, 64
2, 22683, Note_off_c, 0, 78, 64
2, 22683, Note_off_c, 0, 61, 64
2, 22683, Note_on_c, 0, 77, 64
2, 22683, Note_on_c, 0, 61, 64
2, 22743, Note_off_c, 0, 61, 64
2, 22743, Note_off_c, 0, 77, 64
2, 22743, Note_on_c, 0, 75, 64
2, 22743, Note_on_c, 0, 63, 64
2, 22803, Note_off_c, 0, 63, 64
2, 22803, Note_off_c, 0, 75, 64
2, 22803, Note_on_c, 0, 73, 64
2, 22803, Note_on_c, 0, 65, 64
2, 22803, Note_on_c, 0, 58, 64
2, 22863, Note_off_c, 0, 65, 64
2, 22863, Note_off_c, 0, 73, 64
2, 22863, Note_on_c, 0, 72, 64
2, 22863, Note_on_c, 0, 67, 64
2, 22923, Note_off_c, 0, 67, 64
2, 22923, Note_off_c, 0, 72, 64
2, 22923, Note_off_c, 0, 58, 64
2, 22923, Note_on_c, 0, 70, 64
2, 22923, Note_on_c, 0, 68, 64
2, 22953, Note_off_c, 0, 70, 64
2, 22953, Note_on_c, 0, 72, 64
2, 22983, Note_off_c, 0, 72, 64
2, 22983, Note_off_c, 0, 68, 64
2, 22983, Note_on_c, 0, 67, 64
2, 22983, Note_on_c, 0, 73, 64
2, 23043, Note_off_c, 0, 73, 64
2, 23043, Note_off_c, 0, 67, 64
2, 23043, Note_on_c, 0, 72, 64
2, 23043, Note_on_c, 0, 68, 64
2, 23103, Note_on_c, 0, 56, 64
2, 23163, Note_off_c, 0, 56, 64
2, 23163, Note_off_c, 0, 68, 64
2, 23163, Note_off_c, 0, 72, 64
2, 23163, Note_on_c, 0, 80, 64
2, 23163, Note_on_c, 0, 58, 64
2, 23223, Note_off_c, 0, 58, 64
2, 23223, Note_on_c, 0, 60, 64
2, 23283, Note_off_c, 0, 60, 64
2, 23283, Note_off_c, 0, 80, 64
2, 23283, Note_on_c, 0, 77, 64
2, 23283, Note_on_c, 0, 61, 64
2, 23343, Note_on_c, 0, 63, 64
2, 23403, Note_off_c, 0, 63, 64
2, 23403, Note_off_c, 0, 77, 64
2, 23403, Note_on_c, 0, 80, 64
2, 23403, Note_on_c, 0, 65, 64
2, 23463, Note_off_c, 0, 65, 64
2, 23463, Note_on_c, 0, 61, 64
2, 23523, Note_off_c, 0, 61, 64
2, 23523, Note_off_c, 0, 80, 64
2, 23523, Note_off_c, 0, 61, 64
2, 23523, Note_on_c, 0, 73, 64
2, 23523, Note_on_c, 0, 65, 64
2, 23523, Note_on_c, 0, 58, 64
2, 23583, Note_off_c, 0, 73, 64
2, 23583, Note_on_c, 0, 77, 64
2, 23643, Note_off_c, 0, 77, 64
2, 23643, Note_off_c, 0, 58, 64
2, 23643, Note_on_c, 0, 78, 64
2, 23643, Note_on_c, 0, 58, 64
2, 23703, Note_off_c, 0, 78, 64
2, 23703, Note_on_c, 0, 80, 64
2, 23763, Note_off_c, 0, 80, 64
2, 23763, Note_off_c, 0, 58, 64
2, 23763, Note_off_c, 0, 65, 64
2, 23763, Note_on_c, 0, 61, 64
2, 23763, Note_on_c, 0, 82, 64
2, 23823, Note_off_c, 0, 82, 64
2, 23823, Note_on_c, 0, 84, 64
2, 23883, Note_off_c, 0, 84, 64
2, 23883, Note_on_c, 0, 58, 64
2, 23883, Note_on_c, 0, 85, 64
2, 23943, Note_off_c, 0, 85, 64
2, 23943, Note_on_c, 0, 82, 64
2, 24003, Note_off_c, 0, 82, 64
2, 24003, Note_off_c, 0, 58, 64
2, 24003, Note_off_c, 0, 61, 64
2, 24003, Note_on_c, 0, 78, 64
2, 24003, Note_on_c, 0, 66, 64
2, 24003, Note_on_c, 0, 63, 64
2, 24063, Note_off_c, 0, 78, 64
2, 24063, Note_on_c, 0, 80, 64
2, 24123, Note_off_c, 0, 80, 64
2, 24123, Note_off_c, 0, 63, 64
2, 24123, Note_off_c, 0, 66, 64
2, 24123, Note_on_c, 0, 78, 64
2, 24123, Note_on_c, 0, 51, 64
2, 24183, Note_off_c, 0, 78, 64
2, 24183, Note_on_c, 0, 77, 64
2, 24243, Note_off_c, 0, 77, 64
2, 24243, Note_off_c, 0, 51, 64
2, 24243, Note_on_c, 0, 75, 64
2, 24243, Note_on_c, 0, 48, 64
2, 24303, Note_off_c, 0, 75, 64
2, 24303, Note_on_c, 0, 73, 64
2, 24363, Note_off_c, 0, 73, 64
2, 24363, Note_off_c, 0, 48, 64
2, 24363, Note_on_c, 0, 72, 64
2, 24363, Note_on_c, 0, 66, 64
2, 24363, Note_on_c, 0, 51, 64
2, 24393, Note_off_c, 0, 72, 64
2, 24393, Note_on_c, 0, 73, 64
2, 24423, Note_off_c, 0, 73, 64
2, 24423, Note_on_c, 0, 75, 64
2, 24483, Note_off_c, 0, 75, 64
2, 24483, Note_off_c, 0, 51, 64
2, 24483, Note_on_c, 0, 68, 64
2, 24483, Note_on_c, 0, 53, 64
2, 24543, Note_off_c, 0, 66, 64
2, 24543, Note_on_c, 0, 70, 64
2, 24603, Note_off_c, 0, 70, 64
2, 24603, Note_off_c, 0, 53, 64
2, 24603, Note_off_c, 0, 68, 64
2, 24603, Note_on_c, 0, 68, 64
2, 24603, Note_on_c, 0, 41, 64
2, 24663, Note_on_c, 0, 66, 64
2, 24723, Note_off_c, 0, 66, 64
2, 24723, Note_off_c, 0, 41, 64
2, 24723, Note_on_c, 0, 65, 64
2, 24723, Note_on_c, 0, 37, 64
2, 24783, Note_off_c, 0, 65, 64
2, 24783, Note_on_c, 0, 63, 64
2, 24843, Note_off_c, 0, 63, 64
2, 24843, Note_off_c, 0, 37, 64
2, 24843, Note_on_c, 0, 41, 64
2, 24843, Note_on_c, 0, 61, 64
2, 24873, Note_off_c, 0, 61, 64
2, 24873, Note_on_c, 0, 63, 64
2, 24903, Note_off_c, 0, 63, 64
2, 24903, Note_on_c, 0, 65, 64
2, 24963, Note_off_c, 0, 65, 64
2, 24963, Note_off_c, 0, 41, 64
2, 24963, Note_on_c, 0, 58, 64
2, 24963, Note_on_c, 0, 42, 64
2, 25023, Note_off_c, 0, 68, 64
2, 25023, Note_on_c, 0, 61, 64
2, 25083, Note_off_c, 0, 61, 64
2, 25083, Note_on_c, 0, 63, 64
2, 25143, Note_off_c, 0, 63, 64
2, 25143, Note_on_c, 0, 65, 64
2, 25203, Note_off_c, 0, 65, 64
2, 25203, Note_off_c, 0, 42, 64
2, 25203, Note_off_c, 0, 58, 64
2, 25203, Note_on_c, 0, 66, 64
2, 25203, Note_on_c, 0, 51, 64
2, 25263, Note_off_c, 0, 66, 64
2, 25263, Note_on_c, 0, 68, 64
2, 25323, Note_off_c, 0, 68, 64
2, 25323, Note_on_c, 0, 70, 64
2, 25323, Note_on_c, 0, 63, 64
2, 25383, Note_off_c, 0, 70, 64
2, 25383, Note_on_c, 0, 66, 64
2, 25443, Note_off_c, 0, 66, 64
2, 25443, Note_off_c, 0, 51, 64
2, 25443, Note_on_c, 0, 63, 64
2, 25443, Note_on_c, 0, 58, 64
2, 25443, Note_on_c, 0, 54, 64
2, 25444, Note_off_c, 0, 63, 64
2, 25503, Note_off_c, 0, 63, 64
2, 25503, Note_on_c, 0, 65, 64
2, 25563, Note_off_c, 0, 65, 64
2, 25563, Note_off_c, 0, 58, 64
2, 25563, Note_on_c, 0, 66, 64
2, 25563, Note_on_c, 0, 63, 64
2, 25623, Note_off_c, 0, 66, 64
2, 25623, Note_on_c, 0, 68, 64
2, 25683, Note_off_c, 0, 68, 64
2, 25683, Note_off_c, 0, 63, 64
2, 25683, Note_off_c, 0, 54, 64
2, 25683, Note_on_c, 0, 51, 64
2, 25683, Note_on_c, 0, 70, 64
2, 25683, Note_on_c, 0, 54, 64
2, 25743, Note_off_c, 0, 70, 64
2, 25743, Note_on_c, 0, 72, 64
2, 25803, Note_off_c, 0, 72, 64
2, 25803, Note_off_c, 0, 54, 64
2, 25803, Note_on_c, 0, 66, 64
2, 25803, Note_on_c, 0, 73, 64
2, 25833, Note_off_c, 0, 73, 64
2, 25833, Note_on_c, 0, 72, 64
2, 25863, Note_off_c, 0, 72, 64
2, 25863, Note_on_c, 0, 70, 64
2, 25923, Note_off_c, 0, 70, 64
2, 25923, Note_off_c, 0, 51, 64
2, 25923, Note_on_c, 0, 72, 64
2, 25923, Note_on_c, 0, 56, 64
2, 25983, Note_off_c, 0, 66, 64
2, 25983, Note_on_c, 0, 68, 64
2, 26043, Note_off_c, 0, 68, 64
2, 26043, Note_off_c, 0, 72, 64
2, 26043, Note_on_c, 0, 75, 64
2, 26043, Note_on_c, 0, 66, 64
2, 26103, Note_off_c, 0, 66, 64
2, 26103, Note_off_c, 0, 75, 64
2, 26103, Note_on_c, 0, 73, 64
2, 26103, Note_on_c, 0, 64, 64
2, 26163, Note_off_c, 0, 64, 64
2, 26163, Note_off_c, 0, 73, 64
2, 26163, Note_on_c, 0, 72, 64
2, 26163, Note_on_c, 0, 63, 64
2, 26223, Note_off_c, 0, 63, 64
2, 26223, Note_on_c, 0, 61, 64
2, 26283, Note_off_c, 0, 61, 64
2, 26283, Note_off_c, 0, 72, 64
2, 26283, Note_on_c, 0, 75, 64
2, 26283, Note_on_c, 0, 60, 64
2, 26313, Note_off_c, 0, 60, 64
2, 26313, Note_on_c, 0, 61, 64
2, 26343, Note_off_c, 0, 61, 64
2, 26343, Note_on_c, 0, 63, 64
2, 26403, Note_off_c, 0, 63, 64
2, 26403, Note_off_c, 0, 75, 64
2, 26403, Note_on_c, 0, 68, 64
2, 26403, Note_on_c, 0, 64, 64
2, 26463, Note_off_c, 0, 64, 64
2, 26463, Note_on_c, 0, 66, 64
2, 26523, Note_off_c, 0, 66, 64
2, 26523, Note_off_c, 0, 68, 64
2, 26523, Note_on_c, 0, 73, 64
2, 26523, Note_on_c, 0, 64, 64
2, 26583, Note_off_c, 0, 64, 64
2, 26583, Note_on_c, 0, 63, 64
2, 26643, Note_off_c, 0, 63, 64
2, 26643, Note_off_c, 0, 73, 64
2, 26643, Note_on_c, 0, 76, 64
2, 26643, Note_on_c, 0, 61, 64
2, 26703, Note_off_c, 0, 61, 64
2, 26703, Note_on_c, 0, 60, 64
2, 26763, Note_off_c, 0, 60, 64
2, 26763, Note_off_c, 0, 76, 64
2, 26763, Note_on_c, 0, 73, 64
2, 26763, Note_on_c, 0, 58, 64
2, 26793, Note_off_c, 0, 58, 64
2, 26793, Note_on_c, 0, 60, 64
2, 26823, Note_off_c, 0, 60, 64
2, 26823, Note_on_c, 0, 61, 64
2, 26883, Note_off_c, 0, 61, 64
2, 26883, Note_off_c, 0, 73, 64
2, 26883, Note_on_c, 0, 78, 64
2, 26883, Note_on_c, 0, 60, 64
2, 26943, Note_off_c, 0, 78, 64
2, 26943, Note_on_c, 0, 81, 64
2, 27003, Note_off_c, 0, 81, 64
2, 27003, Note_off_c, 0, 60, 64
2, 27003, Note_on_c, 0, 80, 64
2, 27003, Note_on_c, 0, 63, 64
2, 27063, Note_off_c, 0, 80, 64
2, 27063, Note_on_c, 0, 78, 64
2, 27123, Note_off_c, 0, 78, 64
2, 27123, Note_off_c, 0, 63, 64
2, 27123, Note_on_c, 0, 76, 64
2, 27123, Note_on_c, 0, 61, 64
2, 27183, Note_off_c, 0, 76, 64
2, 27183, Note_on_c, 0, 75, 64
2, 27243, Note_off_c, 0, 75, 64
2, 27243, Note_off_c, 0, 61, 64
2, 27243, Note_on_c, 0, 73, 64
2, 27243, Note_on_c, 0, 64, 64
2, 27273, Note_off_c, 0, 73, 64
2, 27273, Note_on_c, 0, 75, 64
2, 27303, Note_off_c, 0, 75, 64
2, 27303, Note_on_c, 0, 76, 64
2, 27363, Note_off_c, 0, 76, 64
2, 27363, Note_off_c, 0, 64, 64
2, 27363, Note_on_c, 0, 67, 64
2, 27363, Note_on_c, 0, 58, 64
2, 27423, Note_off_c, 0, 67, 64
2, 27423, Note_on_c, 0, 68, 64
2, 27483, Note_off_c, 0, 68, 64
2, 27483, Note_off_c, 0, 58, 64
2, 27483, Note_on_c, 0, 61, 64
2, 27483, Note_on_c, 0, 70, 64
2, 27543, Note_off_c, 0, 70, 64
2, 27543, Note_on_c, 0, 72, 64
2, 27603, Note_off_c, 0, 72, 64
2, 27603, Note_on_c, 0, 64, 64
2, 27603, Note_on_c, 0, 73, 64
2, 27663, Note_off_c, 0, 73, 64
2, 27663, Note_on_c, 0, 75, 64
2, 27723, Note_off_c, 0, 75, 64
2, 27723, Note_on_c, 0, 67, 64
2, 27723, Note_on_c, 0, 76, 64
2, 27753, Note_off_c, 0, 76, 64
2, 27753, Note_on_c, 0, 75, 64
2, 27783, Note_off_c, 0, 75, 64
2, 27783, Note_on_c, 0, 73, 64
2, 27843, Note_off_c, 0, 73, 64
2, 27843, Note_off_c, 0, 67, 64
2, 27843, Note_off_c, 0, 64, 64
2, 27843, Note_off_c, 0, 61, 64
2, 27843, Note_on_c, 0, 68, 64
2, 27843, Note_on_c, 0, 72, 64
2, 27843, Note_on_c, 0, 63, 64
2, 27903, Note_off_c, 0, 56, 64
2, 27903, Note_on_c, 0, 58, 64
2, 27963, Note_off_c, 0, 58, 64
2, 27963, Note_off_c, 0, 63, 64
2, 27963, Note_off_c, 0, 72, 64
2, 27963, Note_off_c, 0, 68, 64
2, 27963, Note_on_c, 0, 75, 64
2, 27963, Note_on_c, 0, 56, 64
2, 28023, Note_off_c, 0, 56, 64
2, 28023, Note_on_c, 0, 54, 64
2, 28083, Note_off_c, 0, 54, 64
2, 28083, Note_off_c, 0, 75, 64
2, 28083, Note_on_c, 0, 80, 64
2, 28083, Note_on_c, 0, 53, 64
2, 28143, Note_off_c, 0, 53, 64
2, 28143, Note_on_c, 0, 51, 64
2, 28203, Note_off_c, 0, 51, 64
2, 28203, Note_on_c, 0, 77, 64
2, 28203, Note_on_c, 0, 50, 64
2, 28233, Note_off_c, 0, 50, 64
2, 28233, Note_on_c, 0, 51, 64
2, 28263, Note_off_c, 0, 51, 64
2, 28263, Note_on_c, 0, 53, 64
2, 28323, Note_off_c, 0, 53, 64
2, 28323, Note_off_c, 0, 77, 64
2, 28323, Note_on_c, 0, 74, 64
2, 28323, Note_on_c, 0, 46, 64
2, 28383, Note_off_c, 0, 46, 64
2, 28383, Note_on_c, 0, 58, 64
2, 28443, Note_off_c, 0, 58, 64
2, 28443, Note_off_c, 0, 74, 64
2, 28443, Note_on_c, 0, 77, 64
2, 28443, Note_on_c, 0, 60, 64
2, 28503, Note_off_c, 0, 60, 64
2, 28503, Note_on_c, 0, 62, 64
2, 28563, Note_off_c, 0, 62, 64
2, 28563, Note_off_c, 0, 77, 64
2, 28563, Note_off_c, 0, 80, 64
2, 28563, Note_on_c, 0, 78, 64
2, 28563, Note_on_c, 0, 70, 64
2, 28563, Note_on_c, 0, 63, 64
2, 28623, Note_off_c, 0, 63, 64
2, 28623, Note_on_c, 0, 65, 64
2, 28683, Note_off_c, 0, 65, 64
2, 28683, Note_off_c, 0, 70, 64
2, 28683, Note_on_c, 0, 75, 64
2, 28683, Note_on_c, 0, 66, 64
2, 28713, Note_off_c, 0, 66, 64
2, 28713, Note_on_c, 0, 65, 64
2, 28743, Note_off_c, 0, 65, 64
2, 28743, Note_on_c, 0, 63, 64
2, 28803, Note_off_c, 0, 63, 64
2, 28803, Note_off_c, 0, 75, 64
2, 28803, Note_on_c, 0, 72, 64
2, 28803, Note_on_c, 0, 68, 64
2, 28863, Note_off_c, 0, 68, 64
2, 28863, Note_on_c, 0, 66, 64
2, 28923, Note_off_c, 0, 66, 64
2, 28923, Note_off_c, 0, 72, 64
2, 28923, Note_on_c, 0, 75, 64
2, 28923, Note_on_c, 0, 65, 64
2, 28983, Note_off_c, 0, 65, 64
2, 28983, Note_on_c, 0, 63, 64
2, 29043, Note_off_c, 0, 63, 64
2, 29043, Note_off_c, 0, 75, 64
2, 29043, Note_off_c, 0, 78, 64
2, 29043, Note_on_c, 0, 77, 64
2, 29043, Note_on_c, 0, 68, 64
2, 29043, Note_on_c, 0, 61, 64
2, 29103, Note_off_c, 0, 61, 64
2, 29103, Note_on_c, 0, 59, 64
2, 29163, Note_off_c, 0, 59, 64
2, 29163, Note_off_c, 0, 68, 64
2, 29163, Note_on_c, 0, 73, 64
2, 29163, Note_on_c, 0, 58, 64
2, 29193, Note_off_c, 0, 58, 64
2, 29193, Note_on_c, 0, 59, 64
2, 29223, Note_off_c, 0, 59, 64
2, 29223, Note_on_c, 0, 61, 64
2, 29283, Note_off_c, 0, 61, 64
2, 29283, Note_off_c, 0, 73, 64
2, 29283, Note_on_c, 0, 70, 64
2, 29283, Note_on_c, 0, 54, 64
2, 29343, Note_off_c, 0, 70, 64
2, 29343, Note_on_c, 0, 73, 64
2, 29403, Note_off_c, 0, 73, 64
2, 29403, Note_off_c, 0, 54, 64
2, 29403, Note_on_c, 0, 66, 64
2, 29403, Note_on_c, 0, 39, 64
2, 29433, Note_off_c, 0, 77, 64
2, 29433, Note_on_c, 0, 75, 64
2, 29463, Note_off_c, 0, 75, 64
2, 29463, Note_on_c, 0, 73, 64
2, 29493, Note_off_c, 0, 73, 64
2, 29493, Note_on_c, 0, 71, 64
2, 29523, Note_off_c, 0, 71, 64
2, 29523, Note_off_c, 0, 39, 64
2, 29523, Note_off_c, 0, 66, 64
2, 29523, Note_on_c, 0, 70, 64
2, 29523, Note_on_c, 0, 42, 64
2, 29553, Note_off_c, 0, 70, 64
2, 29553, Note_on_c, 0, 68, 64
2, 29583, Note_off_c, 0, 68, 64
2, 29583, Note_on_c, 0, 66, 64
2, 29613, Note_off_c, 0, 66, 64
2, 29613, Note_on_c, 0, 65, 64
2, 29643, Note_off_c, 0, 65, 64
2, 29643, Note_off_c, 0, 42, 64
2, 29643, Note_on_c, 0, 66, 64
2, 29643, Note_on_c, 0, 39, 64
2, 29673, Note_on_c, 0, 65, 64
2, 29703, Note_off_c, 0, 65, 64
2, 29703, Note_on_c, 0, 63, 64
2, 29733, Note_off_c, 0, 63, 64
2, 29733, Note_on_c, 0, 61, 64
2, 29763, Note_off_c, 0, 61, 64
2, 29763, Note_off_c, 0, 39, 64
2, 29763, Note_on_c, 0, 60, 64
2, 29763, Note_on_c, 0, 44, 64
2, 29823, Note_off_c, 0, 60, 64
2, 29823, Note_on_c, 0, 63, 64
2, 29883, Note_on_c, 0, 56, 64
2, 29913, Note_on_c, 0, 54, 64
2, 29943, Note_off_c, 0, 54, 64
2, 29943, Note_on_c, 0, 53, 64
2, 29973, Note_off_c, 0, 53, 64
2, 29973, Note_on_c, 0, 51, 64
2, 30003, Note_off_c, 0, 51, 64
2, 30003, Note_on_c, 0, 53, 64
2, 30033, Note_off_c, 0, 53, 64
2, 30033, Note_on_c, 0, 51, 64
2, 30063, Note_off_c, 0, 51, 64
2, 30063, Note_on_c, 0, 49, 64
2, 30093, Note_off_c, 0, 49, 64
2, 30093, Note_on_c, 0, 48, 64
2, 30123, Note_off_c, 0, 48, 64
2, 30123, Note_off_c, 0, 63, 64
2, 30123, Note_off_c, 0, 66, 64
2, 30123, Note_on_c, 0, 61, 64
2, 30123, Note_on_c, 0, 65, 64
2, 30123, Note_on_c, 0, 49, 64
2, 30153, Note_off_c, 0, 44, 64
2, 30153, Note_on_c, 0, 46, 64
2, 30183, Note_off_c, 0, 46, 64
2, 30183, Note_on_c, 0, 44, 64
2, 30213, Note_off_c, 0, 44, 64
2, 30213, Note_on_c, 0, 43, 64
2, 30243, Note_off_c, 0, 43, 64
2, 30243, Note_off_c, 0, 49, 64
2, 30243, Note_off_c, 0, 56, 64
2, 30243, Note_on_c, 0, 44, 64
2, 30273, Note_off_c, 0, 65, 64
2, 30273, Note_on_c, 0, 65, 64
2, 30303, Note_off_c, 0, 65, 64
2, 30303, Note_on_c, 0, 63, 64
2, 30333, Note_off_c, 0, 63, 64
2, 30333, Note_on_c, 0, 61, 64
2, 30363, Note_off_c, 0, 61, 64
2, 30363, Note_on_c, 0, 63, 64
2, 30363, Note_on_c, 0, 55, 64
2, 30393, Note_off_c, 0, 61, 64
2, 30393, Note_on_c, 0, 61, 64
2, 30423, Note_off_c, 0, 61, 64
2, 30423, Note_on_c, 0, 60, 64
2, 30453, Note_off_c, 0, 60, 64
2, 30453, Note_on_c, 0, 58, 64
2, 30483, Note_off_c, 0, 58, 64
2, 30483, Note_off_c, 0, 55, 64
2, 30483, Note_on_c, 0, 56, 64
2, 30483, Note_on_c, 0, 60, 64
2, 30513, Note_off_c, 0, 44, 64
2, 30513, Note_on_c, 0, 46, 64
2, 30543, Note_off_c, 0, 46, 64
2, 30543, Note_on_c, 0, 48, 64
2, 30573, Note_off_c, 0, 48, 64
2, 30573, Note_on_c, 0, 49, 64
2, 30603, Note_off_c, 0, 49, 64
2, 30603, Note_on_c, 0, 51, 64
2, 30633, Note_off_c, 0, 51, 64
2, 30633, Note_on_c, 0, 53, 64
2, 30663, Note_off_c, 0, 53, 64
2, 30663, Note_on_c, 0, 54, 64
2, 30693, Note_off_c, 0, 54, 64
2, 30693, Note_on_c, 0, 51, 64
2, 30723, Note_off_c, 0, 51, 64
2, 30723, Note_off_c, 0, 60, 64
2, 30723, Note_off_c, 0, 56, 64
2, 30723, Note_on_c, 0, 59, 64
2, 30723, Note_on_c, 0, 53, 64
2, 30783, Note_off_c, 0, 59, 64
2, 30783, Note_on_c, 0, 56, 64
2, 30843, Note_off_c, 0, 53, 64
2, 30843, Note_off_c, 0, 63, 64
2, 30843, Note_on_c, 0, 61, 64
2, 30843, Note_on_c, 0, 52, 64
2, 30903, Note_off_c, 0, 56, 64
2, 30903, Note_on_c, 0, 55, 64
2, 30963, Note_off_c, 0, 55, 64
2, 30963, Note_off_c, 0, 52, 64
2, 30963, Note_on_c, 0, 56, 64
2, 30963, Note_on_c, 0, 44, 64
2, 30963, Note_on_c, 0, 51, 64
2, 31023, Note_off_c, 0, 61, 64
2, 31023, Note_on_c, 0, 61, 64
2, 31083, Note_off_c, 0, 61, 64
2, 31083, Note_on_c, 0, 60, 64
2, 31143, Note_off_c, 0, 56, 64
2, 31143, Note_on_c, 0, 54, 64
2, 31203, Note_off_c, 0, 60, 64
2, 31203, Note_off_c, 0, 51, 64
2, 31203, Note_off_c, 0, 44, 64
2, 31203, Note_on_c, 0, 37, 64
2, 31203, Note_on_c, 0, 49, 64
2, 31203, Note_on_c, 0, 61, 64
2, 31263, Note_off_c, 0, 54, 64
2, 31263, Note_on_c, 0, 54, 64
2, 31323, Note_off_c, 0, 54, 64
2, 31323, Note_on_c, 0, 53, 64
2, 31383, Note_off_c, 0, 53, 64
2, 31383, Note_on_c, 0, 51, 64
2, 31443, Note_off_c, 0, 51, 64
2, 31443, Note_on_c, 0, 53, 64
2, 31503, Note_off_c, 0, 61, 64
2, 31503, Note_on_c, 0, 56, 64
2, 31563, Note_off_c, 0, 56, 64
2, 31563, Note_on_c, 0, 59, 64
2, 31623, Note_off_c, 0, 59, 64
2, 31623, Note_on_c, 0, 56, 64
2, 31683, Note_off_c, 0, 56, 64
2, 31683, Note_on_c, 0, 58, 64
2, 31743, Note_off_c, 0, 53, 64
2, 31743, Note_on_c, 0, 56, 64
2, 31803, Note_off_c, 0, 56, 64
2, 31803, Note_on_c, 0, 54, 64
2, 31863, Note_off_c, 0, 54, 64
2, 31863, Note_on_c, 0, 53, 64
2, 31923, Note_off_c, 0, 53, 64
2, 31923, Note_on_c, 0, 54, 64
2, 31983, Note_off_c, 0, 58, 64
2, 31983, Note_on_c, 0, 58, 64
2, 32043, Note_off_c, 0, 58, 64
2, 32043, Note_on_c, 0, 61, 64
2, 32103, Note_off_c, 0, 61, 64
2, 32103, Note_on_c, 0, 58, 64
2, 32163, Note_off_c, 0, 58, 64
2, 32163, Note_on_c, 0, 63, 64
2, 32223, Note_off_c, 0, 49, 64
2, 32223, Note_on_c, 0, 49, 64
2, 32283, Note_off_c, 0, 49, 64
2, 32283, Note_on_c, 0, 48, 64
2, 32343, Note_off_c, 0, 48, 64
2, 32343, Note_on_c, 0, 46, 64
2, 32403, Note_off_c, 0, 46, 64
2, 32403, Note_off_c, 0, 54, 64
2, 32403, Note_on_c, 0, 48, 64
2, 32463, Note_off_c, 0, 63, 64
2, 32463, Note_on_c, 0, 65, 64
2, 32523, Note_off_c, 0, 65, 64
2, 32523, Note_on_c, 0, 66, 64
2, 32583, Note_on_c, 0, 56, 64
2, 32643, Note_off_c, 0, 56, 64
2, 32643, Note_off_c, 0, 48, 64
2, 32643, Note_on_c, 0, 58, 64
2, 32643, Note_on_c, 0, 49, 64
2, 32703, Note_off_c, 0, 66, 64
2, 32703, Note_on_c, 0, 65, 64
2, 32763, Note_off_c, 0, 65, 64
2, 32763, Note_on_c, 0, 63, 64
2, 32823, Note_off_c, 0, 63, 64
2, 32823, Note_on_c, 0, 66, 64
2, 32883, Note_off_c, 0, 49, 64
2, 32883, Note_off_c, 0, 58, 64
2, 32883, Note_on_c, 0, 60, 64
2, 32883, Note_on_c, 0, 51, 64
2, 32943, Note_off_c, 0, 66, 64
2, 32943, Note_on_c, 0, 70, 64
2, 33003, Note_off_c, 0, 70, 64
2, 33003, Note_on_c, 0, 68, 64
2, 33063, Note_off_c, 0, 68, 64
2, 33063, Note_on_c, 0, 66, 64
2, 33123, Note_off_c, 0, 66, 64
2, 33123, Note_off_c, 0, 51, 64
2, 33123, Note_off_c, 0, 60, 64
2, 33123, Note_on_c, 0, 56, 64
2, 33123, Note_on_c, 0, 65, 64
2, 33123, Note_on_c, 0, 49, 64
2, 33123, Note_on_c, 0, 61, 64
2, 33603, Note_off_c, 0, 61, 64
2, 33603, Note_off_c, 0, 49, 64
2, 33603, Note_off_c, 0, 65, 64
2, 33603, Note_off_c, 0, 56, 64
2, 33603, Note_off_c, 0, 37, 64
2, 33603, End_track
0, 0, End_of_file
