0, 0, Header, 1, 2, 240
1, 0, Start_track
1, 0, Time_signature, 4, 2, 24, 8
1, 0, Tempo, 625000
1, 23040, Text_t, "2nd part"
1, 53016, Tempo, 638298
1, 53232, Tempo, 863275
1, 53328, Tempo, 886263
1, 53472, Tempo, 750000
1, 53608, Tempo, 869565
1, 53712, Tempo, 1200000
1, 53712, End_track
2, 0, Start_track
2, 0, Note_on_c, 0, 48, 64
2, 60, Note_on_c, 0, 67, 64
2, 120, Note_off_c, 0, 67, 64
2, 120, Note_off_c, 0, 48, 64
2, 120, Note_on_c, 0, 65, 64
2, 120, Note_on_c, 0, 60, 64
2, 180, Note_off_c, 0, 65, 64
2, 180, Note_on_c, 0, 67, 64
2, 240, Note_off_c, 0, 67, 64
2, 240, Note_off_c, 0, 60, 64
2, 240, Note_on_c, 0, 68, 64
2, 240, Note_on_c, 0, 53, 64
2, 300, Note_off_c, 0, 68, 64
2, 300, Note_on_c, 0, 65, 64
2, 360, Note_off_c, 0, 65, 64
2, 360, Note_off_c, 0, 53, 64
2, 360, Note_on_c, 0, 63, 64
2, 360, Note_on_c, 0, 60, 64
2, 420, Note_off_c, 0, 63, 64
2, 420, Note_on_c, 0, 65, 64
2, 480, Note_off_c, 0, 65, 64
2, 480, Note_off_c, 0, 60, 64
2, 480, Note_on_c, 0, 67, 64
2, 480, Note_on_c, 0, 51, 64
2, 540, Note_off_c, 0, 67, 64
2, 540, Note_on_c, 0, 63, 64
2, 600, Note_off_c, 0, 63, 64
2, 600, Note_off_c, 0, 51, 64
2, 600, Note_on_c, 0, 62, 64
2, 600, Note_on_c, 0, 60, 64
2, 660, Note_off_c, 0, 62, 64
2, 660, Note_on_c, 0, 63, 64
2, 720, Note_off_c, 0, 63, 64
2, 720, Note_off_c, 0, 60, 64
2, 720, Note_on_c, 0, 65, 64
2, 720, Note_on_c, 0, 50, 64
2, 780, Note_off_c, 0, 65, 64
2, 780, Note_on_c, 0, 62, 64
2, 840, Note_off_c, 0, 62, 64
2, 840, Note_off_c, 0, 50, 64
2, 840, Note_on_c, 0, 59, 64
2, 840, Note_on_c, 0, 60, 64
2, 900, Note_off_c, 0, 60, 64
2, 900, Note_on_c, 0, 62, 64
2, 960, Note_off_c, 0, 62, 64
2, 960, Note_off_c, 0, 59, 64
2, 960, Note_on_c, 0, 63, 64
2, 960, Note_on_c, 0, 48, 64
2, 1020, Note_off_c, 0, 48, 64
2, 1020, Note_on_c, 0, 55, 64
2, 1080, Note_off_c, 0, 55, 64
2, 1080, Note_off_c, 0, 63, 64
2, 1080, Note_on_c, 0, 72, 64
2, 1080, Note_on_c, 0, 53, 64
2, 1140, Note_off_c, 0, 53, 64
2, 1140, Note_on_c, 0, 55, 64
2, 1200, Note_off_c, 0, 55, 64
2, 1200, Note_off_c, 0, 72, 64
2, 1200, Note_on_c, 0, 65, 64
2, 1200, Note_on_c, 0, 56, 64
2, 1260, Note_off_c, 0, 56, 64
2, 1260, Note_on_c, 0, 53, 64
2, 1320, Note_off_c, 0, 53, 64
2, 1320, Note_off_c, 0, 65, 64
2, 1320, Note_on_c, 0, 72, 64
2, 1320, Note_on_c, 0, 51, 64
2, 1380, Note_off_c, 0, 51, 64
2, 1380, Note_on_c, 0, 53, 64
2, 1440, Note_off_c, 0, 53, 64
2, 1440, Note_off_c, 0, 72, 64
2, 1440, Note_on_c, 0, 63, 64
2, 1440, Note_on_c, 0, 55, 64
2, 1500, Note_off_c, 0, 55, 64
2, 1500, Note_on_c, 0, 51, 64
2, 1560, Note_off_c, 0, 51, 64
2, 1560, Note_off_c, 0, 63, 64
2, 1560, Note_on_c, 0, 72, 64
2, 1560, Note_on_c, 0, 50, 64
2, 1620, Note_off_c, 0, 50, 64
2, 1620, Note_on_c, 0, 51, 64
2, 1680, Note_off_c, 0, 51, 64
2, 1680, Note_off_c, 0, 72, 64
2, 1680, Note_on_c, 0, 62, 64
2, 1680, Note_on_c, 0, 53, 64
2, 1740, Note_off_c, 0, 53, 64
2, 1740, Note_on_c, 0, 50, 64
2, 1800, Note_off_c, 0, 50, 64
2, 1800, Note_off_c, 0, 62, 64
2, 1800, Note_on_c, 0, 71, 64
2, 1800, Note_on_c, 0, 48, 64
2, 1860, Note_off_c, 0, 48, 64
2, 1860, Note_on_c, 0, 50, 64
2, 1920, Note_off_c, 0, 50, 64
2, 1920, Note_off_c, 0, 71, 64
2, 1920, Note_on_c, 0, 60, 64
2, 1920, Note_on_c, 0, 51, 64
2, 1980, Note_off_c, 0, 60, 64
2, 1980, Note_on_c, 0, 63, 64
2, 2040, Note_off_c, 0, 63, 64
2, 2040, Note_off_c, 0, 51, 64
2, 2040, Note_on_c, 0, 67, 64
2, 2040, Note_on_c, 0, 48, 64
2, 2100, Note_off_c, 0, 67, 64
2, 2100, Note_on_c, 0, 72, 64
2, 2160, Note_off_c, 0, 72, 64
2, 2160, Note_off_c, 0, 48, 64
2, 2160, Note_on_c, 0, 62, 64
2, 2160, Note_on_c, 0, 53, 64
2, 2220, Note_off_c, 0, 62, 64
2, 2220, Note_on_c, 0, 72, 64
2, 2280, Note_off_c, 0, 72, 64
2, 2280, Note_off_c, 0, 53, 64
2, 2280, Note_on_c, 0, 71, 64
2, 2280, Note_on_c, 0, 50, 64
2, 2340, Note_off_c, 0, 71, 64
2, 2340, Note_on_c, 0, 69, 64
2, 2400, Note_off_c, 0, 69, 64
2, 2400, Note_off_c, 0, 50, 64
2, 2400, Note_on_c, 0, 62, 64
2, 2400, Note_on_c, 0, 55, 64
2, 2460, Note_off_c, 0, 62, 64
2, 2460, Note_on_c, 0, 67, 64
2, 2520, Note_off_c, 0, 67, 64
2, 2520, Note_off_c, 0, 55, 64
2, 2520, Note_on_c, 0, 71, 64
2, 2520, Note_on_c, 0, 53, 64
2, 2580, Note_off_c, 0, 71, 64
2, 2580, Note_on_c, 0, 74, 64
2, 2640, Note_off_c, 0, 74, 64
2, 2640, Note_off_c, 0, 53, 64
2, 2640, Note_on_c, 0, 63, 64
2, 2640, Note_on_c, 0, 55, 64
2, 2700, Note_off_c, 0, 63, 64
2, 2700, Note_on_c, 0, 74, 64
2, 2760, Note_off_c, 0, 74, 64
2, 2760, Note_off_c, 0, 55, 64
2, 2760, Note_on_c, 0, 51, 64
2, 2760, Note_on_c, 0, 72, 64
2, 2820, Note_off_c, 0, 72, 64
2, 2820, Note_on_c, 0, 71, 64
2, 2880, Note_off_c, 0, 71, 64
2, 2880, Note_off_c, 0, 51, 64
2, 2880, Note_on_c, 0, 63, 64
2, 2880, Note_on_c, 0, 56, 64
2, 2940, Note_off_c, 0, 63, 64
2, 2940, Note_on_c, 0, 68, 64
2, 3000, Note_off_c, 0, 68, 64
2, 3000, Note_off_c, 0, 56, 64
2, 3000, Note_on_c, 0, 72, 64
2, 3000, Note_on_c, 0, 55, 64
2, 3060, Note_off_c, 0, 72, 64
2, 3060, Note_on_c, 0, 75, 64
2, 3120, Note_off_c, 0, 75, 64
2, 3120, Note_off_c, 0, 55, 64
2, 3120, Note_on_c, 0, 65, 64
2, 3120, Note_on_c, 0, 57, 64
2, 3180, Note_off_c, 0, 65, 64
2, 3180, Note_on_c, 0, 75, 64
2, 3240, Note_off_c, 0, 75, 64
2, 3240, Note_off_c, 0, 57, 64
2, 3240, Note_on_c, 0, 74, 64
2, 3240, Note_on_c, 0, 53, 64
2, 3300, Note_off_c, 0, 74, 64
2, 3300, Note_on_c, 0, 72, 64
2, 3360, Note_off_c, 0, 72, 64
2, 3360, Note_off_c, 0, 53, 64
2, 3360, Note_on_c, 0, 65, 64
2, 3360, Note_on_c, 0, 58, 64
2, 3420, Note_off_c, 0, 65, 64
2, 3420, Note_on_c, 0, 70, 64
2, 3480, Note_off_c, 0, 70, 64
2, 3480, Note_off_c, 0, 58, 64
2, 3480, Note_on_c, 0, 74, 64
2, 3480, Note_on_c, 0, 57, 64
2, 3540, Note_off_c, 0, 74, 64
2, 3540, Note_on_c, 0, 77, 64
2, 3600, Note_off_c, 0, 77, 64
2, 3600, Note_off_c, 0, 57, 64
2, 3600, Note_on_c, 0, 67, 64
2, 3600, Note_on_c, 0, 59, 64
2, 3660, Note_off_c, 0, 67, 64
2, 3660, Note_on_c, 0, 77, 64
2, 3720, Note_off_c, 0, 77, 64
2, 3720, Note_off_c, 0, 59, 64
2, 3720, Note_on_c, 0, 55, 64
2, 3720, Note_on_c, 0, 75, 64
2, 3780, Note_off_c, 0, 75, 64
2, 3780, Note_on_c, 0, 74, 64
2, 3840, Note_off_c, 0, 74, 64
2, 3840, Note_off_c, 0, 55, 64
2, 3840, Note_on_c, 0, 75, 64
2, 3840, Note_on_c, 0, 60, 64
2, 3900, Note_off_c, 0, 60, 64
2, 3900, Note_off_c, 0, 75, 64
2, 3900, Note_on_c, 0, 72, 64
2, 3900, Note_on_c, 0, 68, 64
2, 3960, Note_off_c, 0, 68, 64
2, 3960, Note_off_c, 0, 72, 64
2, 3960, Note_on_c, 0, 70, 64
2, 3960, Note_on_c, 0, 67, 64
2, 4020, Note_off_c, 0, 67, 64
2, 4020, Note_off_c, 0, 70, 64
2, 4020, Note_on_c, 0, 72, 64
2, 4020, Note_on_c, 0, 68, 64
2, 4080, Note_off_c, 0, 68, 64
2, 4080, Note_off_c, 0, 72, 64
2, 4080, Note_on_c, 0, 74, 64
2, 4080, Note_on_c, 0, 58, 64
2, 4140, Note_off_c, 0, 58, 64
2, 4140, Note_off_c, 0, 74, 64
2, 4140, Note_on_c, 0, 70, 64
2, 4140, Note_on_c, 0, 67, 64
2, 4200, Note_off_c, 0, 67, 64
2, 4200, Note_off_c, 0, 70, 64
2, 4200, Note_on_c, 0, 68, 64
2, 4200, Note_on_c, 0, 65, 64
2, 4260, Note_off_c, 0, 65, 64
2, 4260, Note_off_c, 0, 68, 64
2, 4260, Note_on_c, 0, 70, 64
2, 4260, Note_on_c, 0, 67, 64
2, 4320, Note_off_c, 0, 67, 64
2, 4320, Note_off_c, 0, 70, 64
2, 4320, Note_on_c, 0, 72, 64
2, 4320, Note_on_c, 0, 56, 64
2, 4380, Note_off_c, 0, 72, 64
2, 4380, Note_on_c, 0, 70, 64
2, 4440, Note_off_c, 0, 70, 64
2, 4440, Note_off_c, 0, 56, 64
2, 4440, Note_on_c, 0, 68, 64
2, 4500, Note_off_c, 0, 68, 64
2, 4500, Note_on_c, 0, 67, 64
2, 4560, Note_off_c, 0, 67, 64
2, 4560, Note_on_c, 0, 65, 64
2, 4620, Note_off_c, 0, 65, 64
2, 4620, Note_on_c, 0, 63, 64
2, 4680, Note_off_c, 0, 63, 64
2, 4680, Note_on_c, 0, 62, 64
2, 4740, Note_off_c, 0, 62, 64
2, 4740, Note_on_c, 0, 60, 64
2, 4800, Note_off_c, 0, 60, 64
2, 4800, Note_on_c, 0, 74, 64
2, 4800, Note_on_c, 0, 58, 64
2, 4860, Note_off_c, 0, 58, 64
2, 4860, Note_off_c, 0, 74, 64
2, 4860, Note_on_c, 0, 70, 64
2, 4860, Note_on_c, 0, 67, 64
2, 4920, Note_off_c, 0, 67, 64
2, 4920, Note_off_c, 0, 70, 64
2, 4920, Note_on_c, 0, 68, 64
2, 4920, Note_on_c, 0, 65, 64
2, 4980, Note_off_c, 0, 65, 64
2, 4980, Note_off_c, 0, 68, 64
2, 4980, Note_on_c, 0, 70, 64
2, 4980, Note_on_c, 0, 67, 64
2, 5040, Note_off_c, 0, 67, 64
2, 5040, Note_off_c, 0, 70, 64
2, 5040, Note_on_c, 0, 72, 64
2, 5040, Note_on_c, 0, 56, 64
2, 5100, Note_off_c, 0, 56, 64
2, 5100, Note_off_c, 0, 72, 64
2, 5100, Note_on_c, 0, 68, 64
2, 5100, Note_on_c, 0, 65, 64
2, 5160, Note_off_c, 0, 65, 64
2, 5160, Note_off_c, 0, 68, 64
2, 5160, Note_on_c, 0, 67, 64
2, 5160, Note_on_c, 0, 63, 64
2, 5220, Note_off_c, 0, 63, 64
2, 5220, Note_off_c, 0, 67, 64
2, 5220, Note_on_c, 0, 68, 64
2, 5220, Note_on_c, 0, 65, 64
2, 5280, Note_off_c, 0, 65, 64
2, 5280, Note_off_c, 0, 68, 64
2, 5280, Note_on_c, 0, 70, 64
2, 5280, Note_on_c, 0, 55, 64
2, 5340, Note_off_c, 0, 70, 64
2, 5340, Note_on_c, 0, 68, 64
2, 5400, Note_off_c, 0, 68, 64
2, 5400, Note_off_c, 0, 55, 64
2, 5400, Note_on_c, 0, 67, 64
2, 5460, Note_off_c, 0, 67, 64
2, 5460, Note_on_c, 0, 65, 64
2, 5520, Note_off_c, 0, 65, 64
2, 5520, Note_on_c, 0, 63, 64
2, 5580, Note_off_c, 0, 63, 64
2, 5580, Note_on_c, 0, 61, 64
2, 5640, Note_off_c, 0, 61, 64
2, 5640, Note_on_c, 0, 60, 64
2, 5700, Note_off_c, 0, 60, 64
2, 5700, Note_on_c, 0, 58, 64
2, 5760, Note_off_c, 0, 58, 64
2, 5760, Note_on_c, 0, 72, 64
2, 5760, Note_on_c, 0, 56, 64
2, 5820, Note_off_c, 0, 56, 64
2, 5820, Note_off_c, 0, 72, 64
2, 5820, Note_on_c, 0, 68, 64
2, 5820, Note_on_c, 0, 65, 64
2, 5880, Note_off_c, 0, 65, 64
2, 5880, Note_off_c, 0, 68, 64
2, 5880, Note_on_c, 0, 67, 64
2, 5880, Note_on_c, 0, 63, 64
2, 5940, Note_off_c, 0, 63, 64
2, 5940, Note_off_c, 0, 67, 64
2, 5940, Note_on_c, 0, 68, 64
2, 5940, Note_on_c, 0, 65, 64
2, 6000, Note_off_c, 0, 65, 64
2, 6000, Note_off_c, 0, 68, 64
2, 6000, Note_on_c, 0, 70, 64
2, 6000, Note_on_c, 0, 55, 64
2, 6060, Note_off_c, 0, 55, 64
2, 6060, Note_off_c, 0, 70, 64
2, 6060, Note_on_c, 0, 67, 64
2, 6060, Note_on_c, 0, 63, 64
2, 6120, Note_off_c, 0, 63, 64
2, 6120, Note_off_c, 0, 67, 64
2, 6120, Note_on_c, 0, 65, 64
2, 6120, Note_on_c, 0, 62, 64
2, 6180, Note_off_c, 0, 62, 64
2, 6180, Note_off_c, 0, 65, 64
2, 6180, Note_on_c, 0, 67, 64
2, 6180, Note_on_c, 0, 63, 64
2, 6240, Note_off_c, 0, 63, 64
2, 6240, Note_off_c, 0, 67, 64
2, 6240, Note_on_c, 0, 68, 64
2, 6240, Note_on_c, 0, 53, 64
2, 6300, Note_off_c, 0, 53, 64
2, 6300, Note_off_c, 0, 68, 64
2, 6300, Note_on_c, 0, 65, 64
2, 6300, Note_on_c, 0, 62, 64
2, 6360, Note_off_c, 0, 62, 64
2, 6360, Note_off_c, 0, 65, 64
2, 6360, Note_on_c, 0, 63, 64
2, 6360, Note_on_c, 0, 60, 64
2, 6420, Note_off_c, 0, 60, 64
2, 6420, Note_off_c, 0, 63, 64
2, 6420, Note_on_c, 0, 65, 64
2, 6420, Note_on_c, 0, 62, 64
2, 6480, Note_off_c, 0, 62, 64
2, 6480, Note_off_c, 0, 65, 64
2, 6480, Note_on_c, 0, 68, 64
2, 6480, Note_on_c, 0, 51, 64
2, 6504, Note_on_c, 0, 67, 64
2, 6510, Note_off_c, 0, 68, 64
2, 6534, Note_off_c, 0, 67, 64
2, 6540, Note_off_c, 0, 51, 64
2, 6540, Note_on_c, 0, 68, 64
2, 6540, Note_on_c, 0, 60, 64
2, 6590, Note_off_c, 0, 68, 64
2, 6603, Note_off_c, 0, 60, 64
2, 6603, Note_on_c, 0, 68, 64
2, 6603, Note_on_c, 0, 58, 64
2, 6663, Note_off_c, 0, 58, 64
2, 6663, Note_on_c, 0, 60, 64
2, 6723, Note_off_c, 0, 60, 64
2, 6723, Note_off_c, 0, 68, 64
2, 6723, Note_on_c, 0, 68, 64
2, 6723, Note_on_c, 0, 50, 64
2, 6783, Note_off_c, 0, 50, 64
2, 6783, Note_off_c, 0, 68, 64
2, 6783, Note_on_c, 0, 67, 64
2, 6783, Note_on_c, 0, 58, 64
2, 6843, Note_off_c, 0, 58, 64
2, 6843, Note_off_c, 0, 67, 64
2, 6843, Note_on_c, 0, 65, 64
2, 6843, Note_on_c, 0, 56, 64
2, 6903, Note_off_c, 0, 56, 64
2, 6903, Note_off_c, 0, 65, 64
2, 6903, Note_on_c, 0, 67, 64
2, 6903, Note_on_c, 0, 58, 64
2, 6955, Note_on_c, 0, 68, 64
2, 6963, Note_off_c, 0, 58, 64
2, 6963, Note_off_c, 0, 67, 64
2, 6963, Note_on_c, 0, 48, 64
2, 6985, Note_off_c, 0, 68, 64
2, 6987, Note_on_c, 0, 67, 64
2, 7017, Note_off_c, 0, 67, 64
2, 7023, Note_off_c, 0, 48, 64
2, 7023, Note_on_c, 0, 68, 64
2, 7023, Note_on_c, 0, 56, 64
2, 7073, Note_off_c, 0, 68, 64
2, 7086, Note_off_c, 0, 56, 64
2, 7086, Note_on_c, 0, 68, 64
2, 7086, Note_on_c, 0, 55, 64
2, 7146, Note_off_c, 0, 55, 64
2, 7146, Note_on_c, 0, 56, 64
2, 7206, Note_off_c, 0, 56, 64
2, 7206, Note_off_c, 0, 68, 64
2, 7206, Note_on_c, 0, 68, 64
2, 7206, Note_on_c, 0, 46, 64
2, 7266, Note_off_c, 0, 68, 64
2, 7266, Note_on_c, 0, 74, 64
2, 7326, Note_off_c, 0, 74, 64
2, 7326, Note_off_c, 0, 46, 64
2, 7326, Note_on_c, 0, 77, 64
2, 7326, Note_on_c, 0, 58, 64
2, 7386, Note_off_c, 0, 77, 64
2, 7386, Note_on_c, 0, 75, 64
2, 7446, Note_off_c, 0, 75, 64
2, 7446, Note_off_c, 0, 58, 64
2, 7446, Note_on_c, 0, 74, 64
2, 7506, Note_off_c, 0, 74, 64
2, 7506, Note_on_c, 0, 72, 64
2, 7566, Note_off_c, 0, 72, 64
2, 7566, Note_on_c, 0, 50, 64
2, 7566, Note_on_c, 0, 70, 64
2, 7626, Note_off_c, 0, 70, 64
2, 7626, Note_on_c, 0, 68, 64
2, 7686, Note_off_c, 0, 68, 64
2, 7686, Note_off_c, 0, 50, 64
2, 7686, Note_on_c, 0, 67, 64
2, 7686, Note_on_c, 0, 51, 64
2, 7746, Note_off_c, 0, 67, 64
2, 7746, Note_on_c, 0, 70, 64
2, 7806, Note_off_c, 0, 70, 64
2, 7806, Note_off_c, 0, 51, 64
2, 7806, Note_on_c, 0, 75, 64
2, 7806, Note_on_c, 0, 48, 64
2, 7866, Note_off_c, 0, 75, 64
2, 7866, Note_on_c, 0, 67, 64
2, 7926, Note_off_c, 0, 67, 64
2, 7926, Note_off_c, 0, 48, 64
2, 7926, Note_on_c, 0, 65, 64
2, 7926, Note_on_c, 0, 44, 64
2, 7986, Note_off_c, 0, 65, 64
2, 7986, Note_on_c, 0, 75, 64
2, 8046, Note_off_c, 0, 75, 64
2, 8046, Note_off_c, 0, 44, 64
2, 8046, Note_on_c, 0, 65, 64
2, 8046, Note_on_c, 0, 46, 64
2, 8106, Note_off_c, 0, 65, 64
2, 8106, Note_on_c, 0, 74, 64
2, 8166, Note_off_c, 0, 74, 64
2, 8166, Note_off_c, 0, 46, 64
2, 8166, Note_on_c, 0, 75, 64
2, 8166, Note_on_c, 0, 39, 64
2, 8226, Note_off_c, 0, 75, 64
2, 8226, Note_on_c, 0, 70, 64
2, 8286, Note_off_c, 0, 70, 64
2, 8286, Note_off_c, 0, 39, 64
2, 8286, Note_on_c, 0, 68, 64
2, 8286, Note_on_c, 0, 51, 64
2, 8346, Note_off_c, 0, 68, 64
2, 8346, Note_on_c, 0, 70, 64
2, 8406, Note_off_c, 0, 70, 64
2, 8406, Note_off_c, 0, 51, 64
2, 8406, Note_on_c, 0, 72, 64
2, 8406, Note_on_c, 0, 44, 64
2, 8466, Note_off_c, 0, 72, 64
2, 8466, Note_on_c, 0, 68, 64
2, 8526, Note_off_c, 0, 68, 64
2, 8526, Note_off_c, 0, 44, 64
2, 8526, Note_on_c, 0, 51, 64
2, 8526, Note_on_c, 0, 67, 64
2, 8586, Note_off_c, 0, 67, 64
2, 8586, Note_on_c, 0, 68, 64
2, 8646, Note_off_c, 0, 68, 64
2, 8646, Note_off_c, 0, 51, 64
2, 8646, Note_on_c, 0, 70, 64
2, 8646, Note_on_c, 0, 43, 64
2, 8706, Note_off_c, 0, 70, 64
2, 8706, Note_on_c, 0, 67, 64
2, 8766, Note_off_c, 0, 67, 64
2, 8766, Note_off_c, 0, 43, 64
2, 8766, Note_on_c, 0, 65, 64
2, 8766, Note_on_c, 0, 51, 64
2, 8826, Note_off_c, 0, 65, 64
2, 8826, Note_on_c, 0, 67, 64
2, 8886, Note_off_c, 0, 67, 64
2, 8886, Note_off_c, 0, 51, 64
2, 8886, Note_on_c, 0, 68, 64
2, 8886, Note_on_c, 0, 41, 64
2, 8946, Note_off_c, 0, 68, 64
2, 8946, Note_on_c, 0, 65, 64
2, 9006, Note_off_c, 0, 65, 64
2, 9006, Note_off_c, 0, 41, 64
2, 9006, Note_on_c, 0, 63, 64
2, 9006, Note_on_c, 0, 50, 64
2, 9066, Note_off_c, 0, 63, 64
2, 9066, Note_on_c, 0, 65, 64
2, 9126, Note_off_c, 0, 65, 64
2, 9126, Note_off_c, 0, 50, 64
2, 9126, Note_on_c, 0, 67, 64
2, 9126, Note_on_c, 0, 51, 64
2, 9186, Note_off_c, 0, 51, 64
2, 9186, Note_off_c, 0, 67, 64
2, 9186, Note_on_c, 0, 63, 64
2, 9186, Note_on_c, 0, 55, 64
2, 9246, Note_off_c, 0, 55, 64
2, 9246, Note_off_c, 0, 63, 64
2, 9246, Note_on_c, 0, 62, 64
2, 9246, Note_on_c, 0, 53, 64
2, 9306, Note_off_c, 0, 53, 64
2, 9306, Note_off_c, 0, 62, 64
2, 9306, Note_on_c, 0, 63, 64
2, 9306, Note_on_c, 0, 55, 64
2, 9366, Note_off_c, 0, 55, 64
2, 9366, Note_off_c, 0, 63, 64
2, 9366, Note_on_c, 0, 60, 64
2, 9366, Note_on_c, 0, 56, 64
2, 9426, Note_off_c, 0, 56, 64
2, 9426, Note_on_c, 0, 53, 64
2, 9486, Note_off_c, 0, 53, 64
2, 9486, Note_off_c, 0, 60, 64
2, 9486, Note_on_c, 0, 68, 64
2, 9486, Note_on_c, 0, 51, 64
2, 9546, Note_off_c, 0, 51, 64
2, 9546, Note_on_c, 0, 53, 64
2, 9606, Note_off_c, 0, 53, 64
2, 9606, Note_off_c, 0, 68, 64
2, 9606, Note_on_c, 0, 58, 64
2, 9606, Note_on_c, 0, 55, 64
2, 9666, Note_off_c, 0, 55, 64
2, 9666, Note_on_c, 0, 51, 64
2, 9726, Note_off_c, 0, 51, 64
2, 9726, Note_off_c, 0, 58, 64
2, 9726, Note_on_c, 0, 67, 64
2, 9726, Note_on_c, 0, 50, 64
2, 9786, Note_off_c, 0, 50, 64
2, 9786, Note_on_c, 0, 51, 64
2, 9846, Note_off_c, 0, 51, 64
2, 9846, Note_off_c, 0, 67, 64
2, 9846, Note_on_c, 0, 56, 64
2, 9846, Note_on_c, 0, 53, 64
2, 9906, Note_off_c, 0, 53, 64
2, 9906, Note_on_c, 0, 50, 64
2, 9966, Note_off_c, 0, 50, 64
2, 9966, Note_off_c, 0, 56, 64
2, 9966, Note_on_c, 0, 65, 64
2, 9966, Note_on_c, 0, 48, 64
2, 10026, Note_off_c, 0, 48, 64
2, 10026, Note_on_c, 0, 50, 64
2, 10086, Note_off_c, 0, 50, 64
2, 10086, Note_off_c, 0, 65, 64
2, 10086, Note_on_c, 0, 55, 64
2, 10086, Note_on_c, 0, 51, 64
2, 10146, Note_off_c, 0, 55, 64
2, 10146, Note_on_c, 0, 58, 64
2, 10206, Note_off_c, 0, 58, 64
2, 10206, Note_off_c, 0, 51, 64
2, 10206, Note_on_c, 0, 63, 64
2, 10206, Note_on_c, 0, 55, 64
2, 10266, Note_off_c, 0, 63, 64
2, 10266, Note_on_c, 0, 67, 64
2, 10326, Note_off_c, 0, 55, 64
2, 10326, Note_on_c, 0, 56, 64
2, 10386, Note_off_c, 0, 67, 64
2, 10386, Note_on_c, 0, 65, 64
2, 10446, Note_off_c, 0, 65, 64
2, 10446, Note_off_c, 0, 56, 64
2, 10446, Note_on_c, 0, 58, 64
2, 10446, Note_on_c, 0, 63, 64
2, 10506, Note_off_c, 0, 63, 64
2, 10506, Note_on_c, 0, 62, 64
2, 10566, Note_off_c, 0, 62, 64
2, 10566, Note_off_c, 0, 58, 64
2, 10566, Note_on_c, 0, 63, 64
2, 10566, Note_on_c, 0, 60, 64
2, 10626, Note_on_c, 0, 67, 64
2, 10686, Note_off_c, 0, 67, 64
2, 10686, Note_off_c, 0, 60, 64
2, 10686, Note_on_c, 0, 72, 64
2, 10686, Note_on_c, 0, 56, 64
2, 10746, Note_on_c, 0, 65, 64
2, 10806, Note_off_c, 0, 65, 64
2, 10806, Note_off_c, 0, 56, 64
2, 10806, Note_off_c, 0, 72, 64
2, 10806, Note_on_c, 0, 67, 64
2, 10806, Note_on_c, 0, 70, 64
2, 10806, Note_on_c, 0, 58, 64
2, 10866, Note_off_c, 0, 63, 64
2, 10866, Note_on_c, 0, 63, 64
2, 10926, Note_off_c, 0, 58, 64
2, 10926, Note_off_c, 0, 70, 64
2, 10926, Note_off_c, 0, 67, 64
2, 10926, Note_on_c, 0, 65, 64
2, 10926, Note_on_c, 0, 68, 64
2, 10926, Note_on_c, 0, 46, 64
2, 10986, Note_off_c, 0, 63, 64
2, 10986, Note_on_c, 0, 62, 64
2, 11046, Note_off_c, 0, 62, 64
2, 11046, Note_off_c, 0, 46, 64
2, 11046, Note_off_c, 0, 68, 64
2, 11046, Note_off_c, 0, 65, 64
2, 11046, Note_on_c, 0, 67, 64
2, 11046, Note_on_c, 0, 63, 64
2, 11046, Note_on_c, 0, 58, 64
2, 11106, Note_on_c, 0, 51, 64
2, 11166, Note_off_c, 0, 51, 64
2, 11166, Note_on_c, 0, 46, 64
2, 11226, Note_off_c, 0, 46, 64
2, 11226, Note_on_c, 0, 43, 64
2, 11286, Note_off_c, 0, 43, 64
2, 11286, Note_on_c, 0, 39, 64
2, 11526, Note_off_c, 0, 39, 64
2, 11526, Note_off_c, 0, 58, 64
2, 11526, Note_off_c, 0, 63, 64
2, 11526, Note_off_c, 0, 67, 64
2, 11526, Note_on_c, 0, 48, 64
2, 11586, Note_on_c, 0, 67, 64
2, 11646, Note_off_c, 0, 67, 64
2, 11646, Note_off_c, 0, 48, 64
2, 11646, Note_on_c, 0, 65, 64
2, 11646, Note_on_c, 0, 60, 64
2, 11706, Note_off_c, 0, 65, 64
2, 11706, Note_on_c, 0, 67, 64
2, 11766, Note_off_c, 0, 67, 64
2, 11766, Note_off_c, 0, 60, 64
2, 11766, Note_on_c, 0, 68, 64
2, 11766, Note_on_c, 0, 53, 64
2, 11826, Note_off_c, 0, 68, 64
2, 11826, Note_on_c, 0, 65, 64
2, 11886, Note_off_c, 0, 65, 64
2, 11886, Note_off_c, 0, 53, 64
2, 11886, Note_on_c, 0, 63, 64
2, 11886, Note_on_c, 0, 60, 64
2, 11946, Note_off_c, 0, 63, 64
2, 11946, Note_on_c, 0, 65, 64
2, 12006, Note_off_c, 0, 65, 64
2, 12006, Note_off_c, 0, 60, 64
2, 12006, Note_on_c, 0, 67, 64
2, 12006, Note_on_c, 0, 51, 64
2, 12066, Note_off_c, 0, 67, 64
2, 12066, Note_on_c, 0, 63, 64
2, 12126, Note_off_c, 0, 63, 64
2, 12126, Note_off_c, 0, 51, 64
2, 12126, Note_on_c, 0, 62, 64
2, 12126, Note_on_c, 0, 60, 64
2, 12186, Note_off_c, 0, 62, 64
2, 12186, Note_on_c, 0, 63, 64
2, 12246, Note_off_c, 0, 63, 64
2, 12246, Note_off_c, 0, 60, 64
2, 12246, Note_on_c, 0, 65, 64
2, 12246, Note_on_c, 0, 50, 64
2, 12306, Note_off_c, 0, 65, 64
2, 12306, Note_on_c, 0, 62, 64
2, 12366, Note_off_c, 0, 62, 64
2, 12366, Note_off_c, 0, 50, 64
2, 12366, Note_on_c, 0, 59, 64
2, 12366, Note_on_c, 0, 60, 64
2, 12426, Note_off_c, 0, 60, 64
2, 12426, Note_on_c, 0, 62, 64
2, 12486, Note_off_c, 0, 62, 64
2, 12486, Note_off_c, 0, 59, 64
2, 12486, Note_on_c, 0, 63, 64
2, 12486, Note_on_c, 0, 48, 64
2, 12546, Note_off_c, 0, 48, 64
2, 12546, Note_on_c, 0, 55, 64
2, 12606, Note_off_c, 0, 55, 64
2, 12606, Note_off_c, 0, 63, 64
2, 12606, Note_on_c, 0, 72, 64
2, 12606, Note_on_c, 0, 53, 64
2, 12666, Note_off_c, 0, 53, 64
2, 12666, Note_on_c, 0, 55, 64
2, 12726, Note_off_c, 0, 55, 64
2, 12726, Note_off_c, 0, 72, 64
2, 12726, Note_on_c, 0, 65, 64
2, 12726, Note_on_c, 0, 56, 64
2, 12786, Note_off_c, 0, 56, 64
2, 12786, Note_on_c, 0, 53, 64
2, 12846, Note_off_c, 0, 53, 64
2, 12846, Note_off_c, 0, 65, 64
2, 12846, Note_on_c, 0, 72, 64
2, 12846, Note_on_c, 0, 51, 64
2, 12906, Note_off_c, 0, 51, 64
2, 12906, Note_on_c, 0, 53, 64
2, 12966, Note_off_c, 0, 53, 64
2, 12966, Note_off_c, 0, 72, 64
2, 12966, Note_on_c, 0, 63, 64
2, 12966, Note_on_c, 0, 55, 64
2, 13026, Note_off_c, 0, 55, 64
2, 13026, Note_on_c, 0, 51, 64
2, 13086, Note_off_c, 0, 51, 64
2, 13086, Note_off_c, 0, 63, 64
2, 13086, Note_on_c, 0, 72, 64
2, 13086, Note_on_c, 0, 50, 64
2, 13146, Note_off_c, 0, 50, 64
2, 13146, Note_on_c, 0, 51, 64
2, 13206, Note_off_c, 0, 51, 64
2, 13206, Note_off_c, 0, 72, 64
2, 13206, Note_on_c, 0, 62, 64
2, 13206, Note_on_c, 0, 53, 64
2, 13266, Note_off_c, 0, 53, 64
2, 13266, Note_on_c, 0, 50, 64
2, 13326, Note_off_c, 0, 50, 64
2, 13326, Note_off_c, 0, 62, 64
2, 13326, Note_on_c, 0, 71, 64
2, 13326, Note_on_c, 0, 48, 64
2, 13386, Note_off_c, 0, 48, 64
2, 13386, Note_on_c, 0, 50, 64
2, 13446, Note_off_c, 0, 50, 64
2, 13446, Note_off_c, 0, 71, 64
2, 13446, Note_on_c, 0, 60, 64
2, 13446, Note_on_c, 0, 51, 64
2, 13506, Note_off_c, 0, 60, 64
2, 13506, Note_on_c, 0, 63, 64
2, 13566, Note_off_c, 0, 63, 64
2, 13566, Note_off_c, 0, 51, 64
2, 13566, Note_on_c, 0, 67, 64
2, 13566, Note_on_c, 0, 48, 64
2, 13626, Note_off_c, 0, 67, 64
2, 13626, Note_on_c, 0, 72, 64
2, 13686, Note_off_c, 0, 72, 64
2, 13686, Note_off_c, 0, 48, 64
2, 13686, Note_on_c, 0, 62, 64
2, 13686, Note_on_c, 0, 53, 64
2, 13746, Note_off_c, 0, 62, 64
2, 13746, Note_on_c, 0, 72, 64
2, 13806, Note_off_c, 0, 72, 64
2, 13806, Note_off_c, 0, 53, 64
2, 13806, Note_on_c, 0, 71, 64
2, 13806, Note_on_c, 0, 50, 64
2, 13866, Note_off_c, 0, 71, 64
2, 13866, Note_on_c, 0, 69, 64
2, 13926, Note_off_c, 0, 69, 64
2, 13926, Note_off_c, 0, 50, 64
2, 13926, Note_on_c, 0, 62, 64
2, 13926, Note_on_c, 0, 55, 64
2, 13986, Note_off_c, 0, 62, 64
2, 13986, Note_on_c, 0, 67, 64
2, 14046, Note_off_c, 0, 67, 64
2, 14046, Note_off_c, 0, 55, 64
2, 14046, Note_on_c, 0, 71, 64
2, 14046, Note_on_c, 0, 53, 64
2, 14106, Note_off_c, 0, 71, 64
2, 14106, Note_on_c, 0, 74, 64
2, 14166, Note_off_c, 0, 74, 64
2, 14166, Note_off_c, 0, 53, 64
2, 14166, Note_on_c, 0, 63, 64
2, 14166, Note_on_c, 0, 55, 64
2, 14226, Note_off_c, 0, 63, 64
2, 14226, Note_on_c, 0, 74, 64
2, 14286, Note_off_c, 0, 74, 64
2, 14286, Note_off_c, 0, 55, 64
2, 14286, Note_on_c, 0, 51, 64
2, 14286, Note_on_c, 0, 72, 64
2, 14346, Note_off_c, 0, 72, 64
2, 14346, Note_on_c, 0, 71, 64
2, 14406, Note_off_c, 0, 71, 64
2, 14406, Note_off_c, 0, 51, 64
2, 14406, Note_on_c, 0, 63, 64
2, 14406, Note_on_c, 0, 56, 64
2, 14466, Note_off_c, 0, 63, 64
2, 14466, Note_on_c, 0, 68, 64
2, 14526, Note_off_c, 0, 68, 64
2, 14526, Note_off_c, 0, 56, 64
2, 14526, Note_on_c, 0, 72, 64
2, 14526, Note_on_c, 0, 55, 64
2, 14586, Note_off_c, 0, 72, 64
2, 14586, Note_on_c, 0, 75, 64
2, 14646, Note_off_c, 0, 75, 64
2, 14646, Note_off_c, 0, 55, 64
2, 14646, Note_on_c, 0, 65, 64
2, 14646, Note_on_c, 0, 57, 64
2, 14706, Note_off_c, 0, 65, 64
2, 14706, Note_on_c, 0, 75, 64
2, 14766, Note_off_c, 0, 75, 64
2, 14766, Note_off_c, 0, 57, 64
2, 14766, Note_on_c, 0, 74, 64
2, 14766, Note_on_c, 0, 53, 64
2, 14826, Note_off_c, 0, 74, 64
2, 14826, Note_on_c, 0, 72, 64
2, 14886, Note_off_c, 0, 72, 64
2, 14886, Note_off_c, 0, 53, 64
2, 14886, Note_on_c, 0, 65, 64
2, 14886, Note_on_c, 0, 58, 64
2, 14946, Note_off_c, 0, 65, 64
2, 14946, Note_on_c, 0, 70, 64
2, 15006, Note_off_c, 0, 70, 64
2, 15006, Note_off_c, 0, 58, 64
2, 15006, Note_on_c, 0, 74, 64
2, 15006, Note_on_c, 0, 57, 64
2, 15066, Note_off_c, 0, 74, 64
2, 15066, Note_on_c, 0, 77, 64
2, 15126, Note_off_c, 0, 77, 64
2, 15126, Note_off_c, 0, 57, 64
2, 15126, Note_on_c, 0, 67, 64
2, 15126, Note_on_c, 0, 59, 64
2, 15186, Note_off_c, 0, 67, 64
2, 15186, Note_on_c, 0, 77, 64
2, 15246, Note_off_c, 0, 77, 64
2, 15246, Note_off_c, 0, 59, 64
2, 15246, Note_on_c, 0, 55, 64
2, 15246, Note_on_c, 0, 75, 64
2, 15306, Note_off_c, 0, 75, 64
2, 15306, Note_on_c, 0, 74, 64
2, 15366, Note_off_c, 0, 74, 64
2, 15366, Note_off_c, 0, 55, 64
2, 15366, Note_on_c, 0, 75, 64
2, 15366, Note_on_c, 0, 60, 64
2, 15426, Note_off_c, 0, 60, 64
2, 15426, Note_off_c, 0, 75, 64
2, 15426, Note_on_c, 0, 72, 64
2, 15426, Note_on_c, 0, 68, 64
2, 15486, Note_off_c, 0, 68, 64
2, 15486, Note_off_c, 0, 72, 64
2, 15486, Note_on_c, 0, 70, 64
2, 15486, Note_on_c, 0, 67, 64
2, 15546, Note_off_c, 0, 67, 64
2, 15546, Note_off_c, 0, 70, 64
2, 15546, Note_on_c, 0, 72, 64
2, 15546, Note_on_c, 0, 68, 64
2, 15606, Note_off_c, 0, 68, 64
2, 15606, Note_off_c, 0, 72, 64
2, 15606, Note_on_c, 0, 74, 64
2, 15606, Note_on_c, 0, 58, 64
2, 15666, Note_off_c, 0, 58, 64
2, 15666, Note_off_c, 0, 74, 64
2, 15666, Note_on_c, 0, 70, 64
2, 15666, Note_on_c, 0, 67, 64
2, 15726, Note_off_c, 0, 67, 64
2, 15726, Note_off_c, 0, 70, 64
2, 15726, Note_on_c, 0, 68, 64
2, 15726, Note_on_c, 0, 65, 64
2, 15786, Note_off_c, 0, 65, 64
2, 15786, Note_off_c, 0, 68, 64
2, 15786, Note_on_c, 0, 70, 64
2, 15786, Note_on_c, 0, 67, 64
2, 15846, Note_off_c, 0, 67, 64
2, 15846, Note_off_c, 0, 70, 64
2, 15846, Note_on_c, 0, 72, 64
2, 15846, Note_on_c, 0, 56, 64
2, 15906, Note_off_c, 0, 72, 64
2, 15906, Note_on_c, 0, 70, 64
2, 15966, Note_off_c, 0, 70, 64
2, 15966, Note_off_c, 0, 56, 64
2, 15966, Note_on_c, 0, 68, 64
2, 16026, Note_off_c, 0, 68, 64
2, 16026, Note_on_c, 0, 67, 64
2, 16086, Note_off_c, 0, 67, 64
2, 16086, Note_on_c, 0, 65, 64
2, 16146, Note_off_c, 0, 65, 64
2, 16146, Note_on_c, 0, 63, 64
2, 16206, Note_off_c, 0, 63, 64
2, 16206, Note_on_c, 0, 62, 64
2, 16266, Note_off_c, 0, 62, 64
2, 16266, Note_on_c, 0, 60, 64
2, 16326, Note_off_c, 0, 60, 64
2, 16326, Note_on_c, 0, 74, 64
2, 16326, Note_on_c, 0, 58, 64
2, 16386, Note_off_c, 0, 58, 64
2, 16386, Note_off_c, 0, 74, 64
2, 16386, Note_on_c, 0, 70, 64
2, 16386, Note_on_c, 0, 67, 64
2, 16446, Note_off_c, 0, 67, 64
2, 16446, Note_off_c, 0, 70, 64
2, 16446, Note_on_c, 0, 68, 64
2, 16446, Note_on_c, 0, 65, 64
2, 16506, Note_off_c, 0, 65, 64
2, 16506, Note_off_c, 0, 68, 64
2, 16506, Note_on_c, 0, 70, 64
2, 16506, Note_on_c, 0, 67, 64
2, 16566, Note_off_c, 0, 67, 64
2, 16566, Note_off_c, 0, 70, 64
2, 16566, Note_on_c, 0, 72, 64
2, 16566, Note_on_c, 0, 56, 64
2, 16626, Note_off_c, 0, 56, 64
2, 16626, Note_off_c, 0, 72, 64
2, 16626, Note_on_c, 0, 68, 64
2, 16626, Note_on_c, 0, 65, 64
2, 16686, Note_off_c, 0, 65, 64
2, 16686, Note_off_c, 0, 68, 64
2, 16686, Note_on_c, 0, 67, 64
2, 16686, Note_on_c, 0, 63, 64
2, 16746, Note_off_c, 0, 63, 64
2, 16746, Note_off_c, 0, 67, 64
2, 16746, Note_on_c, 0, 68, 64
2, 16746, Note_on_c, 0, 65, 64
2, 16806, Note_off_c, 0, 65, 64
2, 16806, Note_off_c, 0, 68, 64
2, 16806, Note_on_c, 0, 70, 64
2, 16806, Note_on_c, 0, 55, 64
2, 16866, Note_off_c, 0, 70, 64
2, 16866, Note_on_c, 0, 68, 64
2, 16926, Note_off_c, 0, 68, 64
2, 16926, Note_off_c, 0, 55, 64
2, 16926, Note_on_c, 0, 67, 64
2, 16986, Note_off_c, 0, 67, 64
2, 16986, Note_on_c, 0, 65, 64
2, 17046, Note_off_c, 0, 65, 64
2, 17046, Note_on_c, 0, 63, 64
2, 17106, Note_off_c, 0, 63, 64
2, 17106, Note_on_c, 0, 61, 64
2, 17166, Note_off_c, 0, 61, 64
2, 17166, Note_on_c, 0, 60, 64
2, 17226, Note_off_c, 0, 60, 64
2, 17226, Note_on_c, 0, 58, 64
2, 17286, Note_off_c, 0, 58, 64
2, 17286, Note_on_c, 0, 72, 64
2, 17286, Note_on_c, 0, 56, 64
2, 17346, Note_off_c, 0, 56, 64
2, 17346, Note_off_c, 0, 72, 64
2, 17346, Note_on_c, 0, 68, 64
2, 17346, Note_on_c, 0, 65, 64
2, 17406, Note_off_c, 0, 65, 64
2, 17406, Note_off_c, 0, 68, 64
2, 17406, Note_on_c, 0, 67, 64
2, 17406, Note_on_c, 0, 63, 64
2, 17466, Note_off_c, 0, 63, 64
2, 17466, Note_off_c, 0, 67, 64
2, 17466, Note_on_c, 0, 68, 64
2, 17466, Note_on_c, 0, 65, 64
2, 17526, Note_off_c, 0, 65, 64
2, 17526, Note_off_c, 0, 68, 64
2, 17526, Note_on_c, 0, 70, 64
2, 17526, Note_on_c, 0, 55, 64
2, 17586, Note_off_c, 0, 55, 64
2, 17586, Note_off_c, 0, 70, 64
2, 17586, Note_on_c, 0, 67, 64
2, 17586, Note_on_c, 0, 63, 64
2, 17646, Note_off_c, 0, 63, 64
2, 17646, Note_off_c, 0, 67, 64
2, 17646, Note_on_c, 0, 65, 64
2, 17646, Note_on_c, 0, 62, 64
2, 17706, Note_off_c, 0, 62, 64
2, 17706, Note_off_c, 0, 65, 64
2, 17706, Note_on_c, 0, 67, 64
2, 17706, Note_on_c, 0, 63, 64
2, 17766, Note_off_c, 0, 63, 64
2, 17766, Note_off_c, 0, 67, 64
2, 17766, Note_on_c, 0, 68, 64
2, 17766, Note_on_c, 0, 53, 64
2, 17826, Note_off_c, 0, 53, 64
2, 17826, Note_off_c, 0, 68, 64
2, 17826, Note_on_c, 0, 65, 64
2, 17826, Note_on_c, 0, 62, 64
2, 17886, Note_off_c, 0, 62, 64
2, 17886, Note_off_c, 0, 65, 64
2, 17886, Note_on_c, 0, 63, 64
2, 17886, Note_on_c, 0, 60, 64
2, 17946, Note_off_c, 0, 60, 64
2, 17946, Note_off_c, 0, 63, 64
2, 17946, Note_on_c, 0, 65, 64
2, 17946, Note_on_c, 0, 62, 64
2, 18006, Note_off_c, 0, 62, 64
2, 18006, Note_off_c, 0, 65, 64
2, 18006, Note_on_c, 0, 68, 64
2, 18006, Note_on_c, 0, 51, 64
2, 18030, Note_on_c, 0, 67, 64
2, 18036, Note_off_c, 0, 68, 64
2, 18060, Note_off_c, 0, 67, 64
2, 18066, Note_off_c, 0, 51, 64
2, 18066, Note_on_c, 0, 68, 64
2, 18066, Note_on_c, 0, 60, 64
2, 18116, Note_off_c, 0, 68, 64
2, 18129, Note_off_c, 0, 60, 64
2, 18129, Note_on_c, 0, 68, 64
2, 18129, Note_on_c, 0, 58, 64
2, 18189, Note_off_c, 0, 58, 64
2, 18189, Note_on_c, 0, 60, 64
2, 18249, Note_off_c, 0, 60, 64
2, 18249, Note_off_c, 0, 68, 64
2, 18249, Note_on_c, 0, 68, 64
2, 18249, Note_on_c, 0, 50, 64
2, 18309, Note_off_c, 0, 50, 64
2, 18309, Note_off_c, 0, 68, 64
2, 18309, Note_on_c, 0, 67, 64
2, 18309, Note_on_c, 0, 58, 64
2, 18369, Note_off_c, 0, 58, 64
2, 18369, Note_off_c, 0, 67, 64
2, 18369, Note_on_c, 0, 65, 64
2, 18369, Note_on_c, 0, 56, 64
2, 18429, Note_off_c, 0, 56, 64
2, 18429, Note_off_c, 0, 65, 64
2, 18429, Note_on_c, 0, 67, 64
2, 18429, Note_on_c, 0, 58, 64
2, 18481, Note_on_c, 0, 68, 64
2, 18489, Note_off_c, 0, 58, 64
2, 18489, Note_off_c, 0, 67, 64
2, 18489, Note_on_c, 0, 48, 64
2, 18511, Note_off_c, 0, 68, 64
2, 18513, Note_on_c, 0, 67, 64
2, 18543, Note_off_c, 0, 67, 64
2, 18549, Note_off_c, 0, 48, 64
2, 18549, Note_on_c, 0, 68, 64
2, 18549, Note_on_c, 0, 56, 64
2, 18599, Note_off_c, 0, 68, 64
2, 18612, Note_off_c, 0, 56, 64
2, 18612, Note_on_c, 0, 68, 64
2, 18612, Note_on_c, 0, 55, 64
2, 18672, Note_off_c, 0, 55, 64
2, 18672, Note_on_c, 0, 56, 64
2, 18732, Note_off_c, 0, 56, 64
2, 18732, Note_off_c, 0, 68, 64
2, 18732, Note_on_c, 0, 68, 64
2, 18732, Note_on_c, 0, 46, 64
2, 18792, Note_off_c, 0, 68, 64
2, 18792, Note_on_c, 0, 74, 64
2, 18852, Note_off_c, 0, 74, 64
2, 18852, Note_off_c, 0, 46, 64
2, 18852, Note_on_c, 0, 77, 64
2, 18852, Note_on_c, 0, 58, 64
2, 18912, Note_off_c, 0, 77, 64
2, 18912, Note_on_c, 0, 75, 64
2, 18972, Note_off_c, 0, 75, 64
2, 18972, Note_off_c, 0, 58, 64
2, 18972, Note_on_c, 0, 74, 64
2, 19032, Note_off_c, 0, 74, 64
2, 19032, Note_on_c, 0, 72, 64
2, 19092, Note_off_c, 0, 72, 64
2, 19092, Note_on_c, 0, 50, 64
2, 19092, Note_on_c, 0, 70, 64
2, 19152, Note_off_c, 0, 70, 64
2, 19152, Note_on_c, 0, 68, 64
2, 19212, Note_off_c, 0, 68, 64
2, 19212, Note_off_c, 0, 50, 64
2, 19212, Note_on_c, 0, 67, 64
2, 19212, Note_on_c, 0, 51, 64
2, 19272, Note_off_c, 0, 67, 64
2, 19272, Note_on_c, 0, 70, 64
2, 19332, Note_off_c, 0, 70, 64
2, 19332, Note_off_c, 0, 51, 64
2, 19332, Note_on_c, 0, 75, 64
2, 19332, Note_on_c, 0, 48, 64
2, 19392, Note_off_c, 0, 75, 64
2, 19392, Note_on_c, 0, 67, 64
2, 19452, Note_off_c, 0, 67, 64
2, 19452, Note_off_c, 0, 48, 64
2, 19452, Note_on_c, 0, 65, 64
2, 19452, Note_on_c, 0, 44, 64
2, 19512, Note_off_c, 0, 65, 64
2, 19512, Note_on_c, 0, 75, 64
2, 19572, Note_off_c, 0, 75, 64
2, 19572, Note_off_c, 0, 44, 64
2, 19572, Note_on_c, 0, 65, 64
2, 19572, Note_on_c, 0, 46, 64
2, 19632, Note_off_c, 0, 65, 64
2, 19632, Note_on_c, 0, 74, 64
2, 19692, Note_off_c, 0, 74, 64
2, 19692, Note_off_c, 0, 46, 64
2, 19692, Note_on_c, 0, 75, 64
2, 19692, Note_on_c, 0, 39, 64
2, 19752, Note_off_c, 0, 75, 64
2, 19752, Note_on_c, 0, 70, 64
2, 19812, Note_off_c, 0, 70, 64
2, 19812, Note_off_c, 0, 39, 64
2, 19812, Note_on_c, 0, 68, 64
2, 19812, Note_on_c, 0, 51, 64
2, 19872, Note_off_c, 0, 68, 64
2, 19872, Note_on_c, 0, 70, 64
2, 19932, Note_off_c, 0, 70, 64
2, 19932, Note_off_c, 0, 51, 64
2, 19932, Note_on_c, 0, 72, 64
2, 19932, Note_on_c, 0, 44, 64
2, 19992, Note_off_c, 0, 72, 64
2, 19992, Note_on_c, 0, 68, 64
2, 20052, Note_off_c, 0, 68, 64
2, 20052, Note_off_c, 0, 44, 64
2, 20052, Note_on_c, 0, 51, 64
2, 20052, Note_on_c, 0, 67, 64
2, 20112, Note_off_c, 0, 67, 64
2, 20112, Note_on_c, 0, 68, 64
2, 20172, Note_off_c, 0, 68, 64
2, 20172, Note_off_c, 0, 51, 64
2, 20172, Note_on_c, 0, 70, 64
2, 20172, Note_on_c, 0, 43, 64
2, 20232, Note_off_c, 0, 70, 64
2, 20232, Note_on_c, 0, 67, 64
2, 20292, Note_off_c, 0, 67, 64
2, 20292, Note_off_c, 0, 43, 64
2, 20292, Note_on_c, 0, 65, 64
2, 20292, Note_on_c, 0, 51, 64
2, 20352, Note_off_c, 0, 65, 64
2, 20352, Note_on_c, 0, 67, 64
2, 20412, Note_off_c, 0, 67, 64
2, 20412, Note_off_c, 0, 51, 64
2, 20412, Note_on_c, 0, 68, 64
2, 20412, Note_on_c, 0, 41, 64
2, 20472, Note_off_c, 0, 68, 64
2, 20472, Note_on_c, 0, 65, 64
2, 20532, Note_off_c, 0, 65, 64
2, 20532, Note_off_c, 0, 41, 64
2, 20532, Note_on_c, 0, 63, 64
2, 20532, Note_on_c, 0, 50, 64
2, 20592, Note_off_c, 0, 63, 64
2, 20592, Note_on_c, 0, 65, 64
2, 20652, Note_off_c, 0, 65, 64
2, 20652, Note_off_c, 0, 50, 64
2, 20652, Note_on_c, 0, 67, 64
2, 20652, Note_on_c, 0, 51, 64
2, 20712, Note_off_c, 0, 51, 64
2, 20712, Note_off_c, 0, 67, 64
2, 20712, Note_on_c, 0, 63, 64
2, 20712, Note_on_c, 0, 55, 64
2, 20772, Note_off_c, 0, 55, 64
2, 20772, Note_off_c, 0, 63, 64
2, 20772, Note_on_c, 0, 62, 64
2, 20772, Note_on_c, 0, 53, 64
2, 20832, Note_off_c, 0, 53, 64
2, 20832, Note_off_c, 0, 62, 64
2, 20832, Note_on_c, 0, 63, 64
2, 20832, Note_on_c, 0, 55, 64
2, 20892, Note_off_c, 0, 55, 64
2, 20892, Note_off_c, 0, 63, 64
2, 20892, Note_on_c, 0, 60, 64
2, 20892, Note_on_c, 0, 56, 64
2, 20952, Note_off_c, 0, 56, 64
2, 20952, Note_on_c, 0, 53, 64
2, 21012, Note_off_c, 0, 53, 64
2, 21012, Note_off_c, 0, 60, 64
2, 21012, Note_on_c, 0, 68, 64
2, 21012, Note_on_c, 0, 51, 64
2, 21072, Note_off_c, 0, 51, 64
2, 21072, Note_on_c, 0, 53, 64
2, 21132, Note_off_c, 0, 53, 64
2, 21132, Note_off_c, 0, 68, 64
2, 21132, Note_on_c, 0, 58, 64
2, 21132, Note_on_c, 0, 55, 64
2, 21192, Note_off_c, 0, 55, 64
2, 21192, Note_on_c, 0, 51, 64
2, 21252, Note_off_c, 0, 51, 64
2, 21252, Note_off_c, 0, 58, 64
2, 21252, Note_on_c, 0, 67, 64
2, 21252, Note_on_c, 0, 50, 64
2, 21312, Note_off_c, 0, 50, 64
2, 21312, Note_on_c, 0, 51, 64
2, 21372, Note_off_c, 0, 51, 64
2, 21372, Note_off_c, 0, 67, 64
2, 21372, Note_on_c, 0, 56, 64
2, 21372, Note_on_c, 0, 53, 64
2, 21432, Note_off_c, 0, 53, 64
2, 21432, Note_on_c, 0, 50, 64
2, 21492, Note_off_c, 0, 50, 64
2, 21492, Note_off_c, 0, 56, 64
2, 21492, Note_on_c, 0, 65, 64
2, 21492, Note_on_c, 0, 48, 64
2, 21552, Note_off_c, 0, 48, 64
2, 21552, Note_on_c, 0, 50, 64
2, 21612, Note_off_c, 0, 50, 64
2, 21612, Note_off_c, 0, 65, 64
2, 21612, Note_on_c, 0, 55, 64
2, 21612, Note_on_c, 0, 51, 64
2, 21672, Note_off_c, 0, 55, 64
2, 21672, Note_on_c, 0, 58, 64
2, 21732, Note_off_c, 0, 58, 64
2, 21732, Note_off_c, 0, 51, 64
2, 21732, Note_on_c, 0, 63, 64
2, 21732, Note_on_c, 0, 55, 64
2, 21792, Note_off_c, 0, 63, 64
2, 21792, Note_on_c, 0, 67, 64
2, 21852, Note_off_c, 0, 55, 64
2, 21852, Note_on_c, 0, 56, 64
2, 21912, Note_off_c, 0, 67, 64
2, 21912, Note_on_c, 0, 65, 64
2, 21972, Note_off_c, 0, 65, 64
2, 21972, Note_off_c, 0, 56, 64
2, 21972, Note_on_c, 0, 58, 64
2, 21972, Note_on_c, 0, 63, 64
2, 22032, Note_off_c, 0, 63, 64
2, 22032, Note_on_c, 0, 62, 64
2, 22092, Note_off_c, 0, 62, 64
2, 22092, Note_off_c, 0, 58, 64
2, 22092, Note_on_c, 0, 63, 64
2, 22092, Note_on_c, 0, 60, 64
2, 22152, Note_on_c, 0, 67, 64
2, 22212, Note_off_c, 0, 67, 64
2, 22212, Note_off_c, 0, 60, 64
2, 22212, Note_on_c, 0, 72, 64
2, 22212, Note_on_c, 0, 56, 64
2, 22272, Note_on_c, 0, 65, 64
2, 22332, Note_off_c, 0, 65, 64
2, 22332, Note_off_c, 0, 56, 64
2, 22332, Note_off_c, 0, 72, 64
2, 22332, Note_on_c, 0, 67, 64
2, 22332, Note_on_c, 0, 70, 64
2, 22332, Note_on_c, 0, 58, 64
2, 22392, Note_off_c, 0, 63, 64
2, 22392, Note_on_c, 0, 63, 64
2, 22452, Note_off_c, 0, 58, 64
2, 22452, Note_off_c, 0, 70, 64
2, 22452, Note_off_c, 0, 67, 64
2, 22452, Note_on_c, 0, 65, 64
2, 22452, Note_on_c, 0, 68, 64
2, 22452, Note_on_c, 0, 46, 64
2, 22512, Note_off_c, 0, 63, 64
2, 22512, Note_on_c, 0, 62, 64
2, 22572, Note_off_c, 0, 62, 64
2, 22572, Note_off_c, 0, 46, 64
2, 22572, Note_off_c, 0, 68, 64
2, 22572, Note_off_c, 0, 65, 64
2, 22572, Note_on_c, 0, 58, 64
2, 22572, Note_on_c, 0, 63, 64
2, 22572, Note_on_c, 0, 67, 64
2, 22632, Note_on_c, 0, 51, 64
2, 22692, Note_off_c, 0, 51, 64
2, 22692, Note_on_c, 0, 46, 64
2, 22752, Note_off_c, 0, 46, 64
2, 22752, Note_on_c, 0, 43, 64
2, 22812, Note_off_c, 0, 43, 64
2, 22812, Note_on_c, 0, 39, 64
2, 23042, Note_off_c, 0, 39, 64
2, 23042, Note_off_c, 0, 67, 64
2, 23042, Note_off_c, 0, 63, 64
2, 23042, Note_off_c, 0, 58, 64
2, 23055, Note_on_c, 0, 51, 64
2, 23115, Note_on_c, 0, 70, 64
2, 23175, Note_off_c, 0, 70, 64
2, 23175, Note_off_c, 0, 51, 64
2, 23175, Note_on_c, 0, 69, 64
2, 23175, Note_on_c, 0, 53, 64
2, 23235, Note_off_c, 0, 69, 64
2, 23235, Note_on_c, 0, 70, 64
2, 23295, Note_off_c, 0, 70, 64
2, 23295, Note_off_c, 0, 53, 64
2, 23295, Note_on_c, 0, 75, 64
2, 23295, Note_on_c, 0, 55, 64
2, 23355, Note_off_c, 0, 75, 64
2, 23355, Note_on_c, 0, 70, 64
2, 23415, Note_off_c, 0, 70, 64
2, 23415, Note_off_c, 0, 55, 64
2, 23415, Note_on_c, 0, 69, 64
2, 23415, Note_on_c, 0, 51, 64
2, 23475, Note_off_c, 0, 69, 64
2, 23475, Note_on_c, 0, 70, 64
2, 23535, Note_off_c, 0, 70, 64
2, 23535, Note_off_c, 0, 51, 64
2, 23535, Note_on_c, 0, 77, 64
2, 23535, Note_on_c, 0, 50, 64
2, 23595, Note_off_c, 0, 77, 64
2, 23595, Note_on_c, 0, 70, 64
2, 23655, Note_off_c, 0, 70, 64
2, 23655, Note_off_c, 0, 50, 64
2, 23655, Note_on_c, 0, 69, 64
2, 23655, Note_on_c, 0, 48, 64
2, 23715, Note_off_c, 0, 69, 64
2, 23715, Note_on_c, 0, 70, 64
2, 23775, Note_off_c, 0, 70, 64
2, 23775, Note_off_c, 0, 48, 64
2, 23775, Note_on_c, 0, 80, 64
2, 23775, Note_on_c, 0, 50, 64
2, 23835, Note_off_c, 0, 80, 64
2, 23835, Note_on_c, 0, 70, 64
2, 23895, Note_off_c, 0, 70, 64
2, 23895, Note_off_c, 0, 50, 64
2, 23895, Note_on_c, 0, 46, 64
2, 23895, Note_on_c, 0, 69, 64
2, 23955, Note_off_c, 0, 69, 64
2, 23955, Note_on_c, 0, 70, 64
2, 24015, Note_off_c, 0, 70, 64
2, 24015, Note_off_c, 0, 46, 64
2, 24015, Note_on_c, 0, 79, 64
2, 24015, Note_on_c, 0, 51, 64
2, 24075, Note_off_c, 0, 51, 64
2, 24075, Note_on_c, 0, 55, 64
2, 24135, Note_off_c, 0, 55, 64
2, 24135, Note_off_c, 0, 79, 64
2, 24135, Note_on_c, 0, 75, 64
2, 24135, Note_on_c, 0, 56, 64
2, 24195, Note_off_c, 0, 56, 64
2, 24195, Note_on_c, 0, 55, 64
2, 24255, Note_off_c, 0, 55, 64
2, 24255, Note_off_c, 0, 75, 64
2, 24255, Note_on_c, 0, 72, 76
2, 24255, Note_on_c, 0, 44, 64
2, 24275, Note_off_c, 0, 72, 64
2, 24275, Note_on_c, 0, 71, 56
2, 24295, Note_off_c, 0, 71, 64
2, 24295, Note_on_c, 0, 72, 64
2, 24315, Note_off_c, 0, 72, 64
2, 24315, Note_off_c, 0, 44, 64
2, 24315, Note_on_c, 0, 71, 64
2, 24315, Note_on_c, 0, 55, 64
2, 24375, Note_off_c, 0, 55, 64
2, 24375, Note_off_c, 0, 71, 64
2, 24375, Note_on_c, 0, 72, 64
2, 24375, Note_on_c, 0, 56, 64
2, 24435, Note_off_c, 0, 56, 64
2, 24435, Note_on_c, 0, 55, 64
2, 24495, Note_off_c, 0, 55, 64
2, 24495, Note_off_c, 0, 72, 64
2, 24495, Note_on_c, 0, 77, 64
2, 24495, Note_on_c, 0, 50, 64
2, 24555, Note_off_c, 0, 50, 64
2, 24555, Note_on_c, 0, 53, 64
2, 24615, Note_off_c, 0, 53, 64
2, 24615, Note_off_c, 0, 77, 64
2, 24615, Note_on_c, 0, 74, 64
2, 24615, Note_on_c, 0, 55, 64
2, 24675, Note_off_c, 0, 55, 64
2, 24675, Note_on_c, 0, 53, 64
2, 24735, Note_off_c, 0, 53, 64
2, 24735, Note_off_c, 0, 74, 64
2, 24735, Note_on_c, 0, 71, 76
2, 24735, Note_on_c, 0, 43, 64
2, 24755, Note_off_c, 0, 71, 64
2, 24755, Note_on_c, 0, 69, 56
2, 24775, Note_off_c, 0, 69, 64
2, 24775, Note_on_c, 0, 71, 64
2, 24795, Note_off_c, 0, 71, 64
2, 24795, Note_off_c, 0, 43, 64
2, 24795, Note_on_c, 0, 69, 64
2, 24795, Note_on_c, 0, 53, 64
2, 24855, Note_off_c, 0, 53, 64
2, 24855, Note_off_c, 0, 69, 64
2, 24855, Note_on_c, 0, 71, 64
2, 24855, Note_on_c, 0, 55, 64
2, 24915, Note_off_c, 0, 55, 64
2, 24915, Note_on_c, 0, 53, 64
2, 24975, Note_off_c, 0, 53, 64
2, 24975, Note_off_c, 0, 71, 64
2, 24975, Note_on_c, 0, 75, 64
2, 24975, Note_on_c, 0, 48, 64
2, 25035, Note_off_c, 0, 75, 64
2, 25035, Note_on_c, 0, 63, 64
2, 25095, Note_off_c, 0, 63, 64
2, 25095, Note_off_c, 0, 48, 64
2, 25095, Note_on_c, 0, 62, 64
2, 25095, Note_on_c, 0, 60, 64
2, 25155, Note_off_c, 0, 62, 64
2, 25155, Note_on_c, 0, 63, 64
2, 25215, Note_off_c, 0, 63, 64
2, 25215, Note_off_c, 0, 60, 64
2, 25215, Note_on_c, 0, 67, 64
2, 25215, Note_on_c, 0, 58, 64
2, 25275, Note_off_c, 0, 67, 64
2, 25275, Note_on_c, 0, 63, 64
2, 25335, Note_off_c, 0, 63, 64
2, 25335, Note_off_c, 0, 58, 64
2, 25335, Note_on_c, 0, 62, 64
2, 25335, Note_on_c, 0, 56, 64
2, 25395, Note_off_c, 0, 62, 64
2, 25395, Note_on_c, 0, 63, 64
2, 25455, Note_off_c, 0, 63, 64
2, 25455, Note_off_c, 0, 56, 64
2, 25455, Note_on_c, 0, 70, 64
2, 25455, Note_on_c, 0, 55, 64
2, 25515, Note_off_c, 0, 70, 64
2, 25515, Note_on_c, 0, 63, 64
2, 25575, Note_off_c, 0, 63, 64
2, 25575, Note_off_c, 0, 55, 64
2, 25575, Note_on_c, 0, 62, 64
2, 25575, Note_on_c, 0, 53, 64
2, 25635, Note_off_c, 0, 62, 64
2, 25635, Note_on_c, 0, 63, 64
2, 25695, Note_off_c, 0, 63, 64
2, 25695, Note_off_c, 0, 53, 64
2, 25695, Note_on_c, 0, 73, 64
2, 25695, Note_on_c, 0, 55, 64
2, 25755, Note_off_c, 0, 73, 64
2, 25755, Note_on_c, 0, 63, 64
2, 25815, Note_off_c, 0, 63, 64
2, 25815, Note_off_c, 0, 55, 64
2, 25815, Note_on_c, 0, 51, 64
2, 25815, Note_on_c, 0, 62, 64
2, 25875, Note_off_c, 0, 62, 64
2, 25875, Note_on_c, 0, 63, 64
2, 25935, Note_off_c, 0, 63, 64
2, 25935, Note_off_c, 0, 51, 64
2, 25935, Note_on_c, 0, 72, 64
2, 25935, Note_on_c, 0, 56, 64
2, 25995, Note_off_c, 0, 56, 64
2, 25995, Note_on_c, 0, 60, 64
2, 26055, Note_off_c, 0, 60, 64
2, 26055, Note_off_c, 0, 72, 64
2, 26055, Note_on_c, 0, 68, 64
2, 26055, Note_on_c, 0, 61, 64
2, 26115, Note_off_c, 0, 61, 64
2, 26115, Note_on_c, 0, 60, 64
2, 26175, Note_off_c, 0, 60, 64
2, 26175, Note_off_c, 0, 68, 64
2, 26175, Note_on_c, 0, 65, 76
2, 26175, Note_on_c, 0, 49, 64
2, 26195, Note_off_c, 0, 65, 64
2, 26195, Note_on_c, 0, 64, 56
2, 26215, Note_off_c, 0, 64, 64
2, 26215, Note_on_c, 0, 65, 64
2, 26235, Note_off_c, 0, 65, 64
2, 26235, Note_off_c, 0, 49, 64
2, 26235, Note_on_c, 0, 64, 64
2, 26235, Note_on_c, 0, 60, 64
2, 26295, Note_off_c, 0, 60, 64
2, 26295, Note_off_c, 0, 64, 64
2, 26295, Note_on_c, 0, 65, 64
2, 26295, Note_on_c, 0, 61, 64
2, 26355, Note_off_c, 0, 61, 64
2, 26355, Note_on_c, 0, 60, 64
2, 26415, Note_off_c, 0, 60, 64
2, 26415, Note_off_c, 0, 65, 64
2, 26415, Note_on_c, 0, 70, 64
2, 26415, Note_on_c, 0, 55, 64
2, 26475, Note_off_c, 0, 55, 64
2, 26475, Note_on_c, 0, 58, 64
2, 26535, Note_off_c, 0, 58, 64
2, 26535, Note_off_c, 0, 70, 64
2, 26535, Note_on_c, 0, 67, 64
2, 26535, Note_on_c, 0, 60, 64
2, 26595, Note_off_c, 0, 60, 64
2, 26595, Note_on_c, 0, 58, 64
2, 26655, Note_off_c, 0, 58, 64
2, 26655, Note_off_c, 0, 67, 64
2, 26655, Note_on_c, 0, 64, 76
2, 26655, Note_on_c, 0, 48, 64
2, 26675, Note_off_c, 0, 64, 64
2, 26675, Note_on_c, 0, 62, 56
2, 26695, Note_off_c, 0, 62, 64
2, 26695, Note_on_c, 0, 64, 64
2, 26715, Note_off_c, 0, 64, 64
2, 26715, Note_off_c, 0, 48, 64
2, 26715, Note_on_c, 0, 62, 64
2, 26715, Note_on_c, 0, 58, 64
2, 26775, Note_off_c, 0, 58, 64
2, 26775, Note_off_c, 0, 62, 64
2, 26775, Note_on_c, 0, 64, 64
2, 26775, Note_on_c, 0, 60, 64
2, 26835, Note_off_c, 0, 60, 64
2, 26835, Note_on_c, 0, 58, 64
2, 26895, Note_off_c, 0, 58, 64
2, 26895, Note_off_c, 0, 64, 64
2, 26895, Note_on_c, 0, 68, 64
2, 26895, Note_on_c, 0, 53, 64
2, 26955, Note_off_c, 0, 68, 64
2, 26955, Note_on_c, 0, 72, 64
2, 27015, Note_off_c, 0, 72, 64
2, 27015, Note_off_c, 0, 53, 64
2, 27015, Note_on_c, 0, 71, 64
2, 27015, Note_on_c, 0, 56, 64
2, 27075, Note_off_c, 0, 71, 64
2, 27075, Note_on_c, 0, 72, 64
2, 27135, Note_off_c, 0, 72, 64
2, 27135, Note_off_c, 0, 56, 64
2, 27135, Note_on_c, 0, 73, 64
2, 27135, Note_on_c, 0, 53, 64
2, 27195, Note_off_c, 0, 73, 64
2, 27195, Note_on_c, 0, 72, 64
2, 27255, Note_off_c, 0, 72, 64
2, 27255, Note_off_c, 0, 53, 64
2, 27255, Note_on_c, 0, 71, 64
2, 27255, Note_on_c, 0, 61, 64
2, 27315, Note_off_c, 0, 71, 64
2, 27315, Note_on_c, 0, 72, 64
2, 27375, Note_off_c, 0, 72, 64
2, 27375, Note_off_c, 0, 61, 64
2, 27375, Note_on_c, 0, 67, 64
2, 27375, Note_on_c, 0, 52, 64
2, 27435, Note_off_c, 0, 67, 64
2, 27435, Note_on_c, 0, 72, 64
2, 27495, Note_off_c, 0, 72, 64
2, 27495, Note_off_c, 0, 52, 64
2, 27495, Note_on_c, 0, 71, 64
2, 27495, Note_on_c, 0, 55, 64
2, 27555, Note_off_c, 0, 71, 64
2, 27555, Note_on_c, 0, 72, 64
2, 27615, Note_off_c, 0, 72, 64
2, 27615, Note_off_c, 0, 55, 64
2, 27615, Note_on_c, 0, 73, 64
2, 27615, Note_on_c, 0, 51, 64
2, 27675, Note_off_c, 0, 73, 64
2, 27675, Note_on_c, 0, 72, 64
2, 27735, Note_off_c, 0, 72, 64
2, 27735, Note_off_c, 0, 51, 64
2, 27735, Note_on_c, 0, 60, 64
2, 27735, Note_on_c, 0, 71, 64
2, 27795, Note_off_c, 0, 71, 64
2, 27795, Note_on_c, 0, 72, 64
2, 27855, Note_off_c, 0, 72, 64
2, 27855, Note_off_c, 0, 60, 64
2, 27855, Note_on_c, 0, 65, 64
2, 27855, Note_on_c, 0, 50, 64
2, 27915, Note_off_c, 0, 65, 64
2, 27915, Note_on_c, 0, 72, 64
2, 27975, Note_off_c, 0, 72, 64
2, 27975, Note_off_c, 0, 50, 64
2, 27975, Note_on_c, 0, 74, 64
2, 27975, Note_on_c, 0, 53, 64
2, 28035, Note_off_c, 0, 74, 64
2, 28035, Note_on_c, 0, 76, 64
2, 28095, Note_off_c, 0, 76, 64
2, 28095, Note_off_c, 0, 53, 64
2, 28095, Note_on_c, 0, 77, 64
2, 28095, Note_on_c, 0, 49, 64
2, 28155, Note_off_c, 0, 77, 64
2, 28155, Note_on_c, 0, 70, 64
2, 28215, Note_off_c, 0, 70, 64
2, 28215, Note_off_c, 0, 49, 64
2, 28215, Note_on_c, 0, 69, 64
2, 28215, Note_on_c, 0, 58, 64
2, 28275, Note_off_c, 0, 69, 64
2, 28275, Note_on_c, 0, 70, 64
2, 28335, Note_off_c, 0, 70, 64
2, 28335, Note_off_c, 0, 58, 64
2, 28335, Note_on_c, 0, 77, 64
2, 28335, Note_on_c, 0, 48, 64
2, 28395, Note_off_c, 0, 77, 64
2, 28395, Note_on_c, 0, 76, 64
2, 28455, Note_off_c, 0, 76, 64
2, 28455, Note_off_c, 0, 48, 64
2, 28455, Note_on_c, 0, 74, 64
2, 28455, Note_on_c, 0, 50, 64
2, 28515, Note_off_c, 0, 74, 64
2, 28515, Note_on_c, 0, 72, 64
2, 28575, Note_off_c, 0, 72, 64
2, 28575, Note_off_c, 0, 50, 64
2, 28575, Note_on_c, 0, 70, 64
2, 28575, Note_on_c, 0, 52, 64
2, 28635, Note_off_c, 0, 70, 64
2, 28635, Note_on_c, 0, 68, 64
2, 28695, Note_off_c, 0, 68, 64
2, 28695, Note_off_c, 0, 52, 64
2, 28695, Note_on_c, 0, 48, 64
2, 28695, Note_on_c, 0, 67, 64
2, 28755, Note_off_c, 0, 67, 64
2, 28755, Note_on_c, 0, 65, 64
2, 28815, Note_off_c, 0, 65, 64
2, 28815, Note_off_c, 0, 48, 64
2, 28815, Note_on_c, 0, 68, 64
2, 28815, Note_on_c, 0, 53, 64
2, 28875, Note_off_c, 0, 53, 64
2, 28875, Note_off_c, 0, 68, 64
2, 28875, Note_on_c, 0, 65, 64
2, 28875, Note_on_c, 0, 56, 64
2, 28935, Note_off_c, 0, 56, 64
2, 28935, Note_off_c, 0, 65, 64
2, 28935, Note_on_c, 0, 64, 64
2, 28935, Note_on_c, 0, 55, 64
2, 28995, Note_off_c, 0, 55, 64
2, 28995, Note_off_c, 0, 64, 64
2, 28995, Note_on_c, 0, 65, 64
2, 28995, Note_on_c, 0, 56, 64
2, 29055, Note_off_c, 0, 56, 64
2, 29055, Note_off_c, 0, 65, 64
2, 29055, Note_on_c, 0, 72, 64
2, 29055, Note_on_c, 0, 51, 64
2, 29115, Note_off_c, 0, 51, 64
2, 29115, Note_off_c, 0, 72, 64
2, 29115, Note_on_c, 0, 65, 64
2, 29115, Note_on_c, 0, 60, 64
2, 29175, Note_off_c, 0, 60, 64
2, 29175, Note_off_c, 0, 65, 64
2, 29175, Note_on_c, 0, 64, 64
2, 29175, Note_on_c, 0, 58, 64
2, 29235, Note_off_c, 0, 58, 64
2, 29235, Note_off_c, 0, 64, 64
2, 29235, Note_on_c, 0, 65, 64
2, 29235, Note_on_c, 0, 60, 64
2, 29295, Note_off_c, 0, 60, 64
2, 29295, Note_off_c, 0, 65, 64
2, 29295, Note_on_c, 0, 77, 64
2, 29295, Note_on_c, 0, 49, 64
2, 29355, Note_off_c, 0, 77, 64
2, 29355, Note_on_c, 0, 75, 64
2, 29415, Note_off_c, 0, 75, 64
2, 29415, Note_off_c, 0, 49, 64
2, 29415, Note_on_c, 0, 73, 64
2, 29415, Note_on_c, 0, 53, 64
2, 29475, Note_off_c, 0, 73, 64
2, 29475, Note_on_c, 0, 72, 64
2, 29535, Note_off_c, 0, 72, 64
2, 29535, Note_off_c, 0, 53, 64
2, 29535, Note_on_c, 0, 70, 64
2, 29535, Note_on_c, 0, 58, 64
2, 29595, Note_off_c, 0, 70, 64
2, 29595, Note_on_c, 0, 68, 64
2, 29655, Note_off_c, 0, 68, 64
2, 29655, Note_off_c, 0, 58, 64
2, 29655, Note_on_c, 0, 61, 64
2, 29655, Note_on_c, 0, 67, 64
2, 29715, Note_off_c, 0, 67, 64
2, 29715, Note_on_c, 0, 65, 64
2, 29775, Note_off_c, 0, 65, 64
2, 29775, Note_off_c, 0, 61, 64
2, 29775, Note_on_c, 0, 67, 64
2, 29775, Note_on_c, 0, 51, 64
2, 29835, Note_off_c, 0, 51, 64
2, 29835, Note_off_c, 0, 67, 64
2, 29835, Note_on_c, 0, 63, 64
2, 29835, Note_on_c, 0, 55, 64
2, 29895, Note_off_c, 0, 55, 64
2, 29895, Note_off_c, 0, 63, 64
2, 29895, Note_on_c, 0, 62, 64
2, 29895, Note_on_c, 0, 53, 64
2, 29955, Note_off_c, 0, 53, 64
2, 29955, Note_off_c, 0, 62, 64
2, 29955, Note_on_c, 0, 63, 64
2, 29955, Note_on_c, 0, 55, 64
2, 30015, Note_off_c, 0, 55, 64
2, 30015, Note_off_c, 0, 63, 64
2, 30015, Note_on_c, 0, 70, 64
2, 30015, Note_on_c, 0, 49, 64
2, 30075, Note_off_c, 0, 49, 64
2, 30075, Note_off_c, 0, 70, 64
2, 30075, Note_on_c, 0, 67, 64
2, 30075, Note_on_c, 0, 58, 64
2, 30135, Note_off_c, 0, 58, 64
2, 30135, Note_off_c, 0, 67, 64
2, 30135, Note_on_c, 0, 65, 64
2, 30135, Note_on_c, 0, 56, 64
2, 30195, Note_off_c, 0, 56, 64
2, 30195, Note_off_c, 0, 65, 64
2, 30195, Note_on_c, 0, 67, 64
2, 30195, Note_on_c, 0, 58, 64
2, 30255, Note_off_c, 0, 58, 64
2, 30255, Note_off_c, 0, 67, 64
2, 30255, Note_on_c, 0, 75, 64
2, 30255, Note_on_c, 0, 48, 64
2, 30315, Note_off_c, 0, 75, 64
2, 30315, Note_on_c, 0, 73, 64
2, 30375, Note_off_c, 0, 73, 64
2, 30375, Note_off_c, 0, 48, 64
2, 30375, Note_on_c, 0, 72, 64
2, 30375, Note_on_c, 0, 51, 64
2, 30435, Note_off_c, 0, 72, 64
2, 30435, Note_on_c, 0, 70, 64
2, 30495, Note_off_c, 0, 70, 64
2, 30495, Note_off_c, 0, 51, 64
2, 30495, Note_on_c, 0, 68, 64
2, 30495, Note_on_c, 0, 56, 64
2, 30555, Note_off_c, 0, 68, 64
2, 30555, Note_on_c, 0, 67, 64
2, 30615, Note_off_c, 0, 67, 64
2, 30615, Note_off_c, 0, 56, 64
2, 30615, Note_on_c, 0, 60, 64
2, 30615, Note_on_c, 0, 65, 64
2, 30675, Note_off_c, 0, 65, 64
2, 30675, Note_on_c, 0, 64, 64
2, 30735, Note_off_c, 0, 64, 64
2, 30735, Note_off_c, 0, 60, 64
2, 30735, Note_on_c, 0, 65, 64
2, 30735, Note_on_c, 0, 49, 64
2, 30795, Note_off_c, 0, 49, 64
2, 30795, Note_on_c, 0, 53, 64
2, 30855, Note_off_c, 0, 53, 64
2, 30855, Note_off_c, 0, 65, 64
2, 30855, Note_on_c, 0, 69, 64
2, 30855, Note_on_c, 0, 51, 64
2, 30915, Note_off_c, 0, 51, 64
2, 30915, Note_on_c, 0, 53, 64
2, 30975, Note_off_c, 0, 53, 64
2, 30975, Note_off_c, 0, 69, 64
2, 30975, Note_on_c, 0, 70, 64
2, 30975, Note_on_c, 0, 54, 64
2, 31035, Note_off_c, 0, 54, 64
2, 31035, Note_on_c, 0, 53, 64
2, 31095, Note_off_c, 0, 53, 64
2, 31095, Note_off_c, 0, 70, 64
2, 31095, Note_on_c, 0, 72, 64
2, 31095, Note_on_c, 0, 51, 64
2, 31155, Note_off_c, 0, 51, 64
2, 31155, Note_on_c, 0, 53, 64
2, 31215, Note_off_c, 0, 53, 64
2, 31215, Note_off_c, 0, 72, 64
2, 31215, Note_on_c, 0, 73, 64
2, 31215, Note_on_c, 0, 46, 64
2, 31275, Note_off_c, 0, 46, 64
2, 31275, Note_on_c, 0, 53, 64
2, 31335, Note_off_c, 0, 53, 64
2, 31335, Note_off_c, 0, 73, 64
2, 31335, Note_on_c, 0, 76, 64
2, 31335, Note_on_c, 0, 55, 64
2, 31395, Note_off_c, 0, 55, 64
2, 31395, Note_on_c, 0, 56, 64
2, 31455, Note_off_c, 0, 56, 64
2, 31455, Note_off_c, 0, 76, 64
2, 31455, Note_on_c, 0, 77, 64
2, 31455, Note_on_c, 0, 55, 64
2, 31515, Note_off_c, 0, 55, 64
2, 31515, Note_on_c, 0, 53, 64
2, 31575, Note_off_c, 0, 53, 64
2, 31575, Note_off_c, 0, 77, 64
2, 31575, Note_on_c, 0, 79, 64
2, 31575, Note_on_c, 0, 52, 64
2, 31635, Note_off_c, 0, 52, 64
2, 31635, Note_on_c, 0, 53, 64
2, 31695, Note_off_c, 0, 53, 64
2, 31695, Note_off_c, 0, 79, 64
2, 31695, Note_on_c, 0, 72, 64
2, 31695, Note_on_c, 0, 44, 64
2, 31755, Note_off_c, 0, 72, 64
2, 31755, Note_on_c, 0, 76, 64
2, 31815, Note_off_c, 0, 76, 64
2, 31815, Note_off_c, 0, 44, 64
2, 31815, Note_on_c, 0, 77, 64
2, 31815, Note_on_c, 0, 41, 64
2, 31875, Note_off_c, 0, 77, 64
2, 31875, Note_on_c, 0, 80, 64
2, 31935, Note_off_c, 0, 80, 64
2, 31935, Note_off_c, 0, 41, 64
2, 31935, Note_on_c, 0, 70, 64
2, 31935, Note_on_c, 0, 48, 64
2, 31995, Note_off_c, 0, 70, 64
2, 31995, Note_on_c, 0, 79, 64
2, 32055, Note_off_c, 0, 79, 64
2, 32055, Note_off_c, 0, 48, 64
2, 32055, Note_on_c, 0, 77, 64
2, 32055, Note_on_c, 0, 36, 64
2, 32115, Note_off_c, 0, 77, 64
2, 32115, Note_on_c, 0, 76, 64
2, 32175, Note_off_c, 0, 76, 64
2, 32175, Note_off_c, 0, 36, 64
2, 32175, Note_on_c, 0, 68, 64
2, 32175, Note_on_c, 0, 41, 64
2, 32235, Note_off_c, 0, 68, 64
2, 32235, Note_on_c, 0, 72, 64
2, 32295, Note_off_c, 0, 72, 64
2, 32295, Note_off_c, 0, 41, 64
2, 32295, Note_on_c, 0, 76, 64
2, 32295, Note_on_c, 0, 44, 64
2, 32355, Note_off_c, 0, 76, 64
2, 32355, Note_on_c, 0, 77, 64
2, 32415, Note_off_c, 0, 77, 64
2, 32415, Note_off_c, 0, 44, 64
2, 32415, Note_on_c, 0, 67, 64
2, 32415, Note_on_c, 0, 46, 64
2, 32475, Note_off_c, 0, 67, 64
2, 32475, Note_on_c, 0, 73, 64
2, 32535, Note_off_c, 0, 73, 64
2, 32535, Note_off_c, 0, 46, 64
2, 32535, Note_on_c, 0, 48, 64
2, 32535, Note_on_c, 0, 72, 64
2, 32595, Note_off_c, 0, 72, 64
2, 32595, Note_on_c, 0, 70, 64
2, 32655, Note_off_c, 0, 70, 64
2, 32655, Note_off_c, 0, 48, 64
2, 32655, Note_on_c, 0, 68, 64
2, 32655, Note_on_c, 0, 53, 64
2, 32715, Note_off_c, 0, 68, 64
2, 32715, Note_on_c, 0, 67, 64
2, 32775, Note_off_c, 0, 67, 64
2, 32775, Note_off_c, 0, 53, 64
2, 32775, Note_on_c, 0, 65, 64
2, 32775, Note_on_c, 0, 55, 64
2, 32835, Note_off_c, 0, 65, 64
2, 32835, Note_on_c, 0, 64, 64
2, 32895, Note_off_c, 0, 64, 64
2, 32895, Note_off_c, 0, 55, 64
2, 32895, Note_on_c, 0, 65, 64
2, 32895, Note_on_c, 0, 56, 64
2, 32955, Note_off_c, 0, 65, 64
2, 32955, Note_on_c, 0, 68, 64
2, 33015, Note_off_c, 0, 68, 64
2, 33015, Note_off_c, 0, 56, 64
2, 33015, Note_on_c, 0, 60, 64
2, 33015, Note_on_c, 0, 53, 64
2, 33075, Note_off_c, 0, 60, 64
2, 33075, Note_on_c, 0, 63, 64
2, 33135, Note_off_c, 0, 63, 64
2, 33135, Note_off_c, 0, 53, 64
2, 33135, Note_on_c, 0, 62, 64
2, 33135, Note_on_c, 0, 58, 64
2, 33195, Note_off_c, 0, 62, 64
2, 33195, Note_on_c, 0, 68, 64
2, 33255, Note_off_c, 0, 68, 64
2, 33255, Note_off_c, 0, 58, 64
2, 33255, Note_on_c, 0, 65, 64
2, 33255, Note_on_c, 0, 46, 64
2, 33315, Note_off_c, 0, 65, 64
2, 33315, Note_on_c, 0, 62, 64
2, 33375, Note_off_c, 0, 62, 64
2, 33375, Note_off_c, 0, 46, 64
2, 33375, Note_on_c, 0, 58, 64
2, 33435, Note_off_c, 0, 58, 64
2, 33435, Note_on_c, 0, 56, 64
2, 33495, Note_off_c, 0, 56, 64
2, 33495, Note_on_c, 0, 55, 64
2, 33555, Note_off_c, 0, 55, 64
2, 33555, Note_on_c, 0, 53, 64
2, 33615, Note_off_c, 0, 53, 64
2, 33615, Note_on_c, 0, 67, 64
2, 33615, Note_on_c, 0, 51, 64
2, 33675, Note_off_c, 0, 67, 64
2, 33675, Note_on_c, 0, 65, 64
2, 33735, Note_off_c, 0, 65, 64
2, 33735, Note_off_c, 0, 51, 64
2, 33735, Note_on_c, 0, 63, 64
2, 33735, Note_on_c, 0, 53, 64
2, 33795, Note_off_c, 0, 63, 64
2, 33795, Note_on_c, 0, 62, 64
2, 33855, Note_off_c, 0, 62, 64
2, 33855, Note_off_c, 0, 53, 64
2, 33855, Note_on_c, 0, 63, 64
2, 33855, Note_on_c, 0, 55, 64
2, 33915, Note_off_c, 0, 63, 64
2, 33915, Note_on_c, 0, 67, 64
2, 33975, Note_off_c, 0, 67, 64
2, 33975, Note_off_c, 0, 55, 64
2, 33975, Note_on_c, 0, 59, 64
2, 33975, Note_on_c, 0, 51, 64
2, 34035, Note_off_c, 0, 59, 64
2, 34035, Note_on_c, 0, 62, 64
2, 34095, Note_off_c, 0, 62, 64
2, 34095, Note_off_c, 0, 51, 64
2, 34095, Note_on_c, 0, 60, 64
2, 34095, Note_on_c, 0, 56, 64
2, 34155, Note_off_c, 0, 60, 64
2, 34155, Note_on_c, 0, 67, 64
2, 34215, Note_off_c, 0, 67, 64
2, 34215, Note_off_c, 0, 56, 64
2, 34215, Note_on_c, 0, 63, 64
2, 34215, Note_on_c, 0, 44, 64
2, 34275, Note_off_c, 0, 63, 64
2, 34275, Note_on_c, 0, 60, 64
2, 34335, Note_off_c, 0, 60, 64
2, 34335, Note_off_c, 0, 44, 64
2, 34335, Note_on_c, 0, 56, 64
2, 34395, Note_off_c, 0, 56, 64
2, 34395, Note_on_c, 0, 55, 64
2, 34455, Note_off_c, 0, 55, 64
2, 34455, Note_on_c, 0, 53, 64
2, 34515, Note_off_c, 0, 53, 64
2, 34515, Note_on_c, 0, 51, 64
2, 34575, Note_off_c, 0, 51, 64
2, 34575, Note_on_c, 0, 65, 64
2, 34575, Note_on_c, 0, 50, 64
2, 34635, Note_off_c, 0, 65, 64
2, 34635, Note_on_c, 0, 63, 64
2, 34695, Note_off_c, 0, 63, 64
2, 34695, Note_off_c, 0, 50, 64
2, 34695, Note_on_c, 0, 62, 64
2, 34695, Note_on_c, 0, 51, 64
2, 34755, Note_off_c, 0, 62, 64
2, 34755, Note_on_c, 0, 60, 64
2, 34815, Note_off_c, 0, 60, 64
2, 34815, Note_off_c, 0, 51, 64
2, 34815, Note_on_c, 0, 62, 64
2, 34815, Note_on_c, 0, 53, 64
2, 34875, Note_off_c, 0, 62, 64
2, 34875, Note_on_c, 0, 65, 64
2, 34935, Note_off_c, 0, 65, 64
2, 34935, Note_off_c, 0, 53, 64
2, 34935, Note_on_c, 0, 68, 64
2, 34935, Note_on_c, 0, 50, 64
2, 34995, Note_off_c, 0, 68, 64
2, 34995, Note_on_c, 0, 60, 64
2, 35055, Note_off_c, 0, 60, 64
2, 35055, Note_off_c, 0, 50, 64
2, 35055, Note_on_c, 0, 59, 64
2, 35055, Note_on_c, 0, 55, 64
2, 35115, Note_off_c, 0, 59, 64
2, 35115, Note_on_c, 0, 65, 64
2, 35175, Note_off_c, 0, 65, 64
2, 35175, Note_off_c, 0, 55, 64
2, 35175, Note_on_c, 0, 62, 64
2, 35175, Note_on_c, 0, 43, 64
2, 35235, Note_off_c, 0, 62, 64
2, 35235, Note_on_c, 0, 59, 64
2, 35295, Note_off_c, 0, 59, 64
2, 35295, Note_off_c, 0, 43, 64
2, 35295, Note_on_c, 0, 55, 64
2, 35355, Note_off_c, 0, 55, 64
2, 35355, Note_on_c, 0, 59, 64
2, 35355, Note_on_c, 0, 53, 64
2, 35415, Note_off_c, 0, 53, 64
2, 35415, Note_off_c, 0, 59, 64
2, 35415, Note_on_c, 0, 60, 64
2, 35415, Note_on_c, 0, 51, 64
2, 35475, Note_off_c, 0, 51, 64
2, 35475, Note_off_c, 0, 60, 64
2, 35475, Note_on_c, 0, 50, 64
2, 35475, Note_on_c, 0, 62, 64
2, 35535, Note_off_c, 0, 62, 64
2, 35535, Note_off_c, 0, 50, 64
2, 35535, Note_on_c, 0, 63, 64
2, 35535, Note_on_c, 0, 48, 64
2, 35595, Note_off_c, 0, 48, 64
2, 35595, Note_on_c, 0, 50, 64
2, 35655, Note_off_c, 0, 50, 64
2, 35655, Note_on_c, 0, 67, 64
2, 35655, Note_on_c, 0, 51, 64
2, 35715, Note_off_c, 0, 51, 64
2, 35715, Note_on_c, 0, 48, 64
2, 35775, Note_off_c, 0, 48, 64
2, 35775, Note_off_c, 0, 67, 64
2, 35775, Note_on_c, 0, 72, 64
2, 35775, Note_on_c, 0, 44, 64
2, 35835, Note_off_c, 0, 44, 64
2, 35835, Note_off_c, 0, 63, 64
2, 35835, Note_on_c, 0, 70, 64
2, 35835, Note_on_c, 0, 55, 64
2, 35895, Note_off_c, 0, 55, 64
2, 35895, Note_off_c, 0, 70, 64
2, 35895, Note_on_c, 0, 68, 64
2, 35895, Note_on_c, 0, 53, 64
2, 35955, Note_off_c, 0, 53, 64
2, 35955, Note_off_c, 0, 68, 64
2, 35955, Note_on_c, 0, 67, 64
2, 35955, Note_on_c, 0, 51, 64
2, 36015, Note_off_c, 0, 51, 64
2, 36015, Note_off_c, 0, 67, 64
2, 36015, Note_on_c, 0, 65, 64
2, 36015, Note_on_c, 0, 50, 64
2, 36075, Note_off_c, 0, 50, 64
2, 36075, Note_off_c, 0, 65, 64
2, 36075, Note_on_c, 0, 67, 64
2, 36075, Note_on_c, 0, 51, 64
2, 36135, Note_off_c, 0, 51, 64
2, 36135, Note_off_c, 0, 67, 64
2, 36135, Note_on_c, 0, 68, 64
2, 36135, Note_on_c, 0, 53, 64
2, 36195, Note_off_c, 0, 53, 64
2, 36195, Note_off_c, 0, 68, 64
2, 36195, Note_on_c, 0, 65, 64
2, 36195, Note_on_c, 0, 50, 64
2, 36255, Note_off_c, 0, 50, 64
2, 36255, Note_off_c, 0, 65, 64
2, 36255, Note_on_c, 0, 62, 64
2, 36255, Note_on_c, 0, 46, 64
2, 36315, Note_off_c, 0, 46, 64
2, 36315, Note_off_c, 0, 72, 64
2, 36315, Note_on_c, 0, 72, 64
2, 36315, Note_on_c, 0, 56, 64
2, 36375, Note_off_c, 0, 56, 64
2, 36375, Note_off_c, 0, 72, 64
2, 36375, Note_on_c, 0, 70, 64
2, 36375, Note_on_c, 0, 55, 64
2, 36435, Note_off_c, 0, 55, 64
2, 36435, Note_off_c, 0, 70, 64
2, 36435, Note_on_c, 0, 68, 64
2, 36435, Note_on_c, 0, 53, 64
2, 36495, Note_off_c, 0, 53, 64
2, 36495, Note_off_c, 0, 68, 64
2, 36495, Note_off_c, 0, 62, 64
2, 36495, Note_on_c, 0, 67, 64
2, 36495, Note_on_c, 0, 51, 64
2, 36555, Note_off_c, 0, 67, 64
2, 36555, Note_on_c, 0, 68, 64
2, 36615, Note_off_c, 0, 68, 64
2, 36615, Note_off_c, 0, 51, 64
2, 36615, Note_on_c, 0, 70, 64
2, 36615, Note_on_c, 0, 50, 64
2, 36675, Note_off_c, 0, 70, 64
2, 36675, Note_on_c, 0, 67, 64
2, 36735, Note_off_c, 0, 67, 64
2, 36735, Note_off_c, 0, 50, 64
2, 36735, Note_on_c, 0, 60, 64
2, 36735, Note_on_c, 0, 51, 64
2, 36795, Note_off_c, 0, 60, 64
2, 36795, Note_on_c, 0, 70, 64
2, 36855, Note_off_c, 0, 70, 64
2, 36855, Note_off_c, 0, 51, 64
2, 36855, Note_on_c, 0, 68, 64
2, 36855, Note_on_c, 0, 52, 64
2, 36915, Note_off_c, 0, 68, 64
2, 36915, Note_on_c, 0, 67, 64
2, 36975, Note_off_c, 0, 67, 64
2, 36975, Note_off_c, 0, 52, 64
2, 36975, Note_on_c, 0, 68, 64
2, 36975, Note_on_c, 0, 53, 64
2, 37035, Note_off_c, 0, 68, 64
2, 37035, Note_on_c, 0, 70, 64
2, 37095, Note_off_c, 0, 70, 64
2, 37095, Note_off_c, 0, 53, 64
2, 37095, Note_on_c, 0, 72, 64
2, 37095, Note_on_c, 0, 52, 64
2, 37155, Note_off_c, 0, 72, 64
2, 37155, Note_on_c, 0, 68, 64
2, 37215, Note_off_c, 0, 68, 64
2, 37215, Note_off_c, 0, 52, 64
2, 37215, Note_on_c, 0, 62, 64
2, 37215, Note_on_c, 0, 53, 64
2, 37275, Note_off_c, 0, 62, 64
2, 37275, Note_on_c, 0, 75, 64
2, 37335, Note_off_c, 0, 75, 64
2, 37335, Note_off_c, 0, 53, 64
2, 37335, Note_on_c, 0, 54, 64
2, 37335, Note_on_c, 0, 74, 64
2, 37395, Note_off_c, 0, 74, 64
2, 37395, Note_on_c, 0, 72, 64
2, 37455, Note_off_c, 0, 72, 64
2, 37455, Note_off_c, 0, 54, 64
2, 37455, Note_on_c, 0, 71, 64
2, 37455, Note_on_c, 0, 55, 64
2, 37515, Note_off_c, 0, 55, 64
2, 37515, Note_off_c, 0, 71, 64
2, 37515, Note_on_c, 0, 67, 64
2, 37515, Note_on_c, 0, 53, 64
2, 37575, Note_off_c, 0, 53, 64
2, 37575, Note_off_c, 0, 67, 64
2, 37575, Note_on_c, 0, 72, 64
2, 37575, Note_on_c, 0, 51, 64
2, 37635, Note_off_c, 0, 51, 64
2, 37635, Note_on_c, 0, 74, 64
2, 37635, Note_on_c, 0, 53, 64
2, 37695, Note_off_c, 0, 53, 64
2, 37695, Note_off_c, 0, 74, 64
2, 37695, Note_off_c, 0, 72, 64
2, 37695, Note_on_c, 0, 72, 64
2, 37695, Note_on_c, 0, 75, 64
2, 37695, Note_on_c, 0, 55, 64
2, 37755, Note_on_c, 0, 67, 64
2, 37815, Note_off_c, 0, 55, 64
2, 37815, Note_off_c, 0, 75, 64
2, 37815, Note_off_c, 0, 72, 64
2, 37815, Note_on_c, 0, 71, 64
2, 37815, Note_on_c, 0, 74, 64
2, 37815, Note_on_c, 0, 43, 64
2, 37875, Note_off_c, 0, 67, 64
2, 37875, Note_on_c, 0, 65, 64
2, 37935, Note_off_c, 0, 65, 64
2, 37935, Note_off_c, 0, 43, 64
2, 37935, Note_off_c, 0, 74, 64
2, 37935, Note_off_c, 0, 71, 64
2, 37935, Note_on_c, 0, 72, 64
2, 37935, Note_on_c, 0, 67, 64
2, 37935, Note_on_c, 0, 63, 64
2, 37935, Note_on_c, 0, 36, 64
2, 37995, Note_off_c, 0, 36, 64
2, 37995, Note_on_c, 0, 48, 64
2, 38055, Note_off_c, 0, 48, 64
2, 38055, Note_on_c, 0, 51, 64
2, 38115, Note_off_c, 0, 51, 64
2, 38115, Note_on_c, 0, 55, 64
2, 38175, Note_off_c, 0, 55, 64
2, 38175, Note_on_c, 0, 60, 64
2, 38415, Note_off_c, 0, 60, 64
2, 38415, Note_off_c, 0, 63, 64
2, 38415, Note_off_c, 0, 67, 64
2, 38415, Note_off_c, 0, 72, 64
2, 38415, Note_on_c, 0, 51, 64
2, 38475, Note_on_c, 0, 70, 64
2, 38535, Note_off_c, 0, 70, 64
2, 38535, Note_off_c, 0, 51, 64
2, 38535, Note_on_c, 0, 69, 64
2, 38535, Note_on_c, 0, 53, 64
2, 38595, Note_off_c, 0, 69, 64
2, 38595, Note_on_c, 0, 70, 64
2, 38655, Note_off_c, 0, 70, 64
2, 38655, Note_off_c, 0, 53, 64
2, 38655, Note_on_c, 0, 75, 64
2, 38655, Note_on_c, 0, 55, 64
2, 38715, Note_off_c, 0, 75, 64
2, 38715, Note_on_c, 0, 70, 64
2, 38775, Note_off_c, 0, 70, 64
2, 38775, Note_off_c, 0, 55, 64
2, 38775, Note_on_c, 0, 69, 64
2, 38775, Note_on_c, 0, 51, 64
2, 38835, Note_off_c, 0, 69, 64
2, 38835, Note_on_c, 0, 70, 64
2, 38895, Note_off_c, 0, 70, 64
2, 38895, Note_off_c, 0, 51, 64
2, 38895, Note_on_c, 0, 77, 64
2, 38895, Note_on_c, 0, 50, 64
2, 38955, Note_off_c, 0, 77, 64
2, 38955, Note_on_c, 0, 70, 64
2, 39015, Note_off_c, 0, 70, 64
2, 39015, Note_off_c, 0, 50, 64
2, 39015, Note_on_c, 0, 69, 64
2, 39015, Note_on_c, 0, 48, 64
2, 39075, Note_off_c, 0, 69, 64
2, 39075, Note_on_c, 0, 70, 64
2, 39135, Note_off_c, 0, 70, 64
2, 39135, Note_off_c, 0, 48, 64
2, 39135, Note_on_c, 0, 80, 64
2, 39135, Note_on_c, 0, 50, 64
2, 39195, Note_off_c, 0, 80, 64
2, 39195, Note_on_c, 0, 70, 64
2, 39255, Note_off_c, 0, 70, 64
2, 39255, Note_off_c, 0, 50, 64
2, 39255, Note_on_c, 0, 46, 64
2, 39255, Note_on_c, 0, 69, 64
2, 39315, Note_off_c, 0, 69, 64
2, 39315, Note_on_c, 0, 70, 64
2, 39375, Note_off_c, 0, 70, 64
2, 39375, Note_off_c, 0, 46, 64
2, 39375, Note_on_c, 0, 79, 64
2, 39375, Note_on_c, 0, 51, 64
2, 39435, Note_off_c, 0, 51, 64
2, 39435, Note_on_c, 0, 55, 64
2, 39495, Note_off_c, 0, 55, 64
2, 39495, Note_off_c, 0, 79, 64
2, 39495, Note_on_c, 0, 75, 64
2, 39495, Note_on_c, 0, 56, 64
2, 39555, Note_off_c, 0, 56, 64
2, 39555, Note_on_c, 0, 55, 64
2, 39615, Note_off_c, 0, 55, 64
2, 39615, Note_off_c, 0, 75, 64
2, 39615, Note_on_c, 0, 72, 76
2, 39615, Note_on_c, 0, 44, 64
2, 39635, Note_off_c, 0, 72, 64
2, 39635, Note_on_c, 0, 71, 56
2, 39655, Note_off_c, 0, 71, 64
2, 39655, Note_on_c, 0, 72, 64
2, 39675, Note_off_c, 0, 72, 64
2, 39675, Note_off_c, 0, 44, 64
2, 39675, Note_on_c, 0, 71, 64
2, 39675, Note_on_c, 0, 55, 64
2, 39735, Note_off_c, 0, 55, 64
2, 39735, Note_off_c, 0, 71, 64
2, 39735, Note_on_c, 0, 72, 64
2, 39735, Note_on_c, 0, 56, 64
2, 39795, Note_off_c, 0, 56, 64
2, 39795, Note_on_c, 0, 55, 64
2, 39855, Note_off_c, 0, 55, 64
2, 39855, Note_off_c, 0, 72, 64
2, 39855, Note_on_c, 0, 77, 64
2, 39855, Note_on_c, 0, 50, 64
2, 39915, Note_off_c, 0, 50, 64
2, 39915, Note_on_c, 0, 53, 64
2, 39975, Note_off_c, 0, 53, 64
2, 39975, Note_off_c, 0, 77, 64
2, 39975, Note_on_c, 0, 74, 64
2, 39975, Note_on_c, 0, 55, 64
2, 40035, Note_off_c, 0, 55, 64
2, 40035, Note_on_c, 0, 53, 64
2, 40095, Note_off_c, 0, 53, 64
2, 40095, Note_off_c, 0, 74, 64
2, 40095, Note_on_c, 0, 71, 76
2, 40095, Note_on_c, 0, 43, 64
2, 40115, Note_off_c, 0, 71, 64
2, 40115, Note_on_c, 0, 69, 56
2, 40135, Note_off_c, 0, 69, 64
2, 40135, Note_on_c, 0, 71, 64
2, 40155, Note_off_c, 0, 71, 64
2, 40155, Note_off_c, 0, 43, 64
2, 40155, Note_on_c, 0, 69, 64
2, 40155, Note_on_c, 0, 53, 64
2, 40215, Note_off_c, 0, 53, 64
2, 40215, Note_off_c, 0, 69, 64
2, 40215, Note_on_c, 0, 71, 64
2, 40215, Note_on_c, 0, 55, 64
2, 40275, Note_off_c, 0, 55, 64
2, 40275, Note_on_c, 0, 53, 64
2, 40335, Note_off_c, 0, 53, 64
2, 40335, Note_off_c, 0, 71, 64
2, 40335, Note_on_c, 0, 75, 64
2, 40335, Note_on_c, 0, 48, 64
2, 40395, Note_off_c, 0, 75, 64
2, 40395, Note_on_c, 0, 63, 64
2, 40455, Note_off_c, 0, 63, 64
2, 40455, Note_off_c, 0, 48, 64
2, 40455, Note_on_c, 0, 62, 64
2, 40455, Note_on_c, 0, 60, 64
2, 40515, Note_off_c, 0, 62, 64
2, 40515, Note_on_c, 0, 63, 64
2, 40575, Note_off_c, 0, 63, 64
2, 40575, Note_off_c, 0, 60, 64
2, 40575, Note_on_c, 0, 67, 64
2, 40575, Note_on_c, 0, 58, 64
2, 40635, Note_off_c, 0, 67, 64
2, 40635, Note_on_c, 0, 63, 64
2, 40695, Note_off_c, 0, 63, 64
2, 40695, Note_off_c, 0, 58, 64
2, 40695, Note_on_c, 0, 62, 64
2, 40695, Note_on_c, 0, 56, 64
2, 40755, Note_off_c, 0, 62, 64
2, 40755, Note_on_c, 0, 63, 64
2, 40815, Note_off_c, 0, 63, 64
2, 40815, Note_off_c, 0, 56, 64
2, 40815, Note_on_c, 0, 70, 64
2, 40815, Note_on_c, 0, 55, 64
2, 40875, Note_off_c, 0, 70, 64
2, 40875, Note_on_c, 0, 63, 64
2, 40935, Note_off_c, 0, 63, 64
2, 40935, Note_off_c, 0, 55, 64
2, 40935, Note_on_c, 0, 62, 64
2, 40935, Note_on_c, 0, 53, 64
2, 40995, Note_off_c, 0, 62, 64
2, 40995, Note_on_c, 0, 63, 64
2, 41055, Note_off_c, 0, 63, 64
2, 41055, Note_off_c, 0, 53, 64
2, 41055, Note_on_c, 0, 73, 64
2, 41055, Note_on_c, 0, 55, 64
2, 41115, Note_off_c, 0, 73, 64
2, 41115, Note_on_c, 0, 63, 64
2, 41175, Note_off_c, 0, 63, 64
2, 41175, Note_off_c, 0, 55, 64
2, 41175, Note_on_c, 0, 51, 64
2, 41175, Note_on_c, 0, 62, 64
2, 41235, Note_off_c, 0, 62, 64
2, 41235, Note_on_c, 0, 63, 64
2, 41295, Note_off_c, 0, 63, 64
2, 41295, Note_off_c, 0, 51, 64
2, 41295, Note_on_c, 0, 72, 64
2, 41295, Note_on_c, 0, 56, 64
2, 41355, Note_off_c, 0, 56, 64
2, 41355, Note_on_c, 0, 60, 64
2, 41415, Note_off_c, 0, 60, 64
2, 41415, Note_off_c, 0, 72, 64
2, 41415, Note_on_c, 0, 68, 64
2, 41415, Note_on_c, 0, 61, 64
2, 41475, Note_off_c, 0, 61, 64
2, 41475, Note_on_c, 0, 60, 64
2, 41535, Note_off_c, 0, 60, 64
2, 41535, Note_off_c, 0, 68, 64
2, 41535, Note_on_c, 0, 65, 76
2, 41535, Note_on_c, 0, 49, 64
2, 41555, Note_off_c, 0, 65, 64
2, 41555, Note_on_c, 0, 64, 56
2, 41575, Note_off_c, 0, 64, 64
2, 41575, Note_on_c, 0, 65, 64
2, 41595, Note_off_c, 0, 65, 64
2, 41595, Note_off_c, 0, 49, 64
2, 41595, Note_on_c, 0, 64, 64
2, 41595, Note_on_c, 0, 60, 64
2, 41655, Note_off_c, 0, 60, 64
2, 41655, Note_off_c, 0, 64, 64
2, 41655, Note_on_c, 0, 65, 64
2, 41655, Note_on_c, 0, 61, 64
2, 41715, Note_off_c, 0, 61, 64
2, 41715, Note_on_c, 0, 60, 64
2, 41775, Note_off_c, 0, 60, 64
2, 41775, Note_off_c, 0, 65, 64
2, 41775, Note_on_c, 0, 70, 64
2, 41775, Note_on_c, 0, 55, 64
2, 41835, Note_off_c, 0, 55, 64
2, 41835, Note_on_c, 0, 58, 64
2, 41895, Note_off_c, 0, 58, 64
2, 41895, Note_off_c, 0, 70, 64
2, 41895, Note_on_c, 0, 67, 64
2, 41895, Note_on_c, 0, 60, 64
2, 41955, Note_off_c, 0, 60, 64
2, 41955, Note_on_c, 0, 58, 64
2, 42015, Note_off_c, 0, 58, 64
2, 42015, Note_off_c, 0, 67, 64
2, 42015, Note_on_c, 0, 64, 76
2, 42015, Note_on_c, 0, 48, 64
2, 42035, Note_off_c, 0, 64, 64
2, 42035, Note_on_c, 0, 62, 56
2, 42055, Note_off_c, 0, 62, 64
2, 42055, Note_on_c, 0, 64, 64
2, 42075, Note_off_c, 0, 64, 64
2, 42075, Note_off_c, 0, 48, 64
2, 42075, Note_on_c, 0, 62, 64
2, 42075, Note_on_c, 0, 58, 64
2, 42135, Note_off_c, 0, 58, 64
2, 42135, Note_off_c, 0, 62, 64
2, 42135, Note_on_c, 0, 64, 64
2, 42135, Note_on_c, 0, 60, 64
2, 42195, Note_off_c, 0, 60, 64
2, 42195, Note_on_c, 0, 58, 64
2, 42255, Note_off_c, 0, 58, 64
2, 42255, Note_off_c, 0, 64, 64
2, 42255, Note_on_c, 0, 68, 64
2, 42255, Note_on_c, 0, 53, 64
2, 42315, Note_off_c, 0, 68, 64
2, 42315, Note_on_c, 0, 72, 64
2, 42375, Note_off_c, 0, 72, 64
2, 42375, Note_off_c, 0, 53, 64
2, 42375, Note_on_c, 0, 71, 64
2, 42375, Note_on_c, 0, 56, 64
2, 42435, Note_off_c, 0, 71, 64
2, 42435, Note_on_c, 0, 72, 64
2, 42495, Note_off_c, 0, 72, 64
2, 42495, Note_off_c, 0, 56, 64
2, 42495, Note_on_c, 0, 73, 64
2, 42495, Note_on_c, 0, 53, 64
2, 42555, Note_off_c, 0, 73, 64
2, 42555, Note_on_c, 0, 72, 64
2, 42615, Note_off_c, 0, 72, 64
2, 42615, Note_off_c, 0, 53, 64
2, 42615, Note_on_c, 0, 71, 64
2, 42615, Note_on_c, 0, 61, 64
2, 42675, Note_off_c, 0, 71, 64
2, 42675, Note_on_c, 0, 72, 64
2, 42735, Note_off_c, 0, 72, 64
2, 42735, Note_off_c, 0, 61, 64
2, 42735, Note_on_c, 0, 67, 64
2, 42735, Note_on_c, 0, 52, 64
2, 42795, Note_off_c, 0, 67, 64
2, 42795, Note_on_c, 0, 72, 64
2, 42855, Note_off_c, 0, 72, 64
2, 42855, Note_off_c, 0, 52, 64
2, 42855, Note_on_c, 0, 71, 64
2, 42855, Note_on_c, 0, 55, 64
2, 42915, Note_off_c, 0, 71, 64
2, 42915, Note_on_c, 0, 72, 64
2, 42975, Note_off_c, 0, 72, 64
2, 42975, Note_off_c, 0, 55, 64
2, 42975, Note_on_c, 0, 73, 64
2, 42975, Note_on_c, 0, 51, 64
2, 43035, Note_off_c, 0, 73, 64
2, 43035, Note_on_c, 0, 72, 64
2, 43095, Note_off_c, 0, 72, 64
2, 43095, Note_off_c, 0, 51, 64
2, 43095, Note_on_c, 0, 60, 64
2, 43095, Note_on_c, 0, 71, 64
2, 43155, Note_off_c, 0, 71, 64
2, 43155, Note_on_c, 0, 72, 64
2, 43215, Note_off_c, 0, 72, 64
2, 43215, Note_off_c, 0, 60, 64
2, 43215, Note_on_c, 0, 65, 64
2, 43215, Note_on_c, 0, 50, 64
2, 43275, Note_off_c, 0, 65, 64
2, 43275, Note_on_c, 0, 72, 64
2, 43335, Note_off_c, 0, 72, 64
2, 43335, Note_off_c, 0, 50, 64
2, 43335, Note_on_c, 0, 74, 64
2, 43335, Note_on_c, 0, 53, 64
2, 43395, Note_off_c, 0, 74, 64
2, 43395, Note_on_c, 0, 76, 64
2, 43455, Note_off_c, 0, 76, 64
2, 43455, Note_off_c, 0, 53, 64
2, 43455, Note_on_c, 0, 77, 64
2, 43455, Note_on_c, 0, 49, 64
2, 43515, Note_off_c, 0, 77, 64
2, 43515, Note_on_c, 0, 70, 64
2, 43575, Note_off_c, 0, 70, 64
2, 43575, Note_off_c, 0, 49, 64
2, 43575, Note_on_c, 0, 69, 64
2, 43575, Note_on_c, 0, 58, 64
2, 43635, Note_off_c, 0, 69, 64
2, 43635, Note_on_c, 0, 70, 64
2, 43695, Note_off_c, 0, 70, 64
2, 43695, Note_off_c, 0, 58, 64
2, 43695, Note_on_c, 0, 77, 64
2, 43695, Note_on_c, 0, 48, 64
2, 43755, Note_off_c, 0, 77, 64
2, 43755, Note_on_c, 0, 76, 64
2, 43815, Note_off_c, 0, 76, 64
2, 43815, Note_off_c, 0, 48, 64
2, 43815, Note_on_c, 0, 74, 64
2, 43815, Note_on_c, 0, 50, 64
2, 43875, Note_off_c, 0, 74, 64
2, 43875, Note_on_c, 0, 72, 64
2, 43935, Note_off_c, 0, 72, 64
2, 43935, Note_off_c, 0, 50, 64
2, 43935, Note_on_c, 0, 70, 64
2, 43935, Note_on_c, 0, 52, 64
2, 43995, Note_off_c, 0, 70, 64
2, 43995, Note_on_c, 0, 68, 64
2, 44055, Note_off_c, 0, 68, 64
2, 44055, Note_off_c, 0, 52, 64
2, 44055, Note_on_c, 0, 48, 64
2, 44055, Note_on_c, 0, 67, 64
2, 44115, Note_off_c, 0, 67, 64
2, 44115, Note_on_c, 0, 65, 64
2, 44175, Note_off_c, 0, 65, 64
2, 44175, Note_off_c, 0, 48, 64
2, 44175, Note_on_c, 0, 68, 64
2, 44175, Note_on_c, 0, 53, 64
2, 44235, Note_off_c, 0, 53, 64
2, 44235, Note_off_c, 0, 68, 64
2, 44235, Note_on_c, 0, 65, 64
2, 44235, Note_on_c, 0, 56, 64
2, 44295, Note_off_c, 0, 56, 64
2, 44295, Note_off_c, 0, 65, 64
2, 44295, Note_on_c, 0, 64, 64
2, 44295, Note_on_c, 0, 55, 64
2, 44355, Note_off_c, 0, 55, 64
2, 44355, Note_off_c, 0, 64, 64
2, 44355, Note_on_c, 0, 65, 64
2, 44355, Note_on_c, 0, 56, 64
2, 44415, Note_off_c, 0, 56, 64
2, 44415, Note_off_c, 0, 65, 64
2, 44415, Note_on_c, 0, 72, 64
2, 44415, Note_on_c, 0, 51, 64
2, 44475, Note_off_c, 0, 51, 64
2, 44475, Note_off_c, 0, 72, 64
2, 44475, Note_on_c, 0, 65, 64
2, 44475, Note_on_c, 0, 60, 64
2, 44535, Note_off_c, 0, 60, 64
2, 44535, Note_off_c, 0, 65, 64
2, 44535, Note_on_c, 0, 64, 64
2, 44535, Note_on_c, 0, 58, 64
2, 44595, Note_off_c, 0, 58, 64
2, 44595, Note_off_c, 0, 64, 64
2, 44595, Note_on_c, 0, 65, 64
2, 44595, Note_on_c, 0, 60, 64
2, 44655, Note_off_c, 0, 60, 64
2, 44655, Note_off_c, 0, 65, 64
2, 44655, Note_on_c, 0, 77, 64
2, 44655, Note_on_c, 0, 49, 64
2, 44715, Note_off_c, 0, 77, 64
2, 44715, Note_on_c, 0, 75, 64
2, 44775, Note_off_c, 0, 75, 64
2, 44775, Note_off_c, 0, 49, 64
2, 44775, Note_on_c, 0, 73, 64
2, 44775, Note_on_c, 0, 53, 64
2, 44835, Note_off_c, 0, 73, 64
2, 44835, Note_on_c, 0, 72, 64
2, 44895, Note_off_c, 0, 72, 64
2, 44895, Note_off_c, 0, 53, 64
2, 44895, Note_on_c, 0, 70, 64
2, 44895, Note_on_c, 0, 58, 64
2, 44955, Note_off_c, 0, 70, 64
2, 44955, Note_on_c, 0, 68, 64
2, 45015, Note_off_c, 0, 68, 64
2, 45015, Note_off_c, 0, 58, 64
2, 45015, Note_on_c, 0, 61, 64
2, 45015, Note_on_c, 0, 67, 64
2, 45075, Note_off_c, 0, 67, 64
2, 45075, Note_on_c, 0, 65, 64
2, 45135, Note_off_c, 0, 65, 64
2, 45135, Note_off_c, 0, 61, 64
2, 45135, Note_on_c, 0, 67, 64
2, 45135, Note_on_c, 0, 51, 64
2, 45195, Note_off_c, 0, 51, 64
2, 45195, Note_off_c, 0, 67, 64
2, 45195, Note_on_c, 0, 63, 64
2, 45195, Note_on_c, 0, 55, 64
2, 45255, Note_off_c, 0, 55, 64
2, 45255, Note_off_c, 0, 63, 64
2, 45255, Note_on_c, 0, 62, 64
2, 45255, Note_on_c, 0, 53, 64
2, 45315, Note_off_c, 0, 53, 64
2, 45315, Note_off_c, 0, 62, 64
2, 45315, Note_on_c, 0, 63, 64
2, 45315, Note_on_c, 0, 55, 64
2, 45375, Note_off_c, 0, 55, 64
2, 45375, Note_off_c, 0, 63, 64
2, 45375, Note_on_c, 0, 70, 64
2, 45375, Note_on_c, 0, 49, 64
2, 45435, Note_off_c, 0, 49, 64
2, 45435, Note_off_c, 0, 70, 64
2, 45435, Note_on_c, 0, 67, 64
2, 45435, Note_on_c, 0, 58, 64
2, 45495, Note_off_c, 0, 58, 64
2, 45495, Note_off_c, 0, 67, 64
2, 45495, Note_on_c, 0, 65, 64
2, 45495, Note_on_c, 0, 56, 64
2, 45555, Note_off_c, 0, 56, 64
2, 45555, Note_off_c, 0, 65, 64
2, 45555, Note_on_c, 0, 67, 64
2, 45555, Note_on_c, 0, 58, 64
2, 45615, Note_off_c, 0, 58, 64
2, 45615, Note_off_c, 0, 67, 64
2, 45615, Note_on_c, 0, 75, 64
2, 45615, Note_on_c, 0, 48, 64
2, 45675, Note_off_c, 0, 75, 64
2, 45675, Note_on_c, 0, 73, 64
2, 45735, Note_off_c, 0, 73, 64
2, 45735, Note_off_c, 0, 48, 64
2, 45735, Note_on_c, 0, 72, 64
2, 45735, Note_on_c, 0, 51, 64
2, 45795, Note_off_c, 0, 72, 64
2, 45795, Note_on_c, 0, 70, 64
2, 45855, Note_off_c, 0, 70, 64
2, 45855, Note_off_c, 0, 51, 64
2, 45855, Note_on_c, 0, 68, 64
2, 45855, Note_on_c, 0, 56, 64
2, 45915, Note_off_c, 0, 68, 64
2, 45915, Note_on_c, 0, 67, 64
2, 45975, Note_off_c, 0, 67, 64
2, 45975, Note_off_c, 0, 56, 64
2, 45975, Note_on_c, 0, 60, 64
2, 45975, Note_on_c, 0, 65, 64
2, 46035, Note_off_c, 0, 65, 64
2, 46035, Note_on_c, 0, 64, 64
2, 46095, Note_off_c, 0, 64, 64
2, 46095, Note_off_c, 0, 60, 64
2, 46095, Note_on_c, 0, 65, 64
2, 46095, Note_on_c, 0, 49, 64
2, 46155, Note_off_c, 0, 49, 64
2, 46155, Note_on_c, 0, 53, 64
2, 46215, Note_off_c, 0, 53, 64
2, 46215, Note_off_c, 0, 65, 64
2, 46215, Note_on_c, 0, 69, 64
2, 46215, Note_on_c, 0, 51, 64
2, 46275, Note_off_c, 0, 51, 64
2, 46275, Note_on_c, 0, 53, 64
2, 46335, Note_off_c, 0, 53, 64
2, 46335, Note_off_c, 0, 69, 64
2, 46335, Note_on_c, 0, 70, 64
2, 46335, Note_on_c, 0, 54, 64
2, 46395, Note_off_c, 0, 54, 64
2, 46395, Note_on_c, 0, 53, 64
2, 46455, Note_off_c, 0, 53, 64
2, 46455, Note_off_c, 0, 70, 64
2, 46455, Note_on_c, 0, 72, 64
2, 46455, Note_on_c, 0, 51, 64
2, 46515, Note_off_c, 0, 51, 64
2, 46515, Note_on_c, 0, 53, 64
2, 46575, Note_off_c, 0, 53, 64
2, 46575, Note_off_c, 0, 72, 64
2, 46575, Note_on_c, 0, 73, 64
2, 46575, Note_on_c, 0, 46, 64
2, 46635, Note_off_c, 0, 46, 64
2, 46635, Note_on_c, 0, 53, 64
2, 46695, Note_off_c, 0, 53, 64
2, 46695, Note_off_c, 0, 73, 64
2, 46695, Note_on_c, 0, 76, 64
2, 46695, Note_on_c, 0, 55, 64
2, 46755, Note_off_c, 0, 55, 64
2, 46755, Note_on_c, 0, 56, 64
2, 46815, Note_off_c, 0, 56, 64
2, 46815, Note_off_c, 0, 76, 64
2, 46815, Note_on_c, 0, 77, 64
2, 46815, Note_on_c, 0, 55, 64
2, 46875, Note_off_c, 0, 55, 64
2, 46875, Note_on_c, 0, 53, 64
2, 46935, Note_off_c, 0, 53, 64
2, 46935, Note_off_c, 0, 77, 64
2, 46935, Note_on_c, 0, 79, 64
2, 46935, Note_on_c, 0, 52, 64
2, 46995, Note_off_c, 0, 52, 64
2, 46995, Note_on_c, 0, 53, 64
2, 47055, Note_off_c, 0, 53, 64
2, 47055, Note_off_c, 0, 79, 64
2, 47055, Note_on_c, 0, 72, 64
2, 47055, Note_on_c, 0, 44, 64
2, 47115, Note_off_c, 0, 72, 64
2, 47115, Note_on_c, 0, 76, 64
2, 47175, Note_off_c, 0, 76, 64
2, 47175, Note_off_c, 0, 44, 64
2, 47175, Note_on_c, 0, 77, 64
2, 47175, Note_on_c, 0, 41, 64
2, 47235, Note_off_c, 0, 77, 64
2, 47235, Note_on_c, 0, 80, 64
2, 47295, Note_off_c, 0, 80, 64
2, 47295, Note_off_c, 0, 41, 64
2, 47295, Note_on_c, 0, 70, 64
2, 47295, Note_on_c, 0, 48, 64
2, 47355, Note_off_c, 0, 70, 64
2, 47355, Note_on_c, 0, 79, 64
2, 47415, Note_off_c, 0, 79, 64
2, 47415, Note_off_c, 0, 48, 64
2, 47415, Note_on_c, 0, 77, 64
2, 47415, Note_on_c, 0, 36, 64
2, 47475, Note_off_c, 0, 77, 64
2, 47475, Note_on_c, 0, 76, 64
2, 47535, Note_off_c, 0, 76, 64
2, 47535, Note_off_c, 0, 36, 64
2, 47535, Note_on_c, 0, 68, 64
2, 47535, Note_on_c, 0, 41, 64
2, 47595, Note_off_c, 0, 68, 64
2, 47595, Note_on_c, 0, 72, 64
2, 47655, Note_off_c, 0, 72, 64
2, 47655, Note_off_c, 0, 41, 64
2, 47655, Note_on_c, 0, 76, 64
2, 47655, Note_on_c, 0, 44, 64
2, 47715, Note_off_c, 0, 76, 64
2, 47715, Note_on_c, 0, 77, 64
2, 47775, Note_off_c, 0, 77, 64
2, 47775, Note_off_c, 0, 44, 64
2, 47775, Note_on_c, 0, 67, 64
2, 47775, Note_on_c, 0, 46, 64
2, 47835, Note_off_c, 0, 67, 64
2, 47835, Note_on_c, 0, 73, 64
2, 47895, Note_off_c, 0, 73, 64
2, 47895, Note_off_c, 0, 46, 64
2, 47895, Note_on_c, 0, 48, 64
2, 47895, Note_on_c, 0, 72, 64
2, 47955, Note_off_c, 0, 72, 64
2, 47955, Note_on_c, 0, 70, 64
2, 48015, Note_off_c, 0, 70, 64
2, 48015, Note_off_c, 0, 48, 64
2, 48015, Note_on_c, 0, 68, 64
2, 48015, Note_on_c, 0, 53, 64
2, 48075, Note_off_c, 0, 68, 64
2, 48075, Note_on_c, 0, 67, 64
2, 48135, Note_off_c, 0, 67, 64
2, 48135, Note_off_c, 0, 53, 64
2, 48135, Note_on_c, 0, 65, 64
2, 48135, Note_on_c, 0, 55, 64
2, 48195, Note_off_c, 0, 65, 64
2, 48195, Note_on_c, 0, 64, 64
2, 48255, Note_off_c, 0, 64, 64
2, 48255, Note_off_c, 0, 55, 64
2, 48255, Note_on_c, 0, 65, 64
2, 48255, Note_on_c, 0, 56, 64
2, 48315, Note_off_c, 0, 65, 64
2, 48315, Note_on_c, 0, 68, 64
2, 48375, Note_off_c, 0, 68, 64
2, 48375, Note_off_c, 0, 56, 64
2, 48375, Note_on_c, 0, 60, 64
2, 48375, Note_on_c, 0, 53, 64
2, 48435, Note_off_c, 0, 60, 64
2, 48435, Note_on_c, 0, 63, 64
2, 48495, Note_off_c, 0, 63, 64
2, 48495, Note_off_c, 0, 53, 64
2, 48495, Note_on_c, 0, 62, 64
2, 48495, Note_on_c, 0, 58, 64
2, 48555, Note_off_c, 0, 62, 64
2, 48555, Note_on_c, 0, 68, 64
2, 48615, Note_off_c, 0, 68, 64
2, 48615, Note_off_c, 0, 58, 64
2, 48615, Note_on_c, 0, 65, 64
2, 48615, Note_on_c, 0, 46, 64
2, 48675, Note_off_c, 0, 65, 64
2, 48675, Note_on_c, 0, 62, 64
2, 48735, Note_off_c, 0, 62, 64
2, 48735, Note_off_c, 0, 46, 64
2, 48735, Note_on_c, 0, 58, 64
2, 48795, Note_off_c, 0, 58, 64
2, 48795, Note_on_c, 0, 56, 64
2, 48855, Note_off_c, 0, 56, 64
2, 48855, Note_on_c, 0, 55, 64
2, 48915, Note_off_c, 0, 55, 64
2, 48915, Note_on_c, 0, 53, 64
2, 48975, Note_off_c, 0, 53, 64
2, 48975, Note_on_c, 0, 67, 64
2, 48975, Note_on_c, 0, 51, 64
2, 49035, Note_off_c, 0, 67, 64
2, 49035, Note_on_c, 0, 65, 64
2, 49095, Note_off_c, 0, 65, 64
2, 49095, Note_off_c, 0, 51, 64
2, 49095, Note_on_c, 0, 63, 64
2, 49095, Note_on_c, 0, 53, 64
2, 49155, Note_off_c, 0, 63, 64
2, 49155, Note_on_c, 0, 62, 64
2, 49215, Note_off_c, 0, 62, 64
2, 49215, Note_off_c, 0, 53, 64
2, 49215, Note_on_c, 0, 63, 64
2, 49215, Note_on_c, 0, 55, 64
2, 49275, Note_off_c, 0, 63, 64
2, 49275, Note_on_c, 0, 67, 64
2, 49335, Note_off_c, 0, 67, 64
2, 49335, Note_off_c, 0, 55, 64
2, 49335, Note_on_c, 0, 59, 64
2, 49335, Note_on_c, 0, 51, 64
2, 49395, Note_off_c, 0, 59, 64
2, 49395, Note_on_c, 0, 62, 64
2, 49455, Note_off_c, 0, 62, 64
2, 49455, Note_off_c, 0, 51, 64
2, 49455, Note_on_c, 0, 60, 64
2, 49455, Note_on_c, 0, 56, 64
2, 49515, Note_off_c, 0, 60, 64
2, 49515, Note_on_c, 0, 67, 64
2, 49575, Note_off_c, 0, 67, 64
2, 49575, Note_off_c, 0, 56, 64
2, 49575, Note_on_c, 0, 63, 64
2, 49575, Note_on_c, 0, 44, 64
2, 49635, Note_off_c, 0, 63, 64
2, 49635, Note_on_c, 0, 60, 64
2, 49695, Note_off_c, 0, 60, 64
2, 49695, Note_off_c, 0, 44, 64
2, 49695, Note_on_c, 0, 56, 64
2, 49755, Note_off_c, 0, 56, 64
2, 49755, Note_on_c, 0, 55, 64
2, 49815, Note_off_c, 0, 55, 64
2, 49815, Note_on_c, 0, 53, 64
2, 49875, Note_off_c, 0, 53, 64
2, 49875, Note_on_c, 0, 51, 64
2, 49935, Note_off_c, 0, 51, 64
2, 49935, Note_on_c, 0, 65, 64
2, 49935, Note_on_c, 0, 50, 64
2, 49995, Note_off_c, 0, 65, 64
2, 49995, Note_on_c, 0, 63, 64
2, 50055, Note_off_c, 0, 63, 64
2, 50055, Note_off_c, 0, 50, 64
2, 50055, Note_on_c, 0, 62, 64
2, 50055, Note_on_c, 0, 51, 64
2, 50115, Note_off_c, 0, 62, 64
2, 50115, Note_on_c, 0, 60, 64
2, 50175, Note_off_c, 0, 60, 64
2, 50175, Note_off_c, 0, 51, 64
2, 50175, Note_on_c, 0, 62, 64
2, 50175, Note_on_c, 0, 53, 64
2, 50235, Note_off_c, 0, 62, 64
2, 50235, Note_on_c, 0, 65, 64
2, 50295, Note_off_c, 0, 65, 64
2, 50295, Note_off_c, 0, 53, 64
2, 50295, Note_on_c, 0, 68, 64
2, 50295, Note_on_c, 0, 50, 64
2, 50355, Note_off_c, 0, 68, 64
2, 50355, Note_on_c, 0, 60, 64
2, 50415, Note_off_c, 0, 60, 64
2, 50415, Note_off_c, 0, 50, 64
2, 50415, Note_on_c, 0, 59, 64
2, 50415, Note_on_c, 0, 55, 64
2, 50475, Note_off_c, 0, 59, 64
2, 50475, Note_on_c, 0, 65, 64
2, 50535, Note_off_c, 0, 65, 64
2, 50535, Note_off_c, 0, 55, 64
2, 50535, Note_on_c, 0, 62, 64
2, 50535, Note_on_c, 0, 43, 64
2, 50595, Note_off_c, 0, 62, 64
2, 50595, Note_on_c, 0, 59, 64
2, 50655, Note_off_c, 0, 59, 64
2, 50655, Note_off_c, 0, 43, 64
2, 50655, Note_on_c, 0, 55, 64
2, 50715, Note_off_c, 0, 55, 64
2, 50715, Note_on_c, 0, 59, 64
2, 50715, Note_on_c, 0, 53, 64
2, 50775, Note_off_c, 0, 53, 64
2, 50775, Note_off_c, 0, 59, 64
2, 50775, Note_on_c, 0, 60, 64
2, 50775, Note_on_c, 0, 51, 64
2, 50835, Note_off_c, 0, 51, 64
2, 50835, Note_off_c, 0, 60, 64
2, 50835, Note_on_c, 0, 50, 64
2, 50835, Note_on_c, 0, 62, 64
2, 50895, Note_off_c, 0, 62, 64
2, 50895, Note_off_c, 0, 50, 64
2, 50895, Note_on_c, 0, 63, 64
2, 50895, Note_on_c, 0, 48, 64
2, 50955, Note_off_c, 0, 48, 64
2, 50955, Note_on_c, 0, 50, 64
2, 51015, Note_off_c, 0, 50, 64
2, 51015, Note_on_c, 0, 67, 64
2, 51015, Note_on_c, 0, 51, 64
2, 51075, Note_off_c, 0, 51, 64
2, 51075, Note_on_c, 0, 48, 64
2, 51135, Note_off_c, 0, 48, 64
2, 51135, Note_off_c, 0, 67, 64
2, 51135, Note_on_c, 0, 72, 64
2, 51135, Note_on_c, 0, 44, 64
2, 51195, Note_off_c, 0, 44, 64
2, 51195, Note_off_c, 0, 63, 64
2, 51195, Note_on_c, 0, 70, 64
2, 51195, Note_on_c, 0, 55, 64
2, 51255, Note_off_c, 0, 55, 64
2, 51255, Note_off_c, 0, 70, 64
2, 51255, Note_on_c, 0, 68, 64
2, 51255, Note_on_c, 0, 53, 64
2, 51315, Note_off_c, 0, 53, 64
2, 51315, Note_off_c, 0, 68, 64
2, 51315, Note_on_c, 0, 67, 64
2, 51315, Note_on_c, 0, 51, 64
2, 51375, Note_off_c, 0, 51, 64
2, 51375, Note_off_c, 0, 67, 64
2, 51375, Note_on_c, 0, 65, 64
2, 51375, Note_on_c, 0, 50, 64
2, 51435, Note_off_c, 0, 50, 64
2, 51435, Note_off_c, 0, 65, 64
2, 51435, Note_on_c, 0, 67, 64
2, 51435, Note_on_c, 0, 51, 64
2, 51495, Note_off_c, 0, 51, 64
2, 51495, Note_off_c, 0, 67, 64
2, 51495, Note_on_c, 0, 68, 64
2, 51495, Note_on_c, 0, 53, 64
2, 51555, Note_off_c, 0, 53, 64
2, 51555, Note_off_c, 0, 68, 64
2, 51555, Note_on_c, 0, 65, 64
2, 51555, Note_on_c, 0, 50, 64
2, 51615, Note_off_c, 0, 50, 64
2, 51615, Note_off_c, 0, 65, 64
2, 51615, Note_on_c, 0, 62, 64
2, 51615, Note_on_c, 0, 46, 64
2, 51675, Note_off_c, 0, 46, 64
2, 51675, Note_off_c, 0, 72, 64
2, 51675, Note_on_c, 0, 72, 64
2, 51675, Note_on_c, 0, 56, 64
2, 51735, Note_off_c, 0, 56, 64
2, 51735, Note_off_c, 0, 72, 64
2, 51735, Note_on_c, 0, 70, 64
2, 51735, Note_on_c, 0, 55, 64
2, 51795, Note_off_c, 0, 55, 64
2, 51795, Note_off_c, 0, 70, 64
2, 51795, Note_on_c, 0, 68, 64
2, 51795, Note_on_c, 0, 53, 64
2, 51855, Note_off_c, 0, 53, 64
2, 51855, Note_off_c, 0, 68, 64
2, 51855, Note_off_c, 0, 62, 64
2, 51855, Note_on_c, 0, 67, 64
2, 51855, Note_on_c, 0, 51, 64
2, 51915, Note_off_c, 0, 67, 64
2, 51915, Note_on_c, 0, 68, 64
2, 51975, Note_off_c, 0, 68, 64
2, 51975, Note_off_c, 0, 51, 64
2, 51975, Note_on_c, 0, 70, 64
2, 51975, Note_on_c, 0, 50, 64
2, 52035, Note_off_c, 0, 70, 64
2, 52035, Note_on_c, 0, 67, 64
2, 52095, Note_off_c, 0, 67, 64
2, 52095, Note_off_c, 0, 50, 64
2, 52095, Note_on_c, 0, 60, 64
2, 52095, Note_on_c, 0, 51, 64
2, 52155, Note_off_c, 0, 60, 64
2, 52155, Note_on_c, 0, 70, 64
2, 52215, Note_off_c, 0, 70, 64
2, 52215, Note_off_c, 0, 51, 64
2, 52215, Note_on_c, 0, 68, 64
2, 52215, Note_on_c, 0, 52, 64
2, 52275, Note_off_c, 0, 68, 64
2, 52275, Note_on_c, 0, 67, 64
2, 52335, Note_off_c, 0, 67, 64
2, 52335, Note_off_c, 0, 52, 64
2, 52335, Note_on_c, 0, 68, 64
2, 52335, Note_on_c, 0, 53, 64
2, 52395, Note_off_c, 0, 68, 64
2, 52395, Note_on_c, 0, 70, 64
2, 52455, Note_off_c, 0, 70, 64
2, 52455, Note_off_c, 0, 53, 64
2, 52455, Note_on_c, 0, 72, 64
2, 52455, Note_on_c, 0, 52, 64
2, 52515, Note_off_c, 0, 72, 64
2, 52515, Note_on_c, 0, 68, 64
2, 52575, Note_off_c, 0, 68, 64
2, 52575, Note_off_c, 0, 52, 64
2, 52575, Note_on_c, 0, 62, 64
2, 52575, Note_on_c, 0, 53, 64
2, 52635, Note_off_c, 0, 62, 64
2, 52635, Note_on_c, 0, 75, 64
2, 52695, Note_off_c, 0, 75, 64
2, 52695, Note_off_c, 0, 53, 64
2, 52695, Note_on_c, 0, 54, 64
2, 52695, Note_on_c, 0, 74, 64
2, 52755, Note_off_c, 0, 74, 64
2, 52755, Note_on_c, 0, 72, 64
2, 52815, Note_off_c, 0, 72, 64
2, 52815, Note_off_c, 0, 54, 64
2, 52815, Note_on_c, 0, 71, 64
2, 52815, Note_on_c, 0, 55, 64
2, 52875, Note_off_c, 0, 55, 64
2, 52875, Note_off_c, 0, 71, 64
2, 52875, Note_on_c, 0, 67, 64
2, 52875, Note_on_c, 0, 53, 64
2, 52935, Note_off_c, 0, 53, 64
2, 52935, Note_off_c, 0, 67, 64
2, 52935, Note_on_c, 0, 72, 64
2, 52935, Note_on_c, 0, 51, 64
2, 52995, Note_off_c, 0, 51, 64
2, 52995, Note_on_c, 0, 74, 64
2, 52995, Note_on_c, 0, 53, 64
2, 53055, Note_off_c, 0, 53, 64
2, 53055, Note_off_c, 0, 74, 64
2, 53055, Note_off_c, 0, 72, 64
2, 53055, Note_on_c, 0, 72, 64
2, 53055, Note_on_c, 0, 75, 64
2, 53055, Note_on_c, 0, 55, 64
2, 53115, Note_on_c, 0, 67, 64
2, 53175, Note_off_c, 0, 55, 64
2, 53175, Note_off_c, 0, 75, 64
2, 53175, Note_off_c, 0, 72, 64
2, 53175, Note_on_c, 0, 71, 64
2, 53175, Note_on_c, 0, 74, 64
2, 53175, Note_on_c, 0, 43, 64
2, 53235, Note_off_c, 0, 67, 64
2, 53235, Note_on_c, 0, 65, 64
2, 53295, Note_off_c, 0, 65, 64
2, 53295, Note_off_c, 0, 43, 64
2, 53295, Note_off_c, 0, 74, 64
2, 53295, Note_off_c, 0, 71, 64
2, 53295, Note_on_c, 0, 72, 64
2, 53295, Note_on_c, 0, 67, 64
2, 53295, Note_on_c, 0, 63, 64
2, 53295, Note_on_c, 0, 36, 64
2, 53355, Note_off_c, 0, 36, 64
2, 53355, Note_on_c, 0, 48, 64
2, 53415, Note_off_c, 0, 48, 64
2, 53415, Note_on_c, 0, 51, 64
2, 53475, Note_off_c, 0, 51, 64
2, 53475, Note_on_c, 0, 55, 64
2, 53535, Note_off_c, 0, 55, 64
2, 53535, Note_on_c, 0, 60, 64
2, 53775, Note_off_c, 0, 60, 64
2, 53775, Note_off_c, 0, 63, 64
2, 53775, Note_off_c, 0, 67, 64
2, 53775, Note_off_c, 0, 72, 64
2, 53775, End_track
0, 0, End_of_file
