0, 0, Header, 1, 5, 240
1, 0, Start_track
1, 0, Time_signature, 4, 2, 24, 8
1, 0, Tempo, 1000000
1, 71280, Tempo, 1034483
1, 71520, Tempo, 1090909
1, 71640, Tempo, 1132075
1, 71760, Tempo, 1224490
1, 71880, Tempo, 1363636
1, 72000, Tempo, 1224490
1, 72000, End_track
2, 0, Start_track
2, 0, Text_t, "1"
2, 11640, Note_on_c, 0, 71, 64
2, 11760, Note_off_c, 0, 71, 70
2, 11760, Note_on_c, 0, 69, 64
2, 11880, Note_off_c, 0, 69, 65
2, 11880, Note_on_c, 0, 66, 64
2, 12000, Note_off_c, 0, 66, 65
2, 12000, Note_on_c, 0, 74, 64
2, 12120, Note_off_c, 0, 74, 52
2, 12120, Note_on_c, 0, 71, 64
2, 12240, Note_off_c, 0, 71, 69
2, 12240, Note_on_c, 0, 76, 64
2, 12360, Note_off_c, 0, 76, 52
2, 12360, Note_on_c, 0, 75, 64
2, 12480, Note_off_c, 0, 75, 65
2, 12480, Note_on_c, 0, 69, 64
2, 12600, Note_off_c, 0, 69, 57
2, 12600, Note_on_c, 0, 68, 64
2, 12720, Note_off_c, 0, 68, 45
2, 12720, Note_on_c, 0, 77, 64
2, 12840, Note_off_c, 0, 77, 69
2, 12840, Note_on_c, 0, 76, 64
2, 12960, Note_off_c, 0, 76, 40
2, 12960, Note_on_c, 0, 71, 64
2, 13080, Note_off_c, 0, 71, 53
2, 13080, Note_on_c, 0, 70, 64
2, 13200, Note_off_c, 0, 70, 68
2, 13200, Note_on_c, 0, 79, 64
2, 13320, Note_off_c, 0, 79, 57
2, 13320, Note_on_c, 0, 78, 64
2, 13440, Note_off_c, 0, 78, 59
2, 13440, Note_on_c, 0, 77, 64
2, 13560, Note_off_c, 0, 77, 74
2, 13560, Note_on_c, 0, 78, 64
2, 13680, Note_off_c, 0, 78, 63
2, 13680, Note_on_c, 0, 74, 64
2, 13800, Note_off_c, 0, 74, 54
2, 13800, Note_on_c, 0, 71, 64
2, 13920, Note_off_c, 0, 71, 40
2, 13920, Note_on_c, 0, 73, 64
2, 14450, Note_off_c, 0, 73, 73
2, 14463, Note_on_c, 0, 73, 64
2, 14523, Note_off_c, 0, 73, 59
2, 14523, Note_on_c, 0, 74, 64
2, 14583, Note_off_c, 0, 74, 54
2, 14583, Note_on_c, 0, 76, 64
2, 14643, Note_off_c, 0, 76, 49
2, 14643, Note_on_c, 0, 78, 64
2, 14703, Note_off_c, 0, 78, 16
2, 14703, Note_on_c, 0, 79, 64
2, 14763, Note_off_c, 0, 79, 35
2, 14763, Note_on_c, 0, 71, 64
2, 14823, Note_off_c, 0, 71, 40
2, 14823, Note_on_c, 0, 70, 64
2, 14883, Note_off_c, 0, 70, 68
2, 14883, Note_on_c, 0, 71, 64
2, 15423, Note_off_c, 0, 71, 66
2, 15423, Note_on_c, 0, 65, 64
2, 15483, Note_off_c, 0, 65, 14
2, 15483, Note_on_c, 0, 66, 64
2, 15543, Note_off_c, 0, 66, 50
2, 15543, Note_on_c, 0, 68, 64
2, 15603, Note_off_c, 0, 68, 79
2, 15603, Note_on_c, 0, 69, 64
2, 15663, Note_off_c, 0, 69, 68
2, 15663, Note_on_c, 0, 71, 64
2, 15723, Note_off_c, 0, 71, 82
2, 15723, Note_on_c, 0, 73, 64
2, 15783, Note_off_c, 0, 73, 68
2, 15783, Note_on_c, 0, 66, 64
2, 15843, Note_off_c, 0, 66, 76
2, 15843, Note_on_c, 0, 74, 64
2, 15903, Note_off_c, 0, 74, 38
2, 15903, Note_on_c, 0, 76, 64
2, 15963, Note_off_c, 0, 76, 55
2, 15963, Note_on_c, 0, 78, 64
2, 16203, Note_off_c, 0, 78, 63
2, 16203, Note_on_c, 0, 76, 64
2, 16263, Note_off_c, 0, 76, 59
2, 16263, Note_on_c, 0, 74, 64
2, 16323, Note_off_c, 0, 74, 72
2, 16323, Note_on_c, 0, 73, 64
2, 16383, Note_off_c, 0, 73, 74
2, 16383, Note_on_c, 0, 74, 64
2, 16443, Note_off_c, 0, 74, 62
2, 16443, Note_on_c, 0, 76, 64
2, 16683, Note_off_c, 0, 76, 61
2, 16683, Note_on_c, 0, 74, 64
2, 16743, Note_off_c, 0, 74, 68
2, 16743, Note_on_c, 0, 73, 64
2, 16803, Note_off_c, 0, 73, 79
2, 16803, Note_on_c, 0, 71, 64
2, 16863, Note_off_c, 0, 71, 73
2, 16863, Note_on_c, 0, 73, 64
2, 16923, Note_off_c, 0, 73, 70
2, 16923, Note_on_c, 0, 74, 64
2, 17163, Note_off_c, 0, 74, 73
2, 17163, Note_on_c, 0, 73, 64
2, 17223, Note_off_c, 0, 73, 66
2, 17223, Note_on_c, 0, 71, 64
2, 17283, Note_off_c, 0, 71, 70
2, 17283, Note_on_c, 0, 69, 64
2, 17523, Note_off_c, 0, 69, 57
2, 17643, Note_on_c, 0, 78, 64
2, 17883, Note_off_c, 0, 78, 72
2, 17883, Note_on_c, 0, 76, 64
2, 17943, Note_off_c, 0, 76, 52
2, 17943, Note_on_c, 0, 74, 64
2, 18003, Note_off_c, 0, 74, 68
2, 18003, Note_on_c, 0, 73, 64
2, 18063, Note_off_c, 0, 73, 62
2, 18063, Note_on_c, 0, 74, 64
2, 18123, Note_off_c, 0, 74, 63
2, 18123, Note_on_c, 0, 76, 64
2, 18363, Note_off_c, 0, 76, 52
2, 18363, Note_on_c, 0, 74, 64
2, 18423, Note_off_c, 0, 74, 72
2, 18423, Note_on_c, 0, 73, 64
2, 18483, Note_off_c, 0, 73, 69
2, 18483, Note_on_c, 0, 71, 64
2, 18543, Note_off_c, 0, 71, 69
2, 18543, Note_on_c, 0, 73, 64
2, 18603, Note_off_c, 0, 73, 72
2, 18603, Note_on_c, 0, 74, 64
2, 18843, Note_off_c, 0, 74, 72
2, 18843, Note_on_c, 0, 73, 64
2, 18903, Note_off_c, 0, 73, 63
2, 18903, Note_on_c, 0, 71, 64
2, 18963, Note_off_c, 0, 71, 57
2, 18963, Note_on_c, 0, 70, 64
2, 19023, Note_off_c, 0, 70, 72
2, 19023, Note_on_c, 0, 71, 64
2, 19083, Note_off_c, 0, 71, 79
2, 19083, Note_on_c, 0, 73, 64
2, 19323, Note_off_c, 0, 73, 63
2, 19323, Note_on_c, 0, 71, 64
2, 19383, Note_off_c, 0, 71, 80
2, 19383, Note_on_c, 0, 70, 64
2, 19443, Note_off_c, 0, 70, 70
2, 19443, Note_on_c, 0, 71, 64
2, 19743, Note_off_c, 0, 71, 70
2, 19743, Note_on_c, 0, 70, 64
2, 19803, Note_off_c, 0, 70, 73
2, 19803, Note_on_c, 0, 71, 64
2, 19863, Note_off_c, 0, 71, 73
2, 19863, Note_on_c, 0, 74, 64
2, 19923, Note_off_c, 0, 74, 68
2, 19923, Note_on_c, 0, 73, 64
2, 20163, Note_off_c, 0, 73, 58
2, 20163, Note_on_c, 0, 71, 64
2, 20403, Note_off_c, 0, 71, 51
2, 20403, Note_on_c, 0, 69, 64
2, 20643, Note_off_c, 0, 69, 73
2, 20643, Note_on_c, 0, 68, 64
2, 20883, Note_off_c, 0, 68, 68
2, 20883, Note_on_c, 0, 66, 64
2, 21243, Note_off_c, 0, 66, 68
2, 21243, Note_on_c, 0, 65, 64
2, 21363, Note_off_c, 0, 65, 62
2, 21363, Note_on_c, 0, 66, 64
2, 21483, Note_off_c, 0, 66, 70
2, 21483, Note_on_c, 0, 66, 64
2, 21663, Note_off_c, 0, 66, 77
2, 21663, Note_on_c, 0, 68, 64
2, 21723, Note_off_c, 0, 68, 77
2, 21723, Note_on_c, 0, 69, 64
2, 21783, Note_off_c, 0, 69, 80
2, 21783, Note_on_c, 0, 71, 64
2, 21843, Note_off_c, 0, 71, 62
2, 21843, Note_on_c, 0, 73, 64
2, 21903, Note_off_c, 0, 73, 68
2, 21903, Note_on_c, 0, 74, 64
2, 21963, Note_off_c, 0, 74, 76
2, 21963, Note_on_c, 0, 66, 64
2, 22023, Note_off_c, 0, 66, 73
2, 22023, Note_on_c, 0, 65, 64
2, 22083, Note_off_c, 0, 65, 47
2, 22083, Note_on_c, 0, 66, 64
2, 22323, Note_off_c, 0, 66, 79
2, 22323, Note_on_c, 0, 78, 64
2, 22683, Note_off_c, 0, 78, 65
2, 22683, Note_on_c, 0, 76, 64
2, 22803, Note_off_c, 0, 76, 62
2, 22803, Note_on_c, 0, 75, 64
2, 22923, Note_off_c, 0, 75, 54
2, 22923, Note_on_c, 0, 78, 64
2, 23043, Note_off_c, 0, 78, 69
2, 23043, Note_on_c, 0, 79, 64
2, 23643, Note_off_c, 0, 79, 65
2, 23643, Note_on_c, 0, 78, 64
2, 23763, Note_off_c, 0, 78, 62
2, 23763, Note_on_c, 0, 77, 64
2, 23883, Note_off_c, 0, 77, 58
2, 23883, Note_on_c, 0, 80, 64
2, 24003, Note_off_c, 0, 80, 74
2, 24003, Note_on_c, 0, 73, 64
2, 24123, Note_off_c, 0, 73, 62
2, 24123, Note_on_c, 0, 74, 64
2, 24183, Note_off_c, 0, 74, 73
2, 24183, Note_on_c, 0, 76, 64
2, 24243, Note_off_c, 0, 76, 54
2, 24243, Note_on_c, 0, 74, 64
2, 24303, Note_off_c, 0, 74, 46
2, 24303, Note_on_c, 0, 76, 64
2, 24363, Note_off_c, 0, 76, 52
2, 24363, Note_on_c, 0, 78, 64
2, 24603, Note_off_c, 0, 78, 58
2, 24603, Note_on_c, 0, 76, 64
2, 24663, Note_off_c, 0, 76, 53
2, 24663, Note_on_c, 0, 74, 64
2, 24723, Note_off_c, 0, 74, 62
2, 24723, Note_on_c, 0, 73, 64
2, 24783, Note_off_c, 0, 73, 73
2, 24783, Note_on_c, 0, 74, 64
2, 24843, Note_off_c, 0, 74, 58
2, 24843, Note_on_c, 0, 76, 64
2, 25083, Note_off_c, 0, 76, 43
2, 25083, Note_on_c, 0, 74, 64
2, 25143, Note_off_c, 0, 74, 50
2, 25143, Note_on_c, 0, 73, 64
2, 25203, Note_off_c, 0, 73, 68
2, 25203, Note_on_c, 0, 71, 64
2, 25263, Note_off_c, 0, 71, 68
2, 25263, Note_on_c, 0, 73, 64
2, 25323, Note_off_c, 0, 73, 66
2, 25323, Note_on_c, 0, 74, 64
2, 25563, Note_off_c, 0, 74, 72
2, 25563, Note_on_c, 0, 73, 64
2, 25623, Note_off_c, 0, 73, 61
2, 25623, Note_on_c, 0, 71, 64
2, 25683, Note_off_c, 0, 71, 79
2, 25683, Note_on_c, 0, 70, 64
2, 25743, Note_off_c, 0, 70, 76
2, 25743, Note_on_c, 0, 71, 64
2, 25803, Note_off_c, 0, 71, 72
2, 25803, Note_on_c, 0, 73, 64
2, 26043, Note_off_c, 0, 73, 68
2, 26043, Note_on_c, 0, 71, 64
2, 26163, Note_off_c, 0, 71, 68
2, 26283, Note_on_c, 0, 83, 64
2, 26523, Note_off_c, 0, 83, 47
2, 26523, Note_on_c, 0, 81, 64
2, 26583, Note_off_c, 0, 81, 55
2, 26583, Note_on_c, 0, 79, 64
2, 26643, Note_off_c, 0, 79, 53
2, 26643, Note_on_c, 0, 78, 64
2, 26703, Note_off_c, 0, 78, 62
2, 26703, Note_on_c, 0, 79, 64
2, 26763, Note_off_c, 0, 79, 47
2, 26763, Note_on_c, 0, 81, 64
2, 27003, Note_off_c, 0, 81, 63
2, 27003, Note_on_c, 0, 79, 64
2, 27063, Note_off_c, 0, 79, 57
2, 27063, Note_on_c, 0, 78, 64
2, 27123, Note_off_c, 0, 78, 66
2, 27123, Note_on_c, 0, 76, 64
2, 27183, Note_off_c, 0, 76, 48
2, 27183, Note_on_c, 0, 78, 64
2, 27243, Note_off_c, 0, 78, 59
2, 27243, Note_on_c, 0, 79, 64
2, 27483, Note_off_c, 0, 79, 50
2, 27483, Note_on_c, 0, 78, 64
2, 27543, Note_off_c, 0, 78, 55
2, 27543, Note_on_c, 0, 76, 64
2, 27603, Note_off_c, 0, 76, 53
2, 27603, Note_on_c, 0, 75, 64
2, 27663, Note_off_c, 0, 75, 57
2, 27663, Note_on_c, 0, 76, 64
2, 27723, Note_off_c, 0, 76, 46
2, 27723, Note_on_c, 0, 78, 64
2, 27963, Note_off_c, 0, 78, 52
2, 27963, Note_on_c, 0, 76, 64
2, 28023, Note_off_c, 0, 76, 40
2, 28023, Note_on_c, 0, 75, 64
2, 28083, Note_off_c, 0, 75, 59
2, 28083, Note_on_c, 0, 76, 64
2, 28143, Note_off_c, 0, 76, 44
2, 28143, Note_on_c, 0, 78, 64
2, 28203, Note_off_c, 0, 78, 62
2, 28203, Note_on_c, 0, 79, 64
2, 28263, Note_off_c, 0, 79, 49
2, 28263, Note_on_c, 0, 83, 64
2, 28323, Note_off_c, 0, 83, 55
2, 28323, Note_on_c, 0, 81, 64
2, 28443, Note_off_c, 0, 81, 63
2, 28443, Note_on_c, 0, 79, 64
2, 28563, Note_off_c, 0, 79, 68
2, 28563, Note_on_c, 0, 78, 64
2, 28803, Note_off_c, 0, 78, 59
2, 28803, Note_on_c, 0, 76, 64
2, 29043, Note_off_c, 0, 76, 58
2, 29043, Note_on_c, 0, 74, 64
2, 29283, Note_off_c, 0, 74, 72
2, 29283, Note_on_c, 0, 73, 64
2, 29523, Note_off_c, 0, 73, 55
2, 29583, Note_on_c, 0, 73, 64
2, 29643, Note_off_c, 0, 73, 59
2, 29643, Note_on_c, 0, 74, 64
2, 29703, Note_off_c, 0, 74, 57
2, 29703, Note_on_c, 0, 76, 64
2, 29763, Note_off_c, 0, 76, 27
2, 29763, Note_on_c, 0, 74, 64
2, 29823, Note_off_c, 0, 74, 49
2, 29823, Note_on_c, 0, 73, 64
2, 30003, Note_off_c, 0, 73, 68
2, 30003, Note_on_c, 0, 71, 64
2, 30303, Note_off_c, 0, 71, 70
2, 30303, Note_on_c, 0, 73, 64
2, 30363, Note_off_c, 0, 73, 57
2, 30363, Note_on_c, 0, 74, 64
2, 30423, Note_off_c, 0, 74, 52
2, 30423, Note_on_c, 0, 76, 64
2, 30483, Note_off_c, 0, 76, 61
2, 30483, Note_on_c, 0, 78, 64
2, 30543, Note_off_c, 0, 78, 51
2, 30543, Note_on_c, 0, 79, 64
2, 30603, Note_off_c, 0, 79, 65
2, 30603, Note_on_c, 0, 71, 64
2, 30663, Note_off_c, 0, 71, 52
2, 30663, Note_on_c, 0, 70, 64
2, 30723, Note_off_c, 0, 70, 65
2, 30723, Note_on_c, 0, 74, 64
2, 31203, Note_off_c, 0, 74, 70
2, 31203, Note_on_c, 0, 73, 64
2, 31563, Note_off_c, 0, 73, 61
2, 31563, Note_on_c, 0, 75, 64
2, 31683, Note_off_c, 0, 75, 45
2, 31683, Note_on_c, 0, 77, 64
2, 31923, Note_off_c, 0, 77, 66
2, 32043, Note_on_c, 0, 78, 64
2, 32223, Note_off_c, 0, 78, 58
2, 32223, Note_on_c, 0, 77, 64
2, 32283, Note_off_c, 0, 77, 69
2, 32283, Note_on_c, 0, 78, 64
2, 32343, Note_off_c, 0, 78, 45
2, 32343, Note_on_c, 0, 81, 64
2, 32403, Note_off_c, 0, 81, 46
2, 32403, Note_on_c, 0, 80, 64
2, 32643, Note_off_c, 0, 80, 70
2, 32763, Note_on_c, 0, 78, 64
2, 32883, Note_off_c, 0, 78, 63
2, 32883, Note_on_c, 0, 74, 64
2, 33003, Note_off_c, 0, 74, 49
2, 33123, Note_on_c, 0, 79, 64
2, 33243, Note_off_c, 0, 79, 43
2, 33243, Note_on_c, 0, 78, 64
2, 33363, Note_off_c, 0, 78, 53
2, 33363, Note_on_c, 0, 83, 64
2, 33483, Note_off_c, 0, 83, 54
2, 33483, Note_on_c, 0, 82, 64
2, 33603, Note_off_c, 0, 82, 68
2, 33603, Note_on_c, 0, 76, 64
2, 33723, Note_off_c, 0, 76, 49
2, 33723, Note_on_c, 0, 75, 64
2, 33843, Note_off_c, 0, 75, 47
2, 33843, Note_on_c, 0, 79, 64
2, 34143, Note_off_c, 0, 79, 62
2, 34143, Note_on_c, 0, 78, 64
2, 34203, Note_off_c, 0, 78, 53
2, 34203, Note_on_c, 0, 80, 64
2, 34263, Note_off_c, 0, 80, 62
2, 34263, Note_on_c, 0, 82, 64
2, 34323, Note_off_c, 0, 82, 61
2, 34323, Note_on_c, 0, 83, 64
2, 34383, Note_off_c, 0, 83, 48
2, 34383, Note_on_c, 0, 79, 64
2, 34443, Note_off_c, 0, 79, 51
2, 34443, Note_on_c, 0, 78, 64
2, 34503, Note_off_c, 0, 78, 52
2, 34503, Note_on_c, 0, 77, 64
2, 34563, Note_off_c, 0, 77, 47
2, 34563, Note_on_c, 0, 78, 64
2, 34803, Note_off_c, 0, 78, 46
2, 34803, Note_on_c, 0, 77, 64
2, 35103, Note_off_c, 0, 77, 66
2, 35103, Note_on_c, 0, 76, 64
2, 35163, Note_off_c, 0, 76, 43
2, 35163, Note_on_c, 0, 78, 64
2, 35223, Note_off_c, 0, 78, 63
2, 35223, Note_on_c, 0, 80, 64
2, 35283, Note_off_c, 0, 80, 58
2, 35283, Note_on_c, 0, 81, 64
2, 35343, Note_off_c, 0, 81, 53
2, 35343, Note_on_c, 0, 83, 64
2, 35403, Note_off_c, 0, 83, 49
2, 35403, Note_on_c, 0, 76, 64
2, 35463, Note_off_c, 0, 76, 49
2, 35463, Note_on_c, 0, 75, 64
2, 35523, Note_off_c, 0, 75, 35
2, 35523, Note_on_c, 0, 76, 64
2, 35583, Note_off_c, 0, 76, 50
2, 35583, Note_on_c, 0, 66, 64
2, 35643, Note_off_c, 0, 66, 50
2, 35703, Note_on_c, 0, 69, 64
2, 35763, Note_off_c, 0, 69, 68
2, 35763, Note_on_c, 0, 71, 64
2, 35823, Note_off_c, 0, 71, 47
2, 35823, Note_on_c, 0, 73, 64
2, 35883, Note_off_c, 0, 73, 51
2, 35883, Note_on_c, 0, 74, 64
2, 35943, Note_off_c, 0, 74, 74
2, 35943, Note_on_c, 0, 78, 64
2, 36003, Note_off_c, 0, 78, 74
2, 36003, Note_on_c, 0, 76, 64
2, 36063, Note_off_c, 0, 76, 46
2, 36063, Note_on_c, 0, 73, 64
2, 36123, Note_off_c, 0, 73, 53
2, 36123, Note_on_c, 0, 74, 64
2, 36183, Note_off_c, 0, 74, 55
2, 36183, Note_on_c, 0, 78, 64
2, 36243, Note_off_c, 0, 78, 63
2, 36243, Note_on_c, 0, 79, 64
2, 36303, Note_off_c, 0, 79, 52
2, 36303, Note_on_c, 0, 76, 64
2, 36363, Note_off_c, 0, 76, 54
2, 36363, Note_on_c, 0, 78, 64
2, 36423, Note_off_c, 0, 78, 72
2, 36423, Note_on_c, 0, 82, 64
2, 36483, Note_off_c, 0, 82, 59
2, 36483, Note_on_c, 0, 83, 64
2, 36723, Note_off_c, 0, 83, 69
2, 36723, Note_on_c, 0, 81, 64
2, 36963, Note_off_c, 0, 81, 57
2, 36963, Note_on_c, 0, 80, 64
2, 37203, Note_off_c, 0, 80, 58
2, 37203, Note_on_c, 0, 78, 64
2, 37503, Note_off_c, 0, 78, 55
2, 37503, Note_on_c, 0, 77, 64
2, 37563, Note_off_c, 0, 77, 76
2, 37563, Note_on_c, 0, 78, 64
2, 37623, Note_off_c, 0, 78, 50
2, 37623, Note_on_c, 0, 77, 64
2, 37683, Note_off_c, 0, 77, 58
2, 37683, Note_on_c, 0, 78, 64
2, 37983, Note_off_c, 0, 78, 53
2, 38043, Note_on_c, 0, 71, 64
2, 38103, Note_off_c, 0, 71, 57
2, 38103, Note_on_c, 0, 73, 64
2, 38163, Note_off_c, 0, 73, 62
2, 38163, Note_on_c, 0, 74, 64
2, 38223, Note_off_c, 0, 74, 69
2, 38223, Note_on_c, 0, 76, 64
2, 38283, Note_off_c, 0, 76, 59
2, 38283, Note_on_c, 0, 66, 64
2, 38343, Note_off_c, 0, 66, 59
2, 38343, Note_on_c, 0, 65, 64
2, 38403, Note_off_c, 0, 65, 1
2, 38403, Note_on_c, 0, 66, 64
2, 38523, Note_off_c, 0, 66, 79
2, 38523, Note_on_c, 0, 78, 64
2, 38643, Note_off_c, 0, 78, 66
2, 38643, Note_on_c, 0, 74, 64
2, 38763, Note_off_c, 0, 74, 59
2, 38883, Note_on_c, 0, 79, 64
2, 39003, Note_off_c, 0, 79, 45
2, 39003, Note_on_c, 0, 78, 64
2, 39123, Note_off_c, 0, 78, 68
2, 39123, Note_on_c, 0, 83, 64
2, 39243, Note_off_c, 0, 83, 34
2, 39243, Note_on_c, 0, 82, 64
2, 39363, Note_off_c, 0, 82, 65
2, 39363, Note_on_c, 0, 76, 64
2, 39483, Note_off_c, 0, 76, 40
2, 39483, Note_on_c, 0, 75, 64
2, 39603, Note_off_c, 0, 75, 43
2, 39723, Note_on_c, 0, 76, 64
2, 39903, Note_off_c, 0, 76, 46
2, 39903, Note_on_c, 0, 75, 64
2, 39963, Note_off_c, 0, 75, 51
2, 39963, Note_on_c, 0, 76, 64
2, 40023, Note_off_c, 0, 76, 21
2, 40023, Note_on_c, 0, 79, 64
2, 40083, Note_off_c, 0, 79, 70
2, 40083, Note_on_c, 0, 78, 64
2, 40323, Note_off_c, 0, 78, 65
2, 40323, Note_on_c, 0, 76, 64
2, 40383, Note_off_c, 0, 76, 46
2, 40383, Note_on_c, 0, 74, 64
2, 40443, Note_off_c, 0, 74, 49
2, 40443, Note_on_c, 0, 73, 64
2, 40503, Note_off_c, 0, 73, 65
2, 40503, Note_on_c, 0, 71, 64
2, 40563, Note_off_c, 0, 71, 55
2, 40623, Note_on_c, 0, 71, 64
2, 40683, Note_off_c, 0, 71, 66
2, 40683, Note_on_c, 0, 73, 64
2, 40743, Note_off_c, 0, 73, 51
2, 40743, Note_on_c, 0, 76, 64
2, 40803, Note_off_c, 0, 76, 55
2, 40803, Note_on_c, 0, 74, 64
2, 40863, Note_off_c, 0, 74, 65
2, 40863, Note_on_c, 0, 71, 64
2, 40923, Note_off_c, 0, 71, 51
2, 40923, Note_on_c, 0, 73, 64
2, 40983, Note_off_c, 0, 73, 59
2, 40983, Note_on_c, 0, 76, 64
2, 41043, Note_off_c, 0, 76, 58
2, 41043, Note_on_c, 0, 78, 64
2, 41103, Note_off_c, 0, 78, 69
2, 41103, Note_on_c, 0, 74, 64
2, 41163, Note_off_c, 0, 74, 50
2, 41163, Note_on_c, 0, 76, 64
2, 41223, Note_off_c, 0, 76, 37
2, 41223, Note_on_c, 0, 80, 64
2, 41283, Note_off_c, 0, 80, 41
2, 41283, Note_on_c, 0, 81, 64
2, 41343, Note_off_c, 0, 81, 46
2, 41343, Note_on_c, 0, 79, 64
2, 41403, Note_off_c, 0, 79, 66
2, 41403, Note_on_c, 0, 78, 64
2, 41463, Note_off_c, 0, 78, 52
2, 41463, Note_on_c, 0, 76, 64
2, 41523, Note_off_c, 0, 76, 46
2, 41523, Note_on_c, 0, 74, 64
2, 41583, Note_off_c, 0, 74, 54
2, 41583, Note_on_c, 0, 73, 64
2, 41643, Note_off_c, 0, 73, 57
2, 41643, Note_on_c, 0, 71, 64
2, 41703, Note_off_c, 0, 71, 57
2, 41703, Note_on_c, 0, 69, 64
2, 41763, Note_off_c, 0, 69, 52
2, 41763, Note_on_c, 0, 67, 64
2, 41823, Note_off_c, 0, 67, 52
2, 41823, Note_on_c, 0, 64, 64
2, 41883, Note_off_c, 0, 64, 29
2, 41883, Note_on_c, 0, 66, 64
2, 41943, Note_off_c, 0, 66, 62
2, 41943, Note_on_c, 0, 69, 64
2, 42003, Note_off_c, 0, 69, 52
2, 42003, Note_on_c, 0, 71, 64
2, 42063, Note_off_c, 0, 71, 72
2, 42063, Note_on_c, 0, 67, 64
2, 42123, Note_off_c, 0, 67, 30
2, 42123, Note_on_c, 0, 69, 64
2, 42183, Note_off_c, 0, 69, 55
2, 42183, Note_on_c, 0, 73, 64
2, 42243, Note_off_c, 0, 73, 55
2, 42243, Note_on_c, 0, 74, 64
2, 42303, Note_off_c, 0, 74, 70
2, 42303, Note_on_c, 0, 76, 64
2, 42363, Note_off_c, 0, 76, 49
2, 42423, Note_on_c, 0, 76, 64
2, 42483, Note_off_c, 0, 76, 58
2, 42483, Note_on_c, 0, 78, 64
2, 42543, Note_off_c, 0, 78, 47
2, 42543, Note_on_c, 0, 79, 64
2, 42603, Note_off_c, 0, 79, 52
2, 42603, Note_on_c, 0, 81, 64
2, 42663, Note_off_c, 0, 81, 49
2, 42663, Note_on_c, 0, 78, 64
2, 42723, Note_off_c, 0, 78, 49
2, 42723, Note_on_c, 0, 74, 64
2, 42783, Note_off_c, 0, 74, 47
2, 42783, Note_on_c, 0, 77, 64
2, 42843, Note_off_c, 0, 77, 59
2, 42843, Note_on_c, 0, 76, 64
2, 42903, Note_off_c, 0, 76, 41
2, 42903, Note_on_c, 0, 74, 64
2, 42963, Note_off_c, 0, 74, 51
2, 42963, Note_on_c, 0, 72, 64
2, 43023, Note_off_c, 0, 72, 62
2, 43023, Note_on_c, 0, 71, 64
2, 43083, Note_off_c, 0, 71, 53
2, 43083, Note_on_c, 0, 72, 64
2, 43143, Note_off_c, 0, 72, 59
2, 43143, Note_on_c, 0, 74, 64
2, 43203, Note_off_c, 0, 74, 53
2, 43203, Note_on_c, 0, 72, 64
2, 43263, Note_off_c, 0, 72, 65
2, 43263, Note_on_c, 0, 71, 64
2, 43443, Note_off_c, 0, 71, 62
2, 43443, Note_on_c, 0, 69, 64
2, 43803, Note_off_c, 0, 69, 54
2, 43803, Note_on_c, 0, 74, 64
2, 43863, Note_off_c, 0, 74, 65
2, 43863, Note_on_c, 0, 76, 64
2, 43923, Note_off_c, 0, 76, 65
2, 43923, Note_on_c, 0, 78, 64
2, 43983, Note_off_c, 0, 78, 59
2, 43983, Note_on_c, 0, 79, 64
2, 44043, Note_off_c, 0, 79, 57
2, 44043, Note_on_c, 0, 69, 64
2, 44103, Note_off_c, 0, 69, 57
2, 44103, Note_on_c, 0, 68, 64
2, 44163, Note_off_c, 0, 68, 54
2, 44163, Note_on_c, 0, 76, 64
2, 44223, Note_off_c, 0, 76, 66
2, 44223, Note_on_c, 0, 78, 64
2, 44283, Note_off_c, 0, 78, 70
2, 44283, Note_on_c, 0, 67, 64
2, 44343, Note_off_c, 0, 67, 35
2, 44343, Note_on_c, 0, 66, 64
2, 44403, Note_off_c, 0, 66, 66
2, 44403, Note_on_c, 0, 74, 64
2, 44463, Note_off_c, 0, 74, 57
2, 44463, Note_on_c, 0, 76, 64
2, 44523, Note_off_c, 0, 76, 50
2, 44523, Note_on_c, 0, 66, 64
2, 44583, Note_off_c, 0, 66, 54
2, 44583, Note_on_c, 0, 64, 64
2, 44643, Note_off_c, 0, 64, 22
2, 44643, Note_on_c, 0, 73, 64
2, 44703, Note_off_c, 0, 73, 63
2, 44703, Note_on_c, 0, 71, 64
2, 44763, Note_off_c, 0, 71, 62
2, 44763, Note_on_c, 0, 73, 64
2, 44823, Note_off_c, 0, 73, 63
2, 44823, Note_on_c, 0, 74, 64
2, 44883, Note_off_c, 0, 74, 72
2, 44883, Note_on_c, 0, 76, 64
2, 44943, Note_off_c, 0, 76, 37
2, 44943, Note_on_c, 0, 78, 64
2, 45003, Note_off_c, 0, 78, 52
2, 45003, Note_on_c, 0, 79, 64
2, 45063, Note_off_c, 0, 79, 62
2, 45063, Note_on_c, 0, 76, 64
2, 45123, Note_off_c, 0, 76, 40
2, 45123, Note_on_c, 0, 81, 64
2, 45603, Note_off_c, 0, 81, 50
2, 45603, Note_on_c, 0, 79, 64
2, 45843, Note_off_c, 0, 79, 59
2, 45843, Note_on_c, 0, 77, 64
2, 46083, Note_off_c, 0, 77, 52
2, 46083, Note_on_c, 0, 76, 64
2, 46323, Note_off_c, 0, 76, 49
2, 46323, Note_on_c, 0, 74, 64
2, 46623, Note_off_c, 0, 74, 57
2, 46623, Note_on_c, 0, 73, 64
2, 46683, Note_off_c, 0, 73, 69
2, 46683, Note_on_c, 0, 74, 64
2, 46743, Note_off_c, 0, 74, 47
2, 46743, Note_on_c, 0, 73, 64
2, 46803, Note_off_c, 0, 73, 58
2, 46803, Note_on_c, 0, 74, 64
2, 47103, Note_off_c, 0, 74, 49
2, 47103, Note_on_c, 0, 76, 64
2, 47163, Note_off_c, 0, 76, 46
2, 47163, Note_on_c, 0, 78, 64
2, 47223, Note_off_c, 0, 78, 52
2, 47223, Note_on_c, 0, 79, 64
2, 47283, Note_off_c, 0, 79, 62
2, 47283, Note_on_c, 0, 81, 64
2, 47343, Note_off_c, 0, 81, 53
2, 47343, Note_on_c, 0, 83, 64
2, 47403, Note_off_c, 0, 83, 53
2, 47403, Note_on_c, 0, 74, 64
2, 47463, Note_off_c, 0, 74, 57
2, 47463, Note_on_c, 0, 73, 64
2, 47523, Note_off_c, 0, 73, 52
2, 47523, Note_on_c, 0, 74, 64
2, 48243, Note_off_c, 0, 74, 72
2, 48243, Note_on_c, 0, 73, 64
2, 48363, Note_off_c, 0, 73, 70
2, 48363, Note_on_c, 0, 78, 64
2, 48543, Note_off_c, 0, 78, 39
2, 48543, Note_on_c, 0, 71, 64
2, 48603, Note_off_c, 0, 71, 44
2, 48603, Note_on_c, 0, 73, 64
2, 48663, Note_off_c, 0, 73, 54
2, 48663, Note_on_c, 0, 74, 64
2, 48723, Note_off_c, 0, 74, 49
2, 48723, Note_on_c, 0, 76, 64
2, 48783, Note_off_c, 0, 76, 43
2, 48783, Note_on_c, 0, 78, 64
2, 48843, Note_off_c, 0, 78, 70
2, 48843, Note_on_c, 0, 71, 64
2, 48903, Note_off_c, 0, 71, 48
2, 48903, Note_on_c, 0, 70, 64
2, 48963, Note_off_c, 0, 70, 63
2, 48963, Note_on_c, 0, 74, 64
2, 49203, Note_off_c, 0, 74, 52
2, 49203, Note_on_c, 0, 73, 64
2, 49323, Note_off_c, 0, 73, 62
2, 49323, Note_on_c, 0, 71, 64
2, 49443, Note_off_c, 0, 71, 63
2, 49443, Note_on_c, 0, 73, 64
2, 49923, Note_off_c, 0, 73, 66
2, 49983, Note_on_c, 0, 66, 64
2, 50043, Note_off_c, 0, 66, 16
2, 50043, Note_on_c, 0, 68, 64
2, 50103, Note_off_c, 0, 68, 69
2, 50103, Note_on_c, 0, 69, 64
2, 50163, Note_off_c, 0, 69, 59
2, 50163, Note_on_c, 0, 71, 64
2, 50223, Note_off_c, 0, 71, 37
2, 50223, Note_on_c, 0, 73, 64
2, 50283, Note_off_c, 0, 73, 46
2, 50283, Note_on_c, 0, 66, 64
2, 50343, Note_off_c, 0, 66, 51
2, 50343, Note_on_c, 0, 65, 64
2, 50403, Note_off_c, 0, 65, 1
2, 50403, Note_on_c, 0, 69, 64
2, 50643, Note_off_c, 0, 69, 74
2, 51123, Note_on_c, 0, 80, 64
2, 51363, Note_off_c, 0, 80, 69
2, 51363, Note_on_c, 0, 78, 64
2, 51603, Note_off_c, 0, 78, 73
2, 51603, Note_on_c, 0, 76, 64
2, 51843, Note_off_c, 0, 76, 62
2, 51843, Note_on_c, 0, 75, 64
2, 52083, Note_off_c, 0, 75, 51
2, 52083, Note_on_c, 0, 73, 64
2, 52443, Note_off_c, 0, 73, 66
2, 52443, Note_on_c, 0, 72, 64
2, 52563, Note_off_c, 0, 72, 73
2, 52563, Note_on_c, 0, 73, 64
2, 52863, Note_off_c, 0, 73, 63
2, 52863, Note_on_c, 0, 75, 64
2, 52923, Note_off_c, 0, 75, 50
2, 52923, Note_on_c, 0, 76, 64
2, 52983, Note_off_c, 0, 76, 57
2, 52983, Note_on_c, 0, 78, 64
2, 53043, Note_off_c, 0, 78, 65
2, 53043, Note_on_c, 0, 80, 64
2, 53103, Note_off_c, 0, 80, 63
2, 53103, Note_on_c, 0, 81, 64
2, 53163, Note_off_c, 0, 81, 42
2, 53163, Note_on_c, 0, 73, 64
2, 53223, Note_off_c, 0, 73, 49
2, 53223, Note_on_c, 0, 72, 64
2, 53283, Note_off_c, 0, 72, 42
2, 53283, Note_on_c, 0, 76, 64
2, 53813, Note_off_c, 0, 76, 48
2, 53826, Note_on_c, 0, 76, 64
2, 53886, Note_off_c, 0, 76, 43
2, 53886, Note_on_c, 0, 78, 64
2, 53946, Note_off_c, 0, 78, 62
2, 53946, Note_on_c, 0, 80, 64
2, 54006, Note_off_c, 0, 80, 62
2, 54006, Note_on_c, 0, 81, 64
2, 54066, Note_off_c, 0, 81, 57
2, 54066, Note_on_c, 0, 83, 64
2, 54126, Note_off_c, 0, 83, 55
2, 54126, Note_on_c, 0, 75, 64
2, 54186, Note_off_c, 0, 75, 54
2, 54186, Note_on_c, 0, 73, 64
2, 54246, Note_off_c, 0, 73, 55
2, 54246, Note_on_c, 0, 75, 64
2, 54486, Note_off_c, 0, 75, 58
2, 54966, Note_on_c, 0, 78, 64
2, 55206, Note_off_c, 0, 78, 50
2, 55206, Note_on_c, 0, 76, 64
2, 55446, Note_off_c, 0, 76, 57
2, 55446, Note_on_c, 0, 74, 64
2, 55686, Note_off_c, 0, 74, 49
2, 55686, Note_on_c, 0, 73, 64
2, 55926, Note_off_c, 0, 73, 66
2, 55926, Note_on_c, 0, 71, 64
2, 56226, Note_off_c, 0, 71, 72
2, 56226, Note_on_c, 0, 70, 64
2, 56286, Note_off_c, 0, 70, 66
2, 56286, Note_on_c, 0, 71, 64
2, 56346, Note_off_c, 0, 71, 73
2, 56346, Note_on_c, 0, 70, 64
2, 56406, Note_off_c, 0, 70, 55
2, 56406, Note_on_c, 0, 71, 64
2, 56706, Note_off_c, 0, 71, 65
2, 56706, Note_on_c, 0, 73, 64
2, 56766, Note_off_c, 0, 73, 69
2, 56766, Note_on_c, 0, 74, 64
2, 56826, Note_off_c, 0, 74, 62
2, 56826, Note_on_c, 0, 76, 64
2, 56886, Note_off_c, 0, 76, 65
2, 56886, Note_on_c, 0, 78, 64
2, 56946, Note_off_c, 0, 78, 61
2, 56946, Note_on_c, 0, 79, 64
2, 57006, Note_off_c, 0, 79, 58
2, 57006, Note_on_c, 0, 71, 64
2, 57066, Note_off_c, 0, 71, 42
2, 57066, Note_on_c, 0, 70, 64
2, 57126, Note_off_c, 0, 70, 62
2, 57126, Note_on_c, 0, 74, 64
2, 57426, Note_off_c, 0, 74, 46
2, 57426, Note_on_c, 0, 73, 64
2, 57486, Note_off_c, 0, 73, 69
2, 57486, Note_on_c, 0, 74, 64
2, 57546, Note_off_c, 0, 74, 63
2, 57546, Note_on_c, 0, 73, 64
2, 57606, Note_off_c, 0, 73, 62
2, 57606, Note_on_c, 0, 76, 64
2, 57666, Note_off_c, 0, 76, 47
2, 57666, Note_on_c, 0, 74, 64
2, 57726, Note_off_c, 0, 74, 49
2, 57726, Note_on_c, 0, 78, 64
2, 57786, Note_off_c, 0, 78, 59
2, 57786, Note_on_c, 0, 76, 64
2, 57846, Note_off_c, 0, 76, 40
2, 57846, Note_on_c, 0, 79, 64
2, 58266, Note_off_c, 0, 79, 65
2, 58266, Note_on_c, 0, 78, 64
2, 58326, Note_off_c, 0, 78, 52
2, 58326, Note_on_c, 0, 81, 64
2, 58746, Note_off_c, 0, 81, 47
2, 58746, Note_on_c, 0, 80, 64
2, 58806, Note_off_c, 0, 80, 57
2, 58806, Note_on_c, 0, 83, 64
2, 58926, Note_off_c, 0, 83, 50
2, 58926, Note_on_c, 0, 81, 64
2, 59046, Note_off_c, 0, 81, 55
2, 59046, Note_on_c, 0, 80, 64
2, 59346, Note_off_c, 0, 80, 66
2, 59346, Note_on_c, 0, 77, 64
2, 59406, Note_off_c, 0, 77, 55
2, 59406, Note_on_c, 0, 78, 64
2, 59586, Note_off_c, 0, 78, 59
2, 59586, Note_on_c, 0, 78, 64
2, 59646, Note_off_c, 0, 78, 58
2, 59646, Note_on_c, 0, 80, 64
2, 59706, Note_off_c, 0, 80, 63
2, 59706, Note_on_c, 0, 81, 64
2, 59766, Note_off_c, 0, 81, 49
2, 59766, Note_on_c, 0, 83, 64
2, 59826, Note_off_c, 0, 83, 52
2, 59826, Note_on_c, 0, 80, 64
2, 59886, Note_off_c, 0, 80, 59
2, 59886, Note_on_c, 0, 78, 64
2, 59946, Note_off_c, 0, 78, 63
2, 59946, Note_on_c, 0, 77, 64
2, 60006, Note_off_c, 0, 77, 48
2, 60006, Note_on_c, 0, 81, 64
2, 61026, Note_off_c, 0, 81, 66
2, 61026, Note_on_c, 0, 78, 64
2, 61086, Note_off_c, 0, 78, 59
2, 61086, Note_on_c, 0, 79, 64
2, 61146, Note_off_c, 0, 79, 52
2, 61146, Note_on_c, 0, 81, 64
2, 61206, Note_off_c, 0, 81, 48
2, 61206, Note_on_c, 0, 83, 64
2, 61266, Note_off_c, 0, 83, 55
2, 61266, Note_on_c, 0, 84, 64
2, 61326, Note_off_c, 0, 84, 53
2, 61326, Note_on_c, 0, 78, 64
2, 61386, Note_off_c, 0, 78, 40
2, 61386, Note_on_c, 0, 76, 64
2, 61446, Note_off_c, 0, 76, 27
2, 61446, Note_on_c, 0, 78, 64
2, 61736, Note_off_c, 0, 78, 66
2, 61749, Note_on_c, 0, 78, 64
2, 61809, Note_off_c, 0, 78, 62
2, 61809, Note_on_c, 0, 74, 64
2, 61869, Note_off_c, 0, 74, 38
2, 61869, Note_on_c, 0, 71, 64
2, 61929, Note_off_c, 0, 71, 46
2, 61929, Note_on_c, 0, 79, 64
2, 61989, Note_off_c, 0, 79, 48
2, 61989, Note_on_c, 0, 81, 64
2, 62049, Note_off_c, 0, 81, 57
2, 62049, Note_on_c, 0, 83, 64
2, 62289, Note_off_c, 0, 83, 63
2, 62289, Note_on_c, 0, 81, 64
2, 62349, Note_off_c, 0, 81, 54
2, 62349, Note_on_c, 0, 79, 64
2, 62409, Note_off_c, 0, 79, 59
2, 62409, Note_on_c, 0, 78, 64
2, 62469, Note_off_c, 0, 78, 62
2, 62469, Note_on_c, 0, 79, 64
2, 62529, Note_off_c, 0, 79, 58
2, 62529, Note_on_c, 0, 81, 64
2, 62769, Note_off_c, 0, 81, 66
2, 62769, Note_on_c, 0, 79, 64
2, 62829, Note_off_c, 0, 79, 57
2, 62829, Note_on_c, 0, 78, 64
2, 62889, Note_off_c, 0, 78, 54
2, 62889, Note_on_c, 0, 76, 64
2, 62949, Note_off_c, 0, 76, 52
2, 62949, Note_on_c, 0, 78, 64
2, 63009, Note_off_c, 0, 78, 72
2, 63009, Note_on_c, 0, 79, 64
2, 63249, Note_off_c, 0, 79, 73
2, 63249, Note_on_c, 0, 78, 64
2, 63309, Note_off_c, 0, 78, 48
2, 63309, Note_on_c, 0, 76, 64
2, 63369, Note_off_c, 0, 76, 59
2, 63369, Note_on_c, 0, 74, 64
2, 63669, Note_off_c, 0, 74, 68
2, 63669, Note_on_c, 0, 76, 64
2, 63729, Note_off_c, 0, 76, 52
2, 63729, Note_on_c, 0, 78, 64
2, 63969, Note_off_c, 0, 78, 57
2, 63969, Note_on_c, 0, 76, 64
2, 64029, Note_off_c, 0, 76, 61
2, 64029, Note_on_c, 0, 74, 64
2, 64089, Note_off_c, 0, 74, 58
2, 64089, Note_on_c, 0, 73, 64
2, 64149, Note_off_c, 0, 73, 72
2, 64149, Note_on_c, 0, 74, 64
2, 64209, Note_off_c, 0, 74, 70
2, 64209, Note_on_c, 0, 76, 64
2, 64449, Note_off_c, 0, 76, 52
2, 64449, Note_on_c, 0, 74, 64
2, 64509, Note_off_c, 0, 74, 54
2, 64509, Note_on_c, 0, 73, 64
2, 64569, Note_off_c, 0, 73, 34
2, 64569, Note_on_c, 0, 71, 64
2, 64629, Note_off_c, 0, 71, 46
2, 64629, Note_on_c, 0, 73, 64
2, 64689, Note_off_c, 0, 73, 62
2, 64689, Note_on_c, 0, 74, 64
2, 64929, Note_off_c, 0, 74, 69
2, 64929, Note_on_c, 0, 73, 64
2, 64989, Note_off_c, 0, 73, 52
2, 64989, Note_on_c, 0, 71, 64
2, 65049, Note_off_c, 0, 71, 80
2, 65049, Note_on_c, 0, 70, 64
2, 65109, Note_off_c, 0, 70, 66
2, 65109, Note_on_c, 0, 71, 64
2, 65169, Note_off_c, 0, 71, 73
2, 65169, Note_on_c, 0, 73, 64
2, 65349, Note_off_c, 0, 73, 65
2, 65349, Note_on_c, 0, 66, 64
2, 65409, Note_off_c, 0, 66, 51
2, 65409, Note_on_c, 0, 68, 64
2, 65469, Note_off_c, 0, 68, 70
2, 65469, Note_on_c, 0, 70, 64
2, 65529, Note_off_c, 0, 70, 77
2, 65589, Note_on_c, 0, 73, 64
2, 65649, Note_off_c, 0, 73, 65
2, 65649, Note_on_c, 0, 74, 64
2, 65709, Note_off_c, 0, 74, 59
2, 65709, Note_on_c, 0, 78, 64
2, 65769, Note_off_c, 0, 78, 57
2, 65769, Note_on_c, 0, 76, 64
2, 65829, Note_off_c, 0, 76, 54
2, 65829, Note_on_c, 0, 73, 64
2, 65889, Note_off_c, 0, 73, 66
2, 65889, Note_on_c, 0, 74, 64
2, 65949, Note_off_c, 0, 74, 53
2, 65949, Note_on_c, 0, 78, 64
2, 66009, Note_off_c, 0, 78, 50
2, 66009, Note_on_c, 0, 79, 64
2, 66069, Note_off_c, 0, 79, 62
2, 66069, Note_on_c, 0, 76, 64
2, 66129, Note_off_c, 0, 76, 43
2, 66129, Note_on_c, 0, 78, 64
2, 66189, Note_off_c, 0, 78, 76
2, 66189, Note_on_c, 0, 82, 64
2, 66249, Note_off_c, 0, 82, 66
2, 66249, Note_on_c, 0, 83, 64
2, 66309, Note_off_c, 0, 83, 41
2, 66309, Note_on_c, 0, 81, 64
2, 66369, Note_off_c, 0, 81, 58
2, 66369, Note_on_c, 0, 79, 64
2, 66429, Note_off_c, 0, 79, 72
2, 66429, Note_on_c, 0, 78, 64
2, 66489, Note_off_c, 0, 78, 62
2, 66489, Note_on_c, 0, 76, 64
2, 66549, Note_off_c, 0, 76, 51
2, 66549, Note_on_c, 0, 74, 64
2, 66609, Note_off_c, 0, 74, 55
2, 66609, Note_on_c, 0, 72, 64
2, 66669, Note_off_c, 0, 72, 70
2, 66669, Note_on_c, 0, 71, 64
2, 66729, Note_off_c, 0, 71, 48
2, 66729, Note_on_c, 0, 69, 64
2, 66789, Note_off_c, 0, 69, 79
2, 66789, Note_on_c, 0, 66, 64
2, 66849, Note_off_c, 0, 66, 65
2, 66849, Note_on_c, 0, 67, 64
2, 66909, Note_off_c, 0, 67, 46
2, 66909, Note_on_c, 0, 71, 64
2, 66969, Note_off_c, 0, 71, 66
2, 66969, Note_on_c, 0, 72, 64
2, 67029, Note_off_c, 0, 72, 72
2, 67029, Note_on_c, 0, 69, 64
2, 67089, Note_off_c, 0, 69, 52
2, 67149, Note_on_c, 0, 75, 64
2, 67209, Note_off_c, 0, 75, 44
2, 67209, Note_on_c, 0, 76, 64
2, 67449, Note_off_c, 0, 76, 52
2, 67449, Note_on_c, 0, 74, 64
2, 67689, Note_off_c, 0, 74, 53
2, 67689, Note_on_c, 0, 73, 64
2, 67929, Note_off_c, 0, 73, 61
2, 67929, Note_on_c, 0, 71, 64
2, 68229, Note_off_c, 0, 71, 70
2, 68229, Note_on_c, 0, 70, 64
2, 68289, Note_off_c, 0, 70, 58
2, 68289, Note_on_c, 0, 71, 64
2, 68349, Note_off_c, 0, 71, 72
2, 68349, Note_on_c, 0, 70, 64
2, 68409, Note_off_c, 0, 70, 52
2, 68409, Note_on_c, 0, 71, 64
2, 68709, Note_off_c, 0, 71, 65
2, 68709, Note_on_c, 0, 73, 64
2, 68769, Note_off_c, 0, 73, 65
2, 68769, Note_on_c, 0, 74, 64
2, 68829, Note_off_c, 0, 74, 59
2, 68829, Note_on_c, 0, 76, 64
2, 68889, Note_off_c, 0, 76, 65
2, 68889, Note_on_c, 0, 78, 64
2, 68949, Note_off_c, 0, 78, 65
2, 68949, Note_on_c, 0, 79, 64
2, 69009, Note_off_c, 0, 79, 70
2, 69009, Note_on_c, 0, 71, 64
2, 69069, Note_off_c, 0, 71, 49
2, 69069, Note_on_c, 0, 70, 64
2, 69129, Note_off_c, 0, 70, 69
2, 69129, Note_on_c, 0, 71, 64
2, 69189, Note_off_c, 0, 71, 49
2, 69189, Note_on_c, 0, 74, 64
2, 69249, Note_off_c, 0, 74, 57
2, 69249, Note_on_c, 0, 76, 64
2, 69309, Note_off_c, 0, 76, 52
2, 69309, Note_on_c, 0, 78, 64
2, 69369, Note_off_c, 0, 78, 73
2, 69369, Note_on_c, 0, 79, 64
2, 69429, Note_off_c, 0, 79, 66
2, 69429, Note_on_c, 0, 81, 64
2, 69489, Note_off_c, 0, 81, 68
2, 69489, Note_on_c, 0, 72, 64
2, 69549, Note_off_c, 0, 72, 70
2, 69549, Note_on_c, 0, 71, 64
2, 69609, Note_off_c, 0, 71, 45
2, 69609, Note_on_c, 0, 72, 64
2, 69669, Note_off_c, 0, 72, 54
2, 69669, Note_on_c, 0, 76, 64
2, 69729, Note_off_c, 0, 76, 38
2, 69729, Note_on_c, 0, 78, 64
2, 69789, Note_off_c, 0, 78, 58
2, 69789, Note_on_c, 0, 79, 64
2, 69849, Note_off_c, 0, 79, 55
2, 69849, Note_on_c, 0, 82, 64
2, 69909, Note_off_c, 0, 82, 50
2, 69909, Note_on_c, 0, 83, 64
2, 69969, Note_off_c, 0, 83, 72
2, 69969, Note_on_c, 0, 74, 64
2, 70029, Note_off_c, 0, 74, 42
2, 70029, Note_on_c, 0, 73, 64
2, 70089, Note_off_c, 0, 73, 49
2, 70089, Note_on_c, 0, 74, 64
2, 70569, Note_off_c, 0, 74, 69
2, 70569, Note_on_c, 0, 73, 64
2, 71289, Note_off_c, 0, 73, 65
2, 71289, Note_on_c, 0, 72, 64
2, 71349, Note_off_c, 0, 72, 61
2, 71349, Note_on_c, 0, 70, 64
2, 71409, Note_off_c, 0, 70, 44
2, 71409, Note_on_c, 0, 71, 64
2, 71769, Note_off_c, 0, 71, 70
2, 71769, Note_on_c, 0, 70, 64
2, 72009, Note_off_c, 0, 70, 69
2, 72009, Note_on_c, 0, 71, 64
2, 72969, Note_off_c, 0, 71, 77
2, 72969, End_track
3, 0, Start_track
3, 0, Text_t, "2"
3, 120, Note_on_c, 1, 66, 64
3, 240, Note_off_c, 1, 66, 1
3, 240, Note_on_c, 1, 62, 64
3, 360, Note_off_c, 1, 62, 47
3, 360, Note_on_c, 1, 59, 64
3, 480, Note_off_c, 1, 59, 27
3, 480, Note_on_c, 1, 67, 64
3, 600, Note_off_c, 1, 67, 52
3, 600, Note_on_c, 1, 66, 64
3, 700, Note_off_c, 1, 66, 53
3, 720, Note_on_c, 1, 71, 64
3, 840, Note_off_c, 1, 71, 69
3, 840, Note_on_c, 1, 70, 64
3, 940, Note_off_c, 1, 70, 73
3, 960, Note_on_c, 1, 64, 64
3, 1080, Note_off_c, 1, 64, 55
3, 1080, Note_on_c, 1, 63, 64
3, 1180, Note_off_c, 1, 63, 62
3, 1200, Note_on_c, 1, 72, 64
3, 1320, Note_off_c, 1, 72, 72
3, 1320, Note_on_c, 1, 71, 64
3, 1420, Note_off_c, 1, 71, 74
3, 1440, Note_on_c, 1, 66, 64
3, 1560, Note_off_c, 1, 66, 68
3, 1560, Note_on_c, 1, 65, 64
3, 1660, Note_off_c, 1, 65, 1
3, 1680, Note_on_c, 1, 74, 64
3, 1800, Note_off_c, 1, 74, 58
3, 1800, Note_on_c, 1, 73, 64
3, 1900, Note_off_c, 1, 73, 69
3, 1920, Note_on_c, 1, 72, 64
3, 2040, Note_off_c, 1, 72, 77
3, 2040, Note_on_c, 1, 73, 64
3, 2160, Note_off_c, 1, 73, 66
3, 2160, Note_on_c, 1, 69, 64
3, 2280, Note_off_c, 1, 69, 73
3, 2280, Note_on_c, 1, 66, 64
3, 2400, Note_off_c, 1, 66, 69
3, 2400, Note_on_c, 1, 69, 68
3, 2415, Note_off_c, 1, 69, 72
3, 2415, Note_on_c, 1, 68, 48
3, 2430, Note_off_c, 1, 68, 57
3, 2430, Note_on_c, 1, 69, 48
3, 2445, Note_off_c, 1, 69, 70
3, 2445, Note_on_c, 1, 68, 49
3, 2460, Note_off_c, 1, 68, 69
3, 2460, Note_on_c, 1, 69, 49
3, 2475, Note_off_c, 1, 69, 69
3, 2475, Note_on_c, 1, 68, 50
3, 2490, Note_off_c, 1, 68, 68
3, 2490, Note_on_c, 1, 69, 50
3, 2505, Note_off_c, 1, 69, 72
3, 2505, Note_on_c, 1, 68, 51
3, 2520, Note_off_c, 1, 68, 74
3, 2520, Note_on_c, 1, 69, 51
3, 2535, Note_off_c, 1, 69, 68
3, 2535, Note_on_c, 1, 68, 52
3, 2550, Note_off_c, 1, 68, 74
3, 2550, Note_on_c, 1, 69, 52
3, 2565, Note_off_c, 1, 69, 72
3, 2565, Note_on_c, 1, 68, 53
3, 2580, Note_off_c, 1, 68, 73
3, 2580, Note_on_c, 1, 69, 53
3, 2595, Note_off_c, 1, 69, 62
3, 2595, Note_on_c, 1, 68, 54
3, 2610, Note_off_c, 1, 68, 73
3, 2610, Note_on_c, 1, 69, 54
3, 2625, Note_off_c, 1, 69, 73
3, 2625, Note_on_c, 1, 68, 55
3, 2640, Note_off_c, 1, 68, 72
3, 2640, Note_on_c, 1, 69, 56
3, 2655, Note_off_c, 1, 69, 62
3, 2655, Note_on_c, 1, 68, 56
3, 2670, Note_off_c, 1, 68, 73
3, 2670, Note_on_c, 1, 69, 57
3, 2685, Note_off_c, 1, 69, 59
3, 2685, Note_on_c, 1, 68, 57
3, 2700, Note_off_c, 1, 68, 73
3, 2700, Note_on_c, 1, 69, 58
3, 2715, Note_off_c, 1, 69, 59
3, 2715, Note_on_c, 1, 68, 58
3, 2730, Note_off_c, 1, 68, 73
3, 2730, Note_on_c, 1, 69, 59
3, 2745, Note_off_c, 1, 69, 55
3, 2745, Note_on_c, 1, 68, 59
3, 2760, Note_off_c, 1, 68, 70
3, 2760, Note_on_c, 1, 69, 60
3, 2775, Note_off_c, 1, 69, 61
3, 2775, Note_on_c, 1, 68, 60
3, 2790, Note_off_c, 1, 68, 66
3, 2790, Note_on_c, 1, 69, 61
3, 2805, Note_off_c, 1, 69, 51
3, 2805, Note_on_c, 1, 68, 61
3, 2820, Note_off_c, 1, 68, 65
3, 2820, Note_on_c, 1, 69, 62
3, 2835, Note_off_c, 1, 69, 61
3, 2835, Note_on_c, 1, 68, 62
3, 2850, Note_off_c, 1, 68, 68
3, 2850, Note_on_c, 1, 69, 63
3, 2865, Note_off_c, 1, 69, 63
3, 2865, Note_on_c, 1, 68, 63
3, 2880, Note_off_c, 1, 68, 61
3, 2880, Note_on_c, 1, 66, 64
3, 3060, Note_off_c, 1, 66, 70
3, 3060, Note_on_c, 1, 65, 64
3, 3120, Note_off_c, 1, 65, 65
3, 3120, Note_on_c, 1, 66, 64
3, 3180, Note_off_c, 1, 66, 69
3, 3180, Note_on_c, 1, 68, 64
3, 3240, Note_off_c, 1, 68, 85
3, 3240, Note_on_c, 1, 69, 64
3, 3300, Note_off_c, 1, 69, 52
3, 3300, Note_on_c, 1, 73, 64
3, 3360, Note_off_c, 1, 73, 70
3, 3360, Note_on_c, 1, 71, 64
3, 3420, Note_off_c, 1, 71, 70
3, 3420, Note_on_c, 1, 68, 64
3, 3480, Note_off_c, 1, 68, 59
3, 3480, Note_on_c, 1, 69, 64
3, 3540, Note_off_c, 1, 69, 62
3, 3540, Note_on_c, 1, 72, 64
3, 3600, Note_off_c, 1, 72, 77
3, 3600, Note_on_c, 1, 78, 64
3, 3840, Note_off_c, 1, 78, 50
3, 3840, Note_on_c, 1, 76, 64
3, 4080, Note_off_c, 1, 76, 48
3, 4080, Note_on_c, 1, 74, 64
3, 4320, Note_off_c, 1, 74, 72
3, 4320, Note_on_c, 1, 73, 64
3, 4560, Note_off_c, 1, 73, 62
3, 4560, Note_on_c, 1, 71, 64
3, 4920, Note_off_c, 1, 71, 68
3, 4920, Note_on_c, 1, 70, 64
3, 5040, Note_off_c, 1, 70, 76
3, 5040, Note_on_c, 1, 71, 64
3, 5340, Note_off_c, 1, 71, 68
3, 5340, Note_on_c, 1, 73, 64
3, 5400, Note_off_c, 1, 73, 73
3, 5400, Note_on_c, 1, 74, 64
3, 5460, Note_off_c, 1, 74, 77
3, 5460, Note_on_c, 1, 76, 64
3, 5520, Note_off_c, 1, 76, 43
3, 5520, Note_on_c, 1, 78, 64
3, 5580, Note_off_c, 1, 78, 63
3, 5580, Note_on_c, 1, 79, 64
3, 5640, Note_off_c, 1, 79, 62
3, 5640, Note_on_c, 1, 71, 64
3, 5700, Note_off_c, 1, 71, 53
3, 5700, Note_on_c, 1, 70, 64
3, 5760, Note_off_c, 1, 70, 66
3, 5760, Note_on_c, 1, 74, 64
3, 6360, Note_off_c, 1, 74, 70
3, 6360, Note_on_c, 1, 72, 64
3, 6480, Note_off_c, 1, 72, 80
3, 6480, Note_on_c, 1, 71, 64
3, 6600, Note_off_c, 1, 71, 82
3, 6600, Note_on_c, 1, 75, 64
3, 6720, Note_off_c, 1, 75, 48
3, 6720, Note_on_c, 1, 76, 64
3, 7320, Note_off_c, 1, 76, 54
3, 7320, Note_on_c, 1, 74, 64
3, 7440, Note_off_c, 1, 74, 74
3, 7440, Note_on_c, 1, 73, 64
3, 7560, Note_off_c, 1, 73, 80
3, 7560, Note_on_c, 1, 77, 64
3, 7680, Note_off_c, 1, 77, 72
3, 7680, Note_on_c, 1, 78, 64
3, 7860, Note_off_c, 1, 78, 69
3, 7860, Note_on_c, 1, 79, 64
3, 7920, Note_off_c, 1, 79, 70
3, 7920, Note_on_c, 1, 78, 64
3, 7980, Note_off_c, 1, 78, 54
3, 7980, Note_on_c, 1, 76, 64
3, 8040, Note_off_c, 1, 76, 52
3, 8040, Note_on_c, 1, 74, 64
3, 8100, Note_off_c, 1, 74, 52
3, 8100, Note_on_c, 1, 71, 64
3, 8160, Note_off_c, 1, 71, 54
3, 8160, Note_on_c, 1, 73, 64
3, 8220, Note_off_c, 1, 73, 69
3, 8220, Note_on_c, 1, 76, 64
3, 8280, Note_off_c, 1, 76, 58
3, 8280, Note_on_c, 1, 74, 64
3, 8340, Note_off_c, 1, 74, 65
3, 8340, Note_on_c, 1, 71, 64
3, 8400, Note_off_c, 1, 71, 68
3, 8400, Note_on_c, 1, 66, 64
3, 8520, Note_off_c, 1, 66, 40
3, 8520, Note_on_c, 1, 78, 64
3, 8820, Note_off_c, 1, 78, 52
3, 8820, Note_on_c, 1, 79, 64
3, 8880, Note_off_c, 1, 79, 48
3, 8880, Note_on_c, 1, 78, 64
3, 8940, Note_off_c, 1, 78, 52
3, 8940, Note_on_c, 1, 76, 64
3, 9000, Note_off_c, 1, 76, 59
3, 9000, Note_on_c, 1, 75, 64
3, 9060, Note_off_c, 1, 75, 53
3, 9060, Note_on_c, 1, 73, 64
3, 9120, Note_off_c, 1, 73, 68
3, 9120, Note_on_c, 1, 71, 64
3, 9180, Note_off_c, 1, 71, 72
3, 9180, Note_on_c, 1, 73, 64
3, 9210, Note_off_c, 1, 73, 69
3, 9210, Note_on_c, 1, 74, 64
3, 9240, Note_off_c, 1, 74, 66
3, 9240, Note_on_c, 1, 73, 64
3, 9420, Note_off_c, 1, 73, 53
3, 9420, Note_on_c, 1, 71, 64
3, 9480, Note_off_c, 1, 71, 73
3, 9480, Note_on_c, 1, 69, 64
3, 9540, Note_off_c, 1, 69, 74
3, 9540, Note_on_c, 1, 74, 64
3, 9600, Note_off_c, 1, 74, 54
3, 9600, Note_on_c, 1, 68, 64
3, 9840, Note_off_c, 1, 68, 61
3, 9840, Note_on_c, 1, 69, 64
3, 10080, Note_off_c, 1, 69, 72
3, 10080, Note_on_c, 1, 71, 64
3, 10800, Note_off_c, 1, 71, 74
3, 10800, Note_on_c, 1, 69, 64
3, 11040, Note_off_c, 1, 69, 72
3, 11040, Note_on_c, 1, 68, 64
3, 11520, Note_off_c, 1, 68, 72
3, 11520, Note_on_c, 1, 66, 64
3, 12000, Note_off_c, 1, 66, 53
3, 12000, Note_on_c, 1, 65, 64
3, 12120, Note_off_c, 1, 65, 58
3, 12120, Note_on_c, 1, 63, 64
3, 12240, Note_off_c, 1, 63, 52
3, 12480, Note_on_c, 1, 75, 64
3, 12600, Note_off_c, 1, 75, 54
3, 12600, Note_on_c, 1, 76, 64
3, 12720, Note_off_c, 1, 76, 55
3, 13080, Note_on_c, 1, 76, 64
3, 13200, Note_off_c, 1, 76, 46
3, 13200, Note_on_c, 1, 74, 64
3, 13260, Note_off_c, 1, 74, 66
3, 13260, Note_on_c, 1, 73, 64
3, 13320, Note_off_c, 1, 73, 65
3, 13320, Note_on_c, 1, 74, 64
3, 13380, Note_off_c, 1, 74, 74
3, 13380, Note_on_c, 1, 71, 64
3, 13440, Note_off_c, 1, 71, 66
3, 13440, Note_on_c, 1, 73, 64
3, 13680, Note_off_c, 1, 73, 58
3, 13680, Note_on_c, 1, 71, 64
3, 13800, Note_off_c, 1, 71, 66
3, 13800, Note_on_c, 1, 66, 64
3, 13920, Note_off_c, 1, 66, 69
3, 13920, Note_on_c, 1, 67, 64
3, 14520, Note_off_c, 1, 67, 58
3, 14520, Note_on_c, 1, 61, 64
3, 14880, Note_off_c, 1, 61, 63
3, 14880, Note_on_c, 1, 66, 64
3, 15120, Note_off_c, 1, 66, 69
3, 15120, Note_on_c, 1, 68, 64
3, 15600, Note_off_c, 1, 68, 73
3, 15600, Note_on_c, 1, 66, 64
3, 15720, Note_off_c, 1, 66, 77
3, 17340, Note_on_c, 1, 71, 64
3, 17400, Note_off_c, 1, 71, 70
3, 17400, Note_on_c, 1, 73, 64
3, 17640, Note_off_c, 1, 73, 65
3, 17640, Note_on_c, 1, 71, 64
3, 17700, Note_off_c, 1, 71, 74
3, 17700, Note_on_c, 1, 69, 64
3, 17760, Note_off_c, 1, 69, 73
3, 17760, Note_on_c, 1, 67, 64
3, 17820, Note_off_c, 1, 67, 35
3, 17820, Note_on_c, 1, 69, 64
3, 17880, Note_off_c, 1, 69, 66
3, 17880, Note_on_c, 1, 71, 64
3, 18120, Note_off_c, 1, 71, 63
3, 18120, Note_on_c, 1, 69, 64
3, 18180, Note_off_c, 1, 69, 65
3, 18180, Note_on_c, 1, 67, 64
3, 18240, Note_off_c, 1, 67, 39
3, 18240, Note_on_c, 1, 66, 64
3, 18300, Note_off_c, 1, 66, 58
3, 18300, Note_on_c, 1, 67, 64
3, 18360, Note_off_c, 1, 67, 49
3, 18360, Note_on_c, 1, 69, 64
3, 18600, Note_off_c, 1, 69, 66
3, 18600, Note_on_c, 1, 67, 64
3, 18660, Note_off_c, 1, 67, 55
3, 18660, Note_on_c, 1, 66, 64
3, 18720, Note_off_c, 1, 66, 69
3, 18720, Note_on_c, 1, 64, 64
3, 18780, Note_off_c, 1, 64, 50
3, 18780, Note_on_c, 1, 66, 64
3, 18840, Note_off_c, 1, 66, 69
3, 18840, Note_on_c, 1, 67, 64
3, 19080, Note_off_c, 1, 67, 62
3, 19080, Note_on_c, 1, 66, 64
3, 19140, Note_off_c, 1, 66, 69
3, 19140, Note_on_c, 1, 64, 64
3, 19200, Note_off_c, 1, 64, 46
3, 19200, Note_on_c, 1, 62, 64
3, 19320, Note_on_c, 1, 66, 64
3, 19440, Note_off_c, 1, 66, 74
3, 19440, Note_off_c, 1, 62, 43
3, 19440, Note_on_c, 1, 62, 64
3, 19560, Note_off_c, 1, 62, 52
3, 19560, Note_on_c, 1, 59, 64
3, 19680, Note_off_c, 1, 59, 22
3, 19680, Note_on_c, 1, 67, 64
3, 19800, Note_off_c, 1, 67, 55
3, 19800, Note_on_c, 1, 66, 64
3, 19920, Note_off_c, 1, 66, 72
3, 19920, Note_on_c, 1, 71, 64
3, 20040, Note_off_c, 1, 71, 77
3, 20040, Note_on_c, 1, 70, 64
3, 20160, Note_off_c, 1, 70, 58
3, 20160, Note_on_c, 1, 64, 64
3, 20280, Note_off_c, 1, 64, 12
3, 20280, Note_on_c, 1, 63, 64
3, 20400, Note_off_c, 1, 63, 44
3, 20400, Note_on_c, 1, 72, 64
3, 20520, Note_off_c, 1, 72, 53
3, 20520, Note_on_c, 1, 71, 64
3, 20640, Note_off_c, 1, 71, 57
3, 20640, Note_on_c, 1, 66, 64
3, 20760, Note_off_c, 1, 66, 53
3, 20760, Note_on_c, 1, 65, 64
3, 20880, Note_off_c, 1, 65, 21
3, 20880, Note_on_c, 1, 74, 64
3, 21000, Note_off_c, 1, 74, 50
3, 21000, Note_on_c, 1, 73, 64
3, 21120, Note_off_c, 1, 73, 73
3, 21120, Note_on_c, 1, 72, 64
3, 21240, Note_off_c, 1, 72, 83
3, 21240, Note_on_c, 1, 73, 64
3, 21360, Note_off_c, 1, 73, 65
3, 21360, Note_on_c, 1, 69, 64
3, 21480, Note_off_c, 1, 69, 70
3, 21600, Note_on_c, 1, 68, 64
3, 22080, Note_off_c, 1, 68, 77
3, 22080, Note_on_c, 1, 69, 64
3, 22680, Note_off_c, 1, 69, 73
3, 22680, Note_on_c, 1, 72, 64
3, 22800, Note_off_c, 1, 72, 41
3, 22800, Note_on_c, 1, 71, 64
3, 22920, Note_off_c, 1, 71, 68
3, 22920, Note_on_c, 1, 75, 64
3, 23040, Note_off_c, 1, 75, 47
3, 23040, Note_on_c, 1, 76, 64
3, 23640, Note_off_c, 1, 76, 43
3, 23640, Note_on_c, 1, 74, 64
3, 23760, Note_off_c, 1, 74, 50
3, 23760, Note_on_c, 1, 73, 64
3, 23880, Note_off_c, 1, 73, 30
3, 23880, Note_on_c, 1, 77, 64
3, 24000, Note_off_c, 1, 77, 52
3, 24000, Note_on_c, 1, 78, 64
3, 24240, Note_off_c, 1, 78, 34
3, 24360, Note_on_c, 1, 71, 64
3, 24420, Note_off_c, 1, 71, 69
3, 24420, Note_on_c, 1, 69, 64
3, 24480, Note_off_c, 1, 69, 47
3, 24480, Note_on_c, 1, 67, 64
3, 24540, Note_off_c, 1, 67, 30
3, 24540, Note_on_c, 1, 69, 64
3, 24600, Note_off_c, 1, 69, 53
3, 24600, Note_on_c, 1, 71, 64
3, 24840, Note_off_c, 1, 71, 63
3, 24840, Note_on_c, 1, 69, 64
3, 24900, Note_off_c, 1, 69, 52
3, 24900, Note_on_c, 1, 67, 64
3, 24960, Note_off_c, 1, 67, 28
3, 24960, Note_on_c, 1, 66, 64
3, 25020, Note_off_c, 1, 66, 45
3, 25020, Note_on_c, 1, 67, 64
3, 25080, Note_off_c, 1, 67, 46
3, 25080, Note_on_c, 1, 69, 64
3, 25320, Note_off_c, 1, 69, 62
3, 25320, Note_on_c, 1, 67, 64
3, 25380, Note_off_c, 1, 67, 50
3, 25380, Note_on_c, 1, 66, 64
3, 25440, Note_off_c, 1, 66, 66
3, 25440, Note_on_c, 1, 64, 64
3, 25500, Note_off_c, 1, 64, 43
3, 25500, Note_on_c, 1, 66, 64
3, 25560, Note_off_c, 1, 66, 73
3, 25560, Note_on_c, 1, 67, 64
3, 25800, Note_off_c, 1, 67, 43
3, 25800, Note_on_c, 1, 66, 64
3, 25860, Note_off_c, 1, 66, 61
3, 25860, Note_on_c, 1, 64, 64
3, 25920, Note_off_c, 1, 64, 47
3, 25920, Note_on_c, 1, 62, 64
3, 25980, Note_off_c, 1, 62, 43
3, 25980, Note_on_c, 1, 64, 64
3, 26040, Note_off_c, 1, 64, 50
3, 26040, Note_on_c, 1, 66, 64
3, 26280, Note_off_c, 1, 66, 63
3, 26280, Note_on_c, 1, 64, 64
3, 26340, Note_off_c, 1, 64, 48
3, 26340, Note_on_c, 1, 62, 64
3, 26400, Note_off_c, 1, 62, 54
3, 26400, Note_on_c, 1, 60, 64
3, 26460, Note_off_c, 1, 60, 52
3, 26460, Note_on_c, 1, 62, 64
3, 26520, Note_off_c, 1, 62, 46
3, 26520, Note_on_c, 1, 64, 64
3, 26760, Note_off_c, 1, 64, 46
3, 26760, Note_on_c, 1, 62, 64
3, 26820, Note_off_c, 1, 62, 51
3, 26820, Note_on_c, 1, 60, 64
3, 26880, Note_off_c, 1, 60, 55
3, 26880, Note_on_c, 1, 59, 64
3, 26940, Note_off_c, 1, 59, 47
3, 26940, Note_on_c, 1, 60, 64
3, 27000, Note_off_c, 1, 60, 61
3, 27000, Note_on_c, 1, 62, 64
3, 27240, Note_off_c, 1, 62, 52
3, 27240, Note_on_c, 1, 60, 64
3, 27300, Note_off_c, 1, 60, 49
3, 27300, Note_on_c, 1, 59, 64
3, 27360, Note_off_c, 1, 59, 52
3, 27360, Note_on_c, 1, 57, 64
3, 27420, Note_off_c, 1, 57, 38
3, 27420, Note_on_c, 1, 59, 64
3, 27480, Note_off_c, 1, 59, 53
3, 27480, Note_on_c, 1, 60, 64
3, 27720, Note_off_c, 1, 60, 47
3, 27720, Note_on_c, 1, 59, 64
3, 27780, Note_off_c, 1, 59, 36
3, 27780, Note_on_c, 1, 57, 64
3, 27840, Note_off_c, 1, 57, 35
3, 27840, Note_on_c, 1, 55, 64
3, 28080, Note_off_c, 1, 55, 53
3, 28200, Note_on_c, 1, 64, 64
3, 28260, Note_off_c, 1, 64, 44
3, 28260, Note_on_c, 1, 63, 64
3, 28320, Note_off_c, 1, 63, 49
3, 28320, Note_on_c, 1, 63, 64
3, 28380, Note_off_c, 1, 63, 59
3, 28380, Note_on_c, 1, 64, 64
3, 28440, Note_off_c, 1, 64, 47
3, 28440, Note_on_c, 1, 66, 64
3, 28500, Note_off_c, 1, 66, 73
3, 28500, Note_on_c, 1, 67, 64
3, 28560, Note_off_c, 1, 67, 45
3, 28560, Note_on_c, 1, 69, 64
3, 28620, Note_off_c, 1, 69, 65
3, 28620, Note_on_c, 1, 67, 64
3, 28680, Note_off_c, 1, 67, 49
3, 28680, Note_on_c, 1, 69, 64
3, 28740, Note_off_c, 1, 69, 55
3, 28740, Note_on_c, 1, 71, 64
3, 28800, Note_off_c, 1, 71, 58
3, 28800, Note_on_c, 1, 72, 64
3, 28860, Note_off_c, 1, 72, 59
3, 28860, Note_on_c, 1, 69, 64
3, 28920, Note_off_c, 1, 69, 58
3, 28920, Note_on_c, 1, 71, 64
3, 29100, Note_off_c, 1, 71, 74
3, 29100, Note_on_c, 1, 69, 64
3, 29160, Note_off_c, 1, 69, 79
3, 29160, Note_on_c, 1, 68, 64
3, 29220, Note_off_c, 1, 68, 63
3, 29220, Note_on_c, 1, 66, 64
3, 29280, Note_off_c, 1, 66, 49
3, 29280, Note_on_c, 1, 64, 64
3, 29340, Note_off_c, 1, 64, 37
3, 29340, Note_on_c, 1, 67, 64
3, 29400, Note_off_c, 1, 67, 40
3, 29400, Note_on_c, 1, 66, 64
3, 29460, Note_off_c, 1, 66, 53
3, 29460, Note_on_c, 1, 70, 64
3, 29520, Note_off_c, 1, 70, 53
3, 29520, Note_on_c, 1, 71, 64
3, 29880, Note_off_c, 1, 71, 72
3, 29880, Note_on_c, 1, 71, 64
3, 29940, Note_off_c, 1, 71, 66
3, 29940, Note_on_c, 1, 70, 64
3, 30000, Note_off_c, 1, 70, 65
3, 30060, Note_on_c, 1, 69, 64
3, 30120, Note_off_c, 1, 69, 73
3, 30120, Note_on_c, 1, 67, 64
3, 30180, Note_off_c, 1, 67, 53
3, 30180, Note_on_c, 1, 66, 64
3, 30240, Note_off_c, 1, 66, 52
3, 30240, Note_on_c, 1, 64, 64
3, 30720, Note_off_c, 1, 64, 50
3, 30780, Note_on_c, 1, 66, 64
3, 30840, Note_off_c, 1, 66, 63
3, 30840, Note_on_c, 1, 68, 64
3, 30900, Note_off_c, 1, 68, 73
3, 30900, Note_on_c, 1, 70, 64
3, 30960, Note_off_c, 1, 70, 73
3, 30960, Note_on_c, 1, 71, 64
3, 31020, Note_off_c, 1, 71, 72
3, 31020, Note_on_c, 1, 73, 64
3, 31080, Note_off_c, 1, 73, 63
3, 31080, Note_on_c, 1, 66, 64
3, 31140, Note_off_c, 1, 66, 66
3, 31140, Note_on_c, 1, 65, 64
3, 31200, Note_off_c, 1, 65, 16
3, 31200, Note_on_c, 1, 69, 64
3, 31680, Note_off_c, 1, 69, 69
3, 31680, Note_on_c, 1, 68, 64
3, 31800, Note_off_c, 1, 68, 57
3, 31800, Note_on_c, 1, 73, 64
3, 31920, Note_off_c, 1, 73, 53
3, 31920, Note_on_c, 1, 69, 64
3, 32040, Note_off_c, 1, 69, 65
3, 32040, Note_on_c, 1, 66, 64
3, 32160, Note_off_c, 1, 66, 42
3, 32160, Note_on_c, 1, 74, 64
3, 32280, Note_off_c, 1, 74, 58
3, 32280, Note_on_c, 1, 73, 64
3, 32400, Note_off_c, 1, 73, 55
3, 32400, Note_on_c, 1, 78, 64
3, 32520, Note_off_c, 1, 78, 51
3, 32520, Note_on_c, 1, 77, 64
3, 32640, Note_off_c, 1, 77, 68
3, 32640, Note_on_c, 1, 71, 64
3, 32760, Note_off_c, 1, 71, 49
3, 32760, Note_on_c, 1, 70, 64
3, 32880, Note_off_c, 1, 70, 51
3, 33000, Note_on_c, 1, 71, 64
3, 33180, Note_off_c, 1, 71, 61
3, 33180, Note_on_c, 1, 69, 64
3, 33240, Note_off_c, 1, 69, 46
3, 33240, Note_on_c, 1, 71, 64
3, 33300, Note_off_c, 1, 71, 52
3, 33300, Note_on_c, 1, 74, 64
3, 33360, Note_off_c, 1, 74, 63
3, 33360, Note_on_c, 1, 73, 64
3, 33720, Note_off_c, 1, 73, 50
3, 33720, Note_on_c, 1, 71, 64
3, 33840, Note_off_c, 1, 71, 50
3, 33840, Note_on_c, 1, 76, 64
3, 33960, Note_off_c, 1, 76, 30
3, 33960, Note_on_c, 1, 70, 64
3, 34080, Note_off_c, 1, 70, 52
3, 34080, Note_on_c, 1, 71, 64
3, 34620, Note_off_c, 1, 71, 73
3, 34620, Note_on_c, 1, 70, 64
3, 34680, Note_off_c, 1, 70, 52
3, 34680, Note_on_c, 1, 71, 64
3, 34740, Note_off_c, 1, 71, 48
3, 34740, Note_on_c, 1, 73, 64
3, 34800, Note_off_c, 1, 73, 24
3, 34800, Note_on_c, 1, 74, 64
3, 34860, Note_off_c, 1, 74, 63
3, 34860, Note_on_c, 1, 76, 64
3, 34920, Note_off_c, 1, 76, 46
3, 34920, Note_on_c, 1, 69, 64
3, 34980, Note_off_c, 1, 69, 34
3, 34980, Note_on_c, 1, 68, 64
3, 35040, Note_off_c, 1, 68, 61
3, 35040, Note_on_c, 1, 69, 64
3, 35640, Note_off_c, 1, 69, 41
3, 35640, Note_on_c, 1, 67, 64
3, 35760, Note_off_c, 1, 67, 13
3, 35760, Note_on_c, 1, 66, 64
3, 36000, Note_off_c, 1, 66, 70
3, 36540, Note_on_c, 1, 78, 64
3, 36600, Note_off_c, 1, 78, 53
3, 36600, Note_on_c, 1, 81, 64
3, 36660, Note_off_c, 1, 81, 59
3, 36660, Note_on_c, 1, 79, 64
3, 36720, Note_off_c, 1, 79, 63
3, 36720, Note_on_c, 1, 78, 64
3, 36780, Note_off_c, 1, 78, 45
3, 36780, Note_on_c, 1, 76, 64
3, 36840, Note_off_c, 1, 76, 57
3, 36840, Note_on_c, 1, 75, 64
3, 36900, Note_off_c, 1, 75, 45
3, 36900, Note_on_c, 1, 73, 64
3, 36960, Note_off_c, 1, 73, 53
3, 36960, Note_on_c, 1, 71, 64
3, 37020, Note_off_c, 1, 71, 54
3, 37020, Note_on_c, 1, 74, 64
3, 37080, Note_off_c, 1, 74, 53
3, 37080, Note_on_c, 1, 73, 64
3, 37140, Note_off_c, 1, 73, 55
3, 37140, Note_on_c, 1, 71, 64
3, 37200, Note_off_c, 1, 71, 65
3, 37200, Note_on_c, 1, 69, 64
3, 37260, Note_off_c, 1, 69, 58
3, 37260, Note_on_c, 1, 68, 64
3, 37320, Note_off_c, 1, 68, 62
3, 37320, Note_on_c, 1, 69, 64
3, 37380, Note_off_c, 1, 69, 73
3, 37380, Note_on_c, 1, 66, 64
3, 37440, Note_off_c, 1, 66, 58
3, 37440, Note_on_c, 1, 68, 64
3, 37680, Note_off_c, 1, 68, 59
3, 37740, Note_on_c, 1, 76, 64
3, 37800, Note_off_c, 1, 76, 52
3, 37800, Note_on_c, 1, 74, 64
3, 37860, Note_off_c, 1, 74, 68
3, 37860, Note_on_c, 1, 73, 64
3, 37920, Note_off_c, 1, 73, 59
3, 37920, Note_on_c, 1, 71, 64
3, 37980, Note_off_c, 1, 71, 68
3, 37980, Note_on_c, 1, 69, 64
3, 38040, Note_off_c, 1, 69, 43
3, 38040, Note_on_c, 1, 68, 64
3, 38100, Note_off_c, 1, 68, 68
3, 38100, Note_on_c, 1, 69, 64
3, 38160, Note_off_c, 1, 69, 51
3, 38160, Note_on_c, 1, 71, 64
3, 38520, Note_off_c, 1, 71, 73
3, 38520, Note_on_c, 1, 70, 64
3, 38640, Note_off_c, 1, 70, 66
3, 38760, Note_on_c, 1, 71, 64
3, 38940, Note_off_c, 1, 71, 72
3, 38940, Note_on_c, 1, 70, 64
3, 39000, Note_off_c, 1, 70, 73
3, 39000, Note_on_c, 1, 71, 64
3, 39060, Note_off_c, 1, 71, 74
3, 39060, Note_on_c, 1, 74, 64
3, 39120, Note_off_c, 1, 74, 72
3, 39120, Note_on_c, 1, 73, 64
3, 39360, Note_off_c, 1, 73, 63
3, 39480, Note_on_c, 1, 71, 64
3, 39600, Note_off_c, 1, 71, 68
3, 39600, Note_on_c, 1, 67, 64
3, 39720, Note_off_c, 1, 67, 52
3, 39720, Note_on_c, 1, 64, 64
3, 39840, Note_off_c, 1, 64, 30
3, 39840, Note_on_c, 1, 72, 64
3, 39960, Note_off_c, 1, 72, 46
3, 39960, Note_on_c, 1, 71, 64
3, 40080, Note_off_c, 1, 71, 70
3, 40080, Note_on_c, 1, 76, 64
3, 40200, Note_off_c, 1, 76, 38
3, 40200, Note_on_c, 1, 75, 64
3, 40320, Note_off_c, 1, 75, 52
3, 40320, Note_on_c, 1, 69, 64
3, 40440, Note_off_c, 1, 69, 37
3, 40440, Note_on_c, 1, 68, 64
3, 40560, Note_off_c, 1, 68, 69
3, 40560, Note_on_c, 1, 69, 64
3, 40920, Note_off_c, 1, 69, 69
3, 40920, Note_on_c, 1, 68, 64
3, 41040, Note_off_c, 1, 68, 55
3, 41040, Note_on_c, 1, 73, 64
3, 41160, Note_off_c, 1, 73, 69
3, 41160, Note_on_c, 1, 71, 64
3, 41280, Note_off_c, 1, 71, 80
3, 41280, Note_on_c, 1, 76, 64
3, 41400, Note_off_c, 1, 76, 34
3, 41640, Note_on_c, 1, 66, 64
3, 41760, Note_off_c, 1, 66, 51
3, 41760, Note_on_c, 1, 62, 64
3, 42000, Note_off_c, 1, 62, 42
3, 42120, Note_on_c, 1, 67, 64
3, 42240, Note_off_c, 1, 67, 49
3, 42240, Note_on_c, 1, 69, 64
3, 42360, Note_off_c, 1, 69, 61
3, 42360, Note_on_c, 1, 74, 64
3, 42480, Note_off_c, 1, 74, 57
3, 42480, Note_on_c, 1, 72, 64
3, 42720, Note_off_c, 1, 72, 70
3, 42720, Note_on_c, 1, 71, 64
3, 42960, Note_off_c, 1, 71, 70
3, 42960, Note_on_c, 1, 69, 64
3, 43320, Note_off_c, 1, 69, 62
3, 43320, Note_on_c, 1, 69, 64
3, 43380, Note_off_c, 1, 69, 53
3, 43380, Note_on_c, 1, 68, 64
3, 43440, Note_off_c, 1, 68, 65
3, 43500, Note_on_c, 1, 67, 64
3, 43560, Note_off_c, 1, 67, 61
3, 43560, Note_on_c, 1, 66, 64
3, 43620, Note_off_c, 1, 66, 68
3, 43620, Note_on_c, 1, 64, 64
3, 43680, Note_off_c, 1, 64, 48
3, 43680, Note_on_c, 1, 62, 64
3, 43740, Note_off_c, 1, 62, 43
3, 43740, Note_on_c, 1, 61, 64
3, 43800, Note_off_c, 1, 61, 51
3, 43800, Note_on_c, 1, 59, 64
3, 43860, Note_off_c, 1, 59, 50
3, 43860, Note_on_c, 1, 61, 64
3, 43920, Note_off_c, 1, 61, 59
3, 43920, Note_on_c, 1, 62, 64
3, 44160, Note_off_c, 1, 62, 54
3, 44160, Note_on_c, 1, 61, 64
3, 44400, Note_off_c, 1, 61, 69
3, 44400, Note_on_c, 1, 59, 64
3, 44640, Note_off_c, 1, 59, 49
3, 44640, Note_on_c, 1, 57, 64
3, 45120, Note_off_c, 1, 57, 57
3, 45180, Note_on_c, 1, 79, 64
3, 45240, Note_off_c, 1, 79, 53
3, 45240, Note_on_c, 1, 78, 64
3, 45300, Note_off_c, 1, 78, 52
3, 45300, Note_on_c, 1, 76, 64
3, 45360, Note_off_c, 1, 76, 43
3, 45360, Note_on_c, 1, 74, 64
3, 45420, Note_off_c, 1, 74, 52
3, 45420, Note_on_c, 1, 72, 64
3, 45480, Note_off_c, 1, 72, 66
3, 45480, Note_on_c, 1, 71, 64
3, 45540, Note_off_c, 1, 71, 53
3, 45540, Note_on_c, 1, 72, 64
3, 45600, Note_off_c, 1, 72, 70
3, 45600, Note_on_c, 1, 74, 64
3, 45660, Note_off_c, 1, 74, 57
3, 45660, Note_on_c, 1, 76, 64
3, 45720, Note_off_c, 1, 76, 50
3, 45720, Note_on_c, 1, 74, 64
3, 45780, Note_off_c, 1, 74, 58
3, 45780, Note_on_c, 1, 72, 64
3, 45840, Note_off_c, 1, 72, 66
3, 45840, Note_on_c, 1, 71, 64
3, 45900, Note_off_c, 1, 71, 49
3, 45900, Note_on_c, 1, 73, 64
3, 45960, Note_off_c, 1, 73, 66
3, 45960, Note_on_c, 1, 74, 64
3, 46020, Note_off_c, 1, 74, 58
3, 46020, Note_on_c, 1, 71, 64
3, 46080, Note_off_c, 1, 71, 69
3, 46080, Note_on_c, 1, 67, 64
3, 46140, Note_off_c, 1, 67, 37
3, 46140, Note_on_c, 1, 70, 64
3, 46200, Note_off_c, 1, 70, 66
3, 46200, Note_on_c, 1, 69, 64
3, 46260, Note_off_c, 1, 69, 65
3, 46260, Note_on_c, 1, 67, 64
3, 46320, Note_off_c, 1, 67, 41
3, 46320, Note_on_c, 1, 65, 64
3, 46380, Note_off_c, 1, 65, 7
3, 46380, Note_on_c, 1, 64, 64
3, 46440, Note_off_c, 1, 64, 37
3, 46440, Note_on_c, 1, 65, 64
3, 46500, Note_off_c, 1, 65, 9
3, 46500, Note_on_c, 1, 62, 64
3, 46560, Note_off_c, 1, 62, 31
3, 46560, Note_on_c, 1, 64, 64
3, 46800, Note_off_c, 1, 64, 45
3, 46860, Note_on_c, 1, 72, 64
3, 46920, Note_off_c, 1, 72, 73
3, 46920, Note_on_c, 1, 71, 64
3, 46980, Note_off_c, 1, 71, 69
3, 46980, Note_on_c, 1, 69, 64
3, 47040, Note_off_c, 1, 69, 58
3, 47040, Note_on_c, 1, 67, 64
3, 47100, Note_off_c, 1, 67, 49
3, 47100, Note_on_c, 1, 66, 64
3, 47160, Note_off_c, 1, 66, 68
3, 47160, Note_on_c, 1, 64, 64
3, 47220, Note_off_c, 1, 64, 45
3, 47220, Note_on_c, 1, 62, 64
3, 47280, Note_off_c, 1, 62, 16
3, 47280, Note_on_c, 1, 61, 64
3, 47340, Note_off_c, 1, 61, 62
3, 47340, Note_on_c, 1, 59, 64
3, 47400, Note_off_c, 1, 59, 45
3, 47400, Note_on_c, 1, 57, 64
3, 47460, Note_off_c, 1, 57, 34
3, 47460, Note_on_c, 1, 55, 64
3, 47520, Note_off_c, 1, 55, 69
3, 47520, Note_on_c, 1, 54, 64
3, 47580, Note_off_c, 1, 54, 52
3, 47580, Note_on_c, 1, 57, 64
3, 47640, Note_off_c, 1, 57, 54
3, 47640, Note_on_c, 1, 59, 64
3, 47700, Note_off_c, 1, 59, 41
3, 47700, Note_on_c, 1, 61, 64
3, 47760, Note_off_c, 1, 61, 54
3, 47760, Note_on_c, 1, 62, 64
3, 47820, Note_off_c, 1, 62, 48
3, 47820, Note_on_c, 1, 64, 64
3, 47880, Note_off_c, 1, 64, 53
3, 47880, Note_on_c, 1, 57, 64
3, 47940, Note_off_c, 1, 57, 28
3, 47940, Note_on_c, 1, 56, 64
3, 48000, Note_off_c, 1, 56, 52
3, 48000, Note_on_c, 1, 57, 64
3, 48480, Note_off_c, 1, 57, 36
3, 48480, Note_on_c, 1, 67, 64
3, 49080, Note_off_c, 1, 67, 52
3, 49080, Note_on_c, 1, 66, 64
3, 49200, Note_off_c, 1, 66, 68
3, 49200, Note_on_c, 1, 65, 64
3, 49320, Note_off_c, 1, 65, 9
3, 49320, Note_on_c, 1, 68, 64
3, 49500, Note_off_c, 1, 68, 68
3, 49500, Note_on_c, 1, 65, 64
3, 49560, Note_off_c, 1, 65, 63
3, 49560, Note_on_c, 1, 66, 64
3, 49620, Note_off_c, 1, 66, 76
3, 49620, Note_on_c, 1, 68, 64
3, 49680, Note_off_c, 1, 68, 82
3, 49680, Note_on_c, 1, 69, 64
3, 49740, Note_off_c, 1, 69, 68
3, 49740, Note_on_c, 1, 71, 64
3, 49800, Note_off_c, 1, 71, 66
3, 49800, Note_on_c, 1, 62, 64
3, 49860, Note_off_c, 1, 62, 13
3, 49860, Note_on_c, 1, 61, 64
3, 49920, Note_off_c, 1, 61, 52
3, 49920, Note_on_c, 1, 63, 64
3, 50160, Note_off_c, 1, 63, 44
3, 50160, Note_on_c, 1, 65, 64
3, 50280, Note_off_c, 1, 65, 52
3, 50280, Note_on_c, 1, 68, 64
3, 50460, Note_off_c, 1, 68, 76
3, 50460, Note_on_c, 1, 68, 64
3, 50520, Note_off_c, 1, 68, 70
3, 50520, Note_on_c, 1, 66, 64
3, 50580, Note_off_c, 1, 66, 69
3, 50580, Note_on_c, 1, 65, 64
3, 50640, Note_off_c, 1, 65, 70
3, 50640, Note_on_c, 1, 66, 64
3, 50700, Note_off_c, 1, 66, 69
3, 50700, Note_on_c, 1, 68, 64
3, 50760, Note_off_c, 1, 68, 63
3, 50760, Note_on_c, 1, 69, 64
3, 50820, Note_off_c, 1, 69, 72
3, 50820, Note_on_c, 1, 73, 64
3, 50880, Note_off_c, 1, 73, 76
3, 50880, Note_on_c, 1, 71, 64
3, 50940, Note_off_c, 1, 71, 77
3, 50940, Note_on_c, 1, 68, 64
3, 51000, Note_off_c, 1, 68, 63
3, 51000, Note_on_c, 1, 69, 64
3, 51060, Note_off_c, 1, 69, 54
3, 51060, Note_on_c, 1, 73, 64
3, 51120, Note_off_c, 1, 73, 40
3, 51120, Note_on_c, 1, 71, 64
3, 51180, Note_off_c, 1, 71, 62
3, 51180, Note_on_c, 1, 74, 64
3, 51240, Note_off_c, 1, 74, 66
3, 51240, Note_on_c, 1, 73, 64
3, 51300, Note_off_c, 1, 73, 65
3, 51300, Note_on_c, 1, 71, 64
3, 51360, Note_off_c, 1, 71, 65
3, 51360, Note_on_c, 1, 73, 64
3, 51420, Note_off_c, 1, 73, 66
3, 51420, Note_on_c, 1, 74, 64
3, 51480, Note_off_c, 1, 74, 55
3, 51480, Note_on_c, 1, 76, 64
3, 51540, Note_off_c, 1, 76, 27
3, 51540, Note_on_c, 1, 74, 64
3, 51600, Note_off_c, 1, 74, 57
3, 51600, Note_on_c, 1, 73, 64
3, 51660, Note_off_c, 1, 73, 61
3, 51660, Note_on_c, 1, 71, 64
3, 51720, Note_off_c, 1, 71, 80
3, 51720, Note_on_c, 1, 70, 64
3, 51780, Note_off_c, 1, 70, 63
3, 51780, Note_on_c, 1, 68, 64
3, 51840, Note_off_c, 1, 68, 59
3, 51840, Note_on_c, 1, 66, 64
3, 51900, Note_off_c, 1, 66, 63
3, 51900, Note_on_c, 1, 69, 64
3, 51960, Note_off_c, 1, 69, 68
3, 51960, Note_on_c, 1, 68, 64
3, 52020, Note_off_c, 1, 68, 70
3, 52020, Note_on_c, 1, 72, 64
3, 52080, Note_off_c, 1, 72, 74
3, 52140, Note_on_c, 1, 75, 64
3, 52200, Note_off_c, 1, 75, 48
3, 52200, Note_on_c, 1, 76, 64
3, 52260, Note_off_c, 1, 76, 63
3, 52260, Note_on_c, 1, 78, 64
3, 52320, Note_off_c, 1, 78, 42
3, 52320, Note_on_c, 1, 76, 64
3, 52380, Note_off_c, 1, 76, 50
3, 52380, Note_on_c, 1, 75, 64
3, 52440, Note_off_c, 1, 75, 47
3, 52500, Note_on_c, 1, 69, 64
3, 52560, Note_off_c, 1, 69, 62
3, 52560, Note_on_c, 1, 68, 64
3, 52620, Note_off_c, 1, 68, 58
3, 52620, Note_on_c, 1, 71, 64
3, 52680, Note_off_c, 1, 71, 74
3, 52680, Note_on_c, 1, 69, 64
3, 52740, Note_off_c, 1, 69, 69
3, 52740, Note_on_c, 1, 68, 64
3, 52800, Note_off_c, 1, 68, 62
3, 52800, Note_on_c, 1, 66, 64
3, 53280, Note_off_c, 1, 66, 68
3, 53280, Note_on_c, 1, 68, 64
3, 53820, Note_off_c, 1, 68, 70
3, 53820, Note_on_c, 1, 61, 64
3, 53880, Note_off_c, 1, 61, 62
3, 53880, Note_on_c, 1, 63, 64
3, 53940, Note_off_c, 1, 63, 46
3, 53940, Note_on_c, 1, 64, 64
3, 54000, Note_off_c, 1, 64, 49
3, 54000, Note_on_c, 1, 66, 64
3, 54060, Note_off_c, 1, 66, 62
3, 54060, Note_on_c, 1, 68, 64
3, 54120, Note_off_c, 1, 68, 62
3, 54120, Note_on_c, 1, 69, 64
3, 54180, Note_off_c, 1, 69, 58
3, 54180, Note_on_c, 1, 71, 64
3, 54240, Note_off_c, 1, 71, 9
3, 54240, Note_on_c, 1, 69, 64
3, 54300, Note_off_c, 1, 69, 44
3, 54300, Note_on_c, 1, 66, 64
3, 54360, Note_off_c, 1, 66, 49
3, 54360, Note_on_c, 1, 68, 64
3, 54420, Note_off_c, 1, 68, 48
3, 54420, Note_on_c, 1, 69, 64
3, 54480, Note_off_c, 1, 69, 73
3, 54480, Note_on_c, 1, 71, 64
3, 54540, Note_off_c, 1, 71, 50
3, 54540, Note_on_c, 1, 73, 64
3, 54600, Note_off_c, 1, 73, 45
3, 54600, Note_on_c, 1, 75, 64
3, 54660, Note_off_c, 1, 75, 40
3, 54660, Note_on_c, 1, 76, 64
3, 54720, Note_off_c, 1, 76, 62
3, 54720, Note_on_c, 1, 78, 64
3, 54780, Note_off_c, 1, 78, 49
3, 54780, Note_on_c, 1, 75, 64
3, 54840, Note_off_c, 1, 75, 48
3, 54840, Note_on_c, 1, 76, 64
3, 54900, Note_off_c, 1, 76, 43
3, 54900, Note_on_c, 1, 80, 64
3, 54960, Note_off_c, 1, 80, 65
3, 55020, Note_on_c, 1, 73, 64
3, 55080, Note_off_c, 1, 73, 59
3, 55080, Note_on_c, 1, 71, 64
3, 55140, Note_off_c, 1, 71, 57
3, 55140, Note_on_c, 1, 69, 64
3, 55200, Note_off_c, 1, 69, 46
3, 55200, Note_on_c, 1, 71, 64
3, 55260, Note_off_c, 1, 71, 59
3, 55260, Note_on_c, 1, 73, 64
3, 55320, Note_off_c, 1, 73, 43
3, 55320, Note_on_c, 1, 74, 64
3, 55380, Note_off_c, 1, 74, 61
3, 55380, Note_on_c, 1, 73, 64
3, 55440, Note_off_c, 1, 73, 55
3, 55440, Note_on_c, 1, 71, 64
3, 55500, Note_off_c, 1, 71, 54
3, 55500, Note_on_c, 1, 69, 64
3, 55560, Note_off_c, 1, 69, 49
3, 55560, Note_on_c, 1, 68, 64
3, 55620, Note_off_c, 1, 68, 65
3, 55620, Note_on_c, 1, 66, 64
3, 55680, Note_off_c, 1, 66, 42
3, 55680, Note_on_c, 1, 64, 64
3, 55740, Note_off_c, 1, 64, 41
3, 55740, Note_on_c, 1, 67, 64
3, 55800, Note_off_c, 1, 67, 49
3, 55800, Note_on_c, 1, 66, 64
3, 55860, Note_off_c, 1, 66, 61
3, 55860, Note_on_c, 1, 64, 64
3, 55920, Note_off_c, 1, 64, 49
3, 55920, Note_on_c, 1, 62, 64
3, 55980, Note_off_c, 1, 62, 26
3, 55980, Note_on_c, 1, 61, 64
3, 56040, Note_off_c, 1, 61, 47
3, 56040, Note_on_c, 1, 62, 64
3, 56100, Note_off_c, 1, 62, 43
3, 56100, Note_on_c, 1, 59, 64
3, 56160, Note_off_c, 1, 59, 37
3, 56160, Note_on_c, 1, 61, 64
3, 56400, Note_off_c, 1, 61, 59
3, 56460, Note_on_c, 1, 69, 64
3, 56520, Note_off_c, 1, 69, 62
3, 56520, Note_on_c, 1, 67, 64
3, 56580, Note_off_c, 1, 67, 51
3, 56580, Note_on_c, 1, 66, 64
3, 56640, Note_off_c, 1, 66, 52
3, 56640, Note_on_c, 1, 64, 64
3, 56880, Note_off_c, 1, 64, 47
3, 57000, Note_on_c, 1, 73, 64
3, 57180, Note_off_c, 1, 73, 58
3, 57180, Note_on_c, 1, 73, 64
3, 57240, Note_off_c, 1, 73, 62
3, 57240, Note_on_c, 1, 71, 64
3, 57300, Note_off_c, 1, 71, 77
3, 57300, Note_on_c, 1, 70, 64
3, 57360, Note_off_c, 1, 70, 72
3, 57360, Note_on_c, 1, 71, 64
3, 57600, Note_off_c, 1, 71, 70
3, 57600, Note_on_c, 1, 73, 64
3, 57720, Note_off_c, 1, 73, 63
3, 57720, Note_on_c, 1, 74, 64
3, 57840, Note_off_c, 1, 74, 72
3, 57900, Note_on_c, 1, 76, 64
3, 57960, Note_off_c, 1, 76, 41
3, 57960, Note_on_c, 1, 74, 64
3, 58020, Note_off_c, 1, 74, 57
3, 58020, Note_on_c, 1, 73, 64
3, 58080, Note_off_c, 1, 73, 48
3, 58080, Note_on_c, 1, 71, 64
3, 58140, Note_off_c, 1, 71, 74
3, 58140, Note_on_c, 1, 70, 64
3, 58200, Note_off_c, 1, 70, 53
3, 58200, Note_on_c, 1, 71, 64
3, 58320, Note_off_c, 1, 71, 59
3, 58380, Note_on_c, 1, 78, 64
3, 58440, Note_off_c, 1, 78, 43
3, 58440, Note_on_c, 1, 76, 64
3, 58500, Note_off_c, 1, 76, 49
3, 58500, Note_on_c, 1, 75, 64
3, 58560, Note_off_c, 1, 75, 48
3, 58560, Note_on_c, 1, 73, 64
3, 58620, Note_off_c, 1, 73, 68
3, 58620, Note_on_c, 1, 72, 64
3, 58680, Note_off_c, 1, 72, 51
3, 58680, Note_on_c, 1, 73, 64
3, 58800, Note_off_c, 1, 73, 49
3, 58860, Note_on_c, 1, 80, 64
3, 58980, Note_off_c, 1, 80, 66
3, 58980, Note_on_c, 1, 78, 64
3, 59100, Note_off_c, 1, 78, 58
3, 59100, Note_on_c, 1, 78, 64
3, 59160, Note_off_c, 1, 78, 69
3, 59160, Note_on_c, 1, 77, 64
3, 59220, Note_off_c, 1, 77, 68
3, 59220, Note_on_c, 1, 80, 64
3, 59280, Note_off_c, 1, 80, 61
3, 59280, Note_on_c, 1, 73, 64
3, 59460, Note_off_c, 1, 73, 52
3, 59460, Note_on_c, 1, 74, 64
3, 59520, Note_off_c, 1, 74, 66
3, 59520, Note_on_c, 1, 71, 64
3, 60000, Note_off_c, 1, 71, 66
3, 60000, Note_on_c, 1, 73, 64
3, 60540, Note_off_c, 1, 73, 68
3, 60540, Note_on_c, 1, 66, 64
3, 60600, Note_off_c, 1, 66, 40
3, 60600, Note_on_c, 1, 67, 64
3, 60660, Note_off_c, 1, 67, 34
3, 60660, Note_on_c, 1, 69, 64
3, 60720, Note_off_c, 1, 69, 68
3, 60720, Note_on_c, 1, 71, 64
3, 60780, Note_off_c, 1, 71, 69
3, 60780, Note_on_c, 1, 72, 64
3, 60840, Note_off_c, 1, 72, 58
3, 60840, Note_on_c, 1, 64, 64
3, 60900, Note_off_c, 1, 64, 16
3, 60900, Note_on_c, 1, 63, 64
3, 60960, Note_off_c, 1, 63, 41
3, 60960, Note_on_c, 1, 64, 64
3, 61490, Note_off_c, 1, 64, 30
3, 61503, Note_on_c, 1, 64, 64
3, 61563, Note_off_c, 1, 64, 43
3, 61563, Note_on_c, 1, 62, 64
3, 61623, Note_off_c, 1, 62, 11
3, 61623, Note_on_c, 1, 61, 64
3, 61683, Note_off_c, 1, 61, 48
3, 61683, Note_on_c, 1, 62, 64
3, 61803, Note_off_c, 1, 62, 37
3, 62043, Note_on_c, 1, 76, 64
3, 62103, Note_off_c, 1, 76, 49
3, 62103, Note_on_c, 1, 74, 64
3, 62163, Note_off_c, 1, 74, 70
3, 62163, Note_on_c, 1, 73, 64
3, 62223, Note_off_c, 1, 73, 66
3, 62223, Note_on_c, 1, 74, 64
3, 62283, Note_off_c, 1, 74, 65
3, 62283, Note_on_c, 1, 76, 64
3, 62523, Note_off_c, 1, 76, 52
3, 62523, Note_on_c, 1, 74, 64
3, 62583, Note_off_c, 1, 74, 59
3, 62583, Note_on_c, 1, 73, 64
3, 62643, Note_off_c, 1, 73, 59
3, 62643, Note_on_c, 1, 71, 64
3, 62703, Note_off_c, 1, 71, 57
3, 62703, Note_on_c, 1, 73, 64
3, 62763, Note_off_c, 1, 73, 70
3, 62763, Note_on_c, 1, 74, 64
3, 63003, Note_off_c, 1, 74, 69
3, 63003, Note_on_c, 1, 73, 64
3, 63063, Note_off_c, 1, 73, 70
3, 63063, Note_on_c, 1, 71, 64
3, 63123, Note_off_c, 1, 71, 79
3, 63123, Note_on_c, 1, 70, 64
3, 63183, Note_off_c, 1, 70, 69
3, 63183, Note_on_c, 1, 71, 64
3, 63243, Note_off_c, 1, 71, 73
3, 63243, Note_on_c, 1, 73, 64
3, 63603, Note_off_c, 1, 73, 59
3, 63603, Note_on_c, 1, 71, 64
3, 63723, Note_off_c, 1, 71, 74
3, 63723, Note_on_c, 1, 69, 64
3, 63843, Note_off_c, 1, 69, 68
3, 63843, Note_on_c, 1, 67, 64
3, 63903, Note_off_c, 1, 67, 47
3, 63903, Note_on_c, 1, 69, 64
3, 63963, Note_off_c, 1, 69, 61
3, 63963, Note_on_c, 1, 71, 64
3, 64203, Note_off_c, 1, 71, 69
3, 64203, Note_on_c, 1, 69, 64
3, 64263, Note_off_c, 1, 69, 70
3, 64263, Note_on_c, 1, 67, 64
3, 64323, Note_off_c, 1, 67, 63
3, 64323, Note_on_c, 1, 66, 64
3, 64383, Note_off_c, 1, 66, 74
3, 64383, Note_on_c, 1, 67, 64
3, 64443, Note_off_c, 1, 67, 52
3, 64443, Note_on_c, 1, 69, 64
3, 64683, Note_off_c, 1, 69, 68
3, 64683, Note_on_c, 1, 67, 64
3, 64743, Note_off_c, 1, 67, 55
3, 64743, Note_on_c, 1, 66, 64
3, 64803, Note_off_c, 1, 66, 53
3, 64803, Note_on_c, 1, 64, 64
3, 64863, Note_off_c, 1, 64, 49
3, 64863, Note_on_c, 1, 66, 64
3, 64923, Note_off_c, 1, 66, 68
3, 64923, Note_on_c, 1, 67, 64
3, 65163, Note_off_c, 1, 67, 55
3, 65163, Note_on_c, 1, 66, 64
3, 65223, Note_off_c, 1, 66, 74
3, 65223, Note_on_c, 1, 64, 64
3, 65283, Note_off_c, 1, 64, 57
3, 65283, Note_on_c, 1, 62, 64
3, 65523, Note_off_c, 1, 62, 30
3, 65523, Note_on_c, 1, 71, 64
3, 65883, Note_off_c, 1, 71, 69
3, 65883, Note_on_c, 1, 70, 64
3, 66003, Note_off_c, 1, 70, 65
3, 66003, Note_on_c, 1, 74, 64
3, 66123, Note_off_c, 1, 74, 68
3, 66123, Note_on_c, 1, 73, 64
3, 66243, Note_off_c, 1, 73, 76
3, 66243, Note_on_c, 1, 78, 64
3, 66363, Note_off_c, 1, 78, 74
3, 67083, Note_on_c, 1, 71, 64
3, 67263, Note_off_c, 1, 71, 73
3, 67263, Note_on_c, 1, 73, 64
3, 67323, Note_off_c, 1, 73, 58
3, 67323, Note_on_c, 1, 71, 64
3, 67383, Note_off_c, 1, 71, 57
3, 67383, Note_on_c, 1, 69, 64
3, 67443, Note_off_c, 1, 69, 21
3, 67443, Note_on_c, 1, 68, 64
3, 67683, Note_off_c, 1, 68, 63
3, 67743, Note_on_c, 1, 67, 64
3, 67863, Note_off_c, 1, 67, 65
3, 67863, Note_on_c, 1, 66, 64
3, 67983, Note_off_c, 1, 66, 63
3, 67983, Note_on_c, 1, 64, 64
3, 68043, Note_off_c, 1, 64, 49
3, 68043, Note_on_c, 1, 62, 64
3, 68103, Note_off_c, 1, 62, 40
3, 68103, Note_on_c, 1, 64, 64
3, 68163, Note_off_c, 1, 64, 47
3, 68163, Note_on_c, 1, 61, 64
3, 68403, Note_off_c, 1, 61, 55
3, 68463, Note_on_c, 1, 66, 64
3, 68523, Note_off_c, 1, 66, 55
3, 68523, Note_on_c, 1, 64, 64
3, 68583, Note_off_c, 1, 64, 39
3, 68583, Note_on_c, 1, 62, 64
3, 68643, Note_off_c, 1, 62, 40
3, 68643, Note_on_c, 1, 61, 64
3, 69123, Note_off_c, 1, 61, 62
3, 69123, Note_on_c, 1, 59, 64
3, 69363, Note_off_c, 1, 59, 41
3, 69483, Note_on_c, 1, 66, 64
3, 69603, Note_off_c, 1, 66, 51
3, 69603, Note_on_c, 1, 64, 64
3, 69843, Note_off_c, 1, 64, 49
3, 70203, Note_on_c, 1, 66, 64
3, 70323, Note_off_c, 1, 66, 69
3, 70323, Note_on_c, 1, 62, 64
3, 70443, Note_off_c, 1, 62, 50
3, 70443, Note_on_c, 1, 59, 64
3, 70563, Note_off_c, 1, 59, 35
3, 70563, Note_on_c, 1, 67, 64
3, 70683, Note_off_c, 1, 67, 51
3, 70683, Note_on_c, 1, 66, 64
3, 70803, Note_off_c, 1, 66, 80
3, 70803, Note_on_c, 1, 71, 64
3, 70923, Note_off_c, 1, 71, 77
3, 70923, Note_on_c, 1, 70, 64
3, 71043, Note_off_c, 1, 70, 82
3, 71043, Note_on_c, 1, 64, 64
3, 71163, Note_off_c, 1, 64, 57
3, 71163, Note_on_c, 1, 63, 64
3, 71283, Note_off_c, 1, 63, 54
3, 71403, Note_on_c, 1, 68, 64
3, 71523, Note_off_c, 1, 68, 80
3, 71523, Note_on_c, 1, 66, 64
3, 71643, Note_off_c, 1, 66, 74
3, 71643, Note_on_c, 1, 65, 64
3, 71763, Note_off_c, 1, 65, 1
3, 71763, Note_on_c, 1, 66, 64
3, 71943, Note_off_c, 1, 66, 74
3, 71943, Note_on_c, 1, 64, 64
3, 72003, Note_off_c, 1, 64, 36
3, 72003, Note_on_c, 1, 63, 64
3, 72963, Note_off_c, 1, 63, 66
3, 72963, End_track
4, 0, Start_track
4, 0, Text_t, "3"
4, 3000, Note_on_c, 2, 59, 64
4, 3120, Note_off_c, 2, 59, 53
4, 3120, Note_on_c, 2, 57, 64
4, 3240, Note_off_c, 2, 57, 58
4, 3240, Note_on_c, 2, 54, 64
4, 3360, Note_off_c, 2, 54, 72
4, 3360, Note_on_c, 2, 62, 64
4, 3480, Note_off_c, 2, 62, 62
4, 3480, Note_on_c, 2, 59, 64
4, 3580, Note_off_c, 2, 59, 25
4, 3600, Note_on_c, 2, 64, 64
4, 3720, Note_off_c, 2, 64, 52
4, 3720, Note_on_c, 2, 63, 64
4, 3820, Note_off_c, 2, 63, 46
4, 3840, Note_on_c, 2, 57, 64
4, 3960, Note_off_c, 2, 57, 27
4, 3960, Note_on_c, 2, 56, 64
4, 4060, Note_off_c, 2, 56, 57
4, 4080, Note_on_c, 2, 65, 64
4, 4200, Note_off_c, 2, 65, 5
4, 4200, Note_on_c, 2, 64, 64
4, 4300, Note_off_c, 2, 64, 49
4, 4320, Note_on_c, 2, 59, 64
4, 4440, Note_off_c, 2, 59, 34
4, 4440, Note_on_c, 2, 58, 64
4, 4540, Note_off_c, 2, 58, 69
4, 4560, Note_on_c, 2, 67, 64
4, 4680, Note_off_c, 2, 67, 58
4, 4680, Note_on_c, 2, 66, 64
4, 4780, Note_off_c, 2, 66, 69
4, 4800, Note_on_c, 2, 65, 64
4, 4920, Note_off_c, 2, 65, 57
4, 4920, Note_on_c, 2, 66, 64
4, 5040, Note_off_c, 2, 66, 66
4, 5040, Note_on_c, 2, 62, 64
4, 5160, Note_off_c, 2, 62, 53
4, 5160, Note_on_c, 2, 59, 64
4, 5280, Note_off_c, 2, 59, 22
4, 5280, Note_on_c, 2, 61, 64
4, 5760, Note_off_c, 2, 61, 72
4, 5760, Note_on_c, 2, 59, 64
4, 5820, Note_off_c, 2, 59, 27
4, 5820, Note_on_c, 2, 66, 64
4, 5880, Note_off_c, 2, 66, 62
4, 5880, Note_on_c, 2, 68, 64
4, 5940, Note_off_c, 2, 68, 79
4, 5940, Note_on_c, 2, 70, 64
4, 6000, Note_off_c, 2, 70, 61
4, 6000, Note_on_c, 2, 71, 64
4, 6060, Note_off_c, 2, 71, 83
4, 6060, Note_on_c, 2, 73, 64
4, 6120, Note_off_c, 2, 73, 69
4, 6120, Note_on_c, 2, 66, 64
4, 6180, Note_off_c, 2, 66, 63
4, 6180, Note_on_c, 2, 65, 64
4, 6240, Note_off_c, 2, 65, 35
4, 6240, Note_on_c, 2, 69, 64
4, 6840, Note_off_c, 2, 69, 73
4, 6840, Note_on_c, 2, 67, 64
4, 6960, Note_off_c, 2, 67, 55
4, 6960, Note_on_c, 2, 66, 64
4, 7080, Note_off_c, 2, 66, 73
4, 7080, Note_on_c, 2, 70, 64
4, 7200, Note_off_c, 2, 70, 65
4, 7200, Note_on_c, 2, 71, 64
4, 7800, Note_off_c, 2, 71, 74
4, 7800, Note_on_c, 2, 70, 64
4, 7920, Note_off_c, 2, 70, 66
4, 7920, Note_on_c, 2, 71, 64
4, 8160, Note_off_c, 2, 71, 74
4, 8400, Note_on_c, 2, 73, 64
4, 8640, Note_off_c, 2, 73, 61
4, 8640, Note_on_c, 2, 71, 64
4, 8880, Note_off_c, 2, 71, 77
4, 8880, Note_on_c, 2, 69, 64
4, 9120, Note_off_c, 2, 69, 74
4, 9120, Note_on_c, 2, 68, 64
4, 9360, Note_off_c, 2, 68, 68
4, 9360, Note_on_c, 2, 66, 64
4, 9720, Note_off_c, 2, 66, 63
4, 9720, Note_on_c, 2, 65, 64
4, 9840, Note_off_c, 2, 65, 57
4, 9840, Note_on_c, 2, 66, 64
4, 10140, Note_off_c, 2, 66, 66
4, 10140, Note_on_c, 2, 68, 64
4, 10200, Note_off_c, 2, 68, 74
4, 10200, Note_on_c, 2, 69, 64
4, 10260, Note_off_c, 2, 69, 66
4, 10260, Note_on_c, 2, 71, 64
4, 10320, Note_off_c, 2, 71, 82
4, 10320, Note_on_c, 2, 73, 64
4, 10380, Note_off_c, 2, 73, 70
4, 10380, Note_on_c, 2, 74, 64
4, 10440, Note_off_c, 2, 74, 63
4, 10440, Note_on_c, 2, 66, 64
4, 10500, Note_off_c, 2, 66, 62
4, 10500, Note_on_c, 2, 65, 64
4, 10560, Note_off_c, 2, 65, 50
4, 10560, Note_on_c, 2, 66, 64
4, 11280, Note_off_c, 2, 66, 70
4, 11280, Note_on_c, 2, 64, 64
4, 11700, Note_off_c, 2, 64, 54
4, 11700, Note_on_c, 2, 62, 64
4, 11760, Note_off_c, 2, 62, 34
4, 11760, Note_on_c, 2, 61, 64
4, 11820, Note_off_c, 2, 61, 58
4, 11820, Note_on_c, 2, 59, 64
4, 11880, Note_off_c, 2, 59, 45
4, 11880, Note_on_c, 2, 57, 64
4, 11940, Note_off_c, 2, 57, 28
4, 11940, Note_on_c, 2, 54, 64
4, 12000, Note_off_c, 2, 54, 52
4, 12000, Note_on_c, 2, 56, 64
4, 12060, Note_off_c, 2, 56, 23
4, 12060, Note_on_c, 2, 59, 64
4, 12120, Note_off_c, 2, 59, 48
4, 12120, Note_on_c, 2, 57, 64
4, 12180, Note_off_c, 2, 57, 55
4, 12180, Note_on_c, 2, 54, 64
4, 12240, Note_off_c, 2, 54, 49
4, 12240, Note_on_c, 2, 60, 64
4, 12360, Note_off_c, 2, 60, 58
4, 12360, Note_on_c, 2, 59, 64
4, 12420, Note_off_c, 2, 59, 58
4, 12420, Note_on_c, 2, 57, 64
4, 12480, Note_off_c, 2, 57, 52
4, 12480, Note_on_c, 2, 59, 64
4, 12960, Note_off_c, 2, 59, 49
4, 12960, Note_on_c, 2, 52, 64
4, 13200, Note_off_c, 2, 52, 50
4, 13200, Note_on_c, 2, 59, 64
4, 13320, Note_off_c, 2, 59, 52
4, 13320, Note_on_c, 2, 57, 64
4, 13440, Note_off_c, 2, 57, 48
4, 13440, Note_on_c, 2, 56, 64
4, 13560, Note_off_c, 2, 56, 52
4, 13560, Note_on_c, 2, 54, 64
4, 13680, Note_off_c, 2, 54, 30
4, 13680, Note_on_c, 2, 66, 64
4, 13800, Note_off_c, 2, 66, 57
4, 13800, Note_on_c, 2, 62, 64
4, 13920, Note_off_c, 2, 62, 38
4, 13920, Note_on_c, 2, 64, 64
4, 14400, Note_off_c, 2, 64, 49
4, 14640, Note_on_c, 2, 58, 64
4, 14760, Note_off_c, 2, 58, 63
4, 14760, Note_on_c, 2, 54, 64
4, 14880, Note_off_c, 2, 54, 35
4, 14880, Note_on_c, 2, 62, 64
4, 15360, Note_off_c, 2, 62, 42
4, 15360, Note_on_c, 2, 61, 64
4, 15840, Note_off_c, 2, 61, 57
4, 15960, Note_on_c, 2, 59, 64
4, 16020, Note_off_c, 2, 59, 49
4, 16020, Note_on_c, 2, 57, 64
4, 16080, Note_off_c, 2, 57, 43
4, 16080, Note_on_c, 2, 56, 64
4, 16140, Note_off_c, 2, 56, 52
4, 16140, Note_on_c, 2, 57, 64
4, 16200, Note_off_c, 2, 57, 34
4, 16200, Note_on_c, 2, 59, 64
4, 16440, Note_off_c, 2, 59, 53
4, 16440, Note_on_c, 2, 57, 64
4, 16500, Note_off_c, 2, 57, 31
4, 16500, Note_on_c, 2, 56, 64
4, 16560, Note_off_c, 2, 56, 62
4, 16560, Note_on_c, 2, 54, 64
4, 16620, Note_off_c, 2, 54, 49
4, 16620, Note_on_c, 2, 56, 64
4, 16680, Note_off_c, 2, 56, 47
4, 16680, Note_on_c, 2, 57, 64
4, 16920, Note_off_c, 2, 57, 59
4, 16920, Note_on_c, 2, 56, 64
4, 16980, Note_off_c, 2, 56, 47
4, 16980, Note_on_c, 2, 54, 64
4, 17040, Note_off_c, 2, 54, 49
4, 17040, Note_on_c, 2, 53, 64
4, 17100, Note_off_c, 2, 53, 43
4, 17100, Note_on_c, 2, 54, 64
4, 17160, Note_off_c, 2, 54, 52
4, 17160, Note_on_c, 2, 56, 64
4, 17280, Note_off_c, 2, 56, 61
4, 17520, Note_on_c, 2, 66, 64
4, 17640, Note_off_c, 2, 66, 61
4, 17640, Note_on_c, 2, 62, 64
4, 17760, Note_off_c, 2, 62, 45
4, 17760, Note_on_c, 2, 59, 64
4, 17880, Note_off_c, 2, 59, 40
4, 26040, Note_on_c, 2, 59, 64
4, 26160, Note_off_c, 2, 59, 55
4, 26160, Note_on_c, 2, 55, 64
4, 26280, Note_off_c, 2, 55, 58
4, 26280, Note_on_c, 2, 52, 64
4, 26400, Note_off_c, 2, 52, 43
4, 27960, Note_on_c, 2, 59, 64
4, 28080, Note_off_c, 2, 59, 58
4, 28080, Note_on_c, 2, 55, 64
4, 28200, Note_off_c, 2, 55, 63
4, 28200, Note_on_c, 2, 52, 64
4, 28320, Note_off_c, 2, 52, 51
4, 28320, Note_on_c, 2, 60, 64
4, 28440, Note_off_c, 2, 60, 55
4, 28440, Note_on_c, 2, 59, 64
4, 28560, Note_off_c, 2, 59, 46
4, 28560, Note_on_c, 2, 64, 64
4, 28680, Note_off_c, 2, 64, 4
4, 28680, Note_on_c, 2, 63, 64
4, 28800, Note_off_c, 2, 63, 50
4, 28800, Note_on_c, 2, 57, 64
4, 28920, Note_off_c, 2, 57, 33
4, 28920, Note_on_c, 2, 56, 64
4, 29040, Note_off_c, 2, 56, 63
4, 29040, Note_on_c, 2, 65, 64
4, 29160, Note_off_c, 2, 65, 2
4, 29160, Note_on_c, 2, 64, 64
4, 29280, Note_off_c, 2, 64, 52
4, 29280, Note_on_c, 2, 59, 64
4, 29400, Note_off_c, 2, 59, 57
4, 29400, Note_on_c, 2, 58, 64
4, 29520, Note_off_c, 2, 58, 66
4, 29520, Note_on_c, 2, 67, 64
4, 29640, Note_off_c, 2, 67, 45
4, 29640, Note_on_c, 2, 66, 64
4, 29760, Note_off_c, 2, 66, 57
4, 29760, Note_on_c, 2, 65, 64
4, 29880, Note_off_c, 2, 65, 55
4, 29880, Note_on_c, 2, 66, 64
4, 30000, Note_off_c, 2, 66, 63
4, 30000, Note_on_c, 2, 62, 64
4, 30120, Note_off_c, 2, 62, 55
4, 30120, Note_on_c, 2, 59, 64
4, 30240, Note_off_c, 2, 59, 41
4, 30240, Note_on_c, 2, 61, 64
4, 30720, Note_off_c, 2, 61, 63
4, 30720, Note_on_c, 2, 59, 64
4, 31200, Note_off_c, 2, 59, 48
4, 31260, Note_on_c, 2, 61, 64
4, 31320, Note_off_c, 2, 61, 66
4, 31320, Note_on_c, 2, 63, 64
4, 31380, Note_off_c, 2, 63, 52
4, 31380, Note_on_c, 2, 65, 64
4, 31440, Note_off_c, 2, 65, 43
4, 31440, Note_on_c, 2, 66, 64
4, 31500, Note_off_c, 2, 66, 30
4, 31500, Note_on_c, 2, 68, 64
4, 31560, Note_off_c, 2, 68, 74
4, 31560, Note_on_c, 2, 61, 64
4, 31620, Note_off_c, 2, 61, 55
4, 31620, Note_on_c, 2, 60, 64
4, 31680, Note_off_c, 2, 60, 41
4, 31680, Note_on_c, 2, 61, 64
4, 31740, Note_off_c, 2, 61, 49
4, 31740, Note_on_c, 2, 59, 64
4, 31800, Note_off_c, 2, 59, 49
4, 31800, Note_on_c, 2, 57, 64
4, 31860, Note_off_c, 2, 57, 31
4, 31860, Note_on_c, 2, 56, 64
4, 31920, Note_off_c, 2, 56, 54
4, 31920, Note_on_c, 2, 54, 64
4, 31980, Note_off_c, 2, 54, 63
4, 31980, Note_on_c, 2, 56, 64
4, 32040, Note_off_c, 2, 56, 57
4, 32040, Note_on_c, 2, 57, 64
4, 32100, Note_off_c, 2, 57, 53
4, 32100, Note_on_c, 2, 61, 64
4, 32160, Note_off_c, 2, 61, 52
4, 32160, Note_on_c, 2, 59, 64
4, 32220, Note_off_c, 2, 59, 35
4, 32220, Note_on_c, 2, 56, 64
4, 32280, Note_off_c, 2, 56, 51
4, 32280, Note_on_c, 2, 57, 64
4, 32340, Note_off_c, 2, 57, 35
4, 32340, Note_on_c, 2, 61, 64
4, 32400, Note_off_c, 2, 61, 46
4, 32400, Note_on_c, 2, 62, 64
4, 32460, Note_off_c, 2, 62, 44
4, 32460, Note_on_c, 2, 59, 64
4, 32520, Note_off_c, 2, 59, 65
4, 32520, Note_on_c, 2, 61, 64
4, 32580, Note_off_c, 2, 61, 63
4, 32580, Note_on_c, 2, 65, 64
4, 32640, Note_off_c, 2, 65, 62
4, 32640, Note_on_c, 2, 66, 64
4, 32700, Note_off_c, 2, 66, 69
4, 32700, Note_on_c, 2, 64, 64
4, 32760, Note_off_c, 2, 64, 43
4, 32760, Note_on_c, 2, 62, 64
4, 32820, Note_off_c, 2, 62, 30
4, 32820, Note_on_c, 2, 61, 64
4, 32880, Note_off_c, 2, 61, 54
4, 32880, Note_on_c, 2, 59, 64
4, 32940, Note_off_c, 2, 59, 37
4, 32940, Note_on_c, 2, 61, 64
4, 33000, Note_off_c, 2, 61, 58
4, 33000, Note_on_c, 2, 62, 64
4, 33060, Note_off_c, 2, 62, 43
4, 33060, Note_on_c, 2, 66, 64
4, 33120, Note_off_c, 2, 66, 50
4, 33120, Note_on_c, 2, 64, 64
4, 33180, Note_off_c, 2, 64, 49
4, 33180, Note_on_c, 2, 61, 64
4, 33240, Note_off_c, 2, 61, 47
4, 33240, Note_on_c, 2, 62, 64
4, 33300, Note_off_c, 2, 62, 35
4, 33300, Note_on_c, 2, 66, 64
4, 33360, Note_off_c, 2, 66, 46
4, 33360, Note_on_c, 2, 67, 64
4, 33420, Note_off_c, 2, 67, 47
4, 33420, Note_on_c, 2, 64, 64
4, 33480, Note_off_c, 2, 64, 35
4, 33480, Note_on_c, 2, 66, 64
4, 33540, Note_off_c, 2, 66, 73
4, 33540, Note_on_c, 2, 70, 64
4, 33600, Note_off_c, 2, 70, 72
4, 33600, Note_on_c, 2, 71, 64
4, 33660, Note_off_c, 2, 71, 55
4, 33660, Note_on_c, 2, 69, 64
4, 33720, Note_off_c, 2, 69, 63
4, 33720, Note_on_c, 2, 67, 64
4, 33780, Note_off_c, 2, 67, 42
4, 33780, Note_on_c, 2, 66, 64
4, 33840, Note_off_c, 2, 66, 58
4, 33840, Note_on_c, 2, 64, 64
4, 33900, Note_off_c, 2, 64, 43
4, 33900, Note_on_c, 2, 62, 64
4, 33960, Note_off_c, 2, 62, 44
4, 33960, Note_on_c, 2, 64, 64
4, 34020, Note_off_c, 2, 64, 42
4, 34020, Note_on_c, 2, 61, 64
4, 34080, Note_off_c, 2, 61, 61
4, 34080, Note_on_c, 2, 62, 64
4, 34680, Note_off_c, 2, 62, 52
4, 34680, Note_on_c, 2, 61, 64
4, 34800, Note_off_c, 2, 61, 38
4, 34800, Note_on_c, 2, 59, 64
4, 34920, Note_off_c, 2, 59, 50
4, 34920, Note_on_c, 2, 62, 64
4, 35040, Note_off_c, 2, 62, 49
4, 35040, Note_on_c, 2, 60, 64
4, 35640, Note_off_c, 2, 60, 55
4, 35640, Note_on_c, 2, 59, 64
4, 35760, Note_off_c, 2, 59, 61
4, 35880, Note_on_c, 2, 59, 64
4, 36060, Note_off_c, 2, 59, 57
4, 36060, Note_on_c, 2, 58, 64
4, 36120, Note_off_c, 2, 58, 54
4, 36120, Note_on_c, 2, 59, 64
4, 36180, Note_off_c, 2, 59, 50
4, 36180, Note_on_c, 2, 62, 64
4, 36240, Note_off_c, 2, 62, 46
4, 36240, Note_on_c, 2, 61, 64
4, 36480, Note_off_c, 2, 61, 69
4, 36480, Note_on_c, 2, 54, 64
4, 36720, Note_off_c, 2, 54, 66
4, 41400, Note_on_c, 2, 57, 64
4, 41520, Note_off_c, 2, 57, 54
4, 41520, Note_on_c, 2, 54, 64
4, 41640, Note_off_c, 2, 54, 40
4, 41640, Note_on_c, 2, 50, 64
4, 41760, Note_off_c, 2, 50, 33
4, 41760, Note_on_c, 2, 59, 64
4, 41880, Note_off_c, 2, 59, 46
4, 41880, Note_on_c, 2, 57, 64
4, 42000, Note_off_c, 2, 57, 31
4, 42000, Note_on_c, 2, 62, 64
4, 42120, Note_off_c, 2, 62, 50
4, 42120, Note_on_c, 2, 61, 64
4, 42240, Note_off_c, 2, 61, 61
4, 42240, Note_on_c, 2, 55, 64
4, 42360, Note_off_c, 2, 55, 31
4, 42360, Note_on_c, 2, 54, 64
4, 42480, Note_off_c, 2, 54, 59
4, 42480, Note_on_c, 2, 63, 64
4, 42600, Note_off_c, 2, 63, 46
4, 42600, Note_on_c, 2, 62, 64
4, 42720, Note_off_c, 2, 62, 52
4, 42720, Note_on_c, 2, 57, 64
4, 42840, Note_off_c, 2, 57, 29
4, 42840, Note_on_c, 2, 56, 64
4, 42960, Note_off_c, 2, 56, 53
4, 42960, Note_on_c, 2, 65, 64
4, 43080, Note_off_c, 2, 65, 51
4, 43080, Note_on_c, 2, 64, 64
4, 43200, Note_off_c, 2, 64, 48
4, 43200, Note_on_c, 2, 63, 64
4, 43320, Note_off_c, 2, 63, 52
4, 43320, Note_on_c, 2, 64, 64
4, 43440, Note_off_c, 2, 64, 52
4, 43440, Note_on_c, 2, 61, 64
4, 43560, Note_off_c, 2, 61, 62
4, 43560, Note_on_c, 2, 57, 64
4, 43680, Note_off_c, 2, 57, 29
4, 43680, Note_on_c, 2, 59, 64
4, 44280, Note_off_c, 2, 59, 59
4, 44280, Note_on_c, 2, 57, 64
4, 44520, Note_off_c, 2, 57, 27
4, 44520, Note_on_c, 2, 55, 64
4, 44760, Note_off_c, 2, 55, 35
4, 44760, Note_on_c, 2, 54, 64
4, 44880, Note_off_c, 2, 54, 57
4, 44880, Note_on_c, 2, 52, 64
4, 45000, Note_off_c, 2, 52, 55
4, 45000, Note_on_c, 2, 49, 64
4, 45120, Note_off_c, 2, 49, 66
4, 48060, Note_on_c, 2, 64, 64
4, 48120, Note_off_c, 2, 64, 27
4, 48120, Note_on_c, 2, 66, 64
4, 48180, Note_off_c, 2, 66, 59
4, 48180, Note_on_c, 2, 67, 64
4, 48240, Note_off_c, 2, 67, 62
4, 48240, Note_on_c, 2, 69, 64
4, 48300, Note_off_c, 2, 69, 70
4, 48300, Note_on_c, 2, 71, 64
4, 48360, Note_off_c, 2, 71, 46
4, 48360, Note_on_c, 2, 64, 64
4, 48420, Note_off_c, 2, 64, 32
4, 48420, Note_on_c, 2, 63, 64
4, 48480, Note_off_c, 2, 63, 41
4, 48480, Note_on_c, 2, 59, 64
4, 48600, Note_off_c, 2, 59, 3
4, 48600, Note_on_c, 2, 58, 64
4, 48660, Note_off_c, 2, 58, 52
4, 48660, Note_on_c, 2, 59, 64
4, 48720, Note_off_c, 2, 59, 37
4, 48720, Note_on_c, 2, 61, 64
4, 48840, Note_off_c, 2, 61, 62
4, 48840, Note_on_c, 2, 52, 64
4, 48960, Note_off_c, 2, 52, 26
4, 48960, Note_on_c, 2, 59, 64
4, 49080, Note_off_c, 2, 59, 62
4, 49500, Note_on_c, 2, 49, 64
4, 49560, Note_off_c, 2, 49, 59
4, 49560, Note_on_c, 2, 51, 64
4, 49620, Note_off_c, 2, 51, 68
4, 49620, Note_on_c, 2, 53, 64
4, 49680, Note_off_c, 2, 53, 61
4, 49680, Note_on_c, 2, 54, 64
4, 49740, Note_off_c, 2, 54, 59
4, 49740, Note_on_c, 2, 56, 64
4, 49800, Note_off_c, 2, 56, 52
4, 49800, Note_on_c, 2, 57, 64
4, 49860, Note_off_c, 2, 57, 46
4, 49860, Note_on_c, 2, 53, 64
4, 49920, Note_off_c, 2, 53, 43
4, 49920, Note_on_c, 2, 54, 64
4, 50160, Note_off_c, 2, 54, 57
4, 50160, Note_on_c, 2, 56, 64
4, 50400, Note_off_c, 2, 56, 54
4, 50520, Note_on_c, 2, 61, 64
4, 50640, Note_off_c, 2, 61, 50
4, 50640, Note_on_c, 2, 57, 64
4, 50760, Note_off_c, 2, 57, 50
4, 50760, Note_on_c, 2, 54, 64
4, 50880, Note_off_c, 2, 54, 50
4, 50880, Note_on_c, 2, 62, 64
4, 51000, Note_off_c, 2, 62, 57
4, 51000, Note_on_c, 2, 61, 64
4, 51120, Note_off_c, 2, 61, 74
4, 51120, Note_on_c, 2, 66, 64
4, 51240, Note_off_c, 2, 66, 66
4, 51240, Note_on_c, 2, 65, 64
4, 51360, Note_off_c, 2, 65, 52
4, 51360, Note_on_c, 2, 59, 64
4, 51480, Note_off_c, 2, 59, 27
4, 51480, Note_on_c, 2, 58, 64
4, 51600, Note_off_c, 2, 58, 68
4, 51600, Note_on_c, 2, 67, 64
4, 51720, Note_off_c, 2, 67, 53
4, 51720, Note_on_c, 2, 66, 64
4, 51840, Note_off_c, 2, 66, 70
4, 51840, Note_on_c, 2, 61, 64
4, 51960, Note_off_c, 2, 61, 61
4, 51960, Note_on_c, 2, 60, 64
4, 52080, Note_off_c, 2, 60, 45
4, 52080, Note_on_c, 2, 69, 64
4, 52200, Note_off_c, 2, 69, 73
4, 52200, Note_on_c, 2, 68, 64
4, 52320, Note_off_c, 2, 68, 76
4, 52320, Note_on_c, 2, 67, 64
4, 52440, Note_off_c, 2, 67, 49
4, 52440, Note_on_c, 2, 68, 64
4, 52560, Note_off_c, 2, 68, 73
4, 52560, Note_on_c, 2, 64, 64
4, 52680, Note_off_c, 2, 64, 43
4, 52680, Note_on_c, 2, 61, 64
4, 52800, Note_off_c, 2, 61, 37
4, 52800, Note_on_c, 2, 63, 64
4, 53340, Note_off_c, 2, 63, 58
4, 53340, Note_on_c, 2, 56, 64
4, 53400, Note_off_c, 2, 56, 52
4, 53400, Note_on_c, 2, 58, 64
4, 53460, Note_off_c, 2, 58, 53
4, 53460, Note_on_c, 2, 60, 64
4, 53520, Note_off_c, 2, 60, 61
4, 53520, Note_on_c, 2, 61, 64
4, 53580, Note_off_c, 2, 61, 61
4, 53580, Note_on_c, 2, 63, 64
4, 53640, Note_off_c, 2, 63, 44
4, 53640, Note_on_c, 2, 54, 64
4, 53700, Note_off_c, 2, 54, 47
4, 53700, Note_on_c, 2, 52, 64
4, 53760, Note_off_c, 2, 52, 33
4, 53760, Note_on_c, 2, 54, 64
4, 54000, Note_off_c, 2, 54, 61
4, 57240, Note_on_c, 2, 66, 64
4, 57360, Note_off_c, 2, 66, 68
4, 57360, Note_on_c, 2, 62, 64
4, 57480, Note_off_c, 2, 62, 48
4, 57480, Note_on_c, 2, 59, 64
4, 57600, Note_off_c, 2, 59, 28
4, 57600, Note_on_c, 2, 67, 64
4, 57720, Note_off_c, 2, 67, 59
4, 57720, Note_on_c, 2, 66, 64
4, 57840, Note_off_c, 2, 66, 68
4, 57840, Note_on_c, 2, 71, 64
4, 57960, Note_off_c, 2, 71, 32
4, 57960, Note_on_c, 2, 70, 64
4, 58080, Note_off_c, 2, 70, 70
4, 58080, Note_on_c, 2, 64, 64
4, 58200, Note_off_c, 2, 64, 30
4, 58200, Note_on_c, 2, 63, 64
4, 58320, Note_off_c, 2, 63, 55
4, 58320, Note_on_c, 2, 72, 64
4, 58440, Note_off_c, 2, 72, 69
4, 58440, Note_on_c, 2, 71, 64
4, 58560, Note_off_c, 2, 71, 73
4, 58560, Note_on_c, 2, 66, 64
4, 58680, Note_off_c, 2, 66, 62
4, 58680, Note_on_c, 2, 65, 64
4, 58800, Note_off_c, 2, 65, 20
4, 58800, Note_on_c, 2, 74, 64
4, 58920, Note_off_c, 2, 74, 52
4, 58920, Note_on_c, 2, 73, 64
4, 59040, Note_off_c, 2, 73, 55
4, 59040, Note_on_c, 2, 72, 64
4, 59160, Note_off_c, 2, 72, 85
4, 59160, Note_on_c, 2, 73, 64
4, 59280, Note_off_c, 2, 73, 76
4, 59280, Note_on_c, 2, 69, 64
4, 59400, Note_off_c, 2, 69, 70
4, 59400, Note_on_c, 2, 66, 64
4, 59520, Note_off_c, 2, 66, 54
4, 59520, Note_on_c, 2, 68, 64
4, 60060, Note_off_c, 2, 68, 69
4, 60060, Note_on_c, 2, 61, 64
4, 60120, Note_off_c, 2, 61, 68
4, 60120, Note_on_c, 2, 63, 64
4, 60180, Note_off_c, 2, 63, 68
4, 60180, Note_on_c, 2, 65, 64
4, 60240, Note_off_c, 2, 65, 46
4, 60240, Note_on_c, 2, 66, 64
4, 60300, Note_off_c, 2, 66, 70
4, 60300, Note_on_c, 2, 68, 64
4, 60360, Note_off_c, 2, 68, 66
4, 60360, Note_on_c, 2, 59, 64
4, 60420, Note_off_c, 2, 59, 26
4, 60420, Note_on_c, 2, 57, 64
4, 60480, Note_off_c, 2, 57, 37
4, 60480, Note_on_c, 2, 59, 64
4, 61440, Note_off_c, 2, 59, 55
4, 61440, Note_on_c, 2, 58, 64
4, 61560, Note_off_c, 2, 58, 62
4, 61560, Note_on_c, 2, 54, 64
4, 61680, Note_off_c, 2, 54, 68
4, 61680, Note_on_c, 2, 59, 64
4, 61800, Note_off_c, 2, 59, 68
4, 61800, Note_on_c, 2, 62, 64
4, 61920, Note_off_c, 2, 62, 54
4, 61920, Note_on_c, 2, 64, 64
4, 62040, Note_off_c, 2, 64, 42
4, 62040, Note_on_c, 2, 67, 64
4, 62160, Note_off_c, 2, 67, 62
4, 62160, Note_on_c, 2, 69, 64
4, 62280, Note_off_c, 2, 69, 51
4, 62280, Note_on_c, 2, 61, 64
4, 62400, Note_off_c, 2, 61, 62
4, 62400, Note_on_c, 2, 62, 64
4, 62520, Note_off_c, 2, 62, 55
4, 62520, Note_on_c, 2, 66, 64
4, 62640, Note_off_c, 2, 66, 68
4, 62640, Note_on_c, 2, 67, 64
4, 62760, Note_off_c, 2, 67, 63
4, 62760, Note_on_c, 2, 59, 64
4, 62880, Note_off_c, 2, 59, 39
4, 62880, Note_on_c, 2, 61, 64
4, 63000, Note_off_c, 2, 61, 55
4, 63000, Note_on_c, 2, 64, 64
4, 63120, Note_off_c, 2, 64, 52
4, 63120, Note_on_c, 2, 66, 64
4, 63240, Note_off_c, 2, 66, 77
4, 63240, Note_on_c, 2, 58, 64
4, 63360, Note_off_c, 2, 58, 58
4, 63360, Note_on_c, 2, 59, 64
4, 63420, Note_off_c, 2, 59, 58
4, 63420, Note_on_c, 2, 54, 64
4, 63480, Note_off_c, 2, 54, 61
4, 63480, Note_on_c, 2, 55, 64
4, 63540, Note_off_c, 2, 55, 65
4, 63540, Note_on_c, 2, 57, 64
4, 63600, Note_off_c, 2, 57, 62
4, 63600, Note_on_c, 2, 59, 64
4, 63660, Note_off_c, 2, 59, 49
4, 63660, Note_on_c, 2, 60, 64
4, 63720, Note_off_c, 2, 60, 59
4, 63720, Note_on_c, 2, 52, 64
4, 63780, Note_off_c, 2, 52, 35
4, 63780, Note_on_c, 2, 51, 64
4, 63840, Note_off_c, 2, 51, 53
4, 63840, Note_on_c, 2, 52, 64
4, 63960, Note_off_c, 2, 52, 34
4, 63960, Note_on_c, 2, 55, 64
4, 64080, Note_off_c, 2, 55, 61
4, 64080, Note_on_c, 2, 57, 64
4, 64200, Note_off_c, 2, 57, 41
4, 64200, Note_on_c, 2, 61, 64
4, 64320, Note_off_c, 2, 61, 55
4, 64320, Note_on_c, 2, 62, 64
4, 64440, Note_off_c, 2, 62, 62
4, 64440, Note_on_c, 2, 54, 64
4, 64560, Note_off_c, 2, 54, 53
4, 64560, Note_on_c, 2, 55, 64
4, 64680, Note_off_c, 2, 55, 40
4, 64680, Note_on_c, 2, 59, 64
4, 64800, Note_off_c, 2, 59, 32
4, 64800, Note_on_c, 2, 61, 64
4, 64920, Note_off_c, 2, 61, 39
4, 64920, Note_on_c, 2, 52, 64
4, 65040, Note_off_c, 2, 52, 42
4, 65040, Note_on_c, 2, 54, 64
4, 65160, Note_off_c, 2, 54, 52
4, 65160, Note_on_c, 2, 58, 64
4, 65280, Note_off_c, 2, 58, 57
4, 65280, Note_on_c, 2, 59, 64
4, 65400, Note_off_c, 2, 59, 61
4, 65400, Note_on_c, 2, 54, 64
4, 65520, Note_off_c, 2, 54, 58
4, 65520, Note_on_c, 2, 50, 64
4, 65640, Note_off_c, 2, 50, 52
4, 65640, Note_on_c, 2, 47, 64
4, 65760, Note_off_c, 2, 47, 42
4, 65760, Note_on_c, 2, 55, 64
4, 65880, Note_off_c, 2, 55, 68
4, 65880, Note_on_c, 2, 54, 64
4, 66000, Note_off_c, 2, 54, 61
4, 66000, Note_on_c, 2, 59, 64
4, 66120, Note_off_c, 2, 59, 53
4, 66120, Note_on_c, 2, 58, 64
4, 66240, Note_off_c, 2, 58, 57
4, 66240, Note_on_c, 2, 52, 64
4, 66360, Note_off_c, 2, 52, 70
4, 66360, Note_on_c, 2, 51, 64
4, 66480, Note_off_c, 2, 51, 59
4, 66480, Note_on_c, 2, 52, 64
4, 66960, Note_off_c, 2, 52, 59
4, 66960, Note_on_c, 2, 54, 64
4, 67200, Note_off_c, 2, 54, 46
4, 67200, Note_on_c, 2, 52, 64
4, 67440, Note_off_c, 2, 52, 62
4, 67500, Note_on_c, 2, 59, 64
4, 67560, Note_off_c, 2, 59, 43
4, 67560, Note_on_c, 2, 61, 64
4, 67620, Note_off_c, 2, 61, 63
4, 67620, Note_on_c, 2, 62, 64
4, 67680, Note_off_c, 2, 62, 51
4, 67680, Note_on_c, 2, 64, 64
4, 67860, Note_off_c, 2, 64, 61
4, 67860, Note_on_c, 2, 64, 64
4, 67920, Note_off_c, 2, 64, 54
4, 67920, Note_on_c, 2, 62, 64
4, 67980, Note_off_c, 2, 62, 62
4, 67980, Note_on_c, 2, 61, 64
4, 68040, Note_off_c, 2, 61, 69
4, 68040, Note_on_c, 2, 59, 64
4, 68100, Note_off_c, 2, 59, 52
4, 68100, Note_on_c, 2, 57, 64
4, 68160, Note_off_c, 2, 57, 34
4, 68160, Note_on_c, 2, 56, 64
4, 68280, Note_off_c, 2, 56, 51
4, 68280, Note_on_c, 2, 54, 64
4, 68460, Note_off_c, 2, 54, 50
4, 68460, Note_on_c, 2, 57, 64
4, 68520, Note_off_c, 2, 57, 53
4, 68520, Note_on_c, 2, 55, 64
4, 68580, Note_off_c, 2, 55, 70
4, 68580, Note_on_c, 2, 54, 64
4, 68640, Note_off_c, 2, 54, 55
4, 68640, Note_on_c, 2, 52, 64
4, 69120, Note_off_c, 2, 52, 63
4, 69120, Note_on_c, 2, 54, 64
4, 69360, Note_off_c, 2, 54, 51
4, 69480, Note_on_c, 2, 57, 64
4, 69600, Note_off_c, 2, 57, 53
4, 69600, Note_on_c, 2, 55, 64
4, 69840, Note_off_c, 2, 55, 57
4, 69960, Note_on_c, 2, 59, 64
4, 70080, Note_off_c, 2, 59, 48
4, 70080, Note_on_c, 2, 58, 64
4, 70140, Note_off_c, 2, 58, 53
4, 70140, Note_on_c, 2, 54, 64
4, 70200, Note_off_c, 2, 54, 55
4, 70200, Note_on_c, 2, 56, 64
4, 70260, Note_off_c, 2, 56, 70
4, 70260, Note_on_c, 2, 58, 64
4, 70320, Note_off_c, 2, 58, 76
4, 70320, Note_on_c, 2, 59, 64
4, 70380, Note_off_c, 2, 59, 49
4, 70380, Note_on_c, 2, 61, 64
4, 70440, Note_off_c, 2, 61, 58
4, 70440, Note_on_c, 2, 62, 64
4, 70500, Note_off_c, 2, 62, 52
4, 70500, Note_on_c, 2, 59, 64
4, 70620, Note_off_c, 2, 59, 46
4, 70620, Note_on_c, 2, 59, 64
4, 70680, Note_off_c, 2, 59, 46
4, 70680, Note_on_c, 2, 58, 64
4, 70740, Note_off_c, 2, 58, 61
4, 70740, Note_on_c, 2, 59, 64
4, 70800, Note_off_c, 2, 59, 46
4, 70800, Note_on_c, 2, 61, 64
4, 70860, Note_off_c, 2, 61, 61
4, 70860, Note_on_c, 2, 62, 64
4, 70920, Note_off_c, 2, 62, 51
4, 70920, Note_on_c, 2, 64, 64
4, 70980, Note_off_c, 2, 64, 46
4, 70980, Note_on_c, 2, 61, 64
4, 71040, Note_off_c, 2, 61, 52
4, 71040, Note_on_c, 2, 66, 64
4, 71280, Note_off_c, 2, 66, 68
4, 71400, Note_on_c, 2, 62, 64
4, 71520, Note_off_c, 2, 62, 55
4, 71520, Note_on_c, 2, 61, 64
4, 72000, Note_off_c, 2, 61, 69
4, 72000, Note_on_c, 2, 59, 64
4, 72960, Note_off_c, 2, 59, 36
4, 72960, End_track
5, 0, Start_track
5, 0, Text_t, "4"
5, 7800, Note_on_c, 3, 54, 64
5, 7920, Note_off_c, 3, 54, 57
5, 7920, Note_on_c, 3, 50, 64
5, 8040, Note_off_c, 3, 50, 52
5, 8040, Note_on_c, 3, 47, 64
5, 8160, Note_off_c, 3, 47, 41
5, 8160, Note_on_c, 3, 55, 64
5, 8280, Note_off_c, 3, 55, 62
5, 8280, Note_on_c, 3, 54, 64
5, 8380, Note_off_c, 3, 54, 72
5, 8400, Note_on_c, 3, 59, 64
5, 8520, Note_off_c, 3, 59, 65
5, 8520, Note_on_c, 3, 58, 64
5, 8620, Note_off_c, 3, 58, 66
5, 8640, Note_on_c, 3, 52, 64
5, 8760, Note_off_c, 3, 52, 43
5, 8760, Note_on_c, 3, 51, 64
5, 8860, Note_off_c, 3, 51, 63
5, 8880, Note_on_c, 3, 60, 64
5, 9000, Note_off_c, 3, 60, 54
5, 9000, Note_on_c, 3, 59, 64
5, 9100, Note_off_c, 3, 59, 47
5, 9120, Note_on_c, 3, 54, 64
5, 9240, Note_off_c, 3, 54, 53
5, 9240, Note_on_c, 3, 53, 64
5, 9360, Note_off_c, 3, 53, 46
5, 9360, Note_on_c, 3, 62, 64
5, 9480, Note_off_c, 3, 62, 51
5, 9480, Note_on_c, 3, 61, 64
5, 9600, Note_off_c, 3, 61, 43
5, 9600, Note_on_c, 3, 60, 64
5, 9720, Note_off_c, 3, 60, 65
5, 9720, Note_on_c, 3, 61, 64
5, 9840, Note_off_c, 3, 61, 49
5, 9840, Note_on_c, 3, 57, 64
5, 9960, Note_off_c, 3, 57, 46
5, 9960, Note_on_c, 3, 54, 64
5, 10080, Note_off_c, 3, 54, 23
5, 10080, Note_on_c, 3, 56, 64
5, 10560, Note_off_c, 3, 56, 59
5, 10560, Note_on_c, 3, 54, 64
5, 10620, Note_off_c, 3, 54, 63
5, 10620, Note_on_c, 3, 54, 64
5, 10680, Note_off_c, 3, 54, 69
5, 10680, Note_on_c, 3, 55, 64
5, 10740, Note_off_c, 3, 55, 65
5, 10740, Note_on_c, 3, 57, 64
5, 10800, Note_off_c, 3, 57, 54
5, 10800, Note_on_c, 3, 59, 64
5, 10860, Note_off_c, 3, 59, 44
5, 10860, Note_on_c, 3, 60, 64
5, 10920, Note_off_c, 3, 60, 55
5, 10920, Note_on_c, 3, 52, 64
5, 10980, Note_off_c, 3, 52, 51
5, 10980, Note_on_c, 3, 51, 64
5, 11040, Note_off_c, 3, 51, 70
5, 11040, Note_on_c, 3, 52, 64
5, 11100, Note_off_c, 3, 52, 49
5, 11100, Note_on_c, 3, 54, 64
5, 11160, Note_off_c, 3, 54, 59
5, 11160, Note_on_c, 3, 55, 64
5, 11220, Note_off_c, 3, 55, 66
5, 11220, Note_on_c, 3, 52, 64
5, 11280, Note_off_c, 3, 52, 48
5, 11280, Note_on_c, 3, 58, 64
5, 11340, Note_off_c, 3, 58, 70
5, 11340, Note_on_c, 3, 59, 64
5, 11400, Note_off_c, 3, 59, 55
5, 11400, Note_on_c, 3, 50, 64
5, 11460, Note_off_c, 3, 50, 19
5, 11460, Note_on_c, 3, 49, 64
5, 11520, Note_off_c, 3, 49, 63
5, 11520, Note_on_c, 3, 50, 64
5, 11640, Note_off_c, 3, 50, 44
5, 11640, Note_on_c, 3, 47, 64
5, 11760, Note_off_c, 3, 47, 40
5, 11760, Note_on_c, 3, 54, 64
5, 12240, Note_off_c, 3, 54, 65
5, 12240, Note_on_c, 3, 54, 64
5, 12480, Note_off_c, 3, 54, 53
5, 12480, Note_on_c, 3, 52, 64
5, 12720, Note_off_c, 3, 52, 61
5, 12720, Note_on_c, 3, 50, 64
5, 12960, Note_off_c, 3, 50, 31
5, 12960, Note_on_c, 3, 49, 64
5, 13200, Note_off_c, 3, 49, 52
5, 13200, Note_on_c, 3, 47, 64
5, 13560, Note_off_c, 3, 47, 37
5, 13560, Note_on_c, 3, 46, 64
5, 13680, Note_off_c, 3, 46, 55
5, 13680, Note_on_c, 3, 47, 64
5, 13980, Note_off_c, 3, 47, 24
5, 13980, Note_on_c, 3, 49, 64
5, 14040, Note_off_c, 3, 49, 58
5, 14040, Note_on_c, 3, 50, 64
5, 14100, Note_off_c, 3, 50, 40
5, 14100, Note_on_c, 3, 52, 64
5, 14160, Note_off_c, 3, 52, 49
5, 14160, Note_on_c, 3, 54, 64
5, 14220, Note_off_c, 3, 54, 43
5, 14220, Note_on_c, 3, 55, 64
5, 14280, Note_off_c, 3, 55, 69
5, 14280, Note_on_c, 3, 47, 64
5, 14340, Note_off_c, 3, 47, 32
5, 14340, Note_on_c, 3, 46, 64
5, 14400, Note_off_c, 3, 46, 53
5, 14400, Note_on_c, 3, 50, 64
5, 14940, Note_off_c, 3, 50, 70
5, 14940, Note_on_c, 3, 46, 64
5, 15000, Note_off_c, 3, 46, 49
5, 15000, Note_on_c, 3, 47, 64
5, 15060, Note_off_c, 3, 47, 36
5, 15060, Note_on_c, 3, 49, 64
5, 15120, Note_off_c, 3, 49, 65
5, 15120, Note_on_c, 3, 50, 64
5, 15180, Note_off_c, 3, 50, 55
5, 15180, Note_on_c, 3, 52, 64
5, 15240, Note_off_c, 3, 52, 72
5, 15240, Note_on_c, 3, 42, 64
5, 15300, Note_off_c, 3, 42, 55
5, 15300, Note_on_c, 3, 41, 64
5, 15360, Note_off_c, 3, 41, 17
5, 15360, Note_on_c, 3, 42, 64
5, 15600, Note_off_c, 3, 42, 52
5, 15600, Note_on_c, 3, 54, 64
5, 15720, Note_off_c, 3, 54, 48
5, 15720, Note_on_c, 3, 57, 64
5, 15840, Note_off_c, 3, 57, 61
5, 15840, Note_on_c, 3, 59, 64
5, 15960, Note_off_c, 3, 59, 48
5, 15960, Note_on_c, 3, 50, 64
5, 16080, Note_off_c, 3, 50, 30
5, 16080, Note_on_c, 3, 52, 64
5, 16200, Note_off_c, 3, 52, 66
5, 16200, Note_on_c, 3, 56, 64
5, 16320, Note_off_c, 3, 56, 51
5, 16320, Note_on_c, 3, 57, 64
5, 16440, Note_off_c, 3, 57, 65
5, 16440, Note_on_c, 3, 49, 64
5, 16560, Note_off_c, 3, 49, 43
5, 16560, Note_on_c, 3, 50, 64
5, 16680, Note_off_c, 3, 50, 44
5, 16680, Note_on_c, 3, 54, 64
5, 16800, Note_off_c, 3, 54, 36
5, 16800, Note_on_c, 3, 56, 64
5, 16920, Note_off_c, 3, 56, 68
5, 16920, Note_on_c, 3, 47, 64
5, 17040, Note_off_c, 3, 47, 34
5, 17040, Note_on_c, 3, 49, 64
5, 17160, Note_off_c, 3, 49, 58
5, 17160, Note_on_c, 3, 53, 64
5, 17280, Note_off_c, 3, 53, 63
5, 17280, Note_on_c, 3, 54, 64
5, 17400, Note_off_c, 3, 54, 29
5, 17400, Note_on_c, 3, 45, 64
5, 17520, Note_off_c, 3, 45, 45
5, 17520, Note_on_c, 3, 47, 64
5, 17640, Note_off_c, 3, 47, 39
5, 17640, Note_on_c, 3, 50, 64
5, 17760, Note_off_c, 3, 50, 66
5, 17760, Note_on_c, 3, 52, 64
5, 17880, Note_off_c, 3, 52, 62
5, 17880, Note_on_c, 3, 43, 64
5, 18000, Note_off_c, 3, 43, 6
5, 18000, Note_on_c, 3, 45, 64
5, 18120, Note_off_c, 3, 45, 57
5, 18120, Note_on_c, 3, 49, 64
5, 18240, Note_off_c, 3, 49, 55
5, 18240, Note_on_c, 3, 50, 64
5, 18360, Note_off_c, 3, 50, 70
5, 18360, Note_on_c, 3, 42, 64
5, 18480, Note_off_c, 3, 42, 57
5, 18480, Note_on_c, 3, 43, 64
5, 18600, Note_off_c, 3, 43, 35
5, 18600, Note_on_c, 3, 47, 64
5, 18720, Note_off_c, 3, 47, 46
5, 18720, Note_on_c, 3, 49, 64
5, 18840, Note_off_c, 3, 49, 68
5, 18840, Note_on_c, 3, 40, 64
5, 18960, Note_off_c, 3, 40, 31
5, 18960, Note_on_c, 3, 42, 64
5, 19080, Note_off_c, 3, 42, 45
5, 19080, Note_on_c, 3, 46, 64
5, 19200, Note_off_c, 3, 46, 49
5, 19200, Note_on_c, 3, 47, 64
5, 19500, Note_off_c, 3, 47, 59
5, 19500, Note_on_c, 3, 49, 64
5, 19560, Note_off_c, 3, 49, 55
5, 19560, Note_on_c, 3, 50, 64
5, 19620, Note_off_c, 3, 50, 49
5, 19620, Note_on_c, 3, 54, 64
5, 19680, Note_off_c, 3, 54, 44
5, 19680, Note_on_c, 3, 52, 64
5, 19740, Note_off_c, 3, 52, 42
5, 19740, Note_on_c, 3, 49, 64
5, 19800, Note_off_c, 3, 49, 62
5, 19800, Note_on_c, 3, 50, 64
5, 19860, Note_off_c, 3, 50, 39
5, 19860, Note_on_c, 3, 54, 64
5, 19920, Note_off_c, 3, 54, 55
5, 19920, Note_on_c, 3, 55, 64
5, 19980, Note_off_c, 3, 55, 70
5, 19980, Note_on_c, 3, 52, 64
5, 20040, Note_off_c, 3, 52, 41
5, 20040, Note_on_c, 3, 54, 64
5, 20100, Note_off_c, 3, 54, 45
5, 20100, Note_on_c, 3, 58, 64
5, 20160, Note_off_c, 3, 58, 62
5, 20160, Note_on_c, 3, 59, 64
5, 20220, Note_off_c, 3, 59, 43
5, 20220, Note_on_c, 3, 55, 64
5, 20280, Note_off_c, 3, 55, 65
5, 20280, Note_on_c, 3, 54, 64
5, 20340, Note_off_c, 3, 54, 52
5, 20340, Note_on_c, 3, 52, 64
5, 20400, Note_off_c, 3, 52, 40
5, 20400, Note_on_c, 3, 51, 64
5, 20580, Note_off_c, 3, 51, 61
5, 20580, Note_on_c, 3, 49, 64
5, 20640, Note_off_c, 3, 49, 57
5, 20640, Note_on_c, 3, 50, 64
5, 20700, Note_off_c, 3, 50, 53
5, 20700, Note_on_c, 3, 52, 64
5, 20760, Note_off_c, 3, 52, 46
5, 20760, Note_on_c, 3, 50, 64
5, 20820, Note_off_c, 3, 50, 66
5, 20820, Note_on_c, 3, 49, 64
5, 20880, Note_off_c, 3, 49, 59
5, 20880, Note_on_c, 3, 47, 64
5, 20940, Note_off_c, 3, 47, 57
5, 20940, Note_on_c, 3, 45, 64
5, 21000, Note_off_c, 3, 45, 23
5, 21000, Note_on_c, 3, 44, 64
5, 21060, Note_off_c, 3, 44, 62
5, 21060, Note_on_c, 3, 42, 64
5, 21120, Note_off_c, 3, 42, 58
5, 21120, Note_on_c, 3, 44, 64
5, 21180, Note_off_c, 3, 44, 40
5, 21180, Note_on_c, 3, 47, 64
5, 21240, Note_off_c, 3, 47, 42
5, 21240, Note_on_c, 3, 45, 64
5, 21300, Note_off_c, 3, 45, 49
5, 21300, Note_on_c, 3, 44, 64
5, 21360, Note_off_c, 3, 44, 66
5, 21360, Note_on_c, 3, 42, 64
5, 21420, Note_off_c, 3, 42, 63
5, 21420, Note_on_c, 3, 45, 64
5, 21480, Note_off_c, 3, 45, 61
5, 21480, Note_on_c, 3, 50, 64
5, 21540, Note_off_c, 3, 50, 57
5, 21540, Note_on_c, 3, 49, 64
5, 21600, Note_off_c, 3, 49, 49
5, 21600, Note_on_c, 3, 47, 64
5, 21720, Note_off_c, 3, 47, 51
5, 21720, Note_on_c, 3, 44, 64
5, 21840, Note_off_c, 3, 44, 52
5, 21840, Note_on_c, 3, 49, 64
5, 21960, Note_off_c, 3, 49, 72
5, 21960, Note_on_c, 3, 37, 64
5, 22080, Note_off_c, 3, 37, 37
5, 22080, Note_on_c, 3, 54, 64
5, 22140, Note_off_c, 3, 54, 61
5, 22140, Note_on_c, 3, 55, 64
5, 22200, Note_off_c, 3, 55, 72
5, 22200, Note_on_c, 3, 57, 64
5, 22260, Note_off_c, 3, 57, 57
5, 22260, Note_on_c, 3, 59, 64
5, 22320, Note_off_c, 3, 59, 48
5, 22320, Note_on_c, 3, 60, 64
5, 22380, Note_off_c, 3, 60, 47
5, 22380, Note_on_c, 3, 62, 64
5, 22440, Note_off_c, 3, 62, 49
5, 22440, Note_on_c, 3, 52, 64
5, 22500, Note_off_c, 3, 52, 46
5, 22500, Note_on_c, 3, 51, 64
5, 22560, Note_off_c, 3, 51, 58
5, 22560, Note_on_c, 3, 55, 64
5, 23100, Note_off_c, 3, 55, 68
5, 23100, Note_on_c, 3, 47, 64
5, 23160, Note_off_c, 3, 47, 39
5, 23160, Note_on_c, 3, 49, 64
5, 23220, Note_off_c, 3, 49, 61
5, 23220, Note_on_c, 3, 50, 64
5, 23280, Note_off_c, 3, 50, 57
5, 23280, Note_on_c, 3, 52, 64
5, 23340, Note_off_c, 3, 52, 55
5, 23340, Note_on_c, 3, 54, 64
5, 23400, Note_off_c, 3, 54, 59
5, 23400, Note_on_c, 3, 47, 64
5, 23460, Note_off_c, 3, 47, 38
5, 23460, Note_on_c, 3, 46, 64
5, 23520, Note_off_c, 3, 46, 52
5, 23520, Note_on_c, 3, 47, 64
5, 24120, Note_off_c, 3, 47, 49
5, 24120, Note_on_c, 3, 46, 64
5, 24240, Note_off_c, 3, 46, 17
5, 24240, Note_on_c, 3, 47, 64
5, 24360, Note_off_c, 3, 47, 27
5, 24360, Note_on_c, 3, 50, 64
5, 24480, Note_off_c, 3, 50, 52
5, 24480, Note_on_c, 3, 52, 64
5, 24600, Note_off_c, 3, 52, 74
5, 24600, Note_on_c, 3, 43, 64
5, 24720, Note_off_c, 3, 43, 9
5, 24720, Note_on_c, 3, 45, 64
5, 24840, Note_off_c, 3, 45, 46
5, 24840, Note_on_c, 3, 49, 64
5, 24960, Note_off_c, 3, 49, 68
5, 24960, Note_on_c, 3, 50, 64
5, 25080, Note_off_c, 3, 50, 59
5, 25080, Note_on_c, 3, 42, 64
5, 25200, Note_off_c, 3, 42, 52
5, 25200, Note_on_c, 3, 43, 64
5, 25320, Note_off_c, 3, 43, 41
5, 25320, Note_on_c, 3, 47, 64
5, 25440, Note_off_c, 3, 47, 68
5, 25440, Note_on_c, 3, 49, 64
5, 25560, Note_off_c, 3, 49, 73
5, 25560, Note_on_c, 3, 40, 64
5, 25680, Note_off_c, 3, 40, 47
5, 25680, Note_on_c, 3, 42, 64
5, 25800, Note_off_c, 3, 42, 52
5, 25800, Note_on_c, 3, 46, 64
5, 25920, Note_off_c, 3, 46, 50
5, 25920, Note_on_c, 3, 47, 64
5, 26040, Note_off_c, 3, 47, 36
5, 26040, Note_on_c, 3, 50, 64
5, 26160, Note_off_c, 3, 50, 45
5, 26160, Note_on_c, 3, 52, 64
5, 26280, Note_off_c, 3, 52, 1
5, 26280, Note_on_c, 3, 55, 64
5, 26400, Note_off_c, 3, 55, 1
5, 26400, Note_on_c, 3, 57, 64
5, 26520, Note_off_c, 3, 57, 42
5, 26520, Note_on_c, 3, 60, 64
5, 26640, Note_off_c, 3, 60, 44
5, 26640, Note_on_c, 3, 62, 64
5, 26760, Note_off_c, 3, 62, 48
5, 26760, Note_on_c, 3, 54, 64
5, 26880, Note_off_c, 3, 54, 47
5, 26880, Note_on_c, 3, 55, 64
5, 27000, Note_off_c, 3, 55, 61
5, 27000, Note_on_c, 3, 59, 64
5, 27120, Note_off_c, 3, 59, 57
5, 27120, Note_on_c, 3, 60, 64
5, 27240, Note_off_c, 3, 60, 68
5, 27240, Note_on_c, 3, 52, 64
5, 27360, Note_off_c, 3, 52, 52
5, 27360, Note_on_c, 3, 54, 64
5, 27480, Note_off_c, 3, 54, 44
5, 27480, Note_on_c, 3, 57, 64
5, 27600, Note_off_c, 3, 57, 52
5, 27600, Note_on_c, 3, 59, 64
5, 27720, Note_off_c, 3, 59, 57
5, 27720, Note_on_c, 3, 51, 64
5, 27840, Note_off_c, 3, 51, 38
5, 27840, Note_on_c, 3, 52, 64
5, 28080, Note_off_c, 3, 52, 70
5, 35640, Note_on_c, 3, 52, 64
5, 35760, Note_off_c, 3, 52, 50
5, 35760, Note_on_c, 3, 50, 64
5, 35880, Note_off_c, 3, 50, 51
5, 35880, Note_on_c, 3, 47, 64
5, 36000, Note_off_c, 3, 47, 50
5, 36000, Note_on_c, 3, 55, 64
5, 36120, Note_off_c, 3, 55, 62
5, 36120, Note_on_c, 3, 54, 64
5, 36240, Note_off_c, 3, 54, 53
5, 36240, Note_on_c, 3, 59, 64
5, 36360, Note_off_c, 3, 59, 40
5, 36360, Note_on_c, 3, 58, 64
5, 36480, Note_off_c, 3, 58, 63
5, 36480, Note_on_c, 3, 52, 64
5, 36600, Note_off_c, 3, 52, 55
5, 36600, Note_on_c, 3, 51, 64
5, 36720, Note_off_c, 3, 51, 69
5, 36720, Note_on_c, 3, 60, 64
5, 36840, Note_off_c, 3, 60, 61
5, 36840, Note_on_c, 3, 59, 64
5, 36960, Note_off_c, 3, 59, 50
5, 36960, Note_on_c, 3, 54, 64
5, 37080, Note_off_c, 3, 54, 63
5, 37080, Note_on_c, 3, 53, 64
5, 37200, Note_off_c, 3, 53, 57
5, 37200, Note_on_c, 3, 62, 64
5, 37320, Note_off_c, 3, 62, 49
5, 37320, Note_on_c, 3, 61, 64
5, 37440, Note_off_c, 3, 61, 62
5, 37440, Note_on_c, 3, 60, 64
5, 37560, Note_off_c, 3, 60, 52
5, 37560, Note_on_c, 3, 61, 64
5, 37680, Note_off_c, 3, 61, 65
5, 37680, Note_on_c, 3, 57, 64
5, 37800, Note_off_c, 3, 57, 49
5, 37800, Note_on_c, 3, 54, 64
5, 37920, Note_off_c, 3, 54, 37
5, 37920, Note_on_c, 3, 56, 64
5, 38400, Note_off_c, 3, 56, 43
5, 38400, Note_on_c, 3, 54, 64
5, 38460, Note_off_c, 3, 54, 55
5, 38460, Note_on_c, 3, 52, 64
5, 38520, Note_off_c, 3, 52, 63
5, 38520, Note_on_c, 3, 50, 64
5, 38580, Note_off_c, 3, 50, 52
5, 38580, Note_on_c, 3, 49, 64
5, 38640, Note_off_c, 3, 49, 65
5, 38640, Note_on_c, 3, 47, 64
5, 38700, Note_off_c, 3, 47, 52
5, 38700, Note_on_c, 3, 49, 64
5, 38760, Note_off_c, 3, 49, 61
5, 38760, Note_on_c, 3, 50, 64
5, 38820, Note_off_c, 3, 50, 52
5, 38820, Note_on_c, 3, 54, 64
5, 38880, Note_off_c, 3, 54, 52
5, 38880, Note_on_c, 3, 52, 64
5, 38940, Note_off_c, 3, 52, 63
5, 38940, Note_on_c, 3, 49, 64
5, 39000, Note_off_c, 3, 49, 47
5, 39000, Note_on_c, 3, 50, 64
5, 39060, Note_off_c, 3, 50, 54
5, 39060, Note_on_c, 3, 54, 64
5, 39120, Note_off_c, 3, 54, 68
5, 39120, Note_on_c, 3, 55, 64
5, 39180, Note_off_c, 3, 55, 66
5, 39180, Note_on_c, 3, 52, 64
5, 39240, Note_off_c, 3, 52, 43
5, 39240, Note_on_c, 3, 54, 64
5, 39300, Note_off_c, 3, 54, 54
5, 39300, Note_on_c, 3, 58, 64
5, 39360, Note_off_c, 3, 58, 63
5, 39360, Note_on_c, 3, 59, 64
5, 39420, Note_off_c, 3, 59, 47
5, 39420, Note_on_c, 3, 57, 64
5, 39480, Note_off_c, 3, 57, 49
5, 39480, Note_on_c, 3, 55, 64
5, 39540, Note_off_c, 3, 55, 73
5, 39540, Note_on_c, 3, 54, 64
5, 39600, Note_off_c, 3, 54, 57
5, 39600, Note_on_c, 3, 52, 64
5, 39660, Note_off_c, 3, 52, 63
5, 39660, Note_on_c, 3, 54, 64
5, 39720, Note_off_c, 3, 54, 58
5, 39720, Note_on_c, 3, 55, 64
5, 39780, Note_off_c, 3, 55, 46
5, 39780, Note_on_c, 3, 59, 64
5, 39840, Note_off_c, 3, 59, 59
5, 39840, Note_on_c, 3, 57, 64
5, 39900, Note_off_c, 3, 57, 53
5, 39900, Note_on_c, 3, 54, 64
5, 39960, Note_off_c, 3, 54, 61
5, 39960, Note_on_c, 3, 55, 64
5, 40020, Note_off_c, 3, 55, 54
5, 40020, Note_on_c, 3, 59, 64
5, 40080, Note_off_c, 3, 59, 55
5, 40080, Note_on_c, 3, 60, 64
5, 40140, Note_off_c, 3, 60, 59
5, 40140, Note_on_c, 3, 57, 64
5, 40200, Note_off_c, 3, 57, 37
5, 40200, Note_on_c, 3, 59, 64
5, 40260, Note_off_c, 3, 59, 49
5, 40260, Note_on_c, 3, 63, 64
5, 40320, Note_off_c, 3, 63, 46
5, 40320, Note_on_c, 3, 64, 64
5, 40440, Note_off_c, 3, 64, 40
5, 40440, Note_on_c, 3, 52, 64
5, 40560, Note_off_c, 3, 52, 49
5, 40560, Note_on_c, 3, 49, 64
5, 40680, Note_off_c, 3, 49, 49
5, 40680, Note_on_c, 3, 45, 64
5, 40800, Note_off_c, 3, 45, 7
5, 40800, Note_on_c, 3, 54, 64
5, 40920, Note_off_c, 3, 54, 37
5, 40920, Note_on_c, 3, 52, 64
5, 41040, Note_off_c, 3, 52, 51
5, 41040, Note_on_c, 3, 57, 64
5, 41160, Note_off_c, 3, 57, 41
5, 41160, Note_on_c, 3, 56, 64
5, 41280, Note_off_c, 3, 56, 50
5, 41280, Note_on_c, 3, 50, 64
5, 41400, Note_off_c, 3, 50, 25
5, 41400, Note_on_c, 3, 49, 64
5, 41520, Note_off_c, 3, 49, 43
5, 41520, Note_on_c, 3, 50, 64
5, 42480, Note_off_c, 3, 50, 61
5, 44760, Note_on_c, 3, 50, 64
5, 44880, Note_off_c, 3, 50, 58
5, 44880, Note_on_c, 3, 49, 64
5, 45000, Note_off_c, 3, 49, 49
5, 45000, Note_on_c, 3, 45, 64
5, 45120, Note_off_c, 3, 45, 34
5, 45120, Note_on_c, 3, 54, 64
5, 45240, Note_off_c, 3, 54, 23
5, 45240, Note_on_c, 3, 50, 64
5, 45360, Note_off_c, 3, 50, 45
5, 45360, Note_on_c, 3, 55, 64
5, 45480, Note_off_c, 3, 55, 29
5, 45480, Note_on_c, 3, 54, 64
5, 45600, Note_off_c, 3, 54, 51
5, 45600, Note_on_c, 3, 48, 64
5, 45720, Note_off_c, 3, 48, 58
5, 45720, Note_on_c, 3, 47, 64
5, 45840, Note_off_c, 3, 47, 42
5, 45840, Note_on_c, 3, 57, 64
5, 45960, Note_off_c, 3, 57, 30
5, 45960, Note_on_c, 3, 56, 64
5, 46080, Note_off_c, 3, 56, 46
5, 46080, Note_on_c, 3, 50, 64
5, 46200, Note_off_c, 3, 50, 37
5, 46200, Note_on_c, 3, 49, 64
5, 46320, Note_off_c, 3, 49, 58
5, 46320, Note_on_c, 3, 58, 64
5, 46440, Note_off_c, 3, 58, 61
5, 46440, Note_on_c, 3, 57, 64
5, 46560, Note_off_c, 3, 57, 49
5, 46560, Note_on_c, 3, 56, 64
5, 46680, Note_off_c, 3, 56, 53
5, 46680, Note_on_c, 3, 57, 64
5, 46800, Note_off_c, 3, 57, 53
5, 46800, Note_on_c, 3, 54, 64
5, 46920, Note_off_c, 3, 54, 57
5, 46920, Note_on_c, 3, 50, 64
5, 47040, Note_off_c, 3, 50, 32
5, 47040, Note_on_c, 3, 52, 64
5, 47520, Note_off_c, 3, 52, 61
5, 47520, Note_on_c, 3, 50, 64
5, 47760, Note_off_c, 3, 50, 38
5, 47880, Note_on_c, 3, 47, 64
5, 48000, Note_off_c, 3, 47, 50
5, 48000, Note_on_c, 3, 45, 64
5, 48240, Note_off_c, 3, 45, 32
5, 48360, Note_on_c, 3, 54, 64
5, 48480, Note_off_c, 3, 54, 53
5, 48480, Note_on_c, 3, 52, 64
5, 48720, Note_off_c, 3, 52, 65
5, 48840, Note_on_c, 3, 49, 64
5, 48960, Note_off_c, 3, 49, 57
5, 48960, Note_on_c, 3, 47, 64
5, 49020, Note_off_c, 3, 47, 61
5, 49020, Note_on_c, 3, 42, 64
5, 49080, Note_off_c, 3, 42, 59
5, 49080, Note_on_c, 3, 44, 64
5, 49140, Note_off_c, 3, 44, 57
5, 49140, Note_on_c, 3, 45, 64
5, 49200, Note_off_c, 3, 45, 66
5, 49200, Note_on_c, 3, 47, 64
5, 49260, Note_off_c, 3, 47, 54
5, 49260, Note_on_c, 3, 49, 64
5, 49320, Note_off_c, 3, 49, 74
5, 49320, Note_on_c, 3, 42, 64
5, 49380, Note_off_c, 3, 42, 52
5, 49380, Note_on_c, 3, 41, 64
5, 49440, Note_off_c, 3, 41, 24
5, 49440, Note_on_c, 3, 45, 64
5, 50160, Note_off_c, 3, 45, 52
5, 50160, Note_on_c, 3, 44, 64
5, 50400, Note_off_c, 3, 44, 50
5, 50400, Note_on_c, 3, 42, 64
5, 50520, Note_off_c, 3, 42, 58
5, 54360, Note_on_c, 3, 47, 64
5, 54480, Note_off_c, 3, 47, 72
5, 54480, Note_on_c, 3, 44, 64
5, 54600, Note_off_c, 3, 44, 36
5, 54600, Note_on_c, 3, 40, 64
5, 54720, Note_off_c, 3, 40, 25
5, 54720, Note_on_c, 3, 49, 64
5, 54840, Note_off_c, 3, 49, 55
5, 54840, Note_on_c, 3, 47, 64
5, 54960, Note_off_c, 3, 47, 57
5, 54960, Note_on_c, 3, 52, 64
5, 55080, Note_off_c, 3, 52, 62
5, 55080, Note_on_c, 3, 51, 64
5, 55200, Note_off_c, 3, 51, 57
5, 55200, Note_on_c, 3, 45, 64
5, 55320, Note_off_c, 3, 45, 33
5, 55320, Note_on_c, 3, 44, 64
5, 55440, Note_off_c, 3, 44, 61
5, 55440, Note_on_c, 3, 53, 64
5, 55560, Note_off_c, 3, 53, 52
5, 55560, Note_on_c, 3, 52, 64
5, 55680, Note_off_c, 3, 52, 62
5, 55680, Note_on_c, 3, 47, 64
5, 55800, Note_off_c, 3, 47, 63
5, 55800, Note_on_c, 3, 46, 64
5, 55920, Note_off_c, 3, 46, 65
5, 55920, Note_on_c, 3, 55, 64
5, 56040, Note_off_c, 3, 55, 59
5, 56040, Note_on_c, 3, 54, 64
5, 56160, Note_off_c, 3, 54, 47
5, 56160, Note_on_c, 3, 53, 64
5, 56280, Note_off_c, 3, 53, 63
5, 56280, Note_on_c, 3, 54, 64
5, 56400, Note_off_c, 3, 54, 68
5, 56400, Note_on_c, 3, 50, 64
5, 56520, Note_off_c, 3, 50, 53
5, 56520, Note_on_c, 3, 47, 64
5, 56640, Note_off_c, 3, 47, 34
5, 56640, Note_on_c, 3, 49, 64
5, 57120, Note_off_c, 3, 49, 63
5, 57120, Note_on_c, 3, 47, 64
5, 57240, Note_off_c, 3, 47, 77
5, 66360, Note_on_c, 3, 47, 64
5, 66480, Note_off_c, 3, 47, 54
5, 66480, Note_on_c, 3, 43, 64
5, 66600, Note_off_c, 3, 43, 46
5, 66600, Note_on_c, 3, 40, 64
5, 66720, Note_off_c, 3, 40, 41
5, 66720, Note_on_c, 3, 48, 64
5, 66840, Note_off_c, 3, 48, 57
5, 66840, Note_on_c, 3, 47, 64
5, 66960, Note_off_c, 3, 47, 69
5, 66960, Note_on_c, 3, 52, 64
5, 67080, Note_off_c, 3, 52, 63
5, 67080, Note_on_c, 3, 51, 64
5, 67200, Note_off_c, 3, 51, 61
5, 67200, Note_on_c, 3, 45, 64
5, 67320, Note_off_c, 3, 45, 40
5, 67320, Note_on_c, 3, 44, 64
5, 67440, Note_off_c, 3, 44, 59
5, 67440, Note_on_c, 3, 53, 64
5, 67560, Note_off_c, 3, 53, 43
5, 67560, Note_on_c, 3, 52, 64
5, 67680, Note_off_c, 3, 52, 65
5, 67680, Note_on_c, 3, 47, 64
5, 67800, Note_off_c, 3, 47, 68
5, 67800, Note_on_c, 3, 46, 64
5, 67920, Note_off_c, 3, 46, 61
5, 67920, Note_on_c, 3, 55, 64
5, 68040, Note_off_c, 3, 55, 51
5, 68040, Note_on_c, 3, 54, 64
5, 68160, Note_off_c, 3, 54, 43
5, 68160, Note_on_c, 3, 52, 64
5, 68280, Note_off_c, 3, 52, 62
5, 68400, Note_on_c, 3, 50, 64
5, 68520, Note_off_c, 3, 50, 52
5, 68520, Note_on_c, 3, 47, 64
5, 68640, Note_off_c, 3, 47, 42
5, 68640, Note_on_c, 3, 49, 64
5, 69120, Note_off_c, 3, 49, 62
5, 69120, Note_on_c, 3, 50, 64
5, 69360, Note_off_c, 3, 50, 66
5, 69480, Note_on_c, 3, 51, 64
5, 69600, Note_off_c, 3, 51, 69
5, 69600, Note_on_c, 3, 52, 64
5, 69840, Note_off_c, 3, 52, 62
5, 69960, Note_on_c, 3, 53, 64
5, 70080, Note_off_c, 3, 53, 54
5, 70080, Note_on_c, 3, 54, 64
5, 71100, Note_off_c, 3, 54, 65
5, 71100, Note_on_c, 3, 46, 64
5, 71160, Note_off_c, 3, 46, 46
5, 71160, Note_on_c, 3, 47, 64
5, 71220, Note_off_c, 3, 47, 28
5, 71220, Note_on_c, 3, 49, 64
5, 71280, Note_off_c, 3, 49, 62
5, 71280, Note_on_c, 3, 51, 64
5, 71340, Note_off_c, 3, 51, 23
5, 71340, Note_on_c, 3, 52, 64
5, 71400, Note_off_c, 3, 52, 54
5, 71400, Note_on_c, 3, 42, 64
5, 71460, Note_off_c, 3, 42, 57
5, 71460, Note_on_c, 3, 41, 64
5, 71520, Note_off_c, 3, 41, 20
5, 71520, Note_on_c, 3, 42, 64
5, 71580, Note_on_c, 3, 47, 64
5, 71640, Note_off_c, 3, 47, 25
5, 71640, Note_on_c, 3, 49, 64
5, 71700, Note_off_c, 3, 49, 68
5, 71700, Note_on_c, 3, 50, 64
5, 71760, Note_off_c, 3, 50, 69
5, 71760, Note_on_c, 3, 52, 64
5, 71820, Note_off_c, 3, 52, 79
5, 71820, Note_on_c, 3, 49, 64
5, 71880, Note_off_c, 3, 49, 72
5, 71880, Note_on_c, 3, 54, 64
5, 72000, Note_off_c, 3, 42, 43
5, 72000, Note_on_c, 3, 47, 64
5, 72960, Note_off_c, 3, 47, 61
5, 72960, Note_off_c, 3, 54, 54
5, 72960, End_track
0, 0, End_of_file
