0, 0, Header, 1, 3, 240
1, 0, Start_track
1, 0, Time_signature, 4, 2, 24, 8
1, 0, Tempo, 878426
1, 30540, Tempo, 910894
1, 30600, Tempo, 750000
1, 30660, Tempo, 869565
1, 30720, Tempo, 1333333
1, 30960, Tempo, 1200000
1, 31020, Tempo, 1071429
1, 31080, Tempo, 967742
1, 31140, Tempo, 882353
1, 31204, Tempo, 810811
1, 31320, Tempo, 779221
1, 31440, Tempo, 750000
1, 31500, Tempo, 800000
1, 31560, Tempo, 857143
1, 31620, Tempo, 923077
1, 31664, Tempo, 3157895
1, 31680, Tempo, 1132075
1, 31740, Tempo, 1428571
1, 31800, Tempo, 1200000
1, 32160, Tempo, 1153846
1, 32400, Tempo, 1333333
1, 32640, Tempo, 1000000
1, 32640, End_track
2, 0, Start_track
2, 0, Text_t, "RH B"
2, 60, Note_on_c, 0, 74, 64
2, 120, Note_off_c, 0, 74, 68
2, 120, Note_on_c, 0, 76, 64
2, 180, Note_off_c, 0, 76, 63
2, 180, Note_on_c, 0, 78, 64
2, 240, Note_off_c, 0, 78, 57
2, 240, Note_on_c, 0, 69, 64
2, 300, Note_off_c, 0, 69, 73
2, 300, Note_on_c, 0, 78, 64
2, 360, Note_off_c, 0, 78, 61
2, 360, Note_on_c, 0, 76, 64
2, 420, Note_off_c, 0, 76, 57
2, 420, Note_on_c, 0, 74, 64
2, 480, Note_off_c, 0, 74, 70
2, 480, Note_on_c, 0, 81, 64
2, 540, Note_off_c, 0, 81, 47
2, 540, Note_on_c, 0, 74, 64
2, 600, Note_off_c, 0, 74, 63
2, 600, Note_on_c, 0, 76, 64
2, 660, Note_off_c, 0, 76, 59
2, 660, Note_on_c, 0, 78, 64
2, 720, Note_off_c, 0, 78, 59
2, 720, Note_on_c, 0, 69, 64
2, 780, Note_off_c, 0, 69, 66
2, 780, Note_on_c, 0, 78, 64
2, 840, Note_off_c, 0, 78, 59
2, 840, Note_on_c, 0, 76, 64
2, 900, Note_off_c, 0, 76, 55
2, 900, Note_on_c, 0, 74, 64
2, 960, Note_off_c, 0, 74, 57
2, 960, Note_on_c, 0, 79, 64
2, 1020, Note_off_c, 0, 79, 54
2, 1020, Note_on_c, 0, 76, 64
2, 1080, Note_off_c, 0, 76, 48
2, 1080, Note_on_c, 0, 78, 64
2, 1140, Note_off_c, 0, 78, 52
2, 1140, Note_on_c, 0, 79, 64
2, 1200, Note_off_c, 0, 79, 65
2, 1200, Note_on_c, 0, 71, 64
2, 1260, Note_off_c, 0, 71, 69
2, 1260, Note_on_c, 0, 74, 64
2, 1320, Note_off_c, 0, 74, 53
2, 1320, Note_on_c, 0, 73, 64
2, 1380, Note_off_c, 0, 73, 69
2, 1380, Note_on_c, 0, 71, 64
2, 1440, Note_off_c, 0, 71, 53
2, 1440, Note_on_c, 0, 73, 64
2, 1500, Note_off_c, 0, 73, 65
2, 1500, Note_on_c, 0, 76, 64
2, 1560, Note_off_c, 0, 76, 42
2, 1560, Note_on_c, 0, 78, 64
2, 1620, Note_off_c, 0, 78, 38
2, 1620, Note_on_c, 0, 79, 64
2, 1680, Note_off_c, 0, 79, 50
2, 1680, Note_on_c, 0, 69, 64
2, 1740, Note_off_c, 0, 69, 53
2, 1740, Note_on_c, 0, 79, 64
2, 1800, Note_off_c, 0, 79, 38
2, 1800, Note_on_c, 0, 78, 64
2, 1860, Note_off_c, 0, 78, 55
2, 1860, Note_on_c, 0, 76, 64
2, 1920, Note_off_c, 0, 76, 52
2, 1920, Note_on_c, 0, 78, 64
2, 1980, Note_off_c, 0, 78, 51
2, 1980, Note_on_c, 0, 74, 64
2, 2040, Note_off_c, 0, 74, 49
2, 2040, Note_on_c, 0, 76, 64
2, 2100, Note_off_c, 0, 76, 49
2, 2100, Note_on_c, 0, 78, 64
2, 2160, Note_off_c, 0, 78, 55
2, 2160, Note_on_c, 0, 69, 64
2, 2220, Note_off_c, 0, 69, 59
2, 2220, Note_on_c, 0, 73, 64
2, 2280, Note_off_c, 0, 73, 63
2, 2280, Note_on_c, 0, 71, 64
2, 2340, Note_off_c, 0, 71, 76
2, 2340, Note_on_c, 0, 69, 64
2, 2400, Note_off_c, 0, 69, 55
2, 2400, Note_on_c, 0, 71, 64
2, 2460, Note_off_c, 0, 71, 72
2, 2460, Note_on_c, 0, 74, 64
2, 2520, Note_off_c, 0, 74, 66
2, 2520, Note_on_c, 0, 76, 64
2, 2580, Note_off_c, 0, 76, 49
2, 2580, Note_on_c, 0, 78, 64
2, 2640, Note_off_c, 0, 78, 72
2, 2640, Note_on_c, 0, 71, 64
2, 2700, Note_off_c, 0, 71, 61
2, 2700, Note_on_c, 0, 81, 64
2, 2760, Note_off_c, 0, 81, 50
2, 2760, Note_on_c, 0, 80, 64
2, 2820, Note_off_c, 0, 80, 80
2, 2820, Note_on_c, 0, 78, 64
2, 2880, Note_off_c, 0, 78, 52
2, 2880, Note_on_c, 0, 80, 64
2, 2940, Note_off_c, 0, 80, 59
2, 2940, Note_on_c, 0, 76, 64
2, 3000, Note_off_c, 0, 76, 39
2, 3000, Note_on_c, 0, 78, 64
2, 3060, Note_off_c, 0, 78, 54
2, 3060, Note_on_c, 0, 80, 64
2, 3120, Note_off_c, 0, 80, 73
2, 3120, Note_on_c, 0, 71, 64
2, 3180, Note_off_c, 0, 71, 63
2, 3180, Note_on_c, 0, 74, 64
2, 3240, Note_off_c, 0, 74, 63
2, 3240, Note_on_c, 0, 73, 64
2, 3300, Note_off_c, 0, 73, 72
2, 3300, Note_on_c, 0, 71, 64
2, 3360, Note_off_c, 0, 71, 82
2, 3360, Note_on_c, 0, 69, 64
2, 3420, Note_off_c, 0, 69, 52
2, 3420, Note_on_c, 0, 73, 64
2, 3480, Note_off_c, 0, 73, 70
2, 3480, Note_on_c, 0, 74, 64
2, 3540, Note_off_c, 0, 74, 61
2, 3540, Note_on_c, 0, 76, 64
2, 3600, Note_off_c, 0, 76, 41
2, 3600, Note_on_c, 0, 66, 64
2, 3660, Note_off_c, 0, 66, 42
2, 3660, Note_on_c, 0, 76, 64
2, 3720, Note_off_c, 0, 76, 28
2, 3720, Note_on_c, 0, 74, 64
2, 3780, Note_off_c, 0, 74, 55
2, 3780, Note_on_c, 0, 73, 64
2, 3840, Note_off_c, 0, 73, 72
2, 3840, Note_on_c, 0, 74, 64
2, 3900, Note_off_c, 0, 74, 49
2, 3900, Note_on_c, 0, 71, 64
2, 3960, Note_off_c, 0, 71, 53
2, 3960, Note_on_c, 0, 73, 64
2, 4020, Note_off_c, 0, 73, 65
2, 4020, Note_on_c, 0, 74, 64
2, 4080, Note_off_c, 0, 74, 70
2, 4080, Note_on_c, 0, 66, 64
2, 4140, Note_off_c, 0, 66, 57
2, 4140, Note_on_c, 0, 69, 64
2, 4200, Note_off_c, 0, 69, 69
2, 4200, Note_on_c, 0, 68, 64
2, 4260, Note_off_c, 0, 68, 73
2, 4260, Note_on_c, 0, 66, 64
2, 4320, Note_off_c, 0, 66, 65
2, 4320, Note_on_c, 0, 68, 64
2, 4380, Note_off_c, 0, 68, 72
2, 4380, Note_on_c, 0, 71, 64
2, 4440, Note_off_c, 0, 71, 65
2, 4440, Note_on_c, 0, 73, 64
2, 4500, Note_off_c, 0, 73, 53
2, 4500, Note_on_c, 0, 74, 64
2, 4560, Note_off_c, 0, 74, 69
2, 4560, Note_on_c, 0, 64, 64
2, 4620, Note_off_c, 0, 64, 40
2, 4620, Note_on_c, 0, 74, 64
2, 4680, Note_off_c, 0, 74, 62
2, 4680, Note_on_c, 0, 73, 64
2, 4740, Note_off_c, 0, 73, 61
2, 4740, Note_on_c, 0, 71, 64
2, 4800, Note_off_c, 0, 71, 69
2, 4800, Note_on_c, 0, 73, 64
2, 4860, Note_off_c, 0, 73, 57
2, 4860, Note_on_c, 0, 69, 64
2, 4920, Note_off_c, 0, 69, 54
2, 4920, Note_on_c, 0, 71, 64
2, 4980, Note_off_c, 0, 71, 73
2, 4980, Note_on_c, 0, 73, 64
2, 5040, Note_off_c, 0, 73, 63
2, 5040, Note_on_c, 0, 64, 64
2, 5100, Note_off_c, 0, 64, 45
2, 5100, Note_on_c, 0, 67, 64
2, 5160, Note_off_c, 0, 67, 49
2, 5160, Note_on_c, 0, 66, 64
2, 5220, Note_off_c, 0, 66, 70
2, 5220, Note_on_c, 0, 64, 64
2, 5280, Note_off_c, 0, 64, 25
2, 5280, Note_on_c, 0, 66, 64
2, 5340, Note_off_c, 0, 66, 63
2, 5340, Note_on_c, 0, 69, 64
2, 5400, Note_off_c, 0, 69, 49
2, 5400, Note_on_c, 0, 71, 64
2, 5460, Note_off_c, 0, 71, 53
2, 5460, Note_on_c, 0, 73, 64
2, 5520, Note_off_c, 0, 73, 76
2, 5520, Note_on_c, 0, 66, 64
2, 5580, Note_off_c, 0, 66, 59
2, 5580, Note_on_c, 0, 76, 64
2, 5640, Note_off_c, 0, 76, 44
2, 5640, Note_on_c, 0, 75, 64
2, 5700, Note_off_c, 0, 75, 61
2, 5700, Note_on_c, 0, 73, 64
2, 5760, Note_off_c, 0, 73, 47
2, 5760, Note_on_c, 0, 75, 64
2, 5820, Note_off_c, 0, 75, 50
2, 5820, Note_on_c, 0, 71, 64
2, 5880, Note_off_c, 0, 71, 65
2, 5880, Note_on_c, 0, 73, 64
2, 5940, Note_off_c, 0, 73, 57
2, 5940, Note_on_c, 0, 75, 64
2, 6000, Note_off_c, 0, 75, 54
2, 6000, Note_on_c, 0, 66, 64
2, 6060, Note_off_c, 0, 66, 47
2, 6060, Note_on_c, 0, 69, 64
2, 6120, Note_off_c, 0, 69, 65
2, 6120, Note_on_c, 0, 67, 64
2, 6180, Note_off_c, 0, 67, 63
2, 6180, Note_on_c, 0, 66, 64
2, 6240, Note_off_c, 0, 66, 79
2, 6240, Note_on_c, 0, 64, 64
2, 6300, Note_off_c, 0, 64, 13
2, 6300, Note_on_c, 0, 67, 64
2, 6360, Note_off_c, 0, 67, 34
2, 6360, Note_on_c, 0, 69, 64
2, 6420, Note_off_c, 0, 69, 45
2, 6420, Note_on_c, 0, 71, 64
2, 6480, Note_off_c, 0, 71, 69
2, 6480, Note_on_c, 0, 61, 64
2, 6540, Note_off_c, 0, 61, 68
2, 6540, Note_on_c, 0, 74, 64
2, 6600, Note_off_c, 0, 74, 50
2, 6600, Note_on_c, 0, 73, 64
2, 6660, Note_off_c, 0, 73, 37
2, 6660, Note_on_c, 0, 71, 64
2, 6720, Note_off_c, 0, 71, 79
2, 6720, Note_on_c, 0, 70, 64
2, 6780, Note_off_c, 0, 70, 66
2, 6780, Note_on_c, 0, 64, 64
2, 6840, Note_off_c, 0, 64, 36
2, 6840, Note_on_c, 0, 66, 64
2, 6900, Note_off_c, 0, 66, 59
2, 6900, Note_on_c, 0, 67, 64
2, 6960, Note_off_c, 0, 67, 1
2, 6960, Note_on_c, 0, 61, 64
2, 7020, Note_off_c, 0, 61, 65
2, 7020, Note_on_c, 0, 67, 64
2, 7080, Note_off_c, 0, 67, 43
2, 7080, Note_on_c, 0, 66, 64
2, 7140, Note_off_c, 0, 66, 43
2, 7140, Note_on_c, 0, 64, 64
2, 7200, Note_off_c, 0, 64, 55
2, 7200, Note_on_c, 0, 62, 64
2, 7260, Note_off_c, 0, 62, 16
2, 7260, Note_on_c, 0, 71, 64
2, 7320, Note_off_c, 0, 71, 65
2, 7320, Note_on_c, 0, 73, 64
2, 7380, Note_off_c, 0, 73, 49
2, 7380, Note_on_c, 0, 74, 64
2, 7440, Note_off_c, 0, 74, 66
2, 7440, Note_on_c, 0, 66, 64
2, 7500, Note_off_c, 0, 66, 62
2, 7500, Note_on_c, 0, 69, 64
2, 7560, Note_off_c, 0, 69, 63
2, 7560, Note_on_c, 0, 68, 64
2, 7620, Note_off_c, 0, 68, 61
2, 7620, Note_on_c, 0, 66, 64
2, 7680, Note_off_c, 0, 66, 77
2, 7680, Note_on_c, 0, 65, 64
2, 7740, Note_off_c, 0, 65, 35
2, 7740, Note_on_c, 0, 68, 64
2, 7800, Note_off_c, 0, 68, 65
2, 7800, Note_on_c, 0, 69, 64
2, 7860, Note_off_c, 0, 69, 37
2, 7860, Note_on_c, 0, 71, 64
2, 7920, Note_off_c, 0, 71, 76
2, 7920, Note_on_c, 0, 65, 64
2, 7980, Note_off_c, 0, 65, 52
2, 7980, Note_on_c, 0, 74, 64
2, 8040, Note_off_c, 0, 74, 46
2, 8040, Note_on_c, 0, 73, 64
2, 8100, Note_off_c, 0, 73, 51
2, 8100, Note_on_c, 0, 71, 64
2, 8160, Note_off_c, 0, 71, 80
2, 8160, Note_on_c, 0, 80, 64
2, 8220, Note_off_c, 0, 80, 58
2, 8220, Note_on_c, 0, 77, 64
2, 8280, Note_off_c, 0, 77, 51
2, 8280, Note_on_c, 0, 78, 64
2, 8340, Note_off_c, 0, 78, 44
2, 8340, Note_on_c, 0, 80, 64
2, 8400, Note_off_c, 0, 80, 79
2, 8400, Note_on_c, 0, 73, 64
2, 8460, Note_off_c, 0, 73, 55
2, 8460, Note_on_c, 0, 83, 64
2, 8520, Note_off_c, 0, 83, 49
2, 8520, Note_on_c, 0, 81, 64
2, 8580, Note_off_c, 0, 81, 62
2, 8580, Note_on_c, 0, 80, 64
2, 8640, Note_off_c, 0, 80, 63
2, 8640, Note_on_c, 0, 81, 64
2, 8700, Note_off_c, 0, 81, 57
2, 8700, Note_on_c, 0, 78, 64
2, 8760, Note_off_c, 0, 78, 41
2, 8760, Note_on_c, 0, 80, 64
2, 8820, Note_off_c, 0, 80, 52
2, 8820, Note_on_c, 0, 81, 64
2, 8880, Note_off_c, 0, 81, 54
2, 8880, Note_on_c, 0, 73, 64
2, 8940, Note_off_c, 0, 73, 66
2, 8940, Note_on_c, 0, 76, 64
2, 9000, Note_off_c, 0, 76, 49
2, 9000, Note_on_c, 0, 75, 64
2, 9060, Note_off_c, 0, 75, 58
2, 9060, Note_on_c, 0, 73, 64
2, 9120, Note_off_c, 0, 73, 63
2, 9120, Note_on_c, 0, 75, 64
2, 9180, Note_off_c, 0, 75, 54
2, 9180, Note_on_c, 0, 78, 64
2, 9240, Note_off_c, 0, 78, 73
2, 9240, Note_on_c, 0, 79, 64
2, 9300, Note_off_c, 0, 79, 66
2, 9300, Note_on_c, 0, 81, 64
2, 9360, Note_off_c, 0, 81, 61
2, 9360, Note_on_c, 0, 71, 64
2, 9420, Note_off_c, 0, 71, 62
2, 9420, Note_on_c, 0, 81, 64
2, 9480, Note_off_c, 0, 81, 50
2, 9480, Note_on_c, 0, 79, 64
2, 9540, Note_off_c, 0, 79, 62
2, 9540, Note_on_c, 0, 78, 64
2, 9600, Note_off_c, 0, 78, 45
2, 9600, Note_on_c, 0, 79, 64
2, 9660, Note_off_c, 0, 79, 61
2, 9660, Note_on_c, 0, 76, 64
2, 9720, Note_off_c, 0, 76, 43
2, 9720, Note_on_c, 0, 78, 64
2, 9780, Note_off_c, 0, 78, 53
2, 9780, Note_on_c, 0, 79, 64
2, 9840, Note_off_c, 0, 79, 68
2, 9840, Note_on_c, 0, 71, 64
2, 9900, Note_off_c, 0, 71, 70
2, 9900, Note_on_c, 0, 74, 64
2, 9960, Note_off_c, 0, 74, 58
2, 9960, Note_on_c, 0, 72, 64
2, 10020, Note_off_c, 0, 72, 83
2, 10020, Note_on_c, 0, 71, 64
2, 10080, Note_off_c, 0, 71, 58
2, 10080, Note_on_c, 0, 72, 64
2, 10140, Note_off_c, 0, 72, 70
2, 10140, Note_on_c, 0, 75, 64
2, 10200, Note_off_c, 0, 75, 33
2, 10200, Note_on_c, 0, 76, 64
2, 10260, Note_off_c, 0, 76, 37
2, 10260, Note_on_c, 0, 78, 64
2, 10320, Note_off_c, 0, 78, 66
2, 10320, Note_on_c, 0, 69, 64
2, 10380, Note_off_c, 0, 69, 59
2, 10380, Note_on_c, 0, 72, 64
2, 10440, Note_off_c, 0, 72, 68
2, 10440, Note_on_c, 0, 71, 64
2, 10500, Note_off_c, 0, 71, 80
2, 10500, Note_on_c, 0, 69, 64
2, 10560, Note_off_c, 0, 69, 74
2, 10560, Note_on_c, 0, 67, 64
2, 10620, Note_off_c, 0, 67, 42
2, 10620, Note_on_c, 0, 76, 64
2, 10680, Note_off_c, 0, 76, 30
2, 10680, Note_on_c, 0, 78, 64
2, 10740, Note_off_c, 0, 78, 47
2, 10740, Note_on_c, 0, 79, 64
2, 10800, Note_off_c, 0, 79, 50
2, 10800, Note_on_c, 0, 71, 64
2, 10860, Note_off_c, 0, 71, 59
2, 10860, Note_on_c, 0, 74, 64
2, 10920, Note_off_c, 0, 74, 59
2, 10920, Note_on_c, 0, 73, 64
2, 10980, Note_off_c, 0, 73, 70
2, 10980, Note_on_c, 0, 71, 64
2, 11040, Note_off_c, 0, 71, 52
2, 11040, Note_on_c, 0, 73, 64
2, 11100, Note_off_c, 0, 73, 48
2, 11100, Note_on_c, 0, 76, 64
2, 11160, Note_off_c, 0, 76, 52
2, 11160, Note_on_c, 0, 78, 64
2, 11220, Note_off_c, 0, 78, 42
2, 11220, Note_on_c, 0, 79, 64
2, 11280, Note_off_c, 0, 79, 54
2, 11280, Note_on_c, 0, 69, 64
2, 11340, Note_off_c, 0, 69, 62
2, 11340, Note_on_c, 0, 79, 64
2, 11400, Note_off_c, 0, 79, 33
2, 11400, Note_on_c, 0, 78, 64
2, 11460, Note_off_c, 0, 78, 70
2, 11460, Note_on_c, 0, 76, 64
2, 11520, Note_off_c, 0, 76, 22
2, 11520, Note_on_c, 0, 78, 64
2, 11580, Note_off_c, 0, 78, 55
2, 11580, Note_on_c, 0, 74, 64
2, 11640, Note_off_c, 0, 74, 43
2, 11640, Note_on_c, 0, 76, 64
2, 11700, Note_off_c, 0, 76, 49
2, 11700, Note_on_c, 0, 78, 64
2, 11760, Note_off_c, 0, 78, 62
2, 11760, Note_on_c, 0, 69, 64
2, 11820, Note_off_c, 0, 69, 66
2, 11820, Note_on_c, 0, 72, 64
2, 11880, Note_off_c, 0, 72, 66
2, 11880, Note_on_c, 0, 71, 64
2, 11940, Note_off_c, 0, 71, 72
2, 11940, Note_on_c, 0, 69, 64
2, 12000, Note_off_c, 0, 69, 68
2, 12000, Note_on_c, 0, 71, 64
2, 12060, Note_off_c, 0, 71, 62
2, 12060, Note_on_c, 0, 67, 64
2, 12120, Note_off_c, 0, 67, 43
2, 12120, Note_on_c, 0, 69, 64
2, 12180, Note_off_c, 0, 69, 73
2, 12180, Note_on_c, 0, 71, 64
2, 12240, Note_off_c, 0, 71, 77
2, 12240, Note_on_c, 0, 61, 64
2, 12300, Note_off_c, 0, 61, 72
2, 12300, Note_on_c, 0, 71, 64
2, 12360, Note_off_c, 0, 71, 57
2, 12360, Note_on_c, 0, 69, 64
2, 12420, Note_off_c, 0, 69, 77
2, 12420, Note_on_c, 0, 67, 64
2, 12480, Note_off_c, 0, 67, 15
2, 12480, Note_on_c, 0, 66, 64
2, 12540, Note_off_c, 0, 66, 52
2, 12540, Note_on_c, 0, 62, 64
2, 12600, Note_off_c, 0, 62, 63
2, 12600, Note_on_c, 0, 64, 64
2, 12660, Note_off_c, 0, 64, 46
2, 12660, Note_on_c, 0, 66, 64
2, 12720, Note_off_c, 0, 66, 66
2, 12720, Note_on_c, 0, 57, 64
2, 12780, Note_off_c, 0, 57, 65
2, 12780, Note_on_c, 0, 60, 64
2, 12840, Note_off_c, 0, 60, 57
2, 12840, Note_on_c, 0, 59, 64
2, 12900, Note_off_c, 0, 59, 54
2, 12900, Note_on_c, 0, 57, 64
2, 12960, Note_off_c, 0, 57, 63
2, 12960, Note_on_c, 0, 59, 64
2, 13020, Note_off_c, 0, 59, 46
2, 13020, Note_on_c, 0, 62, 64
2, 13080, Note_off_c, 0, 62, 47
2, 13080, Note_on_c, 0, 64, 64
2, 13140, Note_off_c, 0, 64, 1
2, 13140, Note_on_c, 0, 66, 64
2, 13200, Note_off_c, 0, 66, 65
2, 13200, Note_on_c, 0, 59, 64
2, 13260, Note_off_c, 0, 59, 36
2, 13260, Note_on_c, 0, 69, 64
2, 13320, Note_off_c, 0, 69, 50
2, 13320, Note_on_c, 0, 68, 64
2, 13380, Note_off_c, 0, 68, 82
2, 13380, Note_on_c, 0, 66, 64
2, 13440, Note_off_c, 0, 66, 65
2, 13440, Note_on_c, 0, 68, 64
2, 13500, Note_off_c, 0, 68, 70
2, 13500, Note_on_c, 0, 64, 64
2, 13560, Note_off_c, 0, 64, 58
2, 13560, Note_on_c, 0, 66, 64
2, 13620, Note_off_c, 0, 66, 23
2, 13620, Note_on_c, 0, 68, 64
2, 13680, Note_off_c, 0, 68, 74
2, 13680, Note_on_c, 0, 59, 64
2, 13740, Note_off_c, 0, 59, 49
2, 13740, Note_on_c, 0, 62, 64
2, 13800, Note_off_c, 0, 62, 48
2, 13800, Note_on_c, 0, 60, 64
2, 13860, Note_off_c, 0, 60, 54
2, 13860, Note_on_c, 0, 59, 64
2, 13920, Note_off_c, 0, 59, 55
2, 13920, Note_on_c, 0, 57, 64
2, 13980, Note_off_c, 0, 57, 25
2, 13980, Note_on_c, 0, 60, 64
2, 14040, Note_off_c, 0, 60, 51
2, 14040, Note_on_c, 0, 62, 64
2, 14100, Note_off_c, 0, 62, 1
2, 14100, Note_on_c, 0, 64, 64
2, 14160, Note_off_c, 0, 64, 55
2, 14160, Note_on_c, 0, 57, 64
2, 14220, Note_off_c, 0, 57, 46
2, 14220, Note_on_c, 0, 67, 64
2, 14280, Note_off_c, 0, 67, 30
2, 14280, Note_on_c, 0, 66, 64
2, 14340, Note_off_c, 0, 66, 62
2, 14340, Note_on_c, 0, 64, 64
2, 14400, Note_off_c, 0, 64, 55
2, 14400, Note_on_c, 0, 63, 64
2, 14460, Note_off_c, 0, 63, 48
2, 14460, Note_on_c, 0, 57, 64
2, 14520, Note_off_c, 0, 57, 44
2, 14520, Note_on_c, 0, 59, 64
2, 14580, Note_off_c, 0, 59, 62
2, 14580, Note_on_c, 0, 60, 64
2, 14640, Note_off_c, 0, 60, 62
2, 14640, Note_on_c, 0, 54, 64
2, 14700, Note_off_c, 0, 54, 57
2, 14700, Note_on_c, 0, 60, 64
2, 14760, Note_off_c, 0, 60, 52
2, 14760, Note_on_c, 0, 59, 64
2, 14820, Note_off_c, 0, 59, 61
2, 14820, Note_on_c, 0, 57, 64
2, 14880, Note_off_c, 0, 57, 61
2, 14880, Note_on_c, 0, 55, 64
2, 14940, Note_off_c, 0, 55, 66
2, 14940, Note_on_c, 0, 64, 64
2, 15000, Note_off_c, 0, 64, 46
2, 15000, Note_on_c, 0, 66, 64
2, 15060, Note_off_c, 0, 66, 57
2, 15060, Note_on_c, 0, 67, 64
2, 15120, Note_off_c, 0, 67, 54
2, 15120, Note_on_c, 0, 59, 64
2, 15180, Note_off_c, 0, 59, 38
2, 15180, Note_on_c, 0, 62, 64
2, 15240, Note_off_c, 0, 62, 52
2, 15240, Note_on_c, 0, 61, 64
2, 15300, Note_off_c, 0, 61, 76
2, 15300, Note_on_c, 0, 59, 64
2, 15360, Note_off_c, 0, 59, 51
2, 15360, Note_on_c, 0, 58, 64
2, 15420, Note_off_c, 0, 58, 66
2, 15420, Note_on_c, 0, 61, 64
2, 15480, Note_off_c, 0, 61, 69
2, 15480, Note_on_c, 0, 62, 64
2, 15540, Note_off_c, 0, 62, 53
2, 15540, Note_on_c, 0, 64, 64
2, 15600, Note_off_c, 0, 64, 55
2, 15600, Note_on_c, 0, 58, 64
2, 15660, Note_off_c, 0, 58, 68
2, 15660, Note_on_c, 0, 67, 64
2, 15720, Note_off_c, 0, 67, 48
2, 15720, Note_on_c, 0, 66, 64
2, 15780, Note_off_c, 0, 66, 63
2, 15780, Note_on_c, 0, 64, 64
2, 15840, Note_off_c, 0, 64, 62
2, 15840, Note_on_c, 0, 73, 64
2, 15900, Note_off_c, 0, 73, 76
2, 15900, Note_on_c, 0, 70, 64
2, 15960, Note_off_c, 0, 70, 79
2, 15960, Note_on_c, 0, 71, 64
2, 16020, Note_off_c, 0, 71, 73
2, 16020, Note_on_c, 0, 73, 64
2, 16080, Note_off_c, 0, 73, 68
2, 16080, Note_on_c, 0, 66, 64
2, 16140, Note_off_c, 0, 66, 65
2, 16140, Note_on_c, 0, 76, 64
2, 16200, Note_off_c, 0, 76, 40
2, 16200, Note_on_c, 0, 74, 64
2, 16260, Note_off_c, 0, 74, 62
2, 16260, Note_on_c, 0, 73, 64
2, 16320, Note_off_c, 0, 73, 31
2, 16320, Note_on_c, 0, 74, 64
2, 16380, Note_off_c, 0, 74, 61
2, 16380, Note_on_c, 0, 71, 64
2, 16440, Note_off_c, 0, 71, 58
2, 16440, Note_on_c, 0, 73, 64
2, 16500, Note_off_c, 0, 73, 49
2, 16500, Note_on_c, 0, 74, 64
2, 16560, Note_off_c, 0, 74, 59
2, 16560, Note_on_c, 0, 66, 64
2, 16620, Note_off_c, 0, 66, 68
2, 16620, Note_on_c, 0, 69, 64
2, 16680, Note_off_c, 0, 69, 68
2, 16680, Note_on_c, 0, 68, 64
2, 16740, Note_off_c, 0, 68, 82
2, 16740, Note_on_c, 0, 66, 64
2, 16800, Note_off_c, 0, 66, 50
2, 16800, Note_on_c, 0, 68, 64
2, 16860, Note_off_c, 0, 68, 57
2, 16860, Note_on_c, 0, 71, 64
2, 16920, Note_off_c, 0, 71, 65
2, 16920, Note_on_c, 0, 72, 64
2, 16980, Note_off_c, 0, 72, 53
2, 16980, Note_on_c, 0, 74, 64
2, 17040, Note_off_c, 0, 74, 55
2, 17040, Note_on_c, 0, 64, 64
2, 17100, Note_off_c, 0, 64, 37
2, 17100, Note_on_c, 0, 74, 64
2, 17160, Note_off_c, 0, 74, 49
2, 17160, Note_on_c, 0, 72, 64
2, 17220, Note_off_c, 0, 72, 80
2, 17220, Note_on_c, 0, 71, 64
2, 17280, Note_off_c, 0, 71, 48
2, 17280, Note_on_c, 0, 72, 64
2, 17340, Note_off_c, 0, 72, 74
2, 17340, Note_on_c, 0, 69, 64
2, 17400, Note_off_c, 0, 69, 68
2, 17400, Note_on_c, 0, 71, 64
2, 17460, Note_off_c, 0, 71, 73
2, 17460, Note_on_c, 0, 72, 64
2, 17520, Note_off_c, 0, 72, 76
2, 17520, Note_on_c, 0, 64, 64
2, 17580, Note_off_c, 0, 64, 48
2, 17580, Note_on_c, 0, 67, 64
2, 17640, Note_off_c, 0, 67, 47
2, 17640, Note_on_c, 0, 66, 64
2, 17700, Note_off_c, 0, 66, 73
2, 17700, Note_on_c, 0, 64, 64
2, 17760, Note_off_c, 0, 64, 15
2, 17760, Note_on_c, 0, 66, 64
2, 17820, Note_off_c, 0, 66, 70
2, 17820, Note_on_c, 0, 69, 64
2, 17880, Note_off_c, 0, 69, 69
2, 17880, Note_on_c, 0, 71, 64
2, 17940, Note_off_c, 0, 71, 77
2, 17940, Note_on_c, 0, 72, 64
2, 18000, Note_off_c, 0, 72, 69
2, 18000, Note_on_c, 0, 62, 64
2, 18060, Note_off_c, 0, 62, 58
2, 18060, Note_on_c, 0, 72, 64
2, 18120, Note_off_c, 0, 72, 52
2, 18120, Note_on_c, 0, 71, 64
2, 18180, Note_off_c, 0, 71, 70
2, 18180, Note_on_c, 0, 69, 64
2, 18240, Note_off_c, 0, 69, 58
2, 18240, Note_on_c, 0, 71, 64
2, 18300, Note_off_c, 0, 71, 76
2, 18300, Note_on_c, 0, 67, 64
2, 18360, Note_off_c, 0, 67, 47
2, 18360, Note_on_c, 0, 69, 64
2, 18420, Note_off_c, 0, 69, 62
2, 18420, Note_on_c, 0, 71, 64
2, 18480, Note_off_c, 0, 71, 70
2, 18480, Note_on_c, 0, 62, 64
2, 18540, Note_off_c, 0, 62, 58
2, 18540, Note_on_c, 0, 71, 64
2, 18600, Note_off_c, 0, 71, 53
2, 18600, Note_on_c, 0, 69, 64
2, 18660, Note_off_c, 0, 69, 59
2, 18660, Note_on_c, 0, 67, 64
2, 18720, Note_off_c, 0, 67, 40
2, 18720, Note_on_c, 0, 74, 64
2, 18780, Note_off_c, 0, 74, 53
2, 18780, Note_on_c, 0, 67, 64
2, 18840, Note_off_c, 0, 67, 40
2, 18840, Note_on_c, 0, 69, 64
2, 18900, Note_off_c, 0, 69, 72
2, 18900, Note_on_c, 0, 71, 64
2, 18960, Note_off_c, 0, 71, 70
2, 18960, Note_on_c, 0, 62, 64
2, 19020, Note_off_c, 0, 62, 55
2, 19020, Note_on_c, 0, 71, 64
2, 19080, Note_off_c, 0, 71, 61
2, 19080, Note_on_c, 0, 69, 64
2, 19140, Note_off_c, 0, 69, 69
2, 19140, Note_on_c, 0, 67, 64
2, 19200, Note_off_c, 0, 67, 37
2, 19200, Note_on_c, 0, 72, 64
2, 19260, Note_off_c, 0, 72, 69
2, 19260, Note_on_c, 0, 69, 64
2, 19320, Note_off_c, 0, 69, 53
2, 19320, Note_on_c, 0, 71, 64
2, 19380, Note_off_c, 0, 71, 35
2, 19380, Note_on_c, 0, 72, 64
2, 19440, Note_off_c, 0, 72, 76
2, 19440, Note_on_c, 0, 64, 64
2, 19500, Note_off_c, 0, 64, 41
2, 19500, Note_on_c, 0, 67, 64
2, 19560, Note_off_c, 0, 67, 43
2, 19560, Note_on_c, 0, 66, 64
2, 19620, Note_off_c, 0, 66, 61
2, 19620, Note_on_c, 0, 64, 64
2, 19680, Note_off_c, 0, 64, 37
2, 19680, Note_on_c, 0, 66, 64
2, 19740, Note_off_c, 0, 66, 68
2, 19740, Note_on_c, 0, 69, 64
2, 19800, Note_off_c, 0, 69, 54
2, 19800, Note_on_c, 0, 71, 64
2, 19860, Note_off_c, 0, 71, 68
2, 19860, Note_on_c, 0, 72, 64
2, 19920, Note_off_c, 0, 72, 63
2, 19920, Note_on_c, 0, 62, 64
2, 19980, Note_off_c, 0, 62, 55
2, 19980, Note_on_c, 0, 72, 64
2, 20040, Note_off_c, 0, 72, 42
2, 20040, Note_on_c, 0, 71, 64
2, 20100, Note_off_c, 0, 71, 77
2, 20100, Note_on_c, 0, 69, 64
2, 20160, Note_off_c, 0, 69, 62
2, 20160, Note_on_c, 0, 71, 64
2, 20220, Note_off_c, 0, 71, 59
2, 20220, Note_on_c, 0, 67, 64
2, 20280, Note_off_c, 0, 67, 38
2, 20280, Note_on_c, 0, 69, 64
2, 20340, Note_off_c, 0, 69, 58
2, 20340, Note_on_c, 0, 71, 64
2, 20400, Note_off_c, 0, 71, 69
2, 20400, Note_on_c, 0, 62, 64
2, 20460, Note_off_c, 0, 62, 49
2, 20460, Note_on_c, 0, 66, 64
2, 20520, Note_off_c, 0, 66, 54
2, 20520, Note_on_c, 0, 64, 64
2, 20580, Note_off_c, 0, 64, 57
2, 20580, Note_on_c, 0, 62, 64
2, 20640, Note_off_c, 0, 62, 25
2, 20640, Note_on_c, 0, 64, 64
2, 20700, Note_off_c, 0, 64, 49
2, 20700, Note_on_c, 0, 67, 64
2, 20760, Note_off_c, 0, 67, 26
2, 20760, Note_on_c, 0, 69, 64
2, 20820, Note_off_c, 0, 69, 52
2, 20820, Note_on_c, 0, 71, 64
2, 20880, Note_off_c, 0, 71, 74
2, 20880, Note_on_c, 0, 64, 64
2, 20940, Note_off_c, 0, 64, 40
2, 20940, Note_on_c, 0, 74, 64
2, 21000, Note_off_c, 0, 74, 52
2, 21000, Note_on_c, 0, 73, 64
2, 21060, Note_off_c, 0, 73, 69
2, 21060, Note_on_c, 0, 71, 64
2, 21120, Note_off_c, 0, 71, 45
2, 21120, Note_on_c, 0, 73, 64
2, 21180, Note_off_c, 0, 73, 49
2, 21180, Note_on_c, 0, 69, 64
2, 21240, Note_off_c, 0, 69, 52
2, 21240, Note_on_c, 0, 71, 64
2, 21300, Note_off_c, 0, 71, 74
2, 21300, Note_on_c, 0, 73, 64
2, 21360, Note_off_c, 0, 73, 59
2, 21360, Note_on_c, 0, 64, 64
2, 21420, Note_off_c, 0, 64, 41
2, 21420, Note_on_c, 0, 67, 64
2, 21480, Note_off_c, 0, 67, 47
2, 21480, Note_on_c, 0, 66, 64
2, 21540, Note_off_c, 0, 66, 72
2, 21540, Note_on_c, 0, 64, 64
2, 21600, Note_off_c, 0, 64, 55
2, 21600, Note_on_c, 0, 62, 64
2, 21660, Note_off_c, 0, 62, 32
2, 21660, Note_on_c, 0, 66, 64
2, 21720, Note_off_c, 0, 66, 69
2, 21720, Note_on_c, 0, 67, 64
2, 21780, Note_off_c, 0, 67, 37
2, 21780, Note_on_c, 0, 69, 64
2, 21840, Note_off_c, 0, 69, 77
2, 21840, Note_on_c, 0, 59, 64
2, 21900, Note_off_c, 0, 59, 31
2, 21900, Note_on_c, 0, 69, 64
2, 21960, Note_off_c, 0, 69, 48
2, 21960, Note_on_c, 0, 67, 64
2, 22020, Note_off_c, 0, 67, 49
2, 22020, Note_on_c, 0, 66, 64
2, 22080, Note_off_c, 0, 66, 49
2, 22080, Note_on_c, 0, 67, 64
2, 22140, Note_off_c, 0, 67, 51
2, 22140, Note_on_c, 0, 64, 64
2, 22200, Note_off_c, 0, 64, 41
2, 22200, Note_on_c, 0, 66, 64
2, 22260, Note_off_c, 0, 66, 57
2, 22260, Note_on_c, 0, 67, 64
2, 22320, Note_off_c, 0, 67, 55
2, 22320, Note_on_c, 0, 59, 64
2, 22380, Note_off_c, 0, 59, 44
2, 22380, Note_on_c, 0, 62, 64
2, 22440, Note_off_c, 0, 62, 48
2, 22440, Note_on_c, 0, 61, 64
2, 22500, Note_off_c, 0, 61, 66
2, 22500, Note_on_c, 0, 59, 64
2, 22560, Note_off_c, 0, 59, 20
2, 22560, Note_on_c, 0, 61, 64
2, 22620, Note_off_c, 0, 61, 49
2, 22620, Note_on_c, 0, 64, 64
2, 22680, Note_off_c, 0, 64, 43
2, 22680, Note_on_c, 0, 66, 64
2, 22740, Note_off_c, 0, 66, 61
2, 22740, Note_on_c, 0, 67, 64
2, 22800, Note_off_c, 0, 67, 44
2, 22800, Note_on_c, 0, 57, 64
2, 22860, Note_off_c, 0, 57, 32
2, 22860, Note_on_c, 0, 67, 64
2, 22920, Note_off_c, 0, 67, 30
2, 22920, Note_on_c, 0, 66, 64
2, 22980, Note_off_c, 0, 66, 35
2, 22980, Note_on_c, 0, 64, 64
2, 23040, Note_off_c, 0, 64, 14
2, 23040, Note_on_c, 0, 66, 64
2, 23100, Note_off_c, 0, 66, 72
2, 23100, Note_on_c, 0, 62, 64
2, 23160, Note_off_c, 0, 62, 46
2, 23160, Note_on_c, 0, 64, 64
2, 23220, Note_off_c, 0, 64, 15
2, 23220, Note_on_c, 0, 66, 64
2, 23280, Note_off_c, 0, 66, 59
2, 23280, Note_on_c, 0, 57, 64
2, 23340, Note_off_c, 0, 57, 48
2, 23340, Note_on_c, 0, 66, 64
2, 23400, Note_off_c, 0, 66, 6
2, 23400, Note_on_c, 0, 64, 64
2, 23460, Note_off_c, 0, 64, 49
2, 23460, Note_on_c, 0, 62, 64
2, 23520, Note_off_c, 0, 62, 54
2, 23520, Note_on_c, 0, 69, 64
2, 23580, Note_off_c, 0, 69, 69
2, 23580, Note_on_c, 0, 66, 64
2, 23640, Note_off_c, 0, 66, 36
2, 23640, Note_on_c, 0, 67, 64
2, 23700, Note_off_c, 0, 67, 40
2, 23700, Note_on_c, 0, 69, 64
2, 23760, Note_off_c, 0, 69, 72
2, 23760, Note_on_c, 0, 62, 64
2, 23820, Note_off_c, 0, 62, 36
2, 23820, Note_on_c, 0, 72, 64
2, 23880, Note_off_c, 0, 72, 69
2, 23880, Note_on_c, 0, 71, 64
2, 23940, Note_off_c, 0, 71, 69
2, 23940, Note_on_c, 0, 69, 64
2, 24000, Note_off_c, 0, 69, 41
2, 24000, Note_on_c, 0, 71, 64
2, 24060, Note_off_c, 0, 71, 70
2, 24060, Note_on_c, 0, 67, 64
2, 24120, Note_off_c, 0, 67, 49
2, 24120, Note_on_c, 0, 69, 64
2, 24180, Note_off_c, 0, 69, 53
2, 24180, Note_on_c, 0, 71, 64
2, 24240, Note_off_c, 0, 71, 65
2, 24240, Note_on_c, 0, 62, 64
2, 24300, Note_off_c, 0, 62, 46
2, 24300, Note_on_c, 0, 71, 64
2, 24360, Note_off_c, 0, 71, 46
2, 24360, Note_on_c, 0, 69, 64
2, 24420, Note_off_c, 0, 69, 68
2, 24420, Note_on_c, 0, 67, 64
2, 24480, Note_off_c, 0, 67, 49
2, 24480, Note_on_c, 0, 74, 64
2, 24540, Note_off_c, 0, 74, 70
2, 24540, Note_on_c, 0, 71, 64
2, 24600, Note_off_c, 0, 71, 58
2, 24600, Note_on_c, 0, 72, 64
2, 24660, Note_off_c, 0, 72, 63
2, 24660, Note_on_c, 0, 74, 64
2, 24720, Note_off_c, 0, 74, 76
2, 24720, Note_on_c, 0, 68, 64
2, 24780, Note_off_c, 0, 68, 72
2, 24780, Note_on_c, 0, 77, 64
2, 24840, Note_off_c, 0, 77, 48
2, 24840, Note_on_c, 0, 76, 64
2, 24900, Note_off_c, 0, 76, 39
2, 24900, Note_on_c, 0, 74, 64
2, 24960, Note_off_c, 0, 74, 48
2, 24960, Note_on_c, 0, 73, 64
2, 25020, Note_off_c, 0, 73, 59
2, 25020, Note_on_c, 0, 69, 64
2, 25080, Note_off_c, 0, 69, 34
2, 25080, Note_on_c, 0, 71, 64
2, 25140, Note_off_c, 0, 71, 59
2, 25140, Note_on_c, 0, 73, 64
2, 25200, Note_off_c, 0, 73, 58
2, 25200, Note_on_c, 0, 64, 64
2, 25260, Note_off_c, 0, 64, 42
2, 25260, Note_on_c, 0, 67, 64
2, 25320, Note_off_c, 0, 67, 45
2, 25320, Note_on_c, 0, 66, 64
2, 25380, Note_off_c, 0, 66, 77
2, 25380, Note_on_c, 0, 64, 64
2, 25440, Note_off_c, 0, 64, 20
2, 25440, Note_on_c, 0, 69, 64
2, 25500, Note_off_c, 0, 69, 55
2, 25500, Note_on_c, 0, 74, 64
2, 25560, Note_off_c, 0, 74, 59
2, 25560, Note_on_c, 0, 76, 64
2, 25620, Note_off_c, 0, 76, 43
2, 25620, Note_on_c, 0, 78, 64
2, 25680, Note_off_c, 0, 78, 74
2, 25680, Note_on_c, 0, 71, 64
2, 25740, Note_off_c, 0, 71, 61
2, 25740, Note_on_c, 0, 81, 64
2, 25800, Note_off_c, 0, 81, 46
2, 25800, Note_on_c, 0, 79, 64
2, 25860, Note_off_c, 0, 79, 65
2, 25860, Note_on_c, 0, 78, 64
2, 25920, Note_off_c, 0, 78, 13
2, 25920, Note_on_c, 0, 79, 64
2, 25980, Note_off_c, 0, 79, 50
2, 25980, Note_on_c, 0, 73, 64
2, 26040, Note_off_c, 0, 73, 63
2, 26040, Note_on_c, 0, 74, 64
2, 26100, Note_off_c, 0, 74, 45
2, 26100, Note_on_c, 0, 76, 64
2, 26160, Note_off_c, 0, 76, 63
2, 26160, Note_on_c, 0, 69, 64
2, 26220, Note_off_c, 0, 69, 62
2, 26220, Note_on_c, 0, 79, 64
2, 26280, Note_off_c, 0, 79, 47
2, 26280, Note_on_c, 0, 78, 64
2, 26340, Note_off_c, 0, 78, 61
2, 26340, Note_on_c, 0, 76, 64
2, 26400, Note_off_c, 0, 76, 38
2, 26400, Note_on_c, 0, 78, 64
2, 26460, Note_off_c, 0, 78, 54
2, 26460, Note_on_c, 0, 71, 64
2, 26520, Note_off_c, 0, 71, 50
2, 26520, Note_on_c, 0, 73, 64
2, 26580, Note_off_c, 0, 73, 69
2, 26580, Note_on_c, 0, 74, 64
2, 26640, Note_off_c, 0, 74, 69
2, 26640, Note_on_c, 0, 68, 64
2, 26700, Note_off_c, 0, 68, 57
2, 26700, Note_on_c, 0, 78, 64
2, 26760, Note_off_c, 0, 78, 62
2, 26760, Note_on_c, 0, 76, 64
2, 26820, Note_off_c, 0, 76, 49
2, 26820, Note_on_c, 0, 74, 64
2, 26880, Note_off_c, 0, 74, 54
2, 26880, Note_on_c, 0, 73, 64
2, 26940, Note_off_c, 0, 73, 62
2, 26940, Note_on_c, 0, 67, 64
2, 27000, Note_off_c, 0, 67, 33
2, 27000, Note_on_c, 0, 69, 64
2, 27060, Note_off_c, 0, 69, 69
2, 27060, Note_on_c, 0, 70, 64
2, 27120, Note_off_c, 0, 70, 65
2, 27120, Note_on_c, 0, 64, 64
2, 27180, Note_off_c, 0, 64, 49
2, 27180, Note_on_c, 0, 67, 64
2, 27240, Note_off_c, 0, 67, 47
2, 27240, Note_on_c, 0, 65, 64
2, 27300, Note_off_c, 0, 65, 1
2, 27300, Note_on_c, 0, 64, 64
2, 27360, Note_off_c, 0, 64, 40
2, 27360, Note_on_c, 0, 65, 64
2, 27420, Note_off_c, 0, 65, 1
2, 27420, Note_on_c, 0, 74, 64
2, 27480, Note_off_c, 0, 74, 77
2, 27480, Note_on_c, 0, 76, 64
2, 27540, Note_off_c, 0, 76, 54
2, 27540, Note_on_c, 0, 77, 64
2, 27600, Note_off_c, 0, 77, 65
2, 27600, Note_on_c, 0, 73, 64
2, 27660, Note_off_c, 0, 73, 73
2, 27660, Note_on_c, 0, 76, 64
2, 27720, Note_off_c, 0, 76, 50
2, 27720, Note_on_c, 0, 74, 64
2, 27780, Note_off_c, 0, 74, 57
2, 27780, Note_on_c, 0, 73, 64
2, 27840, Note_off_c, 0, 73, 68
2, 27840, Note_on_c, 0, 74, 64
2, 27900, Note_off_c, 0, 74, 76
2, 27900, Note_on_c, 0, 82, 64
2, 27960, Note_off_c, 0, 82, 79
2, 27960, Note_on_c, 0, 81, 64
2, 28020, Note_off_c, 0, 81, 55
2, 28020, Note_on_c, 0, 79, 64
2, 28080, Note_off_c, 0, 79, 58
2, 28080, Note_on_c, 0, 77, 64
2, 28140, Note_off_c, 0, 77, 72
2, 28140, Note_on_c, 0, 76, 64
2, 28200, Note_off_c, 0, 76, 32
2, 28200, Note_on_c, 0, 74, 64
2, 28260, Note_off_c, 0, 74, 62
2, 28260, Note_on_c, 0, 73, 64
2, 28320, Note_off_c, 0, 73, 72
2, 28320, Note_on_c, 0, 74, 64
2, 28380, Note_off_c, 0, 74, 45
2, 28380, Note_on_c, 0, 77, 64
2, 28440, Note_off_c, 0, 77, 62
2, 28440, Note_on_c, 0, 76, 64
2, 28500, Note_off_c, 0, 76, 50
2, 28500, Note_on_c, 0, 74, 64
2, 28560, Note_off_c, 0, 74, 59
2, 28560, Note_on_c, 0, 83, 64
2, 28620, Note_off_c, 0, 83, 66
2, 28620, Note_on_c, 0, 80, 64
2, 28680, Note_off_c, 0, 80, 65
2, 28680, Note_on_c, 0, 81, 64
2, 28740, Note_off_c, 0, 81, 51
2, 28740, Note_on_c, 0, 83, 64
2, 28800, Note_off_c, 0, 83, 68
2, 28800, Note_on_c, 0, 77, 64
2, 28860, Note_off_c, 0, 77, 63
2, 28860, Note_on_c, 0, 74, 64
2, 28920, Note_off_c, 0, 74, 52
2, 28920, Note_on_c, 0, 76, 64
2, 28980, Note_off_c, 0, 76, 49
2, 28980, Note_on_c, 0, 77, 64
2, 29040, Note_off_c, 0, 77, 72
2, 29040, Note_on_c, 0, 71, 64
2, 29100, Note_off_c, 0, 71, 59
2, 29100, Note_on_c, 0, 68, 64
2, 29160, Note_off_c, 0, 68, 73
2, 29160, Note_on_c, 0, 69, 64
2, 29220, Note_off_c, 0, 69, 49
2, 29220, Note_on_c, 0, 71, 64
2, 29280, Note_off_c, 0, 71, 61
2, 29280, Note_on_c, 0, 64, 64
2, 29340, Note_off_c, 0, 64, 39
2, 29340, Note_on_c, 0, 66, 64
2, 29400, Note_off_c, 0, 66, 58
2, 29400, Note_on_c, 0, 68, 64
2, 29460, Note_off_c, 0, 68, 43
2, 29460, Note_on_c, 0, 69, 64
2, 29520, Note_off_c, 0, 69, 57
2, 29520, Note_on_c, 0, 71, 64
2, 29580, Note_off_c, 0, 71, 85
2, 29580, Note_on_c, 0, 73, 64
2, 29640, Note_off_c, 0, 73, 76
2, 29640, Note_on_c, 0, 74, 64
2, 29700, Note_off_c, 0, 74, 52
2, 29700, Note_on_c, 0, 76, 64
2, 29760, Note_off_c, 0, 76, 61
2, 29760, Note_on_c, 0, 77, 64
2, 29820, Note_on_c, 0, 72, 64
2, 29880, Note_off_c, 0, 72, 52
2, 29880, Note_on_c, 0, 74, 64
2, 29940, Note_off_c, 0, 74, 65
2, 29940, Note_on_c, 0, 69, 64
2, 30000, Note_off_c, 0, 69, 35
2, 30000, Note_on_c, 0, 70, 64
2, 30060, Note_off_c, 0, 70, 46
2, 30060, Note_on_c, 0, 67, 64
2, 30120, Note_off_c, 0, 67, 1
2, 30120, Note_off_c, 0, 77, 58
2, 30120, Note_on_c, 0, 76, 64
2, 30180, Note_on_c, 0, 67, 64
2, 30240, Note_off_c, 0, 67, 5
2, 30240, Note_on_c, 0, 69, 64
2, 30300, Note_off_c, 0, 69, 52
2, 30300, Note_on_c, 0, 65, 64
2, 30360, Note_off_c, 0, 65, 1
2, 30360, Note_off_c, 0, 76, 43
2, 30360, Note_on_c, 0, 74, 64
2, 30420, Note_on_c, 0, 65, 64
2, 30480, Note_off_c, 0, 65, 29
2, 30480, Note_on_c, 0, 67, 64
2, 30540, Note_off_c, 0, 67, 29
2, 30540, Note_on_c, 0, 64, 64
2, 30600, Note_off_c, 0, 64, 19
2, 30600, Note_off_c, 0, 74, 49
2, 30600, Note_on_c, 0, 73, 64
2, 30660, Note_on_c, 0, 64, 64
2, 30720, Note_off_c, 0, 64, 15
2, 30720, Note_off_c, 0, 73, 58
2, 30763, Note_on_c, 0, 62, 64
2, 30770, Note_on_c, 0, 65, 64
2, 30776, Note_on_c, 0, 68, 64
2, 30780, Note_on_c, 0, 71, 64
2, 30785, Note_on_c, 0, 74, 64
2, 30960, Note_off_c, 0, 71, 72
2, 30960, Note_off_c, 0, 68, 79
2, 30960, Note_off_c, 0, 65, 1
2, 30960, Note_off_c, 0, 62, 57
2, 30990, Note_off_c, 0, 74, 76
2, 30990, Note_on_c, 0, 73, 64
2, 31020, Note_off_c, 0, 73, 49
2, 31020, Note_on_c, 0, 71, 64
2, 31050, Note_off_c, 0, 71, 72
2, 31050, Note_on_c, 0, 69, 63
2, 31080, Note_off_c, 0, 69, 39
2, 31080, Note_on_c, 0, 68, 61
2, 31110, Note_off_c, 0, 68, 77
2, 31110, Note_on_c, 0, 66, 59
2, 31140, Note_off_c, 0, 66, 40
2, 31140, Note_on_c, 0, 64, 57
2, 31170, Note_off_c, 0, 64, 28
2, 31170, Note_on_c, 0, 66, 56
2, 31200, Note_off_c, 0, 66, 59
2, 31200, Note_on_c, 0, 68, 58
2, 31230, Note_off_c, 0, 68, 68
2, 31230, Note_on_c, 0, 69, 60
2, 31260, Note_off_c, 0, 69, 45
2, 31260, Note_on_c, 0, 71, 62
2, 31290, Note_off_c, 0, 71, 52
2, 31290, Note_on_c, 0, 73, 63
2, 31320, Note_off_c, 0, 73, 58
2, 31320, Note_on_c, 0, 74, 65
2, 31350, Note_off_c, 0, 74, 62
2, 31350, Note_on_c, 0, 76, 67
2, 31380, Note_off_c, 0, 76, 30
2, 31380, Note_on_c, 0, 77, 69
2, 31410, Note_off_c, 0, 77, 54
2, 31410, Note_on_c, 0, 76, 68
2, 31440, Note_off_c, 0, 76, 6
2, 31440, Note_on_c, 0, 74, 67
2, 31470, Note_off_c, 0, 74, 51
2, 31470, Note_on_c, 0, 73, 66
2, 31500, Note_off_c, 0, 73, 58
2, 31500, Note_on_c, 0, 71, 65
2, 31530, Note_off_c, 0, 71, 58
2, 31530, Note_on_c, 0, 69, 64
2, 31560, Note_off_c, 0, 69, 8
2, 31560, Note_on_c, 0, 68, 63
2, 31590, Note_off_c, 0, 68, 43
2, 31590, Note_on_c, 0, 66, 63
2, 31620, Note_off_c, 0, 66, 44
2, 31620, Note_on_c, 0, 64, 62
2, 31650, Note_off_c, 0, 64, 39
2, 31650, Note_on_c, 0, 62, 61
2, 31680, Note_off_c, 0, 62, 40
2, 31716, Note_on_c, 0, 73, 74
2, 31722, Note_on_c, 0, 76, 65
2, 31726, Note_on_c, 0, 79, 68
2, 31730, Note_on_c, 0, 82, 83
2, 31800, Note_off_c, 0, 82, 47
2, 31800, Note_off_c, 0, 79, 49
2, 31800, Note_off_c, 0, 76, 52
2, 31800, Note_off_c, 0, 73, 49
2, 31920, Note_on_c, 0, 80, 76
2, 31920, Note_on_c, 0, 74, 48
2, 31920, Note_on_c, 0, 77, 51
2, 31920, Note_on_c, 0, 83, 76
2, 32040, Note_off_c, 0, 83, 49
2, 32040, Note_off_c, 0, 77, 52
2, 32040, Note_off_c, 0, 74, 46
2, 32040, Note_off_c, 0, 80, 62
2, 32160, Note_on_c, 0, 64, 74
2, 32160, Note_on_c, 0, 69, 77
2, 32160, Note_on_c, 0, 74, 71
2, 32400, Note_off_c, 0, 74, 52
2, 32400, Note_on_c, 0, 73, 79
2, 32630, Note_off_c, 0, 73, 77
2, 32630, Note_off_c, 0, 69, 82
2, 32630, Note_off_c, 0, 64, 62
2, 32643, Note_on_c, 0, 69, 63
2, 32643, Note_on_c, 0, 66, 68
2, 32643, Note_on_c, 0, 74, 59
2, 33603, Note_off_c, 0, 74, 76
2, 33603, Note_off_c, 0, 66, 1
2, 33603, Note_off_c, 0, 69, 80
2, 33603, End_track
3, 0, Start_track
3, 0, Text_t, "LH B"
3, 0, Note_on_c, 1, 50, 64
3, 120, Note_off_c, 1, 50, 57
3, 240, Note_on_c, 1, 62, 64
3, 360, Note_off_c, 1, 62, 43
3, 480, Note_on_c, 1, 54, 64
3, 600, Note_off_c, 1, 54, 59
3, 720, Note_on_c, 1, 62, 64
3, 840, Note_off_c, 1, 62, 47
3, 960, Note_on_c, 1, 52, 64
3, 1080, Note_off_c, 1, 52, 50
3, 1200, Note_on_c, 1, 62, 64
3, 1320, Note_off_c, 1, 62, 52
3, 1440, Note_on_c, 1, 57, 64
3, 1560, Note_off_c, 1, 57, 58
3, 1680, Note_on_c, 1, 61, 64
3, 1800, Note_off_c, 1, 61, 66
3, 1920, Note_on_c, 1, 50, 64
3, 2040, Note_off_c, 1, 50, 53
3, 2160, Note_on_c, 1, 62, 64
3, 2280, Note_off_c, 1, 62, 49
3, 2400, Note_on_c, 1, 50, 64
3, 2520, Note_off_c, 1, 50, 57
3, 2640, Note_on_c, 1, 62, 64
3, 2760, Note_off_c, 1, 62, 47
3, 2880, Note_on_c, 1, 50, 64
3, 3000, Note_off_c, 1, 50, 50
3, 3120, Note_on_c, 1, 56, 64
3, 3240, Note_off_c, 1, 56, 59
3, 3360, Note_on_c, 1, 49, 64
3, 3480, Note_off_c, 1, 49, 52
3, 3600, Note_on_c, 1, 57, 64
3, 3720, Note_off_c, 1, 57, 51
3, 3840, Note_on_c, 1, 47, 64
3, 3960, Note_off_c, 1, 47, 52
3, 4080, Note_on_c, 1, 57, 64
3, 4200, Note_off_c, 1, 57, 63
3, 4320, Note_on_c, 1, 52, 64
3, 4440, Note_off_c, 1, 52, 79
3, 4560, Note_on_c, 1, 56, 64
3, 4680, Note_off_c, 1, 56, 74
3, 4800, Note_on_c, 1, 45, 64
3, 4920, Note_off_c, 1, 45, 74
3, 5040, Note_on_c, 1, 57, 64
3, 5160, Note_off_c, 1, 57, 68
3, 5280, Note_on_c, 1, 45, 64
3, 5400, Note_off_c, 1, 45, 74
3, 5520, Note_on_c, 1, 57, 64
3, 5640, Note_off_c, 1, 57, 69
3, 5760, Note_on_c, 1, 45, 64
3, 5880, Note_off_c, 1, 45, 74
3, 6000, Note_on_c, 1, 51, 64
3, 6120, Note_off_c, 1, 51, 79
3, 6240, Note_on_c, 1, 43, 64
3, 6360, Note_off_c, 1, 43, 70
3, 6480, Note_on_c, 1, 52, 64
3, 6600, Note_off_c, 1, 52, 80
3, 6720, Note_on_c, 1, 42, 64
3, 6840, Note_off_c, 1, 42, 76
3, 6960, Note_on_c, 1, 54, 64
3, 7080, Note_off_c, 1, 54, 68
3, 7200, Note_on_c, 1, 42, 64
3, 7320, Note_off_c, 1, 42, 77
3, 7440, Note_on_c, 1, 54, 64
3, 7560, Note_off_c, 1, 54, 73
3, 7680, Note_on_c, 1, 42, 64
3, 7800, Note_off_c, 1, 42, 76
3, 7920, Note_on_c, 1, 54, 64
3, 8040, Note_off_c, 1, 54, 72
3, 8160, Note_on_c, 1, 42, 64
3, 8280, Note_off_c, 1, 42, 77
3, 8400, Note_on_c, 1, 54, 64
3, 8520, Note_off_c, 1, 54, 69
3, 8640, Note_on_c, 1, 42, 64
3, 8760, Note_off_c, 1, 42, 77
3, 8880, Note_on_c, 1, 54, 64
3, 9000, Note_off_c, 1, 54, 69
3, 9120, Note_on_c, 1, 47, 64
3, 9240, Note_off_c, 1, 47, 76
3, 9360, Note_on_c, 1, 51, 64
3, 9480, Note_off_c, 1, 51, 72
3, 9600, Note_on_c, 1, 40, 64
3, 9720, Note_off_c, 1, 40, 53
3, 9840, Note_on_c, 1, 52, 64
3, 9960, Note_off_c, 1, 52, 77
3, 10080, Note_on_c, 1, 40, 64
3, 10200, Note_off_c, 1, 40, 62
3, 10320, Note_on_c, 1, 51, 64
3, 10440, Note_off_c, 1, 51, 65
3, 10560, Note_on_c, 1, 40, 64
3, 10680, Note_off_c, 1, 40, 48
3, 10800, Note_on_c, 1, 52, 64
3, 10920, Note_off_c, 1, 52, 66
3, 11040, Note_on_c, 1, 45, 64
3, 11160, Note_off_c, 1, 45, 73
3, 11280, Note_on_c, 1, 49, 64
3, 11400, Note_off_c, 1, 49, 63
3, 11520, Note_on_c, 1, 38, 64
3, 11640, Note_off_c, 1, 38, 53
3, 11760, Note_on_c, 1, 50, 64
3, 11880, Note_off_c, 1, 50, 65
3, 12000, Note_on_c, 1, 38, 64
3, 12120, Note_off_c, 1, 38, 53
3, 12240, Note_on_c, 1, 50, 64
3, 12360, Note_off_c, 1, 50, 66
3, 12480, Note_on_c, 1, 38, 64
3, 12600, Note_off_c, 1, 38, 66
3, 12720, Note_on_c, 1, 50, 64
3, 12840, Note_off_c, 1, 50, 77
3, 12960, Note_on_c, 1, 38, 64
3, 13080, Note_off_c, 1, 38, 63
3, 13200, Note_on_c, 1, 50, 64
3, 13320, Note_off_c, 1, 50, 74
3, 13440, Note_on_c, 1, 38, 64
3, 13560, Note_off_c, 1, 38, 65
3, 13680, Note_on_c, 1, 56, 64
3, 13800, Note_off_c, 1, 56, 58
3, 13920, Note_on_c, 1, 48, 64
3, 14040, Note_off_c, 1, 48, 73
3, 14160, Note_on_c, 1, 54, 64
3, 14280, Note_off_c, 1, 54, 52
3, 14400, Note_on_c, 1, 47, 64
3, 14520, Note_off_c, 1, 47, 69
3, 14640, Note_on_c, 1, 51, 64
3, 14760, Note_off_c, 1, 51, 53
3, 14880, Note_on_c, 1, 52, 64
3, 15000, Note_off_c, 1, 52, 52
3, 15120, Note_on_c, 1, 55, 64
3, 15240, Note_off_c, 1, 55, 69
3, 15360, Note_on_c, 1, 47, 64
3, 15480, Note_off_c, 1, 47, 68
3, 15600, Note_on_c, 1, 52, 64
3, 15720, Note_off_c, 1, 52, 39
3, 15840, Note_on_c, 1, 55, 64
3, 15960, Note_off_c, 1, 55, 52
3, 16080, Note_on_c, 1, 58, 64
3, 16200, Note_off_c, 1, 58, 55
3, 16320, Note_on_c, 1, 47, 64
3, 16440, Note_off_c, 1, 47, 51
3, 16560, Note_on_c, 1, 59, 64
3, 16680, Note_off_c, 1, 59, 46
3, 16800, Note_on_c, 1, 52, 64
3, 16920, Note_off_c, 1, 52, 79
3, 17040, Note_on_c, 1, 56, 64
3, 17160, Note_off_c, 1, 56, 53
3, 17280, Note_on_c, 1, 45, 64
3, 17400, Note_off_c, 1, 45, 52
3, 17520, Note_on_c, 1, 57, 64
3, 17640, Note_off_c, 1, 57, 62
3, 17760, Note_on_c, 1, 50, 64
3, 17880, Note_off_c, 1, 50, 54
3, 18000, Note_on_c, 1, 54, 64
3, 18120, Note_off_c, 1, 54, 49
3, 18240, Note_on_c, 1, 43, 64
3, 18360, Note_off_c, 1, 43, 61
3, 18480, Note_on_c, 1, 55, 64
3, 18600, Note_off_c, 1, 55, 53
3, 18720, Note_on_c, 1, 47, 64
3, 18840, Note_off_c, 1, 47, 62
3, 18960, Note_on_c, 1, 55, 64
3, 19080, Note_off_c, 1, 55, 72
3, 19200, Note_on_c, 1, 45, 64
3, 19320, Note_off_c, 1, 45, 72
3, 19440, Note_on_c, 1, 55, 64
3, 19560, Note_off_c, 1, 55, 77
3, 19680, Note_on_c, 1, 50, 64
3, 19800, Note_off_c, 1, 50, 74
3, 19920, Note_on_c, 1, 54, 64
3, 20040, Note_off_c, 1, 54, 69
3, 20160, Note_on_c, 1, 43, 64
3, 20280, Note_off_c, 1, 43, 69
3, 20400, Note_on_c, 1, 55, 64
3, 20520, Note_off_c, 1, 55, 74
3, 20640, Note_on_c, 1, 43, 64
3, 20760, Note_off_c, 1, 43, 69
3, 20880, Note_on_c, 1, 55, 64
3, 21000, Note_off_c, 1, 55, 70
3, 21120, Note_on_c, 1, 43, 64
3, 21240, Note_off_c, 1, 43, 55
3, 21360, Note_on_c, 1, 49, 64
3, 21480, Note_off_c, 1, 49, 58
3, 21600, Note_on_c, 1, 42, 64
3, 21720, Note_off_c, 1, 42, 58
3, 21840, Note_on_c, 1, 50, 64
3, 21960, Note_off_c, 1, 50, 43
3, 22080, Note_on_c, 1, 40, 64
3, 22200, Note_off_c, 1, 40, 50
3, 22320, Note_on_c, 1, 50, 64
3, 22440, Note_off_c, 1, 50, 62
3, 22560, Note_on_c, 1, 45, 64
3, 22680, Note_off_c, 1, 45, 59
3, 22800, Note_on_c, 1, 49, 64
3, 22920, Note_off_c, 1, 49, 53
3, 23040, Note_on_c, 1, 38, 64
3, 23160, Note_off_c, 1, 38, 47
3, 23280, Note_on_c, 1, 50, 64
3, 23400, Note_off_c, 1, 50, 54
3, 23520, Note_on_c, 1, 42, 64
3, 23640, Note_off_c, 1, 42, 51
3, 23760, Note_on_c, 1, 57, 64
3, 23880, Note_off_c, 1, 57, 51
3, 24000, Note_on_c, 1, 43, 64
3, 24160, Note_off_c, 1, 43, 53
3, 24240, Note_on_c, 1, 55, 64
3, 24439, Note_off_c, 1, 55, 68
3, 24480, Note_on_c, 1, 47, 64
3, 24656, Note_off_c, 1, 47, 63
3, 24720, Note_on_c, 1, 62, 64
3, 24908, Note_off_c, 1, 62, 54
3, 24960, Note_on_c, 1, 45, 64
3, 25200, Note_on_c, 1, 55, 64
3, 25320, Note_off_c, 1, 55, 45
3, 25440, Note_on_c, 1, 54, 64
3, 25560, Note_off_c, 1, 54, 35
3, 25680, Note_on_c, 1, 50, 64
3, 25800, Note_off_c, 1, 50, 52
3, 25920, Note_on_c, 1, 52, 64
3, 26040, Note_off_c, 1, 52, 46
3, 26160, Note_on_c, 1, 49, 64
3, 26280, Note_off_c, 1, 49, 57
3, 26400, Note_on_c, 1, 50, 64
3, 26520, Note_off_c, 1, 50, 49
3, 26640, Note_on_c, 1, 47, 64
3, 26760, Note_off_c, 1, 47, 61
3, 26940, Note_on_c, 1, 52, 64
3, 27000, Note_off_c, 1, 52, 46
3, 27000, Note_on_c, 1, 54, 64
3, 27060, Note_off_c, 1, 54, 36
3, 27060, Note_on_c, 1, 55, 64
3, 27120, Note_off_c, 1, 55, 74
3, 27120, Note_on_c, 1, 49, 64
3, 27180, Note_off_c, 1, 49, 52
3, 27180, Note_on_c, 1, 52, 64
3, 27240, Note_off_c, 1, 52, 53
3, 27240, Note_on_c, 1, 50, 64
3, 27300, Note_off_c, 1, 50, 73
3, 27300, Note_on_c, 1, 49, 64
3, 27360, Note_off_c, 1, 49, 76
3, 27360, Note_on_c, 1, 50, 64
3, 27420, Note_off_c, 1, 50, 41
3, 27420, Note_on_c, 1, 53, 64
3, 27480, Note_off_c, 1, 53, 50
3, 27480, Note_on_c, 1, 55, 64
3, 27540, Note_off_c, 1, 55, 29
3, 27540, Note_on_c, 1, 57, 64
3, 27600, Note_off_c, 1, 57, 46
3, 27600, Note_on_c, 1, 52, 64
3, 27660, Note_off_c, 1, 52, 52
3, 27660, Note_on_c, 1, 55, 64
3, 27720, Note_off_c, 1, 55, 48
3, 27720, Note_on_c, 1, 53, 64
3, 27780, Note_off_c, 1, 53, 52
3, 27780, Note_on_c, 1, 52, 64
3, 27840, Note_off_c, 1, 52, 54
3, 27840, Note_on_c, 1, 53, 64
3, 27853, Note_off_c, 1, 45, 73
3, 27900, Note_off_c, 1, 53, 52
3, 27900, Note_on_c, 1, 50, 64
3, 27960, Note_off_c, 1, 50, 46
3, 27960, Note_on_c, 1, 52, 64
3, 28020, Note_off_c, 1, 52, 51
3, 28020, Note_on_c, 1, 53, 64
3, 28080, Note_off_c, 1, 53, 70
3, 28080, Note_on_c, 1, 45, 64
3, 28140, Note_off_c, 1, 45, 49
3, 28140, Note_on_c, 1, 48, 64
3, 28200, Note_off_c, 1, 48, 46
3, 28200, Note_on_c, 1, 46, 64
3, 28260, Note_off_c, 1, 46, 54
3, 28260, Note_on_c, 1, 45, 64
3, 28320, Note_off_c, 1, 45, 54
3, 28320, Note_on_c, 1, 44, 64
3, 29760, Note_off_c, 1, 44, 69
3, 29760, Note_on_c, 1, 45, 64
3, 29880, Note_on_c, 1, 57, 64
3, 30000, Note_off_c, 1, 57, 49
3, 30000, Note_on_c, 1, 55, 64
3, 30120, Note_off_c, 1, 55, 49
3, 30120, Note_on_c, 1, 49, 64
3, 30240, Note_off_c, 1, 49, 58
3, 30240, Note_on_c, 1, 53, 64
3, 30360, Note_off_c, 1, 53, 51
3, 30360, Note_on_c, 1, 50, 64
3, 30480, Note_off_c, 1, 50, 48
3, 30480, Note_on_c, 1, 52, 64
3, 30600, Note_off_c, 1, 52, 58
3, 30600, Note_on_c, 1, 55, 64
3, 30720, Note_off_c, 1, 55, 55
3, 30720, Note_off_c, 1, 45, 68
3, 30720, Note_on_c, 1, 45, 54
3, 30733, Note_on_c, 1, 50, 49
3, 30746, Note_on_c, 1, 53, 49
3, 30754, Note_on_c, 1, 56, 66
3, 30762, Note_on_c, 1, 59, 55
3, 30966, Note_off_c, 1, 59, 66
3, 30966, Note_off_c, 1, 56, 72
3, 30966, Note_off_c, 1, 53, 73
3, 30966, Note_off_c, 1, 50, 76
3, 30966, Note_off_c, 1, 45, 72
3, 31686, Note_on_c, 1, 61, 73
3, 31699, Note_on_c, 1, 64, 73
3, 31712, Note_on_c, 1, 67, 52
3, 31720, Note_on_c, 1, 70, 63
3, 31812, Note_off_c, 1, 70, 55
3, 31812, Note_off_c, 1, 67, 51
3, 31812, Note_off_c, 1, 64, 49
3, 31812, Note_off_c, 1, 61, 50
3, 31932, Note_on_c, 1, 68, 79
3, 31932, Note_on_c, 1, 71, 70
3, 31932, Note_on_c, 1, 62, 74
3, 31932, Note_on_c, 1, 65, 59
3, 32052, Note_off_c, 1, 65, 1
3, 32052, Note_off_c, 1, 62, 37
3, 32052, Note_off_c, 1, 71, 53
3, 32052, Note_off_c, 1, 68, 63
3, 32172, Note_on_c, 1, 45, 74
3, 32172, Note_on_c, 1, 57, 69
3, 32172, Note_on_c, 1, 52, 74
3, 32412, Note_off_c, 1, 52, 48
3, 32412, Note_on_c, 1, 55, 76
3, 32642, Note_off_c, 1, 55, 72
3, 32642, Note_off_c, 1, 57, 47
3, 32642, Note_off_c, 1, 45, 52
3, 32655, Note_on_c, 1, 57, 69
3, 32655, Note_on_c, 1, 54, 68
3, 32655, Note_on_c, 1, 50, 72
3, 33615, Note_off_c, 1, 50, 65
3, 33615, Note_off_c, 1, 54, 72
3, 33615, Note_off_c, 1, 57, 66
3, 33615, End_track
0, 0, End_of_file
