0, 0, Header, 1, 3, 240
1, 0, Start_track
1, 0, Time_signature, 4, 2, 24, 8
1, 0, Tempo, 833333
1, 31800, Tempo, 857143
1, 31920, Tempo, 882353
1, 32040, Tempo, 909091
1, 32160, Tempo, 937500
1, 32280, Tempo, 967742
1, 32400, Tempo, 1000000
1, 32520, Tempo, 1200000
1, 32640, Tempo, 1224490
1, 32760, Tempo, 833333
1, 32760, End_track
2, 0, Start_track
2, 0, Text_t, "RH B"
2, 120, Note_on_c, 0, 67, 64
2, 180, Note_off_c, 0, 67, 44
2, 180, Note_on_c, 0, 72, 64
2, 240, Note_off_c, 0, 72, 77
2, 240, Note_on_c, 0, 76, 64
2, 300, Note_off_c, 0, 76, 52
2, 300, Note_on_c, 0, 67, 64
2, 360, Note_off_c, 0, 67, 32
2, 360, Note_on_c, 0, 72, 64
2, 420, Note_off_c, 0, 72, 72
2, 420, Note_on_c, 0, 76, 64
2, 480, Note_off_c, 0, 76, 65
2, 600, Note_on_c, 0, 67, 64
2, 660, Note_off_c, 0, 67, 46
2, 660, Note_on_c, 0, 72, 64
2, 720, Note_off_c, 0, 72, 68
2, 720, Note_on_c, 0, 76, 64
2, 780, Note_off_c, 0, 76, 47
2, 780, Note_on_c, 0, 67, 64
2, 840, Note_off_c, 0, 67, 40
2, 840, Note_on_c, 0, 72, 64
2, 900, Note_off_c, 0, 72, 80
2, 900, Note_on_c, 0, 76, 64
2, 960, Note_off_c, 0, 76, 50
2, 1080, Note_on_c, 0, 69, 64
2, 1140, Note_off_c, 0, 69, 35
2, 1140, Note_on_c, 0, 74, 64
2, 1200, Note_off_c, 0, 74, 70
2, 1200, Note_on_c, 0, 77, 64
2, 1260, Note_off_c, 0, 77, 69
2, 1260, Note_on_c, 0, 69, 64
2, 1320, Note_off_c, 0, 69, 48
2, 1320, Note_on_c, 0, 74, 64
2, 1380, Note_off_c, 0, 74, 69
2, 1380, Note_on_c, 0, 77, 64
2, 1440, Note_off_c, 0, 77, 74
2, 1560, Note_on_c, 0, 69, 64
2, 1620, Note_off_c, 0, 69, 66
2, 1620, Note_on_c, 0, 74, 64
2, 1680, Note_off_c, 0, 74, 61
2, 1680, Note_on_c, 0, 77, 64
2, 1740, Note_off_c, 0, 77, 62
2, 1740, Note_on_c, 0, 69, 64
2, 1800, Note_off_c, 0, 69, 63
2, 1800, Note_on_c, 0, 74, 64
2, 1860, Note_off_c, 0, 74, 61
2, 1860, Note_on_c, 0, 77, 64
2, 1920, Note_off_c, 0, 77, 61
2, 2040, Note_on_c, 0, 67, 64
2, 2100, Note_off_c, 0, 67, 16
2, 2100, Note_on_c, 0, 74, 64
2, 2160, Note_off_c, 0, 74, 55
2, 2160, Note_on_c, 0, 77, 64
2, 2220, Note_off_c, 0, 77, 63
2, 2220, Note_on_c, 0, 67, 64
2, 2280, Note_off_c, 0, 67, 44
2, 2280, Note_on_c, 0, 74, 64
2, 2340, Note_off_c, 0, 74, 61
2, 2340, Note_on_c, 0, 77, 64
2, 2400, Note_off_c, 0, 77, 68
2, 2520, Note_on_c, 0, 67, 64
2, 2580, Note_off_c, 0, 67, 47
2, 2580, Note_on_c, 0, 74, 64
2, 2640, Note_off_c, 0, 74, 62
2, 2640, Note_on_c, 0, 77, 64
2, 2700, Note_off_c, 0, 77, 54
2, 2700, Note_on_c, 0, 67, 64
2, 2760, Note_off_c, 0, 67, 40
2, 2760, Note_on_c, 0, 74, 64
2, 2820, Note_off_c, 0, 74, 62
2, 2820, Note_on_c, 0, 77, 64
2, 2880, Note_off_c, 0, 77, 61
2, 3000, Note_on_c, 0, 67, 64
2, 3060, Note_off_c, 0, 67, 38
2, 3060, Note_on_c, 0, 72, 64
2, 3120, Note_off_c, 0, 72, 74
2, 3120, Note_on_c, 0, 76, 64
2, 3180, Note_off_c, 0, 76, 51
2, 3180, Note_on_c, 0, 67, 64
2, 3240, Note_off_c, 0, 67, 30
2, 3240, Note_on_c, 0, 72, 64
2, 3300, Note_off_c, 0, 72, 79
2, 3300, Note_on_c, 0, 76, 64
2, 3360, Note_off_c, 0, 76, 61
2, 3480, Note_on_c, 0, 67, 64
2, 3540, Note_off_c, 0, 67, 52
2, 3540, Note_on_c, 0, 72, 64
2, 3600, Note_off_c, 0, 72, 74
2, 3600, Note_on_c, 0, 76, 64
2, 3660, Note_off_c, 0, 76, 58
2, 3660, Note_on_c, 0, 67, 64
2, 3720, Note_off_c, 0, 67, 41
2, 3720, Note_on_c, 0, 72, 64
2, 3780, Note_off_c, 0, 72, 79
2, 3780, Note_on_c, 0, 76, 64
2, 3840, Note_off_c, 0, 76, 63
2, 3960, Note_on_c, 0, 69, 64
2, 4020, Note_off_c, 0, 69, 53
2, 4020, Note_on_c, 0, 76, 64
2, 4080, Note_off_c, 0, 76, 62
2, 4080, Note_on_c, 0, 81, 64
2, 4140, Note_off_c, 0, 81, 59
2, 4140, Note_on_c, 0, 69, 64
2, 4200, Note_off_c, 0, 69, 47
2, 4200, Note_on_c, 0, 76, 64
2, 4260, Note_off_c, 0, 76, 46
2, 4260, Note_on_c, 0, 81, 64
2, 4320, Note_off_c, 0, 81, 54
2, 4440, Note_on_c, 0, 69, 64
2, 4500, Note_off_c, 0, 69, 49
2, 4500, Note_on_c, 0, 76, 64
2, 4560, Note_off_c, 0, 76, 53
2, 4560, Note_on_c, 0, 81, 64
2, 4620, Note_off_c, 0, 81, 57
2, 4620, Note_on_c, 0, 69, 64
2, 4680, Note_off_c, 0, 69, 57
2, 4680, Note_on_c, 0, 76, 64
2, 4740, Note_off_c, 0, 76, 61
2, 4740, Note_on_c, 0, 81, 64
2, 4800, Note_off_c, 0, 81, 73
2, 4920, Note_on_c, 0, 66, 64
2, 4980, Note_off_c, 0, 66, 20
2, 4980, Note_on_c, 0, 69, 64
2, 5040, Note_off_c, 0, 69, 77
2, 5040, Note_on_c, 0, 74, 64
2, 5100, Note_off_c, 0, 74, 59
2, 5100, Note_on_c, 0, 66, 64
2, 5160, Note_off_c, 0, 66, 52
2, 5160, Note_on_c, 0, 69, 64
2, 5220, Note_off_c, 0, 69, 72
2, 5220, Note_on_c, 0, 74, 64
2, 5280, Note_off_c, 0, 74, 63
2, 5400, Note_on_c, 0, 66, 64
2, 5460, Note_off_c, 0, 66, 66
2, 5460, Note_on_c, 0, 69, 64
2, 5520, Note_off_c, 0, 69, 68
2, 5520, Note_on_c, 0, 74, 64
2, 5580, Note_off_c, 0, 74, 47
2, 5580, Note_on_c, 0, 66, 64
2, 5640, Note_off_c, 0, 66, 61
2, 5640, Note_on_c, 0, 69, 64
2, 5700, Note_off_c, 0, 69, 69
2, 5700, Note_on_c, 0, 74, 64
2, 5760, Note_off_c, 0, 74, 76
2, 5880, Note_on_c, 0, 67, 64
2, 5940, Note_off_c, 0, 67, 42
2, 5940, Note_on_c, 0, 74, 64
2, 6000, Note_off_c, 0, 74, 73
2, 6000, Note_on_c, 0, 79, 64
2, 6060, Note_off_c, 0, 79, 51
2, 6060, Note_on_c, 0, 67, 64
2, 6120, Note_off_c, 0, 67, 34
2, 6120, Note_on_c, 0, 74, 64
2, 6180, Note_off_c, 0, 74, 66
2, 6180, Note_on_c, 0, 79, 64
2, 6240, Note_off_c, 0, 79, 58
2, 6360, Note_on_c, 0, 67, 64
2, 6420, Note_off_c, 0, 67, 30
2, 6420, Note_on_c, 0, 74, 64
2, 6480, Note_off_c, 0, 74, 72
2, 6480, Note_on_c, 0, 79, 64
2, 6540, Note_off_c, 0, 79, 61
2, 6540, Note_on_c, 0, 67, 64
2, 6600, Note_off_c, 0, 67, 16
2, 6600, Note_on_c, 0, 74, 64
2, 6660, Note_off_c, 0, 74, 74
2, 6660, Note_on_c, 0, 79, 64
2, 6720, Note_off_c, 0, 79, 72
2, 6840, Note_on_c, 0, 64, 64
2, 6900, Note_off_c, 0, 64, 41
2, 6900, Note_on_c, 0, 67, 64
2, 6960, Note_off_c, 0, 67, 59
2, 6960, Note_on_c, 0, 72, 64
2, 7020, Note_off_c, 0, 72, 72
2, 7020, Note_on_c, 0, 64, 64
2, 7080, Note_off_c, 0, 64, 45
2, 7080, Note_on_c, 0, 67, 64
2, 7140, Note_off_c, 0, 67, 61
2, 7140, Note_on_c, 0, 72, 64
2, 7200, Note_off_c, 0, 72, 80
2, 7320, Note_on_c, 0, 64, 64
2, 7380, Note_off_c, 0, 64, 46
2, 7380, Note_on_c, 0, 67, 64
2, 7440, Note_off_c, 0, 67, 61
2, 7440, Note_on_c, 0, 72, 64
2, 7500, Note_off_c, 0, 72, 68
2, 7500, Note_on_c, 0, 64, 64
2, 7560, Note_off_c, 0, 64, 43
2, 7560, Note_on_c, 0, 67, 64
2, 7620, Note_off_c, 0, 67, 54
2, 7620, Note_on_c, 0, 72, 64
2, 7680, Note_off_c, 0, 72, 66
2, 7800, Note_on_c, 0, 64, 64
2, 7860, Note_off_c, 0, 64, 46
2, 7860, Note_on_c, 0, 67, 64
2, 7920, Note_off_c, 0, 67, 55
2, 7920, Note_on_c, 0, 72, 64
2, 7980, Note_off_c, 0, 72, 69
2, 7980, Note_on_c, 0, 64, 64
2, 8040, Note_off_c, 0, 64, 38
2, 8040, Note_on_c, 0, 67, 64
2, 8100, Note_off_c, 0, 67, 62
2, 8100, Note_on_c, 0, 72, 64
2, 8160, Note_off_c, 0, 72, 70
2, 8280, Note_on_c, 0, 64, 64
2, 8340, Note_off_c, 0, 64, 43
2, 8340, Note_on_c, 0, 67, 64
2, 8400, Note_off_c, 0, 67, 57
2, 8400, Note_on_c, 0, 72, 64
2, 8460, Note_off_c, 0, 72, 68
2, 8460, Note_on_c, 0, 64, 64
2, 8520, Note_off_c, 0, 64, 39
2, 8520, Note_on_c, 0, 67, 64
2, 8580, Note_off_c, 0, 67, 58
2, 8580, Note_on_c, 0, 72, 64
2, 8640, Note_off_c, 0, 72, 77
2, 8760, Note_on_c, 0, 62, 64
2, 8820, Note_off_c, 0, 62, 22
2, 8820, Note_on_c, 0, 66, 64
2, 8880, Note_off_c, 0, 66, 72
2, 8880, Note_on_c, 0, 72, 64
2, 8940, Note_off_c, 0, 72, 51
2, 8940, Note_on_c, 0, 62, 64
2, 9000, Note_off_c, 0, 62, 25
2, 9000, Note_on_c, 0, 66, 64
2, 9060, Note_off_c, 0, 66, 82
2, 9060, Note_on_c, 0, 72, 64
2, 9120, Note_off_c, 0, 72, 79
2, 9240, Note_on_c, 0, 62, 64
2, 9300, Note_off_c, 0, 62, 13
2, 9300, Note_on_c, 0, 66, 64
2, 9360, Note_off_c, 0, 66, 76
2, 9360, Note_on_c, 0, 72, 64
2, 9420, Note_off_c, 0, 72, 62
2, 9420, Note_on_c, 0, 62, 64
2, 9480, Note_off_c, 0, 62, 18
2, 9480, Note_on_c, 0, 66, 64
2, 9540, Note_off_c, 0, 66, 69
2, 9540, Note_on_c, 0, 72, 64
2, 9600, Note_off_c, 0, 72, 70
2, 9720, Note_on_c, 0, 62, 64
2, 9780, Note_off_c, 0, 62, 30
2, 9780, Note_on_c, 0, 67, 64
2, 9840, Note_off_c, 0, 67, 51
2, 9840, Note_on_c, 0, 71, 64
2, 9900, Note_off_c, 0, 71, 66
2, 9900, Note_on_c, 0, 62, 64
2, 9960, Note_off_c, 0, 62, 27
2, 9960, Note_on_c, 0, 67, 64
2, 10020, Note_off_c, 0, 67, 51
2, 10020, Note_on_c, 0, 71, 64
2, 10080, Note_off_c, 0, 71, 79
2, 10200, Note_on_c, 0, 62, 64
2, 10260, Note_off_c, 0, 62, 27
2, 10260, Note_on_c, 0, 67, 64
2, 10320, Note_off_c, 0, 67, 52
2, 10320, Note_on_c, 0, 71, 64
2, 10380, Note_off_c, 0, 71, 65
2, 10380, Note_on_c, 0, 62, 64
2, 10440, Note_off_c, 0, 62, 35
2, 10440, Note_on_c, 0, 67, 64
2, 10500, Note_off_c, 0, 67, 52
2, 10500, Note_on_c, 0, 71, 64
2, 10560, Note_off_c, 0, 71, 79
2, 10680, Note_on_c, 0, 64, 64
2, 10740, Note_off_c, 0, 64, 31
2, 10740, Note_on_c, 0, 67, 64
2, 10800, Note_off_c, 0, 67, 52
2, 10800, Note_on_c, 0, 73, 64
2, 10860, Note_off_c, 0, 73, 62
2, 10860, Note_on_c, 0, 64, 64
2, 10920, Note_off_c, 0, 64, 24
2, 10920, Note_on_c, 0, 67, 64
2, 10980, Note_off_c, 0, 67, 59
2, 10980, Note_on_c, 0, 73, 64
2, 11040, Note_off_c, 0, 73, 74
2, 11160, Note_on_c, 0, 64, 64
2, 11220, Note_off_c, 0, 64, 25
2, 11220, Note_on_c, 0, 67, 64
2, 11280, Note_off_c, 0, 67, 49
2, 11280, Note_on_c, 0, 73, 64
2, 11340, Note_off_c, 0, 73, 61
2, 11340, Note_on_c, 0, 64, 64
2, 11400, Note_off_c, 0, 64, 27
2, 11400, Note_on_c, 0, 67, 64
2, 11460, Note_off_c, 0, 67, 63
2, 11460, Note_on_c, 0, 73, 64
2, 11520, Note_off_c, 0, 73, 63
2, 11640, Note_on_c, 0, 62, 64
2, 11700, Note_off_c, 0, 62, 40
2, 11700, Note_on_c, 0, 69, 64
2, 11760, Note_off_c, 0, 69, 76
2, 11760, Note_on_c, 0, 74, 64
2, 11820, Note_off_c, 0, 74, 58
2, 11820, Note_on_c, 0, 62, 64
2, 11880, Note_off_c, 0, 62, 19
2, 11880, Note_on_c, 0, 69, 64
2, 11940, Note_off_c, 0, 69, 73
2, 11940, Note_on_c, 0, 74, 64
2, 12000, Note_off_c, 0, 74, 73
2, 12120, Note_on_c, 0, 62, 64
2, 12180, Note_off_c, 0, 62, 26
2, 12180, Note_on_c, 0, 69, 64
2, 12240, Note_off_c, 0, 69, 62
2, 12240, Note_on_c, 0, 74, 64
2, 12300, Note_off_c, 0, 74, 49
2, 12300, Note_on_c, 0, 62, 64
2, 12360, Note_off_c, 0, 62, 34
2, 12360, Note_on_c, 0, 69, 64
2, 12420, Note_off_c, 0, 69, 68
2, 12420, Note_on_c, 0, 74, 64
2, 12480, Note_off_c, 0, 74, 74
2, 12600, Note_on_c, 0, 62, 64
2, 12660, Note_off_c, 0, 62, 49
2, 12660, Note_on_c, 0, 65, 64
2, 12720, Note_off_c, 0, 65, 53
2, 12720, Note_on_c, 0, 71, 64
2, 12780, Note_off_c, 0, 71, 59
2, 12780, Note_on_c, 0, 62, 64
2, 12840, Note_off_c, 0, 62, 49
2, 12840, Note_on_c, 0, 65, 64
2, 12900, Note_off_c, 0, 65, 51
2, 12900, Note_on_c, 0, 71, 64
2, 12960, Note_off_c, 0, 71, 72
2, 13080, Note_on_c, 0, 62, 64
2, 13140, Note_off_c, 0, 62, 46
2, 13140, Note_on_c, 0, 65, 64
2, 13200, Note_off_c, 0, 65, 54
2, 13200, Note_on_c, 0, 71, 64
2, 13260, Note_off_c, 0, 71, 33
2, 13260, Note_on_c, 0, 62, 64
2, 13320, Note_off_c, 0, 62, 13
2, 13320, Note_on_c, 0, 65, 64
2, 13380, Note_off_c, 0, 65, 62
2, 13380, Note_on_c, 0, 71, 64
2, 13440, Note_off_c, 0, 71, 74
2, 13560, Note_on_c, 0, 60, 64
2, 13620, Note_off_c, 0, 60, 40
2, 13620, Note_on_c, 0, 67, 64
2, 13680, Note_off_c, 0, 67, 49
2, 13680, Note_on_c, 0, 72, 64
2, 13740, Note_off_c, 0, 72, 65
2, 13740, Note_on_c, 0, 60, 64
2, 13800, Note_off_c, 0, 60, 32
2, 13800, Note_on_c, 0, 67, 64
2, 13860, Note_off_c, 0, 67, 49
2, 13860, Note_on_c, 0, 72, 64
2, 13920, Note_off_c, 0, 72, 66
2, 14040, Note_on_c, 0, 60, 64
2, 14100, Note_off_c, 0, 60, 36
2, 14100, Note_on_c, 0, 67, 64
2, 14160, Note_off_c, 0, 67, 59
2, 14160, Note_on_c, 0, 72, 64
2, 14220, Note_off_c, 0, 72, 69
2, 14220, Note_on_c, 0, 60, 64
2, 14280, Note_off_c, 0, 60, 46
2, 14280, Note_on_c, 0, 67, 64
2, 14340, Note_off_c, 0, 67, 54
2, 14340, Note_on_c, 0, 72, 64
2, 14400, Note_off_c, 0, 72, 80
2, 14520, Note_on_c, 0, 57, 64
2, 14580, Note_off_c, 0, 57, 38
2, 14580, Note_on_c, 0, 60, 64
2, 14640, Note_off_c, 0, 60, 68
2, 14640, Note_on_c, 0, 65, 64
2, 14700, Note_off_c, 0, 65, 57
2, 14700, Note_on_c, 0, 57, 64
2, 14760, Note_off_c, 0, 57, 9
2, 14760, Note_on_c, 0, 60, 64
2, 14820, Note_off_c, 0, 60, 69
2, 14820, Note_on_c, 0, 65, 64
2, 14880, Note_off_c, 0, 65, 66
2, 15000, Note_on_c, 0, 57, 64
2, 15060, Note_off_c, 0, 57, 16
2, 15060, Note_on_c, 0, 60, 64
2, 15120, Note_off_c, 0, 60, 62
2, 15120, Note_on_c, 0, 65, 64
2, 15180, Note_off_c, 0, 65, 49
2, 15180, Note_on_c, 0, 57, 64
2, 15240, Note_off_c, 0, 57, 13
2, 15240, Note_on_c, 0, 60, 64
2, 15300, Note_off_c, 0, 60, 69
2, 15300, Note_on_c, 0, 65, 64
2, 15360, Note_off_c, 0, 65, 62
2, 15480, Note_on_c, 0, 57, 64
2, 15540, Note_off_c, 0, 57, 50
2, 15540, Note_on_c, 0, 60, 64
2, 15600, Note_off_c, 0, 60, 66
2, 15600, Note_on_c, 0, 65, 64
2, 15660, Note_off_c, 0, 65, 47
2, 15660, Note_on_c, 0, 57, 64
2, 15720, Note_off_c, 0, 57, 34
2, 15720, Note_on_c, 0, 60, 64
2, 15780, Note_off_c, 0, 60, 62
2, 15780, Note_on_c, 0, 65, 64
2, 15840, Note_off_c, 0, 65, 51
2, 15960, Note_on_c, 0, 57, 64
2, 16020, Note_off_c, 0, 57, 46
2, 16020, Note_on_c, 0, 60, 64
2, 16080, Note_off_c, 0, 60, 68
2, 16080, Note_on_c, 0, 65, 64
2, 16140, Note_off_c, 0, 65, 34
2, 16140, Note_on_c, 0, 57, 64
2, 16200, Note_off_c, 0, 57, 37
2, 16200, Note_on_c, 0, 60, 64
2, 16260, Note_off_c, 0, 60, 55
2, 16260, Note_on_c, 0, 65, 64
2, 16320, Note_off_c, 0, 65, 43
2, 16440, Note_on_c, 0, 55, 64
2, 16500, Note_off_c, 0, 55, 42
2, 16500, Note_on_c, 0, 59, 64
2, 16560, Note_off_c, 0, 59, 66
2, 16560, Note_on_c, 0, 65, 64
2, 16620, Note_off_c, 0, 65, 48
2, 16620, Note_on_c, 0, 55, 64
2, 16680, Note_off_c, 0, 55, 43
2, 16680, Note_on_c, 0, 59, 64
2, 16740, Note_off_c, 0, 59, 66
2, 16740, Note_on_c, 0, 65, 64
2, 16800, Note_off_c, 0, 65, 61
2, 16920, Note_on_c, 0, 55, 64
2, 16980, Note_off_c, 0, 55, 47
2, 16980, Note_on_c, 0, 59, 64
2, 17040, Note_off_c, 0, 59, 58
2, 17040, Note_on_c, 0, 65, 64
2, 17100, Note_off_c, 0, 65, 55
2, 17100, Note_on_c, 0, 55, 64
2, 17160, Note_off_c, 0, 55, 28
2, 17160, Note_on_c, 0, 59, 64
2, 17220, Note_off_c, 0, 59, 57
2, 17220, Note_on_c, 0, 65, 64
2, 17280, Note_off_c, 0, 65, 50
2, 17400, Note_on_c, 0, 55, 64
2, 17460, Note_off_c, 0, 55, 38
2, 17460, Note_on_c, 0, 60, 64
2, 17520, Note_off_c, 0, 60, 53
2, 17520, Note_on_c, 0, 64, 64
2, 17580, Note_off_c, 0, 64, 49
2, 17580, Note_on_c, 0, 55, 64
2, 17640, Note_off_c, 0, 55, 42
2, 17640, Note_on_c, 0, 60, 64
2, 17700, Note_off_c, 0, 60, 69
2, 17700, Note_on_c, 0, 64, 64
2, 17760, Note_off_c, 0, 64, 54
2, 17880, Note_on_c, 0, 55, 64
2, 17940, Note_off_c, 0, 55, 39
2, 17940, Note_on_c, 0, 60, 64
2, 18000, Note_off_c, 0, 60, 62
2, 18000, Note_on_c, 0, 64, 64
2, 18060, Note_off_c, 0, 64, 35
2, 18060, Note_on_c, 0, 55, 64
2, 18120, Note_off_c, 0, 55, 40
2, 18120, Note_on_c, 0, 60, 64
2, 18180, Note_off_c, 0, 60, 63
2, 18180, Note_on_c, 0, 64, 64
2, 18240, Note_off_c, 0, 64, 59
2, 18360, Note_on_c, 0, 58, 64
2, 18420, Note_off_c, 0, 58, 45
2, 18420, Note_on_c, 0, 60, 64
2, 18480, Note_off_c, 0, 60, 59
2, 18480, Note_on_c, 0, 64, 64
2, 18540, Note_off_c, 0, 64, 46
2, 18540, Note_on_c, 0, 58, 64
2, 18600, Note_off_c, 0, 58, 46
2, 18600, Note_on_c, 0, 60, 64
2, 18660, Note_off_c, 0, 60, 63
2, 18660, Note_on_c, 0, 64, 64
2, 18720, Note_off_c, 0, 64, 53
2, 18840, Note_on_c, 0, 58, 64
2, 18900, Note_off_c, 0, 58, 51
2, 18900, Note_on_c, 0, 60, 64
2, 18960, Note_off_c, 0, 60, 58
2, 18960, Note_on_c, 0, 64, 64
2, 19020, Note_off_c, 0, 64, 33
2, 19020, Note_on_c, 0, 58, 64
2, 19080, Note_off_c, 0, 58, 47
2, 19080, Note_on_c, 0, 60, 64
2, 19140, Note_off_c, 0, 60, 61
2, 19140, Note_on_c, 0, 64, 64
2, 19200, Note_off_c, 0, 64, 30
2, 19320, Note_on_c, 0, 57, 64
2, 19380, Note_off_c, 0, 57, 44
2, 19380, Note_on_c, 0, 60, 64
2, 19440, Note_off_c, 0, 60, 59
2, 19440, Note_on_c, 0, 64, 64
2, 19500, Note_off_c, 0, 64, 46
2, 19500, Note_on_c, 0, 57, 64
2, 19560, Note_off_c, 0, 57, 47
2, 19560, Note_on_c, 0, 60, 64
2, 19620, Note_off_c, 0, 60, 59
2, 19620, Note_on_c, 0, 64, 64
2, 19680, Note_off_c, 0, 64, 53
2, 19800, Note_on_c, 0, 57, 64
2, 19860, Note_off_c, 0, 57, 43
2, 19860, Note_on_c, 0, 60, 64
2, 19920, Note_off_c, 0, 60, 49
2, 19920, Note_on_c, 0, 64, 64
2, 19980, Note_off_c, 0, 64, 42
2, 19980, Note_on_c, 0, 57, 64
2, 20040, Note_off_c, 0, 57, 27
2, 20040, Note_on_c, 0, 60, 64
2, 20100, Note_off_c, 0, 60, 65
2, 20100, Note_on_c, 0, 64, 64
2, 20160, Note_off_c, 0, 64, 55
2, 20280, Note_on_c, 0, 57, 64
2, 20340, Note_off_c, 0, 57, 36
2, 20340, Note_on_c, 0, 60, 64
2, 20400, Note_off_c, 0, 60, 55
2, 20400, Note_on_c, 0, 63, 64
2, 20460, Note_off_c, 0, 63, 51
2, 20460, Note_on_c, 0, 57, 64
2, 20520, Note_off_c, 0, 57, 38
2, 20520, Note_on_c, 0, 60, 64
2, 20580, Note_off_c, 0, 60, 59
2, 20580, Note_on_c, 0, 63, 64
2, 20640, Note_off_c, 0, 63, 65
2, 20760, Note_on_c, 0, 57, 64
2, 20820, Note_off_c, 0, 57, 49
2, 20820, Note_on_c, 0, 60, 64
2, 20880, Note_off_c, 0, 60, 58
2, 20880, Note_on_c, 0, 63, 64
2, 20940, Note_off_c, 0, 63, 52
2, 20940, Note_on_c, 0, 57, 64
2, 21000, Note_off_c, 0, 57, 37
2, 21000, Note_on_c, 0, 60, 64
2, 21060, Note_off_c, 0, 60, 59
2, 21060, Note_on_c, 0, 63, 64
2, 21120, Note_off_c, 0, 63, 65
2, 21240, Note_on_c, 0, 59, 64
2, 21300, Note_off_c, 0, 59, 50
2, 21300, Note_on_c, 0, 60, 64
2, 21360, Note_off_c, 0, 60, 63
2, 21360, Note_on_c, 0, 62, 64
2, 21420, Note_off_c, 0, 62, 57
2, 21420, Note_on_c, 0, 59, 64
2, 21480, Note_off_c, 0, 59, 42
2, 21480, Note_on_c, 0, 60, 64
2, 21540, Note_off_c, 0, 60, 73
2, 21540, Note_on_c, 0, 62, 64
2, 21600, Note_off_c, 0, 62, 69
2, 21720, Note_on_c, 0, 59, 64
2, 21780, Note_off_c, 0, 59, 50
2, 21780, Note_on_c, 0, 60, 64
2, 21840, Note_off_c, 0, 60, 70
2, 21840, Note_on_c, 0, 62, 64
2, 21900, Note_off_c, 0, 62, 58
2, 21900, Note_on_c, 0, 59, 64
2, 21960, Note_off_c, 0, 59, 43
2, 21960, Note_on_c, 0, 60, 64
2, 22020, Note_off_c, 0, 60, 65
2, 22020, Note_on_c, 0, 62, 64
2, 22080, Note_off_c, 0, 62, 65
2, 22200, Note_on_c, 0, 55, 64
2, 22260, Note_off_c, 0, 55, 52
2, 22260, Note_on_c, 0, 59, 64
2, 22320, Note_off_c, 0, 59, 54
2, 22320, Note_on_c, 0, 62, 64
2, 22380, Note_off_c, 0, 62, 51
2, 22380, Note_on_c, 0, 55, 64
2, 22440, Note_off_c, 0, 55, 43
2, 22440, Note_on_c, 0, 59, 64
2, 22500, Note_off_c, 0, 59, 68
2, 22500, Note_on_c, 0, 62, 64
2, 22560, Note_off_c, 0, 62, 65
2, 22680, Note_on_c, 0, 55, 64
2, 22740, Note_off_c, 0, 55, 40
2, 22740, Note_on_c, 0, 59, 64
2, 22800, Note_off_c, 0, 59, 50
2, 22800, Note_on_c, 0, 62, 64
2, 22860, Note_off_c, 0, 62, 51
2, 22860, Note_on_c, 0, 55, 64
2, 22920, Note_off_c, 0, 55, 41
2, 22920, Note_on_c, 0, 59, 64
2, 22980, Note_off_c, 0, 59, 52
2, 22980, Note_on_c, 0, 62, 64
2, 23040, Note_off_c, 0, 62, 58
2, 23160, Note_on_c, 0, 55, 64
2, 23220, Note_off_c, 0, 55, 43
2, 23220, Note_on_c, 0, 60, 64
2, 23280, Note_off_c, 0, 60, 51
2, 23280, Note_on_c, 0, 64, 64
2, 23340, Note_off_c, 0, 64, 48
2, 23340, Note_on_c, 0, 55, 64
2, 23400, Note_off_c, 0, 55, 50
2, 23400, Note_on_c, 0, 60, 64
2, 23460, Note_off_c, 0, 60, 59
2, 23460, Note_on_c, 0, 64, 64
2, 23520, Note_off_c, 0, 64, 58
2, 23640, Note_on_c, 0, 55, 64
2, 23700, Note_off_c, 0, 55, 36
2, 23700, Note_on_c, 0, 60, 64
2, 23760, Note_off_c, 0, 60, 59
2, 23760, Note_on_c, 0, 64, 64
2, 23820, Note_off_c, 0, 64, 46
2, 23820, Note_on_c, 0, 55, 64
2, 23880, Note_off_c, 0, 55, 17
2, 23880, Note_on_c, 0, 60, 64
2, 23940, Note_off_c, 0, 60, 59
2, 23940, Note_on_c, 0, 64, 64
2, 24000, Note_off_c, 0, 64, 55
2, 24120, Note_on_c, 0, 55, 64
2, 24180, Note_off_c, 0, 55, 49
2, 24180, Note_on_c, 0, 60, 64
2, 24240, Note_off_c, 0, 60, 68
2, 24240, Note_on_c, 0, 65, 64
2, 24300, Note_off_c, 0, 65, 49
2, 24300, Note_on_c, 0, 55, 64
2, 24360, Note_off_c, 0, 55, 45
2, 24360, Note_on_c, 0, 60, 64
2, 24420, Note_off_c, 0, 60, 54
2, 24420, Note_on_c, 0, 65, 64
2, 24480, Note_off_c, 0, 65, 65
2, 24600, Note_on_c, 0, 55, 64
2, 24660, Note_off_c, 0, 55, 42
2, 24660, Note_on_c, 0, 60, 64
2, 24720, Note_off_c, 0, 60, 62
2, 24720, Note_on_c, 0, 65, 64
2, 24780, Note_off_c, 0, 65, 57
2, 24780, Note_on_c, 0, 55, 64
2, 24840, Note_off_c, 0, 55, 36
2, 24840, Note_on_c, 0, 60, 64
2, 24900, Note_off_c, 0, 60, 51
2, 24900, Note_on_c, 0, 65, 64
2, 24960, Note_off_c, 0, 65, 44
2, 25080, Note_on_c, 0, 55, 64
2, 25140, Note_off_c, 0, 55, 27
2, 25140, Note_on_c, 0, 59, 64
2, 25200, Note_off_c, 0, 59, 52
2, 25200, Note_on_c, 0, 65, 64
2, 25260, Note_off_c, 0, 65, 48
2, 25260, Note_on_c, 0, 55, 64
2, 25320, Note_off_c, 0, 55, 28
2, 25320, Note_on_c, 0, 59, 64
2, 25380, Note_off_c, 0, 59, 69
2, 25380, Note_on_c, 0, 65, 64
2, 25440, Note_off_c, 0, 65, 47
2, 25560, Note_on_c, 0, 55, 64
2, 25620, Note_off_c, 0, 55, 40
2, 25620, Note_on_c, 0, 59, 64
2, 25680, Note_off_c, 0, 59, 55
2, 25680, Note_on_c, 0, 65, 64
2, 25740, Note_off_c, 0, 65, 58
2, 25740, Note_on_c, 0, 55, 64
2, 25800, Note_off_c, 0, 55, 35
2, 25800, Note_on_c, 0, 59, 64
2, 25860, Note_off_c, 0, 59, 55
2, 25860, Note_on_c, 0, 65, 64
2, 25920, Note_off_c, 0, 65, 59
2, 26040, Note_on_c, 0, 57, 64
2, 26100, Note_off_c, 0, 57, 39
2, 26100, Note_on_c, 0, 60, 64
2, 26160, Note_off_c, 0, 60, 68
2, 26160, Note_on_c, 0, 66, 64
2, 26220, Note_off_c, 0, 66, 39
2, 26220, Note_on_c, 0, 57, 64
2, 26280, Note_off_c, 0, 57, 50
2, 26280, Note_on_c, 0, 60, 64
2, 26340, Note_off_c, 0, 60, 47
2, 26340, Note_on_c, 0, 66, 64
2, 26400, Note_off_c, 0, 66, 74
2, 26520, Note_on_c, 0, 57, 64
2, 26580, Note_off_c, 0, 57, 42
2, 26580, Note_on_c, 0, 60, 64
2, 26640, Note_off_c, 0, 60, 57
2, 26640, Note_on_c, 0, 66, 64
2, 26700, Note_off_c, 0, 66, 68
2, 26700, Note_on_c, 0, 57, 64
2, 26760, Note_off_c, 0, 57, 39
2, 26760, Note_on_c, 0, 60, 64
2, 26820, Note_off_c, 0, 60, 66
2, 26820, Note_on_c, 0, 66, 64
2, 26880, Note_off_c, 0, 66, 68
2, 27000, Note_on_c, 0, 55, 64
2, 27060, Note_off_c, 0, 55, 38
2, 27060, Note_on_c, 0, 60, 64
2, 27120, Note_off_c, 0, 60, 57
2, 27120, Note_on_c, 0, 67, 64
2, 27180, Note_off_c, 0, 67, 43
2, 27180, Note_on_c, 0, 55, 64
2, 27240, Note_off_c, 0, 55, 30
2, 27240, Note_on_c, 0, 60, 64
2, 27300, Note_off_c, 0, 60, 53
2, 27300, Note_on_c, 0, 67, 64
2, 27360, Note_off_c, 0, 67, 46
2, 27480, Note_on_c, 0, 55, 64
2, 27540, Note_off_c, 0, 55, 47
2, 27540, Note_on_c, 0, 60, 64
2, 27600, Note_off_c, 0, 60, 59
2, 27600, Note_on_c, 0, 67, 64
2, 27660, Note_off_c, 0, 67, 48
2, 27660, Note_on_c, 0, 55, 64
2, 27720, Note_off_c, 0, 55, 46
2, 27720, Note_on_c, 0, 60, 64
2, 27780, Note_off_c, 0, 60, 62
2, 27780, Note_on_c, 0, 67, 64
2, 27840, Note_off_c, 0, 67, 54
2, 27960, Note_on_c, 0, 55, 64
2, 28020, Note_off_c, 0, 55, 34
2, 28020, Note_on_c, 0, 60, 64
2, 28080, Note_off_c, 0, 60, 65
2, 28080, Note_on_c, 0, 65, 64
2, 28140, Note_off_c, 0, 65, 47
2, 28140, Note_on_c, 0, 55, 64
2, 28200, Note_off_c, 0, 55, 14
2, 28200, Note_on_c, 0, 60, 64
2, 28260, Note_off_c, 0, 60, 44
2, 28260, Note_on_c, 0, 65, 64
2, 28320, Note_off_c, 0, 65, 52
2, 28440, Note_on_c, 0, 55, 64
2, 28500, Note_off_c, 0, 55, 47
2, 28500, Note_on_c, 0, 60, 64
2, 28560, Note_off_c, 0, 60, 61
2, 28560, Note_on_c, 0, 65, 64
2, 28620, Note_off_c, 0, 65, 38
2, 28620, Note_on_c, 0, 55, 64
2, 28680, Note_off_c, 0, 55, 34
2, 28680, Note_on_c, 0, 60, 64
2, 28740, Note_off_c, 0, 60, 68
2, 28740, Note_on_c, 0, 65, 64
2, 28800, Note_off_c, 0, 65, 48
2, 28920, Note_on_c, 0, 55, 64
2, 28980, Note_off_c, 0, 55, 40
2, 28980, Note_on_c, 0, 59, 64
2, 29040, Note_off_c, 0, 59, 53
2, 29040, Note_on_c, 0, 65, 64
2, 29100, Note_off_c, 0, 65, 53
2, 29100, Note_on_c, 0, 55, 64
2, 29160, Note_off_c, 0, 55, 45
2, 29160, Note_on_c, 0, 59, 64
2, 29220, Note_off_c, 0, 59, 69
2, 29220, Note_on_c, 0, 65, 64
2, 29280, Note_off_c, 0, 65, 55
2, 29400, Note_on_c, 0, 55, 64
2, 29460, Note_off_c, 0, 55, 34
2, 29460, Note_on_c, 0, 59, 64
2, 29520, Note_off_c, 0, 59, 55
2, 29520, Note_on_c, 0, 65, 64
2, 29580, Note_off_c, 0, 65, 52
2, 29580, Note_on_c, 0, 55, 64
2, 29640, Note_off_c, 0, 55, 43
2, 29640, Note_on_c, 0, 59, 64
2, 29700, Note_off_c, 0, 59, 58
2, 29700, Note_on_c, 0, 65, 64
2, 29760, Note_off_c, 0, 65, 49
2, 29880, Note_on_c, 0, 55, 64
2, 29940, Note_off_c, 0, 55, 22
2, 29940, Note_on_c, 0, 58, 64
2, 30000, Note_off_c, 0, 58, 69
2, 30000, Note_on_c, 0, 64, 64
2, 30060, Note_off_c, 0, 64, 34
2, 30060, Note_on_c, 0, 55, 64
2, 30120, Note_off_c, 0, 55, 45
2, 30120, Note_on_c, 0, 58, 64
2, 30180, Note_off_c, 0, 58, 62
2, 30180, Note_on_c, 0, 64, 64
2, 30240, Note_off_c, 0, 64, 49
2, 30360, Note_on_c, 0, 55, 64
2, 30420, Note_off_c, 0, 55, 38
2, 30420, Note_on_c, 0, 58, 64
2, 30480, Note_off_c, 0, 58, 58
2, 30480, Note_on_c, 0, 64, 64
2, 30540, Note_off_c, 0, 64, 46
2, 30540, Note_on_c, 0, 55, 64
2, 30600, Note_off_c, 0, 55, 34
2, 30600, Note_on_c, 0, 58, 64
2, 30660, Note_off_c, 0, 58, 57
2, 30660, Note_on_c, 0, 64, 64
2, 30720, Note_off_c, 0, 64, 52
2, 30840, Note_on_c, 0, 53, 64
2, 30900, Note_off_c, 0, 53, 34
2, 30900, Note_on_c, 0, 57, 64
2, 30960, Note_off_c, 0, 57, 20
2, 30960, Note_on_c, 0, 60, 64
2, 31020, Note_off_c, 0, 60, 63
2, 31020, Note_on_c, 0, 65, 64
2, 31080, Note_off_c, 0, 65, 46
2, 31080, Note_on_c, 0, 60, 64
2, 31140, Note_off_c, 0, 60, 58
2, 31140, Note_on_c, 0, 57, 64
2, 31200, Note_off_c, 0, 57, 46
2, 31200, Note_on_c, 0, 60, 64
2, 31260, Note_off_c, 0, 60, 64
2, 31260, Note_on_c, 0, 57, 64
2, 31320, Note_off_c, 0, 57, 64
2, 31320, Note_on_c, 0, 53, 64
2, 31380, Note_off_c, 0, 53, 64
2, 31380, Note_on_c, 0, 57, 64
2, 31440, Note_off_c, 0, 57, 64
2, 31440, Note_on_c, 0, 53, 64
2, 31500, Note_off_c, 0, 53, 64
2, 31500, Note_on_c, 0, 50, 64
2, 31560, Note_off_c, 0, 50, 64
2, 31560, Note_on_c, 0, 53, 64
2, 31620, Note_off_c, 0, 53, 64
2, 31620, Note_on_c, 0, 50, 64
2, 31680, Note_off_c, 0, 50, 64
2, 31800, Note_on_c, 0, 67, 64
2, 31860, Note_off_c, 0, 67, 28
2, 31860, Note_on_c, 0, 71, 64
2, 31920, Note_off_c, 0, 71, 62
2, 31920, Note_on_c, 0, 74, 64
2, 31980, Note_off_c, 0, 74, 53
2, 31980, Note_on_c, 0, 77, 64
2, 32040, Note_off_c, 0, 77, 55
2, 32040, Note_on_c, 0, 74, 64
2, 32100, Note_off_c, 0, 74, 61
2, 32100, Note_on_c, 0, 71, 64
2, 32160, Note_off_c, 0, 71, 69
2, 32160, Note_on_c, 0, 74, 64
2, 32220, Note_off_c, 0, 74, 55
2, 32220, Note_on_c, 0, 71, 64
2, 32280, Note_off_c, 0, 71, 74
2, 32280, Note_on_c, 0, 67, 64
2, 32340, Note_off_c, 0, 67, 52
2, 32340, Note_on_c, 0, 71, 64
2, 32400, Note_off_c, 0, 71, 80
2, 32400, Note_on_c, 0, 62, 64
2, 32460, Note_off_c, 0, 62, 49
2, 32460, Note_on_c, 0, 65, 64
2, 32520, Note_off_c, 0, 65, 58
2, 32520, Note_on_c, 0, 64, 64
2, 32532, Note_on_c, 0, 65, 64
2, 32535, Note_off_c, 0, 64, 64
2, 32547, Note_off_c, 0, 65, 64
2, 32548, Note_on_c, 0, 64, 64
2, 32578, Note_off_c, 0, 64, 64
2, 32580, Note_on_c, 0, 62, 64
2, 32640, Note_off_c, 0, 62, 68
2, 32640, Note_on_c, 0, 64, 64
2, 32640, Note_on_c, 0, 67, 64
2, 32640, Note_on_c, 0, 72, 64
2, 33600, Note_off_c, 0, 72, 86
2, 33600, Note_off_c, 0, 67, 66
2, 33600, Note_off_c, 0, 64, 65
2, 33600, End_track
3, 0, Start_track
3, 0, Text_t, "LH B"
3, 0, Note_on_c, 0, 60, 64
3, 60, Note_on_c, 0, 64, 64
3, 435, Note_off_c, 0, 64, 52
3, 470, Note_off_c, 0, 60, 61
3, 483, Note_on_c, 0, 60, 64
3, 543, Note_on_c, 0, 64, 64
3, 941, Note_off_c, 0, 64, 52
3, 953, Note_off_c, 0, 60, 62
3, 966, Note_on_c, 0, 60, 64
3, 1026, Note_on_c, 0, 62, 64
3, 1415, Note_off_c, 0, 62, 58
3, 1436, Note_off_c, 0, 60, 61
3, 1449, Note_on_c, 0, 60, 64
3, 1509, Note_on_c, 0, 62, 64
3, 1874, Note_off_c, 0, 62, 50
3, 1919, Note_off_c, 0, 60, 58
3, 1932, Note_on_c, 0, 59, 64
3, 1992, Note_on_c, 0, 62, 64
3, 2382, Note_off_c, 0, 62, 52
3, 2402, Note_off_c, 0, 59, 52
3, 2415, Note_on_c, 0, 59, 64
3, 2475, Note_on_c, 0, 62, 64
3, 2852, Note_off_c, 0, 62, 57
3, 2885, Note_off_c, 0, 59, 61
3, 2898, Note_on_c, 0, 60, 64
3, 2958, Note_on_c, 0, 64, 64
3, 3347, Note_off_c, 0, 64, 58
3, 3368, Note_off_c, 0, 60, 65
3, 3381, Note_on_c, 0, 60, 64
3, 3441, Note_on_c, 0, 64, 64
3, 3822, Note_off_c, 0, 64, 48
3, 3851, Note_off_c, 0, 60, 53
3, 3864, Note_on_c, 0, 60, 64
3, 3924, Note_on_c, 0, 64, 64
3, 4311, Note_off_c, 0, 64, 55
3, 4334, Note_off_c, 0, 60, 65
3, 4347, Note_on_c, 0, 60, 64
3, 4407, Note_on_c, 0, 64, 64
3, 4780, Note_off_c, 0, 64, 49
3, 4817, Note_off_c, 0, 60, 57
3, 4830, Note_on_c, 0, 60, 64
3, 4890, Note_on_c, 0, 62, 64
3, 5248, Note_off_c, 0, 62, 61
3, 5300, Note_off_c, 0, 60, 65
3, 5313, Note_on_c, 0, 60, 64
3, 5373, Note_on_c, 0, 62, 64
3, 5753, Note_off_c, 0, 62, 52
3, 5783, Note_off_c, 0, 60, 54
3, 5796, Note_on_c, 0, 59, 64
3, 5856, Note_on_c, 0, 62, 64
3, 6235, Note_off_c, 0, 62, 51
3, 6266, Note_off_c, 0, 59, 51
3, 6279, Note_on_c, 0, 59, 64
3, 6339, Note_on_c, 0, 62, 64
3, 6708, Note_off_c, 0, 62, 50
3, 6749, Note_off_c, 0, 59, 44
3, 6762, Note_on_c, 0, 59, 64
3, 6822, Note_on_c, 0, 60, 64
3, 7205, Note_off_c, 0, 60, 54
3, 7232, Note_off_c, 0, 59, 46
3, 7245, Note_on_c, 0, 59, 64
3, 7305, Note_on_c, 0, 60, 64
3, 7687, Note_off_c, 0, 60, 51
3, 7715, Note_off_c, 0, 59, 52
3, 7728, Note_on_c, 0, 57, 64
3, 7788, Note_on_c, 0, 60, 64
3, 8175, Note_off_c, 0, 60, 58
3, 8198, Note_off_c, 0, 57, 45
3, 8211, Note_on_c, 0, 57, 64
3, 8271, Note_on_c, 0, 60, 64
3, 8664, Note_off_c, 0, 60, 63
3, 8681, Note_off_c, 0, 57, 46
3, 8694, Note_on_c, 0, 50, 64
3, 8754, Note_on_c, 0, 57, 64
3, 9154, Note_off_c, 0, 57, 49
3, 9167, Note_off_c, 0, 50, 58
3, 9180, Note_on_c, 0, 50, 64
3, 9240, Note_on_c, 0, 57, 64
3, 9621, Note_off_c, 0, 57, 53
3, 9650, Note_off_c, 0, 50, 40
3, 9663, Note_on_c, 0, 55, 64
3, 9723, Note_on_c, 0, 59, 64
3, 10114, Note_off_c, 0, 59, 46
3, 10133, Note_off_c, 0, 55, 66
3, 10146, Note_on_c, 0, 55, 64
3, 10206, Note_on_c, 0, 59, 64
3, 10584, Note_off_c, 0, 59, 55
3, 10616, Note_off_c, 0, 55, 58
3, 10629, Note_on_c, 0, 55, 64
3, 10689, Note_on_c, 0, 58, 64
3, 11092, Note_off_c, 0, 58, 63
3, 11099, Note_off_c, 0, 55, 66
3, 11112, Note_on_c, 0, 55, 64
3, 11172, Note_on_c, 0, 58, 64
3, 11569, Note_off_c, 0, 58, 59
3, 11582, Note_off_c, 0, 55, 61
3, 11595, Note_on_c, 0, 53, 64
3, 11655, Note_on_c, 0, 57, 64
3, 12038, Note_off_c, 0, 57, 63
3, 12065, Note_off_c, 0, 53, 63
3, 12078, Note_on_c, 0, 53, 64
3, 12138, Note_on_c, 0, 57, 64
3, 12522, Note_off_c, 0, 57, 52
3, 12548, Note_off_c, 0, 53, 61
3, 12561, Note_on_c, 0, 53, 64
3, 12621, Note_on_c, 0, 56, 64
3, 13027, Note_off_c, 0, 56, 48
3, 13031, Note_off_c, 0, 53, 51
3, 13044, Note_on_c, 0, 53, 64
3, 13104, Note_on_c, 0, 56, 64
3, 13485, Note_off_c, 0, 56, 53
3, 13514, Note_off_c, 0, 53, 55
3, 13527, Note_on_c, 0, 52, 64
3, 13587, Note_on_c, 0, 55, 64
3, 13983, Note_off_c, 0, 55, 53
3, 13997, Note_off_c, 0, 52, 63
3, 14010, Note_on_c, 0, 52, 64
3, 14070, Note_on_c, 0, 55, 64
3, 14462, Note_off_c, 0, 55, 37
3, 14480, Note_off_c, 0, 52, 53
3, 14493, Note_on_c, 0, 52, 64
3, 14553, Note_on_c, 0, 53, 64
3, 14944, Note_off_c, 0, 53, 50
3, 14963, Note_off_c, 0, 52, 52
3, 14976, Note_on_c, 0, 52, 64
3, 15036, Note_on_c, 0, 53, 64
3, 15420, Note_off_c, 0, 53, 48
3, 15446, Note_off_c, 0, 52, 52
3, 15459, Note_on_c, 0, 50, 64
3, 15519, Note_on_c, 0, 53, 64
3, 15911, Note_off_c, 0, 53, 52
3, 15929, Note_off_c, 0, 50, 54
3, 15942, Note_on_c, 0, 50, 64
3, 16002, Note_on_c, 0, 53, 64
3, 16395, Note_off_c, 0, 53, 69
3, 16412, Note_off_c, 0, 50, 57
3, 16425, Note_on_c, 0, 43, 64
3, 16485, Note_on_c, 0, 50, 64
3, 16895, Note_off_c, 0, 43, 68
3, 16898, Note_off_c, 0, 50, 59
3, 16905, Note_on_c, 0, 43, 64
3, 16965, Note_on_c, 0, 50, 64
3, 17369, Note_off_c, 0, 50, 57
3, 17375, Note_off_c, 0, 43, 69
3, 17388, Note_on_c, 0, 48, 64
3, 17448, Note_on_c, 0, 52, 64
3, 17839, Note_off_c, 0, 52, 61
3, 17858, Note_off_c, 0, 48, 62
3, 17871, Note_on_c, 0, 48, 64
3, 17931, Note_on_c, 0, 52, 64
3, 18317, Note_off_c, 0, 52, 52
3, 18341, Note_off_c, 0, 48, 42
3, 18354, Note_on_c, 0, 48, 64
3, 18414, Note_on_c, 0, 55, 64
3, 18813, Note_off_c, 0, 55, 53
3, 18824, Note_off_c, 0, 48, 54
3, 18837, Note_on_c, 0, 48, 64
3, 18897, Note_on_c, 0, 55, 64
3, 19294, Note_off_c, 0, 55, 69
3, 19294, Note_off_c, 0, 48, 46
3, 19317, Note_on_c, 0, 41, 64
3, 19377, Note_on_c, 0, 53, 64
3, 19787, Note_off_c, 0, 53, 68
3, 19787, Note_off_c, 0, 41, 57
3, 19800, Note_on_c, 0, 41, 64
3, 19860, Note_on_c, 0, 53, 64
3, 20267, Note_off_c, 0, 53, 50
3, 20270, Note_off_c, 0, 41, 35
3, 20283, Note_on_c, 0, 42, 64
3, 20343, Note_on_c, 0, 48, 64
3, 20753, Note_off_c, 0, 42, 47
3, 20766, Note_on_c, 0, 42, 64
3, 20773, Note_off_c, 0, 48, 61
3, 20826, Note_on_c, 0, 48, 64
3, 21234, Note_off_c, 0, 48, 37
3, 21236, Note_off_c, 0, 42, 57
3, 21249, Note_on_c, 0, 44, 64
3, 21309, Note_on_c, 0, 53, 64
3, 21719, Note_off_c, 0, 44, 52
3, 21726, Note_off_c, 0, 53, 66
3, 21729, Note_on_c, 0, 44, 64
3, 21789, Note_on_c, 0, 53, 64
3, 22199, Note_off_c, 0, 53, 61
3, 22199, Note_off_c, 0, 44, 57
3, 22212, Note_on_c, 0, 43, 64
3, 22272, Note_on_c, 0, 53, 64
3, 22682, Note_off_c, 0, 43, 55
3, 22690, Note_off_c, 0, 53, 70
3, 22692, Note_on_c, 0, 43, 64
3, 22752, Note_on_c, 0, 53, 64
3, 23160, Note_off_c, 0, 53, 66
3, 23162, Note_off_c, 0, 43, 52
3, 23175, Note_on_c, 0, 43, 64
3, 23235, Note_on_c, 0, 52, 64
3, 23645, Note_off_c, 0, 43, 43
3, 23658, Note_on_c, 0, 43, 64
3, 23675, Note_off_c, 0, 52, 69
3, 23718, Note_on_c, 0, 52, 64
3, 24128, Note_off_c, 0, 43, 42
3, 24130, Note_off_c, 0, 52, 74
3, 24138, Note_on_c, 0, 43, 64
3, 24198, Note_on_c, 0, 50, 64
3, 24608, Note_off_c, 0, 43, 36
3, 24612, Note_off_c, 0, 50, 65
3, 24618, Note_on_c, 0, 43, 64
3, 24678, Note_on_c, 0, 50, 64
3, 25088, Note_off_c, 0, 43, 47
3, 25101, Note_on_c, 0, 43, 64
3, 25104, Note_off_c, 0, 50, 76
3, 25161, Note_on_c, 0, 50, 64
3, 25560, Note_off_c, 0, 50, 72
3, 25571, Note_off_c, 0, 43, 54
3, 25584, Note_on_c, 0, 43, 64
3, 25644, Note_on_c, 0, 50, 64
3, 26054, Note_off_c, 0, 43, 49
3, 26063, Note_off_c, 0, 50, 50
3, 26064, Note_on_c, 0, 43, 64
3, 26124, Note_on_c, 0, 51, 64
3, 26525, Note_off_c, 0, 51, 74
3, 26534, Note_off_c, 0, 43, 58
3, 26547, Note_on_c, 0, 43, 64
3, 26607, Note_on_c, 0, 51, 64
3, 27008, Note_off_c, 0, 51, 66
3, 27017, Note_off_c, 0, 43, 54
3, 27030, Note_on_c, 0, 43, 64
3, 27090, Note_on_c, 0, 52, 64
3, 27492, Note_off_c, 0, 52, 69
3, 27500, Note_off_c, 0, 43, 58
3, 27513, Note_on_c, 0, 43, 64
3, 27573, Note_on_c, 0, 52, 64
3, 27981, Note_off_c, 0, 52, 68
3, 27983, Note_off_c, 0, 43, 51
3, 27996, Note_on_c, 0, 43, 64
3, 28056, Note_on_c, 0, 50, 64
3, 28446, Note_off_c, 0, 50, 57
3, 28466, Note_off_c, 0, 43, 65
3, 28479, Note_on_c, 0, 43, 64
3, 28539, Note_on_c, 0, 50, 64
3, 28936, Note_off_c, 0, 50, 49
3, 28952, Note_off_c, 0, 43, 57
3, 28965, Note_on_c, 0, 43, 64
3, 29025, Note_on_c, 0, 50, 64
3, 29426, Note_off_c, 0, 50, 62
3, 29435, Note_off_c, 0, 43, 52
3, 29448, Note_on_c, 0, 43, 64
3, 29508, Note_on_c, 0, 50, 64
3, 29887, Note_off_c, 0, 50, 54
3, 29918, Note_off_c, 0, 43, 39
3, 29931, Note_on_c, 0, 36, 64
3, 29991, Note_on_c, 0, 48, 64
3, 30388, Note_off_c, 0, 48, 57
3, 30404, Note_off_c, 0, 36, 52
3, 30417, Note_on_c, 0, 36, 64
3, 30477, Note_on_c, 0, 48, 64
3, 30873, Note_off_c, 0, 48, 55
3, 30887, Note_off_c, 0, 36, 54
3, 30900, Note_on_c, 0, 36, 64
3, 30960, Note_on_c, 0, 48, 64
3, 31850, Note_off_c, 0, 36, 61
3, 31859, Note_off_c, 0, 48, 48
3, 31860, Note_on_c, 0, 36, 64
3, 31920, Note_on_c, 0, 47, 64
3, 32764, Note_off_c, 0, 47, 52
3, 32810, Note_off_c, 0, 36, 51
3, 32823, Note_on_c, 0, 48, 64
3, 32823, Note_on_c, 0, 36, 64
3, 33783, Note_off_c, 0, 36, 65
3, 33783, Note_off_c, 0, 48, 76
3, 33783, End_track
0, 0, End_of_file
