0, 0, Header, 1, 4, 240
1, 0, Start_track
1, 0, Time_signature, 4, 2, 24, 8
1, 0, Tempo, 789474
1, 34320, Tempo, 810811
1, 34560, Tempo, 833333
1, 34680, Tempo, 869565
1, 34800, Tempo, 923077
1, 34920, Tempo, 1000000
1, 34980, Tempo, 1200000
1, 35040, Tempo, 1090909
1, 35040, End_track
2, 0, Start_track
2, 0, Text_t, "RH H"
2, 0, Note_on_c, 0, 70, 64
2, 60, Note_off_c, 0, 70, 80
2, 60, Note_on_c, 0, 67, 64
2, 120, Note_off_c, 0, 67, 65
2, 120, Note_on_c, 0, 65, 64
2, 180, Note_off_c, 0, 65, 9
2, 180, Note_on_c, 0, 67, 64
2, 240, Note_off_c, 0, 67, 28
2, 240, Note_on_c, 0, 63, 64
2, 300, Note_off_c, 0, 63, 52
2, 300, Note_on_c, 0, 68, 64
2, 360, Note_off_c, 0, 68, 82
2, 360, Note_on_c, 0, 67, 64
2, 420, Note_off_c, 0, 67, 63
2, 420, Note_on_c, 0, 68, 64
2, 480, Note_off_c, 0, 68, 82
2, 480, Note_on_c, 0, 72, 64
2, 600, Note_off_c, 0, 72, 85
2, 600, Note_on_c, 0, 70, 64
2, 720, Note_off_c, 0, 70, 80
2, 840, Note_on_c, 0, 69, 64
2, 891, Note_off_c, 0, 69, 79
2, 900, Note_on_c, 0, 65, 64
2, 960, Note_off_c, 0, 65, 1
2, 960, Note_on_c, 0, 75, 64
2, 1080, Note_off_c, 0, 75, 74
2, 1080, Note_on_c, 0, 74, 64
2, 1195, Note_off_c, 0, 74, 66
2, 1200, Note_on_c, 0, 74, 72
2, 1220, Note_on_c, 0, 72, 64
2, 1222, Note_off_c, 0, 74, 57
2, 1240, Note_on_c, 0, 74, 46
2, 1242, Note_off_c, 0, 72, 69
2, 1260, Note_on_c, 0, 72, 48
2, 1262, Note_off_c, 0, 74, 55
2, 1280, Note_on_c, 0, 74, 50
2, 1282, Note_off_c, 0, 72, 69
2, 1300, Note_on_c, 0, 72, 52
2, 1302, Note_off_c, 0, 74, 59
2, 1320, Note_on_c, 0, 74, 54
2, 1322, Note_off_c, 0, 72, 68
2, 1340, Note_on_c, 0, 72, 56
2, 1342, Note_off_c, 0, 74, 62
2, 1360, Note_on_c, 0, 74, 58
2, 1362, Note_off_c, 0, 72, 68
2, 1380, Note_on_c, 0, 72, 59
2, 1382, Note_off_c, 0, 74, 58
2, 1400, Note_on_c, 0, 74, 61
2, 1402, Note_off_c, 0, 72, 70
2, 1420, Note_on_c, 0, 72, 63
2, 1422, Note_off_c, 0, 74, 51
2, 1440, Note_off_c, 0, 72, 59
2, 1440, Note_on_c, 0, 70, 64
2, 1500, Note_off_c, 0, 70, 62
2, 1500, Note_on_c, 0, 77, 64
2, 1560, Note_off_c, 0, 77, 73
2, 1560, Note_on_c, 0, 74, 64
2, 1620, Note_off_c, 0, 74, 69
2, 1620, Note_on_c, 0, 70, 64
2, 1680, Note_off_c, 0, 70, 59
2, 1680, Note_on_c, 0, 68, 64
2, 1740, Note_off_c, 0, 68, 59
2, 1740, Note_on_c, 0, 77, 64
2, 1800, Note_off_c, 0, 77, 76
2, 1800, Note_on_c, 0, 74, 64
2, 1860, Note_off_c, 0, 74, 74
2, 1860, Note_on_c, 0, 68, 64
2, 1920, Note_off_c, 0, 68, 65
2, 1920, Note_on_c, 0, 67, 64
2, 2040, Note_off_c, 0, 67, 57
2, 2040, Note_on_c, 0, 80, 64
2, 2160, Note_off_c, 0, 80, 89
2, 2160, Note_on_c, 0, 79, 64
2, 2280, Note_off_c, 0, 79, 69
2, 2280, Note_on_c, 0, 77, 64
2, 2400, Note_off_c, 0, 77, 63
2, 2400, Note_on_c, 0, 75, 64
2, 2460, Note_off_c, 0, 75, 65
2, 2460, Note_on_c, 0, 72, 64
2, 2520, Note_off_c, 0, 72, 79
2, 2520, Note_on_c, 0, 74, 64
2, 2580, Note_off_c, 0, 74, 52
2, 2580, Note_on_c, 0, 75, 64
2, 2640, Note_off_c, 0, 75, 72
2, 2640, Note_on_c, 0, 77, 64
2, 2940, Note_off_c, 0, 77, 61
2, 2940, Note_on_c, 0, 75, 64
2, 3000, Note_off_c, 0, 75, 52
2, 3000, Note_on_c, 0, 77, 64
2, 3060, Note_off_c, 0, 77, 68
2, 3060, Note_on_c, 0, 79, 64
2, 3120, Note_off_c, 0, 79, 73
2, 3120, Note_on_c, 0, 80, 64
2, 3180, Note_off_c, 0, 80, 80
2, 3180, Note_on_c, 0, 77, 64
2, 3240, Note_off_c, 0, 77, 62
2, 3240, Note_on_c, 0, 70, 64
2, 3300, Note_off_c, 0, 70, 52
2, 3300, Note_on_c, 0, 80, 64
2, 3360, Note_off_c, 0, 80, 1
2, 3360, Note_on_c, 0, 79, 64
2, 3479, Note_off_c, 0, 79, 73
2, 3480, Note_on_c, 0, 75, 64
2, 3540, Note_off_c, 0, 75, 58
2, 3540, Note_on_c, 0, 79, 64
2, 3600, Note_off_c, 0, 79, 69
2, 3600, Note_on_c, 0, 84, 64
2, 3960, Note_off_c, 0, 84, 9
2, 3960, Note_on_c, 0, 74, 64
2, 4020, Note_off_c, 0, 74, 66
2, 4020, Note_on_c, 0, 77, 64
2, 4080, Note_off_c, 0, 77, 74
2, 4080, Note_on_c, 0, 82, 64
2, 4440, Note_off_c, 0, 82, 62
2, 4440, Note_on_c, 0, 72, 64
2, 4500, Note_off_c, 0, 72, 47
2, 4500, Note_on_c, 0, 75, 64
2, 4560, Note_off_c, 0, 75, 69
2, 4560, Note_on_c, 0, 80, 64
2, 4680, Note_off_c, 0, 80, 91
2, 4680, Note_on_c, 0, 79, 64
2, 4800, Note_off_c, 0, 79, 68
2, 4800, Note_on_c, 0, 77, 64
2, 5040, Note_off_c, 0, 77, 77
2, 5040, Note_on_c, 0, 79, 64
2, 5160, Note_off_c, 0, 79, 65
2, 5160, Note_on_c, 0, 74, 64
2, 5280, Note_off_c, 0, 74, 77
2, 5280, Note_on_c, 0, 75, 64
2, 5640, Note_off_c, 0, 75, 68
2, 5640, Note_on_c, 0, 77, 64
2, 5760, Note_off_c, 0, 77, 46
2, 5760, Note_on_c, 0, 79, 64
2, 6120, Note_off_c, 0, 79, 55
2, 6120, Note_on_c, 0, 81, 64
2, 6240, Note_off_c, 0, 81, 32
2, 6240, Note_on_c, 0, 82, 64
2, 6770, Note_off_c, 0, 82, 74
2, 6783, Note_on_c, 0, 82, 64
2, 6843, Note_off_c, 0, 82, 76
2, 6843, Note_on_c, 0, 79, 64
2, 6903, Note_off_c, 0, 79, 66
2, 6903, Note_on_c, 0, 75, 64
2, 6963, Note_off_c, 0, 75, 57
2, 6963, Note_on_c, 0, 73, 64
2, 7023, Note_off_c, 0, 73, 43
2, 7023, Note_on_c, 0, 82, 64
2, 7083, Note_off_c, 0, 82, 73
2, 7083, Note_on_c, 0, 79, 64
2, 7143, Note_off_c, 0, 79, 63
2, 7143, Note_on_c, 0, 73, 64
2, 7203, Note_off_c, 0, 73, 73
2, 7203, Note_on_c, 0, 72, 64
2, 7323, Note_off_c, 0, 72, 51
2, 7323, Note_on_c, 0, 75, 64
2, 7443, Note_off_c, 0, 75, 70
2, 7443, Note_on_c, 0, 80, 64
2, 7733, Note_off_c, 0, 80, 54
2, 7746, Note_on_c, 0, 80, 64
2, 7806, Note_off_c, 0, 80, 65
2, 7806, Note_on_c, 0, 77, 64
2, 7866, Note_off_c, 0, 77, 59
2, 7866, Note_on_c, 0, 74, 64
2, 7926, Note_off_c, 0, 74, 49
2, 7926, Note_on_c, 0, 72, 64
2, 7986, Note_off_c, 0, 72, 48
2, 7986, Note_on_c, 0, 80, 64
2, 8046, Note_off_c, 0, 80, 52
2, 8046, Note_on_c, 0, 77, 64
2, 8106, Note_off_c, 0, 77, 74
2, 8106, Note_on_c, 0, 72, 64
2, 8166, Note_off_c, 0, 72, 53
2, 8166, Note_on_c, 0, 70, 64
2, 8286, Note_off_c, 0, 70, 73
2, 8286, Note_on_c, 0, 74, 64
2, 8406, Note_off_c, 0, 74, 72
2, 8406, Note_on_c, 0, 79, 64
2, 8946, Note_off_c, 0, 79, 55
2, 8946, Note_on_c, 0, 72, 64
2, 9006, Note_off_c, 0, 72, 66
2, 9006, Note_on_c, 0, 74, 64
2, 9066, Note_off_c, 0, 74, 52
2, 9066, Note_on_c, 0, 75, 64
2, 9126, Note_off_c, 0, 75, 46
2, 9126, Note_on_c, 0, 77, 64
2, 9486, Note_off_c, 0, 77, 69
2, 9486, Note_on_c, 0, 75, 64
2, 9666, Note_off_c, 0, 75, 70
2, 9666, Note_on_c, 0, 74, 64
2, 9726, Note_off_c, 0, 74, 77
2, 9726, Note_on_c, 0, 72, 64
2, 9786, Note_off_c, 0, 72, 82
2, 9786, Note_on_c, 0, 74, 64
2, 9846, Note_off_c, 0, 74, 68
2, 9906, Note_on_c, 0, 75, 64
2, 9966, Note_off_c, 0, 75, 61
2, 9966, Note_on_c, 0, 74, 64
2, 10026, Note_off_c, 0, 74, 43
2, 10026, Note_on_c, 0, 75, 64
2, 10086, Note_off_c, 0, 75, 59
2, 10086, Note_on_c, 0, 79, 64
2, 10206, Note_off_c, 0, 79, 50
2, 10206, Note_on_c, 0, 77, 64
2, 10326, Note_off_c, 0, 77, 76
2, 10446, Note_on_c, 0, 74, 64
2, 10506, Note_off_c, 0, 74, 73
2, 10506, Note_on_c, 0, 70, 64
2, 10566, Note_off_c, 0, 70, 74
2, 10566, Note_on_c, 0, 80, 64
2, 10686, Note_off_c, 0, 80, 80
2, 10686, Note_on_c, 0, 79, 64
2, 10806, Note_off_c, 0, 79, 57
2, 10806, Note_on_c, 0, 77, 64
2, 11045, Note_off_c, 0, 77, 57
2, 11106, Note_on_c, 0, 82, 64
2, 11166, Note_off_c, 0, 82, 72
2, 11166, Note_on_c, 0, 79, 64
2, 11226, Note_off_c, 0, 79, 62
2, 11226, Note_on_c, 0, 75, 64
2, 11286, Note_off_c, 0, 75, 53
2, 11286, Note_on_c, 0, 73, 64
2, 11346, Note_off_c, 0, 73, 55
2, 11346, Note_on_c, 0, 82, 64
2, 11406, Note_off_c, 0, 82, 73
2, 11406, Note_on_c, 0, 79, 64
2, 11466, Note_off_c, 0, 79, 57
2, 11466, Note_on_c, 0, 73, 64
2, 11526, Note_off_c, 0, 73, 80
2, 11526, Note_on_c, 0, 72, 64
2, 11646, Note_off_c, 0, 72, 59
2, 11646, Note_on_c, 0, 80, 64
2, 11766, Note_off_c, 0, 80, 77
2, 11886, Note_on_c, 0, 68, 64
2, 12006, Note_off_c, 0, 68, 53
2, 12006, Note_on_c, 0, 74, 64
2, 12066, Note_off_c, 0, 74, 41
2, 12066, Note_on_c, 0, 80, 64
2, 12126, Note_off_c, 0, 80, 52
2, 12126, Note_on_c, 0, 77, 64
2, 12186, Note_off_c, 0, 77, 52
2, 12186, Note_on_c, 0, 74, 64
2, 12246, Note_off_c, 0, 74, 24
2, 12246, Note_on_c, 0, 72, 64
2, 12306, Note_off_c, 0, 72, 63
2, 12306, Note_on_c, 0, 80, 64
2, 12366, Note_off_c, 0, 80, 46
2, 12366, Note_on_c, 0, 77, 64
2, 12426, Note_off_c, 0, 77, 44
2, 12426, Note_on_c, 0, 72, 64
2, 12486, Note_off_c, 0, 72, 76
2, 12486, Note_on_c, 0, 71, 64
2, 12606, Note_off_c, 0, 71, 61
2, 12606, Note_on_c, 0, 79, 64
2, 12726, Note_off_c, 0, 79, 51
2, 12846, Note_on_c, 0, 67, 64
2, 12966, Note_off_c, 0, 67, 44
2, 12966, Note_on_c, 0, 72, 64
2, 13026, Note_off_c, 0, 72, 73
2, 13026, Note_on_c, 0, 79, 64
2, 13086, Note_off_c, 0, 79, 44
2, 13086, Note_on_c, 0, 76, 64
2, 13146, Note_off_c, 0, 76, 46
2, 13146, Note_on_c, 0, 72, 64
2, 13206, Note_off_c, 0, 72, 66
2, 13206, Note_on_c, 0, 70, 64
2, 13266, Note_off_c, 0, 70, 46
2, 13266, Note_on_c, 0, 79, 64
2, 13326, Note_off_c, 0, 79, 41
2, 13326, Note_on_c, 0, 76, 64
2, 13386, Note_off_c, 0, 76, 23
2, 13386, Note_on_c, 0, 70, 64
2, 13446, Note_off_c, 0, 70, 55
2, 13446, Note_on_c, 0, 69, 64
2, 13506, Note_off_c, 0, 69, 36
2, 13506, Note_on_c, 0, 79, 64
2, 13566, Note_off_c, 0, 79, 42
2, 13566, Note_on_c, 0, 72, 64
2, 13626, Note_off_c, 0, 72, 77
2, 13626, Note_on_c, 0, 67, 64
2, 13686, Note_off_c, 0, 67, 45
2, 13686, Note_on_c, 0, 68, 64
2, 13746, Note_off_c, 0, 68, 72
2, 13746, Note_on_c, 0, 77, 64
2, 13806, Note_off_c, 0, 77, 50
2, 13806, Note_on_c, 0, 74, 64
2, 13866, Note_off_c, 0, 74, 30
2, 13866, Note_on_c, 0, 68, 64
2, 13926, Note_off_c, 0, 68, 76
2, 13926, Note_on_c, 0, 67, 64
2, 13986, Note_off_c, 0, 67, 45
2, 13986, Note_on_c, 0, 77, 64
2, 14046, Note_off_c, 0, 77, 44
2, 14046, Note_on_c, 0, 74, 64
2, 14106, Note_off_c, 0, 74, 52
2, 14106, Note_on_c, 0, 71, 64
2, 14166, Note_off_c, 0, 71, 34
2, 14166, Note_on_c, 0, 67, 64
2, 14226, Note_off_c, 0, 67, 42
2, 14226, Note_on_c, 0, 75, 64
2, 14286, Note_off_c, 0, 75, 43
2, 14286, Note_on_c, 0, 72, 64
2, 14346, Note_off_c, 0, 72, 72
2, 14346, Note_on_c, 0, 67, 64
2, 14406, Note_off_c, 0, 67, 66
2, 14406, Note_on_c, 0, 66, 64
2, 14466, Note_off_c, 0, 66, 61
2, 14466, Note_on_c, 0, 75, 64
2, 14526, Note_off_c, 0, 75, 40
2, 14526, Note_on_c, 0, 72, 64
2, 14586, Note_off_c, 0, 72, 49
2, 14586, Note_on_c, 0, 69, 64
2, 14646, Note_off_c, 0, 69, 77
2, 14646, Note_on_c, 0, 65, 64
2, 14706, Note_off_c, 0, 65, 54
2, 14706, Note_on_c, 0, 74, 64
2, 14766, Note_off_c, 0, 74, 43
2, 14766, Note_on_c, 0, 71, 64
2, 14826, Note_off_c, 0, 71, 49
2, 14826, Note_on_c, 0, 65, 64
2, 14886, Note_off_c, 0, 65, 65
2, 14886, Note_on_c, 0, 64, 64
2, 14946, Note_off_c, 0, 64, 39
2, 14946, Note_on_c, 0, 74, 64
2, 15006, Note_off_c, 0, 74, 58
2, 15006, Note_on_c, 0, 71, 64
2, 15066, Note_off_c, 0, 71, 47
2, 15066, Note_on_c, 0, 67, 64
2, 15126, Note_off_c, 0, 67, 61
2, 15126, Note_on_c, 0, 63, 64
2, 15186, Note_off_c, 0, 63, 44
2, 15186, Note_on_c, 0, 72, 64
2, 15246, Note_off_c, 0, 72, 61
2, 15246, Note_on_c, 0, 67, 64
2, 15306, Note_off_c, 0, 67, 30
2, 15306, Note_on_c, 0, 63, 64
2, 15366, Note_off_c, 0, 63, 57
2, 15366, Note_on_c, 0, 62, 64
2, 15426, Note_off_c, 0, 62, 31
2, 15426, Note_on_c, 0, 72, 64
2, 15486, Note_off_c, 0, 72, 51
2, 15486, Note_on_c, 0, 68, 64
2, 15546, Note_off_c, 0, 68, 49
2, 15546, Note_on_c, 0, 65, 64
2, 15606, Note_off_c, 0, 65, 27
2, 15606, Note_on_c, 0, 62, 64
2, 15666, Note_off_c, 0, 62, 41
2, 15666, Note_on_c, 0, 71, 64
2, 15726, Note_off_c, 0, 71, 55
2, 15726, Note_on_c, 0, 69, 64
2, 15786, Note_off_c, 0, 69, 58
2, 15786, Note_on_c, 0, 71, 64
2, 15846, Note_off_c, 0, 71, 83
2, 15846, Note_on_c, 0, 72, 64
2, 15966, Note_off_c, 0, 72, 76
2, 15966, Note_on_c, 0, 77, 64
2, 16086, Note_off_c, 0, 77, 58
2, 16086, Note_on_c, 0, 75, 64
2, 16206, Note_off_c, 0, 75, 54
2, 16206, Note_on_c, 0, 74, 64
2, 16326, Note_off_c, 0, 74, 63
2, 16326, Note_on_c, 0, 72, 64
2, 16386, Note_off_c, 0, 72, 77
2, 16386, Note_on_c, 0, 69, 64
2, 16446, Note_off_c, 0, 69, 55
2, 16446, Note_on_c, 0, 71, 64
2, 16506, Note_off_c, 0, 71, 54
2, 16506, Note_on_c, 0, 72, 64
2, 16566, Note_off_c, 0, 72, 68
2, 16566, Note_on_c, 0, 74, 64
2, 16866, Note_off_c, 0, 74, 34
2, 16866, Note_on_c, 0, 72, 64
2, 16926, Note_off_c, 0, 72, 69
2, 16926, Note_on_c, 0, 74, 64
2, 16986, Note_off_c, 0, 74, 57
2, 16986, Note_on_c, 0, 75, 64
2, 17046, Note_off_c, 0, 75, 49
2, 17046, Note_on_c, 0, 77, 64
2, 17106, Note_off_c, 0, 77, 49
2, 17106, Note_on_c, 0, 74, 64
2, 17166, Note_off_c, 0, 74, 46
2, 17166, Note_on_c, 0, 67, 64
2, 17226, Note_off_c, 0, 67, 18
2, 17226, Note_on_c, 0, 77, 64
2, 17286, Note_off_c, 0, 77, 40
2, 17286, Note_on_c, 0, 75, 64
2, 17346, Note_off_c, 0, 75, 34
2, 17346, Note_on_c, 0, 79, 64
2, 17406, Note_off_c, 0, 79, 36
2, 17406, Note_on_c, 0, 75, 64
2, 17466, Note_off_c, 0, 75, 15
2, 17466, Note_on_c, 0, 74, 64
2, 17526, Note_off_c, 0, 74, 69
2, 17526, Note_on_c, 0, 72, 64
2, 17586, Note_off_c, 0, 72, 49
2, 17586, Note_on_c, 0, 84, 64
2, 17646, Note_off_c, 0, 84, 41
2, 17646, Note_on_c, 0, 80, 64
2, 17706, Note_off_c, 0, 80, 50
2, 17706, Note_on_c, 0, 77, 64
2, 17766, Note_off_c, 0, 77, 47
2, 17766, Note_on_c, 0, 74, 64
2, 17826, Note_off_c, 0, 74, 52
2, 17826, Note_on_c, 0, 77, 64
2, 17886, Note_off_c, 0, 77, 43
2, 17886, Note_on_c, 0, 74, 64
2, 17946, Note_off_c, 0, 74, 49
2, 17946, Note_on_c, 0, 72, 64
2, 18006, Note_off_c, 0, 72, 85
2, 18006, Note_on_c, 0, 70, 64
2, 18066, Note_off_c, 0, 70, 49
2, 18066, Note_on_c, 0, 82, 64
2, 18126, Note_off_c, 0, 82, 43
2, 18126, Note_on_c, 0, 79, 64
2, 18186, Note_off_c, 0, 79, 30
2, 18186, Note_on_c, 0, 75, 64
2, 18246, Note_off_c, 0, 75, 39
2, 18246, Note_on_c, 0, 72, 64
2, 18306, Note_off_c, 0, 72, 61
2, 18306, Note_on_c, 0, 75, 64
2, 18366, Note_off_c, 0, 75, 22
2, 18366, Note_on_c, 0, 72, 64
2, 18426, Note_off_c, 0, 72, 66
2, 18426, Note_on_c, 0, 70, 64
2, 18486, Note_off_c, 0, 70, 70
2, 18486, Note_on_c, 0, 68, 64
2, 18546, Note_off_c, 0, 68, 54
2, 18546, Note_on_c, 0, 80, 64
2, 18606, Note_off_c, 0, 80, 58
2, 18606, Note_on_c, 0, 77, 64
2, 18666, Note_off_c, 0, 77, 43
2, 18666, Note_on_c, 0, 74, 64
2, 18726, Note_off_c, 0, 74, 50
2, 18726, Note_on_c, 0, 71, 64
2, 18966, Note_off_c, 0, 71, 62
2, 18966, Note_on_c, 0, 72, 64
2, 19326, Note_off_c, 0, 72, 82
2, 19326, Note_on_c, 0, 71, 64
2, 19446, Note_off_c, 0, 71, 61
2, 19446, Note_on_c, 0, 72, 64
2, 19506, Note_off_c, 0, 72, 74
2, 19506, Note_on_c, 0, 71, 64
2, 19566, Note_off_c, 0, 71, 63
2, 19566, Note_on_c, 0, 72, 64
2, 19626, Note_off_c, 0, 72, 76
2, 19626, Note_on_c, 0, 74, 64
2, 19686, Note_off_c, 0, 74, 49
2, 19686, Note_on_c, 0, 75, 64
2, 19806, Note_off_c, 0, 75, 72
2, 19806, Note_on_c, 0, 74, 64
2, 19926, Note_off_c, 0, 74, 36
2, 19926, Note_on_c, 0, 76, 64
2, 20046, Note_off_c, 0, 76, 52
2, 20046, Note_on_c, 0, 78, 64
2, 20166, Note_off_c, 0, 78, 49
2, 20166, Note_on_c, 0, 79, 64
2, 20226, Note_off_c, 0, 79, 65
2, 20226, Note_on_c, 0, 74, 64
2, 20286, Note_off_c, 0, 74, 73
2, 20286, Note_on_c, 0, 72, 64
2, 20346, Note_off_c, 0, 72, 82
2, 20346, Note_on_c, 0, 74, 64
2, 20406, Note_off_c, 0, 74, 57
2, 20466, Note_on_c, 0, 76, 64
2, 20526, Note_off_c, 0, 76, 34
2, 20526, Note_on_c, 0, 74, 64
2, 20586, Note_off_c, 0, 74, 1
2, 20586, Note_on_c, 0, 76, 64
2, 20646, Note_off_c, 0, 76, 40
2, 20646, Note_on_c, 0, 79, 64
2, 20766, Note_off_c, 0, 79, 49
2, 20766, Note_on_c, 0, 77, 64
2, 20886, Note_off_c, 0, 77, 77
2, 21126, Note_on_c, 0, 77, 64
2, 21186, Note_off_c, 0, 77, 76
2, 21186, Note_on_c, 0, 72, 64
2, 21246, Note_off_c, 0, 72, 50
2, 21246, Note_on_c, 0, 70, 64
2, 21306, Note_off_c, 0, 70, 77
2, 21306, Note_on_c, 0, 72, 64
2, 21366, Note_off_c, 0, 72, 82
2, 21426, Note_on_c, 0, 74, 64
2, 21486, Note_off_c, 0, 74, 69
2, 21486, Note_on_c, 0, 72, 64
2, 21546, Note_off_c, 0, 72, 49
2, 21546, Note_on_c, 0, 74, 64
2, 21606, Note_on_c, 0, 77, 64
2, 21611, Note_off_c, 0, 74, 76
2, 21726, Note_off_c, 0, 77, 76
2, 21726, Note_on_c, 0, 75, 64
2, 21846, Note_off_c, 0, 75, 73
2, 22146, Note_on_c, 0, 70, 64
2, 22206, Note_off_c, 0, 70, 76
2, 22206, Note_on_c, 0, 75, 64
2, 22266, Note_off_c, 0, 75, 66
2, 22266, Note_on_c, 0, 72, 64
2, 22326, Note_off_c, 0, 72, 62
2, 22326, Note_on_c, 0, 73, 64
2, 22566, Note_off_c, 0, 73, 72
2, 22626, Note_on_c, 0, 72, 64
2, 22686, Note_off_c, 0, 72, 54
2, 22686, Note_on_c, 0, 77, 64
2, 22746, Note_off_c, 0, 77, 52
2, 22746, Note_on_c, 0, 74, 64
2, 22806, Note_off_c, 0, 74, 68
2, 22806, Note_on_c, 0, 75, 64
2, 23046, Note_off_c, 0, 75, 70
2, 23106, Note_on_c, 0, 74, 64
2, 23166, Note_off_c, 0, 74, 73
2, 23166, Note_on_c, 0, 79, 64
2, 23226, Note_off_c, 0, 79, 65
2, 23226, Note_on_c, 0, 75, 64
2, 23286, Note_off_c, 0, 75, 68
2, 23286, Note_on_c, 0, 77, 64
2, 23526, Note_off_c, 0, 77, 80
2, 23586, Note_on_c, 0, 75, 64
2, 23646, Note_off_c, 0, 75, 23
2, 23646, Note_on_c, 0, 79, 64
2, 23706, Note_off_c, 0, 79, 34
2, 23706, Note_on_c, 0, 82, 64
2, 23766, Note_off_c, 0, 82, 62
2, 23766, Note_on_c, 0, 80, 64
2, 23826, Note_off_c, 0, 80, 83
2, 23826, Note_on_c, 0, 77, 64
2, 23886, Note_off_c, 0, 77, 44
2, 23886, Note_on_c, 0, 73, 64
2, 23946, Note_off_c, 0, 73, 65
2, 23946, Note_on_c, 0, 79, 64
2, 24006, Note_off_c, 0, 79, 23
2, 24006, Note_on_c, 0, 77, 64
2, 24126, Note_off_c, 0, 77, 74
2, 24126, Note_on_c, 0, 80, 64
2, 24246, Note_off_c, 0, 80, 1
2, 24246, Note_on_c, 0, 79, 64
2, 24366, Note_off_c, 0, 79, 70
2, 24366, Note_on_c, 0, 77, 64
2, 24486, Note_off_c, 0, 77, 50
2, 24486, Note_on_c, 0, 75, 64
2, 24546, Note_off_c, 0, 75, 55
2, 24546, Note_on_c, 0, 72, 64
2, 24606, Note_off_c, 0, 72, 49
2, 24606, Note_on_c, 0, 74, 64
2, 24666, Note_off_c, 0, 74, 63
2, 24666, Note_on_c, 0, 75, 64
2, 24726, Note_off_c, 0, 75, 68
2, 24726, Note_on_c, 0, 77, 64
2, 25026, Note_off_c, 0, 77, 72
2, 25026, Note_on_c, 0, 75, 64
2, 25086, Note_off_c, 0, 75, 50
2, 25086, Note_on_c, 0, 77, 64
2, 25146, Note_off_c, 0, 77, 53
2, 25146, Note_on_c, 0, 79, 64
2, 25206, Note_off_c, 0, 79, 44
2, 25206, Note_on_c, 0, 80, 64
2, 25266, Note_off_c, 0, 80, 82
2, 25266, Note_on_c, 0, 77, 64
2, 25326, Note_off_c, 0, 77, 61
2, 25326, Note_on_c, 0, 70, 64
2, 25386, Note_off_c, 0, 70, 22
2, 25386, Note_on_c, 0, 80, 64
2, 25446, Note_off_c, 0, 80, 83
2, 25446, Note_on_c, 0, 79, 64
2, 25506, Note_off_c, 0, 79, 48
2, 25506, Note_on_c, 0, 82, 64
2, 25566, Note_off_c, 0, 82, 65
2, 25566, Note_on_c, 0, 79, 64
2, 25626, Note_off_c, 0, 79, 44
2, 25626, Note_on_c, 0, 75, 64
2, 25686, Note_off_c, 0, 75, 66
2, 25686, Note_on_c, 0, 73, 64
2, 25926, Note_off_c, 0, 73, 42
2, 25926, Note_on_c, 0, 72, 64
2, 25986, Note_off_c, 0, 72, 73
2, 25986, Note_on_c, 0, 84, 64
2, 26046, Note_off_c, 0, 84, 44
2, 26046, Note_on_c, 0, 80, 64
2, 26106, Note_off_c, 0, 80, 63
2, 26106, Note_on_c, 0, 77, 64
2, 26166, Note_off_c, 0, 77, 58
2, 26166, Note_on_c, 0, 75, 64
2, 26379, Note_off_c, 0, 75, 45
2, 26406, Note_on_c, 0, 74, 64
2, 26466, Note_off_c, 0, 74, 47
2, 26466, Note_on_c, 0, 77, 64
2, 26526, Note_off_c, 0, 77, 79
2, 26526, Note_on_c, 0, 74, 64
2, 26586, Note_off_c, 0, 74, 52
2, 26586, Note_on_c, 0, 70, 64
2, 26646, Note_off_c, 0, 70, 62
2, 26646, Note_on_c, 0, 68, 64
2, 26946, Note_off_c, 0, 68, 63
2, 26946, Note_on_c, 0, 67, 64
2, 27006, Note_off_c, 0, 67, 62
2, 27006, Note_on_c, 0, 65, 64
2, 27066, Note_off_c, 0, 65, 65
2, 27066, Note_on_c, 0, 67, 64
2, 27126, Note_off_c, 0, 67, 36
2, 27126, Note_on_c, 0, 63, 64
2, 27186, Note_off_c, 0, 63, 62
2, 27186, Note_on_c, 0, 68, 64
2, 27246, Note_off_c, 0, 68, 63
2, 27246, Note_on_c, 0, 67, 64
2, 27306, Note_off_c, 0, 67, 34
2, 27306, Note_on_c, 0, 68, 64
2, 27366, Note_off_c, 0, 68, 80
2, 27366, Note_on_c, 0, 72, 64
2, 27486, Note_off_c, 0, 72, 77
2, 27486, Note_on_c, 0, 70, 64
2, 27606, Note_off_c, 0, 70, 83
2, 27726, Note_on_c, 0, 69, 64
2, 27786, Note_off_c, 0, 69, 70
2, 27786, Note_on_c, 0, 65, 64
2, 27846, Note_off_c, 0, 65, 33
2, 27846, Note_on_c, 0, 75, 64
2, 27966, Note_off_c, 0, 75, 74
2, 27966, Note_on_c, 0, 74, 64
2, 28081, Note_off_c, 0, 74, 66
2, 28086, Note_on_c, 0, 74, 72
2, 28106, Note_off_c, 0, 74, 41
2, 28106, Note_on_c, 0, 72, 43
2, 28126, Note_off_c, 0, 72, 65
2, 28126, Note_on_c, 0, 74, 45
2, 28146, Note_off_c, 0, 74, 43
2, 28146, Note_on_c, 0, 72, 47
2, 28166, Note_off_c, 0, 72, 72
2, 28166, Note_on_c, 0, 74, 49
2, 28186, Note_off_c, 0, 74, 50
2, 28186, Note_on_c, 0, 72, 51
2, 28206, Note_off_c, 0, 72, 72
2, 28206, Note_on_c, 0, 74, 53
2, 28226, Note_off_c, 0, 74, 49
2, 28226, Note_on_c, 0, 72, 55
2, 28246, Note_off_c, 0, 72, 70
2, 28246, Note_on_c, 0, 74, 57
2, 28266, Note_off_c, 0, 74, 51
2, 28266, Note_on_c, 0, 72, 59
2, 28286, Note_off_c, 0, 72, 72
2, 28286, Note_on_c, 0, 74, 61
2, 28306, Note_off_c, 0, 74, 51
2, 28306, Note_on_c, 0, 72, 63
2, 28326, Note_off_c, 0, 72, 68
2, 28326, Note_on_c, 0, 70, 64
2, 28446, Note_off_c, 0, 70, 76
2, 28446, Note_on_c, 0, 77, 64
2, 28566, Note_off_c, 0, 77, 74
2, 28566, Note_on_c, 0, 74, 64
2, 28686, Note_off_c, 0, 74, 73
2, 28686, Note_on_c, 0, 70, 64
2, 28806, Note_off_c, 0, 70, 80
2, 28806, Note_on_c, 0, 82, 64
2, 29406, Note_off_c, 0, 82, 68
2, 29406, Note_on_c, 0, 75, 64
2, 29526, Note_off_c, 0, 75, 69
2, 29526, Note_on_c, 0, 72, 64
2, 29646, Note_off_c, 0, 72, 46
2, 29646, Note_on_c, 0, 68, 64
2, 29766, Note_off_c, 0, 68, 80
2, 29766, Note_on_c, 0, 80, 64
2, 30366, Note_off_c, 0, 80, 80
2, 30366, Note_on_c, 0, 74, 64
2, 30486, Note_off_c, 0, 74, 66
2, 30486, Note_on_c, 0, 70, 64
2, 30606, Note_off_c, 0, 70, 80
2, 30606, Note_on_c, 0, 67, 64
2, 30726, Note_off_c, 0, 67, 52
2, 30726, Note_on_c, 0, 79, 64
2, 31026, Note_off_c, 0, 79, 59
2, 31026, Note_on_c, 0, 72, 64
2, 31086, Note_off_c, 0, 72, 66
2, 31086, Note_on_c, 0, 74, 64
2, 31146, Note_off_c, 0, 74, 49
2, 31146, Note_on_c, 0, 75, 64
2, 31206, Note_off_c, 0, 75, 34
2, 31206, Note_on_c, 0, 77, 64
2, 31266, Note_off_c, 0, 77, 62
2, 31266, Note_on_c, 0, 75, 64
2, 31326, Note_off_c, 0, 75, 61
2, 31326, Note_on_c, 0, 74, 64
2, 31386, Note_off_c, 0, 74, 73
2, 31386, Note_on_c, 0, 72, 64
2, 31446, Note_off_c, 0, 72, 55
2, 31446, Note_on_c, 0, 70, 64
2, 31506, Note_off_c, 0, 70, 65
2, 31506, Note_on_c, 0, 68, 64
2, 31566, Note_off_c, 0, 68, 62
2, 31566, Note_on_c, 0, 70, 64
2, 31626, Note_off_c, 0, 70, 48
2, 31626, Note_on_c, 0, 72, 64
2, 31686, Note_off_c, 0, 72, 83
2, 31686, Note_on_c, 0, 65, 64
2, 31926, Note_off_c, 0, 65, 57
2, 32046, Note_on_c, 0, 65, 64
2, 32166, Note_off_c, 0, 65, 46
2, 32166, Note_on_c, 0, 75, 64
2, 32286, Note_off_c, 0, 75, 69
2, 32286, Note_on_c, 0, 74, 64
2, 32406, Note_off_c, 0, 74, 77
2, 32646, Note_on_c, 0, 77, 64
2, 32766, Note_off_c, 0, 77, 73
2, 32766, Note_on_c, 0, 75, 64
2, 33006, Note_off_c, 0, 75, 40
2, 33006, Note_on_c, 0, 74, 64
2, 33126, Note_off_c, 0, 74, 37
2, 33126, Note_on_c, 0, 75, 64
2, 33186, Note_off_c, 0, 75, 43
2, 33186, Note_on_c, 0, 79, 64
2, 33246, Note_off_c, 0, 79, 42
2, 33246, Note_on_c, 0, 75, 64
2, 33306, Note_off_c, 0, 75, 52
2, 33306, Note_on_c, 0, 72, 64
2, 33354, Note_off_c, 0, 72, 49
2, 33366, Note_on_c, 0, 68, 64
2, 33666, Note_off_c, 0, 68, 40
2, 33666, Note_on_c, 0, 77, 64
2, 33726, Note_off_c, 0, 77, 49
2, 33726, Note_on_c, 0, 74, 64
2, 33786, Note_off_c, 0, 74, 43
2, 33786, Note_on_c, 0, 70, 64
2, 33846, Note_off_c, 0, 70, 51
2, 33846, Note_on_c, 0, 67, 64
2, 33966, Note_off_c, 0, 67, 43
2, 33966, Note_on_c, 0, 75, 64
2, 34086, Note_off_c, 0, 75, 43
2, 34086, Note_on_c, 0, 67, 64
2, 34326, Note_off_c, 0, 67, 45
2, 34326, Note_on_c, 0, 65, 64
2, 34566, Note_off_c, 0, 65, 53
2, 34566, Note_on_c, 0, 63, 64
2, 34626, Note_on_c, 0, 61, 64
2, 34806, Note_off_c, 0, 61, 51
2, 34806, Note_on_c, 0, 60, 64
2, 34986, Note_off_c, 0, 60, 66
2, 34986, Note_on_c, 0, 59, 64
2, 35046, Note_off_c, 0, 59, 51
2, 35046, Note_on_c, 0, 58, 64
2, 35526, Note_off_c, 0, 58, 63
2, 35526, Note_off_c, 0, 63, 69
2, 35526, End_track
3, 0, Start_track
3, 0, Text_t, "RH L/LH H"
3, 1920, Note_on_c, 1, 63, 64
3, 1980, Note_off_c, 1, 63, 59
3, 1980, Note_on_c, 1, 62, 64
3, 2040, Note_off_c, 1, 62, 69
3, 2040, Note_on_c, 1, 60, 64
3, 2100, Note_off_c, 1, 60, 55
3, 2100, Note_on_c, 1, 62, 64
3, 2160, Note_off_c, 1, 62, 58
3, 2160, Note_on_c, 1, 58, 64
3, 2220, Note_off_c, 1, 58, 48
3, 2220, Note_on_c, 1, 63, 64
3, 2280, Note_off_c, 1, 63, 53
3, 2280, Note_on_c, 1, 62, 64
3, 2340, Note_off_c, 1, 62, 25
3, 2340, Note_on_c, 1, 63, 64
3, 2400, Note_off_c, 1, 63, 58
3, 2400, Note_on_c, 1, 67, 64
3, 2520, Note_off_c, 1, 67, 47
3, 2520, Note_on_c, 1, 65, 64
3, 2640, Note_off_c, 1, 65, 73
3, 2760, Note_on_c, 1, 62, 64
3, 2820, Note_off_c, 1, 62, 52
3, 2820, Note_on_c, 1, 58, 64
3, 2880, Note_off_c, 1, 58, 72
3, 2880, Note_on_c, 1, 68, 64
3, 3000, Note_off_c, 1, 68, 88
3, 3000, Note_on_c, 1, 67, 64
3, 3115, Note_off_c, 1, 67, 44
3, 3120, Note_on_c, 1, 67, 74
3, 3140, Note_off_c, 1, 67, 35
3, 3140, Note_on_c, 1, 65, 42
3, 3160, Note_on_c, 1, 67, 44
3, 3162, Note_off_c, 1, 65, 1
3, 3180, Note_on_c, 1, 65, 46
3, 3182, Note_off_c, 1, 67, 51
3, 3200, Note_on_c, 1, 67, 48
3, 3202, Note_off_c, 1, 65, 1
3, 3220, Note_on_c, 1, 65, 51
3, 3222, Note_off_c, 1, 67, 48
3, 3240, Note_on_c, 1, 67, 53
3, 3242, Note_off_c, 1, 65, 50
3, 3260, Note_on_c, 1, 65, 55
3, 3262, Note_off_c, 1, 67, 50
3, 3280, Note_on_c, 1, 67, 57
3, 3282, Note_off_c, 1, 65, 51
3, 3300, Note_on_c, 1, 65, 59
3, 3302, Note_off_c, 1, 67, 54
3, 3320, Note_on_c, 1, 67, 61
3, 3322, Note_off_c, 1, 65, 46
3, 3340, Note_on_c, 1, 65, 63
3, 3342, Note_off_c, 1, 67, 50
3, 3360, Note_on_c, 1, 63, 64
3, 3362, Note_off_c, 1, 65, 66
3, 3420, Note_off_c, 1, 63, 49
3, 3420, Note_on_c, 1, 70, 64
3, 3480, Note_off_c, 1, 70, 80
3, 3480, Note_on_c, 1, 67, 64
3, 3540, Note_off_c, 1, 67, 53
3, 3540, Note_on_c, 1, 65, 64
3, 3600, Note_off_c, 1, 65, 77
3, 3600, Note_on_c, 1, 63, 64
3, 3660, Note_off_c, 1, 63, 43
3, 3660, Note_on_c, 1, 72, 64
3, 3720, Note_off_c, 1, 72, 76
3, 3720, Note_on_c, 1, 69, 64
3, 3780, Note_off_c, 1, 69, 69
3, 3780, Note_on_c, 1, 65, 64
3, 3840, Note_off_c, 1, 65, 54
3, 3840, Note_on_c, 1, 62, 64
3, 3900, Note_off_c, 1, 62, 63
3, 3900, Note_on_c, 1, 69, 64
3, 3960, Note_off_c, 1, 69, 76
3, 3960, Note_on_c, 1, 65, 64
3, 4020, Note_off_c, 1, 65, 76
3, 4020, Note_on_c, 1, 63, 64
3, 4080, Note_off_c, 1, 63, 52
3, 4080, Note_on_c, 1, 61, 64
3, 4140, Note_off_c, 1, 61, 46
3, 4140, Note_on_c, 1, 70, 64
3, 4200, Note_off_c, 1, 70, 80
3, 4200, Note_on_c, 1, 67, 64
3, 4260, Note_off_c, 1, 67, 27
3, 4260, Note_on_c, 1, 63, 64
3, 4320, Note_off_c, 1, 63, 33
3, 4320, Note_on_c, 1, 60, 64
3, 4380, Note_off_c, 1, 60, 65
3, 4380, Note_on_c, 1, 67, 64
3, 4440, Note_off_c, 1, 67, 57
3, 4440, Note_on_c, 1, 63, 64
3, 4500, Note_off_c, 1, 63, 55
3, 4500, Note_on_c, 1, 60, 64
3, 4560, Note_off_c, 1, 60, 70
3, 4560, Note_on_c, 1, 62, 64
3, 4620, Note_off_c, 1, 62, 68
3, 4620, Note_on_c, 1, 70, 64
3, 4680, Note_off_c, 1, 70, 73
3, 4680, Note_on_c, 1, 63, 64
3, 4740, Note_off_c, 1, 63, 66
3, 4740, Note_on_c, 1, 72, 64
3, 4800, Note_off_c, 1, 72, 72
3, 4800, Note_on_c, 1, 74, 64
3, 4920, Note_off_c, 1, 74, 70
3, 4920, Note_on_c, 1, 73, 64
3, 5040, Note_off_c, 1, 73, 83
3, 5040, Note_on_c, 1, 72, 64
3, 5160, Note_off_c, 1, 72, 86
3, 5160, Note_on_c, 1, 70, 64
3, 5280, Note_off_c, 1, 70, 74
3, 5280, Note_on_c, 1, 68, 64
3, 5340, Note_off_c, 1, 68, 83
3, 5340, Note_on_c, 1, 67, 64
3, 5400, Note_off_c, 1, 67, 51
3, 5400, Note_on_c, 1, 68, 64
3, 5460, Note_off_c, 1, 68, 74
3, 5460, Note_on_c, 1, 70, 64
3, 5520, Note_off_c, 1, 70, 66
3, 5520, Note_on_c, 1, 72, 64
3, 5820, Note_off_c, 1, 72, 73
3, 5820, Note_on_c, 1, 70, 64
3, 5880, Note_off_c, 1, 70, 73
3, 5880, Note_on_c, 1, 72, 64
3, 5940, Note_off_c, 1, 72, 62
3, 5940, Note_on_c, 1, 74, 64
3, 6000, Note_off_c, 1, 74, 61
3, 6000, Note_on_c, 1, 75, 64
3, 6060, Note_off_c, 1, 75, 65
3, 6060, Note_on_c, 1, 72, 64
3, 6120, Note_off_c, 1, 72, 83
3, 6120, Note_on_c, 1, 65, 64
3, 6180, Note_off_c, 1, 65, 47
3, 6180, Note_on_c, 1, 75, 64
3, 6240, Note_off_c, 1, 75, 73
3, 6240, Note_on_c, 1, 74, 64
3, 6360, Note_off_c, 1, 74, 76
3, 6360, Note_on_c, 1, 77, 64
3, 6480, Note_off_c, 1, 77, 69
3, 6480, Note_on_c, 1, 74, 64
3, 6600, Note_off_c, 1, 74, 77
3, 6600, Note_on_c, 1, 70, 64
3, 6720, Note_off_c, 1, 70, 77
3, 6720, Note_on_c, 1, 75, 64
3, 6840, Note_off_c, 1, 75, 73
3, 7440, Note_on_c, 1, 72, 64
3, 7560, Note_off_c, 1, 72, 83
3, 7560, Note_on_c, 1, 68, 64
3, 7680, Note_off_c, 1, 68, 85
3, 7680, Note_on_c, 1, 74, 64
3, 7800, Note_off_c, 1, 74, 79
3, 8400, Note_on_c, 1, 70, 64
3, 8520, Note_off_c, 1, 70, 77
3, 8520, Note_on_c, 1, 67, 64
3, 8640, Note_off_c, 1, 67, 62
3, 8640, Note_on_c, 1, 72, 64
3, 8760, Note_off_c, 1, 72, 79
3, 8760, Note_on_c, 1, 70, 64
3, 8880, Note_off_c, 1, 70, 79
3, 8880, Note_on_c, 1, 68, 64
3, 9180, Note_off_c, 1, 68, 83
3, 9180, Note_on_c, 1, 72, 64
3, 9240, Note_off_c, 1, 72, 79
3, 9240, Note_on_c, 1, 70, 64
3, 9300, Note_off_c, 1, 70, 74
3, 9300, Note_on_c, 1, 68, 64
3, 9360, Note_off_c, 1, 68, 83
3, 9360, Note_on_c, 1, 67, 64
3, 9600, Note_off_c, 1, 67, 68
3, 9600, Note_on_c, 1, 65, 64
3, 9840, Note_off_c, 1, 65, 76
3, 9840, Note_on_c, 1, 70, 64
3, 10200, Note_off_c, 1, 70, 80
3, 10200, Note_on_c, 1, 68, 64
3, 10260, Note_off_c, 1, 68, 79
3, 10260, Note_on_c, 1, 67, 64
3, 10320, Note_off_c, 1, 67, 62
3, 10320, Note_on_c, 1, 68, 64
3, 10440, Note_off_c, 1, 68, 83
3, 10440, Note_on_c, 1, 65, 64
3, 10560, Note_off_c, 1, 65, 9
3, 10560, Note_on_c, 1, 62, 64
3, 10680, Note_off_c, 1, 62, 53
3, 10680, Note_on_c, 1, 75, 64
3, 10920, Note_on_c, 1, 74, 64
3, 10926, Note_off_c, 1, 75, 53
3, 11040, Note_off_c, 1, 74, 52
3, 11040, Note_on_c, 1, 75, 64
3, 11160, Note_off_c, 1, 75, 72
3, 11280, Note_on_c, 1, 63, 64
3, 11558, Note_off_c, 1, 63, 28
3, 11580, Note_on_c, 1, 63, 64
3, 11640, Note_off_c, 1, 63, 51
3, 11640, Note_on_c, 1, 60, 64
3, 11700, Note_off_c, 1, 60, 66
3, 11700, Note_on_c, 1, 56, 64
3, 11760, Note_off_c, 1, 56, 76
3, 11760, Note_on_c, 1, 55, 64
3, 11820, Note_off_c, 1, 55, 53
3, 11820, Note_on_c, 1, 63, 64
3, 11880, Note_off_c, 1, 63, 53
3, 11880, Note_on_c, 1, 60, 64
3, 11940, Note_off_c, 1, 60, 70
3, 11940, Note_on_c, 1, 55, 64
3, 12000, Note_off_c, 1, 55, 63
3, 12000, Note_on_c, 1, 53, 64
3, 12120, Note_off_c, 1, 53, 52
3, 12120, Note_on_c, 1, 56, 64
3, 12240, Note_off_c, 1, 56, 70
3, 12240, Note_on_c, 1, 62, 64
3, 12530, Note_off_c, 1, 62, 63
3, 12543, Note_on_c, 1, 62, 64
3, 12603, Note_off_c, 1, 62, 57
3, 12603, Note_on_c, 1, 59, 64
3, 12663, Note_off_c, 1, 59, 58
3, 12663, Note_on_c, 1, 55, 64
3, 12723, Note_off_c, 1, 55, 74
3, 12723, Note_on_c, 1, 53, 64
3, 12783, Note_off_c, 1, 53, 61
3, 12783, Note_on_c, 1, 62, 64
3, 12843, Note_off_c, 1, 62, 57
3, 12843, Note_on_c, 1, 59, 64
3, 12903, Note_off_c, 1, 59, 59
3, 12903, Note_on_c, 1, 53, 64
3, 12963, Note_off_c, 1, 53, 68
3, 12963, Note_on_c, 1, 52, 64
3, 13083, Note_off_c, 1, 52, 70
3, 13083, Note_on_c, 1, 55, 64
3, 13203, Note_off_c, 1, 55, 74
3, 13203, Note_on_c, 1, 60, 64
3, 13683, Note_on_c, 1, 59, 64
3, 13689, Note_off_c, 1, 60, 69
3, 13803, Note_off_c, 1, 59, 66
3, 13803, Note_on_c, 1, 60, 64
3, 13923, Note_off_c, 1, 60, 61
3, 13923, Note_on_c, 1, 62, 64
3, 14043, Note_off_c, 1, 62, 73
3, 15843, Note_on_c, 1, 60, 64
3, 15903, Note_off_c, 1, 60, 66
3, 15903, Note_on_c, 1, 58, 64
3, 15963, Note_off_c, 1, 58, 66
3, 15963, Note_on_c, 1, 56, 64
3, 16023, Note_off_c, 1, 56, 54
3, 16023, Note_on_c, 1, 58, 64
3, 16083, Note_off_c, 1, 58, 77
3, 16083, Note_on_c, 1, 55, 64
3, 16143, Note_off_c, 1, 55, 58
3, 16143, Note_on_c, 1, 60, 64
3, 16203, Note_off_c, 1, 60, 53
3, 16203, Note_on_c, 1, 59, 64
3, 16263, Note_off_c, 1, 59, 57
3, 16263, Note_on_c, 1, 60, 64
3, 16323, Note_off_c, 1, 60, 72
3, 16323, Note_on_c, 1, 63, 64
3, 16443, Note_off_c, 1, 63, 69
3, 16443, Note_on_c, 1, 62, 64
3, 16563, Note_off_c, 1, 62, 59
3, 16683, Note_on_c, 1, 59, 64
3, 16743, Note_off_c, 1, 59, 54
3, 16743, Note_on_c, 1, 55, 64
3, 16803, Note_off_c, 1, 55, 57
3, 16803, Note_on_c, 1, 65, 64
3, 16923, Note_off_c, 1, 65, 68
3, 16923, Note_on_c, 1, 63, 64
3, 17038, Note_off_c, 1, 63, 57
3, 17043, Note_on_c, 1, 63, 74
3, 17063, Note_on_c, 1, 62, 42
3, 17065, Note_off_c, 1, 63, 47
3, 17083, Note_on_c, 1, 63, 44
3, 17085, Note_off_c, 1, 62, 17
3, 17103, Note_on_c, 1, 62, 46
3, 17105, Note_off_c, 1, 63, 51
3, 17123, Note_on_c, 1, 63, 48
3, 17125, Note_off_c, 1, 62, 39
3, 17143, Note_on_c, 1, 62, 51
3, 17145, Note_off_c, 1, 63, 51
3, 17163, Note_on_c, 1, 63, 53
3, 17165, Note_off_c, 1, 62, 44
3, 17183, Note_on_c, 1, 62, 55
3, 17185, Note_off_c, 1, 63, 46
3, 17203, Note_on_c, 1, 63, 57
3, 17205, Note_off_c, 1, 62, 44
3, 17223, Note_on_c, 1, 62, 59
3, 17225, Note_off_c, 1, 63, 41
3, 17243, Note_on_c, 1, 63, 61
3, 17245, Note_off_c, 1, 62, 35
3, 17263, Note_on_c, 1, 62, 63
3, 17265, Note_off_c, 1, 63, 49
3, 17283, Note_on_c, 1, 60, 64
3, 17285, Note_off_c, 1, 62, 27
3, 17343, Note_off_c, 1, 60, 62
3, 17343, Note_on_c, 1, 59, 64
3, 17403, Note_off_c, 1, 59, 69
3, 17403, Note_on_c, 1, 60, 64
3, 17463, Note_off_c, 1, 60, 38
3, 17463, Note_on_c, 1, 63, 64
3, 17523, Note_off_c, 1, 63, 66
3, 17523, Note_on_c, 1, 68, 64
3, 17883, Note_off_c, 1, 68, 76
3, 17883, Note_on_c, 1, 58, 64
3, 17943, Note_off_c, 1, 58, 52
3, 17943, Note_on_c, 1, 62, 64
3, 18003, Note_off_c, 1, 62, 62
3, 18003, Note_on_c, 1, 67, 64
3, 18363, Note_off_c, 1, 67, 54
3, 18363, Note_on_c, 1, 56, 64
3, 18423, Note_off_c, 1, 56, 62
3, 18423, Note_on_c, 1, 60, 64
3, 18483, Note_off_c, 1, 60, 62
3, 18483, Note_on_c, 1, 65, 64
3, 18783, Note_off_c, 1, 65, 51
3, 18783, Note_on_c, 1, 67, 64
3, 18843, Note_off_c, 1, 67, 66
3, 18843, Note_on_c, 1, 68, 64
3, 19083, Note_off_c, 1, 68, 83
3, 19083, Note_on_c, 1, 67, 64
3, 19203, Note_off_c, 1, 67, 66
3, 19203, Note_on_c, 1, 65, 64
3, 19263, Note_off_c, 1, 65, 43
3, 19263, Note_on_c, 1, 63, 64
3, 19323, Note_off_c, 1, 63, 62
3, 19323, Note_on_c, 1, 65, 64
3, 19383, Note_off_c, 1, 65, 43
3, 19383, Note_on_c, 1, 67, 64
3, 19443, Note_off_c, 1, 67, 52
3, 19443, Note_on_c, 1, 69, 64
3, 19743, Note_off_c, 1, 69, 80
3, 19743, Note_on_c, 1, 67, 64
3, 19803, Note_off_c, 1, 67, 46
3, 19803, Note_on_c, 1, 69, 64
3, 19863, Note_off_c, 1, 69, 72
3, 19863, Note_on_c, 1, 70, 64
3, 19923, Note_off_c, 1, 70, 57
3, 19923, Note_on_c, 1, 72, 64
3, 19983, Note_off_c, 1, 72, 76
3, 19983, Note_on_c, 1, 69, 64
3, 20043, Note_off_c, 1, 69, 66
3, 20043, Note_on_c, 1, 62, 64
3, 20103, Note_off_c, 1, 62, 39
3, 20103, Note_on_c, 1, 72, 64
3, 20163, Note_off_c, 1, 72, 72
3, 20163, Note_on_c, 1, 70, 64
3, 20393, Note_off_c, 1, 70, 68
3, 20406, Note_on_c, 1, 70, 64
3, 20706, Note_off_c, 1, 70, 52
3, 20706, Note_on_c, 1, 73, 64
3, 20766, Note_off_c, 1, 73, 83
3, 20766, Note_on_c, 1, 72, 64
3, 20826, Note_off_c, 1, 72, 80
3, 20826, Note_on_c, 1, 70, 64
3, 20886, Note_off_c, 1, 70, 76
3, 20886, Note_on_c, 1, 68, 64
3, 20946, Note_off_c, 1, 68, 89
3, 20946, Note_on_c, 1, 67, 64
3, 21006, Note_off_c, 1, 67, 66
3, 21006, Note_on_c, 1, 65, 64
3, 21066, Note_off_c, 1, 65, 54
3, 21066, Note_on_c, 1, 67, 64
3, 21126, Note_off_c, 1, 67, 43
3, 21126, Note_on_c, 1, 68, 64
3, 21356, Note_off_c, 1, 68, 70
3, 21369, Note_on_c, 1, 68, 64
3, 21669, Note_off_c, 1, 68, 83
3, 21669, Note_on_c, 1, 72, 64
3, 21729, Note_off_c, 1, 72, 82
3, 21729, Note_on_c, 1, 70, 64
3, 21789, Note_off_c, 1, 70, 69
3, 21789, Note_on_c, 1, 68, 64
3, 21849, Note_off_c, 1, 68, 79
3, 21849, Note_on_c, 1, 67, 64
3, 21909, Note_off_c, 1, 67, 44
3, 21909, Note_on_c, 1, 65, 64
3, 21969, Note_off_c, 1, 65, 76
3, 21969, Note_on_c, 1, 63, 64
3, 22029, Note_off_c, 1, 63, 45
3, 22029, Note_on_c, 1, 65, 64
3, 22089, Note_off_c, 1, 65, 70
3, 22089, Note_on_c, 1, 67, 64
3, 22329, Note_off_c, 1, 67, 66
3, 22389, Note_on_c, 1, 70, 64
3, 22449, Note_off_c, 1, 70, 46
3, 22449, Note_on_c, 1, 67, 64
3, 22509, Note_off_c, 1, 67, 59
3, 22509, Note_on_c, 1, 63, 64
3, 22569, Note_off_c, 1, 63, 63
3, 22869, Note_on_c, 1, 72, 64
3, 22929, Note_off_c, 1, 72, 73
3, 22929, Note_on_c, 1, 69, 64
3, 22989, Note_off_c, 1, 69, 69
3, 22989, Note_on_c, 1, 65, 64
3, 23049, Note_off_c, 1, 65, 68
3, 23349, Note_on_c, 1, 74, 64
3, 23409, Note_off_c, 1, 74, 52
3, 23409, Note_on_c, 1, 71, 64
3, 23469, Note_off_c, 1, 71, 51
3, 23469, Note_on_c, 1, 67, 64
3, 23529, Note_off_c, 1, 67, 55
3, 24129, Note_on_c, 1, 77, 64
3, 24249, Note_off_c, 1, 77, 69
3, 24249, Note_on_c, 1, 75, 64
3, 24369, Note_off_c, 1, 75, 65
3, 24369, Note_on_c, 1, 68, 64
3, 24489, Note_off_c, 1, 68, 76
3, 24489, Note_on_c, 1, 70, 64
3, 24609, Note_off_c, 1, 70, 70
3, 24609, Note_on_c, 1, 68, 64
3, 24669, Note_off_c, 1, 68, 77
3, 24669, Note_on_c, 1, 67, 64
3, 24729, Note_off_c, 1, 67, 37
3, 24729, Note_on_c, 1, 68, 64
3, 24789, Note_off_c, 1, 68, 79
3, 24789, Note_on_c, 1, 74, 64
3, 24849, Note_off_c, 1, 74, 68
3, 24849, Note_on_c, 1, 70, 64
3, 24909, Note_off_c, 1, 70, 72
3, 24909, Note_on_c, 1, 65, 64
3, 24969, Note_off_c, 1, 65, 5
3, 24969, Note_on_c, 1, 62, 64
3, 25089, Note_off_c, 1, 62, 57
3, 25089, Note_on_c, 1, 63, 64
3, 25329, Note_off_c, 1, 63, 62
3, 25329, Note_on_c, 1, 62, 64
3, 25449, Note_off_c, 1, 62, 62
3, 25449, Note_on_c, 1, 63, 64
3, 25569, Note_off_c, 1, 63, 70
3, 25749, Note_on_c, 1, 70, 64
3, 25809, Note_off_c, 1, 70, 73
3, 25809, Note_on_c, 1, 67, 64
3, 25869, Note_off_c, 1, 67, 59
3, 25869, Note_on_c, 1, 63, 64
3, 25929, Note_off_c, 1, 63, 57
3, 25929, Note_on_c, 1, 56, 64
3, 26049, Note_off_c, 1, 56, 72
3, 26229, Note_on_c, 1, 72, 64
3, 26289, Note_off_c, 1, 72, 50
3, 26289, Note_on_c, 1, 69, 64
3, 26349, Note_off_c, 1, 69, 76
3, 26349, Note_on_c, 1, 65, 64
3, 26409, Note_off_c, 1, 65, 69
3, 26409, Note_on_c, 1, 58, 64
3, 26529, Note_off_c, 1, 58, 79
3, 26709, Note_on_c, 1, 65, 64
3, 26769, Note_on_c, 1, 62, 64
3, 26773, Note_off_c, 1, 65, 72
3, 26829, Note_on_c, 1, 58, 64
3, 26830, Note_off_c, 1, 62, 58
3, 26889, Note_off_c, 1, 58, 68
3, 27009, Note_on_c, 1, 61, 64
3, 27129, Note_off_c, 1, 61, 76
3, 27129, Note_on_c, 1, 60, 64
3, 27249, Note_off_c, 1, 60, 70
3, 27249, Note_on_c, 1, 58, 64
3, 27369, Note_off_c, 1, 58, 55
3, 27369, Note_on_c, 1, 56, 64
3, 27429, Note_off_c, 1, 56, 69
3, 27429, Note_on_c, 1, 55, 64
3, 27489, Note_off_c, 1, 55, 43
3, 27489, Note_on_c, 1, 56, 64
3, 27549, Note_off_c, 1, 56, 61
3, 27549, Note_on_c, 1, 58, 64
3, 27609, Note_off_c, 1, 58, 62
3, 27609, Note_on_c, 1, 60, 64
3, 27909, Note_on_c, 1, 58, 64
3, 27915, Note_off_c, 1, 60, 51
3, 27969, Note_off_c, 1, 58, 76
3, 27969, Note_on_c, 1, 60, 64
3, 28029, Note_off_c, 1, 60, 50
3, 28029, Note_on_c, 1, 62, 64
3, 28089, Note_off_c, 1, 62, 57
3, 28089, Note_on_c, 1, 63, 64
3, 28149, Note_off_c, 1, 63, 45
3, 28149, Note_on_c, 1, 60, 64
3, 28209, Note_off_c, 1, 60, 51
3, 28269, Note_on_c, 1, 63, 64
3, 28329, Note_off_c, 1, 63, 65
3, 28329, Note_on_c, 1, 62, 64
3, 28449, Note_off_c, 1, 62, 70
3, 28869, Note_on_c, 1, 70, 64
3, 28929, Note_off_c, 1, 70, 55
3, 28929, Note_on_c, 1, 75, 64
3, 28989, Note_off_c, 1, 75, 54
3, 28989, Note_on_c, 1, 79, 64
3, 29049, Note_off_c, 1, 79, 62
3, 29049, Note_on_c, 1, 73, 64
3, 29109, Note_off_c, 1, 73, 72
3, 29109, Note_on_c, 1, 70, 64
3, 29169, Note_off_c, 1, 70, 52
3, 29169, Note_on_c, 1, 73, 64
3, 29229, Note_off_c, 1, 73, 68
3, 29229, Note_on_c, 1, 79, 64
3, 29289, Note_off_c, 1, 79, 66
3, 29289, Note_on_c, 1, 72, 64
3, 29409, Note_off_c, 1, 72, 86
3, 29829, Note_on_c, 1, 68, 64
3, 29889, Note_off_c, 1, 68, 53
3, 29889, Note_on_c, 1, 74, 64
3, 29949, Note_off_c, 1, 74, 66
3, 29949, Note_on_c, 1, 77, 64
3, 30009, Note_off_c, 1, 77, 63
3, 30009, Note_on_c, 1, 72, 64
3, 30069, Note_off_c, 1, 72, 80
3, 30069, Note_on_c, 1, 68, 64
3, 30129, Note_off_c, 1, 68, 73
3, 30129, Note_on_c, 1, 72, 64
3, 30189, Note_off_c, 1, 72, 74
3, 30189, Note_on_c, 1, 77, 64
3, 30249, Note_off_c, 1, 77, 63
3, 30249, Note_on_c, 1, 70, 64
3, 30369, Note_off_c, 1, 70, 85
3, 30849, Note_on_c, 1, 70, 64
3, 30969, Note_off_c, 1, 70, 77
3, 30969, Note_on_c, 1, 68, 64
3, 31449, Note_off_c, 1, 68, 82
3, 31449, Note_on_c, 1, 67, 64
3, 31569, Note_off_c, 1, 67, 65
3, 31569, Note_on_c, 1, 63, 64
3, 31749, Note_off_c, 1, 63, 52
3, 31749, Note_on_c, 1, 62, 64
3, 31809, Note_off_c, 1, 62, 53
3, 31809, Note_on_c, 1, 60, 64
3, 31869, Note_off_c, 1, 60, 69
3, 31869, Note_on_c, 1, 62, 64
3, 31929, Note_off_c, 1, 62, 59
3, 31929, Note_on_c, 1, 58, 64
3, 31989, Note_off_c, 1, 58, 52
3, 31989, Note_on_c, 1, 63, 64
3, 32049, Note_off_c, 1, 63, 51
3, 32049, Note_on_c, 1, 62, 64
3, 32109, Note_off_c, 1, 62, 58
3, 32109, Note_on_c, 1, 63, 64
3, 32169, Note_off_c, 1, 63, 37
3, 32169, Note_on_c, 1, 66, 64
3, 32289, Note_off_c, 1, 66, 62
3, 32289, Note_on_c, 1, 65, 64
3, 32409, Note_off_c, 1, 65, 69
3, 32529, Note_on_c, 1, 62, 64
3, 32589, Note_off_c, 1, 62, 54
3, 32589, Note_on_c, 1, 58, 64
3, 32649, Note_off_c, 1, 58, 42
3, 32649, Note_on_c, 1, 68, 64
3, 32769, Note_off_c, 1, 68, 80
3, 32769, Note_on_c, 1, 67, 64
3, 32884, Note_off_c, 1, 67, 65
3, 32889, Note_on_c, 1, 67, 72
3, 32909, Note_off_c, 1, 67, 62
3, 32909, Note_on_c, 1, 65, 43
3, 32929, Note_off_c, 1, 65, 1
3, 32929, Note_on_c, 1, 67, 50
3, 32949, Note_off_c, 1, 67, 63
3, 32949, Note_on_c, 1, 65, 56
3, 32969, Note_off_c, 1, 65, 1
3, 32969, Note_on_c, 1, 67, 62
3, 32989, Note_off_c, 1, 67, 59
3, 32989, Note_on_c, 1, 65, 89
3, 33129, Note_off_c, 1, 65, 66
3, 33129, Note_on_c, 1, 63, 64
3, 33371, Note_off_c, 1, 63, 68
3, 33489, Note_on_c, 1, 65, 64
3, 33609, Note_off_c, 1, 65, 63
3, 33609, Note_on_c, 1, 58, 64
3, 33969, Note_off_c, 1, 58, 72
3, 33969, Note_on_c, 1, 65, 64
3, 34149, Note_off_c, 1, 65, 51
3, 34149, Note_on_c, 1, 62, 64
3, 34209, Note_off_c, 1, 62, 66
3, 34209, Note_on_c, 1, 63, 64
3, 34269, Note_off_c, 1, 63, 46
3, 34269, Note_on_c, 1, 58, 64
3, 34389, Note_off_c, 1, 58, 61
3, 34389, Note_on_c, 1, 60, 64
3, 34449, Note_off_c, 1, 60, 40
3, 34449, Note_on_c, 1, 62, 64
3, 34509, Note_off_c, 1, 62, 57
3, 34509, Note_on_c, 1, 56, 64
3, 34629, Note_off_c, 1, 56, 72
3, 34689, Note_on_c, 1, 58, 64
3, 34749, Note_off_c, 1, 58, 64
3, 34749, Note_on_c, 1, 55, 64
3, 34869, Note_off_c, 1, 55, 64
3, 34869, Note_on_c, 1, 56, 64
3, 34929, Note_off_c, 1, 56, 64
3, 34929, Note_on_c, 1, 53, 64
3, 35049, Note_off_c, 1, 53, 64
3, 35049, Note_on_c, 1, 55, 64
3, 35529, Note_off_c, 1, 55, 68
3, 35529, End_track
4, 0, Start_track
4, 0, Text_t, "LH L"
4, 4800, Note_on_c, 2, 58, 64
4, 4860, Note_off_c, 2, 58, 61
4, 4860, Note_on_c, 2, 55, 64
4, 4920, Note_off_c, 2, 55, 73
4, 4920, Note_on_c, 2, 53, 64
4, 4980, Note_off_c, 2, 53, 61
4, 4980, Note_on_c, 2, 55, 64
4, 5040, Note_off_c, 2, 55, 73
4, 5040, Note_on_c, 2, 51, 64
4, 5100, Note_off_c, 2, 51, 70
4, 5100, Note_on_c, 2, 56, 64
4, 5160, Note_off_c, 2, 56, 68
4, 5160, Note_on_c, 2, 55, 64
4, 5220, Note_off_c, 2, 55, 49
4, 5220, Note_on_c, 2, 56, 64
4, 5280, Note_off_c, 2, 56, 63
4, 5280, Note_on_c, 2, 60, 64
4, 5400, Note_off_c, 2, 60, 53
4, 5400, Note_on_c, 2, 58, 64
4, 5520, Note_off_c, 2, 58, 61
4, 5640, Note_on_c, 2, 57, 64
4, 5700, Note_off_c, 2, 57, 68
4, 5700, Note_on_c, 2, 53, 64
4, 5760, Note_off_c, 2, 53, 52
4, 5760, Note_on_c, 2, 63, 64
4, 5880, Note_off_c, 2, 63, 66
4, 5880, Note_on_c, 2, 62, 64
4, 5995, Note_off_c, 2, 62, 52
4, 6000, Note_on_c, 2, 62, 74
4, 6020, Note_off_c, 2, 62, 52
4, 6020, Note_on_c, 2, 60, 43
4, 6040, Note_on_c, 2, 62, 45
4, 6042, Note_off_c, 2, 60, 59
4, 6060, Note_on_c, 2, 60, 47
4, 6062, Note_off_c, 2, 62, 44
4, 6080, Note_on_c, 2, 62, 49
4, 6082, Note_off_c, 2, 60, 52
4, 6100, Note_on_c, 2, 60, 51
4, 6102, Note_off_c, 2, 62, 50
4, 6120, Note_on_c, 2, 62, 53
4, 6122, Note_off_c, 2, 60, 49
4, 6140, Note_on_c, 2, 60, 56
4, 6142, Note_off_c, 2, 62, 52
4, 6160, Note_on_c, 2, 62, 58
4, 6162, Note_off_c, 2, 60, 50
4, 6180, Note_on_c, 2, 60, 60
4, 6182, Note_off_c, 2, 62, 48
4, 6200, Note_on_c, 2, 62, 62
4, 6202, Note_off_c, 2, 60, 59
4, 6220, Note_on_c, 2, 60, 73
4, 6222, Note_off_c, 2, 62, 51
4, 6240, Note_off_c, 2, 60, 49
4, 6240, Note_on_c, 2, 58, 64
4, 6300, Note_off_c, 2, 58, 74
4, 6300, Note_on_c, 2, 65, 64
4, 6360, Note_off_c, 2, 65, 1
4, 6360, Note_on_c, 2, 62, 64
4, 6420, Note_off_c, 2, 62, 65
4, 6420, Note_on_c, 2, 58, 64
4, 6480, Note_off_c, 2, 58, 73
4, 6480, Note_on_c, 2, 56, 64
4, 6540, Note_off_c, 2, 56, 72
4, 6540, Note_on_c, 2, 65, 64
4, 6600, Note_off_c, 2, 65, 1
4, 6600, Note_on_c, 2, 62, 64
4, 6660, Note_off_c, 2, 62, 62
4, 6660, Note_on_c, 2, 56, 64
4, 6720, Note_off_c, 2, 56, 72
4, 6720, Note_on_c, 2, 55, 64
4, 6840, Note_off_c, 2, 55, 79
4, 6840, Note_on_c, 2, 63, 64
4, 6960, Note_off_c, 2, 63, 66
4, 7080, Note_on_c, 2, 51, 64
4, 7200, Note_off_c, 2, 51, 61
4, 7200, Note_on_c, 2, 56, 64
4, 7260, Note_off_c, 2, 56, 41
4, 7260, Note_on_c, 2, 63, 64
4, 7320, Note_off_c, 2, 63, 50
4, 7320, Note_on_c, 2, 60, 64
4, 7380, Note_off_c, 2, 60, 69
4, 7380, Note_on_c, 2, 56, 64
4, 7440, Note_off_c, 2, 56, 59
4, 7440, Note_on_c, 2, 55, 64
4, 7500, Note_off_c, 2, 55, 59
4, 7500, Note_on_c, 2, 63, 64
4, 7560, Note_off_c, 2, 63, 30
4, 7560, Note_on_c, 2, 60, 64
4, 7620, Note_off_c, 2, 60, 69
4, 7620, Note_on_c, 2, 55, 64
4, 7680, Note_off_c, 2, 55, 30
4, 7680, Note_on_c, 2, 53, 64
4, 7800, Note_off_c, 2, 53, 52
4, 7800, Note_on_c, 2, 62, 64
4, 7920, Note_off_c, 2, 62, 49
4, 8040, Note_on_c, 2, 50, 64
4, 8160, Note_off_c, 2, 50, 77
4, 8160, Note_on_c, 2, 55, 64
4, 8220, Note_off_c, 2, 55, 49
4, 8220, Note_on_c, 2, 62, 64
4, 8280, Note_off_c, 2, 62, 54
4, 8280, Note_on_c, 2, 58, 64
4, 8340, Note_off_c, 2, 58, 70
4, 8340, Note_on_c, 2, 55, 64
4, 8400, Note_off_c, 2, 55, 46
4, 8400, Note_on_c, 2, 53, 64
4, 8460, Note_off_c, 2, 53, 66
4, 8460, Note_on_c, 2, 61, 64
4, 8520, Note_off_c, 2, 61, 54
4, 8520, Note_on_c, 2, 58, 64
4, 8580, Note_off_c, 2, 58, 72
4, 8580, Note_on_c, 2, 55, 64
4, 8640, Note_off_c, 2, 55, 55
4, 8640, Note_on_c, 2, 52, 64
4, 8700, Note_off_c, 2, 52, 70
4, 8700, Note_on_c, 2, 60, 64
4, 8760, Note_off_c, 2, 60, 57
4, 8760, Note_on_c, 2, 55, 64
4, 8820, Note_off_c, 2, 55, 77
4, 8820, Note_on_c, 2, 52, 64
4, 8880, Note_off_c, 2, 52, 73
4, 8880, Note_on_c, 2, 53, 64
4, 8940, Note_off_c, 2, 53, 44
4, 8940, Note_on_c, 2, 60, 64
4, 9000, Note_off_c, 2, 60, 59
4, 9000, Note_on_c, 2, 56, 64
4, 9060, Note_off_c, 2, 56, 61
4, 9060, Note_on_c, 2, 53, 64
4, 9120, Note_off_c, 2, 53, 45
4, 9120, Note_on_c, 2, 50, 64
4, 9180, Note_off_c, 2, 50, 65
4, 9180, Note_on_c, 2, 58, 64
4, 9240, Note_off_c, 2, 58, 65
4, 9240, Note_on_c, 2, 53, 64
4, 9300, Note_off_c, 2, 53, 46
4, 9300, Note_on_c, 2, 50, 64
4, 9360, Note_off_c, 2, 50, 52
4, 9360, Note_on_c, 2, 51, 64
4, 9420, Note_off_c, 2, 51, 65
4, 9420, Note_on_c, 2, 58, 64
4, 9480, Note_off_c, 2, 58, 58
4, 9480, Note_on_c, 2, 55, 64
4, 9540, Note_off_c, 2, 55, 66
4, 9540, Note_on_c, 2, 51, 64
4, 9600, Note_off_c, 2, 51, 62
4, 9600, Note_on_c, 2, 48, 64
4, 9720, Note_off_c, 2, 48, 76
4, 9720, Note_on_c, 2, 56, 64
4, 9840, Note_off_c, 2, 56, 58
4, 9840, Note_on_c, 2, 55, 64
4, 9960, Note_off_c, 2, 55, 74
4, 9960, Note_on_c, 2, 53, 64
4, 10080, Note_off_c, 2, 53, 42
4, 10080, Note_on_c, 2, 51, 64
4, 10140, Note_off_c, 2, 51, 63
4, 10140, Note_on_c, 2, 48, 64
4, 10200, Note_off_c, 2, 48, 40
4, 10200, Note_on_c, 2, 50, 64
4, 10260, Note_off_c, 2, 50, 72
4, 10260, Note_on_c, 2, 51, 64
4, 10320, Note_off_c, 2, 51, 21
4, 10320, Note_on_c, 2, 53, 64
4, 10620, Note_off_c, 2, 53, 52
4, 10620, Note_on_c, 2, 51, 64
4, 10680, Note_off_c, 2, 51, 59
4, 10680, Note_on_c, 2, 53, 64
4, 10740, Note_off_c, 2, 53, 62
4, 10740, Note_on_c, 2, 55, 64
4, 10800, Note_off_c, 2, 55, 50
4, 10800, Note_on_c, 2, 56, 64
4, 10860, Note_off_c, 2, 56, 73
4, 10860, Note_on_c, 2, 53, 64
4, 10920, Note_off_c, 2, 53, 55
4, 10920, Note_on_c, 2, 46, 64
4, 10980, Note_off_c, 2, 46, 77
4, 10980, Note_on_c, 2, 56, 64
4, 11040, Note_off_c, 2, 56, 68
4, 11040, Note_on_c, 2, 55, 64
4, 11160, Note_off_c, 2, 55, 65
4, 11160, Note_on_c, 2, 58, 64
4, 11280, Note_off_c, 2, 58, 66
4, 11280, Note_on_c, 2, 55, 64
4, 11400, Note_off_c, 2, 55, 65
4, 11400, Note_on_c, 2, 51, 64
4, 11520, Note_off_c, 2, 51, 80
4, 11520, Note_on_c, 2, 56, 64
4, 11640, Note_off_c, 2, 56, 77
4, 12240, Note_on_c, 2, 53, 64
4, 12360, Note_off_c, 2, 53, 73
4, 12360, Note_on_c, 2, 50, 64
4, 12480, Note_off_c, 2, 50, 77
4, 12480, Note_on_c, 2, 55, 64
4, 12600, Note_off_c, 2, 55, 79
4, 13200, Note_on_c, 2, 52, 64
4, 13320, Note_off_c, 2, 52, 53
4, 13320, Note_on_c, 2, 48, 64
4, 13440, Note_off_c, 2, 48, 70
4, 13440, Note_on_c, 2, 53, 64
4, 13560, Note_off_c, 2, 53, 73
4, 13560, Note_on_c, 2, 51, 64
4, 13680, Note_off_c, 2, 51, 77
4, 13680, Note_on_c, 2, 50, 64
4, 13800, Note_off_c, 2, 50, 43
4, 13800, Note_on_c, 2, 48, 64
4, 13920, Note_off_c, 2, 48, 57
4, 13920, Note_on_c, 2, 47, 64
4, 14040, Note_off_c, 2, 47, 72
4, 14040, Note_on_c, 2, 43, 64
4, 14160, Note_off_c, 2, 43, 58
4, 14160, Note_on_c, 2, 48, 64
4, 14280, Note_off_c, 2, 48, 66
4, 14280, Note_on_c, 2, 46, 64
4, 14400, Note_off_c, 2, 46, 1
4, 14400, Note_on_c, 2, 45, 64
4, 14520, Note_off_c, 2, 45, 72
4, 14520, Note_on_c, 2, 57, 64
4, 14640, Note_off_c, 2, 57, 69
4, 14640, Note_on_c, 2, 59, 64
4, 14760, Note_off_c, 2, 59, 55
4, 14760, Note_on_c, 2, 55, 64
4, 14880, Note_off_c, 2, 55, 73
4, 14880, Note_on_c, 2, 60, 64
4, 15000, Note_off_c, 2, 60, 47
4, 15000, Note_on_c, 2, 55, 64
4, 15120, Note_off_c, 2, 55, 65
4, 15120, Note_on_c, 2, 56, 64
4, 15240, Note_off_c, 2, 56, 59
4, 15240, Note_on_c, 2, 51, 64
4, 15360, Note_off_c, 2, 51, 73
4, 15360, Note_on_c, 2, 53, 64
4, 15480, Note_off_c, 2, 53, 66
4, 15480, Note_on_c, 2, 51, 64
4, 15540, Note_off_c, 2, 51, 48
4, 15540, Note_on_c, 2, 53, 64
4, 15600, Note_off_c, 2, 53, 61
4, 15600, Note_on_c, 2, 55, 64
4, 15720, Note_off_c, 2, 55, 69
4, 15720, Note_on_c, 2, 43, 64
4, 15840, Note_off_c, 2, 43, 73
4, 15840, Note_on_c, 2, 48, 64
4, 15960, Note_off_c, 2, 48, 76
4, 18720, Note_on_c, 2, 55, 64
4, 18780, Note_off_c, 2, 55, 68
4, 18780, Note_on_c, 2, 51, 64
4, 18840, Note_off_c, 2, 51, 68
4, 18840, Note_on_c, 2, 50, 64
4, 18900, Note_off_c, 2, 50, 52
4, 18900, Note_on_c, 2, 51, 64
4, 18960, Note_off_c, 2, 51, 76
4, 18960, Note_on_c, 2, 48, 64
4, 19020, Note_off_c, 2, 48, 65
4, 19020, Note_on_c, 2, 53, 64
4, 19080, Note_off_c, 2, 53, 70
4, 19080, Note_on_c, 2, 51, 64
4, 19140, Note_off_c, 2, 51, 76
4, 19140, Note_on_c, 2, 53, 64
4, 19200, Note_off_c, 2, 53, 48
4, 19200, Note_on_c, 2, 56, 64
4, 19320, Note_off_c, 2, 56, 51
4, 19320, Note_on_c, 2, 55, 64
4, 19440, Note_off_c, 2, 55, 74
4, 19560, Note_on_c, 2, 54, 64
4, 19620, Note_off_c, 2, 54, 59
4, 19620, Note_on_c, 2, 50, 64
4, 19680, Note_off_c, 2, 50, 77
4, 19680, Note_on_c, 2, 60, 64
4, 19800, Note_off_c, 2, 60, 62
4, 19800, Note_on_c, 2, 58, 64
4, 19910, Note_off_c, 2, 58, 54
4, 19923, Note_on_c, 2, 58, 72
4, 19943, Note_on_c, 2, 57, 64
4, 19945, Note_off_c, 2, 58, 57
4, 19963, Note_on_c, 2, 58, 46
4, 19965, Note_off_c, 2, 57, 69
4, 19983, Note_on_c, 2, 57, 48
4, 19985, Note_off_c, 2, 58, 55
4, 20003, Note_on_c, 2, 58, 50
4, 20005, Note_off_c, 2, 57, 69
4, 20023, Note_on_c, 2, 57, 52
4, 20025, Note_off_c, 2, 58, 59
4, 20043, Note_on_c, 2, 58, 54
4, 20045, Note_off_c, 2, 57, 68
4, 20063, Note_on_c, 2, 57, 56
4, 20065, Note_off_c, 2, 58, 62
4, 20083, Note_on_c, 2, 58, 58
4, 20085, Note_off_c, 2, 57, 68
4, 20103, Note_on_c, 2, 57, 59
4, 20105, Note_off_c, 2, 58, 58
4, 20123, Note_on_c, 2, 58, 61
4, 20125, Note_off_c, 2, 57, 70
4, 20143, Note_on_c, 2, 57, 63
4, 20145, Note_off_c, 2, 58, 51
4, 20163, Note_off_c, 2, 57, 59
4, 20163, Note_on_c, 2, 55, 64
4, 20223, Note_off_c, 2, 55, 52
4, 20223, Note_on_c, 2, 58, 64
4, 20283, Note_off_c, 2, 58, 50
4, 20283, Note_on_c, 2, 56, 64
4, 20343, Note_off_c, 2, 56, 63
4, 20343, Note_on_c, 2, 58, 64
4, 20403, Note_off_c, 2, 58, 61
4, 20403, Note_on_c, 2, 55, 64
4, 20463, Note_off_c, 2, 55, 59
4, 20463, Note_on_c, 2, 56, 64
4, 20523, Note_off_c, 2, 56, 65
4, 20523, Note_on_c, 2, 53, 64
4, 20583, Note_off_c, 2, 53, 46
4, 20583, Note_on_c, 2, 55, 64
4, 20643, Note_off_c, 2, 55, 72
4, 20643, Note_on_c, 2, 52, 64
4, 20703, Note_off_c, 2, 52, 37
4, 20703, Note_on_c, 2, 60, 64
4, 20763, Note_off_c, 2, 60, 65
4, 20763, Note_on_c, 2, 56, 64
4, 20823, Note_off_c, 2, 56, 66
4, 20823, Note_on_c, 2, 53, 64
4, 20883, Note_off_c, 2, 53, 44
4, 20883, Note_on_c, 2, 48, 64
4, 20943, Note_off_c, 2, 48, 72
4, 20943, Note_on_c, 2, 53, 64
4, 21003, Note_off_c, 2, 53, 49
4, 21003, Note_on_c, 2, 48, 64
4, 21063, Note_off_c, 2, 48, 42
4, 21063, Note_on_c, 2, 44, 64
4, 21123, Note_off_c, 2, 44, 59
4, 21123, Note_on_c, 2, 41, 64
4, 21183, Note_off_c, 2, 41, 62
4, 21183, Note_on_c, 2, 56, 64
4, 21243, Note_off_c, 2, 56, 57
4, 21243, Note_on_c, 2, 55, 64
4, 21303, Note_off_c, 2, 55, 69
4, 21303, Note_on_c, 2, 56, 64
4, 21363, Note_off_c, 2, 56, 63
4, 21363, Note_on_c, 2, 53, 64
4, 21423, Note_off_c, 2, 53, 32
4, 21423, Note_on_c, 2, 55, 64
4, 21483, Note_off_c, 2, 55, 70
4, 21483, Note_on_c, 2, 51, 64
4, 21543, Note_off_c, 2, 51, 59
4, 21543, Note_on_c, 2, 53, 64
4, 21603, Note_off_c, 2, 53, 73
4, 21603, Note_on_c, 2, 50, 64
4, 21663, Note_off_c, 2, 50, 70
4, 21663, Note_on_c, 2, 58, 64
4, 21723, Note_off_c, 2, 58, 65
4, 21723, Note_on_c, 2, 55, 64
4, 21783, Note_off_c, 2, 55, 65
4, 21783, Note_on_c, 2, 51, 64
4, 21843, Note_off_c, 2, 51, 72
4, 21843, Note_on_c, 2, 46, 64
4, 21903, Note_off_c, 2, 46, 65
4, 21903, Note_on_c, 2, 51, 64
4, 21963, Note_off_c, 2, 51, 43
4, 21963, Note_on_c, 2, 46, 64
4, 22023, Note_off_c, 2, 46, 59
4, 22023, Note_on_c, 2, 43, 64
4, 22083, Note_off_c, 2, 43, 69
4, 22083, Note_on_c, 2, 39, 64
4, 22203, Note_off_c, 2, 39, 76
4, 22203, Note_on_c, 2, 51, 64
4, 22323, Note_off_c, 2, 51, 59
4, 22323, Note_on_c, 2, 53, 64
4, 22443, Note_off_c, 2, 53, 52
4, 22443, Note_on_c, 2, 55, 64
4, 22563, Note_off_c, 2, 55, 54
4, 22563, Note_on_c, 2, 56, 64
4, 22683, Note_off_c, 2, 56, 72
4, 22683, Note_on_c, 2, 53, 64
4, 22803, Note_off_c, 2, 53, 50
4, 22803, Note_on_c, 2, 55, 64
4, 22923, Note_off_c, 2, 55, 52
4, 22923, Note_on_c, 2, 57, 64
4, 23043, Note_off_c, 2, 57, 42
4, 23043, Note_on_c, 2, 58, 64
4, 23163, Note_off_c, 2, 58, 74
4, 23163, Note_on_c, 2, 55, 64
4, 23283, Note_off_c, 2, 55, 65
4, 23283, Note_on_c, 2, 57, 64
4, 23403, Note_off_c, 2, 57, 52
4, 23403, Note_on_c, 2, 59, 64
4, 23523, Note_off_c, 2, 59, 57
4, 23523, Note_on_c, 2, 60, 64
4, 23643, Note_off_c, 2, 60, 66
4, 23643, Note_on_c, 2, 48, 64
4, 23763, Note_off_c, 2, 48, 73
4, 23763, Note_on_c, 2, 50, 64
4, 23883, Note_off_c, 2, 50, 46
4, 23883, Note_on_c, 2, 51, 64
4, 24063, Note_off_c, 2, 51, 76
4, 24063, Note_on_c, 2, 50, 64
4, 24123, Note_off_c, 2, 50, 59
4, 24123, Note_on_c, 2, 48, 64
4, 24183, Note_off_c, 2, 48, 70
4, 24183, Note_on_c, 2, 50, 64
4, 24243, Note_off_c, 2, 50, 66
4, 24243, Note_on_c, 2, 46, 64
4, 24303, Note_off_c, 2, 46, 62
4, 24303, Note_on_c, 2, 51, 64
4, 24363, Note_off_c, 2, 51, 46
4, 24363, Note_on_c, 2, 50, 64
4, 24423, Note_off_c, 2, 50, 74
4, 24423, Note_on_c, 2, 51, 64
4, 24483, Note_off_c, 2, 51, 77
4, 24483, Note_on_c, 2, 55, 64
4, 24603, Note_off_c, 2, 55, 74
4, 24603, Note_on_c, 2, 53, 64
4, 24723, Note_off_c, 2, 53, 61
4, 24843, Note_on_c, 2, 50, 64
4, 24903, Note_off_c, 2, 50, 51
4, 24903, Note_on_c, 2, 46, 64
4, 24963, Note_off_c, 2, 46, 79
4, 24963, Note_on_c, 2, 56, 64
4, 25083, Note_off_c, 2, 56, 61
4, 25083, Note_on_c, 2, 55, 64
4, 25203, Note_off_c, 2, 55, 73
4, 25203, Note_on_c, 2, 53, 64
4, 25443, Note_off_c, 2, 53, 70
4, 25443, Note_on_c, 2, 51, 64
4, 25563, Note_off_c, 2, 51, 57
4, 25563, Note_on_c, 2, 39, 64
4, 25683, Note_off_c, 2, 39, 65
4, 25683, Note_on_c, 2, 41, 64
4, 25803, Note_off_c, 2, 41, 62
4, 25803, Note_on_c, 2, 43, 64
4, 25923, Note_off_c, 2, 43, 58
4, 25923, Note_on_c, 2, 44, 64
4, 26043, Note_off_c, 2, 44, 73
4, 26043, Note_on_c, 2, 41, 64
4, 26163, Note_off_c, 2, 41, 53
4, 26163, Note_on_c, 2, 43, 64
4, 26283, Note_off_c, 2, 43, 70
4, 26283, Note_on_c, 2, 45, 64
4, 26403, Note_off_c, 2, 45, 68
4, 26403, Note_on_c, 2, 46, 64
4, 26518, Note_off_c, 2, 46, 74
4, 26523, Note_on_c, 2, 46, 64
4, 26643, Note_off_c, 2, 46, 49
4, 26643, Note_on_c, 2, 48, 64
4, 26763, Note_off_c, 2, 48, 70
4, 26763, Note_on_c, 2, 50, 64
4, 26883, Note_off_c, 2, 50, 72
4, 26883, Note_on_c, 2, 51, 64
4, 27663, Note_off_c, 2, 51, 77
4, 27663, Note_on_c, 2, 50, 64
4, 27723, Note_off_c, 2, 50, 59
4, 27723, Note_on_c, 2, 51, 64
4, 27783, Note_off_c, 2, 51, 76
4, 27783, Note_on_c, 2, 53, 64
4, 27843, Note_off_c, 2, 53, 72
4, 27843, Note_on_c, 2, 55, 64
4, 28023, Note_off_c, 2, 55, 74
4, 28023, Note_on_c, 2, 53, 64
4, 28083, Note_off_c, 2, 53, 43
4, 28083, Note_on_c, 2, 51, 64
4, 28203, Note_off_c, 2, 51, 74
4, 28203, Note_on_c, 2, 53, 64
4, 28323, Note_off_c, 2, 53, 55
4, 28323, Note_on_c, 2, 46, 64
4, 28383, Note_off_c, 2, 46, 65
4, 28383, Note_on_c, 2, 53, 64
4, 28443, Note_off_c, 2, 53, 48
4, 28443, Note_on_c, 2, 50, 64
4, 28503, Note_off_c, 2, 50, 46
4, 28503, Note_on_c, 2, 46, 64
4, 28563, Note_off_c, 2, 46, 49
4, 28563, Note_on_c, 2, 44, 64
4, 28623, Note_off_c, 2, 44, 68
4, 28623, Note_on_c, 2, 53, 64
4, 28683, Note_off_c, 2, 53, 44
4, 28683, Note_on_c, 2, 50, 64
4, 28743, Note_off_c, 2, 50, 66
4, 28743, Note_on_c, 2, 44, 64
4, 28803, Note_off_c, 2, 44, 70
4, 28803, Note_on_c, 2, 43, 64
4, 28923, Note_off_c, 2, 43, 58
4, 28923, Note_on_c, 2, 55, 64
4, 29043, Note_off_c, 2, 55, 44
4, 29163, Note_on_c, 2, 39, 64
4, 29283, Note_off_c, 2, 39, 68
4, 29283, Note_on_c, 2, 44, 64
4, 29343, Note_off_c, 2, 44, 66
4, 29343, Note_on_c, 2, 51, 64
4, 29403, Note_off_c, 2, 51, 66
4, 29403, Note_on_c, 2, 48, 64
4, 29463, Note_off_c, 2, 48, 50
4, 29463, Note_on_c, 2, 44, 64
4, 29523, Note_off_c, 2, 44, 66
4, 29523, Note_on_c, 2, 43, 64
4, 29583, Note_off_c, 2, 43, 37
4, 29583, Note_on_c, 2, 51, 64
4, 29643, Note_off_c, 2, 51, 68
4, 29643, Note_on_c, 2, 48, 64
4, 29703, Note_off_c, 2, 48, 66
4, 29703, Note_on_c, 2, 43, 64
4, 29763, Note_off_c, 2, 43, 45
4, 29763, Note_on_c, 2, 41, 64
4, 29883, Note_on_c, 2, 53, 64
4, 29885, Note_off_c, 2, 41, 61
4, 30005, Note_off_c, 2, 53, 70
4, 30123, Note_on_c, 2, 38, 64
4, 30243, Note_off_c, 2, 38, 55
4, 30243, Note_on_c, 2, 43, 64
4, 30303, Note_off_c, 2, 43, 37
4, 30303, Note_on_c, 2, 50, 64
4, 30363, Note_off_c, 2, 50, 50
4, 30363, Note_on_c, 2, 46, 64
4, 30423, Note_off_c, 2, 46, 59
4, 30423, Note_on_c, 2, 43, 64
4, 30483, Note_off_c, 2, 43, 46
4, 30483, Note_on_c, 2, 41, 64
4, 30543, Note_off_c, 2, 41, 54
4, 30543, Note_on_c, 2, 50, 64
4, 30603, Note_off_c, 2, 50, 45
4, 30603, Note_on_c, 2, 46, 64
4, 30663, Note_off_c, 2, 46, 59
4, 30663, Note_on_c, 2, 41, 64
4, 30723, Note_off_c, 2, 41, 52
4, 30723, Note_on_c, 2, 40, 64
4, 30783, Note_off_c, 2, 40, 63
4, 30783, Note_on_c, 2, 48, 64
4, 30843, Note_off_c, 2, 48, 49
4, 30843, Note_on_c, 2, 43, 64
4, 30903, Note_off_c, 2, 43, 57
4, 30903, Note_on_c, 2, 40, 64
4, 30963, Note_off_c, 2, 40, 54
4, 30963, Note_on_c, 2, 41, 64
4, 31023, Note_off_c, 2, 41, 27
4, 31023, Note_on_c, 2, 48, 64
4, 31083, Note_off_c, 2, 48, 30
4, 31083, Note_on_c, 2, 44, 64
4, 31143, Note_off_c, 2, 44, 49
4, 31143, Note_on_c, 2, 41, 64
4, 31203, Note_off_c, 2, 41, 29
4, 31203, Note_on_c, 2, 38, 64
4, 31263, Note_off_c, 2, 38, 46
4, 31263, Note_on_c, 2, 46, 64
4, 31323, Note_off_c, 2, 46, 59
4, 31323, Note_on_c, 2, 41, 64
4, 31383, Note_off_c, 2, 41, 37
4, 31383, Note_on_c, 2, 38, 64
4, 31443, Note_off_c, 2, 38, 43
4, 31443, Note_on_c, 2, 39, 64
4, 31503, Note_off_c, 2, 39, 57
4, 31503, Note_on_c, 2, 46, 64
4, 31563, Note_off_c, 2, 46, 52
4, 31563, Note_on_c, 2, 43, 64
4, 31623, Note_off_c, 2, 43, 49
4, 31623, Note_on_c, 2, 39, 64
4, 31683, Note_off_c, 2, 39, 72
4, 31683, Note_on_c, 2, 46, 64
4, 31803, Note_off_c, 2, 46, 61
4, 31803, Note_on_c, 2, 53, 64
4, 31923, Note_off_c, 2, 53, 62
4, 31923, Note_on_c, 2, 50, 64
4, 32043, Note_off_c, 2, 50, 65
4, 32043, Note_on_c, 2, 46, 64
4, 32163, Note_off_c, 2, 46, 72
4, 32163, Note_on_c, 2, 57, 64
4, 32283, Note_off_c, 2, 57, 57
4, 32283, Note_on_c, 2, 56, 64
4, 32403, Note_off_c, 2, 56, 72
4, 32463, Note_on_c, 2, 56, 64
4, 32523, Note_off_c, 2, 56, 61
4, 32523, Note_on_c, 2, 53, 64
4, 32583, Note_off_c, 2, 53, 48
4, 32583, Note_on_c, 2, 50, 64
4, 32643, Note_off_c, 2, 50, 46
4, 32643, Note_on_c, 2, 46, 64
4, 32763, Note_off_c, 2, 46, 74
4, 32763, Note_on_c, 2, 51, 64
4, 32883, Note_off_c, 2, 51, 65
4, 32883, Note_on_c, 2, 58, 64
4, 33003, Note_off_c, 2, 58, 43
4, 33003, Note_on_c, 2, 59, 64
4, 33123, Note_off_c, 2, 59, 62
4, 33123, Note_on_c, 2, 60, 64
4, 33413, Note_off_c, 2, 60, 62
4, 33426, Note_on_c, 2, 60, 64
4, 33486, Note_off_c, 2, 60, 50
4, 33486, Note_on_c, 2, 56, 64
4, 33546, Note_off_c, 2, 56, 58
4, 33546, Note_on_c, 2, 53, 64
4, 33606, Note_off_c, 2, 53, 61
4, 33606, Note_on_c, 2, 50, 64
4, 33726, Note_off_c, 2, 50, 49
4, 33726, Note_on_c, 2, 46, 64
4, 33846, Note_off_c, 2, 46, 74
4, 33906, Note_on_c, 2, 51, 64
4, 33966, Note_off_c, 2, 51, 65
4, 33966, Note_on_c, 2, 48, 64
4, 34026, Note_off_c, 2, 48, 53
4, 34026, Note_on_c, 2, 44, 64
4, 34086, Note_off_c, 2, 44, 70
4, 34086, Note_on_c, 2, 46, 64
4, 34566, Note_off_c, 2, 46, 79
4, 34566, Note_on_c, 2, 39, 64
4, 35526, Note_off_c, 2, 39, 83
4, 35526, End_track
0, 0, End_of_file
