0, 0, Header, 1, 5, 240
1, 0, Start_track
1, 0, Time_signature, 4, 2, 24, 8
1, 0, Tempo, 937500
1, 24720, Tempo, 967742
1, 24960, Tempo, 1000000
1, 25080, Tempo, 1052632
1, 25200, Tempo, 1132075
1, 25320, Tempo, 1200000
1, 25384, Tempo, 1463415
1, 25440, Tempo, 1578947
1, 25440, End_track
2, 0, Start_track
2, 0, Text_t, "1"
2, 1560, Note_on_c, 0, 67, 64
2, 1680, Note_off_c, 0, 67, 57
2, 1680, Note_on_c, 0, 69, 64
2, 1800, Note_off_c, 0, 69, 59
2, 1800, Note_on_c, 0, 71, 64
2, 1920, Note_off_c, 0, 71, 58
2, 1920, Note_on_c, 0, 72, 64
2, 2100, Note_off_c, 0, 72, 68
2, 2100, Note_on_c, 0, 74, 64
2, 2130, Note_off_c, 0, 74, 64
2, 2132, Note_on_c, 0, 72, 64
2, 2160, Note_on_c, 0, 71, 64
2, 2162, Note_off_c, 0, 72, 64
2, 2280, Note_off_c, 0, 71, 53
2, 2280, Note_on_c, 0, 76, 64
2, 2400, Note_off_c, 0, 76, 42
2, 2400, Note_on_c, 0, 69, 64
2, 2520, Note_off_c, 0, 69, 59
2, 2520, Note_on_c, 0, 74, 64
2, 2690, Note_off_c, 0, 74, 69
2, 2703, Note_on_c, 0, 76, 64
2, 2763, Note_off_c, 0, 76, 44
2, 2763, Note_on_c, 0, 74, 64
2, 2823, Note_off_c, 0, 74, 45
2, 2823, Note_on_c, 0, 72, 64
2, 2883, Note_off_c, 0, 72, 74
2, 2883, Note_on_c, 0, 71, 64
2, 2943, Note_off_c, 0, 71, 73
2, 2943, Note_on_c, 0, 67, 64
2, 3003, Note_off_c, 0, 67, 49
2, 3003, Note_on_c, 0, 69, 64
2, 3063, Note_off_c, 0, 69, 52
2, 3063, Note_on_c, 0, 71, 64
2, 3123, Note_off_c, 0, 71, 62
2, 3123, Note_on_c, 0, 72, 64
2, 3183, Note_off_c, 0, 72, 73
2, 3183, Note_on_c, 0, 71, 64
2, 3243, Note_off_c, 0, 71, 65
2, 3243, Note_on_c, 0, 72, 64
2, 3303, Note_off_c, 0, 72, 63
2, 3303, Note_on_c, 0, 74, 64
2, 3363, Note_off_c, 0, 74, 59
2, 3363, Note_on_c, 0, 76, 64
2, 3423, Note_off_c, 0, 76, 52
2, 3423, Note_on_c, 0, 74, 64
2, 3483, Note_off_c, 0, 74, 52
2, 3483, Note_on_c, 0, 76, 64
2, 3543, Note_off_c, 0, 76, 38
2, 3543, Note_on_c, 0, 78, 64
2, 3603, Note_off_c, 0, 78, 47
2, 3603, Note_on_c, 0, 79, 64
2, 3723, Note_off_c, 0, 79, 54
2, 3723, Note_on_c, 0, 71, 64
2, 3843, Note_off_c, 0, 71, 53
2, 3843, Note_on_c, 0, 72, 64
2, 3963, Note_off_c, 0, 72, 57
2, 3963, Note_on_c, 0, 69, 64
2, 4083, Note_off_c, 0, 69, 59
2, 4083, Note_on_c, 0, 74, 64
2, 4143, Note_off_c, 0, 74, 63
2, 4143, Note_on_c, 0, 72, 64
2, 4203, Note_off_c, 0, 72, 68
2, 4203, Note_on_c, 0, 71, 64
2, 4263, Note_off_c, 0, 71, 68
2, 4263, Note_on_c, 0, 69, 64
2, 4323, Note_off_c, 0, 69, 59
2, 4323, Note_on_c, 0, 67, 64
2, 4493, Note_off_c, 0, 67, 40
2, 4506, Note_on_c, 0, 67, 64
2, 4566, Note_off_c, 0, 67, 23
2, 4566, Note_on_c, 0, 65, 64
2, 4626, Note_off_c, 0, 65, 38
2, 4626, Note_on_c, 0, 64, 64
2, 4686, Note_off_c, 0, 64, 35
2, 4686, Note_on_c, 0, 65, 64
2, 4746, Note_off_c, 0, 65, 46
2, 4746, Note_on_c, 0, 67, 64
2, 4806, Note_off_c, 0, 67, 29
2, 4806, Note_on_c, 0, 69, 64
2, 4866, Note_off_c, 0, 69, 65
2, 4866, Note_on_c, 0, 67, 64
2, 4926, Note_off_c, 0, 67, 45
2, 4926, Note_on_c, 0, 69, 64
2, 4986, Note_off_c, 0, 69, 57
2, 4986, Note_on_c, 0, 71, 64
2, 5046, Note_off_c, 0, 71, 65
2, 5046, Note_on_c, 0, 72, 64
2, 5526, Note_off_c, 0, 72, 55
2, 5526, Note_on_c, 0, 71, 64
2, 5766, Note_off_c, 0, 71, 83
2, 5886, Note_on_c, 0, 72, 64
2, 6006, Note_off_c, 0, 72, 74
2, 6006, Note_on_c, 0, 74, 64
2, 6126, Note_off_c, 0, 74, 58
2, 6126, Note_on_c, 0, 76, 64
2, 6246, Note_off_c, 0, 76, 54
2, 6246, Note_on_c, 0, 77, 64
2, 6426, Note_off_c, 0, 77, 69
2, 6426, Note_on_c, 0, 79, 64
2, 6456, Note_off_c, 0, 79, 64
2, 6456, Note_on_c, 0, 77, 64
2, 6486, Note_off_c, 0, 77, 64
2, 6486, Note_on_c, 0, 76, 64
2, 6606, Note_off_c, 0, 76, 48
2, 6606, Note_on_c, 0, 81, 64
2, 6726, Note_off_c, 0, 81, 48
2, 6726, Note_on_c, 0, 74, 64
2, 6846, Note_off_c, 0, 74, 51
2, 6846, Note_on_c, 0, 79, 64
2, 7026, Note_off_c, 0, 79, 61
2, 7026, Note_on_c, 0, 81, 64
2, 7086, Note_off_c, 0, 81, 61
2, 7086, Note_on_c, 0, 79, 64
2, 7146, Note_off_c, 0, 79, 54
2, 7146, Note_on_c, 0, 77, 64
2, 7206, Note_off_c, 0, 77, 48
2, 7206, Note_on_c, 0, 76, 64
2, 7326, Note_off_c, 0, 76, 42
2, 7326, Note_on_c, 0, 81, 64
2, 7506, Note_off_c, 0, 81, 53
2, 7506, Note_on_c, 0, 83, 64
2, 7566, Note_off_c, 0, 83, 61
2, 7566, Note_on_c, 0, 81, 64
2, 7626, Note_off_c, 0, 81, 57
2, 7626, Note_on_c, 0, 79, 64
2, 7686, Note_off_c, 0, 79, 55
2, 7686, Note_on_c, 0, 77, 64
2, 8166, Note_off_c, 0, 77, 51
2, 8166, Note_on_c, 0, 76, 64
2, 8346, Note_off_c, 0, 76, 52
2, 8346, Note_on_c, 0, 78, 64
2, 8406, Note_off_c, 0, 78, 62
2, 8406, Note_on_c, 0, 79, 64
2, 8886, Note_off_c, 0, 79, 55
2, 8886, Note_on_c, 0, 78, 64
2, 9126, Note_off_c, 0, 78, 61
2, 9126, Note_on_c, 0, 79, 64
2, 9186, Note_off_c, 0, 79, 55
2, 9186, Note_on_c, 0, 77, 64
2, 9246, Note_off_c, 0, 77, 58
2, 9246, Note_on_c, 0, 76, 64
2, 9306, Note_off_c, 0, 76, 44
2, 9306, Note_on_c, 0, 74, 64
2, 9366, Note_off_c, 0, 74, 66
2, 9366, Note_on_c, 0, 72, 64
2, 9426, Note_off_c, 0, 72, 63
2, 9426, Note_on_c, 0, 74, 64
2, 9486, Note_off_c, 0, 74, 66
2, 9486, Note_on_c, 0, 72, 64
2, 9546, Note_off_c, 0, 72, 63
2, 9546, Note_on_c, 0, 71, 64
2, 9606, Note_off_c, 0, 71, 76
2, 9606, Note_on_c, 0, 69, 64
2, 9666, Note_off_c, 0, 69, 63
2, 9666, Note_on_c, 0, 72, 64
2, 9726, Note_off_c, 0, 72, 63
2, 9726, Note_on_c, 0, 71, 64
2, 9786, Note_off_c, 0, 71, 58
2, 9786, Note_on_c, 0, 69, 64
2, 9846, Note_off_c, 0, 69, 76
2, 10146, Note_on_c, 0, 72, 64
2, 10206, Note_off_c, 0, 72, 72
2, 10266, Note_on_c, 0, 69, 64
2, 10326, Note_off_c, 0, 69, 68
2, 10326, Note_on_c, 0, 68, 64
2, 10446, Note_off_c, 0, 68, 42
2, 10446, Note_on_c, 0, 76, 64
2, 10566, Note_off_c, 0, 76, 46
2, 10566, Note_on_c, 0, 74, 64
2, 10686, Note_off_c, 0, 74, 63
2, 10686, Note_on_c, 0, 72, 64
2, 10746, Note_off_c, 0, 72, 61
2, 10746, Note_on_c, 0, 71, 64
2, 10806, Note_off_c, 0, 71, 55
2, 10806, Note_on_c, 0, 69, 64
2, 10866, Note_off_c, 0, 69, 63
2, 10866, Note_on_c, 0, 68, 64
2, 10926, Note_off_c, 0, 68, 55
2, 10926, Note_on_c, 0, 69, 64
2, 10986, Note_off_c, 0, 69, 57
2, 10986, Note_on_c, 0, 71, 64
2, 11046, Note_off_c, 0, 71, 51
2, 11046, Note_on_c, 0, 72, 64
2, 11106, Note_off_c, 0, 72, 76
2, 11106, Note_on_c, 0, 66, 64
2, 11166, Note_off_c, 0, 66, 1
2, 11166, Note_on_c, 0, 68, 64
2, 11226, Note_off_c, 0, 68, 49
2, 11226, Note_on_c, 0, 69, 64
2, 11286, Note_off_c, 0, 69, 58
2, 11286, Note_on_c, 0, 71, 64
2, 11406, Note_off_c, 0, 71, 63
2, 11406, Note_on_c, 0, 69, 64
2, 11466, Note_off_c, 0, 69, 52
2, 11466, Note_on_c, 0, 71, 64
2, 11526, Note_off_c, 0, 71, 57
2, 11526, Note_on_c, 0, 72, 64
2, 11646, Note_off_c, 0, 72, 33
2, 11646, Note_on_c, 0, 77, 64
2, 11766, Note_off_c, 0, 77, 59
2, 11766, Note_on_c, 0, 76, 64
2, 11886, Note_off_c, 0, 76, 46
2, 11886, Note_on_c, 0, 74, 64
2, 12126, Note_off_c, 0, 74, 55
2, 12126, Note_on_c, 0, 72, 64
2, 12186, Note_off_c, 0, 72, 66
2, 12186, Note_on_c, 0, 71, 64
2, 12246, Note_off_c, 0, 71, 70
2, 12246, Note_on_c, 0, 72, 64
2, 12261, Note_off_c, 0, 72, 62
2, 12261, Note_on_c, 0, 71, 64
2, 12276, Note_off_c, 0, 71, 62
2, 12276, Note_on_c, 0, 72, 64
2, 12291, Note_off_c, 0, 72, 66
2, 12291, Note_on_c, 0, 71, 64
2, 12306, Note_off_c, 0, 71, 70
2, 12306, Note_on_c, 0, 72, 64
2, 12321, Note_off_c, 0, 72, 69
2, 12321, Note_on_c, 0, 71, 64
2, 12336, Note_off_c, 0, 71, 57
2, 12336, Note_on_c, 0, 72, 64
2, 12351, Note_off_c, 0, 72, 69
2, 12351, Note_on_c, 0, 71, 64
2, 12366, Note_off_c, 0, 71, 61
2, 12366, Note_on_c, 0, 72, 64
2, 12381, Note_off_c, 0, 72, 68
2, 12381, Note_on_c, 0, 71, 64
2, 12426, Note_off_c, 0, 71, 52
2, 12426, Note_on_c, 0, 69, 64
2, 12476, Note_off_c, 0, 69, 65
2, 12489, Note_on_c, 0, 69, 64
2, 12729, Note_off_c, 0, 69, 82
2, 14049, Note_on_c, 0, 67, 64
2, 14169, Note_off_c, 0, 67, 44
2, 14169, Note_on_c, 0, 69, 64
2, 14289, Note_off_c, 0, 69, 52
2, 14289, Note_on_c, 0, 71, 64
2, 14409, Note_off_c, 0, 71, 69
2, 14409, Note_on_c, 0, 72, 64
2, 14589, Note_off_c, 0, 72, 73
2, 14589, Note_on_c, 0, 74, 64
2, 14619, Note_off_c, 0, 74, 64
2, 14621, Note_on_c, 0, 72, 64
2, 14649, Note_on_c, 0, 71, 64
2, 14651, Note_off_c, 0, 72, 64
2, 14769, Note_off_c, 0, 71, 59
2, 14769, Note_on_c, 0, 72, 64
2, 14889, Note_off_c, 0, 72, 72
2, 14889, Note_on_c, 0, 74, 64
2, 15009, Note_off_c, 0, 74, 52
2, 15009, Note_on_c, 0, 76, 64
2, 15129, Note_off_c, 0, 76, 40
2, 15129, Note_on_c, 0, 77, 64
2, 15309, Note_off_c, 0, 77, 73
2, 15309, Note_on_c, 0, 79, 64
2, 15339, Note_off_c, 0, 79, 64
2, 15341, Note_on_c, 0, 77, 64
2, 15369, Note_on_c, 0, 76, 64
2, 15371, Note_off_c, 0, 77, 64
2, 15489, Note_off_c, 0, 76, 39
2, 15489, Note_on_c, 0, 81, 64
2, 15609, Note_off_c, 0, 81, 47
2, 15609, Note_on_c, 0, 74, 64
2, 15729, Note_off_c, 0, 74, 66
2, 15729, Note_on_c, 0, 79, 64
2, 15909, Note_off_c, 0, 79, 58
2, 15909, Note_on_c, 0, 81, 64
2, 15969, Note_off_c, 0, 81, 62
2, 15969, Note_on_c, 0, 79, 64
2, 16029, Note_off_c, 0, 79, 61
2, 16029, Note_on_c, 0, 77, 64
2, 16089, Note_off_c, 0, 77, 63
2, 16089, Note_on_c, 0, 76, 64
2, 16209, Note_off_c, 0, 76, 40
2, 16209, Note_on_c, 0, 81, 64
2, 16329, Note_off_c, 0, 81, 43
2, 16329, Note_on_c, 0, 74, 64
2, 16449, Note_off_c, 0, 74, 68
2, 16449, Note_on_c, 0, 82, 64
2, 16569, Note_off_c, 0, 82, 63
2, 16569, Note_on_c, 0, 81, 64
2, 16689, Note_off_c, 0, 81, 66
2, 16689, Note_on_c, 0, 79, 64
2, 16749, Note_off_c, 0, 79, 55
2, 16749, Note_on_c, 0, 77, 64
2, 16809, Note_off_c, 0, 77, 51
2, 16809, Note_on_c, 0, 79, 64
2, 16869, Note_off_c, 0, 79, 52
2, 16869, Note_on_c, 0, 77, 64
2, 16929, Note_off_c, 0, 77, 63
2, 16929, Note_on_c, 0, 79, 64
2, 16989, Note_off_c, 0, 79, 52
2, 16989, Note_on_c, 0, 76, 64
2, 17049, Note_off_c, 0, 76, 48
2, 17049, Note_on_c, 0, 77, 64
2, 17109, Note_off_c, 0, 77, 62
2, 17109, Note_on_c, 0, 79, 64
2, 17164, Note_off_c, 0, 79, 68
2, 17169, Note_on_c, 0, 79, 64
2, 17182, Note_on_c, 0, 81, 64
2, 17187, Note_off_c, 0, 79, 64
2, 17196, Note_on_c, 0, 79, 64
2, 17197, Note_off_c, 0, 81, 64
2, 17226, Note_off_c, 0, 79, 64
2, 17232, Note_on_c, 0, 77, 64
2, 17262, Note_off_c, 0, 77, 64
2, 17264, Note_on_c, 0, 79, 64
2, 17292, Note_on_c, 0, 81, 64
2, 17294, Note_off_c, 0, 79, 64
2, 17352, Note_off_c, 0, 81, 63
2, 17352, Note_on_c, 0, 73, 64
2, 17412, Note_off_c, 0, 73, 62
2, 17412, Note_on_c, 0, 74, 64
2, 17472, Note_off_c, 0, 74, 57
2, 17472, Note_on_c, 0, 79, 64
2, 17532, Note_off_c, 0, 79, 62
2, 17532, Note_on_c, 0, 77, 64
2, 17544, Note_on_c, 0, 76, 64
2, 17547, Note_off_c, 0, 77, 64
2, 17558, Note_on_c, 0, 77, 64
2, 17559, Note_off_c, 0, 76, 64
2, 17572, Note_on_c, 0, 76, 64
2, 17573, Note_off_c, 0, 77, 64
2, 17586, Note_on_c, 0, 77, 64
2, 17587, Note_off_c, 0, 76, 64
2, 17600, Note_on_c, 0, 76, 64
2, 17601, Note_off_c, 0, 77, 64
2, 17700, Note_off_c, 0, 76, 64
2, 17712, Note_on_c, 0, 74, 64
2, 17762, Note_off_c, 0, 74, 72
2, 17775, Note_on_c, 0, 74, 64
2, 17923, Note_off_c, 0, 74, 79
2, 19095, Note_on_c, 0, 67, 64
2, 19215, Note_off_c, 0, 67, 51
2, 19215, Note_on_c, 0, 69, 64
2, 19335, Note_off_c, 0, 69, 59
2, 19335, Note_on_c, 0, 71, 64
2, 19455, Note_off_c, 0, 71, 55
2, 19455, Note_on_c, 0, 72, 64
2, 19602, Note_off_c, 0, 72, 79
2, 19635, Note_on_c, 0, 74, 64
2, 19665, Note_off_c, 0, 74, 64
2, 19667, Note_on_c, 0, 72, 64
2, 19695, Note_on_c, 0, 71, 64
2, 19697, Note_off_c, 0, 72, 64
2, 19815, Note_off_c, 0, 71, 52
2, 19815, Note_on_c, 0, 76, 64
2, 19935, Note_off_c, 0, 76, 40
2, 19935, Note_on_c, 0, 69, 64
2, 20055, Note_off_c, 0, 69, 62
2, 20055, Note_on_c, 0, 74, 64
2, 20225, Note_off_c, 0, 74, 66
2, 20238, Note_on_c, 0, 76, 64
2, 20298, Note_off_c, 0, 76, 49
2, 20298, Note_on_c, 0, 74, 64
2, 20358, Note_off_c, 0, 74, 54
2, 20358, Note_on_c, 0, 72, 64
2, 20418, Note_off_c, 0, 72, 57
2, 20418, Note_on_c, 0, 71, 64
2, 20478, Note_off_c, 0, 71, 66
2, 20478, Note_on_c, 0, 72, 64
2, 20538, Note_off_c, 0, 72, 63
2, 20538, Note_on_c, 0, 74, 64
2, 20598, Note_off_c, 0, 74, 58
2, 20598, Note_on_c, 0, 76, 64
2, 20658, Note_off_c, 0, 76, 51
2, 20658, Note_on_c, 0, 77, 64
2, 20718, Note_off_c, 0, 77, 58
2, 20718, Note_on_c, 0, 79, 64
2, 20778, Note_off_c, 0, 79, 54
2, 20778, Note_on_c, 0, 81, 64
2, 20838, Note_off_c, 0, 81, 55
2, 20838, Note_on_c, 0, 79, 64
2, 20898, Note_off_c, 0, 79, 55
2, 20898, Note_on_c, 0, 77, 64
2, 20958, Note_off_c, 0, 77, 54
2, 20958, Note_on_c, 0, 76, 64
2, 21018, Note_off_c, 0, 76, 53
2, 21018, Note_on_c, 0, 74, 64
2, 21078, Note_off_c, 0, 74, 50
2, 21078, Note_on_c, 0, 72, 64
2, 21138, Note_off_c, 0, 72, 74
2, 21138, Note_on_c, 0, 72, 64
2, 21150, Note_on_c, 0, 71, 64
2, 21153, Note_off_c, 0, 72, 64
2, 21164, Note_on_c, 0, 72, 64
2, 21165, Note_off_c, 0, 71, 64
2, 21178, Note_on_c, 0, 71, 64
2, 21179, Note_off_c, 0, 72, 64
2, 21358, Note_off_c, 0, 71, 64
2, 21378, Note_on_c, 0, 72, 64
2, 21498, Note_off_c, 0, 72, 61
2, 21498, Note_on_c, 0, 74, 64
2, 21618, Note_off_c, 0, 74, 46
2, 21618, Note_on_c, 0, 67, 64
2, 21738, Note_off_c, 0, 67, 47
2, 21738, Note_on_c, 0, 72, 64
2, 21968, Note_off_c, 0, 72, 63
2, 21981, Note_on_c, 0, 71, 64
2, 22101, Note_off_c, 0, 71, 62
2, 22101, Note_on_c, 0, 72, 64
2, 22341, Note_off_c, 0, 72, 61
2, 22341, Note_on_c, 0, 71, 64
2, 22461, Note_off_c, 0, 71, 49
2, 22461, Note_on_c, 0, 70, 64
2, 22581, Note_off_c, 0, 70, 46
2, 22581, Note_on_c, 0, 69, 64
2, 22701, Note_off_c, 0, 69, 57
2, 22701, Note_on_c, 0, 74, 64
2, 22931, Note_off_c, 0, 74, 41
2, 22944, Note_on_c, 0, 72, 64
2, 23064, Note_off_c, 0, 72, 61
2, 23064, Note_on_c, 0, 74, 64
2, 23184, Note_off_c, 0, 74, 58
2, 23184, Note_on_c, 0, 76, 64
2, 23304, Note_off_c, 0, 76, 40
2, 23304, Note_on_c, 0, 77, 64
2, 23572, Note_off_c, 0, 77, 66
2, 23604, Note_on_c, 0, 81, 64
2, 23642, Note_off_c, 0, 81, 62
2, 23664, Note_on_c, 0, 79, 64
2, 23700, Note_off_c, 0, 79, 50
2, 23724, Note_on_c, 0, 77, 64
2, 23765, Note_off_c, 0, 77, 69
2, 23784, Note_on_c, 0, 76, 64
2, 23828, Note_off_c, 0, 76, 52
2, 23844, Note_on_c, 0, 77, 64
2, 23885, Note_off_c, 0, 77, 57
2, 23904, Note_on_c, 0, 76, 64
2, 23942, Note_off_c, 0, 76, 42
2, 23964, Note_on_c, 0, 74, 64
2, 24003, Note_off_c, 0, 74, 66
2, 24024, Note_on_c, 0, 72, 64
2, 24504, Note_off_c, 0, 72, 77
2, 24564, Note_on_c, 0, 67, 64
2, 24594, Note_off_c, 0, 67, 64
2, 24594, Note_on_c, 0, 69, 64
2, 24624, Note_off_c, 0, 69, 64
2, 24624, Note_on_c, 0, 71, 64
2, 24684, Note_off_c, 0, 71, 50
2, 24684, Note_on_c, 0, 72, 64
2, 24744, Note_off_c, 0, 72, 62
2, 24744, Note_on_c, 0, 74, 64
2, 24804, Note_off_c, 0, 74, 58
2, 24804, Note_on_c, 0, 76, 64
2, 24864, Note_off_c, 0, 76, 46
2, 24864, Note_on_c, 0, 77, 64
2, 25014, Note_off_c, 0, 77, 79
2, 25014, Note_on_c, 0, 72, 64
2, 25044, Note_off_c, 0, 72, 64
2, 25044, Note_on_c, 0, 74, 64
2, 25074, Note_off_c, 0, 74, 64
2, 25074, Note_on_c, 0, 76, 64
2, 25104, Note_off_c, 0, 76, 64
2, 25104, Note_on_c, 0, 77, 64
2, 25162, Note_on_c, 0, 79, 64
2, 25164, Note_off_c, 0, 77, 64
2, 25222, Note_off_c, 0, 79, 64
2, 25224, Note_on_c, 0, 81, 64
2, 25394, Note_off_c, 0, 81, 51
2, 25407, Note_on_c, 0, 83, 64
2, 25467, Note_off_c, 0, 83, 52
2, 25467, Note_on_c, 0, 84, 64
2, 25947, Note_off_c, 0, 84, 79
2, 25947, End_track
3, 0, Start_track
3, 0, Text_t, "2"
3, 120, Note_on_c, 1, 60, 64
3, 240, Note_off_c, 1, 60, 62
3, 240, Note_on_c, 1, 62, 64
3, 360, Note_off_c, 1, 62, 36
3, 360, Note_on_c, 1, 64, 64
3, 480, Note_off_c, 1, 64, 34
3, 480, Note_on_c, 1, 65, 64
3, 660, Note_off_c, 1, 65, 62
3, 660, Note_on_c, 1, 67, 64
3, 690, Note_off_c, 1, 67, 64
3, 692, Note_on_c, 1, 65, 64
3, 720, Note_on_c, 1, 64, 64
3, 722, Note_off_c, 1, 65, 64
3, 840, Note_off_c, 1, 64, 38
3, 840, Note_on_c, 1, 69, 64
3, 960, Note_off_c, 1, 69, 55
3, 960, Note_on_c, 1, 62, 64
3, 1080, Note_off_c, 1, 62, 46
3, 1080, Note_on_c, 1, 67, 64
3, 1247, Note_off_c, 1, 67, 49
3, 1260, Note_on_c, 1, 69, 64
3, 1320, Note_off_c, 1, 69, 63
3, 1320, Note_on_c, 1, 67, 64
3, 1380, Note_off_c, 1, 67, 52
3, 1380, Note_on_c, 1, 65, 64
3, 1440, Note_off_c, 1, 65, 59
3, 1440, Note_on_c, 1, 64, 64
3, 1500, Note_off_c, 1, 64, 44
3, 1500, Note_on_c, 1, 65, 64
3, 1560, Note_off_c, 1, 65, 63
3, 1560, Note_on_c, 1, 64, 64
3, 1620, Note_off_c, 1, 64, 50
3, 1620, Note_on_c, 1, 62, 64
3, 1680, Note_off_c, 1, 62, 59
3, 1680, Note_on_c, 1, 60, 64
3, 1740, Note_off_c, 1, 60, 51
3, 1740, Note_on_c, 1, 62, 64
3, 1800, Note_off_c, 1, 62, 49
3, 1800, Note_on_c, 1, 60, 64
3, 1860, Note_off_c, 1, 60, 55
3, 1860, Note_on_c, 1, 59, 64
3, 1920, Note_off_c, 1, 59, 59
3, 1920, Note_on_c, 1, 57, 64
3, 2040, Note_off_c, 1, 57, 42
3, 2040, Note_on_c, 1, 66, 64
3, 2160, Note_off_c, 1, 66, 40
3, 2160, Note_on_c, 1, 67, 64
3, 2483, Note_off_c, 1, 67, 44
3, 2520, Note_on_c, 1, 65, 64
3, 2580, Note_off_c, 1, 65, 44
3, 2580, Note_on_c, 1, 64, 64
3, 2640, Note_off_c, 1, 64, 45
3, 2640, Note_on_c, 1, 65, 64
3, 2760, Note_off_c, 1, 65, 52
3, 2760, Note_on_c, 1, 62, 64
3, 2880, Note_off_c, 1, 62, 44
3, 2880, Note_on_c, 1, 67, 64
3, 3000, Note_off_c, 1, 67, 49
3, 3000, Note_on_c, 1, 65, 64
3, 3120, Note_off_c, 1, 65, 45
3, 3120, Note_on_c, 1, 64, 64
3, 3240, Note_off_c, 1, 64, 48
3, 3240, Note_on_c, 1, 62, 64
3, 3360, Note_off_c, 1, 62, 51
3, 3720, Note_on_c, 1, 67, 64
3, 3960, Note_off_c, 1, 67, 48
3, 3960, Note_on_c, 1, 65, 64
3, 4020, Note_off_c, 1, 65, 48
3, 4020, Note_on_c, 1, 64, 64
3, 4080, Note_off_c, 1, 64, 50
3, 4080, Note_on_c, 1, 65, 64
3, 4360, Note_off_c, 1, 65, 63
3, 4380, Note_on_c, 1, 65, 64
3, 4440, Note_off_c, 1, 65, 55
3, 4440, Note_on_c, 1, 64, 64
3, 4560, Note_off_c, 1, 64, 47
3, 4560, Note_on_c, 1, 62, 64
3, 4800, Note_off_c, 1, 62, 46
3, 4800, Note_on_c, 1, 60, 64
3, 4920, Note_off_c, 1, 60, 54
3, 4920, Note_on_c, 1, 65, 64
3, 5040, Note_off_c, 1, 65, 73
3, 5100, Note_on_c, 1, 67, 64
3, 5160, Note_off_c, 1, 67, 50
3, 5160, Note_on_c, 1, 65, 64
3, 5220, Note_off_c, 1, 65, 50
3, 5220, Note_on_c, 1, 64, 64
3, 5280, Note_off_c, 1, 64, 42
3, 5280, Note_on_c, 1, 65, 64
3, 5400, Note_off_c, 1, 65, 47
3, 5400, Note_on_c, 1, 62, 64
3, 5520, Note_off_c, 1, 62, 42
3, 5520, Note_on_c, 1, 67, 64
3, 6001, Note_off_c, 1, 67, 66
3, 7800, Note_on_c, 1, 67, 64
3, 7920, Note_off_c, 1, 67, 52
3, 7920, Note_on_c, 1, 69, 64
3, 8040, Note_off_c, 1, 69, 65
3, 8040, Note_on_c, 1, 71, 64
3, 8160, Note_off_c, 1, 71, 69
3, 8160, Note_on_c, 1, 72, 64
3, 8330, Note_off_c, 1, 72, 80
3, 8343, Note_on_c, 1, 74, 64
3, 8373, Note_off_c, 1, 74, 64
3, 8375, Note_on_c, 1, 72, 64
3, 8403, Note_on_c, 1, 71, 64
3, 8405, Note_off_c, 1, 72, 64
3, 8523, Note_off_c, 1, 71, 29
3, 8523, Note_on_c, 1, 76, 64
3, 8643, Note_off_c, 1, 76, 34
3, 8643, Note_on_c, 1, 69, 64
3, 8763, Note_off_c, 1, 69, 57
3, 8763, Note_on_c, 1, 74, 64
3, 8927, Note_off_c, 1, 74, 69
3, 8943, Note_on_c, 1, 76, 64
3, 9003, Note_off_c, 1, 76, 51
3, 9003, Note_on_c, 1, 74, 64
3, 9063, Note_off_c, 1, 74, 68
3, 9063, Note_on_c, 1, 72, 64
3, 9123, Note_off_c, 1, 72, 73
3, 9123, Note_on_c, 1, 71, 64
3, 9244, Note_off_c, 1, 71, 85
3, 9483, Note_on_c, 1, 62, 64
3, 9603, Note_off_c, 1, 62, 48
3, 9603, Note_on_c, 1, 64, 64
3, 9723, Note_off_c, 1, 64, 43
3, 9723, Note_on_c, 1, 66, 64
3, 9843, Note_off_c, 1, 66, 61
3, 9843, Note_on_c, 1, 67, 64
3, 10013, Note_off_c, 1, 67, 59
3, 10026, Note_on_c, 1, 69, 64
3, 10056, Note_off_c, 1, 69, 64
3, 10058, Note_on_c, 1, 67, 64
3, 10086, Note_on_c, 1, 65, 64
3, 10088, Note_off_c, 1, 67, 64
3, 10206, Note_off_c, 1, 65, 39
3, 10206, Note_on_c, 1, 71, 64
3, 10326, Note_off_c, 1, 71, 66
3, 10326, Note_on_c, 1, 64, 64
3, 10446, Note_off_c, 1, 64, 39
3, 10446, Note_on_c, 1, 69, 64
3, 10626, Note_off_c, 1, 69, 59
3, 10626, Note_on_c, 1, 71, 64
3, 10686, Note_off_c, 1, 71, 51
3, 10686, Note_on_c, 1, 69, 64
3, 10746, Note_off_c, 1, 69, 52
3, 10746, Note_on_c, 1, 68, 64
3, 10806, Note_off_c, 1, 68, 57
3, 10806, Note_on_c, 1, 66, 64
3, 10926, Note_off_c, 1, 66, 58
3, 10926, Note_on_c, 1, 65, 64
3, 11046, Note_off_c, 1, 65, 66
3, 11046, Note_on_c, 1, 64, 64
3, 11166, Note_off_c, 1, 64, 48
3, 11166, Note_on_c, 1, 62, 64
3, 11346, Note_off_c, 1, 62, 46
3, 11346, Note_on_c, 1, 64, 64
3, 11406, Note_off_c, 1, 64, 39
3, 11406, Note_on_c, 1, 66, 64
3, 11466, Note_off_c, 1, 66, 66
3, 11466, Note_on_c, 1, 68, 64
3, 11526, Note_off_c, 1, 68, 65
3, 11526, Note_on_c, 1, 69, 64
3, 11586, Note_off_c, 1, 69, 49
3, 11586, Note_on_c, 1, 68, 64
3, 11646, Note_off_c, 1, 68, 51
3, 11646, Note_on_c, 1, 69, 64
3, 11706, Note_off_c, 1, 69, 42
3, 11706, Note_on_c, 1, 71, 64
3, 11766, Note_off_c, 1, 71, 61
3, 11766, Note_on_c, 1, 68, 64
3, 11826, Note_off_c, 1, 68, 66
3, 11826, Note_on_c, 1, 66, 64
3, 11886, Note_off_c, 1, 66, 61
3, 11886, Note_on_c, 1, 68, 64
3, 11946, Note_off_c, 1, 68, 69
3, 11946, Note_on_c, 1, 69, 64
3, 12006, Note_off_c, 1, 69, 63
3, 12006, Note_on_c, 1, 71, 64
3, 12126, Note_off_c, 1, 71, 83
3, 12606, Note_on_c, 1, 60, 64
3, 12726, Note_off_c, 1, 60, 54
3, 12726, Note_on_c, 1, 62, 64
3, 12846, Note_off_c, 1, 62, 41
3, 12846, Note_on_c, 1, 64, 64
3, 12966, Note_off_c, 1, 64, 50
3, 12966, Note_on_c, 1, 65, 64
3, 13136, Note_off_c, 1, 65, 61
3, 13149, Note_on_c, 1, 67, 64
3, 13179, Note_off_c, 1, 67, 64
3, 13181, Note_on_c, 1, 65, 64
3, 13209, Note_on_c, 1, 64, 64
3, 13211, Note_off_c, 1, 65, 64
3, 13329, Note_off_c, 1, 64, 40
3, 13329, Note_on_c, 1, 69, 64
3, 13449, Note_off_c, 1, 69, 51
3, 13449, Note_on_c, 1, 62, 64
3, 13569, Note_off_c, 1, 62, 49
3, 13569, Note_on_c, 1, 67, 64
3, 13749, Note_off_c, 1, 67, 52
3, 13749, Note_on_c, 1, 69, 64
3, 13809, Note_off_c, 1, 69, 59
3, 13809, Note_on_c, 1, 67, 64
3, 13869, Note_off_c, 1, 67, 40
3, 13869, Note_on_c, 1, 65, 64
3, 13929, Note_off_c, 1, 65, 62
3, 13929, Note_on_c, 1, 64, 64
3, 14010, Note_off_c, 1, 64, 51
3, 14049, Note_on_c, 1, 64, 64
3, 14137, Note_off_c, 1, 64, 29
3, 14169, Note_on_c, 1, 66, 64
3, 14251, Note_off_c, 1, 66, 61
3, 14289, Note_on_c, 1, 67, 64
3, 14500, Note_off_c, 1, 67, 46
3, 14529, Note_on_c, 1, 66, 64
3, 14649, Note_off_c, 1, 66, 70
3, 14649, Note_on_c, 1, 68, 64
3, 14769, Note_off_c, 1, 68, 69
3, 14769, Note_on_c, 1, 69, 64
3, 14999, Note_off_c, 1, 69, 72
3, 15012, Note_on_c, 1, 67, 64
3, 15132, Note_off_c, 1, 67, 42
3, 15132, Note_on_c, 1, 69, 64
3, 15252, Note_off_c, 1, 69, 62
3, 15252, Note_on_c, 1, 71, 64
3, 15372, Note_off_c, 1, 71, 66
3, 15372, Note_on_c, 1, 72, 64
3, 15526, Note_off_c, 1, 72, 61
3, 15552, Note_on_c, 1, 74, 64
3, 15582, Note_off_c, 1, 74, 64
3, 15584, Note_on_c, 1, 72, 64
3, 15612, Note_on_c, 1, 71, 64
3, 15614, Note_off_c, 1, 72, 64
3, 15703, Note_off_c, 1, 71, 47
3, 15732, Note_on_c, 1, 76, 64
3, 15852, Note_off_c, 1, 76, 16
3, 15852, Note_on_c, 1, 69, 64
3, 15972, Note_off_c, 1, 69, 54
3, 15972, Note_on_c, 1, 74, 64
3, 16152, Note_off_c, 1, 74, 63
3, 16152, Note_on_c, 1, 76, 64
3, 16212, Note_off_c, 1, 76, 43
3, 16212, Note_on_c, 1, 74, 64
3, 16272, Note_off_c, 1, 74, 44
3, 16272, Note_on_c, 1, 72, 64
3, 16332, Note_off_c, 1, 72, 73
3, 16332, Note_on_c, 1, 71, 64
3, 16452, Note_off_c, 1, 71, 12
3, 16452, Note_on_c, 1, 79, 64
3, 16572, Note_off_c, 1, 79, 51
3, 16572, Note_on_c, 1, 73, 64
3, 16692, Note_off_c, 1, 73, 50
3, 16692, Note_on_c, 1, 74, 64
3, 16812, Note_off_c, 1, 74, 65
3, 16812, Note_on_c, 1, 76, 64
3, 16932, Note_off_c, 1, 76, 40
3, 16932, Note_on_c, 1, 73, 64
3, 17052, Note_off_c, 1, 73, 59
3, 17052, Note_on_c, 1, 74, 64
3, 17172, Note_off_c, 1, 74, 35
3, 17172, Note_on_c, 1, 76, 64
3, 17292, Note_off_c, 1, 76, 49
3, 17292, Note_on_c, 1, 69, 64
3, 17412, Note_off_c, 1, 69, 80
3, 17652, Note_on_c, 1, 64, 64
3, 17772, Note_off_c, 1, 64, 43
3, 17772, Note_on_c, 1, 66, 64
3, 17892, Note_off_c, 1, 66, 49
3, 17892, Note_on_c, 1, 67, 64
3, 18012, Note_off_c, 1, 67, 46
3, 18012, Note_on_c, 1, 69, 64
3, 18182, Note_off_c, 1, 69, 79
3, 18195, Note_on_c, 1, 71, 64
3, 18225, Note_off_c, 1, 71, 64
3, 18227, Note_on_c, 1, 69, 64
3, 18255, Note_on_c, 1, 67, 64
3, 18257, Note_off_c, 1, 69, 64
3, 18375, Note_off_c, 1, 67, 40
3, 18375, Note_on_c, 1, 72, 64
3, 18495, Note_off_c, 1, 72, 49
3, 18495, Note_on_c, 1, 66, 64
3, 18615, Note_off_c, 1, 66, 74
3, 18615, Note_on_c, 1, 71, 64
3, 18783, Note_off_c, 1, 71, 69
3, 18795, Note_on_c, 1, 72, 64
3, 18855, Note_off_c, 1, 72, 54
3, 18855, Note_on_c, 1, 71, 64
3, 18915, Note_off_c, 1, 71, 63
3, 18915, Note_on_c, 1, 69, 64
3, 18975, Note_off_c, 1, 69, 46
3, 18975, Note_on_c, 1, 67, 64
3, 19035, Note_off_c, 1, 67, 38
3, 19035, Note_on_c, 1, 66, 64
3, 19095, Note_off_c, 1, 66, 52
3, 19095, Note_on_c, 1, 64, 64
3, 19155, Note_off_c, 1, 64, 40
3, 19155, Note_on_c, 1, 62, 64
3, 19215, Note_off_c, 1, 62, 43
3, 19215, Note_on_c, 1, 64, 64
3, 19455, Note_off_c, 1, 64, 42
3, 19455, Note_on_c, 1, 62, 64
3, 19745, Note_off_c, 1, 62, 40
3, 19758, Note_on_c, 1, 69, 64
3, 19818, Note_off_c, 1, 69, 68
3, 19818, Note_on_c, 1, 67, 64
3, 19878, Note_off_c, 1, 67, 36
3, 19878, Note_on_c, 1, 65, 64
3, 19938, Note_off_c, 1, 65, 41
3, 19938, Note_on_c, 1, 64, 64
3, 19998, Note_off_c, 1, 64, 35
3, 19998, Note_on_c, 1, 67, 64
3, 20058, Note_off_c, 1, 67, 52
3, 20058, Note_on_c, 1, 65, 64
3, 20118, Note_off_c, 1, 65, 40
3, 20118, Note_on_c, 1, 69, 64
3, 20178, Note_off_c, 1, 69, 57
3, 20178, Note_on_c, 1, 67, 64
3, 20468, Note_off_c, 1, 67, 46
3, 20481, Note_on_c, 1, 69, 64
3, 20541, Note_off_c, 1, 69, 63
3, 20541, Note_on_c, 1, 70, 64
3, 20661, Note_off_c, 1, 70, 76
3, 20661, Note_on_c, 1, 72, 64
3, 20881, Note_off_c, 1, 72, 47
3, 20901, Note_on_c, 1, 74, 64
3, 21021, Note_off_c, 1, 74, 51
3, 21021, Note_on_c, 1, 67, 64
3, 21141, Note_off_c, 1, 67, 52
3, 21141, Note_on_c, 1, 67, 64
3, 21491, Note_off_c, 1, 67, 49
3, 21504, Note_on_c, 1, 65, 64
3, 21744, Note_off_c, 1, 65, 46
3, 21744, Note_on_c, 1, 64, 64
3, 21864, Note_off_c, 1, 64, 55
3, 21864, Note_on_c, 1, 62, 64
3, 22104, Note_off_c, 1, 62, 41
3, 22104, Note_on_c, 1, 64, 64
3, 22192, Note_off_c, 1, 64, 43
3, 22224, Note_on_c, 1, 69, 64
3, 22454, Note_off_c, 1, 69, 66
3, 22467, Note_on_c, 1, 67, 64
3, 22697, Note_off_c, 1, 67, 44
3, 22710, Note_on_c, 1, 65, 64
3, 22830, Note_off_c, 1, 65, 49
3, 22830, Note_on_c, 1, 67, 64
3, 22950, Note_off_c, 1, 67, 46
3, 22950, Note_on_c, 1, 69, 64
3, 23070, Note_off_c, 1, 69, 74
3, 23070, Note_on_c, 1, 70, 64
3, 23223, Note_off_c, 1, 70, 72
3, 23250, Note_on_c, 1, 72, 64
3, 23280, Note_off_c, 1, 72, 64
3, 23282, Note_on_c, 1, 70, 64
3, 23310, Note_on_c, 1, 69, 64
3, 23312, Note_off_c, 1, 70, 64
3, 23430, Note_off_c, 1, 69, 52
3, 23430, Note_on_c, 1, 74, 64
3, 23550, Note_off_c, 1, 74, 45
3, 23550, Note_on_c, 1, 67, 64
3, 23670, Note_off_c, 1, 67, 57
3, 23670, Note_on_c, 1, 72, 64
3, 23830, Note_off_c, 1, 72, 52
3, 23850, Note_on_c, 1, 74, 64
3, 23910, Note_off_c, 1, 74, 61
3, 23910, Note_on_c, 1, 72, 64
3, 23970, Note_off_c, 1, 72, 58
3, 23970, Note_on_c, 1, 70, 64
3, 24030, Note_off_c, 1, 70, 59
3, 24030, Note_on_c, 1, 69, 64
3, 24090, Note_off_c, 1, 69, 58
3, 24090, Note_on_c, 1, 70, 64
3, 24150, Note_off_c, 1, 70, 70
3, 24150, Note_on_c, 1, 69, 64
3, 24210, Note_off_c, 1, 69, 66
3, 24210, Note_on_c, 1, 67, 64
3, 24270, Note_off_c, 1, 67, 57
3, 24270, Note_on_c, 1, 65, 64
3, 24330, Note_off_c, 1, 65, 43
3, 24330, Note_on_c, 1, 67, 64
3, 24390, Note_off_c, 1, 67, 40
3, 24390, Note_on_c, 1, 65, 64
3, 24450, Note_off_c, 1, 65, 54
3, 24450, Note_on_c, 1, 64, 64
3, 24510, Note_off_c, 1, 64, 50
3, 24930, Note_on_c, 1, 67, 64
3, 24990, Note_off_c, 1, 67, 39
3, 24990, Note_on_c, 1, 69, 64
3, 25230, Note_off_c, 1, 69, 58
3, 25290, Note_on_c, 1, 77, 64
3, 25350, Note_off_c, 1, 77, 65
3, 25350, Note_on_c, 1, 74, 64
3, 25470, Note_off_c, 1, 74, 74
3, 25470, Note_on_c, 1, 79, 64
3, 25470, Note_on_c, 1, 76, 64
3, 25950, Note_off_c, 1, 76, 69
3, 25950, Note_off_c, 1, 79, 76
3, 25950, End_track
4, 0, Start_track
4, 0, Text_t, "3"
4, 3000, Note_on_c, 1, 55, 64
4, 3120, Note_off_c, 1, 55, 51
4, 3120, Note_on_c, 1, 57, 64
4, 3240, Note_off_c, 1, 57, 52
4, 3240, Note_on_c, 1, 59, 64
4, 3360, Note_off_c, 1, 59, 49
4, 3360, Note_on_c, 1, 60, 64
4, 3540, Note_off_c, 1, 60, 73
4, 3540, Note_on_c, 1, 62, 64
4, 3570, Note_off_c, 1, 62, 64
4, 3572, Note_on_c, 1, 60, 64
4, 3600, Note_on_c, 1, 59, 64
4, 3602, Note_off_c, 1, 60, 64
4, 3720, Note_off_c, 1, 59, 45
4, 3720, Note_on_c, 1, 64, 64
4, 3840, Note_off_c, 1, 64, 52
4, 3840, Note_on_c, 1, 57, 64
4, 3960, Note_off_c, 1, 57, 50
4, 3960, Note_on_c, 1, 62, 64
4, 4130, Note_off_c, 1, 62, 54
4, 4143, Note_on_c, 1, 64, 64
4, 4203, Note_off_c, 1, 64, 52
4, 4203, Note_on_c, 1, 62, 64
4, 4263, Note_off_c, 1, 62, 55
4, 4263, Note_on_c, 1, 60, 64
4, 4323, Note_off_c, 1, 60, 72
4, 4323, Note_on_c, 1, 59, 64
4, 4443, Note_off_c, 1, 59, 53
4, 4443, Note_on_c, 1, 60, 64
4, 4683, Note_off_c, 1, 60, 68
4, 4683, Note_on_c, 1, 58, 64
4, 4803, Note_off_c, 1, 58, 70
4, 4803, Note_on_c, 1, 57, 64
4, 4923, Note_off_c, 1, 57, 52
4, 4923, Note_on_c, 1, 62, 64
4, 5043, Note_off_c, 1, 62, 58
4, 5043, Note_on_c, 1, 55, 64
4, 5163, Note_off_c, 1, 55, 61
4, 5163, Note_on_c, 1, 60, 64
4, 5283, Note_off_c, 1, 60, 65
4, 5343, Note_on_c, 1, 57, 64
4, 5403, Note_off_c, 1, 57, 47
4, 5403, Note_on_c, 1, 59, 64
4, 5463, Note_off_c, 1, 59, 63
4, 5463, Note_on_c, 1, 60, 64
4, 5523, Note_off_c, 1, 60, 54
4, 5523, Note_on_c, 1, 62, 64
4, 5763, Note_off_c, 1, 62, 74
4, 5763, Note_on_c, 1, 55, 64
4, 6003, Note_off_c, 1, 55, 76
4, 6123, Note_on_c, 1, 55, 64
4, 6243, Note_off_c, 1, 55, 37
4, 6243, Note_on_c, 1, 57, 64
4, 6363, Note_off_c, 1, 57, 54
4, 6363, Note_on_c, 1, 59, 64
4, 6483, Note_off_c, 1, 59, 59
4, 6483, Note_on_c, 1, 60, 64
4, 6663, Note_off_c, 1, 60, 70
4, 6663, Note_on_c, 1, 62, 64
4, 6691, Note_on_c, 1, 60, 64
4, 6693, Note_off_c, 1, 62, 64
4, 6721, Note_off_c, 1, 60, 64
4, 6723, Note_on_c, 1, 59, 64
4, 6843, Note_off_c, 1, 59, 65
4, 6843, Note_on_c, 1, 64, 64
4, 6963, Note_off_c, 1, 64, 54
4, 6963, Note_on_c, 1, 57, 64
4, 7083, Note_off_c, 1, 57, 50
4, 7083, Note_on_c, 1, 62, 64
4, 7263, Note_off_c, 1, 62, 68
4, 7263, Note_on_c, 1, 64, 64
4, 7323, Note_off_c, 1, 64, 40
4, 7323, Note_on_c, 1, 62, 64
4, 7383, Note_off_c, 1, 62, 46
4, 7383, Note_on_c, 1, 60, 64
4, 7443, Note_off_c, 1, 60, 68
4, 7443, Note_on_c, 1, 59, 64
4, 7563, Note_off_c, 1, 59, 69
4, 7563, Note_on_c, 1, 64, 64
4, 7923, Note_off_c, 1, 64, 49
4, 7923, Note_on_c, 1, 62, 64
4, 8163, Note_off_c, 1, 62, 61
4, 8223, Note_on_c, 1, 59, 64
4, 8283, Note_off_c, 1, 59, 52
4, 8283, Note_on_c, 1, 60, 64
4, 8343, Note_off_c, 1, 60, 55
4, 8343, Note_on_c, 1, 57, 64
4, 8403, Note_off_c, 1, 57, 51
4, 8403, Note_on_c, 1, 64, 64
4, 8463, Note_off_c, 1, 64, 49
4, 8463, Note_on_c, 1, 62, 64
4, 8523, Note_off_c, 1, 62, 48
4, 8523, Note_on_c, 1, 60, 64
4, 8583, Note_off_c, 1, 60, 68
4, 8583, Note_on_c, 1, 59, 64
4, 8643, Note_off_c, 1, 59, 65
4, 8643, Note_on_c, 1, 60, 64
4, 8703, Note_off_c, 1, 60, 65
4, 8703, Note_on_c, 1, 57, 64
4, 8763, Note_off_c, 1, 57, 51
4, 8763, Note_on_c, 1, 59, 64
4, 8823, Note_off_c, 1, 59, 57
4, 8823, Note_on_c, 1, 60, 64
4, 8883, Note_off_c, 1, 60, 69
4, 8883, Note_on_c, 1, 62, 64
4, 8943, Note_off_c, 1, 62, 49
4, 8943, Note_on_c, 1, 60, 64
4, 9003, Note_off_c, 1, 60, 58
4, 9003, Note_on_c, 1, 59, 64
4, 9063, Note_off_c, 1, 59, 69
4, 9063, Note_on_c, 1, 57, 64
4, 9123, Note_off_c, 1, 57, 58
4, 9123, Note_on_c, 1, 55, 64
4, 9363, Note_off_c, 1, 55, 79
4, 10683, Note_on_c, 1, 52, 64
4, 10803, Note_off_c, 1, 52, 68
4, 10803, Note_on_c, 1, 54, 64
4, 10923, Note_off_c, 1, 54, 68
4, 10923, Note_on_c, 1, 56, 64
4, 11043, Note_off_c, 1, 56, 50
4, 11043, Note_on_c, 1, 57, 64
4, 11223, Note_off_c, 1, 57, 65
4, 11223, Note_on_c, 1, 59, 64
4, 11253, Note_off_c, 1, 59, 64
4, 11255, Note_on_c, 1, 57, 64
4, 11283, Note_on_c, 1, 55, 64
4, 11285, Note_off_c, 1, 57, 64
4, 11403, Note_off_c, 1, 55, 13
4, 11403, Note_on_c, 1, 60, 64
4, 11523, Note_off_c, 1, 60, 62
4, 11523, Note_on_c, 1, 54, 64
4, 11643, Note_off_c, 1, 54, 69
4, 11643, Note_on_c, 1, 59, 64
4, 11823, Note_off_c, 1, 59, 66
4, 11823, Note_on_c, 1, 60, 64
4, 11883, Note_off_c, 1, 60, 27
4, 11883, Note_on_c, 1, 59, 64
4, 11943, Note_off_c, 1, 59, 37
4, 11943, Note_on_c, 1, 57, 64
4, 12003, Note_off_c, 1, 57, 53
4, 12003, Note_on_c, 1, 56, 64
4, 12123, Note_on_c, 1, 57, 64
4, 12125, Note_off_c, 1, 56, 68
4, 12362, Note_off_c, 1, 57, 54
4, 12363, Note_on_c, 1, 56, 64
4, 12483, Note_off_c, 1, 56, 72
4, 12483, Note_on_c, 1, 57, 64
4, 12723, Note_off_c, 1, 57, 68
4, 12843, Note_on_c, 1, 55, 64
4, 12963, Note_off_c, 1, 55, 43
4, 12963, Note_on_c, 1, 57, 64
4, 13083, Note_off_c, 1, 57, 65
4, 13083, Note_on_c, 1, 59, 64
4, 13203, Note_off_c, 1, 59, 63
4, 13203, Note_on_c, 1, 60, 64
4, 13383, Note_off_c, 1, 60, 69
4, 13383, Note_on_c, 1, 62, 64
4, 13413, Note_off_c, 1, 62, 64
4, 13415, Note_on_c, 1, 60, 64
4, 13443, Note_on_c, 1, 59, 64
4, 13445, Note_off_c, 1, 60, 64
4, 13563, Note_off_c, 1, 59, 52
4, 13563, Note_on_c, 1, 64, 64
4, 13683, Note_off_c, 1, 64, 57
4, 13683, Note_on_c, 1, 57, 64
4, 13803, Note_off_c, 1, 57, 41
4, 13803, Note_on_c, 1, 62, 64
4, 14043, Note_off_c, 1, 62, 53
4, 14043, Note_on_c, 1, 55, 64
4, 14163, Note_off_c, 1, 55, 46
4, 14163, Note_on_c, 1, 62, 64
4, 14403, Note_off_c, 1, 62, 50
4, 14403, Note_on_c, 1, 60, 64
4, 14523, Note_off_c, 1, 60, 68
4, 14523, Note_on_c, 1, 57, 64
4, 14643, Note_off_c, 1, 57, 41
4, 14643, Note_on_c, 1, 64, 64
4, 14883, Note_off_c, 1, 64, 51
4, 14883, Note_on_c, 1, 62, 64
4, 15003, Note_off_c, 1, 62, 72
4, 15483, Note_on_c, 1, 57, 64
4, 15603, Note_off_c, 1, 57, 43
4, 15603, Note_on_c, 1, 59, 64
4, 15723, Note_off_c, 1, 59, 63
4, 15723, Note_on_c, 1, 61, 64
4, 15843, Note_off_c, 1, 61, 55
4, 15843, Note_on_c, 1, 62, 64
4, 16023, Note_off_c, 1, 62, 59
4, 16023, Note_on_c, 1, 64, 64
4, 16053, Note_off_c, 1, 64, 64
4, 16055, Note_on_c, 1, 62, 64
4, 16083, Note_on_c, 1, 60, 64
4, 16085, Note_off_c, 1, 62, 64
4, 16199, Note_off_c, 1, 60, 66
4, 16203, Note_on_c, 1, 65, 64
4, 16323, Note_off_c, 1, 65, 64
4, 16323, Note_on_c, 1, 59, 64
4, 16443, Note_off_c, 1, 59, 54
4, 16443, Note_on_c, 1, 64, 64
4, 16623, Note_off_c, 1, 64, 52
4, 16623, Note_on_c, 1, 65, 64
4, 16683, Note_off_c, 1, 65, 1
4, 16683, Note_on_c, 1, 64, 64
4, 16743, Note_off_c, 1, 64, 52
4, 16743, Note_on_c, 1, 62, 64
4, 16803, Note_off_c, 1, 62, 66
4, 16803, Note_on_c, 1, 61, 64
4, 16923, Note_off_c, 1, 61, 82
4, 17403, Note_on_c, 1, 57, 64
4, 17523, Note_off_c, 1, 57, 46
4, 17523, Note_on_c, 1, 59, 64
4, 17643, Note_off_c, 1, 59, 58
4, 17643, Note_on_c, 1, 61, 64
4, 17763, Note_off_c, 1, 61, 57
4, 17763, Note_on_c, 1, 62, 64
4, 17943, Note_off_c, 1, 62, 52
4, 17943, Note_on_c, 1, 64, 64
4, 17973, Note_off_c, 1, 64, 64
4, 17975, Note_on_c, 1, 62, 64
4, 18003, Note_on_c, 1, 60, 64
4, 18005, Note_off_c, 1, 62, 64
4, 18123, Note_off_c, 1, 60, 47
4, 18123, Note_on_c, 1, 66, 64
4, 18243, Note_off_c, 1, 66, 1
4, 18243, Note_on_c, 1, 59, 64
4, 18363, Note_off_c, 1, 59, 43
4, 18363, Note_on_c, 1, 64, 64
4, 18543, Note_off_c, 1, 64, 52
4, 18543, Note_on_c, 1, 66, 64
4, 18603, Note_off_c, 1, 66, 62
4, 18603, Note_on_c, 1, 64, 64
4, 18663, Note_off_c, 1, 64, 59
4, 18663, Note_on_c, 1, 62, 64
4, 18723, Note_off_c, 1, 62, 50
4, 18723, Note_on_c, 1, 60, 64
4, 19263, Note_off_c, 1, 60, 61
4, 19263, Note_on_c, 1, 62, 64
4, 19323, Note_off_c, 1, 62, 44
4, 19323, Note_on_c, 1, 60, 64
4, 19383, Note_off_c, 1, 60, 55
4, 19383, Note_on_c, 1, 59, 64
4, 19443, Note_off_c, 1, 59, 59
4, 19443, Note_on_c, 1, 57, 64
4, 19503, Note_off_c, 1, 57, 1
4, 19503, Note_on_c, 1, 55, 64
4, 19563, Note_off_c, 1, 55, 72
4, 19563, Note_on_c, 1, 57, 64
4, 19623, Note_off_c, 1, 57, 52
4, 19623, Note_on_c, 1, 54, 64
4, 19683, Note_off_c, 1, 54, 73
4, 19683, Note_on_c, 1, 55, 64
4, 19803, Note_on_c, 1, 59, 64
4, 19807, Note_off_c, 1, 55, 30
4, 19923, Note_on_c, 1, 60, 64
4, 19934, Note_off_c, 1, 59, 55
4, 20043, Note_on_c, 1, 62, 64
4, 20055, Note_off_c, 1, 60, 66
4, 20163, Note_off_c, 1, 62, 62
4, 20163, Note_on_c, 1, 64, 64
4, 20343, Note_off_c, 1, 64, 52
4, 20343, Note_on_c, 1, 65, 64
4, 20373, Note_off_c, 1, 65, 64
4, 20375, Note_on_c, 1, 64, 64
4, 20403, Note_on_c, 1, 62, 64
4, 20405, Note_off_c, 1, 64, 64
4, 20523, Note_off_c, 1, 62, 55
4, 20523, Note_on_c, 1, 67, 64
4, 20643, Note_off_c, 1, 67, 49
4, 20643, Note_on_c, 1, 60, 64
4, 20763, Note_off_c, 1, 60, 57
4, 20763, Note_on_c, 1, 65, 64
4, 20943, Note_off_c, 1, 65, 55
4, 20943, Note_on_c, 1, 67, 64
4, 21003, Note_off_c, 1, 67, 37
4, 21003, Note_on_c, 1, 65, 64
4, 21063, Note_off_c, 1, 65, 52
4, 21063, Note_on_c, 1, 64, 64
4, 21123, Note_off_c, 1, 64, 50
4, 21123, Note_on_c, 1, 62, 64
4, 21363, Note_off_c, 1, 62, 58
4, 21363, Note_on_c, 1, 64, 64
4, 21483, Note_off_c, 1, 64, 47
4, 21483, Note_on_c, 1, 62, 64
4, 21723, Note_off_c, 1, 62, 59
4, 21723, Note_on_c, 1, 55, 64
4, 21833, Note_off_c, 1, 55, 69
4, 21846, Note_on_c, 1, 55, 64
4, 22206, Note_off_c, 1, 55, 64
4, 22206, Note_on_c, 1, 48, 64
4, 22326, Note_off_c, 1, 48, 76
4, 22326, Note_on_c, 1, 50, 64
4, 22446, Note_off_c, 1, 50, 44
4, 22446, Note_on_c, 1, 52, 64
4, 22566, Note_off_c, 1, 52, 52
4, 22566, Note_on_c, 1, 53, 64
4, 22746, Note_off_c, 1, 53, 55
4, 22746, Note_on_c, 1, 55, 64
4, 22776, Note_off_c, 1, 55, 64
4, 22778, Note_on_c, 1, 53, 64
4, 22806, Note_on_c, 1, 52, 64
4, 22808, Note_off_c, 1, 53, 64
4, 22926, Note_off_c, 1, 52, 49
4, 22926, Note_on_c, 1, 57, 64
4, 23046, Note_off_c, 1, 57, 63
4, 23046, Note_on_c, 1, 50, 64
4, 23166, Note_off_c, 1, 50, 42
4, 23166, Note_on_c, 1, 55, 64
4, 23336, Note_off_c, 1, 55, 68
4, 23349, Note_on_c, 1, 57, 64
4, 23409, Note_off_c, 1, 57, 50
4, 23409, Note_on_c, 1, 55, 64
4, 23469, Note_off_c, 1, 55, 73
4, 23469, Note_on_c, 1, 53, 64
4, 23529, Note_off_c, 1, 53, 47
4, 23529, Note_on_c, 1, 52, 64
4, 23589, Note_off_c, 1, 52, 77
4, 23589, Note_on_c, 1, 50, 64
4, 23649, Note_off_c, 1, 50, 49
4, 23649, Note_on_c, 1, 52, 64
4, 23709, Note_off_c, 1, 52, 68
4, 23709, Note_on_c, 1, 53, 64
4, 23769, Note_off_c, 1, 53, 66
4, 23769, Note_on_c, 1, 55, 64
4, 23829, Note_off_c, 1, 55, 44
4, 23829, Note_on_c, 1, 57, 64
4, 23889, Note_off_c, 1, 57, 52
4, 23889, Note_on_c, 1, 58, 64
4, 23949, Note_off_c, 1, 58, 66
4, 23949, Note_on_c, 1, 55, 64
4, 24009, Note_off_c, 1, 55, 58
4, 24009, Note_on_c, 1, 57, 64
4, 24069, Note_off_c, 1, 57, 59
4, 24069, Note_on_c, 1, 52, 64
4, 24129, Note_off_c, 1, 52, 45
4, 24129, Note_on_c, 1, 53, 64
4, 24189, Note_off_c, 1, 53, 53
4, 24189, Note_on_c, 1, 55, 64
4, 24249, Note_off_c, 1, 55, 52
4, 24249, Note_on_c, 1, 57, 64
4, 24309, Note_off_c, 1, 57, 59
4, 24309, Note_on_c, 1, 59, 64
4, 24369, Note_off_c, 1, 59, 73
4, 24369, Note_on_c, 1, 60, 64
4, 24429, Note_off_c, 1, 60, 68
4, 24429, Note_on_c, 1, 57, 64
4, 24489, Note_off_c, 1, 57, 52
4, 24489, Note_on_c, 1, 62, 64
4, 24909, Note_off_c, 1, 62, 68
4, 24969, Note_on_c, 1, 60, 64
4, 25929, Note_off_c, 1, 60, 77
4, 25929, End_track
5, 0, Start_track
5, 0, Text_t, "4"
5, 4440, Note_on_c, 3, 48, 64
5, 4560, Note_off_c, 3, 48, 54
5, 4560, Note_on_c, 3, 50, 64
5, 4680, Note_off_c, 3, 50, 57
5, 4680, Note_on_c, 3, 52, 64
5, 4800, Note_off_c, 3, 52, 65
5, 4800, Note_on_c, 3, 53, 64
5, 4980, Note_off_c, 3, 53, 62
5, 4980, Note_on_c, 3, 55, 64
5, 5010, Note_off_c, 3, 55, 64
5, 5012, Note_on_c, 3, 53, 64
5, 5040, Note_on_c, 3, 52, 64
5, 5042, Note_off_c, 3, 53, 64
5, 5160, Note_off_c, 3, 52, 55
5, 5160, Note_on_c, 3, 57, 64
5, 5280, Note_off_c, 3, 57, 63
5, 5280, Note_on_c, 3, 50, 64
5, 5400, Note_off_c, 3, 50, 65
5, 5400, Note_on_c, 3, 55, 64
5, 5570, Note_off_c, 3, 55, 70
5, 5583, Note_on_c, 3, 57, 64
5, 5643, Note_off_c, 3, 57, 49
5, 5643, Note_on_c, 3, 55, 64
5, 5703, Note_off_c, 3, 55, 65
5, 5703, Note_on_c, 3, 53, 64
5, 5763, Note_off_c, 3, 53, 73
5, 5763, Note_on_c, 3, 52, 64
5, 5823, Note_off_c, 3, 52, 62
5, 5823, Note_on_c, 3, 53, 64
5, 5883, Note_off_c, 3, 53, 55
5, 5883, Note_on_c, 3, 52, 64
5, 5943, Note_off_c, 3, 52, 76
5, 5943, Note_on_c, 3, 50, 64
5, 6003, Note_off_c, 3, 50, 49
5, 6003, Note_on_c, 3, 48, 64
5, 6063, Note_off_c, 3, 48, 69
5, 6063, Note_on_c, 3, 50, 64
5, 6123, Note_off_c, 3, 50, 49
5, 6123, Note_on_c, 3, 48, 64
5, 6183, Note_off_c, 3, 48, 70
5, 6183, Note_on_c, 3, 47, 64
5, 6243, Note_off_c, 3, 47, 76
5, 6243, Note_on_c, 3, 45, 64
5, 6363, Note_off_c, 3, 45, 54
5, 6363, Note_on_c, 3, 50, 64
5, 6483, Note_off_c, 3, 50, 69
5, 6483, Note_on_c, 3, 57, 64
5, 6603, Note_off_c, 3, 57, 63
5, 6603, Note_on_c, 3, 54, 64
5, 6723, Note_off_c, 3, 54, 74
5, 6723, Note_on_c, 3, 55, 64
5, 6783, Note_off_c, 3, 55, 57
5, 6783, Note_on_c, 3, 57, 64
5, 6843, Note_off_c, 3, 57, 65
5, 6843, Note_on_c, 3, 58, 64
5, 6903, Note_off_c, 3, 58, 63
5, 6903, Note_on_c, 3, 55, 64
5, 6963, Note_off_c, 3, 55, 77
5, 6963, Note_on_c, 3, 49, 64
5, 7083, Note_off_c, 3, 49, 82
5, 7083, Note_on_c, 3, 50, 64
5, 7203, Note_off_c, 3, 50, 69
5, 7203, Note_on_c, 3, 57, 64
5, 7443, Note_off_c, 3, 57, 65
5, 7443, Note_on_c, 3, 52, 64
5, 7683, Note_off_c, 3, 52, 49
5, 7683, Note_on_c, 3, 57, 64
5, 7743, Note_off_c, 3, 57, 52
5, 7743, Note_on_c, 3, 59, 64
5, 7803, Note_off_c, 3, 59, 52
5, 7803, Note_on_c, 3, 60, 64
5, 7863, Note_off_c, 3, 60, 72
5, 7863, Note_on_c, 3, 62, 64
5, 7923, Note_off_c, 3, 62, 49
5, 7923, Note_on_c, 3, 60, 64
5, 7983, Note_off_c, 3, 60, 43
5, 7983, Note_on_c, 3, 59, 64
5, 8043, Note_off_c, 3, 59, 51
5, 8043, Note_on_c, 3, 57, 64
5, 8103, Note_off_c, 3, 57, 65
5, 8103, Note_on_c, 3, 55, 64
5, 8163, Note_off_c, 3, 55, 72
5, 8163, Note_on_c, 3, 60, 64
5, 8283, Note_off_c, 3, 60, 74
5, 9243, Note_on_c, 3, 43, 64
5, 9363, Note_off_c, 3, 43, 73
5, 9363, Note_on_c, 3, 45, 64
5, 9483, Note_off_c, 3, 45, 44
5, 9483, Note_on_c, 3, 47, 64
5, 9603, Note_off_c, 3, 47, 59
5, 9603, Note_on_c, 3, 48, 64
5, 9783, Note_off_c, 3, 48, 53
5, 9783, Note_on_c, 3, 50, 64
5, 9813, Note_off_c, 3, 50, 64
5, 9815, Note_on_c, 3, 48, 64
5, 9843, Note_on_c, 3, 47, 64
5, 9845, Note_off_c, 3, 48, 64
5, 9963, Note_off_c, 3, 47, 51
5, 9963, Note_on_c, 3, 52, 64
5, 10083, Note_off_c, 3, 52, 72
5, 10083, Note_on_c, 3, 45, 64
5, 10203, Note_off_c, 3, 45, 53
5, 10203, Note_on_c, 3, 50, 64
5, 10383, Note_off_c, 3, 50, 66
5, 10383, Note_on_c, 3, 52, 64
5, 10443, Note_off_c, 3, 52, 54
5, 10443, Note_on_c, 3, 50, 64
5, 10503, Note_off_c, 3, 50, 63
5, 10503, Note_on_c, 3, 48, 64
5, 10563, Note_off_c, 3, 48, 70
5, 10563, Note_on_c, 3, 47, 64
5, 10679, Note_off_c, 3, 47, 62
5, 10683, Note_on_c, 3, 52, 64
5, 10923, Note_off_c, 3, 52, 68
5, 10923, Note_on_c, 3, 50, 64
5, 11043, Note_off_c, 3, 50, 73
5, 11043, Note_on_c, 3, 48, 64
5, 11163, Note_off_c, 3, 48, 65
5, 11163, Note_on_c, 3, 53, 64
5, 11403, Note_off_c, 3, 53, 68
5, 11403, Note_on_c, 3, 52, 64
5, 11643, Note_off_c, 3, 52, 57
5, 11643, Note_on_c, 3, 50, 64
5, 11883, Note_off_c, 3, 50, 59
5, 11883, Note_on_c, 3, 52, 64
5, 12003, Note_off_c, 3, 52, 68
5, 12003, Note_on_c, 3, 53, 64
5, 12123, Note_off_c, 3, 53, 50
5, 12123, Note_on_c, 3, 52, 64
5, 12183, Note_off_c, 3, 52, 50
5, 12183, Note_on_c, 3, 50, 64
5, 12243, Note_off_c, 3, 50, 72
5, 12243, Note_on_c, 3, 52, 64
5, 12483, Note_off_c, 3, 52, 80
5, 12483, Note_on_c, 3, 45, 64
5, 12723, Note_off_c, 3, 45, 74
5, 13563, Note_on_c, 3, 43, 64
5, 13683, Note_off_c, 3, 43, 55
5, 13683, Note_on_c, 3, 45, 64
5, 13803, Note_off_c, 3, 45, 65
5, 13803, Note_on_c, 3, 47, 64
5, 13923, Note_off_c, 3, 47, 52
5, 13923, Note_on_c, 3, 48, 64
5, 14103, Note_off_c, 3, 48, 61
5, 14103, Note_on_c, 3, 50, 64
5, 14133, Note_off_c, 3, 50, 64
5, 14135, Note_on_c, 3, 48, 64
5, 14163, Note_on_c, 3, 47, 64
5, 14165, Note_off_c, 3, 48, 64
5, 14283, Note_off_c, 3, 47, 58
5, 14283, Note_on_c, 3, 52, 64
5, 14403, Note_off_c, 3, 52, 65
5, 14403, Note_on_c, 3, 45, 64
5, 14523, Note_off_c, 3, 45, 58
5, 14523, Note_on_c, 3, 50, 64
5, 14703, Note_off_c, 3, 50, 54
5, 14703, Note_on_c, 3, 52, 64
5, 14763, Note_off_c, 3, 52, 58
5, 14763, Note_on_c, 3, 50, 64
5, 14823, Note_off_c, 3, 50, 72
5, 14823, Note_on_c, 3, 48, 64
5, 14883, Note_off_c, 3, 48, 40
5, 14883, Note_on_c, 3, 47, 64
5, 15003, Note_off_c, 3, 47, 69
5, 15003, Note_on_c, 3, 46, 64
5, 15123, Note_off_c, 3, 46, 65
5, 15123, Note_on_c, 3, 45, 64
5, 15243, Note_off_c, 3, 45, 72
5, 15243, Note_on_c, 3, 43, 64
5, 15363, Note_off_c, 3, 43, 63
5, 15363, Note_on_c, 3, 45, 64
5, 15483, Note_off_c, 3, 45, 39
5, 15483, Note_on_c, 3, 54, 64
5, 15603, Note_off_c, 3, 54, 62
5, 15603, Note_on_c, 3, 55, 64
5, 15723, Note_off_c, 3, 55, 74
5, 15723, Note_on_c, 3, 52, 64
5, 15843, Note_off_c, 3, 52, 79
5, 15843, Note_on_c, 3, 50, 64
5, 16083, Note_off_c, 3, 50, 52
5, 16083, Note_on_c, 3, 52, 64
5, 16203, Note_off_c, 3, 52, 68
5, 16203, Note_on_c, 3, 53, 64
5, 16323, Note_off_c, 3, 53, 66
5, 16323, Note_on_c, 3, 55, 64
5, 16503, Note_off_c, 3, 55, 61
5, 16503, Note_on_c, 3, 57, 64
5, 16533, Note_off_c, 3, 57, 64
5, 16535, Note_on_c, 3, 55, 64
5, 16563, Note_on_c, 3, 53, 64
5, 16565, Note_off_c, 3, 55, 64
5, 16683, Note_off_c, 3, 53, 36
5, 16683, Note_on_c, 3, 58, 64
5, 16803, Note_off_c, 3, 58, 73
5, 16803, Note_on_c, 3, 52, 64
5, 16923, Note_off_c, 3, 52, 51
5, 16923, Note_on_c, 3, 57, 64
5, 17103, Note_off_c, 3, 57, 50
5, 17103, Note_on_c, 3, 59, 64
5, 17163, Note_on_c, 3, 57, 64
5, 17178, Note_off_c, 3, 59, 58
5, 17223, Note_off_c, 3, 57, 51
5, 17223, Note_on_c, 3, 55, 64
5, 17283, Note_off_c, 3, 55, 66
5, 17283, Note_on_c, 3, 53, 64
5, 17343, Note_off_c, 3, 53, 44
5, 17343, Note_on_c, 3, 52, 64
5, 17403, Note_off_c, 3, 52, 64
5, 17403, Note_on_c, 3, 53, 64
5, 17463, Note_off_c, 3, 53, 64
5, 17463, Note_on_c, 3, 50, 64
5, 17523, Note_off_c, 3, 50, 48
5, 17523, Note_on_c, 3, 55, 64
5, 17643, Note_off_c, 3, 55, 77
5, 17643, Note_on_c, 3, 57, 64
5, 17763, Note_off_c, 3, 57, 63
5, 17763, Note_on_c, 3, 50, 64
5, 18303, Note_off_c, 3, 50, 48
5, 18303, Note_on_c, 3, 52, 64
5, 18363, Note_off_c, 3, 52, 70
5, 18363, Note_on_c, 3, 50, 64
5, 18423, Note_off_c, 3, 50, 70
5, 18423, Note_on_c, 3, 48, 64
5, 18483, Note_off_c, 3, 48, 51
5, 18483, Note_on_c, 3, 47, 64
5, 18543, Note_off_c, 3, 47, 72
5, 18543, Note_on_c, 3, 45, 64
5, 18603, Note_off_c, 3, 45, 23
5, 18603, Note_on_c, 3, 43, 64
5, 18663, Note_off_c, 3, 43, 64
5, 18663, Note_on_c, 3, 42, 64
5, 18723, Note_off_c, 3, 42, 64
5, 18723, Note_on_c, 3, 40, 64
5, 18843, Note_off_c, 3, 40, 48
5, 18843, Note_on_c, 3, 52, 64
5, 18963, Note_off_c, 3, 52, 77
5, 18963, Note_on_c, 3, 54, 64
5, 19083, Note_off_c, 3, 54, 69
5, 19083, Note_on_c, 3, 55, 64
5, 19323, Note_off_c, 3, 55, 62
5, 19323, Note_on_c, 3, 57, 64
5, 19383, Note_off_c, 3, 57, 39
5, 19383, Note_on_c, 3, 55, 64
5, 19443, Note_off_c, 3, 55, 58
5, 19443, Note_on_c, 3, 54, 64
5, 19563, Note_off_c, 3, 54, 58
5, 19563, Note_on_c, 3, 50, 64
5, 19683, Note_off_c, 3, 50, 70
5, 19683, Note_on_c, 3, 55, 64
5, 20643, Note_off_c, 3, 55, 74
5, 20643, Note_on_c, 3, 57, 64
5, 20883, Note_off_c, 3, 57, 64
5, 20883, Note_on_c, 3, 59, 64
5, 21003, Note_off_c, 3, 59, 42
5, 21003, Note_on_c, 3, 60, 64
5, 21123, Note_off_c, 3, 60, 65
5, 21123, Note_on_c, 3, 53, 64
5, 21183, Note_off_c, 3, 53, 61
5, 21183, Note_on_c, 3, 57, 64
5, 21243, Note_off_c, 3, 57, 49
5, 21243, Note_on_c, 3, 55, 64
5, 21303, Note_off_c, 3, 55, 72
5, 21303, Note_on_c, 3, 53, 64
5, 21363, Note_off_c, 3, 53, 51
5, 21363, Note_on_c, 3, 52, 64
5, 21423, Note_off_c, 3, 52, 69
5, 21423, Note_on_c, 3, 50, 64
5, 21483, Note_off_c, 3, 50, 47
5, 21483, Note_on_c, 3, 48, 64
5, 21543, Note_off_c, 3, 48, 72
5, 21543, Note_on_c, 3, 47, 64
5, 21603, Note_off_c, 3, 47, 52
5, 21603, Note_on_c, 3, 48, 64
5, 21663, Note_off_c, 3, 48, 53
5, 21663, Note_on_c, 3, 50, 64
5, 21723, Note_off_c, 3, 50, 46
5, 21723, Note_on_c, 3, 52, 64
5, 21783, Note_off_c, 3, 52, 57
5, 21783, Note_on_c, 3, 53, 64
5, 21843, Note_off_c, 3, 53, 76
5, 21843, Note_on_c, 3, 55, 64
5, 21963, Note_off_c, 3, 55, 74
5, 21963, Note_on_c, 3, 43, 64
5, 22083, Note_off_c, 3, 43, 72
5, 22083, Note_on_c, 3, 48, 64
5, 24483, Note_on_c, 3, 59, 64
5, 24963, Note_off_c, 3, 59, 54
5, 25923, Note_off_c, 3, 48, 68
5, 25923, End_track
0, 0, End_of_file
