0, 0, Header, 1, 3, 240
1, 0, Start_track
1, 0, Time_signature, 4, 2, 24, 8
1, 0, Tempo, 810811
1, 17280, Tempo, 845070
1, 17400, Tempo, 882353
1, 17520, Tempo, 923077
1, 17640, Tempo, 983607
1, 17760, Tempo, 1052632
1, 18000, Tempo, 1090909
1, 18176, Tempo, 1333333
1, 18240, Tempo, 1500000
1, 18240, End_track
2, 0, Start_track
2, 0, Text_t, "RH H"
2, 0, Note_on_c, 0, 81, 72
2, 22, Note_off_c, 0, 81, 53
2, 22, Note_on_c, 0, 79, 48
2, 44, Note_off_c, 0, 79, 73
2, 44, Note_on_c, 0, 81, 48
2, 66, Note_off_c, 0, 81, 72
2, 66, Note_on_c, 0, 79, 49
2, 88, Note_off_c, 0, 79, 73
2, 88, Note_on_c, 0, 81, 49
2, 110, Note_off_c, 0, 81, 70
2, 110, Note_on_c, 0, 79, 49
2, 132, Note_off_c, 0, 79, 74
2, 132, Note_on_c, 0, 81, 50
2, 154, Note_off_c, 0, 81, 68
2, 154, Note_on_c, 0, 79, 50
2, 176, Note_off_c, 0, 79, 72
2, 176, Note_on_c, 0, 81, 50
2, 198, Note_off_c, 0, 81, 68
2, 198, Note_on_c, 0, 79, 51
2, 220, Note_off_c, 0, 79, 72
2, 220, Note_on_c, 0, 81, 51
2, 242, Note_off_c, 0, 81, 68
2, 242, Note_on_c, 0, 79, 52
2, 264, Note_off_c, 0, 79, 73
2, 264, Note_on_c, 0, 81, 52
2, 286, Note_off_c, 0, 81, 70
2, 286, Note_on_c, 0, 79, 52
2, 308, Note_off_c, 0, 79, 70
2, 308, Note_on_c, 0, 81, 53
2, 330, Note_off_c, 0, 81, 69
2, 330, Note_on_c, 0, 79, 53
2, 352, Note_off_c, 0, 79, 68
2, 352, Note_on_c, 0, 81, 53
2, 374, Note_off_c, 0, 81, 63
2, 374, Note_on_c, 0, 79, 54
2, 396, Note_off_c, 0, 79, 66
2, 396, Note_on_c, 0, 81, 54
2, 418, Note_off_c, 0, 81, 65
2, 418, Note_on_c, 0, 79, 54
2, 440, Note_off_c, 0, 79, 72
2, 440, Note_on_c, 0, 81, 55
2, 462, Note_off_c, 0, 81, 69
2, 462, Note_on_c, 0, 79, 55
2, 484, Note_off_c, 0, 79, 69
2, 484, Note_on_c, 0, 81, 56
2, 506, Note_off_c, 0, 81, 65
2, 506, Note_on_c, 0, 79, 56
2, 528, Note_off_c, 0, 79, 72
2, 528, Note_on_c, 0, 81, 56
2, 550, Note_off_c, 0, 81, 69
2, 550, Note_on_c, 0, 79, 57
2, 572, Note_off_c, 0, 79, 69
2, 572, Note_on_c, 0, 81, 57
2, 594, Note_off_c, 0, 81, 65
2, 594, Note_on_c, 0, 79, 57
2, 616, Note_off_c, 0, 79, 73
2, 616, Note_on_c, 0, 81, 58
2, 638, Note_off_c, 0, 81, 65
2, 638, Note_on_c, 0, 79, 58
2, 660, Note_off_c, 0, 79, 72
2, 660, Note_on_c, 0, 81, 59
2, 682, Note_off_c, 0, 81, 62
2, 682, Note_on_c, 0, 79, 59
2, 704, Note_off_c, 0, 79, 70
2, 704, Note_on_c, 0, 81, 59
2, 726, Note_off_c, 0, 81, 68
2, 726, Note_on_c, 0, 79, 60
2, 748, Note_off_c, 0, 79, 73
2, 748, Note_on_c, 0, 81, 60
2, 770, Note_off_c, 0, 81, 65
2, 770, Note_on_c, 0, 79, 60
2, 792, Note_off_c, 0, 79, 73
2, 792, Note_on_c, 0, 81, 61
2, 814, Note_off_c, 0, 81, 65
2, 814, Note_on_c, 0, 79, 61
2, 836, Note_off_c, 0, 79, 70
2, 836, Note_on_c, 0, 81, 61
2, 858, Note_off_c, 0, 81, 68
2, 858, Note_on_c, 0, 79, 62
2, 880, Note_off_c, 0, 79, 72
2, 880, Note_on_c, 0, 81, 62
2, 902, Note_off_c, 0, 81, 62
2, 902, Note_on_c, 0, 79, 63
2, 924, Note_off_c, 0, 79, 65
2, 924, Note_on_c, 0, 81, 63
2, 946, Note_off_c, 0, 81, 61
2, 946, Note_on_c, 0, 79, 63
2, 1020, Note_off_c, 0, 79, 72
2, 1020, Note_on_c, 0, 74, 64
2, 1080, Note_off_c, 0, 74, 30
2, 1080, Note_on_c, 0, 75, 64
2, 1110, Note_off_c, 0, 75, 51
2, 1110, Note_on_c, 0, 74, 64
2, 1140, Note_off_c, 0, 74, 63
2, 1140, Note_on_c, 0, 72, 64
2, 1200, Note_off_c, 0, 72, 82
2, 1200, Note_on_c, 0, 74, 64
2, 1260, Note_off_c, 0, 74, 57
2, 1260, Note_on_c, 0, 79, 64
2, 1320, Note_off_c, 0, 79, 49
2, 1320, Note_on_c, 0, 72, 64
2, 1350, Note_off_c, 0, 72, 82
2, 1350, Note_on_c, 0, 70, 64
2, 1380, Note_off_c, 0, 70, 59
2, 1380, Note_on_c, 0, 69, 64
2, 1440, Note_off_c, 0, 69, 54
2, 1440, Note_on_c, 0, 70, 64
2, 1500, Note_off_c, 0, 70, 30
2, 1500, Note_on_c, 0, 79, 64
2, 1560, Note_off_c, 0, 79, 37
2, 1560, Note_on_c, 0, 72, 64
2, 1590, Note_off_c, 0, 72, 72
2, 1590, Note_on_c, 0, 70, 64
2, 1620, Note_off_c, 0, 70, 52
2, 1620, Note_on_c, 0, 69, 64
2, 1680, Note_off_c, 0, 69, 14
2, 1680, Note_on_c, 0, 70, 64
2, 1740, Note_off_c, 0, 70, 1
2, 1740, Note_on_c, 0, 79, 64
2, 1800, Note_off_c, 0, 79, 50
2, 1800, Note_on_c, 0, 69, 64
2, 1830, Note_off_c, 0, 69, 52
2, 1830, Note_on_c, 0, 67, 64
2, 1860, Note_off_c, 0, 67, 31
2, 1860, Note_on_c, 0, 66, 64
2, 1920, Note_off_c, 0, 66, 20
2, 1920, Note_on_c, 0, 69, 72
2, 1942, Note_off_c, 0, 69, 69
2, 1942, Note_on_c, 0, 67, 48
2, 1964, Note_off_c, 0, 67, 55
2, 1964, Note_on_c, 0, 69, 48
2, 1986, Note_off_c, 0, 69, 68
2, 1986, Note_on_c, 0, 67, 49
2, 2008, Note_off_c, 0, 67, 52
2, 2008, Note_on_c, 0, 69, 49
2, 2030, Note_off_c, 0, 69, 73
2, 2030, Note_on_c, 0, 67, 49
2, 2052, Note_off_c, 0, 67, 50
2, 2052, Note_on_c, 0, 69, 50
2, 2074, Note_off_c, 0, 69, 59
2, 2074, Note_on_c, 0, 67, 50
2, 2096, Note_off_c, 0, 67, 46
2, 2096, Note_on_c, 0, 69, 50
2, 2118, Note_off_c, 0, 69, 63
2, 2118, Note_on_c, 0, 67, 51
2, 2140, Note_off_c, 0, 67, 48
2, 2140, Note_on_c, 0, 69, 51
2, 2162, Note_off_c, 0, 69, 57
2, 2162, Note_on_c, 0, 67, 52
2, 2184, Note_off_c, 0, 67, 51
2, 2184, Note_on_c, 0, 69, 52
2, 2206, Note_off_c, 0, 69, 63
2, 2206, Note_on_c, 0, 67, 52
2, 2228, Note_off_c, 0, 67, 51
2, 2228, Note_on_c, 0, 69, 53
2, 2250, Note_off_c, 0, 69, 62
2, 2250, Note_on_c, 0, 67, 53
2, 2272, Note_off_c, 0, 67, 49
2, 2272, Note_on_c, 0, 69, 53
2, 2294, Note_off_c, 0, 69, 72
2, 2294, Note_on_c, 0, 67, 54
2, 2316, Note_off_c, 0, 67, 62
2, 2316, Note_on_c, 0, 69, 54
2, 2338, Note_off_c, 0, 69, 70
2, 2338, Note_on_c, 0, 67, 54
2, 2360, Note_off_c, 0, 67, 54
2, 2360, Note_on_c, 0, 69, 55
2, 2382, Note_off_c, 0, 69, 68
2, 2382, Note_on_c, 0, 67, 55
2, 2404, Note_off_c, 0, 67, 58
2, 2404, Note_on_c, 0, 69, 56
2, 2426, Note_off_c, 0, 69, 65
2, 2426, Note_on_c, 0, 67, 56
2, 2448, Note_off_c, 0, 67, 57
2, 2448, Note_on_c, 0, 69, 56
2, 2470, Note_off_c, 0, 69, 69
2, 2470, Note_on_c, 0, 67, 57
2, 2492, Note_off_c, 0, 67, 51
2, 2492, Note_on_c, 0, 69, 57
2, 2514, Note_off_c, 0, 69, 58
2, 2514, Note_on_c, 0, 67, 57
2, 2536, Note_off_c, 0, 67, 52
2, 2536, Note_on_c, 0, 69, 58
2, 2558, Note_off_c, 0, 69, 59
2, 2558, Note_on_c, 0, 67, 58
2, 2580, Note_off_c, 0, 67, 62
2, 2580, Note_on_c, 0, 69, 59
2, 2602, Note_off_c, 0, 69, 57
2, 2602, Note_on_c, 0, 67, 59
2, 2624, Note_off_c, 0, 67, 51
2, 2624, Note_on_c, 0, 69, 59
2, 2646, Note_off_c, 0, 69, 65
2, 2646, Note_on_c, 0, 67, 60
2, 2668, Note_off_c, 0, 67, 52
2, 2668, Note_on_c, 0, 69, 60
2, 2690, Note_off_c, 0, 69, 69
2, 2690, Note_on_c, 0, 67, 60
2, 2712, Note_off_c, 0, 67, 42
2, 2712, Note_on_c, 0, 69, 61
2, 2734, Note_off_c, 0, 69, 62
2, 2734, Note_on_c, 0, 67, 61
2, 2756, Note_off_c, 0, 67, 51
2, 2756, Note_on_c, 0, 69, 61
2, 2778, Note_off_c, 0, 69, 61
2, 2778, Note_on_c, 0, 67, 62
2, 2800, Note_off_c, 0, 67, 50
2, 2800, Note_on_c, 0, 69, 62
2, 2822, Note_off_c, 0, 69, 59
2, 2822, Note_on_c, 0, 67, 63
2, 2844, Note_off_c, 0, 67, 45
2, 2844, Note_on_c, 0, 69, 63
2, 2866, Note_off_c, 0, 69, 65
2, 2866, Note_on_c, 0, 67, 63
2, 2940, Note_off_c, 0, 67, 52
2, 2940, Note_on_c, 0, 76, 64
2, 3000, Note_off_c, 0, 76, 50
2, 3000, Note_on_c, 0, 70, 64
2, 3030, Note_off_c, 0, 70, 58
2, 3030, Note_on_c, 0, 69, 64
2, 3060, Note_off_c, 0, 69, 66
2, 3060, Note_on_c, 0, 67, 64
2, 3120, Note_off_c, 0, 67, 46
2, 3120, Note_on_c, 0, 69, 64
2, 3180, Note_off_c, 0, 69, 23
2, 3180, Note_on_c, 0, 76, 64
2, 3240, Note_off_c, 0, 76, 29
2, 3240, Note_on_c, 0, 67, 64
2, 3270, Note_off_c, 0, 67, 35
2, 3270, Note_on_c, 0, 66, 64
2, 3300, Note_off_c, 0, 66, 1
2, 3300, Note_on_c, 0, 64, 64
2, 3360, Note_off_c, 0, 64, 38
2, 3360, Note_on_c, 0, 66, 64
2, 3540, Note_off_c, 0, 66, 53
2, 3540, Note_on_c, 0, 67, 64
2, 3600, Note_off_c, 0, 67, 50
2, 3600, Note_on_c, 0, 66, 64
2, 3660, Note_off_c, 0, 66, 41
2, 3660, Note_on_c, 0, 69, 64
2, 3720, Note_off_c, 0, 69, 72
2, 3720, Note_on_c, 0, 74, 64
2, 3750, Note_off_c, 0, 74, 43
2, 3750, Note_on_c, 0, 72, 64
2, 3780, Note_off_c, 0, 72, 63
2, 3780, Note_on_c, 0, 70, 64
2, 3840, Note_off_c, 0, 70, 66
2, 3840, Note_on_c, 0, 72, 64
2, 3900, Note_off_c, 0, 72, 63
2, 3900, Note_on_c, 0, 75, 64
2, 3960, Note_off_c, 0, 75, 49
2, 3960, Note_on_c, 0, 74, 64
2, 3990, Note_off_c, 0, 74, 66
2, 3990, Note_on_c, 0, 72, 64
2, 4020, Note_off_c, 0, 72, 82
2, 4020, Note_on_c, 0, 70, 64
2, 4080, Note_off_c, 0, 70, 63
2, 4080, Note_on_c, 0, 72, 64
2, 4140, Note_off_c, 0, 72, 45
2, 4140, Note_on_c, 0, 81, 64
2, 4200, Note_off_c, 0, 81, 49
2, 4200, Note_on_c, 0, 72, 64
2, 4230, Note_off_c, 0, 72, 54
2, 4230, Note_on_c, 0, 70, 64
2, 4260, Note_off_c, 0, 70, 51
2, 4260, Note_on_c, 0, 69, 64
2, 4320, Note_off_c, 0, 69, 51
2, 4320, Note_on_c, 0, 70, 64
2, 4380, Note_off_c, 0, 70, 47
2, 4380, Note_on_c, 0, 74, 64
2, 4440, Note_off_c, 0, 74, 73
2, 4440, Note_on_c, 0, 72, 64
2, 4470, Note_off_c, 0, 72, 65
2, 4470, Note_on_c, 0, 70, 64
2, 4500, Note_off_c, 0, 70, 76
2, 4500, Note_on_c, 0, 69, 64
2, 4560, Note_off_c, 0, 69, 54
2, 4560, Note_on_c, 0, 70, 64
2, 4620, Note_off_c, 0, 70, 48
2, 4620, Note_on_c, 0, 79, 64
2, 4680, Note_off_c, 0, 79, 51
2, 4680, Note_on_c, 0, 70, 64
2, 4710, Note_off_c, 0, 70, 59
2, 4710, Note_on_c, 0, 69, 64
2, 4740, Note_off_c, 0, 69, 55
2, 4740, Note_on_c, 0, 67, 64
2, 4800, Note_off_c, 0, 67, 34
2, 4800, Note_on_c, 0, 69, 64
2, 4860, Note_off_c, 0, 69, 65
2, 4860, Note_on_c, 0, 65, 64
2, 4920, Note_off_c, 0, 65, 1
2, 4920, Note_on_c, 0, 70, 64
2, 4950, Note_off_c, 0, 70, 51
2, 4950, Note_on_c, 0, 72, 64
2, 4980, Note_off_c, 0, 72, 74
2, 4980, Note_on_c, 0, 74, 64
2, 5040, Note_off_c, 0, 74, 61
2, 5040, Note_on_c, 0, 72, 64
2, 5100, Note_off_c, 0, 72, 77
2, 5100, Note_on_c, 0, 65, 64
2, 5160, Note_off_c, 0, 65, 1
2, 5160, Note_on_c, 0, 74, 64
2, 5190, Note_off_c, 0, 74, 61
2, 5190, Note_on_c, 0, 75, 64
2, 5220, Note_off_c, 0, 75, 55
2, 5220, Note_on_c, 0, 77, 64
2, 5280, Note_off_c, 0, 77, 70
2, 5280, Note_on_c, 0, 75, 64
2, 5340, Note_off_c, 0, 75, 62
2, 5340, Note_on_c, 0, 72, 64
2, 5400, Note_off_c, 0, 72, 63
2, 5400, Note_on_c, 0, 79, 64
2, 5430, Note_off_c, 0, 79, 70
2, 5430, Note_on_c, 0, 81, 64
2, 5460, Note_off_c, 0, 81, 62
2, 5460, Note_on_c, 0, 82, 64
2, 5520, Note_off_c, 0, 82, 57
2, 5520, Note_on_c, 0, 81, 64
2, 5550, Note_off_c, 0, 81, 53
2, 5550, Note_on_c, 0, 82, 64
2, 5580, Note_off_c, 0, 82, 63
2, 5580, Note_on_c, 0, 84, 64
2, 5640, Note_off_c, 0, 84, 62
2, 5640, Note_on_c, 0, 77, 64
2, 5670, Note_off_c, 0, 77, 51
2, 5670, Note_on_c, 0, 79, 64
2, 5700, Note_off_c, 0, 79, 54
2, 5700, Note_on_c, 0, 75, 64
2, 5760, Note_off_c, 0, 75, 49
2, 5760, Note_on_c, 0, 74, 64
2, 5820, Note_on_c, 0, 82, 64
2, 5880, Note_off_c, 0, 82, 61
2, 5880, Note_off_c, 0, 74, 74
2, 5880, Note_on_c, 0, 75, 64
2, 5880, Note_on_c, 0, 79, 64
2, 5940, Note_off_c, 0, 79, 66
2, 5940, Note_on_c, 0, 82, 64
2, 6000, Note_off_c, 0, 82, 69
2, 6000, Note_off_c, 0, 75, 59
2, 6000, Note_on_c, 0, 74, 64
2, 6000, Note_on_c, 0, 77, 64
2, 6060, Note_off_c, 0, 77, 66
2, 6060, Note_on_c, 0, 82, 64
2, 6120, Note_off_c, 0, 82, 63
2, 6120, Note_off_c, 0, 74, 68
2, 6120, Note_on_c, 0, 72, 64
2, 6120, Note_on_c, 0, 75, 64
2, 6180, Note_off_c, 0, 75, 40
2, 6180, Note_on_c, 0, 82, 64
2, 6240, Note_off_c, 0, 82, 62
2, 6240, Note_off_c, 0, 72, 80
2, 6240, Note_on_c, 0, 74, 64
2, 6240, Note_on_c, 0, 77, 64
2, 6300, Note_off_c, 0, 77, 42
2, 6300, Note_on_c, 0, 82, 64
2, 6360, Note_off_c, 0, 82, 58
2, 6360, Note_off_c, 0, 74, 76
2, 6360, Note_on_c, 0, 75, 64
2, 6360, Note_on_c, 0, 79, 64
2, 6420, Note_off_c, 0, 79, 37
2, 6420, Note_on_c, 0, 82, 64
2, 6480, Note_off_c, 0, 82, 61
2, 6480, Note_off_c, 0, 75, 68
2, 6480, Note_on_c, 0, 74, 64
2, 6480, Note_on_c, 0, 77, 64
2, 6540, Note_off_c, 0, 77, 49
2, 6540, Note_on_c, 0, 82, 64
2, 6600, Note_off_c, 0, 82, 52
2, 6600, Note_off_c, 0, 74, 70
2, 6600, Note_on_c, 0, 72, 64
2, 6600, Note_on_c, 0, 75, 64
2, 6660, Note_off_c, 0, 75, 37
2, 6660, Note_on_c, 0, 81, 64
2, 6720, Note_off_c, 0, 81, 57
2, 6720, Note_off_c, 0, 72, 85
2, 6720, Note_on_c, 0, 74, 64
2, 6720, Note_on_c, 0, 82, 64
2, 6840, Note_off_c, 0, 74, 68
2, 6840, Note_on_c, 0, 75, 64
2, 6960, Note_off_c, 0, 75, 52
2, 6960, Note_on_c, 0, 77, 64
2, 7080, Note_off_c, 0, 77, 77
2, 7080, Note_on_c, 0, 79, 64
2, 7200, Note_off_c, 0, 79, 44
2, 7200, Note_on_c, 0, 74, 64
2, 7320, Note_off_c, 0, 74, 65
2, 7320, Note_on_c, 0, 75, 64
2, 7440, Note_off_c, 0, 82, 55
2, 7440, Note_on_c, 0, 77, 64
2, 7500, Note_off_c, 0, 75, 48
2, 7500, Note_on_c, 0, 74, 64
2, 7560, Note_off_c, 0, 74, 72
2, 7560, Note_on_c, 0, 71, 64
2, 7620, Note_off_c, 0, 71, 59
2, 7620, Note_on_c, 0, 74, 64
2, 7680, Note_off_c, 0, 74, 73
2, 7680, Note_off_c, 0, 77, 63
2, 7680, Note_on_c, 0, 67, 64
2, 7740, Note_on_c, 0, 79, 64
2, 7770, Note_off_c, 0, 79, 55
2, 7770, Note_on_c, 0, 77, 64
2, 7800, Note_off_c, 0, 77, 62
2, 7800, Note_on_c, 0, 75, 64
2, 7830, Note_off_c, 0, 75, 48
2, 7830, Note_on_c, 0, 77, 64
2, 7860, Note_off_c, 0, 77, 52
2, 7860, Note_on_c, 0, 74, 64
2, 7920, Note_off_c, 0, 74, 58
2, 7920, Note_on_c, 0, 75, 64
2, 7980, Note_off_c, 0, 67, 45
2, 7980, Note_on_c, 0, 72, 64
2, 8010, Note_off_c, 0, 72, 66
2, 8010, Note_on_c, 0, 70, 64
2, 8040, Note_off_c, 0, 70, 63
2, 8040, Note_on_c, 0, 68, 64
2, 8070, Note_off_c, 0, 68, 66
2, 8070, Note_on_c, 0, 70, 64
2, 8100, Note_off_c, 0, 70, 50
2, 8100, Note_on_c, 0, 72, 64
2, 8160, Note_off_c, 0, 72, 72
2, 8160, Note_off_c, 0, 75, 52
2, 8160, Note_on_c, 0, 65, 64
2, 8220, Note_on_c, 0, 77, 64
2, 8250, Note_off_c, 0, 77, 68
2, 8250, Note_on_c, 0, 75, 64
2, 8280, Note_off_c, 0, 75, 52
2, 8280, Note_on_c, 0, 74, 64
2, 8310, Note_off_c, 0, 74, 69
2, 8310, Note_on_c, 0, 75, 64
2, 8340, Note_off_c, 0, 75, 48
2, 8340, Note_on_c, 0, 72, 64
2, 8400, Note_off_c, 0, 72, 62
2, 8400, Note_on_c, 0, 74, 64
2, 8460, Note_off_c, 0, 65, 1
2, 8460, Note_on_c, 0, 70, 64
2, 8490, Note_off_c, 0, 70, 63
2, 8490, Note_on_c, 0, 68, 64
2, 8520, Note_off_c, 0, 68, 65
2, 8520, Note_on_c, 0, 67, 64
2, 8550, Note_off_c, 0, 67, 40
2, 8550, Note_on_c, 0, 68, 64
2, 8580, Note_off_c, 0, 68, 74
2, 8580, Note_on_c, 0, 70, 64
2, 8640, Note_off_c, 0, 70, 53
2, 8640, Note_off_c, 0, 74, 63
2, 8640, Note_on_c, 0, 63, 64
2, 8700, Note_on_c, 0, 75, 64
2, 8730, Note_off_c, 0, 75, 52
2, 8730, Note_on_c, 0, 74, 64
2, 8760, Note_off_c, 0, 74, 66
2, 8760, Note_on_c, 0, 72, 64
2, 8790, Note_off_c, 0, 72, 65
2, 8790, Note_on_c, 0, 74, 64
2, 8820, Note_off_c, 0, 74, 52
2, 8820, Note_on_c, 0, 71, 64
2, 8880, Note_off_c, 0, 71, 68
2, 8880, Note_on_c, 0, 72, 64
2, 8940, Note_off_c, 0, 63, 49
2, 8940, Note_on_c, 0, 68, 64
2, 8970, Note_off_c, 0, 68, 70
2, 8970, Note_on_c, 0, 67, 64
2, 9000, Note_off_c, 0, 67, 50
2, 9000, Note_on_c, 0, 65, 64
2, 9030, Note_off_c, 0, 65, 1
2, 9030, Note_on_c, 0, 67, 64
2, 9060, Note_off_c, 0, 67, 50
2, 9060, Note_on_c, 0, 68, 64
2, 9120, Note_off_c, 0, 68, 73
2, 9120, Note_off_c, 0, 72, 73
2, 9120, Note_on_c, 0, 62, 64
2, 9180, Note_on_c, 0, 74, 64
2, 9210, Note_off_c, 0, 74, 52
2, 9210, Note_on_c, 0, 72, 64
2, 9240, Note_off_c, 0, 72, 72
2, 9240, Note_on_c, 0, 71, 64
2, 9270, Note_off_c, 0, 71, 59
2, 9270, Note_on_c, 0, 72, 64
2, 9300, Note_off_c, 0, 72, 74
2, 9300, Note_on_c, 0, 69, 64
2, 9360, Note_off_c, 0, 69, 44
2, 9360, Note_on_c, 0, 70, 64
2, 9420, Note_off_c, 0, 62, 30
2, 9420, Note_on_c, 0, 63, 64
2, 9450, Note_off_c, 0, 63, 49
2, 9450, Note_on_c, 0, 65, 64
2, 9480, Note_off_c, 0, 65, 69
2, 9480, Note_on_c, 0, 63, 64
2, 9510, Note_off_c, 0, 63, 57
2, 9510, Note_on_c, 0, 65, 64
2, 9540, Note_off_c, 0, 65, 73
2, 9540, Note_on_c, 0, 62, 64
2, 9600, Note_off_c, 0, 62, 40
2, 9600, Note_off_c, 0, 70, 66
2, 9600, Note_on_c, 0, 63, 64
2, 9660, Note_on_c, 0, 72, 64
2, 9720, Note_off_c, 0, 72, 77
2, 9720, Note_off_c, 0, 63, 51
2, 9720, Note_on_c, 0, 65, 64
2, 9720, Note_on_c, 0, 68, 64
2, 9780, Note_off_c, 0, 68, 69
2, 9780, Note_on_c, 0, 72, 64
2, 9840, Note_off_c, 0, 72, 73
2, 9840, Note_off_c, 0, 65, 59
2, 9840, Note_on_c, 0, 63, 64
2, 9840, Note_on_c, 0, 67, 64
2, 9900, Note_off_c, 0, 67, 46
2, 9900, Note_on_c, 0, 72, 64
2, 9960, Note_off_c, 0, 72, 63
2, 9960, Note_off_c, 0, 63, 54
2, 9960, Note_on_c, 0, 62, 64
2, 9960, Note_on_c, 0, 65, 64
2, 10020, Note_off_c, 0, 65, 1
2, 10020, Note_on_c, 0, 72, 64
2, 10080, Note_off_c, 0, 72, 65
2, 10080, Note_off_c, 0, 62, 53
2, 10080, Note_on_c, 0, 63, 64
2, 10080, Note_on_c, 0, 67, 64
2, 10140, Note_off_c, 0, 67, 43
2, 10140, Note_on_c, 0, 72, 64
2, 10200, Note_off_c, 0, 72, 73
2, 10200, Note_off_c, 0, 63, 55
2, 10200, Note_on_c, 0, 65, 64
2, 10200, Note_on_c, 0, 68, 64
2, 10260, Note_off_c, 0, 68, 70
2, 10260, Note_on_c, 0, 72, 64
2, 10320, Note_off_c, 0, 72, 68
2, 10320, Note_off_c, 0, 65, 73
2, 10320, Note_on_c, 0, 63, 64
2, 10320, Note_on_c, 0, 67, 64
2, 10380, Note_off_c, 0, 67, 43
2, 10380, Note_on_c, 0, 72, 64
2, 10440, Note_off_c, 0, 72, 68
2, 10440, Note_off_c, 0, 63, 52
2, 10440, Note_on_c, 0, 62, 64
2, 10440, Note_on_c, 0, 65, 64
2, 10500, Note_off_c, 0, 65, 9
2, 10500, Note_on_c, 0, 71, 64
2, 10560, Note_off_c, 0, 71, 66
2, 10560, Note_off_c, 0, 62, 49
2, 10560, Note_on_c, 0, 63, 64
2, 10560, Note_on_c, 0, 72, 64
2, 10680, Note_off_c, 0, 63, 54
2, 10680, Note_on_c, 0, 67, 64
2, 10800, Note_off_c, 0, 72, 79
2, 10800, Note_on_c, 0, 75, 64
2, 10920, Note_off_c, 0, 67, 58
2, 10920, Note_on_c, 0, 72, 64
2, 11040, Note_off_c, 0, 75, 53
2, 11100, Note_on_c, 0, 81, 64
2, 11130, Note_off_c, 0, 81, 48
2, 11130, Note_on_c, 0, 79, 64
2, 11160, Note_off_c, 0, 79, 42
2, 11160, Note_on_c, 0, 78, 64
2, 11190, Note_off_c, 0, 78, 61
2, 11190, Note_on_c, 0, 79, 64
2, 11220, Note_off_c, 0, 79, 61
2, 11220, Note_on_c, 0, 81, 64
2, 11280, Note_off_c, 0, 81, 58
2, 11280, Note_on_c, 0, 74, 64
2, 11340, Note_off_c, 0, 74, 55
2, 11340, Note_on_c, 0, 75, 64
2, 11360, Note_off_c, 0, 72, 82
2, 11373, Note_on_c, 0, 72, 64
2, 11403, Note_off_c, 0, 72, 64
2, 11403, Note_on_c, 0, 69, 64
2, 11433, Note_off_c, 0, 69, 73
2, 11433, Note_on_c, 0, 70, 64
2, 11463, Note_off_c, 0, 70, 55
2, 11463, Note_on_c, 0, 72, 64
2, 11523, Note_off_c, 0, 72, 83
2, 11523, Note_off_c, 0, 75, 52
2, 11523, Note_on_c, 0, 70, 64
2, 11523, Note_on_c, 0, 74, 64
2, 11643, Note_off_c, 0, 74, 52
2, 11643, Note_off_c, 0, 70, 50
2, 11643, Note_on_c, 0, 66, 64
2, 11643, Note_on_c, 0, 72, 64
2, 11763, Note_off_c, 0, 72, 61
2, 11763, Note_off_c, 0, 66, 14
2, 11763, Note_on_c, 0, 67, 64
2, 11763, Note_on_c, 0, 70, 64
2, 11883, Note_off_c, 0, 67, 50
2, 11883, Note_on_c, 0, 62, 64
2, 12003, Note_off_c, 0, 62, 21
2, 12003, Note_off_c, 0, 70, 55
2, 12003, Note_on_c, 0, 63, 64
2, 12063, Note_on_c, 0, 75, 64
2, 12093, Note_off_c, 0, 75, 34
2, 12093, Note_on_c, 0, 74, 64
2, 12123, Note_off_c, 0, 74, 59
2, 12123, Note_on_c, 0, 72, 64
2, 12153, Note_off_c, 0, 72, 53
2, 12153, Note_on_c, 0, 74, 64
2, 12183, Note_off_c, 0, 74, 31
2, 12183, Note_on_c, 0, 75, 64
2, 12243, Note_off_c, 0, 75, 28
2, 12243, Note_on_c, 0, 68, 64
2, 12303, Note_off_c, 0, 68, 52
2, 12303, Note_on_c, 0, 72, 64
2, 12333, Note_off_c, 0, 72, 70
2, 12333, Note_on_c, 0, 70, 64
2, 12363, Note_off_c, 0, 70, 49
2, 12363, Note_on_c, 0, 68, 64
2, 12393, Note_off_c, 0, 68, 54
2, 12393, Note_on_c, 0, 70, 64
2, 12423, Note_off_c, 0, 70, 52
2, 12423, Note_on_c, 0, 72, 64
2, 12483, Note_off_c, 0, 72, 61
2, 12483, Note_on_c, 0, 66, 64
2, 12723, Note_off_c, 0, 66, 12
2, 12723, Note_off_c, 0, 63, 50
2, 12723, Note_on_c, 0, 62, 64
2, 12783, Note_on_c, 0, 67, 64
2, 12813, Note_off_c, 0, 67, 40
2, 12813, Note_on_c, 0, 69, 64
2, 12843, Note_off_c, 0, 69, 52
2, 12843, Note_on_c, 0, 70, 64
2, 12873, Note_off_c, 0, 70, 49
2, 12873, Note_on_c, 0, 69, 64
2, 12903, Note_off_c, 0, 69, 65
2, 12903, Note_on_c, 0, 67, 64
2, 12963, Note_off_c, 0, 67, 49
2, 12963, Note_off_c, 0, 62, 45
2, 12963, Note_on_c, 0, 72, 64
2, 13023, Note_on_c, 0, 66, 64
2, 13053, Note_off_c, 0, 66, 52
2, 13053, Note_on_c, 0, 67, 64
2, 13083, Note_off_c, 0, 67, 47
2, 13083, Note_on_c, 0, 69, 64
2, 13113, Note_off_c, 0, 69, 63
2, 13113, Note_on_c, 0, 67, 64
2, 13143, Note_off_c, 0, 67, 48
2, 13143, Note_on_c, 0, 66, 64
2, 13203, Note_off_c, 0, 66, 50
2, 13203, Note_off_c, 0, 72, 77
2, 13203, Note_on_c, 0, 70, 64
2, 13263, Note_on_c, 0, 64, 64
2, 13293, Note_off_c, 0, 64, 23
2, 13293, Note_on_c, 0, 66, 64
2, 13323, Note_off_c, 0, 66, 49
2, 13323, Note_on_c, 0, 67, 64
2, 13353, Note_off_c, 0, 67, 42
2, 13353, Note_on_c, 0, 66, 64
2, 13383, Note_off_c, 0, 66, 51
2, 13383, Note_on_c, 0, 64, 64
2, 13443, Note_off_c, 0, 64, 20
2, 13443, Note_off_c, 0, 70, 62
2, 13443, Note_on_c, 0, 69, 64
2, 13503, Note_on_c, 0, 62, 64
2, 13533, Note_off_c, 0, 62, 27
2, 13533, Note_on_c, 0, 64, 64
2, 13563, Note_off_c, 0, 64, 46
2, 13563, Note_on_c, 0, 66, 64
2, 13593, Note_off_c, 0, 66, 52
2, 13593, Note_on_c, 0, 64, 64
2, 13623, Note_off_c, 0, 64, 48
2, 13623, Note_on_c, 0, 62, 64
2, 13683, Note_off_c, 0, 62, 37
2, 13683, Note_off_c, 0, 69, 70
2, 13683, Note_on_c, 0, 67, 64
2, 13743, Note_on_c, 0, 61, 64
2, 13773, Note_off_c, 0, 61, 62
2, 13773, Note_on_c, 0, 62, 64
2, 13803, Note_off_c, 0, 62, 55
2, 13803, Note_on_c, 0, 64, 64
2, 13833, Note_off_c, 0, 64, 43
2, 13833, Note_on_c, 0, 62, 64
2, 13863, Note_off_c, 0, 62, 57
2, 13863, Note_on_c, 0, 61, 64
2, 13923, Note_off_c, 0, 61, 61
2, 13923, Note_off_c, 0, 67, 42
2, 13923, Note_on_c, 0, 62, 64
2, 13923, Note_on_c, 0, 66, 64
2, 14163, Note_off_c, 0, 66, 43
2, 14163, Note_off_c, 0, 62, 49
2, 14223, Note_on_c, 0, 79, 64
2, 14283, Note_off_c, 0, 79, 39
2, 14283, Note_on_c, 0, 77, 64
2, 14313, Note_off_c, 0, 77, 61
2, 14313, Note_on_c, 0, 75, 64
2, 14343, Note_off_c, 0, 75, 49
2, 14343, Note_on_c, 0, 74, 64
2, 14403, Note_off_c, 0, 74, 61
2, 14403, Note_on_c, 0, 75, 64
2, 14463, Note_off_c, 0, 75, 38
2, 14463, Note_on_c, 0, 84, 64
2, 14523, Note_off_c, 0, 84, 35
2, 14523, Note_on_c, 0, 74, 64
2, 14553, Note_off_c, 0, 74, 54
2, 14553, Note_on_c, 0, 72, 64
2, 14583, Note_off_c, 0, 72, 63
2, 14583, Note_on_c, 0, 70, 64
2, 14643, Note_off_c, 0, 70, 58
2, 14643, Note_on_c, 0, 72, 64
2, 14703, Note_off_c, 0, 72, 68
2, 14703, Note_on_c, 0, 81, 64
2, 14763, Note_off_c, 0, 81, 55
2, 14763, Note_on_c, 0, 70, 64
2, 14793, Note_off_c, 0, 70, 63
2, 14793, Note_on_c, 0, 69, 64
2, 14823, Note_off_c, 0, 69, 63
2, 14823, Note_on_c, 0, 67, 64
2, 14883, Note_off_c, 0, 67, 34
2, 14883, Note_on_c, 0, 69, 64
2, 14943, Note_off_c, 0, 69, 53
2, 14943, Note_on_c, 0, 75, 64
2, 14973, Note_off_c, 0, 75, 65
2, 14973, Note_on_c, 0, 74, 64
2, 15003, Note_off_c, 0, 74, 69
2, 15003, Note_on_c, 0, 72, 64
2, 15033, Note_off_c, 0, 72, 63
2, 15033, Note_on_c, 0, 70, 64
2, 15063, Note_off_c, 0, 70, 63
2, 15063, Note_on_c, 0, 69, 64
2, 15123, Note_off_c, 0, 69, 54
2, 15123, Note_on_c, 0, 70, 64
2, 15183, Note_on_c, 0, 69, 64
2, 15213, Note_off_c, 0, 69, 76
2, 15213, Note_on_c, 0, 67, 64
2, 15243, Note_off_c, 0, 67, 55
2, 15243, Note_on_c, 0, 65, 64
2, 15273, Note_off_c, 0, 65, 54
2, 15273, Note_on_c, 0, 63, 64
2, 15303, Note_off_c, 0, 63, 48
2, 15303, Note_on_c, 0, 62, 64
2, 15363, Note_off_c, 0, 62, 48
2, 15363, Note_off_c, 0, 70, 68
2, 15363, Note_on_c, 0, 63, 64
2, 15423, Note_on_c, 0, 72, 64
2, 15453, Note_off_c, 0, 72, 72
2, 15453, Note_on_c, 0, 70, 64
2, 15483, Note_off_c, 0, 70, 62
2, 15483, Note_on_c, 0, 68, 64
2, 15513, Note_off_c, 0, 68, 65
2, 15513, Note_on_c, 0, 70, 64
2, 15543, Note_off_c, 0, 70, 62
2, 15543, Note_on_c, 0, 66, 64
2, 15603, Note_off_c, 0, 66, 48
2, 15603, Note_off_c, 0, 63, 57
2, 15603, Note_on_c, 0, 64, 64
2, 15603, Note_on_c, 0, 67, 64
2, 15843, Note_off_c, 0, 64, 55
2, 15903, Note_on_c, 0, 57, 64
2, 15933, Note_off_c, 0, 57, 37
2, 15933, Note_on_c, 0, 58, 64
2, 15963, Note_off_c, 0, 58, 62
2, 15963, Note_on_c, 0, 60, 64
2, 15993, Note_off_c, 0, 60, 53
2, 15993, Note_on_c, 0, 58, 64
2, 16023, Note_off_c, 0, 58, 62
2, 16023, Note_on_c, 0, 57, 64
2, 16083, Note_off_c, 0, 57, 46
2, 16083, Note_off_c, 0, 67, 53
2, 16083, Note_on_c, 0, 66, 64
2, 16143, Note_on_c, 0, 60, 64
2, 16173, Note_off_c, 0, 60, 42
2, 16173, Note_on_c, 0, 62, 64
2, 16203, Note_off_c, 0, 62, 51
2, 16203, Note_on_c, 0, 63, 64
2, 16233, Note_off_c, 0, 63, 34
2, 16233, Note_on_c, 0, 62, 64
2, 16263, Note_off_c, 0, 62, 54
2, 16263, Note_on_c, 0, 60, 64
2, 16323, Note_off_c, 0, 60, 39
2, 16323, Note_off_c, 0, 66, 53
2, 16323, Note_on_c, 0, 58, 64
2, 16383, Note_on_c, 0, 62, 64
2, 16413, Note_off_c, 0, 62, 42
2, 16413, Note_on_c, 0, 67, 64
2, 16443, Note_off_c, 0, 67, 51
2, 16443, Note_off_c, 0, 58, 58
2, 16443, Note_on_c, 0, 59, 64
2, 16443, Note_on_c, 0, 65, 64
2, 16473, Note_off_c, 0, 65, 1
2, 16473, Note_on_c, 0, 63, 64
2, 16503, Note_off_c, 0, 63, 43
2, 16503, Note_on_c, 0, 62, 64
2, 16563, Note_off_c, 0, 62, 46
2, 16563, Note_off_c, 0, 59, 54
2, 16563, Note_on_c, 0, 60, 64
2, 16563, Note_on_c, 0, 63, 64
2, 16683, Note_off_c, 0, 63, 47
2, 16683, Note_off_c, 0, 60, 62
2, 16683, Note_on_c, 0, 59, 64
2, 16683, Note_on_c, 0, 62, 64
2, 16803, Note_off_c, 0, 62, 38
2, 16803, Note_off_c, 0, 59, 30
2, 16803, Note_on_c, 0, 60, 64
2, 16863, Note_on_c, 0, 67, 64
2, 16893, Note_off_c, 0, 67, 38
2, 16893, Note_on_c, 0, 72, 64
2, 16923, Note_off_c, 0, 72, 69
2, 16923, Note_on_c, 0, 70, 64
2, 16953, Note_off_c, 0, 70, 53
2, 16953, Note_on_c, 0, 69, 64
2, 16983, Note_off_c, 0, 69, 57
2, 16983, Note_on_c, 0, 67, 64
2, 17043, Note_off_c, 0, 67, 41
2, 17043, Note_on_c, 0, 69, 64
2, 17103, Note_off_c, 0, 69, 57
2, 17103, Note_on_c, 0, 72, 64
2, 17133, Note_off_c, 0, 72, 74
2, 17133, Note_on_c, 0, 69, 64
2, 17163, Note_off_c, 0, 69, 54
2, 17163, Note_on_c, 0, 67, 64
2, 17193, Note_off_c, 0, 67, 61
2, 17193, Note_on_c, 0, 66, 64
2, 17223, Note_off_c, 0, 66, 13
2, 17223, Note_on_c, 0, 64, 64
2, 17283, Note_off_c, 0, 64, 37
2, 17283, Note_on_c, 0, 66, 64
2, 17583, Note_off_c, 0, 60, 59
2, 17583, Note_on_c, 0, 62, 64
2, 17613, Note_off_c, 0, 62, 49
2, 17613, Note_on_c, 0, 63, 64
2, 17643, Note_off_c, 0, 63, 48
2, 17643, Note_on_c, 0, 62, 64
2, 17673, Note_off_c, 0, 62, 43
2, 17673, Note_on_c, 0, 63, 64
2, 17703, Note_off_c, 0, 63, 43
2, 17703, Note_on_c, 0, 60, 64
2, 17763, Note_off_c, 0, 66, 4
2, 17763, Note_on_c, 0, 67, 64
2, 17823, Note_off_c, 0, 60, 61
2, 17823, Note_on_c, 0, 60, 64
2, 17853, Note_off_c, 0, 60, 47
2, 17853, Note_on_c, 0, 59, 64
2, 17883, Note_off_c, 0, 59, 53
2, 17883, Note_on_c, 0, 57, 64
2, 17913, Note_off_c, 0, 57, 43
2, 17913, Note_on_c, 0, 59, 64
2, 17943, Note_off_c, 0, 59, 45
2, 17943, Note_on_c, 0, 60, 64
2, 17993, Note_off_c, 0, 60, 55
2, 18006, Note_on_c, 0, 60, 73
2, 18028, Note_off_c, 0, 60, 63
2, 18028, Note_on_c, 0, 59, 48
2, 18050, Note_off_c, 0, 59, 46
2, 18050, Note_on_c, 0, 60, 49
2, 18072, Note_off_c, 0, 60, 61
2, 18072, Note_on_c, 0, 59, 51
2, 18094, Note_off_c, 0, 59, 53
2, 18094, Note_on_c, 0, 60, 53
2, 18116, Note_off_c, 0, 60, 61
2, 18116, Note_on_c, 0, 59, 54
2, 18138, Note_off_c, 0, 59, 52
2, 18138, Note_on_c, 0, 60, 56
2, 18160, Note_off_c, 0, 60, 57
2, 18160, Note_on_c, 0, 59, 58
2, 18182, Note_off_c, 0, 59, 51
2, 18182, Note_on_c, 0, 60, 60
2, 18204, Note_off_c, 0, 60, 61
2, 18204, Note_on_c, 0, 59, 61
2, 18226, Note_off_c, 0, 59, 49
2, 18226, Note_on_c, 0, 60, 63
2, 18248, Note_off_c, 0, 60, 57
2, 18248, Note_on_c, 0, 59, 64
2, 18726, Note_off_c, 0, 59, 55
2, 18726, Note_off_c, 0, 67, 61
2, 18726, End_track
3, 0, Start_track
3, 0, Text_t, "LH L"
3, 0, Note_on_c, 1, 58, 64
3, 0, Note_on_c, 1, 55, 64
3, 60, Note_off_c, 1, 58, 68
3, 60, Note_on_c, 1, 62, 64
3, 120, Note_off_c, 1, 62, 49
3, 120, Note_off_c, 1, 55, 63
3, 120, Note_on_c, 1, 60, 64
3, 120, Note_on_c, 1, 55, 64
3, 180, Note_off_c, 1, 60, 37
3, 180, Note_on_c, 1, 63, 64
3, 240, Note_off_c, 1, 63, 42
3, 240, Note_off_c, 1, 55, 70
3, 240, Note_on_c, 1, 58, 64
3, 240, Note_on_c, 1, 55, 64
3, 300, Note_off_c, 1, 58, 54
3, 300, Note_on_c, 1, 62, 64
3, 360, Note_off_c, 1, 62, 58
3, 360, Note_off_c, 1, 55, 70
3, 360, Note_on_c, 1, 57, 64
3, 360, Note_on_c, 1, 55, 64
3, 420, Note_off_c, 1, 57, 44
3, 420, Note_on_c, 1, 60, 64
3, 480, Note_off_c, 1, 60, 62
3, 480, Note_off_c, 1, 55, 72
3, 480, Note_on_c, 1, 58, 64
3, 480, Note_on_c, 1, 55, 64
3, 540, Note_off_c, 1, 58, 62
3, 540, Note_on_c, 1, 62, 64
3, 600, Note_off_c, 1, 62, 58
3, 600, Note_off_c, 1, 55, 70
3, 600, Note_on_c, 1, 60, 64
3, 600, Note_on_c, 1, 55, 64
3, 660, Note_off_c, 1, 60, 44
3, 660, Note_on_c, 1, 63, 64
3, 720, Note_off_c, 1, 63, 57
3, 720, Note_off_c, 1, 55, 65
3, 720, Note_on_c, 1, 58, 64
3, 720, Note_on_c, 1, 55, 64
3, 780, Note_off_c, 1, 58, 58
3, 780, Note_on_c, 1, 62, 64
3, 840, Note_off_c, 1, 62, 58
3, 840, Note_off_c, 1, 55, 68
3, 840, Note_on_c, 1, 57, 64
3, 840, Note_on_c, 1, 55, 64
3, 900, Note_off_c, 1, 57, 25
3, 900, Note_on_c, 1, 60, 64
3, 960, Note_off_c, 1, 60, 58
3, 960, Note_off_c, 1, 55, 59
3, 960, Note_on_c, 1, 58, 64
3, 960, Note_on_c, 1, 55, 64
3, 1080, Note_off_c, 1, 58, 57
3, 1080, Note_on_c, 1, 60, 64
3, 1200, Note_off_c, 1, 60, 68
3, 1200, Note_on_c, 1, 58, 64
3, 1320, Note_off_c, 1, 58, 65
3, 1320, Note_on_c, 1, 63, 64
3, 1440, Note_off_c, 1, 63, 42
3, 1440, Note_on_c, 1, 62, 64
3, 1560, Note_off_c, 1, 62, 43
3, 1560, Note_on_c, 1, 63, 64
3, 1680, Note_off_c, 1, 63, 47
3, 1680, Note_on_c, 1, 62, 64
3, 1800, Note_off_c, 1, 62, 42
3, 1800, Note_on_c, 1, 60, 64
3, 1920, Note_off_c, 1, 60, 62
3, 1920, Note_on_c, 1, 58, 64
3, 1980, Note_off_c, 1, 58, 53
3, 1980, Note_on_c, 1, 60, 64
3, 2040, Note_off_c, 1, 60, 50
3, 2040, Note_on_c, 1, 62, 64
3, 2100, Note_off_c, 1, 55, 63
3, 2100, Note_on_c, 1, 53, 64
3, 2160, Note_off_c, 1, 53, 46
3, 2160, Note_on_c, 1, 51, 64
3, 2220, Note_off_c, 1, 62, 47
3, 2220, Note_on_c, 1, 60, 64
3, 2280, Note_off_c, 1, 51, 49
3, 2280, Note_on_c, 1, 50, 64
3, 2340, Note_off_c, 1, 60, 52
3, 2340, Note_on_c, 1, 58, 64
3, 2400, Note_off_c, 1, 50, 53
3, 2400, Note_on_c, 1, 48, 64
3, 2460, Note_off_c, 1, 58, 61
3, 2460, Note_on_c, 1, 57, 64
3, 2520, Note_off_c, 1, 48, 37
3, 2520, Note_on_c, 1, 50, 64
3, 2580, Note_off_c, 1, 57, 54
3, 2580, Note_on_c, 1, 58, 64
3, 2640, Note_off_c, 1, 50, 61
3, 2640, Note_on_c, 1, 51, 64
3, 2700, Note_off_c, 1, 58, 59
3, 2700, Note_on_c, 1, 60, 64
3, 2760, Note_off_c, 1, 51, 53
3, 2760, Note_on_c, 1, 50, 64
3, 2820, Note_off_c, 1, 60, 55
3, 2820, Note_on_c, 1, 58, 64
3, 2880, Note_off_c, 1, 58, 63
3, 2880, Note_off_c, 1, 50, 54
3, 2880, Note_on_c, 1, 57, 64
3, 2880, Note_on_c, 1, 49, 64
3, 3000, Note_off_c, 1, 57, 43
3, 3000, Note_on_c, 1, 55, 64
3, 3120, Note_off_c, 1, 55, 36
3, 3120, Note_on_c, 1, 52, 64
3, 3240, Note_off_c, 1, 52, 44
3, 3240, Note_on_c, 1, 57, 64
3, 3360, Note_off_c, 1, 49, 57
3, 3360, Note_on_c, 1, 50, 64
3, 3420, Note_off_c, 1, 57, 44
3, 3420, Note_on_c, 1, 60, 64
3, 3480, Note_off_c, 1, 60, 52
3, 3480, Note_on_c, 1, 58, 64
3, 3540, Note_off_c, 1, 50, 63
3, 3540, Note_on_c, 1, 50, 64
3, 3600, Note_off_c, 1, 50, 63
3, 3600, Note_on_c, 1, 48, 64
3, 3660, Note_off_c, 1, 58, 58
3, 3660, Note_on_c, 1, 57, 64
3, 3720, Note_off_c, 1, 48, 43
3, 3720, Note_on_c, 1, 46, 64
3, 3780, Note_off_c, 1, 57, 53
3, 3780, Note_on_c, 1, 55, 64
3, 3840, Note_off_c, 1, 46, 53
3, 3840, Note_on_c, 1, 45, 64
3, 3960, Note_off_c, 1, 55, 49
3, 3960, Note_on_c, 1, 55, 64
3, 4080, Note_off_c, 1, 55, 37
3, 4080, Note_on_c, 1, 54, 64
3, 4200, Note_off_c, 1, 45, 49
3, 4200, Note_on_c, 1, 50, 64
3, 4320, Note_off_c, 1, 50, 61
3, 4320, Note_off_c, 1, 54, 55
3, 4320, Note_on_c, 1, 43, 64
3, 4440, Note_on_c, 1, 50, 64
3, 4560, Note_off_c, 1, 50, 45
3, 4560, Note_on_c, 1, 52, 64
3, 4680, Note_off_c, 1, 43, 42
3, 4680, Note_on_c, 1, 48, 64
3, 4800, Note_off_c, 1, 48, 65
3, 4800, Note_off_c, 1, 52, 69
3, 4800, Note_on_c, 1, 53, 64
3, 4800, Note_on_c, 1, 41, 64
3, 4920, Note_off_c, 1, 53, 58
3, 4920, Note_on_c, 1, 55, 64
3, 5040, Note_off_c, 1, 55, 57
3, 5040, Note_off_c, 1, 41, 43
3, 5040, Note_on_c, 1, 57, 64
3, 5160, Note_off_c, 1, 57, 40
3, 5160, Note_on_c, 1, 58, 64
3, 5280, Note_off_c, 1, 58, 49
3, 5280, Note_on_c, 1, 60, 64
3, 5400, Note_off_c, 1, 60, 58
3, 5400, Note_on_c, 1, 58, 64
3, 5520, Note_off_c, 1, 58, 59
3, 5520, Note_on_c, 1, 60, 64
3, 5640, Note_off_c, 1, 60, 61
3, 5640, Note_on_c, 1, 57, 64
3, 5760, Note_off_c, 1, 57, 42
3, 5760, Note_on_c, 1, 60, 72
3, 5782, Note_off_c, 1, 60, 62
3, 5782, Note_on_c, 1, 58, 48
3, 5804, Note_off_c, 1, 58, 55
3, 5804, Note_on_c, 1, 60, 48
3, 5826, Note_off_c, 1, 60, 52
3, 5826, Note_on_c, 1, 58, 49
3, 5848, Note_off_c, 1, 58, 59
3, 5848, Note_on_c, 1, 60, 49
3, 5870, Note_off_c, 1, 60, 55
3, 5870, Note_on_c, 1, 58, 49
3, 5892, Note_off_c, 1, 58, 59
3, 5892, Note_on_c, 1, 60, 50
3, 5914, Note_off_c, 1, 60, 52
3, 5914, Note_on_c, 1, 58, 50
3, 5936, Note_off_c, 1, 58, 65
3, 5936, Note_on_c, 1, 60, 50
3, 5958, Note_off_c, 1, 60, 59
3, 5958, Note_on_c, 1, 58, 51
3, 5980, Note_off_c, 1, 58, 62
3, 5980, Note_on_c, 1, 60, 51
3, 6002, Note_off_c, 1, 60, 57
3, 6002, Note_on_c, 1, 58, 52
3, 6024, Note_off_c, 1, 58, 66
3, 6024, Note_on_c, 1, 60, 52
3, 6046, Note_off_c, 1, 60, 58
3, 6046, Note_on_c, 1, 58, 52
3, 6068, Note_off_c, 1, 58, 65
3, 6068, Note_on_c, 1, 60, 53
3, 6090, Note_off_c, 1, 60, 49
3, 6090, Note_on_c, 1, 58, 53
3, 6112, Note_off_c, 1, 58, 68
3, 6112, Note_on_c, 1, 60, 53
3, 6134, Note_off_c, 1, 60, 62
3, 6134, Note_on_c, 1, 58, 54
3, 6156, Note_off_c, 1, 58, 69
3, 6156, Note_on_c, 1, 60, 54
3, 6178, Note_off_c, 1, 60, 43
3, 6178, Note_on_c, 1, 58, 54
3, 6200, Note_off_c, 1, 58, 65
3, 6200, Note_on_c, 1, 60, 55
3, 6222, Note_off_c, 1, 60, 49
3, 6222, Note_on_c, 1, 58, 55
3, 6244, Note_off_c, 1, 58, 70
3, 6244, Note_on_c, 1, 60, 56
3, 6266, Note_off_c, 1, 60, 41
3, 6266, Note_on_c, 1, 58, 56
3, 6288, Note_off_c, 1, 58, 69
3, 6288, Note_on_c, 1, 60, 56
3, 6310, Note_off_c, 1, 60, 49
3, 6310, Note_on_c, 1, 58, 57
3, 6332, Note_off_c, 1, 58, 66
3, 6332, Note_on_c, 1, 60, 57
3, 6354, Note_off_c, 1, 60, 45
3, 6354, Note_on_c, 1, 58, 57
3, 6376, Note_off_c, 1, 58, 70
3, 6376, Note_on_c, 1, 60, 58
3, 6398, Note_off_c, 1, 60, 57
3, 6398, Note_on_c, 1, 58, 58
3, 6420, Note_off_c, 1, 58, 66
3, 6420, Note_on_c, 1, 60, 59
3, 6442, Note_off_c, 1, 60, 41
3, 6442, Note_on_c, 1, 58, 59
3, 6464, Note_off_c, 1, 58, 61
3, 6464, Note_on_c, 1, 60, 59
3, 6486, Note_off_c, 1, 60, 51
3, 6486, Note_on_c, 1, 58, 60
3, 6508, Note_off_c, 1, 58, 65
3, 6508, Note_on_c, 1, 60, 60
3, 6530, Note_off_c, 1, 60, 55
3, 6530, Note_on_c, 1, 58, 60
3, 6552, Note_off_c, 1, 58, 65
3, 6552, Note_on_c, 1, 60, 61
3, 6574, Note_off_c, 1, 60, 41
3, 6574, Note_on_c, 1, 58, 61
3, 6596, Note_off_c, 1, 58, 68
3, 6596, Note_on_c, 1, 60, 61
3, 6618, Note_off_c, 1, 60, 42
3, 6618, Note_on_c, 1, 58, 62
3, 6640, Note_off_c, 1, 58, 65
3, 6640, Note_on_c, 1, 60, 62
3, 6662, Note_off_c, 1, 60, 37
3, 6662, Note_on_c, 1, 58, 63
3, 6684, Note_off_c, 1, 58, 66
3, 6684, Note_on_c, 1, 60, 63
3, 6706, Note_off_c, 1, 60, 46
3, 6706, Note_on_c, 1, 58, 63
3, 6780, Note_off_c, 1, 58, 50
3, 6780, Note_on_c, 1, 46, 64
3, 6840, Note_off_c, 1, 46, 49
3, 6840, Note_on_c, 1, 48, 64
3, 6870, Note_off_c, 1, 48, 57
3, 6870, Note_on_c, 1, 50, 64
3, 6900, Note_off_c, 1, 50, 70
3, 6900, Note_on_c, 1, 51, 64
3, 6960, Note_off_c, 1, 51, 54
3, 6960, Note_on_c, 1, 50, 64
3, 7020, Note_off_c, 1, 50, 51
3, 7020, Note_on_c, 1, 46, 64
3, 7080, Note_off_c, 1, 46, 46
3, 7080, Note_on_c, 1, 51, 64
3, 7110, Note_off_c, 1, 51, 34
3, 7110, Note_on_c, 1, 53, 64
3, 7140, Note_off_c, 1, 53, 36
3, 7140, Note_on_c, 1, 55, 64
3, 7200, Note_off_c, 1, 55, 41
3, 7200, Note_on_c, 1, 53, 64
3, 7260, Note_off_c, 1, 53, 58
3, 7260, Note_on_c, 1, 46, 64
3, 7320, Note_off_c, 1, 46, 24
3, 7320, Note_on_c, 1, 55, 64
3, 7350, Note_off_c, 1, 55, 52
3, 7350, Note_on_c, 1, 56, 64
3, 7380, Note_off_c, 1, 56, 51
3, 7380, Note_on_c, 1, 58, 64
3, 7440, Note_off_c, 1, 58, 62
3, 7440, Note_on_c, 1, 56, 64
3, 7470, Note_off_c, 1, 56, 53
3, 7470, Note_on_c, 1, 58, 64
3, 7500, Note_off_c, 1, 58, 55
3, 7500, Note_on_c, 1, 56, 64
3, 7560, Note_off_c, 1, 56, 51
3, 7560, Note_on_c, 1, 55, 64
3, 7590, Note_off_c, 1, 55, 65
3, 7590, Note_on_c, 1, 56, 64
3, 7620, Note_off_c, 1, 56, 50
3, 7620, Note_on_c, 1, 53, 64
3, 7680, Note_off_c, 1, 53, 37
3, 7680, Note_on_c, 1, 59, 64
3, 7800, Note_off_c, 1, 59, 49
3, 7800, Note_on_c, 1, 55, 64
3, 7920, Note_off_c, 1, 55, 46
3, 7920, Note_on_c, 1, 60, 64
3, 8040, Note_off_c, 1, 60, 43
3, 8040, Note_on_c, 1, 58, 64
3, 8160, Note_off_c, 1, 58, 42
3, 8160, Note_on_c, 1, 56, 64
3, 8280, Note_off_c, 1, 56, 52
3, 8280, Note_on_c, 1, 53, 64
3, 8400, Note_off_c, 1, 53, 52
3, 8400, Note_on_c, 1, 58, 64
3, 8520, Note_off_c, 1, 58, 58
3, 8520, Note_on_c, 1, 56, 64
3, 8640, Note_off_c, 1, 56, 59
3, 8640, Note_on_c, 1, 55, 64
3, 8760, Note_off_c, 1, 55, 68
3, 8760, Note_on_c, 1, 51, 64
3, 8880, Note_off_c, 1, 51, 48
3, 8880, Note_on_c, 1, 56, 64
3, 9000, Note_off_c, 1, 56, 43
3, 9000, Note_on_c, 1, 55, 64
3, 9120, Note_off_c, 1, 55, 62
3, 9120, Note_on_c, 1, 53, 64
3, 9240, Note_off_c, 1, 53, 54
3, 9240, Note_on_c, 1, 50, 64
3, 9360, Note_off_c, 1, 50, 49
3, 9360, Note_on_c, 1, 55, 64
3, 9480, Note_off_c, 1, 55, 58
3, 9480, Note_on_c, 1, 43, 64
3, 9600, Note_off_c, 1, 43, 31
3, 9600, Note_on_c, 1, 50, 72
3, 9622, Note_off_c, 1, 50, 53
3, 9622, Note_on_c, 1, 48, 48
3, 9644, Note_off_c, 1, 48, 57
3, 9644, Note_on_c, 1, 50, 48
3, 9666, Note_off_c, 1, 50, 69
3, 9666, Note_on_c, 1, 48, 49
3, 9688, Note_off_c, 1, 48, 57
3, 9688, Note_on_c, 1, 50, 49
3, 9710, Note_off_c, 1, 50, 66
3, 9710, Note_on_c, 1, 48, 49
3, 9732, Note_off_c, 1, 48, 61
3, 9732, Note_on_c, 1, 50, 50
3, 9754, Note_off_c, 1, 50, 69
3, 9754, Note_on_c, 1, 48, 50
3, 9776, Note_off_c, 1, 48, 62
3, 9776, Note_on_c, 1, 50, 50
3, 9798, Note_off_c, 1, 50, 68
3, 9798, Note_on_c, 1, 48, 51
3, 9820, Note_off_c, 1, 48, 61
3, 9820, Note_on_c, 1, 50, 51
3, 9842, Note_off_c, 1, 50, 69
3, 9842, Note_on_c, 1, 48, 52
3, 9864, Note_off_c, 1, 48, 61
3, 9864, Note_on_c, 1, 50, 52
3, 9886, Note_off_c, 1, 50, 62
3, 9886, Note_on_c, 1, 48, 52
3, 9908, Note_off_c, 1, 48, 63
3, 9908, Note_on_c, 1, 50, 53
3, 9930, Note_off_c, 1, 50, 66
3, 9930, Note_on_c, 1, 48, 53
3, 9952, Note_off_c, 1, 48, 62
3, 9952, Note_on_c, 1, 50, 53
3, 9974, Note_off_c, 1, 50, 65
3, 9974, Note_on_c, 1, 48, 54
3, 9996, Note_off_c, 1, 48, 57
3, 9996, Note_on_c, 1, 50, 54
3, 10018, Note_off_c, 1, 50, 61
3, 10018, Note_on_c, 1, 48, 54
3, 10040, Note_off_c, 1, 48, 65
3, 10040, Note_on_c, 1, 50, 55
3, 10062, Note_off_c, 1, 50, 63
3, 10062, Note_on_c, 1, 48, 55
3, 10084, Note_off_c, 1, 48, 68
3, 10084, Note_on_c, 1, 50, 56
3, 10106, Note_off_c, 1, 50, 63
3, 10106, Note_on_c, 1, 48, 56
3, 10128, Note_off_c, 1, 48, 61
3, 10128, Note_on_c, 1, 50, 56
3, 10150, Note_off_c, 1, 50, 58
3, 10150, Note_on_c, 1, 48, 57
3, 10172, Note_off_c, 1, 48, 62
3, 10172, Note_on_c, 1, 50, 57
3, 10194, Note_off_c, 1, 50, 62
3, 10194, Note_on_c, 1, 48, 57
3, 10216, Note_off_c, 1, 48, 66
3, 10216, Note_on_c, 1, 50, 58
3, 10238, Note_off_c, 1, 50, 61
3, 10238, Note_on_c, 1, 48, 58
3, 10260, Note_off_c, 1, 48, 63
3, 10260, Note_on_c, 1, 50, 59
3, 10282, Note_off_c, 1, 50, 62
3, 10282, Note_on_c, 1, 48, 59
3, 10304, Note_off_c, 1, 48, 61
3, 10304, Note_on_c, 1, 50, 59
3, 10326, Note_off_c, 1, 50, 57
3, 10326, Note_on_c, 1, 48, 60
3, 10348, Note_off_c, 1, 48, 63
3, 10348, Note_on_c, 1, 50, 60
3, 10370, Note_off_c, 1, 50, 55
3, 10370, Note_on_c, 1, 48, 60
3, 10392, Note_off_c, 1, 48, 59
3, 10392, Note_on_c, 1, 50, 61
3, 10414, Note_off_c, 1, 50, 54
3, 10414, Note_on_c, 1, 48, 61
3, 10436, Note_off_c, 1, 48, 65
3, 10436, Note_on_c, 1, 50, 61
3, 10458, Note_off_c, 1, 50, 61
3, 10458, Note_on_c, 1, 48, 62
3, 10480, Note_off_c, 1, 48, 62
3, 10480, Note_on_c, 1, 50, 62
3, 10502, Note_off_c, 1, 50, 65
3, 10502, Note_on_c, 1, 48, 63
3, 10524, Note_off_c, 1, 48, 61
3, 10524, Note_on_c, 1, 50, 63
3, 10546, Note_off_c, 1, 50, 61
3, 10546, Note_on_c, 1, 48, 63
3, 10620, Note_off_c, 1, 48, 61
3, 10620, Note_on_c, 1, 43, 64
3, 10650, Note_off_c, 1, 43, 51
3, 10650, Note_on_c, 1, 41, 64
3, 10680, Note_off_c, 1, 41, 21
3, 10680, Note_on_c, 1, 39, 64
3, 10710, Note_off_c, 1, 39, 52
3, 10710, Note_on_c, 1, 41, 64
3, 10740, Note_off_c, 1, 41, 36
3, 10740, Note_on_c, 1, 43, 64
3, 10800, Note_off_c, 1, 43, 52
3, 10800, Note_on_c, 1, 36, 64
3, 10860, Note_off_c, 1, 36, 15
3, 10860, Note_on_c, 1, 60, 64
3, 10890, Note_off_c, 1, 60, 61
3, 10890, Note_on_c, 1, 58, 64
3, 10920, Note_off_c, 1, 58, 54
3, 10920, Note_on_c, 1, 57, 64
3, 10950, Note_off_c, 1, 57, 55
3, 10950, Note_on_c, 1, 58, 64
3, 10980, Note_off_c, 1, 58, 51
3, 10980, Note_on_c, 1, 60, 64
3, 11040, Note_off_c, 1, 60, 57
3, 11040, Note_on_c, 1, 54, 64
3, 11520, Note_off_c, 1, 54, 46
3, 11520, Note_on_c, 1, 55, 64
3, 11580, Note_off_c, 1, 55, 59
3, 11580, Note_on_c, 1, 50, 64
3, 11610, Note_off_c, 1, 50, 30
3, 11610, Note_on_c, 1, 48, 64
3, 11640, Note_off_c, 1, 48, 17
3, 11640, Note_on_c, 1, 46, 64
3, 11670, Note_off_c, 1, 46, 41
3, 11670, Note_on_c, 1, 48, 64
3, 11700, Note_off_c, 1, 48, 41
3, 11700, Note_on_c, 1, 50, 64
3, 11760, Note_off_c, 1, 50, 68
3, 11760, Note_on_c, 1, 43, 64
3, 11820, Note_off_c, 1, 43, 25
3, 11820, Note_on_c, 1, 55, 64
3, 11850, Note_off_c, 1, 55, 1
3, 11850, Note_on_c, 1, 53, 64
3, 11880, Note_off_c, 1, 53, 53
3, 11880, Note_on_c, 1, 51, 64
3, 11910, Note_off_c, 1, 51, 43
3, 11910, Note_on_c, 1, 53, 64
3, 11940, Note_off_c, 1, 53, 61
3, 11940, Note_on_c, 1, 55, 64
3, 12000, Note_off_c, 1, 55, 48
3, 12000, Note_on_c, 1, 48, 64
3, 12480, Note_off_c, 1, 48, 47
3, 12480, Note_on_c, 1, 50, 64
3, 12540, Note_off_c, 1, 50, 21
3, 12540, Note_on_c, 1, 57, 64
3, 12570, Note_off_c, 1, 57, 37
3, 12570, Note_on_c, 1, 58, 64
3, 12600, Note_off_c, 1, 58, 55
3, 12600, Note_on_c, 1, 60, 64
3, 12630, Note_off_c, 1, 60, 53
3, 12630, Note_on_c, 1, 58, 64
3, 12660, Note_off_c, 1, 58, 55
3, 12660, Note_on_c, 1, 57, 64
3, 12720, Note_off_c, 1, 57, 51
3, 12720, Note_on_c, 1, 58, 64
3, 12840, Note_off_c, 1, 58, 65
3, 12840, Note_on_c, 1, 50, 64
3, 12960, Note_off_c, 1, 50, 41
3, 12960, Note_on_c, 1, 57, 64
3, 13080, Note_off_c, 1, 57, 55
3, 13080, Note_on_c, 1, 50, 64
3, 13200, Note_off_c, 1, 50, 45
3, 13200, Note_on_c, 1, 55, 64
3, 13320, Note_off_c, 1, 55, 63
3, 13320, Note_on_c, 1, 50, 64
3, 13440, Note_off_c, 1, 50, 40
3, 13440, Note_on_c, 1, 54, 64
3, 13560, Note_off_c, 1, 54, 66
3, 13560, Note_on_c, 1, 50, 64
3, 13680, Note_off_c, 1, 50, 46
3, 13680, Note_on_c, 1, 52, 64
3, 13800, Note_off_c, 1, 52, 59
3, 13800, Note_on_c, 1, 50, 64
3, 13920, Note_off_c, 1, 50, 43
3, 13920, Note_on_c, 1, 48, 64
3, 13980, Note_off_c, 1, 48, 30
3, 13980, Note_on_c, 1, 57, 64
3, 14010, Note_off_c, 1, 57, 52
3, 14010, Note_on_c, 1, 55, 64
3, 14040, Note_off_c, 1, 55, 58
3, 14040, Note_on_c, 1, 53, 64
3, 14070, Note_off_c, 1, 53, 52
3, 14070, Note_on_c, 1, 55, 64
3, 14100, Note_off_c, 1, 55, 54
3, 14100, Note_on_c, 1, 57, 64
3, 14160, Note_off_c, 1, 57, 55
3, 14160, Note_on_c, 1, 46, 64
3, 14280, Note_off_c, 1, 46, 52
3, 14280, Note_on_c, 1, 47, 64
3, 14400, Note_off_c, 1, 47, 72
3, 14400, Note_on_c, 1, 48, 64
3, 14460, Note_off_c, 1, 48, 36
3, 14460, Note_on_c, 1, 57, 64
3, 14520, Note_off_c, 1, 57, 47
3, 14520, Note_on_c, 1, 46, 64
3, 14580, Note_off_c, 1, 46, 40
3, 14580, Note_on_c, 1, 55, 64
3, 14640, Note_off_c, 1, 55, 54
3, 14640, Note_on_c, 1, 45, 64
3, 14700, Note_off_c, 1, 45, 40
3, 14700, Note_on_c, 1, 54, 64
3, 14760, Note_off_c, 1, 54, 58
3, 14760, Note_on_c, 1, 43, 64
3, 14820, Note_off_c, 1, 43, 37
3, 14820, Note_on_c, 1, 51, 64
3, 14880, Note_off_c, 1, 51, 21
3, 14880, Note_on_c, 1, 42, 64
3, 15000, Note_off_c, 1, 42, 43
3, 15000, Note_on_c, 1, 38, 64
3, 15120, Note_off_c, 1, 38, 27
3, 15120, Note_on_c, 1, 43, 64
3, 15240, Note_off_c, 1, 43, 65
3, 15240, Note_on_c, 1, 55, 64
3, 15360, Note_off_c, 1, 55, 63
3, 15360, Note_on_c, 1, 48, 64
3, 15480, Note_on_c, 1, 60, 64
3, 15600, Note_off_c, 1, 60, 53
3, 15600, Note_off_c, 1, 48, 53
3, 15600, Note_on_c, 1, 58, 64
3, 15660, Note_on_c, 1, 49, 64
3, 15690, Note_off_c, 1, 49, 48
3, 15690, Note_on_c, 1, 50, 64
3, 15720, Note_off_c, 1, 50, 58
3, 15720, Note_on_c, 1, 52, 64
3, 15750, Note_off_c, 1, 52, 54
3, 15750, Note_on_c, 1, 50, 64
3, 15780, Note_off_c, 1, 50, 62
3, 15780, Note_on_c, 1, 49, 64
3, 15840, Note_off_c, 1, 49, 61
3, 15840, Note_off_c, 1, 58, 57
3, 15840, Note_on_c, 1, 50, 64
3, 16080, Note_on_c, 1, 38, 64
3, 16320, Note_off_c, 1, 38, 30
3, 16320, Note_off_c, 1, 50, 44
3, 16320, Note_on_c, 1, 43, 64
3, 16620, Note_on_c, 1, 48, 64
3, 16650, Note_off_c, 1, 48, 36
3, 16650, Note_on_c, 1, 55, 64
3, 16680, Note_off_c, 1, 55, 59
3, 16680, Note_on_c, 1, 53, 64
3, 16710, Note_off_c, 1, 53, 59
3, 16710, Note_on_c, 1, 51, 64
3, 16740, Note_off_c, 1, 51, 52
3, 16740, Note_on_c, 1, 50, 64
3, 16800, Note_off_c, 1, 50, 52
3, 16800, Note_on_c, 1, 51, 64
3, 17280, Note_off_c, 1, 51, 52
3, 17340, Note_on_c, 1, 51, 64
3, 17370, Note_off_c, 1, 51, 62
3, 17370, Note_on_c, 1, 50, 64
3, 17400, Note_off_c, 1, 50, 62
3, 17400, Note_on_c, 1, 48, 64
3, 17430, Note_off_c, 1, 48, 28
3, 17430, Note_on_c, 1, 50, 64
3, 17460, Note_off_c, 1, 50, 61
3, 17460, Note_on_c, 1, 51, 64
3, 17510, Note_off_c, 1, 43, 62
3, 17523, Note_on_c, 1, 43, 64
3, 17763, Note_off_c, 1, 51, 62
3, 17763, Note_on_c, 1, 50, 64
3, 18723, Note_off_c, 1, 43, 63
3, 18723, Note_off_c, 1, 50, 53
3, 18723, End_track
0, 0, End_of_file
