0, 0, Header, 1, 2, 240
1, 0, Start_track
1, 0, Time_signature, 12, 3, 18, 8
1, 0, Tempo, 625000
1, 37632, Tempo, 855949
1, 37852, Tempo, 878426
1, 37964, Tempo, 750000
1, 38092, Tempo, 882353
1, 38880, Tempo, 625000
1, 38880, End_track
2, 0, Start_track
2, 0, Note_on_c, 0, 62, 64
2, 60, Note_off_c, 0, 62, 64
2, 60, Note_on_c, 0, 64, 64
2, 120, Note_off_c, 0, 64, 64
2, 120, Note_on_c, 0, 65, 64
2, 180, Note_off_c, 0, 65, 64
2, 180, Note_on_c, 0, 67, 64
2, 240, Note_off_c, 0, 67, 64
2, 240, Note_on_c, 0, 65, 64
2, 300, Note_off_c, 0, 65, 64
2, 300, Note_on_c, 0, 64, 64
2, 360, Note_off_c, 0, 64, 64
2, 360, Note_on_c, 0, 65, 64
2, 420, Note_off_c, 0, 65, 64
2, 420, Note_on_c, 0, 67, 64
2, 480, Note_off_c, 0, 67, 64
2, 480, Note_on_c, 0, 69, 64
2, 540, Note_off_c, 0, 69, 64
2, 540, Note_on_c, 0, 70, 64
2, 600, Note_off_c, 0, 70, 64
2, 600, Note_on_c, 0, 69, 64
2, 660, Note_off_c, 0, 69, 64
2, 660, Note_on_c, 0, 67, 64
2, 720, Note_off_c, 0, 67, 64
2, 720, Note_on_c, 0, 69, 64
2, 900, Note_off_c, 0, 69, 64
2, 900, Note_on_c, 0, 74, 64
2, 1080, Note_off_c, 0, 74, 64
2, 1080, Note_on_c, 0, 73, 64
2, 1260, Note_off_c, 0, 73, 64
2, 1260, Note_on_c, 0, 72, 64
2, 1440, Note_off_c, 0, 72, 64
2, 1440, Note_on_c, 0, 71, 64
2, 1620, Note_off_c, 0, 71, 64
2, 1620, Note_on_c, 0, 70, 64
2, 1800, Note_off_c, 0, 70, 64
2, 1800, Note_on_c, 0, 69, 64
2, 1980, Note_off_c, 0, 69, 64
2, 1980, Note_on_c, 0, 67, 64
2, 2340, Note_off_c, 0, 67, 64
2, 2340, Note_on_c, 0, 65, 64
2, 2520, Note_off_c, 0, 65, 64
2, 2520, Note_on_c, 0, 64, 64
2, 2700, Note_off_c, 0, 64, 64
2, 2700, Note_on_c, 0, 69, 64
2, 2880, Note_off_c, 0, 69, 64
2, 2880, Note_on_c, 0, 69, 64
2, 2880, Note_on_c, 0, 65, 64
2, 2940, Note_off_c, 0, 69, 64
2, 2940, Note_on_c, 0, 71, 64
2, 3000, Note_off_c, 0, 71, 64
2, 3000, Note_on_c, 0, 72, 64
2, 3060, Note_off_c, 0, 72, 64
2, 3060, Note_off_c, 0, 65, 64
2, 3060, Note_on_c, 0, 74, 64
2, 3060, Note_on_c, 0, 62, 64
2, 3120, Note_off_c, 0, 74, 64
2, 3120, Note_on_c, 0, 72, 64
2, 3180, Note_off_c, 0, 72, 64
2, 3180, Note_on_c, 0, 71, 64
2, 3240, Note_off_c, 0, 71, 64
2, 3240, Note_off_c, 0, 62, 64
2, 3240, Note_on_c, 0, 72, 64
2, 3240, Note_on_c, 0, 69, 64
2, 3300, Note_off_c, 0, 72, 64
2, 3300, Note_on_c, 0, 74, 64
2, 3360, Note_off_c, 0, 74, 64
2, 3360, Note_on_c, 0, 76, 64
2, 3420, Note_off_c, 0, 76, 64
2, 3420, Note_on_c, 0, 77, 64
2, 3480, Note_off_c, 0, 77, 64
2, 3480, Note_on_c, 0, 76, 64
2, 3540, Note_off_c, 0, 76, 64
2, 3540, Note_on_c, 0, 74, 64
2, 3600, Note_off_c, 0, 74, 64
2, 3600, Note_off_c, 0, 69, 64
2, 3600, Note_on_c, 0, 76, 64
2, 3690, Note_on_c, 0, 59, 64
2, 3780, Note_off_c, 0, 59, 64
2, 3780, Note_off_c, 0, 76, 64
2, 3780, Note_on_c, 0, 60, 64
2, 3780, Note_on_c, 0, 81, 64
2, 3870, Note_off_c, 0, 60, 64
2, 3870, Note_on_c, 0, 62, 64
2, 3960, Note_off_c, 0, 62, 64
2, 3960, Note_off_c, 0, 81, 64
2, 3960, Note_on_c, 0, 80, 64
2, 3960, Note_on_c, 0, 64, 64
2, 4050, Note_off_c, 0, 64, 64
2, 4050, Note_on_c, 0, 66, 64
2, 4140, Note_off_c, 0, 66, 64
2, 4140, Note_off_c, 0, 80, 64
2, 4140, Note_on_c, 0, 79, 64
2, 4140, Note_on_c, 0, 67, 64
2, 4230, Note_off_c, 0, 67, 64
2, 4230, Note_on_c, 0, 64, 64
2, 4320, Note_off_c, 0, 64, 64
2, 4320, Note_off_c, 0, 79, 64
2, 4320, Note_on_c, 0, 78, 64
2, 4320, Note_on_c, 0, 69, 64
2, 4410, Note_off_c, 0, 69, 64
2, 4410, Note_on_c, 0, 68, 64
2, 4500, Note_off_c, 0, 68, 64
2, 4500, Note_off_c, 0, 78, 64
2, 4500, Note_on_c, 0, 77, 64
2, 4500, Note_on_c, 0, 69, 64
2, 4590, Note_off_c, 0, 69, 64
2, 4590, Note_on_c, 0, 71, 64
2, 4680, Note_off_c, 0, 71, 64
2, 4680, Note_off_c, 0, 77, 64
2, 4680, Note_on_c, 0, 76, 64
2, 4680, Note_on_c, 0, 72, 64
2, 4770, Note_off_c, 0, 72, 64
2, 4770, Note_on_c, 0, 66, 64
2, 4860, Note_off_c, 0, 66, 64
2, 4860, Note_off_c, 0, 76, 64
2, 4860, Note_on_c, 0, 71, 64
2, 4860, Note_on_c, 0, 74, 64
2, 4950, Note_off_c, 0, 71, 64
2, 4950, Note_on_c, 0, 69, 64
2, 5040, Note_off_c, 0, 69, 64
2, 5040, Note_on_c, 0, 67, 64
2, 5130, Note_off_c, 0, 67, 64
2, 5130, Note_on_c, 0, 64, 64
2, 5220, Note_off_c, 0, 64, 64
2, 5220, Note_off_c, 0, 74, 64
2, 5220, Note_on_c, 0, 72, 64
2, 5220, Note_on_c, 0, 69, 64
2, 5400, Note_off_c, 0, 72, 64
2, 5400, Note_on_c, 0, 71, 64
2, 5580, Note_off_c, 0, 71, 64
2, 5580, Note_off_c, 0, 69, 64
2, 5580, Note_on_c, 0, 67, 64
2, 5580, Note_on_c, 0, 76, 64
2, 5760, Note_off_c, 0, 76, 64
2, 5760, Note_on_c, 0, 69, 64
2, 5820, Note_off_c, 0, 67, 64
2, 5820, Note_on_c, 0, 65, 64
2, 5880, Note_off_c, 0, 65, 64
2, 5880, Note_on_c, 0, 64, 64
2, 5940, Note_off_c, 0, 64, 64
2, 5940, Note_off_c, 0, 69, 64
2, 5940, Note_on_c, 0, 71, 64
2, 5940, Note_on_c, 0, 62, 64
2, 6000, Note_off_c, 0, 62, 64
2, 6000, Note_on_c, 0, 64, 64
2, 6060, Note_off_c, 0, 64, 64
2, 6060, Note_on_c, 0, 65, 64
2, 6120, Note_off_c, 0, 65, 64
2, 6120, Note_off_c, 0, 71, 64
2, 6120, Note_on_c, 0, 72, 64
2, 6120, Note_on_c, 0, 64, 64
2, 6180, Note_off_c, 0, 64, 64
2, 6180, Note_on_c, 0, 62, 64
2, 6240, Note_off_c, 0, 62, 64
2, 6240, Note_on_c, 0, 60, 64
2, 6300, Note_off_c, 0, 60, 64
2, 6300, Note_off_c, 0, 72, 64
2, 6300, Note_on_c, 0, 68, 64
2, 6300, Note_on_c, 0, 59, 64
2, 6360, Note_off_c, 0, 59, 64
2, 6360, Note_on_c, 0, 60, 64
2, 6420, Note_off_c, 0, 60, 64
2, 6420, Note_on_c, 0, 62, 64
2, 6480, Note_off_c, 0, 62, 64
2, 6480, Note_off_c, 0, 68, 64
2, 6480, Note_on_c, 0, 69, 64
2, 6480, Note_on_c, 0, 60, 64
2, 6540, Note_off_c, 0, 69, 64
2, 6540, Note_on_c, 0, 67, 64
2, 6600, Note_off_c, 0, 67, 64
2, 6600, Note_on_c, 0, 65, 64
2, 6660, Note_off_c, 0, 65, 64
2, 6660, Note_off_c, 0, 60, 64
2, 6660, Note_on_c, 0, 61, 64
2, 6660, Note_on_c, 0, 64, 64
2, 6720, Note_off_c, 0, 64, 64
2, 6720, Note_on_c, 0, 65, 64
2, 6780, Note_off_c, 0, 65, 64
2, 6780, Note_on_c, 0, 67, 64
2, 6840, Note_off_c, 0, 67, 64
2, 6840, Note_off_c, 0, 61, 64
2, 6840, Note_on_c, 0, 65, 64
2, 6840, Note_on_c, 0, 62, 64
2, 6900, Note_off_c, 0, 65, 64
2, 6900, Note_on_c, 0, 64, 64
2, 6960, Note_off_c, 0, 64, 64
2, 6960, Note_on_c, 0, 62, 64
2, 7020, Note_off_c, 0, 62, 64
2, 7020, Note_off_c, 0, 62, 64
2, 7020, Note_on_c, 0, 61, 64
2, 7020, Note_on_c, 0, 55, 64
2, 7080, Note_off_c, 0, 61, 64
2, 7080, Note_on_c, 0, 62, 64
2, 7140, Note_off_c, 0, 62, 64
2, 7140, Note_on_c, 0, 64, 64
2, 7200, Note_off_c, 0, 64, 64
2, 7200, Note_off_c, 0, 55, 64
2, 7200, Note_on_c, 0, 62, 64
2, 7200, Note_on_c, 0, 53, 64
2, 7200, Note_on_c, 0, 50, 64
2, 7260, Note_off_c, 0, 50, 64
2, 7260, Note_on_c, 0, 52, 64
2, 7320, Note_off_c, 0, 52, 64
2, 7320, Note_on_c, 0, 53, 64
2, 7380, Note_off_c, 0, 53, 64
2, 7380, Note_off_c, 0, 53, 64
2, 7380, Note_off_c, 0, 62, 64
2, 7380, Note_on_c, 0, 61, 64
2, 7380, Note_on_c, 0, 58, 64
2, 7380, Note_on_c, 0, 55, 64
2, 7440, Note_off_c, 0, 55, 64
2, 7440, Note_on_c, 0, 53, 64
2, 7500, Note_off_c, 0, 53, 64
2, 7500, Note_on_c, 0, 52, 64
2, 7560, Note_off_c, 0, 52, 64
2, 7560, Note_off_c, 0, 58, 64
2, 7560, Note_off_c, 0, 61, 64
2, 7560, Note_on_c, 0, 57, 64
2, 7560, Note_on_c, 0, 62, 64
2, 7560, Note_on_c, 0, 53, 64
2, 7620, Note_off_c, 0, 53, 64
2, 7620, Note_on_c, 0, 55, 64
2, 7680, Note_off_c, 0, 55, 64
2, 7680, Note_on_c, 0, 57, 64
2, 7740, Note_off_c, 0, 57, 64
2, 7740, Note_off_c, 0, 62, 64
2, 7740, Note_off_c, 0, 57, 64
2, 7740, Note_on_c, 0, 67, 64
2, 7740, Note_on_c, 0, 62, 64
2, 7740, Note_on_c, 0, 58, 64
2, 7800, Note_off_c, 0, 58, 64
2, 7800, Note_on_c, 0, 57, 64
2, 7860, Note_off_c, 0, 57, 64
2, 7860, Note_on_c, 0, 55, 64
2, 7920, Note_off_c, 0, 55, 64
2, 7920, Note_off_c, 0, 62, 64
2, 7920, Note_on_c, 0, 61, 64
2, 7920, Note_on_c, 0, 57, 64
2, 8010, Note_off_c, 0, 67, 64
2, 8010, Note_on_c, 0, 64, 64
2, 8100, Note_off_c, 0, 64, 64
2, 8100, Note_off_c, 0, 57, 64
2, 8100, Note_off_c, 0, 61, 64
2, 8100, Note_on_c, 0, 65, 64
2, 8100, Note_on_c, 0, 62, 64
2, 8190, Note_off_c, 0, 65, 64
2, 8190, Note_on_c, 0, 67, 64
2, 8280, Note_off_c, 0, 67, 64
2, 8280, Note_off_c, 0, 62, 64
2, 8280, Note_on_c, 0, 64, 64
2, 8280, Note_on_c, 0, 69, 64
2, 8280, Note_on_c, 0, 61, 64
2, 8370, Note_off_c, 0, 69, 64
2, 8370, Note_on_c, 0, 71, 64
2, 8460, Note_off_c, 0, 71, 64
2, 8460, Note_off_c, 0, 61, 64
2, 8460, Note_on_c, 0, 60, 64
2, 8460, Note_on_c, 0, 72, 64
2, 8550, Note_off_c, 0, 72, 64
2, 8550, Note_on_c, 0, 69, 64
2, 8640, Note_off_c, 0, 69, 64
2, 8640, Note_off_c, 0, 60, 64
2, 8640, Note_off_c, 0, 64, 64
2, 8640, Note_on_c, 0, 74, 64
2, 8640, Note_on_c, 0, 62, 64
2, 8640, Note_on_c, 0, 59, 64
2, 8730, Note_off_c, 0, 74, 51
2, 8730, Note_on_c, 0, 73, 64
2, 8820, Note_off_c, 0, 73, 49
2, 8820, Note_off_c, 0, 59, 64
2, 8820, Note_on_c, 0, 74, 64
2, 8820, Note_on_c, 0, 58, 64
2, 8910, Note_off_c, 0, 74, 1
2, 8910, Note_on_c, 0, 76, 64
2, 9000, Note_off_c, 0, 76, 46
2, 9000, Note_off_c, 0, 58, 64
2, 9000, Note_off_c, 0, 62, 64
2, 9000, Note_on_c, 0, 77, 64
2, 9000, Note_on_c, 0, 57, 64
2, 9090, Note_off_c, 0, 77, 54
2, 9090, Note_on_c, 0, 71, 64
2, 9180, Note_off_c, 0, 71, 37
2, 9180, Note_off_c, 0, 57, 64
2, 9180, Note_on_c, 0, 76, 64
2, 9180, Note_on_c, 0, 55, 64
2, 9270, Note_off_c, 0, 76, 20
2, 9270, Note_on_c, 0, 74, 64
2, 9360, Note_off_c, 0, 74, 1
2, 9360, Note_on_c, 0, 72, 64
2, 9450, Note_off_c, 0, 72, 66
2, 9450, Note_on_c, 0, 69, 64
2, 9540, Note_off_c, 0, 69, 64
2, 9540, Note_off_c, 0, 55, 64
2, 9540, Note_on_c, 0, 74, 64
2, 9540, Note_on_c, 0, 53, 64
2, 9540, Note_on_c, 0, 70, 64
2, 9630, Note_off_c, 0, 70, 64
2, 9630, Note_on_c, 0, 69, 64
2, 9720, Note_off_c, 0, 69, 64
2, 9720, Note_off_c, 0, 53, 64
2, 9720, Note_on_c, 0, 67, 64
2, 9720, Note_on_c, 0, 52, 64
2, 9810, Note_off_c, 0, 67, 64
2, 9810, Note_on_c, 0, 70, 64
2, 9900, Note_off_c, 0, 70, 64
2, 9900, Note_off_c, 0, 52, 64
2, 9900, Note_off_c, 0, 74, 44
2, 9900, Note_on_c, 0, 72, 64
2, 9900, Note_on_c, 0, 69, 64
2, 9900, Note_on_c, 0, 57, 64
2, 9990, Note_off_c, 0, 69, 64
2, 9990, Note_on_c, 0, 67, 64
2, 10080, Note_off_c, 0, 67, 64
2, 10080, Note_off_c, 0, 57, 64
2, 10080, Note_on_c, 0, 66, 64
2, 10080, Note_on_c, 0, 50, 64
2, 10170, Note_off_c, 0, 50, 64
2, 10170, Note_off_c, 0, 66, 64
2, 10170, Note_on_c, 0, 62, 64
2, 10260, Note_off_c, 0, 62, 64
2, 10260, Note_off_c, 0, 72, 76
2, 10260, Note_on_c, 0, 67, 64
2, 10260, Note_on_c, 0, 71, 64
2, 10260, Note_on_c, 0, 63, 64
2, 10350, Note_off_c, 0, 63, 64
2, 10350, Note_on_c, 0, 62, 64
2, 10440, Note_off_c, 0, 62, 64
2, 10440, Note_off_c, 0, 71, 64
2, 10440, Note_on_c, 0, 69, 64
2, 10440, Note_on_c, 0, 60, 64
2, 10530, Note_off_c, 0, 60, 64
2, 10530, Note_on_c, 0, 63, 64
2, 10620, Note_off_c, 0, 63, 64
2, 10620, Note_off_c, 0, 67, 64
2, 10620, Note_on_c, 0, 66, 64
2, 10620, Note_on_c, 0, 62, 64
2, 10710, Note_off_c, 0, 62, 64
2, 10710, Note_on_c, 0, 60, 64
2, 10800, Note_off_c, 0, 60, 64
2, 10800, Note_off_c, 0, 69, 64
2, 10800, Note_on_c, 0, 67, 64
2, 10800, Note_on_c, 0, 59, 64
2, 10890, Note_off_c, 0, 59, 64
2, 10890, Note_off_c, 0, 67, 64
2, 10890, Note_on_c, 0, 79, 64
2, 10890, Note_on_c, 0, 55, 64
2, 10980, Note_off_c, 0, 55, 64
2, 10980, Note_off_c, 0, 79, 64
2, 10980, Note_off_c, 0, 66, 64
2, 10980, Note_on_c, 0, 81, 64
2, 10980, Note_on_c, 0, 64, 64
2, 10980, Note_on_c, 0, 60, 64
2, 11070, Note_off_c, 0, 81, 64
2, 11070, Note_on_c, 0, 79, 64
2, 11160, Note_off_c, 0, 79, 64
2, 11160, Note_off_c, 0, 64, 64
2, 11160, Note_on_c, 0, 62, 64
2, 11160, Note_on_c, 0, 77, 64
2, 11250, Note_off_c, 0, 77, 64
2, 11250, Note_on_c, 0, 81, 64
2, 11340, Note_off_c, 0, 81, 64
2, 11340, Note_off_c, 0, 60, 64
2, 11340, Note_on_c, 0, 58, 64
2, 11340, Note_on_c, 0, 79, 64
2, 11430, Note_off_c, 0, 79, 64
2, 11430, Note_on_c, 0, 77, 64
2, 11520, Note_off_c, 0, 77, 64
2, 11520, Note_off_c, 0, 62, 64
2, 11520, Note_on_c, 0, 76, 64
2, 11520, Note_on_c, 0, 60, 64
2, 11610, Note_off_c, 0, 60, 64
2, 11610, Note_off_c, 0, 76, 64
2, 11610, Note_on_c, 0, 72, 64
2, 11700, Note_off_c, 0, 72, 64
2, 11700, Note_off_c, 0, 58, 64
2, 11700, Note_on_c, 0, 77, 64
2, 11700, Note_on_c, 0, 74, 64
2, 11700, Note_on_c, 0, 57, 64
2, 11790, Note_off_c, 0, 74, 64
2, 11790, Note_on_c, 0, 72, 64
2, 11880, Note_off_c, 0, 72, 64
2, 11880, Note_off_c, 0, 57, 64
2, 11880, Note_on_c, 0, 70, 64
2, 11880, Note_on_c, 0, 55, 64
2, 11970, Note_off_c, 0, 70, 64
2, 11970, Note_on_c, 0, 74, 64
2, 12060, Note_off_c, 0, 74, 64
2, 12060, Note_off_c, 0, 55, 64
2, 12060, Note_off_c, 0, 77, 64
2, 12060, Note_on_c, 0, 76, 64
2, 12060, Note_on_c, 0, 72, 64
2, 12060, Note_on_c, 0, 60, 64
2, 12150, Note_off_c, 0, 72, 64
2, 12150, Note_on_c, 0, 70, 64
2, 12240, Note_off_c, 0, 70, 64
2, 12240, Note_off_c, 0, 60, 64
2, 12240, Note_on_c, 0, 69, 64
2, 12240, Note_on_c, 0, 53, 64
2, 12300, Note_off_c, 0, 53, 64
2, 12300, Note_on_c, 0, 55, 64
2, 12330, Note_off_c, 0, 76, 64
2, 12330, Note_on_c, 0, 77, 64
2, 12360, Note_off_c, 0, 55, 64
2, 12360, Note_on_c, 0, 57, 64
2, 12420, Note_off_c, 0, 57, 64
2, 12420, Note_off_c, 0, 69, 64
2, 12420, Note_on_c, 0, 58, 64
2, 12420, Note_on_c, 0, 67, 64
2, 12480, Note_off_c, 0, 58, 64
2, 12480, Note_on_c, 0, 57, 64
2, 12510, Note_off_c, 0, 77, 64
2, 12510, Note_on_c, 0, 76, 64
2, 12540, Note_off_c, 0, 57, 64
2, 12540, Note_on_c, 0, 55, 64
2, 12600, Note_off_c, 0, 55, 64
2, 12600, Note_off_c, 0, 67, 64
2, 12600, Note_on_c, 0, 65, 64
2, 12600, Note_on_c, 0, 57, 64
2, 12690, Note_off_c, 0, 76, 64
2, 12690, Note_on_c, 0, 74, 64
2, 12780, Note_off_c, 0, 57, 64
2, 12780, Note_off_c, 0, 65, 64
2, 12780, Note_on_c, 0, 64, 64
2, 12780, Note_on_c, 0, 45, 64
2, 12870, Note_off_c, 0, 74, 64
2, 12870, Note_on_c, 0, 73, 64
2, 12960, Note_off_c, 0, 73, 64
2, 12960, Note_off_c, 0, 45, 64
2, 12960, Note_off_c, 0, 64, 64
2, 12960, Note_on_c, 0, 74, 64
2, 12960, Note_on_c, 0, 65, 64
2, 12960, Note_on_c, 0, 50, 64
2, 13020, Note_off_c, 0, 50, 64
2, 13020, Note_on_c, 0, 52, 64
2, 13080, Note_off_c, 0, 52, 64
2, 13080, Note_on_c, 0, 53, 64
2, 13140, Note_off_c, 0, 53, 64
2, 13140, Note_off_c, 0, 65, 64
2, 13140, Note_off_c, 0, 74, 64
2, 13140, Note_on_c, 0, 70, 64
2, 13140, Note_on_c, 0, 61, 64
2, 13140, Note_on_c, 0, 55, 64
2, 13200, Note_off_c, 0, 55, 64
2, 13200, Note_on_c, 0, 53, 64
2, 13260, Note_off_c, 0, 53, 64
2, 13260, Note_on_c, 0, 52, 64
2, 13320, Note_off_c, 0, 52, 64
2, 13320, Note_off_c, 0, 61, 64
2, 13320, Note_off_c, 0, 70, 64
2, 13320, Note_on_c, 0, 62, 64
2, 13320, Note_on_c, 0, 69, 64
2, 13320, Note_on_c, 0, 53, 64
2, 13380, Note_off_c, 0, 53, 64
2, 13380, Note_off_c, 0, 69, 64
2, 13380, Note_on_c, 0, 55, 64
2, 13380, Note_on_c, 0, 67, 64
2, 13440, Note_off_c, 0, 67, 64
2, 13440, Note_off_c, 0, 55, 64
2, 13440, Note_on_c, 0, 65, 64
2, 13440, Note_on_c, 0, 57, 64
2, 13500, Note_off_c, 0, 57, 64
2, 13500, Note_off_c, 0, 65, 64
2, 13500, Note_on_c, 0, 64, 64
2, 13500, Note_on_c, 0, 58, 64
2, 13560, Note_off_c, 0, 58, 64
2, 13560, Note_off_c, 0, 64, 64
2, 13560, Note_on_c, 0, 65, 64
2, 13560, Note_on_c, 0, 57, 64
2, 13620, Note_off_c, 0, 57, 64
2, 13620, Note_off_c, 0, 65, 64
2, 13620, Note_on_c, 0, 67, 64
2, 13620, Note_on_c, 0, 55, 64
2, 13680, Note_off_c, 0, 55, 64
2, 13680, Note_off_c, 0, 67, 64
2, 13680, Note_on_c, 0, 65, 64
2, 13680, Note_on_c, 0, 57, 64
2, 13740, Note_off_c, 0, 65, 64
2, 13740, Note_on_c, 0, 64, 64
2, 13800, Note_off_c, 0, 64, 64
2, 13800, Note_on_c, 0, 62, 64
2, 13860, Note_off_c, 0, 62, 64
2, 13860, Note_off_c, 0, 57, 64
2, 13860, Note_off_c, 0, 62, 64
2, 13860, Note_on_c, 0, 61, 64
2, 13860, Note_on_c, 0, 58, 64
2, 13860, Note_on_c, 0, 55, 64
2, 13920, Note_off_c, 0, 61, 64
2, 13920, Note_on_c, 0, 62, 64
2, 13980, Note_off_c, 0, 62, 64
2, 13980, Note_on_c, 0, 64, 64
2, 14040, Note_off_c, 0, 64, 64
2, 14040, Note_off_c, 0, 55, 64
2, 14040, Note_off_c, 0, 58, 64
2, 14040, Note_on_c, 0, 57, 64
2, 14040, Note_on_c, 0, 62, 64
2, 14040, Note_on_c, 0, 53, 64
2, 14100, Note_off_c, 0, 53, 64
2, 14100, Note_off_c, 0, 62, 64
2, 14100, Note_on_c, 0, 64, 64
2, 14100, Note_on_c, 0, 52, 64
2, 14160, Note_off_c, 0, 52, 64
2, 14160, Note_off_c, 0, 64, 64
2, 14160, Note_on_c, 0, 65, 64
2, 14160, Note_on_c, 0, 50, 64
2, 14220, Note_off_c, 0, 50, 64
2, 14220, Note_off_c, 0, 65, 64
2, 14220, Note_on_c, 0, 67, 64
2, 14220, Note_on_c, 0, 49, 64
2, 14280, Note_off_c, 0, 49, 64
2, 14280, Note_off_c, 0, 67, 64
2, 14280, Note_on_c, 0, 65, 64
2, 14280, Note_on_c, 0, 50, 64
2, 14340, Note_off_c, 0, 50, 64
2, 14340, Note_off_c, 0, 65, 64
2, 14340, Note_on_c, 0, 52, 64
2, 14340, Note_on_c, 0, 64, 64
2, 14400, Note_off_c, 0, 64, 64
2, 14400, Note_off_c, 0, 52, 64
2, 14400, Note_on_c, 0, 65, 64
2, 14400, Note_on_c, 0, 50, 64
2, 14460, Note_off_c, 0, 65, 64
2, 14460, Note_off_c, 0, 57, 64
2, 14460, Note_on_c, 0, 67, 64
2, 14460, Note_on_c, 0, 55, 64
2, 14520, Note_off_c, 0, 55, 64
2, 14520, Note_off_c, 0, 67, 64
2, 14520, Note_on_c, 0, 69, 64
2, 14520, Note_on_c, 0, 53, 64
2, 14580, Note_off_c, 0, 53, 64
2, 14580, Note_off_c, 0, 69, 64
2, 14580, Note_on_c, 0, 70, 64
2, 14580, Note_on_c, 0, 52, 64
2, 14640, Note_off_c, 0, 52, 64
2, 14640, Note_off_c, 0, 70, 64
2, 14640, Note_on_c, 0, 69, 64
2, 14640, Note_on_c, 0, 53, 64
2, 14700, Note_off_c, 0, 53, 64
2, 14700, Note_off_c, 0, 69, 64
2, 14700, Note_on_c, 0, 67, 64
2, 14700, Note_on_c, 0, 55, 64
2, 14760, Note_off_c, 0, 55, 64
2, 14760, Note_off_c, 0, 67, 64
2, 14760, Note_on_c, 0, 69, 64
2, 14760, Note_on_c, 0, 53, 64
2, 14850, Note_off_c, 0, 50, 64
2, 14850, Note_on_c, 0, 48, 64
2, 14940, Note_off_c, 0, 48, 64
2, 14940, Note_off_c, 0, 69, 64
2, 14940, Note_on_c, 0, 74, 64
2, 14940, Note_on_c, 0, 46, 64
2, 15030, Note_off_c, 0, 53, 64
2, 15030, Note_on_c, 0, 55, 64
2, 15120, Note_off_c, 0, 55, 64
2, 15120, Note_off_c, 0, 46, 64
2, 15120, Note_off_c, 0, 74, 64
2, 15120, Note_on_c, 0, 45, 64
2, 15120, Note_on_c, 0, 73, 64
2, 15210, Note_on_c, 0, 55, 64
2, 15300, Note_off_c, 0, 55, 64
2, 15300, Note_off_c, 0, 73, 64
2, 15300, Note_on_c, 0, 54, 64
2, 15300, Note_on_c, 0, 72, 64
2, 15390, Note_off_c, 0, 45, 64
2, 15390, Note_on_c, 0, 50, 64
2, 15480, Note_off_c, 0, 50, 64
2, 15480, Note_off_c, 0, 72, 64
2, 15480, Note_off_c, 0, 54, 64
2, 15480, Note_on_c, 0, 71, 64
2, 15480, Note_on_c, 0, 43, 64
2, 15570, Note_on_c, 0, 53, 64
2, 15660, Note_off_c, 0, 53, 64
2, 15660, Note_off_c, 0, 71, 64
2, 15660, Note_on_c, 0, 70, 64
2, 15660, Note_on_c, 0, 52, 64
2, 15750, Note_off_c, 0, 43, 64
2, 15750, Note_on_c, 0, 48, 64
2, 15840, Note_off_c, 0, 48, 64
2, 15840, Note_off_c, 0, 52, 64
2, 15840, Note_off_c, 0, 70, 64
2, 15840, Note_on_c, 0, 69, 64
2, 15840, Note_on_c, 0, 41, 64
2, 15930, Note_on_c, 0, 51, 64
2, 16020, Note_off_c, 0, 51, 64
2, 16020, Note_off_c, 0, 69, 64
2, 16020, Note_on_c, 0, 81, 64
2, 16020, Note_on_c, 0, 50, 64
2, 16110, Note_off_c, 0, 41, 64
2, 16110, Note_on_c, 0, 46, 64
2, 16200, Note_off_c, 0, 46, 64
2, 16200, Note_off_c, 0, 50, 64
2, 16200, Note_off_c, 0, 81, 64
2, 16200, Note_on_c, 0, 40, 64
2, 16200, Note_on_c, 0, 80, 64
2, 16290, Note_on_c, 0, 50, 64
2, 16380, Note_off_c, 0, 50, 64
2, 16380, Note_off_c, 0, 80, 64
2, 16380, Note_on_c, 0, 79, 64
2, 16380, Note_on_c, 0, 49, 64
2, 16470, Note_off_c, 0, 40, 64
2, 16470, Note_on_c, 0, 45, 64
2, 16560, Note_off_c, 0, 45, 64
2, 16560, Note_off_c, 0, 49, 64
2, 16560, Note_off_c, 0, 79, 64
2, 16560, Note_on_c, 0, 78, 64
2, 16560, Note_on_c, 0, 50, 64
2, 16560, Note_on_c, 0, 38, 64
2, 16650, Note_off_c, 0, 50, 64
2, 16650, Note_on_c, 0, 69, 64
2, 16740, Note_off_c, 0, 69, 64
2, 16740, Note_off_c, 0, 38, 64
2, 16740, Note_off_c, 0, 78, 64
2, 16740, Note_on_c, 0, 77, 64
2, 16740, Note_on_c, 0, 70, 64
2, 16740, Note_on_c, 0, 50, 64
2, 16830, Note_off_c, 0, 70, 64
2, 16830, Note_on_c, 0, 69, 64
2, 16920, Note_off_c, 0, 69, 64
2, 16920, Note_off_c, 0, 77, 64
2, 16920, Note_on_c, 0, 76, 64
2, 16920, Note_on_c, 0, 67, 64
2, 17010, Note_off_c, 0, 67, 64
2, 17010, Note_on_c, 0, 70, 64
2, 17100, Note_off_c, 0, 70, 64
2, 17100, Note_off_c, 0, 50, 64
2, 17100, Note_on_c, 0, 49, 64
2, 17100, Note_on_c, 0, 69, 64
2, 17190, Note_off_c, 0, 69, 64
2, 17190, Note_on_c, 0, 67, 64
2, 17280, Note_off_c, 0, 67, 64
2, 17280, Note_off_c, 0, 49, 64
2, 17280, Note_on_c, 0, 65, 64
2, 17280, Note_on_c, 0, 50, 64
2, 17370, Note_off_c, 0, 50, 64
2, 17370, Note_on_c, 0, 57, 64
2, 17460, Note_off_c, 0, 57, 64
2, 17460, Note_off_c, 0, 76, 64
2, 17460, Note_on_c, 0, 74, 64
2, 17460, Note_on_c, 0, 58, 64
2, 17550, Note_off_c, 0, 58, 64
2, 17550, Note_on_c, 0, 57, 64
2, 17640, Note_off_c, 0, 57, 64
2, 17640, Note_off_c, 0, 65, 64
2, 17640, Note_on_c, 0, 64, 64
2, 17640, Note_on_c, 0, 55, 64
2, 17730, Note_off_c, 0, 55, 64
2, 17730, Note_on_c, 0, 58, 64
2, 17820, Note_off_c, 0, 58, 64
2, 17820, Note_off_c, 0, 74, 64
2, 17820, Note_on_c, 0, 73, 64
2, 17820, Note_on_c, 0, 57, 64
2, 17910, Note_off_c, 0, 57, 64
2, 17910, Note_on_c, 0, 55, 64
2, 18000, Note_off_c, 0, 55, 64
2, 18000, Note_off_c, 0, 73, 64
2, 18000, Note_on_c, 0, 53, 64
2, 18090, Note_on_c, 0, 81, 64
2, 18180, Note_off_c, 0, 81, 64
2, 18180, Note_off_c, 0, 64, 64
2, 18180, Note_on_c, 0, 82, 64
2, 18180, Note_on_c, 0, 62, 64
2, 18270, Note_off_c, 0, 82, 64
2, 18270, Note_on_c, 0, 81, 64
2, 18360, Note_off_c, 0, 81, 64
2, 18360, Note_off_c, 0, 53, 64
2, 18360, Note_on_c, 0, 79, 64
2, 18360, Note_on_c, 0, 52, 64
2, 18450, Note_off_c, 0, 79, 64
2, 18450, Note_on_c, 0, 82, 64
2, 18540, Note_off_c, 0, 82, 64
2, 18540, Note_off_c, 0, 62, 64
2, 18540, Note_on_c, 0, 81, 64
2, 18540, Note_on_c, 0, 61, 64
2, 18630, Note_off_c, 0, 81, 64
2, 18630, Note_on_c, 0, 79, 64
2, 18720, Note_off_c, 0, 79, 64
2, 18720, Note_off_c, 0, 61, 64
2, 18720, Note_off_c, 0, 52, 64
2, 18720, Note_on_c, 0, 77, 64
2, 18720, Note_on_c, 0, 62, 64
2, 18720, Note_on_c, 0, 50, 64
2, 18780, Note_off_c, 0, 62, 64
2, 18780, Note_off_c, 0, 77, 64
2, 18780, Note_on_c, 0, 76, 64
2, 18780, Note_on_c, 0, 64, 64
2, 18840, Note_off_c, 0, 64, 64
2, 18840, Note_off_c, 0, 76, 64
2, 18840, Note_on_c, 0, 74, 64
2, 18840, Note_on_c, 0, 65, 64
2, 18900, Note_off_c, 0, 65, 64
2, 18900, Note_off_c, 0, 74, 64
2, 18900, Note_off_c, 0, 50, 64
2, 18900, Note_on_c, 0, 73, 64
2, 18900, Note_on_c, 0, 67, 64
2, 18960, Note_off_c, 0, 67, 64
2, 18960, Note_off_c, 0, 73, 64
2, 18960, Note_on_c, 0, 74, 64
2, 18960, Note_on_c, 0, 65, 64
2, 19020, Note_off_c, 0, 65, 64
2, 19020, Note_off_c, 0, 74, 64
2, 19020, Note_on_c, 0, 76, 64
2, 19020, Note_on_c, 0, 64, 64
2, 19080, Note_off_c, 0, 64, 64
2, 19080, Note_off_c, 0, 76, 64
2, 19080, Note_on_c, 0, 69, 64
2, 19080, Note_on_c, 0, 65, 64
2, 19140, Note_off_c, 0, 65, 64
2, 19140, Note_off_c, 0, 69, 64
2, 19140, Note_on_c, 0, 67, 64
2, 19140, Note_on_c, 0, 71, 64
2, 19200, Note_off_c, 0, 71, 64
2, 19200, Note_off_c, 0, 67, 64
2, 19200, Note_on_c, 0, 73, 64
2, 19200, Note_on_c, 0, 69, 64
2, 19260, Note_off_c, 0, 69, 64
2, 19260, Note_off_c, 0, 73, 64
2, 19260, Note_on_c, 0, 74, 64
2, 19260, Note_on_c, 0, 70, 64
2, 19320, Note_off_c, 0, 70, 64
2, 19320, Note_off_c, 0, 74, 64
2, 19320, Note_on_c, 0, 73, 64
2, 19320, Note_on_c, 0, 69, 64
2, 19380, Note_off_c, 0, 69, 64
2, 19380, Note_off_c, 0, 73, 64
2, 19380, Note_on_c, 0, 71, 64
2, 19380, Note_on_c, 0, 67, 64
2, 19440, Note_off_c, 0, 67, 64
2, 19440, Note_off_c, 0, 71, 64
2, 19440, Note_on_c, 0, 73, 64
2, 19440, Note_on_c, 0, 69, 64
2, 19500, Note_off_c, 0, 73, 64
2, 19500, Note_on_c, 0, 74, 64
2, 19560, Note_off_c, 0, 74, 64
2, 19560, Note_on_c, 0, 76, 64
2, 19620, Note_off_c, 0, 76, 64
2, 19620, Note_off_c, 0, 69, 64
2, 19620, Note_on_c, 0, 77, 64
2, 19620, Note_on_c, 0, 74, 64
2, 19680, Note_off_c, 0, 77, 64
2, 19680, Note_on_c, 0, 76, 64
2, 19740, Note_off_c, 0, 76, 64
2, 19740, Note_on_c, 0, 74, 64
2, 19800, Note_off_c, 0, 74, 64
2, 19800, Note_off_c, 0, 74, 64
2, 19800, Note_on_c, 0, 76, 64
2, 19800, Note_on_c, 0, 73, 64
2, 19890, Note_on_c, 0, 47, 64
2, 19980, Note_off_c, 0, 47, 64
2, 19980, Note_off_c, 0, 73, 64
2, 19980, Note_off_c, 0, 76, 64
2, 19980, Note_on_c, 0, 72, 64
2, 19980, Note_on_c, 0, 81, 64
2, 19980, Note_on_c, 0, 48, 64
2, 20070, Note_off_c, 0, 48, 64
2, 20070, Note_on_c, 0, 50, 64
2, 20160, Note_off_c, 0, 50, 64
2, 20160, Note_off_c, 0, 81, 64
2, 20160, Note_off_c, 0, 72, 64
2, 20160, Note_on_c, 0, 80, 64
2, 20160, Note_on_c, 0, 71, 64
2, 20160, Note_on_c, 0, 52, 64
2, 20250, Note_off_c, 0, 52, 64
2, 20250, Note_on_c, 0, 54, 64
2, 20340, Note_off_c, 0, 54, 64
2, 20340, Note_off_c, 0, 71, 64
2, 20340, Note_off_c, 0, 80, 64
2, 20340, Note_on_c, 0, 79, 64
2, 20340, Note_on_c, 0, 70, 64
2, 20340, Note_on_c, 0, 55, 64
2, 20430, Note_off_c, 0, 55, 64
2, 20430, Note_on_c, 0, 52, 64
2, 20520, Note_off_c, 0, 52, 64
2, 20520, Note_off_c, 0, 70, 64
2, 20520, Note_off_c, 0, 79, 64
2, 20520, Note_on_c, 0, 78, 64
2, 20520, Note_on_c, 0, 69, 64
2, 20520, Note_on_c, 0, 57, 64
2, 20610, Note_off_c, 0, 57, 64
2, 20610, Note_on_c, 0, 56, 64
2, 20700, Note_off_c, 0, 56, 64
2, 20700, Note_off_c, 0, 78, 64
2, 20700, Note_on_c, 0, 77, 64
2, 20700, Note_on_c, 0, 57, 64
2, 20790, Note_off_c, 0, 57, 64
2, 20790, Note_on_c, 0, 59, 64
2, 20880, Note_off_c, 0, 59, 64
2, 20880, Note_off_c, 0, 77, 64
2, 20880, Note_on_c, 0, 76, 64
2, 20880, Note_on_c, 0, 60, 64
2, 20970, Note_off_c, 0, 60, 64
2, 20970, Note_on_c, 0, 54, 64
2, 21060, Note_off_c, 0, 54, 64
2, 21060, Note_off_c, 0, 76, 64
2, 21060, Note_off_c, 0, 69, 64
2, 21060, Note_on_c, 0, 59, 64
2, 21060, Note_on_c, 0, 74, 64
2, 21150, Note_off_c, 0, 59, 64
2, 21150, Note_on_c, 0, 65, 64
2, 21150, Note_on_c, 0, 57, 64
2, 21240, Note_off_c, 0, 57, 64
2, 21240, Note_off_c, 0, 65, 64
2, 21240, Note_on_c, 0, 64, 64
2, 21240, Note_on_c, 0, 56, 64
2, 21330, Note_off_c, 0, 56, 64
2, 21330, Note_on_c, 0, 52, 64
2, 21420, Note_off_c, 0, 52, 64
2, 21420, Note_off_c, 0, 74, 64
2, 21420, Note_on_c, 0, 57, 64
2, 21420, Note_on_c, 0, 72, 64
2, 21510, Note_off_c, 0, 64, 64
2, 21510, Note_on_c, 0, 64, 64
2, 21600, Note_off_c, 0, 64, 64
2, 21600, Note_off_c, 0, 72, 64
2, 21600, Note_on_c, 0, 71, 64
2, 21600, Note_on_c, 0, 62, 64
2, 21690, Note_off_c, 0, 57, 64
2, 21690, Note_on_c, 0, 50, 64
2, 21780, Note_off_c, 0, 50, 64
2, 21780, Note_off_c, 0, 71, 64
2, 21780, Note_on_c, 0, 70, 64
2, 21780, Note_on_c, 0, 55, 64
2, 21870, Note_off_c, 0, 55, 64
2, 21870, Note_off_c, 0, 62, 64
2, 21870, Note_on_c, 0, 62, 64
2, 21870, Note_on_c, 0, 53, 64
2, 21960, Note_off_c, 0, 53, 64
2, 21960, Note_off_c, 0, 62, 64
2, 21960, Note_on_c, 0, 60, 64
2, 21960, Note_on_c, 0, 52, 64
2, 22050, Note_off_c, 0, 52, 64
2, 22050, Note_on_c, 0, 48, 64
2, 22140, Note_off_c, 0, 48, 64
2, 22140, Note_off_c, 0, 70, 64
2, 22140, Note_on_c, 0, 69, 64
2, 22140, Note_on_c, 0, 53, 64
2, 22230, Note_off_c, 0, 60, 64
2, 22230, Note_on_c, 0, 60, 64
2, 22320, Note_off_c, 0, 60, 64
2, 22320, Note_off_c, 0, 69, 64
2, 22320, Note_on_c, 0, 68, 64
2, 22320, Note_on_c, 0, 59, 64
2, 22410, Note_off_c, 0, 53, 64
2, 22410, Note_on_c, 0, 47, 64
2, 22500, Note_off_c, 0, 47, 64
2, 22500, Note_off_c, 0, 68, 64
2, 22500, Note_on_c, 0, 67, 64
2, 22500, Note_on_c, 0, 52, 64
2, 22590, Note_off_c, 0, 52, 64
2, 22590, Note_off_c, 0, 59, 64
2, 22590, Note_on_c, 0, 58, 64
2, 22590, Note_on_c, 0, 50, 64
2, 22680, Note_off_c, 0, 50, 64
2, 22680, Note_off_c, 0, 58, 64
2, 22680, Note_on_c, 0, 57, 64
2, 22680, Note_on_c, 0, 49, 64
2, 22770, Note_off_c, 0, 49, 64
2, 22770, Note_on_c, 0, 45, 64
2, 22830, Note_off_c, 0, 67, 64
2, 22860, Note_off_c, 0, 45, 64
2, 22860, Note_off_c, 0, 57, 64
2, 22860, Note_on_c, 0, 67, 72
2, 22860, Note_on_c, 0, 50, 64
2, 22880, Note_off_c, 0, 67, 27
2, 22880, Note_on_c, 0, 65, 50
2, 22900, Note_off_c, 0, 65, 30
2, 22900, Note_on_c, 0, 67, 52
2, 22920, Note_off_c, 0, 67, 15
2, 22920, Note_on_c, 0, 65, 55
2, 22940, Note_off_c, 0, 65, 30
2, 22940, Note_on_c, 0, 67, 57
2, 22960, Note_off_c, 0, 67, 37
2, 22960, Note_on_c, 0, 65, 59
2, 22980, Note_off_c, 0, 65, 21
2, 22980, Note_on_c, 0, 67, 61
2, 23000, Note_off_c, 0, 67, 40
2, 23000, Note_on_c, 0, 65, 63
2, 23040, Note_off_c, 0, 65, 25
2, 23040, Note_on_c, 0, 64, 64
2, 23040, Note_on_c, 0, 69, 64
2, 23100, Note_off_c, 0, 69, 64
2, 23100, Note_on_c, 0, 67, 64
2, 23160, Note_off_c, 0, 67, 64
2, 23160, Note_on_c, 0, 65, 64
2, 23220, Note_off_c, 0, 65, 64
2, 23220, Note_off_c, 0, 64, 64
2, 23220, Note_off_c, 0, 50, 64
2, 23220, Note_on_c, 0, 64, 64
2, 23220, Note_on_c, 0, 49, 64
2, 23280, Note_off_c, 0, 64, 64
2, 23280, Note_on_c, 0, 65, 64
2, 23340, Note_off_c, 0, 65, 64
2, 23340, Note_on_c, 0, 67, 64
2, 23400, Note_off_c, 0, 67, 64
2, 23400, Note_off_c, 0, 49, 64
2, 23400, Note_on_c, 0, 65, 64
2, 23400, Note_on_c, 0, 50, 64
2, 23460, Note_off_c, 0, 50, 64
2, 23460, Note_off_c, 0, 65, 64
2, 23460, Note_on_c, 0, 64, 64
2, 23460, Note_on_c, 0, 48, 64
2, 23520, Note_off_c, 0, 48, 64
2, 23520, Note_off_c, 0, 64, 64
2, 23520, Note_on_c, 0, 62, 64
2, 23520, Note_on_c, 0, 46, 64
2, 23580, Note_off_c, 0, 46, 64
2, 23580, Note_off_c, 0, 62, 64
2, 23580, Note_on_c, 0, 61, 64
2, 23580, Note_on_c, 0, 45, 64
2, 23640, Note_off_c, 0, 45, 64
2, 23640, Note_off_c, 0, 61, 64
2, 23640, Note_on_c, 0, 62, 64
2, 23640, Note_on_c, 0, 46, 64
2, 23700, Note_off_c, 0, 46, 64
2, 23700, Note_off_c, 0, 62, 64
2, 23700, Note_on_c, 0, 64, 64
2, 23700, Note_on_c, 0, 48, 64
2, 23760, Note_off_c, 0, 48, 64
2, 23760, Note_off_c, 0, 64, 64
2, 23760, Note_on_c, 0, 62, 64
2, 23760, Note_on_c, 0, 46, 64
2, 23820, Note_off_c, 0, 46, 64
2, 23820, Note_on_c, 0, 45, 64
2, 23880, Note_off_c, 0, 45, 64
2, 23880, Note_on_c, 0, 43, 64
2, 23940, Note_off_c, 0, 43, 64
2, 23940, Note_off_c, 0, 62, 64
2, 23940, Note_on_c, 0, 42, 64
2, 23940, Note_on_c, 0, 57, 64
2, 24000, Note_off_c, 0, 42, 64
2, 24000, Note_on_c, 0, 43, 64
2, 24060, Note_off_c, 0, 43, 64
2, 24060, Note_on_c, 0, 45, 64
2, 24120, Note_off_c, 0, 45, 64
2, 24120, Note_off_c, 0, 57, 64
2, 24120, Note_on_c, 0, 58, 64
2, 24120, Note_on_c, 0, 43, 64
2, 24180, Note_on_c, 0, 62, 64
2, 24240, Note_off_c, 0, 62, 64
2, 24240, Note_on_c, 0, 64, 64
2, 24300, Note_off_c, 0, 64, 64
2, 24300, Note_off_c, 0, 43, 64
2, 24300, Note_off_c, 0, 58, 64
2, 24300, Note_on_c, 0, 65, 64
2, 24300, Note_on_c, 0, 59, 64
2, 24300, Note_on_c, 0, 38, 64
2, 24360, Note_off_c, 0, 65, 64
2, 24360, Note_on_c, 0, 64, 64
2, 24420, Note_off_c, 0, 64, 64
2, 24420, Note_on_c, 0, 62, 64
2, 24480, Note_off_c, 0, 62, 64
2, 24480, Note_off_c, 0, 38, 64
2, 24480, Note_off_c, 0, 59, 64
2, 24480, Note_on_c, 0, 60, 64
2, 24480, Note_on_c, 0, 39, 64
2, 24540, Note_on_c, 0, 70, 64
2, 24600, Note_off_c, 0, 70, 64
2, 24600, Note_on_c, 0, 69, 64
2, 24660, Note_off_c, 0, 69, 64
2, 24660, Note_off_c, 0, 39, 64
2, 24660, Note_off_c, 0, 60, 64
2, 24660, Note_on_c, 0, 67, 64
2, 24660, Note_on_c, 0, 61, 64
2, 24660, Note_on_c, 0, 40, 64
2, 24720, Note_off_c, 0, 67, 64
2, 24720, Note_on_c, 0, 69, 64
2, 24780, Note_off_c, 0, 69, 64
2, 24780, Note_on_c, 0, 70, 64
2, 24840, Note_off_c, 0, 70, 64
2, 24840, Note_off_c, 0, 40, 64
2, 24840, Note_off_c, 0, 61, 64
2, 24840, Note_on_c, 0, 41, 64
2, 24840, Note_on_c, 0, 62, 64
2, 24900, Note_on_c, 0, 69, 64
2, 24960, Note_off_c, 0, 69, 64
2, 24960, Note_on_c, 0, 70, 64
2, 25020, Note_off_c, 0, 70, 64
2, 25020, Note_off_c, 0, 41, 64
2, 25020, Note_on_c, 0, 72, 64
2, 25020, Note_on_c, 0, 42, 64
2, 25080, Note_off_c, 0, 72, 64
2, 25080, Note_on_c, 0, 70, 64
2, 25140, Note_off_c, 0, 70, 64
2, 25140, Note_on_c, 0, 69, 64
2, 25200, Note_off_c, 0, 69, 64
2, 25200, Note_off_c, 0, 42, 64
2, 25200, Note_on_c, 0, 70, 64
2, 25200, Note_on_c, 0, 43, 64
2, 25260, Note_off_c, 0, 43, 64
2, 25260, Note_on_c, 0, 45, 64
2, 25320, Note_off_c, 0, 45, 64
2, 25320, Note_on_c, 0, 46, 64
2, 25380, Note_off_c, 0, 46, 64
2, 25380, Note_off_c, 0, 70, 64
2, 25380, Note_on_c, 0, 66, 64
2, 25380, Note_on_c, 0, 48, 64
2, 25440, Note_off_c, 0, 48, 64
2, 25440, Note_on_c, 0, 46, 64
2, 25500, Note_off_c, 0, 46, 64
2, 25500, Note_on_c, 0, 45, 64
2, 25560, Note_off_c, 0, 45, 64
2, 25560, Note_off_c, 0, 66, 64
2, 25560, Note_on_c, 0, 67, 64
2, 25560, Note_on_c, 0, 46, 64
2, 25620, Note_off_c, 0, 46, 64
2, 25620, Note_off_c, 0, 67, 64
2, 25620, Note_on_c, 0, 69, 64
2, 25620, Note_on_c, 0, 48, 64
2, 25680, Note_off_c, 0, 48, 64
2, 25680, Note_off_c, 0, 69, 64
2, 25680, Note_on_c, 0, 70, 64
2, 25680, Note_on_c, 0, 50, 64
2, 25740, Note_off_c, 0, 50, 64
2, 25740, Note_off_c, 0, 70, 64
2, 25740, Note_off_c, 0, 62, 64
2, 25740, Note_on_c, 0, 72, 64
2, 25740, Note_on_c, 0, 51, 64
2, 25800, Note_off_c, 0, 51, 64
2, 25800, Note_off_c, 0, 72, 64
2, 25800, Note_on_c, 0, 70, 64
2, 25800, Note_on_c, 0, 50, 64
2, 25860, Note_off_c, 0, 50, 64
2, 25860, Note_off_c, 0, 70, 64
2, 25860, Note_on_c, 0, 48, 64
2, 25860, Note_on_c, 0, 69, 64
2, 25920, Note_off_c, 0, 69, 64
2, 25920, Note_off_c, 0, 48, 64
2, 25920, Note_on_c, 0, 70, 64
2, 25920, Note_on_c, 0, 50, 64
2, 25980, Note_off_c, 0, 70, 64
2, 25980, Note_on_c, 0, 72, 64
2, 26040, Note_off_c, 0, 72, 64
2, 26040, Note_on_c, 0, 74, 64
2, 26100, Note_off_c, 0, 74, 64
2, 26100, Note_off_c, 0, 50, 64
2, 26100, Note_on_c, 0, 75, 64
2, 26100, Note_on_c, 0, 55, 64
2, 26160, Note_off_c, 0, 75, 64
2, 26160, Note_on_c, 0, 74, 64
2, 26220, Note_off_c, 0, 74, 64
2, 26220, Note_on_c, 0, 73, 64
2, 26280, Note_off_c, 0, 73, 64
2, 26280, Note_on_c, 0, 74, 64
2, 26340, Note_on_c, 0, 72, 64
2, 26400, Note_off_c, 0, 72, 64
2, 26400, Note_on_c, 0, 70, 64
2, 26460, Note_off_c, 0, 70, 64
2, 26460, Note_off_c, 0, 55, 64
2, 26460, Note_on_c, 0, 69, 64
2, 26460, Note_on_c, 0, 54, 64
2, 26520, Note_off_c, 0, 69, 64
2, 26520, Note_on_c, 0, 70, 64
2, 26580, Note_off_c, 0, 70, 64
2, 26580, Note_on_c, 0, 72, 64
2, 26640, Note_off_c, 0, 72, 64
2, 26640, Note_off_c, 0, 54, 64
2, 26640, Note_on_c, 0, 70, 64
2, 26640, Note_on_c, 0, 55, 64
2, 26700, Note_off_c, 0, 55, 64
2, 26700, Note_on_c, 0, 53, 64
2, 26760, Note_off_c, 0, 53, 64
2, 26760, Note_on_c, 0, 52, 64
2, 26820, Note_off_c, 0, 52, 64
2, 26820, Note_off_c, 0, 70, 64
2, 26820, Note_off_c, 0, 74, 64
2, 26820, Note_on_c, 0, 50, 64
2, 26820, Note_on_c, 0, 74, 64
2, 26880, Note_off_c, 0, 50, 64
2, 26880, Note_on_c, 0, 52, 64
2, 26940, Note_off_c, 0, 52, 64
2, 26940, Note_on_c, 0, 53, 64
2, 27000, Note_off_c, 0, 53, 64
2, 27000, Note_off_c, 0, 74, 64
2, 27000, Note_on_c, 0, 79, 64
2, 27000, Note_on_c, 0, 67, 64
2, 27000, Note_on_c, 0, 52, 64
2, 27060, Note_off_c, 0, 79, 64
2, 27060, Note_on_c, 0, 77, 64
2, 27120, Note_off_c, 0, 77, 64
2, 27120, Note_on_c, 0, 76, 64
2, 27180, Note_off_c, 0, 76, 64
2, 27180, Note_off_c, 0, 52, 64
2, 27180, Note_off_c, 0, 67, 64
2, 27180, Note_on_c, 0, 74, 64
2, 27180, Note_on_c, 0, 71, 64
2, 27180, Note_on_c, 0, 55, 64
2, 27240, Note_off_c, 0, 74, 64
2, 27240, Note_on_c, 0, 76, 64
2, 27300, Note_off_c, 0, 76, 64
2, 27300, Note_on_c, 0, 77, 64
2, 27360, Note_off_c, 0, 77, 64
2, 27360, Note_off_c, 0, 55, 64
2, 27360, Note_off_c, 0, 71, 64
2, 27360, Note_on_c, 0, 76, 64
2, 27360, Note_on_c, 0, 72, 64
2, 27360, Note_on_c, 0, 60, 64
2, 27420, Note_off_c, 0, 60, 64
2, 27420, Note_on_c, 0, 58, 64
2, 27480, Note_off_c, 0, 58, 64
2, 27480, Note_on_c, 0, 57, 64
2, 27540, Note_off_c, 0, 57, 64
2, 27540, Note_off_c, 0, 72, 64
2, 27540, Note_off_c, 0, 76, 64
2, 27540, Note_on_c, 0, 79, 64
2, 27540, Note_on_c, 0, 55, 64
2, 27600, Note_off_c, 0, 55, 64
2, 27600, Note_on_c, 0, 57, 64
2, 27660, Note_off_c, 0, 57, 64
2, 27660, Note_on_c, 0, 58, 64
2, 27720, Note_off_c, 0, 58, 64
2, 27720, Note_off_c, 0, 79, 64
2, 27720, Note_on_c, 0, 57, 64
2, 27720, Note_on_c, 0, 72, 64
2, 27780, Note_on_c, 0, 70, 64
2, 27840, Note_off_c, 0, 70, 64
2, 27840, Note_on_c, 0, 69, 64
2, 27900, Note_off_c, 0, 69, 64
2, 27900, Note_off_c, 0, 72, 64
2, 27900, Note_off_c, 0, 57, 64
2, 27900, Note_on_c, 0, 67, 64
2, 27900, Note_on_c, 0, 60, 64
2, 27960, Note_off_c, 0, 67, 64
2, 27960, Note_on_c, 0, 69, 64
2, 28020, Note_off_c, 0, 69, 64
2, 28020, Note_on_c, 0, 70, 64
2, 28080, Note_off_c, 0, 70, 64
2, 28080, Note_off_c, 0, 60, 64
2, 28080, Note_on_c, 0, 69, 64
2, 28080, Note_on_c, 0, 53, 64
2, 28140, Note_off_c, 0, 53, 64
2, 28140, Note_on_c, 0, 51, 64
2, 28200, Note_off_c, 0, 51, 64
2, 28200, Note_on_c, 0, 50, 64
2, 28260, Note_off_c, 0, 50, 64
2, 28260, Note_off_c, 0, 69, 64
2, 28260, Note_on_c, 0, 72, 64
2, 28260, Note_on_c, 0, 48, 64
2, 28320, Note_off_c, 0, 48, 64
2, 28320, Note_on_c, 0, 50, 64
2, 28380, Note_off_c, 0, 50, 64
2, 28380, Note_on_c, 0, 51, 64
2, 28440, Note_off_c, 0, 51, 64
2, 28440, Note_off_c, 0, 72, 64
2, 28440, Note_on_c, 0, 77, 64
2, 28440, Note_on_c, 0, 65, 64
2, 28440, Note_on_c, 0, 50, 64
2, 28500, Note_off_c, 0, 77, 64
2, 28500, Note_on_c, 0, 75, 64
2, 28560, Note_off_c, 0, 75, 64
2, 28560, Note_on_c, 0, 74, 64
2, 28620, Note_off_c, 0, 74, 64
2, 28620, Note_off_c, 0, 50, 64
2, 28620, Note_off_c, 0, 65, 64
2, 28620, Note_on_c, 0, 53, 64
2, 28620, Note_on_c, 0, 69, 64
2, 28620, Note_on_c, 0, 72, 64
2, 28680, Note_off_c, 0, 72, 64
2, 28680, Note_on_c, 0, 74, 64
2, 28740, Note_off_c, 0, 74, 64
2, 28740, Note_on_c, 0, 75, 64
2, 28800, Note_off_c, 0, 75, 64
2, 28800, Note_off_c, 0, 69, 64
2, 28800, Note_off_c, 0, 53, 64
2, 28800, Note_on_c, 0, 74, 64
2, 28800, Note_on_c, 0, 70, 64
2, 28800, Note_on_c, 0, 58, 64
2, 28860, Note_off_c, 0, 58, 64
2, 28860, Note_on_c, 0, 57, 64
2, 28920, Note_off_c, 0, 57, 64
2, 28920, Note_on_c, 0, 55, 64
2, 28980, Note_off_c, 0, 55, 64
2, 28980, Note_off_c, 0, 70, 64
2, 28980, Note_on_c, 0, 69, 64
2, 28980, Note_on_c, 0, 54, 64
2, 29040, Note_off_c, 0, 54, 64
2, 29040, Note_on_c, 0, 55, 64
2, 29100, Note_off_c, 0, 55, 64
2, 29100, Note_on_c, 0, 57, 64
2, 29160, Note_off_c, 0, 57, 64
2, 29160, Note_off_c, 0, 74, 64
2, 29160, Note_on_c, 0, 73, 64
2, 29160, Note_on_c, 0, 55, 64
2, 29220, Note_off_c, 0, 55, 64
2, 29220, Note_off_c, 0, 73, 64
2, 29220, Note_on_c, 0, 74, 64
2, 29220, Note_on_c, 0, 53, 64
2, 29280, Note_off_c, 0, 53, 64
2, 29280, Note_off_c, 0, 74, 64
2, 29280, Note_on_c, 0, 76, 64
2, 29280, Note_on_c, 0, 52, 64
2, 29340, Note_off_c, 0, 52, 64
2, 29340, Note_off_c, 0, 76, 64
2, 29340, Note_on_c, 0, 77, 64
2, 29340, Note_on_c, 0, 50, 64
2, 29400, Note_off_c, 0, 50, 64
2, 29400, Note_off_c, 0, 77, 64
2, 29400, Note_on_c, 0, 76, 64
2, 29400, Note_on_c, 0, 52, 64
2, 29460, Note_off_c, 0, 52, 64
2, 29460, Note_off_c, 0, 76, 64
2, 29460, Note_on_c, 0, 74, 64
2, 29460, Note_on_c, 0, 53, 64
2, 29520, Note_off_c, 0, 53, 64
2, 29520, Note_off_c, 0, 74, 64
2, 29520, Note_on_c, 0, 76, 64
2, 29520, Note_on_c, 0, 52, 64
2, 29580, Note_off_c, 0, 52, 64
2, 29580, Note_off_c, 0, 76, 64
2, 29580, Note_on_c, 0, 77, 64
2, 29580, Note_on_c, 0, 50, 64
2, 29640, Note_off_c, 0, 50, 64
2, 29640, Note_off_c, 0, 77, 64
2, 29640, Note_on_c, 0, 79, 64
2, 29640, Note_on_c, 0, 48, 64
2, 29700, Note_off_c, 0, 48, 64
2, 29700, Note_off_c, 0, 79, 64
2, 29700, Note_on_c, 0, 47, 64
2, 29700, Note_on_c, 0, 81, 64
2, 29760, Note_off_c, 0, 81, 64
2, 29760, Note_off_c, 0, 47, 64
2, 29760, Note_on_c, 0, 79, 64
2, 29760, Note_on_c, 0, 49, 64
2, 29820, Note_off_c, 0, 49, 64
2, 29820, Note_off_c, 0, 79, 64
2, 29820, Note_on_c, 0, 77, 64
2, 29820, Note_on_c, 0, 50, 64
2, 29880, Note_off_c, 0, 50, 64
2, 29880, Note_off_c, 0, 77, 64
2, 29880, Note_on_c, 0, 79, 64
2, 29880, Note_on_c, 0, 49, 64
2, 29970, Note_off_c, 0, 49, 64
2, 29970, Note_off_c, 0, 69, 64
2, 29970, Note_on_c, 0, 69, 64
2, 29970, Note_on_c, 0, 45, 64
2, 30060, Note_off_c, 0, 45, 64
2, 30060, Note_off_c, 0, 69, 64
2, 30060, Note_off_c, 0, 79, 64
2, 30060, Note_on_c, 0, 50, 64
2, 30060, Note_on_c, 0, 77, 64
2, 30060, Note_on_c, 0, 70, 64
2, 30150, Note_off_c, 0, 70, 64
2, 30150, Note_on_c, 0, 69, 64
2, 30240, Note_off_c, 0, 69, 64
2, 30240, Note_off_c, 0, 77, 64
2, 30240, Note_on_c, 0, 76, 64
2, 30240, Note_on_c, 0, 67, 64
2, 30330, Note_off_c, 0, 67, 64
2, 30330, Note_on_c, 0, 70, 64
2, 30420, Note_off_c, 0, 70, 64
2, 30420, Note_off_c, 0, 50, 64
2, 30420, Note_on_c, 0, 69, 64
2, 30420, Note_on_c, 0, 49, 64
2, 30510, Note_off_c, 0, 69, 64
2, 30510, Note_on_c, 0, 67, 64
2, 30600, Note_off_c, 0, 67, 64
2, 30600, Note_off_c, 0, 49, 64
2, 30600, Note_off_c, 0, 76, 64
2, 30600, Note_on_c, 0, 50, 64
2, 30600, Note_on_c, 0, 65, 64
2, 30690, Note_on_c, 0, 74, 64
2, 30780, Note_off_c, 0, 74, 64
2, 30780, Note_off_c, 0, 65, 64
2, 30780, Note_off_c, 0, 50, 64
2, 30780, Note_on_c, 0, 75, 64
2, 30780, Note_on_c, 0, 58, 64
2, 30780, Note_on_c, 0, 55, 64
2, 30870, Note_off_c, 0, 75, 64
2, 30870, Note_on_c, 0, 74, 64
2, 30960, Note_off_c, 0, 74, 64
2, 30960, Note_off_c, 0, 58, 64
2, 30960, Note_on_c, 0, 73, 64
2, 30960, Note_on_c, 0, 57, 64
2, 31050, Note_off_c, 0, 73, 64
2, 31050, Note_on_c, 0, 76, 64
2, 31140, Note_off_c, 0, 76, 64
2, 31140, Note_off_c, 0, 55, 64
2, 31140, Note_on_c, 0, 74, 64
2, 31140, Note_on_c, 0, 54, 64
2, 31230, Note_off_c, 0, 74, 64
2, 31230, Note_on_c, 0, 72, 64
2, 31320, Note_off_c, 0, 72, 64
2, 31320, Note_off_c, 0, 54, 64
2, 31320, Note_off_c, 0, 57, 64
2, 31320, Note_on_c, 0, 71, 64
2, 31320, Note_on_c, 0, 55, 64
2, 31410, Note_on_c, 0, 53, 64
2, 31500, Note_off_c, 0, 53, 64
2, 31500, Note_off_c, 0, 55, 64
2, 31500, Note_off_c, 0, 71, 64
2, 31500, Note_on_c, 0, 67, 64
2, 31500, Note_on_c, 0, 70, 64
2, 31500, Note_on_c, 0, 52, 64
2, 31590, Note_off_c, 0, 52, 64
2, 31590, Note_on_c, 0, 50, 64
2, 31680, Note_off_c, 0, 50, 64
2, 31680, Note_off_c, 0, 70, 64
2, 31680, Note_on_c, 0, 69, 64
2, 31680, Note_on_c, 0, 49, 64
2, 31770, Note_off_c, 0, 49, 64
2, 31770, Note_on_c, 0, 52, 64
2, 31860, Note_off_c, 0, 52, 64
2, 31860, Note_off_c, 0, 67, 64
2, 31860, Note_on_c, 0, 65, 64
2, 31860, Note_on_c, 0, 50, 64
2, 31950, Note_off_c, 0, 50, 64
2, 31950, Note_off_c, 0, 65, 64
2, 31950, Note_on_c, 0, 64, 64
2, 31950, Note_on_c, 0, 48, 64
2, 32040, Note_off_c, 0, 48, 64
2, 32040, Note_off_c, 0, 64, 64
2, 32040, Note_on_c, 0, 62, 64
2, 32040, Note_on_c, 0, 47, 64
2, 32130, Note_off_c, 0, 62, 64
2, 32130, Note_on_c, 0, 65, 64
2, 32220, Note_off_c, 0, 65, 64
2, 32220, Note_off_c, 0, 47, 64
2, 32220, Note_off_c, 0, 69, 64
2, 32220, Note_on_c, 0, 67, 64
2, 32220, Note_on_c, 0, 64, 64
2, 32220, Note_on_c, 0, 46, 64
2, 32310, Note_off_c, 0, 64, 64
2, 32310, Note_on_c, 0, 62, 64
2, 32400, Note_off_c, 0, 62, 64
2, 32400, Note_off_c, 0, 46, 64
2, 32400, Note_on_c, 0, 61, 64
2, 32400, Note_on_c, 0, 45, 64
2, 32490, Note_off_c, 0, 45, 64
2, 32490, Note_on_c, 0, 57, 64
2, 32580, Note_off_c, 0, 57, 64
2, 32580, Note_off_c, 0, 61, 64
2, 32580, Note_off_c, 0, 67, 64
2, 32580, Note_on_c, 0, 62, 64
2, 32580, Note_on_c, 0, 58, 64
2, 32580, Note_on_c, 0, 65, 64
2, 32670, Note_off_c, 0, 58, 64
2, 32670, Note_on_c, 0, 57, 64
2, 32760, Note_off_c, 0, 57, 64
2, 32760, Note_off_c, 0, 65, 64
2, 32760, Note_on_c, 0, 64, 64
2, 32760, Note_on_c, 0, 55, 64
2, 32850, Note_off_c, 0, 55, 64
2, 32850, Note_on_c, 0, 58, 64
2, 32940, Note_off_c, 0, 58, 64
2, 32940, Note_off_c, 0, 62, 64
2, 32940, Note_on_c, 0, 61, 64
2, 32940, Note_on_c, 0, 57, 64
2, 33030, Note_off_c, 0, 57, 64
2, 33030, Note_on_c, 0, 55, 64
2, 33120, Note_off_c, 0, 55, 64
2, 33120, Note_off_c, 0, 61, 64
2, 33120, Note_off_c, 0, 64, 64
2, 33120, Note_on_c, 0, 62, 64
2, 33120, Note_on_c, 0, 53, 64
2, 33210, Note_off_c, 0, 53, 64
2, 33210, Note_on_c, 0, 60, 64
2, 33210, Note_on_c, 0, 57, 64
2, 33300, Note_off_c, 0, 57, 64
2, 33300, Note_off_c, 0, 60, 64
2, 33300, Note_on_c, 0, 58, 64
2, 33300, Note_on_c, 0, 55, 64
2, 33390, Note_off_c, 0, 55, 64
2, 33390, Note_off_c, 0, 58, 64
2, 33390, Note_on_c, 0, 57, 64
2, 33390, Note_on_c, 0, 53, 64
2, 33480, Note_off_c, 0, 53, 64
2, 33480, Note_off_c, 0, 57, 64
2, 33480, Note_off_c, 0, 62, 64
2, 33480, Note_on_c, 0, 55, 64
2, 33480, Note_on_c, 0, 52, 64
2, 33570, Note_off_c, 0, 52, 64
2, 33570, Note_off_c, 0, 55, 64
2, 33570, Note_on_c, 0, 50, 64
2, 33570, Note_on_c, 0, 58, 64
2, 33660, Note_off_c, 0, 58, 64
2, 33660, Note_off_c, 0, 50, 64
2, 33660, Note_on_c, 0, 57, 64
2, 33660, Note_on_c, 0, 49, 64
2, 33750, Note_off_c, 0, 49, 64
2, 33750, Note_off_c, 0, 57, 64
2, 33750, Note_on_c, 0, 55, 64
2, 33750, Note_on_c, 0, 52, 64
2, 33840, Note_off_c, 0, 52, 64
2, 33840, Note_off_c, 0, 55, 64
2, 33840, Note_on_c, 0, 53, 64
2, 33840, Note_on_c, 0, 50, 64
2, 33930, Note_off_c, 0, 50, 64
2, 33930, Note_off_c, 0, 53, 64
2, 33930, Note_on_c, 0, 57, 64
2, 33930, Note_on_c, 0, 48, 64
2, 34020, Note_off_c, 0, 48, 64
2, 34020, Note_off_c, 0, 57, 64
2, 34020, Note_on_c, 0, 55, 64
2, 34020, Note_on_c, 0, 46, 64
2, 34110, Note_off_c, 0, 46, 64
2, 34110, Note_off_c, 0, 55, 64
2, 34110, Note_on_c, 0, 53, 64
2, 34110, Note_on_c, 0, 45, 64
2, 34200, Note_off_c, 0, 45, 64
2, 34200, Note_off_c, 0, 53, 64
2, 34200, Note_on_c, 0, 52, 64
2, 34200, Note_on_c, 0, 43, 64
2, 34290, Note_off_c, 0, 43, 64
2, 34290, Note_off_c, 0, 52, 64
2, 34290, Note_on_c, 0, 50, 64
2, 34290, Note_on_c, 0, 46, 64
2, 34380, Note_off_c, 0, 46, 64
2, 34380, Note_off_c, 0, 50, 64
2, 34380, Note_on_c, 0, 49, 64
2, 34380, Note_on_c, 0, 45, 64
2, 34470, Note_off_c, 0, 45, 64
2, 34470, Note_off_c, 0, 49, 64
2, 34470, Note_on_c, 0, 43, 64
2, 34470, Note_on_c, 0, 52, 64
2, 34560, Note_off_c, 0, 52, 64
2, 34560, Note_off_c, 0, 43, 64
2, 34560, Note_on_c, 0, 50, 64
2, 34560, Note_on_c, 0, 41, 64
2, 34620, Note_off_c, 0, 50, 64
2, 34620, Note_on_c, 0, 52, 64
2, 34680, Note_off_c, 0, 52, 64
2, 34680, Note_on_c, 0, 53, 64
2, 34740, Note_off_c, 0, 53, 64
2, 34740, Note_off_c, 0, 41, 64
2, 34740, Note_on_c, 0, 55, 64
2, 34740, Note_on_c, 0, 46, 64
2, 34800, Note_off_c, 0, 55, 64
2, 34800, Note_on_c, 0, 53, 64
2, 34860, Note_off_c, 0, 53, 64
2, 34860, Note_on_c, 0, 52, 64
2, 34920, Note_off_c, 0, 52, 64
2, 34920, Note_off_c, 0, 46, 64
2, 34920, Note_on_c, 0, 53, 64
2, 34920, Note_on_c, 0, 45, 64
2, 34980, Note_off_c, 0, 45, 64
2, 34980, Note_off_c, 0, 53, 64
2, 34980, Note_on_c, 0, 55, 64
2, 34980, Note_on_c, 0, 43, 64
2, 35040, Note_off_c, 0, 43, 64
2, 35040, Note_off_c, 0, 55, 64
2, 35040, Note_on_c, 0, 57, 64
2, 35040, Note_on_c, 0, 41, 64
2, 35100, Note_off_c, 0, 41, 64
2, 35100, Note_off_c, 0, 57, 64
2, 35100, Note_on_c, 0, 58, 64
2, 35100, Note_on_c, 0, 40, 64
2, 35160, Note_off_c, 0, 40, 64
2, 35160, Note_off_c, 0, 58, 64
2, 35160, Note_on_c, 0, 57, 64
2, 35160, Note_on_c, 0, 41, 64
2, 35220, Note_off_c, 0, 41, 64
2, 35220, Note_off_c, 0, 57, 64
2, 35220, Note_on_c, 0, 55, 64
2, 35220, Note_on_c, 0, 43, 64
2, 35280, Note_off_c, 0, 43, 64
2, 35280, Note_off_c, 0, 55, 64
2, 35280, Note_on_c, 0, 57, 64
2, 35280, Note_on_c, 0, 62, 64
2, 35280, Note_on_c, 0, 41, 64
2, 35340, Note_off_c, 0, 41, 64
2, 35340, Note_off_c, 0, 62, 64
2, 35340, Note_on_c, 0, 64, 64
2, 35340, Note_on_c, 0, 40, 64
2, 35400, Note_off_c, 0, 40, 64
2, 35400, Note_off_c, 0, 64, 64
2, 35400, Note_on_c, 0, 65, 64
2, 35400, Note_on_c, 0, 38, 64
2, 35460, Note_off_c, 0, 38, 64
2, 35460, Note_off_c, 0, 65, 64
2, 35460, Note_on_c, 0, 67, 64
2, 35460, Note_on_c, 0, 37, 64
2, 35520, Note_off_c, 0, 37, 64
2, 35520, Note_off_c, 0, 67, 64
2, 35520, Note_on_c, 0, 65, 64
2, 35520, Note_on_c, 0, 38, 64
2, 35580, Note_off_c, 0, 38, 64
2, 35580, Note_off_c, 0, 65, 64
2, 35580, Note_on_c, 0, 64, 64
2, 35580, Note_on_c, 0, 40, 64
2, 35640, Note_off_c, 0, 40, 64
2, 35640, Note_off_c, 0, 64, 64
2, 35640, Note_on_c, 0, 65, 64
2, 35640, Note_on_c, 0, 38, 64
2, 35700, Note_off_c, 0, 65, 64
2, 35700, Note_off_c, 0, 57, 64
2, 35700, Note_on_c, 0, 67, 64
2, 35700, Note_on_c, 0, 55, 64
2, 35760, Note_off_c, 0, 55, 64
2, 35760, Note_off_c, 0, 67, 64
2, 35760, Note_on_c, 0, 69, 64
2, 35760, Note_on_c, 0, 53, 64
2, 35820, Note_off_c, 0, 53, 64
2, 35820, Note_off_c, 0, 69, 64
2, 35820, Note_off_c, 0, 38, 64
2, 35820, Note_on_c, 0, 70, 64
2, 35820, Note_on_c, 0, 52, 64
2, 35880, Note_off_c, 0, 52, 64
2, 35880, Note_off_c, 0, 70, 64
2, 35880, Note_on_c, 0, 69, 64
2, 35880, Note_on_c, 0, 53, 64
2, 35940, Note_off_c, 0, 53, 64
2, 35940, Note_off_c, 0, 69, 64
2, 35940, Note_on_c, 0, 67, 64
2, 35940, Note_on_c, 0, 55, 64
2, 36000, Note_off_c, 0, 55, 64
2, 36000, Note_off_c, 0, 67, 64
2, 36000, Note_on_c, 0, 69, 64
2, 36000, Note_on_c, 0, 53, 64
2, 36090, Note_on_c, 0, 40, 64
2, 36180, Note_off_c, 0, 40, 64
2, 36180, Note_off_c, 0, 53, 64
2, 36180, Note_off_c, 0, 69, 64
2, 36180, Note_on_c, 0, 74, 64
2, 36180, Note_on_c, 0, 65, 64
2, 36180, Note_on_c, 0, 41, 64
2, 36270, Note_off_c, 0, 41, 64
2, 36270, Note_on_c, 0, 43, 64
2, 36360, Note_off_c, 0, 43, 64
2, 36360, Note_off_c, 0, 65, 64
2, 36360, Note_off_c, 0, 74, 64
2, 36360, Note_on_c, 0, 64, 64
2, 36360, Note_on_c, 0, 73, 64
2, 36360, Note_on_c, 0, 45, 64
2, 36450, Note_off_c, 0, 45, 64
2, 36450, Note_on_c, 0, 47, 64
2, 36540, Note_off_c, 0, 47, 64
2, 36540, Note_off_c, 0, 73, 64
2, 36540, Note_off_c, 0, 64, 64
2, 36540, Note_on_c, 0, 72, 64
2, 36540, Note_on_c, 0, 69, 64
2, 36540, Note_on_c, 0, 48, 64
2, 36630, Note_off_c, 0, 48, 64
2, 36630, Note_on_c, 0, 45, 64
2, 36720, Note_off_c, 0, 45, 64
2, 36720, Note_off_c, 0, 72, 64
2, 36720, Note_on_c, 0, 71, 64
2, 36720, Note_on_c, 0, 50, 64
2, 36810, Note_off_c, 0, 50, 64
2, 36810, Note_on_c, 0, 49, 64
2, 36900, Note_off_c, 0, 49, 64
2, 36900, Note_off_c, 0, 71, 64
2, 36900, Note_on_c, 0, 70, 64
2, 36900, Note_on_c, 0, 50, 64
2, 36990, Note_off_c, 0, 50, 64
2, 36990, Note_off_c, 0, 69, 64
2, 36990, Note_on_c, 0, 67, 64
2, 36990, Note_on_c, 0, 52, 64
2, 37080, Note_off_c, 0, 52, 64
2, 37080, Note_off_c, 0, 70, 64
2, 37080, Note_on_c, 0, 69, 64
2, 37080, Note_on_c, 0, 53, 64
2, 37170, Note_off_c, 0, 53, 64
2, 37170, Note_off_c, 0, 67, 64
2, 37170, Note_on_c, 0, 65, 64
2, 37170, Note_on_c, 0, 47, 64
2, 37260, Note_off_c, 0, 47, 64
2, 37260, Note_off_c, 0, 69, 64
2, 37260, Note_on_c, 0, 67, 64
2, 37260, Note_on_c, 0, 52, 64
2, 37350, Note_off_c, 0, 52, 64
2, 37350, Note_off_c, 0, 65, 64
2, 37350, Note_on_c, 0, 50, 64
2, 37350, Note_on_c, 0, 65, 64
2, 37440, Note_off_c, 0, 65, 64
2, 37440, Note_off_c, 0, 50, 64
2, 37440, Note_on_c, 0, 64, 64
2, 37440, Note_on_c, 0, 49, 64
2, 37530, Note_off_c, 0, 49, 64
2, 37530, Note_off_c, 0, 67, 64
2, 37530, Note_on_c, 0, 67, 64
2, 37530, Note_on_c, 0, 45, 64
2, 37620, Note_off_c, 0, 45, 64
2, 37620, Note_off_c, 0, 67, 64
2, 37620, Note_off_c, 0, 64, 64
2, 37620, Note_on_c, 0, 65, 64
2, 37620, Note_on_c, 0, 62, 64
2, 37620, Note_on_c, 0, 50, 64
2, 37710, Note_off_c, 0, 50, 64
2, 37710, Note_off_c, 0, 65, 64
2, 37710, Note_on_c, 0, 64, 64
2, 37710, Note_on_c, 0, 55, 64
2, 37800, Note_off_c, 0, 55, 64
2, 37800, Note_off_c, 0, 64, 64
2, 37800, Note_on_c, 0, 65, 72
2, 37800, Note_on_c, 0, 57, 64
2, 37820, Note_off_c, 0, 65, 25
2, 37820, Note_on_c, 0, 64, 50
2, 37840, Note_off_c, 0, 64, 42
2, 37840, Note_on_c, 0, 65, 54
2, 37860, Note_off_c, 0, 65, 40
2, 37860, Note_on_c, 0, 64, 58
2, 37880, Note_off_c, 0, 64, 36
2, 37880, Note_on_c, 0, 65, 61
2, 37900, Note_off_c, 0, 65, 32
2, 37900, Note_on_c, 0, 64, 64
2, 37980, Note_off_c, 0, 57, 64
2, 37980, Note_off_c, 0, 62, 64
2, 37980, Note_on_c, 0, 61, 64
2, 37980, Note_on_c, 0, 45, 64
2, 38050, Note_off_c, 0, 64, 64
2, 38070, Note_on_c, 0, 62, 64
2, 38150, Note_off_c, 0, 62, 64
2, 38163, Note_off_c, 0, 45, 64
2, 38163, Note_off_c, 0, 61, 64
2, 38163, Note_on_c, 0, 62, 64
2, 38163, Note_on_c, 0, 38, 64
2, 38883, Note_off_c, 0, 38, 64
2, 38883, Note_off_c, 0, 62, 64
2, 38883, End_track
0, 0, End_of_file
