0, 0, Header, 1, 3, 240
1, 0, Start_track
1, 0, Time_signature, 4, 2, 24, 8
1, 0, Tempo, 833333
1, 32640, Text_t, "Repeat Bar\203¶`"
1, 48977, Unknown_event, 00x
1, 48980, Unknown_event, 00x
1, 48993, Unknown_event, 00x
1, 49013, Unknown_event, 00x
1, 49068, Note_off_c, 1, 112, 255
1, 49149, Note_off_c, 1, 3, 13
1, 49267, Control_c, 1, 120, 255
1, 49348, Control_c, 1, 3, 14
1, 49426, Control_c, 1, 28, 120
1, 65763, Control_c, 1, 3, 15
1, 65765, Control_c, 1, 55, 120
1, 82102, Control_c, 1, 3, 15
1, 1276590, Tempo, 1090909
1, 1276710, Tempo, 1333333
1, 1276710, End_track
2, 0, Start_track
2, 0, Text_t, "RH B"
2, 0, Note_on_c, 0, 66, 64
2, 240, Note_off_c, 0, 66, 66
2, 240, Note_on_c, 0, 71, 64
2, 480, Note_on_c, 0, 73, 64
2, 720, Note_off_c, 0, 73, 63
2, 720, Note_off_c, 0, 71, 70
2, 720, Note_on_c, 0, 69, 64
2, 720, Note_on_c, 0, 78, 64
2, 960, Note_off_c, 0, 69, 70
2, 960, Note_on_c, 0, 68, 64
2, 1200, Note_off_c, 0, 78, 46
2, 1200, Note_off_c, 0, 68, 77
2, 1200, Note_on_c, 0, 73, 64
2, 1200, Note_on_c, 0, 76, 64
2, 1440, Note_off_c, 0, 76, 30
2, 1440, Note_on_c, 0, 74, 64
2, 1680, Note_off_c, 0, 73, 59
2, 1680, Note_on_c, 0, 71, 64
2, 1800, Note_off_c, 0, 71, 65
2, 1800, Note_on_c, 0, 69, 64
2, 1920, Note_off_c, 0, 69, 70
2, 1920, Note_on_c, 0, 67, 64
2, 2160, Note_off_c, 0, 74, 52
2, 2160, Note_on_c, 0, 73, 64
2, 2280, Note_off_c, 0, 73, 55
2, 2280, Note_on_c, 0, 71, 64
2, 2400, Note_off_c, 0, 71, 66
2, 2400, Note_on_c, 0, 70, 64
2, 2520, Note_off_c, 0, 67, 54
2, 2520, Note_on_c, 0, 66, 64
2, 2640, Note_off_c, 0, 66, 72
2, 2640, Note_off_c, 0, 70, 65
2, 2640, Note_on_c, 0, 64, 64
2, 2640, Note_on_c, 0, 71, 64
2, 2760, Note_off_c, 0, 71, 76
2, 2760, Note_on_c, 0, 73, 64
2, 2880, Note_off_c, 0, 73, 55
2, 2880, Note_on_c, 0, 66, 64
2, 3120, Note_off_c, 0, 66, 52
2, 3120, Note_off_c, 0, 64, 49
2, 3120, Note_on_c, 0, 62, 64
2, 3120, Note_on_c, 0, 71, 64
2, 3360, Note_off_c, 0, 62, 55
2, 3360, Note_on_c, 0, 61, 64
2, 3600, Note_off_c, 0, 61, 52
2, 3600, Note_off_c, 0, 71, 69
2, 3600, Note_on_c, 0, 66, 64
2, 3600, Note_on_c, 0, 69, 64
2, 3840, Note_off_c, 0, 69, 27
2, 3840, Note_on_c, 0, 67, 64
2, 4080, Note_off_c, 0, 66, 65
2, 4080, Note_on_c, 0, 64, 64
2, 4320, Note_off_c, 0, 67, 59
2, 4320, Note_on_c, 0, 66, 64
2, 4560, Note_off_c, 0, 64, 59
2, 4560, Note_on_c, 0, 62, 64
2, 4800, Note_off_c, 0, 66, 70
2, 4800, Note_on_c, 0, 71, 64
2, 5040, Note_off_c, 0, 71, 59
2, 5040, Note_off_c, 0, 62, 55
2, 5040, Note_on_c, 0, 67, 64
2, 5040, Note_on_c, 0, 76, 64
2, 5280, Note_off_c, 0, 76, 14
2, 5280, Note_on_c, 0, 69, 64
2, 5520, Note_off_c, 0, 69, 49
2, 5520, Note_off_c, 0, 67, 43
2, 5520, Note_on_c, 0, 66, 64
2, 5520, Note_on_c, 0, 74, 64
2, 5760, Note_off_c, 0, 66, 68
2, 5760, Note_on_c, 0, 64, 64
2, 6000, Note_off_c, 0, 74, 62
2, 6000, Note_on_c, 0, 73, 64
2, 6240, Note_off_c, 0, 73, 51
2, 6240, Note_off_c, 0, 64, 50
2, 6240, Note_on_c, 0, 66, 64
2, 6240, Note_on_c, 0, 74, 64
2, 6300, Note_off_c, 0, 74, 63
2, 6300, Note_on_c, 0, 73, 64
2, 6360, Note_off_c, 0, 73, 65
2, 6360, Note_on_c, 0, 71, 64
2, 6420, Note_off_c, 0, 71, 61
2, 6420, Note_on_c, 0, 69, 64
2, 6480, Note_off_c, 0, 69, 58
2, 6480, Note_off_c, 0, 66, 69
2, 6480, Note_on_c, 0, 74, 64
2, 6720, Note_on_c, 0, 64, 64
2, 6960, Note_off_c, 0, 74, 76
2, 6960, Note_off_c, 0, 64, 17
2, 6960, Note_on_c, 0, 69, 64
2, 6960, Note_on_c, 0, 73, 64
2, 7200, Note_off_c, 0, 73, 55
2, 7200, Note_on_c, 0, 71, 64
2, 7440, Note_off_c, 0, 71, 76
2, 7440, Note_off_c, 0, 69, 63
2, 7440, Note_on_c, 0, 67, 64
2, 7440, Note_on_c, 0, 76, 64
2, 7680, Note_off_c, 0, 67, 62
2, 7680, Note_on_c, 0, 66, 64
2, 7920, Note_off_c, 0, 76, 20
2, 7920, Note_off_c, 0, 66, 62
2, 7920, Note_on_c, 0, 71, 64
2, 7920, Note_on_c, 0, 74, 64
2, 8160, Note_off_c, 0, 74, 70
2, 8160, Note_on_c, 0, 73, 64
2, 8400, Note_off_c, 0, 73, 79
2, 8400, Note_off_c, 0, 71, 80
2, 8400, Note_on_c, 0, 69, 64
2, 8400, Note_on_c, 0, 78, 64
2, 8640, Note_off_c, 0, 69, 76
2, 8640, Note_on_c, 0, 68, 64
2, 8880, Note_off_c, 0, 78, 68
2, 8880, Note_off_c, 0, 68, 65
2, 8880, Note_on_c, 0, 73, 64
2, 8880, Note_on_c, 0, 77, 64
2, 9120, Note_off_c, 0, 77, 74
2, 9120, Note_on_c, 0, 78, 64
2, 9360, Note_off_c, 0, 78, 76
2, 9360, Note_off_c, 0, 73, 74
2, 9360, Note_on_c, 0, 71, 64
2, 9360, Note_on_c, 0, 80, 64
2, 9600, Note_off_c, 0, 80, 74
2, 9600, Note_on_c, 0, 73, 64
2, 9840, Note_off_c, 0, 73, 74
2, 9840, Note_off_c, 0, 71, 63
2, 9840, Note_on_c, 0, 69, 64
2, 9840, Note_on_c, 0, 78, 64
2, 10080, Note_off_c, 0, 69, 73
2, 10080, Note_on_c, 0, 68, 64
2, 10320, Note_off_c, 0, 78, 61
2, 10320, Note_on_c, 0, 77, 64
2, 10560, Note_off_c, 0, 77, 61
2, 10560, Note_off_c, 0, 68, 74
2, 10560, Note_on_c, 0, 69, 64
2, 10560, Note_on_c, 0, 78, 64
2, 10800, Note_off_c, 0, 78, 66
2, 10800, Note_off_c, 0, 69, 74
2, 10800, Note_on_c, 0, 74, 64
2, 11040, Note_on_c, 0, 76, 64
2, 11280, Note_off_c, 0, 76, 59
2, 11280, Note_off_c, 0, 74, 49
2, 11280, Note_on_c, 0, 73, 64
2, 11280, Note_on_c, 0, 81, 64
2, 11520, Note_off_c, 0, 73, 73
2, 11520, Note_on_c, 0, 71, 64
2, 11760, Note_off_c, 0, 81, 3
2, 11760, Note_off_c, 0, 71, 73
2, 11760, Note_on_c, 0, 76, 64
2, 11760, Note_on_c, 0, 79, 64
2, 12000, Note_off_c, 0, 79, 55
2, 12000, Note_on_c, 0, 78, 64
2, 12240, Note_off_c, 0, 78, 49
2, 12240, Note_off_c, 0, 76, 25
2, 12240, Note_on_c, 0, 74, 64
2, 12240, Note_on_c, 0, 83, 64
2, 12480, Note_off_c, 0, 74, 72
2, 12480, Note_on_c, 0, 73, 64
2, 12720, Note_off_c, 0, 83, 48
2, 12720, Note_off_c, 0, 73, 73
2, 12720, Note_on_c, 0, 78, 64
2, 12720, Note_on_c, 0, 82, 64
2, 12960, Note_off_c, 0, 82, 53
2, 12960, Note_on_c, 0, 83, 64
2, 13080, Note_off_c, 0, 78, 58
2, 13080, Note_on_c, 0, 71, 64
2, 13200, Note_off_c, 0, 71, 49
2, 13200, Note_on_c, 0, 76, 64
2, 13320, Note_off_c, 0, 83, 53
2, 13320, Note_on_c, 0, 81, 64
2, 13380, Note_off_c, 0, 81, 57
2, 13380, Note_on_c, 0, 79, 64
2, 13440, Note_off_c, 0, 79, 68
2, 13440, Note_on_c, 0, 78, 64
2, 13560, Note_off_c, 0, 76, 61
2, 13560, Note_on_c, 0, 74, 64
2, 13620, Note_off_c, 0, 74, 42
2, 13620, Note_on_c, 0, 73, 64
2, 13680, Note_off_c, 0, 73, 61
2, 13680, Note_on_c, 0, 74, 64
2, 13800, Note_off_c, 0, 74, 72
2, 13800, Note_off_c, 0, 78, 66
2, 13800, Note_on_c, 0, 71, 64
2, 13800, Note_on_c, 0, 79, 64
2, 13920, Note_off_c, 0, 79, 65
2, 13920, Note_off_c, 0, 71, 72
2, 13920, Note_on_c, 0, 71, 64
2, 13920, Note_on_c, 0, 74, 64
2, 14160, Note_off_c, 0, 74, 73
2, 14160, Note_off_c, 0, 71, 72
2, 14160, Note_on_c, 0, 70, 64
2, 14160, Note_on_c, 0, 73, 64
2, 14400, Note_off_c, 0, 73, 70
2, 14400, Note_off_c, 0, 70, 65
2, 14400, Note_on_c, 0, 71, 64
2, 14520, Note_on_c, 0, 79, 64
2, 14640, Note_off_c, 0, 71, 79
2, 14640, Note_on_c, 0, 73, 64
2, 14760, Note_off_c, 0, 79, 63
2, 14760, Note_on_c, 0, 78, 64
2, 14880, Note_off_c, 0, 73, 63
2, 14880, Note_on_c, 0, 74, 64
2, 15000, Note_off_c, 0, 78, 55
2, 15000, Note_on_c, 0, 83, 64
2, 15060, Note_off_c, 0, 83, 62
2, 15060, Note_on_c, 0, 82, 64
2, 15120, Note_off_c, 0, 82, 68
2, 15120, Note_on_c, 0, 83, 64
2, 15240, Note_off_c, 0, 74, 76
2, 15240, Note_on_c, 0, 76, 64
2, 15360, Note_off_c, 0, 83, 72
2, 15360, Note_on_c, 0, 82, 64
2, 15480, Note_off_c, 0, 82, 63
2, 15480, Note_off_c, 0, 76, 58
2, 15480, Note_on_c, 0, 74, 64
2, 15480, Note_on_c, 0, 83, 64
2, 15600, Note_off_c, 0, 83, 68
2, 15600, Note_off_c, 0, 74, 72
2, 15600, Note_on_c, 0, 73, 64
2, 15600, Note_on_c, 0, 76, 64
2, 15720, Note_off_c, 0, 76, 52
2, 15720, Note_off_c, 0, 73, 66
2, 15720, Note_on_c, 0, 74, 64
2, 15720, Note_on_c, 0, 71, 64
2, 15830, Note_off_c, 0, 74, 62
2, 15843, Note_off_c, 0, 71, 66
2, 15843, Note_on_c, 0, 74, 68
2, 15843, Note_on_c, 0, 70, 64
2, 15863, Note_off_c, 0, 74, 63
2, 15863, Note_on_c, 0, 73, 49
2, 15883, Note_off_c, 0, 73, 61
2, 15883, Note_on_c, 0, 74, 53
2, 15903, Note_off_c, 0, 74, 73
2, 15903, Note_on_c, 0, 73, 58
2, 15923, Note_off_c, 0, 73, 65
2, 15923, Note_on_c, 0, 74, 62
2, 15943, Note_off_c, 0, 74, 70
2, 15943, Note_on_c, 0, 73, 64
2, 16323, Note_off_c, 0, 73, 76
2, 16323, Note_off_c, 0, 70, 82
2, 16323, Note_on_c, 0, 66, 64
2, 16563, Note_off_c, 0, 66, 66
2, 16563, Note_on_c, 0, 71, 64
2, 16803, Note_on_c, 0, 73, 64
2, 17043, Note_off_c, 0, 73, 63
2, 17043, Note_off_c, 0, 71, 70
2, 17043, Note_on_c, 0, 69, 64
2, 17043, Note_on_c, 0, 78, 64
2, 17283, Note_off_c, 0, 69, 70
2, 17283, Note_on_c, 0, 68, 64
2, 17523, Note_off_c, 0, 78, 46
2, 17523, Note_off_c, 0, 68, 77
2, 17523, Note_on_c, 0, 73, 64
2, 17523, Note_on_c, 0, 76, 64
2, 17763, Note_off_c, 0, 76, 30
2, 17763, Note_on_c, 0, 74, 64
2, 18003, Note_off_c, 0, 73, 59
2, 18003, Note_on_c, 0, 71, 64
2, 18123, Note_off_c, 0, 71, 65
2, 18123, Note_on_c, 0, 69, 64
2, 18243, Note_off_c, 0, 69, 70
2, 18243, Note_on_c, 0, 67, 64
2, 18483, Note_off_c, 0, 74, 52
2, 18483, Note_on_c, 0, 73, 64
2, 18603, Note_off_c, 0, 73, 55
2, 18603, Note_on_c, 0, 71, 64
2, 18723, Note_off_c, 0, 71, 66
2, 18723, Note_on_c, 0, 70, 64
2, 18843, Note_off_c, 0, 67, 54
2, 18843, Note_on_c, 0, 66, 64
2, 18963, Note_off_c, 0, 66, 72
2, 18963, Note_off_c, 0, 70, 65
2, 18963, Note_on_c, 0, 64, 64
2, 18963, Note_on_c, 0, 71, 64
2, 19083, Note_off_c, 0, 71, 76
2, 19083, Note_on_c, 0, 73, 64
2, 19203, Note_off_c, 0, 73, 55
2, 19203, Note_on_c, 0, 66, 64
2, 19443, Note_off_c, 0, 66, 52
2, 19443, Note_off_c, 0, 64, 49
2, 19443, Note_on_c, 0, 62, 64
2, 19443, Note_on_c, 0, 71, 64
2, 19683, Note_off_c, 0, 62, 55
2, 19683, Note_on_c, 0, 61, 64
2, 19923, Note_off_c, 0, 61, 52
2, 19923, Note_off_c, 0, 71, 69
2, 19923, Note_on_c, 0, 66, 64
2, 19923, Note_on_c, 0, 69, 64
2, 20163, Note_off_c, 0, 69, 27
2, 20163, Note_on_c, 0, 67, 64
2, 20403, Note_off_c, 0, 66, 65
2, 20403, Note_on_c, 0, 64, 64
2, 20643, Note_off_c, 0, 67, 59
2, 20643, Note_on_c, 0, 66, 64
2, 20883, Note_off_c, 0, 64, 59
2, 20883, Note_on_c, 0, 62, 64
2, 21123, Note_off_c, 0, 66, 70
2, 21123, Note_on_c, 0, 71, 64
2, 21363, Note_off_c, 0, 71, 59
2, 21363, Note_off_c, 0, 62, 55
2, 21363, Note_on_c, 0, 67, 64
2, 21363, Note_on_c, 0, 76, 64
2, 21603, Note_off_c, 0, 76, 14
2, 21603, Note_on_c, 0, 69, 64
2, 21843, Note_off_c, 0, 69, 49
2, 21843, Note_off_c, 0, 67, 43
2, 21843, Note_on_c, 0, 66, 64
2, 21843, Note_on_c, 0, 74, 64
2, 22083, Note_off_c, 0, 66, 68
2, 22083, Note_on_c, 0, 64, 64
2, 22323, Note_off_c, 0, 74, 62
2, 22323, Note_on_c, 0, 73, 64
2, 22563, Note_off_c, 0, 73, 51
2, 22563, Note_off_c, 0, 64, 50
2, 22563, Note_on_c, 0, 66, 64
2, 22563, Note_on_c, 0, 74, 64
2, 22623, Note_off_c, 0, 74, 63
2, 22623, Note_on_c, 0, 73, 64
2, 22683, Note_off_c, 0, 73, 65
2, 22683, Note_on_c, 0, 71, 64
2, 22743, Note_off_c, 0, 71, 61
2, 22743, Note_on_c, 0, 69, 64
2, 22803, Note_off_c, 0, 69, 58
2, 22803, Note_off_c, 0, 66, 69
2, 22803, Note_on_c, 0, 74, 64
2, 23043, Note_on_c, 0, 64, 64
2, 23283, Note_off_c, 0, 74, 76
2, 23283, Note_off_c, 0, 64, 17
2, 23283, Note_on_c, 0, 69, 64
2, 23283, Note_on_c, 0, 73, 64
2, 23523, Note_off_c, 0, 73, 55
2, 23523, Note_on_c, 0, 71, 64
2, 23763, Note_off_c, 0, 71, 76
2, 23763, Note_off_c, 0, 69, 63
2, 23763, Note_on_c, 0, 67, 64
2, 23763, Note_on_c, 0, 76, 64
2, 24003, Note_off_c, 0, 67, 62
2, 24003, Note_on_c, 0, 66, 64
2, 24243, Note_off_c, 0, 76, 20
2, 24243, Note_off_c, 0, 66, 62
2, 24243, Note_on_c, 0, 71, 64
2, 24243, Note_on_c, 0, 74, 64
2, 24483, Note_off_c, 0, 74, 70
2, 24483, Note_on_c, 0, 73, 64
2, 24723, Note_off_c, 0, 73, 79
2, 24723, Note_off_c, 0, 71, 80
2, 24723, Note_on_c, 0, 69, 64
2, 24723, Note_on_c, 0, 78, 64
2, 24963, Note_off_c, 0, 69, 76
2, 24963, Note_on_c, 0, 68, 64
2, 25203, Note_off_c, 0, 78, 68
2, 25203, Note_off_c, 0, 68, 65
2, 25203, Note_on_c, 0, 73, 64
2, 25203, Note_on_c, 0, 77, 64
2, 25443, Note_off_c, 0, 77, 74
2, 25443, Note_on_c, 0, 78, 64
2, 25683, Note_off_c, 0, 78, 76
2, 25683, Note_off_c, 0, 73, 74
2, 25683, Note_on_c, 0, 71, 64
2, 25683, Note_on_c, 0, 80, 64
2, 25923, Note_off_c, 0, 80, 74
2, 25923, Note_on_c, 0, 73, 64
2, 26163, Note_off_c, 0, 73, 74
2, 26163, Note_off_c, 0, 71, 63
2, 26163, Note_on_c, 0, 69, 64
2, 26163, Note_on_c, 0, 78, 64
2, 26403, Note_off_c, 0, 69, 73
2, 26403, Note_on_c, 0, 68, 64
2, 26643, Note_off_c, 0, 78, 61
2, 26643, Note_on_c, 0, 77, 64
2, 26883, Note_off_c, 0, 77, 61
2, 26883, Note_off_c, 0, 68, 74
2, 26883, Note_on_c, 0, 69, 64
2, 26883, Note_on_c, 0, 78, 64
2, 27123, Note_off_c, 0, 78, 66
2, 27123, Note_off_c, 0, 69, 74
2, 27123, Note_on_c, 0, 74, 64
2, 27363, Note_on_c, 0, 76, 64
2, 27603, Note_off_c, 0, 76, 59
2, 27603, Note_off_c, 0, 74, 49
2, 27603, Note_on_c, 0, 73, 64
2, 27603, Note_on_c, 0, 81, 64
2, 27843, Note_off_c, 0, 73, 73
2, 27843, Note_on_c, 0, 71, 64
2, 28083, Note_off_c, 0, 81, 3
2, 28083, Note_off_c, 0, 71, 73
2, 28083, Note_on_c, 0, 76, 64
2, 28083, Note_on_c, 0, 79, 64
2, 28323, Note_off_c, 0, 79, 55
2, 28323, Note_on_c, 0, 78, 64
2, 28563, Note_off_c, 0, 78, 49
2, 28563, Note_off_c, 0, 76, 25
2, 28563, Note_on_c, 0, 74, 64
2, 28563, Note_on_c, 0, 83, 64
2, 28803, Note_off_c, 0, 74, 72
2, 28803, Note_on_c, 0, 73, 64
2, 29043, Note_off_c, 0, 83, 48
2, 29043, Note_off_c, 0, 73, 73
2, 29043, Note_on_c, 0, 78, 64
2, 29043, Note_on_c, 0, 82, 64
2, 29283, Note_off_c, 0, 82, 53
2, 29283, Note_on_c, 0, 83, 64
2, 29403, Note_off_c, 0, 78, 58
2, 29403, Note_on_c, 0, 71, 64
2, 29523, Note_off_c, 0, 71, 49
2, 29523, Note_on_c, 0, 76, 64
2, 29643, Note_off_c, 0, 83, 53
2, 29643, Note_on_c, 0, 81, 64
2, 29703, Note_off_c, 0, 81, 57
2, 29703, Note_on_c, 0, 79, 64
2, 29763, Note_off_c, 0, 79, 68
2, 29763, Note_on_c, 0, 78, 64
2, 29883, Note_off_c, 0, 76, 61
2, 29883, Note_on_c, 0, 74, 64
2, 29943, Note_off_c, 0, 74, 42
2, 29943, Note_on_c, 0, 73, 64
2, 30003, Note_off_c, 0, 73, 61
2, 30003, Note_on_c, 0, 74, 64
2, 30123, Note_off_c, 0, 74, 72
2, 30123, Note_off_c, 0, 78, 66
2, 30123, Note_on_c, 0, 71, 64
2, 30123, Note_on_c, 0, 79, 64
2, 30243, Note_off_c, 0, 79, 65
2, 30243, Note_off_c, 0, 71, 72
2, 30243, Note_on_c, 0, 71, 64
2, 30243, Note_on_c, 0, 74, 64
2, 30483, Note_off_c, 0, 74, 73
2, 30483, Note_off_c, 0, 71, 72
2, 30483, Note_on_c, 0, 70, 64
2, 30483, Note_on_c, 0, 73, 64
2, 30723, Note_off_c, 0, 73, 70
2, 30723, Note_off_c, 0, 70, 65
2, 30723, Note_on_c, 0, 71, 64
2, 30843, Note_on_c, 0, 79, 64
2, 30963, Note_off_c, 0, 71, 79
2, 30963, Note_on_c, 0, 73, 64
2, 31083, Note_off_c, 0, 79, 63
2, 31083, Note_on_c, 0, 78, 64
2, 31203, Note_off_c, 0, 73, 63
2, 31203, Note_on_c, 0, 74, 64
2, 31323, Note_off_c, 0, 78, 55
2, 31323, Note_on_c, 0, 83, 64
2, 31383, Note_off_c, 0, 83, 62
2, 31383, Note_on_c, 0, 82, 64
2, 31443, Note_off_c, 0, 82, 68
2, 31443, Note_on_c, 0, 83, 64
2, 31563, Note_off_c, 0, 74, 76
2, 31563, Note_on_c, 0, 76, 64
2, 31683, Note_off_c, 0, 83, 72
2, 31683, Note_on_c, 0, 82, 64
2, 31803, Note_off_c, 0, 82, 63
2, 31803, Note_off_c, 0, 76, 58
2, 31803, Note_on_c, 0, 74, 64
2, 31803, Note_on_c, 0, 83, 64
2, 31923, Note_off_c, 0, 83, 68
2, 31923, Note_off_c, 0, 74, 72
2, 31923, Note_on_c, 0, 73, 64
2, 31923, Note_on_c, 0, 76, 64
2, 32043, Note_off_c, 0, 76, 52
2, 32043, Note_off_c, 0, 73, 66
2, 32043, Note_on_c, 0, 74, 64
2, 32043, Note_on_c, 0, 71, 64
2, 32153, Note_off_c, 0, 74, 62
2, 32166, Note_off_c, 0, 71, 66
2, 32166, Note_on_c, 0, 74, 68
2, 32166, Note_on_c, 0, 70, 64
2, 32186, Note_off_c, 0, 74, 63
2, 32186, Note_on_c, 0, 73, 49
2, 32206, Note_off_c, 0, 73, 61
2, 32206, Note_on_c, 0, 74, 54
2, 32226, Note_off_c, 0, 74, 73
2, 32226, Note_on_c, 0, 73, 58
2, 32246, Note_off_c, 0, 73, 65
2, 32246, Note_on_c, 0, 74, 63
2, 32266, Note_off_c, 0, 74, 70
2, 32266, Note_on_c, 0, 73, 64
2, 32646, Note_off_c, 0, 73, 76
2, 32646, Note_off_c, 0, 70, 82
2, 32646, Note_on_c, 0, 81, 64
2, 32766, Note_on_c, 0, 73, 64
2, 32886, Note_off_c, 0, 73, 70
2, 32886, Note_on_c, 0, 78, 64
2, 33006, Note_off_c, 0, 78, 76
2, 33006, Note_on_c, 0, 76, 64
2, 33126, Note_off_c, 0, 76, 61
2, 33126, Note_on_c, 0, 75, 64
2, 33246, Note_off_c, 0, 81, 54
2, 33246, Note_on_c, 0, 78, 64
2, 33366, Note_off_c, 0, 78, 69
2, 33366, Note_on_c, 0, 83, 64
2, 33486, Note_off_c, 0, 83, 66
2, 33486, Note_on_c, 0, 81, 64
2, 33606, Note_off_c, 0, 81, 62
2, 33606, Note_off_c, 0, 75, 57
2, 33606, Note_on_c, 0, 76, 64
2, 33606, Note_on_c, 0, 79, 64
2, 33846, Note_off_c, 0, 79, 57
2, 33846, Note_off_c, 0, 76, 63
2, 33846, Note_on_c, 0, 75, 64
2, 33846, Note_on_c, 0, 78, 64
2, 34086, Note_off_c, 0, 78, 55
2, 34086, Note_off_c, 0, 75, 55
2, 34086, Note_on_c, 0, 79, 64
2, 34086, Note_on_c, 0, 76, 64
2, 34206, Note_off_c, 0, 76, 42
2, 34206, Note_on_c, 0, 71, 64
2, 34326, Note_off_c, 0, 71, 50
2, 34326, Note_on_c, 0, 76, 64
2, 34446, Note_off_c, 0, 76, 58
2, 34446, Note_on_c, 0, 74, 64
2, 34566, Note_off_c, 0, 74, 65
2, 34566, Note_on_c, 0, 73, 64
2, 34686, Note_off_c, 0, 79, 50
2, 34686, Note_on_c, 0, 76, 64
2, 34806, Note_off_c, 0, 76, 52
2, 34806, Note_on_c, 0, 81, 64
2, 34926, Note_off_c, 0, 81, 47
2, 34926, Note_on_c, 0, 79, 64
2, 35046, Note_off_c, 0, 79, 61
2, 35046, Note_off_c, 0, 73, 69
2, 35046, Note_on_c, 0, 74, 64
2, 35046, Note_on_c, 0, 78, 64
2, 35286, Note_off_c, 0, 78, 57
2, 35286, Note_off_c, 0, 74, 69
2, 35286, Note_on_c, 0, 73, 64
2, 35286, Note_on_c, 0, 76, 64
2, 35526, Note_off_c, 0, 76, 48
2, 35526, Note_off_c, 0, 73, 63
2, 35526, Note_on_c, 0, 78, 64
2, 35526, Note_on_c, 0, 74, 64
2, 35646, Note_off_c, 0, 74, 66
2, 35646, Note_on_c, 0, 69, 64
2, 35766, Note_off_c, 0, 69, 46
2, 35766, Note_on_c, 0, 71, 64
2, 35886, Note_off_c, 0, 71, 73
2, 35886, Note_on_c, 0, 73, 64
2, 36006, Note_off_c, 0, 73, 62
2, 36006, Note_on_c, 0, 74, 64
2, 36116, Note_off_c, 0, 78, 57
2, 36129, Note_on_c, 0, 78, 64
2, 36249, Note_off_c, 0, 78, 65
2, 36249, Note_on_c, 0, 80, 64
2, 36369, Note_off_c, 0, 80, 61
2, 36369, Note_on_c, 0, 81, 64
2, 36489, Note_off_c, 0, 81, 66
2, 36489, Note_on_c, 0, 83, 64
2, 36609, Note_off_c, 0, 74, 58
2, 36609, Note_on_c, 0, 73, 64
2, 36729, Note_off_c, 0, 73, 68
2, 36729, Note_off_c, 0, 83, 47
2, 36729, Note_on_c, 0, 78, 64
2, 36729, Note_on_c, 0, 81, 64
2, 36849, Note_off_c, 0, 78, 49
2, 36849, Note_on_c, 0, 76, 64
2, 36969, Note_off_c, 0, 76, 3
2, 36969, Note_on_c, 0, 74, 64
2, 37089, Note_off_c, 0, 74, 72
2, 37089, Note_on_c, 0, 73, 64
2, 37209, Note_off_c, 0, 73, 66
2, 37209, Note_off_c, 0, 81, 61
2, 37209, Note_on_c, 0, 71, 64
2, 37209, Note_on_c, 0, 79, 64
2, 37329, Note_off_c, 0, 79, 62
2, 37329, Note_on_c, 0, 78, 64
2, 37449, Note_off_c, 0, 78, 53
2, 37449, Note_on_c, 0, 77, 64
2, 37569, Note_off_c, 0, 77, 77
2, 37569, Note_on_c, 0, 73, 64
2, 37689, Note_off_c, 0, 73, 54
2, 37689, Note_off_c, 0, 71, 70
2, 37689, Note_on_c, 0, 69, 64
2, 37689, Note_on_c, 0, 78, 64
2, 37809, Note_off_c, 0, 78, 61
2, 37809, Note_on_c, 0, 76, 64
2, 37929, Note_off_c, 0, 76, 50
2, 37929, Note_on_c, 0, 74, 64
2, 38049, Note_off_c, 0, 69, 74
2, 38049, Note_on_c, 0, 69, 64
2, 38169, Note_off_c, 0, 69, 79
2, 38169, Note_on_c, 0, 68, 64
2, 38289, Note_off_c, 0, 68, 68
2, 38289, Note_on_c, 0, 66, 64
2, 38409, Note_off_c, 0, 66, 54
2, 38409, Note_on_c, 0, 65, 64
2, 38529, Note_off_c, 0, 65, 1
2, 38529, Note_on_c, 0, 66, 64
2, 38649, Note_off_c, 0, 66, 70
2, 38649, Note_off_c, 0, 74, 63
2, 38649, Note_on_c, 0, 68, 64
2, 38649, Note_on_c, 0, 73, 64
2, 38769, Note_off_c, 0, 73, 61
2, 38769, Note_on_c, 0, 71, 64
2, 38889, Note_off_c, 0, 71, 69
2, 38889, Note_on_c, 0, 69, 64
2, 39009, Note_off_c, 0, 69, 68
2, 39009, Note_on_c, 0, 71, 64
2, 39129, Note_off_c, 0, 71, 52
2, 39129, Note_off_c, 0, 68, 73
2, 39129, Note_on_c, 0, 66, 64
2, 39129, Note_on_c, 0, 73, 64
2, 39249, Note_off_c, 0, 66, 72
2, 39249, Note_on_c, 0, 64, 64
2, 39369, Note_off_c, 0, 64, 52
2, 39369, Note_on_c, 0, 62, 64
2, 39609, Note_off_c, 0, 73, 65
2, 39609, Note_on_c, 0, 71, 64
2, 39849, Note_off_c, 0, 62, 59
2, 39849, Note_on_c, 0, 61, 64
2, 40089, Note_off_c, 0, 71, 69
2, 40089, Note_on_c, 0, 69, 64
2, 40329, Note_off_c, 0, 61, 62
2, 40329, Note_on_c, 0, 59, 64
2, 40569, Note_off_c, 0, 69, 70
2, 40569, Note_on_c, 0, 68, 64
2, 40689, Note_off_c, 0, 68, 69
2, 40689, Note_on_c, 0, 66, 64
2, 40809, Note_off_c, 0, 66, 66
2, 40809, Note_on_c, 0, 65, 64
2, 40929, Note_off_c, 0, 65, 1
2, 40929, Note_off_c, 0, 59, 44
2, 40929, Note_on_c, 0, 65, 64
2, 40929, Note_on_c, 0, 74, 64
2, 41049, Note_off_c, 0, 74, 57
2, 41049, Note_off_c, 0, 65, 1
2, 41049, Note_on_c, 0, 66, 64
2, 41049, Note_on_c, 0, 73, 64
2, 41169, Note_off_c, 0, 73, 68
2, 41169, Note_off_c, 0, 66, 76
2, 41169, Note_on_c, 0, 68, 64
2, 41169, Note_on_c, 0, 71, 64
2, 41289, Note_off_c, 0, 71, 68
2, 41289, Note_off_c, 0, 68, 77
2, 41289, Note_on_c, 0, 61, 64
2, 41289, Note_on_c, 0, 69, 64
2, 41409, Note_off_c, 0, 61, 72
2, 41409, Note_on_c, 0, 66, 64
2, 41529, Note_off_c, 0, 69, 74
2, 41529, Note_on_c, 0, 68, 64
2, 41649, Note_off_c, 0, 66, 74
2, 41649, Note_on_c, 0, 65, 64
2, 41769, Note_off_c, 0, 65, 65
2, 41769, Note_off_c, 0, 68, 70
2, 41769, Note_on_c, 0, 66, 64
2, 42009, Note_off_c, 0, 66, 82
2, 42009, Note_on_c, 0, 72, 64
2, 42249, Note_on_c, 0, 75, 64
2, 42489, Note_off_c, 0, 75, 55
2, 42489, Note_off_c, 0, 72, 79
2, 42489, Note_on_c, 0, 71, 64
2, 42489, Note_on_c, 0, 76, 64
2, 42609, Note_off_c, 0, 76, 55
2, 42609, Note_off_c, 0, 71, 79
2, 42609, Note_on_c, 0, 69, 64
2, 42609, Note_on_c, 0, 78, 64
2, 42729, Note_off_c, 0, 78, 54
2, 42729, Note_off_c, 0, 69, 69
2, 42729, Note_on_c, 0, 67, 64
2, 42729, Note_on_c, 0, 71, 64
2, 42849, Note_off_c, 0, 71, 16
2, 42849, Note_off_c, 0, 67, 30
2, 42849, Note_on_c, 0, 75, 64
2, 42849, Note_on_c, 0, 84, 64
2, 42969, Note_off_c, 0, 84, 31
2, 42969, Note_off_c, 0, 75, 53
2, 42969, Note_on_c, 0, 76, 64
2, 42969, Note_on_c, 0, 83, 64
2, 43089, Note_off_c, 0, 83, 69
2, 43089, Note_off_c, 0, 76, 63
2, 43089, Note_on_c, 0, 78, 64
2, 43089, Note_on_c, 0, 81, 64
2, 43209, Note_off_c, 0, 81, 43
2, 43209, Note_off_c, 0, 78, 59
2, 43209, Note_on_c, 0, 71, 64
2, 43209, Note_on_c, 0, 79, 64
2, 43329, Note_off_c, 0, 71, 34
2, 43329, Note_on_c, 0, 76, 64
2, 43449, Note_off_c, 0, 79, 62
2, 43449, Note_on_c, 0, 78, 64
2, 43569, Note_off_c, 0, 76, 50
2, 43569, Note_on_c, 0, 75, 64
2, 43689, Note_off_c, 0, 75, 62
2, 43689, Note_off_c, 0, 78, 55
2, 43689, Note_on_c, 0, 76, 64
2, 43929, Note_off_c, 0, 76, 66
2, 43929, Note_on_c, 0, 82, 64
2, 44169, Note_on_c, 0, 73, 64
2, 44409, Note_off_c, 0, 82, 62
2, 44409, Note_off_c, 0, 73, 68
2, 44409, Note_on_c, 0, 74, 64
2, 44409, Note_on_c, 0, 81, 64
2, 44529, Note_off_c, 0, 81, 70
2, 44529, Note_off_c, 0, 74, 76
2, 44529, Note_on_c, 0, 76, 64
2, 44529, Note_on_c, 0, 79, 64
2, 44649, Note_off_c, 0, 79, 59
2, 44649, Note_off_c, 0, 76, 58
2, 44649, Note_on_c, 0, 69, 64
2, 44649, Note_on_c, 0, 78, 64
2, 44769, Note_off_c, 0, 78, 54
2, 44769, Note_off_c, 0, 69, 45
2, 44769, Note_on_c, 0, 70, 64
2, 44769, Note_on_c, 0, 73, 64
2, 44889, Note_off_c, 0, 73, 65
2, 44889, Note_off_c, 0, 70, 72
2, 44889, Note_on_c, 0, 69, 64
2, 44889, Note_on_c, 0, 74, 64
2, 45009, Note_off_c, 0, 74, 73
2, 45009, Note_off_c, 0, 69, 68
2, 45009, Note_on_c, 0, 67, 64
2, 45009, Note_on_c, 0, 76, 64
2, 45129, Note_off_c, 0, 76, 57
2, 45129, Note_off_c, 0, 67, 34
2, 45129, Note_on_c, 0, 66, 64
2, 45129, Note_on_c, 0, 69, 64
2, 45249, Note_off_c, 0, 69, 49
2, 45249, Note_on_c, 0, 74, 64
2, 45369, Note_off_c, 0, 66, 73
2, 45369, Note_on_c, 0, 64, 64
2, 45489, Note_off_c, 0, 74, 66
2, 45489, Note_on_c, 0, 73, 64
2, 45609, Note_off_c, 0, 73, 66
2, 45609, Note_off_c, 0, 64, 59
2, 45609, Note_on_c, 0, 62, 64
2, 45609, Note_on_c, 0, 66, 64
2, 45729, Note_off_c, 0, 66, 53
2, 45729, Note_on_c, 0, 71, 64
2, 45849, Note_off_c, 0, 62, 38
2, 45849, Note_on_c, 0, 61, 64
2, 45969, Note_off_c, 0, 71, 73
2, 45969, Note_on_c, 0, 69, 64
2, 46089, Note_off_c, 0, 69, 72
2, 46089, Note_off_c, 0, 61, 54
2, 46089, Note_on_c, 0, 59, 64
2, 46089, Note_on_c, 0, 62, 64
2, 46209, Note_off_c, 0, 62, 39
2, 46209, Note_on_c, 0, 67, 64
2, 46329, Note_off_c, 0, 59, 23
2, 46329, Note_on_c, 0, 57, 64
2, 46449, Note_off_c, 0, 67, 53
2, 46449, Note_on_c, 0, 66, 64
2, 46569, Note_off_c, 0, 66, 66
2, 46569, Note_off_c, 0, 57, 15
2, 46569, Note_on_c, 0, 59, 64
2, 46569, Note_on_c, 0, 68, 64
2, 46809, Note_off_c, 0, 68, 74
2, 46809, Note_off_c, 0, 59, 51
2, 46809, Note_on_c, 0, 64, 64
2, 46809, Note_on_c, 0, 70, 64
2, 46929, Note_off_c, 0, 70, 63
2, 46929, Note_on_c, 0, 71, 64
2, 47049, Note_off_c, 0, 71, 80
2, 47049, Note_on_c, 0, 73, 64
2, 47169, Note_off_c, 0, 64, 46
2, 47169, Note_on_c, 0, 67, 64
2, 47289, Note_off_c, 0, 67, 52
2, 47289, Note_on_c, 0, 66, 64
2, 47409, Note_off_c, 0, 66, 55
2, 47409, Note_on_c, 0, 64, 64
2, 47529, Note_off_c, 0, 64, 49
2, 47529, Note_on_c, 0, 62, 64
2, 47649, Note_off_c, 0, 73, 69
2, 47649, Note_on_c, 0, 71, 64
2, 47769, Note_off_c, 0, 71, 61
2, 47769, Note_off_c, 0, 62, 39
2, 47769, Note_on_c, 0, 67, 64
2, 47769, Note_on_c, 0, 73, 64
2, 47889, Note_off_c, 0, 73, 62
2, 47889, Note_on_c, 0, 74, 64
2, 48009, Note_off_c, 0, 74, 63
2, 48009, Note_on_c, 0, 76, 64
2, 48129, Note_off_c, 0, 67, 46
2, 48129, Note_on_c, 0, 71, 64
2, 48249, Note_off_c, 0, 71, 57
2, 48249, Note_on_c, 0, 69, 64
2, 48369, Note_off_c, 0, 69, 66
2, 48369, Note_on_c, 0, 67, 64
2, 48489, Note_off_c, 0, 67, 51
2, 48489, Note_on_c, 0, 66, 64
2, 48609, Note_off_c, 0, 76, 57
2, 48609, Note_on_c, 0, 74, 64
2, 48729, Note_off_c, 0, 74, 74
2, 48729, Note_off_c, 0, 66, 68
2, 48729, Note_on_c, 0, 71, 64
2, 48729, Note_on_c, 0, 76, 64
2, 48849, Note_off_c, 0, 76, 54
2, 48849, Note_on_c, 0, 78, 64
2, 48969, Note_off_c, 0, 78, 30
2, 48969, Note_on_c, 0, 79, 64
2, 49089, Note_off_c, 0, 71, 59
2, 49089, Note_on_c, 0, 74, 64
2, 49209, Note_off_c, 0, 74, 50
2, 49209, Note_on_c, 0, 73, 64
2, 49329, Note_off_c, 0, 73, 46
2, 49329, Note_on_c, 0, 71, 64
2, 49449, Note_off_c, 0, 71, 80
2, 49449, Note_on_c, 0, 73, 64
2, 49569, Note_off_c, 0, 73, 65
2, 49569, Note_on_c, 0, 76, 64
2, 49689, Note_off_c, 0, 76, 46
2, 49689, Note_off_c, 0, 79, 69
2, 49689, Note_on_c, 0, 74, 64
2, 49689, Note_on_c, 0, 78, 64
2, 49809, Note_off_c, 0, 74, 52
2, 49809, Note_on_c, 0, 73, 64
2, 49929, Note_off_c, 0, 73, 63
2, 49929, Note_on_c, 0, 74, 64
2, 50049, Note_off_c, 0, 78, 55
2, 50049, Note_on_c, 0, 81, 64
2, 50169, Note_off_c, 0, 81, 43
2, 50169, Note_off_c, 0, 74, 66
2, 50169, Note_on_c, 0, 71, 64
2, 50169, Note_on_c, 0, 79, 64
2, 50289, Note_off_c, 0, 79, 66
2, 50289, Note_on_c, 0, 78, 64
2, 50409, Note_off_c, 0, 78, 44
2, 50409, Note_on_c, 0, 76, 64
2, 50529, Note_off_c, 0, 71, 68
2, 50529, Note_on_c, 0, 74, 64
2, 50649, Note_off_c, 0, 74, 63
2, 50649, Note_off_c, 0, 76, 46
2, 50649, Note_on_c, 0, 73, 64
2, 50649, Note_on_c, 0, 80, 64
2, 50769, Note_off_c, 0, 73, 52
2, 50769, Note_on_c, 0, 71, 64
2, 50889, Note_off_c, 0, 71, 66
2, 50889, Note_on_c, 0, 76, 64
2, 51009, Note_off_c, 0, 80, 58
2, 51009, Note_on_c, 0, 83, 64
2, 51129, Note_off_c, 0, 83, 50
2, 51129, Note_off_c, 0, 76, 47
2, 51129, Note_on_c, 0, 73, 64
2, 51129, Note_on_c, 0, 81, 64
2, 51249, Note_off_c, 0, 81, 49
2, 51249, Note_on_c, 0, 80, 64
2, 51369, Note_off_c, 0, 80, 65
2, 51369, Note_on_c, 0, 81, 64
2, 51489, Note_off_c, 0, 73, 53
2, 51489, Note_on_c, 0, 76, 64
2, 51609, Note_off_c, 0, 76, 30
2, 51609, Note_off_c, 0, 81, 63
2, 51609, Note_on_c, 0, 74, 64
2, 51609, Note_on_c, 0, 82, 64
2, 51729, Note_off_c, 0, 74, 58
2, 51729, Note_on_c, 0, 73, 64
2, 51849, Note_off_c, 0, 73, 73
2, 51849, Note_on_c, 0, 78, 64
2, 51969, Note_off_c, 0, 82, 61
2, 51969, Note_on_c, 0, 84, 64
2, 52089, Note_off_c, 0, 84, 31
2, 52089, Note_off_c, 0, 78, 59
2, 52089, Note_on_c, 0, 74, 64
2, 52089, Note_on_c, 0, 83, 64
2, 52209, Note_off_c, 0, 83, 59
2, 52209, Note_on_c, 0, 82, 64
2, 52329, Note_off_c, 0, 82, 52
2, 52329, Note_on_c, 0, 83, 64
2, 52449, Note_off_c, 0, 74, 59
2, 52449, Note_on_c, 0, 76, 64
2, 52569, Note_off_c, 0, 76, 46
2, 52569, Note_on_c, 0, 78, 64
2, 52689, Note_off_c, 0, 83, 61
2, 52689, Note_on_c, 0, 81, 64
2, 52809, Note_off_c, 0, 81, 52
2, 52809, Note_on_c, 0, 79, 64
2, 53049, Note_off_c, 0, 78, 69
2, 53049, Note_on_c, 0, 76, 64
2, 53289, Note_off_c, 0, 79, 69
2, 53289, Note_on_c, 0, 78, 64
2, 53529, Note_off_c, 0, 76, 59
2, 53529, Note_on_c, 0, 74, 64
2, 53769, Note_off_c, 0, 78, 57
2, 53769, Note_on_c, 0, 76, 64
2, 54009, Note_off_c, 0, 74, 72
2, 54009, Note_on_c, 0, 73, 64
2, 54249, Note_off_c, 0, 76, 57
2, 54249, Note_on_c, 0, 74, 64
2, 54489, Note_off_c, 0, 73, 66
2, 54489, Note_on_c, 0, 71, 64
2, 54609, Note_off_c, 0, 71, 73
2, 54609, Note_on_c, 0, 69, 64
2, 54729, Note_off_c, 0, 69, 66
2, 54729, Note_on_c, 0, 67, 64
2, 54969, Note_off_c, 0, 74, 65
2, 54969, Note_on_c, 0, 73, 64
2, 55089, Note_off_c, 0, 73, 59
2, 55089, Note_on_c, 0, 71, 64
2, 55209, Note_off_c, 0, 71, 76
2, 55209, Note_on_c, 0, 70, 64
2, 55329, Note_off_c, 0, 70, 79
2, 55329, Note_off_c, 0, 67, 37
2, 55329, Note_on_c, 0, 70, 64
2, 55329, Note_on_c, 0, 79, 64
2, 55449, Note_off_c, 0, 79, 44
2, 55449, Note_off_c, 0, 70, 72
2, 55449, Note_on_c, 0, 71, 64
2, 55449, Note_on_c, 0, 78, 64
2, 55569, Note_off_c, 0, 78, 52
2, 55569, Note_off_c, 0, 71, 82
2, 55569, Note_on_c, 0, 73, 64
2, 55569, Note_on_c, 0, 76, 64
2, 55689, Note_off_c, 0, 76, 53
2, 55689, Note_off_c, 0, 73, 77
2, 55689, Note_on_c, 0, 66, 64
2, 55689, Note_on_c, 0, 74, 64
2, 55809, Note_off_c, 0, 66, 72
2, 55809, Note_on_c, 0, 71, 64
2, 55929, Note_off_c, 0, 74, 65
2, 55929, Note_on_c, 0, 73, 64
2, 56049, Note_off_c, 0, 71, 73
2, 56049, Note_on_c, 0, 70, 64
2, 56169, Note_off_c, 0, 70, 73
2, 56169, Note_off_c, 0, 73, 54
2, 56169, Note_on_c, 0, 71, 64
2, 56289, Note_on_c, 0, 64, 64
2, 56529, Note_off_c, 0, 64, 19
2, 56529, Note_on_c, 0, 63, 64
2, 56649, Note_off_c, 0, 63, 49
2, 56649, Note_on_c, 0, 67, 64
2, 56759, Note_off_c, 0, 71, 72
2, 56772, Note_on_c, 0, 71, 64
2, 57012, Note_off_c, 0, 71, 74
2, 57012, Note_on_c, 0, 70, 64
2, 57132, Note_off_c, 0, 70, 65
2, 57132, Note_off_c, 0, 67, 52
2, 57132, Note_on_c, 0, 76, 64
2, 57252, Note_on_c, 0, 67, 64
2, 57492, Note_off_c, 0, 67, 57
2, 57492, Note_on_c, 0, 66, 64
2, 57612, Note_off_c, 0, 66, 63
2, 57612, Note_off_c, 0, 76, 59
2, 57612, Note_on_c, 0, 71, 64
2, 57732, Note_on_c, 0, 76, 64
2, 57972, Note_off_c, 0, 76, 52
2, 57972, Note_on_c, 0, 75, 64
2, 58092, Note_off_c, 0, 75, 55
2, 58092, Note_on_c, 0, 79, 64
2, 58202, Note_off_c, 0, 71, 69
2, 58215, Note_on_c, 0, 71, 64
2, 58455, Note_off_c, 0, 71, 70
2, 58455, Note_on_c, 0, 70, 64
2, 58575, Note_off_c, 0, 70, 65
2, 58575, Note_on_c, 0, 74, 64
2, 58695, Note_off_c, 0, 79, 66
2, 58695, Note_on_c, 0, 78, 64
2, 58935, Note_off_c, 0, 78, 51
2, 58935, Note_on_c, 0, 77, 64
2, 59055, Note_off_c, 0, 77, 65
2, 59055, Note_on_c, 0, 83, 64
2, 59175, Note_off_c, 0, 83, 37
2, 59175, Note_off_c, 0, 74, 58
2, 59175, Note_on_c, 0, 72, 64
2, 59175, Note_on_c, 0, 76, 64
2, 59235, Note_off_c, 0, 76, 51
2, 59235, Note_on_c, 0, 75, 64
2, 59295, Note_off_c, 0, 75, 40
2, 59295, Note_off_c, 0, 72, 76
2, 59295, Note_on_c, 0, 71, 64
2, 59295, Note_on_c, 0, 76, 64
2, 59415, Note_off_c, 0, 76, 52
2, 59415, Note_on_c, 0, 79, 64
2, 59535, Note_off_c, 0, 79, 63
2, 59535, Note_on_c, 0, 74, 64
2, 59775, Note_off_c, 0, 74, 63
2, 59775, Note_off_c, 0, 71, 63
2, 59775, Note_on_c, 0, 70, 64
2, 59775, Note_on_c, 0, 73, 64
2, 60015, Note_off_c, 0, 73, 68
2, 60015, Note_off_c, 0, 70, 68
2, 60015, Note_on_c, 0, 69, 64
2, 60015, Note_on_c, 0, 75, 64
2, 60135, Note_off_c, 0, 75, 61
2, 60135, Note_off_c, 0, 69, 72
2, 60135, Note_on_c, 0, 67, 64
2, 60135, Note_on_c, 0, 76, 64
2, 60255, Note_off_c, 0, 76, 66
2, 60255, Note_on_c, 0, 70, 64
2, 60375, Note_off_c, 0, 70, 66
2, 60375, Note_off_c, 0, 67, 62
2, 60375, Note_on_c, 0, 66, 64
2, 60375, Note_on_c, 0, 71, 64
2, 60495, Note_off_c, 0, 71, 65
2, 60495, Note_on_c, 0, 67, 64
2, 60615, Note_off_c, 0, 66, 70
2, 60615, Note_on_c, 0, 64, 64
2, 60735, Note_off_c, 0, 64, 58
2, 60735, Note_on_c, 0, 61, 64
2, 60855, Note_on_c, 0, 70, 64
2, 60975, Note_off_c, 0, 70, 70
2, 60975, Note_off_c, 0, 61, 55
2, 60975, Note_off_c, 0, 67, 49
2, 60975, Note_on_c, 0, 63, 64
2, 60975, Note_on_c, 0, 71, 64
2, 60975, Note_on_c, 0, 66, 64
2, 61455, Note_off_c, 0, 66, 58
2, 61455, Note_off_c, 0, 71, 80
2, 61455, Note_off_c, 0, 63, 65
2, 61455, Note_on_c, 0, 81, 64
2, 61575, Note_on_c, 0, 73, 64
2, 61695, Note_off_c, 0, 73, 70
2, 61695, Note_on_c, 0, 78, 64
2, 61815, Note_off_c, 0, 78, 76
2, 61815, Note_on_c, 0, 76, 64
2, 61935, Note_off_c, 0, 76, 61
2, 61935, Note_on_c, 0, 75, 64
2, 62055, Note_off_c, 0, 81, 54
2, 62055, Note_on_c, 0, 78, 64
2, 62175, Note_off_c, 0, 78, 69
2, 62175, Note_on_c, 0, 83, 64
2, 62295, Note_off_c, 0, 83, 66
2, 62295, Note_on_c, 0, 81, 64
2, 62415, Note_off_c, 0, 81, 62
2, 62415, Note_off_c, 0, 75, 57
2, 62415, Note_on_c, 0, 76, 64
2, 62415, Note_on_c, 0, 79, 64
2, 62655, Note_off_c, 0, 79, 57
2, 62655, Note_off_c, 0, 76, 63
2, 62655, Note_on_c, 0, 75, 64
2, 62655, Note_on_c, 0, 78, 64
2, 62895, Note_off_c, 0, 78, 55
2, 62895, Note_off_c, 0, 75, 55
2, 62895, Note_on_c, 0, 79, 64
2, 62895, Note_on_c, 0, 76, 64
2, 63015, Note_off_c, 0, 76, 42
2, 63015, Note_on_c, 0, 71, 64
2, 63135, Note_off_c, 0, 71, 50
2, 63135, Note_on_c, 0, 76, 64
2, 63255, Note_off_c, 0, 76, 58
2, 63255, Note_on_c, 0, 74, 64
2, 63375, Note_off_c, 0, 74, 65
2, 63375, Note_on_c, 0, 73, 64
2, 63495, Note_off_c, 0, 79, 50
2, 63495, Note_on_c, 0, 76, 64
2, 63615, Note_off_c, 0, 76, 52
2, 63615, Note_on_c, 0, 81, 64
2, 63735, Note_off_c, 0, 81, 47
2, 63735, Note_on_c, 0, 79, 64
2, 63855, Note_off_c, 0, 79, 61
2, 63855, Note_off_c, 0, 73, 69
2, 63855, Note_on_c, 0, 74, 64
2, 63855, Note_on_c, 0, 78, 64
2, 64095, Note_off_c, 0, 78, 57
2, 64095, Note_off_c, 0, 74, 69
2, 64095, Note_on_c, 0, 73, 64
2, 64095, Note_on_c, 0, 76, 64
2, 64335, Note_off_c, 0, 76, 48
2, 64335, Note_off_c, 0, 73, 63
2, 64335, Note_on_c, 0, 78, 64
2, 64335, Note_on_c, 0, 74, 64
2, 64455, Note_off_c, 0, 74, 66
2, 64455, Note_on_c, 0, 69, 64
2, 64575, Note_off_c, 0, 69, 46
2, 64575, Note_on_c, 0, 71, 64
2, 64695, Note_off_c, 0, 71, 73
2, 64695, Note_on_c, 0, 73, 64
2, 64815, Note_off_c, 0, 73, 62
2, 64815, Note_on_c, 0, 74, 64
2, 64925, Note_off_c, 0, 78, 57
2, 64938, Note_on_c, 0, 78, 64
2, 65058, Note_off_c, 0, 78, 65
2, 65058, Note_on_c, 0, 80, 64
2, 65178, Note_off_c, 0, 80, 61
2, 65178, Note_on_c, 0, 81, 64
2, 65298, Note_off_c, 0, 81, 66
2, 65298, Note_on_c, 0, 83, 64
2, 65418, Note_off_c, 0, 74, 58
2, 65418, Note_on_c, 0, 73, 64
2, 65538, Note_off_c, 0, 73, 68
2, 65538, Note_off_c, 0, 83, 47
2, 65538, Note_on_c, 0, 78, 64
2, 65538, Note_on_c, 0, 81, 64
2, 65658, Note_off_c, 0, 78, 49
2, 65658, Note_on_c, 0, 76, 64
2, 65778, Note_off_c, 0, 76, 3
2, 65778, Note_on_c, 0, 74, 64
2, 65898, Note_off_c, 0, 74, 72
2, 65898, Note_on_c, 0, 73, 64
2, 66018, Note_off_c, 0, 73, 66
2, 66018, Note_off_c, 0, 81, 61
2, 66018, Note_on_c, 0, 71, 64
2, 66018, Note_on_c, 0, 79, 64
2, 66138, Note_off_c, 0, 79, 62
2, 66138, Note_on_c, 0, 78, 64
2, 66258, Note_off_c, 0, 78, 53
2, 66258, Note_on_c, 0, 77, 64
2, 66378, Note_off_c, 0, 77, 77
2, 66378, Note_on_c, 0, 73, 64
2, 66498, Note_off_c, 0, 73, 54
2, 66498, Note_off_c, 0, 71, 70
2, 66498, Note_on_c, 0, 69, 64
2, 66498, Note_on_c, 0, 78, 64
2, 66618, Note_off_c, 0, 78, 61
2, 66618, Note_on_c, 0, 76, 64
2, 66738, Note_off_c, 0, 76, 50
2, 66738, Note_on_c, 0, 74, 64
2, 66858, Note_off_c, 0, 69, 74
2, 66858, Note_on_c, 0, 69, 64
2, 66978, Note_off_c, 0, 69, 79
2, 66978, Note_on_c, 0, 68, 64
2, 67098, Note_off_c, 0, 68, 68
2, 67098, Note_on_c, 0, 66, 64
2, 67218, Note_off_c, 0, 66, 54
2, 67218, Note_on_c, 0, 65, 64
2, 67338, Note_off_c, 0, 65, 1
2, 67338, Note_on_c, 0, 66, 64
2, 67458, Note_off_c, 0, 66, 70
2, 67458, Note_off_c, 0, 74, 63
2, 67458, Note_on_c, 0, 68, 64
2, 67458, Note_on_c, 0, 73, 64
2, 67578, Note_off_c, 0, 73, 61
2, 67578, Note_on_c, 0, 71, 64
2, 67698, Note_off_c, 0, 71, 69
2, 67698, Note_on_c, 0, 69, 64
2, 67818, Note_off_c, 0, 69, 68
2, 67818, Note_on_c, 0, 71, 64
2, 67938, Note_off_c, 0, 71, 52
2, 67938, Note_off_c, 0, 68, 73
2, 67938, Note_on_c, 0, 66, 64
2, 67938, Note_on_c, 0, 73, 64
2, 68058, Note_off_c, 0, 66, 72
2, 68058, Note_on_c, 0, 64, 64
2, 68178, Note_off_c, 0, 64, 52
2, 68178, Note_on_c, 0, 62, 64
2, 68418, Note_off_c, 0, 73, 65
2, 68418, Note_on_c, 0, 71, 64
2, 68658, Note_off_c, 0, 62, 59
2, 68658, Note_on_c, 0, 61, 64
2, 68898, Note_off_c, 0, 71, 69
2, 68898, Note_on_c, 0, 69, 64
2, 69138, Note_off_c, 0, 61, 62
2, 69138, Note_on_c, 0, 59, 64
2, 69378, Note_off_c, 0, 69, 70
2, 69378, Note_on_c, 0, 68, 64
2, 69498, Note_off_c, 0, 68, 69
2, 69498, Note_on_c, 0, 66, 64
2, 69618, Note_off_c, 0, 66, 66
2, 69618, Note_on_c, 0, 65, 64
2, 69738, Note_off_c, 0, 65, 1
2, 69738, Note_off_c, 0, 59, 44
2, 69738, Note_on_c, 0, 65, 64
2, 69738, Note_on_c, 0, 74, 64
2, 69858, Note_off_c, 0, 74, 57
2, 69858, Note_off_c, 0, 65, 1
2, 69858, Note_on_c, 0, 66, 64
2, 69858, Note_on_c, 0, 73, 64
2, 69978, Note_off_c, 0, 73, 68
2, 69978, Note_off_c, 0, 66, 76
2, 69978, Note_on_c, 0, 68, 64
2, 69978, Note_on_c, 0, 71, 64
2, 70098, Note_off_c, 0, 71, 68
2, 70098, Note_off_c, 0, 68, 77
2, 70098, Note_on_c, 0, 61, 64
2, 70098, Note_on_c, 0, 69, 64
2, 70218, Note_off_c, 0, 61, 72
2, 70218, Note_on_c, 0, 66, 64
2, 70338, Note_off_c, 0, 69, 74
2, 70338, Note_on_c, 0, 68, 64
2, 70458, Note_off_c, 0, 66, 74
2, 70458, Note_on_c, 0, 65, 64
2, 70578, Note_off_c, 0, 65, 65
2, 70578, Note_off_c, 0, 68, 70
2, 70578, Note_on_c, 0, 66, 64
2, 70818, Note_off_c, 0, 66, 82
2, 70818, Note_on_c, 0, 72, 64
2, 71058, Note_on_c, 0, 75, 64
2, 71298, Note_off_c, 0, 75, 55
2, 71298, Note_off_c, 0, 72, 79
2, 71298, Note_on_c, 0, 71, 64
2, 71298, Note_on_c, 0, 76, 64
2, 71418, Note_off_c, 0, 76, 55
2, 71418, Note_off_c, 0, 71, 79
2, 71418, Note_on_c, 0, 69, 64
2, 71418, Note_on_c, 0, 78, 64
2, 71538, Note_off_c, 0, 78, 54
2, 71538, Note_off_c, 0, 69, 69
2, 71538, Note_on_c, 0, 67, 64
2, 71538, Note_on_c, 0, 71, 64
2, 71658, Note_off_c, 0, 71, 16
2, 71658, Note_off_c, 0, 67, 30
2, 71658, Note_on_c, 0, 75, 64
2, 71658, Note_on_c, 0, 84, 64
2, 71778, Note_off_c, 0, 84, 31
2, 71778, Note_off_c, 0, 75, 53
2, 71778, Note_on_c, 0, 76, 64
2, 71778, Note_on_c, 0, 83, 64
2, 71898, Note_off_c, 0, 83, 69
2, 71898, Note_off_c, 0, 76, 63
2, 71898, Note_on_c, 0, 78, 64
2, 71898, Note_on_c, 0, 81, 64
2, 72018, Note_off_c, 0, 81, 43
2, 72018, Note_off_c, 0, 78, 59
2, 72018, Note_on_c, 0, 71, 64
2, 72018, Note_on_c, 0, 79, 64
2, 72138, Note_off_c, 0, 71, 34
2, 72138, Note_on_c, 0, 76, 64
2, 72258, Note_off_c, 0, 79, 62
2, 72258, Note_on_c, 0, 78, 64
2, 72378, Note_off_c, 0, 76, 50
2, 72378, Note_on_c, 0, 75, 64
2, 72498, Note_off_c, 0, 75, 62
2, 72498, Note_off_c, 0, 78, 55
2, 72498, Note_on_c, 0, 76, 64
2, 72738, Note_off_c, 0, 76, 66
2, 72738, Note_on_c, 0, 82, 64
2, 72978, Note_on_c, 0, 73, 64
2, 73218, Note_off_c, 0, 82, 62
2, 73218, Note_off_c, 0, 73, 68
2, 73218, Note_on_c, 0, 74, 64
2, 73218, Note_on_c, 0, 81, 64
2, 73338, Note_off_c, 0, 81, 70
2, 73338, Note_off_c, 0, 74, 76
2, 73338, Note_on_c, 0, 76, 64
2, 73338, Note_on_c, 0, 79, 64
2, 73458, Note_off_c, 0, 79, 59
2, 73458, Note_off_c, 0, 76, 58
2, 73458, Note_on_c, 0, 69, 64
2, 73458, Note_on_c, 0, 78, 64
2, 73578, Note_off_c, 0, 78, 54
2, 73578, Note_off_c, 0, 69, 45
2, 73578, Note_on_c, 0, 70, 64
2, 73578, Note_on_c, 0, 73, 64
2, 73698, Note_off_c, 0, 73, 65
2, 73698, Note_off_c, 0, 70, 72
2, 73698, Note_on_c, 0, 69, 64
2, 73698, Note_on_c, 0, 74, 64
2, 73818, Note_off_c, 0, 74, 73
2, 73818, Note_off_c, 0, 69, 68
2, 73818, Note_on_c, 0, 67, 64
2, 73818, Note_on_c, 0, 76, 64
2, 73938, Note_off_c, 0, 76, 57
2, 73938, Note_off_c, 0, 67, 34
2, 73938, Note_on_c, 0, 66, 64
2, 73938, Note_on_c, 0, 69, 64
2, 74058, Note_off_c, 0, 69, 49
2, 74058, Note_on_c, 0, 74, 64
2, 74178, Note_off_c, 0, 66, 73
2, 74178, Note_on_c, 0, 64, 64
2, 74298, Note_off_c, 0, 74, 66
2, 74298, Note_on_c, 0, 73, 64
2, 74418, Note_off_c, 0, 73, 66
2, 74418, Note_off_c, 0, 64, 59
2, 74418, Note_on_c, 0, 62, 64
2, 74418, Note_on_c, 0, 66, 64
2, 74538, Note_off_c, 0, 66, 53
2, 74538, Note_on_c, 0, 71, 64
2, 74658, Note_off_c, 0, 62, 38
2, 74658, Note_on_c, 0, 61, 64
2, 74778, Note_off_c, 0, 71, 73
2, 74778, Note_on_c, 0, 69, 64
2, 74898, Note_off_c, 0, 69, 72
2, 74898, Note_off_c, 0, 61, 54
2, 74898, Note_on_c, 0, 59, 64
2, 74898, Note_on_c, 0, 62, 64
2, 75018, Note_off_c, 0, 62, 39
2, 75018, Note_on_c, 0, 67, 64
2, 75138, Note_off_c, 0, 59, 23
2, 75138, Note_on_c, 0, 57, 64
2, 75258, Note_off_c, 0, 67, 53
2, 75258, Note_on_c, 0, 66, 64
2, 75378, Note_off_c, 0, 66, 66
2, 75378, Note_off_c, 0, 57, 15
2, 75378, Note_on_c, 0, 59, 64
2, 75378, Note_on_c, 0, 68, 64
2, 75618, Note_off_c, 0, 68, 74
2, 75618, Note_off_c, 0, 59, 51
2, 75618, Note_on_c, 0, 64, 64
2, 75618, Note_on_c, 0, 70, 64
2, 75738, Note_off_c, 0, 70, 63
2, 75738, Note_on_c, 0, 71, 64
2, 75858, Note_off_c, 0, 71, 80
2, 75858, Note_on_c, 0, 73, 64
2, 75978, Note_off_c, 0, 64, 46
2, 75978, Note_on_c, 0, 67, 64
2, 76098, Note_off_c, 0, 67, 52
2, 76098, Note_on_c, 0, 66, 64
2, 76218, Note_off_c, 0, 66, 55
2, 76218, Note_on_c, 0, 64, 64
2, 76338, Note_off_c, 0, 64, 49
2, 76338, Note_on_c, 0, 62, 64
2, 76458, Note_off_c, 0, 73, 69
2, 76458, Note_on_c, 0, 71, 64
2, 76578, Note_off_c, 0, 71, 61
2, 76578, Note_off_c, 0, 62, 39
2, 76578, Note_on_c, 0, 67, 64
2, 76578, Note_on_c, 0, 73, 64
2, 76698, Note_off_c, 0, 73, 62
2, 76698, Note_on_c, 0, 74, 64
2, 76818, Note_off_c, 0, 74, 63
2, 76818, Note_on_c, 0, 76, 64
2, 76938, Note_off_c, 0, 67, 46
2, 76938, Note_on_c, 0, 71, 64
2, 77058, Note_off_c, 0, 71, 57
2, 77058, Note_on_c, 0, 69, 64
2, 77178, Note_off_c, 0, 69, 66
2, 77178, Note_on_c, 0, 67, 64
2, 77298, Note_off_c, 0, 67, 51
2, 77298, Note_on_c, 0, 66, 64
2, 77418, Note_off_c, 0, 76, 57
2, 77418, Note_on_c, 0, 74, 64
2, 77538, Note_off_c, 0, 74, 74
2, 77538, Note_off_c, 0, 66, 68
2, 77538, Note_on_c, 0, 71, 64
2, 77538, Note_on_c, 0, 76, 64
2, 77658, Note_off_c, 0, 76, 54
2, 77658, Note_on_c, 0, 78, 64
2, 77778, Note_off_c, 0, 78, 30
2, 77778, Note_on_c, 0, 79, 64
2, 77898, Note_off_c, 0, 71, 59
2, 77898, Note_on_c, 0, 74, 64
2, 78018, Note_off_c, 0, 74, 50
2, 78018, Note_on_c, 0, 73, 64
2, 78138, Note_off_c, 0, 73, 46
2, 78138, Note_on_c, 0, 71, 64
2, 78258, Note_off_c, 0, 71, 80
2, 78258, Note_on_c, 0, 73, 64
2, 78378, Note_off_c, 0, 73, 65
2, 78378, Note_on_c, 0, 76, 64
2, 78498, Note_off_c, 0, 76, 46
2, 78498, Note_off_c, 0, 79, 69
2, 78498, Note_on_c, 0, 74, 64
2, 78498, Note_on_c, 0, 78, 64
2, 78618, Note_off_c, 0, 74, 52
2, 78618, Note_on_c, 0, 73, 64
2, 78738, Note_off_c, 0, 73, 63
2, 78738, Note_on_c, 0, 74, 64
2, 78858, Note_off_c, 0, 78, 55
2, 78858, Note_on_c, 0, 81, 64
2, 78978, Note_off_c, 0, 81, 43
2, 78978, Note_off_c, 0, 74, 66
2, 78978, Note_on_c, 0, 71, 64
2, 78978, Note_on_c, 0, 79, 64
2, 79098, Note_off_c, 0, 79, 66
2, 79098, Note_on_c, 0, 78, 64
2, 79218, Note_off_c, 0, 78, 44
2, 79218, Note_on_c, 0, 76, 64
2, 79338, Note_off_c, 0, 71, 68
2, 79338, Note_on_c, 0, 74, 64
2, 79458, Note_off_c, 0, 74, 63
2, 79458, Note_off_c, 0, 76, 46
2, 79458, Note_on_c, 0, 73, 64
2, 79458, Note_on_c, 0, 80, 64
2, 79578, Note_off_c, 0, 73, 52
2, 79578, Note_on_c, 0, 71, 64
2, 79698, Note_off_c, 0, 71, 66
2, 79698, Note_on_c, 0, 76, 64
2, 79818, Note_off_c, 0, 80, 58
2, 79818, Note_on_c, 0, 83, 64
2, 79938, Note_off_c, 0, 83, 50
2, 79938, Note_off_c, 0, 76, 47
2, 79938, Note_on_c, 0, 73, 64
2, 79938, Note_on_c, 0, 81, 64
2, 80058, Note_off_c, 0, 81, 49
2, 80058, Note_on_c, 0, 80, 64
2, 80178, Note_off_c, 0, 80, 65
2, 80178, Note_on_c, 0, 81, 64
2, 80298, Note_off_c, 0, 73, 53
2, 80298, Note_on_c, 0, 76, 64
2, 80418, Note_off_c, 0, 76, 30
2, 80418, Note_off_c, 0, 81, 63
2, 80418, Note_on_c, 0, 74, 64
2, 80418, Note_on_c, 0, 82, 64
2, 80538, Note_off_c, 0, 74, 58
2, 80538, Note_on_c, 0, 73, 64
2, 80658, Note_off_c, 0, 73, 73
2, 80658, Note_on_c, 0, 78, 64
2, 80778, Note_off_c, 0, 82, 61
2, 80778, Note_on_c, 0, 84, 64
2, 80898, Note_off_c, 0, 84, 31
2, 80898, Note_off_c, 0, 78, 59
2, 80898, Note_on_c, 0, 74, 64
2, 80898, Note_on_c, 0, 83, 64
2, 81018, Note_off_c, 0, 83, 59
2, 81018, Note_on_c, 0, 82, 64
2, 81138, Note_off_c, 0, 82, 52
2, 81138, Note_on_c, 0, 83, 64
2, 81258, Note_off_c, 0, 74, 59
2, 81258, Note_on_c, 0, 76, 64
2, 81378, Note_off_c, 0, 76, 46
2, 81378, Note_on_c, 0, 78, 64
2, 81498, Note_off_c, 0, 83, 61
2, 81498, Note_on_c, 0, 81, 64
2, 81618, Note_off_c, 0, 81, 52
2, 81618, Note_on_c, 0, 79, 64
2, 81858, Note_off_c, 0, 78, 69
2, 81858, Note_on_c, 0, 76, 64
2, 82098, Note_off_c, 0, 79, 69
2, 82098, Note_on_c, 0, 78, 64
2, 82338, Note_off_c, 0, 76, 59
2, 82338, Note_on_c, 0, 74, 64
2, 82578, Note_off_c, 0, 78, 57
2, 82578, Note_on_c, 0, 76, 64
2, 82818, Note_off_c, 0, 74, 72
2, 82818, Note_on_c, 0, 73, 64
2, 83058, Note_off_c, 0, 76, 57
2, 83058, Note_on_c, 0, 74, 64
2, 83298, Note_off_c, 0, 73, 66
2, 83298, Note_on_c, 0, 71, 64
2, 83418, Note_off_c, 0, 71, 73
2, 83418, Note_on_c, 0, 69, 64
2, 83538, Note_off_c, 0, 69, 66
2, 83538, Note_on_c, 0, 67, 64
2, 83778, Note_off_c, 0, 74, 65
2, 83778, Note_on_c, 0, 73, 64
2, 83898, Note_off_c, 0, 73, 59
2, 83898, Note_on_c, 0, 71, 64
2, 84018, Note_off_c, 0, 71, 76
2, 84018, Note_on_c, 0, 70, 64
2, 84138, Note_off_c, 0, 70, 79
2, 84138, Note_off_c, 0, 67, 37
2, 84138, Note_on_c, 0, 70, 64
2, 84138, Note_on_c, 0, 79, 64
2, 84258, Note_off_c, 0, 79, 44
2, 84258, Note_off_c, 0, 70, 72
2, 84258, Note_on_c, 0, 71, 64
2, 84258, Note_on_c, 0, 78, 64
2, 84378, Note_off_c, 0, 78, 52
2, 84378, Note_off_c, 0, 71, 82
2, 84378, Note_on_c, 0, 73, 64
2, 84378, Note_on_c, 0, 76, 64
2, 84498, Note_off_c, 0, 76, 53
2, 84498, Note_off_c, 0, 73, 77
2, 84498, Note_on_c, 0, 66, 64
2, 84498, Note_on_c, 0, 74, 64
2, 84618, Note_off_c, 0, 66, 72
2, 84618, Note_on_c, 0, 71, 64
2, 84738, Note_off_c, 0, 74, 65
2, 84738, Note_on_c, 0, 73, 64
2, 84858, Note_off_c, 0, 71, 73
2, 84858, Note_on_c, 0, 70, 64
2, 84978, Note_off_c, 0, 70, 73
2, 84978, Note_off_c, 0, 73, 54
2, 84978, Note_on_c, 0, 71, 64
2, 85098, Note_on_c, 0, 64, 64
2, 85338, Note_off_c, 0, 64, 19
2, 85338, Note_on_c, 0, 63, 64
2, 85458, Note_off_c, 0, 63, 49
2, 85458, Note_on_c, 0, 67, 64
2, 85568, Note_off_c, 0, 71, 72
2, 85581, Note_on_c, 0, 71, 64
2, 85821, Note_off_c, 0, 71, 74
2, 85821, Note_on_c, 0, 70, 64
2, 85941, Note_off_c, 0, 70, 65
2, 85941, Note_off_c, 0, 67, 52
2, 85941, Note_on_c, 0, 76, 64
2, 86061, Note_on_c, 0, 67, 64
2, 86301, Note_off_c, 0, 67, 57
2, 86301, Note_on_c, 0, 66, 64
2, 86421, Note_off_c, 0, 66, 63
2, 86421, Note_off_c, 0, 76, 59
2, 86421, Note_on_c, 0, 71, 64
2, 86541, Note_on_c, 0, 76, 64
2, 86781, Note_off_c, 0, 76, 52
2, 86781, Note_on_c, 0, 75, 64
2, 86901, Note_off_c, 0, 75, 55
2, 86901, Note_on_c, 0, 79, 64
2, 87011, Note_off_c, 0, 71, 69
2, 87024, Note_on_c, 0, 71, 64
2, 87264, Note_off_c, 0, 71, 70
2, 87264, Note_on_c, 0, 70, 64
2, 87384, Note_off_c, 0, 70, 65
2, 87384, Note_on_c, 0, 74, 64
2, 87504, Note_off_c, 0, 79, 66
2, 87504, Note_on_c, 0, 78, 64
2, 87744, Note_off_c, 0, 78, 51
2, 87744, Note_on_c, 0, 77, 64
2, 87864, Note_off_c, 0, 77, 65
2, 87864, Note_on_c, 0, 83, 64
2, 87984, Note_off_c, 0, 83, 37
2, 87984, Note_off_c, 0, 74, 58
2, 87984, Note_on_c, 0, 72, 64
2, 87984, Note_on_c, 0, 76, 64
2, 88044, Note_off_c, 0, 76, 51
2, 88044, Note_on_c, 0, 75, 64
2, 88104, Note_off_c, 0, 75, 40
2, 88104, Note_off_c, 0, 72, 76
2, 88104, Note_on_c, 0, 71, 64
2, 88104, Note_on_c, 0, 76, 64
2, 88224, Note_off_c, 0, 76, 52
2, 88224, Note_on_c, 0, 79, 64
2, 88344, Note_off_c, 0, 79, 63
2, 88344, Note_on_c, 0, 74, 64
2, 88584, Note_off_c, 0, 74, 63
2, 88584, Note_off_c, 0, 71, 63
2, 88584, Note_on_c, 0, 70, 64
2, 88584, Note_on_c, 0, 73, 64
2, 88824, Note_off_c, 0, 73, 68
2, 88824, Note_off_c, 0, 70, 68
2, 88824, Note_on_c, 0, 69, 64
2, 88824, Note_on_c, 0, 75, 64
2, 88944, Note_off_c, 0, 75, 61
2, 88944, Note_off_c, 0, 69, 72
2, 88944, Note_on_c, 0, 67, 64
2, 88944, Note_on_c, 0, 76, 64
2, 89064, Note_off_c, 0, 76, 66
2, 89064, Note_on_c, 0, 70, 64
2, 89184, Note_off_c, 0, 70, 66
2, 89184, Note_off_c, 0, 67, 62
2, 89184, Note_on_c, 0, 66, 64
2, 89184, Note_on_c, 0, 71, 64
2, 89304, Note_off_c, 0, 71, 65
2, 89304, Note_on_c, 0, 67, 64
2, 89424, Note_off_c, 0, 66, 70
2, 89424, Note_on_c, 0, 64, 64
2, 89544, Note_off_c, 0, 64, 58
2, 89544, Note_on_c, 0, 61, 64
2, 89664, Note_on_c, 0, 70, 64
2, 89784, Note_off_c, 0, 70, 70
2, 89784, Note_off_c, 0, 61, 55
2, 89784, Note_off_c, 0, 67, 49
2, 89784, Note_on_c, 0, 63, 64
2, 89784, Note_on_c, 0, 71, 64
2, 89784, Note_on_c, 0, 66, 64
2, 90264, Note_off_c, 0, 66, 58
2, 90264, Note_off_c, 0, 71, 80
2, 90264, Note_off_c, 0, 63, 65
2, 90264, End_track
3, 0, Start_track
3, 0, Text_t, "LH B"
3, 0, Note_on_c, 1, 47, 64
3, 120, Note_off_c, 1, 47, 48
3, 120, Note_on_c, 1, 49, 64
3, 240, Note_off_c, 1, 49, 61
3, 240, Note_on_c, 1, 50, 64
3, 360, Note_off_c, 1, 50, 36
3, 360, Note_on_c, 1, 52, 64
3, 480, Note_off_c, 1, 52, 50
3, 480, Note_on_c, 1, 54, 64
3, 600, Note_off_c, 1, 54, 65
3, 600, Note_on_c, 1, 56, 64
3, 720, Note_off_c, 1, 56, 69
3, 720, Note_on_c, 1, 57, 64
3, 840, Note_off_c, 1, 57, 53
3, 840, Note_on_c, 1, 59, 64
3, 960, Note_off_c, 1, 59, 62
3, 960, Note_on_c, 1, 61, 64
3, 1080, Note_off_c, 1, 61, 61
3, 1080, Note_on_c, 1, 59, 64
3, 1200, Note_off_c, 1, 59, 68
3, 1200, Note_on_c, 1, 58, 64
3, 1320, Note_off_c, 1, 58, 47
3, 1320, Note_on_c, 1, 54, 64
3, 1440, Note_off_c, 1, 54, 44
3, 1440, Note_on_c, 1, 59, 64
3, 1560, Note_off_c, 1, 59, 54
3, 1560, Note_on_c, 1, 57, 64
3, 1680, Note_off_c, 1, 57, 49
3, 1680, Note_on_c, 1, 55, 64
3, 1800, Note_off_c, 1, 55, 62
3, 1800, Note_on_c, 1, 54, 64
3, 1920, Note_off_c, 1, 54, 42
3, 1920, Note_on_c, 1, 52, 64
3, 2040, Note_off_c, 1, 52, 46
3, 2040, Note_on_c, 1, 49, 64
3, 2160, Note_off_c, 1, 49, 52
3, 2160, Note_on_c, 1, 50, 64
3, 2280, Note_off_c, 1, 50, 34
3, 2280, Note_on_c, 1, 52, 64
3, 2400, Note_off_c, 1, 52, 50
3, 2400, Note_on_c, 1, 54, 64
3, 2520, Note_off_c, 1, 54, 69
3, 2520, Note_on_c, 1, 42, 64
3, 2640, Note_off_c, 1, 42, 45
3, 2640, Note_on_c, 1, 44, 64
3, 2760, Note_off_c, 1, 44, 69
3, 2760, Note_on_c, 1, 46, 64
3, 2880, Note_off_c, 1, 46, 65
3, 2880, Note_on_c, 1, 47, 64
3, 3000, Note_off_c, 1, 47, 37
3, 3000, Note_on_c, 1, 49, 64
3, 3120, Note_off_c, 1, 49, 73
3, 3120, Note_on_c, 1, 50, 64
3, 3240, Note_off_c, 1, 50, 65
3, 3240, Note_on_c, 1, 52, 64
3, 3360, Note_off_c, 1, 52, 55
3, 3360, Note_on_c, 1, 54, 64
3, 3480, Note_off_c, 1, 54, 59
3, 3480, Note_on_c, 1, 56, 64
3, 3600, Note_off_c, 1, 56, 61
3, 3600, Note_on_c, 1, 57, 64
3, 3720, Note_off_c, 1, 57, 52
3, 3720, Note_on_c, 1, 54, 64
3, 3840, Note_off_c, 1, 54, 53
3, 3840, Note_on_c, 1, 59, 64
3, 3960, Note_off_c, 1, 59, 63
3, 3960, Note_on_c, 1, 47, 64
3, 4080, Note_off_c, 1, 47, 38
3, 4080, Note_on_c, 1, 49, 64
3, 4200, Note_off_c, 1, 49, 62
3, 4200, Note_on_c, 1, 45, 64
3, 4320, Note_off_c, 1, 45, 36
3, 4320, Note_on_c, 1, 50, 64
3, 4440, Note_off_c, 1, 50, 49
3, 4440, Note_on_c, 1, 49, 64
3, 4560, Note_off_c, 1, 49, 44
3, 4560, Note_on_c, 1, 47, 64
3, 4680, Note_off_c, 1, 47, 51
3, 4680, Note_on_c, 1, 45, 64
3, 4800, Note_off_c, 1, 45, 37
3, 4800, Note_on_c, 1, 43, 64
3, 4920, Note_off_c, 1, 43, 5
3, 4920, Note_on_c, 1, 54, 64
3, 5040, Note_off_c, 1, 54, 43
3, 5040, Note_on_c, 1, 52, 64
3, 5160, Note_off_c, 1, 52, 54
3, 5160, Note_on_c, 1, 50, 64
3, 5280, Note_off_c, 1, 50, 66
3, 5280, Note_on_c, 1, 49, 64
3, 5400, Note_off_c, 1, 49, 59
3, 5400, Note_on_c, 1, 57, 64
3, 5520, Note_off_c, 1, 57, 48
3, 5520, Note_on_c, 1, 59, 64
3, 5640, Note_off_c, 1, 59, 27
3, 5640, Note_on_c, 1, 54, 64
3, 5760, Note_off_c, 1, 54, 47
3, 5760, Note_on_c, 1, 55, 64
3, 5880, Note_off_c, 1, 55, 59
3, 5880, Note_on_c, 1, 52, 64
3, 6000, Note_off_c, 1, 52, 58
3, 6000, Note_on_c, 1, 57, 64
3, 6120, Note_off_c, 1, 57, 65
3, 6120, Note_on_c, 1, 45, 64
3, 6240, Note_off_c, 1, 45, 52
3, 6240, Note_on_c, 1, 50, 64
3, 6360, Note_off_c, 1, 50, 65
3, 6360, Note_on_c, 1, 52, 64
3, 6480, Note_off_c, 1, 52, 43
3, 6480, Note_on_c, 1, 54, 64
3, 6600, Note_off_c, 1, 54, 37
3, 6600, Note_on_c, 1, 55, 64
3, 6720, Note_off_c, 1, 55, 74
3, 6720, Note_on_c, 1, 45, 64
3, 6840, Note_off_c, 1, 45, 39
3, 6840, Note_on_c, 1, 47, 64
3, 6960, Note_off_c, 1, 47, 52
3, 6960, Note_on_c, 1, 49, 64
3, 7080, Note_off_c, 1, 49, 66
3, 7080, Note_on_c, 1, 50, 64
3, 7200, Note_off_c, 1, 50, 48
3, 7200, Note_on_c, 1, 52, 64
3, 7320, Note_off_c, 1, 52, 50
3, 7320, Note_on_c, 1, 54, 64
3, 7440, Note_off_c, 1, 54, 54
3, 7440, Note_on_c, 1, 55, 64
3, 7560, Note_off_c, 1, 55, 54
3, 7560, Note_on_c, 1, 57, 64
3, 7680, Note_off_c, 1, 57, 57
3, 7680, Note_on_c, 1, 47, 64
3, 7800, Note_off_c, 1, 47, 47
3, 7800, Note_on_c, 1, 49, 64
3, 7920, Note_off_c, 1, 49, 65
3, 7920, Note_on_c, 1, 50, 64
3, 8040, Note_off_c, 1, 50, 43
3, 8040, Note_on_c, 1, 52, 64
3, 8160, Note_off_c, 1, 52, 41
3, 8160, Note_on_c, 1, 54, 64
3, 8280, Note_off_c, 1, 54, 69
3, 8280, Note_on_c, 1, 56, 64
3, 8400, Note_off_c, 1, 56, 63
3, 8400, Note_on_c, 1, 57, 64
3, 8520, Note_off_c, 1, 57, 42
3, 8520, Note_on_c, 1, 59, 64
3, 8640, Note_off_c, 1, 59, 28
3, 8640, Note_on_c, 1, 61, 64
3, 8760, Note_off_c, 1, 61, 50
3, 8760, Note_on_c, 1, 59, 64
3, 8880, Note_off_c, 1, 59, 39
3, 8880, Note_on_c, 1, 61, 64
3, 9000, Note_off_c, 1, 61, 49
3, 9000, Note_on_c, 1, 57, 64
3, 9120, Note_off_c, 1, 57, 34
3, 9120, Note_on_c, 1, 62, 64
3, 9240, Note_off_c, 1, 62, 47
3, 9240, Note_on_c, 1, 61, 64
3, 9360, Note_off_c, 1, 61, 58
3, 9360, Note_on_c, 1, 62, 64
3, 9480, Note_off_c, 1, 62, 44
3, 9480, Note_on_c, 1, 59, 64
3, 9600, Note_off_c, 1, 59, 43
3, 9600, Note_on_c, 1, 53, 64
3, 9720, Note_off_c, 1, 53, 51
3, 9720, Note_on_c, 1, 61, 64
3, 9840, Note_off_c, 1, 61, 52
3, 9840, Note_on_c, 1, 62, 64
3, 9960, Note_off_c, 1, 62, 34
3, 9960, Note_on_c, 1, 57, 64
3, 10080, Note_off_c, 1, 57, 37
3, 10080, Note_on_c, 1, 59, 64
3, 10200, Note_off_c, 1, 59, 38
3, 10200, Note_on_c, 1, 56, 64
3, 10320, Note_off_c, 1, 56, 49
3, 10320, Note_on_c, 1, 61, 64
3, 10440, Note_off_c, 1, 61, 63
3, 10440, Note_on_c, 1, 49, 64
3, 10560, Note_off_c, 1, 49, 52
3, 10560, Note_on_c, 1, 54, 64
3, 10680, Note_off_c, 1, 54, 38
3, 10680, Note_on_c, 1, 52, 64
3, 10800, Note_off_c, 1, 52, 41
3, 10800, Note_on_c, 1, 54, 64
3, 10920, Note_off_c, 1, 54, 41
3, 10920, Note_on_c, 1, 56, 64
3, 11040, Note_off_c, 1, 56, 62
3, 11040, Note_on_c, 1, 57, 64
3, 11160, Note_off_c, 1, 57, 38
3, 11160, Note_on_c, 1, 59, 64
3, 11280, Note_off_c, 1, 59, 41
3, 11280, Note_on_c, 1, 61, 64
3, 11400, Note_off_c, 1, 61, 50
3, 11400, Note_on_c, 1, 62, 64
3, 11520, Note_off_c, 1, 62, 57
3, 11520, Note_on_c, 1, 52, 64
3, 11640, Note_off_c, 1, 52, 46
3, 11640, Note_on_c, 1, 54, 64
3, 11760, Note_off_c, 1, 54, 50
3, 11760, Note_on_c, 1, 55, 64
3, 11880, Note_off_c, 1, 55, 44
3, 11880, Note_on_c, 1, 57, 64
3, 12000, Note_off_c, 1, 57, 35
3, 12000, Note_on_c, 1, 59, 64
3, 12120, Note_off_c, 1, 59, 50
3, 12120, Note_on_c, 1, 61, 64
3, 12240, Note_off_c, 1, 61, 44
3, 12240, Note_on_c, 1, 62, 64
3, 12360, Note_off_c, 1, 62, 46
3, 12360, Note_on_c, 1, 64, 64
3, 12480, Note_off_c, 1, 64, 50
3, 12480, Note_on_c, 1, 54, 64
3, 12600, Note_off_c, 1, 54, 59
3, 12600, Note_on_c, 1, 52, 64
3, 12720, Note_off_c, 1, 52, 43
3, 12720, Note_on_c, 1, 54, 64
3, 12840, Note_off_c, 1, 54, 52
3, 12840, Note_on_c, 1, 50, 64
3, 12960, Note_off_c, 1, 50, 38
3, 12960, Note_on_c, 1, 55, 64
3, 13080, Note_off_c, 1, 55, 57
3, 13080, Note_on_c, 1, 54, 64
3, 13200, Note_off_c, 1, 54, 59
3, 13200, Note_on_c, 1, 55, 64
3, 13320, Note_off_c, 1, 55, 52
3, 13320, Note_on_c, 1, 52, 64
3, 13440, Note_off_c, 1, 52, 63
3, 13440, Note_on_c, 1, 58, 64
3, 13560, Note_off_c, 1, 58, 55
3, 13560, Note_on_c, 1, 54, 64
3, 13680, Note_off_c, 1, 54, 30
3, 13680, Note_on_c, 1, 59, 64
3, 13800, Note_off_c, 1, 59, 50
3, 13800, Note_on_c, 1, 52, 64
3, 13920, Note_off_c, 1, 52, 55
3, 13920, Note_on_c, 1, 54, 64
3, 14040, Note_off_c, 1, 54, 43
3, 14040, Note_on_c, 1, 52, 64
3, 14160, Note_off_c, 1, 52, 27
3, 14160, Note_on_c, 1, 54, 64
3, 14280, Note_off_c, 1, 54, 65
3, 14280, Note_on_c, 1, 42, 64
3, 14400, Note_off_c, 1, 42, 15
3, 14400, Note_on_c, 1, 47, 64
3, 14640, Note_off_c, 1, 47, 42
3, 14640, Note_on_c, 1, 45, 64
3, 14870, Note_off_c, 1, 45, 49
3, 14883, Note_on_c, 1, 45, 68
3, 14903, Note_off_c, 1, 45, 62
3, 14903, Note_on_c, 1, 43, 48
3, 14923, Note_off_c, 1, 43, 58
3, 14923, Note_on_c, 1, 45, 49
3, 14943, Note_off_c, 1, 45, 59
3, 14943, Note_on_c, 1, 43, 49
3, 14963, Note_off_c, 1, 43, 48
3, 14963, Note_on_c, 1, 45, 50
3, 14983, Note_off_c, 1, 45, 52
3, 14983, Note_on_c, 1, 43, 51
3, 15003, Note_off_c, 1, 43, 42
3, 15003, Note_on_c, 1, 45, 51
3, 15023, Note_off_c, 1, 45, 55
3, 15023, Note_on_c, 1, 43, 52
3, 15043, Note_off_c, 1, 43, 50
3, 15043, Note_on_c, 1, 45, 53
3, 15063, Note_off_c, 1, 45, 54
3, 15063, Note_on_c, 1, 43, 54
3, 15083, Note_off_c, 1, 43, 49
3, 15083, Note_on_c, 1, 45, 54
3, 15103, Note_off_c, 1, 45, 52
3, 15103, Note_on_c, 1, 43, 55
3, 15123, Note_off_c, 1, 43, 46
3, 15123, Note_on_c, 1, 45, 56
3, 15143, Note_off_c, 1, 45, 52
3, 15143, Note_on_c, 1, 43, 56
3, 15163, Note_off_c, 1, 43, 52
3, 15163, Note_on_c, 1, 45, 57
3, 15183, Note_off_c, 1, 45, 54
3, 15183, Note_on_c, 1, 43, 58
3, 15203, Note_off_c, 1, 43, 51
3, 15203, Note_on_c, 1, 45, 58
3, 15223, Note_off_c, 1, 45, 59
3, 15223, Note_on_c, 1, 43, 59
3, 15243, Note_off_c, 1, 43, 59
3, 15243, Note_on_c, 1, 45, 60
3, 15263, Note_off_c, 1, 45, 53
3, 15263, Note_on_c, 1, 43, 61
3, 15283, Note_off_c, 1, 43, 55
3, 15283, Note_on_c, 1, 45, 61
3, 15303, Note_off_c, 1, 45, 52
3, 15303, Note_on_c, 1, 43, 62
3, 15323, Note_off_c, 1, 43, 44
3, 15323, Note_on_c, 1, 45, 63
3, 15343, Note_off_c, 1, 45, 39
3, 15343, Note_on_c, 1, 43, 63
3, 15363, Note_off_c, 1, 43, 49
3, 15363, Note_on_c, 1, 42, 64
3, 16323, Note_off_c, 1, 42, 77
3, 16323, Note_on_c, 1, 47, 64
3, 16443, Note_off_c, 1, 47, 48
3, 16443, Note_on_c, 1, 49, 64
3, 16563, Note_off_c, 1, 49, 61
3, 16563, Note_on_c, 1, 50, 64
3, 16683, Note_off_c, 1, 50, 36
3, 16683, Note_on_c, 1, 52, 64
3, 16803, Note_off_c, 1, 52, 50
3, 16803, Note_on_c, 1, 54, 64
3, 16923, Note_off_c, 1, 54, 65
3, 16923, Note_on_c, 1, 56, 64
3, 17043, Note_off_c, 1, 56, 69
3, 17043, Note_on_c, 1, 57, 64
3, 17163, Note_off_c, 1, 57, 53
3, 17163, Note_on_c, 1, 59, 64
3, 17283, Note_off_c, 1, 59, 62
3, 17283, Note_on_c, 1, 61, 64
3, 17403, Note_off_c, 1, 61, 61
3, 17403, Note_on_c, 1, 59, 64
3, 17523, Note_off_c, 1, 59, 68
3, 17523, Note_on_c, 1, 58, 64
3, 17643, Note_off_c, 1, 58, 47
3, 17643, Note_on_c, 1, 54, 64
3, 17763, Note_off_c, 1, 54, 44
3, 17763, Note_on_c, 1, 59, 64
3, 17883, Note_off_c, 1, 59, 54
3, 17883, Note_on_c, 1, 57, 64
3, 18003, Note_off_c, 1, 57, 49
3, 18003, Note_on_c, 1, 55, 64
3, 18123, Note_off_c, 1, 55, 62
3, 18123, Note_on_c, 1, 54, 64
3, 18243, Note_off_c, 1, 54, 42
3, 18243, Note_on_c, 1, 52, 64
3, 18363, Note_off_c, 1, 52, 46
3, 18363, Note_on_c, 1, 49, 64
3, 18483, Note_off_c, 1, 49, 52
3, 18483, Note_on_c, 1, 50, 64
3, 18603, Note_off_c, 1, 50, 34
3, 18603, Note_on_c, 1, 52, 64
3, 18723, Note_off_c, 1, 52, 50
3, 18723, Note_on_c, 1, 54, 64
3, 18843, Note_off_c, 1, 54, 69
3, 18843, Note_on_c, 1, 42, 64
3, 18963, Note_off_c, 1, 42, 45
3, 18963, Note_on_c, 1, 44, 64
3, 19083, Note_off_c, 1, 44, 69
3, 19083, Note_on_c, 1, 46, 64
3, 19203, Note_off_c, 1, 46, 65
3, 19203, Note_on_c, 1, 47, 64
3, 19323, Note_off_c, 1, 47, 37
3, 19323, Note_on_c, 1, 49, 64
3, 19443, Note_off_c, 1, 49, 73
3, 19443, Note_on_c, 1, 50, 64
3, 19563, Note_off_c, 1, 50, 65
3, 19563, Note_on_c, 1, 52, 64
3, 19683, Note_off_c, 1, 52, 55
3, 19683, Note_on_c, 1, 54, 64
3, 19803, Note_off_c, 1, 54, 59
3, 19803, Note_on_c, 1, 56, 64
3, 19923, Note_off_c, 1, 56, 61
3, 19923, Note_on_c, 1, 57, 64
3, 20043, Note_off_c, 1, 57, 52
3, 20043, Note_on_c, 1, 54, 64
3, 20163, Note_off_c, 1, 54, 53
3, 20163, Note_on_c, 1, 59, 64
3, 20283, Note_off_c, 1, 59, 63
3, 20283, Note_on_c, 1, 47, 64
3, 20403, Note_off_c, 1, 47, 38
3, 20403, Note_on_c, 1, 49, 64
3, 20523, Note_off_c, 1, 49, 62
3, 20523, Note_on_c, 1, 45, 64
3, 20643, Note_off_c, 1, 45, 36
3, 20643, Note_on_c, 1, 50, 64
3, 20763, Note_off_c, 1, 50, 49
3, 20763, Note_on_c, 1, 49, 64
3, 20883, Note_off_c, 1, 49, 44
3, 20883, Note_on_c, 1, 47, 64
3, 21003, Note_off_c, 1, 47, 51
3, 21003, Note_on_c, 1, 45, 64
3, 21123, Note_off_c, 1, 45, 37
3, 21123, Note_on_c, 1, 43, 64
3, 21243, Note_off_c, 1, 43, 5
3, 21243, Note_on_c, 1, 54, 64
3, 21363, Note_off_c, 1, 54, 43
3, 21363, Note_on_c, 1, 52, 64
3, 21483, Note_off_c, 1, 52, 54
3, 21483, Note_on_c, 1, 50, 64
3, 21603, Note_off_c, 1, 50, 66
3, 21603, Note_on_c, 1, 49, 64
3, 21723, Note_off_c, 1, 49, 59
3, 21723, Note_on_c, 1, 57, 64
3, 21843, Note_off_c, 1, 57, 48
3, 21843, Note_on_c, 1, 59, 64
3, 21963, Note_off_c, 1, 59, 27
3, 21963, Note_on_c, 1, 54, 64
3, 22083, Note_off_c, 1, 54, 47
3, 22083, Note_on_c, 1, 55, 64
3, 22203, Note_off_c, 1, 55, 59
3, 22203, Note_on_c, 1, 52, 64
3, 22323, Note_off_c, 1, 52, 58
3, 22323, Note_on_c, 1, 57, 64
3, 22443, Note_off_c, 1, 57, 65
3, 22443, Note_on_c, 1, 45, 64
3, 22563, Note_off_c, 1, 45, 52
3, 22563, Note_on_c, 1, 50, 64
3, 22683, Note_off_c, 1, 50, 65
3, 22683, Note_on_c, 1, 52, 64
3, 22803, Note_off_c, 1, 52, 43
3, 22803, Note_on_c, 1, 54, 64
3, 22923, Note_off_c, 1, 54, 37
3, 22923, Note_on_c, 1, 55, 64
3, 23043, Note_off_c, 1, 55, 74
3, 23043, Note_on_c, 1, 45, 64
3, 23163, Note_off_c, 1, 45, 39
3, 23163, Note_on_c, 1, 47, 64
3, 23283, Note_off_c, 1, 47, 52
3, 23283, Note_on_c, 1, 49, 64
3, 23403, Note_off_c, 1, 49, 66
3, 23403, Note_on_c, 1, 50, 64
3, 23523, Note_off_c, 1, 50, 48
3, 23523, Note_on_c, 1, 52, 64
3, 23643, Note_off_c, 1, 52, 50
3, 23643, Note_on_c, 1, 54, 64
3, 23763, Note_off_c, 1, 54, 54
3, 23763, Note_on_c, 1, 55, 64
3, 23883, Note_off_c, 1, 55, 54
3, 23883, Note_on_c, 1, 57, 64
3, 24003, Note_off_c, 1, 57, 57
3, 24003, Note_on_c, 1, 47, 64
3, 24123, Note_off_c, 1, 47, 47
3, 24123, Note_on_c, 1, 49, 64
3, 24243, Note_off_c, 1, 49, 65
3, 24243, Note_on_c, 1, 50, 64
3, 24363, Note_off_c, 1, 50, 43
3, 24363, Note_on_c, 1, 52, 64
3, 24483, Note_off_c, 1, 52, 41
3, 24483, Note_on_c, 1, 54, 64
3, 24603, Note_off_c, 1, 54, 69
3, 24603, Note_on_c, 1, 56, 64
3, 24723, Note_off_c, 1, 56, 63
3, 24723, Note_on_c, 1, 57, 64
3, 24843, Note_off_c, 1, 57, 42
3, 24843, Note_on_c, 1, 59, 64
3, 24963, Note_off_c, 1, 59, 28
3, 24963, Note_on_c, 1, 61, 64
3, 25083, Note_off_c, 1, 61, 50
3, 25083, Note_on_c, 1, 59, 64
3, 25203, Note_off_c, 1, 59, 39
3, 25203, Note_on_c, 1, 61, 64
3, 25323, Note_off_c, 1, 61, 49
3, 25323, Note_on_c, 1, 57, 64
3, 25443, Note_off_c, 1, 57, 34
3, 25443, Note_on_c, 1, 62, 64
3, 25563, Note_off_c, 1, 62, 47
3, 25563, Note_on_c, 1, 61, 64
3, 25683, Note_off_c, 1, 61, 58
3, 25683, Note_on_c, 1, 62, 64
3, 25803, Note_off_c, 1, 62, 44
3, 25803, Note_on_c, 1, 59, 64
3, 25923, Note_off_c, 1, 59, 43
3, 25923, Note_on_c, 1, 53, 64
3, 26043, Note_off_c, 1, 53, 51
3, 26043, Note_on_c, 1, 61, 64
3, 26163, Note_off_c, 1, 61, 52
3, 26163, Note_on_c, 1, 62, 64
3, 26283, Note_off_c, 1, 62, 34
3, 26283, Note_on_c, 1, 57, 64
3, 26403, Note_off_c, 1, 57, 37
3, 26403, Note_on_c, 1, 59, 64
3, 26523, Note_off_c, 1, 59, 38
3, 26523, Note_on_c, 1, 56, 64
3, 26643, Note_off_c, 1, 56, 49
3, 26643, Note_on_c, 1, 61, 64
3, 26763, Note_off_c, 1, 61, 63
3, 26763, Note_on_c, 1, 49, 64
3, 26883, Note_off_c, 1, 49, 52
3, 26883, Note_on_c, 1, 54, 64
3, 27003, Note_off_c, 1, 54, 38
3, 27003, Note_on_c, 1, 52, 64
3, 27123, Note_off_c, 1, 52, 41
3, 27123, Note_on_c, 1, 54, 64
3, 27243, Note_off_c, 1, 54, 41
3, 27243, Note_on_c, 1, 56, 64
3, 27363, Note_off_c, 1, 56, 62
3, 27363, Note_on_c, 1, 57, 64
3, 27483, Note_off_c, 1, 57, 38
3, 27483, Note_on_c, 1, 59, 64
3, 27603, Note_off_c, 1, 59, 41
3, 27603, Note_on_c, 1, 61, 64
3, 27723, Note_off_c, 1, 61, 50
3, 27723, Note_on_c, 1, 62, 64
3, 27843, Note_off_c, 1, 62, 57
3, 27843, Note_on_c, 1, 52, 64
3, 27963, Note_off_c, 1, 52, 46
3, 27963, Note_on_c, 1, 54, 64
3, 28083, Note_off_c, 1, 54, 50
3, 28083, Note_on_c, 1, 55, 64
3, 28203, Note_off_c, 1, 55, 44
3, 28203, Note_on_c, 1, 57, 64
3, 28323, Note_off_c, 1, 57, 35
3, 28323, Note_on_c, 1, 59, 64
3, 28443, Note_off_c, 1, 59, 50
3, 28443, Note_on_c, 1, 61, 64
3, 28563, Note_off_c, 1, 61, 44
3, 28563, Note_on_c, 1, 62, 64
3, 28683, Note_off_c, 1, 62, 46
3, 28683, Note_on_c, 1, 64, 64
3, 28803, Note_off_c, 1, 64, 50
3, 28803, Note_on_c, 1, 54, 64
3, 28923, Note_off_c, 1, 54, 59
3, 28923, Note_on_c, 1, 52, 64
3, 29043, Note_off_c, 1, 52, 43
3, 29043, Note_on_c, 1, 54, 64
3, 29163, Note_off_c, 1, 54, 52
3, 29163, Note_on_c, 1, 50, 64
3, 29283, Note_off_c, 1, 50, 38
3, 29283, Note_on_c, 1, 55, 64
3, 29403, Note_off_c, 1, 55, 57
3, 29403, Note_on_c, 1, 54, 64
3, 29523, Note_off_c, 1, 54, 59
3, 29523, Note_on_c, 1, 55, 64
3, 29643, Note_off_c, 1, 55, 52
3, 29643, Note_on_c, 1, 52, 64
3, 29763, Note_off_c, 1, 52, 63
3, 29763, Note_on_c, 1, 58, 64
3, 29883, Note_off_c, 1, 58, 55
3, 29883, Note_on_c, 1, 54, 64
3, 30003, Note_off_c, 1, 54, 30
3, 30003, Note_on_c, 1, 59, 64
3, 30123, Note_off_c, 1, 59, 50
3, 30123, Note_on_c, 1, 52, 64
3, 30243, Note_off_c, 1, 52, 55
3, 30243, Note_on_c, 1, 54, 64
3, 30363, Note_off_c, 1, 54, 43
3, 30363, Note_on_c, 1, 52, 64
3, 30483, Note_off_c, 1, 52, 27
3, 30483, Note_on_c, 1, 54, 64
3, 30603, Note_off_c, 1, 54, 65
3, 30603, Note_on_c, 1, 42, 64
3, 30723, Note_off_c, 1, 42, 15
3, 30723, Note_on_c, 1, 47, 64
3, 30963, Note_off_c, 1, 47, 42
3, 30963, Note_on_c, 1, 45, 64
3, 31193, Note_off_c, 1, 45, 49
3, 31206, Note_on_c, 1, 45, 68
3, 31226, Note_off_c, 1, 45, 62
3, 31226, Note_on_c, 1, 43, 48
3, 31246, Note_off_c, 1, 43, 58
3, 31246, Note_on_c, 1, 45, 49
3, 31266, Note_off_c, 1, 45, 59
3, 31266, Note_on_c, 1, 43, 49
3, 31286, Note_off_c, 1, 43, 48
3, 31286, Note_on_c, 1, 45, 50
3, 31306, Note_off_c, 1, 45, 52
3, 31306, Note_on_c, 1, 43, 51
3, 31326, Note_off_c, 1, 43, 42
3, 31326, Note_on_c, 1, 45, 51
3, 31346, Note_off_c, 1, 45, 55
3, 31346, Note_on_c, 1, 43, 52
3, 31366, Note_off_c, 1, 43, 50
3, 31366, Note_on_c, 1, 45, 53
3, 31386, Note_off_c, 1, 45, 54
3, 31386, Note_on_c, 1, 43, 53
3, 31406, Note_off_c, 1, 43, 49
3, 31406, Note_on_c, 1, 45, 54
3, 31426, Note_off_c, 1, 45, 52
3, 31426, Note_on_c, 1, 43, 55
3, 31446, Note_off_c, 1, 43, 46
3, 31446, Note_on_c, 1, 45, 56
3, 31466, Note_off_c, 1, 45, 52
3, 31466, Note_on_c, 1, 43, 56
3, 31486, Note_off_c, 1, 43, 52
3, 31486, Note_on_c, 1, 45, 57
3, 31506, Note_off_c, 1, 45, 54
3, 31506, Note_on_c, 1, 43, 58
3, 31526, Note_off_c, 1, 43, 51
3, 31526, Note_on_c, 1, 45, 58
3, 31546, Note_off_c, 1, 45, 59
3, 31546, Note_on_c, 1, 43, 59
3, 31566, Note_off_c, 1, 43, 59
3, 31566, Note_on_c, 1, 45, 60
3, 31586, Note_off_c, 1, 45, 53
3, 31586, Note_on_c, 1, 43, 60
3, 31606, Note_off_c, 1, 43, 55
3, 31606, Note_on_c, 1, 45, 61
3, 31626, Note_off_c, 1, 45, 52
3, 31626, Note_on_c, 1, 43, 62
3, 31646, Note_off_c, 1, 43, 43
3, 31646, Note_on_c, 1, 45, 62
3, 31666, Note_off_c, 1, 45, 46
3, 31666, Note_on_c, 1, 43, 63
3, 31686, Note_off_c, 1, 43, 55
3, 31686, Note_on_c, 1, 42, 64
3, 32646, Note_off_c, 1, 42, 77
3, 32646, Note_on_c, 1, 54, 64
3, 32766, Note_off_c, 1, 54, 69
3, 32766, Note_on_c, 1, 55, 64
3, 32886, Note_off_c, 1, 55, 65
3, 32886, Note_on_c, 1, 57, 64
3, 33006, Note_off_c, 1, 57, 55
3, 33006, Note_on_c, 1, 54, 64
3, 33126, Note_off_c, 1, 54, 62
3, 33126, Note_on_c, 1, 59, 64
3, 33246, Note_off_c, 1, 59, 52
3, 33246, Note_on_c, 1, 57, 64
3, 33366, Note_off_c, 1, 57, 57
3, 33366, Note_on_c, 1, 55, 64
3, 33486, Note_off_c, 1, 55, 57
3, 33486, Note_on_c, 1, 54, 64
3, 33606, Note_off_c, 1, 54, 65
3, 33606, Note_on_c, 1, 52, 64
3, 33726, Note_off_c, 1, 52, 72
3, 33726, Note_on_c, 1, 43, 64
3, 33846, Note_off_c, 1, 43, 50
3, 33846, Note_on_c, 1, 45, 64
3, 33966, Note_off_c, 1, 45, 65
3, 33966, Note_on_c, 1, 47, 64
3, 34086, Note_off_c, 1, 47, 76
3, 34086, Note_on_c, 1, 40, 64
3, 34206, Note_off_c, 1, 40, 33
3, 34206, Note_on_c, 1, 42, 64
3, 34326, Note_off_c, 1, 42, 59
3, 34326, Note_on_c, 1, 43, 64
3, 34446, Note_off_c, 1, 43, 57
3, 34446, Note_on_c, 1, 40, 64
3, 34566, Note_off_c, 1, 40, 43
3, 34566, Note_on_c, 1, 45, 64
3, 34686, Note_off_c, 1, 45, 62
3, 34686, Note_on_c, 1, 43, 64
3, 34806, Note_off_c, 1, 43, 54
3, 34806, Note_on_c, 1, 42, 64
3, 34926, Note_off_c, 1, 42, 46
3, 34926, Note_on_c, 1, 40, 64
3, 35046, Note_off_c, 1, 40, 34
3, 35046, Note_on_c, 1, 38, 64
3, 35166, Note_off_c, 1, 38, 13
3, 35166, Note_on_c, 1, 42, 64
3, 35286, Note_off_c, 1, 42, 53
3, 35286, Note_on_c, 1, 43, 64
3, 35406, Note_off_c, 1, 43, 58
3, 35406, Note_on_c, 1, 45, 64
3, 35526, Note_off_c, 1, 45, 70
3, 35526, Note_on_c, 1, 38, 64
3, 35646, Note_off_c, 1, 38, 37
3, 35646, Note_on_c, 1, 52, 64
3, 35766, Note_off_c, 1, 52, 45
3, 35766, Note_on_c, 1, 50, 64
3, 35886, Note_off_c, 1, 50, 61
3, 35886, Note_on_c, 1, 49, 64
3, 36006, Note_off_c, 1, 49, 65
3, 36006, Note_on_c, 1, 47, 64
3, 36126, Note_off_c, 1, 47, 59
3, 36126, Note_on_c, 1, 45, 64
3, 36246, Note_off_c, 1, 45, 68
3, 36246, Note_on_c, 1, 44, 64
3, 36366, Note_off_c, 1, 44, 55
3, 36366, Note_on_c, 1, 42, 64
3, 36486, Note_off_c, 1, 42, 54
3, 36486, Note_on_c, 1, 41, 64
3, 36606, Note_off_c, 1, 41, 43
3, 36606, Note_on_c, 1, 54, 64
3, 36726, Note_off_c, 1, 54, 68
3, 36726, Note_on_c, 1, 56, 64
3, 36846, Note_off_c, 1, 56, 72
3, 36846, Note_on_c, 1, 57, 64
3, 36966, Note_off_c, 1, 57, 51
3, 36966, Note_on_c, 1, 59, 64
3, 37086, Note_off_c, 1, 59, 68
3, 37086, Note_on_c, 1, 61, 64
3, 37206, Note_off_c, 1, 61, 58
3, 37206, Note_on_c, 1, 62, 64
3, 37326, Note_off_c, 1, 62, 43
3, 37326, Note_on_c, 1, 59, 64
3, 37446, Note_off_c, 1, 59, 50
3, 37446, Note_on_c, 1, 61, 64
3, 37566, Note_off_c, 1, 61, 55
3, 37566, Note_on_c, 1, 42, 64
3, 37686, Note_off_c, 1, 42, 54
3, 37686, Note_on_c, 1, 44, 64
3, 37806, Note_off_c, 1, 44, 59
3, 37806, Note_on_c, 1, 45, 64
3, 37926, Note_off_c, 1, 45, 52
3, 37926, Note_on_c, 1, 47, 64
3, 38046, Note_off_c, 1, 47, 9
3, 38046, Note_on_c, 1, 49, 64
3, 38166, Note_off_c, 1, 49, 49
3, 38166, Note_on_c, 1, 50, 64
3, 38286, Note_off_c, 1, 50, 39
3, 38286, Note_on_c, 1, 47, 64
3, 38406, Note_off_c, 1, 47, 63
3, 38406, Note_on_c, 1, 49, 64
3, 38526, Note_off_c, 1, 49, 69
3, 38526, Note_on_c, 1, 51, 64
3, 38646, Note_off_c, 1, 51, 55
3, 38646, Note_on_c, 1, 53, 64
3, 38766, Note_off_c, 1, 53, 32
3, 38766, Note_on_c, 1, 49, 64
3, 38886, Note_off_c, 1, 49, 68
3, 38886, Note_on_c, 1, 54, 64
3, 39006, Note_off_c, 1, 54, 54
3, 39006, Note_on_c, 1, 56, 64
3, 39126, Note_off_c, 1, 56, 61
3, 39126, Note_on_c, 1, 57, 64
3, 39246, Note_off_c, 1, 57, 46
3, 39246, Note_on_c, 1, 54, 64
3, 39366, Note_off_c, 1, 54, 53
3, 39366, Note_on_c, 1, 59, 64
3, 39486, Note_off_c, 1, 59, 43
3, 39486, Note_on_c, 1, 57, 64
3, 39606, Note_off_c, 1, 57, 62
3, 39606, Note_on_c, 1, 56, 64
3, 39726, Note_off_c, 1, 56, 65
3, 39726, Note_on_c, 1, 54, 64
3, 39846, Note_off_c, 1, 54, 50
3, 39846, Note_on_c, 1, 53, 64
3, 39966, Note_off_c, 1, 53, 44
3, 39966, Note_on_c, 1, 49, 64
3, 40086, Note_off_c, 1, 49, 65
3, 40086, Note_on_c, 1, 54, 64
3, 40206, Note_off_c, 1, 54, 46
3, 40206, Note_on_c, 1, 52, 64
3, 40326, Note_off_c, 1, 52, 40
3, 40326, Note_on_c, 1, 50, 64
3, 40446, Note_off_c, 1, 50, 62
3, 40446, Note_on_c, 1, 49, 64
3, 40566, Note_off_c, 1, 49, 57
3, 40566, Note_on_c, 1, 50, 64
3, 40686, Note_off_c, 1, 50, 34
3, 40686, Note_on_c, 1, 47, 64
3, 40806, Note_off_c, 1, 47, 57
3, 40806, Note_on_c, 1, 49, 64
3, 40926, Note_off_c, 1, 49, 63
3, 40926, Note_on_c, 1, 47, 64
3, 41046, Note_off_c, 1, 47, 62
3, 41046, Note_on_c, 1, 45, 64
3, 41166, Note_off_c, 1, 45, 54
3, 41166, Note_on_c, 1, 47, 64
3, 41286, Note_off_c, 1, 47, 54
3, 41286, Note_on_c, 1, 49, 64
3, 41406, Note_off_c, 1, 49, 61
3, 41406, Note_on_c, 1, 47, 64
3, 41526, Note_off_c, 1, 47, 68
3, 41526, Note_on_c, 1, 49, 64
3, 41646, Note_off_c, 1, 49, 72
3, 41646, Note_on_c, 1, 37, 64
3, 41766, Note_off_c, 1, 37, 40
3, 41766, Note_on_c, 1, 42, 64
3, 41886, Note_off_c, 1, 42, 55
3, 41886, Note_on_c, 1, 49, 64
3, 42006, Note_off_c, 1, 49, 52
3, 42006, Note_on_c, 1, 51, 64
3, 42126, Note_off_c, 1, 51, 57
3, 42126, Note_on_c, 1, 52, 64
3, 42246, Note_off_c, 1, 52, 59
3, 42246, Note_on_c, 1, 54, 64
3, 42366, Note_off_c, 1, 54, 58
3, 42366, Note_on_c, 1, 57, 64
3, 42486, Note_off_c, 1, 57, 35
3, 42486, Note_on_c, 1, 55, 64
3, 42606, Note_off_c, 1, 55, 65
3, 42606, Note_on_c, 1, 54, 64
3, 42726, Note_off_c, 1, 54, 43
3, 42726, Note_on_c, 1, 52, 64
3, 42846, Note_off_c, 1, 52, 63
3, 42846, Note_on_c, 1, 54, 64
3, 42966, Note_off_c, 1, 54, 52
3, 42966, Note_on_c, 1, 55, 64
3, 43086, Note_off_c, 1, 55, 54
3, 43086, Note_on_c, 1, 57, 64
3, 43206, Note_off_c, 1, 57, 50
3, 43206, Note_on_c, 1, 59, 64
3, 43326, Note_off_c, 1, 59, 46
3, 43326, Note_on_c, 1, 57, 64
3, 43446, Note_off_c, 1, 57, 47
3, 43446, Note_on_c, 1, 59, 64
3, 43566, Note_off_c, 1, 59, 17
3, 43566, Note_on_c, 1, 47, 64
3, 43686, Note_off_c, 1, 47, 39
3, 43686, Note_on_c, 1, 52, 64
3, 43806, Note_off_c, 1, 52, 58
3, 43806, Note_on_c, 1, 59, 64
3, 43926, Note_off_c, 1, 59, 57
3, 43926, Note_on_c, 1, 61, 64
3, 44046, Note_off_c, 1, 61, 47
3, 44046, Note_on_c, 1, 62, 64
3, 44166, Note_off_c, 1, 62, 51
3, 44166, Note_on_c, 1, 64, 64
3, 44286, Note_off_c, 1, 64, 45
3, 44286, Note_on_c, 1, 55, 64
3, 44406, Note_off_c, 1, 55, 59
3, 44406, Note_on_c, 1, 54, 64
3, 44526, Note_off_c, 1, 54, 55
3, 44526, Note_on_c, 1, 52, 64
3, 44646, Note_off_c, 1, 52, 68
3, 44646, Note_on_c, 1, 50, 64
3, 44766, Note_off_c, 1, 50, 55
3, 44766, Note_on_c, 1, 52, 64
3, 44886, Note_off_c, 1, 52, 62
3, 44886, Note_on_c, 1, 54, 64
3, 45006, Note_off_c, 1, 54, 54
3, 45006, Note_on_c, 1, 55, 64
3, 45126, Note_off_c, 1, 55, 59
3, 45126, Note_on_c, 1, 57, 64
3, 45246, Note_off_c, 1, 57, 33
3, 45246, Note_on_c, 1, 55, 64
3, 45366, Note_off_c, 1, 55, 55
3, 45366, Note_on_c, 1, 57, 64
3, 45486, Note_off_c, 1, 57, 13
3, 45486, Note_on_c, 1, 45, 64
3, 45606, Note_off_c, 1, 45, 27
3, 45606, Note_on_c, 1, 47, 64
3, 45726, Note_off_c, 1, 47, 43
3, 45726, Note_on_c, 1, 50, 64
3, 45846, Note_off_c, 1, 50, 59
3, 45846, Note_on_c, 1, 54, 64
3, 45966, Note_off_c, 1, 54, 29
3, 45966, Note_on_c, 1, 42, 64
3, 46086, Note_off_c, 1, 42, 42
3, 46086, Note_on_c, 1, 43, 64
3, 46206, Note_off_c, 1, 43, 40
3, 46206, Note_on_c, 1, 47, 64
3, 46326, Note_off_c, 1, 47, 43
3, 46326, Note_on_c, 1, 50, 64
3, 46686, Note_off_c, 1, 50, 74
3, 46686, Note_on_c, 1, 50, 64
3, 46806, Note_off_c, 1, 50, 70
3, 46806, Note_on_c, 1, 49, 64
3, 46926, Note_off_c, 1, 49, 68
3, 46926, Note_on_c, 1, 47, 64
3, 47046, Note_off_c, 1, 47, 72
3, 47046, Note_on_c, 1, 46, 64
3, 47166, Note_off_c, 1, 46, 72
3, 47166, Note_on_c, 1, 42, 64
3, 47286, Note_off_c, 1, 42, 65
3, 47286, Note_on_c, 1, 44, 64
3, 47406, Note_off_c, 1, 44, 74
3, 47406, Note_on_c, 1, 46, 64
3, 47526, Note_off_c, 1, 46, 72
3, 47526, Note_on_c, 1, 47, 64
3, 47646, Note_off_c, 1, 47, 72
3, 47646, Note_on_c, 1, 54, 64
3, 47766, Note_off_c, 1, 54, 53
3, 47766, Note_on_c, 1, 52, 64
3, 47886, Note_off_c, 1, 52, 76
3, 47886, Note_on_c, 1, 50, 64
3, 48006, Note_off_c, 1, 50, 68
3, 48006, Note_on_c, 1, 49, 64
3, 48126, Note_off_c, 1, 49, 72
3, 48126, Note_on_c, 1, 45, 64
3, 48246, Note_off_c, 1, 45, 43
3, 48246, Note_on_c, 1, 47, 64
3, 48366, Note_off_c, 1, 47, 55
3, 48366, Note_on_c, 1, 49, 64
3, 48486, Note_off_c, 1, 49, 77
3, 48486, Note_on_c, 1, 50, 64
3, 48606, Note_off_c, 1, 50, 40
3, 48606, Note_on_c, 1, 57, 64
3, 48726, Note_off_c, 1, 57, 49
3, 48726, Note_on_c, 1, 55, 64
3, 48846, Note_off_c, 1, 55, 55
3, 48846, Note_on_c, 1, 54, 64
3, 48966, Note_off_c, 1, 54, 46
3, 48966, Note_on_c, 1, 52, 64
3, 49086, Note_off_c, 1, 52, 70
3, 49086, Note_on_c, 1, 49, 64
3, 49206, Note_off_c, 1, 49, 52
3, 49206, Note_on_c, 1, 50, 64
3, 49326, Note_off_c, 1, 50, 43
3, 49326, Note_on_c, 1, 52, 64
3, 49446, Note_off_c, 1, 52, 70
3, 49446, Note_on_c, 1, 46, 64
3, 49566, Note_off_c, 1, 46, 53
3, 49566, Note_on_c, 1, 54, 64
3, 49686, Note_off_c, 1, 54, 59
3, 49686, Note_on_c, 1, 56, 64
3, 49806, Note_off_c, 1, 56, 50
3, 49806, Note_on_c, 1, 58, 64
3, 49926, Note_off_c, 1, 58, 52
3, 49926, Note_on_c, 1, 59, 64
3, 50046, Note_off_c, 1, 59, 54
3, 50046, Note_on_c, 1, 47, 64
3, 50166, Note_off_c, 1, 47, 63
3, 50166, Note_on_c, 1, 49, 64
3, 50286, Note_off_c, 1, 49, 68
3, 50286, Note_on_c, 1, 50, 64
3, 50406, Note_off_c, 1, 50, 47
3, 50406, Note_on_c, 1, 52, 64
3, 50526, Note_off_c, 1, 52, 63
3, 50526, Note_on_c, 1, 54, 64
3, 50646, Note_off_c, 1, 54, 62
3, 50646, Note_on_c, 1, 52, 64
3, 50766, Note_off_c, 1, 52, 72
3, 50766, Note_on_c, 1, 50, 64
3, 50886, Note_off_c, 1, 50, 62
3, 50886, Note_on_c, 1, 49, 64
3, 51006, Note_off_c, 1, 49, 68
3, 51006, Note_on_c, 1, 61, 64
3, 51126, Note_off_c, 1, 61, 70
3, 51126, Note_on_c, 1, 62, 64
3, 51246, Note_off_c, 1, 62, 43
3, 51246, Note_on_c, 1, 64, 64
3, 51366, Note_off_c, 1, 64, 58
3, 51366, Note_on_c, 1, 66, 64
3, 51486, Note_off_c, 1, 66, 21
3, 51486, Note_on_c, 1, 67, 64
3, 51606, Note_off_c, 1, 67, 50
3, 51606, Note_on_c, 1, 66, 64
3, 51726, Note_off_c, 1, 66, 63
3, 51726, Note_on_c, 1, 64, 64
3, 51846, Note_off_c, 1, 64, 49
3, 51846, Note_on_c, 1, 62, 64
3, 51966, Note_off_c, 1, 62, 47
3, 51966, Note_on_c, 1, 50, 64
3, 52086, Note_off_c, 1, 50, 48
3, 52086, Note_on_c, 1, 52, 64
3, 52206, Note_off_c, 1, 52, 44
3, 52206, Note_on_c, 1, 54, 64
3, 52326, Note_off_c, 1, 54, 54
3, 52326, Note_on_c, 1, 55, 64
3, 52446, Note_off_c, 1, 55, 57
3, 52446, Note_on_c, 1, 54, 64
3, 52566, Note_off_c, 1, 54, 73
3, 52566, Note_on_c, 1, 52, 64
3, 52686, Note_off_c, 1, 52, 62
3, 52686, Note_on_c, 1, 51, 64
3, 52806, Note_off_c, 1, 51, 55
3, 52806, Note_on_c, 1, 52, 64
3, 52926, Note_off_c, 1, 52, 63
3, 52926, Note_on_c, 1, 50, 64
3, 53046, Note_off_c, 1, 50, 38
3, 53046, Note_on_c, 1, 49, 64
3, 53166, Note_off_c, 1, 49, 61
3, 53166, Note_on_c, 1, 47, 64
3, 53286, Note_off_c, 1, 47, 52
3, 53286, Note_on_c, 1, 46, 64
3, 53406, Note_off_c, 1, 46, 59
3, 53406, Note_on_c, 1, 54, 64
3, 53526, Note_off_c, 1, 54, 48
3, 53526, Note_on_c, 1, 59, 64
3, 53646, Note_off_c, 1, 59, 54
3, 53646, Note_on_c, 1, 57, 64
3, 53766, Note_off_c, 1, 57, 52
3, 53766, Note_on_c, 1, 56, 64
3, 53886, Note_off_c, 1, 56, 54
3, 53886, Note_on_c, 1, 54, 64
3, 54006, Note_off_c, 1, 54, 52
3, 54006, Note_on_c, 1, 56, 64
3, 54126, Note_off_c, 1, 56, 49
3, 54126, Note_on_c, 1, 58, 64
3, 54246, Note_off_c, 1, 58, 59
3, 54246, Note_on_c, 1, 59, 64
3, 54366, Note_off_c, 1, 59, 55
3, 54366, Note_on_c, 1, 47, 64
3, 54486, Note_off_c, 1, 47, 58
3, 54486, Note_on_c, 1, 49, 64
3, 54606, Note_off_c, 1, 49, 61
3, 54606, Note_on_c, 1, 50, 64
3, 54726, Note_off_c, 1, 50, 58
3, 54726, Note_on_c, 1, 52, 64
3, 54846, Note_off_c, 1, 52, 54
3, 54846, Note_on_c, 1, 54, 64
3, 54966, Note_off_c, 1, 54, 52
3, 54966, Note_on_c, 1, 55, 64
3, 55086, Note_off_c, 1, 55, 58
3, 55086, Note_on_c, 1, 52, 64
3, 55206, Note_off_c, 1, 52, 53
3, 55206, Note_on_c, 1, 54, 64
3, 55326, Note_off_c, 1, 54, 59
3, 55326, Note_on_c, 1, 52, 64
3, 55446, Note_off_c, 1, 52, 51
3, 55446, Note_on_c, 1, 50, 64
3, 55566, Note_off_c, 1, 50, 61
3, 55566, Note_on_c, 1, 52, 64
3, 55686, Note_off_c, 1, 52, 52
3, 55686, Note_on_c, 1, 54, 64
3, 55806, Note_off_c, 1, 54, 68
3, 55806, Note_on_c, 1, 52, 64
3, 55926, Note_off_c, 1, 52, 40
3, 55926, Note_on_c, 1, 54, 64
3, 56046, Note_off_c, 1, 54, 59
3, 56046, Note_on_c, 1, 42, 64
3, 56166, Note_off_c, 1, 42, 52
3, 56166, Note_on_c, 1, 43, 64
3, 56406, Note_off_c, 1, 43, 53
3, 56406, Note_on_c, 1, 42, 64
3, 56646, Note_off_c, 1, 42, 53
3, 56646, Note_on_c, 1, 40, 64
3, 56886, Note_off_c, 1, 40, 49
3, 56886, Note_on_c, 1, 38, 64
3, 57126, Note_off_c, 1, 38, 23
3, 57126, Note_on_c, 1, 37, 64
3, 57246, Note_off_c, 1, 37, 68
3, 57246, Note_on_c, 1, 59, 64
3, 57366, Note_off_c, 1, 59, 49
3, 57366, Note_on_c, 1, 58, 64
3, 57486, Note_off_c, 1, 58, 53
3, 57486, Note_on_c, 1, 57, 64
3, 57606, Note_off_c, 1, 57, 49
3, 57606, Note_on_c, 1, 56, 64
3, 57726, Note_off_c, 1, 56, 57
3, 57726, Note_on_c, 1, 55, 64
3, 57846, Note_off_c, 1, 55, 68
3, 57846, Note_on_c, 1, 54, 64
3, 57966, Note_off_c, 1, 54, 45
3, 57966, Note_on_c, 1, 59, 64
3, 58086, Note_off_c, 1, 59, 51
3, 58086, Note_on_c, 1, 52, 64
3, 58206, Note_off_c, 1, 52, 34
3, 58206, Note_on_c, 1, 64, 64
3, 58326, Note_off_c, 1, 64, 42
3, 58326, Note_on_c, 1, 62, 64
3, 58446, Note_off_c, 1, 62, 50
3, 58446, Note_on_c, 1, 61, 64
3, 58566, Note_off_c, 1, 61, 57
3, 58566, Note_on_c, 1, 59, 64
3, 58686, Note_off_c, 1, 59, 51
3, 58686, Note_on_c, 1, 60, 64
3, 58806, Note_off_c, 1, 60, 68
3, 58806, Note_on_c, 1, 61, 64
3, 58926, Note_off_c, 1, 61, 52
3, 58926, Note_on_c, 1, 62, 64
3, 59046, Note_off_c, 1, 62, 53
3, 59046, Note_on_c, 1, 53, 64
3, 59166, Note_off_c, 1, 53, 39
3, 59166, Note_on_c, 1, 54, 64
3, 59286, Note_off_c, 1, 54, 29
3, 59286, Note_on_c, 1, 55, 64
3, 59406, Note_off_c, 1, 55, 57
3, 59406, Note_on_c, 1, 52, 64
3, 59526, Note_off_c, 1, 52, 42
3, 59526, Note_on_c, 1, 54, 64
3, 59646, Note_off_c, 1, 54, 8
3, 59646, Note_on_c, 1, 52, 64
3, 59766, Note_off_c, 1, 52, 58
3, 59766, Note_on_c, 1, 54, 64
3, 59886, Note_off_c, 1, 54, 66
3, 59886, Note_on_c, 1, 42, 64
3, 60006, Note_off_c, 1, 42, 55
3, 60006, Note_on_c, 1, 47, 64
3, 61446, Note_off_c, 1, 47, 72
3, 61446, Note_on_c, 1, 54, 64
3, 61566, Note_off_c, 1, 54, 69
3, 61566, Note_on_c, 1, 55, 64
3, 61686, Note_off_c, 1, 55, 65
3, 61686, Note_on_c, 1, 57, 64
3, 61806, Note_off_c, 1, 57, 55
3, 61806, Note_on_c, 1, 54, 64
3, 61926, Note_off_c, 1, 54, 62
3, 61926, Note_on_c, 1, 59, 64
3, 62046, Note_off_c, 1, 59, 52
3, 62046, Note_on_c, 1, 57, 64
3, 62166, Note_off_c, 1, 57, 57
3, 62166, Note_on_c, 1, 55, 64
3, 62286, Note_off_c, 1, 55, 57
3, 62286, Note_on_c, 1, 54, 64
3, 62406, Note_off_c, 1, 54, 65
3, 62406, Note_on_c, 1, 52, 64
3, 62526, Note_off_c, 1, 52, 72
3, 62526, Note_on_c, 1, 43, 64
3, 62646, Note_off_c, 1, 43, 50
3, 62646, Note_on_c, 1, 45, 64
3, 62766, Note_off_c, 1, 45, 65
3, 62766, Note_on_c, 1, 47, 64
3, 62886, Note_off_c, 1, 47, 76
3, 62886, Note_on_c, 1, 40, 64
3, 63006, Note_off_c, 1, 40, 33
3, 63006, Note_on_c, 1, 42, 64
3, 63126, Note_off_c, 1, 42, 59
3, 63126, Note_on_c, 1, 43, 64
3, 63246, Note_off_c, 1, 43, 57
3, 63246, Note_on_c, 1, 40, 64
3, 63366, Note_off_c, 1, 40, 43
3, 63366, Note_on_c, 1, 45, 64
3, 63486, Note_off_c, 1, 45, 62
3, 63486, Note_on_c, 1, 43, 64
3, 63606, Note_off_c, 1, 43, 54
3, 63606, Note_on_c, 1, 42, 64
3, 63726, Note_off_c, 1, 42, 46
3, 63726, Note_on_c, 1, 40, 64
3, 63846, Note_off_c, 1, 40, 34
3, 63846, Note_on_c, 1, 38, 64
3, 63966, Note_off_c, 1, 38, 13
3, 63966, Note_on_c, 1, 42, 64
3, 64086, Note_off_c, 1, 42, 53
3, 64086, Note_on_c, 1, 43, 64
3, 64206, Note_off_c, 1, 43, 58
3, 64206, Note_on_c, 1, 45, 64
3, 64326, Note_off_c, 1, 45, 70
3, 64326, Note_on_c, 1, 38, 64
3, 64446, Note_off_c, 1, 38, 37
3, 64446, Note_on_c, 1, 52, 64
3, 64566, Note_off_c, 1, 52, 45
3, 64566, Note_on_c, 1, 50, 64
3, 64686, Note_off_c, 1, 50, 61
3, 64686, Note_on_c, 1, 49, 64
3, 64806, Note_off_c, 1, 49, 65
3, 64806, Note_on_c, 1, 47, 64
3, 64926, Note_off_c, 1, 47, 59
3, 64926, Note_on_c, 1, 45, 64
3, 65046, Note_off_c, 1, 45, 68
3, 65046, Note_on_c, 1, 44, 64
3, 65166, Note_off_c, 1, 44, 55
3, 65166, Note_on_c, 1, 42, 64
3, 65286, Note_off_c, 1, 42, 54
3, 65286, Note_on_c, 1, 41, 64
3, 65406, Note_off_c, 1, 41, 43
3, 65406, Note_on_c, 1, 54, 64
3, 65526, Note_off_c, 1, 54, 68
3, 65526, Note_on_c, 1, 56, 64
3, 65646, Note_off_c, 1, 56, 72
3, 65646, Note_on_c, 1, 57, 64
3, 65766, Note_off_c, 1, 57, 51
3, 65766, Note_on_c, 1, 59, 64
3, 65886, Note_off_c, 1, 59, 68
3, 65886, Note_on_c, 1, 61, 64
3, 66006, Note_off_c, 1, 61, 58
3, 66006, Note_on_c, 1, 62, 64
3, 66126, Note_off_c, 1, 62, 43
3, 66126, Note_on_c, 1, 59, 64
3, 66246, Note_off_c, 1, 59, 50
3, 66246, Note_on_c, 1, 61, 64
3, 66366, Note_off_c, 1, 61, 55
3, 66366, Note_on_c, 1, 42, 64
3, 66486, Note_off_c, 1, 42, 54
3, 66486, Note_on_c, 1, 44, 64
3, 66606, Note_off_c, 1, 44, 59
3, 66606, Note_on_c, 1, 45, 64
3, 66726, Note_off_c, 1, 45, 52
3, 66726, Note_on_c, 1, 47, 64
3, 66846, Note_off_c, 1, 47, 9
3, 66846, Note_on_c, 1, 49, 64
3, 66966, Note_off_c, 1, 49, 49
3, 66966, Note_on_c, 1, 50, 64
3, 67086, Note_off_c, 1, 50, 39
3, 67086, Note_on_c, 1, 47, 64
3, 67206, Note_off_c, 1, 47, 63
3, 67206, Note_on_c, 1, 49, 64
3, 67326, Note_off_c, 1, 49, 69
3, 67326, Note_on_c, 1, 51, 64
3, 67446, Note_off_c, 1, 51, 55
3, 67446, Note_on_c, 1, 53, 64
3, 67566, Note_off_c, 1, 53, 32
3, 67566, Note_on_c, 1, 49, 64
3, 67686, Note_off_c, 1, 49, 68
3, 67686, Note_on_c, 1, 54, 64
3, 67806, Note_off_c, 1, 54, 54
3, 67806, Note_on_c, 1, 56, 64
3, 67926, Note_off_c, 1, 56, 61
3, 67926, Note_on_c, 1, 57, 64
3, 68046, Note_off_c, 1, 57, 46
3, 68046, Note_on_c, 1, 54, 64
3, 68166, Note_off_c, 1, 54, 53
3, 68166, Note_on_c, 1, 59, 64
3, 68286, Note_off_c, 1, 59, 43
3, 68286, Note_on_c, 1, 57, 64
3, 68406, Note_off_c, 1, 57, 62
3, 68406, Note_on_c, 1, 56, 64
3, 68526, Note_off_c, 1, 56, 65
3, 68526, Note_on_c, 1, 54, 64
3, 68646, Note_off_c, 1, 54, 50
3, 68646, Note_on_c, 1, 53, 64
3, 68766, Note_off_c, 1, 53, 44
3, 68766, Note_on_c, 1, 49, 64
3, 68886, Note_off_c, 1, 49, 65
3, 68886, Note_on_c, 1, 54, 64
3, 69006, Note_off_c, 1, 54, 46
3, 69006, Note_on_c, 1, 52, 64
3, 69126, Note_off_c, 1, 52, 40
3, 69126, Note_on_c, 1, 50, 64
3, 69246, Note_off_c, 1, 50, 62
3, 69246, Note_on_c, 1, 49, 64
3, 69366, Note_off_c, 1, 49, 57
3, 69366, Note_on_c, 1, 50, 64
3, 69486, Note_off_c, 1, 50, 34
3, 69486, Note_on_c, 1, 47, 64
3, 69606, Note_off_c, 1, 47, 57
3, 69606, Note_on_c, 1, 49, 64
3, 69726, Note_off_c, 1, 49, 63
3, 69726, Note_on_c, 1, 47, 64
3, 69846, Note_off_c, 1, 47, 62
3, 69846, Note_on_c, 1, 45, 64
3, 69966, Note_off_c, 1, 45, 54
3, 69966, Note_on_c, 1, 47, 64
3, 70086, Note_off_c, 1, 47, 54
3, 70086, Note_on_c, 1, 49, 64
3, 70206, Note_off_c, 1, 49, 61
3, 70206, Note_on_c, 1, 47, 64
3, 70326, Note_off_c, 1, 47, 68
3, 70326, Note_on_c, 1, 49, 64
3, 70446, Note_off_c, 1, 49, 72
3, 70446, Note_on_c, 1, 37, 64
3, 70566, Note_off_c, 1, 37, 40
3, 70566, Note_on_c, 1, 42, 64
3, 70686, Note_off_c, 1, 42, 55
3, 70686, Note_on_c, 1, 49, 64
3, 70806, Note_off_c, 1, 49, 52
3, 70806, Note_on_c, 1, 51, 64
3, 70926, Note_off_c, 1, 51, 57
3, 70926, Note_on_c, 1, 52, 64
3, 71046, Note_off_c, 1, 52, 59
3, 71046, Note_on_c, 1, 54, 64
3, 71166, Note_off_c, 1, 54, 58
3, 71166, Note_on_c, 1, 57, 64
3, 71286, Note_off_c, 1, 57, 35
3, 71286, Note_on_c, 1, 55, 64
3, 71406, Note_off_c, 1, 55, 65
3, 71406, Note_on_c, 1, 54, 64
3, 71526, Note_off_c, 1, 54, 43
3, 71526, Note_on_c, 1, 52, 64
3, 71646, Note_off_c, 1, 52, 63
3, 71646, Note_on_c, 1, 54, 64
3, 71766, Note_off_c, 1, 54, 52
3, 71766, Note_on_c, 1, 55, 64
3, 71886, Note_off_c, 1, 55, 54
3, 71886, Note_on_c, 1, 57, 64
3, 72006, Note_off_c, 1, 57, 50
3, 72006, Note_on_c, 1, 59, 64
3, 72126, Note_off_c, 1, 59, 46
3, 72126, Note_on_c, 1, 57, 64
3, 72246, Note_off_c, 1, 57, 47
3, 72246, Note_on_c, 1, 59, 64
3, 72366, Note_off_c, 1, 59, 17
3, 72366, Note_on_c, 1, 47, 64
3, 72486, Note_off_c, 1, 47, 39
3, 72486, Note_on_c, 1, 52, 64
3, 72606, Note_off_c, 1, 52, 58
3, 72606, Note_on_c, 1, 59, 64
3, 72726, Note_off_c, 1, 59, 57
3, 72726, Note_on_c, 1, 61, 64
3, 72846, Note_off_c, 1, 61, 47
3, 72846, Note_on_c, 1, 62, 64
3, 72966, Note_off_c, 1, 62, 51
3, 72966, Note_on_c, 1, 64, 64
3, 73086, Note_off_c, 1, 64, 45
3, 73086, Note_on_c, 1, 55, 64
3, 73206, Note_off_c, 1, 55, 59
3, 73206, Note_on_c, 1, 54, 64
3, 73326, Note_off_c, 1, 54, 55
3, 73326, Note_on_c, 1, 52, 64
3, 73446, Note_off_c, 1, 52, 68
3, 73446, Note_on_c, 1, 50, 64
3, 73566, Note_off_c, 1, 50, 55
3, 73566, Note_on_c, 1, 52, 64
3, 73686, Note_off_c, 1, 52, 62
3, 73686, Note_on_c, 1, 54, 64
3, 73806, Note_off_c, 1, 54, 54
3, 73806, Note_on_c, 1, 55, 64
3, 73926, Note_off_c, 1, 55, 59
3, 73926, Note_on_c, 1, 57, 64
3, 74046, Note_off_c, 1, 57, 33
3, 74046, Note_on_c, 1, 55, 64
3, 74166, Note_off_c, 1, 55, 55
3, 74166, Note_on_c, 1, 57, 64
3, 74286, Note_off_c, 1, 57, 13
3, 74286, Note_on_c, 1, 45, 64
3, 74406, Note_off_c, 1, 45, 27
3, 74406, Note_on_c, 1, 47, 64
3, 74526, Note_off_c, 1, 47, 43
3, 74526, Note_on_c, 1, 50, 64
3, 74646, Note_off_c, 1, 50, 59
3, 74646, Note_on_c, 1, 54, 64
3, 74766, Note_off_c, 1, 54, 29
3, 74766, Note_on_c, 1, 42, 64
3, 74886, Note_off_c, 1, 42, 42
3, 74886, Note_on_c, 1, 43, 64
3, 75006, Note_off_c, 1, 43, 40
3, 75006, Note_on_c, 1, 47, 64
3, 75126, Note_off_c, 1, 47, 43
3, 75126, Note_on_c, 1, 50, 64
3, 75486, Note_off_c, 1, 50, 74
3, 75486, Note_on_c, 1, 50, 64
3, 75606, Note_off_c, 1, 50, 70
3, 75606, Note_on_c, 1, 49, 64
3, 75726, Note_off_c, 1, 49, 68
3, 75726, Note_on_c, 1, 47, 64
3, 75846, Note_off_c, 1, 47, 72
3, 75846, Note_on_c, 1, 46, 64
3, 75966, Note_off_c, 1, 46, 72
3, 75966, Note_on_c, 1, 42, 64
3, 76086, Note_off_c, 1, 42, 65
3, 76086, Note_on_c, 1, 44, 64
3, 76206, Note_off_c, 1, 44, 74
3, 76206, Note_on_c, 1, 46, 64
3, 76326, Note_off_c, 1, 46, 72
3, 76326, Note_on_c, 1, 47, 64
3, 76446, Note_off_c, 1, 47, 72
3, 76446, Note_on_c, 1, 54, 64
3, 76566, Note_off_c, 1, 54, 53
3, 76566, Note_on_c, 1, 52, 64
3, 76686, Note_off_c, 1, 52, 76
3, 76686, Note_on_c, 1, 50, 64
3, 76806, Note_off_c, 1, 50, 68
3, 76806, Note_on_c, 1, 49, 64
3, 76926, Note_off_c, 1, 49, 72
3, 76926, Note_on_c, 1, 45, 64
3, 77046, Note_off_c, 1, 45, 43
3, 77046, Note_on_c, 1, 47, 64
3, 77166, Note_off_c, 1, 47, 55
3, 77166, Note_on_c, 1, 49, 64
3, 77286, Note_off_c, 1, 49, 77
3, 77286, Note_on_c, 1, 50, 64
3, 77406, Note_off_c, 1, 50, 40
3, 77406, Note_on_c, 1, 57, 64
3, 77526, Note_off_c, 1, 57, 49
3, 77526, Note_on_c, 1, 55, 64
3, 77646, Note_off_c, 1, 55, 55
3, 77646, Note_on_c, 1, 54, 64
3, 77766, Note_off_c, 1, 54, 46
3, 77766, Note_on_c, 1, 52, 64
3, 77886, Note_off_c, 1, 52, 70
3, 77886, Note_on_c, 1, 49, 64
3, 78006, Note_off_c, 1, 49, 52
3, 78006, Note_on_c, 1, 50, 64
3, 78126, Note_off_c, 1, 50, 43
3, 78126, Note_on_c, 1, 52, 64
3, 78246, Note_off_c, 1, 52, 70
3, 78246, Note_on_c, 1, 46, 64
3, 78366, Note_off_c, 1, 46, 53
3, 78366, Note_on_c, 1, 54, 64
3, 78486, Note_off_c, 1, 54, 59
3, 78486, Note_on_c, 1, 56, 64
3, 78606, Note_off_c, 1, 56, 50
3, 78606, Note_on_c, 1, 58, 64
3, 78726, Note_off_c, 1, 58, 52
3, 78726, Note_on_c, 1, 59, 64
3, 78846, Note_off_c, 1, 59, 54
3, 78846, Note_on_c, 1, 47, 64
3, 78966, Note_off_c, 1, 47, 63
3, 78966, Note_on_c, 1, 49, 64
3, 79086, Note_off_c, 1, 49, 68
3, 79086, Note_on_c, 1, 50, 64
3, 79206, Note_off_c, 1, 50, 47
3, 79206, Note_on_c, 1, 52, 64
3, 79326, Note_off_c, 1, 52, 63
3, 79326, Note_on_c, 1, 54, 64
3, 79446, Note_off_c, 1, 54, 62
3, 79446, Note_on_c, 1, 52, 64
3, 79566, Note_off_c, 1, 52, 72
3, 79566, Note_on_c, 1, 50, 64
3, 79686, Note_off_c, 1, 50, 62
3, 79686, Note_on_c, 1, 49, 64
3, 79806, Note_off_c, 1, 49, 68
3, 79806, Note_on_c, 1, 61, 64
3, 79926, Note_off_c, 1, 61, 70
3, 79926, Note_on_c, 1, 62, 64
3, 80046, Note_off_c, 1, 62, 43
3, 80046, Note_on_c, 1, 64, 64
3, 80166, Note_off_c, 1, 64, 58
3, 80166, Note_on_c, 1, 66, 64
3, 80286, Note_off_c, 1, 66, 21
3, 80286, Note_on_c, 1, 67, 64
3, 80406, Note_off_c, 1, 67, 50
3, 80406, Note_on_c, 1, 66, 64
3, 80526, Note_off_c, 1, 66, 63
3, 80526, Note_on_c, 1, 64, 64
3, 80646, Note_off_c, 1, 64, 49
3, 80646, Note_on_c, 1, 62, 64
3, 80766, Note_off_c, 1, 62, 47
3, 80766, Note_on_c, 1, 50, 64
3, 80886, Note_off_c, 1, 50, 48
3, 80886, Note_on_c, 1, 52, 64
3, 81006, Note_off_c, 1, 52, 44
3, 81006, Note_on_c, 1, 54, 64
3, 81126, Note_off_c, 1, 54, 54
3, 81126, Note_on_c, 1, 55, 64
3, 81246, Note_off_c, 1, 55, 57
3, 81246, Note_on_c, 1, 54, 64
3, 81366, Note_off_c, 1, 54, 73
3, 81366, Note_on_c, 1, 52, 64
3, 81486, Note_off_c, 1, 52, 62
3, 81486, Note_on_c, 1, 51, 64
3, 81606, Note_off_c, 1, 51, 55
3, 81606, Note_on_c, 1, 52, 64
3, 81726, Note_off_c, 1, 52, 63
3, 81726, Note_on_c, 1, 50, 64
3, 81846, Note_off_c, 1, 50, 38
3, 81846, Note_on_c, 1, 49, 64
3, 81966, Note_off_c, 1, 49, 61
3, 81966, Note_on_c, 1, 47, 64
3, 82086, Note_off_c, 1, 47, 52
3, 82086, Note_on_c, 1, 46, 64
3, 82206, Note_off_c, 1, 46, 59
3, 82206, Note_on_c, 1, 54, 64
3, 82326, Note_off_c, 1, 54, 48
3, 82326, Note_on_c, 1, 59, 64
3, 82446, Note_off_c, 1, 59, 54
3, 82446, Note_on_c, 1, 57, 64
3, 82566, Note_off_c, 1, 57, 52
3, 82566, Note_on_c, 1, 56, 64
3, 82686, Note_off_c, 1, 56, 54
3, 82686, Note_on_c, 1, 54, 64
3, 82806, Note_off_c, 1, 54, 52
3, 82806, Note_on_c, 1, 56, 64
3, 82926, Note_off_c, 1, 56, 49
3, 82926, Note_on_c, 1, 58, 64
3, 83046, Note_off_c, 1, 58, 59
3, 83046, Note_on_c, 1, 59, 64
3, 83166, Note_off_c, 1, 59, 55
3, 83166, Note_on_c, 1, 47, 64
3, 83286, Note_off_c, 1, 47, 58
3, 83286, Note_on_c, 1, 49, 64
3, 83406, Note_off_c, 1, 49, 61
3, 83406, Note_on_c, 1, 50, 64
3, 83526, Note_off_c, 1, 50, 58
3, 83526, Note_on_c, 1, 52, 64
3, 83646, Note_off_c, 1, 52, 54
3, 83646, Note_on_c, 1, 54, 64
3, 83766, Note_off_c, 1, 54, 52
3, 83766, Note_on_c, 1, 55, 64
3, 83886, Note_off_c, 1, 55, 58
3, 83886, Note_on_c, 1, 52, 64
3, 84006, Note_off_c, 1, 52, 53
3, 84006, Note_on_c, 1, 54, 64
3, 84126, Note_off_c, 1, 54, 59
3, 84126, Note_on_c, 1, 52, 64
3, 84246, Note_off_c, 1, 52, 51
3, 84246, Note_on_c, 1, 50, 64
3, 84366, Note_off_c, 1, 50, 61
3, 84366, Note_on_c, 1, 52, 64
3, 84486, Note_off_c, 1, 52, 52
3, 84486, Note_on_c, 1, 54, 64
3, 84606, Note_off_c, 1, 54, 68
3, 84606, Note_on_c, 1, 52, 64
3, 84726, Note_off_c, 1, 52, 40
3, 84726, Note_on_c, 1, 54, 64
3, 84846, Note_off_c, 1, 54, 59
3, 84846, Note_on_c, 1, 42, 64
3, 84966, Note_off_c, 1, 42, 52
3, 84966, Note_on_c, 1, 43, 64
3, 85206, Note_off_c, 1, 43, 53
3, 85206, Note_on_c, 1, 42, 64
3, 85446, Note_off_c, 1, 42, 53
3, 85446, Note_on_c, 1, 40, 64
3, 85686, Note_off_c, 1, 40, 49
3, 85686, Note_on_c, 1, 38, 64
3, 85926, Note_off_c, 1, 38, 23
3, 85926, Note_on_c, 1, 37, 64
3, 86046, Note_off_c, 1, 37, 68
3, 86046, Note_on_c, 1, 59, 64
3, 86166, Note_off_c, 1, 59, 49
3, 86166, Note_on_c, 1, 58, 64
3, 86286, Note_off_c, 1, 58, 53
3, 86286, Note_on_c, 1, 57, 64
3, 86406, Note_off_c, 1, 57, 49
3, 86406, Note_on_c, 1, 56, 64
3, 86526, Note_off_c, 1, 56, 57
3, 86526, Note_on_c, 1, 55, 64
3, 86646, Note_off_c, 1, 55, 68
3, 86646, Note_on_c, 1, 54, 64
3, 86766, Note_off_c, 1, 54, 45
3, 86766, Note_on_c, 1, 59, 64
3, 86886, Note_off_c, 1, 59, 51
3, 86886, Note_on_c, 1, 52, 64
3, 87006, Note_off_c, 1, 52, 34
3, 87006, Note_on_c, 1, 64, 64
3, 87126, Note_off_c, 1, 64, 42
3, 87126, Note_on_c, 1, 62, 64
3, 87246, Note_off_c, 1, 62, 50
3, 87246, Note_on_c, 1, 61, 64
3, 87366, Note_off_c, 1, 61, 57
3, 87366, Note_on_c, 1, 59, 64
3, 87486, Note_off_c, 1, 59, 51
3, 87486, Note_on_c, 1, 60, 64
3, 87606, Note_off_c, 1, 60, 68
3, 87606, Note_on_c, 1, 61, 64
3, 87726, Note_off_c, 1, 61, 52
3, 87726, Note_on_c, 1, 62, 64
3, 87846, Note_off_c, 1, 62, 53
3, 87846, Note_on_c, 1, 53, 64
3, 87966, Note_off_c, 1, 53, 39
3, 87966, Note_on_c, 1, 54, 64
3, 88086, Note_off_c, 1, 54, 29
3, 88086, Note_on_c, 1, 55, 64
3, 88206, Note_off_c, 1, 55, 57
3, 88206, Note_on_c, 1, 52, 64
3, 88326, Note_off_c, 1, 52, 42
3, 88326, Note_on_c, 1, 54, 64
3, 88446, Note_off_c, 1, 54, 8
3, 88446, Note_on_c, 1, 52, 64
3, 88566, Note_off_c, 1, 52, 58
3, 88566, Note_on_c, 1, 54, 64
3, 88686, Note_off_c, 1, 54, 66
3, 88686, Note_on_c, 1, 42, 64
3, 88806, Note_off_c, 1, 42, 55
3, 88806, Note_on_c, 1, 47, 64
3, 90246, Note_off_c, 1, 47, 72
3, 90246, End_track
0, 0, End_of_file
