0, 0, Header, 1, 2, 240
1, 0, Start_track
1, 0, Time_signature, 2, 1, 48, 8
1, 0, Tempo, 555556
1, 46920, Tempo, 576923
1, 47040, Tempo, 612245
1, 47208, Tempo, 855949
1, 47448, Tempo, 740741
1, 47664, Tempo, 869565
1, 48000, Tempo, 625000
1, 48000, End_track
2, 0, Start_track
2, 120, Note_on_c, 0, 62, 64
2, 240, Note_off_c, 0, 62, 64
2, 240, Note_on_c, 0, 62, 64
2, 360, Note_off_c, 0, 62, 64
2, 360, Note_on_c, 0, 62, 64
2, 480, Note_off_c, 0, 62, 64
2, 480, Note_on_c, 0, 55, 64
2, 720, Note_off_c, 0, 55, 64
2, 720, Note_on_c, 0, 59, 64
2, 1080, Note_off_c, 0, 59, 64
2, 1080, Note_on_c, 0, 52, 64
2, 1200, Note_off_c, 0, 52, 64
2, 1200, Note_on_c, 0, 57, 64
2, 1320, Note_off_c, 0, 57, 64
2, 1320, Note_on_c, 0, 55, 64
2, 1440, Note_off_c, 0, 55, 64
2, 1440, Note_on_c, 0, 54, 64
2, 1560, Note_on_c, 0, 69, 64
2, 1680, Note_off_c, 0, 69, 64
2, 1680, Note_off_c, 0, 54, 64
2, 1680, Note_on_c, 0, 50, 64
2, 1680, Note_on_c, 0, 69, 64
2, 1800, Note_off_c, 0, 69, 64
2, 1800, Note_on_c, 0, 69, 64
2, 1920, Note_off_c, 0, 69, 64
2, 1920, Note_off_c, 0, 50, 64
2, 1920, Note_on_c, 0, 62, 64
2, 2040, Note_on_c, 0, 54, 64
2, 2160, Note_off_c, 0, 54, 64
2, 2160, Note_off_c, 0, 62, 64
2, 2160, Note_on_c, 0, 66, 64
2, 2160, Note_on_c, 0, 59, 64
2, 2280, Note_off_c, 0, 59, 64
2, 2280, Note_on_c, 0, 57, 64
2, 2400, Note_off_c, 0, 57, 64
2, 2400, Note_on_c, 0, 56, 64
2, 2520, Note_off_c, 0, 66, 64
2, 2520, Note_on_c, 0, 59, 64
2, 2640, Note_off_c, 0, 59, 64
2, 2640, Note_on_c, 0, 64, 64
2, 2760, Note_off_c, 0, 64, 64
2, 2760, Note_on_c, 0, 62, 64
2, 2880, Note_off_c, 0, 62, 64
2, 2880, Note_off_c, 0, 56, 64
2, 2880, Note_on_c, 0, 61, 64
2, 2880, Note_on_c, 0, 57, 64
2, 3000, Note_off_c, 0, 61, 64
2, 3000, Note_on_c, 0, 64, 64
2, 3120, Note_off_c, 0, 64, 64
2, 3120, Note_off_c, 0, 57, 64
2, 3120, Note_on_c, 0, 69, 64
2, 3120, Note_on_c, 0, 61, 64
2, 3240, Note_off_c, 0, 69, 64
2, 3240, Note_on_c, 0, 67, 64
2, 3360, Note_off_c, 0, 67, 64
2, 3360, Note_off_c, 0, 61, 64
2, 3360, Note_on_c, 0, 66, 64
2, 3480, Note_on_c, 0, 57, 64
2, 3600, Note_off_c, 0, 57, 64
2, 3600, Note_off_c, 0, 66, 64
2, 3600, Note_on_c, 0, 69, 64
2, 3600, Note_on_c, 0, 62, 64
2, 3720, Note_off_c, 0, 62, 64
2, 3720, Note_on_c, 0, 61, 64
2, 3840, Note_off_c, 0, 61, 64
2, 3840, Note_on_c, 0, 59, 64
2, 3960, Note_off_c, 0, 69, 64
2, 3960, Note_on_c, 0, 74, 64
2, 3960, Note_on_c, 0, 62, 64
2, 4080, Note_off_c, 0, 62, 64
2, 4080, Note_off_c, 0, 74, 64
2, 4080, Note_on_c, 0, 74, 64
2, 4080, Note_on_c, 0, 67, 64
2, 4200, Note_off_c, 0, 67, 64
2, 4200, Note_off_c, 0, 74, 64
2, 4200, Note_on_c, 0, 74, 64
2, 4200, Note_on_c, 0, 66, 64
2, 4320, Note_off_c, 0, 66, 64
2, 4320, Note_off_c, 0, 74, 64
2, 4320, Note_off_c, 0, 59, 64
2, 4320, Note_on_c, 0, 67, 64
2, 4320, Note_on_c, 0, 64, 64
2, 4440, Note_off_c, 0, 64, 64
2, 4440, Note_on_c, 0, 66, 64
2, 4440, Note_on_c, 0, 59, 64
2, 4560, Note_off_c, 0, 59, 64
2, 4560, Note_off_c, 0, 66, 64
2, 4560, Note_off_c, 0, 67, 64
2, 4560, Note_on_c, 0, 71, 64
2, 4560, Note_on_c, 0, 67, 64
2, 4560, Note_on_c, 0, 64, 64
2, 4680, Note_off_c, 0, 64, 64
2, 4680, Note_on_c, 0, 62, 64
2, 4800, Note_off_c, 0, 62, 64
2, 4800, Note_on_c, 0, 61, 64
2, 4920, Note_off_c, 0, 71, 64
2, 4920, Note_on_c, 0, 64, 64
2, 4920, Note_on_c, 0, 57, 64
2, 5040, Note_off_c, 0, 57, 64
2, 5040, Note_off_c, 0, 64, 64
2, 5040, Note_off_c, 0, 67, 64
2, 5040, Note_on_c, 0, 69, 64
2, 5040, Note_on_c, 0, 66, 64
2, 5040, Note_on_c, 0, 57, 64
2, 5160, Note_off_c, 0, 57, 64
2, 5160, Note_off_c, 0, 66, 64
2, 5160, Note_off_c, 0, 69, 64
2, 5160, Note_on_c, 0, 67, 64
2, 5160, Note_on_c, 0, 64, 64
2, 5160, Note_on_c, 0, 57, 64
2, 5280, Note_off_c, 0, 57, 64
2, 5280, Note_off_c, 0, 64, 64
2, 5280, Note_off_c, 0, 67, 64
2, 5280, Note_off_c, 0, 61, 64
2, 5280, Note_on_c, 0, 66, 64
2, 5280, Note_on_c, 0, 62, 64
2, 5280, Note_on_c, 0, 50, 64
2, 5400, Note_on_c, 0, 57, 64
2, 5520, Note_off_c, 0, 57, 64
2, 5520, Note_off_c, 0, 50, 64
2, 5520, Note_off_c, 0, 62, 64
2, 5520, Note_on_c, 0, 54, 64
2, 5520, Note_on_c, 0, 62, 64
2, 5640, Note_off_c, 0, 62, 64
2, 5640, Note_on_c, 0, 61, 64
2, 5760, Note_off_c, 0, 61, 64
2, 5760, Note_off_c, 0, 66, 64
2, 5760, Note_on_c, 0, 68, 64
2, 5760, Note_on_c, 0, 59, 64
2, 5880, Note_off_c, 0, 54, 64
2, 5880, Note_on_c, 0, 47, 64
2, 6000, Note_off_c, 0, 47, 64
2, 6000, Note_on_c, 0, 52, 64
2, 6120, Note_off_c, 0, 52, 64
2, 6120, Note_on_c, 0, 59, 64
2, 6120, Note_on_c, 0, 50, 64
2, 6240, Note_off_c, 0, 50, 64
2, 6240, Note_off_c, 0, 59, 64
2, 6240, Note_off_c, 0, 59, 64
2, 6240, Note_off_c, 0, 68, 64
2, 6240, Note_on_c, 0, 69, 64
2, 6240, Note_on_c, 0, 64, 64
2, 6240, Note_on_c, 0, 49, 64
2, 6360, Note_off_c, 0, 49, 64
2, 6360, Note_off_c, 0, 64, 64
2, 6360, Note_on_c, 0, 62, 64
2, 6360, Note_on_c, 0, 52, 64
2, 6360, Note_on_c, 0, 47, 64
2, 6480, Note_off_c, 0, 47, 64
2, 6480, Note_off_c, 0, 52, 64
2, 6480, Note_off_c, 0, 62, 64
2, 6480, Note_off_c, 0, 69, 64
2, 6480, Note_on_c, 0, 45, 64
2, 6480, Note_on_c, 0, 61, 64
2, 6480, Note_on_c, 0, 57, 64
2, 6600, Note_off_c, 0, 57, 64
2, 6600, Note_on_c, 0, 64, 64
2, 6600, Note_on_c, 0, 55, 64
2, 6720, Note_off_c, 0, 55, 64
2, 6720, Note_off_c, 0, 64, 64
2, 6720, Note_off_c, 0, 45, 64
2, 6720, Note_on_c, 0, 69, 64
2, 6720, Note_on_c, 0, 54, 64
2, 6840, Note_off_c, 0, 54, 64
2, 6840, Note_off_c, 0, 69, 64
2, 6840, Note_on_c, 0, 67, 64
2, 6840, Note_on_c, 0, 52, 64
2, 6840, Note_on_c, 0, 45, 64
2, 6960, Note_off_c, 0, 45, 64
2, 6960, Note_off_c, 0, 52, 64
2, 6960, Note_off_c, 0, 67, 64
2, 6960, Note_off_c, 0, 61, 64
2, 6960, Note_on_c, 0, 66, 64
2, 6960, Note_on_c, 0, 50, 64
2, 7080, Note_on_c, 0, 57, 64
2, 7080, Note_on_c, 0, 49, 64
2, 7200, Note_off_c, 0, 49, 64
2, 7200, Note_off_c, 0, 57, 64
2, 7200, Note_off_c, 0, 50, 64
2, 7200, Note_on_c, 0, 62, 64
2, 7200, Note_on_c, 0, 47, 64
2, 7320, Note_off_c, 0, 47, 64
2, 7320, Note_off_c, 0, 62, 64
2, 7320, Note_on_c, 0, 61, 64
2, 7320, Note_on_c, 0, 50, 64
2, 7320, Note_on_c, 0, 45, 64
2, 7440, Note_off_c, 0, 45, 64
2, 7440, Note_off_c, 0, 50, 64
2, 7440, Note_off_c, 0, 61, 64
2, 7440, Note_off_c, 0, 66, 64
2, 7440, Note_on_c, 0, 59, 64
2, 7440, Note_on_c, 0, 43, 64
2, 7440, Note_on_c, 0, 64, 64
2, 7440, Note_on_c, 0, 55, 64
2, 7560, Note_off_c, 0, 55, 64
2, 7560, Note_off_c, 0, 64, 64
2, 7560, Note_on_c, 0, 54, 64
2, 7560, Note_on_c, 0, 62, 64
2, 7680, Note_off_c, 0, 62, 64
2, 7680, Note_off_c, 0, 54, 64
2, 7680, Note_off_c, 0, 59, 64
2, 7680, Note_on_c, 0, 61, 64
2, 7680, Note_on_c, 0, 57, 64
2, 7680, Note_on_c, 0, 52, 64
2, 7800, Note_off_c, 0, 43, 64
2, 7800, Note_on_c, 0, 42, 64
2, 7920, Note_off_c, 0, 42, 64
2, 7920, Note_off_c, 0, 52, 64
2, 7920, Note_off_c, 0, 57, 64
2, 7920, Note_off_c, 0, 61, 64
2, 7920, Note_on_c, 0, 62, 64
2, 7920, Note_on_c, 0, 56, 64
2, 7920, Note_on_c, 0, 50, 64
2, 7920, Note_on_c, 0, 47, 64
2, 8040, Note_off_c, 0, 47, 64
2, 8040, Note_off_c, 0, 50, 64
2, 8040, Note_off_c, 0, 56, 64
2, 8040, Note_on_c, 0, 54, 64
2, 8040, Note_on_c, 0, 49, 64
2, 8040, Note_on_c, 0, 45, 64
2, 8160, Note_off_c, 0, 45, 64
2, 8160, Note_off_c, 0, 49, 64
2, 8160, Note_off_c, 0, 54, 64
2, 8160, Note_on_c, 0, 44, 64
2, 8160, Note_on_c, 0, 47, 64
2, 8160, Note_on_c, 0, 52, 64
2, 8280, Note_off_c, 0, 62, 64
2, 8280, Note_on_c, 0, 71, 64
2, 8340, Note_off_c, 0, 71, 64
2, 8340, Note_on_c, 0, 69, 64
2, 8400, Note_off_c, 0, 69, 64
2, 8400, Note_on_c, 0, 71, 64
2, 8520, Note_off_c, 0, 71, 64
2, 8520, Note_on_c, 0, 62, 64
2, 8640, Note_off_c, 0, 62, 64
2, 8640, Note_off_c, 0, 52, 64
2, 8640, Note_off_c, 0, 47, 64
2, 8640, Note_off_c, 0, 44, 64
2, 8640, Note_on_c, 0, 61, 64
2, 8640, Note_on_c, 0, 52, 64
2, 8640, Note_on_c, 0, 45, 64
2, 8760, Note_on_c, 0, 64, 64
2, 8880, Note_off_c, 0, 64, 64
2, 8880, Note_off_c, 0, 45, 64
2, 8880, Note_off_c, 0, 61, 64
2, 8880, Note_on_c, 0, 64, 64
2, 8880, Note_on_c, 0, 43, 64
2, 9000, Note_off_c, 0, 64, 64
2, 9000, Note_on_c, 0, 64, 64
2, 9120, Note_off_c, 0, 64, 64
2, 9120, Note_off_c, 0, 43, 64
2, 9120, Note_on_c, 0, 42, 64
2, 9120, Note_on_c, 0, 57, 64
2, 9240, Note_off_c, 0, 52, 64
2, 9240, Note_on_c, 0, 64, 64
2, 9240, Note_on_c, 0, 55, 64
2, 9360, Note_off_c, 0, 55, 64
2, 9360, Note_off_c, 0, 64, 64
2, 9360, Note_off_c, 0, 57, 64
2, 9360, Note_on_c, 0, 60, 64
2, 9360, Note_on_c, 0, 69, 64
2, 9360, Note_on_c, 0, 54, 64
2, 9480, Note_off_c, 0, 54, 64
2, 9480, Note_off_c, 0, 69, 64
2, 9480, Note_on_c, 0, 67, 64
2, 9480, Note_on_c, 0, 52, 64
2, 9600, Note_off_c, 0, 52, 64
2, 9600, Note_off_c, 0, 67, 64
2, 9600, Note_off_c, 0, 42, 64
2, 9600, Note_on_c, 0, 47, 64
2, 9600, Note_on_c, 0, 66, 64
2, 9600, Note_on_c, 0, 51, 64
2, 9720, Note_off_c, 0, 60, 64
2, 9720, Note_on_c, 0, 54, 64
2, 9840, Note_off_c, 0, 54, 64
2, 9840, Note_on_c, 0, 59, 64
2, 9960, Note_off_c, 0, 59, 64
2, 9960, Note_on_c, 0, 57, 64
2, 10080, Note_off_c, 0, 57, 64
2, 10080, Note_off_c, 0, 51, 64
2, 10080, Note_off_c, 0, 66, 64
2, 10080, Note_on_c, 0, 55, 64
2, 10080, Note_on_c, 0, 52, 64
2, 10200, Note_off_c, 0, 52, 64
2, 10200, Note_off_c, 0, 55, 64
2, 10200, Note_on_c, 0, 71, 64
2, 10200, Note_on_c, 0, 59, 64
2, 10200, Note_on_c, 0, 50, 64
2, 10320, Note_off_c, 0, 50, 64
2, 10320, Note_off_c, 0, 59, 64
2, 10320, Note_off_c, 0, 71, 64
2, 10320, Note_on_c, 0, 55, 64
2, 10320, Note_on_c, 0, 71, 64
2, 10320, Note_on_c, 0, 64, 64
2, 10440, Note_off_c, 0, 64, 64
2, 10440, Note_off_c, 0, 71, 64
2, 10440, Note_on_c, 0, 71, 64
2, 10440, Note_on_c, 0, 62, 64
2, 10560, Note_off_c, 0, 62, 64
2, 10560, Note_off_c, 0, 71, 64
2, 10560, Note_on_c, 0, 64, 64
2, 10560, Note_on_c, 0, 61, 64
2, 10680, Note_off_c, 0, 61, 64
2, 10680, Note_on_c, 0, 59, 64
2, 10800, Note_off_c, 0, 59, 64
2, 10800, Note_off_c, 0, 64, 64
2, 10800, Note_off_c, 0, 55, 64
2, 10800, Note_on_c, 0, 67, 64
2, 10800, Note_on_c, 0, 58, 64
2, 10800, Note_on_c, 0, 49, 64
2, 10920, Note_off_c, 0, 49, 64
2, 10920, Note_off_c, 0, 58, 64
2, 10920, Note_on_c, 0, 59, 64
2, 10920, Note_on_c, 0, 50, 64
2, 11040, Note_off_c, 0, 50, 64
2, 11040, Note_off_c, 0, 59, 64
2, 11040, Note_on_c, 0, 61, 64
2, 11040, Note_on_c, 0, 52, 64
2, 11160, Note_off_c, 0, 52, 64
2, 11160, Note_off_c, 0, 67, 64
2, 11160, Note_on_c, 0, 61, 64
2, 11160, Note_on_c, 0, 64, 64
2, 11160, Note_on_c, 0, 55, 64
2, 11161, Note_off_c, 0, 61, 64
2, 11280, Note_off_c, 0, 55, 64
2, 11280, Note_off_c, 0, 64, 64
2, 11280, Note_off_c, 0, 61, 64
2, 11280, Note_off_c, 0, 47, 64
2, 11280, Note_on_c, 0, 46, 64
2, 11280, Note_on_c, 0, 54, 64
2, 11280, Note_on_c, 0, 66, 64
2, 11280, Note_on_c, 0, 62, 64
2, 11400, Note_off_c, 0, 62, 64
2, 11400, Note_off_c, 0, 66, 64
2, 11400, Note_on_c, 0, 64, 64
2, 11400, Note_on_c, 0, 61, 64
2, 11520, Note_off_c, 0, 61, 64
2, 11520, Note_off_c, 0, 64, 64
2, 11520, Note_off_c, 0, 46, 64
2, 11520, Note_on_c, 0, 62, 64
2, 11520, Note_on_c, 0, 59, 64
2, 11520, Note_on_c, 0, 47, 64
2, 11640, Note_off_c, 0, 62, 64
2, 11640, Note_off_c, 0, 54, 64
2, 11640, Note_on_c, 0, 66, 64
2, 11640, Note_on_c, 0, 57, 64
2, 11760, Note_off_c, 0, 57, 64
2, 11760, Note_off_c, 0, 66, 64
2, 11760, Note_off_c, 0, 47, 64
2, 11760, Note_off_c, 0, 59, 64
2, 11760, Note_on_c, 0, 71, 64
2, 11760, Note_on_c, 0, 56, 64
2, 11880, Note_off_c, 0, 56, 64
2, 11880, Note_off_c, 0, 71, 64
2, 11880, Note_on_c, 0, 69, 64
2, 11880, Note_on_c, 0, 54, 64
2, 12000, Note_off_c, 0, 54, 64
2, 12000, Note_off_c, 0, 69, 64
2, 12000, Note_on_c, 0, 52, 64
2, 12000, Note_on_c, 0, 68, 64
2, 12120, Note_off_c, 0, 68, 64
2, 12120, Note_on_c, 0, 71, 64
2, 12120, Note_on_c, 0, 50, 64
2, 12240, Note_off_c, 0, 50, 64
2, 12240, Note_off_c, 0, 71, 64
2, 12240, Note_on_c, 0, 76, 64
2, 12240, Note_on_c, 0, 49, 64
2, 12360, Note_off_c, 0, 49, 64
2, 12360, Note_off_c, 0, 76, 64
2, 12360, Note_on_c, 0, 47, 64
2, 12360, Note_on_c, 0, 74, 64
2, 12480, Note_off_c, 0, 74, 64
2, 12480, Note_off_c, 0, 47, 64
2, 12480, Note_on_c, 0, 73, 64
2, 12480, Note_on_c, 0, 45, 64
2, 12600, Note_off_c, 0, 52, 64
2, 12600, Note_on_c, 0, 69, 64
2, 12600, Note_on_c, 0, 52, 64
2, 12720, Note_off_c, 0, 52, 64
2, 12720, Note_off_c, 0, 69, 64
2, 12720, Note_off_c, 0, 45, 64
2, 12720, Note_off_c, 0, 73, 64
2, 12720, Note_on_c, 0, 69, 64
2, 12720, Note_on_c, 0, 57, 64
2, 12840, Note_off_c, 0, 57, 64
2, 12840, Note_off_c, 0, 69, 64
2, 12840, Note_on_c, 0, 69, 64
2, 12840, Note_on_c, 0, 55, 64
2, 12840, Note_on_c, 0, 45, 64
2, 12960, Note_off_c, 0, 45, 64
2, 12960, Note_off_c, 0, 55, 64
2, 12960, Note_off_c, 0, 69, 64
2, 12960, Note_on_c, 0, 62, 64
2, 12960, Note_on_c, 0, 54, 64
2, 12960, Note_on_c, 0, 47, 64
2, 13080, Note_off_c, 0, 54, 64
2, 13080, Note_on_c, 0, 74, 64
2, 13080, Note_on_c, 0, 52, 64
2, 13200, Note_off_c, 0, 52, 64
2, 13200, Note_off_c, 0, 74, 64
2, 13200, Note_off_c, 0, 47, 64
2, 13200, Note_off_c, 0, 62, 64
2, 13200, Note_on_c, 0, 50, 64
2, 13200, Note_on_c, 0, 66, 64
2, 13200, Note_on_c, 0, 74, 64
2, 13320, Note_off_c, 0, 74, 64
2, 13320, Note_on_c, 0, 47, 64
2, 13320, Note_on_c, 0, 74, 64
2, 13440, Note_off_c, 0, 74, 64
2, 13440, Note_off_c, 0, 47, 64
2, 13440, Note_off_c, 0, 50, 64
2, 13440, Note_on_c, 0, 67, 64
2, 13440, Note_on_c, 0, 52, 64
2, 13440, Note_on_c, 0, 40, 64
2, 13560, Note_off_c, 0, 52, 64
2, 13560, Note_off_c, 0, 66, 64
2, 13560, Note_on_c, 0, 59, 64
2, 13560, Note_on_c, 0, 54, 64
2, 13680, Note_off_c, 0, 54, 64
2, 13680, Note_off_c, 0, 59, 64
2, 13680, Note_off_c, 0, 40, 64
2, 13680, Note_off_c, 0, 67, 64
2, 13680, Note_on_c, 0, 71, 64
2, 13680, Note_on_c, 0, 64, 64
2, 13680, Note_on_c, 0, 55, 64
2, 13800, Note_off_c, 0, 64, 64
2, 13800, Note_on_c, 0, 62, 64
2, 13800, Note_on_c, 0, 52, 64
2, 13920, Note_off_c, 0, 52, 64
2, 13920, Note_off_c, 0, 62, 64
2, 13920, Note_on_c, 0, 61, 64
2, 13920, Note_on_c, 0, 45, 64
2, 14040, Note_off_c, 0, 55, 64
2, 14040, Note_off_c, 0, 71, 64
2, 14040, Note_on_c, 0, 64, 64
2, 14040, Note_on_c, 0, 55, 64
2, 14160, Note_off_c, 0, 55, 64
2, 14160, Note_off_c, 0, 64, 64
2, 14160, Note_off_c, 0, 45, 64
2, 14160, Note_on_c, 0, 69, 64
2, 14160, Note_on_c, 0, 54, 64
2, 14280, Note_off_c, 0, 54, 64
2, 14280, Note_off_c, 0, 69, 64
2, 14280, Note_on_c, 0, 45, 64
2, 14280, Note_on_c, 0, 52, 64
2, 14280, Note_on_c, 0, 67, 64
2, 14400, Note_off_c, 0, 67, 64
2, 14400, Note_off_c, 0, 52, 64
2, 14400, Note_off_c, 0, 45, 64
2, 14400, Note_off_c, 0, 61, 64
2, 14400, Note_on_c, 0, 66, 64
2, 14400, Note_on_c, 0, 50, 64
2, 14400, Note_on_c, 0, 38, 64
2, 14520, Note_on_c, 0, 57, 64
2, 14640, Note_off_c, 0, 57, 64
2, 14640, Note_off_c, 0, 38, 64
2, 14640, Note_off_c, 0, 50, 64
2, 14640, Note_off_c, 0, 66, 64
2, 14640, Note_on_c, 0, 62, 64
2, 14760, Note_off_c, 0, 62, 64
2, 14760, Note_on_c, 0, 69, 64
2, 14760, Note_on_c, 0, 60, 64
2, 14880, Note_off_c, 0, 60, 64
2, 14880, Note_off_c, 0, 69, 64
2, 14880, Note_on_c, 0, 74, 64
2, 14880, Note_on_c, 0, 59, 64
2, 15000, Note_off_c, 0, 59, 64
2, 15000, Note_off_c, 0, 74, 64
2, 15000, Note_on_c, 0, 72, 64
2, 15000, Note_on_c, 0, 62, 64
2, 15120, Note_off_c, 0, 62, 64
2, 15120, Note_off_c, 0, 72, 64
2, 15120, Note_on_c, 0, 71, 64
2, 15120, Note_on_c, 0, 67, 64
2, 15240, Note_off_c, 0, 67, 64
2, 15240, Note_off_c, 0, 71, 64
2, 15240, Note_on_c, 0, 74, 64
2, 15240, Note_on_c, 0, 66, 64
2, 15360, Note_off_c, 0, 66, 64
2, 15360, Note_off_c, 0, 74, 64
2, 15360, Note_on_c, 0, 79, 64
2, 15360, Note_on_c, 0, 64, 64
2, 15480, Note_off_c, 0, 64, 64
2, 15480, Note_on_c, 0, 62, 64
2, 15480, Note_on_c, 0, 52, 64
2, 15600, Note_off_c, 0, 52, 64
2, 15600, Note_off_c, 0, 62, 64
2, 15600, Note_off_c, 0, 79, 64
2, 15600, Note_on_c, 0, 78, 64
2, 15600, Note_on_c, 0, 61, 64
2, 15600, Note_on_c, 0, 57, 64
2, 15720, Note_off_c, 0, 57, 64
2, 15720, Note_off_c, 0, 78, 64
2, 15720, Note_on_c, 0, 76, 64
2, 15720, Note_on_c, 0, 55, 64
2, 15840, Note_off_c, 0, 55, 64
2, 15840, Note_off_c, 0, 76, 64
2, 15840, Note_off_c, 0, 61, 64
2, 15840, Note_on_c, 0, 81, 64
2, 15840, Note_on_c, 0, 62, 64
2, 15840, Note_on_c, 0, 54, 64
2, 15960, Note_off_c, 0, 54, 64
2, 15960, Note_off_c, 0, 62, 64
2, 15960, Note_off_c, 0, 81, 64
2, 15960, Note_on_c, 0, 79, 64
2, 15960, Note_on_c, 0, 64, 64
2, 15960, Note_on_c, 0, 57, 64
2, 16080, Note_off_c, 0, 57, 64
2, 16080, Note_off_c, 0, 64, 64
2, 16080, Note_off_c, 0, 79, 64
2, 16080, Note_on_c, 0, 66, 64
2, 16080, Note_on_c, 0, 78, 64
2, 16080, Note_on_c, 0, 62, 64
2, 16200, Note_off_c, 0, 62, 64
2, 16200, Note_off_c, 0, 78, 64
2, 16200, Note_on_c, 0, 61, 64
2, 16200, Note_on_c, 0, 76, 64
2, 16320, Note_off_c, 0, 76, 64
2, 16320, Note_off_c, 0, 61, 64
2, 16320, Note_on_c, 0, 74, 64
2, 16320, Note_on_c, 0, 59, 64
2, 16440, Note_on_c, 0, 47, 64
2, 16560, Note_off_c, 0, 47, 64
2, 16560, Note_off_c, 0, 59, 64
2, 16560, Note_off_c, 0, 74, 64
2, 16560, Note_off_c, 0, 66, 64
2, 16560, Note_on_c, 0, 73, 64
2, 16560, Note_on_c, 0, 68, 64
2, 16560, Note_on_c, 0, 52, 64
2, 16680, Note_off_c, 0, 52, 64
2, 16680, Note_off_c, 0, 73, 64
2, 16680, Note_on_c, 0, 71, 64
2, 16680, Note_on_c, 0, 50, 64
2, 16800, Note_off_c, 0, 50, 64
2, 16800, Note_off_c, 0, 71, 64
2, 16800, Note_on_c, 0, 76, 64
2, 16800, Note_on_c, 0, 49, 64
2, 16920, Note_off_c, 0, 49, 64
2, 16920, Note_off_c, 0, 76, 64
2, 16920, Note_on_c, 0, 74, 64
2, 16920, Note_on_c, 0, 59, 64
2, 16920, Note_on_c, 0, 52, 64
2, 17040, Note_off_c, 0, 52, 64
2, 17040, Note_off_c, 0, 59, 64
2, 17040, Note_off_c, 0, 74, 64
2, 17040, Note_off_c, 0, 68, 64
2, 17040, Note_on_c, 0, 61, 64
2, 17040, Note_on_c, 0, 73, 64
2, 17040, Note_on_c, 0, 69, 64
2, 17040, Note_on_c, 0, 57, 64
2, 17160, Note_off_c, 0, 57, 64
2, 17160, Note_off_c, 0, 69, 64
2, 17160, Note_off_c, 0, 73, 64
2, 17160, Note_on_c, 0, 64, 64
2, 17160, Note_on_c, 0, 56, 64
2, 17160, Note_on_c, 0, 71, 64
2, 17280, Note_off_c, 0, 71, 64
2, 17280, Note_off_c, 0, 56, 64
2, 17280, Note_off_c, 0, 64, 64
2, 17280, Note_on_c, 0, 69, 64
2, 17280, Note_on_c, 0, 54, 64
2, 17400, Note_off_c, 0, 54, 64
2, 17400, Note_off_c, 0, 69, 64
2, 17400, Note_off_c, 0, 61, 64
2, 17400, Note_on_c, 0, 73, 64
2, 17400, Note_on_c, 0, 68, 64
2, 17400, Note_on_c, 0, 57, 64
2, 17400, Note_on_c, 0, 52, 64
2, 17520, Note_off_c, 0, 52, 64
2, 17520, Note_off_c, 0, 57, 64
2, 17520, Note_off_c, 0, 68, 64
2, 17520, Note_off_c, 0, 73, 64
2, 17520, Note_on_c, 0, 71, 64
2, 17520, Note_on_c, 0, 66, 64
2, 17520, Note_on_c, 0, 62, 64
2, 17520, Note_on_c, 0, 50, 64
2, 17640, Note_off_c, 0, 62, 64
2, 17640, Note_off_c, 0, 71, 64
2, 17640, Note_on_c, 0, 69, 64
2, 17640, Note_on_c, 0, 61, 64
2, 17760, Note_off_c, 0, 61, 64
2, 17760, Note_off_c, 0, 69, 64
2, 17760, Note_off_c, 0, 66, 64
2, 17760, Note_on_c, 0, 68, 64
2, 17760, Note_on_c, 0, 64, 64
2, 17760, Note_on_c, 0, 59, 64
2, 17880, Note_off_c, 0, 68, 64
2, 17880, Note_off_c, 0, 50, 64
2, 17880, Note_on_c, 0, 64, 64
2, 17880, Note_on_c, 0, 49, 64
2, 18000, Note_off_c, 0, 49, 64
2, 18000, Note_off_c, 0, 64, 64
2, 18000, Note_off_c, 0, 59, 64
2, 18000, Note_off_c, 0, 64, 64
2, 18000, Note_on_c, 0, 69, 64
2, 18000, Note_on_c, 0, 62, 64
2, 18000, Note_on_c, 0, 57, 64
2, 18000, Note_on_c, 0, 54, 64
2, 18120, Note_off_c, 0, 54, 64
2, 18120, Note_off_c, 0, 57, 64
2, 18120, Note_off_c, 0, 62, 64
2, 18120, Note_on_c, 0, 56, 64
2, 18120, Note_on_c, 0, 61, 64
2, 18120, Note_on_c, 0, 52, 64
2, 18240, Note_off_c, 0, 52, 64
2, 18240, Note_off_c, 0, 61, 64
2, 18240, Note_off_c, 0, 56, 64
2, 18240, Note_on_c, 0, 59, 64
2, 18240, Note_on_c, 0, 54, 64
2, 18240, Note_on_c, 0, 50, 64
2, 18360, Note_off_c, 0, 59, 64
2, 18360, Note_on_c, 0, 61, 64
2, 18480, Note_off_c, 0, 61, 64
2, 18480, Note_off_c, 0, 50, 64
2, 18480, Note_off_c, 0, 54, 64
2, 18480, Note_on_c, 0, 62, 64
2, 18480, Note_on_c, 0, 52, 64
2, 18600, Note_off_c, 0, 69, 64
2, 18600, Note_on_c, 0, 68, 64
2, 18720, Note_off_c, 0, 68, 64
2, 18720, Note_on_c, 0, 69, 64
2, 18720, Note_on_c, 0, 45, 64
2, 18840, Note_off_c, 0, 62, 64
2, 18840, Note_on_c, 0, 61, 64
2, 18960, Note_off_c, 0, 61, 64
2, 18960, Note_off_c, 0, 45, 64
2, 18960, Note_off_c, 0, 52, 64
2, 18960, Note_on_c, 0, 66, 64
2, 19080, Note_off_c, 0, 66, 64
2, 19080, Note_on_c, 0, 42, 64
2, 19080, Note_on_c, 0, 64, 64
2, 19200, Note_off_c, 0, 64, 64
2, 19200, Note_off_c, 0, 42, 64
2, 19200, Note_on_c, 0, 63, 64
2, 19200, Note_on_c, 0, 47, 64
2, 19320, Note_off_c, 0, 69, 64
2, 19320, Note_on_c, 0, 66, 64
2, 19320, Note_on_c, 0, 59, 64
2, 19440, Note_off_c, 0, 59, 64
2, 19440, Note_off_c, 0, 66, 64
2, 19440, Note_off_c, 0, 47, 64
2, 19440, Note_off_c, 0, 63, 64
2, 19440, Note_on_c, 0, 71, 64
2, 19440, Note_on_c, 0, 59, 64
2, 19560, Note_off_c, 0, 59, 64
2, 19560, Note_off_c, 0, 71, 64
2, 19560, Note_on_c, 0, 69, 64
2, 19560, Note_on_c, 0, 59, 64
2, 19680, Note_off_c, 0, 59, 64
2, 19680, Note_off_c, 0, 69, 64
2, 19680, Note_on_c, 0, 67, 64
2, 19680, Note_on_c, 0, 52, 64
2, 19800, Note_on_c, 0, 59, 64
2, 19800, Note_on_c, 0, 50, 64
2, 19920, Note_off_c, 0, 50, 64
2, 19920, Note_off_c, 0, 59, 64
2, 19920, Note_off_c, 0, 52, 64
2, 19920, Note_off_c, 0, 67, 64
2, 19920, Note_on_c, 0, 55, 64
2, 19920, Note_on_c, 0, 64, 64
2, 19920, Note_on_c, 0, 49, 64
2, 20040, Note_off_c, 0, 49, 64
2, 20040, Note_off_c, 0, 64, 64
2, 20040, Note_on_c, 0, 47, 64
2, 20040, Note_on_c, 0, 62, 64
2, 20160, Note_off_c, 0, 62, 64
2, 20160, Note_off_c, 0, 47, 64
2, 20160, Note_on_c, 0, 61, 64
2, 20160, Note_on_c, 0, 46, 64
2, 20280, Note_off_c, 0, 55, 64
2, 20280, Note_on_c, 0, 78, 64
2, 20280, Note_on_c, 0, 49, 64
2, 20400, Note_off_c, 0, 49, 64
2, 20400, Note_off_c, 0, 78, 64
2, 20400, Note_off_c, 0, 46, 64
2, 20400, Note_off_c, 0, 61, 64
2, 20400, Note_on_c, 0, 78, 64
2, 20400, Note_on_c, 0, 54, 64
2, 20520, Note_off_c, 0, 54, 64
2, 20520, Note_off_c, 0, 78, 64
2, 20520, Note_on_c, 0, 78, 64
2, 20520, Note_on_c, 0, 52, 64
2, 20520, Note_on_c, 0, 46, 64
2, 20640, Note_off_c, 0, 46, 64
2, 20640, Note_off_c, 0, 52, 64
2, 20640, Note_off_c, 0, 78, 64
2, 20640, Note_on_c, 0, 71, 64
2, 20640, Note_on_c, 0, 51, 64
2, 20640, Note_on_c, 0, 45, 64
2, 20760, Note_off_c, 0, 51, 64
2, 20760, Note_off_c, 0, 71, 64
2, 20760, Note_on_c, 0, 71, 64
2, 20760, Note_on_c, 0, 53, 64
2, 20820, Note_off_c, 0, 53, 64
2, 20820, Note_on_c, 0, 54, 64
2, 20880, Note_off_c, 0, 54, 64
2, 20880, Note_off_c, 0, 71, 64
2, 20880, Note_off_c, 0, 45, 64
2, 20880, Note_on_c, 0, 74, 64
2, 20880, Note_on_c, 0, 53, 64
2, 20880, Note_on_c, 0, 71, 64
2, 21000, Note_off_c, 0, 71, 64
2, 21000, Note_on_c, 0, 44, 64
2, 21000, Note_on_c, 0, 71, 64
2, 21120, Note_off_c, 0, 71, 64
2, 21120, Note_off_c, 0, 44, 64
2, 21120, Note_off_c, 0, 53, 64
2, 21120, Note_on_c, 0, 64, 64
2, 21120, Note_on_c, 0, 49, 64
2, 21240, Note_off_c, 0, 74, 64
2, 21240, Note_on_c, 0, 68, 64
2, 21240, Note_on_c, 0, 59, 64
2, 21360, Note_off_c, 0, 59, 64
2, 21360, Note_off_c, 0, 68, 64
2, 21360, Note_off_c, 0, 49, 64
2, 21360, Note_off_c, 0, 64, 64
2, 21360, Note_on_c, 0, 73, 64
2, 21360, Note_on_c, 0, 67, 64
2, 21360, Note_on_c, 0, 58, 64
2, 21480, Note_off_c, 0, 58, 64
2, 21480, Note_off_c, 0, 73, 64
2, 21480, Note_on_c, 0, 71, 64
2, 21480, Note_on_c, 0, 61, 64
2, 21480, Note_on_c, 0, 52, 64
2, 21600, Note_off_c, 0, 52, 64
2, 21600, Note_off_c, 0, 71, 64
2, 21600, Note_on_c, 0, 70, 64
2, 21600, Note_on_c, 0, 42, 64
2, 21720, Note_off_c, 0, 42, 64
2, 21720, Note_off_c, 0, 67, 64
2, 21720, Note_on_c, 0, 61, 64
2, 21720, Note_on_c, 0, 64, 64
2, 21720, Note_on_c, 0, 54, 64
2, 21721, Note_off_c, 0, 61, 64
2, 21840, Note_off_c, 0, 54, 64
2, 21840, Note_off_c, 0, 64, 64
2, 21840, Note_off_c, 0, 70, 64
2, 21840, Note_off_c, 0, 61, 64
2, 21840, Note_on_c, 0, 71, 64
2, 21840, Note_on_c, 0, 66, 64
2, 21840, Note_on_c, 0, 62, 64
2, 21840, Note_on_c, 0, 56, 64
2, 21960, Note_off_c, 0, 56, 64
2, 21960, Note_off_c, 0, 62, 64
2, 21960, Note_off_c, 0, 66, 64
2, 21960, Note_off_c, 0, 71, 64
2, 21960, Note_on_c, 0, 58, 64
2, 21960, Note_on_c, 0, 64, 64
2, 21960, Note_on_c, 0, 73, 64
2, 21960, Note_on_c, 0, 61, 64
2, 22080, Note_off_c, 0, 61, 64
2, 22080, Note_off_c, 0, 73, 64
2, 22080, Note_off_c, 0, 64, 64
2, 22080, Note_off_c, 0, 58, 64
2, 22080, Note_on_c, 0, 74, 64
2, 22080, Note_on_c, 0, 62, 64
2, 22080, Note_on_c, 0, 59, 64
2, 22200, Note_off_c, 0, 62, 64
2, 22200, Note_on_c, 0, 66, 64
2, 22200, Note_on_c, 0, 57, 64
2, 22320, Note_off_c, 0, 57, 64
2, 22320, Note_off_c, 0, 66, 64
2, 22320, Note_on_c, 0, 71, 64
2, 22320, Note_on_c, 0, 56, 64
2, 22440, Note_off_c, 0, 56, 64
2, 22440, Note_off_c, 0, 71, 64
2, 22440, Note_on_c, 0, 69, 64
2, 22440, Note_on_c, 0, 54, 64
2, 22560, Note_off_c, 0, 54, 64
2, 22560, Note_off_c, 0, 69, 64
2, 22560, Note_on_c, 0, 53, 64
2, 22560, Note_on_c, 0, 68, 64
2, 22680, Note_off_c, 0, 59, 64
2, 22680, Note_on_c, 0, 56, 64
2, 22800, Note_off_c, 0, 56, 64
2, 22800, Note_off_c, 0, 74, 64
2, 22800, Note_on_c, 0, 73, 64
2, 22800, Note_on_c, 0, 61, 64
2, 22920, Note_off_c, 0, 61, 64
2, 22920, Note_on_c, 0, 59, 64
2, 23040, Note_off_c, 0, 59, 64
2, 23040, Note_off_c, 0, 53, 64
2, 23040, Note_on_c, 0, 57, 64
2, 23160, Note_off_c, 0, 68, 64
2, 23160, Note_on_c, 0, 61, 64
2, 23160, Note_on_c, 0, 54, 64
2, 23280, Note_off_c, 0, 54, 64
2, 23280, Note_off_c, 0, 61, 64
2, 23280, Note_on_c, 0, 66, 64
2, 23280, Note_on_c, 0, 54, 64
2, 23400, Note_off_c, 0, 54, 64
2, 23400, Note_off_c, 0, 66, 64
2, 23400, Note_on_c, 0, 64, 64
2, 23400, Note_on_c, 0, 54, 64
2, 23520, Note_off_c, 0, 54, 64
2, 23520, Note_off_c, 0, 64, 64
2, 23520, Note_on_c, 0, 62, 64
2, 23520, Note_on_c, 0, 47, 64
2, 23640, Note_off_c, 0, 57, 64
2, 23640, Note_off_c, 0, 73, 64
2, 23640, Note_on_c, 0, 71, 64
2, 23640, Note_on_c, 0, 54, 64
2, 23700, Note_off_c, 0, 71, 64
2, 23700, Note_on_c, 0, 69, 64
2, 23760, Note_off_c, 0, 69, 64
2, 23760, Note_off_c, 0, 54, 64
2, 23760, Note_off_c, 0, 47, 64
2, 23760, Note_on_c, 0, 50, 64
2, 23760, Note_on_c, 0, 68, 64
2, 23760, Note_on_c, 0, 59, 64
2, 23880, Note_off_c, 0, 59, 64
2, 23880, Note_off_c, 0, 68, 64
2, 23880, Note_off_c, 0, 62, 64
2, 23880, Note_on_c, 0, 66, 64
2, 23880, Note_on_c, 0, 61, 64
2, 23880, Note_on_c, 0, 57, 64
2, 24000, Note_off_c, 0, 57, 64
2, 24000, Note_off_c, 0, 61, 64
2, 24000, Note_off_c, 0, 66, 64
2, 24000, Note_on_c, 0, 65, 64
2, 24000, Note_on_c, 0, 59, 64
2, 24000, Note_on_c, 0, 56, 64
2, 24120, Note_off_c, 0, 50, 64
2, 24120, Note_on_c, 0, 44, 64
2, 24240, Note_off_c, 0, 44, 64
2, 24240, Note_on_c, 0, 49, 64
2, 24360, Note_off_c, 0, 49, 64
2, 24360, Note_on_c, 0, 47, 64
2, 24480, Note_off_c, 0, 47, 64
2, 24480, Note_on_c, 0, 45, 64
2, 24600, Note_off_c, 0, 56, 64
2, 24600, Note_off_c, 0, 59, 64
2, 24600, Note_off_c, 0, 65, 64
2, 24600, Note_on_c, 0, 61, 64
2, 24600, Note_on_c, 0, 57, 64
2, 24600, Note_on_c, 0, 54, 64
2, 24660, Note_off_c, 0, 54, 64
2, 24660, Note_off_c, 0, 57, 64
2, 24660, Note_on_c, 0, 59, 64
2, 24660, Note_on_c, 0, 56, 64
2, 24720, Note_off_c, 0, 56, 64
2, 24720, Note_off_c, 0, 59, 64
2, 24720, Note_off_c, 0, 61, 64
2, 24720, Note_on_c, 0, 57, 64
2, 24720, Note_on_c, 0, 66, 64
2, 24720, Note_on_c, 0, 61, 64
2, 24840, Note_off_c, 0, 61, 64
2, 24840, Note_off_c, 0, 45, 64
2, 24840, Note_on_c, 0, 47, 64
2, 24840, Note_on_c, 0, 62, 64
2, 24960, Note_off_c, 0, 62, 64
2, 24960, Note_off_c, 0, 47, 64
2, 24960, Note_off_c, 0, 57, 64
2, 24960, Note_on_c, 0, 61, 64
2, 24960, Note_on_c, 0, 56, 64
2, 24960, Note_on_c, 0, 49, 64
2, 25080, Note_off_c, 0, 56, 64
2, 25080, Note_on_c, 0, 54, 64
2, 25200, Note_off_c, 0, 54, 64
2, 25200, Note_off_c, 0, 66, 64
2, 25200, Note_on_c, 0, 65, 64
2, 25200, Note_on_c, 0, 56, 64
2, 25320, Note_off_c, 0, 61, 64
2, 25320, Note_on_c, 0, 59, 64
2, 25440, Note_off_c, 0, 59, 64
2, 25440, Note_off_c, 0, 56, 64
2, 25440, Note_off_c, 0, 65, 64
2, 25440, Note_off_c, 0, 49, 64
2, 25440, Note_on_c, 0, 66, 64
2, 25440, Note_on_c, 0, 57, 64
2, 25440, Note_on_c, 0, 54, 64
2, 25440, Note_on_c, 0, 42, 64
2, 25560, Note_off_c, 0, 42, 64
2, 25560, Note_off_c, 0, 54, 64
2, 25560, Note_off_c, 0, 57, 64
2, 25560, Note_on_c, 0, 57, 64
2, 25680, Note_off_c, 0, 57, 64
2, 25680, Note_off_c, 0, 66, 64
2, 25680, Note_on_c, 0, 57, 64
2, 25800, Note_off_c, 0, 57, 64
2, 25800, Note_on_c, 0, 81, 64
2, 25800, Note_on_c, 0, 57, 64
2, 25920, Note_off_c, 0, 57, 64
2, 25920, Note_off_c, 0, 81, 64
2, 25920, Note_on_c, 0, 81, 64
2, 25920, Note_on_c, 0, 50, 64
2, 26040, Note_off_c, 0, 81, 64
2, 26040, Note_on_c, 0, 81, 64
2, 26040, Note_on_c, 0, 69, 64
2, 26160, Note_off_c, 0, 69, 64
2, 26160, Note_off_c, 0, 81, 64
2, 26160, Note_off_c, 0, 50, 64
2, 26160, Note_on_c, 0, 74, 64
2, 26160, Note_on_c, 0, 69, 64
2, 26160, Note_on_c, 0, 54, 64
2, 26280, Note_off_c, 0, 69, 64
2, 26280, Note_on_c, 0, 69, 64
2, 26400, Note_off_c, 0, 69, 64
2, 26400, Note_off_c, 0, 74, 64
2, 26400, Note_on_c, 0, 78, 64
2, 26400, Note_on_c, 0, 62, 64
2, 26520, Note_off_c, 0, 62, 64
2, 26520, Note_off_c, 0, 54, 64
2, 26520, Note_on_c, 0, 50, 64
2, 26520, Note_on_c, 0, 47, 64
2, 26640, Note_off_c, 0, 47, 64
2, 26640, Note_off_c, 0, 50, 64
2, 26640, Note_on_c, 0, 55, 64
2, 26640, Note_on_c, 0, 52, 64
2, 26760, Note_off_c, 0, 52, 64
2, 26760, Note_off_c, 0, 55, 64
2, 26760, Note_off_c, 0, 78, 64
2, 26760, Note_on_c, 0, 54, 64
2, 26760, Note_on_c, 0, 50, 64
2, 26760, Note_on_c, 0, 71, 64
2, 26880, Note_off_c, 0, 71, 64
2, 26880, Note_off_c, 0, 50, 64
2, 26880, Note_off_c, 0, 54, 64
2, 26880, Note_on_c, 0, 76, 64
2, 26880, Note_on_c, 0, 52, 64
2, 26880, Note_on_c, 0, 49, 64
2, 27000, Note_off_c, 0, 49, 64
2, 27000, Note_off_c, 0, 76, 64
2, 27000, Note_on_c, 0, 74, 64
2, 27000, Note_on_c, 0, 64, 64
2, 27000, Note_on_c, 0, 47, 64
2, 27120, Note_off_c, 0, 47, 64
2, 27120, Note_off_c, 0, 64, 64
2, 27120, Note_off_c, 0, 74, 64
2, 27120, Note_off_c, 0, 52, 64
2, 27120, Note_on_c, 0, 73, 64
2, 27120, Note_on_c, 0, 69, 64
2, 27120, Note_on_c, 0, 45, 64
2, 27240, Note_off_c, 0, 69, 64
2, 27240, Note_on_c, 0, 67, 64
2, 27240, Note_on_c, 0, 57, 64
2, 27360, Note_off_c, 0, 57, 64
2, 27360, Note_off_c, 0, 67, 64
2, 27360, Note_off_c, 0, 45, 64
2, 27360, Note_on_c, 0, 66, 64
2, 27360, Note_on_c, 0, 62, 64
2, 27480, Note_off_c, 0, 62, 64
2, 27480, Note_off_c, 0, 73, 64
2, 27480, Note_on_c, 0, 69, 64
2, 27480, Note_on_c, 0, 60, 64
2, 27600, Note_off_c, 0, 60, 64
2, 27600, Note_off_c, 0, 69, 64
2, 27600, Note_off_c, 0, 66, 64
2, 27600, Note_on_c, 0, 59, 64
2, 27600, Note_on_c, 0, 74, 64
2, 27720, Note_off_c, 0, 74, 64
2, 27720, Note_on_c, 0, 62, 64
2, 27720, Note_on_c, 0, 72, 64
2, 27840, Note_off_c, 0, 72, 64
2, 27840, Note_off_c, 0, 62, 64
2, 27840, Note_on_c, 0, 71, 64
2, 27840, Note_on_c, 0, 67, 64
2, 27960, Note_off_c, 0, 67, 64
2, 27960, Note_off_c, 0, 59, 64
2, 27960, Note_on_c, 0, 66, 64
2, 27960, Note_on_c, 0, 57, 64
2, 27960, Note_on_c, 0, 47, 64
2, 28080, Note_off_c, 0, 47, 64
2, 28080, Note_off_c, 0, 57, 64
2, 28080, Note_off_c, 0, 66, 64
2, 28080, Note_off_c, 0, 71, 64
2, 28080, Note_on_c, 0, 64, 64
2, 28080, Note_on_c, 0, 55, 64
2, 28080, Note_on_c, 0, 52, 64
2, 28200, Note_off_c, 0, 52, 64
2, 28200, Note_on_c, 0, 71, 64
2, 28200, Note_on_c, 0, 50, 64
2, 28320, Note_off_c, 0, 50, 64
2, 28320, Note_off_c, 0, 71, 64
2, 28320, Note_off_c, 0, 55, 64
2, 28320, Note_off_c, 0, 64, 64
2, 28320, Note_on_c, 0, 76, 64
2, 28320, Note_on_c, 0, 48, 64
2, 28440, Note_off_c, 0, 48, 64
2, 28440, Note_off_c, 0, 76, 64
2, 28440, Note_on_c, 0, 74, 64
2, 28440, Note_on_c, 0, 52, 64
2, 28440, Note_on_c, 0, 47, 64
2, 28560, Note_off_c, 0, 47, 64
2, 28560, Note_off_c, 0, 52, 64
2, 28560, Note_off_c, 0, 74, 64
2, 28560, Note_on_c, 0, 72, 64
2, 28560, Note_on_c, 0, 45, 64
2, 28560, Note_on_c, 0, 57, 64
2, 28680, Note_off_c, 0, 57, 64
2, 28680, Note_on_c, 0, 64, 64
2, 28680, Note_on_c, 0, 55, 64
2, 28800, Note_off_c, 0, 55, 64
2, 28800, Note_off_c, 0, 64, 64
2, 28800, Note_on_c, 0, 69, 64
2, 28800, Note_on_c, 0, 54, 64
2, 28920, Note_off_c, 0, 54, 64
2, 28920, Note_off_c, 0, 69, 64
2, 28920, Note_on_c, 0, 67, 64
2, 28920, Note_on_c, 0, 52, 64
2, 29040, Note_off_c, 0, 52, 64
2, 29040, Note_off_c, 0, 67, 64
2, 29040, Note_off_c, 0, 45, 64
2, 29040, Note_on_c, 0, 66, 64
2, 29040, Note_on_c, 0, 50, 64
2, 29040, Note_on_c, 0, 47, 64
2, 29160, Note_off_c, 0, 50, 64
2, 29160, Note_off_c, 0, 66, 64
2, 29160, Note_on_c, 0, 62, 64
2, 29160, Note_on_c, 0, 54, 64
2, 29280, Note_off_c, 0, 54, 64
2, 29280, Note_off_c, 0, 62, 64
2, 29280, Note_off_c, 0, 72, 64
2, 29280, Note_on_c, 0, 71, 64
2, 29280, Note_on_c, 0, 67, 64
2, 29280, Note_on_c, 0, 59, 64
2, 29400, Note_off_c, 0, 59, 64
2, 29400, Note_off_c, 0, 67, 64
2, 29400, Note_off_c, 0, 47, 64
2, 29400, Note_on_c, 0, 66, 64
2, 29400, Note_on_c, 0, 57, 64
2, 29400, Note_on_c, 0, 50, 64
2, 29520, Note_off_c, 0, 50, 64
2, 29520, Note_off_c, 0, 57, 64
2, 29520, Note_off_c, 0, 66, 64
2, 29520, Note_on_c, 0, 55, 64
2, 29520, Note_on_c, 0, 64, 64
2, 29640, Note_off_c, 0, 64, 64
2, 29640, Note_on_c, 0, 54, 64
2, 29640, Note_on_c, 0, 62, 64
2, 29760, Note_off_c, 0, 62, 64
2, 29760, Note_off_c, 0, 54, 64
2, 29760, Note_on_c, 0, 60, 64
2, 29760, Note_on_c, 0, 52, 64
2, 29880, Note_off_c, 0, 52, 64
2, 29880, Note_off_c, 0, 71, 64
2, 29880, Note_off_c, 0, 55, 64
2, 29880, Note_on_c, 0, 69, 64
2, 29880, Note_on_c, 0, 57, 64
2, 29880, Note_on_c, 0, 54, 64
2, 30000, Note_off_c, 0, 54, 64
2, 30000, Note_off_c, 0, 57, 64
2, 30000, Note_off_c, 0, 60, 64
2, 30000, Note_on_c, 0, 59, 64
2, 30000, Note_on_c, 0, 59, 64
2, 30000, Note_on_c, 0, 55, 64
2, 30120, Note_off_c, 0, 55, 64
2, 30120, Note_off_c, 0, 59, 64
2, 30120, Note_off_c, 0, 69, 64
2, 30120, Note_on_c, 0, 67, 64
2, 30120, Note_on_c, 0, 64, 64
2, 30120, Note_on_c, 0, 52, 64
2, 30240, Note_off_c, 0, 52, 64
2, 30240, Note_off_c, 0, 64, 64
2, 30240, Note_off_c, 0, 59, 64
2, 30240, Note_on_c, 0, 57, 64
2, 30240, Note_on_c, 0, 64, 64
2, 30240, Note_on_c, 0, 48, 64
2, 30360, Note_off_c, 0, 48, 64
2, 30360, Note_off_c, 0, 67, 64
2, 30360, Note_on_c, 0, 66, 64
2, 30360, Note_on_c, 0, 45, 64
2, 30420, Note_off_c, 0, 66, 64
2, 30420, Note_on_c, 0, 64, 64
2, 30480, Note_off_c, 0, 64, 64
2, 30480, Note_off_c, 0, 45, 64
2, 30480, Note_off_c, 0, 64, 64
2, 30480, Note_on_c, 0, 62, 64
2, 30480, Note_on_c, 0, 66, 64
2, 30480, Note_on_c, 0, 50, 64
2, 30600, Note_off_c, 0, 50, 64
2, 30600, Note_on_c, 0, 48, 64
2, 30720, Note_off_c, 0, 48, 64
2, 30720, Note_off_c, 0, 66, 64
2, 30720, Note_off_c, 0, 57, 64
2, 30720, Note_on_c, 0, 67, 64
2, 30720, Note_on_c, 0, 55, 64
2, 30720, Note_on_c, 0, 47, 64
2, 30840, Note_off_c, 0, 47, 64
2, 30840, Note_off_c, 0, 55, 64
2, 30840, Note_off_c, 0, 67, 64
2, 30840, Note_off_c, 0, 62, 64
2, 30840, Note_on_c, 0, 62, 64
2, 30840, Note_on_c, 0, 50, 64
2, 30960, Note_off_c, 0, 50, 64
2, 30960, Note_off_c, 0, 62, 64
2, 30960, Note_on_c, 0, 62, 64
2, 30960, Note_on_c, 0, 55, 64
2, 31080, Note_off_c, 0, 55, 64
2, 31080, Note_off_c, 0, 62, 64
2, 31080, Note_on_c, 0, 71, 64
2, 31080, Note_on_c, 0, 62, 64
2, 31080, Note_on_c, 0, 54, 64
2, 31200, Note_off_c, 0, 54, 64
2, 31200, Note_off_c, 0, 62, 64
2, 31200, Note_off_c, 0, 71, 64
2, 31200, Note_on_c, 0, 52, 64
2, 31200, Note_on_c, 0, 71, 64
2, 31200, Note_on_c, 0, 55, 64
2, 31320, Note_off_c, 0, 71, 64
2, 31320, Note_on_c, 0, 79, 64
2, 31320, Note_on_c, 0, 71, 64
2, 31440, Note_off_c, 0, 71, 64
2, 31440, Note_off_c, 0, 79, 64
2, 31440, Note_off_c, 0, 55, 64
2, 31440, Note_on_c, 0, 64, 64
2, 31440, Note_on_c, 0, 59, 64
2, 31440, Note_on_c, 0, 79, 64
2, 31560, Note_off_c, 0, 79, 64
2, 31560, Note_on_c, 0, 79, 64
2, 31680, Note_off_c, 0, 79, 64
2, 31680, Note_off_c, 0, 64, 64
2, 31680, Note_on_c, 0, 73, 64
2, 31680, Note_on_c, 0, 67, 64
2, 31800, Note_off_c, 0, 59, 64
2, 31800, Note_off_c, 0, 52, 64
2, 31800, Note_on_c, 0, 52, 64
2, 31800, Note_on_c, 0, 50, 64
2, 31920, Note_off_c, 0, 50, 64
2, 31920, Note_off_c, 0, 52, 64
2, 31920, Note_off_c, 0, 73, 64
2, 31920, Note_on_c, 0, 76, 64
2, 31920, Note_on_c, 0, 57, 64
2, 31920, Note_on_c, 0, 49, 64
2, 32040, Note_off_c, 0, 49, 64
2, 32040, Note_off_c, 0, 57, 64
2, 32040, Note_off_c, 0, 67, 64
2, 32040, Note_on_c, 0, 61, 64
2, 32040, Note_on_c, 0, 55, 64
2, 32040, Note_on_c, 0, 45, 64
2, 32160, Note_off_c, 0, 45, 64
2, 32160, Note_off_c, 0, 55, 64
2, 32160, Note_off_c, 0, 61, 64
2, 32160, Note_on_c, 0, 54, 64
2, 32160, Note_on_c, 0, 66, 64
2, 32160, Note_on_c, 0, 50, 64
2, 32280, Note_off_c, 0, 50, 64
2, 32280, Note_off_c, 0, 66, 64
2, 32280, Note_off_c, 0, 76, 64
2, 32280, Note_on_c, 0, 69, 64
2, 32280, Note_on_c, 0, 64, 64
2, 32280, Note_on_c, 0, 48, 64
2, 32400, Note_off_c, 0, 48, 64
2, 32400, Note_off_c, 0, 64, 64
2, 32400, Note_off_c, 0, 69, 64
2, 32400, Note_on_c, 0, 62, 64
2, 32400, Note_on_c, 0, 74, 64
2, 32400, Note_on_c, 0, 47, 64
2, 32520, Note_off_c, 0, 47, 64
2, 32520, Note_off_c, 0, 74, 64
2, 32520, Note_on_c, 0, 45, 64
2, 32520, Note_on_c, 0, 72, 64
2, 32640, Note_off_c, 0, 72, 64
2, 32640, Note_off_c, 0, 45, 64
2, 32640, Note_on_c, 0, 71, 64
2, 32640, Note_on_c, 0, 43, 64
2, 32760, Note_off_c, 0, 54, 64
2, 32760, Note_on_c, 0, 47, 64
2, 32880, Note_off_c, 0, 47, 64
2, 32880, Note_off_c, 0, 43, 64
2, 32880, Note_off_c, 0, 62, 64
2, 32880, Note_on_c, 0, 52, 64
2, 32880, Note_on_c, 0, 44, 64
2, 33000, Note_off_c, 0, 52, 64
2, 33000, Note_on_c, 0, 59, 64
2, 33000, Note_on_c, 0, 50, 64
2, 33120, Note_off_c, 0, 50, 64
2, 33120, Note_off_c, 0, 59, 64
2, 33120, Note_off_c, 0, 44, 64
2, 33120, Note_on_c, 0, 45, 64
2, 33120, Note_on_c, 0, 64, 64
2, 33120, Note_on_c, 0, 49, 64
2, 33240, Note_off_c, 0, 49, 64
2, 33240, Note_off_c, 0, 71, 64
2, 33240, Note_on_c, 0, 64, 64
2, 33240, Note_on_c, 0, 62, 64
2, 33240, Note_on_c, 0, 50, 64
2, 33241, Note_off_c, 0, 64, 64
2, 33360, Note_off_c, 0, 50, 64
2, 33360, Note_off_c, 0, 62, 64
2, 33360, Note_off_c, 0, 64, 64
2, 33360, Note_on_c, 0, 52, 64
2, 33360, Note_on_c, 0, 61, 64
2, 33360, Note_on_c, 0, 69, 64
2, 33480, Note_off_c, 0, 69, 64
2, 33480, Note_on_c, 0, 67, 64
2, 33600, Note_off_c, 0, 67, 64
2, 33600, Note_off_c, 0, 45, 64
2, 33600, Note_on_c, 0, 66, 64
2, 33600, Note_on_c, 0, 46, 64
2, 33720, Note_off_c, 0, 52, 64
2, 33720, Note_on_c, 0, 49, 64
2, 33840, Note_off_c, 0, 49, 64
2, 33840, Note_off_c, 0, 66, 64
2, 33840, Note_off_c, 0, 61, 64
2, 33840, Note_on_c, 0, 73, 64
2, 33840, Note_on_c, 0, 54, 64
2, 33960, Note_off_c, 0, 54, 64
2, 33960, Note_on_c, 0, 61, 64
2, 33960, Note_on_c, 0, 52, 64
2, 34080, Note_off_c, 0, 52, 64
2, 34080, Note_off_c, 0, 61, 64
2, 34080, Note_off_c, 0, 46, 64
2, 34080, Note_on_c, 0, 47, 64
2, 34080, Note_on_c, 0, 66, 64
2, 34080, Note_on_c, 0, 50, 64
2, 34200, Note_off_c, 0, 50, 64
2, 34200, Note_off_c, 0, 73, 64
2, 34200, Note_on_c, 0, 66, 64
2, 34200, Note_on_c, 0, 64, 64
2, 34201, Note_off_c, 0, 66, 64
2, 34320, Note_off_c, 0, 64, 64
2, 34320, Note_off_c, 0, 66, 64
2, 34320, Note_on_c, 0, 62, 64
2, 34320, Note_on_c, 0, 71, 64
2, 34440, Note_off_c, 0, 71, 64
2, 34440, Note_on_c, 0, 54, 64
2, 34440, Note_on_c, 0, 69, 64
2, 34560, Note_off_c, 0, 69, 64
2, 34560, Note_off_c, 0, 54, 64
2, 34560, Note_on_c, 0, 67, 64
2, 34560, Note_on_c, 0, 59, 64
2, 34680, Note_off_c, 0, 59, 64
2, 34680, Note_off_c, 0, 47, 64
2, 34680, Note_on_c, 0, 57, 64
2, 34680, Note_on_c, 0, 47, 64
2, 34800, Note_off_c, 0, 47, 64
2, 34800, Note_off_c, 0, 57, 64
2, 34800, Note_off_c, 0, 62, 64
2, 34800, Note_on_c, 0, 55, 64
2, 34800, Note_on_c, 0, 52, 64
2, 34920, Note_off_c, 0, 52, 64
2, 34920, Note_on_c, 0, 59, 64
2, 34920, Note_on_c, 0, 50, 64
2, 35040, Note_off_c, 0, 50, 64
2, 35040, Note_off_c, 0, 59, 64
2, 35040, Note_off_c, 0, 55, 64
2, 35040, Note_on_c, 0, 64, 64
2, 35040, Note_on_c, 0, 49, 64
2, 35160, Note_off_c, 0, 49, 64
2, 35160, Note_off_c, 0, 64, 64
2, 35160, Note_on_c, 0, 62, 64
2, 35160, Note_on_c, 0, 52, 64
2, 35280, Note_off_c, 0, 52, 64
2, 35280, Note_off_c, 0, 62, 64
2, 35280, Note_on_c, 0, 61, 64
2, 35280, Note_on_c, 0, 57, 64
2, 35400, Note_off_c, 0, 57, 64
2, 35400, Note_off_c, 0, 67, 64
2, 35400, Note_on_c, 0, 55, 64
2, 35400, Note_on_c, 0, 64, 64
2, 35520, Note_off_c, 0, 64, 64
2, 35520, Note_off_c, 0, 55, 64
2, 35520, Note_on_c, 0, 69, 64
2, 35520, Note_on_c, 0, 54, 64
2, 35640, Note_off_c, 0, 54, 64
2, 35640, Note_off_c, 0, 69, 64
2, 35640, Note_off_c, 0, 61, 64
2, 35640, Note_on_c, 0, 67, 64
2, 35640, Note_on_c, 0, 61, 64
2, 35640, Note_on_c, 0, 57, 64
2, 35760, Note_off_c, 0, 57, 64
2, 35760, Note_off_c, 0, 61, 64
2, 35760, Note_off_c, 0, 67, 64
2, 35760, Note_on_c, 0, 66, 64
2, 35760, Note_on_c, 0, 62, 64
2, 35880, Note_off_c, 0, 62, 64
2, 35880, Note_off_c, 0, 66, 64
2, 35880, Note_on_c, 0, 69, 64
2, 35880, Note_on_c, 0, 64, 64
2, 35880, Note_on_c, 0, 61, 64
2, 36000, Note_off_c, 0, 61, 64
2, 36000, Note_off_c, 0, 64, 64
2, 36000, Note_off_c, 0, 69, 64
2, 36000, Note_on_c, 0, 74, 64
2, 36000, Note_on_c, 0, 62, 64
2, 36000, Note_on_c, 0, 59, 64
2, 36120, Note_off_c, 0, 59, 64
2, 36120, Note_off_c, 0, 62, 64
2, 36120, Note_off_c, 0, 74, 64
2, 36120, Note_on_c, 0, 73, 64
2, 36120, Note_on_c, 0, 66, 64
2, 36120, Note_on_c, 0, 57, 64
2, 36240, Note_off_c, 0, 57, 64
2, 36240, Note_off_c, 0, 66, 64
2, 36240, Note_off_c, 0, 73, 64
2, 36240, Note_on_c, 0, 71, 64
2, 36240, Note_on_c, 0, 55, 64
2, 36360, Note_off_c, 0, 55, 64
2, 36360, Note_off_c, 0, 71, 64
2, 36360, Note_on_c, 0, 74, 64
2, 36360, Note_on_c, 0, 54, 64
2, 36360, Note_on_c, 0, 69, 64
2, 36480, Note_off_c, 0, 69, 64
2, 36480, Note_off_c, 0, 54, 64
2, 36480, Note_off_c, 0, 74, 64
2, 36480, Note_on_c, 0, 79, 64
2, 36480, Note_on_c, 0, 67, 64
2, 36480, Note_on_c, 0, 52, 64
2, 36600, Note_off_c, 0, 52, 64
2, 36600, Note_off_c, 0, 67, 64
2, 36600, Note_on_c, 0, 71, 64
2, 36600, Note_on_c, 0, 50, 64
2, 36720, Note_off_c, 0, 50, 64
2, 36720, Note_off_c, 0, 71, 64
2, 36720, Note_on_c, 0, 76, 64
2, 36720, Note_on_c, 0, 49, 64
2, 36840, Note_off_c, 0, 49, 64
2, 36840, Note_off_c, 0, 76, 64
2, 36840, Note_on_c, 0, 74, 64
2, 36840, Note_on_c, 0, 47, 64
2, 36960, Note_off_c, 0, 47, 64
2, 36960, Note_off_c, 0, 74, 64
2, 36960, Note_on_c, 0, 73, 64
2, 36960, Note_on_c, 0, 45, 64
2, 37080, Note_off_c, 0, 45, 64
2, 37080, Note_off_c, 0, 79, 64
2, 37080, Note_on_c, 0, 76, 64
2, 37080, Note_on_c, 0, 43, 64
2, 37200, Note_off_c, 0, 43, 64
2, 37200, Note_off_c, 0, 76, 64
2, 37200, Note_on_c, 0, 81, 64
2, 37200, Note_on_c, 0, 42, 64
2, 37320, Note_off_c, 0, 42, 64
2, 37320, Note_off_c, 0, 81, 64
2, 37320, Note_on_c, 0, 40, 64
2, 37320, Note_on_c, 0, 79, 64
2, 37440, Note_off_c, 0, 79, 64
2, 37440, Note_off_c, 0, 40, 64
2, 37440, Note_off_c, 0, 73, 64
2, 37440, Note_on_c, 0, 78, 64
2, 37440, Note_on_c, 0, 74, 64
2, 37440, Note_on_c, 0, 38, 64
2, 37560, Note_off_c, 0, 38, 64
2, 37560, Note_off_c, 0, 74, 64
2, 37560, Note_off_c, 0, 78, 64
2, 37560, Note_on_c, 0, 79, 64
2, 37560, Note_on_c, 0, 76, 64
2, 37560, Note_on_c, 0, 62, 64
2, 37680, Note_off_c, 0, 62, 64
2, 37680, Note_off_c, 0, 76, 64
2, 37680, Note_off_c, 0, 79, 64
2, 37680, Note_on_c, 0, 81, 64
2, 37680, Note_on_c, 0, 78, 64
2, 37680, Note_on_c, 0, 62, 64
2, 37800, Note_off_c, 0, 62, 64
2, 37800, Note_on_c, 0, 62, 64
2, 37800, Note_on_c, 0, 50, 64
2, 37920, Note_off_c, 0, 50, 64
2, 37920, Note_off_c, 0, 62, 64
2, 37920, Note_on_c, 0, 55, 64
2, 37920, Note_on_c, 0, 52, 64
2, 38040, Note_off_c, 0, 78, 64
2, 38040, Note_off_c, 0, 81, 64
2, 38040, Note_on_c, 0, 74, 64
2, 38040, Note_on_c, 0, 71, 64
2, 38160, Note_off_c, 0, 71, 64
2, 38160, Note_off_c, 0, 74, 64
2, 38160, Note_off_c, 0, 52, 64
2, 38160, Note_off_c, 0, 55, 64
2, 38160, Note_on_c, 0, 59, 64
2, 38160, Note_on_c, 0, 79, 64
2, 38160, Note_on_c, 0, 76, 64
2, 38280, Note_off_c, 0, 76, 64
2, 38280, Note_off_c, 0, 79, 64
2, 38280, Note_on_c, 0, 52, 64
2, 38280, Note_on_c, 0, 74, 64
2, 38280, Note_on_c, 0, 78, 64
2, 38400, Note_off_c, 0, 78, 64
2, 38400, Note_off_c, 0, 74, 64
2, 38400, Note_off_c, 0, 52, 64
2, 38400, Note_on_c, 0, 76, 64
2, 38400, Note_on_c, 0, 73, 64
2, 38400, Note_on_c, 0, 57, 64
2, 38520, Note_off_c, 0, 57, 64
2, 38520, Note_off_c, 0, 59, 64
2, 38520, Note_on_c, 0, 52, 64
2, 38520, Note_on_c, 0, 55, 64
2, 38640, Note_off_c, 0, 55, 64
2, 38640, Note_off_c, 0, 52, 64
2, 38640, Note_off_c, 0, 73, 64
2, 38640, Note_on_c, 0, 57, 64
2, 38640, Note_on_c, 0, 54, 64
2, 38760, Note_off_c, 0, 54, 64
2, 38760, Note_off_c, 0, 57, 64
2, 38760, Note_on_c, 0, 64, 64
2, 38760, Note_on_c, 0, 55, 64
2, 38760, Note_on_c, 0, 52, 64
2, 38880, Note_off_c, 0, 52, 64
2, 38880, Note_off_c, 0, 55, 64
2, 38880, Note_off_c, 0, 64, 64
2, 38880, Note_on_c, 0, 69, 64
2, 38880, Note_on_c, 0, 54, 64
2, 38880, Note_on_c, 0, 50, 64
2, 39000, Note_off_c, 0, 50, 64
2, 39000, Note_off_c, 0, 54, 64
2, 39000, Note_off_c, 0, 69, 64
2, 39000, Note_on_c, 0, 67, 64
2, 39000, Note_on_c, 0, 55, 64
2, 39000, Note_on_c, 0, 52, 64
2, 39120, Note_off_c, 0, 52, 64
2, 39120, Note_off_c, 0, 55, 64
2, 39120, Note_off_c, 0, 67, 64
2, 39120, Note_off_c, 0, 76, 64
2, 39120, Note_on_c, 0, 54, 64
2, 39120, Note_on_c, 0, 57, 64
2, 39120, Note_on_c, 0, 74, 64
2, 39120, Note_on_c, 0, 66, 64
2, 39240, Note_off_c, 0, 66, 64
2, 39240, Note_off_c, 0, 74, 64
2, 39240, Note_on_c, 0, 64, 64
2, 39240, Note_on_c, 0, 72, 64
2, 39360, Note_off_c, 0, 72, 64
2, 39360, Note_off_c, 0, 64, 64
2, 39360, Note_on_c, 0, 71, 64
2, 39360, Note_on_c, 0, 62, 64
2, 39480, Note_off_c, 0, 57, 64
2, 39480, Note_off_c, 0, 54, 64
2, 39480, Note_on_c, 0, 50, 64
2, 39480, Note_on_c, 0, 47, 64
2, 39600, Note_off_c, 0, 47, 64
2, 39600, Note_off_c, 0, 50, 64
2, 39600, Note_off_c, 0, 62, 64
2, 39600, Note_on_c, 0, 61, 64
2, 39600, Note_on_c, 0, 55, 64
2, 39600, Note_on_c, 0, 52, 64
2, 39720, Note_off_c, 0, 52, 64
2, 39720, Note_off_c, 0, 55, 64
2, 39720, Note_off_c, 0, 61, 64
2, 39720, Note_on_c, 0, 62, 64
2, 39720, Note_on_c, 0, 54, 64
2, 39720, Note_on_c, 0, 50, 64
2, 39840, Note_off_c, 0, 50, 64
2, 39840, Note_off_c, 0, 54, 64
2, 39840, Note_off_c, 0, 62, 64
2, 39840, Note_on_c, 0, 64, 64
2, 39840, Note_on_c, 0, 52, 64
2, 39840, Note_on_c, 0, 49, 64
2, 39960, Note_off_c, 0, 49, 64
2, 39960, Note_off_c, 0, 71, 64
2, 39960, Note_on_c, 0, 64, 64
2, 39960, Note_on_c, 0, 62, 64
2, 39960, Note_on_c, 0, 47, 64
2, 39961, Note_off_c, 0, 64, 64
2, 40080, Note_off_c, 0, 47, 64
2, 40080, Note_off_c, 0, 62, 64
2, 40080, Note_off_c, 0, 52, 64
2, 40080, Note_off_c, 0, 64, 64
2, 40080, Note_on_c, 0, 45, 64
2, 40080, Note_on_c, 0, 69, 64
2, 40080, Note_on_c, 0, 61, 64
2, 40200, Note_off_c, 0, 61, 64
2, 40200, Note_off_c, 0, 69, 64
2, 40200, Note_on_c, 0, 67, 64
2, 40200, Note_on_c, 0, 64, 64
2, 40320, Note_off_c, 0, 67, 64
2, 40320, Note_on_c, 0, 66, 64
2, 40440, Note_off_c, 0, 64, 64
2, 40440, Note_off_c, 0, 45, 64
2, 40440, Note_on_c, 0, 62, 64
2, 40440, Note_on_c, 0, 57, 64
2, 40560, Note_off_c, 0, 57, 64
2, 40560, Note_off_c, 0, 66, 64
2, 40560, Note_on_c, 0, 64, 64
2, 40560, Note_on_c, 0, 57, 64
2, 40680, Note_off_c, 0, 57, 64
2, 40680, Note_off_c, 0, 62, 64
2, 40680, Note_on_c, 0, 61, 64
2, 40680, Note_on_c, 0, 57, 64
2, 40800, Note_off_c, 0, 57, 64
2, 40800, Note_off_c, 0, 61, 64
2, 40800, Note_off_c, 0, 64, 64
2, 40800, Note_on_c, 0, 66, 64
2, 40800, Note_on_c, 0, 60, 64
2, 40800, Note_on_c, 0, 51, 64
2, 40920, Note_off_c, 0, 51, 64
2, 40920, Note_off_c, 0, 60, 64
2, 40920, Note_off_c, 0, 66, 64
2, 40920, Note_on_c, 0, 68, 64
2, 40920, Note_on_c, 0, 59, 64
2, 40920, Note_on_c, 0, 52, 64
2, 41040, Note_off_c, 0, 52, 64
2, 41040, Note_off_c, 0, 59, 64
2, 41040, Note_off_c, 0, 68, 64
2, 41040, Note_on_c, 0, 53, 64
2, 41040, Note_on_c, 0, 69, 64
2, 41040, Note_on_c, 0, 57, 64
2, 41160, Note_off_c, 0, 57, 64
2, 41160, Note_on_c, 0, 60, 64
2, 41280, Note_off_c, 0, 60, 64
2, 41280, Note_on_c, 0, 62, 64
2, 41400, Note_off_c, 0, 62, 64
2, 41400, Note_off_c, 0, 53, 64
2, 41400, Note_on_c, 0, 64, 64
2, 41400, Note_on_c, 0, 59, 64
2, 41400, Note_on_c, 0, 47, 64
2, 41460, Note_off_c, 0, 64, 64
2, 41460, Note_on_c, 0, 65, 64
2, 41520, Note_off_c, 0, 65, 64
2, 41520, Note_off_c, 0, 47, 64
2, 41520, Note_off_c, 0, 59, 64
2, 41520, Note_off_c, 0, 69, 64
2, 41520, Note_on_c, 0, 68, 64
2, 41520, Note_on_c, 0, 64, 64
2, 41520, Note_on_c, 0, 59, 64
2, 41520, Note_on_c, 0, 52, 64
2, 41640, Note_off_c, 0, 52, 64
2, 41640, Note_off_c, 0, 59, 64
2, 41640, Note_on_c, 0, 59, 64
2, 41640, Note_on_c, 0, 50, 64
2, 41760, Note_off_c, 0, 50, 64
2, 41760, Note_off_c, 0, 59, 64
2, 41760, Note_off_c, 0, 68, 64
2, 41760, Note_on_c, 0, 69, 64
2, 41760, Note_on_c, 0, 52, 64
2, 41760, Note_on_c, 0, 49, 64
2, 41880, Note_off_c, 0, 49, 64
2, 41880, Note_off_c, 0, 52, 64
2, 41880, Note_off_c, 0, 69, 64
2, 41880, Note_off_c, 0, 64, 64
2, 41880, Note_on_c, 0, 81, 64
2, 41880, Note_on_c, 0, 45, 64
2, 42000, Note_off_c, 0, 45, 64
2, 42000, Note_off_c, 0, 81, 64
2, 42000, Note_on_c, 0, 81, 64
2, 42000, Note_on_c, 0, 50, 64
2, 42120, Note_off_c, 0, 50, 64
2, 42120, Note_off_c, 0, 81, 64
2, 42120, Note_on_c, 0, 78, 64
2, 42120, Note_on_c, 0, 81, 64
2, 42120, Note_on_c, 0, 49, 64
2, 42240, Note_off_c, 0, 49, 64
2, 42240, Note_off_c, 0, 81, 64
2, 42240, Note_off_c, 0, 78, 64
2, 42240, Note_on_c, 0, 74, 64
2, 42240, Note_on_c, 0, 78, 64
2, 42240, Note_on_c, 0, 47, 64
2, 42360, Note_off_c, 0, 47, 64
2, 42360, Note_off_c, 0, 78, 64
2, 42360, Note_on_c, 0, 78, 64
2, 42360, Note_on_c, 0, 62, 64
2, 42480, Note_off_c, 0, 62, 64
2, 42480, Note_off_c, 0, 74, 64
2, 42480, Note_on_c, 0, 78, 64
2, 42480, Note_on_c, 0, 71, 64
2, 42480, Note_on_c, 0, 62, 64
2, 42481, Note_off_c, 0, 78, 64
2, 42600, Note_off_c, 0, 62, 64
2, 42600, Note_on_c, 0, 62, 64
2, 42600, Note_on_c, 0, 59, 64
2, 42720, Note_off_c, 0, 59, 64
2, 42720, Note_off_c, 0, 62, 64
2, 42720, Note_off_c, 0, 71, 64
2, 42720, Note_on_c, 0, 74, 64
2, 42720, Note_on_c, 0, 56, 64
2, 42720, Note_on_c, 0, 59, 64
2, 42840, Note_off_c, 0, 59, 64
2, 42840, Note_off_c, 0, 78, 64
2, 42840, Note_on_c, 0, 59, 64
2, 42840, Note_on_c, 0, 71, 64
2, 42960, Note_off_c, 0, 71, 64
2, 42960, Note_off_c, 0, 56, 64
2, 42960, Note_on_c, 0, 52, 64
2, 42960, Note_on_c, 0, 76, 64
2, 42960, Note_on_c, 0, 59, 64
2, 42961, Note_off_c, 0, 59, 64
2, 43080, Note_off_c, 0, 76, 64
2, 43080, Note_off_c, 0, 74, 64
2, 43080, Note_on_c, 0, 74, 64
2, 43080, Note_on_c, 0, 68, 64
2, 43200, Note_off_c, 0, 68, 64
2, 43200, Note_off_c, 0, 74, 64
2, 43200, Note_off_c, 0, 52, 64
2, 43200, Note_on_c, 0, 73, 64
2, 43200, Note_on_c, 0, 55, 64
2, 43320, Note_off_c, 0, 59, 64
2, 43320, Note_on_c, 0, 71, 64
2, 43320, Note_on_c, 0, 52, 64
2, 43440, Note_off_c, 0, 52, 64
2, 43440, Note_off_c, 0, 71, 64
2, 43440, Note_on_c, 0, 69, 64
2, 43440, Note_on_c, 0, 57, 64
2, 43560, Note_off_c, 0, 57, 64
2, 43560, Note_off_c, 0, 55, 64
2, 43560, Note_on_c, 0, 55, 64
2, 43560, Note_on_c, 0, 49, 64
2, 43680, Note_off_c, 0, 49, 64
2, 43680, Note_off_c, 0, 55, 64
2, 43680, Note_off_c, 0, 73, 64
2, 43680, Note_on_c, 0, 72, 64
2, 43680, Note_on_c, 0, 54, 64
2, 43800, Note_off_c, 0, 69, 64
2, 43800, Note_on_c, 0, 67, 64
2, 43800, Note_on_c, 0, 52, 64
2, 43920, Note_off_c, 0, 52, 64
2, 43920, Note_off_c, 0, 67, 64
2, 43920, Note_on_c, 0, 50, 64
2, 43920, Note_on_c, 0, 66, 64
2, 44040, Note_off_c, 0, 66, 64
2, 44040, Note_off_c, 0, 54, 64
2, 44040, Note_on_c, 0, 57, 64
2, 44040, Note_on_c, 0, 64, 64
2, 44160, Note_off_c, 0, 64, 64
2, 44160, Note_off_c, 0, 57, 64
2, 44160, Note_on_c, 0, 66, 64
2, 44160, Note_on_c, 0, 62, 64
2, 44280, Note_off_c, 0, 62, 64
2, 44280, Note_off_c, 0, 72, 64
2, 44280, Note_on_c, 0, 69, 64
2, 44280, Note_on_c, 0, 60, 64
2, 44400, Note_off_c, 0, 60, 64
2, 44400, Note_off_c, 0, 69, 64
2, 44400, Note_off_c, 0, 50, 64
2, 44400, Note_on_c, 0, 74, 64
2, 44400, Note_on_c, 0, 59, 64
2, 44520, Note_off_c, 0, 59, 64
2, 44520, Note_off_c, 0, 74, 64
2, 44520, Note_on_c, 0, 72, 64
2, 44520, Note_on_c, 0, 57, 64
2, 44520, Note_on_c, 0, 50, 64
2, 44640, Note_off_c, 0, 50, 64
2, 44640, Note_off_c, 0, 57, 64
2, 44640, Note_off_c, 0, 72, 64
2, 44640, Note_off_c, 0, 66, 64
2, 44640, Note_on_c, 0, 71, 64
2, 44640, Note_on_c, 0, 55, 64
2, 44760, Note_on_c, 0, 62, 64
2, 44760, Note_on_c, 0, 54, 64
2, 44880, Note_off_c, 0, 54, 64
2, 44880, Note_off_c, 0, 62, 64
2, 44880, Note_on_c, 0, 67, 64
2, 44880, Note_on_c, 0, 52, 64
2, 45000, Note_off_c, 0, 52, 64
2, 45000, Note_off_c, 0, 67, 64
2, 45000, Note_on_c, 0, 50, 64
2, 45000, Note_on_c, 0, 66, 64
2, 45120, Note_off_c, 0, 66, 64
2, 45120, Note_off_c, 0, 50, 64
2, 45120, Note_on_c, 0, 64, 64
2, 45120, Note_on_c, 0, 49, 64
2, 45240, Note_off_c, 0, 64, 64
2, 45240, Note_off_c, 0, 55, 64
2, 45240, Note_on_c, 0, 62, 64
2, 45240, Note_on_c, 0, 52, 64
2, 45360, Note_off_c, 0, 52, 64
2, 45360, Note_off_c, 0, 62, 64
2, 45360, Note_off_c, 0, 71, 64
2, 45360, Note_on_c, 0, 69, 64
2, 45360, Note_on_c, 0, 61, 64
2, 45360, Note_on_c, 0, 57, 64
2, 45480, Note_off_c, 0, 57, 64
2, 45480, Note_off_c, 0, 49, 64
2, 45480, Note_on_c, 0, 55, 64
2, 45480, Note_on_c, 0, 45, 64
2, 45600, Note_off_c, 0, 45, 64
2, 45600, Note_off_c, 0, 55, 64
2, 45600, Note_off_c, 0, 61, 64
2, 45600, Note_on_c, 0, 54, 64
2, 45600, Note_on_c, 0, 50, 64
2, 45720, Note_off_c, 0, 50, 64
2, 45720, Note_on_c, 0, 57, 64
2, 45720, Note_on_c, 0, 48, 64
2, 45840, Note_off_c, 0, 48, 64
2, 45840, Note_off_c, 0, 57, 64
2, 45840, Note_on_c, 0, 62, 64
2, 45840, Note_on_c, 0, 47, 64
2, 45960, Note_off_c, 0, 47, 64
2, 45960, Note_off_c, 0, 62, 64
2, 45960, Note_on_c, 0, 60, 64
2, 45960, Note_on_c, 0, 45, 64
2, 46080, Note_off_c, 0, 45, 64
2, 46080, Note_off_c, 0, 60, 64
2, 46080, Note_on_c, 0, 59, 64
2, 46080, Note_on_c, 0, 43, 64
2, 46200, Note_off_c, 0, 54, 64
2, 46200, Note_on_c, 0, 47, 64
2, 46320, Note_off_c, 0, 47, 64
2, 46320, Note_off_c, 0, 69, 64
2, 46320, Note_on_c, 0, 67, 64
2, 46320, Note_on_c, 0, 52, 64
2, 46440, Note_off_c, 0, 52, 64
2, 46440, Note_off_c, 0, 59, 64
2, 46440, Note_on_c, 0, 59, 64
2, 46440, Note_on_c, 0, 50, 64
2, 46560, Note_off_c, 0, 50, 64
2, 46560, Note_off_c, 0, 59, 64
2, 46560, Note_off_c, 0, 43, 64
2, 46560, Note_on_c, 0, 45, 64
2, 46560, Note_on_c, 0, 64, 64
2, 46560, Note_on_c, 0, 49, 64
2, 46680, Note_off_c, 0, 49, 64
2, 46680, Note_off_c, 0, 64, 64
2, 46680, Note_off_c, 0, 67, 64
2, 46680, Note_on_c, 0, 64, 64
2, 46680, Note_on_c, 0, 62, 64
2, 46680, Note_on_c, 0, 50, 64
2, 46800, Note_off_c, 0, 50, 64
2, 46800, Note_off_c, 0, 62, 64
2, 46800, Note_off_c, 0, 64, 64
2, 46800, Note_on_c, 0, 52, 64
2, 46800, Note_on_c, 0, 69, 64
2, 46800, Note_on_c, 0, 61, 64
2, 46920, Note_off_c, 0, 61, 64
2, 46920, Note_off_c, 0, 69, 64
2, 46920, Note_on_c, 0, 67, 64
2, 46920, Note_on_c, 0, 64, 64
2, 47040, Note_off_c, 0, 67, 64
2, 47040, Note_off_c, 0, 52, 64
2, 47040, Note_on_c, 0, 66, 64
2, 47160, Note_off_c, 0, 64, 64
2, 47160, Note_on_c, 0, 62, 64
2, 47160, Note_on_c, 0, 50, 64
2, 47280, Note_off_c, 0, 50, 64
2, 47280, Note_off_c, 0, 66, 64
2, 47280, Note_on_c, 0, 64, 64
2, 47280, Note_on_c, 0, 57, 64
2, 47400, Note_off_c, 0, 57, 64
2, 47400, Note_off_c, 0, 62, 64
2, 47400, Note_on_c, 0, 61, 64
2, 47400, Note_on_c, 0, 55, 64
2, 47520, Note_off_c, 0, 55, 64
2, 47520, Note_off_c, 0, 61, 64
2, 47520, Note_off_c, 0, 64, 64
2, 47520, Note_off_c, 0, 45, 64
2, 47520, Note_on_c, 0, 38, 64
2, 47520, Note_on_c, 0, 54, 64
2, 47520, Note_on_c, 0, 57, 64
2, 47520, Note_on_c, 0, 62, 64
2, 48000, Note_off_c, 0, 62, 64
2, 48000, Note_off_c, 0, 57, 64
2, 48000, Note_off_c, 0, 54, 64
2, 48000, Note_off_c, 0, 38, 64
2, 48000, End_track
0, 0, End_of_file
