0, 0, Header, 1, 4, 240
1, 0, Start_track
1, 0, Time_signature, 3, 2, 24, 8
1, 0, Tempo, 750000
1, 33240, Tempo, 769231
1, 33360, Tempo, 800000
1, 33480, Tempo, 857143
1, 33600, Tempo, 909091
1, 33720, Tempo, 983607
1, 33840, Tempo, 1090909
1, 33840, End_track
2, 0, Start_track
2, 120, Note_on_c, 0, 65, 64
2, 240, Note_off_c, 0, 65, 57
2, 240, Note_on_c, 0, 67, 64
2, 360, Note_off_c, 0, 67, 50
2, 360, Note_on_c, 0, 65, 64
2, 480, Note_off_c, 0, 65, 42
2, 480, Note_on_c, 0, 70, 64
2, 600, Note_off_c, 0, 70, 73
2, 600, Note_on_c, 0, 62, 64
2, 720, Note_off_c, 0, 62, 43
2, 720, Note_on_c, 0, 60, 64
2, 840, Note_off_c, 0, 60, 30
2, 840, Note_on_c, 0, 69, 64
2, 900, Note_off_c, 0, 69, 70
2, 900, Note_on_c, 0, 67, 64
2, 960, Note_off_c, 0, 67, 43
2, 960, Note_on_c, 0, 70, 64
2, 1020, Note_off_c, 0, 70, 70
2, 1020, Note_on_c, 0, 69, 64
2, 1080, Note_off_c, 0, 69, 66
2, 1080, Note_on_c, 0, 67, 64
2, 1140, Note_off_c, 0, 67, 45
2, 1140, Note_on_c, 0, 65, 64
2, 1200, Note_off_c, 0, 65, 46
2, 1200, Note_on_c, 0, 72, 64
2, 1320, Note_off_c, 0, 72, 73
2, 1320, Note_on_c, 0, 63, 64
2, 1440, Note_off_c, 0, 63, 52
2, 1440, Note_on_c, 0, 62, 64
2, 1560, Note_off_c, 0, 62, 46
2, 1560, Note_on_c, 0, 70, 64
2, 1620, Note_off_c, 0, 70, 73
2, 1620, Note_on_c, 0, 72, 64
2, 1680, Note_off_c, 0, 72, 76
2, 1680, Note_on_c, 0, 69, 64
2, 1740, Note_off_c, 0, 69, 61
2, 1740, Note_on_c, 0, 70, 64
2, 1800, Note_off_c, 0, 70, 80
2, 1800, Note_on_c, 0, 72, 64
2, 1860, Note_off_c, 0, 72, 73
2, 1860, Note_on_c, 0, 74, 64
2, 1920, Note_off_c, 0, 74, 66
2, 1920, Note_on_c, 0, 75, 64
2, 1980, Note_off_c, 0, 75, 53
2, 1980, Note_on_c, 0, 74, 64
2, 2040, Note_off_c, 0, 74, 66
2, 2040, Note_on_c, 0, 72, 64
2, 2100, Note_off_c, 0, 72, 65
2, 2100, Note_on_c, 0, 75, 64
2, 2160, Note_off_c, 0, 75, 52
2, 2160, Note_on_c, 0, 74, 64
2, 2220, Note_off_c, 0, 74, 72
2, 2220, Note_on_c, 0, 72, 64
2, 2280, Note_off_c, 0, 72, 74
2, 2280, Note_on_c, 0, 70, 64
2, 2340, Note_off_c, 0, 70, 72
2, 2340, Note_on_c, 0, 72, 64
2, 2400, Note_off_c, 0, 72, 72
2, 2400, Note_on_c, 0, 69, 64
2, 2460, Note_off_c, 0, 69, 58
2, 2460, Note_on_c, 0, 70, 64
2, 2520, Note_off_c, 0, 70, 80
2, 2520, Note_on_c, 0, 72, 64
2, 2580, Note_off_c, 0, 72, 72
2, 2580, Note_on_c, 0, 74, 64
2, 2640, Note_off_c, 0, 74, 61
2, 2640, Note_on_c, 0, 75, 64
2, 2700, Note_off_c, 0, 75, 59
2, 2700, Note_on_c, 0, 74, 64
2, 2760, Note_off_c, 0, 74, 57
2, 2760, Note_on_c, 0, 72, 64
2, 2820, Note_off_c, 0, 72, 63
2, 2820, Note_on_c, 0, 75, 64
2, 2880, Note_off_c, 0, 75, 50
2, 2880, Note_on_c, 0, 74, 64
2, 3060, Note_off_c, 0, 74, 58
2, 3060, Note_on_c, 0, 72, 64
2, 3120, Note_off_c, 0, 72, 73
2, 3120, Note_on_c, 0, 70, 64
2, 3180, Note_off_c, 0, 70, 66
2, 3180, Note_on_c, 0, 69, 64
2, 3240, Note_off_c, 0, 69, 52
2, 3240, Note_on_c, 0, 70, 64
2, 3300, Note_off_c, 0, 70, 62
2, 3300, Note_on_c, 0, 72, 64
2, 3360, Note_off_c, 0, 72, 74
2, 3360, Note_on_c, 0, 74, 64
2, 3480, Note_off_c, 0, 74, 57
2, 3480, Note_on_c, 0, 77, 64
2, 3720, Note_off_c, 0, 77, 47
2, 3720, Note_on_c, 0, 70, 64
2, 3840, Note_off_c, 0, 70, 59
2, 3840, Note_on_c, 0, 69, 64
2, 3960, Note_off_c, 0, 69, 55
2, 3960, Note_on_c, 0, 70, 64
2, 4080, Note_off_c, 0, 70, 66
2, 4080, Note_on_c, 0, 76, 64
2, 4200, Note_off_c, 0, 76, 58
2, 4200, Note_on_c, 0, 79, 64
2, 4440, Note_off_c, 0, 79, 68
2, 4440, Note_on_c, 0, 69, 64
2, 4500, Note_off_c, 0, 69, 65
2, 4500, Note_on_c, 0, 70, 64
2, 4560, Note_off_c, 0, 70, 61
2, 4560, Note_on_c, 0, 72, 64
2, 4680, Note_off_c, 0, 72, 63
2, 4680, Note_on_c, 0, 72, 64
2, 4800, Note_off_c, 0, 72, 72
2, 4800, Note_on_c, 0, 72, 64
2, 4920, Note_off_c, 0, 72, 65
2, 4920, Note_on_c, 0, 72, 64
2, 5040, Note_off_c, 0, 72, 66
2, 5040, Note_on_c, 0, 72, 64
2, 5100, Note_off_c, 0, 72, 79
2, 5100, Note_on_c, 0, 70, 64
2, 5160, Note_off_c, 0, 70, 65
2, 5160, Note_on_c, 0, 69, 64
2, 5220, Note_off_c, 0, 69, 55
2, 5220, Note_on_c, 0, 70, 64
2, 5280, Note_off_c, 0, 70, 55
2, 5280, Note_on_c, 0, 72, 64
2, 5400, Note_off_c, 0, 72, 65
2, 5400, Note_on_c, 0, 72, 64
2, 5520, Note_off_c, 0, 72, 68
2, 5520, Note_on_c, 0, 72, 64
2, 5640, Note_off_c, 0, 72, 70
2, 5640, Note_on_c, 0, 72, 64
2, 5760, Note_off_c, 0, 72, 63
2, 5760, Note_on_c, 0, 72, 64
2, 6000, Note_off_c, 0, 72, 79
2, 6300, Note_on_c, 0, 74, 64
2, 6360, Note_off_c, 0, 74, 70
2, 6420, Note_on_c, 0, 74, 64
2, 6480, Note_off_c, 0, 74, 70
2, 6480, Note_on_c, 0, 75, 64
2, 6600, Note_off_c, 0, 75, 55
2, 7020, Note_on_c, 0, 75, 64
2, 7080, Note_off_c, 0, 75, 52
2, 7140, Note_on_c, 0, 75, 64
2, 7200, Note_off_c, 0, 75, 49
2, 7200, Note_on_c, 0, 77, 64
2, 7320, Note_off_c, 0, 77, 70
2, 7560, Note_on_c, 0, 69, 64
2, 7620, Note_off_c, 0, 69, 63
2, 7620, Note_on_c, 0, 70, 64
2, 7680, Note_off_c, 0, 70, 74
2, 7680, Note_on_c, 0, 72, 64
2, 7740, Note_off_c, 0, 72, 79
2, 7740, Note_on_c, 0, 70, 64
2, 7800, Note_off_c, 0, 70, 73
2, 7800, Note_on_c, 0, 69, 64
2, 7860, Note_off_c, 0, 69, 63
2, 7860, Note_on_c, 0, 72, 64
2, 7920, Note_off_c, 0, 72, 69
2, 7920, Note_on_c, 0, 70, 64
2, 8160, Note_off_c, 0, 70, 62
2, 8280, Note_on_c, 0, 69, 64
2, 8340, Note_off_c, 0, 69, 59
2, 8340, Note_on_c, 0, 70, 64
2, 8400, Note_off_c, 0, 70, 73
2, 8400, Note_on_c, 0, 72, 64
2, 8460, Note_off_c, 0, 72, 69
2, 8460, Note_on_c, 0, 70, 64
2, 8520, Note_off_c, 0, 70, 69
2, 8520, Note_on_c, 0, 69, 64
2, 8580, Note_off_c, 0, 69, 57
2, 8580, Note_on_c, 0, 72, 64
2, 8640, Note_off_c, 0, 72, 68
2, 8640, Note_on_c, 0, 70, 64
2, 8760, Note_off_c, 0, 70, 72
2, 8760, Note_on_c, 0, 70, 64
2, 8880, Note_off_c, 0, 70, 59
2, 8880, Note_on_c, 0, 74, 64
2, 9000, Note_off_c, 0, 74, 70
2, 9000, Note_on_c, 0, 70, 64
2, 9120, Note_off_c, 0, 70, 69
2, 9120, Note_on_c, 0, 77, 64
2, 9240, Note_off_c, 0, 77, 70
2, 9240, Note_on_c, 0, 69, 64
2, 9360, Note_off_c, 0, 69, 69
2, 9360, Note_on_c, 0, 67, 64
2, 9480, Note_off_c, 0, 67, 42
2, 9480, Note_on_c, 0, 76, 64
2, 9540, Note_off_c, 0, 76, 49
2, 9540, Note_on_c, 0, 74, 64
2, 9600, Note_off_c, 0, 74, 66
2, 9600, Note_on_c, 0, 77, 64
2, 9660, Note_off_c, 0, 77, 41
2, 9660, Note_on_c, 0, 76, 64
2, 9720, Note_off_c, 0, 76, 49
2, 9720, Note_on_c, 0, 74, 64
2, 9780, Note_off_c, 0, 74, 63
2, 9780, Note_on_c, 0, 72, 64
2, 9840, Note_off_c, 0, 72, 55
2, 9840, Note_on_c, 0, 79, 64
2, 9960, Note_off_c, 0, 79, 63
2, 9960, Note_on_c, 0, 70, 64
2, 10080, Note_off_c, 0, 70, 61
2, 10080, Note_on_c, 0, 69, 64
2, 10200, Note_off_c, 0, 69, 45
2, 10200, Note_on_c, 0, 77, 64
2, 10260, Note_off_c, 0, 77, 72
2, 10260, Note_on_c, 0, 79, 64
2, 10320, Note_off_c, 0, 79, 58
2, 10320, Note_on_c, 0, 76, 64
2, 10380, Note_off_c, 0, 76, 46
2, 10380, Note_on_c, 0, 77, 64
2, 10440, Note_off_c, 0, 77, 68
2, 10440, Note_on_c, 0, 79, 64
2, 10500, Note_off_c, 0, 79, 69
2, 10500, Note_on_c, 0, 81, 64
2, 10560, Note_off_c, 0, 81, 70
2, 10560, Note_on_c, 0, 82, 64
2, 10620, Note_off_c, 0, 82, 68
2, 10620, Note_on_c, 0, 81, 64
2, 10680, Note_off_c, 0, 81, 62
2, 10680, Note_on_c, 0, 79, 64
2, 10740, Note_off_c, 0, 79, 58
2, 10740, Note_on_c, 0, 82, 64
2, 10800, Note_off_c, 0, 82, 66
2, 10800, Note_on_c, 0, 81, 64
2, 10860, Note_off_c, 0, 81, 65
2, 10860, Note_on_c, 0, 79, 64
2, 10920, Note_off_c, 0, 79, 61
2, 10920, Note_on_c, 0, 77, 64
2, 10980, Note_off_c, 0, 77, 58
2, 10980, Note_on_c, 0, 79, 64
2, 11040, Note_off_c, 0, 79, 61
2, 11040, Note_on_c, 0, 76, 64
2, 11100, Note_off_c, 0, 76, 44
2, 11100, Note_on_c, 0, 77, 64
2, 11160, Note_off_c, 0, 77, 54
2, 11160, Note_on_c, 0, 79, 64
2, 11220, Note_off_c, 0, 79, 53
2, 11220, Note_on_c, 0, 81, 64
2, 11280, Note_off_c, 0, 81, 68
2, 11280, Note_on_c, 0, 82, 64
2, 11340, Note_off_c, 0, 82, 59
2, 11340, Note_on_c, 0, 81, 64
2, 11400, Note_off_c, 0, 81, 59
2, 11400, Note_on_c, 0, 79, 64
2, 11460, Note_off_c, 0, 79, 54
2, 11460, Note_on_c, 0, 82, 64
2, 11520, Note_off_c, 0, 82, 70
2, 11520, Note_on_c, 0, 81, 64
2, 11580, Note_off_c, 0, 81, 65
2, 11580, Note_on_c, 0, 82, 64
2, 11640, Note_off_c, 0, 82, 63
2, 11640, Note_on_c, 0, 81, 64
2, 11700, Note_off_c, 0, 81, 52
2, 11700, Note_on_c, 0, 79, 64
2, 11760, Note_off_c, 0, 79, 70
2, 11760, Note_on_c, 0, 78, 64
2, 11820, Note_off_c, 0, 78, 66
2, 11820, Note_on_c, 0, 79, 64
2, 11880, Note_off_c, 0, 79, 57
2, 11880, Note_on_c, 0, 81, 64
2, 11940, Note_off_c, 0, 81, 68
2, 11940, Note_on_c, 0, 82, 64
2, 12000, Note_off_c, 0, 82, 66
2, 12000, Note_on_c, 0, 84, 64
2, 12060, Note_off_c, 0, 84, 65
2, 12060, Note_on_c, 0, 82, 64
2, 12120, Note_off_c, 0, 82, 66
2, 12120, Note_on_c, 0, 81, 64
2, 12180, Note_off_c, 0, 81, 53
2, 12180, Note_on_c, 0, 84, 64
2, 12240, Note_off_c, 0, 84, 66
2, 12240, Note_on_c, 0, 82, 64
2, 12300, Note_off_c, 0, 82, 70
2, 12300, Note_on_c, 0, 81, 64
2, 12360, Note_off_c, 0, 81, 59
2, 12360, Note_on_c, 0, 79, 64
2, 12420, Note_off_c, 0, 79, 50
2, 12420, Note_on_c, 0, 81, 64
2, 12480, Note_off_c, 0, 81, 49
2, 12480, Note_on_c, 0, 78, 64
2, 12540, Note_off_c, 0, 78, 73
2, 12540, Note_on_c, 0, 79, 64
2, 12600, Note_off_c, 0, 79, 62
2, 12600, Note_on_c, 0, 81, 64
2, 12660, Note_off_c, 0, 81, 65
2, 12660, Note_on_c, 0, 82, 64
2, 12720, Note_off_c, 0, 82, 65
2, 12720, Note_on_c, 0, 84, 64
2, 12780, Note_off_c, 0, 84, 61
2, 12780, Note_on_c, 0, 82, 64
2, 12840, Note_off_c, 0, 82, 68
2, 12840, Note_on_c, 0, 81, 64
2, 12900, Note_off_c, 0, 81, 53
2, 12900, Note_on_c, 0, 84, 64
2, 12960, Note_off_c, 0, 84, 59
2, 12960, Note_on_c, 0, 82, 64
2, 13020, Note_off_c, 0, 82, 61
2, 13020, Note_on_c, 0, 81, 64
2, 13080, Note_off_c, 0, 81, 61
2, 13080, Note_on_c, 0, 79, 64
2, 13140, Note_off_c, 0, 79, 61
2, 13140, Note_on_c, 0, 77, 64
2, 13200, Note_off_c, 0, 77, 62
2, 13200, Note_on_c, 0, 75, 64
2, 13260, Note_off_c, 0, 75, 51
2, 13260, Note_on_c, 0, 77, 64
2, 13320, Note_off_c, 0, 77, 63
2, 13320, Note_on_c, 0, 79, 64
2, 13380, Note_off_c, 0, 79, 57
2, 13380, Note_on_c, 0, 81, 64
2, 13440, Note_off_c, 0, 81, 63
2, 13440, Note_on_c, 0, 82, 64
2, 13500, Note_off_c, 0, 82, 77
2, 13500, Note_on_c, 0, 81, 64
2, 13560, Note_off_c, 0, 81, 52
2, 13560, Note_on_c, 0, 79, 64
2, 13620, Note_off_c, 0, 79, 53
2, 13620, Note_on_c, 0, 82, 64
2, 13680, Note_off_c, 0, 82, 68
2, 13680, Note_on_c, 0, 81, 64
2, 13740, Note_off_c, 0, 81, 63
2, 13740, Note_on_c, 0, 79, 64
2, 13800, Note_off_c, 0, 79, 53
2, 13800, Note_on_c, 0, 77, 64
2, 13860, Note_off_c, 0, 77, 65
2, 13860, Note_on_c, 0, 75, 64
2, 13920, Note_off_c, 0, 75, 52
2, 13920, Note_on_c, 0, 74, 64
2, 13980, Note_off_c, 0, 74, 68
2, 13980, Note_on_c, 0, 75, 64
2, 14040, Note_off_c, 0, 75, 49
2, 14040, Note_on_c, 0, 77, 64
2, 14100, Note_off_c, 0, 77, 58
2, 14100, Note_on_c, 0, 79, 64
2, 14160, Note_off_c, 0, 79, 69
2, 14160, Note_on_c, 0, 81, 64
2, 14220, Note_off_c, 0, 81, 53
2, 14220, Note_on_c, 0, 79, 64
2, 14280, Note_off_c, 0, 79, 62
2, 14280, Note_on_c, 0, 77, 64
2, 14340, Note_off_c, 0, 77, 62
2, 14340, Note_on_c, 0, 81, 64
2, 14400, Note_off_c, 0, 81, 52
2, 14400, Note_on_c, 0, 79, 64
2, 14460, Note_off_c, 0, 79, 65
2, 14460, Note_on_c, 0, 77, 64
2, 14520, Note_off_c, 0, 77, 66
2, 14520, Note_on_c, 0, 75, 64
2, 14580, Note_off_c, 0, 75, 47
2, 14580, Note_on_c, 0, 74, 64
2, 14640, Note_off_c, 0, 74, 70
2, 14640, Note_on_c, 0, 72, 64
2, 14700, Note_off_c, 0, 72, 68
2, 14700, Note_on_c, 0, 74, 64
2, 14760, Note_off_c, 0, 74, 54
2, 14760, Note_on_c, 0, 75, 64
2, 14820, Note_off_c, 0, 75, 54
2, 14820, Note_on_c, 0, 77, 64
2, 14880, Note_off_c, 0, 77, 70
2, 14880, Note_on_c, 0, 79, 64
2, 14940, Note_off_c, 0, 79, 59
2, 14940, Note_on_c, 0, 78, 64
2, 15000, Note_off_c, 0, 78, 69
2, 15000, Note_on_c, 0, 76, 64
2, 15060, Note_off_c, 0, 76, 54
2, 15060, Note_on_c, 0, 79, 64
2, 15120, Note_off_c, 0, 79, 63
2, 15120, Note_on_c, 0, 78, 64
2, 15180, Note_off_c, 0, 78, 63
2, 15180, Note_on_c, 0, 76, 64
2, 15240, Note_off_c, 0, 76, 54
2, 15240, Note_on_c, 0, 74, 64
2, 15300, Note_off_c, 0, 74, 54
2, 15300, Note_on_c, 0, 72, 64
2, 15360, Note_off_c, 0, 72, 68
2, 15360, Note_on_c, 0, 70, 64
2, 15420, Note_off_c, 0, 70, 66
2, 15420, Note_on_c, 0, 69, 64
2, 15480, Note_off_c, 0, 69, 57
2, 15480, Note_on_c, 0, 70, 64
2, 15540, Note_off_c, 0, 70, 62
2, 15540, Note_on_c, 0, 72, 64
2, 15600, Note_off_c, 0, 72, 66
2, 15600, Note_on_c, 0, 74, 64
2, 15720, Note_off_c, 0, 74, 61
2, 15720, Note_on_c, 0, 79, 64
2, 15960, Note_off_c, 0, 79, 69
2, 15960, Note_on_c, 0, 72, 64
2, 16080, Note_off_c, 0, 72, 80
2, 16080, Note_on_c, 0, 70, 64
2, 16200, Note_off_c, 0, 70, 52
2, 16200, Note_on_c, 0, 72, 64
2, 16320, Note_off_c, 0, 72, 79
2, 16320, Note_on_c, 0, 78, 64
2, 16440, Note_off_c, 0, 78, 55
2, 16440, Note_on_c, 0, 81, 64
2, 16680, Note_off_c, 0, 81, 65
2, 16680, Note_on_c, 0, 70, 64
2, 16740, Note_off_c, 0, 70, 59
2, 16740, Note_on_c, 0, 72, 64
2, 16800, Note_off_c, 0, 72, 68
2, 16800, Note_on_c, 0, 74, 64
2, 16920, Note_off_c, 0, 74, 69
2, 16920, Note_on_c, 0, 74, 64
2, 17040, Note_off_c, 0, 74, 69
2, 17040, Note_on_c, 0, 74, 64
2, 17160, Note_off_c, 0, 74, 68
2, 17160, Note_on_c, 0, 74, 64
2, 17280, Note_off_c, 0, 74, 68
2, 17280, Note_on_c, 0, 74, 64
2, 17340, Note_off_c, 0, 74, 70
2, 17340, Note_on_c, 0, 72, 64
2, 17400, Note_off_c, 0, 72, 77
2, 17400, Note_on_c, 0, 70, 64
2, 17460, Note_off_c, 0, 70, 66
2, 17460, Note_on_c, 0, 72, 64
2, 17520, Note_off_c, 0, 72, 80
2, 17520, Note_on_c, 0, 74, 64
2, 17640, Note_off_c, 0, 74, 70
2, 17640, Note_on_c, 0, 74, 64
2, 17760, Note_off_c, 0, 74, 69
2, 17760, Note_on_c, 0, 74, 64
2, 17880, Note_off_c, 0, 74, 72
2, 17880, Note_on_c, 0, 74, 64
2, 18000, Note_off_c, 0, 74, 68
2, 18000, Note_on_c, 0, 74, 64
2, 18120, Note_off_c, 0, 74, 70
2, 18540, Note_on_c, 0, 75, 64
2, 18600, Note_off_c, 0, 75, 58
2, 18660, Note_on_c, 0, 75, 64
2, 18720, Note_off_c, 0, 75, 51
2, 18720, Note_on_c, 0, 77, 64
2, 18840, Note_off_c, 0, 77, 66
2, 19260, Note_on_c, 0, 77, 64
2, 19320, Note_off_c, 0, 77, 63
2, 19380, Note_on_c, 0, 77, 64
2, 19440, Note_off_c, 0, 77, 72
2, 19440, Note_on_c, 0, 79, 64
2, 19560, Note_off_c, 0, 79, 68
2, 19800, Note_on_c, 0, 71, 64
2, 19860, Note_off_c, 0, 71, 58
2, 19860, Note_on_c, 0, 72, 64
2, 19920, Note_off_c, 0, 72, 63
2, 19920, Note_on_c, 0, 74, 64
2, 19980, Note_off_c, 0, 74, 61
2, 19980, Note_on_c, 0, 72, 64
2, 20040, Note_off_c, 0, 72, 69
2, 20040, Note_on_c, 0, 71, 64
2, 20100, Note_off_c, 0, 71, 58
2, 20100, Note_on_c, 0, 74, 64
2, 20160, Note_off_c, 0, 74, 63
2, 20160, Note_on_c, 0, 72, 64
2, 20280, Note_off_c, 0, 72, 70
2, 20520, Note_on_c, 0, 71, 64
2, 20580, Note_off_c, 0, 71, 52
2, 20580, Note_on_c, 0, 72, 64
2, 20640, Note_off_c, 0, 72, 63
2, 20640, Note_on_c, 0, 74, 64
2, 20700, Note_off_c, 0, 74, 66
2, 20700, Note_on_c, 0, 72, 64
2, 20760, Note_off_c, 0, 72, 68
2, 20760, Note_on_c, 0, 71, 64
2, 20820, Note_off_c, 0, 71, 52
2, 20820, Note_on_c, 0, 74, 64
2, 20880, Note_off_c, 0, 74, 61
2, 20880, Note_on_c, 0, 72, 64
2, 21000, Note_off_c, 0, 72, 61
2, 21000, Note_on_c, 0, 75, 64
2, 21120, Note_off_c, 0, 75, 52
2, 21120, Note_on_c, 0, 74, 64
2, 21240, Note_off_c, 0, 74, 58
2, 21240, Note_on_c, 0, 75, 64
2, 21360, Note_off_c, 0, 75, 54
2, 21360, Note_on_c, 0, 72, 64
2, 21480, Note_off_c, 0, 72, 53
2, 21480, Note_on_c, 0, 81, 64
2, 21600, Note_off_c, 0, 81, 63
2, 21600, Note_on_c, 0, 82, 64
2, 21720, Note_off_c, 0, 82, 65
2, 21720, Note_on_c, 0, 74, 64
2, 21840, Note_off_c, 0, 74, 59
2, 21840, Note_on_c, 0, 72, 64
2, 21960, Note_off_c, 0, 72, 61
2, 21960, Note_on_c, 0, 74, 64
2, 22080, Note_off_c, 0, 74, 74
2, 22080, Note_on_c, 0, 70, 64
2, 22200, Note_off_c, 0, 70, 66
2, 22200, Note_on_c, 0, 79, 64
2, 22320, Note_off_c, 0, 79, 55
2, 22320, Note_on_c, 0, 81, 64
2, 22440, Note_off_c, 0, 81, 61
2, 22440, Note_on_c, 0, 72, 64
2, 22560, Note_off_c, 0, 72, 74
2, 22560, Note_on_c, 0, 70, 64
2, 22680, Note_off_c, 0, 70, 65
2, 22680, Note_on_c, 0, 72, 64
2, 22800, Note_off_c, 0, 72, 80
2, 22800, Note_on_c, 0, 69, 64
2, 22920, Note_off_c, 0, 69, 57
2, 22920, Note_on_c, 0, 78, 64
2, 23040, Note_off_c, 0, 78, 66
2, 23040, Note_on_c, 0, 79, 64
2, 23100, Note_off_c, 0, 79, 59
2, 23100, Note_on_c, 0, 77, 64
2, 23160, Note_off_c, 0, 77, 62
2, 23160, Note_on_c, 0, 76, 64
2, 23220, Note_off_c, 0, 76, 49
2, 23220, Note_on_c, 0, 74, 64
2, 23280, Note_off_c, 0, 74, 74
2, 23280, Note_on_c, 0, 73, 64
2, 23340, Note_off_c, 0, 73, 65
2, 23340, Note_on_c, 0, 74, 64
2, 23400, Note_off_c, 0, 74, 58
2, 23400, Note_on_c, 0, 76, 64
2, 23460, Note_off_c, 0, 76, 47
2, 23460, Note_on_c, 0, 77, 64
2, 23520, Note_off_c, 0, 77, 73
2, 23520, Note_on_c, 0, 79, 64
2, 23580, Note_off_c, 0, 79, 57
2, 23580, Note_on_c, 0, 77, 64
2, 23640, Note_off_c, 0, 77, 68
2, 23640, Note_on_c, 0, 76, 64
2, 23700, Note_off_c, 0, 76, 54
2, 23700, Note_on_c, 0, 79, 64
2, 23760, Note_off_c, 0, 79, 52
2, 23760, Note_on_c, 0, 77, 64
2, 23820, Note_off_c, 0, 77, 66
2, 23820, Note_on_c, 0, 75, 64
2, 23880, Note_off_c, 0, 75, 57
2, 23880, Note_on_c, 0, 74, 64
2, 23940, Note_off_c, 0, 74, 54
2, 23940, Note_on_c, 0, 72, 64
2, 24000, Note_off_c, 0, 72, 66
2, 24000, Note_on_c, 0, 71, 64
2, 24060, Note_off_c, 0, 71, 69
2, 24060, Note_on_c, 0, 72, 64
2, 24120, Note_off_c, 0, 72, 59
2, 24120, Note_on_c, 0, 74, 64
2, 24180, Note_off_c, 0, 74, 59
2, 24180, Note_on_c, 0, 75, 64
2, 24240, Note_off_c, 0, 75, 53
2, 24240, Note_on_c, 0, 77, 64
2, 24300, Note_off_c, 0, 77, 65
2, 24300, Note_on_c, 0, 75, 64
2, 24360, Note_off_c, 0, 75, 54
2, 24360, Note_on_c, 0, 74, 64
2, 24420, Note_off_c, 0, 74, 61
2, 24420, Note_on_c, 0, 77, 64
2, 24480, Note_off_c, 0, 77, 66
2, 24480, Note_on_c, 0, 75, 64
2, 24540, Note_off_c, 0, 75, 52
2, 24540, Note_on_c, 0, 72, 64
2, 24600, Note_off_c, 0, 72, 61
2, 24600, Note_on_c, 0, 71, 64
2, 24660, Note_off_c, 0, 71, 69
2, 24660, Note_on_c, 0, 69, 64
2, 24720, Note_off_c, 0, 69, 58
2, 24720, Note_on_c, 0, 67, 64
2, 24780, Note_off_c, 0, 67, 46
2, 24780, Note_on_c, 0, 65, 64
2, 24840, Note_off_c, 0, 65, 5
2, 24840, Note_on_c, 0, 67, 64
2, 24900, Note_off_c, 0, 67, 32
2, 24900, Note_on_c, 0, 72, 64
2, 24960, Note_off_c, 0, 72, 68
2, 24960, Note_on_c, 0, 75, 64
2, 25320, Note_off_c, 0, 75, 55
2, 25320, Note_on_c, 0, 68, 64
2, 25440, Note_off_c, 0, 68, 50
2, 25440, Note_on_c, 0, 67, 64
2, 25560, Note_off_c, 0, 67, 31
2, 25560, Note_on_c, 0, 68, 64
2, 25680, Note_off_c, 0, 68, 80
2, 25680, Note_on_c, 0, 74, 64
2, 25800, Note_off_c, 0, 74, 61
2, 25800, Note_on_c, 0, 77, 64
2, 26040, Note_off_c, 0, 77, 73
2, 26040, Note_on_c, 0, 70, 64
2, 26160, Note_off_c, 0, 70, 58
2, 26160, Note_on_c, 0, 72, 64
2, 26280, Note_off_c, 0, 72, 74
2, 26280, Note_on_c, 0, 70, 64
2, 26400, Note_off_c, 0, 70, 69
2, 26400, Note_on_c, 0, 75, 64
2, 26520, Note_off_c, 0, 75, 54
2, 26520, Note_on_c, 0, 67, 64
2, 26640, Note_off_c, 0, 67, 45
2, 26640, Note_on_c, 0, 65, 64
2, 26760, Note_off_c, 0, 65, 34
2, 26760, Note_on_c, 0, 74, 64
2, 26820, Note_off_c, 0, 74, 52
2, 26820, Note_on_c, 0, 72, 64
2, 26880, Note_off_c, 0, 72, 83
2, 26880, Note_on_c, 0, 75, 64
2, 26940, Note_off_c, 0, 75, 61
2, 26940, Note_on_c, 0, 74, 64
2, 27000, Note_off_c, 0, 74, 66
2, 27000, Note_on_c, 0, 72, 64
2, 27060, Note_off_c, 0, 72, 80
2, 27060, Note_on_c, 0, 70, 64
2, 27120, Note_off_c, 0, 70, 69
2, 27120, Note_on_c, 0, 77, 64
2, 27240, Note_off_c, 0, 77, 70
2, 27240, Note_on_c, 0, 68, 64
2, 27360, Note_off_c, 0, 68, 68
2, 27360, Note_on_c, 0, 67, 64
2, 27480, Note_off_c, 0, 67, 41
2, 27480, Note_on_c, 0, 75, 64
2, 27540, Note_off_c, 0, 75, 51
2, 27540, Note_on_c, 0, 77, 64
2, 27600, Note_off_c, 0, 77, 63
2, 27600, Note_on_c, 0, 74, 64
2, 27660, Note_off_c, 0, 74, 53
2, 27660, Note_on_c, 0, 75, 64
2, 27720, Note_off_c, 0, 75, 68
2, 27720, Note_on_c, 0, 77, 64
2, 27780, Note_off_c, 0, 77, 62
2, 27780, Note_on_c, 0, 79, 64
2, 27840, Note_off_c, 0, 79, 68
2, 27840, Note_on_c, 0, 80, 64
2, 27900, Note_off_c, 0, 80, 76
2, 27900, Note_on_c, 0, 79, 64
2, 27960, Note_off_c, 0, 79, 66
2, 27960, Note_on_c, 0, 77, 64
2, 28020, Note_off_c, 0, 77, 62
2, 28020, Note_on_c, 0, 80, 64
2, 28080, Note_off_c, 0, 80, 66
2, 28080, Note_on_c, 0, 79, 64
2, 28140, Note_off_c, 0, 79, 59
2, 28140, Note_on_c, 0, 77, 64
2, 28200, Note_off_c, 0, 77, 70
2, 28200, Note_on_c, 0, 75, 64
2, 28260, Note_off_c, 0, 75, 49
2, 28260, Note_on_c, 0, 79, 64
2, 28320, Note_off_c, 0, 79, 55
2, 28320, Note_on_c, 0, 74, 64
2, 28380, Note_off_c, 0, 74, 62
2, 28380, Note_on_c, 0, 75, 64
2, 28440, Note_off_c, 0, 75, 49
2, 28440, Note_on_c, 0, 77, 64
2, 28500, Note_off_c, 0, 77, 72
2, 28500, Note_on_c, 0, 79, 64
2, 28560, Note_off_c, 0, 79, 70
2, 28560, Note_on_c, 0, 80, 64
2, 28620, Note_off_c, 0, 80, 77
2, 28620, Note_on_c, 0, 79, 64
2, 28680, Note_off_c, 0, 79, 63
2, 28680, Note_on_c, 0, 77, 64
2, 28740, Note_off_c, 0, 77, 59
2, 28740, Note_on_c, 0, 80, 64
2, 28800, Note_off_c, 0, 80, 72
2, 28800, Note_on_c, 0, 79, 64
2, 28980, Note_off_c, 0, 79, 54
2, 28980, Note_on_c, 0, 77, 64
2, 29040, Note_off_c, 0, 77, 69
2, 29040, Note_on_c, 0, 75, 64
2, 29100, Note_off_c, 0, 75, 52
2, 29100, Note_on_c, 0, 74, 64
2, 29160, Note_off_c, 0, 74, 61
2, 29160, Note_on_c, 0, 75, 64
2, 29220, Note_off_c, 0, 75, 52
2, 29220, Note_on_c, 0, 77, 64
2, 29280, Note_off_c, 0, 77, 61
2, 29280, Note_on_c, 0, 79, 64
2, 29400, Note_off_c, 0, 79, 63
2, 29400, Note_on_c, 0, 82, 64
2, 29640, Note_off_c, 0, 82, 68
2, 29640, Note_on_c, 0, 75, 64
2, 29760, Note_off_c, 0, 75, 48
2, 29760, Note_on_c, 0, 74, 64
2, 29880, Note_off_c, 0, 74, 65
2, 29880, Note_on_c, 0, 75, 64
2, 30000, Note_off_c, 0, 75, 69
2, 30000, Note_on_c, 0, 81, 64
2, 30120, Note_off_c, 0, 81, 66
2, 30120, Note_on_c, 0, 84, 64
2, 30360, Note_off_c, 0, 84, 66
2, 30360, Note_on_c, 0, 74, 64
2, 30420, Note_off_c, 0, 74, 58
2, 30420, Note_on_c, 0, 75, 64
2, 30480, Note_off_c, 0, 75, 49
2, 30480, Note_on_c, 0, 77, 64
2, 30600, Note_off_c, 0, 77, 73
2, 30600, Note_on_c, 0, 77, 64
2, 30720, Note_off_c, 0, 77, 66
2, 30720, Note_on_c, 0, 77, 64
2, 30840, Note_off_c, 0, 77, 57
2, 30840, Note_on_c, 0, 77, 64
2, 30960, Note_off_c, 0, 77, 69
2, 30960, Note_on_c, 0, 77, 64
2, 31020, Note_off_c, 0, 77, 73
2, 31020, Note_on_c, 0, 75, 64
2, 31080, Note_off_c, 0, 75, 54
2, 31080, Note_on_c, 0, 74, 64
2, 31140, Note_off_c, 0, 74, 54
2, 31140, Note_on_c, 0, 75, 64
2, 31200, Note_off_c, 0, 75, 57
2, 31200, Note_on_c, 0, 77, 64
2, 31320, Note_off_c, 0, 77, 52
2, 31320, Note_on_c, 0, 77, 64
2, 31440, Note_off_c, 0, 77, 74
2, 31440, Note_on_c, 0, 77, 64
2, 31560, Note_off_c, 0, 77, 66
2, 31560, Note_on_c, 0, 77, 64
2, 31680, Note_off_c, 0, 77, 63
2, 31680, Note_on_c, 0, 77, 64
2, 31800, Note_off_c, 0, 77, 62
2, 32040, Note_on_c, 0, 69, 64
2, 32100, Note_off_c, 0, 69, 48
2, 32100, Note_on_c, 0, 70, 64
2, 32160, Note_off_c, 0, 70, 57
2, 32160, Note_on_c, 0, 72, 64
2, 32220, Note_off_c, 0, 72, 73
2, 32220, Note_on_c, 0, 70, 64
2, 32280, Note_off_c, 0, 70, 58
2, 32280, Note_on_c, 0, 69, 64
2, 32340, Note_off_c, 0, 69, 46
2, 32340, Note_on_c, 0, 72, 64
2, 32400, Note_off_c, 0, 72, 65
2, 32400, Note_on_c, 0, 70, 64
2, 32520, Note_off_c, 0, 70, 53
2, 32760, Note_on_c, 0, 69, 64
2, 32820, Note_off_c, 0, 69, 59
2, 32820, Note_on_c, 0, 70, 64
2, 32880, Note_off_c, 0, 70, 66
2, 32880, Note_on_c, 0, 72, 64
2, 32940, Note_off_c, 0, 72, 73
2, 32940, Note_on_c, 0, 70, 64
2, 33000, Note_off_c, 0, 70, 65
2, 33000, Note_on_c, 0, 69, 64
2, 33060, Note_off_c, 0, 69, 47
2, 33060, Note_on_c, 0, 72, 64
2, 33120, Note_off_c, 0, 72, 80
2, 33120, Note_on_c, 0, 70, 64
2, 33240, Note_off_c, 0, 70, 61
2, 33240, Note_on_c, 0, 79, 64
2, 33360, Note_off_c, 0, 79, 61
2, 33360, Note_on_c, 0, 74, 64
2, 33600, Note_off_c, 0, 74, 63
2, 33600, Note_on_c, 0, 72, 64
2, 33840, Note_off_c, 0, 72, 70
2, 33840, Note_on_c, 0, 70, 64
2, 34560, Note_off_c, 0, 70, 76
2, 34560, End_track
3, 0, Start_track
3, 3000, Note_on_c, 1, 58, 64
3, 3120, Note_off_c, 1, 58, 68
3, 3120, Note_on_c, 1, 62, 64
3, 3240, Note_off_c, 1, 62, 50
3, 3240, Note_on_c, 1, 58, 64
3, 3360, Note_off_c, 1, 58, 61
3, 3360, Note_on_c, 1, 65, 64
3, 3480, Note_off_c, 1, 65, 1
3, 3480, Note_on_c, 1, 57, 64
3, 3600, Note_off_c, 1, 57, 47
3, 3600, Note_on_c, 1, 55, 64
3, 3720, Note_off_c, 1, 55, 33
3, 3720, Note_on_c, 1, 64, 64
3, 3780, Note_off_c, 1, 64, 53
3, 3780, Note_on_c, 1, 62, 64
3, 3840, Note_off_c, 1, 62, 52
3, 3840, Note_on_c, 1, 65, 64
3, 3900, Note_off_c, 1, 65, 54
3, 3900, Note_on_c, 1, 64, 64
3, 3960, Note_off_c, 1, 64, 49
3, 3960, Note_on_c, 1, 62, 64
3, 4020, Note_off_c, 1, 62, 52
3, 4020, Note_on_c, 1, 60, 64
3, 4080, Note_off_c, 1, 60, 33
3, 4080, Note_on_c, 1, 67, 64
3, 4200, Note_off_c, 1, 67, 58
3, 4200, Note_on_c, 1, 58, 64
3, 4320, Note_off_c, 1, 58, 54
3, 4320, Note_on_c, 1, 57, 64
3, 4440, Note_off_c, 1, 57, 30
3, 4440, Note_on_c, 1, 65, 64
3, 4500, Note_off_c, 1, 65, 63
3, 4500, Note_on_c, 1, 67, 64
3, 4560, Note_off_c, 1, 67, 48
3, 4560, Note_on_c, 1, 64, 64
3, 4620, Note_off_c, 1, 64, 46
3, 4620, Note_on_c, 1, 65, 64
3, 4680, Note_off_c, 1, 65, 59
3, 4680, Note_on_c, 1, 67, 64
3, 4740, Note_off_c, 1, 67, 51
3, 4740, Note_on_c, 1, 69, 64
3, 4800, Note_off_c, 1, 69, 59
3, 4800, Note_on_c, 1, 70, 64
3, 4860, Note_off_c, 1, 70, 73
3, 4860, Note_on_c, 1, 69, 64
3, 4920, Note_off_c, 1, 69, 66
3, 4920, Note_on_c, 1, 67, 64
3, 4980, Note_off_c, 1, 67, 46
3, 4980, Note_on_c, 1, 70, 64
3, 5040, Note_off_c, 1, 70, 68
3, 5040, Note_on_c, 1, 69, 64
3, 5100, Note_off_c, 1, 69, 72
3, 5100, Note_on_c, 1, 67, 64
3, 5160, Note_off_c, 1, 67, 52
3, 5160, Note_on_c, 1, 65, 64
3, 5220, Note_off_c, 1, 65, 28
3, 5220, Note_on_c, 1, 67, 64
3, 5280, Note_off_c, 1, 67, 45
3, 5280, Note_on_c, 1, 64, 64
3, 5340, Note_off_c, 1, 64, 21
3, 5340, Note_on_c, 1, 65, 64
3, 5400, Note_off_c, 1, 65, 58
3, 5400, Note_on_c, 1, 67, 64
3, 5460, Note_off_c, 1, 67, 57
3, 5460, Note_on_c, 1, 69, 64
3, 5520, Note_off_c, 1, 69, 77
3, 5520, Note_on_c, 1, 70, 64
3, 5580, Note_off_c, 1, 70, 72
3, 5580, Note_on_c, 1, 69, 64
3, 5640, Note_off_c, 1, 69, 70
3, 5640, Note_on_c, 1, 67, 64
3, 5700, Note_off_c, 1, 67, 43
3, 5700, Note_on_c, 1, 70, 64
3, 5760, Note_off_c, 1, 70, 55
3, 5760, Note_on_c, 1, 69, 64
3, 5940, Note_off_c, 1, 69, 68
3, 5940, Note_on_c, 1, 67, 64
3, 6000, Note_off_c, 1, 67, 43
3, 6000, Note_on_c, 1, 65, 64
3, 6060, Note_off_c, 1, 65, 62
3, 6060, Note_on_c, 1, 63, 64
3, 6120, Note_off_c, 1, 63, 47
3, 6120, Note_on_c, 1, 62, 64
3, 6180, Note_off_c, 1, 62, 40
3, 6180, Note_on_c, 1, 63, 64
3, 6240, Note_off_c, 1, 63, 49
3, 6240, Note_on_c, 1, 65, 64
3, 6360, Note_off_c, 1, 65, 54
3, 6360, Note_on_c, 1, 70, 64
3, 6600, Note_off_c, 1, 70, 72
3, 6600, Note_on_c, 1, 63, 64
3, 6720, Note_off_c, 1, 63, 47
3, 6720, Note_on_c, 1, 62, 64
3, 6840, Note_off_c, 1, 62, 49
3, 6840, Note_on_c, 1, 63, 64
3, 6960, Note_off_c, 1, 63, 55
3, 6960, Note_on_c, 1, 69, 64
3, 7080, Note_off_c, 1, 69, 72
3, 7080, Note_on_c, 1, 72, 64
3, 7320, Note_off_c, 1, 72, 82
3, 7320, Note_on_c, 1, 62, 64
3, 7380, Note_off_c, 1, 62, 47
3, 7380, Note_on_c, 1, 63, 64
3, 7440, Note_off_c, 1, 63, 48
3, 7440, Note_on_c, 1, 65, 64
3, 7560, Note_off_c, 1, 65, 72
3, 7560, Note_on_c, 1, 65, 64
3, 7680, Note_off_c, 1, 65, 58
3, 7680, Note_on_c, 1, 65, 64
3, 7800, Note_off_c, 1, 65, 63
3, 7800, Note_on_c, 1, 65, 64
3, 7920, Note_off_c, 1, 65, 66
3, 7920, Note_on_c, 1, 65, 64
3, 7980, Note_off_c, 1, 65, 73
3, 7980, Note_on_c, 1, 63, 64
3, 8040, Note_off_c, 1, 63, 51
3, 8040, Note_on_c, 1, 62, 64
3, 8100, Note_off_c, 1, 62, 40
3, 8100, Note_on_c, 1, 63, 64
3, 8160, Note_off_c, 1, 63, 46
3, 8160, Note_on_c, 1, 65, 64
3, 8280, Note_off_c, 1, 65, 66
3, 8280, Note_on_c, 1, 65, 64
3, 8400, Note_off_c, 1, 65, 70
3, 8400, Note_on_c, 1, 65, 64
3, 8520, Note_off_c, 1, 65, 66
3, 8520, Note_on_c, 1, 65, 64
3, 8640, Note_off_c, 1, 65, 63
3, 8640, Note_on_c, 1, 65, 64
3, 8880, Note_off_c, 1, 65, 68
3, 9180, Note_on_c, 1, 57, 64
3, 9240, Note_off_c, 1, 57, 49
3, 9300, Note_on_c, 1, 57, 64
3, 9360, Note_off_c, 1, 57, 40
3, 9360, Note_on_c, 1, 58, 64
3, 9480, Note_off_c, 1, 58, 59
3, 9900, Note_on_c, 1, 58, 64
3, 9960, Note_off_c, 1, 58, 62
3, 10020, Note_on_c, 1, 58, 64
3, 10080, Note_off_c, 1, 58, 53
3, 10080, Note_on_c, 1, 60, 64
3, 10200, Note_off_c, 1, 60, 58
3, 10440, Note_on_c, 1, 52, 64
3, 10500, Note_off_c, 1, 52, 55
3, 10500, Note_on_c, 1, 53, 64
3, 10560, Note_off_c, 1, 53, 62
3, 10560, Note_on_c, 1, 55, 64
3, 10620, Note_off_c, 1, 55, 69
3, 10620, Note_on_c, 1, 53, 64
3, 10680, Note_off_c, 1, 53, 55
3, 10680, Note_on_c, 1, 52, 64
3, 10740, Note_off_c, 1, 52, 49
3, 10740, Note_on_c, 1, 55, 64
3, 10800, Note_off_c, 1, 55, 55
3, 10800, Note_on_c, 1, 53, 64
3, 10920, Note_off_c, 1, 53, 52
3, 11160, Note_on_c, 1, 52, 64
3, 11220, Note_off_c, 1, 52, 44
3, 11220, Note_on_c, 1, 53, 64
3, 11280, Note_off_c, 1, 53, 54
3, 11280, Note_on_c, 1, 55, 64
3, 11340, Note_off_c, 1, 55, 55
3, 11340, Note_on_c, 1, 53, 64
3, 11400, Note_off_c, 1, 53, 48
3, 11400, Note_on_c, 1, 52, 64
3, 11460, Note_off_c, 1, 52, 43
3, 11460, Note_on_c, 1, 55, 64
3, 11520, Note_off_c, 1, 55, 65
3, 11520, Note_on_c, 1, 53, 64
3, 11580, Note_off_c, 1, 53, 42
3, 11580, Note_on_c, 1, 57, 64
3, 11640, Note_off_c, 1, 57, 45
3, 11640, Note_on_c, 1, 58, 64
3, 11700, Note_off_c, 1, 58, 63
3, 11700, Note_on_c, 1, 60, 64
3, 11760, Note_off_c, 1, 60, 55
3, 11760, Note_on_c, 1, 62, 64
3, 11880, Note_off_c, 1, 62, 53
3, 11880, Note_on_c, 1, 62, 64
3, 12000, Note_off_c, 1, 62, 57
3, 12000, Note_on_c, 1, 62, 64
3, 12120, Note_off_c, 1, 62, 45
3, 12120, Note_on_c, 1, 62, 64
3, 12240, Note_off_c, 1, 62, 52
3, 12240, Note_on_c, 1, 62, 64
3, 12300, Note_off_c, 1, 62, 50
3, 12300, Note_on_c, 1, 60, 64
3, 12360, Note_off_c, 1, 60, 62
3, 12360, Note_on_c, 1, 58, 64
3, 12420, Note_off_c, 1, 58, 55
3, 12420, Note_on_c, 1, 60, 64
3, 12480, Note_off_c, 1, 60, 53
3, 12480, Note_on_c, 1, 62, 64
3, 12600, Note_off_c, 1, 62, 68
3, 12600, Note_on_c, 1, 62, 64
3, 12720, Note_off_c, 1, 62, 57
3, 12720, Note_on_c, 1, 62, 64
3, 12840, Note_off_c, 1, 62, 37
3, 12840, Note_on_c, 1, 62, 64
3, 12960, Note_off_c, 1, 62, 50
3, 12960, Note_on_c, 1, 62, 64
3, 13080, Note_off_c, 1, 62, 51
3, 15240, Note_on_c, 1, 62, 64
3, 15360, Note_off_c, 1, 62, 52
3, 15360, Note_on_c, 1, 63, 64
3, 15480, Note_off_c, 1, 63, 50
3, 15480, Note_on_c, 1, 62, 64
3, 15600, Note_off_c, 1, 62, 47
3, 15600, Note_on_c, 1, 67, 64
3, 15720, Note_off_c, 1, 67, 51
3, 15720, Note_on_c, 1, 58, 64
3, 15840, Note_off_c, 1, 58, 61
3, 15840, Note_on_c, 1, 57, 64
3, 15960, Note_off_c, 1, 57, 44
3, 15960, Note_on_c, 1, 66, 64
3, 16020, Note_off_c, 1, 66, 13
3, 16020, Note_on_c, 1, 64, 64
3, 16080, Note_off_c, 1, 64, 47
3, 16080, Note_on_c, 1, 67, 64
3, 16140, Note_off_c, 1, 67, 53
3, 16140, Note_on_c, 1, 66, 64
3, 16200, Note_off_c, 1, 66, 70
3, 16200, Note_on_c, 1, 64, 64
3, 16260, Note_off_c, 1, 64, 46
3, 16260, Note_on_c, 1, 62, 64
3, 16320, Note_off_c, 1, 62, 43
3, 16320, Note_on_c, 1, 69, 64
3, 16440, Note_off_c, 1, 69, 63
3, 16440, Note_on_c, 1, 60, 64
3, 16560, Note_off_c, 1, 60, 43
3, 16560, Note_on_c, 1, 58, 64
3, 16680, Note_off_c, 1, 58, 53
3, 16680, Note_on_c, 1, 67, 64
3, 16740, Note_off_c, 1, 67, 46
3, 16740, Note_on_c, 1, 69, 64
3, 16800, Note_off_c, 1, 69, 65
3, 16800, Note_on_c, 1, 66, 64
3, 16860, Note_off_c, 1, 66, 72
3, 16860, Note_on_c, 1, 67, 64
3, 16920, Note_off_c, 1, 67, 46
3, 16920, Note_on_c, 1, 69, 64
3, 16980, Note_off_c, 1, 69, 62
3, 16980, Note_on_c, 1, 70, 64
3, 17040, Note_off_c, 1, 70, 77
3, 17040, Note_on_c, 1, 72, 64
3, 17100, Note_off_c, 1, 72, 69
3, 17100, Note_on_c, 1, 70, 64
3, 17160, Note_off_c, 1, 70, 66
3, 17160, Note_on_c, 1, 69, 64
3, 17220, Note_off_c, 1, 69, 59
3, 17220, Note_on_c, 1, 72, 64
3, 17280, Note_off_c, 1, 72, 73
3, 17280, Note_on_c, 1, 70, 64
3, 17340, Note_off_c, 1, 70, 69
3, 17340, Note_on_c, 1, 69, 64
3, 17400, Note_off_c, 1, 69, 65
3, 17400, Note_on_c, 1, 67, 64
3, 17460, Note_off_c, 1, 67, 30
3, 17460, Note_on_c, 1, 69, 64
3, 17520, Note_off_c, 1, 69, 66
3, 17520, Note_on_c, 1, 66, 64
3, 17580, Note_off_c, 1, 66, 59
3, 17580, Note_on_c, 1, 67, 64
3, 17640, Note_off_c, 1, 67, 48
3, 17640, Note_on_c, 1, 69, 64
3, 17700, Note_off_c, 1, 69, 66
3, 17700, Note_on_c, 1, 70, 64
3, 17760, Note_off_c, 1, 70, 72
3, 17760, Note_on_c, 1, 72, 64
3, 17820, Note_off_c, 1, 72, 72
3, 17820, Note_on_c, 1, 70, 64
3, 17880, Note_off_c, 1, 70, 69
3, 17880, Note_on_c, 1, 69, 64
3, 17940, Note_off_c, 1, 69, 59
3, 17940, Note_on_c, 1, 72, 64
3, 18000, Note_off_c, 1, 72, 68
3, 18000, Note_on_c, 1, 70, 64
3, 18060, Note_off_c, 1, 70, 66
3, 18060, Note_on_c, 1, 72, 64
3, 18120, Note_off_c, 1, 72, 72
3, 18120, Note_on_c, 1, 74, 64
3, 18180, Note_off_c, 1, 74, 73
3, 18180, Note_on_c, 1, 75, 64
3, 18240, Note_off_c, 1, 75, 51
3, 18240, Note_on_c, 1, 74, 64
3, 18300, Note_off_c, 1, 74, 72
3, 18300, Note_on_c, 1, 72, 64
3, 18360, Note_off_c, 1, 72, 73
3, 18360, Note_on_c, 1, 70, 64
3, 18420, Note_off_c, 1, 70, 63
3, 18420, Note_on_c, 1, 68, 64
3, 18480, Note_off_c, 1, 68, 63
3, 18480, Note_on_c, 1, 67, 64
3, 18600, Note_off_c, 1, 67, 40
3, 18600, Note_on_c, 1, 72, 64
3, 18840, Note_off_c, 1, 72, 79
3, 18840, Note_on_c, 1, 65, 64
3, 18960, Note_off_c, 1, 65, 40
3, 18960, Note_on_c, 1, 63, 64
3, 19080, Note_off_c, 1, 63, 49
3, 19080, Note_on_c, 1, 65, 64
3, 19200, Note_off_c, 1, 65, 45
3, 19200, Note_on_c, 1, 71, 64
3, 19320, Note_off_c, 1, 71, 76
3, 19320, Note_on_c, 1, 74, 64
3, 19560, Note_off_c, 1, 74, 70
3, 19560, Note_on_c, 1, 63, 64
3, 19620, Note_off_c, 1, 63, 46
3, 19620, Note_on_c, 1, 65, 64
3, 19680, Note_off_c, 1, 65, 50
3, 19680, Note_on_c, 1, 67, 64
3, 19800, Note_off_c, 1, 67, 50
3, 19800, Note_on_c, 1, 67, 64
3, 19920, Note_off_c, 1, 67, 51
3, 19920, Note_on_c, 1, 67, 64
3, 20040, Note_off_c, 1, 67, 42
3, 20040, Note_on_c, 1, 67, 64
3, 20160, Note_off_c, 1, 67, 49
3, 20160, Note_on_c, 1, 67, 64
3, 20220, Note_off_c, 1, 67, 51
3, 20220, Note_on_c, 1, 65, 64
3, 20280, Note_off_c, 1, 65, 69
3, 20280, Note_on_c, 1, 63, 64
3, 20340, Note_off_c, 1, 63, 48
3, 20340, Note_on_c, 1, 65, 64
3, 20400, Note_off_c, 1, 65, 69
3, 20400, Note_on_c, 1, 67, 64
3, 20520, Note_off_c, 1, 67, 50
3, 20520, Note_on_c, 1, 67, 64
3, 20640, Note_off_c, 1, 67, 35
3, 20640, Note_on_c, 1, 67, 64
3, 20760, Note_off_c, 1, 67, 37
3, 20760, Note_on_c, 1, 67, 64
3, 20880, Note_off_c, 1, 67, 35
3, 20880, Note_on_c, 1, 67, 64
3, 21000, Note_off_c, 1, 67, 52
3, 21480, Note_on_c, 1, 75, 64
3, 21600, Note_off_c, 1, 75, 43
3, 21600, Note_on_c, 1, 77, 64
3, 21720, Note_off_c, 1, 77, 77
3, 22200, Note_on_c, 1, 74, 64
3, 22320, Note_off_c, 1, 74, 76
3, 22320, Note_on_c, 1, 75, 64
3, 22440, Note_off_c, 1, 75, 57
3, 22920, Note_on_c, 1, 72, 64
3, 23040, Note_off_c, 1, 72, 72
3, 23040, Note_on_c, 1, 74, 64
3, 23160, Note_off_c, 1, 74, 76
3, 23160, Note_on_c, 1, 58, 64
3, 23280, Note_off_c, 1, 58, 69
3, 23280, Note_on_c, 1, 57, 64
3, 23400, Note_off_c, 1, 57, 48
3, 23400, Note_on_c, 1, 58, 64
3, 23520, Note_off_c, 1, 58, 70
3, 23520, Note_on_c, 1, 55, 64
3, 23640, Note_off_c, 1, 55, 50
3, 23640, Note_on_c, 1, 61, 64
3, 23760, Note_off_c, 1, 61, 59
3, 23760, Note_on_c, 1, 62, 64
3, 23880, Note_off_c, 1, 62, 63
3, 23880, Note_on_c, 1, 56, 64
3, 24000, Note_off_c, 1, 56, 51
3, 24000, Note_on_c, 1, 55, 64
3, 24120, Note_off_c, 1, 55, 54
3, 24120, Note_on_c, 1, 56, 64
3, 24240, Note_off_c, 1, 56, 50
3, 24240, Note_on_c, 1, 53, 64
3, 24360, Note_off_c, 1, 53, 45
3, 24360, Note_on_c, 1, 59, 64
3, 24480, Note_off_c, 1, 59, 55
3, 24480, Note_on_c, 1, 60, 64
3, 24600, Note_off_c, 1, 60, 68
3, 24600, Note_on_c, 1, 60, 64
3, 24720, Note_off_c, 1, 60, 57
3, 24720, Note_on_c, 1, 63, 64
3, 24840, Note_off_c, 1, 63, 65
3, 24840, Note_on_c, 1, 60, 64
3, 24960, Note_off_c, 1, 60, 57
3, 24960, Note_on_c, 1, 67, 64
3, 25080, Note_off_c, 1, 67, 54
3, 25080, Note_on_c, 1, 58, 64
3, 25200, Note_off_c, 1, 58, 55
3, 25200, Note_on_c, 1, 56, 64
3, 25320, Note_off_c, 1, 56, 61
3, 25320, Note_on_c, 1, 62, 64
3, 25380, Note_off_c, 1, 62, 55
3, 25380, Note_on_c, 1, 60, 64
3, 25440, Note_off_c, 1, 60, 52
3, 25440, Note_on_c, 1, 63, 64
3, 25500, Note_off_c, 1, 63, 57
3, 25500, Note_on_c, 1, 62, 64
3, 25560, Note_off_c, 1, 62, 54
3, 25560, Note_on_c, 1, 60, 64
3, 25620, Note_off_c, 1, 60, 65
3, 25620, Note_on_c, 1, 58, 64
3, 25680, Note_off_c, 1, 58, 57
3, 25680, Note_on_c, 1, 65, 64
3, 25800, Note_off_c, 1, 65, 57
3, 25800, Note_on_c, 1, 56, 64
3, 25920, Note_off_c, 1, 56, 51
3, 25920, Note_on_c, 1, 55, 64
3, 25980, Note_off_c, 1, 55, 42
3, 25980, Note_on_c, 1, 58, 64
3, 26040, Note_off_c, 1, 58, 63
3, 26040, Note_on_c, 1, 60, 64
3, 26100, Note_off_c, 1, 60, 61
3, 26100, Note_on_c, 1, 62, 64
3, 26160, Note_off_c, 1, 62, 66
3, 26160, Note_on_c, 1, 63, 64
3, 26220, Note_off_c, 1, 63, 57
3, 26220, Note_on_c, 1, 62, 64
3, 26280, Note_off_c, 1, 62, 43
3, 26280, Note_on_c, 1, 63, 64
3, 26340, Note_off_c, 1, 63, 55
3, 26340, Note_on_c, 1, 65, 64
3, 26400, Note_off_c, 1, 65, 61
3, 26400, Note_on_c, 1, 67, 64
3, 26520, Note_off_c, 1, 67, 51
3, 26520, Note_on_c, 1, 63, 64
3, 26760, Note_off_c, 1, 63, 51
3, 26760, Note_on_c, 1, 56, 64
3, 26880, Note_off_c, 1, 56, 54
3, 26880, Note_on_c, 1, 55, 64
3, 27000, Note_off_c, 1, 55, 47
3, 27000, Note_on_c, 1, 56, 64
3, 27120, Note_off_c, 1, 56, 68
3, 27120, Note_on_c, 1, 62, 64
3, 27240, Note_off_c, 1, 62, 52
3, 27240, Note_on_c, 1, 65, 64
3, 27480, Note_off_c, 1, 65, 72
3, 27480, Note_on_c, 1, 55, 64
3, 27540, Note_off_c, 1, 55, 54
3, 27540, Note_on_c, 1, 56, 64
3, 27600, Note_off_c, 1, 56, 53
3, 27600, Note_on_c, 1, 58, 64
3, 27720, Note_off_c, 1, 58, 73
3, 27720, Note_on_c, 1, 58, 64
3, 27840, Note_off_c, 1, 58, 55
3, 27840, Note_on_c, 1, 58, 64
3, 27960, Note_off_c, 1, 58, 58
3, 27960, Note_on_c, 1, 58, 64
3, 28080, Note_off_c, 1, 58, 55
3, 28080, Note_on_c, 1, 58, 64
3, 28140, Note_off_c, 1, 58, 63
3, 28140, Note_on_c, 1, 56, 64
3, 28200, Note_off_c, 1, 56, 43
3, 28200, Note_on_c, 1, 55, 64
3, 28260, Note_off_c, 1, 55, 46
3, 28260, Note_on_c, 1, 56, 64
3, 28320, Note_off_c, 1, 56, 48
3, 28320, Note_on_c, 1, 58, 64
3, 28440, Note_off_c, 1, 58, 46
3, 28440, Note_on_c, 1, 58, 64
3, 28560, Note_off_c, 1, 58, 43
3, 28560, Note_on_c, 1, 58, 64
3, 28680, Note_off_c, 1, 58, 63
3, 28680, Note_on_c, 1, 58, 64
3, 28800, Note_off_c, 1, 58, 57
3, 28800, Note_on_c, 1, 58, 64
3, 28920, Note_off_c, 1, 58, 65
3, 28920, Note_on_c, 1, 63, 64
3, 29040, Note_off_c, 1, 63, 55
3, 29040, Note_on_c, 1, 67, 64
3, 29160, Note_off_c, 1, 67, 47
3, 29160, Note_on_c, 1, 63, 64
3, 29280, Note_off_c, 1, 63, 63
3, 29280, Note_on_c, 1, 70, 64
3, 29400, Note_off_c, 1, 70, 77
3, 29400, Note_on_c, 1, 62, 64
3, 29520, Note_off_c, 1, 62, 49
3, 29520, Note_on_c, 1, 60, 64
3, 29640, Note_off_c, 1, 60, 35
3, 29640, Note_on_c, 1, 69, 64
3, 29700, Note_off_c, 1, 69, 68
3, 29700, Note_on_c, 1, 67, 64
3, 29760, Note_off_c, 1, 67, 46
3, 29760, Note_on_c, 1, 70, 64
3, 29820, Note_off_c, 1, 70, 66
3, 29820, Note_on_c, 1, 69, 64
3, 29880, Note_off_c, 1, 69, 62
3, 29880, Note_on_c, 1, 67, 64
3, 29940, Note_off_c, 1, 67, 48
3, 29940, Note_on_c, 1, 65, 64
3, 30000, Note_off_c, 1, 65, 46
3, 30000, Note_on_c, 1, 72, 64
3, 30120, Note_off_c, 1, 72, 69
3, 30120, Note_on_c, 1, 63, 64
3, 30240, Note_off_c, 1, 63, 49
3, 30240, Note_on_c, 1, 62, 64
3, 30360, Note_off_c, 1, 62, 48
3, 30360, Note_on_c, 1, 70, 64
3, 30420, Note_off_c, 1, 70, 55
3, 30420, Note_on_c, 1, 72, 64
3, 30480, Note_off_c, 1, 72, 73
3, 30480, Note_on_c, 1, 69, 64
3, 30540, Note_off_c, 1, 69, 57
3, 30540, Note_on_c, 1, 70, 64
3, 30600, Note_off_c, 1, 70, 61
3, 30600, Note_on_c, 1, 72, 64
3, 30660, Note_off_c, 1, 72, 77
3, 30660, Note_on_c, 1, 74, 64
3, 30720, Note_off_c, 1, 74, 73
3, 30720, Note_on_c, 1, 75, 64
3, 30780, Note_off_c, 1, 75, 58
3, 30780, Note_on_c, 1, 74, 64
3, 30840, Note_off_c, 1, 74, 62
3, 30840, Note_on_c, 1, 72, 64
3, 30900, Note_off_c, 1, 72, 62
3, 30900, Note_on_c, 1, 75, 64
3, 30960, Note_off_c, 1, 75, 55
3, 30960, Note_on_c, 1, 74, 64
3, 31020, Note_off_c, 1, 74, 68
3, 31020, Note_on_c, 1, 72, 64
3, 31080, Note_off_c, 1, 72, 74
3, 31080, Note_on_c, 1, 70, 64
3, 31140, Note_off_c, 1, 70, 65
3, 31140, Note_on_c, 1, 72, 64
3, 31200, Note_off_c, 1, 72, 65
3, 31200, Note_on_c, 1, 69, 64
3, 31260, Note_off_c, 1, 69, 54
3, 31260, Note_on_c, 1, 70, 64
3, 31320, Note_off_c, 1, 70, 53
3, 31320, Note_on_c, 1, 72, 64
3, 31380, Note_off_c, 1, 72, 69
3, 31380, Note_on_c, 1, 74, 64
3, 31440, Note_off_c, 1, 74, 65
3, 31440, Note_on_c, 1, 75, 64
3, 31500, Note_off_c, 1, 75, 54
3, 31500, Note_on_c, 1, 74, 64
3, 31560, Note_off_c, 1, 74, 58
3, 31560, Note_on_c, 1, 72, 64
3, 31620, Note_off_c, 1, 72, 59
3, 31620, Note_on_c, 1, 75, 64
3, 31680, Note_off_c, 1, 75, 46
3, 31680, Note_on_c, 1, 74, 64
3, 31800, Note_off_c, 1, 74, 72
3, 31800, Note_on_c, 1, 53, 64
3, 31860, Note_off_c, 1, 53, 42
3, 31860, Note_on_c, 1, 55, 64
3, 31920, Note_off_c, 1, 55, 53
3, 31920, Note_on_c, 1, 57, 64
3, 31980, Note_off_c, 1, 57, 58
3, 31980, Note_on_c, 1, 58, 64
3, 32040, Note_off_c, 1, 58, 55
3, 32040, Note_on_c, 1, 60, 64
3, 32100, Note_off_c, 1, 60, 46
3, 32100, Note_on_c, 1, 62, 64
3, 32160, Note_off_c, 1, 62, 45
3, 32160, Note_on_c, 1, 63, 64
3, 32220, Note_off_c, 1, 63, 54
3, 32220, Note_on_c, 1, 62, 64
3, 32280, Note_off_c, 1, 62, 51
3, 32280, Note_on_c, 1, 60, 64
3, 32340, Note_off_c, 1, 60, 46
3, 32340, Note_on_c, 1, 63, 64
3, 32400, Note_off_c, 1, 63, 52
3, 32400, Note_on_c, 1, 62, 64
3, 32460, Note_off_c, 1, 62, 49
3, 32460, Note_on_c, 1, 60, 64
3, 32520, Note_off_c, 1, 60, 50
3, 32520, Note_on_c, 1, 58, 64
3, 32580, Note_off_c, 1, 58, 59
3, 32580, Note_on_c, 1, 60, 64
3, 32640, Note_off_c, 1, 60, 45
3, 32640, Note_on_c, 1, 57, 64
3, 32700, Note_off_c, 1, 57, 48
3, 32700, Note_on_c, 1, 58, 64
3, 32760, Note_off_c, 1, 58, 52
3, 32760, Note_on_c, 1, 60, 64
3, 32820, Note_off_c, 1, 60, 61
3, 32820, Note_on_c, 1, 62, 64
3, 32880, Note_off_c, 1, 62, 58
3, 32880, Note_on_c, 1, 63, 64
3, 32940, Note_off_c, 1, 63, 46
3, 32940, Note_on_c, 1, 62, 64
3, 33000, Note_off_c, 1, 62, 50
3, 33000, Note_on_c, 1, 60, 64
3, 33060, Note_off_c, 1, 60, 37
3, 33060, Note_on_c, 1, 63, 64
3, 33120, Note_off_c, 1, 63, 41
3, 33120, Note_on_c, 1, 62, 64
3, 33240, Note_off_c, 1, 62, 57
3, 33240, Note_on_c, 1, 70, 64
3, 33360, Note_off_c, 1, 70, 52
3, 33360, Note_on_c, 1, 70, 64
3, 33600, Note_off_c, 1, 70, 72
3, 33600, Note_on_c, 1, 69, 64
3, 33720, Note_off_c, 1, 69, 68
3, 33720, Note_on_c, 1, 63, 64
3, 33840, Note_off_c, 1, 63, 49
3, 33840, Note_on_c, 1, 62, 64
3, 34560, Note_off_c, 1, 62, 42
3, 34560, End_track
4, 0, Start_track
4, 5880, Note_on_c, 2, 53, 64
4, 6000, Note_off_c, 2, 53, 55
4, 6000, Note_on_c, 2, 55, 64
4, 6120, Note_off_c, 2, 55, 57
4, 6120, Note_on_c, 2, 53, 64
4, 6240, Note_off_c, 2, 53, 49
4, 6240, Note_on_c, 2, 58, 64
4, 6360, Note_off_c, 2, 58, 57
4, 6360, Note_on_c, 2, 50, 64
4, 6480, Note_off_c, 2, 50, 1
4, 6480, Note_on_c, 2, 48, 64
4, 6600, Note_off_c, 2, 48, 31
4, 6600, Note_on_c, 2, 57, 64
4, 6660, Note_off_c, 2, 57, 51
4, 6660, Note_on_c, 2, 55, 64
4, 6720, Note_off_c, 2, 55, 46
4, 6720, Note_on_c, 2, 58, 64
4, 6780, Note_off_c, 2, 58, 68
4, 6780, Note_on_c, 2, 57, 64
4, 6840, Note_off_c, 2, 57, 57
4, 6840, Note_on_c, 2, 55, 64
4, 6900, Note_off_c, 2, 55, 54
4, 6900, Note_on_c, 2, 53, 64
4, 6960, Note_off_c, 2, 53, 44
4, 6960, Note_on_c, 2, 60, 64
4, 7080, Note_off_c, 2, 60, 65
4, 7080, Note_on_c, 2, 51, 64
4, 7200, Note_off_c, 2, 51, 52
4, 7200, Note_on_c, 2, 50, 64
4, 7320, Note_off_c, 2, 50, 47
4, 7320, Note_on_c, 2, 58, 64
4, 7380, Note_off_c, 2, 58, 62
4, 7380, Note_on_c, 2, 60, 64
4, 7440, Note_off_c, 2, 60, 54
4, 7440, Note_on_c, 2, 57, 64
4, 7500, Note_off_c, 2, 57, 46
4, 7500, Note_on_c, 2, 58, 64
4, 7560, Note_off_c, 2, 58, 72
4, 7560, Note_on_c, 2, 60, 64
4, 7620, Note_off_c, 2, 60, 54
4, 7620, Note_on_c, 2, 62, 64
4, 7680, Note_off_c, 2, 62, 49
4, 7680, Note_on_c, 2, 63, 64
4, 7740, Note_off_c, 2, 63, 55
4, 7740, Note_on_c, 2, 62, 64
4, 7800, Note_off_c, 2, 62, 54
4, 7800, Note_on_c, 2, 60, 64
4, 7860, Note_off_c, 2, 60, 52
4, 7860, Note_on_c, 2, 63, 64
4, 7920, Note_off_c, 2, 63, 55
4, 7920, Note_on_c, 2, 62, 64
4, 7980, Note_off_c, 2, 62, 49
4, 7980, Note_on_c, 2, 60, 64
4, 8040, Note_off_c, 2, 60, 65
4, 8040, Note_on_c, 2, 58, 64
4, 8100, Note_off_c, 2, 58, 53
4, 8100, Note_on_c, 2, 60, 64
4, 8160, Note_off_c, 2, 60, 46
4, 8160, Note_on_c, 2, 57, 64
4, 8220, Note_off_c, 2, 57, 44
4, 8220, Note_on_c, 2, 58, 64
4, 8280, Note_off_c, 2, 58, 52
4, 8280, Note_on_c, 2, 60, 64
4, 8340, Note_off_c, 2, 60, 52
4, 8340, Note_on_c, 2, 62, 64
4, 8400, Note_off_c, 2, 62, 43
4, 8400, Note_on_c, 2, 63, 64
4, 8460, Note_off_c, 2, 63, 52
4, 8460, Note_on_c, 2, 62, 64
4, 8520, Note_off_c, 2, 62, 45
4, 8520, Note_on_c, 2, 60, 64
4, 8580, Note_off_c, 2, 60, 49
4, 8580, Note_on_c, 2, 63, 64
4, 8640, Note_off_c, 2, 63, 49
4, 8640, Note_on_c, 2, 62, 64
4, 8760, Note_off_c, 2, 62, 52
4, 8760, Note_on_c, 2, 50, 64
4, 8820, Note_off_c, 2, 50, 52
4, 8820, Note_on_c, 2, 48, 64
4, 8880, Note_off_c, 2, 48, 49
4, 8880, Note_on_c, 2, 46, 64
4, 8940, Note_off_c, 2, 46, 52
4, 8940, Note_on_c, 2, 45, 64
4, 9000, Note_off_c, 2, 45, 37
4, 9000, Note_on_c, 2, 46, 64
4, 9060, Note_off_c, 2, 46, 73
4, 9060, Note_on_c, 2, 48, 64
4, 9120, Note_off_c, 2, 48, 39
4, 9120, Note_on_c, 2, 50, 64
4, 9240, Note_off_c, 2, 50, 51
4, 9240, Note_on_c, 2, 53, 64
4, 9480, Note_off_c, 2, 53, 59
4, 9480, Note_on_c, 2, 46, 64
4, 9600, Note_off_c, 2, 46, 52
4, 9600, Note_on_c, 2, 45, 64
4, 9720, Note_off_c, 2, 45, 48
4, 9720, Note_on_c, 2, 46, 64
4, 9840, Note_off_c, 2, 46, 69
4, 9840, Note_on_c, 2, 52, 64
4, 9960, Note_off_c, 2, 52, 63
4, 9960, Note_on_c, 2, 55, 64
4, 10200, Note_off_c, 2, 55, 66
4, 10200, Note_on_c, 2, 45, 64
4, 10260, Note_off_c, 2, 45, 46
4, 10260, Note_on_c, 2, 46, 64
4, 10320, Note_off_c, 2, 46, 58
4, 10320, Note_on_c, 2, 48, 64
4, 10440, Note_off_c, 2, 48, 54
4, 10440, Note_on_c, 2, 48, 64
4, 10560, Note_off_c, 2, 48, 53
4, 10560, Note_on_c, 2, 48, 64
4, 10680, Note_off_c, 2, 48, 53
4, 10680, Note_on_c, 2, 48, 64
4, 10800, Note_off_c, 2, 48, 51
4, 10800, Note_on_c, 2, 48, 64
4, 10860, Note_off_c, 2, 48, 63
4, 10860, Note_on_c, 2, 46, 64
4, 10920, Note_off_c, 2, 46, 52
4, 10920, Note_on_c, 2, 45, 64
4, 10980, Note_off_c, 2, 45, 47
4, 10980, Note_on_c, 2, 46, 64
4, 11040, Note_off_c, 2, 46, 52
4, 11040, Note_on_c, 2, 48, 64
4, 11160, Note_off_c, 2, 48, 52
4, 11160, Note_on_c, 2, 48, 64
4, 11280, Note_off_c, 2, 48, 50
4, 11280, Note_on_c, 2, 48, 64
4, 11400, Note_off_c, 2, 48, 53
4, 11400, Note_on_c, 2, 48, 64
4, 11520, Note_off_c, 2, 48, 72
4, 11520, Note_on_c, 2, 41, 64
4, 11640, Note_off_c, 2, 41, 21
4, 11880, Note_on_c, 2, 54, 64
4, 11940, Note_off_c, 2, 54, 53
4, 11940, Note_on_c, 2, 55, 64
4, 12000, Note_off_c, 2, 55, 51
4, 12000, Note_on_c, 2, 57, 64
4, 12060, Note_off_c, 2, 57, 57
4, 12060, Note_on_c, 2, 55, 64
4, 12120, Note_off_c, 2, 55, 72
4, 12120, Note_on_c, 2, 54, 64
4, 12180, Note_off_c, 2, 54, 52
4, 12180, Note_on_c, 2, 57, 64
4, 12240, Note_off_c, 2, 57, 54
4, 12240, Note_on_c, 2, 55, 64
4, 12360, Note_off_c, 2, 55, 68
4, 12600, Note_on_c, 2, 54, 64
4, 12660, Note_off_c, 2, 54, 61
4, 12660, Note_on_c, 2, 55, 64
4, 12720, Note_off_c, 2, 55, 62
4, 12720, Note_on_c, 2, 57, 64
4, 12780, Note_off_c, 2, 57, 53
4, 12780, Note_on_c, 2, 55, 64
4, 12840, Note_off_c, 2, 55, 68
4, 12840, Note_on_c, 2, 54, 64
4, 12900, Note_off_c, 2, 54, 52
4, 12900, Note_on_c, 2, 57, 64
4, 12960, Note_off_c, 2, 57, 49
4, 12960, Note_on_c, 2, 55, 64
4, 13080, Note_off_c, 2, 55, 72
4, 13080, Note_on_c, 2, 50, 64
4, 13200, Note_off_c, 2, 50, 52
4, 13200, Note_on_c, 2, 48, 64
4, 13320, Note_off_c, 2, 48, 34
4, 13320, Note_on_c, 2, 50, 64
4, 13440, Note_off_c, 2, 50, 65
4, 13440, Note_on_c, 2, 43, 64
4, 13560, Note_off_c, 2, 43, 40
4, 13560, Note_on_c, 2, 51, 64
4, 13680, Note_off_c, 2, 51, 58
4, 13680, Note_on_c, 2, 53, 64
4, 13800, Note_off_c, 2, 53, 62
4, 13800, Note_on_c, 2, 48, 64
4, 13920, Note_off_c, 2, 48, 73
4, 13920, Note_on_c, 2, 46, 64
4, 14040, Note_off_c, 2, 46, 54
4, 14040, Note_on_c, 2, 48, 64
4, 14160, Note_off_c, 2, 48, 73
4, 14160, Note_on_c, 2, 41, 64
4, 14280, Note_off_c, 2, 41, 43
4, 14280, Note_on_c, 2, 50, 64
4, 14400, Note_off_c, 2, 50, 66
4, 14400, Note_on_c, 2, 51, 64
4, 14520, Note_off_c, 2, 51, 57
4, 14520, Note_on_c, 2, 46, 64
4, 14640, Note_off_c, 2, 46, 52
4, 14640, Note_on_c, 2, 45, 64
4, 14760, Note_off_c, 2, 45, 49
4, 14760, Note_on_c, 2, 46, 64
4, 14880, Note_off_c, 2, 46, 68
4, 14880, Note_on_c, 2, 39, 64
4, 15000, Note_off_c, 2, 39, 46
4, 15000, Note_on_c, 2, 48, 64
4, 15120, Note_off_c, 2, 48, 61
4, 15120, Note_on_c, 2, 50, 64
4, 15240, Note_off_c, 2, 50, 49
4, 15660, Note_on_c, 2, 55, 64
4, 15720, Note_off_c, 2, 55, 63
4, 15720, Note_on_c, 2, 51, 64
4, 15780, Note_off_c, 2, 51, 50
4, 15780, Note_on_c, 2, 55, 64
4, 15840, Note_off_c, 2, 55, 55
4, 15840, Note_on_c, 2, 48, 64
4, 15960, Note_off_c, 2, 48, 46
4, 16380, Note_on_c, 2, 57, 64
4, 16440, Note_off_c, 2, 57, 55
4, 16440, Note_on_c, 2, 54, 64
4, 16500, Note_off_c, 2, 54, 59
4, 16500, Note_on_c, 2, 57, 64
4, 16560, Note_off_c, 2, 57, 48
4, 16560, Note_on_c, 2, 50, 64
4, 16680, Note_off_c, 2, 50, 47
4, 16920, Note_on_c, 2, 42, 64
4, 16980, Note_off_c, 2, 42, 55
4, 16980, Note_on_c, 2, 43, 64
4, 17040, Note_off_c, 2, 43, 54
4, 17040, Note_on_c, 2, 45, 64
4, 17100, Note_off_c, 2, 45, 52
4, 17100, Note_on_c, 2, 43, 64
4, 17160, Note_off_c, 2, 43, 66
4, 17160, Note_on_c, 2, 42, 64
4, 17220, Note_off_c, 2, 42, 50
4, 17220, Note_on_c, 2, 45, 64
4, 17280, Note_off_c, 2, 45, 54
4, 17280, Note_on_c, 2, 43, 64
4, 17400, Note_off_c, 2, 43, 54
4, 17640, Note_on_c, 2, 42, 64
4, 17700, Note_off_c, 2, 42, 65
4, 17700, Note_on_c, 2, 43, 64
4, 17760, Note_off_c, 2, 43, 57
4, 17760, Note_on_c, 2, 45, 64
4, 17820, Note_off_c, 2, 45, 58
4, 17820, Note_on_c, 2, 43, 64
4, 17880, Note_off_c, 2, 43, 68
4, 17880, Note_on_c, 2, 42, 64
4, 17940, Note_off_c, 2, 42, 53
4, 17940, Note_on_c, 2, 45, 64
4, 18000, Note_off_c, 2, 45, 61
4, 18000, Note_on_c, 2, 43, 64
4, 18120, Note_off_c, 2, 43, 37
4, 18120, Note_on_c, 2, 55, 64
4, 18240, Note_off_c, 2, 55, 58
4, 18240, Note_on_c, 2, 58, 64
4, 18360, Note_off_c, 2, 58, 57
4, 18360, Note_on_c, 2, 55, 64
4, 18480, Note_off_c, 2, 55, 49
4, 18480, Note_on_c, 2, 60, 64
4, 18600, Note_off_c, 2, 60, 70
4, 18600, Note_on_c, 2, 51, 64
4, 18720, Note_off_c, 2, 51, 49
4, 18720, Note_on_c, 2, 50, 64
4, 18840, Note_off_c, 2, 50, 27
4, 18840, Note_on_c, 2, 59, 64
4, 18900, Note_off_c, 2, 59, 62
4, 18900, Note_on_c, 2, 57, 64
4, 18960, Note_off_c, 2, 57, 53
4, 18960, Note_on_c, 2, 60, 64
4, 19020, Note_off_c, 2, 60, 52
4, 19020, Note_on_c, 2, 59, 64
4, 19080, Note_off_c, 2, 59, 50
4, 19080, Note_on_c, 2, 57, 64
4, 19140, Note_off_c, 2, 57, 51
4, 19140, Note_on_c, 2, 55, 64
4, 19200, Note_off_c, 2, 55, 49
4, 19200, Note_on_c, 2, 62, 64
4, 19320, Note_off_c, 2, 62, 46
4, 19320, Note_on_c, 2, 53, 64
4, 19440, Note_off_c, 2, 53, 30
4, 19440, Note_on_c, 2, 51, 64
4, 19560, Note_off_c, 2, 51, 47
4, 19560, Note_on_c, 2, 60, 64
4, 19620, Note_off_c, 2, 60, 63
4, 19620, Note_on_c, 2, 62, 64
4, 19680, Note_off_c, 2, 62, 46
4, 19680, Note_on_c, 2, 59, 64
4, 19740, Note_off_c, 2, 59, 43
4, 19740, Note_on_c, 2, 60, 64
4, 19800, Note_off_c, 2, 60, 47
4, 19800, Note_on_c, 2, 62, 64
4, 19860, Note_off_c, 2, 62, 59
4, 19860, Note_on_c, 2, 63, 64
4, 19920, Note_off_c, 2, 63, 45
4, 19920, Note_on_c, 2, 65, 64
4, 19980, Note_off_c, 2, 65, 4
4, 19980, Note_on_c, 2, 63, 64
4, 20040, Note_off_c, 2, 63, 50
4, 20040, Note_on_c, 2, 62, 64
4, 20100, Note_off_c, 2, 62, 45
4, 20100, Note_on_c, 2, 65, 64
4, 20160, Note_off_c, 2, 65, 50
4, 20160, Note_on_c, 2, 63, 64
4, 20220, Note_off_c, 2, 63, 51
4, 20220, Note_on_c, 2, 62, 64
4, 20280, Note_off_c, 2, 62, 41
4, 20280, Note_on_c, 2, 60, 64
4, 20340, Note_off_c, 2, 60, 43
4, 20340, Note_on_c, 2, 62, 64
4, 20400, Note_off_c, 2, 62, 57
4, 20400, Note_on_c, 2, 59, 64
4, 20460, Note_off_c, 2, 59, 42
4, 20460, Note_on_c, 2, 60, 64
4, 20520, Note_off_c, 2, 60, 50
4, 20520, Note_on_c, 2, 62, 64
4, 20580, Note_off_c, 2, 62, 65
4, 20580, Note_on_c, 2, 63, 64
4, 20640, Note_off_c, 2, 63, 51
4, 20640, Note_on_c, 2, 65, 64
4, 20700, Note_off_c, 2, 65, 65
4, 20700, Note_on_c, 2, 63, 64
4, 20760, Note_off_c, 2, 63, 55
4, 20760, Note_on_c, 2, 62, 64
4, 20820, Note_off_c, 2, 62, 50
4, 20820, Note_on_c, 2, 65, 64
4, 20880, Note_off_c, 2, 65, 76
4, 20880, Note_on_c, 2, 63, 64
4, 20940, Note_off_c, 2, 63, 47
4, 20940, Note_on_c, 2, 62, 64
4, 21000, Note_off_c, 2, 62, 48
4, 21000, Note_on_c, 2, 60, 64
4, 21060, Note_off_c, 2, 60, 51
4, 21060, Note_on_c, 2, 58, 64
4, 21120, Note_off_c, 2, 58, 58
4, 21120, Note_on_c, 2, 57, 64
4, 21180, Note_off_c, 2, 57, 43
4, 21180, Note_on_c, 2, 58, 64
4, 21240, Note_off_c, 2, 58, 47
4, 21240, Note_on_c, 2, 60, 64
4, 21300, Note_off_c, 2, 60, 51
4, 21300, Note_on_c, 2, 62, 64
4, 21360, Note_off_c, 2, 62, 44
4, 21360, Note_on_c, 2, 63, 64
4, 21420, Note_off_c, 2, 63, 52
4, 21420, Note_on_c, 2, 62, 64
4, 21480, Note_off_c, 2, 62, 43
4, 21480, Note_on_c, 2, 60, 64
4, 21540, Note_off_c, 2, 60, 53
4, 21540, Note_on_c, 2, 63, 64
4, 21600, Note_off_c, 2, 63, 52
4, 21600, Note_on_c, 2, 62, 64
4, 21660, Note_off_c, 2, 62, 42
4, 21660, Note_on_c, 2, 60, 64
4, 21720, Note_off_c, 2, 60, 59
4, 21720, Note_on_c, 2, 58, 64
4, 21780, Note_off_c, 2, 58, 65
4, 21780, Note_on_c, 2, 57, 64
4, 21840, Note_off_c, 2, 57, 43
4, 21840, Note_on_c, 2, 55, 64
4, 21900, Note_off_c, 2, 55, 43
4, 21900, Note_on_c, 2, 57, 64
4, 21960, Note_off_c, 2, 57, 41
4, 21960, Note_on_c, 2, 58, 64
4, 22020, Note_off_c, 2, 58, 65
4, 22020, Note_on_c, 2, 60, 64
4, 22080, Note_off_c, 2, 60, 59
4, 22080, Note_on_c, 2, 62, 64
4, 22140, Note_off_c, 2, 62, 52
4, 22140, Note_on_c, 2, 60, 64
4, 22200, Note_off_c, 2, 60, 52
4, 22200, Note_on_c, 2, 58, 64
4, 22260, Note_off_c, 2, 58, 52
4, 22260, Note_on_c, 2, 62, 64
4, 22320, Note_off_c, 2, 62, 49
4, 22320, Note_on_c, 2, 60, 64
4, 22380, Note_off_c, 2, 60, 52
4, 22380, Note_on_c, 2, 58, 64
4, 22440, Note_off_c, 2, 58, 66
4, 22440, Note_on_c, 2, 57, 64
4, 22500, Note_off_c, 2, 57, 46
4, 22500, Note_on_c, 2, 55, 64
4, 22560, Note_off_c, 2, 55, 59
4, 22560, Note_on_c, 2, 54, 64
4, 22620, Note_off_c, 2, 54, 58
4, 22620, Note_on_c, 2, 55, 64
4, 22680, Note_off_c, 2, 55, 49
4, 22680, Note_on_c, 2, 57, 64
4, 22740, Note_off_c, 2, 57, 52
4, 22740, Note_on_c, 2, 58, 64
4, 22800, Note_off_c, 2, 58, 65
4, 22800, Note_on_c, 2, 60, 64
4, 22860, Note_off_c, 2, 60, 54
4, 22860, Note_on_c, 2, 58, 64
4, 22920, Note_off_c, 2, 58, 61
4, 22920, Note_on_c, 2, 57, 64
4, 22980, Note_off_c, 2, 57, 46
4, 22980, Note_on_c, 2, 60, 64
4, 23040, Note_off_c, 2, 60, 63
4, 23040, Note_on_c, 2, 58, 64
4, 23160, Note_off_c, 2, 58, 52
4, 23160, Note_on_c, 2, 55, 64
4, 23280, Note_off_c, 2, 55, 44
4, 23280, Note_on_c, 2, 53, 64
4, 23400, Note_off_c, 2, 53, 32
4, 23400, Note_on_c, 2, 55, 64
4, 23520, Note_off_c, 2, 55, 44
4, 23520, Note_on_c, 2, 52, 64
4, 23760, Note_off_c, 2, 52, 31
4, 23760, Note_on_c, 2, 50, 64
4, 23880, Note_off_c, 2, 50, 51
4, 23880, Note_on_c, 2, 53, 64
4, 24000, Note_off_c, 2, 53, 62
4, 24000, Note_on_c, 2, 51, 64
4, 24120, Note_off_c, 2, 51, 61
4, 24120, Note_on_c, 2, 53, 64
4, 24240, Note_off_c, 2, 53, 58
4, 24240, Note_on_c, 2, 50, 64
4, 24480, Note_off_c, 2, 50, 39
4, 24480, Note_on_c, 2, 48, 64
4, 24600, Note_off_c, 2, 48, 20
4, 25020, Note_on_c, 2, 48, 64
4, 25080, Note_off_c, 2, 48, 39
4, 25080, Note_on_c, 2, 51, 64
4, 25140, Note_off_c, 2, 51, 58
4, 25140, Note_on_c, 2, 48, 64
4, 25200, Note_off_c, 2, 48, 22
4, 25200, Note_on_c, 2, 53, 64
4, 25320, Note_off_c, 2, 53, 69
4, 25740, Note_on_c, 2, 46, 64
4, 25800, Note_off_c, 2, 46, 55
4, 25800, Note_on_c, 2, 50, 64
4, 25860, Note_off_c, 2, 50, 51
4, 25860, Note_on_c, 2, 46, 64
4, 25920, Note_off_c, 2, 46, 48
4, 25920, Note_on_c, 2, 51, 64
4, 26040, Note_off_c, 2, 51, 52
4, 26460, Note_on_c, 2, 51, 64
4, 26520, Note_off_c, 2, 51, 59
4, 26520, Note_on_c, 2, 55, 64
4, 26580, Note_off_c, 2, 55, 52
4, 26580, Note_on_c, 2, 51, 64
4, 26640, Note_off_c, 2, 51, 66
4, 26640, Note_on_c, 2, 58, 64
4, 26760, Note_off_c, 2, 58, 65
4, 27180, Note_on_c, 2, 58, 64
4, 27240, Note_off_c, 2, 58, 55
4, 27240, Note_on_c, 2, 62, 64
4, 27300, Note_off_c, 2, 62, 52
4, 27300, Note_on_c, 2, 58, 64
4, 27360, Note_off_c, 2, 58, 54
4, 27360, Note_on_c, 2, 63, 64
4, 27480, Note_off_c, 2, 63, 52
4, 27720, Note_on_c, 2, 50, 64
4, 27780, Note_off_c, 2, 50, 47
4, 27780, Note_on_c, 2, 51, 64
4, 27840, Note_off_c, 2, 51, 61
4, 27840, Note_on_c, 2, 53, 64
4, 27900, Note_off_c, 2, 53, 59
4, 27900, Note_on_c, 2, 51, 64
4, 27960, Note_off_c, 2, 51, 55
4, 27960, Note_on_c, 2, 50, 64
4, 28020, Note_off_c, 2, 50, 46
4, 28020, Note_on_c, 2, 53, 64
4, 28080, Note_off_c, 2, 53, 59
4, 28080, Note_on_c, 2, 51, 64
4, 28200, Note_off_c, 2, 51, 54
4, 28440, Note_on_c, 2, 50, 64
4, 28500, Note_off_c, 2, 50, 68
4, 28500, Note_on_c, 2, 51, 64
4, 28560, Note_off_c, 2, 51, 62
4, 28560, Note_on_c, 2, 53, 64
4, 28620, Note_off_c, 2, 53, 53
4, 28620, Note_on_c, 2, 51, 64
4, 28680, Note_off_c, 2, 51, 52
4, 28680, Note_on_c, 2, 50, 64
4, 28740, Note_off_c, 2, 50, 53
4, 28740, Note_on_c, 2, 53, 64
4, 28800, Note_off_c, 2, 53, 63
4, 28800, Note_on_c, 2, 51, 64
4, 28920, Note_off_c, 2, 51, 57
4, 29340, Note_on_c, 2, 51, 64
4, 29400, Note_off_c, 2, 51, 61
4, 29400, Note_on_c, 2, 55, 64
4, 29460, Note_off_c, 2, 55, 58
4, 29460, Note_on_c, 2, 51, 64
4, 29520, Note_off_c, 2, 51, 54
4, 29520, Note_on_c, 2, 53, 64
4, 29640, Note_off_c, 2, 53, 62
4, 30060, Note_on_c, 2, 53, 64
4, 30120, Note_off_c, 2, 53, 50
4, 30120, Note_on_c, 2, 57, 64
4, 30180, Note_off_c, 2, 57, 53
4, 30180, Note_on_c, 2, 53, 64
4, 30240, Note_off_c, 2, 53, 45
4, 30240, Note_on_c, 2, 58, 64
4, 30360, Note_off_c, 2, 58, 62
4, 30600, Note_on_c, 2, 57, 64
4, 30660, Note_off_c, 2, 57, 46
4, 30660, Note_on_c, 2, 58, 64
4, 30720, Note_off_c, 2, 58, 66
4, 30720, Note_on_c, 2, 60, 64
4, 30780, Note_off_c, 2, 60, 62
4, 30780, Note_on_c, 2, 58, 64
4, 30840, Note_off_c, 2, 58, 58
4, 30840, Note_on_c, 2, 57, 64
4, 30900, Note_off_c, 2, 57, 49
4, 30900, Note_on_c, 2, 60, 64
4, 30960, Note_off_c, 2, 60, 59
4, 30960, Note_on_c, 2, 58, 64
4, 31080, Note_off_c, 2, 58, 54
4, 31320, Note_on_c, 2, 57, 64
4, 31380, Note_off_c, 2, 57, 54
4, 31380, Note_on_c, 2, 58, 64
4, 31440, Note_off_c, 2, 58, 69
4, 31440, Note_on_c, 2, 60, 64
4, 31500, Note_off_c, 2, 60, 59
4, 31500, Note_on_c, 2, 58, 64
4, 31560, Note_off_c, 2, 58, 62
4, 31560, Note_on_c, 2, 57, 64
4, 31620, Note_off_c, 2, 57, 49
4, 31620, Note_on_c, 2, 60, 64
4, 31680, Note_off_c, 2, 60, 58
4, 31680, Note_on_c, 2, 58, 64
4, 31740, Note_off_c, 2, 58, 63
4, 31740, Note_on_c, 2, 53, 64
4, 31800, Note_off_c, 2, 53, 59
4, 31800, Note_on_c, 2, 50, 64
4, 31860, Note_off_c, 2, 50, 46
4, 31860, Note_on_c, 2, 51, 64
4, 31920, Note_off_c, 2, 51, 55
4, 31920, Note_on_c, 2, 53, 64
4, 32040, Note_off_c, 2, 53, 66
4, 32040, Note_on_c, 2, 53, 64
4, 32160, Note_off_c, 2, 53, 63
4, 32160, Note_on_c, 2, 53, 64
4, 32280, Note_off_c, 2, 53, 62
4, 32280, Note_on_c, 2, 53, 64
4, 32400, Note_off_c, 2, 53, 57
4, 32400, Note_on_c, 2, 53, 64
4, 32460, Note_off_c, 2, 53, 54
4, 32460, Note_on_c, 2, 51, 64
4, 32520, Note_off_c, 2, 51, 49
4, 32520, Note_on_c, 2, 50, 64
4, 32580, Note_off_c, 2, 50, 40
4, 32580, Note_on_c, 2, 51, 64
4, 32640, Note_off_c, 2, 51, 58
4, 32640, Note_on_c, 2, 53, 64
4, 32760, Note_off_c, 2, 53, 50
4, 32760, Note_on_c, 2, 53, 64
4, 32880, Note_off_c, 2, 53, 52
4, 32880, Note_on_c, 2, 53, 64
4, 33000, Note_off_c, 2, 53, 47
4, 33000, Note_on_c, 2, 53, 64
4, 33120, Note_off_c, 2, 53, 51
4, 33120, Note_on_c, 2, 53, 64
4, 33180, Note_off_c, 2, 53, 50
4, 33180, Note_on_c, 2, 51, 64
4, 33240, Note_off_c, 2, 51, 51
4, 33240, Note_on_c, 2, 50, 64
4, 33300, Note_off_c, 2, 50, 27
4, 33300, Note_on_c, 2, 51, 64
4, 33360, Note_off_c, 2, 51, 57
4, 33360, Note_on_c, 2, 53, 64
4, 33480, Note_off_c, 2, 53, 66
4, 33480, Note_on_c, 2, 51, 64
4, 33600, Note_off_c, 2, 51, 54
4, 33600, Note_on_c, 2, 53, 64
4, 33720, Note_off_c, 2, 53, 73
4, 33720, Note_on_c, 2, 41, 64
4, 33840, Note_off_c, 2, 41, 15
4, 33840, Note_on_c, 2, 46, 64
4, 34560, Note_off_c, 2, 46, 72
4, 34560, End_track
0, 0, End_of_file
