0, 0, Header, 1, 5, 240
1, 0, Start_track
1, 0, Time_signature, 4, 2, 24, 8
1, 0, Tempo, 625000
1, 31680, Tempo, 652174
1, 31800, Tempo, 870765
1, 31920, Tempo, 894282
1, 32040, Tempo, 789474
1, 32096, Tempo, 937500
1, 32120, Tempo, 1200000
1, 32120, End_track
2, 0, Start_track
2, 0, Text_t, "RH H"
2, 1560, Note_on_c, 0, 67, 64
2, 1680, Note_off_c, 0, 67, 53
2, 1680, Note_on_c, 0, 70, 64
2, 1800, Note_off_c, 0, 70, 66
2, 1800, Note_on_c, 0, 62, 64
2, 1920, Note_off_c, 0, 62, 35
2, 1920, Note_on_c, 0, 61, 64
2, 2160, Note_off_c, 0, 61, 58
2, 2160, Note_on_c, 0, 62, 64
2, 2400, Note_off_c, 0, 62, 52
2, 2520, Note_on_c, 0, 64, 64
2, 2580, Note_off_c, 0, 64, 43
2, 2580, Note_on_c, 0, 65, 64
2, 2640, Note_off_c, 0, 65, 1
2, 2640, Note_on_c, 0, 67, 64
2, 2760, Note_off_c, 0, 67, 62
2, 2760, Note_on_c, 0, 65, 64
2, 2820, Note_off_c, 0, 65, 1
2, 2820, Note_on_c, 0, 64, 64
2, 2880, Note_off_c, 0, 64, 25
2, 2880, Note_on_c, 0, 65, 64
2, 3000, Note_off_c, 0, 65, 1
2, 3000, Note_on_c, 0, 67, 64
2, 3060, Note_off_c, 0, 67, 21
2, 3060, Note_on_c, 0, 69, 64
2, 3120, Note_off_c, 0, 69, 66
2, 3120, Note_on_c, 0, 70, 64
2, 3240, Note_off_c, 0, 70, 69
2, 3240, Note_on_c, 0, 69, 64
2, 3300, Note_off_c, 0, 69, 55
2, 3300, Note_on_c, 0, 67, 64
2, 3360, Note_off_c, 0, 67, 49
2, 3360, Note_on_c, 0, 69, 64
2, 3480, Note_off_c, 0, 69, 70
2, 3480, Note_on_c, 0, 70, 64
2, 3540, Note_off_c, 0, 70, 68
2, 3540, Note_on_c, 0, 72, 64
2, 3600, Note_off_c, 0, 72, 76
2, 3600, Note_on_c, 0, 74, 64
2, 3720, Note_off_c, 0, 74, 63
2, 3720, Note_on_c, 0, 72, 64
2, 3780, Note_off_c, 0, 72, 72
2, 3780, Note_on_c, 0, 70, 64
2, 3840, Note_off_c, 0, 70, 66
2, 3840, Note_on_c, 0, 72, 64
2, 4080, Note_off_c, 0, 72, 77
2, 4080, Note_on_c, 0, 70, 64
2, 4320, Note_off_c, 0, 70, 61
2, 4320, Note_on_c, 0, 69, 64
2, 4440, Note_off_c, 0, 69, 43
2, 4440, Note_on_c, 0, 74, 64
2, 4500, Note_off_c, 0, 74, 63
2, 4500, Note_on_c, 0, 72, 64
2, 4560, Note_off_c, 0, 72, 77
2, 4560, Note_on_c, 0, 70, 64
2, 4680, Note_off_c, 0, 70, 62
2, 4680, Note_on_c, 0, 72, 64
2, 4740, Note_off_c, 0, 72, 83
2, 4740, Note_on_c, 0, 74, 64
2, 4800, Note_off_c, 0, 74, 66
2, 4800, Note_on_c, 0, 75, 64
2, 4920, Note_off_c, 0, 75, 48
2, 4920, Note_on_c, 0, 72, 64
2, 5040, Note_off_c, 0, 72, 57
2, 5040, Note_on_c, 0, 69, 64
2, 5160, Note_off_c, 0, 69, 36
2, 5160, Note_on_c, 0, 78, 64
2, 5280, Note_off_c, 0, 78, 55
2, 5280, Note_on_c, 0, 79, 64
2, 5520, Note_off_c, 0, 79, 55
2, 5880, Note_on_c, 0, 64, 64
2, 6000, Note_off_c, 0, 64, 34
2, 6000, Note_on_c, 0, 69, 64
2, 6120, Note_off_c, 0, 69, 69
2, 6120, Note_on_c, 0, 65, 64
2, 6240, Note_off_c, 0, 65, 52
2, 6240, Note_on_c, 0, 62, 64
2, 6480, Note_off_c, 0, 62, 30
2, 6480, Note_on_c, 0, 61, 64
2, 6600, Note_off_c, 0, 61, 58
2, 6600, Note_on_c, 0, 64, 64
2, 6840, Note_off_c, 0, 64, 55
2, 6840, Note_on_c, 0, 62, 64
2, 6960, Note_off_c, 0, 62, 42
2, 6960, Note_on_c, 0, 67, 64
2, 7260, Note_off_c, 0, 67, 55
2, 7260, Note_on_c, 0, 66, 64
2, 7320, Note_off_c, 0, 66, 52
2, 7320, Note_on_c, 0, 67, 64
2, 7380, Note_off_c, 0, 67, 49
2, 7380, Note_on_c, 0, 69, 64
2, 7440, Note_off_c, 0, 69, 77
2, 7440, Note_on_c, 0, 70, 64
2, 7920, Note_off_c, 0, 70, 72
2, 7920, Note_on_c, 0, 69, 64
2, 8220, Note_off_c, 0, 69, 73
2, 8220, Note_on_c, 0, 62, 64
2, 8280, Note_off_c, 0, 62, 38
2, 8280, Note_on_c, 0, 64, 64
2, 8340, Note_off_c, 0, 64, 50
2, 8340, Note_on_c, 0, 66, 64
2, 8400, Note_off_c, 0, 66, 70
2, 8400, Note_on_c, 0, 67, 64
2, 8760, Note_off_c, 0, 67, 59
2, 8760, Note_on_c, 0, 66, 64
2, 8820, Note_off_c, 0, 66, 74
2, 8820, Note_on_c, 0, 67, 64
2, 8880, Note_off_c, 0, 67, 58
2, 8880, Note_on_c, 0, 69, 64
2, 9000, Note_off_c, 0, 69, 74
2, 9000, Note_on_c, 0, 67, 64
2, 9060, Note_off_c, 0, 67, 61
2, 9060, Note_on_c, 0, 66, 64
2, 9120, Note_off_c, 0, 66, 70
2, 9120, Note_on_c, 0, 67, 64
2, 9480, Note_off_c, 0, 67, 55
2, 9480, Note_on_c, 0, 72, 64
2, 9600, Note_off_c, 0, 72, 74
2, 9600, Note_on_c, 0, 65, 64
2, 9720, Note_off_c, 0, 65, 48
2, 9720, Note_on_c, 0, 67, 64
2, 9780, Note_off_c, 0, 67, 61
2, 9780, Note_on_c, 0, 69, 64
2, 9840, Note_off_c, 0, 69, 77
2, 9840, Note_on_c, 0, 70, 64
2, 10320, Note_off_c, 0, 70, 69
2, 10320, Note_on_c, 0, 69, 64
2, 10560, Note_off_c, 0, 69, 66
2, 10560, Note_on_c, 0, 70, 64
2, 10800, Note_off_c, 0, 70, 80
2, 13560, Note_on_c, 0, 72, 64
2, 13680, Note_off_c, 0, 72, 77
2, 13680, Note_on_c, 0, 74, 64
2, 13800, Note_off_c, 0, 74, 73
2, 13800, Note_on_c, 0, 65, 64
2, 13920, Note_off_c, 0, 65, 11
2, 13920, Note_on_c, 0, 64, 64
2, 14160, Note_off_c, 0, 64, 28
2, 14160, Note_on_c, 0, 65, 64
2, 14400, Note_off_c, 0, 65, 41
2, 14520, Note_on_c, 0, 67, 64
2, 14580, Note_off_c, 0, 67, 64
2, 14580, Note_on_c, 0, 69, 64
2, 14640, Note_off_c, 0, 69, 68
2, 14640, Note_on_c, 0, 70, 64
2, 14760, Note_off_c, 0, 70, 61
2, 14760, Note_on_c, 0, 69, 64
2, 14820, Note_off_c, 0, 69, 73
2, 14820, Note_on_c, 0, 67, 64
2, 14880, Note_off_c, 0, 67, 62
2, 14880, Note_on_c, 0, 69, 64
2, 15000, Note_off_c, 0, 69, 79
2, 15000, Note_on_c, 0, 70, 64
2, 15060, Note_off_c, 0, 70, 62
2, 15060, Note_on_c, 0, 72, 64
2, 15120, Note_off_c, 0, 72, 74
2, 15120, Note_on_c, 0, 74, 64
2, 15240, Note_off_c, 0, 74, 61
2, 15240, Note_on_c, 0, 72, 64
2, 15300, Note_off_c, 0, 72, 74
2, 15300, Note_on_c, 0, 70, 64
2, 15360, Note_off_c, 0, 70, 66
2, 15360, Note_on_c, 0, 72, 64
2, 15480, Note_off_c, 0, 72, 79
2, 15480, Note_on_c, 0, 74, 64
2, 15540, Note_off_c, 0, 74, 69
2, 15540, Note_on_c, 0, 72, 64
2, 15600, Note_off_c, 0, 72, 77
2, 15600, Note_on_c, 0, 70, 64
2, 15720, Note_off_c, 0, 70, 66
2, 15720, Note_on_c, 0, 72, 64
2, 15780, Note_off_c, 0, 72, 79
2, 15780, Note_on_c, 0, 74, 64
2, 15840, Note_off_c, 0, 74, 70
2, 15840, Note_on_c, 0, 75, 64
2, 15960, Note_off_c, 0, 75, 62
2, 15960, Note_on_c, 0, 77, 64
2, 16020, Note_off_c, 0, 77, 63
2, 16020, Note_on_c, 0, 75, 64
2, 16080, Note_off_c, 0, 75, 65
2, 16200, Note_on_c, 0, 75, 64
2, 16260, Note_off_c, 0, 75, 54
2, 16260, Note_on_c, 0, 77, 64
2, 16320, Note_off_c, 0, 77, 61
2, 16320, Note_on_c, 0, 79, 64
2, 16440, Note_off_c, 0, 79, 68
2, 16440, Note_on_c, 0, 75, 64
2, 16560, Note_off_c, 0, 75, 44
2, 16560, Note_on_c, 0, 72, 64
2, 16680, Note_off_c, 0, 72, 43
2, 16680, Note_on_c, 0, 81, 64
2, 16800, Note_off_c, 0, 81, 63
2, 16800, Note_on_c, 0, 82, 64
2, 16920, Note_off_c, 0, 82, 62
2, 17400, Note_on_c, 0, 79, 64
2, 17460, Note_off_c, 0, 79, 63
2, 17460, Note_on_c, 0, 80, 64
2, 17520, Note_off_c, 0, 80, 58
2, 17520, Note_on_c, 0, 82, 64
2, 17640, Note_off_c, 0, 82, 65
2, 17640, Note_on_c, 0, 80, 64
2, 17700, Note_off_c, 0, 80, 74
2, 17700, Note_on_c, 0, 79, 64
2, 17760, Note_off_c, 0, 79, 66
2, 17760, Note_on_c, 0, 80, 64
2, 17880, Note_off_c, 0, 80, 70
2, 17880, Note_on_c, 0, 80, 64
2, 17940, Note_off_c, 0, 80, 69
2, 17940, Note_on_c, 0, 79, 64
2, 18000, Note_off_c, 0, 79, 59
2, 18000, Note_on_c, 0, 77, 64
2, 18120, Note_off_c, 0, 77, 68
2, 18120, Note_on_c, 0, 79, 64
2, 18180, Note_off_c, 0, 79, 58
2, 18180, Note_on_c, 0, 80, 64
2, 18240, Note_off_c, 0, 80, 73
2, 18240, Note_on_c, 0, 74, 64
2, 18360, Note_off_c, 0, 74, 50
2, 18360, Note_on_c, 0, 79, 64
2, 18600, Note_off_c, 0, 79, 54
2, 18600, Note_on_c, 0, 77, 64
2, 18660, Note_off_c, 0, 77, 57
2, 18720, Note_on_c, 0, 74, 64
2, 19080, Note_off_c, 0, 74, 43
2, 19080, Note_on_c, 0, 72, 64
2, 19140, Note_off_c, 0, 72, 68
2, 19140, Note_on_c, 0, 71, 64
2, 19200, Note_off_c, 0, 71, 49
2, 19200, Note_on_c, 0, 72, 64
2, 19440, Note_off_c, 0, 72, 57
2, 19440, Note_on_c, 0, 71, 64
2, 19560, Note_off_c, 0, 71, 51
2, 19560, Note_on_c, 0, 74, 64
2, 19680, Note_off_c, 0, 74, 66
2, 19680, Note_on_c, 0, 67, 64
2, 19800, Note_off_c, 0, 67, 28
2, 19800, Note_on_c, 0, 79, 64
2, 19920, Note_off_c, 0, 79, 61
2, 19920, Note_on_c, 0, 80, 64
2, 20040, Note_off_c, 0, 80, 51
2, 20040, Note_on_c, 0, 72, 64
2, 20160, Note_off_c, 0, 72, 58
2, 20160, Note_on_c, 0, 71, 64
2, 20400, Note_off_c, 0, 71, 49
2, 20400, Note_on_c, 0, 72, 64
2, 20640, Note_off_c, 0, 72, 54
2, 20760, Note_on_c, 0, 74, 64
2, 20820, Note_off_c, 0, 74, 61
2, 20820, Note_on_c, 0, 75, 64
2, 20880, Note_off_c, 0, 75, 62
2, 20880, Note_on_c, 0, 77, 64
2, 21000, Note_off_c, 0, 77, 63
2, 21000, Note_on_c, 0, 75, 64
2, 21060, Note_off_c, 0, 75, 54
2, 21060, Note_on_c, 0, 74, 64
2, 21120, Note_off_c, 0, 74, 52
2, 21120, Note_on_c, 0, 75, 64
2, 21180, Note_off_c, 0, 75, 57
2, 21180, Note_on_c, 0, 74, 64
2, 21240, Note_off_c, 0, 74, 58
2, 21240, Note_on_c, 0, 75, 64
2, 21300, Note_off_c, 0, 75, 62
2, 21300, Note_on_c, 0, 77, 64
2, 21360, Note_off_c, 0, 77, 54
2, 21360, Note_on_c, 0, 79, 64
2, 21480, Note_off_c, 0, 79, 59
2, 21720, Note_on_c, 0, 74, 64
2, 21780, Note_off_c, 0, 74, 49
2, 21780, Note_on_c, 0, 72, 64
2, 21840, Note_off_c, 0, 72, 79
2, 21840, Note_on_c, 0, 70, 64
2, 21960, Note_off_c, 0, 70, 66
2, 21960, Note_on_c, 0, 72, 64
2, 22020, Note_off_c, 0, 72, 79
2, 22020, Note_on_c, 0, 74, 64
2, 22080, Note_off_c, 0, 74, 50
2, 22080, Note_on_c, 0, 75, 64
2, 22140, Note_off_c, 0, 75, 43
2, 22140, Note_on_c, 0, 74, 64
2, 22200, Note_off_c, 0, 74, 72
2, 22200, Note_on_c, 0, 72, 64
2, 22260, Note_off_c, 0, 72, 80
2, 22320, Note_on_c, 0, 69, 64
2, 22440, Note_off_c, 0, 69, 45
2, 22440, Note_on_c, 0, 78, 64
2, 22560, Note_off_c, 0, 78, 46
2, 22560, Note_on_c, 0, 79, 64
2, 22680, Note_off_c, 0, 79, 49
2, 22860, Note_on_c, 0, 74, 64
2, 22920, Note_off_c, 0, 74, 69
2, 22920, Note_on_c, 0, 72, 64
2, 22980, Note_off_c, 0, 72, 73
2, 22980, Note_on_c, 0, 70, 64
2, 23040, Note_off_c, 0, 70, 62
2, 23040, Note_on_c, 0, 69, 64
2, 23340, Note_off_c, 0, 69, 72
2, 23340, Note_on_c, 0, 70, 64
2, 23400, Note_off_c, 0, 70, 65
2, 23400, Note_on_c, 0, 72, 64
2, 23460, Note_off_c, 0, 72, 74
2, 23460, Note_on_c, 0, 74, 64
2, 23520, Note_off_c, 0, 74, 55
2, 23520, Note_on_c, 0, 67, 64
2, 23820, Note_off_c, 0, 67, 31
2, 23820, Note_on_c, 0, 70, 64
2, 23880, Note_off_c, 0, 70, 66
2, 23880, Note_on_c, 0, 68, 64
2, 23940, Note_off_c, 0, 68, 66
2, 23940, Note_on_c, 0, 67, 64
2, 24000, Note_off_c, 0, 67, 38
2, 24000, Note_on_c, 0, 65, 64
2, 24300, Note_off_c, 0, 65, 12
2, 24300, Note_on_c, 0, 67, 64
2, 24360, Note_off_c, 0, 67, 45
2, 24360, Note_on_c, 0, 68, 64
2, 24420, Note_off_c, 0, 68, 69
2, 24420, Note_on_c, 0, 70, 64
2, 24480, Note_off_c, 0, 70, 73
2, 24480, Note_on_c, 0, 63, 64
2, 24780, Note_off_c, 0, 63, 54
2, 24780, Note_on_c, 0, 67, 64
2, 24840, Note_off_c, 0, 67, 65
2, 24840, Note_on_c, 0, 65, 64
2, 24900, Note_off_c, 0, 65, 53
2, 24900, Note_on_c, 0, 63, 64
2, 24960, Note_off_c, 0, 63, 68
2, 24960, Note_on_c, 0, 62, 64
2, 25250, Note_off_c, 0, 62, 61
2, 25263, Note_on_c, 0, 62, 64
2, 25323, Note_off_c, 0, 62, 40
2, 25323, Note_on_c, 0, 64, 64
2, 25383, Note_off_c, 0, 64, 47
2, 25383, Note_on_c, 0, 66, 64
2, 25443, Note_off_c, 0, 66, 1
2, 25443, Note_on_c, 0, 67, 64
2, 25743, Note_off_c, 0, 67, 46
2, 25743, Note_on_c, 0, 70, 64
2, 25803, Note_off_c, 0, 70, 72
2, 25803, Note_on_c, 0, 69, 64
2, 25863, Note_off_c, 0, 69, 70
2, 25863, Note_on_c, 0, 67, 64
2, 25923, Note_off_c, 0, 67, 61
2, 25923, Note_on_c, 0, 66, 64
2, 26043, Note_off_c, 0, 66, 69
2, 26043, Note_on_c, 0, 74, 64
2, 26163, Note_off_c, 0, 74, 74
2, 26163, Note_on_c, 0, 75, 64
2, 26283, Note_off_c, 0, 75, 50
2, 26283, Note_on_c, 0, 67, 64
2, 26403, Note_off_c, 0, 67, 44
2, 26403, Note_on_c, 0, 66, 64
2, 26643, Note_off_c, 0, 66, 72
2, 26643, Note_on_c, 0, 67, 64
2, 26883, Note_off_c, 0, 67, 59
2, 27003, Note_on_c, 0, 69, 64
2, 27063, Note_off_c, 0, 69, 66
2, 27063, Note_on_c, 0, 70, 64
2, 27123, Note_off_c, 0, 70, 69
2, 27243, Note_on_c, 0, 70, 64
2, 27303, Note_off_c, 0, 70, 57
2, 27303, Note_on_c, 0, 69, 64
2, 27363, Note_off_c, 0, 69, 58
2, 27363, Note_on_c, 0, 74, 64
2, 27483, Note_off_c, 0, 74, 46
2, 28443, Note_on_c, 0, 74, 64
2, 28503, Note_off_c, 0, 74, 72
2, 28503, Note_on_c, 0, 75, 64
2, 28563, Note_off_c, 0, 75, 54
2, 28563, Note_on_c, 0, 77, 64
2, 28683, Note_off_c, 0, 77, 70
2, 28683, Note_on_c, 0, 75, 64
2, 28743, Note_off_c, 0, 75, 58
2, 28743, Note_on_c, 0, 74, 64
2, 28803, Note_off_c, 0, 74, 66
2, 28803, Note_on_c, 0, 75, 64
2, 29103, Note_off_c, 0, 75, 47
2, 29103, Note_on_c, 0, 74, 64
2, 29163, Note_off_c, 0, 74, 65
2, 29163, Note_on_c, 0, 72, 64
2, 29223, Note_off_c, 0, 72, 73
2, 29223, Note_on_c, 0, 70, 64
2, 29283, Note_off_c, 0, 70, 73
2, 29283, Note_on_c, 0, 69, 64
2, 29523, Note_off_c, 0, 69, 62
2, 29643, Note_on_c, 0, 75, 64
2, 29703, Note_off_c, 0, 75, 48
2, 29703, Note_on_c, 0, 74, 64
2, 29763, Note_off_c, 0, 74, 61
2, 29763, Note_on_c, 0, 72, 64
2, 29883, Note_off_c, 0, 72, 52
2, 29883, Note_on_c, 0, 74, 64
2, 29943, Note_off_c, 0, 74, 65
2, 29943, Note_on_c, 0, 75, 64
2, 30003, Note_off_c, 0, 75, 58
2, 30003, Note_on_c, 0, 74, 64
2, 30123, Note_off_c, 0, 74, 73
2, 30123, Note_on_c, 0, 76, 64
2, 30183, Note_off_c, 0, 76, 54
2, 30183, Note_on_c, 0, 78, 64
2, 30243, Note_off_c, 0, 78, 61
2, 30243, Note_on_c, 0, 79, 64
2, 30363, Note_off_c, 0, 79, 52
2, 30363, Note_on_c, 0, 78, 64
2, 30423, Note_off_c, 0, 78, 72
2, 30423, Note_on_c, 0, 79, 64
2, 30483, Note_off_c, 0, 79, 58
2, 30483, Note_on_c, 0, 81, 64
2, 30843, Note_off_c, 0, 81, 49
2, 30843, Note_on_c, 0, 74, 64
2, 30963, Note_off_c, 0, 74, 38
2, 30963, Note_on_c, 0, 79, 64
2, 31083, Note_off_c, 0, 79, 58
2, 31083, Note_on_c, 0, 77, 64
2, 31203, Note_off_c, 0, 77, 72
2, 31203, Note_on_c, 0, 75, 64
2, 31323, Note_off_c, 0, 75, 47
2, 31323, Note_on_c, 0, 74, 64
2, 31443, Note_off_c, 0, 74, 65
2, 31443, Note_on_c, 0, 72, 64
2, 31563, Note_off_c, 0, 72, 77
2, 31563, Note_on_c, 0, 70, 64
2, 31683, Note_off_c, 0, 70, 62
2, 31683, Note_on_c, 0, 69, 64
2, 32153, Note_off_c, 0, 69, 70
2, 32166, Note_on_c, 0, 67, 64
2, 32646, Note_off_c, 0, 67, 62
2, 32646, End_track
3, 0, Start_track
3, 0, Text_t, "RH L"
3, 120, Note_on_c, 1, 62, 64
3, 240, Note_off_c, 1, 62, 36
3, 240, Note_on_c, 1, 63, 64
3, 360, Note_off_c, 1, 63, 40
3, 360, Note_on_c, 1, 55, 64
3, 480, Note_off_c, 1, 55, 6
3, 480, Note_on_c, 1, 54, 64
3, 720, Note_off_c, 1, 54, 24
3, 720, Note_on_c, 1, 55, 64
3, 960, Note_off_c, 1, 55, 53
3, 1080, Note_on_c, 1, 57, 64
3, 1140, Note_off_c, 1, 57, 44
3, 1140, Note_on_c, 1, 58, 64
3, 1200, Note_off_c, 1, 58, 49
3, 1200, Note_on_c, 1, 60, 64
3, 1320, Note_off_c, 1, 60, 59
3, 1320, Note_on_c, 1, 58, 64
3, 1380, Note_off_c, 1, 58, 62
3, 1380, Note_on_c, 1, 57, 64
3, 1440, Note_off_c, 1, 57, 40
3, 1440, Note_on_c, 1, 58, 64
3, 1680, Note_off_c, 1, 58, 53
3, 1680, Note_on_c, 1, 55, 64
3, 1920, Note_off_c, 1, 55, 43
3, 2040, Note_on_c, 1, 57, 64
3, 2100, Note_off_c, 1, 57, 48
3, 2100, Note_on_c, 1, 55, 64
3, 2160, Note_off_c, 1, 55, 40
3, 2160, Note_on_c, 1, 53, 64
3, 2280, Note_off_c, 1, 53, 52
3, 2280, Note_on_c, 1, 55, 64
3, 2340, Note_off_c, 1, 55, 50
3, 2340, Note_on_c, 1, 57, 64
3, 2400, Note_off_c, 1, 57, 46
3, 2400, Note_on_c, 1, 58, 64
3, 2520, Note_off_c, 1, 58, 47
3, 2520, Note_on_c, 1, 55, 64
3, 2640, Note_off_c, 1, 55, 41
3, 2640, Note_on_c, 1, 52, 64
3, 2760, Note_off_c, 1, 52, 42
3, 2760, Note_on_c, 1, 61, 64
3, 2880, Note_off_c, 1, 61, 53
3, 2880, Note_on_c, 1, 62, 64
3, 3240, Note_off_c, 1, 62, 43
3, 3240, Note_on_c, 1, 64, 64
3, 3360, Note_off_c, 1, 64, 40
3, 3360, Note_on_c, 1, 65, 64
3, 3480, Note_off_c, 1, 65, 1
3, 3480, Note_on_c, 1, 64, 64
3, 3600, Note_off_c, 1, 64, 43
3, 3600, Note_on_c, 1, 65, 64
3, 3720, Note_off_c, 1, 65, 1
3, 3720, Note_on_c, 1, 67, 64
3, 3840, Note_off_c, 1, 67, 49
3, 3840, Note_on_c, 1, 69, 64
3, 3960, Note_off_c, 1, 69, 65
3, 3960, Note_on_c, 1, 67, 64
3, 4020, Note_off_c, 1, 67, 50
3, 4020, Note_on_c, 1, 66, 64
3, 4080, Note_off_c, 1, 66, 1
3, 4080, Note_on_c, 1, 67, 64
3, 4200, Note_off_c, 1, 67, 62
3, 4200, Note_on_c, 1, 61, 64
3, 4320, Note_off_c, 1, 61, 43
3, 4320, Note_on_c, 1, 62, 64
3, 4440, Note_off_c, 1, 62, 53
3, 4440, Note_on_c, 1, 69, 64
3, 4680, Note_off_c, 1, 69, 59
3, 4680, Note_on_c, 1, 67, 64
3, 4740, Note_off_c, 1, 67, 46
3, 4740, Note_on_c, 1, 66, 64
3, 4800, Note_off_c, 1, 66, 21
3, 4800, Note_on_c, 1, 67, 64
3, 5040, Note_off_c, 1, 67, 52
3, 5040, Note_on_c, 1, 66, 64
3, 5160, Note_off_c, 1, 66, 51
3, 5160, Note_on_c, 1, 69, 64
3, 5280, Note_off_c, 1, 69, 69
3, 5280, Note_on_c, 1, 74, 64
3, 5520, Note_off_c, 1, 74, 49
3, 10680, Note_on_c, 1, 65, 64
3, 10800, Note_off_c, 1, 65, 1
3, 10800, Note_on_c, 1, 67, 64
3, 10920, Note_off_c, 1, 67, 53
3, 10920, Note_on_c, 1, 58, 64
3, 11040, Note_off_c, 1, 58, 52
3, 11040, Note_on_c, 1, 57, 64
3, 11280, Note_off_c, 1, 57, 49
3, 11280, Note_on_c, 1, 58, 64
3, 11520, Note_off_c, 1, 58, 59
3, 11640, Note_on_c, 1, 60, 64
3, 11700, Note_off_c, 1, 60, 48
3, 11700, Note_on_c, 1, 62, 64
3, 11760, Note_off_c, 1, 62, 49
3, 11760, Note_on_c, 1, 63, 64
3, 11880, Note_off_c, 1, 63, 54
3, 11880, Note_on_c, 1, 62, 64
3, 11940, Note_off_c, 1, 62, 52
3, 11940, Note_on_c, 1, 60, 64
3, 12000, Note_off_c, 1, 60, 52
3, 12000, Note_on_c, 1, 62, 64
3, 12060, Note_off_c, 1, 62, 52
3, 12060, Note_on_c, 1, 64, 64
3, 12120, Note_off_c, 1, 64, 54
3, 12120, Note_on_c, 1, 62, 64
3, 12180, Note_off_c, 1, 62, 43
3, 12180, Note_on_c, 1, 64, 64
3, 12240, Note_off_c, 1, 64, 52
3, 12240, Note_on_c, 1, 65, 64
3, 12360, Note_off_c, 1, 65, 1
3, 12360, Note_on_c, 1, 64, 64
3, 12420, Note_off_c, 1, 64, 48
3, 12420, Note_on_c, 1, 62, 64
3, 12480, Note_off_c, 1, 62, 52
3, 12480, Note_on_c, 1, 67, 64
3, 12840, Note_off_c, 1, 67, 49
3, 12840, Note_on_c, 1, 65, 64
3, 12900, Note_off_c, 1, 65, 40
3, 12900, Note_on_c, 1, 64, 64
3, 12960, Note_off_c, 1, 64, 41
3, 12960, Note_on_c, 1, 65, 64
3, 13200, Note_off_c, 1, 65, 1
3, 13200, Note_on_c, 1, 64, 64
3, 13320, Note_off_c, 1, 64, 39
3, 13320, Note_on_c, 1, 70, 64
3, 13560, Note_off_c, 1, 70, 69
3, 13560, Note_on_c, 1, 69, 64
3, 13800, Note_off_c, 1, 69, 76
3, 13800, Note_on_c, 1, 67, 64
3, 13860, Note_off_c, 1, 67, 61
3, 13860, Note_on_c, 1, 69, 64
3, 13920, Note_off_c, 1, 69, 69
3, 13920, Note_on_c, 1, 70, 64
3, 14160, Note_off_c, 1, 70, 66
3, 14160, Note_on_c, 1, 69, 64
3, 14520, Note_off_c, 1, 69, 66
3, 14580, Note_on_c, 1, 65, 64
3, 14640, Note_off_c, 1, 65, 1
3, 14640, Note_on_c, 1, 64, 64
3, 14760, Note_off_c, 1, 64, 51
3, 14760, Note_on_c, 1, 60, 64
3, 15000, Note_off_c, 1, 60, 49
3, 15000, Note_on_c, 1, 62, 64
3, 15060, Note_off_c, 1, 62, 53
3, 15060, Note_on_c, 1, 63, 64
3, 15120, Note_off_c, 1, 63, 43
3, 15120, Note_on_c, 1, 65, 64
3, 15300, Note_off_c, 1, 65, 1
3, 15300, Note_on_c, 1, 67, 64
3, 15360, Note_off_c, 1, 67, 53
3, 15360, Note_on_c, 1, 69, 64
3, 15600, Note_off_c, 1, 69, 73
3, 15600, Note_on_c, 1, 67, 64
3, 15840, Note_off_c, 1, 67, 58
3, 15960, Note_on_c, 1, 72, 64
3, 16080, Note_off_c, 1, 72, 70
3, 16080, Note_on_c, 1, 74, 64
3, 16200, Note_off_c, 1, 74, 74
3, 16200, Note_on_c, 1, 65, 64
3, 16320, Note_off_c, 1, 65, 1
3, 16320, Note_on_c, 1, 63, 64
3, 16560, Note_off_c, 1, 63, 62
3, 16560, Note_on_c, 1, 65, 64
3, 16800, Note_off_c, 1, 65, 65
3, 16920, Note_on_c, 1, 65, 64
3, 16980, Note_off_c, 1, 65, 40
3, 16980, Note_on_c, 1, 67, 64
3, 17040, Note_off_c, 1, 67, 52
3, 17040, Note_on_c, 1, 68, 64
3, 17160, Note_off_c, 1, 68, 74
3, 17160, Note_on_c, 1, 67, 64
3, 17220, Note_off_c, 1, 67, 58
3, 17220, Note_on_c, 1, 65, 64
3, 17280, Note_off_c, 1, 65, 59
3, 17280, Note_on_c, 1, 67, 64
3, 17400, Note_off_c, 1, 67, 59
3, 17880, Note_on_c, 1, 77, 64
3, 17940, Note_off_c, 1, 77, 57
3, 17940, Note_on_c, 1, 75, 64
3, 18000, Note_off_c, 1, 75, 52
3, 18000, Note_on_c, 1, 74, 64
3, 18120, Note_off_c, 1, 74, 69
3, 18120, Note_on_c, 1, 75, 64
3, 18180, Note_off_c, 1, 75, 63
3, 18180, Note_on_c, 1, 77, 64
3, 18240, Note_off_c, 1, 77, 73
3, 18240, Note_on_c, 1, 71, 64
3, 18360, Note_off_c, 1, 71, 49
3, 18360, Note_on_c, 1, 75, 64
3, 18420, Note_off_c, 1, 75, 51
3, 18420, Note_on_c, 1, 74, 64
3, 18480, Note_off_c, 1, 74, 69
3, 18480, Note_on_c, 1, 72, 64
3, 18600, Note_off_c, 1, 72, 69
3, 18600, Note_on_c, 1, 74, 64
3, 18660, Note_off_c, 1, 74, 72
3, 18660, Note_on_c, 1, 75, 64
3, 18720, Note_off_c, 1, 75, 70
3, 18720, Note_on_c, 1, 65, 64
3, 18840, Note_off_c, 1, 65, 55
3, 18840, Note_on_c, 1, 67, 64
3, 18900, Note_off_c, 1, 67, 61
3, 18900, Note_on_c, 1, 65, 64
3, 18960, Note_off_c, 1, 65, 46
3, 18960, Note_on_c, 1, 63, 64
3, 19080, Note_off_c, 1, 63, 58
3, 19080, Note_on_c, 1, 65, 64
3, 19140, Note_off_c, 1, 65, 1
3, 19140, Note_on_c, 1, 67, 64
3, 19200, Note_off_c, 1, 67, 63
3, 19200, Note_on_c, 1, 68, 64
3, 19320, Note_off_c, 1, 68, 74
3, 19320, Note_on_c, 1, 65, 64
3, 19440, Note_off_c, 1, 65, 55
3, 19440, Note_on_c, 1, 62, 64
3, 19560, Note_off_c, 1, 62, 29
3, 19560, Note_on_c, 1, 71, 64
3, 19680, Note_off_c, 1, 71, 79
3, 19680, Note_on_c, 1, 72, 64
3, 19920, Note_off_c, 1, 72, 61
3, 20040, Note_on_c, 1, 63, 64
3, 20160, Note_off_c, 1, 63, 55
3, 20160, Note_on_c, 1, 62, 64
3, 20280, Note_off_c, 1, 62, 40
3, 20280, Note_on_c, 1, 63, 64
3, 20340, Note_off_c, 1, 63, 54
3, 20340, Note_on_c, 1, 65, 64
3, 20400, Note_off_c, 1, 65, 49
3, 20400, Note_on_c, 1, 67, 64
3, 20520, Note_off_c, 1, 67, 62
3, 20520, Note_on_c, 1, 69, 64
3, 20580, Note_off_c, 1, 69, 59
3, 20580, Note_on_c, 1, 71, 64
3, 20640, Note_off_c, 1, 71, 80
3, 20640, Note_on_c, 1, 72, 64
3, 20760, Note_off_c, 1, 72, 82
3, 20760, Note_on_c, 1, 71, 64
3, 20820, Note_off_c, 1, 71, 74
3, 20820, Note_on_c, 1, 72, 64
3, 20880, Note_off_c, 1, 72, 83
3, 20880, Note_on_c, 1, 74, 64
3, 21000, Note_off_c, 1, 74, 65
3, 21000, Note_on_c, 1, 67, 64
3, 21240, Note_off_c, 1, 67, 46
3, 21240, Note_on_c, 1, 72, 64
3, 21300, Note_off_c, 1, 72, 73
3, 21300, Note_on_c, 1, 74, 64
3, 21360, Note_off_c, 1, 74, 57
3, 21360, Note_on_c, 1, 75, 64
3, 21480, Note_off_c, 1, 75, 49
3, 21480, Note_on_c, 1, 67, 64
3, 21600, Note_off_c, 1, 67, 30
3, 21600, Note_on_c, 1, 66, 64
3, 21840, Note_off_c, 1, 66, 32
3, 21840, Note_on_c, 1, 67, 64
3, 22200, Note_off_c, 1, 67, 57
3, 22200, Note_on_c, 1, 69, 64
3, 22260, Note_off_c, 1, 69, 68
3, 22260, Note_on_c, 1, 70, 64
3, 22320, Note_off_c, 1, 70, 69
3, 22320, Note_on_c, 1, 72, 64
3, 22440, Note_off_c, 1, 72, 83
3, 22440, Note_on_c, 1, 70, 64
3, 22500, Note_off_c, 1, 70, 73
3, 22500, Note_on_c, 1, 69, 64
3, 22560, Note_off_c, 1, 69, 73
3, 22560, Note_on_c, 1, 70, 64
3, 22620, Note_off_c, 1, 70, 73
3, 22620, Note_on_c, 1, 62, 64
3, 22680, Note_off_c, 1, 62, 33
3, 22680, Note_on_c, 1, 64, 64
3, 22740, Note_off_c, 1, 64, 43
3, 22740, Note_on_c, 1, 66, 64
3, 22800, Note_off_c, 1, 66, 59
3, 22800, Note_on_c, 1, 67, 64
3, 23090, Note_off_c, 1, 67, 58
3, 23103, Note_on_c, 1, 67, 64
3, 23163, Note_off_c, 1, 67, 62
3, 23163, Note_on_c, 1, 65, 64
3, 23223, Note_off_c, 1, 65, 62
3, 23223, Note_on_c, 1, 63, 64
3, 23283, Note_off_c, 1, 63, 54
3, 23283, Note_on_c, 1, 62, 64
3, 23583, Note_off_c, 1, 62, 58
3, 23583, Note_on_c, 1, 58, 64
3, 23643, Note_off_c, 1, 58, 68
3, 23643, Note_on_c, 1, 60, 64
3, 23703, Note_off_c, 1, 60, 66
3, 23703, Note_on_c, 1, 62, 64
3, 23763, Note_off_c, 1, 62, 63
3, 23763, Note_on_c, 1, 63, 64
3, 24053, Note_off_c, 1, 63, 52
3, 24066, Note_on_c, 1, 63, 64
3, 24126, Note_off_c, 1, 63, 52
3, 24126, Note_on_c, 1, 62, 64
3, 24186, Note_off_c, 1, 62, 50
3, 24186, Note_on_c, 1, 60, 64
3, 24246, Note_off_c, 1, 60, 40
3, 24246, Note_on_c, 1, 58, 64
3, 24546, Note_off_c, 1, 58, 66
3, 24546, Note_on_c, 1, 55, 64
3, 24606, Note_off_c, 1, 55, 51
3, 24606, Note_on_c, 1, 57, 64
3, 24666, Note_off_c, 1, 57, 55
3, 24666, Note_on_c, 1, 59, 64
3, 24726, Note_off_c, 1, 59, 61
3, 24726, Note_on_c, 1, 60, 64
3, 25016, Note_off_c, 1, 60, 72
3, 25029, Note_on_c, 1, 60, 64
3, 25089, Note_off_c, 1, 60, 68
3, 25089, Note_on_c, 1, 58, 64
3, 25149, Note_off_c, 1, 58, 73
3, 25149, Note_on_c, 1, 57, 64
3, 25209, Note_off_c, 1, 57, 59
3, 25209, Note_on_c, 1, 55, 64
3, 25499, Note_off_c, 1, 55, 31
3, 25512, Note_on_c, 1, 55, 64
3, 25572, Note_off_c, 1, 55, 30
3, 25572, Note_on_c, 1, 57, 64
3, 25632, Note_off_c, 1, 57, 61
3, 25632, Note_on_c, 1, 58, 64
3, 25692, Note_off_c, 1, 58, 63
3, 25692, Note_on_c, 1, 60, 64
3, 25812, Note_off_c, 1, 60, 65
3, 25812, Note_on_c, 1, 61, 64
3, 25932, Note_off_c, 1, 61, 72
3, 25932, Note_on_c, 1, 62, 64
3, 26172, Note_off_c, 1, 62, 52
3, 26532, Note_on_c, 1, 74, 64
3, 26592, Note_off_c, 1, 74, 63
3, 26592, Note_on_c, 1, 72, 64
3, 26652, Note_off_c, 1, 72, 73
3, 26652, Note_on_c, 1, 70, 64
3, 26772, Note_off_c, 1, 70, 77
3, 26772, Note_on_c, 1, 72, 64
3, 26832, Note_off_c, 1, 72, 77
3, 26832, Note_on_c, 1, 74, 64
3, 26892, Note_off_c, 1, 74, 57
3, 26892, Note_on_c, 1, 75, 64
3, 27012, Note_off_c, 1, 75, 53
3, 27012, Note_on_c, 1, 74, 64
3, 27132, Note_off_c, 1, 74, 68
3, 27132, Note_on_c, 1, 72, 64
3, 27252, Note_off_c, 1, 72, 77
3, 27252, Note_on_c, 1, 75, 64
3, 27372, Note_off_c, 1, 75, 47
3, 27372, Note_on_c, 1, 69, 64
3, 27492, Note_off_c, 1, 69, 61
3, 27972, Note_on_c, 1, 66, 64
3, 28032, Note_off_c, 1, 66, 58
3, 28032, Note_on_c, 1, 67, 64
3, 28092, Note_off_c, 1, 67, 52
3, 28092, Note_on_c, 1, 69, 64
3, 28212, Note_off_c, 1, 69, 69
3, 28212, Note_on_c, 1, 67, 64
3, 28272, Note_off_c, 1, 67, 59
3, 28272, Note_on_c, 1, 66, 64
3, 28332, Note_off_c, 1, 66, 66
3, 28332, Note_on_c, 1, 67, 64
3, 29292, Note_off_c, 1, 67, 58
3, 29412, Note_on_c, 1, 74, 64
3, 29532, Note_off_c, 1, 74, 61
3, 29532, Note_on_c, 1, 75, 64
3, 29652, Note_off_c, 1, 75, 61
3, 29652, Note_on_c, 1, 67, 64
3, 29772, Note_off_c, 1, 67, 41
3, 29772, Note_on_c, 1, 66, 64
3, 30012, Note_off_c, 1, 66, 59
3, 30012, Note_on_c, 1, 67, 64
3, 30252, Note_off_c, 1, 67, 50
3, 30372, Note_on_c, 1, 69, 64
3, 30432, Note_off_c, 1, 69, 72
3, 30432, Note_on_c, 1, 70, 64
3, 30492, Note_off_c, 1, 70, 66
3, 30492, Note_on_c, 1, 72, 64
3, 30612, Note_off_c, 1, 72, 79
3, 30612, Note_on_c, 1, 70, 64
3, 30672, Note_off_c, 1, 70, 72
3, 30672, Note_on_c, 1, 69, 64
3, 30732, Note_off_c, 1, 69, 74
3, 30732, Note_on_c, 1, 70, 64
3, 31092, Note_off_c, 1, 70, 65
3, 31092, Note_on_c, 1, 71, 64
3, 31092, Note_on_c, 1, 67, 64
3, 31212, Note_off_c, 1, 67, 53
3, 31212, Note_off_c, 1, 71, 76
3, 31212, Note_on_c, 1, 72, 64
3, 31212, Note_on_c, 1, 69, 64
3, 31332, Note_off_c, 1, 69, 52
3, 31332, Note_off_c, 1, 72, 54
3, 31452, Note_on_c, 1, 67, 64
3, 31452, Note_on_c, 1, 62, 64
3, 31572, Note_off_c, 1, 62, 23
3, 31572, Note_off_c, 1, 67, 52
3, 31692, Note_on_c, 1, 63, 64
3, 31692, Note_on_c, 1, 67, 64
3, 31932, Note_off_c, 1, 67, 45
3, 31932, Note_off_c, 1, 63, 47
3, 31932, Note_on_c, 1, 66, 64
3, 31932, Note_on_c, 1, 62, 64
3, 32162, Note_off_c, 1, 62, 50
3, 32162, Note_off_c, 1, 66, 65
3, 32175, Note_on_c, 1, 62, 64
3, 32655, Note_off_c, 1, 62, 59
3, 32655, End_track
4, 0, Start_track
4, 0, Text_t, "LH H"
4, 5400, Note_on_c, 2, 57, 64
4, 5520, Note_off_c, 2, 57, 54
4, 5520, Note_on_c, 2, 58, 64
4, 5640, Note_off_c, 2, 58, 47
4, 5640, Note_on_c, 2, 50, 64
4, 5760, Note_off_c, 2, 50, 23
4, 5760, Note_on_c, 2, 49, 64
4, 6000, Note_off_c, 2, 49, 74
4, 6000, Note_on_c, 2, 50, 64
4, 6240, Note_off_c, 2, 50, 40
4, 6360, Note_on_c, 2, 52, 64
4, 6420, Note_off_c, 2, 52, 55
4, 6420, Note_on_c, 2, 53, 64
4, 6480, Note_off_c, 2, 53, 61
4, 6480, Note_on_c, 2, 55, 64
4, 6600, Note_off_c, 2, 55, 40
4, 6600, Note_on_c, 2, 53, 64
4, 6660, Note_off_c, 2, 53, 65
4, 6660, Note_on_c, 2, 52, 64
4, 6720, Note_off_c, 2, 52, 41
4, 6720, Note_on_c, 2, 53, 64
4, 6840, Note_off_c, 2, 53, 58
4, 6840, Note_on_c, 2, 55, 64
4, 6900, Note_off_c, 2, 55, 46
4, 6900, Note_on_c, 2, 57, 64
4, 6960, Note_off_c, 2, 57, 57
4, 6960, Note_on_c, 2, 58, 64
4, 7080, Note_off_c, 2, 58, 57
4, 7080, Note_on_c, 2, 57, 64
4, 7140, Note_off_c, 2, 57, 51
4, 7140, Note_on_c, 2, 55, 64
4, 7200, Note_off_c, 2, 55, 49
4, 7200, Note_on_c, 2, 57, 64
4, 7320, Note_off_c, 2, 57, 57
4, 7320, Note_on_c, 2, 58, 64
4, 7380, Note_off_c, 2, 58, 68
4, 7380, Note_on_c, 2, 60, 64
4, 7440, Note_off_c, 2, 60, 62
4, 7440, Note_on_c, 2, 62, 64
4, 7560, Note_off_c, 2, 62, 43
4, 7560, Note_on_c, 2, 60, 64
4, 7620, Note_off_c, 2, 60, 63
4, 7620, Note_on_c, 2, 58, 64
4, 7680, Note_off_c, 2, 58, 52
4, 7680, Note_on_c, 2, 60, 64
4, 8400, Note_off_c, 2, 60, 62
4, 8400, Note_on_c, 2, 58, 64
4, 8520, Note_off_c, 2, 58, 62
4, 8520, Note_on_c, 2, 63, 64
4, 8640, Note_off_c, 2, 63, 47
4, 8640, Note_on_c, 2, 57, 64
4, 8700, Note_off_c, 2, 57, 23
4, 8700, Note_on_c, 2, 58, 64
4, 8760, Note_off_c, 2, 58, 54
4, 8760, Note_on_c, 2, 57, 64
4, 8820, Note_off_c, 2, 57, 40
4, 8820, Note_on_c, 2, 58, 64
4, 8880, Note_off_c, 2, 58, 47
4, 8880, Note_on_c, 2, 60, 64
4, 9000, Note_off_c, 2, 60, 57
4, 9000, Note_on_c, 2, 58, 64
4, 9060, Note_off_c, 2, 58, 59
4, 9060, Note_on_c, 2, 57, 64
4, 9120, Note_off_c, 2, 57, 46
4, 9120, Note_on_c, 2, 58, 64
4, 9240, Note_off_c, 2, 58, 50
4, 9240, Note_on_c, 2, 60, 64
4, 9300, Note_off_c, 2, 60, 54
4, 9300, Note_on_c, 2, 62, 64
4, 9360, Note_off_c, 2, 62, 54
4, 9360, Note_on_c, 2, 63, 64
4, 9840, Note_off_c, 2, 63, 44
4, 9840, Note_on_c, 2, 62, 64
4, 10080, Note_off_c, 2, 62, 53
4, 10080, Note_on_c, 2, 60, 64
4, 10560, Note_off_c, 2, 60, 46
4, 10560, Note_on_c, 2, 62, 64
4, 10800, Note_off_c, 2, 62, 53
4, 11160, Note_on_c, 2, 53, 64
4, 11220, Note_off_c, 2, 53, 40
4, 11220, Note_on_c, 2, 51, 64
4, 11280, Note_off_c, 2, 51, 52
4, 11280, Note_on_c, 2, 50, 64
4, 11400, Note_off_c, 2, 50, 39
4, 11400, Note_on_c, 2, 51, 64
4, 11460, Note_off_c, 2, 51, 51
4, 11460, Note_on_c, 2, 53, 64
4, 11520, Note_off_c, 2, 53, 53
4, 11520, Note_on_c, 2, 55, 64
4, 11640, Note_off_c, 2, 55, 58
4, 11640, Note_on_c, 2, 51, 64
4, 11760, Note_off_c, 2, 51, 40
4, 11760, Note_on_c, 2, 48, 64
4, 11880, Note_off_c, 2, 48, 20
4, 11880, Note_on_c, 2, 57, 64
4, 12000, Note_off_c, 2, 57, 45
4, 12000, Note_on_c, 2, 58, 64
4, 12600, Note_off_c, 2, 58, 52
4, 12600, Note_on_c, 2, 60, 64
4, 12660, Note_off_c, 2, 60, 59
4, 12660, Note_on_c, 2, 58, 64
4, 12720, Note_off_c, 2, 58, 52
4, 12720, Note_on_c, 2, 57, 64
4, 12840, Note_off_c, 2, 57, 59
4, 12840, Note_on_c, 2, 58, 64
4, 12900, Note_off_c, 2, 58, 55
4, 12900, Note_on_c, 2, 60, 64
4, 12960, Note_off_c, 2, 60, 53
4, 12960, Note_on_c, 2, 62, 64
4, 13080, Note_off_c, 2, 62, 53
4, 13080, Note_on_c, 2, 58, 64
4, 13200, Note_off_c, 2, 58, 31
4, 13200, Note_on_c, 2, 55, 64
4, 13320, Note_off_c, 2, 55, 34
4, 13320, Note_on_c, 2, 64, 64
4, 13440, Note_off_c, 2, 64, 48
4, 13440, Note_on_c, 2, 65, 64
4, 13620, Note_off_c, 2, 65, 6
4, 13620, Note_on_c, 2, 63, 64
4, 13680, Note_off_c, 2, 63, 48
4, 13680, Note_on_c, 2, 62, 64
4, 13920, Note_off_c, 2, 62, 54
4, 13920, Note_on_c, 2, 60, 64
4, 14280, Note_off_c, 2, 60, 53
4, 14280, Note_on_c, 2, 62, 64
4, 14340, Note_off_c, 2, 62, 51
4, 14340, Note_on_c, 2, 60, 64
4, 14400, Note_off_c, 2, 60, 48
4, 14400, Note_on_c, 2, 58, 64
4, 14880, Note_off_c, 2, 58, 43
4, 14880, Note_on_c, 2, 57, 64
4, 15120, Note_off_c, 2, 57, 49
4, 15180, Note_on_c, 2, 58, 64
4, 15240, Note_off_c, 2, 58, 58
4, 15240, Note_on_c, 2, 60, 64
4, 15300, Note_off_c, 2, 60, 69
4, 15300, Note_on_c, 2, 62, 64
4, 15360, Note_off_c, 2, 62, 44
4, 15360, Note_on_c, 2, 63, 64
4, 15480, Note_off_c, 2, 63, 50
4, 15480, Note_on_c, 2, 65, 64
4, 15540, Note_off_c, 2, 65, 54
4, 15540, Note_on_c, 2, 63, 64
4, 15600, Note_off_c, 2, 63, 54
4, 15600, Note_on_c, 2, 62, 64
4, 15720, Note_off_c, 2, 62, 50
4, 15720, Note_on_c, 2, 55, 64
4, 15960, Note_off_c, 2, 55, 23
4, 15960, Note_on_c, 2, 53, 64
4, 16080, Note_off_c, 2, 53, 43
4, 16080, Note_on_c, 2, 58, 64
4, 16200, Note_off_c, 2, 58, 61
4, 16200, Note_on_c, 2, 56, 64
4, 16320, Note_off_c, 2, 56, 51
4, 16320, Note_on_c, 2, 55, 64
4, 16560, Note_off_c, 2, 55, 70
4, 16560, Note_on_c, 2, 57, 64
4, 16680, Note_off_c, 2, 57, 53
4, 16680, Note_on_c, 2, 60, 64
4, 16800, Note_off_c, 2, 60, 54
4, 16800, Note_on_c, 2, 53, 64
4, 16920, Note_off_c, 2, 53, 43
4, 26520, Note_on_c, 2, 62, 64
4, 26640, Note_off_c, 2, 62, 50
4, 26640, Note_on_c, 2, 63, 64
4, 26760, Note_off_c, 2, 63, 48
4, 26760, Note_on_c, 2, 55, 64
4, 26880, Note_off_c, 2, 55, 35
4, 26880, Note_on_c, 2, 54, 64
4, 27120, Note_off_c, 2, 54, 47
4, 27120, Note_on_c, 2, 55, 64
4, 27360, Note_off_c, 2, 55, 48
4, 27480, Note_on_c, 2, 57, 64
4, 27540, Note_off_c, 2, 57, 49
4, 27540, Note_on_c, 2, 58, 64
4, 27600, Note_off_c, 2, 58, 63
4, 27600, Note_on_c, 2, 60, 64
4, 27720, Note_off_c, 2, 60, 63
4, 27720, Note_on_c, 2, 58, 64
4, 27780, Note_off_c, 2, 58, 59
4, 27780, Note_on_c, 2, 57, 64
4, 27840, Note_off_c, 2, 57, 52
4, 27840, Note_on_c, 2, 58, 64
4, 28440, Note_off_c, 2, 58, 59
4, 28440, Note_on_c, 2, 59, 64
4, 28500, Note_off_c, 2, 59, 52
4, 28500, Note_on_c, 2, 57, 64
4, 28560, Note_off_c, 2, 57, 43
4, 28560, Note_on_c, 2, 55, 64
4, 28680, Note_off_c, 2, 55, 40
4, 28680, Note_on_c, 2, 57, 64
4, 28740, Note_off_c, 2, 57, 55
4, 28740, Note_on_c, 2, 59, 64
4, 28800, Note_off_c, 2, 59, 57
4, 28800, Note_on_c, 2, 60, 64
4, 29040, Note_off_c, 2, 60, 65
4, 30840, Note_on_c, 2, 62, 64
4, 30960, Note_off_c, 2, 62, 51
4, 30960, Note_on_c, 2, 63, 64
4, 31080, Note_off_c, 2, 63, 52
4, 31080, Note_on_c, 2, 55, 64
4, 31200, Note_off_c, 2, 55, 30
4, 31200, Note_on_c, 2, 54, 64
4, 31440, Note_off_c, 2, 54, 55
4, 31440, Note_on_c, 2, 55, 64
4, 31680, Note_off_c, 2, 55, 48
4, 31800, Note_on_c, 2, 57, 64
4, 31860, Note_off_c, 2, 57, 42
4, 31860, Note_on_c, 2, 58, 64
4, 31920, Note_off_c, 2, 58, 57
4, 31920, Note_on_c, 2, 60, 64
4, 32040, Note_off_c, 2, 60, 63
4, 32040, Note_on_c, 2, 58, 64
4, 32100, Note_off_c, 2, 58, 61
4, 32100, Note_on_c, 2, 57, 64
4, 32160, Note_off_c, 2, 57, 37
4, 32160, Note_on_c, 2, 59, 64
4, 32640, Note_off_c, 2, 59, 69
4, 32640, End_track
5, 0, Start_track
5, 0, Text_t, "LH L"
5, 3960, Note_on_c, 0, 50, 64
5, 4080, Note_off_c, 0, 50, 49
5, 4080, Note_on_c, 0, 51, 64
5, 4200, Note_off_c, 0, 51, 48
5, 4200, Note_on_c, 0, 43, 64
5, 4320, Note_off_c, 0, 43, 13
5, 4320, Note_on_c, 0, 42, 64
5, 4560, Note_off_c, 0, 42, 54
5, 4560, Note_on_c, 0, 43, 64
5, 4800, Note_off_c, 0, 43, 40
5, 4920, Note_on_c, 0, 45, 64
5, 4980, Note_off_c, 0, 45, 37
5, 4980, Note_on_c, 0, 46, 64
5, 5040, Note_off_c, 0, 46, 59
5, 5040, Note_on_c, 0, 48, 64
5, 5160, Note_off_c, 0, 48, 61
5, 5160, Note_on_c, 0, 46, 64
5, 5220, Note_off_c, 0, 46, 66
5, 5220, Note_on_c, 0, 45, 64
5, 5280, Note_off_c, 0, 45, 49
5, 5280, Note_on_c, 0, 46, 64
5, 5520, Note_off_c, 0, 46, 61
5, 5520, Note_on_c, 0, 43, 64
5, 5760, Note_off_c, 0, 43, 30
5, 5880, Note_on_c, 0, 45, 64
5, 5940, Note_off_c, 0, 45, 46
5, 5940, Note_on_c, 0, 43, 64
5, 6000, Note_off_c, 0, 43, 34
5, 6000, Note_on_c, 0, 41, 64
5, 6120, Note_off_c, 0, 41, 23
5, 6120, Note_on_c, 0, 43, 64
5, 6180, Note_off_c, 0, 43, 54
5, 6180, Note_on_c, 0, 45, 64
5, 6240, Note_off_c, 0, 45, 59
5, 6240, Note_on_c, 0, 46, 64
5, 6360, Note_off_c, 0, 46, 61
5, 6360, Note_on_c, 0, 43, 64
5, 6480, Note_off_c, 0, 43, 45
5, 6480, Note_on_c, 0, 40, 64
5, 6600, Note_off_c, 0, 40, 23
5, 6600, Note_on_c, 0, 49, 64
5, 6720, Note_off_c, 0, 49, 72
5, 6720, Note_on_c, 0, 50, 64
5, 7680, Note_off_c, 0, 50, 73
5, 7680, Note_on_c, 0, 52, 64
5, 7800, Note_off_c, 0, 52, 63
5, 7800, Note_on_c, 0, 57, 64
5, 7860, Note_off_c, 0, 57, 45
5, 7860, Note_on_c, 0, 55, 64
5, 7920, Note_off_c, 0, 55, 59
5, 7920, Note_on_c, 0, 54, 64
5, 8040, Note_off_c, 0, 54, 52
5, 8040, Note_on_c, 0, 55, 64
5, 8100, Note_off_c, 0, 55, 66
5, 8100, Note_on_c, 0, 57, 64
5, 8160, Note_off_c, 0, 57, 58
5, 8160, Note_on_c, 0, 46, 64
5, 8280, Note_off_c, 0, 46, 61
5, 8280, Note_on_c, 0, 48, 64
5, 8340, Note_off_c, 0, 48, 38
5, 8340, Note_on_c, 0, 50, 64
5, 8400, Note_off_c, 0, 50, 54
5, 8400, Note_on_c, 0, 51, 64
5, 8520, Note_off_c, 0, 51, 62
5, 8520, Note_on_c, 0, 50, 64
5, 8580, Note_off_c, 0, 50, 58
5, 8580, Note_on_c, 0, 48, 64
5, 8640, Note_off_c, 0, 48, 38
5, 8640, Note_on_c, 0, 50, 64
5, 9120, Note_off_c, 0, 50, 55
5, 9120, Note_on_c, 0, 43, 64
5, 9480, Note_off_c, 0, 43, 25
5, 9480, Note_on_c, 0, 45, 64
5, 9600, Note_off_c, 0, 45, 45
5, 9600, Note_on_c, 0, 46, 64
5, 9720, Note_off_c, 0, 46, 68
5, 9720, Note_on_c, 0, 53, 64
5, 9840, Note_off_c, 0, 53, 62
5, 9840, Note_on_c, 0, 55, 64
5, 9960, Note_off_c, 0, 55, 65
5, 9960, Note_on_c, 0, 50, 64
5, 10080, Note_off_c, 0, 50, 59
5, 10080, Note_on_c, 0, 51, 64
5, 10200, Note_off_c, 0, 51, 55
5, 10200, Note_on_c, 0, 50, 64
5, 10260, Note_off_c, 0, 50, 50
5, 10260, Note_on_c, 0, 51, 64
5, 10320, Note_off_c, 0, 51, 63
5, 10320, Note_on_c, 0, 53, 64
5, 10440, Note_off_c, 0, 53, 73
5, 10440, Note_on_c, 0, 41, 64
5, 10560, Note_off_c, 0, 41, 22
5, 10560, Note_on_c, 0, 46, 64
5, 10800, Note_off_c, 0, 46, 65
5, 12120, Note_on_c, 0, 46, 64
5, 12240, Note_off_c, 0, 46, 51
5, 12240, Note_on_c, 0, 50, 64
5, 12360, Note_off_c, 0, 50, 51
5, 12360, Note_on_c, 0, 41, 64
5, 12480, Note_off_c, 0, 41, 28
5, 12480, Note_on_c, 0, 40, 64
5, 12720, Note_off_c, 0, 40, 16
5, 12720, Note_on_c, 0, 41, 64
5, 12960, Note_off_c, 0, 41, 49
5, 13080, Note_on_c, 0, 43, 64
5, 13140, Note_off_c, 0, 43, 30
5, 13140, Note_on_c, 0, 45, 64
5, 13200, Note_off_c, 0, 45, 54
5, 13200, Note_on_c, 0, 46, 64
5, 13320, Note_off_c, 0, 46, 58
5, 13320, Note_on_c, 0, 45, 64
5, 13380, Note_off_c, 0, 45, 62
5, 13380, Note_on_c, 0, 43, 64
5, 13440, Note_off_c, 0, 43, 22
5, 13440, Note_on_c, 0, 45, 64
5, 13680, Note_off_c, 0, 45, 59
5, 13680, Note_on_c, 0, 46, 64
5, 13920, Note_off_c, 0, 46, 49
5, 14040, Note_on_c, 0, 48, 64
5, 14100, Note_off_c, 0, 48, 63
5, 14100, Note_on_c, 0, 46, 64
5, 14160, Note_off_c, 0, 46, 62
5, 14160, Note_on_c, 0, 45, 64
5, 14280, Note_off_c, 0, 45, 52
5, 14280, Note_on_c, 0, 46, 64
5, 14340, Note_off_c, 0, 46, 69
5, 14340, Note_on_c, 0, 48, 64
5, 14400, Note_off_c, 0, 48, 61
5, 14400, Note_on_c, 0, 50, 64
5, 14520, Note_off_c, 0, 50, 51
5, 14520, Note_on_c, 0, 46, 64
5, 14640, Note_off_c, 0, 46, 59
5, 14640, Note_on_c, 0, 43, 64
5, 14760, Note_off_c, 0, 43, 37
5, 14760, Note_on_c, 0, 52, 64
5, 14880, Note_off_c, 0, 52, 68
5, 14880, Note_on_c, 0, 53, 64
5, 15470, Note_off_c, 0, 53, 57
5, 15483, Note_on_c, 0, 53, 64
5, 15603, Note_off_c, 0, 53, 54
5, 15603, Note_on_c, 0, 55, 64
5, 15723, Note_off_c, 0, 55, 59
5, 15723, Note_on_c, 0, 46, 64
5, 15843, Note_off_c, 0, 46, 51
5, 15843, Note_on_c, 0, 45, 64
5, 16083, Note_off_c, 0, 45, 29
5, 16083, Note_on_c, 0, 46, 64
5, 16323, Note_off_c, 0, 46, 65
5, 16443, Note_on_c, 0, 48, 64
5, 16503, Note_off_c, 0, 48, 39
5, 16503, Note_on_c, 0, 50, 64
5, 16563, Note_off_c, 0, 50, 57
5, 16563, Note_on_c, 0, 51, 64
5, 16683, Note_off_c, 0, 51, 61
5, 16683, Note_on_c, 0, 50, 64
5, 16743, Note_off_c, 0, 50, 62
5, 16743, Note_on_c, 0, 48, 64
5, 16803, Note_off_c, 0, 48, 47
5, 16803, Note_on_c, 0, 50, 64
5, 16923, Note_off_c, 0, 50, 58
5, 16923, Note_on_c, 0, 48, 64
5, 16983, Note_off_c, 0, 48, 52
5, 16983, Note_on_c, 0, 46, 64
5, 17043, Note_off_c, 0, 46, 54
5, 17043, Note_on_c, 0, 48, 64
5, 17163, Note_off_c, 0, 48, 40
5, 17163, Note_on_c, 0, 50, 64
5, 17283, Note_off_c, 0, 50, 52
5, 17283, Note_on_c, 0, 51, 64
5, 17403, Note_off_c, 0, 51, 63
5, 17403, Note_on_c, 0, 50, 64
5, 17463, Note_off_c, 0, 50, 58
5, 17463, Note_on_c, 0, 48, 64
5, 17523, Note_off_c, 0, 48, 45
5, 17523, Note_on_c, 0, 50, 64
5, 17643, Note_off_c, 0, 50, 58
5, 17643, Note_on_c, 0, 52, 64
5, 17763, Note_off_c, 0, 52, 70
5, 17763, Note_on_c, 0, 53, 64
5, 17883, Note_off_c, 0, 53, 65
5, 17883, Note_on_c, 0, 41, 64
5, 17943, Note_off_c, 0, 41, 26
5, 17943, Note_on_c, 0, 43, 64
5, 18003, Note_off_c, 0, 43, 51
5, 18003, Note_on_c, 0, 44, 64
5, 18123, Note_off_c, 0, 44, 74
5, 18123, Note_on_c, 0, 43, 64
5, 18183, Note_off_c, 0, 43, 55
5, 18183, Note_on_c, 0, 41, 64
5, 18243, Note_off_c, 0, 41, 47
5, 18243, Note_on_c, 0, 43, 64
5, 18363, Note_off_c, 0, 43, 51
5, 18363, Note_on_c, 0, 55, 64
5, 18483, Note_off_c, 0, 55, 74
5, 18483, Note_on_c, 0, 56, 64
5, 18603, Note_off_c, 0, 56, 66
5, 18603, Note_on_c, 0, 48, 64
5, 18723, Note_off_c, 0, 48, 65
5, 18723, Note_on_c, 0, 47, 64
5, 18963, Note_off_c, 0, 47, 50
5, 18963, Note_on_c, 0, 48, 64
5, 19203, Note_off_c, 0, 48, 57
5, 19323, Note_on_c, 0, 50, 64
5, 19383, Note_off_c, 0, 50, 40
5, 19383, Note_on_c, 0, 51, 64
5, 19443, Note_off_c, 0, 51, 57
5, 19443, Note_on_c, 0, 53, 64
5, 19563, Note_off_c, 0, 53, 66
5, 19563, Note_on_c, 0, 51, 64
5, 19623, Note_off_c, 0, 51, 65
5, 19623, Note_on_c, 0, 50, 64
5, 19683, Note_off_c, 0, 50, 52
5, 19683, Note_on_c, 0, 51, 64
5, 19803, Note_off_c, 0, 51, 73
5, 19803, Note_on_c, 0, 52, 64
5, 19923, Note_off_c, 0, 52, 63
5, 19923, Note_on_c, 0, 53, 64
5, 20043, Note_off_c, 0, 53, 70
5, 20043, Note_on_c, 0, 54, 64
5, 20163, Note_off_c, 0, 54, 72
5, 20163, Note_on_c, 0, 55, 64
5, 20223, Note_off_c, 0, 55, 63
5, 20223, Note_on_c, 0, 56, 64
5, 20283, Note_off_c, 0, 56, 63
5, 20283, Note_on_c, 0, 55, 64
5, 20343, Note_off_c, 0, 55, 55
5, 20343, Note_on_c, 0, 53, 64
5, 20403, Note_off_c, 0, 53, 44
5, 20403, Note_on_c, 0, 51, 64
5, 20523, Note_off_c, 0, 51, 62
5, 20523, Note_on_c, 0, 53, 64
5, 20583, Note_off_c, 0, 53, 51
5, 20583, Note_on_c, 0, 55, 64
5, 20643, Note_off_c, 0, 55, 58
5, 20643, Note_on_c, 0, 56, 64
5, 20763, Note_off_c, 0, 56, 62
5, 20763, Note_on_c, 0, 53, 64
5, 20883, Note_off_c, 0, 53, 51
5, 20883, Note_on_c, 0, 50, 64
5, 21003, Note_off_c, 0, 50, 46
5, 21003, Note_on_c, 0, 59, 64
5, 21123, Note_off_c, 0, 59, 52
5, 21123, Note_on_c, 0, 60, 64
5, 21423, Note_off_c, 0, 60, 51
5, 21423, Note_on_c, 0, 62, 64
5, 21483, Note_off_c, 0, 62, 52
5, 21483, Note_on_c, 0, 60, 64
5, 21543, Note_off_c, 0, 60, 61
5, 21543, Note_on_c, 0, 58, 64
5, 21603, Note_off_c, 0, 58, 61
5, 21603, Note_on_c, 0, 57, 64
5, 21663, Note_off_c, 0, 57, 59
5, 21663, Note_on_c, 0, 50, 64
5, 21723, Note_off_c, 0, 50, 42
5, 21723, Note_on_c, 0, 48, 64
5, 21783, Note_off_c, 0, 48, 42
5, 21783, Note_on_c, 0, 50, 64
5, 21843, Note_off_c, 0, 50, 55
5, 21843, Note_on_c, 0, 51, 64
5, 21903, Note_off_c, 0, 51, 68
5, 21903, Note_on_c, 0, 50, 64
5, 21963, Note_off_c, 0, 50, 65
5, 21963, Note_on_c, 0, 48, 64
5, 22023, Note_off_c, 0, 48, 46
5, 22023, Note_on_c, 0, 46, 64
5, 22083, Note_off_c, 0, 46, 55
5, 22083, Note_on_c, 0, 45, 64
5, 22203, Note_off_c, 0, 45, 37
5, 22203, Note_on_c, 0, 48, 64
5, 22323, Note_off_c, 0, 48, 63
5, 22323, Note_on_c, 0, 50, 64
5, 22443, Note_off_c, 0, 50, 74
5, 22443, Note_on_c, 0, 38, 64
5, 22563, Note_off_c, 0, 38, 39
5, 22563, Note_on_c, 0, 43, 64
5, 22683, Note_off_c, 0, 43, 69
5, 22683, Note_on_c, 0, 55, 64
5, 22743, Note_off_c, 0, 55, 47
5, 22743, Note_on_c, 0, 57, 64
5, 22803, Note_off_c, 0, 57, 53
5, 22803, Note_on_c, 0, 58, 64
5, 22923, Note_off_c, 0, 58, 58
5, 22923, Note_on_c, 0, 57, 64
5, 22983, Note_off_c, 0, 57, 50
5, 22983, Note_on_c, 0, 55, 64
5, 23043, Note_off_c, 0, 55, 44
5, 23043, Note_on_c, 0, 62, 64
5, 23163, Note_off_c, 0, 62, 65
5, 23163, Note_on_c, 0, 50, 64
5, 23223, Note_off_c, 0, 50, 43
5, 23223, Note_on_c, 0, 51, 64
5, 23283, Note_off_c, 0, 51, 63
5, 23283, Note_on_c, 0, 53, 64
5, 23403, Note_off_c, 0, 53, 66
5, 23403, Note_on_c, 0, 51, 64
5, 23463, Note_off_c, 0, 51, 61
5, 23463, Note_on_c, 0, 50, 64
5, 23523, Note_off_c, 0, 50, 65
5, 23523, Note_on_c, 0, 39, 64
5, 23643, Note_off_c, 0, 39, 55
5, 23643, Note_on_c, 0, 51, 64
5, 23703, Note_off_c, 0, 51, 68
5, 23703, Note_on_c, 0, 53, 64
5, 23763, Note_off_c, 0, 53, 73
5, 23763, Note_on_c, 0, 55, 64
5, 23883, Note_off_c, 0, 55, 68
5, 23883, Note_on_c, 0, 53, 64
5, 23943, Note_off_c, 0, 53, 66
5, 23943, Note_on_c, 0, 51, 64
5, 24003, Note_off_c, 0, 51, 65
5, 24003, Note_on_c, 0, 58, 64
5, 24123, Note_off_c, 0, 58, 76
5, 24123, Note_on_c, 0, 46, 64
5, 24183, Note_off_c, 0, 46, 65
5, 24183, Note_on_c, 0, 48, 64
5, 24243, Note_off_c, 0, 48, 46
5, 24243, Note_on_c, 0, 50, 64
5, 24363, Note_off_c, 0, 50, 61
5, 24363, Note_on_c, 0, 48, 64
5, 24423, Note_off_c, 0, 48, 38
5, 24423, Note_on_c, 0, 46, 64
5, 24483, Note_off_c, 0, 46, 55
5, 24483, Note_on_c, 0, 36, 64
5, 24603, Note_off_c, 0, 36, 50
5, 24603, Note_on_c, 0, 48, 64
5, 24663, Note_off_c, 0, 48, 47
5, 24663, Note_on_c, 0, 50, 64
5, 24723, Note_off_c, 0, 50, 52
5, 24723, Note_on_c, 0, 51, 64
5, 24843, Note_off_c, 0, 51, 59
5, 24843, Note_on_c, 0, 50, 64
5, 24903, Note_off_c, 0, 50, 66
5, 24903, Note_on_c, 0, 48, 64
5, 24963, Note_off_c, 0, 48, 52
5, 24963, Note_on_c, 0, 55, 64
5, 25083, Note_off_c, 0, 55, 66
5, 25083, Note_on_c, 0, 43, 64
5, 25143, Note_off_c, 0, 43, 39
5, 25143, Note_on_c, 0, 45, 64
5, 25203, Note_off_c, 0, 45, 57
5, 25203, Note_on_c, 0, 46, 64
5, 25323, Note_off_c, 0, 46, 61
5, 25323, Note_on_c, 0, 45, 64
5, 25383, Note_off_c, 0, 45, 59
5, 25383, Note_on_c, 0, 43, 64
5, 25443, Note_off_c, 0, 43, 43
5, 25443, Note_on_c, 0, 51, 64
5, 25923, Note_off_c, 0, 51, 72
5, 25923, Note_on_c, 0, 50, 64
5, 26163, Note_off_c, 0, 50, 63
5, 27003, Note_on_c, 0, 50, 64
5, 27123, Note_off_c, 0, 50, 66
5, 27123, Note_on_c, 0, 51, 64
5, 27243, Note_off_c, 0, 51, 63
5, 27243, Note_on_c, 0, 43, 64
5, 27363, Note_off_c, 0, 43, 36
5, 27363, Note_on_c, 0, 42, 64
5, 27603, Note_off_c, 0, 42, 61
5, 27603, Note_on_c, 0, 43, 64
5, 27843, Note_off_c, 0, 43, 37
5, 27843, Note_on_c, 0, 38, 64
5, 27963, Note_off_c, 0, 38, 34
5, 27963, Note_on_c, 0, 50, 64
5, 28023, Note_off_c, 0, 50, 54
5, 28023, Note_on_c, 0, 48, 64
5, 28083, Note_off_c, 0, 48, 43
5, 28083, Note_on_c, 0, 46, 64
5, 28203, Note_off_c, 0, 46, 61
5, 28203, Note_on_c, 0, 48, 64
5, 28263, Note_off_c, 0, 48, 36
5, 28263, Note_on_c, 0, 50, 64
5, 28323, Note_off_c, 0, 50, 57
5, 28323, Note_on_c, 0, 51, 64
5, 28913, Note_off_c, 0, 51, 62
5, 28926, Note_on_c, 0, 51, 64
5, 28986, Note_off_c, 0, 51, 45
5, 28986, Note_on_c, 0, 50, 64
5, 29046, Note_off_c, 0, 50, 53
5, 29046, Note_on_c, 0, 48, 64
5, 29166, Note_off_c, 0, 48, 41
5, 29166, Note_on_c, 0, 50, 64
5, 29226, Note_off_c, 0, 50, 54
5, 29226, Note_on_c, 0, 51, 64
5, 29286, Note_off_c, 0, 51, 72
5, 29286, Note_on_c, 0, 42, 64
5, 29406, Note_off_c, 0, 42, 68
5, 29406, Note_on_c, 0, 45, 64
5, 29466, Note_off_c, 0, 45, 53
5, 29466, Note_on_c, 0, 43, 64
5, 29526, Note_off_c, 0, 43, 68
5, 29526, Note_on_c, 0, 42, 64
5, 29646, Note_off_c, 0, 42, 62
5, 29646, Note_on_c, 0, 43, 64
5, 29706, Note_off_c, 0, 43, 49
5, 29706, Note_on_c, 0, 45, 64
5, 29766, Note_off_c, 0, 45, 72
5, 29766, Note_on_c, 0, 38, 64
5, 29886, Note_off_c, 0, 38, 39
5, 29886, Note_on_c, 0, 50, 64
5, 29946, Note_off_c, 0, 50, 57
5, 29946, Note_on_c, 0, 48, 64
5, 30006, Note_off_c, 0, 48, 58
5, 30006, Note_on_c, 0, 46, 64
5, 30126, Note_off_c, 0, 46, 65
5, 30126, Note_on_c, 0, 48, 64
5, 30186, Note_off_c, 0, 48, 68
5, 30186, Note_on_c, 0, 50, 64
5, 30246, Note_off_c, 0, 50, 61
5, 30246, Note_on_c, 0, 51, 64
5, 30366, Note_off_c, 0, 51, 63
5, 30366, Note_on_c, 0, 48, 64
5, 30486, Note_off_c, 0, 48, 70
5, 30486, Note_on_c, 0, 45, 64
5, 30606, Note_off_c, 0, 45, 44
5, 30606, Note_on_c, 0, 54, 64
5, 30726, Note_off_c, 0, 54, 51
5, 30726, Note_on_c, 0, 55, 64
5, 30846, Note_off_c, 0, 55, 53
5, 30846, Note_on_c, 0, 53, 64
5, 30966, Note_off_c, 0, 53, 66
5, 30966, Note_on_c, 0, 51, 64
5, 31086, Note_off_c, 0, 51, 65
5, 31086, Note_on_c, 0, 50, 64
5, 31206, Note_off_c, 0, 50, 66
5, 31206, Note_on_c, 0, 48, 64
5, 31326, Note_off_c, 0, 48, 52
5, 31326, Note_on_c, 0, 46, 64
5, 31446, Note_off_c, 0, 46, 66
5, 31446, Note_on_c, 0, 45, 64
5, 31566, Note_off_c, 0, 45, 58
5, 31566, Note_on_c, 0, 43, 64
5, 31686, Note_off_c, 0, 43, 38
5, 31686, Note_on_c, 0, 48, 64
5, 31806, Note_off_c, 0, 48, 62
5, 31806, Note_on_c, 0, 45, 64
5, 31926, Note_off_c, 0, 45, 70
5, 31926, Note_on_c, 0, 50, 64
5, 32046, Note_off_c, 0, 50, 76
5, 32046, Note_on_c, 0, 38, 64
5, 32166, Note_off_c, 0, 38, 28
5, 32166, Note_on_c, 0, 43, 64
5, 32646, Note_off_c, 0, 43, 63
5, 32646, End_track
0, 0, End_of_file
