0, 0, Header, 1, 2, 240
1, 0, Start_track
1, 0, Time_signature, 12, 4, 18, 8
1, 0, Tempo, 863275
1, 49984, Tempo, 894282
1, 50048, Tempo, 910894
1, 50168, Tempo, 740741
1, 50272, Tempo, 769231
1, 50344, Tempo, 845070
1, 50380, Tempo, 1132075
1, 50400, Tempo, 857143
1, 50400, End_track
2, 0, Start_track
2, 0, Note_on_c, 0, 49, 64
2, 60, Note_off_c, 0, 49, 64
2, 60, Note_on_c, 0, 48, 64
2, 120, Note_off_c, 0, 48, 64
2, 120, Note_on_c, 0, 49, 64
2, 180, Note_off_c, 0, 49, 64
2, 180, Note_on_c, 0, 51, 64
2, 240, Note_off_c, 0, 51, 64
2, 240, Note_on_c, 0, 49, 64
2, 300, Note_off_c, 0, 49, 64
2, 300, Note_on_c, 0, 51, 64
2, 360, Note_off_c, 0, 51, 64
2, 360, Note_on_c, 0, 44, 64
2, 420, Note_off_c, 0, 44, 64
2, 420, Note_on_c, 0, 46, 64
2, 480, Note_off_c, 0, 46, 64
2, 480, Note_on_c, 0, 48, 64
2, 540, Note_off_c, 0, 48, 64
2, 540, Note_on_c, 0, 49, 64
2, 600, Note_off_c, 0, 49, 64
2, 600, Note_on_c, 0, 51, 64
2, 660, Note_off_c, 0, 51, 64
2, 660, Note_on_c, 0, 52, 64
2, 720, Note_off_c, 0, 52, 64
2, 720, Note_on_c, 0, 54, 64
2, 780, Note_off_c, 0, 54, 64
2, 780, Note_on_c, 0, 52, 64
2, 840, Note_off_c, 0, 52, 64
2, 840, Note_on_c, 0, 54, 64
2, 900, Note_off_c, 0, 54, 64
2, 900, Note_on_c, 0, 51, 64
2, 960, Note_off_c, 0, 51, 64
2, 960, Note_on_c, 0, 56, 64
2, 1020, Note_off_c, 0, 56, 64
2, 1020, Note_on_c, 0, 54, 64
2, 1080, Note_off_c, 0, 54, 64
2, 1080, Note_on_c, 0, 68, 64
2, 1080, Note_on_c, 0, 52, 64
2, 1140, Note_off_c, 0, 52, 64
2, 1140, Note_off_c, 0, 68, 64
2, 1140, Note_on_c, 0, 67, 64
2, 1140, Note_on_c, 0, 51, 64
2, 1200, Note_off_c, 0, 51, 64
2, 1200, Note_off_c, 0, 67, 64
2, 1200, Note_on_c, 0, 68, 64
2, 1200, Note_on_c, 0, 52, 64
2, 1260, Note_off_c, 0, 52, 64
2, 1260, Note_off_c, 0, 68, 64
2, 1260, Note_on_c, 0, 49, 64
2, 1260, Note_on_c, 0, 70, 64
2, 1320, Note_off_c, 0, 70, 64
2, 1320, Note_on_c, 0, 68, 64
2, 1380, Note_off_c, 0, 68, 64
2, 1380, Note_on_c, 0, 70, 64
2, 1440, Note_off_c, 0, 70, 64
2, 1440, Note_on_c, 0, 63, 64
2, 1500, Note_off_c, 0, 63, 64
2, 1500, Note_on_c, 0, 65, 64
2, 1560, Note_off_c, 0, 65, 64
2, 1560, Note_on_c, 0, 67, 64
2, 1620, Note_off_c, 0, 67, 64
2, 1620, Note_off_c, 0, 49, 64
2, 1620, Note_on_c, 0, 68, 64
2, 1620, Note_on_c, 0, 47, 64
2, 1680, Note_off_c, 0, 68, 64
2, 1680, Note_on_c, 0, 70, 64
2, 1740, Note_off_c, 0, 70, 64
2, 1740, Note_on_c, 0, 71, 64
2, 1800, Note_off_c, 0, 71, 64
2, 1800, Note_off_c, 0, 47, 64
2, 1800, Note_on_c, 0, 73, 64
2, 1800, Note_on_c, 0, 46, 64
2, 1860, Note_off_c, 0, 73, 64
2, 1860, Note_on_c, 0, 71, 64
2, 1920, Note_off_c, 0, 71, 64
2, 1920, Note_on_c, 0, 73, 64
2, 1980, Note_off_c, 0, 73, 64
2, 1980, Note_off_c, 0, 46, 64
2, 1980, Note_on_c, 0, 55, 64
2, 1980, Note_on_c, 0, 70, 64
2, 2040, Note_off_c, 0, 70, 64
2, 2040, Note_on_c, 0, 75, 64
2, 2100, Note_off_c, 0, 75, 64
2, 2100, Note_on_c, 0, 73, 64
2, 2160, Note_off_c, 0, 73, 64
2, 2160, Note_off_c, 0, 55, 64
2, 2160, Note_on_c, 0, 71, 64
2, 2160, Note_on_c, 0, 44, 64
2, 2220, Note_off_c, 0, 71, 64
2, 2220, Note_on_c, 0, 70, 64
2, 2280, Note_off_c, 0, 70, 64
2, 2280, Note_on_c, 0, 71, 64
2, 2340, Note_off_c, 0, 71, 64
2, 2340, Note_off_c, 0, 44, 64
2, 2340, Note_on_c, 0, 68, 64
2, 2340, Note_on_c, 0, 52, 64
2, 2400, Note_off_c, 0, 68, 64
2, 2400, Note_on_c, 0, 73, 64
2, 2460, Note_off_c, 0, 73, 64
2, 2460, Note_on_c, 0, 71, 64
2, 2520, Note_off_c, 0, 71, 64
2, 2520, Note_on_c, 0, 69, 64
2, 2580, Note_off_c, 0, 69, 64
2, 2580, Note_on_c, 0, 68, 64
2, 2640, Note_off_c, 0, 68, 64
2, 2640, Note_on_c, 0, 69, 64
2, 2700, Note_off_c, 0, 69, 64
2, 2700, Note_off_c, 0, 52, 64
2, 2700, Note_on_c, 0, 51, 64
2, 2700, Note_on_c, 0, 66, 64
2, 2760, Note_off_c, 0, 66, 64
2, 2760, Note_on_c, 0, 71, 64
2, 2820, Note_off_c, 0, 71, 64
2, 2820, Note_on_c, 0, 69, 64
2, 2880, Note_off_c, 0, 69, 64
2, 2880, Note_off_c, 0, 51, 64
2, 2880, Note_on_c, 0, 68, 64
2, 2880, Note_on_c, 0, 61, 64
2, 2880, Note_on_c, 0, 52, 64
2, 2940, Note_off_c, 0, 61, 64
2, 2940, Note_on_c, 0, 60, 64
2, 3000, Note_off_c, 0, 60, 64
2, 3000, Note_on_c, 0, 61, 64
2, 3060, Note_off_c, 0, 61, 64
2, 3060, Note_off_c, 0, 52, 64
2, 3060, Note_off_c, 0, 68, 64
2, 3060, Note_on_c, 0, 66, 64
2, 3060, Note_on_c, 0, 63, 64
2, 3060, Note_on_c, 0, 48, 64
2, 3120, Note_off_c, 0, 63, 64
2, 3120, Note_on_c, 0, 61, 64
2, 3180, Note_off_c, 0, 61, 64
2, 3180, Note_on_c, 0, 63, 64
2, 3240, Note_off_c, 0, 63, 64
2, 3240, Note_off_c, 0, 48, 64
2, 3240, Note_on_c, 0, 56, 64
2, 3240, Note_on_c, 0, 49, 64
2, 3300, Note_off_c, 0, 56, 64
2, 3300, Note_on_c, 0, 58, 64
2, 3360, Note_off_c, 0, 58, 64
2, 3360, Note_on_c, 0, 60, 64
2, 3420, Note_off_c, 0, 60, 64
2, 3420, Note_off_c, 0, 49, 64
2, 3420, Note_off_c, 0, 66, 64
2, 3420, Note_on_c, 0, 61, 64
2, 3420, Note_on_c, 0, 64, 64
2, 3480, Note_on_c, 0, 63, 64
2, 3540, Note_off_c, 0, 63, 64
2, 3540, Note_on_c, 0, 64, 64
2, 3600, Note_off_c, 0, 64, 64
2, 3600, Note_off_c, 0, 64, 64
2, 3600, Note_on_c, 0, 63, 64
2, 3600, Note_on_c, 0, 66, 64
2, 3660, Note_off_c, 0, 66, 64
2, 3660, Note_on_c, 0, 64, 64
2, 3720, Note_off_c, 0, 64, 64
2, 3720, Note_on_c, 0, 66, 64
2, 3780, Note_off_c, 0, 66, 64
2, 3780, Note_off_c, 0, 63, 64
2, 3780, Note_off_c, 0, 61, 64
2, 3780, Note_on_c, 0, 75, 64
2, 3780, Note_on_c, 0, 63, 64
2, 3780, Note_on_c, 0, 60, 64
2, 3840, Note_off_c, 0, 63, 64
2, 3840, Note_on_c, 0, 68, 64
2, 3900, Note_off_c, 0, 68, 64
2, 3900, Note_on_c, 0, 66, 64
2, 3960, Note_off_c, 0, 66, 64
2, 3960, Note_off_c, 0, 60, 64
2, 3960, Note_off_c, 0, 75, 64
2, 3960, Note_on_c, 0, 68, 64
2, 3960, Note_on_c, 0, 64, 64
2, 3960, Note_on_c, 0, 61, 64
2, 4020, Note_off_c, 0, 64, 64
2, 4020, Note_on_c, 0, 63, 64
2, 4080, Note_off_c, 0, 63, 64
2, 4080, Note_on_c, 0, 64, 64
2, 4140, Note_off_c, 0, 64, 64
2, 4140, Note_off_c, 0, 68, 64
2, 4140, Note_on_c, 0, 54, 64
2, 4140, Note_on_c, 0, 69, 64
2, 4140, Note_on_c, 0, 61, 64
2, 4141, Note_off_c, 0, 61, 64
2, 4200, Note_off_c, 0, 61, 64
2, 4200, Note_on_c, 0, 66, 64
2, 4260, Note_off_c, 0, 66, 64
2, 4260, Note_on_c, 0, 64, 64
2, 4320, Note_off_c, 0, 64, 64
2, 4320, Note_off_c, 0, 54, 64
2, 4320, Note_on_c, 0, 63, 64
2, 4320, Note_on_c, 0, 59, 64
2, 4380, Note_off_c, 0, 63, 64
2, 4380, Note_on_c, 0, 61, 64
2, 4440, Note_off_c, 0, 61, 64
2, 4440, Note_on_c, 0, 63, 64
2, 4500, Note_off_c, 0, 63, 64
2, 4500, Note_off_c, 0, 69, 64
2, 4500, Note_on_c, 0, 68, 64
2, 4500, Note_on_c, 0, 59, 64
2, 4500, Note_on_c, 0, 52, 64
2, 4501, Note_off_c, 0, 59, 64
2, 4560, Note_off_c, 0, 59, 64
2, 4560, Note_on_c, 0, 64, 64
2, 4620, Note_off_c, 0, 64, 64
2, 4620, Note_on_c, 0, 63, 64
2, 4680, Note_off_c, 0, 63, 64
2, 4680, Note_off_c, 0, 52, 64
2, 4680, Note_on_c, 0, 57, 64
2, 4680, Note_on_c, 0, 61, 64
2, 4740, Note_off_c, 0, 61, 64
2, 4740, Note_on_c, 0, 63, 64
2, 4800, Note_off_c, 0, 63, 64
2, 4800, Note_on_c, 0, 64, 64
2, 4860, Note_off_c, 0, 64, 64
2, 4860, Note_off_c, 0, 68, 64
2, 4860, Note_on_c, 0, 66, 64
2, 4860, Note_on_c, 0, 63, 64
2, 4920, Note_off_c, 0, 63, 64
2, 4920, Note_on_c, 0, 64, 64
2, 4980, Note_off_c, 0, 64, 64
2, 4980, Note_on_c, 0, 61, 64
2, 5040, Note_off_c, 0, 61, 64
2, 5040, Note_off_c, 0, 57, 64
2, 5040, Note_on_c, 0, 60, 64
2, 5040, Note_on_c, 0, 56, 64
2, 5100, Note_off_c, 0, 66, 64
2, 5100, Note_on_c, 0, 68, 64
2, 5160, Note_off_c, 0, 68, 64
2, 5160, Note_on_c, 0, 69, 64
2, 5220, Note_off_c, 0, 69, 64
2, 5220, Note_on_c, 0, 68, 64
2, 5280, Note_off_c, 0, 68, 64
2, 5280, Note_on_c, 0, 69, 64
2, 5340, Note_off_c, 0, 69, 64
2, 5340, Note_on_c, 0, 66, 64
2, 5400, Note_off_c, 0, 66, 64
2, 5400, Note_on_c, 0, 64, 64
2, 5460, Note_off_c, 0, 56, 64
2, 5460, Note_on_c, 0, 54, 64
2, 5520, Note_off_c, 0, 54, 64
2, 5520, Note_on_c, 0, 56, 64
2, 5580, Note_off_c, 0, 56, 64
2, 5580, Note_off_c, 0, 60, 64
2, 5580, Note_on_c, 0, 61, 64
2, 5580, Note_on_c, 0, 52, 64
2, 5640, Note_off_c, 0, 52, 64
2, 5640, Note_on_c, 0, 57, 64
2, 5700, Note_off_c, 0, 57, 64
2, 5700, Note_on_c, 0, 56, 64
2, 5760, Note_off_c, 0, 56, 64
2, 5760, Note_off_c, 0, 64, 64
2, 5760, Note_on_c, 0, 63, 64
2, 5760, Note_on_c, 0, 54, 64
2, 5820, Note_off_c, 0, 54, 64
2, 5820, Note_on_c, 0, 52, 64
2, 5880, Note_off_c, 0, 52, 64
2, 5880, Note_on_c, 0, 54, 64
2, 5940, Note_off_c, 0, 54, 64
2, 5940, Note_off_c, 0, 63, 64
2, 5940, Note_off_c, 0, 61, 64
2, 5940, Note_on_c, 0, 60, 64
2, 5940, Note_on_c, 0, 51, 64
2, 6000, Note_off_c, 0, 51, 64
2, 6000, Note_on_c, 0, 56, 64
2, 6060, Note_off_c, 0, 56, 64
2, 6060, Note_on_c, 0, 54, 64
2, 6120, Note_off_c, 0, 54, 64
2, 6120, Note_off_c, 0, 60, 64
2, 6120, Note_on_c, 0, 61, 64
2, 6120, Note_on_c, 0, 68, 64
2, 6120, Note_on_c, 0, 52, 64
2, 6180, Note_off_c, 0, 52, 64
2, 6180, Note_off_c, 0, 68, 64
2, 6180, Note_on_c, 0, 66, 64
2, 6180, Note_on_c, 0, 51, 64
2, 6240, Note_off_c, 0, 51, 64
2, 6240, Note_off_c, 0, 66, 64
2, 6240, Note_on_c, 0, 68, 64
2, 6240, Note_on_c, 0, 52, 64
2, 6300, Note_off_c, 0, 52, 64
2, 6300, Note_off_c, 0, 68, 64
2, 6300, Note_on_c, 0, 64, 64
2, 6300, Note_on_c, 0, 49, 64
2, 6360, Note_off_c, 0, 49, 64
2, 6360, Note_off_c, 0, 64, 64
2, 6360, Note_on_c, 0, 69, 64
2, 6360, Note_on_c, 0, 54, 64
2, 6420, Note_off_c, 0, 54, 64
2, 6420, Note_off_c, 0, 69, 64
2, 6420, Note_on_c, 0, 68, 64
2, 6420, Note_on_c, 0, 52, 64
2, 6480, Note_off_c, 0, 52, 64
2, 6480, Note_off_c, 0, 68, 64
2, 6480, Note_on_c, 0, 66, 64
2, 6480, Note_on_c, 0, 51, 64
2, 6540, Note_off_c, 0, 66, 64
2, 6540, Note_on_c, 0, 64, 64
2, 6600, Note_off_c, 0, 64, 64
2, 6600, Note_on_c, 0, 66, 64
2, 6660, Note_off_c, 0, 66, 64
2, 6660, Note_off_c, 0, 51, 64
2, 6660, Note_off_c, 0, 61, 64
2, 6660, Note_on_c, 0, 63, 64
2, 6660, Note_on_c, 0, 59, 64
2, 6660, Note_on_c, 0, 56, 64
2, 6720, Note_off_c, 0, 63, 64
2, 6720, Note_on_c, 0, 68, 64
2, 6780, Note_off_c, 0, 68, 64
2, 6780, Note_on_c, 0, 66, 64
2, 6840, Note_off_c, 0, 66, 64
2, 6840, Note_off_c, 0, 56, 64
2, 6840, Note_on_c, 0, 49, 64
2, 6840, Note_on_c, 0, 65, 64
2, 6900, Note_off_c, 0, 65, 64
2, 6900, Note_on_c, 0, 63, 64
2, 6960, Note_off_c, 0, 63, 64
2, 6960, Note_on_c, 0, 61, 64
2, 7020, Note_off_c, 0, 61, 64
2, 7020, Note_off_c, 0, 59, 64
2, 7020, Note_on_c, 0, 66, 64
2, 7020, Note_on_c, 0, 54, 64
2, 7080, Note_off_c, 0, 54, 64
2, 7080, Note_on_c, 0, 52, 64
2, 7140, Note_off_c, 0, 52, 64
2, 7140, Note_on_c, 0, 51, 64
2, 7200, Note_off_c, 0, 51, 64
2, 7200, Note_on_c, 0, 52, 64
2, 7260, Note_off_c, 0, 49, 64
2, 7260, Note_on_c, 0, 47, 64
2, 7320, Note_off_c, 0, 47, 64
2, 7320, Note_on_c, 0, 49, 64
2, 7380, Note_off_c, 0, 49, 64
2, 7380, Note_off_c, 0, 66, 64
2, 7380, Note_on_c, 0, 64, 64
2, 7380, Note_on_c, 0, 44, 64
2, 7440, Note_off_c, 0, 44, 64
2, 7440, Note_on_c, 0, 49, 64
2, 7500, Note_off_c, 0, 49, 64
2, 7500, Note_on_c, 0, 47, 64
2, 7560, Note_off_c, 0, 47, 64
2, 7560, Note_off_c, 0, 52, 64
2, 7560, Note_on_c, 0, 54, 64
2, 7560, Note_on_c, 0, 46, 64
2, 7620, Note_off_c, 0, 46, 64
2, 7620, Note_on_c, 0, 44, 64
2, 7680, Note_off_c, 0, 44, 64
2, 7680, Note_on_c, 0, 42, 64
2, 7740, Note_off_c, 0, 42, 64
2, 7740, Note_off_c, 0, 64, 64
2, 7740, Note_on_c, 0, 47, 64
2, 7740, Note_on_c, 0, 63, 64
2, 7800, Note_off_c, 0, 63, 64
2, 7800, Note_on_c, 0, 61, 64
2, 7860, Note_off_c, 0, 61, 64
2, 7860, Note_on_c, 0, 59, 64
2, 7920, Note_off_c, 0, 59, 64
2, 7920, Note_off_c, 0, 54, 64
2, 7920, Note_on_c, 0, 61, 64
2, 7920, Note_on_c, 0, 52, 64
2, 7980, Note_off_c, 0, 52, 64
2, 7980, Note_on_c, 0, 51, 64
2, 8040, Note_off_c, 0, 51, 64
2, 8040, Note_on_c, 0, 52, 64
2, 8100, Note_off_c, 0, 52, 64
2, 8100, Note_off_c, 0, 47, 64
2, 8100, Note_on_c, 0, 49, 64
2, 8100, Note_on_c, 0, 45, 64
2, 8160, Note_off_c, 0, 49, 64
2, 8160, Note_on_c, 0, 54, 64
2, 8220, Note_off_c, 0, 54, 64
2, 8220, Note_on_c, 0, 52, 64
2, 8280, Note_off_c, 0, 52, 64
2, 8280, Note_off_c, 0, 61, 64
2, 8280, Note_on_c, 0, 59, 64
2, 8280, Note_on_c, 0, 51, 64
2, 8340, Note_off_c, 0, 51, 64
2, 8340, Note_on_c, 0, 49, 64
2, 8400, Note_off_c, 0, 49, 64
2, 8400, Note_on_c, 0, 47, 64
2, 8460, Note_off_c, 0, 47, 64
2, 8460, Note_off_c, 0, 45, 64
2, 8460, Note_on_c, 0, 52, 64
2, 8460, Note_on_c, 0, 44, 64
2, 8520, Note_off_c, 0, 44, 64
2, 8520, Note_on_c, 0, 42, 64
2, 8580, Note_off_c, 0, 42, 64
2, 8580, Note_on_c, 0, 40, 64
2, 8640, Note_off_c, 0, 40, 64
2, 8640, Note_off_c, 0, 59, 64
2, 8640, Note_on_c, 0, 57, 64
2, 8640, Note_on_c, 0, 42, 64
2, 8700, Note_off_c, 0, 57, 64
2, 8700, Note_on_c, 0, 56, 64
2, 8760, Note_off_c, 0, 56, 64
2, 8760, Note_on_c, 0, 57, 64
2, 8820, Note_off_c, 0, 57, 64
2, 8820, Note_off_c, 0, 42, 64
2, 8820, Note_off_c, 0, 52, 64
2, 8820, Note_on_c, 0, 54, 64
2, 8820, Note_on_c, 0, 51, 64
2, 8820, Note_on_c, 0, 47, 64
2, 8880, Note_off_c, 0, 54, 64
2, 8880, Note_on_c, 0, 59, 64
2, 8940, Note_off_c, 0, 59, 64
2, 8940, Note_on_c, 0, 57, 64
2, 9000, Note_off_c, 0, 57, 64
2, 9000, Note_off_c, 0, 47, 64
2, 9000, Note_off_c, 0, 51, 64
2, 9000, Note_on_c, 0, 56, 64
2, 9000, Note_on_c, 0, 52, 64
2, 9000, Note_on_c, 0, 40, 64
2, 9060, Note_off_c, 0, 56, 64
2, 9060, Note_on_c, 0, 59, 64
2, 9120, Note_off_c, 0, 59, 64
2, 9120, Note_on_c, 0, 64, 64
2, 9180, Note_off_c, 0, 40, 64
2, 9180, Note_off_c, 0, 52, 64
2, 9180, Note_on_c, 0, 54, 64
2, 9240, Note_off_c, 0, 64, 64
2, 9240, Note_on_c, 0, 63, 64
2, 9300, Note_off_c, 0, 63, 64
2, 9300, Note_on_c, 0, 61, 64
2, 9360, Note_off_c, 0, 61, 64
2, 9360, Note_off_c, 0, 54, 64
2, 9360, Note_on_c, 0, 59, 64
2, 9360, Note_on_c, 0, 56, 64
2, 9420, Note_off_c, 0, 59, 64
2, 9420, Note_on_c, 0, 64, 64
2, 9480, Note_off_c, 0, 64, 64
2, 9480, Note_on_c, 0, 68, 64
2, 9540, Note_off_c, 0, 56, 64
2, 9540, Note_on_c, 0, 58, 64
2, 9600, Note_off_c, 0, 68, 64
2, 9600, Note_on_c, 0, 66, 64
2, 9660, Note_off_c, 0, 66, 64
2, 9660, Note_on_c, 0, 64, 64
2, 9720, Note_off_c, 0, 64, 64
2, 9720, Note_off_c, 0, 58, 64
2, 9720, Note_on_c, 0, 59, 64
2, 9720, Note_on_c, 0, 63, 64
2, 9720, Note_on_c, 0, 47, 64
2, 9780, Note_off_c, 0, 47, 64
2, 9780, Note_on_c, 0, 45, 64
2, 9840, Note_off_c, 0, 45, 64
2, 9840, Note_on_c, 0, 47, 64
2, 9900, Note_off_c, 0, 47, 64
2, 9900, Note_off_c, 0, 63, 64
2, 9900, Note_on_c, 0, 65, 64
2, 9900, Note_on_c, 0, 49, 64
2, 9960, Note_off_c, 0, 49, 64
2, 9960, Note_on_c, 0, 47, 64
2, 10020, Note_off_c, 0, 47, 64
2, 10020, Note_on_c, 0, 49, 64
2, 10080, Note_off_c, 0, 49, 64
2, 10080, Note_off_c, 0, 65, 64
2, 10080, Note_on_c, 0, 66, 64
2, 10080, Note_on_c, 0, 42, 64
2, 10140, Note_off_c, 0, 59, 64
2, 10140, Note_on_c, 0, 57, 64
2, 10200, Note_off_c, 0, 57, 64
2, 10200, Note_on_c, 0, 59, 64
2, 10260, Note_off_c, 0, 59, 64
2, 10260, Note_off_c, 0, 42, 64
2, 10260, Note_off_c, 0, 66, 64
2, 10260, Note_on_c, 0, 61, 64
2, 10260, Note_on_c, 0, 40, 64
2, 10320, Note_off_c, 0, 61, 64
2, 10320, Note_on_c, 0, 63, 64
2, 10380, Note_off_c, 0, 63, 64
2, 10380, Note_on_c, 0, 64, 64
2, 10440, Note_off_c, 0, 64, 64
2, 10440, Note_off_c, 0, 40, 64
2, 10440, Note_on_c, 0, 70, 64
2, 10440, Note_on_c, 0, 66, 64
2, 10440, Note_on_c, 0, 39, 64
2, 10500, Note_off_c, 0, 66, 64
2, 10500, Note_on_c, 0, 64, 64
2, 10560, Note_off_c, 0, 64, 64
2, 10560, Note_on_c, 0, 66, 64
2, 10620, Note_off_c, 0, 66, 64
2, 10620, Note_off_c, 0, 39, 64
2, 10620, Note_off_c, 0, 70, 64
2, 10620, Note_on_c, 0, 72, 64
2, 10620, Note_on_c, 0, 44, 64
2, 10620, Note_on_c, 0, 63, 64
2, 10680, Note_off_c, 0, 63, 64
2, 10680, Note_on_c, 0, 68, 64
2, 10740, Note_off_c, 0, 68, 64
2, 10740, Note_on_c, 0, 66, 64
2, 10800, Note_off_c, 0, 66, 64
2, 10800, Note_off_c, 0, 44, 64
2, 10800, Note_off_c, 0, 72, 64
2, 10800, Note_on_c, 0, 73, 64
2, 10800, Note_on_c, 0, 64, 64
2, 10800, Note_on_c, 0, 49, 64
2, 10860, Note_off_c, 0, 49, 64
2, 10860, Note_off_c, 0, 73, 64
2, 10860, Note_on_c, 0, 72, 64
2, 10860, Note_on_c, 0, 51, 64
2, 10920, Note_off_c, 0, 51, 64
2, 10920, Note_off_c, 0, 72, 64
2, 10920, Note_on_c, 0, 73, 64
2, 10920, Note_on_c, 0, 52, 64
2, 10980, Note_off_c, 0, 52, 64
2, 10980, Note_off_c, 0, 73, 64
2, 10980, Note_off_c, 0, 64, 64
2, 10980, Note_on_c, 0, 75, 64
2, 10980, Note_on_c, 0, 54, 64
2, 11040, Note_off_c, 0, 75, 64
2, 11040, Note_on_c, 0, 73, 64
2, 11100, Note_off_c, 0, 73, 64
2, 11100, Note_on_c, 0, 75, 64
2, 11160, Note_off_c, 0, 75, 64
2, 11160, Note_on_c, 0, 68, 64
2, 11220, Note_off_c, 0, 68, 64
2, 11220, Note_off_c, 0, 54, 64
2, 11220, Note_on_c, 0, 70, 64
2, 11220, Note_on_c, 0, 52, 64
2, 11280, Note_off_c, 0, 52, 64
2, 11280, Note_off_c, 0, 70, 64
2, 11280, Note_on_c, 0, 72, 64
2, 11280, Note_on_c, 0, 51, 64
2, 11340, Note_off_c, 0, 51, 64
2, 11340, Note_off_c, 0, 72, 64
2, 11340, Note_on_c, 0, 73, 64
2, 11340, Note_on_c, 0, 52, 64
2, 11400, Note_off_c, 0, 52, 64
2, 11400, Note_off_c, 0, 73, 64
2, 11400, Note_on_c, 0, 75, 64
2, 11400, Note_on_c, 0, 54, 64
2, 11460, Note_off_c, 0, 54, 64
2, 11460, Note_off_c, 0, 75, 64
2, 11460, Note_on_c, 0, 56, 64
2, 11460, Note_on_c, 0, 76, 64
2, 11520, Note_off_c, 0, 76, 64
2, 11520, Note_off_c, 0, 56, 64
2, 11520, Note_on_c, 0, 78, 64
2, 11520, Note_on_c, 0, 57, 64
2, 11580, Note_off_c, 0, 57, 64
2, 11580, Note_off_c, 0, 78, 64
2, 11580, Note_on_c, 0, 76, 64
2, 11580, Note_on_c, 0, 56, 64
2, 11640, Note_off_c, 0, 56, 64
2, 11640, Note_off_c, 0, 76, 64
2, 11640, Note_on_c, 0, 78, 64
2, 11640, Note_on_c, 0, 54, 64
2, 11700, Note_off_c, 0, 54, 64
2, 11700, Note_off_c, 0, 78, 64
2, 11700, Note_on_c, 0, 75, 64
2, 11700, Note_on_c, 0, 56, 64
2, 11760, Note_off_c, 0, 56, 64
2, 11760, Note_off_c, 0, 75, 64
2, 11760, Note_on_c, 0, 80, 64
2, 11760, Note_on_c, 0, 58, 64
2, 11820, Note_off_c, 0, 58, 64
2, 11820, Note_off_c, 0, 80, 64
2, 11820, Note_on_c, 0, 78, 64
2, 11820, Note_on_c, 0, 60, 64
2, 11880, Note_off_c, 0, 60, 64
2, 11880, Note_off_c, 0, 78, 64
2, 11880, Note_on_c, 0, 61, 64
2, 11880, Note_on_c, 0, 76, 64
2, 11880, Note_on_c, 0, 68, 64
2, 11940, Note_off_c, 0, 68, 64
2, 11940, Note_off_c, 0, 76, 64
2, 11940, Note_on_c, 0, 75, 64
2, 11940, Note_on_c, 0, 67, 64
2, 12000, Note_off_c, 0, 67, 64
2, 12000, Note_off_c, 0, 75, 64
2, 12000, Note_on_c, 0, 76, 64
2, 12000, Note_on_c, 0, 68, 64
2, 12060, Note_off_c, 0, 68, 64
2, 12060, Note_off_c, 0, 76, 64
2, 12060, Note_on_c, 0, 73, 64
2, 12060, Note_on_c, 0, 70, 64
2, 12120, Note_off_c, 0, 70, 64
2, 12120, Note_off_c, 0, 73, 64
2, 12120, Note_on_c, 0, 71, 64
2, 12120, Note_on_c, 0, 68, 64
2, 12180, Note_off_c, 0, 68, 64
2, 12180, Note_off_c, 0, 71, 64
2, 12180, Note_on_c, 0, 70, 64
2, 12180, Note_on_c, 0, 73, 64
2, 12240, Note_off_c, 0, 73, 64
2, 12240, Note_off_c, 0, 70, 64
2, 12240, Note_on_c, 0, 82, 64
2, 12240, Note_on_c, 0, 63, 64
2, 12300, Note_off_c, 0, 63, 64
2, 12300, Note_on_c, 0, 65, 64
2, 12360, Note_off_c, 0, 65, 64
2, 12360, Note_on_c, 0, 67, 64
2, 12420, Note_off_c, 0, 67, 64
2, 12420, Note_off_c, 0, 82, 64
2, 12420, Note_off_c, 0, 61, 64
2, 12420, Note_on_c, 0, 75, 64
2, 12420, Note_on_c, 0, 68, 64
2, 12420, Note_on_c, 0, 59, 64
2, 12480, Note_off_c, 0, 68, 64
2, 12480, Note_on_c, 0, 70, 64
2, 12540, Note_off_c, 0, 70, 64
2, 12540, Note_on_c, 0, 71, 64
2, 12600, Note_off_c, 0, 71, 64
2, 12600, Note_off_c, 0, 59, 64
2, 12600, Note_off_c, 0, 75, 64
2, 12600, Note_on_c, 0, 77, 64
2, 12600, Note_on_c, 0, 73, 64
2, 12600, Note_on_c, 0, 58, 64
2, 12660, Note_off_c, 0, 73, 64
2, 12660, Note_on_c, 0, 71, 64
2, 12720, Note_off_c, 0, 71, 64
2, 12720, Note_on_c, 0, 73, 64
2, 12780, Note_off_c, 0, 73, 64
2, 12780, Note_off_c, 0, 58, 64
2, 12780, Note_off_c, 0, 77, 64
2, 12780, Note_on_c, 0, 63, 64
2, 12780, Note_on_c, 0, 79, 64
2, 12780, Note_on_c, 0, 70, 64
2, 12840, Note_off_c, 0, 70, 64
2, 12840, Note_on_c, 0, 75, 64
2, 12900, Note_off_c, 0, 75, 64
2, 12900, Note_on_c, 0, 73, 64
2, 12960, Note_off_c, 0, 73, 64
2, 12960, Note_off_c, 0, 79, 64
2, 12960, Note_off_c, 0, 63, 64
2, 12960, Note_on_c, 0, 80, 64
2, 12960, Note_on_c, 0, 71, 64
2, 12960, Note_on_c, 0, 56, 64
2, 13020, Note_off_c, 0, 71, 64
2, 13020, Note_on_c, 0, 70, 64
2, 13080, Note_off_c, 0, 70, 64
2, 13080, Note_on_c, 0, 71, 64
2, 13140, Note_off_c, 0, 71, 64
2, 13140, Note_off_c, 0, 56, 64
2, 13140, Note_off_c, 0, 80, 64
2, 13140, Note_on_c, 0, 76, 64
2, 13140, Note_on_c, 0, 68, 64
2, 13140, Note_on_c, 0, 61, 64
2, 13200, Note_off_c, 0, 68, 64
2, 13200, Note_on_c, 0, 73, 64
2, 13260, Note_off_c, 0, 73, 64
2, 13260, Note_on_c, 0, 71, 64
2, 13320, Note_off_c, 0, 71, 64
2, 13320, Note_off_c, 0, 61, 64
2, 13320, Note_on_c, 0, 69, 64
2, 13320, Note_on_c, 0, 54, 64
2, 13380, Note_off_c, 0, 69, 64
2, 13380, Note_on_c, 0, 68, 64
2, 13440, Note_off_c, 0, 68, 64
2, 13440, Note_on_c, 0, 69, 64
2, 13500, Note_off_c, 0, 69, 64
2, 13500, Note_off_c, 0, 54, 64
2, 13500, Note_off_c, 0, 76, 64
2, 13500, Note_on_c, 0, 59, 64
2, 13500, Note_on_c, 0, 75, 64
2, 13500, Note_on_c, 0, 66, 64
2, 13560, Note_off_c, 0, 66, 64
2, 13560, Note_on_c, 0, 71, 64
2, 13620, Note_off_c, 0, 71, 64
2, 13620, Note_on_c, 0, 69, 64
2, 13680, Note_off_c, 0, 69, 64
2, 13680, Note_off_c, 0, 75, 64
2, 13680, Note_off_c, 0, 59, 64
2, 13680, Note_on_c, 0, 76, 64
2, 13680, Note_on_c, 0, 68, 64
2, 13680, Note_on_c, 0, 52, 64
2, 13740, Note_off_c, 0, 52, 64
2, 13740, Note_off_c, 0, 68, 64
2, 13740, Note_on_c, 0, 66, 64
2, 13740, Note_on_c, 0, 51, 64
2, 13800, Note_off_c, 0, 51, 64
2, 13800, Note_off_c, 0, 66, 64
2, 13800, Note_on_c, 0, 68, 64
2, 13800, Note_on_c, 0, 52, 64
2, 13860, Note_off_c, 0, 52, 64
2, 13860, Note_off_c, 0, 68, 64
2, 13860, Note_on_c, 0, 70, 64
2, 13860, Note_on_c, 0, 54, 64
2, 13920, Note_off_c, 0, 54, 64
2, 13920, Note_off_c, 0, 70, 64
2, 13920, Note_on_c, 0, 68, 64
2, 13920, Note_on_c, 0, 52, 64
2, 13980, Note_off_c, 0, 52, 64
2, 13980, Note_off_c, 0, 68, 64
2, 13980, Note_on_c, 0, 70, 64
2, 13980, Note_on_c, 0, 54, 64
2, 14040, Note_off_c, 0, 54, 64
2, 14040, Note_off_c, 0, 70, 64
2, 14040, Note_off_c, 0, 76, 64
2, 14040, Note_on_c, 0, 71, 64
2, 14040, Note_on_c, 0, 75, 64
2, 14040, Note_on_c, 0, 47, 64
2, 14100, Note_off_c, 0, 47, 64
2, 14100, Note_on_c, 0, 49, 64
2, 14160, Note_off_c, 0, 49, 64
2, 14160, Note_on_c, 0, 51, 64
2, 14220, Note_off_c, 0, 51, 64
2, 14220, Note_off_c, 0, 75, 64
2, 14220, Note_on_c, 0, 74, 64
2, 14220, Note_on_c, 0, 52, 64
2, 14280, Note_off_c, 0, 52, 64
2, 14280, Note_on_c, 0, 54, 64
2, 14340, Note_off_c, 0, 54, 64
2, 14340, Note_on_c, 0, 56, 64
2, 14400, Note_off_c, 0, 56, 64
2, 14400, Note_off_c, 0, 74, 64
2, 14400, Note_on_c, 0, 73, 64
2, 14400, Note_on_c, 0, 57, 64
2, 14460, Note_off_c, 0, 57, 64
2, 14460, Note_on_c, 0, 56, 64
2, 14520, Note_off_c, 0, 56, 64
2, 14520, Note_on_c, 0, 57, 64
2, 14580, Note_off_c, 0, 57, 64
2, 14580, Note_off_c, 0, 73, 64
2, 14580, Note_off_c, 0, 71, 64
2, 14580, Note_on_c, 0, 75, 64
2, 14580, Note_on_c, 0, 69, 64
2, 14580, Note_on_c, 0, 54, 64
2, 14640, Note_off_c, 0, 54, 64
2, 14640, Note_off_c, 0, 75, 64
2, 14640, Note_on_c, 0, 76, 64
2, 14640, Note_on_c, 0, 59, 64
2, 14700, Note_off_c, 0, 59, 64
2, 14700, Note_off_c, 0, 76, 64
2, 14700, Note_on_c, 0, 78, 64
2, 14700, Note_on_c, 0, 57, 64
2, 14760, Note_off_c, 0, 57, 64
2, 14760, Note_off_c, 0, 78, 64
2, 14760, Note_on_c, 0, 71, 64
2, 14760, Note_on_c, 0, 56, 64
2, 14820, Note_off_c, 0, 56, 64
2, 14820, Note_on_c, 0, 54, 64
2, 14880, Note_off_c, 0, 54, 64
2, 14880, Note_on_c, 0, 56, 64
2, 14940, Note_off_c, 0, 56, 64
2, 14940, Note_off_c, 0, 71, 64
2, 14940, Note_off_c, 0, 69, 64
2, 14940, Note_on_c, 0, 68, 64
2, 14940, Note_on_c, 0, 73, 64
2, 14940, Note_on_c, 0, 52, 64
2, 15000, Note_off_c, 0, 52, 64
2, 15000, Note_off_c, 0, 73, 64
2, 15000, Note_on_c, 0, 75, 64
2, 15000, Note_on_c, 0, 57, 64
2, 15060, Note_off_c, 0, 57, 64
2, 15060, Note_off_c, 0, 75, 64
2, 15060, Note_on_c, 0, 56, 64
2, 15060, Note_on_c, 0, 76, 64
2, 15120, Note_off_c, 0, 76, 64
2, 15120, Note_off_c, 0, 56, 64
2, 15120, Note_on_c, 0, 69, 64
2, 15120, Note_on_c, 0, 54, 64
2, 15180, Note_off_c, 0, 54, 64
2, 15180, Note_on_c, 0, 52, 64
2, 15240, Note_off_c, 0, 52, 64
2, 15240, Note_on_c, 0, 54, 64
2, 15300, Note_off_c, 0, 54, 64
2, 15300, Note_off_c, 0, 69, 64
2, 15300, Note_off_c, 0, 68, 64
2, 15300, Note_on_c, 0, 71, 64
2, 15300, Note_on_c, 0, 66, 64
2, 15300, Note_on_c, 0, 51, 64
2, 15360, Note_off_c, 0, 51, 64
2, 15360, Note_off_c, 0, 71, 64
2, 15360, Note_on_c, 0, 73, 64
2, 15360, Note_on_c, 0, 56, 64
2, 15420, Note_off_c, 0, 56, 64
2, 15420, Note_off_c, 0, 73, 64
2, 15420, Note_on_c, 0, 75, 64
2, 15420, Note_on_c, 0, 54, 64
2, 15480, Note_off_c, 0, 54, 64
2, 15480, Note_off_c, 0, 75, 64
2, 15480, Note_on_c, 0, 68, 64
2, 15480, Note_on_c, 0, 52, 64
2, 15540, Note_off_c, 0, 52, 64
2, 15540, Note_on_c, 0, 51, 64
2, 15600, Note_off_c, 0, 51, 64
2, 15600, Note_on_c, 0, 52, 64
2, 15660, Note_off_c, 0, 52, 64
2, 15660, Note_off_c, 0, 66, 64
2, 15660, Note_on_c, 0, 64, 64
2, 15660, Note_on_c, 0, 49, 64
2, 15720, Note_off_c, 0, 68, 64
2, 15720, Note_on_c, 0, 71, 64
2, 15780, Note_off_c, 0, 71, 64
2, 15780, Note_off_c, 0, 49, 64
2, 15780, Note_on_c, 0, 70, 64
2, 15840, Note_off_c, 0, 70, 64
2, 15840, Note_off_c, 0, 64, 64
2, 15840, Note_on_c, 0, 71, 64
2, 15840, Note_on_c, 0, 63, 64
2, 15840, Note_on_c, 0, 56, 64
2, 15900, Note_off_c, 0, 56, 64
2, 15900, Note_on_c, 0, 54, 64
2, 15960, Note_off_c, 0, 54, 64
2, 15960, Note_on_c, 0, 56, 64
2, 16020, Note_off_c, 0, 56, 64
2, 16020, Note_off_c, 0, 63, 64
2, 16020, Note_on_c, 0, 68, 64
2, 16020, Note_on_c, 0, 52, 64
2, 16080, Note_off_c, 0, 71, 64
2, 16080, Note_on_c, 0, 75, 64
2, 16140, Note_off_c, 0, 75, 64
2, 16140, Note_off_c, 0, 52, 64
2, 16140, Note_on_c, 0, 73, 64
2, 16200, Note_off_c, 0, 73, 64
2, 16200, Note_off_c, 0, 68, 64
2, 16200, Note_on_c, 0, 75, 64
2, 16200, Note_on_c, 0, 66, 64
2, 16200, Note_on_c, 0, 59, 64
2, 16260, Note_off_c, 0, 59, 64
2, 16260, Note_on_c, 0, 58, 64
2, 16320, Note_off_c, 0, 58, 64
2, 16320, Note_on_c, 0, 59, 64
2, 16380, Note_off_c, 0, 59, 64
2, 16380, Note_off_c, 0, 66, 64
2, 16380, Note_on_c, 0, 71, 64
2, 16380, Note_on_c, 0, 56, 64
2, 16440, Note_off_c, 0, 75, 64
2, 16440, Note_on_c, 0, 78, 64
2, 16500, Note_off_c, 0, 78, 64
2, 16500, Note_off_c, 0, 56, 64
2, 16500, Note_on_c, 0, 76, 64
2, 16560, Note_off_c, 0, 76, 64
2, 16560, Note_on_c, 0, 78, 64
2, 16560, Note_on_c, 0, 63, 64
2, 16620, Note_off_c, 0, 78, 64
2, 16620, Note_on_c, 0, 80, 64
2, 16680, Note_off_c, 0, 80, 64
2, 16680, Note_off_c, 0, 71, 64
2, 16680, Note_on_c, 0, 78, 64
2, 16680, Note_on_c, 0, 69, 64
2, 16740, Note_off_c, 0, 78, 64
2, 16740, Note_off_c, 0, 63, 64
2, 16740, Note_on_c, 0, 76, 64
2, 16740, Note_on_c, 0, 64, 64
2, 16800, Note_off_c, 0, 76, 64
2, 16800, Note_on_c, 0, 78, 64
2, 16860, Note_off_c, 0, 78, 64
2, 16860, Note_off_c, 0, 69, 64
2, 16860, Note_on_c, 0, 76, 64
2, 16860, Note_on_c, 0, 68, 64
2, 16920, Note_off_c, 0, 68, 64
2, 16920, Note_off_c, 0, 76, 64
2, 16920, Note_on_c, 0, 83, 64
2, 16920, Note_on_c, 0, 66, 64
2, 16980, Note_off_c, 0, 83, 64
2, 16980, Note_on_c, 0, 82, 64
2, 17040, Note_off_c, 0, 82, 64
2, 17040, Note_on_c, 0, 80, 64
2, 17100, Note_off_c, 0, 80, 64
2, 17100, Note_off_c, 0, 66, 64
2, 17100, Note_off_c, 0, 64, 64
2, 17100, Note_on_c, 0, 71, 64
2, 17100, Note_on_c, 0, 78, 64
2, 17100, Note_on_c, 0, 63, 64
2, 17160, Note_off_c, 0, 63, 64
2, 17160, Note_off_c, 0, 78, 64
2, 17160, Note_on_c, 0, 76, 64
2, 17160, Note_on_c, 0, 61, 64
2, 17220, Note_off_c, 0, 61, 64
2, 17220, Note_off_c, 0, 76, 64
2, 17220, Note_on_c, 0, 59, 64
2, 17220, Note_on_c, 0, 75, 64
2, 17280, Note_off_c, 0, 75, 64
2, 17280, Note_off_c, 0, 59, 64
2, 17280, Note_on_c, 0, 73, 64
2, 17280, Note_on_c, 0, 66, 64
2, 17340, Note_off_c, 0, 73, 64
2, 17340, Note_on_c, 0, 75, 64
2, 17400, Note_off_c, 0, 75, 64
2, 17400, Note_off_c, 0, 66, 64
2, 17400, Note_off_c, 0, 71, 64
2, 17400, Note_on_c, 0, 73, 64
2, 17400, Note_on_c, 0, 70, 64
2, 17400, Note_on_c, 0, 54, 64
2, 17460, Note_off_c, 0, 54, 64
2, 17460, Note_off_c, 0, 70, 64
2, 17460, Note_off_c, 0, 73, 64
2, 17460, Note_on_c, 0, 76, 64
2, 17460, Note_on_c, 0, 68, 64
2, 17460, Note_on_c, 0, 56, 64
2, 17520, Note_off_c, 0, 76, 64
2, 17520, Note_on_c, 0, 71, 64
2, 17580, Note_off_c, 0, 71, 64
2, 17580, Note_off_c, 0, 56, 64
2, 17580, Note_off_c, 0, 68, 64
2, 17580, Note_on_c, 0, 73, 64
2, 17580, Note_on_c, 0, 67, 64
2, 17580, Note_on_c, 0, 58, 64
2, 17640, Note_off_c, 0, 58, 64
2, 17640, Note_off_c, 0, 67, 64
2, 17640, Note_off_c, 0, 73, 64
2, 17640, Note_on_c, 0, 75, 64
2, 17640, Note_on_c, 0, 66, 64
2, 17640, Note_on_c, 0, 59, 64
2, 17700, Note_off_c, 0, 59, 64
2, 17700, Note_off_c, 0, 75, 64
2, 17700, Note_on_c, 0, 76, 64
2, 17700, Note_on_c, 0, 56, 64
2, 17760, Note_off_c, 0, 76, 64
2, 17760, Note_off_c, 0, 66, 64
2, 17760, Note_on_c, 0, 75, 64
2, 17760, Note_on_c, 0, 60, 64
2, 17820, Note_off_c, 0, 60, 64
2, 17820, Note_off_c, 0, 75, 64
2, 17820, Note_off_c, 0, 56, 64
2, 17820, Note_on_c, 0, 78, 64
2, 17820, Note_on_c, 0, 61, 64
2, 17820, Note_on_c, 0, 58, 64
2, 17880, Note_off_c, 0, 78, 64
2, 17880, Note_on_c, 0, 73, 64
2, 17940, Note_off_c, 0, 73, 64
2, 17940, Note_off_c, 0, 58, 64
2, 17940, Note_off_c, 0, 61, 64
2, 17940, Note_on_c, 0, 60, 64
2, 17940, Note_on_c, 0, 75, 64
2, 18000, Note_off_c, 0, 75, 64
2, 18000, Note_off_c, 0, 60, 64
2, 18000, Note_on_c, 0, 76, 64
2, 18000, Note_on_c, 0, 73, 64
2, 18000, Note_on_c, 0, 61, 64
2, 18060, Note_off_c, 0, 61, 64
2, 18060, Note_off_c, 0, 73, 64
2, 18060, Note_on_c, 0, 75, 64
2, 18060, Note_on_c, 0, 59, 64
2, 18120, Note_off_c, 0, 59, 64
2, 18120, Note_off_c, 0, 75, 64
2, 18120, Note_on_c, 0, 57, 64
2, 18120, Note_on_c, 0, 73, 64
2, 18170, Note_off_c, 0, 57, 64
2, 18183, Note_off_c, 0, 73, 64
2, 18183, Note_off_c, 0, 76, 64
2, 18183, Note_on_c, 0, 57, 70
2, 18183, Note_on_c, 0, 77, 64
2, 18183, Note_on_c, 0, 71, 64
2, 18203, Note_off_c, 0, 57, 45
2, 18203, Note_on_c, 0, 56, 51
2, 18223, Note_off_c, 0, 56, 43
2, 18223, Note_on_c, 0, 57, 53
2, 18243, Note_off_c, 0, 57, 57
2, 18243, Note_off_c, 0, 71, 64
2, 18243, Note_on_c, 0, 56, 54
2, 18243, Note_on_c, 0, 73, 64
2, 18263, Note_off_c, 0, 56, 53
2, 18263, Note_on_c, 0, 57, 56
2, 18283, Note_off_c, 0, 57, 63
2, 18283, Note_on_c, 0, 56, 58
2, 18303, Note_off_c, 0, 56, 55
2, 18303, Note_off_c, 0, 73, 64
2, 18303, Note_on_c, 0, 57, 60
2, 18303, Note_on_c, 0, 71, 64
2, 18323, Note_off_c, 0, 57, 57
2, 18323, Note_on_c, 0, 56, 64
2, 18363, Note_off_c, 0, 56, 52
2, 18363, Note_off_c, 0, 71, 64
2, 18363, Note_off_c, 0, 77, 64
2, 18363, Note_on_c, 0, 69, 64
2, 18363, Note_on_c, 0, 69, 64
2, 18363, Note_on_c, 0, 54, 64
2, 18423, Note_off_c, 0, 69, 64
2, 18423, Note_on_c, 0, 76, 64
2, 18483, Note_off_c, 0, 76, 64
2, 18483, Note_on_c, 0, 74, 64
2, 18543, Note_off_c, 0, 74, 64
2, 18543, Note_off_c, 0, 54, 64
2, 18543, Note_off_c, 0, 69, 64
2, 18543, Note_on_c, 0, 73, 64
2, 18603, Note_off_c, 0, 73, 64
2, 18603, Note_on_c, 0, 71, 64
2, 18663, Note_off_c, 0, 71, 64
2, 18663, Note_on_c, 0, 78, 64
2, 18663, Note_on_c, 0, 69, 64
2, 18723, Note_off_c, 0, 69, 64
2, 18723, Note_off_c, 0, 78, 64
2, 18723, Note_on_c, 0, 77, 64
2, 18723, Note_on_c, 0, 68, 64
2, 18783, Note_off_c, 0, 68, 64
2, 18783, Note_on_c, 0, 69, 64
2, 18843, Note_off_c, 0, 69, 64
2, 18843, Note_off_c, 0, 77, 64
2, 18843, Note_on_c, 0, 76, 64
2, 18843, Note_on_c, 0, 68, 64
2, 18903, Note_off_c, 0, 68, 64
2, 18903, Note_off_c, 0, 76, 64
2, 18903, Note_on_c, 0, 75, 64
2, 18903, Note_on_c, 0, 71, 64
2, 18963, Note_off_c, 0, 71, 64
2, 18963, Note_on_c, 0, 66, 64
2, 19023, Note_off_c, 0, 66, 64
2, 19023, Note_off_c, 0, 75, 64
2, 19023, Note_on_c, 0, 74, 64
2, 19023, Note_on_c, 0, 68, 64
2, 19083, Note_off_c, 0, 68, 64
2, 19083, Note_off_c, 0, 74, 64
2, 19083, Note_on_c, 0, 73, 64
2, 19083, Note_on_c, 0, 69, 64
2, 19143, Note_off_c, 0, 69, 64
2, 19143, Note_on_c, 0, 71, 64
2, 19203, Note_off_c, 0, 71, 64
2, 19203, Note_off_c, 0, 73, 64
2, 19203, Note_on_c, 0, 78, 64
2, 19203, Note_on_c, 0, 69, 64
2, 19263, Note_off_c, 0, 69, 64
2, 19263, Note_off_c, 0, 78, 64
2, 19263, Note_on_c, 0, 77, 64
2, 19263, Note_on_c, 0, 73, 64
2, 19323, Note_off_c, 0, 73, 64
2, 19323, Note_on_c, 0, 68, 64
2, 19383, Note_off_c, 0, 68, 64
2, 19383, Note_off_c, 0, 77, 64
2, 19383, Note_on_c, 0, 70, 64
2, 19383, Note_on_c, 0, 76, 64
2, 19443, Note_off_c, 0, 76, 64
2, 19443, Note_off_c, 0, 70, 64
2, 19443, Note_on_c, 0, 75, 64
2, 19443, Note_on_c, 0, 71, 64
2, 19443, Note_on_c, 0, 56, 64
2, 19503, Note_off_c, 0, 56, 64
2, 19503, Note_on_c, 0, 57, 64
2, 19563, Note_off_c, 0, 57, 64
2, 19563, Note_off_c, 0, 75, 64
2, 19563, Note_on_c, 0, 77, 64
2, 19563, Note_on_c, 0, 56, 64
2, 19623, Note_off_c, 0, 56, 64
2, 19623, Note_off_c, 0, 77, 64
2, 19623, Note_on_c, 0, 78, 64
2, 19623, Note_on_c, 0, 54, 64
2, 19683, Note_off_c, 0, 54, 64
2, 19683, Note_on_c, 0, 56, 64
2, 19743, Note_off_c, 0, 56, 64
2, 19743, Note_off_c, 0, 71, 64
2, 19743, Note_on_c, 0, 69, 64
2, 19743, Note_on_c, 0, 54, 64
2, 19803, Note_off_c, 0, 54, 64
2, 19803, Note_off_c, 0, 69, 64
2, 19803, Note_on_c, 0, 68, 64
2, 19803, Note_on_c, 0, 61, 64
2, 19863, Note_off_c, 0, 61, 64
2, 19863, Note_on_c, 0, 59, 64
2, 19923, Note_off_c, 0, 59, 64
2, 19923, Note_off_c, 0, 68, 64
2, 19923, Note_on_c, 0, 72, 64
2, 19923, Note_on_c, 0, 57, 64
2, 19983, Note_off_c, 0, 57, 64
2, 19983, Note_off_c, 0, 72, 64
2, 19983, Note_off_c, 0, 78, 64
2, 19983, Note_on_c, 0, 73, 64
2, 19983, Note_on_c, 0, 76, 64
2, 19983, Note_on_c, 0, 56, 64
2, 20043, Note_off_c, 0, 56, 64
2, 20043, Note_on_c, 0, 54, 64
2, 20103, Note_off_c, 0, 54, 64
2, 20103, Note_on_c, 0, 52, 64
2, 20163, Note_off_c, 0, 52, 64
2, 20163, Note_off_c, 0, 73, 64
2, 20163, Note_on_c, 0, 66, 64
2, 20163, Note_on_c, 0, 51, 64
2, 20223, Note_off_c, 0, 51, 64
2, 20223, Note_on_c, 0, 52, 64
2, 20283, Note_off_c, 0, 52, 64
2, 20283, Note_on_c, 0, 51, 64
2, 20343, Note_off_c, 0, 51, 64
2, 20343, Note_off_c, 0, 76, 64
2, 20343, Note_on_c, 0, 75, 64
2, 20343, Note_on_c, 0, 54, 64
2, 20403, Note_off_c, 0, 54, 64
2, 20403, Note_off_c, 0, 66, 64
2, 20403, Note_on_c, 0, 64, 64
2, 20403, Note_on_c, 0, 49, 64
2, 20463, Note_off_c, 0, 49, 64
2, 20463, Note_off_c, 0, 64, 64
2, 20463, Note_on_c, 0, 66, 64
2, 20463, Note_on_c, 0, 51, 64
2, 20523, Note_off_c, 0, 51, 64
2, 20523, Note_off_c, 0, 66, 64
2, 20523, Note_on_c, 0, 68, 64
2, 20523, Note_on_c, 0, 52, 64
2, 20583, Note_off_c, 0, 52, 64
2, 20583, Note_on_c, 0, 54, 64
2, 20643, Note_off_c, 0, 54, 64
2, 20643, Note_off_c, 0, 75, 64
2, 20643, Note_on_c, 0, 73, 64
2, 20643, Note_on_c, 0, 52, 64
2, 20703, Note_off_c, 0, 52, 64
2, 20703, Note_off_c, 0, 73, 64
2, 20703, Note_on_c, 0, 72, 64
2, 20703, Note_on_c, 0, 56, 64
2, 20763, Note_off_c, 0, 56, 64
2, 20763, Note_off_c, 0, 68, 64
2, 20763, Note_on_c, 0, 66, 64
2, 20763, Note_on_c, 0, 51, 64
2, 20823, Note_off_c, 0, 51, 64
2, 20823, Note_off_c, 0, 66, 64
2, 20823, Note_off_c, 0, 72, 64
2, 20823, Note_on_c, 0, 71, 64
2, 20823, Note_on_c, 0, 53, 64
2, 20823, Note_on_c, 0, 68, 64
2, 20883, Note_off_c, 0, 68, 64
2, 20883, Note_off_c, 0, 53, 64
2, 20883, Note_off_c, 0, 71, 64
2, 20883, Note_on_c, 0, 70, 64
2, 20883, Note_on_c, 0, 61, 64
2, 20883, Note_on_c, 0, 54, 64
2, 20943, Note_off_c, 0, 61, 64
2, 20943, Note_on_c, 0, 60, 64
2, 21003, Note_off_c, 0, 60, 64
2, 21003, Note_off_c, 0, 70, 64
2, 21003, Note_on_c, 0, 69, 64
2, 21003, Note_on_c, 0, 61, 64
2, 21063, Note_off_c, 0, 61, 64
2, 21063, Note_off_c, 0, 69, 64
2, 21063, Note_on_c, 0, 78, 64
2, 21063, Note_on_c, 0, 63, 64
2, 21123, Note_off_c, 0, 63, 64
2, 21123, Note_off_c, 0, 78, 64
2, 21123, Note_on_c, 0, 76, 64
2, 21123, Note_on_c, 0, 61, 64
2, 21183, Note_off_c, 0, 61, 64
2, 21183, Note_off_c, 0, 76, 64
2, 21183, Note_on_c, 0, 78, 64
2, 21183, Note_on_c, 0, 63, 64
2, 21243, Note_off_c, 0, 63, 64
2, 21243, Note_off_c, 0, 78, 64
2, 21243, Note_on_c, 0, 72, 64
2, 21243, Note_on_c, 0, 56, 64
2, 21303, Note_off_c, 0, 56, 64
2, 21303, Note_off_c, 0, 72, 64
2, 21303, Note_on_c, 0, 73, 64
2, 21303, Note_on_c, 0, 58, 64
2, 21363, Note_off_c, 0, 58, 64
2, 21363, Note_off_c, 0, 73, 64
2, 21363, Note_on_c, 0, 75, 64
2, 21363, Note_on_c, 0, 60, 64
2, 21423, Note_off_c, 0, 60, 64
2, 21423, Note_off_c, 0, 75, 64
2, 21423, Note_off_c, 0, 54, 64
2, 21423, Note_on_c, 0, 52, 64
2, 21423, Note_on_c, 0, 68, 64
2, 21423, Note_on_c, 0, 61, 64
2, 21483, Note_off_c, 0, 61, 64
2, 21483, Note_on_c, 0, 63, 64
2, 21543, Note_off_c, 0, 63, 64
2, 21543, Note_on_c, 0, 64, 64
2, 21603, Note_off_c, 0, 64, 64
2, 21603, Note_off_c, 0, 68, 64
2, 21603, Note_off_c, 0, 52, 64
2, 21603, Note_on_c, 0, 70, 64
2, 21603, Note_on_c, 0, 66, 64
2, 21603, Note_on_c, 0, 51, 64
2, 21663, Note_off_c, 0, 66, 64
2, 21663, Note_on_c, 0, 64, 64
2, 21723, Note_off_c, 0, 64, 64
2, 21723, Note_on_c, 0, 66, 64
2, 21783, Note_off_c, 0, 66, 64
2, 21783, Note_off_c, 0, 51, 64
2, 21783, Note_off_c, 0, 70, 64
2, 21783, Note_on_c, 0, 72, 64
2, 21783, Note_on_c, 0, 63, 64
2, 21783, Note_on_c, 0, 56, 64
2, 21843, Note_off_c, 0, 63, 64
2, 21843, Note_on_c, 0, 68, 64
2, 21903, Note_off_c, 0, 68, 64
2, 21903, Note_on_c, 0, 66, 64
2, 21963, Note_off_c, 0, 66, 64
2, 21963, Note_off_c, 0, 56, 64
2, 21963, Note_off_c, 0, 72, 64
2, 21963, Note_on_c, 0, 73, 64
2, 21963, Note_on_c, 0, 64, 64
2, 21963, Note_on_c, 0, 49, 64
2, 22023, Note_off_c, 0, 64, 64
2, 22023, Note_on_c, 0, 63, 64
2, 22083, Note_off_c, 0, 63, 64
2, 22083, Note_on_c, 0, 64, 64
2, 22143, Note_off_c, 0, 64, 64
2, 22143, Note_off_c, 0, 49, 64
2, 22143, Note_off_c, 0, 73, 64
2, 22143, Note_on_c, 0, 54, 64
2, 22143, Note_on_c, 0, 69, 64
2, 22143, Note_on_c, 0, 61, 64
2, 22203, Note_off_c, 0, 61, 64
2, 22203, Note_on_c, 0, 66, 64
2, 22263, Note_off_c, 0, 66, 64
2, 22263, Note_on_c, 0, 64, 64
2, 22323, Note_off_c, 0, 64, 64
2, 22323, Note_off_c, 0, 54, 64
2, 22323, Note_on_c, 0, 63, 64
2, 22323, Note_on_c, 0, 47, 64
2, 22383, Note_off_c, 0, 63, 64
2, 22383, Note_on_c, 0, 61, 64
2, 22443, Note_off_c, 0, 61, 64
2, 22443, Note_on_c, 0, 63, 64
2, 22503, Note_off_c, 0, 63, 64
2, 22503, Note_off_c, 0, 47, 64
2, 22503, Note_off_c, 0, 69, 64
2, 22503, Note_on_c, 0, 68, 64
2, 22503, Note_on_c, 0, 59, 64
2, 22503, Note_on_c, 0, 52, 64
2, 22563, Note_off_c, 0, 59, 64
2, 22563, Note_on_c, 0, 64, 64
2, 22623, Note_off_c, 0, 64, 64
2, 22623, Note_on_c, 0, 63, 64
2, 22683, Note_off_c, 0, 63, 64
2, 22683, Note_off_c, 0, 52, 64
2, 22683, Note_on_c, 0, 45, 64
2, 22683, Note_on_c, 0, 61, 64
2, 22743, Note_off_c, 0, 61, 64
2, 22743, Note_on_c, 0, 63, 64
2, 22803, Note_off_c, 0, 63, 64
2, 22803, Note_on_c, 0, 64, 64
2, 22863, Note_off_c, 0, 64, 64
2, 22863, Note_off_c, 0, 68, 64
2, 22863, Note_on_c, 0, 66, 64
2, 22863, Note_on_c, 0, 63, 64
2, 22923, Note_off_c, 0, 63, 64
2, 22923, Note_on_c, 0, 64, 64
2, 22983, Note_off_c, 0, 64, 64
2, 22983, Note_on_c, 0, 61, 64
2, 23043, Note_off_c, 0, 61, 64
2, 23043, Note_off_c, 0, 66, 64
2, 23043, Note_off_c, 0, 45, 64
2, 23043, Note_on_c, 0, 68, 64
2, 23043, Note_on_c, 0, 60, 64
2, 23043, Note_on_c, 0, 44, 64
2, 23103, Note_off_c, 0, 68, 64
2, 23103, Note_on_c, 0, 63, 64
2, 23163, Note_off_c, 0, 63, 64
2, 23163, Note_on_c, 0, 68, 64
2, 23223, Note_off_c, 0, 44, 64
2, 23223, Note_off_c, 0, 60, 64
2, 23223, Note_on_c, 0, 61, 64
2, 23223, Note_on_c, 0, 46, 64
2, 23283, Note_off_c, 0, 68, 64
2, 23283, Note_on_c, 0, 66, 64
2, 23343, Note_off_c, 0, 66, 64
2, 23343, Note_on_c, 0, 64, 64
2, 23403, Note_off_c, 0, 64, 64
2, 23403, Note_off_c, 0, 46, 64
2, 23403, Note_off_c, 0, 61, 64
2, 23403, Note_on_c, 0, 63, 64
2, 23403, Note_on_c, 0, 48, 64
2, 23463, Note_on_c, 0, 66, 64
2, 23523, Note_off_c, 0, 66, 64
2, 23523, Note_on_c, 0, 69, 64
2, 23583, Note_off_c, 0, 48, 64
2, 23583, Note_off_c, 0, 63, 64
2, 23583, Note_on_c, 0, 44, 64
2, 23583, Note_on_c, 0, 60, 64
2, 23643, Note_off_c, 0, 69, 64
2, 23643, Note_on_c, 0, 68, 64
2, 23703, Note_off_c, 0, 68, 64
2, 23703, Note_on_c, 0, 66, 64
2, 23763, Note_off_c, 0, 66, 64
2, 23763, Note_off_c, 0, 60, 64
2, 23763, Note_off_c, 0, 44, 64
2, 23763, Note_on_c, 0, 64, 64
2, 23763, Note_on_c, 0, 61, 64
2, 23763, Note_on_c, 0, 49, 64
2, 23823, Note_off_c, 0, 61, 64
2, 23823, Note_on_c, 0, 56, 64
2, 23883, Note_off_c, 0, 56, 64
2, 23883, Note_on_c, 0, 61, 64
2, 23943, Note_off_c, 0, 49, 64
2, 23943, Note_off_c, 0, 64, 64
2, 23943, Note_on_c, 0, 66, 64
2, 23943, Note_on_c, 0, 51, 64
2, 24003, Note_off_c, 0, 61, 64
2, 24003, Note_on_c, 0, 59, 64
2, 24063, Note_off_c, 0, 59, 64
2, 24063, Note_on_c, 0, 57, 64
2, 24123, Note_off_c, 0, 57, 64
2, 24123, Note_off_c, 0, 51, 64
2, 24123, Note_off_c, 0, 66, 64
2, 24123, Note_on_c, 0, 68, 64
2, 24123, Note_on_c, 0, 56, 64
2, 24123, Note_on_c, 0, 52, 64
2, 24183, Note_off_c, 0, 56, 64
2, 24183, Note_on_c, 0, 59, 64
2, 24243, Note_off_c, 0, 59, 64
2, 24243, Note_off_c, 0, 68, 64
2, 24243, Note_on_c, 0, 62, 64
2, 24303, Note_off_c, 0, 52, 64
2, 24303, Note_on_c, 0, 53, 64
2, 24363, Note_off_c, 0, 62, 64
2, 24363, Note_on_c, 0, 61, 64
2, 24423, Note_off_c, 0, 61, 64
2, 24423, Note_on_c, 0, 59, 64
2, 24483, Note_off_c, 0, 59, 64
2, 24483, Note_off_c, 0, 53, 64
2, 24483, Note_on_c, 0, 78, 64
2, 24483, Note_on_c, 0, 57, 64
2, 24483, Note_on_c, 0, 54, 64
2, 24543, Note_off_c, 0, 57, 64
2, 24543, Note_on_c, 0, 59, 64
2, 24603, Note_off_c, 0, 59, 64
2, 24603, Note_on_c, 0, 61, 64
2, 24663, Note_off_c, 0, 54, 64
2, 24663, Note_on_c, 0, 50, 64
2, 24723, Note_off_c, 0, 61, 64
2, 24723, Note_on_c, 0, 54, 64
2, 24783, Note_off_c, 0, 54, 64
2, 24783, Note_on_c, 0, 59, 64
2, 24843, Note_off_c, 0, 50, 64
2, 24843, Note_off_c, 0, 78, 64
2, 24843, Note_on_c, 0, 77, 64
2, 24843, Note_on_c, 0, 49, 64
2, 24903, Note_off_c, 0, 59, 64
2, 24903, Note_on_c, 0, 58, 64
2, 24963, Note_off_c, 0, 58, 64
2, 24963, Note_on_c, 0, 56, 64
2, 25023, Note_off_c, 0, 56, 64
2, 25023, Note_off_c, 0, 49, 64
2, 25023, Note_off_c, 0, 77, 64
2, 25023, Note_on_c, 0, 58, 64
2, 25023, Note_on_c, 0, 76, 64
2, 25023, Note_on_c, 0, 54, 64
2, 25083, Note_off_c, 0, 54, 64
2, 25083, Note_on_c, 0, 52, 64
2, 25143, Note_off_c, 0, 52, 64
2, 25143, Note_on_c, 0, 54, 64
2, 25203, Note_off_c, 0, 54, 64
2, 25203, Note_off_c, 0, 76, 64
2, 25203, Note_off_c, 0, 58, 64
2, 25203, Note_on_c, 0, 75, 64
2, 25203, Note_on_c, 0, 59, 64
2, 25203, Note_on_c, 0, 47, 64
2, 25263, Note_off_c, 0, 47, 64
2, 25263, Note_on_c, 0, 56, 64
2, 25323, Note_off_c, 0, 56, 64
2, 25323, Note_on_c, 0, 54, 64
2, 25383, Note_off_c, 0, 54, 64
2, 25383, Note_off_c, 0, 59, 64
2, 25383, Note_off_c, 0, 75, 64
2, 25383, Note_on_c, 0, 80, 64
2, 25383, Note_on_c, 0, 71, 64
2, 25383, Note_on_c, 0, 53, 64
2, 25443, Note_off_c, 0, 53, 64
2, 25443, Note_on_c, 0, 51, 64
2, 25503, Note_off_c, 0, 51, 64
2, 25503, Note_on_c, 0, 53, 64
2, 25563, Note_off_c, 0, 53, 64
2, 25563, Note_off_c, 0, 71, 64
2, 25563, Note_off_c, 0, 80, 64
2, 25563, Note_on_c, 0, 73, 64
2, 25563, Note_on_c, 0, 70, 64
2, 25563, Note_on_c, 0, 54, 64
2, 25623, Note_off_c, 0, 54, 64
2, 25623, Note_on_c, 0, 56, 64
2, 25683, Note_off_c, 0, 56, 64
2, 25683, Note_on_c, 0, 52, 64
2, 25743, Note_off_c, 0, 52, 64
2, 25743, Note_off_c, 0, 70, 64
2, 25743, Note_off_c, 0, 73, 64
2, 25743, Note_on_c, 0, 69, 64
2, 25743, Note_on_c, 0, 78, 64
2, 25743, Note_on_c, 0, 51, 64
2, 25803, Note_off_c, 0, 51, 64
2, 25803, Note_on_c, 0, 52, 64
2, 25863, Note_off_c, 0, 52, 64
2, 25863, Note_on_c, 0, 49, 64
2, 25923, Note_off_c, 0, 49, 64
2, 25923, Note_off_c, 0, 69, 64
2, 25923, Note_on_c, 0, 68, 64
2, 25923, Note_on_c, 0, 48, 64
2, 25983, Note_off_c, 0, 48, 64
2, 25983, Note_on_c, 0, 49, 64
2, 26043, Note_off_c, 0, 49, 64
2, 26043, Note_on_c, 0, 51, 64
2, 26103, Note_off_c, 0, 51, 64
2, 26103, Note_off_c, 0, 68, 64
2, 26103, Note_off_c, 0, 78, 64
2, 26103, Note_on_c, 0, 76, 64
2, 26103, Note_on_c, 0, 73, 64
2, 26103, Note_on_c, 0, 52, 64
2, 26163, Note_off_c, 0, 52, 64
2, 26163, Note_on_c, 0, 51, 64
2, 26223, Note_off_c, 0, 51, 64
2, 26223, Note_on_c, 0, 49, 64
2, 26283, Note_off_c, 0, 49, 64
2, 26283, Note_off_c, 0, 76, 64
2, 26283, Note_on_c, 0, 75, 64
2, 26283, Note_on_c, 0, 56, 64
2, 26343, Note_off_c, 0, 73, 64
2, 26343, Note_on_c, 0, 71, 64
2, 26403, Note_off_c, 0, 71, 64
2, 26403, Note_off_c, 0, 56, 64
2, 26403, Note_on_c, 0, 70, 64
2, 26403, Note_on_c, 0, 51, 64
2, 26463, Note_off_c, 0, 51, 64
2, 26463, Note_off_c, 0, 70, 64
2, 26463, Note_off_c, 0, 75, 64
2, 26463, Note_on_c, 0, 76, 64
2, 26463, Note_on_c, 0, 56, 64
2, 26463, Note_on_c, 0, 71, 64
2, 26523, Note_off_c, 0, 71, 64
2, 26523, Note_on_c, 0, 73, 64
2, 26583, Note_off_c, 0, 73, 64
2, 26583, Note_on_c, 0, 71, 64
2, 26643, Note_off_c, 0, 71, 64
2, 26643, Note_off_c, 0, 56, 64
2, 26643, Note_on_c, 0, 70, 64
2, 26643, Note_on_c, 0, 55, 64
2, 26703, Note_off_c, 0, 70, 64
2, 26703, Note_on_c, 0, 71, 64
2, 26763, Note_off_c, 0, 71, 64
2, 26763, Note_on_c, 0, 73, 64
2, 26823, Note_off_c, 0, 73, 64
2, 26823, Note_off_c, 0, 55, 64
2, 26823, Note_off_c, 0, 76, 64
2, 26823, Note_on_c, 0, 75, 64
2, 26823, Note_on_c, 0, 71, 64
2, 26823, Note_on_c, 0, 54, 64
2, 26883, Note_off_c, 0, 71, 64
2, 26883, Note_on_c, 0, 73, 64
2, 26943, Note_off_c, 0, 73, 64
2, 26943, Note_on_c, 0, 70, 64
2, 27003, Note_off_c, 0, 70, 64
2, 27003, Note_off_c, 0, 54, 64
2, 27003, Note_on_c, 0, 68, 64
2, 27003, Note_on_c, 0, 53, 64
2, 27063, Note_off_c, 0, 75, 64
2, 27063, Note_on_c, 0, 73, 64
2, 27123, Note_off_c, 0, 73, 64
2, 27123, Note_on_c, 0, 71, 64
2, 27183, Note_off_c, 0, 71, 64
2, 27183, Note_off_c, 0, 53, 64
2, 27183, Note_on_c, 0, 58, 64
2, 27183, Note_on_c, 0, 73, 64
2, 27243, Note_off_c, 0, 73, 64
2, 27243, Note_on_c, 0, 75, 64
2, 27303, Note_off_c, 0, 75, 64
2, 27303, Note_on_c, 0, 76, 64
2, 27363, Note_off_c, 0, 58, 64
2, 27363, Note_off_c, 0, 68, 64
2, 27363, Note_on_c, 0, 67, 64
2, 27363, Note_on_c, 0, 51, 64
2, 27423, Note_off_c, 0, 76, 64
2, 27423, Note_on_c, 0, 75, 64
2, 27483, Note_off_c, 0, 75, 64
2, 27483, Note_on_c, 0, 73, 64
2, 27543, Note_off_c, 0, 73, 64
2, 27543, Note_off_c, 0, 67, 64
2, 27543, Note_on_c, 0, 71, 64
2, 27543, Note_on_c, 0, 68, 64
2, 27603, Note_off_c, 0, 71, 64
2, 27603, Note_off_c, 0, 51, 64
2, 27603, Note_on_c, 0, 73, 64
2, 27603, Note_on_c, 0, 52, 64
2, 27663, Note_off_c, 0, 52, 64
2, 27663, Note_off_c, 0, 73, 64
2, 27663, Note_on_c, 0, 71, 64
2, 27663, Note_on_c, 0, 51, 64
2, 27723, Note_off_c, 0, 51, 64
2, 27723, Note_off_c, 0, 71, 64
2, 27723, Note_on_c, 0, 70, 64
2, 27723, Note_on_c, 0, 49, 64
2, 27783, Note_off_c, 0, 49, 64
2, 27783, Note_on_c, 0, 47, 64
2, 27843, Note_off_c, 0, 47, 64
2, 27843, Note_on_c, 0, 49, 64
2, 27903, Note_off_c, 0, 49, 64
2, 27903, Note_off_c, 0, 70, 64
2, 27903, Note_off_c, 0, 68, 64
2, 27903, Note_on_c, 0, 67, 64
2, 27903, Note_on_c, 0, 46, 64
2, 27963, Note_off_c, 0, 46, 64
2, 27963, Note_on_c, 0, 51, 64
2, 28023, Note_off_c, 0, 51, 64
2, 28023, Note_on_c, 0, 49, 64
2, 28083, Note_off_c, 0, 49, 64
2, 28083, Note_off_c, 0, 67, 64
2, 28083, Note_on_c, 0, 75, 64
2, 28083, Note_on_c, 0, 68, 64
2, 28083, Note_on_c, 0, 47, 64
2, 28143, Note_off_c, 0, 47, 64
2, 28143, Note_off_c, 0, 75, 64
2, 28143, Note_on_c, 0, 73, 64
2, 28143, Note_on_c, 0, 46, 64
2, 28203, Note_off_c, 0, 46, 64
2, 28203, Note_off_c, 0, 73, 64
2, 28203, Note_on_c, 0, 75, 64
2, 28203, Note_on_c, 0, 47, 64
2, 28263, Note_off_c, 0, 47, 64
2, 28263, Note_off_c, 0, 75, 64
2, 28263, Note_on_c, 0, 71, 64
2, 28263, Note_on_c, 0, 44, 64
2, 28323, Note_off_c, 0, 44, 64
2, 28323, Note_off_c, 0, 71, 64
2, 28323, Note_on_c, 0, 76, 64
2, 28323, Note_on_c, 0, 49, 64
2, 28383, Note_off_c, 0, 49, 64
2, 28383, Note_off_c, 0, 76, 64
2, 28383, Note_on_c, 0, 75, 64
2, 28383, Note_on_c, 0, 47, 64
2, 28443, Note_off_c, 0, 47, 64
2, 28443, Note_off_c, 0, 75, 64
2, 28443, Note_on_c, 0, 73, 64
2, 28443, Note_on_c, 0, 46, 64
2, 28503, Note_off_c, 0, 73, 64
2, 28503, Note_on_c, 0, 71, 64
2, 28563, Note_off_c, 0, 71, 64
2, 28563, Note_on_c, 0, 73, 64
2, 28623, Note_off_c, 0, 73, 64
2, 28623, Note_off_c, 0, 46, 64
2, 28623, Note_off_c, 0, 68, 64
2, 28623, Note_on_c, 0, 47, 64
2, 28623, Note_on_c, 0, 66, 64
2, 28623, Note_on_c, 0, 70, 64
2, 28683, Note_off_c, 0, 70, 64
2, 28683, Note_on_c, 0, 75, 64
2, 28743, Note_off_c, 0, 75, 64
2, 28743, Note_on_c, 0, 73, 64
2, 28803, Note_off_c, 0, 73, 64
2, 28803, Note_off_c, 0, 47, 64
2, 28803, Note_on_c, 0, 72, 64
2, 28803, Note_on_c, 0, 44, 64
2, 28863, Note_off_c, 0, 72, 64
2, 28863, Note_on_c, 0, 70, 64
2, 28923, Note_off_c, 0, 70, 64
2, 28923, Note_on_c, 0, 68, 64
2, 28983, Note_off_c, 0, 68, 64
2, 28983, Note_off_c, 0, 44, 64
2, 28983, Note_off_c, 0, 66, 64
2, 28983, Note_on_c, 0, 73, 64
2, 28983, Note_on_c, 0, 64, 64
2, 29043, Note_off_c, 0, 64, 64
2, 29043, Note_on_c, 0, 63, 64
2, 29103, Note_off_c, 0, 63, 64
2, 29103, Note_on_c, 0, 61, 64
2, 29163, Note_off_c, 0, 61, 64
2, 29163, Note_on_c, 0, 63, 64
2, 29163, Note_on_c, 0, 56, 64
2, 29223, Note_off_c, 0, 56, 64
2, 29223, Note_on_c, 0, 54, 64
2, 29283, Note_off_c, 0, 54, 64
2, 29283, Note_on_c, 0, 56, 64
2, 29343, Note_off_c, 0, 56, 64
2, 29343, Note_off_c, 0, 73, 64
2, 29343, Note_on_c, 0, 71, 64
2, 29343, Note_on_c, 0, 51, 64
2, 29403, Note_off_c, 0, 51, 64
2, 29403, Note_on_c, 0, 56, 64
2, 29463, Note_off_c, 0, 56, 64
2, 29463, Note_on_c, 0, 54, 64
2, 29523, Note_off_c, 0, 54, 64
2, 29523, Note_off_c, 0, 63, 64
2, 29523, Note_on_c, 0, 61, 64
2, 29523, Note_on_c, 0, 53, 64
2, 29583, Note_off_c, 0, 53, 64
2, 29583, Note_on_c, 0, 51, 64
2, 29643, Note_off_c, 0, 51, 64
2, 29643, Note_on_c, 0, 49, 64
2, 29703, Note_off_c, 0, 49, 64
2, 29703, Note_off_c, 0, 71, 64
2, 29703, Note_on_c, 0, 69, 64
2, 29703, Note_on_c, 0, 54, 64
2, 29763, Note_off_c, 0, 69, 64
2, 29763, Note_on_c, 0, 68, 64
2, 29823, Note_off_c, 0, 68, 64
2, 29823, Note_on_c, 0, 66, 64
2, 29883, Note_off_c, 0, 66, 64
2, 29883, Note_off_c, 0, 61, 64
2, 29883, Note_on_c, 0, 68, 64
2, 29883, Note_on_c, 0, 59, 64
2, 29943, Note_off_c, 0, 59, 64
2, 29943, Note_on_c, 0, 57, 64
2, 30003, Note_off_c, 0, 57, 64
2, 30003, Note_on_c, 0, 59, 64
2, 30063, Note_off_c, 0, 59, 64
2, 30063, Note_off_c, 0, 54, 64
2, 30063, Note_on_c, 0, 52, 64
2, 30063, Note_on_c, 0, 56, 64
2, 30123, Note_off_c, 0, 56, 64
2, 30123, Note_on_c, 0, 61, 64
2, 30183, Note_off_c, 0, 61, 64
2, 30183, Note_on_c, 0, 59, 64
2, 30243, Note_off_c, 0, 59, 64
2, 30243, Note_off_c, 0, 68, 64
2, 30243, Note_on_c, 0, 66, 64
2, 30243, Note_on_c, 0, 58, 64
2, 30303, Note_off_c, 0, 58, 64
2, 30303, Note_on_c, 0, 56, 64
2, 30363, Note_off_c, 0, 56, 64
2, 30363, Note_on_c, 0, 54, 64
2, 30423, Note_off_c, 0, 54, 64
2, 30423, Note_off_c, 0, 52, 64
2, 30423, Note_on_c, 0, 59, 64
2, 30423, Note_on_c, 0, 51, 64
2, 30483, Note_off_c, 0, 51, 64
2, 30483, Note_on_c, 0, 49, 64
2, 30543, Note_off_c, 0, 49, 64
2, 30543, Note_on_c, 0, 47, 64
2, 30603, Note_off_c, 0, 47, 64
2, 30603, Note_off_c, 0, 66, 64
2, 30603, Note_on_c, 0, 64, 64
2, 30603, Note_on_c, 0, 49, 64
2, 30663, Note_off_c, 0, 64, 64
2, 30663, Note_on_c, 0, 63, 64
2, 30723, Note_off_c, 0, 63, 64
2, 30723, Note_on_c, 0, 64, 64
2, 30783, Note_off_c, 0, 64, 64
2, 30783, Note_off_c, 0, 49, 64
2, 30783, Note_off_c, 0, 59, 64
2, 30783, Note_on_c, 0, 54, 64
2, 30783, Note_on_c, 0, 58, 64
2, 30783, Note_on_c, 0, 61, 64
2, 30903, Note_off_c, 0, 61, 64
2, 30903, Note_on_c, 0, 64, 64
2, 30963, Note_off_c, 0, 64, 64
2, 30963, Note_off_c, 0, 58, 64
2, 30963, Note_off_c, 0, 54, 64
2, 30963, Note_on_c, 0, 63, 64
2, 30963, Note_on_c, 0, 59, 64
2, 30963, Note_on_c, 0, 47, 64
2, 31023, Note_off_c, 0, 63, 64
2, 31023, Note_on_c, 0, 66, 64
2, 31083, Note_off_c, 0, 66, 64
2, 31083, Note_on_c, 0, 71, 64
2, 31143, Note_off_c, 0, 47, 64
2, 31143, Note_off_c, 0, 59, 64
2, 31143, Note_on_c, 0, 61, 64
2, 31203, Note_off_c, 0, 71, 64
2, 31203, Note_on_c, 0, 69, 64
2, 31263, Note_off_c, 0, 69, 64
2, 31263, Note_on_c, 0, 68, 64
2, 31263, Note_on_c, 0, 59, 64
2, 31323, Note_off_c, 0, 59, 64
2, 31323, Note_off_c, 0, 68, 64
2, 31323, Note_off_c, 0, 61, 64
2, 31323, Note_on_c, 0, 66, 64
2, 31323, Note_on_c, 0, 63, 64
2, 31323, Note_on_c, 0, 57, 64
2, 31383, Note_off_c, 0, 66, 64
2, 31383, Note_on_c, 0, 77, 64
2, 31443, Note_off_c, 0, 77, 64
2, 31443, Note_on_c, 0, 78, 64
2, 31503, Note_off_c, 0, 78, 64
2, 31503, Note_off_c, 0, 57, 64
2, 31503, Note_off_c, 0, 63, 64
2, 31503, Note_on_c, 0, 56, 64
2, 31503, Note_on_c, 0, 65, 64
2, 31503, Note_on_c, 0, 80, 64
2, 31563, Note_off_c, 0, 80, 64
2, 31563, Note_on_c, 0, 73, 64
2, 31623, Note_off_c, 0, 73, 64
2, 31623, Note_on_c, 0, 71, 64
2, 31683, Note_off_c, 0, 71, 64
2, 31683, Note_off_c, 0, 65, 64
2, 31683, Note_off_c, 0, 56, 64
2, 31683, Note_on_c, 0, 69, 64
2, 31683, Note_on_c, 0, 66, 64
2, 31683, Note_on_c, 0, 54, 64
2, 31743, Note_off_c, 0, 66, 64
2, 31743, Note_on_c, 0, 61, 64
2, 31803, Note_off_c, 0, 61, 64
2, 31803, Note_on_c, 0, 66, 64
2, 31863, Note_off_c, 0, 54, 64
2, 31863, Note_off_c, 0, 69, 64
2, 31863, Note_on_c, 0, 56, 64
2, 31923, Note_off_c, 0, 66, 64
2, 31923, Note_on_c, 0, 64, 64
2, 31983, Note_off_c, 0, 64, 64
2, 31983, Note_on_c, 0, 78, 64
2, 31983, Note_on_c, 0, 62, 64
2, 32043, Note_off_c, 0, 62, 64
2, 32043, Note_off_c, 0, 78, 64
2, 32043, Note_off_c, 0, 56, 64
2, 32043, Note_on_c, 0, 76, 64
2, 32043, Note_on_c, 0, 61, 64
2, 32043, Note_on_c, 0, 58, 64
2, 32103, Note_off_c, 0, 61, 64
2, 32103, Note_on_c, 0, 72, 64
2, 32163, Note_off_c, 0, 72, 64
2, 32163, Note_on_c, 0, 73, 64
2, 32223, Note_off_c, 0, 73, 64
2, 32223, Note_off_c, 0, 58, 64
2, 32223, Note_off_c, 0, 76, 64
2, 32223, Note_on_c, 0, 75, 64
2, 32223, Note_on_c, 0, 60, 64
2, 32283, Note_on_c, 0, 68, 64
2, 32343, Note_off_c, 0, 68, 64
2, 32343, Note_on_c, 0, 66, 64
2, 32403, Note_off_c, 0, 66, 64
2, 32403, Note_off_c, 0, 60, 64
2, 32403, Note_on_c, 0, 64, 64
2, 32403, Note_on_c, 0, 61, 64
2, 32463, Note_off_c, 0, 75, 64
2, 32463, Note_on_c, 0, 73, 64
2, 32523, Note_off_c, 0, 73, 64
2, 32523, Note_off_c, 0, 61, 64
2, 32523, Note_off_c, 0, 64, 64
2, 32523, Note_on_c, 0, 75, 64
2, 32523, Note_on_c, 0, 56, 64
2, 32583, Note_off_c, 0, 56, 64
2, 32583, Note_off_c, 0, 75, 64
2, 32583, Note_on_c, 0, 76, 64
2, 32583, Note_on_c, 0, 61, 64
2, 32643, Note_off_c, 0, 76, 64
2, 32643, Note_on_c, 0, 69, 64
2, 32703, Note_off_c, 0, 69, 64
2, 32703, Note_on_c, 0, 68, 64
2, 32703, Note_on_c, 0, 49, 64
2, 32763, Note_off_c, 0, 49, 64
2, 32763, Note_off_c, 0, 68, 64
2, 32763, Note_on_c, 0, 66, 64
2, 32763, Note_on_c, 0, 51, 64
2, 32823, Note_off_c, 0, 66, 64
2, 32823, Note_off_c, 0, 61, 64
2, 32823, Note_on_c, 0, 75, 64
2, 32823, Note_on_c, 0, 59, 64
2, 32883, Note_off_c, 0, 59, 64
2, 32883, Note_off_c, 0, 75, 64
2, 32883, Note_off_c, 0, 51, 64
2, 32883, Note_on_c, 0, 76, 64
2, 32883, Note_on_c, 0, 61, 64
2, 32943, Note_off_c, 0, 61, 64
2, 32943, Note_off_c, 0, 76, 64
2, 32943, Note_on_c, 0, 78, 64
2, 32943, Note_on_c, 0, 63, 64
2, 33003, Note_off_c, 0, 63, 64
2, 33003, Note_off_c, 0, 78, 64
2, 33003, Note_on_c, 0, 71, 64
2, 33003, Note_on_c, 0, 64, 64
2, 33063, Note_off_c, 0, 64, 64
2, 33063, Note_off_c, 0, 71, 64
2, 33063, Note_on_c, 0, 63, 64
2, 33063, Note_on_c, 0, 69, 64
2, 33063, Note_on_c, 0, 66, 64
2, 33123, Note_off_c, 0, 66, 64
2, 33123, Note_off_c, 0, 69, 64
2, 33123, Note_off_c, 0, 63, 64
2, 33123, Note_on_c, 0, 68, 64
2, 33123, Note_on_c, 0, 64, 64
2, 33183, Note_off_c, 0, 64, 64
2, 33183, Note_off_c, 0, 68, 64
2, 33183, Note_on_c, 0, 80, 64
2, 33183, Note_on_c, 0, 52, 64
2, 33243, Note_off_c, 0, 52, 64
2, 33243, Note_off_c, 0, 80, 64
2, 33243, Note_on_c, 0, 81, 64
2, 33243, Note_on_c, 0, 54, 64
2, 33303, Note_off_c, 0, 54, 64
2, 33303, Note_off_c, 0, 81, 64
2, 33303, Note_on_c, 0, 83, 64
2, 33303, Note_on_c, 0, 56, 64
2, 33363, Note_off_c, 0, 56, 64
2, 33363, Note_off_c, 0, 83, 64
2, 33363, Note_on_c, 0, 76, 64
2, 33363, Note_on_c, 0, 54, 64
2, 33423, Note_off_c, 0, 54, 64
2, 33423, Note_off_c, 0, 76, 64
2, 33423, Note_on_c, 0, 74, 64
2, 33423, Note_on_c, 0, 56, 64
2, 33483, Note_off_c, 0, 56, 64
2, 33483, Note_off_c, 0, 74, 64
2, 33483, Note_on_c, 0, 73, 64
2, 33483, Note_on_c, 0, 57, 64
2, 33543, Note_off_c, 0, 57, 64
2, 33543, Note_on_c, 0, 65, 64
2, 33543, Note_on_c, 0, 56, 64
2, 33603, Note_off_c, 0, 56, 64
2, 33603, Note_off_c, 0, 65, 64
2, 33603, Note_on_c, 0, 66, 64
2, 33603, Note_on_c, 0, 54, 64
2, 33663, Note_off_c, 0, 54, 64
2, 33663, Note_off_c, 0, 66, 64
2, 33663, Note_on_c, 0, 68, 64
2, 33663, Note_on_c, 0, 53, 64
2, 33723, Note_off_c, 0, 53, 64
2, 33723, Note_off_c, 0, 68, 64
2, 33723, Note_on_c, 0, 61, 64
2, 33723, Note_on_c, 0, 51, 64
2, 33783, Note_off_c, 0, 51, 64
2, 33783, Note_off_c, 0, 61, 64
2, 33783, Note_on_c, 0, 59, 64
2, 33783, Note_on_c, 0, 53, 64
2, 33843, Note_off_c, 0, 53, 64
2, 33843, Note_off_c, 0, 59, 64
2, 33843, Note_on_c, 0, 57, 64
2, 33843, Note_on_c, 0, 54, 64
2, 33903, Note_off_c, 0, 73, 64
2, 33903, Note_on_c, 0, 72, 64
2, 33963, Note_off_c, 0, 72, 64
2, 33963, Note_off_c, 0, 57, 64
2, 33963, Note_on_c, 0, 69, 64
2, 33963, Note_on_c, 0, 73, 64
2, 34023, Note_off_c, 0, 73, 64
2, 34023, Note_off_c, 0, 69, 64
2, 34023, Note_on_c, 0, 75, 64
2, 34023, Note_on_c, 0, 60, 64
2, 34083, Note_off_c, 0, 75, 64
2, 34083, Note_on_c, 0, 73, 64
2, 34143, Note_off_c, 0, 73, 64
2, 34143, Note_on_c, 0, 75, 64
2, 34203, Note_off_c, 0, 75, 64
2, 34203, Note_off_c, 0, 60, 64
2, 34203, Note_off_c, 0, 54, 64
2, 34203, Note_on_c, 0, 61, 64
2, 34203, Note_on_c, 0, 68, 64
2, 34203, Note_on_c, 0, 53, 64
2, 34263, Note_off_c, 0, 68, 64
2, 34263, Note_on_c, 0, 70, 64
2, 34323, Note_off_c, 0, 70, 64
2, 34323, Note_on_c, 0, 72, 64
2, 34383, Note_off_c, 0, 72, 64
2, 34383, Note_off_c, 0, 53, 64
2, 34383, Note_on_c, 0, 52, 64
2, 34383, Note_on_c, 0, 73, 64
2, 34443, Note_off_c, 0, 73, 64
2, 34443, Note_on_c, 0, 75, 64
2, 34503, Note_off_c, 0, 75, 64
2, 34503, Note_on_c, 0, 76, 64
2, 34563, Note_off_c, 0, 76, 64
2, 34563, Note_off_c, 0, 52, 64
2, 34563, Note_on_c, 0, 78, 64
2, 34563, Note_on_c, 0, 51, 64
2, 34623, Note_off_c, 0, 78, 64
2, 34623, Note_on_c, 0, 76, 64
2, 34683, Note_off_c, 0, 76, 64
2, 34683, Note_on_c, 0, 78, 64
2, 34743, Note_off_c, 0, 78, 64
2, 34743, Note_off_c, 0, 51, 64
2, 34743, Note_off_c, 0, 61, 64
2, 34743, Note_on_c, 0, 75, 64
2, 34743, Note_on_c, 0, 60, 64
2, 34743, Note_on_c, 0, 56, 64
2, 34803, Note_off_c, 0, 75, 64
2, 34803, Note_on_c, 0, 80, 64
2, 34863, Note_off_c, 0, 80, 64
2, 34863, Note_on_c, 0, 78, 64
2, 34923, Note_off_c, 0, 78, 64
2, 34923, Note_off_c, 0, 56, 64
2, 34923, Note_off_c, 0, 60, 64
2, 34923, Note_on_c, 0, 76, 64
2, 34923, Note_on_c, 0, 61, 64
2, 34923, Note_on_c, 0, 49, 64
2, 34983, Note_off_c, 0, 61, 64
2, 34983, Note_on_c, 0, 64, 64
2, 35043, Note_off_c, 0, 64, 64
2, 35043, Note_on_c, 0, 69, 64
2, 35103, Note_off_c, 0, 49, 64
2, 35103, Note_off_c, 0, 76, 64
2, 35103, Note_on_c, 0, 47, 64
2, 35103, Note_on_c, 0, 75, 64
2, 35163, Note_off_c, 0, 69, 64
2, 35163, Note_on_c, 0, 67, 64
2, 35223, Note_off_c, 0, 67, 64
2, 35223, Note_on_c, 0, 68, 64
2, 35283, Note_off_c, 0, 75, 64
2, 35283, Note_off_c, 0, 47, 64
2, 35283, Note_on_c, 0, 73, 64
2, 35283, Note_on_c, 0, 45, 64
2, 35343, Note_off_c, 0, 68, 64
2, 35343, Note_on_c, 0, 66, 64
2, 35403, Note_off_c, 0, 66, 64
2, 35403, Note_on_c, 0, 65, 64
2, 35463, Note_off_c, 0, 65, 64
2, 35463, Note_off_c, 0, 45, 64
2, 35463, Note_on_c, 0, 66, 64
2, 35523, Note_off_c, 0, 73, 64
2, 35523, Note_on_c, 0, 73, 64
2, 35583, Note_off_c, 0, 73, 64
2, 35583, Note_on_c, 0, 76, 64
2, 35583, Note_on_c, 0, 46, 64
2, 35643, Note_off_c, 0, 46, 64
2, 35643, Note_off_c, 0, 76, 64
2, 35643, Note_on_c, 0, 75, 64
2, 35643, Note_on_c, 0, 47, 64
2, 35703, Note_off_c, 0, 66, 64
2, 35703, Note_on_c, 0, 63, 64
2, 35763, Note_off_c, 0, 63, 64
2, 35763, Note_on_c, 0, 68, 64
2, 35823, Note_off_c, 0, 47, 64
2, 35823, Note_off_c, 0, 75, 64
2, 35823, Note_on_c, 0, 45, 64
2, 35823, Note_on_c, 0, 73, 64
2, 35883, Note_off_c, 0, 68, 64
2, 35883, Note_on_c, 0, 65, 64
2, 35943, Note_off_c, 0, 65, 64
2, 35943, Note_on_c, 0, 66, 64
2, 36003, Note_off_c, 0, 73, 64
2, 36003, Note_off_c, 0, 45, 64
2, 36003, Note_on_c, 0, 71, 64
2, 36003, Note_on_c, 0, 44, 64
2, 36063, Note_off_c, 0, 66, 64
2, 36063, Note_on_c, 0, 64, 64
2, 36123, Note_off_c, 0, 64, 64
2, 36123, Note_on_c, 0, 63, 64
2, 36183, Note_off_c, 0, 63, 64
2, 36183, Note_off_c, 0, 44, 64
2, 36183, Note_on_c, 0, 64, 64
2, 36243, Note_off_c, 0, 71, 64
2, 36243, Note_on_c, 0, 71, 64
2, 36303, Note_off_c, 0, 71, 64
2, 36303, Note_on_c, 0, 74, 64
2, 36303, Note_on_c, 0, 56, 64
2, 36363, Note_off_c, 0, 56, 64
2, 36363, Note_off_c, 0, 74, 64
2, 36363, Note_on_c, 0, 73, 64
2, 36363, Note_on_c, 0, 57, 64
2, 36423, Note_off_c, 0, 57, 64
2, 36423, Note_off_c, 0, 73, 64
2, 36423, Note_on_c, 0, 71, 64
2, 36423, Note_on_c, 0, 56, 64
2, 36483, Note_off_c, 0, 56, 64
2, 36483, Note_off_c, 0, 71, 64
2, 36483, Note_on_c, 0, 73, 64
2, 36483, Note_on_c, 0, 57, 64
2, 36543, Note_off_c, 0, 57, 64
2, 36543, Note_off_c, 0, 73, 64
2, 36543, Note_off_c, 0, 64, 64
2, 36543, Note_on_c, 0, 63, 64
2, 36543, Note_on_c, 0, 66, 64
2, 36543, Note_on_c, 0, 59, 64
2, 36603, Note_off_c, 0, 59, 64
2, 36603, Note_off_c, 0, 66, 64
2, 36603, Note_on_c, 0, 71, 64
2, 36603, Note_on_c, 0, 57, 64
2, 36663, Note_off_c, 0, 57, 64
2, 36663, Note_off_c, 0, 71, 64
2, 36663, Note_on_c, 0, 59, 64
2, 36663, Note_on_c, 0, 69, 64
2, 36723, Note_off_c, 0, 69, 64
2, 36723, Note_off_c, 0, 59, 64
2, 36723, Note_off_c, 0, 63, 64
2, 36723, Note_on_c, 0, 68, 64
2, 36723, Note_on_c, 0, 62, 64
2, 36723, Note_on_c, 0, 52, 64
2, 36783, Note_off_c, 0, 68, 64
2, 36783, Note_on_c, 0, 66, 64
2, 36843, Note_off_c, 0, 66, 64
2, 36843, Note_on_c, 0, 68, 64
2, 36903, Note_off_c, 0, 68, 64
2, 36903, Note_off_c, 0, 52, 64
2, 36903, Note_off_c, 0, 62, 64
2, 36903, Note_on_c, 0, 64, 64
2, 36903, Note_on_c, 0, 61, 64
2, 36903, Note_on_c, 0, 57, 64
2, 36963, Note_off_c, 0, 64, 64
2, 36963, Note_on_c, 0, 69, 64
2, 37023, Note_off_c, 0, 69, 64
2, 37023, Note_on_c, 0, 68, 64
2, 37083, Note_off_c, 0, 68, 64
2, 37083, Note_off_c, 0, 57, 64
2, 37083, Note_off_c, 0, 61, 64
2, 37083, Note_on_c, 0, 66, 64
2, 37083, Note_on_c, 0, 60, 64
2, 37083, Note_on_c, 0, 51, 64
2, 37143, Note_off_c, 0, 66, 64
2, 37143, Note_on_c, 0, 64, 64
2, 37203, Note_off_c, 0, 64, 64
2, 37203, Note_on_c, 0, 66, 64
2, 37263, Note_off_c, 0, 66, 64
2, 37263, Note_off_c, 0, 51, 64
2, 37263, Note_off_c, 0, 60, 64
2, 37263, Note_on_c, 0, 52, 64
2, 37263, Note_on_c, 0, 59, 64
2, 37263, Note_on_c, 0, 68, 64
2, 37323, Note_off_c, 0, 68, 64
2, 37323, Note_on_c, 0, 66, 64
2, 37383, Note_off_c, 0, 66, 64
2, 37383, Note_on_c, 0, 68, 64
2, 37443, Note_off_c, 0, 68, 64
2, 37443, Note_off_c, 0, 59, 64
2, 37443, Note_off_c, 0, 52, 64
2, 37443, Note_on_c, 0, 69, 64
2, 37443, Note_on_c, 0, 61, 64
2, 37443, Note_on_c, 0, 45, 64
2, 37503, Note_off_c, 0, 45, 64
2, 37503, Note_off_c, 0, 61, 64
2, 37503, Note_on_c, 0, 62, 64
2, 37503, Note_on_c, 0, 47, 64
2, 37563, Note_off_c, 0, 47, 64
2, 37563, Note_off_c, 0, 62, 64
2, 37563, Note_on_c, 0, 61, 64
2, 37563, Note_on_c, 0, 49, 64
2, 37623, Note_off_c, 0, 49, 64
2, 37623, Note_off_c, 0, 61, 64
2, 37623, Note_on_c, 0, 59, 64
2, 37623, Note_on_c, 0, 50, 64
2, 37683, Note_off_c, 0, 50, 64
2, 37683, Note_off_c, 0, 59, 64
2, 37683, Note_on_c, 0, 61, 64
2, 37683, Note_on_c, 0, 52, 64
2, 37743, Note_off_c, 0, 52, 64
2, 37743, Note_off_c, 0, 61, 64
2, 37743, Note_on_c, 0, 59, 64
2, 37743, Note_on_c, 0, 50, 64
2, 37803, Note_off_c, 0, 50, 64
2, 37803, Note_off_c, 0, 59, 64
2, 37803, Note_on_c, 0, 64, 64
2, 37803, Note_on_c, 0, 49, 64
2, 37863, Note_off_c, 0, 49, 64
2, 37863, Note_off_c, 0, 64, 64
2, 37863, Note_on_c, 0, 62, 64
2, 37863, Note_on_c, 0, 47, 64
2, 37923, Note_off_c, 0, 47, 64
2, 37923, Note_off_c, 0, 62, 64
2, 37923, Note_on_c, 0, 61, 64
2, 37923, Note_on_c, 0, 45, 64
2, 37983, Note_off_c, 0, 45, 64
2, 37983, Note_off_c, 0, 61, 64
2, 37983, Note_off_c, 0, 69, 64
2, 37983, Note_on_c, 0, 52, 64
2, 37983, Note_on_c, 0, 68, 64
2, 37983, Note_on_c, 0, 59, 64
2, 38043, Note_off_c, 0, 59, 64
2, 38043, Note_on_c, 0, 57, 64
2, 38103, Note_off_c, 0, 57, 64
2, 38103, Note_on_c, 0, 56, 64
2, 38163, Note_off_c, 0, 56, 64
2, 38163, Note_off_c, 0, 68, 64
2, 38163, Note_on_c, 0, 69, 64
2, 38163, Note_on_c, 0, 54, 64
2, 38223, Note_off_c, 0, 54, 64
2, 38223, Note_off_c, 0, 69, 64
2, 38223, Note_on_c, 0, 73, 64
2, 38223, Note_on_c, 0, 57, 64
2, 38283, Note_off_c, 0, 57, 64
2, 38283, Note_off_c, 0, 73, 64
2, 38283, Note_on_c, 0, 71, 64
2, 38283, Note_on_c, 0, 56, 64
2, 38343, Note_off_c, 0, 56, 64
2, 38343, Note_off_c, 0, 71, 64
2, 38343, Note_off_c, 0, 52, 64
2, 38343, Note_on_c, 0, 73, 64
2, 38343, Note_on_c, 0, 57, 64
2, 38343, Note_on_c, 0, 51, 64
2, 38403, Note_off_c, 0, 57, 64
2, 38403, Note_off_c, 0, 73, 64
2, 38403, Note_on_c, 0, 71, 64
2, 38403, Note_on_c, 0, 52, 64
2, 38463, Note_off_c, 0, 52, 64
2, 38463, Note_off_c, 0, 71, 64
2, 38463, Note_on_c, 0, 69, 64
2, 38463, Note_on_c, 0, 54, 64
2, 38523, Note_off_c, 0, 54, 64
2, 38523, Note_off_c, 0, 69, 64
2, 38523, Note_off_c, 0, 51, 64
2, 38523, Note_on_c, 0, 71, 64
2, 38523, Note_on_c, 0, 56, 64
2, 38523, Note_on_c, 0, 50, 64
2, 38583, Note_off_c, 0, 56, 64
2, 38583, Note_off_c, 0, 71, 64
2, 38583, Note_on_c, 0, 65, 64
2, 38583, Note_on_c, 0, 57, 64
2, 38643, Note_off_c, 0, 57, 64
2, 38643, Note_off_c, 0, 65, 64
2, 38643, Note_on_c, 0, 66, 64
2, 38643, Note_on_c, 0, 56, 64
2, 38703, Note_off_c, 0, 56, 64
2, 38703, Note_off_c, 0, 66, 64
2, 38703, Note_off_c, 0, 50, 64
2, 38703, Note_on_c, 0, 49, 64
2, 38703, Note_on_c, 0, 65, 64
2, 38703, Note_on_c, 0, 59, 64
2, 38763, Note_off_c, 0, 59, 64
2, 38763, Note_on_c, 0, 54, 64
2, 38823, Note_off_c, 0, 54, 64
2, 38823, Note_off_c, 0, 65, 64
2, 38823, Note_on_c, 0, 56, 64
2, 38883, Note_off_c, 0, 56, 64
2, 38883, Note_on_c, 0, 73, 64
2, 38883, Note_on_c, 0, 57, 64
2, 38943, Note_off_c, 0, 49, 64
2, 38943, Note_on_c, 0, 48, 64
2, 39003, Note_off_c, 0, 48, 64
2, 39003, Note_on_c, 0, 49, 64
2, 39063, Note_off_c, 0, 49, 64
2, 39063, Note_off_c, 0, 57, 64
2, 39063, Note_on_c, 0, 69, 64
2, 39063, Note_on_c, 0, 51, 64
2, 39123, Note_off_c, 0, 51, 64
2, 39123, Note_on_c, 0, 49, 64
2, 39183, Note_off_c, 0, 49, 64
2, 39183, Note_on_c, 0, 51, 64
2, 39243, Note_off_c, 0, 51, 64
2, 39243, Note_off_c, 0, 73, 64
2, 39243, Note_on_c, 0, 72, 64
2, 39243, Note_on_c, 0, 44, 64
2, 39303, Note_off_c, 0, 44, 64
2, 39303, Note_off_c, 0, 69, 64
2, 39303, Note_on_c, 0, 68, 64
2, 39303, Note_on_c, 0, 46, 64
2, 39363, Note_off_c, 0, 46, 64
2, 39363, Note_off_c, 0, 68, 64
2, 39363, Note_on_c, 0, 66, 64
2, 39363, Note_on_c, 0, 48, 64
2, 39423, Note_off_c, 0, 48, 64
2, 39423, Note_off_c, 0, 66, 64
2, 39423, Note_off_c, 0, 72, 64
2, 39423, Note_on_c, 0, 71, 64
2, 39423, Note_on_c, 0, 65, 64
2, 39423, Note_on_c, 0, 49, 64
2, 39483, Note_off_c, 0, 49, 64
2, 39483, Note_off_c, 0, 65, 64
2, 39483, Note_on_c, 0, 66, 64
2, 39483, Note_on_c, 0, 51, 64
2, 39543, Note_off_c, 0, 51, 64
2, 39543, Note_off_c, 0, 66, 64
2, 39543, Note_on_c, 0, 53, 64
2, 39543, Note_on_c, 0, 68, 64
2, 39603, Note_off_c, 0, 68, 64
2, 39603, Note_off_c, 0, 53, 64
2, 39603, Note_off_c, 0, 71, 64
2, 39603, Note_on_c, 0, 70, 64
2, 39603, Note_on_c, 0, 61, 64
2, 39603, Note_on_c, 0, 54, 64
2, 39663, Note_off_c, 0, 54, 64
2, 39663, Note_on_c, 0, 52, 64
2, 39723, Note_off_c, 0, 52, 64
2, 39723, Note_on_c, 0, 54, 64
2, 39783, Note_off_c, 0, 54, 64
2, 39783, Note_off_c, 0, 61, 64
2, 39783, Note_off_c, 0, 70, 64
2, 39783, Note_on_c, 0, 75, 64
2, 39783, Note_on_c, 0, 60, 64
2, 39783, Note_on_c, 0, 51, 64
2, 39843, Note_off_c, 0, 51, 64
2, 39843, Note_on_c, 0, 56, 64
2, 39903, Note_off_c, 0, 56, 64
2, 39903, Note_on_c, 0, 54, 64
2, 39963, Note_off_c, 0, 54, 64
2, 39963, Note_off_c, 0, 60, 64
2, 39963, Note_off_c, 0, 75, 64
2, 39963, Note_on_c, 0, 68, 64
2, 39963, Note_on_c, 0, 52, 64
2, 40023, Note_off_c, 0, 52, 64
2, 40023, Note_on_c, 0, 66, 64
2, 40023, Note_on_c, 0, 51, 64
2, 40083, Note_off_c, 0, 51, 64
2, 40083, Note_off_c, 0, 66, 64
2, 40083, Note_on_c, 0, 68, 64
2, 40083, Note_on_c, 0, 52, 64
2, 40143, Note_off_c, 0, 52, 64
2, 40143, Note_off_c, 0, 68, 64
2, 40143, Note_off_c, 0, 68, 64
2, 40143, Note_on_c, 0, 73, 64
2, 40143, Note_on_c, 0, 64, 64
2, 40143, Note_on_c, 0, 49, 64
2, 40203, Note_off_c, 0, 49, 64
2, 40203, Note_off_c, 0, 64, 64
2, 40203, Note_on_c, 0, 69, 64
2, 40203, Note_on_c, 0, 54, 64
2, 40263, Note_off_c, 0, 54, 64
2, 40263, Note_off_c, 0, 69, 64
2, 40263, Note_on_c, 0, 68, 64
2, 40263, Note_on_c, 0, 52, 64
2, 40323, Note_off_c, 0, 52, 64
2, 40323, Note_off_c, 0, 68, 64
2, 40323, Note_on_c, 0, 66, 64
2, 40323, Note_on_c, 0, 51, 64
2, 40383, Note_off_c, 0, 66, 64
2, 40383, Note_on_c, 0, 64, 64
2, 40443, Note_off_c, 0, 64, 64
2, 40443, Note_on_c, 0, 66, 64
2, 40503, Note_off_c, 0, 66, 64
2, 40503, Note_off_c, 0, 51, 64
2, 40503, Note_off_c, 0, 73, 64
2, 40503, Note_on_c, 0, 72, 64
2, 40503, Note_on_c, 0, 63, 64
2, 40503, Note_on_c, 0, 56, 64
2, 40563, Note_off_c, 0, 63, 64
2, 40563, Note_on_c, 0, 68, 64
2, 40623, Note_off_c, 0, 68, 64
2, 40623, Note_on_c, 0, 66, 64
2, 40683, Note_off_c, 0, 66, 64
2, 40683, Note_off_c, 0, 56, 64
2, 40683, Note_off_c, 0, 72, 64
2, 40683, Note_on_c, 0, 73, 64
2, 40683, Note_on_c, 0, 64, 64
2, 40683, Note_on_c, 0, 49, 64
2, 40743, Note_off_c, 0, 64, 64
2, 40743, Note_on_c, 0, 63, 64
2, 40803, Note_off_c, 0, 63, 64
2, 40803, Note_off_c, 0, 73, 64
2, 40803, Note_on_c, 0, 64, 64
2, 40863, Note_off_c, 0, 64, 64
2, 40863, Note_off_c, 0, 49, 64
2, 40863, Note_on_c, 0, 54, 64
2, 40863, Note_on_c, 0, 69, 64
2, 40863, Note_on_c, 0, 61, 64
2, 40923, Note_off_c, 0, 61, 64
2, 40923, Note_off_c, 0, 69, 64
2, 40923, Note_on_c, 0, 68, 64
2, 40923, Note_on_c, 0, 66, 64
2, 40983, Note_off_c, 0, 66, 64
2, 40983, Note_off_c, 0, 68, 64
2, 40983, Note_on_c, 0, 69, 64
2, 40983, Note_on_c, 0, 64, 64
2, 41043, Note_off_c, 0, 64, 64
2, 41043, Note_off_c, 0, 69, 64
2, 41043, Note_off_c, 0, 54, 64
2, 41043, Note_on_c, 0, 66, 64
2, 41043, Note_on_c, 0, 63, 64
2, 41043, Note_on_c, 0, 59, 64
2, 41103, Note_off_c, 0, 63, 64
2, 41103, Note_off_c, 0, 66, 64
2, 41103, Note_on_c, 0, 71, 64
2, 41103, Note_on_c, 0, 61, 64
2, 41163, Note_off_c, 0, 61, 64
2, 41163, Note_off_c, 0, 71, 64
2, 41163, Note_on_c, 0, 69, 64
2, 41163, Note_on_c, 0, 63, 64
2, 41223, Note_off_c, 0, 63, 64
2, 41223, Note_off_c, 0, 69, 64
2, 41223, Note_on_c, 0, 68, 64
2, 41223, Note_on_c, 0, 59, 64
2, 41223, Note_on_c, 0, 52, 64
2, 41224, Note_off_c, 0, 59, 64
2, 41283, Note_off_c, 0, 68, 64
2, 41283, Note_off_c, 0, 59, 64
2, 41283, Note_on_c, 0, 66, 64
2, 41283, Note_on_c, 0, 64, 64
2, 41343, Note_off_c, 0, 64, 64
2, 41343, Note_off_c, 0, 66, 64
2, 41343, Note_on_c, 0, 68, 64
2, 41343, Note_on_c, 0, 63, 64
2, 41403, Note_off_c, 0, 63, 64
2, 41403, Note_off_c, 0, 68, 64
2, 41403, Note_off_c, 0, 52, 64
2, 41403, Note_on_c, 0, 64, 64
2, 41403, Note_on_c, 0, 61, 64
2, 41403, Note_on_c, 0, 57, 64
2, 41463, Note_off_c, 0, 64, 64
2, 41463, Note_on_c, 0, 69, 64
2, 41523, Note_off_c, 0, 69, 64
2, 41523, Note_on_c, 0, 68, 64
2, 41583, Note_off_c, 0, 68, 64
2, 41583, Note_off_c, 0, 57, 64
2, 41583, Note_on_c, 0, 51, 64
2, 41583, Note_on_c, 0, 66, 64
2, 41643, Note_off_c, 0, 61, 64
2, 41643, Note_on_c, 0, 60, 64
2, 41703, Note_off_c, 0, 60, 64
2, 41703, Note_on_c, 0, 58, 64
2, 41763, Note_off_c, 0, 58, 64
2, 41763, Note_off_c, 0, 51, 64
2, 41763, Note_on_c, 0, 56, 64
2, 41763, Note_on_c, 0, 60, 64
2, 41823, Note_off_c, 0, 66, 64
2, 41823, Note_on_c, 0, 64, 64
2, 41883, Note_off_c, 0, 64, 64
2, 41883, Note_on_c, 0, 63, 64
2, 41943, Note_off_c, 0, 63, 64
2, 41943, Note_off_c, 0, 60, 64
2, 41943, Note_on_c, 0, 64, 64
2, 41943, Note_on_c, 0, 61, 64
2, 42003, Note_off_c, 0, 64, 64
2, 42003, Note_on_c, 0, 68, 64
2, 42063, Note_off_c, 0, 68, 64
2, 42063, Note_on_c, 0, 73, 64
2, 42123, Note_off_c, 0, 61, 64
2, 42123, Note_on_c, 0, 63, 64
2, 42183, Note_off_c, 0, 73, 64
2, 42183, Note_on_c, 0, 72, 64
2, 42243, Note_off_c, 0, 72, 64
2, 42243, Note_on_c, 0, 70, 64
2, 42303, Note_off_c, 0, 70, 64
2, 42303, Note_off_c, 0, 63, 64
2, 42303, Note_on_c, 0, 66, 64
2, 42303, Note_on_c, 0, 72, 64
2, 42363, Note_off_c, 0, 72, 64
2, 42363, Note_on_c, 0, 75, 64
2, 42423, Note_off_c, 0, 75, 64
2, 42423, Note_on_c, 0, 80, 64
2, 42483, Note_off_c, 0, 66, 64
2, 42483, Note_on_c, 0, 64, 64
2, 42543, Note_off_c, 0, 64, 64
2, 42543, Note_off_c, 0, 80, 64
2, 42543, Note_on_c, 0, 78, 64
2, 42543, Note_on_c, 0, 63, 64
2, 42603, Note_off_c, 0, 63, 64
2, 42603, Note_off_c, 0, 78, 64
2, 42603, Note_on_c, 0, 76, 64
2, 42603, Note_on_c, 0, 61, 64
2, 42663, Note_off_c, 0, 61, 64
2, 42663, Note_off_c, 0, 76, 64
2, 42663, Note_on_c, 0, 75, 64
2, 42663, Note_on_c, 0, 67, 64
2, 42723, Note_off_c, 0, 75, 64
2, 42723, Note_on_c, 0, 76, 64
2, 42783, Note_off_c, 0, 76, 64
2, 42783, Note_on_c, 0, 73, 64
2, 42843, Note_off_c, 0, 73, 64
2, 42843, Note_off_c, 0, 67, 64
2, 42843, Note_on_c, 0, 72, 64
2, 42843, Note_on_c, 0, 68, 64
2, 42903, Note_off_c, 0, 72, 64
2, 42903, Note_on_c, 0, 73, 64
2, 42963, Note_off_c, 0, 73, 64
2, 42963, Note_off_c, 0, 68, 64
2, 42963, Note_off_c, 0, 56, 64
2, 42963, Note_on_c, 0, 75, 64
2, 42963, Note_on_c, 0, 54, 64
2, 43023, Note_off_c, 0, 54, 64
2, 43023, Note_off_c, 0, 75, 64
2, 43023, Note_on_c, 0, 68, 64
2, 43023, Note_on_c, 0, 52, 64
2, 43083, Note_off_c, 0, 68, 64
2, 43083, Note_on_c, 0, 80, 64
2, 43143, Note_off_c, 0, 80, 64
2, 43143, Note_off_c, 0, 52, 64
2, 43143, Note_on_c, 0, 78, 64
2, 43143, Note_on_c, 0, 51, 64
2, 43203, Note_off_c, 0, 51, 64
2, 43203, Note_off_c, 0, 78, 64
2, 43203, Note_on_c, 0, 76, 64
2, 43203, Note_on_c, 0, 56, 64
2, 43203, Note_on_c, 0, 49, 64
2, 43263, Note_off_c, 0, 56, 64
2, 43263, Note_off_c, 0, 76, 64
2, 43263, Note_on_c, 0, 75, 64
2, 43263, Note_on_c, 0, 55, 64
2, 43323, Note_off_c, 0, 55, 64
2, 43323, Note_off_c, 0, 75, 64
2, 43323, Note_on_c, 0, 76, 64
2, 43323, Note_on_c, 0, 56, 64
2, 43383, Note_off_c, 0, 56, 64
2, 43383, Note_off_c, 0, 76, 64
2, 43383, Note_on_c, 0, 68, 72
2, 43383, Note_on_c, 0, 58, 64
2, 43403, Note_off_c, 0, 68, 54
2, 43403, Note_on_c, 0, 67, 50
2, 43423, Note_off_c, 0, 67, 29
2, 43423, Note_on_c, 0, 68, 53
2, 43443, Note_off_c, 0, 68, 58
2, 43443, Note_off_c, 0, 58, 64
2, 43443, Note_on_c, 0, 67, 55
2, 43443, Note_on_c, 0, 56, 64
2, 43463, Note_off_c, 0, 67, 43
2, 43463, Note_on_c, 0, 68, 58
2, 43483, Note_off_c, 0, 68, 72
2, 43483, Note_on_c, 0, 67, 60
2, 43503, Note_off_c, 0, 67, 46
2, 43503, Note_off_c, 0, 56, 64
2, 43503, Note_on_c, 0, 68, 63
2, 43503, Note_on_c, 0, 58, 64
2, 43523, Note_off_c, 0, 68, 61
2, 43523, Note_on_c, 0, 67, 43
2, 43563, Note_off_c, 0, 67, 16
2, 43563, Note_off_c, 0, 58, 64
2, 43563, Note_off_c, 0, 49, 64
2, 43563, Note_on_c, 0, 68, 64
2, 43563, Note_on_c, 0, 51, 64
2, 43563, Note_on_c, 0, 48, 64
2, 43623, Note_off_c, 0, 51, 64
2, 43623, Note_on_c, 0, 53, 64
2, 43683, Note_off_c, 0, 53, 64
2, 43683, Note_on_c, 0, 55, 64
2, 43743, Note_off_c, 0, 55, 64
2, 43743, Note_off_c, 0, 48, 64
2, 43743, Note_on_c, 0, 47, 64
2, 43743, Note_on_c, 0, 56, 64
2, 43803, Note_off_c, 0, 56, 64
2, 43803, Note_on_c, 0, 58, 64
2, 43863, Note_off_c, 0, 58, 64
2, 43863, Note_on_c, 0, 59, 64
2, 43923, Note_off_c, 0, 59, 64
2, 43923, Note_off_c, 0, 47, 64
2, 43923, Note_on_c, 0, 61, 64
2, 43923, Note_on_c, 0, 46, 64
2, 43983, Note_off_c, 0, 61, 64
2, 43983, Note_on_c, 0, 59, 64
2, 44043, Note_off_c, 0, 59, 64
2, 44043, Note_on_c, 0, 61, 64
2, 44103, Note_off_c, 0, 61, 64
2, 44103, Note_off_c, 0, 46, 64
2, 44103, Note_off_c, 0, 68, 64
2, 44103, Note_on_c, 0, 66, 64
2, 44103, Note_on_c, 0, 58, 64
2, 44103, Note_on_c, 0, 51, 64
2, 44163, Note_off_c, 0, 58, 64
2, 44163, Note_on_c, 0, 63, 64
2, 44223, Note_off_c, 0, 63, 64
2, 44223, Note_on_c, 0, 61, 64
2, 44283, Note_off_c, 0, 61, 64
2, 44283, Note_off_c, 0, 51, 64
2, 44283, Note_on_c, 0, 60, 64
2, 44283, Note_on_c, 0, 44, 64
2, 44343, Note_off_c, 0, 66, 64
2, 44343, Note_on_c, 0, 64, 64
2, 44403, Note_off_c, 0, 64, 64
2, 44403, Note_off_c, 0, 44, 64
2, 44403, Note_on_c, 0, 66, 64
2, 44463, Note_off_c, 0, 66, 64
2, 44463, Note_off_c, 0, 60, 64
2, 44463, Note_on_c, 0, 59, 64
2, 44463, Note_on_c, 0, 63, 64
2, 44463, Note_on_c, 0, 56, 64
2, 44523, Note_off_c, 0, 56, 64
2, 44523, Note_off_c, 0, 63, 64
2, 44523, Note_on_c, 0, 68, 64
2, 44523, Note_on_c, 0, 54, 64
2, 44583, Note_off_c, 0, 54, 64
2, 44583, Note_off_c, 0, 68, 64
2, 44583, Note_on_c, 0, 56, 64
2, 44583, Note_on_c, 0, 66, 64
2, 44643, Note_off_c, 0, 66, 64
2, 44643, Note_off_c, 0, 56, 64
2, 44643, Note_on_c, 0, 65, 64
2, 44643, Note_on_c, 0, 49, 64
2, 44703, Note_off_c, 0, 59, 64
2, 44703, Note_on_c, 0, 58, 64
2, 44763, Note_off_c, 0, 58, 64
2, 44763, Note_off_c, 0, 49, 64
2, 44763, Note_on_c, 0, 59, 64
2, 44823, Note_off_c, 0, 59, 64
2, 44823, Note_off_c, 0, 65, 64
2, 44823, Note_on_c, 0, 64, 64
2, 44823, Note_on_c, 0, 56, 64
2, 44823, Note_on_c, 0, 49, 64
2, 44883, Note_off_c, 0, 49, 64
2, 44883, Note_off_c, 0, 56, 64
2, 44883, Note_on_c, 0, 61, 64
2, 44883, Note_on_c, 0, 47, 64
2, 44943, Note_off_c, 0, 47, 64
2, 44943, Note_off_c, 0, 61, 64
2, 44943, Note_on_c, 0, 59, 64
2, 44943, Note_on_c, 0, 49, 64
2, 45003, Note_off_c, 0, 49, 64
2, 45003, Note_off_c, 0, 59, 64
2, 45003, Note_on_c, 0, 58, 64
2, 45003, Note_on_c, 0, 42, 64
2, 45063, Note_off_c, 0, 64, 64
2, 45063, Note_on_c, 0, 63, 64
2, 45123, Note_off_c, 0, 63, 64
2, 45123, Note_off_c, 0, 42, 64
2, 45123, Note_on_c, 0, 64, 64
2, 45183, Note_off_c, 0, 64, 64
2, 45183, Note_off_c, 0, 58, 64
2, 45183, Note_on_c, 0, 57, 64
2, 45183, Note_on_c, 0, 61, 64
2, 45183, Note_on_c, 0, 54, 64
2, 45243, Note_off_c, 0, 54, 64
2, 45243, Note_off_c, 0, 61, 64
2, 45243, Note_on_c, 0, 66, 64
2, 45243, Note_on_c, 0, 52, 64
2, 45303, Note_off_c, 0, 52, 64
2, 45303, Note_off_c, 0, 66, 64
2, 45303, Note_on_c, 0, 54, 64
2, 45303, Note_on_c, 0, 64, 64
2, 45363, Note_off_c, 0, 64, 64
2, 45363, Note_off_c, 0, 54, 64
2, 45363, Note_on_c, 0, 63, 64
2, 45363, Note_on_c, 0, 47, 64
2, 45423, Note_off_c, 0, 63, 64
2, 45423, Note_on_c, 0, 61, 64
2, 45483, Note_off_c, 0, 61, 64
2, 45483, Note_on_c, 0, 59, 64
2, 45543, Note_off_c, 0, 59, 64
2, 45543, Note_off_c, 0, 57, 64
2, 45543, Note_on_c, 0, 64, 64
2, 45543, Note_on_c, 0, 56, 64
2, 45603, Note_off_c, 0, 56, 64
2, 45603, Note_on_c, 0, 54, 64
2, 45663, Note_off_c, 0, 54, 64
2, 45663, Note_on_c, 0, 52, 64
2, 45723, Note_off_c, 0, 52, 64
2, 45723, Note_on_c, 0, 54, 64
2, 45783, Note_off_c, 0, 54, 64
2, 45783, Note_off_c, 0, 64, 64
2, 45783, Note_on_c, 0, 63, 64
2, 45783, Note_on_c, 0, 56, 64
2, 45843, Note_off_c, 0, 56, 64
2, 45843, Note_off_c, 0, 63, 64
2, 45843, Note_on_c, 0, 61, 64
2, 45843, Note_on_c, 0, 58, 64
2, 45903, Note_off_c, 0, 58, 64
2, 45903, Note_off_c, 0, 61, 64
2, 45903, Note_on_c, 0, 59, 64
2, 45903, Note_on_c, 0, 63, 64
2, 45963, Note_off_c, 0, 63, 64
2, 45963, Note_off_c, 0, 47, 64
2, 45963, Note_on_c, 0, 65, 64
2, 45963, Note_on_c, 0, 49, 64
2, 46023, Note_off_c, 0, 49, 64
2, 46023, Note_off_c, 0, 65, 64
2, 46023, Note_on_c, 0, 50, 64
2, 46023, Note_on_c, 0, 66, 64
2, 46083, Note_off_c, 0, 66, 64
2, 46083, Note_off_c, 0, 50, 64
2, 46083, Note_on_c, 0, 68, 64
2, 46083, Note_on_c, 0, 41, 64
2, 46143, Note_off_c, 0, 59, 64
2, 46143, Note_on_c, 0, 61, 64
2, 46203, Note_off_c, 0, 61, 64
2, 46203, Note_on_c, 0, 62, 64
2, 46263, Note_off_c, 0, 62, 64
2, 46263, Note_off_c, 0, 41, 64
2, 46263, Note_on_c, 0, 61, 64
2, 46263, Note_on_c, 0, 53, 64
2, 46323, Note_off_c, 0, 61, 64
2, 46323, Note_on_c, 0, 62, 64
2, 46383, Note_off_c, 0, 62, 64
2, 46383, Note_on_c, 0, 59, 64
2, 46443, Note_off_c, 0, 59, 64
2, 46443, Note_off_c, 0, 53, 64
2, 46443, Note_on_c, 0, 57, 64
2, 46443, Note_on_c, 0, 54, 64
2, 46503, Note_off_c, 0, 68, 64
2, 46503, Note_on_c, 0, 66, 64
2, 46563, Note_off_c, 0, 66, 64
2, 46563, Note_off_c, 0, 54, 64
2, 46563, Note_off_c, 0, 57, 64
2, 46563, Note_on_c, 0, 65, 64
2, 46563, Note_on_c, 0, 56, 64
2, 46623, Note_off_c, 0, 56, 64
2, 46623, Note_off_c, 0, 65, 64
2, 46623, Note_on_c, 0, 57, 64
2, 46623, Note_on_c, 0, 66, 64
2, 46683, Note_off_c, 0, 66, 64
2, 46683, Note_on_c, 0, 69, 64
2, 46743, Note_off_c, 0, 69, 64
2, 46743, Note_on_c, 0, 73, 64
2, 46803, Note_off_c, 0, 73, 64
2, 46803, Note_on_c, 0, 78, 64
2, 46803, Note_on_c, 0, 61, 64
2, 46863, Note_off_c, 0, 61, 64
2, 46863, Note_on_c, 0, 60, 64
2, 46923, Note_off_c, 0, 60, 64
2, 46923, Note_off_c, 0, 57, 64
2, 46923, Note_on_c, 0, 61, 64
2, 46923, Note_on_c, 0, 56, 64
2, 46983, Note_off_c, 0, 56, 64
2, 46983, Note_off_c, 0, 61, 64
2, 46983, Note_on_c, 0, 63, 64
2, 46983, Note_on_c, 0, 54, 64
2, 47043, Note_off_c, 0, 63, 64
2, 47043, Note_on_c, 0, 61, 64
2, 47103, Note_off_c, 0, 61, 64
2, 47103, Note_on_c, 0, 63, 64
2, 47163, Note_off_c, 0, 63, 64
2, 47163, Note_off_c, 0, 54, 64
2, 47163, Note_off_c, 0, 78, 64
2, 47163, Note_on_c, 0, 56, 64
2, 47163, Note_on_c, 0, 77, 64
2, 47223, Note_on_c, 0, 58, 64
2, 47283, Note_off_c, 0, 58, 64
2, 47283, Note_on_c, 0, 60, 64
2, 47343, Note_off_c, 0, 60, 64
2, 47343, Note_off_c, 0, 77, 64
2, 47343, Note_on_c, 0, 76, 64
2, 47343, Note_on_c, 0, 61, 64
2, 47403, Note_off_c, 0, 61, 64
2, 47403, Note_on_c, 0, 63, 64
2, 47463, Note_off_c, 0, 63, 64
2, 47463, Note_on_c, 0, 64, 64
2, 47523, Note_off_c, 0, 64, 64
2, 47523, Note_off_c, 0, 76, 64
2, 47523, Note_on_c, 0, 75, 64
2, 47523, Note_on_c, 0, 66, 64
2, 47583, Note_off_c, 0, 66, 64
2, 47583, Note_on_c, 0, 64, 64
2, 47643, Note_off_c, 0, 64, 64
2, 47643, Note_on_c, 0, 66, 64
2, 47703, Note_off_c, 0, 66, 64
2, 47703, Note_off_c, 0, 75, 64
2, 47703, Note_on_c, 0, 80, 64
2, 47703, Note_on_c, 0, 63, 64
2, 47763, Note_off_c, 0, 63, 64
2, 47763, Note_on_c, 0, 68, 64
2, 47823, Note_off_c, 0, 68, 64
2, 47823, Note_on_c, 0, 66, 64
2, 47883, Note_off_c, 0, 66, 64
2, 47883, Note_off_c, 0, 80, 64
2, 47883, Note_on_c, 0, 73, 64
2, 47883, Note_on_c, 0, 64, 64
2, 47943, Note_off_c, 0, 64, 64
2, 47943, Note_off_c, 0, 56, 64
2, 47943, Note_on_c, 0, 63, 64
2, 47943, Note_on_c, 0, 54, 64
2, 48003, Note_off_c, 0, 54, 64
2, 48003, Note_off_c, 0, 63, 64
2, 48003, Note_on_c, 0, 64, 64
2, 48003, Note_on_c, 0, 56, 64
2, 48063, Note_off_c, 0, 56, 64
2, 48063, Note_off_c, 0, 64, 64
2, 48063, Note_on_c, 0, 61, 64
2, 48063, Note_on_c, 0, 57, 64
2, 48123, Note_off_c, 0, 57, 64
2, 48123, Note_off_c, 0, 61, 64
2, 48123, Note_on_c, 0, 69, 64
2, 48123, Note_on_c, 0, 56, 64
2, 48183, Note_off_c, 0, 56, 64
2, 48183, Note_off_c, 0, 69, 64
2, 48183, Note_on_c, 0, 57, 64
2, 48183, Note_on_c, 0, 68, 64
2, 48243, Note_off_c, 0, 68, 64
2, 48243, Note_off_c, 0, 57, 64
2, 48243, Note_on_c, 0, 66, 64
2, 48243, Note_on_c, 0, 51, 64
2, 48303, Note_off_c, 0, 51, 64
2, 48303, Note_off_c, 0, 73, 64
2, 48303, Note_on_c, 0, 72, 64
2, 48303, Note_on_c, 0, 52, 64
2, 48363, Note_off_c, 0, 52, 64
2, 48363, Note_off_c, 0, 72, 64
2, 48363, Note_on_c, 0, 70, 64
2, 48363, Note_on_c, 0, 54, 64
2, 48423, Note_off_c, 0, 54, 64
2, 48423, Note_off_c, 0, 70, 64
2, 48423, Note_on_c, 0, 72, 64
2, 48423, Note_on_c, 0, 56, 64
2, 48483, Note_off_c, 0, 56, 64
2, 48483, Note_off_c, 0, 72, 64
2, 48483, Note_on_c, 0, 70, 64
2, 48483, Note_on_c, 0, 58, 64
2, 48543, Note_off_c, 0, 58, 64
2, 48543, Note_off_c, 0, 70, 64
2, 48543, Note_on_c, 0, 68, 64
2, 48543, Note_on_c, 0, 60, 64
2, 48603, Note_off_c, 0, 60, 64
2, 48603, Note_off_c, 0, 68, 64
2, 48603, Note_off_c, 0, 66, 64
2, 48603, Note_on_c, 0, 80, 64
2, 48603, Note_on_c, 0, 65, 64
2, 48603, Note_on_c, 0, 61, 64
2, 48663, Note_off_c, 0, 61, 64
2, 48663, Note_on_c, 0, 60, 64
2, 48723, Note_off_c, 0, 60, 64
2, 48723, Note_on_c, 0, 61, 64
2, 48783, Note_off_c, 0, 61, 64
2, 48783, Note_off_c, 0, 65, 64
2, 48783, Note_off_c, 0, 80, 64
2, 48783, Note_on_c, 0, 79, 64
2, 48783, Note_on_c, 0, 64, 64
2, 48783, Note_on_c, 0, 56, 64
2, 48843, Note_off_c, 0, 56, 64
2, 48843, Note_on_c, 0, 63, 64
2, 48903, Note_off_c, 0, 63, 64
2, 48903, Note_on_c, 0, 61, 64
2, 48963, Note_off_c, 0, 61, 64
2, 48963, Note_off_c, 0, 64, 64
2, 48963, Note_off_c, 0, 79, 64
2, 48963, Note_on_c, 0, 78, 64
2, 48963, Note_on_c, 0, 63, 64
2, 48963, Note_on_c, 0, 60, 64
2, 49023, Note_off_c, 0, 60, 64
2, 49023, Note_on_c, 0, 58, 64
2, 49083, Note_off_c, 0, 58, 64
2, 49083, Note_on_c, 0, 60, 64
2, 49143, Note_off_c, 0, 60, 64
2, 49143, Note_off_c, 0, 63, 64
2, 49143, Note_off_c, 0, 78, 64
2, 49143, Note_on_c, 0, 77, 64
2, 49143, Note_on_c, 0, 68, 64
2, 49143, Note_on_c, 0, 56, 64
2, 49203, Note_off_c, 0, 56, 64
2, 49203, Note_on_c, 0, 61, 64
2, 49263, Note_off_c, 0, 61, 64
2, 49263, Note_on_c, 0, 60, 64
2, 49323, Note_off_c, 0, 60, 64
2, 49323, Note_off_c, 0, 68, 64
2, 49323, Note_off_c, 0, 77, 64
2, 49323, Note_on_c, 0, 76, 64
2, 49323, Note_on_c, 0, 61, 64
2, 49323, Note_on_c, 0, 59, 64
2, 49383, Note_off_c, 0, 59, 64
2, 49383, Note_on_c, 0, 57, 64
2, 49443, Note_off_c, 0, 57, 64
2, 49443, Note_on_c, 0, 56, 64
2, 49503, Note_off_c, 0, 56, 64
2, 49503, Note_off_c, 0, 61, 64
2, 49503, Note_off_c, 0, 76, 64
2, 49503, Note_on_c, 0, 66, 64
2, 49503, Note_on_c, 0, 75, 64
2, 49503, Note_on_c, 0, 48, 64
2, 49563, Note_off_c, 0, 48, 64
2, 49563, Note_on_c, 0, 49, 64
2, 49623, Note_off_c, 0, 49, 64
2, 49623, Note_off_c, 0, 75, 64
2, 49623, Note_on_c, 0, 51, 64
2, 49623, Note_on_c, 0, 73, 64
2, 49683, Note_off_c, 0, 73, 64
2, 49683, Note_off_c, 0, 51, 64
2, 49683, Note_on_c, 0, 72, 64
2, 49683, Note_on_c, 0, 52, 64
2, 49743, Note_off_c, 0, 52, 64
2, 49743, Note_on_c, 0, 51, 64
2, 49803, Note_off_c, 0, 51, 64
2, 49803, Note_off_c, 0, 72, 64
2, 49803, Note_on_c, 0, 68, 64
2, 49803, Note_on_c, 0, 52, 64
2, 49863, Note_off_c, 0, 52, 64
2, 49863, Note_off_c, 0, 68, 64
2, 49863, Note_off_c, 0, 66, 64
2, 49863, Note_on_c, 0, 73, 64
2, 49863, Note_on_c, 0, 64, 64
2, 49863, Note_on_c, 0, 43, 64
2, 49923, Note_off_c, 0, 43, 64
2, 49923, Note_on_c, 0, 44, 64
2, 49983, Note_off_c, 0, 44, 64
2, 49983, Note_off_c, 0, 64, 64
2, 49983, Note_on_c, 0, 63, 64
2, 49983, Note_on_c, 0, 46, 64
2, 50043, Note_off_c, 0, 46, 64
2, 50043, Note_off_c, 0, 63, 64
2, 50043, Note_on_c, 0, 44, 64
2, 50043, Note_on_c, 0, 64, 64
2, 50103, Note_off_c, 0, 64, 64
2, 50103, Note_on_c, 0, 69, 64
2, 50163, Note_off_c, 0, 69, 64
2, 50163, Note_on_c, 0, 68, 64
2, 50223, Note_off_c, 0, 68, 64
2, 50223, Note_off_c, 0, 73, 64
2, 50223, Note_on_c, 0, 72, 64
2, 50223, Note_on_c, 0, 66, 64
2, 50283, Note_off_c, 0, 66, 64
2, 50283, Note_on_c, 0, 64, 64
2, 50343, Note_off_c, 0, 64, 64
2, 50343, Note_on_c, 0, 63, 64
2, 50403, Note_off_c, 0, 63, 64
2, 50403, Note_off_c, 0, 72, 64
2, 50403, Note_off_c, 0, 44, 64
2, 50403, Note_on_c, 0, 65, 64
2, 50403, Note_on_c, 0, 73, 64
2, 50403, Note_on_c, 0, 37, 64
2, 50583, Note_off_c, 0, 37, 64
2, 50583, Note_off_c, 0, 73, 64
2, 50583, Note_off_c, 0, 65, 64
2, 50583, End_track
0, 0, End_of_file
