0, 0, Header, 1, 3, 240
1, 0, Start_track
1, 0, Time_signature, 3, 2, 24, 8
1, 0, Tempo, 863275
1, 28928, Tempo, 878426
1, 29040, Tempo, 894282
1, 29160, Tempo, 722892
1, 29280, Tempo, 750000
1, 29400, Tempo, 821918
1, 29464, Tempo, 983607
1, 29520, Tempo, 863275
1, 29520, End_track
2, 0, Start_track
2, 0, Text_t, "RH "
2, 0, Note_on_c, 0, 64, 64
2, 60, Note_off_c, 0, 64, 21
2, 60, Note_on_c, 0, 67, 64
2, 120, Note_off_c, 0, 67, 43
2, 120, Note_on_c, 0, 71, 64
2, 180, Note_off_c, 0, 71, 59
2, 180, Note_on_c, 0, 76, 64
2, 240, Note_off_c, 0, 76, 50
2, 240, Note_on_c, 0, 75, 64
2, 300, Note_off_c, 0, 75, 52
2, 300, Note_on_c, 0, 76, 64
2, 360, Note_off_c, 0, 76, 61
2, 360, Note_on_c, 0, 74, 64
2, 420, Note_off_c, 0, 74, 76
2, 420, Note_on_c, 0, 76, 64
2, 480, Note_off_c, 0, 76, 65
2, 480, Note_on_c, 0, 73, 64
2, 540, Note_off_c, 0, 73, 76
2, 540, Note_on_c, 0, 76, 64
2, 600, Note_off_c, 0, 76, 66
2, 600, Note_on_c, 0, 72, 64
2, 660, Note_off_c, 0, 72, 79
2, 660, Note_on_c, 0, 76, 64
2, 720, Note_off_c, 0, 76, 57
2, 720, Note_on_c, 0, 71, 64
2, 780, Note_off_c, 0, 71, 52
2, 780, Note_on_c, 0, 76, 64
2, 840, Note_off_c, 0, 76, 54
2, 840, Note_on_c, 0, 75, 64
2, 900, Note_off_c, 0, 75, 46
2, 900, Note_on_c, 0, 76, 64
2, 960, Note_off_c, 0, 76, 63
2, 960, Note_on_c, 0, 70, 64
2, 1020, Note_off_c, 0, 70, 59
2, 1020, Note_on_c, 0, 73, 64
2, 1080, Note_off_c, 0, 73, 69
2, 1080, Note_on_c, 0, 67, 64
2, 1140, Note_off_c, 0, 67, 19
2, 1140, Note_on_c, 0, 66, 64
2, 1200, Note_off_c, 0, 66, 66
2, 1200, Note_on_c, 0, 67, 64
2, 1260, Note_off_c, 0, 67, 46
2, 1260, Note_on_c, 0, 69, 64
2, 1320, Note_off_c, 0, 69, 66
2, 1320, Note_on_c, 0, 66, 64
2, 1380, Note_off_c, 0, 66, 76
2, 1380, Note_on_c, 0, 64, 64
2, 1440, Note_off_c, 0, 64, 53
2, 1440, Note_on_c, 0, 62, 64
2, 1560, Note_off_c, 0, 62, 28
2, 1560, Note_on_c, 0, 71, 64
2, 1680, Note_off_c, 0, 71, 68
2, 1740, Note_on_c, 0, 78, 64
2, 1800, Note_off_c, 0, 78, 69
2, 1800, Note_on_c, 0, 79, 64
2, 1860, Note_off_c, 0, 79, 52
2, 1860, Note_on_c, 0, 78, 64
2, 1920, Note_off_c, 0, 78, 57
2, 1920, Note_on_c, 0, 76, 64
2, 1980, Note_off_c, 0, 76, 52
2, 1980, Note_on_c, 0, 74, 64
2, 2040, Note_off_c, 0, 74, 76
2, 2040, Note_on_c, 0, 73, 64
2, 2100, Note_off_c, 0, 73, 65
2, 2100, Note_on_c, 0, 76, 64
2, 2160, Note_off_c, 0, 76, 53
2, 2160, Note_on_c, 0, 74, 64
2, 2460, Note_off_c, 0, 74, 55
2, 2460, Note_on_c, 0, 73, 64
2, 2520, Note_off_c, 0, 73, 54
2, 2520, Note_on_c, 0, 71, 64
2, 2580, Note_off_c, 0, 71, 57
2, 2580, Note_on_c, 0, 70, 64
2, 2640, Note_off_c, 0, 70, 62
2, 2640, Note_on_c, 0, 71, 64
2, 2700, Note_off_c, 0, 71, 49
2, 2700, Note_on_c, 0, 73, 64
2, 2760, Note_off_c, 0, 73, 66
2, 2760, Note_on_c, 0, 70, 64
2, 2820, Note_off_c, 0, 70, 65
2, 2820, Note_on_c, 0, 71, 64
2, 2880, Note_off_c, 0, 71, 46
2, 2880, Note_on_c, 0, 73, 64
2, 2940, Note_off_c, 0, 73, 74
2, 2940, Note_on_c, 0, 66, 64
2, 3000, Note_off_c, 0, 66, 48
2, 3000, Note_on_c, 0, 70, 64
2, 3060, Note_off_c, 0, 70, 70
2, 3060, Note_on_c, 0, 73, 64
2, 3120, Note_off_c, 0, 73, 68
2, 3120, Note_on_c, 0, 76, 64
2, 3180, Note_off_c, 0, 76, 46
2, 3180, Note_on_c, 0, 70, 64
2, 3240, Note_off_c, 0, 70, 63
2, 3240, Note_on_c, 0, 73, 64
2, 3300, Note_off_c, 0, 73, 61
2, 3300, Note_on_c, 0, 76, 64
2, 3360, Note_off_c, 0, 76, 52
2, 3360, Note_on_c, 0, 79, 64
2, 3420, Note_off_c, 0, 79, 68
2, 3420, Note_on_c, 0, 78, 64
2, 3480, Note_off_c, 0, 78, 49
2, 3480, Note_on_c, 0, 76, 64
2, 3540, Note_off_c, 0, 76, 24
2, 3540, Note_on_c, 0, 79, 64
2, 3600, Note_off_c, 0, 79, 55
2, 3600, Note_on_c, 0, 78, 64
2, 3660, Note_off_c, 0, 78, 53
2, 3660, Note_on_c, 0, 76, 64
2, 3720, Note_off_c, 0, 76, 37
2, 3720, Note_on_c, 0, 74, 64
2, 3780, Note_off_c, 0, 74, 52
2, 3780, Note_on_c, 0, 73, 64
2, 3840, Note_off_c, 0, 73, 59
2, 3840, Note_on_c, 0, 71, 64
2, 3900, Note_off_c, 0, 71, 69
2, 3900, Note_on_c, 0, 70, 64
2, 3960, Note_off_c, 0, 70, 49
2, 3960, Note_on_c, 0, 68, 64
2, 4020, Note_off_c, 0, 68, 77
2, 4020, Note_on_c, 0, 66, 64
2, 4080, Note_off_c, 0, 66, 42
2, 4080, Note_on_c, 0, 74, 64
2, 4380, Note_off_c, 0, 74, 65
2, 4380, Note_on_c, 0, 64, 64
2, 4440, Note_off_c, 0, 64, 36
2, 4440, Note_on_c, 0, 68, 64
2, 4500, Note_off_c, 0, 68, 52
2, 4500, Note_on_c, 0, 71, 64
2, 4560, Note_off_c, 0, 71, 69
2, 4560, Note_on_c, 0, 74, 64
2, 4620, Note_off_c, 0, 74, 47
2, 4620, Note_on_c, 0, 68, 64
2, 4680, Note_off_c, 0, 68, 68
2, 4680, Note_on_c, 0, 71, 64
2, 4740, Note_off_c, 0, 71, 69
2, 4740, Note_on_c, 0, 74, 64
2, 4800, Note_off_c, 0, 74, 76
2, 4800, Note_on_c, 0, 77, 64
2, 4860, Note_off_c, 0, 77, 58
2, 4860, Note_on_c, 0, 76, 64
2, 4920, Note_off_c, 0, 76, 44
2, 4920, Note_on_c, 0, 74, 64
2, 4980, Note_off_c, 0, 74, 58
2, 4980, Note_on_c, 0, 77, 64
2, 5040, Note_off_c, 0, 77, 62
2, 5040, Note_on_c, 0, 76, 64
2, 5100, Note_off_c, 0, 76, 43
2, 5100, Note_on_c, 0, 74, 64
2, 5160, Note_off_c, 0, 74, 42
2, 5160, Note_on_c, 0, 72, 64
2, 5220, Note_off_c, 0, 72, 68
2, 5220, Note_on_c, 0, 71, 64
2, 5280, Note_off_c, 0, 71, 55
2, 5280, Note_on_c, 0, 69, 64
2, 5340, Note_off_c, 0, 69, 57
2, 5340, Note_on_c, 0, 68, 64
2, 5400, Note_off_c, 0, 68, 70
2, 5400, Note_on_c, 0, 66, 64
2, 5460, Note_off_c, 0, 66, 61
2, 5460, Note_on_c, 0, 64, 64
2, 5520, Note_off_c, 0, 64, 31
2, 5520, Note_on_c, 0, 72, 64
2, 5820, Note_off_c, 0, 72, 80
2, 5820, Note_on_c, 0, 69, 64
2, 5880, Note_off_c, 0, 69, 65
2, 5880, Note_on_c, 0, 62, 64
2, 5940, Note_off_c, 0, 62, 34
2, 5940, Note_on_c, 0, 64, 64
2, 6000, Note_off_c, 0, 64, 45
2, 6000, Note_on_c, 0, 66, 64
2, 6060, Note_off_c, 0, 66, 76
2, 6060, Note_on_c, 0, 67, 64
2, 6120, Note_off_c, 0, 67, 58
2, 6120, Note_on_c, 0, 69, 64
2, 6180, Note_off_c, 0, 69, 66
2, 6180, Note_on_c, 0, 71, 64
2, 6240, Note_off_c, 0, 71, 72
2, 6240, Note_on_c, 0, 72, 64
2, 6300, Note_off_c, 0, 72, 76
2, 6300, Note_on_c, 0, 74, 64
2, 6360, Note_off_c, 0, 74, 73
2, 6360, Note_on_c, 0, 76, 64
2, 6420, Note_off_c, 0, 76, 49
2, 6420, Note_on_c, 0, 78, 64
2, 6480, Note_off_c, 0, 78, 66
2, 6480, Note_on_c, 0, 79, 64
2, 6540, Note_off_c, 0, 79, 72
2, 6540, Note_on_c, 0, 78, 64
2, 6600, Note_off_c, 0, 78, 72
2, 6600, Note_on_c, 0, 81, 64
2, 6660, Note_off_c, 0, 81, 70
2, 6660, Note_on_c, 0, 79, 64
2, 6720, Note_off_c, 0, 79, 73
2, 6720, Note_on_c, 0, 78, 64
2, 6780, Note_off_c, 0, 78, 69
2, 6780, Note_on_c, 0, 76, 64
2, 6840, Note_off_c, 0, 76, 52
2, 6840, Note_on_c, 0, 74, 64
2, 6900, Note_off_c, 0, 74, 46
2, 6900, Note_on_c, 0, 72, 64
2, 6960, Note_off_c, 0, 72, 70
2, 6960, Note_on_c, 0, 71, 64
2, 7020, Note_off_c, 0, 71, 58
2, 7020, Note_on_c, 0, 79, 64
2, 7080, Note_off_c, 0, 79, 65
2, 7080, Note_on_c, 0, 69, 64
2, 7140, Note_off_c, 0, 69, 52
2, 7140, Note_on_c, 0, 78, 64
2, 7200, Note_off_c, 0, 78, 58
2, 7200, Note_on_c, 0, 67, 64
2, 7260, Note_off_c, 0, 67, 20
2, 7260, Note_on_c, 0, 71, 64
2, 7320, Note_off_c, 0, 71, 50
2, 7320, Note_on_c, 0, 74, 64
2, 7380, Note_off_c, 0, 74, 63
2, 7380, Note_on_c, 0, 79, 64
2, 7440, Note_off_c, 0, 79, 55
2, 7440, Note_on_c, 0, 78, 64
2, 7500, Note_off_c, 0, 78, 57
2, 7500, Note_on_c, 0, 79, 64
2, 7560, Note_off_c, 0, 79, 53
2, 7560, Note_on_c, 0, 77, 64
2, 7620, Note_off_c, 0, 77, 69
2, 7620, Note_on_c, 0, 79, 64
2, 7680, Note_off_c, 0, 79, 66
2, 7680, Note_on_c, 0, 76, 64
2, 7740, Note_off_c, 0, 76, 48
2, 7740, Note_on_c, 0, 79, 64
2, 7800, Note_off_c, 0, 79, 49
2, 7800, Note_on_c, 0, 75, 64
2, 7860, Note_off_c, 0, 75, 57
2, 7860, Note_on_c, 0, 79, 64
2, 7920, Note_off_c, 0, 79, 53
2, 7920, Note_on_c, 0, 74, 64
2, 7980, Note_off_c, 0, 74, 61
2, 7980, Note_on_c, 0, 79, 64
2, 8040, Note_off_c, 0, 79, 54
2, 8040, Note_on_c, 0, 78, 64
2, 8100, Note_off_c, 0, 78, 63
2, 8100, Note_on_c, 0, 79, 64
2, 8160, Note_off_c, 0, 79, 59
2, 8160, Note_on_c, 0, 73, 64
2, 8220, Note_off_c, 0, 73, 57
2, 8220, Note_on_c, 0, 76, 64
2, 8280, Note_off_c, 0, 76, 62
2, 8280, Note_on_c, 0, 70, 64
2, 8340, Note_off_c, 0, 70, 62
2, 8340, Note_on_c, 0, 69, 64
2, 8400, Note_off_c, 0, 69, 48
2, 8400, Note_on_c, 0, 70, 64
2, 8460, Note_off_c, 0, 70, 66
2, 8460, Note_on_c, 0, 73, 64
2, 8520, Note_off_c, 0, 73, 58
2, 8520, Note_on_c, 0, 69, 64
2, 8580, Note_off_c, 0, 69, 63
2, 8580, Note_on_c, 0, 67, 64
2, 8640, Note_off_c, 0, 67, 34
2, 8640, Note_on_c, 0, 66, 64
2, 8760, Note_off_c, 0, 66, 1
2, 8760, Note_on_c, 0, 74, 64
2, 8880, Note_off_c, 0, 74, 70
2, 8940, Note_on_c, 0, 81, 64
2, 9000, Note_off_c, 0, 81, 68
2, 9000, Note_on_c, 0, 83, 64
2, 9060, Note_off_c, 0, 83, 65
2, 9060, Note_on_c, 0, 81, 64
2, 9120, Note_off_c, 0, 81, 62
2, 9120, Note_on_c, 0, 79, 64
2, 9180, Note_off_c, 0, 79, 62
2, 9180, Note_on_c, 0, 78, 64
2, 9240, Note_off_c, 0, 78, 45
2, 9240, Note_on_c, 0, 76, 64
2, 9300, Note_off_c, 0, 76, 49
2, 9300, Note_on_c, 0, 79, 64
2, 9360, Note_off_c, 0, 79, 49
2, 9360, Note_on_c, 0, 78, 64
2, 9660, Note_off_c, 0, 78, 57
2, 9660, Note_on_c, 0, 76, 64
2, 9720, Note_off_c, 0, 76, 65
2, 9720, Note_on_c, 0, 74, 64
2, 9780, Note_off_c, 0, 74, 70
2, 9780, Note_on_c, 0, 73, 64
2, 9840, Note_off_c, 0, 73, 51
2, 9840, Note_on_c, 0, 74, 64
2, 9900, Note_off_c, 0, 74, 68
2, 9900, Note_on_c, 0, 76, 64
2, 9960, Note_off_c, 0, 76, 53
2, 9960, Note_on_c, 0, 73, 64
2, 10020, Note_off_c, 0, 73, 57
2, 10020, Note_on_c, 0, 74, 64
2, 10080, Note_off_c, 0, 74, 65
2, 10080, Note_on_c, 0, 76, 64
2, 10140, Note_off_c, 0, 76, 58
2, 10140, Note_on_c, 0, 74, 64
2, 10200, Note_off_c, 0, 74, 61
2, 10200, Note_on_c, 0, 73, 64
2, 10260, Note_off_c, 0, 73, 63
2, 10260, Note_on_c, 0, 71, 64
2, 10320, Note_off_c, 0, 71, 69
2, 10320, Note_on_c, 0, 69, 64
2, 10380, Note_off_c, 0, 69, 49
2, 10380, Note_on_c, 0, 68, 64
2, 10440, Note_off_c, 0, 68, 57
2, 10440, Note_on_c, 0, 76, 64
2, 10500, Note_off_c, 0, 76, 43
2, 10500, Note_on_c, 0, 74, 64
2, 10560, Note_off_c, 0, 74, 65
2, 10560, Note_on_c, 0, 73, 64
2, 10620, Note_off_c, 0, 73, 66
2, 10620, Note_on_c, 0, 71, 64
2, 10680, Note_off_c, 0, 71, 68
2, 10680, Note_on_c, 0, 69, 64
2, 10740, Note_off_c, 0, 69, 63
2, 10740, Note_on_c, 0, 67, 64
2, 10800, Note_off_c, 0, 67, 41
2, 10800, Note_on_c, 0, 66, 64
2, 10920, Note_off_c, 0, 66, 68
2, 10920, Note_on_c, 0, 62, 64
2, 11040, Note_off_c, 0, 62, 51
2, 11040, Note_on_c, 0, 66, 64
2, 11160, Note_off_c, 0, 66, 62
2, 11160, Note_on_c, 0, 69, 64
2, 11280, Note_off_c, 0, 69, 63
2, 11280, Note_on_c, 0, 74, 64
2, 11400, Note_off_c, 0, 74, 52
2, 11400, Note_on_c, 0, 66, 64
2, 11520, Note_off_c, 0, 66, 63
2, 11520, Note_on_c, 0, 74, 64
2, 11580, Note_off_c, 0, 74, 55
2, 11580, Note_on_c, 0, 72, 64
2, 11640, Note_off_c, 0, 72, 79
2, 11640, Note_on_c, 0, 71, 64
2, 11700, Note_off_c, 0, 71, 82
2, 11700, Note_on_c, 0, 69, 64
2, 11760, Note_off_c, 0, 69, 73
2, 11760, Note_on_c, 0, 67, 64
2, 11820, Note_off_c, 0, 67, 34
2, 11820, Note_on_c, 0, 66, 64
2, 11880, Note_off_c, 0, 66, 53
2, 11880, Note_on_c, 0, 74, 64
2, 11940, Note_off_c, 0, 74, 51
2, 11940, Note_on_c, 0, 72, 64
2, 12000, Note_off_c, 0, 72, 68
2, 12000, Note_on_c, 0, 71, 64
2, 12060, Note_off_c, 0, 71, 62
2, 12060, Note_on_c, 0, 69, 64
2, 12120, Note_off_c, 0, 69, 53
2, 12120, Note_on_c, 0, 67, 64
2, 12180, Note_off_c, 0, 67, 46
2, 12180, Note_on_c, 0, 65, 64
2, 12240, Note_off_c, 0, 65, 29
2, 12240, Note_on_c, 0, 64, 64
2, 12360, Note_off_c, 0, 64, 43
2, 12360, Note_on_c, 0, 60, 64
2, 12480, Note_off_c, 0, 60, 49
2, 12480, Note_on_c, 0, 64, 64
2, 12600, Note_off_c, 0, 64, 45
2, 12600, Note_on_c, 0, 67, 64
2, 12720, Note_off_c, 0, 67, 58
2, 12720, Note_on_c, 0, 72, 64
2, 12840, Note_off_c, 0, 72, 58
2, 12840, Note_on_c, 0, 64, 64
2, 12960, Note_off_c, 0, 64, 39
2, 12960, Note_on_c, 0, 76, 64
2, 13020, Note_off_c, 0, 76, 52
2, 13020, Note_on_c, 0, 74, 64
2, 13080, Note_off_c, 0, 74, 63
2, 13080, Note_on_c, 0, 72, 64
2, 13140, Note_off_c, 0, 72, 66
2, 13140, Note_on_c, 0, 71, 64
2, 13200, Note_off_c, 0, 71, 62
2, 13200, Note_on_c, 0, 69, 64
2, 13260, Note_off_c, 0, 69, 43
2, 13260, Note_on_c, 0, 68, 64
2, 13320, Note_off_c, 0, 68, 69
2, 13320, Note_on_c, 0, 76, 64
2, 13380, Note_off_c, 0, 76, 44
2, 13380, Note_on_c, 0, 74, 64
2, 13440, Note_off_c, 0, 74, 58
2, 13440, Note_on_c, 0, 72, 64
2, 13500, Note_off_c, 0, 72, 63
2, 13500, Note_on_c, 0, 71, 64
2, 13560, Note_off_c, 0, 71, 63
2, 13560, Note_on_c, 0, 69, 64
2, 13620, Note_off_c, 0, 69, 43
2, 13620, Note_on_c, 0, 68, 64
2, 13680, Note_off_c, 0, 68, 70
2, 13680, Note_on_c, 0, 69, 64
2, 13740, Note_off_c, 0, 69, 43
2, 13740, Note_on_c, 0, 72, 64
2, 13800, Note_off_c, 0, 72, 63
2, 13800, Note_on_c, 0, 76, 64
2, 13860, Note_off_c, 0, 76, 52
2, 13860, Note_on_c, 0, 81, 64
2, 13920, Note_off_c, 0, 81, 37
2, 13980, Note_on_c, 0, 76, 64
2, 14040, Note_off_c, 0, 76, 52
2, 14040, Note_on_c, 0, 77, 64
2, 14100, Note_off_c, 0, 77, 61
2, 14100, Note_on_c, 0, 76, 64
2, 14160, Note_off_c, 0, 76, 38
2, 14160, Note_on_c, 0, 74, 64
2, 14220, Note_off_c, 0, 74, 52
2, 14220, Note_on_c, 0, 72, 64
2, 14280, Note_off_c, 0, 72, 55
2, 14280, Note_on_c, 0, 71, 64
2, 14340, Note_off_c, 0, 71, 52
2, 14340, Note_on_c, 0, 74, 64
2, 14400, Note_off_c, 0, 74, 61
2, 14400, Note_on_c, 0, 72, 64
2, 14700, Note_off_c, 0, 72, 63
2, 14700, Note_on_c, 0, 71, 64
2, 14760, Note_off_c, 0, 71, 46
2, 14760, Note_on_c, 0, 69, 64
2, 14820, Note_off_c, 0, 69, 48
2, 14820, Note_on_c, 0, 68, 64
2, 14880, Note_off_c, 0, 68, 54
2, 14880, Note_on_c, 0, 69, 64
2, 14940, Note_off_c, 0, 69, 68
2, 14940, Note_on_c, 0, 66, 64
2, 15000, Note_off_c, 0, 66, 48
2, 15000, Note_on_c, 0, 63, 64
2, 15060, Note_off_c, 0, 63, 33
2, 15060, Note_on_c, 0, 71, 64
2, 15120, Note_off_c, 0, 71, 65
2, 15120, Note_on_c, 0, 64, 64
2, 15180, Note_off_c, 0, 64, 40
2, 15180, Note_on_c, 0, 67, 64
2, 15240, Note_off_c, 0, 67, 43
2, 15240, Note_on_c, 0, 71, 64
2, 15300, Note_off_c, 0, 71, 77
2, 15300, Note_on_c, 0, 76, 64
2, 15360, Note_off_c, 0, 76, 33
2, 15360, Note_on_c, 0, 75, 64
2, 15420, Note_off_c, 0, 75, 57
2, 15420, Note_on_c, 0, 76, 64
2, 15480, Note_off_c, 0, 76, 33
2, 15480, Note_on_c, 0, 74, 64
2, 15540, Note_off_c, 0, 74, 66
2, 15540, Note_on_c, 0, 76, 64
2, 15600, Note_off_c, 0, 76, 49
2, 15600, Note_on_c, 0, 73, 64
2, 15660, Note_off_c, 0, 73, 57
2, 15660, Note_on_c, 0, 76, 64
2, 15720, Note_off_c, 0, 76, 49
2, 15720, Note_on_c, 0, 72, 64
2, 15780, Note_off_c, 0, 72, 61
2, 15780, Note_on_c, 0, 76, 64
2, 15840, Note_off_c, 0, 76, 54
2, 15840, Note_on_c, 0, 71, 64
2, 15900, Note_off_c, 0, 71, 62
2, 15900, Note_on_c, 0, 76, 64
2, 15960, Note_off_c, 0, 76, 52
2, 15960, Note_on_c, 0, 75, 64
2, 16020, Note_off_c, 0, 75, 46
2, 16020, Note_on_c, 0, 76, 64
2, 16080, Note_off_c, 0, 76, 62
2, 16080, Note_on_c, 0, 70, 64
2, 16140, Note_off_c, 0, 70, 72
2, 16140, Note_on_c, 0, 73, 64
2, 16200, Note_off_c, 0, 73, 63
2, 16200, Note_on_c, 0, 67, 64
2, 16260, Note_off_c, 0, 67, 45
2, 16260, Note_on_c, 0, 66, 64
2, 16320, Note_off_c, 0, 66, 66
2, 16320, Note_on_c, 0, 67, 64
2, 16380, Note_off_c, 0, 67, 40
2, 16380, Note_on_c, 0, 69, 64
2, 16440, Note_off_c, 0, 69, 59
2, 16440, Note_on_c, 0, 66, 64
2, 16500, Note_off_c, 0, 66, 61
2, 16500, Note_on_c, 0, 64, 64
2, 16560, Note_off_c, 0, 64, 34
2, 16560, Note_on_c, 0, 63, 64
2, 16680, Note_off_c, 0, 63, 51
2, 16680, Note_on_c, 0, 71, 64
2, 16800, Note_off_c, 0, 71, 54
2, 16860, Note_on_c, 0, 83, 64
2, 16920, Note_off_c, 0, 83, 51
2, 16920, Note_on_c, 0, 84, 64
2, 16980, Note_off_c, 0, 84, 57
2, 16980, Note_on_c, 0, 83, 64
2, 17040, Note_off_c, 0, 83, 66
2, 17040, Note_on_c, 0, 81, 64
2, 17100, Note_off_c, 0, 81, 53
2, 17100, Note_on_c, 0, 79, 64
2, 17160, Note_off_c, 0, 79, 34
2, 17160, Note_on_c, 0, 78, 64
2, 17220, Note_off_c, 0, 78, 58
2, 17220, Note_on_c, 0, 81, 64
2, 17280, Note_off_c, 0, 81, 59
2, 17280, Note_on_c, 0, 79, 64
2, 17580, Note_off_c, 0, 79, 49
2, 17580, Note_on_c, 0, 78, 64
2, 17640, Note_off_c, 0, 78, 62
2, 17640, Note_on_c, 0, 76, 64
2, 17700, Note_off_c, 0, 76, 48
2, 17700, Note_on_c, 0, 75, 64
2, 17760, Note_off_c, 0, 75, 30
2, 17760, Note_on_c, 0, 76, 64
2, 17820, Note_off_c, 0, 76, 39
2, 17820, Note_on_c, 0, 78, 64
2, 17880, Note_off_c, 0, 78, 52
2, 17880, Note_on_c, 0, 74, 64
2, 17940, Note_off_c, 0, 74, 46
2, 17940, Note_on_c, 0, 76, 64
2, 18000, Note_off_c, 0, 76, 52
2, 18000, Note_on_c, 0, 73, 64
2, 18120, Note_off_c, 0, 73, 50
2, 18120, Note_on_c, 0, 81, 64
2, 18240, Note_off_c, 0, 81, 52
2, 18300, Note_on_c, 0, 81, 64
2, 18360, Note_off_c, 0, 81, 55
2, 18360, Note_on_c, 0, 82, 64
2, 18420, Note_off_c, 0, 82, 55
2, 18420, Note_on_c, 0, 81, 64
2, 18480, Note_off_c, 0, 81, 65
2, 18480, Note_on_c, 0, 79, 64
2, 18540, Note_off_c, 0, 79, 46
2, 18540, Note_on_c, 0, 77, 64
2, 18600, Note_off_c, 0, 77, 52
2, 18600, Note_on_c, 0, 76, 64
2, 18660, Note_off_c, 0, 76, 43
2, 18660, Note_on_c, 0, 79, 64
2, 18720, Note_off_c, 0, 79, 55
2, 18720, Note_on_c, 0, 77, 64
2, 19020, Note_off_c, 0, 77, 52
2, 19020, Note_on_c, 0, 76, 64
2, 19080, Note_off_c, 0, 76, 50
2, 19080, Note_on_c, 0, 74, 64
2, 19140, Note_off_c, 0, 74, 45
2, 19140, Note_on_c, 0, 73, 64
2, 19200, Note_off_c, 0, 73, 47
2, 19200, Note_on_c, 0, 74, 64
2, 19260, Note_off_c, 0, 74, 54
2, 19260, Note_on_c, 0, 76, 64
2, 19320, Note_off_c, 0, 76, 50
2, 19320, Note_on_c, 0, 72, 64
2, 19380, Note_off_c, 0, 72, 51
2, 19380, Note_on_c, 0, 74, 64
2, 19440, Note_off_c, 0, 74, 55
2, 19440, Note_on_c, 0, 71, 64
2, 19560, Note_off_c, 0, 71, 42
2, 19560, Note_on_c, 0, 79, 64
2, 19680, Note_off_c, 0, 79, 49
2, 19740, Note_on_c, 0, 69, 64
2, 19800, Note_off_c, 0, 69, 47
2, 19800, Note_on_c, 0, 71, 64
2, 19860, Note_off_c, 0, 71, 66
2, 19860, Note_on_c, 0, 72, 64
2, 19920, Note_off_c, 0, 72, 76
2, 19920, Note_on_c, 0, 74, 64
2, 19980, Note_off_c, 0, 74, 57
2, 19980, Note_on_c, 0, 76, 64
2, 20040, Note_off_c, 0, 76, 51
2, 20040, Note_on_c, 0, 77, 64
2, 20100, Note_off_c, 0, 77, 65
2, 20100, Note_on_c, 0, 74, 64
2, 20160, Note_off_c, 0, 74, 57
2, 20160, Note_on_c, 0, 76, 64
2, 20220, Note_off_c, 0, 76, 53
2, 20220, Note_on_c, 0, 74, 64
2, 20280, Note_off_c, 0, 74, 36
2, 20280, Note_on_c, 0, 79, 64
2, 20340, Note_off_c, 0, 79, 61
2, 20340, Note_on_c, 0, 77, 64
2, 20400, Note_off_c, 0, 77, 58
2, 20400, Note_on_c, 0, 76, 64
2, 20460, Note_off_c, 0, 76, 49
2, 20460, Note_on_c, 0, 74, 64
2, 20520, Note_off_c, 0, 74, 52
2, 20520, Note_on_c, 0, 73, 64
2, 20580, Note_off_c, 0, 73, 73
2, 20580, Note_on_c, 0, 70, 64
2, 20640, Note_off_c, 0, 70, 72
2, 20640, Note_on_c, 0, 69, 64
2, 20700, Note_off_c, 0, 69, 65
2, 20700, Note_on_c, 0, 70, 64
2, 20760, Note_off_c, 0, 70, 58
2, 20760, Note_on_c, 0, 67, 64
2, 20820, Note_off_c, 0, 67, 32
2, 20820, Note_on_c, 0, 69, 64
2, 20880, Note_off_c, 0, 69, 65
2, 20880, Note_on_c, 0, 65, 64
2, 21000, Note_off_c, 0, 65, 34
2, 21000, Note_on_c, 0, 74, 64
2, 21120, Note_off_c, 0, 74, 51
2, 21180, Note_on_c, 0, 81, 64
2, 21240, Note_off_c, 0, 81, 66
2, 21240, Note_on_c, 0, 82, 64
2, 21300, Note_off_c, 0, 82, 69
2, 21300, Note_on_c, 0, 81, 64
2, 21360, Note_off_c, 0, 81, 48
2, 21360, Note_on_c, 0, 79, 64
2, 21420, Note_off_c, 0, 79, 57
2, 21420, Note_on_c, 0, 77, 64
2, 21480, Note_off_c, 0, 77, 63
2, 21480, Note_on_c, 0, 76, 64
2, 21540, Note_off_c, 0, 76, 47
2, 21540, Note_on_c, 0, 79, 64
2, 21600, Note_off_c, 0, 79, 70
2, 21600, Note_on_c, 0, 77, 64
2, 21900, Note_off_c, 0, 77, 62
2, 21900, Note_on_c, 0, 76, 64
2, 21960, Note_off_c, 0, 76, 51
2, 21960, Note_on_c, 0, 74, 64
2, 22020, Note_off_c, 0, 74, 55
2, 22020, Note_on_c, 0, 72, 64
2, 22080, Note_off_c, 0, 72, 63
2, 22080, Note_on_c, 0, 74, 64
2, 22140, Note_off_c, 0, 74, 58
2, 22140, Note_on_c, 0, 72, 64
2, 22200, Note_off_c, 0, 72, 57
2, 22200, Note_on_c, 0, 74, 64
2, 22260, Note_off_c, 0, 74, 57
2, 22260, Note_on_c, 0, 76, 64
2, 22320, Note_off_c, 0, 76, 52
2, 22320, Note_on_c, 0, 69, 64
2, 22380, Note_off_c, 0, 69, 48
2, 22380, Note_on_c, 0, 72, 64
2, 22440, Note_off_c, 0, 72, 49
2, 22440, Note_on_c, 0, 76, 64
2, 22500, Note_off_c, 0, 76, 58
2, 22500, Note_on_c, 0, 81, 64
2, 22560, Note_off_c, 0, 81, 50
2, 22560, Note_on_c, 0, 80, 64
2, 22620, Note_off_c, 0, 80, 68
2, 22620, Note_on_c, 0, 81, 64
2, 22680, Note_off_c, 0, 81, 55
2, 22680, Note_on_c, 0, 79, 64
2, 22740, Note_off_c, 0, 79, 62
2, 22740, Note_on_c, 0, 81, 64
2, 22800, Note_off_c, 0, 81, 62
2, 22800, Note_on_c, 0, 78, 64
2, 22860, Note_off_c, 0, 78, 61
2, 22860, Note_on_c, 0, 81, 64
2, 22920, Note_off_c, 0, 81, 53
2, 22920, Note_on_c, 0, 77, 64
2, 22980, Note_off_c, 0, 77, 66
2, 22980, Note_on_c, 0, 81, 64
2, 23040, Note_off_c, 0, 81, 53
2, 23040, Note_on_c, 0, 76, 64
2, 23100, Note_off_c, 0, 76, 47
2, 23100, Note_on_c, 0, 81, 64
2, 23160, Note_off_c, 0, 81, 55
2, 23160, Note_on_c, 0, 80, 64
2, 23220, Note_off_c, 0, 80, 70
2, 23220, Note_on_c, 0, 81, 64
2, 23280, Note_off_c, 0, 81, 62
2, 23280, Note_on_c, 0, 75, 64
2, 23340, Note_off_c, 0, 75, 52
2, 23340, Note_on_c, 0, 78, 64
2, 23400, Note_off_c, 0, 78, 61
2, 23400, Note_on_c, 0, 72, 64
2, 23460, Note_off_c, 0, 72, 68
2, 23460, Note_on_c, 0, 71, 64
2, 23520, Note_off_c, 0, 71, 49
2, 23520, Note_on_c, 0, 72, 64
2, 23580, Note_off_c, 0, 72, 59
2, 23580, Note_on_c, 0, 74, 64
2, 23640, Note_off_c, 0, 74, 61
2, 23640, Note_on_c, 0, 71, 64
2, 23700, Note_off_c, 0, 71, 66
2, 23700, Note_on_c, 0, 69, 64
2, 23760, Note_off_c, 0, 69, 49
2, 23760, Note_on_c, 0, 68, 64
2, 23880, Note_off_c, 0, 68, 54
2, 23880, Note_on_c, 0, 64, 64
2, 24000, Note_off_c, 0, 64, 28
2, 24000, Note_on_c, 0, 68, 64
2, 24120, Note_off_c, 0, 68, 52
2, 24120, Note_on_c, 0, 71, 64
2, 24240, Note_off_c, 0, 71, 70
2, 24240, Note_on_c, 0, 76, 64
2, 24360, Note_off_c, 0, 76, 23
2, 24360, Note_on_c, 0, 68, 64
2, 24480, Note_off_c, 0, 68, 59
2, 24480, Note_on_c, 0, 76, 64
2, 24540, Note_off_c, 0, 76, 51
2, 24540, Note_on_c, 0, 74, 64
2, 24600, Note_off_c, 0, 74, 65
2, 24600, Note_on_c, 0, 73, 64
2, 24660, Note_off_c, 0, 73, 63
2, 24660, Note_on_c, 0, 71, 64
2, 24720, Note_off_c, 0, 71, 65
2, 24720, Note_on_c, 0, 69, 64
2, 24780, Note_off_c, 0, 69, 43
2, 24780, Note_on_c, 0, 68, 64
2, 24840, Note_off_c, 0, 68, 62
2, 24840, Note_on_c, 0, 76, 64
2, 24900, Note_off_c, 0, 76, 41
2, 24900, Note_on_c, 0, 74, 64
2, 24960, Note_off_c, 0, 74, 68
2, 24960, Note_on_c, 0, 73, 64
2, 25020, Note_off_c, 0, 73, 63
2, 25020, Note_on_c, 0, 71, 64
2, 25080, Note_off_c, 0, 71, 61
2, 25080, Note_on_c, 0, 69, 64
2, 25140, Note_off_c, 0, 69, 54
2, 25140, Note_on_c, 0, 67, 64
2, 25200, Note_off_c, 0, 67, 40
2, 25200, Note_on_c, 0, 66, 64
2, 25320, Note_off_c, 0, 66, 50
2, 25320, Note_on_c, 0, 62, 64
2, 25440, Note_off_c, 0, 62, 28
2, 25440, Note_on_c, 0, 66, 64
2, 25560, Note_off_c, 0, 66, 53
2, 25560, Note_on_c, 0, 69, 64
2, 25680, Note_off_c, 0, 69, 63
2, 25680, Note_on_c, 0, 74, 64
2, 25800, Note_off_c, 0, 74, 65
2, 25800, Note_on_c, 0, 66, 64
2, 25920, Note_off_c, 0, 66, 52
2, 25920, Note_on_c, 0, 74, 64
2, 25980, Note_off_c, 0, 74, 52
2, 25980, Note_on_c, 0, 72, 64
2, 26040, Note_off_c, 0, 72, 70
2, 26040, Note_on_c, 0, 71, 64
2, 26100, Note_off_c, 0, 71, 74
2, 26100, Note_on_c, 0, 69, 64
2, 26160, Note_off_c, 0, 69, 61
2, 26160, Note_on_c, 0, 67, 64
2, 26220, Note_off_c, 0, 67, 47
2, 26220, Note_on_c, 0, 66, 64
2, 26280, Note_off_c, 0, 66, 58
2, 26280, Note_on_c, 0, 74, 64
2, 26340, Note_off_c, 0, 74, 73
2, 26340, Note_on_c, 0, 72, 64
2, 26400, Note_off_c, 0, 72, 76
2, 26400, Note_on_c, 0, 71, 64
2, 26460, Note_off_c, 0, 71, 74
2, 26460, Note_on_c, 0, 69, 64
2, 26520, Note_off_c, 0, 69, 63
2, 26520, Note_on_c, 0, 67, 64
2, 26580, Note_off_c, 0, 67, 44
2, 26580, Note_on_c, 0, 66, 64
2, 26640, Note_off_c, 0, 66, 62
2, 26640, Note_on_c, 0, 71, 64
2, 26700, Note_off_c, 0, 71, 70
2, 26700, Note_on_c, 0, 69, 64
2, 26760, Note_off_c, 0, 69, 65
2, 26760, Note_on_c, 0, 67, 64
2, 26820, Note_off_c, 0, 67, 54
2, 26820, Note_on_c, 0, 66, 64
2, 26880, Note_off_c, 0, 66, 69
2, 26880, Note_on_c, 0, 64, 64
2, 26940, Note_off_c, 0, 64, 43
2, 26940, Note_on_c, 0, 63, 64
2, 27000, Note_off_c, 0, 63, 49
2, 27000, Note_on_c, 0, 71, 64
2, 27060, Note_off_c, 0, 71, 42
2, 27060, Note_on_c, 0, 69, 64
2, 27120, Note_off_c, 0, 69, 66
2, 27120, Note_on_c, 0, 67, 64
2, 27180, Note_off_c, 0, 67, 40
2, 27180, Note_on_c, 0, 66, 64
2, 27240, Note_off_c, 0, 66, 66
2, 27240, Note_on_c, 0, 64, 64
2, 27300, Note_off_c, 0, 64, 51
2, 27300, Note_on_c, 0, 63, 64
2, 27360, Note_off_c, 0, 63, 58
2, 27360, Note_on_c, 0, 64, 64
2, 27420, Note_off_c, 0, 64, 40
2, 27420, Note_on_c, 0, 67, 64
2, 27480, Note_off_c, 0, 67, 52
2, 27480, Note_on_c, 0, 71, 64
2, 27540, Note_off_c, 0, 71, 76
2, 27540, Note_on_c, 0, 76, 64
2, 27600, Note_off_c, 0, 76, 50
2, 27600, Note_on_c, 0, 75, 64
2, 27660, Note_off_c, 0, 75, 46
2, 27660, Note_on_c, 0, 76, 64
2, 27720, Note_off_c, 0, 76, 52
2, 27720, Note_on_c, 0, 74, 64
2, 27780, Note_off_c, 0, 74, 73
2, 27780, Note_on_c, 0, 76, 64
2, 27840, Note_off_c, 0, 76, 52
2, 27840, Note_on_c, 0, 73, 64
2, 27900, Note_off_c, 0, 73, 62
2, 27900, Note_on_c, 0, 76, 64
2, 27960, Note_off_c, 0, 76, 51
2, 27960, Note_on_c, 0, 72, 64
2, 28020, Note_off_c, 0, 72, 79
2, 28020, Note_on_c, 0, 76, 64
2, 28080, Note_off_c, 0, 76, 44
2, 28080, Note_on_c, 0, 71, 64
2, 28140, Note_off_c, 0, 71, 73
2, 28140, Note_on_c, 0, 69, 64
2, 28200, Note_off_c, 0, 69, 62
2, 28200, Note_on_c, 0, 67, 64
2, 28260, Note_off_c, 0, 67, 42
2, 28260, Note_on_c, 0, 72, 64
2, 28320, Note_off_c, 0, 72, 76
2, 28320, Note_on_c, 0, 71, 64
2, 28380, Note_off_c, 0, 71, 69
2, 28380, Note_on_c, 0, 69, 64
2, 28440, Note_off_c, 0, 69, 66
2, 28440, Note_on_c, 0, 71, 64
2, 28500, Note_off_c, 0, 71, 77
2, 28500, Note_on_c, 0, 68, 64
2, 28560, Note_off_c, 0, 68, 68
2, 28560, Note_on_c, 0, 69, 64
2, 28620, Note_off_c, 0, 69, 53
2, 28620, Note_on_c, 0, 67, 64
2, 28680, Note_off_c, 0, 67, 43
2, 28680, Note_on_c, 0, 69, 64
2, 28740, Note_off_c, 0, 69, 74
2, 28740, Note_on_c, 0, 66, 64
2, 28800, Note_off_c, 0, 66, 66
2, 28800, Note_on_c, 0, 67, 64
2, 28860, Note_off_c, 0, 67, 46
2, 28860, Note_on_c, 0, 66, 64
2, 28920, Note_off_c, 0, 66, 66
2, 28920, Note_on_c, 0, 67, 64
2, 28980, Note_off_c, 0, 67, 49
2, 28980, Note_on_c, 0, 69, 64
2, 29040, Note_off_c, 0, 69, 72
2, 29040, Note_on_c, 0, 63, 64
2, 29100, Note_off_c, 0, 63, 52
2, 29100, Note_on_c, 0, 66, 64
2, 29160, Note_off_c, 0, 66, 66
2, 29160, Note_on_c, 0, 60, 64
2, 29220, Note_off_c, 0, 60, 46
2, 29220, Note_on_c, 0, 59, 64
2, 29280, Note_off_c, 0, 59, 43
2, 29280, Note_on_c, 0, 60, 64
2, 29340, Note_off_c, 0, 60, 54
2, 29340, Note_on_c, 0, 62, 64
2, 29400, Note_off_c, 0, 62, 52
2, 29400, Note_on_c, 0, 59, 64
2, 29460, Note_off_c, 0, 59, 46
2, 29460, Note_on_c, 0, 57, 64
2, 29520, Note_off_c, 0, 57, 39
2, 29520, Note_on_c, 0, 56, 64
2, 29550, Note_off_c, 0, 56, 44
2, 29550, Note_on_c, 0, 59, 64
2, 29580, Note_off_c, 0, 59, 50
2, 29580, Note_on_c, 0, 64, 64
2, 29700, Note_off_c, 0, 64, 49
2, 29700, End_track
3, 0, Start_track
3, 0, Text_t, "LH"
3, 1440, Note_on_c, 1, 47, 64
3, 1500, Note_off_c, 1, 47, 46
3, 1500, Note_on_c, 1, 50, 64
3, 1560, Note_off_c, 1, 50, 49
3, 1560, Note_on_c, 1, 54, 64
3, 1620, Note_off_c, 1, 54, 57
3, 1620, Note_on_c, 1, 59, 64
3, 1680, Note_off_c, 1, 59, 46
3, 1680, Note_on_c, 1, 58, 64
3, 1740, Note_off_c, 1, 58, 47
3, 1740, Note_on_c, 1, 59, 64
3, 1800, Note_off_c, 1, 59, 49
3, 1800, Note_on_c, 1, 57, 64
3, 1860, Note_off_c, 1, 57, 49
3, 1860, Note_on_c, 1, 59, 64
3, 1920, Note_off_c, 1, 59, 24
3, 1920, Note_on_c, 1, 56, 64
3, 1980, Note_off_c, 1, 56, 48
3, 1980, Note_on_c, 1, 59, 64
3, 2040, Note_off_c, 1, 59, 41
3, 2040, Note_on_c, 1, 55, 64
3, 2100, Note_off_c, 1, 55, 47
3, 2100, Note_on_c, 1, 59, 64
3, 2160, Note_off_c, 1, 59, 42
3, 2160, Note_on_c, 1, 54, 64
3, 2220, Note_off_c, 1, 54, 54
3, 2220, Note_on_c, 1, 59, 64
3, 2280, Note_off_c, 1, 59, 44
3, 2280, Note_on_c, 1, 58, 64
3, 2340, Note_off_c, 1, 58, 57
3, 2340, Note_on_c, 1, 59, 64
3, 2400, Note_off_c, 1, 59, 47
3, 2400, Note_on_c, 1, 53, 64
3, 2460, Note_off_c, 1, 53, 48
3, 2460, Note_on_c, 1, 56, 64
3, 2520, Note_off_c, 1, 56, 36
3, 2520, Note_on_c, 1, 50, 64
3, 2580, Note_off_c, 1, 50, 34
3, 2580, Note_on_c, 1, 49, 64
3, 2640, Note_off_c, 1, 49, 50
3, 2640, Note_on_c, 1, 50, 64
3, 2700, Note_off_c, 1, 50, 27
3, 2700, Note_on_c, 1, 53, 64
3, 2760, Note_off_c, 1, 53, 52
3, 2760, Note_on_c, 1, 49, 64
3, 2820, Note_off_c, 1, 49, 57
3, 2820, Note_on_c, 1, 47, 64
3, 2880, Note_off_c, 1, 47, 49
3, 2880, Note_on_c, 1, 46, 64
3, 3000, Note_off_c, 1, 46, 46
3, 3000, Note_on_c, 1, 54, 64
3, 3120, Note_off_c, 1, 54, 49
3, 3180, Note_on_c, 1, 66, 64
3, 3240, Note_off_c, 1, 66, 46
3, 3240, Note_on_c, 1, 67, 64
3, 3300, Note_off_c, 1, 67, 44
3, 3300, Note_on_c, 1, 66, 64
3, 3360, Note_off_c, 1, 66, 65
3, 3360, Note_on_c, 1, 64, 64
3, 3420, Note_off_c, 1, 64, 42
3, 3420, Note_on_c, 1, 62, 64
3, 3480, Note_off_c, 1, 62, 57
3, 3480, Note_on_c, 1, 61, 64
3, 3540, Note_off_c, 1, 61, 62
3, 3540, Note_on_c, 1, 64, 64
3, 3600, Note_off_c, 1, 64, 49
3, 3600, Note_on_c, 1, 62, 64
3, 3900, Note_off_c, 1, 62, 46
3, 3900, Note_on_c, 1, 61, 64
3, 3960, Note_off_c, 1, 61, 55
3, 3960, Note_on_c, 1, 59, 64
3, 4020, Note_off_c, 1, 59, 42
3, 4020, Note_on_c, 1, 58, 64
3, 4080, Note_off_c, 1, 58, 55
3, 4080, Note_on_c, 1, 59, 64
3, 4140, Note_off_c, 1, 59, 37
3, 4140, Note_on_c, 1, 61, 64
3, 4200, Note_off_c, 1, 61, 62
3, 4200, Note_on_c, 1, 57, 64
3, 4260, Note_off_c, 1, 57, 38
3, 4260, Note_on_c, 1, 59, 64
3, 4320, Note_off_c, 1, 59, 49
3, 4320, Note_on_c, 1, 44, 64
3, 4440, Note_off_c, 1, 44, 35
3, 4440, Note_on_c, 1, 52, 64
3, 4560, Note_off_c, 1, 52, 65
3, 4620, Note_on_c, 1, 64, 64
3, 4680, Note_off_c, 1, 64, 41
3, 4680, Note_on_c, 1, 65, 64
3, 4740, Note_off_c, 1, 65, 6
3, 4740, Note_on_c, 1, 64, 64
3, 4800, Note_off_c, 1, 64, 48
3, 4800, Note_on_c, 1, 62, 64
3, 4860, Note_off_c, 1, 62, 49
3, 4860, Note_on_c, 1, 60, 64
3, 4920, Note_off_c, 1, 60, 54
3, 4920, Note_on_c, 1, 59, 64
3, 4980, Note_off_c, 1, 59, 42
3, 4980, Note_on_c, 1, 62, 64
3, 5040, Note_off_c, 1, 62, 49
3, 5040, Note_on_c, 1, 60, 64
3, 5340, Note_off_c, 1, 60, 48
3, 5340, Note_on_c, 1, 59, 64
3, 5400, Note_off_c, 1, 59, 40
3, 5400, Note_on_c, 1, 57, 64
3, 5460, Note_off_c, 1, 57, 28
3, 5460, Note_on_c, 1, 56, 64
3, 5520, Note_off_c, 1, 56, 47
3, 5520, Note_on_c, 1, 57, 64
3, 5580, Note_off_c, 1, 57, 46
3, 5580, Note_on_c, 1, 59, 64
3, 5640, Note_off_c, 1, 59, 50
3, 5640, Note_on_c, 1, 55, 64
3, 5700, Note_off_c, 1, 55, 45
3, 5700, Note_on_c, 1, 57, 64
3, 5760, Note_off_c, 1, 57, 46
3, 5760, Note_on_c, 1, 42, 64
3, 5880, Note_off_c, 1, 42, 42
3, 5880, Note_on_c, 1, 50, 64
3, 6000, Note_off_c, 1, 50, 65
3, 6060, Note_on_c, 1, 52, 64
3, 6120, Note_off_c, 1, 52, 49
3, 6120, Note_on_c, 1, 54, 64
3, 6180, Note_off_c, 1, 54, 55
3, 6180, Note_on_c, 1, 55, 64
3, 6240, Note_off_c, 1, 55, 54
3, 6240, Note_on_c, 1, 57, 64
3, 6300, Note_off_c, 1, 57, 52
3, 6300, Note_on_c, 1, 59, 64
3, 6360, Note_off_c, 1, 59, 46
3, 6360, Note_on_c, 1, 60, 64
3, 6420, Note_off_c, 1, 60, 55
3, 6420, Note_on_c, 1, 57, 64
3, 6480, Note_off_c, 1, 57, 46
3, 6480, Note_on_c, 1, 59, 64
3, 6540, Note_off_c, 1, 59, 59
3, 6540, Note_on_c, 1, 57, 64
3, 6600, Note_off_c, 1, 57, 54
3, 6600, Note_on_c, 1, 60, 64
3, 6660, Note_off_c, 1, 60, 52
3, 6660, Note_on_c, 1, 59, 64
3, 6720, Note_off_c, 1, 59, 58
3, 6720, Note_on_c, 1, 57, 64
3, 6780, Note_off_c, 1, 57, 52
3, 6780, Note_on_c, 1, 55, 64
3, 6840, Note_off_c, 1, 55, 52
3, 6840, Note_on_c, 1, 54, 64
3, 6900, Note_off_c, 1, 54, 62
3, 6900, Note_on_c, 1, 52, 64
3, 6960, Note_off_c, 1, 52, 58
3, 6960, Note_on_c, 1, 50, 64
3, 7020, Note_off_c, 1, 50, 50
3, 7020, Note_on_c, 1, 52, 64
3, 7080, Note_off_c, 1, 52, 59
3, 7080, Note_on_c, 1, 48, 64
3, 7140, Note_off_c, 1, 48, 45
3, 7140, Note_on_c, 1, 50, 64
3, 7200, Note_off_c, 1, 50, 55
3, 7200, Note_on_c, 1, 47, 64
3, 7320, Note_off_c, 1, 47, 39
3, 7320, Note_on_c, 1, 55, 64
3, 7440, Note_off_c, 1, 55, 54
3, 7500, Note_on_c, 1, 62, 64
3, 7560, Note_off_c, 1, 62, 41
3, 7560, Note_on_c, 1, 64, 64
3, 7620, Note_off_c, 1, 64, 48
3, 7620, Note_on_c, 1, 62, 64
3, 7680, Note_off_c, 1, 62, 52
3, 7680, Note_on_c, 1, 60, 64
3, 7740, Note_off_c, 1, 60, 55
3, 7740, Note_on_c, 1, 59, 64
3, 7800, Note_off_c, 1, 59, 52
3, 7800, Note_on_c, 1, 57, 64
3, 7860, Note_off_c, 1, 57, 42
3, 7860, Note_on_c, 1, 60, 64
3, 7920, Note_off_c, 1, 60, 57
3, 7920, Note_on_c, 1, 59, 64
3, 8220, Note_off_c, 1, 59, 45
3, 8220, Note_on_c, 1, 57, 64
3, 8280, Note_off_c, 1, 57, 45
3, 8280, Note_on_c, 1, 55, 64
3, 8340, Note_off_c, 1, 55, 42
3, 8340, Note_on_c, 1, 54, 64
3, 8400, Note_off_c, 1, 54, 50
3, 8400, Note_on_c, 1, 55, 64
3, 8460, Note_off_c, 1, 55, 61
3, 8460, Note_on_c, 1, 54, 64
3, 8520, Note_off_c, 1, 54, 53
3, 8520, Note_on_c, 1, 55, 64
3, 8580, Note_off_c, 1, 55, 49
3, 8580, Note_on_c, 1, 57, 64
3, 8640, Note_off_c, 1, 57, 50
3, 8640, Note_on_c, 1, 50, 64
3, 8700, Note_off_c, 1, 50, 37
3, 8700, Note_on_c, 1, 54, 64
3, 8760, Note_off_c, 1, 54, 53
3, 8760, Note_on_c, 1, 57, 64
3, 8820, Note_off_c, 1, 57, 59
3, 8820, Note_on_c, 1, 62, 64
3, 8880, Note_off_c, 1, 62, 54
3, 8880, Note_on_c, 1, 61, 64
3, 8940, Note_off_c, 1, 61, 57
3, 8940, Note_on_c, 1, 62, 64
3, 9000, Note_off_c, 1, 62, 51
3, 9000, Note_on_c, 1, 60, 64
3, 9060, Note_off_c, 1, 60, 61
3, 9060, Note_on_c, 1, 62, 64
3, 9120, Note_off_c, 1, 62, 52
3, 9120, Note_on_c, 1, 59, 64
3, 9180, Note_off_c, 1, 59, 52
3, 9180, Note_on_c, 1, 62, 64
3, 9240, Note_off_c, 1, 62, 49
3, 9240, Note_on_c, 1, 58, 64
3, 9300, Note_off_c, 1, 58, 52
3, 9300, Note_on_c, 1, 62, 64
3, 9360, Note_off_c, 1, 62, 48
3, 9360, Note_on_c, 1, 57, 64
3, 9420, Note_off_c, 1, 57, 51
3, 9420, Note_on_c, 1, 62, 64
3, 9480, Note_off_c, 1, 62, 52
3, 9480, Note_on_c, 1, 61, 64
3, 9540, Note_off_c, 1, 61, 58
3, 9540, Note_on_c, 1, 62, 64
3, 9600, Note_off_c, 1, 62, 59
3, 9600, Note_on_c, 1, 56, 64
3, 9660, Note_off_c, 1, 56, 57
3, 9660, Note_on_c, 1, 59, 64
3, 9720, Note_off_c, 1, 59, 62
3, 9720, Note_on_c, 1, 53, 64
3, 9780, Note_off_c, 1, 53, 62
3, 9780, Note_on_c, 1, 52, 64
3, 9840, Note_off_c, 1, 52, 55
3, 9840, Note_on_c, 1, 53, 64
3, 9900, Note_off_c, 1, 53, 47
3, 9900, Note_on_c, 1, 56, 64
3, 9960, Note_off_c, 1, 56, 62
3, 9960, Note_on_c, 1, 52, 64
3, 10020, Note_off_c, 1, 52, 48
3, 10020, Note_on_c, 1, 50, 64
3, 10080, Note_off_c, 1, 50, 42
3, 10080, Note_on_c, 1, 49, 64
3, 10200, Note_off_c, 1, 49, 55
3, 10200, Note_on_c, 1, 45, 64
3, 10320, Note_off_c, 1, 45, 49
3, 10320, Note_on_c, 1, 49, 64
3, 10440, Note_off_c, 1, 49, 49
3, 10440, Note_on_c, 1, 52, 64
3, 10560, Note_off_c, 1, 52, 52
3, 10560, Note_on_c, 1, 57, 64
3, 10680, Note_off_c, 1, 57, 49
3, 10680, Note_on_c, 1, 49, 64
3, 10800, Note_off_c, 1, 49, 44
3, 10800, Note_on_c, 1, 57, 64
3, 10860, Note_off_c, 1, 57, 45
3, 10860, Note_on_c, 1, 55, 64
3, 10920, Note_off_c, 1, 55, 68
3, 10920, Note_on_c, 1, 54, 64
3, 10980, Note_off_c, 1, 54, 55
3, 10980, Note_on_c, 1, 52, 64
3, 11040, Note_off_c, 1, 52, 58
3, 11040, Note_on_c, 1, 50, 64
3, 11100, Note_off_c, 1, 50, 27
3, 11100, Note_on_c, 1, 49, 64
3, 11160, Note_off_c, 1, 49, 52
3, 11160, Note_on_c, 1, 57, 64
3, 11220, Note_off_c, 1, 57, 50
3, 11220, Note_on_c, 1, 55, 64
3, 11280, Note_off_c, 1, 55, 47
3, 11280, Note_on_c, 1, 54, 64
3, 11340, Note_off_c, 1, 54, 52
3, 11340, Note_on_c, 1, 52, 64
3, 11400, Note_off_c, 1, 52, 55
3, 11400, Note_on_c, 1, 50, 64
3, 11460, Note_off_c, 1, 50, 52
3, 11460, Note_on_c, 1, 48, 64
3, 11520, Note_off_c, 1, 48, 43
3, 11520, Note_on_c, 1, 47, 64
3, 11640, Note_off_c, 1, 47, 46
3, 11640, Note_on_c, 1, 43, 64
3, 11760, Note_off_c, 1, 43, 46
3, 11760, Note_on_c, 1, 47, 64
3, 11880, Note_off_c, 1, 47, 54
3, 11880, Note_on_c, 1, 50, 64
3, 12000, Note_off_c, 1, 50, 65
3, 12000, Note_on_c, 1, 55, 64
3, 12120, Note_off_c, 1, 55, 49
3, 12120, Note_on_c, 1, 47, 64
3, 12240, Note_off_c, 1, 47, 55
3, 12240, Note_on_c, 1, 55, 64
3, 12300, Note_off_c, 1, 55, 52
3, 12300, Note_on_c, 1, 53, 64
3, 12360, Note_off_c, 1, 53, 53
3, 12360, Note_on_c, 1, 52, 64
3, 12420, Note_off_c, 1, 52, 59
3, 12420, Note_on_c, 1, 50, 64
3, 12480, Note_off_c, 1, 50, 55
3, 12480, Note_on_c, 1, 48, 64
3, 12540, Note_off_c, 1, 48, 51
3, 12540, Note_on_c, 1, 47, 64
3, 12600, Note_off_c, 1, 47, 51
3, 12600, Note_on_c, 1, 55, 64
3, 12660, Note_off_c, 1, 55, 59
3, 12660, Note_on_c, 1, 53, 64
3, 12720, Note_off_c, 1, 53, 59
3, 12720, Note_on_c, 1, 52, 64
3, 12780, Note_off_c, 1, 52, 61
3, 12780, Note_on_c, 1, 50, 64
3, 12840, Note_off_c, 1, 50, 51
3, 12840, Note_on_c, 1, 48, 64
3, 12900, Note_off_c, 1, 48, 54
3, 12900, Note_on_c, 1, 47, 64
3, 12960, Note_off_c, 1, 47, 49
3, 12960, Note_on_c, 1, 52, 64
3, 13020, Note_off_c, 1, 52, 69
3, 13020, Note_on_c, 1, 50, 64
3, 13080, Note_off_c, 1, 50, 58
3, 13080, Note_on_c, 1, 48, 64
3, 13140, Note_off_c, 1, 48, 37
3, 13140, Note_on_c, 1, 47, 64
3, 13200, Note_off_c, 1, 47, 53
3, 13200, Note_on_c, 1, 45, 64
3, 13260, Note_off_c, 1, 45, 34
3, 13260, Note_on_c, 1, 44, 64
3, 13320, Note_off_c, 1, 44, 50
3, 13320, Note_on_c, 1, 52, 64
3, 13380, Note_off_c, 1, 52, 57
3, 13380, Note_on_c, 1, 50, 64
3, 13440, Note_off_c, 1, 50, 52
3, 13440, Note_on_c, 1, 48, 64
3, 13500, Note_off_c, 1, 48, 51
3, 13500, Note_on_c, 1, 47, 64
3, 13560, Note_off_c, 1, 47, 49
3, 13560, Note_on_c, 1, 45, 64
3, 13620, Note_off_c, 1, 45, 40
3, 13620, Note_on_c, 1, 44, 64
3, 13680, Note_off_c, 1, 44, 58
3, 13680, Note_on_c, 1, 45, 64
3, 13740, Note_off_c, 1, 45, 51
3, 13740, Note_on_c, 1, 48, 64
3, 13800, Note_off_c, 1, 48, 57
3, 13800, Note_on_c, 1, 52, 64
3, 13860, Note_off_c, 1, 52, 61
3, 13860, Note_on_c, 1, 57, 64
3, 13920, Note_off_c, 1, 57, 45
3, 13920, Note_on_c, 1, 56, 64
3, 13980, Note_off_c, 1, 56, 57
3, 13980, Note_on_c, 1, 57, 64
3, 14040, Note_off_c, 1, 57, 55
3, 14040, Note_on_c, 1, 55, 64
3, 14100, Note_off_c, 1, 55, 55
3, 14100, Note_on_c, 1, 57, 64
3, 14160, Note_off_c, 1, 57, 53
3, 14160, Note_on_c, 1, 54, 64
3, 14220, Note_off_c, 1, 54, 59
3, 14220, Note_on_c, 1, 57, 64
3, 14280, Note_off_c, 1, 57, 52
3, 14280, Note_on_c, 1, 53, 64
3, 14340, Note_off_c, 1, 53, 47
3, 14340, Note_on_c, 1, 57, 64
3, 14400, Note_off_c, 1, 57, 51
3, 14400, Note_on_c, 1, 52, 64
3, 14460, Note_off_c, 1, 52, 52
3, 14460, Note_on_c, 1, 57, 64
3, 14520, Note_off_c, 1, 57, 49
3, 14520, Note_on_c, 1, 56, 64
3, 14580, Note_off_c, 1, 56, 52
3, 14580, Note_on_c, 1, 57, 64
3, 14640, Note_off_c, 1, 57, 55
3, 14640, Note_on_c, 1, 51, 64
3, 14700, Note_off_c, 1, 51, 61
3, 14700, Note_on_c, 1, 54, 64
3, 14760, Note_off_c, 1, 54, 51
3, 14760, Note_on_c, 1, 48, 64
3, 14820, Note_off_c, 1, 48, 32
3, 14820, Note_on_c, 1, 47, 64
3, 14880, Note_off_c, 1, 47, 13
3, 14880, Note_on_c, 1, 48, 64
3, 14940, Note_off_c, 1, 48, 34
3, 14940, Note_on_c, 1, 50, 64
3, 15000, Note_off_c, 1, 50, 63
3, 15000, Note_on_c, 1, 47, 64
3, 15060, Note_off_c, 1, 47, 45
3, 15060, Note_on_c, 1, 45, 64
3, 15120, Note_off_c, 1, 45, 27
3, 15120, Note_on_c, 1, 43, 64
3, 15240, Note_off_c, 1, 43, 7
3, 15240, Note_on_c, 1, 52, 64
3, 15360, Note_off_c, 1, 52, 65
3, 15420, Note_on_c, 1, 59, 64
3, 15480, Note_off_c, 1, 59, 43
3, 15480, Note_on_c, 1, 60, 64
3, 15540, Note_off_c, 1, 60, 58
3, 15540, Note_on_c, 1, 59, 64
3, 15600, Note_off_c, 1, 59, 45
3, 15600, Note_on_c, 1, 57, 64
3, 15660, Note_off_c, 1, 57, 40
3, 15660, Note_on_c, 1, 55, 64
3, 15720, Note_off_c, 1, 55, 11
3, 15720, Note_on_c, 1, 54, 64
3, 15780, Note_off_c, 1, 54, 43
3, 15780, Note_on_c, 1, 57, 64
3, 15840, Note_off_c, 1, 57, 49
3, 15840, Note_on_c, 1, 55, 64
3, 16140, Note_off_c, 1, 55, 54
3, 16140, Note_on_c, 1, 54, 64
3, 16200, Note_off_c, 1, 54, 53
3, 16200, Note_on_c, 1, 52, 64
3, 16260, Note_off_c, 1, 52, 57
3, 16260, Note_on_c, 1, 51, 64
3, 16320, Note_off_c, 1, 51, 32
3, 16320, Note_on_c, 1, 52, 64
3, 16380, Note_off_c, 1, 52, 48
3, 16380, Note_on_c, 1, 54, 64
3, 16440, Note_off_c, 1, 54, 54
3, 16440, Note_on_c, 1, 51, 64
3, 16500, Note_off_c, 1, 51, 46
3, 16500, Note_on_c, 1, 52, 64
3, 16560, Note_off_c, 1, 52, 52
3, 16560, Note_on_c, 1, 54, 64
3, 16620, Note_off_c, 1, 54, 57
3, 16620, Note_on_c, 1, 47, 64
3, 16680, Note_off_c, 1, 47, 37
3, 16680, Note_on_c, 1, 51, 64
3, 16740, Note_off_c, 1, 51, 49
3, 16740, Note_on_c, 1, 54, 64
3, 16800, Note_off_c, 1, 54, 43
3, 16800, Note_on_c, 1, 57, 64
3, 16860, Note_off_c, 1, 57, 43
3, 16860, Note_on_c, 1, 51, 64
3, 16920, Note_off_c, 1, 51, 46
3, 16920, Note_on_c, 1, 54, 64
3, 16980, Note_off_c, 1, 54, 36
3, 16980, Note_on_c, 1, 57, 64
3, 17040, Note_off_c, 1, 57, 53
3, 17040, Note_on_c, 1, 60, 64
3, 17100, Note_off_c, 1, 60, 62
3, 17100, Note_on_c, 1, 59, 64
3, 17160, Note_off_c, 1, 59, 49
3, 17160, Note_on_c, 1, 57, 64
3, 17220, Note_off_c, 1, 57, 44
3, 17220, Note_on_c, 1, 60, 64
3, 17280, Note_off_c, 1, 60, 55
3, 17280, Note_on_c, 1, 59, 64
3, 17340, Note_off_c, 1, 59, 47
3, 17340, Note_on_c, 1, 57, 64
3, 17400, Note_off_c, 1, 57, 41
3, 17400, Note_on_c, 1, 55, 64
3, 17460, Note_off_c, 1, 55, 50
3, 17460, Note_on_c, 1, 54, 64
3, 17520, Note_off_c, 1, 54, 55
3, 17520, Note_on_c, 1, 52, 64
3, 17580, Note_off_c, 1, 52, 40
3, 17580, Note_on_c, 1, 51, 64
3, 17640, Note_off_c, 1, 51, 52
3, 17640, Note_on_c, 1, 49, 64
3, 17700, Note_off_c, 1, 49, 49
3, 17700, Note_on_c, 1, 47, 64
3, 17760, Note_off_c, 1, 47, 37
3, 17760, Note_on_c, 1, 55, 64
3, 18060, Note_off_c, 1, 55, 52
3, 18060, Note_on_c, 1, 45, 64
3, 18120, Note_off_c, 1, 45, 32
3, 18120, Note_on_c, 1, 49, 64
3, 18180, Note_off_c, 1, 49, 34
3, 18180, Note_on_c, 1, 52, 64
3, 18240, Note_off_c, 1, 52, 55
3, 18240, Note_on_c, 1, 55, 64
3, 18300, Note_off_c, 1, 55, 40
3, 18300, Note_on_c, 1, 49, 64
3, 18360, Note_off_c, 1, 49, 46
3, 18360, Note_on_c, 1, 52, 64
3, 18420, Note_off_c, 1, 52, 27
3, 18420, Note_on_c, 1, 55, 64
3, 18480, Note_off_c, 1, 55, 70
3, 18480, Note_on_c, 1, 58, 64
3, 18540, Note_off_c, 1, 58, 54
3, 18540, Note_on_c, 1, 57, 64
3, 18600, Note_off_c, 1, 57, 36
3, 18600, Note_on_c, 1, 55, 64
3, 18660, Note_off_c, 1, 55, 45
3, 18660, Note_on_c, 1, 58, 64
3, 18720, Note_off_c, 1, 58, 59
3, 18720, Note_on_c, 1, 57, 64
3, 18780, Note_off_c, 1, 57, 51
3, 18780, Note_on_c, 1, 55, 64
3, 18840, Note_off_c, 1, 55, 51
3, 18840, Note_on_c, 1, 53, 64
3, 18900, Note_off_c, 1, 53, 46
3, 18900, Note_on_c, 1, 52, 64
3, 18960, Note_off_c, 1, 52, 62
3, 18960, Note_on_c, 1, 50, 64
3, 19020, Note_off_c, 1, 50, 40
3, 19020, Note_on_c, 1, 49, 64
3, 19080, Note_off_c, 1, 49, 49
3, 19080, Note_on_c, 1, 47, 64
3, 19140, Note_off_c, 1, 47, 46
3, 19140, Note_on_c, 1, 45, 64
3, 19200, Note_off_c, 1, 45, 28
3, 19200, Note_on_c, 1, 53, 64
3, 19500, Note_off_c, 1, 53, 70
3, 19500, Note_on_c, 1, 50, 64
3, 19560, Note_off_c, 1, 50, 66
3, 19560, Note_on_c, 1, 43, 64
3, 19620, Note_off_c, 1, 43, 34
3, 19620, Note_on_c, 1, 45, 64
3, 19680, Note_off_c, 1, 45, 46
3, 19680, Note_on_c, 1, 47, 64
3, 19740, Note_off_c, 1, 47, 62
3, 19740, Note_on_c, 1, 48, 64
3, 19800, Note_off_c, 1, 48, 41
3, 19800, Note_on_c, 1, 50, 64
3, 19860, Note_off_c, 1, 50, 49
3, 19860, Note_on_c, 1, 52, 64
3, 19920, Note_off_c, 1, 52, 72
3, 19920, Note_on_c, 1, 53, 64
3, 19980, Note_off_c, 1, 53, 54
3, 19980, Note_on_c, 1, 55, 64
3, 20040, Note_off_c, 1, 55, 50
3, 20040, Note_on_c, 1, 57, 64
3, 20100, Note_off_c, 1, 57, 49
3, 20100, Note_on_c, 1, 59, 64
3, 20160, Note_off_c, 1, 59, 49
3, 20160, Note_on_c, 1, 60, 64
3, 20220, Note_off_c, 1, 60, 63
3, 20220, Note_on_c, 1, 59, 64
3, 20280, Note_off_c, 1, 59, 29
3, 20280, Note_on_c, 1, 64, 64
3, 20340, Note_off_c, 1, 64, 40
3, 20340, Note_on_c, 1, 62, 64
3, 20400, Note_off_c, 1, 62, 48
3, 20400, Note_on_c, 1, 61, 64
3, 20460, Note_off_c, 1, 61, 54
3, 20460, Note_on_c, 1, 58, 64
3, 20520, Note_off_c, 1, 58, 50
3, 20520, Note_on_c, 1, 57, 64
3, 20580, Note_off_c, 1, 57, 31
3, 20580, Note_on_c, 1, 55, 64
3, 20640, Note_off_c, 1, 55, 40
3, 20640, Note_on_c, 1, 53, 64
3, 20700, Note_off_c, 1, 53, 41
3, 20700, Note_on_c, 1, 62, 64
3, 20760, Note_off_c, 1, 62, 50
3, 20760, Note_on_c, 1, 52, 64
3, 20820, Note_off_c, 1, 52, 45
3, 20820, Note_on_c, 1, 61, 64
3, 20880, Note_off_c, 1, 61, 37
3, 20880, Note_on_c, 1, 50, 64
3, 20940, Note_off_c, 1, 50, 36
3, 20940, Note_on_c, 1, 53, 64
3, 21000, Note_off_c, 1, 53, 49
3, 21000, Note_on_c, 1, 57, 64
3, 21060, Note_off_c, 1, 57, 55
3, 21060, Note_on_c, 1, 62, 64
3, 21120, Note_off_c, 1, 62, 54
3, 21120, Note_on_c, 1, 61, 64
3, 21180, Note_off_c, 1, 61, 49
3, 21180, Note_on_c, 1, 62, 64
3, 21240, Note_off_c, 1, 62, 49
3, 21240, Note_on_c, 1, 60, 64
3, 21300, Note_off_c, 1, 60, 50
3, 21300, Note_on_c, 1, 62, 64
3, 21360, Note_off_c, 1, 62, 55
3, 21360, Note_on_c, 1, 59, 64
3, 21420, Note_off_c, 1, 59, 43
3, 21420, Note_on_c, 1, 62, 64
3, 21480, Note_off_c, 1, 62, 53
3, 21480, Note_on_c, 1, 58, 64
3, 21540, Note_off_c, 1, 58, 55
3, 21540, Note_on_c, 1, 62, 64
3, 21600, Note_off_c, 1, 62, 57
3, 21600, Note_on_c, 1, 57, 64
3, 21660, Note_off_c, 1, 57, 48
3, 21660, Note_on_c, 1, 62, 64
3, 21720, Note_off_c, 1, 62, 49
3, 21720, Note_on_c, 1, 61, 64
3, 21780, Note_off_c, 1, 61, 50
3, 21780, Note_on_c, 1, 62, 64
3, 21840, Note_off_c, 1, 62, 55
3, 21840, Note_on_c, 1, 56, 64
3, 21900, Note_off_c, 1, 56, 53
3, 21900, Note_on_c, 1, 59, 64
3, 21960, Note_off_c, 1, 59, 61
3, 21960, Note_on_c, 1, 53, 64
3, 22020, Note_off_c, 1, 53, 49
3, 22020, Note_on_c, 1, 52, 64
3, 22080, Note_off_c, 1, 52, 47
3, 22080, Note_on_c, 1, 53, 64
3, 22140, Note_off_c, 1, 53, 43
3, 22140, Note_on_c, 1, 56, 64
3, 22200, Note_off_c, 1, 56, 62
3, 22200, Note_on_c, 1, 52, 64
3, 22260, Note_off_c, 1, 52, 50
3, 22260, Note_on_c, 1, 50, 64
3, 22320, Note_off_c, 1, 50, 41
3, 22320, Note_on_c, 1, 48, 64
3, 22440, Note_off_c, 1, 48, 39
3, 22440, Note_on_c, 1, 57, 64
3, 22560, Note_off_c, 1, 57, 52
3, 22620, Note_on_c, 1, 64, 64
3, 22680, Note_off_c, 1, 64, 27
3, 22680, Note_on_c, 1, 65, 64
3, 22740, Note_off_c, 1, 65, 7
3, 22740, Note_on_c, 1, 64, 64
3, 22800, Note_off_c, 1, 64, 37
3, 22800, Note_on_c, 1, 62, 64
3, 22860, Note_off_c, 1, 62, 37
3, 22860, Note_on_c, 1, 60, 64
3, 22920, Note_off_c, 1, 60, 51
3, 22920, Note_on_c, 1, 59, 64
3, 22980, Note_off_c, 1, 59, 28
3, 22980, Note_on_c, 1, 62, 64
3, 23040, Note_off_c, 1, 62, 53
3, 23040, Note_on_c, 1, 60, 64
3, 23340, Note_off_c, 1, 60, 49
3, 23340, Note_on_c, 1, 59, 64
3, 23400, Note_off_c, 1, 59, 49
3, 23400, Note_on_c, 1, 57, 64
3, 23460, Note_off_c, 1, 57, 23
3, 23460, Note_on_c, 1, 56, 64
3, 23520, Note_off_c, 1, 56, 47
3, 23520, Note_on_c, 1, 57, 64
3, 23580, Note_off_c, 1, 57, 49
3, 23580, Note_on_c, 1, 54, 64
3, 23640, Note_off_c, 1, 54, 19
3, 23640, Note_on_c, 1, 51, 64
3, 23700, Note_off_c, 1, 51, 32
3, 23700, Note_on_c, 1, 54, 64
3, 23760, Note_off_c, 1, 54, 33
3, 23760, Note_on_c, 1, 59, 64
3, 23820, Note_off_c, 1, 59, 43
3, 23820, Note_on_c, 1, 57, 64
3, 23880, Note_off_c, 1, 57, 53
3, 23880, Note_on_c, 1, 56, 64
3, 23940, Note_off_c, 1, 56, 52
3, 23940, Note_on_c, 1, 54, 64
3, 24000, Note_off_c, 1, 54, 47
3, 24000, Note_on_c, 1, 52, 64
3, 24060, Note_off_c, 1, 52, 36
3, 24060, Note_on_c, 1, 51, 64
3, 24120, Note_off_c, 1, 51, 46
3, 24120, Note_on_c, 1, 59, 64
3, 24180, Note_off_c, 1, 59, 37
3, 24180, Note_on_c, 1, 57, 64
3, 24240, Note_off_c, 1, 57, 43
3, 24240, Note_on_c, 1, 56, 64
3, 24300, Note_off_c, 1, 56, 51
3, 24300, Note_on_c, 1, 54, 64
3, 24360, Note_off_c, 1, 54, 43
3, 24360, Note_on_c, 1, 52, 64
3, 24420, Note_off_c, 1, 52, 44
3, 24420, Note_on_c, 1, 50, 64
3, 24480, Note_off_c, 1, 50, 8
3, 24480, Note_on_c, 1, 49, 64
3, 24600, Note_off_c, 1, 49, 55
3, 24600, Note_on_c, 1, 45, 64
3, 24720, Note_off_c, 1, 45, 32
3, 24720, Note_on_c, 1, 49, 64
3, 24840, Note_off_c, 1, 49, 52
3, 24840, Note_on_c, 1, 52, 64
3, 24960, Note_off_c, 1, 52, 55
3, 24960, Note_on_c, 1, 57, 64
3, 25080, Note_off_c, 1, 57, 43
3, 25080, Note_on_c, 1, 49, 64
3, 25200, Note_off_c, 1, 49, 48
3, 25200, Note_on_c, 1, 57, 64
3, 25260, Note_off_c, 1, 57, 32
3, 25260, Note_on_c, 1, 55, 64
3, 25320, Note_off_c, 1, 55, 53
3, 25320, Note_on_c, 1, 54, 64
3, 25380, Note_off_c, 1, 54, 51
3, 25380, Note_on_c, 1, 52, 64
3, 25440, Note_off_c, 1, 52, 53
3, 25440, Note_on_c, 1, 50, 64
3, 25500, Note_off_c, 1, 50, 37
3, 25500, Note_on_c, 1, 49, 64
3, 25560, Note_off_c, 1, 49, 54
3, 25560, Note_on_c, 1, 57, 64
3, 25620, Note_off_c, 1, 57, 46
3, 25620, Note_on_c, 1, 55, 64
3, 25680, Note_off_c, 1, 55, 57
3, 25680, Note_on_c, 1, 54, 64
3, 25740, Note_off_c, 1, 54, 51
3, 25740, Note_on_c, 1, 52, 64
3, 25800, Note_off_c, 1, 52, 52
3, 25800, Note_on_c, 1, 50, 64
3, 25860, Note_off_c, 1, 50, 53
3, 25860, Note_on_c, 1, 48, 64
3, 25920, Note_off_c, 1, 48, 46
3, 25920, Note_on_c, 1, 47, 64
3, 26040, Note_off_c, 1, 47, 53
3, 26040, Note_on_c, 1, 43, 64
3, 26160, Note_off_c, 1, 43, 41
3, 26160, Note_on_c, 1, 47, 64
3, 26280, Note_off_c, 1, 47, 40
3, 26280, Note_on_c, 1, 50, 64
3, 26400, Note_off_c, 1, 50, 59
3, 26400, Note_on_c, 1, 55, 64
3, 26520, Note_off_c, 1, 55, 34
3, 26520, Note_on_c, 1, 47, 64
3, 26640, Note_off_c, 1, 47, 62
3, 26640, Note_on_c, 1, 59, 64
3, 26700, Note_off_c, 1, 59, 52
3, 26700, Note_on_c, 1, 57, 64
3, 26760, Note_off_c, 1, 57, 43
3, 26760, Note_on_c, 1, 55, 64
3, 26820, Note_off_c, 1, 55, 69
3, 26820, Note_on_c, 1, 54, 64
3, 26880, Note_off_c, 1, 54, 59
3, 26880, Note_on_c, 1, 52, 64
3, 26940, Note_off_c, 1, 52, 51
3, 26940, Note_on_c, 1, 51, 64
3, 27000, Note_off_c, 1, 51, 57
3, 27000, Note_on_c, 1, 59, 64
3, 27060, Note_off_c, 1, 59, 52
3, 27060, Note_on_c, 1, 57, 64
3, 27120, Note_off_c, 1, 57, 62
3, 27120, Note_on_c, 1, 55, 64
3, 27180, Note_off_c, 1, 55, 65
3, 27180, Note_on_c, 1, 54, 64
3, 27240, Note_off_c, 1, 54, 54
3, 27240, Note_on_c, 1, 52, 64
3, 27300, Note_off_c, 1, 52, 52
3, 27300, Note_on_c, 1, 51, 64
3, 27360, Note_off_c, 1, 51, 57
3, 27360, Note_on_c, 1, 52, 64
3, 27420, Note_off_c, 1, 52, 66
3, 27420, Note_on_c, 1, 47, 64
3, 27480, Note_off_c, 1, 47, 50
3, 27480, Note_on_c, 1, 43, 64
3, 27540, Note_off_c, 1, 43, 46
3, 27540, Note_on_c, 1, 40, 64
3, 27600, Note_off_c, 1, 40, 51
3, 27660, Note_on_c, 1, 59, 64
3, 27720, Note_off_c, 1, 59, 43
3, 27720, Note_on_c, 1, 60, 64
3, 27780, Note_off_c, 1, 60, 58
3, 27780, Note_on_c, 1, 59, 64
3, 27840, Note_off_c, 1, 59, 55
3, 27840, Note_on_c, 1, 57, 64
3, 27900, Note_off_c, 1, 57, 47
3, 27900, Note_on_c, 1, 55, 64
3, 27960, Note_off_c, 1, 55, 53
3, 27960, Note_on_c, 1, 57, 64
3, 28020, Note_off_c, 1, 57, 49
3, 28020, Note_on_c, 1, 54, 64
3, 28080, Note_off_c, 1, 54, 59
3, 28080, Note_on_c, 1, 55, 64
3, 28140, Note_off_c, 1, 55, 43
3, 28140, Note_on_c, 1, 54, 64
3, 28200, Note_off_c, 1, 54, 53
3, 28200, Note_on_c, 1, 52, 64
3, 28260, Note_off_c, 1, 52, 52
3, 28260, Note_on_c, 1, 64, 64
3, 28320, Note_off_c, 1, 64, 40
3, 28320, Note_on_c, 1, 63, 64
3, 28380, Note_off_c, 1, 63, 51
3, 28380, Note_on_c, 1, 64, 64
3, 28440, Note_off_c, 1, 64, 46
3, 28440, Note_on_c, 1, 62, 64
3, 28500, Note_off_c, 1, 62, 55
3, 28500, Note_on_c, 1, 64, 64
3, 28560, Note_off_c, 1, 64, 50
3, 28560, Note_on_c, 1, 61, 64
3, 28620, Note_off_c, 1, 61, 57
3, 28620, Note_on_c, 1, 64, 64
3, 28680, Note_off_c, 1, 64, 45
3, 28680, Note_on_c, 1, 60, 64
3, 28740, Note_off_c, 1, 60, 46
3, 28740, Note_on_c, 1, 64, 64
3, 28800, Note_off_c, 1, 64, 46
3, 28800, Note_on_c, 1, 59, 64
3, 28920, Note_off_c, 1, 59, 50
3, 28920, Note_on_c, 1, 57, 64
3, 29040, Note_off_c, 1, 57, 47
3, 29040, Note_on_c, 1, 59, 64
3, 29160, Note_off_c, 1, 59, 45
3, 29280, Note_on_c, 1, 47, 64
3, 29400, Note_off_c, 1, 47, 43
3, 29520, Note_on_c, 1, 40, 64
3, 29700, Note_off_c, 1, 40, 65
3, 29700, End_track
0, 0, End_of_file
