0, 0, Header, 1, 3, 240
1, 0, Start_track
1, 0, Time_signature, 6, 3, 12, 8
1, 0, Tempo, 857143
1, 18840, Tempo, 869565
1, 18960, Tempo, 882353
1, 19072, Tempo, 895522
1, 19176, Tempo, 909091
1, 19312, Tempo, 937500
1, 19440, Tempo, 983607
1, 19560, Tempo, 1000000
1, 19680, Tempo, 1016949
1, 19800, Tempo, 1052632
1, 19920, Tempo, 1200000
1, 20040, Tempo, 1363636
1, 20096, Tempo, 1714286
1, 20160, Tempo, 1016949
1, 20160, End_track
2, 0, Start_track
2, 0, Text_t, "RH B"
2, 0, Note_on_c, 0, 68, 64
2, 60, Note_off_c, 0, 68, 72
2, 60, Note_on_c, 0, 70, 64
2, 120, Note_off_c, 0, 70, 61
2, 120, Note_on_c, 0, 71, 64
2, 180, Note_off_c, 0, 71, 80
2, 180, Note_on_c, 0, 68, 64
2, 240, Note_off_c, 0, 68, 79
2, 240, Note_on_c, 0, 70, 64
2, 300, Note_off_c, 0, 70, 72
2, 300, Note_on_c, 0, 73, 64
2, 360, Note_off_c, 0, 73, 63
2, 360, Note_on_c, 0, 76, 64
2, 480, Note_off_c, 0, 76, 57
2, 480, Note_on_c, 0, 75, 64
2, 600, Note_off_c, 0, 75, 45
2, 600, Note_on_c, 0, 73, 64
2, 720, Note_off_c, 0, 73, 50
2, 720, Note_on_c, 0, 71, 64
2, 840, Note_on_c, 0, 80, 64
2, 960, Note_off_c, 0, 71, 70
2, 960, Note_on_c, 0, 73, 64
2, 960, Note_on_c, 0, 70, 64
2, 1080, Note_off_c, 0, 80, 69
2, 1080, Note_on_c, 0, 79, 64
2, 1200, Note_off_c, 0, 70, 62
2, 1200, Note_off_c, 0, 73, 61
2, 1200, Note_on_c, 0, 71, 64
2, 1320, Note_off_c, 0, 71, 69
2, 1320, Note_on_c, 0, 70, 64
2, 1440, Note_off_c, 0, 70, 47
2, 1440, Note_off_c, 0, 79, 55
2, 1440, Note_on_c, 0, 75, 64
2, 1440, Note_on_c, 0, 80, 64
2, 1500, Note_off_c, 0, 80, 63
2, 1500, Note_on_c, 0, 82, 64
2, 1560, Note_off_c, 0, 82, 46
2, 1560, Note_off_c, 0, 75, 49
2, 1560, Note_on_c, 0, 83, 64
2, 1620, Note_off_c, 0, 83, 63
2, 1620, Note_on_c, 0, 75, 64
2, 1680, Note_off_c, 0, 75, 33
2, 1680, Note_on_c, 0, 76, 64
2, 1740, Note_off_c, 0, 76, 42
2, 1740, Note_on_c, 0, 80, 64
2, 1800, Note_off_c, 0, 80, 70
2, 1800, Note_on_c, 0, 78, 64
2, 1860, Note_off_c, 0, 78, 57
2, 1860, Note_on_c, 0, 80, 64
2, 1920, Note_off_c, 0, 80, 50
2, 1920, Note_on_c, 0, 82, 64
2, 1980, Note_off_c, 0, 82, 59
2, 1980, Note_on_c, 0, 73, 64
2, 2040, Note_off_c, 0, 73, 51
2, 2040, Note_on_c, 0, 75, 64
2, 2100, Note_off_c, 0, 75, 48
2, 2100, Note_on_c, 0, 78, 64
2, 2160, Note_off_c, 0, 78, 57
2, 2160, Note_on_c, 0, 76, 64
2, 2220, Note_off_c, 0, 76, 55
2, 2220, Note_on_c, 0, 78, 64
2, 2280, Note_off_c, 0, 78, 49
2, 2280, Note_on_c, 0, 80, 64
2, 2340, Note_off_c, 0, 80, 70
2, 2340, Note_on_c, 0, 71, 64
2, 2400, Note_off_c, 0, 71, 45
2, 2400, Note_on_c, 0, 73, 64
2, 2460, Note_off_c, 0, 73, 43
2, 2460, Note_on_c, 0, 76, 64
2, 2520, Note_off_c, 0, 76, 48
2, 2520, Note_on_c, 0, 70, 64
2, 2580, Note_off_c, 0, 70, 49
2, 2580, Note_on_c, 0, 71, 64
2, 2640, Note_off_c, 0, 71, 66
2, 2640, Note_on_c, 0, 73, 64
2, 2700, Note_off_c, 0, 73, 65
2, 2700, Note_on_c, 0, 66, 64
2, 2760, Note_off_c, 0, 66, 1
2, 2760, Note_on_c, 0, 73, 64
2, 2820, Note_off_c, 0, 73, 49
2, 2820, Note_on_c, 0, 76, 64
2, 2880, Note_off_c, 0, 76, 44
2, 2880, Note_on_c, 0, 75, 64
2, 2940, Note_off_c, 0, 75, 52
2, 2940, Note_on_c, 0, 76, 64
2, 3000, Note_off_c, 0, 76, 52
2, 3000, Note_on_c, 0, 78, 64
2, 3060, Note_off_c, 0, 78, 55
2, 3060, Note_on_c, 0, 75, 64
2, 3120, Note_off_c, 0, 75, 39
2, 3120, Note_on_c, 0, 76, 64
2, 3180, Note_off_c, 0, 76, 47
2, 3180, Note_on_c, 0, 80, 64
2, 3240, Note_off_c, 0, 80, 59
2, 3240, Note_on_c, 0, 71, 64
2, 3300, Note_off_c, 0, 71, 47
2, 3300, Note_on_c, 0, 70, 64
2, 3360, Note_off_c, 0, 70, 59
2, 3360, Note_on_c, 0, 71, 64
2, 3420, Note_off_c, 0, 71, 40
2, 3420, Note_on_c, 0, 70, 64
2, 3480, Note_off_c, 0, 70, 53
2, 3480, Note_on_c, 0, 71, 64
2, 3540, Note_off_c, 0, 71, 41
2, 3540, Note_on_c, 0, 73, 64
2, 3600, Note_on_c, 0, 63, 64
2, 3660, Note_off_c, 0, 63, 54
2, 3660, Note_on_c, 0, 64, 64
2, 3720, Note_off_c, 0, 64, 53
2, 3720, Note_off_c, 0, 73, 65
2, 3720, Note_on_c, 0, 66, 64
2, 3720, Note_on_c, 0, 71, 64
2, 3780, Note_off_c, 0, 66, 49
2, 3780, Note_on_c, 0, 63, 64
2, 3840, Note_off_c, 0, 63, 46
2, 3840, Note_on_c, 0, 64, 64
2, 3900, Note_off_c, 0, 64, 34
2, 3900, Note_on_c, 0, 68, 64
2, 3960, Note_off_c, 0, 68, 61
2, 3960, Note_off_c, 0, 71, 76
2, 3960, Note_on_c, 0, 61, 64
2, 4020, Note_on_c, 0, 71, 64
2, 4080, Note_off_c, 0, 71, 77
2, 4080, Note_on_c, 0, 70, 64
2, 4140, Note_off_c, 0, 70, 66
2, 4140, Note_on_c, 0, 71, 64
2, 4200, Note_off_c, 0, 71, 72
2, 4200, Note_on_c, 0, 73, 64
2, 4260, Note_off_c, 0, 73, 68
2, 4260, Note_on_c, 0, 70, 64
2, 4320, Note_off_c, 0, 70, 62
2, 4320, Note_on_c, 0, 66, 64
2, 4440, Note_off_c, 0, 61, 53
2, 4440, Note_on_c, 0, 59, 64
2, 4500, Note_off_c, 0, 59, 26
2, 4500, Note_on_c, 0, 57, 64
2, 4560, Note_off_c, 0, 57, 36
2, 4560, Note_on_c, 0, 61, 64
2, 4620, Note_off_c, 0, 61, 63
2, 4620, Note_on_c, 0, 59, 64
2, 4680, Note_off_c, 0, 59, 37
2, 4680, Note_on_c, 0, 62, 64
2, 4740, Note_off_c, 0, 66, 69
2, 4740, Note_on_c, 0, 65, 64
2, 4800, Note_off_c, 0, 65, 1
2, 4800, Note_off_c, 0, 62, 44
2, 4800, Note_on_c, 0, 61, 64
2, 4800, Note_on_c, 0, 66, 64
2, 4860, Note_off_c, 0, 66, 55
2, 4860, Note_on_c, 0, 65, 64
2, 4920, Note_off_c, 0, 65, 1
2, 4920, Note_off_c, 0, 61, 57
2, 4920, Note_on_c, 0, 59, 64
2, 4920, Note_on_c, 0, 66, 64
2, 4980, Note_off_c, 0, 66, 61
2, 4980, Note_on_c, 0, 68, 64
2, 5040, Note_off_c, 0, 68, 65
2, 5040, Note_on_c, 0, 61, 64
2, 5100, Note_off_c, 0, 61, 40
2, 5100, Note_on_c, 0, 63, 64
2, 5160, Note_off_c, 0, 63, 44
2, 5160, Note_off_c, 0, 59, 45
2, 5160, Note_on_c, 0, 57, 64
2, 5160, Note_on_c, 0, 64, 64
2, 5220, Note_off_c, 0, 64, 61
2, 5220, Note_off_c, 0, 57, 53
2, 5220, Note_on_c, 0, 56, 64
2, 5220, Note_on_c, 0, 61, 64
2, 5280, Note_off_c, 0, 61, 65
2, 5280, Note_off_c, 0, 56, 49
2, 5280, Note_on_c, 0, 57, 64
2, 5280, Note_on_c, 0, 63, 64
2, 5340, Note_off_c, 0, 63, 20
2, 5340, Note_off_c, 0, 57, 65
2, 5340, Note_on_c, 0, 54, 64
2, 5340, Note_on_c, 0, 66, 64
2, 5400, Note_off_c, 0, 66, 70
2, 5400, Note_off_c, 0, 54, 55
2, 5400, Note_on_c, 0, 60, 64
2, 5400, Note_on_c, 0, 69, 64
2, 5520, Note_off_c, 0, 69, 69
2, 5520, Note_off_c, 0, 60, 69
2, 5520, Note_on_c, 0, 61, 64
2, 5520, Note_on_c, 0, 68, 64
2, 5640, Note_off_c, 0, 68, 69
2, 5640, Note_off_c, 0, 61, 59
2, 5640, Note_on_c, 0, 63, 64
2, 5640, Note_on_c, 0, 66, 64
2, 5760, Note_off_c, 0, 66, 53
2, 5760, Note_off_c, 0, 63, 47
2, 5760, Note_on_c, 0, 56, 64
2, 5760, Note_on_c, 0, 64, 64
2, 5820, Note_off_c, 0, 56, 59
2, 5820, Note_on_c, 0, 58, 64
2, 5880, Note_off_c, 0, 58, 58
2, 5880, Note_on_c, 0, 59, 64
2, 5940, Note_off_c, 0, 59, 69
2, 5940, Note_on_c, 0, 56, 64
2, 6000, Note_off_c, 0, 56, 51
2, 6000, Note_off_c, 0, 64, 33
2, 6000, Note_on_c, 0, 58, 64
2, 6000, Note_on_c, 0, 73, 64
2, 6060, Note_off_c, 0, 58, 70
2, 6060, Note_on_c, 0, 61, 64
2, 6120, Note_off_c, 0, 61, 58
2, 6120, Note_off_c, 0, 73, 50
2, 6120, Note_on_c, 0, 64, 64
2, 6120, Note_on_c, 0, 70, 64
2, 6240, Note_off_c, 0, 64, 27
2, 6240, Note_on_c, 0, 63, 64
2, 6360, Note_off_c, 0, 63, 40
2, 6360, Note_on_c, 0, 61, 64
2, 6480, Note_off_c, 0, 61, 51
2, 6480, Note_off_c, 0, 70, 70
2, 6480, Note_on_c, 0, 59, 64
2, 6540, Note_on_c, 0, 68, 64
2, 6600, Note_off_c, 0, 68, 63
2, 6600, Note_on_c, 0, 67, 64
2, 6660, Note_off_c, 0, 67, 44
2, 6660, Note_on_c, 0, 70, 64
2, 6720, Note_off_c, 0, 70, 57
2, 6720, Note_on_c, 0, 68, 64
2, 6780, Note_off_c, 0, 68, 53
2, 6780, Note_on_c, 0, 65, 64
2, 6840, Note_off_c, 0, 65, 49
2, 6840, Note_off_c, 0, 59, 42
2, 6840, Note_on_c, 0, 58, 64
2, 6840, Note_on_c, 0, 62, 64
2, 6960, Note_off_c, 0, 62, 43
2, 6960, Note_on_c, 0, 63, 64
2, 7080, Note_off_c, 0, 63, 44
2, 7080, Note_on_c, 0, 65, 64
2, 7200, Note_off_c, 0, 65, 49
2, 7200, Note_on_c, 0, 66, 64
2, 7320, Note_off_c, 0, 58, 57
2, 7320, Note_on_c, 0, 63, 64
2, 7440, Note_off_c, 0, 63, 45
2, 7440, Note_on_c, 0, 56, 64
2, 7560, Note_off_c, 0, 66, 57
2, 7560, Note_on_c, 0, 65, 64
2, 7680, Note_off_c, 0, 56, 20
2, 7680, Note_on_c, 0, 61, 64
2, 7800, Note_off_c, 0, 61, 51
2, 7800, Note_on_c, 0, 54, 64
2, 7920, Note_off_c, 0, 65, 58
2, 7920, Note_on_c, 0, 63, 64
2, 8040, Note_off_c, 0, 54, 43
2, 8040, Note_on_c, 0, 59, 64
2, 8100, Note_off_c, 0, 63, 49
2, 8100, Note_on_c, 0, 63, 64
2, 8160, Note_off_c, 0, 63, 63
2, 8160, Note_on_c, 0, 65, 64
2, 8220, Note_off_c, 0, 65, 72
2, 8220, Note_on_c, 0, 66, 64
2, 8280, Note_off_c, 0, 66, 58
2, 8280, Note_on_c, 0, 68, 64
2, 8330, Note_off_c, 0, 59, 46
2, 8343, Note_on_c, 0, 59, 64
2, 8403, Note_off_c, 0, 59, 48
2, 8403, Note_on_c, 0, 58, 64
2, 8463, Note_off_c, 0, 68, 70
2, 8463, Note_on_c, 0, 62, 64
2, 8523, Note_off_c, 0, 62, 1
2, 8523, Note_on_c, 0, 65, 64
2, 8583, Note_off_c, 0, 65, 57
2, 8583, Note_on_c, 0, 68, 64
2, 8643, Note_off_c, 0, 68, 66
2, 8643, Note_on_c, 0, 66, 64
2, 8693, Note_off_c, 0, 58, 55
2, 8706, Note_on_c, 0, 58, 64
2, 8766, Note_off_c, 0, 58, 57
2, 8766, Note_on_c, 0, 63, 64
2, 8826, Note_off_c, 0, 66, 57
2, 8826, Note_on_c, 0, 66, 64
2, 8886, Note_off_c, 0, 66, 63
2, 8886, Note_on_c, 0, 68, 64
2, 8946, Note_off_c, 0, 68, 77
2, 8946, Note_on_c, 0, 71, 64
2, 9006, Note_off_c, 0, 71, 57
2, 9006, Note_off_c, 0, 63, 44
2, 9006, Note_on_c, 0, 66, 70
2, 9006, Note_on_c, 0, 62, 64
2, 9028, Note_off_c, 0, 66, 51
2, 9028, Note_on_c, 0, 65, 50
2, 9050, Note_off_c, 0, 65, 6
2, 9050, Note_on_c, 0, 66, 52
2, 9072, Note_off_c, 0, 66, 76
2, 9072, Note_on_c, 0, 65, 54
2, 9094, Note_off_c, 0, 65, 54
2, 9094, Note_on_c, 0, 66, 56
2, 9116, Note_off_c, 0, 66, 65
2, 9116, Note_on_c, 0, 65, 57
2, 9138, Note_off_c, 0, 65, 51
2, 9138, Note_on_c, 0, 66, 59
2, 9160, Note_off_c, 0, 66, 65
2, 9160, Note_on_c, 0, 65, 61
2, 9366, Note_off_c, 0, 65, 58
2, 9366, Note_off_c, 0, 62, 55
2, 9366, Note_on_c, 0, 63, 64
2, 9426, Note_on_c, 0, 65, 64
2, 9486, Note_off_c, 0, 65, 51
2, 9486, Note_off_c, 0, 63, 55
2, 9486, Note_on_c, 0, 66, 64
2, 9546, Note_off_c, 0, 66, 61
2, 9546, Note_on_c, 0, 63, 64
2, 9606, Note_off_c, 0, 63, 63
2, 9606, Note_on_c, 0, 65, 64
2, 9666, Note_off_c, 0, 65, 52
2, 9666, Note_on_c, 0, 68, 64
2, 9726, Note_off_c, 0, 68, 69
2, 9726, Note_on_c, 0, 71, 64
2, 9846, Note_off_c, 0, 71, 77
2, 9846, Note_on_c, 0, 70, 64
2, 9966, Note_off_c, 0, 70, 72
2, 9966, Note_on_c, 0, 68, 64
2, 10086, Note_off_c, 0, 68, 55
2, 10086, Note_on_c, 0, 63, 64
2, 10086, Note_on_c, 0, 66, 64
2, 10146, Note_off_c, 0, 63, 41
2, 10146, Note_on_c, 0, 61, 64
2, 10206, Note_off_c, 0, 61, 36
2, 10206, Note_on_c, 0, 59, 64
2, 10266, Note_off_c, 0, 59, 23
2, 10266, Note_on_c, 0, 63, 64
2, 10326, Note_off_c, 0, 63, 38
2, 10326, Note_on_c, 0, 61, 64
2, 10386, Note_off_c, 0, 61, 46
2, 10386, Note_off_c, 0, 66, 61
2, 10386, Note_on_c, 0, 58, 64
2, 10386, Note_on_c, 0, 68, 64
2, 10446, Note_off_c, 0, 68, 72
2, 10446, Note_off_c, 0, 58, 51
2, 10446, Note_on_c, 0, 55, 64
2, 10446, Note_on_c, 0, 70, 64
2, 10506, Note_off_c, 0, 70, 74
2, 10506, Note_on_c, 0, 71, 64
2, 10566, Note_off_c, 0, 71, 62
2, 10566, Note_off_c, 0, 55, 44
2, 10566, Note_on_c, 0, 56, 64
2, 10566, Note_on_c, 0, 73, 64
2, 10626, Note_off_c, 0, 73, 63
2, 10626, Note_on_c, 0, 70, 64
2, 10686, Note_off_c, 0, 70, 63
2, 10686, Note_off_c, 0, 56, 33
2, 10686, Note_on_c, 0, 58, 64
2, 10686, Note_on_c, 0, 71, 64
2, 10746, Note_off_c, 0, 71, 53
2, 10746, Note_on_c, 0, 73, 64
2, 10806, Note_off_c, 0, 73, 62
2, 10806, Note_on_c, 0, 75, 64
2, 10866, Note_off_c, 0, 75, 54
2, 10866, Note_on_c, 0, 73, 64
2, 10926, Note_off_c, 0, 73, 70
2, 10926, Note_off_c, 0, 58, 51
2, 10926, Note_on_c, 0, 56, 64
2, 10926, Note_on_c, 0, 71, 64
2, 10986, Note_off_c, 0, 71, 58
2, 10986, Note_on_c, 0, 75, 64
2, 11046, Note_off_c, 0, 75, 58
2, 11046, Note_off_c, 0, 56, 46
2, 11046, Note_on_c, 0, 64, 64
2, 11046, Note_on_c, 0, 73, 64
2, 11106, Note_off_c, 0, 73, 70
2, 11106, Note_on_c, 0, 70, 64
2, 11166, Note_off_c, 0, 70, 59
2, 11166, Note_on_c, 0, 67, 64
2, 11286, Note_off_c, 0, 67, 20
2, 11286, Note_off_c, 0, 64, 35
2, 11286, Note_on_c, 0, 63, 64
2, 11286, Note_on_c, 0, 68, 64
2, 11406, Note_off_c, 0, 68, 70
2, 11406, Note_off_c, 0, 63, 48
2, 11406, Note_on_c, 0, 61, 64
2, 11406, Note_on_c, 0, 70, 64
2, 11526, Note_off_c, 0, 70, 65
2, 11526, Note_off_c, 0, 61, 52
2, 11526, Note_on_c, 0, 59, 64
2, 11526, Note_on_c, 0, 71, 64
2, 11586, Note_off_c, 0, 59, 8
2, 11586, Note_on_c, 0, 63, 64
2, 11646, Note_off_c, 0, 63, 25
2, 11646, Note_on_c, 0, 68, 64
2, 11706, Note_off_c, 0, 71, 69
2, 11706, Note_on_c, 0, 70, 64
2, 11766, Note_off_c, 0, 70, 74
2, 11766, Note_on_c, 0, 72, 64
2, 11826, Note_off_c, 0, 72, 79
2, 11826, Note_on_c, 0, 73, 64
2, 11886, Note_off_c, 0, 73, 58
2, 11886, Note_off_c, 0, 68, 66
2, 11886, Note_on_c, 0, 66, 64
2, 11886, Note_on_c, 0, 75, 64
2, 11946, Note_off_c, 0, 66, 55
2, 11946, Note_on_c, 0, 68, 64
2, 12006, Note_off_c, 0, 68, 54
2, 12006, Note_on_c, 0, 69, 64
2, 12066, Note_off_c, 0, 69, 59
2, 12066, Note_on_c, 0, 66, 64
2, 12126, Note_off_c, 0, 66, 73
2, 12126, Note_on_c, 0, 73, 64
2, 12186, Note_off_c, 0, 73, 55
2, 12186, Note_on_c, 0, 72, 64
2, 12246, Note_off_c, 0, 72, 69
2, 12246, Note_off_c, 0, 75, 62
2, 12246, Note_on_c, 0, 73, 64
2, 12306, Note_on_c, 0, 75, 64
2, 12366, Note_off_c, 0, 75, 47
2, 12366, Note_on_c, 0, 76, 64
2, 12426, Note_off_c, 0, 76, 45
2, 12426, Note_on_c, 0, 73, 64
2, 12486, Note_off_c, 0, 73, 49
2, 12486, Note_on_c, 0, 75, 64
2, 12546, Note_off_c, 0, 75, 61
2, 12546, Note_on_c, 0, 78, 64
2, 12606, Note_off_c, 0, 78, 45
2, 12606, Note_off_c, 0, 73, 74
2, 12606, Note_on_c, 0, 72, 64
2, 12606, Note_on_c, 0, 81, 64
2, 12726, Note_off_c, 0, 81, 43
2, 12726, Note_off_c, 0, 72, 66
2, 12726, Note_on_c, 0, 73, 64
2, 12726, Note_on_c, 0, 80, 64
2, 12846, Note_off_c, 0, 80, 72
2, 12846, Note_off_c, 0, 73, 54
2, 12846, Note_on_c, 0, 75, 64
2, 12846, Note_on_c, 0, 78, 64
2, 12966, Note_off_c, 0, 78, 61
2, 12966, Note_on_c, 0, 76, 64
2, 13086, Note_off_c, 0, 75, 49
2, 13086, Note_on_c, 0, 73, 64
2, 13206, Note_off_c, 0, 73, 66
2, 13206, Note_on_c, 0, 71, 64
2, 13326, Note_off_c, 0, 71, 73
2, 13326, Note_on_c, 0, 70, 64
2, 13446, Note_off_c, 0, 76, 50
2, 13446, Note_on_c, 0, 78, 64
2, 13566, Note_off_c, 0, 78, 62
2, 13566, Note_on_c, 0, 76, 64
2, 13686, Note_off_c, 0, 76, 45
2, 13686, Note_on_c, 0, 75, 64
2, 13806, Note_off_c, 0, 70, 46
2, 13806, Note_on_c, 0, 71, 64
2, 13926, Note_off_c, 0, 71, 63
2, 13926, Note_on_c, 0, 70, 64
2, 14046, Note_off_c, 0, 70, 51
2, 14046, Note_on_c, 0, 68, 64
2, 14166, Note_off_c, 0, 75, 52
2, 14166, Note_on_c, 0, 76, 64
2, 14286, Note_off_c, 0, 76, 61
2, 14286, Note_on_c, 0, 75, 64
2, 14406, Note_off_c, 0, 75, 54
2, 14406, Note_on_c, 0, 73, 64
2, 14526, Note_off_c, 0, 68, 57
2, 14526, Note_on_c, 0, 70, 64
2, 14646, Note_off_c, 0, 70, 54
2, 14646, Note_on_c, 0, 68, 64
2, 14766, Note_off_c, 0, 68, 51
2, 14766, Note_on_c, 0, 67, 64
2, 14886, Note_off_c, 0, 73, 61
2, 14886, Note_on_c, 0, 75, 64
2, 15006, Note_off_c, 0, 75, 61
2, 15006, Note_on_c, 0, 73, 64
2, 15126, Note_off_c, 0, 73, 58
2, 15126, Note_off_c, 0, 67, 49
2, 15126, Note_on_c, 0, 68, 64
2, 15126, Note_on_c, 0, 71, 64
2, 15186, Note_off_c, 0, 71, 79
2, 15186, Note_on_c, 0, 70, 64
2, 15246, Note_off_c, 0, 70, 63
2, 15246, Note_off_c, 0, 68, 69
2, 15246, Note_on_c, 0, 68, 64
2, 15306, Note_off_c, 0, 68, 79
2, 15306, Note_on_c, 0, 71, 64
2, 15366, Note_off_c, 0, 71, 65
2, 15366, Note_on_c, 0, 73, 64
2, 15426, Note_off_c, 0, 73, 68
2, 15426, Note_on_c, 0, 76, 64
2, 15486, Note_off_c, 0, 76, 43
2, 15486, Note_on_c, 0, 70, 64
2, 15546, Note_off_c, 0, 70, 66
2, 15546, Note_on_c, 0, 68, 64
2, 15606, Note_off_c, 0, 68, 72
2, 15606, Note_on_c, 0, 66, 64
2, 15666, Note_off_c, 0, 66, 72
2, 15666, Note_on_c, 0, 70, 64
2, 15726, Note_off_c, 0, 70, 49
2, 15726, Note_on_c, 0, 71, 64
2, 15786, Note_off_c, 0, 71, 49
2, 15786, Note_on_c, 0, 75, 64
2, 15846, Note_off_c, 0, 75, 46
2, 15846, Note_on_c, 0, 68, 64
2, 15906, Note_off_c, 0, 68, 63
2, 15906, Note_on_c, 0, 75, 64
2, 15966, Note_off_c, 0, 75, 54
2, 15966, Note_on_c, 0, 73, 64
2, 16026, Note_off_c, 0, 73, 50
2, 16026, Note_on_c, 0, 71, 64
2, 16086, Note_off_c, 0, 71, 69
2, 16086, Note_on_c, 0, 70, 64
2, 16146, Note_off_c, 0, 70, 65
2, 16146, Note_on_c, 0, 68, 64
2, 16206, Note_off_c, 0, 68, 63
2, 16206, Note_on_c, 0, 67, 64
2, 16266, Note_off_c, 0, 67, 37
2, 16266, Note_on_c, 0, 68, 64
2, 16326, Note_off_c, 0, 68, 54
2, 16326, Note_on_c, 0, 70, 64
2, 16386, Note_off_c, 0, 70, 65
2, 16386, Note_on_c, 0, 67, 64
2, 16446, Note_off_c, 0, 67, 32
2, 16446, Note_on_c, 0, 68, 64
2, 16506, Note_on_c, 0, 71, 64
2, 16566, Note_off_c, 0, 71, 72
2, 16566, Note_on_c, 0, 76, 64
2, 16676, Note_off_c, 0, 76, 49
2, 16689, Note_off_c, 0, 68, 66
2, 16689, Note_on_c, 0, 68, 64
2, 16689, Note_on_c, 0, 76, 64
2, 16799, Note_off_c, 0, 76, 44
2, 16799, Note_off_c, 0, 68, 80
2, 16812, Note_on_c, 0, 68, 64
2, 16812, Note_on_c, 0, 76, 64
2, 16922, Note_off_c, 0, 76, 45
2, 16922, Note_off_c, 0, 68, 79
2, 16935, Note_on_c, 0, 73, 64
2, 16935, Note_on_c, 0, 76, 64
2, 17045, Note_off_c, 0, 76, 47
2, 17045, Note_off_c, 0, 73, 62
2, 17058, Note_on_c, 0, 73, 64
2, 17058, Note_on_c, 0, 76, 64
2, 17168, Note_off_c, 0, 76, 48
2, 17168, Note_off_c, 0, 73, 70
2, 17181, Note_on_c, 0, 73, 64
2, 17181, Note_on_c, 0, 76, 64
2, 17291, Note_off_c, 0, 76, 42
2, 17291, Note_off_c, 0, 73, 70
2, 17304, Note_on_c, 0, 73, 64
2, 17304, Note_on_c, 0, 76, 64
2, 17364, Note_off_c, 0, 73, 68
2, 17364, Note_on_c, 0, 71, 64
2, 17424, Note_off_c, 0, 71, 69
2, 17424, Note_on_c, 0, 70, 64
2, 17484, Note_off_c, 0, 70, 62
2, 17484, Note_on_c, 0, 73, 64
2, 17544, Note_off_c, 0, 73, 62
2, 17544, Note_on_c, 0, 71, 64
2, 17604, Note_off_c, 0, 71, 79
2, 17604, Note_on_c, 0, 68, 64
2, 17664, Note_off_c, 0, 68, 76
2, 17664, Note_on_c, 0, 70, 64
2, 17724, Note_off_c, 0, 76, 39
2, 17724, Note_on_c, 0, 75, 64
2, 17784, Note_off_c, 0, 75, 42
2, 17784, Note_on_c, 0, 73, 64
2, 17844, Note_off_c, 0, 73, 62
2, 17844, Note_on_c, 0, 82, 64
2, 17904, Note_off_c, 0, 82, 48
2, 17904, Note_on_c, 0, 76, 64
2, 17964, Note_off_c, 0, 76, 47
2, 17964, Note_on_c, 0, 73, 64
2, 18024, Note_off_c, 0, 73, 47
2, 18024, Note_on_c, 0, 75, 64
2, 18084, Note_off_c, 0, 75, 34
2, 18084, Note_on_c, 0, 73, 64
2, 18144, Note_off_c, 0, 73, 33
2, 18144, Note_off_c, 0, 70, 69
2, 18144, Note_on_c, 0, 68, 64
2, 18144, Note_on_c, 0, 71, 64
2, 18204, Note_off_c, 0, 71, 43
2, 18204, Note_on_c, 0, 75, 64
2, 18264, Note_off_c, 0, 75, 38
2, 18264, Note_on_c, 0, 73, 64
2, 18324, Note_off_c, 0, 73, 74
2, 18324, Note_on_c, 0, 70, 64
2, 18384, Note_off_c, 0, 70, 52
2, 18384, Note_off_c, 0, 68, 73
2, 18384, Note_on_c, 0, 71, 64
2, 18444, Note_off_c, 0, 71, 77
2, 18444, Note_on_c, 0, 70, 64
2, 18504, Note_off_c, 0, 70, 54
2, 18504, Note_on_c, 0, 68, 64
2, 18564, Note_off_c, 0, 68, 61
2, 18564, Note_on_c, 0, 71, 64
2, 18624, Note_off_c, 0, 71, 69
2, 18624, Note_on_c, 0, 70, 64
2, 18684, Note_off_c, 0, 70, 46
2, 18684, Note_on_c, 0, 67, 64
2, 18744, Note_off_c, 0, 67, 49
2, 18744, Note_on_c, 0, 68, 64
2, 18864, Note_on_c, 0, 66, 64
2, 18984, Note_off_c, 0, 66, 62
2, 18984, Note_on_c, 0, 63, 64
2, 19104, Note_off_c, 0, 63, 30
2, 19104, Note_on_c, 0, 61, 64
2, 19164, Note_off_c, 0, 61, 53
2, 19164, Note_on_c, 0, 60, 64
2, 19224, Note_off_c, 0, 60, 22
2, 19224, Note_on_c, 0, 61, 64
2, 19284, Note_off_c, 0, 61, 59
2, 19284, Note_on_c, 0, 63, 64
2, 19344, Note_off_c, 0, 63, 49
2, 19344, Note_on_c, 0, 64, 64
2, 19404, Note_off_c, 0, 64, 57
2, 19404, Note_on_c, 0, 66, 64
2, 19464, Note_off_c, 0, 66, 66
2, 19464, Note_on_c, 0, 64, 64
2, 19524, Note_off_c, 0, 64, 41
2, 19524, Note_on_c, 0, 63, 64
2, 19584, Note_off_c, 0, 63, 37
2, 19584, Note_on_c, 0, 61, 64
2, 19644, Note_off_c, 0, 61, 49
2, 19644, Note_on_c, 0, 64, 64
2, 19704, Note_off_c, 0, 64, 43
2, 19704, Note_on_c, 0, 63, 64
2, 19764, Note_off_c, 0, 63, 37
2, 19764, Note_on_c, 0, 58, 64
2, 19824, Note_off_c, 0, 58, 44
2, 19884, Note_on_c, 0, 64, 64
2, 19944, Note_off_c, 0, 64, 61
2, 19944, Note_on_c, 0, 63, 64
2, 20004, Note_off_c, 0, 63, 43
2, 20004, Note_on_c, 0, 61, 64
2, 20064, Note_off_c, 0, 61, 54
2, 20064, Note_on_c, 0, 60, 64
2, 20124, Note_off_c, 0, 60, 40
2, 20124, Note_on_c, 0, 61, 64
2, 20184, Note_off_c, 0, 61, 53
2, 20184, Note_on_c, 0, 63, 64
2, 20904, Note_off_c, 0, 68, 69
2, 20904, Note_off_c, 0, 63, 63
2, 20904, End_track
3, 0, Start_track
3, 0, Text_t, "LH B"
3, 0, Note_on_c, 1, 56, 64
3, 0, Note_on_c, 1, 59, 64
3, 120, Note_off_c, 1, 59, 28
3, 120, Note_on_c, 1, 63, 64
3, 240, Note_off_c, 1, 63, 30
3, 240, Note_on_c, 1, 61, 64
3, 360, Note_off_c, 1, 56, 61
3, 360, Note_on_c, 1, 55, 64
3, 480, Note_off_c, 1, 61, 54
3, 480, Note_on_c, 1, 59, 64
3, 600, Note_off_c, 1, 59, 46
3, 600, Note_on_c, 1, 58, 64
3, 720, Note_off_c, 1, 58, 52
3, 720, Note_off_c, 1, 55, 65
3, 720, Note_on_c, 1, 56, 64
3, 780, Note_off_c, 1, 56, 61
3, 780, Note_on_c, 1, 58, 64
3, 840, Note_off_c, 1, 58, 46
3, 840, Note_on_c, 1, 59, 64
3, 900, Note_off_c, 1, 59, 61
3, 900, Note_on_c, 1, 56, 64
3, 960, Note_off_c, 1, 56, 49
3, 960, Note_on_c, 1, 58, 64
3, 1020, Note_off_c, 1, 58, 76
3, 1020, Note_on_c, 1, 61, 64
3, 1080, Note_off_c, 1, 61, 69
3, 1080, Note_on_c, 1, 64, 64
3, 1200, Note_off_c, 1, 64, 18
3, 1200, Note_on_c, 1, 63, 64
3, 1320, Note_on_c, 1, 61, 64
3, 1440, Note_off_c, 1, 61, 62
3, 1440, Note_on_c, 1, 59, 64
3, 1560, Note_off_c, 1, 63, 42
3, 1560, Note_on_c, 1, 68, 64
3, 1680, Note_off_c, 1, 68, 62
3, 1680, Note_on_c, 1, 61, 64
3, 1800, Note_off_c, 1, 59, 58
3, 1800, Note_on_c, 1, 58, 64
3, 1920, Note_off_c, 1, 61, 57
3, 1920, Note_on_c, 1, 66, 64
3, 2040, Note_off_c, 1, 66, 2
3, 2040, Note_on_c, 1, 59, 64
3, 2160, Note_off_c, 1, 58, 57
3, 2160, Note_on_c, 1, 56, 64
3, 2280, Note_off_c, 1, 59, 55
3, 2280, Note_on_c, 1, 64, 64
3, 2400, Note_off_c, 1, 56, 35
3, 2400, Note_on_c, 1, 52, 64
3, 2520, Note_off_c, 1, 52, 43
3, 2520, Note_on_c, 1, 54, 64
3, 2640, Note_off_c, 1, 54, 47
3, 2640, Note_off_c, 1, 64, 55
3, 2640, Note_on_c, 1, 56, 64
3, 2640, Note_on_c, 1, 63, 64
3, 2760, Note_off_c, 1, 63, 52
3, 2760, Note_off_c, 1, 56, 54
3, 2760, Note_on_c, 1, 58, 64
3, 2760, Note_on_c, 1, 61, 64
3, 2880, Note_off_c, 1, 61, 59
3, 2880, Note_off_c, 1, 58, 52
3, 2880, Note_on_c, 1, 59, 64
3, 2940, Note_on_c, 1, 61, 64
3, 3000, Note_off_c, 1, 61, 62
3, 3000, Note_off_c, 1, 59, 51
3, 3000, Note_on_c, 1, 63, 64
3, 3060, Note_off_c, 1, 63, 49
3, 3060, Note_on_c, 1, 59, 64
3, 3120, Note_off_c, 1, 59, 36
3, 3120, Note_on_c, 1, 61, 64
3, 3180, Note_off_c, 1, 61, 49
3, 3180, Note_on_c, 1, 64, 64
3, 3240, Note_off_c, 1, 64, 58
3, 3240, Note_on_c, 1, 68, 64
3, 3360, Note_off_c, 1, 68, 68
3, 3360, Note_on_c, 1, 66, 64
3, 3480, Note_off_c, 1, 66, 66
3, 3480, Note_on_c, 1, 64, 64
3, 3600, Note_off_c, 1, 64, 43
3, 3600, Note_on_c, 1, 47, 64
3, 3660, Note_off_c, 1, 47, 33
3, 3660, Note_on_c, 1, 49, 64
3, 3720, Note_off_c, 1, 49, 68
3, 3720, Note_on_c, 1, 51, 64
3, 3780, Note_off_c, 1, 51, 59
3, 3780, Note_on_c, 1, 47, 64
3, 3840, Note_off_c, 1, 47, 49
3, 3840, Note_on_c, 1, 49, 64
3, 3900, Note_off_c, 1, 49, 63
3, 3900, Note_on_c, 1, 52, 64
3, 3960, Note_off_c, 1, 52, 76
3, 3960, Note_on_c, 1, 56, 64
3, 4080, Note_off_c, 1, 56, 61
3, 4080, Note_on_c, 1, 54, 64
3, 4200, Note_off_c, 1, 54, 61
3, 4200, Note_on_c, 1, 52, 64
3, 4320, Note_off_c, 1, 52, 65
3, 4320, Note_on_c, 1, 51, 64
3, 4380, Note_off_c, 1, 51, 54
3, 4380, Note_on_c, 1, 52, 64
3, 4440, Note_off_c, 1, 52, 39
3, 4440, Note_on_c, 1, 54, 64
3, 4500, Note_off_c, 1, 54, 54
3, 4500, Note_on_c, 1, 51, 64
3, 4560, Note_off_c, 1, 51, 53
3, 4560, Note_on_c, 1, 53, 64
3, 4620, Note_off_c, 1, 53, 35
3, 4620, Note_on_c, 1, 56, 64
3, 4680, Note_off_c, 1, 56, 65
3, 4680, Note_on_c, 1, 59, 64
3, 4800, Note_off_c, 1, 59, 23
3, 4800, Note_on_c, 1, 57, 64
3, 4920, Note_off_c, 1, 57, 46
3, 4920, Note_on_c, 1, 56, 64
3, 5040, Note_off_c, 1, 56, 49
3, 5040, Note_on_c, 1, 54, 64
3, 5450, Note_off_c, 1, 54, 49
3, 5463, Note_on_c, 1, 54, 64
3, 5523, Note_off_c, 1, 54, 59
3, 5523, Note_on_c, 1, 52, 64
3, 5583, Note_off_c, 1, 52, 63
3, 5583, Note_on_c, 1, 51, 64
3, 5643, Note_off_c, 1, 51, 54
3, 5643, Note_on_c, 1, 49, 64
3, 5703, Note_off_c, 1, 49, 53
3, 5703, Note_on_c, 1, 48, 64
3, 5763, Note_off_c, 1, 48, 29
3, 5763, Note_on_c, 1, 49, 64
3, 6123, Note_off_c, 1, 49, 66
3, 6123, Note_on_c, 1, 43, 64
3, 6183, Note_off_c, 1, 43, 57
3, 6183, Note_on_c, 1, 61, 64
3, 6243, Note_off_c, 1, 61, 57
3, 6243, Note_on_c, 1, 59, 64
3, 6303, Note_off_c, 1, 59, 52
3, 6303, Note_on_c, 1, 58, 64
3, 6363, Note_off_c, 1, 58, 53
3, 6363, Note_on_c, 1, 56, 64
3, 6423, Note_off_c, 1, 56, 52
3, 6423, Note_on_c, 1, 55, 64
3, 6483, Note_off_c, 1, 55, 61
3, 6483, Note_on_c, 1, 56, 64
3, 6893, Note_off_c, 1, 56, 54
3, 6906, Note_on_c, 1, 56, 64
3, 6966, Note_off_c, 1, 56, 52
3, 6966, Note_on_c, 1, 54, 64
3, 7026, Note_off_c, 1, 54, 41
3, 7026, Note_on_c, 1, 53, 64
3, 7086, Note_off_c, 1, 53, 61
3, 7086, Note_on_c, 1, 51, 64
3, 7146, Note_off_c, 1, 51, 44
3, 7146, Note_on_c, 1, 50, 64
3, 7206, Note_off_c, 1, 50, 41
3, 7206, Note_on_c, 1, 51, 64
3, 7266, Note_off_c, 1, 51, 65
3, 7266, Note_on_c, 1, 53, 64
3, 7326, Note_off_c, 1, 53, 55
3, 7326, Note_on_c, 1, 54, 64
3, 7386, Note_off_c, 1, 54, 62
3, 7386, Note_on_c, 1, 46, 64
3, 7446, Note_off_c, 1, 46, 55
3, 7446, Note_on_c, 1, 47, 64
3, 7506, Note_off_c, 1, 47, 29
3, 7506, Note_on_c, 1, 51, 64
3, 7566, Note_off_c, 1, 51, 50
3, 7566, Note_on_c, 1, 49, 64
3, 7626, Note_off_c, 1, 49, 62
3, 7626, Note_on_c, 1, 51, 64
3, 7686, Note_off_c, 1, 51, 31
3, 7686, Note_on_c, 1, 53, 64
3, 7746, Note_off_c, 1, 53, 52
3, 7746, Note_on_c, 1, 44, 64
3, 7806, Note_off_c, 1, 44, 46
3, 7806, Note_on_c, 1, 46, 64
3, 7866, Note_off_c, 1, 46, 44
3, 7866, Note_on_c, 1, 49, 64
3, 7926, Note_off_c, 1, 49, 52
3, 7926, Note_on_c, 1, 47, 64
3, 7986, Note_off_c, 1, 47, 48
3, 7986, Note_on_c, 1, 49, 64
3, 8046, Note_off_c, 1, 49, 35
3, 8046, Note_on_c, 1, 51, 64
3, 8106, Note_off_c, 1, 51, 66
3, 8106, Note_on_c, 1, 42, 64
3, 8166, Note_off_c, 1, 42, 45
3, 8166, Note_on_c, 1, 44, 64
3, 8226, Note_off_c, 1, 44, 51
3, 8226, Note_on_c, 1, 47, 64
3, 8286, Note_off_c, 1, 47, 61
3, 8286, Note_on_c, 1, 38, 64
3, 8406, Note_off_c, 1, 38, 23
3, 8406, Note_on_c, 1, 50, 64
3, 8526, Note_off_c, 1, 50, 44
3, 8526, Note_on_c, 1, 46, 64
3, 8646, Note_off_c, 1, 46, 63
3, 8646, Note_on_c, 1, 51, 64
3, 8706, Note_off_c, 1, 51, 52
3, 8706, Note_on_c, 1, 53, 64
3, 8766, Note_off_c, 1, 53, 52
3, 8766, Note_on_c, 1, 54, 64
3, 8826, Note_off_c, 1, 54, 51
3, 8826, Note_on_c, 1, 51, 64
3, 8886, Note_off_c, 1, 51, 57
3, 8886, Note_on_c, 1, 53, 64
3, 8946, Note_off_c, 1, 53, 50
3, 8946, Note_on_c, 1, 56, 64
3, 9006, Note_off_c, 1, 56, 59
3, 9006, Note_on_c, 1, 59, 64
3, 9126, Note_off_c, 1, 59, 38
3, 9126, Note_on_c, 1, 58, 64
3, 9246, Note_off_c, 1, 58, 54
3, 9246, Note_on_c, 1, 56, 64
3, 9366, Note_off_c, 1, 56, 53
3, 9366, Note_on_c, 1, 54, 64
3, 9426, Note_off_c, 1, 54, 53
3, 9426, Note_on_c, 1, 56, 64
3, 9486, Note_off_c, 1, 56, 46
3, 9486, Note_on_c, 1, 58, 64
3, 9546, Note_off_c, 1, 58, 52
3, 9546, Note_on_c, 1, 54, 64
3, 9606, Note_off_c, 1, 54, 50
3, 9606, Note_on_c, 1, 56, 64
3, 9666, Note_off_c, 1, 56, 53
3, 9666, Note_on_c, 1, 59, 64
3, 9726, Note_off_c, 1, 59, 57
3, 9726, Note_on_c, 1, 50, 64
3, 9786, Note_off_c, 1, 50, 38
3, 9786, Note_on_c, 1, 51, 64
3, 9846, Note_off_c, 1, 51, 48
3, 9846, Note_on_c, 1, 53, 64
3, 9906, Note_off_c, 1, 53, 49
3, 9906, Note_on_c, 1, 46, 64
3, 9966, Note_off_c, 1, 46, 37
3, 9966, Note_on_c, 1, 50, 64
3, 10026, Note_off_c, 1, 50, 62
3, 10026, Note_on_c, 1, 53, 64
3, 10086, Note_off_c, 1, 53, 70
3, 10086, Note_on_c, 1, 51, 64
3, 10446, Note_off_c, 1, 51, 66
3, 10446, Note_on_c, 1, 49, 64
3, 10806, Note_off_c, 1, 49, 62
3, 10806, Note_on_c, 1, 47, 64
3, 11166, Note_off_c, 1, 47, 29
3, 11166, Note_on_c, 1, 46, 64
3, 11226, Note_off_c, 1, 46, 61
3, 11226, Note_on_c, 1, 49, 64
3, 11286, Note_off_c, 1, 49, 68
3, 11286, Note_on_c, 1, 47, 64
3, 11346, Note_off_c, 1, 47, 55
3, 11346, Note_on_c, 1, 46, 64
3, 11406, Note_off_c, 1, 46, 51
3, 11406, Note_on_c, 1, 44, 64
3, 11466, Note_off_c, 1, 44, 57
3, 11466, Note_on_c, 1, 43, 64
3, 11526, Note_off_c, 1, 43, 54
3, 11526, Note_on_c, 1, 44, 64
3, 11586, Note_off_c, 1, 44, 52
3, 11586, Note_on_c, 1, 42, 64
3, 11646, Note_off_c, 1, 42, 49
3, 11646, Note_on_c, 1, 40, 64
3, 11706, Note_off_c, 1, 40, 31
3, 11706, Note_on_c, 1, 44, 64
3, 11766, Note_off_c, 1, 44, 48
3, 11766, Note_on_c, 1, 42, 64
3, 11826, Note_off_c, 1, 42, 73
3, 11826, Note_on_c, 1, 39, 64
3, 11886, Note_off_c, 1, 39, 47
3, 11886, Note_on_c, 1, 36, 64
3, 12006, Note_off_c, 1, 36, 23
3, 12006, Note_on_c, 1, 37, 64
3, 12126, Note_off_c, 1, 37, 48
3, 12126, Note_on_c, 1, 39, 64
3, 12246, Note_off_c, 1, 39, 53
3, 12246, Note_on_c, 1, 40, 64
3, 12306, Note_off_c, 1, 40, 49
3, 12306, Note_on_c, 1, 42, 64
3, 12366, Note_off_c, 1, 42, 13
3, 12366, Note_on_c, 1, 44, 64
3, 12426, Note_off_c, 1, 44, 48
3, 12426, Note_on_c, 1, 40, 64
3, 12486, Note_off_c, 1, 40, 44
3, 12486, Note_on_c, 1, 42, 64
3, 12546, Note_off_c, 1, 42, 52
3, 12546, Note_on_c, 1, 45, 64
3, 12606, Note_off_c, 1, 45, 38
3, 12606, Note_on_c, 1, 39, 64
3, 12666, Note_off_c, 1, 39, 47
3, 12666, Note_on_c, 1, 40, 64
3, 12726, Note_off_c, 1, 40, 29
3, 12726, Note_on_c, 1, 42, 64
3, 12786, Note_off_c, 1, 42, 25
3, 12786, Note_on_c, 1, 44, 64
3, 12846, Note_off_c, 1, 44, 68
3, 12846, Note_on_c, 1, 46, 64
3, 12906, Note_off_c, 1, 46, 73
3, 12906, Note_on_c, 1, 48, 64
3, 12966, Note_off_c, 1, 48, 61
3, 12966, Note_on_c, 1, 49, 64
3, 13026, Note_off_c, 1, 49, 57
3, 13026, Note_on_c, 1, 51, 64
3, 13086, Note_off_c, 1, 51, 50
3, 13086, Note_on_c, 1, 52, 64
3, 13146, Note_off_c, 1, 52, 63
3, 13146, Note_on_c, 1, 49, 64
3, 13206, Note_off_c, 1, 49, 73
3, 13206, Note_on_c, 1, 52, 64
3, 13266, Note_off_c, 1, 52, 52
3, 13266, Note_on_c, 1, 56, 64
3, 13326, Note_off_c, 1, 56, 63
3, 13326, Note_on_c, 1, 54, 64
3, 13386, Note_off_c, 1, 54, 49
3, 13386, Note_on_c, 1, 56, 64
3, 13446, Note_off_c, 1, 56, 37
3, 13446, Note_on_c, 1, 58, 64
3, 13506, Note_off_c, 1, 58, 58
3, 13506, Note_on_c, 1, 54, 64
3, 13566, Note_off_c, 1, 54, 46
3, 13566, Note_on_c, 1, 58, 64
3, 13626, Note_off_c, 1, 58, 73
3, 13626, Note_on_c, 1, 61, 64
3, 13686, Note_off_c, 1, 61, 61
3, 13686, Note_on_c, 1, 47, 64
3, 13746, Note_off_c, 1, 47, 36
3, 13746, Note_on_c, 1, 49, 64
3, 13806, Note_off_c, 1, 49, 58
3, 13806, Note_on_c, 1, 51, 64
3, 13866, Note_off_c, 1, 51, 62
3, 13866, Note_on_c, 1, 47, 64
3, 13926, Note_off_c, 1, 47, 39
3, 13926, Note_on_c, 1, 51, 64
3, 13986, Note_off_c, 1, 51, 50
3, 13986, Note_on_c, 1, 54, 64
3, 14046, Note_off_c, 1, 54, 66
3, 14046, Note_on_c, 1, 52, 64
3, 14106, Note_off_c, 1, 52, 44
3, 14106, Note_on_c, 1, 54, 64
3, 14166, Note_off_c, 1, 54, 49
3, 14166, Note_on_c, 1, 56, 64
3, 14226, Note_off_c, 1, 56, 61
3, 14226, Note_on_c, 1, 52, 64
3, 14286, Note_off_c, 1, 52, 50
3, 14286, Note_on_c, 1, 56, 64
3, 14346, Note_off_c, 1, 56, 49
3, 14346, Note_on_c, 1, 59, 64
3, 14406, Note_off_c, 1, 59, 66
3, 14406, Note_on_c, 1, 46, 64
3, 14466, Note_off_c, 1, 46, 45
3, 14466, Note_on_c, 1, 47, 64
3, 14526, Note_off_c, 1, 47, 50
3, 14526, Note_on_c, 1, 49, 64
3, 14586, Note_off_c, 1, 49, 63
3, 14586, Note_on_c, 1, 46, 64
3, 14646, Note_off_c, 1, 46, 57
3, 14646, Note_on_c, 1, 49, 64
3, 14706, Note_off_c, 1, 49, 54
3, 14706, Note_on_c, 1, 52, 64
3, 14766, Note_off_c, 1, 52, 46
3, 14766, Note_on_c, 1, 51, 64
3, 14826, Note_off_c, 1, 51, 72
3, 14826, Note_on_c, 1, 53, 64
3, 14886, Note_off_c, 1, 53, 61
3, 14886, Note_on_c, 1, 55, 64
3, 14946, Note_off_c, 1, 55, 63
3, 14946, Note_on_c, 1, 51, 64
3, 15006, Note_off_c, 1, 51, 37
3, 15006, Note_on_c, 1, 55, 64
3, 15066, Note_off_c, 1, 55, 49
3, 15066, Note_on_c, 1, 58, 64
3, 15126, Note_off_c, 1, 58, 50
3, 15126, Note_on_c, 1, 56, 64
3, 15186, Note_off_c, 1, 56, 49
3, 15186, Note_on_c, 1, 58, 64
3, 15246, Note_off_c, 1, 58, 55
3, 15246, Note_on_c, 1, 59, 64
3, 15306, Note_off_c, 1, 59, 46
3, 15306, Note_on_c, 1, 51, 64
3, 15366, Note_off_c, 1, 51, 34
3, 15366, Note_on_c, 1, 52, 64
3, 15426, Note_off_c, 1, 52, 40
3, 15426, Note_on_c, 1, 56, 64
3, 15486, Note_off_c, 1, 56, 52
3, 15486, Note_on_c, 1, 54, 64
3, 15546, Note_off_c, 1, 54, 46
3, 15546, Note_on_c, 1, 56, 64
3, 15606, Note_off_c, 1, 56, 35
3, 15606, Note_on_c, 1, 58, 64
3, 15666, Note_off_c, 1, 58, 58
3, 15666, Note_on_c, 1, 49, 64
3, 15726, Note_off_c, 1, 49, 35
3, 15726, Note_on_c, 1, 51, 64
3, 15786, Note_off_c, 1, 51, 49
3, 15786, Note_on_c, 1, 54, 64
3, 15846, Note_off_c, 1, 54, 51
3, 15846, Note_on_c, 1, 52, 64
3, 15906, Note_off_c, 1, 52, 40
3, 15906, Note_on_c, 1, 54, 64
3, 15966, Note_off_c, 1, 54, 42
3, 15966, Note_on_c, 1, 56, 64
3, 16026, Note_off_c, 1, 56, 52
3, 16026, Note_on_c, 1, 47, 64
3, 16086, Note_off_c, 1, 47, 38
3, 16086, Note_on_c, 1, 49, 64
3, 16146, Note_off_c, 1, 49, 54
3, 16146, Note_on_c, 1, 52, 64
3, 16206, Note_off_c, 1, 52, 68
3, 16206, Note_on_c, 1, 51, 64
3, 16266, Note_off_c, 1, 51, 33
3, 16266, Note_on_c, 1, 53, 64
3, 16326, Note_off_c, 1, 53, 45
3, 16326, Note_on_c, 1, 55, 64
3, 16386, Note_off_c, 1, 55, 70
3, 16386, Note_on_c, 1, 46, 64
3, 16446, Note_off_c, 1, 46, 41
3, 16446, Note_on_c, 1, 47, 64
3, 16506, Note_off_c, 1, 47, 29
3, 16506, Note_on_c, 1, 51, 64
3, 16566, Note_off_c, 1, 51, 36
3, 16566, Note_on_c, 1, 49, 64
3, 16626, Note_off_c, 1, 49, 46
3, 16626, Note_on_c, 1, 51, 64
3, 16686, Note_off_c, 1, 51, 34
3, 16686, Note_on_c, 1, 52, 64
3, 16746, Note_off_c, 1, 52, 55
3, 16746, Note_on_c, 1, 47, 64
3, 16806, Note_off_c, 1, 47, 29
3, 16806, Note_on_c, 1, 49, 64
3, 16866, Note_off_c, 1, 49, 43
3, 16866, Note_on_c, 1, 52, 64
3, 16926, Note_off_c, 1, 52, 58
3, 16926, Note_on_c, 1, 45, 64
3, 16986, Note_off_c, 1, 45, 30
3, 16986, Note_on_c, 1, 49, 64
3, 17046, Note_off_c, 1, 49, 51
3, 17046, Note_on_c, 1, 52, 64
3, 17106, Note_off_c, 1, 52, 52
3, 17106, Note_on_c, 1, 44, 64
3, 17166, Note_off_c, 1, 44, 42
3, 17166, Note_on_c, 1, 49, 64
3, 17226, Note_off_c, 1, 49, 45
3, 17226, Note_on_c, 1, 52, 64
3, 17286, Note_off_c, 1, 52, 30
3, 17286, Note_on_c, 1, 43, 64
3, 17826, Note_off_c, 1, 43, 31
3, 17826, Note_on_c, 1, 55, 64
3, 17886, Note_off_c, 1, 55, 27
3, 17886, Note_on_c, 1, 56, 64
3, 17946, Note_off_c, 1, 56, 54
3, 17946, Note_on_c, 1, 58, 64
3, 18006, Note_off_c, 1, 58, 58
3, 18006, Note_on_c, 1, 47, 64
3, 18246, Note_off_c, 1, 47, 25
3, 18246, Note_on_c, 1, 52, 64
3, 18366, Note_off_c, 1, 52, 42
3, 18366, Note_on_c, 1, 49, 64
3, 18486, Note_off_c, 1, 49, 61
3, 18486, Note_on_c, 1, 51, 64
3, 18606, Note_off_c, 1, 51, 73
3, 18606, Note_on_c, 1, 39, 64
3, 18726, Note_off_c, 1, 39, 36
3, 18726, Note_on_c, 1, 44, 64
3, 18786, Note_off_c, 1, 44, 49
3, 18786, Note_on_c, 1, 46, 64
3, 18846, Note_off_c, 1, 46, 47
3, 18846, Note_on_c, 1, 48, 64
3, 18906, Note_off_c, 1, 48, 70
3, 18906, Note_on_c, 1, 44, 64
3, 18966, Note_off_c, 1, 44, 43
3, 18966, Note_on_c, 1, 48, 64
3, 19026, Note_off_c, 1, 48, 53
3, 19026, Note_on_c, 1, 51, 64
3, 19086, Note_off_c, 1, 51, 58
3, 19086, Note_on_c, 1, 54, 64
3, 19206, Note_off_c, 1, 54, 49
3, 19206, Note_on_c, 1, 52, 64
3, 19326, Note_off_c, 1, 52, 68
3, 19326, Note_on_c, 1, 51, 64
3, 19446, Note_off_c, 1, 51, 18
3, 19446, Note_on_c, 1, 49, 64
3, 19806, Note_on_c, 1, 55, 64
3, 19926, Note_off_c, 1, 55, 46
3, 19926, Note_on_c, 1, 56, 64
3, 20046, Note_off_c, 1, 56, 46
3, 20046, Note_on_c, 1, 58, 64
3, 20166, Note_off_c, 1, 58, 62
3, 20166, Note_off_c, 1, 49, 58
3, 20166, Note_on_c, 1, 60, 64
3, 20166, Note_on_c, 1, 44, 64
3, 20886, Note_off_c, 1, 44, 52
3, 20886, Note_off_c, 1, 60, 64
3, 20886, End_track
0, 0, End_of_file
