0, 0, Header, 1, 3, 240
1, 0, Start_track
1, 0, Time_signature, 4, 2, 24, 8
1, 0, Tempo, 612245
1, 25440, Tempo, 625000
1, 25680, Tempo, 638298
1, 25800, Tempo, 902490
1, 25920, Tempo, 545455
1, 31200, Tempo, 555556
1, 31440, Tempo, 582524
1, 31560, Tempo, 618557
1, 31680, Tempo, 2307692
1, 31800, Tempo, 1333333
1, 31920, Tempo, 1276596
1, 32040, Tempo, 1500000
1, 32160, Tempo, 1764706
1, 32220, Tempo, 2727273
1, 32280, Tempo, 1200000
1, 32484, Tempo, 1304348
1, 32520, Tempo, 1500000
1, 32580, Tempo, 1666667
1, 32640, Tempo, 800000
1, 32880, Tempo, 855949
1, 33120, Tempo, 645161
1, 33336, Tempo, 631579
1, 35640, Tempo, 652174
1, 35760, Tempo, 878426
1, 35880, Tempo, 910894
1, 36000, Tempo, 740741
1, 36060, Tempo, 779221
1, 36120, Tempo, 810811
1, 36180, Tempo, 909091
1, 36240, Tempo, 1000000
1, 36480, Tempo, 1090909
1, 36960, Tempo, 631579
1, 36960, End_track
2, 0, Start_track
2, 0, Text_t, "RH B"
2, 0, Note_on_c, 0, 72, 64
2, 60, Note_off_c, 0, 72, 65
2, 60, Note_on_c, 0, 63, 64
2, 120, Note_off_c, 0, 63, 69
2, 120, Note_on_c, 0, 62, 64
2, 180, Note_off_c, 0, 62, 52
2, 180, Note_on_c, 0, 63, 64
2, 240, Note_off_c, 0, 63, 69
2, 240, Note_on_c, 0, 60, 64
2, 300, Note_off_c, 0, 60, 50
2, 300, Note_on_c, 0, 63, 64
2, 360, Note_off_c, 0, 63, 68
2, 360, Note_on_c, 0, 62, 64
2, 420, Note_off_c, 0, 62, 19
2, 420, Note_on_c, 0, 63, 64
2, 480, Note_off_c, 0, 63, 58
2, 480, Note_on_c, 0, 72, 64
2, 540, Note_off_c, 0, 72, 74
2, 540, Note_on_c, 0, 63, 64
2, 600, Note_off_c, 0, 63, 69
2, 600, Note_on_c, 0, 62, 64
2, 660, Note_off_c, 0, 62, 41
2, 660, Note_on_c, 0, 63, 64
2, 720, Note_off_c, 0, 63, 68
2, 720, Note_on_c, 0, 60, 64
2, 780, Note_off_c, 0, 60, 51
2, 780, Note_on_c, 0, 63, 64
2, 840, Note_off_c, 0, 63, 70
2, 840, Note_on_c, 0, 62, 64
2, 900, Note_off_c, 0, 62, 26
2, 900, Note_on_c, 0, 63, 64
2, 960, Note_off_c, 0, 63, 61
2, 960, Note_on_c, 0, 68, 64
2, 1020, Note_off_c, 0, 68, 72
2, 1020, Note_on_c, 0, 65, 64
2, 1080, Note_off_c, 0, 65, 77
2, 1080, Note_on_c, 0, 64, 64
2, 1140, Note_off_c, 0, 64, 62
2, 1140, Note_on_c, 0, 65, 64
2, 1200, Note_off_c, 0, 65, 55
2, 1200, Note_on_c, 0, 60, 64
2, 1260, Note_off_c, 0, 60, 48
2, 1260, Note_on_c, 0, 65, 64
2, 1320, Note_off_c, 0, 65, 73
2, 1320, Note_on_c, 0, 64, 64
2, 1380, Note_off_c, 0, 64, 31
2, 1380, Note_on_c, 0, 65, 64
2, 1440, Note_off_c, 0, 65, 17
2, 1440, Note_on_c, 0, 68, 64
2, 1500, Note_off_c, 0, 68, 62
2, 1500, Note_on_c, 0, 65, 64
2, 1560, Note_off_c, 0, 65, 72
2, 1560, Note_on_c, 0, 64, 64
2, 1620, Note_off_c, 0, 64, 62
2, 1620, Note_on_c, 0, 65, 64
2, 1680, Note_off_c, 0, 65, 61
2, 1680, Note_on_c, 0, 60, 64
2, 1740, Note_off_c, 0, 60, 52
2, 1740, Note_on_c, 0, 65, 64
2, 1800, Note_off_c, 0, 65, 62
2, 1800, Note_on_c, 0, 64, 64
2, 1860, Note_off_c, 0, 64, 55
2, 1860, Note_on_c, 0, 65, 64
2, 1920, Note_off_c, 0, 65, 82
2, 1920, Note_on_c, 0, 71, 64
2, 1980, Note_off_c, 0, 71, 80
2, 1980, Note_on_c, 0, 65, 64
2, 2040, Note_off_c, 0, 65, 48
2, 2040, Note_on_c, 0, 63, 64
2, 2100, Note_off_c, 0, 63, 62
2, 2100, Note_on_c, 0, 65, 64
2, 2160, Note_off_c, 0, 65, 79
2, 2160, Note_on_c, 0, 62, 64
2, 2220, Note_off_c, 0, 62, 53
2, 2220, Note_on_c, 0, 65, 64
2, 2280, Note_off_c, 0, 65, 51
2, 2280, Note_on_c, 0, 63, 64
2, 2340, Note_off_c, 0, 63, 68
2, 2340, Note_on_c, 0, 65, 64
2, 2400, Note_off_c, 0, 65, 82
2, 2400, Note_on_c, 0, 71, 64
2, 2460, Note_off_c, 0, 71, 83
2, 2460, Note_on_c, 0, 65, 64
2, 2520, Note_off_c, 0, 65, 55
2, 2520, Note_on_c, 0, 63, 64
2, 2580, Note_off_c, 0, 63, 58
2, 2580, Note_on_c, 0, 65, 64
2, 2640, Note_off_c, 0, 65, 72
2, 2640, Note_on_c, 0, 62, 64
2, 2700, Note_off_c, 0, 62, 48
2, 2700, Note_on_c, 0, 65, 64
2, 2760, Note_off_c, 0, 65, 58
2, 2760, Note_on_c, 0, 63, 64
2, 2820, Note_off_c, 0, 63, 41
2, 2820, Note_on_c, 0, 65, 64
2, 2880, Note_off_c, 0, 65, 82
2, 2880, Note_on_c, 0, 72, 64
2, 2940, Note_off_c, 0, 72, 83
2, 2940, Note_on_c, 0, 67, 64
2, 3000, Note_off_c, 0, 67, 61
2, 3000, Note_on_c, 0, 65, 64
2, 3060, Note_off_c, 0, 65, 82
2, 3060, Note_on_c, 0, 67, 64
2, 3120, Note_off_c, 0, 67, 58
2, 3120, Note_on_c, 0, 63, 64
2, 3180, Note_off_c, 0, 63, 68
2, 3180, Note_on_c, 0, 67, 64
2, 3240, Note_off_c, 0, 67, 65
2, 3240, Note_on_c, 0, 65, 64
2, 3300, Note_off_c, 0, 65, 66
2, 3300, Note_on_c, 0, 67, 64
2, 3360, Note_off_c, 0, 67, 59
2, 3360, Note_on_c, 0, 72, 64
2, 3420, Note_off_c, 0, 72, 73
2, 3420, Note_on_c, 0, 67, 64
2, 3480, Note_off_c, 0, 67, 65
2, 3480, Note_on_c, 0, 65, 64
2, 3540, Note_off_c, 0, 65, 46
2, 3540, Note_on_c, 0, 67, 64
2, 3600, Note_off_c, 0, 67, 57
2, 3600, Note_on_c, 0, 63, 64
2, 3660, Note_off_c, 0, 63, 63
2, 3660, Note_on_c, 0, 67, 64
2, 3720, Note_off_c, 0, 67, 63
2, 3720, Note_on_c, 0, 65, 64
2, 3780, Note_off_c, 0, 65, 44
2, 3780, Note_on_c, 0, 67, 64
2, 3840, Note_off_c, 0, 67, 66
2, 3840, Note_on_c, 0, 75, 64
2, 3900, Note_off_c, 0, 75, 69
2, 3900, Note_on_c, 0, 68, 64
2, 3960, Note_off_c, 0, 68, 74
2, 3960, Note_on_c, 0, 67, 64
2, 4020, Note_off_c, 0, 67, 55
2, 4020, Note_on_c, 0, 68, 64
2, 4080, Note_off_c, 0, 68, 69
2, 4080, Note_on_c, 0, 63, 64
2, 4140, Note_off_c, 0, 63, 55
2, 4140, Note_on_c, 0, 68, 64
2, 4200, Note_off_c, 0, 68, 57
2, 4200, Note_on_c, 0, 67, 64
2, 4260, Note_off_c, 0, 67, 52
2, 4260, Note_on_c, 0, 68, 64
2, 4320, Note_off_c, 0, 68, 76
2, 4320, Note_on_c, 0, 75, 64
2, 4380, Note_off_c, 0, 75, 51
2, 4380, Note_on_c, 0, 68, 64
2, 4440, Note_off_c, 0, 68, 72
2, 4440, Note_on_c, 0, 67, 64
2, 4500, Note_off_c, 0, 67, 46
2, 4500, Note_on_c, 0, 68, 64
2, 4560, Note_off_c, 0, 68, 66
2, 4560, Note_on_c, 0, 63, 64
2, 4620, Note_off_c, 0, 63, 62
2, 4620, Note_on_c, 0, 68, 64
2, 4680, Note_off_c, 0, 68, 73
2, 4680, Note_on_c, 0, 67, 64
2, 4740, Note_off_c, 0, 67, 31
2, 4740, Note_on_c, 0, 68, 64
2, 4800, Note_off_c, 0, 68, 80
2, 4800, Note_on_c, 0, 74, 64
2, 4860, Note_off_c, 0, 74, 70
2, 4860, Note_on_c, 0, 66, 64
2, 4920, Note_off_c, 0, 66, 13
2, 4920, Note_on_c, 0, 64, 64
2, 4980, Note_off_c, 0, 64, 42
2, 4980, Note_on_c, 0, 66, 64
2, 5040, Note_off_c, 0, 66, 55
2, 5040, Note_on_c, 0, 62, 64
2, 5100, Note_off_c, 0, 62, 37
2, 5100, Note_on_c, 0, 66, 64
2, 5160, Note_off_c, 0, 66, 62
2, 5160, Note_on_c, 0, 64, 64
2, 5220, Note_off_c, 0, 64, 43
2, 5220, Note_on_c, 0, 66, 64
2, 5280, Note_off_c, 0, 66, 51
2, 5280, Note_on_c, 0, 74, 64
2, 5340, Note_off_c, 0, 74, 72
2, 5340, Note_on_c, 0, 66, 64
2, 5400, Note_off_c, 0, 66, 49
2, 5400, Note_on_c, 0, 64, 64
2, 5460, Note_off_c, 0, 64, 49
2, 5460, Note_on_c, 0, 66, 64
2, 5520, Note_off_c, 0, 66, 57
2, 5520, Note_on_c, 0, 62, 64
2, 5580, Note_off_c, 0, 62, 31
2, 5580, Note_on_c, 0, 66, 64
2, 5640, Note_off_c, 0, 66, 65
2, 5640, Note_on_c, 0, 64, 64
2, 5700, Note_off_c, 0, 64, 47
2, 5700, Note_on_c, 0, 66, 64
2, 5760, Note_off_c, 0, 66, 55
2, 5760, Note_on_c, 0, 74, 64
2, 5820, Note_off_c, 0, 74, 61
2, 5820, Note_on_c, 0, 67, 64
2, 5880, Note_off_c, 0, 67, 16
2, 5880, Note_on_c, 0, 66, 64
2, 5940, Note_off_c, 0, 66, 77
2, 5940, Note_on_c, 0, 67, 64
2, 6000, Note_off_c, 0, 67, 61
2, 6000, Note_on_c, 0, 62, 64
2, 6060, Note_off_c, 0, 62, 57
2, 6060, Note_on_c, 0, 67, 64
2, 6120, Note_off_c, 0, 67, 54
2, 6120, Note_on_c, 0, 66, 64
2, 6180, Note_off_c, 0, 66, 82
2, 6180, Note_on_c, 0, 67, 64
2, 6240, Note_off_c, 0, 67, 46
2, 6240, Note_on_c, 0, 74, 64
2, 6300, Note_off_c, 0, 74, 72
2, 6300, Note_on_c, 0, 67, 64
2, 6360, Note_off_c, 0, 67, 35
2, 6360, Note_on_c, 0, 66, 64
2, 6420, Note_off_c, 0, 66, 76
2, 6420, Note_on_c, 0, 67, 64
2, 6480, Note_off_c, 0, 67, 58
2, 6480, Note_on_c, 0, 62, 64
2, 6540, Note_off_c, 0, 62, 48
2, 6540, Note_on_c, 0, 67, 64
2, 6600, Note_off_c, 0, 67, 44
2, 6600, Note_on_c, 0, 66, 64
2, 6660, Note_off_c, 0, 66, 65
2, 6660, Note_on_c, 0, 67, 64
2, 6720, Note_off_c, 0, 67, 58
2, 6720, Note_on_c, 0, 72, 64
2, 6780, Note_off_c, 0, 72, 65
2, 6780, Note_on_c, 0, 64, 64
2, 6840, Note_off_c, 0, 64, 57
2, 6840, Note_on_c, 0, 62, 64
2, 6900, Note_off_c, 0, 62, 51
2, 6900, Note_on_c, 0, 64, 64
2, 6960, Note_off_c, 0, 64, 54
2, 6960, Note_on_c, 0, 60, 64
2, 7020, Note_off_c, 0, 60, 61
2, 7020, Note_on_c, 0, 64, 64
2, 7080, Note_off_c, 0, 64, 57
2, 7080, Note_on_c, 0, 62, 64
2, 7140, Note_off_c, 0, 62, 46
2, 7140, Note_on_c, 0, 64, 64
2, 7200, Note_off_c, 0, 64, 57
2, 7200, Note_on_c, 0, 72, 64
2, 7260, Note_off_c, 0, 72, 55
2, 7260, Note_on_c, 0, 64, 64
2, 7320, Note_off_c, 0, 64, 57
2, 7320, Note_on_c, 0, 62, 64
2, 7380, Note_off_c, 0, 62, 51
2, 7380, Note_on_c, 0, 64, 64
2, 7440, Note_off_c, 0, 64, 53
2, 7440, Note_on_c, 0, 60, 64
2, 7500, Note_off_c, 0, 60, 50
2, 7500, Note_on_c, 0, 64, 64
2, 7560, Note_off_c, 0, 64, 52
2, 7560, Note_on_c, 0, 62, 64
2, 7620, Note_off_c, 0, 62, 33
2, 7620, Note_on_c, 0, 64, 64
2, 7680, Note_off_c, 0, 64, 53
2, 7680, Note_on_c, 0, 72, 64
2, 7740, Note_off_c, 0, 72, 68
2, 7740, Note_on_c, 0, 65, 64
2, 7800, Note_off_c, 0, 65, 52
2, 7800, Note_on_c, 0, 64, 64
2, 7860, Note_off_c, 0, 64, 54
2, 7860, Note_on_c, 0, 65, 64
2, 7920, Note_off_c, 0, 65, 55
2, 7920, Note_on_c, 0, 60, 64
2, 7980, Note_off_c, 0, 60, 59
2, 7980, Note_on_c, 0, 65, 64
2, 8040, Note_off_c, 0, 65, 69
2, 8040, Note_on_c, 0, 64, 64
2, 8100, Note_off_c, 0, 64, 47
2, 8100, Note_on_c, 0, 65, 64
2, 8160, Note_off_c, 0, 65, 72
2, 8160, Note_on_c, 0, 72, 64
2, 8220, Note_off_c, 0, 72, 61
2, 8220, Note_on_c, 0, 65, 64
2, 8280, Note_off_c, 0, 65, 73
2, 8280, Note_on_c, 0, 64, 64
2, 8340, Note_off_c, 0, 64, 61
2, 8340, Note_on_c, 0, 65, 64
2, 8400, Note_off_c, 0, 65, 73
2, 8400, Note_on_c, 0, 60, 64
2, 8460, Note_off_c, 0, 60, 62
2, 8460, Note_on_c, 0, 65, 64
2, 8520, Note_off_c, 0, 65, 73
2, 8520, Note_on_c, 0, 64, 64
2, 8580, Note_off_c, 0, 64, 27
2, 8580, Note_on_c, 0, 65, 64
2, 8640, Note_off_c, 0, 65, 59
2, 8640, Note_on_c, 0, 70, 64
2, 8700, Note_off_c, 0, 70, 62
2, 8700, Note_on_c, 0, 65, 64
2, 8760, Note_off_c, 0, 65, 38
2, 8760, Note_on_c, 0, 63, 64
2, 8820, Note_off_c, 0, 63, 43
2, 8820, Note_on_c, 0, 65, 64
2, 8880, Note_off_c, 0, 65, 50
2, 8880, Note_on_c, 0, 62, 64
2, 8940, Note_off_c, 0, 62, 52
2, 8940, Note_on_c, 0, 65, 64
2, 9000, Note_off_c, 0, 65, 63
2, 9000, Note_on_c, 0, 63, 64
2, 9060, Note_off_c, 0, 63, 27
2, 9060, Note_on_c, 0, 65, 64
2, 9120, Note_off_c, 0, 65, 62
2, 9120, Note_on_c, 0, 70, 64
2, 9180, Note_off_c, 0, 70, 80
2, 9180, Note_on_c, 0, 65, 64
2, 9240, Note_off_c, 0, 65, 58
2, 9240, Note_on_c, 0, 63, 64
2, 9300, Note_off_c, 0, 63, 59
2, 9300, Note_on_c, 0, 65, 64
2, 9360, Note_off_c, 0, 65, 79
2, 9360, Note_on_c, 0, 62, 64
2, 9420, Note_off_c, 0, 62, 32
2, 9420, Note_on_c, 0, 65, 64
2, 9480, Note_off_c, 0, 65, 63
2, 9480, Note_on_c, 0, 63, 64
2, 9540, Note_off_c, 0, 63, 32
2, 9540, Note_on_c, 0, 65, 64
2, 9600, Note_off_c, 0, 65, 80
2, 9600, Note_on_c, 0, 70, 64
2, 9660, Note_off_c, 0, 70, 70
2, 9660, Note_on_c, 0, 67, 64
2, 9720, Note_off_c, 0, 67, 65
2, 9720, Note_on_c, 0, 65, 64
2, 9780, Note_off_c, 0, 65, 51
2, 9780, Note_on_c, 0, 67, 64
2, 9840, Note_off_c, 0, 67, 46
2, 9840, Note_on_c, 0, 63, 64
2, 9900, Note_off_c, 0, 63, 66
2, 9900, Note_on_c, 0, 67, 64
2, 9960, Note_off_c, 0, 67, 51
2, 9960, Note_on_c, 0, 65, 64
2, 10020, Note_off_c, 0, 65, 58
2, 10020, Note_on_c, 0, 67, 64
2, 10080, Note_off_c, 0, 67, 63
2, 10080, Note_on_c, 0, 70, 64
2, 10140, Note_off_c, 0, 70, 43
2, 10140, Note_on_c, 0, 67, 64
2, 10200, Note_off_c, 0, 67, 49
2, 10200, Note_on_c, 0, 65, 64
2, 10260, Note_off_c, 0, 65, 79
2, 10260, Note_on_c, 0, 67, 64
2, 10320, Note_off_c, 0, 67, 49
2, 10320, Note_on_c, 0, 63, 64
2, 10380, Note_off_c, 0, 63, 57
2, 10380, Note_on_c, 0, 67, 64
2, 10440, Note_off_c, 0, 67, 52
2, 10440, Note_on_c, 0, 65, 64
2, 10500, Note_off_c, 0, 65, 63
2, 10500, Note_on_c, 0, 67, 64
2, 10560, Note_off_c, 0, 67, 62
2, 10560, Note_on_c, 0, 68, 64
2, 10620, Note_off_c, 0, 68, 55
2, 10620, Note_on_c, 0, 67, 64
2, 10680, Note_off_c, 0, 67, 50
2, 10680, Note_on_c, 0, 65, 64
2, 10740, Note_off_c, 0, 65, 80
2, 10740, Note_on_c, 0, 67, 64
2, 10800, Note_off_c, 0, 67, 53
2, 10800, Note_on_c, 0, 63, 64
2, 10860, Note_off_c, 0, 63, 62
2, 10860, Note_on_c, 0, 67, 64
2, 10920, Note_off_c, 0, 67, 52
2, 10920, Note_on_c, 0, 65, 64
2, 10980, Note_off_c, 0, 65, 72
2, 10980, Note_on_c, 0, 67, 64
2, 11040, Note_off_c, 0, 67, 63
2, 11040, Note_on_c, 0, 68, 64
2, 11100, Note_off_c, 0, 68, 50
2, 11100, Note_on_c, 0, 67, 64
2, 11160, Note_off_c, 0, 67, 46
2, 11160, Note_on_c, 0, 65, 64
2, 11220, Note_off_c, 0, 65, 76
2, 11220, Note_on_c, 0, 67, 64
2, 11280, Note_off_c, 0, 67, 52
2, 11280, Note_on_c, 0, 63, 64
2, 11340, Note_off_c, 0, 63, 68
2, 11340, Note_on_c, 0, 67, 64
2, 11400, Note_off_c, 0, 67, 53
2, 11400, Note_on_c, 0, 65, 64
2, 11460, Note_off_c, 0, 65, 72
2, 11460, Note_on_c, 0, 67, 64
2, 11520, Note_off_c, 0, 67, 14
2, 11520, Note_on_c, 0, 68, 64
2, 11580, Note_off_c, 0, 68, 74
2, 11580, Note_on_c, 0, 62, 64
2, 11640, Note_off_c, 0, 62, 57
2, 11640, Note_on_c, 0, 60, 64
2, 11700, Note_off_c, 0, 60, 58
2, 11700, Note_on_c, 0, 62, 64
2, 11760, Note_off_c, 0, 62, 46
2, 11760, Note_on_c, 0, 58, 64
2, 11820, Note_off_c, 0, 58, 63
2, 11820, Note_on_c, 0, 62, 64
2, 11880, Note_off_c, 0, 62, 59
2, 11880, Note_on_c, 0, 60, 64
2, 11940, Note_off_c, 0, 60, 12
2, 11940, Note_on_c, 0, 62, 64
2, 12000, Note_off_c, 0, 62, 59
2, 12000, Note_on_c, 0, 68, 64
2, 12060, Note_off_c, 0, 68, 61
2, 12060, Note_on_c, 0, 62, 64
2, 12120, Note_off_c, 0, 62, 61
2, 12120, Note_on_c, 0, 60, 64
2, 12180, Note_off_c, 0, 60, 50
2, 12180, Note_on_c, 0, 62, 64
2, 12240, Note_off_c, 0, 62, 59
2, 12240, Note_on_c, 0, 58, 64
2, 12300, Note_off_c, 0, 58, 63
2, 12300, Note_on_c, 0, 62, 64
2, 12360, Note_off_c, 0, 62, 62
2, 12360, Note_on_c, 0, 60, 64
2, 12420, Note_off_c, 0, 60, 47
2, 12420, Note_on_c, 0, 62, 64
2, 12480, Note_off_c, 0, 62, 62
2, 12480, Note_on_c, 0, 67, 64
2, 12540, Note_off_c, 0, 67, 39
2, 12540, Note_on_c, 0, 58, 64
2, 12600, Note_off_c, 0, 58, 61
2, 12600, Note_on_c, 0, 56, 64
2, 12660, Note_off_c, 0, 56, 54
2, 12660, Note_on_c, 0, 58, 64
2, 12720, Note_off_c, 0, 58, 68
2, 12720, Note_on_c, 0, 63, 64
2, 12780, Note_off_c, 0, 63, 47
2, 12780, Note_on_c, 0, 58, 64
2, 12840, Note_off_c, 0, 58, 57
2, 12840, Note_on_c, 0, 56, 64
2, 12900, Note_off_c, 0, 56, 37
2, 12900, Note_on_c, 0, 58, 64
2, 12960, Note_off_c, 0, 58, 66
2, 12960, Note_on_c, 0, 67, 64
2, 13020, Note_off_c, 0, 67, 38
2, 13020, Note_on_c, 0, 58, 64
2, 13080, Note_off_c, 0, 58, 68
2, 13080, Note_on_c, 0, 56, 64
2, 13140, Note_off_c, 0, 56, 55
2, 13140, Note_on_c, 0, 58, 64
2, 13200, Note_off_c, 0, 58, 66
2, 13200, Note_on_c, 0, 63, 64
2, 13260, Note_off_c, 0, 63, 47
2, 13260, Note_on_c, 0, 58, 64
2, 13320, Note_off_c, 0, 58, 59
2, 13320, Note_on_c, 0, 56, 64
2, 13380, Note_off_c, 0, 56, 20
2, 13380, Note_on_c, 0, 58, 64
2, 13440, Note_off_c, 0, 58, 66
2, 13440, Note_on_c, 0, 65, 64
2, 13500, Note_off_c, 0, 65, 76
2, 13500, Note_on_c, 0, 60, 64
2, 13560, Note_off_c, 0, 60, 58
2, 13560, Note_on_c, 0, 58, 64
2, 13620, Note_off_c, 0, 58, 70
2, 13620, Note_on_c, 0, 60, 64
2, 13680, Note_off_c, 0, 60, 57
2, 13680, Note_on_c, 0, 57, 64
2, 13740, Note_off_c, 0, 57, 43
2, 13740, Note_on_c, 0, 60, 64
2, 13800, Note_off_c, 0, 60, 54
2, 13800, Note_on_c, 0, 58, 64
2, 13860, Note_off_c, 0, 58, 61
2, 13860, Note_on_c, 0, 60, 64
2, 13920, Note_off_c, 0, 60, 69
2, 13920, Note_on_c, 0, 65, 64
2, 13980, Note_off_c, 0, 65, 74
2, 13980, Note_on_c, 0, 60, 64
2, 14040, Note_off_c, 0, 60, 55
2, 14040, Note_on_c, 0, 58, 64
2, 14100, Note_off_c, 0, 58, 63
2, 14100, Note_on_c, 0, 60, 64
2, 14160, Note_off_c, 0, 60, 62
2, 14160, Note_on_c, 0, 57, 64
2, 14220, Note_off_c, 0, 57, 34
2, 14220, Note_on_c, 0, 60, 64
2, 14280, Note_off_c, 0, 60, 58
2, 14280, Note_on_c, 0, 58, 64
2, 14340, Note_off_c, 0, 58, 33
2, 14340, Note_on_c, 0, 60, 64
2, 14400, Note_off_c, 0, 60, 69
2, 14400, Note_on_c, 0, 65, 64
2, 14460, Note_off_c, 0, 65, 65
2, 14460, Note_on_c, 0, 62, 64
2, 14520, Note_off_c, 0, 62, 49
2, 14520, Note_on_c, 0, 60, 64
2, 14580, Note_off_c, 0, 60, 57
2, 14580, Note_on_c, 0, 62, 64
2, 14640, Note_off_c, 0, 62, 58
2, 14640, Note_on_c, 0, 59, 64
2, 14700, Note_off_c, 0, 59, 30
2, 14700, Note_on_c, 0, 62, 64
2, 14760, Note_off_c, 0, 62, 49
2, 14760, Note_on_c, 0, 60, 64
2, 14820, Note_off_c, 0, 60, 55
2, 14820, Note_on_c, 0, 62, 64
2, 14880, Note_off_c, 0, 62, 65
2, 14880, Note_on_c, 0, 65, 64
2, 14940, Note_off_c, 0, 65, 61
2, 14940, Note_on_c, 0, 62, 64
2, 15000, Note_off_c, 0, 62, 49
2, 15000, Note_on_c, 0, 60, 64
2, 15060, Note_off_c, 0, 60, 57
2, 15060, Note_on_c, 0, 62, 64
2, 15120, Note_off_c, 0, 62, 49
2, 15120, Note_on_c, 0, 59, 64
2, 15180, Note_off_c, 0, 59, 51
2, 15180, Note_on_c, 0, 62, 64
2, 15240, Note_off_c, 0, 62, 57
2, 15240, Note_on_c, 0, 60, 64
2, 15300, Note_off_c, 0, 60, 59
2, 15300, Note_on_c, 0, 62, 64
2, 15360, Note_off_c, 0, 62, 59
2, 15360, Note_on_c, 0, 65, 64
2, 15420, Note_off_c, 0, 65, 63
2, 15420, Note_on_c, 0, 62, 64
2, 15480, Note_off_c, 0, 62, 46
2, 15480, Note_on_c, 0, 60, 64
2, 15540, Note_off_c, 0, 60, 57
2, 15540, Note_on_c, 0, 62, 64
2, 15600, Note_off_c, 0, 62, 57
2, 15600, Note_on_c, 0, 59, 64
2, 15660, Note_off_c, 0, 59, 43
2, 15660, Note_on_c, 0, 62, 64
2, 15720, Note_off_c, 0, 62, 54
2, 15720, Note_on_c, 0, 60, 64
2, 15780, Note_off_c, 0, 60, 52
2, 15780, Note_on_c, 0, 62, 64
2, 15840, Note_off_c, 0, 62, 61
2, 15840, Note_on_c, 0, 65, 64
2, 15900, Note_off_c, 0, 65, 73
2, 15900, Note_on_c, 0, 62, 64
2, 15960, Note_off_c, 0, 62, 53
2, 15960, Note_on_c, 0, 60, 64
2, 16020, Note_off_c, 0, 60, 61
2, 16020, Note_on_c, 0, 62, 64
2, 16080, Note_off_c, 0, 62, 58
2, 16080, Note_on_c, 0, 59, 64
2, 16140, Note_off_c, 0, 59, 37
2, 16140, Note_on_c, 0, 62, 64
2, 16200, Note_off_c, 0, 62, 50
2, 16200, Note_on_c, 0, 60, 64
2, 16260, Note_off_c, 0, 60, 53
2, 16260, Note_on_c, 0, 62, 64
2, 16320, Note_off_c, 0, 62, 61
2, 16320, Note_on_c, 0, 63, 64
2, 16380, Note_off_c, 0, 63, 47
2, 16380, Note_on_c, 0, 60, 64
2, 16440, Note_off_c, 0, 60, 58
2, 16440, Note_on_c, 0, 59, 64
2, 16500, Note_off_c, 0, 59, 55
2, 16500, Note_on_c, 0, 60, 64
2, 16560, Note_off_c, 0, 60, 59
2, 16560, Note_on_c, 0, 55, 64
2, 16620, Note_off_c, 0, 55, 47
2, 16620, Note_on_c, 0, 60, 64
2, 16680, Note_off_c, 0, 60, 58
2, 16680, Note_on_c, 0, 59, 64
2, 16740, Note_off_c, 0, 59, 49
2, 16740, Note_on_c, 0, 60, 64
2, 16800, Note_off_c, 0, 60, 46
2, 16800, Note_on_c, 0, 63, 64
2, 16860, Note_off_c, 0, 63, 46
2, 16860, Note_on_c, 0, 60, 64
2, 16920, Note_off_c, 0, 60, 51
2, 16920, Note_on_c, 0, 59, 64
2, 16980, Note_off_c, 0, 59, 57
2, 16980, Note_on_c, 0, 60, 64
2, 17040, Note_off_c, 0, 60, 53
2, 17040, Note_on_c, 0, 55, 64
2, 17100, Note_off_c, 0, 55, 31
2, 17100, Note_on_c, 0, 60, 64
2, 17160, Note_off_c, 0, 60, 57
2, 17160, Note_on_c, 0, 59, 64
2, 17220, Note_off_c, 0, 59, 53
2, 17220, Note_on_c, 0, 60, 64
2, 17280, Note_off_c, 0, 60, 55
2, 17280, Note_on_c, 0, 53, 64
2, 17340, Note_off_c, 0, 53, 73
2, 17340, Note_on_c, 0, 63, 64
2, 17400, Note_off_c, 0, 63, 54
2, 17400, Note_on_c, 0, 62, 64
2, 17460, Note_off_c, 0, 62, 57
2, 17460, Note_on_c, 0, 63, 64
2, 17520, Note_off_c, 0, 63, 66
2, 17520, Note_on_c, 0, 65, 64
2, 17580, Note_off_c, 0, 65, 73
2, 17580, Note_on_c, 0, 63, 64
2, 17640, Note_off_c, 0, 63, 52
2, 17640, Note_on_c, 0, 62, 64
2, 17700, Note_off_c, 0, 62, 61
2, 17700, Note_on_c, 0, 63, 64
2, 17760, Note_off_c, 0, 63, 59
2, 17760, Note_on_c, 0, 53, 64
2, 17820, Note_off_c, 0, 53, 72
2, 17820, Note_on_c, 0, 63, 64
2, 17880, Note_off_c, 0, 63, 52
2, 17880, Note_on_c, 0, 62, 64
2, 17940, Note_off_c, 0, 62, 48
2, 17940, Note_on_c, 0, 63, 64
2, 18000, Note_off_c, 0, 63, 46
2, 18000, Note_on_c, 0, 65, 64
2, 18060, Note_off_c, 0, 65, 48
2, 18060, Note_on_c, 0, 63, 64
2, 18120, Note_off_c, 0, 63, 57
2, 18120, Note_on_c, 0, 62, 64
2, 18180, Note_off_c, 0, 62, 42
2, 18180, Note_on_c, 0, 63, 64
2, 18240, Note_off_c, 0, 63, 66
2, 18240, Note_on_c, 0, 54, 64
2, 18300, Note_off_c, 0, 54, 73
2, 18300, Note_on_c, 0, 60, 64
2, 18360, Note_off_c, 0, 60, 59
2, 18360, Note_on_c, 0, 59, 64
2, 18420, Note_off_c, 0, 59, 49
2, 18420, Note_on_c, 0, 60, 64
2, 18480, Note_off_c, 0, 60, 62
2, 18480, Note_on_c, 0, 63, 64
2, 18540, Note_off_c, 0, 63, 40
2, 18540, Note_on_c, 0, 60, 64
2, 18600, Note_off_c, 0, 60, 54
2, 18600, Note_on_c, 0, 59, 64
2, 18660, Note_off_c, 0, 59, 55
2, 18660, Note_on_c, 0, 60, 64
2, 18720, Note_off_c, 0, 60, 55
2, 18720, Note_on_c, 0, 54, 64
2, 18780, Note_off_c, 0, 54, 70
2, 18780, Note_on_c, 0, 60, 64
2, 18840, Note_off_c, 0, 60, 72
2, 18840, Note_on_c, 0, 59, 64
2, 18900, Note_off_c, 0, 59, 46
2, 18900, Note_on_c, 0, 60, 64
2, 18960, Note_off_c, 0, 60, 63
2, 18960, Note_on_c, 0, 63, 64
2, 19020, Note_off_c, 0, 63, 54
2, 19020, Note_on_c, 0, 60, 64
2, 19080, Note_off_c, 0, 60, 66
2, 19080, Note_on_c, 0, 59, 64
2, 19140, Note_off_c, 0, 59, 48
2, 19140, Note_on_c, 0, 60, 64
2, 19200, Note_off_c, 0, 60, 63
2, 19200, Note_on_c, 0, 63, 64
2, 19260, Note_off_c, 0, 63, 37
2, 19260, Note_on_c, 0, 60, 64
2, 19320, Note_off_c, 0, 60, 59
2, 19320, Note_on_c, 0, 59, 64
2, 19380, Note_off_c, 0, 59, 52
2, 19380, Note_on_c, 0, 60, 64
2, 19440, Note_off_c, 0, 60, 68
2, 19440, Note_on_c, 0, 55, 64
2, 19500, Note_off_c, 0, 55, 63
2, 19500, Note_on_c, 0, 60, 64
2, 19560, Note_off_c, 0, 60, 63
2, 19560, Note_on_c, 0, 59, 64
2, 19620, Note_off_c, 0, 59, 43
2, 19620, Note_on_c, 0, 60, 64
2, 19680, Note_off_c, 0, 60, 73
2, 19680, Note_on_c, 0, 63, 64
2, 19740, Note_off_c, 0, 63, 50
2, 19740, Note_on_c, 0, 60, 64
2, 19800, Note_off_c, 0, 60, 65
2, 19800, Note_on_c, 0, 59, 64
2, 19860, Note_off_c, 0, 59, 47
2, 19860, Note_on_c, 0, 60, 64
2, 19920, Note_off_c, 0, 60, 69
2, 19920, Note_on_c, 0, 55, 64
2, 19980, Note_off_c, 0, 55, 73
2, 19980, Note_on_c, 0, 60, 64
2, 20040, Note_off_c, 0, 60, 63
2, 20040, Note_on_c, 0, 59, 64
2, 20100, Note_off_c, 0, 59, 29
2, 20100, Note_on_c, 0, 60, 64
2, 20160, Note_off_c, 0, 60, 70
2, 20160, Note_on_c, 0, 66, 64
2, 20220, Note_off_c, 0, 66, 41
2, 20220, Note_on_c, 0, 60, 64
2, 20280, Note_off_c, 0, 60, 61
2, 20280, Note_on_c, 0, 59, 64
2, 20340, Note_off_c, 0, 59, 50
2, 20340, Note_on_c, 0, 60, 64
2, 20400, Note_off_c, 0, 60, 63
2, 20400, Note_on_c, 0, 57, 64
2, 20460, Note_off_c, 0, 57, 53
2, 20460, Note_on_c, 0, 60, 64
2, 20520, Note_off_c, 0, 60, 68
2, 20520, Note_on_c, 0, 59, 64
2, 20580, Note_off_c, 0, 59, 43
2, 20580, Note_on_c, 0, 60, 64
2, 20640, Note_off_c, 0, 60, 69
2, 20640, Note_on_c, 0, 66, 64
2, 20700, Note_off_c, 0, 66, 57
2, 20700, Note_on_c, 0, 60, 64
2, 20760, Note_off_c, 0, 60, 65
2, 20760, Note_on_c, 0, 59, 64
2, 20820, Note_off_c, 0, 59, 49
2, 20820, Note_on_c, 0, 60, 64
2, 20880, Note_off_c, 0, 60, 66
2, 20880, Note_on_c, 0, 57, 64
2, 20940, Note_off_c, 0, 57, 49
2, 20940, Note_on_c, 0, 60, 64
2, 21000, Note_off_c, 0, 60, 65
2, 21000, Note_on_c, 0, 59, 64
2, 21060, Note_off_c, 0, 59, 24
2, 21060, Note_on_c, 0, 60, 64
2, 21120, Note_off_c, 0, 60, 65
2, 21120, Note_on_c, 0, 67, 64
2, 21180, Note_off_c, 0, 67, 49
2, 21180, Note_on_c, 0, 60, 64
2, 21240, Note_off_c, 0, 60, 68
2, 21240, Note_on_c, 0, 59, 64
2, 21300, Note_off_c, 0, 59, 40
2, 21300, Note_on_c, 0, 60, 64
2, 21360, Note_off_c, 0, 60, 62
2, 21360, Note_on_c, 0, 62, 64
2, 21420, Note_off_c, 0, 62, 48
2, 21420, Note_on_c, 0, 60, 64
2, 21480, Note_off_c, 0, 60, 66
2, 21480, Note_on_c, 0, 59, 64
2, 21540, Note_off_c, 0, 59, 29
2, 21540, Note_on_c, 0, 60, 64
2, 21600, Note_off_c, 0, 60, 68
2, 21600, Note_on_c, 0, 67, 64
2, 21660, Note_off_c, 0, 67, 45
2, 21660, Note_on_c, 0, 60, 64
2, 21720, Note_off_c, 0, 60, 65
2, 21720, Note_on_c, 0, 59, 64
2, 21780, Note_off_c, 0, 59, 36
2, 21780, Note_on_c, 0, 60, 64
2, 21840, Note_off_c, 0, 60, 53
2, 21840, Note_on_c, 0, 62, 64
2, 21900, Note_off_c, 0, 62, 42
2, 21900, Note_on_c, 0, 60, 64
2, 21960, Note_off_c, 0, 60, 69
2, 21960, Note_on_c, 0, 59, 64
2, 22020, Note_off_c, 0, 59, 34
2, 22020, Note_on_c, 0, 60, 64
2, 22080, Note_off_c, 0, 60, 54
2, 22080, Note_on_c, 0, 68, 64
2, 22140, Note_off_c, 0, 68, 76
2, 22140, Note_on_c, 0, 60, 64
2, 22200, Note_off_c, 0, 60, 65
2, 22200, Note_on_c, 0, 59, 64
2, 22260, Note_off_c, 0, 59, 52
2, 22260, Note_on_c, 0, 60, 64
2, 22320, Note_off_c, 0, 60, 70
2, 22320, Note_on_c, 0, 62, 64
2, 22380, Note_off_c, 0, 62, 46
2, 22380, Note_on_c, 0, 60, 64
2, 22440, Note_off_c, 0, 60, 68
2, 22440, Note_on_c, 0, 59, 64
2, 22500, Note_off_c, 0, 59, 42
2, 22500, Note_on_c, 0, 60, 64
2, 22560, Note_off_c, 0, 60, 66
2, 22560, Note_on_c, 0, 68, 64
2, 22620, Note_off_c, 0, 68, 49
2, 22620, Note_on_c, 0, 60, 64
2, 22680, Note_off_c, 0, 60, 59
2, 22680, Note_on_c, 0, 59, 64
2, 22740, Note_off_c, 0, 59, 46
2, 22740, Note_on_c, 0, 60, 64
2, 22800, Note_off_c, 0, 60, 61
2, 22800, Note_on_c, 0, 62, 64
2, 22860, Note_off_c, 0, 62, 46
2, 22860, Note_on_c, 0, 60, 64
2, 22920, Note_off_c, 0, 60, 53
2, 22920, Note_on_c, 0, 59, 64
2, 22980, Note_off_c, 0, 59, 52
2, 22980, Note_on_c, 0, 60, 64
2, 23040, Note_off_c, 0, 60, 70
2, 23220, Note_on_c, 0, 53, 64
2, 23280, Note_off_c, 0, 53, 29
2, 23280, Note_on_c, 0, 56, 64
2, 23340, Note_off_c, 0, 56, 52
2, 23340, Note_on_c, 0, 53, 64
2, 23400, Note_off_c, 0, 53, 73
2, 23400, Note_on_c, 0, 52, 64
2, 23460, Note_off_c, 0, 52, 35
2, 23460, Note_on_c, 0, 53, 64
2, 23520, Note_off_c, 0, 53, 61
2, 23520, Note_on_c, 0, 59, 64
2, 23580, Note_off_c, 0, 59, 68
2, 23580, Note_on_c, 0, 53, 64
2, 23640, Note_off_c, 0, 53, 68
2, 23640, Note_on_c, 0, 62, 64
2, 23700, Note_off_c, 0, 62, 57
2, 23700, Note_on_c, 0, 59, 64
2, 23760, Note_off_c, 0, 59, 49
2, 23760, Note_on_c, 0, 56, 64
2, 23820, Note_off_c, 0, 56, 69
2, 23820, Note_on_c, 0, 53, 64
2, 23880, Note_off_c, 0, 53, 52
2, 23880, Note_on_c, 0, 52, 64
2, 23940, Note_off_c, 0, 52, 79
2, 23940, Note_on_c, 0, 53, 64
2, 24000, Note_off_c, 0, 53, 73
2, 24180, Note_on_c, 0, 55, 64
2, 24240, Note_off_c, 0, 55, 44
2, 24240, Note_on_c, 0, 60, 64
2, 24300, Note_off_c, 0, 60, 52
2, 24300, Note_on_c, 0, 55, 64
2, 24360, Note_off_c, 0, 55, 52
2, 24360, Note_on_c, 0, 54, 64
2, 24420, Note_off_c, 0, 54, 69
2, 24420, Note_on_c, 0, 55, 64
2, 24480, Note_off_c, 0, 55, 20
2, 24480, Note_on_c, 0, 63, 64
2, 24540, Note_off_c, 0, 63, 55
2, 24540, Note_on_c, 0, 60, 64
2, 24600, Note_off_c, 0, 60, 57
2, 24600, Note_on_c, 0, 67, 64
2, 24660, Note_off_c, 0, 67, 48
2, 24660, Note_on_c, 0, 63, 64
2, 24720, Note_off_c, 0, 63, 49
2, 24720, Note_on_c, 0, 60, 64
2, 24780, Note_off_c, 0, 60, 62
2, 24780, Note_on_c, 0, 56, 64
2, 24840, Note_off_c, 0, 56, 74
2, 24840, Note_on_c, 0, 55, 64
2, 24900, Note_off_c, 0, 55, 52
2, 24900, Note_on_c, 0, 56, 64
2, 24960, Note_off_c, 0, 56, 73
2, 25140, Note_on_c, 0, 60, 64
2, 25200, Note_off_c, 0, 60, 58
2, 25200, Note_on_c, 0, 63, 64
2, 25260, Note_off_c, 0, 63, 54
2, 25260, Note_on_c, 0, 60, 64
2, 25320, Note_off_c, 0, 60, 51
2, 25320, Note_on_c, 0, 59, 64
2, 25380, Note_off_c, 0, 59, 65
2, 25380, Note_on_c, 0, 60, 64
2, 25440, Note_off_c, 0, 60, 51
2, 25440, Note_on_c, 0, 66, 64
2, 25500, Note_off_c, 0, 66, 53
2, 25500, Note_on_c, 0, 60, 64
2, 25560, Note_off_c, 0, 60, 37
2, 25560, Note_on_c, 0, 69, 64
2, 25620, Note_off_c, 0, 69, 70
2, 25620, Note_on_c, 0, 66, 64
2, 25680, Note_off_c, 0, 66, 52
2, 25680, Note_on_c, 0, 63, 64
2, 25740, Note_off_c, 0, 63, 50
2, 25740, Note_on_c, 0, 60, 64
2, 25800, Note_off_c, 0, 60, 57
2, 25800, Note_on_c, 0, 59, 64
2, 25860, Note_off_c, 0, 59, 69
2, 25860, Note_on_c, 0, 60, 64
2, 25920, Note_off_c, 0, 60, 70
2, 25980, Note_on_c, 0, 74, 64
2, 26040, Note_off_c, 0, 74, 74
2, 26040, Note_on_c, 0, 72, 64
2, 26100, Note_off_c, 0, 72, 58
2, 26100, Note_on_c, 0, 74, 64
2, 26160, Note_off_c, 0, 74, 76
2, 26160, Note_on_c, 0, 75, 64
2, 26220, Note_off_c, 0, 75, 74
2, 26220, Note_on_c, 0, 72, 64
2, 26280, Note_off_c, 0, 72, 82
2, 26280, Note_on_c, 0, 71, 64
2, 26340, Note_off_c, 0, 71, 70
2, 26340, Note_on_c, 0, 72, 64
2, 26400, Note_off_c, 0, 72, 82
2, 26400, Note_on_c, 0, 69, 64
2, 26460, Note_off_c, 0, 69, 54
2, 26460, Note_on_c, 0, 72, 64
2, 26520, Note_off_c, 0, 72, 70
2, 26520, Note_on_c, 0, 71, 64
2, 26580, Note_off_c, 0, 71, 70
2, 26580, Note_on_c, 0, 72, 64
2, 26640, Note_off_c, 0, 72, 77
2, 26640, Note_on_c, 0, 74, 64
2, 26700, Note_off_c, 0, 74, 76
2, 26700, Note_on_c, 0, 71, 64
2, 26760, Note_off_c, 0, 71, 73
2, 26760, Note_on_c, 0, 69, 64
2, 26820, Note_off_c, 0, 69, 77
2, 26820, Note_on_c, 0, 71, 64
2, 26880, Note_off_c, 0, 71, 74
2, 26880, Note_on_c, 0, 67, 64
2, 26940, Note_off_c, 0, 67, 47
2, 26940, Note_on_c, 0, 71, 64
2, 27000, Note_off_c, 0, 71, 54
2, 27000, Note_on_c, 0, 69, 64
2, 27060, Note_off_c, 0, 69, 62
2, 27060, Note_on_c, 0, 71, 64
2, 27120, Note_off_c, 0, 71, 69
2, 27120, Note_on_c, 0, 72, 64
2, 27180, Note_off_c, 0, 72, 72
2, 27180, Note_on_c, 0, 69, 64
2, 27240, Note_off_c, 0, 69, 63
2, 27240, Note_on_c, 0, 67, 64
2, 27300, Note_off_c, 0, 67, 43
2, 27300, Note_on_c, 0, 69, 64
2, 27360, Note_off_c, 0, 69, 61
2, 27360, Note_on_c, 0, 66, 64
2, 27420, Note_off_c, 0, 66, 65
2, 27420, Note_on_c, 0, 69, 64
2, 27480, Note_off_c, 0, 69, 73
2, 27480, Note_on_c, 0, 67, 64
2, 27540, Note_off_c, 0, 67, 44
2, 27540, Note_on_c, 0, 69, 64
2, 27600, Note_off_c, 0, 69, 76
2, 27600, Note_on_c, 0, 71, 64
2, 27660, Note_off_c, 0, 71, 73
2, 27660, Note_on_c, 0, 67, 64
2, 27720, Note_off_c, 0, 67, 65
2, 27720, Note_on_c, 0, 66, 64
2, 27780, Note_off_c, 0, 66, 83
2, 27780, Note_on_c, 0, 67, 64
2, 27840, Note_off_c, 0, 67, 62
2, 27840, Note_on_c, 0, 62, 64
2, 27900, Note_off_c, 0, 62, 70
2, 27900, Note_on_c, 0, 79, 64
2, 27960, Note_off_c, 0, 79, 52
2, 27960, Note_on_c, 0, 77, 64
2, 28020, Note_off_c, 0, 77, 70
2, 28020, Note_on_c, 0, 79, 64
2, 28080, Note_off_c, 0, 79, 72
2, 28080, Note_on_c, 0, 80, 64
2, 28140, Note_off_c, 0, 80, 80
2, 28140, Note_on_c, 0, 77, 64
2, 28200, Note_off_c, 0, 77, 74
2, 28200, Note_on_c, 0, 75, 64
2, 28260, Note_off_c, 0, 75, 88
2, 28260, Note_on_c, 0, 77, 64
2, 28320, Note_off_c, 0, 77, 70
2, 28320, Note_on_c, 0, 74, 64
2, 28380, Note_off_c, 0, 74, 45
2, 28380, Note_on_c, 0, 77, 64
2, 28440, Note_off_c, 0, 77, 58
2, 28440, Note_on_c, 0, 75, 64
2, 28500, Note_off_c, 0, 75, 59
2, 28500, Note_on_c, 0, 77, 64
2, 28560, Note_off_c, 0, 77, 66
2, 28560, Note_on_c, 0, 79, 64
2, 28620, Note_off_c, 0, 79, 66
2, 28620, Note_on_c, 0, 75, 64
2, 28680, Note_off_c, 0, 75, 80
2, 28680, Note_on_c, 0, 74, 64
2, 28740, Note_off_c, 0, 74, 73
2, 28740, Note_on_c, 0, 75, 64
2, 28800, Note_off_c, 0, 75, 82
2, 28800, Note_on_c, 0, 72, 64
2, 28860, Note_off_c, 0, 72, 63
2, 28860, Note_on_c, 0, 75, 64
2, 28920, Note_off_c, 0, 75, 69
2, 28920, Note_on_c, 0, 74, 64
2, 28980, Note_off_c, 0, 74, 69
2, 28980, Note_on_c, 0, 75, 64
2, 29040, Note_off_c, 0, 75, 72
2, 29040, Note_on_c, 0, 77, 64
2, 29100, Note_off_c, 0, 77, 63
2, 29100, Note_on_c, 0, 74, 64
2, 29160, Note_off_c, 0, 74, 73
2, 29160, Note_on_c, 0, 72, 64
2, 29220, Note_off_c, 0, 72, 70
2, 29220, Note_on_c, 0, 74, 64
2, 29280, Note_off_c, 0, 74, 68
2, 29280, Note_on_c, 0, 71, 64
2, 29340, Note_off_c, 0, 71, 52
2, 29340, Note_on_c, 0, 74, 64
2, 29400, Note_off_c, 0, 74, 72
2, 29400, Note_on_c, 0, 72, 64
2, 29460, Note_off_c, 0, 72, 48
2, 29460, Note_on_c, 0, 74, 64
2, 29520, Note_off_c, 0, 74, 72
2, 29520, Note_on_c, 0, 75, 64
2, 29580, Note_off_c, 0, 75, 77
2, 29580, Note_on_c, 0, 72, 64
2, 29640, Note_off_c, 0, 72, 35
2, 29640, Note_on_c, 0, 70, 64
2, 29700, Note_off_c, 0, 70, 76
2, 29700, Note_on_c, 0, 72, 64
2, 29760, Note_off_c, 0, 72, 76
2, 29760, Note_on_c, 0, 67, 64
2, 29820, Note_off_c, 0, 67, 31
2, 29820, Note_on_c, 0, 72, 64
2, 29880, Note_off_c, 0, 72, 66
2, 29880, Note_on_c, 0, 71, 64
2, 29940, Note_off_c, 0, 71, 82
2, 29940, Note_on_c, 0, 72, 64
2, 30000, Note_off_c, 0, 72, 77
2, 30000, Note_on_c, 0, 68, 64
2, 30060, Note_off_c, 0, 68, 74
2, 30060, Note_on_c, 0, 77, 64
2, 30120, Note_off_c, 0, 77, 58
2, 30120, Note_on_c, 0, 75, 64
2, 30180, Note_off_c, 0, 75, 74
2, 30180, Note_on_c, 0, 77, 64
2, 30240, Note_off_c, 0, 77, 55
2, 30240, Note_on_c, 0, 67, 64
2, 30300, Note_off_c, 0, 67, 1
2, 30300, Note_on_c, 0, 75, 64
2, 30360, Note_off_c, 0, 75, 46
2, 30360, Note_on_c, 0, 74, 64
2, 30420, Note_off_c, 0, 74, 61
2, 30420, Note_on_c, 0, 75, 64
2, 30480, Note_off_c, 0, 75, 77
2, 30480, Note_on_c, 0, 65, 64
2, 30540, Note_off_c, 0, 65, 53
2, 30540, Note_on_c, 0, 74, 64
2, 30600, Note_off_c, 0, 74, 68
2, 30600, Note_on_c, 0, 72, 64
2, 30660, Note_off_c, 0, 72, 68
2, 30660, Note_on_c, 0, 74, 64
2, 30720, Note_off_c, 0, 74, 55
2, 30720, Note_on_c, 0, 63, 64
2, 30780, Note_off_c, 0, 63, 39
2, 30780, Note_on_c, 0, 72, 64
2, 30840, Note_off_c, 0, 72, 50
2, 30840, Note_on_c, 0, 71, 64
2, 30900, Note_off_c, 0, 71, 80
2, 30900, Note_on_c, 0, 72, 64
2, 30960, Note_off_c, 0, 72, 62
2, 30960, Note_on_c, 0, 68, 64
2, 31020, Note_off_c, 0, 68, 82
2, 31020, Note_on_c, 0, 65, 64
2, 31080, Note_off_c, 0, 65, 29
2, 31080, Note_on_c, 0, 63, 64
2, 31140, Note_off_c, 0, 63, 49
2, 31140, Note_on_c, 0, 65, 64
2, 31200, Note_off_c, 0, 65, 62
2, 31200, Note_on_c, 0, 67, 64
2, 31260, Note_off_c, 0, 67, 48
2, 31260, Note_on_c, 0, 63, 64
2, 31320, Note_off_c, 0, 63, 48
2, 31320, Note_on_c, 0, 62, 64
2, 31380, Note_off_c, 0, 62, 33
2, 31380, Note_on_c, 0, 63, 64
2, 31440, Note_off_c, 0, 63, 59
2, 31440, Note_on_c, 0, 65, 64
2, 31500, Note_off_c, 0, 65, 52
2, 31500, Note_on_c, 0, 62, 64
2, 31560, Note_off_c, 0, 62, 52
2, 31560, Note_on_c, 0, 60, 64
2, 31620, Note_off_c, 0, 60, 62
2, 31620, Note_on_c, 0, 62, 64
2, 31680, Note_off_c, 0, 62, 70
2, 31695, Note_on_c, 0, 60, 64
2, 31700, Note_on_c, 0, 64, 64
2, 31830, Note_off_c, 0, 64, 64
2, 31830, Note_on_c, 0, 60, 64
2, 31860, Note_off_c, 0, 60, 64
2, 31860, Note_on_c, 0, 62, 64
2, 31890, Note_off_c, 0, 62, 64
2, 31890, Note_on_c, 0, 64, 64
2, 31920, Note_off_c, 0, 64, 64
2, 31920, Note_off_c, 0, 60, 64
2, 31920, Note_on_c, 0, 65, 60
2, 31935, Note_off_c, 0, 65, 64
2, 31936, Note_on_c, 0, 67, 61
2, 31950, Note_on_c, 0, 68, 62
2, 31951, Note_off_c, 0, 67, 64
2, 31965, Note_off_c, 0, 68, 64
2, 31966, Note_on_c, 0, 70, 63
2, 31980, Note_on_c, 0, 72, 64
2, 31981, Note_off_c, 0, 70, 64
2, 31995, Note_off_c, 0, 72, 64
2, 31996, Note_on_c, 0, 70, 66
2, 32010, Note_on_c, 0, 68, 67
2, 32011, Note_off_c, 0, 70, 64
2, 32025, Note_off_c, 0, 68, 64
2, 32026, Note_on_c, 0, 67, 64
2, 32040, Note_on_c, 0, 65, 64
2, 32041, Note_off_c, 0, 67, 64
2, 32100, Note_off_c, 0, 65, 64
2, 32100, Note_on_c, 0, 67, 64
2, 32130, Note_off_c, 0, 67, 64
2, 32130, Note_on_c, 0, 64, 64
2, 32160, Note_off_c, 0, 64, 64
2, 32160, Note_on_c, 0, 65, 70
2, 32173, Note_off_c, 0, 65, 64
2, 32173, Note_on_c, 0, 64, 64
2, 32178, Note_on_c, 0, 60, 64
2, 32183, Note_off_c, 0, 64, 64
2, 32183, Note_on_c, 0, 65, 64
2, 32313, Note_off_c, 0, 65, 64
2, 32313, Note_on_c, 0, 67, 64
2, 32343, Note_off_c, 0, 67, 49
2, 32343, Note_on_c, 0, 65, 64
2, 32373, Note_off_c, 0, 65, 1
2, 32373, Note_on_c, 0, 64, 64
2, 32403, Note_off_c, 0, 64, 42
2, 32403, Note_off_c, 0, 60, 64
2, 32403, Note_on_c, 0, 65, 64
2, 32433, Note_off_c, 0, 65, 1
2, 32433, Note_on_c, 0, 67, 64
2, 32463, Note_off_c, 0, 67, 36
2, 32463, Note_on_c, 0, 68, 64
2, 32493, Note_off_c, 0, 68, 52
2, 32493, Note_on_c, 0, 67, 64
2, 32523, Note_off_c, 0, 67, 40
2, 32523, Note_on_c, 0, 65, 64
2, 32538, Note_off_c, 0, 65, 1
2, 32538, Note_on_c, 0, 63, 64
2, 32553, Note_off_c, 0, 63, 38
2, 32553, Note_on_c, 0, 62, 61
2, 32568, Note_off_c, 0, 62, 50
2, 32568, Note_on_c, 0, 63, 62
2, 32583, Note_off_c, 0, 63, 63
2, 32583, Note_on_c, 0, 65, 64
2, 32598, Note_off_c, 0, 65, 1
2, 32598, Note_on_c, 0, 62, 66
2, 32613, Note_off_c, 0, 62, 53
2, 32613, Note_on_c, 0, 63, 67
2, 32628, Note_off_c, 0, 63, 51
2, 32628, Note_on_c, 0, 65, 69
2, 32643, Note_off_c, 0, 65, 1
2, 32643, Note_on_c, 0, 59, 64
2, 32823, Note_off_c, 0, 59, 61
2, 32823, Note_on_c, 0, 50, 64
2, 32883, Note_off_c, 0, 50, 68
2, 32883, Note_on_c, 0, 53, 64
2, 32943, Note_off_c, 0, 53, 52
2, 32943, Note_on_c, 0, 56, 64
2, 33003, Note_off_c, 0, 56, 42
2, 33003, Note_on_c, 0, 55, 64
2, 33063, Note_off_c, 0, 55, 58
2, 33063, Note_on_c, 0, 53, 64
2, 33123, Note_off_c, 0, 53, 41
2, 33123, Note_on_c, 0, 59, 64
2, 33183, Note_off_c, 0, 59, 62
2, 33183, Note_on_c, 0, 53, 64
2, 33243, Note_off_c, 0, 53, 51
2, 33243, Note_on_c, 0, 62, 64
2, 33303, Note_off_c, 0, 62, 51
2, 33303, Note_on_c, 0, 53, 64
2, 33363, Note_off_c, 0, 53, 38
2, 33363, Note_on_c, 0, 59, 64
2, 33423, Note_off_c, 0, 59, 52
2, 33423, Note_on_c, 0, 56, 64
2, 33483, Note_off_c, 0, 56, 41
2, 33483, Note_on_c, 0, 55, 64
2, 33543, Note_off_c, 0, 55, 43
2, 33543, Note_on_c, 0, 53, 64
2, 33603, Note_off_c, 0, 53, 48
2, 33603, Note_on_c, 0, 52, 64
2, 33663, Note_off_c, 0, 52, 46
2, 33663, Note_on_c, 0, 61, 64
2, 33723, Note_off_c, 0, 61, 65
2, 33723, Note_on_c, 0, 58, 64
2, 33783, Note_off_c, 0, 58, 62
2, 33783, Note_on_c, 0, 55, 64
2, 33843, Note_off_c, 0, 55, 49
2, 33843, Note_on_c, 0, 60, 64
2, 33903, Note_off_c, 0, 60, 73
2, 33903, Note_on_c, 0, 56, 64
2, 33963, Note_off_c, 0, 56, 49
2, 33963, Note_on_c, 0, 53, 64
2, 34023, Note_off_c, 0, 53, 42
2, 34023, Note_on_c, 0, 56, 64
2, 34083, Note_off_c, 0, 56, 59
2, 34083, Note_on_c, 0, 55, 64
2, 34143, Note_off_c, 0, 55, 53
2, 34143, Note_on_c, 0, 58, 64
2, 34203, Note_off_c, 0, 58, 58
2, 34203, Note_on_c, 0, 55, 64
2, 34263, Note_off_c, 0, 55, 55
2, 34263, Note_on_c, 0, 52, 64
2, 34323, Note_off_c, 0, 52, 51
2, 34323, Note_on_c, 0, 56, 64
2, 34383, Note_off_c, 0, 56, 52
2, 34383, Note_on_c, 0, 53, 64
2, 34443, Note_off_c, 0, 53, 53
2, 34443, Note_on_c, 0, 50, 64
2, 34503, Note_off_c, 0, 50, 45
2, 34503, Note_on_c, 0, 53, 64
2, 34563, Note_off_c, 0, 53, 52
2, 34563, Note_on_c, 0, 52, 64
2, 34623, Note_off_c, 0, 52, 57
2, 34623, Note_on_c, 0, 55, 64
2, 34683, Note_off_c, 0, 55, 53
2, 34683, Note_on_c, 0, 52, 64
2, 34743, Note_off_c, 0, 52, 59
2, 34743, Note_on_c, 0, 48, 64
2, 34803, Note_off_c, 0, 48, 39
2, 34803, Note_on_c, 0, 53, 64
2, 34863, Note_off_c, 0, 53, 53
2, 34863, Note_on_c, 0, 50, 64
2, 34923, Note_off_c, 0, 50, 45
2, 34923, Note_on_c, 0, 47, 64
2, 34983, Note_off_c, 0, 47, 51
2, 34983, Note_on_c, 0, 50, 64
2, 35043, Note_off_c, 0, 50, 61
2, 35223, Note_on_c, 0, 50, 64
2, 35283, Note_off_c, 0, 50, 55
2, 35283, Note_on_c, 0, 52, 64
2, 35343, Note_off_c, 0, 52, 50
2, 35343, Note_on_c, 0, 55, 64
2, 35403, Note_off_c, 0, 55, 55
2, 35403, Note_on_c, 0, 58, 64
2, 35463, Note_off_c, 0, 58, 57
2, 35463, Note_on_c, 0, 55, 64
2, 35523, Note_off_c, 0, 55, 48
2, 35523, Note_on_c, 0, 56, 64
2, 35583, Note_off_c, 0, 56, 48
2, 35583, Note_on_c, 0, 60, 64
2, 35643, Note_off_c, 0, 60, 73
2, 35643, Note_on_c, 0, 65, 64
2, 35703, Note_off_c, 0, 65, 1
2, 35703, Note_on_c, 0, 62, 64
2, 35763, Note_off_c, 0, 62, 61
2, 35763, Note_on_c, 0, 65, 64
2, 35823, Note_off_c, 0, 65, 57
2, 35823, Note_on_c, 0, 68, 64
2, 35883, Note_off_c, 0, 68, 63
2, 35883, Note_on_c, 0, 72, 64
2, 35943, Note_off_c, 0, 72, 82
2, 35943, Note_on_c, 0, 71, 64
2, 36003, Note_off_c, 0, 71, 83
2, 36003, Note_on_c, 0, 72, 64
2, 36063, Note_off_c, 0, 72, 83
2, 36063, Note_on_c, 0, 67, 64
2, 36123, Note_off_c, 0, 67, 61
2, 36123, Note_on_c, 0, 65, 64
2, 36183, Note_off_c, 0, 65, 68
2, 36183, Note_on_c, 0, 62, 64
2, 36243, Note_off_c, 0, 62, 66
2, 36243, Note_on_c, 0, 64, 64
2, 36271, Note_on_c, 0, 62, 64
2, 36273, Note_off_c, 0, 64, 64
2, 36299, Note_on_c, 0, 64, 64
2, 36301, Note_off_c, 0, 62, 64
2, 36969, Note_off_c, 0, 64, 64
2, 36969, End_track
3, 0, Start_track
3, 0, Text_t, "LH B"
3, 0, Note_on_c, 1, 48, 64
3, 60, Note_off_c, 1, 48, 45
3, 60, Note_on_c, 1, 55, 64
3, 120, Note_off_c, 1, 55, 57
3, 120, Note_on_c, 1, 53, 64
3, 180, Note_off_c, 1, 53, 46
3, 180, Note_on_c, 1, 55, 64
3, 240, Note_off_c, 1, 55, 65
3, 240, Note_on_c, 1, 51, 64
3, 300, Note_off_c, 1, 51, 55
3, 300, Note_on_c, 1, 55, 64
3, 360, Note_off_c, 1, 55, 58
3, 360, Note_on_c, 1, 53, 64
3, 420, Note_off_c, 1, 53, 55
3, 420, Note_on_c, 1, 55, 64
3, 480, Note_off_c, 1, 55, 55
3, 480, Note_on_c, 1, 48, 64
3, 540, Note_off_c, 1, 48, 52
3, 540, Note_on_c, 1, 55, 64
3, 600, Note_off_c, 1, 55, 59
3, 600, Note_on_c, 1, 53, 64
3, 660, Note_off_c, 1, 53, 49
3, 660, Note_on_c, 1, 55, 64
3, 720, Note_off_c, 1, 55, 59
3, 720, Note_on_c, 1, 51, 64
3, 780, Note_off_c, 1, 51, 49
3, 780, Note_on_c, 1, 55, 64
3, 840, Note_off_c, 1, 55, 63
3, 840, Note_on_c, 1, 53, 64
3, 900, Note_off_c, 1, 53, 46
3, 900, Note_on_c, 1, 55, 64
3, 960, Note_off_c, 1, 55, 73
3, 960, Note_on_c, 1, 48, 64
3, 1020, Note_off_c, 1, 48, 52
3, 1020, Note_on_c, 1, 56, 64
3, 1080, Note_off_c, 1, 56, 70
3, 1080, Note_on_c, 1, 55, 64
3, 1140, Note_off_c, 1, 55, 58
3, 1140, Note_on_c, 1, 56, 64
3, 1200, Note_off_c, 1, 56, 49
3, 1200, Note_on_c, 1, 53, 64
3, 1260, Note_off_c, 1, 53, 54
3, 1260, Note_on_c, 1, 56, 64
3, 1320, Note_off_c, 1, 56, 55
3, 1320, Note_on_c, 1, 55, 64
3, 1380, Note_off_c, 1, 55, 65
3, 1380, Note_on_c, 1, 56, 64
3, 1440, Note_off_c, 1, 56, 66
3, 1440, Note_on_c, 1, 48, 64
3, 1500, Note_off_c, 1, 48, 73
3, 1500, Note_on_c, 1, 56, 64
3, 1560, Note_off_c, 1, 56, 68
3, 1560, Note_on_c, 1, 55, 64
3, 1620, Note_off_c, 1, 55, 54
3, 1620, Note_on_c, 1, 56, 64
3, 1680, Note_off_c, 1, 56, 69
3, 1680, Note_on_c, 1, 53, 64
3, 1740, Note_off_c, 1, 53, 61
3, 1740, Note_on_c, 1, 56, 64
3, 1800, Note_off_c, 1, 56, 58
3, 1800, Note_on_c, 1, 55, 64
3, 1860, Note_off_c, 1, 55, 61
3, 1860, Note_on_c, 1, 56, 64
3, 1920, Note_off_c, 1, 56, 66
3, 1920, Note_on_c, 1, 48, 64
3, 1980, Note_off_c, 1, 48, 63
3, 1980, Note_on_c, 1, 56, 64
3, 2040, Note_off_c, 1, 56, 59
3, 2040, Note_on_c, 1, 55, 64
3, 2100, Note_off_c, 1, 55, 69
3, 2100, Note_on_c, 1, 56, 64
3, 2160, Note_off_c, 1, 56, 59
3, 2160, Note_on_c, 1, 53, 64
3, 2220, Note_off_c, 1, 53, 53
3, 2220, Note_on_c, 1, 56, 64
3, 2280, Note_off_c, 1, 56, 61
3, 2280, Note_on_c, 1, 55, 64
3, 2340, Note_off_c, 1, 55, 68
3, 2340, Note_on_c, 1, 56, 64
3, 2400, Note_off_c, 1, 56, 66
3, 2400, Note_on_c, 1, 48, 64
3, 2460, Note_off_c, 1, 48, 65
3, 2460, Note_on_c, 1, 56, 64
3, 2520, Note_off_c, 1, 56, 57
3, 2520, Note_on_c, 1, 55, 64
3, 2580, Note_off_c, 1, 55, 59
3, 2580, Note_on_c, 1, 56, 64
3, 2640, Note_off_c, 1, 56, 59
3, 2640, Note_on_c, 1, 53, 64
3, 2700, Note_off_c, 1, 53, 58
3, 2700, Note_on_c, 1, 56, 64
3, 2760, Note_off_c, 1, 56, 51
3, 2760, Note_on_c, 1, 55, 64
3, 2820, Note_off_c, 1, 55, 55
3, 2820, Note_on_c, 1, 56, 64
3, 2880, Note_off_c, 1, 56, 58
3, 2880, Note_on_c, 1, 48, 64
3, 2940, Note_off_c, 1, 48, 70
3, 2940, Note_on_c, 1, 51, 64
3, 3000, Note_off_c, 1, 51, 65
3, 3000, Note_on_c, 1, 50, 64
3, 3060, Note_off_c, 1, 50, 33
3, 3060, Note_on_c, 1, 51, 64
3, 3120, Note_off_c, 1, 51, 68
3, 3120, Note_on_c, 1, 55, 64
3, 3180, Note_off_c, 1, 55, 50
3, 3180, Note_on_c, 1, 51, 64
3, 3240, Note_off_c, 1, 51, 58
3, 3240, Note_on_c, 1, 50, 64
3, 3300, Note_off_c, 1, 50, 66
3, 3300, Note_on_c, 1, 51, 64
3, 3360, Note_off_c, 1, 51, 68
3, 3360, Note_on_c, 1, 48, 64
3, 3420, Note_off_c, 1, 48, 70
3, 3420, Note_on_c, 1, 51, 64
3, 3480, Note_off_c, 1, 51, 68
3, 3480, Note_on_c, 1, 50, 64
3, 3540, Note_off_c, 1, 50, 45
3, 3540, Note_on_c, 1, 51, 64
3, 3600, Note_off_c, 1, 51, 65
3, 3600, Note_on_c, 1, 55, 64
3, 3660, Note_off_c, 1, 55, 54
3, 3660, Note_on_c, 1, 51, 64
3, 3720, Note_off_c, 1, 51, 54
3, 3720, Note_on_c, 1, 50, 64
3, 3780, Note_off_c, 1, 50, 49
3, 3780, Note_on_c, 1, 51, 64
3, 3840, Note_off_c, 1, 51, 74
3, 3840, Note_on_c, 1, 48, 64
3, 3900, Note_off_c, 1, 48, 73
3, 3900, Note_on_c, 1, 60, 64
3, 3960, Note_off_c, 1, 60, 57
3, 3960, Note_on_c, 1, 58, 64
3, 4020, Note_off_c, 1, 58, 69
3, 4020, Note_on_c, 1, 60, 64
3, 4080, Note_off_c, 1, 60, 58
3, 4080, Note_on_c, 1, 56, 64
3, 4140, Note_off_c, 1, 56, 66
3, 4140, Note_on_c, 1, 60, 64
3, 4200, Note_off_c, 1, 60, 52
3, 4200, Note_on_c, 1, 58, 64
3, 4260, Note_off_c, 1, 58, 72
3, 4260, Note_on_c, 1, 60, 64
3, 4320, Note_off_c, 1, 60, 68
3, 4320, Note_on_c, 1, 48, 64
3, 4380, Note_off_c, 1, 48, 66
3, 4380, Note_on_c, 1, 60, 64
3, 4440, Note_off_c, 1, 60, 49
3, 4440, Note_on_c, 1, 58, 64
3, 4500, Note_off_c, 1, 58, 63
3, 4500, Note_on_c, 1, 60, 64
3, 4560, Note_off_c, 1, 60, 46
3, 4560, Note_on_c, 1, 56, 64
3, 4620, Note_off_c, 1, 56, 63
3, 4620, Note_on_c, 1, 60, 64
3, 4680, Note_off_c, 1, 60, 54
3, 4680, Note_on_c, 1, 58, 64
3, 4740, Note_off_c, 1, 58, 63
3, 4740, Note_on_c, 1, 60, 64
3, 4800, Note_off_c, 1, 60, 70
3, 4800, Note_on_c, 1, 48, 64
3, 4860, Note_off_c, 1, 48, 70
3, 4860, Note_on_c, 1, 57, 64
3, 4920, Note_off_c, 1, 57, 65
3, 4920, Note_on_c, 1, 55, 64
3, 4980, Note_off_c, 1, 55, 34
3, 4980, Note_on_c, 1, 57, 64
3, 5040, Note_off_c, 1, 57, 57
3, 5040, Note_on_c, 1, 54, 64
3, 5100, Note_off_c, 1, 54, 61
3, 5100, Note_on_c, 1, 57, 64
3, 5160, Note_off_c, 1, 57, 54
3, 5160, Note_on_c, 1, 55, 64
3, 5220, Note_off_c, 1, 55, 72
3, 5220, Note_on_c, 1, 57, 64
3, 5280, Note_off_c, 1, 57, 58
3, 5280, Note_on_c, 1, 48, 64
3, 5340, Note_off_c, 1, 48, 68
3, 5340, Note_on_c, 1, 57, 64
3, 5400, Note_off_c, 1, 57, 49
3, 5400, Note_on_c, 1, 55, 64
3, 5460, Note_off_c, 1, 55, 70
3, 5460, Note_on_c, 1, 57, 64
3, 5520, Note_off_c, 1, 57, 52
3, 5520, Note_on_c, 1, 54, 64
3, 5580, Note_off_c, 1, 54, 66
3, 5580, Note_on_c, 1, 57, 64
3, 5640, Note_off_c, 1, 57, 54
3, 5640, Note_on_c, 1, 55, 64
3, 5700, Note_off_c, 1, 55, 58
3, 5700, Note_on_c, 1, 57, 64
3, 5760, Note_off_c, 1, 57, 68
3, 5760, Note_on_c, 1, 46, 64
3, 5820, Note_off_c, 1, 46, 73
3, 5820, Note_on_c, 1, 58, 64
3, 5880, Note_off_c, 1, 58, 59
3, 5880, Note_on_c, 1, 57, 64
3, 5940, Note_off_c, 1, 57, 51
3, 5940, Note_on_c, 1, 58, 64
3, 6000, Note_off_c, 1, 58, 61
3, 6000, Note_on_c, 1, 55, 64
3, 6060, Note_off_c, 1, 55, 52
3, 6060, Note_on_c, 1, 58, 64
3, 6120, Note_off_c, 1, 58, 49
3, 6120, Note_on_c, 1, 57, 64
3, 6180, Note_off_c, 1, 57, 43
3, 6180, Note_on_c, 1, 58, 64
3, 6240, Note_off_c, 1, 58, 66
3, 6240, Note_on_c, 1, 46, 64
3, 6300, Note_off_c, 1, 46, 70
3, 6300, Note_on_c, 1, 58, 64
3, 6360, Note_off_c, 1, 58, 53
3, 6360, Note_on_c, 1, 57, 64
3, 6420, Note_off_c, 1, 57, 53
3, 6420, Note_on_c, 1, 58, 64
3, 6480, Note_off_c, 1, 58, 69
3, 6480, Note_on_c, 1, 55, 64
3, 6540, Note_off_c, 1, 55, 53
3, 6540, Note_on_c, 1, 58, 64
3, 6600, Note_off_c, 1, 58, 59
3, 6600, Note_on_c, 1, 57, 64
3, 6660, Note_off_c, 1, 57, 39
3, 6660, Note_on_c, 1, 58, 64
3, 6720, Note_off_c, 1, 58, 58
3, 6720, Note_on_c, 1, 46, 64
3, 6780, Note_off_c, 1, 46, 58
3, 6780, Note_on_c, 1, 55, 64
3, 6840, Note_off_c, 1, 55, 63
3, 6840, Note_on_c, 1, 53, 64
3, 6900, Note_off_c, 1, 53, 49
3, 6900, Note_on_c, 1, 55, 64
3, 6960, Note_off_c, 1, 55, 61
3, 6960, Note_on_c, 1, 52, 64
3, 7020, Note_off_c, 1, 52, 54
3, 7020, Note_on_c, 1, 55, 64
3, 7080, Note_off_c, 1, 55, 58
3, 7080, Note_on_c, 1, 53, 64
3, 7140, Note_off_c, 1, 53, 52
3, 7140, Note_on_c, 1, 55, 64
3, 7200, Note_off_c, 1, 55, 65
3, 7200, Note_on_c, 1, 46, 64
3, 7260, Note_off_c, 1, 46, 76
3, 7260, Note_on_c, 1, 55, 64
3, 7320, Note_off_c, 1, 55, 65
3, 7320, Note_on_c, 1, 53, 64
3, 7380, Note_off_c, 1, 53, 53
3, 7380, Note_on_c, 1, 55, 64
3, 7440, Note_off_c, 1, 55, 63
3, 7440, Note_on_c, 1, 52, 64
3, 7500, Note_off_c, 1, 52, 52
3, 7500, Note_on_c, 1, 55, 64
3, 7560, Note_off_c, 1, 55, 61
3, 7560, Note_on_c, 1, 53, 64
3, 7620, Note_off_c, 1, 53, 46
3, 7620, Note_on_c, 1, 55, 64
3, 7680, Note_off_c, 1, 55, 69
3, 7680, Note_on_c, 1, 44, 64
3, 7740, Note_off_c, 1, 44, 72
3, 7740, Note_on_c, 1, 56, 64
3, 7800, Note_off_c, 1, 56, 51
3, 7800, Note_on_c, 1, 55, 64
3, 7860, Note_off_c, 1, 55, 61
3, 7860, Note_on_c, 1, 56, 64
3, 7920, Note_off_c, 1, 56, 66
3, 7920, Note_on_c, 1, 53, 64
3, 7980, Note_off_c, 1, 53, 65
3, 7980, Note_on_c, 1, 56, 64
3, 8040, Note_off_c, 1, 56, 51
3, 8040, Note_on_c, 1, 55, 64
3, 8100, Note_off_c, 1, 55, 57
3, 8100, Note_on_c, 1, 56, 64
3, 8160, Note_off_c, 1, 56, 68
3, 8160, Note_on_c, 1, 44, 64
3, 8220, Note_off_c, 1, 44, 70
3, 8220, Note_on_c, 1, 56, 64
3, 8280, Note_off_c, 1, 56, 52
3, 8280, Note_on_c, 1, 55, 64
3, 8340, Note_off_c, 1, 55, 63
3, 8340, Note_on_c, 1, 56, 64
3, 8400, Note_off_c, 1, 56, 65
3, 8400, Note_on_c, 1, 53, 64
3, 8460, Note_off_c, 1, 53, 54
3, 8460, Note_on_c, 1, 56, 64
3, 8520, Note_off_c, 1, 56, 46
3, 8520, Note_on_c, 1, 55, 64
3, 8580, Note_off_c, 1, 55, 62
3, 8580, Note_on_c, 1, 56, 64
3, 8640, Note_off_c, 1, 56, 69
3, 8640, Note_on_c, 1, 44, 64
3, 8700, Note_off_c, 1, 44, 62
3, 8700, Note_on_c, 1, 50, 64
3, 8760, Note_off_c, 1, 50, 65
3, 8760, Note_on_c, 1, 48, 64
3, 8820, Note_off_c, 1, 48, 40
3, 8820, Note_on_c, 1, 50, 64
3, 8880, Note_off_c, 1, 50, 63
3, 8880, Note_on_c, 1, 53, 64
3, 8940, Note_off_c, 1, 53, 42
3, 8940, Note_on_c, 1, 50, 64
3, 9000, Note_off_c, 1, 50, 54
3, 9000, Note_on_c, 1, 48, 64
3, 9060, Note_off_c, 1, 48, 48
3, 9060, Note_on_c, 1, 50, 64
3, 9120, Note_off_c, 1, 50, 63
3, 9120, Note_on_c, 1, 44, 64
3, 9180, Note_off_c, 1, 44, 72
3, 9180, Note_on_c, 1, 50, 64
3, 9240, Note_off_c, 1, 50, 70
3, 9240, Note_on_c, 1, 48, 64
3, 9300, Note_off_c, 1, 48, 42
3, 9300, Note_on_c, 1, 50, 64
3, 9360, Note_off_c, 1, 50, 57
3, 9360, Note_on_c, 1, 53, 64
3, 9420, Note_off_c, 1, 53, 46
3, 9420, Note_on_c, 1, 50, 64
3, 9480, Note_off_c, 1, 50, 61
3, 9480, Note_on_c, 1, 48, 64
3, 9540, Note_off_c, 1, 48, 55
3, 9540, Note_on_c, 1, 50, 64
3, 9600, Note_off_c, 1, 50, 69
3, 9600, Note_on_c, 1, 43, 64
3, 9660, Note_off_c, 1, 43, 52
3, 9660, Note_on_c, 1, 51, 64
3, 9720, Note_off_c, 1, 51, 65
3, 9720, Note_on_c, 1, 50, 64
3, 9780, Note_off_c, 1, 50, 39
3, 9780, Note_on_c, 1, 51, 64
3, 9840, Note_off_c, 1, 51, 62
3, 9840, Note_on_c, 1, 55, 64
3, 9900, Note_off_c, 1, 55, 47
3, 9900, Note_on_c, 1, 51, 64
3, 9960, Note_off_c, 1, 51, 52
3, 9960, Note_on_c, 1, 50, 64
3, 10020, Note_off_c, 1, 50, 59
3, 10020, Note_on_c, 1, 51, 64
3, 10080, Note_off_c, 1, 51, 68
3, 10080, Note_on_c, 1, 43, 64
3, 10140, Note_off_c, 1, 43, 61
3, 10140, Note_on_c, 1, 51, 64
3, 10200, Note_off_c, 1, 51, 63
3, 10200, Note_on_c, 1, 50, 64
3, 10260, Note_off_c, 1, 50, 53
3, 10260, Note_on_c, 1, 51, 64
3, 10320, Note_off_c, 1, 51, 69
3, 10320, Note_on_c, 1, 55, 64
3, 10380, Note_off_c, 1, 55, 57
3, 10380, Note_on_c, 1, 51, 64
3, 10440, Note_off_c, 1, 51, 57
3, 10440, Note_on_c, 1, 50, 64
3, 10500, Note_off_c, 1, 50, 54
3, 10500, Note_on_c, 1, 51, 64
3, 10560, Note_off_c, 1, 51, 63
3, 10560, Note_on_c, 1, 48, 64
3, 10620, Note_off_c, 1, 48, 52
3, 10620, Note_on_c, 1, 51, 64
3, 10680, Note_off_c, 1, 51, 73
3, 10680, Note_on_c, 1, 50, 64
3, 10740, Note_off_c, 1, 50, 37
3, 10740, Note_on_c, 1, 51, 64
3, 10800, Note_off_c, 1, 51, 69
3, 10800, Note_on_c, 1, 56, 64
3, 10860, Note_off_c, 1, 56, 50
3, 10860, Note_on_c, 1, 51, 64
3, 10920, Note_off_c, 1, 51, 62
3, 10920, Note_on_c, 1, 50, 64
3, 10980, Note_off_c, 1, 50, 52
3, 10980, Note_on_c, 1, 51, 64
3, 11040, Note_off_c, 1, 51, 61
3, 11040, Note_on_c, 1, 48, 64
3, 11100, Note_off_c, 1, 48, 45
3, 11100, Note_on_c, 1, 51, 64
3, 11160, Note_off_c, 1, 51, 65
3, 11160, Note_on_c, 1, 50, 64
3, 11220, Note_off_c, 1, 50, 15
3, 11220, Note_on_c, 1, 51, 64
3, 11280, Note_off_c, 1, 51, 62
3, 11280, Note_on_c, 1, 56, 64
3, 11340, Note_off_c, 1, 56, 42
3, 11340, Note_on_c, 1, 51, 64
3, 11400, Note_off_c, 1, 51, 62
3, 11400, Note_on_c, 1, 50, 64
3, 11460, Note_off_c, 1, 50, 46
3, 11460, Note_on_c, 1, 51, 64
3, 11520, Note_off_c, 1, 51, 59
3, 11520, Note_on_c, 1, 50, 64
3, 11580, Note_off_c, 1, 50, 33
3, 11580, Note_on_c, 1, 53, 64
3, 11640, Note_off_c, 1, 53, 52
3, 11640, Note_on_c, 1, 51, 64
3, 11700, Note_off_c, 1, 51, 62
3, 11700, Note_on_c, 1, 53, 64
3, 11760, Note_off_c, 1, 53, 57
3, 11760, Note_on_c, 1, 56, 64
3, 11820, Note_off_c, 1, 56, 54
3, 11820, Note_on_c, 1, 53, 64
3, 11880, Note_off_c, 1, 53, 57
3, 11880, Note_on_c, 1, 51, 64
3, 11940, Note_off_c, 1, 51, 62
3, 11940, Note_on_c, 1, 53, 64
3, 12000, Note_off_c, 1, 53, 61
3, 12000, Note_on_c, 1, 50, 64
3, 12060, Note_off_c, 1, 50, 43
3, 12060, Note_on_c, 1, 53, 64
3, 12120, Note_off_c, 1, 53, 46
3, 12120, Note_on_c, 1, 51, 64
3, 12180, Note_off_c, 1, 51, 61
3, 12180, Note_on_c, 1, 53, 64
3, 12240, Note_off_c, 1, 53, 61
3, 12240, Note_on_c, 1, 56, 64
3, 12300, Note_off_c, 1, 56, 57
3, 12300, Note_on_c, 1, 53, 64
3, 12360, Note_off_c, 1, 53, 54
3, 12360, Note_on_c, 1, 51, 64
3, 12420, Note_off_c, 1, 51, 59
3, 12420, Note_on_c, 1, 53, 64
3, 12480, Note_off_c, 1, 53, 57
3, 12480, Note_on_c, 1, 51, 64
3, 12540, Note_off_c, 1, 51, 59
3, 12540, Note_on_c, 1, 55, 64
3, 12600, Note_off_c, 1, 55, 55
3, 12600, Note_on_c, 1, 53, 64
3, 12660, Note_off_c, 1, 53, 53
3, 12660, Note_on_c, 1, 55, 64
3, 12720, Note_off_c, 1, 55, 70
3, 12720, Note_on_c, 1, 56, 64
3, 12780, Note_off_c, 1, 56, 70
3, 12780, Note_on_c, 1, 55, 64
3, 12840, Note_off_c, 1, 55, 68
3, 12840, Note_on_c, 1, 53, 64
3, 12900, Note_off_c, 1, 53, 49
3, 12900, Note_on_c, 1, 55, 64
3, 12960, Note_off_c, 1, 55, 54
3, 12960, Note_on_c, 1, 51, 64
3, 13020, Note_off_c, 1, 51, 68
3, 13020, Note_on_c, 1, 55, 64
3, 13080, Note_off_c, 1, 55, 68
3, 13080, Note_on_c, 1, 53, 64
3, 13140, Note_off_c, 1, 53, 48
3, 13140, Note_on_c, 1, 55, 64
3, 13200, Note_off_c, 1, 55, 61
3, 13200, Note_on_c, 1, 56, 64
3, 13260, Note_off_c, 1, 56, 69
3, 13260, Note_on_c, 1, 55, 64
3, 13320, Note_off_c, 1, 55, 66
3, 13320, Note_on_c, 1, 53, 64
3, 13380, Note_off_c, 1, 53, 48
3, 13380, Note_on_c, 1, 55, 64
3, 13440, Note_off_c, 1, 55, 70
3, 13440, Note_on_c, 1, 51, 64
3, 13500, Note_off_c, 1, 51, 62
3, 13500, Note_on_c, 1, 57, 64
3, 13560, Note_off_c, 1, 57, 54
3, 13560, Note_on_c, 1, 55, 64
3, 13620, Note_off_c, 1, 55, 55
3, 13620, Note_on_c, 1, 57, 64
3, 13680, Note_off_c, 1, 57, 54
3, 13680, Note_on_c, 1, 53, 64
3, 13740, Note_off_c, 1, 53, 38
3, 13740, Note_on_c, 1, 57, 64
3, 13800, Note_off_c, 1, 57, 55
3, 13800, Note_on_c, 1, 55, 64
3, 13860, Note_off_c, 1, 55, 54
3, 13860, Note_on_c, 1, 57, 64
3, 13920, Note_off_c, 1, 57, 55
3, 13920, Note_on_c, 1, 51, 64
3, 13980, Note_off_c, 1, 51, 68
3, 13980, Note_on_c, 1, 57, 64
3, 14040, Note_off_c, 1, 57, 53
3, 14040, Note_on_c, 1, 55, 64
3, 14100, Note_off_c, 1, 55, 68
3, 14100, Note_on_c, 1, 57, 64
3, 14160, Note_off_c, 1, 57, 57
3, 14160, Note_on_c, 1, 53, 64
3, 14220, Note_off_c, 1, 53, 44
3, 14220, Note_on_c, 1, 57, 64
3, 14280, Note_off_c, 1, 57, 52
3, 14280, Note_on_c, 1, 55, 64
3, 14340, Note_off_c, 1, 55, 55
3, 14340, Note_on_c, 1, 57, 64
3, 14400, Note_off_c, 1, 57, 65
3, 14400, Note_on_c, 1, 50, 64
3, 14460, Note_off_c, 1, 50, 76
3, 14460, Note_on_c, 1, 53, 64
3, 14520, Note_off_c, 1, 53, 61
3, 14520, Note_on_c, 1, 51, 64
3, 14580, Note_off_c, 1, 51, 68
3, 14580, Note_on_c, 1, 53, 64
3, 14640, Note_off_c, 1, 53, 50
3, 14640, Note_on_c, 1, 56, 64
3, 14700, Note_off_c, 1, 56, 49
3, 14700, Note_on_c, 1, 53, 64
3, 14760, Note_off_c, 1, 53, 57
3, 14760, Note_on_c, 1, 51, 64
3, 14820, Note_off_c, 1, 51, 62
3, 14820, Note_on_c, 1, 53, 64
3, 14880, Note_off_c, 1, 53, 59
3, 14880, Note_on_c, 1, 50, 64
3, 14940, Note_off_c, 1, 50, 74
3, 14940, Note_on_c, 1, 53, 64
3, 15000, Note_off_c, 1, 53, 52
3, 15000, Note_on_c, 1, 51, 64
3, 15060, Note_off_c, 1, 51, 69
3, 15060, Note_on_c, 1, 53, 64
3, 15120, Note_off_c, 1, 53, 50
3, 15120, Note_on_c, 1, 56, 64
3, 15180, Note_off_c, 1, 56, 52
3, 15180, Note_on_c, 1, 53, 64
3, 15240, Note_off_c, 1, 53, 50
3, 15240, Note_on_c, 1, 51, 64
3, 15300, Note_off_c, 1, 51, 52
3, 15300, Note_on_c, 1, 53, 64
3, 15360, Note_off_c, 1, 53, 46
3, 15360, Note_on_c, 1, 48, 64
3, 15420, Note_off_c, 1, 48, 46
3, 15420, Note_on_c, 1, 53, 64
3, 15480, Note_off_c, 1, 53, 65
3, 15480, Note_on_c, 1, 52, 64
3, 15540, Note_off_c, 1, 52, 46
3, 15540, Note_on_c, 1, 53, 64
3, 15600, Note_off_c, 1, 53, 61
3, 15600, Note_on_c, 1, 56, 64
3, 15660, Note_off_c, 1, 56, 50
3, 15660, Note_on_c, 1, 53, 64
3, 15720, Note_off_c, 1, 53, 69
3, 15720, Note_on_c, 1, 52, 64
3, 15780, Note_off_c, 1, 52, 65
3, 15780, Note_on_c, 1, 53, 64
3, 15840, Note_off_c, 1, 53, 69
3, 15840, Note_on_c, 1, 48, 64
3, 15900, Note_off_c, 1, 48, 73
3, 15900, Note_on_c, 1, 53, 64
3, 15960, Note_off_c, 1, 53, 68
3, 15960, Note_on_c, 1, 52, 64
3, 16020, Note_off_c, 1, 52, 51
3, 16020, Note_on_c, 1, 53, 64
3, 16080, Note_off_c, 1, 53, 54
3, 16080, Note_on_c, 1, 56, 64
3, 16140, Note_off_c, 1, 56, 36
3, 16140, Note_on_c, 1, 53, 64
3, 16200, Note_off_c, 1, 53, 63
3, 16200, Note_on_c, 1, 52, 64
3, 16260, Note_off_c, 1, 52, 50
3, 16260, Note_on_c, 1, 53, 64
3, 16320, Note_off_c, 1, 53, 70
3, 16320, Note_on_c, 1, 48, 64
3, 16380, Note_off_c, 1, 48, 74
3, 16380, Note_on_c, 1, 51, 64
3, 16440, Note_off_c, 1, 51, 55
3, 16440, Note_on_c, 1, 50, 64
3, 16500, Note_off_c, 1, 50, 52
3, 16500, Note_on_c, 1, 51, 64
3, 16560, Note_off_c, 1, 51, 54
3, 16560, Note_on_c, 1, 53, 64
3, 16620, Note_off_c, 1, 53, 42
3, 16620, Note_on_c, 1, 51, 64
3, 16680, Note_off_c, 1, 51, 53
3, 16680, Note_on_c, 1, 50, 64
3, 16740, Note_off_c, 1, 50, 51
3, 16740, Note_on_c, 1, 51, 64
3, 16800, Note_off_c, 1, 51, 63
3, 16800, Note_on_c, 1, 46, 64
3, 16860, Note_off_c, 1, 46, 58
3, 16860, Note_on_c, 1, 51, 64
3, 16920, Note_off_c, 1, 51, 55
3, 16920, Note_on_c, 1, 50, 64
3, 16980, Note_off_c, 1, 50, 49
3, 16980, Note_on_c, 1, 51, 64
3, 17040, Note_off_c, 1, 51, 52
3, 17040, Note_on_c, 1, 53, 64
3, 17100, Note_off_c, 1, 53, 44
3, 17100, Note_on_c, 1, 51, 64
3, 17160, Note_off_c, 1, 51, 57
3, 17160, Note_on_c, 1, 50, 64
3, 17220, Note_off_c, 1, 50, 49
3, 17220, Note_on_c, 1, 51, 64
3, 17280, Note_off_c, 1, 51, 58
3, 17280, Note_on_c, 1, 44, 64
3, 17340, Note_off_c, 1, 44, 54
3, 17340, Note_on_c, 1, 48, 64
3, 17400, Note_off_c, 1, 48, 70
3, 17400, Note_on_c, 1, 47, 64
3, 17460, Note_off_c, 1, 47, 46
3, 17460, Note_on_c, 1, 48, 64
3, 17520, Note_off_c, 1, 48, 55
3, 17520, Note_on_c, 1, 50, 64
3, 17580, Note_off_c, 1, 50, 52
3, 17580, Note_on_c, 1, 48, 64
3, 17640, Note_off_c, 1, 48, 62
3, 17640, Note_on_c, 1, 47, 64
3, 17700, Note_off_c, 1, 47, 58
3, 17700, Note_on_c, 1, 48, 64
3, 17760, Note_off_c, 1, 48, 66
3, 17760, Note_on_c, 1, 44, 64
3, 17820, Note_off_c, 1, 44, 62
3, 17820, Note_on_c, 1, 48, 64
3, 17880, Note_off_c, 1, 48, 61
3, 17880, Note_on_c, 1, 47, 64
3, 17940, Note_off_c, 1, 47, 43
3, 17940, Note_on_c, 1, 48, 64
3, 18000, Note_off_c, 1, 48, 61
3, 18000, Note_on_c, 1, 50, 64
3, 18060, Note_off_c, 1, 50, 46
3, 18060, Note_on_c, 1, 48, 64
3, 18120, Note_off_c, 1, 48, 57
3, 18120, Note_on_c, 1, 47, 64
3, 18180, Note_off_c, 1, 47, 52
3, 18180, Note_on_c, 1, 48, 64
3, 18240, Note_off_c, 1, 48, 70
3, 18240, Note_on_c, 1, 45, 64
3, 18300, Note_off_c, 1, 45, 66
3, 18300, Note_on_c, 1, 51, 64
3, 18360, Note_off_c, 1, 51, 58
3, 18360, Note_on_c, 1, 50, 64
3, 18420, Note_off_c, 1, 50, 68
3, 18420, Note_on_c, 1, 51, 64
3, 18480, Note_off_c, 1, 51, 59
3, 18480, Note_on_c, 1, 48, 64
3, 18540, Note_off_c, 1, 48, 40
3, 18540, Note_on_c, 1, 51, 64
3, 18600, Note_off_c, 1, 51, 54
3, 18600, Note_on_c, 1, 50, 64
3, 18660, Note_off_c, 1, 50, 54
3, 18660, Note_on_c, 1, 51, 64
3, 18720, Note_off_c, 1, 51, 61
3, 18720, Note_on_c, 1, 45, 64
3, 18780, Note_off_c, 1, 45, 62
3, 18780, Note_on_c, 1, 51, 64
3, 18840, Note_off_c, 1, 51, 49
3, 18840, Note_on_c, 1, 50, 64
3, 18900, Note_off_c, 1, 50, 53
3, 18900, Note_on_c, 1, 51, 64
3, 18960, Note_off_c, 1, 51, 52
3, 18960, Note_on_c, 1, 48, 64
3, 19020, Note_off_c, 1, 48, 42
3, 19020, Note_on_c, 1, 51, 64
3, 19080, Note_off_c, 1, 51, 49
3, 19080, Note_on_c, 1, 50, 64
3, 19140, Note_off_c, 1, 50, 54
3, 19140, Note_on_c, 1, 51, 64
3, 19200, Note_off_c, 1, 51, 61
3, 19200, Note_on_c, 1, 43, 64
3, 19260, Note_off_c, 1, 43, 58
3, 19260, Note_on_c, 1, 51, 64
3, 19320, Note_off_c, 1, 51, 61
3, 19320, Note_on_c, 1, 50, 64
3, 19380, Note_off_c, 1, 50, 52
3, 19380, Note_on_c, 1, 51, 64
3, 19440, Note_off_c, 1, 51, 40
3, 19440, Note_on_c, 1, 53, 64
3, 19500, Note_off_c, 1, 53, 48
3, 19500, Note_on_c, 1, 51, 64
3, 19560, Note_off_c, 1, 51, 55
3, 19560, Note_on_c, 1, 50, 64
3, 19620, Note_off_c, 1, 50, 58
3, 19620, Note_on_c, 1, 51, 64
3, 19680, Note_off_c, 1, 51, 65
3, 19680, Note_on_c, 1, 43, 64
3, 19740, Note_off_c, 1, 43, 62
3, 19740, Note_on_c, 1, 51, 64
3, 19800, Note_off_c, 1, 51, 57
3, 19800, Note_on_c, 1, 50, 64
3, 19860, Note_off_c, 1, 50, 53
3, 19860, Note_on_c, 1, 51, 64
3, 19920, Note_off_c, 1, 51, 52
3, 19920, Note_on_c, 1, 53, 64
3, 19980, Note_off_c, 1, 53, 49
3, 19980, Note_on_c, 1, 51, 64
3, 20040, Note_off_c, 1, 51, 54
3, 20040, Note_on_c, 1, 50, 64
3, 20100, Note_off_c, 1, 50, 52
3, 20100, Note_on_c, 1, 51, 64
3, 20160, Note_off_c, 1, 51, 65
3, 20160, Note_on_c, 1, 43, 64
3, 20220, Note_off_c, 1, 43, 58
3, 20220, Note_on_c, 1, 51, 64
3, 20280, Note_off_c, 1, 51, 57
3, 20280, Note_on_c, 1, 50, 64
3, 20340, Note_off_c, 1, 50, 54
3, 20340, Note_on_c, 1, 51, 64
3, 20400, Note_off_c, 1, 51, 57
3, 20400, Note_on_c, 1, 48, 64
3, 20460, Note_off_c, 1, 48, 47
3, 20460, Note_on_c, 1, 51, 64
3, 20520, Note_off_c, 1, 51, 54
3, 20520, Note_on_c, 1, 50, 64
3, 20580, Note_off_c, 1, 50, 54
3, 20580, Note_on_c, 1, 51, 64
3, 20640, Note_off_c, 1, 51, 62
3, 20640, Note_on_c, 1, 43, 64
3, 20700, Note_off_c, 1, 43, 52
3, 20700, Note_on_c, 1, 51, 64
3, 20760, Note_off_c, 1, 51, 58
3, 20760, Note_on_c, 1, 50, 64
3, 20820, Note_off_c, 1, 50, 55
3, 20820, Note_on_c, 1, 51, 64
3, 20880, Note_off_c, 1, 51, 66
3, 20880, Note_on_c, 1, 48, 64
3, 20940, Note_off_c, 1, 48, 43
3, 20940, Note_on_c, 1, 51, 64
3, 21000, Note_off_c, 1, 51, 53
3, 21000, Note_on_c, 1, 50, 64
3, 21060, Note_off_c, 1, 50, 65
3, 21060, Note_on_c, 1, 51, 64
3, 21120, Note_off_c, 1, 51, 61
3, 21120, Note_on_c, 1, 43, 64
3, 21180, Note_off_c, 1, 43, 55
3, 21180, Note_on_c, 1, 51, 64
3, 21240, Note_off_c, 1, 51, 55
3, 21240, Note_on_c, 1, 50, 64
3, 21300, Note_off_c, 1, 50, 61
3, 21300, Note_on_c, 1, 51, 64
3, 21360, Note_off_c, 1, 51, 59
3, 21360, Note_on_c, 1, 53, 64
3, 21420, Note_off_c, 1, 53, 46
3, 21420, Note_on_c, 1, 51, 64
3, 21480, Note_off_c, 1, 51, 50
3, 21480, Note_on_c, 1, 50, 64
3, 21540, Note_off_c, 1, 50, 57
3, 21540, Note_on_c, 1, 51, 64
3, 21600, Note_off_c, 1, 51, 62
3, 21600, Note_on_c, 1, 43, 64
3, 21660, Note_off_c, 1, 43, 58
3, 21660, Note_on_c, 1, 51, 64
3, 21720, Note_off_c, 1, 51, 52
3, 21720, Note_on_c, 1, 50, 64
3, 21780, Note_off_c, 1, 50, 49
3, 21780, Note_on_c, 1, 51, 64
3, 21840, Note_off_c, 1, 51, 59
3, 21840, Note_on_c, 1, 53, 64
3, 21900, Note_off_c, 1, 53, 48
3, 21900, Note_on_c, 1, 51, 64
3, 21960, Note_off_c, 1, 51, 57
3, 21960, Note_on_c, 1, 50, 64
3, 22020, Note_off_c, 1, 50, 62
3, 22020, Note_on_c, 1, 51, 64
3, 22080, Note_off_c, 1, 51, 62
3, 22080, Note_on_c, 1, 43, 64
3, 22140, Note_off_c, 1, 43, 55
3, 22140, Note_on_c, 1, 51, 64
3, 22200, Note_off_c, 1, 51, 52
3, 22200, Note_on_c, 1, 50, 64
3, 22260, Note_off_c, 1, 50, 52
3, 22260, Note_on_c, 1, 51, 64
3, 22320, Note_off_c, 1, 51, 54
3, 22320, Note_on_c, 1, 53, 64
3, 22380, Note_off_c, 1, 53, 49
3, 22380, Note_on_c, 1, 51, 64
3, 22440, Note_off_c, 1, 51, 50
3, 22440, Note_on_c, 1, 50, 64
3, 22500, Note_off_c, 1, 50, 49
3, 22500, Note_on_c, 1, 51, 64
3, 22560, Note_off_c, 1, 51, 66
3, 22560, Note_on_c, 1, 43, 64
3, 22620, Note_off_c, 1, 43, 63
3, 22620, Note_on_c, 1, 51, 64
3, 22680, Note_off_c, 1, 51, 52
3, 22680, Note_on_c, 1, 50, 64
3, 22740, Note_off_c, 1, 50, 57
3, 22740, Note_on_c, 1, 51, 64
3, 22800, Note_off_c, 1, 51, 52
3, 22800, Note_on_c, 1, 53, 64
3, 22860, Note_off_c, 1, 53, 43
3, 22860, Note_on_c, 1, 51, 64
3, 22920, Note_off_c, 1, 51, 59
3, 22920, Note_on_c, 1, 50, 64
3, 22980, Note_off_c, 1, 50, 53
3, 22980, Note_on_c, 1, 51, 64
3, 23040, Note_off_c, 1, 51, 61
3, 23040, Note_on_c, 1, 43, 64
3, 23100, Note_off_c, 1, 43, 72
3, 23100, Note_on_c, 1, 47, 64
3, 23160, Note_off_c, 1, 47, 57
3, 23160, Note_on_c, 1, 50, 64
3, 23220, Note_off_c, 1, 50, 80
3, 24000, Note_on_c, 1, 43, 64
3, 24060, Note_off_c, 1, 43, 45
3, 24060, Note_on_c, 1, 48, 64
3, 24120, Note_off_c, 1, 48, 55
3, 24120, Note_on_c, 1, 51, 64
3, 24180, Note_off_c, 1, 51, 79
3, 24960, Note_on_c, 1, 43, 64
3, 25020, Note_off_c, 1, 43, 52
3, 25020, Note_on_c, 1, 45, 64
3, 25080, Note_off_c, 1, 45, 72
3, 25080, Note_on_c, 1, 54, 64
3, 25140, Note_off_c, 1, 54, 77
3, 25920, Note_on_c, 1, 43, 64
3, 26939, Note_off_c, 1, 43, 72
3, 26940, Note_on_c, 1, 62, 64
3, 27000, Note_off_c, 1, 62, 62
3, 27000, Note_on_c, 1, 60, 64
3, 27060, Note_off_c, 1, 60, 52
3, 27060, Note_on_c, 1, 62, 64
3, 27120, Note_off_c, 1, 62, 59
3, 27120, Note_on_c, 1, 63, 64
3, 27180, Note_off_c, 1, 63, 49
3, 27180, Note_on_c, 1, 60, 64
3, 27240, Note_off_c, 1, 60, 70
3, 27240, Note_on_c, 1, 59, 64
3, 27300, Note_off_c, 1, 59, 46
3, 27300, Note_on_c, 1, 60, 64
3, 27360, Note_off_c, 1, 60, 62
3, 27360, Note_on_c, 1, 57, 64
3, 27420, Note_off_c, 1, 57, 52
3, 27420, Note_on_c, 1, 60, 64
3, 27480, Note_off_c, 1, 60, 66
3, 27480, Note_on_c, 1, 59, 64
3, 27540, Note_off_c, 1, 59, 42
3, 27540, Note_on_c, 1, 60, 64
3, 27600, Note_off_c, 1, 60, 58
3, 27600, Note_on_c, 1, 62, 64
3, 27660, Note_off_c, 1, 62, 34
3, 27660, Note_on_c, 1, 59, 64
3, 27720, Note_off_c, 1, 59, 48
3, 27720, Note_on_c, 1, 57, 64
3, 27780, Note_off_c, 1, 57, 49
3, 27780, Note_on_c, 1, 59, 64
3, 27840, Note_off_c, 1, 59, 53
3, 27840, Note_on_c, 1, 55, 64
3, 27900, Note_off_c, 1, 55, 53
3, 27900, Note_on_c, 1, 59, 64
3, 27960, Note_off_c, 1, 59, 61
3, 27960, Note_on_c, 1, 57, 64
3, 28020, Note_off_c, 1, 57, 38
3, 28020, Note_on_c, 1, 59, 64
3, 28080, Note_off_c, 1, 59, 68
3, 28080, Note_on_c, 1, 60, 64
3, 28140, Note_off_c, 1, 60, 59
3, 28140, Note_on_c, 1, 56, 64
3, 28200, Note_off_c, 1, 56, 61
3, 28200, Note_on_c, 1, 55, 64
3, 28260, Note_off_c, 1, 55, 58
3, 28260, Note_on_c, 1, 56, 64
3, 28320, Note_off_c, 1, 56, 61
3, 28320, Note_on_c, 1, 53, 64
3, 28380, Note_off_c, 1, 53, 39
3, 28380, Note_on_c, 1, 57, 64
3, 28440, Note_off_c, 1, 57, 58
3, 28440, Note_on_c, 1, 55, 64
3, 28500, Note_off_c, 1, 55, 52
3, 28500, Note_on_c, 1, 57, 64
3, 28560, Note_off_c, 1, 57, 61
3, 28560, Note_on_c, 1, 59, 64
3, 28620, Note_off_c, 1, 59, 43
3, 28620, Note_on_c, 1, 55, 64
3, 28680, Note_off_c, 1, 55, 66
3, 28680, Note_on_c, 1, 53, 64
3, 28740, Note_off_c, 1, 53, 55
3, 28740, Note_on_c, 1, 55, 64
3, 28800, Note_off_c, 1, 55, 73
3, 28800, Note_on_c, 1, 51, 64
3, 28860, Note_off_c, 1, 51, 74
3, 28860, Note_on_c, 1, 67, 64
3, 28920, Note_off_c, 1, 67, 52
3, 28920, Note_on_c, 1, 65, 64
3, 28980, Note_off_c, 1, 65, 1
3, 28980, Note_on_c, 1, 67, 64
3, 29040, Note_off_c, 1, 67, 52
3, 29040, Note_on_c, 1, 68, 64
3, 29100, Note_off_c, 1, 68, 82
3, 29104, Note_on_c, 1, 65, 64
3, 29160, Note_on_c, 1, 63, 64
3, 29164, Note_off_c, 1, 65, 64
3, 29220, Note_off_c, 1, 63, 51
3, 29220, Note_on_c, 1, 65, 64
3, 29280, Note_off_c, 1, 65, 46
3, 29280, Note_on_c, 1, 62, 64
3, 29340, Note_off_c, 1, 62, 45
3, 29340, Note_on_c, 1, 65, 64
3, 29400, Note_off_c, 1, 65, 1
3, 29400, Note_on_c, 1, 63, 64
3, 29460, Note_off_c, 1, 63, 46
3, 29460, Note_on_c, 1, 65, 64
3, 29520, Note_off_c, 1, 65, 27
3, 29520, Note_on_c, 1, 67, 64
3, 29580, Note_off_c, 1, 67, 45
3, 29580, Note_on_c, 1, 63, 64
3, 29640, Note_off_c, 1, 63, 57
3, 29640, Note_on_c, 1, 62, 64
3, 29700, Note_off_c, 1, 62, 54
3, 29700, Note_on_c, 1, 63, 64
3, 29760, Note_off_c, 1, 63, 55
3, 29760, Note_on_c, 1, 60, 64
3, 29820, Note_off_c, 1, 60, 53
3, 29820, Note_on_c, 1, 63, 64
3, 29880, Note_off_c, 1, 63, 62
3, 29880, Note_on_c, 1, 62, 64
3, 29940, Note_off_c, 1, 62, 25
3, 29940, Note_on_c, 1, 63, 64
3, 30000, Note_off_c, 1, 63, 53
3, 30000, Note_on_c, 1, 65, 64
3, 30060, Note_off_c, 1, 65, 50
3, 30060, Note_on_c, 1, 62, 64
3, 30120, Note_off_c, 1, 62, 58
3, 30120, Note_on_c, 1, 60, 64
3, 30180, Note_off_c, 1, 60, 49
3, 30180, Note_on_c, 1, 62, 64
3, 30240, Note_off_c, 1, 62, 59
3, 30240, Note_on_c, 1, 63, 64
3, 30300, Note_off_c, 1, 63, 47
3, 30300, Note_on_c, 1, 60, 64
3, 30360, Note_off_c, 1, 60, 63
3, 30360, Note_on_c, 1, 59, 64
3, 30420, Note_off_c, 1, 59, 46
3, 30420, Note_on_c, 1, 60, 64
3, 30480, Note_off_c, 1, 60, 68
3, 30480, Note_on_c, 1, 62, 64
3, 30540, Note_off_c, 1, 62, 49
3, 30540, Note_on_c, 1, 59, 64
3, 30600, Note_off_c, 1, 59, 58
3, 30600, Note_on_c, 1, 57, 64
3, 30660, Note_off_c, 1, 57, 40
3, 30660, Note_on_c, 1, 59, 64
3, 30720, Note_off_c, 1, 59, 50
3, 30720, Note_on_c, 1, 60, 64
3, 30780, Note_off_c, 1, 60, 69
3, 30780, Note_on_c, 1, 63, 64
3, 30840, Note_off_c, 1, 63, 57
3, 30840, Note_on_c, 1, 62, 64
3, 30900, Note_off_c, 1, 62, 49
3, 30900, Note_on_c, 1, 63, 64
3, 30960, Note_off_c, 1, 63, 25
3, 30960, Note_on_c, 1, 53, 64
3, 31020, Note_off_c, 1, 53, 51
3, 31020, Note_on_c, 1, 62, 64
3, 31080, Note_off_c, 1, 62, 49
3, 31080, Note_on_c, 1, 60, 64
3, 31140, Note_off_c, 1, 60, 61
3, 31140, Note_on_c, 1, 62, 64
3, 31200, Note_off_c, 1, 62, 58
3, 31200, Note_on_c, 1, 51, 64
3, 31260, Note_off_c, 1, 51, 62
3, 31260, Note_on_c, 1, 60, 64
3, 31320, Note_off_c, 1, 60, 53
3, 31320, Note_on_c, 1, 59, 64
3, 31380, Note_off_c, 1, 59, 59
3, 31380, Note_on_c, 1, 60, 64
3, 31440, Note_off_c, 1, 60, 66
3, 31440, Note_on_c, 1, 50, 64
3, 31500, Note_off_c, 1, 50, 73
3, 31500, Note_on_c, 1, 59, 64
3, 31560, Note_off_c, 1, 59, 52
3, 31560, Note_on_c, 1, 57, 64
3, 31620, Note_off_c, 1, 57, 61
3, 31620, Note_on_c, 1, 59, 64
3, 31680, Note_off_c, 1, 59, 73
3, 31680, Note_on_c, 1, 48, 60
3, 31685, Note_on_c, 1, 55, 60
3, 31690, Note_on_c, 1, 58, 60
3, 31920, Note_off_c, 1, 58, 76
3, 31920, Note_off_c, 1, 55, 74
3, 31920, Note_off_c, 1, 48, 73
3, 32160, Note_on_c, 1, 48, 60
3, 32165, Note_on_c, 1, 53, 60
3, 32170, Note_on_c, 1, 56, 60
3, 32400, Note_off_c, 1, 56, 74
3, 32400, Note_off_c, 1, 53, 72
3, 32400, Note_off_c, 1, 48, 58
3, 32700, Note_on_c, 1, 36, 64
3, 32760, Note_on_c, 1, 47, 64
3, 33600, Note_off_c, 1, 47, 62
3, 33600, Note_off_c, 1, 36, 25
3, 35040, Note_on_c, 1, 36, 64
3, 35100, Note_on_c, 1, 43, 64
3, 35160, Note_on_c, 1, 48, 64
3, 36960, Note_off_c, 1, 48, 74
3, 36960, Note_off_c, 1, 43, 53
3, 36960, Note_off_c, 1, 36, 40
3, 36960, End_track
0, 0, End_of_file
