0, 0, Header, 1, 4, 240
1, 0, Start_track
1, 0, Time_signature, 4, 2, 24, 8
1, 0, Tempo, 731707
1, 50880, Tempo, 740741
1, 51120, Tempo, 759494
1, 51360, Tempo, 779221
1, 51588, Tempo, 833333
1, 51840, Tempo, 869565
1, 51960, Tempo, 923077
1, 52080, Tempo, 983607
1, 52224, Tempo, 1034483
1, 52224, End_track
2, 0, Start_track
2, 0, Text_t, "RH H"
2, 360, Note_on_c, 0, 68, 64
2, 480, Note_off_c, 0, 68, 80
2, 480, Note_on_c, 0, 70, 64
2, 540, Note_off_c, 0, 70, 74
2, 540, Note_on_c, 0, 68, 64
2, 600, Note_off_c, 0, 68, 85
2, 600, Note_on_c, 0, 66, 64
2, 660, Note_off_c, 0, 66, 48
2, 660, Note_on_c, 0, 68, 64
2, 720, Note_off_c, 0, 68, 82
2, 720, Note_on_c, 0, 77, 64
2, 840, Note_off_c, 0, 77, 73
2, 840, Note_on_c, 0, 73, 64
2, 960, Note_off_c, 0, 73, 77
2, 960, Note_on_c, 0, 68, 64
2, 1080, Note_off_c, 0, 68, 74
2, 1080, Note_on_c, 0, 66, 64
2, 1140, Note_off_c, 0, 66, 61
2, 1140, Note_on_c, 0, 65, 64
2, 1200, Note_off_c, 0, 65, 10
2, 1200, Note_on_c, 0, 66, 64
2, 1320, Note_off_c, 0, 66, 80
2, 1320, Note_on_c, 0, 75, 64
2, 1440, Note_off_c, 0, 75, 52
2, 1440, Note_on_c, 0, 65, 64
2, 1560, Note_off_c, 0, 65, 51
2, 1560, Note_on_c, 0, 73, 64
2, 1680, Note_off_c, 0, 73, 66
2, 1680, Note_on_c, 0, 63, 64
2, 1800, Note_off_c, 0, 63, 63
2, 1800, Note_on_c, 0, 72, 64
2, 1920, Note_off_c, 0, 72, 83
2, 1920, Note_on_c, 0, 61, 64
2, 2040, Note_off_c, 0, 61, 74
2, 2040, Note_on_c, 0, 73, 64
2, 2100, Note_off_c, 0, 73, 51
2, 2100, Note_on_c, 0, 72, 64
2, 2160, Note_off_c, 0, 72, 47
2, 2160, Note_on_c, 0, 73, 64
2, 2220, Note_off_c, 0, 73, 53
2, 2220, Note_on_c, 0, 75, 64
2, 2280, Note_off_c, 0, 75, 49
2, 2280, Note_on_c, 0, 77, 64
2, 2340, Note_off_c, 0, 77, 57
2, 2340, Note_on_c, 0, 78, 64
2, 2400, Note_off_c, 0, 78, 74
2, 2400, Note_on_c, 0, 80, 64
2, 2460, Note_off_c, 0, 80, 80
2, 2460, Note_on_c, 0, 79, 64
2, 2520, Note_off_c, 0, 79, 74
2, 2520, Note_on_c, 0, 77, 64
2, 2580, Note_off_c, 0, 77, 69
2, 2580, Note_on_c, 0, 79, 64
2, 2640, Note_off_c, 0, 79, 72
2, 2640, Note_on_c, 0, 80, 64
2, 2700, Note_off_c, 0, 80, 76
2, 2700, Note_on_c, 0, 78, 64
2, 2760, Note_off_c, 0, 78, 77
2, 2760, Note_on_c, 0, 77, 64
2, 2820, Note_off_c, 0, 77, 72
2, 2820, Note_on_c, 0, 75, 64
2, 2880, Note_off_c, 0, 75, 59
2, 2880, Note_on_c, 0, 77, 64
2, 3180, Note_off_c, 0, 77, 68
2, 3180, Note_on_c, 0, 75, 64
2, 3240, Note_off_c, 0, 75, 52
2, 3240, Note_on_c, 0, 73, 64
2, 3300, Note_off_c, 0, 73, 72
2, 3300, Note_on_c, 0, 77, 64
2, 3360, Note_off_c, 0, 77, 72
2, 3360, Note_on_c, 0, 75, 64
2, 3420, Note_off_c, 0, 75, 52
2, 3420, Note_on_c, 0, 73, 64
2, 3480, Note_off_c, 0, 73, 66
2, 3480, Note_on_c, 0, 72, 64
2, 3540, Note_off_c, 0, 72, 77
2, 3540, Note_on_c, 0, 75, 64
2, 3600, Note_off_c, 0, 75, 55
2, 3600, Note_on_c, 0, 73, 64
2, 3660, Note_off_c, 0, 73, 77
2, 3660, Note_on_c, 0, 72, 64
2, 3720, Note_off_c, 0, 72, 80
2, 3720, Note_on_c, 0, 73, 64
2, 3780, Note_off_c, 0, 73, 66
2, 3780, Note_on_c, 0, 70, 64
2, 3840, Note_off_c, 0, 70, 77
2, 3840, Note_on_c, 0, 70, 64
2, 3870, Note_off_c, 0, 70, 64
2, 3870, Note_on_c, 0, 72, 64
2, 3960, Note_on_c, 0, 75, 64
2, 3990, Note_off_c, 0, 72, 76
2, 4080, Note_off_c, 0, 75, 63
2, 4080, Note_on_c, 0, 78, 64
2, 4560, Note_off_c, 0, 78, 54
2, 4560, Note_on_c, 0, 77, 64
2, 5040, Note_off_c, 0, 77, 73
2, 5040, Note_on_c, 0, 75, 64
2, 5400, Note_off_c, 0, 75, 66
2, 5400, Note_on_c, 0, 73, 64
2, 5520, Note_off_c, 0, 73, 66
2, 5520, Note_on_c, 0, 72, 64
2, 5640, Note_off_c, 0, 72, 74
2, 5640, Note_on_c, 0, 75, 64
2, 5880, Note_on_c, 0, 68, 64
2, 5887, Note_off_c, 0, 75, 58
2, 6000, Note_off_c, 0, 68, 74
2, 6000, Note_on_c, 0, 77, 64
2, 6350, Note_off_c, 0, 77, 49
2, 6360, Note_on_c, 0, 77, 64
2, 6420, Note_off_c, 0, 77, 68
2, 6420, Note_on_c, 0, 73, 64
2, 6480, Note_off_c, 0, 73, 70
2, 6480, Note_on_c, 0, 70, 64
2, 6830, Note_off_c, 0, 70, 72
2, 6840, Note_on_c, 0, 70, 64
2, 6960, Note_off_c, 0, 70, 74
2, 6960, Note_on_c, 0, 75, 64
2, 7300, Note_off_c, 0, 75, 39
2, 7320, Note_on_c, 0, 75, 64
2, 7380, Note_off_c, 0, 75, 53
2, 7380, Note_on_c, 0, 72, 64
2, 7440, Note_off_c, 0, 72, 82
2, 7440, Note_on_c, 0, 68, 64
2, 7790, Note_off_c, 0, 68, 40
2, 7800, Note_on_c, 0, 68, 64
2, 7920, Note_off_c, 0, 68, 82
2, 7920, Note_on_c, 0, 73, 64
2, 8220, Note_off_c, 0, 73, 43
2, 8220, Note_on_c, 0, 72, 64
2, 8280, Note_off_c, 0, 72, 77
2, 8280, Note_on_c, 0, 73, 64
2, 8340, Note_off_c, 0, 73, 80
2, 8340, Note_on_c, 0, 70, 64
2, 8400, Note_off_c, 0, 70, 79
2, 8400, Note_on_c, 0, 82, 64
2, 8700, Note_off_c, 0, 82, 76
2, 8700, Note_on_c, 0, 80, 64
2, 8760, Note_off_c, 0, 80, 83
2, 8760, Note_on_c, 0, 79, 64
2, 8820, Note_off_c, 0, 79, 65
2, 8820, Note_on_c, 0, 82, 64
2, 8880, Note_off_c, 0, 82, 69
2, 8880, Note_on_c, 0, 80, 64
2, 8940, Note_off_c, 0, 80, 88
2, 8940, Note_on_c, 0, 75, 64
2, 9000, Note_off_c, 0, 75, 49
2, 9000, Note_on_c, 0, 77, 64
2, 9060, Note_off_c, 0, 77, 72
2, 9060, Note_on_c, 0, 78, 64
2, 9120, Note_off_c, 0, 78, 49
2, 9120, Note_on_c, 0, 77, 64
2, 9180, Note_off_c, 0, 77, 76
2, 9180, Note_on_c, 0, 75, 64
2, 9240, Note_off_c, 0, 75, 51
2, 9240, Note_on_c, 0, 73, 64
2, 9300, Note_off_c, 0, 73, 69
2, 9300, Note_on_c, 0, 75, 64
2, 9360, Note_off_c, 0, 75, 72
2, 9360, Note_on_c, 0, 84, 64
2, 9480, Note_off_c, 0, 84, 66
2, 9480, Note_on_c, 0, 80, 64
2, 9600, Note_off_c, 0, 80, 77
2, 9600, Note_on_c, 0, 75, 64
2, 9720, Note_off_c, 0, 75, 54
2, 9720, Note_on_c, 0, 73, 64
2, 9780, Note_off_c, 0, 73, 65
2, 9780, Note_on_c, 0, 72, 64
2, 9840, Note_off_c, 0, 72, 61
2, 9840, Note_on_c, 0, 73, 64
2, 9960, Note_off_c, 0, 73, 74
2, 9960, Note_on_c, 0, 82, 64
2, 10080, Note_off_c, 0, 82, 55
2, 10080, Note_on_c, 0, 72, 64
2, 10200, Note_off_c, 0, 72, 80
2, 10200, Note_on_c, 0, 80, 64
2, 10320, Note_off_c, 0, 80, 54
2, 10320, Note_on_c, 0, 70, 64
2, 10440, Note_off_c, 0, 70, 76
2, 10440, Note_on_c, 0, 79, 64
2, 10560, Note_off_c, 0, 79, 69
2, 10560, Note_on_c, 0, 68, 64
2, 10620, Note_off_c, 0, 68, 82
2, 10620, Note_on_c, 0, 70, 64
2, 10680, Note_off_c, 0, 70, 58
2, 10680, Note_on_c, 0, 72, 64
2, 10740, Note_off_c, 0, 72, 82
2, 10740, Note_on_c, 0, 73, 64
2, 10800, Note_off_c, 0, 73, 69
2, 10800, Note_on_c, 0, 72, 64
2, 10860, Note_off_c, 0, 72, 70
2, 10860, Note_on_c, 0, 70, 64
2, 10920, Note_off_c, 0, 70, 53
2, 10920, Note_on_c, 0, 68, 64
2, 10980, Note_off_c, 0, 68, 70
2, 10980, Note_on_c, 0, 72, 64
2, 11040, Note_off_c, 0, 72, 85
2, 11040, Note_on_c, 0, 77, 64
2, 11100, Note_off_c, 0, 77, 70
2, 11100, Note_on_c, 0, 75, 64
2, 11160, Note_off_c, 0, 75, 62
2, 11160, Note_on_c, 0, 74, 64
2, 11220, Note_off_c, 0, 74, 76
2, 11220, Note_on_c, 0, 77, 64
2, 11280, Note_off_c, 0, 77, 76
2, 11280, Note_on_c, 0, 80, 64
2, 11340, Note_off_c, 0, 80, 77
2, 11340, Note_on_c, 0, 78, 64
2, 11400, Note_off_c, 0, 78, 72
2, 11400, Note_on_c, 0, 77, 64
2, 11460, Note_off_c, 0, 77, 63
2, 11460, Note_on_c, 0, 80, 64
2, 11520, Note_off_c, 0, 80, 80
2, 11520, Note_on_c, 0, 83, 64
2, 11540, Note_on_c, 0, 82, 64
2, 11542, Note_off_c, 0, 83, 64
2, 11560, Note_on_c, 0, 83, 64
2, 11562, Note_off_c, 0, 82, 64
2, 11640, Note_off_c, 0, 83, 64
2, 11640, Note_on_c, 0, 82, 64
2, 11700, Note_off_c, 0, 82, 54
2, 11700, Note_on_c, 0, 80, 64
2, 11760, Note_off_c, 0, 80, 62
2, 11760, Note_on_c, 0, 78, 64
2, 11820, Note_off_c, 0, 78, 77
2, 11820, Note_on_c, 0, 77, 64
2, 11880, Note_off_c, 0, 77, 74
2, 11880, Note_on_c, 0, 75, 64
2, 11940, Note_off_c, 0, 75, 44
2, 11940, Note_on_c, 0, 74, 64
2, 12000, Note_off_c, 0, 74, 58
2, 12000, Note_on_c, 0, 75, 64
2, 12060, Note_off_c, 0, 75, 66
2, 12060, Note_on_c, 0, 78, 64
2, 12120, Note_off_c, 0, 78, 77
2, 12120, Note_on_c, 0, 77, 64
2, 12180, Note_off_c, 0, 77, 72
2, 12180, Note_on_c, 0, 75, 64
2, 12240, Note_off_c, 0, 75, 52
2, 12240, Note_on_c, 0, 74, 64
2, 12300, Note_off_c, 0, 74, 76
2, 12300, Note_on_c, 0, 77, 64
2, 12360, Note_off_c, 0, 77, 69
2, 12360, Note_on_c, 0, 70, 64
2, 12420, Note_off_c, 0, 70, 58
2, 12420, Note_on_c, 0, 68, 64
2, 12480, Note_off_c, 0, 68, 66
2, 12480, Note_on_c, 0, 66, 64
2, 12540, Note_off_c, 0, 66, 70
2, 12540, Note_on_c, 0, 65, 64
2, 12600, Note_off_c, 0, 65, 1
2, 12600, Note_on_c, 0, 63, 64
2, 12660, Note_off_c, 0, 63, 55
2, 12660, Note_on_c, 0, 62, 64
2, 12720, Note_off_c, 0, 62, 54
2, 12720, Note_on_c, 0, 63, 64
2, 12780, Note_off_c, 0, 63, 49
2, 12780, Note_on_c, 0, 65, 64
2, 12840, Note_off_c, 0, 65, 39
2, 12840, Note_on_c, 0, 66, 64
2, 12900, Note_off_c, 0, 66, 76
2, 12900, Note_on_c, 0, 68, 64
2, 12960, Note_off_c, 0, 68, 54
2, 12960, Note_on_c, 0, 70, 64
2, 13020, Note_off_c, 0, 70, 72
2, 13020, Note_on_c, 0, 68, 64
2, 13080, Note_off_c, 0, 68, 69
2, 13080, Note_on_c, 0, 66, 64
2, 13140, Note_off_c, 0, 66, 69
2, 13140, Note_on_c, 0, 68, 64
2, 13200, Note_off_c, 0, 68, 69
2, 13200, Note_on_c, 0, 70, 64
2, 13260, Note_off_c, 0, 70, 76
2, 13260, Note_on_c, 0, 68, 64
2, 13320, Note_off_c, 0, 68, 72
2, 13320, Note_on_c, 0, 66, 64
2, 13380, Note_off_c, 0, 66, 79
2, 13380, Note_on_c, 0, 65, 64
2, 13440, Note_off_c, 0, 65, 58
2, 13440, Note_on_c, 0, 66, 64
2, 13740, Note_off_c, 0, 66, 43
2, 13740, Note_on_c, 0, 65, 64
2, 13800, Note_off_c, 0, 65, 62
2, 13800, Note_on_c, 0, 63, 64
2, 13860, Note_off_c, 0, 63, 58
2, 13860, Note_on_c, 0, 66, 64
2, 13920, Note_off_c, 0, 66, 1
2, 13920, Note_on_c, 0, 65, 64
2, 13980, Note_off_c, 0, 65, 59
2, 13980, Note_on_c, 0, 63, 64
2, 14040, Note_off_c, 0, 63, 52
2, 14040, Note_on_c, 0, 61, 64
2, 14100, Note_off_c, 0, 61, 70
2, 14100, Note_on_c, 0, 65, 64
2, 14160, Note_off_c, 0, 65, 72
2, 14160, Note_on_c, 0, 63, 64
2, 14220, Note_off_c, 0, 63, 51
2, 14220, Note_on_c, 0, 61, 64
2, 14280, Note_off_c, 0, 61, 69
2, 14280, Note_on_c, 0, 63, 64
2, 14340, Note_off_c, 0, 63, 55
2, 14340, Note_on_c, 0, 60, 64
2, 14400, Note_off_c, 0, 60, 1
2, 14400, Note_on_c, 0, 61, 64
2, 14460, Note_off_c, 0, 61, 1
2, 14460, Note_on_c, 0, 65, 64
2, 14520, Note_off_c, 0, 65, 65
2, 14520, Note_on_c, 0, 66, 64
2, 14580, Note_off_c, 0, 66, 77
2, 14580, Note_on_c, 0, 65, 64
2, 14640, Note_off_c, 0, 65, 66
2, 14640, Note_on_c, 0, 73, 64
2, 14940, Note_off_c, 0, 73, 45
2, 14940, Note_on_c, 0, 72, 64
2, 15000, Note_off_c, 0, 72, 73
2, 15000, Note_on_c, 0, 73, 64
2, 15060, Note_off_c, 0, 73, 77
2, 15060, Note_on_c, 0, 70, 64
2, 15120, Note_off_c, 0, 70, 83
2, 15120, Note_on_c, 0, 82, 64
2, 15420, Note_off_c, 0, 82, 66
2, 15420, Note_on_c, 0, 63, 64
2, 15480, Note_off_c, 0, 63, 66
2, 15480, Note_on_c, 0, 65, 64
2, 15540, Note_off_c, 0, 65, 61
2, 15540, Note_on_c, 0, 63, 64
2, 15600, Note_off_c, 0, 63, 70
2, 15600, Note_on_c, 0, 72, 64
2, 15900, Note_off_c, 0, 72, 73
2, 15900, Note_on_c, 0, 70, 64
2, 15960, Note_off_c, 0, 70, 74
2, 15960, Note_on_c, 0, 72, 64
2, 16020, Note_off_c, 0, 72, 85
2, 16020, Note_on_c, 0, 68, 64
2, 16080, Note_off_c, 0, 68, 83
2, 16080, Note_on_c, 0, 80, 64
2, 16380, Note_off_c, 0, 80, 77
2, 16380, Note_on_c, 0, 61, 64
2, 16440, Note_off_c, 0, 61, 66
2, 16440, Note_on_c, 0, 63, 64
2, 16500, Note_off_c, 0, 63, 61
2, 16500, Note_on_c, 0, 61, 64
2, 16560, Note_off_c, 0, 61, 79
2, 16560, Note_on_c, 0, 70, 64
2, 16860, Note_off_c, 0, 70, 73
2, 16860, Note_on_c, 0, 68, 64
2, 16920, Note_off_c, 0, 68, 72
2, 16920, Note_on_c, 0, 70, 64
2, 16980, Note_off_c, 0, 70, 80
2, 16980, Note_on_c, 0, 67, 64
2, 17040, Note_off_c, 0, 67, 45
2, 17040, Note_on_c, 0, 79, 64
2, 17340, Note_off_c, 0, 79, 65
2, 17340, Note_on_c, 0, 76, 64
2, 17400, Note_off_c, 0, 76, 57
2, 17400, Note_on_c, 0, 77, 64
2, 17460, Note_off_c, 0, 77, 77
2, 17460, Note_on_c, 0, 73, 64
2, 17520, Note_off_c, 0, 73, 80
2, 17520, Note_on_c, 0, 70, 64
2, 18000, Note_off_c, 0, 70, 65
2, 18000, Note_on_c, 0, 68, 64
2, 18480, Note_off_c, 0, 68, 49
2, 18480, Note_on_c, 0, 67, 64
2, 18840, Note_off_c, 0, 67, 62
2, 18840, Note_on_c, 0, 65, 64
2, 18960, Note_off_c, 0, 65, 54
2, 18960, Note_on_c, 0, 64, 64
2, 19080, Note_off_c, 0, 64, 45
2, 19080, Note_on_c, 0, 67, 64
2, 19200, Note_off_c, 0, 67, 63
2, 19200, Note_on_c, 0, 72, 64
2, 19260, Note_off_c, 0, 72, 73
2, 19260, Note_on_c, 0, 70, 64
2, 19320, Note_off_c, 0, 70, 63
2, 19320, Note_on_c, 0, 68, 64
2, 19380, Note_off_c, 0, 68, 79
2, 19380, Note_on_c, 0, 72, 64
2, 19440, Note_off_c, 0, 72, 77
2, 19440, Note_on_c, 0, 70, 64
2, 19500, Note_off_c, 0, 70, 69
2, 19500, Note_on_c, 0, 68, 64
2, 19560, Note_off_c, 0, 68, 70
2, 19560, Note_on_c, 0, 67, 64
2, 19620, Note_off_c, 0, 67, 61
2, 19620, Note_on_c, 0, 70, 64
2, 19680, Note_off_c, 0, 70, 61
2, 19680, Note_on_c, 0, 68, 64
2, 19740, Note_off_c, 0, 68, 72
2, 19740, Note_on_c, 0, 65, 64
2, 19800, Note_off_c, 0, 65, 43
2, 19800, Note_on_c, 0, 73, 64
2, 19860, Note_off_c, 0, 73, 68
2, 19860, Note_on_c, 0, 70, 64
2, 19920, Note_off_c, 0, 70, 49
2, 19920, Note_on_c, 0, 72, 64
2, 19980, Note_off_c, 0, 72, 76
2, 19980, Note_on_c, 0, 68, 64
2, 20040, Note_off_c, 0, 68, 83
2, 20040, Note_on_c, 0, 78, 64
2, 20100, Note_off_c, 0, 78, 43
2, 20100, Note_on_c, 0, 76, 64
2, 20155, Note_off_c, 0, 76, 55
2, 20160, Note_on_c, 0, 76, 64
2, 20220, Note_off_c, 0, 76, 48
2, 20220, Note_on_c, 0, 77, 64
2, 20280, Note_off_c, 0, 77, 70
2, 20280, Note_on_c, 0, 83, 64
2, 20340, Note_off_c, 0, 83, 72
2, 20340, Note_on_c, 0, 84, 64
2, 20400, Note_off_c, 0, 84, 63
2, 20400, Note_on_c, 0, 76, 64
2, 20422, Note_off_c, 0, 76, 46
2, 20422, Note_on_c, 0, 77, 64
2, 20444, Note_off_c, 0, 77, 43
2, 20444, Note_on_c, 0, 76, 64
2, 20466, Note_off_c, 0, 76, 40
2, 20466, Note_on_c, 0, 77, 64
2, 20488, Note_off_c, 0, 77, 57
2, 20488, Note_on_c, 0, 76, 64
2, 20510, Note_off_c, 0, 76, 39
2, 20510, Note_on_c, 0, 77, 64
2, 20532, Note_off_c, 0, 77, 54
2, 20532, Note_on_c, 0, 76, 64
2, 20577, Note_off_c, 0, 76, 43
2, 20580, Note_on_c, 0, 77, 64
2, 20630, Note_off_c, 0, 77, 74
2, 20640, Note_on_c, 0, 77, 64
2, 20877, Note_off_c, 0, 77, 82
2, 21000, Note_on_c, 0, 77, 64
2, 21120, Note_off_c, 0, 77, 76
2, 21120, Note_on_c, 0, 71, 64
2, 21180, Note_off_c, 0, 71, 66
2, 21180, Note_on_c, 0, 70, 64
2, 21240, Note_off_c, 0, 70, 73
2, 21240, Note_on_c, 0, 68, 64
2, 21300, Note_off_c, 0, 68, 79
2, 21300, Note_on_c, 0, 70, 64
2, 21360, Note_off_c, 0, 70, 82
2, 21360, Note_on_c, 0, 77, 64
2, 21480, Note_off_c, 0, 77, 70
2, 21480, Note_on_c, 0, 74, 64
2, 21600, Note_off_c, 0, 74, 68
2, 21600, Note_on_c, 0, 68, 64
2, 21720, Note_off_c, 0, 68, 65
2, 21720, Note_on_c, 0, 66, 64
2, 21780, Note_off_c, 0, 66, 53
2, 21780, Note_on_c, 0, 65, 64
2, 21840, Note_off_c, 0, 65, 42
2, 21840, Note_on_c, 0, 66, 64
2, 21960, Note_off_c, 0, 66, 66
2, 21960, Note_on_c, 0, 75, 64
2, 22080, Note_off_c, 0, 75, 72
2, 22080, Note_on_c, 0, 69, 64
2, 22140, Note_off_c, 0, 69, 74
2, 22140, Note_on_c, 0, 68, 64
2, 22200, Note_off_c, 0, 68, 83
2, 22200, Note_on_c, 0, 66, 64
2, 22260, Note_off_c, 0, 66, 55
2, 22260, Note_on_c, 0, 68, 64
2, 22320, Note_off_c, 0, 68, 63
2, 22320, Note_on_c, 0, 75, 64
2, 22440, Note_off_c, 0, 75, 48
2, 22440, Note_on_c, 0, 72, 64
2, 22560, Note_off_c, 0, 72, 62
2, 22560, Note_on_c, 0, 66, 64
2, 22680, Note_off_c, 0, 66, 69
2, 22680, Note_on_c, 0, 65, 64
2, 22740, Note_on_c, 0, 63, 64
2, 22747, Note_off_c, 0, 65, 48
2, 22800, Note_off_c, 0, 63, 72
2, 22800, Note_on_c, 0, 65, 64
2, 22860, Note_off_c, 0, 65, 33
2, 22860, Note_on_c, 0, 68, 64
2, 22920, Note_off_c, 0, 68, 59
2, 22920, Note_on_c, 0, 73, 64
2, 22980, Note_off_c, 0, 73, 61
2, 22980, Note_on_c, 0, 75, 64
2, 23040, Note_off_c, 0, 75, 55
2, 23040, Note_on_c, 0, 77, 64
2, 23100, Note_off_c, 0, 77, 66
2, 23100, Note_on_c, 0, 75, 64
2, 23160, Note_off_c, 0, 75, 61
2, 23160, Note_on_c, 0, 73, 64
2, 23220, Note_off_c, 0, 73, 77
2, 23220, Note_on_c, 0, 75, 64
2, 23280, Note_off_c, 0, 75, 69
2, 23280, Note_on_c, 0, 84, 64
2, 23400, Note_off_c, 0, 84, 70
2, 23400, Note_on_c, 0, 80, 64
2, 23520, Note_off_c, 0, 80, 80
2, 23520, Note_on_c, 0, 75, 64
2, 23640, Note_off_c, 0, 75, 46
2, 23640, Note_on_c, 0, 73, 64
2, 23700, Note_off_c, 0, 73, 61
2, 23700, Note_on_c, 0, 72, 64
2, 23760, Note_off_c, 0, 72, 54
2, 23760, Note_on_c, 0, 73, 64
2, 23880, Note_off_c, 0, 73, 76
2, 23880, Note_on_c, 0, 82, 64
2, 24000, Note_off_c, 0, 82, 62
2, 24000, Note_on_c, 0, 72, 64
2, 24120, Note_off_c, 0, 72, 69
2, 24120, Note_on_c, 0, 80, 64
2, 24240, Note_off_c, 0, 80, 66
2, 24240, Note_on_c, 0, 70, 64
2, 24360, Note_off_c, 0, 70, 73
2, 24360, Note_on_c, 0, 79, 64
2, 24480, Note_off_c, 0, 79, 44
2, 24480, Note_on_c, 0, 68, 64
2, 24540, Note_off_c, 0, 68, 1
2, 24540, Note_on_c, 0, 63, 64
2, 24600, Note_off_c, 0, 63, 59
2, 24600, Note_on_c, 0, 65, 64
2, 24660, Note_off_c, 0, 65, 51
2, 24660, Note_on_c, 0, 67, 64
2, 24720, Note_off_c, 0, 67, 62
2, 24720, Note_on_c, 0, 68, 64
2, 24780, Note_off_c, 0, 68, 49
2, 24780, Note_on_c, 0, 70, 64
2, 24840, Note_off_c, 0, 70, 69
2, 24840, Note_on_c, 0, 72, 64
2, 24900, Note_off_c, 0, 72, 80
2, 24900, Note_on_c, 0, 68, 64
2, 24960, Note_off_c, 0, 68, 80
2, 24960, Note_on_c, 0, 73, 64
2, 25020, Note_off_c, 0, 73, 77
2, 25020, Note_on_c, 0, 72, 64
2, 25080, Note_off_c, 0, 72, 68
2, 25080, Note_on_c, 0, 70, 64
2, 25140, Note_off_c, 0, 70, 66
2, 25140, Note_on_c, 0, 72, 64
2, 25200, Note_off_c, 0, 72, 68
2, 25200, Note_on_c, 0, 73, 64
2, 25260, Note_off_c, 0, 73, 29
2, 25260, Note_on_c, 0, 72, 64
2, 25320, Note_off_c, 0, 72, 76
2, 25320, Note_on_c, 0, 70, 64
2, 25380, Note_off_c, 0, 70, 72
2, 25380, Note_on_c, 0, 68, 64
2, 25440, Note_off_c, 0, 68, 72
2, 25440, Note_on_c, 0, 70, 64
2, 25740, Note_off_c, 0, 70, 74
2, 25740, Note_on_c, 0, 68, 64
2, 25800, Note_off_c, 0, 68, 68
2, 25800, Note_on_c, 0, 66, 64
2, 25860, Note_off_c, 0, 66, 53
2, 25860, Note_on_c, 0, 70, 64
2, 25920, Note_off_c, 0, 70, 70
2, 25920, Note_on_c, 0, 68, 64
2, 25980, Note_off_c, 0, 68, 72
2, 25980, Note_on_c, 0, 66, 64
2, 26040, Note_off_c, 0, 66, 70
2, 26040, Note_on_c, 0, 65, 64
2, 26100, Note_off_c, 0, 65, 62
2, 26100, Note_on_c, 0, 68, 64
2, 26160, Note_off_c, 0, 68, 68
2, 26160, Note_on_c, 0, 66, 64
2, 26220, Note_off_c, 0, 66, 73
2, 26220, Note_on_c, 0, 65, 64
2, 26280, Note_off_c, 0, 65, 40
2, 26280, Note_on_c, 0, 63, 64
2, 26340, Note_off_c, 0, 63, 58
2, 26340, Note_on_c, 0, 66, 64
2, 26400, Note_off_c, 0, 66, 73
2, 26400, Note_on_c, 0, 65, 64
2, 26520, Note_off_c, 0, 65, 37
2, 26520, Note_on_c, 0, 68, 64
2, 26640, Note_off_c, 0, 68, 76
2, 26640, Note_on_c, 0, 73, 64
2, 26880, Note_off_c, 0, 73, 74
2, 27000, Note_on_c, 0, 76, 64
2, 27060, Note_off_c, 0, 76, 54
2, 27060, Note_on_c, 0, 73, 64
2, 27120, Note_off_c, 0, 73, 58
2, 27120, Note_on_c, 0, 70, 64
2, 27393, Note_off_c, 0, 70, 65
2, 27480, Note_on_c, 0, 70, 64
2, 27540, Note_off_c, 0, 70, 55
2, 27540, Note_on_c, 0, 73, 64
2, 27600, Note_off_c, 0, 73, 73
2, 27600, Note_on_c, 0, 76, 64
2, 27840, Note_on_c, 0, 75, 64
2, 27843, Note_off_c, 0, 76, 65
2, 27960, Note_off_c, 0, 75, 62
2, 27960, Note_on_c, 0, 80, 64
2, 28080, Note_off_c, 0, 80, 73
2, 28080, Note_on_c, 0, 73, 64
2, 28200, Note_off_c, 0, 73, 73
2, 28200, Note_on_c, 0, 79, 64
2, 28320, Note_off_c, 0, 79, 39
2, 28320, Note_on_c, 0, 68, 64
2, 28440, Note_off_c, 0, 68, 63
2, 28440, Note_on_c, 0, 80, 64
2, 28500, Note_off_c, 0, 80, 83
2, 28500, Note_on_c, 0, 78, 64
2, 28560, Note_off_c, 0, 78, 72
2, 28560, Note_on_c, 0, 80, 64
2, 28620, Note_off_c, 0, 80, 76
2, 28620, Note_on_c, 0, 82, 64
2, 28680, Note_off_c, 0, 82, 63
2, 28680, Note_on_c, 0, 83, 64
2, 28740, Note_off_c, 0, 83, 66
2, 28740, Note_on_c, 0, 80, 64
2, 28800, Note_off_c, 0, 80, 73
2, 28800, Note_on_c, 0, 77, 64
2, 28860, Note_off_c, 0, 77, 66
2, 28860, Note_on_c, 0, 78, 64
2, 28920, Note_off_c, 0, 78, 74
2, 28920, Note_on_c, 0, 80, 64
2, 28980, Note_off_c, 0, 80, 70
2, 28980, Note_on_c, 0, 77, 64
2, 29040, Note_off_c, 0, 77, 77
2, 29040, Note_on_c, 0, 73, 64
2, 29100, Note_off_c, 0, 73, 61
2, 29100, Note_on_c, 0, 75, 64
2, 29160, Note_off_c, 0, 75, 69
2, 29160, Note_on_c, 0, 77, 64
2, 29220, Note_off_c, 0, 77, 66
2, 29220, Note_on_c, 0, 73, 64
2, 29280, Note_off_c, 0, 73, 76
2, 29280, Note_on_c, 0, 70, 64
2, 29340, Note_off_c, 0, 70, 51
2, 29340, Note_on_c, 0, 72, 64
2, 29400, Note_off_c, 0, 72, 85
2, 29400, Note_on_c, 0, 73, 64
2, 29460, Note_off_c, 0, 73, 73
2, 29460, Note_on_c, 0, 70, 64
2, 29520, Note_off_c, 0, 70, 65
2, 29520, Note_on_c, 0, 78, 64
2, 29580, Note_off_c, 0, 78, 62
2, 29580, Note_on_c, 0, 80, 64
2, 29640, Note_off_c, 0, 80, 80
2, 29640, Note_on_c, 0, 82, 64
2, 29700, Note_off_c, 0, 82, 68
2, 29700, Note_on_c, 0, 78, 64
2, 29760, Note_off_c, 0, 78, 66
2, 29760, Note_on_c, 0, 75, 64
2, 29820, Note_off_c, 0, 75, 55
2, 29820, Note_on_c, 0, 77, 64
2, 29880, Note_off_c, 0, 77, 74
2, 29880, Note_on_c, 0, 78, 64
2, 29940, Note_off_c, 0, 78, 69
2, 29940, Note_on_c, 0, 75, 64
2, 30000, Note_off_c, 0, 75, 53
2, 30000, Note_on_c, 0, 72, 64
2, 30060, Note_off_c, 0, 72, 65
2, 30060, Note_on_c, 0, 73, 64
2, 30120, Note_off_c, 0, 73, 70
2, 30120, Note_on_c, 0, 75, 64
2, 30180, Note_off_c, 0, 75, 62
2, 30180, Note_on_c, 0, 72, 64
2, 30240, Note_off_c, 0, 72, 82
2, 30240, Note_on_c, 0, 68, 64
2, 30300, Note_off_c, 0, 68, 40
2, 30300, Note_on_c, 0, 70, 64
2, 30360, Note_off_c, 0, 70, 74
2, 30360, Note_on_c, 0, 72, 64
2, 30420, Note_off_c, 0, 72, 80
2, 30420, Note_on_c, 0, 68, 64
2, 30480, Note_off_c, 0, 68, 76
2, 30480, Note_on_c, 0, 77, 64
2, 30540, Note_off_c, 0, 77, 63
2, 30540, Note_on_c, 0, 78, 64
2, 30600, Note_off_c, 0, 78, 55
2, 30600, Note_on_c, 0, 80, 64
2, 30660, Note_off_c, 0, 80, 77
2, 30660, Note_on_c, 0, 77, 64
2, 30720, Note_off_c, 0, 77, 64
2, 30720, Note_on_c, 0, 74, 64
2, 30780, Note_off_c, 0, 74, 64
2, 30780, Note_on_c, 0, 75, 64
2, 30840, Note_off_c, 0, 75, 57
2, 30840, Note_on_c, 0, 77, 64
2, 30900, Note_off_c, 0, 77, 59
2, 30900, Note_on_c, 0, 74, 64
2, 30960, Note_off_c, 0, 74, 50
2, 30960, Note_on_c, 0, 70, 64
2, 31020, Note_off_c, 0, 70, 63
2, 31020, Note_on_c, 0, 72, 64
2, 31080, Note_off_c, 0, 72, 59
2, 31080, Note_on_c, 0, 74, 64
2, 31140, Note_off_c, 0, 74, 61
2, 31140, Note_on_c, 0, 70, 64
2, 31200, Note_off_c, 0, 70, 58
2, 31200, Note_on_c, 0, 66, 64
2, 31260, Note_off_c, 0, 66, 57
2, 31260, Note_on_c, 0, 68, 64
2, 31320, Note_off_c, 0, 68, 76
2, 31320, Note_on_c, 0, 70, 64
2, 31380, Note_off_c, 0, 70, 77
2, 31380, Note_on_c, 0, 66, 64
2, 31440, Note_off_c, 0, 66, 72
2, 31440, Note_on_c, 0, 75, 64
2, 31500, Note_off_c, 0, 75, 51
2, 31500, Note_on_c, 0, 77, 64
2, 31560, Note_off_c, 0, 77, 66
2, 31560, Note_on_c, 0, 78, 64
2, 31620, Note_off_c, 0, 78, 58
2, 31620, Note_on_c, 0, 75, 64
2, 31680, Note_off_c, 0, 75, 54
2, 31680, Note_on_c, 0, 72, 64
2, 31740, Note_off_c, 0, 72, 66
2, 31740, Note_on_c, 0, 73, 64
2, 31800, Note_off_c, 0, 73, 76
2, 31800, Note_on_c, 0, 75, 64
2, 31860, Note_off_c, 0, 75, 49
2, 31860, Note_on_c, 0, 72, 64
2, 31920, Note_off_c, 0, 72, 85
2, 31920, Note_on_c, 0, 68, 64
2, 31980, Note_off_c, 0, 68, 39
2, 31980, Note_on_c, 0, 70, 64
2, 32040, Note_off_c, 0, 70, 74
2, 32040, Note_on_c, 0, 72, 64
2, 32100, Note_off_c, 0, 72, 73
2, 32100, Note_on_c, 0, 68, 64
2, 32160, Note_off_c, 0, 68, 54
2, 32160, Note_on_c, 0, 65, 64
2, 32220, Note_off_c, 0, 65, 10
2, 32220, Note_on_c, 0, 66, 64
2, 32280, Note_off_c, 0, 66, 73
2, 32280, Note_on_c, 0, 68, 64
2, 32340, Note_off_c, 0, 68, 58
2, 32340, Note_on_c, 0, 65, 64
2, 32400, Note_off_c, 0, 65, 49
2, 32400, Note_on_c, 0, 61, 64
2, 32460, Note_off_c, 0, 61, 52
2, 32460, Note_on_c, 0, 65, 64
2, 32520, Note_off_c, 0, 65, 57
2, 32520, Note_on_c, 0, 68, 64
2, 32580, Note_off_c, 0, 68, 69
2, 32580, Note_on_c, 0, 70, 64
2, 32640, Note_off_c, 0, 70, 19
2, 32640, Note_on_c, 0, 71, 64
2, 32700, Note_off_c, 0, 71, 66
2, 32700, Note_on_c, 0, 70, 64
2, 32760, Note_off_c, 0, 70, 76
2, 32760, Note_on_c, 0, 68, 64
2, 32820, Note_off_c, 0, 68, 42
2, 32820, Note_on_c, 0, 70, 64
2, 32880, Note_off_c, 0, 70, 82
2, 32880, Note_on_c, 0, 78, 64
2, 33000, Note_off_c, 0, 78, 63
2, 33000, Note_on_c, 0, 73, 64
2, 33120, Note_off_c, 0, 73, 65
2, 33120, Note_on_c, 0, 70, 64
2, 33240, Note_off_c, 0, 70, 72
2, 33240, Note_on_c, 0, 68, 64
2, 33300, Note_off_c, 0, 68, 70
2, 33300, Note_on_c, 0, 66, 64
2, 33360, Note_off_c, 0, 66, 65
2, 33360, Note_on_c, 0, 68, 64
2, 33420, Note_off_c, 0, 68, 65
2, 33420, Note_on_c, 0, 61, 64
2, 33480, Note_off_c, 0, 61, 52
2, 33480, Note_on_c, 0, 65, 64
2, 33540, Note_off_c, 0, 65, 54
2, 33540, Note_on_c, 0, 68, 64
2, 33600, Note_off_c, 0, 68, 70
2, 33600, Note_on_c, 0, 70, 64
2, 33660, Note_off_c, 0, 70, 61
2, 33660, Note_on_c, 0, 68, 64
2, 33720, Note_off_c, 0, 68, 82
2, 33720, Note_on_c, 0, 66, 64
2, 33780, Note_off_c, 0, 66, 62
2, 33780, Note_on_c, 0, 68, 64
2, 33840, Note_off_c, 0, 68, 70
2, 33840, Note_on_c, 0, 77, 64
2, 33960, Note_off_c, 0, 77, 76
2, 33960, Note_on_c, 0, 73, 64
2, 34080, Note_off_c, 0, 73, 51
2, 34080, Note_on_c, 0, 68, 64
2, 34200, Note_off_c, 0, 68, 65
2, 34200, Note_on_c, 0, 66, 64
2, 34260, Note_off_c, 0, 66, 63
2, 34260, Note_on_c, 0, 65, 64
2, 34320, Note_off_c, 0, 65, 65
2, 34320, Note_on_c, 0, 66, 64
2, 34380, Note_off_c, 0, 66, 54
2, 34380, Note_on_c, 0, 60, 64
2, 34440, Note_off_c, 0, 60, 49
2, 34440, Note_on_c, 0, 63, 64
2, 34500, Note_off_c, 0, 63, 52
2, 34500, Note_on_c, 0, 66, 64
2, 34560, Note_off_c, 0, 66, 62
2, 34560, Note_on_c, 0, 68, 64
2, 34620, Note_off_c, 0, 68, 72
2, 34620, Note_on_c, 0, 66, 64
2, 34680, Note_off_c, 0, 66, 54
2, 34680, Note_on_c, 0, 65, 64
2, 34740, Note_off_c, 0, 65, 72
2, 34740, Note_on_c, 0, 66, 64
2, 34800, Note_on_c, 0, 75, 64
2, 34804, Note_off_c, 0, 66, 77
2, 34920, Note_off_c, 0, 75, 59
2, 34920, Note_on_c, 0, 72, 64
2, 35040, Note_off_c, 0, 72, 76
2, 35040, Note_on_c, 0, 66, 64
2, 35160, Note_off_c, 0, 66, 69
2, 35160, Note_on_c, 0, 65, 64
2, 35220, Note_off_c, 0, 65, 48
2, 35220, Note_on_c, 0, 63, 64
2, 35280, Note_off_c, 0, 63, 62
2, 35280, Note_on_c, 0, 65, 64
2, 35340, Note_off_c, 0, 65, 46
2, 35340, Note_on_c, 0, 68, 64
2, 35400, Note_off_c, 0, 68, 73
2, 35400, Note_on_c, 0, 70, 64
2, 35460, Note_off_c, 0, 70, 80
2, 35460, Note_on_c, 0, 72, 64
2, 35520, Note_off_c, 0, 72, 68
2, 35520, Note_on_c, 0, 73, 64
2, 35580, Note_off_c, 0, 73, 66
2, 35580, Note_on_c, 0, 75, 64
2, 35640, Note_off_c, 0, 75, 55
2, 35640, Note_on_c, 0, 77, 64
2, 35700, Note_off_c, 0, 77, 76
2, 35700, Note_on_c, 0, 75, 64
2, 35760, Note_off_c, 0, 75, 52
2, 35760, Note_on_c, 0, 78, 64
2, 35820, Note_off_c, 0, 78, 79
2, 35820, Note_on_c, 0, 77, 64
2, 35880, Note_off_c, 0, 77, 69
2, 35880, Note_on_c, 0, 75, 64
2, 35940, Note_off_c, 0, 75, 63
2, 35940, Note_on_c, 0, 73, 64
2, 36000, Note_off_c, 0, 73, 73
2, 36000, Note_on_c, 0, 82, 73
2, 36022, Note_off_c, 0, 82, 40
2, 36022, Note_on_c, 0, 80, 48
2, 36044, Note_off_c, 0, 80, 58
2, 36044, Note_on_c, 0, 82, 49
2, 36066, Note_off_c, 0, 82, 59
2, 36066, Note_on_c, 0, 80, 49
2, 36088, Note_off_c, 0, 80, 61
2, 36088, Note_on_c, 0, 82, 50
2, 36110, Note_off_c, 0, 82, 55
2, 36110, Note_on_c, 0, 80, 51
2, 36132, Note_off_c, 0, 80, 69
2, 36132, Note_on_c, 0, 82, 52
2, 36154, Note_off_c, 0, 82, 58
2, 36154, Note_on_c, 0, 80, 53
2, 36176, Note_off_c, 0, 80, 59
2, 36176, Note_on_c, 0, 82, 53
2, 36198, Note_off_c, 0, 82, 52
2, 36198, Note_on_c, 0, 80, 54
2, 36220, Note_off_c, 0, 80, 63
2, 36220, Note_on_c, 0, 82, 55
2, 36242, Note_off_c, 0, 82, 55
2, 36242, Note_on_c, 0, 80, 56
2, 36264, Note_off_c, 0, 80, 61
2, 36264, Note_on_c, 0, 82, 57
2, 36286, Note_off_c, 0, 82, 55
2, 36286, Note_on_c, 0, 80, 58
2, 36308, Note_off_c, 0, 80, 63
2, 36308, Note_on_c, 0, 82, 58
2, 36330, Note_off_c, 0, 82, 53
2, 36330, Note_on_c, 0, 80, 59
2, 36352, Note_off_c, 0, 80, 63
2, 36352, Note_on_c, 0, 82, 60
2, 36374, Note_off_c, 0, 82, 55
2, 36374, Note_on_c, 0, 80, 61
2, 36396, Note_off_c, 0, 80, 59
2, 36396, Note_on_c, 0, 82, 62
2, 36418, Note_off_c, 0, 82, 51
2, 36418, Note_on_c, 0, 80, 62
2, 36440, Note_off_c, 0, 80, 63
2, 36440, Note_on_c, 0, 82, 63
2, 36472, Note_off_c, 0, 82, 51
2, 36480, Note_on_c, 0, 80, 64
2, 36530, Note_off_c, 0, 80, 64
2, 36540, Note_on_c, 0, 80, 64
2, 36600, Note_off_c, 0, 80, 61
2, 36600, Note_on_c, 0, 78, 64
2, 36660, Note_off_c, 0, 78, 65
2, 36660, Note_on_c, 0, 80, 64
2, 36720, Note_off_c, 0, 80, 65
2, 36720, Note_on_c, 0, 77, 64
2, 36780, Note_off_c, 0, 77, 77
2, 36780, Note_on_c, 0, 80, 64
2, 36840, Note_off_c, 0, 80, 73
2, 36840, Note_on_c, 0, 75, 64
2, 36900, Note_off_c, 0, 75, 46
2, 36900, Note_on_c, 0, 80, 64
2, 36960, Note_off_c, 0, 80, 76
2, 36960, Note_on_c, 0, 73, 64
2, 37020, Note_off_c, 0, 73, 63
2, 37020, Note_on_c, 0, 80, 64
2, 37080, Note_off_c, 0, 80, 80
2, 37080, Note_on_c, 0, 72, 64
2, 37140, Note_off_c, 0, 72, 72
2, 37140, Note_on_c, 0, 70, 64
2, 37200, Note_off_c, 0, 70, 79
2, 37200, Note_on_c, 0, 72, 64
2, 37260, Note_off_c, 0, 72, 45
2, 37260, Note_on_c, 0, 75, 64
2, 37320, Note_off_c, 0, 75, 49
2, 37320, Note_on_c, 0, 77, 64
2, 37380, Note_off_c, 0, 77, 58
2, 37380, Note_on_c, 0, 78, 64
2, 37440, Note_off_c, 0, 78, 62
2, 37440, Note_on_c, 0, 80, 64
2, 37500, Note_off_c, 0, 80, 80
2, 37500, Note_on_c, 0, 78, 64
2, 37560, Note_off_c, 0, 78, 70
2, 37560, Note_on_c, 0, 77, 64
2, 37620, Note_off_c, 0, 77, 74
2, 37620, Note_on_c, 0, 80, 64
2, 37680, Note_off_c, 0, 80, 73
2, 37680, Note_on_c, 0, 75, 64
2, 37740, Note_off_c, 0, 75, 51
2, 37740, Note_on_c, 0, 80, 64
2, 37800, Note_off_c, 0, 80, 73
2, 37800, Note_on_c, 0, 73, 64
2, 37860, Note_off_c, 0, 73, 61
2, 37860, Note_on_c, 0, 80, 64
2, 37920, Note_off_c, 0, 80, 74
2, 37920, Note_on_c, 0, 72, 64
2, 37980, Note_off_c, 0, 72, 77
2, 37980, Note_on_c, 0, 80, 64
2, 38040, Note_off_c, 0, 80, 82
2, 38040, Note_on_c, 0, 70, 64
2, 38100, Note_off_c, 0, 70, 53
2, 38100, Note_on_c, 0, 68, 64
2, 38160, Note_off_c, 0, 68, 73
2, 38160, Note_on_c, 0, 70, 64
2, 38220, Note_off_c, 0, 70, 72
2, 38220, Note_on_c, 0, 73, 64
2, 38280, Note_off_c, 0, 73, 65
2, 38280, Note_on_c, 0, 75, 64
2, 38340, Note_off_c, 0, 75, 73
2, 38340, Note_on_c, 0, 77, 64
2, 38400, Note_off_c, 0, 77, 73
2, 38400, Note_on_c, 0, 78, 64
2, 38460, Note_off_c, 0, 78, 52
2, 38460, Note_on_c, 0, 77, 64
2, 38520, Note_off_c, 0, 77, 66
2, 38520, Note_on_c, 0, 75, 64
2, 38580, Note_off_c, 0, 75, 43
2, 38580, Note_on_c, 0, 77, 64
2, 38640, Note_off_c, 0, 77, 52
2, 38640, Note_on_c, 0, 73, 64
2, 38700, Note_off_c, 0, 73, 52
2, 38700, Note_on_c, 0, 75, 64
2, 38760, Note_off_c, 0, 75, 53
2, 38760, Note_on_c, 0, 72, 64
2, 38820, Note_off_c, 0, 72, 80
2, 38820, Note_on_c, 0, 75, 64
2, 38880, Note_off_c, 0, 75, 57
2, 38880, Note_on_c, 0, 70, 64
2, 38940, Note_off_c, 0, 70, 63
2, 38940, Note_on_c, 0, 75, 64
2, 39000, Note_off_c, 0, 75, 51
2, 39000, Note_on_c, 0, 68, 64
2, 39060, Note_off_c, 0, 68, 63
2, 39060, Note_on_c, 0, 67, 64
2, 39120, Note_off_c, 0, 67, 53
2, 39120, Note_on_c, 0, 68, 64
2, 39180, Note_off_c, 0, 68, 65
2, 39180, Note_on_c, 0, 72, 64
2, 39240, Note_off_c, 0, 72, 8
2, 39240, Note_on_c, 0, 73, 64
2, 39300, Note_off_c, 0, 73, 62
2, 39300, Note_on_c, 0, 75, 64
2, 39360, Note_off_c, 0, 75, 63
2, 39360, Note_on_c, 0, 77, 64
2, 39420, Note_off_c, 0, 77, 53
2, 39420, Note_on_c, 0, 78, 64
2, 39480, Note_off_c, 0, 78, 61
2, 39480, Note_on_c, 0, 80, 64
2, 39540, Note_off_c, 0, 80, 68
2, 39540, Note_on_c, 0, 82, 64
2, 39600, Note_off_c, 0, 82, 53
2, 39600, Note_on_c, 0, 73, 64
2, 39620, Note_on_c, 0, 72, 64
2, 39622, Note_off_c, 0, 73, 64
2, 39640, Note_on_c, 0, 73, 64
2, 39642, Note_off_c, 0, 72, 64
2, 39660, Note_on_c, 0, 72, 64
2, 39662, Note_off_c, 0, 73, 64
2, 39720, Note_off_c, 0, 72, 64
2, 39720, Note_on_c, 0, 68, 64
2, 39840, Note_off_c, 0, 68, 70
2, 39840, Note_on_c, 0, 70, 64
2, 39900, Note_off_c, 0, 70, 65
2, 39900, Note_on_c, 0, 68, 64
2, 39960, Note_off_c, 0, 68, 86
2, 39960, Note_on_c, 0, 66, 64
2, 40020, Note_off_c, 0, 66, 52
2, 40020, Note_on_c, 0, 68, 64
2, 40080, Note_off_c, 0, 68, 77
2, 40080, Note_on_c, 0, 77, 64
2, 40200, Note_off_c, 0, 77, 70
2, 40200, Note_on_c, 0, 73, 64
2, 40320, Note_off_c, 0, 73, 69
2, 40320, Note_on_c, 0, 68, 64
2, 40440, Note_off_c, 0, 68, 53
2, 40440, Note_on_c, 0, 66, 64
2, 40500, Note_off_c, 0, 66, 72
2, 40500, Note_on_c, 0, 65, 64
2, 40560, Note_off_c, 0, 65, 40
2, 40560, Note_on_c, 0, 66, 64
2, 40680, Note_off_c, 0, 66, 72
2, 40680, Note_on_c, 0, 75, 64
2, 40800, Note_off_c, 0, 75, 38
2, 40800, Note_on_c, 0, 65, 64
2, 40920, Note_off_c, 0, 65, 57
2, 40920, Note_on_c, 0, 73, 64
2, 41040, Note_off_c, 0, 73, 74
2, 41040, Note_on_c, 0, 63, 64
2, 41160, Note_off_c, 0, 63, 50
2, 41160, Note_on_c, 0, 72, 64
2, 41280, Note_off_c, 0, 72, 80
2, 41280, Note_on_c, 0, 61, 64
2, 41400, Note_off_c, 0, 61, 62
2, 41400, Note_on_c, 0, 73, 64
2, 41460, Note_off_c, 0, 73, 32
2, 41460, Note_on_c, 0, 72, 64
2, 41520, Note_off_c, 0, 72, 69
2, 41520, Note_on_c, 0, 73, 64
2, 41580, Note_off_c, 0, 73, 69
2, 41580, Note_on_c, 0, 75, 64
2, 41640, Note_off_c, 0, 75, 70
2, 41640, Note_on_c, 0, 77, 64
2, 41700, Note_off_c, 0, 77, 42
2, 41700, Note_on_c, 0, 78, 64
2, 41760, Note_off_c, 0, 78, 65
2, 41760, Note_on_c, 0, 80, 64
2, 41820, Note_off_c, 0, 80, 61
2, 41820, Note_on_c, 0, 78, 64
2, 41880, Note_off_c, 0, 78, 70
2, 41880, Note_on_c, 0, 77, 64
2, 41940, Note_off_c, 0, 77, 57
2, 41940, Note_on_c, 0, 78, 64
2, 42000, Note_off_c, 0, 78, 70
2, 42000, Note_on_c, 0, 80, 64
2, 42060, Note_off_c, 0, 80, 68
2, 42060, Note_on_c, 0, 78, 64
2, 42120, Note_off_c, 0, 78, 69
2, 42120, Note_on_c, 0, 77, 64
2, 42180, Note_off_c, 0, 77, 58
2, 42180, Note_on_c, 0, 75, 64
2, 42240, Note_off_c, 0, 75, 70
2, 42240, Note_on_c, 0, 77, 64
2, 42540, Note_off_c, 0, 77, 55
2, 42540, Note_on_c, 0, 75, 64
2, 42600, Note_off_c, 0, 75, 55
2, 42600, Note_on_c, 0, 73, 64
2, 42660, Note_off_c, 0, 73, 68
2, 42660, Note_on_c, 0, 77, 64
2, 42720, Note_off_c, 0, 77, 63
2, 42720, Note_on_c, 0, 75, 64
2, 42780, Note_off_c, 0, 75, 49
2, 42780, Note_on_c, 0, 73, 64
2, 42840, Note_off_c, 0, 73, 66
2, 42840, Note_on_c, 0, 72, 64
2, 42900, Note_off_c, 0, 72, 77
2, 42900, Note_on_c, 0, 75, 64
2, 42960, Note_off_c, 0, 75, 48
2, 42960, Note_on_c, 0, 73, 64
2, 43020, Note_off_c, 0, 73, 70
2, 43020, Note_on_c, 0, 72, 64
2, 43080, Note_off_c, 0, 72, 72
2, 43080, Note_on_c, 0, 73, 64
2, 43140, Note_off_c, 0, 73, 63
2, 43140, Note_on_c, 0, 70, 64
2, 43200, Note_off_c, 0, 70, 76
2, 43200, Note_on_c, 0, 72, 64
2, 43320, Note_off_c, 0, 72, 80
2, 43320, Note_on_c, 0, 75, 64
2, 43440, Note_off_c, 0, 75, 69
2, 43440, Note_on_c, 0, 78, 64
2, 43920, Note_off_c, 0, 78, 46
2, 43920, Note_on_c, 0, 77, 64
2, 44400, Note_off_c, 0, 77, 68
2, 44400, Note_on_c, 0, 75, 64
2, 44760, Note_off_c, 0, 75, 70
2, 44760, Note_on_c, 0, 73, 64
2, 44880, Note_off_c, 0, 73, 66
2, 44880, Note_on_c, 0, 72, 64
2, 45000, Note_off_c, 0, 72, 70
2, 45000, Note_on_c, 0, 75, 64
2, 45240, Note_off_c, 0, 75, 53
2, 45240, Note_on_c, 0, 68, 64
2, 45360, Note_off_c, 0, 68, 79
2, 45360, Note_on_c, 0, 73, 64
2, 45480, Note_off_c, 0, 73, 63
2, 45480, Note_on_c, 0, 71, 64
2, 45600, Note_off_c, 0, 71, 79
2, 45600, Note_on_c, 0, 70, 64
2, 46190, Note_off_c, 0, 70, 80
2, 46200, Note_on_c, 0, 70, 64
2, 46260, Note_off_c, 0, 70, 77
2, 46260, Note_on_c, 0, 66, 64
2, 46320, Note_off_c, 0, 66, 50
2, 46320, Note_on_c, 0, 63, 64
2, 46670, Note_off_c, 0, 63, 24
2, 46680, Note_on_c, 0, 63, 64
2, 46800, Note_off_c, 0, 63, 66
2, 46800, Note_on_c, 0, 68, 64
2, 47150, Note_off_c, 0, 68, 34
2, 47160, Note_on_c, 0, 68, 64
2, 47220, Note_off_c, 0, 68, 74
2, 47220, Note_on_c, 0, 65, 64
2, 47280, Note_off_c, 0, 65, 53
2, 47280, Note_on_c, 0, 62, 64
2, 47640, Note_off_c, 0, 62, 66
2, 47640, Note_on_c, 0, 58, 64
2, 47760, Note_off_c, 0, 58, 76
2, 47760, Note_on_c, 0, 66, 64
2, 48060, Note_off_c, 0, 66, 82
2, 48060, Note_on_c, 0, 65, 64
2, 48120, Note_off_c, 0, 65, 63
2, 48120, Note_on_c, 0, 66, 64
2, 48180, Note_off_c, 0, 66, 82
2, 48180, Note_on_c, 0, 63, 64
2, 48240, Note_off_c, 0, 63, 59
2, 48240, Note_on_c, 0, 75, 64
2, 48540, Note_on_c, 0, 73, 64
2, 48544, Note_off_c, 0, 75, 69
2, 48600, Note_off_c, 0, 73, 74
2, 48600, Note_on_c, 0, 72, 64
2, 48660, Note_off_c, 0, 72, 77
2, 48660, Note_on_c, 0, 75, 64
2, 48720, Note_off_c, 0, 75, 58
2, 48720, Note_on_c, 0, 73, 64
2, 48780, Note_off_c, 0, 73, 74
2, 48780, Note_on_c, 0, 68, 64
2, 48840, Note_off_c, 0, 68, 55
2, 48840, Note_on_c, 0, 70, 64
2, 48900, Note_off_c, 0, 70, 62
2, 48900, Note_on_c, 0, 71, 64
2, 48960, Note_off_c, 0, 71, 76
2, 48960, Note_on_c, 0, 70, 64
2, 49020, Note_off_c, 0, 70, 76
2, 49020, Note_on_c, 0, 68, 64
2, 49080, Note_off_c, 0, 68, 70
2, 49080, Note_on_c, 0, 66, 64
2, 49140, Note_off_c, 0, 66, 76
2, 49140, Note_on_c, 0, 68, 64
2, 49200, Note_off_c, 0, 68, 77
2, 49200, Note_on_c, 0, 77, 64
2, 49320, Note_off_c, 0, 77, 70
2, 49320, Note_on_c, 0, 73, 64
2, 49440, Note_off_c, 0, 73, 74
2, 49440, Note_on_c, 0, 68, 64
2, 49560, Note_off_c, 0, 68, 68
2, 49560, Note_on_c, 0, 66, 64
2, 49620, Note_off_c, 0, 66, 65
2, 49620, Note_on_c, 0, 65, 64
2, 49680, Note_off_c, 0, 65, 46
2, 49680, Note_on_c, 0, 66, 64
2, 49800, Note_off_c, 0, 66, 70
2, 49800, Note_on_c, 0, 75, 64
2, 49920, Note_off_c, 0, 75, 43
2, 49920, Note_on_c, 0, 65, 64
2, 49920, Note_on_c, 0, 65, 64
2, 50040, Note_off_c, 0, 65, 53
2, 50040, Note_off_c, 0, 65, 66
2, 50040, Note_on_c, 0, 73, 64
2, 50160, Note_off_c, 0, 73, 57
2, 50160, Note_on_c, 0, 63, 64
2, 50280, Note_off_c, 0, 63, 61
2, 50280, Note_on_c, 0, 72, 64
2, 50400, Note_off_c, 0, 72, 58
2, 50400, Note_on_c, 0, 61, 64
2, 50460, Note_off_c, 0, 61, 66
2, 50460, Note_on_c, 0, 65, 64
2, 50520, Note_off_c, 0, 65, 61
2, 50520, Note_on_c, 0, 66, 64
2, 50580, Note_off_c, 0, 66, 57
2, 50580, Note_on_c, 0, 68, 64
2, 50640, Note_off_c, 0, 68, 24
2, 50640, Note_on_c, 0, 70, 64
2, 50700, Note_off_c, 0, 70, 76
2, 50700, Note_on_c, 0, 72, 64
2, 50760, Note_off_c, 0, 72, 55
2, 50760, Note_on_c, 0, 73, 64
2, 50820, Note_off_c, 0, 73, 65
2, 50820, Note_on_c, 0, 75, 64
2, 50880, Note_off_c, 0, 75, 68
2, 50880, Note_on_c, 0, 76, 64
2, 50940, Note_off_c, 0, 76, 62
2, 50940, Note_on_c, 0, 75, 64
2, 51000, Note_off_c, 0, 75, 57
2, 51000, Note_on_c, 0, 73, 64
2, 51060, Note_off_c, 0, 73, 72
2, 51060, Note_on_c, 0, 75, 64
2, 51120, Note_off_c, 0, 75, 59
2, 51120, Note_on_c, 0, 76, 64
2, 51180, Note_off_c, 0, 76, 41
2, 51180, Note_on_c, 0, 79, 64
2, 51240, Note_off_c, 0, 79, 53
2, 51240, Note_on_c, 0, 80, 64
2, 51300, Note_off_c, 0, 80, 73
2, 51300, Note_on_c, 0, 82, 64
2, 51360, Note_off_c, 0, 82, 79
2, 51360, Note_on_c, 0, 73, 64
2, 51420, Note_off_c, 0, 73, 72
2, 51420, Note_on_c, 0, 72, 64
2, 51480, Note_off_c, 0, 72, 68
2, 51480, Note_on_c, 0, 70, 64
2, 51540, Note_off_c, 0, 70, 79
2, 51540, Note_on_c, 0, 68, 64
2, 51600, Note_off_c, 0, 68, 83
2, 51600, Note_on_c, 0, 75, 64
2, 51720, Note_off_c, 0, 75, 49
2, 51720, Note_on_c, 0, 66, 64
2, 51840, Note_off_c, 0, 66, 66
2, 51840, Note_on_c, 0, 65, 64
2, 51950, Note_off_c, 0, 65, 52
2, 51960, Note_on_c, 0, 73, 64
2, 52070, Note_off_c, 0, 73, 53
2, 52080, Note_on_c, 0, 63, 64
2, 52200, Note_on_c, 0, 72, 64
2, 52310, Note_off_c, 0, 72, 73
2, 52310, Note_off_c, 0, 63, 58
2, 52320, Note_on_c, 0, 73, 64
2, 52800, Note_off_c, 0, 73, 70
2, 52800, End_track
3, 0, Start_track
3, 0, Text_t, "RH L"
3, 2280, Note_on_c, 1, 61, 64
3, 2400, Note_off_c, 1, 61, 69
3, 2400, Note_on_c, 1, 65, 64
3, 2460, Note_off_c, 1, 65, 52
3, 2460, Note_on_c, 1, 63, 64
3, 2520, Note_off_c, 1, 63, 65
3, 2520, Note_on_c, 1, 61, 64
3, 2580, Note_off_c, 1, 61, 50
3, 2580, Note_on_c, 1, 63, 64
3, 2640, Note_off_c, 1, 63, 51
3, 2640, Note_on_c, 1, 72, 64
3, 2760, Note_off_c, 1, 72, 73
3, 2760, Note_on_c, 1, 68, 64
3, 2880, Note_off_c, 1, 68, 79
3, 2880, Note_on_c, 1, 63, 64
3, 3000, Note_off_c, 1, 63, 54
3, 3000, Note_on_c, 1, 61, 64
3, 3060, Note_off_c, 1, 61, 72
3, 3060, Note_on_c, 1, 60, 64
3, 3120, Note_off_c, 1, 60, 39
3, 3120, Note_on_c, 1, 61, 64
3, 3240, Note_off_c, 1, 61, 77
3, 3240, Note_on_c, 1, 70, 64
3, 3360, Note_off_c, 1, 70, 72
3, 3360, Note_on_c, 1, 60, 64
3, 3480, Note_off_c, 1, 60, 65
3, 3480, Note_on_c, 1, 68, 64
3, 3600, Note_off_c, 1, 68, 82
3, 3600, Note_on_c, 1, 58, 64
3, 3720, Note_off_c, 1, 58, 66
3, 3720, Note_on_c, 1, 67, 64
3, 3840, Note_off_c, 1, 67, 58
3, 3840, Note_on_c, 1, 56, 64
3, 3960, Note_off_c, 1, 56, 73
3, 3960, Note_on_c, 1, 68, 64
3, 4020, Note_off_c, 1, 68, 77
3, 4020, Note_on_c, 1, 67, 64
3, 4080, Note_off_c, 1, 67, 38
3, 4080, Note_on_c, 1, 68, 64
3, 4140, Note_off_c, 1, 68, 76
3, 4140, Note_on_c, 1, 70, 64
3, 4200, Note_off_c, 1, 70, 69
3, 4200, Note_on_c, 1, 72, 64
3, 4260, Note_off_c, 1, 72, 80
3, 4260, Note_on_c, 1, 68, 64
3, 4320, Note_off_c, 1, 68, 72
3, 4320, Note_on_c, 1, 73, 64
3, 4380, Note_off_c, 1, 73, 6
3, 4380, Note_on_c, 1, 72, 64
3, 4440, Note_off_c, 1, 72, 65
3, 4440, Note_on_c, 1, 70, 64
3, 4500, Note_off_c, 1, 70, 69
3, 4500, Note_on_c, 1, 72, 64
3, 4560, Note_off_c, 1, 72, 74
3, 4560, Note_on_c, 1, 73, 64
3, 4620, Note_off_c, 1, 73, 42
3, 4620, Note_on_c, 1, 72, 64
3, 4680, Note_off_c, 1, 72, 74
3, 4680, Note_on_c, 1, 70, 64
3, 4740, Note_off_c, 1, 70, 73
3, 4740, Note_on_c, 1, 68, 64
3, 4800, Note_off_c, 1, 68, 73
3, 4800, Note_on_c, 1, 70, 64
3, 5100, Note_off_c, 1, 70, 73
3, 5100, Note_on_c, 1, 68, 64
3, 5160, Note_off_c, 1, 68, 70
3, 5160, Note_on_c, 1, 66, 64
3, 5220, Note_off_c, 1, 66, 1
3, 5220, Note_on_c, 1, 70, 64
3, 5280, Note_off_c, 1, 70, 76
3, 5280, Note_on_c, 1, 68, 64
3, 5340, Note_off_c, 1, 68, 73
3, 5340, Note_on_c, 1, 66, 64
3, 5400, Note_off_c, 1, 66, 58
3, 5400, Note_on_c, 1, 65, 64
3, 5460, Note_off_c, 1, 65, 49
3, 5460, Note_on_c, 1, 68, 64
3, 5520, Note_off_c, 1, 68, 73
3, 5520, Note_on_c, 1, 66, 64
3, 5580, Note_off_c, 1, 66, 76
3, 5580, Note_on_c, 1, 65, 64
3, 5640, Note_off_c, 1, 65, 47
3, 5640, Note_on_c, 1, 66, 64
3, 5700, Note_off_c, 1, 66, 72
3, 5700, Note_on_c, 1, 63, 64
3, 5760, Note_off_c, 1, 63, 58
3, 5760, Note_on_c, 1, 65, 64
3, 6000, Note_off_c, 1, 65, 49
3, 6120, Note_on_c, 1, 68, 64
3, 6240, Note_on_c, 1, 73, 64
3, 6246, Note_off_c, 1, 68, 82
3, 6545, Note_off_c, 1, 73, 70
3, 6600, Note_on_c, 1, 73, 64
3, 6660, Note_off_c, 1, 73, 51
3, 6660, Note_on_c, 1, 70, 64
3, 6720, Note_off_c, 1, 70, 76
3, 6720, Note_on_c, 1, 63, 64
3, 6960, Note_off_c, 1, 63, 48
3, 7080, Note_on_c, 1, 67, 64
3, 7200, Note_off_c, 1, 67, 65
3, 7200, Note_on_c, 1, 72, 64
3, 7550, Note_off_c, 1, 72, 70
3, 7560, Note_on_c, 1, 72, 64
3, 7620, Note_off_c, 1, 72, 80
3, 7620, Note_on_c, 1, 68, 64
3, 7680, Note_off_c, 1, 68, 77
3, 7680, Note_on_c, 1, 61, 64
3, 8040, Note_off_c, 1, 61, 30
3, 8040, Note_on_c, 1, 65, 64
3, 8160, Note_off_c, 1, 65, 62
3, 8160, Note_on_c, 1, 70, 64
3, 8460, Note_off_c, 1, 70, 53
3, 8460, Note_on_c, 1, 73, 64
3, 8520, Note_off_c, 1, 73, 74
3, 8520, Note_on_c, 1, 75, 64
3, 8580, Note_off_c, 1, 75, 54
3, 8580, Note_on_c, 1, 70, 64
3, 8640, Note_off_c, 1, 70, 68
3, 8640, Note_on_c, 1, 72, 64
3, 8880, Note_off_c, 1, 72, 86
3, 9000, Note_on_c, 1, 68, 64
3, 9180, Note_off_c, 1, 68, 64
3, 9180, Note_on_c, 1, 67, 64
3, 9240, Note_off_c, 1, 67, 62
3, 9240, Note_on_c, 1, 65, 64
3, 9300, Note_off_c, 1, 65, 48
3, 9300, Note_on_c, 1, 67, 64
3, 9360, Note_off_c, 1, 67, 63
3, 9360, Note_on_c, 1, 68, 64
3, 9420, Note_off_c, 1, 68, 68
3, 9420, Note_on_c, 1, 66, 64
3, 9480, Note_off_c, 1, 66, 73
3, 9480, Note_on_c, 1, 65, 64
3, 9540, Note_off_c, 1, 65, 27
3, 9540, Note_on_c, 1, 63, 64
3, 9600, Note_off_c, 1, 63, 55
3, 9600, Note_on_c, 1, 65, 64
3, 9900, Note_off_c, 1, 65, 66
3, 9900, Note_on_c, 1, 63, 64
3, 9960, Note_off_c, 1, 63, 63
3, 9960, Note_on_c, 1, 61, 64
3, 10020, Note_off_c, 1, 61, 66
3, 10020, Note_on_c, 1, 65, 64
3, 10080, Note_off_c, 1, 65, 70
3, 10080, Note_on_c, 1, 63, 64
3, 10140, Note_off_c, 1, 63, 54
3, 10140, Note_on_c, 1, 61, 64
3, 10200, Note_off_c, 1, 61, 66
3, 10200, Note_on_c, 1, 60, 64
3, 10260, Note_off_c, 1, 60, 54
3, 10260, Note_on_c, 1, 63, 64
3, 10320, Note_off_c, 1, 63, 50
3, 10320, Note_on_c, 1, 61, 64
3, 10380, Note_off_c, 1, 61, 68
3, 10380, Note_on_c, 1, 60, 64
3, 10440, Note_off_c, 1, 60, 57
3, 10440, Note_on_c, 1, 61, 64
3, 10500, Note_off_c, 1, 61, 55
3, 10500, Note_on_c, 1, 58, 64
3, 10560, Note_off_c, 1, 58, 73
3, 10560, Note_on_c, 1, 60, 64
3, 10680, Note_off_c, 1, 60, 39
3, 10680, Note_on_c, 1, 63, 64
3, 10800, Note_off_c, 1, 63, 59
3, 10800, Note_on_c, 1, 68, 64
3, 10920, Note_off_c, 1, 68, 85
3, 11160, Note_on_c, 1, 59, 64
3, 11220, Note_off_c, 1, 59, 58
3, 11220, Note_on_c, 1, 56, 64
3, 11280, Note_off_c, 1, 56, 73
3, 11280, Note_on_c, 1, 53, 64
3, 11514, Note_off_c, 1, 53, 72
3, 11640, Note_on_c, 1, 53, 64
3, 11700, Note_off_c, 1, 53, 72
3, 11700, Note_on_c, 1, 56, 64
3, 11760, Note_off_c, 1, 56, 66
3, 11760, Note_on_c, 1, 59, 64
3, 12000, Note_off_c, 1, 59, 58
3, 12000, Note_on_c, 1, 58, 64
3, 12120, Note_off_c, 1, 58, 31
3, 12120, Note_on_c, 1, 59, 64
3, 12240, Note_off_c, 1, 59, 63
3, 12240, Note_on_c, 1, 58, 64
3, 12360, Note_off_c, 1, 58, 58
3, 12360, Note_on_c, 1, 50, 64
3, 12480, Note_off_c, 1, 50, 66
3, 12480, Note_on_c, 1, 51, 64
3, 12720, Note_off_c, 1, 51, 74
3, 14760, Note_on_c, 1, 65, 64
3, 14880, Note_off_c, 1, 65, 59
3, 14880, Note_on_c, 1, 70, 64
3, 15180, Note_off_c, 1, 70, 70
3, 15180, Note_on_c, 1, 73, 64
3, 15240, Note_off_c, 1, 73, 70
3, 15240, Note_on_c, 1, 75, 64
3, 15300, Note_off_c, 1, 75, 59
3, 15300, Note_on_c, 1, 70, 64
3, 15360, Note_off_c, 1, 70, 77
3, 15360, Note_on_c, 1, 72, 64
3, 15480, Note_off_c, 1, 72, 85
3, 15720, Note_on_c, 1, 63, 64
3, 15840, Note_off_c, 1, 63, 62
3, 15840, Note_on_c, 1, 68, 64
3, 16140, Note_off_c, 1, 68, 74
3, 16140, Note_on_c, 1, 72, 64
3, 16200, Note_off_c, 1, 72, 83
3, 16200, Note_on_c, 1, 73, 64
3, 16260, Note_off_c, 1, 73, 68
3, 16260, Note_on_c, 1, 68, 64
3, 16320, Note_off_c, 1, 68, 82
3, 16320, Note_on_c, 1, 70, 64
3, 16440, Note_off_c, 1, 70, 86
3, 16680, Note_on_c, 1, 61, 64
3, 16800, Note_off_c, 1, 61, 74
3, 16800, Note_on_c, 1, 67, 64
3, 17100, Note_off_c, 1, 67, 43
3, 17100, Note_on_c, 1, 70, 64
3, 17160, Note_off_c, 1, 70, 72
3, 17160, Note_on_c, 1, 73, 64
3, 17220, Note_off_c, 1, 73, 69
3, 17220, Note_on_c, 1, 67, 64
3, 17280, Note_off_c, 1, 67, 53
3, 17280, Note_on_c, 1, 68, 64
3, 17520, Note_off_c, 1, 68, 83
3, 17640, Note_on_c, 1, 60, 64
3, 17760, Note_off_c, 1, 60, 50
3, 17760, Note_on_c, 1, 61, 64
3, 17820, Note_off_c, 1, 61, 62
3, 17820, Note_on_c, 1, 60, 64
3, 17880, Note_off_c, 1, 60, 53
3, 17880, Note_on_c, 1, 58, 64
3, 17940, Note_off_c, 1, 58, 73
3, 17940, Note_on_c, 1, 60, 64
3, 18000, Note_off_c, 1, 60, 54
3, 18120, Note_on_c, 1, 65, 64
3, 18240, Note_off_c, 1, 65, 55
3, 18240, Note_on_c, 1, 60, 64
3, 18360, Note_off_c, 1, 60, 55
3, 18360, Note_on_c, 1, 58, 64
3, 18420, Note_off_c, 1, 58, 68
3, 18420, Note_on_c, 1, 56, 64
3, 18480, Note_off_c, 1, 56, 51
3, 18480, Note_on_c, 1, 58, 64
3, 18600, Note_off_c, 1, 58, 66
3, 18600, Note_on_c, 1, 67, 64
3, 18720, Note_off_c, 1, 67, 35
3, 18720, Note_on_c, 1, 56, 64
3, 18840, Note_off_c, 1, 56, 53
3, 18960, Note_on_c, 1, 55, 64
3, 19080, Note_off_c, 1, 55, 46
3, 19080, Note_on_c, 1, 64, 64
3, 19200, Note_off_c, 1, 64, 23
3, 19200, Note_on_c, 1, 53, 64
3, 19440, Note_off_c, 1, 53, 65
3, 19560, Note_on_c, 1, 52, 64
3, 19680, Note_off_c, 1, 52, 80
3, 19680, Note_on_c, 1, 53, 64
3, 19800, Note_off_c, 1, 53, 65
3, 19800, Note_on_c, 1, 52, 64
3, 19920, Note_off_c, 1, 52, 79
3, 19920, Note_on_c, 1, 53, 64
3, 20040, Note_off_c, 1, 53, 49
3, 20040, Note_on_c, 1, 58, 64
3, 20160, Note_off_c, 1, 58, 55
3, 20160, Note_on_c, 1, 56, 64
3, 20280, Note_off_c, 1, 56, 62
3, 20280, Note_on_c, 1, 55, 64
3, 20340, Note_off_c, 1, 55, 73
3, 20340, Note_on_c, 1, 53, 64
3, 20400, Note_off_c, 1, 53, 66
3, 20400, Note_on_c, 1, 55, 64
3, 20520, Note_off_c, 1, 55, 74
3, 20520, Note_on_c, 1, 58, 64
3, 20640, Note_off_c, 1, 58, 66
3, 20640, Note_on_c, 1, 56, 64
3, 20700, Note_off_c, 1, 56, 59
3, 20700, Note_on_c, 1, 58, 64
3, 20760, Note_off_c, 1, 58, 52
3, 20760, Note_on_c, 1, 60, 64
3, 20820, Note_off_c, 1, 60, 57
3, 20820, Note_on_c, 1, 56, 64
3, 20880, Note_off_c, 1, 56, 65
3, 20880, Note_on_c, 1, 53, 64
3, 20940, Note_off_c, 1, 53, 48
3, 20940, Note_on_c, 1, 54, 64
3, 21000, Note_off_c, 1, 54, 65
3, 21000, Note_on_c, 1, 56, 64
3, 21060, Note_off_c, 1, 56, 69
3, 21060, Note_on_c, 1, 53, 64
3, 21120, Note_off_c, 1, 53, 62
3, 21120, Note_on_c, 1, 50, 64
3, 21180, Note_off_c, 1, 50, 61
3, 21180, Note_on_c, 1, 51, 64
3, 21240, Note_off_c, 1, 51, 63
3, 21240, Note_on_c, 1, 53, 64
3, 21300, Note_off_c, 1, 53, 57
3, 21300, Note_on_c, 1, 50, 64
3, 21360, Note_off_c, 1, 50, 65
3, 21360, Note_on_c, 1, 46, 64
3, 21420, Note_off_c, 1, 46, 72
3, 21420, Note_on_c, 1, 50, 64
3, 21480, Note_off_c, 1, 50, 49
3, 21480, Note_on_c, 1, 53, 64
3, 21540, Note_off_c, 1, 53, 70
3, 21540, Note_on_c, 1, 58, 64
3, 21600, Note_off_c, 1, 58, 77
3, 21600, Note_on_c, 1, 51, 64
3, 21660, Note_off_c, 1, 51, 70
3, 21660, Note_on_c, 1, 54, 64
3, 21720, Note_off_c, 1, 54, 46
3, 21720, Note_on_c, 1, 58, 64
3, 21780, Note_off_c, 1, 58, 55
3, 21780, Note_on_c, 1, 62, 64
3, 21840, Note_off_c, 1, 62, 61
3, 21840, Note_on_c, 1, 63, 64
3, 21900, Note_off_c, 1, 63, 69
3, 21900, Note_on_c, 1, 65, 64
3, 21960, Note_off_c, 1, 65, 50
3, 21960, Note_on_c, 1, 66, 64
3, 22020, Note_off_c, 1, 66, 68
3, 22020, Note_on_c, 1, 63, 64
3, 22080, Note_off_c, 1, 63, 49
3, 22080, Note_on_c, 1, 60, 64
3, 22140, Note_off_c, 1, 60, 59
3, 22140, Note_on_c, 1, 61, 64
3, 22200, Note_off_c, 1, 61, 73
3, 22200, Note_on_c, 1, 63, 64
3, 22260, Note_off_c, 1, 63, 61
3, 22260, Note_on_c, 1, 60, 64
3, 22320, Note_off_c, 1, 60, 69
3, 22320, Note_on_c, 1, 56, 64
3, 22610, Note_off_c, 1, 56, 39
3, 22620, Note_on_c, 1, 56, 64
3, 22680, Note_off_c, 1, 56, 58
3, 22680, Note_on_c, 1, 58, 64
3, 22740, Note_off_c, 1, 58, 65
3, 22740, Note_on_c, 1, 60, 64
3, 22800, Note_off_c, 1, 60, 69
3, 22800, Note_on_c, 1, 61, 64
3, 22920, Note_off_c, 1, 61, 82
3, 23280, Note_on_c, 1, 72, 64
3, 23760, Note_off_c, 1, 72, 82
3, 23760, Note_on_c, 1, 70, 64
3, 24120, Note_off_c, 1, 70, 74
3, 24120, Note_on_c, 1, 68, 64
3, 24240, Note_off_c, 1, 68, 76
3, 24240, Note_on_c, 1, 67, 64
3, 24360, Note_off_c, 1, 67, 54
3, 24360, Note_on_c, 1, 70, 64
3, 24480, Note_off_c, 1, 70, 69
3, 24480, Note_on_c, 1, 63, 64
3, 24540, Note_off_c, 1, 63, 70
3, 24840, Note_on_c, 1, 56, 64
3, 24960, Note_off_c, 1, 56, 64
3, 24960, Note_on_c, 1, 58, 64
3, 25020, Note_off_c, 1, 58, 66
3, 25020, Note_on_c, 1, 56, 64
3, 25080, Note_off_c, 1, 56, 63
3, 25080, Note_on_c, 1, 54, 64
3, 25140, Note_off_c, 1, 54, 49
3, 25140, Note_on_c, 1, 56, 64
3, 25200, Note_off_c, 1, 56, 59
3, 25200, Note_on_c, 1, 65, 64
3, 25320, Note_off_c, 1, 65, 62
3, 25320, Note_on_c, 1, 61, 64
3, 25440, Note_off_c, 1, 61, 59
3, 25440, Note_on_c, 1, 56, 64
3, 25560, Note_off_c, 1, 56, 52
3, 25560, Note_on_c, 1, 54, 64
3, 25620, Note_off_c, 1, 54, 62
3, 25620, Note_on_c, 1, 53, 64
3, 25680, Note_off_c, 1, 53, 59
3, 25680, Note_on_c, 1, 54, 64
3, 25800, Note_off_c, 1, 54, 70
3, 25800, Note_on_c, 1, 63, 64
3, 25920, Note_off_c, 1, 63, 45
3, 25920, Note_on_c, 1, 53, 64
3, 26040, Note_off_c, 1, 53, 68
3, 26040, Note_on_c, 1, 61, 64
3, 26160, Note_off_c, 1, 61, 66
3, 26280, Note_on_c, 1, 60, 64
3, 26400, Note_off_c, 1, 60, 53
3, 26400, Note_on_c, 1, 61, 64
3, 26520, Note_off_c, 1, 61, 79
3, 26760, Note_on_c, 1, 80, 64
3, 26820, Note_off_c, 1, 80, 65
3, 26820, Note_on_c, 1, 77, 64
3, 26880, Note_off_c, 1, 77, 77
3, 26880, Note_on_c, 1, 73, 64
3, 27120, Note_off_c, 1, 73, 80
3, 27240, Note_on_c, 1, 73, 64
3, 27300, Note_off_c, 1, 73, 72
3, 27300, Note_on_c, 1, 70, 64
3, 27360, Note_off_c, 1, 70, 72
3, 27360, Note_on_c, 1, 67, 64
3, 27600, Note_off_c, 1, 67, 58
3, 27720, Note_on_c, 1, 73, 64
3, 27840, Note_off_c, 1, 73, 54
3, 27840, Note_on_c, 1, 71, 64
3, 28080, Note_off_c, 1, 71, 70
3, 28080, Note_on_c, 1, 70, 64
3, 28320, Note_off_c, 1, 70, 73
3, 28920, Note_on_c, 1, 59, 64
3, 28980, Note_off_c, 1, 59, 53
3, 28980, Note_on_c, 1, 56, 64
3, 29040, Note_off_c, 1, 56, 70
3, 29040, Note_on_c, 1, 53, 64
3, 29160, Note_off_c, 1, 53, 74
3, 29400, Note_on_c, 1, 58, 64
3, 29460, Note_off_c, 1, 58, 65
3, 29460, Note_on_c, 1, 54, 64
3, 29520, Note_off_c, 1, 54, 59
3, 29520, Note_on_c, 1, 51, 64
3, 29640, Note_off_c, 1, 51, 79
3, 29880, Note_on_c, 1, 58, 64
3, 29940, Note_off_c, 1, 58, 63
3, 29940, Note_on_c, 1, 54, 64
3, 30000, Note_off_c, 1, 54, 69
3, 30000, Note_on_c, 1, 51, 64
3, 30120, Note_off_c, 1, 51, 79
3, 30360, Note_on_c, 1, 56, 64
3, 30420, Note_off_c, 1, 56, 51
3, 30420, Note_on_c, 1, 53, 64
3, 30480, Note_off_c, 1, 53, 52
3, 30480, Note_on_c, 1, 50, 64
3, 30600, Note_off_c, 1, 50, 77
3, 30840, Note_on_c, 1, 56, 64
3, 30900, Note_off_c, 1, 56, 57
3, 30900, Note_on_c, 1, 53, 64
3, 30960, Note_off_c, 1, 53, 57
3, 30960, Note_on_c, 1, 50, 64
3, 31080, Note_off_c, 1, 50, 73
3, 31320, Note_on_c, 1, 54, 64
3, 31380, Note_off_c, 1, 54, 51
3, 31380, Note_on_c, 1, 51, 64
3, 31440, Note_off_c, 1, 51, 62
3, 31440, Note_on_c, 1, 48, 64
3, 31560, Note_off_c, 1, 48, 74
3, 31800, Note_on_c, 1, 54, 64
3, 31860, Note_off_c, 1, 54, 53
3, 31860, Note_on_c, 1, 51, 64
3, 31920, Note_off_c, 1, 51, 69
3, 31920, Note_on_c, 1, 48, 64
3, 32040, Note_off_c, 1, 48, 76
3, 41640, Note_on_c, 1, 61, 64
3, 41700, Note_off_c, 1, 61, 61
3, 41700, Note_on_c, 1, 63, 64
3, 41760, Note_off_c, 1, 63, 51
3, 41760, Note_on_c, 1, 65, 64
3, 41820, Note_off_c, 1, 65, 51
3, 41820, Note_on_c, 1, 63, 64
3, 41880, Note_off_c, 1, 63, 59
3, 41880, Note_on_c, 1, 61, 64
3, 41940, Note_off_c, 1, 61, 73
3, 41940, Note_on_c, 1, 63, 64
3, 42000, Note_off_c, 1, 63, 65
3, 42000, Note_on_c, 1, 72, 64
3, 42120, Note_off_c, 1, 72, 82
3, 42120, Note_on_c, 1, 68, 64
3, 42240, Note_off_c, 1, 68, 68
3, 42240, Note_on_c, 1, 63, 64
3, 42360, Note_off_c, 1, 63, 37
3, 42360, Note_on_c, 1, 61, 64
3, 42420, Note_off_c, 1, 61, 66
3, 42420, Note_on_c, 1, 60, 64
3, 42480, Note_off_c, 1, 60, 49
3, 42480, Note_on_c, 1, 61, 64
3, 42600, Note_off_c, 1, 61, 79
3, 42600, Note_on_c, 1, 70, 64
3, 42720, Note_off_c, 1, 70, 66
3, 42720, Note_on_c, 1, 60, 64
3, 42840, Note_off_c, 1, 60, 66
3, 42840, Note_on_c, 1, 68, 64
3, 42960, Note_off_c, 1, 68, 70
3, 42960, Note_on_c, 1, 58, 64
3, 43080, Note_off_c, 1, 58, 66
3, 43080, Note_on_c, 1, 67, 64
3, 43200, Note_off_c, 1, 67, 52
3, 43200, Note_on_c, 1, 56, 64
3, 43320, Note_off_c, 1, 56, 70
3, 43320, Note_on_c, 1, 68, 64
3, 43380, Note_off_c, 1, 68, 86
3, 43380, Note_on_c, 1, 66, 64
3, 43440, Note_off_c, 1, 66, 46
3, 43440, Note_on_c, 1, 68, 64
3, 43500, Note_off_c, 1, 68, 72
3, 43500, Note_on_c, 1, 70, 64
3, 43560, Note_off_c, 1, 70, 61
3, 43560, Note_on_c, 1, 72, 64
3, 43620, Note_off_c, 1, 72, 85
3, 43620, Note_on_c, 1, 68, 64
3, 43680, Note_off_c, 1, 68, 83
3, 43680, Note_on_c, 1, 73, 64
3, 43740, Note_off_c, 1, 73, 1
3, 43740, Note_on_c, 1, 72, 64
3, 43800, Note_off_c, 1, 72, 85
3, 43800, Note_on_c, 1, 70, 64
3, 43860, Note_off_c, 1, 70, 40
3, 43860, Note_on_c, 1, 72, 64
3, 43920, Note_off_c, 1, 72, 80
3, 43920, Note_on_c, 1, 73, 64
3, 43980, Note_off_c, 1, 73, 63
3, 43980, Note_on_c, 1, 72, 64
3, 44040, Note_off_c, 1, 72, 83
3, 44040, Note_on_c, 1, 70, 64
3, 44100, Note_off_c, 1, 70, 65
3, 44100, Note_on_c, 1, 68, 64
3, 44160, Note_off_c, 1, 68, 79
3, 44160, Note_on_c, 1, 70, 64
3, 44460, Note_on_c, 1, 68, 64
3, 44461, Note_off_c, 1, 70, 79
3, 44520, Note_off_c, 1, 68, 51
3, 44520, Note_on_c, 1, 66, 64
3, 44580, Note_off_c, 1, 66, 68
3, 44580, Note_on_c, 1, 70, 64
3, 44640, Note_off_c, 1, 70, 74
3, 44640, Note_on_c, 1, 68, 64
3, 44700, Note_off_c, 1, 68, 62
3, 44700, Note_on_c, 1, 66, 64
3, 44760, Note_off_c, 1, 66, 73
3, 44760, Note_on_c, 1, 65, 64
3, 44820, Note_off_c, 1, 65, 59
3, 44820, Note_on_c, 1, 68, 64
3, 44880, Note_off_c, 1, 68, 80
3, 44880, Note_on_c, 1, 66, 64
3, 44940, Note_off_c, 1, 66, 73
3, 44940, Note_on_c, 1, 65, 64
3, 45000, Note_off_c, 1, 65, 68
3, 45000, Note_on_c, 1, 66, 64
3, 45060, Note_off_c, 1, 66, 74
3, 45060, Note_on_c, 1, 63, 64
3, 45120, Note_off_c, 1, 63, 53
3, 45120, Note_on_c, 1, 65, 64
3, 45720, Note_off_c, 1, 65, 54
3, 45720, Note_on_c, 1, 61, 64
3, 45840, Note_off_c, 1, 61, 72
3, 45840, Note_on_c, 1, 66, 64
3, 45960, Note_off_c, 1, 66, 1
3, 45960, Note_on_c, 1, 65, 64
3, 46080, Note_off_c, 1, 65, 66
3, 46080, Note_on_c, 1, 66, 64
3, 46320, Note_off_c, 1, 66, 83
3, 46440, Note_on_c, 1, 66, 64
3, 46500, Note_off_c, 1, 66, 66
3, 46500, Note_on_c, 1, 63, 64
3, 46560, Note_off_c, 1, 63, 49
3, 46560, Note_on_c, 1, 56, 64
3, 46800, Note_off_c, 1, 56, 65
3, 46920, Note_on_c, 1, 60, 64
3, 47040, Note_off_c, 1, 60, 73
3, 47040, Note_on_c, 1, 65, 64
3, 47280, Note_off_c, 1, 65, 55
3, 47400, Note_on_c, 1, 65, 64
3, 47460, Note_off_c, 1, 65, 55
3, 47460, Note_on_c, 1, 62, 64
3, 47520, Note_off_c, 1, 62, 49
3, 47520, Note_on_c, 1, 54, 64
3, 47760, Note_off_c, 1, 54, 57
3, 47880, Note_on_c, 1, 58, 64
3, 48000, Note_off_c, 1, 58, 61
3, 48000, Note_on_c, 1, 63, 64
3, 48300, Note_on_c, 1, 66, 64
3, 48307, Note_off_c, 1, 63, 42
3, 48360, Note_off_c, 1, 66, 65
3, 48360, Note_on_c, 1, 68, 64
3, 48420, Note_off_c, 1, 68, 72
3, 48420, Note_on_c, 1, 63, 64
3, 48480, Note_off_c, 1, 63, 43
3, 48480, Note_on_c, 1, 65, 64
3, 48720, Note_off_c, 1, 65, 63
3, 48840, Note_on_c, 1, 61, 64
3, 49020, Note_off_c, 1, 61, 26
3, 49020, Note_on_c, 1, 60, 64
3, 49080, Note_off_c, 1, 60, 73
3, 49080, Note_on_c, 1, 58, 64
3, 49140, Note_off_c, 1, 58, 55
3, 49140, Note_on_c, 1, 60, 64
3, 49200, Note_off_c, 1, 60, 66
3, 49200, Note_on_c, 1, 61, 64
3, 49260, Note_off_c, 1, 61, 52
3, 49260, Note_on_c, 1, 60, 64
3, 49320, Note_off_c, 1, 60, 68
3, 49320, Note_on_c, 1, 58, 64
3, 49380, Note_off_c, 1, 58, 55
3, 49380, Note_on_c, 1, 56, 64
3, 49440, Note_off_c, 1, 56, 63
3, 49440, Note_on_c, 1, 58, 64
3, 49740, Note_off_c, 1, 58, 68
3, 49740, Note_on_c, 1, 56, 64
3, 49800, Note_off_c, 1, 56, 59
3, 49800, Note_on_c, 1, 54, 64
3, 49860, Note_off_c, 1, 54, 58
3, 49860, Note_on_c, 1, 58, 64
3, 49920, Note_off_c, 1, 58, 62
3, 49920, Note_on_c, 1, 56, 64
3, 49980, Note_off_c, 1, 56, 58
3, 49980, Note_on_c, 1, 54, 64
3, 50040, Note_off_c, 1, 54, 61
3, 50040, Note_on_c, 1, 53, 64
3, 50100, Note_off_c, 1, 53, 49
3, 50100, Note_on_c, 1, 56, 64
3, 50160, Note_off_c, 1, 56, 61
3, 50160, Note_on_c, 1, 54, 64
3, 50220, Note_off_c, 1, 54, 63
3, 50220, Note_on_c, 1, 53, 64
3, 50280, Note_off_c, 1, 53, 51
3, 50280, Note_on_c, 1, 51, 64
3, 50340, Note_off_c, 1, 51, 55
3, 50340, Note_on_c, 1, 54, 64
3, 50400, Note_off_c, 1, 54, 69
3, 50400, Note_on_c, 1, 53, 64
3, 50460, Note_off_c, 1, 53, 44
3, 50460, Note_on_c, 1, 56, 64
3, 50520, Note_off_c, 1, 56, 66
3, 50520, Note_on_c, 1, 58, 64
3, 50580, Note_off_c, 1, 58, 72
3, 50580, Note_on_c, 1, 60, 64
3, 50640, Note_off_c, 1, 60, 55
3, 50640, Note_on_c, 1, 61, 64
3, 50700, Note_off_c, 1, 61, 70
3, 50700, Note_on_c, 1, 60, 64
3, 50760, Note_off_c, 1, 60, 51
3, 50760, Note_on_c, 1, 58, 64
3, 50820, Note_off_c, 1, 58, 58
3, 50820, Note_on_c, 1, 56, 64
3, 50880, Note_off_c, 1, 56, 63
3, 50880, Note_on_c, 1, 55, 64
3, 50940, Note_off_c, 1, 55, 46
3, 50940, Note_on_c, 1, 56, 64
3, 51000, Note_off_c, 1, 56, 62
3, 51000, Note_on_c, 1, 58, 64
3, 51060, Note_off_c, 1, 58, 65
3, 51060, Note_on_c, 1, 55, 64
3, 51120, Note_off_c, 1, 55, 65
3, 51120, Note_on_c, 1, 51, 64
3, 51410, Note_off_c, 1, 51, 54
3, 51420, Note_on_c, 1, 51, 64
3, 51480, Note_on_c, 1, 53, 64
3, 51483, Note_off_c, 1, 51, 61
3, 51540, Note_off_c, 1, 53, 43
3, 51540, Note_on_c, 1, 54, 64
3, 51600, Note_off_c, 1, 54, 55
3, 51600, Note_on_c, 1, 56, 64
3, 51660, Note_off_c, 1, 56, 52
3, 51660, Note_on_c, 1, 58, 64
3, 51720, Note_off_c, 1, 58, 63
3, 51720, Note_on_c, 1, 60, 64
3, 51780, Note_off_c, 1, 60, 73
3, 51780, Note_on_c, 1, 56, 64
3, 51840, Note_off_c, 1, 56, 51
3, 51840, Note_on_c, 1, 61, 64
3, 51950, Note_off_c, 1, 61, 73
3, 51960, Note_on_c, 1, 61, 64
3, 51960, Note_on_c, 1, 68, 64
3, 52070, Note_off_c, 1, 68, 61
3, 52070, Note_off_c, 1, 61, 44
3, 52080, Note_on_c, 1, 66, 64
3, 52080, Note_on_c, 1, 70, 64
3, 52190, Note_off_c, 1, 70, 47
3, 52190, Note_off_c, 1, 66, 53
3, 52200, Note_on_c, 1, 68, 64
3, 52200, Note_on_c, 1, 66, 64
3, 52310, Note_off_c, 1, 66, 74
3, 52310, Note_off_c, 1, 68, 74
3, 52320, Note_on_c, 1, 61, 64
3, 52320, Note_on_c, 1, 68, 64
3, 52320, Note_on_c, 1, 65, 64
3, 52800, Note_off_c, 1, 65, 62
3, 52800, Note_off_c, 1, 68, 83
3, 52800, Note_off_c, 1, 61, 76
3, 52800, End_track
4, 0, Start_track
4, 0, Text_t, "LH L"
4, 4200, Note_on_c, 2, 56, 64
4, 4320, Note_off_c, 2, 56, 52
4, 4320, Note_on_c, 2, 58, 64
4, 4380, Note_off_c, 2, 58, 54
4, 4380, Note_on_c, 2, 56, 64
4, 4440, Note_off_c, 2, 56, 61
4, 4440, Note_on_c, 2, 54, 64
4, 4500, Note_off_c, 2, 54, 51
4, 4500, Note_on_c, 2, 56, 64
4, 4560, Note_off_c, 2, 56, 65
4, 4560, Note_on_c, 2, 65, 64
4, 4680, Note_off_c, 2, 65, 1
4, 4680, Note_on_c, 2, 61, 64
4, 4800, Note_off_c, 2, 61, 72
4, 4800, Note_on_c, 2, 56, 64
4, 4920, Note_off_c, 2, 56, 55
4, 4920, Note_on_c, 2, 54, 64
4, 4980, Note_off_c, 2, 54, 62
4, 4980, Note_on_c, 2, 53, 64
4, 5040, Note_off_c, 2, 53, 66
4, 5040, Note_on_c, 2, 54, 64
4, 5160, Note_off_c, 2, 54, 77
4, 5160, Note_on_c, 2, 63, 64
4, 5280, Note_off_c, 2, 63, 57
4, 5280, Note_on_c, 2, 53, 64
4, 5400, Note_off_c, 2, 53, 69
4, 5400, Note_on_c, 2, 61, 64
4, 5520, Note_off_c, 2, 61, 66
4, 5520, Note_on_c, 2, 51, 64
4, 5640, Note_off_c, 2, 51, 69
4, 5640, Note_on_c, 2, 60, 64
4, 5760, Note_off_c, 2, 60, 69
4, 5760, Note_on_c, 2, 49, 64
4, 5880, Note_off_c, 2, 49, 83
4, 5880, Note_on_c, 2, 61, 64
4, 5940, Note_off_c, 2, 61, 77
4, 5940, Note_on_c, 2, 60, 64
4, 6000, Note_off_c, 2, 60, 59
4, 6000, Note_on_c, 2, 61, 64
4, 6060, Note_off_c, 2, 61, 63
4, 6060, Note_on_c, 2, 63, 64
4, 6120, Note_off_c, 2, 63, 49
4, 6120, Note_on_c, 2, 65, 64
4, 6180, Note_off_c, 2, 65, 1
4, 6180, Note_on_c, 2, 61, 64
4, 6240, Note_off_c, 2, 61, 72
4, 6240, Note_on_c, 2, 58, 64
4, 6300, Note_off_c, 2, 58, 73
4, 6300, Note_on_c, 2, 60, 64
4, 6360, Note_off_c, 2, 60, 69
4, 6360, Note_on_c, 2, 61, 64
4, 6420, Note_off_c, 2, 61, 69
4, 6420, Note_on_c, 2, 58, 64
4, 6480, Note_off_c, 2, 58, 63
4, 6480, Note_on_c, 2, 55, 64
4, 6540, Note_off_c, 2, 55, 59
4, 6540, Note_on_c, 2, 56, 64
4, 6600, Note_off_c, 2, 56, 72
4, 6600, Note_on_c, 2, 58, 64
4, 6660, Note_off_c, 2, 58, 70
4, 6660, Note_on_c, 2, 55, 64
4, 6720, Note_off_c, 2, 55, 59
4, 6720, Note_on_c, 2, 48, 64
4, 6840, Note_off_c, 2, 48, 46
4, 6840, Note_on_c, 2, 60, 64
4, 6900, Note_off_c, 2, 60, 68
4, 6900, Note_on_c, 2, 58, 64
4, 6960, Note_off_c, 2, 58, 62
4, 6960, Note_on_c, 2, 60, 64
4, 7020, Note_off_c, 2, 60, 44
4, 7020, Note_on_c, 2, 61, 64
4, 7080, Note_off_c, 2, 61, 70
4, 7080, Note_on_c, 2, 63, 64
4, 7140, Note_off_c, 2, 63, 48
4, 7140, Note_on_c, 2, 60, 64
4, 7200, Note_off_c, 2, 60, 73
4, 7200, Note_on_c, 2, 56, 64
4, 7260, Note_off_c, 2, 56, 62
4, 7260, Note_on_c, 2, 58, 64
4, 7320, Note_off_c, 2, 58, 57
4, 7320, Note_on_c, 2, 60, 64
4, 7380, Note_off_c, 2, 60, 59
4, 7380, Note_on_c, 2, 56, 64
4, 7440, Note_off_c, 2, 56, 66
4, 7440, Note_on_c, 2, 53, 64
4, 7500, Note_off_c, 2, 53, 52
4, 7500, Note_on_c, 2, 55, 64
4, 7560, Note_off_c, 2, 55, 69
4, 7560, Note_on_c, 2, 56, 64
4, 7620, Note_off_c, 2, 56, 65
4, 7620, Note_on_c, 2, 53, 64
4, 7680, Note_off_c, 2, 53, 58
4, 7680, Note_on_c, 2, 46, 64
4, 7800, Note_off_c, 2, 46, 58
4, 7800, Note_on_c, 2, 58, 64
4, 7860, Note_off_c, 2, 58, 76
4, 7860, Note_on_c, 2, 56, 64
4, 7920, Note_off_c, 2, 56, 62
4, 7920, Note_on_c, 2, 58, 64
4, 7980, Note_off_c, 2, 58, 53
4, 7980, Note_on_c, 2, 60, 64
4, 8040, Note_off_c, 2, 60, 63
4, 8040, Note_on_c, 2, 61, 64
4, 8100, Note_off_c, 2, 61, 69
4, 8100, Note_on_c, 2, 58, 64
4, 8160, Note_off_c, 2, 58, 69
4, 8160, Note_on_c, 2, 55, 64
4, 8220, Note_off_c, 2, 55, 46
4, 8220, Note_on_c, 2, 56, 64
4, 8280, Note_off_c, 2, 56, 65
4, 8280, Note_on_c, 2, 58, 64
4, 8340, Note_off_c, 2, 58, 65
4, 8340, Note_on_c, 2, 55, 64
4, 8400, Note_off_c, 2, 55, 27
4, 8400, Note_on_c, 2, 51, 64
4, 8460, Note_off_c, 2, 51, 57
4, 8460, Note_on_c, 2, 53, 64
4, 8520, Note_off_c, 2, 53, 55
4, 8520, Note_on_c, 2, 55, 64
4, 8580, Note_off_c, 2, 55, 70
4, 8580, Note_on_c, 2, 51, 64
4, 8640, Note_off_c, 2, 51, 68
4, 8640, Note_on_c, 2, 44, 64
4, 8760, Note_off_c, 2, 44, 73
4, 8760, Note_on_c, 2, 56, 64
4, 8820, Note_off_c, 2, 56, 63
4, 8820, Note_on_c, 2, 58, 64
4, 8880, Note_off_c, 2, 58, 46
4, 8880, Note_on_c, 2, 60, 64
4, 9000, Note_off_c, 2, 60, 66
4, 9000, Note_on_c, 2, 56, 64
4, 9120, Note_off_c, 2, 56, 69
4, 9120, Note_on_c, 2, 61, 64
4, 9360, Note_off_c, 2, 61, 79
4, 9360, Note_on_c, 2, 60, 64
4, 9600, Note_off_c, 2, 60, 61
4, 9600, Note_on_c, 2, 58, 64
4, 9720, Note_off_c, 2, 58, 62
4, 9720, Note_on_c, 2, 56, 64
4, 9840, Note_off_c, 2, 56, 68
4, 9840, Note_on_c, 2, 55, 64
4, 10080, Note_off_c, 2, 55, 68
4, 10080, Note_on_c, 2, 56, 64
4, 10320, Note_off_c, 2, 56, 73
4, 10320, Note_on_c, 2, 51, 64
4, 10560, Note_off_c, 2, 51, 65
4, 10560, Note_on_c, 2, 56, 64
4, 10800, Note_off_c, 2, 56, 58
4, 10920, Note_on_c, 2, 63, 64
4, 10980, Note_off_c, 2, 63, 58
4, 10980, Note_on_c, 2, 60, 64
4, 11040, Note_off_c, 2, 60, 70
4, 11040, Note_on_c, 2, 56, 64
4, 11280, Note_off_c, 2, 56, 76
4, 11400, Note_on_c, 2, 56, 64
4, 11460, Note_off_c, 2, 56, 65
4, 11460, Note_on_c, 2, 53, 64
4, 11520, Note_off_c, 2, 53, 52
4, 11520, Note_on_c, 2, 50, 64
4, 11760, Note_off_c, 2, 50, 70
4, 11880, Note_on_c, 2, 53, 64
4, 12000, Note_off_c, 2, 53, 62
4, 12000, Note_on_c, 2, 54, 64
4, 12120, Note_off_c, 2, 54, 70
4, 12120, Note_on_c, 2, 56, 64
4, 12240, Note_off_c, 2, 56, 68
4, 12240, Note_on_c, 2, 58, 64
4, 12360, Note_off_c, 2, 58, 69
4, 12360, Note_on_c, 2, 46, 64
4, 12480, Note_off_c, 2, 46, 57
4, 12480, Note_on_c, 2, 39, 64
4, 12720, Note_off_c, 2, 39, 79
4, 12840, Note_on_c, 2, 51, 64
4, 12960, Note_off_c, 2, 51, 70
4, 12960, Note_on_c, 2, 54, 64
4, 13020, Note_off_c, 2, 54, 66
4, 13020, Note_on_c, 2, 53, 64
4, 13080, Note_off_c, 2, 53, 58
4, 13080, Note_on_c, 2, 51, 64
4, 13140, Note_off_c, 2, 51, 69
4, 13140, Note_on_c, 2, 53, 64
4, 13200, Note_off_c, 2, 53, 58
4, 13200, Note_on_c, 2, 61, 64
4, 13320, Note_off_c, 2, 61, 61
4, 13320, Note_on_c, 2, 58, 64
4, 13440, Note_off_c, 2, 58, 65
4, 13440, Note_on_c, 2, 53, 64
4, 13560, Note_off_c, 2, 53, 54
4, 13560, Note_on_c, 2, 51, 64
4, 13620, Note_off_c, 2, 51, 69
4, 13620, Note_on_c, 2, 49, 64
4, 13680, Note_off_c, 2, 49, 73
4, 13680, Note_on_c, 2, 51, 64
4, 13800, Note_off_c, 2, 51, 74
4, 13800, Note_on_c, 2, 60, 64
4, 13920, Note_off_c, 2, 60, 66
4, 13920, Note_on_c, 2, 49, 64
4, 14040, Note_off_c, 2, 49, 74
4, 14040, Note_on_c, 2, 58, 64
4, 14160, Note_off_c, 2, 58, 69
4, 14160, Note_on_c, 2, 48, 64
4, 14280, Note_off_c, 2, 48, 69
4, 14280, Note_on_c, 2, 57, 64
4, 14400, Note_off_c, 2, 57, 59
4, 14400, Note_on_c, 2, 46, 64
4, 14520, Note_off_c, 2, 46, 62
4, 14520, Note_on_c, 2, 58, 64
4, 14580, Note_off_c, 2, 58, 50
4, 14580, Note_on_c, 2, 57, 64
4, 14640, Note_off_c, 2, 57, 48
4, 14640, Note_on_c, 2, 58, 64
4, 14700, Note_off_c, 2, 58, 40
4, 14700, Note_on_c, 2, 60, 64
4, 14760, Note_off_c, 2, 60, 68
4, 14760, Note_on_c, 2, 61, 64
4, 14820, Note_off_c, 2, 61, 59
4, 14820, Note_on_c, 2, 58, 64
4, 14880, Note_off_c, 2, 58, 40
4, 14880, Note_on_c, 2, 55, 64
4, 14940, Note_off_c, 2, 55, 40
4, 14940, Note_on_c, 2, 56, 64
4, 15000, Note_off_c, 2, 56, 40
4, 15000, Note_on_c, 2, 58, 64
4, 15060, Note_off_c, 2, 58, 46
4, 15060, Note_on_c, 2, 55, 64
4, 15120, Note_off_c, 2, 55, 54
4, 15120, Note_on_c, 2, 51, 64
4, 15180, Note_off_c, 2, 51, 40
4, 15180, Note_on_c, 2, 53, 64
4, 15240, Note_off_c, 2, 53, 41
4, 15240, Note_on_c, 2, 55, 64
4, 15300, Note_off_c, 2, 55, 49
4, 15300, Note_on_c, 2, 51, 64
4, 15360, Note_off_c, 2, 51, 28
4, 15360, Note_on_c, 2, 44, 64
4, 15480, Note_off_c, 2, 44, 76
4, 15480, Note_on_c, 2, 56, 64
4, 15540, Note_off_c, 2, 56, 52
4, 15540, Note_on_c, 2, 55, 64
4, 15600, Note_off_c, 2, 55, 50
4, 15600, Note_on_c, 2, 56, 64
4, 15660, Note_off_c, 2, 56, 43
4, 15660, Note_on_c, 2, 58, 64
4, 15720, Note_off_c, 2, 58, 46
4, 15720, Note_on_c, 2, 60, 64
4, 15780, Note_off_c, 2, 60, 39
4, 15780, Note_on_c, 2, 56, 64
4, 15840, Note_off_c, 2, 56, 44
4, 15840, Note_on_c, 2, 53, 64
4, 15900, Note_off_c, 2, 53, 35
4, 15900, Note_on_c, 2, 55, 64
4, 15960, Note_off_c, 2, 55, 1
4, 15960, Note_on_c, 2, 56, 64
4, 16020, Note_off_c, 2, 56, 39
4, 16020, Note_on_c, 2, 53, 64
4, 16080, Note_off_c, 2, 53, 52
4, 16080, Note_on_c, 2, 49, 64
4, 16140, Note_off_c, 2, 49, 48
4, 16140, Note_on_c, 2, 51, 64
4, 16200, Note_off_c, 2, 51, 26
4, 16200, Note_on_c, 2, 53, 64
4, 16260, Note_off_c, 2, 53, 53
4, 16260, Note_on_c, 2, 49, 64
4, 16320, Note_off_c, 2, 49, 79
4, 16320, Note_on_c, 2, 43, 64
4, 16440, Note_off_c, 2, 43, 69
4, 16440, Note_on_c, 2, 55, 64
4, 16500, Note_off_c, 2, 55, 50
4, 16500, Note_on_c, 2, 53, 64
4, 16560, Note_off_c, 2, 53, 51
4, 16560, Note_on_c, 2, 55, 64
4, 16620, Note_off_c, 2, 55, 52
4, 16620, Note_on_c, 2, 56, 64
4, 16680, Note_off_c, 2, 56, 44
4, 16680, Note_on_c, 2, 58, 64
4, 16740, Note_off_c, 2, 58, 49
4, 16740, Note_on_c, 2, 55, 64
4, 16800, Note_off_c, 2, 55, 72
4, 16800, Note_on_c, 2, 52, 64
4, 16860, Note_off_c, 2, 52, 53
4, 16860, Note_on_c, 2, 53, 64
4, 16920, Note_off_c, 2, 53, 43
4, 16920, Note_on_c, 2, 55, 64
4, 16980, Note_off_c, 2, 55, 50
4, 16980, Note_on_c, 2, 52, 64
4, 17040, Note_off_c, 2, 52, 65
4, 17040, Note_on_c, 2, 48, 64
4, 17100, Note_off_c, 2, 48, 44
4, 17100, Note_on_c, 2, 50, 64
4, 17160, Note_off_c, 2, 50, 49
4, 17160, Note_on_c, 2, 52, 64
4, 17220, Note_off_c, 2, 52, 53
4, 17220, Note_on_c, 2, 48, 64
4, 17280, Note_off_c, 2, 48, 52
4, 17280, Note_on_c, 2, 41, 64
4, 17340, Note_off_c, 2, 41, 46
4, 17340, Note_on_c, 2, 43, 64
4, 17400, Note_off_c, 2, 43, 63
4, 17400, Note_on_c, 2, 44, 64
4, 17460, Note_off_c, 2, 44, 58
4, 17460, Note_on_c, 2, 46, 64
4, 17520, Note_off_c, 2, 46, 38
4, 17520, Note_on_c, 2, 48, 64
4, 17580, Note_off_c, 2, 48, 5
4, 17580, Note_on_c, 2, 50, 64
4, 17640, Note_off_c, 2, 50, 41
4, 17640, Note_on_c, 2, 52, 64
4, 17700, Note_off_c, 2, 52, 52
4, 17700, Note_on_c, 2, 48, 64
4, 17760, Note_off_c, 2, 48, 13
4, 17760, Note_on_c, 2, 53, 64
4, 17820, Note_off_c, 2, 53, 46
4, 17820, Note_on_c, 2, 51, 64
4, 17880, Note_off_c, 2, 51, 40
4, 17880, Note_on_c, 2, 49, 64
4, 17940, Note_off_c, 2, 49, 47
4, 17940, Note_on_c, 2, 51, 64
4, 18000, Note_off_c, 2, 51, 49
4, 18000, Note_on_c, 2, 53, 64
4, 18060, Note_off_c, 2, 53, 37
4, 18060, Note_on_c, 2, 51, 64
4, 18120, Note_off_c, 2, 51, 40
4, 18120, Note_on_c, 2, 49, 64
4, 18180, Note_off_c, 2, 49, 65
4, 18180, Note_on_c, 2, 48, 64
4, 18240, Note_off_c, 2, 48, 53
4, 18240, Note_on_c, 2, 49, 64
4, 18540, Note_off_c, 2, 49, 79
4, 18540, Note_on_c, 2, 48, 64
4, 18600, Note_off_c, 2, 48, 61
4, 18600, Note_on_c, 2, 46, 64
4, 18660, Note_off_c, 2, 46, 61
4, 18660, Note_on_c, 2, 49, 64
4, 18720, Note_off_c, 2, 49, 76
4, 18720, Note_on_c, 2, 48, 64
4, 18780, Note_off_c, 2, 48, 59
4, 18780, Note_on_c, 2, 46, 64
4, 18840, Note_off_c, 2, 46, 72
4, 18840, Note_on_c, 2, 44, 64
4, 18900, Note_off_c, 2, 44, 70
4, 18900, Note_on_c, 2, 48, 64
4, 18960, Note_off_c, 2, 48, 59
4, 18960, Note_on_c, 2, 46, 64
4, 19020, Note_off_c, 2, 46, 59
4, 19020, Note_on_c, 2, 44, 64
4, 19080, Note_off_c, 2, 44, 65
4, 19080, Note_on_c, 2, 46, 64
4, 19140, Note_off_c, 2, 46, 58
4, 19140, Note_on_c, 2, 43, 64
4, 19200, Note_off_c, 2, 43, 61
4, 19200, Note_on_c, 2, 44, 64
4, 19320, Note_off_c, 2, 44, 53
4, 19320, Note_on_c, 2, 49, 64
4, 19440, Note_off_c, 2, 49, 72
4, 19440, Note_on_c, 2, 43, 64
4, 19560, Note_off_c, 2, 43, 55
4, 19560, Note_on_c, 2, 48, 64
4, 19680, Note_off_c, 2, 48, 46
4, 19680, Note_on_c, 2, 41, 64
4, 19800, Note_off_c, 2, 41, 44
4, 19800, Note_on_c, 2, 46, 64
4, 19920, Note_off_c, 2, 46, 63
4, 19920, Note_on_c, 2, 44, 64
4, 20040, Note_off_c, 2, 44, 70
4, 20040, Note_on_c, 2, 49, 64
4, 20160, Note_off_c, 2, 49, 82
4, 20160, Note_on_c, 2, 48, 64
4, 20640, Note_off_c, 2, 48, 70
4, 20640, Note_on_c, 2, 53, 64
4, 20880, Note_off_c, 2, 53, 74
4, 22380, Note_on_c, 2, 44, 64
4, 22440, Note_off_c, 2, 44, 62
4, 22440, Note_on_c, 2, 46, 64
4, 22500, Note_off_c, 2, 46, 79
4, 22500, Note_on_c, 2, 48, 64
4, 22560, Note_off_c, 2, 48, 54
4, 22560, Note_on_c, 2, 49, 64
4, 22860, Note_off_c, 2, 49, 70
4, 22860, Note_on_c, 2, 51, 64
4, 22920, Note_off_c, 2, 51, 74
4, 22920, Note_on_c, 2, 53, 64
4, 22980, Note_off_c, 2, 53, 52
4, 22980, Note_on_c, 2, 55, 64
4, 23040, Note_off_c, 2, 55, 72
4, 23040, Note_on_c, 2, 56, 64
4, 23100, Note_off_c, 2, 56, 52
4, 23100, Note_on_c, 2, 55, 64
4, 23160, Note_off_c, 2, 55, 66
4, 23160, Note_on_c, 2, 53, 64
4, 23220, Note_off_c, 2, 53, 52
4, 23220, Note_on_c, 2, 55, 64
4, 23280, Note_off_c, 2, 55, 65
4, 23280, Note_on_c, 2, 56, 64
4, 23340, Note_off_c, 2, 56, 54
4, 23340, Note_on_c, 2, 55, 64
4, 23400, Note_off_c, 2, 55, 72
4, 23400, Note_on_c, 2, 53, 64
4, 23460, Note_off_c, 2, 53, 48
4, 23460, Note_on_c, 2, 51, 64
4, 23520, Note_off_c, 2, 51, 74
4, 23520, Note_on_c, 2, 53, 64
4, 23820, Note_off_c, 2, 53, 46
4, 23820, Note_on_c, 2, 51, 64
4, 23880, Note_off_c, 2, 51, 63
4, 23880, Note_on_c, 2, 49, 64
4, 23940, Note_off_c, 2, 49, 65
4, 23940, Note_on_c, 2, 53, 64
4, 24000, Note_off_c, 2, 53, 54
4, 24000, Note_on_c, 2, 51, 64
4, 24060, Note_off_c, 2, 51, 64
4, 24060, Note_on_c, 2, 49, 64
4, 24120, Note_off_c, 2, 49, 76
4, 24120, Note_on_c, 2, 48, 64
4, 24180, Note_off_c, 2, 48, 52
4, 24180, Note_on_c, 2, 51, 64
4, 24240, Note_off_c, 2, 51, 52
4, 24240, Note_on_c, 2, 49, 64
4, 24300, Note_off_c, 2, 49, 73
4, 24300, Note_on_c, 2, 48, 64
4, 24360, Note_off_c, 2, 48, 43
4, 24360, Note_on_c, 2, 46, 64
4, 24420, Note_off_c, 2, 46, 63
4, 24420, Note_on_c, 2, 49, 64
4, 24480, Note_off_c, 2, 49, 72
4, 24480, Note_on_c, 2, 48, 64
4, 24600, Note_off_c, 2, 48, 48
4, 24600, Note_on_c, 2, 51, 64
4, 24720, Note_off_c, 2, 51, 62
4, 24720, Note_on_c, 2, 54, 64
4, 25200, Note_off_c, 2, 54, 74
4, 25200, Note_on_c, 2, 53, 64
4, 25680, Note_off_c, 2, 53, 69
4, 25680, Note_on_c, 2, 51, 64
4, 26040, Note_off_c, 2, 51, 63
4, 26040, Note_on_c, 2, 49, 64
4, 26160, Note_off_c, 2, 49, 70
4, 26160, Note_on_c, 2, 51, 64
4, 26280, Note_off_c, 2, 51, 52
4, 26280, Note_on_c, 2, 44, 64
4, 26400, Note_off_c, 2, 44, 77
4, 26400, Note_on_c, 2, 49, 64
4, 26460, Note_off_c, 2, 49, 44
4, 26460, Note_on_c, 2, 51, 64
4, 26520, Note_off_c, 2, 51, 58
4, 26520, Note_on_c, 2, 53, 64
4, 26580, Note_off_c, 2, 53, 54
4, 26580, Note_on_c, 2, 54, 64
4, 26640, Note_off_c, 2, 54, 45
4, 26640, Note_on_c, 2, 53, 64
4, 26700, Note_off_c, 2, 53, 54
4, 26700, Note_on_c, 2, 51, 64
4, 26760, Note_off_c, 2, 51, 66
4, 26760, Note_on_c, 2, 49, 64
4, 26820, Note_off_c, 2, 49, 68
4, 26820, Note_on_c, 2, 53, 64
4, 26880, Note_off_c, 2, 53, 51
4, 26880, Note_on_c, 2, 58, 64
4, 26940, Note_off_c, 2, 58, 73
4, 26940, Note_on_c, 2, 56, 64
4, 27000, Note_off_c, 2, 56, 69
4, 27000, Note_on_c, 2, 55, 64
4, 27060, Note_off_c, 2, 55, 47
4, 27060, Note_on_c, 2, 58, 64
4, 27120, Note_off_c, 2, 58, 63
4, 27120, Note_on_c, 2, 61, 64
4, 27180, Note_off_c, 2, 61, 57
4, 27180, Note_on_c, 2, 59, 64
4, 27240, Note_off_c, 2, 59, 68
4, 27240, Note_on_c, 2, 58, 64
4, 27300, Note_off_c, 2, 58, 57
4, 27300, Note_on_c, 2, 61, 64
4, 27360, Note_off_c, 2, 61, 62
4, 27360, Note_on_c, 2, 64, 64
4, 27480, Note_off_c, 2, 64, 44
4, 27480, Note_on_c, 2, 63, 64
4, 27540, Note_off_c, 2, 63, 49
4, 27540, Note_on_c, 2, 61, 64
4, 27600, Note_off_c, 2, 61, 66
4, 27600, Note_on_c, 2, 59, 64
4, 27660, Note_off_c, 2, 59, 46
4, 27660, Note_on_c, 2, 58, 64
4, 27720, Note_off_c, 2, 58, 59
4, 27720, Note_on_c, 2, 56, 64
4, 27780, Note_off_c, 2, 56, 69
4, 27780, Note_on_c, 2, 55, 64
4, 27840, Note_off_c, 2, 55, 54
4, 27840, Note_on_c, 2, 56, 64
4, 27900, Note_off_c, 2, 56, 66
4, 27900, Note_on_c, 2, 59, 64
4, 27960, Note_off_c, 2, 59, 63
4, 27960, Note_on_c, 2, 58, 64
4, 28020, Note_off_c, 2, 58, 58
4, 28020, Note_on_c, 2, 56, 64
4, 28080, Note_off_c, 2, 56, 70
4, 28080, Note_on_c, 2, 55, 64
4, 28140, Note_off_c, 2, 55, 50
4, 28140, Note_on_c, 2, 53, 64
4, 28200, Note_off_c, 2, 53, 44
4, 28200, Note_on_c, 2, 51, 64
4, 28260, Note_off_c, 2, 51, 59
4, 28260, Note_on_c, 2, 49, 64
4, 28320, Note_off_c, 2, 49, 77
4, 28320, Note_on_c, 2, 47, 64
4, 28380, Note_off_c, 2, 47, 46
4, 28380, Note_on_c, 2, 49, 64
4, 28440, Note_off_c, 2, 49, 69
4, 28440, Note_on_c, 2, 51, 64
4, 28500, Note_off_c, 2, 51, 57
4, 28500, Note_on_c, 2, 47, 64
4, 28560, Note_off_c, 2, 47, 57
4, 28560, Note_on_c, 2, 44, 64
4, 28680, Note_off_c, 2, 44, 1
4, 28680, Note_on_c, 2, 56, 64
4, 28740, Note_off_c, 2, 56, 69
4, 28740, Note_on_c, 2, 53, 64
4, 28800, Note_off_c, 2, 53, 49
4, 28800, Note_on_c, 2, 49, 64
4, 28920, Note_off_c, 2, 49, 82
4, 29160, Note_on_c, 2, 49, 64
4, 29220, Note_off_c, 2, 49, 59
4, 29220, Note_on_c, 2, 46, 64
4, 29280, Note_off_c, 2, 46, 70
4, 29280, Note_on_c, 2, 42, 64
4, 29400, Note_off_c, 2, 42, 77
4, 29640, Note_on_c, 2, 54, 64
4, 29700, Note_off_c, 2, 54, 55
4, 29700, Note_on_c, 2, 51, 64
4, 29760, Note_off_c, 2, 51, 66
4, 29760, Note_on_c, 2, 48, 64
4, 29880, Note_off_c, 2, 48, 76
4, 30120, Note_on_c, 2, 48, 64
4, 30180, Note_off_c, 2, 48, 59
4, 30180, Note_on_c, 2, 44, 64
4, 30240, Note_off_c, 2, 44, 66
4, 30240, Note_on_c, 2, 41, 64
4, 30360, Note_off_c, 2, 41, 59
4, 30600, Note_on_c, 2, 53, 64
4, 30660, Note_off_c, 2, 53, 65
4, 30660, Note_on_c, 2, 50, 64
4, 30720, Note_off_c, 2, 50, 53
4, 30720, Note_on_c, 2, 46, 64
4, 30840, Note_off_c, 2, 46, 77
4, 31080, Note_on_c, 2, 46, 64
4, 31140, Note_off_c, 2, 46, 62
4, 31140, Note_on_c, 2, 42, 64
4, 31200, Note_off_c, 2, 42, 66
4, 31200, Note_on_c, 2, 39, 64
4, 31320, Note_off_c, 2, 39, 74
4, 31560, Note_on_c, 2, 51, 64
4, 31620, Note_off_c, 2, 51, 59
4, 31620, Note_on_c, 2, 48, 64
4, 31680, Note_off_c, 2, 48, 61
4, 31680, Note_on_c, 2, 44, 64
4, 31800, Note_off_c, 2, 44, 76
4, 32040, Note_on_c, 2, 44, 64
4, 32100, Note_off_c, 2, 44, 59
4, 32100, Note_on_c, 2, 41, 64
4, 32160, Note_off_c, 2, 41, 65
4, 32160, Note_on_c, 2, 37, 64
4, 32280, Note_off_c, 2, 37, 66
4, 32760, Note_on_c, 2, 59, 64
4, 32820, Note_off_c, 2, 59, 44
4, 32820, Note_on_c, 2, 49, 64
4, 32880, Note_off_c, 2, 49, 65
4, 32880, Note_on_c, 2, 58, 64
4, 32940, Note_off_c, 2, 58, 45
4, 32940, Note_on_c, 2, 49, 64
4, 33000, Note_off_c, 2, 49, 63
4, 33000, Note_on_c, 2, 56, 64
4, 33060, Note_off_c, 2, 56, 63
4, 33060, Note_on_c, 2, 49, 64
4, 33120, Note_off_c, 2, 49, 74
4, 33120, Note_on_c, 2, 54, 64
4, 33180, Note_off_c, 2, 54, 62
4, 33180, Note_on_c, 2, 49, 64
4, 33240, Note_off_c, 2, 49, 69
4, 33240, Note_on_c, 2, 53, 64
4, 33300, Note_off_c, 2, 53, 62
4, 33300, Note_on_c, 2, 51, 64
4, 33360, Note_off_c, 2, 51, 74
4, 33360, Note_on_c, 2, 53, 64
4, 33480, Note_off_c, 2, 53, 68
4, 33480, Note_on_c, 2, 44, 64
4, 33600, Note_off_c, 2, 44, 72
4, 33720, Note_on_c, 2, 58, 64
4, 33780, Note_off_c, 2, 58, 70
4, 33780, Note_on_c, 2, 49, 64
4, 33840, Note_off_c, 2, 49, 69
4, 33840, Note_on_c, 2, 56, 64
4, 33900, Note_off_c, 2, 56, 61
4, 33900, Note_on_c, 2, 49, 64
4, 33960, Note_off_c, 2, 49, 70
4, 33960, Note_on_c, 2, 54, 64
4, 34020, Note_off_c, 2, 54, 69
4, 34020, Note_on_c, 2, 49, 64
4, 34080, Note_off_c, 2, 49, 74
4, 34080, Note_on_c, 2, 53, 64
4, 34140, Note_off_c, 2, 53, 68
4, 34140, Note_on_c, 2, 49, 64
4, 34200, Note_off_c, 2, 49, 62
4, 34200, Note_on_c, 2, 51, 64
4, 34260, Note_off_c, 2, 51, 68
4, 34260, Note_on_c, 2, 49, 64
4, 34320, Note_off_c, 2, 49, 77
4, 34320, Note_on_c, 2, 51, 64
4, 34440, Note_off_c, 2, 51, 73
4, 34440, Note_on_c, 2, 44, 64
4, 34560, Note_off_c, 2, 44, 39
4, 34680, Note_on_c, 2, 56, 64
4, 34740, Note_off_c, 2, 56, 52
4, 34740, Note_on_c, 2, 44, 64
4, 34800, Note_off_c, 2, 44, 63
4, 34800, Note_on_c, 2, 54, 64
4, 34860, Note_off_c, 2, 54, 47
4, 34860, Note_on_c, 2, 44, 64
4, 34920, Note_off_c, 2, 44, 58
4, 34920, Note_on_c, 2, 53, 64
4, 34980, Note_off_c, 2, 53, 50
4, 34980, Note_on_c, 2, 44, 64
4, 35040, Note_off_c, 2, 44, 61
4, 35040, Note_on_c, 2, 51, 64
4, 35100, Note_off_c, 2, 51, 66
4, 35100, Note_on_c, 2, 44, 64
4, 35160, Note_off_c, 2, 44, 59
4, 35160, Note_on_c, 2, 49, 64
4, 35220, Note_off_c, 2, 49, 59
4, 35220, Note_on_c, 2, 48, 64
4, 35280, Note_off_c, 2, 48, 59
4, 35280, Note_on_c, 2, 49, 64
4, 35340, Note_off_c, 2, 49, 73
4, 35340, Note_on_c, 2, 44, 64
4, 35400, Note_off_c, 2, 44, 65
4, 35400, Note_on_c, 2, 53, 64
4, 35460, Note_off_c, 2, 53, 47
4, 35460, Note_on_c, 2, 51, 64
4, 35520, Note_off_c, 2, 51, 70
4, 35520, Note_on_c, 2, 53, 64
4, 35580, Note_off_c, 2, 53, 70
4, 35580, Note_on_c, 2, 44, 64
4, 35640, Note_off_c, 2, 44, 57
4, 35640, Note_on_c, 2, 56, 64
4, 35700, Note_off_c, 2, 56, 55
4, 35700, Note_on_c, 2, 54, 64
4, 35760, Note_off_c, 2, 54, 62
4, 35760, Note_on_c, 2, 56, 64
4, 35820, Note_off_c, 2, 56, 62
4, 35820, Note_on_c, 2, 44, 64
4, 35880, Note_off_c, 2, 44, 39
4, 35880, Note_on_c, 2, 58, 64
4, 35940, Note_off_c, 2, 58, 49
4, 35940, Note_on_c, 2, 44, 64
4, 36000, Note_off_c, 2, 44, 74
4, 36000, Note_on_c, 2, 60, 64
4, 36060, Note_off_c, 2, 60, 47
4, 36060, Note_on_c, 2, 61, 64
4, 36120, Note_off_c, 2, 61, 69
4, 36120, Note_on_c, 2, 63, 64
4, 36180, Note_off_c, 2, 63, 43
4, 36180, Note_on_c, 2, 60, 64
4, 36240, Note_off_c, 2, 60, 62
4, 36240, Note_on_c, 2, 56, 64
4, 36300, Note_off_c, 2, 56, 47
4, 36300, Note_on_c, 2, 60, 64
4, 36360, Note_off_c, 2, 60, 59
4, 36360, Note_on_c, 2, 63, 64
4, 36420, Note_off_c, 2, 63, 50
4, 36420, Note_on_c, 2, 65, 64
4, 36480, Note_off_c, 2, 65, 59
4, 36480, Note_on_c, 2, 66, 64
4, 36540, Note_off_c, 2, 66, 64
4, 36540, Note_on_c, 2, 65, 64
4, 36600, Note_off_c, 2, 65, 64
4, 36600, Note_on_c, 2, 63, 64
4, 36660, Note_off_c, 2, 63, 37
4, 36660, Note_on_c, 2, 65, 64
4, 36720, Note_off_c, 2, 65, 68
4, 36720, Note_on_c, 2, 73, 64
4, 36840, Note_off_c, 2, 73, 70
4, 36840, Note_on_c, 2, 68, 64
4, 36960, Note_off_c, 2, 68, 61
4, 36960, Note_on_c, 2, 65, 64
4, 37080, Note_off_c, 2, 65, 25
4, 37080, Note_on_c, 2, 63, 64
4, 37140, Note_off_c, 2, 63, 49
4, 37140, Note_on_c, 2, 61, 64
4, 37200, Note_off_c, 2, 61, 62
4, 37200, Note_on_c, 2, 63, 64
4, 37260, Note_off_c, 2, 63, 43
4, 37260, Note_on_c, 2, 56, 64
4, 37320, Note_off_c, 2, 56, 48
4, 37320, Note_on_c, 2, 60, 64
4, 37380, Note_off_c, 2, 60, 66
4, 37380, Note_on_c, 2, 63, 64
4, 37440, Note_off_c, 2, 63, 49
4, 37440, Note_on_c, 2, 65, 64
4, 37500, Note_off_c, 2, 65, 52
4, 37500, Note_on_c, 2, 63, 64
4, 37560, Note_off_c, 2, 63, 63
4, 37560, Note_on_c, 2, 61, 64
4, 37620, Note_off_c, 2, 61, 49
4, 37620, Note_on_c, 2, 63, 64
4, 37668, Note_off_c, 2, 63, 63
4, 37680, Note_on_c, 2, 72, 64
4, 37800, Note_off_c, 2, 72, 73
4, 37800, Note_on_c, 2, 68, 64
4, 37920, Note_off_c, 2, 68, 76
4, 37920, Note_on_c, 2, 63, 64
4, 38040, Note_off_c, 2, 63, 50
4, 38040, Note_on_c, 2, 61, 64
4, 38100, Note_off_c, 2, 61, 70
4, 38100, Note_on_c, 2, 60, 64
4, 38160, Note_off_c, 2, 60, 72
4, 38160, Note_on_c, 2, 61, 64
4, 38220, Note_off_c, 2, 61, 62
4, 38220, Note_on_c, 2, 56, 64
4, 38280, Note_off_c, 2, 56, 51
4, 38280, Note_on_c, 2, 60, 64
4, 38340, Note_off_c, 2, 60, 52
4, 38340, Note_on_c, 2, 61, 64
4, 38400, Note_off_c, 2, 61, 61
4, 38400, Note_on_c, 2, 63, 64
4, 38460, Note_off_c, 2, 63, 52
4, 38460, Note_on_c, 2, 61, 64
4, 38520, Note_off_c, 2, 61, 63
4, 38520, Note_on_c, 2, 60, 64
4, 38580, Note_off_c, 2, 60, 58
4, 38580, Note_on_c, 2, 61, 64
4, 38640, Note_off_c, 2, 61, 70
4, 38640, Note_on_c, 2, 70, 64
4, 38760, Note_off_c, 2, 70, 38
4, 38760, Note_on_c, 2, 67, 64
4, 38880, Note_off_c, 2, 67, 21
4, 38880, Note_on_c, 2, 61, 64
4, 39000, Note_off_c, 2, 61, 57
4, 39000, Note_on_c, 2, 60, 64
4, 39060, Note_off_c, 2, 60, 46
4, 39060, Note_on_c, 2, 58, 64
4, 39120, Note_off_c, 2, 58, 52
4, 39120, Note_on_c, 2, 60, 64
4, 39180, Note_off_c, 2, 60, 58
4, 39180, Note_on_c, 2, 56, 64
4, 39240, Note_off_c, 2, 56, 44
4, 39240, Note_on_c, 2, 58, 64
4, 39300, Note_off_c, 2, 58, 37
4, 39300, Note_on_c, 2, 60, 64
4, 39360, Note_off_c, 2, 60, 53
4, 39360, Note_on_c, 2, 61, 64
4, 39420, Note_off_c, 2, 61, 65
4, 39420, Note_on_c, 2, 63, 64
4, 39480, Note_off_c, 2, 63, 54
4, 39480, Note_on_c, 2, 65, 64
4, 39540, Note_off_c, 2, 65, 69
4, 39540, Note_on_c, 2, 63, 64
4, 39600, Note_off_c, 2, 63, 52
4, 39600, Note_on_c, 2, 66, 64
4, 39660, Note_off_c, 2, 66, 68
4, 39660, Note_on_c, 2, 65, 64
4, 39720, Note_off_c, 2, 65, 62
4, 39720, Note_on_c, 2, 63, 64
4, 39780, Note_off_c, 2, 63, 63
4, 39780, Note_on_c, 2, 61, 64
4, 39840, Note_off_c, 2, 61, 73
4, 39840, Note_on_c, 2, 66, 64
4, 39960, Note_off_c, 2, 66, 73
4, 39960, Note_on_c, 2, 58, 64
4, 40020, Note_off_c, 2, 58, 51
4, 40020, Note_on_c, 2, 60, 64
4, 40080, Note_off_c, 2, 60, 69
4, 40080, Note_on_c, 2, 61, 64
4, 40140, Note_off_c, 2, 61, 63
4, 40140, Note_on_c, 2, 60, 64
4, 40200, Note_off_c, 2, 60, 48
4, 40200, Note_on_c, 2, 58, 64
4, 40260, Note_off_c, 2, 58, 65
4, 40260, Note_on_c, 2, 56, 64
4, 40320, Note_off_c, 2, 56, 61
4, 40320, Note_on_c, 2, 58, 64
4, 40620, Note_off_c, 2, 58, 62
4, 40620, Note_on_c, 2, 56, 64
4, 40680, Note_off_c, 2, 56, 69
4, 40680, Note_on_c, 2, 54, 64
4, 40740, Note_off_c, 2, 54, 62
4, 40740, Note_on_c, 2, 58, 64
4, 40800, Note_off_c, 2, 58, 69
4, 40800, Note_on_c, 2, 56, 64
4, 40860, Note_off_c, 2, 56, 52
4, 40860, Note_on_c, 2, 54, 64
4, 40920, Note_off_c, 2, 54, 57
4, 40920, Note_on_c, 2, 53, 64
4, 40980, Note_off_c, 2, 53, 66
4, 40980, Note_on_c, 2, 56, 64
4, 41040, Note_off_c, 2, 56, 54
4, 41040, Note_on_c, 2, 54, 64
4, 41100, Note_off_c, 2, 54, 61
4, 41100, Note_on_c, 2, 53, 64
4, 41160, Note_off_c, 2, 53, 53
4, 41160, Note_on_c, 2, 54, 64
4, 41220, Note_off_c, 2, 54, 51
4, 41220, Note_on_c, 2, 51, 64
4, 41280, Note_off_c, 2, 51, 72
4, 41280, Note_on_c, 2, 53, 64
4, 41460, Note_off_c, 2, 53, 59
4, 41460, Note_on_c, 2, 56, 64
4, 41520, Note_off_c, 2, 56, 70
4, 41520, Note_on_c, 2, 58, 64
4, 41580, Note_off_c, 2, 58, 77
4, 41580, Note_on_c, 2, 60, 64
4, 41640, Note_on_c, 2, 61, 64
4, 41644, Note_off_c, 2, 60, 68
4, 42000, Note_off_c, 2, 61, 63
4, 42000, Note_on_c, 2, 60, 64
4, 42480, Note_off_c, 2, 60, 70
4, 42480, Note_on_c, 2, 58, 64
4, 42840, Note_off_c, 2, 58, 72
4, 42840, Note_on_c, 2, 56, 64
4, 42960, Note_off_c, 2, 56, 61
4, 42960, Note_on_c, 2, 58, 64
4, 43080, Note_off_c, 2, 58, 66
4, 43080, Note_on_c, 2, 51, 64
4, 43200, Note_off_c, 2, 51, 70
4, 43200, Note_on_c, 2, 56, 64
4, 43440, Note_off_c, 2, 56, 72
4, 43560, Note_on_c, 2, 56, 64
4, 43680, Note_off_c, 2, 56, 66
4, 43680, Note_on_c, 2, 58, 64
4, 43740, Note_off_c, 2, 58, 69
4, 43740, Note_on_c, 2, 56, 64
4, 43800, Note_off_c, 2, 56, 69
4, 43800, Note_on_c, 2, 54, 64
4, 43860, Note_off_c, 2, 54, 62
4, 43860, Note_on_c, 2, 56, 64
4, 43920, Note_off_c, 2, 56, 68
4, 43920, Note_on_c, 2, 65, 64
4, 44040, Note_off_c, 2, 65, 61
4, 44040, Note_on_c, 2, 61, 64
4, 44160, Note_off_c, 2, 61, 69
4, 44160, Note_on_c, 2, 56, 64
4, 44280, Note_off_c, 2, 56, 54
4, 44280, Note_on_c, 2, 54, 64
4, 44340, Note_off_c, 2, 54, 68
4, 44340, Note_on_c, 2, 53, 64
4, 44400, Note_on_c, 2, 54, 64
4, 44407, Note_off_c, 2, 53, 59
4, 44520, Note_off_c, 2, 54, 69
4, 44520, Note_on_c, 2, 63, 64
4, 44640, Note_off_c, 2, 63, 58
4, 44640, Note_on_c, 2, 53, 64
4, 44760, Note_off_c, 2, 53, 49
4, 44760, Note_on_c, 2, 61, 64
4, 44880, Note_off_c, 2, 61, 51
4, 44880, Note_on_c, 2, 51, 64
4, 45000, Note_off_c, 2, 51, 68
4, 45000, Note_on_c, 2, 60, 64
4, 45120, Note_off_c, 2, 60, 48
4, 45120, Note_on_c, 2, 49, 64
4, 45180, Note_off_c, 2, 49, 53
4, 45180, Note_on_c, 2, 44, 64
4, 45240, Note_off_c, 2, 44, 74
4, 45240, Note_on_c, 2, 49, 64
4, 45300, Note_off_c, 2, 49, 62
4, 45300, Note_on_c, 2, 51, 64
4, 45360, Note_off_c, 2, 51, 66
4, 45360, Note_on_c, 2, 53, 64
4, 45420, Note_off_c, 2, 53, 46
4, 45420, Note_on_c, 2, 54, 64
4, 45480, Note_off_c, 2, 54, 69
4, 45480, Note_on_c, 2, 56, 64
4, 45540, Note_off_c, 2, 56, 55
4, 45540, Note_on_c, 2, 53, 64
4, 45600, Note_off_c, 2, 53, 55
4, 45600, Note_on_c, 2, 54, 64
4, 45660, Note_off_c, 2, 54, 70
4, 45660, Note_on_c, 2, 42, 64
4, 45720, Note_off_c, 2, 42, 76
4, 45720, Note_on_c, 2, 54, 64
4, 45780, Note_off_c, 2, 54, 69
4, 45780, Note_on_c, 2, 53, 64
4, 45840, Note_off_c, 2, 53, 49
4, 45840, Note_on_c, 2, 54, 64
4, 45900, Note_off_c, 2, 54, 51
4, 45900, Note_on_c, 2, 56, 64
4, 45960, Note_off_c, 2, 56, 53
4, 45960, Note_on_c, 2, 58, 64
4, 46020, Note_off_c, 2, 58, 66
4, 46020, Note_on_c, 2, 54, 64
4, 46080, Note_off_c, 2, 54, 59
4, 46080, Note_on_c, 2, 51, 64
4, 46140, Note_off_c, 2, 51, 58
4, 46140, Note_on_c, 2, 53, 64
4, 46200, Note_off_c, 2, 53, 57
4, 46200, Note_on_c, 2, 54, 64
4, 46260, Note_off_c, 2, 54, 62
4, 46260, Note_on_c, 2, 51, 64
4, 46320, Note_off_c, 2, 51, 69
4, 46320, Note_on_c, 2, 48, 64
4, 46380, Note_off_c, 2, 48, 52
4, 46380, Note_on_c, 2, 49, 64
4, 46440, Note_off_c, 2, 49, 68
4, 46440, Note_on_c, 2, 51, 64
4, 46500, Note_off_c, 2, 51, 68
4, 46500, Note_on_c, 2, 48, 64
4, 46560, Note_off_c, 2, 48, 49
4, 46560, Note_on_c, 2, 41, 64
4, 46680, Note_off_c, 2, 41, 65
4, 46680, Note_on_c, 2, 53, 64
4, 46740, Note_off_c, 2, 53, 68
4, 46740, Note_on_c, 2, 51, 64
4, 46800, Note_off_c, 2, 51, 58
4, 46800, Note_on_c, 2, 53, 64
4, 46860, Note_off_c, 2, 53, 37
4, 46860, Note_on_c, 2, 54, 64
4, 46920, Note_off_c, 2, 54, 66
4, 46920, Note_on_c, 2, 56, 64
4, 46980, Note_off_c, 2, 56, 46
4, 46980, Note_on_c, 2, 53, 64
4, 47040, Note_off_c, 2, 53, 59
4, 47040, Note_on_c, 2, 50, 64
4, 47100, Note_off_c, 2, 50, 49
4, 47100, Note_on_c, 2, 51, 64
4, 47160, Note_off_c, 2, 51, 73
4, 47160, Note_on_c, 2, 53, 64
4, 47220, Note_off_c, 2, 53, 65
4, 47220, Note_on_c, 2, 50, 64
4, 47280, Note_off_c, 2, 50, 46
4, 47280, Note_on_c, 2, 46, 64
4, 47340, Note_off_c, 2, 46, 43
4, 47340, Note_on_c, 2, 48, 64
4, 47400, Note_off_c, 2, 48, 48
4, 47400, Note_on_c, 2, 50, 64
4, 47460, Note_off_c, 2, 50, 54
4, 47460, Note_on_c, 2, 46, 64
4, 47520, Note_off_c, 2, 46, 40
4, 47520, Note_on_c, 2, 39, 64
4, 47640, Note_off_c, 2, 39, 66
4, 47640, Note_on_c, 2, 51, 64
4, 47700, Note_off_c, 2, 51, 57
4, 47700, Note_on_c, 2, 50, 64
4, 47760, Note_off_c, 2, 50, 55
4, 47760, Note_on_c, 2, 51, 64
4, 47820, Note_off_c, 2, 51, 50
4, 47820, Note_on_c, 2, 53, 64
4, 47880, Note_off_c, 2, 53, 65
4, 47880, Note_on_c, 2, 54, 64
4, 47940, Note_off_c, 2, 54, 46
4, 47940, Note_on_c, 2, 51, 64
4, 48000, Note_off_c, 2, 51, 44
4, 48000, Note_on_c, 2, 48, 64
4, 48060, Note_off_c, 2, 48, 39
4, 48060, Note_on_c, 2, 49, 64
4, 48120, Note_off_c, 2, 49, 73
4, 48120, Note_on_c, 2, 51, 64
4, 48180, Note_off_c, 2, 51, 68
4, 48180, Note_on_c, 2, 48, 64
4, 48240, Note_off_c, 2, 48, 58
4, 48240, Note_on_c, 2, 44, 64
4, 48300, Note_off_c, 2, 44, 62
4, 48300, Note_on_c, 2, 46, 64
4, 48360, Note_off_c, 2, 46, 73
4, 48360, Note_on_c, 2, 48, 64
4, 48420, Note_off_c, 2, 48, 55
4, 48420, Note_on_c, 2, 44, 64
4, 48480, Note_off_c, 2, 44, 74
4, 48480, Note_on_c, 2, 37, 64
4, 48600, Note_off_c, 2, 37, 72
4, 48600, Note_on_c, 2, 49, 64
4, 48660, Note_off_c, 2, 49, 70
4, 48660, Note_on_c, 2, 51, 64
4, 48720, Note_off_c, 2, 51, 65
4, 48720, Note_on_c, 2, 53, 64
4, 48840, Note_off_c, 2, 53, 70
4, 48840, Note_on_c, 2, 49, 64
4, 48960, Note_off_c, 2, 49, 77
4, 48960, Note_on_c, 2, 54, 64
4, 49200, Note_off_c, 2, 54, 66
4, 49200, Note_on_c, 2, 53, 64
4, 49440, Note_off_c, 2, 53, 70
4, 49440, Note_on_c, 2, 51, 64
4, 49560, Note_off_c, 2, 51, 65
4, 49560, Note_on_c, 2, 49, 64
4, 49680, Note_off_c, 2, 49, 66
4, 49680, Note_on_c, 2, 48, 64
4, 49920, Note_off_c, 2, 48, 59
4, 49920, Note_on_c, 2, 49, 64
4, 50160, Note_off_c, 2, 49, 76
4, 50160, Note_on_c, 2, 44, 64
4, 50400, Note_off_c, 2, 44, 68
4, 50400, Note_on_c, 2, 46, 64
4, 50520, Note_off_c, 2, 46, 79
4, 51180, Note_on_c, 2, 49, 64
4, 51240, Note_off_c, 2, 49, 82
4, 51240, Note_on_c, 2, 48, 64
4, 51300, Note_off_c, 2, 48, 66
4, 51300, Note_on_c, 2, 46, 64
4, 51360, Note_off_c, 2, 46, 72
4, 51360, Note_on_c, 2, 44, 64
4, 51600, Note_off_c, 2, 44, 79
4, 51960, Note_on_c, 2, 41, 64
4, 52070, Note_off_c, 2, 41, 38
4, 52080, Note_on_c, 2, 42, 64
4, 52190, Note_off_c, 2, 42, 48
4, 52200, Note_on_c, 2, 44, 64
4, 52310, Note_off_c, 2, 44, 46
4, 52320, Note_on_c, 2, 37, 64
4, 52800, Note_off_c, 2, 37, 76
4, 52800, End_track
0, 0, End_of_file
