0, 0, Header, 1, 4, 240
1, 0, Start_track
1, 0, Time_signature, 4, 2, 24, 8
1, 0, Tempo, 910894
1, 28800, Tempo, 750000
1, 28924, Tempo, 800000
1, 29040, Tempo, 857143
1, 29160, Tempo, 1000000
1, 29280, Tempo, 1111111
1, 29280, End_track
2, 0, Start_track
2, 0, Text_t, "RH H"
2, 2040, Note_on_c, 0, 79, 64
2, 2100, Note_off_c, 0, 79, 44
2, 2100, Note_on_c, 0, 78, 64
2, 2160, Note_off_c, 0, 78, 62
2, 2160, Note_on_c, 0, 79, 64
2, 2280, Note_off_c, 0, 79, 59
2, 2280, Note_on_c, 0, 72, 64
2, 2400, Note_off_c, 0, 72, 70
2, 2400, Note_on_c, 0, 75, 64
2, 2520, Note_off_c, 0, 75, 77
2, 2520, Note_on_c, 0, 79, 64
2, 2580, Note_off_c, 0, 79, 43
2, 2580, Note_on_c, 0, 78, 64
2, 2640, Note_off_c, 0, 78, 52
2, 2640, Note_on_c, 0, 79, 64
2, 2760, Note_off_c, 0, 79, 52
2, 2760, Note_on_c, 0, 81, 64
2, 2880, Note_off_c, 0, 81, 47
2, 2880, Note_on_c, 0, 74, 64
2, 3000, Note_off_c, 0, 74, 65
2, 3000, Note_on_c, 0, 79, 64
2, 3060, Note_off_c, 0, 79, 45
2, 3060, Note_on_c, 0, 78, 64
2, 3105, Note_off_c, 0, 78, 52
2, 3120, Note_on_c, 0, 79, 64
2, 3240, Note_off_c, 0, 79, 54
2, 3240, Note_on_c, 0, 81, 64
2, 3360, Note_off_c, 0, 81, 62
2, 3360, Note_on_c, 0, 72, 64
2, 3420, Note_off_c, 0, 72, 70
2, 3420, Note_on_c, 0, 74, 64
2, 3480, Note_off_c, 0, 74, 53
2, 3480, Note_on_c, 0, 75, 64
2, 3720, Note_off_c, 0, 75, 63
2, 3720, Note_on_c, 0, 74, 64
2, 3780, Note_off_c, 0, 74, 55
2, 3780, Note_on_c, 0, 72, 64
2, 3840, Note_off_c, 0, 72, 61
2, 3840, Note_on_c, 0, 70, 64
2, 3960, Note_off_c, 0, 70, 66
2, 3960, Note_on_c, 0, 75, 64
2, 4020, Note_off_c, 0, 75, 63
2, 4020, Note_on_c, 0, 74, 64
2, 4080, Note_off_c, 0, 74, 55
2, 4080, Note_on_c, 0, 75, 64
2, 4200, Note_off_c, 0, 75, 72
2, 4200, Note_on_c, 0, 67, 64
2, 4320, Note_off_c, 0, 67, 40
2, 4320, Note_on_c, 0, 68, 64
2, 4440, Note_off_c, 0, 68, 46
2, 4440, Note_on_c, 0, 77, 64
2, 4500, Note_off_c, 0, 77, 46
2, 4500, Note_on_c, 0, 75, 64
2, 4546, Note_off_c, 0, 75, 43
2, 4560, Note_on_c, 0, 77, 64
2, 4680, Note_off_c, 0, 77, 44
2, 4680, Note_on_c, 0, 69, 64
2, 4800, Note_off_c, 0, 69, 62
2, 4800, Note_on_c, 0, 70, 64
2, 4920, Note_off_c, 0, 70, 48
2, 4920, Note_on_c, 0, 79, 64
2, 4980, Note_off_c, 0, 79, 30
2, 4980, Note_on_c, 0, 77, 64
2, 5040, Note_off_c, 0, 77, 43
2, 5040, Note_on_c, 0, 79, 64
2, 5136, Note_off_c, 0, 79, 27
2, 5160, Note_on_c, 0, 71, 64
2, 5276, Note_off_c, 0, 71, 70
2, 5280, Note_on_c, 0, 72, 64
2, 5389, Note_off_c, 0, 72, 70
2, 5400, Note_on_c, 0, 74, 64
2, 5460, Note_off_c, 0, 74, 59
2, 5460, Note_on_c, 0, 75, 64
2, 5520, Note_off_c, 0, 75, 69
2, 5520, Note_on_c, 0, 77, 64
2, 5880, Note_off_c, 0, 77, 66
2, 5880, Note_on_c, 0, 75, 64
2, 5940, Note_off_c, 0, 75, 77
2, 5940, Note_on_c, 0, 74, 64
2, 6000, Note_off_c, 0, 74, 74
2, 6000, Note_on_c, 0, 72, 64
2, 6060, Note_off_c, 0, 72, 52
2, 6060, Note_on_c, 0, 70, 64
2, 6120, Note_off_c, 0, 70, 63
2, 6120, Note_on_c, 0, 68, 64
2, 6180, Note_off_c, 0, 68, 82
2, 6180, Note_on_c, 0, 67, 64
2, 6240, Note_off_c, 0, 67, 5
2, 6240, Note_on_c, 0, 65, 64
2, 6360, Note_on_c, 0, 80, 64
2, 6373, Note_off_c, 0, 65, 1
2, 6465, Note_off_c, 0, 80, 73
2, 6480, Note_on_c, 0, 79, 64
2, 6574, Note_off_c, 0, 79, 61
2, 6600, Note_on_c, 0, 77, 64
2, 6696, Note_off_c, 0, 77, 76
2, 6720, Note_on_c, 0, 75, 64
2, 6822, Note_off_c, 0, 75, 79
2, 6840, Note_on_c, 0, 74, 64
2, 6937, Note_off_c, 0, 74, 74
2, 6960, Note_on_c, 0, 75, 64
2, 7055, Note_off_c, 0, 75, 76
2, 7080, Note_on_c, 0, 77, 64
2, 7192, Note_off_c, 0, 77, 54
2, 7200, Note_on_c, 0, 71, 64
2, 7303, Note_off_c, 0, 71, 68
2, 7320, Note_on_c, 0, 72, 64
2, 7420, Note_off_c, 0, 72, 76
2, 7440, Note_on_c, 0, 74, 64
2, 7538, Note_off_c, 0, 74, 59
2, 7560, Note_on_c, 0, 71, 64
2, 7670, Note_off_c, 0, 71, 63
2, 7683, Note_on_c, 0, 72, 64
2, 7795, Note_off_c, 0, 72, 68
2, 7803, Note_on_c, 0, 79, 64
2, 7863, Note_off_c, 0, 79, 33
2, 7863, Note_on_c, 0, 78, 64
2, 7923, Note_off_c, 0, 78, 62
2, 7923, Note_on_c, 0, 79, 64
2, 8012, Note_off_c, 0, 79, 53
2, 8043, Note_on_c, 0, 74, 64
2, 8144, Note_off_c, 0, 74, 55
2, 8163, Note_on_c, 0, 75, 64
2, 8409, Note_off_c, 0, 75, 86
2, 8523, Note_on_c, 0, 76, 64
2, 8623, Note_off_c, 0, 76, 57
2, 8643, Note_on_c, 0, 77, 64
2, 8734, Note_off_c, 0, 77, 69
2, 8763, Note_on_c, 0, 77, 64
2, 8823, Note_off_c, 0, 77, 49
2, 8823, Note_on_c, 0, 76, 64
2, 8863, Note_off_c, 0, 76, 47
2, 8883, Note_on_c, 0, 77, 64
2, 8979, Note_off_c, 0, 77, 58
2, 9003, Note_on_c, 0, 72, 64
2, 9102, Note_off_c, 0, 72, 70
2, 9123, Note_on_c, 0, 74, 64
2, 9376, Note_off_c, 0, 74, 79
2, 9483, Note_on_c, 0, 74, 64
2, 9583, Note_off_c, 0, 74, 68
2, 9603, Note_on_c, 0, 75, 64
2, 9695, Note_off_c, 0, 75, 74
2, 9723, Note_on_c, 0, 75, 64
2, 9783, Note_off_c, 0, 75, 69
2, 9783, Note_on_c, 0, 74, 64
2, 9826, Note_off_c, 0, 74, 58
2, 9843, Note_on_c, 0, 75, 64
2, 9947, Note_off_c, 0, 75, 73
2, 9963, Note_on_c, 0, 70, 64
2, 10068, Note_off_c, 0, 70, 59
2, 10083, Note_on_c, 0, 72, 64
2, 10185, Note_off_c, 0, 72, 62
2, 10203, Note_on_c, 0, 75, 64
2, 10263, Note_off_c, 0, 75, 63
2, 10263, Note_on_c, 0, 74, 64
2, 10323, Note_off_c, 0, 74, 48
2, 10323, Note_on_c, 0, 75, 64
2, 10421, Note_off_c, 0, 75, 69
2, 10443, Note_on_c, 0, 77, 64
2, 10549, Note_off_c, 0, 77, 57
2, 10563, Note_on_c, 0, 70, 64
2, 10665, Note_off_c, 0, 70, 58
2, 10683, Note_on_c, 0, 75, 64
2, 10743, Note_off_c, 0, 75, 61
2, 10743, Note_on_c, 0, 74, 64
2, 10803, Note_off_c, 0, 74, 51
2, 10803, Note_on_c, 0, 75, 64
2, 10909, Note_off_c, 0, 75, 57
2, 10923, Note_on_c, 0, 77, 64
2, 11021, Note_off_c, 0, 77, 45
2, 11043, Note_on_c, 0, 68, 64
2, 11103, Note_off_c, 0, 68, 58
2, 11103, Note_on_c, 0, 70, 64
2, 11163, Note_off_c, 0, 70, 54
2, 11163, Note_on_c, 0, 72, 64
2, 11403, Note_off_c, 0, 72, 53
2, 11403, Note_on_c, 0, 70, 64
2, 11463, Note_off_c, 0, 70, 54
2, 11463, Note_on_c, 0, 68, 64
2, 11523, Note_off_c, 0, 68, 51
2, 11523, Note_on_c, 0, 67, 64
2, 11583, Note_off_c, 0, 67, 48
2, 11583, Note_on_c, 0, 63, 64
2, 11643, Note_off_c, 0, 63, 44
2, 11643, Note_on_c, 0, 65, 64
2, 11703, Note_off_c, 0, 65, 49
2, 11703, Note_on_c, 0, 67, 64
2, 11763, Note_off_c, 0, 67, 40
2, 11763, Note_on_c, 0, 68, 64
2, 11823, Note_off_c, 0, 68, 55
2, 11823, Note_on_c, 0, 70, 64
2, 11883, Note_off_c, 0, 70, 80
2, 11883, Note_on_c, 0, 72, 64
2, 11943, Note_off_c, 0, 72, 63
2, 11943, Note_on_c, 0, 74, 64
2, 12003, Note_off_c, 0, 74, 54
2, 12003, Note_on_c, 0, 75, 64
2, 12063, Note_off_c, 0, 75, 66
2, 12063, Note_on_c, 0, 74, 64
2, 12123, Note_off_c, 0, 74, 57
2, 12123, Note_on_c, 0, 72, 64
2, 12183, Note_off_c, 0, 72, 66
2, 12183, Note_on_c, 0, 74, 64
2, 12243, Note_off_c, 0, 74, 50
2, 12243, Note_on_c, 0, 75, 64
2, 12303, Note_off_c, 0, 75, 74
2, 12303, Note_on_c, 0, 77, 64
2, 12363, Note_off_c, 0, 77, 59
2, 12363, Note_on_c, 0, 79, 64
2, 12423, Note_off_c, 0, 79, 54
2, 12423, Note_on_c, 0, 81, 64
2, 12483, Note_off_c, 0, 81, 1
2, 12483, Note_on_c, 0, 82, 64
2, 12543, Note_off_c, 0, 82, 77
2, 12543, Note_on_c, 0, 65, 64
2, 12603, Note_off_c, 0, 65, 52
2, 12603, Note_on_c, 0, 67, 64
2, 12663, Note_off_c, 0, 67, 35
2, 12663, Note_on_c, 0, 68, 64
2, 12723, Note_off_c, 0, 68, 49
2, 12723, Note_on_c, 0, 70, 64
2, 12783, Note_off_c, 0, 70, 80
2, 12783, Note_on_c, 0, 72, 64
2, 12843, Note_off_c, 0, 72, 63
2, 12843, Note_on_c, 0, 74, 64
2, 12903, Note_off_c, 0, 74, 52
2, 12903, Note_on_c, 0, 76, 64
2, 12963, Note_off_c, 0, 76, 37
2, 12963, Note_on_c, 0, 77, 64
2, 13023, Note_off_c, 0, 77, 53
2, 13023, Note_on_c, 0, 75, 64
2, 13083, Note_off_c, 0, 75, 68
2, 13083, Note_on_c, 0, 74, 64
2, 13143, Note_off_c, 0, 74, 47
2, 13143, Note_on_c, 0, 75, 64
2, 13203, Note_off_c, 0, 75, 82
2, 13203, Note_on_c, 0, 77, 64
2, 13263, Note_off_c, 0, 77, 62
2, 13263, Note_on_c, 0, 79, 64
2, 13323, Note_off_c, 0, 79, 61
2, 13323, Note_on_c, 0, 81, 64
2, 13383, Note_off_c, 0, 81, 58
2, 13383, Note_on_c, 0, 83, 64
2, 13443, Note_off_c, 0, 83, 42
2, 13443, Note_on_c, 0, 84, 64
2, 13563, Note_off_c, 0, 84, 55
2, 13563, Note_on_c, 0, 83, 64
2, 13623, Note_off_c, 0, 83, 52
2, 13623, Note_on_c, 0, 81, 64
2, 13683, Note_off_c, 0, 81, 53
2, 13683, Note_on_c, 0, 79, 64
2, 13743, Note_off_c, 0, 79, 27
2, 13743, Note_on_c, 0, 77, 64
2, 13803, Note_off_c, 0, 77, 66
2, 13803, Note_on_c, 0, 75, 64
2, 13863, Note_off_c, 0, 75, 58
2, 13863, Note_on_c, 0, 74, 64
2, 13923, Note_off_c, 0, 74, 52
2, 13923, Note_on_c, 0, 72, 64
2, 14043, Note_off_c, 0, 72, 58
2, 14043, Note_on_c, 0, 75, 64
2, 14163, Note_off_c, 0, 75, 58
2, 14163, Note_on_c, 0, 74, 64
2, 14283, Note_off_c, 0, 74, 54
2, 14283, Note_on_c, 0, 72, 64
2, 14403, Note_off_c, 0, 72, 58
2, 14403, Note_on_c, 0, 70, 64
2, 14523, Note_off_c, 0, 70, 53
2, 14523, Note_on_c, 0, 69, 64
2, 14643, Note_off_c, 0, 69, 49
2, 14643, Note_on_c, 0, 70, 64
2, 14763, Note_off_c, 0, 70, 24
2, 14763, Note_on_c, 0, 72, 64
2, 14883, Note_off_c, 0, 72, 69
2, 14883, Note_on_c, 0, 66, 64
2, 15003, Note_off_c, 0, 66, 20
2, 15003, Note_on_c, 0, 67, 64
2, 15123, Note_off_c, 0, 67, 46
2, 15123, Note_on_c, 0, 69, 64
2, 15243, Note_off_c, 0, 69, 70
2, 15243, Note_on_c, 0, 66, 64
2, 15363, Note_off_c, 0, 66, 55
2, 15363, Note_on_c, 0, 67, 64
2, 15483, Note_off_c, 0, 67, 49
2, 15483, Note_on_c, 0, 74, 64
2, 15543, Note_off_c, 0, 74, 45
2, 15543, Note_on_c, 0, 72, 64
2, 15593, Note_off_c, 0, 72, 72
2, 15606, Note_on_c, 0, 74, 64
2, 15726, Note_off_c, 0, 74, 74
2, 15966, Note_on_c, 0, 76, 64
2, 16026, Note_off_c, 0, 76, 34
2, 16026, Note_on_c, 0, 74, 64
2, 16086, Note_off_c, 0, 74, 61
2, 16086, Note_on_c, 0, 76, 64
2, 16206, Note_off_c, 0, 76, 63
2, 16446, Note_on_c, 0, 78, 64
2, 16506, Note_off_c, 0, 78, 55
2, 16506, Note_on_c, 0, 76, 64
2, 16566, Note_off_c, 0, 76, 43
2, 16566, Note_on_c, 0, 78, 64
2, 16686, Note_off_c, 0, 78, 76
2, 16926, Note_on_c, 0, 67, 64
2, 16986, Note_off_c, 0, 67, 46
2, 16986, Note_on_c, 0, 65, 64
2, 17046, Note_off_c, 0, 65, 46
2, 17046, Note_on_c, 0, 67, 64
2, 17166, Note_off_c, 0, 67, 65
2, 17406, Note_on_c, 0, 69, 64
2, 17466, Note_off_c, 0, 69, 59
2, 17466, Note_on_c, 0, 67, 64
2, 17526, Note_off_c, 0, 67, 47
2, 17526, Note_on_c, 0, 69, 64
2, 17646, Note_off_c, 0, 69, 74
2, 17886, Note_on_c, 0, 71, 64
2, 17946, Note_off_c, 0, 71, 69
2, 17946, Note_on_c, 0, 69, 64
2, 18006, Note_off_c, 0, 69, 70
2, 18006, Note_on_c, 0, 71, 64
2, 18126, Note_off_c, 0, 71, 85
2, 18366, Note_on_c, 0, 72, 64
2, 18426, Note_off_c, 0, 72, 65
2, 18426, Note_on_c, 0, 71, 64
2, 18486, Note_off_c, 0, 71, 80
2, 18486, Note_on_c, 0, 72, 64
2, 18606, Note_off_c, 0, 72, 80
2, 18606, Note_on_c, 0, 67, 64
2, 18726, Note_off_c, 0, 67, 19
2, 18726, Note_on_c, 0, 68, 64
2, 18846, Note_off_c, 0, 68, 85
2, 18846, Note_on_c, 0, 72, 64
2, 18906, Note_off_c, 0, 72, 68
2, 18906, Note_on_c, 0, 71, 64
2, 18966, Note_off_c, 0, 71, 77
2, 18966, Note_on_c, 0, 72, 64
2, 19086, Note_off_c, 0, 72, 83
2, 19086, Note_on_c, 0, 74, 64
2, 19206, Note_off_c, 0, 74, 55
2, 19206, Note_on_c, 0, 67, 64
2, 19326, Note_on_c, 0, 72, 64
2, 19337, Note_off_c, 0, 67, 46
2, 19386, Note_off_c, 0, 72, 68
2, 19386, Note_on_c, 0, 71, 64
2, 19446, Note_off_c, 0, 71, 73
2, 19446, Note_on_c, 0, 72, 64
2, 19566, Note_on_c, 0, 74, 64
2, 19572, Note_off_c, 0, 72, 40
2, 19686, Note_on_c, 0, 65, 64
2, 19699, Note_off_c, 0, 74, 74
2, 19749, Note_off_c, 0, 65, 49
2, 19749, Note_on_c, 0, 67, 64
2, 19809, Note_off_c, 0, 67, 62
2, 19809, Note_on_c, 0, 68, 64
2, 20049, Note_off_c, 0, 68, 69
2, 20049, Note_on_c, 0, 67, 64
2, 20109, Note_off_c, 0, 67, 62
2, 20109, Note_on_c, 0, 65, 64
2, 20169, Note_off_c, 0, 65, 51
2, 20169, Note_on_c, 0, 63, 64
2, 20289, Note_off_c, 0, 63, 70
2, 20289, Note_on_c, 0, 72, 64
2, 20349, Note_off_c, 0, 72, 70
2, 20349, Note_on_c, 0, 71, 64
2, 20409, Note_off_c, 0, 71, 82
2, 20409, Note_on_c, 0, 72, 64
2, 20529, Note_off_c, 0, 72, 83
2, 20529, Note_on_c, 0, 67, 64
2, 20649, Note_off_c, 0, 67, 65
2, 20649, Note_on_c, 0, 68, 64
2, 20889, Note_off_c, 0, 68, 80
2, 21009, Note_on_c, 0, 69, 64
2, 21129, Note_off_c, 0, 69, 74
2, 21129, Note_on_c, 0, 70, 64
2, 21209, Note_off_c, 0, 70, 79
2, 21249, Note_on_c, 0, 70, 64
2, 21309, Note_off_c, 0, 70, 77
2, 21309, Note_on_c, 0, 69, 64
2, 21369, Note_off_c, 0, 69, 72
2, 21369, Note_on_c, 0, 70, 64
2, 21489, Note_off_c, 0, 70, 68
2, 21489, Note_on_c, 0, 65, 64
2, 21609, Note_off_c, 0, 65, 55
2, 21609, Note_on_c, 0, 67, 64
2, 21849, Note_off_c, 0, 67, 58
2, 21969, Note_on_c, 0, 67, 64
2, 22209, Note_off_c, 0, 67, 46
2, 22209, Note_on_c, 0, 68, 64
2, 22269, Note_off_c, 0, 68, 70
2, 22269, Note_on_c, 0, 70, 64
2, 22329, Note_off_c, 0, 70, 77
2, 22329, Note_on_c, 0, 72, 64
2, 22389, Note_off_c, 0, 72, 76
2, 22389, Note_on_c, 0, 71, 64
2, 22449, Note_off_c, 0, 71, 74
2, 22449, Note_on_c, 0, 72, 64
2, 22509, Note_off_c, 0, 72, 77
2, 22509, Note_on_c, 0, 68, 64
2, 22569, Note_off_c, 0, 68, 83
2, 22569, Note_on_c, 0, 65, 64
2, 23169, Note_off_c, 0, 65, 59
2, 23169, Note_on_c, 0, 74, 64
2, 23229, Note_off_c, 0, 74, 76
2, 23229, Note_on_c, 0, 72, 64
2, 23289, Note_off_c, 0, 72, 82
2, 23289, Note_on_c, 0, 74, 64
2, 23409, Note_off_c, 0, 74, 74
2, 23409, Note_on_c, 0, 65, 64
2, 23529, Note_off_c, 0, 65, 59
2, 23529, Note_on_c, 0, 63, 64
2, 23649, Note_off_c, 0, 63, 70
2, 23649, Note_on_c, 0, 75, 64
2, 23709, Note_off_c, 0, 75, 80
2, 23709, Note_on_c, 0, 74, 64
2, 23769, Note_off_c, 0, 74, 74
2, 23769, Note_on_c, 0, 75, 64
2, 23889, Note_off_c, 0, 75, 83
2, 23889, Note_on_c, 0, 67, 64
2, 24009, Note_off_c, 0, 67, 47
2, 24009, Note_on_c, 0, 65, 64
2, 24129, Note_off_c, 0, 65, 69
2, 24129, Note_on_c, 0, 77, 64
2, 24189, Note_off_c, 0, 77, 68
2, 24189, Note_on_c, 0, 75, 64
2, 24249, Note_off_c, 0, 75, 80
2, 24249, Note_on_c, 0, 77, 64
2, 24369, Note_off_c, 0, 77, 76
2, 24369, Note_on_c, 0, 68, 64
2, 24489, Note_off_c, 0, 68, 83
2, 24489, Note_on_c, 0, 67, 64
2, 24549, Note_off_c, 0, 67, 63
2, 24549, Note_on_c, 0, 77, 64
2, 24609, Note_off_c, 0, 77, 72
2, 24609, Note_on_c, 0, 75, 64
2, 24669, Note_off_c, 0, 75, 53
2, 24669, Note_on_c, 0, 74, 64
2, 24729, Note_off_c, 0, 74, 76
2, 24729, Note_on_c, 0, 72, 64
2, 24789, Note_off_c, 0, 72, 83
2, 24789, Note_on_c, 0, 71, 64
2, 24849, Note_off_c, 0, 71, 69
2, 24849, Note_on_c, 0, 69, 64
2, 24909, Note_off_c, 0, 69, 80
2, 24909, Note_on_c, 0, 67, 64
2, 24969, Note_off_c, 0, 67, 61
2, 24969, Note_on_c, 0, 72, 64
2, 25089, Note_off_c, 0, 72, 82
2, 25089, Note_on_c, 0, 77, 64
2, 25209, Note_off_c, 0, 77, 79
2, 25209, Note_on_c, 0, 75, 64
2, 25329, Note_off_c, 0, 75, 83
2, 25329, Note_on_c, 0, 74, 64
2, 25449, Note_off_c, 0, 74, 77
2, 25569, Note_on_c, 0, 68, 64
2, 25689, Note_off_c, 0, 68, 80
2, 25689, Note_on_c, 0, 67, 64
2, 25809, Note_off_c, 0, 67, 62
2, 25809, Note_on_c, 0, 65, 64
2, 25929, Note_off_c, 0, 65, 62
2, 25929, Note_on_c, 0, 67, 64
2, 26049, Note_off_c, 0, 67, 61
2, 26049, Note_on_c, 0, 65, 64
2, 26109, Note_off_c, 0, 65, 34
2, 26109, Note_on_c, 0, 63, 64
2, 26169, Note_off_c, 0, 63, 62
2, 26169, Note_on_c, 0, 65, 64
2, 26289, Note_off_c, 0, 65, 68
2, 26289, Note_on_c, 0, 62, 64
2, 26409, Note_off_c, 0, 62, 62
2, 26409, Note_on_c, 0, 68, 64
2, 26529, Note_off_c, 0, 68, 85
2, 26529, Note_on_c, 0, 67, 64
2, 26649, Note_off_c, 0, 67, 66
2, 26769, Note_on_c, 0, 69, 64
2, 26889, Note_off_c, 0, 69, 73
2, 26889, Note_on_c, 0, 71, 64
2, 27009, Note_off_c, 0, 71, 59
2, 27009, Note_on_c, 0, 72, 64
2, 27129, Note_off_c, 0, 72, 80
2, 27129, Note_on_c, 0, 65, 64
2, 27189, Note_off_c, 0, 65, 63
2, 27189, Note_on_c, 0, 63, 64
2, 27249, Note_off_c, 0, 63, 69
2, 27249, Note_on_c, 0, 62, 64
2, 27309, Note_off_c, 0, 62, 20
2, 27309, Note_on_c, 0, 60, 64
2, 27359, Note_off_c, 0, 60, 57
2, 27372, Note_on_c, 0, 60, 64
2, 27492, Note_off_c, 0, 60, 73
2, 27492, Note_on_c, 0, 72, 64
2, 27552, Note_off_c, 0, 72, 72
2, 27552, Note_on_c, 0, 71, 64
2, 27612, Note_off_c, 0, 71, 82
2, 27612, Note_on_c, 0, 72, 64
2, 27732, Note_off_c, 0, 72, 77
2, 27732, Note_on_c, 0, 67, 64
2, 27852, Note_off_c, 0, 67, 52
2, 27852, Note_on_c, 0, 68, 64
2, 27972, Note_off_c, 0, 68, 80
2, 27972, Note_on_c, 0, 72, 64
2, 28032, Note_off_c, 0, 72, 77
2, 28032, Note_on_c, 0, 71, 64
2, 28092, Note_off_c, 0, 71, 80
2, 28092, Note_on_c, 0, 72, 64
2, 28212, Note_off_c, 0, 72, 70
2, 28212, Note_on_c, 0, 74, 64
2, 28212, Note_on_c, 0, 71, 64
2, 28212, Note_on_c, 0, 68, 64
2, 28332, Note_off_c, 0, 68, 83
2, 28332, Note_off_c, 0, 71, 83
2, 28332, Note_off_c, 0, 74, 76
2, 28332, Note_on_c, 0, 67, 64
2, 28452, Note_off_c, 0, 67, 63
2, 28452, Note_on_c, 0, 72, 64
2, 28512, Note_off_c, 0, 72, 76
2, 28512, Note_on_c, 0, 71, 64
2, 28572, Note_off_c, 0, 71, 80
2, 28572, Note_on_c, 0, 72, 64
2, 28692, Note_off_c, 0, 72, 82
2, 28692, Note_on_c, 0, 74, 64
2, 28812, Note_off_c, 0, 74, 76
2, 28812, Note_on_c, 0, 65, 64
2, 28872, Note_off_c, 0, 65, 49
2, 28872, Note_on_c, 0, 67, 64
2, 28932, Note_off_c, 0, 67, 42
2, 28932, Note_on_c, 0, 68, 64
2, 29172, Note_off_c, 0, 68, 83
2, 29172, Note_on_c, 0, 67, 64
2, 29232, Note_off_c, 0, 67, 61
2, 29232, Note_on_c, 0, 65, 64
2, 29292, Note_off_c, 0, 65, 79
2, 29292, Note_on_c, 0, 64, 64
2, 29772, Note_off_c, 0, 64, 74
2, 29772, End_track
3, 0, Start_track
3, 0, Text_t, "RH L/LH H"
3, 120, Note_on_c, 1, 72, 64
3, 180, Note_off_c, 1, 72, 55
3, 180, Note_on_c, 1, 71, 64
3, 240, Note_off_c, 1, 71, 77
3, 240, Note_on_c, 1, 72, 64
3, 360, Note_off_c, 1, 72, 73
3, 360, Note_on_c, 1, 67, 64
3, 480, Note_off_c, 1, 67, 43
3, 480, Note_on_c, 1, 68, 64
3, 600, Note_off_c, 1, 68, 82
3, 600, Note_on_c, 1, 72, 64
3, 660, Note_on_c, 1, 71, 64
3, 663, Note_off_c, 1, 72, 74
3, 720, Note_off_c, 1, 71, 82
3, 720, Note_on_c, 1, 72, 64
3, 840, Note_off_c, 1, 72, 69
3, 840, Note_on_c, 1, 74, 64
3, 960, Note_off_c, 1, 74, 70
3, 960, Note_on_c, 1, 67, 64
3, 1080, Note_off_c, 1, 67, 38
3, 1080, Note_on_c, 1, 72, 64
3, 1140, Note_off_c, 1, 72, 69
3, 1140, Note_on_c, 1, 71, 64
3, 1200, Note_off_c, 1, 71, 73
3, 1200, Note_on_c, 1, 72, 64
3, 1320, Note_off_c, 1, 72, 44
3, 1320, Note_on_c, 1, 74, 64
3, 1440, Note_off_c, 1, 74, 76
3, 1440, Note_on_c, 1, 65, 64
3, 1500, Note_off_c, 1, 65, 43
3, 1500, Note_on_c, 1, 67, 64
3, 1560, Note_off_c, 1, 67, 52
3, 1560, Note_on_c, 1, 68, 64
3, 1800, Note_on_c, 1, 67, 64
3, 1809, Note_off_c, 1, 68, 83
3, 1860, Note_off_c, 1, 67, 62
3, 1860, Note_on_c, 1, 65, 64
3, 1920, Note_off_c, 1, 65, 1
3, 1920, Note_on_c, 1, 63, 64
3, 1980, Note_off_c, 1, 63, 58
3, 1980, Note_on_c, 1, 72, 64
3, 2040, Note_off_c, 1, 72, 48
3, 2040, Note_on_c, 1, 71, 64
3, 2100, Note_off_c, 1, 71, 63
3, 2100, Note_on_c, 1, 69, 64
3, 2160, Note_off_c, 1, 69, 61
3, 2160, Note_on_c, 1, 67, 64
3, 2220, Note_off_c, 1, 67, 63
3, 2220, Note_on_c, 1, 65, 64
3, 2280, Note_off_c, 1, 65, 38
3, 2280, Note_on_c, 1, 63, 64
3, 2340, Note_off_c, 1, 63, 66
3, 2340, Note_on_c, 1, 62, 64
3, 2400, Note_off_c, 1, 62, 62
3, 2400, Note_on_c, 1, 60, 64
3, 2520, Note_off_c, 1, 60, 66
3, 2520, Note_on_c, 1, 75, 64
3, 2640, Note_off_c, 1, 75, 73
3, 2640, Note_on_c, 1, 74, 64
3, 2760, Note_off_c, 1, 74, 59
3, 2760, Note_on_c, 1, 72, 64
3, 2880, Note_off_c, 1, 72, 68
3, 2880, Note_on_c, 1, 70, 64
3, 3000, Note_off_c, 1, 70, 59
3, 3000, Note_on_c, 1, 69, 64
3, 3120, Note_off_c, 1, 69, 49
3, 3120, Note_on_c, 1, 70, 64
3, 3240, Note_off_c, 1, 70, 68
3, 3240, Note_on_c, 1, 72, 64
3, 3360, Note_off_c, 1, 72, 68
3, 3360, Note_on_c, 1, 66, 64
3, 3480, Note_off_c, 1, 66, 49
3, 3480, Note_on_c, 1, 67, 64
3, 3600, Note_off_c, 1, 67, 40
3, 3600, Note_on_c, 1, 69, 64
3, 3720, Note_off_c, 1, 69, 73
3, 3720, Note_on_c, 1, 66, 64
3, 3840, Note_off_c, 1, 66, 69
3, 3840, Note_on_c, 1, 67, 64
3, 4068, Note_off_c, 1, 67, 68
3, 4140, Note_on_c, 1, 60, 64
3, 4200, Note_off_c, 1, 60, 57
3, 4200, Note_on_c, 1, 62, 64
3, 4260, Note_off_c, 1, 62, 41
3, 4260, Note_on_c, 1, 63, 64
3, 4320, Note_off_c, 1, 63, 62
3, 4320, Note_on_c, 1, 65, 64
3, 4380, Note_off_c, 1, 65, 43
3, 4380, Note_on_c, 1, 67, 64
3, 4440, Note_off_c, 1, 67, 49
3, 4440, Note_on_c, 1, 68, 64
3, 4614, Note_off_c, 1, 68, 65
3, 4620, Note_on_c, 1, 62, 64
3, 4680, Note_off_c, 1, 62, 45
3, 4680, Note_on_c, 1, 63, 64
3, 4740, Note_off_c, 1, 63, 35
3, 4740, Note_on_c, 1, 65, 64
3, 4800, Note_off_c, 1, 65, 43
3, 4800, Note_on_c, 1, 67, 64
3, 4860, Note_off_c, 1, 67, 22
3, 4860, Note_on_c, 1, 69, 64
3, 4920, Note_off_c, 1, 69, 52
3, 4920, Note_on_c, 1, 70, 64
3, 5100, Note_on_c, 1, 63, 64
3, 5101, Note_off_c, 1, 70, 66
3, 5160, Note_off_c, 1, 63, 61
3, 5160, Note_on_c, 1, 65, 64
3, 5220, Note_off_c, 1, 65, 53
3, 5220, Note_on_c, 1, 67, 64
3, 5280, Note_off_c, 1, 67, 29
3, 5280, Note_on_c, 1, 68, 64
3, 5340, Note_off_c, 1, 68, 73
3, 5340, Note_on_c, 1, 67, 64
3, 5400, Note_off_c, 1, 67, 32
3, 5400, Note_on_c, 1, 65, 64
3, 5460, Note_off_c, 1, 65, 46
3, 5460, Note_on_c, 1, 63, 64
3, 5520, Note_off_c, 1, 63, 55
3, 5520, Note_on_c, 1, 62, 64
3, 5627, Note_off_c, 1, 62, 45
3, 5640, Note_on_c, 1, 72, 64
3, 5700, Note_off_c, 1, 72, 47
3, 5700, Note_on_c, 1, 71, 64
3, 5760, Note_off_c, 1, 71, 69
3, 5760, Note_on_c, 1, 72, 64
3, 5926, Note_off_c, 1, 72, 86
3, 6360, Note_on_c, 1, 75, 64
3, 6480, Note_off_c, 1, 75, 63
3, 6480, Note_on_c, 1, 74, 64
3, 6600, Note_off_c, 1, 74, 68
3, 6600, Note_on_c, 1, 72, 64
3, 6720, Note_off_c, 1, 72, 85
3, 6840, Note_on_c, 1, 68, 64
3, 6960, Note_off_c, 1, 68, 61
3, 6960, Note_on_c, 1, 67, 64
3, 7080, Note_off_c, 1, 67, 47
3, 7080, Note_on_c, 1, 65, 64
3, 7200, Note_off_c, 1, 65, 46
3, 7200, Note_on_c, 1, 67, 64
3, 7320, Note_off_c, 1, 67, 35
3, 7320, Note_on_c, 1, 65, 64
3, 7380, Note_off_c, 1, 65, 55
3, 7380, Note_on_c, 1, 63, 64
3, 7440, Note_off_c, 1, 63, 37
3, 7440, Note_on_c, 1, 65, 64
3, 7560, Note_off_c, 1, 65, 48
3, 7560, Note_on_c, 1, 62, 64
3, 7680, Note_off_c, 1, 62, 43
3, 7680, Note_on_c, 1, 67, 64
3, 7920, Note_off_c, 1, 67, 65
3, 8040, Note_on_c, 1, 71, 64
3, 8138, Note_off_c, 1, 71, 51
3, 8160, Note_on_c, 1, 72, 64
3, 8263, Note_off_c, 1, 72, 69
3, 8280, Note_on_c, 1, 72, 64
3, 8340, Note_off_c, 1, 72, 52
3, 8340, Note_on_c, 1, 71, 64
3, 8400, Note_off_c, 1, 71, 53
3, 8400, Note_on_c, 1, 72, 64
3, 8520, Note_off_c, 1, 72, 52
3, 8520, Note_on_c, 1, 67, 64
3, 8640, Note_off_c, 1, 67, 48
3, 8640, Note_on_c, 1, 68, 64
3, 8880, Note_off_c, 1, 68, 79
3, 9000, Note_on_c, 1, 69, 64
3, 9120, Note_off_c, 1, 69, 62
3, 9120, Note_on_c, 1, 70, 64
3, 9240, Note_off_c, 1, 70, 73
3, 9240, Note_on_c, 1, 70, 64
3, 9300, Note_off_c, 1, 70, 55
3, 9300, Note_on_c, 1, 68, 64
3, 9342, Note_off_c, 1, 68, 61
3, 9360, Note_on_c, 1, 70, 64
3, 9480, Note_off_c, 1, 70, 62
3, 9480, Note_on_c, 1, 65, 64
3, 9600, Note_off_c, 1, 65, 65
3, 9600, Note_on_c, 1, 67, 64
3, 9840, Note_off_c, 1, 67, 61
3, 9960, Note_on_c, 1, 67, 64
3, 10080, Note_off_c, 1, 67, 43
3, 10080, Note_on_c, 1, 68, 64
3, 10200, Note_off_c, 1, 68, 74
3, 10200, Note_on_c, 1, 68, 64
3, 10320, Note_off_c, 1, 68, 61
3, 10320, Note_on_c, 1, 67, 64
3, 10440, Note_off_c, 1, 67, 40
3, 10440, Note_on_c, 1, 65, 64
3, 10560, Note_off_c, 1, 65, 55
3, 10680, Note_on_c, 1, 56, 64
3, 10800, Note_off_c, 1, 56, 42
3, 10800, Note_on_c, 1, 58, 64
3, 10920, Note_off_c, 1, 58, 46
3, 10920, Note_on_c, 1, 60, 64
3, 11040, Note_off_c, 1, 60, 72
3, 11160, Note_on_c, 1, 56, 64
3, 11220, Note_off_c, 1, 56, 50
3, 11220, Note_on_c, 1, 55, 64
3, 11280, Note_off_c, 1, 55, 43
3, 11280, Note_on_c, 1, 56, 64
3, 11400, Note_off_c, 1, 56, 44
3, 11400, Note_on_c, 1, 53, 64
3, 11520, Note_off_c, 1, 53, 39
3, 11520, Note_on_c, 1, 58, 64
3, 11640, Note_off_c, 1, 58, 58
3, 11640, Note_on_c, 1, 60, 64
3, 11760, Note_off_c, 1, 60, 49
3, 11760, Note_on_c, 1, 58, 64
3, 11880, Note_off_c, 1, 58, 55
3, 11880, Note_on_c, 1, 56, 64
3, 12000, Note_off_c, 1, 56, 50
3, 12000, Note_on_c, 1, 58, 64
3, 12120, Note_off_c, 1, 58, 54
3, 12120, Note_on_c, 1, 55, 64
3, 12240, Note_off_c, 1, 55, 35
3, 12240, Note_on_c, 1, 53, 64
3, 12360, Note_off_c, 1, 53, 52
3, 12360, Note_on_c, 1, 51, 64
3, 12480, Note_off_c, 1, 51, 62
3, 12480, Note_on_c, 1, 53, 64
3, 12600, Note_off_c, 1, 53, 49
3, 12600, Note_on_c, 1, 61, 64
3, 12720, Note_off_c, 1, 61, 45
3, 12720, Note_on_c, 1, 60, 64
3, 12840, Note_off_c, 1, 60, 28
3, 12840, Note_on_c, 1, 58, 64
3, 12960, Note_off_c, 1, 58, 46
3, 12960, Note_on_c, 1, 60, 64
3, 13080, Note_off_c, 1, 60, 42
3, 13080, Note_on_c, 1, 56, 64
3, 13200, Note_off_c, 1, 56, 31
3, 13200, Note_on_c, 1, 55, 64
3, 13320, Note_off_c, 1, 55, 34
3, 13320, Note_on_c, 1, 53, 64
3, 13440, Note_off_c, 1, 53, 62
3, 13440, Note_on_c, 1, 55, 64
3, 13560, Note_off_c, 1, 55, 41
3, 13560, Note_on_c, 1, 67, 64
3, 13620, Note_off_c, 1, 67, 37
3, 13620, Note_on_c, 1, 66, 64
3, 13680, Note_off_c, 1, 66, 49
3, 13680, Note_on_c, 1, 67, 64
3, 13800, Note_off_c, 1, 67, 38
3, 13800, Note_on_c, 1, 60, 64
3, 13920, Note_off_c, 1, 60, 48
3, 13920, Note_on_c, 1, 63, 64
3, 14040, Note_off_c, 1, 63, 37
3, 14040, Note_on_c, 1, 67, 64
3, 14100, Note_off_c, 1, 67, 2
3, 14100, Note_on_c, 1, 66, 64
3, 14160, Note_off_c, 1, 66, 62
3, 14160, Note_on_c, 1, 67, 64
3, 14280, Note_off_c, 1, 67, 36
3, 14280, Note_on_c, 1, 69, 64
3, 14400, Note_off_c, 1, 69, 51
3, 14400, Note_on_c, 1, 62, 64
3, 14520, Note_off_c, 1, 62, 30
3, 14520, Note_on_c, 1, 67, 64
3, 14580, Note_off_c, 1, 67, 34
3, 14580, Note_on_c, 1, 66, 64
3, 14640, Note_off_c, 1, 66, 57
3, 14640, Note_on_c, 1, 67, 64
3, 14741, Note_off_c, 1, 67, 37
3, 14760, Note_on_c, 1, 69, 64
3, 14869, Note_off_c, 1, 69, 47
3, 14880, Note_on_c, 1, 60, 64
3, 14940, Note_off_c, 1, 60, 47
3, 14940, Note_on_c, 1, 62, 64
3, 15000, Note_off_c, 1, 62, 47
3, 15000, Note_on_c, 1, 63, 64
3, 15240, Note_off_c, 1, 63, 52
3, 15240, Note_on_c, 1, 62, 64
3, 15300, Note_off_c, 1, 62, 39
3, 15300, Note_on_c, 1, 60, 64
3, 15336, Note_off_c, 1, 60, 49
3, 15360, Note_on_c, 1, 58, 64
3, 15453, Note_off_c, 1, 58, 79
3, 15660, Note_on_c, 1, 62, 64
3, 15720, Note_off_c, 1, 62, 49
3, 15720, Note_on_c, 1, 64, 64
3, 15780, Note_off_c, 1, 64, 37
3, 15780, Note_on_c, 1, 66, 64
3, 15840, Note_off_c, 1, 66, 74
3, 15840, Note_on_c, 1, 67, 64
3, 15900, Note_off_c, 1, 67, 34
3, 15900, Note_on_c, 1, 69, 64
3, 15960, Note_off_c, 1, 69, 52
3, 15960, Note_on_c, 1, 70, 64
3, 16126, Note_off_c, 1, 70, 53
3, 16140, Note_on_c, 1, 64, 64
3, 16200, Note_off_c, 1, 64, 47
3, 16200, Note_on_c, 1, 65, 64
3, 16260, Note_off_c, 1, 65, 46
3, 16260, Note_on_c, 1, 67, 64
3, 16320, Note_off_c, 1, 67, 43
3, 16320, Note_on_c, 1, 69, 64
3, 16380, Note_off_c, 1, 69, 77
3, 16380, Note_on_c, 1, 70, 64
3, 16440, Note_off_c, 1, 70, 48
3, 16440, Note_on_c, 1, 72, 64
3, 16610, Note_off_c, 1, 72, 72
3, 16623, Note_on_c, 1, 66, 64
3, 16683, Note_off_c, 1, 66, 68
3, 16683, Note_on_c, 1, 67, 64
3, 16743, Note_off_c, 1, 67, 24
3, 16743, Note_on_c, 1, 69, 64
3, 16803, Note_off_c, 1, 69, 41
3, 16803, Note_on_c, 1, 70, 64
3, 16910, Note_off_c, 1, 70, 59
3, 16923, Note_on_c, 1, 63, 64
3, 16983, Note_off_c, 1, 63, 59
3, 16983, Note_on_c, 1, 62, 64
3, 17043, Note_off_c, 1, 62, 55
3, 17043, Note_on_c, 1, 63, 64
3, 17163, Note_off_c, 1, 63, 46
3, 17163, Note_on_c, 1, 55, 64
3, 17283, Note_off_c, 1, 55, 31
3, 17283, Note_on_c, 1, 56, 64
3, 17403, Note_off_c, 1, 56, 47
3, 17403, Note_on_c, 1, 65, 64
3, 17463, Note_off_c, 1, 65, 45
3, 17463, Note_on_c, 1, 63, 64
3, 17523, Note_off_c, 1, 63, 23
3, 17523, Note_on_c, 1, 65, 64
3, 17643, Note_off_c, 1, 65, 42
3, 17643, Note_on_c, 1, 57, 64
3, 17763, Note_off_c, 1, 57, 35
3, 17763, Note_on_c, 1, 58, 64
3, 17883, Note_off_c, 1, 58, 33
3, 17883, Note_on_c, 1, 67, 64
3, 17943, Note_off_c, 1, 67, 42
3, 17943, Note_on_c, 1, 65, 64
3, 18003, Note_off_c, 1, 65, 43
3, 18003, Note_on_c, 1, 67, 64
3, 18123, Note_off_c, 1, 67, 13
3, 18123, Note_on_c, 1, 59, 64
3, 18243, Note_off_c, 1, 59, 33
3, 18243, Note_on_c, 1, 60, 64
3, 18303, Note_off_c, 1, 60, 55
3, 18303, Note_on_c, 1, 65, 64
3, 18363, Note_off_c, 1, 65, 49
3, 18363, Note_on_c, 1, 63, 64
3, 18423, Note_off_c, 1, 63, 50
3, 18423, Note_on_c, 1, 62, 64
3, 18483, Note_off_c, 1, 62, 52
3, 18483, Note_on_c, 1, 60, 64
3, 18543, Note_off_c, 1, 60, 70
3, 18543, Note_on_c, 1, 58, 64
3, 18603, Note_off_c, 1, 58, 53
3, 18603, Note_on_c, 1, 56, 64
3, 18663, Note_off_c, 1, 56, 49
3, 18663, Note_on_c, 1, 55, 64
3, 18723, Note_off_c, 1, 55, 69
3, 18723, Note_on_c, 1, 53, 64
3, 18843, Note_off_c, 1, 53, 69
3, 18843, Note_on_c, 1, 68, 64
3, 18963, Note_off_c, 1, 68, 74
3, 18963, Note_on_c, 1, 67, 64
3, 19083, Note_off_c, 1, 67, 48
3, 19083, Note_on_c, 1, 65, 64
3, 19203, Note_off_c, 1, 65, 44
3, 19203, Note_on_c, 1, 63, 64
3, 19323, Note_off_c, 1, 63, 45
3, 19323, Note_on_c, 1, 62, 64
3, 19443, Note_off_c, 1, 62, 42
3, 19443, Note_on_c, 1, 63, 64
3, 19563, Note_off_c, 1, 63, 35
3, 19563, Note_on_c, 1, 65, 64
3, 19683, Note_off_c, 1, 65, 51
3, 19683, Note_on_c, 1, 59, 64
3, 19803, Note_off_c, 1, 59, 48
3, 19803, Note_on_c, 1, 60, 64
3, 19923, Note_off_c, 1, 60, 44
3, 19923, Note_on_c, 1, 62, 64
3, 20043, Note_off_c, 1, 62, 46
3, 20043, Note_on_c, 1, 59, 64
3, 20163, Note_off_c, 1, 59, 37
3, 20163, Note_on_c, 1, 60, 64
3, 20403, Note_off_c, 1, 60, 72
3, 20523, Note_on_c, 1, 64, 64
3, 20643, Note_off_c, 1, 64, 52
3, 20643, Note_on_c, 1, 65, 64
3, 20753, Note_off_c, 1, 65, 62
3, 20766, Note_on_c, 1, 65, 64
3, 20826, Note_off_c, 1, 65, 46
3, 20826, Note_on_c, 1, 64, 64
3, 20886, Note_off_c, 1, 64, 35
3, 20886, Note_on_c, 1, 65, 64
3, 21006, Note_off_c, 1, 65, 40
3, 21006, Note_on_c, 1, 60, 64
3, 21126, Note_off_c, 1, 60, 47
3, 21126, Note_on_c, 1, 62, 64
3, 21366, Note_off_c, 1, 62, 73
3, 21486, Note_on_c, 1, 62, 64
3, 21606, Note_off_c, 1, 62, 55
3, 21606, Note_on_c, 1, 63, 64
3, 21716, Note_off_c, 1, 63, 59
3, 21729, Note_on_c, 1, 63, 64
3, 21789, Note_off_c, 1, 63, 43
3, 21789, Note_on_c, 1, 62, 64
3, 21849, Note_off_c, 1, 62, 45
3, 21849, Note_on_c, 1, 63, 64
3, 21969, Note_off_c, 1, 63, 49
3, 21969, Note_on_c, 1, 58, 64
3, 22089, Note_off_c, 1, 58, 52
3, 22089, Note_on_c, 1, 60, 64
3, 22689, Note_off_c, 1, 60, 65
3, 22689, Note_on_c, 1, 62, 64
3, 22749, Note_off_c, 1, 62, 40
3, 22749, Note_on_c, 1, 63, 64
3, 22809, Note_off_c, 1, 63, 48
3, 22809, Note_on_c, 1, 65, 64
3, 22869, Note_off_c, 1, 65, 5
3, 22869, Note_on_c, 1, 63, 64
3, 22929, Note_off_c, 1, 63, 52
3, 22929, Note_on_c, 1, 65, 64
3, 22989, Note_off_c, 1, 65, 44
3, 22989, Note_on_c, 1, 62, 64
3, 23049, Note_off_c, 1, 62, 51
3, 23049, Note_on_c, 1, 59, 64
3, 23169, Note_off_c, 1, 59, 70
3, 23409, Note_on_c, 1, 59, 64
3, 23529, Note_off_c, 1, 59, 68
3, 23529, Note_on_c, 1, 60, 64
3, 23649, Note_off_c, 1, 60, 76
3, 23889, Note_on_c, 1, 63, 64
3, 24009, Note_off_c, 1, 63, 49
3, 24009, Note_on_c, 1, 62, 64
3, 24129, Note_off_c, 1, 62, 70
3, 24369, Note_on_c, 1, 65, 64
3, 24609, Note_off_c, 1, 65, 79
3, 24849, Note_on_c, 1, 65, 64
3, 24969, Note_off_c, 1, 65, 47
3, 24969, Note_on_c, 1, 63, 64
3, 25089, Note_off_c, 1, 63, 47
3, 25089, Note_on_c, 1, 68, 64
3, 25209, Note_off_c, 1, 68, 72
3, 25209, Note_on_c, 1, 67, 64
3, 25329, Note_off_c, 1, 67, 47
3, 25329, Note_on_c, 1, 65, 64
3, 25449, Note_off_c, 1, 65, 54
3, 25449, Note_on_c, 1, 63, 64
3, 25569, Note_off_c, 1, 63, 55
3, 25569, Note_on_c, 1, 62, 64
3, 25689, Note_off_c, 1, 62, 41
3, 25689, Note_on_c, 1, 63, 64
3, 25809, Note_off_c, 1, 63, 43
3, 25809, Note_on_c, 1, 65, 64
3, 25929, Note_off_c, 1, 65, 52
3, 25929, Note_on_c, 1, 59, 64
3, 26049, Note_off_c, 1, 59, 46
3, 26049, Note_on_c, 1, 60, 64
3, 26169, Note_off_c, 1, 60, 52
3, 26169, Note_on_c, 1, 62, 64
3, 26289, Note_off_c, 1, 62, 46
3, 26289, Note_on_c, 1, 59, 64
3, 26409, Note_off_c, 1, 59, 58
3, 26409, Note_on_c, 1, 59, 64
3, 26529, Note_off_c, 1, 59, 23
3, 26529, Note_on_c, 1, 60, 64
3, 26649, Note_off_c, 1, 60, 63
3, 26769, Note_on_c, 1, 60, 64
3, 26889, Note_off_c, 1, 60, 45
3, 26889, Note_on_c, 1, 65, 64
3, 26949, Note_off_c, 1, 65, 45
3, 26949, Note_on_c, 1, 62, 64
3, 27009, Note_off_c, 1, 62, 35
3, 27009, Note_on_c, 1, 63, 64
3, 27069, Note_off_c, 1, 63, 40
3, 27069, Note_on_c, 1, 60, 64
3, 27249, Note_off_c, 1, 60, 46
3, 27249, Note_on_c, 1, 59, 64
3, 27369, Note_off_c, 1, 59, 40
3, 27369, Note_on_c, 1, 60, 64
3, 27609, Note_off_c, 1, 60, 74
3, 27729, Note_on_c, 1, 64, 64
3, 27849, Note_off_c, 1, 64, 30
3, 27849, Note_on_c, 1, 65, 64
3, 27979, Note_off_c, 1, 65, 80
3, 28209, Note_on_c, 1, 65, 64
3, 28319, Note_off_c, 1, 65, 58
3, 28332, Note_on_c, 1, 65, 64
3, 28452, Note_off_c, 1, 65, 65
3, 28452, Note_on_c, 1, 63, 64
3, 28512, Note_off_c, 1, 63, 36
3, 28512, Note_on_c, 1, 62, 64
3, 28572, Note_off_c, 1, 62, 46
3, 28572, Note_on_c, 1, 63, 64
3, 28692, Note_off_c, 1, 63, 48
3, 28692, Note_on_c, 1, 68, 64
3, 28692, Note_on_c, 1, 65, 64
3, 28812, Note_off_c, 1, 65, 62
3, 28812, Note_off_c, 1, 68, 55
3, 28812, Note_on_c, 1, 62, 64
3, 28812, Note_on_c, 1, 59, 64
3, 28932, Note_off_c, 1, 59, 58
3, 28932, Note_off_c, 1, 62, 66
3, 29052, Note_on_c, 1, 59, 64
3, 29052, Note_on_c, 1, 62, 64
3, 29172, Note_off_c, 1, 62, 68
3, 29172, Note_off_c, 1, 59, 52
3, 29292, Note_on_c, 1, 55, 64
3, 29292, Note_on_c, 1, 60, 64
3, 29772, Note_off_c, 1, 60, 77
3, 29772, Note_off_c, 1, 55, 82
3, 29772, End_track
4, 0, Start_track
4, 0, Text_t, "LH L"
4, 5880, Note_on_c, 2, 60, 64
4, 5940, Note_off_c, 2, 60, 57
4, 5940, Note_on_c, 2, 59, 64
4, 6000, Note_off_c, 2, 59, 52
4, 6000, Note_on_c, 2, 60, 64
4, 6120, Note_off_c, 2, 60, 65
4, 6120, Note_on_c, 2, 55, 64
4, 6240, Note_off_c, 2, 55, 51
4, 6240, Note_on_c, 2, 56, 64
4, 6360, Note_off_c, 2, 56, 72
4, 6360, Note_on_c, 2, 60, 64
4, 6420, Note_off_c, 2, 60, 61
4, 6420, Note_on_c, 2, 59, 64
4, 6480, Note_off_c, 2, 59, 68
4, 6480, Note_on_c, 2, 60, 64
4, 6600, Note_off_c, 2, 60, 61
4, 6600, Note_on_c, 2, 62, 64
4, 6720, Note_off_c, 2, 62, 54
4, 6720, Note_on_c, 2, 55, 64
4, 6840, Note_off_c, 2, 55, 48
4, 6840, Note_on_c, 2, 60, 64
4, 6900, Note_off_c, 2, 60, 61
4, 6900, Note_on_c, 2, 59, 64
4, 6960, Note_on_c, 2, 60, 64
4, 6963, Note_off_c, 2, 59, 54
4, 7080, Note_off_c, 2, 60, 72
4, 7080, Note_on_c, 2, 62, 64
4, 7200, Note_off_c, 2, 62, 63
4, 7200, Note_on_c, 2, 53, 64
4, 7260, Note_off_c, 2, 53, 45
4, 7260, Note_on_c, 2, 55, 64
4, 7320, Note_off_c, 2, 55, 65
4, 7320, Note_on_c, 2, 56, 64
4, 7560, Note_off_c, 2, 56, 68
4, 7560, Note_on_c, 2, 55, 64
4, 7620, Note_off_c, 2, 55, 76
4, 7620, Note_on_c, 2, 53, 64
4, 7680, Note_off_c, 2, 53, 52
4, 7680, Note_on_c, 2, 51, 64
4, 7740, Note_off_c, 2, 51, 74
4, 7740, Note_on_c, 2, 60, 64
4, 7800, Note_off_c, 2, 60, 53
4, 7800, Note_on_c, 2, 59, 64
4, 7860, Note_off_c, 2, 59, 49
4, 7860, Note_on_c, 2, 57, 64
4, 7920, Note_off_c, 2, 57, 57
4, 7920, Note_on_c, 2, 55, 64
4, 7980, Note_off_c, 2, 55, 76
4, 7980, Note_on_c, 2, 53, 64
4, 8040, Note_off_c, 2, 53, 61
4, 8040, Note_on_c, 2, 51, 64
4, 8100, Note_off_c, 2, 51, 73
4, 8100, Note_on_c, 2, 50, 64
4, 8160, Note_off_c, 2, 50, 55
4, 8160, Note_on_c, 2, 48, 64
4, 8220, Note_off_c, 2, 48, 73
4, 8220, Note_on_c, 2, 50, 64
4, 8280, Note_off_c, 2, 50, 66
4, 8280, Note_on_c, 2, 51, 64
4, 8340, Note_off_c, 2, 51, 69
4, 8340, Note_on_c, 2, 50, 64
4, 8400, Note_off_c, 2, 50, 39
4, 8400, Note_on_c, 2, 48, 64
4, 8460, Note_off_c, 2, 48, 66
4, 8460, Note_on_c, 2, 46, 64
4, 8520, Note_off_c, 2, 46, 51
4, 8520, Note_on_c, 2, 44, 64
4, 8580, Note_off_c, 2, 44, 73
4, 8580, Note_on_c, 2, 43, 64
4, 8640, Note_off_c, 2, 43, 54
4, 8640, Note_on_c, 2, 41, 64
4, 8700, Note_off_c, 2, 41, 69
4, 8700, Note_on_c, 2, 58, 64
4, 8760, Note_off_c, 2, 58, 57
4, 8760, Note_on_c, 2, 56, 64
4, 8820, Note_off_c, 2, 56, 62
4, 8820, Note_on_c, 2, 55, 64
4, 8880, Note_off_c, 2, 55, 73
4, 8880, Note_on_c, 2, 53, 64
4, 8940, Note_off_c, 2, 53, 54
4, 8940, Note_on_c, 2, 51, 64
4, 9000, Note_off_c, 2, 51, 76
4, 9000, Note_on_c, 2, 50, 64
4, 9060, Note_off_c, 2, 50, 74
4, 9060, Note_on_c, 2, 48, 64
4, 9120, Note_off_c, 2, 48, 53
4, 9120, Note_on_c, 2, 46, 64
4, 9180, Note_off_c, 2, 46, 74
4, 9180, Note_on_c, 2, 48, 64
4, 9240, Note_off_c, 2, 48, 54
4, 9240, Note_on_c, 2, 50, 64
4, 9300, Note_off_c, 2, 50, 74
4, 9300, Note_on_c, 2, 48, 64
4, 9360, Note_off_c, 2, 48, 57
4, 9360, Note_on_c, 2, 46, 64
4, 9420, Note_off_c, 2, 46, 47
4, 9420, Note_on_c, 2, 44, 64
4, 9480, Note_off_c, 2, 44, 62
4, 9480, Note_on_c, 2, 43, 64
4, 9540, Note_off_c, 2, 43, 8
4, 9540, Note_on_c, 2, 41, 64
4, 9600, Note_off_c, 2, 41, 70
4, 9600, Note_on_c, 2, 39, 64
4, 9660, Note_off_c, 2, 39, 74
4, 9660, Note_on_c, 2, 56, 64
4, 9720, Note_off_c, 2, 56, 51
4, 9720, Note_on_c, 2, 55, 64
4, 9780, Note_off_c, 2, 55, 74
4, 9780, Note_on_c, 2, 53, 64
4, 9840, Note_off_c, 2, 53, 55
4, 9840, Note_on_c, 2, 51, 64
4, 9900, Note_off_c, 2, 51, 69
4, 9900, Note_on_c, 2, 49, 64
4, 9960, Note_off_c, 2, 49, 76
4, 9960, Note_on_c, 2, 48, 64
4, 10020, Note_off_c, 2, 48, 58
4, 10020, Note_on_c, 2, 46, 64
4, 10080, Note_off_c, 2, 46, 69
4, 10080, Note_on_c, 2, 44, 64
4, 10200, Note_off_c, 2, 44, 77
4, 10200, Note_on_c, 2, 60, 64
4, 10320, Note_off_c, 2, 60, 59
4, 10320, Note_on_c, 2, 58, 64
4, 10440, Note_off_c, 2, 58, 69
4, 10440, Note_on_c, 2, 56, 64
4, 10560, Note_off_c, 2, 56, 70
4, 10560, Note_on_c, 2, 55, 64
4, 10680, Note_off_c, 2, 55, 66
4, 10680, Note_on_c, 2, 53, 64
4, 10800, Note_off_c, 2, 53, 58
4, 10800, Note_on_c, 2, 55, 64
4, 10920, Note_off_c, 2, 55, 70
4, 10920, Note_on_c, 2, 56, 64
4, 11040, Note_off_c, 2, 56, 68
4, 11040, Note_on_c, 2, 50, 64
4, 11160, Note_off_c, 2, 50, 72
4, 11160, Note_on_c, 2, 51, 64
4, 11280, Note_off_c, 2, 51, 74
4, 11280, Note_on_c, 2, 53, 64
4, 11400, Note_off_c, 2, 53, 70
4, 11400, Note_on_c, 2, 50, 64
4, 11520, Note_off_c, 2, 50, 46
4, 11520, Note_on_c, 2, 51, 64
4, 11640, Note_off_c, 2, 51, 69
4, 11640, Note_on_c, 2, 56, 64
4, 11760, Note_off_c, 2, 56, 62
4, 11760, Note_on_c, 2, 55, 64
4, 11880, Note_off_c, 2, 55, 74
4, 11880, Note_on_c, 2, 53, 64
4, 12000, Note_off_c, 2, 53, 61
4, 12000, Note_on_c, 2, 55, 64
4, 12120, Note_off_c, 2, 55, 74
4, 12120, Note_on_c, 2, 51, 64
4, 12240, Note_off_c, 2, 51, 72
4, 12240, Note_on_c, 2, 50, 64
4, 12360, Note_off_c, 2, 50, 55
4, 12360, Note_on_c, 2, 48, 64
4, 12480, Note_off_c, 2, 48, 48
4, 12480, Note_on_c, 2, 50, 64
4, 12600, Note_off_c, 2, 50, 68
4, 12600, Note_on_c, 2, 58, 64
4, 12720, Note_off_c, 2, 58, 74
4, 12720, Note_on_c, 2, 56, 64
4, 12840, Note_off_c, 2, 56, 65
4, 12840, Note_on_c, 2, 55, 64
4, 12960, Note_off_c, 2, 55, 63
4, 12960, Note_on_c, 2, 56, 64
4, 13080, Note_off_c, 2, 56, 70
4, 13080, Note_on_c, 2, 53, 64
4, 13200, Note_off_c, 2, 53, 63
4, 13200, Note_on_c, 2, 51, 64
4, 13320, Note_off_c, 2, 51, 73
4, 13320, Note_on_c, 2, 50, 64
4, 13440, Note_off_c, 2, 50, 73
4, 13440, Note_on_c, 2, 51, 64
4, 13560, Note_off_c, 2, 51, 79
4, 14040, Note_on_c, 2, 48, 64
4, 14160, Note_off_c, 2, 48, 43
4, 14160, Note_on_c, 2, 46, 64
4, 14280, Note_off_c, 2, 46, 73
4, 14280, Note_on_c, 2, 45, 64
4, 14400, Note_off_c, 2, 45, 73
4, 14520, Note_on_c, 2, 51, 64
4, 14640, Note_off_c, 2, 51, 76
4, 14640, Note_on_c, 2, 50, 64
4, 14760, Note_off_c, 2, 50, 59
4, 14760, Note_on_c, 2, 48, 64
4, 14880, Note_off_c, 2, 48, 73
4, 14880, Note_on_c, 2, 50, 64
4, 15000, Note_off_c, 2, 50, 58
4, 15000, Note_on_c, 2, 48, 64
4, 15060, Note_off_c, 2, 48, 63
4, 15060, Note_on_c, 2, 46, 64
4, 15120, Note_off_c, 2, 46, 73
4, 15120, Note_on_c, 2, 48, 64
4, 15240, Note_off_c, 2, 48, 73
4, 15240, Note_on_c, 2, 50, 64
4, 15360, Note_off_c, 2, 50, 61
4, 15360, Note_on_c, 2, 43, 64
4, 15480, Note_off_c, 2, 43, 68
4, 15480, Note_on_c, 2, 58, 64
4, 15540, Note_off_c, 2, 58, 59
4, 15540, Note_on_c, 2, 57, 64
4, 15600, Note_off_c, 2, 57, 63
4, 15600, Note_on_c, 2, 58, 64
4, 15720, Note_off_c, 2, 58, 68
4, 15720, Note_on_c, 2, 50, 64
4, 15840, Note_off_c, 2, 50, 72
4, 15840, Note_on_c, 2, 51, 64
4, 15960, Note_off_c, 2, 51, 77
4, 15960, Note_on_c, 2, 60, 64
4, 16020, Note_off_c, 2, 60, 65
4, 16020, Note_on_c, 2, 58, 64
4, 16080, Note_off_c, 2, 58, 70
4, 16080, Note_on_c, 2, 60, 64
4, 16200, Note_off_c, 2, 60, 70
4, 16200, Note_on_c, 2, 52, 64
4, 16320, Note_off_c, 2, 52, 79
4, 16320, Note_on_c, 2, 53, 64
4, 16440, Note_off_c, 2, 53, 72
4, 16440, Note_on_c, 2, 62, 64
4, 16500, Note_off_c, 2, 62, 38
4, 16500, Note_on_c, 2, 60, 64
4, 16560, Note_off_c, 2, 60, 72
4, 16560, Note_on_c, 2, 62, 64
4, 16680, Note_off_c, 2, 62, 65
4, 16680, Note_on_c, 2, 54, 64
4, 16800, Note_off_c, 2, 54, 73
4, 16800, Note_on_c, 2, 55, 64
4, 16980, Note_off_c, 2, 55, 76
4, 17100, Note_on_c, 2, 43, 64
4, 17160, Note_off_c, 2, 43, 62
4, 17160, Note_on_c, 2, 45, 64
4, 17220, Note_off_c, 2, 45, 69
4, 17220, Note_on_c, 2, 47, 64
4, 17280, Note_off_c, 2, 47, 38
4, 17280, Note_on_c, 2, 48, 64
4, 17340, Note_off_c, 2, 48, 49
4, 17340, Note_on_c, 2, 50, 64
4, 17400, Note_off_c, 2, 50, 55
4, 17400, Note_on_c, 2, 51, 64
4, 17580, Note_off_c, 2, 51, 73
4, 17580, Note_on_c, 2, 45, 64
4, 17640, Note_off_c, 2, 45, 58
4, 17640, Note_on_c, 2, 46, 64
4, 17700, Note_off_c, 2, 46, 57
4, 17700, Note_on_c, 2, 48, 64
4, 17760, Note_off_c, 2, 48, 49
4, 17760, Note_on_c, 2, 50, 64
4, 17820, Note_off_c, 2, 50, 50
4, 17820, Note_on_c, 2, 51, 64
4, 17880, Note_off_c, 2, 51, 72
4, 17880, Note_on_c, 2, 53, 64
4, 18060, Note_off_c, 2, 53, 65
4, 18060, Note_on_c, 2, 47, 64
4, 18120, Note_off_c, 2, 47, 76
4, 18120, Note_on_c, 2, 48, 64
4, 18180, Note_off_c, 2, 48, 42
4, 18180, Note_on_c, 2, 50, 64
4, 18240, Note_off_c, 2, 50, 61
4, 18240, Note_on_c, 2, 51, 64
4, 18360, Note_off_c, 2, 51, 79
4, 18600, Note_on_c, 2, 52, 64
4, 18720, Note_off_c, 2, 52, 69
4, 18720, Note_on_c, 2, 53, 64
4, 18840, Note_off_c, 2, 53, 66
4, 18840, Note_on_c, 2, 41, 64
4, 18960, Note_off_c, 2, 41, 45
4, 18960, Note_on_c, 2, 39, 64
4, 19080, Note_off_c, 2, 39, 52
4, 19080, Note_on_c, 2, 38, 64
4, 19200, Note_off_c, 2, 38, 62
4, 19320, Note_on_c, 2, 44, 64
4, 19440, Note_off_c, 2, 44, 47
4, 19440, Note_on_c, 2, 43, 64
4, 19560, Note_off_c, 2, 43, 27
4, 19560, Note_on_c, 2, 41, 64
4, 19680, Note_off_c, 2, 41, 38
4, 19680, Note_on_c, 2, 43, 64
4, 19800, Note_off_c, 2, 43, 34
4, 19800, Note_on_c, 2, 41, 64
4, 19860, Note_off_c, 2, 41, 34
4, 19860, Note_on_c, 2, 39, 64
4, 19920, Note_off_c, 2, 39, 58
4, 19920, Note_on_c, 2, 41, 64
4, 20040, Note_off_c, 2, 41, 34
4, 20040, Note_on_c, 2, 43, 64
4, 20160, Note_off_c, 2, 43, 62
4, 20160, Note_on_c, 2, 48, 64
4, 20220, Note_off_c, 2, 48, 40
4, 20220, Note_on_c, 2, 50, 64
4, 20280, Note_off_c, 2, 50, 54
4, 20280, Note_on_c, 2, 51, 64
4, 20340, Note_off_c, 2, 51, 49
4, 20340, Note_on_c, 2, 50, 64
4, 20400, Note_off_c, 2, 50, 45
4, 20400, Note_on_c, 2, 48, 64
4, 20460, Note_off_c, 2, 48, 62
4, 20460, Note_on_c, 2, 46, 64
4, 20520, Note_off_c, 2, 46, 38
4, 20520, Note_on_c, 2, 44, 64
4, 20580, Note_off_c, 2, 44, 63
4, 20580, Note_on_c, 2, 43, 64
4, 20640, Note_off_c, 2, 43, 69
4, 20640, Note_on_c, 2, 41, 64
4, 20700, Note_off_c, 2, 41, 69
4, 20700, Note_on_c, 2, 58, 64
4, 20760, Note_off_c, 2, 58, 52
4, 20760, Note_on_c, 2, 56, 64
4, 20820, Note_off_c, 2, 56, 52
4, 20820, Note_on_c, 2, 55, 64
4, 20880, Note_off_c, 2, 55, 52
4, 20880, Note_on_c, 2, 53, 64
4, 20940, Note_off_c, 2, 53, 54
4, 20940, Note_on_c, 2, 51, 64
4, 21000, Note_off_c, 2, 51, 50
4, 21000, Note_on_c, 2, 50, 64
4, 21060, Note_off_c, 2, 50, 44
4, 21060, Note_on_c, 2, 48, 64
4, 21120, Note_off_c, 2, 48, 61
4, 21120, Note_on_c, 2, 46, 64
4, 21180, Note_off_c, 2, 46, 70
4, 21180, Note_on_c, 2, 48, 64
4, 21240, Note_off_c, 2, 48, 49
4, 21240, Note_on_c, 2, 50, 64
4, 21300, Note_off_c, 2, 50, 52
4, 21300, Note_on_c, 2, 48, 64
4, 21360, Note_off_c, 2, 48, 51
4, 21360, Note_on_c, 2, 46, 64
4, 21420, Note_off_c, 2, 46, 47
4, 21420, Note_on_c, 2, 44, 64
4, 21480, Note_off_c, 2, 44, 57
4, 21480, Note_on_c, 2, 43, 64
4, 21540, Note_off_c, 2, 43, 34
4, 21540, Note_on_c, 2, 41, 64
4, 21600, Note_off_c, 2, 41, 33
4, 21600, Note_on_c, 2, 39, 64
4, 21660, Note_off_c, 2, 39, 70
4, 21660, Note_on_c, 2, 56, 64
4, 21720, Note_off_c, 2, 56, 52
4, 21720, Note_on_c, 2, 55, 64
4, 21780, Note_off_c, 2, 55, 50
4, 21780, Note_on_c, 2, 53, 64
4, 21840, Note_off_c, 2, 53, 57
4, 21840, Note_on_c, 2, 51, 64
4, 21900, Note_off_c, 2, 51, 48
4, 21900, Note_on_c, 2, 50, 64
4, 21960, Note_off_c, 2, 50, 42
4, 21960, Note_on_c, 2, 48, 64
4, 22020, Note_off_c, 2, 48, 52
4, 22020, Note_on_c, 2, 46, 64
4, 22080, Note_off_c, 2, 46, 61
4, 22080, Note_on_c, 2, 44, 64
4, 22140, Note_off_c, 2, 44, 46
4, 22140, Note_on_c, 2, 46, 64
4, 22200, Note_off_c, 2, 46, 70
4, 22200, Note_on_c, 2, 48, 64
4, 22260, Note_off_c, 2, 48, 54
4, 22260, Note_on_c, 2, 46, 64
4, 22320, Note_off_c, 2, 46, 46
4, 22320, Note_on_c, 2, 44, 64
4, 22380, Note_off_c, 2, 44, 62
4, 22380, Note_on_c, 2, 43, 64
4, 22440, Note_off_c, 2, 43, 41
4, 22440, Note_on_c, 2, 41, 64
4, 22500, Note_off_c, 2, 41, 30
4, 22500, Note_on_c, 2, 39, 64
4, 22560, Note_off_c, 2, 39, 46
4, 22560, Note_on_c, 2, 38, 64
4, 22620, Note_off_c, 2, 38, 59
4, 22620, Note_on_c, 2, 55, 64
4, 22680, Note_off_c, 2, 55, 41
4, 22680, Note_on_c, 2, 53, 64
4, 22740, Note_off_c, 2, 53, 46
4, 22740, Note_on_c, 2, 51, 64
4, 22800, Note_off_c, 2, 51, 57
4, 22800, Note_on_c, 2, 50, 64
4, 22860, Note_off_c, 2, 50, 46
4, 22860, Note_on_c, 2, 48, 64
4, 22920, Note_off_c, 2, 48, 53
4, 22920, Note_on_c, 2, 47, 64
4, 22980, Note_off_c, 2, 47, 46
4, 22980, Note_on_c, 2, 45, 64
4, 23040, Note_off_c, 2, 45, 46
4, 23040, Note_on_c, 2, 43, 64
4, 23280, Note_off_c, 2, 43, 72
4, 23580, Note_on_c, 2, 43, 64
4, 23640, Note_off_c, 2, 43, 46
4, 23640, Note_on_c, 2, 45, 64
4, 23700, Note_off_c, 2, 45, 52
4, 23700, Note_on_c, 2, 47, 64
4, 23760, Note_off_c, 2, 47, 66
4, 23760, Note_on_c, 2, 48, 64
4, 23820, Note_off_c, 2, 48, 63
4, 23820, Note_on_c, 2, 50, 64
4, 23880, Note_off_c, 2, 50, 43
4, 23880, Note_on_c, 2, 51, 64
4, 23940, Note_off_c, 2, 51, 38
4, 23940, Note_on_c, 2, 53, 64
4, 24000, Note_off_c, 2, 53, 50
4, 24000, Note_on_c, 2, 55, 64
4, 24060, Note_off_c, 2, 55, 57
4, 24060, Note_on_c, 2, 53, 64
4, 24120, Note_off_c, 2, 53, 46
4, 24120, Note_on_c, 2, 56, 64
4, 24180, Note_off_c, 2, 56, 44
4, 24180, Note_on_c, 2, 55, 64
4, 24240, Note_off_c, 2, 55, 55
4, 24240, Note_on_c, 2, 53, 64
4, 24300, Note_off_c, 2, 53, 51
4, 24300, Note_on_c, 2, 51, 64
4, 24360, Note_off_c, 2, 51, 20
4, 24360, Note_on_c, 2, 50, 64
4, 24420, Note_off_c, 2, 50, 46
4, 24420, Note_on_c, 2, 48, 64
4, 24480, Note_off_c, 2, 48, 57
4, 24480, Note_on_c, 2, 47, 64
4, 24600, Note_off_c, 2, 47, 76
4, 24600, Note_on_c, 2, 48, 64
4, 24660, Note_off_c, 2, 48, 59
4, 24660, Note_on_c, 2, 47, 64
4, 24720, Note_off_c, 2, 47, 76
4, 24720, Note_on_c, 2, 48, 64
4, 24840, Note_off_c, 2, 48, 58
4, 24840, Note_on_c, 2, 43, 64
4, 24960, Note_off_c, 2, 43, 66
4, 24960, Note_on_c, 2, 44, 64
4, 25080, Note_off_c, 2, 44, 73
4, 25080, Note_on_c, 2, 48, 64
4, 25140, Note_off_c, 2, 48, 66
4, 25140, Note_on_c, 2, 47, 64
4, 25200, Note_off_c, 2, 47, 63
4, 25200, Note_on_c, 2, 48, 64
4, 25320, Note_off_c, 2, 48, 70
4, 25320, Note_on_c, 2, 50, 64
4, 25440, Note_off_c, 2, 50, 68
4, 25440, Note_on_c, 2, 43, 64
4, 25560, Note_off_c, 2, 43, 69
4, 25560, Note_on_c, 2, 48, 64
4, 25620, Note_off_c, 2, 48, 72
4, 25620, Note_on_c, 2, 47, 64
4, 25680, Note_off_c, 2, 47, 68
4, 25680, Note_on_c, 2, 48, 64
4, 25800, Note_off_c, 2, 48, 62
4, 25800, Note_on_c, 2, 50, 64
4, 25920, Note_off_c, 2, 50, 76
4, 25920, Note_on_c, 2, 41, 64
4, 25980, Note_off_c, 2, 41, 69
4, 25980, Note_on_c, 2, 43, 64
4, 26040, Note_off_c, 2, 43, 72
4, 26040, Note_on_c, 2, 44, 64
4, 26280, Note_on_c, 2, 43, 64
4, 26283, Note_off_c, 2, 44, 74
4, 26340, Note_off_c, 2, 43, 41
4, 26340, Note_on_c, 2, 41, 64
4, 26400, Note_off_c, 2, 41, 68
4, 26400, Note_on_c, 2, 39, 64
4, 26640, Note_off_c, 2, 39, 80
4, 26760, Note_on_c, 2, 51, 64
4, 26880, Note_off_c, 2, 51, 73
4, 26880, Note_on_c, 2, 50, 64
4, 27000, Note_off_c, 2, 50, 57
4, 27000, Note_on_c, 2, 48, 64
4, 27120, Note_off_c, 2, 48, 46
4, 27120, Note_on_c, 2, 55, 64
4, 27240, Note_off_c, 2, 55, 49
4, 27240, Note_on_c, 2, 43, 64
4, 27360, Note_off_c, 2, 43, 52
4, 27360, Note_on_c, 2, 48, 64
4, 27360, Note_on_c, 2, 36, 64
4, 29759, Note_off_c, 2, 36, 66
4, 29760, Note_off_c, 2, 48, 76
4, 29760, End_track
0, 0, End_of_file
