0, 0, Header, 1, 4, 240
1, 0, Start_track
1, 0, Time_signature, 4, 2, 24, 8
1, 0, Tempo, 863275
1, 82080, Tempo, 886263
1, 82356, Tempo, 722892
1, 82560, Tempo, 759494
1, 82680, Tempo, 789474
1, 82788, Tempo, 833333
1, 82920, Tempo, 909091
1, 83052, Tempo, 1071429
1, 83280, Tempo, 1200000
1, 83520, Tempo, 1363636
1, 83520, End_track
2, 0, Start_track
2, 0, Text_t, "RH H"
2, 2400, Note_on_c, 0, 70, 64
2, 2640, Note_off_c, 0, 70, 55
2, 2640, Note_on_c, 0, 75, 64
2, 3000, Note_off_c, 0, 75, 49
2, 3000, Note_on_c, 0, 78, 64
2, 3120, Note_off_c, 0, 78, 68
2, 3120, Note_on_c, 0, 77, 64
2, 3240, Note_off_c, 0, 77, 49
2, 3240, Note_on_c, 0, 75, 64
2, 3360, Note_off_c, 0, 75, 55
2, 3360, Note_on_c, 0, 73, 64
2, 3480, Note_off_c, 0, 73, 62
2, 3480, Note_on_c, 0, 75, 64
2, 3600, Note_off_c, 0, 75, 44
2, 3600, Note_on_c, 0, 77, 64
2, 3840, Note_off_c, 0, 77, 76
2, 3840, Note_on_c, 0, 70, 64
2, 4080, Note_off_c, 0, 70, 49
2, 4080, Note_on_c, 0, 75, 64
2, 4440, Note_off_c, 0, 75, 48
2, 4440, Note_on_c, 0, 73, 64
2, 4560, Note_off_c, 0, 73, 53
2, 4560, Note_on_c, 0, 72, 64
2, 4800, Note_off_c, 0, 72, 66
2, 4920, Note_on_c, 0, 72, 64
2, 5040, Note_off_c, 0, 72, 68
2, 5040, Note_on_c, 0, 73, 64
2, 5640, Note_off_c, 0, 73, 54
2, 5640, Note_on_c, 0, 71, 64
2, 5760, Note_off_c, 0, 71, 74
2, 5760, Note_on_c, 0, 70, 64
2, 6000, Note_off_c, 0, 70, 63
2, 6000, Note_on_c, 0, 75, 64
2, 6360, Note_off_c, 0, 75, 52
2, 6360, Note_on_c, 0, 74, 64
2, 6480, Note_off_c, 0, 74, 63
2, 6480, Note_on_c, 0, 75, 64
2, 6600, Note_off_c, 0, 75, 45
2, 6600, Note_on_c, 0, 77, 64
2, 6720, Note_off_c, 0, 77, 49
2, 6720, Note_on_c, 0, 78, 64
2, 6960, Note_off_c, 0, 78, 59
2, 6960, Note_on_c, 0, 77, 64
2, 7080, Note_off_c, 0, 77, 74
2, 7080, Note_on_c, 0, 78, 64
2, 7200, Note_off_c, 0, 78, 66
2, 7200, Note_on_c, 0, 80, 64
2, 7320, Note_off_c, 0, 80, 76
2, 7320, Note_on_c, 0, 77, 64
2, 7440, Note_off_c, 0, 77, 58
2, 7440, Note_on_c, 0, 78, 64
2, 7560, Note_off_c, 0, 78, 63
2, 7560, Note_on_c, 0, 80, 64
2, 7680, Note_off_c, 0, 80, 51
2, 7680, Note_on_c, 0, 82, 64
2, 7800, Note_off_c, 0, 82, 41
2, 7800, Note_on_c, 0, 80, 64
2, 7920, Note_off_c, 0, 80, 66
2, 7920, Note_on_c, 0, 78, 64
2, 8040, Note_off_c, 0, 78, 72
2, 8040, Note_on_c, 0, 77, 64
2, 8160, Note_off_c, 0, 77, 54
2, 8160, Note_on_c, 0, 78, 64
2, 8400, Note_off_c, 0, 78, 63
2, 8400, Note_on_c, 0, 77, 64
2, 8520, Note_off_c, 0, 77, 69
2, 8520, Note_on_c, 0, 75, 64
2, 8640, Note_off_c, 0, 75, 52
2, 8640, Note_on_c, 0, 74, 64
2, 8760, Note_off_c, 0, 74, 47
2, 8760, Note_on_c, 0, 75, 64
2, 9000, Note_off_c, 0, 75, 52
2, 9000, Note_on_c, 0, 74, 64
2, 9120, Note_off_c, 0, 74, 54
2, 9120, Note_on_c, 0, 75, 64
2, 9240, Note_off_c, 0, 75, 47
2, 9240, Note_on_c, 0, 73, 64
2, 9360, Note_off_c, 0, 73, 70
2, 9360, Note_on_c, 0, 71, 64
2, 9720, Note_off_c, 0, 71, 74
2, 9720, Note_on_c, 0, 70, 64
2, 9780, Note_off_c, 0, 70, 61
2, 9780, Note_on_c, 0, 68, 64
2, 9840, Note_off_c, 0, 68, 51
2, 9840, Note_on_c, 0, 70, 64
2, 9960, Note_off_c, 0, 70, 62
2, 9960, Note_on_c, 0, 71, 64
2, 10020, Note_off_c, 0, 71, 76
2, 10020, Note_on_c, 0, 73, 64
2, 10080, Note_off_c, 0, 73, 58
2, 10080, Note_on_c, 0, 75, 64
2, 10200, Note_off_c, 0, 75, 52
2, 10200, Note_on_c, 0, 77, 64
2, 10260, Note_off_c, 0, 77, 68
2, 10260, Note_on_c, 0, 78, 64
2, 10320, Note_off_c, 0, 78, 40
2, 10320, Note_on_c, 0, 77, 64
2, 10500, Note_off_c, 0, 77, 61
2, 10500, Note_on_c, 0, 75, 64
2, 10560, Note_off_c, 0, 75, 46
2, 10560, Note_on_c, 0, 74, 64
2, 10800, Note_off_c, 0, 74, 70
2, 10800, Note_on_c, 0, 75, 64
2, 10920, Note_off_c, 0, 75, 66
2, 10920, Note_on_c, 0, 73, 64
2, 11040, Note_off_c, 0, 73, 72
2, 11040, Note_on_c, 0, 71, 64
2, 11160, Note_off_c, 0, 71, 76
2, 11160, Note_on_c, 0, 70, 64
2, 11280, Note_off_c, 0, 70, 74
2, 11280, Note_on_c, 0, 68, 64
2, 11400, Note_off_c, 0, 68, 76
2, 11400, Note_on_c, 0, 66, 64
2, 11520, Note_off_c, 0, 66, 1
2, 11520, Note_on_c, 0, 65, 64
2, 11640, Note_off_c, 0, 65, 1
2, 11640, Note_on_c, 0, 66, 64
2, 11760, Note_off_c, 0, 66, 74
2, 11760, Note_on_c, 0, 68, 64
2, 12120, Note_off_c, 0, 68, 72
2, 12120, Note_on_c, 0, 66, 64
2, 12180, Note_off_c, 0, 66, 68
2, 12180, Note_on_c, 0, 65, 64
2, 12240, Note_off_c, 0, 65, 38
2, 12240, Note_on_c, 0, 66, 64
2, 12360, Note_off_c, 0, 66, 73
2, 12360, Note_on_c, 0, 68, 64
2, 12480, Note_off_c, 0, 68, 69
2, 12480, Note_on_c, 0, 70, 64
2, 12720, Note_off_c, 0, 70, 57
2, 12720, Note_on_c, 0, 71, 64
2, 12840, Note_off_c, 0, 71, 70
2, 12840, Note_on_c, 0, 73, 64
2, 12900, Note_off_c, 0, 73, 65
2, 12900, Note_on_c, 0, 75, 64
2, 12960, Note_off_c, 0, 75, 59
2, 12960, Note_on_c, 0, 68, 64
2, 13200, Note_off_c, 0, 68, 62
2, 13320, Note_on_c, 0, 70, 64
2, 13440, Note_off_c, 0, 70, 66
2, 13440, Note_on_c, 0, 71, 64
2, 13560, Note_off_c, 0, 71, 50
2, 13560, Note_on_c, 0, 73, 64
2, 13680, Note_off_c, 0, 73, 68
2, 13680, Note_on_c, 0, 75, 64
2, 13800, Note_off_c, 0, 75, 69
2, 13800, Note_on_c, 0, 77, 64
2, 13920, Note_off_c, 0, 77, 73
2, 13920, Note_on_c, 0, 78, 64
2, 14040, Note_off_c, 0, 78, 70
2, 14040, Note_on_c, 0, 80, 64
2, 14160, Note_off_c, 0, 80, 80
2, 14160, Note_on_c, 0, 82, 64
2, 14280, Note_off_c, 0, 82, 62
2, 14280, Note_on_c, 0, 83, 64
2, 14520, Note_off_c, 0, 83, 65
2, 14520, Note_on_c, 0, 73, 64
2, 14640, Note_off_c, 0, 73, 46
2, 14640, Note_on_c, 0, 78, 64
2, 15120, Note_off_c, 0, 78, 66
2, 15120, Note_on_c, 0, 77, 64
2, 15600, Note_off_c, 0, 77, 73
2, 15600, Note_on_c, 0, 75, 64
2, 15720, Note_off_c, 0, 75, 54
2, 15720, Note_on_c, 0, 73, 64
2, 15840, Note_off_c, 0, 73, 69
2, 15840, Note_on_c, 0, 72, 64
2, 15960, Note_off_c, 0, 72, 55
2, 15960, Note_on_c, 0, 74, 64
2, 16080, Note_off_c, 0, 74, 72
2, 16080, Note_on_c, 0, 75, 64
2, 16200, Note_off_c, 0, 75, 54
2, 16200, Note_on_c, 0, 77, 64
2, 16320, Note_off_c, 0, 77, 73
2, 16320, Note_on_c, 0, 78, 64
2, 16560, Note_off_c, 0, 78, 65
2, 16560, Note_on_c, 0, 77, 64
2, 16680, Note_off_c, 0, 77, 68
2, 16680, Note_on_c, 0, 75, 64
2, 16800, Note_off_c, 0, 75, 46
2, 16800, Note_on_c, 0, 73, 64
2, 16920, Note_off_c, 0, 73, 76
2, 16920, Note_on_c, 0, 75, 64
2, 17040, Note_off_c, 0, 75, 57
2, 17040, Note_on_c, 0, 77, 64
2, 17160, Note_off_c, 0, 77, 76
2, 17160, Note_on_c, 0, 78, 64
2, 17280, Note_off_c, 0, 78, 63
2, 17280, Note_on_c, 0, 73, 64
2, 17520, Note_off_c, 0, 73, 61
2, 17520, Note_on_c, 0, 72, 64
2, 17760, Note_off_c, 0, 72, 73
2, 17760, Note_on_c, 0, 70, 64
2, 18000, Note_off_c, 0, 70, 51
2, 18240, Note_on_c, 0, 70, 64
2, 18480, Note_off_c, 0, 70, 76
2, 18480, Note_on_c, 0, 77, 64
2, 18840, Note_off_c, 0, 77, 66
2, 18840, Note_on_c, 0, 78, 64
2, 18960, Note_off_c, 0, 78, 52
2, 18960, Note_on_c, 0, 77, 64
2, 19080, Note_off_c, 0, 77, 70
2, 19080, Note_on_c, 0, 75, 64
2, 19200, Note_off_c, 0, 75, 53
2, 19200, Note_on_c, 0, 73, 64
2, 19320, Note_off_c, 0, 73, 66
2, 19320, Note_on_c, 0, 75, 64
2, 19440, Note_off_c, 0, 75, 52
2, 19440, Note_on_c, 0, 77, 64
2, 19680, Note_off_c, 0, 77, 76
2, 19680, Note_on_c, 0, 70, 64
2, 19920, Note_off_c, 0, 70, 59
2, 20040, Note_on_c, 0, 75, 64
2, 20280, Note_off_c, 0, 75, 47
2, 20280, Note_on_c, 0, 73, 64
2, 20400, Note_off_c, 0, 73, 66
2, 20400, Note_on_c, 0, 72, 64
2, 20640, Note_off_c, 0, 72, 77
2, 20640, Note_on_c, 0, 70, 64
2, 20880, Note_off_c, 0, 70, 62
2, 21000, Note_on_c, 0, 80, 64
2, 21240, Note_off_c, 0, 80, 69
2, 21240, Note_on_c, 0, 78, 64
2, 21360, Note_off_c, 0, 78, 62
2, 21360, Note_on_c, 0, 77, 64
2, 21660, Note_off_c, 0, 77, 59
2, 21660, Note_on_c, 0, 75, 64
2, 21720, Note_off_c, 0, 75, 69
2, 21720, Note_on_c, 0, 77, 64
2, 21780, Note_off_c, 0, 77, 76
2, 21780, Note_on_c, 0, 78, 64
2, 21840, Note_off_c, 0, 78, 65
2, 21840, Note_on_c, 0, 75, 64
2, 22020, Note_off_c, 0, 75, 52
2, 22020, Note_on_c, 0, 77, 64
2, 22080, Note_off_c, 0, 77, 62
2, 22080, Note_on_c, 0, 77, 64
2, 22320, Note_off_c, 0, 77, 46
2, 22320, Note_on_c, 0, 82, 64
2, 22680, Note_off_c, 0, 82, 65
2, 22680, Note_on_c, 0, 83, 64
2, 22800, Note_off_c, 0, 83, 52
2, 22800, Note_on_c, 0, 82, 64
2, 22920, Note_off_c, 0, 82, 50
2, 22920, Note_on_c, 0, 80, 64
2, 23040, Note_off_c, 0, 80, 62
2, 23040, Note_on_c, 0, 79, 64
2, 23160, Note_off_c, 0, 79, 59
2, 23160, Note_on_c, 0, 80, 64
2, 23280, Note_off_c, 0, 80, 63
2, 23280, Note_on_c, 0, 82, 64
2, 23520, Note_off_c, 0, 82, 66
2, 23520, Note_on_c, 0, 75, 64
2, 23760, Note_off_c, 0, 75, 46
2, 23760, Note_on_c, 0, 80, 64
2, 24120, Note_off_c, 0, 80, 72
2, 24120, Note_on_c, 0, 78, 64
2, 24240, Note_off_c, 0, 78, 54
2, 24240, Note_on_c, 0, 77, 64
2, 24720, Note_off_c, 0, 77, 61
2, 24720, Note_on_c, 0, 75, 64
2, 25200, Note_off_c, 0, 75, 46
2, 25200, Note_on_c, 0, 80, 64
2, 25560, Note_off_c, 0, 80, 68
2, 25560, Note_on_c, 0, 82, 64
2, 25680, Note_off_c, 0, 82, 68
2, 25680, Note_on_c, 0, 80, 64
2, 25800, Note_off_c, 0, 80, 72
2, 25800, Note_on_c, 0, 78, 64
2, 25920, Note_off_c, 0, 78, 58
2, 25920, Note_on_c, 0, 77, 64
2, 26040, Note_off_c, 0, 77, 76
2, 26040, Note_on_c, 0, 78, 64
2, 26160, Note_off_c, 0, 78, 61
2, 26160, Note_on_c, 0, 80, 64
2, 26400, Note_off_c, 0, 80, 69
2, 26400, Note_on_c, 0, 73, 64
2, 26640, Note_off_c, 0, 73, 54
2, 26640, Note_on_c, 0, 78, 64
2, 27000, Note_off_c, 0, 78, 49
2, 27000, Note_on_c, 0, 76, 64
2, 27120, Note_off_c, 0, 76, 43
2, 27120, Note_on_c, 0, 75, 64
2, 27240, Note_off_c, 0, 75, 42
2, 27240, Note_on_c, 0, 80, 64
2, 27360, Note_off_c, 0, 80, 54
2, 27360, Note_on_c, 0, 73, 64
2, 27480, Note_off_c, 0, 73, 43
2, 27480, Note_on_c, 0, 78, 64
2, 27720, Note_off_c, 0, 78, 59
2, 27720, Note_on_c, 0, 77, 64
2, 27840, Note_off_c, 0, 77, 65
2, 27840, Note_on_c, 0, 78, 64
2, 28080, Note_off_c, 0, 78, 55
2, 28080, Note_on_c, 0, 73, 64
2, 28440, Note_off_c, 0, 73, 61
2, 28440, Note_on_c, 0, 71, 64
2, 28560, Note_off_c, 0, 71, 54
2, 28560, Note_on_c, 0, 73, 64
2, 28680, Note_off_c, 0, 73, 54
2, 28680, Note_on_c, 0, 75, 64
2, 28800, Note_off_c, 0, 75, 50
2, 28800, Note_on_c, 0, 77, 64
2, 28920, Note_off_c, 0, 77, 57
2, 28920, Note_on_c, 0, 75, 64
2, 29040, Note_off_c, 0, 75, 49
2, 29040, Note_on_c, 0, 73, 64
2, 29280, Note_off_c, 0, 73, 50
2, 29280, Note_on_c, 0, 80, 64
2, 29520, Note_off_c, 0, 80, 59
2, 29520, Note_on_c, 0, 73, 64
2, 29880, Note_off_c, 0, 73, 59
2, 29880, Note_on_c, 0, 75, 64
2, 30000, Note_off_c, 0, 75, 46
2, 30000, Note_on_c, 0, 77, 64
2, 30240, Note_off_c, 0, 77, 65
2, 30240, Note_on_c, 0, 78, 64
2, 30720, Note_off_c, 0, 78, 52
2, 30840, Note_on_c, 0, 77, 64
2, 30960, Note_off_c, 0, 77, 70
2, 30960, Note_on_c, 0, 75, 64
2, 31080, Note_off_c, 0, 75, 63
2, 31080, Note_on_c, 0, 73, 64
2, 31200, Note_off_c, 0, 73, 66
2, 31200, Note_on_c, 0, 72, 64
2, 31440, Note_off_c, 0, 72, 69
2, 31440, Note_on_c, 0, 74, 64
2, 31680, Note_off_c, 0, 74, 59
2, 31680, Note_on_c, 0, 75, 64
2, 32160, Note_off_c, 0, 75, 52
2, 32160, Note_on_c, 0, 73, 64
2, 32640, Note_off_c, 0, 73, 66
2, 32640, Note_on_c, 0, 71, 64
2, 32760, Note_off_c, 0, 71, 46
2, 32760, Note_on_c, 0, 73, 64
2, 32880, Note_off_c, 0, 73, 63
2, 32880, Note_on_c, 0, 75, 64
2, 33000, Note_off_c, 0, 75, 49
2, 33000, Note_on_c, 0, 76, 64
2, 33120, Note_off_c, 0, 76, 47
2, 33120, Note_on_c, 0, 70, 64
2, 33240, Note_off_c, 0, 70, 38
2, 33240, Note_on_c, 0, 71, 64
2, 33360, Note_off_c, 0, 71, 52
2, 33360, Note_on_c, 0, 73, 64
2, 33480, Note_off_c, 0, 73, 65
2, 33480, Note_on_c, 0, 75, 64
2, 33600, Note_off_c, 0, 75, 52
2, 33600, Note_on_c, 0, 71, 64
2, 33720, Note_off_c, 0, 71, 77
2, 33720, Note_on_c, 0, 70, 64
2, 33840, Note_off_c, 0, 70, 66
2, 33840, Note_on_c, 0, 68, 64
2, 33960, Note_off_c, 0, 68, 80
2, 33960, Note_on_c, 0, 66, 64
2, 34080, Note_off_c, 0, 66, 46
2, 34080, Note_on_c, 0, 65, 64
2, 34320, Note_off_c, 0, 65, 57
2, 34320, Note_on_c, 0, 66, 64
2, 34440, Note_off_c, 0, 66, 74
2, 34440, Note_on_c, 0, 68, 64
2, 34560, Note_off_c, 0, 68, 69
2, 34560, Note_on_c, 0, 70, 64
2, 34800, Note_off_c, 0, 70, 55
2, 34800, Note_on_c, 0, 72, 64
2, 34920, Note_off_c, 0, 72, 70
2, 34920, Note_on_c, 0, 74, 64
2, 35040, Note_off_c, 0, 74, 53
2, 35040, Note_on_c, 0, 75, 64
2, 35400, Note_off_c, 0, 75, 52
2, 35400, Note_on_c, 0, 73, 64
2, 35520, Note_off_c, 0, 73, 53
2, 35520, Note_on_c, 0, 72, 64
2, 35640, Note_off_c, 0, 72, 57
2, 35640, Note_on_c, 0, 74, 64
2, 35760, Note_off_c, 0, 74, 59
2, 35760, Note_on_c, 0, 75, 64
2, 36240, Note_off_c, 0, 75, 46
2, 36240, Note_on_c, 0, 74, 64
2, 36480, Note_off_c, 0, 74, 52
2, 36480, Note_on_c, 0, 75, 64
2, 36720, Note_off_c, 0, 75, 47
2, 36720, Note_on_c, 0, 74, 64
2, 36840, Note_off_c, 0, 74, 63
2, 36840, Note_on_c, 0, 75, 64
2, 36960, Note_off_c, 0, 75, 39
2, 36960, Note_on_c, 0, 77, 64
2, 37080, Note_off_c, 0, 77, 74
2, 37080, Note_on_c, 0, 80, 64
2, 37200, Note_off_c, 0, 80, 77
2, 37200, Note_on_c, 0, 78, 64
2, 37320, Note_off_c, 0, 78, 66
2, 37320, Note_on_c, 0, 77, 64
2, 37440, Note_off_c, 0, 77, 70
2, 37440, Note_on_c, 0, 75, 64
2, 37560, Note_off_c, 0, 75, 49
2, 37560, Note_on_c, 0, 73, 64
2, 37680, Note_off_c, 0, 73, 57
2, 37680, Note_on_c, 0, 71, 64
2, 37800, Note_off_c, 0, 71, 38
2, 37800, Note_on_c, 0, 70, 64
2, 37860, Note_off_c, 0, 70, 59
2, 37860, Note_on_c, 0, 71, 64
2, 37920, Note_off_c, 0, 71, 19
2, 37920, Note_on_c, 0, 70, 64
2, 38040, Note_off_c, 0, 70, 63
2, 38040, Note_on_c, 0, 72, 64
2, 38160, Note_off_c, 0, 72, 54
2, 38160, Note_on_c, 0, 74, 64
2, 38280, Note_off_c, 0, 74, 55
2, 38280, Note_on_c, 0, 75, 64
2, 38400, Note_off_c, 0, 75, 45
2, 38400, Note_on_c, 0, 77, 64
2, 38520, Note_off_c, 0, 77, 2
2, 38520, Note_on_c, 0, 70, 64
2, 38640, Note_off_c, 0, 70, 49
2, 38640, Note_on_c, 0, 82, 64
2, 38760, Note_off_c, 0, 82, 52
2, 38760, Note_on_c, 0, 80, 64
2, 38880, Note_off_c, 0, 80, 61
2, 38880, Note_on_c, 0, 78, 64
2, 39000, Note_off_c, 0, 78, 58
2, 39000, Note_on_c, 0, 80, 64
2, 39120, Note_off_c, 0, 80, 72
2, 39120, Note_on_c, 0, 82, 64
2, 39240, Note_off_c, 0, 82, 61
2, 39240, Note_on_c, 0, 83, 64
2, 39360, Note_off_c, 0, 83, 54
2, 39360, Note_on_c, 0, 77, 64
2, 39600, Note_off_c, 0, 77, 58
2, 39600, Note_on_c, 0, 79, 64
2, 39840, Note_off_c, 0, 79, 43
2, 39840, Note_on_c, 0, 80, 64
2, 39960, Note_off_c, 0, 80, 72
2, 39960, Note_on_c, 0, 78, 64
2, 40080, Note_off_c, 0, 78, 62
2, 40080, Note_on_c, 0, 77, 64
2, 40200, Note_off_c, 0, 77, 73
2, 40200, Note_on_c, 0, 75, 64
2, 40320, Note_off_c, 0, 75, 49
2, 40320, Note_on_c, 0, 74, 64
2, 40560, Note_off_c, 0, 74, 59
2, 40560, Note_on_c, 0, 75, 64
2, 40920, Note_off_c, 0, 75, 52
2, 40920, Note_on_c, 0, 73, 64
2, 41040, Note_off_c, 0, 73, 62
2, 41040, Note_on_c, 0, 71, 64
2, 41160, Note_off_c, 0, 71, 29
2, 41160, Note_on_c, 0, 70, 64
2, 41280, Note_off_c, 0, 70, 59
2, 41280, Note_on_c, 0, 71, 64
2, 41400, Note_off_c, 0, 71, 52
2, 41400, Note_on_c, 0, 70, 64
2, 41520, Note_off_c, 0, 70, 62
2, 41520, Note_on_c, 0, 68, 64
2, 41880, Note_off_c, 0, 68, 58
2, 41880, Note_on_c, 0, 66, 64
2, 41940, Note_off_c, 0, 66, 59
2, 41940, Note_on_c, 0, 65, 64
2, 42000, Note_off_c, 0, 65, 58
2, 42000, Note_on_c, 0, 66, 64
2, 42120, Note_off_c, 0, 66, 79
2, 42120, Note_on_c, 0, 68, 64
2, 42240, Note_off_c, 0, 68, 79
2, 42240, Note_on_c, 0, 70, 64
2, 42480, Note_off_c, 0, 70, 66
2, 42480, Note_on_c, 0, 63, 64
2, 42840, Note_off_c, 0, 63, 35
2, 42840, Note_on_c, 0, 62, 64
2, 42960, Note_off_c, 0, 62, 47
2, 42960, Note_on_c, 0, 63, 64
2, 43080, Note_off_c, 0, 63, 47
2, 43080, Note_on_c, 0, 65, 64
2, 43200, Note_off_c, 0, 65, 58
2, 43200, Note_on_c, 0, 66, 64
2, 43320, Note_off_c, 0, 66, 61
2, 43320, Note_on_c, 0, 65, 64
2, 43440, Note_off_c, 0, 65, 54
2, 43440, Note_on_c, 0, 63, 64
2, 43680, Note_off_c, 0, 63, 52
2, 43680, Note_on_c, 0, 70, 64
2, 43920, Note_off_c, 0, 70, 65
2, 43920, Note_on_c, 0, 63, 64
2, 44280, Note_off_c, 0, 63, 54
2, 44280, Note_on_c, 0, 65, 64
2, 44400, Note_off_c, 0, 65, 50
2, 44400, Note_on_c, 0, 67, 64
2, 44640, Note_off_c, 0, 67, 43
2, 44640, Note_on_c, 0, 68, 64
2, 44880, Note_off_c, 0, 68, 82
2, 44880, Note_on_c, 0, 80, 64
2, 45120, Note_off_c, 0, 80, 68
2, 45120, Note_on_c, 0, 75, 64
2, 45480, Note_off_c, 0, 75, 52
2, 45480, Note_on_c, 0, 73, 64
2, 45600, Note_off_c, 0, 73, 68
2, 45600, Note_on_c, 0, 75, 64
2, 45960, Note_off_c, 0, 75, 53
2, 45960, Note_on_c, 0, 77, 64
2, 46080, Note_off_c, 0, 77, 48
2, 46080, Note_on_c, 0, 78, 64
2, 46440, Note_off_c, 0, 78, 52
2, 46440, Note_on_c, 0, 77, 64
2, 46560, Note_off_c, 0, 77, 74
2, 46560, Note_on_c, 0, 75, 64
2, 46800, Note_off_c, 0, 75, 58
2, 46800, Note_on_c, 0, 82, 64
2, 47040, Note_off_c, 0, 82, 36
2, 47040, Note_on_c, 0, 75, 64
2, 47400, Note_off_c, 0, 75, 49
2, 47400, Note_on_c, 0, 75, 64
2, 47520, Note_off_c, 0, 75, 53
2, 47520, Note_on_c, 0, 74, 64
2, 47640, Note_off_c, 0, 74, 59
2, 47640, Note_on_c, 0, 75, 64
2, 47760, Note_off_c, 0, 75, 50
2, 47760, Note_on_c, 0, 77, 64
2, 47880, Note_off_c, 0, 77, 55
2, 47880, Note_on_c, 0, 74, 64
2, 48000, Note_off_c, 0, 74, 74
2, 48000, Note_on_c, 0, 75, 64
2, 48120, Note_off_c, 0, 75, 49
2, 48120, Note_on_c, 0, 77, 64
2, 48240, Note_off_c, 0, 77, 76
2, 48240, Note_on_c, 0, 78, 64
2, 48360, Note_off_c, 0, 78, 51
2, 48360, Note_on_c, 0, 80, 64
2, 48480, Note_off_c, 0, 80, 76
2, 48480, Note_on_c, 0, 82, 64
2, 48600, Note_off_c, 0, 82, 59
2, 48600, Note_on_c, 0, 70, 64
2, 48720, Note_off_c, 0, 70, 38
2, 48720, Note_on_c, 0, 75, 64
2, 48840, Note_off_c, 0, 75, 46
2, 48840, Note_on_c, 0, 77, 64
2, 48960, Note_off_c, 0, 77, 52
2, 48960, Note_on_c, 0, 74, 64
2, 49200, Note_off_c, 0, 74, 50
2, 49440, Note_on_c, 0, 70, 64
2, 49680, Note_off_c, 0, 70, 39
2, 49680, Note_on_c, 0, 75, 64
2, 50040, Note_off_c, 0, 75, 42
2, 50040, Note_on_c, 0, 76, 64
2, 50160, Note_off_c, 0, 76, 48
2, 50160, Note_on_c, 0, 75, 64
2, 50280, Note_off_c, 0, 75, 45
2, 50280, Note_on_c, 0, 73, 64
2, 50400, Note_off_c, 0, 73, 52
2, 50400, Note_on_c, 0, 71, 64
2, 50520, Note_off_c, 0, 71, 46
2, 50520, Note_on_c, 0, 73, 64
2, 50640, Note_off_c, 0, 73, 61
2, 50640, Note_on_c, 0, 75, 64
2, 50880, Note_off_c, 0, 75, 43
2, 50880, Note_on_c, 0, 68, 64
2, 51000, Note_off_c, 0, 68, 59
2, 51000, Note_on_c, 0, 70, 64
2, 51060, Note_off_c, 0, 70, 62
2, 51060, Note_on_c, 0, 71, 64
2, 51120, Note_off_c, 0, 71, 55
2, 51120, Note_on_c, 0, 70, 64
2, 51240, Note_off_c, 0, 70, 59
2, 51240, Note_on_c, 0, 71, 64
2, 51360, Note_off_c, 0, 71, 74
2, 51360, Note_on_c, 0, 73, 64
2, 51600, Note_off_c, 0, 73, 65
2, 51600, Note_on_c, 0, 66, 64
2, 51960, Note_off_c, 0, 66, 51
2, 51960, Note_on_c, 0, 65, 64
2, 52080, Note_off_c, 0, 65, 4
2, 52080, Note_on_c, 0, 66, 64
2, 52200, Note_off_c, 0, 66, 65
2, 52200, Note_on_c, 0, 68, 64
2, 52320, Note_off_c, 0, 68, 65
2, 52320, Note_on_c, 0, 70, 64
2, 52440, Note_off_c, 0, 70, 66
2, 52440, Note_on_c, 0, 68, 64
2, 52560, Note_off_c, 0, 68, 74
2, 52560, Note_on_c, 0, 66, 64
2, 52800, Note_off_c, 0, 66, 76
2, 52800, Note_on_c, 0, 76, 64
2, 53280, Note_off_c, 0, 76, 23
2, 53400, Note_on_c, 0, 74, 64
2, 53520, Note_off_c, 0, 74, 58
2, 53520, Note_on_c, 0, 75, 64
2, 53880, Note_off_c, 0, 75, 46
2, 53880, Note_on_c, 0, 78, 64
2, 54000, Note_off_c, 0, 78, 57
2, 54000, Note_on_c, 0, 77, 64
2, 54120, Note_off_c, 0, 77, 63
2, 54120, Note_on_c, 0, 75, 64
2, 54240, Note_off_c, 0, 75, 45
2, 54240, Note_on_c, 0, 74, 64
2, 54360, Note_off_c, 0, 74, 48
2, 54360, Note_on_c, 0, 77, 64
2, 54480, Note_off_c, 0, 77, 59
2, 54480, Note_on_c, 0, 82, 64
2, 54840, Note_off_c, 0, 82, 68
2, 54840, Note_on_c, 0, 83, 64
2, 54960, Note_off_c, 0, 83, 39
2, 54960, Note_on_c, 0, 82, 64
2, 55080, Note_off_c, 0, 82, 46
2, 55080, Note_on_c, 0, 80, 64
2, 55200, Note_off_c, 0, 80, 63
2, 55200, Note_on_c, 0, 78, 64
2, 55320, Note_off_c, 0, 78, 55
2, 55320, Note_on_c, 0, 80, 64
2, 55440, Note_off_c, 0, 80, 62
2, 55440, Note_on_c, 0, 82, 64
2, 55680, Note_off_c, 0, 82, 52
2, 55680, Note_on_c, 0, 75, 64
2, 55920, Note_off_c, 0, 75, 43
2, 55920, Note_on_c, 0, 80, 64
2, 56280, Note_off_c, 0, 80, 55
2, 56280, Note_on_c, 0, 78, 64
2, 56400, Note_off_c, 0, 78, 62
2, 56400, Note_on_c, 0, 76, 64
2, 56640, Note_off_c, 0, 76, 17
2, 56640, Note_on_c, 0, 75, 64
2, 56880, Note_off_c, 0, 75, 52
2, 56880, Note_on_c, 0, 73, 64
2, 57120, Note_off_c, 0, 73, 58
2, 57120, Note_on_c, 0, 71, 64
2, 57360, Note_off_c, 0, 71, 47
2, 57360, Note_on_c, 0, 70, 64
2, 57600, Note_off_c, 0, 70, 69
2, 57600, Note_on_c, 0, 68, 64
2, 57840, Note_off_c, 0, 68, 62
2, 57840, Note_on_c, 0, 66, 64
2, 58080, Note_off_c, 0, 66, 54
2, 58080, Note_on_c, 0, 65, 64
2, 58320, Note_off_c, 0, 65, 34
2, 58440, Note_on_c, 0, 72, 64
2, 58560, Note_off_c, 0, 72, 80
2, 58560, Note_on_c, 0, 74, 64
2, 58680, Note_off_c, 0, 74, 69
2, 58680, Note_on_c, 0, 75, 64
2, 58800, Note_off_c, 0, 75, 47
2, 58800, Note_on_c, 0, 77, 64
2, 59160, Note_off_c, 0, 77, 55
2, 59160, Note_on_c, 0, 75, 64
2, 59280, Note_off_c, 0, 75, 52
2, 59280, Note_on_c, 0, 73, 64
2, 59340, Note_off_c, 0, 73, 61
2, 59340, Note_on_c, 0, 71, 64
2, 59400, Note_off_c, 0, 71, 49
2, 59400, Note_on_c, 0, 73, 64
2, 59460, Note_off_c, 0, 73, 55
2, 59460, Note_on_c, 0, 79, 64
2, 59520, Note_off_c, 0, 79, 48
2, 59520, Note_on_c, 0, 80, 64
2, 59580, Note_off_c, 0, 80, 52
2, 59580, Note_on_c, 0, 82, 64
2, 59640, Note_off_c, 0, 82, 41
2, 59640, Note_on_c, 0, 83, 64
2, 59880, Note_off_c, 0, 83, 58
2, 59880, Note_on_c, 0, 82, 64
2, 59940, Note_off_c, 0, 82, 59
2, 59940, Note_on_c, 0, 80, 64
2, 60000, Note_off_c, 0, 80, 57
2, 60000, Note_on_c, 0, 82, 64
2, 60120, Note_off_c, 0, 82, 68
2, 60120, Note_on_c, 0, 75, 64
2, 60240, Note_off_c, 0, 75, 17
2, 60240, Note_on_c, 0, 77, 64
2, 60360, Note_off_c, 0, 77, 50
2, 60360, Note_on_c, 0, 79, 64
2, 60480, Note_off_c, 0, 79, 13
2, 60480, Note_on_c, 0, 80, 64
2, 60720, Note_off_c, 0, 80, 69
2, 60960, Note_on_c, 0, 82, 64
2, 61200, Note_off_c, 0, 82, 47
2, 61200, Note_on_c, 0, 75, 64
2, 61560, Note_off_c, 0, 75, 52
2, 61560, Note_on_c, 0, 72, 64
2, 61680, Note_off_c, 0, 72, 58
2, 61680, Note_on_c, 0, 73, 64
2, 61800, Note_off_c, 0, 73, 55
2, 61800, Note_on_c, 0, 75, 64
2, 61920, Note_off_c, 0, 75, 45
2, 61920, Note_on_c, 0, 76, 64
2, 62040, Note_off_c, 0, 76, 48
2, 62040, Note_on_c, 0, 75, 64
2, 62160, Note_off_c, 0, 75, 51
2, 62160, Note_on_c, 0, 73, 64
2, 62400, Note_off_c, 0, 73, 57
2, 62400, Note_on_c, 0, 80, 64
2, 62640, Note_off_c, 0, 80, 74
2, 62640, Note_on_c, 0, 75, 64
2, 63000, Note_off_c, 0, 75, 32
2, 63000, Note_on_c, 0, 77, 64
2, 63120, Note_off_c, 0, 77, 52
2, 63120, Note_on_c, 0, 79, 64
2, 63360, Note_off_c, 0, 79, 43
2, 63360, Note_on_c, 0, 80, 64
2, 63480, Note_off_c, 0, 80, 62
2, 63480, Note_on_c, 0, 82, 64
2, 63600, Note_off_c, 0, 82, 57
2, 63600, Note_on_c, 0, 80, 64
2, 63720, Note_off_c, 0, 80, 77
2, 63720, Note_on_c, 0, 78, 64
2, 63840, Note_off_c, 0, 78, 63
2, 63840, Note_on_c, 0, 77, 64
2, 63960, Note_off_c, 0, 77, 72
2, 63960, Note_on_c, 0, 78, 64
2, 64080, Note_off_c, 0, 78, 58
2, 64080, Note_on_c, 0, 80, 64
2, 64440, Note_off_c, 0, 80, 53
2, 64440, Note_on_c, 0, 78, 64
2, 64560, Note_off_c, 0, 78, 61
2, 64560, Note_on_c, 0, 77, 64
2, 64680, Note_off_c, 0, 77, 54
2, 64680, Note_on_c, 0, 78, 64
2, 64740, Note_off_c, 0, 78, 49
2, 64740, Note_on_c, 0, 80, 64
2, 64800, Note_off_c, 0, 80, 55
2, 64800, Note_on_c, 0, 82, 64
2, 64860, Note_off_c, 0, 82, 58
2, 64860, Note_on_c, 0, 80, 64
2, 64920, Note_off_c, 0, 80, 68
2, 64920, Note_on_c, 0, 82, 64
2, 65160, Note_off_c, 0, 82, 59
2, 65160, Note_on_c, 0, 80, 64
2, 65220, Note_off_c, 0, 80, 66
2, 65220, Note_on_c, 0, 78, 64
2, 65280, Note_off_c, 0, 78, 59
2, 65280, Note_on_c, 0, 77, 64
2, 65400, Note_off_c, 0, 77, 36
2, 65400, Note_on_c, 0, 78, 64
2, 65640, Note_off_c, 0, 78, 63
2, 65640, Note_on_c, 0, 77, 64
2, 65760, Note_off_c, 0, 77, 53
2, 65760, Note_on_c, 0, 78, 64
2, 65880, Note_off_c, 0, 78, 69
2, 65880, Note_on_c, 0, 73, 64
2, 66000, Note_off_c, 0, 73, 27
2, 66000, Note_on_c, 0, 78, 64
2, 66360, Note_off_c, 0, 78, 57
2, 66360, Note_on_c, 0, 80, 64
2, 66480, Note_off_c, 0, 80, 61
2, 66480, Note_on_c, 0, 78, 64
2, 66600, Note_off_c, 0, 78, 52
2, 66600, Note_on_c, 0, 76, 64
2, 66720, Note_off_c, 0, 76, 35
2, 66720, Note_on_c, 0, 75, 64
2, 66840, Note_off_c, 0, 75, 27
2, 66840, Note_on_c, 0, 76, 64
2, 66960, Note_off_c, 0, 76, 41
2, 66960, Note_on_c, 0, 78, 64
2, 67200, Note_off_c, 0, 78, 49
2, 67440, Note_on_c, 0, 76, 64
2, 67800, Note_off_c, 0, 76, 29
2, 67800, Note_on_c, 0, 75, 64
2, 67920, Note_off_c, 0, 75, 46
2, 67920, Note_on_c, 0, 73, 64
2, 68160, Note_off_c, 0, 73, 57
2, 68160, Note_on_c, 0, 71, 64
2, 68400, Note_off_c, 0, 71, 57
2, 68400, Note_on_c, 0, 76, 64
2, 68760, Note_off_c, 0, 76, 52
2, 68760, Note_on_c, 0, 74, 64
2, 68880, Note_off_c, 0, 74, 55
2, 68880, Note_on_c, 0, 75, 64
2, 69360, Note_off_c, 0, 75, 49
2, 69360, Note_on_c, 0, 80, 64
2, 69720, Note_off_c, 0, 80, 72
2, 69720, Note_on_c, 0, 80, 64
2, 69840, Note_off_c, 0, 80, 62
2, 69840, Note_on_c, 0, 79, 64
2, 69960, Note_off_c, 0, 79, 62
2, 69960, Note_on_c, 0, 78, 64
2, 70200, Note_off_c, 0, 78, 61
2, 70200, Note_on_c, 0, 78, 64
2, 70320, Note_off_c, 0, 78, 45
2, 70320, Note_on_c, 0, 77, 64
2, 70440, Note_off_c, 0, 77, 59
2, 70440, Note_on_c, 0, 76, 64
2, 70560, Note_off_c, 0, 76, 47
2, 70560, Note_on_c, 0, 75, 64
2, 70800, Note_off_c, 0, 75, 39
2, 70800, Note_on_c, 0, 73, 64
2, 71040, Note_off_c, 0, 73, 58
2, 71040, Note_on_c, 0, 71, 64
2, 71400, Note_off_c, 0, 71, 62
2, 71400, Note_on_c, 0, 71, 64
2, 71520, Note_off_c, 0, 71, 43
2, 71520, Note_on_c, 0, 70, 64
2, 71880, Note_off_c, 0, 70, 55
2, 71880, Note_on_c, 0, 78, 64
2, 72000, Note_off_c, 0, 78, 54
2, 72000, Note_on_c, 0, 68, 64
2, 72600, Note_off_c, 0, 68, 44
2, 72600, Note_on_c, 0, 66, 64
2, 72660, Note_off_c, 0, 66, 52
2, 72660, Note_on_c, 0, 65, 64
2, 72720, Note_off_c, 0, 65, 35
2, 72720, Note_on_c, 0, 66, 64
2, 72840, Note_off_c, 0, 66, 66
2, 72840, Note_on_c, 0, 68, 64
2, 72960, Note_off_c, 0, 68, 61
2, 72960, Note_on_c, 0, 70, 64
2, 73200, Note_off_c, 0, 70, 49
2, 73440, Note_on_c, 0, 77, 64
2, 73920, Note_off_c, 0, 77, 23
2, 73920, Note_on_c, 0, 82, 64
2, 74640, Note_off_c, 0, 82, 53
2, 74640, Note_on_c, 0, 83, 64
2, 74880, Note_off_c, 0, 83, 48
2, 74880, Note_on_c, 0, 82, 64
2, 75120, Note_off_c, 0, 82, 55
2, 75120, Note_on_c, 0, 80, 64
2, 75360, Note_off_c, 0, 80, 73
2, 75360, Note_on_c, 0, 78, 64
2, 75600, Note_off_c, 0, 78, 43
2, 75600, Note_on_c, 0, 80, 64
2, 75840, Note_off_c, 0, 80, 59
2, 75840, Note_on_c, 0, 82, 64
2, 76320, Note_off_c, 0, 82, 63
2, 76320, Note_on_c, 0, 75, 64
2, 76800, Note_off_c, 0, 75, 40
2, 76800, Note_on_c, 0, 80, 64
2, 77520, Note_off_c, 0, 80, 68
2, 77520, Note_on_c, 0, 78, 64
2, 77760, Note_off_c, 0, 78, 62
2, 77760, Note_on_c, 0, 76, 64
2, 78240, Note_off_c, 0, 76, 50
2, 78240, Note_on_c, 0, 75, 64
2, 78720, Note_off_c, 0, 75, 52
2, 78840, Note_on_c, 0, 71, 64
2, 78960, Note_off_c, 0, 71, 73
2, 78960, Note_on_c, 0, 68, 64
2, 79320, Note_off_c, 0, 68, 61
2, 79320, Note_on_c, 0, 70, 64
2, 79440, Note_off_c, 0, 70, 50
2, 79440, Note_on_c, 0, 71, 64
2, 79800, Note_off_c, 0, 71, 72
2, 79800, Note_on_c, 0, 68, 64
2, 79920, Note_off_c, 0, 68, 58
2, 79920, Note_on_c, 0, 65, 64
2, 80280, Note_off_c, 0, 65, 48
2, 80280, Note_on_c, 0, 66, 64
2, 80400, Note_off_c, 0, 66, 65
2, 80400, Note_on_c, 0, 68, 64
2, 80760, Note_off_c, 0, 68, 66
2, 80760, Note_on_c, 0, 65, 64
2, 80880, Note_off_c, 0, 65, 49
2, 80880, Note_on_c, 0, 62, 64
2, 81240, Note_off_c, 0, 62, 41
2, 81240, Note_on_c, 0, 62, 64
2, 81360, Note_off_c, 0, 62, 23
2, 81360, Note_on_c, 0, 63, 64
2, 81480, Note_off_c, 0, 63, 46
2, 81480, Note_on_c, 0, 65, 64
2, 81600, Note_off_c, 0, 65, 40
2, 81600, Note_on_c, 0, 66, 64
2, 81720, Note_off_c, 0, 66, 72
2, 81720, Note_on_c, 0, 67, 64
2, 81840, Note_off_c, 0, 67, 49
2, 81840, Note_on_c, 0, 68, 64
2, 81960, Note_off_c, 0, 68, 62
2, 81960, Note_on_c, 0, 70, 64
2, 82080, Note_off_c, 0, 70, 77
2, 82080, Note_on_c, 0, 71, 64
2, 82200, Note_off_c, 0, 71, 79
2, 82200, Note_on_c, 0, 72, 64
2, 82320, Note_off_c, 0, 72, 72
2, 82320, Note_on_c, 0, 74, 64
2, 82440, Note_off_c, 0, 74, 73
2, 82440, Note_on_c, 0, 75, 64
2, 82560, Note_off_c, 0, 75, 44
2, 82560, Note_on_c, 0, 75, 64
2, 82800, Note_off_c, 0, 75, 49
2, 82800, Note_on_c, 0, 74, 64
2, 83040, Note_off_c, 0, 74, 68
2, 83040, Note_on_c, 0, 75, 64
2, 83520, Note_off_c, 0, 75, 68
2, 83520, End_track
3, 0, Start_track
3, 0, Text_t, "RH L /LH H\000\221?"
3, 64, Note_off_c, 1, 112, 129
3, 127, Note_off_c, 1, 34, 0
3, 2373, Note_off_c, 1, 64, 130
3, 2477, Note_off_c, 1, 70, 70
3, 2477, Note_on_c, 1, 71, 64
3, 2597, Note_off_c, 1, 71, 74
3, 2597, Note_on_c, 1, 70, 64
3, 2717, Note_off_c, 1, 70, 61
3, 2717, Note_on_c, 1, 68, 64
3, 2837, Note_off_c, 1, 68, 77
3, 2837, Note_on_c, 1, 66, 64
3, 2957, Note_off_c, 1, 66, 63
3, 2957, Note_on_c, 1, 68, 64
3, 3077, Note_off_c, 1, 68, 72
3, 3077, Note_on_c, 1, 70, 64
3, 3317, Note_off_c, 1, 70, 43
3, 3317, Note_on_c, 1, 63, 64
3, 3557, Note_off_c, 1, 63, 42
3, 3557, Note_on_c, 1, 68, 64
3, 3917, Note_off_c, 1, 68, 49
3, 3917, Note_on_c, 1, 66, 64
3, 4037, Note_off_c, 1, 66, 58
3, 4037, Note_on_c, 1, 65, 64
3, 4277, Note_off_c, 1, 65, 43
3, 4277, Note_on_c, 1, 63, 64
3, 4637, Note_off_c, 1, 63, 43
3, 4637, Note_on_c, 1, 65, 64
3, 4757, Note_off_c, 1, 65, 1
3, 4757, Note_on_c, 1, 66, 64
3, 4997, Note_off_c, 1, 66, 62
3, 4997, Note_on_c, 1, 68, 64
3, 5237, Note_off_c, 1, 68, 61
3, 5237, Note_on_c, 1, 70, 64
3, 5597, Note_off_c, 1, 70, 65
3, 5597, Note_on_c, 1, 68, 64
3, 5717, Note_off_c, 1, 68, 63
3, 5717, Note_on_c, 1, 66, 64
3, 5837, Note_off_c, 1, 66, 63
3, 5837, Note_on_c, 1, 65, 64
3, 5957, Note_off_c, 1, 65, 52
3, 5957, Note_on_c, 1, 66, 64
3, 6077, Note_off_c, 1, 66, 52
3, 6077, Note_on_c, 1, 65, 64
3, 6137, Note_off_c, 1, 65, 63
3, 6137, Note_on_c, 1, 63, 64
3, 6197, Note_off_c, 1, 63, 46
3, 6197, Note_on_c, 1, 65, 64
3, 6317, Note_off_c, 1, 65, 49
3, 6317, Note_on_c, 1, 70, 64
3, 6557, Note_off_c, 1, 70, 65
3, 6557, Note_on_c, 1, 69, 64
3, 6677, Note_off_c, 1, 69, 72
3, 6677, Note_on_c, 1, 70, 64
3, 7037, Note_off_c, 1, 70, 58
3, 7037, Note_on_c, 1, 68, 64
3, 7157, Note_off_c, 1, 68, 62
3, 7157, Note_on_c, 1, 67, 64
3, 7277, Note_off_c, 1, 67, 27
3, 7277, Note_on_c, 1, 63, 64
3, 7397, Note_off_c, 1, 63, 40
3, 7397, Note_on_c, 1, 68, 64
3, 7757, Note_off_c, 1, 68, 62
3, 7757, Note_on_c, 1, 66, 64
3, 7877, Note_off_c, 1, 66, 61
3, 7877, Note_on_c, 1, 65, 64
3, 7997, Note_off_c, 1, 65, 54
3, 7997, Note_on_c, 1, 63, 64
3, 8117, Note_off_c, 1, 63, 47
3, 8117, Note_on_c, 1, 65, 64
3, 8357, Note_off_c, 1, 65, 52
3, 8357, Note_on_c, 1, 66, 64
3, 8477, Note_off_c, 1, 66, 72
3, 8477, Note_on_c, 1, 68, 64
3, 8597, Note_off_c, 1, 68, 83
3, 8597, Note_on_c, 1, 70, 64
3, 8717, Note_off_c, 1, 70, 55
3, 8717, Note_on_c, 1, 72, 64
3, 8837, Note_off_c, 1, 72, 82
3, 8837, Note_on_c, 1, 74, 64
3, 8957, Note_off_c, 1, 74, 63
3, 8957, Note_on_c, 1, 75, 64
3, 9077, Note_off_c, 1, 75, 47
3, 9077, Note_on_c, 1, 77, 64
3, 9197, Note_off_c, 1, 77, 55
3, 9197, Note_on_c, 1, 74, 64
3, 9317, Note_off_c, 1, 74, 70
3, 9317, Note_on_c, 1, 75, 64
3, 9437, Note_off_c, 1, 75, 51
3, 9437, Note_on_c, 1, 77, 64
3, 9557, Note_off_c, 1, 77, 54
3, 9557, Note_on_c, 1, 78, 64
3, 9677, Note_off_c, 1, 78, 55
3, 9677, Note_on_c, 1, 77, 64
3, 9797, Note_off_c, 1, 77, 72
3, 9797, Note_on_c, 1, 75, 64
3, 9917, Note_off_c, 1, 75, 47
3, 9917, Note_on_c, 1, 74, 64
3, 10037, Note_off_c, 1, 74, 61
3, 10037, Note_on_c, 1, 75, 64
3, 10157, Note_off_c, 1, 75, 47
3, 10157, Note_on_c, 1, 73, 64
3, 10277, Note_off_c, 1, 73, 59
3, 10277, Note_on_c, 1, 71, 64
3, 10517, Note_off_c, 1, 71, 72
3, 10517, Note_on_c, 1, 70, 64
3, 10757, Note_off_c, 1, 70, 74
3, 10757, Note_on_c, 1, 68, 64
3, 10997, Note_off_c, 1, 68, 72
3, 10997, Note_on_c, 1, 66, 64
3, 11237, Note_off_c, 1, 66, 66
3, 11237, Note_on_c, 1, 68, 64
3, 11357, Note_off_c, 1, 68, 70
3, 11357, Note_on_c, 1, 66, 64
3, 11477, Note_off_c, 1, 66, 49
3, 11477, Note_on_c, 1, 65, 64
3, 11837, Note_off_c, 1, 65, 28
3, 11837, Note_on_c, 1, 63, 64
3, 11897, Note_off_c, 1, 63, 50
3, 11897, Note_on_c, 1, 65, 64
3, 11957, Note_off_c, 1, 65, 61
3, 11957, Note_on_c, 1, 66, 64
3, 12077, Note_off_c, 1, 66, 73
3, 12077, Note_on_c, 1, 68, 64
3, 12137, Note_off_c, 1, 68, 73
3, 12137, Note_on_c, 1, 70, 64
3, 12197, Note_off_c, 1, 70, 57
3, 12197, Note_on_c, 1, 68, 64
3, 12377, Note_off_c, 1, 68, 62
3, 12377, Note_on_c, 1, 66, 64
3, 12407, Note_off_c, 1, 66, 62
3, 12407, Note_on_c, 1, 68, 64
3, 12437, Note_off_c, 1, 68, 65
3, 12437, Note_on_c, 1, 70, 64
3, 12557, Note_off_c, 1, 70, 76
3, 12557, Note_on_c, 1, 68, 64
3, 12677, Note_off_c, 1, 68, 69
3, 12677, Note_on_c, 1, 66, 64
3, 12797, Note_off_c, 1, 66, 51
3, 12797, Note_on_c, 1, 65, 64
3, 12917, Note_off_c, 1, 65, 49
3, 12917, Note_on_c, 1, 63, 64
3, 13157, Note_off_c, 1, 63, 46
3, 13157, Note_on_c, 1, 62, 64
3, 13277, Note_off_c, 1, 62, 30
3, 13277, Note_on_c, 1, 63, 64
3, 13397, Note_off_c, 1, 63, 48
3, 13517, Note_on_c, 1, 63, 64
3, 13637, Note_off_c, 1, 63, 55
3, 13637, Note_on_c, 1, 62, 64
3, 13757, Note_off_c, 1, 62, 47
3, 13757, Note_on_c, 1, 60, 64
3, 13877, Note_off_c, 1, 60, 34
3, 13877, Note_on_c, 1, 62, 64
3, 14117, Note_off_c, 1, 62, 49
3, 14117, Note_on_c, 1, 63, 64
3, 14237, Note_off_c, 1, 63, 43
3, 14237, Note_on_c, 1, 65, 64
3, 14357, Note_off_c, 1, 65, 27
3, 14357, Note_on_c, 1, 66, 64
3, 14597, Note_off_c, 1, 66, 69
3, 14597, Note_on_c, 1, 68, 64
3, 14717, Note_off_c, 1, 68, 72
3, 14717, Note_on_c, 1, 66, 64
3, 14837, Note_off_c, 1, 66, 68
3, 14837, Note_on_c, 1, 65, 64
3, 14957, Note_off_c, 1, 65, 58
3, 14957, Note_on_c, 1, 61, 64
3, 15077, Note_off_c, 1, 61, 65
3, 15077, Note_on_c, 1, 66, 64
3, 15557, Note_off_c, 1, 66, 66
3, 15557, Note_on_c, 1, 65, 64
3, 16037, Note_off_c, 1, 65, 55
3, 16037, Note_on_c, 1, 63, 64
3, 16277, Note_off_c, 1, 63, 46
3, 16277, Note_on_c, 1, 61, 64
3, 16397, Note_off_c, 1, 61, 46
3, 16397, Note_on_c, 1, 65, 64
3, 16517, Note_off_c, 1, 65, 47
3, 16517, Note_on_c, 1, 66, 64
3, 16637, Note_off_c, 1, 66, 63
3, 16637, Note_on_c, 1, 68, 64
3, 16757, Note_off_c, 1, 68, 77
3, 16757, Note_on_c, 1, 70, 64
3, 16877, Note_off_c, 1, 70, 62
3, 16877, Note_on_c, 1, 71, 64
3, 16997, Note_off_c, 1, 71, 69
3, 16997, Note_on_c, 1, 73, 64
3, 17117, Note_off_c, 1, 73, 49
3, 17117, Note_on_c, 1, 71, 64
3, 17237, Note_off_c, 1, 71, 77
3, 17237, Note_on_c, 1, 70, 64
3, 17357, Note_off_c, 1, 70, 72
3, 17357, Note_on_c, 1, 68, 64
3, 17477, Note_off_c, 1, 68, 58
3, 17477, Note_on_c, 1, 66, 64
3, 17597, Note_off_c, 1, 66, 69
3, 17597, Note_on_c, 1, 65, 64
3, 17717, Note_off_c, 1, 65, 52
3, 17717, Note_on_c, 1, 63, 64
3, 17837, Note_off_c, 1, 63, 37
3, 17837, Note_on_c, 1, 65, 64
3, 17957, Note_off_c, 1, 65, 48
3, 17957, Note_on_c, 1, 66, 64
3, 18077, Note_off_c, 1, 66, 52
3, 18077, Note_on_c, 1, 70, 64
3, 18197, Note_off_c, 1, 70, 69
3, 18197, Note_on_c, 1, 75, 64
3, 18317, Note_off_c, 1, 75, 52
3, 18317, Note_on_c, 1, 73, 64
3, 18437, Note_off_c, 1, 73, 65
3, 18437, Note_on_c, 1, 72, 64
3, 18917, Note_off_c, 1, 72, 63
3, 18917, Note_on_c, 1, 70, 64
3, 19397, Note_off_c, 1, 70, 51
3, 19397, Note_on_c, 1, 69, 64
3, 19637, Note_off_c, 1, 69, 35
3, 19637, Note_on_c, 1, 58, 64
3, 19877, Note_off_c, 1, 58, 37
3, 19877, Note_on_c, 1, 65, 64
3, 20237, Note_off_c, 1, 65, 47
3, 20237, Note_on_c, 1, 66, 64
3, 20357, Note_off_c, 1, 66, 66
3, 20357, Note_on_c, 1, 65, 64
3, 20477, Note_off_c, 1, 65, 53
3, 20477, Note_on_c, 1, 63, 64
3, 20597, Note_off_c, 1, 63, 52
3, 20597, Note_on_c, 1, 61, 64
3, 20717, Note_off_c, 1, 61, 58
3, 20717, Note_on_c, 1, 63, 64
3, 20837, Note_off_c, 1, 63, 47
3, 20837, Note_on_c, 1, 65, 64
3, 21077, Note_off_c, 1, 65, 58
3, 21077, Note_on_c, 1, 58, 64
3, 21317, Note_off_c, 1, 58, 40
3, 21437, Note_on_c, 1, 63, 64
3, 21677, Note_off_c, 1, 63, 48
3, 21677, Note_on_c, 1, 61, 64
3, 21797, Note_off_c, 1, 61, 51
3, 21797, Note_on_c, 1, 60, 64
3, 22037, Note_off_c, 1, 60, 42
3, 22037, Note_on_c, 1, 58, 64
3, 22277, Note_off_c, 1, 58, 54
3, 22397, Note_on_c, 1, 68, 64
3, 22637, Note_off_c, 1, 68, 2
3, 22637, Note_on_c, 1, 66, 64
3, 22757, Note_off_c, 1, 66, 52
3, 22757, Note_on_c, 1, 65, 64
3, 22997, Note_off_c, 1, 65, 42
3, 22997, Note_on_c, 1, 63, 64
3, 23237, Note_off_c, 1, 63, 33
3, 23357, Note_on_c, 1, 61, 64
3, 23477, Note_off_c, 1, 61, 68
3, 23477, Note_on_c, 1, 70, 64
3, 23597, Note_off_c, 1, 70, 69
3, 23597, Note_on_c, 1, 69, 64
3, 23717, Note_off_c, 1, 69, 66
3, 23717, Note_on_c, 1, 70, 64
3, 23957, Note_off_c, 1, 70, 66
3, 23957, Note_on_c, 1, 69, 64
3, 24197, Note_off_c, 1, 69, 74
3, 24197, Note_on_c, 1, 70, 64
3, 24437, Note_off_c, 1, 70, 53
3, 24437, Note_on_c, 1, 75, 64
3, 24797, Note_off_c, 1, 75, 38
3, 24797, Note_on_c, 1, 77, 64
3, 24917, Note_off_c, 1, 77, 45
3, 24917, Note_on_c, 1, 75, 64
3, 25277, Note_off_c, 1, 75, 43
3, 25277, Note_on_c, 1, 73, 64
3, 25397, Note_off_c, 1, 73, 58
3, 25397, Note_on_c, 1, 72, 64
3, 25757, Note_off_c, 1, 72, 65
3, 25757, Note_on_c, 1, 73, 64
3, 25877, Note_off_c, 1, 73, 50
3, 25877, Note_on_c, 1, 75, 64
3, 26117, Note_off_c, 1, 75, 50
3, 26117, Note_on_c, 1, 68, 64
3, 26357, Note_off_c, 1, 68, 24
3, 26357, Note_on_c, 1, 73, 64
3, 26837, Note_off_c, 1, 73, 43
3, 26837, Note_on_c, 1, 72, 64
3, 27077, Note_off_c, 1, 72, 72
3, 27317, Note_on_c, 1, 68, 64
3, 27557, Note_off_c, 1, 68, 43
3, 27557, Note_on_c, 1, 73, 64
3, 27917, Note_off_c, 1, 73, 54
3, 27917, Note_on_c, 1, 75, 64
3, 28037, Note_off_c, 1, 75, 51
3, 28037, Note_on_c, 1, 73, 64
3, 28157, Note_off_c, 1, 73, 54
3, 28157, Note_on_c, 1, 71, 64
3, 28277, Note_off_c, 1, 71, 59
3, 28277, Note_on_c, 1, 70, 64
3, 28397, Note_off_c, 1, 70, 46
3, 28397, Note_on_c, 1, 71, 64
3, 28517, Note_off_c, 1, 71, 61
3, 28517, Note_on_c, 1, 73, 64
3, 28757, Note_off_c, 1, 73, 59
3, 28757, Note_on_c, 1, 66, 64
3, 28997, Note_off_c, 1, 66, 40
3, 28997, Note_on_c, 1, 71, 64
3, 29357, Note_off_c, 1, 71, 59
3, 29357, Note_on_c, 1, 70, 64
3, 29477, Note_off_c, 1, 70, 65
3, 29477, Note_on_c, 1, 68, 64
3, 29717, Note_off_c, 1, 68, 59
3, 29717, Note_on_c, 1, 66, 64
3, 29837, Note_off_c, 1, 66, 55
3, 29837, Note_on_c, 1, 65, 64
3, 29957, Note_off_c, 1, 65, 33
3, 29957, Note_on_c, 1, 66, 64
3, 30077, Note_off_c, 1, 66, 68
3, 30077, Note_on_c, 1, 68, 64
3, 30197, Note_off_c, 1, 68, 73
3, 30197, Note_on_c, 1, 70, 64
3, 30317, Note_off_c, 1, 70, 70
3, 30317, Note_on_c, 1, 68, 64
3, 30437, Note_off_c, 1, 68, 62
3, 30437, Note_on_c, 1, 70, 64
3, 30557, Note_off_c, 1, 70, 54
3, 30557, Note_on_c, 1, 72, 64
3, 30677, Note_off_c, 1, 72, 83
3, 30677, Note_on_c, 1, 73, 64
3, 30797, Note_off_c, 1, 73, 57
3, 30797, Note_on_c, 1, 71, 64
3, 31037, Note_off_c, 1, 71, 77
3, 31037, Note_on_c, 1, 70, 64
3, 31157, Note_off_c, 1, 70, 59
3, 31157, Note_on_c, 1, 71, 64
3, 31277, Note_off_c, 1, 71, 14
3, 31277, Note_on_c, 1, 70, 64
3, 31397, Note_off_c, 1, 70, 51
3, 31397, Note_on_c, 1, 68, 64
3, 31517, Note_off_c, 1, 68, 55
3, 31517, Note_on_c, 1, 71, 64
3, 31637, Note_off_c, 1, 71, 49
3, 31637, Note_on_c, 1, 70, 64
3, 32117, Note_off_c, 1, 70, 38
3, 32237, Note_on_c, 1, 72, 64
3, 32357, Note_off_c, 1, 72, 36
3, 32357, Note_on_c, 1, 73, 64
3, 32477, Note_off_c, 1, 73, 54
3, 32477, Note_on_c, 1, 75, 64
3, 32597, Note_off_c, 1, 75, 40
3, 32597, Note_on_c, 1, 68, 64
3, 32837, Note_off_c, 1, 68, 40
3, 32837, Note_on_c, 1, 70, 64
3, 33197, Note_off_c, 1, 70, 66
3, 33197, Note_on_c, 1, 68, 64
3, 33317, Note_off_c, 1, 68, 61
3, 33317, Note_on_c, 1, 66, 64
3, 33437, Note_off_c, 1, 66, 55
3, 33437, Note_on_c, 1, 65, 64
3, 33557, Note_off_c, 1, 65, 13
3, 33557, Note_on_c, 1, 63, 64
3, 33677, Note_off_c, 1, 63, 41
3, 33677, Note_on_c, 1, 66, 64
3, 33797, Note_off_c, 1, 66, 65
3, 33797, Note_on_c, 1, 71, 64
3, 34157, Note_off_c, 1, 71, 57
3, 34157, Note_on_c, 1, 70, 64
3, 34277, Note_off_c, 1, 70, 63
3, 34277, Note_on_c, 1, 68, 64
3, 34397, Note_off_c, 1, 68, 70
3, 34397, Note_on_c, 1, 67, 64
3, 34517, Note_off_c, 1, 67, 14
3, 34517, Note_on_c, 1, 68, 64
3, 35237, Note_off_c, 1, 68, 63
3, 35237, Note_on_c, 1, 67, 64
3, 35477, Note_off_c, 1, 67, 38
3, 35477, Note_on_c, 1, 68, 64
3, 35717, Note_off_c, 1, 68, 55
3, 35717, Note_on_c, 1, 63, 64
3, 36077, Note_off_c, 1, 63, 29
3, 36077, Note_on_c, 1, 62, 64
3, 36197, Note_off_c, 1, 62, 19
3, 36197, Note_on_c, 1, 63, 64
3, 36317, Note_off_c, 1, 63, 49
3, 36317, Note_on_c, 1, 65, 64
3, 36437, Note_off_c, 1, 65, 32
3, 36437, Note_on_c, 1, 66, 64
3, 36557, Note_off_c, 1, 66, 53
3, 36557, Note_on_c, 1, 65, 64
3, 36677, Note_off_c, 1, 65, 24
3, 36677, Note_on_c, 1, 63, 64
3, 36917, Note_off_c, 1, 63, 51
3, 36917, Note_on_c, 1, 70, 64
3, 37157, Note_off_c, 1, 70, 74
3, 37157, Note_on_c, 1, 63, 64
3, 37517, Note_off_c, 1, 63, 49
3, 37517, Note_on_c, 1, 65, 64
3, 37637, Note_off_c, 1, 65, 36
3, 37637, Note_on_c, 1, 66, 64
3, 37877, Note_off_c, 1, 66, 65
3, 37877, Note_on_c, 1, 68, 64
3, 38357, Note_off_c, 1, 68, 73
3, 38357, Note_on_c, 1, 66, 64
3, 38477, Note_off_c, 1, 66, 63
3, 38477, Note_on_c, 1, 68, 64
3, 38597, Note_off_c, 1, 68, 70
3, 38597, Note_on_c, 1, 70, 64
3, 38717, Note_off_c, 1, 70, 69
3, 38717, Note_on_c, 1, 72, 64
3, 38837, Note_off_c, 1, 72, 59
3, 38837, Note_on_c, 1, 74, 64
3, 38957, Note_off_c, 1, 74, 62
3, 38957, Note_on_c, 1, 58, 64
3, 39077, Note_off_c, 1, 58, 42
3, 39077, Note_on_c, 1, 60, 64
3, 39197, Note_off_c, 1, 60, 49
3, 39197, Note_on_c, 1, 62, 64
3, 39317, Note_off_c, 1, 62, 48
3, 39317, Note_on_c, 1, 63, 64
3, 39677, Note_off_c, 1, 63, 44
3, 39677, Note_on_c, 1, 65, 64
3, 39797, Note_off_c, 1, 65, 49
3, 39797, Note_on_c, 1, 66, 64
3, 40037, Note_off_c, 1, 66, 68
3, 40037, Note_on_c, 1, 65, 64
3, 40157, Note_off_c, 1, 65, 49
3, 40157, Note_on_c, 1, 63, 64
3, 40277, Note_off_c, 1, 63, 42
3, 40277, Note_on_c, 1, 62, 64
3, 40397, Note_off_c, 1, 62, 37
3, 40397, Note_on_c, 1, 63, 64
3, 40517, Note_off_c, 1, 63, 48
3, 40517, Note_on_c, 1, 65, 64
3, 40877, Note_off_c, 1, 65, 54
3, 40877, Note_on_c, 1, 63, 64
3, 40937, Note_off_c, 1, 63, 49
3, 40937, Note_on_c, 1, 62, 64
3, 40997, Note_off_c, 1, 62, 52
3, 40997, Note_on_c, 1, 63, 64
3, 41357, Note_off_c, 1, 63, 52
3, 41357, Note_on_c, 1, 61, 64
3, 41477, Note_off_c, 1, 61, 49
3, 41477, Note_on_c, 1, 59, 64
3, 41597, Note_off_c, 1, 59, 27
3, 41597, Note_on_c, 1, 58, 64
3, 41717, Note_off_c, 1, 58, 53
3, 41717, Note_on_c, 1, 59, 64
3, 41837, Note_off_c, 1, 59, 41
3, 41837, Note_on_c, 1, 63, 64
3, 41957, Note_off_c, 1, 63, 40
3, 41957, Note_on_c, 1, 68, 64
3, 42317, Note_off_c, 1, 68, 66
3, 42317, Note_on_c, 1, 66, 64
3, 42437, Note_off_c, 1, 66, 72
3, 42437, Note_on_c, 1, 65, 64
3, 42557, Note_off_c, 1, 65, 57
3, 42557, Note_on_c, 1, 63, 64
3, 42677, Note_off_c, 1, 63, 45
3, 42677, Note_on_c, 1, 65, 64
3, 42917, Note_off_c, 1, 65, 51
3, 42917, Note_on_c, 1, 67, 64
3, 43157, Note_off_c, 1, 67, 52
3, 43157, Note_on_c, 1, 68, 64
3, 43277, Note_off_c, 1, 68, 72
3, 43277, Note_on_c, 1, 66, 64
3, 43397, Note_off_c, 1, 66, 65
3, 43397, Note_on_c, 1, 65, 64
3, 43517, Note_off_c, 1, 65, 51
3, 43517, Note_on_c, 1, 63, 64
3, 43637, Note_off_c, 1, 63, 49
3, 43637, Note_on_c, 1, 62, 64
3, 43877, Note_off_c, 1, 62, 37
3, 43877, Note_on_c, 1, 63, 64
3, 43997, Note_off_c, 1, 63, 49
3, 43997, Note_on_c, 1, 65, 64
3, 44117, Note_off_c, 1, 65, 70
3, 44117, Note_on_c, 1, 66, 64
3, 44237, Note_off_c, 1, 66, 80
3, 44237, Note_on_c, 1, 65, 64
3, 44357, Note_off_c, 1, 65, 61
3, 44357, Note_on_c, 1, 66, 64
3, 44477, Note_off_c, 1, 66, 76
3, 44477, Note_on_c, 1, 68, 64
3, 44597, Note_off_c, 1, 68, 79
3, 44597, Note_on_c, 1, 70, 64
3, 44717, Note_off_c, 1, 70, 76
3, 44717, Note_on_c, 1, 68, 64
3, 44837, Note_off_c, 1, 68, 63
3, 44837, Note_on_c, 1, 66, 64
3, 44957, Note_off_c, 1, 66, 63
3, 45017, Note_on_c, 1, 63, 64
3, 45077, Note_off_c, 1, 63, 49
3, 45077, Note_on_c, 1, 62, 64
3, 45197, Note_off_c, 1, 62, 35
3, 45197, Note_on_c, 1, 68, 64
3, 45437, Note_off_c, 1, 68, 66
3, 45437, Note_on_c, 1, 66, 64
3, 45497, Note_off_c, 1, 66, 61
3, 45497, Note_on_c, 1, 65, 64
3, 45557, Note_off_c, 1, 65, 42
3, 45557, Note_on_c, 1, 67, 64
3, 45677, Note_off_c, 1, 67, 53
3, 45677, Note_on_c, 1, 68, 64
3, 45797, Note_off_c, 1, 68, 55
3, 45797, Note_on_c, 1, 70, 64
3, 45917, Note_off_c, 1, 70, 51
3, 45917, Note_on_c, 1, 61, 64
3, 46037, Note_off_c, 1, 61, 34
3, 46037, Note_on_c, 1, 59, 64
3, 46157, Note_off_c, 1, 59, 36
3, 46157, Note_on_c, 1, 61, 64
3, 46277, Note_off_c, 1, 61, 55
3, 46277, Note_on_c, 1, 63, 64
3, 46397, Note_off_c, 1, 63, 40
3, 46397, Note_on_c, 1, 64, 64
3, 46517, Note_off_c, 1, 64, 37
3, 46517, Note_on_c, 1, 63, 64
3, 46757, Note_off_c, 1, 63, 43
3, 46757, Note_on_c, 1, 56, 64
3, 47117, Note_off_c, 1, 56, 32
3, 47117, Note_on_c, 1, 55, 64
3, 47237, Note_off_c, 1, 55, 39
3, 47237, Note_on_c, 1, 56, 64
3, 47357, Note_off_c, 1, 56, 49
3, 47357, Note_on_c, 1, 58, 64
3, 47477, Note_off_c, 1, 58, 50
3, 47477, Note_on_c, 1, 59, 64
3, 47597, Note_off_c, 1, 59, 46
3, 47597, Note_on_c, 1, 58, 64
3, 47717, Note_off_c, 1, 58, 55
3, 47717, Note_on_c, 1, 56, 64
3, 47957, Note_off_c, 1, 56, 49
3, 47957, Note_on_c, 1, 63, 64
3, 48197, Note_off_c, 1, 63, 50
3, 48197, Note_on_c, 1, 58, 64
3, 48557, Note_off_c, 1, 58, 51
3, 48557, Note_on_c, 1, 59, 64
3, 48677, Note_off_c, 1, 59, 37
3, 48677, Note_on_c, 1, 61, 64
3, 49037, Note_off_c, 1, 61, 54
3, 49037, Note_on_c, 1, 73, 64
3, 49157, Note_off_c, 1, 73, 49
3, 49157, Note_on_c, 1, 71, 64
3, 49277, Note_off_c, 1, 71, 73
3, 49277, Note_on_c, 1, 70, 64
3, 49397, Note_off_c, 1, 70, 53
3, 49397, Note_on_c, 1, 68, 64
3, 49517, Note_off_c, 1, 68, 79
3, 49517, Note_on_c, 1, 66, 64
3, 49637, Note_off_c, 1, 66, 59
3, 49637, Note_on_c, 1, 68, 64
3, 49757, Note_off_c, 1, 68, 61
3, 49757, Note_on_c, 1, 65, 64
3, 49877, Note_off_c, 1, 65, 17
3, 49877, Note_on_c, 1, 66, 64
3, 49997, Note_off_c, 1, 66, 63
3, 49997, Note_on_c, 1, 68, 64
3, 50117, Note_off_c, 1, 68, 62
3, 50117, Note_on_c, 1, 70, 64
3, 50237, Note_off_c, 1, 70, 63
3, 50237, Note_on_c, 1, 68, 64
3, 50477, Note_off_c, 1, 68, 74
3, 50477, Note_on_c, 1, 66, 64
3, 50537, Note_off_c, 1, 66, 62
3, 50537, Note_on_c, 1, 65, 64
3, 50597, Note_off_c, 1, 65, 34
3, 50597, Note_on_c, 1, 66, 64
3, 50717, Note_off_c, 1, 66, 66
3, 50717, Note_on_c, 1, 68, 64
3, 50837, Note_off_c, 1, 68, 59
3, 50837, Note_on_c, 1, 70, 64
3, 51077, Note_off_c, 1, 70, 53
3, 51077, Note_on_c, 1, 58, 64
3, 51317, Note_off_c, 1, 58, 30
3, 51317, Note_on_c, 1, 63, 64
3, 51677, Note_off_c, 1, 63, 45
3, 51677, Note_on_c, 1, 64, 64
3, 51797, Note_off_c, 1, 64, 41
3, 51797, Note_on_c, 1, 63, 64
3, 51917, Note_off_c, 1, 63, 43
3, 51917, Note_on_c, 1, 61, 64
3, 52037, Note_off_c, 1, 61, 61
3, 52037, Note_on_c, 1, 59, 64
3, 52157, Note_off_c, 1, 59, 42
3, 52157, Note_on_c, 1, 61, 64
3, 52277, Note_off_c, 1, 61, 48
3, 52277, Note_on_c, 1, 63, 64
3, 52517, Note_off_c, 1, 63, 49
3, 52517, Note_on_c, 1, 56, 64
3, 52637, Note_off_c, 1, 56, 55
3, 52637, Note_on_c, 1, 54, 64
3, 52757, Note_off_c, 1, 54, 50
3, 52757, Note_on_c, 1, 52, 64
3, 52997, Note_off_c, 1, 52, 38
3, 52997, Note_on_c, 1, 61, 64
3, 53237, Note_off_c, 1, 61, 54
3, 53237, Note_on_c, 1, 54, 64
3, 53597, Note_off_c, 1, 54, 53
3, 53597, Note_on_c, 1, 53, 64
3, 53717, Note_off_c, 1, 53, 32
3, 53717, Note_on_c, 1, 54, 64
3, 53837, Note_off_c, 1, 54, 66
3, 53837, Note_on_c, 1, 56, 64
3, 53957, Note_off_c, 1, 56, 46
3, 53957, Note_on_c, 1, 58, 64
3, 54077, Note_off_c, 1, 58, 61
3, 54077, Note_on_c, 1, 56, 64
3, 54197, Note_off_c, 1, 56, 52
3, 54197, Note_on_c, 1, 54, 64
3, 54437, Note_off_c, 1, 54, 32
3, 54437, Note_on_c, 1, 59, 64
3, 54557, Note_off_c, 1, 59, 41
3, 54557, Note_on_c, 1, 58, 64
3, 54677, Note_off_c, 1, 58, 50
3, 54677, Note_on_c, 1, 56, 64
3, 54917, Note_off_c, 1, 56, 55
3, 54917, Note_on_c, 1, 73, 64
3, 55157, Note_off_c, 1, 73, 40
3, 55157, Note_on_c, 1, 66, 64
3, 55637, Note_off_c, 1, 66, 42
3, 55637, Note_on_c, 1, 71, 64
3, 55757, Note_off_c, 1, 71, 70
3, 55757, Note_on_c, 1, 70, 64
3, 55877, Note_off_c, 1, 70, 59
3, 55877, Note_on_c, 1, 68, 64
3, 55997, Note_off_c, 1, 68, 70
3, 55997, Note_on_c, 1, 66, 64
3, 56117, Note_off_c, 1, 66, 51
3, 56117, Note_on_c, 1, 65, 64
3, 56237, Note_off_c, 1, 65, 57
3, 56237, Note_on_c, 1, 63, 64
3, 56357, Note_off_c, 1, 63, 47
3, 56357, Note_on_c, 1, 62, 64
3, 56477, Note_off_c, 1, 62, 34
3, 56477, Note_on_c, 1, 65, 64
3, 56597, Note_off_c, 1, 65, 53
3, 56597, Note_on_c, 1, 58, 64
3, 56717, Note_off_c, 1, 58, 34
3, 56717, Note_on_c, 1, 68, 64
3, 56837, Note_off_c, 1, 68, 37
3, 56837, Note_on_c, 1, 66, 64
3, 56957, Note_off_c, 1, 66, 53
3, 56957, Note_on_c, 1, 65, 64
3, 57077, Note_off_c, 1, 65, 52
3, 57077, Note_on_c, 1, 63, 64
3, 57317, Note_off_c, 1, 63, 52
3, 57317, Note_on_c, 1, 75, 64
3, 57437, Note_off_c, 1, 75, 52
3, 57437, Note_on_c, 1, 73, 64
3, 57557, Note_off_c, 1, 73, 59
3, 57557, Note_on_c, 1, 71, 64
3, 57677, Note_off_c, 1, 71, 79
3, 57677, Note_on_c, 1, 70, 64
3, 57797, Note_off_c, 1, 70, 76
3, 57797, Note_on_c, 1, 68, 64
3, 57917, Note_off_c, 1, 68, 52
3, 57917, Note_on_c, 1, 71, 64
3, 58037, Note_off_c, 1, 71, 55
3, 58037, Note_on_c, 1, 70, 64
3, 58157, Note_off_c, 1, 70, 59
3, 58157, Note_on_c, 1, 75, 64
3, 58397, Note_off_c, 1, 75, 57
3, 58397, Note_on_c, 1, 73, 64
3, 58637, Note_off_c, 1, 73, 72
3, 58637, Note_on_c, 1, 71, 64
3, 58877, Note_off_c, 1, 71, 74
3, 58877, Note_on_c, 1, 70, 64
3, 59117, Note_off_c, 1, 70, 73
3, 59117, Note_on_c, 1, 68, 64
3, 59357, Note_off_c, 1, 68, 79
3, 59357, Note_on_c, 1, 66, 64
3, 59597, Note_off_c, 1, 66, 59
3, 59597, Note_on_c, 1, 65, 64
3, 59837, Note_off_c, 1, 65, 36
3, 59837, Note_on_c, 1, 63, 64
3, 59957, Note_off_c, 1, 63, 46
3, 59957, Note_on_c, 1, 62, 64
3, 60077, Note_off_c, 1, 62, 33
3, 60077, Note_on_c, 1, 65, 64
3, 60197, Note_off_c, 1, 65, 48
3, 60197, Note_on_c, 1, 70, 64
3, 60557, Note_off_c, 1, 70, 70
3, 60557, Note_on_c, 1, 71, 64
3, 60677, Note_off_c, 1, 71, 54
3, 60677, Note_on_c, 1, 70, 64
3, 60797, Note_off_c, 1, 70, 54
3, 60797, Note_on_c, 1, 68, 64
3, 60917, Note_off_c, 1, 68, 54
3, 60917, Note_on_c, 1, 66, 64
3, 61037, Note_off_c, 1, 66, 59
3, 61037, Note_on_c, 1, 68, 64
3, 61157, Note_off_c, 1, 68, 65
3, 61157, Note_on_c, 1, 70, 64
3, 61397, Note_off_c, 1, 70, 69
3, 61397, Note_on_c, 1, 63, 64
3, 61637, Note_off_c, 1, 63, 37
3, 61637, Note_on_c, 1, 68, 64
3, 61997, Note_off_c, 1, 68, 69
3, 61997, Note_on_c, 1, 67, 64
3, 62117, Note_off_c, 1, 67, 17
3, 62117, Note_on_c, 1, 65, 64
3, 62237, Note_off_c, 1, 65, 52
3, 62237, Note_on_c, 1, 64, 64
3, 62357, Note_off_c, 1, 64, 33
3, 62357, Note_on_c, 1, 63, 64
3, 62477, Note_off_c, 1, 63, 37
3, 62477, Note_on_c, 1, 71, 64
3, 62597, Note_off_c, 1, 71, 36
3, 62597, Note_on_c, 1, 70, 64
3, 62717, Note_off_c, 1, 70, 54
3, 62717, Note_on_c, 1, 68, 64
3, 62837, Note_off_c, 1, 68, 34
3, 62837, Note_on_c, 1, 67, 64
3, 62957, Note_off_c, 1, 67, 4
3, 62957, Note_on_c, 1, 63, 64
3, 63017, Note_off_c, 1, 63, 40
3, 63017, Note_on_c, 1, 65, 64
3, 63077, Note_off_c, 1, 65, 40
3, 63077, Note_on_c, 1, 67, 64
3, 63197, Note_off_c, 1, 67, 53
3, 63197, Note_on_c, 1, 68, 64
3, 63257, Note_off_c, 1, 68, 69
3, 63257, Note_on_c, 1, 70, 64
3, 63317, Note_off_c, 1, 70, 50
3, 63317, Note_on_c, 1, 71, 64
3, 63677, Note_off_c, 1, 71, 72
3, 63677, Note_on_c, 1, 70, 64
3, 63797, Note_off_c, 1, 70, 58
3, 63797, Note_on_c, 1, 68, 64
3, 63917, Note_off_c, 1, 68, 68
3, 63917, Note_on_c, 1, 67, 64
3, 64037, Note_off_c, 1, 67, 61
3, 64037, Note_on_c, 1, 68, 64
3, 64157, Note_off_c, 1, 68, 69
3, 64157, Note_on_c, 1, 70, 64
3, 64277, Note_off_c, 1, 70, 54
3, 64277, Note_on_c, 1, 63, 64
3, 64397, Note_off_c, 1, 63, 11
3, 64397, Note_on_c, 1, 65, 64
3, 64517, Note_off_c, 1, 65, 44
3, 64517, Note_on_c, 1, 67, 64
3, 64637, Note_off_c, 1, 67, 43
3, 64637, Note_on_c, 1, 68, 64
3, 64757, Note_off_c, 1, 68, 58
3, 64757, Note_on_c, 1, 70, 64
3, 64817, Note_off_c, 1, 70, 61
3, 64817, Note_on_c, 1, 71, 64
3, 64877, Note_off_c, 1, 71, 59
3, 64877, Note_on_c, 1, 73, 64
3, 65117, Note_off_c, 1, 73, 58
3, 65117, Note_on_c, 1, 71, 64
3, 65177, Note_off_c, 1, 71, 57
3, 65177, Note_on_c, 1, 70, 64
3, 65237, Note_off_c, 1, 70, 61
3, 65237, Note_on_c, 1, 71, 64
3, 65477, Note_off_c, 1, 71, 32
3, 65717, Note_on_c, 1, 65, 64
3, 66197, Note_off_c, 1, 65, 44
3, 66197, Note_on_c, 1, 73, 64
3, 66917, Note_off_c, 1, 73, 54
3, 66917, Note_on_c, 1, 75, 64
3, 67157, Note_off_c, 1, 75, 58
3, 67157, Note_on_c, 1, 73, 64
3, 67397, Note_off_c, 1, 73, 61
3, 67397, Note_on_c, 1, 71, 64
3, 67637, Note_off_c, 1, 71, 69
3, 67637, Note_on_c, 1, 70, 64
3, 67877, Note_off_c, 1, 70, 55
3, 67877, Note_on_c, 1, 71, 64
3, 68117, Note_off_c, 1, 71, 50
3, 68117, Note_on_c, 1, 73, 64
3, 68597, Note_off_c, 1, 73, 59
3, 68597, Note_on_c, 1, 66, 64
3, 69077, Note_off_c, 1, 66, 13
3, 69077, Note_on_c, 1, 71, 64
3, 69797, Note_off_c, 1, 71, 83
3, 69797, Note_on_c, 1, 70, 64
3, 70037, Note_off_c, 1, 70, 62
3, 70037, Note_on_c, 1, 68, 64
3, 70517, Note_off_c, 1, 68, 47
3, 70517, Note_on_c, 1, 66, 64
3, 70757, Note_off_c, 1, 66, 59
3, 70757, Note_on_c, 1, 71, 64
3, 71117, Note_off_c, 1, 71, 63
3, 71117, Note_on_c, 1, 75, 64
3, 71237, Note_off_c, 1, 75, 50
3, 71237, Note_on_c, 1, 73, 64
3, 71357, Note_off_c, 1, 73, 53
3, 71357, Note_on_c, 1, 71, 64
3, 71477, Note_off_c, 1, 71, 70
3, 71477, Note_on_c, 1, 70, 64
3, 71597, Note_off_c, 1, 70, 61
3, 71597, Note_on_c, 1, 71, 64
3, 71717, Note_off_c, 1, 71, 65
3, 71717, Note_on_c, 1, 73, 64
3, 71957, Note_off_c, 1, 73, 59
3, 71957, Note_on_c, 1, 68, 64
3, 72197, Note_off_c, 1, 68, 58
3, 72197, Note_on_c, 1, 73, 64
3, 72557, Note_off_c, 1, 73, 59
3, 72557, Note_on_c, 1, 71, 64
3, 72677, Note_off_c, 1, 71, 63
3, 72677, Note_on_c, 1, 70, 64
3, 73037, Note_off_c, 1, 70, 66
3, 73037, Note_on_c, 1, 63, 64
3, 73157, Note_off_c, 1, 63, 22
3, 73157, Note_on_c, 1, 68, 64
3, 73517, Note_off_c, 1, 68, 69
3, 73517, Note_on_c, 1, 68, 64
3, 73637, Note_off_c, 1, 68, 77
3, 73637, Note_on_c, 1, 66, 64
3, 73997, Note_off_c, 1, 66, 69
3, 73997, Note_on_c, 1, 66, 64
3, 74117, Note_off_c, 1, 66, 63
3, 74117, Note_on_c, 1, 64, 64
3, 74237, Note_off_c, 1, 64, 18
3, 74237, Note_on_c, 1, 63, 64
3, 74357, Note_off_c, 1, 63, 46
3, 74357, Note_on_c, 1, 62, 64
3, 74597, Note_off_c, 1, 62, 37
3, 74597, Note_on_c, 1, 63, 64
3, 74957, Note_off_c, 1, 63, 50
3, 74957, Note_on_c, 1, 62, 64
3, 75017, Note_off_c, 1, 62, 19
3, 75017, Note_on_c, 1, 60, 64
3, 75077, Note_off_c, 1, 60, 37
3, 75077, Note_on_c, 1, 62, 64
3, 75197, Note_off_c, 1, 62, 32
3, 75197, Note_on_c, 1, 65, 64
3, 75317, Note_off_c, 1, 65, 37
3, 75317, Note_on_c, 1, 70, 64
3, 75677, Note_off_c, 1, 70, 62
3, 75677, Note_on_c, 1, 71, 64
3, 75797, Note_off_c, 1, 71, 52
3, 75797, Note_on_c, 1, 70, 64
3, 76157, Note_off_c, 1, 70, 63
3, 76157, Note_on_c, 1, 68, 64
3, 76277, Note_off_c, 1, 68, 73
3, 76277, Note_on_c, 1, 66, 64
3, 76637, Note_off_c, 1, 66, 63
3, 76637, Note_on_c, 1, 68, 64
3, 76757, Note_off_c, 1, 68, 74
3, 76757, Note_on_c, 1, 70, 64
3, 77237, Note_off_c, 1, 70, 72
3, 77237, Note_on_c, 1, 63, 64
3, 77357, Note_off_c, 1, 63, 45
3, 77357, Note_on_c, 1, 65, 64
3, 77417, Note_off_c, 1, 65, 48
3, 77417, Note_on_c, 1, 66, 64
3, 77477, Note_off_c, 1, 66, 54
3, 77477, Note_on_c, 1, 68, 64
3, 77837, Note_off_c, 1, 68, 66
3, 77837, Note_on_c, 1, 66, 64
3, 77957, Note_off_c, 1, 66, 65
3, 77957, Note_on_c, 1, 65, 64
3, 78197, Note_off_c, 1, 65, 52
3, 78197, Note_on_c, 1, 67, 64
3, 78317, Note_off_c, 1, 67, 39
3, 78317, Note_on_c, 1, 58, 64
3, 78437, Note_off_c, 1, 58, 44
3, 78437, Note_on_c, 1, 63, 64
3, 78797, Note_off_c, 1, 63, 23
3, 78797, Note_on_c, 1, 64, 64
3, 78917, Note_off_c, 1, 64, 59
3, 78917, Note_on_c, 1, 63, 64
3, 79037, Note_off_c, 1, 63, 54
3, 79037, Note_on_c, 1, 61, 64
3, 79157, Note_off_c, 1, 61, 62
3, 79157, Note_on_c, 1, 59, 64
3, 79277, Note_off_c, 1, 59, 37
3, 79277, Note_on_c, 1, 61, 64
3, 79397, Note_off_c, 1, 61, 57
3, 79397, Note_on_c, 1, 63, 64
3, 79637, Note_off_c, 1, 63, 47
3, 79637, Note_on_c, 1, 56, 64
3, 79877, Note_off_c, 1, 56, 27
3, 79877, Note_on_c, 1, 61, 64
3, 80237, Note_off_c, 1, 61, 52
3, 80237, Note_on_c, 1, 59, 64
3, 80357, Note_off_c, 1, 59, 28
3, 80357, Note_on_c, 1, 58, 64
3, 80597, Note_off_c, 1, 58, 54
3, 80597, Note_on_c, 1, 56, 64
3, 80957, Note_off_c, 1, 56, 55
3, 80957, Note_on_c, 1, 58, 64
3, 81077, Note_off_c, 1, 58, 63
3, 81077, Note_on_c, 1, 59, 64
3, 81197, Note_off_c, 1, 59, 63
3, 81197, Note_on_c, 1, 58, 64
3, 81317, Note_off_c, 1, 58, 63
3, 81317, Note_on_c, 1, 56, 64
3, 81437, Note_off_c, 1, 56, 68
3, 81437, Note_on_c, 1, 54, 64
3, 81557, Note_off_c, 1, 54, 57
3, 81557, Note_on_c, 1, 53, 64
3, 81917, Note_off_c, 1, 53, 48
3, 81917, Note_on_c, 1, 54, 64
3, 82037, Note_off_c, 1, 54, 72
3, 82037, Note_on_c, 1, 56, 64
3, 82157, Note_off_c, 1, 56, 65
3, 82157, Note_on_c, 1, 54, 64
3, 82277, Note_off_c, 1, 54, 70
3, 82277, Note_on_c, 1, 53, 64
3, 82397, Note_off_c, 1, 53, 73
3, 82397, Note_on_c, 1, 51, 64
3, 82517, Note_off_c, 1, 51, 74
3, 82517, Note_on_c, 1, 50, 64
3, 82877, Note_off_c, 1, 50, 13
3, 82877, Note_on_c, 1, 51, 64
3, 82997, Note_off_c, 1, 51, 46
3, 82997, Note_on_c, 1, 53, 64
3, 83237, Note_off_c, 1, 53, 57
3, 83237, Note_on_c, 1, 54, 64
3, 83357, Note_off_c, 1, 54, 68
3, 83357, Note_on_c, 1, 56, 64
3, 83477, Note_off_c, 1, 56, 57
3, 83477, Note_on_c, 1, 58, 64
3, 83597, Note_off_c, 1, 58, 73
3, 83597, Note_on_c, 1, 58, 64
3, 83717, Note_off_c, 1, 58, 68
3, 83717, Note_on_c, 1, 59, 64
3, 83837, Note_off_c, 1, 59, 47
3, 83837, Note_on_c, 1, 61, 64
3, 83957, Note_off_c, 1, 61, 76
3, 83957, Note_on_c, 1, 63, 64
3, 84077, Note_off_c, 1, 63, 63
3, 84077, Note_on_c, 1, 63, 64
3, 84197, Note_off_c, 1, 63, 62
3, 84197, Note_on_c, 1, 65, 64
3, 84317, Note_off_c, 1, 65, 65
3, 84317, Note_on_c, 1, 66, 64
3, 84437, Note_off_c, 1, 66, 70
3, 84437, Note_on_c, 1, 65, 64
3, 84557, Note_off_c, 1, 65, 69
3, 84557, Note_on_c, 1, 71, 64
3, 84677, Note_off_c, 1, 71, 83
3, 84677, Note_on_c, 1, 70, 64
3, 84797, Note_off_c, 1, 70, 73
3, 84797, Note_on_c, 1, 68, 64
3, 84917, Note_off_c, 1, 68, 73
3, 84917, Note_on_c, 1, 67, 64
3, 85397, Note_off_c, 1, 67, 65
3, 85397, End_track
4, 0, Start_track
4, 0, Text_t, "LH L"
4, 6720, Note_on_c, 2, 51, 64
4, 6960, Note_off_c, 2, 51, 40
4, 6960, Note_on_c, 2, 58, 64
4, 7320, Note_off_c, 2, 58, 59
4, 7320, Note_on_c, 2, 59, 64
4, 7440, Note_off_c, 2, 59, 48
4, 7440, Note_on_c, 2, 58, 64
4, 7560, Note_off_c, 2, 58, 54
4, 7560, Note_on_c, 2, 56, 64
4, 7680, Note_off_c, 2, 56, 46
4, 7680, Note_on_c, 2, 54, 64
4, 7800, Note_off_c, 2, 54, 46
4, 7800, Note_on_c, 2, 56, 64
4, 7920, Note_off_c, 2, 56, 50
4, 7920, Note_on_c, 2, 58, 64
4, 8160, Note_off_c, 2, 58, 44
4, 8160, Note_on_c, 2, 51, 64
4, 8400, Note_off_c, 2, 51, 24
4, 8400, Note_on_c, 2, 56, 64
4, 8760, Note_off_c, 2, 56, 52
4, 8760, Note_on_c, 2, 54, 64
4, 8880, Note_off_c, 2, 54, 49
4, 8880, Note_on_c, 2, 53, 64
4, 9120, Note_off_c, 2, 53, 47
4, 9120, Note_on_c, 2, 51, 64
4, 9360, Note_off_c, 2, 51, 49
4, 9360, Note_on_c, 2, 63, 64
4, 9600, Note_off_c, 2, 63, 45
4, 9600, Note_on_c, 2, 62, 64
4, 9840, Note_off_c, 2, 62, 48
4, 9840, Note_on_c, 2, 61, 64
4, 10080, Note_off_c, 2, 61, 69
4, 10080, Note_on_c, 2, 60, 64
4, 10320, Note_off_c, 2, 60, 59
4, 10320, Note_on_c, 2, 59, 64
4, 10560, Note_off_c, 2, 59, 30
4, 10560, Note_on_c, 2, 58, 64
4, 10680, Note_off_c, 2, 58, 70
4, 10680, Note_on_c, 2, 46, 64
4, 10800, Note_off_c, 2, 46, 41
4, 10800, Note_on_c, 2, 51, 64
4, 11160, Note_off_c, 2, 51, 57
4, 11160, Note_on_c, 2, 54, 64
4, 11280, Note_off_c, 2, 54, 55
4, 11280, Note_on_c, 2, 53, 64
4, 11400, Note_off_c, 2, 53, 68
4, 11400, Note_on_c, 2, 51, 64
4, 11520, Note_off_c, 2, 51, 50
4, 11520, Note_on_c, 2, 50, 64
4, 11640, Note_off_c, 2, 50, 37
4, 11640, Note_on_c, 2, 51, 64
4, 11760, Note_off_c, 2, 51, 57
4, 11760, Note_on_c, 2, 53, 64
4, 12000, Note_off_c, 2, 53, 51
4, 12000, Note_on_c, 2, 46, 64
4, 12240, Note_off_c, 2, 46, 21
4, 12240, Note_on_c, 2, 51, 64
4, 12600, Note_off_c, 2, 51, 58
4, 12600, Note_on_c, 2, 49, 64
4, 12720, Note_off_c, 2, 49, 62
4, 12720, Note_on_c, 2, 47, 64
4, 13200, Note_off_c, 2, 47, 36
4, 13200, Note_on_c, 2, 46, 64
4, 13440, Note_off_c, 2, 46, 52
4, 13440, Note_on_c, 2, 44, 64
4, 13560, Note_off_c, 2, 44, 55
4, 13560, Note_on_c, 2, 46, 64
4, 13680, Note_off_c, 2, 46, 73
4, 13680, Note_on_c, 2, 47, 64
4, 13800, Note_off_c, 2, 47, 42
4, 13800, Note_on_c, 2, 49, 64
4, 13920, Note_off_c, 2, 49, 63
4, 13920, Note_on_c, 2, 51, 64
4, 14040, Note_off_c, 2, 51, 74
4, 14040, Note_on_c, 2, 53, 64
4, 14160, Note_off_c, 2, 53, 43
4, 14160, Note_on_c, 2, 54, 64
4, 14280, Note_off_c, 2, 54, 52
4, 14280, Note_on_c, 2, 56, 64
4, 14400, Note_off_c, 2, 56, 66
4, 14400, Note_on_c, 2, 58, 64
4, 14520, Note_off_c, 2, 58, 59
4, 14520, Note_on_c, 2, 56, 64
4, 14640, Note_off_c, 2, 56, 55
4, 14640, Note_on_c, 2, 58, 64
4, 14760, Note_off_c, 2, 58, 53
4, 14760, Note_on_c, 2, 59, 64
4, 14880, Note_off_c, 2, 59, 65
4, 14880, Note_on_c, 2, 61, 64
4, 15120, Note_off_c, 2, 61, 74
4, 15120, Note_on_c, 2, 49, 64
4, 15360, Note_off_c, 2, 49, 44
4, 15360, Note_on_c, 2, 42, 64
4, 15600, Note_off_c, 2, 42, 43
4, 15600, Note_on_c, 2, 54, 64
4, 15960, Note_off_c, 2, 54, 1
4, 15960, Note_on_c, 2, 53, 64
4, 16080, Note_off_c, 2, 53, 58
4, 16080, Note_on_c, 2, 51, 64
4, 16200, Note_off_c, 2, 51, 53
4, 16200, Note_on_c, 2, 49, 64
4, 16320, Note_off_c, 2, 49, 62
4, 16320, Note_on_c, 2, 48, 64
4, 16440, Note_off_c, 2, 48, 53
4, 16440, Note_on_c, 2, 46, 64
4, 16560, Note_off_c, 2, 46, 1
4, 16560, Note_on_c, 2, 45, 64
4, 16680, Note_off_c, 2, 45, 30
4, 16680, Note_on_c, 2, 41, 64
4, 16800, Note_off_c, 2, 41, 34
4, 16800, Note_on_c, 2, 46, 64
4, 16920, Note_off_c, 2, 46, 52
4, 16920, Note_on_c, 2, 48, 64
4, 17040, Note_off_c, 2, 48, 38
4, 17040, Note_on_c, 2, 49, 64
4, 17160, Note_off_c, 2, 49, 59
4, 17160, Note_on_c, 2, 51, 64
4, 17280, Note_off_c, 2, 51, 54
4, 17280, Note_on_c, 2, 53, 64
4, 17400, Note_off_c, 2, 53, 58
4, 17400, Note_on_c, 2, 51, 64
4, 17520, Note_off_c, 2, 51, 54
4, 17520, Note_on_c, 2, 53, 64
4, 17640, Note_off_c, 2, 53, 55
4, 17640, Note_on_c, 2, 41, 64
4, 17760, Note_off_c, 2, 41, 41
4, 17760, Note_on_c, 2, 46, 64
4, 17880, Note_off_c, 2, 46, 57
4, 17880, Note_on_c, 2, 45, 64
4, 18000, Note_off_c, 2, 45, 29
4, 18000, Note_on_c, 2, 46, 64
4, 18120, Note_off_c, 2, 46, 47
4, 18120, Note_on_c, 2, 48, 64
4, 18240, Note_off_c, 2, 48, 57
4, 18240, Note_on_c, 2, 49, 64
4, 18360, Note_off_c, 2, 49, 63
4, 18360, Note_on_c, 2, 48, 64
4, 18480, Note_off_c, 2, 48, 49
4, 18480, Note_on_c, 2, 49, 64
4, 18600, Note_off_c, 2, 49, 61
4, 18600, Note_on_c, 2, 51, 64
4, 18720, Note_off_c, 2, 51, 50
4, 18720, Note_on_c, 2, 53, 64
4, 18840, Note_off_c, 2, 53, 63
4, 18840, Note_on_c, 2, 51, 64
4, 18960, Note_off_c, 2, 51, 55
4, 18960, Note_on_c, 2, 49, 64
4, 19080, Note_off_c, 2, 49, 45
4, 19080, Note_on_c, 2, 51, 64
4, 19140, Note_off_c, 2, 51, 57
4, 19140, Note_on_c, 2, 53, 64
4, 19200, Note_off_c, 2, 53, 58
4, 19200, Note_on_c, 2, 54, 64
4, 19260, Note_off_c, 2, 54, 50
4, 19260, Note_on_c, 2, 53, 64
4, 19320, Note_off_c, 2, 53, 57
4, 19320, Note_on_c, 2, 54, 64
4, 19440, Note_off_c, 2, 54, 57
4, 19440, Note_on_c, 2, 45, 64
4, 19680, Note_off_c, 2, 45, 54
4, 19680, Note_on_c, 2, 46, 64
4, 19920, Note_off_c, 2, 46, 55
4, 19920, Note_on_c, 2, 48, 64
4, 20160, Note_off_c, 2, 48, 46
4, 20160, Note_on_c, 2, 49, 64
4, 20280, Note_off_c, 2, 49, 58
4, 20280, Note_on_c, 2, 46, 64
4, 20400, Note_off_c, 2, 46, 25
4, 20400, Note_on_c, 2, 53, 64
4, 20520, Note_off_c, 2, 53, 35
4, 20520, Note_on_c, 2, 51, 64
4, 20640, Note_off_c, 2, 51, 48
4, 20640, Note_on_c, 2, 50, 64
4, 20760, Note_off_c, 2, 50, 46
4, 20760, Note_on_c, 2, 51, 64
4, 21000, Note_off_c, 2, 51, 59
4, 21000, Note_on_c, 2, 50, 64
4, 21120, Note_off_c, 2, 50, 45
4, 21120, Note_on_c, 2, 51, 64
4, 21240, Note_off_c, 2, 51, 39
4, 21240, Note_on_c, 2, 60, 64
4, 21360, Note_off_c, 2, 60, 1
4, 21360, Note_on_c, 2, 57, 64
4, 21480, Note_off_c, 2, 57, 16
4, 21480, Note_on_c, 2, 58, 64
4, 21600, Note_off_c, 2, 58, 48
4, 21600, Note_on_c, 2, 54, 64
4, 21720, Note_off_c, 2, 54, 34
4, 21720, Note_on_c, 2, 53, 64
4, 21840, Note_off_c, 2, 53, 36
4, 21840, Note_on_c, 2, 54, 64
4, 22080, Note_off_c, 2, 54, 49
4, 22080, Note_on_c, 2, 53, 64
4, 22320, Note_off_c, 2, 53, 49
4, 22560, Note_on_c, 2, 54, 64
4, 22800, Note_off_c, 2, 54, 45
4, 22800, Note_on_c, 2, 59, 64
4, 23160, Note_off_c, 2, 59, 48
4, 23160, Note_on_c, 2, 61, 64
4, 23280, Note_off_c, 2, 61, 49
4, 23280, Note_on_c, 2, 59, 64
4, 23400, Note_off_c, 2, 59, 49
4, 23400, Note_on_c, 2, 58, 64
4, 23520, Note_off_c, 2, 58, 68
4, 23520, Note_on_c, 2, 56, 64
4, 23640, Note_off_c, 2, 56, 52
4, 23640, Note_on_c, 2, 55, 64
4, 23760, Note_off_c, 2, 55, 46
4, 23760, Note_on_c, 2, 56, 64
4, 23880, Note_off_c, 2, 56, 51
4, 23880, Note_on_c, 2, 58, 64
4, 24000, Note_off_c, 2, 58, 49
4, 24000, Note_on_c, 2, 60, 64
4, 24240, Note_off_c, 2, 60, 59
4, 24240, Note_on_c, 2, 61, 64
4, 24360, Note_off_c, 2, 61, 54
4, 24360, Note_on_c, 2, 59, 64
4, 24480, Note_off_c, 2, 59, 30
4, 24480, Note_on_c, 2, 58, 64
4, 24600, Note_off_c, 2, 58, 55
4, 24600, Note_on_c, 2, 56, 64
4, 24720, Note_off_c, 2, 56, 52
4, 24720, Note_on_c, 2, 55, 64
4, 24840, Note_off_c, 2, 55, 52
4, 24840, Note_on_c, 2, 51, 64
4, 24960, Note_off_c, 2, 51, 50
4, 24960, Note_on_c, 2, 56, 64
4, 25080, Note_off_c, 2, 56, 57
4, 25080, Note_on_c, 2, 58, 64
4, 25200, Note_off_c, 2, 58, 65
4, 25200, Note_on_c, 2, 56, 64
4, 25320, Note_off_c, 2, 56, 58
4, 25320, Note_on_c, 2, 54, 64
4, 25440, Note_off_c, 2, 54, 54
4, 25440, Note_on_c, 2, 53, 64
4, 25560, Note_off_c, 2, 53, 42
4, 25560, Note_on_c, 2, 54, 64
4, 25680, Note_off_c, 2, 54, 52
4, 25680, Note_on_c, 2, 53, 64
4, 25800, Note_off_c, 2, 53, 43
4, 25800, Note_on_c, 2, 51, 64
4, 25920, Note_off_c, 2, 51, 61
4, 25920, Note_on_c, 2, 49, 64
4, 26040, Note_off_c, 2, 49, 46
4, 26040, Note_on_c, 2, 59, 64
4, 26160, Note_off_c, 2, 59, 51
4, 26160, Note_on_c, 2, 58, 64
4, 26280, Note_off_c, 2, 58, 50
4, 26280, Note_on_c, 2, 56, 64
4, 26400, Note_off_c, 2, 56, 54
4, 26400, Note_on_c, 2, 54, 64
4, 26520, Note_off_c, 2, 54, 49
4, 26520, Note_on_c, 2, 56, 64
4, 26640, Note_off_c, 2, 56, 51
4, 26640, Note_on_c, 2, 54, 64
4, 26760, Note_off_c, 2, 54, 47
4, 26760, Note_on_c, 2, 52, 64
4, 26880, Note_off_c, 2, 52, 49
4, 26880, Note_on_c, 2, 51, 64
4, 27000, Note_off_c, 2, 51, 48
4, 27000, Note_on_c, 2, 49, 64
4, 27120, Note_off_c, 2, 49, 40
4, 27120, Note_on_c, 2, 47, 64
4, 27240, Note_off_c, 2, 47, 37
4, 27240, Note_on_c, 2, 44, 64
4, 27360, Note_off_c, 2, 44, 48
4, 27360, Note_on_c, 2, 46, 64
4, 27480, Note_off_c, 2, 46, 76
4, 27480, Note_on_c, 2, 42, 64
4, 27600, Note_off_c, 2, 42, 30
4, 27600, Note_on_c, 2, 49, 64
4, 27720, Note_off_c, 2, 49, 17
4, 27720, Note_on_c, 2, 37, 64
4, 27840, Note_off_c, 2, 37, 37
4, 27840, Note_on_c, 2, 42, 64
4, 27960, Note_off_c, 2, 42, 45
4, 27960, Note_on_c, 2, 44, 64
4, 28080, Note_off_c, 2, 44, 59
4, 28080, Note_on_c, 2, 46, 64
4, 28200, Note_off_c, 2, 46, 70
4, 28200, Note_on_c, 2, 44, 64
4, 28320, Note_off_c, 2, 44, 42
4, 28320, Note_on_c, 2, 42, 64
4, 28440, Note_off_c, 2, 42, 43
4, 28440, Note_on_c, 2, 54, 64
4, 28560, Note_off_c, 2, 54, 24
4, 28560, Note_on_c, 2, 53, 64
4, 28680, Note_off_c, 2, 53, 49
4, 28680, Note_on_c, 2, 51, 64
4, 28800, Note_off_c, 2, 51, 49
4, 28800, Note_on_c, 2, 49, 64
4, 29040, Note_off_c, 2, 49, 63
4, 29040, Note_on_c, 2, 54, 64
4, 29520, Note_off_c, 2, 54, 49
4, 29520, Note_on_c, 2, 53, 64
4, 29760, Note_off_c, 2, 53, 63
4, 29760, Note_on_c, 2, 54, 64
4, 29880, Note_off_c, 2, 54, 55
4, 29880, Note_on_c, 2, 53, 64
4, 30000, Note_off_c, 2, 53, 53
4, 30000, Note_on_c, 2, 51, 64
4, 30120, Note_off_c, 2, 51, 55
4, 30120, Note_on_c, 2, 50, 64
4, 30240, Note_off_c, 2, 50, 46
4, 30240, Note_on_c, 2, 51, 64
4, 30480, Note_off_c, 2, 51, 54
4, 30480, Note_on_c, 2, 46, 64
4, 30600, Note_off_c, 2, 46, 57
4, 30600, Note_on_c, 2, 48, 64
4, 30720, Note_off_c, 2, 48, 37
4, 30720, Note_on_c, 2, 49, 64
4, 30960, Note_off_c, 2, 49, 73
4, 30960, Note_on_c, 2, 42, 64
4, 31200, Note_off_c, 2, 42, 43
4, 31200, Note_on_c, 2, 44, 64
4, 31440, Note_off_c, 2, 44, 59
4, 31440, Note_on_c, 2, 46, 64
4, 31680, Note_off_c, 2, 46, 58
4, 31680, Note_on_c, 2, 47, 64
4, 31800, Note_off_c, 2, 47, 70
4, 31800, Note_on_c, 2, 46, 64
4, 31920, Note_off_c, 2, 46, 61
4, 31920, Note_on_c, 2, 44, 64
4, 32040, Note_off_c, 2, 44, 61
4, 32040, Note_on_c, 2, 42, 64
4, 32160, Note_off_c, 2, 42, 49
4, 32160, Note_on_c, 2, 40, 64
4, 32400, Note_off_c, 2, 40, 46
4, 32400, Note_on_c, 2, 39, 64
4, 32640, Note_off_c, 2, 39, 46
4, 32640, Note_on_c, 2, 44, 64
4, 32760, Note_off_c, 2, 44, 58
4, 32760, Note_on_c, 2, 46, 64
4, 32880, Note_off_c, 2, 46, 76
4, 32880, Note_on_c, 2, 47, 64
4, 33000, Note_off_c, 2, 47, 33
4, 33000, Note_on_c, 2, 49, 64
4, 33120, Note_off_c, 2, 49, 62
4, 33120, Note_on_c, 2, 51, 64
4, 33360, Note_off_c, 2, 51, 55
4, 33480, Note_on_c, 2, 51, 64
4, 33600, Note_off_c, 2, 51, 66
4, 33600, Note_on_c, 2, 56, 64
4, 33720, Note_off_c, 2, 56, 55
4, 33720, Note_on_c, 2, 58, 64
4, 33840, Note_off_c, 2, 58, 58
4, 33840, Note_on_c, 2, 59, 64
4, 33960, Note_off_c, 2, 59, 59
4, 33960, Note_on_c, 2, 56, 64
4, 34080, Note_off_c, 2, 56, 49
4, 34080, Note_on_c, 2, 58, 64
4, 34200, Note_off_c, 2, 58, 62
4, 34200, Note_on_c, 2, 56, 64
4, 34320, Note_off_c, 2, 56, 68
4, 34320, Note_on_c, 2, 54, 64
4, 34440, Note_off_c, 2, 54, 53
4, 34440, Note_on_c, 2, 53, 64
4, 34560, Note_off_c, 2, 53, 26
4, 34560, Note_on_c, 2, 51, 64
4, 34800, Note_off_c, 2, 51, 46
4, 34800, Note_on_c, 2, 56, 64
4, 35160, Note_off_c, 2, 56, 55
4, 35160, Note_on_c, 2, 55, 64
4, 35220, Note_off_c, 2, 55, 53
4, 35220, Note_on_c, 2, 53, 64
4, 35280, Note_off_c, 2, 53, 49
4, 35280, Note_on_c, 2, 55, 64
4, 35520, Note_off_c, 2, 55, 39
4, 35520, Note_on_c, 2, 56, 64
4, 35640, Note_off_c, 2, 56, 48
4, 35640, Note_on_c, 2, 54, 64
4, 35760, Note_off_c, 2, 54, 49
4, 35760, Note_on_c, 2, 53, 64
4, 35880, Note_off_c, 2, 53, 53
4, 35880, Note_on_c, 2, 51, 64
4, 36000, Note_off_c, 2, 51, 40
4, 36000, Note_on_c, 2, 53, 64
4, 36120, Note_off_c, 2, 53, 50
4, 36120, Note_on_c, 2, 54, 64
4, 36240, Note_off_c, 2, 54, 54
4, 36240, Note_on_c, 2, 56, 64
4, 36360, Note_off_c, 2, 56, 47
4, 36360, Note_on_c, 2, 58, 64
4, 36480, Note_off_c, 2, 58, 57
4, 36480, Note_on_c, 2, 51, 64
4, 36540, Note_off_c, 2, 51, 45
4, 36540, Note_on_c, 2, 63, 64
4, 36600, Note_off_c, 2, 63, 1
4, 36600, Note_on_c, 2, 61, 64
4, 36660, Note_off_c, 2, 61, 51
4, 36660, Note_on_c, 2, 59, 64
4, 36720, Note_off_c, 2, 59, 57
4, 36720, Note_on_c, 2, 58, 64
4, 37080, Note_off_c, 2, 58, 50
4, 37080, Note_on_c, 2, 54, 64
4, 37200, Note_off_c, 2, 54, 42
4, 37200, Note_on_c, 2, 56, 64
4, 37320, Note_off_c, 2, 56, 52
4, 37320, Note_on_c, 2, 58, 64
4, 37440, Note_off_c, 2, 58, 54
4, 37440, Note_on_c, 2, 59, 64
4, 37560, Note_off_c, 2, 59, 49
4, 37560, Note_on_c, 2, 58, 64
4, 37680, Note_off_c, 2, 58, 54
4, 37680, Note_on_c, 2, 56, 64
4, 37920, Note_off_c, 2, 56, 44
4, 37920, Note_on_c, 2, 63, 64
4, 38160, Note_off_c, 2, 63, 38
4, 38160, Note_on_c, 2, 58, 64
4, 38520, Note_off_c, 2, 58, 49
4, 38520, Note_on_c, 2, 60, 64
4, 38640, Note_off_c, 2, 60, 53
4, 38640, Note_on_c, 2, 62, 64
4, 38880, Note_off_c, 2, 62, 54
4, 38880, Note_on_c, 2, 63, 64
4, 39000, Note_off_c, 2, 63, 49
4, 39000, Note_on_c, 2, 59, 64
4, 39120, Note_off_c, 2, 59, 34
4, 39120, Note_on_c, 2, 54, 64
4, 39240, Note_off_c, 2, 54, 49
4, 39240, Note_on_c, 2, 56, 64
4, 39360, Note_off_c, 2, 56, 58
4, 39360, Note_on_c, 2, 58, 64
4, 39600, Note_off_c, 2, 58, 55
4, 39600, Note_on_c, 2, 51, 64
4, 39840, Note_off_c, 2, 51, 40
4, 39840, Note_on_c, 2, 56, 64
4, 39960, Note_off_c, 2, 56, 51
4, 39960, Note_on_c, 2, 58, 64
4, 40080, Note_off_c, 2, 58, 59
4, 40080, Note_on_c, 2, 59, 64
4, 40320, Note_off_c, 2, 59, 51
4, 40320, Note_on_c, 2, 58, 64
4, 40800, Note_off_c, 2, 58, 68
4, 41760, Note_on_c, 2, 46, 64
4, 42000, Note_off_c, 2, 46, 47
4, 42000, Note_on_c, 2, 39, 64
4, 42360, Note_off_c, 2, 39, 61
4, 42360, Note_on_c, 2, 38, 64
4, 42480, Note_off_c, 2, 38, 37
4, 42480, Note_on_c, 2, 39, 64
4, 42600, Note_off_c, 2, 39, 53
4, 42600, Note_on_c, 2, 41, 64
4, 42720, Note_off_c, 2, 41, 48
4, 42720, Note_on_c, 2, 42, 64
4, 42840, Note_off_c, 2, 42, 57
4, 42840, Note_on_c, 2, 41, 64
4, 42960, Note_off_c, 2, 41, 61
4, 42960, Note_on_c, 2, 39, 64
4, 43200, Note_off_c, 2, 39, 51
4, 43200, Note_on_c, 2, 46, 64
4, 43440, Note_off_c, 2, 46, 68
4, 43440, Note_on_c, 2, 39, 64
4, 43800, Note_off_c, 2, 39, 55
4, 43800, Note_on_c, 2, 41, 64
4, 43920, Note_off_c, 2, 41, 49
4, 43920, Note_on_c, 2, 43, 64
4, 44160, Note_off_c, 2, 43, 17
4, 44160, Note_on_c, 2, 44, 64
4, 44400, Note_off_c, 2, 44, 55
4, 44400, Note_on_c, 2, 46, 64
4, 44640, Note_off_c, 2, 46, 58
4, 44640, Note_on_c, 2, 47, 64
4, 44760, Note_off_c, 2, 47, 43
4, 44760, Note_on_c, 2, 49, 64
4, 44880, Note_off_c, 2, 49, 68
4, 44880, Note_on_c, 2, 47, 64
4, 45000, Note_off_c, 2, 47, 46
4, 45000, Note_on_c, 2, 46, 64
4, 45120, Note_off_c, 2, 46, 57
4, 45120, Note_on_c, 2, 44, 64
4, 45240, Note_off_c, 2, 44, 52
4, 45240, Note_on_c, 2, 46, 64
4, 45360, Note_off_c, 2, 46, 68
4, 45360, Note_on_c, 2, 47, 64
4, 45480, Note_off_c, 2, 47, 37
4, 45480, Note_on_c, 2, 53, 64
4, 45540, Note_off_c, 2, 53, 49
4, 45540, Note_on_c, 2, 49, 64
4, 45600, Note_off_c, 2, 49, 49
4, 45600, Note_on_c, 2, 56, 64
4, 45840, Note_off_c, 2, 56, 51
4, 45840, Note_on_c, 2, 47, 64
4, 45960, Note_off_c, 2, 47, 36
4, 45960, Note_on_c, 2, 49, 64
4, 46080, Note_off_c, 2, 49, 55
4, 46080, Note_on_c, 2, 51, 64
4, 46200, Note_off_c, 2, 51, 51
4, 46200, Note_on_c, 2, 50, 64
4, 46320, Note_off_c, 2, 50, 46
4, 46320, Note_on_c, 2, 51, 64
4, 46440, Note_off_c, 2, 51, 57
4, 46440, Note_on_c, 2, 53, 64
4, 46560, Note_off_c, 2, 53, 63
4, 46560, Note_on_c, 2, 54, 64
4, 46680, Note_off_c, 2, 54, 52
4, 46680, Note_on_c, 2, 56, 64
4, 46800, Note_off_c, 2, 56, 59
4, 46800, Note_on_c, 2, 53, 64
4, 46920, Note_off_c, 2, 53, 42
4, 46920, Note_on_c, 2, 55, 64
4, 47040, Note_off_c, 2, 55, 49
4, 47040, Note_on_c, 2, 56, 64
4, 47160, Note_off_c, 2, 56, 49
4, 47160, Note_on_c, 2, 58, 64
4, 47280, Note_off_c, 2, 58, 57
4, 47280, Note_on_c, 2, 56, 64
4, 47400, Note_off_c, 2, 56, 52
4, 47400, Note_on_c, 2, 54, 64
4, 47520, Note_off_c, 2, 54, 42
4, 47520, Note_on_c, 2, 53, 64
4, 47640, Note_off_c, 2, 53, 58
4, 47640, Note_on_c, 2, 51, 64
4, 47760, Note_off_c, 2, 51, 49
4, 47760, Note_on_c, 2, 50, 64
4, 47880, Note_off_c, 2, 50, 34
4, 47880, Note_on_c, 2, 59, 64
4, 48000, Note_off_c, 2, 59, 32
4, 48000, Note_on_c, 2, 58, 64
4, 48120, Note_off_c, 2, 58, 52
4, 48120, Note_on_c, 2, 56, 64
4, 48240, Note_off_c, 2, 56, 49
4, 48240, Note_on_c, 2, 54, 64
4, 48360, Note_off_c, 2, 54, 48
4, 48360, Note_on_c, 2, 53, 64
4, 48480, Note_off_c, 2, 53, 39
4, 48480, Note_on_c, 2, 51, 64
4, 48600, Note_off_c, 2, 51, 63
4, 48600, Note_on_c, 2, 49, 64
4, 48720, Note_off_c, 2, 49, 54
4, 48720, Note_on_c, 2, 47, 64
4, 48960, Note_off_c, 2, 47, 36
4, 48960, Note_on_c, 2, 46, 64
4, 49200, Note_off_c, 2, 46, 39
4, 49200, Note_on_c, 2, 51, 64
4, 49560, Note_off_c, 2, 51, 52
4, 49560, Note_on_c, 2, 52, 64
4, 49680, Note_off_c, 2, 52, 62
4, 49680, Note_on_c, 2, 51, 64
4, 49800, Note_off_c, 2, 51, 54
4, 49800, Note_on_c, 2, 49, 64
4, 49920, Note_off_c, 2, 49, 55
4, 49920, Note_on_c, 2, 47, 64
4, 50040, Note_off_c, 2, 47, 41
4, 50040, Note_on_c, 2, 49, 64
4, 50160, Note_off_c, 2, 49, 63
4, 50160, Note_on_c, 2, 51, 64
4, 50400, Note_off_c, 2, 51, 54
4, 50400, Note_on_c, 2, 44, 64
4, 50520, Note_off_c, 2, 44, 42
4, 50520, Note_on_c, 2, 46, 64
4, 50640, Note_off_c, 2, 46, 58
4, 50640, Note_on_c, 2, 47, 64
4, 50880, Note_off_c, 2, 47, 41
4, 50880, Note_on_c, 2, 49, 64
4, 51120, Note_off_c, 2, 49, 58
4, 51120, Note_on_c, 2, 42, 64
4, 51480, Note_off_c, 2, 42, 38
4, 51480, Note_on_c, 2, 41, 64
4, 51600, Note_off_c, 2, 41, 34
4, 51600, Note_on_c, 2, 42, 64
4, 51720, Note_off_c, 2, 42, 55
4, 51720, Note_on_c, 2, 44, 64
4, 51840, Note_off_c, 2, 44, 55
4, 51840, Note_on_c, 2, 46, 64
4, 51960, Note_off_c, 2, 46, 59
4, 51960, Note_on_c, 2, 44, 64
4, 52080, Note_off_c, 2, 44, 62
4, 52080, Note_on_c, 2, 42, 64
4, 52200, Note_off_c, 2, 42, 53
4, 52200, Note_on_c, 2, 52, 64
4, 52320, Note_off_c, 2, 52, 7
4, 52320, Note_on_c, 2, 51, 64
4, 52800, Note_off_c, 2, 51, 57
4, 52920, Note_on_c, 2, 49, 64
4, 53040, Note_off_c, 2, 49, 61
4, 53040, Note_on_c, 2, 47, 64
4, 53160, Note_off_c, 2, 47, 45
4, 53160, Note_on_c, 2, 46, 64
4, 53280, Note_off_c, 2, 46, 52
4, 53280, Note_on_c, 2, 47, 64
4, 53520, Note_off_c, 2, 47, 44
4, 53520, Note_on_c, 2, 59, 64
4, 53640, Note_off_c, 2, 59, 36
4, 53640, Note_on_c, 2, 58, 64
4, 53760, Note_off_c, 2, 58, 48
4, 53760, Note_on_c, 2, 56, 64
4, 53880, Note_off_c, 2, 56, 61
4, 53880, Note_on_c, 2, 58, 64
4, 54000, Note_off_c, 2, 58, 59
4, 54000, Note_on_c, 2, 59, 64
4, 54120, Note_off_c, 2, 59, 34
4, 54120, Note_on_c, 2, 56, 64
4, 54240, Note_off_c, 2, 56, 59
4, 54240, Note_on_c, 2, 58, 64
4, 54600, Note_off_c, 2, 58, 44
4, 54600, Note_on_c, 2, 56, 64
4, 54720, Note_off_c, 2, 56, 58
4, 54720, Note_on_c, 2, 54, 64
4, 54840, Note_off_c, 2, 54, 55
4, 54840, Note_on_c, 2, 56, 64
4, 54960, Note_off_c, 2, 56, 54
4, 54960, Note_on_c, 2, 58, 64
4, 55200, Note_off_c, 2, 58, 62
4, 55200, Note_on_c, 2, 51, 64
4, 55320, Note_off_c, 2, 51, 53
4, 55320, Note_on_c, 2, 53, 64
4, 55440, Note_off_c, 2, 53, 24
4, 55440, Note_on_c, 2, 55, 64
4, 55680, Note_off_c, 2, 55, 43
4, 55680, Note_on_c, 2, 56, 64
4, 55800, Note_off_c, 2, 56, 41
4, 55800, Note_on_c, 2, 54, 64
4, 55920, Note_off_c, 2, 54, 50
4, 55920, Note_on_c, 2, 53, 64
4, 56040, Note_off_c, 2, 53, 61
4, 56040, Note_on_c, 2, 51, 64
4, 56160, Note_off_c, 2, 51, 53
4, 56160, Note_on_c, 2, 50, 64
4, 56280, Note_off_c, 2, 50, 27
4, 56280, Note_on_c, 2, 51, 64
4, 56400, Note_off_c, 2, 51, 57
4, 56400, Note_on_c, 2, 46, 64
4, 56520, Note_off_c, 2, 46, 43
4, 56520, Note_on_c, 2, 58, 64
4, 56640, Note_off_c, 2, 58, 55
4, 56640, Note_on_c, 2, 59, 64
4, 56760, Note_off_c, 2, 59, 53
4, 56760, Note_on_c, 2, 51, 64
4, 56880, Note_off_c, 2, 51, 57
4, 56880, Note_on_c, 2, 53, 64
4, 57000, Note_off_c, 2, 53, 27
4, 57000, Note_on_c, 2, 55, 64
4, 57120, Note_off_c, 2, 55, 49
4, 57120, Note_on_c, 2, 56, 64
4, 57240, Note_off_c, 2, 56, 42
4, 57240, Note_on_c, 2, 53, 64
4, 57360, Note_off_c, 2, 53, 50
4, 57360, Note_on_c, 2, 50, 64
4, 57480, Note_off_c, 2, 50, 34
4, 57480, Note_on_c, 2, 51, 64
4, 57600, Note_off_c, 2, 51, 50
4, 57600, Note_on_c, 2, 48, 64
4, 57720, Note_off_c, 2, 48, 30
4, 57720, Note_on_c, 2, 50, 64
4, 57840, Note_off_c, 2, 50, 44
4, 57840, Note_on_c, 2, 51, 64
4, 57960, Note_off_c, 2, 51, 70
4, 57960, Note_on_c, 2, 39, 64
4, 58080, Note_off_c, 2, 39, 49
4, 58080, Note_on_c, 2, 46, 64
4, 58320, Note_off_c, 2, 46, 52
4, 58560, Note_on_c, 2, 58, 64
4, 59040, Note_off_c, 2, 58, 66
4, 59040, Note_on_c, 2, 63, 64
4, 59760, Note_off_c, 2, 63, 53
4, 59760, Note_on_c, 2, 64, 64
4, 60000, Note_off_c, 2, 64, 21
4, 60000, Note_on_c, 2, 63, 64
4, 60240, Note_off_c, 2, 63, 46
4, 60240, Note_on_c, 2, 61, 64
4, 60480, Note_off_c, 2, 61, 52
4, 60480, Note_on_c, 2, 59, 64
4, 60720, Note_off_c, 2, 59, 52
4, 60720, Note_on_c, 2, 61, 64
4, 60960, Note_off_c, 2, 61, 52
4, 60960, Note_on_c, 2, 63, 64
4, 61440, Note_off_c, 2, 63, 57
4, 61440, Note_on_c, 2, 56, 64
4, 61920, Note_off_c, 2, 56, 45
4, 61920, Note_on_c, 2, 61, 64
4, 62640, Note_off_c, 2, 61, 52
4, 62640, Note_on_c, 2, 59, 64
4, 62880, Note_off_c, 2, 59, 40
4, 62880, Note_on_c, 2, 58, 64
4, 63360, Note_off_c, 2, 58, 58
4, 63360, Note_on_c, 2, 56, 64
4, 63600, Note_off_c, 2, 56, 58
4, 63600, Note_on_c, 2, 61, 64
4, 63960, Note_off_c, 2, 61, 65
4, 63960, Note_on_c, 2, 63, 64
4, 64080, Note_off_c, 2, 63, 44
4, 64080, Note_on_c, 2, 61, 64
4, 64200, Note_off_c, 2, 61, 63
4, 64200, Note_on_c, 2, 59, 64
4, 64320, Note_off_c, 2, 59, 52
4, 64320, Note_on_c, 2, 58, 64
4, 64440, Note_off_c, 2, 58, 49
4, 64440, Note_on_c, 2, 59, 64
4, 64560, Note_off_c, 2, 59, 45
4, 64560, Note_on_c, 2, 61, 64
4, 64800, Note_off_c, 2, 61, 72
4, 64800, Note_on_c, 2, 54, 64
4, 65040, Note_off_c, 2, 54, 34
4, 65040, Note_on_c, 2, 59, 64
4, 65400, Note_off_c, 2, 59, 57
4, 65400, Note_on_c, 2, 58, 64
4, 65520, Note_off_c, 2, 58, 52
4, 65520, Note_on_c, 2, 56, 64
4, 65760, Note_off_c, 2, 56, 48
4, 65760, Note_on_c, 2, 54, 64
4, 65880, Note_off_c, 2, 54, 42
4, 65880, Note_on_c, 2, 52, 64
4, 66000, Note_off_c, 2, 52, 37
4, 66000, Note_on_c, 2, 51, 64
4, 66060, Note_off_c, 2, 51, 58
4, 66060, Note_on_c, 2, 49, 64
4, 66120, Note_off_c, 2, 49, 48
4, 66120, Note_on_c, 2, 51, 64
4, 66180, Note_off_c, 2, 51, 39
4, 66180, Note_on_c, 2, 52, 64
4, 66240, Note_off_c, 2, 52, 37
4, 66240, Note_on_c, 2, 46, 64
4, 66360, Note_off_c, 2, 46, 48
4, 66360, Note_on_c, 2, 42, 64
4, 66480, Note_off_c, 2, 42, 61
4, 66480, Note_on_c, 2, 44, 64
4, 66600, Note_off_c, 2, 44, 62
4, 66600, Note_on_c, 2, 46, 64
4, 66720, Note_off_c, 2, 46, 68
4, 66720, Note_on_c, 2, 47, 64
4, 66840, Note_off_c, 2, 47, 30
4, 66840, Note_on_c, 2, 49, 64
4, 66960, Note_off_c, 2, 49, 59
4, 66960, Note_on_c, 2, 51, 64
4, 67080, Note_off_c, 2, 51, 59
4, 67080, Note_on_c, 2, 52, 64
4, 67140, Note_off_c, 2, 52, 34
4, 67140, Note_on_c, 2, 54, 64
4, 67200, Note_off_c, 2, 54, 52
4, 67200, Note_on_c, 2, 56, 64
4, 67320, Note_off_c, 2, 56, 57
4, 67320, Note_on_c, 2, 58, 64
4, 67380, Note_off_c, 2, 58, 61
4, 67380, Note_on_c, 2, 59, 64
4, 67440, Note_off_c, 2, 59, 31
4, 67440, Note_on_c, 2, 49, 64
4, 67560, Note_off_c, 2, 49, 54
4, 67560, Note_on_c, 2, 51, 64
4, 67620, Note_off_c, 2, 51, 30
4, 67620, Note_on_c, 2, 52, 64
4, 67680, Note_off_c, 2, 52, 46
4, 67680, Note_on_c, 2, 42, 64
4, 67800, Note_off_c, 2, 42, 52
4, 67800, Note_on_c, 2, 54, 64
4, 68040, Note_off_c, 2, 54, 49
4, 68040, Note_on_c, 2, 55, 64
4, 68160, Note_off_c, 2, 55, 52
4, 68160, Note_on_c, 2, 56, 64
4, 68280, Note_off_c, 2, 56, 57
4, 68280, Note_on_c, 2, 55, 64
4, 68400, Note_off_c, 2, 55, 62
4, 68400, Note_on_c, 2, 56, 64
4, 68520, Note_off_c, 2, 56, 62
4, 68520, Note_on_c, 2, 58, 64
4, 68640, Note_off_c, 2, 58, 51
4, 68640, Note_on_c, 2, 59, 64
4, 68760, Note_off_c, 2, 59, 63
4, 68760, Note_on_c, 2, 58, 64
4, 68880, Note_off_c, 2, 58, 55
4, 68880, Note_on_c, 2, 56, 64
4, 69000, Note_off_c, 2, 56, 54
4, 69000, Note_on_c, 2, 54, 64
4, 69120, Note_off_c, 2, 54, 46
4, 69120, Note_on_c, 2, 53, 64
4, 69240, Note_off_c, 2, 53, 34
4, 69240, Note_on_c, 2, 54, 64
4, 69360, Note_off_c, 2, 54, 42
4, 69360, Note_on_c, 2, 53, 64
4, 69480, Note_off_c, 2, 53, 39
4, 69480, Note_on_c, 2, 51, 64
4, 69600, Note_off_c, 2, 51, 59
4, 69600, Note_on_c, 2, 50, 64
4, 69720, Note_off_c, 2, 50, 43
4, 69720, Note_on_c, 2, 62, 64
4, 69780, Note_off_c, 2, 62, 46
4, 69780, Note_on_c, 2, 63, 64
4, 69840, Note_off_c, 2, 63, 45
4, 69840, Note_on_c, 2, 64, 64
4, 69960, Note_off_c, 2, 64, 2
4, 69960, Note_on_c, 2, 58, 64
4, 70080, Note_off_c, 2, 58, 30
4, 70080, Note_on_c, 2, 59, 64
4, 70200, Note_off_c, 2, 59, 31
4, 70200, Note_on_c, 2, 61, 74
4, 70222, Note_off_c, 2, 61, 44
4, 70222, Note_on_c, 2, 60, 50
4, 70244, Note_off_c, 2, 60, 41
4, 70244, Note_on_c, 2, 61, 54
4, 70266, Note_off_c, 2, 61, 40
4, 70266, Note_on_c, 2, 60, 57
4, 70288, Note_off_c, 2, 60, 17
4, 70288, Note_on_c, 2, 59, 61
4, 70310, Note_off_c, 2, 59, 39
4, 70310, Note_on_c, 2, 60, 66
4, 70323, Note_on_c, 2, 61, 64
4, 70335, Note_off_c, 2, 60, 48
4, 70443, Note_off_c, 2, 61, 52
4, 70443, Note_on_c, 2, 58, 64
4, 70563, Note_off_c, 2, 58, 52
4, 70563, Note_on_c, 2, 55, 64
4, 70683, Note_off_c, 2, 55, 36
4, 70683, Note_on_c, 2, 56, 64
4, 70923, Note_off_c, 2, 56, 50
4, 70923, Note_on_c, 2, 55, 64
4, 71043, Note_off_c, 2, 55, 41
4, 71043, Note_on_c, 2, 56, 64
4, 71163, Note_off_c, 2, 56, 53
4, 71163, Note_on_c, 2, 54, 64
4, 71283, Note_off_c, 2, 54, 46
4, 71283, Note_on_c, 2, 52, 64
4, 71403, Note_off_c, 2, 52, 37
4, 71403, Note_on_c, 2, 51, 64
4, 71523, Note_off_c, 2, 51, 52
4, 71523, Note_on_c, 2, 49, 64
4, 71643, Note_off_c, 2, 49, 51
4, 71643, Note_on_c, 2, 50, 64
4, 71763, Note_off_c, 2, 50, 32
4, 71763, Note_on_c, 2, 51, 64
4, 71883, Note_off_c, 2, 51, 40
4, 71883, Note_on_c, 2, 46, 64
4, 72003, Note_off_c, 2, 46, 40
4, 72003, Note_on_c, 2, 47, 64
4, 72123, Note_off_c, 2, 47, 21
4, 72123, Note_on_c, 2, 48, 64
4, 72243, Note_off_c, 2, 48, 32
4, 72243, Note_on_c, 2, 49, 64
4, 72363, Note_off_c, 2, 49, 70
4, 72363, Note_on_c, 2, 44, 64
4, 72483, Note_off_c, 2, 44, 57
4, 72483, Note_on_c, 2, 46, 64
4, 73083, Note_off_c, 2, 46, 55
4, 73083, Note_on_c, 2, 53, 64
4, 73203, Note_off_c, 2, 53, 54
4, 73203, Note_on_c, 2, 58, 64
4, 73563, Note_off_c, 2, 58, 58
4, 73563, Note_on_c, 2, 59, 64
4, 73683, Note_off_c, 2, 59, 46
4, 73683, Note_on_c, 2, 58, 64
4, 73803, Note_off_c, 2, 58, 49
4, 73803, Note_on_c, 2, 56, 64
4, 73923, Note_off_c, 2, 56, 53
4, 73923, Note_on_c, 2, 54, 64
4, 74043, Note_off_c, 2, 54, 46
4, 74043, Note_on_c, 2, 56, 64
4, 74163, Note_off_c, 2, 56, 53
4, 74163, Note_on_c, 2, 58, 64
4, 74403, Note_off_c, 2, 58, 54
4, 74403, Note_on_c, 2, 51, 64
4, 74523, Note_off_c, 2, 51, 53
4, 74523, Note_on_c, 2, 53, 64
4, 74583, Note_off_c, 2, 53, 43
4, 74583, Note_on_c, 2, 54, 64
4, 74643, Note_off_c, 2, 54, 52
4, 74643, Note_on_c, 2, 56, 64
4, 75003, Note_off_c, 2, 56, 54
4, 75003, Note_on_c, 2, 54, 64
4, 75123, Note_off_c, 2, 54, 50
4, 75123, Note_on_c, 2, 53, 64
4, 75243, Note_off_c, 2, 53, 30
4, 75243, Note_on_c, 2, 62, 64
4, 75363, Note_off_c, 2, 62, 40
4, 75483, Note_on_c, 2, 65, 64
4, 75543, Note_off_c, 2, 65, 1
4, 75543, Note_on_c, 2, 66, 64
4, 75603, Note_off_c, 2, 66, 15
4, 75603, Note_on_c, 2, 65, 64
4, 75723, Note_off_c, 2, 65, 54
4, 75723, Note_on_c, 2, 63, 64
4, 75843, Note_off_c, 2, 63, 43
4, 75843, Note_on_c, 2, 62, 64
4, 75963, Note_off_c, 2, 62, 55
4, 75963, Note_on_c, 2, 63, 64
4, 76203, Note_off_c, 2, 63, 48
4, 76203, Note_on_c, 2, 61, 64
4, 76443, Note_off_c, 2, 61, 61
4, 76443, Note_on_c, 2, 63, 64
4, 76503, Note_off_c, 2, 63, 34
4, 76503, Note_on_c, 2, 64, 64
4, 76563, Note_off_c, 2, 64, 52
4, 76683, Note_on_c, 2, 61, 64
4, 76803, Note_off_c, 2, 61, 63
4, 76803, Note_on_c, 2, 59, 64
4, 76923, Note_off_c, 2, 59, 57
4, 76923, Note_on_c, 2, 61, 64
4, 77043, Note_off_c, 2, 61, 59
4, 77043, Note_on_c, 2, 59, 64
4, 77163, Note_off_c, 2, 59, 63
4, 77163, Note_on_c, 2, 58, 64
4, 77283, Note_off_c, 2, 58, 57
4, 77283, Note_on_c, 2, 56, 64
4, 77403, Note_off_c, 2, 56, 53
4, 77403, Note_on_c, 2, 54, 64
4, 77523, Note_off_c, 2, 54, 57
4, 77523, Note_on_c, 2, 52, 64
4, 77643, Note_off_c, 2, 52, 42
4, 77643, Note_on_c, 2, 51, 64
4, 77763, Note_off_c, 2, 51, 44
4, 77763, Note_on_c, 2, 49, 64
4, 77883, Note_off_c, 2, 49, 51
4, 77883, Note_on_c, 2, 61, 64
4, 77943, Note_off_c, 2, 61, 62
4, 77943, Note_on_c, 2, 59, 64
4, 78003, Note_off_c, 2, 59, 49
4, 78003, Note_on_c, 2, 58, 64
4, 78123, Note_off_c, 2, 58, 65
4, 78123, Note_on_c, 2, 56, 64
4, 78243, Note_off_c, 2, 56, 49
4, 78243, Note_on_c, 2, 55, 64
4, 78363, Note_off_c, 2, 55, 40
4, 78363, Note_on_c, 2, 56, 64
4, 78603, Note_off_c, 2, 56, 52
4, 78603, Note_on_c, 2, 54, 64
4, 78723, Note_off_c, 2, 54, 53
4, 78723, Note_on_c, 2, 53, 64
4, 79323, Note_off_c, 2, 53, 49
4, 79323, Note_on_c, 2, 54, 64
4, 79443, Note_off_c, 2, 54, 49
4, 79443, Note_on_c, 2, 53, 64
4, 79563, Note_off_c, 2, 53, 38
4, 79563, Note_on_c, 2, 51, 64
4, 79683, Note_off_c, 2, 51, 52
4, 79683, Note_on_c, 2, 50, 64
4, 80283, Note_off_c, 2, 50, 39
4, 80283, Note_on_c, 2, 51, 64
4, 80403, Note_off_c, 2, 51, 54
4, 80403, Note_on_c, 2, 50, 64
4, 80523, Note_off_c, 2, 50, 24
4, 80523, Note_on_c, 2, 48, 64
4, 80643, Note_off_c, 2, 48, 44
4, 80643, Note_on_c, 2, 46, 64
4, 81243, Note_off_c, 2, 46, 38
4, 81243, Note_on_c, 2, 44, 64
4, 81363, Note_off_c, 2, 44, 52
4, 81363, Note_on_c, 2, 42, 64
4, 81483, Note_off_c, 2, 42, 38
4, 81483, Note_on_c, 2, 41, 64
4, 81603, Note_off_c, 2, 41, 22
4, 81603, Note_on_c, 2, 39, 64
4, 81723, Note_off_c, 2, 39, 32
4, 81723, Note_on_c, 2, 49, 64
4, 81843, Note_off_c, 2, 49, 43
4, 81843, Note_on_c, 2, 47, 64
4, 81963, Note_off_c, 2, 47, 51
4, 81963, Note_on_c, 2, 46, 64
4, 82083, Note_off_c, 2, 46, 54
4, 82083, Note_on_c, 2, 44, 64
4, 82203, Note_off_c, 2, 44, 40
4, 82203, Note_on_c, 2, 54, 64
4, 82323, Note_off_c, 2, 54, 14
4, 82323, Note_on_c, 2, 53, 64
4, 82443, Note_off_c, 2, 53, 52
4, 82443, Note_on_c, 2, 51, 64
4, 82563, Note_off_c, 2, 51, 57
4, 82563, Note_on_c, 2, 58, 64
4, 82803, Note_off_c, 2, 58, 62
4, 82803, Note_on_c, 2, 46, 64
4, 83043, Note_off_c, 2, 46, 47
4, 83043, Note_on_c, 2, 39, 64
4, 83523, Note_off_c, 2, 39, 79
4, 83523, End_track
0, 0, End_of_file
