0, 0, Header, 1, 2, 240
1, 0, Start_track
1, 0, Time_signature, 2, 2, 24, 8
1, 0, Tempo, 750000
1, 27360, Text_t, "B Section"
1, 67012, Tempo, 779221
1, 67084, Tempo, 810811
1, 67200, Tempo, 895522
1, 67276, Tempo, 1200000
1, 67276, End_track
2, 0, Start_track
2, 240, Note_on_c, 0, 53, 64
2, 360, Note_on_c, 0, 68, 64
2, 360, Note_on_c, 0, 65, 64
2, 480, Note_off_c, 0, 65, 64
2, 480, Note_off_c, 0, 68, 64
2, 480, Note_off_c, 0, 53, 64
2, 480, Note_on_c, 0, 65, 64
2, 480, Note_on_c, 0, 68, 64
2, 480, Note_on_c, 0, 60, 64
2, 600, Note_off_c, 0, 68, 64
2, 600, Note_off_c, 0, 65, 64
2, 600, Note_on_c, 0, 64, 64
2, 600, Note_on_c, 0, 67, 64
2, 720, Note_off_c, 0, 67, 64
2, 720, Note_off_c, 0, 64, 64
2, 720, Note_off_c, 0, 60, 64
2, 720, Note_on_c, 0, 48, 64
2, 840, Note_on_c, 0, 70, 64
2, 840, Note_on_c, 0, 67, 64
2, 960, Note_off_c, 0, 67, 64
2, 960, Note_off_c, 0, 70, 64
2, 960, Note_off_c, 0, 48, 64
2, 960, Note_on_c, 0, 67, 64
2, 960, Note_on_c, 0, 70, 64
2, 960, Note_on_c, 0, 53, 64
2, 1080, Note_off_c, 0, 70, 64
2, 1080, Note_off_c, 0, 67, 64
2, 1080, Note_on_c, 0, 65, 64
2, 1080, Note_on_c, 0, 68, 64
2, 1200, Note_off_c, 0, 68, 64
2, 1200, Note_off_c, 0, 65, 64
2, 1200, Note_off_c, 0, 53, 64
2, 1200, Note_on_c, 0, 41, 64
2, 1320, Note_on_c, 0, 80, 64
2, 1320, Note_on_c, 0, 72, 64
2, 1440, Note_off_c, 0, 72, 64
2, 1440, Note_off_c, 0, 80, 64
2, 1440, Note_off_c, 0, 41, 64
2, 1440, Note_on_c, 0, 72, 64
2, 1440, Note_on_c, 0, 80, 64
2, 1440, Note_on_c, 0, 46, 64
2, 1560, Note_off_c, 0, 80, 64
2, 1560, Note_off_c, 0, 72, 64
2, 1560, Note_on_c, 0, 70, 64
2, 1560, Note_on_c, 0, 79, 64
2, 1680, Note_off_c, 0, 79, 64
2, 1680, Note_off_c, 0, 70, 64
2, 1680, Note_off_c, 0, 46, 64
2, 1680, Note_on_c, 0, 47, 64
2, 1800, Note_on_c, 0, 77, 64
2, 1800, Note_on_c, 0, 68, 64
2, 1920, Note_off_c, 0, 68, 64
2, 1920, Note_off_c, 0, 77, 64
2, 1920, Note_off_c, 0, 47, 64
2, 1920, Note_on_c, 0, 68, 64
2, 1920, Note_on_c, 0, 77, 64
2, 1920, Note_on_c, 0, 48, 64
2, 2040, Note_off_c, 0, 77, 64
2, 2040, Note_off_c, 0, 68, 64
2, 2040, Note_on_c, 0, 67, 64
2, 2040, Note_on_c, 0, 76, 64
2, 2160, Note_off_c, 0, 76, 64
2, 2160, Note_off_c, 0, 67, 64
2, 2160, Note_off_c, 0, 48, 64
2, 2160, Note_on_c, 0, 64, 64
2, 2220, Note_on_c, 0, 67, 64
2, 2280, Note_off_c, 0, 67, 64
2, 2280, Note_off_c, 0, 64, 64
2, 2280, Note_on_c, 0, 60, 64
2, 2340, Note_off_c, 0, 60, 64
2, 2340, Note_on_c, 0, 67, 64
2, 2400, Note_off_c, 0, 67, 64
2, 2400, Note_on_c, 0, 65, 64
2, 2460, Note_on_c, 0, 68, 64
2, 2520, Note_off_c, 0, 68, 64
2, 2520, Note_off_c, 0, 65, 64
2, 2520, Note_on_c, 0, 60, 64
2, 2580, Note_off_c, 0, 60, 64
2, 2580, Note_on_c, 0, 68, 64
2, 2640, Note_off_c, 0, 68, 64
2, 2640, Note_on_c, 0, 62, 64
2, 2700, Note_on_c, 0, 65, 64
2, 2760, Note_off_c, 0, 65, 64
2, 2760, Note_off_c, 0, 62, 64
2, 2760, Note_on_c, 0, 60, 64
2, 2820, Note_off_c, 0, 60, 64
2, 2820, Note_on_c, 0, 65, 64
2, 2880, Note_off_c, 0, 65, 64
2, 2880, Note_on_c, 0, 64, 64
2, 2940, Note_on_c, 0, 67, 64
2, 3000, Note_off_c, 0, 67, 64
2, 3000, Note_off_c, 0, 64, 64
2, 3000, Note_on_c, 0, 60, 64
2, 3060, Note_off_c, 0, 60, 64
2, 3060, Note_on_c, 0, 67, 64
2, 3120, Note_off_c, 0, 67, 64
2, 3120, Note_on_c, 0, 67, 64
2, 3180, Note_on_c, 0, 70, 64
2, 3240, Note_off_c, 0, 70, 64
2, 3240, Note_off_c, 0, 67, 64
2, 3240, Note_on_c, 0, 60, 64
2, 3300, Note_off_c, 0, 60, 64
2, 3300, Note_on_c, 0, 70, 64
2, 3360, Note_off_c, 0, 70, 64
2, 3360, Note_on_c, 0, 65, 64
2, 3420, Note_on_c, 0, 68, 64
2, 3480, Note_off_c, 0, 68, 64
2, 3480, Note_off_c, 0, 65, 64
2, 3480, Note_on_c, 0, 60, 64
2, 3540, Note_off_c, 0, 60, 64
2, 3540, Note_on_c, 0, 68, 64
2, 3600, Note_off_c, 0, 68, 64
2, 3600, Note_on_c, 0, 62, 64
2, 3660, Note_on_c, 0, 65, 64
2, 3720, Note_off_c, 0, 65, 64
2, 3720, Note_off_c, 0, 62, 64
2, 3720, Note_on_c, 0, 60, 64
2, 3780, Note_off_c, 0, 60, 64
2, 3780, Note_on_c, 0, 65, 64
2, 3840, Note_off_c, 0, 65, 64
2, 3840, Note_on_c, 0, 64, 64
2, 3900, Note_on_c, 0, 67, 64
2, 3960, Note_off_c, 0, 67, 64
2, 3960, Note_off_c, 0, 64, 64
2, 3960, Note_on_c, 0, 60, 64
2, 4020, Note_off_c, 0, 60, 64
2, 4020, Note_on_c, 0, 67, 64
2, 4080, Note_off_c, 0, 67, 64
2, 4080, Note_on_c, 0, 53, 64
2, 4200, Note_on_c, 0, 68, 64
2, 4200, Note_on_c, 0, 65, 64
2, 4320, Note_off_c, 0, 65, 64
2, 4320, Note_off_c, 0, 68, 64
2, 4320, Note_off_c, 0, 53, 64
2, 4320, Note_on_c, 0, 65, 64
2, 4320, Note_on_c, 0, 68, 64
2, 4320, Note_on_c, 0, 60, 64
2, 4440, Note_off_c, 0, 68, 64
2, 4440, Note_off_c, 0, 65, 64
2, 4440, Note_on_c, 0, 64, 64
2, 4440, Note_on_c, 0, 67, 64
2, 4560, Note_off_c, 0, 67, 64
2, 4560, Note_off_c, 0, 64, 64
2, 4560, Note_off_c, 0, 60, 64
2, 4560, Note_on_c, 0, 48, 64
2, 4680, Note_on_c, 0, 70, 64
2, 4680, Note_on_c, 0, 67, 64
2, 4800, Note_off_c, 0, 67, 64
2, 4800, Note_off_c, 0, 70, 64
2, 4800, Note_off_c, 0, 48, 64
2, 4800, Note_on_c, 0, 67, 64
2, 4800, Note_on_c, 0, 70, 64
2, 4800, Note_on_c, 0, 53, 64
2, 4920, Note_off_c, 0, 70, 64
2, 4920, Note_off_c, 0, 67, 64
2, 4920, Note_on_c, 0, 65, 64
2, 4920, Note_on_c, 0, 68, 64
2, 5040, Note_off_c, 0, 68, 64
2, 5040, Note_off_c, 0, 65, 64
2, 5040, Note_off_c, 0, 53, 64
2, 5040, Note_on_c, 0, 41, 64
2, 5160, Note_on_c, 0, 72, 64
2, 5160, Note_on_c, 0, 68, 64
2, 5280, Note_off_c, 0, 68, 64
2, 5280, Note_off_c, 0, 72, 64
2, 5280, Note_off_c, 0, 41, 64
2, 5280, Note_on_c, 0, 68, 64
2, 5280, Note_on_c, 0, 72, 64
2, 5280, Note_on_c, 0, 46, 64
2, 5400, Note_off_c, 0, 72, 64
2, 5400, Note_off_c, 0, 68, 64
2, 5400, Note_on_c, 0, 70, 64
2, 5400, Note_on_c, 0, 73, 64
2, 5520, Note_off_c, 0, 73, 64
2, 5520, Note_off_c, 0, 70, 64
2, 5520, Note_off_c, 0, 46, 64
2, 5520, Note_on_c, 0, 39, 64
2, 5640, Note_on_c, 0, 70, 64
2, 5640, Note_on_c, 0, 67, 64
2, 5760, Note_off_c, 0, 67, 64
2, 5760, Note_off_c, 0, 70, 64
2, 5760, Note_off_c, 0, 39, 64
2, 5760, Note_on_c, 0, 67, 64
2, 5760, Note_on_c, 0, 70, 64
2, 5760, Note_on_c, 0, 44, 64
2, 5880, Note_off_c, 0, 70, 64
2, 5880, Note_off_c, 0, 67, 64
2, 5880, Note_on_c, 0, 68, 64
2, 5880, Note_on_c, 0, 72, 64
2, 6000, Note_off_c, 0, 72, 64
2, 6000, Note_off_c, 0, 68, 64
2, 6000, Note_off_c, 0, 44, 64
2, 6000, Note_on_c, 0, 56, 64
2, 6120, Note_on_c, 0, 75, 64
2, 6120, Note_on_c, 0, 72, 64
2, 6240, Note_off_c, 0, 72, 64
2, 6240, Note_off_c, 0, 75, 64
2, 6240, Note_off_c, 0, 56, 64
2, 6240, Note_on_c, 0, 72, 64
2, 6240, Note_on_c, 0, 75, 64
2, 6240, Note_on_c, 0, 58, 64
2, 6360, Note_off_c, 0, 75, 64
2, 6360, Note_off_c, 0, 72, 64
2, 6360, Note_on_c, 0, 70, 64
2, 6360, Note_on_c, 0, 73, 64
2, 6480, Note_off_c, 0, 73, 64
2, 6480, Note_off_c, 0, 70, 64
2, 6480, Note_off_c, 0, 58, 64
2, 6480, Note_on_c, 0, 46, 64
2, 6600, Note_on_c, 0, 73, 64
2, 6600, Note_on_c, 0, 70, 64
2, 6720, Note_off_c, 0, 70, 64
2, 6720, Note_off_c, 0, 73, 64
2, 6720, Note_off_c, 0, 46, 64
2, 6720, Note_on_c, 0, 70, 64
2, 6720, Note_on_c, 0, 73, 64
2, 6720, Note_on_c, 0, 48, 64
2, 6840, Note_off_c, 0, 73, 64
2, 6840, Note_off_c, 0, 70, 64
2, 6840, Note_on_c, 0, 68, 64
2, 6840, Note_on_c, 0, 72, 64
2, 6960, Note_off_c, 0, 72, 64
2, 6960, Note_off_c, 0, 68, 64
2, 6960, Note_off_c, 0, 48, 64
2, 6960, Note_on_c, 0, 60, 64
2, 7080, Note_on_c, 0, 78, 64
2, 7080, Note_on_c, 0, 75, 64
2, 7200, Note_off_c, 0, 75, 64
2, 7200, Note_off_c, 0, 78, 64
2, 7200, Note_off_c, 0, 60, 64
2, 7200, Note_on_c, 0, 75, 64
2, 7200, Note_on_c, 0, 78, 64
2, 7200, Note_on_c, 0, 61, 64
2, 7320, Note_off_c, 0, 78, 64
2, 7320, Note_off_c, 0, 75, 64
2, 7320, Note_on_c, 0, 73, 64
2, 7320, Note_on_c, 0, 77, 64
2, 7440, Note_off_c, 0, 77, 64
2, 7440, Note_off_c, 0, 73, 64
2, 7440, Note_off_c, 0, 61, 64
2, 7440, Note_on_c, 0, 62, 64
2, 7560, Note_on_c, 0, 80, 64
2, 7560, Note_on_c, 0, 72, 64
2, 7680, Note_off_c, 0, 72, 64
2, 7680, Note_off_c, 0, 80, 64
2, 7680, Note_off_c, 0, 62, 64
2, 7680, Note_on_c, 0, 72, 64
2, 7680, Note_on_c, 0, 80, 64
2, 7680, Note_on_c, 0, 63, 64
2, 7800, Note_off_c, 0, 80, 64
2, 7800, Note_off_c, 0, 72, 64
2, 7800, Note_on_c, 0, 70, 64
2, 7800, Note_on_c, 0, 79, 64
2, 7920, Note_off_c, 0, 79, 64
2, 7920, Note_off_c, 0, 70, 64
2, 7920, Note_off_c, 0, 63, 64
2, 7920, Note_on_c, 0, 67, 64
2, 7980, Note_on_c, 0, 70, 64
2, 8040, Note_off_c, 0, 70, 64
2, 8040, Note_off_c, 0, 67, 64
2, 8040, Note_on_c, 0, 63, 64
2, 8100, Note_off_c, 0, 63, 64
2, 8100, Note_on_c, 0, 70, 64
2, 8160, Note_off_c, 0, 70, 64
2, 8160, Note_on_c, 0, 68, 64
2, 8220, Note_on_c, 0, 72, 64
2, 8280, Note_off_c, 0, 72, 64
2, 8280, Note_off_c, 0, 68, 64
2, 8280, Note_on_c, 0, 63, 64
2, 8340, Note_off_c, 0, 63, 64
2, 8340, Note_on_c, 0, 72, 64
2, 8400, Note_off_c, 0, 72, 64
2, 8400, Note_on_c, 0, 65, 64
2, 8460, Note_on_c, 0, 68, 64
2, 8520, Note_off_c, 0, 68, 64
2, 8520, Note_off_c, 0, 65, 64
2, 8520, Note_on_c, 0, 63, 64
2, 8580, Note_off_c, 0, 63, 64
2, 8580, Note_on_c, 0, 68, 64
2, 8640, Note_off_c, 0, 68, 64
2, 8640, Note_on_c, 0, 67, 64
2, 8700, Note_on_c, 0, 70, 64
2, 8760, Note_off_c, 0, 70, 64
2, 8760, Note_off_c, 0, 67, 64
2, 8760, Note_on_c, 0, 63, 64
2, 8820, Note_off_c, 0, 63, 64
2, 8820, Note_on_c, 0, 70, 64
2, 8880, Note_off_c, 0, 70, 64
2, 8880, Note_on_c, 0, 70, 64
2, 8940, Note_on_c, 0, 73, 64
2, 9000, Note_off_c, 0, 73, 64
2, 9000, Note_off_c, 0, 70, 64
2, 9000, Note_on_c, 0, 63, 64
2, 9060, Note_off_c, 0, 63, 64
2, 9060, Note_on_c, 0, 73, 64
2, 9120, Note_off_c, 0, 73, 64
2, 9120, Note_on_c, 0, 68, 64
2, 9180, Note_on_c, 0, 72, 64
2, 9240, Note_off_c, 0, 72, 64
2, 9240, Note_off_c, 0, 68, 64
2, 9240, Note_on_c, 0, 63, 64
2, 9300, Note_off_c, 0, 63, 64
2, 9300, Note_on_c, 0, 72, 64
2, 9360, Note_off_c, 0, 72, 64
2, 9360, Note_on_c, 0, 65, 64
2, 9420, Note_on_c, 0, 74, 64
2, 9480, Note_off_c, 0, 74, 64
2, 9480, Note_off_c, 0, 65, 64
2, 9480, Note_on_c, 0, 63, 64
2, 9540, Note_off_c, 0, 63, 64
2, 9540, Note_on_c, 0, 74, 64
2, 9600, Note_off_c, 0, 74, 64
2, 9600, Note_on_c, 0, 67, 64
2, 9660, Note_on_c, 0, 75, 64
2, 9720, Note_off_c, 0, 75, 64
2, 9720, Note_off_c, 0, 67, 64
2, 9720, Note_on_c, 0, 63, 64
2, 9780, Note_off_c, 0, 63, 64
2, 9780, Note_on_c, 0, 75, 64
2, 9840, Note_off_c, 0, 75, 64
2, 9840, Note_on_c, 0, 48, 64
2, 9840, Note_on_c, 0, 66, 64
2, 9900, Note_off_c, 0, 66, 64
2, 9900, Note_on_c, 0, 68, 64
2, 9960, Note_off_c, 0, 68, 64
2, 9960, Note_on_c, 0, 56, 64
2, 9960, Note_on_c, 0, 72, 64
2, 10020, Note_off_c, 0, 72, 64
2, 10020, Note_on_c, 0, 75, 64
2, 10080, Note_off_c, 0, 75, 64
2, 10080, Note_off_c, 0, 48, 64
2, 10080, Note_on_c, 0, 75, 64
2, 10080, Note_on_c, 0, 49, 64
2, 10140, Note_off_c, 0, 75, 64
2, 10140, Note_on_c, 0, 72, 64
2, 10200, Note_off_c, 0, 72, 64
2, 10200, Note_off_c, 0, 56, 64
2, 10200, Note_on_c, 0, 68, 64
2, 10200, Note_on_c, 0, 53, 64
2, 10260, Note_off_c, 0, 68, 64
2, 10260, Note_on_c, 0, 65, 64
2, 10320, Note_off_c, 0, 65, 64
2, 10320, Note_off_c, 0, 53, 64
2, 10320, Note_off_c, 0, 49, 64
2, 10320, Note_on_c, 0, 46, 64
2, 10320, Note_on_c, 0, 65, 64
2, 10380, Note_off_c, 0, 65, 64
2, 10380, Note_on_c, 0, 67, 64
2, 10440, Note_off_c, 0, 67, 64
2, 10440, Note_on_c, 0, 55, 64
2, 10440, Note_on_c, 0, 70, 64
2, 10500, Note_off_c, 0, 70, 64
2, 10500, Note_on_c, 0, 73, 64
2, 10560, Note_off_c, 0, 73, 64
2, 10560, Note_off_c, 0, 46, 64
2, 10560, Note_on_c, 0, 73, 64
2, 10560, Note_on_c, 0, 48, 64
2, 10620, Note_off_c, 0, 73, 64
2, 10620, Note_on_c, 0, 70, 64
2, 10680, Note_off_c, 0, 70, 64
2, 10680, Note_off_c, 0, 55, 64
2, 10680, Note_on_c, 0, 67, 64
2, 10680, Note_on_c, 0, 51, 64
2, 10740, Note_off_c, 0, 67, 64
2, 10740, Note_on_c, 0, 63, 64
2, 10800, Note_off_c, 0, 63, 64
2, 10800, Note_off_c, 0, 51, 64
2, 10800, Note_off_c, 0, 48, 64
2, 10800, Note_on_c, 0, 44, 64
2, 10800, Note_on_c, 0, 63, 64
2, 10860, Note_off_c, 0, 63, 64
2, 10860, Note_on_c, 0, 65, 64
2, 10920, Note_off_c, 0, 65, 64
2, 10920, Note_on_c, 0, 53, 64
2, 10920, Note_on_c, 0, 68, 64
2, 10980, Note_off_c, 0, 68, 64
2, 10980, Note_on_c, 0, 72, 64
2, 11040, Note_off_c, 0, 72, 64
2, 11040, Note_off_c, 0, 44, 64
2, 11040, Note_on_c, 0, 72, 64
2, 11040, Note_on_c, 0, 46, 64
2, 11100, Note_off_c, 0, 72, 64
2, 11100, Note_on_c, 0, 68, 64
2, 11160, Note_off_c, 0, 68, 64
2, 11160, Note_off_c, 0, 53, 64
2, 11160, Note_on_c, 0, 65, 64
2, 11160, Note_on_c, 0, 49, 64
2, 11220, Note_off_c, 0, 65, 64
2, 11220, Note_on_c, 0, 61, 64
2, 11280, Note_off_c, 0, 61, 64
2, 11280, Note_off_c, 0, 49, 64
2, 11280, Note_off_c, 0, 46, 64
2, 11280, Note_on_c, 0, 43, 64
2, 11280, Note_on_c, 0, 61, 64
2, 11340, Note_off_c, 0, 61, 64
2, 11340, Note_on_c, 0, 63, 64
2, 11400, Note_off_c, 0, 63, 64
2, 11400, Note_on_c, 0, 51, 64
2, 11400, Note_on_c, 0, 67, 64
2, 11460, Note_off_c, 0, 67, 64
2, 11460, Note_on_c, 0, 70, 64
2, 11520, Note_off_c, 0, 70, 64
2, 11520, Note_off_c, 0, 43, 64
2, 11520, Note_on_c, 0, 70, 64
2, 11520, Note_on_c, 0, 44, 64
2, 11580, Note_off_c, 0, 70, 64
2, 11580, Note_on_c, 0, 67, 64
2, 11640, Note_off_c, 0, 67, 64
2, 11640, Note_off_c, 0, 51, 64
2, 11640, Note_on_c, 0, 63, 64
2, 11640, Note_on_c, 0, 48, 64
2, 11700, Note_off_c, 0, 63, 64
2, 11700, Note_on_c, 0, 60, 64
2, 11760, Note_off_c, 0, 60, 64
2, 11760, Note_off_c, 0, 48, 64
2, 11760, Note_off_c, 0, 44, 64
2, 11760, Note_on_c, 0, 51, 64
2, 11820, Note_on_c, 0, 68, 64
2, 11880, Note_off_c, 0, 68, 64
2, 11880, Note_off_c, 0, 51, 64
2, 11880, Note_on_c, 0, 54, 64
2, 11880, Note_on_c, 0, 60, 64
2, 11940, Note_off_c, 0, 60, 64
2, 11940, Note_on_c, 0, 68, 64
2, 12000, Note_off_c, 0, 68, 64
2, 12000, Note_off_c, 0, 54, 64
2, 12000, Note_on_c, 0, 53, 64
2, 12060, Note_on_c, 0, 68, 64
2, 12120, Note_off_c, 0, 68, 64
2, 12120, Note_off_c, 0, 53, 64
2, 12120, Note_on_c, 0, 61, 64
2, 12120, Note_on_c, 0, 44, 64
2, 12180, Note_off_c, 0, 61, 64
2, 12180, Note_on_c, 0, 68, 64
2, 12240, Note_off_c, 0, 68, 64
2, 12240, Note_off_c, 0, 44, 64
2, 12240, Note_on_c, 0, 42, 64
2, 12300, Note_on_c, 0, 68, 64
2, 12360, Note_off_c, 0, 68, 64
2, 12360, Note_off_c, 0, 42, 64
2, 12360, Note_on_c, 0, 51, 64
2, 12360, Note_on_c, 0, 60, 64
2, 12420, Note_off_c, 0, 60, 64
2, 12420, Note_on_c, 0, 68, 64
2, 12480, Note_off_c, 0, 68, 64
2, 12480, Note_off_c, 0, 51, 64
2, 12480, Note_on_c, 0, 49, 64
2, 12540, Note_on_c, 0, 68, 64
2, 12600, Note_off_c, 0, 68, 64
2, 12600, Note_off_c, 0, 49, 64
2, 12600, Note_on_c, 0, 58, 64
2, 12600, Note_on_c, 0, 40, 64
2, 12660, Note_off_c, 0, 58, 64
2, 12660, Note_on_c, 0, 68, 64
2, 12720, Note_off_c, 0, 68, 64
2, 12720, Note_off_c, 0, 40, 64
2, 12720, Note_on_c, 0, 39, 64
2, 12780, Note_on_c, 0, 68, 64
2, 12840, Note_off_c, 0, 68, 64
2, 12840, Note_off_c, 0, 39, 64
2, 12840, Note_on_c, 0, 47, 64
2, 12840, Note_on_c, 0, 56, 64
2, 12900, Note_off_c, 0, 56, 64
2, 12900, Note_on_c, 0, 68, 64
2, 12960, Note_off_c, 0, 68, 64
2, 12960, Note_off_c, 0, 47, 64
2, 12960, Note_on_c, 0, 58, 64
2, 12960, Note_on_c, 0, 38, 64
2, 13020, Note_off_c, 0, 58, 64
2, 13020, Note_on_c, 0, 68, 64
2, 13080, Note_off_c, 0, 68, 64
2, 13080, Note_on_c, 0, 64, 64
2, 13080, Note_on_c, 0, 46, 64
2, 13140, Note_off_c, 0, 64, 64
2, 13140, Note_on_c, 0, 68, 64
2, 13200, Note_off_c, 0, 68, 64
2, 13200, Note_off_c, 0, 46, 64
2, 13200, Note_off_c, 0, 38, 64
2, 13200, Note_on_c, 0, 51, 64
2, 13200, Note_on_c, 0, 63, 64
2, 13260, Note_on_c, 0, 67, 64
2, 13320, Note_off_c, 0, 67, 64
2, 13320, Note_off_c, 0, 63, 64
2, 13320, Note_on_c, 0, 39, 64
2, 13320, Note_on_c, 0, 61, 64
2, 13380, Note_on_c, 0, 67, 64
2, 13440, Note_off_c, 0, 67, 64
2, 13440, Note_off_c, 0, 61, 64
2, 13440, Note_off_c, 0, 39, 64
2, 13440, Note_off_c, 0, 51, 64
2, 13440, Note_on_c, 0, 44, 64
2, 13440, Note_on_c, 0, 61, 47
2, 13440, Note_on_c, 0, 67, 40
2, 13560, Note_off_c, 0, 67, 49
2, 13560, Note_off_c, 0, 61, 63
2, 13560, Note_on_c, 0, 68, 62
2, 13560, Note_on_c, 0, 60, 40
2, 13680, Note_off_c, 0, 60, 43
2, 13680, Note_off_c, 0, 68, 52
2, 13680, Note_off_c, 0, 44, 64
2, 13680, Note_on_c, 0, 53, 64
2, 13800, Note_on_c, 0, 68, 64
2, 13800, Note_on_c, 0, 65, 64
2, 13920, Note_off_c, 0, 65, 64
2, 13920, Note_off_c, 0, 68, 64
2, 13920, Note_off_c, 0, 53, 64
2, 13920, Note_on_c, 0, 65, 64
2, 13920, Note_on_c, 0, 68, 64
2, 13920, Note_on_c, 0, 60, 64
2, 14040, Note_off_c, 0, 68, 64
2, 14040, Note_off_c, 0, 65, 64
2, 14040, Note_on_c, 0, 64, 64
2, 14040, Note_on_c, 0, 67, 64
2, 14160, Note_off_c, 0, 67, 64
2, 14160, Note_off_c, 0, 64, 64
2, 14160, Note_off_c, 0, 60, 64
2, 14160, Note_on_c, 0, 48, 64
2, 14280, Note_on_c, 0, 70, 64
2, 14280, Note_on_c, 0, 67, 64
2, 14400, Note_off_c, 0, 67, 64
2, 14400, Note_off_c, 0, 70, 64
2, 14400, Note_off_c, 0, 48, 64
2, 14400, Note_on_c, 0, 67, 64
2, 14400, Note_on_c, 0, 70, 64
2, 14400, Note_on_c, 0, 53, 64
2, 14520, Note_off_c, 0, 70, 64
2, 14520, Note_off_c, 0, 67, 64
2, 14520, Note_on_c, 0, 65, 64
2, 14520, Note_on_c, 0, 68, 64
2, 14640, Note_off_c, 0, 68, 64
2, 14640, Note_off_c, 0, 65, 64
2, 14640, Note_off_c, 0, 53, 64
2, 14640, Note_on_c, 0, 41, 64
2, 14760, Note_on_c, 0, 80, 64
2, 14760, Note_on_c, 0, 72, 64
2, 14880, Note_off_c, 0, 72, 64
2, 14880, Note_off_c, 0, 80, 64
2, 14880, Note_off_c, 0, 41, 64
2, 14880, Note_on_c, 0, 72, 64
2, 14880, Note_on_c, 0, 80, 64
2, 14880, Note_on_c, 0, 46, 64
2, 15000, Note_off_c, 0, 80, 64
2, 15000, Note_off_c, 0, 72, 64
2, 15000, Note_on_c, 0, 70, 64
2, 15000, Note_on_c, 0, 79, 64
2, 15120, Note_off_c, 0, 79, 64
2, 15120, Note_off_c, 0, 70, 64
2, 15120, Note_off_c, 0, 46, 64
2, 15120, Note_on_c, 0, 47, 64
2, 15240, Note_on_c, 0, 77, 64
2, 15240, Note_on_c, 0, 68, 64
2, 15360, Note_off_c, 0, 68, 64
2, 15360, Note_off_c, 0, 77, 64
2, 15360, Note_off_c, 0, 47, 64
2, 15360, Note_on_c, 0, 68, 64
2, 15360, Note_on_c, 0, 77, 64
2, 15360, Note_on_c, 0, 48, 64
2, 15480, Note_off_c, 0, 77, 64
2, 15480, Note_off_c, 0, 68, 64
2, 15480, Note_on_c, 0, 67, 64
2, 15480, Note_on_c, 0, 76, 64
2, 15600, Note_off_c, 0, 76, 64
2, 15600, Note_off_c, 0, 67, 64
2, 15600, Note_off_c, 0, 48, 64
2, 15600, Note_on_c, 0, 64, 64
2, 15660, Note_on_c, 0, 67, 64
2, 15720, Note_off_c, 0, 67, 64
2, 15720, Note_off_c, 0, 64, 64
2, 15720, Note_on_c, 0, 60, 64
2, 15780, Note_off_c, 0, 60, 64
2, 15780, Note_on_c, 0, 67, 64
2, 15840, Note_off_c, 0, 67, 64
2, 15840, Note_on_c, 0, 65, 64
2, 15900, Note_on_c, 0, 68, 64
2, 15960, Note_off_c, 0, 68, 64
2, 15960, Note_off_c, 0, 65, 64
2, 15960, Note_on_c, 0, 60, 64
2, 16020, Note_off_c, 0, 60, 64
2, 16020, Note_on_c, 0, 68, 64
2, 16080, Note_off_c, 0, 68, 64
2, 16080, Note_on_c, 0, 62, 64
2, 16140, Note_on_c, 0, 65, 64
2, 16200, Note_off_c, 0, 65, 64
2, 16200, Note_off_c, 0, 62, 64
2, 16200, Note_on_c, 0, 60, 64
2, 16260, Note_off_c, 0, 60, 64
2, 16260, Note_on_c, 0, 65, 64
2, 16320, Note_off_c, 0, 65, 64
2, 16320, Note_on_c, 0, 64, 64
2, 16380, Note_on_c, 0, 67, 64
2, 16440, Note_off_c, 0, 67, 64
2, 16440, Note_off_c, 0, 64, 64
2, 16440, Note_on_c, 0, 60, 64
2, 16500, Note_off_c, 0, 60, 64
2, 16500, Note_on_c, 0, 67, 64
2, 16560, Note_off_c, 0, 67, 64
2, 16560, Note_on_c, 0, 67, 64
2, 16620, Note_on_c, 0, 70, 64
2, 16680, Note_off_c, 0, 70, 64
2, 16680, Note_off_c, 0, 67, 64
2, 16680, Note_on_c, 0, 60, 64
2, 16740, Note_off_c, 0, 60, 64
2, 16740, Note_on_c, 0, 70, 64
2, 16800, Note_off_c, 0, 70, 64
2, 16800, Note_on_c, 0, 65, 64
2, 16860, Note_on_c, 0, 68, 64
2, 16920, Note_off_c, 0, 68, 64
2, 16920, Note_off_c, 0, 65, 64
2, 16920, Note_on_c, 0, 60, 64
2, 16980, Note_off_c, 0, 60, 64
2, 16980, Note_on_c, 0, 68, 64
2, 17040, Note_off_c, 0, 68, 64
2, 17040, Note_on_c, 0, 62, 64
2, 17100, Note_on_c, 0, 65, 64
2, 17160, Note_off_c, 0, 65, 64
2, 17160, Note_off_c, 0, 62, 64
2, 17160, Note_on_c, 0, 60, 64
2, 17220, Note_off_c, 0, 60, 64
2, 17220, Note_on_c, 0, 65, 64
2, 17280, Note_off_c, 0, 65, 64
2, 17280, Note_on_c, 0, 64, 64
2, 17340, Note_on_c, 0, 67, 64
2, 17400, Note_off_c, 0, 67, 64
2, 17400, Note_off_c, 0, 64, 64
2, 17400, Note_on_c, 0, 60, 64
2, 17460, Note_off_c, 0, 60, 64
2, 17460, Note_on_c, 0, 67, 64
2, 17520, Note_off_c, 0, 67, 64
2, 17520, Note_on_c, 0, 53, 64
2, 17640, Note_on_c, 0, 68, 64
2, 17640, Note_on_c, 0, 65, 64
2, 17760, Note_off_c, 0, 65, 64
2, 17760, Note_off_c, 0, 68, 64
2, 17760, Note_off_c, 0, 53, 64
2, 17760, Note_on_c, 0, 65, 64
2, 17760, Note_on_c, 0, 68, 64
2, 17760, Note_on_c, 0, 60, 64
2, 17880, Note_off_c, 0, 68, 64
2, 17880, Note_off_c, 0, 65, 64
2, 17880, Note_on_c, 0, 64, 64
2, 17880, Note_on_c, 0, 67, 64
2, 18000, Note_off_c, 0, 67, 64
2, 18000, Note_off_c, 0, 64, 64
2, 18000, Note_off_c, 0, 60, 64
2, 18000, Note_on_c, 0, 48, 64
2, 18120, Note_on_c, 0, 70, 64
2, 18120, Note_on_c, 0, 67, 64
2, 18240, Note_off_c, 0, 67, 64
2, 18240, Note_off_c, 0, 70, 64
2, 18240, Note_off_c, 0, 48, 64
2, 18240, Note_on_c, 0, 67, 64
2, 18240, Note_on_c, 0, 70, 64
2, 18240, Note_on_c, 0, 53, 64
2, 18360, Note_off_c, 0, 70, 64
2, 18360, Note_off_c, 0, 67, 64
2, 18360, Note_on_c, 0, 65, 64
2, 18360, Note_on_c, 0, 68, 64
2, 18480, Note_off_c, 0, 68, 64
2, 18480, Note_off_c, 0, 65, 64
2, 18480, Note_off_c, 0, 53, 64
2, 18480, Note_on_c, 0, 41, 64
2, 18600, Note_on_c, 0, 72, 64
2, 18600, Note_on_c, 0, 68, 64
2, 18720, Note_off_c, 0, 68, 64
2, 18720, Note_off_c, 0, 72, 64
2, 18720, Note_off_c, 0, 41, 64
2, 18720, Note_on_c, 0, 68, 64
2, 18720, Note_on_c, 0, 72, 64
2, 18720, Note_on_c, 0, 46, 64
2, 18840, Note_off_c, 0, 72, 64
2, 18840, Note_off_c, 0, 68, 64
2, 18840, Note_on_c, 0, 70, 64
2, 18840, Note_on_c, 0, 73, 64
2, 18960, Note_off_c, 0, 73, 64
2, 18960, Note_off_c, 0, 70, 64
2, 18960, Note_off_c, 0, 46, 64
2, 18960, Note_on_c, 0, 39, 64
2, 19080, Note_on_c, 0, 70, 64
2, 19080, Note_on_c, 0, 67, 64
2, 19200, Note_off_c, 0, 67, 64
2, 19200, Note_off_c, 0, 70, 64
2, 19200, Note_off_c, 0, 39, 64
2, 19200, Note_on_c, 0, 67, 64
2, 19200, Note_on_c, 0, 70, 64
2, 19200, Note_on_c, 0, 44, 64
2, 19320, Note_off_c, 0, 70, 64
2, 19320, Note_off_c, 0, 67, 64
2, 19320, Note_on_c, 0, 68, 64
2, 19320, Note_on_c, 0, 72, 64
2, 19440, Note_off_c, 0, 72, 64
2, 19440, Note_off_c, 0, 68, 64
2, 19440, Note_off_c, 0, 44, 64
2, 19440, Note_on_c, 0, 56, 64
2, 19560, Note_on_c, 0, 75, 64
2, 19560, Note_on_c, 0, 72, 64
2, 19680, Note_off_c, 0, 72, 64
2, 19680, Note_off_c, 0, 75, 64
2, 19680, Note_off_c, 0, 56, 64
2, 19680, Note_on_c, 0, 72, 64
2, 19680, Note_on_c, 0, 75, 64
2, 19680, Note_on_c, 0, 58, 64
2, 19800, Note_off_c, 0, 75, 64
2, 19800, Note_off_c, 0, 72, 64
2, 19800, Note_on_c, 0, 70, 64
2, 19800, Note_on_c, 0, 73, 64
2, 19920, Note_off_c, 0, 73, 64
2, 19920, Note_off_c, 0, 70, 64
2, 19920, Note_off_c, 0, 58, 64
2, 19920, Note_on_c, 0, 46, 64
2, 20040, Note_on_c, 0, 73, 64
2, 20040, Note_on_c, 0, 70, 64
2, 20160, Note_off_c, 0, 70, 64
2, 20160, Note_off_c, 0, 73, 64
2, 20160, Note_off_c, 0, 46, 64
2, 20160, Note_on_c, 0, 70, 64
2, 20160, Note_on_c, 0, 73, 64
2, 20160, Note_on_c, 0, 48, 64
2, 20280, Note_off_c, 0, 73, 64
2, 20280, Note_off_c, 0, 70, 64
2, 20280, Note_on_c, 0, 68, 64
2, 20280, Note_on_c, 0, 72, 64
2, 20400, Note_off_c, 0, 72, 64
2, 20400, Note_off_c, 0, 68, 64
2, 20400, Note_off_c, 0, 48, 64
2, 20400, Note_on_c, 0, 60, 64
2, 20520, Note_on_c, 0, 78, 64
2, 20520, Note_on_c, 0, 75, 64
2, 20640, Note_off_c, 0, 75, 64
2, 20640, Note_off_c, 0, 78, 64
2, 20640, Note_off_c, 0, 60, 64
2, 20640, Note_on_c, 0, 75, 64
2, 20640, Note_on_c, 0, 78, 64
2, 20640, Note_on_c, 0, 61, 64
2, 20760, Note_off_c, 0, 78, 64
2, 20760, Note_off_c, 0, 75, 64
2, 20760, Note_on_c, 0, 73, 64
2, 20760, Note_on_c, 0, 77, 64
2, 20880, Note_off_c, 0, 77, 64
2, 20880, Note_off_c, 0, 73, 64
2, 20880, Note_off_c, 0, 61, 64
2, 20880, Note_on_c, 0, 62, 64
2, 21000, Note_on_c, 0, 80, 64
2, 21000, Note_on_c, 0, 72, 64
2, 21120, Note_off_c, 0, 72, 64
2, 21120, Note_off_c, 0, 80, 64
2, 21120, Note_off_c, 0, 62, 64
2, 21120, Note_on_c, 0, 72, 64
2, 21120, Note_on_c, 0, 80, 64
2, 21120, Note_on_c, 0, 63, 64
2, 21240, Note_off_c, 0, 80, 64
2, 21240, Note_off_c, 0, 72, 64
2, 21240, Note_on_c, 0, 70, 64
2, 21240, Note_on_c, 0, 79, 64
2, 21360, Note_off_c, 0, 79, 64
2, 21360, Note_off_c, 0, 70, 64
2, 21360, Note_off_c, 0, 63, 64
2, 21360, Note_on_c, 0, 67, 64
2, 21420, Note_on_c, 0, 70, 64
2, 21480, Note_off_c, 0, 70, 64
2, 21480, Note_off_c, 0, 67, 64
2, 21480, Note_on_c, 0, 63, 64
2, 21540, Note_off_c, 0, 63, 64
2, 21540, Note_on_c, 0, 70, 64
2, 21600, Note_off_c, 0, 70, 64
2, 21600, Note_on_c, 0, 68, 64
2, 21660, Note_on_c, 0, 72, 64
2, 21720, Note_off_c, 0, 72, 64
2, 21720, Note_off_c, 0, 68, 64
2, 21720, Note_on_c, 0, 63, 64
2, 21780, Note_off_c, 0, 63, 64
2, 21780, Note_on_c, 0, 72, 64
2, 21840, Note_off_c, 0, 72, 64
2, 21840, Note_on_c, 0, 65, 64
2, 21900, Note_on_c, 0, 68, 64
2, 21960, Note_off_c, 0, 68, 64
2, 21960, Note_off_c, 0, 65, 64
2, 21960, Note_on_c, 0, 63, 64
2, 22020, Note_off_c, 0, 63, 64
2, 22020, Note_on_c, 0, 68, 64
2, 22080, Note_off_c, 0, 68, 64
2, 22080, Note_on_c, 0, 67, 64
2, 22140, Note_on_c, 0, 70, 64
2, 22200, Note_off_c, 0, 70, 64
2, 22200, Note_off_c, 0, 67, 64
2, 22200, Note_on_c, 0, 63, 64
2, 22260, Note_off_c, 0, 63, 64
2, 22260, Note_on_c, 0, 70, 64
2, 22320, Note_off_c, 0, 70, 64
2, 22320, Note_on_c, 0, 70, 64
2, 22380, Note_on_c, 0, 73, 64
2, 22440, Note_off_c, 0, 73, 64
2, 22440, Note_off_c, 0, 70, 64
2, 22440, Note_on_c, 0, 63, 64
2, 22500, Note_off_c, 0, 63, 64
2, 22500, Note_on_c, 0, 73, 64
2, 22560, Note_off_c, 0, 73, 64
2, 22560, Note_on_c, 0, 68, 64
2, 22620, Note_on_c, 0, 72, 64
2, 22680, Note_off_c, 0, 72, 64
2, 22680, Note_off_c, 0, 68, 64
2, 22680, Note_on_c, 0, 63, 64
2, 22740, Note_off_c, 0, 63, 64
2, 22740, Note_on_c, 0, 72, 64
2, 22800, Note_off_c, 0, 72, 64
2, 22800, Note_on_c, 0, 65, 64
2, 22860, Note_on_c, 0, 74, 64
2, 22920, Note_off_c, 0, 74, 64
2, 22920, Note_off_c, 0, 65, 64
2, 22920, Note_on_c, 0, 63, 64
2, 22980, Note_off_c, 0, 63, 64
2, 22980, Note_on_c, 0, 74, 64
2, 23040, Note_off_c, 0, 74, 64
2, 23040, Note_on_c, 0, 67, 64
2, 23100, Note_on_c, 0, 75, 64
2, 23160, Note_off_c, 0, 75, 64
2, 23160, Note_off_c, 0, 67, 64
2, 23160, Note_on_c, 0, 63, 64
2, 23220, Note_off_c, 0, 63, 64
2, 23220, Note_on_c, 0, 75, 64
2, 23280, Note_off_c, 0, 75, 64
2, 23280, Note_on_c, 0, 48, 64
2, 23280, Note_on_c, 0, 66, 64
2, 23340, Note_off_c, 0, 66, 64
2, 23340, Note_on_c, 0, 68, 64
2, 23400, Note_off_c, 0, 68, 64
2, 23400, Note_on_c, 0, 56, 64
2, 23400, Note_on_c, 0, 72, 64
2, 23460, Note_off_c, 0, 72, 64
2, 23460, Note_on_c, 0, 75, 64
2, 23520, Note_off_c, 0, 75, 64
2, 23520, Note_off_c, 0, 48, 64
2, 23520, Note_on_c, 0, 75, 64
2, 23520, Note_on_c, 0, 49, 64
2, 23580, Note_off_c, 0, 75, 64
2, 23580, Note_on_c, 0, 72, 64
2, 23640, Note_off_c, 0, 72, 64
2, 23640, Note_off_c, 0, 56, 64
2, 23640, Note_on_c, 0, 68, 64
2, 23640, Note_on_c, 0, 53, 64
2, 23700, Note_off_c, 0, 68, 64
2, 23700, Note_on_c, 0, 65, 64
2, 23760, Note_off_c, 0, 65, 64
2, 23760, Note_off_c, 0, 53, 64
2, 23760, Note_off_c, 0, 49, 64
2, 23760, Note_on_c, 0, 46, 64
2, 23760, Note_on_c, 0, 65, 64
2, 23820, Note_off_c, 0, 65, 64
2, 23820, Note_on_c, 0, 67, 64
2, 23880, Note_off_c, 0, 67, 64
2, 23880, Note_on_c, 0, 55, 64
2, 23880, Note_on_c, 0, 70, 64
2, 23940, Note_off_c, 0, 70, 64
2, 23940, Note_on_c, 0, 73, 64
2, 24000, Note_off_c, 0, 73, 64
2, 24000, Note_off_c, 0, 46, 64
2, 24000, Note_on_c, 0, 73, 64
2, 24000, Note_on_c, 0, 48, 64
2, 24060, Note_off_c, 0, 73, 64
2, 24060, Note_on_c, 0, 70, 64
2, 24120, Note_off_c, 0, 70, 64
2, 24120, Note_off_c, 0, 55, 64
2, 24120, Note_on_c, 0, 67, 64
2, 24120, Note_on_c, 0, 51, 64
2, 24180, Note_off_c, 0, 67, 64
2, 24180, Note_on_c, 0, 63, 64
2, 24240, Note_off_c, 0, 63, 64
2, 24240, Note_off_c, 0, 51, 64
2, 24240, Note_off_c, 0, 48, 64
2, 24240, Note_on_c, 0, 44, 64
2, 24240, Note_on_c, 0, 63, 64
2, 24300, Note_off_c, 0, 63, 64
2, 24300, Note_on_c, 0, 65, 64
2, 24360, Note_off_c, 0, 65, 64
2, 24360, Note_on_c, 0, 53, 64
2, 24360, Note_on_c, 0, 68, 64
2, 24420, Note_off_c, 0, 68, 64
2, 24420, Note_on_c, 0, 72, 64
2, 24480, Note_off_c, 0, 72, 64
2, 24480, Note_off_c, 0, 44, 64
2, 24480, Note_on_c, 0, 72, 64
2, 24480, Note_on_c, 0, 46, 64
2, 24540, Note_off_c, 0, 72, 64
2, 24540, Note_on_c, 0, 68, 64
2, 24600, Note_off_c, 0, 68, 64
2, 24600, Note_off_c, 0, 53, 64
2, 24600, Note_on_c, 0, 65, 64
2, 24600, Note_on_c, 0, 49, 64
2, 24660, Note_off_c, 0, 65, 64
2, 24660, Note_on_c, 0, 61, 64
2, 24720, Note_off_c, 0, 61, 64
2, 24720, Note_off_c, 0, 49, 64
2, 24720, Note_off_c, 0, 46, 64
2, 24720, Note_on_c, 0, 43, 64
2, 24720, Note_on_c, 0, 61, 64
2, 24780, Note_off_c, 0, 61, 64
2, 24780, Note_on_c, 0, 63, 64
2, 24840, Note_off_c, 0, 63, 64
2, 24840, Note_on_c, 0, 51, 64
2, 24840, Note_on_c, 0, 67, 64
2, 24900, Note_off_c, 0, 67, 64
2, 24900, Note_on_c, 0, 70, 64
2, 24960, Note_off_c, 0, 70, 64
2, 24960, Note_off_c, 0, 43, 64
2, 24960, Note_on_c, 0, 70, 64
2, 24960, Note_on_c, 0, 44, 64
2, 25020, Note_off_c, 0, 70, 64
2, 25020, Note_on_c, 0, 67, 64
2, 25080, Note_off_c, 0, 67, 64
2, 25080, Note_off_c, 0, 51, 64
2, 25080, Note_on_c, 0, 63, 64
2, 25080, Note_on_c, 0, 48, 64
2, 25140, Note_off_c, 0, 63, 64
2, 25140, Note_on_c, 0, 60, 64
2, 25200, Note_off_c, 0, 60, 64
2, 25200, Note_off_c, 0, 48, 64
2, 25200, Note_off_c, 0, 44, 64
2, 25200, Note_on_c, 0, 51, 64
2, 25260, Note_on_c, 0, 68, 64
2, 25320, Note_off_c, 0, 68, 64
2, 25320, Note_off_c, 0, 51, 64
2, 25320, Note_on_c, 0, 54, 64
2, 25320, Note_on_c, 0, 60, 64
2, 25380, Note_off_c, 0, 60, 64
2, 25380, Note_on_c, 0, 68, 64
2, 25440, Note_off_c, 0, 68, 64
2, 25440, Note_off_c, 0, 54, 64
2, 25440, Note_on_c, 0, 53, 64
2, 25500, Note_on_c, 0, 68, 64
2, 25560, Note_off_c, 0, 68, 64
2, 25560, Note_off_c, 0, 53, 64
2, 25560, Note_on_c, 0, 61, 64
2, 25560, Note_on_c, 0, 44, 64
2, 25620, Note_off_c, 0, 61, 64
2, 25620, Note_on_c, 0, 68, 64
2, 25680, Note_off_c, 0, 68, 64
2, 25680, Note_off_c, 0, 44, 64
2, 25680, Note_on_c, 0, 42, 64
2, 25740, Note_on_c, 0, 68, 64
2, 25800, Note_off_c, 0, 68, 64
2, 25800, Note_off_c, 0, 42, 64
2, 25800, Note_on_c, 0, 51, 64
2, 25800, Note_on_c, 0, 60, 64
2, 25860, Note_off_c, 0, 60, 64
2, 25860, Note_on_c, 0, 68, 64
2, 25920, Note_off_c, 0, 68, 64
2, 25920, Note_off_c, 0, 51, 64
2, 25920, Note_on_c, 0, 49, 64
2, 25980, Note_on_c, 0, 68, 64
2, 26040, Note_off_c, 0, 68, 64
2, 26040, Note_off_c, 0, 49, 64
2, 26040, Note_on_c, 0, 58, 64
2, 26040, Note_on_c, 0, 40, 64
2, 26100, Note_off_c, 0, 58, 64
2, 26100, Note_on_c, 0, 68, 64
2, 26160, Note_off_c, 0, 68, 64
2, 26160, Note_off_c, 0, 40, 64
2, 26160, Note_on_c, 0, 39, 64
2, 26220, Note_on_c, 0, 68, 64
2, 26280, Note_off_c, 0, 68, 64
2, 26280, Note_off_c, 0, 39, 64
2, 26280, Note_on_c, 0, 47, 64
2, 26280, Note_on_c, 0, 56, 64
2, 26340, Note_off_c, 0, 56, 64
2, 26340, Note_on_c, 0, 68, 64
2, 26400, Note_off_c, 0, 68, 64
2, 26400, Note_off_c, 0, 47, 64
2, 26400, Note_on_c, 0, 58, 64
2, 26400, Note_on_c, 0, 38, 64
2, 26460, Note_off_c, 0, 58, 64
2, 26460, Note_on_c, 0, 68, 64
2, 26520, Note_off_c, 0, 68, 64
2, 26520, Note_on_c, 0, 64, 64
2, 26520, Note_on_c, 0, 46, 64
2, 26580, Note_off_c, 0, 64, 64
2, 26580, Note_on_c, 0, 68, 64
2, 26640, Note_off_c, 0, 68, 64
2, 26640, Note_off_c, 0, 46, 64
2, 26640, Note_off_c, 0, 38, 64
2, 26640, Note_on_c, 0, 51, 64
2, 26640, Note_on_c, 0, 63, 64
2, 26700, Note_on_c, 0, 67, 64
2, 26760, Note_off_c, 0, 67, 64
2, 26760, Note_off_c, 0, 63, 64
2, 26760, Note_on_c, 0, 39, 64
2, 26760, Note_on_c, 0, 61, 64
2, 26820, Note_on_c, 0, 67, 64
2, 26880, Note_off_c, 0, 67, 64
2, 26880, Note_off_c, 0, 61, 64
2, 26880, Note_off_c, 0, 39, 64
2, 26880, Note_off_c, 0, 51, 64
2, 26880, Note_on_c, 0, 51, 64
2, 26880, Note_on_c, 0, 61, 64
2, 26880, Note_on_c, 0, 67, 64
2, 26880, Note_on_c, 0, 44, 64
2, 27000, Note_off_c, 0, 67, 64
2, 27000, Note_off_c, 0, 61, 64
2, 27000, Note_on_c, 0, 60, 64
2, 27000, Note_on_c, 0, 68, 64
2, 27120, Note_off_c, 0, 68, 64
2, 27120, Note_off_c, 0, 60, 64
2, 27120, Note_off_c, 0, 44, 64
2, 27120, Note_off_c, 0, 51, 64
2, 27120, Note_on_c, 0, 56, 64
2, 27240, Note_on_c, 0, 72, 64
2, 27240, Note_on_c, 0, 68, 64
2, 27360, Note_off_c, 0, 68, 64
2, 27360, Note_off_c, 0, 72, 64
2, 27360, Note_off_c, 0, 56, 64
2, 27360, Note_on_c, 0, 68, 64
2, 27360, Note_on_c, 0, 72, 64
2, 27360, Note_on_c, 0, 63, 64
2, 27480, Note_off_c, 0, 72, 64
2, 27480, Note_off_c, 0, 68, 64
2, 27480, Note_on_c, 0, 67, 64
2, 27480, Note_on_c, 0, 70, 64
2, 27600, Note_off_c, 0, 70, 64
2, 27600, Note_off_c, 0, 67, 64
2, 27600, Note_off_c, 0, 63, 64
2, 27600, Note_on_c, 0, 51, 64
2, 27720, Note_on_c, 0, 73, 64
2, 27720, Note_on_c, 0, 70, 64
2, 27840, Note_off_c, 0, 70, 64
2, 27840, Note_off_c, 0, 73, 64
2, 27840, Note_off_c, 0, 51, 64
2, 27840, Note_on_c, 0, 70, 64
2, 27840, Note_on_c, 0, 73, 64
2, 27840, Note_on_c, 0, 56, 64
2, 27960, Note_off_c, 0, 73, 64
2, 27960, Note_off_c, 0, 70, 64
2, 27960, Note_on_c, 0, 68, 64
2, 27960, Note_on_c, 0, 72, 64
2, 28080, Note_off_c, 0, 72, 64
2, 28080, Note_off_c, 0, 68, 64
2, 28080, Note_off_c, 0, 56, 64
2, 28080, Note_on_c, 0, 57, 64
2, 28200, Note_on_c, 0, 75, 64
2, 28200, Note_on_c, 0, 66, 64
2, 28320, Note_off_c, 0, 66, 64
2, 28320, Note_off_c, 0, 75, 64
2, 28320, Note_off_c, 0, 57, 64
2, 28320, Note_on_c, 0, 66, 64
2, 28320, Note_on_c, 0, 75, 64
2, 28320, Note_on_c, 0, 58, 64
2, 28440, Note_off_c, 0, 75, 64
2, 28440, Note_off_c, 0, 66, 64
2, 28440, Note_on_c, 0, 65, 64
2, 28440, Note_on_c, 0, 74, 64
2, 28560, Note_off_c, 0, 74, 64
2, 28560, Note_off_c, 0, 65, 64
2, 28560, Note_off_c, 0, 58, 64
2, 28560, Note_on_c, 0, 50, 64
2, 28680, Note_on_c, 0, 77, 64
2, 28680, Note_on_c, 0, 68, 64
2, 28800, Note_off_c, 0, 68, 64
2, 28800, Note_off_c, 0, 77, 64
2, 28800, Note_off_c, 0, 50, 64
2, 28800, Note_on_c, 0, 68, 64
2, 28800, Note_on_c, 0, 77, 64
2, 28800, Note_on_c, 0, 51, 64
2, 28920, Note_off_c, 0, 77, 64
2, 28920, Note_off_c, 0, 68, 64
2, 28920, Note_on_c, 0, 66, 64
2, 28920, Note_on_c, 0, 75, 64
2, 29040, Note_off_c, 0, 75, 64
2, 29040, Note_off_c, 0, 66, 64
2, 29040, Note_off_c, 0, 51, 64
2, 29040, Note_on_c, 0, 78, 64
2, 29100, Note_on_c, 0, 69, 64
2, 29160, Note_off_c, 0, 69, 64
2, 29160, Note_on_c, 0, 63, 64
2, 29220, Note_off_c, 0, 63, 64
2, 29220, Note_on_c, 0, 69, 64
2, 29280, Note_off_c, 0, 69, 64
2, 29280, Note_off_c, 0, 78, 64
2, 29280, Note_on_c, 0, 77, 64
2, 29340, Note_on_c, 0, 70, 64
2, 29400, Note_off_c, 0, 70, 64
2, 29400, Note_on_c, 0, 61, 64
2, 29460, Note_off_c, 0, 61, 64
2, 29460, Note_on_c, 0, 70, 64
2, 29520, Note_off_c, 0, 70, 64
2, 29520, Note_off_c, 0, 77, 64
2, 29520, Note_on_c, 0, 75, 64
2, 29520, Note_on_c, 0, 72, 64
2, 29580, Note_on_c, 0, 66, 64
2, 29640, Note_off_c, 0, 66, 64
2, 29640, Note_on_c, 0, 57, 64
2, 29700, Note_off_c, 0, 57, 64
2, 29700, Note_on_c, 0, 66, 64
2, 29760, Note_off_c, 0, 66, 64
2, 29760, Note_off_c, 0, 75, 64
2, 29760, Note_on_c, 0, 73, 64
2, 29820, Note_on_c, 0, 65, 64
2, 29880, Note_off_c, 0, 65, 64
2, 29880, Note_off_c, 0, 72, 64
2, 29880, Note_on_c, 0, 70, 64
2, 29880, Note_on_c, 0, 58, 64
2, 29940, Note_off_c, 0, 58, 64
2, 29940, Note_on_c, 0, 65, 64
2, 30000, Note_off_c, 0, 65, 64
2, 30000, Note_off_c, 0, 70, 64
2, 30000, Note_off_c, 0, 73, 64
2, 30000, Note_on_c, 0, 74, 64
2, 30000, Note_on_c, 0, 71, 64
2, 30060, Note_on_c, 0, 68, 64
2, 30120, Note_off_c, 0, 68, 64
2, 30120, Note_on_c, 0, 58, 64
2, 30180, Note_off_c, 0, 58, 64
2, 30180, Note_on_c, 0, 68, 64
2, 30240, Note_off_c, 0, 68, 64
2, 30240, Note_off_c, 0, 71, 64
2, 30240, Note_off_c, 0, 74, 64
2, 30240, Note_on_c, 0, 70, 64
2, 30240, Note_on_c, 0, 75, 64
2, 30300, Note_on_c, 0, 66, 64
2, 30360, Note_off_c, 0, 66, 64
2, 30360, Note_on_c, 0, 60, 64
2, 30420, Note_off_c, 0, 60, 64
2, 30420, Note_on_c, 0, 66, 64
2, 30480, Note_off_c, 0, 66, 64
2, 30480, Note_off_c, 0, 75, 64
2, 30480, Note_off_c, 0, 70, 64
2, 30480, Note_on_c, 0, 77, 64
2, 30480, Note_on_c, 0, 68, 64
2, 30540, Note_on_c, 0, 65, 64
2, 30600, Note_off_c, 0, 65, 64
2, 30600, Note_on_c, 0, 62, 64
2, 30660, Note_off_c, 0, 62, 64
2, 30660, Note_on_c, 0, 65, 64
2, 30720, Note_off_c, 0, 65, 64
2, 30720, Note_off_c, 0, 68, 64
2, 30720, Note_on_c, 0, 66, 64
2, 30780, Note_on_c, 0, 63, 64
2, 30840, Note_off_c, 0, 63, 64
2, 30840, Note_off_c, 0, 77, 64
2, 30840, Note_on_c, 0, 75, 64
2, 30840, Note_on_c, 0, 62, 64
2, 30900, Note_off_c, 0, 62, 64
2, 30900, Note_on_c, 0, 63, 64
2, 30960, Note_off_c, 0, 63, 64
2, 30960, Note_off_c, 0, 75, 64
2, 30960, Note_off_c, 0, 66, 64
2, 30960, Note_on_c, 0, 60, 64
2, 31020, Note_off_c, 0, 60, 64
2, 31020, Note_on_c, 0, 78, 64
2, 31020, Note_on_c, 0, 63, 64
2, 31080, Note_off_c, 0, 63, 64
2, 31080, Note_off_c, 0, 78, 64
2, 31080, Note_on_c, 0, 77, 64
2, 31080, Note_on_c, 0, 61, 64
2, 31140, Note_off_c, 0, 61, 64
2, 31140, Note_off_c, 0, 77, 64
2, 31140, Note_on_c, 0, 78, 64
2, 31140, Note_on_c, 0, 63, 64
2, 31200, Note_off_c, 0, 63, 64
2, 31200, Note_off_c, 0, 78, 64
2, 31200, Note_on_c, 0, 70, 64
2, 31200, Note_on_c, 0, 53, 64
2, 31260, Note_off_c, 0, 53, 64
2, 31260, Note_on_c, 0, 61, 64
2, 31320, Note_off_c, 0, 61, 64
2, 31320, Note_off_c, 0, 70, 64
2, 31320, Note_on_c, 0, 69, 64
2, 31320, Note_on_c, 0, 60, 64
2, 31380, Note_off_c, 0, 60, 64
2, 31380, Note_on_c, 0, 61, 64
2, 31440, Note_off_c, 0, 61, 64
2, 31440, Note_on_c, 0, 55, 64
2, 31500, Note_off_c, 0, 55, 64
2, 31500, Note_off_c, 0, 69, 64
2, 31500, Note_on_c, 0, 75, 64
2, 31500, Note_on_c, 0, 60, 64
2, 31560, Note_off_c, 0, 60, 64
2, 31560, Note_off_c, 0, 75, 64
2, 31560, Note_on_c, 0, 73, 64
2, 31560, Note_on_c, 0, 58, 64
2, 31620, Note_off_c, 0, 58, 64
2, 31620, Note_off_c, 0, 73, 64
2, 31620, Note_on_c, 0, 60, 64
2, 31620, Note_on_c, 0, 75, 64
2, 31680, Note_off_c, 0, 75, 64
2, 31680, Note_off_c, 0, 60, 64
2, 31680, Note_on_c, 0, 66, 64
2, 31680, Note_on_c, 0, 57, 64
2, 31740, Note_off_c, 0, 57, 64
2, 31740, Note_on_c, 0, 58, 64
2, 31800, Note_off_c, 0, 58, 64
2, 31800, Note_off_c, 0, 66, 64
2, 31800, Note_on_c, 0, 65, 64
2, 31800, Note_on_c, 0, 57, 64
2, 31860, Note_off_c, 0, 57, 64
2, 31860, Note_on_c, 0, 58, 64
2, 31920, Note_off_c, 0, 58, 64
2, 31920, Note_off_c, 0, 65, 64
2, 31920, Note_on_c, 0, 65, 64
2, 31920, Note_on_c, 0, 49, 64
2, 31980, Note_off_c, 0, 49, 64
2, 31980, Note_on_c, 0, 73, 64
2, 31980, Note_on_c, 0, 58, 64
2, 32040, Note_off_c, 0, 58, 64
2, 32040, Note_off_c, 0, 73, 64
2, 32040, Note_on_c, 0, 72, 64
2, 32040, Note_on_c, 0, 57, 64
2, 32100, Note_off_c, 0, 57, 64
2, 32100, Note_off_c, 0, 72, 64
2, 32100, Note_on_c, 0, 73, 64
2, 32100, Note_on_c, 0, 58, 64
2, 32160, Note_off_c, 0, 58, 64
2, 32160, Note_off_c, 0, 73, 64
2, 32160, Note_off_c, 0, 65, 64
2, 32160, Note_on_c, 0, 63, 64
2, 32160, Note_on_c, 0, 54, 64
2, 32220, Note_off_c, 0, 54, 64
2, 32220, Note_on_c, 0, 72, 64
2, 32220, Note_on_c, 0, 53, 64
2, 32280, Note_off_c, 0, 53, 64
2, 32280, Note_off_c, 0, 72, 64
2, 32280, Note_on_c, 0, 70, 64
2, 32280, Note_on_c, 0, 54, 64
2, 32340, Note_off_c, 0, 54, 64
2, 32340, Note_off_c, 0, 70, 64
2, 32340, Note_on_c, 0, 72, 64
2, 32340, Note_on_c, 0, 51, 64
2, 32400, Note_off_c, 0, 51, 64
2, 32400, Note_off_c, 0, 63, 64
2, 32400, Note_on_c, 0, 61, 64
2, 32400, Note_on_c, 0, 53, 64
2, 32460, Note_off_c, 0, 72, 64
2, 32460, Note_on_c, 0, 70, 64
2, 32520, Note_off_c, 0, 53, 64
2, 32520, Note_off_c, 0, 61, 64
2, 32520, Note_on_c, 0, 41, 64
2, 32520, Note_on_c, 0, 60, 64
2, 32580, Note_off_c, 0, 70, 64
2, 32580, Note_on_c, 0, 69, 64
2, 32640, Note_off_c, 0, 69, 64
2, 32640, Note_off_c, 0, 60, 64
2, 32640, Note_off_c, 0, 41, 64
2, 32640, Note_on_c, 0, 60, 64
2, 32640, Note_on_c, 0, 69, 64
2, 32640, Note_on_c, 0, 46, 64
2, 32760, Note_off_c, 0, 69, 64
2, 32760, Note_off_c, 0, 60, 64
2, 32760, Note_on_c, 0, 61, 64
2, 32760, Note_on_c, 0, 70, 64
2, 32880, Note_off_c, 0, 70, 64
2, 32880, Note_off_c, 0, 61, 64
2, 32880, Note_off_c, 0, 46, 64
2, 32880, Note_on_c, 0, 77, 64
2, 32940, Note_on_c, 0, 61, 64
2, 32990, Note_off_c, 0, 77, 64
2, 33003, Note_off_c, 0, 61, 64
2, 33003, Note_on_c, 0, 77, 64
2, 33003, Note_on_c, 0, 60, 64
2, 33023, Note_off_c, 0, 77, 53
2, 33023, Note_on_c, 0, 75, 64
2, 33043, Note_off_c, 0, 75, 34
2, 33043, Note_on_c, 0, 77, 64
2, 33063, Note_off_c, 0, 77, 68
2, 33063, Note_off_c, 0, 60, 64
2, 33063, Note_on_c, 0, 75, 64
2, 33063, Note_on_c, 0, 61, 64
2, 33123, Note_off_c, 0, 61, 64
2, 33123, Note_off_c, 0, 75, 37
2, 33123, Note_on_c, 0, 73, 64
2, 33123, Note_on_c, 0, 58, 64
2, 33183, Note_off_c, 0, 58, 64
2, 33183, Note_on_c, 0, 61, 64
2, 33243, Note_off_c, 0, 61, 64
2, 33243, Note_off_c, 0, 73, 64
2, 33243, Note_on_c, 0, 77, 64
2, 33243, Note_on_c, 0, 56, 64
2, 33303, Note_off_c, 0, 56, 64
2, 33303, Note_on_c, 0, 61, 64
2, 33363, Note_off_c, 0, 61, 64
2, 33363, Note_off_c, 0, 77, 64
2, 33363, Note_on_c, 0, 70, 64
2, 33363, Note_on_c, 0, 55, 64
2, 33423, Note_off_c, 0, 55, 64
2, 33423, Note_on_c, 0, 61, 64
2, 33483, Note_off_c, 0, 61, 64
2, 33483, Note_off_c, 0, 70, 64
2, 33483, Note_on_c, 0, 73, 64
2, 33483, Note_on_c, 0, 53, 64
2, 33543, Note_off_c, 0, 53, 64
2, 33543, Note_off_c, 0, 73, 64
2, 33543, Note_on_c, 0, 61, 64
2, 33543, Note_on_c, 0, 77, 64
2, 33603, Note_off_c, 0, 77, 64
2, 33603, Note_off_c, 0, 61, 64
2, 33603, Note_on_c, 0, 80, 64
2, 33603, Note_on_c, 0, 51, 64
2, 33663, Note_off_c, 0, 51, 64
2, 33663, Note_on_c, 0, 55, 64
2, 33723, Note_off_c, 0, 55, 64
2, 33723, Note_off_c, 0, 80, 64
2, 33723, Note_on_c, 0, 79, 64
2, 33723, Note_on_c, 0, 58, 64
2, 33783, Note_off_c, 0, 58, 64
2, 33783, Note_on_c, 0, 61, 64
2, 33843, Note_off_c, 0, 61, 64
2, 33843, Note_off_c, 0, 79, 64
2, 33843, Note_on_c, 0, 75, 64
2, 33903, Note_on_c, 0, 60, 64
2, 33953, Note_off_c, 0, 75, 64
2, 33966, Note_off_c, 0, 60, 64
2, 33966, Note_on_c, 0, 75, 64
2, 33966, Note_on_c, 0, 58, 64
2, 33986, Note_off_c, 0, 75, 44
2, 33986, Note_on_c, 0, 73, 64
2, 34006, Note_off_c, 0, 73, 68
2, 34006, Note_on_c, 0, 75, 64
2, 34026, Note_off_c, 0, 75, 53
2, 34026, Note_off_c, 0, 58, 64
2, 34026, Note_on_c, 0, 73, 64
2, 34026, Note_on_c, 0, 60, 64
2, 34086, Note_off_c, 0, 60, 64
2, 34086, Note_off_c, 0, 73, 64
2, 34086, Note_on_c, 0, 72, 64
2, 34086, Note_on_c, 0, 56, 64
2, 34146, Note_off_c, 0, 56, 64
2, 34146, Note_on_c, 0, 60, 64
2, 34206, Note_off_c, 0, 60, 64
2, 34206, Note_off_c, 0, 72, 64
2, 34206, Note_on_c, 0, 75, 64
2, 34206, Note_on_c, 0, 54, 64
2, 34266, Note_off_c, 0, 54, 64
2, 34266, Note_on_c, 0, 60, 64
2, 34326, Note_off_c, 0, 60, 64
2, 34326, Note_off_c, 0, 75, 64
2, 34326, Note_on_c, 0, 68, 64
2, 34326, Note_on_c, 0, 53, 64
2, 34386, Note_off_c, 0, 53, 64
2, 34386, Note_on_c, 0, 60, 64
2, 34446, Note_off_c, 0, 60, 64
2, 34446, Note_off_c, 0, 68, 64
2, 34446, Note_on_c, 0, 72, 64
2, 34446, Note_on_c, 0, 51, 64
2, 34506, Note_off_c, 0, 51, 64
2, 34506, Note_off_c, 0, 72, 64
2, 34506, Note_on_c, 0, 60, 64
2, 34506, Note_on_c, 0, 75, 64
2, 34566, Note_off_c, 0, 75, 64
2, 34566, Note_off_c, 0, 60, 64
2, 34566, Note_on_c, 0, 78, 64
2, 34566, Note_on_c, 0, 49, 64
2, 34626, Note_off_c, 0, 49, 64
2, 34626, Note_on_c, 0, 53, 64
2, 34686, Note_off_c, 0, 53, 64
2, 34686, Note_off_c, 0, 78, 64
2, 34686, Note_on_c, 0, 77, 64
2, 34686, Note_on_c, 0, 56, 64
2, 34746, Note_off_c, 0, 56, 64
2, 34746, Note_on_c, 0, 60, 64
2, 34806, Note_off_c, 0, 60, 64
2, 34806, Note_off_c, 0, 77, 64
2, 34806, Note_on_c, 0, 68, 64
2, 34806, Note_on_c, 0, 50, 64
2, 34866, Note_off_c, 0, 50, 64
2, 34866, Note_on_c, 0, 53, 64
2, 34926, Note_off_c, 0, 53, 64
2, 34926, Note_off_c, 0, 68, 64
2, 34926, Note_on_c, 0, 77, 64
2, 34926, Note_on_c, 0, 56, 64
2, 34986, Note_off_c, 0, 56, 64
2, 34986, Note_on_c, 0, 58, 64
2, 35046, Note_off_c, 0, 58, 64
2, 35046, Note_off_c, 0, 77, 64
2, 35046, Note_on_c, 0, 70, 64
2, 35046, Note_on_c, 0, 51, 64
2, 35066, Note_off_c, 0, 70, 69
2, 35066, Note_on_c, 0, 68, 64
2, 35086, Note_off_c, 0, 68, 61
2, 35086, Note_on_c, 0, 70, 64
2, 35106, Note_off_c, 0, 70, 68
2, 35106, Note_off_c, 0, 51, 64
2, 35106, Note_on_c, 0, 68, 64
2, 35106, Note_on_c, 0, 55, 64
2, 35166, Note_off_c, 0, 55, 64
2, 35166, Note_off_c, 0, 68, 64
2, 35166, Note_on_c, 0, 67, 64
2, 35166, Note_on_c, 0, 58, 64
2, 35226, Note_off_c, 0, 58, 64
2, 35226, Note_on_c, 0, 61, 64
2, 35286, Note_off_c, 0, 61, 64
2, 35286, Note_off_c, 0, 67, 64
2, 35286, Note_on_c, 0, 70, 64
2, 35286, Note_on_c, 0, 52, 64
2, 35346, Note_off_c, 0, 52, 64
2, 35346, Note_on_c, 0, 55, 64
2, 35406, Note_off_c, 0, 55, 64
2, 35406, Note_off_c, 0, 70, 64
2, 35406, Note_on_c, 0, 79, 64
2, 35406, Note_on_c, 0, 58, 64
2, 35466, Note_off_c, 0, 58, 64
2, 35466, Note_on_c, 0, 60, 64
2, 35526, Note_off_c, 0, 60, 64
2, 35526, Note_off_c, 0, 79, 64
2, 35526, Note_on_c, 0, 72, 64
2, 35526, Note_on_c, 0, 53, 64
2, 35546, Note_off_c, 0, 72, 66
2, 35546, Note_on_c, 0, 70, 64
2, 35566, Note_off_c, 0, 70, 49
2, 35566, Note_on_c, 0, 72, 64
2, 35586, Note_off_c, 0, 72, 65
2, 35586, Note_off_c, 0, 53, 64
2, 35586, Note_on_c, 0, 70, 64
2, 35586, Note_on_c, 0, 56, 64
2, 35646, Note_off_c, 0, 56, 64
2, 35646, Note_off_c, 0, 70, 64
2, 35646, Note_on_c, 0, 68, 64
2, 35646, Note_on_c, 0, 60, 64
2, 35706, Note_off_c, 0, 60, 64
2, 35706, Note_on_c, 0, 64, 64
2, 35766, Note_off_c, 0, 64, 64
2, 35766, Note_off_c, 0, 68, 64
2, 35766, Note_on_c, 0, 72, 64
2, 35766, Note_on_c, 0, 65, 64
2, 35826, Note_off_c, 0, 72, 64
2, 35826, Note_on_c, 0, 76, 64
2, 35886, Note_off_c, 0, 76, 64
2, 35886, Note_off_c, 0, 65, 64
2, 35886, Note_on_c, 0, 68, 64
2, 35886, Note_on_c, 0, 77, 64
2, 35946, Note_off_c, 0, 77, 64
2, 35946, Note_on_c, 0, 80, 64
2, 36006, Note_off_c, 0, 80, 64
2, 36006, Note_off_c, 0, 68, 64
2, 36006, Note_on_c, 0, 73, 64
2, 36006, Note_on_c, 0, 58, 64
2, 36066, Note_off_c, 0, 73, 64
2, 36066, Note_on_c, 0, 80, 64
2, 36126, Note_off_c, 0, 80, 64
2, 36126, Note_off_c, 0, 58, 64
2, 36126, Note_on_c, 0, 72, 64
2, 36126, Note_on_c, 0, 60, 64
2, 36186, Note_off_c, 0, 72, 64
2, 36186, Note_on_c, 0, 80, 64
2, 36246, Note_off_c, 0, 80, 64
2, 36246, Note_off_c, 0, 60, 64
2, 36246, Note_on_c, 0, 70, 64
2, 36246, Note_on_c, 0, 61, 64
2, 36306, Note_off_c, 0, 70, 64
2, 36306, Note_on_c, 0, 80, 64
2, 36366, Note_off_c, 0, 80, 64
2, 36366, Note_off_c, 0, 61, 64
2, 36366, Note_on_c, 0, 58, 64
2, 36366, Note_on_c, 0, 79, 64
2, 36426, Note_off_c, 0, 79, 64
2, 36426, Note_on_c, 0, 77, 64
2, 36486, Note_off_c, 0, 77, 64
2, 36486, Note_off_c, 0, 58, 64
2, 36486, Note_on_c, 0, 77, 64
2, 36486, Note_on_c, 0, 60, 64
2, 36546, Note_off_c, 0, 77, 64
2, 36546, Note_on_c, 0, 76, 64
2, 36606, Note_off_c, 0, 76, 64
2, 36606, Note_off_c, 0, 60, 64
2, 36606, Note_on_c, 0, 74, 64
2, 36606, Note_on_c, 0, 48, 64
2, 36666, Note_off_c, 0, 74, 64
2, 36666, Note_on_c, 0, 72, 64
2, 36726, Note_off_c, 0, 72, 64
2, 36726, Note_off_c, 0, 48, 64
2, 36726, Note_on_c, 0, 80, 64
2, 36786, Note_off_c, 0, 80, 64
2, 36786, Note_on_c, 0, 77, 64
2, 36846, Note_off_c, 0, 77, 64
2, 36846, Note_on_c, 0, 56, 64
2, 36846, Note_on_c, 0, 53, 64
2, 36846, Note_on_c, 0, 73, 64
2, 36906, Note_off_c, 0, 73, 64
2, 36906, Note_on_c, 0, 72, 64
2, 36966, Note_off_c, 0, 72, 64
2, 36966, Note_off_c, 0, 53, 64
2, 36966, Note_off_c, 0, 56, 64
2, 36966, Note_on_c, 0, 70, 64
2, 36966, Note_on_c, 0, 55, 64
2, 36966, Note_on_c, 0, 53, 64
2, 37026, Note_off_c, 0, 70, 64
2, 37026, Note_on_c, 0, 68, 64
2, 37086, Note_off_c, 0, 68, 64
2, 37086, Note_off_c, 0, 53, 64
2, 37086, Note_on_c, 0, 70, 64
2, 37086, Note_on_c, 0, 52, 64
2, 37146, Note_off_c, 0, 70, 64
2, 37146, Note_on_c, 0, 72, 64
2, 37206, Note_off_c, 0, 72, 64
2, 37206, Note_off_c, 0, 52, 64
2, 37206, Note_off_c, 0, 55, 64
2, 37206, Note_on_c, 0, 78, 64
2, 37266, Note_off_c, 0, 78, 64
2, 37266, Note_on_c, 0, 75, 64
2, 37326, Note_off_c, 0, 75, 64
2, 37326, Note_on_c, 0, 54, 64
2, 37326, Note_on_c, 0, 51, 64
2, 37326, Note_on_c, 0, 72, 64
2, 37386, Note_off_c, 0, 72, 64
2, 37386, Note_on_c, 0, 70, 64
2, 37446, Note_off_c, 0, 70, 64
2, 37446, Note_off_c, 0, 51, 64
2, 37446, Note_off_c, 0, 54, 64
2, 37446, Note_on_c, 0, 69, 64
2, 37446, Note_on_c, 0, 51, 64
2, 37446, Note_on_c, 0, 53, 64
2, 37506, Note_off_c, 0, 69, 64
2, 37506, Note_on_c, 0, 67, 64
2, 37566, Note_off_c, 0, 67, 64
2, 37566, Note_off_c, 0, 53, 64
2, 37566, Note_on_c, 0, 69, 64
2, 37566, Note_on_c, 0, 60, 64
2, 37626, Note_off_c, 0, 69, 64
2, 37626, Note_on_c, 0, 72, 64
2, 37686, Note_off_c, 0, 72, 64
2, 37686, Note_off_c, 0, 60, 64
2, 37686, Note_off_c, 0, 51, 64
2, 37686, Note_on_c, 0, 75, 64
2, 37746, Note_off_c, 0, 75, 64
2, 37746, Note_on_c, 0, 72, 64
2, 37806, Note_off_c, 0, 72, 64
2, 37806, Note_on_c, 0, 53, 64
2, 37806, Note_on_c, 0, 49, 64
2, 37806, Note_on_c, 0, 69, 64
2, 37866, Note_off_c, 0, 69, 64
2, 37866, Note_on_c, 0, 67, 64
2, 37926, Note_off_c, 0, 67, 64
2, 37926, Note_off_c, 0, 49, 64
2, 37926, Note_off_c, 0, 53, 64
2, 37926, Note_on_c, 0, 66, 64
2, 37926, Note_on_c, 0, 51, 64
2, 37926, Note_on_c, 0, 49, 64
2, 37986, Note_off_c, 0, 66, 64
2, 37986, Note_on_c, 0, 65, 64
2, 38046, Note_off_c, 0, 65, 64
2, 38046, Note_off_c, 0, 49, 64
2, 38046, Note_on_c, 0, 66, 64
2, 38046, Note_on_c, 0, 48, 64
2, 38106, Note_off_c, 0, 66, 64
2, 38106, Note_on_c, 0, 70, 64
2, 38166, Note_off_c, 0, 70, 64
2, 38166, Note_off_c, 0, 48, 64
2, 38166, Note_off_c, 0, 51, 64
2, 38166, Note_on_c, 0, 75, 64
2, 38226, Note_off_c, 0, 75, 64
2, 38226, Note_on_c, 0, 72, 64
2, 38286, Note_off_c, 0, 72, 64
2, 38286, Note_on_c, 0, 49, 64
2, 38286, Note_on_c, 0, 46, 64
2, 38286, Note_on_c, 0, 69, 64
2, 38346, Note_off_c, 0, 69, 64
2, 38346, Note_on_c, 0, 66, 64
2, 38406, Note_off_c, 0, 66, 64
2, 38406, Note_off_c, 0, 46, 64
2, 38406, Note_off_c, 0, 49, 64
2, 38406, Note_on_c, 0, 65, 64
2, 38406, Note_on_c, 0, 48, 64
2, 38406, Note_on_c, 0, 46, 64
2, 38466, Note_off_c, 0, 65, 64
2, 38466, Note_on_c, 0, 64, 64
2, 38526, Note_off_c, 0, 64, 64
2, 38526, Note_off_c, 0, 46, 64
2, 38526, Note_on_c, 0, 65, 64
2, 38526, Note_on_c, 0, 45, 64
2, 38586, Note_off_c, 0, 65, 64
2, 38586, Note_on_c, 0, 75, 64
2, 38646, Note_off_c, 0, 75, 64
2, 38646, Note_off_c, 0, 45, 64
2, 38646, Note_off_c, 0, 48, 64
2, 38646, Note_on_c, 0, 70, 64
2, 38646, Note_on_c, 0, 73, 64
2, 38706, Note_on_c, 0, 58, 64
2, 38766, Note_off_c, 0, 58, 64
2, 38766, Note_off_c, 0, 73, 64
2, 38766, Note_off_c, 0, 70, 64
2, 38766, Note_on_c, 0, 60, 64
2, 38826, Note_off_c, 0, 60, 64
2, 38826, Note_on_c, 0, 61, 64
2, 38886, Note_off_c, 0, 61, 64
2, 38886, Note_on_c, 0, 64, 64
2, 38886, Note_on_c, 0, 67, 64
2, 38946, Note_on_c, 0, 60, 64
2, 39006, Note_off_c, 0, 60, 64
2, 39006, Note_off_c, 0, 67, 64
2, 39006, Note_off_c, 0, 64, 64
2, 39006, Note_on_c, 0, 58, 64
2, 39066, Note_off_c, 0, 58, 64
2, 39066, Note_on_c, 0, 56, 64
2, 39126, Note_off_c, 0, 56, 64
2, 39126, Note_on_c, 0, 61, 64
2, 39126, Note_on_c, 0, 70, 64
2, 39186, Note_on_c, 0, 55, 64
2, 39246, Note_off_c, 0, 55, 64
2, 39246, Note_off_c, 0, 70, 64
2, 39246, Note_off_c, 0, 61, 64
2, 39246, Note_on_c, 0, 56, 64
2, 39306, Note_off_c, 0, 56, 64
2, 39306, Note_on_c, 0, 58, 64
2, 39366, Note_off_c, 0, 58, 64
2, 39366, Note_on_c, 0, 61, 64
2, 39366, Note_on_c, 0, 64, 64
2, 39426, Note_on_c, 0, 56, 64
2, 39486, Note_off_c, 0, 56, 64
2, 39486, Note_off_c, 0, 64, 64
2, 39486, Note_off_c, 0, 61, 64
2, 39486, Note_on_c, 0, 55, 64
2, 39546, Note_off_c, 0, 55, 64
2, 39546, Note_on_c, 0, 53, 64
2, 39606, Note_off_c, 0, 53, 64
2, 39606, Note_on_c, 0, 52, 64
2, 39666, Note_on_c, 0, 67, 64
2, 39726, Note_off_c, 0, 67, 64
2, 39726, Note_off_c, 0, 52, 64
2, 39726, Note_on_c, 0, 58, 64
2, 39726, Note_on_c, 0, 60, 64
2, 39786, Note_on_c, 0, 67, 64
2, 39846, Note_off_c, 0, 67, 64
2, 39846, Note_off_c, 0, 60, 64
2, 39846, Note_off_c, 0, 58, 64
2, 39846, Note_on_c, 0, 56, 64
2, 39846, Note_on_c, 0, 53, 64
2, 39906, Note_on_c, 0, 67, 64
2, 39966, Note_off_c, 0, 67, 64
2, 39966, Note_off_c, 0, 53, 64
2, 39966, Note_off_c, 0, 56, 64
2, 39966, Note_on_c, 0, 56, 64
2, 39966, Note_on_c, 0, 60, 64
2, 40026, Note_on_c, 0, 65, 64
2, 40086, Note_off_c, 0, 65, 64
2, 40086, Note_off_c, 0, 60, 64
2, 40086, Note_off_c, 0, 56, 64
2, 40086, Note_on_c, 0, 56, 64
2, 40086, Note_on_c, 0, 49, 64
2, 40146, Note_on_c, 0, 65, 64
2, 40206, Note_off_c, 0, 65, 64
2, 40206, Note_off_c, 0, 49, 64
2, 40206, Note_off_c, 0, 56, 64
2, 40206, Note_on_c, 0, 59, 64
2, 40206, Note_on_c, 0, 56, 64
2, 40266, Note_on_c, 0, 65, 64
2, 40326, Note_off_c, 0, 65, 64
2, 40326, Note_off_c, 0, 56, 64
2, 40326, Note_off_c, 0, 59, 64
2, 40326, Note_on_c, 0, 56, 64
2, 40326, Note_on_c, 0, 48, 64
2, 40386, Note_on_c, 0, 65, 64
2, 40446, Note_off_c, 0, 65, 64
2, 40446, Note_off_c, 0, 48, 64
2, 40446, Note_off_c, 0, 56, 64
2, 40446, Note_on_c, 0, 64, 64
2, 40446, Note_on_c, 0, 55, 64
2, 40446, Note_on_c, 0, 60, 64
2, 40566, Note_off_c, 0, 60, 64
2, 40566, Note_off_c, 0, 55, 64
2, 40566, Note_off_c, 0, 64, 64
2, 40566, Note_on_c, 0, 53, 64
2, 40686, Note_on_c, 0, 68, 64
2, 40686, Note_on_c, 0, 65, 64
2, 40806, Note_off_c, 0, 65, 64
2, 40806, Note_off_c, 0, 68, 64
2, 40806, Note_off_c, 0, 53, 64
2, 40806, Note_on_c, 0, 65, 64
2, 40806, Note_on_c, 0, 68, 64
2, 40806, Note_on_c, 0, 58, 64
2, 40926, Note_off_c, 0, 68, 64
2, 40926, Note_off_c, 0, 65, 64
2, 40926, Note_on_c, 0, 64, 64
2, 40926, Note_on_c, 0, 67, 64
2, 41046, Note_off_c, 0, 67, 64
2, 41046, Note_off_c, 0, 64, 64
2, 41046, Note_off_c, 0, 58, 64
2, 41046, Note_on_c, 0, 61, 64
2, 41166, Note_on_c, 0, 63, 64
2, 41166, Note_on_c, 0, 67, 64
2, 41226, Note_off_c, 0, 67, 64
2, 41226, Note_on_c, 0, 68, 64
2, 41286, Note_off_c, 0, 68, 64
2, 41286, Note_off_c, 0, 63, 64
2, 41286, Note_off_c, 0, 61, 64
2, 41286, Note_on_c, 0, 70, 64
2, 41286, Note_on_c, 0, 64, 64
2, 41286, Note_on_c, 0, 55, 64
2, 41346, Note_off_c, 0, 70, 64
2, 41346, Note_on_c, 0, 73, 64
2, 41406, Note_off_c, 0, 73, 64
2, 41406, Note_on_c, 0, 72, 64
2, 41526, Note_off_c, 0, 72, 64
2, 41526, Note_off_c, 0, 55, 64
2, 41526, Note_off_c, 0, 64, 64
2, 41526, Note_on_c, 0, 56, 64
2, 41646, Note_on_c, 0, 65, 64
2, 41646, Note_on_c, 0, 72, 64
2, 41766, Note_off_c, 0, 72, 64
2, 41766, Note_off_c, 0, 56, 64
2, 41766, Note_on_c, 0, 70, 64
2, 41766, Note_on_c, 0, 61, 64
2, 41826, Note_off_c, 0, 70, 64
2, 41826, Note_on_c, 0, 68, 64
2, 41886, Note_off_c, 0, 68, 64
2, 41886, Note_off_c, 0, 61, 64
2, 41886, Note_off_c, 0, 65, 64
2, 41886, Note_on_c, 0, 67, 64
2, 41886, Note_on_c, 0, 58, 64
2, 41946, Note_off_c, 0, 67, 64
2, 41946, Note_on_c, 0, 65, 64
2, 42006, Note_off_c, 0, 65, 64
2, 42006, Note_off_c, 0, 58, 64
2, 42006, Note_on_c, 0, 68, 64
2, 42006, Note_on_c, 0, 60, 64
2, 42066, Note_off_c, 0, 68, 64
2, 42066, Note_on_c, 0, 67, 64
2, 42126, Note_off_c, 0, 67, 64
2, 42126, Note_off_c, 0, 60, 64
2, 42126, Note_on_c, 0, 58, 64
2, 42126, Note_on_c, 0, 48, 64
2, 42126, Note_on_c, 0, 65, 64
2, 42186, Note_off_c, 0, 65, 64
2, 42186, Note_on_c, 0, 64, 64
2, 42246, Note_off_c, 0, 64, 64
2, 42246, Note_off_c, 0, 48, 64
2, 42246, Note_off_c, 0, 58, 64
2, 42246, Note_on_c, 0, 64, 64
2, 42246, Note_on_c, 0, 49, 64
2, 42246, Note_on_c, 0, 56, 64
2, 42306, Note_off_c, 0, 64, 64
2, 42306, Note_on_c, 0, 65, 64
2, 42366, Note_off_c, 0, 65, 64
2, 42366, Note_off_c, 0, 56, 64
2, 42366, Note_off_c, 0, 49, 64
2, 42366, Note_on_c, 0, 67, 64
2, 42426, Note_off_c, 0, 67, 64
2, 42426, Note_on_c, 0, 65, 64
2, 42486, Note_off_c, 0, 65, 64
2, 42486, Note_on_c, 0, 64, 64
2, 42486, Note_on_c, 0, 61, 64
2, 42546, Note_off_c, 0, 64, 64
2, 42546, Note_on_c, 0, 65, 64
2, 42606, Note_off_c, 0, 65, 64
2, 42606, Note_off_c, 0, 61, 64
2, 42606, Note_on_c, 0, 49, 64
2, 42606, Note_on_c, 0, 70, 64
2, 42666, Note_off_c, 0, 70, 64
2, 42666, Note_on_c, 0, 65, 64
2, 42726, Note_off_c, 0, 65, 64
2, 42726, Note_off_c, 0, 49, 64
2, 42726, Note_on_c, 0, 64, 64
2, 42726, Note_on_c, 0, 48, 64
2, 42786, Note_off_c, 0, 64, 64
2, 42786, Note_on_c, 0, 65, 64
2, 42846, Note_off_c, 0, 65, 64
2, 42846, Note_off_c, 0, 48, 64
2, 42846, Note_on_c, 0, 68, 64
2, 42846, Note_on_c, 0, 60, 64
2, 42906, Note_off_c, 0, 68, 64
2, 42906, Note_on_c, 0, 65, 64
2, 42966, Note_off_c, 0, 65, 64
2, 42966, Note_off_c, 0, 60, 64
2, 42966, Note_on_c, 0, 64, 64
2, 42966, Note_on_c, 0, 58, 64
2, 43026, Note_off_c, 0, 64, 64
2, 43026, Note_on_c, 0, 65, 64
2, 43086, Note_off_c, 0, 65, 64
2, 43086, Note_off_c, 0, 58, 64
2, 43086, Note_on_c, 0, 46, 64
2, 43086, Note_on_c, 0, 73, 64
2, 43146, Note_off_c, 0, 73, 64
2, 43146, Note_on_c, 0, 65, 64
2, 43206, Note_off_c, 0, 65, 64
2, 43206, Note_off_c, 0, 46, 64
2, 43206, Note_on_c, 0, 64, 64
2, 43206, Note_on_c, 0, 44, 64
2, 43266, Note_off_c, 0, 44, 64
2, 43266, Note_off_c, 0, 64, 64
2, 43266, Note_on_c, 0, 65, 64
2, 43266, Note_on_c, 0, 48, 64
2, 43326, Note_off_c, 0, 48, 64
2, 43326, Note_off_c, 0, 65, 64
2, 43326, Note_on_c, 0, 72, 64
2, 43326, Note_on_c, 0, 53, 64
2, 43386, Note_off_c, 0, 53, 64
2, 43386, Note_off_c, 0, 72, 64
2, 43386, Note_on_c, 0, 65, 64
2, 43386, Note_on_c, 0, 55, 64
2, 43446, Note_off_c, 0, 55, 64
2, 43446, Note_off_c, 0, 65, 64
2, 43446, Note_on_c, 0, 63, 64
2, 43446, Note_on_c, 0, 57, 64
2, 43506, Note_off_c, 0, 63, 64
2, 43506, Note_on_c, 0, 65, 64
2, 43566, Note_off_c, 0, 65, 64
2, 43566, Note_off_c, 0, 57, 64
2, 43566, Note_on_c, 0, 53, 64
2, 43566, Note_on_c, 0, 69, 64
2, 43626, Note_off_c, 0, 69, 64
2, 43626, Note_on_c, 0, 72, 64
2, 43686, Note_off_c, 0, 72, 64
2, 43686, Note_off_c, 0, 53, 64
2, 43686, Note_on_c, 0, 72, 64
2, 43686, Note_on_c, 0, 46, 64
2, 43746, Note_off_c, 0, 72, 64
2, 43746, Note_on_c, 0, 69, 64
2, 43806, Note_off_c, 0, 69, 64
2, 43806, Note_on_c, 0, 65, 64
2, 43806, Note_on_c, 0, 56, 64
2, 43866, Note_off_c, 0, 65, 64
2, 43866, Note_on_c, 0, 61, 64
2, 43926, Note_off_c, 0, 61, 64
2, 43926, Note_off_c, 0, 56, 64
2, 43926, Note_off_c, 0, 46, 64
2, 43926, Note_on_c, 0, 55, 64
2, 43926, Note_on_c, 0, 61, 64
2, 43986, Note_off_c, 0, 61, 64
2, 43986, Note_on_c, 0, 63, 64
2, 44046, Note_off_c, 0, 63, 64
2, 44046, Note_on_c, 0, 51, 64
2, 44046, Note_on_c, 0, 67, 64
2, 44106, Note_off_c, 0, 67, 64
2, 44106, Note_on_c, 0, 70, 64
2, 44166, Note_off_c, 0, 70, 64
2, 44166, Note_off_c, 0, 51, 64
2, 44166, Note_on_c, 0, 70, 64
2, 44166, Note_on_c, 0, 44, 64
2, 44226, Note_off_c, 0, 70, 64
2, 44226, Note_on_c, 0, 67, 64
2, 44286, Note_off_c, 0, 67, 64
2, 44286, Note_off_c, 0, 55, 64
2, 44286, Note_on_c, 0, 63, 64
2, 44286, Note_on_c, 0, 55, 64
2, 44346, Note_off_c, 0, 63, 64
2, 44346, Note_on_c, 0, 60, 64
2, 44406, Note_off_c, 0, 60, 64
2, 44406, Note_off_c, 0, 55, 64
2, 44406, Note_off_c, 0, 44, 64
2, 44406, Note_on_c, 0, 53, 64
2, 44406, Note_on_c, 0, 60, 64
2, 44466, Note_off_c, 0, 60, 64
2, 44466, Note_on_c, 0, 61, 64
2, 44526, Note_off_c, 0, 61, 64
2, 44526, Note_on_c, 0, 49, 64
2, 44526, Note_on_c, 0, 65, 64
2, 44586, Note_off_c, 0, 65, 64
2, 44586, Note_on_c, 0, 68, 64
2, 44646, Note_off_c, 0, 68, 64
2, 44646, Note_off_c, 0, 49, 64
2, 44646, Note_on_c, 0, 68, 64
2, 44646, Note_on_c, 0, 43, 64
2, 44706, Note_off_c, 0, 68, 64
2, 44706, Note_on_c, 0, 65, 64
2, 44766, Note_off_c, 0, 65, 64
2, 44766, Note_off_c, 0, 53, 64
2, 44766, Note_on_c, 0, 61, 64
2, 44766, Note_on_c, 0, 53, 64
2, 44826, Note_off_c, 0, 61, 64
2, 44826, Note_on_c, 0, 58, 64
2, 44886, Note_off_c, 0, 58, 64
2, 44886, Note_off_c, 0, 53, 64
2, 44886, Note_on_c, 0, 52, 64
2, 44886, Note_on_c, 0, 58, 64
2, 44946, Note_off_c, 0, 58, 64
2, 44946, Note_on_c, 0, 60, 64
2, 45006, Note_off_c, 0, 60, 64
2, 45006, Note_off_c, 0, 43, 64
2, 45006, Note_on_c, 0, 48, 64
2, 45006, Note_on_c, 0, 64, 64
2, 45066, Note_off_c, 0, 64, 64
2, 45066, Note_on_c, 0, 67, 64
2, 45126, Note_off_c, 0, 67, 64
2, 45126, Note_off_c, 0, 48, 64
2, 45126, Note_off_c, 0, 52, 64
2, 45126, Note_on_c, 0, 67, 64
2, 45126, Note_on_c, 0, 41, 64
2, 45186, Note_off_c, 0, 67, 64
2, 45186, Note_on_c, 0, 64, 64
2, 45246, Note_off_c, 0, 64, 64
2, 45246, Note_off_c, 0, 41, 64
2, 45246, Note_on_c, 0, 60, 64
2, 45246, Note_on_c, 0, 44, 64
2, 45306, Note_off_c, 0, 60, 64
2, 45306, Note_on_c, 0, 56, 64
2, 45366, Note_off_c, 0, 56, 64
2, 45366, Note_off_c, 0, 44, 64
2, 45366, Note_on_c, 0, 48, 64
2, 45426, Note_on_c, 0, 65, 64
2, 45486, Note_off_c, 0, 65, 64
2, 45486, Note_off_c, 0, 48, 64
2, 45486, Note_on_c, 0, 60, 64
2, 45486, Note_on_c, 0, 51, 64
2, 45486, Note_on_c, 0, 56, 64
2, 45546, Note_off_c, 0, 56, 64
2, 45546, Note_on_c, 0, 65, 64
2, 45606, Note_off_c, 0, 65, 64
2, 45606, Note_off_c, 0, 51, 64
2, 45606, Note_off_c, 0, 60, 64
2, 45606, Note_on_c, 0, 49, 64
2, 45666, Note_on_c, 0, 67, 64
2, 45726, Note_off_c, 0, 67, 64
2, 45726, Note_off_c, 0, 49, 64
2, 45726, Note_on_c, 0, 58, 64
2, 45726, Note_on_c, 0, 61, 64
2, 45726, Note_on_c, 0, 41, 64
2, 45786, Note_off_c, 0, 58, 64
2, 45786, Note_on_c, 0, 67, 64
2, 45846, Note_off_c, 0, 67, 64
2, 45846, Note_off_c, 0, 41, 64
2, 45846, Note_off_c, 0, 61, 64
2, 45846, Note_on_c, 0, 39, 64
2, 45906, Note_on_c, 0, 68, 64
2, 45966, Note_off_c, 0, 68, 64
2, 45966, Note_off_c, 0, 39, 64
2, 45966, Note_on_c, 0, 63, 64
2, 45966, Note_on_c, 0, 48, 64
2, 45966, Note_on_c, 0, 66, 64
2, 46026, Note_off_c, 0, 66, 64
2, 46026, Note_on_c, 0, 68, 64
2, 46086, Note_off_c, 0, 68, 64
2, 46086, Note_off_c, 0, 48, 64
2, 46086, Note_off_c, 0, 63, 64
2, 46086, Note_on_c, 0, 46, 64
2, 46146, Note_on_c, 0, 70, 64
2, 46206, Note_off_c, 0, 70, 64
2, 46206, Note_off_c, 0, 46, 64
2, 46206, Note_on_c, 0, 65, 64
2, 46206, Note_on_c, 0, 58, 64
2, 46206, Note_on_c, 0, 37, 64
2, 46266, Note_off_c, 0, 65, 64
2, 46266, Note_on_c, 0, 70, 64
2, 46326, Note_off_c, 0, 70, 64
2, 46326, Note_off_c, 0, 37, 64
2, 46326, Note_off_c, 0, 58, 64
2, 46326, Note_on_c, 0, 36, 64
2, 46386, Note_on_c, 0, 68, 64
2, 46446, Note_off_c, 0, 68, 64
2, 46446, Note_off_c, 0, 36, 64
2, 46446, Note_on_c, 0, 60, 64
2, 46446, Note_on_c, 0, 48, 64
2, 46446, Note_on_c, 0, 65, 64
2, 46506, Note_off_c, 0, 65, 64
2, 46506, Note_on_c, 0, 68, 64
2, 46566, Note_off_c, 0, 68, 64
2, 46566, Note_off_c, 0, 48, 64
2, 46566, Note_off_c, 0, 60, 64
2, 46566, Note_on_c, 0, 47, 64
2, 46566, Note_on_c, 0, 50, 64
2, 46566, Note_on_c, 0, 53, 64
2, 46686, Note_off_c, 0, 53, 64
2, 46686, Note_off_c, 0, 50, 64
2, 46686, Note_off_c, 0, 47, 64
2, 46686, Note_on_c, 0, 62, 64
2, 46686, Note_on_c, 0, 65, 64
2, 46686, Note_on_c, 0, 68, 64
2, 46806, Note_off_c, 0, 68, 64
2, 46806, Note_off_c, 0, 65, 64
2, 46806, Note_off_c, 0, 62, 64
2, 46806, Note_on_c, 0, 48, 64
2, 46866, Note_on_c, 0, 67, 64
2, 46926, Note_off_c, 0, 67, 64
2, 46926, Note_on_c, 0, 65, 64
2, 46926, Note_on_c, 0, 58, 64
2, 46946, Note_off_c, 0, 65, 36
2, 46946, Note_on_c, 0, 67, 64
2, 46966, Note_off_c, 0, 67, 35
2, 46966, Note_on_c, 0, 65, 64
2, 46986, Note_off_c, 0, 65, 34
2, 46986, Note_on_c, 0, 64, 64
2, 47046, Note_off_c, 0, 64, 64
2, 47046, Note_off_c, 0, 58, 64
2, 47046, Note_off_c, 0, 48, 64
2, 47046, Note_on_c, 0, 53, 64
2, 47046, Note_on_c, 0, 64, 64
2, 47046, Note_on_c, 0, 58, 64
2, 47166, Note_off_c, 0, 58, 64
2, 47166, Note_off_c, 0, 64, 64
2, 47166, Note_on_c, 0, 65, 64
2, 47166, Note_on_c, 0, 56, 64
2, 47276, Note_off_c, 0, 56, 64
2, 47276, Note_off_c, 0, 65, 64
2, 47276, Note_off_c, 0, 53, 64
2, 47289, Note_on_c, 0, 56, 64
2, 47409, Note_on_c, 0, 68, 64
2, 47409, Note_on_c, 0, 72, 64
2, 47529, Note_off_c, 0, 56, 64
2, 47529, Note_on_c, 0, 68, 64
2, 47529, Note_on_c, 0, 72, 64
2, 47529, Note_on_c, 0, 63, 64
2, 47649, Note_off_c, 0, 72, 64
2, 47649, Note_off_c, 0, 68, 64
2, 47649, Note_off_c, 0, 72, 64
2, 47649, Note_off_c, 0, 68, 64
2, 47649, Note_on_c, 0, 67, 64
2, 47649, Note_on_c, 0, 70, 64
2, 47769, Note_off_c, 0, 70, 64
2, 47769, Note_off_c, 0, 67, 64
2, 47769, Note_off_c, 0, 63, 64
2, 47769, Note_on_c, 0, 51, 64
2, 47889, Note_on_c, 0, 73, 64
2, 47889, Note_on_c, 0, 70, 64
2, 48009, Note_off_c, 0, 70, 64
2, 48009, Note_off_c, 0, 73, 64
2, 48009, Note_off_c, 0, 51, 64
2, 48009, Note_on_c, 0, 70, 64
2, 48009, Note_on_c, 0, 73, 64
2, 48009, Note_on_c, 0, 56, 64
2, 48129, Note_off_c, 0, 73, 64
2, 48129, Note_off_c, 0, 70, 64
2, 48129, Note_on_c, 0, 68, 64
2, 48129, Note_on_c, 0, 72, 64
2, 48249, Note_off_c, 0, 72, 64
2, 48249, Note_off_c, 0, 68, 64
2, 48249, Note_off_c, 0, 56, 64
2, 48249, Note_on_c, 0, 57, 64
2, 48369, Note_on_c, 0, 75, 64
2, 48369, Note_on_c, 0, 66, 64
2, 48489, Note_off_c, 0, 66, 64
2, 48489, Note_off_c, 0, 75, 64
2, 48489, Note_off_c, 0, 57, 64
2, 48489, Note_on_c, 0, 66, 64
2, 48489, Note_on_c, 0, 75, 64
2, 48489, Note_on_c, 0, 58, 64
2, 48609, Note_off_c, 0, 75, 64
2, 48609, Note_off_c, 0, 66, 64
2, 48609, Note_on_c, 0, 65, 64
2, 48609, Note_on_c, 0, 74, 64
2, 48729, Note_off_c, 0, 74, 64
2, 48729, Note_off_c, 0, 65, 64
2, 48729, Note_off_c, 0, 58, 64
2, 48729, Note_on_c, 0, 50, 64
2, 48849, Note_on_c, 0, 77, 64
2, 48849, Note_on_c, 0, 68, 64
2, 48969, Note_off_c, 0, 68, 64
2, 48969, Note_off_c, 0, 77, 64
2, 48969, Note_off_c, 0, 50, 64
2, 48969, Note_on_c, 0, 68, 64
2, 48969, Note_on_c, 0, 77, 64
2, 48969, Note_on_c, 0, 51, 64
2, 49089, Note_off_c, 0, 77, 64
2, 49089, Note_off_c, 0, 68, 64
2, 49089, Note_on_c, 0, 66, 64
2, 49089, Note_on_c, 0, 75, 64
2, 49209, Note_off_c, 0, 75, 64
2, 49209, Note_off_c, 0, 66, 64
2, 49209, Note_off_c, 0, 51, 64
2, 49209, Note_on_c, 0, 78, 64
2, 49269, Note_on_c, 0, 69, 64
2, 49329, Note_off_c, 0, 69, 64
2, 49329, Note_on_c, 0, 63, 64
2, 49389, Note_off_c, 0, 63, 64
2, 49389, Note_on_c, 0, 69, 64
2, 49449, Note_off_c, 0, 69, 64
2, 49449, Note_off_c, 0, 78, 64
2, 49449, Note_on_c, 0, 77, 64
2, 49509, Note_on_c, 0, 70, 64
2, 49569, Note_off_c, 0, 70, 64
2, 49569, Note_on_c, 0, 61, 64
2, 49629, Note_off_c, 0, 61, 64
2, 49629, Note_on_c, 0, 70, 64
2, 49689, Note_off_c, 0, 70, 64
2, 49689, Note_off_c, 0, 77, 64
2, 49689, Note_on_c, 0, 75, 64
2, 49689, Note_on_c, 0, 72, 64
2, 49749, Note_on_c, 0, 66, 64
2, 49809, Note_off_c, 0, 66, 64
2, 49809, Note_on_c, 0, 57, 64
2, 49869, Note_off_c, 0, 57, 64
2, 49869, Note_on_c, 0, 66, 64
2, 49929, Note_off_c, 0, 66, 64
2, 49929, Note_off_c, 0, 75, 64
2, 49929, Note_on_c, 0, 73, 64
2, 49989, Note_on_c, 0, 65, 64
2, 50049, Note_off_c, 0, 65, 64
2, 50049, Note_off_c, 0, 72, 64
2, 50049, Note_on_c, 0, 70, 64
2, 50049, Note_on_c, 0, 58, 64
2, 50109, Note_off_c, 0, 58, 64
2, 50109, Note_on_c, 0, 65, 64
2, 50169, Note_off_c, 0, 65, 64
2, 50169, Note_off_c, 0, 70, 64
2, 50169, Note_off_c, 0, 73, 64
2, 50169, Note_on_c, 0, 74, 64
2, 50169, Note_on_c, 0, 71, 64
2, 50229, Note_on_c, 0, 68, 64
2, 50289, Note_off_c, 0, 68, 64
2, 50289, Note_on_c, 0, 58, 64
2, 50349, Note_off_c, 0, 58, 64
2, 50349, Note_on_c, 0, 68, 64
2, 50409, Note_off_c, 0, 68, 64
2, 50409, Note_off_c, 0, 71, 64
2, 50409, Note_off_c, 0, 74, 64
2, 50409, Note_on_c, 0, 70, 64
2, 50409, Note_on_c, 0, 75, 64
2, 50469, Note_on_c, 0, 66, 64
2, 50529, Note_off_c, 0, 66, 64
2, 50529, Note_on_c, 0, 60, 64
2, 50589, Note_off_c, 0, 60, 64
2, 50589, Note_on_c, 0, 66, 64
2, 50649, Note_off_c, 0, 66, 64
2, 50649, Note_off_c, 0, 75, 64
2, 50649, Note_off_c, 0, 70, 64
2, 50649, Note_on_c, 0, 77, 64
2, 50649, Note_on_c, 0, 68, 64
2, 50709, Note_on_c, 0, 65, 64
2, 50769, Note_off_c, 0, 65, 64
2, 50769, Note_on_c, 0, 62, 64
2, 50829, Note_off_c, 0, 62, 64
2, 50829, Note_on_c, 0, 65, 64
2, 50889, Note_off_c, 0, 65, 64
2, 50889, Note_off_c, 0, 68, 64
2, 50889, Note_on_c, 0, 66, 64
2, 50949, Note_on_c, 0, 63, 64
2, 51009, Note_off_c, 0, 63, 64
2, 51009, Note_off_c, 0, 77, 64
2, 51009, Note_on_c, 0, 75, 64
2, 51009, Note_on_c, 0, 62, 64
2, 51069, Note_off_c, 0, 62, 64
2, 51069, Note_on_c, 0, 63, 64
2, 51129, Note_off_c, 0, 63, 64
2, 51129, Note_off_c, 0, 75, 64
2, 51129, Note_off_c, 0, 66, 64
2, 51129, Note_on_c, 0, 60, 64
2, 51189, Note_off_c, 0, 60, 64
2, 51189, Note_on_c, 0, 78, 64
2, 51189, Note_on_c, 0, 63, 64
2, 51249, Note_off_c, 0, 63, 64
2, 51249, Note_off_c, 0, 78, 64
2, 51249, Note_on_c, 0, 77, 64
2, 51249, Note_on_c, 0, 61, 64
2, 51309, Note_off_c, 0, 61, 64
2, 51309, Note_off_c, 0, 77, 64
2, 51309, Note_on_c, 0, 78, 64
2, 51309, Note_on_c, 0, 63, 64
2, 51369, Note_off_c, 0, 63, 64
2, 51369, Note_off_c, 0, 78, 64
2, 51369, Note_on_c, 0, 70, 64
2, 51369, Note_on_c, 0, 53, 64
2, 51429, Note_off_c, 0, 53, 64
2, 51429, Note_on_c, 0, 61, 64
2, 51489, Note_off_c, 0, 61, 64
2, 51489, Note_off_c, 0, 70, 64
2, 51489, Note_on_c, 0, 69, 64
2, 51489, Note_on_c, 0, 60, 64
2, 51549, Note_off_c, 0, 60, 64
2, 51549, Note_on_c, 0, 61, 64
2, 51609, Note_off_c, 0, 61, 64
2, 51609, Note_on_c, 0, 55, 64
2, 51669, Note_off_c, 0, 55, 64
2, 51669, Note_off_c, 0, 69, 64
2, 51669, Note_on_c, 0, 75, 64
2, 51669, Note_on_c, 0, 60, 64
2, 51729, Note_off_c, 0, 60, 64
2, 51729, Note_off_c, 0, 75, 64
2, 51729, Note_on_c, 0, 73, 64
2, 51729, Note_on_c, 0, 58, 64
2, 51789, Note_off_c, 0, 58, 64
2, 51789, Note_off_c, 0, 73, 64
2, 51789, Note_on_c, 0, 60, 64
2, 51789, Note_on_c, 0, 75, 64
2, 51849, Note_off_c, 0, 75, 64
2, 51849, Note_off_c, 0, 60, 64
2, 51849, Note_on_c, 0, 66, 64
2, 51849, Note_on_c, 0, 57, 64
2, 51909, Note_off_c, 0, 57, 64
2, 51909, Note_on_c, 0, 58, 64
2, 51969, Note_off_c, 0, 58, 64
2, 51969, Note_off_c, 0, 66, 64
2, 51969, Note_on_c, 0, 65, 64
2, 51969, Note_on_c, 0, 57, 64
2, 52029, Note_off_c, 0, 57, 64
2, 52029, Note_on_c, 0, 58, 64
2, 52089, Note_off_c, 0, 58, 64
2, 52089, Note_off_c, 0, 65, 64
2, 52089, Note_on_c, 0, 65, 64
2, 52089, Note_on_c, 0, 49, 64
2, 52149, Note_off_c, 0, 49, 64
2, 52149, Note_on_c, 0, 73, 64
2, 52149, Note_on_c, 0, 58, 64
2, 52209, Note_off_c, 0, 58, 64
2, 52209, Note_off_c, 0, 73, 64
2, 52209, Note_on_c, 0, 72, 64
2, 52209, Note_on_c, 0, 57, 64
2, 52269, Note_off_c, 0, 57, 64
2, 52269, Note_off_c, 0, 72, 64
2, 52269, Note_on_c, 0, 73, 64
2, 52269, Note_on_c, 0, 58, 64
2, 52329, Note_off_c, 0, 58, 64
2, 52329, Note_off_c, 0, 73, 64
2, 52329, Note_off_c, 0, 65, 64
2, 52329, Note_on_c, 0, 63, 64
2, 52329, Note_on_c, 0, 54, 64
2, 52389, Note_off_c, 0, 54, 64
2, 52389, Note_on_c, 0, 72, 64
2, 52389, Note_on_c, 0, 53, 64
2, 52449, Note_off_c, 0, 53, 64
2, 52449, Note_off_c, 0, 72, 64
2, 52449, Note_on_c, 0, 70, 64
2, 52449, Note_on_c, 0, 54, 64
2, 52509, Note_off_c, 0, 54, 64
2, 52509, Note_off_c, 0, 70, 64
2, 52509, Note_on_c, 0, 72, 64
2, 52509, Note_on_c, 0, 51, 64
2, 52569, Note_off_c, 0, 51, 64
2, 52569, Note_off_c, 0, 63, 64
2, 52569, Note_on_c, 0, 61, 64
2, 52569, Note_on_c, 0, 53, 64
2, 52629, Note_off_c, 0, 72, 64
2, 52629, Note_on_c, 0, 70, 64
2, 52689, Note_off_c, 0, 53, 64
2, 52689, Note_off_c, 0, 61, 64
2, 52689, Note_on_c, 0, 41, 64
2, 52689, Note_on_c, 0, 60, 64
2, 52749, Note_off_c, 0, 70, 64
2, 52749, Note_on_c, 0, 69, 64
2, 52809, Note_off_c, 0, 69, 64
2, 52809, Note_off_c, 0, 60, 64
2, 52809, Note_off_c, 0, 41, 64
2, 52809, Note_on_c, 0, 60, 64
2, 52809, Note_on_c, 0, 69, 64
2, 52809, Note_on_c, 0, 46, 64
2, 52929, Note_off_c, 0, 69, 64
2, 52929, Note_off_c, 0, 60, 64
2, 52929, Note_on_c, 0, 61, 64
2, 52929, Note_on_c, 0, 70, 64
2, 53049, Note_off_c, 0, 70, 64
2, 53049, Note_off_c, 0, 61, 64
2, 53049, Note_off_c, 0, 46, 64
2, 53049, Note_on_c, 0, 77, 64
2, 53109, Note_on_c, 0, 61, 64
2, 53159, Note_off_c, 0, 77, 64
2, 53172, Note_off_c, 0, 61, 64
2, 53172, Note_on_c, 0, 77, 64
2, 53172, Note_on_c, 0, 60, 64
2, 53192, Note_off_c, 0, 77, 53
2, 53192, Note_on_c, 0, 75, 64
2, 53212, Note_off_c, 0, 75, 34
2, 53212, Note_on_c, 0, 77, 64
2, 53232, Note_off_c, 0, 77, 68
2, 53232, Note_off_c, 0, 60, 64
2, 53232, Note_on_c, 0, 75, 64
2, 53232, Note_on_c, 0, 61, 64
2, 53292, Note_off_c, 0, 61, 64
2, 53292, Note_off_c, 0, 75, 37
2, 53292, Note_on_c, 0, 73, 64
2, 53292, Note_on_c, 0, 58, 64
2, 53352, Note_off_c, 0, 58, 64
2, 53352, Note_on_c, 0, 61, 64
2, 53412, Note_off_c, 0, 61, 64
2, 53412, Note_off_c, 0, 73, 64
2, 53412, Note_on_c, 0, 77, 64
2, 53412, Note_on_c, 0, 56, 64
2, 53472, Note_off_c, 0, 56, 64
2, 53472, Note_on_c, 0, 61, 64
2, 53532, Note_off_c, 0, 61, 64
2, 53532, Note_off_c, 0, 77, 64
2, 53532, Note_on_c, 0, 70, 64
2, 53532, Note_on_c, 0, 55, 64
2, 53592, Note_off_c, 0, 55, 64
2, 53592, Note_on_c, 0, 61, 64
2, 53652, Note_off_c, 0, 61, 64
2, 53652, Note_off_c, 0, 70, 64
2, 53652, Note_on_c, 0, 73, 64
2, 53652, Note_on_c, 0, 53, 64
2, 53712, Note_off_c, 0, 53, 64
2, 53712, Note_off_c, 0, 73, 64
2, 53712, Note_on_c, 0, 61, 64
2, 53712, Note_on_c, 0, 77, 64
2, 53772, Note_off_c, 0, 77, 64
2, 53772, Note_off_c, 0, 61, 64
2, 53772, Note_on_c, 0, 80, 64
2, 53772, Note_on_c, 0, 51, 64
2, 53832, Note_off_c, 0, 51, 64
2, 53832, Note_on_c, 0, 55, 64
2, 53892, Note_off_c, 0, 55, 64
2, 53892, Note_off_c, 0, 80, 64
2, 53892, Note_on_c, 0, 79, 64
2, 53892, Note_on_c, 0, 58, 64
2, 53952, Note_off_c, 0, 58, 64
2, 53952, Note_on_c, 0, 61, 64
2, 54012, Note_off_c, 0, 61, 64
2, 54012, Note_off_c, 0, 79, 64
2, 54012, Note_on_c, 0, 75, 64
2, 54072, Note_on_c, 0, 60, 64
2, 54122, Note_off_c, 0, 75, 64
2, 54135, Note_off_c, 0, 60, 64
2, 54135, Note_on_c, 0, 75, 64
2, 54135, Note_on_c, 0, 58, 64
2, 54155, Note_off_c, 0, 75, 44
2, 54155, Note_on_c, 0, 73, 64
2, 54175, Note_off_c, 0, 73, 68
2, 54175, Note_on_c, 0, 75, 64
2, 54195, Note_off_c, 0, 75, 53
2, 54195, Note_off_c, 0, 58, 64
2, 54195, Note_on_c, 0, 73, 64
2, 54195, Note_on_c, 0, 60, 64
2, 54255, Note_off_c, 0, 60, 64
2, 54255, Note_off_c, 0, 73, 64
2, 54255, Note_on_c, 0, 72, 64
2, 54255, Note_on_c, 0, 56, 64
2, 54315, Note_off_c, 0, 56, 64
2, 54315, Note_on_c, 0, 60, 64
2, 54375, Note_off_c, 0, 60, 64
2, 54375, Note_off_c, 0, 72, 64
2, 54375, Note_on_c, 0, 75, 64
2, 54375, Note_on_c, 0, 54, 64
2, 54435, Note_off_c, 0, 54, 64
2, 54435, Note_on_c, 0, 60, 64
2, 54495, Note_off_c, 0, 60, 64
2, 54495, Note_off_c, 0, 75, 64
2, 54495, Note_on_c, 0, 68, 64
2, 54495, Note_on_c, 0, 53, 64
2, 54555, Note_off_c, 0, 53, 64
2, 54555, Note_on_c, 0, 60, 64
2, 54615, Note_off_c, 0, 60, 64
2, 54615, Note_off_c, 0, 68, 64
2, 54615, Note_on_c, 0, 72, 64
2, 54615, Note_on_c, 0, 51, 64
2, 54675, Note_off_c, 0, 51, 64
2, 54675, Note_off_c, 0, 72, 64
2, 54675, Note_on_c, 0, 60, 64
2, 54675, Note_on_c, 0, 75, 64
2, 54735, Note_off_c, 0, 75, 64
2, 54735, Note_off_c, 0, 60, 64
2, 54735, Note_on_c, 0, 78, 64
2, 54735, Note_on_c, 0, 49, 64
2, 54795, Note_off_c, 0, 49, 64
2, 54795, Note_on_c, 0, 53, 64
2, 54855, Note_off_c, 0, 53, 64
2, 54855, Note_off_c, 0, 78, 64
2, 54855, Note_on_c, 0, 77, 64
2, 54855, Note_on_c, 0, 56, 64
2, 54915, Note_off_c, 0, 56, 64
2, 54915, Note_on_c, 0, 60, 64
2, 54975, Note_off_c, 0, 60, 64
2, 54975, Note_off_c, 0, 77, 64
2, 54975, Note_on_c, 0, 68, 64
2, 54975, Note_on_c, 0, 50, 64
2, 55035, Note_off_c, 0, 50, 64
2, 55035, Note_on_c, 0, 53, 64
2, 55095, Note_off_c, 0, 53, 64
2, 55095, Note_off_c, 0, 68, 64
2, 55095, Note_on_c, 0, 77, 64
2, 55095, Note_on_c, 0, 56, 64
2, 55155, Note_off_c, 0, 56, 64
2, 55155, Note_on_c, 0, 58, 64
2, 55215, Note_off_c, 0, 58, 64
2, 55215, Note_off_c, 0, 77, 64
2, 55215, Note_on_c, 0, 70, 64
2, 55215, Note_on_c, 0, 51, 64
2, 55235, Note_off_c, 0, 70, 69
2, 55235, Note_on_c, 0, 68, 64
2, 55255, Note_off_c, 0, 68, 61
2, 55255, Note_on_c, 0, 70, 64
2, 55275, Note_off_c, 0, 70, 68
2, 55275, Note_off_c, 0, 51, 64
2, 55275, Note_on_c, 0, 68, 64
2, 55275, Note_on_c, 0, 55, 64
2, 55335, Note_off_c, 0, 55, 64
2, 55335, Note_off_c, 0, 68, 64
2, 55335, Note_on_c, 0, 67, 64
2, 55335, Note_on_c, 0, 58, 64
2, 55395, Note_off_c, 0, 58, 64
2, 55395, Note_on_c, 0, 61, 64
2, 55455, Note_off_c, 0, 61, 64
2, 55455, Note_off_c, 0, 67, 64
2, 55455, Note_on_c, 0, 70, 64
2, 55455, Note_on_c, 0, 52, 64
2, 55515, Note_off_c, 0, 52, 64
2, 55515, Note_on_c, 0, 55, 64
2, 55575, Note_off_c, 0, 55, 64
2, 55575, Note_off_c, 0, 70, 64
2, 55575, Note_on_c, 0, 79, 64
2, 55575, Note_on_c, 0, 58, 64
2, 55635, Note_off_c, 0, 58, 64
2, 55635, Note_on_c, 0, 60, 64
2, 55695, Note_off_c, 0, 60, 64
2, 55695, Note_off_c, 0, 79, 64
2, 55695, Note_on_c, 0, 72, 64
2, 55695, Note_on_c, 0, 53, 64
2, 55715, Note_off_c, 0, 72, 66
2, 55715, Note_on_c, 0, 70, 64
2, 55735, Note_off_c, 0, 70, 49
2, 55735, Note_on_c, 0, 72, 64
2, 55755, Note_off_c, 0, 72, 65
2, 55755, Note_off_c, 0, 53, 64
2, 55755, Note_on_c, 0, 70, 64
2, 55755, Note_on_c, 0, 56, 64
2, 55815, Note_off_c, 0, 56, 64
2, 55815, Note_off_c, 0, 70, 64
2, 55815, Note_on_c, 0, 68, 64
2, 55815, Note_on_c, 0, 60, 64
2, 55875, Note_off_c, 0, 60, 64
2, 55875, Note_on_c, 0, 64, 64
2, 55935, Note_off_c, 0, 64, 64
2, 55935, Note_off_c, 0, 68, 64
2, 55935, Note_on_c, 0, 72, 64
2, 55935, Note_on_c, 0, 65, 64
2, 55995, Note_off_c, 0, 72, 64
2, 55995, Note_on_c, 0, 76, 64
2, 56055, Note_off_c, 0, 76, 64
2, 56055, Note_off_c, 0, 65, 64
2, 56055, Note_on_c, 0, 68, 64
2, 56055, Note_on_c, 0, 77, 64
2, 56115, Note_off_c, 0, 77, 64
2, 56115, Note_on_c, 0, 80, 64
2, 56175, Note_off_c, 0, 80, 64
2, 56175, Note_off_c, 0, 68, 64
2, 56175, Note_on_c, 0, 73, 64
2, 56175, Note_on_c, 0, 58, 64
2, 56235, Note_off_c, 0, 73, 64
2, 56235, Note_on_c, 0, 80, 64
2, 56295, Note_off_c, 0, 80, 64
2, 56295, Note_off_c, 0, 58, 64
2, 56295, Note_on_c, 0, 72, 64
2, 56295, Note_on_c, 0, 60, 64
2, 56355, Note_off_c, 0, 72, 64
2, 56355, Note_on_c, 0, 80, 64
2, 56415, Note_off_c, 0, 80, 64
2, 56415, Note_off_c, 0, 60, 64
2, 56415, Note_on_c, 0, 70, 64
2, 56415, Note_on_c, 0, 61, 64
2, 56475, Note_off_c, 0, 70, 64
2, 56475, Note_on_c, 0, 80, 64
2, 56535, Note_off_c, 0, 80, 64
2, 56535, Note_off_c, 0, 61, 64
2, 56535, Note_on_c, 0, 58, 64
2, 56535, Note_on_c, 0, 79, 64
2, 56595, Note_off_c, 0, 79, 64
2, 56595, Note_on_c, 0, 77, 64
2, 56655, Note_off_c, 0, 77, 64
2, 56655, Note_off_c, 0, 58, 64
2, 56655, Note_on_c, 0, 77, 64
2, 56655, Note_on_c, 0, 60, 64
2, 56715, Note_off_c, 0, 77, 64
2, 56715, Note_on_c, 0, 76, 64
2, 56775, Note_off_c, 0, 76, 64
2, 56775, Note_off_c, 0, 60, 64
2, 56775, Note_on_c, 0, 74, 64
2, 56775, Note_on_c, 0, 48, 64
2, 56835, Note_off_c, 0, 74, 64
2, 56835, Note_on_c, 0, 72, 64
2, 56895, Note_off_c, 0, 72, 64
2, 56895, Note_off_c, 0, 48, 64
2, 56895, Note_on_c, 0, 80, 64
2, 56955, Note_off_c, 0, 80, 64
2, 56955, Note_on_c, 0, 77, 64
2, 57015, Note_off_c, 0, 77, 64
2, 57015, Note_on_c, 0, 56, 64
2, 57015, Note_on_c, 0, 53, 64
2, 57015, Note_on_c, 0, 73, 64
2, 57075, Note_off_c, 0, 73, 64
2, 57075, Note_on_c, 0, 72, 64
2, 57135, Note_off_c, 0, 72, 64
2, 57135, Note_off_c, 0, 53, 64
2, 57135, Note_off_c, 0, 56, 64
2, 57135, Note_on_c, 0, 70, 64
2, 57135, Note_on_c, 0, 55, 64
2, 57135, Note_on_c, 0, 53, 64
2, 57195, Note_off_c, 0, 70, 64
2, 57195, Note_on_c, 0, 68, 64
2, 57255, Note_off_c, 0, 68, 64
2, 57255, Note_off_c, 0, 53, 64
2, 57255, Note_on_c, 0, 70, 64
2, 57255, Note_on_c, 0, 52, 64
2, 57315, Note_off_c, 0, 70, 64
2, 57315, Note_on_c, 0, 72, 64
2, 57375, Note_off_c, 0, 72, 64
2, 57375, Note_off_c, 0, 52, 64
2, 57375, Note_off_c, 0, 55, 64
2, 57375, Note_on_c, 0, 78, 64
2, 57435, Note_off_c, 0, 78, 64
2, 57435, Note_on_c, 0, 75, 64
2, 57495, Note_off_c, 0, 75, 64
2, 57495, Note_on_c, 0, 54, 64
2, 57495, Note_on_c, 0, 51, 64
2, 57495, Note_on_c, 0, 72, 64
2, 57555, Note_off_c, 0, 72, 64
2, 57555, Note_on_c, 0, 70, 64
2, 57615, Note_off_c, 0, 70, 64
2, 57615, Note_off_c, 0, 51, 64
2, 57615, Note_off_c, 0, 54, 64
2, 57615, Note_on_c, 0, 69, 64
2, 57615, Note_on_c, 0, 51, 64
2, 57615, Note_on_c, 0, 53, 64
2, 57675, Note_off_c, 0, 69, 64
2, 57675, Note_on_c, 0, 67, 64
2, 57735, Note_off_c, 0, 67, 64
2, 57735, Note_off_c, 0, 53, 64
2, 57735, Note_on_c, 0, 69, 64
2, 57735, Note_on_c, 0, 60, 64
2, 57795, Note_off_c, 0, 69, 64
2, 57795, Note_on_c, 0, 72, 64
2, 57855, Note_off_c, 0, 72, 64
2, 57855, Note_off_c, 0, 60, 64
2, 57855, Note_off_c, 0, 51, 64
2, 57855, Note_on_c, 0, 75, 64
2, 57915, Note_off_c, 0, 75, 64
2, 57915, Note_on_c, 0, 72, 64
2, 57975, Note_off_c, 0, 72, 64
2, 57975, Note_on_c, 0, 53, 64
2, 57975, Note_on_c, 0, 49, 64
2, 57975, Note_on_c, 0, 69, 64
2, 58035, Note_off_c, 0, 69, 64
2, 58035, Note_on_c, 0, 67, 64
2, 58095, Note_off_c, 0, 67, 64
2, 58095, Note_off_c, 0, 49, 64
2, 58095, Note_off_c, 0, 53, 64
2, 58095, Note_on_c, 0, 66, 64
2, 58095, Note_on_c, 0, 51, 64
2, 58095, Note_on_c, 0, 49, 64
2, 58155, Note_off_c, 0, 66, 64
2, 58155, Note_on_c, 0, 65, 64
2, 58215, Note_off_c, 0, 65, 64
2, 58215, Note_off_c, 0, 49, 64
2, 58215, Note_on_c, 0, 66, 64
2, 58215, Note_on_c, 0, 48, 64
2, 58275, Note_off_c, 0, 66, 64
2, 58275, Note_on_c, 0, 70, 64
2, 58335, Note_off_c, 0, 70, 64
2, 58335, Note_off_c, 0, 48, 64
2, 58335, Note_off_c, 0, 51, 64
2, 58335, Note_on_c, 0, 75, 64
2, 58395, Note_off_c, 0, 75, 64
2, 58395, Note_on_c, 0, 72, 64
2, 58455, Note_off_c, 0, 72, 64
2, 58455, Note_on_c, 0, 49, 64
2, 58455, Note_on_c, 0, 46, 64
2, 58455, Note_on_c, 0, 69, 64
2, 58515, Note_off_c, 0, 69, 64
2, 58515, Note_on_c, 0, 66, 64
2, 58575, Note_off_c, 0, 66, 64
2, 58575, Note_off_c, 0, 46, 64
2, 58575, Note_off_c, 0, 49, 64
2, 58575, Note_on_c, 0, 65, 64
2, 58575, Note_on_c, 0, 48, 64
2, 58575, Note_on_c, 0, 46, 64
2, 58635, Note_off_c, 0, 65, 64
2, 58635, Note_on_c, 0, 64, 64
2, 58695, Note_off_c, 0, 64, 64
2, 58695, Note_off_c, 0, 46, 64
2, 58695, Note_on_c, 0, 65, 64
2, 58695, Note_on_c, 0, 45, 64
2, 58755, Note_off_c, 0, 65, 64
2, 58755, Note_on_c, 0, 75, 64
2, 58815, Note_off_c, 0, 75, 64
2, 58815, Note_off_c, 0, 45, 64
2, 58815, Note_off_c, 0, 48, 64
2, 58815, Note_on_c, 0, 70, 64
2, 58815, Note_on_c, 0, 73, 64
2, 58875, Note_on_c, 0, 58, 64
2, 58935, Note_off_c, 0, 58, 64
2, 58935, Note_off_c, 0, 73, 64
2, 58935, Note_off_c, 0, 70, 64
2, 58935, Note_on_c, 0, 60, 64
2, 58995, Note_off_c, 0, 60, 64
2, 58995, Note_on_c, 0, 61, 64
2, 59055, Note_off_c, 0, 61, 64
2, 59055, Note_on_c, 0, 64, 64
2, 59055, Note_on_c, 0, 67, 64
2, 59115, Note_on_c, 0, 60, 64
2, 59175, Note_off_c, 0, 60, 64
2, 59175, Note_off_c, 0, 67, 64
2, 59175, Note_off_c, 0, 64, 64
2, 59175, Note_on_c, 0, 58, 64
2, 59235, Note_off_c, 0, 58, 64
2, 59235, Note_on_c, 0, 56, 64
2, 59295, Note_off_c, 0, 56, 64
2, 59295, Note_on_c, 0, 61, 64
2, 59295, Note_on_c, 0, 70, 64
2, 59355, Note_on_c, 0, 55, 64
2, 59415, Note_off_c, 0, 55, 64
2, 59415, Note_off_c, 0, 70, 64
2, 59415, Note_off_c, 0, 61, 64
2, 59415, Note_on_c, 0, 56, 64
2, 59475, Note_off_c, 0, 56, 64
2, 59475, Note_on_c, 0, 58, 64
2, 59535, Note_off_c, 0, 58, 64
2, 59535, Note_on_c, 0, 61, 64
2, 59535, Note_on_c, 0, 64, 64
2, 59595, Note_on_c, 0, 56, 64
2, 59655, Note_off_c, 0, 56, 64
2, 59655, Note_off_c, 0, 64, 64
2, 59655, Note_off_c, 0, 61, 64
2, 59655, Note_on_c, 0, 55, 64
2, 59715, Note_off_c, 0, 55, 64
2, 59715, Note_on_c, 0, 53, 64
2, 59775, Note_off_c, 0, 53, 64
2, 59775, Note_on_c, 0, 52, 64
2, 59835, Note_on_c, 0, 67, 64
2, 59895, Note_off_c, 0, 67, 64
2, 59895, Note_off_c, 0, 52, 64
2, 59895, Note_on_c, 0, 58, 64
2, 59895, Note_on_c, 0, 60, 64
2, 59955, Note_on_c, 0, 67, 64
2, 60015, Note_off_c, 0, 67, 64
2, 60015, Note_off_c, 0, 60, 64
2, 60015, Note_off_c, 0, 58, 64
2, 60015, Note_on_c, 0, 56, 64
2, 60015, Note_on_c, 0, 53, 64
2, 60075, Note_on_c, 0, 67, 64
2, 60135, Note_off_c, 0, 67, 64
2, 60135, Note_off_c, 0, 53, 64
2, 60135, Note_off_c, 0, 56, 64
2, 60135, Note_on_c, 0, 56, 64
2, 60135, Note_on_c, 0, 60, 64
2, 60195, Note_on_c, 0, 65, 64
2, 60255, Note_off_c, 0, 65, 64
2, 60255, Note_off_c, 0, 60, 64
2, 60255, Note_off_c, 0, 56, 64
2, 60255, Note_on_c, 0, 56, 64
2, 60255, Note_on_c, 0, 49, 64
2, 60315, Note_on_c, 0, 65, 64
2, 60375, Note_off_c, 0, 65, 64
2, 60375, Note_off_c, 0, 49, 64
2, 60375, Note_off_c, 0, 56, 64
2, 60375, Note_on_c, 0, 59, 64
2, 60375, Note_on_c, 0, 56, 64
2, 60435, Note_on_c, 0, 65, 64
2, 60495, Note_off_c, 0, 65, 64
2, 60495, Note_off_c, 0, 56, 64
2, 60495, Note_off_c, 0, 59, 64
2, 60495, Note_on_c, 0, 56, 64
2, 60495, Note_on_c, 0, 48, 64
2, 60555, Note_on_c, 0, 65, 64
2, 60615, Note_off_c, 0, 65, 64
2, 60615, Note_off_c, 0, 48, 64
2, 60615, Note_off_c, 0, 56, 64
2, 60615, Note_on_c, 0, 64, 64
2, 60615, Note_on_c, 0, 55, 64
2, 60615, Note_on_c, 0, 60, 64
2, 60735, Note_off_c, 0, 60, 64
2, 60735, Note_off_c, 0, 55, 64
2, 60735, Note_off_c, 0, 64, 64
2, 60735, Note_on_c, 0, 53, 64
2, 60855, Note_on_c, 0, 68, 64
2, 60855, Note_on_c, 0, 65, 64
2, 60975, Note_off_c, 0, 65, 64
2, 60975, Note_off_c, 0, 68, 64
2, 60975, Note_off_c, 0, 53, 64
2, 60975, Note_on_c, 0, 65, 64
2, 60975, Note_on_c, 0, 68, 64
2, 60975, Note_on_c, 0, 58, 64
2, 61095, Note_off_c, 0, 68, 64
2, 61095, Note_off_c, 0, 65, 64
2, 61095, Note_on_c, 0, 64, 64
2, 61095, Note_on_c, 0, 67, 64
2, 61215, Note_off_c, 0, 67, 64
2, 61215, Note_off_c, 0, 64, 64
2, 61215, Note_off_c, 0, 58, 64
2, 61215, Note_on_c, 0, 61, 64
2, 61335, Note_on_c, 0, 63, 64
2, 61335, Note_on_c, 0, 67, 64
2, 61395, Note_off_c, 0, 67, 64
2, 61395, Note_on_c, 0, 68, 64
2, 61455, Note_off_c, 0, 68, 64
2, 61455, Note_off_c, 0, 63, 64
2, 61455, Note_off_c, 0, 61, 64
2, 61455, Note_on_c, 0, 70, 64
2, 61455, Note_on_c, 0, 64, 64
2, 61455, Note_on_c, 0, 55, 64
2, 61515, Note_off_c, 0, 70, 64
2, 61515, Note_on_c, 0, 73, 64
2, 61575, Note_off_c, 0, 73, 64
2, 61575, Note_on_c, 0, 72, 64
2, 61695, Note_off_c, 0, 72, 64
2, 61695, Note_off_c, 0, 55, 64
2, 61695, Note_off_c, 0, 64, 64
2, 61695, Note_on_c, 0, 56, 64
2, 61815, Note_on_c, 0, 65, 64
2, 61815, Note_on_c, 0, 72, 64
2, 61935, Note_off_c, 0, 72, 64
2, 61935, Note_off_c, 0, 56, 64
2, 61935, Note_on_c, 0, 70, 64
2, 61935, Note_on_c, 0, 61, 64
2, 61995, Note_off_c, 0, 70, 64
2, 61995, Note_on_c, 0, 68, 64
2, 62055, Note_off_c, 0, 68, 64
2, 62055, Note_off_c, 0, 61, 64
2, 62055, Note_off_c, 0, 65, 64
2, 62055, Note_on_c, 0, 67, 64
2, 62055, Note_on_c, 0, 58, 64
2, 62115, Note_off_c, 0, 67, 64
2, 62115, Note_on_c, 0, 65, 64
2, 62175, Note_off_c, 0, 65, 64
2, 62175, Note_off_c, 0, 58, 64
2, 62175, Note_on_c, 0, 68, 64
2, 62175, Note_on_c, 0, 60, 64
2, 62235, Note_off_c, 0, 68, 64
2, 62235, Note_on_c, 0, 67, 64
2, 62295, Note_off_c, 0, 67, 64
2, 62295, Note_off_c, 0, 60, 64
2, 62295, Note_on_c, 0, 58, 64
2, 62295, Note_on_c, 0, 48, 64
2, 62295, Note_on_c, 0, 65, 64
2, 62355, Note_off_c, 0, 65, 64
2, 62355, Note_on_c, 0, 64, 64
2, 62415, Note_off_c, 0, 64, 64
2, 62415, Note_off_c, 0, 48, 64
2, 62415, Note_off_c, 0, 58, 64
2, 62415, Note_on_c, 0, 64, 64
2, 62415, Note_on_c, 0, 49, 64
2, 62415, Note_on_c, 0, 56, 64
2, 62475, Note_off_c, 0, 64, 64
2, 62475, Note_on_c, 0, 65, 64
2, 62535, Note_off_c, 0, 65, 64
2, 62535, Note_off_c, 0, 56, 64
2, 62535, Note_off_c, 0, 49, 64
2, 62535, Note_on_c, 0, 67, 64
2, 62595, Note_off_c, 0, 67, 64
2, 62595, Note_on_c, 0, 65, 64
2, 62655, Note_off_c, 0, 65, 64
2, 62655, Note_on_c, 0, 64, 64
2, 62655, Note_on_c, 0, 61, 64
2, 62715, Note_off_c, 0, 64, 64
2, 62715, Note_on_c, 0, 65, 64
2, 62775, Note_off_c, 0, 65, 64
2, 62775, Note_off_c, 0, 61, 64
2, 62775, Note_on_c, 0, 49, 64
2, 62775, Note_on_c, 0, 70, 64
2, 62835, Note_off_c, 0, 70, 64
2, 62835, Note_on_c, 0, 65, 64
2, 62895, Note_off_c, 0, 65, 64
2, 62895, Note_off_c, 0, 49, 64
2, 62895, Note_on_c, 0, 64, 64
2, 62895, Note_on_c, 0, 48, 64
2, 62955, Note_off_c, 0, 64, 64
2, 62955, Note_on_c, 0, 65, 64
2, 63015, Note_off_c, 0, 65, 64
2, 63015, Note_off_c, 0, 48, 64
2, 63015, Note_on_c, 0, 68, 64
2, 63015, Note_on_c, 0, 60, 64
2, 63075, Note_off_c, 0, 68, 64
2, 63075, Note_on_c, 0, 65, 64
2, 63135, Note_off_c, 0, 65, 64
2, 63135, Note_off_c, 0, 60, 64
2, 63135, Note_on_c, 0, 64, 64
2, 63135, Note_on_c, 0, 58, 64
2, 63195, Note_off_c, 0, 64, 64
2, 63195, Note_on_c, 0, 65, 64
2, 63255, Note_off_c, 0, 65, 64
2, 63255, Note_off_c, 0, 58, 64
2, 63255, Note_on_c, 0, 46, 64
2, 63255, Note_on_c, 0, 73, 64
2, 63315, Note_off_c, 0, 73, 64
2, 63315, Note_on_c, 0, 65, 64
2, 63375, Note_off_c, 0, 65, 64
2, 63375, Note_off_c, 0, 46, 64
2, 63375, Note_on_c, 0, 64, 64
2, 63375, Note_on_c, 0, 44, 64
2, 63435, Note_off_c, 0, 44, 64
2, 63435, Note_off_c, 0, 64, 64
2, 63435, Note_on_c, 0, 65, 64
2, 63435, Note_on_c, 0, 48, 64
2, 63495, Note_off_c, 0, 48, 64
2, 63495, Note_off_c, 0, 65, 64
2, 63495, Note_on_c, 0, 72, 64
2, 63495, Note_on_c, 0, 53, 64
2, 63555, Note_off_c, 0, 53, 64
2, 63555, Note_off_c, 0, 72, 64
2, 63555, Note_on_c, 0, 65, 64
2, 63555, Note_on_c, 0, 55, 64
2, 63615, Note_off_c, 0, 55, 64
2, 63615, Note_off_c, 0, 65, 64
2, 63615, Note_on_c, 0, 63, 64
2, 63615, Note_on_c, 0, 57, 64
2, 63675, Note_off_c, 0, 63, 64
2, 63675, Note_on_c, 0, 65, 64
2, 63735, Note_off_c, 0, 65, 64
2, 63735, Note_off_c, 0, 57, 64
2, 63735, Note_on_c, 0, 53, 64
2, 63735, Note_on_c, 0, 69, 64
2, 63795, Note_off_c, 0, 69, 64
2, 63795, Note_on_c, 0, 72, 64
2, 63855, Note_off_c, 0, 72, 64
2, 63855, Note_off_c, 0, 53, 64
2, 63855, Note_on_c, 0, 72, 64
2, 63855, Note_on_c, 0, 46, 64
2, 63915, Note_off_c, 0, 72, 64
2, 63915, Note_on_c, 0, 69, 64
2, 63975, Note_off_c, 0, 69, 64
2, 63975, Note_on_c, 0, 65, 64
2, 63975, Note_on_c, 0, 56, 64
2, 64035, Note_off_c, 0, 65, 64
2, 64035, Note_on_c, 0, 61, 64
2, 64095, Note_off_c, 0, 61, 64
2, 64095, Note_off_c, 0, 56, 64
2, 64095, Note_off_c, 0, 46, 64
2, 64095, Note_on_c, 0, 55, 64
2, 64095, Note_on_c, 0, 61, 64
2, 64155, Note_off_c, 0, 61, 64
2, 64155, Note_on_c, 0, 63, 64
2, 64215, Note_off_c, 0, 63, 64
2, 64215, Note_on_c, 0, 51, 64
2, 64215, Note_on_c, 0, 67, 64
2, 64275, Note_off_c, 0, 67, 64
2, 64275, Note_on_c, 0, 70, 64
2, 64335, Note_off_c, 0, 70, 64
2, 64335, Note_off_c, 0, 51, 64
2, 64335, Note_on_c, 0, 70, 64
2, 64335, Note_on_c, 0, 44, 64
2, 64395, Note_off_c, 0, 70, 64
2, 64395, Note_on_c, 0, 67, 64
2, 64455, Note_off_c, 0, 67, 64
2, 64455, Note_off_c, 0, 55, 64
2, 64455, Note_on_c, 0, 63, 64
2, 64455, Note_on_c, 0, 55, 64
2, 64515, Note_off_c, 0, 63, 64
2, 64515, Note_on_c, 0, 60, 64
2, 64575, Note_off_c, 0, 60, 64
2, 64575, Note_off_c, 0, 55, 64
2, 64575, Note_off_c, 0, 44, 64
2, 64575, Note_on_c, 0, 53, 64
2, 64575, Note_on_c, 0, 60, 64
2, 64635, Note_off_c, 0, 60, 64
2, 64635, Note_on_c, 0, 61, 64
2, 64695, Note_off_c, 0, 61, 64
2, 64695, Note_on_c, 0, 49, 64
2, 64695, Note_on_c, 0, 65, 64
2, 64755, Note_off_c, 0, 65, 64
2, 64755, Note_on_c, 0, 68, 64
2, 64815, Note_off_c, 0, 68, 64
2, 64815, Note_off_c, 0, 49, 64
2, 64815, Note_on_c, 0, 68, 64
2, 64815, Note_on_c, 0, 43, 64
2, 64875, Note_off_c, 0, 68, 64
2, 64875, Note_on_c, 0, 65, 64
2, 64935, Note_off_c, 0, 65, 64
2, 64935, Note_off_c, 0, 53, 64
2, 64935, Note_on_c, 0, 61, 64
2, 64935, Note_on_c, 0, 53, 64
2, 64995, Note_off_c, 0, 61, 64
2, 64995, Note_on_c, 0, 58, 64
2, 65055, Note_off_c, 0, 58, 64
2, 65055, Note_off_c, 0, 53, 64
2, 65055, Note_on_c, 0, 52, 64
2, 65055, Note_on_c, 0, 58, 64
2, 65115, Note_off_c, 0, 58, 64
2, 65115, Note_on_c, 0, 60, 64
2, 65175, Note_off_c, 0, 60, 64
2, 65175, Note_off_c, 0, 43, 64
2, 65175, Note_on_c, 0, 48, 64
2, 65175, Note_on_c, 0, 64, 64
2, 65235, Note_off_c, 0, 64, 64
2, 65235, Note_on_c, 0, 67, 64
2, 65295, Note_off_c, 0, 67, 64
2, 65295, Note_off_c, 0, 48, 64
2, 65295, Note_off_c, 0, 52, 64
2, 65295, Note_on_c, 0, 67, 64
2, 65295, Note_on_c, 0, 41, 64
2, 65355, Note_off_c, 0, 67, 64
2, 65355, Note_on_c, 0, 64, 64
2, 65415, Note_off_c, 0, 64, 64
2, 65415, Note_off_c, 0, 41, 64
2, 65415, Note_on_c, 0, 60, 64
2, 65415, Note_on_c, 0, 44, 64
2, 65475, Note_off_c, 0, 60, 64
2, 65475, Note_on_c, 0, 56, 64
2, 65535, Note_off_c, 0, 56, 64
2, 65535, Note_off_c, 0, 44, 64
2, 65535, Note_on_c, 0, 48, 64
2, 65595, Note_on_c, 0, 65, 64
2, 65655, Note_off_c, 0, 65, 64
2, 65655, Note_off_c, 0, 48, 64
2, 65655, Note_on_c, 0, 60, 64
2, 65655, Note_on_c, 0, 51, 64
2, 65655, Note_on_c, 0, 56, 64
2, 65715, Note_off_c, 0, 56, 64
2, 65715, Note_on_c, 0, 65, 64
2, 65775, Note_off_c, 0, 65, 64
2, 65775, Note_off_c, 0, 51, 64
2, 65775, Note_off_c, 0, 60, 64
2, 65775, Note_on_c, 0, 49, 64
2, 65835, Note_on_c, 0, 67, 64
2, 65895, Note_off_c, 0, 67, 64
2, 65895, Note_off_c, 0, 49, 64
2, 65895, Note_on_c, 0, 58, 64
2, 65895, Note_on_c, 0, 61, 64
2, 65895, Note_on_c, 0, 41, 64
2, 65955, Note_off_c, 0, 58, 64
2, 65955, Note_on_c, 0, 67, 64
2, 66015, Note_off_c, 0, 67, 64
2, 66015, Note_off_c, 0, 41, 64
2, 66015, Note_off_c, 0, 61, 64
2, 66015, Note_on_c, 0, 39, 64
2, 66075, Note_on_c, 0, 68, 64
2, 66135, Note_off_c, 0, 68, 64
2, 66135, Note_off_c, 0, 39, 64
2, 66135, Note_on_c, 0, 63, 64
2, 66135, Note_on_c, 0, 48, 64
2, 66135, Note_on_c, 0, 66, 64
2, 66195, Note_off_c, 0, 66, 64
2, 66195, Note_on_c, 0, 68, 64
2, 66255, Note_off_c, 0, 68, 64
2, 66255, Note_off_c, 0, 48, 64
2, 66255, Note_off_c, 0, 63, 64
2, 66255, Note_on_c, 0, 46, 64
2, 66315, Note_on_c, 0, 70, 64
2, 66375, Note_off_c, 0, 70, 64
2, 66375, Note_off_c, 0, 46, 64
2, 66375, Note_on_c, 0, 65, 64
2, 66375, Note_on_c, 0, 58, 64
2, 66375, Note_on_c, 0, 37, 64
2, 66435, Note_off_c, 0, 65, 64
2, 66435, Note_on_c, 0, 70, 64
2, 66495, Note_off_c, 0, 70, 64
2, 66495, Note_off_c, 0, 37, 64
2, 66495, Note_off_c, 0, 58, 64
2, 66495, Note_on_c, 0, 36, 64
2, 66555, Note_on_c, 0, 68, 64
2, 66615, Note_off_c, 0, 68, 64
2, 66615, Note_off_c, 0, 36, 64
2, 66615, Note_on_c, 0, 60, 64
2, 66615, Note_on_c, 0, 48, 64
2, 66615, Note_on_c, 0, 65, 64
2, 66675, Note_off_c, 0, 65, 64
2, 66675, Note_on_c, 0, 68, 64
2, 66735, Note_off_c, 0, 68, 64
2, 66735, Note_off_c, 0, 48, 64
2, 66735, Note_off_c, 0, 60, 64
2, 66735, Note_on_c, 0, 47, 64
2, 66735, Note_on_c, 0, 50, 64
2, 66735, Note_on_c, 0, 53, 64
2, 66855, Note_off_c, 0, 53, 64
2, 66855, Note_off_c, 0, 50, 64
2, 66855, Note_off_c, 0, 47, 64
2, 66855, Note_on_c, 0, 62, 64
2, 66855, Note_on_c, 0, 65, 64
2, 66855, Note_on_c, 0, 68, 64
2, 66975, Note_off_c, 0, 68, 64
2, 66975, Note_off_c, 0, 65, 64
2, 66975, Note_off_c, 0, 62, 64
2, 66975, Note_on_c, 0, 48, 64
2, 67035, Note_on_c, 0, 67, 64
2, 67095, Note_off_c, 0, 67, 64
2, 67095, Note_on_c, 0, 65, 64
2, 67095, Note_on_c, 0, 58, 64
2, 67115, Note_off_c, 0, 65, 36
2, 67115, Note_on_c, 0, 67, 64
2, 67135, Note_off_c, 0, 67, 35
2, 67135, Note_on_c, 0, 65, 64
2, 67155, Note_off_c, 0, 65, 34
2, 67155, Note_on_c, 0, 64, 64
2, 67215, Note_off_c, 0, 64, 64
2, 67215, Note_off_c, 0, 58, 64
2, 67215, Note_off_c, 0, 48, 64
2, 67215, Note_on_c, 0, 64, 64
2, 67215, Note_on_c, 0, 58, 64
2, 67215, Note_on_c, 0, 53, 64
2, 67335, Note_off_c, 0, 58, 64
2, 67335, Note_off_c, 0, 64, 64
2, 67335, Note_on_c, 0, 65, 64
2, 67335, Note_on_c, 0, 56, 64
2, 67455, Note_off_c, 0, 56, 64
2, 67455, Note_off_c, 0, 65, 64
2, 67455, Note_off_c, 0, 53, 64
2, 67455, End_track
0, 0, End_of_file
