0, 0, Header, 1, 5, 240
1, 0, Start_track
1, 0, Time_signature, 6, 2, 24, 8
1, 0, Tempo, 526316
1, 54240, Tempo, 540541
1, 54480, Tempo, 566038
1, 54720, Tempo, 600000
1, 54960, Tempo, 652174
1, 55200, Tempo, 857143
1, 55200, End_track
2, 0, Start_track
2, 0, Text_t, "RH H"
2, 0, Note_on_c, 0, 68, 64
2, 120, Note_off_c, 0, 68, 61
2, 120, Note_on_c, 0, 66, 64
2, 240, Note_off_c, 0, 66, 69
2, 240, Note_on_c, 0, 64, 64
2, 360, Note_off_c, 0, 64, 49
2, 360, Note_on_c, 0, 63, 64
2, 480, Note_off_c, 0, 63, 69
2, 480, Note_on_c, 0, 64, 64
2, 600, Note_off_c, 0, 64, 59
2, 600, Note_on_c, 0, 61, 64
2, 720, Note_off_c, 0, 61, 70
2, 740, Note_on_c, 0, 73, 64
2, 1080, Note_off_c, 0, 73, 52
2, 1080, Note_on_c, 0, 71, 64
2, 1200, Note_off_c, 0, 71, 76
2, 1200, Note_on_c, 0, 69, 64
2, 1435, Note_off_c, 0, 69, 77
2, 1440, Note_on_c, 0, 69, 64
2, 1470, Note_off_c, 0, 69, 64
2, 1483, Note_on_c, 0, 68, 57
2, 1513, Note_off_c, 0, 68, 64
2, 1513, Note_on_c, 0, 69, 59
2, 1543, Note_off_c, 0, 69, 64
2, 1543, Note_on_c, 0, 68, 61
2, 1573, Note_off_c, 0, 68, 64
2, 1573, Note_on_c, 0, 69, 63
2, 1603, Note_off_c, 0, 69, 64
2, 1616, Note_on_c, 0, 68, 64
2, 2656, Note_off_c, 0, 68, 86
2, 2886, Note_on_c, 0, 75, 64
2, 3006, Note_off_c, 0, 75, 49
2, 3006, Note_on_c, 0, 73, 64
2, 3126, Note_off_c, 0, 73, 72
2, 3126, Note_on_c, 0, 72, 64
2, 3246, Note_off_c, 0, 72, 83
2, 3246, Note_on_c, 0, 70, 64
2, 3366, Note_off_c, 0, 70, 80
2, 3366, Note_on_c, 0, 72, 64
2, 3486, Note_off_c, 0, 72, 85
2, 3486, Note_on_c, 0, 68, 64
2, 3606, Note_off_c, 0, 68, 70
2, 3626, Note_on_c, 0, 80, 64
2, 3966, Note_off_c, 0, 80, 62
2, 3966, Note_on_c, 0, 78, 64
2, 4086, Note_off_c, 0, 78, 68
2, 4086, Note_on_c, 0, 76, 64
2, 4321, Note_off_c, 0, 76, 66
2, 4326, Note_on_c, 0, 76, 68
2, 4366, Note_off_c, 0, 76, 64
2, 4366, Note_on_c, 0, 75, 64
2, 5526, Note_off_c, 0, 75, 72
2, 5526, Note_on_c, 0, 80, 64
2, 5766, Note_off_c, 0, 80, 79
2, 5766, Note_on_c, 0, 75, 80
2, 5806, Note_off_c, 0, 75, 68
2, 5806, Note_on_c, 0, 73, 64
2, 5886, Note_off_c, 0, 73, 80
2, 5886, Note_on_c, 0, 72, 64
2, 6006, Note_off_c, 0, 72, 26
2, 6006, Note_on_c, 0, 73, 64
2, 6126, Note_off_c, 0, 73, 66
2, 6126, Note_on_c, 0, 76, 64
2, 6246, Note_off_c, 0, 76, 62
2, 6246, Note_on_c, 0, 81, 64
2, 6606, Note_off_c, 0, 81, 52
2, 6606, Note_on_c, 0, 80, 64
2, 6726, Note_off_c, 0, 80, 68
2, 6726, Note_on_c, 0, 78, 64
2, 6846, Note_off_c, 0, 78, 77
2, 6846, Note_on_c, 0, 76, 64
2, 6966, Note_off_c, 0, 76, 58
2, 6966, Note_on_c, 0, 75, 64
2, 7086, Note_off_c, 0, 75, 53
2, 7086, Note_on_c, 0, 73, 64
2, 7201, Note_off_c, 0, 73, 66
2, 7206, Note_on_c, 0, 73, 68
2, 7246, Note_off_c, 0, 73, 64
2, 7246, Note_on_c, 0, 71, 64
2, 7326, Note_off_c, 0, 71, 79
2, 7326, Note_on_c, 0, 69, 64
2, 7446, Note_off_c, 0, 69, 80
2, 7446, Note_on_c, 0, 71, 64
2, 7566, Note_off_c, 0, 71, 74
2, 7566, Note_on_c, 0, 75, 64
2, 7686, Note_off_c, 0, 75, 70
2, 7686, Note_on_c, 0, 80, 64
2, 8046, Note_off_c, 0, 80, 79
2, 8046, Note_on_c, 0, 78, 64
2, 8166, Note_off_c, 0, 78, 70
2, 8166, Note_on_c, 0, 76, 64
2, 8286, Note_off_c, 0, 76, 55
2, 8286, Note_on_c, 0, 75, 64
2, 8406, Note_off_c, 0, 75, 58
2, 8406, Note_on_c, 0, 73, 64
2, 8526, Note_off_c, 0, 73, 76
2, 8526, Note_on_c, 0, 71, 64
2, 8641, Note_off_c, 0, 71, 73
2, 8646, Note_on_c, 0, 71, 64
2, 8676, Note_off_c, 0, 71, 64
2, 8689, Note_on_c, 0, 69, 64
2, 8769, Note_off_c, 0, 69, 52
2, 8769, Note_on_c, 0, 68, 64
2, 8889, Note_off_c, 0, 68, 83
2, 8889, Note_on_c, 0, 69, 64
2, 9009, Note_off_c, 0, 69, 66
2, 9009, Note_on_c, 0, 73, 64
2, 9129, Note_off_c, 0, 73, 59
2, 9129, Note_on_c, 0, 78, 64
2, 9489, Note_off_c, 0, 78, 61
2, 9489, Note_on_c, 0, 76, 64
2, 9609, Note_off_c, 0, 76, 55
2, 9609, Note_on_c, 0, 75, 64
2, 9729, Note_off_c, 0, 75, 51
2, 9729, Note_on_c, 0, 73, 64
2, 9849, Note_off_c, 0, 73, 65
2, 9849, Note_on_c, 0, 71, 64
2, 9969, Note_off_c, 0, 71, 65
2, 9969, Note_on_c, 0, 69, 64
2, 10089, Note_off_c, 0, 69, 79
2, 10089, Note_on_c, 0, 69, 64
2, 10119, Note_off_c, 0, 69, 64
2, 10119, Note_on_c, 0, 68, 64
2, 10149, Note_off_c, 0, 68, 64
2, 10149, Note_on_c, 0, 69, 64
2, 10179, Note_off_c, 0, 69, 64
2, 10179, Note_on_c, 0, 68, 64
2, 11169, Note_off_c, 0, 68, 69
2, 11169, Note_on_c, 0, 66, 64
2, 11289, Note_on_c, 0, 69, 64
2, 11294, Note_off_c, 0, 66, 79
2, 11319, Note_off_c, 0, 69, 64
2, 11319, Note_on_c, 0, 68, 64
2, 11349, Note_off_c, 0, 68, 64
2, 11349, Note_on_c, 0, 69, 64
2, 11649, Note_off_c, 0, 69, 70
2, 11649, Note_on_c, 0, 68, 64
2, 11769, Note_off_c, 0, 68, 74
2, 11769, Note_on_c, 0, 66, 64
2, 11889, Note_off_c, 0, 66, 74
2, 11889, Note_on_c, 0, 64, 64
2, 12009, Note_off_c, 0, 64, 47
2, 12009, Note_on_c, 0, 66, 64
2, 12129, Note_off_c, 0, 66, 74
2, 12129, Note_on_c, 0, 63, 64
2, 12249, Note_off_c, 0, 63, 57
2, 12249, Note_on_c, 0, 75, 64
2, 12369, Note_off_c, 0, 75, 45
2, 12369, Note_on_c, 0, 73, 64
2, 12489, Note_off_c, 0, 73, 1
2, 12489, Note_on_c, 0, 72, 64
2, 12609, Note_off_c, 0, 72, 80
2, 12609, Note_on_c, 0, 70, 64
2, 12729, Note_off_c, 0, 70, 74
2, 12729, Note_on_c, 0, 72, 64
2, 12849, Note_off_c, 0, 72, 82
2, 12849, Note_on_c, 0, 68, 64
2, 12969, Note_off_c, 0, 68, 69
2, 12969, Note_on_c, 0, 81, 64
2, 13089, Note_off_c, 0, 81, 59
2, 13089, Note_on_c, 0, 80, 64
2, 13209, Note_off_c, 0, 80, 76
2, 13209, Note_on_c, 0, 78, 64
2, 13329, Note_off_c, 0, 78, 70
2, 13329, Note_on_c, 0, 76, 64
2, 13449, Note_off_c, 0, 76, 65
2, 13449, Note_on_c, 0, 78, 64
2, 13569, Note_off_c, 0, 78, 74
2, 13569, Note_on_c, 0, 75, 64
2, 13689, Note_off_c, 0, 75, 1
2, 13689, Note_on_c, 0, 76, 64
2, 14769, Note_off_c, 0, 76, 44
2, 14769, Note_on_c, 0, 75, 64
2, 14889, Note_off_c, 0, 75, 66
2, 14889, Note_on_c, 0, 73, 64
2, 15119, Note_off_c, 0, 73, 42
2, 15132, Note_on_c, 0, 73, 64
2, 15492, Note_off_c, 0, 73, 63
2, 15492, Note_on_c, 0, 71, 64
2, 15612, Note_off_c, 0, 71, 72
2, 15612, Note_on_c, 0, 70, 64
2, 15972, Note_off_c, 0, 70, 65
2, 15972, Note_on_c, 0, 68, 64
2, 16092, Note_off_c, 0, 68, 80
2, 16092, Note_on_c, 0, 67, 64
2, 16212, Note_off_c, 0, 67, 27
2, 16212, Note_on_c, 0, 65, 64
2, 16332, Note_off_c, 0, 65, 1
2, 16332, Note_on_c, 0, 67, 64
2, 16452, Note_off_c, 0, 67, 57
2, 16452, Note_on_c, 0, 63, 64
2, 16572, Note_off_c, 0, 63, 51
2, 16592, Note_on_c, 0, 75, 64
2, 17412, Note_off_c, 0, 75, 68
2, 17412, Note_on_c, 0, 72, 64
2, 17532, Note_off_c, 0, 72, 74
2, 17532, Note_on_c, 0, 73, 64
2, 17652, Note_off_c, 0, 73, 72
2, 17652, Note_on_c, 0, 75, 64
2, 17772, Note_off_c, 0, 75, 47
2, 17772, Note_on_c, 0, 76, 64
2, 17892, Note_off_c, 0, 76, 55
2, 17892, Note_on_c, 0, 75, 64
2, 18012, Note_off_c, 0, 75, 62
2, 18012, Note_on_c, 0, 73, 68
2, 18042, Note_off_c, 0, 73, 64
2, 18042, Note_on_c, 0, 71, 64
2, 18372, Note_off_c, 0, 71, 66
2, 18372, Note_on_c, 0, 73, 64
2, 18492, Note_off_c, 0, 73, 77
2, 18492, Note_on_c, 0, 71, 64
2, 18522, Note_off_c, 0, 71, 64
2, 18522, Note_on_c, 0, 70, 64
2, 18552, Note_off_c, 0, 70, 64
2, 18552, Note_on_c, 0, 68, 64
2, 18582, Note_off_c, 0, 68, 64
2, 18588, Note_on_c, 0, 70, 64
2, 18718, Note_off_c, 0, 70, 64
2, 18752, Note_on_c, 0, 68, 64
2, 19932, Note_off_c, 0, 68, 79
2, 19932, Note_on_c, 0, 71, 64
2, 19962, Note_off_c, 0, 71, 64
2, 19962, Note_on_c, 0, 69, 64
2, 19992, Note_off_c, 0, 69, 64
2, 19992, Note_on_c, 0, 71, 64
2, 20292, Note_off_c, 0, 71, 82
2, 20292, Note_on_c, 0, 68, 64
2, 20412, Note_off_c, 0, 68, 65
2, 20412, Note_on_c, 0, 70, 64
2, 20532, Note_off_c, 0, 70, 62
2, 20532, Note_on_c, 0, 73, 64
2, 20652, Note_off_c, 0, 73, 69
2, 20652, Note_on_c, 0, 76, 64
2, 21012, Note_off_c, 0, 76, 66
2, 21012, Note_on_c, 0, 75, 64
2, 21132, Note_off_c, 0, 75, 69
2, 21132, Note_on_c, 0, 76, 64
2, 21252, Note_off_c, 0, 76, 58
2, 21252, Note_on_c, 0, 80, 64
2, 21372, Note_off_c, 0, 80, 74
2, 21372, Note_on_c, 0, 78, 64
2, 21612, Note_off_c, 0, 78, 74
2, 21612, Note_on_c, 0, 75, 64
2, 22812, Note_on_c, 0, 73, 64
2, 22827, Note_off_c, 0, 75, 66
2, 23172, Note_on_c, 0, 70, 64
2, 23184, Note_off_c, 0, 73, 73
2, 23292, Note_on_c, 0, 72, 64
2, 23300, Note_off_c, 0, 70, 69
2, 23412, Note_on_c, 0, 75, 64
2, 23418, Note_off_c, 0, 72, 79
2, 23532, Note_on_c, 0, 78, 64
2, 23548, Note_off_c, 0, 75, 59
2, 23652, Note_on_c, 0, 80, 64
2, 23658, Note_off_c, 0, 78, 80
2, 23752, Note_off_c, 0, 80, 70
2, 23772, Note_on_c, 0, 81, 64
2, 23892, Note_on_c, 0, 80, 64
2, 23905, Note_off_c, 0, 81, 58
2, 24015, Note_on_c, 0, 78, 64
2, 24028, Note_off_c, 0, 80, 70
2, 24134, Note_off_c, 0, 78, 72
2, 24135, Note_on_c, 0, 76, 64
2, 24255, Note_on_c, 0, 78, 64
2, 24266, Note_off_c, 0, 76, 58
2, 24375, Note_on_c, 0, 75, 64
2, 24380, Note_off_c, 0, 78, 68
2, 24495, Note_on_c, 0, 76, 64
2, 24504, Note_off_c, 0, 75, 57
2, 26045, Note_off_c, 0, 76, 58
2, 26058, Note_on_c, 0, 74, 64
2, 26178, Note_off_c, 0, 74, 69
2, 26178, Note_on_c, 0, 77, 64
2, 26298, Note_off_c, 0, 77, 70
2, 26298, Note_on_c, 0, 80, 64
2, 26418, Note_off_c, 0, 80, 83
2, 26418, Note_on_c, 0, 83, 64
2, 26778, Note_off_c, 0, 83, 74
2, 26778, Note_on_c, 0, 74, 64
2, 26898, Note_off_c, 0, 74, 62
2, 26898, Note_on_c, 0, 73, 64
2, 27018, Note_off_c, 0, 73, 70
2, 27018, Note_on_c, 0, 71, 64
2, 27138, Note_off_c, 0, 71, 80
2, 27138, Note_on_c, 0, 69, 64
2, 27258, Note_off_c, 0, 69, 61
2, 27258, Note_on_c, 0, 68, 64
2, 27378, Note_off_c, 0, 68, 86
2, 27378, Note_on_c, 0, 69, 64
2, 27408, Note_off_c, 0, 69, 64
2, 27408, Note_on_c, 0, 68, 64
2, 27438, Note_off_c, 0, 68, 64
2, 27438, Note_on_c, 0, 69, 64
2, 28218, Note_off_c, 0, 69, 77
2, 28218, Note_on_c, 0, 68, 64
2, 28338, Note_off_c, 0, 68, 83
2, 28338, Note_on_c, 0, 69, 64
2, 28458, Note_off_c, 0, 69, 66
2, 28458, Note_on_c, 0, 73, 64
2, 28578, Note_off_c, 0, 73, 72
2, 28578, Note_on_c, 0, 78, 64
2, 28938, Note_off_c, 0, 78, 62
2, 28938, Note_on_c, 0, 76, 64
2, 29058, Note_off_c, 0, 76, 66
2, 29058, Note_on_c, 0, 74, 64
2, 29178, Note_off_c, 0, 74, 68
2, 29178, Note_on_c, 0, 73, 64
2, 29298, Note_off_c, 0, 73, 66
2, 29298, Note_on_c, 0, 71, 64
2, 29418, Note_off_c, 0, 71, 77
2, 29418, Note_on_c, 0, 69, 64
2, 29533, Note_off_c, 0, 69, 72
2, 29538, Note_on_c, 0, 69, 64
2, 29578, Note_off_c, 0, 69, 64
2, 29578, Note_on_c, 0, 68, 64
2, 29658, Note_off_c, 0, 68, 68
2, 29658, Note_on_c, 0, 66, 64
2, 29778, Note_off_c, 0, 66, 69
2, 29778, Note_on_c, 0, 68, 64
2, 29898, Note_off_c, 0, 68, 85
2, 29898, Note_on_c, 0, 71, 64
2, 30018, Note_off_c, 0, 71, 62
2, 30018, Note_on_c, 0, 76, 64
2, 30378, Note_off_c, 0, 76, 45
2, 30378, Note_on_c, 0, 75, 64
2, 30498, Note_off_c, 0, 75, 63
2, 30498, Note_on_c, 0, 73, 64
2, 30618, Note_off_c, 0, 73, 62
2, 30618, Note_on_c, 0, 71, 64
2, 30738, Note_off_c, 0, 71, 79
2, 30738, Note_on_c, 0, 69, 64
2, 30858, Note_off_c, 0, 69, 61
2, 30858, Note_on_c, 0, 68, 64
2, 30973, Note_off_c, 0, 68, 69
2, 30978, Note_on_c, 0, 68, 64
2, 31018, Note_off_c, 0, 68, 64
2, 31018, Note_on_c, 0, 66, 64
2, 31098, Note_off_c, 0, 66, 72
2, 31098, Note_on_c, 0, 64, 64
2, 31218, Note_off_c, 0, 64, 40
2, 31218, Note_on_c, 0, 66, 64
2, 31338, Note_off_c, 0, 66, 51
2, 31338, Note_on_c, 0, 69, 64
2, 31458, Note_off_c, 0, 69, 62
2, 31458, Note_on_c, 0, 75, 64
2, 31818, Note_off_c, 0, 75, 61
2, 31818, Note_on_c, 0, 73, 64
2, 31938, Note_off_c, 0, 73, 69
2, 31938, Note_on_c, 0, 72, 64
2, 32058, Note_off_c, 0, 72, 83
2, 32058, Note_on_c, 0, 70, 64
2, 32178, Note_off_c, 0, 70, 82
2, 32178, Note_on_c, 0, 68, 64
2, 32298, Note_off_c, 0, 68, 68
2, 32298, Note_on_c, 0, 66, 64
2, 32413, Note_off_c, 0, 66, 68
2, 32418, Note_on_c, 0, 66, 64
2, 32458, Note_off_c, 0, 66, 64
2, 32458, Note_on_c, 0, 64, 64
2, 32538, Note_off_c, 0, 64, 53
2, 32538, Note_on_c, 0, 63, 64
2, 32658, Note_off_c, 0, 63, 62
2, 32658, Note_on_c, 0, 64, 64
2, 32778, Note_off_c, 0, 64, 34
2, 32778, Note_on_c, 0, 68, 64
2, 32898, Note_off_c, 0, 68, 83
2, 32898, Note_on_c, 0, 73, 64
2, 33258, Note_on_c, 0, 71, 64
2, 33271, Note_off_c, 0, 73, 62
2, 33381, Note_off_c, 0, 71, 80
2, 33381, Note_on_c, 0, 69, 64
2, 33501, Note_off_c, 0, 69, 72
2, 33501, Note_on_c, 0, 68, 64
2, 33621, Note_off_c, 0, 68, 73
2, 33621, Note_on_c, 0, 66, 64
2, 33741, Note_off_c, 0, 66, 72
2, 33741, Note_on_c, 0, 69, 64
2, 33861, Note_off_c, 0, 69, 79
2, 33861, Note_on_c, 0, 78, 64
2, 33981, Note_off_c, 0, 78, 69
2, 33981, Note_on_c, 0, 76, 64
2, 34101, Note_off_c, 0, 76, 49
2, 34101, Note_on_c, 0, 74, 64
2, 34221, Note_off_c, 0, 74, 62
2, 34221, Note_on_c, 0, 73, 64
2, 34341, Note_off_c, 0, 73, 69
2, 34341, Note_on_c, 0, 74, 64
2, 34461, Note_off_c, 0, 74, 73
2, 34461, Note_on_c, 0, 69, 64
2, 34581, Note_off_c, 0, 69, 69
2, 34581, Note_on_c, 0, 81, 64
2, 34701, Note_off_c, 0, 81, 58
2, 34701, Note_on_c, 0, 80, 64
2, 34821, Note_off_c, 0, 80, 74
2, 34821, Note_on_c, 0, 78, 64
2, 34941, Note_off_c, 0, 78, 52
2, 34941, Note_on_c, 0, 76, 64
2, 35061, Note_off_c, 0, 76, 61
2, 35061, Note_on_c, 0, 78, 64
2, 35181, Note_off_c, 0, 78, 73
2, 35301, Note_on_c, 0, 84, 64
2, 35781, Note_off_c, 0, 84, 73
2, 35781, Note_on_c, 0, 80, 64
2, 36014, Note_off_c, 0, 80, 69
2, 36021, Note_on_c, 0, 80, 64
2, 36861, Note_off_c, 0, 80, 80
2, 36861, Note_on_c, 0, 78, 64
2, 36981, Note_off_c, 0, 78, 55
2, 36981, Note_on_c, 0, 76, 64
2, 37101, Note_off_c, 0, 76, 57
2, 37101, Note_on_c, 0, 75, 64
2, 37221, Note_off_c, 0, 75, 58
2, 37221, Note_on_c, 0, 76, 64
2, 37341, Note_off_c, 0, 76, 57
2, 37341, Note_on_c, 0, 73, 64
2, 37461, Note_off_c, 0, 73, 79
2, 37461, Note_on_c, 0, 78, 64
2, 38301, Note_off_c, 0, 78, 68
2, 38301, Note_on_c, 0, 76, 64
2, 38421, Note_off_c, 0, 76, 55
2, 38421, Note_on_c, 0, 75, 64
2, 38541, Note_off_c, 0, 75, 62
2, 38541, Note_on_c, 0, 73, 64
2, 38661, Note_off_c, 0, 73, 76
2, 38661, Note_on_c, 0, 75, 64
2, 38781, Note_off_c, 0, 75, 52
2, 38781, Note_on_c, 0, 68, 64
2, 38901, Note_off_c, 0, 68, 68
2, 38901, Note_on_c, 0, 76, 64
2, 39741, Note_off_c, 0, 76, 59
2, 39741, Note_on_c, 0, 75, 64
2, 39861, Note_off_c, 0, 75, 66
2, 39861, Note_on_c, 0, 76, 64
2, 39981, Note_off_c, 0, 76, 58
2, 39981, Note_on_c, 0, 78, 64
2, 40101, Note_off_c, 0, 78, 74
2, 40101, Note_on_c, 0, 80, 64
2, 40221, Note_off_c, 0, 80, 77
2, 40221, Note_on_c, 0, 81, 64
2, 40341, Note_off_c, 0, 81, 61
2, 40341, Note_on_c, 0, 73, 68
2, 40371, Note_off_c, 0, 73, 64
2, 40371, Note_on_c, 0, 72, 51
2, 40401, Note_off_c, 0, 72, 64
2, 40401, Note_on_c, 0, 70, 53
2, 40431, Note_off_c, 0, 70, 64
2, 40431, Note_on_c, 0, 72, 56
2, 40461, Note_off_c, 0, 72, 64
2, 40461, Note_on_c, 0, 73, 58
2, 40491, Note_off_c, 0, 73, 64
2, 40491, Note_on_c, 0, 72, 61
2, 40521, Note_off_c, 0, 72, 64
2, 40521, Note_on_c, 0, 73, 63
2, 40549, Note_on_c, 0, 72, 64
2, 40551, Note_off_c, 0, 73, 64
2, 40699, Note_off_c, 0, 72, 64
2, 40701, Note_on_c, 0, 73, 64
2, 40821, Note_off_c, 0, 73, 66
2, 40821, Note_on_c, 0, 75, 64
2, 41061, Note_off_c, 0, 75, 66
2, 41081, Note_on_c, 0, 66, 64
2, 41901, Note_on_c, 0, 64, 64
2, 41921, Note_off_c, 0, 66, 72
2, 42021, Note_off_c, 0, 64, 48
2, 42021, Note_on_c, 0, 63, 64
2, 42141, Note_off_c, 0, 63, 54
2, 42141, Note_on_c, 0, 61, 64
2, 42261, Note_off_c, 0, 61, 73
2, 42261, Note_on_c, 0, 63, 64
2, 42381, Note_off_c, 0, 63, 62
2, 42381, Note_on_c, 0, 60, 64
2, 42501, Note_off_c, 0, 60, 65
2, 42501, Note_on_c, 0, 69, 64
2, 42621, Note_off_c, 0, 69, 66
2, 42621, Note_on_c, 0, 68, 64
2, 42741, Note_off_c, 0, 68, 68
2, 42741, Note_on_c, 0, 66, 64
2, 42861, Note_off_c, 0, 66, 68
2, 42861, Note_on_c, 0, 64, 64
2, 42981, Note_off_c, 0, 64, 63
2, 42981, Note_on_c, 0, 66, 64
2, 43101, Note_off_c, 0, 66, 73
2, 43101, Note_on_c, 0, 63, 64
2, 43221, Note_off_c, 0, 63, 58
2, 43221, Note_on_c, 0, 72, 64
2, 43341, Note_off_c, 0, 72, 70
2, 43341, Note_on_c, 0, 69, 64
2, 43461, Note_off_c, 0, 69, 74
2, 43461, Note_on_c, 0, 68, 64
2, 43581, Note_off_c, 0, 68, 70
2, 43581, Note_on_c, 0, 66, 64
2, 43701, Note_off_c, 0, 66, 72
2, 43701, Note_on_c, 0, 68, 64
2, 43821, Note_off_c, 0, 68, 79
2, 43821, Note_on_c, 0, 63, 64
2, 43941, Note_off_c, 0, 63, 52
2, 43941, Note_on_c, 0, 75, 64
2, 44061, Note_off_c, 0, 75, 43
2, 44061, Note_on_c, 0, 73, 64
2, 44181, Note_off_c, 0, 73, 77
2, 44181, Note_on_c, 0, 72, 64
2, 44301, Note_off_c, 0, 72, 80
2, 44301, Note_on_c, 0, 70, 64
2, 44421, Note_off_c, 0, 70, 70
2, 44421, Note_on_c, 0, 72, 64
2, 44541, Note_off_c, 0, 72, 82
2, 44541, Note_on_c, 0, 68, 64
2, 44661, Note_off_c, 0, 68, 77
2, 44661, Note_on_c, 0, 80, 64
2, 44901, Note_off_c, 0, 80, 68
2, 44901, Note_on_c, 0, 78, 64
2, 45021, Note_off_c, 0, 78, 68
2, 45021, Note_on_c, 0, 76, 64
2, 45141, Note_off_c, 0, 76, 65
2, 45141, Note_on_c, 0, 75, 64
2, 45261, Note_off_c, 0, 75, 59
2, 45261, Note_on_c, 0, 73, 64
2, 45381, Note_off_c, 0, 73, 62
2, 45381, Note_on_c, 0, 72, 64
2, 45501, Note_off_c, 0, 72, 79
2, 45501, Note_on_c, 0, 73, 64
2, 45621, Note_off_c, 0, 73, 70
2, 45621, Note_on_c, 0, 75, 64
2, 45741, Note_off_c, 0, 75, 54
2, 45741, Note_on_c, 0, 78, 64
2, 45861, Note_off_c, 0, 78, 72
2, 45861, Note_on_c, 0, 69, 64
2, 46221, Note_off_c, 0, 69, 58
2, 46221, Note_on_c, 0, 68, 64
2, 46341, Note_off_c, 0, 68, 76
2, 46341, Note_on_c, 0, 69, 64
2, 46461, Note_off_c, 0, 69, 74
2, 46461, Note_on_c, 0, 66, 64
2, 46581, Note_off_c, 0, 66, 59
2, 46581, Note_on_c, 0, 81, 64
2, 47061, Note_off_c, 0, 81, 58
2, 47061, Note_on_c, 0, 80, 64
2, 47181, Note_off_c, 0, 80, 82
2, 47181, Note_on_c, 0, 78, 64
2, 47301, Note_off_c, 0, 78, 72
2, 47301, Note_on_c, 0, 76, 64
2, 47421, Note_off_c, 0, 76, 62
2, 47421, Note_on_c, 0, 75, 64
2, 47541, Note_off_c, 0, 75, 72
2, 47541, Note_on_c, 0, 76, 64
2, 48141, Note_off_c, 0, 76, 57
2, 48141, Note_on_c, 0, 81, 64
2, 48261, Note_off_c, 0, 81, 66
2, 48274, Note_on_c, 0, 76, 64
2, 48624, Note_off_c, 0, 76, 50
2, 48624, Note_on_c, 0, 78, 64
2, 48744, Note_off_c, 0, 78, 72
2, 48744, Note_on_c, 0, 76, 64
2, 48774, Note_off_c, 0, 76, 64
2, 48774, Note_on_c, 0, 75, 64
2, 48804, Note_off_c, 0, 75, 64
2, 48804, Note_on_c, 0, 73, 64
2, 48834, Note_off_c, 0, 73, 64
2, 48834, Note_on_c, 0, 75, 64
2, 48984, Note_off_c, 0, 75, 64
2, 48984, Note_on_c, 0, 73, 64
2, 50064, Note_off_c, 0, 73, 77
2, 50064, Note_on_c, 0, 76, 64
2, 50184, Note_off_c, 0, 76, 52
2, 50184, Note_on_c, 0, 75, 64
2, 50424, Note_off_c, 0, 75, 31
2, 50424, Note_on_c, 0, 76, 64
2, 51504, Note_off_c, 0, 76, 57
2, 51504, Note_on_c, 0, 72, 64
2, 51624, Note_off_c, 0, 72, 59
2, 51864, Note_on_c, 0, 78, 64
2, 53064, Note_off_c, 0, 78, 73
2, 53064, Note_on_c, 0, 80, 64
2, 53304, Note_off_c, 0, 80, 82
2, 53304, Note_on_c, 0, 73, 64
2, 54384, Note_off_c, 0, 73, 70
2, 54384, Note_on_c, 0, 75, 64
2, 54504, Note_off_c, 0, 75, 55
2, 54504, Note_on_c, 0, 72, 64
2, 54744, Note_off_c, 0, 72, 70
2, 54744, Note_on_c, 0, 73, 64
2, 55344, Note_off_c, 0, 73, 44
2, 55344, Note_on_c, 0, 72, 64
2, 55464, Note_off_c, 0, 72, 68
2, 55464, Note_on_c, 0, 73, 64
2, 56184, Note_off_c, 0, 73, 83
2, 56184, End_track
3, 0, Start_track
3, 0, Text_t, "RH L"
3, 720, Note_on_c, 1, 64, 64
3, 733, Note_on_c, 1, 68, 64
3, 1203, Note_off_c, 1, 68, 82
3, 1203, Note_off_c, 1, 64, 45
3, 1203, Note_on_c, 1, 66, 64
3, 1443, Note_off_c, 1, 66, 68
3, 1443, Note_on_c, 1, 64, 64
3, 2643, Note_off_c, 1, 64, 40
3, 2643, Note_on_c, 1, 66, 64
3, 3603, Note_off_c, 1, 66, 62
3, 3603, Note_on_c, 1, 68, 64
3, 3616, Note_on_c, 1, 75, 64
3, 4076, Note_off_c, 1, 75, 37
3, 4076, Note_off_c, 1, 68, 61
3, 4089, Note_on_c, 1, 73, 64
3, 4089, Note_on_c, 1, 68, 64
3, 4329, Note_off_c, 1, 68, 61
3, 4329, Note_off_c, 1, 73, 45
3, 4329, Note_on_c, 1, 68, 64
3, 4329, Note_on_c, 1, 72, 64
3, 5519, Note_off_c, 1, 72, 62
3, 5519, Note_off_c, 1, 68, 54
3, 5532, Note_on_c, 1, 72, 64
3, 5532, Note_on_c, 1, 68, 64
3, 5772, Note_off_c, 1, 68, 63
3, 5772, Note_off_c, 1, 72, 46
3, 5772, Note_on_c, 1, 69, 64
3, 6012, Note_off_c, 1, 69, 83
3, 6492, Note_on_c, 1, 69, 64
3, 7212, Note_off_c, 1, 69, 69
3, 7212, Note_on_c, 1, 68, 64
3, 7452, Note_off_c, 1, 68, 88
3, 7932, Note_on_c, 1, 68, 64
3, 8652, Note_off_c, 1, 68, 74
3, 8652, Note_on_c, 1, 66, 64
3, 8892, Note_off_c, 1, 66, 88
3, 9372, Note_on_c, 1, 66, 64
3, 10092, Note_off_c, 1, 66, 72
3, 10092, Note_on_c, 1, 64, 64
3, 10812, Note_off_c, 1, 64, 68
3, 13812, Note_on_c, 1, 75, 64
3, 13932, Note_off_c, 1, 75, 59
3, 13932, Note_on_c, 1, 73, 64
3, 14052, Note_off_c, 1, 73, 70
3, 14052, Note_on_c, 1, 71, 64
3, 14172, Note_off_c, 1, 71, 69
3, 14172, Note_on_c, 1, 73, 64
3, 14292, Note_off_c, 1, 73, 68
3, 14292, Note_on_c, 1, 70, 64
3, 14412, Note_off_c, 1, 70, 79
3, 14412, Note_on_c, 1, 68, 64
3, 14452, Note_off_c, 1, 68, 64
3, 14452, Note_on_c, 1, 67, 64
3, 14772, Note_off_c, 1, 67, 52
3, 14772, Note_on_c, 1, 68, 64
3, 14892, Note_off_c, 1, 68, 77
3, 14892, Note_on_c, 1, 70, 64
3, 14922, Note_off_c, 1, 70, 64
3, 14922, Note_on_c, 1, 68, 64
3, 14952, Note_off_c, 1, 68, 64
3, 14952, Note_on_c, 1, 70, 64
3, 15132, Note_off_c, 1, 70, 73
3, 15132, Note_on_c, 1, 63, 64
3, 15492, Note_off_c, 1, 63, 52
3, 15492, Note_on_c, 1, 65, 64
3, 15612, Note_off_c, 1, 65, 58
3, 15612, Note_on_c, 1, 67, 64
3, 15642, Note_off_c, 1, 67, 64
3, 15642, Note_on_c, 1, 65, 64
3, 15672, Note_off_c, 1, 65, 64
3, 15672, Note_on_c, 1, 67, 64
3, 15972, Note_off_c, 1, 67, 69
3, 16572, Note_on_c, 1, 67, 64
3, 16585, Note_on_c, 1, 70, 64
3, 17055, Note_off_c, 1, 70, 80
3, 17055, Note_off_c, 1, 67, 46
3, 17055, Note_on_c, 1, 68, 64
3, 18495, Note_off_c, 1, 68, 83
3, 18495, Note_on_c, 1, 67, 64
3, 18735, Note_off_c, 1, 67, 45
3, 18735, Note_on_c, 1, 59, 64
3, 18748, Note_on_c, 1, 63, 64
3, 19938, Note_off_c, 1, 63, 74
3, 19938, Note_off_c, 1, 59, 72
3, 21738, Note_on_c, 1, 73, 64
3, 21858, Note_off_c, 1, 73, 79
3, 21858, Note_on_c, 1, 71, 64
3, 21978, Note_off_c, 1, 71, 66
3, 21978, Note_on_c, 1, 70, 64
3, 22098, Note_off_c, 1, 70, 66
3, 22098, Note_on_c, 1, 71, 64
3, 22218, Note_on_c, 1, 66, 64
3, 22338, Note_on_c, 1, 63, 64
3, 23058, Note_off_c, 1, 63, 70
3, 23058, Note_off_c, 1, 71, 82
3, 23298, Note_off_c, 1, 66, 85
3, 24618, Note_on_c, 1, 75, 64
3, 24738, Note_off_c, 1, 75, 57
3, 24738, Note_on_c, 1, 73, 64
3, 24858, Note_off_c, 1, 73, 79
3, 24858, Note_on_c, 1, 72, 64
3, 24978, Note_off_c, 1, 72, 62
3, 24978, Note_on_c, 1, 73, 64
3, 25098, Note_on_c, 1, 68, 64
3, 25218, Note_on_c, 1, 64, 64
3, 25938, Note_off_c, 1, 64, 65
3, 25938, Note_off_c, 1, 68, 86
3, 25938, Note_off_c, 1, 73, 82
3, 35178, Note_on_c, 1, 75, 64
3, 36378, Note_off_c, 1, 75, 68
3, 36378, Note_on_c, 1, 76, 64
3, 36498, Note_off_c, 1, 76, 58
3, 36498, Note_on_c, 1, 72, 64
3, 36738, Note_off_c, 1, 72, 85
3, 36738, Note_on_c, 1, 73, 64
3, 37818, Note_off_c, 1, 73, 66
3, 37818, Note_on_c, 1, 72, 64
3, 37938, Note_off_c, 1, 72, 85
3, 37938, Note_on_c, 1, 75, 64
3, 38178, Note_off_c, 1, 75, 65
3, 38178, Note_on_c, 1, 68, 64
3, 39258, Note_off_c, 1, 68, 89
3, 39258, Note_on_c, 1, 73, 64
3, 39378, Note_off_c, 1, 73, 72
3, 39378, Note_on_c, 1, 66, 64
3, 39498, Note_off_c, 1, 66, 69
3, 39498, Note_on_c, 1, 68, 64
3, 39618, Note_off_c, 1, 68, 83
3, 39618, Note_on_c, 1, 69, 64
3, 40338, Note_off_c, 1, 69, 79
3, 40338, Note_on_c, 1, 68, 64
3, 41058, Note_off_c, 1, 68, 76
3, 41058, Note_on_c, 1, 60, 64
3, 41071, Note_on_c, 1, 63, 64
3, 41781, Note_off_c, 1, 63, 74
3, 41781, Note_off_c, 1, 60, 74
3, 47661, Note_on_c, 1, 75, 64
3, 47781, Note_off_c, 1, 75, 61
3, 47781, Note_on_c, 1, 73, 64
3, 47901, Note_off_c, 1, 73, 72
3, 47901, Note_on_c, 1, 72, 64
3, 48021, Note_off_c, 1, 72, 77
3, 48021, Note_on_c, 1, 73, 64
3, 48251, Note_off_c, 1, 73, 68
3, 48264, Note_on_c, 1, 73, 64
3, 48744, Note_off_c, 1, 73, 80
3, 48744, Note_on_c, 1, 72, 64
3, 48984, Note_off_c, 1, 72, 86
3, 49104, Note_on_c, 1, 71, 64
3, 49224, Note_off_c, 1, 71, 80
3, 49224, Note_on_c, 1, 70, 64
3, 49344, Note_off_c, 1, 70, 74
3, 49344, Note_on_c, 1, 68, 64
3, 49464, Note_off_c, 1, 68, 83
3, 49464, Note_on_c, 1, 67, 64
3, 49584, Note_off_c, 1, 67, 53
3, 49584, Note_on_c, 1, 68, 64
3, 49699, Note_off_c, 1, 68, 85
3, 49704, Note_on_c, 1, 68, 64
3, 49744, Note_off_c, 1, 68, 64
3, 49744, Note_on_c, 1, 67, 64
3, 50544, Note_off_c, 1, 67, 51
3, 50544, Note_on_c, 1, 68, 64
3, 50664, Note_off_c, 1, 68, 73
3, 50664, Note_on_c, 1, 70, 64
3, 50784, Note_off_c, 1, 70, 68
3, 50784, Note_on_c, 1, 68, 64
3, 50904, Note_off_c, 1, 68, 74
3, 50904, Note_on_c, 1, 71, 64
3, 51024, Note_off_c, 1, 71, 80
3, 51024, Note_on_c, 1, 70, 64
3, 51134, Note_off_c, 1, 70, 79
3, 51147, Note_on_c, 1, 70, 64
3, 51627, Note_on_c, 1, 73, 64
3, 51987, Note_off_c, 1, 70, 73
3, 51987, Note_off_c, 1, 73, 64
3, 51987, Note_on_c, 1, 75, 64
3, 52107, Note_off_c, 1, 75, 49
3, 52107, Note_on_c, 1, 76, 64
3, 52227, Note_off_c, 1, 76, 58
3, 52227, Note_on_c, 1, 75, 64
3, 52347, Note_off_c, 1, 75, 49
3, 52347, Note_on_c, 1, 73, 64
3, 52467, Note_off_c, 1, 73, 77
3, 52467, Note_on_c, 1, 71, 64
3, 52587, Note_off_c, 1, 71, 53
3, 52587, Note_on_c, 1, 70, 64
3, 52707, Note_off_c, 1, 70, 61
3, 52707, Note_on_c, 1, 68, 64
3, 52827, Note_off_c, 1, 68, 82
3, 52827, Note_on_c, 1, 67, 64
3, 52947, Note_off_c, 1, 67, 40
3, 52947, Note_on_c, 1, 65, 64
3, 53067, Note_off_c, 1, 65, 1
3, 53067, Note_on_c, 1, 72, 64
3, 53067, Note_on_c, 1, 66, 64
3, 53187, Note_off_c, 1, 66, 69
3, 53187, Note_on_c, 1, 63, 64
3, 53307, Note_off_c, 1, 63, 58
3, 53307, Note_off_c, 1, 72, 64
3, 53307, Note_on_c, 1, 64, 64
3, 53427, Note_off_c, 1, 64, 29
3, 53427, Note_on_c, 1, 71, 64
3, 53547, Note_off_c, 1, 71, 69
3, 53547, Note_on_c, 1, 69, 64
3, 53667, Note_off_c, 1, 69, 72
3, 53667, Note_on_c, 1, 68, 64
3, 53787, Note_off_c, 1, 68, 68
3, 53787, Note_on_c, 1, 66, 64
3, 53907, Note_off_c, 1, 66, 68
3, 53907, Note_on_c, 1, 69, 64
3, 54027, Note_off_c, 1, 69, 65
3, 54027, Note_on_c, 1, 64, 64
3, 54387, Note_off_c, 1, 64, 49
3, 54387, Note_on_c, 1, 66, 64
3, 54507, Note_off_c, 1, 66, 76
3, 54507, Note_on_c, 1, 63, 64
3, 54627, Note_on_c, 1, 66, 64
3, 54747, Note_off_c, 1, 63, 59
3, 54747, Note_on_c, 1, 61, 64
3, 54867, Note_off_c, 1, 66, 57
3, 54867, Note_on_c, 1, 68, 64
3, 54987, Note_off_c, 1, 68, 79
3, 54987, Note_on_c, 1, 69, 64
3, 55107, Note_off_c, 1, 69, 76
3, 55107, Note_on_c, 1, 66, 64
3, 55227, Note_off_c, 1, 61, 64
3, 55227, Note_on_c, 1, 63, 64
3, 55467, Note_off_c, 1, 63, 64
3, 55467, Note_off_c, 1, 66, 74
3, 55467, Note_on_c, 1, 65, 64
3, 55467, Note_on_c, 1, 68, 64
3, 56187, Note_off_c, 1, 68, 80
3, 56187, Note_off_c, 1, 65, 64
3, 56187, End_track
4, 0, Start_track
4, 0, Text_t, "LH H"
4, 1440, Note_on_c, 2, 56, 64
4, 1560, Note_off_c, 2, 56, 51
4, 1560, Note_on_c, 2, 54, 64
4, 1680, Note_off_c, 2, 54, 70
4, 1680, Note_on_c, 2, 52, 64
4, 1800, Note_off_c, 2, 52, 63
4, 1800, Note_on_c, 2, 51, 64
4, 1920, Note_off_c, 2, 51, 74
4, 1920, Note_on_c, 2, 52, 64
4, 2040, Note_off_c, 2, 52, 64
4, 2040, Note_on_c, 2, 49, 64
4, 2130, Note_off_c, 2, 49, 73
4, 2130, Note_on_c, 2, 52, 64
4, 2160, Note_off_c, 2, 52, 64
4, 2160, Note_on_c, 2, 56, 64
4, 2190, Note_off_c, 2, 56, 64
4, 2190, Note_on_c, 2, 61, 64
4, 2520, Note_off_c, 2, 61, 53
4, 2520, Note_on_c, 2, 59, 64
4, 2640, Note_off_c, 2, 59, 50
4, 2640, Note_on_c, 2, 57, 64
4, 2880, Note_off_c, 2, 57, 65
4, 2880, Note_on_c, 2, 56, 64
4, 4080, Note_off_c, 2, 56, 70
4, 4080, Note_on_c, 2, 61, 64
4, 4320, Note_off_c, 2, 61, 48
4, 4320, Note_on_c, 2, 63, 64
4, 4440, Note_off_c, 2, 63, 52
4, 4440, Note_on_c, 2, 61, 64
4, 4560, Note_off_c, 2, 61, 59
4, 4560, Note_on_c, 2, 60, 64
4, 4680, Note_off_c, 2, 60, 46
4, 4680, Note_on_c, 2, 58, 64
4, 4800, Note_off_c, 2, 58, 48
4, 4800, Note_on_c, 2, 60, 64
4, 4920, Note_off_c, 2, 60, 64
4, 4920, Note_on_c, 2, 56, 64
4, 5010, Note_off_c, 2, 56, 50
4, 5010, Note_on_c, 2, 60, 64
4, 5040, Note_off_c, 2, 60, 64
4, 5040, Note_on_c, 2, 63, 64
4, 5070, Note_off_c, 2, 63, 64
4, 5070, Note_on_c, 2, 66, 64
4, 5400, Note_off_c, 2, 66, 49
4, 5400, Note_on_c, 2, 64, 64
4, 5520, Note_off_c, 2, 64, 36
4, 5520, Note_on_c, 2, 63, 64
4, 5760, Note_off_c, 2, 63, 69
4, 5760, Note_on_c, 2, 64, 64
4, 6480, Note_off_c, 2, 64, 62
4, 6480, Note_on_c, 2, 63, 64
4, 7920, Note_off_c, 2, 63, 53
4, 7920, Note_on_c, 2, 61, 64
4, 9360, Note_on_c, 2, 59, 64
4, 9373, Note_off_c, 2, 61, 68
4, 10203, Note_off_c, 2, 59, 59
4, 10203, Note_on_c, 2, 57, 64
4, 10323, Note_off_c, 2, 57, 54
4, 10323, Note_on_c, 2, 56, 64
4, 10443, Note_off_c, 2, 56, 65
4, 10443, Note_on_c, 2, 54, 64
4, 10563, Note_off_c, 2, 54, 53
4, 10563, Note_on_c, 2, 56, 64
4, 10683, Note_off_c, 2, 56, 69
4, 10683, Note_on_c, 2, 52, 64
4, 10773, Note_off_c, 2, 52, 66
4, 10773, Note_on_c, 2, 56, 64
4, 10803, Note_off_c, 2, 56, 64
4, 10803, Note_on_c, 2, 59, 64
4, 10833, Note_off_c, 2, 59, 64
4, 10833, Note_on_c, 2, 64, 64
4, 11163, Note_off_c, 2, 64, 55
4, 11163, Note_on_c, 2, 63, 64
4, 11283, Note_off_c, 2, 63, 50
4, 11283, Note_on_c, 2, 61, 64
4, 11523, Note_off_c, 2, 61, 76
4, 11523, Note_on_c, 2, 60, 64
4, 13323, Note_off_c, 2, 60, 57
4, 13323, Note_on_c, 2, 61, 64
4, 13443, Note_off_c, 2, 61, 70
4, 13443, Note_on_c, 2, 63, 64
4, 13683, Note_off_c, 2, 63, 54
4, 13683, Note_on_c, 2, 61, 64
4, 14403, Note_off_c, 2, 61, 80
4, 18003, Note_on_c, 2, 51, 64
4, 18843, Note_off_c, 2, 51, 69
4, 18843, Note_on_c, 2, 49, 64
4, 18963, Note_off_c, 2, 49, 80
4, 18963, Note_on_c, 2, 47, 64
4, 19083, Note_off_c, 2, 47, 52
4, 19083, Note_on_c, 2, 46, 64
4, 19203, Note_off_c, 2, 46, 43
4, 19203, Note_on_c, 2, 47, 64
4, 19323, Note_off_c, 2, 47, 49
4, 19323, Note_on_c, 2, 44, 64
4, 19443, Note_off_c, 2, 44, 65
4, 19443, Note_on_c, 2, 47, 64
4, 19563, Note_off_c, 2, 47, 46
4, 19563, Note_on_c, 2, 51, 64
4, 19683, Note_off_c, 2, 51, 59
4, 19683, Note_on_c, 2, 56, 64
4, 19803, Note_off_c, 2, 56, 61
4, 19803, Note_on_c, 2, 52, 64
4, 19923, Note_off_c, 2, 52, 76
4, 19923, Note_on_c, 2, 54, 64
4, 20043, Note_off_c, 2, 54, 54
4, 20043, Note_on_c, 2, 51, 64
4, 20163, Note_off_c, 2, 51, 77
4, 20163, Note_on_c, 2, 52, 64
4, 20883, Note_off_c, 2, 52, 66
4, 20883, Note_on_c, 2, 54, 64
4, 20913, Note_off_c, 2, 54, 64
4, 20913, Note_on_c, 2, 52, 64
4, 20943, Note_off_c, 2, 52, 64
4, 20943, Note_on_c, 2, 54, 64
4, 21243, Note_off_c, 2, 54, 54
4, 21243, Note_on_c, 2, 56, 64
4, 21363, Note_on_c, 2, 58, 64
4, 21374, Note_off_c, 2, 56, 61
4, 21591, Note_off_c, 2, 58, 82
4, 23523, Note_on_c, 2, 51, 64
4, 24483, Note_off_c, 2, 51, 79
4, 26283, Note_on_c, 2, 61, 64
4, 26403, Note_off_c, 2, 61, 68
4, 26403, Note_on_c, 2, 62, 64
4, 26883, Note_off_c, 2, 62, 52
4, 26883, Note_on_c, 2, 56, 64
4, 27123, Note_off_c, 2, 56, 72
4, 27123, Note_on_c, 2, 61, 64
4, 27483, Note_off_c, 2, 61, 65
4, 27483, Note_on_c, 2, 59, 64
4, 27603, Note_off_c, 2, 59, 68
4, 27603, Note_on_c, 2, 57, 64
4, 27723, Note_off_c, 2, 57, 50
4, 27723, Note_on_c, 2, 56, 64
4, 27843, Note_off_c, 2, 56, 63
4, 27843, Note_on_c, 2, 57, 64
4, 27963, Note_off_c, 2, 57, 37
4, 27963, Note_on_c, 2, 54, 64
4, 28083, Note_off_c, 2, 54, 74
4, 28083, Note_on_c, 2, 66, 64
4, 28443, Note_off_c, 2, 66, 59
4, 28443, Note_on_c, 2, 64, 64
4, 28563, Note_off_c, 2, 64, 48
4, 28563, Note_on_c, 2, 63, 64
4, 28683, Note_off_c, 2, 63, 48
4, 28683, Note_on_c, 2, 61, 64
4, 28803, Note_off_c, 2, 61, 72
4, 28803, Note_on_c, 2, 59, 64
4, 29163, Note_off_c, 2, 59, 47
4, 29163, Note_on_c, 2, 61, 64
4, 29283, Note_off_c, 2, 61, 69
4, 29283, Note_on_c, 2, 63, 64
4, 29883, Note_off_c, 2, 63, 47
4, 29883, Note_on_c, 2, 56, 64
4, 30003, Note_off_c, 2, 56, 66
4, 30003, Note_on_c, 2, 61, 64
4, 30123, Note_off_c, 2, 61, 66
4, 30123, Note_on_c, 2, 60, 64
4, 30243, Note_off_c, 2, 60, 68
4, 30243, Note_on_c, 2, 61, 64
4, 30273, Note_off_c, 2, 61, 64
4, 30273, Note_on_c, 2, 60, 64
4, 30303, Note_off_c, 2, 60, 64
4, 30303, Note_on_c, 2, 61, 64
4, 31323, Note_off_c, 2, 61, 1
4, 31323, Note_on_c, 2, 60, 64
4, 31443, Note_off_c, 2, 60, 59
4, 31443, Note_on_c, 2, 61, 64
4, 31563, Note_off_c, 2, 61, 55
4, 31563, Note_on_c, 2, 58, 64
4, 31683, Note_off_c, 2, 58, 76
4, 31683, Note_on_c, 2, 60, 64
4, 31713, Note_off_c, 2, 60, 64
4, 31713, Note_on_c, 2, 58, 64
4, 31743, Note_off_c, 2, 58, 64
4, 31743, Note_on_c, 2, 60, 64
4, 32043, Note_off_c, 2, 60, 61
4, 32043, Note_on_c, 2, 61, 64
4, 32163, Note_off_c, 2, 61, 74
4, 32163, Note_on_c, 2, 63, 64
4, 32403, Note_off_c, 2, 63, 53
4, 32403, Note_on_c, 2, 61, 64
4, 33123, Note_off_c, 2, 61, 53
4, 33123, Note_on_c, 2, 57, 64
4, 33483, Note_off_c, 2, 57, 53
4, 33483, Note_on_c, 2, 59, 64
4, 33603, Note_off_c, 2, 59, 63
4, 33603, Note_on_c, 2, 61, 64
4, 33843, Note_off_c, 2, 61, 76
4, 33843, Note_on_c, 2, 62, 64
4, 33873, Note_off_c, 2, 62, 64
4, 33873, Note_on_c, 2, 61, 64
4, 33903, Note_off_c, 2, 61, 64
4, 33903, Note_on_c, 2, 62, 64
4, 34563, Note_off_c, 2, 62, 65
4, 34563, Note_on_c, 2, 60, 64
4, 35283, Note_off_c, 2, 60, 69
4, 35283, Note_on_c, 2, 66, 64
4, 35523, Note_off_c, 2, 66, 86
4, 48243, Note_on_c, 2, 56, 64
4, 49078, Note_off_c, 2, 56, 49
4, 49083, Note_on_c, 2, 56, 64
4, 49203, Note_off_c, 2, 56, 69
4, 49203, Note_on_c, 2, 55, 64
4, 49323, Note_off_c, 2, 55, 58
4, 49323, Note_on_c, 2, 56, 64
4, 49443, Note_off_c, 2, 56, 57
4, 49443, Note_on_c, 2, 58, 64
4, 49563, Note_off_c, 2, 58, 41
4, 49563, Note_on_c, 2, 51, 64
4, 49683, Note_off_c, 2, 51, 43
4, 49683, Note_on_c, 2, 52, 64
4, 50523, Note_off_c, 2, 52, 72
4, 50523, Note_on_c, 2, 51, 64
4, 50643, Note_on_c, 2, 49, 64
4, 50658, Note_off_c, 2, 51, 66
4, 50763, Note_on_c, 2, 47, 64
4, 50764, Note_off_c, 2, 49, 74
4, 50883, Note_on_c, 2, 49, 64
4, 50901, Note_off_c, 2, 47, 47
4, 51003, Note_on_c, 2, 52, 64
4, 51009, Note_off_c, 2, 49, 51
4, 51123, Note_on_c, 2, 55, 64
4, 51128, Note_off_c, 2, 52, 77
4, 51843, Note_off_c, 2, 55, 77
4, 54603, Note_on_c, 2, 56, 64
4, 54963, Note_off_c, 2, 56, 74
4, 54963, Note_on_c, 2, 54, 64
4, 55203, Note_off_c, 2, 54, 72
4, 55203, Note_on_c, 2, 57, 64
4, 55443, Note_off_c, 2, 57, 66
4, 55443, Note_on_c, 2, 56, 64
4, 56163, Note_off_c, 2, 56, 77
4, 56163, End_track
5, 0, Start_track
5, 0, Text_t, "LH L"
5, 0, Note_on_c, 3, 49, 64
5, 2880, Note_off_c, 3, 49, 50
5, 2880, Note_on_c, 3, 48, 64
5, 4080, Note_off_c, 3, 48, 37
5, 4080, Note_on_c, 3, 49, 64
5, 4320, Note_off_c, 3, 49, 57
5, 4320, Note_on_c, 3, 56, 64
5, 6480, Note_off_c, 3, 56, 49
5, 6480, Note_on_c, 3, 54, 64
5, 7920, Note_off_c, 3, 54, 37
5, 7920, Note_on_c, 3, 52, 64
5, 9360, Note_off_c, 3, 52, 25
5, 9360, Note_on_c, 3, 51, 64
5, 10080, Note_off_c, 3, 51, 72
5, 10080, Note_on_c, 3, 52, 64
5, 11520, Note_off_c, 3, 52, 50
5, 11520, Note_on_c, 3, 51, 64
5, 12240, Note_off_c, 3, 51, 76
5, 12240, Note_on_c, 3, 56, 64
5, 12600, Note_off_c, 3, 56, 66
5, 12600, Note_on_c, 3, 54, 64
5, 12720, Note_off_c, 3, 54, 66
5, 12720, Note_on_c, 3, 56, 64
5, 12960, Note_off_c, 3, 56, 72
5, 12960, Note_on_c, 3, 49, 64
5, 14040, Note_off_c, 3, 49, 69
5, 14040, Note_on_c, 3, 51, 64
5, 14160, Note_off_c, 3, 51, 77
5, 14160, Note_on_c, 3, 52, 64
5, 14400, Note_off_c, 3, 52, 57
5, 14400, Note_on_c, 3, 46, 64
5, 14520, Note_off_c, 3, 46, 76
5, 14520, Note_on_c, 3, 51, 64
5, 14640, Note_off_c, 3, 51, 52
5, 14640, Note_on_c, 3, 49, 64
5, 14760, Note_off_c, 3, 49, 52
5, 14760, Note_on_c, 3, 47, 64
5, 14880, Note_off_c, 3, 47, 63
5, 14880, Note_on_c, 3, 49, 64
5, 15000, Note_off_c, 3, 49, 59
5, 15000, Note_on_c, 3, 46, 64
5, 15120, Note_off_c, 3, 46, 74
5, 15120, Note_on_c, 3, 43, 64
5, 15240, Note_off_c, 3, 43, 68
5, 15240, Note_on_c, 3, 47, 64
5, 15360, Note_off_c, 3, 47, 61
5, 15360, Note_on_c, 3, 46, 64
5, 15480, Note_off_c, 3, 46, 66
5, 15480, Note_on_c, 3, 44, 64
5, 15600, Note_off_c, 3, 44, 70
5, 15600, Note_on_c, 3, 46, 64
5, 15720, Note_off_c, 3, 46, 49
5, 15720, Note_on_c, 3, 43, 64
5, 15840, Note_off_c, 3, 43, 65
5, 15840, Note_on_c, 3, 37, 64
5, 16680, Note_off_c, 3, 37, 55
5, 16680, Note_on_c, 3, 49, 64
5, 16800, Note_off_c, 3, 49, 72
5, 16800, Note_on_c, 3, 47, 64
5, 16920, Note_off_c, 3, 47, 68
5, 16920, Note_on_c, 3, 46, 64
5, 17040, Note_off_c, 3, 46, 76
5, 17040, Note_on_c, 3, 47, 64
5, 17160, Note_off_c, 3, 47, 68
5, 17160, Note_on_c, 3, 44, 64
5, 17280, Note_off_c, 3, 44, 74
5, 17280, Note_on_c, 3, 52, 64
5, 17310, Note_off_c, 3, 52, 64
5, 17310, Note_on_c, 3, 51, 64
5, 17340, Note_off_c, 3, 51, 64
5, 17340, Note_on_c, 3, 52, 64
5, 17640, Note_off_c, 3, 52, 62
5, 17640, Note_on_c, 3, 51, 64
5, 17760, Note_off_c, 3, 51, 74
5, 17760, Note_on_c, 3, 49, 64
5, 18000, Note_off_c, 3, 49, 82
5, 18480, Note_on_c, 3, 39, 64
5, 18720, Note_off_c, 3, 39, 73
5, 18720, Note_on_c, 3, 44, 64
5, 20160, Note_off_c, 3, 44, 69
5, 20160, Note_on_c, 3, 49, 64
5, 20280, Note_off_c, 3, 49, 74
5, 20280, Note_on_c, 3, 51, 64
5, 20400, Note_off_c, 3, 51, 66
5, 20400, Note_on_c, 3, 49, 64
5, 20520, Note_off_c, 3, 49, 82
5, 20520, Note_on_c, 3, 47, 64
5, 20640, Note_off_c, 3, 47, 43
5, 20640, Note_on_c, 3, 49, 64
5, 20760, Note_off_c, 3, 49, 69
5, 20760, Note_on_c, 3, 46, 64
5, 21600, Note_off_c, 3, 46, 79
5, 21600, Note_on_c, 3, 59, 64
5, 21630, Note_off_c, 3, 59, 64
5, 21630, Note_on_c, 3, 58, 64
5, 21660, Note_off_c, 3, 58, 64
5, 21660, Note_on_c, 3, 59, 64
5, 22435, Note_off_c, 3, 59, 68
5, 22440, Note_on_c, 3, 59, 64
5, 22556, Note_off_c, 3, 59, 68
5, 22560, Note_on_c, 3, 57, 64
5, 22680, Note_off_c, 3, 57, 39
5, 22680, Note_on_c, 3, 56, 64
5, 22800, Note_off_c, 3, 56, 65
5, 22800, Note_on_c, 3, 57, 64
5, 22920, Note_off_c, 3, 57, 63
5, 22920, Note_on_c, 3, 54, 64
5, 23040, Note_off_c, 3, 54, 63
5, 23040, Note_on_c, 3, 51, 64
5, 23160, Note_off_c, 3, 51, 58
5, 23160, Note_on_c, 3, 52, 64
5, 23280, Note_off_c, 3, 52, 66
5, 23280, Note_on_c, 3, 51, 64
5, 23400, Note_off_c, 3, 51, 69
5, 23400, Note_on_c, 3, 49, 64
5, 23520, Note_off_c, 3, 49, 61
5, 23640, Note_on_c, 3, 48, 64
5, 23760, Note_off_c, 3, 48, 72
5, 23760, Note_on_c, 3, 44, 64
5, 24120, Note_off_c, 3, 44, 70
5, 24120, Note_on_c, 3, 46, 64
5, 24240, Note_off_c, 3, 46, 76
5, 24240, Note_on_c, 3, 48, 64
5, 24480, Note_off_c, 3, 48, 53
5, 24480, Note_on_c, 3, 49, 64
5, 25320, Note_off_c, 3, 49, 70
5, 25320, Note_on_c, 3, 51, 64
5, 25440, Note_off_c, 3, 51, 77
5, 25440, Note_on_c, 3, 52, 64
5, 25560, Note_off_c, 3, 52, 65
5, 25560, Note_on_c, 3, 54, 64
5, 25680, Note_off_c, 3, 54, 61
5, 25680, Note_on_c, 3, 56, 64
5, 25800, Note_off_c, 3, 56, 73
5, 25800, Note_on_c, 3, 57, 64
5, 25920, Note_off_c, 3, 57, 55
5, 25920, Note_on_c, 3, 59, 64
5, 26510, Note_off_c, 3, 59, 52
5, 26523, Note_on_c, 3, 59, 64
5, 26643, Note_off_c, 3, 59, 49
5, 26643, Note_on_c, 3, 53, 64
5, 27363, Note_off_c, 3, 53, 69
5, 27363, Note_on_c, 3, 54, 64
5, 28803, Note_off_c, 3, 54, 73
5, 28803, Note_on_c, 3, 56, 64
5, 29163, Note_off_c, 3, 56, 69
5, 29163, Note_on_c, 3, 57, 64
5, 29283, Note_off_c, 3, 57, 69
5, 29283, Note_on_c, 3, 59, 64
5, 29523, Note_off_c, 3, 59, 61
5, 29523, Note_on_c, 3, 52, 64
5, 30603, Note_off_c, 3, 52, 82
5, 30603, Note_on_c, 3, 51, 64
5, 30723, Note_off_c, 3, 51, 76
5, 30723, Note_on_c, 3, 49, 64
5, 30963, Note_off_c, 3, 49, 79
5, 30963, Note_on_c, 3, 51, 64
5, 31683, Note_off_c, 3, 51, 72
5, 31683, Note_on_c, 3, 56, 64
5, 32043, Note_off_c, 3, 56, 59
5, 32043, Note_on_c, 3, 58, 64
5, 32163, Note_off_c, 3, 58, 77
5, 32163, Note_on_c, 3, 60, 64
5, 32408, Note_off_c, 3, 60, 70
5, 32763, Note_on_c, 3, 59, 64
5, 32883, Note_off_c, 3, 59, 52
5, 32883, Note_on_c, 3, 57, 64
5, 33003, Note_off_c, 3, 57, 68
5, 33003, Note_on_c, 3, 56, 64
5, 33123, Note_off_c, 3, 56, 50
5, 33123, Note_on_c, 3, 54, 64
5, 34203, Note_off_c, 3, 54, 66
5, 34203, Note_on_c, 3, 52, 64
5, 34323, Note_off_c, 3, 52, 70
5, 34323, Note_on_c, 3, 54, 64
5, 34563, Note_off_c, 3, 54, 72
5, 34563, Note_on_c, 3, 51, 64
5, 34923, Note_off_c, 3, 51, 59
5, 34923, Note_on_c, 3, 54, 64
5, 35043, Note_off_c, 3, 54, 76
5, 35043, Note_on_c, 3, 57, 64
5, 35403, Note_off_c, 3, 57, 44
5, 35403, Note_on_c, 3, 56, 64
5, 35523, Note_off_c, 3, 56, 61
5, 35523, Note_on_c, 3, 54, 64
5, 35643, Note_off_c, 3, 54, 76
5, 35643, Note_on_c, 3, 52, 64
5, 35763, Note_off_c, 3, 52, 63
5, 35763, Note_on_c, 3, 54, 64
5, 35883, Note_off_c, 3, 54, 62
5, 35883, Note_on_c, 3, 51, 64
5, 36003, Note_off_c, 3, 51, 77
5, 36003, Note_on_c, 3, 52, 64
5, 36123, Note_off_c, 3, 52, 62
5, 36123, Note_on_c, 3, 51, 64
5, 36243, Note_off_c, 3, 51, 63
5, 36243, Note_on_c, 3, 49, 64
5, 36363, Note_off_c, 3, 49, 59
5, 36363, Note_on_c, 3, 47, 64
5, 36483, Note_off_c, 3, 47, 70
5, 36483, Note_on_c, 3, 49, 64
5, 36603, Note_off_c, 3, 49, 77
5, 36603, Note_on_c, 3, 45, 64
5, 36723, Note_off_c, 3, 45, 65
5, 36723, Note_on_c, 3, 57, 64
5, 36753, Note_off_c, 3, 57, 64
5, 36753, Note_on_c, 3, 56, 64
5, 36783, Note_off_c, 3, 56, 64
5, 36783, Note_on_c, 3, 57, 64
5, 37563, Note_off_c, 3, 57, 49
5, 37563, Note_on_c, 3, 56, 64
5, 37683, Note_on_c, 3, 54, 64
5, 37687, Note_off_c, 3, 56, 59
5, 37803, Note_on_c, 3, 52, 64
5, 37810, Note_off_c, 3, 54, 54
5, 37923, Note_on_c, 3, 54, 64
5, 37925, Note_off_c, 3, 52, 73
5, 38043, Note_on_c, 3, 51, 64
5, 38047, Note_off_c, 3, 54, 73
5, 38163, Note_on_c, 3, 60, 64
5, 38176, Note_off_c, 3, 51, 74
5, 38196, Note_off_c, 3, 60, 64
5, 38196, Note_on_c, 3, 58, 64
5, 38226, Note_off_c, 3, 58, 64
5, 38226, Note_on_c, 3, 60, 64
5, 38886, Note_off_c, 3, 60, 68
5, 38886, Note_on_c, 3, 61, 64
5, 39006, Note_off_c, 3, 61, 77
5, 39006, Note_on_c, 3, 59, 64
5, 39126, Note_off_c, 3, 59, 52
5, 39126, Note_on_c, 3, 57, 64
5, 39246, Note_off_c, 3, 57, 62
5, 39246, Note_on_c, 3, 56, 64
5, 39366, Note_off_c, 3, 56, 74
5, 39366, Note_on_c, 3, 57, 64
5, 39486, Note_off_c, 3, 57, 58
5, 39486, Note_on_c, 3, 54, 64
5, 39606, Note_off_c, 3, 54, 73
5, 39606, Note_on_c, 3, 66, 64
5, 40446, Note_off_c, 3, 66, 58
5, 40446, Note_on_c, 3, 64, 64
5, 40566, Note_off_c, 3, 64, 49
5, 40566, Note_on_c, 3, 63, 64
5, 40686, Note_off_c, 3, 63, 59
5, 40686, Note_on_c, 3, 61, 64
5, 40806, Note_off_c, 3, 61, 77
5, 40806, Note_on_c, 3, 60, 64
5, 40926, Note_off_c, 3, 60, 50
5, 40926, Note_on_c, 3, 58, 64
5, 41046, Note_off_c, 3, 58, 66
5, 41046, Note_on_c, 3, 56, 64
5, 41166, Note_off_c, 3, 56, 51
5, 41166, Note_on_c, 3, 54, 64
5, 41286, Note_off_c, 3, 54, 73
5, 41286, Note_on_c, 3, 52, 64
5, 41406, Note_off_c, 3, 52, 68
5, 41406, Note_on_c, 3, 51, 64
5, 41526, Note_off_c, 3, 51, 72
5, 41526, Note_on_c, 3, 49, 64
5, 41646, Note_off_c, 3, 49, 49
5, 41646, Note_on_c, 3, 47, 64
5, 41766, Note_off_c, 3, 47, 70
5, 41766, Note_on_c, 3, 45, 64
5, 42126, Note_off_c, 3, 45, 72
5, 42126, Note_on_c, 3, 47, 64
5, 42246, Note_off_c, 3, 47, 65
5, 42246, Note_on_c, 3, 44, 64
5, 42486, Note_off_c, 3, 44, 63
5, 42486, Note_on_c, 3, 42, 64
5, 42846, Note_off_c, 3, 42, 53
5, 42846, Note_on_c, 3, 44, 64
5, 42966, Note_off_c, 3, 44, 69
5, 42966, Note_on_c, 3, 40, 64
5, 43206, Note_off_c, 3, 40, 66
5, 43206, Note_on_c, 3, 39, 64
5, 43566, Note_off_c, 3, 39, 79
5, 43566, Note_on_c, 3, 40, 64
5, 43686, Note_off_c, 3, 40, 65
5, 43686, Note_on_c, 3, 42, 64
5, 43926, Note_off_c, 3, 42, 76
5, 43926, Note_on_c, 3, 36, 64
5, 44286, Note_off_c, 3, 36, 53
5, 44286, Note_on_c, 3, 39, 64
5, 44406, Note_off_c, 3, 39, 77
5, 44406, Note_on_c, 3, 42, 64
5, 44646, Note_off_c, 3, 42, 72
5, 44646, Note_on_c, 3, 40, 64
5, 44766, Note_off_c, 3, 40, 68
5, 44766, Note_on_c, 3, 52, 64
5, 44886, Note_off_c, 3, 52, 63
5, 44886, Note_on_c, 3, 54, 64
5, 45006, Note_off_c, 3, 54, 59
5, 45006, Note_on_c, 3, 56, 64
5, 45126, Note_off_c, 3, 56, 58
5, 45126, Note_on_c, 3, 57, 64
5, 45246, Note_off_c, 3, 57, 63
5, 45246, Note_on_c, 3, 54, 64
5, 45366, Note_off_c, 3, 54, 72
5, 45366, Note_on_c, 3, 51, 64
5, 45486, Note_off_c, 3, 51, 59
5, 45486, Note_on_c, 3, 52, 64
5, 45606, Note_off_c, 3, 52, 61
5, 45606, Note_on_c, 3, 54, 64
5, 45726, Note_off_c, 3, 54, 55
5, 45726, Note_on_c, 3, 51, 64
5, 45846, Note_off_c, 3, 51, 63
5, 45846, Note_on_c, 3, 48, 64
5, 45966, Note_off_c, 3, 48, 62
5, 45966, Note_on_c, 3, 49, 64
5, 46086, Note_off_c, 3, 49, 68
5, 46086, Note_on_c, 3, 51, 64
5, 46206, Note_off_c, 3, 51, 65
5, 46206, Note_on_c, 3, 48, 64
5, 46326, Note_off_c, 3, 48, 59
5, 46326, Note_on_c, 3, 44, 64
5, 46446, Note_off_c, 3, 44, 58
5, 46446, Note_on_c, 3, 46, 64
5, 46566, Note_off_c, 3, 46, 79
5, 46566, Note_on_c, 3, 48, 64
5, 46686, Note_off_c, 3, 48, 63
5, 46686, Note_on_c, 3, 49, 64
5, 46806, Note_off_c, 3, 49, 70
5, 46806, Note_on_c, 3, 51, 64
5, 46926, Note_off_c, 3, 51, 76
5, 46926, Note_on_c, 3, 52, 64
5, 47046, Note_off_c, 3, 52, 52
5, 47046, Note_on_c, 3, 54, 64
5, 47166, Note_off_c, 3, 54, 52
5, 47166, Note_on_c, 3, 56, 64
5, 47286, Note_off_c, 3, 56, 61
5, 47286, Note_on_c, 3, 58, 64
5, 47406, Note_off_c, 3, 58, 74
5, 47406, Note_on_c, 3, 60, 64
5, 47526, Note_off_c, 3, 60, 63
5, 47526, Note_on_c, 3, 61, 64
5, 47646, Note_off_c, 3, 61, 65
5, 47646, Note_on_c, 3, 59, 64
5, 47766, Note_off_c, 3, 59, 52
5, 47766, Note_on_c, 3, 57, 64
5, 47886, Note_off_c, 3, 57, 58
5, 47886, Note_on_c, 3, 56, 64
5, 48006, Note_off_c, 3, 56, 63
5, 48006, Note_on_c, 3, 57, 64
5, 48126, Note_off_c, 3, 57, 65
5, 48126, Note_on_c, 3, 54, 64
5, 48246, Note_off_c, 3, 54, 74
5, 48726, Note_on_c, 3, 44, 64
5, 48966, Note_off_c, 3, 44, 72
5, 48966, Note_on_c, 3, 46, 64
5, 50046, Note_off_c, 3, 46, 76
5, 50046, Note_on_c, 3, 47, 64
5, 50166, Note_off_c, 3, 47, 76
5, 50166, Note_on_c, 3, 49, 64
5, 50406, Note_off_c, 3, 49, 82
5, 50406, Note_on_c, 3, 43, 64
5, 51486, Note_off_c, 3, 43, 59
5, 51486, Note_on_c, 3, 44, 64
5, 51606, Note_off_c, 3, 44, 65
5, 51606, Note_on_c, 3, 46, 64
5, 51846, Note_off_c, 3, 46, 74
5, 51846, Note_on_c, 3, 39, 64
5, 52326, Note_off_c, 3, 39, 80
5, 53406, Note_on_c, 3, 63, 64
5, 53526, Note_off_c, 3, 63, 59
5, 53526, Note_on_c, 3, 61, 64
5, 53646, Note_off_c, 3, 61, 69
5, 53646, Note_on_c, 3, 59, 64
5, 53766, Note_off_c, 3, 59, 43
5, 53766, Note_on_c, 3, 57, 64
5, 53886, Note_off_c, 3, 57, 66
5, 53886, Note_on_c, 3, 54, 64
5, 54006, Note_off_c, 3, 54, 72
5, 54006, Note_on_c, 3, 56, 64
5, 54126, Note_off_c, 3, 56, 68
5, 54126, Note_on_c, 3, 51, 64
5, 54246, Note_off_c, 3, 51, 77
5, 54246, Note_on_c, 3, 52, 64
5, 54366, Note_off_c, 3, 52, 57
5, 54366, Note_on_c, 3, 49, 64
5, 54486, Note_off_c, 3, 49, 80
5, 54486, Note_on_c, 3, 44, 64
5, 54726, Note_off_c, 3, 44, 55
5, 54726, Note_on_c, 3, 49, 64
5, 56166, Note_off_c, 3, 49, 85
5, 56166, End_track
0, 0, End_of_file
