0, 0, Header, 1, 3, 240
1, 0, Start_track
1, 0, Time_signature, 4, 2, 24, 8
1, 0, Tempo, 1111111
1, 20400, Tempo, 1200000
1, 20520, Tempo, 1276596
1, 20640, Tempo, 1538462
1, 21000, Tempo, 1111111
1, 22200, Tempo, 1176471
1, 22320, Tempo, 1276596
1, 22440, Tempo, 1428571
1, 22560, Tempo, 1714286
1, 22560, End_track
2, 0, Start_track
2, 0, Text_t, "RH B"
2, 120, Note_on_c, 0, 65, 64
2, 120, Note_on_c, 0, 70, 64
2, 180, Note_off_c, 0, 70, 76
2, 180, Note_on_c, 0, 72, 64
2, 240, Note_off_c, 0, 72, 79
2, 240, Note_off_c, 0, 65, 6
2, 240, Note_on_c, 0, 73, 64
2, 240, Note_on_c, 0, 70, 64
2, 360, Note_off_c, 0, 70, 82
2, 360, Note_off_c, 0, 73, 80
2, 360, Note_on_c, 0, 65, 64
2, 360, Note_on_c, 0, 70, 64
2, 360, Note_on_c, 0, 73, 64
2, 480, Note_off_c, 0, 73, 76
2, 480, Note_off_c, 0, 70, 80
2, 480, Note_off_c, 0, 65, 9
2, 480, Note_on_c, 0, 66, 64
2, 480, Note_on_c, 0, 73, 64
2, 480, Note_on_c, 0, 70, 64
2, 600, Note_off_c, 0, 70, 83
2, 600, Note_off_c, 0, 73, 79
2, 600, Note_on_c, 0, 69, 64
2, 600, Note_on_c, 0, 72, 64
2, 660, Note_off_c, 0, 72, 86
2, 660, Note_off_c, 0, 69, 80
2, 660, Note_on_c, 0, 70, 64
2, 660, Note_on_c, 0, 73, 64
2, 720, Note_off_c, 0, 73, 79
2, 720, Note_off_c, 0, 70, 85
2, 720, Note_off_c, 0, 66, 12
2, 720, Note_on_c, 0, 72, 64
2, 720, Note_on_c, 0, 75, 64
2, 840, Note_off_c, 0, 75, 54
2, 840, Note_off_c, 0, 72, 72
2, 840, Note_on_c, 0, 72, 64
2, 840, Note_on_c, 0, 69, 64
2, 840, Note_on_c, 0, 75, 64
2, 960, Note_off_c, 0, 75, 57
2, 960, Note_off_c, 0, 69, 57
2, 960, Note_off_c, 0, 72, 69
2, 960, Note_on_c, 0, 72, 64
2, 960, Note_on_c, 0, 75, 64
2, 1080, Note_off_c, 0, 75, 44
2, 1080, Note_off_c, 0, 72, 70
2, 1080, Note_on_c, 0, 73, 64
2, 1080, Note_on_c, 0, 70, 64
2, 1140, Note_off_c, 0, 70, 83
2, 1140, Note_off_c, 0, 73, 79
2, 1140, Note_on_c, 0, 72, 64
2, 1140, Note_on_c, 0, 75, 64
2, 1200, Note_off_c, 0, 75, 63
2, 1200, Note_off_c, 0, 72, 83
2, 1200, Note_on_c, 0, 73, 64
2, 1200, Note_on_c, 0, 77, 64
2, 1320, Note_off_c, 0, 77, 57
2, 1320, Note_off_c, 0, 73, 62
2, 1320, Note_on_c, 0, 70, 64
2, 1320, Note_on_c, 0, 73, 64
2, 1320, Note_on_c, 0, 77, 64
2, 1440, Note_off_c, 0, 77, 65
2, 1440, Note_off_c, 0, 73, 69
2, 1440, Note_off_c, 0, 70, 41
2, 1440, Note_on_c, 0, 69, 64
2, 1440, Note_on_c, 0, 73, 64
2, 1440, Note_on_c, 0, 77, 64
2, 1560, Note_off_c, 0, 77, 62
2, 1560, Note_off_c, 0, 73, 76
2, 1560, Note_on_c, 0, 75, 64
2, 1560, Note_on_c, 0, 72, 64
2, 1620, Note_off_c, 0, 72, 70
2, 1620, Note_off_c, 0, 75, 51
2, 1620, Note_on_c, 0, 73, 64
2, 1620, Note_on_c, 0, 77, 64
2, 1680, Note_off_c, 0, 77, 65
2, 1680, Note_off_c, 0, 73, 69
2, 1680, Note_off_c, 0, 69, 68
2, 1680, Note_on_c, 0, 78, 64
2, 1680, Note_on_c, 0, 75, 64
2, 1800, Note_off_c, 0, 75, 68
2, 1800, Note_off_c, 0, 78, 76
2, 1800, Note_on_c, 0, 69, 64
2, 1800, Note_on_c, 0, 78, 64
2, 1800, Note_on_c, 0, 75, 64
2, 1920, Note_off_c, 0, 75, 66
2, 1920, Note_off_c, 0, 78, 65
2, 1920, Note_off_c, 0, 69, 72
2, 1920, Note_on_c, 0, 70, 64
2, 1920, Note_on_c, 0, 78, 64
2, 2040, Note_off_c, 0, 78, 61
2, 2040, Note_on_c, 0, 73, 64
2, 2040, Note_on_c, 0, 77, 64
2, 2100, Note_off_c, 0, 77, 69
2, 2100, Note_on_c, 0, 75, 64
2, 2160, Note_off_c, 0, 75, 51
2, 2160, Note_off_c, 0, 73, 69
2, 2160, Note_off_c, 0, 70, 70
2, 2160, Note_on_c, 0, 77, 64
2, 2280, Note_off_c, 0, 77, 73
2, 2280, Note_on_c, 0, 73, 64
2, 2280, Note_on_c, 0, 70, 64
2, 2280, Note_on_c, 0, 77, 64
2, 2400, Note_off_c, 0, 77, 76
2, 2400, Note_off_c, 0, 70, 73
2, 2400, Note_off_c, 0, 73, 61
2, 2400, Note_on_c, 0, 67, 64
2, 2400, Note_on_c, 0, 70, 64
2, 2400, Note_on_c, 0, 77, 64
2, 2520, Note_off_c, 0, 77, 72
2, 2520, Note_off_c, 0, 67, 62
2, 2520, Note_on_c, 0, 66, 64
2, 2520, Note_on_c, 0, 75, 64
2, 2580, Note_off_c, 0, 75, 68
2, 2580, Note_on_c, 0, 73, 64
2, 2640, Note_off_c, 0, 73, 66
2, 2640, Note_off_c, 0, 66, 18
2, 2640, Note_off_c, 0, 70, 59
2, 2640, Note_on_c, 0, 72, 64
2, 2760, Note_off_c, 0, 72, 85
2, 2760, Note_on_c, 0, 66, 64
2, 2760, Note_on_c, 0, 70, 64
2, 2760, Note_on_c, 0, 73, 64
2, 2820, Note_off_c, 0, 73, 74
2, 2820, Note_on_c, 0, 75, 64
2, 2880, Note_off_c, 0, 75, 58
2, 2880, Note_off_c, 0, 70, 69
2, 2880, Note_off_c, 0, 66, 53
2, 2880, Note_on_c, 0, 65, 64
2, 2880, Note_on_c, 0, 69, 64
2, 3000, Note_off_c, 0, 69, 54
2, 3000, Note_on_c, 0, 70, 64
2, 3000, Note_on_c, 0, 77, 64
2, 3060, Note_off_c, 0, 70, 80
2, 3060, Note_on_c, 0, 72, 64
2, 3120, Note_off_c, 0, 72, 82
2, 3120, Note_off_c, 0, 65, 1
2, 3120, Note_on_c, 0, 73, 64
2, 3240, Note_off_c, 0, 77, 74
2, 3240, Note_on_c, 0, 79, 64
2, 3300, Note_off_c, 0, 79, 50
2, 3300, Note_on_c, 0, 81, 64
2, 3360, Note_off_c, 0, 81, 72
2, 3360, Note_on_c, 0, 82, 64
2, 3480, Note_off_c, 0, 73, 61
2, 3480, Note_on_c, 0, 72, 64
2, 3540, Note_off_c, 0, 72, 77
2, 3540, Note_on_c, 0, 73, 64
2, 3600, Note_off_c, 0, 73, 54
2, 3600, Note_on_c, 0, 75, 64
2, 3720, Note_off_c, 0, 82, 69
2, 3720, Note_on_c, 0, 81, 64
2, 3780, Note_off_c, 0, 81, 72
2, 3780, Note_on_c, 0, 82, 64
2, 3840, Note_off_c, 0, 82, 55
2, 3840, Note_on_c, 0, 84, 64
2, 3960, Note_off_c, 0, 75, 62
2, 3960, Note_on_c, 0, 78, 64
2, 4020, Note_off_c, 0, 78, 70
2, 4020, Note_on_c, 0, 77, 64
2, 4080, Note_off_c, 0, 77, 72
2, 4080, Note_on_c, 0, 75, 64
2, 4200, Note_off_c, 0, 84, 66
2, 4200, Note_on_c, 0, 84, 64
2, 4260, Note_off_c, 0, 84, 66
2, 4260, Note_on_c, 0, 82, 64
2, 4320, Note_off_c, 0, 82, 55
2, 4320, Note_on_c, 0, 81, 64
2, 4440, Note_off_c, 0, 75, 61
2, 4440, Note_on_c, 0, 75, 64
2, 4500, Note_off_c, 0, 75, 72
2, 4500, Note_on_c, 0, 73, 64
2, 4560, Note_off_c, 0, 73, 66
2, 4560, Note_on_c, 0, 72, 64
2, 4680, Note_off_c, 0, 81, 65
2, 4680, Note_on_c, 0, 81, 64
2, 4740, Note_off_c, 0, 81, 70
2, 4740, Note_on_c, 0, 84, 64
2, 4800, Note_off_c, 0, 84, 63
2, 4800, Note_on_c, 0, 77, 64
2, 4920, Note_off_c, 0, 72, 76
2, 4920, Note_on_c, 0, 69, 64
2, 4980, Note_off_c, 0, 69, 50
2, 4980, Note_on_c, 0, 70, 64
2, 5040, Note_off_c, 0, 70, 66
2, 5040, Note_on_c, 0, 72, 64
2, 5160, Note_off_c, 0, 72, 79
2, 5160, Note_on_c, 0, 72, 64
2, 5220, Note_off_c, 0, 72, 73
2, 5220, Note_on_c, 0, 73, 64
2, 5280, Note_off_c, 0, 73, 68
2, 5280, Note_on_c, 0, 75, 64
2, 5400, Note_off_c, 0, 75, 61
2, 5400, Note_on_c, 0, 72, 64
2, 5460, Note_off_c, 0, 72, 76
2, 5460, Note_on_c, 0, 73, 64
2, 5520, Note_off_c, 0, 73, 62
2, 5520, Note_on_c, 0, 75, 64
2, 5870, Note_off_c, 0, 77, 73
2, 5883, Note_off_c, 0, 75, 49
2, 5883, Note_on_c, 0, 73, 64
2, 5883, Note_on_c, 0, 77, 64
2, 5943, Note_off_c, 0, 77, 65
2, 5943, Note_off_c, 0, 73, 66
2, 5943, Note_on_c, 0, 72, 64
2, 5943, Note_on_c, 0, 75, 64
2, 6003, Note_off_c, 0, 75, 46
2, 6003, Note_off_c, 0, 72, 70
2, 6003, Note_on_c, 0, 70, 64
2, 6003, Note_on_c, 0, 73, 64
2, 6123, Note_off_c, 0, 73, 69
2, 6123, Note_off_c, 0, 70, 69
2, 6123, Note_on_c, 0, 69, 64
2, 6123, Note_on_c, 0, 75, 64
2, 6183, Note_off_c, 0, 75, 59
2, 6183, Note_on_c, 0, 72, 64
2, 6243, Note_off_c, 0, 72, 82
2, 6243, Note_off_c, 0, 69, 68
2, 6243, Note_on_c, 0, 70, 64
2, 6243, Note_on_c, 0, 73, 64
2, 6363, Note_off_c, 0, 73, 77
2, 6363, Note_on_c, 0, 70, 64
2, 6423, Note_off_c, 0, 70, 85
2, 6423, Note_on_c, 0, 72, 64
2, 6483, Note_off_c, 0, 72, 80
2, 6483, Note_off_c, 0, 70, 66
2, 6483, Note_on_c, 0, 73, 64
2, 6603, Note_off_c, 0, 73, 79
2, 6603, Note_on_c, 0, 65, 64
2, 6603, Note_on_c, 0, 70, 64
2, 6603, Note_on_c, 0, 73, 64
2, 6723, Note_off_c, 0, 73, 79
2, 6723, Note_off_c, 0, 70, 74
2, 6723, Note_off_c, 0, 65, 1
2, 6723, Note_on_c, 0, 70, 64
2, 6723, Note_on_c, 0, 63, 64
2, 6723, Note_on_c, 0, 73, 64
2, 6843, Note_off_c, 0, 73, 76
2, 6843, Note_off_c, 0, 63, 57
2, 6843, Note_off_c, 0, 70, 76
2, 6843, Note_on_c, 0, 68, 64
2, 6843, Note_on_c, 0, 63, 64
2, 6843, Note_on_c, 0, 72, 64
2, 6903, Note_off_c, 0, 72, 82
2, 6903, Note_on_c, 0, 70, 64
2, 6963, Note_off_c, 0, 70, 76
2, 6963, Note_off_c, 0, 63, 27
2, 6963, Note_off_c, 0, 68, 79
2, 6963, Note_on_c, 0, 72, 64
2, 7083, Note_off_c, 0, 72, 77
2, 7083, Note_on_c, 0, 65, 64
2, 7083, Note_on_c, 0, 68, 64
2, 7083, Note_on_c, 0, 72, 64
2, 7203, Note_off_c, 0, 72, 82
2, 7203, Note_off_c, 0, 68, 85
2, 7203, Note_off_c, 0, 65, 1
2, 7203, Note_on_c, 0, 68, 64
2, 7203, Note_on_c, 0, 65, 64
2, 7203, Note_on_c, 0, 72, 64
2, 7323, Note_off_c, 0, 72, 85
2, 7323, Note_off_c, 0, 65, 1
2, 7323, Note_off_c, 0, 68, 80
2, 7323, Note_on_c, 0, 67, 64
2, 7323, Note_on_c, 0, 65, 64
2, 7323, Note_on_c, 0, 70, 64
2, 7383, Note_off_c, 0, 70, 80
2, 7383, Note_on_c, 0, 68, 64
2, 7443, Note_off_c, 0, 68, 82
2, 7443, Note_off_c, 0, 65, 1
2, 7443, Note_off_c, 0, 67, 43
2, 7443, Note_on_c, 0, 70, 64
2, 7563, Note_off_c, 0, 70, 80
2, 7563, Note_on_c, 0, 65, 64
2, 7563, Note_on_c, 0, 67, 64
2, 7563, Note_on_c, 0, 70, 64
2, 7683, Note_off_c, 0, 70, 73
2, 7683, Note_off_c, 0, 67, 55
2, 7683, Note_off_c, 0, 65, 1
2, 7683, Note_on_c, 0, 67, 64
2, 7683, Note_on_c, 0, 64, 64
2, 7683, Note_on_c, 0, 70, 64
2, 7803, Note_off_c, 0, 70, 66
2, 7803, Note_off_c, 0, 64, 41
2, 7803, Note_off_c, 0, 67, 65
2, 7803, Note_on_c, 0, 65, 64
2, 7803, Note_on_c, 0, 60, 64
2, 7803, Note_on_c, 0, 68, 64
2, 7863, Note_off_c, 0, 68, 77
2, 7863, Note_on_c, 0, 67, 64
2, 7923, Note_off_c, 0, 67, 63
2, 7923, Note_off_c, 0, 60, 28
2, 7923, Note_off_c, 0, 65, 54
2, 7923, Note_on_c, 0, 68, 64
2, 8043, Note_off_c, 0, 68, 76
2, 8043, Note_on_c, 0, 65, 64
2, 8043, Note_on_c, 0, 60, 64
2, 8043, Note_on_c, 0, 68, 64
2, 8163, Note_off_c, 0, 68, 74
2, 8163, Note_off_c, 0, 60, 43
2, 8163, Note_off_c, 0, 65, 1
2, 8163, Note_on_c, 0, 65, 64
2, 8163, Note_on_c, 0, 61, 64
2, 8163, Note_on_c, 0, 68, 64
2, 8283, Note_off_c, 0, 68, 69
2, 8283, Note_off_c, 0, 61, 76
2, 8283, Note_off_c, 0, 65, 1
2, 8283, Note_on_c, 0, 61, 64
2, 8283, Note_on_c, 0, 58, 64
2, 8283, Note_on_c, 0, 67, 64
2, 8343, Note_off_c, 0, 67, 65
2, 8343, Note_on_c, 0, 68, 64
2, 8403, Note_off_c, 0, 68, 66
2, 8403, Note_off_c, 0, 58, 70
2, 8403, Note_off_c, 0, 61, 73
2, 8403, Note_on_c, 0, 70, 64
2, 8523, Note_off_c, 0, 70, 65
2, 8523, Note_on_c, 0, 58, 64
2, 8523, Note_on_c, 0, 61, 64
2, 8523, Note_on_c, 0, 67, 64
2, 8643, Note_off_c, 0, 67, 51
2, 8643, Note_off_c, 0, 61, 76
2, 8643, Note_off_c, 0, 58, 76
2, 8643, Note_on_c, 0, 60, 64
2, 8643, Note_on_c, 0, 64, 64
2, 8763, Note_off_c, 0, 64, 30
2, 8763, Note_off_c, 0, 60, 43
2, 8763, Note_on_c, 0, 65, 64
2, 8763, Note_on_c, 0, 72, 64
2, 8823, Note_off_c, 0, 65, 51
2, 8823, Note_on_c, 0, 64, 64
2, 8883, Note_off_c, 0, 64, 49
2, 8883, Note_on_c, 0, 65, 64
2, 9003, Note_off_c, 0, 65, 55
2, 9003, Note_off_c, 0, 72, 73
2, 9003, Note_on_c, 0, 65, 64
2, 9003, Note_on_c, 0, 70, 64
2, 9063, Note_off_c, 0, 70, 69
2, 9063, Note_on_c, 0, 68, 64
2, 9123, Note_off_c, 0, 68, 68
2, 9123, Note_off_c, 0, 65, 1
2, 9123, Note_on_c, 0, 65, 64
2, 9123, Note_on_c, 0, 70, 64
2, 9243, Note_off_c, 0, 70, 68
2, 9243, Note_off_c, 0, 65, 58
2, 9243, Note_on_c, 0, 64, 64
2, 9243, Note_on_c, 0, 70, 64
2, 9303, Note_off_c, 0, 64, 45
2, 9303, Note_on_c, 0, 62, 64
2, 9363, Note_off_c, 0, 62, 46
2, 9363, Note_on_c, 0, 64, 64
2, 9483, Note_off_c, 0, 64, 45
2, 9483, Note_off_c, 0, 70, 61
2, 9483, Note_on_c, 0, 64, 64
2, 9483, Note_on_c, 0, 68, 64
2, 9543, Note_off_c, 0, 68, 72
2, 9543, Note_on_c, 0, 67, 64
2, 9603, Note_off_c, 0, 67, 49
2, 9603, Note_off_c, 0, 64, 43
2, 9603, Note_on_c, 0, 64, 64
2, 9603, Note_on_c, 0, 68, 64
2, 9723, Note_off_c, 0, 68, 66
2, 9723, Note_off_c, 0, 64, 47
2, 9723, Note_on_c, 0, 65, 64
2, 9723, Note_on_c, 0, 68, 64
2, 9783, Note_off_c, 0, 65, 62
2, 9783, Note_on_c, 0, 63, 64
2, 9843, Note_off_c, 0, 63, 58
2, 9843, Note_on_c, 0, 61, 64
2, 9963, Note_off_c, 0, 61, 65
2, 9963, Note_off_c, 0, 68, 68
2, 9963, Note_on_c, 0, 61, 64
2, 9963, Note_on_c, 0, 66, 64
2, 10023, Note_off_c, 0, 66, 1
2, 10023, Note_on_c, 0, 65, 64
2, 10083, Note_off_c, 0, 65, 1
2, 10083, Note_off_c, 0, 61, 70
2, 10083, Note_on_c, 0, 61, 64
2, 10083, Note_on_c, 0, 66, 64
2, 10203, Note_off_c, 0, 66, 63
2, 10203, Note_off_c, 0, 61, 77
2, 10203, Note_on_c, 0, 70, 64
2, 10203, Note_on_c, 0, 73, 64
2, 10263, Note_off_c, 0, 70, 77
2, 10263, Note_on_c, 0, 69, 64
2, 10323, Note_off_c, 0, 69, 72
2, 10323, Note_on_c, 0, 70, 64
2, 10443, Note_off_c, 0, 73, 77
2, 10443, Note_on_c, 0, 72, 64
2, 10503, Note_off_c, 0, 72, 82
2, 10503, Note_on_c, 0, 70, 64
2, 10563, Note_off_c, 0, 70, 70
2, 10563, Note_off_c, 0, 70, 76
2, 10563, Note_on_c, 0, 72, 64
2, 10563, Note_on_c, 0, 76, 64
2, 10683, Note_off_c, 0, 76, 28
2, 10683, Note_off_c, 0, 72, 80
2, 10683, Note_on_c, 0, 65, 64
2, 10683, Note_on_c, 0, 72, 64
2, 10743, Note_off_c, 0, 65, 49
2, 10743, Note_on_c, 0, 67, 64
2, 10803, Note_off_c, 0, 67, 49
2, 10803, Note_off_c, 0, 72, 76
2, 10803, Note_on_c, 0, 68, 64
2, 10803, Note_on_c, 0, 77, 64
2, 10923, Note_off_c, 0, 68, 72
2, 10923, Note_on_c, 0, 68, 64
2, 10923, Note_on_c, 0, 72, 64
2, 11043, Note_off_c, 0, 72, 69
2, 11043, Note_off_c, 0, 68, 80
2, 11043, Note_on_c, 0, 68, 64
2, 11043, Note_on_c, 0, 73, 64
2, 11163, Note_off_c, 0, 73, 69
2, 11163, Note_off_c, 0, 68, 82
2, 11163, Note_on_c, 0, 66, 64
2, 11163, Note_on_c, 0, 70, 64
2, 11223, Note_off_c, 0, 66, 46
2, 11223, Note_on_c, 0, 68, 64
2, 11283, Note_off_c, 0, 68, 72
2, 11283, Note_off_c, 0, 70, 80
2, 11283, Note_off_c, 0, 77, 62
2, 11283, Note_on_c, 0, 70, 64
2, 11283, Note_on_c, 0, 76, 64
2, 11403, Note_off_c, 0, 70, 76
2, 11403, Note_on_c, 0, 70, 64
2, 11403, Note_on_c, 0, 72, 64
2, 11523, Note_off_c, 0, 72, 85
2, 11523, Note_off_c, 0, 70, 82
2, 11523, Note_off_c, 0, 76, 66
2, 11523, Note_on_c, 0, 70, 64
2, 11523, Note_on_c, 0, 72, 64
2, 11523, Note_on_c, 0, 77, 64
2, 11643, Note_off_c, 0, 72, 63
2, 11643, Note_off_c, 0, 70, 53
2, 11643, Note_on_c, 0, 68, 64
2, 11643, Note_on_c, 0, 72, 64
2, 11703, Note_off_c, 0, 72, 72
2, 11703, Note_off_c, 0, 68, 74
2, 11703, Note_on_c, 0, 67, 64
2, 11703, Note_on_c, 0, 70, 64
2, 11763, Note_off_c, 0, 70, 59
2, 11763, Note_off_c, 0, 67, 47
2, 11763, Note_off_c, 0, 77, 52
2, 11763, Note_on_c, 0, 72, 64
2, 11763, Note_on_c, 0, 68, 64
2, 11883, Note_on_c, 0, 77, 64
2, 11943, Note_off_c, 0, 77, 65
2, 11943, Note_on_c, 0, 75, 64
2, 12003, Note_off_c, 0, 75, 48
2, 12003, Note_off_c, 0, 68, 57
2, 12003, Note_off_c, 0, 72, 77
2, 12003, Note_on_c, 0, 74, 64
2, 12123, Note_on_c, 0, 71, 64
2, 12183, Note_off_c, 0, 71, 82
2, 12183, Note_on_c, 0, 70, 64
2, 12243, Note_off_c, 0, 70, 69
2, 12243, Note_off_c, 0, 74, 63
2, 12243, Note_on_c, 0, 68, 64
2, 12363, Note_on_c, 0, 75, 64
2, 12423, Note_off_c, 0, 75, 50
2, 12423, Note_on_c, 0, 77, 64
2, 12483, Note_off_c, 0, 77, 69
2, 12483, Note_off_c, 0, 68, 77
2, 12483, Note_on_c, 0, 78, 64
2, 12603, Note_on_c, 0, 66, 64
2, 12663, Note_off_c, 0, 66, 50
2, 12663, Note_on_c, 0, 68, 64
2, 12723, Note_off_c, 0, 68, 72
2, 12723, Note_off_c, 0, 78, 68
2, 12723, Note_on_c, 0, 70, 64
2, 12843, Note_on_c, 0, 75, 64
2, 12903, Note_off_c, 0, 75, 55
2, 12903, Note_on_c, 0, 73, 64
2, 12963, Note_off_c, 0, 73, 57
2, 12963, Note_off_c, 0, 70, 72
2, 12963, Note_on_c, 0, 72, 64
2, 13083, Note_on_c, 0, 63, 64
2, 13143, Note_off_c, 0, 63, 54
2, 13143, Note_on_c, 0, 65, 64
2, 13203, Note_off_c, 0, 65, 1
2, 13203, Note_off_c, 0, 72, 70
2, 13203, Note_on_c, 0, 66, 64
2, 13323, Note_on_c, 0, 73, 64
2, 13383, Note_off_c, 0, 73, 68
2, 13383, Note_on_c, 0, 75, 64
2, 13443, Note_off_c, 0, 75, 40
2, 13443, Note_off_c, 0, 66, 61
2, 13443, Note_on_c, 0, 77, 64
2, 13563, Note_on_c, 0, 68, 64
2, 13623, Note_off_c, 0, 68, 77
2, 13623, Note_on_c, 0, 66, 64
2, 13683, Note_off_c, 0, 66, 59
2, 13683, Note_off_c, 0, 77, 70
2, 13683, Note_on_c, 0, 65, 64
2, 13803, Note_off_c, 0, 65, 1
2, 13803, Note_on_c, 0, 65, 64
2, 13803, Note_on_c, 0, 73, 64
2, 13863, Note_off_c, 0, 73, 76
2, 13863, Note_on_c, 0, 72, 64
2, 13923, Note_off_c, 0, 72, 80
2, 13923, Note_off_c, 0, 65, 1
2, 13923, Note_on_c, 0, 66, 64
2, 13923, Note_on_c, 0, 70, 64
2, 14043, Note_off_c, 0, 70, 72
2, 14043, Note_off_c, 0, 66, 73
2, 14043, Note_on_c, 0, 66, 64
2, 14043, Note_on_c, 0, 70, 64
2, 14163, Note_off_c, 0, 70, 79
2, 14163, Note_off_c, 0, 66, 80
2, 14163, Note_on_c, 0, 70, 64
2, 14163, Note_on_c, 0, 78, 64
2, 14283, Note_off_c, 0, 78, 58
2, 14283, Note_off_c, 0, 70, 82
2, 14283, Note_on_c, 0, 70, 64
2, 14283, Note_on_c, 0, 78, 64
2, 14343, Note_off_c, 0, 78, 54
2, 14343, Note_on_c, 0, 77, 64
2, 14403, Note_off_c, 0, 77, 68
2, 14403, Note_off_c, 0, 70, 79
2, 14403, Note_on_c, 0, 70, 64
2, 14403, Note_on_c, 0, 75, 64
2, 14523, Note_off_c, 0, 75, 62
2, 14523, Note_off_c, 0, 70, 73
2, 14523, Note_on_c, 0, 69, 64
2, 14523, Note_on_c, 0, 75, 64
2, 14583, Note_off_c, 0, 69, 80
2, 14583, Note_on_c, 0, 70, 64
2, 14643, Note_off_c, 0, 70, 73
2, 14643, Note_off_c, 0, 75, 61
2, 14643, Note_on_c, 0, 72, 64
2, 14643, Note_on_c, 0, 84, 64
2, 14763, Note_off_c, 0, 84, 58
2, 14763, Note_off_c, 0, 72, 86
2, 14763, Note_on_c, 0, 72, 64
2, 14763, Note_on_c, 0, 84, 64
2, 14823, Note_off_c, 0, 84, 69
2, 14823, Note_on_c, 0, 82, 64
2, 14883, Note_off_c, 0, 82, 58
2, 14883, Note_off_c, 0, 72, 79
2, 14883, Note_on_c, 0, 72, 64
2, 14883, Note_on_c, 0, 77, 64
2, 14883, Note_on_c, 0, 81, 64
2, 15003, Note_off_c, 0, 81, 66
2, 15003, Note_off_c, 0, 77, 62
2, 15003, Note_off_c, 0, 72, 73
2, 15003, Note_on_c, 0, 72, 64
2, 15003, Note_on_c, 0, 77, 64
2, 15003, Note_on_c, 0, 81, 64
2, 15123, Note_off_c, 0, 81, 58
2, 15123, Note_off_c, 0, 77, 59
2, 15123, Note_off_c, 0, 72, 79
2, 15123, Note_on_c, 0, 70, 64
2, 15123, Note_on_c, 0, 77, 64
2, 15123, Note_on_c, 0, 82, 64
2, 15243, Note_off_c, 0, 82, 53
2, 15243, Note_off_c, 0, 77, 59
2, 15243, Note_off_c, 0, 70, 76
2, 15243, Note_on_c, 0, 70, 64
2, 15243, Note_on_c, 0, 77, 64
2, 15243, Note_on_c, 0, 82, 64
2, 15303, Note_off_c, 0, 82, 65
2, 15303, Note_on_c, 0, 80, 64
2, 15363, Note_off_c, 0, 80, 72
2, 15363, Note_off_c, 0, 77, 59
2, 15363, Note_off_c, 0, 70, 72
2, 15363, Note_on_c, 0, 70, 64
2, 15363, Note_on_c, 0, 77, 64
2, 15363, Note_on_c, 0, 78, 64
2, 15483, Note_off_c, 0, 78, 63
2, 15483, Note_off_c, 0, 77, 52
2, 15483, Note_off_c, 0, 70, 76
2, 15483, Note_on_c, 0, 70, 64
2, 15483, Note_on_c, 0, 78, 64
2, 15483, Note_on_c, 0, 75, 64
2, 15603, Note_off_c, 0, 75, 63
2, 15603, Note_off_c, 0, 78, 70
2, 15603, Note_off_c, 0, 70, 76
2, 15603, Note_on_c, 0, 70, 64
2, 15603, Note_on_c, 0, 78, 64
2, 15603, Note_on_c, 0, 75, 64
2, 15723, Note_off_c, 0, 75, 65
2, 15723, Note_off_c, 0, 78, 66
2, 15723, Note_off_c, 0, 70, 74
2, 15723, Note_on_c, 0, 69, 64
2, 15723, Note_on_c, 0, 78, 64
2, 15723, Note_on_c, 0, 75, 64
2, 15783, Note_off_c, 0, 69, 65
2, 15783, Note_on_c, 0, 70, 64
2, 15843, Note_off_c, 0, 70, 61
2, 15843, Note_off_c, 0, 75, 66
2, 15843, Note_off_c, 0, 78, 65
2, 15843, Note_on_c, 0, 75, 64
2, 15843, Note_on_c, 0, 78, 64
2, 15963, Note_off_c, 0, 78, 58
2, 15963, Note_off_c, 0, 75, 59
2, 15963, Note_on_c, 0, 73, 64
2, 15963, Note_on_c, 0, 77, 64
2, 16023, Note_off_c, 0, 73, 79
2, 16023, Note_on_c, 0, 72, 64
2, 16083, Note_off_c, 0, 72, 85
2, 16083, Note_off_c, 0, 77, 69
2, 16083, Note_on_c, 0, 70, 64
2, 16083, Note_on_c, 0, 77, 64
2, 16203, Note_off_c, 0, 77, 50
2, 16203, Note_off_c, 0, 70, 82
2, 16203, Note_on_c, 0, 70, 64
2, 16203, Note_on_c, 0, 78, 64
2, 16263, Note_off_c, 0, 78, 69
2, 16263, Note_on_c, 0, 77, 64
2, 16323, Note_off_c, 0, 77, 70
2, 16323, Note_off_c, 0, 70, 77
2, 16323, Note_on_c, 0, 70, 64
2, 16323, Note_on_c, 0, 75, 64
2, 16443, Note_off_c, 0, 75, 63
2, 16443, Note_off_c, 0, 70, 66
2, 16443, Note_on_c, 0, 69, 64
2, 16443, Note_on_c, 0, 75, 64
2, 16503, Note_off_c, 0, 75, 57
2, 16503, Note_off_c, 0, 69, 80
2, 16503, Note_on_c, 0, 70, 64
2, 16503, Note_on_c, 0, 73, 64
2, 16563, Note_off_c, 0, 73, 68
2, 16563, Note_off_c, 0, 70, 72
2, 16563, Note_on_c, 0, 70, 64
2, 16563, Note_on_c, 0, 72, 64
2, 16683, Note_off_c, 0, 72, 77
2, 16683, Note_off_c, 0, 70, 79
2, 16683, Note_on_c, 0, 69, 64
2, 16683, Note_on_c, 0, 72, 64
2, 16743, Note_off_c, 0, 72, 73
2, 16743, Note_off_c, 0, 69, 80
2, 16743, Note_on_c, 0, 70, 64
2, 16743, Note_on_c, 0, 73, 64
2, 16803, Note_off_c, 0, 73, 61
2, 16803, Note_off_c, 0, 70, 76
2, 16803, Note_on_c, 0, 69, 64
2, 16803, Note_on_c, 0, 75, 64
2, 16923, Note_off_c, 0, 75, 50
2, 16923, Note_off_c, 0, 69, 74
2, 16923, Note_on_c, 0, 69, 64
2, 16923, Note_on_c, 0, 72, 64
2, 16983, Note_off_c, 0, 72, 82
2, 16983, Note_off_c, 0, 69, 76
2, 16983, Note_on_c, 0, 70, 64
2, 16983, Note_on_c, 0, 73, 64
2, 17043, Note_off_c, 0, 73, 65
2, 17043, Note_off_c, 0, 70, 74
2, 17043, Note_on_c, 0, 72, 64
2, 17043, Note_on_c, 0, 75, 64
2, 17163, Note_off_c, 0, 75, 59
2, 17163, Note_off_c, 0, 72, 86
2, 17163, Note_on_c, 0, 70, 64
2, 17163, Note_on_c, 0, 73, 64
2, 17223, Note_off_c, 0, 73, 72
2, 17223, Note_off_c, 0, 70, 79
2, 17223, Note_on_c, 0, 69, 64
2, 17223, Note_on_c, 0, 72, 64
2, 17283, Note_off_c, 0, 72, 69
2, 17283, Note_off_c, 0, 69, 73
2, 17283, Note_on_c, 0, 70, 64
2, 17283, Note_on_c, 0, 73, 64
2, 17523, Note_off_c, 0, 70, 68
2, 17643, Note_on_c, 0, 70, 64
2, 17763, Note_off_c, 0, 70, 66
2, 17763, Note_on_c, 0, 70, 64
2, 17883, Note_off_c, 0, 73, 73
2, 17883, Note_on_c, 0, 78, 64
2, 17943, Note_off_c, 0, 78, 68
2, 17943, Note_on_c, 0, 77, 64
2, 18003, Note_off_c, 0, 77, 74
2, 18003, Note_off_c, 0, 70, 72
2, 18003, Note_on_c, 0, 75, 64
2, 18063, Note_off_c, 0, 75, 69
2, 18063, Note_on_c, 0, 73, 64
2, 18123, Note_off_c, 0, 73, 70
2, 18123, Note_on_c, 0, 66, 64
2, 18123, Note_on_c, 0, 72, 64
2, 18183, Note_off_c, 0, 72, 80
2, 18183, Note_on_c, 0, 70, 64
2, 18243, Note_off_c, 0, 70, 76
2, 18243, Note_off_c, 0, 66, 59
2, 18243, Note_on_c, 0, 65, 64
2, 18243, Note_on_c, 0, 69, 64
2, 18363, Note_off_c, 0, 69, 70
2, 18363, Note_on_c, 0, 65, 64
2, 18423, Note_off_c, 0, 65, 1
2, 18423, Note_on_c, 0, 67, 64
2, 18483, Note_off_c, 0, 67, 55
2, 18483, Note_off_c, 0, 65, 58
2, 18483, Note_on_c, 0, 69, 64
2, 18603, Note_off_c, 0, 69, 77
2, 18603, Note_on_c, 0, 63, 64
2, 18603, Note_on_c, 0, 69, 64
2, 18603, Note_on_c, 0, 65, 64
2, 18723, Note_off_c, 0, 65, 1
2, 18723, Note_off_c, 0, 69, 72
2, 18723, Note_off_c, 0, 63, 57
2, 18723, Note_on_c, 0, 61, 64
2, 18723, Note_on_c, 0, 69, 64
2, 18723, Note_on_c, 0, 65, 64
2, 18843, Note_off_c, 0, 65, 1
2, 18843, Note_off_c, 0, 69, 66
2, 18843, Note_on_c, 0, 67, 64
2, 18843, Note_on_c, 0, 64, 64
2, 18903, Note_off_c, 0, 64, 52
2, 18903, Note_off_c, 0, 67, 54
2, 18903, Note_on_c, 0, 69, 64
2, 18903, Note_on_c, 0, 65, 64
2, 18963, Note_off_c, 0, 65, 11
2, 18963, Note_off_c, 0, 69, 61
2, 18963, Note_off_c, 0, 61, 61
2, 18963, Note_on_c, 0, 67, 64
2, 18963, Note_on_c, 0, 70, 64
2, 19083, Note_off_c, 0, 70, 76
2, 19083, Note_off_c, 0, 67, 49
2, 19083, Note_on_c, 0, 64, 64
2, 19083, Note_on_c, 0, 70, 64
2, 19083, Note_on_c, 0, 67, 64
2, 19203, Note_off_c, 0, 67, 40
2, 19203, Note_off_c, 0, 70, 72
2, 19203, Note_off_c, 0, 64, 61
2, 19203, Note_on_c, 0, 64, 64
2, 19203, Note_on_c, 0, 70, 64
2, 19203, Note_on_c, 0, 67, 64
2, 19323, Note_off_c, 0, 67, 17
2, 19323, Note_off_c, 0, 70, 57
2, 19323, Note_off_c, 0, 64, 54
2, 19323, Note_on_c, 0, 69, 64
2, 19323, Note_on_c, 0, 65, 64
2, 19383, Note_off_c, 0, 65, 8
2, 19383, Note_off_c, 0, 69, 63
2, 19383, Note_on_c, 0, 67, 64
2, 19383, Note_on_c, 0, 70, 64
2, 19443, Note_off_c, 0, 70, 73
2, 19443, Note_off_c, 0, 67, 42
2, 19443, Note_on_c, 0, 72, 64
2, 19443, Note_on_c, 0, 69, 64
2, 19563, Note_off_c, 0, 69, 62
2, 19563, Note_off_c, 0, 72, 63
2, 19563, Note_on_c, 0, 65, 64
2, 19563, Note_on_c, 0, 69, 64
2, 19563, Note_on_c, 0, 72, 64
2, 19683, Note_off_c, 0, 72, 66
2, 19683, Note_off_c, 0, 69, 69
2, 19683, Note_off_c, 0, 65, 1
2, 19683, Note_on_c, 0, 65, 64
2, 19683, Note_on_c, 0, 72, 64
2, 19683, Note_on_c, 0, 69, 64
2, 19803, Note_off_c, 0, 69, 57
2, 19803, Note_off_c, 0, 72, 70
2, 19803, Note_on_c, 0, 70, 64
2, 19803, Note_on_c, 0, 67, 64
2, 19863, Note_off_c, 0, 67, 52
2, 19863, Note_off_c, 0, 70, 79
2, 19863, Note_on_c, 0, 69, 64
2, 19863, Note_on_c, 0, 72, 64
2, 19923, Note_off_c, 0, 72, 74
2, 19923, Note_off_c, 0, 69, 68
2, 19923, Note_off_c, 0, 65, 1
2, 19923, Note_on_c, 0, 73, 64
2, 19923, Note_on_c, 0, 70, 64
2, 20043, Note_off_c, 0, 70, 70
2, 20043, Note_off_c, 0, 73, 72
2, 20043, Note_on_c, 0, 65, 64
2, 20043, Note_on_c, 0, 70, 64
2, 20043, Note_on_c, 0, 73, 64
2, 20163, Note_off_c, 0, 73, 66
2, 20163, Note_off_c, 0, 70, 73
2, 20163, Note_off_c, 0, 65, 66
2, 20163, Note_on_c, 0, 66, 64
2, 20163, Note_on_c, 0, 73, 64
2, 20163, Note_on_c, 0, 70, 64
2, 20283, Note_off_c, 0, 70, 79
2, 20283, Note_off_c, 0, 73, 69
2, 20283, Note_off_c, 0, 66, 77
2, 20283, Note_on_c, 0, 66, 64
2, 20283, Note_on_c, 0, 69, 64
2, 20283, Note_on_c, 0, 72, 64
2, 20343, Note_off_c, 0, 72, 85
2, 20343, Note_off_c, 0, 69, 80
2, 20343, Note_on_c, 0, 73, 64
2, 20343, Note_on_c, 0, 70, 64
2, 20403, Note_off_c, 0, 70, 69
2, 20403, Note_off_c, 0, 73, 76
2, 20403, Note_off_c, 0, 66, 83
2, 20403, Note_on_c, 0, 66, 64
2, 20403, Note_on_c, 0, 69, 64
2, 20403, Note_on_c, 0, 72, 64
2, 20403, Note_on_c, 0, 75, 64
2, 20523, Note_off_c, 0, 75, 65
2, 20523, Note_off_c, 0, 72, 85
2, 20523, Note_off_c, 0, 69, 77
2, 20523, Note_off_c, 0, 66, 74
2, 20523, Note_on_c, 0, 66, 64
2, 20523, Note_on_c, 0, 69, 64
2, 20523, Note_on_c, 0, 72, 64
2, 20523, Note_on_c, 0, 75, 64
2, 20583, Note_off_c, 0, 75, 55
2, 20583, Note_off_c, 0, 72, 86
2, 20583, Note_on_c, 0, 73, 64
2, 20583, Note_on_c, 0, 77, 64
2, 20643, Note_off_c, 0, 77, 74
2, 20643, Note_off_c, 0, 73, 73
2, 20643, Note_off_c, 0, 69, 73
2, 20643, Note_off_c, 0, 66, 70
2, 20643, Note_on_c, 0, 66, 64
2, 20643, Note_on_c, 0, 69, 64
2, 20643, Note_on_c, 0, 72, 64
2, 20643, Note_on_c, 0, 78, 64
2, 20643, Note_on_c, 0, 75, 64
2, 20883, Note_off_c, 0, 75, 68
2, 20883, Note_off_c, 0, 78, 76
2, 20883, Note_off_c, 0, 72, 54
2, 20883, Note_off_c, 0, 69, 77
2, 20883, Note_off_c, 0, 66, 62
2, 21003, Note_on_c, 0, 72, 64
2, 21003, Note_on_c, 0, 77, 64
2, 21123, Note_off_c, 0, 77, 77
2, 21123, Note_off_c, 0, 72, 77
2, 21123, Note_on_c, 0, 70, 64
2, 21123, Note_on_c, 0, 73, 64
2, 21243, Note_off_c, 0, 73, 70
2, 21243, Note_off_c, 0, 70, 83
2, 21243, Note_on_c, 0, 70, 64
2, 21243, Note_on_c, 0, 75, 64
2, 21303, Note_off_c, 0, 75, 54
2, 21303, Note_on_c, 0, 72, 64
2, 21363, Note_off_c, 0, 72, 72
2, 21363, Note_off_c, 0, 70, 80
2, 21363, Note_on_c, 0, 65, 64
2, 21363, Note_on_c, 0, 70, 64
2, 21363, Note_on_c, 0, 73, 64
2, 21483, Note_off_c, 0, 73, 72
2, 21483, Note_off_c, 0, 70, 76
2, 21483, Note_off_c, 0, 65, 50
2, 21483, Note_on_c, 0, 69, 64
2, 21483, Note_on_c, 0, 63, 64
2, 21483, Note_on_c, 0, 72, 64
2, 21543, Note_off_c, 0, 72, 82
2, 21543, Note_on_c, 0, 70, 64
2, 21603, Note_off_c, 0, 70, 79
2, 21603, Note_off_c, 0, 63, 37
2, 21603, Note_off_c, 0, 69, 77
2, 21603, Note_on_c, 0, 62, 64
2, 21603, Note_on_c, 0, 70, 64
2, 21723, Note_off_c, 0, 62, 43
2, 21723, Note_on_c, 0, 65, 64
2, 21723, Note_on_c, 0, 62, 64
2, 21783, Note_off_c, 0, 62, 40
2, 21783, Note_off_c, 0, 65, 1
2, 21783, Note_on_c, 0, 66, 64
2, 21783, Note_on_c, 0, 63, 64
2, 21843, Note_off_c, 0, 63, 46
2, 21843, Note_off_c, 0, 66, 68
2, 21843, Note_on_c, 0, 68, 64
2, 21843, Note_on_c, 0, 65, 64
2, 21963, Note_off_c, 0, 65, 1
2, 21963, Note_off_c, 0, 68, 82
2, 21963, Note_on_c, 0, 68, 64
2, 21963, Note_on_c, 0, 65, 64
2, 22083, Note_off_c, 0, 65, 65
2, 22083, Note_off_c, 0, 68, 82
2, 22083, Note_on_c, 0, 65, 64
2, 22083, Note_on_c, 0, 68, 64
2, 22203, Note_off_c, 0, 68, 72
2, 22203, Note_off_c, 0, 65, 65
2, 22203, Note_on_c, 0, 66, 64
2, 22203, Note_on_c, 0, 63, 64
2, 22443, Note_off_c, 0, 63, 59
2, 22443, Note_off_c, 0, 66, 70
2, 22443, Note_on_c, 0, 65, 64
2, 22443, Note_on_c, 0, 62, 64
2, 22503, Note_off_c, 0, 62, 53
2, 22503, Note_off_c, 0, 65, 68
2, 22503, Note_on_c, 0, 60, 64
2, 22503, Note_on_c, 0, 63, 64
2, 22563, Note_off_c, 0, 63, 65
2, 22563, Note_off_c, 0, 60, 42
2, 22563, Note_on_c, 0, 65, 64
2, 22563, Note_on_c, 0, 62, 64
2, 23043, Note_off_c, 0, 62, 58
2, 23043, Note_off_c, 0, 65, 65
2, 23043, Note_off_c, 0, 70, 82
2, 23043, End_track
3, 0, Start_track
3, 0, Text_t, "LH B"
3, 0, Note_on_c, 1, 61, 64
3, 0, Note_on_c, 1, 58, 64
3, 120, Note_off_c, 1, 58, 70
3, 120, Note_on_c, 1, 58, 64
3, 240, Note_off_c, 1, 58, 73
3, 240, Note_off_c, 1, 61, 65
3, 240, Note_on_c, 1, 58, 64
3, 360, Note_off_c, 1, 58, 77
3, 360, Note_on_c, 1, 61, 64
3, 360, Note_on_c, 1, 58, 64
3, 480, Note_off_c, 1, 58, 76
3, 480, Note_off_c, 1, 61, 65
3, 480, Note_on_c, 1, 63, 64
3, 480, Note_on_c, 1, 58, 64
3, 600, Note_off_c, 1, 58, 73
3, 600, Note_on_c, 1, 58, 64
3, 720, Note_off_c, 1, 58, 73
3, 720, Note_off_c, 1, 63, 55
3, 720, Note_on_c, 1, 58, 64
3, 840, Note_off_c, 1, 58, 74
3, 840, Note_on_c, 1, 66, 64
3, 840, Note_on_c, 1, 63, 64
3, 840, Note_on_c, 1, 60, 64
3, 840, Note_on_c, 1, 58, 64
3, 960, Note_off_c, 1, 58, 74
3, 960, Note_off_c, 1, 60, 62
3, 960, Note_off_c, 1, 63, 66
3, 960, Note_off_c, 1, 66, 1
3, 960, Note_on_c, 1, 65, 64
3, 960, Note_on_c, 1, 61, 64
3, 960, Note_on_c, 1, 58, 64
3, 1080, Note_off_c, 1, 58, 68
3, 1080, Note_on_c, 1, 58, 64
3, 1200, Note_off_c, 1, 58, 72
3, 1200, Note_off_c, 1, 61, 70
3, 1200, Note_off_c, 1, 65, 1
3, 1200, Note_on_c, 1, 58, 64
3, 1320, Note_off_c, 1, 58, 73
3, 1320, Note_on_c, 1, 61, 64
3, 1320, Note_on_c, 1, 65, 64
3, 1320, Note_on_c, 1, 58, 64
3, 1440, Note_off_c, 1, 58, 74
3, 1440, Note_off_c, 1, 65, 1
3, 1440, Note_off_c, 1, 61, 76
3, 1440, Note_on_c, 1, 60, 64
3, 1440, Note_on_c, 1, 58, 64
3, 1560, Note_off_c, 1, 58, 65
3, 1560, Note_on_c, 1, 58, 64
3, 1680, Note_off_c, 1, 58, 70
3, 1680, Note_off_c, 1, 60, 70
3, 1680, Note_on_c, 1, 58, 64
3, 1800, Note_off_c, 1, 58, 70
3, 1800, Note_on_c, 1, 60, 64
3, 1800, Note_on_c, 1, 58, 64
3, 1920, Note_off_c, 1, 58, 70
3, 1920, Note_off_c, 1, 60, 68
3, 1920, Note_on_c, 1, 58, 64
3, 2040, Note_off_c, 1, 58, 65
3, 2040, Note_on_c, 1, 58, 64
3, 2100, Note_off_c, 1, 58, 69
3, 2100, Note_on_c, 1, 60, 64
3, 2160, Note_off_c, 1, 60, 65
3, 2160, Note_on_c, 1, 61, 64
3, 2280, Note_off_c, 1, 61, 72
3, 2280, Note_on_c, 1, 61, 64
3, 2400, Note_off_c, 1, 61, 68
3, 2400, Note_on_c, 1, 61, 64
3, 2520, Note_off_c, 1, 61, 65
3, 2520, Note_on_c, 1, 60, 64
3, 2580, Note_off_c, 1, 60, 70
3, 2580, Note_on_c, 1, 61, 64
3, 2640, Note_off_c, 1, 61, 57
3, 2640, Note_on_c, 1, 63, 64
3, 2760, Note_off_c, 1, 63, 62
3, 2760, Note_on_c, 1, 63, 64
3, 2880, Note_off_c, 1, 63, 63
3, 2880, Note_on_c, 1, 63, 64
3, 3000, Note_off_c, 1, 63, 59
3, 3000, Note_on_c, 1, 61, 64
3, 3060, Note_off_c, 1, 61, 66
3, 3060, Note_on_c, 1, 63, 64
3, 3120, Note_off_c, 1, 63, 58
3, 3120, Note_on_c, 1, 65, 64
3, 3240, Note_off_c, 1, 65, 1
3, 3240, Note_on_c, 1, 65, 64
3, 3360, Note_off_c, 1, 65, 1
3, 3360, Note_on_c, 1, 66, 64
3, 3360, Note_on_c, 1, 65, 64
3, 3480, Note_off_c, 1, 65, 1
3, 3480, Note_on_c, 1, 63, 64
3, 3540, Note_off_c, 1, 63, 68
3, 3540, Note_on_c, 1, 61, 64
3, 3600, Note_off_c, 1, 61, 70
3, 3600, Note_on_c, 1, 60, 64
3, 3720, Note_off_c, 1, 60, 70
3, 3720, Note_on_c, 1, 58, 64
3, 3840, Note_off_c, 1, 58, 68
3, 3840, Note_on_c, 1, 57, 64
3, 3960, Note_off_c, 1, 66, 63
3, 3960, Note_on_c, 1, 75, 64
3, 4020, Note_off_c, 1, 75, 63
3, 4020, Note_on_c, 1, 73, 64
3, 4080, Note_off_c, 1, 73, 76
3, 4080, Note_on_c, 1, 72, 64
3, 4200, Note_off_c, 1, 57, 52
3, 4200, Note_on_c, 1, 57, 64
3, 4260, Note_off_c, 1, 57, 54
3, 4260, Note_on_c, 1, 58, 64
3, 4320, Note_off_c, 1, 58, 62
3, 4320, Note_on_c, 1, 60, 64
3, 4440, Note_off_c, 1, 72, 85
3, 4440, Note_on_c, 1, 72, 64
3, 4500, Note_off_c, 1, 72, 85
3, 4500, Note_on_c, 1, 70, 64
3, 4560, Note_off_c, 1, 70, 69
3, 4560, Note_on_c, 1, 69, 64
3, 4680, Note_off_c, 1, 60, 63
3, 4680, Note_on_c, 1, 60, 64
3, 4740, Note_off_c, 1, 60, 66
3, 4740, Note_on_c, 1, 61, 64
3, 4800, Note_off_c, 1, 61, 68
3, 4800, Note_on_c, 1, 63, 64
3, 4920, Note_off_c, 1, 69, 74
3, 4920, Note_on_c, 1, 65, 64
3, 4980, Note_off_c, 1, 65, 14
3, 4980, Note_on_c, 1, 67, 64
3, 5040, Note_off_c, 1, 67, 55
3, 5040, Note_on_c, 1, 69, 64
3, 5160, Note_off_c, 1, 63, 52
3, 5160, Note_on_c, 1, 63, 64
3, 5220, Note_off_c, 1, 63, 52
3, 5220, Note_on_c, 1, 61, 64
3, 5280, Note_off_c, 1, 61, 70
3, 5280, Note_on_c, 1, 60, 64
3, 5400, Note_off_c, 1, 60, 65
3, 5400, Note_off_c, 1, 69, 73
3, 5400, Note_on_c, 1, 69, 64
3, 5400, Note_on_c, 1, 60, 64
3, 5460, Note_off_c, 1, 60, 72
3, 5460, Note_off_c, 1, 69, 79
3, 5460, Note_on_c, 1, 70, 64
3, 5460, Note_on_c, 1, 58, 64
3, 5520, Note_off_c, 1, 58, 74
3, 5520, Note_off_c, 1, 70, 63
3, 5520, Note_on_c, 1, 72, 64
3, 5520, Note_on_c, 1, 57, 64
3, 5640, Note_off_c, 1, 57, 65
3, 5640, Note_off_c, 1, 72, 82
3, 5640, Note_on_c, 1, 69, 64
3, 5640, Note_on_c, 1, 55, 64
3, 5700, Note_off_c, 1, 55, 65
3, 5700, Note_on_c, 1, 53, 64
3, 5760, Note_off_c, 1, 53, 39
3, 5760, Note_off_c, 1, 69, 72
3, 5760, Note_on_c, 1, 65, 64
3, 5760, Note_on_c, 1, 58, 64
3, 6120, Note_off_c, 1, 65, 37
3, 6120, Note_on_c, 1, 66, 64
3, 6180, Note_off_c, 1, 66, 61
3, 6180, Note_on_c, 1, 63, 64
3, 6240, Note_off_c, 1, 63, 61
3, 6240, Note_on_c, 1, 65, 64
3, 6360, Note_off_c, 1, 58, 73
3, 6360, Note_on_c, 1, 61, 64
3, 6420, Note_off_c, 1, 61, 59
3, 6420, Note_on_c, 1, 60, 64
3, 6480, Note_off_c, 1, 60, 63
3, 6480, Note_off_c, 1, 65, 1
3, 6480, Note_on_c, 1, 58, 64
3, 6600, Note_off_c, 1, 58, 68
3, 6600, Note_on_c, 1, 56, 64
3, 6720, Note_off_c, 1, 56, 59
3, 6720, Note_on_c, 1, 55, 64
3, 6840, Note_off_c, 1, 55, 70
3, 6840, Note_on_c, 1, 56, 64
3, 6900, Note_off_c, 1, 56, 63
3, 6900, Note_on_c, 1, 55, 64
3, 6960, Note_off_c, 1, 55, 51
3, 6960, Note_on_c, 1, 53, 64
3, 7080, Note_off_c, 1, 53, 39
3, 7080, Note_on_c, 1, 51, 64
3, 7200, Note_off_c, 1, 51, 57
3, 7200, Note_on_c, 1, 50, 64
3, 7320, Note_off_c, 1, 50, 48
3, 7320, Note_on_c, 1, 55, 64
3, 7380, Note_off_c, 1, 55, 69
3, 7380, Note_on_c, 1, 53, 64
3, 7440, Note_off_c, 1, 53, 66
3, 7440, Note_on_c, 1, 52, 64
3, 7560, Note_off_c, 1, 52, 54
3, 7560, Note_on_c, 1, 55, 64
3, 7680, Note_off_c, 1, 55, 62
3, 7680, Note_on_c, 1, 48, 64
3, 7800, Note_off_c, 1, 48, 48
3, 7800, Note_on_c, 1, 53, 64
3, 7860, Note_off_c, 1, 53, 61
3, 7860, Note_on_c, 1, 51, 64
3, 7920, Note_off_c, 1, 51, 61
3, 7920, Note_on_c, 1, 49, 64
3, 8040, Note_off_c, 1, 49, 70
3, 8040, Note_on_c, 1, 48, 64
3, 8160, Note_off_c, 1, 48, 66
3, 8160, Note_on_c, 1, 46, 64
3, 8280, Note_off_c, 1, 46, 76
3, 8280, Note_on_c, 1, 46, 64
3, 8400, Note_off_c, 1, 46, 82
3, 8400, Note_on_c, 1, 46, 64
3, 8520, Note_off_c, 1, 46, 74
3, 8520, Note_on_c, 1, 46, 64
3, 8640, Note_off_c, 1, 46, 76
3, 8640, Note_on_c, 1, 55, 64
3, 8640, Note_on_c, 1, 46, 64
3, 8760, Note_off_c, 1, 46, 73
3, 8760, Note_off_c, 1, 55, 50
3, 8760, Note_on_c, 1, 56, 64
3, 8760, Note_on_c, 1, 44, 64
3, 8880, Note_off_c, 1, 44, 74
3, 8880, Note_on_c, 1, 49, 64
3, 9000, Note_off_c, 1, 49, 77
3, 9000, Note_off_c, 1, 56, 57
3, 9000, Note_on_c, 1, 55, 64
3, 9000, Note_on_c, 1, 49, 64
3, 9060, Note_off_c, 1, 55, 46
3, 9060, Note_on_c, 1, 53, 64
3, 9120, Note_off_c, 1, 53, 46
3, 9120, Note_off_c, 1, 49, 76
3, 9120, Note_on_c, 1, 55, 64
3, 9120, Note_on_c, 1, 49, 64
3, 9240, Note_off_c, 1, 49, 72
3, 9240, Note_off_c, 1, 55, 65
3, 9240, Note_on_c, 1, 55, 64
3, 9240, Note_on_c, 1, 48, 64
3, 9300, Note_off_c, 1, 48, 68
3, 9300, Note_on_c, 1, 46, 64
3, 9360, Note_off_c, 1, 46, 68
3, 9360, Note_off_c, 1, 55, 53
3, 9360, Note_on_c, 1, 55, 64
3, 9360, Note_on_c, 1, 48, 64
3, 9480, Note_off_c, 1, 48, 69
3, 9480, Note_off_c, 1, 55, 48
3, 9480, Note_on_c, 1, 60, 64
3, 9480, Note_on_c, 1, 48, 64
3, 9600, Note_off_c, 1, 48, 70
3, 9600, Note_off_c, 1, 60, 69
3, 9600, Note_on_c, 1, 60, 64
3, 9600, Note_on_c, 1, 48, 64
3, 9720, Note_off_c, 1, 48, 74
3, 9720, Note_off_c, 1, 60, 72
3, 9720, Note_on_c, 1, 60, 64
3, 9720, Note_on_c, 1, 41, 64
3, 9840, Note_off_c, 1, 41, 48
3, 9840, Note_on_c, 1, 46, 64
3, 9960, Note_off_c, 1, 46, 69
3, 9960, Note_off_c, 1, 60, 70
3, 9960, Note_on_c, 1, 58, 64
3, 9960, Note_on_c, 1, 46, 64
3, 10020, Note_off_c, 1, 58, 59
3, 10020, Note_on_c, 1, 57, 64
3, 10080, Note_off_c, 1, 57, 58
3, 10080, Note_off_c, 1, 46, 55
3, 10080, Note_on_c, 1, 58, 64
3, 10080, Note_on_c, 1, 46, 64
3, 10200, Note_off_c, 1, 46, 76
3, 10200, Note_off_c, 1, 58, 57
3, 10200, Note_on_c, 1, 54, 64
3, 10200, Note_on_c, 1, 46, 64
3, 10260, Note_off_c, 1, 54, 61
3, 10260, Note_on_c, 1, 53, 64
3, 10320, Note_off_c, 1, 53, 49
3, 10320, Note_off_c, 1, 46, 59
3, 10320, Note_on_c, 1, 54, 64
3, 10320, Note_on_c, 1, 46, 64
3, 10440, Note_off_c, 1, 46, 70
3, 10440, Note_on_c, 1, 46, 64
3, 10560, Note_off_c, 1, 46, 61
3, 10560, Note_off_c, 1, 54, 59
3, 10560, Note_on_c, 1, 55, 64
3, 10560, Note_on_c, 1, 46, 64
3, 10680, Note_off_c, 1, 46, 59
3, 10680, Note_off_c, 1, 55, 66
3, 10680, Note_on_c, 1, 56, 64
3, 10680, Note_on_c, 1, 44, 64
3, 10740, Note_off_c, 1, 56, 62
3, 10740, Note_on_c, 1, 55, 64
3, 10800, Note_off_c, 1, 55, 63
3, 10800, Note_off_c, 1, 44, 66
3, 10800, Note_on_c, 1, 53, 64
3, 10800, Note_on_c, 1, 49, 64
3, 10920, Note_off_c, 1, 49, 69
3, 10920, Note_on_c, 1, 48, 64
3, 11040, Note_off_c, 1, 48, 73
3, 11040, Note_on_c, 1, 46, 64
3, 11160, Note_off_c, 1, 46, 66
3, 11160, Note_off_c, 1, 53, 39
3, 11160, Note_on_c, 1, 52, 64
3, 11160, Note_on_c, 1, 49, 64
3, 11220, Note_off_c, 1, 52, 52
3, 11220, Note_on_c, 1, 53, 64
3, 11280, Note_off_c, 1, 53, 68
3, 11280, Note_off_c, 1, 49, 61
3, 11280, Note_on_c, 1, 55, 64
3, 11280, Note_on_c, 1, 48, 64
3, 11400, Note_off_c, 1, 48, 70
3, 11400, Note_off_c, 1, 55, 72
3, 11400, Note_on_c, 1, 55, 64
3, 11400, Note_on_c, 1, 48, 64
3, 11520, Note_off_c, 1, 48, 73
3, 11520, Note_off_c, 1, 55, 66
3, 11520, Note_on_c, 1, 53, 64
3, 11520, Note_on_c, 1, 41, 64
3, 11760, Note_off_c, 1, 41, 39
3, 11760, Note_off_c, 1, 53, 46
3, 11880, Note_on_c, 1, 53, 64
3, 12000, Note_off_c, 1, 53, 69
3, 12000, Note_on_c, 1, 58, 64
3, 12120, Note_on_c, 1, 68, 64
3, 12180, Note_off_c, 1, 68, 74
3, 12180, Note_on_c, 1, 66, 64
3, 12240, Note_off_c, 1, 66, 61
3, 12240, Note_off_c, 1, 58, 61
3, 12240, Note_on_c, 1, 65, 64
3, 12360, Note_on_c, 1, 58, 64
3, 12480, Note_off_c, 1, 58, 52
3, 12480, Note_off_c, 1, 65, 1
3, 12480, Note_on_c, 1, 51, 64
3, 12600, Note_on_c, 1, 63, 64
3, 12660, Note_off_c, 1, 63, 52
3, 12660, Note_on_c, 1, 65, 64
3, 12720, Note_off_c, 1, 65, 1
3, 12720, Note_off_c, 1, 51, 66
3, 12720, Note_on_c, 1, 66, 64
3, 12840, Note_on_c, 1, 51, 64
3, 12960, Note_off_c, 1, 51, 65
3, 12960, Note_off_c, 1, 66, 70
3, 12960, Note_on_c, 1, 56, 64
3, 13080, Note_on_c, 1, 60, 64
3, 13140, Note_off_c, 1, 60, 52
3, 13140, Note_on_c, 1, 61, 64
3, 13200, Note_off_c, 1, 61, 73
3, 13200, Note_off_c, 1, 56, 57
3, 13200, Note_on_c, 1, 63, 64
3, 13320, Note_on_c, 1, 56, 64
3, 13440, Note_off_c, 1, 56, 59
3, 13440, Note_off_c, 1, 63, 52
3, 13440, Note_on_c, 1, 49, 64
3, 13560, Note_on_c, 1, 65, 64
3, 13620, Note_off_c, 1, 65, 1
3, 13620, Note_on_c, 1, 63, 64
3, 13680, Note_off_c, 1, 63, 66
3, 13680, Note_off_c, 1, 49, 73
3, 13680, Note_on_c, 1, 61, 64
3, 13800, Note_off_c, 1, 61, 68
3, 13800, Note_on_c, 1, 61, 64
3, 13800, Note_on_c, 1, 49, 64
3, 13920, Note_off_c, 1, 49, 76
3, 13920, Note_off_c, 1, 61, 70
3, 13920, Note_on_c, 1, 61, 64
3, 13920, Note_on_c, 1, 54, 64
3, 14040, Note_off_c, 1, 54, 61
3, 14040, Note_off_c, 1, 61, 74
3, 14040, Note_on_c, 1, 61, 64
3, 14040, Note_on_c, 1, 54, 64
3, 14100, Note_off_c, 1, 54, 54
3, 14100, Note_on_c, 1, 53, 64
3, 14160, Note_off_c, 1, 53, 65
3, 14160, Note_off_c, 1, 61, 61
3, 14160, Note_on_c, 1, 63, 64
3, 14160, Note_on_c, 1, 51, 64
3, 14280, Note_off_c, 1, 51, 69
3, 14280, Note_off_c, 1, 63, 65
3, 14280, Note_on_c, 1, 63, 64
3, 14280, Note_on_c, 1, 51, 64
3, 14340, Note_off_c, 1, 63, 57
3, 14340, Note_on_c, 1, 65, 64
3, 14400, Note_off_c, 1, 65, 1
3, 14400, Note_off_c, 1, 51, 72
3, 14400, Note_on_c, 1, 66, 64
3, 14400, Note_on_c, 1, 60, 64
3, 14520, Note_off_c, 1, 60, 61
3, 14520, Note_off_c, 1, 66, 1
3, 14520, Note_on_c, 1, 66, 64
3, 14520, Note_on_c, 1, 60, 64
3, 14580, Note_off_c, 1, 60, 59
3, 14580, Note_on_c, 1, 58, 64
3, 14640, Note_off_c, 1, 58, 68
3, 14640, Note_off_c, 1, 66, 73
3, 14640, Note_on_c, 1, 66, 64
3, 14640, Note_on_c, 1, 57, 64
3, 14760, Note_off_c, 1, 57, 65
3, 14760, Note_off_c, 1, 66, 79
3, 14760, Note_on_c, 1, 65, 64
3, 14760, Note_on_c, 1, 57, 64
3, 14880, Note_off_c, 1, 57, 66
3, 14880, Note_off_c, 1, 65, 1
3, 14880, Note_on_c, 1, 63, 64
3, 15000, Note_off_c, 1, 63, 53
3, 15000, Note_on_c, 1, 65, 64
3, 15060, Note_off_c, 1, 65, 1
3, 15060, Note_on_c, 1, 63, 64
3, 15120, Note_off_c, 1, 63, 59
3, 15120, Note_on_c, 1, 62, 64
3, 15240, Note_off_c, 1, 62, 66
3, 15240, Note_on_c, 1, 62, 64
3, 15360, Note_off_c, 1, 62, 62
3, 15360, Note_on_c, 1, 63, 64
3, 15480, Note_off_c, 1, 63, 54
3, 15480, Note_on_c, 1, 63, 64
3, 15540, Note_off_c, 1, 63, 62
3, 15540, Note_on_c, 1, 61, 64
3, 15600, Note_off_c, 1, 61, 74
3, 15600, Note_on_c, 1, 60, 64
3, 15720, Note_off_c, 1, 60, 74
3, 15720, Note_on_c, 1, 60, 64
3, 15780, Note_off_c, 1, 60, 77
3, 15780, Note_on_c, 1, 58, 64
3, 15840, Note_off_c, 1, 58, 73
3, 15840, Note_on_c, 1, 72, 64
3, 15840, Note_on_c, 1, 57, 64
3, 15960, Note_off_c, 1, 57, 68
3, 15960, Note_off_c, 1, 72, 83
3, 15960, Note_on_c, 1, 65, 64
3, 15960, Note_on_c, 1, 57, 64
3, 16020, Note_off_c, 1, 65, 1
3, 16020, Note_on_c, 1, 63, 64
3, 16080, Note_off_c, 1, 63, 68
3, 16080, Note_off_c, 1, 57, 63
3, 16080, Note_on_c, 1, 61, 64
3, 16080, Note_on_c, 1, 58, 64
3, 16200, Note_off_c, 1, 58, 59
3, 16200, Note_off_c, 1, 61, 74
3, 16200, Note_on_c, 1, 61, 64
3, 16200, Note_on_c, 1, 58, 64
3, 16260, Note_off_c, 1, 58, 65
3, 16260, Note_on_c, 1, 56, 64
3, 16320, Note_off_c, 1, 56, 66
3, 16320, Note_off_c, 1, 61, 74
3, 16320, Note_on_c, 1, 61, 64
3, 16320, Note_on_c, 1, 54, 64
3, 16440, Note_off_c, 1, 54, 59
3, 16440, Note_off_c, 1, 61, 72
3, 16440, Note_on_c, 1, 60, 64
3, 16440, Note_on_c, 1, 54, 64
3, 16500, Note_off_c, 1, 54, 52
3, 16500, Note_off_c, 1, 60, 73
3, 16500, Note_on_c, 1, 61, 64
3, 16500, Note_on_c, 1, 53, 64
3, 16560, Note_off_c, 1, 53, 69
3, 16560, Note_off_c, 1, 61, 73
3, 16560, Note_on_c, 1, 63, 64
3, 16560, Note_on_c, 1, 51, 64
3, 16680, Note_off_c, 1, 51, 66
3, 16680, Note_off_c, 1, 63, 65
3, 16680, Note_on_c, 1, 65, 64
3, 16680, Note_on_c, 1, 51, 64
3, 16740, Note_off_c, 1, 51, 62
3, 16740, Note_on_c, 1, 49, 64
3, 16800, Note_off_c, 1, 49, 72
3, 16800, Note_off_c, 1, 65, 48
3, 16800, Note_on_c, 1, 66, 64
3, 16800, Note_on_c, 1, 48, 64
3, 16920, Note_off_c, 1, 48, 63
3, 16920, Note_off_c, 1, 66, 1
3, 16920, Note_on_c, 1, 66, 64
3, 16920, Note_on_c, 1, 48, 64
3, 16980, Note_off_c, 1, 48, 73
3, 16980, Note_on_c, 1, 46, 64
3, 17040, Note_off_c, 1, 46, 73
3, 17040, Note_off_c, 1, 66, 80
3, 17040, Note_on_c, 1, 65, 64
3, 17040, Note_on_c, 1, 45, 64
3, 17160, Note_off_c, 1, 45, 69
3, 17160, Note_off_c, 1, 65, 1
3, 17160, Note_on_c, 1, 65, 64
3, 17160, Note_on_c, 1, 41, 64
3, 17280, Note_off_c, 1, 41, 42
3, 17280, Note_off_c, 1, 65, 62
3, 17280, Note_on_c, 1, 65, 64
3, 17280, Note_on_c, 1, 46, 64
3, 17400, Note_off_c, 1, 46, 65
3, 17400, Note_on_c, 1, 46, 64
3, 17460, Note_off_c, 1, 46, 70
3, 17460, Note_on_c, 1, 44, 64
3, 17520, Note_off_c, 1, 44, 66
3, 17520, Note_off_c, 1, 65, 59
3, 17520, Note_on_c, 1, 42, 64
3, 17640, Note_off_c, 1, 42, 69
3, 17640, Note_on_c, 1, 65, 64
3, 17640, Note_on_c, 1, 42, 64
3, 17700, Note_off_c, 1, 42, 61
3, 17700, Note_on_c, 1, 41, 64
3, 17760, Note_off_c, 1, 41, 57
3, 17760, Note_off_c, 1, 65, 53
3, 17760, Note_on_c, 1, 66, 64
3, 17760, Note_on_c, 1, 39, 64
3, 17880, Note_off_c, 1, 39, 73
3, 17880, Note_on_c, 1, 39, 64
3, 18000, Note_off_c, 1, 39, 77
3, 18000, Note_off_c, 1, 66, 76
3, 18000, Note_on_c, 1, 39, 64
3, 18120, Note_off_c, 1, 39, 76
3, 18120, Note_on_c, 1, 63, 64
3, 18120, Note_on_c, 1, 39, 64
3, 18180, Note_off_c, 1, 63, 66
3, 18180, Note_on_c, 1, 61, 64
3, 18240, Note_off_c, 1, 61, 76
3, 18240, Note_off_c, 1, 39, 73
3, 18240, Note_on_c, 1, 60, 64
3, 18240, Note_on_c, 1, 41, 64
3, 18360, Note_off_c, 1, 41, 49
3, 18360, Note_off_c, 1, 60, 65
3, 18360, Note_on_c, 1, 57, 64
3, 18360, Note_on_c, 1, 53, 64
3, 18420, Note_off_c, 1, 57, 49
3, 18420, Note_on_c, 1, 58, 64
3, 18480, Note_off_c, 1, 58, 69
3, 18480, Note_off_c, 1, 53, 52
3, 18480, Note_on_c, 1, 60, 64
3, 18480, Note_on_c, 1, 53, 64
3, 18600, Note_off_c, 1, 53, 70
3, 18600, Note_off_c, 1, 60, 73
3, 18600, Note_on_c, 1, 60, 64
3, 18600, Note_on_c, 1, 53, 64
3, 18720, Note_off_c, 1, 53, 73
3, 18720, Note_off_c, 1, 60, 70
3, 18720, Note_on_c, 1, 58, 64
3, 18720, Note_on_c, 1, 53, 64
3, 18840, Note_off_c, 1, 53, 74
3, 18840, Note_on_c, 1, 53, 64
3, 18960, Note_off_c, 1, 53, 70
3, 18960, Note_off_c, 1, 58, 73
3, 18960, Note_on_c, 1, 53, 64
3, 19080, Note_off_c, 1, 53, 61
3, 19080, Note_on_c, 1, 61, 64
3, 19080, Note_on_c, 1, 53, 64
3, 19200, Note_off_c, 1, 53, 72
3, 19200, Note_off_c, 1, 61, 72
3, 19200, Note_on_c, 1, 60, 64
3, 19200, Note_on_c, 1, 53, 64
3, 19320, Note_off_c, 1, 53, 70
3, 19320, Note_off_c, 1, 60, 73
3, 19320, Note_on_c, 1, 60, 64
3, 19320, Note_on_c, 1, 53, 64
3, 19380, Note_off_c, 1, 60, 52
3, 19380, Note_on_c, 1, 61, 64
3, 19440, Note_off_c, 1, 61, 61
3, 19440, Note_off_c, 1, 53, 58
3, 19440, Note_on_c, 1, 63, 64
3, 19440, Note_on_c, 1, 53, 64
3, 19560, Note_off_c, 1, 53, 59
3, 19560, Note_off_c, 1, 63, 68
3, 19560, Note_on_c, 1, 63, 64
3, 19560, Note_on_c, 1, 53, 64
3, 19680, Note_off_c, 1, 53, 47
3, 19680, Note_off_c, 1, 63, 58
3, 19680, Note_on_c, 1, 61, 64
3, 19680, Note_on_c, 1, 53, 64
3, 19800, Note_off_c, 1, 53, 57
3, 19800, Note_off_c, 1, 61, 72
3, 19800, Note_on_c, 1, 61, 64
3, 19800, Note_on_c, 1, 53, 64
3, 19860, Note_off_c, 1, 61, 69
3, 19860, Note_on_c, 1, 60, 64
3, 19920, Note_off_c, 1, 60, 72
3, 19920, Note_off_c, 1, 53, 61
3, 19920, Note_on_c, 1, 58, 64
3, 19920, Note_on_c, 1, 53, 64
3, 20040, Note_off_c, 1, 53, 57
3, 20040, Note_off_c, 1, 58, 69
3, 20040, Note_on_c, 1, 58, 64
3, 20040, Note_on_c, 1, 53, 64
3, 20100, Note_off_c, 1, 58, 61
3, 20100, Note_on_c, 1, 56, 64
3, 20160, Note_off_c, 1, 56, 59
3, 20160, Note_off_c, 1, 53, 54
3, 20160, Note_on_c, 1, 54, 64
3, 20160, Note_on_c, 1, 53, 64
3, 20280, Note_off_c, 1, 53, 62
3, 20280, Note_off_c, 1, 54, 69
3, 20280, Note_on_c, 1, 54, 64
3, 20280, Note_on_c, 1, 51, 64
3, 20340, Note_off_c, 1, 51, 61
3, 20340, Note_off_c, 1, 54, 69
3, 20340, Note_on_c, 1, 53, 64
3, 20340, Note_on_c, 1, 49, 64
3, 20400, Note_off_c, 1, 49, 69
3, 20400, Note_off_c, 1, 53, 63
3, 20400, Note_on_c, 1, 54, 64
3, 20400, Note_on_c, 1, 51, 64
3, 20400, Note_on_c, 1, 48, 64
3, 20520, Note_off_c, 1, 48, 68
3, 20520, Note_off_c, 1, 51, 72
3, 20520, Note_off_c, 1, 54, 62
3, 20520, Note_on_c, 1, 54, 64
3, 20520, Note_on_c, 1, 48, 64
3, 20520, Note_on_c, 1, 51, 64
3, 20580, Note_off_c, 1, 51, 68
3, 20580, Note_off_c, 1, 48, 61
3, 20580, Note_on_c, 1, 49, 64
3, 20580, Note_on_c, 1, 46, 64
3, 20640, Note_off_c, 1, 46, 59
3, 20640, Note_off_c, 1, 49, 77
3, 20640, Note_off_c, 1, 54, 65
3, 20640, Note_on_c, 1, 54, 64
3, 20640, Note_on_c, 1, 51, 64
3, 20640, Note_on_c, 1, 48, 64
3, 20640, Note_on_c, 1, 45, 64
3, 20880, Note_off_c, 1, 45, 61
3, 20880, Note_off_c, 1, 48, 55
3, 20880, Note_off_c, 1, 51, 73
3, 20880, Note_off_c, 1, 54, 72
3, 21000, Note_on_c, 1, 65, 64
3, 21000, Note_on_c, 1, 57, 64
3, 21120, Note_off_c, 1, 57, 58
3, 21120, Note_off_c, 1, 65, 55
3, 21120, Note_on_c, 1, 65, 64
3, 21120, Note_on_c, 1, 58, 64
3, 21240, Note_off_c, 1, 58, 58
3, 21240, Note_off_c, 1, 65, 52
3, 21240, Note_on_c, 1, 58, 64
3, 21240, Note_on_c, 1, 54, 64
3, 21300, Note_off_c, 1, 54, 68
3, 21300, Note_off_c, 1, 58, 37
3, 21300, Note_on_c, 1, 66, 64
3, 21300, Note_on_c, 1, 51, 64
3, 21360, Note_off_c, 1, 51, 62
3, 21360, Note_off_c, 1, 66, 69
3, 21360, Note_on_c, 1, 53, 64
3, 21480, Note_on_c, 1, 41, 64
3, 21600, Note_off_c, 1, 41, 37
3, 21600, Note_on_c, 1, 46, 64
3, 21720, Note_off_c, 1, 46, 79
3, 21720, Note_off_c, 1, 53, 57
3, 21720, Note_on_c, 1, 53, 64
3, 21720, Note_on_c, 1, 46, 64
3, 21780, Note_off_c, 1, 53, 70
3, 21780, Note_on_c, 1, 51, 64
3, 21840, Note_off_c, 1, 51, 65
3, 21840, Note_off_c, 1, 46, 76
3, 21840, Note_on_c, 1, 50, 64
3, 21840, Note_on_c, 1, 46, 64
3, 21900, Note_off_c, 1, 50, 55
3, 21900, Note_on_c, 1, 48, 64
3, 21960, Note_off_c, 1, 48, 29
3, 21960, Note_off_c, 1, 46, 76
3, 21960, Note_on_c, 1, 51, 64
3, 21960, Note_on_c, 1, 46, 64
3, 22020, Note_off_c, 1, 51, 66
3, 22020, Note_on_c, 1, 50, 64
3, 22080, Note_off_c, 1, 50, 65
3, 22080, Note_off_c, 1, 46, 77
3, 22080, Note_on_c, 1, 50, 64
3, 22080, Note_on_c, 1, 46, 64
3, 22200, Note_off_c, 1, 46, 73
3, 22200, Note_off_c, 1, 50, 66
3, 22200, Note_on_c, 1, 51, 64
3, 22200, Note_on_c, 1, 46, 64
3, 22260, Note_off_c, 1, 51, 65
3, 22260, Note_on_c, 1, 53, 64
3, 22320, Note_off_c, 1, 53, 68
3, 22320, Note_off_c, 1, 46, 76
3, 22320, Note_on_c, 1, 54, 64
3, 22320, Note_on_c, 1, 46, 64
3, 22440, Note_off_c, 1, 46, 76
3, 22440, Note_off_c, 1, 54, 73
3, 22440, Note_on_c, 1, 54, 64
3, 22440, Note_on_c, 1, 46, 64
3, 22560, Note_off_c, 1, 46, 73
3, 22560, Note_off_c, 1, 54, 59
3, 22560, Note_on_c, 1, 53, 64
3, 22560, Note_on_c, 1, 46, 64
3, 23040, Note_off_c, 1, 46, 76
3, 23040, Note_off_c, 1, 53, 72
3, 23040, End_track
0, 0, End_of_file
