0, 0, Header, 1, 3, 240
1, 0, Start_track
1, 0, Time_signature, 12, 3, 36, 8
1, 0, Tempo, 588235
1, 25200, Tempo, 600000
1, 25320, Tempo, 652174
1, 25440, Tempo, 902490
1, 25560, Tempo, 750000
1, 25680, Tempo, 800000
1, 25800, Tempo, 882353
1, 25800, End_track
2, 0, Start_track
2, 0, Text_t, "RH"
2, 0, Note_on_c, 0, 77, 64
2, 60, Note_off_c, 0, 77, 1
2, 60, Note_on_c, 0, 72, 64
2, 120, Note_off_c, 0, 72, 54
2, 120, Note_on_c, 0, 69, 64
2, 180, Note_off_c, 0, 69, 50
2, 180, Note_on_c, 0, 67, 64
2, 240, Note_off_c, 0, 67, 33
2, 240, Note_on_c, 0, 69, 64
2, 300, Note_off_c, 0, 69, 49
2, 300, Note_on_c, 0, 72, 64
2, 360, Note_off_c, 0, 72, 79
2, 360, Note_on_c, 0, 65, 64
2, 420, Note_off_c, 0, 65, 1
2, 420, Note_on_c, 0, 69, 64
2, 480, Note_off_c, 0, 69, 55
2, 480, Note_on_c, 0, 72, 64
2, 540, Note_off_c, 0, 72, 68
2, 540, Note_on_c, 0, 75, 64
2, 600, Note_off_c, 0, 75, 47
2, 600, Note_on_c, 0, 74, 64
2, 660, Note_off_c, 0, 74, 61
2, 660, Note_on_c, 0, 72, 64
2, 720, Note_off_c, 0, 72, 77
2, 720, Note_on_c, 0, 74, 64
2, 780, Note_off_c, 0, 74, 58
2, 780, Note_on_c, 0, 70, 64
2, 840, Note_off_c, 0, 70, 77
2, 840, Note_on_c, 0, 65, 64
2, 900, Note_off_c, 0, 65, 66
2, 900, Note_on_c, 0, 64, 64
2, 960, Note_off_c, 0, 64, 51
2, 960, Note_on_c, 0, 65, 64
2, 1020, Note_off_c, 0, 65, 54
2, 1020, Note_on_c, 0, 70, 64
2, 1080, Note_off_c, 0, 70, 74
2, 1080, Note_on_c, 0, 62, 64
2, 1140, Note_off_c, 0, 62, 50
2, 1140, Note_on_c, 0, 65, 64
2, 1200, Note_off_c, 0, 65, 73
2, 1200, Note_on_c, 0, 69, 64
2, 1260, Note_off_c, 0, 69, 69
2, 1260, Note_on_c, 0, 72, 64
2, 1320, Note_off_c, 0, 72, 73
2, 1320, Note_on_c, 0, 70, 64
2, 1380, Note_off_c, 0, 70, 72
2, 1380, Note_on_c, 0, 69, 64
2, 1440, Note_off_c, 0, 69, 74
2, 1440, Note_on_c, 0, 70, 64
2, 1500, Note_off_c, 0, 70, 79
2, 1500, Note_on_c, 0, 67, 64
2, 1560, Note_off_c, 0, 67, 44
2, 1560, Note_on_c, 0, 64, 64
2, 1620, Note_off_c, 0, 64, 44
2, 1620, Note_on_c, 0, 62, 64
2, 1680, Note_off_c, 0, 62, 42
2, 1680, Note_on_c, 0, 64, 64
2, 1740, Note_off_c, 0, 64, 27
2, 1740, Note_on_c, 0, 67, 64
2, 1800, Note_off_c, 0, 67, 52
2, 1800, Note_on_c, 0, 60, 64
2, 1860, Note_off_c, 0, 60, 52
2, 1860, Note_on_c, 0, 64, 64
2, 1920, Note_off_c, 0, 64, 45
2, 1920, Note_on_c, 0, 67, 64
2, 1980, Note_off_c, 0, 67, 55
2, 1980, Note_on_c, 0, 70, 64
2, 2040, Note_off_c, 0, 70, 58
2, 2040, Note_on_c, 0, 69, 64
2, 2100, Note_off_c, 0, 69, 70
2, 2100, Note_on_c, 0, 67, 64
2, 2160, Note_off_c, 0, 67, 52
2, 2160, Note_on_c, 0, 69, 64
2, 2220, Note_off_c, 0, 69, 72
2, 2220, Note_on_c, 0, 67, 64
2, 2280, Note_off_c, 0, 67, 61
2, 2280, Note_on_c, 0, 65, 64
2, 2340, Note_off_c, 0, 65, 68
2, 2340, Note_on_c, 0, 64, 64
2, 2400, Note_off_c, 0, 64, 53
2, 2400, Note_on_c, 0, 65, 64
2, 2460, Note_off_c, 0, 65, 63
2, 2460, Note_on_c, 0, 69, 64
2, 2520, Note_off_c, 0, 69, 72
2, 2520, Note_on_c, 0, 60, 64
2, 2580, Note_off_c, 0, 60, 52
2, 2580, Note_on_c, 0, 64, 64
2, 2640, Note_off_c, 0, 64, 55
2, 2640, Note_on_c, 0, 65, 64
2, 2700, Note_off_c, 0, 65, 63
2, 2700, Note_on_c, 0, 69, 64
2, 2760, Note_off_c, 0, 69, 72
2, 2760, Note_on_c, 0, 67, 64
2, 2820, Note_off_c, 0, 67, 58
2, 2820, Note_on_c, 0, 65, 64
2, 2880, Note_off_c, 0, 65, 72
2, 2880, Note_on_c, 0, 69, 72
2, 2910, Note_on_c, 0, 71, 64
2, 2913, Note_off_c, 0, 69, 49
2, 2940, Note_on_c, 0, 72, 72
2, 2943, Note_off_c, 0, 71, 63
2, 2970, Note_on_c, 0, 71, 40
2, 2973, Note_off_c, 0, 72, 68
2, 3000, Note_on_c, 0, 72, 40
2, 3003, Note_off_c, 0, 71, 74
2, 3030, Note_on_c, 0, 71, 41
2, 3033, Note_off_c, 0, 72, 76
2, 3060, Note_on_c, 0, 72, 42
2, 3063, Note_off_c, 0, 71, 74
2, 3090, Note_on_c, 0, 71, 42
2, 3093, Note_off_c, 0, 72, 76
2, 3120, Note_on_c, 0, 72, 43
2, 3123, Note_off_c, 0, 71, 70
2, 3150, Note_on_c, 0, 71, 44
2, 3153, Note_off_c, 0, 72, 68
2, 3180, Note_on_c, 0, 72, 44
2, 3183, Note_off_c, 0, 71, 68
2, 3210, Note_on_c, 0, 71, 45
2, 3213, Note_off_c, 0, 72, 69
2, 3240, Note_on_c, 0, 72, 46
2, 3243, Note_off_c, 0, 71, 68
2, 3270, Note_on_c, 0, 71, 46
2, 3273, Note_off_c, 0, 72, 70
2, 3300, Note_on_c, 0, 72, 47
2, 3303, Note_off_c, 0, 71, 72
2, 3330, Note_on_c, 0, 71, 48
2, 3333, Note_off_c, 0, 72, 70
2, 3360, Note_on_c, 0, 72, 48
2, 3363, Note_off_c, 0, 71, 73
2, 3390, Note_on_c, 0, 71, 49
2, 3393, Note_off_c, 0, 72, 53
2, 3420, Note_on_c, 0, 72, 50
2, 3423, Note_off_c, 0, 71, 68
2, 3450, Note_on_c, 0, 71, 50
2, 3453, Note_off_c, 0, 72, 63
2, 3480, Note_on_c, 0, 72, 51
2, 3483, Note_off_c, 0, 71, 66
2, 3510, Note_on_c, 0, 71, 70
2, 3513, Note_off_c, 0, 72, 66
2, 3540, Note_on_c, 0, 69, 66
2, 3543, Note_off_c, 0, 71, 66
2, 3570, Note_on_c, 0, 71, 74
2, 3573, Note_off_c, 0, 69, 50
2, 3600, Note_off_c, 0, 71, 63
2, 3600, Note_on_c, 0, 72, 64
2, 3660, Note_off_c, 0, 72, 58
2, 3660, Note_on_c, 0, 67, 64
2, 3720, Note_off_c, 0, 67, 47
2, 3720, Note_on_c, 0, 64, 64
2, 3780, Note_off_c, 0, 64, 42
2, 3780, Note_on_c, 0, 62, 64
2, 3840, Note_off_c, 0, 62, 49
2, 3840, Note_on_c, 0, 64, 64
2, 3900, Note_off_c, 0, 64, 27
2, 3900, Note_on_c, 0, 67, 64
2, 3960, Note_off_c, 0, 67, 50
2, 3960, Note_on_c, 0, 60, 64
2, 4020, Note_off_c, 0, 60, 47
2, 4020, Note_on_c, 0, 64, 64
2, 4080, Note_off_c, 0, 64, 43
2, 4080, Note_on_c, 0, 67, 64
2, 4140, Note_off_c, 0, 67, 51
2, 4140, Note_on_c, 0, 70, 64
2, 4200, Note_off_c, 0, 70, 69
2, 4200, Note_on_c, 0, 69, 64
2, 4260, Note_off_c, 0, 69, 72
2, 4260, Note_on_c, 0, 67, 64
2, 4320, Note_off_c, 0, 67, 54
2, 4320, Note_on_c, 0, 74, 72
2, 4350, Note_on_c, 0, 73, 40
2, 4353, Note_off_c, 0, 74, 68
2, 4380, Note_on_c, 0, 71, 64
2, 4383, Note_off_c, 0, 73, 52
2, 4410, Note_on_c, 0, 73, 40
2, 4413, Note_off_c, 0, 71, 65
2, 4440, Note_on_c, 0, 74, 41
2, 4443, Note_off_c, 0, 73, 58
2, 4470, Note_on_c, 0, 73, 42
2, 4473, Note_off_c, 0, 74, 65
2, 4500, Note_on_c, 0, 74, 42
2, 4503, Note_off_c, 0, 73, 65
2, 4530, Note_on_c, 0, 73, 43
2, 4533, Note_off_c, 0, 74, 68
2, 4560, Note_on_c, 0, 74, 43
2, 4563, Note_off_c, 0, 73, 69
2, 4590, Note_on_c, 0, 73, 44
2, 4593, Note_off_c, 0, 74, 57
2, 4620, Note_on_c, 0, 74, 45
2, 4623, Note_off_c, 0, 73, 63
2, 4650, Note_on_c, 0, 73, 45
2, 4653, Note_off_c, 0, 74, 61
2, 4680, Note_on_c, 0, 74, 46
2, 4683, Note_off_c, 0, 73, 59
2, 4710, Note_on_c, 0, 73, 47
2, 4713, Note_off_c, 0, 74, 65
2, 4740, Note_on_c, 0, 74, 47
2, 4743, Note_off_c, 0, 73, 68
2, 4770, Note_on_c, 0, 73, 48
2, 4773, Note_off_c, 0, 74, 58
2, 4800, Note_on_c, 0, 74, 49
2, 4803, Note_off_c, 0, 73, 65
2, 4830, Note_on_c, 0, 73, 49
2, 4833, Note_off_c, 0, 74, 61
2, 4860, Note_on_c, 0, 74, 50
2, 4863, Note_off_c, 0, 73, 66
2, 4890, Note_on_c, 0, 73, 51
2, 4893, Note_off_c, 0, 74, 58
2, 4920, Note_on_c, 0, 74, 51
2, 4923, Note_off_c, 0, 73, 61
2, 4950, Note_on_c, 0, 73, 40
2, 4953, Note_off_c, 0, 74, 58
2, 4980, Note_on_c, 0, 71, 76
2, 4983, Note_off_c, 0, 73, 62
2, 5010, Note_on_c, 0, 73, 70
2, 5013, Note_off_c, 0, 71, 66
2, 5040, Note_off_c, 0, 73, 51
2, 5040, Note_on_c, 0, 74, 64
2, 5100, Note_off_c, 0, 74, 54
2, 5100, Note_on_c, 0, 69, 64
2, 5160, Note_off_c, 0, 69, 62
2, 5160, Note_on_c, 0, 65, 64
2, 5220, Note_off_c, 0, 65, 52
2, 5220, Note_on_c, 0, 64, 64
2, 5280, Note_off_c, 0, 64, 52
2, 5280, Note_on_c, 0, 65, 64
2, 5340, Note_off_c, 0, 65, 54
2, 5340, Note_on_c, 0, 69, 64
2, 5400, Note_off_c, 0, 69, 72
2, 5400, Note_on_c, 0, 62, 64
2, 5460, Note_off_c, 0, 62, 46
2, 5460, Note_on_c, 0, 65, 64
2, 5520, Note_off_c, 0, 65, 62
2, 5520, Note_on_c, 0, 69, 64
2, 5580, Note_off_c, 0, 69, 68
2, 5580, Note_on_c, 0, 72, 64
2, 5640, Note_off_c, 0, 72, 65
2, 5640, Note_on_c, 0, 70, 64
2, 5700, Note_off_c, 0, 70, 62
2, 5700, Note_on_c, 0, 69, 64
2, 5760, Note_off_c, 0, 69, 59
2, 5760, Note_on_c, 0, 70, 64
2, 5820, Note_off_c, 0, 70, 73
2, 5820, Note_on_c, 0, 67, 64
2, 5880, Note_off_c, 0, 67, 43
2, 5880, Note_on_c, 0, 64, 64
2, 5940, Note_off_c, 0, 64, 44
2, 5940, Note_on_c, 0, 62, 64
2, 6000, Note_off_c, 0, 62, 49
2, 6000, Note_on_c, 0, 64, 64
2, 6060, Note_off_c, 0, 64, 40
2, 6060, Note_on_c, 0, 67, 64
2, 6120, Note_off_c, 0, 67, 61
2, 6120, Note_on_c, 0, 60, 64
2, 6180, Note_off_c, 0, 60, 51
2, 6180, Note_on_c, 0, 64, 64
2, 6240, Note_off_c, 0, 64, 49
2, 6240, Note_on_c, 0, 67, 64
2, 6300, Note_off_c, 0, 67, 57
2, 6300, Note_on_c, 0, 70, 64
2, 6360, Note_off_c, 0, 70, 76
2, 6360, Note_on_c, 0, 69, 64
2, 6420, Note_off_c, 0, 69, 70
2, 6420, Note_on_c, 0, 67, 64
2, 6480, Note_off_c, 0, 67, 52
2, 6480, Note_on_c, 0, 69, 64
2, 6540, Note_off_c, 0, 69, 65
2, 6540, Note_on_c, 0, 65, 64
2, 6600, Note_off_c, 0, 65, 57
2, 6600, Note_on_c, 0, 62, 64
2, 6660, Note_off_c, 0, 62, 43
2, 6660, Note_on_c, 0, 61, 64
2, 6720, Note_off_c, 0, 61, 59
2, 6720, Note_on_c, 0, 62, 64
2, 6780, Note_off_c, 0, 62, 38
2, 6780, Note_on_c, 0, 65, 64
2, 6840, Note_off_c, 0, 65, 76
2, 6840, Note_on_c, 0, 58, 64
2, 6900, Note_off_c, 0, 58, 46
2, 6900, Note_on_c, 0, 62, 64
2, 6960, Note_off_c, 0, 62, 46
2, 6960, Note_on_c, 0, 65, 64
2, 7020, Note_off_c, 0, 65, 70
2, 7020, Note_on_c, 0, 69, 64
2, 7080, Note_off_c, 0, 69, 66
2, 7080, Note_on_c, 0, 67, 64
2, 7140, Note_off_c, 0, 67, 46
2, 7140, Note_on_c, 0, 65, 64
2, 7200, Note_off_c, 0, 65, 73
2, 7200, Note_on_c, 0, 67, 64
2, 7260, Note_off_c, 0, 67, 38
2, 7260, Note_on_c, 0, 64, 64
2, 7320, Note_off_c, 0, 64, 52
2, 7320, Note_on_c, 0, 61, 64
2, 7380, Note_off_c, 0, 61, 52
2, 7380, Note_on_c, 0, 59, 64
2, 7440, Note_off_c, 0, 59, 37
2, 7440, Note_on_c, 0, 61, 64
2, 7500, Note_off_c, 0, 61, 55
2, 7500, Note_on_c, 0, 64, 64
2, 7560, Note_off_c, 0, 64, 52
2, 7560, Note_on_c, 0, 57, 64
2, 7620, Note_off_c, 0, 57, 42
2, 7620, Note_on_c, 0, 61, 64
2, 7680, Note_off_c, 0, 61, 58
2, 7680, Note_on_c, 0, 64, 64
2, 7740, Note_off_c, 0, 64, 48
2, 7740, Note_on_c, 0, 67, 64
2, 7800, Note_off_c, 0, 67, 49
2, 7800, Note_on_c, 0, 65, 64
2, 7860, Note_off_c, 0, 65, 57
2, 7860, Note_on_c, 0, 64, 64
2, 7920, Note_off_c, 0, 64, 49
2, 7920, Note_on_c, 0, 65, 64
2, 8040, Note_off_c, 0, 65, 43
2, 8040, Note_on_c, 0, 69, 64
2, 8160, Note_off_c, 0, 69, 58
2, 8160, Note_on_c, 0, 74, 64
2, 8280, Note_off_c, 0, 74, 59
2, 8280, Note_on_c, 0, 69, 64
2, 8400, Note_off_c, 0, 69, 65
2, 8400, Note_on_c, 0, 65, 64
2, 8520, Note_off_c, 0, 65, 52
2, 8520, Note_on_c, 0, 62, 64
2, 8640, Note_off_c, 0, 62, 34
2, 8640, Note_on_c, 0, 67, 64
2, 8760, Note_off_c, 0, 67, 43
2, 8760, Note_on_c, 0, 70, 64
2, 8880, Note_off_c, 0, 70, 66
2, 8880, Note_on_c, 0, 74, 64
2, 9000, Note_off_c, 0, 74, 65
2, 9000, Note_on_c, 0, 70, 64
2, 9120, Note_off_c, 0, 70, 66
2, 9120, Note_on_c, 0, 67, 64
2, 9240, Note_off_c, 0, 67, 43
2, 9240, Note_on_c, 0, 62, 64
2, 9360, Note_off_c, 0, 62, 58
2, 9360, Note_on_c, 0, 67, 64
2, 9480, Note_off_c, 0, 67, 42
2, 9480, Note_on_c, 0, 73, 64
2, 9600, Note_off_c, 0, 73, 74
2, 9600, Note_on_c, 0, 76, 64
2, 9720, Note_off_c, 0, 76, 49
2, 9720, Note_on_c, 0, 73, 64
2, 9840, Note_off_c, 0, 73, 70
2, 9840, Note_on_c, 0, 67, 64
2, 9960, Note_off_c, 0, 67, 59
2, 9960, Note_on_c, 0, 64, 64
2, 10080, Note_off_c, 0, 64, 36
2, 10080, Note_on_c, 0, 74, 64
2, 10140, Note_off_c, 0, 74, 68
2, 10140, Note_on_c, 0, 69, 64
2, 10200, Note_off_c, 0, 69, 69
2, 10200, Note_on_c, 0, 65, 64
2, 10260, Note_off_c, 0, 65, 63
2, 10260, Note_on_c, 0, 64, 64
2, 10320, Note_off_c, 0, 64, 52
2, 10320, Note_on_c, 0, 65, 64
2, 10380, Note_off_c, 0, 65, 70
2, 10380, Note_on_c, 0, 69, 64
2, 10440, Note_off_c, 0, 69, 77
2, 10440, Note_on_c, 0, 62, 64
2, 10500, Note_off_c, 0, 62, 51
2, 10500, Note_on_c, 0, 65, 64
2, 10560, Note_off_c, 0, 65, 66
2, 10560, Note_on_c, 0, 69, 64
2, 10620, Note_off_c, 0, 69, 68
2, 10620, Note_on_c, 0, 72, 64
2, 10680, Note_off_c, 0, 72, 63
2, 10680, Note_on_c, 0, 70, 64
2, 10740, Note_off_c, 0, 70, 74
2, 10740, Note_on_c, 0, 69, 64
2, 10800, Note_off_c, 0, 69, 82
2, 10800, Note_on_c, 0, 77, 64
2, 10860, Note_off_c, 0, 77, 66
2, 10860, Note_on_c, 0, 74, 64
2, 10920, Note_off_c, 0, 74, 72
2, 10920, Note_on_c, 0, 70, 64
2, 10980, Note_off_c, 0, 70, 74
2, 10980, Note_on_c, 0, 69, 64
2, 11040, Note_off_c, 0, 69, 69
2, 11040, Note_on_c, 0, 70, 64
2, 11100, Note_off_c, 0, 70, 70
2, 11100, Note_on_c, 0, 74, 64
2, 11160, Note_off_c, 0, 74, 73
2, 11160, Note_on_c, 0, 65, 64
2, 11220, Note_off_c, 0, 65, 58
2, 11220, Note_on_c, 0, 70, 64
2, 11280, Note_off_c, 0, 70, 62
2, 11280, Note_on_c, 0, 74, 64
2, 11340, Note_off_c, 0, 74, 70
2, 11340, Note_on_c, 0, 77, 64
2, 11400, Note_off_c, 0, 77, 50
2, 11400, Note_on_c, 0, 76, 64
2, 11460, Note_off_c, 0, 76, 52
2, 11460, Note_on_c, 0, 74, 64
2, 11520, Note_off_c, 0, 74, 73
2, 11520, Note_on_c, 0, 81, 72
2, 11550, Note_off_c, 0, 81, 57
2, 11550, Note_on_c, 0, 80, 64
2, 11580, Note_on_c, 0, 78, 64
2, 11583, Note_off_c, 0, 80, 57
2, 11610, Note_on_c, 0, 80, 40
2, 11613, Note_off_c, 0, 78, 54
2, 11640, Note_on_c, 0, 81, 41
2, 11643, Note_off_c, 0, 80, 62
2, 11670, Note_on_c, 0, 80, 42
2, 11673, Note_off_c, 0, 81, 57
2, 11700, Note_on_c, 0, 81, 42
2, 11703, Note_off_c, 0, 80, 76
2, 11730, Note_on_c, 0, 80, 43
2, 11733, Note_off_c, 0, 81, 59
2, 11760, Note_on_c, 0, 81, 43
2, 11763, Note_off_c, 0, 80, 70
2, 11790, Note_on_c, 0, 80, 44
2, 11793, Note_off_c, 0, 81, 55
2, 11820, Note_on_c, 0, 81, 45
2, 11823, Note_off_c, 0, 80, 69
2, 11850, Note_on_c, 0, 80, 45
2, 11853, Note_off_c, 0, 81, 55
2, 11880, Note_on_c, 0, 81, 46
2, 11883, Note_off_c, 0, 80, 70
2, 11910, Note_on_c, 0, 80, 46
2, 11913, Note_off_c, 0, 81, 50
2, 11940, Note_on_c, 0, 81, 47
2, 11943, Note_off_c, 0, 80, 72
2, 11970, Note_on_c, 0, 80, 48
2, 11973, Note_off_c, 0, 81, 36
2, 12000, Note_on_c, 0, 81, 48
2, 12003, Note_off_c, 0, 80, 62
2, 12030, Note_on_c, 0, 80, 49
2, 12033, Note_off_c, 0, 81, 49
2, 12060, Note_on_c, 0, 81, 49
2, 12063, Note_off_c, 0, 80, 54
2, 12090, Note_on_c, 0, 80, 50
2, 12093, Note_off_c, 0, 81, 53
2, 12120, Note_on_c, 0, 81, 51
2, 12123, Note_off_c, 0, 80, 53
2, 12150, Note_on_c, 0, 80, 51
2, 12153, Note_off_c, 0, 81, 43
2, 12180, Note_on_c, 0, 78, 68
2, 12183, Note_off_c, 0, 80, 21
2, 12210, Note_on_c, 0, 80, 72
2, 12213, Note_off_c, 0, 78, 57
2, 12240, Note_off_c, 0, 80, 59
2, 12240, Note_on_c, 0, 81, 64
2, 12300, Note_off_c, 0, 81, 61
2, 12300, Note_on_c, 0, 76, 64
2, 12360, Note_off_c, 0, 76, 46
2, 12360, Note_on_c, 0, 73, 64
2, 12420, Note_off_c, 0, 73, 53
2, 12420, Note_on_c, 0, 71, 64
2, 12480, Note_off_c, 0, 71, 65
2, 12480, Note_on_c, 0, 73, 64
2, 12540, Note_off_c, 0, 73, 57
2, 12540, Note_on_c, 0, 76, 64
2, 12600, Note_off_c, 0, 76, 58
2, 12600, Note_on_c, 0, 69, 64
2, 12660, Note_off_c, 0, 69, 54
2, 12660, Note_on_c, 0, 73, 64
2, 12720, Note_off_c, 0, 73, 57
2, 12720, Note_on_c, 0, 76, 64
2, 12780, Note_off_c, 0, 76, 55
2, 12780, Note_on_c, 0, 79, 64
2, 12840, Note_off_c, 0, 79, 62
2, 12840, Note_on_c, 0, 78, 64
2, 12900, Note_off_c, 0, 78, 72
2, 12900, Note_on_c, 0, 76, 64
2, 12940, Note_off_c, 0, 76, 49
2, 12960, Note_on_c, 0, 76, 72
2, 12990, Note_off_c, 0, 76, 57
2, 12990, Note_on_c, 0, 78, 64
2, 13020, Note_on_c, 0, 79, 40
2, 13023, Note_off_c, 0, 78, 57
2, 13050, Note_on_c, 0, 78, 40
2, 13053, Note_off_c, 0, 79, 54
2, 13080, Note_on_c, 0, 79, 41
2, 13083, Note_off_c, 0, 78, 62
2, 13110, Note_on_c, 0, 78, 42
2, 13113, Note_off_c, 0, 79, 57
2, 13140, Note_on_c, 0, 79, 42
2, 13143, Note_off_c, 0, 78, 76
2, 13170, Note_on_c, 0, 78, 43
2, 13173, Note_off_c, 0, 79, 59
2, 13200, Note_on_c, 0, 79, 43
2, 13203, Note_off_c, 0, 78, 70
2, 13230, Note_on_c, 0, 78, 44
2, 13233, Note_off_c, 0, 79, 55
2, 13260, Note_on_c, 0, 79, 45
2, 13263, Note_off_c, 0, 78, 69
2, 13290, Note_on_c, 0, 78, 45
2, 13293, Note_off_c, 0, 79, 55
2, 13320, Note_on_c, 0, 79, 46
2, 13323, Note_off_c, 0, 78, 70
2, 13350, Note_on_c, 0, 78, 46
2, 13353, Note_off_c, 0, 79, 50
2, 13380, Note_on_c, 0, 79, 47
2, 13383, Note_off_c, 0, 78, 72
2, 13410, Note_on_c, 0, 78, 48
2, 13413, Note_off_c, 0, 79, 36
2, 13440, Note_on_c, 0, 79, 48
2, 13443, Note_off_c, 0, 78, 62
2, 13470, Note_on_c, 0, 78, 49
2, 13473, Note_off_c, 0, 79, 49
2, 13500, Note_on_c, 0, 79, 49
2, 13503, Note_off_c, 0, 78, 54
2, 13530, Note_on_c, 0, 78, 50
2, 13533, Note_off_c, 0, 79, 53
2, 13560, Note_on_c, 0, 79, 51
2, 13563, Note_off_c, 0, 78, 53
2, 13590, Note_on_c, 0, 78, 51
2, 13593, Note_off_c, 0, 79, 43
2, 13620, Note_on_c, 0, 76, 68
2, 13623, Note_off_c, 0, 78, 21
2, 13650, Note_on_c, 0, 78, 72
2, 13653, Note_off_c, 0, 76, 57
2, 13680, Note_off_c, 0, 78, 59
2, 13680, Note_on_c, 0, 79, 64
2, 13740, Note_off_c, 0, 79, 36
2, 13740, Note_on_c, 0, 74, 64
2, 13800, Note_off_c, 0, 74, 61
2, 13800, Note_on_c, 0, 71, 64
2, 13860, Note_off_c, 0, 71, 68
2, 13860, Note_on_c, 0, 69, 64
2, 13920, Note_off_c, 0, 69, 63
2, 13920, Note_on_c, 0, 71, 64
2, 13980, Note_off_c, 0, 71, 72
2, 13980, Note_on_c, 0, 74, 64
2, 14040, Note_off_c, 0, 74, 73
2, 14040, Note_on_c, 0, 67, 64
2, 14100, Note_off_c, 0, 67, 37
2, 14100, Note_on_c, 0, 71, 64
2, 14160, Note_off_c, 0, 71, 69
2, 14160, Note_on_c, 0, 74, 64
2, 14220, Note_off_c, 0, 74, 73
2, 14220, Note_on_c, 0, 77, 64
2, 14280, Note_off_c, 0, 77, 52
2, 14280, Note_on_c, 0, 75, 64
2, 14340, Note_off_c, 0, 75, 59
2, 14340, Note_on_c, 0, 74, 64
2, 14400, Note_off_c, 0, 74, 65
2, 14400, Note_on_c, 0, 75, 64
2, 14460, Note_off_c, 0, 75, 53
2, 14460, Note_on_c, 0, 72, 64
2, 14520, Note_off_c, 0, 72, 59
2, 14520, Note_on_c, 0, 69, 64
2, 14580, Note_off_c, 0, 69, 55
2, 14580, Note_on_c, 0, 67, 64
2, 14640, Note_off_c, 0, 67, 45
2, 14640, Note_on_c, 0, 69, 64
2, 14700, Note_off_c, 0, 69, 52
2, 14700, Note_on_c, 0, 72, 64
2, 14760, Note_off_c, 0, 72, 62
2, 14760, Note_on_c, 0, 65, 64
2, 14820, Note_off_c, 0, 65, 40
2, 14820, Note_on_c, 0, 69, 64
2, 14880, Note_off_c, 0, 69, 52
2, 14880, Note_on_c, 0, 72, 64
2, 14940, Note_off_c, 0, 72, 77
2, 14940, Note_on_c, 0, 75, 64
2, 15000, Note_off_c, 0, 75, 61
2, 15000, Note_on_c, 0, 74, 64
2, 15060, Note_off_c, 0, 74, 70
2, 15060, Note_on_c, 0, 72, 64
2, 15120, Note_off_c, 0, 72, 73
2, 15120, Note_on_c, 0, 74, 64
2, 15180, Note_off_c, 0, 74, 68
2, 15180, Note_on_c, 0, 70, 64
2, 15240, Note_off_c, 0, 70, 66
2, 15240, Note_on_c, 0, 67, 64
2, 15300, Note_off_c, 0, 67, 38
2, 15300, Note_on_c, 0, 66, 64
2, 15360, Note_off_c, 0, 66, 25
2, 15360, Note_on_c, 0, 67, 64
2, 15420, Note_off_c, 0, 67, 48
2, 15420, Note_on_c, 0, 70, 64
2, 15480, Note_off_c, 0, 70, 72
2, 15480, Note_on_c, 0, 63, 64
2, 15540, Note_off_c, 0, 63, 25
2, 15540, Note_on_c, 0, 67, 64
2, 15600, Note_off_c, 0, 67, 52
2, 15600, Note_on_c, 0, 70, 64
2, 15660, Note_off_c, 0, 70, 73
2, 15660, Note_on_c, 0, 74, 64
2, 15720, Note_off_c, 0, 74, 69
2, 15720, Note_on_c, 0, 72, 64
2, 15780, Note_off_c, 0, 72, 72
2, 15780, Note_on_c, 0, 70, 64
2, 15840, Note_off_c, 0, 70, 69
2, 15840, Note_on_c, 0, 72, 64
2, 15900, Note_off_c, 0, 72, 62
2, 15900, Note_on_c, 0, 69, 64
2, 15960, Note_off_c, 0, 69, 72
2, 15960, Note_on_c, 0, 66, 64
2, 16020, Note_off_c, 0, 66, 69
2, 16020, Note_on_c, 0, 64, 64
2, 16080, Note_off_c, 0, 64, 38
2, 16080, Note_on_c, 0, 66, 64
2, 16140, Note_off_c, 0, 66, 68
2, 16140, Note_on_c, 0, 69, 64
2, 16200, Note_off_c, 0, 69, 66
2, 16200, Note_on_c, 0, 62, 64
2, 16260, Note_off_c, 0, 62, 43
2, 16260, Note_on_c, 0, 66, 64
2, 16320, Note_off_c, 0, 66, 68
2, 16320, Note_on_c, 0, 69, 64
2, 16380, Note_off_c, 0, 69, 72
2, 16380, Note_on_c, 0, 72, 64
2, 16440, Note_off_c, 0, 72, 66
2, 16440, Note_on_c, 0, 70, 64
2, 16500, Note_off_c, 0, 70, 62
2, 16500, Note_on_c, 0, 69, 64
2, 16540, Note_off_c, 0, 69, 51
2, 16560, Note_on_c, 0, 69, 74
2, 16590, Note_off_c, 0, 69, 69
2, 16590, Note_on_c, 0, 70, 65
2, 16620, Note_off_c, 0, 70, 55
2, 16620, Note_on_c, 0, 72, 72
2, 16650, Note_off_c, 0, 72, 66
2, 16650, Note_on_c, 0, 70, 54
2, 16680, Note_off_c, 0, 70, 58
2, 16680, Note_on_c, 0, 72, 40
2, 16710, Note_on_c, 0, 70, 40
2, 16713, Note_off_c, 0, 72, 57
2, 16740, Note_on_c, 0, 72, 40
2, 16743, Note_off_c, 0, 70, 61
2, 16770, Note_on_c, 0, 70, 41
2, 16773, Note_off_c, 0, 72, 72
2, 16800, Note_on_c, 0, 72, 41
2, 16803, Note_off_c, 0, 70, 68
2, 16830, Note_on_c, 0, 70, 41
2, 16833, Note_off_c, 0, 72, 72
2, 16860, Note_on_c, 0, 72, 41
2, 16863, Note_off_c, 0, 70, 59
2, 16890, Note_on_c, 0, 70, 42
2, 16893, Note_off_c, 0, 72, 63
2, 16920, Note_on_c, 0, 72, 42
2, 16923, Note_off_c, 0, 70, 53
2, 16950, Note_on_c, 0, 70, 42
2, 16953, Note_off_c, 0, 72, 52
2, 16980, Note_on_c, 0, 72, 43
2, 16983, Note_off_c, 0, 70, 55
2, 17010, Note_on_c, 0, 70, 43
2, 17013, Note_off_c, 0, 72, 74
2, 17040, Note_on_c, 0, 72, 43
2, 17043, Note_off_c, 0, 70, 62
2, 17070, Note_on_c, 0, 70, 44
2, 17073, Note_off_c, 0, 72, 69
2, 17100, Note_on_c, 0, 72, 44
2, 17103, Note_off_c, 0, 70, 66
2, 17130, Note_on_c, 0, 70, 44
2, 17133, Note_off_c, 0, 72, 55
2, 17160, Note_on_c, 0, 72, 44
2, 17163, Note_off_c, 0, 70, 66
2, 17190, Note_on_c, 0, 70, 45
2, 17193, Note_off_c, 0, 72, 73
2, 17220, Note_on_c, 0, 72, 45
2, 17223, Note_off_c, 0, 70, 66
2, 17250, Note_on_c, 0, 70, 45
2, 17253, Note_off_c, 0, 72, 68
2, 17280, Note_on_c, 0, 64, 70
2, 17280, Note_on_c, 0, 72, 46
2, 17283, Note_off_c, 0, 70, 68
2, 17310, Note_on_c, 0, 70, 46
2, 17313, Note_off_c, 0, 72, 68
2, 17340, Note_on_c, 0, 72, 46
2, 17343, Note_off_c, 0, 70, 69
2, 17370, Note_on_c, 0, 70, 46
2, 17373, Note_off_c, 0, 72, 79
2, 17400, Note_on_c, 0, 72, 47
2, 17403, Note_off_c, 0, 70, 69
2, 17430, Note_on_c, 0, 70, 47
2, 17433, Note_off_c, 0, 72, 68
2, 17460, Note_on_c, 0, 72, 47
2, 17463, Note_off_c, 0, 70, 70
2, 17490, Note_on_c, 0, 70, 48
2, 17493, Note_off_c, 0, 72, 73
2, 17520, Note_on_c, 0, 72, 48
2, 17523, Note_off_c, 0, 70, 72
2, 17550, Note_on_c, 0, 70, 48
2, 17553, Note_off_c, 0, 72, 72
2, 17580, Note_on_c, 0, 72, 49
2, 17583, Note_off_c, 0, 70, 72
2, 17610, Note_on_c, 0, 70, 49
2, 17613, Note_off_c, 0, 72, 63
2, 17640, Note_on_c, 0, 72, 49
2, 17643, Note_off_c, 0, 70, 72
2, 17670, Note_on_c, 0, 70, 49
2, 17673, Note_off_c, 0, 72, 73
2, 17700, Note_on_c, 0, 72, 50
2, 17703, Note_off_c, 0, 70, 66
2, 17730, Note_on_c, 0, 70, 50
2, 17733, Note_off_c, 0, 72, 65
2, 17760, Note_on_c, 0, 72, 50
2, 17763, Note_off_c, 0, 70, 66
2, 17790, Note_on_c, 0, 70, 51
2, 17793, Note_off_c, 0, 72, 59
2, 17820, Note_on_c, 0, 72, 51
2, 17823, Note_off_c, 0, 70, 69
2, 17850, Note_on_c, 0, 70, 51
2, 17853, Note_off_c, 0, 72, 68
2, 17880, Note_on_c, 0, 72, 60
2, 17883, Note_off_c, 0, 70, 53
2, 17910, Note_on_c, 0, 70, 63
2, 17913, Note_off_c, 0, 72, 54
2, 17940, Note_off_c, 0, 70, 48
2, 17940, Note_on_c, 0, 72, 70
2, 17970, Note_off_c, 0, 72, 43
2, 17970, Note_on_c, 0, 70, 64
2, 18000, Note_off_c, 0, 70, 48
2, 18000, Note_off_c, 0, 64, 65
2, 18000, Note_on_c, 0, 69, 72
2, 18000, Note_on_c, 0, 65, 72
2, 18030, Note_off_c, 0, 65, 1
2, 18030, Note_on_c, 0, 63, 68
2, 18060, Note_off_c, 0, 63, 61
2, 18060, Note_on_c, 0, 62, 68
2, 18090, Note_off_c, 0, 62, 57
2, 18090, Note_on_c, 0, 63, 40
2, 18120, Note_on_c, 0, 65, 41
2, 18123, Note_off_c, 0, 63, 51
2, 18150, Note_on_c, 0, 63, 41
2, 18153, Note_off_c, 0, 65, 57
2, 18180, Note_on_c, 0, 65, 42
2, 18183, Note_off_c, 0, 63, 66
2, 18210, Note_on_c, 0, 63, 43
2, 18213, Note_off_c, 0, 65, 69
2, 18240, Note_on_c, 0, 65, 43
2, 18243, Note_off_c, 0, 63, 69
2, 18270, Note_on_c, 0, 63, 44
2, 18273, Note_off_c, 0, 65, 76
2, 18300, Note_on_c, 0, 65, 44
2, 18303, Note_off_c, 0, 63, 68
2, 18330, Note_on_c, 0, 63, 45
2, 18333, Note_off_c, 0, 65, 77
2, 18360, Note_on_c, 0, 65, 46
2, 18363, Note_off_c, 0, 63, 68
2, 18390, Note_on_c, 0, 63, 46
2, 18393, Note_off_c, 0, 65, 79
2, 18420, Note_on_c, 0, 65, 47
2, 18423, Note_off_c, 0, 63, 66
2, 18450, Note_on_c, 0, 63, 48
2, 18453, Note_off_c, 0, 65, 73
2, 18480, Note_on_c, 0, 65, 48
2, 18483, Note_off_c, 0, 63, 66
2, 18510, Note_on_c, 0, 63, 49
2, 18513, Note_off_c, 0, 65, 72
2, 18540, Note_on_c, 0, 65, 49
2, 18543, Note_off_c, 0, 63, 65
2, 18570, Note_on_c, 0, 63, 50
2, 18573, Note_off_c, 0, 65, 66
2, 18600, Note_on_c, 0, 65, 51
2, 18603, Note_off_c, 0, 63, 66
2, 18630, Note_on_c, 0, 63, 51
2, 18633, Note_off_c, 0, 65, 74
2, 18660, Note_on_c, 0, 65, 69
2, 18663, Note_off_c, 0, 63, 62
2, 18690, Note_off_c, 0, 65, 73
2, 18690, Note_on_c, 0, 63, 64
2, 18720, Note_off_c, 0, 63, 57
2, 18720, Note_on_c, 0, 62, 62
2, 18770, Note_off_c, 0, 69, 72
2, 18783, Note_on_c, 0, 69, 64
2, 18843, Note_off_c, 0, 69, 69
2, 18843, Note_off_c, 0, 62, 37
2, 18843, Note_on_c, 0, 65, 64
2, 18903, Note_off_c, 0, 65, 58
2, 18903, Note_on_c, 0, 64, 64
2, 18963, Note_off_c, 0, 64, 38
2, 18963, Note_on_c, 0, 65, 64
2, 19023, Note_off_c, 0, 65, 55
2, 19023, Note_on_c, 0, 69, 64
2, 19083, Note_off_c, 0, 69, 76
2, 19083, Note_on_c, 0, 62, 64
2, 19143, Note_off_c, 0, 62, 49
2, 19143, Note_on_c, 0, 65, 64
2, 19203, Note_off_c, 0, 65, 65
2, 19203, Note_on_c, 0, 69, 64
2, 19263, Note_off_c, 0, 69, 69
2, 19263, Note_on_c, 0, 72, 64
2, 19323, Note_off_c, 0, 72, 72
2, 19323, Note_on_c, 0, 70, 64
2, 19383, Note_off_c, 0, 70, 74
2, 19383, Note_on_c, 0, 69, 64
2, 19443, Note_off_c, 0, 69, 66
2, 19443, Note_on_c, 0, 67, 64
2, 19503, Note_off_c, 0, 67, 46
2, 19503, Note_on_c, 0, 74, 64
2, 19563, Note_off_c, 0, 74, 66
2, 19563, Note_on_c, 0, 70, 64
2, 19623, Note_off_c, 0, 70, 72
2, 19623, Note_on_c, 0, 69, 64
2, 19683, Note_off_c, 0, 69, 62
2, 19683, Note_on_c, 0, 70, 64
2, 19743, Note_off_c, 0, 70, 74
2, 19743, Note_on_c, 0, 74, 64
2, 19803, Note_off_c, 0, 74, 58
2, 19803, Note_on_c, 0, 67, 64
2, 19863, Note_off_c, 0, 67, 46
2, 19863, Note_on_c, 0, 70, 64
2, 19923, Note_off_c, 0, 70, 59
2, 19923, Note_on_c, 0, 74, 64
2, 19983, Note_off_c, 0, 74, 73
2, 19983, Note_on_c, 0, 77, 64
2, 20043, Note_off_c, 0, 77, 76
2, 20043, Note_on_c, 0, 76, 64
2, 20103, Note_off_c, 0, 76, 55
2, 20103, Note_on_c, 0, 74, 64
2, 20163, Note_off_c, 0, 74, 70
2, 20163, Note_on_c, 0, 76, 64
2, 20223, Note_off_c, 0, 76, 59
2, 20223, Note_on_c, 0, 79, 64
2, 20283, Note_off_c, 0, 79, 55
2, 20283, Note_on_c, 0, 76, 64
2, 20343, Note_off_c, 0, 76, 58
2, 20343, Note_on_c, 0, 74, 64
2, 20403, Note_off_c, 0, 74, 62
2, 20403, Note_on_c, 0, 76, 64
2, 20463, Note_off_c, 0, 76, 57
2, 20463, Note_on_c, 0, 79, 64
2, 20523, Note_off_c, 0, 79, 61
2, 20523, Note_on_c, 0, 72, 64
2, 20583, Note_off_c, 0, 72, 54
2, 20583, Note_on_c, 0, 76, 64
2, 20643, Note_off_c, 0, 76, 49
2, 20643, Note_on_c, 0, 79, 64
2, 20703, Note_off_c, 0, 79, 70
2, 20703, Note_on_c, 0, 82, 64
2, 20763, Note_off_c, 0, 82, 69
2, 20763, Note_on_c, 0, 81, 64
2, 20823, Note_off_c, 0, 81, 63
2, 20823, Note_on_c, 0, 79, 64
2, 20883, Note_off_c, 0, 79, 72
2, 20883, Note_on_c, 0, 84, 64
2, 20943, Note_off_c, 0, 84, 59
2, 20943, Note_on_c, 0, 81, 64
2, 21003, Note_off_c, 0, 81, 54
2, 21003, Note_on_c, 0, 77, 64
2, 21063, Note_off_c, 0, 77, 63
2, 21063, Note_on_c, 0, 76, 64
2, 21123, Note_off_c, 0, 76, 35
2, 21123, Note_on_c, 0, 77, 64
2, 21183, Note_off_c, 0, 77, 58
2, 21183, Note_on_c, 0, 81, 64
2, 21243, Note_off_c, 0, 81, 57
2, 21243, Note_on_c, 0, 74, 64
2, 21303, Note_off_c, 0, 74, 58
2, 21303, Note_on_c, 0, 77, 64
2, 21363, Note_off_c, 0, 77, 69
2, 21363, Note_on_c, 0, 81, 64
2, 21423, Note_off_c, 0, 81, 66
2, 21423, Note_on_c, 0, 84, 64
2, 21483, Note_off_c, 0, 84, 57
2, 21483, Note_on_c, 0, 82, 64
2, 21543, Note_off_c, 0, 82, 69
2, 21543, Note_on_c, 0, 81, 64
2, 21603, Note_off_c, 0, 81, 62
2, 21603, Note_on_c, 0, 82, 64
2, 21663, Note_off_c, 0, 82, 66
2, 21663, Note_on_c, 0, 79, 64
2, 21723, Note_off_c, 0, 79, 68
2, 21723, Note_on_c, 0, 76, 64
2, 21783, Note_off_c, 0, 76, 61
2, 21783, Note_on_c, 0, 74, 64
2, 21843, Note_off_c, 0, 74, 72
2, 21843, Note_on_c, 0, 76, 64
2, 21903, Note_off_c, 0, 76, 45
2, 21903, Note_on_c, 0, 79, 64
2, 21963, Note_off_c, 0, 79, 59
2, 21963, Note_on_c, 0, 72, 64
2, 22023, Note_off_c, 0, 72, 63
2, 22023, Note_on_c, 0, 76, 64
2, 22083, Note_off_c, 0, 76, 38
2, 22083, Note_on_c, 0, 79, 64
2, 22143, Note_off_c, 0, 79, 66
2, 22143, Note_on_c, 0, 82, 64
2, 22203, Note_off_c, 0, 82, 73
2, 22203, Note_on_c, 0, 81, 64
2, 22263, Note_off_c, 0, 81, 63
2, 22263, Note_on_c, 0, 79, 64
2, 22323, Note_off_c, 0, 79, 54
2, 22323, Note_on_c, 0, 81, 64
2, 22383, Note_off_c, 0, 81, 58
2, 22383, Note_on_c, 0, 77, 64
2, 22443, Note_off_c, 0, 77, 61
2, 22443, Note_on_c, 0, 72, 64
2, 22503, Note_off_c, 0, 72, 79
2, 22503, Note_on_c, 0, 70, 64
2, 22563, Note_off_c, 0, 70, 39
2, 22563, Note_on_c, 0, 72, 64
2, 22623, Note_off_c, 0, 72, 53
2, 22623, Note_on_c, 0, 77, 64
2, 22683, Note_off_c, 0, 77, 74
2, 22683, Note_on_c, 0, 69, 64
2, 22743, Note_off_c, 0, 69, 65
2, 22743, Note_on_c, 0, 72, 64
2, 22803, Note_off_c, 0, 72, 70
2, 22803, Note_on_c, 0, 75, 64
2, 22863, Note_off_c, 0, 75, 47
2, 22863, Note_on_c, 0, 79, 64
2, 22923, Note_off_c, 0, 79, 63
2, 22923, Note_on_c, 0, 77, 64
2, 22983, Note_off_c, 0, 77, 55
2, 22983, Note_on_c, 0, 75, 64
2, 23043, Note_off_c, 0, 75, 59
2, 23043, Note_on_c, 0, 75, 74
2, 23073, Note_off_c, 0, 75, 45
2, 23073, Note_on_c, 0, 74, 76
2, 23103, Note_off_c, 0, 74, 54
2, 23103, Note_on_c, 0, 75, 47
2, 23133, Note_off_c, 0, 75, 49
2, 23133, Note_on_c, 0, 74, 54
2, 23163, Note_off_c, 0, 74, 59
2, 23163, Note_on_c, 0, 75, 62
2, 23193, Note_off_c, 0, 75, 39
2, 23193, Note_on_c, 0, 74, 64
2, 23463, Note_off_c, 0, 74, 70
2, 23463, Note_on_c, 0, 72, 64
2, 23523, Note_off_c, 0, 72, 79
2, 23523, Note_on_c, 0, 70, 64
2, 23583, Note_off_c, 0, 70, 68
2, 23583, Note_on_c, 0, 69, 64
2, 23643, Note_off_c, 0, 69, 65
2, 23643, Note_on_c, 0, 67, 64
2, 23703, Note_off_c, 0, 67, 46
2, 23703, Note_on_c, 0, 65, 64
2, 23763, Note_off_c, 0, 65, 46
2, 23763, Note_on_c, 0, 70, 64
2, 23883, Note_off_c, 0, 70, 65
2, 23883, Note_on_c, 0, 79, 64
2, 24003, Note_off_c, 0, 79, 65
2, 24003, Note_on_c, 0, 76, 64
2, 24123, Note_off_c, 0, 76, 59
2, 24123, Note_on_c, 0, 72, 64
2, 24243, Note_off_c, 0, 72, 80
2, 24243, Note_on_c, 0, 70, 64
2, 24363, Note_off_c, 0, 70, 58
2, 24363, Note_on_c, 0, 79, 64
2, 24483, Note_off_c, 0, 79, 73
2, 24483, Note_on_c, 0, 69, 64
2, 24543, Note_off_c, 0, 69, 68
2, 24543, Note_on_c, 0, 67, 64
2, 24603, Note_off_c, 0, 67, 36
2, 24603, Note_on_c, 0, 65, 64
2, 24663, Note_off_c, 0, 65, 52
2, 24663, Note_on_c, 0, 64, 64
2, 24723, Note_off_c, 0, 64, 52
2, 24723, Note_on_c, 0, 65, 64
2, 24783, Note_off_c, 0, 65, 52
2, 24783, Note_on_c, 0, 69, 64
2, 24843, Note_off_c, 0, 69, 74
2, 24843, Note_on_c, 0, 62, 64
2, 24903, Note_off_c, 0, 62, 46
2, 24903, Note_on_c, 0, 65, 64
2, 24963, Note_off_c, 0, 65, 70
2, 24963, Note_on_c, 0, 62, 64
2, 25023, Note_off_c, 0, 62, 62
2, 25023, Note_on_c, 0, 58, 64
2, 25083, Note_off_c, 0, 58, 69
2, 25083, Note_on_c, 0, 55, 64
2, 25143, Note_off_c, 0, 55, 53
2, 25143, Note_on_c, 0, 64, 64
2, 25203, Note_off_c, 0, 64, 58
2, 25203, Note_on_c, 0, 65, 64
2, 25263, Note_off_c, 0, 65, 57
2, 25263, Note_on_c, 0, 58, 64
2, 25323, Note_off_c, 0, 58, 66
2, 25323, Note_on_c, 0, 57, 64
2, 25383, Note_off_c, 0, 57, 42
2, 25383, Note_on_c, 0, 55, 64
2, 25443, Note_off_c, 0, 55, 55
2, 25443, Note_on_c, 0, 57, 64
2, 25503, Note_off_c, 0, 57, 53
2, 25503, Note_on_c, 0, 60, 64
2, 25563, Note_off_c, 0, 60, 65
2, 25563, Note_on_c, 0, 53, 64
2, 25803, Note_off_c, 0, 53, 58
2, 25803, End_track
3, 0, Start_track
3, 0, Text_t, "LH"
3, 0, Note_on_c, 1, 53, 64
3, 120, Note_off_c, 1, 53, 51
3, 120, Note_on_c, 1, 57, 64
3, 240, Note_off_c, 1, 57, 51
3, 240, Note_on_c, 1, 60, 64
3, 360, Note_off_c, 1, 60, 61
3, 360, Note_on_c, 1, 57, 64
3, 480, Note_off_c, 1, 57, 59
3, 480, Note_on_c, 1, 53, 64
3, 600, Note_off_c, 1, 53, 50
3, 600, Note_on_c, 1, 57, 64
3, 720, Note_off_c, 1, 57, 65
3, 720, Note_on_c, 1, 58, 64
3, 840, Note_off_c, 1, 58, 66
3, 840, Note_on_c, 1, 62, 64
3, 960, Note_off_c, 1, 62, 48
3, 960, Note_on_c, 1, 58, 64
3, 1080, Note_off_c, 1, 58, 62
3, 1080, Note_on_c, 1, 41, 64
3, 1320, Note_off_c, 1, 41, 49
3, 1440, Note_on_c, 1, 53, 64
3, 1560, Note_off_c, 1, 53, 35
3, 1560, Note_on_c, 1, 55, 64
3, 1680, Note_off_c, 1, 55, 50
3, 1680, Note_on_c, 1, 58, 64
3, 1800, Note_off_c, 1, 58, 61
3, 1800, Note_on_c, 1, 55, 64
3, 1920, Note_off_c, 1, 55, 52
3, 1920, Note_on_c, 1, 52, 64
3, 2040, Note_off_c, 1, 52, 62
3, 2040, Note_on_c, 1, 48, 64
3, 2160, Note_off_c, 1, 48, 61
3, 2160, Note_on_c, 1, 53, 64
3, 2280, Note_off_c, 1, 53, 45
3, 2280, Note_on_c, 1, 57, 64
3, 2400, Note_off_c, 1, 57, 62
3, 2400, Note_on_c, 1, 53, 64
3, 2520, Note_off_c, 1, 53, 57
3, 2520, Note_on_c, 1, 41, 64
3, 2760, Note_off_c, 1, 41, 48
3, 2880, Note_on_c, 1, 53, 64
3, 2940, Note_off_c, 1, 53, 50
3, 2940, Note_on_c, 1, 50, 64
3, 3000, Note_off_c, 1, 50, 65
3, 3000, Note_on_c, 1, 47, 64
3, 3060, Note_off_c, 1, 47, 53
3, 3060, Note_on_c, 1, 45, 64
3, 3120, Note_off_c, 1, 45, 48
3, 3120, Note_on_c, 1, 47, 64
3, 3180, Note_off_c, 1, 47, 55
3, 3180, Note_on_c, 1, 50, 64
3, 3240, Note_off_c, 1, 50, 68
3, 3240, Note_on_c, 1, 43, 64
3, 3300, Note_off_c, 1, 43, 30
3, 3300, Note_on_c, 1, 47, 64
3, 3360, Note_off_c, 1, 47, 52
3, 3360, Note_on_c, 1, 50, 64
3, 3420, Note_off_c, 1, 50, 55
3, 3420, Note_on_c, 1, 53, 64
3, 3480, Note_off_c, 1, 53, 50
3, 3480, Note_on_c, 1, 52, 64
3, 3540, Note_off_c, 1, 52, 54
3, 3540, Note_on_c, 1, 50, 64
3, 3580, Note_off_c, 1, 50, 57
3, 3600, Note_on_c, 1, 50, 72
3, 3630, Note_on_c, 1, 52, 60
3, 3633, Note_off_c, 1, 50, 29
3, 3660, Note_on_c, 1, 53, 72
3, 3663, Note_off_c, 1, 52, 46
3, 3690, Note_on_c, 1, 52, 40
3, 3693, Note_off_c, 1, 53, 50
3, 3720, Note_on_c, 1, 53, 41
3, 3723, Note_off_c, 1, 52, 50
3, 3750, Note_on_c, 1, 52, 41
3, 3753, Note_off_c, 1, 53, 44
3, 3780, Note_on_c, 1, 53, 42
3, 3783, Note_off_c, 1, 52, 50
3, 3810, Note_on_c, 1, 52, 42
3, 3813, Note_off_c, 1, 53, 45
3, 3840, Note_on_c, 1, 53, 43
3, 3843, Note_off_c, 1, 52, 52
3, 3870, Note_on_c, 1, 52, 44
3, 3873, Note_off_c, 1, 53, 50
3, 3900, Note_on_c, 1, 53, 44
3, 3903, Note_off_c, 1, 52, 49
3, 3930, Note_on_c, 1, 52, 45
3, 3933, Note_off_c, 1, 53, 50
3, 3960, Note_on_c, 1, 53, 46
3, 3963, Note_off_c, 1, 52, 49
3, 3990, Note_on_c, 1, 52, 46
3, 3993, Note_off_c, 1, 53, 48
3, 4020, Note_on_c, 1, 53, 47
3, 4023, Note_off_c, 1, 52, 50
3, 4050, Note_on_c, 1, 52, 48
3, 4053, Note_off_c, 1, 53, 50
3, 4080, Note_on_c, 1, 53, 48
3, 4083, Note_off_c, 1, 52, 46
3, 4110, Note_on_c, 1, 52, 49
3, 4113, Note_off_c, 1, 53, 46
3, 4140, Note_on_c, 1, 53, 49
3, 4143, Note_off_c, 1, 52, 46
3, 4170, Note_on_c, 1, 52, 50
3, 4173, Note_off_c, 1, 53, 43
3, 4200, Note_on_c, 1, 53, 51
3, 4203, Note_off_c, 1, 52, 39
3, 4230, Note_on_c, 1, 52, 51
3, 4233, Note_off_c, 1, 53, 44
3, 4260, Note_on_c, 1, 50, 62
3, 4263, Note_off_c, 1, 52, 37
3, 4290, Note_on_c, 1, 52, 68
3, 4293, Note_off_c, 1, 50, 40
3, 4320, Note_off_c, 1, 52, 46
3, 4320, Note_on_c, 1, 55, 64
3, 4380, Note_off_c, 1, 55, 52
3, 4380, Note_on_c, 1, 52, 64
3, 4440, Note_off_c, 1, 52, 63
3, 4440, Note_on_c, 1, 49, 64
3, 4500, Note_off_c, 1, 49, 61
3, 4500, Note_on_c, 1, 47, 64
3, 4560, Note_off_c, 1, 47, 36
3, 4560, Note_on_c, 1, 49, 64
3, 4620, Note_off_c, 1, 49, 61
3, 4620, Note_on_c, 1, 52, 64
3, 4680, Note_off_c, 1, 52, 69
3, 4680, Note_on_c, 1, 45, 64
3, 4740, Note_off_c, 1, 45, 49
3, 4740, Note_on_c, 1, 49, 64
3, 4800, Note_off_c, 1, 49, 69
3, 4800, Note_on_c, 1, 52, 64
3, 4860, Note_off_c, 1, 52, 66
3, 4860, Note_on_c, 1, 55, 64
3, 4920, Note_off_c, 1, 55, 62
3, 4920, Note_on_c, 1, 53, 64
3, 4980, Note_off_c, 1, 53, 57
3, 4980, Note_on_c, 1, 52, 64
3, 5020, Note_off_c, 1, 52, 62
3, 5040, Note_on_c, 1, 52, 77
3, 5070, Note_off_c, 1, 52, 41
3, 5070, Note_on_c, 1, 53, 69
3, 5100, Note_off_c, 1, 53, 46
3, 5100, Note_on_c, 1, 55, 40
3, 5130, Note_on_c, 1, 53, 40
3, 5133, Note_off_c, 1, 55, 61
3, 5160, Note_on_c, 1, 55, 40
3, 5163, Note_off_c, 1, 53, 58
3, 5190, Note_on_c, 1, 53, 41
3, 5193, Note_off_c, 1, 55, 70
3, 5220, Note_on_c, 1, 55, 42
3, 5223, Note_off_c, 1, 53, 62
3, 5250, Note_on_c, 1, 53, 42
3, 5253, Note_off_c, 1, 55, 61
3, 5280, Note_on_c, 1, 55, 43
3, 5283, Note_off_c, 1, 53, 59
3, 5310, Note_on_c, 1, 53, 43
3, 5313, Note_off_c, 1, 55, 65
3, 5340, Note_on_c, 1, 55, 44
3, 5343, Note_off_c, 1, 53, 57
3, 5370, Note_on_c, 1, 53, 45
3, 5373, Note_off_c, 1, 55, 61
3, 5400, Note_on_c, 1, 55, 45
3, 5403, Note_off_c, 1, 53, 59
3, 5430, Note_on_c, 1, 53, 46
3, 5433, Note_off_c, 1, 55, 61
3, 5460, Note_on_c, 1, 55, 47
3, 5463, Note_off_c, 1, 53, 62
3, 5490, Note_on_c, 1, 53, 47
3, 5493, Note_off_c, 1, 55, 63
3, 5520, Note_on_c, 1, 55, 48
3, 5523, Note_off_c, 1, 53, 65
3, 5550, Note_on_c, 1, 53, 49
3, 5553, Note_off_c, 1, 55, 58
3, 5580, Note_on_c, 1, 55, 49
3, 5583, Note_off_c, 1, 53, 55
3, 5610, Note_on_c, 1, 53, 50
3, 5613, Note_off_c, 1, 55, 57
3, 5640, Note_on_c, 1, 55, 50
3, 5643, Note_off_c, 1, 53, 52
3, 5670, Note_on_c, 1, 53, 51
3, 5673, Note_off_c, 1, 55, 57
3, 5700, Note_on_c, 1, 55, 56
3, 5703, Note_off_c, 1, 53, 45
3, 5730, Note_on_c, 1, 53, 60
3, 5733, Note_off_c, 1, 55, 47
3, 5760, Note_off_c, 1, 53, 50
3, 5760, Note_on_c, 1, 55, 64
3, 5763, Note_off_c, 1, 53, 50
3, 5880, Note_off_c, 1, 55, 52
3, 5880, Note_on_c, 1, 58, 64
3, 6000, Note_off_c, 1, 58, 66
3, 6000, Note_on_c, 1, 55, 64
3, 6120, Note_off_c, 1, 55, 58
3, 6120, Note_on_c, 1, 52, 64
3, 6240, Note_off_c, 1, 52, 63
3, 6240, Note_on_c, 1, 48, 64
3, 6360, Note_off_c, 1, 48, 40
3, 6360, Note_on_c, 1, 52, 64
3, 6480, Note_off_c, 1, 52, 62
3, 6480, Note_on_c, 1, 53, 64
3, 6600, Note_off_c, 1, 53, 48
3, 6600, Note_on_c, 1, 57, 64
3, 6720, Note_off_c, 1, 57, 59
3, 6720, Note_on_c, 1, 53, 64
3, 6840, Note_off_c, 1, 53, 57
3, 6840, Note_on_c, 1, 50, 64
3, 6960, Note_off_c, 1, 50, 43
3, 6960, Note_on_c, 1, 46, 64
3, 7080, Note_off_c, 1, 46, 61
3, 7080, Note_on_c, 1, 50, 64
3, 7200, Note_off_c, 1, 50, 52
3, 7200, Note_on_c, 1, 52, 64
3, 7320, Note_off_c, 1, 52, 58
3, 7320, Note_on_c, 1, 55, 64
3, 7440, Note_off_c, 1, 55, 69
3, 7440, Note_on_c, 1, 52, 64
3, 7560, Note_off_c, 1, 52, 70
3, 7560, Note_on_c, 1, 49, 64
3, 7680, Note_off_c, 1, 49, 53
3, 7680, Note_on_c, 1, 45, 64
3, 7800, Note_off_c, 1, 45, 36
3, 7800, Note_on_c, 1, 49, 64
3, 7920, Note_off_c, 1, 49, 69
3, 7920, Note_on_c, 1, 50, 64
3, 7980, Note_off_c, 1, 50, 74
3, 7980, Note_on_c, 1, 45, 64
3, 8040, Note_off_c, 1, 45, 50
3, 8040, Note_on_c, 1, 41, 64
3, 8100, Note_off_c, 1, 41, 43
3, 8100, Note_on_c, 1, 40, 64
3, 8160, Note_off_c, 1, 40, 50
3, 8160, Note_on_c, 1, 41, 64
3, 8220, Note_off_c, 1, 41, 44
3, 8220, Note_on_c, 1, 45, 64
3, 8280, Note_off_c, 1, 45, 59
3, 8280, Note_on_c, 1, 38, 64
3, 8340, Note_off_c, 1, 38, 59
3, 8340, Note_on_c, 1, 41, 64
3, 8400, Note_off_c, 1, 41, 34
3, 8400, Note_on_c, 1, 45, 64
3, 8460, Note_off_c, 1, 45, 43
3, 8460, Note_on_c, 1, 48, 64
3, 8520, Note_off_c, 1, 48, 49
3, 8520, Note_on_c, 1, 46, 64
3, 8580, Note_off_c, 1, 46, 61
3, 8580, Note_on_c, 1, 45, 64
3, 8640, Note_off_c, 1, 45, 54
3, 8640, Note_on_c, 1, 50, 64
3, 8700, Note_off_c, 1, 50, 20
3, 8700, Note_on_c, 1, 46, 64
3, 8760, Note_off_c, 1, 46, 62
3, 8760, Note_on_c, 1, 43, 64
3, 8820, Note_off_c, 1, 43, 41
3, 8820, Note_on_c, 1, 42, 64
3, 8880, Note_off_c, 1, 42, 63
3, 8880, Note_on_c, 1, 43, 64
3, 8940, Note_off_c, 1, 43, 38
3, 8940, Note_on_c, 1, 46, 64
3, 9000, Note_off_c, 1, 46, 54
3, 9000, Note_on_c, 1, 38, 64
3, 9060, Note_off_c, 1, 38, 49
3, 9060, Note_on_c, 1, 43, 64
3, 9120, Note_off_c, 1, 43, 45
3, 9120, Note_on_c, 1, 46, 64
3, 9180, Note_off_c, 1, 46, 57
3, 9180, Note_on_c, 1, 50, 64
3, 9240, Note_off_c, 1, 50, 49
3, 9240, Note_on_c, 1, 49, 64
3, 9300, Note_off_c, 1, 49, 63
3, 9300, Note_on_c, 1, 47, 64
3, 9360, Note_off_c, 1, 47, 46
3, 9360, Note_on_c, 1, 49, 64
3, 9420, Note_off_c, 1, 49, 58
3, 9420, Note_on_c, 1, 46, 64
3, 9480, Note_off_c, 1, 46, 54
3, 9480, Note_on_c, 1, 43, 64
3, 9540, Note_off_c, 1, 43, 50
3, 9540, Note_on_c, 1, 42, 64
3, 9600, Note_off_c, 1, 42, 44
3, 9600, Note_on_c, 1, 43, 64
3, 9660, Note_off_c, 1, 43, 50
3, 9660, Note_on_c, 1, 46, 64
3, 9720, Note_off_c, 1, 46, 53
3, 9720, Note_on_c, 1, 38, 64
3, 9780, Note_off_c, 1, 38, 32
3, 9780, Note_on_c, 1, 43, 64
3, 9840, Note_off_c, 1, 43, 52
3, 9840, Note_on_c, 1, 49, 64
3, 9900, Note_off_c, 1, 49, 62
3, 9900, Note_on_c, 1, 52, 64
3, 9960, Note_off_c, 1, 52, 47
3, 9960, Note_on_c, 1, 50, 64
3, 10020, Note_off_c, 1, 50, 58
3, 10020, Note_on_c, 1, 49, 64
3, 10080, Note_off_c, 1, 49, 70
3, 10080, Note_on_c, 1, 50, 64
3, 10200, Note_off_c, 1, 50, 39
3, 10200, Note_on_c, 1, 53, 64
3, 10320, Note_off_c, 1, 53, 53
3, 10320, Note_on_c, 1, 57, 64
3, 10440, Note_off_c, 1, 57, 58
3, 10440, Note_on_c, 1, 53, 64
3, 10560, Note_off_c, 1, 53, 55
3, 10560, Note_on_c, 1, 50, 64
3, 10680, Note_off_c, 1, 50, 46
3, 10680, Note_on_c, 1, 53, 64
3, 10800, Note_off_c, 1, 53, 52
3, 10800, Note_on_c, 1, 38, 64
3, 10920, Note_off_c, 1, 38, 15
3, 10920, Note_on_c, 1, 41, 64
3, 11040, Note_off_c, 1, 41, 50
3, 11040, Note_on_c, 1, 46, 64
3, 11160, Note_off_c, 1, 46, 59
3, 11160, Note_on_c, 1, 50, 64
3, 11400, Note_off_c, 1, 50, 46
3, 11520, Note_on_c, 1, 62, 64
3, 11580, Note_off_c, 1, 62, 59
3, 11580, Note_on_c, 1, 59, 64
3, 11640, Note_off_c, 1, 59, 55
3, 11640, Note_on_c, 1, 56, 64
3, 11700, Note_off_c, 1, 56, 65
3, 11700, Note_on_c, 1, 54, 64
3, 11760, Note_off_c, 1, 54, 55
3, 11760, Note_on_c, 1, 56, 64
3, 11820, Note_off_c, 1, 56, 46
3, 11820, Note_on_c, 1, 59, 64
3, 11880, Note_off_c, 1, 59, 58
3, 11880, Note_on_c, 1, 52, 64
3, 11940, Note_off_c, 1, 52, 49
3, 11940, Note_on_c, 1, 56, 64
3, 12000, Note_off_c, 1, 56, 55
3, 12000, Note_on_c, 1, 59, 64
3, 12060, Note_off_c, 1, 59, 61
3, 12060, Note_on_c, 1, 62, 64
3, 12120, Note_off_c, 1, 62, 28
3, 12120, Note_on_c, 1, 61, 64
3, 12180, Note_off_c, 1, 61, 63
3, 12180, Note_on_c, 1, 59, 64
3, 12220, Note_off_c, 1, 59, 52
3, 12240, Note_on_c, 1, 59, 72
3, 12270, Note_off_c, 1, 59, 42
3, 12270, Note_on_c, 1, 61, 64
3, 12300, Note_off_c, 1, 61, 50
3, 12300, Note_on_c, 1, 62, 68
3, 12330, Note_on_c, 1, 61, 40
3, 12333, Note_off_c, 1, 62, 61
3, 12360, Note_on_c, 1, 62, 40
3, 12363, Note_off_c, 1, 61, 68
3, 12390, Note_on_c, 1, 61, 41
3, 12393, Note_off_c, 1, 62, 59
3, 12420, Note_on_c, 1, 62, 42
3, 12423, Note_off_c, 1, 61, 66
3, 12450, Note_on_c, 1, 61, 43
3, 12453, Note_off_c, 1, 62, 58
3, 12480, Note_on_c, 1, 62, 43
3, 12483, Note_off_c, 1, 61, 66
3, 12510, Note_on_c, 1, 61, 44
3, 12513, Note_off_c, 1, 62, 55
3, 12540, Note_on_c, 1, 62, 45
3, 12543, Note_off_c, 1, 61, 66
3, 12570, Note_on_c, 1, 61, 45
3, 12573, Note_off_c, 1, 62, 52
3, 12600, Note_on_c, 1, 62, 46
3, 12603, Note_off_c, 1, 61, 62
3, 12630, Note_on_c, 1, 61, 47
3, 12633, Note_off_c, 1, 62, 53
3, 12660, Note_on_c, 1, 62, 47
3, 12663, Note_off_c, 1, 61, 65
3, 12690, Note_on_c, 1, 61, 48
3, 12693, Note_off_c, 1, 62, 52
3, 12720, Note_on_c, 1, 62, 49
3, 12723, Note_off_c, 1, 61, 62
3, 12750, Note_on_c, 1, 61, 49
3, 12753, Note_off_c, 1, 62, 51
3, 12780, Note_on_c, 1, 62, 50
3, 12783, Note_off_c, 1, 61, 66
3, 12810, Note_on_c, 1, 61, 51
3, 12813, Note_off_c, 1, 62, 43
3, 12840, Note_on_c, 1, 62, 51
3, 12843, Note_off_c, 1, 61, 59
3, 12870, Note_on_c, 1, 61, 58
3, 12873, Note_off_c, 1, 62, 46
3, 12900, Note_on_c, 1, 59, 62
3, 12903, Note_off_c, 1, 61, 37
3, 12930, Note_on_c, 1, 61, 66
3, 12933, Note_off_c, 1, 59, 27
3, 12960, Note_on_c, 1, 60, 64
3, 12963, Note_off_c, 1, 61, 43
3, 13020, Note_off_c, 1, 60, 39
3, 13020, Note_on_c, 1, 57, 64
3, 13080, Note_off_c, 1, 57, 57
3, 13080, Note_on_c, 1, 54, 64
3, 13140, Note_off_c, 1, 54, 49
3, 13140, Note_on_c, 1, 52, 64
3, 13200, Note_off_c, 1, 52, 32
3, 13200, Note_on_c, 1, 54, 64
3, 13260, Note_off_c, 1, 54, 58
3, 13260, Note_on_c, 1, 57, 64
3, 13320, Note_off_c, 1, 57, 66
3, 13320, Note_on_c, 1, 50, 64
3, 13380, Note_off_c, 1, 50, 43
3, 13380, Note_on_c, 1, 54, 64
3, 13440, Note_off_c, 1, 54, 51
3, 13440, Note_on_c, 1, 57, 64
3, 13500, Note_off_c, 1, 57, 52
3, 13500, Note_on_c, 1, 60, 64
3, 13560, Note_off_c, 1, 60, 52
3, 13560, Note_on_c, 1, 59, 64
3, 13620, Note_off_c, 1, 59, 53
3, 13620, Note_on_c, 1, 57, 64
3, 13680, Note_off_c, 1, 57, 44
3, 13680, Note_on_c, 1, 57, 72
3, 13710, Note_off_c, 1, 57, 42
3, 13710, Note_on_c, 1, 59, 64
3, 13740, Note_off_c, 1, 59, 50
3, 13740, Note_on_c, 1, 60, 68
3, 13770, Note_on_c, 1, 59, 40
3, 13773, Note_off_c, 1, 60, 61
3, 13800, Note_on_c, 1, 60, 40
3, 13803, Note_off_c, 1, 59, 68
3, 13830, Note_on_c, 1, 59, 41
3, 13833, Note_off_c, 1, 60, 59
3, 13860, Note_on_c, 1, 60, 42
3, 13863, Note_off_c, 1, 59, 66
3, 13890, Note_on_c, 1, 59, 43
3, 13893, Note_off_c, 1, 60, 58
3, 13920, Note_on_c, 1, 60, 43
3, 13923, Note_off_c, 1, 59, 66
3, 13950, Note_on_c, 1, 59, 44
3, 13953, Note_off_c, 1, 60, 55
3, 13980, Note_on_c, 1, 60, 45
3, 13983, Note_off_c, 1, 59, 66
3, 14010, Note_on_c, 1, 59, 45
3, 14013, Note_off_c, 1, 60, 52
3, 14040, Note_on_c, 1, 60, 46
3, 14043, Note_off_c, 1, 59, 62
3, 14070, Note_on_c, 1, 59, 47
3, 14073, Note_off_c, 1, 60, 53
3, 14100, Note_on_c, 1, 60, 47
3, 14103, Note_off_c, 1, 59, 65
3, 14130, Note_on_c, 1, 59, 48
3, 14133, Note_off_c, 1, 60, 52
3, 14160, Note_on_c, 1, 60, 49
3, 14163, Note_off_c, 1, 59, 62
3, 14190, Note_on_c, 1, 59, 49
3, 14193, Note_off_c, 1, 60, 51
3, 14220, Note_on_c, 1, 60, 50
3, 14223, Note_off_c, 1, 59, 66
3, 14250, Note_on_c, 1, 59, 51
3, 14253, Note_off_c, 1, 60, 43
3, 14280, Note_on_c, 1, 60, 51
3, 14283, Note_off_c, 1, 59, 59
3, 14310, Note_on_c, 1, 59, 58
3, 14313, Note_off_c, 1, 60, 46
3, 14340, Note_on_c, 1, 57, 62
3, 14343, Note_off_c, 1, 59, 37
3, 14370, Note_on_c, 1, 61, 66
3, 14373, Note_off_c, 1, 57, 27
3, 14400, Note_off_c, 1, 61, 43
3, 14400, Note_on_c, 1, 60, 64
3, 14520, Note_off_c, 1, 60, 69
3, 14520, Note_on_c, 1, 63, 64
3, 14640, Note_off_c, 1, 63, 40
3, 14640, Note_on_c, 1, 60, 64
3, 14760, Note_off_c, 1, 60, 68
3, 14760, Note_on_c, 1, 57, 64
3, 14880, Note_off_c, 1, 57, 55
3, 14880, Note_on_c, 1, 53, 64
3, 15000, Note_off_c, 1, 53, 46
3, 15000, Note_on_c, 1, 57, 64
3, 15120, Note_off_c, 1, 57, 47
3, 15120, Note_on_c, 1, 58, 64
3, 15240, Note_off_c, 1, 58, 70
3, 15240, Note_on_c, 1, 62, 64
3, 15360, Note_off_c, 1, 62, 39
3, 15360, Note_on_c, 1, 58, 64
3, 15480, Note_off_c, 1, 58, 63
3, 15480, Note_on_c, 1, 55, 64
3, 15600, Note_off_c, 1, 55, 68
3, 15600, Note_on_c, 1, 51, 64
3, 15720, Note_off_c, 1, 51, 47
3, 15720, Note_on_c, 1, 55, 64
3, 15840, Note_off_c, 1, 55, 46
3, 15840, Note_on_c, 1, 57, 64
3, 15960, Note_off_c, 1, 57, 53
3, 15960, Note_on_c, 1, 60, 64
3, 16080, Note_off_c, 1, 60, 43
3, 16080, Note_on_c, 1, 57, 64
3, 16200, Note_off_c, 1, 57, 59
3, 16200, Note_on_c, 1, 54, 64
3, 16320, Note_off_c, 1, 54, 51
3, 16320, Note_on_c, 1, 50, 64
3, 16440, Note_off_c, 1, 50, 34
3, 16440, Note_on_c, 1, 54, 64
3, 16560, Note_off_c, 1, 54, 65
3, 16560, Note_on_c, 1, 55, 64
3, 16620, Note_off_c, 1, 55, 54
3, 16620, Note_on_c, 1, 50, 64
3, 16680, Note_off_c, 1, 50, 72
3, 16680, Note_on_c, 1, 46, 64
3, 16740, Note_off_c, 1, 46, 49
3, 16740, Note_on_c, 1, 45, 64
3, 16800, Note_off_c, 1, 45, 42
3, 16800, Note_on_c, 1, 46, 64
3, 16860, Note_off_c, 1, 46, 54
3, 16860, Note_on_c, 1, 50, 64
3, 16920, Note_off_c, 1, 50, 66
3, 16920, Note_on_c, 1, 43, 64
3, 16980, Note_off_c, 1, 43, 35
3, 16980, Note_on_c, 1, 46, 64
3, 17040, Note_off_c, 1, 46, 51
3, 17040, Note_on_c, 1, 50, 64
3, 17100, Note_off_c, 1, 50, 66
3, 17100, Note_on_c, 1, 53, 64
3, 17160, Note_off_c, 1, 53, 27
3, 17160, Note_on_c, 1, 52, 64
3, 17220, Note_off_c, 1, 52, 57
3, 17220, Note_on_c, 1, 50, 64
3, 17280, Note_off_c, 1, 50, 52
3, 17280, Note_on_c, 1, 48, 64
3, 17340, Note_off_c, 1, 48, 55
3, 17340, Note_on_c, 1, 43, 64
3, 17400, Note_off_c, 1, 43, 46
3, 17400, Note_on_c, 1, 40, 64
3, 17460, Note_off_c, 1, 40, 40
3, 17460, Note_on_c, 1, 38, 64
3, 17520, Note_off_c, 1, 38, 40
3, 17520, Note_on_c, 1, 40, 64
3, 17580, Note_off_c, 1, 40, 31
3, 17580, Note_on_c, 1, 43, 64
3, 17640, Note_off_c, 1, 43, 59
3, 17640, Note_on_c, 1, 36, 64
3, 17700, Note_off_c, 1, 36, 59
3, 17700, Note_on_c, 1, 43, 64
3, 17760, Note_off_c, 1, 43, 52
3, 17760, Note_on_c, 1, 48, 64
3, 17820, Note_off_c, 1, 48, 55
3, 17820, Note_on_c, 1, 52, 64
3, 17880, Note_off_c, 1, 52, 23
3, 17880, Note_on_c, 1, 50, 64
3, 17940, Note_off_c, 1, 50, 59
3, 17940, Note_on_c, 1, 48, 64
3, 18000, Note_off_c, 1, 48, 61
3, 18000, Note_on_c, 1, 53, 64
3, 18060, Note_off_c, 1, 53, 48
3, 18060, Note_on_c, 1, 48, 64
3, 18120, Note_off_c, 1, 48, 61
3, 18120, Note_on_c, 1, 45, 64
3, 18180, Note_off_c, 1, 45, 8
3, 18180, Note_on_c, 1, 43, 64
3, 18240, Note_off_c, 1, 43, 31
3, 18240, Note_on_c, 1, 45, 64
3, 18300, Note_off_c, 1, 45, 49
3, 18300, Note_on_c, 1, 48, 64
3, 18360, Note_off_c, 1, 48, 65
3, 18360, Note_on_c, 1, 41, 64
3, 18420, Note_off_c, 1, 41, 30
3, 18420, Note_on_c, 1, 48, 64
3, 18480, Note_off_c, 1, 48, 61
3, 18480, Note_on_c, 1, 53, 64
3, 18540, Note_off_c, 1, 53, 65
3, 18540, Note_on_c, 1, 57, 64
3, 18600, Note_off_c, 1, 57, 43
3, 18600, Note_on_c, 1, 55, 64
3, 18660, Note_off_c, 1, 55, 55
3, 18660, Note_on_c, 1, 53, 64
3, 18720, Note_off_c, 1, 53, 53
3, 18720, Note_on_c, 1, 60, 74
3, 18750, Note_off_c, 1, 60, 58
3, 18750, Note_on_c, 1, 58, 69
3, 18780, Note_off_c, 1, 58, 55
3, 18780, Note_on_c, 1, 60, 54
3, 18810, Note_off_c, 1, 60, 52
3, 18810, Note_on_c, 1, 58, 40
3, 18840, Note_on_c, 1, 60, 40
3, 18843, Note_off_c, 1, 58, 51
3, 18870, Note_on_c, 1, 58, 40
3, 18873, Note_off_c, 1, 60, 63
3, 18900, Note_on_c, 1, 60, 40
3, 18903, Note_off_c, 1, 58, 66
3, 18930, Note_on_c, 1, 58, 40
3, 18933, Note_off_c, 1, 60, 53
3, 18960, Note_on_c, 1, 60, 41
3, 18963, Note_off_c, 1, 58, 68
3, 18990, Note_on_c, 1, 58, 41
3, 18993, Note_off_c, 1, 60, 57
3, 19020, Note_on_c, 1, 60, 41
3, 19023, Note_off_c, 1, 58, 63
3, 19050, Note_on_c, 1, 58, 41
3, 19053, Note_off_c, 1, 60, 65
3, 19080, Note_on_c, 1, 60, 41
3, 19083, Note_off_c, 1, 58, 65
3, 19110, Note_on_c, 1, 58, 41
3, 19113, Note_off_c, 1, 60, 68
3, 19140, Note_on_c, 1, 60, 42
3, 19143, Note_off_c, 1, 58, 65
3, 19170, Note_on_c, 1, 58, 42
3, 19173, Note_off_c, 1, 60, 49
3, 19200, Note_on_c, 1, 60, 42
3, 19203, Note_off_c, 1, 58, 62
3, 19230, Note_on_c, 1, 58, 42
3, 19233, Note_off_c, 1, 60, 69
3, 19260, Note_on_c, 1, 60, 42
3, 19263, Note_off_c, 1, 58, 52
3, 19290, Note_on_c, 1, 58, 42
3, 19293, Note_off_c, 1, 60, 53
3, 19320, Note_on_c, 1, 60, 43
3, 19323, Note_off_c, 1, 58, 50
3, 19350, Note_on_c, 1, 58, 43
3, 19353, Note_off_c, 1, 60, 52
3, 19380, Note_on_c, 1, 60, 43
3, 19383, Note_off_c, 1, 58, 50
3, 19410, Note_on_c, 1, 58, 43
3, 19413, Note_off_c, 1, 60, 47
3, 19440, Note_on_c, 1, 60, 43
3, 19443, Note_off_c, 1, 58, 63
3, 19470, Note_on_c, 1, 58, 44
3, 19473, Note_off_c, 1, 60, 49
3, 19500, Note_on_c, 1, 60, 44
3, 19503, Note_off_c, 1, 58, 69
3, 19530, Note_on_c, 1, 58, 44
3, 19533, Note_off_c, 1, 60, 72
3, 19560, Note_on_c, 1, 60, 44
3, 19563, Note_off_c, 1, 58, 70
3, 19590, Note_on_c, 1, 58, 44
3, 19593, Note_off_c, 1, 60, 73
3, 19620, Note_on_c, 1, 60, 44
3, 19623, Note_off_c, 1, 58, 74
3, 19650, Note_on_c, 1, 58, 45
3, 19653, Note_off_c, 1, 60, 72
3, 19680, Note_on_c, 1, 60, 45
3, 19683, Note_off_c, 1, 58, 70
3, 19710, Note_on_c, 1, 58, 45
3, 19713, Note_off_c, 1, 60, 69
3, 19740, Note_on_c, 1, 60, 45
3, 19743, Note_off_c, 1, 58, 73
3, 19770, Note_on_c, 1, 58, 45
3, 19773, Note_off_c, 1, 60, 70
3, 19800, Note_on_c, 1, 60, 46
3, 19803, Note_off_c, 1, 58, 74
3, 19830, Note_on_c, 1, 58, 46
3, 19833, Note_off_c, 1, 60, 73
3, 19860, Note_on_c, 1, 60, 46
3, 19863, Note_off_c, 1, 58, 77
3, 19890, Note_on_c, 1, 58, 46
3, 19893, Note_off_c, 1, 60, 72
3, 19920, Note_on_c, 1, 60, 46
3, 19923, Note_off_c, 1, 58, 76
3, 19950, Note_on_c, 1, 58, 46
3, 19953, Note_off_c, 1, 60, 66
3, 19980, Note_on_c, 1, 60, 47
3, 19983, Note_off_c, 1, 58, 76
3, 20010, Note_on_c, 1, 58, 47
3, 20013, Note_off_c, 1, 60, 63
3, 20040, Note_on_c, 1, 60, 47
3, 20043, Note_off_c, 1, 58, 70
3, 20070, Note_on_c, 1, 58, 47
3, 20073, Note_off_c, 1, 60, 69
3, 20100, Note_on_c, 1, 60, 47
3, 20103, Note_off_c, 1, 58, 73
3, 20130, Note_on_c, 1, 58, 48
3, 20133, Note_off_c, 1, 60, 69
3, 20160, Note_on_c, 1, 60, 48
3, 20163, Note_off_c, 1, 58, 65
3, 20190, Note_on_c, 1, 58, 48
3, 20193, Note_off_c, 1, 60, 66
3, 20220, Note_on_c, 1, 60, 48
3, 20223, Note_off_c, 1, 58, 72
3, 20250, Note_on_c, 1, 58, 48
3, 20253, Note_off_c, 1, 60, 69
3, 20280, Note_on_c, 1, 60, 48
3, 20283, Note_off_c, 1, 58, 66
3, 20310, Note_on_c, 1, 58, 49
3, 20313, Note_off_c, 1, 60, 66
3, 20340, Note_on_c, 1, 60, 49
3, 20343, Note_off_c, 1, 58, 68
3, 20370, Note_on_c, 1, 58, 49
3, 20373, Note_off_c, 1, 60, 62
3, 20400, Note_on_c, 1, 60, 49
3, 20403, Note_off_c, 1, 58, 74
3, 20430, Note_on_c, 1, 58, 49
3, 20433, Note_off_c, 1, 60, 57
3, 20460, Note_on_c, 1, 60, 50
3, 20463, Note_off_c, 1, 58, 68
3, 20490, Note_on_c, 1, 58, 50
3, 20493, Note_off_c, 1, 60, 57
3, 20520, Note_on_c, 1, 60, 50
3, 20523, Note_off_c, 1, 58, 70
3, 20550, Note_on_c, 1, 58, 50
3, 20553, Note_off_c, 1, 60, 66
3, 20580, Note_on_c, 1, 60, 50
3, 20583, Note_off_c, 1, 58, 63
3, 20610, Note_on_c, 1, 58, 50
3, 20613, Note_off_c, 1, 60, 62
3, 20640, Note_on_c, 1, 60, 51
3, 20643, Note_off_c, 1, 58, 62
3, 20670, Note_on_c, 1, 58, 51
3, 20673, Note_off_c, 1, 60, 57
3, 20700, Note_on_c, 1, 60, 51
3, 20703, Note_off_c, 1, 58, 63
3, 20730, Note_on_c, 1, 58, 51
3, 20733, Note_off_c, 1, 60, 61
3, 20760, Note_on_c, 1, 60, 51
3, 20763, Note_off_c, 1, 58, 55
3, 20790, Note_on_c, 1, 58, 51
3, 20793, Note_off_c, 1, 60, 59
3, 20820, Note_on_c, 1, 60, 78
3, 20823, Note_off_c, 1, 58, 63
3, 20850, Note_off_c, 1, 60, 59
3, 20850, Note_on_c, 1, 58, 70
3, 20880, Note_off_c, 1, 58, 48
3, 20880, Note_on_c, 1, 57, 64
3, 21000, Note_off_c, 1, 57, 63
3, 21000, Note_on_c, 1, 60, 64
3, 21120, Note_off_c, 1, 60, 59
3, 21120, Note_on_c, 1, 57, 64
3, 21240, Note_off_c, 1, 57, 52
3, 21240, Note_on_c, 1, 53, 64
3, 21360, Note_off_c, 1, 53, 52
3, 21360, Note_on_c, 1, 50, 64
3, 21480, Note_off_c, 1, 50, 41
3, 21480, Note_on_c, 1, 53, 64
3, 21600, Note_off_c, 1, 53, 68
3, 21600, Note_on_c, 1, 55, 64
3, 21720, Note_off_c, 1, 55, 61
3, 21720, Note_on_c, 1, 58, 64
3, 21840, Note_off_c, 1, 58, 68
3, 21840, Note_on_c, 1, 55, 64
3, 21960, Note_off_c, 1, 55, 70
3, 21960, Note_on_c, 1, 52, 64
3, 22080, Note_off_c, 1, 52, 63
3, 22080, Note_on_c, 1, 48, 64
3, 22200, Note_off_c, 1, 48, 41
3, 22200, Note_on_c, 1, 52, 64
3, 22320, Note_off_c, 1, 52, 62
3, 22320, Note_on_c, 1, 53, 64
3, 22380, Note_off_c, 1, 53, 38
3, 22380, Note_on_c, 1, 48, 64
3, 22440, Note_off_c, 1, 48, 65
3, 22440, Note_on_c, 1, 45, 64
3, 22500, Note_off_c, 1, 45, 44
3, 22500, Note_on_c, 1, 43, 64
3, 22560, Note_off_c, 1, 43, 37
3, 22560, Note_on_c, 1, 45, 64
3, 22620, Note_off_c, 1, 45, 47
3, 22620, Note_on_c, 1, 48, 64
3, 22680, Note_off_c, 1, 48, 55
3, 22680, Note_on_c, 1, 41, 64
3, 22740, Note_off_c, 1, 41, 38
3, 22740, Note_on_c, 1, 45, 64
3, 22800, Note_off_c, 1, 45, 44
3, 22800, Note_on_c, 1, 48, 64
3, 22860, Note_off_c, 1, 48, 62
3, 22860, Note_on_c, 1, 51, 64
3, 22920, Note_off_c, 1, 51, 52
3, 22920, Note_on_c, 1, 50, 64
3, 22980, Note_off_c, 1, 50, 59
3, 22980, Note_on_c, 1, 48, 64
3, 23040, Note_off_c, 1, 48, 70
3, 23040, Note_on_c, 1, 53, 64
3, 23100, Note_off_c, 1, 53, 47
3, 23100, Note_on_c, 1, 50, 64
3, 23160, Note_off_c, 1, 50, 66
3, 23160, Note_on_c, 1, 46, 64
3, 23220, Note_off_c, 1, 46, 58
3, 23220, Note_on_c, 1, 45, 64
3, 23280, Note_off_c, 1, 45, 36
3, 23280, Note_on_c, 1, 46, 64
3, 23340, Note_off_c, 1, 46, 47
3, 23340, Note_on_c, 1, 50, 64
3, 23400, Note_off_c, 1, 50, 59
3, 23400, Note_on_c, 1, 41, 64
3, 23460, Note_off_c, 1, 41, 63
3, 23460, Note_on_c, 1, 46, 64
3, 23520, Note_off_c, 1, 46, 46
3, 23520, Note_on_c, 1, 50, 64
3, 23580, Note_off_c, 1, 50, 54
3, 23580, Note_on_c, 1, 53, 64
3, 23640, Note_off_c, 1, 53, 57
3, 23640, Note_on_c, 1, 52, 64
3, 23700, Note_off_c, 1, 52, 62
3, 23700, Note_on_c, 1, 50, 64
3, 23760, Note_off_c, 1, 50, 46
3, 23760, Note_on_c, 1, 52, 64
3, 23820, Note_off_c, 1, 52, 49
3, 23820, Note_on_c, 1, 48, 64
3, 23880, Note_off_c, 1, 48, 61
3, 23880, Note_on_c, 1, 46, 64
3, 23940, Note_off_c, 1, 46, 61
3, 23940, Note_on_c, 1, 45, 64
3, 24000, Note_off_c, 1, 45, 44
3, 24000, Note_on_c, 1, 46, 64
3, 24060, Note_off_c, 1, 46, 52
3, 24060, Note_on_c, 1, 52, 64
3, 24120, Note_off_c, 1, 52, 63
3, 24120, Note_on_c, 1, 43, 64
3, 24180, Note_off_c, 1, 43, 36
3, 24180, Note_on_c, 1, 46, 64
3, 24240, Note_off_c, 1, 46, 43
3, 24240, Note_on_c, 1, 52, 64
3, 24300, Note_off_c, 1, 52, 73
3, 24300, Note_on_c, 1, 55, 64
3, 24360, Note_off_c, 1, 55, 68
3, 24360, Note_on_c, 1, 53, 64
3, 24420, Note_off_c, 1, 53, 62
3, 24420, Note_on_c, 1, 52, 64
3, 24480, Note_off_c, 1, 52, 57
3, 24480, Note_on_c, 1, 53, 64
3, 24600, Note_off_c, 1, 53, 58
3, 24600, Note_on_c, 1, 45, 64
3, 24720, Note_off_c, 1, 45, 46
3, 24720, Note_on_c, 1, 50, 64
3, 24840, Note_off_c, 1, 50, 49
3, 24840, Note_on_c, 1, 48, 74
3, 24870, Note_off_c, 1, 48, 47
3, 24870, Note_on_c, 1, 46, 61
3, 24900, Note_off_c, 1, 46, 50
3, 24900, Note_on_c, 1, 48, 46
3, 24930, Note_off_c, 1, 48, 50
3, 24930, Note_on_c, 1, 46, 58
3, 24960, Note_off_c, 1, 46, 42
3, 24960, Note_on_c, 1, 48, 56
3, 24990, Note_off_c, 1, 48, 40
3, 24990, Note_on_c, 1, 46, 59
3, 25020, Note_off_c, 1, 46, 42
3, 25020, Note_on_c, 1, 45, 70
3, 25050, Note_off_c, 1, 45, 42
3, 25050, Note_on_c, 1, 46, 64
3, 25080, Note_off_c, 1, 46, 49
3, 25080, Note_on_c, 1, 48, 64
3, 25200, Note_off_c, 1, 48, 61
3, 25200, Note_on_c, 1, 41, 64
3, 25440, Note_off_c, 1, 41, 37
3, 25620, Note_on_c, 1, 48, 64
3, 25680, Note_off_c, 1, 48, 63
3, 25680, Note_on_c, 1, 45, 64
3, 25740, Note_off_c, 1, 45, 47
3, 25740, Note_on_c, 1, 48, 64
3, 25800, Note_off_c, 1, 48, 52
3, 25800, Note_on_c, 1, 41, 64
3, 25920, Note_off_c, 1, 41, 39
3, 25920, End_track
0, 0, End_of_file
