0, 0, Header, 1, 5, 240
1, 0, Start_track
1, 0, Time_signature, 4, 2, 24, 8
1, 0, Tempo, 894282
1, 31072, Tempo, 910894
1, 31200, Tempo, 731707
1, 31320, Tempo, 789474
1, 31440, Tempo, 845070
1, 31560, Tempo, 937500
1, 31616, Tempo, 1176471
1, 31680, Tempo, 882353
1, 31680, End_track
2, 0, Start_track
2, 0, Text_t, "1"
2, 3960, Note_on_c, 0, 71, 64
2, 4080, Note_off_c, 0, 71, 77
2, 4080, Note_on_c, 0, 70, 64
2, 4200, Note_off_c, 0, 70, 77
2, 4200, Note_on_c, 0, 71, 64
2, 4320, Note_off_c, 0, 71, 82
2, 4320, Note_on_c, 0, 73, 64
2, 4560, Note_off_c, 0, 73, 69
2, 4560, Note_on_c, 0, 66, 64
2, 4680, Note_off_c, 0, 66, 1
2, 4680, Note_on_c, 0, 68, 64
2, 4740, Note_off_c, 0, 68, 74
2, 4740, Note_on_c, 0, 70, 64
2, 4800, Note_off_c, 0, 70, 49
2, 4800, Note_on_c, 0, 71, 64
2, 4920, Note_off_c, 0, 71, 76
2, 4920, Note_on_c, 0, 73, 64
2, 4980, Note_off_c, 0, 73, 59
2, 4980, Note_on_c, 0, 75, 64
2, 5040, Note_off_c, 0, 75, 49
2, 5040, Note_on_c, 0, 76, 64
2, 5160, Note_off_c, 0, 76, 54
2, 5160, Note_on_c, 0, 75, 64
2, 5280, Note_off_c, 0, 75, 58
2, 5280, Note_on_c, 0, 73, 64
2, 5880, Note_off_c, 0, 73, 70
2, 5880, Note_on_c, 0, 71, 64
2, 5940, Note_off_c, 0, 71, 80
2, 5940, Note_on_c, 0, 70, 64
2, 6000, Note_off_c, 0, 70, 74
2, 6000, Note_on_c, 0, 71, 64
2, 6120, Note_off_c, 0, 71, 76
2, 6120, Note_on_c, 0, 73, 64
2, 6180, Note_off_c, 0, 73, 74
2, 6180, Note_on_c, 0, 71, 64
2, 6240, Note_off_c, 0, 71, 79
2, 6240, Note_on_c, 0, 70, 64
2, 6300, Note_off_c, 0, 70, 66
2, 6300, Note_on_c, 0, 68, 64
2, 6360, Note_off_c, 0, 68, 76
2, 6360, Note_on_c, 0, 66, 64
2, 6420, Note_off_c, 0, 66, 57
2, 6420, Note_on_c, 0, 64, 64
2, 6480, Note_off_c, 0, 64, 58
2, 6480, Note_on_c, 0, 63, 64
2, 6600, Note_off_c, 0, 63, 52
2, 6600, Note_on_c, 0, 71, 64
2, 6720, Note_off_c, 0, 71, 65
2, 6720, Note_on_c, 0, 70, 64
2, 6840, Note_off_c, 0, 70, 82
2, 6840, Note_on_c, 0, 71, 64
2, 6900, Note_off_c, 0, 71, 77
2, 6900, Note_on_c, 0, 73, 64
2, 6960, Note_off_c, 0, 73, 63
2, 6960, Note_on_c, 0, 75, 64
2, 7020, Note_off_c, 0, 75, 65
2, 7020, Note_on_c, 0, 77, 64
2, 7080, Note_off_c, 0, 77, 72
2, 7080, Note_on_c, 0, 78, 64
2, 7320, Note_off_c, 0, 78, 68
2, 7320, Note_on_c, 0, 77, 64
2, 7380, Note_off_c, 0, 77, 74
2, 7380, Note_on_c, 0, 75, 64
2, 7440, Note_off_c, 0, 75, 58
2, 7440, Note_on_c, 0, 77, 64
2, 7680, Note_off_c, 0, 77, 69
2, 7680, Note_on_c, 0, 78, 64
2, 7800, Note_off_c, 0, 78, 65
2, 7800, Note_on_c, 0, 73, 64
2, 7860, Note_off_c, 0, 73, 70
2, 7860, Note_on_c, 0, 71, 64
2, 7920, Note_off_c, 0, 71, 79
2, 7920, Note_on_c, 0, 73, 64
2, 8040, Note_off_c, 0, 73, 72
2, 8040, Note_on_c, 0, 75, 64
2, 8160, Note_off_c, 0, 75, 59
2, 8160, Note_on_c, 0, 72, 64
2, 8400, Note_off_c, 0, 72, 82
2, 8400, Note_on_c, 0, 73, 64
2, 8520, Note_off_c, 0, 73, 77
2, 8520, Note_on_c, 0, 75, 64
2, 8640, Note_off_c, 0, 75, 52
2, 8640, Note_on_c, 0, 76, 64
2, 8700, Note_off_c, 0, 76, 63
2, 8700, Note_on_c, 0, 75, 64
2, 8760, Note_off_c, 0, 75, 57
2, 8760, Note_on_c, 0, 76, 64
2, 8820, Note_off_c, 0, 76, 49
2, 8820, Note_on_c, 0, 78, 64
2, 8880, Note_off_c, 0, 78, 69
2, 8880, Note_on_c, 0, 76, 64
2, 8940, Note_off_c, 0, 76, 63
2, 8940, Note_on_c, 0, 75, 64
2, 9000, Note_off_c, 0, 75, 54
2, 9000, Note_on_c, 0, 73, 64
2, 9060, Note_off_c, 0, 73, 69
2, 9060, Note_on_c, 0, 71, 64
2, 9120, Note_off_c, 0, 71, 77
2, 9120, Note_on_c, 0, 70, 64
2, 9360, Note_off_c, 0, 70, 59
2, 9360, Note_on_c, 0, 71, 64
2, 9480, Note_off_c, 0, 71, 74
2, 9480, Note_on_c, 0, 73, 64
2, 9600, Note_off_c, 0, 73, 70
2, 9600, Note_on_c, 0, 75, 64
2, 9720, Note_off_c, 0, 75, 69
2, 9720, Note_on_c, 0, 75, 64
2, 9840, Note_off_c, 0, 75, 58
2, 9840, Note_on_c, 0, 76, 64
2, 9960, Note_off_c, 0, 76, 61
2, 9960, Note_on_c, 0, 78, 64
2, 10080, Note_off_c, 0, 78, 70
2, 10080, Note_on_c, 0, 80, 64
2, 10140, Note_off_c, 0, 80, 76
2, 10140, Note_on_c, 0, 81, 64
2, 10200, Note_off_c, 0, 81, 66
2, 10200, Note_on_c, 0, 80, 64
2, 10260, Note_off_c, 0, 80, 74
2, 10260, Note_on_c, 0, 78, 64
2, 10320, Note_off_c, 0, 78, 65
2, 10320, Note_on_c, 0, 76, 64
2, 10380, Note_off_c, 0, 76, 61
2, 10380, Note_on_c, 0, 75, 64
2, 10440, Note_off_c, 0, 75, 63
2, 10440, Note_on_c, 0, 73, 64
2, 10500, Note_off_c, 0, 73, 70
2, 10500, Note_on_c, 0, 71, 64
2, 10560, Note_off_c, 0, 71, 63
2, 10560, Note_on_c, 0, 70, 64
2, 10680, Note_off_c, 0, 70, 79
2, 10680, Note_on_c, 0, 71, 64
2, 10740, Note_off_c, 0, 71, 83
2, 10740, Note_on_c, 0, 73, 64
2, 10800, Note_off_c, 0, 73, 66
2, 10800, Note_on_c, 0, 75, 64
2, 10920, Note_off_c, 0, 75, 55
2, 10920, Note_on_c, 0, 73, 64
2, 11040, Note_off_c, 0, 73, 73
2, 11040, Note_on_c, 0, 71, 64
2, 11340, Note_off_c, 0, 71, 79
2, 11340, Note_on_c, 0, 73, 64
2, 11400, Note_off_c, 0, 73, 69
2, 11400, Note_on_c, 0, 75, 64
2, 11520, Note_off_c, 0, 75, 58
2, 11520, Note_on_c, 0, 76, 64
2, 11580, Note_off_c, 0, 76, 62
2, 11580, Note_on_c, 0, 78, 64
2, 11640, Note_off_c, 0, 78, 69
2, 11640, Note_on_c, 0, 80, 64
2, 11880, Note_off_c, 0, 80, 77
2, 11880, Note_on_c, 0, 78, 64
2, 11940, Note_off_c, 0, 78, 73
2, 11940, Note_on_c, 0, 76, 64
2, 12000, Note_off_c, 0, 76, 57
2, 12000, Note_on_c, 0, 75, 64
2, 12240, Note_off_c, 0, 75, 61
2, 12300, Note_on_c, 0, 75, 64
2, 12360, Note_off_c, 0, 75, 57
2, 12360, Note_on_c, 0, 73, 64
2, 12420, Note_off_c, 0, 73, 65
2, 12420, Note_on_c, 0, 71, 64
2, 12480, Note_off_c, 0, 71, 77
2, 12480, Note_on_c, 0, 70, 64
2, 12720, Note_off_c, 0, 70, 66
2, 12720, Note_on_c, 0, 71, 64
2, 12840, Note_off_c, 0, 71, 80
2, 12840, Note_on_c, 0, 73, 64
2, 12960, Note_off_c, 0, 73, 63
2, 12960, Note_on_c, 0, 75, 64
2, 13560, Note_off_c, 0, 75, 57
2, 13560, Note_on_c, 0, 68, 64
2, 13680, Note_off_c, 0, 68, 76
2, 13680, Note_on_c, 0, 70, 64
2, 13800, Note_off_c, 0, 70, 69
2, 13800, Note_on_c, 0, 71, 64
2, 13920, Note_off_c, 0, 71, 62
2, 13920, Note_on_c, 0, 73, 64
2, 14040, Note_off_c, 0, 73, 66
2, 14040, Note_on_c, 0, 70, 64
2, 14160, Note_off_c, 0, 70, 73
2, 14160, Note_on_c, 0, 71, 64
2, 14280, Note_off_c, 0, 71, 54
2, 14280, Note_on_c, 0, 73, 64
2, 14400, Note_off_c, 0, 73, 77
2, 14400, Note_on_c, 0, 75, 64
2, 14880, Note_off_c, 0, 75, 63
2, 14880, Note_on_c, 0, 73, 64
2, 15480, Note_off_c, 0, 73, 72
2, 15480, Note_on_c, 0, 71, 64
2, 15540, Note_off_c, 0, 71, 61
2, 15540, Note_on_c, 0, 73, 64
2, 15600, Note_off_c, 0, 73, 54
2, 15600, Note_on_c, 0, 75, 64
2, 15660, Note_off_c, 0, 75, 70
2, 15660, Note_on_c, 0, 77, 64
2, 15720, Note_off_c, 0, 77, 73
2, 15720, Note_on_c, 0, 78, 64
2, 15900, Note_off_c, 0, 78, 63
2, 15900, Note_on_c, 0, 77, 64
2, 15960, Note_off_c, 0, 77, 41
2, 15960, Note_on_c, 0, 78, 64
2, 16020, Note_off_c, 0, 78, 54
2, 16020, Note_on_c, 0, 80, 64
2, 16080, Note_off_c, 0, 80, 70
2, 16080, Note_on_c, 0, 77, 64
2, 16260, Note_off_c, 0, 77, 50
2, 16260, Note_on_c, 0, 78, 64
2, 16320, Note_off_c, 0, 78, 66
2, 16320, Note_on_c, 0, 78, 64
2, 16440, Note_off_c, 0, 78, 62
2, 16440, Note_on_c, 0, 78, 64
2, 16560, Note_off_c, 0, 78, 63
2, 16560, Note_on_c, 0, 80, 64
2, 16680, Note_off_c, 0, 80, 77
2, 16680, Note_on_c, 0, 78, 64
2, 16800, Note_off_c, 0, 78, 62
2, 16800, Note_on_c, 0, 76, 64
2, 17040, Note_off_c, 0, 76, 53
2, 17040, Note_on_c, 0, 83, 64
2, 17160, Note_off_c, 0, 83, 49
2, 17160, Note_on_c, 0, 82, 64
2, 17220, Note_off_c, 0, 82, 68
2, 17220, Note_on_c, 0, 80, 64
2, 17280, Note_off_c, 0, 80, 73
2, 17280, Note_on_c, 0, 78, 64
2, 17400, Note_off_c, 0, 78, 61
2, 17400, Note_on_c, 0, 76, 64
2, 17460, Note_off_c, 0, 76, 55
2, 17460, Note_on_c, 0, 75, 64
2, 17520, Note_off_c, 0, 75, 58
2, 17520, Note_on_c, 0, 73, 64
2, 17640, Note_off_c, 0, 73, 70
2, 17640, Note_on_c, 0, 75, 64
2, 17760, Note_off_c, 0, 75, 52
2, 17760, Note_on_c, 0, 76, 64
2, 18240, Note_off_c, 0, 76, 50
2, 18240, Note_on_c, 0, 75, 64
2, 18480, Note_off_c, 0, 75, 52
2, 18600, Note_on_c, 0, 78, 64
2, 18780, Note_off_c, 0, 78, 68
2, 18780, Note_on_c, 0, 77, 64
2, 18840, Note_off_c, 0, 77, 73
2, 18840, Note_on_c, 0, 78, 64
2, 18900, Note_off_c, 0, 78, 54
2, 18900, Note_on_c, 0, 80, 64
2, 18960, Note_off_c, 0, 80, 73
2, 18960, Note_on_c, 0, 82, 64
2, 19020, Note_off_c, 0, 82, 61
2, 19020, Note_on_c, 0, 80, 64
2, 19080, Note_off_c, 0, 80, 76
2, 19080, Note_on_c, 0, 82, 64
2, 19140, Note_off_c, 0, 82, 68
2, 19140, Note_on_c, 0, 83, 64
2, 19200, Note_off_c, 0, 83, 59
2, 19200, Note_on_c, 0, 77, 64
2, 19440, Note_off_c, 0, 77, 70
2, 19440, Note_on_c, 0, 78, 64
2, 19800, Note_off_c, 0, 78, 65
2, 19800, Note_on_c, 0, 76, 64
2, 19860, Note_off_c, 0, 76, 65
2, 19860, Note_on_c, 0, 75, 64
2, 19920, Note_off_c, 0, 75, 49
2, 19920, Note_on_c, 0, 73, 64
2, 19980, Note_off_c, 0, 73, 62
2, 19980, Note_on_c, 0, 71, 64
2, 20040, Note_off_c, 0, 71, 66
2, 20040, Note_on_c, 0, 73, 64
2, 20100, Note_off_c, 0, 73, 70
2, 20100, Note_on_c, 0, 75, 64
2, 20160, Note_off_c, 0, 75, 66
2, 20160, Note_on_c, 0, 76, 64
2, 20220, Note_off_c, 0, 76, 49
2, 20220, Note_on_c, 0, 78, 64
2, 20280, Note_off_c, 0, 78, 66
2, 20280, Note_on_c, 0, 80, 64
2, 20460, Note_off_c, 0, 80, 79
2, 20460, Note_on_c, 0, 80, 64
2, 20520, Note_off_c, 0, 80, 79
2, 20520, Note_on_c, 0, 78, 64
2, 20580, Note_off_c, 0, 78, 68
2, 20580, Note_on_c, 0, 76, 64
2, 20640, Note_off_c, 0, 76, 61
2, 20640, Note_on_c, 0, 75, 64
2, 20940, Note_off_c, 0, 75, 59
2, 20940, Note_on_c, 0, 73, 64
2, 21060, Note_off_c, 0, 73, 69
2, 21060, Note_on_c, 0, 71, 64
2, 21240, Note_off_c, 0, 71, 72
2, 21240, Note_on_c, 0, 70, 64
2, 21300, Note_off_c, 0, 70, 76
2, 21300, Note_on_c, 0, 71, 64
2, 21360, Note_off_c, 0, 71, 83
2, 21360, Note_on_c, 0, 73, 64
2, 21420, Note_off_c, 0, 73, 72
2, 21420, Note_on_c, 0, 75, 64
2, 21480, Note_off_c, 0, 75, 51
2, 21480, Note_on_c, 0, 76, 64
2, 21720, Note_off_c, 0, 76, 37
2, 21720, Note_on_c, 0, 75, 64
2, 21780, Note_off_c, 0, 75, 68
2, 21780, Note_on_c, 0, 76, 64
2, 21840, Note_off_c, 0, 76, 63
2, 21840, Note_on_c, 0, 78, 64
2, 21900, Note_off_c, 0, 78, 62
2, 21900, Note_on_c, 0, 80, 64
2, 21960, Note_off_c, 0, 80, 70
2, 21960, Note_on_c, 0, 81, 64
2, 22140, Note_off_c, 0, 81, 65
2, 22140, Note_on_c, 0, 80, 64
2, 22200, Note_off_c, 0, 80, 72
2, 22200, Note_on_c, 0, 81, 64
2, 22260, Note_off_c, 0, 81, 70
2, 22260, Note_on_c, 0, 80, 64
2, 22320, Note_off_c, 0, 80, 73
2, 22320, Note_on_c, 0, 78, 64
2, 22380, Note_off_c, 0, 78, 73
2, 22380, Note_on_c, 0, 76, 64
2, 22440, Note_off_c, 0, 76, 58
2, 22440, Note_on_c, 0, 75, 64
2, 22500, Note_off_c, 0, 75, 50
2, 22500, Note_on_c, 0, 73, 64
2, 22560, Note_off_c, 0, 73, 65
2, 22560, Note_on_c, 0, 72, 64
2, 22680, Note_off_c, 0, 72, 83
2, 22680, Note_on_c, 0, 73, 64
2, 22800, Note_off_c, 0, 73, 65
2, 22800, Note_on_c, 0, 75, 64
2, 23160, Note_off_c, 0, 75, 61
2, 23160, Note_on_c, 0, 73, 64
2, 23220, Note_off_c, 0, 73, 72
2, 23220, Note_on_c, 0, 72, 64
2, 23280, Note_off_c, 0, 72, 76
2, 23280, Note_on_c, 0, 73, 64
2, 23520, Note_off_c, 0, 73, 58
2, 23580, Note_on_c, 0, 76, 64
2, 23640, Note_off_c, 0, 76, 42
2, 23640, Note_on_c, 0, 75, 64
2, 23700, Note_off_c, 0, 75, 42
2, 23700, Note_on_c, 0, 73, 64
2, 23760, Note_off_c, 0, 73, 70
2, 23760, Note_on_c, 0, 71, 64
2, 24000, Note_off_c, 0, 71, 62
2, 24000, Note_on_c, 0, 73, 64
2, 24120, Note_off_c, 0, 73, 62
2, 24120, Note_on_c, 0, 68, 64
2, 24180, Note_off_c, 0, 68, 69
2, 24180, Note_on_c, 0, 66, 64
2, 24240, Note_off_c, 0, 66, 61
2, 24240, Note_on_c, 0, 68, 64
2, 24360, Note_off_c, 0, 68, 74
2, 24360, Note_on_c, 0, 69, 64
2, 24480, Note_off_c, 0, 69, 79
2, 24480, Note_on_c, 0, 65, 64
2, 24720, Note_off_c, 0, 65, 1
2, 24720, Note_on_c, 0, 66, 64
2, 24840, Note_off_c, 0, 66, 72
2, 24840, Note_on_c, 0, 68, 64
2, 24960, Note_off_c, 0, 68, 73
2, 24960, Note_on_c, 0, 69, 64
2, 25020, Note_off_c, 0, 69, 73
2, 25020, Note_on_c, 0, 68, 64
2, 25080, Note_off_c, 0, 68, 76
2, 25080, Note_on_c, 0, 69, 64
2, 25140, Note_off_c, 0, 69, 68
2, 25140, Note_on_c, 0, 71, 64
2, 25200, Note_off_c, 0, 71, 73
2, 25200, Note_on_c, 0, 69, 64
2, 25260, Note_off_c, 0, 69, 79
2, 25260, Note_on_c, 0, 68, 64
2, 25320, Note_off_c, 0, 68, 63
2, 25320, Note_on_c, 0, 66, 64
2, 25380, Note_off_c, 0, 66, 73
2, 25380, Note_on_c, 0, 64, 64
2, 25440, Note_off_c, 0, 64, 53
2, 25440, Note_on_c, 0, 63, 64
2, 25680, Note_off_c, 0, 63, 59
2, 25680, Note_on_c, 0, 64, 64
2, 25800, Note_off_c, 0, 64, 63
2, 25800, Note_on_c, 0, 66, 64
2, 25920, Note_off_c, 0, 66, 73
2, 25920, Note_on_c, 0, 68, 64
2, 26040, Note_off_c, 0, 68, 83
2, 26040, Note_on_c, 0, 68, 64
2, 26160, Note_off_c, 0, 68, 74
2, 26160, Note_on_c, 0, 70, 64
2, 26280, Note_off_c, 0, 70, 80
2, 26280, Note_on_c, 0, 71, 64
2, 26400, Note_off_c, 0, 71, 79
2, 26400, Note_on_c, 0, 73, 64
2, 27000, Note_off_c, 0, 73, 74
2, 28920, Note_on_c, 0, 78, 64
2, 29040, Note_off_c, 0, 78, 72
2, 29040, Note_on_c, 0, 75, 64
2, 29160, Note_off_c, 0, 75, 51
2, 29160, Note_on_c, 0, 76, 64
2, 29280, Note_off_c, 0, 76, 53
2, 29280, Note_on_c, 0, 78, 64
2, 29520, Note_off_c, 0, 78, 63
2, 29520, Note_on_c, 0, 71, 64
2, 29640, Note_off_c, 0, 71, 51
2, 29640, Note_on_c, 0, 75, 64
2, 29700, Note_off_c, 0, 75, 63
2, 29700, Note_on_c, 0, 77, 64
2, 29760, Note_off_c, 0, 77, 70
2, 29760, Note_on_c, 0, 78, 64
2, 29880, Note_off_c, 0, 78, 62
2, 29880, Note_on_c, 0, 80, 64
2, 29940, Note_off_c, 0, 80, 73
2, 29940, Note_on_c, 0, 82, 64
2, 30000, Note_off_c, 0, 82, 74
2, 30000, Note_on_c, 0, 83, 64
2, 30120, Note_off_c, 0, 83, 50
2, 30120, Note_on_c, 0, 82, 64
2, 30240, Note_off_c, 0, 82, 68
2, 30240, Note_on_c, 0, 80, 64
2, 30720, Note_off_c, 0, 80, 76
2, 30720, Note_on_c, 0, 78, 64
2, 31080, Note_off_c, 0, 78, 69
2, 31080, Note_on_c, 0, 76, 64
2, 31140, Note_off_c, 0, 76, 59
2, 31140, Note_on_c, 0, 75, 64
2, 31200, Note_off_c, 0, 75, 62
2, 31200, Note_on_c, 0, 73, 64
2, 31260, Note_off_c, 0, 73, 62
2, 31260, Note_on_c, 0, 75, 64
2, 31320, Note_off_c, 0, 75, 57
2, 31320, Note_on_c, 0, 76, 64
2, 31500, Note_off_c, 0, 76, 61
2, 31500, Note_on_c, 0, 80, 64
2, 31560, Note_off_c, 0, 80, 63
2, 31560, Note_on_c, 0, 78, 64
2, 31620, Note_off_c, 0, 78, 51
2, 31620, Note_on_c, 0, 76, 64
2, 31680, Note_off_c, 0, 76, 54
2, 31680, Note_on_c, 0, 75, 64
2, 32640, Note_off_c, 0, 75, 74
2, 32640, End_track
3, 0, Start_track
3, 0, Text_t, "2"
3, 2040, Note_on_c, 1, 66, 64
3, 2160, Note_off_c, 1, 66, 69
3, 2160, Note_on_c, 1, 63, 64
3, 2280, Note_off_c, 1, 63, 53
3, 2280, Note_on_c, 1, 64, 64
3, 2400, Note_off_c, 1, 64, 57
3, 2400, Note_on_c, 1, 66, 64
3, 2640, Note_off_c, 1, 66, 76
3, 2640, Note_on_c, 1, 59, 64
3, 2760, Note_off_c, 1, 59, 16
3, 2760, Note_on_c, 1, 63, 64
3, 2820, Note_off_c, 1, 63, 57
3, 2820, Note_on_c, 1, 65, 64
3, 2880, Note_off_c, 1, 65, 1
3, 2880, Note_on_c, 1, 66, 64
3, 3000, Note_off_c, 1, 66, 80
3, 3000, Note_on_c, 1, 68, 64
3, 3060, Note_off_c, 1, 68, 82
3, 3060, Note_on_c, 1, 70, 64
3, 3120, Note_off_c, 1, 70, 74
3, 3120, Note_on_c, 1, 71, 64
3, 3240, Note_off_c, 1, 71, 79
3, 3240, Note_on_c, 1, 70, 64
3, 3350, Note_off_c, 1, 70, 73
3, 3363, Note_on_c, 1, 70, 70
3, 3383, Note_off_c, 1, 70, 77
3, 3383, Note_on_c, 1, 68, 46
3, 3403, Note_on_c, 1, 70, 47
3, 3406, Note_off_c, 1, 68, 80
3, 3423, Note_on_c, 1, 68, 48
3, 3426, Note_off_c, 1, 70, 80
3, 3443, Note_on_c, 1, 70, 49
3, 3446, Note_off_c, 1, 68, 77
3, 3463, Note_on_c, 1, 68, 50
3, 3466, Note_off_c, 1, 70, 82
3, 3483, Note_on_c, 1, 70, 51
3, 3486, Note_off_c, 1, 68, 83
3, 3503, Note_on_c, 1, 68, 52
3, 3506, Note_off_c, 1, 70, 80
3, 3523, Note_on_c, 1, 70, 53
3, 3526, Note_off_c, 1, 68, 82
3, 3543, Note_on_c, 1, 68, 54
3, 3546, Note_off_c, 1, 70, 79
3, 3563, Note_on_c, 1, 70, 55
3, 3566, Note_off_c, 1, 68, 82
3, 3583, Note_on_c, 1, 68, 56
3, 3586, Note_off_c, 1, 70, 79
3, 3603, Note_on_c, 1, 70, 57
3, 3606, Note_off_c, 1, 68, 82
3, 3623, Note_on_c, 1, 68, 58
3, 3626, Note_off_c, 1, 70, 77
3, 3643, Note_on_c, 1, 70, 59
3, 3646, Note_off_c, 1, 68, 77
3, 3663, Note_on_c, 1, 68, 60
3, 3666, Note_off_c, 1, 70, 73
3, 3683, Note_on_c, 1, 70, 61
3, 3686, Note_off_c, 1, 68, 80
3, 3703, Note_on_c, 1, 68, 62
3, 3706, Note_off_c, 1, 70, 79
3, 3723, Note_on_c, 1, 70, 63
3, 3726, Note_off_c, 1, 68, 77
3, 3743, Note_on_c, 1, 68, 64
3, 3746, Note_off_c, 1, 70, 72
3, 3763, Note_on_c, 1, 70, 65
3, 3766, Note_off_c, 1, 68, 77
3, 3783, Note_on_c, 1, 68, 66
3, 3786, Note_off_c, 1, 70, 77
3, 3803, Note_on_c, 1, 70, 67
3, 3806, Note_off_c, 1, 68, 76
3, 3823, Note_on_c, 1, 68, 64
3, 3826, Note_off_c, 1, 70, 79
3, 3843, Note_off_c, 1, 68, 70
3, 3843, Note_on_c, 1, 66, 64
3, 4083, Note_off_c, 1, 66, 76
3, 4203, Note_on_c, 1, 68, 64
3, 4263, Note_off_c, 1, 68, 70
3, 4263, Note_on_c, 1, 66, 64
3, 4323, Note_off_c, 1, 66, 68
3, 4323, Note_on_c, 1, 64, 64
3, 4383, Note_off_c, 1, 64, 58
3, 4383, Note_on_c, 1, 63, 64
3, 4443, Note_off_c, 1, 63, 62
3, 4443, Note_on_c, 1, 61, 64
3, 4503, Note_off_c, 1, 61, 66
3, 4503, Note_on_c, 1, 59, 64
3, 4563, Note_off_c, 1, 59, 55
3, 4563, Note_on_c, 1, 58, 64
3, 4683, Note_off_c, 1, 58, 72
3, 4683, Note_on_c, 1, 66, 64
3, 4803, Note_off_c, 1, 66, 62
3, 4803, Note_on_c, 1, 63, 64
3, 4923, Note_off_c, 1, 63, 65
3, 4923, Note_on_c, 1, 64, 64
3, 4983, Note_off_c, 1, 64, 61
3, 4983, Note_on_c, 1, 66, 64
3, 5043, Note_off_c, 1, 66, 72
3, 5043, Note_on_c, 1, 68, 64
3, 5103, Note_off_c, 1, 68, 69
3, 5103, Note_on_c, 1, 70, 64
3, 5163, Note_off_c, 1, 70, 70
3, 5163, Note_on_c, 1, 71, 64
3, 5403, Note_off_c, 1, 71, 74
3, 5403, Note_on_c, 1, 70, 64
3, 5463, Note_off_c, 1, 70, 73
3, 5463, Note_on_c, 1, 68, 64
3, 5523, Note_off_c, 1, 68, 79
3, 5523, Note_on_c, 1, 70, 64
3, 5583, Note_off_c, 1, 70, 76
3, 5583, Note_on_c, 1, 71, 64
3, 5643, Note_off_c, 1, 71, 77
3, 5643, Note_on_c, 1, 70, 64
3, 5703, Note_off_c, 1, 70, 73
3, 5703, Note_on_c, 1, 68, 64
3, 5763, Note_off_c, 1, 68, 72
3, 5763, Note_on_c, 1, 66, 64
3, 6123, Note_off_c, 1, 66, 69
3, 6123, Note_on_c, 1, 64, 64
3, 6363, Note_off_c, 1, 64, 50
3, 6363, Note_on_c, 1, 63, 64
3, 6423, Note_off_c, 1, 63, 57
3, 6423, Note_on_c, 1, 61, 64
3, 6483, Note_off_c, 1, 61, 63
3, 6543, Note_on_c, 1, 64, 64
3, 6603, Note_off_c, 1, 64, 46
3, 6603, Note_on_c, 1, 66, 64
3, 6663, Note_off_c, 1, 66, 72
3, 6663, Note_on_c, 1, 68, 64
3, 6723, Note_off_c, 1, 68, 76
3, 6723, Note_on_c, 1, 61, 64
3, 6963, Note_off_c, 1, 61, 69
3, 7083, Note_on_c, 1, 75, 64
3, 7143, Note_off_c, 1, 75, 70
3, 7143, Note_on_c, 1, 73, 64
3, 7203, Note_off_c, 1, 73, 76
3, 7203, Note_on_c, 1, 71, 64
3, 7323, Note_off_c, 1, 71, 82
3, 7323, Note_on_c, 1, 68, 64
3, 7443, Note_off_c, 1, 68, 82
3, 7503, Note_on_c, 1, 75, 64
3, 7563, Note_off_c, 1, 75, 65
3, 7563, Note_on_c, 1, 73, 64
3, 7623, Note_off_c, 1, 73, 68
3, 7623, Note_on_c, 1, 71, 64
3, 7683, Note_off_c, 1, 71, 76
3, 7683, Note_on_c, 1, 70, 64
3, 7923, Note_off_c, 1, 70, 68
3, 7983, Note_on_c, 1, 68, 64
3, 8043, Note_off_c, 1, 68, 77
3, 8043, Note_on_c, 1, 66, 64
3, 8103, Note_off_c, 1, 66, 68
3, 8103, Note_on_c, 1, 64, 64
3, 8163, Note_off_c, 1, 64, 58
3, 8163, Note_on_c, 1, 63, 64
3, 8403, Note_off_c, 1, 63, 52
3, 8403, Note_on_c, 1, 64, 64
3, 8523, Note_off_c, 1, 64, 59
3, 8523, Note_on_c, 1, 66, 64
3, 8643, Note_off_c, 1, 66, 70
3, 8643, Note_on_c, 1, 68, 64
3, 9243, Note_off_c, 1, 68, 76
3, 9243, Note_on_c, 1, 61, 64
3, 9363, Note_off_c, 1, 61, 72
3, 9363, Note_on_c, 1, 63, 64
3, 9483, Note_off_c, 1, 63, 52
3, 9483, Note_on_c, 1, 64, 64
3, 9603, Note_off_c, 1, 64, 62
3, 9603, Note_on_c, 1, 66, 64
3, 9723, Note_off_c, 1, 66, 79
3, 9723, Note_on_c, 1, 71, 64
3, 9843, Note_off_c, 1, 71, 83
3, 9843, Note_on_c, 1, 73, 64
3, 9963, Note_off_c, 1, 73, 65
3, 9963, Note_on_c, 1, 75, 64
3, 10083, Note_off_c, 1, 75, 53
3, 10083, Note_on_c, 1, 76, 64
3, 10203, Note_off_c, 1, 76, 61
3, 10923, Note_on_c, 1, 66, 64
3, 11043, Note_off_c, 1, 66, 63
3, 11043, Note_on_c, 1, 63, 64
3, 11163, Note_off_c, 1, 63, 52
3, 11163, Note_on_c, 1, 64, 64
3, 11223, Note_off_c, 1, 64, 62
3, 11223, Note_on_c, 1, 66, 64
3, 11283, Note_off_c, 1, 66, 74
3, 11283, Note_on_c, 1, 68, 64
3, 11343, Note_off_c, 1, 68, 62
3, 11343, Note_on_c, 1, 70, 64
3, 11403, Note_off_c, 1, 70, 66
3, 11403, Note_on_c, 1, 71, 64
3, 11643, Note_off_c, 1, 71, 79
3, 11643, Note_on_c, 1, 70, 64
3, 11703, Note_off_c, 1, 70, 73
3, 11703, Note_on_c, 1, 68, 64
3, 11763, Note_off_c, 1, 68, 69
3, 11763, Note_on_c, 1, 70, 64
3, 12123, Note_off_c, 1, 70, 74
3, 12123, Note_on_c, 1, 68, 64
3, 12183, Note_off_c, 1, 68, 65
3, 12183, Note_on_c, 1, 67, 64
3, 12243, Note_off_c, 1, 67, 53
3, 12243, Note_on_c, 1, 68, 64
3, 12363, Note_off_c, 1, 68, 76
3, 12363, Note_on_c, 1, 70, 64
3, 12483, Note_off_c, 1, 70, 70
3, 12483, Note_on_c, 1, 67, 64
3, 12723, Note_off_c, 1, 67, 59
3, 12723, Note_on_c, 1, 68, 64
3, 12843, Note_off_c, 1, 68, 76
3, 12843, Note_on_c, 1, 70, 64
3, 12963, Note_off_c, 1, 70, 72
3, 12963, Note_on_c, 1, 71, 64
3, 13023, Note_off_c, 1, 71, 80
3, 13023, Note_on_c, 1, 70, 64
3, 13083, Note_off_c, 1, 70, 77
3, 13083, Note_on_c, 1, 71, 64
3, 13143, Note_off_c, 1, 71, 82
3, 13143, Note_on_c, 1, 73, 64
3, 13203, Note_off_c, 1, 73, 74
3, 13203, Note_on_c, 1, 71, 64
3, 13263, Note_off_c, 1, 71, 79
3, 13263, Note_on_c, 1, 70, 64
3, 13323, Note_off_c, 1, 70, 69
3, 13323, Note_on_c, 1, 68, 64
3, 13383, Note_off_c, 1, 68, 72
3, 13383, Note_on_c, 1, 66, 64
3, 13443, Note_off_c, 1, 66, 66
3, 13443, Note_on_c, 1, 65, 64
3, 13683, Note_off_c, 1, 65, 1
3, 13683, Note_on_c, 1, 66, 64
3, 13803, Note_off_c, 1, 66, 79
3, 13803, Note_on_c, 1, 68, 64
3, 13923, Note_off_c, 1, 68, 73
3, 13923, Note_on_c, 1, 70, 64
3, 14043, Note_off_c, 1, 70, 53
3, 14043, Note_on_c, 1, 61, 64
3, 14163, Note_off_c, 1, 61, 40
3, 14163, Note_on_c, 1, 63, 64
3, 14283, Note_off_c, 1, 63, 59
3, 14283, Note_on_c, 1, 64, 64
3, 14403, Note_off_c, 1, 64, 52
3, 14403, Note_on_c, 1, 66, 64
3, 14523, Note_off_c, 1, 66, 82
3, 14523, Note_on_c, 1, 66, 64
3, 14643, Note_off_c, 1, 66, 83
3, 14643, Note_on_c, 1, 65, 64
3, 14763, Note_off_c, 1, 65, 1
3, 14763, Note_on_c, 1, 66, 64
3, 14883, Note_off_c, 1, 66, 80
3, 14883, Note_on_c, 1, 68, 64
3, 15123, Note_off_c, 1, 68, 77
3, 15123, Note_on_c, 1, 61, 64
3, 15243, Note_off_c, 1, 61, 66
3, 15243, Note_on_c, 1, 63, 64
3, 15303, Note_off_c, 1, 63, 68
3, 15303, Note_on_c, 1, 65, 64
3, 15363, Note_off_c, 1, 65, 74
3, 15363, Note_on_c, 1, 66, 64
3, 15483, Note_off_c, 1, 66, 79
3, 15483, Note_on_c, 1, 68, 64
3, 15543, Note_off_c, 1, 68, 73
3, 15543, Note_on_c, 1, 70, 64
3, 15603, Note_off_c, 1, 70, 83
3, 15603, Note_on_c, 1, 71, 64
3, 15723, Note_off_c, 1, 71, 83
3, 15723, Note_on_c, 1, 70, 64
3, 15843, Note_off_c, 1, 70, 79
3, 15843, Note_on_c, 1, 68, 64
3, 16143, Note_off_c, 1, 68, 76
3, 16143, Note_on_c, 1, 70, 64
3, 16203, Note_off_c, 1, 70, 69
3, 16203, Note_on_c, 1, 71, 64
3, 16323, Note_off_c, 1, 71, 76
3, 16323, Note_on_c, 1, 70, 64
3, 16563, Note_off_c, 1, 70, 70
3, 16563, Note_on_c, 1, 72, 64
3, 16683, Note_off_c, 1, 72, 77
3, 16683, Note_on_c, 1, 75, 64
3, 16923, Note_off_c, 1, 75, 48
3, 16923, Note_on_c, 1, 73, 64
3, 17043, Note_off_c, 1, 73, 74
3, 17343, Note_on_c, 1, 63, 64
3, 17403, Note_off_c, 1, 63, 53
3, 17403, Note_on_c, 1, 64, 64
3, 17463, Note_off_c, 1, 64, 49
3, 17463, Note_on_c, 1, 66, 64
3, 17523, Note_off_c, 1, 66, 79
3, 17523, Note_on_c, 1, 68, 64
3, 17583, Note_off_c, 1, 68, 79
3, 17583, Note_on_c, 1, 66, 64
3, 17643, Note_off_c, 1, 66, 82
3, 17643, Note_on_c, 1, 64, 64
3, 17703, Note_off_c, 1, 64, 59
3, 17703, Note_on_c, 1, 63, 64
3, 17763, Note_off_c, 1, 63, 59
3, 17763, Note_on_c, 1, 61, 64
3, 18003, Note_off_c, 1, 61, 73
3, 18003, Note_on_c, 1, 73, 64
3, 18363, Note_off_c, 1, 73, 74
3, 18363, Note_on_c, 1, 71, 64
3, 18483, Note_off_c, 1, 71, 69
3, 18483, Note_on_c, 1, 75, 64
3, 18603, Note_off_c, 1, 75, 58
3, 18603, Note_on_c, 1, 73, 64
3, 18723, Note_off_c, 1, 73, 69
3, 18723, Note_on_c, 1, 71, 64
3, 18963, Note_off_c, 1, 71, 73
3, 18963, Note_on_c, 1, 78, 64
3, 19083, Note_off_c, 1, 78, 51
3, 19083, Note_on_c, 1, 77, 64
3, 19143, Note_off_c, 1, 77, 69
3, 19143, Note_on_c, 1, 75, 64
3, 19203, Note_off_c, 1, 75, 63
3, 19203, Note_on_c, 1, 73, 64
3, 19323, Note_off_c, 1, 73, 72
3, 19323, Note_on_c, 1, 71, 64
3, 19383, Note_off_c, 1, 71, 82
3, 19383, Note_on_c, 1, 70, 64
3, 19443, Note_off_c, 1, 70, 76
3, 19443, Note_on_c, 1, 68, 64
3, 19563, Note_off_c, 1, 68, 79
3, 19563, Note_on_c, 1, 70, 64
3, 19683, Note_off_c, 1, 70, 74
3, 19683, Note_on_c, 1, 71, 64
3, 20403, Note_off_c, 1, 71, 82
3, 20403, Note_on_c, 1, 70, 64
3, 20523, Note_off_c, 1, 70, 72
3, 20523, Note_on_c, 1, 73, 64
3, 20703, Note_off_c, 1, 73, 69
3, 20703, Note_on_c, 1, 73, 64
3, 20763, Note_off_c, 1, 73, 74
3, 20763, Note_on_c, 1, 71, 64
3, 20823, Note_off_c, 1, 71, 83
3, 20823, Note_on_c, 1, 70, 64
3, 20883, Note_off_c, 1, 70, 73
3, 20883, Note_on_c, 1, 68, 64
3, 21003, Note_off_c, 1, 68, 77
3, 21003, Note_on_c, 1, 66, 64
3, 21123, Note_off_c, 1, 66, 69
3, 21123, Note_on_c, 1, 64, 64
3, 21543, Note_off_c, 1, 64, 59
3, 21543, Note_on_c, 1, 66, 64
3, 21603, Note_off_c, 1, 66, 74
3, 21603, Note_on_c, 1, 68, 64
3, 21663, Note_off_c, 1, 68, 80
3, 21663, Note_on_c, 1, 70, 64
3, 21723, Note_off_c, 1, 70, 76
3, 21723, Note_on_c, 1, 71, 64
3, 21963, Note_off_c, 1, 71, 80
3, 21963, Note_on_c, 1, 73, 64
3, 22023, Note_off_c, 1, 73, 73
3, 22023, Note_on_c, 1, 75, 64
3, 22083, Note_off_c, 1, 75, 55
3, 22083, Note_on_c, 1, 76, 64
3, 22203, Note_off_c, 1, 76, 62
3, 24303, Note_on_c, 1, 61, 64
3, 24363, Note_off_c, 1, 61, 68
3, 24363, Note_on_c, 1, 59, 64
3, 24423, Note_off_c, 1, 59, 53
3, 24423, Note_on_c, 1, 57, 64
3, 24483, Note_off_c, 1, 57, 16
3, 24483, Note_on_c, 1, 56, 64
3, 24723, Note_off_c, 1, 56, 58
3, 24723, Note_on_c, 1, 57, 64
3, 24843, Note_off_c, 1, 57, 58
3, 24843, Note_on_c, 1, 63, 64
3, 24963, Note_off_c, 1, 63, 43
3, 24963, Note_on_c, 1, 61, 64
3, 25563, Note_off_c, 1, 61, 65
3, 25563, Note_on_c, 1, 54, 64
3, 25683, Note_off_c, 1, 54, 65
3, 25683, Note_on_c, 1, 56, 64
3, 25803, Note_off_c, 1, 56, 63
3, 25803, Note_on_c, 1, 57, 64
3, 25923, Note_off_c, 1, 57, 66
3, 25923, Note_on_c, 1, 59, 64
3, 26043, Note_off_c, 1, 59, 68
3, 26043, Note_on_c, 1, 59, 64
3, 26163, Note_off_c, 1, 59, 69
3, 26163, Note_on_c, 1, 61, 64
3, 26283, Note_off_c, 1, 61, 77
3, 26283, Note_on_c, 1, 63, 64
3, 26403, Note_off_c, 1, 63, 68
3, 26403, Note_on_c, 1, 64, 64
3, 26463, Note_off_c, 1, 64, 61
3, 26463, Note_on_c, 1, 71, 64
3, 26523, Note_off_c, 1, 71, 61
3, 26523, Note_on_c, 1, 70, 64
3, 26583, Note_off_c, 1, 70, 69
3, 26583, Note_on_c, 1, 68, 64
3, 26643, Note_off_c, 1, 68, 82
3, 26643, Note_on_c, 1, 66, 64
3, 26703, Note_off_c, 1, 66, 66
3, 26703, Note_on_c, 1, 64, 64
3, 26763, Note_off_c, 1, 64, 46
3, 26763, Note_on_c, 1, 63, 64
3, 26823, Note_off_c, 1, 63, 65
3, 26823, Note_on_c, 1, 61, 64
3, 26883, Note_off_c, 1, 61, 63
3, 26883, Note_on_c, 1, 63, 64
3, 27003, Note_off_c, 1, 63, 68
3, 27003, Note_on_c, 1, 71, 64
3, 27123, Note_off_c, 1, 71, 79
3, 27123, Note_on_c, 1, 70, 64
3, 27243, Note_off_c, 1, 70, 82
3, 27243, Note_on_c, 1, 71, 64
3, 27363, Note_off_c, 1, 71, 76
3, 27363, Note_on_c, 1, 73, 64
3, 27603, Note_off_c, 1, 73, 69
3, 27603, Note_on_c, 1, 66, 64
3, 27723, Note_off_c, 1, 66, 69
3, 27723, Note_on_c, 1, 68, 64
3, 27783, Note_off_c, 1, 68, 77
3, 27783, Note_on_c, 1, 70, 64
3, 27843, Note_off_c, 1, 70, 76
3, 27843, Note_on_c, 1, 71, 64
3, 27963, Note_off_c, 1, 71, 83
3, 27963, Note_on_c, 1, 73, 64
3, 28023, Note_off_c, 1, 73, 72
3, 28023, Note_on_c, 1, 75, 64
3, 28083, Note_off_c, 1, 75, 54
3, 28083, Note_on_c, 1, 76, 64
3, 28203, Note_off_c, 1, 76, 65
3, 28203, Note_on_c, 1, 75, 64
3, 28323, Note_off_c, 1, 75, 58
3, 28323, Note_on_c, 1, 73, 64
3, 28923, Note_off_c, 1, 73, 73
3, 28923, Note_on_c, 1, 71, 64
3, 28983, Note_off_c, 1, 71, 80
3, 28983, Note_on_c, 1, 70, 64
3, 29043, Note_off_c, 1, 70, 70
3, 29043, Note_on_c, 1, 71, 64
3, 29163, Note_off_c, 1, 71, 79
3, 29163, Note_on_c, 1, 73, 64
3, 29223, Note_off_c, 1, 73, 61
3, 29223, Note_on_c, 1, 71, 64
3, 29283, Note_off_c, 1, 71, 79
3, 29283, Note_on_c, 1, 70, 64
3, 29343, Note_off_c, 1, 70, 80
3, 29343, Note_on_c, 1, 68, 64
3, 29403, Note_off_c, 1, 68, 73
3, 29403, Note_on_c, 1, 66, 64
3, 29463, Note_off_c, 1, 66, 62
3, 29463, Note_on_c, 1, 64, 64
3, 29523, Note_off_c, 1, 64, 51
3, 29523, Note_on_c, 1, 63, 64
3, 29643, Note_off_c, 1, 63, 46
3, 29643, Note_on_c, 1, 71, 64
3, 29763, Note_off_c, 1, 71, 58
3, 29763, Note_on_c, 1, 70, 64
3, 29883, Note_off_c, 1, 70, 66
3, 29883, Note_on_c, 1, 71, 64
3, 29943, Note_off_c, 1, 71, 80
3, 29943, Note_on_c, 1, 73, 64
3, 30003, Note_off_c, 1, 73, 62
3, 30003, Note_on_c, 1, 75, 64
3, 30063, Note_off_c, 1, 75, 57
3, 30063, Note_on_c, 1, 77, 64
3, 30123, Note_off_c, 1, 77, 73
3, 30123, Note_on_c, 1, 78, 64
3, 30363, Note_off_c, 1, 78, 62
3, 30363, Note_on_c, 1, 76, 64
3, 30423, Note_off_c, 1, 76, 57
3, 30423, Note_on_c, 1, 75, 64
3, 30483, Note_off_c, 1, 75, 55
3, 30483, Note_on_c, 1, 76, 64
3, 30843, Note_off_c, 1, 76, 58
3, 30843, Note_on_c, 1, 75, 64
3, 30903, Note_off_c, 1, 75, 58
3, 30903, Note_on_c, 1, 73, 64
3, 30963, Note_off_c, 1, 73, 73
3, 30963, Note_on_c, 1, 71, 64
3, 31443, Note_off_c, 1, 71, 73
3, 31443, Note_on_c, 1, 70, 64
3, 31683, Note_off_c, 1, 70, 72
3, 31683, Note_on_c, 1, 71, 64
3, 32643, Note_off_c, 1, 71, 80
3, 32643, End_track
4, 0, Start_track
4, 0, Text_t, "3"
4, 120, Note_on_c, 2, 59, 64
4, 240, Note_off_c, 2, 59, 64
4, 240, Note_on_c, 2, 58, 64
4, 360, Note_off_c, 2, 58, 64
4, 360, Note_on_c, 2, 59, 64
4, 480, Note_off_c, 2, 59, 64
4, 480, Note_on_c, 2, 61, 64
4, 720, Note_off_c, 2, 61, 64
4, 720, Note_on_c, 2, 54, 64
4, 840, Note_off_c, 2, 54, 64
4, 840, Note_on_c, 2, 56, 64
4, 900, Note_off_c, 2, 56, 64
4, 900, Note_on_c, 2, 58, 64
4, 960, Note_off_c, 2, 58, 64
4, 960, Note_on_c, 2, 59, 64
4, 1080, Note_off_c, 2, 59, 64
4, 1080, Note_on_c, 2, 61, 64
4, 1140, Note_off_c, 2, 61, 64
4, 1140, Note_on_c, 2, 63, 64
4, 1200, Note_off_c, 2, 63, 64
4, 1200, Note_on_c, 2, 64, 64
4, 1320, Note_off_c, 2, 64, 64
4, 1320, Note_on_c, 2, 63, 64
4, 1430, Note_off_c, 2, 63, 64
4, 1443, Note_on_c, 2, 63, 70
4, 1463, Note_off_c, 2, 63, 62
4, 1463, Note_on_c, 2, 61, 46
4, 1483, Note_on_c, 2, 63, 47
4, 1486, Note_off_c, 2, 61, 65
4, 1503, Note_on_c, 2, 61, 48
4, 1506, Note_off_c, 2, 63, 59
4, 1523, Note_on_c, 2, 63, 49
4, 1526, Note_off_c, 2, 61, 69
4, 1543, Note_on_c, 2, 61, 50
4, 1546, Note_off_c, 2, 63, 63
4, 1563, Note_on_c, 2, 63, 51
4, 1566, Note_off_c, 2, 61, 65
4, 1583, Note_on_c, 2, 61, 52
4, 1586, Note_off_c, 2, 63, 53
4, 1603, Note_on_c, 2, 63, 53
4, 1606, Note_off_c, 2, 61, 66
4, 1623, Note_on_c, 2, 61, 54
4, 1626, Note_off_c, 2, 63, 52
4, 1643, Note_on_c, 2, 63, 55
4, 1646, Note_off_c, 2, 61, 68
4, 1663, Note_on_c, 2, 61, 56
4, 1666, Note_off_c, 2, 63, 61
4, 1683, Note_on_c, 2, 63, 57
4, 1686, Note_off_c, 2, 61, 63
4, 1703, Note_on_c, 2, 61, 58
4, 1706, Note_off_c, 2, 63, 49
4, 1723, Note_on_c, 2, 63, 59
4, 1726, Note_off_c, 2, 61, 62
4, 1743, Note_on_c, 2, 61, 60
4, 1746, Note_off_c, 2, 63, 52
4, 1763, Note_on_c, 2, 63, 61
4, 1766, Note_off_c, 2, 61, 49
4, 1783, Note_on_c, 2, 61, 62
4, 1786, Note_off_c, 2, 63, 50
4, 1803, Note_on_c, 2, 63, 63
4, 1806, Note_off_c, 2, 61, 52
4, 1823, Note_on_c, 2, 61, 64
4, 1826, Note_off_c, 2, 63, 48
4, 1843, Note_on_c, 2, 63, 65
4, 1846, Note_off_c, 2, 61, 61
4, 1863, Note_on_c, 2, 61, 66
4, 1866, Note_off_c, 2, 63, 54
4, 1883, Note_on_c, 2, 63, 67
4, 1886, Note_off_c, 2, 61, 55
4, 1903, Note_on_c, 2, 61, 62
4, 1906, Note_off_c, 2, 63, 48
4, 1923, Note_off_c, 2, 61, 48
4, 1923, Note_on_c, 2, 59, 64
4, 2283, Note_off_c, 2, 59, 64
4, 2283, Note_on_c, 2, 61, 64
4, 2343, Note_off_c, 2, 61, 64
4, 2343, Note_on_c, 2, 59, 64
4, 2403, Note_off_c, 2, 59, 64
4, 2403, Note_on_c, 2, 58, 64
4, 2463, Note_off_c, 2, 58, 64
4, 2463, Note_on_c, 2, 56, 64
4, 2523, Note_off_c, 2, 56, 64
4, 2523, Note_on_c, 2, 54, 64
4, 2583, Note_off_c, 2, 54, 64
4, 2583, Note_on_c, 2, 52, 64
4, 2643, Note_off_c, 2, 52, 64
4, 2643, Note_on_c, 2, 51, 64
4, 2763, Note_off_c, 2, 51, 64
4, 2763, Note_on_c, 2, 59, 64
4, 2883, Note_off_c, 2, 59, 64
4, 2883, Note_on_c, 2, 58, 64
4, 3003, Note_off_c, 2, 58, 64
4, 3003, Note_on_c, 2, 59, 64
4, 3063, Note_off_c, 2, 59, 64
4, 3063, Note_on_c, 2, 61, 64
4, 3123, Note_off_c, 2, 61, 64
4, 3123, Note_on_c, 2, 63, 64
4, 3183, Note_off_c, 2, 63, 64
4, 3183, Note_on_c, 2, 65, 64
4, 3243, Note_off_c, 2, 65, 64
4, 3243, Note_on_c, 2, 66, 64
4, 3483, Note_off_c, 2, 66, 64
4, 3483, Note_on_c, 2, 64, 64
4, 3543, Note_off_c, 2, 64, 64
4, 3543, Note_on_c, 2, 63, 64
4, 3603, Note_off_c, 2, 63, 64
4, 3603, Note_on_c, 2, 64, 64
4, 3663, Note_off_c, 2, 64, 64
4, 3663, Note_on_c, 2, 59, 64
4, 3723, Note_off_c, 2, 59, 64
4, 3723, Note_on_c, 2, 64, 64
4, 3963, Note_off_c, 2, 64, 64
4, 3963, Note_on_c, 2, 63, 64
4, 4083, Note_off_c, 2, 63, 64
4, 4083, Note_on_c, 2, 61, 64
4, 4203, Note_off_c, 2, 61, 64
4, 4203, Note_on_c, 2, 59, 64
4, 4443, Note_off_c, 2, 59, 64
4, 4443, Note_on_c, 2, 58, 64
4, 4503, Note_off_c, 2, 58, 64
4, 4503, Note_on_c, 2, 56, 64
4, 4563, Note_off_c, 2, 56, 64
4, 4683, Note_on_c, 2, 63, 64
4, 4803, Note_off_c, 2, 63, 64
4, 4803, Note_on_c, 2, 56, 64
4, 5043, Note_off_c, 2, 56, 64
4, 5163, Note_on_c, 2, 68, 64
4, 5223, Note_off_c, 2, 68, 74
4, 5223, Note_on_c, 2, 66, 64
4, 5283, Note_off_c, 2, 66, 73
4, 5283, Note_on_c, 2, 64, 64
4, 5403, Note_off_c, 2, 64, 49
4, 5403, Note_on_c, 2, 61, 64
4, 5523, Note_off_c, 2, 61, 66
4, 5643, Note_on_c, 2, 66, 64
4, 5703, Note_off_c, 2, 66, 70
4, 5703, Note_on_c, 2, 64, 64
4, 5763, Note_off_c, 2, 64, 49
4, 5763, Note_on_c, 2, 63, 64
4, 5883, Note_off_c, 2, 63, 62
4, 5883, Note_on_c, 2, 61, 64
4, 6003, Note_off_c, 2, 61, 66
4, 6003, Note_on_c, 2, 59, 64
4, 6123, Note_off_c, 2, 59, 68
4, 6123, Note_on_c, 2, 56, 64
4, 6243, Note_off_c, 2, 56, 53
4, 10203, Note_on_c, 2, 59, 64
4, 10323, Note_off_c, 2, 59, 64
4, 10323, Note_on_c, 2, 58, 64
4, 10443, Note_off_c, 2, 58, 64
4, 10443, Note_on_c, 2, 59, 64
4, 10563, Note_off_c, 2, 59, 64
4, 10563, Note_on_c, 2, 61, 64
4, 10803, Note_off_c, 2, 61, 64
4, 10803, Note_on_c, 2, 54, 64
4, 10923, Note_off_c, 2, 54, 64
4, 10923, Note_on_c, 2, 56, 64
4, 10983, Note_off_c, 2, 56, 64
4, 10983, Note_on_c, 2, 58, 64
4, 11043, Note_off_c, 2, 58, 64
4, 11043, Note_on_c, 2, 59, 64
4, 11163, Note_off_c, 2, 59, 64
4, 11163, Note_on_c, 2, 61, 64
4, 11223, Note_off_c, 2, 61, 64
4, 11223, Note_on_c, 2, 63, 64
4, 11283, Note_off_c, 2, 63, 64
4, 11283, Note_on_c, 2, 64, 64
4, 11403, Note_off_c, 2, 64, 64
4, 11403, Note_on_c, 2, 63, 64
4, 11523, Note_off_c, 2, 63, 64
4, 11523, Note_on_c, 2, 61, 64
4, 12003, Note_off_c, 2, 61, 64
4, 12003, Note_on_c, 2, 59, 64
4, 12123, Note_off_c, 2, 59, 64
4, 12603, Note_on_c, 2, 63, 64
4, 12663, Note_off_c, 2, 63, 64
4, 12663, Note_on_c, 2, 64, 64
4, 12723, Note_off_c, 2, 64, 64
4, 12723, Note_on_c, 2, 63, 64
4, 12783, Note_off_c, 2, 63, 64
4, 12783, Note_on_c, 2, 61, 64
4, 12843, Note_off_c, 2, 61, 64
4, 12843, Note_on_c, 2, 59, 64
4, 12903, Note_off_c, 2, 59, 64
4, 12903, Note_on_c, 2, 58, 64
4, 12963, Note_off_c, 2, 58, 64
4, 12963, Note_on_c, 2, 56, 64
4, 13203, Note_off_c, 2, 56, 64
4, 13563, Note_on_c, 2, 61, 64
4, 13623, Note_off_c, 2, 61, 64
4, 13623, Note_on_c, 2, 63, 64
4, 13683, Note_off_c, 2, 63, 64
4, 13683, Note_on_c, 2, 61, 64
4, 13743, Note_off_c, 2, 61, 64
4, 13743, Note_on_c, 2, 59, 64
4, 13803, Note_off_c, 2, 59, 64
4, 13803, Note_on_c, 2, 58, 64
4, 13863, Note_off_c, 2, 58, 64
4, 13863, Note_on_c, 2, 56, 64
4, 13923, Note_off_c, 2, 56, 64
4, 13923, Note_on_c, 2, 54, 64
4, 13983, Note_off_c, 2, 54, 64
4, 13983, Note_on_c, 2, 52, 64
4, 14043, Note_off_c, 2, 52, 64
4, 14043, Note_on_c, 2, 54, 64
4, 14103, Note_off_c, 2, 54, 64
4, 14103, Note_on_c, 2, 56, 64
4, 14163, Note_off_c, 2, 56, 64
4, 14163, Note_on_c, 2, 54, 64
4, 14223, Note_off_c, 2, 54, 64
4, 14223, Note_on_c, 2, 52, 64
4, 14283, Note_off_c, 2, 52, 64
4, 14283, Note_on_c, 2, 51, 64
4, 14343, Note_off_c, 2, 51, 64
4, 14343, Note_on_c, 2, 49, 64
4, 14403, Note_off_c, 2, 49, 64
4, 14403, Note_on_c, 2, 47, 64
4, 14643, Note_off_c, 2, 47, 64
4, 15003, Note_on_c, 2, 59, 64
4, 15123, Note_off_c, 2, 59, 64
4, 15123, Note_on_c, 2, 58, 64
4, 15243, Note_off_c, 2, 58, 64
4, 15243, Note_on_c, 2, 56, 64
4, 15363, Note_off_c, 2, 56, 64
4, 15363, Note_on_c, 2, 54, 64
4, 15663, Note_off_c, 2, 54, 64
4, 15663, Note_on_c, 2, 56, 64
4, 15723, Note_off_c, 2, 56, 64
4, 15723, Note_on_c, 2, 54, 64
4, 15783, Note_off_c, 2, 54, 64
4, 15783, Note_on_c, 2, 53, 64
4, 15843, Note_off_c, 2, 53, 64
4, 15843, Note_on_c, 2, 51, 64
4, 15903, Note_off_c, 2, 51, 64
4, 15903, Note_on_c, 2, 49, 64
4, 15963, Note_off_c, 2, 49, 64
4, 15963, Note_on_c, 2, 51, 64
4, 16023, Note_off_c, 2, 51, 64
4, 16023, Note_on_c, 2, 47, 64
4, 16083, Note_off_c, 2, 47, 64
4, 16083, Note_on_c, 2, 49, 64
4, 16443, Note_off_c, 2, 49, 64
4, 16443, Note_on_c, 2, 54, 64
4, 16503, Note_off_c, 2, 54, 64
4, 16503, Note_on_c, 2, 52, 64
4, 16563, Note_off_c, 2, 52, 64
4, 16563, Note_on_c, 2, 54, 64
4, 16623, Note_off_c, 2, 54, 64
4, 16623, Note_on_c, 2, 56, 64
4, 16683, Note_off_c, 2, 56, 64
4, 16683, Note_on_c, 2, 58, 64
4, 16743, Note_off_c, 2, 58, 64
4, 16743, Note_on_c, 2, 60, 64
4, 16803, Note_off_c, 2, 60, 64
4, 16803, Note_on_c, 2, 61, 64
4, 16923, Note_off_c, 2, 61, 64
4, 16923, Note_on_c, 2, 59, 64
4, 16983, Note_off_c, 2, 59, 64
4, 16983, Note_on_c, 2, 58, 64
4, 17043, Note_off_c, 2, 58, 64
4, 17043, Note_on_c, 2, 56, 64
4, 17103, Note_off_c, 2, 56, 64
4, 17103, Note_on_c, 2, 54, 64
4, 17163, Note_off_c, 2, 54, 64
4, 17163, Note_on_c, 2, 56, 64
4, 17223, Note_off_c, 2, 56, 64
4, 17223, Note_on_c, 2, 58, 64
4, 17283, Note_off_c, 2, 58, 64
4, 17283, Note_on_c, 2, 59, 64
4, 17813, Note_off_c, 2, 59, 64
4, 17826, Note_on_c, 2, 59, 64
4, 17886, Note_off_c, 2, 59, 64
4, 17886, Note_on_c, 2, 58, 64
4, 17946, Note_off_c, 2, 58, 64
4, 17946, Note_on_c, 2, 56, 64
4, 18006, Note_off_c, 2, 56, 64
4, 18006, Note_on_c, 2, 54, 64
4, 18066, Note_off_c, 2, 54, 64
4, 18066, Note_on_c, 2, 52, 64
4, 18126, Note_off_c, 2, 52, 64
4, 18126, Note_on_c, 2, 51, 64
4, 18186, Note_off_c, 2, 51, 64
4, 18186, Note_on_c, 2, 49, 64
4, 18246, Note_off_c, 2, 49, 64
4, 18246, Note_on_c, 2, 47, 64
4, 18306, Note_off_c, 2, 47, 64
4, 18306, Note_on_c, 2, 49, 64
4, 18366, Note_off_c, 2, 49, 64
4, 18366, Note_on_c, 2, 51, 64
4, 18426, Note_off_c, 2, 51, 64
4, 18426, Note_on_c, 2, 52, 64
4, 18486, Note_off_c, 2, 52, 64
4, 18486, Note_on_c, 2, 54, 64
4, 18546, Note_off_c, 2, 54, 64
4, 18546, Note_on_c, 2, 56, 64
4, 18606, Note_off_c, 2, 56, 64
4, 18606, Note_on_c, 2, 58, 64
4, 18666, Note_off_c, 2, 58, 64
4, 18666, Note_on_c, 2, 54, 64
4, 18726, Note_off_c, 2, 54, 64
4, 18726, Note_on_c, 2, 56, 64
4, 18786, Note_off_c, 2, 56, 64
4, 18786, Note_on_c, 2, 49, 64
4, 18846, Note_off_c, 2, 49, 64
4, 18846, Note_on_c, 2, 51, 64
4, 18906, Note_off_c, 2, 51, 64
4, 18906, Note_on_c, 2, 53, 64
4, 18966, Note_off_c, 2, 53, 64
4, 18966, Note_on_c, 2, 54, 64
4, 19026, Note_off_c, 2, 54, 64
4, 19026, Note_on_c, 2, 47, 64
4, 19086, Note_off_c, 2, 47, 64
4, 19086, Note_on_c, 2, 59, 64
4, 19266, Note_off_c, 2, 59, 64
4, 19266, Note_on_c, 2, 58, 64
4, 19326, Note_off_c, 2, 58, 64
4, 19326, Note_on_c, 2, 59, 64
4, 19386, Note_off_c, 2, 59, 64
4, 19386, Note_on_c, 2, 61, 64
4, 19446, Note_off_c, 2, 61, 64
4, 19446, Note_on_c, 2, 63, 64
4, 19506, Note_off_c, 2, 63, 64
4, 19506, Note_on_c, 2, 61, 64
4, 19566, Note_off_c, 2, 61, 64
4, 19566, Note_on_c, 2, 59, 64
4, 19626, Note_off_c, 2, 59, 64
4, 19626, Note_on_c, 2, 58, 64
4, 19686, Note_off_c, 2, 58, 64
4, 19686, Note_on_c, 2, 56, 64
4, 20286, Note_off_c, 2, 56, 64
4, 20286, Note_on_c, 2, 54, 64
4, 20346, Note_off_c, 2, 54, 64
4, 20346, Note_on_c, 2, 52, 64
4, 20406, Note_off_c, 2, 52, 64
4, 20406, Note_on_c, 2, 54, 64
4, 20886, Note_off_c, 2, 54, 64
4, 22206, Note_on_c, 2, 64, 64
4, 22326, Note_off_c, 2, 64, 64
4, 22326, Note_on_c, 2, 63, 64
4, 22446, Note_off_c, 2, 63, 64
4, 22446, Note_on_c, 2, 64, 64
4, 22566, Note_off_c, 2, 64, 64
4, 22566, Note_on_c, 2, 66, 64
4, 22806, Note_off_c, 2, 66, 64
4, 22806, Note_on_c, 2, 60, 64
4, 22926, Note_off_c, 2, 60, 64
4, 22926, Note_on_c, 2, 61, 64
4, 22986, Note_off_c, 2, 61, 64
4, 22986, Note_on_c, 2, 63, 64
4, 23046, Note_off_c, 2, 63, 64
4, 23046, Note_on_c, 2, 64, 64
4, 23166, Note_off_c, 2, 64, 64
4, 23166, Note_on_c, 2, 66, 64
4, 23226, Note_off_c, 2, 66, 64
4, 23226, Note_on_c, 2, 68, 64
4, 23286, Note_off_c, 2, 68, 64
4, 23286, Note_on_c, 2, 69, 64
4, 23406, Note_off_c, 2, 69, 64
4, 23406, Note_on_c, 2, 68, 64
4, 23526, Note_off_c, 2, 68, 64
4, 23526, Note_on_c, 2, 66, 64
4, 23826, Note_off_c, 2, 66, 64
4, 23826, Note_on_c, 2, 69, 64
4, 23886, Note_off_c, 2, 69, 64
4, 23886, Note_on_c, 2, 68, 64
4, 23946, Note_off_c, 2, 68, 64
4, 23946, Note_on_c, 2, 66, 64
4, 24006, Note_off_c, 2, 66, 64
4, 24006, Note_on_c, 2, 64, 64
4, 24246, Note_off_c, 2, 64, 64
4, 27426, Note_on_c, 2, 63, 64
4, 27486, Note_off_c, 2, 63, 64
4, 27486, Note_on_c, 2, 61, 64
4, 27546, Note_off_c, 2, 61, 64
4, 27546, Note_on_c, 2, 59, 64
4, 27606, Note_off_c, 2, 59, 64
4, 27606, Note_on_c, 2, 58, 64
4, 27666, Note_off_c, 2, 58, 64
4, 27666, Note_on_c, 2, 56, 64
4, 27726, Note_off_c, 2, 56, 64
4, 27726, Note_on_c, 2, 54, 64
4, 27786, Note_off_c, 2, 54, 64
4, 27786, Note_on_c, 2, 52, 64
4, 27846, Note_off_c, 2, 52, 64
4, 27846, Note_on_c, 2, 54, 64
4, 27906, Note_off_c, 2, 54, 64
4, 27906, Note_on_c, 2, 51, 64
4, 27966, Note_off_c, 2, 51, 64
4, 27966, Note_on_c, 2, 52, 64
4, 28026, Note_off_c, 2, 52, 64
4, 28026, Note_on_c, 2, 54, 64
4, 28086, Note_off_c, 2, 54, 64
4, 28086, Note_on_c, 2, 56, 64
4, 28146, Note_off_c, 2, 56, 64
4, 28146, Note_on_c, 2, 58, 64
4, 28206, Note_off_c, 2, 58, 64
4, 28206, Note_on_c, 2, 59, 64
4, 28566, Note_off_c, 2, 59, 64
4, 28566, Note_on_c, 2, 58, 64
4, 28746, Note_off_c, 2, 58, 64
4, 28746, Note_on_c, 2, 56, 64
4, 28806, Note_off_c, 2, 56, 64
4, 28806, Note_on_c, 2, 54, 64
4, 29166, Note_off_c, 2, 54, 64
4, 29166, Note_on_c, 2, 52, 64
4, 29406, Note_off_c, 2, 52, 64
4, 29406, Note_on_c, 2, 51, 64
4, 29466, Note_off_c, 2, 51, 64
4, 29466, Note_on_c, 2, 49, 64
4, 29526, Note_off_c, 2, 49, 64
4, 29526, Note_on_c, 2, 51, 64
4, 29646, Note_off_c, 2, 51, 64
4, 29646, Note_on_c, 2, 56, 64
4, 29766, Note_off_c, 2, 56, 64
4, 29766, Note_on_c, 2, 49, 64
4, 30006, Note_off_c, 2, 49, 64
4, 31326, Note_on_c, 2, 61, 64
4, 31386, Note_off_c, 2, 61, 64
4, 31386, Note_on_c, 2, 63, 64
4, 31446, Note_off_c, 2, 63, 64
4, 31446, Note_on_c, 2, 61, 64
4, 31506, Note_off_c, 2, 61, 64
4, 31506, Note_on_c, 2, 59, 64
4, 31566, Note_off_c, 2, 59, 64
4, 31566, Note_on_c, 2, 58, 64
4, 31626, Note_off_c, 2, 58, 64
4, 31626, Note_on_c, 2, 56, 64
4, 31686, Note_off_c, 2, 56, 64
4, 31686, Note_on_c, 2, 54, 64
4, 32646, Note_off_c, 2, 54, 64
4, 32646, End_track
5, 0, Start_track
5, 0, Text_t, "4"
5, 5880, Note_on_c, 3, 54, 64
5, 6000, Note_off_c, 3, 54, 61
5, 6000, Note_on_c, 3, 51, 64
5, 6120, Note_off_c, 3, 51, 63
5, 6120, Note_on_c, 3, 52, 64
5, 6240, Note_off_c, 3, 52, 57
5, 6240, Note_on_c, 3, 54, 64
5, 6480, Note_off_c, 3, 54, 52
5, 6480, Note_on_c, 3, 47, 64
5, 6600, Note_off_c, 3, 47, 27
5, 6600, Note_on_c, 3, 51, 64
5, 6660, Note_off_c, 3, 51, 59
5, 6660, Note_on_c, 3, 53, 64
5, 6720, Note_off_c, 3, 53, 68
5, 6720, Note_on_c, 3, 54, 64
5, 6840, Note_off_c, 3, 54, 57
5, 6840, Note_on_c, 3, 56, 64
5, 6900, Note_off_c, 3, 56, 63
5, 6900, Note_on_c, 3, 58, 64
5, 6960, Note_off_c, 3, 58, 63
5, 6960, Note_on_c, 3, 59, 64
5, 7080, Note_off_c, 3, 59, 49
5, 7080, Note_on_c, 3, 58, 64
5, 7200, Note_off_c, 3, 58, 55
5, 7200, Note_on_c, 3, 56, 64
5, 7680, Note_off_c, 3, 56, 59
5, 7680, Note_on_c, 3, 54, 64
5, 7920, Note_off_c, 3, 54, 55
5, 8280, Note_on_c, 3, 56, 64
5, 8340, Note_off_c, 3, 56, 59
5, 8340, Note_on_c, 3, 57, 64
5, 8400, Note_off_c, 3, 57, 63
5, 8400, Note_on_c, 3, 56, 64
5, 8460, Note_off_c, 3, 56, 59
5, 8460, Note_on_c, 3, 54, 64
5, 8520, Note_off_c, 3, 54, 62
5, 8520, Note_on_c, 3, 52, 64
5, 8580, Note_off_c, 3, 52, 68
5, 8580, Note_on_c, 3, 51, 64
5, 8640, Note_off_c, 3, 51, 54
5, 8640, Note_on_c, 3, 49, 64
5, 8760, Note_off_c, 3, 49, 72
5, 8760, Note_on_c, 3, 61, 64
5, 8880, Note_off_c, 3, 61, 66
5, 8880, Note_on_c, 3, 63, 64
5, 9000, Note_off_c, 3, 63, 62
5, 9000, Note_on_c, 3, 64, 64
5, 9120, Note_off_c, 3, 64, 25
5, 9120, Note_on_c, 3, 66, 64
5, 9240, Note_off_c, 3, 66, 49
5, 9240, Note_on_c, 3, 54, 64
5, 9300, Note_off_c, 3, 54, 61
5, 9300, Note_on_c, 3, 56, 64
5, 9360, Note_off_c, 3, 56, 58
5, 9360, Note_on_c, 3, 54, 64
5, 9420, Note_off_c, 3, 54, 49
5, 9420, Note_on_c, 3, 52, 64
5, 9480, Note_off_c, 3, 52, 49
5, 9480, Note_on_c, 3, 51, 64
5, 9540, Note_off_c, 3, 51, 61
5, 9540, Note_on_c, 3, 49, 64
5, 9600, Note_off_c, 3, 49, 59
5, 9600, Note_on_c, 3, 47, 64
5, 9660, Note_off_c, 3, 47, 34
5, 9660, Note_on_c, 3, 46, 64
5, 9720, Note_off_c, 3, 46, 61
5, 9720, Note_on_c, 3, 47, 64
5, 9780, Note_off_c, 3, 47, 52
5, 9780, Note_on_c, 3, 49, 64
5, 9840, Note_off_c, 3, 49, 66
5, 9840, Note_on_c, 3, 47, 64
5, 9900, Note_off_c, 3, 47, 53
5, 9900, Note_on_c, 3, 45, 64
5, 9960, Note_off_c, 3, 45, 61
5, 9960, Note_on_c, 3, 44, 64
5, 10020, Note_off_c, 3, 44, 65
5, 10020, Note_on_c, 3, 42, 64
5, 10080, Note_off_c, 3, 42, 52
5, 10080, Note_on_c, 3, 40, 64
5, 10200, Note_off_c, 3, 40, 58
5, 10680, Note_on_c, 3, 52, 64
5, 10800, Note_off_c, 3, 52, 40
5, 10800, Note_on_c, 3, 51, 64
5, 10920, Note_off_c, 3, 51, 57
5, 10920, Note_on_c, 3, 52, 64
5, 10980, Note_off_c, 3, 52, 35
5, 10980, Note_on_c, 3, 54, 64
5, 11040, Note_off_c, 3, 54, 52
5, 11040, Note_on_c, 3, 56, 64
5, 11400, Note_off_c, 3, 56, 53
5, 11400, Note_on_c, 3, 54, 64
5, 11520, Note_off_c, 3, 54, 58
5, 11520, Note_on_c, 3, 52, 64
5, 11760, Note_off_c, 3, 52, 46
5, 11760, Note_on_c, 3, 54, 64
5, 12000, Note_off_c, 3, 54, 55
5, 12120, Note_on_c, 3, 47, 64
5, 12180, Note_off_c, 3, 47, 47
5, 12180, Note_on_c, 3, 46, 64
5, 12240, Note_off_c, 3, 46, 65
5, 12240, Note_on_c, 3, 47, 64
5, 12360, Note_off_c, 3, 47, 45
5, 12360, Note_on_c, 3, 49, 64
5, 12480, Note_off_c, 3, 49, 61
5, 12480, Note_on_c, 3, 51, 64
5, 12720, Note_off_c, 3, 51, 66
5, 12840, Note_on_c, 3, 49, 64
5, 12960, Note_off_c, 3, 49, 69
5, 12960, Note_on_c, 3, 47, 64
5, 13080, Note_off_c, 3, 47, 76
5, 13080, Note_on_c, 3, 44, 64
5, 13200, Note_off_c, 3, 44, 68
5, 13200, Note_on_c, 3, 46, 64
5, 13320, Note_off_c, 3, 46, 58
5, 13320, Note_on_c, 3, 47, 64
5, 13440, Note_off_c, 3, 47, 65
5, 13440, Note_on_c, 3, 49, 64
5, 13680, Note_off_c, 3, 49, 66
5, 13800, Note_on_c, 3, 47, 64
5, 13920, Note_off_c, 3, 47, 57
5, 13920, Note_on_c, 3, 46, 64
5, 14450, Note_off_c, 3, 46, 54
5, 14463, Note_on_c, 3, 46, 64
5, 14523, Note_off_c, 3, 46, 59
5, 14523, Note_on_c, 3, 47, 64
5, 14583, Note_off_c, 3, 47, 76
5, 14583, Note_on_c, 3, 49, 64
5, 14643, Note_off_c, 3, 49, 77
5, 14643, Note_on_c, 3, 47, 64
5, 14703, Note_off_c, 3, 47, 55
5, 14703, Note_on_c, 3, 46, 64
5, 14763, Note_off_c, 3, 46, 62
5, 14763, Note_on_c, 3, 44, 64
5, 14823, Note_off_c, 3, 44, 63
5, 14823, Note_on_c, 3, 42, 64
5, 14883, Note_off_c, 3, 42, 62
5, 14883, Note_on_c, 3, 41, 64
5, 15003, Note_off_c, 3, 41, 29
5, 15003, Note_on_c, 3, 53, 64
5, 15123, Note_off_c, 3, 53, 72
5, 15123, Note_on_c, 3, 54, 64
5, 15243, Note_off_c, 3, 54, 65
5, 15243, Note_on_c, 3, 53, 64
5, 15363, Note_off_c, 3, 53, 69
5, 15363, Note_on_c, 3, 51, 64
5, 15723, Note_off_c, 3, 51, 61
5, 15723, Note_on_c, 3, 49, 64
5, 15843, Note_off_c, 3, 49, 66
5, 15843, Note_on_c, 3, 47, 64
5, 15963, Note_off_c, 3, 47, 45
5, 15963, Note_on_c, 3, 44, 64
5, 16083, Note_off_c, 3, 44, 58
5, 16203, Note_on_c, 3, 37, 64
5, 16323, Note_off_c, 3, 37, 57
5, 16323, Note_on_c, 3, 42, 64
5, 16443, Note_off_c, 3, 42, 72
5, 19803, Note_on_c, 3, 47, 64
5, 19923, Note_off_c, 3, 47, 74
5, 19923, Note_on_c, 3, 46, 64
5, 20043, Note_off_c, 3, 46, 70
5, 20043, Note_on_c, 3, 47, 64
5, 20163, Note_off_c, 3, 47, 66
5, 20163, Note_on_c, 3, 49, 64
5, 20403, Note_off_c, 3, 49, 70
5, 20403, Note_on_c, 3, 42, 64
5, 20523, Note_off_c, 3, 42, 70
5, 20523, Note_on_c, 3, 44, 64
5, 20583, Note_off_c, 3, 44, 62
5, 20583, Note_on_c, 3, 46, 64
5, 20643, Note_off_c, 3, 46, 76
5, 20643, Note_on_c, 3, 47, 64
5, 20763, Note_off_c, 3, 47, 72
5, 20763, Note_on_c, 3, 49, 64
5, 20823, Note_off_c, 3, 49, 73
5, 20823, Note_on_c, 3, 51, 64
5, 20883, Note_off_c, 3, 51, 58
5, 20883, Note_on_c, 3, 52, 64
5, 21003, Note_off_c, 3, 52, 66
5, 21003, Note_on_c, 3, 51, 64
5, 21123, Note_off_c, 3, 51, 57
5, 21123, Note_on_c, 3, 49, 64
5, 21603, Note_off_c, 3, 49, 61
5, 21603, Note_on_c, 3, 47, 64
5, 21723, Note_off_c, 3, 47, 49
5, 21723, Note_on_c, 3, 59, 64
5, 21783, Note_off_c, 3, 59, 61
5, 21783, Note_on_c, 3, 61, 64
5, 21843, Note_off_c, 3, 61, 72
5, 21843, Note_on_c, 3, 59, 64
5, 21903, Note_off_c, 3, 59, 54
5, 21903, Note_on_c, 3, 57, 64
5, 21963, Note_off_c, 3, 57, 63
5, 21963, Note_on_c, 3, 56, 64
5, 22023, Note_off_c, 3, 56, 51
5, 22023, Note_on_c, 3, 54, 64
5, 22083, Note_off_c, 3, 54, 58
5, 22083, Note_on_c, 3, 52, 64
5, 22323, Note_off_c, 3, 52, 39
5, 22323, Note_on_c, 3, 57, 64
5, 22563, Note_off_c, 3, 57, 55
5, 22563, Note_on_c, 3, 51, 64
5, 22623, Note_off_c, 3, 51, 41
5, 22623, Note_on_c, 3, 61, 64
5, 22683, Note_off_c, 3, 61, 69
5, 22683, Note_on_c, 3, 60, 64
5, 22743, Note_off_c, 3, 60, 73
5, 22743, Note_on_c, 3, 58, 64
5, 22803, Note_off_c, 3, 58, 73
5, 22803, Note_on_c, 3, 56, 64
5, 22863, Note_off_c, 3, 56, 66
5, 22863, Note_on_c, 3, 54, 64
5, 22923, Note_off_c, 3, 54, 62
5, 22923, Note_on_c, 3, 52, 64
5, 22983, Note_off_c, 3, 52, 77
5, 22983, Note_on_c, 3, 51, 64
5, 23043, Note_off_c, 3, 51, 76
5, 23043, Note_on_c, 3, 49, 64
5, 23103, Note_off_c, 3, 49, 59
5, 23103, Note_on_c, 3, 47, 64
5, 23163, Note_off_c, 3, 47, 43
5, 23163, Note_on_c, 3, 45, 64
5, 23223, Note_off_c, 3, 45, 70
5, 23223, Note_on_c, 3, 44, 64
5, 23283, Note_off_c, 3, 44, 73
5, 23283, Note_on_c, 3, 42, 64
5, 23343, Note_off_c, 3, 42, 66
5, 23343, Note_on_c, 3, 40, 64
5, 23403, Note_off_c, 3, 40, 45
5, 23403, Note_on_c, 3, 39, 64
5, 23463, Note_off_c, 3, 39, 69
5, 23463, Note_on_c, 3, 37, 64
5, 23523, Note_off_c, 3, 37, 59
5, 23523, Note_on_c, 3, 39, 64
5, 23643, Note_off_c, 3, 39, 53
5, 23643, Note_on_c, 3, 40, 64
5, 23703, Note_off_c, 3, 40, 40
5, 23703, Note_on_c, 3, 42, 64
5, 23763, Note_off_c, 3, 42, 65
5, 23763, Note_on_c, 3, 44, 64
5, 23883, Note_off_c, 3, 44, 73
5, 23883, Note_on_c, 3, 44, 64
5, 24003, Note_off_c, 3, 44, 49
5, 24003, Note_on_c, 3, 37, 64
5, 24243, Note_off_c, 3, 37, 53
5, 24603, Note_on_c, 3, 49, 64
5, 24663, Note_off_c, 3, 49, 73
5, 24663, Note_on_c, 3, 50, 64
5, 24723, Note_off_c, 3, 50, 59
5, 24723, Note_on_c, 3, 49, 64
5, 24783, Note_off_c, 3, 49, 68
5, 24783, Note_on_c, 3, 47, 64
5, 24843, Note_off_c, 3, 47, 58
5, 24843, Note_on_c, 3, 45, 64
5, 24903, Note_off_c, 3, 45, 39
5, 24903, Note_on_c, 3, 44, 64
5, 24963, Note_off_c, 3, 44, 68
5, 24963, Note_on_c, 3, 42, 64
5, 25083, Note_off_c, 3, 42, 70
5, 25083, Note_on_c, 3, 54, 64
5, 25203, Note_off_c, 3, 54, 66
5, 25203, Note_on_c, 3, 56, 64
5, 25323, Note_off_c, 3, 56, 70
5, 25323, Note_on_c, 3, 57, 64
5, 25443, Note_off_c, 3, 57, 61
5, 25443, Note_on_c, 3, 59, 64
5, 25563, Note_off_c, 3, 59, 63
5, 25563, Note_on_c, 3, 47, 64
5, 25623, Note_off_c, 3, 47, 59
5, 25623, Note_on_c, 3, 49, 64
5, 25683, Note_off_c, 3, 49, 66
5, 25683, Note_on_c, 3, 47, 64
5, 25743, Note_off_c, 3, 47, 47
5, 25743, Note_on_c, 3, 45, 64
5, 25803, Note_off_c, 3, 45, 66
5, 25803, Note_on_c, 3, 44, 64
5, 25863, Note_off_c, 3, 44, 73
5, 25863, Note_on_c, 3, 42, 64
5, 25923, Note_off_c, 3, 42, 49
5, 25923, Note_on_c, 3, 40, 64
5, 25983, Note_off_c, 3, 40, 46
5, 25983, Note_on_c, 3, 47, 64
5, 26043, Note_off_c, 3, 47, 54
5, 26043, Note_on_c, 3, 52, 64
5, 26103, Note_off_c, 3, 52, 58
5, 26103, Note_on_c, 3, 54, 64
5, 26163, Note_off_c, 3, 54, 58
5, 26163, Note_on_c, 3, 52, 64
5, 26223, Note_off_c, 3, 52, 73
5, 26223, Note_on_c, 3, 51, 64
5, 26283, Note_off_c, 3, 51, 61
5, 26283, Note_on_c, 3, 49, 64
5, 26343, Note_off_c, 3, 49, 69
5, 26343, Note_on_c, 3, 47, 64
5, 26403, Note_off_c, 3, 47, 46
5, 26403, Note_on_c, 3, 46, 64
5, 26523, Note_off_c, 3, 46, 65
5, 26523, Note_on_c, 3, 42, 64
5, 26643, Note_off_c, 3, 42, 68
5, 26643, Note_on_c, 3, 44, 64
5, 26763, Note_off_c, 3, 44, 68
5, 26763, Note_on_c, 3, 46, 64
5, 26883, Note_off_c, 3, 46, 76
5, 26883, Note_on_c, 3, 47, 64
5, 26943, Note_off_c, 3, 47, 49
5, 26943, Note_on_c, 3, 49, 64
5, 27003, Note_off_c, 3, 49, 69
5, 27003, Note_on_c, 3, 51, 64
5, 27063, Note_off_c, 3, 51, 62
5, 27063, Note_on_c, 3, 52, 64
5, 27123, Note_off_c, 3, 52, 52
5, 27123, Note_on_c, 3, 54, 64
5, 27183, Note_off_c, 3, 54, 65
5, 27183, Note_on_c, 3, 56, 64
5, 27243, Note_off_c, 3, 56, 61
5, 27243, Note_on_c, 3, 58, 64
5, 27303, Note_off_c, 3, 58, 68
5, 27303, Note_on_c, 3, 59, 64
5, 27363, Note_off_c, 3, 59, 46
5, 27363, Note_on_c, 3, 52, 64
5, 27843, Note_off_c, 3, 52, 54
5, 27843, Note_on_c, 3, 51, 64
5, 28083, Note_off_c, 3, 51, 55
5, 28083, Note_on_c, 3, 49, 64
5, 28203, Note_off_c, 3, 49, 68
5, 28203, Note_on_c, 3, 56, 64
5, 28263, Note_off_c, 3, 56, 61
5, 28263, Note_on_c, 3, 54, 64
5, 28323, Note_off_c, 3, 54, 58
5, 28323, Note_on_c, 3, 52, 64
5, 28383, Note_off_c, 3, 52, 73
5, 28383, Note_on_c, 3, 51, 64
5, 28443, Note_off_c, 3, 51, 58
5, 28443, Note_on_c, 3, 49, 64
5, 28503, Note_off_c, 3, 49, 61
5, 28503, Note_on_c, 3, 51, 64
5, 28563, Note_off_c, 3, 51, 72
5, 28563, Note_on_c, 3, 52, 64
5, 28623, Note_off_c, 3, 52, 48
5, 28623, Note_on_c, 3, 56, 64
5, 28683, Note_off_c, 3, 56, 66
5, 28683, Note_on_c, 3, 54, 64
5, 28743, Note_off_c, 3, 54, 55
5, 28743, Note_on_c, 3, 52, 64
5, 28803, Note_off_c, 3, 52, 52
5, 28803, Note_on_c, 3, 51, 64
5, 29043, Note_off_c, 3, 51, 70
5, 29043, Note_on_c, 3, 44, 64
5, 29283, Note_off_c, 3, 44, 66
5, 29283, Note_on_c, 3, 42, 64
5, 30003, Note_off_c, 3, 42, 61
5, 30063, Note_on_c, 3, 44, 64
5, 30123, Note_off_c, 3, 44, 61
5, 30123, Note_on_c, 3, 46, 64
5, 30183, Note_off_c, 3, 46, 59
5, 30183, Note_on_c, 3, 47, 64
5, 30243, Note_off_c, 3, 47, 68
5, 30243, Note_on_c, 3, 49, 64
5, 30303, Note_off_c, 3, 49, 69
5, 30303, Note_on_c, 3, 51, 64
5, 30363, Note_off_c, 3, 51, 66
5, 30363, Note_on_c, 3, 52, 64
5, 30423, Note_off_c, 3, 52, 63
5, 30423, Note_on_c, 3, 54, 64
5, 30483, Note_off_c, 3, 54, 73
5, 30483, Note_on_c, 3, 56, 64
5, 30543, Note_off_c, 3, 56, 61
5, 30543, Note_on_c, 3, 58, 64
5, 30603, Note_off_c, 3, 58, 76
5, 30603, Note_on_c, 3, 59, 64
5, 30663, Note_off_c, 3, 59, 49
5, 30663, Note_on_c, 3, 56, 64
5, 30723, Note_off_c, 3, 56, 62
5, 30723, Note_on_c, 3, 58, 64
5, 30783, Note_off_c, 3, 58, 65
5, 30783, Note_on_c, 3, 56, 64
5, 30843, Note_off_c, 3, 56, 62
5, 30843, Note_on_c, 3, 54, 64
5, 30903, Note_off_c, 3, 54, 58
5, 30903, Note_on_c, 3, 52, 64
5, 30963, Note_off_c, 3, 52, 72
5, 30963, Note_on_c, 3, 51, 64
5, 31023, Note_off_c, 3, 51, 62
5, 31023, Note_on_c, 3, 49, 64
5, 31083, Note_off_c, 3, 49, 59
5, 31083, Note_on_c, 3, 51, 64
5, 31143, Note_off_c, 3, 51, 63
5, 31143, Note_on_c, 3, 52, 64
5, 31203, Note_off_c, 3, 52, 62
5, 31203, Note_on_c, 3, 54, 64
5, 31683, Note_off_c, 3, 54, 57
5, 31683, Note_on_c, 3, 47, 64
5, 32643, Note_off_c, 3, 47, 51
5, 32643, End_track
0, 0, End_of_file
