0, 0, Header, 1, 5, 240
1, 0, Start_track
1, 0, Time_signature, 4, 2, 24, 8
1, 0, Tempo, 652174
1, 75120, Tempo, 863275
1, 75360, Tempo, 878426
1, 75480, Tempo, 894282
1, 75600, Tempo, 910894
1, 75720, Tempo, 779221
1, 75840, Tempo, 1764706
1, 76080, Tempo, 779221
1, 76560, Tempo, 759494
1, 76800, Tempo, 740741
1, 77280, Tempo, 910894
1, 77760, Tempo, 894282
1, 81912, Tempo, 910894
1, 82200, Tempo, 800000
1, 82320, Tempo, 821918
1, 82440, Tempo, 857143
1, 82560, Tempo, 937500
1, 82680, Tempo, 1071429
1, 82800, Tempo, 1176471
1, 82920, Tempo, 1276596
1, 82976, Tempo, 1875000
1, 82976, End_track
2, 0, Start_track
2, 0, Text_t, "RH H"
2, 3000, Note_on_c, 0, 64, 64
2, 3060, Note_off_c, 0, 64, 17
2, 3060, Note_on_c, 0, 63, 64
2, 3120, Note_off_c, 0, 63, 43
2, 3120, Note_on_c, 0, 64, 64
2, 3240, Note_off_c, 0, 64, 33
2, 3240, Note_on_c, 0, 66, 64
2, 3360, Note_off_c, 0, 66, 55
2, 3360, Note_on_c, 0, 67, 64
2, 3480, Note_off_c, 0, 67, 40
2, 3480, Note_on_c, 0, 67, 64
2, 3540, Note_off_c, 0, 67, 52
2, 3540, Note_on_c, 0, 66, 64
2, 3600, Note_off_c, 0, 66, 53
2, 3600, Note_on_c, 0, 67, 64
2, 3720, Note_off_c, 0, 67, 45
2, 3720, Note_on_c, 0, 69, 64
2, 3840, Note_off_c, 0, 69, 39
2, 3840, Note_on_c, 0, 71, 64
2, 3900, Note_off_c, 0, 71, 63
2, 3900, Note_on_c, 0, 69, 64
2, 3960, Note_off_c, 0, 69, 54
2, 3960, Note_on_c, 0, 67, 64
2, 4020, Note_off_c, 0, 67, 45
2, 4020, Note_on_c, 0, 69, 64
2, 4080, Note_off_c, 0, 69, 51
2, 4080, Note_on_c, 0, 71, 64
2, 4200, Note_off_c, 0, 71, 50
2, 4200, Note_on_c, 0, 72, 64
2, 4320, Note_off_c, 0, 72, 77
2, 4320, Note_on_c, 0, 63, 64
2, 4440, Note_off_c, 0, 63, 49
2, 4440, Note_on_c, 0, 59, 64
2, 4560, Note_off_c, 0, 59, 16
2, 4680, Note_on_c, 0, 64, 64
2, 4800, Note_off_c, 0, 64, 45
2, 4800, Note_on_c, 0, 66, 64
2, 4860, Note_off_c, 0, 66, 61
2, 4860, Note_on_c, 0, 67, 64
2, 4920, Note_off_c, 0, 67, 45
2, 4920, Note_on_c, 0, 64, 64
2, 4980, Note_off_c, 0, 64, 38
2, 4980, Note_on_c, 0, 66, 64
2, 5040, Note_off_c, 0, 66, 66
2, 5040, Note_on_c, 0, 67, 64
2, 5100, Note_off_c, 0, 67, 49
2, 5100, Note_on_c, 0, 69, 64
2, 5160, Note_off_c, 0, 69, 69
2, 5160, Note_on_c, 0, 66, 64
2, 5220, Note_off_c, 0, 66, 61
2, 5220, Note_on_c, 0, 67, 64
2, 5280, Note_off_c, 0, 67, 39
2, 5280, Note_on_c, 0, 69, 64
2, 5400, Note_off_c, 0, 69, 59
2, 5400, Note_on_c, 0, 67, 64
2, 5520, Note_off_c, 0, 67, 55
2, 5520, Note_on_c, 0, 66, 64
2, 5640, Note_off_c, 0, 66, 54
2, 5640, Note_on_c, 0, 71, 64
2, 5760, Note_off_c, 0, 71, 52
2, 5760, Note_on_c, 0, 64, 64
2, 5880, Note_off_c, 0, 64, 19
2, 5880, Note_on_c, 0, 66, 64
2, 5940, Note_off_c, 0, 66, 54
2, 5940, Note_on_c, 0, 68, 64
2, 6000, Note_off_c, 0, 68, 82
2, 6000, Note_on_c, 0, 69, 64
2, 6060, Note_off_c, 0, 69, 61
2, 6060, Note_on_c, 0, 71, 64
2, 6120, Note_off_c, 0, 71, 72
2, 6120, Note_on_c, 0, 72, 64
2, 6180, Note_off_c, 0, 72, 68
2, 6180, Note_on_c, 0, 74, 64
2, 6240, Note_off_c, 0, 74, 66
2, 6240, Note_on_c, 0, 76, 64
2, 6360, Note_off_c, 0, 76, 45
2, 6360, Note_on_c, 0, 69, 64
2, 6480, Note_off_c, 0, 69, 70
2, 6480, Note_on_c, 0, 68, 64
2, 6720, Note_off_c, 0, 68, 57
2, 6720, Note_on_c, 0, 69, 64
2, 6840, Note_off_c, 0, 69, 76
2, 6840, Note_on_c, 0, 69, 64
2, 6960, Note_off_c, 0, 69, 62
2, 6960, Note_on_c, 0, 67, 64
2, 7080, Note_off_c, 0, 67, 43
2, 7080, Note_on_c, 0, 65, 64
2, 7200, Note_off_c, 0, 65, 20
2, 7200, Note_on_c, 0, 64, 64
2, 7320, Note_off_c, 0, 64, 1
2, 7320, Note_on_c, 0, 72, 64
2, 7440, Note_off_c, 0, 72, 65
2, 7440, Note_on_c, 0, 71, 64
2, 7560, Note_off_c, 0, 71, 46
2, 7560, Note_on_c, 0, 69, 64
2, 7680, Note_off_c, 0, 69, 48
2, 7680, Note_on_c, 0, 68, 64
2, 7800, Note_off_c, 0, 68, 66
2, 7800, Note_on_c, 0, 76, 64
2, 7920, Note_off_c, 0, 76, 50
2, 7920, Note_on_c, 0, 74, 64
2, 8040, Note_off_c, 0, 74, 63
2, 8040, Note_on_c, 0, 72, 64
2, 8160, Note_off_c, 0, 72, 74
2, 8220, Note_on_c, 0, 72, 64
2, 8280, Note_off_c, 0, 72, 66
2, 8280, Note_on_c, 0, 74, 64
2, 8340, Note_off_c, 0, 74, 61
2, 8340, Note_on_c, 0, 71, 64
2, 8400, Note_off_c, 0, 71, 59
2, 8400, Note_on_c, 0, 72, 64
2, 8460, Note_off_c, 0, 72, 66
2, 8460, Note_on_c, 0, 71, 64
2, 8520, Note_off_c, 0, 71, 46
2, 8580, Note_on_c, 0, 72, 64
2, 8640, Note_off_c, 0, 72, 52
2, 8640, Note_on_c, 0, 74, 64
2, 8700, Note_off_c, 0, 74, 53
2, 8700, Note_on_c, 0, 76, 64
2, 8760, Note_off_c, 0, 76, 55
2, 8760, Note_on_c, 0, 77, 64
2, 8820, Note_off_c, 0, 77, 59
2, 8820, Note_on_c, 0, 74, 64
2, 8880, Note_off_c, 0, 74, 46
2, 8880, Note_on_c, 0, 76, 64
2, 9240, Note_off_c, 0, 76, 42
2, 9240, Note_on_c, 0, 69, 64
2, 9360, Note_off_c, 0, 69, 28
2, 9360, Note_on_c, 0, 71, 64
2, 9420, Note_off_c, 0, 71, 62
2, 9420, Note_on_c, 0, 72, 64
2, 9480, Note_off_c, 0, 72, 54
2, 9480, Note_on_c, 0, 74, 64
2, 9720, Note_off_c, 0, 74, 50
2, 9720, Note_on_c, 0, 72, 64
2, 9840, Note_off_c, 0, 72, 70
2, 9840, Note_on_c, 0, 71, 64
2, 9960, Note_off_c, 0, 71, 65
2, 9960, Note_on_c, 0, 69, 64
2, 10080, Note_off_c, 0, 69, 50
2, 10080, Note_on_c, 0, 67, 64
2, 10200, Note_off_c, 0, 67, 18
2, 10200, Note_on_c, 0, 76, 64
2, 10320, Note_off_c, 0, 76, 34
2, 10320, Note_on_c, 0, 74, 64
2, 10440, Note_off_c, 0, 74, 54
2, 10440, Note_on_c, 0, 72, 64
2, 10560, Note_off_c, 0, 72, 66
2, 10560, Note_on_c, 0, 71, 64
2, 10800, Note_off_c, 0, 71, 52
2, 10920, Note_on_c, 0, 69, 64
2, 11160, Note_off_c, 0, 69, 49
2, 11160, Note_on_c, 0, 67, 64
2, 11220, Note_off_c, 0, 67, 47
2, 11220, Note_on_c, 0, 66, 64
2, 11280, Note_off_c, 0, 66, 49
2, 11280, Note_on_c, 0, 67, 64
2, 11340, Note_off_c, 0, 67, 37
2, 11340, Note_on_c, 0, 69, 64
2, 11400, Note_off_c, 0, 69, 52
2, 11400, Note_on_c, 0, 71, 64
2, 11460, Note_off_c, 0, 71, 53
2, 11460, Note_on_c, 0, 67, 64
2, 11520, Note_off_c, 0, 67, 37
2, 11520, Note_on_c, 0, 72, 64
2, 11760, Note_off_c, 0, 72, 62
2, 11880, Note_on_c, 0, 71, 64
2, 12000, Note_off_c, 0, 71, 53
2, 12000, Note_on_c, 0, 69, 64
2, 12060, Note_off_c, 0, 69, 52
2, 12060, Note_on_c, 0, 67, 64
2, 12120, Note_off_c, 0, 67, 39
2, 12120, Note_on_c, 0, 69, 64
2, 12180, Note_off_c, 0, 69, 57
2, 12180, Note_on_c, 0, 71, 64
2, 12240, Note_off_c, 0, 71, 53
2, 12240, Note_on_c, 0, 72, 64
2, 12360, Note_off_c, 0, 72, 73
2, 12360, Note_on_c, 0, 66, 64
2, 12480, Note_off_c, 0, 66, 46
2, 12480, Note_on_c, 0, 71, 64
2, 12540, Note_off_c, 0, 71, 65
2, 12540, Note_on_c, 0, 69, 64
2, 12600, Note_off_c, 0, 69, 63
2, 12600, Note_on_c, 0, 72, 64
2, 12660, Note_off_c, 0, 72, 76
2, 12660, Note_on_c, 0, 71, 64
2, 12720, Note_off_c, 0, 71, 69
2, 12720, Note_on_c, 0, 69, 64
2, 12780, Note_off_c, 0, 69, 70
2, 12780, Note_on_c, 0, 67, 64
2, 12840, Note_off_c, 0, 67, 34
2, 12840, Note_on_c, 0, 66, 64
2, 12900, Note_off_c, 0, 66, 72
2, 12900, Note_on_c, 0, 67, 64
2, 12960, Note_off_c, 0, 67, 46
2, 13080, Note_on_c, 0, 76, 64
2, 13140, Note_off_c, 0, 76, 52
2, 13140, Note_on_c, 0, 77, 64
2, 13200, Note_off_c, 0, 77, 55
2, 13200, Note_on_c, 0, 76, 64
2, 13320, Note_off_c, 0, 76, 43
2, 13320, Note_on_c, 0, 74, 64
2, 13440, Note_off_c, 0, 74, 58
2, 13440, Note_on_c, 0, 72, 64
2, 13560, Note_off_c, 0, 72, 69
2, 13560, Note_on_c, 0, 72, 64
2, 13620, Note_off_c, 0, 72, 69
2, 13620, Note_on_c, 0, 74, 64
2, 13680, Note_off_c, 0, 74, 61
2, 13680, Note_on_c, 0, 72, 64
2, 13800, Note_off_c, 0, 72, 69
2, 13800, Note_on_c, 0, 71, 64
2, 13920, Note_off_c, 0, 71, 59
2, 13980, Note_on_c, 0, 71, 64
2, 14040, Note_off_c, 0, 71, 61
2, 14040, Note_on_c, 0, 72, 64
2, 14100, Note_off_c, 0, 72, 61
2, 14100, Note_on_c, 0, 71, 64
2, 14160, Note_off_c, 0, 71, 65
2, 14160, Note_on_c, 0, 69, 64
2, 14280, Note_off_c, 0, 69, 41
2, 14280, Note_on_c, 0, 67, 64
2, 14400, Note_off_c, 0, 67, 43
2, 14400, Note_on_c, 0, 78, 64
2, 14520, Note_off_c, 0, 78, 59
2, 14520, Note_on_c, 0, 81, 64
2, 14640, Note_off_c, 0, 81, 48
2, 14760, Note_on_c, 0, 76, 64
2, 14880, Note_off_c, 0, 76, 46
2, 14880, Note_on_c, 0, 74, 64
2, 14940, Note_off_c, 0, 74, 61
2, 14940, Note_on_c, 0, 72, 64
2, 15000, Note_off_c, 0, 72, 55
2, 15000, Note_on_c, 0, 76, 64
2, 15060, Note_off_c, 0, 76, 57
2, 15060, Note_on_c, 0, 74, 64
2, 15120, Note_off_c, 0, 74, 59
2, 15120, Note_on_c, 0, 72, 64
2, 15180, Note_off_c, 0, 72, 61
2, 15180, Note_on_c, 0, 71, 64
2, 15240, Note_off_c, 0, 71, 53
2, 15240, Note_on_c, 0, 74, 64
2, 15300, Note_off_c, 0, 74, 59
2, 15300, Note_on_c, 0, 72, 64
2, 15360, Note_off_c, 0, 72, 77
2, 15360, Note_on_c, 0, 71, 64
2, 15480, Note_off_c, 0, 71, 65
2, 15480, Note_on_c, 0, 72, 64
2, 15600, Note_off_c, 0, 72, 63
2, 15600, Note_on_c, 0, 74, 64
2, 15660, Note_off_c, 0, 74, 58
2, 15660, Note_on_c, 0, 71, 64
2, 15720, Note_off_c, 0, 71, 65
2, 15720, Note_on_c, 0, 69, 64
2, 15780, Note_off_c, 0, 69, 55
2, 15780, Note_on_c, 0, 67, 64
2, 15840, Note_off_c, 0, 67, 32
2, 15840, Note_on_c, 0, 76, 64
2, 15870, Note_off_c, 0, 76, 59
2, 15870, Note_on_c, 0, 78, 64
2, 15900, Note_off_c, 0, 78, 58
2, 15900, Note_on_c, 0, 76, 64
2, 15960, Note_off_c, 0, 76, 55
2, 15960, Note_on_c, 0, 78, 64
2, 16020, Note_off_c, 0, 78, 49
2, 16020, Note_on_c, 0, 79, 64
2, 16080, Note_off_c, 0, 79, 58
2, 16080, Note_on_c, 0, 78, 64
2, 16260, Note_off_c, 0, 78, 62
2, 16260, Note_on_c, 0, 79, 64
2, 16310, Note_off_c, 0, 79, 68
2, 16323, Note_on_c, 0, 79, 64
2, 16923, Note_off_c, 0, 79, 65
2, 16923, Note_on_c, 0, 79, 64
2, 16983, Note_off_c, 0, 79, 52
2, 16983, Note_on_c, 0, 81, 64
2, 17043, Note_off_c, 0, 81, 44
2, 17043, Note_on_c, 0, 79, 64
2, 17163, Note_off_c, 0, 79, 53
2, 17163, Note_on_c, 0, 77, 64
2, 17283, Note_off_c, 0, 77, 50
2, 17283, Note_on_c, 0, 76, 64
2, 17343, Note_off_c, 0, 76, 49
2, 17343, Note_on_c, 0, 74, 64
2, 17403, Note_off_c, 0, 74, 62
2, 17403, Note_on_c, 0, 72, 64
2, 17463, Note_off_c, 0, 72, 68
2, 17463, Note_on_c, 0, 74, 64
2, 17523, Note_off_c, 0, 74, 58
2, 17523, Note_on_c, 0, 76, 64
2, 17583, Note_off_c, 0, 76, 50
2, 17583, Note_on_c, 0, 77, 64
2, 17643, Note_off_c, 0, 77, 55
2, 17643, Note_on_c, 0, 79, 64
2, 17823, Note_off_c, 0, 79, 63
2, 17823, Note_on_c, 0, 77, 64
2, 17883, Note_off_c, 0, 77, 58
2, 17883, Note_on_c, 0, 76, 64
2, 17943, Note_off_c, 0, 76, 43
2, 17943, Note_on_c, 0, 77, 64
2, 18003, Note_off_c, 0, 77, 58
2, 18003, Note_on_c, 0, 79, 64
2, 18063, Note_off_c, 0, 79, 65
2, 18063, Note_on_c, 0, 81, 64
2, 18123, Note_off_c, 0, 81, 66
2, 18123, Note_on_c, 0, 82, 64
2, 18183, Note_off_c, 0, 82, 59
2, 18183, Note_on_c, 0, 79, 64
2, 18243, Note_off_c, 0, 79, 53
2, 18243, Note_on_c, 0, 81, 64
2, 18423, Note_off_c, 0, 81, 55
2, 18423, Note_on_c, 0, 82, 64
2, 18483, Note_off_c, 0, 82, 59
2, 18483, Note_on_c, 0, 79, 64
2, 18663, Note_off_c, 0, 79, 47
2, 18663, Note_on_c, 0, 81, 64
2, 18723, Note_off_c, 0, 81, 43
2, 18723, Note_on_c, 0, 77, 64
2, 18783, Note_off_c, 0, 77, 62
2, 18783, Note_on_c, 0, 76, 64
2, 18843, Note_off_c, 0, 76, 46
2, 18843, Note_on_c, 0, 77, 64
2, 18903, Note_off_c, 0, 77, 49
2, 18903, Note_on_c, 0, 79, 64
2, 18963, Note_off_c, 0, 79, 46
2, 18963, Note_on_c, 0, 81, 64
2, 19083, Note_off_c, 0, 81, 58
2, 19083, Note_on_c, 0, 69, 64
2, 19203, Note_off_c, 0, 69, 36
2, 19203, Note_on_c, 0, 74, 64
2, 19263, Note_off_c, 0, 74, 42
2, 19263, Note_on_c, 0, 79, 64
2, 19323, Note_off_c, 0, 79, 43
2, 19323, Note_on_c, 0, 77, 64
2, 19383, Note_off_c, 0, 77, 59
2, 19443, Note_on_c, 0, 77, 64
2, 19463, Note_off_c, 0, 77, 65
2, 19463, Note_on_c, 0, 76, 64
2, 19483, Note_off_c, 0, 76, 52
2, 19483, Note_on_c, 0, 77, 64
2, 19503, Note_off_c, 0, 77, 61
2, 19503, Note_on_c, 0, 76, 64
2, 19523, Note_off_c, 0, 76, 41
2, 19523, Note_on_c, 0, 77, 64
2, 19543, Note_off_c, 0, 77, 62
2, 19543, Note_on_c, 0, 76, 64
2, 19623, Note_off_c, 0, 76, 54
2, 19623, Note_on_c, 0, 74, 64
2, 19673, Note_off_c, 0, 74, 65
2, 19686, Note_on_c, 0, 74, 64
2, 20046, Note_off_c, 0, 74, 70
2, 20046, Note_on_c, 0, 76, 64
2, 20166, Note_off_c, 0, 76, 50
2, 20166, Note_on_c, 0, 77, 64
2, 20886, Note_off_c, 0, 77, 77
2, 20946, Note_on_c, 0, 76, 64
2, 21006, Note_off_c, 0, 76, 41
2, 21006, Note_on_c, 0, 74, 64
2, 21066, Note_off_c, 0, 74, 52
2, 21066, Note_on_c, 0, 72, 64
2, 21126, Note_off_c, 0, 72, 41
2, 21126, Note_on_c, 0, 71, 64
2, 21246, Note_off_c, 0, 71, 44
2, 21246, Note_on_c, 0, 72, 64
2, 21486, Note_off_c, 0, 72, 66
2, 21486, Note_on_c, 0, 71, 64
2, 21606, Note_off_c, 0, 71, 57
2, 21606, Note_on_c, 0, 72, 64
2, 21966, Note_off_c, 0, 72, 52
2, 21966, Note_on_c, 0, 70, 64
2, 22086, Note_off_c, 0, 70, 68
2, 22086, Note_on_c, 0, 69, 64
2, 22566, Note_off_c, 0, 69, 68
2, 22686, Note_on_c, 0, 68, 64
2, 22806, Note_off_c, 0, 68, 65
2, 22806, Note_on_c, 0, 69, 64
2, 22926, Note_off_c, 0, 69, 61
2, 22926, Note_on_c, 0, 71, 64
2, 23046, Note_off_c, 0, 71, 46
2, 23046, Note_on_c, 0, 64, 64
2, 23286, Note_off_c, 0, 64, 34
2, 23346, Note_on_c, 0, 66, 64
2, 23406, Note_off_c, 0, 66, 52
2, 23406, Note_on_c, 0, 68, 64
2, 23466, Note_off_c, 0, 68, 69
2, 23466, Note_on_c, 0, 69, 64
2, 23526, Note_off_c, 0, 69, 54
2, 23526, Note_on_c, 0, 71, 64
2, 23586, Note_off_c, 0, 71, 65
2, 23586, Note_on_c, 0, 72, 64
2, 23646, Note_off_c, 0, 72, 66
2, 23706, Note_on_c, 0, 72, 64
2, 23766, Note_off_c, 0, 72, 57
2, 23766, Note_on_c, 0, 74, 64
2, 24126, Note_off_c, 0, 74, 68
2, 24126, Note_on_c, 0, 72, 64
2, 24366, Note_off_c, 0, 72, 57
2, 24366, Note_on_c, 0, 71, 64
2, 24606, Note_off_c, 0, 71, 62
2, 24606, Note_on_c, 0, 69, 64
2, 24666, Note_off_c, 0, 69, 34
2, 24666, Note_on_c, 0, 68, 64
2, 24726, Note_off_c, 0, 68, 69
2, 24726, Note_on_c, 0, 69, 64
2, 25206, Note_off_c, 0, 69, 41
2, 25206, Note_on_c, 0, 68, 64
2, 25446, Note_off_c, 0, 68, 49
2, 25446, Note_on_c, 0, 69, 64
2, 25566, Note_off_c, 0, 69, 66
2, 25566, Note_on_c, 0, 69, 64
2, 25626, Note_off_c, 0, 69, 62
2, 25626, Note_on_c, 0, 68, 64
2, 25686, Note_off_c, 0, 68, 68
2, 25686, Note_on_c, 0, 69, 64
2, 25806, Note_off_c, 0, 69, 65
2, 25806, Note_on_c, 0, 71, 64
2, 25926, Note_off_c, 0, 71, 51
2, 25926, Note_on_c, 0, 72, 64
2, 26046, Note_off_c, 0, 72, 65
2, 26046, Note_on_c, 0, 72, 64
2, 26106, Note_off_c, 0, 72, 74
2, 26106, Note_on_c, 0, 71, 64
2, 26166, Note_off_c, 0, 71, 70
2, 26166, Note_on_c, 0, 72, 64
2, 26286, Note_off_c, 0, 72, 66
2, 26286, Note_on_c, 0, 74, 64
2, 26406, Note_off_c, 0, 74, 58
2, 26406, Note_on_c, 0, 76, 64
2, 26466, Note_off_c, 0, 76, 52
2, 26466, Note_on_c, 0, 74, 64
2, 26526, Note_off_c, 0, 74, 66
2, 26526, Note_on_c, 0, 72, 64
2, 26586, Note_off_c, 0, 72, 63
2, 26586, Note_on_c, 0, 74, 64
2, 26646, Note_off_c, 0, 74, 61
2, 26646, Note_on_c, 0, 76, 64
2, 26766, Note_off_c, 0, 76, 49
2, 26766, Note_on_c, 0, 77, 64
2, 26886, Note_off_c, 0, 77, 69
2, 26886, Note_on_c, 0, 68, 64
2, 27006, Note_off_c, 0, 68, 69
2, 27006, Note_on_c, 0, 64, 64
2, 27126, Note_off_c, 0, 64, 40
2, 27246, Note_on_c, 0, 69, 64
2, 27366, Note_off_c, 0, 69, 61
2, 27366, Note_on_c, 0, 71, 64
2, 27426, Note_off_c, 0, 71, 63
2, 27426, Note_on_c, 0, 72, 64
2, 27486, Note_off_c, 0, 72, 68
2, 27486, Note_on_c, 0, 69, 64
2, 27546, Note_off_c, 0, 69, 61
2, 27546, Note_on_c, 0, 71, 64
2, 27606, Note_off_c, 0, 71, 68
2, 27606, Note_on_c, 0, 72, 64
2, 27666, Note_off_c, 0, 72, 73
2, 27666, Note_on_c, 0, 74, 64
2, 27726, Note_off_c, 0, 74, 50
2, 27726, Note_on_c, 0, 71, 64
2, 27786, Note_off_c, 0, 71, 66
2, 27786, Note_on_c, 0, 72, 64
2, 27846, Note_off_c, 0, 72, 72
2, 27846, Note_on_c, 0, 74, 64
2, 27966, Note_off_c, 0, 74, 52
2, 27966, Note_on_c, 0, 72, 64
2, 28086, Note_off_c, 0, 72, 77
2, 28086, Note_on_c, 0, 71, 64
2, 28206, Note_off_c, 0, 71, 77
2, 28206, Note_on_c, 0, 76, 64
2, 28326, Note_off_c, 0, 76, 51
2, 28326, Note_on_c, 0, 69, 64
2, 28446, Note_off_c, 0, 69, 66
2, 28446, Note_on_c, 0, 81, 64
2, 28686, Note_off_c, 0, 81, 59
2, 28686, Note_on_c, 0, 79, 64
2, 28926, Note_off_c, 0, 79, 65
2, 28926, Note_on_c, 0, 84, 64
2, 28986, Note_off_c, 0, 84, 57
2, 28986, Note_on_c, 0, 83, 64
2, 29046, Note_off_c, 0, 83, 66
2, 29046, Note_on_c, 0, 81, 64
2, 29106, Note_off_c, 0, 81, 53
2, 29106, Note_on_c, 0, 79, 64
2, 29166, Note_off_c, 0, 79, 70
2, 29166, Note_on_c, 0, 78, 64
2, 29226, Note_off_c, 0, 78, 66
2, 29226, Note_on_c, 0, 76, 64
2, 29286, Note_off_c, 0, 76, 45
2, 29286, Note_on_c, 0, 75, 64
2, 29406, Note_off_c, 0, 75, 57
2, 29406, Note_on_c, 0, 71, 64
2, 29526, Note_off_c, 0, 71, 48
2, 29526, Note_on_c, 0, 73, 64
2, 29646, Note_off_c, 0, 73, 76
2, 29646, Note_on_c, 0, 75, 64
2, 29766, Note_off_c, 0, 75, 52
2, 29766, Note_on_c, 0, 76, 64
2, 29826, Note_off_c, 0, 76, 62
2, 29826, Note_on_c, 0, 74, 64
2, 29886, Note_off_c, 0, 74, 74
2, 29886, Note_on_c, 0, 72, 64
2, 29946, Note_off_c, 0, 72, 79
2, 29946, Note_on_c, 0, 71, 64
2, 30006, Note_off_c, 0, 71, 51
2, 30006, Note_on_c, 0, 72, 64
2, 30246, Note_off_c, 0, 72, 73
2, 30246, Note_on_c, 0, 71, 64
2, 30366, Note_off_c, 0, 71, 55
2, 30366, Note_on_c, 0, 76, 64
2, 30426, Note_off_c, 0, 76, 52
2, 30426, Note_on_c, 0, 75, 64
2, 30486, Note_off_c, 0, 75, 52
2, 30486, Note_on_c, 0, 76, 64
2, 30606, Note_off_c, 0, 76, 45
2, 30606, Note_on_c, 0, 78, 64
2, 30726, Note_off_c, 0, 78, 49
2, 30726, Note_on_c, 0, 79, 64
2, 30846, Note_off_c, 0, 79, 59
2, 30846, Note_on_c, 0, 79, 64
2, 30906, Note_off_c, 0, 79, 59
2, 30906, Note_on_c, 0, 78, 64
2, 30966, Note_off_c, 0, 78, 51
2, 30966, Note_on_c, 0, 79, 64
2, 31086, Note_off_c, 0, 79, 65
2, 31086, Note_on_c, 0, 81, 64
2, 31206, Note_off_c, 0, 81, 62
2, 31206, Note_on_c, 0, 71, 64
2, 32046, Note_off_c, 0, 71, 46
2, 32046, Note_on_c, 0, 76, 64
2, 32106, Note_off_c, 0, 76, 58
2, 32106, Note_on_c, 0, 74, 64
2, 32166, Note_off_c, 0, 74, 62
2, 32166, Note_on_c, 0, 72, 64
2, 32226, Note_off_c, 0, 72, 77
2, 32226, Note_on_c, 0, 71, 64
2, 32286, Note_off_c, 0, 71, 61
2, 32286, Note_on_c, 0, 69, 64
2, 32346, Note_off_c, 0, 69, 43
2, 32346, Note_on_c, 0, 71, 64
2, 32406, Note_off_c, 0, 71, 73
2, 32406, Note_on_c, 0, 72, 64
2, 32526, Note_off_c, 0, 72, 74
2, 32526, Note_on_c, 0, 71, 64
2, 32586, Note_off_c, 0, 71, 69
2, 32586, Note_on_c, 0, 69, 64
2, 32646, Note_off_c, 0, 69, 68
2, 32646, Note_on_c, 0, 67, 64
2, 32886, Note_off_c, 0, 67, 31
2, 32886, Note_on_c, 0, 72, 64
2, 33246, Note_off_c, 0, 72, 73
2, 33246, Note_on_c, 0, 71, 64
2, 33306, Note_off_c, 0, 71, 69
2, 33306, Note_on_c, 0, 69, 64
2, 33366, Note_off_c, 0, 69, 66
2, 33366, Note_on_c, 0, 71, 64
2, 33486, Note_off_c, 0, 71, 59
2, 33486, Note_on_c, 0, 73, 64
2, 33606, Note_off_c, 0, 73, 62
2, 33606, Note_on_c, 0, 74, 64
2, 34206, Note_off_c, 0, 74, 68
2, 34206, Note_on_c, 0, 72, 64
2, 34266, Note_off_c, 0, 72, 80
2, 34266, Note_on_c, 0, 71, 64
2, 34326, Note_off_c, 0, 71, 61
2, 34326, Note_on_c, 0, 72, 64
2, 34446, Note_off_c, 0, 72, 63
2, 34446, Note_on_c, 0, 74, 64
2, 34566, Note_off_c, 0, 74, 51
2, 34566, Note_on_c, 0, 76, 64
2, 34686, Note_off_c, 0, 76, 49
2, 34686, Note_on_c, 0, 69, 64
2, 34806, Note_off_c, 0, 69, 46
2, 34806, Note_on_c, 0, 81, 64
2, 35106, Note_off_c, 0, 81, 49
2, 35106, Note_on_c, 0, 80, 64
2, 35166, Note_off_c, 0, 80, 65
2, 35166, Note_on_c, 0, 81, 64
2, 35226, Note_off_c, 0, 81, 52
2, 35226, Note_on_c, 0, 80, 64
2, 35286, Note_off_c, 0, 80, 61
2, 35286, Note_on_c, 0, 81, 64
2, 35406, Note_off_c, 0, 81, 63
2, 35406, Note_on_c, 0, 83, 64
2, 35526, Note_off_c, 0, 83, 52
2, 35526, Note_on_c, 0, 76, 64
2, 35886, Note_off_c, 0, 76, 53
2, 35886, Note_on_c, 0, 74, 64
2, 35946, Note_off_c, 0, 74, 52
2, 35946, Note_on_c, 0, 72, 64
2, 36006, Note_off_c, 0, 72, 46
2, 36006, Note_on_c, 0, 71, 64
2, 36126, Note_off_c, 0, 71, 51
2, 36126, Note_on_c, 0, 76, 64
2, 36186, Note_off_c, 0, 76, 53
2, 36186, Note_on_c, 0, 74, 64
2, 36246, Note_off_c, 0, 74, 54
2, 36246, Note_on_c, 0, 72, 64
2, 36306, Note_off_c, 0, 72, 72
2, 36306, Note_on_c, 0, 71, 64
2, 36366, Note_off_c, 0, 71, 54
2, 36426, Note_on_c, 0, 68, 64
2, 36486, Note_off_c, 0, 68, 55
2, 36486, Note_on_c, 0, 69, 64
2, 36606, Note_off_c, 0, 69, 70
2, 36726, Note_on_c, 0, 68, 64
2, 36846, Note_off_c, 0, 68, 70
2, 36966, Note_on_c, 0, 69, 64
2, 37206, Note_off_c, 0, 69, 72
2, 40446, Note_on_c, 0, 72, 64
2, 40506, Note_off_c, 0, 72, 74
2, 40506, Note_on_c, 0, 71, 64
2, 40566, Note_off_c, 0, 71, 66
2, 40566, Note_on_c, 0, 72, 64
2, 40686, Note_off_c, 0, 72, 77
2, 40686, Note_on_c, 0, 74, 64
2, 40806, Note_off_c, 0, 74, 52
2, 40806, Note_on_c, 0, 76, 64
2, 40926, Note_off_c, 0, 76, 52
2, 40926, Note_on_c, 0, 76, 64
2, 40986, Note_off_c, 0, 76, 50
2, 40986, Note_on_c, 0, 74, 64
2, 41046, Note_off_c, 0, 74, 57
2, 41046, Note_on_c, 0, 76, 64
2, 41166, Note_off_c, 0, 76, 49
2, 41166, Note_on_c, 0, 77, 64
2, 41286, Note_off_c, 0, 77, 57
2, 41286, Note_on_c, 0, 79, 64
2, 41346, Note_off_c, 0, 79, 59
2, 41346, Note_on_c, 0, 77, 64
2, 41406, Note_off_c, 0, 77, 57
2, 41406, Note_on_c, 0, 76, 64
2, 41466, Note_off_c, 0, 76, 54
2, 41466, Note_on_c, 0, 77, 64
2, 41526, Note_off_c, 0, 77, 68
2, 41526, Note_on_c, 0, 79, 64
2, 41646, Note_off_c, 0, 79, 59
2, 41646, Note_on_c, 0, 81, 64
2, 41766, Note_off_c, 0, 81, 58
2, 41766, Note_on_c, 0, 71, 64
2, 41886, Note_off_c, 0, 71, 69
2, 41886, Note_on_c, 0, 67, 64
2, 42006, Note_off_c, 0, 67, 37
2, 42126, Note_on_c, 0, 72, 64
2, 42246, Note_off_c, 0, 72, 61
2, 42246, Note_on_c, 0, 74, 64
2, 42306, Note_off_c, 0, 74, 70
2, 42306, Note_on_c, 0, 76, 64
2, 42366, Note_off_c, 0, 76, 53
2, 42366, Note_on_c, 0, 72, 64
2, 42426, Note_off_c, 0, 72, 73
2, 42426, Note_on_c, 0, 74, 64
2, 42486, Note_off_c, 0, 74, 65
2, 42486, Note_on_c, 0, 76, 64
2, 42546, Note_off_c, 0, 76, 57
2, 42546, Note_on_c, 0, 77, 64
2, 42606, Note_off_c, 0, 77, 66
2, 42606, Note_on_c, 0, 74, 64
2, 42666, Note_off_c, 0, 74, 58
2, 42666, Note_on_c, 0, 76, 64
2, 42726, Note_off_c, 0, 76, 61
2, 42726, Note_on_c, 0, 77, 64
2, 42846, Note_off_c, 0, 77, 63
2, 42846, Note_on_c, 0, 76, 64
2, 42966, Note_off_c, 0, 76, 44
2, 42966, Note_on_c, 0, 74, 64
2, 43086, Note_off_c, 0, 74, 63
2, 43086, Note_on_c, 0, 79, 64
2, 43206, Note_off_c, 0, 79, 53
2, 43206, Note_on_c, 0, 72, 64
2, 43266, Note_off_c, 0, 72, 69
2, 43266, Note_on_c, 0, 71, 64
2, 43326, Note_off_c, 0, 71, 61
2, 43326, Note_on_c, 0, 74, 64
2, 43386, Note_off_c, 0, 74, 66
2, 43386, Note_on_c, 0, 72, 64
2, 43446, Note_off_c, 0, 72, 70
2, 43446, Note_on_c, 0, 71, 64
2, 43506, Note_off_c, 0, 71, 61
2, 43506, Note_on_c, 0, 69, 64
2, 43566, Note_off_c, 0, 69, 61
2, 43566, Note_on_c, 0, 67, 64
2, 43626, Note_off_c, 0, 67, 43
2, 43626, Note_on_c, 0, 65, 64
2, 43686, Note_off_c, 0, 65, 1
2, 43686, Note_on_c, 0, 64, 64
2, 43806, Note_off_c, 0, 64, 24
2, 43806, Note_on_c, 0, 65, 64
2, 43866, Note_off_c, 0, 65, 48
2, 43866, Note_on_c, 0, 67, 64
2, 43926, Note_off_c, 0, 67, 48
2, 43926, Note_on_c, 0, 69, 64
2, 43986, Note_off_c, 0, 69, 70
2, 43986, Note_on_c, 0, 71, 64
2, 44046, Note_off_c, 0, 71, 49
2, 44046, Note_on_c, 0, 72, 64
2, 44106, Note_off_c, 0, 72, 59
2, 44106, Note_on_c, 0, 74, 64
2, 44166, Note_off_c, 0, 74, 48
2, 44166, Note_on_c, 0, 71, 64
2, 44286, Note_off_c, 0, 71, 57
2, 44286, Note_on_c, 0, 69, 64
2, 44346, Note_off_c, 0, 69, 54
2, 44346, Note_on_c, 0, 67, 64
2, 44406, Note_off_c, 0, 67, 24
2, 44406, Note_on_c, 0, 72, 64
2, 44886, Note_off_c, 0, 72, 62
2, 44886, Note_on_c, 0, 71, 64
2, 45126, Note_off_c, 0, 71, 55
2, 45126, Note_on_c, 0, 72, 64
2, 45246, Note_off_c, 0, 72, 61
2, 45246, Note_on_c, 0, 76, 64
2, 45306, Note_off_c, 0, 76, 52
2, 45306, Note_on_c, 0, 77, 64
2, 45366, Note_off_c, 0, 77, 62
2, 45366, Note_on_c, 0, 76, 64
2, 45486, Note_off_c, 0, 76, 51
2, 45486, Note_on_c, 0, 74, 64
2, 45606, Note_off_c, 0, 74, 61
2, 45606, Note_on_c, 0, 72, 64
2, 45726, Note_off_c, 0, 72, 70
2, 45726, Note_on_c, 0, 73, 64
2, 45846, Note_off_c, 0, 73, 58
2, 45846, Note_on_c, 0, 74, 64
2, 45966, Note_off_c, 0, 74, 61
2, 45966, Note_on_c, 0, 76, 64
2, 46086, Note_off_c, 0, 76, 51
2, 46086, Note_on_c, 0, 69, 64
2, 46206, Note_off_c, 0, 69, 52
2, 46206, Note_on_c, 0, 74, 64
2, 46266, Note_off_c, 0, 74, 68
2, 46266, Note_on_c, 0, 76, 64
2, 46326, Note_off_c, 0, 76, 61
2, 46326, Note_on_c, 0, 74, 64
2, 46446, Note_off_c, 0, 74, 68
2, 46446, Note_on_c, 0, 72, 64
2, 46566, Note_off_c, 0, 72, 73
2, 46566, Note_on_c, 0, 71, 64
2, 46626, Note_off_c, 0, 71, 76
2, 46626, Note_on_c, 0, 72, 64
2, 46686, Note_off_c, 0, 72, 62
2, 46686, Note_on_c, 0, 74, 64
2, 46746, Note_off_c, 0, 74, 47
2, 46746, Note_on_c, 0, 72, 64
2, 46806, Note_off_c, 0, 72, 69
2, 46806, Note_on_c, 0, 71, 64
2, 46926, Note_off_c, 0, 71, 58
2, 46926, Note_on_c, 0, 69, 64
2, 47046, Note_off_c, 0, 69, 53
2, 47046, Note_on_c, 0, 67, 64
2, 47286, Note_off_c, 0, 67, 39
2, 50526, Note_on_c, 0, 74, 64
2, 50586, Note_off_c, 0, 74, 73
2, 50586, Note_on_c, 0, 76, 64
2, 50646, Note_off_c, 0, 76, 50
2, 50646, Note_on_c, 0, 74, 64
2, 50766, Note_off_c, 0, 74, 68
2, 50766, Note_on_c, 0, 72, 64
2, 50886, Note_off_c, 0, 72, 74
2, 50886, Note_on_c, 0, 71, 64
2, 51006, Note_off_c, 0, 71, 63
2, 51006, Note_on_c, 0, 71, 64
2, 51066, Note_off_c, 0, 71, 57
2, 51066, Note_on_c, 0, 72, 64
2, 51126, Note_off_c, 0, 72, 70
2, 51126, Note_on_c, 0, 71, 64
2, 51246, Note_off_c, 0, 71, 51
2, 51246, Note_on_c, 0, 69, 64
2, 51366, Note_off_c, 0, 69, 53
2, 51366, Note_on_c, 0, 67, 64
2, 51426, Note_off_c, 0, 67, 54
2, 51426, Note_on_c, 0, 69, 64
2, 51486, Note_off_c, 0, 69, 66
2, 51486, Note_on_c, 0, 71, 64
2, 51546, Note_off_c, 0, 71, 70
2, 51546, Note_on_c, 0, 69, 64
2, 51606, Note_off_c, 0, 69, 66
2, 51606, Note_on_c, 0, 67, 64
2, 51726, Note_off_c, 0, 67, 38
2, 51726, Note_on_c, 0, 66, 64
2, 51846, Note_off_c, 0, 66, 76
2, 51846, Note_on_c, 0, 76, 64
2, 51966, Note_off_c, 0, 76, 54
2, 51966, Note_on_c, 0, 79, 64
2, 52086, Note_off_c, 0, 79, 49
2, 52206, Note_on_c, 0, 74, 64
2, 52326, Note_off_c, 0, 74, 51
2, 52386, Note_on_c, 0, 71, 64
2, 52446, Note_off_c, 0, 71, 52
2, 52446, Note_on_c, 0, 74, 64
2, 52506, Note_off_c, 0, 74, 65
2, 52506, Note_on_c, 0, 72, 64
2, 52566, Note_off_c, 0, 72, 74
2, 52566, Note_on_c, 0, 71, 64
2, 52626, Note_off_c, 0, 71, 77
2, 52626, Note_on_c, 0, 69, 64
2, 52686, Note_off_c, 0, 69, 50
2, 52686, Note_on_c, 0, 72, 64
2, 52746, Note_off_c, 0, 72, 72
2, 52746, Note_on_c, 0, 71, 64
2, 52806, Note_off_c, 0, 71, 63
2, 52806, Note_on_c, 0, 69, 64
2, 52926, Note_off_c, 0, 69, 44
2, 52926, Note_on_c, 0, 71, 64
2, 53046, Note_off_c, 0, 71, 72
2, 53046, Note_on_c, 0, 72, 64
2, 53166, Note_off_c, 0, 72, 73
2, 53166, Note_on_c, 0, 67, 64
2, 53286, Note_off_c, 0, 67, 25
2, 53286, Note_on_c, 0, 74, 64
2, 53346, Note_off_c, 0, 74, 72
2, 53346, Note_on_c, 0, 76, 64
2, 53406, Note_off_c, 0, 76, 52
2, 53406, Note_on_c, 0, 74, 64
2, 53466, Note_off_c, 0, 74, 70
2, 53466, Note_on_c, 0, 76, 64
2, 53526, Note_off_c, 0, 76, 59
2, 53526, Note_on_c, 0, 77, 70
2, 53546, Note_off_c, 0, 77, 79
2, 53546, Note_on_c, 0, 76, 50
2, 53566, Note_off_c, 0, 76, 73
2, 53566, Note_on_c, 0, 77, 52
2, 53586, Note_off_c, 0, 77, 80
2, 53586, Note_on_c, 0, 76, 54
2, 53606, Note_off_c, 0, 76, 73
2, 53606, Note_on_c, 0, 77, 57
2, 53626, Note_off_c, 0, 77, 76
2, 53626, Note_on_c, 0, 76, 59
2, 53646, Note_off_c, 0, 76, 70
2, 53646, Note_on_c, 0, 77, 61
2, 53666, Note_off_c, 0, 77, 77
2, 53666, Note_on_c, 0, 76, 63
2, 53706, Note_off_c, 0, 76, 57
2, 53706, Note_on_c, 0, 74, 64
2, 53736, Note_off_c, 0, 74, 69
2, 53736, Note_on_c, 0, 76, 64
2, 53766, Note_off_c, 0, 76, 52
2, 53766, Note_on_c, 0, 77, 64
2, 54366, Note_off_c, 0, 77, 74
2, 54366, Note_on_c, 0, 76, 64
2, 54426, Note_off_c, 0, 76, 55
2, 54426, Note_on_c, 0, 77, 64
2, 54486, Note_off_c, 0, 77, 65
2, 54486, Note_on_c, 0, 76, 64
2, 54606, Note_off_c, 0, 76, 55
2, 54606, Note_on_c, 0, 74, 64
2, 54726, Note_off_c, 0, 74, 53
2, 54726, Note_on_c, 0, 72, 64
2, 54846, Note_off_c, 0, 72, 57
2, 54846, Note_on_c, 0, 72, 64
2, 54906, Note_off_c, 0, 72, 66
2, 54906, Note_on_c, 0, 74, 64
2, 54966, Note_off_c, 0, 74, 62
2, 54966, Note_on_c, 0, 72, 64
2, 55086, Note_off_c, 0, 72, 66
2, 55086, Note_on_c, 0, 71, 64
2, 55206, Note_off_c, 0, 71, 66
2, 55206, Note_on_c, 0, 69, 64
2, 55266, Note_off_c, 0, 69, 65
2, 55266, Note_on_c, 0, 71, 64
2, 55326, Note_off_c, 0, 71, 68
2, 55326, Note_on_c, 0, 72, 64
2, 55386, Note_off_c, 0, 72, 63
2, 55386, Note_on_c, 0, 71, 64
2, 55446, Note_off_c, 0, 71, 65
2, 55446, Note_on_c, 0, 69, 64
2, 55566, Note_off_c, 0, 69, 46
2, 55566, Note_on_c, 0, 67, 64
2, 55686, Note_off_c, 0, 67, 40
2, 55686, Note_on_c, 0, 77, 64
2, 55806, Note_off_c, 0, 77, 69
2, 55806, Note_on_c, 0, 81, 64
2, 55926, Note_off_c, 0, 81, 52
2, 56046, Note_on_c, 0, 76, 64
2, 56166, Note_off_c, 0, 76, 48
2, 56166, Note_on_c, 0, 74, 64
2, 56226, Note_off_c, 0, 74, 58
2, 56226, Note_on_c, 0, 72, 64
2, 56286, Note_off_c, 0, 72, 69
2, 56286, Note_on_c, 0, 76, 64
2, 56346, Note_off_c, 0, 76, 51
2, 56346, Note_on_c, 0, 74, 64
2, 56406, Note_off_c, 0, 74, 65
2, 56406, Note_on_c, 0, 72, 64
2, 56466, Note_off_c, 0, 72, 72
2, 56466, Note_on_c, 0, 71, 64
2, 56526, Note_off_c, 0, 71, 52
2, 56526, Note_on_c, 0, 74, 64
2, 56586, Note_off_c, 0, 74, 68
2, 56586, Note_on_c, 0, 72, 64
2, 56646, Note_off_c, 0, 72, 77
2, 56646, Note_on_c, 0, 71, 64
2, 57006, Note_off_c, 0, 71, 66
2, 57006, Note_on_c, 0, 69, 64
2, 57186, Note_off_c, 0, 69, 63
2, 57186, Note_on_c, 0, 71, 64
2, 57246, Note_off_c, 0, 71, 69
2, 57246, Note_on_c, 0, 68, 64
2, 57306, Note_off_c, 0, 68, 63
2, 57306, Note_on_c, 0, 69, 64
2, 57366, Note_off_c, 0, 69, 58
2, 57366, Note_on_c, 0, 71, 64
2, 57666, Note_off_c, 0, 71, 58
2, 57666, Note_on_c, 0, 72, 64
2, 57726, Note_off_c, 0, 72, 76
2, 57726, Note_on_c, 0, 69, 64
2, 57786, Note_off_c, 0, 69, 66
2, 57786, Note_on_c, 0, 71, 64
2, 57846, Note_off_c, 0, 71, 63
2, 57846, Note_on_c, 0, 72, 64
2, 58146, Note_off_c, 0, 72, 55
2, 58146, Note_on_c, 0, 74, 64
2, 58206, Note_off_c, 0, 74, 49
2, 58206, Note_on_c, 0, 71, 64
2, 58266, Note_off_c, 0, 71, 48
2, 58266, Note_on_c, 0, 72, 64
2, 58326, Note_off_c, 0, 72, 69
2, 58326, Note_on_c, 0, 74, 64
2, 58386, Note_off_c, 0, 74, 59
2, 58386, Note_on_c, 0, 72, 64
2, 58446, Note_off_c, 0, 72, 70
2, 58446, Note_on_c, 0, 71, 64
2, 58506, Note_off_c, 0, 71, 55
2, 58506, Note_on_c, 0, 69, 64
2, 58566, Note_off_c, 0, 69, 43
2, 58566, Note_on_c, 0, 68, 64
2, 58626, Note_off_c, 0, 68, 63
2, 58626, Note_on_c, 0, 71, 64
2, 58686, Note_off_c, 0, 71, 46
2, 58686, Note_on_c, 0, 72, 64
2, 58746, Note_off_c, 0, 72, 39
2, 58746, Note_on_c, 0, 74, 64
2, 58806, Note_off_c, 0, 74, 49
2, 58806, Note_on_c, 0, 76, 64
2, 58866, Note_off_c, 0, 76, 40
2, 58866, Note_on_c, 0, 77, 64
2, 58926, Note_off_c, 0, 77, 52
2, 58926, Note_on_c, 0, 79, 64
2, 59106, Note_off_c, 0, 79, 61
2, 59106, Note_on_c, 0, 81, 64
2, 59166, Note_off_c, 0, 81, 49
2, 59166, Note_on_c, 0, 79, 64
2, 59226, Note_off_c, 0, 79, 43
2, 59226, Note_on_c, 0, 77, 64
2, 59286, Note_off_c, 0, 77, 37
2, 59286, Note_on_c, 0, 79, 64
2, 59586, Note_off_c, 0, 79, 52
2, 59586, Note_on_c, 0, 77, 64
2, 59646, Note_off_c, 0, 77, 63
2, 59646, Note_on_c, 0, 76, 64
2, 59706, Note_off_c, 0, 76, 43
2, 59706, Note_on_c, 0, 77, 64
2, 59766, Note_off_c, 0, 77, 44
2, 59766, Note_on_c, 0, 79, 64
2, 60066, Note_off_c, 0, 79, 55
2, 60066, Note_on_c, 0, 82, 64
2, 60126, Note_off_c, 0, 82, 51
2, 60126, Note_on_c, 0, 81, 64
2, 60186, Note_off_c, 0, 81, 57
2, 60186, Note_on_c, 0, 79, 64
2, 60246, Note_off_c, 0, 79, 61
2, 60246, Note_on_c, 0, 77, 64
2, 60306, Note_off_c, 0, 77, 50
2, 60306, Note_on_c, 0, 76, 64
2, 60366, Note_off_c, 0, 76, 46
2, 60366, Note_on_c, 0, 74, 64
2, 60426, Note_off_c, 0, 74, 45
2, 60426, Note_on_c, 0, 73, 64
2, 60486, Note_off_c, 0, 73, 49
2, 60486, Note_on_c, 0, 74, 64
2, 60546, Note_off_c, 0, 74, 46
2, 60546, Note_on_c, 0, 76, 64
2, 60606, Note_off_c, 0, 76, 46
2, 60606, Note_on_c, 0, 74, 64
2, 60666, Note_off_c, 0, 74, 53
2, 60666, Note_on_c, 0, 76, 64
2, 60726, Note_off_c, 0, 76, 50
2, 60726, Note_on_c, 0, 77, 70
2, 60746, Note_off_c, 0, 77, 79
2, 60746, Note_on_c, 0, 76, 50
2, 60766, Note_off_c, 0, 76, 73
2, 60766, Note_on_c, 0, 77, 52
2, 60786, Note_off_c, 0, 77, 80
2, 60786, Note_on_c, 0, 76, 54
2, 60806, Note_off_c, 0, 76, 73
2, 60806, Note_on_c, 0, 77, 57
2, 60826, Note_off_c, 0, 77, 76
2, 60826, Note_on_c, 0, 76, 59
2, 60846, Note_off_c, 0, 76, 70
2, 60846, Note_on_c, 0, 77, 61
2, 60866, Note_off_c, 0, 77, 77
2, 60866, Note_on_c, 0, 76, 63
2, 60906, Note_off_c, 0, 76, 57
2, 60906, Note_on_c, 0, 74, 64
2, 60966, Note_off_c, 0, 74, 72
2, 60966, Note_on_c, 0, 74, 64
2, 61686, Note_off_c, 0, 74, 66
2, 63966, Note_on_c, 0, 76, 64
2, 64026, Note_off_c, 0, 76, 65
2, 64026, Note_on_c, 0, 77, 64
2, 64086, Note_off_c, 0, 77, 66
2, 64086, Note_on_c, 0, 76, 64
2, 64206, Note_off_c, 0, 76, 61
2, 64206, Note_on_c, 0, 74, 64
2, 64326, Note_off_c, 0, 74, 61
2, 64326, Note_on_c, 0, 72, 64
2, 64446, Note_off_c, 0, 72, 63
2, 64446, Note_on_c, 0, 72, 64
2, 64506, Note_off_c, 0, 72, 74
2, 64506, Note_on_c, 0, 74, 64
2, 64566, Note_off_c, 0, 74, 57
2, 64566, Note_on_c, 0, 72, 64
2, 64686, Note_off_c, 0, 72, 82
2, 64686, Note_on_c, 0, 70, 64
2, 64806, Note_off_c, 0, 70, 66
2, 64806, Note_on_c, 0, 69, 64
2, 64866, Note_off_c, 0, 69, 52
2, 64866, Note_on_c, 0, 70, 64
2, 64926, Note_off_c, 0, 70, 65
2, 64926, Note_on_c, 0, 72, 64
2, 64986, Note_off_c, 0, 72, 74
2, 64986, Note_on_c, 0, 70, 64
2, 65046, Note_off_c, 0, 70, 62
2, 65046, Note_on_c, 0, 69, 64
2, 65166, Note_off_c, 0, 69, 59
2, 65166, Note_on_c, 0, 67, 64
2, 65286, Note_off_c, 0, 67, 34
2, 65286, Note_on_c, 0, 77, 64
2, 65406, Note_off_c, 0, 77, 70
2, 65406, Note_on_c, 0, 81, 64
2, 65526, Note_off_c, 0, 81, 44
2, 65646, Note_on_c, 0, 76, 64
2, 65766, Note_off_c, 0, 76, 52
2, 65766, Note_on_c, 0, 74, 64
2, 65826, Note_off_c, 0, 74, 70
2, 65826, Note_on_c, 0, 73, 64
2, 65886, Note_off_c, 0, 73, 61
2, 65886, Note_on_c, 0, 76, 64
2, 65946, Note_off_c, 0, 76, 30
2, 65946, Note_on_c, 0, 74, 64
2, 66006, Note_off_c, 0, 74, 70
2, 66006, Note_on_c, 0, 73, 64
2, 66066, Note_off_c, 0, 73, 52
2, 66066, Note_on_c, 0, 71, 64
2, 66126, Note_off_c, 0, 71, 49
2, 66126, Note_on_c, 0, 74, 64
2, 66186, Note_off_c, 0, 74, 53
2, 66186, Note_on_c, 0, 72, 64
2, 66246, Note_off_c, 0, 72, 68
2, 66246, Note_on_c, 0, 71, 64
2, 66366, Note_off_c, 0, 71, 57
2, 66366, Note_on_c, 0, 73, 64
2, 66486, Note_off_c, 0, 73, 52
2, 66486, Note_on_c, 0, 74, 64
2, 66606, Note_off_c, 0, 74, 50
2, 66606, Note_on_c, 0, 69, 64
2, 66726, Note_off_c, 0, 69, 52
2, 66726, Note_on_c, 0, 76, 64
2, 67266, Note_off_c, 0, 76, 49
2, 67266, Note_on_c, 0, 73, 64
2, 67326, Note_off_c, 0, 73, 52
2, 67326, Note_on_c, 0, 74, 64
2, 67386, Note_off_c, 0, 74, 42
2, 67386, Note_on_c, 0, 77, 64
2, 67446, Note_off_c, 0, 77, 49
2, 67446, Note_on_c, 0, 79, 64
2, 67746, Note_off_c, 0, 79, 57
2, 67746, Note_on_c, 0, 76, 64
2, 67806, Note_off_c, 0, 76, 44
2, 67806, Note_on_c, 0, 77, 64
2, 67866, Note_off_c, 0, 77, 61
2, 67866, Note_on_c, 0, 81, 64
2, 67926, Note_off_c, 0, 81, 62
2, 67926, Note_on_c, 0, 82, 64
2, 68226, Note_off_c, 0, 82, 53
2, 68226, Note_on_c, 0, 79, 64
2, 68286, Note_off_c, 0, 79, 52
2, 68286, Note_on_c, 0, 81, 64
2, 68346, Note_off_c, 0, 81, 39
2, 68346, Note_on_c, 0, 84, 64
2, 68406, Note_off_c, 0, 84, 52
2, 68406, Note_on_c, 0, 74, 64
2, 68526, Note_off_c, 0, 74, 50
2, 68526, Note_on_c, 0, 76, 64
2, 68586, Note_off_c, 0, 76, 40
2, 68586, Note_on_c, 0, 79, 64
2, 68646, Note_off_c, 0, 79, 57
2, 68646, Note_on_c, 0, 72, 64
2, 68946, Note_off_c, 0, 72, 63
2, 68946, Note_on_c, 0, 65, 64
2, 69006, Note_off_c, 0, 65, 1
2, 69006, Note_on_c, 0, 67, 64
2, 69066, Note_off_c, 0, 67, 47
2, 69066, Note_on_c, 0, 70, 64
2, 69186, Note_off_c, 0, 70, 62
2, 69186, Note_on_c, 0, 70, 64
2, 69246, Note_off_c, 0, 70, 69
2, 69246, Note_on_c, 0, 69, 64
2, 69306, Note_off_c, 0, 69, 69
2, 69306, Note_on_c, 0, 67, 64
2, 69366, Note_off_c, 0, 67, 47
2, 69366, Note_on_c, 0, 67, 64
2, 69546, Note_off_c, 0, 67, 45
2, 69546, Note_on_c, 0, 65, 64
2, 69596, Note_off_c, 0, 65, 35
2, 69609, Note_on_c, 0, 65, 64
2, 69849, Note_off_c, 0, 65, 66
2, 69849, Note_on_c, 0, 72, 64
2, 71169, Note_off_c, 0, 72, 80
2, 71169, Note_on_c, 0, 69, 64
2, 71289, Note_off_c, 0, 69, 34
2, 71289, Note_on_c, 0, 75, 64
2, 71649, Note_off_c, 0, 75, 50
2, 71649, Note_on_c, 0, 74, 64
2, 71769, Note_off_c, 0, 74, 55
2, 71769, Note_on_c, 0, 72, 64
2, 71829, Note_off_c, 0, 72, 50
2, 71829, Note_on_c, 0, 70, 64
2, 71889, Note_off_c, 0, 70, 59
2, 71889, Note_on_c, 0, 74, 64
2, 71949, Note_off_c, 0, 74, 57
2, 71949, Note_on_c, 0, 72, 64
2, 72009, Note_off_c, 0, 72, 59
2, 72009, Note_on_c, 0, 70, 64
2, 72069, Note_off_c, 0, 70, 69
2, 72069, Note_on_c, 0, 72, 64
2, 72129, Note_off_c, 0, 72, 69
2, 72129, Note_on_c, 0, 74, 64
2, 72189, Note_off_c, 0, 74, 66
2, 72189, Note_on_c, 0, 72, 64
2, 72249, Note_off_c, 0, 72, 73
2, 72249, Note_on_c, 0, 70, 64
2, 72309, Note_off_c, 0, 70, 73
2, 72309, Note_on_c, 0, 69, 64
2, 72369, Note_off_c, 0, 69, 65
2, 72369, Note_on_c, 0, 67, 64
2, 72429, Note_off_c, 0, 67, 46
2, 72429, Note_on_c, 0, 65, 64
2, 72489, Note_off_c, 0, 65, 39
2, 72489, Note_on_c, 0, 67, 64
2, 72549, Note_off_c, 0, 67, 46
2, 72549, Note_on_c, 0, 69, 64
2, 72609, Note_off_c, 0, 69, 74
2, 72609, Note_on_c, 0, 70, 64
2, 72669, Note_off_c, 0, 70, 72
2, 72669, Note_on_c, 0, 69, 64
2, 72729, Note_off_c, 0, 69, 69
2, 72729, Note_on_c, 0, 67, 64
2, 72789, Note_off_c, 0, 67, 43
2, 72789, Note_on_c, 0, 65, 64
2, 72849, Note_off_c, 0, 65, 49
2, 72849, Note_on_c, 0, 64, 64
2, 72909, Note_off_c, 0, 64, 42
2, 72909, Note_on_c, 0, 62, 64
2, 72969, Note_off_c, 0, 62, 37
2, 72969, Note_on_c, 0, 76, 64
2, 73449, Note_off_c, 0, 76, 55
2, 73569, Note_on_c, 0, 76, 64
2, 73629, Note_off_c, 0, 76, 39
2, 73629, Note_on_c, 0, 74, 64
2, 73689, Note_off_c, 0, 74, 37
2, 73689, Note_on_c, 0, 76, 64
2, 73809, Note_off_c, 0, 76, 46
2, 73809, Note_on_c, 0, 77, 64
2, 73929, Note_off_c, 0, 77, 49
2, 73929, Note_on_c, 0, 79, 64
2, 74049, Note_off_c, 0, 79, 50
2, 74049, Note_on_c, 0, 79, 64
2, 74109, Note_off_c, 0, 79, 65
2, 74109, Note_on_c, 0, 77, 64
2, 74169, Note_off_c, 0, 77, 55
2, 74169, Note_on_c, 0, 79, 64
2, 74289, Note_off_c, 0, 79, 63
2, 74289, Note_on_c, 0, 81, 64
2, 74409, Note_off_c, 0, 81, 63
2, 74409, Note_on_c, 0, 82, 64
2, 74469, Note_off_c, 0, 82, 70
2, 74469, Note_on_c, 0, 81, 64
2, 74529, Note_off_c, 0, 81, 65
2, 74529, Note_on_c, 0, 79, 64
2, 74589, Note_off_c, 0, 79, 55
2, 74589, Note_on_c, 0, 81, 64
2, 74649, Note_off_c, 0, 81, 68
2, 74649, Note_on_c, 0, 82, 64
2, 74709, Note_off_c, 0, 82, 69
2, 74709, Note_on_c, 0, 79, 64
2, 74769, Note_off_c, 0, 79, 52
2, 74769, Note_on_c, 0, 81, 64
2, 74829, Note_off_c, 0, 81, 57
2, 74829, Note_on_c, 0, 76, 64
2, 74889, Note_off_c, 0, 76, 47
2, 74889, Note_on_c, 0, 77, 64
2, 74949, Note_off_c, 0, 77, 58
2, 74949, Note_on_c, 0, 76, 64
2, 75009, Note_off_c, 0, 76, 54
2, 75069, Note_on_c, 0, 76, 64
2, 75129, Note_off_c, 0, 76, 41
2, 75129, Note_on_c, 0, 77, 64
2, 75189, Note_off_c, 0, 77, 72
2, 75189, Note_on_c, 0, 74, 64
2, 75249, Note_off_c, 0, 74, 68
2, 75249, Note_on_c, 0, 76, 64
2, 75309, Note_off_c, 0, 76, 49
2, 75309, Note_on_c, 0, 73, 64
2, 75369, Note_off_c, 0, 73, 63
2, 75369, Note_on_c, 0, 74, 64
2, 75429, Note_off_c, 0, 74, 66
2, 75429, Note_on_c, 0, 72, 64
2, 75489, Note_off_c, 0, 72, 82
2, 75489, Note_on_c, 0, 70, 64
2, 75549, Note_off_c, 0, 70, 69
2, 75549, Note_on_c, 0, 72, 64
2, 75609, Note_off_c, 0, 72, 72
2, 75609, Note_on_c, 0, 74, 64
2, 75669, Note_off_c, 0, 74, 53
2, 75669, Note_on_c, 0, 70, 64
2, 75729, Note_off_c, 0, 70, 70
2, 75729, Note_on_c, 0, 72, 64
2, 75789, Note_off_c, 0, 72, 70
2, 75789, Note_on_c, 0, 69, 64
2, 75849, Note_off_c, 0, 69, 51
2, 75849, Note_on_c, 0, 80, 64
2, 75849, Note_on_c, 0, 76, 64
2, 76089, Note_off_c, 0, 76, 49
2, 76089, Note_off_c, 0, 80, 69
2, 76329, Note_on_c, 0, 81, 64
2, 76929, Note_off_c, 0, 81, 50
2, 76929, Note_on_c, 0, 76, 64
2, 76989, Note_off_c, 0, 76, 48
2, 76989, Note_on_c, 0, 74, 64
2, 77049, Note_off_c, 0, 74, 23
2, 77049, Note_on_c, 0, 76, 64
2, 77169, Note_off_c, 0, 76, 43
2, 77169, Note_on_c, 0, 78, 64
2, 77289, Note_off_c, 0, 78, 52
2, 77289, Note_on_c, 0, 80, 64
2, 77409, Note_off_c, 0, 80, 62
2, 77409, Note_on_c, 0, 80, 64
2, 77469, Note_off_c, 0, 80, 65
2, 77469, Note_on_c, 0, 78, 64
2, 77529, Note_off_c, 0, 78, 52
2, 77529, Note_on_c, 0, 80, 64
2, 77649, Note_off_c, 0, 80, 59
2, 77649, Note_on_c, 0, 81, 64
2, 77769, Note_off_c, 0, 81, 52
2, 77769, Note_on_c, 0, 83, 64
2, 77829, Note_off_c, 0, 83, 70
2, 77829, Note_on_c, 0, 81, 64
2, 77889, Note_off_c, 0, 81, 68
2, 77889, Note_on_c, 0, 80, 64
2, 77949, Note_off_c, 0, 80, 76
2, 77949, Note_on_c, 0, 81, 64
2, 78009, Note_off_c, 0, 81, 65
2, 78009, Note_on_c, 0, 83, 64
2, 78129, Note_off_c, 0, 83, 70
2, 78129, Note_on_c, 0, 84, 64
2, 78129, Note_on_c, 0, 69, 64
2, 78249, Note_off_c, 0, 69, 59
2, 78249, Note_off_c, 0, 84, 62
2, 78249, Note_on_c, 0, 71, 64
2, 78249, Note_on_c, 0, 69, 64
2, 78249, Note_on_c, 0, 75, 64
2, 78489, Note_off_c, 0, 75, 43
2, 78489, Note_off_c, 0, 69, 53
2, 78489, Note_off_c, 0, 71, 66
2, 78609, Note_on_c, 0, 71, 64
2, 78609, Note_on_c, 0, 76, 64
2, 78729, Note_off_c, 0, 76, 9
2, 78729, Note_off_c, 0, 71, 62
2, 78729, Note_on_c, 0, 69, 64
2, 78729, Note_on_c, 0, 72, 64
2, 78849, Note_off_c, 0, 72, 65
2, 78849, Note_on_c, 0, 71, 64
2, 78909, Note_off_c, 0, 71, 70
2, 78909, Note_on_c, 0, 69, 64
2, 78969, Note_off_c, 0, 69, 66
2, 78969, Note_off_c, 0, 69, 65
2, 78969, Note_on_c, 0, 69, 64
2, 78969, Note_on_c, 0, 72, 64
2, 79029, Note_off_c, 0, 72, 73
2, 79029, Note_on_c, 0, 71, 64
2, 79089, Note_off_c, 0, 71, 61
2, 79089, Note_off_c, 0, 69, 72
2, 79089, Note_on_c, 0, 64, 64
2, 79089, Note_on_c, 0, 69, 64
2, 79149, Note_off_c, 0, 69, 70
2, 79149, Note_on_c, 0, 68, 64
2, 79209, Note_off_c, 0, 68, 70
2, 79209, Note_off_c, 0, 64, 19
2, 79209, Note_on_c, 0, 64, 64
2, 79209, Note_on_c, 0, 69, 64
2, 79449, Note_off_c, 0, 69, 73
2, 79449, Note_off_c, 0, 64, 26
2, 80289, Note_on_c, 0, 74, 64
2, 80349, Note_off_c, 0, 74, 76
2, 80349, Note_on_c, 0, 73, 64
2, 80409, Note_off_c, 0, 73, 57
2, 80409, Note_on_c, 0, 74, 64
2, 80529, Note_off_c, 0, 74, 76
2, 80529, Note_on_c, 0, 76, 64
2, 80649, Note_off_c, 0, 76, 52
2, 80649, Note_on_c, 0, 77, 64
2, 80769, Note_off_c, 0, 77, 72
2, 80769, Note_on_c, 0, 77, 64
2, 80829, Note_off_c, 0, 77, 77
2, 80829, Note_on_c, 0, 76, 64
2, 80889, Note_off_c, 0, 76, 61
2, 80889, Note_on_c, 0, 77, 64
2, 81009, Note_off_c, 0, 77, 66
2, 81009, Note_on_c, 0, 79, 64
2, 81129, Note_off_c, 0, 79, 53
2, 81129, Note_on_c, 0, 81, 64
2, 81189, Note_off_c, 0, 81, 62
2, 81189, Note_on_c, 0, 79, 64
2, 81249, Note_off_c, 0, 79, 59
2, 81249, Note_on_c, 0, 77, 64
2, 81309, Note_off_c, 0, 77, 62
2, 81309, Note_on_c, 0, 79, 64
2, 81369, Note_off_c, 0, 79, 52
2, 81369, Note_on_c, 0, 81, 64
2, 81489, Note_off_c, 0, 81, 69
2, 81489, Note_on_c, 0, 82, 64
2, 81609, Note_off_c, 0, 82, 61
2, 81609, Note_on_c, 0, 73, 64
2, 81729, Note_off_c, 0, 73, 51
2, 81729, Note_on_c, 0, 69, 64
2, 81849, Note_off_c, 0, 69, 49
2, 81969, Note_on_c, 0, 74, 64
2, 82149, Note_off_c, 0, 74, 50
2, 82149, Note_on_c, 0, 72, 64
2, 82209, Note_off_c, 0, 72, 79
2, 82209, Note_on_c, 0, 71, 64
2, 82269, Note_off_c, 0, 71, 47
2, 82269, Note_on_c, 0, 72, 64
2, 82329, Note_off_c, 0, 72, 70
2, 82329, Note_on_c, 0, 74, 64
2, 82389, Note_off_c, 0, 74, 72
2, 82389, Note_on_c, 0, 76, 64
2, 82449, Note_off_c, 0, 76, 62
2, 82449, Note_on_c, 0, 78, 64
2, 82509, Note_off_c, 0, 78, 68
2, 82509, Note_on_c, 0, 80, 64
2, 82569, Note_off_c, 0, 80, 63
2, 82569, Note_on_c, 0, 81, 64
2, 83529, Note_off_c, 0, 81, 69
2, 83529, End_track
3, 0, Start_track
3, 0, Text_t, "RH L"
3, 120, Note_on_c, 1, 69, 64
3, 180, Note_off_c, 1, 69, 63
3, 180, Note_on_c, 1, 68, 64
3, 240, Note_off_c, 1, 68, 73
3, 240, Note_on_c, 1, 69, 64
3, 360, Note_off_c, 1, 69, 57
3, 360, Note_on_c, 1, 71, 64
3, 480, Note_off_c, 1, 71, 76
3, 480, Note_on_c, 1, 72, 64
3, 600, Note_off_c, 1, 72, 74
3, 600, Note_on_c, 1, 72, 64
3, 660, Note_off_c, 1, 72, 74
3, 660, Note_on_c, 1, 71, 64
3, 720, Note_off_c, 1, 71, 69
3, 720, Note_on_c, 1, 72, 64
3, 840, Note_off_c, 1, 72, 77
3, 840, Note_on_c, 1, 74, 64
3, 960, Note_off_c, 1, 74, 59
3, 960, Note_on_c, 1, 76, 64
3, 1020, Note_off_c, 1, 76, 59
3, 1020, Note_on_c, 1, 74, 64
3, 1080, Note_off_c, 1, 74, 65
3, 1080, Note_on_c, 1, 72, 64
3, 1140, Note_off_c, 1, 72, 66
3, 1140, Note_on_c, 1, 74, 64
3, 1200, Note_off_c, 1, 74, 68
3, 1200, Note_on_c, 1, 76, 64
3, 1320, Note_off_c, 1, 76, 46
3, 1320, Note_on_c, 1, 77, 64
3, 1440, Note_off_c, 1, 77, 68
3, 1440, Note_on_c, 1, 68, 64
3, 1560, Note_off_c, 1, 68, 48
3, 1560, Note_on_c, 1, 64, 64
3, 1680, Note_off_c, 1, 64, 39
3, 1800, Note_on_c, 1, 69, 64
3, 1920, Note_off_c, 1, 69, 65
3, 1920, Note_on_c, 1, 71, 64
3, 1980, Note_off_c, 1, 71, 63
3, 1980, Note_on_c, 1, 72, 64
3, 2040, Note_off_c, 1, 72, 69
3, 2040, Note_on_c, 1, 69, 64
3, 2100, Note_off_c, 1, 69, 51
3, 2100, Note_on_c, 1, 71, 64
3, 2160, Note_off_c, 1, 71, 69
3, 2160, Note_on_c, 1, 72, 64
3, 2220, Note_off_c, 1, 72, 70
3, 2220, Note_on_c, 1, 74, 64
3, 2280, Note_off_c, 1, 74, 61
3, 2280, Note_on_c, 1, 71, 64
3, 2340, Note_off_c, 1, 71, 59
3, 2340, Note_on_c, 1, 72, 64
3, 2400, Note_off_c, 1, 72, 73
3, 2400, Note_on_c, 1, 74, 64
3, 2520, Note_off_c, 1, 74, 62
3, 2520, Note_on_c, 1, 72, 64
3, 2640, Note_off_c, 1, 72, 62
3, 2640, Note_on_c, 1, 71, 64
3, 2760, Note_off_c, 1, 71, 44
3, 2760, Note_on_c, 1, 76, 64
3, 2880, Note_off_c, 1, 76, 49
3, 2880, Note_on_c, 1, 69, 64
3, 3120, Note_off_c, 1, 69, 59
3, 3120, Note_on_c, 1, 67, 64
3, 3240, Note_off_c, 1, 67, 34
3, 3240, Note_on_c, 1, 66, 64
3, 3360, Note_off_c, 1, 66, 40
3, 3360, Note_on_c, 1, 64, 64
3, 3480, Note_off_c, 1, 64, 27
3, 3480, Note_on_c, 1, 72, 64
3, 3600, Note_off_c, 1, 72, 76
3, 3600, Note_on_c, 1, 71, 64
3, 3720, Note_off_c, 1, 71, 74
3, 3720, Note_on_c, 1, 69, 64
3, 3840, Note_off_c, 1, 69, 63
3, 3840, Note_on_c, 1, 67, 64
3, 3900, Note_off_c, 1, 67, 53
3, 3900, Note_on_c, 1, 66, 64
3, 3960, Note_off_c, 1, 66, 70
3, 3960, Note_on_c, 1, 64, 64
3, 4020, Note_off_c, 1, 64, 46
3, 4020, Note_on_c, 1, 66, 64
3, 4080, Note_off_c, 1, 66, 70
3, 4080, Note_on_c, 1, 67, 64
3, 4200, Note_off_c, 1, 67, 48
3, 4200, Note_on_c, 1, 69, 64
3, 4320, Note_off_c, 1, 69, 70
3, 4320, Note_on_c, 1, 71, 64
3, 4380, Note_off_c, 1, 71, 74
3, 4380, Note_on_c, 1, 69, 64
3, 4440, Note_off_c, 1, 69, 59
3, 4440, Note_on_c, 1, 67, 64
3, 4500, Note_off_c, 1, 67, 46
3, 4500, Note_on_c, 1, 69, 64
3, 4560, Note_off_c, 1, 69, 68
3, 4560, Note_on_c, 1, 71, 64
3, 4680, Note_off_c, 1, 71, 63
3, 4680, Note_on_c, 1, 72, 64
3, 4920, Note_off_c, 1, 72, 70
3, 4920, Note_on_c, 1, 71, 64
3, 4980, Note_off_c, 1, 71, 66
3, 4980, Note_on_c, 1, 69, 64
3, 5040, Note_off_c, 1, 69, 49
3, 5040, Note_on_c, 1, 71, 64
3, 5160, Note_off_c, 1, 71, 57
3, 5160, Note_on_c, 1, 76, 64
3, 5400, Note_off_c, 1, 76, 51
3, 5400, Note_on_c, 1, 74, 64
3, 5460, Note_off_c, 1, 74, 65
3, 5460, Note_on_c, 1, 73, 64
3, 5520, Note_off_c, 1, 73, 52
3, 5520, Note_on_c, 1, 74, 64
3, 5880, Note_off_c, 1, 74, 53
3, 5880, Note_on_c, 1, 72, 64
3, 5940, Note_off_c, 1, 72, 68
3, 5940, Note_on_c, 1, 71, 64
3, 6000, Note_off_c, 1, 71, 47
3, 6000, Note_on_c, 1, 72, 64
3, 6300, Note_off_c, 1, 72, 63
3, 6300, Note_on_c, 1, 81, 64
3, 6360, Note_off_c, 1, 81, 61
3, 6360, Note_on_c, 1, 79, 64
3, 6420, Note_off_c, 1, 79, 65
3, 6420, Note_on_c, 1, 77, 64
3, 6480, Note_off_c, 1, 77, 66
3, 6480, Note_on_c, 1, 76, 64
3, 6540, Note_off_c, 1, 76, 43
3, 6540, Note_on_c, 1, 74, 64
3, 6600, Note_off_c, 1, 74, 55
3, 6600, Note_on_c, 1, 72, 64
3, 6660, Note_off_c, 1, 72, 63
3, 6660, Note_on_c, 1, 71, 64
3, 6720, Note_off_c, 1, 71, 50
3, 6720, Note_on_c, 1, 72, 64
3, 6780, Note_off_c, 1, 72, 66
3, 6780, Note_on_c, 1, 71, 64
3, 6840, Note_off_c, 1, 71, 48
3, 6840, Note_on_c, 1, 72, 64
3, 7080, Note_off_c, 1, 72, 61
3, 7080, Note_on_c, 1, 74, 64
3, 7200, Note_off_c, 1, 74, 53
3, 7260, Note_on_c, 1, 62, 64
3, 7320, Note_off_c, 1, 62, 50
3, 7320, Note_on_c, 1, 64, 64
3, 7560, Note_off_c, 1, 64, 49
3, 7560, Note_on_c, 1, 65, 64
3, 7740, Note_off_c, 1, 65, 1
3, 7740, Note_on_c, 1, 66, 64
3, 7800, Note_off_c, 1, 66, 52
3, 7800, Note_on_c, 1, 64, 64
3, 7860, Note_off_c, 1, 64, 45
3, 7860, Note_on_c, 1, 66, 64
3, 7920, Note_off_c, 1, 66, 63
3, 7920, Note_on_c, 1, 68, 64
3, 8040, Note_off_c, 1, 68, 63
3, 8040, Note_on_c, 1, 69, 64
3, 8160, Note_off_c, 1, 69, 73
3, 8160, Note_on_c, 1, 71, 64
3, 8400, Note_off_c, 1, 71, 69
3, 8520, Note_on_c, 1, 69, 64
3, 8640, Note_off_c, 1, 69, 74
3, 8640, Note_on_c, 1, 67, 64
3, 8940, Note_off_c, 1, 67, 49
3, 8940, Note_on_c, 1, 65, 64
3, 9000, Note_off_c, 1, 65, 52
3, 9000, Note_on_c, 1, 64, 64
3, 9060, Note_off_c, 1, 64, 40
3, 9060, Note_on_c, 1, 67, 64
3, 9120, Note_off_c, 1, 67, 48
3, 9120, Note_on_c, 1, 66, 64
3, 9360, Note_off_c, 1, 66, 54
3, 9360, Note_on_c, 1, 68, 64
3, 9600, Note_off_c, 1, 68, 49
3, 9600, Note_on_c, 1, 69, 64
3, 9720, Note_off_c, 1, 69, 80
3, 9720, Note_on_c, 1, 69, 64
3, 9840, Note_off_c, 1, 69, 74
3, 9840, Note_on_c, 1, 67, 64
3, 9960, Note_off_c, 1, 67, 55
3, 9960, Note_on_c, 1, 66, 64
3, 10080, Note_off_c, 1, 66, 54
3, 10080, Note_on_c, 1, 64, 64
3, 10200, Note_off_c, 1, 64, 28
3, 10200, Note_on_c, 1, 72, 64
3, 10320, Note_off_c, 1, 72, 72
3, 10320, Note_on_c, 1, 71, 64
3, 10440, Note_off_c, 1, 71, 68
3, 10440, Note_on_c, 1, 69, 64
3, 10560, Note_off_c, 1, 69, 58
3, 10560, Note_on_c, 1, 67, 64
3, 10620, Note_off_c, 1, 67, 49
3, 10620, Note_on_c, 1, 66, 64
3, 10680, Note_off_c, 1, 66, 59
3, 10680, Note_on_c, 1, 64, 64
3, 10740, Note_off_c, 1, 64, 32
3, 10740, Note_on_c, 1, 66, 64
3, 10800, Note_off_c, 1, 66, 55
3, 10800, Note_on_c, 1, 67, 64
3, 10920, Note_off_c, 1, 67, 48
3, 10920, Note_on_c, 1, 66, 64
3, 11160, Note_off_c, 1, 66, 57
3, 11160, Note_on_c, 1, 64, 64
3, 11220, Note_off_c, 1, 64, 52
3, 11220, Note_on_c, 1, 63, 64
3, 11280, Note_off_c, 1, 63, 46
3, 11280, Note_on_c, 1, 64, 64
3, 11640, Note_off_c, 1, 64, 40
3, 11640, Note_on_c, 1, 69, 64
3, 11700, Note_off_c, 1, 69, 57
3, 11700, Note_on_c, 1, 63, 64
3, 11760, Note_off_c, 1, 63, 43
3, 11760, Note_on_c, 1, 64, 64
3, 12360, Note_off_c, 1, 64, 50
3, 12360, Note_on_c, 1, 63, 64
3, 12480, Note_off_c, 1, 63, 57
3, 12480, Note_on_c, 1, 64, 64
3, 12840, Note_off_c, 1, 64, 49
3, 12840, Note_on_c, 1, 63, 64
3, 12960, Note_off_c, 1, 63, 49
3, 12960, Note_on_c, 1, 64, 64
3, 13080, Note_off_c, 1, 64, 51
3, 13560, Note_on_c, 1, 64, 64
3, 13680, Note_off_c, 1, 64, 36
3, 13680, Note_on_c, 1, 66, 64
3, 13800, Note_off_c, 1, 66, 59
3, 13800, Note_on_c, 1, 67, 64
3, 13920, Note_off_c, 1, 67, 54
3, 13920, Note_on_c, 1, 69, 64
3, 14040, Note_off_c, 1, 69, 72
3, 14520, Note_on_c, 1, 62, 64
3, 14640, Note_off_c, 1, 62, 52
3, 14640, Note_on_c, 1, 64, 64
3, 14760, Note_off_c, 1, 64, 52
3, 14760, Note_on_c, 1, 66, 64
3, 14880, Note_off_c, 1, 66, 74
3, 14880, Note_on_c, 1, 67, 64
3, 15000, Note_off_c, 1, 67, 62
3, 15960, Note_on_c, 1, 74, 64
3, 16020, Note_off_c, 1, 74, 53
3, 16020, Note_on_c, 1, 76, 64
3, 16080, Note_off_c, 1, 76, 47
3, 16080, Note_on_c, 1, 74, 64
3, 16200, Note_off_c, 1, 74, 69
3, 16200, Note_on_c, 1, 72, 64
3, 16320, Note_off_c, 1, 72, 58
3, 16320, Note_on_c, 1, 71, 64
3, 16440, Note_off_c, 1, 71, 62
3, 16440, Note_on_c, 1, 71, 64
3, 16500, Note_off_c, 1, 71, 65
3, 16500, Note_on_c, 1, 72, 64
3, 16560, Note_off_c, 1, 72, 63
3, 16560, Note_on_c, 1, 71, 64
3, 16680, Note_off_c, 1, 71, 65
3, 16680, Note_on_c, 1, 69, 64
3, 16800, Note_off_c, 1, 69, 68
3, 16800, Note_on_c, 1, 67, 64
3, 17040, Note_off_c, 1, 67, 37
3, 17040, Note_on_c, 1, 69, 64
3, 17160, Note_off_c, 1, 69, 72
3, 17160, Note_on_c, 1, 71, 64
3, 17280, Note_off_c, 1, 71, 65
3, 17280, Note_on_c, 1, 72, 64
3, 17520, Note_off_c, 1, 72, 69
3, 17640, Note_on_c, 1, 74, 64
3, 17760, Note_off_c, 1, 74, 55
3, 17760, Note_on_c, 1, 73, 64
3, 17940, Note_off_c, 1, 73, 54
3, 17940, Note_on_c, 1, 74, 64
3, 18000, Note_off_c, 1, 74, 58
3, 18000, Note_on_c, 1, 76, 64
3, 18300, Note_off_c, 1, 76, 49
3, 18300, Note_on_c, 1, 73, 64
3, 18360, Note_off_c, 1, 73, 58
3, 18360, Note_on_c, 1, 74, 64
3, 18540, Note_off_c, 1, 74, 61
3, 18540, Note_on_c, 1, 71, 64
3, 18600, Note_off_c, 1, 71, 72
3, 18600, Note_on_c, 1, 73, 64
3, 18720, Note_off_c, 1, 73, 77
3, 18720, Note_on_c, 1, 74, 64
3, 18960, Note_off_c, 1, 74, 65
3, 19080, Note_on_c, 1, 65, 64
3, 19200, Note_off_c, 1, 65, 59
3, 19200, Note_on_c, 1, 67, 64
3, 19260, Note_off_c, 1, 67, 14
3, 19260, Note_on_c, 1, 73, 64
3, 19320, Note_off_c, 1, 73, 68
3, 19320, Note_on_c, 1, 74, 64
3, 19380, Note_off_c, 1, 74, 66
3, 19380, Note_on_c, 1, 76, 64
3, 19440, Note_off_c, 1, 76, 54
3, 19440, Note_on_c, 1, 73, 64
3, 19680, Note_off_c, 1, 73, 66
3, 19800, Note_on_c, 1, 69, 64
3, 19860, Note_off_c, 1, 69, 69
3, 19860, Note_on_c, 1, 70, 64
3, 19920, Note_off_c, 1, 70, 61
3, 19920, Note_on_c, 1, 69, 64
3, 20040, Note_off_c, 1, 69, 69
3, 20040, Note_on_c, 1, 67, 64
3, 20160, Note_off_c, 1, 67, 52
3, 20160, Note_on_c, 1, 65, 64
3, 20280, Note_off_c, 1, 65, 41
3, 20280, Note_on_c, 1, 69, 64
3, 20400, Note_off_c, 1, 69, 77
3, 20400, Note_on_c, 1, 71, 64
3, 20520, Note_off_c, 1, 71, 79
3, 20520, Note_on_c, 1, 72, 64
3, 20640, Note_off_c, 1, 72, 77
3, 20640, Note_on_c, 1, 74, 64
3, 20700, Note_off_c, 1, 74, 72
3, 20700, Note_on_c, 1, 72, 64
3, 20760, Note_off_c, 1, 72, 82
3, 20760, Note_on_c, 1, 71, 64
3, 20820, Note_off_c, 1, 71, 73
3, 20820, Note_on_c, 1, 69, 64
3, 20880, Note_off_c, 1, 69, 62
3, 20880, Note_on_c, 1, 67, 64
3, 21000, Note_off_c, 1, 67, 57
3, 21000, Note_on_c, 1, 65, 64
3, 21240, Note_off_c, 1, 65, 51
3, 21240, Note_on_c, 1, 64, 64
3, 21360, Note_off_c, 1, 64, 52
3, 21360, Note_on_c, 1, 62, 64
3, 21600, Note_off_c, 1, 62, 37
3, 21660, Note_on_c, 1, 69, 64
3, 21720, Note_off_c, 1, 69, 70
3, 21720, Note_on_c, 1, 67, 64
3, 21780, Note_off_c, 1, 67, 47
3, 21780, Note_on_c, 1, 65, 64
3, 21840, Note_off_c, 1, 65, 49
3, 21840, Note_on_c, 1, 64, 64
3, 21960, Note_off_c, 1, 64, 17
3, 21960, Note_on_c, 1, 67, 64
3, 22200, Note_off_c, 1, 67, 49
3, 22200, Note_on_c, 1, 65, 64
3, 22260, Note_off_c, 1, 65, 45
3, 22260, Note_on_c, 1, 67, 64
3, 22320, Note_off_c, 1, 67, 49
3, 22320, Note_on_c, 1, 65, 64
3, 22440, Note_off_c, 1, 65, 52
3, 22440, Note_on_c, 1, 64, 64
3, 22560, Note_off_c, 1, 64, 27
3, 22560, Note_on_c, 1, 62, 64
3, 22680, Note_off_c, 1, 62, 36
3, 22680, Note_on_c, 1, 62, 64
3, 22740, Note_off_c, 1, 62, 43
3, 22740, Note_on_c, 1, 64, 64
3, 22800, Note_off_c, 1, 64, 38
3, 22800, Note_on_c, 1, 62, 64
3, 22920, Note_off_c, 1, 62, 41
3, 22920, Note_on_c, 1, 60, 64
3, 23040, Note_off_c, 1, 60, 40
3, 23040, Note_on_c, 1, 59, 64
3, 23100, Note_off_c, 1, 59, 48
3, 23100, Note_on_c, 1, 60, 64
3, 23160, Note_off_c, 1, 60, 48
3, 23160, Note_on_c, 1, 62, 64
3, 23220, Note_off_c, 1, 62, 53
3, 23220, Note_on_c, 1, 60, 64
3, 23280, Note_off_c, 1, 60, 59
3, 23280, Note_on_c, 1, 59, 64
3, 23400, Note_off_c, 1, 59, 54
3, 23400, Note_on_c, 1, 57, 64
3, 23520, Note_off_c, 1, 57, 9
3, 23520, Note_on_c, 1, 68, 64
3, 23640, Note_off_c, 1, 68, 62
3, 23640, Note_on_c, 1, 71, 64
3, 23760, Note_off_c, 1, 71, 9
3, 23880, Note_on_c, 1, 65, 64
3, 24000, Note_off_c, 1, 65, 49
3, 24000, Note_on_c, 1, 64, 64
3, 24060, Note_off_c, 1, 64, 44
3, 24060, Note_on_c, 1, 62, 64
3, 24120, Note_off_c, 1, 62, 49
3, 24120, Note_on_c, 1, 65, 64
3, 24180, Note_off_c, 1, 65, 54
3, 24180, Note_on_c, 1, 64, 64
3, 24240, Note_off_c, 1, 64, 50
3, 24240, Note_on_c, 1, 62, 64
3, 24300, Note_off_c, 1, 62, 57
3, 24300, Note_on_c, 1, 60, 64
3, 24360, Note_off_c, 1, 60, 47
3, 24360, Note_on_c, 1, 64, 64
3, 24420, Note_off_c, 1, 64, 47
3, 24420, Note_on_c, 1, 62, 64
3, 24480, Note_off_c, 1, 62, 42
3, 24480, Note_on_c, 1, 60, 64
3, 24600, Note_off_c, 1, 60, 58
3, 24600, Note_on_c, 1, 62, 64
3, 24720, Note_off_c, 1, 62, 47
3, 24720, Note_on_c, 1, 64, 64
3, 24780, Note_off_c, 1, 64, 38
3, 24780, Note_on_c, 1, 60, 64
3, 24840, Note_off_c, 1, 60, 63
3, 24840, Note_on_c, 1, 59, 64
3, 24900, Note_off_c, 1, 59, 42
3, 24900, Note_on_c, 1, 57, 64
3, 24960, Note_off_c, 1, 57, 37
3, 24960, Note_on_c, 1, 65, 64
3, 25020, Note_off_c, 1, 65, 58
3, 25020, Note_on_c, 1, 62, 64
3, 25080, Note_off_c, 1, 62, 43
3, 25080, Note_on_c, 1, 64, 64
3, 25140, Note_off_c, 1, 64, 38
3, 25140, Note_on_c, 1, 65, 64
3, 25200, Note_off_c, 1, 65, 59
3, 25200, Note_on_c, 1, 59, 64
3, 25380, Note_off_c, 1, 59, 16
3, 25380, Note_on_c, 1, 57, 64
3, 25430, Note_off_c, 1, 57, 30
3, 25443, Note_on_c, 1, 57, 64
3, 25563, Note_off_c, 1, 57, 27
3, 29403, Note_on_c, 1, 64, 64
3, 29463, Note_off_c, 1, 64, 43
3, 29463, Note_on_c, 1, 63, 64
3, 29523, Note_off_c, 1, 63, 58
3, 29523, Note_on_c, 1, 64, 64
3, 29643, Note_off_c, 1, 64, 40
3, 29643, Note_on_c, 1, 66, 64
3, 29763, Note_off_c, 1, 66, 1
3, 29763, Note_on_c, 1, 67, 64
3, 29883, Note_off_c, 1, 67, 50
3, 29883, Note_on_c, 1, 67, 64
3, 29943, Note_off_c, 1, 67, 53
3, 29943, Note_on_c, 1, 66, 64
3, 30003, Note_off_c, 1, 66, 68
3, 30003, Note_on_c, 1, 67, 64
3, 30123, Note_off_c, 1, 67, 59
3, 30123, Note_on_c, 1, 69, 64
3, 30243, Note_off_c, 1, 69, 50
3, 30303, Note_on_c, 1, 69, 64
3, 30363, Note_off_c, 1, 69, 63
3, 30363, Note_on_c, 1, 67, 64
3, 30423, Note_off_c, 1, 67, 48
3, 30423, Note_on_c, 1, 69, 64
3, 30483, Note_off_c, 1, 69, 54
3, 30483, Note_on_c, 1, 71, 64
3, 30603, Note_off_c, 1, 71, 72
3, 30603, Note_on_c, 1, 72, 64
3, 30723, Note_off_c, 1, 72, 69
3, 30723, Note_on_c, 1, 63, 64
3, 30843, Note_off_c, 1, 63, 41
3, 30843, Note_on_c, 1, 59, 64
3, 30963, Note_off_c, 1, 59, 40
3, 31083, Note_on_c, 1, 64, 64
3, 31203, Note_off_c, 1, 64, 49
3, 31203, Note_on_c, 1, 66, 64
3, 31263, Note_off_c, 1, 66, 77
3, 31263, Note_on_c, 1, 67, 64
3, 31323, Note_off_c, 1, 67, 52
3, 31323, Note_on_c, 1, 64, 64
3, 31383, Note_off_c, 1, 64, 55
3, 31383, Note_on_c, 1, 66, 64
3, 31443, Note_off_c, 1, 66, 73
3, 31443, Note_on_c, 1, 67, 64
3, 31503, Note_off_c, 1, 67, 50
3, 31503, Note_on_c, 1, 69, 64
3, 31563, Note_off_c, 1, 69, 63
3, 31563, Note_on_c, 1, 66, 64
3, 31623, Note_off_c, 1, 66, 74
3, 31623, Note_on_c, 1, 67, 64
3, 31683, Note_off_c, 1, 67, 47
3, 31683, Note_on_c, 1, 69, 64
3, 31803, Note_off_c, 1, 69, 74
3, 31803, Note_on_c, 1, 67, 64
3, 31923, Note_off_c, 1, 67, 57
3, 31923, Note_on_c, 1, 66, 64
3, 32043, Note_off_c, 1, 66, 68
3, 32043, Note_on_c, 1, 71, 64
3, 32163, Note_off_c, 1, 71, 69
3, 32163, Note_on_c, 1, 64, 64
3, 32523, Note_off_c, 1, 64, 36
3, 32523, Note_on_c, 1, 63, 64
3, 32643, Note_off_c, 1, 63, 52
3, 32643, Note_on_c, 1, 64, 64
3, 32763, Note_off_c, 1, 64, 33
3, 32763, Note_on_c, 1, 72, 64
3, 32823, Note_off_c, 1, 72, 77
3, 32823, Note_on_c, 1, 71, 64
3, 32883, Note_off_c, 1, 71, 73
3, 32883, Note_on_c, 1, 69, 64
3, 32943, Note_off_c, 1, 69, 63
3, 32943, Note_on_c, 1, 67, 64
3, 33003, Note_off_c, 1, 67, 44
3, 33003, Note_on_c, 1, 66, 64
3, 33063, Note_off_c, 1, 66, 72
3, 33063, Note_on_c, 1, 64, 64
3, 33123, Note_off_c, 1, 64, 49
3, 33123, Note_on_c, 1, 62, 64
3, 33243, Note_off_c, 1, 62, 43
3, 33243, Note_on_c, 1, 67, 64
3, 33303, Note_off_c, 1, 67, 59
3, 33303, Note_on_c, 1, 65, 64
3, 33363, Note_off_c, 1, 65, 1
3, 33363, Note_on_c, 1, 64, 64
3, 33423, Note_off_c, 1, 64, 50
3, 33423, Note_on_c, 1, 62, 64
3, 33483, Note_off_c, 1, 62, 36
3, 33483, Note_on_c, 1, 61, 64
3, 33543, Note_off_c, 1, 61, 61
3, 33543, Note_on_c, 1, 59, 64
3, 33603, Note_off_c, 1, 59, 46
3, 33603, Note_on_c, 1, 57, 64
3, 33723, Note_off_c, 1, 57, 40
3, 33723, Note_on_c, 1, 74, 64
3, 33783, Note_off_c, 1, 74, 58
3, 33783, Note_on_c, 1, 72, 64
3, 33843, Note_off_c, 1, 72, 61
3, 33843, Note_on_c, 1, 71, 64
3, 33903, Note_off_c, 1, 71, 63
3, 33903, Note_on_c, 1, 69, 64
3, 33963, Note_off_c, 1, 69, 72
3, 33963, Note_on_c, 1, 68, 64
3, 34023, Note_off_c, 1, 68, 79
3, 34023, Note_on_c, 1, 66, 64
3, 34083, Note_off_c, 1, 66, 55
3, 34083, Note_on_c, 1, 64, 64
3, 34323, Note_off_c, 1, 64, 48
3, 34323, Note_on_c, 1, 69, 64
3, 34563, Note_off_c, 1, 69, 72
3, 34743, Note_on_c, 1, 68, 64
3, 34803, Note_off_c, 1, 68, 76
3, 34803, Note_on_c, 1, 69, 64
3, 34923, Note_off_c, 1, 69, 72
3, 34923, Note_on_c, 1, 71, 64
3, 35043, Note_off_c, 1, 71, 69
3, 35043, Note_on_c, 1, 72, 64
3, 35163, Note_off_c, 1, 72, 72
3, 35163, Note_on_c, 1, 72, 64
3, 35223, Note_off_c, 1, 72, 80
3, 35223, Note_on_c, 1, 71, 64
3, 35283, Note_off_c, 1, 71, 62
3, 35283, Note_on_c, 1, 72, 64
3, 35403, Note_off_c, 1, 72, 82
3, 35403, Note_on_c, 1, 74, 64
3, 35523, Note_off_c, 1, 74, 69
3, 35583, Note_on_c, 1, 74, 64
3, 35643, Note_off_c, 1, 74, 59
3, 35643, Note_on_c, 1, 72, 64
3, 35703, Note_off_c, 1, 72, 69
3, 35703, Note_on_c, 1, 74, 64
3, 35763, Note_off_c, 1, 74, 47
3, 35763, Note_on_c, 1, 76, 64
3, 35883, Note_off_c, 1, 76, 45
3, 35883, Note_on_c, 1, 77, 64
3, 36003, Note_off_c, 1, 77, 59
3, 36003, Note_on_c, 1, 68, 64
3, 36123, Note_off_c, 1, 68, 57
3, 36123, Note_on_c, 1, 64, 64
3, 36243, Note_off_c, 1, 64, 14
3, 36363, Note_on_c, 1, 69, 64
3, 36483, Note_off_c, 1, 69, 76
3, 36483, Note_on_c, 1, 71, 64
3, 36543, Note_off_c, 1, 71, 68
3, 36543, Note_on_c, 1, 72, 64
3, 36603, Note_off_c, 1, 72, 65
3, 36603, Note_on_c, 1, 69, 64
3, 36663, Note_off_c, 1, 69, 52
3, 36663, Note_on_c, 1, 71, 64
3, 36723, Note_off_c, 1, 71, 57
3, 36723, Note_on_c, 1, 72, 64
3, 36783, Note_off_c, 1, 72, 72
3, 36783, Note_on_c, 1, 74, 64
3, 36843, Note_off_c, 1, 74, 52
3, 36843, Note_on_c, 1, 71, 64
3, 36903, Note_off_c, 1, 71, 55
3, 36903, Note_on_c, 1, 72, 64
3, 36963, Note_off_c, 1, 72, 66
3, 36963, Note_on_c, 1, 74, 64
3, 37083, Note_off_c, 1, 74, 59
3, 37083, Note_on_c, 1, 72, 64
3, 37203, Note_off_c, 1, 72, 69
3, 37203, Note_on_c, 1, 71, 64
3, 37323, Note_off_c, 1, 71, 73
3, 37323, Note_on_c, 1, 76, 64
3, 37443, Note_off_c, 1, 76, 46
3, 37443, Note_on_c, 1, 69, 64
3, 37743, Note_off_c, 1, 69, 65
3, 37743, Note_on_c, 1, 77, 64
3, 37803, Note_off_c, 1, 77, 58
3, 37803, Note_on_c, 1, 74, 64
3, 37863, Note_off_c, 1, 74, 1
3, 37863, Note_on_c, 1, 71, 64
3, 37923, Note_off_c, 1, 71, 51
3, 37923, Note_on_c, 1, 67, 64
3, 38223, Note_off_c, 1, 67, 38
3, 38223, Note_on_c, 1, 76, 64
3, 38283, Note_off_c, 1, 76, 45
3, 38283, Note_on_c, 1, 72, 64
3, 38343, Note_off_c, 1, 72, 72
3, 38343, Note_on_c, 1, 69, 64
3, 38403, Note_off_c, 1, 69, 58
3, 38403, Note_on_c, 1, 65, 64
3, 38523, Note_off_c, 1, 65, 44
3, 38523, Note_on_c, 1, 67, 64
3, 38583, Note_off_c, 1, 67, 49
3, 38583, Note_on_c, 1, 69, 64
3, 38643, Note_off_c, 1, 69, 65
3, 38643, Note_on_c, 1, 67, 64
3, 38703, Note_off_c, 1, 67, 46
3, 38703, Note_on_c, 1, 65, 64
3, 38763, Note_off_c, 1, 65, 48
3, 38763, Note_on_c, 1, 64, 64
3, 38823, Note_off_c, 1, 64, 36
3, 38823, Note_on_c, 1, 65, 64
3, 38883, Note_off_c, 1, 65, 58
3, 38883, Note_on_c, 1, 64, 64
3, 39423, Note_off_c, 1, 64, 46
3, 39423, Note_on_c, 1, 62, 64
3, 39483, Note_off_c, 1, 62, 43
3, 39483, Note_on_c, 1, 64, 64
3, 39543, Note_off_c, 1, 64, 45
3, 39543, Note_on_c, 1, 65, 64
3, 39603, Note_off_c, 1, 65, 63
3, 39603, Note_on_c, 1, 67, 64
3, 39663, Note_off_c, 1, 67, 45
3, 39663, Note_on_c, 1, 69, 64
3, 39723, Note_off_c, 1, 69, 63
3, 39723, Note_on_c, 1, 71, 64
3, 39783, Note_off_c, 1, 71, 68
3, 39783, Note_on_c, 1, 72, 64
3, 39843, Note_off_c, 1, 72, 69
3, 39843, Note_on_c, 1, 62, 64
3, 39903, Note_off_c, 1, 62, 49
3, 39903, Note_on_c, 1, 64, 64
3, 39963, Note_off_c, 1, 64, 37
3, 39963, Note_on_c, 1, 62, 64
3, 40023, Note_off_c, 1, 62, 42
3, 40023, Note_on_c, 1, 64, 64
3, 40083, Note_off_c, 1, 64, 47
3, 40083, Note_on_c, 1, 65, 64
3, 40383, Note_off_c, 1, 65, 54
3, 40383, Note_on_c, 1, 69, 64
3, 40443, Note_off_c, 1, 69, 73
3, 40443, Note_on_c, 1, 67, 64
3, 40503, Note_off_c, 1, 67, 43
3, 40503, Note_on_c, 1, 65, 64
3, 40563, Note_off_c, 1, 65, 63
3, 40563, Note_on_c, 1, 64, 64
3, 40683, Note_off_c, 1, 64, 45
3, 40683, Note_on_c, 1, 69, 64
3, 40803, Note_off_c, 1, 69, 49
3, 40803, Note_on_c, 1, 67, 64
3, 41403, Note_off_c, 1, 67, 48
3, 41403, Note_on_c, 1, 72, 64
3, 41523, Note_off_c, 1, 72, 69
3, 41523, Note_on_c, 1, 71, 64
3, 41643, Note_off_c, 1, 71, 72
3, 41643, Note_on_c, 1, 69, 64
3, 41763, Note_off_c, 1, 69, 63
3, 41763, Note_on_c, 1, 67, 64
3, 41883, Note_off_c, 1, 67, 45
3, 42003, Note_on_c, 1, 65, 64
3, 42123, Note_off_c, 1, 65, 47
3, 42123, Note_on_c, 1, 64, 64
3, 42243, Note_off_c, 1, 64, 42
3, 42243, Note_on_c, 1, 62, 64
3, 42303, Note_off_c, 1, 62, 33
3, 42303, Note_on_c, 1, 67, 64
3, 42363, Note_off_c, 1, 67, 52
3, 42363, Note_on_c, 1, 69, 64
3, 42423, Note_off_c, 1, 69, 57
3, 42423, Note_on_c, 1, 71, 64
3, 42483, Note_off_c, 1, 71, 65
3, 42483, Note_on_c, 1, 72, 64
3, 42963, Note_off_c, 1, 72, 68
3, 42963, Note_on_c, 1, 71, 64
3, 43083, Note_off_c, 1, 71, 74
3, 43083, Note_on_c, 1, 70, 64
3, 43203, Note_off_c, 1, 70, 69
3, 43203, Note_on_c, 1, 69, 64
3, 43323, Note_off_c, 1, 69, 66
3, 44043, Note_on_c, 1, 62, 64
3, 44223, Note_off_c, 1, 62, 51
3, 44223, Note_on_c, 1, 64, 64
3, 44283, Note_off_c, 1, 64, 46
3, 44283, Note_on_c, 1, 60, 64
3, 44343, Note_off_c, 1, 60, 40
3, 44343, Note_on_c, 1, 62, 64
3, 44403, Note_off_c, 1, 62, 48
3, 44403, Note_on_c, 1, 64, 64
3, 44463, Note_off_c, 1, 64, 47
3, 44463, Note_on_c, 1, 65, 64
3, 44523, Note_off_c, 1, 65, 52
3, 44523, Note_on_c, 1, 62, 64
3, 44583, Note_off_c, 1, 62, 43
3, 44583, Note_on_c, 1, 64, 64
3, 44643, Note_off_c, 1, 64, 51
3, 44643, Note_on_c, 1, 65, 64
3, 44763, Note_off_c, 1, 65, 58
3, 44763, Note_on_c, 1, 64, 64
3, 44883, Note_off_c, 1, 64, 49
3, 44883, Note_on_c, 1, 62, 64
3, 45003, Note_off_c, 1, 62, 41
3, 45003, Note_on_c, 1, 67, 64
3, 45123, Note_off_c, 1, 67, 47
3, 45123, Note_on_c, 1, 64, 64
3, 45183, Note_off_c, 1, 64, 48
3, 45183, Note_on_c, 1, 65, 64
3, 45243, Note_off_c, 1, 65, 52
3, 45243, Note_on_c, 1, 64, 64
3, 45303, Note_off_c, 1, 64, 50
3, 45303, Note_on_c, 1, 62, 64
3, 45363, Note_off_c, 1, 62, 47
3, 45363, Note_on_c, 1, 60, 64
3, 45423, Note_off_c, 1, 60, 41
3, 45423, Note_on_c, 1, 59, 64
3, 45483, Note_off_c, 1, 59, 40
3, 45483, Note_on_c, 1, 57, 64
3, 45543, Note_off_c, 1, 57, 35
3, 45543, Note_on_c, 1, 56, 64
3, 45603, Note_off_c, 1, 56, 47
3, 45603, Note_on_c, 1, 57, 64
3, 45723, Note_off_c, 1, 57, 40
3, 45723, Note_on_c, 1, 69, 64
3, 45783, Note_off_c, 1, 69, 57
3, 45783, Note_on_c, 1, 70, 64
3, 45843, Note_off_c, 1, 70, 57
3, 45843, Note_on_c, 1, 69, 64
3, 45963, Note_off_c, 1, 69, 66
3, 45963, Note_on_c, 1, 67, 64
3, 46083, Note_off_c, 1, 67, 52
3, 46083, Note_on_c, 1, 65, 64
3, 46203, Note_off_c, 1, 65, 52
3, 46203, Note_on_c, 1, 65, 64
3, 46263, Note_off_c, 1, 65, 62
3, 46263, Note_on_c, 1, 67, 64
3, 46323, Note_off_c, 1, 67, 48
3, 46323, Note_on_c, 1, 65, 64
3, 46443, Note_off_c, 1, 65, 63
3, 46443, Note_on_c, 1, 64, 64
3, 46563, Note_off_c, 1, 64, 43
3, 46563, Note_on_c, 1, 62, 64
3, 46623, Note_off_c, 1, 62, 35
3, 46623, Note_on_c, 1, 64, 64
3, 46683, Note_off_c, 1, 64, 51
3, 46683, Note_on_c, 1, 65, 64
3, 46743, Note_off_c, 1, 65, 59
3, 46743, Note_on_c, 1, 64, 64
3, 46803, Note_off_c, 1, 64, 43
3, 46803, Note_on_c, 1, 62, 64
3, 46923, Note_off_c, 1, 62, 36
3, 46923, Note_on_c, 1, 60, 64
3, 47043, Note_off_c, 1, 60, 22
3, 47043, Note_on_c, 1, 71, 64
3, 47163, Note_off_c, 1, 71, 62
3, 47163, Note_on_c, 1, 74, 64
3, 47283, Note_off_c, 1, 74, 50
3, 47403, Note_on_c, 1, 69, 64
3, 47523, Note_off_c, 1, 69, 61
3, 47523, Note_on_c, 1, 67, 64
3, 47583, Note_off_c, 1, 67, 49
3, 47583, Note_on_c, 1, 65, 64
3, 47643, Note_off_c, 1, 65, 49
3, 47643, Note_on_c, 1, 69, 64
3, 47703, Note_off_c, 1, 69, 66
3, 47703, Note_on_c, 1, 67, 64
3, 47763, Note_off_c, 1, 67, 57
3, 47763, Note_on_c, 1, 65, 64
3, 47823, Note_off_c, 1, 65, 68
3, 47823, Note_on_c, 1, 64, 64
3, 47883, Note_off_c, 1, 64, 43
3, 47883, Note_on_c, 1, 67, 64
3, 47943, Note_off_c, 1, 67, 49
3, 47943, Note_on_c, 1, 65, 64
3, 48003, Note_off_c, 1, 65, 52
3, 48003, Note_on_c, 1, 64, 64
3, 48123, Note_off_c, 1, 64, 33
3, 48123, Note_on_c, 1, 65, 64
3, 48243, Note_off_c, 1, 65, 52
3, 48243, Note_on_c, 1, 67, 64
3, 48363, Note_off_c, 1, 67, 52
3, 48363, Note_on_c, 1, 62, 64
3, 48483, Note_off_c, 1, 62, 32
3, 48483, Note_on_c, 1, 69, 64
3, 48543, Note_off_c, 1, 69, 70
3, 48543, Note_on_c, 1, 71, 64
3, 48603, Note_off_c, 1, 71, 66
3, 48603, Note_on_c, 1, 69, 64
3, 48663, Note_off_c, 1, 69, 52
3, 48663, Note_on_c, 1, 71, 64
3, 48723, Note_off_c, 1, 71, 73
3, 48723, Note_on_c, 1, 72, 70
3, 48743, Note_off_c, 1, 72, 79
3, 48743, Note_on_c, 1, 71, 50
3, 48763, Note_off_c, 1, 71, 73
3, 48763, Note_on_c, 1, 72, 52
3, 48783, Note_off_c, 1, 72, 80
3, 48783, Note_on_c, 1, 71, 54
3, 48803, Note_off_c, 1, 71, 73
3, 48803, Note_on_c, 1, 72, 57
3, 48823, Note_off_c, 1, 72, 76
3, 48823, Note_on_c, 1, 71, 59
3, 48843, Note_off_c, 1, 71, 70
3, 48843, Note_on_c, 1, 72, 61
3, 48863, Note_off_c, 1, 72, 77
3, 48863, Note_on_c, 1, 71, 63
3, 48903, Note_off_c, 1, 71, 57
3, 48903, Note_on_c, 1, 69, 64
3, 48933, Note_off_c, 1, 69, 77
3, 48933, Note_on_c, 1, 71, 64
3, 48963, Note_off_c, 1, 71, 66
3, 48963, Note_on_c, 1, 72, 64
3, 49023, Note_off_c, 1, 72, 76
3, 49023, Note_on_c, 1, 74, 64
3, 49083, Note_off_c, 1, 74, 62
3, 49083, Note_on_c, 1, 72, 64
3, 49143, Note_off_c, 1, 72, 76
3, 49143, Note_on_c, 1, 74, 64
3, 49203, Note_off_c, 1, 74, 53
3, 49203, Note_on_c, 1, 76, 70
3, 49223, Note_off_c, 1, 76, 79
3, 49223, Note_on_c, 1, 74, 50
3, 49243, Note_off_c, 1, 74, 73
3, 49243, Note_on_c, 1, 76, 52
3, 49263, Note_off_c, 1, 76, 80
3, 49263, Note_on_c, 1, 74, 54
3, 49283, Note_off_c, 1, 74, 73
3, 49283, Note_on_c, 1, 76, 57
3, 49303, Note_off_c, 1, 76, 76
3, 49303, Note_on_c, 1, 74, 59
3, 49323, Note_off_c, 1, 74, 70
3, 49323, Note_on_c, 1, 76, 61
3, 49343, Note_off_c, 1, 76, 77
3, 49343, Note_on_c, 1, 74, 63
3, 49383, Note_off_c, 1, 74, 57
3, 49383, Note_on_c, 1, 72, 64
3, 49413, Note_off_c, 1, 72, 73
3, 49413, Note_on_c, 1, 74, 64
3, 49443, Note_off_c, 1, 74, 53
3, 49443, Note_on_c, 1, 76, 64
3, 49503, Note_off_c, 1, 76, 58
3, 49503, Note_on_c, 1, 74, 64
3, 49563, Note_off_c, 1, 74, 72
3, 49563, Note_on_c, 1, 72, 64
3, 49623, Note_off_c, 1, 72, 76
3, 49623, Note_on_c, 1, 71, 64
3, 49683, Note_off_c, 1, 71, 68
3, 49683, Note_on_c, 1, 69, 64
3, 49743, Note_off_c, 1, 69, 68
3, 49743, Note_on_c, 1, 67, 64
3, 49803, Note_off_c, 1, 67, 44
3, 49803, Note_on_c, 1, 66, 64
3, 49863, Note_off_c, 1, 66, 40
3, 49863, Note_on_c, 1, 64, 64
3, 49923, Note_off_c, 1, 64, 40
3, 49923, Note_on_c, 1, 66, 64
3, 50043, Note_off_c, 1, 66, 72
3, 50043, Note_on_c, 1, 62, 64
3, 50163, Note_off_c, 1, 62, 50
3, 50163, Note_on_c, 1, 64, 64
3, 50283, Note_off_c, 1, 64, 51
3, 50283, Note_on_c, 1, 66, 64
3, 50403, Note_off_c, 1, 66, 72
3, 50403, Note_on_c, 1, 67, 64
3, 50523, Note_off_c, 1, 67, 52
3, 50523, Note_on_c, 1, 66, 64
3, 50643, Note_off_c, 1, 66, 73
3, 50643, Note_on_c, 1, 67, 64
3, 50763, Note_off_c, 1, 67, 58
3, 50763, Note_on_c, 1, 69, 64
3, 50883, Note_off_c, 1, 69, 66
3, 50883, Note_on_c, 1, 62, 64
3, 51243, Note_off_c, 1, 62, 33
3, 51243, Note_on_c, 1, 63, 64
3, 51363, Note_off_c, 1, 63, 46
3, 51363, Note_on_c, 1, 64, 64
3, 51483, Note_off_c, 1, 64, 47
3, 51483, Note_on_c, 1, 64, 64
3, 51543, Note_off_c, 1, 64, 59
3, 51543, Note_on_c, 1, 63, 64
3, 51603, Note_off_c, 1, 63, 46
3, 51603, Note_on_c, 1, 64, 64
3, 51723, Note_off_c, 1, 64, 44
3, 51963, Note_on_c, 1, 67, 64
3, 52083, Note_off_c, 1, 67, 45
3, 52083, Note_on_c, 1, 69, 64
3, 52203, Note_off_c, 1, 69, 68
3, 52203, Note_on_c, 1, 71, 64
3, 52323, Note_off_c, 1, 71, 69
3, 52323, Note_on_c, 1, 72, 64
3, 52443, Note_off_c, 1, 72, 83
3, 52443, Note_on_c, 1, 67, 64
3, 52683, Note_off_c, 1, 67, 33
3, 52683, Note_on_c, 1, 66, 64
3, 52743, Note_off_c, 1, 66, 68
3, 52743, Note_on_c, 1, 67, 64
3, 52803, Note_off_c, 1, 67, 50
3, 53823, Note_on_c, 1, 76, 64
3, 53883, Note_off_c, 1, 76, 63
3, 53883, Note_on_c, 1, 74, 64
3, 53943, Note_off_c, 1, 74, 55
3, 53943, Note_on_c, 1, 72, 64
3, 54003, Note_off_c, 1, 72, 66
3, 54003, Note_on_c, 1, 71, 64
3, 54063, Note_off_c, 1, 71, 73
3, 54063, Note_on_c, 1, 69, 64
3, 54123, Note_off_c, 1, 69, 62
3, 54123, Note_on_c, 1, 68, 64
3, 54183, Note_off_c, 1, 68, 66
3, 54183, Note_on_c, 1, 69, 64
3, 54243, Note_off_c, 1, 69, 53
3, 54243, Note_on_c, 1, 71, 64
3, 54843, Note_off_c, 1, 71, 73
3, 54843, Note_on_c, 1, 64, 64
3, 54903, Note_off_c, 1, 64, 35
3, 54903, Note_on_c, 1, 65, 64
3, 54963, Note_off_c, 1, 65, 50
3, 54963, Note_on_c, 1, 64, 64
3, 55083, Note_off_c, 1, 64, 49
3, 55083, Note_on_c, 1, 62, 64
3, 55203, Note_off_c, 1, 62, 48
3, 55203, Note_on_c, 1, 60, 64
3, 55323, Note_off_c, 1, 60, 49
3, 55323, Note_on_c, 1, 60, 64
3, 55383, Note_off_c, 1, 60, 58
3, 55383, Note_on_c, 1, 62, 64
3, 55443, Note_off_c, 1, 62, 53
3, 55443, Note_on_c, 1, 60, 64
3, 55563, Note_off_c, 1, 60, 70
3, 55563, Note_on_c, 1, 58, 64
3, 55683, Note_off_c, 1, 58, 58
3, 55683, Note_on_c, 1, 57, 64
3, 55743, Note_off_c, 1, 57, 41
3, 55743, Note_on_c, 1, 59, 64
3, 55803, Note_off_c, 1, 59, 52
3, 55803, Note_on_c, 1, 61, 64
3, 55863, Note_off_c, 1, 61, 61
3, 55863, Note_on_c, 1, 59, 64
3, 55923, Note_off_c, 1, 59, 65
3, 55923, Note_on_c, 1, 57, 64
3, 56043, Note_off_c, 1, 57, 25
3, 56043, Note_on_c, 1, 55, 64
3, 56163, Note_off_c, 1, 55, 47
3, 56163, Note_on_c, 1, 66, 64
3, 56283, Note_off_c, 1, 66, 77
3, 56283, Note_on_c, 1, 71, 64
3, 56403, Note_off_c, 1, 71, 1
3, 56523, Note_on_c, 1, 64, 64
3, 56643, Note_off_c, 1, 64, 41
3, 56643, Note_on_c, 1, 62, 64
3, 56703, Note_off_c, 1, 62, 57
3, 56703, Note_on_c, 1, 60, 64
3, 56763, Note_off_c, 1, 60, 41
3, 56763, Note_on_c, 1, 64, 64
3, 56823, Note_off_c, 1, 64, 50
3, 56823, Note_on_c, 1, 62, 64
3, 56883, Note_off_c, 1, 62, 53
3, 56883, Note_on_c, 1, 60, 64
3, 56943, Note_off_c, 1, 60, 52
3, 56943, Note_on_c, 1, 59, 64
3, 57003, Note_off_c, 1, 59, 25
3, 57003, Note_on_c, 1, 62, 64
3, 57063, Note_off_c, 1, 62, 50
3, 57063, Note_on_c, 1, 60, 64
3, 57123, Note_off_c, 1, 60, 55
3, 57123, Note_on_c, 1, 59, 64
3, 57243, Note_off_c, 1, 59, 37
3, 57243, Note_on_c, 1, 60, 64
3, 57363, Note_off_c, 1, 60, 57
3, 57363, Note_on_c, 1, 62, 64
3, 57423, Note_off_c, 1, 62, 52
3, 57423, Note_on_c, 1, 60, 64
3, 57483, Note_off_c, 1, 60, 59
3, 57483, Note_on_c, 1, 64, 64
3, 57543, Note_off_c, 1, 64, 46
3, 57543, Note_on_c, 1, 62, 64
3, 57603, Note_off_c, 1, 62, 52
3, 57603, Note_on_c, 1, 60, 64
3, 57723, Note_off_c, 1, 60, 55
3, 57723, Note_on_c, 1, 62, 64
3, 57843, Note_off_c, 1, 62, 53
3, 57843, Note_on_c, 1, 64, 64
3, 57903, Note_off_c, 1, 64, 46
3, 57903, Note_on_c, 1, 62, 64
3, 57963, Note_off_c, 1, 62, 48
3, 57963, Note_on_c, 1, 65, 64
3, 58023, Note_off_c, 1, 65, 54
3, 58023, Note_on_c, 1, 64, 64
3, 58083, Note_off_c, 1, 64, 49
3, 58083, Note_on_c, 1, 62, 64
3, 58203, Note_off_c, 1, 62, 48
3, 58203, Note_on_c, 1, 64, 64
3, 58323, Note_off_c, 1, 64, 43
3, 58323, Note_on_c, 1, 65, 64
3, 58683, Note_off_c, 1, 65, 58
3, 58683, Note_on_c, 1, 64, 64
3, 58803, Note_off_c, 1, 64, 44
3, 58983, Note_on_c, 1, 70, 64
3, 59043, Note_off_c, 1, 70, 70
3, 59043, Note_on_c, 1, 69, 64
3, 59343, Note_off_c, 1, 69, 53
3, 59343, Note_on_c, 1, 73, 64
3, 59403, Note_off_c, 1, 73, 59
3, 59403, Note_on_c, 1, 76, 64
3, 59463, Note_off_c, 1, 76, 49
3, 59463, Note_on_c, 1, 74, 64
3, 59523, Note_off_c, 1, 74, 65
3, 59523, Note_on_c, 1, 76, 64
3, 59823, Note_off_c, 1, 76, 65
3, 59823, Note_on_c, 1, 69, 64
3, 59883, Note_off_c, 1, 69, 57
3, 59883, Note_on_c, 1, 73, 64
3, 59943, Note_off_c, 1, 73, 69
3, 59943, Note_on_c, 1, 74, 64
3, 60003, Note_off_c, 1, 74, 65
3, 60003, Note_on_c, 1, 76, 64
3, 60063, Note_off_c, 1, 76, 59
3, 60063, Note_on_c, 1, 73, 64
3, 60123, Note_off_c, 1, 73, 57
3, 60123, Note_on_c, 1, 74, 64
3, 60243, Note_off_c, 1, 74, 66
3, 60363, Note_on_c, 1, 69, 64
3, 60423, Note_off_c, 1, 69, 65
3, 60423, Note_on_c, 1, 67, 64
3, 60483, Note_off_c, 1, 67, 51
3, 60483, Note_on_c, 1, 65, 64
3, 60603, Note_off_c, 1, 65, 40
3, 60603, Note_on_c, 1, 70, 64
3, 60723, Note_off_c, 1, 70, 63
3, 60723, Note_on_c, 1, 69, 64
3, 60843, Note_off_c, 1, 69, 65
3, 60843, Note_on_c, 1, 67, 64
3, 61083, Note_off_c, 1, 67, 50
3, 61083, Note_on_c, 1, 65, 64
3, 61143, Note_off_c, 1, 65, 52
3, 61143, Note_on_c, 1, 64, 64
3, 61203, Note_off_c, 1, 64, 32
3, 61203, Note_on_c, 1, 65, 64
3, 61263, Note_off_c, 1, 65, 52
3, 61263, Note_on_c, 1, 67, 64
3, 61323, Note_off_c, 1, 67, 53
3, 61323, Note_on_c, 1, 69, 64
3, 61383, Note_off_c, 1, 69, 57
3, 61383, Note_on_c, 1, 65, 64
3, 61443, Note_off_c, 1, 65, 63
3, 61443, Note_on_c, 1, 62, 64
3, 61683, Note_off_c, 1, 62, 34
3, 64443, Note_on_c, 1, 69, 64
3, 64503, Note_off_c, 1, 69, 66
3, 64503, Note_on_c, 1, 71, 64
3, 64563, Note_off_c, 1, 71, 70
3, 64563, Note_on_c, 1, 69, 64
3, 64683, Note_off_c, 1, 69, 61
3, 64683, Note_on_c, 1, 67, 64
3, 64803, Note_off_c, 1, 67, 47
3, 64803, Note_on_c, 1, 65, 64
3, 64923, Note_off_c, 1, 65, 52
3, 64923, Note_on_c, 1, 65, 64
3, 64983, Note_off_c, 1, 65, 57
3, 64983, Note_on_c, 1, 67, 64
3, 65043, Note_off_c, 1, 67, 48
3, 65043, Note_on_c, 1, 65, 64
3, 65163, Note_off_c, 1, 65, 58
3, 65163, Note_on_c, 1, 64, 64
3, 65283, Note_off_c, 1, 64, 49
3, 65283, Note_on_c, 1, 62, 64
3, 65343, Note_off_c, 1, 62, 47
3, 65343, Note_on_c, 1, 64, 64
3, 65403, Note_off_c, 1, 64, 46
3, 65403, Note_on_c, 1, 65, 64
3, 65463, Note_off_c, 1, 65, 68
3, 65463, Note_on_c, 1, 64, 64
3, 65523, Note_off_c, 1, 64, 46
3, 65523, Note_on_c, 1, 62, 64
3, 65643, Note_off_c, 1, 62, 41
3, 65643, Note_on_c, 1, 61, 64
3, 65763, Note_off_c, 1, 61, 76
3, 65763, Note_on_c, 1, 70, 64
3, 65883, Note_off_c, 1, 70, 72
3, 65883, Note_on_c, 1, 74, 64
3, 66003, Note_off_c, 1, 74, 66
3, 66123, Note_on_c, 1, 69, 64
3, 66243, Note_off_c, 1, 69, 66
3, 66243, Note_on_c, 1, 67, 64
3, 66303, Note_off_c, 1, 67, 50
3, 66303, Note_on_c, 1, 65, 64
3, 66363, Note_off_c, 1, 65, 62
3, 66363, Note_on_c, 1, 69, 64
3, 66423, Note_off_c, 1, 69, 65
3, 66423, Note_on_c, 1, 67, 64
3, 66483, Note_off_c, 1, 67, 55
3, 66483, Note_on_c, 1, 65, 64
3, 66543, Note_off_c, 1, 65, 62
3, 66543, Note_on_c, 1, 64, 64
3, 66603, Note_off_c, 1, 64, 34
3, 66603, Note_on_c, 1, 67, 64
3, 66663, Note_off_c, 1, 67, 49
3, 66663, Note_on_c, 1, 65, 64
3, 66723, Note_off_c, 1, 65, 57
3, 66723, Note_on_c, 1, 64, 64
3, 66843, Note_off_c, 1, 64, 47
3, 66843, Note_on_c, 1, 65, 64
3, 66963, Note_off_c, 1, 65, 58
3, 66963, Note_on_c, 1, 67, 64
3, 67203, Note_off_c, 1, 67, 57
3, 67203, Note_on_c, 1, 65, 64
3, 67443, Note_off_c, 1, 65, 55
3, 67443, Note_on_c, 1, 64, 64
3, 67563, Note_off_c, 1, 64, 36
3, 67563, Note_on_c, 1, 69, 64
3, 67743, Note_off_c, 1, 69, 52
3, 67743, Note_on_c, 1, 73, 64
3, 67803, Note_off_c, 1, 73, 62
3, 67803, Note_on_c, 1, 74, 64
3, 67923, Note_off_c, 1, 74, 62
3, 67923, Note_on_c, 1, 67, 64
3, 68043, Note_off_c, 1, 67, 27
3, 68043, Note_on_c, 1, 72, 64
3, 68223, Note_off_c, 1, 72, 73
3, 68223, Note_on_c, 1, 76, 64
3, 68283, Note_off_c, 1, 76, 50
3, 68283, Note_on_c, 1, 77, 64
3, 68403, Note_off_c, 1, 77, 59
3, 68403, Note_on_c, 1, 70, 64
3, 68703, Note_off_c, 1, 70, 59
3, 68703, Note_on_c, 1, 67, 64
3, 68763, Note_off_c, 1, 67, 46
3, 68763, Note_on_c, 1, 69, 64
3, 68823, Note_off_c, 1, 69, 53
3, 68823, Note_on_c, 1, 72, 64
3, 68883, Note_off_c, 1, 72, 69
3, 68883, Note_on_c, 1, 62, 64
3, 69123, Note_off_c, 1, 62, 36
3, 69123, Note_on_c, 1, 64, 64
3, 69243, Note_off_c, 1, 64, 51
3, 69243, Note_on_c, 1, 65, 64
3, 69483, Note_off_c, 1, 65, 63
3, 69483, Note_on_c, 1, 64, 64
3, 69603, Note_off_c, 1, 64, 52
3, 69723, Note_on_c, 1, 72, 64
3, 69783, Note_off_c, 1, 72, 70
3, 69783, Note_on_c, 1, 74, 64
3, 69843, Note_off_c, 1, 74, 68
3, 69963, Note_on_c, 1, 70, 64
3, 70083, Note_off_c, 1, 70, 61
3, 70083, Note_on_c, 1, 69, 64
3, 70203, Note_off_c, 1, 69, 76
3, 70203, Note_on_c, 1, 69, 64
3, 70263, Note_off_c, 1, 69, 66
3, 70263, Note_on_c, 1, 70, 64
3, 70323, Note_off_c, 1, 70, 68
3, 70323, Note_on_c, 1, 69, 64
3, 70443, Note_off_c, 1, 69, 70
3, 70443, Note_on_c, 1, 67, 64
3, 70563, Note_off_c, 1, 67, 62
3, 70563, Note_on_c, 1, 66, 64
3, 70623, Note_off_c, 1, 66, 52
3, 70623, Note_on_c, 1, 67, 64
3, 70683, Note_off_c, 1, 67, 53
3, 70683, Note_on_c, 1, 69, 64
3, 70743, Note_off_c, 1, 69, 66
3, 70743, Note_on_c, 1, 67, 64
3, 70803, Note_off_c, 1, 67, 46
3, 70803, Note_on_c, 1, 66, 64
3, 70923, Note_off_c, 1, 66, 70
3, 70923, Note_on_c, 1, 63, 64
3, 71043, Note_off_c, 1, 63, 53
3, 71043, Note_on_c, 1, 72, 64
3, 71163, Note_off_c, 1, 72, 72
3, 71163, Note_on_c, 1, 69, 64
3, 71283, Note_off_c, 1, 69, 52
3, 71403, Note_on_c, 1, 72, 64
3, 71523, Note_off_c, 1, 72, 82
3, 71523, Note_on_c, 1, 70, 64
3, 71583, Note_off_c, 1, 70, 69
3, 71583, Note_on_c, 1, 69, 64
3, 71643, Note_off_c, 1, 69, 63
3, 71643, Note_on_c, 1, 72, 64
3, 71703, Note_off_c, 1, 72, 76
3, 71703, Note_on_c, 1, 70, 64
3, 71763, Note_off_c, 1, 70, 70
3, 71763, Note_on_c, 1, 69, 64
3, 71823, Note_off_c, 1, 69, 69
3, 71823, Note_on_c, 1, 67, 64
3, 71883, Note_off_c, 1, 67, 48
3, 71883, Note_on_c, 1, 70, 64
3, 71943, Note_off_c, 1, 70, 74
3, 71943, Note_on_c, 1, 69, 64
3, 72003, Note_off_c, 1, 69, 68
3, 72003, Note_on_c, 1, 67, 64
3, 72123, Note_off_c, 1, 67, 52
3, 73083, Note_on_c, 1, 69, 64
3, 73143, Note_off_c, 1, 69, 69
3, 73143, Note_on_c, 1, 67, 64
3, 73203, Note_off_c, 1, 67, 30
3, 73203, Note_on_c, 1, 69, 64
3, 73323, Note_off_c, 1, 69, 66
3, 73323, Note_on_c, 1, 71, 64
3, 73443, Note_off_c, 1, 71, 61
3, 73443, Note_on_c, 1, 73, 64
3, 73563, Note_off_c, 1, 73, 72
3, 73563, Note_on_c, 1, 73, 64
3, 73623, Note_off_c, 1, 73, 66
3, 73623, Note_on_c, 1, 71, 64
3, 73683, Note_off_c, 1, 71, 63
3, 73683, Note_on_c, 1, 73, 64
3, 73803, Note_off_c, 1, 73, 66
3, 73803, Note_on_c, 1, 74, 64
3, 73923, Note_off_c, 1, 74, 69
3, 73923, Note_on_c, 1, 76, 64
3, 73983, Note_off_c, 1, 76, 52
3, 73983, Note_on_c, 1, 74, 64
3, 74043, Note_off_c, 1, 74, 52
3, 74043, Note_on_c, 1, 73, 64
3, 74103, Note_off_c, 1, 73, 68
3, 74103, Note_on_c, 1, 74, 64
3, 74163, Note_off_c, 1, 74, 68
3, 74163, Note_on_c, 1, 76, 64
3, 74283, Note_off_c, 1, 76, 58
3, 74283, Note_on_c, 1, 77, 64
3, 74403, Note_off_c, 1, 77, 70
3, 74403, Note_on_c, 1, 67, 64
3, 74523, Note_off_c, 1, 67, 43
3, 74523, Note_on_c, 1, 64, 64
3, 74643, Note_off_c, 1, 64, 34
3, 74763, Note_on_c, 1, 69, 64
3, 74883, Note_off_c, 1, 69, 69
3, 74883, Note_on_c, 1, 69, 64
3, 75003, Note_off_c, 1, 69, 62
3, 75003, Note_on_c, 1, 74, 64
3, 75123, Note_off_c, 1, 74, 52
3, 75123, Note_on_c, 1, 69, 64
3, 75243, Note_off_c, 1, 69, 65
3, 75243, Note_on_c, 1, 67, 64
3, 75363, Note_off_c, 1, 67, 39
3, 75363, Note_on_c, 1, 65, 64
3, 75483, Note_off_c, 1, 65, 52
3, 75483, Note_on_c, 1, 62, 64
3, 75603, Note_off_c, 1, 62, 34
3, 75603, Note_on_c, 1, 65, 64
3, 75723, Note_off_c, 1, 65, 58
3, 75723, Note_on_c, 1, 65, 64
3, 75843, Note_off_c, 1, 65, 52
3, 75843, Note_on_c, 1, 71, 64
3, 76083, Note_off_c, 1, 71, 70
3, 76443, Note_on_c, 1, 69, 64
3, 76503, Note_off_c, 1, 69, 51
3, 76503, Note_on_c, 1, 68, 64
3, 76563, Note_off_c, 1, 68, 62
3, 76563, Note_on_c, 1, 69, 64
3, 76683, Note_off_c, 1, 69, 52
3, 76683, Note_on_c, 1, 71, 64
3, 76803, Note_off_c, 1, 71, 68
3, 76803, Note_on_c, 1, 72, 64
3, 76923, Note_off_c, 1, 72, 73
3, 76923, Note_on_c, 1, 72, 64
3, 76983, Note_off_c, 1, 72, 77
3, 76983, Note_on_c, 1, 71, 64
3, 77043, Note_off_c, 1, 71, 66
3, 77043, Note_on_c, 1, 72, 64
3, 77163, Note_off_c, 1, 72, 76
3, 77163, Note_on_c, 1, 74, 64
3, 77283, Note_off_c, 1, 74, 63
3, 77283, Note_on_c, 1, 76, 64
3, 77343, Note_off_c, 1, 76, 53
3, 77343, Note_on_c, 1, 74, 64
3, 77403, Note_off_c, 1, 74, 69
3, 77403, Note_on_c, 1, 72, 64
3, 77463, Note_off_c, 1, 72, 73
3, 77463, Note_on_c, 1, 74, 64
3, 77523, Note_off_c, 1, 74, 73
3, 77523, Note_on_c, 1, 76, 64
3, 77643, Note_off_c, 1, 76, 61
3, 77643, Note_on_c, 1, 77, 64
3, 77763, Note_off_c, 1, 77, 70
3, 77763, Note_on_c, 1, 68, 64
3, 77883, Note_off_c, 1, 68, 76
3, 77883, Note_on_c, 1, 64, 64
3, 78003, Note_off_c, 1, 64, 24
3, 78003, Note_on_c, 1, 62, 64
3, 78063, Note_off_c, 1, 62, 40
3, 78063, Note_on_c, 1, 64, 64
3, 78123, Note_off_c, 1, 64, 46
3, 78123, Note_on_c, 1, 66, 64
3, 78183, Note_off_c, 1, 66, 35
3, 78183, Note_on_c, 1, 68, 64
3, 78243, Note_off_c, 1, 68, 52
3, 78243, Note_on_c, 1, 66, 64
3, 78483, Note_off_c, 1, 66, 46
3, 78603, Note_on_c, 1, 64, 64
3, 78723, Note_off_c, 1, 64, 51
3, 78723, Note_on_c, 1, 64, 64
3, 78843, Note_off_c, 1, 64, 52
3, 78843, Note_on_c, 1, 65, 64
3, 78963, Note_off_c, 1, 65, 1
3, 78963, Note_on_c, 1, 64, 64
3, 79083, Note_off_c, 1, 64, 50
3, 79083, Note_on_c, 1, 62, 64
3, 79203, Note_off_c, 1, 62, 44
3, 79203, Note_on_c, 1, 61, 64
3, 79443, Note_off_c, 1, 61, 65
3, 79563, Note_on_c, 1, 64, 64
3, 79683, Note_off_c, 1, 64, 30
3, 79683, Note_on_c, 1, 57, 64
3, 79803, Note_off_c, 1, 57, 46
3, 79803, Note_on_c, 1, 69, 64
3, 79863, Note_off_c, 1, 69, 55
3, 79863, Note_on_c, 1, 70, 64
3, 79923, Note_off_c, 1, 70, 69
3, 79923, Note_on_c, 1, 69, 64
3, 80043, Note_off_c, 1, 69, 72
3, 80043, Note_on_c, 1, 67, 64
3, 80163, Note_off_c, 1, 67, 45
3, 80163, Note_on_c, 1, 65, 64
3, 80283, Note_off_c, 1, 65, 40
3, 80283, Note_on_c, 1, 65, 64
3, 80343, Note_off_c, 1, 65, 61
3, 80343, Note_on_c, 1, 67, 64
3, 80403, Note_off_c, 1, 67, 46
3, 80403, Note_on_c, 1, 65, 64
3, 80523, Note_off_c, 1, 65, 61
3, 80523, Note_on_c, 1, 64, 64
3, 80643, Note_off_c, 1, 64, 48
3, 80643, Note_on_c, 1, 62, 64
3, 80763, Note_off_c, 1, 62, 51
3, 80763, Note_on_c, 1, 69, 64
3, 80763, Note_on_c, 1, 57, 64
3, 80823, Note_off_c, 1, 57, 46
3, 80823, Note_off_c, 1, 69, 51
3, 80823, Note_on_c, 1, 59, 64
3, 80823, Note_on_c, 1, 67, 64
3, 80883, Note_off_c, 1, 67, 48
3, 80883, Note_off_c, 1, 59, 45
3, 80883, Note_on_c, 1, 61, 64
3, 80883, Note_on_c, 1, 69, 64
3, 81003, Note_off_c, 1, 69, 65
3, 81003, Note_off_c, 1, 61, 63
3, 81003, Note_on_c, 1, 71, 64
3, 81003, Note_on_c, 1, 62, 64
3, 81123, Note_off_c, 1, 62, 57
3, 81123, Note_off_c, 1, 71, 63
3, 81123, Note_on_c, 1, 64, 64
3, 81123, Note_on_c, 1, 73, 64
3, 81243, Note_off_c, 1, 73, 65
3, 81243, Note_on_c, 1, 73, 64
3, 81303, Note_off_c, 1, 73, 69
3, 81303, Note_on_c, 1, 71, 64
3, 81363, Note_off_c, 1, 71, 74
3, 81363, Note_off_c, 1, 64, 49
3, 81363, Note_on_c, 1, 73, 64
3, 81483, Note_off_c, 1, 73, 70
3, 81483, Note_on_c, 1, 62, 64
3, 81483, Note_on_c, 1, 74, 64
3, 81603, Note_off_c, 1, 74, 72
3, 81603, Note_off_c, 1, 62, 37
3, 81603, Note_on_c, 1, 67, 64
3, 81603, Note_on_c, 1, 76, 64
3, 81663, Note_off_c, 1, 76, 58
3, 81663, Note_on_c, 1, 74, 64
3, 81723, Note_off_c, 1, 74, 62
3, 81723, Note_on_c, 1, 73, 64
3, 81783, Note_off_c, 1, 73, 69
3, 81783, Note_on_c, 1, 74, 64
3, 81843, Note_off_c, 1, 74, 74
3, 81843, Note_off_c, 1, 67, 62
3, 81843, Note_on_c, 1, 76, 64
3, 81963, Note_off_c, 1, 76, 58
3, 81963, Note_on_c, 1, 65, 64
3, 81963, Note_on_c, 1, 77, 64
3, 82023, Note_off_c, 1, 65, 33
3, 82023, Note_on_c, 1, 64, 64
3, 82083, Note_off_c, 1, 64, 49
3, 82083, Note_off_c, 1, 77, 72
3, 82083, Note_on_c, 1, 62, 64
3, 82083, Note_on_c, 1, 68, 64
3, 82323, Note_off_c, 1, 68, 74
3, 82323, Note_off_c, 1, 62, 32
3, 82443, Note_on_c, 1, 74, 64
3, 82683, Note_off_c, 1, 74, 69
3, 82683, Note_on_c, 1, 73, 64
3, 82683, Note_on_c, 1, 76, 64
3, 82743, Note_off_c, 1, 76, 57
3, 82743, Note_off_c, 1, 73, 62
3, 82743, Note_on_c, 1, 74, 64
3, 82743, Note_on_c, 1, 77, 64
3, 82803, Note_off_c, 1, 77, 70
3, 82803, Note_off_c, 1, 74, 66
3, 82803, Note_on_c, 1, 73, 64
3, 82803, Note_on_c, 1, 76, 64
3, 82923, Note_off_c, 1, 76, 61
3, 82923, Note_off_c, 1, 73, 62
3, 82923, Note_on_c, 1, 71, 64
3, 82923, Note_on_c, 1, 74, 64
3, 82983, Note_on_c, 1, 68, 64
3, 83043, Note_off_c, 1, 68, 66
3, 83043, Note_off_c, 1, 74, 74
3, 83043, Note_off_c, 1, 71, 70
3, 83043, Note_on_c, 1, 69, 64
3, 83043, Note_on_c, 1, 73, 64
3, 83523, Note_off_c, 1, 73, 63
3, 83523, Note_off_c, 1, 69, 69
3, 83523, End_track
4, 0, Start_track
4, 0, Text_t, "LH H"
4, 9720, Note_on_c, 2, 52, 64
4, 9780, Note_off_c, 2, 52, 40
4, 9780, Note_on_c, 2, 51, 64
4, 9840, Note_off_c, 2, 51, 48
4, 9840, Note_on_c, 2, 52, 64
4, 9960, Note_off_c, 2, 52, 51
4, 9960, Note_on_c, 2, 54, 64
4, 10080, Note_off_c, 2, 54, 55
4, 10080, Note_on_c, 2, 55, 64
4, 10200, Note_off_c, 2, 55, 68
4, 10200, Note_on_c, 2, 55, 64
4, 10260, Note_off_c, 2, 55, 62
4, 10260, Note_on_c, 2, 54, 64
4, 10320, Note_off_c, 2, 54, 49
4, 10320, Note_on_c, 2, 55, 64
4, 10440, Note_off_c, 2, 55, 57
4, 10440, Note_on_c, 2, 57, 64
4, 10560, Note_off_c, 2, 57, 49
4, 10560, Note_on_c, 2, 59, 64
4, 10620, Note_off_c, 2, 59, 57
4, 10620, Note_on_c, 2, 57, 64
4, 10680, Note_off_c, 2, 57, 61
4, 10680, Note_on_c, 2, 55, 64
4, 10740, Note_off_c, 2, 55, 53
4, 10740, Note_on_c, 2, 57, 64
4, 10800, Note_off_c, 2, 57, 50
4, 10800, Note_on_c, 2, 59, 64
4, 10920, Note_off_c, 2, 59, 44
4, 10920, Note_on_c, 2, 60, 64
4, 11040, Note_off_c, 2, 60, 58
4, 11040, Note_on_c, 2, 51, 64
4, 11160, Note_off_c, 2, 51, 46
4, 11400, Note_on_c, 2, 52, 64
4, 11520, Note_off_c, 2, 52, 63
4, 11520, Note_on_c, 2, 54, 64
4, 11580, Note_off_c, 2, 54, 55
4, 11580, Note_on_c, 2, 55, 64
4, 11640, Note_off_c, 2, 55, 61
4, 11640, Note_on_c, 2, 52, 64
4, 11700, Note_off_c, 2, 52, 58
4, 11700, Note_on_c, 2, 54, 64
4, 11760, Note_off_c, 2, 54, 59
4, 11760, Note_on_c, 2, 55, 64
4, 11820, Note_off_c, 2, 55, 57
4, 11820, Note_on_c, 2, 57, 64
4, 11880, Note_off_c, 2, 57, 52
4, 11880, Note_on_c, 2, 54, 64
4, 11940, Note_off_c, 2, 54, 51
4, 11940, Note_on_c, 2, 55, 64
4, 12000, Note_off_c, 2, 55, 57
4, 12000, Note_on_c, 2, 57, 64
4, 12120, Note_off_c, 2, 57, 49
4, 12120, Note_on_c, 2, 55, 64
4, 12240, Note_off_c, 2, 55, 66
4, 12240, Note_on_c, 2, 54, 64
4, 12360, Note_off_c, 2, 54, 47
4, 12360, Note_on_c, 2, 59, 64
4, 12480, Note_off_c, 2, 59, 44
4, 12480, Note_on_c, 2, 52, 64
4, 12720, Note_off_c, 2, 52, 40
4, 12720, Note_on_c, 2, 59, 64
4, 12840, Note_off_c, 2, 59, 59
4, 12840, Note_on_c, 2, 57, 64
4, 12960, Note_off_c, 2, 57, 59
4, 12960, Note_on_c, 2, 56, 64
4, 13080, Note_off_c, 2, 56, 58
4, 13080, Note_on_c, 2, 52, 64
4, 13200, Note_off_c, 2, 52, 45
4, 13200, Note_on_c, 2, 54, 64
4, 13320, Note_off_c, 2, 54, 55
4, 13320, Note_on_c, 2, 56, 64
4, 13440, Note_off_c, 2, 56, 49
4, 13440, Note_on_c, 2, 57, 64
4, 13560, Note_off_c, 2, 57, 53
4, 14040, Note_on_c, 2, 57, 64
4, 14160, Note_off_c, 2, 57, 42
4, 14160, Note_on_c, 2, 59, 64
4, 14280, Note_off_c, 2, 59, 51
4, 14280, Note_on_c, 2, 61, 64
4, 14400, Note_off_c, 2, 61, 65
4, 14400, Note_on_c, 2, 62, 64
4, 14520, Note_off_c, 2, 62, 54
4, 15000, Note_on_c, 2, 59, 64
4, 15120, Note_off_c, 2, 59, 51
4, 15120, Note_on_c, 2, 57, 64
4, 15360, Note_off_c, 2, 57, 32
4, 15360, Note_on_c, 2, 55, 64
4, 15960, Note_off_c, 2, 55, 53
4, 15960, Note_on_c, 2, 57, 64
4, 16200, Note_off_c, 2, 57, 53
4, 16200, Note_on_c, 2, 50, 64
4, 16440, Note_off_c, 2, 50, 61
4, 16440, Note_on_c, 2, 67, 64
4, 16500, Note_off_c, 2, 67, 48
4, 16500, Note_on_c, 2, 69, 64
4, 16560, Note_off_c, 2, 69, 59
4, 16560, Note_on_c, 2, 67, 64
4, 16680, Note_off_c, 2, 67, 49
4, 16680, Note_on_c, 2, 65, 64
4, 16800, Note_off_c, 2, 65, 1
4, 16800, Note_on_c, 2, 64, 64
4, 16920, Note_off_c, 2, 64, 40
4, 16920, Note_on_c, 2, 64, 64
4, 16980, Note_off_c, 2, 64, 42
4, 16980, Note_on_c, 2, 65, 64
4, 17040, Note_off_c, 2, 65, 52
4, 17040, Note_on_c, 2, 64, 64
4, 17160, Note_off_c, 2, 64, 47
4, 17160, Note_on_c, 2, 62, 64
4, 17280, Note_off_c, 2, 62, 49
4, 17280, Note_on_c, 2, 60, 64
4, 17340, Note_off_c, 2, 60, 62
4, 17340, Note_on_c, 2, 62, 64
4, 17400, Note_off_c, 2, 62, 52
4, 17400, Note_on_c, 2, 64, 64
4, 17460, Note_off_c, 2, 64, 46
4, 17460, Note_on_c, 2, 62, 64
4, 17520, Note_off_c, 2, 62, 50
4, 17520, Note_on_c, 2, 60, 64
4, 17640, Note_off_c, 2, 60, 54
4, 17640, Note_on_c, 2, 58, 64
4, 17760, Note_off_c, 2, 58, 74
4, 17760, Note_on_c, 2, 69, 64
4, 17880, Note_off_c, 2, 69, 66
4, 17880, Note_on_c, 2, 73, 64
4, 18000, Note_off_c, 2, 73, 59
4, 18120, Note_on_c, 2, 67, 64
4, 18240, Note_off_c, 2, 67, 51
4, 18240, Note_on_c, 2, 65, 64
4, 18300, Note_off_c, 2, 65, 43
4, 18300, Note_on_c, 2, 64, 64
4, 18360, Note_off_c, 2, 64, 41
4, 18360, Note_on_c, 2, 67, 64
4, 18420, Note_off_c, 2, 67, 50
4, 18420, Note_on_c, 2, 65, 64
4, 18480, Note_off_c, 2, 65, 57
4, 18480, Note_on_c, 2, 64, 64
4, 18540, Note_off_c, 2, 64, 52
4, 18540, Note_on_c, 2, 62, 64
4, 18600, Note_off_c, 2, 62, 46
4, 18600, Note_on_c, 2, 65, 64
4, 18660, Note_off_c, 2, 65, 63
4, 18660, Note_on_c, 2, 64, 64
4, 18720, Note_off_c, 2, 64, 46
4, 18720, Note_on_c, 2, 62, 64
4, 18840, Note_off_c, 2, 62, 46
4, 18840, Note_on_c, 2, 64, 64
4, 18960, Note_off_c, 2, 64, 48
4, 18960, Note_on_c, 2, 65, 64
4, 19020, Note_off_c, 2, 65, 70
4, 19020, Note_on_c, 2, 64, 64
4, 19080, Note_off_c, 2, 64, 48
4, 19080, Note_on_c, 2, 62, 64
4, 19140, Note_off_c, 2, 62, 45
4, 19140, Note_on_c, 2, 60, 64
4, 19200, Note_off_c, 2, 60, 52
4, 19200, Note_on_c, 2, 58, 64
4, 19320, Note_off_c, 2, 58, 62
4, 19380, Note_on_c, 2, 58, 64
4, 19440, Note_off_c, 2, 58, 58
4, 19440, Note_on_c, 2, 57, 64
4, 19800, Note_off_c, 2, 57, 52
4, 19800, Note_on_c, 2, 57, 64
4, 19920, Note_off_c, 2, 57, 52
4, 19920, Note_on_c, 2, 59, 64
4, 20040, Note_off_c, 2, 59, 51
4, 20040, Note_on_c, 2, 61, 64
4, 20160, Note_off_c, 2, 61, 49
4, 20160, Note_on_c, 2, 62, 64
4, 20280, Note_off_c, 2, 62, 52
4, 22680, Note_on_c, 2, 59, 64
4, 22740, Note_off_c, 2, 59, 53
4, 22740, Note_on_c, 2, 60, 64
4, 22800, Note_off_c, 2, 60, 53
4, 22800, Note_on_c, 2, 59, 64
4, 22920, Note_off_c, 2, 59, 50
4, 22920, Note_on_c, 2, 57, 64
4, 23040, Note_off_c, 2, 57, 37
4, 23040, Note_on_c, 2, 56, 64
4, 23400, Note_off_c, 2, 56, 48
4, 23400, Note_on_c, 2, 52, 64
4, 23520, Note_off_c, 2, 52, 37
4, 23520, Note_on_c, 2, 50, 64
4, 23640, Note_off_c, 2, 50, 43
4, 23640, Note_on_c, 2, 53, 64
4, 23700, Note_off_c, 2, 53, 52
4, 23700, Note_on_c, 2, 52, 64
4, 23760, Note_off_c, 2, 52, 51
4, 23760, Note_on_c, 2, 50, 64
4, 23880, Note_off_c, 2, 50, 46
4, 23880, Note_on_c, 2, 48, 64
4, 24000, Note_off_c, 2, 48, 43
4, 24000, Note_on_c, 2, 47, 64
4, 24120, Note_off_c, 2, 47, 47
4, 24120, Note_on_c, 2, 48, 64
4, 24240, Note_off_c, 2, 48, 55
4, 24240, Note_on_c, 2, 50, 64
4, 24360, Note_off_c, 2, 50, 59
4, 24360, Note_on_c, 2, 47, 64
4, 24480, Note_off_c, 2, 47, 49
4, 24480, Note_on_c, 2, 52, 64
4, 24840, Note_off_c, 2, 52, 40
4, 24840, Note_on_c, 2, 53, 64
4, 25080, Note_off_c, 2, 53, 49
4, 25080, Note_on_c, 2, 50, 64
4, 25200, Note_off_c, 2, 50, 46
4, 25200, Note_on_c, 2, 52, 64
4, 25320, Note_off_c, 2, 52, 46
4, 25320, Note_on_c, 2, 50, 64
4, 25440, Note_off_c, 2, 50, 49
4, 25440, Note_on_c, 2, 48, 64
4, 25560, Note_off_c, 2, 48, 48
4, 26040, Note_on_c, 2, 57, 64
4, 26100, Note_off_c, 2, 57, 49
4, 26100, Note_on_c, 2, 56, 64
4, 26160, Note_off_c, 2, 56, 37
4, 26160, Note_on_c, 2, 57, 64
4, 26280, Note_off_c, 2, 57, 44
4, 26280, Note_on_c, 2, 59, 64
4, 26400, Note_off_c, 2, 59, 41
4, 26400, Note_on_c, 2, 60, 64
4, 26520, Note_off_c, 2, 60, 61
4, 26520, Note_on_c, 2, 60, 64
4, 26580, Note_off_c, 2, 60, 59
4, 26580, Note_on_c, 2, 59, 64
4, 26640, Note_off_c, 2, 59, 54
4, 26640, Note_on_c, 2, 60, 64
4, 26760, Note_off_c, 2, 60, 52
4, 26760, Note_on_c, 2, 62, 64
4, 26880, Note_off_c, 2, 62, 50
4, 26880, Note_on_c, 2, 64, 64
4, 26940, Note_off_c, 2, 64, 46
4, 26940, Note_on_c, 2, 62, 64
4, 27000, Note_off_c, 2, 62, 50
4, 27000, Note_on_c, 2, 60, 64
4, 27060, Note_off_c, 2, 60, 44
4, 27060, Note_on_c, 2, 62, 64
4, 27120, Note_off_c, 2, 62, 47
4, 27120, Note_on_c, 2, 64, 64
4, 27240, Note_off_c, 2, 64, 45
4, 27240, Note_on_c, 2, 65, 64
4, 27360, Note_off_c, 2, 65, 52
4, 27360, Note_on_c, 2, 56, 64
4, 27480, Note_off_c, 2, 56, 43
4, 27480, Note_on_c, 2, 52, 64
4, 27600, Note_off_c, 2, 52, 46
4, 27720, Note_on_c, 2, 57, 64
4, 27840, Note_off_c, 2, 57, 54
4, 27840, Note_on_c, 2, 59, 64
4, 27900, Note_off_c, 2, 59, 53
4, 27900, Note_on_c, 2, 60, 64
4, 27960, Note_off_c, 2, 60, 61
4, 27960, Note_on_c, 2, 57, 64
4, 28020, Note_off_c, 2, 57, 48
4, 28020, Note_on_c, 2, 59, 64
4, 28080, Note_off_c, 2, 59, 51
4, 28080, Note_on_c, 2, 60, 64
4, 28140, Note_off_c, 2, 60, 61
4, 28140, Note_on_c, 2, 62, 64
4, 28200, Note_off_c, 2, 62, 52
4, 28200, Note_on_c, 2, 59, 64
4, 28260, Note_off_c, 2, 59, 43
4, 28260, Note_on_c, 2, 60, 64
4, 28320, Note_off_c, 2, 60, 58
4, 28320, Note_on_c, 2, 62, 64
4, 28440, Note_off_c, 2, 62, 57
4, 28440, Note_on_c, 2, 60, 64
4, 28560, Note_off_c, 2, 60, 51
4, 28560, Note_on_c, 2, 59, 64
4, 28680, Note_off_c, 2, 59, 35
4, 28680, Note_on_c, 2, 64, 64
4, 28800, Note_off_c, 2, 64, 52
4, 28800, Note_on_c, 2, 57, 64
4, 29400, Note_off_c, 2, 57, 46
4, 29400, Note_on_c, 2, 55, 64
4, 29460, Note_off_c, 2, 55, 61
4, 29460, Note_on_c, 2, 54, 64
4, 29520, Note_off_c, 2, 54, 49
4, 29520, Note_on_c, 2, 55, 64
4, 29640, Note_off_c, 2, 55, 65
4, 29640, Note_on_c, 2, 57, 64
4, 29760, Note_off_c, 2, 57, 65
4, 29760, Note_on_c, 2, 59, 64
4, 29880, Note_off_c, 2, 59, 46
4, 29880, Note_on_c, 2, 64, 64
4, 30120, Note_off_c, 2, 64, 41
4, 30120, Note_on_c, 2, 63, 64
4, 30240, Note_off_c, 2, 63, 49
4, 30240, Note_on_c, 2, 64, 64
4, 30360, Note_off_c, 2, 64, 49
4, 34200, Note_on_c, 2, 57, 64
4, 34260, Note_off_c, 2, 57, 53
4, 34260, Note_on_c, 2, 56, 64
4, 34320, Note_off_c, 2, 56, 52
4, 34320, Note_on_c, 2, 57, 64
4, 34440, Note_off_c, 2, 57, 53
4, 34440, Note_on_c, 2, 59, 64
4, 34560, Note_off_c, 2, 59, 58
4, 34560, Note_on_c, 2, 60, 64
4, 34680, Note_off_c, 2, 60, 65
4, 34680, Note_on_c, 2, 60, 64
4, 34740, Note_off_c, 2, 60, 62
4, 34740, Note_on_c, 2, 59, 64
4, 34800, Note_off_c, 2, 59, 53
4, 34800, Note_on_c, 2, 60, 64
4, 34920, Note_off_c, 2, 60, 55
4, 34920, Note_on_c, 2, 62, 64
4, 35040, Note_off_c, 2, 62, 50
4, 35040, Note_on_c, 2, 64, 64
4, 35100, Note_off_c, 2, 64, 53
4, 35100, Note_on_c, 2, 62, 64
4, 35160, Note_off_c, 2, 62, 49
4, 35160, Note_on_c, 2, 60, 64
4, 35220, Note_off_c, 2, 60, 49
4, 35220, Note_on_c, 2, 62, 64
4, 35280, Note_off_c, 2, 62, 52
4, 35280, Note_on_c, 2, 64, 64
4, 35400, Note_off_c, 2, 64, 46
4, 35400, Note_on_c, 2, 65, 64
4, 35520, Note_off_c, 2, 65, 1
4, 35520, Note_on_c, 2, 56, 64
4, 35640, Note_off_c, 2, 56, 55
4, 35640, Note_on_c, 2, 52, 64
4, 35760, Note_off_c, 2, 52, 50
4, 35880, Note_on_c, 2, 57, 64
4, 36000, Note_off_c, 2, 57, 55
4, 36000, Note_on_c, 2, 59, 64
4, 36060, Note_off_c, 2, 59, 54
4, 36060, Note_on_c, 2, 60, 64
4, 36120, Note_off_c, 2, 60, 63
4, 36120, Note_on_c, 2, 57, 64
4, 36180, Note_off_c, 2, 57, 53
4, 36180, Note_on_c, 2, 59, 64
4, 36240, Note_off_c, 2, 59, 54
4, 36240, Note_on_c, 2, 60, 64
4, 36300, Note_off_c, 2, 60, 63
4, 36300, Note_on_c, 2, 62, 64
4, 36360, Note_off_c, 2, 62, 57
4, 36360, Note_on_c, 2, 59, 64
4, 36420, Note_off_c, 2, 59, 45
4, 36420, Note_on_c, 2, 60, 64
4, 36480, Note_off_c, 2, 60, 54
4, 36480, Note_on_c, 2, 62, 64
4, 36600, Note_off_c, 2, 62, 51
4, 36600, Note_on_c, 2, 60, 64
4, 36720, Note_off_c, 2, 60, 63
4, 36720, Note_on_c, 2, 59, 64
4, 36840, Note_off_c, 2, 59, 51
4, 36840, Note_on_c, 2, 64, 64
4, 36960, Note_off_c, 2, 64, 41
4, 36960, Note_on_c, 2, 57, 64
4, 37320, Note_off_c, 2, 57, 30
4, 37320, Note_on_c, 2, 55, 64
4, 37560, Note_off_c, 2, 55, 37
4, 37560, Note_on_c, 2, 53, 64
4, 37620, Note_off_c, 2, 53, 49
4, 37620, Note_on_c, 2, 52, 64
4, 37680, Note_off_c, 2, 52, 43
4, 37680, Note_on_c, 2, 53, 64
4, 38040, Note_off_c, 2, 53, 53
4, 38040, Note_on_c, 2, 52, 64
4, 38100, Note_off_c, 2, 52, 53
4, 38100, Note_on_c, 2, 50, 64
4, 38160, Note_off_c, 2, 50, 44
4, 38160, Note_on_c, 2, 52, 64
4, 38640, Note_off_c, 2, 52, 66
4, 38640, Note_on_c, 2, 50, 64
4, 38940, Note_off_c, 2, 50, 51
4, 38940, Note_on_c, 2, 48, 64
4, 39000, Note_off_c, 2, 48, 37
4, 39000, Note_on_c, 2, 50, 64
4, 39060, Note_off_c, 2, 50, 62
4, 39060, Note_on_c, 2, 52, 64
4, 39120, Note_off_c, 2, 52, 62
4, 39120, Note_on_c, 2, 53, 64
4, 39180, Note_off_c, 2, 53, 51
4, 39180, Note_on_c, 2, 55, 64
4, 39240, Note_off_c, 2, 55, 58
4, 39240, Note_on_c, 2, 57, 64
4, 39300, Note_off_c, 2, 57, 43
4, 39300, Note_on_c, 2, 59, 64
4, 39360, Note_off_c, 2, 59, 49
4, 39360, Note_on_c, 2, 60, 64
4, 40140, Note_off_c, 2, 60, 58
4, 40140, Note_on_c, 2, 64, 64
4, 40200, Note_off_c, 2, 64, 51
4, 40200, Note_on_c, 2, 62, 64
4, 40260, Note_off_c, 2, 62, 49
4, 40260, Note_on_c, 2, 60, 64
4, 40320, Note_off_c, 2, 60, 63
4, 40320, Note_on_c, 2, 59, 64
4, 40440, Note_off_c, 2, 59, 13
4, 40440, Note_on_c, 2, 64, 64
4, 40500, Note_off_c, 2, 64, 49
4, 40500, Note_on_c, 2, 62, 64
4, 40560, Note_off_c, 2, 62, 55
4, 40560, Note_on_c, 2, 60, 64
4, 40620, Note_off_c, 2, 60, 54
4, 40620, Note_on_c, 2, 59, 64
4, 40680, Note_off_c, 2, 59, 40
4, 40680, Note_on_c, 2, 57, 64
4, 40740, Note_off_c, 2, 57, 41
4, 40740, Note_on_c, 2, 59, 64
4, 40800, Note_off_c, 2, 59, 52
4, 40800, Note_on_c, 2, 60, 64
4, 41400, Note_off_c, 2, 60, 49
4, 41400, Note_on_c, 2, 55, 64
4, 41640, Note_off_c, 2, 55, 37
4, 41640, Note_on_c, 2, 62, 64
4, 41880, Note_off_c, 2, 62, 52
4, 41880, Note_on_c, 2, 64, 64
4, 42000, Note_off_c, 2, 64, 50
4, 42000, Note_on_c, 2, 62, 64
4, 42120, Note_off_c, 2, 62, 55
4, 42120, Note_on_c, 2, 60, 64
4, 42240, Note_off_c, 2, 60, 52
4, 42240, Note_on_c, 2, 55, 64
4, 42480, Note_off_c, 2, 55, 46
4, 43080, Note_on_c, 2, 55, 64
4, 43200, Note_off_c, 2, 55, 48
4, 43200, Note_on_c, 2, 57, 64
4, 43260, Note_off_c, 2, 57, 57
4, 43260, Note_on_c, 2, 59, 64
4, 43320, Note_off_c, 2, 59, 52
4, 43320, Note_on_c, 2, 55, 64
4, 43380, Note_off_c, 2, 55, 50
4, 43380, Note_on_c, 2, 57, 64
4, 43440, Note_off_c, 2, 57, 48
4, 43440, Note_on_c, 2, 59, 64
4, 43500, Note_off_c, 2, 59, 50
4, 43500, Note_on_c, 2, 60, 64
4, 43560, Note_off_c, 2, 60, 53
4, 43560, Note_on_c, 2, 57, 64
4, 43620, Note_off_c, 2, 57, 43
4, 43620, Note_on_c, 2, 59, 64
4, 43680, Note_off_c, 2, 59, 48
4, 43680, Note_on_c, 2, 60, 64
4, 43800, Note_off_c, 2, 60, 61
4, 43800, Note_on_c, 2, 59, 64
4, 43920, Note_off_c, 2, 59, 41
4, 43920, Note_on_c, 2, 57, 64
4, 44040, Note_off_c, 2, 57, 39
4, 44040, Note_on_c, 2, 62, 64
4, 44160, Note_off_c, 2, 62, 40
4, 44160, Note_on_c, 2, 55, 64
4, 44520, Note_off_c, 2, 55, 53
4, 44520, Note_on_c, 2, 60, 64
4, 44640, Note_off_c, 2, 60, 45
4, 44640, Note_on_c, 2, 62, 64
4, 44700, Note_off_c, 2, 62, 58
4, 44700, Note_on_c, 2, 53, 64
4, 44760, Note_off_c, 2, 53, 48
4, 44760, Note_on_c, 2, 55, 64
4, 44820, Note_off_c, 2, 55, 52
4, 44820, Note_on_c, 2, 57, 64
4, 44880, Note_off_c, 2, 57, 51
4, 44880, Note_on_c, 2, 59, 64
4, 44940, Note_off_c, 2, 59, 50
4, 44940, Note_on_c, 2, 60, 64
4, 45000, Note_off_c, 2, 60, 49
4, 45000, Note_on_c, 2, 62, 64
4, 45060, Note_off_c, 2, 62, 44
4, 45060, Note_on_c, 2, 59, 64
4, 45120, Note_off_c, 2, 59, 50
4, 45120, Note_on_c, 2, 55, 64
4, 45360, Note_off_c, 2, 55, 49
4, 46200, Note_on_c, 2, 57, 64
4, 46260, Note_off_c, 2, 57, 55
4, 46260, Note_on_c, 2, 58, 64
4, 46320, Note_off_c, 2, 58, 61
4, 46320, Note_on_c, 2, 57, 64
4, 46440, Note_off_c, 2, 57, 51
4, 46440, Note_on_c, 2, 55, 64
4, 46560, Note_off_c, 2, 55, 42
4, 46560, Note_on_c, 2, 53, 64
4, 46680, Note_off_c, 2, 53, 40
4, 46680, Note_on_c, 2, 53, 64
4, 46740, Note_off_c, 2, 53, 54
4, 46740, Note_on_c, 2, 55, 64
4, 46800, Note_off_c, 2, 55, 58
4, 46800, Note_on_c, 2, 53, 64
4, 46920, Note_off_c, 2, 53, 44
4, 46920, Note_on_c, 2, 52, 64
4, 47040, Note_off_c, 2, 52, 35
4, 47040, Note_on_c, 2, 50, 64
4, 47100, Note_off_c, 2, 50, 59
4, 47100, Note_on_c, 2, 52, 64
4, 47160, Note_off_c, 2, 52, 63
4, 47160, Note_on_c, 2, 53, 64
4, 47220, Note_off_c, 2, 53, 62
4, 47220, Note_on_c, 2, 52, 64
4, 47280, Note_off_c, 2, 52, 57
4, 47280, Note_on_c, 2, 50, 64
4, 47400, Note_off_c, 2, 50, 48
4, 47400, Note_on_c, 2, 48, 64
4, 47520, Note_off_c, 2, 48, 40
4, 47520, Note_on_c, 2, 59, 64
4, 47640, Note_off_c, 2, 59, 54
4, 47640, Note_on_c, 2, 62, 64
4, 47760, Note_off_c, 2, 62, 50
4, 47880, Note_on_c, 2, 57, 64
4, 48000, Note_off_c, 2, 57, 57
4, 48000, Note_on_c, 2, 55, 64
4, 48060, Note_off_c, 2, 55, 51
4, 48060, Note_on_c, 2, 53, 64
4, 48120, Note_off_c, 2, 53, 44
4, 48120, Note_on_c, 2, 57, 64
4, 48180, Note_off_c, 2, 57, 47
4, 48180, Note_on_c, 2, 55, 64
4, 48240, Note_off_c, 2, 55, 58
4, 48240, Note_on_c, 2, 53, 64
4, 48300, Note_off_c, 2, 53, 51
4, 48300, Note_on_c, 2, 52, 64
4, 48360, Note_off_c, 2, 52, 44
4, 48360, Note_on_c, 2, 55, 64
4, 48420, Note_off_c, 2, 55, 63
4, 48420, Note_on_c, 2, 53, 64
4, 48480, Note_off_c, 2, 53, 52
4, 48480, Note_on_c, 2, 52, 64
4, 48600, Note_off_c, 2, 52, 61
4, 48600, Note_on_c, 2, 53, 64
4, 48720, Note_off_c, 2, 53, 59
4, 48720, Note_on_c, 2, 55, 64
4, 48840, Note_off_c, 2, 55, 49
4, 48840, Note_on_c, 2, 50, 64
4, 48960, Note_off_c, 2, 50, 46
4, 48960, Note_on_c, 2, 57, 64
4, 49020, Note_off_c, 2, 57, 61
4, 49020, Note_on_c, 2, 59, 64
4, 49080, Note_off_c, 2, 59, 54
4, 49140, Note_on_c, 2, 59, 64
4, 49200, Note_off_c, 2, 59, 51
4, 49200, Note_on_c, 2, 60, 70
4, 49220, Note_off_c, 2, 60, 79
4, 49220, Note_on_c, 2, 59, 50
4, 49240, Note_off_c, 2, 59, 73
4, 49240, Note_on_c, 2, 60, 52
4, 49260, Note_off_c, 2, 60, 80
4, 49260, Note_on_c, 2, 59, 54
4, 49280, Note_off_c, 2, 59, 73
4, 49280, Note_on_c, 2, 60, 57
4, 49300, Note_off_c, 2, 60, 76
4, 49300, Note_on_c, 2, 59, 59
4, 49320, Note_off_c, 2, 59, 70
4, 49320, Note_on_c, 2, 60, 61
4, 49340, Note_off_c, 2, 60, 77
4, 49340, Note_on_c, 2, 59, 63
4, 49380, Note_off_c, 2, 59, 57
4, 49380, Note_on_c, 2, 57, 64
4, 49410, Note_off_c, 2, 57, 37
4, 49410, Note_on_c, 2, 59, 64
4, 49440, Note_off_c, 2, 59, 55
4, 49440, Note_on_c, 2, 60, 64
4, 50040, Note_off_c, 2, 60, 59
4, 50040, Note_on_c, 2, 54, 64
4, 50160, Note_off_c, 2, 54, 62
4, 50160, Note_on_c, 2, 55, 64
4, 50280, Note_off_c, 2, 55, 61
4, 50280, Note_on_c, 2, 57, 64
4, 50400, Note_off_c, 2, 57, 55
4, 50400, Note_on_c, 2, 59, 64
4, 50520, Note_off_c, 2, 59, 52
4, 50520, Note_on_c, 2, 50, 64
4, 50640, Note_off_c, 2, 50, 50
4, 50640, Note_on_c, 2, 52, 64
4, 50760, Note_off_c, 2, 52, 49
4, 50760, Note_on_c, 2, 54, 64
4, 50880, Note_off_c, 2, 54, 52
4, 50880, Note_on_c, 2, 55, 64
4, 51240, Note_off_c, 2, 55, 63
4, 51240, Note_on_c, 2, 57, 64
4, 51360, Note_off_c, 2, 57, 53
4, 51360, Note_on_c, 2, 59, 64
4, 51960, Note_off_c, 2, 59, 55
4, 51960, Note_on_c, 2, 52, 64
4, 52080, Note_off_c, 2, 52, 43
4, 52080, Note_on_c, 2, 54, 64
4, 52200, Note_off_c, 2, 54, 46
4, 52200, Note_on_c, 2, 55, 64
4, 52320, Note_off_c, 2, 55, 55
4, 52320, Note_on_c, 2, 57, 64
4, 52440, Note_off_c, 2, 57, 59
4, 52440, Note_on_c, 2, 50, 64
4, 52560, Note_off_c, 2, 50, 47
4, 52560, Note_on_c, 2, 52, 64
4, 52680, Note_off_c, 2, 52, 55
4, 52680, Note_on_c, 2, 50, 64
4, 52740, Note_off_c, 2, 50, 51
4, 52740, Note_on_c, 2, 52, 64
4, 52800, Note_off_c, 2, 52, 58
4, 52800, Note_on_c, 2, 54, 64
4, 52860, Note_off_c, 2, 54, 61
4, 52860, Note_on_c, 2, 55, 64
4, 52920, Note_off_c, 2, 55, 62
4, 52920, Note_on_c, 2, 52, 64
4, 52980, Note_off_c, 2, 52, 48
4, 52980, Note_on_c, 2, 54, 64
4, 53040, Note_off_c, 2, 54, 51
4, 53040, Note_on_c, 2, 55, 64
4, 53100, Note_off_c, 2, 55, 52
4, 53100, Note_on_c, 2, 57, 64
4, 53160, Note_off_c, 2, 57, 53
4, 53160, Note_on_c, 2, 54, 64
4, 53220, Note_off_c, 2, 54, 50
4, 53220, Note_on_c, 2, 55, 64
4, 53280, Note_off_c, 2, 55, 61
4, 53280, Note_on_c, 2, 57, 64
4, 53400, Note_off_c, 2, 57, 57
4, 53400, Note_on_c, 2, 59, 64
4, 53460, Note_off_c, 2, 59, 50
4, 53460, Note_on_c, 2, 60, 64
4, 53520, Note_off_c, 2, 60, 55
4, 53520, Note_on_c, 2, 59, 64
4, 53580, Note_off_c, 2, 59, 52
4, 53580, Note_on_c, 2, 60, 64
4, 53640, Note_off_c, 2, 60, 61
4, 53640, Note_on_c, 2, 57, 64
4, 53700, Note_off_c, 2, 57, 43
4, 53700, Note_on_c, 2, 59, 64
4, 53760, Note_off_c, 2, 59, 52
4, 53760, Note_on_c, 2, 60, 64
4, 53880, Note_off_c, 2, 60, 59
4, 53880, Note_on_c, 2, 62, 64
4, 53940, Note_off_c, 2, 62, 50
4, 53940, Note_on_c, 2, 64, 64
4, 54000, Note_off_c, 2, 64, 45
4, 54000, Note_on_c, 2, 62, 64
4, 54120, Note_off_c, 2, 62, 46
4, 54120, Note_on_c, 2, 60, 64
4, 54240, Note_off_c, 2, 60, 52
4, 54240, Note_on_c, 2, 59, 64
4, 54360, Note_off_c, 2, 59, 55
4, 54360, Note_on_c, 2, 56, 64
4, 54480, Note_off_c, 2, 56, 55
4, 54480, Note_on_c, 2, 57, 64
4, 54600, Note_off_c, 2, 57, 46
4, 54600, Note_on_c, 2, 59, 64
4, 54720, Note_off_c, 2, 59, 49
4, 54720, Note_on_c, 2, 60, 64
4, 54840, Note_off_c, 2, 60, 66
4, 54840, Note_on_c, 2, 52, 64
4, 54960, Note_off_c, 2, 52, 50
4, 54960, Note_on_c, 2, 54, 64
4, 55080, Note_off_c, 2, 54, 52
4, 55080, Note_on_c, 2, 56, 64
4, 55200, Note_off_c, 2, 56, 49
4, 55200, Note_on_c, 2, 57, 64
4, 55440, Note_off_c, 2, 57, 52
4, 55560, Note_on_c, 2, 52, 64
4, 55680, Note_off_c, 2, 52, 50
4, 55680, Note_on_c, 2, 53, 64
4, 55800, Note_off_c, 2, 53, 46
4, 55800, Note_on_c, 2, 55, 64
4, 55920, Note_off_c, 2, 55, 63
4, 55920, Note_on_c, 2, 57, 64
4, 56040, Note_off_c, 2, 57, 63
4, 56040, Note_on_c, 2, 58, 64
4, 56160, Note_off_c, 2, 58, 68
4, 56160, Note_on_c, 2, 57, 64
4, 56280, Note_off_c, 2, 57, 48
4, 56280, Note_on_c, 2, 56, 64
4, 56340, Note_off_c, 2, 56, 55
4, 56340, Note_on_c, 2, 54, 64
4, 56400, Note_off_c, 2, 54, 37
4, 56400, Note_on_c, 2, 52, 64
4, 56520, Note_off_c, 2, 52, 49
4, 56520, Note_on_c, 2, 57, 64
4, 56640, Note_off_c, 2, 57, 58
4, 56640, Note_on_c, 2, 53, 64
4, 56760, Note_off_c, 2, 53, 55
4, 56760, Note_on_c, 2, 52, 64
4, 57000, Note_off_c, 2, 52, 39
4, 57000, Note_on_c, 2, 53, 64
4, 57060, Note_off_c, 2, 53, 65
4, 57060, Note_on_c, 2, 51, 64
4, 57120, Note_off_c, 2, 51, 53
4, 57120, Note_on_c, 2, 52, 64
4, 58680, Note_off_c, 2, 52, 48
4, 59160, Note_on_c, 2, 52, 64
4, 59220, Note_off_c, 2, 52, 72
4, 59220, Note_on_c, 2, 53, 64
4, 59280, Note_off_c, 2, 53, 57
4, 59280, Note_on_c, 2, 52, 64
4, 59400, Note_off_c, 2, 52, 61
4, 59400, Note_on_c, 2, 50, 64
4, 59520, Note_off_c, 2, 50, 32
4, 59520, Note_on_c, 2, 49, 64
4, 59640, Note_off_c, 2, 49, 52
4, 59700, Note_on_c, 2, 50, 64
4, 59760, Note_off_c, 2, 50, 62
4, 59760, Note_on_c, 2, 49, 64
4, 59880, Note_off_c, 2, 49, 65
4, 59880, Note_on_c, 2, 46, 64
4, 60000, Note_off_c, 2, 46, 52
4, 60000, Note_on_c, 2, 45, 64
4, 60240, Note_off_c, 2, 45, 66
4, 60360, Note_on_c, 2, 65, 64
4, 60420, Note_off_c, 2, 65, 61
4, 60420, Note_on_c, 2, 64, 64
4, 60480, Note_off_c, 2, 64, 52
4, 60480, Note_on_c, 2, 62, 64
4, 60840, Note_off_c, 2, 62, 46
4, 60840, Note_on_c, 2, 61, 64
4, 60960, Note_off_c, 2, 61, 61
4, 60960, Note_on_c, 2, 62, 64
4, 61080, Note_off_c, 2, 62, 50
4, 61080, Note_on_c, 2, 57, 64
4, 61200, Note_off_c, 2, 57, 47
4, 61560, Note_on_c, 2, 57, 64
4, 61620, Note_off_c, 2, 57, 27
4, 61620, Note_on_c, 2, 56, 64
4, 61680, Note_off_c, 2, 56, 48
4, 61680, Note_on_c, 2, 57, 64
4, 61800, Note_off_c, 2, 57, 46
4, 61800, Note_on_c, 2, 59, 64
4, 61920, Note_off_c, 2, 59, 46
4, 61920, Note_on_c, 2, 60, 64
4, 62040, Note_off_c, 2, 60, 52
4, 62040, Note_on_c, 2, 60, 64
4, 62100, Note_off_c, 2, 60, 65
4, 62100, Note_on_c, 2, 59, 64
4, 62160, Note_off_c, 2, 59, 57
4, 62160, Note_on_c, 2, 60, 64
4, 62280, Note_off_c, 2, 60, 58
4, 62280, Note_on_c, 2, 62, 64
4, 62400, Note_off_c, 2, 62, 46
4, 62400, Note_on_c, 2, 64, 64
4, 62460, Note_off_c, 2, 64, 55
4, 62460, Note_on_c, 2, 62, 64
4, 62520, Note_off_c, 2, 62, 52
4, 62520, Note_on_c, 2, 60, 64
4, 62580, Note_off_c, 2, 60, 52
4, 62580, Note_on_c, 2, 62, 64
4, 62640, Note_off_c, 2, 62, 52
4, 62640, Note_on_c, 2, 64, 64
4, 62760, Note_off_c, 2, 64, 55
4, 62760, Note_on_c, 2, 65, 64
4, 62880, Note_off_c, 2, 65, 62
4, 62880, Note_on_c, 2, 56, 64
4, 63000, Note_off_c, 2, 56, 54
4, 63000, Note_on_c, 2, 52, 64
4, 63120, Note_off_c, 2, 52, 49
4, 63240, Note_on_c, 2, 57, 64
4, 63360, Note_off_c, 2, 57, 51
4, 63360, Note_on_c, 2, 59, 64
4, 63420, Note_off_c, 2, 59, 53
4, 63420, Note_on_c, 2, 60, 64
4, 63480, Note_off_c, 2, 60, 58
4, 63480, Note_on_c, 2, 57, 64
4, 63540, Note_off_c, 2, 57, 50
4, 63540, Note_on_c, 2, 59, 64
4, 63600, Note_off_c, 2, 59, 52
4, 63600, Note_on_c, 2, 60, 64
4, 63660, Note_off_c, 2, 60, 62
4, 63660, Note_on_c, 2, 62, 64
4, 63720, Note_off_c, 2, 62, 41
4, 63720, Note_on_c, 2, 59, 64
4, 63780, Note_off_c, 2, 59, 46
4, 63780, Note_on_c, 2, 61, 64
4, 63840, Note_off_c, 2, 61, 61
4, 63840, Note_on_c, 2, 62, 64
4, 63960, Note_off_c, 2, 62, 57
4, 63960, Note_on_c, 2, 60, 64
4, 64080, Note_off_c, 2, 60, 52
4, 64080, Note_on_c, 2, 59, 64
4, 64200, Note_off_c, 2, 59, 46
4, 64200, Note_on_c, 2, 64, 64
4, 64320, Note_off_c, 2, 64, 46
4, 64920, Note_on_c, 2, 57, 64
4, 64980, Note_off_c, 2, 57, 45
4, 64980, Note_on_c, 2, 58, 64
4, 65040, Note_off_c, 2, 58, 54
4, 65040, Note_on_c, 2, 60, 64
4, 65160, Note_off_c, 2, 60, 65
4, 65160, Note_on_c, 2, 58, 64
4, 65280, Note_off_c, 2, 58, 61
4, 65280, Note_on_c, 2, 57, 64
4, 65400, Note_off_c, 2, 57, 43
4, 65400, Note_on_c, 2, 62, 64
4, 65460, Note_off_c, 2, 62, 51
4, 65460, Note_on_c, 2, 64, 64
4, 65520, Note_off_c, 2, 64, 44
4, 65520, Note_on_c, 2, 65, 64
4, 65580, Note_off_c, 2, 65, 52
4, 65580, Note_on_c, 2, 67, 64
4, 65640, Note_off_c, 2, 67, 50
4, 65640, Note_on_c, 2, 69, 64
4, 65880, Note_off_c, 2, 69, 73
4, 65880, Note_on_c, 2, 67, 64
4, 66120, Note_off_c, 2, 67, 52
4, 66120, Note_on_c, 2, 65, 64
4, 66360, Note_off_c, 2, 65, 53
4, 66360, Note_on_c, 2, 64, 64
4, 66480, Note_off_c, 2, 64, 37
4, 66480, Note_on_c, 2, 62, 64
4, 66780, Note_off_c, 2, 62, 46
4, 66780, Note_on_c, 2, 61, 64
4, 66840, Note_off_c, 2, 61, 61
4, 66840, Note_on_c, 2, 64, 64
4, 66900, Note_off_c, 2, 64, 49
4, 66900, Note_on_c, 2, 62, 64
4, 66960, Note_off_c, 2, 62, 55
4, 66960, Note_on_c, 2, 61, 64
4, 67020, Note_off_c, 2, 61, 61
4, 67020, Note_on_c, 2, 59, 64
4, 67080, Note_off_c, 2, 59, 49
4, 67080, Note_on_c, 2, 62, 64
4, 67140, Note_off_c, 2, 62, 58
4, 67140, Note_on_c, 2, 61, 64
4, 67200, Note_off_c, 2, 61, 63
4, 67200, Note_on_c, 2, 62, 64
4, 67500, Note_off_c, 2, 62, 54
4, 67500, Note_on_c, 2, 59, 64
4, 67560, Note_off_c, 2, 59, 42
4, 67560, Note_on_c, 2, 61, 64
4, 67620, Note_off_c, 2, 61, 63
4, 67620, Note_on_c, 2, 64, 64
4, 67680, Note_off_c, 2, 64, 53
4, 67680, Note_on_c, 2, 65, 64
4, 67980, Note_off_c, 2, 65, 61
4, 67980, Note_on_c, 2, 62, 64
4, 68040, Note_off_c, 2, 62, 49
4, 68040, Note_on_c, 2, 64, 64
4, 68100, Note_off_c, 2, 64, 53
4, 68100, Note_on_c, 2, 67, 64
4, 68160, Note_off_c, 2, 67, 53
4, 68160, Note_on_c, 2, 69, 64
4, 68460, Note_off_c, 2, 69, 69
4, 68460, Note_on_c, 2, 65, 64
4, 68520, Note_off_c, 2, 65, 51
4, 68520, Note_on_c, 2, 67, 64
4, 68580, Note_off_c, 2, 67, 47
4, 68580, Note_on_c, 2, 70, 64
4, 68640, Note_off_c, 2, 70, 63
4, 68640, Note_on_c, 2, 64, 64
4, 68760, Note_off_c, 2, 64, 35
4, 68760, Note_on_c, 2, 65, 64
4, 68880, Note_off_c, 2, 65, 69
4, 68880, Note_on_c, 2, 58, 64
4, 69120, Note_off_c, 2, 58, 68
4, 69120, Note_on_c, 2, 60, 64
4, 69720, Note_off_c, 2, 60, 62
4, 69720, Note_on_c, 2, 48, 64
4, 69840, Note_off_c, 2, 48, 58
4, 69840, Note_on_c, 2, 50, 64
4, 69960, Note_off_c, 2, 50, 62
4, 69960, Note_on_c, 2, 52, 64
4, 70080, Note_off_c, 2, 52, 73
4, 70080, Note_on_c, 2, 53, 64
4, 70200, Note_off_c, 2, 53, 57
4, 70200, Note_on_c, 2, 52, 64
4, 70320, Note_off_c, 2, 52, 54
4, 70320, Note_on_c, 2, 53, 64
4, 70440, Note_off_c, 2, 53, 53
4, 70440, Note_on_c, 2, 55, 64
4, 70560, Note_off_c, 2, 55, 62
4, 70560, Note_on_c, 2, 57, 64
4, 70620, Note_off_c, 2, 57, 62
4, 70620, Note_on_c, 2, 55, 64
4, 70680, Note_off_c, 2, 55, 62
4, 70740, Note_on_c, 2, 55, 64
4, 70800, Note_off_c, 2, 55, 68
4, 70800, Note_on_c, 2, 57, 64
4, 70860, Note_off_c, 2, 57, 49
4, 70860, Note_on_c, 2, 58, 64
4, 70920, Note_off_c, 2, 58, 52
4, 70920, Note_on_c, 2, 60, 64
4, 71040, Note_off_c, 2, 60, 58
4, 71040, Note_on_c, 2, 54, 64
4, 71160, Note_off_c, 2, 54, 59
4, 71160, Note_on_c, 2, 57, 64
4, 71280, Note_off_c, 2, 57, 55
4, 71280, Note_on_c, 2, 55, 64
4, 71400, Note_off_c, 2, 55, 72
4, 71400, Note_on_c, 2, 54, 64
4, 71520, Note_off_c, 2, 54, 58
4, 71520, Note_on_c, 2, 55, 64
4, 71640, Note_off_c, 2, 55, 72
4, 71640, Note_on_c, 2, 53, 64
4, 71760, Note_off_c, 2, 53, 72
4, 71760, Note_on_c, 2, 51, 64
4, 71880, Note_off_c, 2, 51, 62
4, 71880, Note_on_c, 2, 50, 64
4, 72120, Note_off_c, 2, 50, 53
4, 72120, Note_on_c, 2, 55, 64
4, 72180, Note_off_c, 2, 55, 57
4, 72180, Note_on_c, 2, 57, 64
4, 72240, Note_off_c, 2, 57, 52
4, 72240, Note_on_c, 2, 55, 64
4, 72360, Note_off_c, 2, 55, 52
4, 72360, Note_on_c, 2, 53, 64
4, 72480, Note_off_c, 2, 53, 49
4, 72480, Note_on_c, 2, 52, 64
4, 72600, Note_off_c, 2, 52, 45
4, 72600, Note_on_c, 2, 52, 64
4, 72660, Note_off_c, 2, 52, 50
4, 72660, Note_on_c, 2, 53, 64
4, 72720, Note_off_c, 2, 53, 57
4, 72720, Note_on_c, 2, 52, 64
4, 72840, Note_off_c, 2, 52, 69
4, 72840, Note_on_c, 2, 50, 64
4, 72960, Note_off_c, 2, 50, 44
4, 72960, Note_on_c, 2, 49, 64
4, 73020, Note_off_c, 2, 49, 73
4, 73020, Note_on_c, 2, 50, 64
4, 73080, Note_off_c, 2, 50, 59
4, 73080, Note_on_c, 2, 52, 64
4, 73140, Note_off_c, 2, 52, 55
4, 73140, Note_on_c, 2, 50, 64
4, 73200, Note_off_c, 2, 50, 70
4, 73200, Note_on_c, 2, 49, 64
4, 73320, Note_off_c, 2, 49, 57
4, 73320, Note_on_c, 2, 47, 64
4, 73440, Note_off_c, 2, 47, 47
4, 73440, Note_on_c, 2, 57, 64
4, 73560, Note_off_c, 2, 57, 52
4, 73560, Note_on_c, 2, 61, 64
4, 73680, Note_off_c, 2, 61, 70
4, 73800, Note_on_c, 2, 69, 64
4, 73920, Note_off_c, 2, 69, 62
4, 73920, Note_on_c, 2, 70, 64
4, 74100, Note_off_c, 2, 70, 69
4, 74100, Note_on_c, 2, 69, 64
4, 74160, Note_off_c, 2, 69, 74
4, 74160, Note_on_c, 2, 67, 64
4, 74220, Note_off_c, 2, 67, 54
4, 74220, Note_on_c, 2, 65, 64
4, 74280, Note_off_c, 2, 65, 51
4, 74280, Note_on_c, 2, 64, 64
4, 74340, Note_off_c, 2, 64, 49
4, 74340, Note_on_c, 2, 62, 64
4, 74400, Note_off_c, 2, 62, 46
4, 74400, Note_on_c, 2, 61, 64
4, 74640, Note_off_c, 2, 61, 61
4, 74760, Note_on_c, 2, 61, 64
4, 74880, Note_off_c, 2, 61, 65
4, 74880, Note_on_c, 2, 62, 64
4, 75000, Note_off_c, 2, 62, 45
4, 75000, Note_on_c, 2, 65, 64
4, 75120, Note_off_c, 2, 65, 62
4, 75120, Note_on_c, 2, 62, 64
4, 75240, Note_off_c, 2, 62, 59
4, 75240, Note_on_c, 2, 57, 64
4, 75360, Note_off_c, 2, 57, 46
4, 75360, Note_on_c, 2, 58, 64
4, 75480, Note_off_c, 2, 58, 65
4, 75480, Note_on_c, 2, 53, 64
4, 75600, Note_off_c, 2, 53, 47
4, 75600, Note_on_c, 2, 58, 64
4, 75720, Note_off_c, 2, 58, 63
4, 75720, Note_on_c, 2, 62, 64
4, 75840, Note_off_c, 2, 62, 65
4, 75840, Note_on_c, 2, 59, 64
4, 75840, Note_on_c, 2, 64, 64
4, 76080, Note_off_c, 2, 64, 40
4, 76080, Note_off_c, 2, 59, 47
4, 76320, Note_on_c, 2, 60, 64
4, 76320, Note_on_c, 2, 57, 64
4, 76560, Note_off_c, 2, 57, 47
4, 76560, Note_off_c, 2, 60, 52
4, 76800, Note_on_c, 2, 60, 64
4, 76800, Note_on_c, 2, 57, 64
4, 77040, Note_off_c, 2, 57, 42
4, 77040, Note_off_c, 2, 60, 52
4, 77280, Note_on_c, 2, 59, 64
4, 77280, Note_on_c, 2, 62, 64
4, 77520, Note_off_c, 2, 62, 49
4, 77520, Note_off_c, 2, 59, 41
4, 77880, Note_on_c, 2, 59, 64
4, 77940, Note_off_c, 2, 59, 46
4, 77940, Note_on_c, 2, 60, 64
4, 78000, Note_off_c, 2, 60, 59
4, 78240, Note_on_c, 2, 57, 64
4, 78480, Note_off_c, 2, 57, 49
4, 78600, Note_on_c, 2, 59, 64
4, 78720, Note_off_c, 2, 59, 53
4, 78720, Note_on_c, 2, 60, 64
4, 78840, Note_off_c, 2, 60, 57
4, 78840, Note_on_c, 2, 62, 64
4, 78960, Note_off_c, 2, 62, 52
4, 78960, Note_on_c, 2, 60, 64
4, 79080, Note_off_c, 2, 60, 57
4, 79080, Note_on_c, 2, 59, 64
4, 79200, Note_off_c, 2, 59, 34
4, 79200, Note_on_c, 2, 57, 64
4, 79320, Note_off_c, 2, 57, 34
4, 79320, Note_on_c, 2, 57, 64
4, 79380, Note_off_c, 2, 57, 40
4, 79380, Note_on_c, 2, 58, 64
4, 79440, Note_off_c, 2, 58, 61
4, 79440, Note_on_c, 2, 57, 64
4, 79560, Note_off_c, 2, 57, 48
4, 79560, Note_on_c, 2, 55, 64
4, 79680, Note_off_c, 2, 55, 28
4, 79680, Note_on_c, 2, 53, 64
4, 79800, Note_off_c, 2, 53, 44
4, 79800, Note_on_c, 2, 53, 64
4, 79860, Note_off_c, 2, 53, 51
4, 79860, Note_on_c, 2, 55, 64
4, 79920, Note_off_c, 2, 55, 52
4, 79920, Note_on_c, 2, 53, 64
4, 80040, Note_off_c, 2, 53, 27
4, 80040, Note_on_c, 2, 52, 64
4, 80160, Note_off_c, 2, 52, 63
4, 80160, Note_on_c, 2, 50, 64
4, 80220, Note_off_c, 2, 50, 62
4, 80220, Note_on_c, 2, 52, 64
4, 80280, Note_off_c, 2, 52, 65
4, 80280, Note_on_c, 2, 53, 64
4, 80340, Note_off_c, 2, 53, 59
4, 80340, Note_on_c, 2, 52, 64
4, 80400, Note_off_c, 2, 52, 65
4, 80400, Note_on_c, 2, 50, 64
4, 80520, Note_off_c, 2, 50, 45
4, 80520, Note_on_c, 2, 49, 64
4, 80640, Note_off_c, 2, 49, 65
4, 80640, Note_on_c, 2, 50, 64
4, 80760, Note_off_c, 2, 50, 42
4, 80760, Note_on_c, 2, 53, 64
4, 80880, Note_off_c, 2, 53, 59
4, 80880, Note_on_c, 2, 52, 64
4, 81000, Note_off_c, 2, 52, 61
4, 81000, Note_on_c, 2, 50, 64
4, 81120, Note_off_c, 2, 50, 45
4, 81120, Note_on_c, 2, 55, 64
4, 81360, Note_off_c, 2, 55, 59
4, 81480, Note_on_c, 2, 53, 64
4, 81600, Note_off_c, 2, 53, 48
4, 81600, Note_on_c, 2, 52, 64
4, 81840, Note_off_c, 2, 52, 49
4, 81960, Note_on_c, 2, 50, 64
4, 82080, Note_off_c, 2, 50, 58
4, 82080, Note_on_c, 2, 59, 64
4, 82440, Note_on_c, 2, 62, 64
4, 82500, Note_off_c, 2, 62, 57
4, 82500, Note_on_c, 2, 64, 64
4, 82560, Note_off_c, 2, 64, 50
4, 82560, Note_off_c, 2, 59, 62
4, 82560, Note_on_c, 2, 65, 64
4, 82560, Note_on_c, 2, 57, 64
4, 82680, Note_off_c, 2, 65, 1
4, 82680, Note_on_c, 2, 61, 64
4, 82680, Note_on_c, 2, 64, 64
4, 82740, Note_off_c, 2, 64, 1
4, 82740, Note_off_c, 2, 61, 57
4, 82740, Note_on_c, 2, 62, 64
4, 82740, Note_on_c, 2, 59, 64
4, 82800, Note_off_c, 2, 59, 27
4, 82800, Note_off_c, 2, 62, 61
4, 82800, Note_on_c, 2, 61, 64
4, 82800, Note_on_c, 2, 64, 64
4, 82920, Note_off_c, 2, 64, 34
4, 82920, Note_off_c, 2, 61, 61
4, 82920, Note_on_c, 2, 62, 64
4, 82920, Note_on_c, 2, 65, 64
4, 83040, Note_off_c, 2, 65, 35
4, 83040, Note_off_c, 2, 62, 54
4, 83040, Note_on_c, 2, 64, 64
4, 83520, Note_off_c, 2, 64, 62
4, 83520, Note_off_c, 2, 57, 59
4, 83520, End_track
5, 0, Start_track
5, 0, Text_t, "LH L"
5, 6840, Note_on_c, 3, 45, 64
5, 6900, Note_off_c, 3, 45, 43
5, 6900, Note_on_c, 3, 44, 64
5, 6960, Note_off_c, 3, 44, 52
5, 6960, Note_on_c, 3, 45, 64
5, 7080, Note_off_c, 3, 45, 36
5, 7080, Note_on_c, 3, 47, 64
5, 7200, Note_off_c, 3, 47, 45
5, 7200, Note_on_c, 3, 48, 64
5, 7320, Note_off_c, 3, 48, 54
5, 7320, Note_on_c, 3, 48, 64
5, 7380, Note_off_c, 3, 48, 55
5, 7380, Note_on_c, 3, 47, 64
5, 7440, Note_off_c, 3, 47, 52
5, 7440, Note_on_c, 3, 48, 64
5, 7560, Note_off_c, 3, 48, 52
5, 7560, Note_on_c, 3, 50, 64
5, 7680, Note_off_c, 3, 50, 49
5, 7680, Note_on_c, 3, 52, 64
5, 7740, Note_off_c, 3, 52, 72
5, 7740, Note_on_c, 3, 50, 64
5, 7800, Note_off_c, 3, 50, 66
5, 7800, Note_on_c, 3, 48, 64
5, 7860, Note_off_c, 3, 48, 46
5, 7860, Note_on_c, 3, 50, 64
5, 7920, Note_off_c, 3, 50, 54
5, 7920, Note_on_c, 3, 52, 64
5, 8040, Note_off_c, 3, 52, 59
5, 8040, Note_on_c, 3, 53, 64
5, 8160, Note_off_c, 3, 53, 54
5, 8160, Note_on_c, 3, 44, 64
5, 8280, Note_off_c, 3, 44, 59
5, 8280, Note_on_c, 3, 40, 64
5, 8400, Note_off_c, 3, 40, 37
5, 8520, Note_on_c, 3, 45, 64
5, 8640, Note_off_c, 3, 45, 34
5, 8640, Note_on_c, 3, 47, 64
5, 8700, Note_off_c, 3, 47, 46
5, 8700, Note_on_c, 3, 48, 64
5, 8760, Note_off_c, 3, 48, 54
5, 8760, Note_on_c, 3, 45, 64
5, 8820, Note_off_c, 3, 45, 44
5, 8820, Note_on_c, 3, 47, 64
5, 8880, Note_off_c, 3, 47, 49
5, 8880, Note_on_c, 3, 49, 64
5, 8940, Note_off_c, 3, 49, 58
5, 8940, Note_on_c, 3, 50, 64
5, 9000, Note_off_c, 3, 50, 52
5, 9000, Note_on_c, 3, 47, 64
5, 9060, Note_off_c, 3, 47, 46
5, 9060, Note_on_c, 3, 49, 64
5, 9120, Note_off_c, 3, 49, 62
5, 9120, Note_on_c, 3, 50, 64
5, 9240, Note_off_c, 3, 50, 51
5, 9240, Note_on_c, 3, 48, 64
5, 9360, Note_off_c, 3, 48, 46
5, 9360, Note_on_c, 3, 47, 64
5, 9480, Note_off_c, 3, 47, 37
5, 9480, Note_on_c, 3, 52, 64
5, 9600, Note_off_c, 3, 52, 59
5, 9600, Note_on_c, 3, 45, 64
5, 9720, Note_off_c, 3, 45, 38
5, 9720, Note_on_c, 3, 47, 64
5, 9840, Note_off_c, 3, 47, 53
5, 9840, Note_on_c, 3, 49, 64
5, 9960, Note_off_c, 3, 49, 70
5, 9960, Note_on_c, 3, 51, 64
5, 10080, Note_off_c, 3, 51, 43
5, 10080, Note_on_c, 3, 52, 64
5, 10200, Note_off_c, 3, 52, 48
5, 10200, Note_on_c, 3, 52, 64
5, 10260, Note_off_c, 3, 52, 53
5, 10260, Note_on_c, 3, 50, 64
5, 10320, Note_off_c, 3, 50, 52
5, 10320, Note_on_c, 3, 52, 64
5, 10440, Note_off_c, 3, 52, 72
5, 10440, Note_on_c, 3, 54, 64
5, 10560, Note_off_c, 3, 54, 42
5, 10560, Note_on_c, 3, 55, 64
5, 10800, Note_off_c, 3, 55, 58
5, 10920, Note_on_c, 3, 57, 64
5, 11040, Note_off_c, 3, 57, 43
5, 11040, Note_on_c, 3, 59, 64
5, 11160, Note_off_c, 3, 59, 30
5, 11160, Note_on_c, 3, 47, 64
5, 11220, Note_off_c, 3, 47, 22
5, 11220, Note_on_c, 3, 45, 64
5, 11280, Note_off_c, 3, 45, 49
5, 11280, Note_on_c, 3, 43, 64
5, 11400, Note_off_c, 3, 43, 47
5, 11400, Note_on_c, 3, 40, 64
5, 11520, Note_off_c, 3, 40, 52
5, 11520, Note_on_c, 3, 45, 64
5, 11760, Note_off_c, 3, 45, 55
5, 11760, Note_on_c, 3, 47, 64
5, 12000, Note_off_c, 3, 47, 47
5, 12000, Note_on_c, 3, 48, 64
5, 12120, Note_off_c, 3, 48, 57
5, 12120, Note_on_c, 3, 47, 64
5, 12240, Note_off_c, 3, 47, 52
5, 12240, Note_on_c, 3, 45, 64
5, 12360, Note_off_c, 3, 45, 52
5, 12360, Note_on_c, 3, 47, 64
5, 12420, Note_off_c, 3, 47, 52
5, 12420, Note_on_c, 3, 45, 64
5, 12480, Note_off_c, 3, 45, 57
5, 12480, Note_on_c, 3, 43, 64
5, 12600, Note_off_c, 3, 43, 53
5, 12600, Note_on_c, 3, 45, 64
5, 12720, Note_off_c, 3, 45, 51
5, 12720, Note_on_c, 3, 47, 64
5, 12960, Note_off_c, 3, 47, 61
5, 12960, Note_on_c, 3, 52, 64
5, 13080, Note_off_c, 3, 52, 63
5, 13080, Note_on_c, 3, 50, 64
5, 13200, Note_off_c, 3, 50, 52
5, 13200, Note_on_c, 3, 48, 64
5, 13320, Note_off_c, 3, 48, 54
5, 13320, Note_on_c, 3, 47, 64
5, 13440, Note_off_c, 3, 47, 52
5, 13440, Note_on_c, 3, 45, 64
5, 13560, Note_off_c, 3, 45, 46
5, 13560, Note_on_c, 3, 59, 64
5, 13680, Note_off_c, 3, 59, 49
5, 13680, Note_on_c, 3, 57, 64
5, 13800, Note_off_c, 3, 57, 57
5, 13800, Note_on_c, 3, 55, 64
5, 13920, Note_off_c, 3, 55, 59
5, 13920, Note_on_c, 3, 54, 64
5, 14040, Note_off_c, 3, 54, 52
5, 14040, Note_on_c, 3, 55, 64
5, 14160, Note_off_c, 3, 55, 66
5, 14160, Note_on_c, 3, 54, 64
5, 14280, Note_off_c, 3, 54, 54
5, 14280, Note_on_c, 3, 52, 64
5, 14400, Note_off_c, 3, 52, 50
5, 14400, Note_on_c, 3, 50, 64
5, 14520, Note_off_c, 3, 50, 50
5, 14520, Note_on_c, 3, 52, 64
5, 14640, Note_off_c, 3, 52, 58
5, 14640, Note_on_c, 3, 50, 64
5, 14760, Note_off_c, 3, 50, 52
5, 14760, Note_on_c, 3, 48, 64
5, 14880, Note_off_c, 3, 48, 28
5, 14880, Note_on_c, 3, 47, 64
5, 15000, Note_off_c, 3, 47, 32
5, 15000, Note_on_c, 3, 55, 64
5, 15240, Note_off_c, 3, 55, 52
5, 15240, Note_on_c, 3, 54, 64
5, 15360, Note_off_c, 3, 54, 50
5, 15420, Note_on_c, 3, 52, 64
5, 15480, Note_off_c, 3, 52, 54
5, 15480, Note_on_c, 3, 50, 64
5, 15540, Note_off_c, 3, 50, 52
5, 15540, Note_on_c, 3, 48, 64
5, 15600, Note_off_c, 3, 48, 40
5, 15600, Note_on_c, 3, 47, 64
5, 15720, Note_off_c, 3, 47, 43
5, 15720, Note_on_c, 3, 52, 64
5, 15840, Note_off_c, 3, 52, 76
5, 15840, Note_on_c, 3, 48, 64
5, 15960, Note_off_c, 3, 48, 44
5, 15960, Note_on_c, 3, 45, 64
5, 16080, Note_off_c, 3, 45, 36
5, 16080, Note_on_c, 3, 50, 64
5, 16200, Note_off_c, 3, 50, 72
5, 16200, Note_on_c, 3, 38, 64
5, 16320, Note_off_c, 3, 38, 39
5, 16320, Note_on_c, 3, 43, 64
5, 16440, Note_off_c, 3, 43, 55
5, 19320, Note_on_c, 3, 57, 64
5, 19380, Note_off_c, 3, 57, 49
5, 19380, Note_on_c, 3, 58, 64
5, 19440, Note_off_c, 3, 58, 46
5, 19560, Note_on_c, 3, 55, 64
5, 19680, Note_off_c, 3, 55, 52
5, 19680, Note_on_c, 3, 53, 64
5, 19800, Note_off_c, 3, 53, 41
5, 19800, Note_on_c, 3, 53, 64
5, 19860, Note_off_c, 3, 53, 47
5, 19860, Note_on_c, 3, 55, 64
5, 19920, Note_off_c, 3, 55, 54
5, 19920, Note_on_c, 3, 53, 64
5, 20040, Note_off_c, 3, 53, 43
5, 20040, Note_on_c, 3, 52, 64
5, 20160, Note_off_c, 3, 52, 55
5, 20160, Note_on_c, 3, 50, 64
5, 20220, Note_off_c, 3, 50, 51
5, 20220, Note_on_c, 3, 52, 64
5, 20280, Note_off_c, 3, 52, 59
5, 20280, Note_on_c, 3, 53, 64
5, 20340, Note_off_c, 3, 53, 58
5, 20340, Note_on_c, 3, 52, 64
5, 20400, Note_off_c, 3, 52, 62
5, 20400, Note_on_c, 3, 50, 64
5, 20520, Note_off_c, 3, 50, 26
5, 20520, Note_on_c, 3, 48, 64
5, 20640, Note_off_c, 3, 48, 36
5, 20640, Note_on_c, 3, 59, 64
5, 20760, Note_off_c, 3, 59, 54
5, 20760, Note_on_c, 3, 62, 64
5, 20880, Note_off_c, 3, 62, 46
5, 21000, Note_on_c, 3, 57, 64
5, 21120, Note_off_c, 3, 57, 46
5, 21120, Note_on_c, 3, 55, 64
5, 21180, Note_off_c, 3, 55, 51
5, 21180, Note_on_c, 3, 53, 64
5, 21240, Note_off_c, 3, 53, 49
5, 21240, Note_on_c, 3, 57, 64
5, 21300, Note_off_c, 3, 57, 52
5, 21300, Note_on_c, 3, 55, 64
5, 21360, Note_off_c, 3, 55, 63
5, 21360, Note_on_c, 3, 53, 64
5, 21420, Note_off_c, 3, 53, 63
5, 21420, Note_on_c, 3, 52, 64
5, 21480, Note_off_c, 3, 52, 48
5, 21480, Note_on_c, 3, 55, 64
5, 21540, Note_off_c, 3, 55, 65
5, 21540, Note_on_c, 3, 53, 64
5, 21600, Note_off_c, 3, 53, 52
5, 21600, Note_on_c, 3, 52, 64
5, 21720, Note_off_c, 3, 52, 52
5, 21720, Note_on_c, 3, 53, 64
5, 21840, Note_off_c, 3, 53, 48
5, 21840, Note_on_c, 3, 55, 64
5, 21900, Note_off_c, 3, 55, 61
5, 21900, Note_on_c, 3, 52, 64
5, 21960, Note_off_c, 3, 52, 65
5, 21960, Note_on_c, 3, 50, 64
5, 22020, Note_off_c, 3, 50, 55
5, 22020, Note_on_c, 3, 48, 64
5, 22080, Note_off_c, 3, 48, 37
5, 22080, Note_on_c, 3, 53, 64
5, 22140, Note_off_c, 3, 53, 58
5, 22140, Note_on_c, 3, 52, 64
5, 22200, Note_off_c, 3, 52, 63
5, 22200, Note_on_c, 3, 50, 64
5, 22260, Note_off_c, 3, 50, 52
5, 22260, Note_on_c, 3, 48, 64
5, 22320, Note_off_c, 3, 48, 30
5, 22320, Note_on_c, 3, 50, 64
5, 22380, Note_off_c, 3, 50, 49
5, 22380, Note_on_c, 3, 52, 64
5, 22440, Note_off_c, 3, 52, 55
5, 22440, Note_on_c, 3, 53, 64
5, 22500, Note_off_c, 3, 53, 52
5, 22500, Note_on_c, 3, 50, 64
5, 22560, Note_off_c, 3, 50, 52
5, 22560, Note_on_c, 3, 47, 64
5, 22800, Note_off_c, 3, 47, 32
5, 22800, Note_on_c, 3, 48, 64
5, 22920, Note_off_c, 3, 48, 43
5, 22920, Note_on_c, 3, 50, 64
5, 23160, Note_off_c, 3, 50, 49
5, 23160, Note_on_c, 3, 52, 64
5, 23280, Note_off_c, 3, 52, 59
5, 23280, Note_on_c, 3, 50, 64
5, 23400, Note_off_c, 3, 50, 52
5, 23400, Note_on_c, 3, 48, 64
5, 23520, Note_off_c, 3, 48, 35
5, 23520, Note_on_c, 3, 47, 64
5, 23640, Note_off_c, 3, 47, 30
5, 23640, Note_on_c, 3, 50, 64
5, 23700, Note_off_c, 3, 50, 61
5, 23700, Note_on_c, 3, 48, 64
5, 23760, Note_off_c, 3, 48, 46
5, 23760, Note_on_c, 3, 47, 64
5, 23880, Note_off_c, 3, 47, 47
5, 23880, Note_on_c, 3, 45, 64
5, 24000, Note_off_c, 3, 45, 66
5, 24000, Note_on_c, 3, 44, 64
5, 24120, Note_off_c, 3, 44, 54
5, 24120, Note_on_c, 3, 45, 64
5, 24240, Note_off_c, 3, 45, 53
5, 24240, Note_on_c, 3, 47, 64
5, 24360, Note_off_c, 3, 47, 61
5, 24360, Note_on_c, 3, 44, 64
5, 24480, Note_off_c, 3, 44, 54
5, 24480, Note_on_c, 3, 45, 64
5, 24600, Note_off_c, 3, 45, 58
5, 24600, Note_on_c, 3, 47, 64
5, 24720, Note_off_c, 3, 47, 52
5, 24720, Note_on_c, 3, 48, 64
5, 24840, Note_off_c, 3, 48, 46
5, 24960, Note_on_c, 3, 50, 64
5, 25080, Note_off_c, 3, 50, 51
5, 25080, Note_on_c, 3, 47, 64
5, 25200, Note_off_c, 3, 47, 48
5, 25320, Note_on_c, 3, 40, 64
5, 25440, Note_off_c, 3, 40, 37
5, 25440, Note_on_c, 3, 45, 64
5, 25560, Note_off_c, 3, 45, 39
5, 25560, Note_on_c, 3, 57, 64
5, 25680, Note_off_c, 3, 57, 44
5, 25680, Note_on_c, 3, 48, 64
5, 25800, Note_off_c, 3, 48, 50
5, 25800, Note_on_c, 3, 52, 64
5, 25920, Note_off_c, 3, 52, 59
5, 25920, Note_on_c, 3, 45, 64
5, 26040, Note_off_c, 3, 45, 35
5, 26040, Note_on_c, 3, 53, 64
5, 26160, Note_off_c, 3, 53, 62
5, 26160, Note_on_c, 3, 52, 64
5, 26280, Note_off_c, 3, 52, 61
5, 26280, Note_on_c, 3, 50, 64
5, 26400, Note_off_c, 3, 50, 68
5, 26400, Note_on_c, 3, 48, 64
5, 26520, Note_off_c, 3, 48, 38
5, 26520, Note_on_c, 3, 57, 64
5, 26640, Note_off_c, 3, 57, 46
5, 26640, Note_on_c, 3, 55, 64
5, 26760, Note_off_c, 3, 55, 62
5, 26760, Note_on_c, 3, 53, 64
5, 26880, Note_off_c, 3, 53, 63
5, 26880, Note_on_c, 3, 52, 64
5, 27000, Note_off_c, 3, 52, 45
5, 27000, Note_on_c, 3, 57, 64
5, 27060, Note_off_c, 3, 57, 52
5, 27060, Note_on_c, 3, 55, 64
5, 27120, Note_off_c, 3, 55, 59
5, 27120, Note_on_c, 3, 53, 64
5, 27180, Note_off_c, 3, 53, 50
5, 27180, Note_on_c, 3, 52, 64
5, 27240, Note_off_c, 3, 52, 62
5, 27240, Note_on_c, 3, 50, 64
5, 27300, Note_off_c, 3, 50, 66
5, 27300, Note_on_c, 3, 48, 64
5, 27360, Note_off_c, 3, 48, 17
5, 27360, Note_on_c, 3, 47, 64
5, 27480, Note_off_c, 3, 47, 53
5, 27480, Note_on_c, 3, 60, 64
5, 27540, Note_off_c, 3, 60, 63
5, 27540, Note_on_c, 3, 59, 64
5, 27600, Note_off_c, 3, 59, 51
5, 27600, Note_on_c, 3, 57, 64
5, 27660, Note_off_c, 3, 57, 47
5, 27660, Note_on_c, 3, 55, 64
5, 27720, Note_off_c, 3, 55, 43
5, 27720, Note_on_c, 3, 53, 64
5, 27780, Note_off_c, 3, 53, 36
5, 27780, Note_on_c, 3, 52, 64
5, 27840, Note_off_c, 3, 52, 49
5, 27840, Note_on_c, 3, 50, 64
5, 27960, Note_off_c, 3, 50, 47
5, 28080, Note_on_c, 3, 52, 64
5, 28200, Note_off_c, 3, 52, 55
5, 28320, Note_on_c, 3, 53, 64
5, 28440, Note_off_c, 3, 53, 55
5, 28440, Note_on_c, 3, 52, 64
5, 28560, Note_off_c, 3, 52, 49
5, 28560, Note_on_c, 3, 50, 64
5, 28680, Note_off_c, 3, 50, 30
5, 28680, Note_on_c, 3, 52, 64
5, 28800, Note_off_c, 3, 52, 50
5, 28800, Note_on_c, 3, 48, 64
5, 28920, Note_off_c, 3, 48, 50
5, 28920, Note_on_c, 3, 47, 64
5, 29040, Note_off_c, 3, 47, 37
5, 29040, Note_on_c, 3, 48, 64
5, 29160, Note_off_c, 3, 48, 49
5, 29160, Note_on_c, 3, 45, 64
5, 29280, Note_off_c, 3, 45, 15
5, 29280, Note_on_c, 3, 47, 64
5, 29640, Note_off_c, 3, 47, 52
5, 29640, Note_on_c, 3, 45, 64
5, 29760, Note_off_c, 3, 45, 37
5, 29760, Note_on_c, 3, 43, 64
5, 29880, Note_off_c, 3, 43, 11
5, 29880, Note_on_c, 3, 52, 64
5, 29940, Note_off_c, 3, 52, 54
5, 29940, Note_on_c, 3, 51, 64
5, 30000, Note_off_c, 3, 51, 51
5, 30000, Note_on_c, 3, 52, 64
5, 30120, Note_off_c, 3, 52, 53
5, 30120, Note_on_c, 3, 54, 64
5, 30240, Note_off_c, 3, 54, 51
5, 30240, Note_on_c, 3, 55, 64
5, 30360, Note_off_c, 3, 55, 61
5, 30360, Note_on_c, 3, 55, 64
5, 30420, Note_off_c, 3, 55, 59
5, 30420, Note_on_c, 3, 54, 64
5, 30480, Note_off_c, 3, 54, 43
5, 30480, Note_on_c, 3, 55, 64
5, 30600, Note_off_c, 3, 55, 45
5, 30600, Note_on_c, 3, 57, 64
5, 30720, Note_off_c, 3, 57, 39
5, 30720, Note_on_c, 3, 59, 64
5, 30780, Note_off_c, 3, 59, 53
5, 30780, Note_on_c, 3, 57, 64
5, 30840, Note_off_c, 3, 57, 49
5, 30840, Note_on_c, 3, 55, 64
5, 30900, Note_off_c, 3, 55, 46
5, 30900, Note_on_c, 3, 57, 64
5, 30960, Note_off_c, 3, 57, 42
5, 30960, Note_on_c, 3, 59, 64
5, 31080, Note_off_c, 3, 59, 53
5, 31080, Note_on_c, 3, 60, 64
5, 31200, Note_off_c, 3, 60, 55
5, 31200, Note_on_c, 3, 51, 64
5, 31320, Note_off_c, 3, 51, 52
5, 31320, Note_on_c, 3, 47, 64
5, 31440, Note_off_c, 3, 47, 37
5, 31560, Note_on_c, 3, 52, 64
5, 31680, Note_off_c, 3, 52, 54
5, 31680, Note_on_c, 3, 54, 64
5, 31740, Note_off_c, 3, 54, 53
5, 31740, Note_on_c, 3, 55, 64
5, 31800, Note_off_c, 3, 55, 61
5, 31800, Note_on_c, 3, 52, 64
5, 31860, Note_off_c, 3, 52, 58
5, 31860, Note_on_c, 3, 54, 64
5, 31920, Note_off_c, 3, 54, 51
5, 31920, Note_on_c, 3, 55, 64
5, 31980, Note_off_c, 3, 55, 49
5, 31980, Note_on_c, 3, 57, 64
5, 32040, Note_off_c, 3, 57, 48
5, 32040, Note_on_c, 3, 54, 64
5, 32100, Note_off_c, 3, 54, 45
5, 32100, Note_on_c, 3, 55, 64
5, 32160, Note_off_c, 3, 55, 49
5, 32160, Note_on_c, 3, 57, 64
5, 32280, Note_off_c, 3, 57, 57
5, 32280, Note_on_c, 3, 55, 64
5, 32400, Note_off_c, 3, 55, 54
5, 32400, Note_on_c, 3, 54, 64
5, 32520, Note_off_c, 3, 54, 49
5, 32520, Note_on_c, 3, 59, 64
5, 32640, Note_off_c, 3, 59, 48
5, 32640, Note_on_c, 3, 52, 64
5, 32760, Note_off_c, 3, 52, 57
5, 32760, Note_on_c, 3, 52, 64
5, 32820, Note_off_c, 3, 52, 76
5, 32820, Note_on_c, 3, 51, 64
5, 32880, Note_off_c, 3, 51, 63
5, 32880, Note_on_c, 3, 52, 64
5, 33000, Note_off_c, 3, 52, 52
5, 33000, Note_on_c, 3, 54, 64
5, 33120, Note_off_c, 3, 54, 54
5, 33120, Note_on_c, 3, 55, 64
5, 33720, Note_off_c, 3, 55, 57
5, 33720, Note_on_c, 3, 54, 64
5, 33780, Note_off_c, 3, 54, 57
5, 33780, Note_on_c, 3, 52, 64
5, 33840, Note_off_c, 3, 52, 47
5, 33840, Note_on_c, 3, 54, 64
5, 33960, Note_off_c, 3, 54, 53
5, 33960, Note_on_c, 3, 56, 64
5, 34080, Note_off_c, 3, 56, 57
5, 34080, Note_on_c, 3, 57, 64
5, 34200, Note_off_c, 3, 57, 49
5, 34680, Note_on_c, 3, 57, 64
5, 34800, Note_off_c, 3, 57, 52
5, 34800, Note_on_c, 3, 55, 64
5, 34920, Note_off_c, 3, 55, 51
5, 34920, Note_on_c, 3, 53, 64
5, 35040, Note_off_c, 3, 53, 42
5, 35040, Note_on_c, 3, 52, 64
5, 35280, Note_off_c, 3, 52, 52
5, 35640, Note_on_c, 3, 45, 64
5, 35700, Note_off_c, 3, 45, 53
5, 35700, Note_on_c, 3, 47, 64
5, 35760, Note_off_c, 3, 47, 61
5, 35760, Note_on_c, 3, 48, 64
5, 35880, Note_off_c, 3, 48, 57
5, 35880, Note_on_c, 3, 50, 64
5, 36120, Note_off_c, 3, 50, 55
5, 36120, Note_on_c, 3, 48, 64
5, 36180, Note_off_c, 3, 48, 47
5, 36180, Note_on_c, 3, 50, 64
5, 36240, Note_off_c, 3, 50, 54
5, 36240, Note_on_c, 3, 52, 64
5, 36360, Note_off_c, 3, 52, 55
5, 36360, Note_on_c, 3, 53, 64
5, 36600, Note_off_c, 3, 53, 54
5, 36600, Note_on_c, 3, 52, 64
5, 36660, Note_off_c, 3, 52, 63
5, 36660, Note_on_c, 3, 50, 64
5, 36720, Note_off_c, 3, 50, 55
5, 36720, Note_on_c, 3, 52, 64
5, 36840, Note_off_c, 3, 52, 63
5, 36840, Note_on_c, 3, 48, 64
5, 36960, Note_off_c, 3, 48, 43
5, 36960, Note_on_c, 3, 53, 64
5, 37080, Note_off_c, 3, 53, 54
5, 37080, Note_on_c, 3, 52, 64
5, 37140, Note_off_c, 3, 52, 65
5, 37140, Note_on_c, 3, 50, 64
5, 37200, Note_off_c, 3, 50, 50
5, 37200, Note_on_c, 3, 52, 64
5, 37260, Note_off_c, 3, 52, 52
5, 37260, Note_on_c, 3, 53, 64
5, 37320, Note_off_c, 3, 53, 54
5, 37320, Note_on_c, 3, 52, 64
5, 37380, Note_off_c, 3, 52, 62
5, 37380, Note_on_c, 3, 50, 64
5, 37440, Note_off_c, 3, 50, 40
5, 37440, Note_on_c, 3, 49, 64
5, 37560, Note_off_c, 3, 49, 47
5, 37560, Note_on_c, 3, 45, 64
5, 37680, Note_off_c, 3, 45, 42
5, 37680, Note_on_c, 3, 50, 64
5, 37800, Note_off_c, 3, 50, 51
5, 37800, Note_on_c, 3, 48, 64
5, 37920, Note_off_c, 3, 48, 61
5, 37920, Note_on_c, 3, 47, 64
5, 38040, Note_off_c, 3, 47, 61
5, 38040, Note_on_c, 3, 43, 64
5, 38160, Note_off_c, 3, 43, 35
5, 38160, Note_on_c, 3, 48, 64
5, 38280, Note_off_c, 3, 48, 52
5, 38280, Note_on_c, 3, 47, 64
5, 38400, Note_off_c, 3, 47, 48
5, 38400, Note_on_c, 3, 45, 64
5, 38520, Note_off_c, 3, 45, 47
5, 38520, Note_on_c, 3, 47, 64
5, 38580, Note_off_c, 3, 47, 58
5, 38580, Note_on_c, 3, 48, 64
5, 38640, Note_off_c, 3, 48, 49
5, 38640, Note_on_c, 3, 47, 64
5, 38760, Note_off_c, 3, 47, 50
5, 38760, Note_on_c, 3, 43, 64
5, 38880, Note_off_c, 3, 43, 40
5, 38880, Note_on_c, 3, 48, 64
5, 39120, Note_off_c, 3, 48, 52
5, 39240, Note_on_c, 3, 47, 64
5, 39360, Note_off_c, 3, 47, 49
5, 39360, Note_on_c, 3, 45, 64
5, 39600, Note_off_c, 3, 45, 54
5, 39720, Note_on_c, 3, 43, 64
5, 39840, Note_off_c, 3, 43, 40
5, 39840, Note_on_c, 3, 41, 64
5, 39900, Note_off_c, 3, 41, 43
5, 39900, Note_on_c, 3, 55, 64
5, 39960, Note_off_c, 3, 55, 46
5, 39960, Note_on_c, 3, 53, 64
5, 40020, Note_off_c, 3, 53, 69
5, 40020, Note_on_c, 3, 52, 64
5, 40080, Note_off_c, 3, 52, 69
5, 40080, Note_on_c, 3, 50, 64
5, 40140, Note_off_c, 3, 50, 69
5, 40140, Note_on_c, 3, 48, 64
5, 40200, Note_off_c, 3, 48, 42
5, 40200, Note_on_c, 3, 47, 64
5, 40260, Note_off_c, 3, 47, 46
5, 40260, Note_on_c, 3, 45, 64
5, 40320, Note_off_c, 3, 45, 49
5, 40320, Note_on_c, 3, 43, 64
5, 40440, Note_off_c, 3, 43, 43
5, 40440, Note_on_c, 3, 55, 64
5, 40560, Note_off_c, 3, 55, 40
5, 40560, Note_on_c, 3, 57, 64
5, 40680, Note_off_c, 3, 57, 42
5, 40680, Note_on_c, 3, 53, 64
5, 40800, Note_off_c, 3, 53, 38
5, 40920, Note_on_c, 3, 48, 64
5, 40980, Note_off_c, 3, 48, 52
5, 40980, Note_on_c, 3, 47, 64
5, 41040, Note_off_c, 3, 47, 43
5, 41040, Note_on_c, 3, 48, 64
5, 41160, Note_off_c, 3, 48, 68
5, 41160, Note_on_c, 3, 50, 64
5, 41280, Note_off_c, 3, 50, 66
5, 41280, Note_on_c, 3, 52, 64
5, 41400, Note_off_c, 3, 52, 63
5, 41400, Note_on_c, 3, 52, 64
5, 41460, Note_off_c, 3, 52, 66
5, 41460, Note_on_c, 3, 50, 64
5, 41520, Note_off_c, 3, 50, 69
5, 41520, Note_on_c, 3, 52, 64
5, 41640, Note_off_c, 3, 52, 52
5, 41640, Note_on_c, 3, 54, 64
5, 41760, Note_off_c, 3, 54, 51
5, 41760, Note_on_c, 3, 55, 64
5, 41820, Note_off_c, 3, 55, 61
5, 41820, Note_on_c, 3, 53, 64
5, 41880, Note_off_c, 3, 53, 54
5, 41880, Note_on_c, 3, 52, 64
5, 41940, Note_off_c, 3, 52, 61
5, 41940, Note_on_c, 3, 53, 64
5, 42000, Note_off_c, 3, 53, 48
5, 42000, Note_on_c, 3, 55, 64
5, 42120, Note_off_c, 3, 55, 52
5, 42120, Note_on_c, 3, 57, 64
5, 42240, Note_off_c, 3, 57, 63
5, 42240, Note_on_c, 3, 47, 64
5, 42360, Note_off_c, 3, 47, 58
5, 42360, Note_on_c, 3, 43, 64
5, 42480, Note_off_c, 3, 43, 37
5, 42600, Note_on_c, 3, 48, 64
5, 42720, Note_off_c, 3, 48, 47
5, 42720, Note_on_c, 3, 50, 64
5, 42780, Note_off_c, 3, 50, 51
5, 42780, Note_on_c, 3, 52, 64
5, 42840, Note_off_c, 3, 52, 57
5, 42840, Note_on_c, 3, 48, 64
5, 42900, Note_off_c, 3, 48, 52
5, 42900, Note_on_c, 3, 50, 64
5, 42960, Note_off_c, 3, 50, 49
5, 42960, Note_on_c, 3, 52, 64
5, 43020, Note_off_c, 3, 52, 66
5, 43020, Note_on_c, 3, 53, 64
5, 43080, Note_off_c, 3, 53, 58
5, 43080, Note_on_c, 3, 50, 64
5, 43140, Note_off_c, 3, 50, 50
5, 43140, Note_on_c, 3, 52, 64
5, 43200, Note_off_c, 3, 52, 53
5, 43200, Note_on_c, 3, 53, 64
5, 43320, Note_off_c, 3, 53, 66
5, 43320, Note_on_c, 3, 52, 64
5, 43440, Note_off_c, 3, 52, 63
5, 43440, Note_on_c, 3, 50, 64
5, 43560, Note_off_c, 3, 50, 39
5, 43560, Note_on_c, 3, 55, 64
5, 43680, Note_off_c, 3, 55, 61
5, 43680, Note_on_c, 3, 48, 64
5, 43800, Note_off_c, 3, 48, 46
5, 43800, Note_on_c, 3, 50, 64
5, 43860, Note_off_c, 3, 50, 63
5, 43860, Note_on_c, 3, 52, 64
5, 43920, Note_off_c, 3, 52, 66
5, 43920, Note_on_c, 3, 53, 64
5, 44400, Note_off_c, 3, 53, 59
5, 44400, Note_on_c, 3, 52, 64
5, 44520, Note_off_c, 3, 52, 51
5, 44520, Note_on_c, 3, 57, 64
5, 44640, Note_off_c, 3, 57, 65
5, 44640, Note_on_c, 3, 50, 64
5, 44760, Note_off_c, 3, 50, 43
5, 44760, Note_on_c, 3, 52, 64
5, 44820, Note_off_c, 3, 52, 52
5, 44820, Note_on_c, 3, 53, 64
5, 44880, Note_off_c, 3, 53, 49
5, 44880, Note_on_c, 3, 55, 64
5, 45000, Note_off_c, 3, 55, 59
5, 45000, Note_on_c, 3, 43, 64
5, 45120, Note_off_c, 3, 43, 22
5, 45120, Note_on_c, 3, 48, 64
5, 45360, Note_off_c, 3, 48, 54
5, 45480, Note_on_c, 3, 52, 64
5, 45600, Note_off_c, 3, 52, 57
5, 45600, Note_on_c, 3, 45, 64
5, 45660, Note_off_c, 3, 45, 51
5, 45660, Note_on_c, 3, 58, 64
5, 45720, Note_off_c, 3, 58, 61
5, 45720, Note_on_c, 3, 57, 64
5, 45780, Note_off_c, 3, 57, 55
5, 45780, Note_on_c, 3, 55, 64
5, 45840, Note_off_c, 3, 55, 51
5, 45840, Note_on_c, 3, 53, 64
5, 45900, Note_off_c, 3, 53, 49
5, 45900, Note_on_c, 3, 52, 64
5, 45960, Note_off_c, 3, 52, 61
5, 45960, Note_on_c, 3, 50, 64
5, 46020, Note_off_c, 3, 50, 35
5, 46020, Note_on_c, 3, 49, 64
5, 46080, Note_off_c, 3, 49, 61
5, 46080, Note_on_c, 3, 50, 64
5, 46800, Note_off_c, 3, 50, 61
5, 47040, Note_on_c, 3, 53, 64
5, 47520, Note_off_c, 3, 53, 63
5, 47580, Note_on_c, 3, 55, 64
5, 47640, Note_off_c, 3, 55, 57
5, 47640, Note_on_c, 3, 53, 64
5, 47700, Note_off_c, 3, 53, 53
5, 47700, Note_on_c, 3, 52, 64
5, 47760, Note_off_c, 3, 52, 63
5, 47760, Note_on_c, 3, 50, 64
5, 48120, Note_off_c, 3, 50, 46
5, 48120, Note_on_c, 3, 48, 64
5, 48360, Note_off_c, 3, 48, 22
5, 48360, Note_on_c, 3, 47, 64
5, 48480, Note_off_c, 3, 47, 59
5, 48480, Note_on_c, 3, 48, 64
5, 48600, Note_off_c, 3, 48, 51
5, 48600, Note_on_c, 3, 50, 64
5, 48720, Note_off_c, 3, 50, 54
5, 48720, Note_on_c, 3, 43, 64
5, 49080, Note_off_c, 3, 43, 36
5, 49080, Note_on_c, 3, 57, 64
5, 49200, Note_off_c, 3, 57, 36
5, 49200, Note_on_c, 3, 55, 64
5, 49320, Note_off_c, 3, 55, 52
5, 49320, Note_on_c, 3, 53, 64
5, 49440, Note_off_c, 3, 53, 53
5, 49440, Note_on_c, 3, 52, 64
5, 49560, Note_off_c, 3, 52, 52
5, 49560, Note_on_c, 3, 50, 64
5, 49680, Note_off_c, 3, 50, 50
5, 49680, Note_on_c, 3, 48, 64
5, 49800, Note_off_c, 3, 48, 43
5, 49800, Note_on_c, 3, 52, 64
5, 49920, Note_off_c, 3, 52, 62
5, 49920, Note_on_c, 3, 50, 64
5, 50040, Note_off_c, 3, 50, 49
5, 50040, Note_on_c, 3, 50, 64
5, 50100, Note_off_c, 3, 50, 58
5, 50100, Note_on_c, 3, 52, 64
5, 50160, Note_off_c, 3, 52, 52
5, 50160, Note_on_c, 3, 50, 64
5, 50280, Note_off_c, 3, 50, 58
5, 50280, Note_on_c, 3, 48, 64
5, 50400, Note_off_c, 3, 48, 49
5, 50400, Note_on_c, 3, 47, 64
5, 50520, Note_off_c, 3, 47, 51
5, 50520, Note_on_c, 3, 47, 64
5, 50580, Note_off_c, 3, 47, 53
5, 50580, Note_on_c, 3, 48, 64
5, 50640, Note_off_c, 3, 48, 57
5, 50640, Note_on_c, 3, 47, 64
5, 50760, Note_off_c, 3, 47, 34
5, 50760, Note_on_c, 3, 45, 64
5, 50880, Note_off_c, 3, 45, 43
5, 50880, Note_on_c, 3, 43, 64
5, 50940, Note_off_c, 3, 43, 51
5, 50940, Note_on_c, 3, 45, 64
5, 51000, Note_off_c, 3, 45, 54
5, 51000, Note_on_c, 3, 47, 64
5, 51060, Note_off_c, 3, 47, 52
5, 51060, Note_on_c, 3, 45, 64
5, 51120, Note_off_c, 3, 45, 57
5, 51120, Note_on_c, 3, 43, 64
5, 51240, Note_off_c, 3, 43, 18
5, 51240, Note_on_c, 3, 42, 64
5, 51360, Note_off_c, 3, 42, 72
5, 51360, Note_on_c, 3, 52, 64
5, 51480, Note_off_c, 3, 52, 61
5, 51480, Note_on_c, 3, 55, 64
5, 51600, Note_off_c, 3, 55, 59
5, 51720, Note_on_c, 3, 50, 64
5, 51840, Note_off_c, 3, 50, 48
5, 51840, Note_on_c, 3, 48, 64
5, 51900, Note_off_c, 3, 48, 44
5, 51900, Note_on_c, 3, 47, 64
5, 51960, Note_off_c, 3, 47, 46
5, 51960, Note_on_c, 3, 50, 64
5, 52020, Note_off_c, 3, 50, 65
5, 52020, Note_on_c, 3, 48, 64
5, 52080, Note_off_c, 3, 48, 52
5, 52080, Note_on_c, 3, 47, 64
5, 52140, Note_off_c, 3, 47, 59
5, 52140, Note_on_c, 3, 45, 64
5, 52200, Note_off_c, 3, 45, 49
5, 52200, Note_on_c, 3, 48, 64
5, 52260, Note_off_c, 3, 48, 62
5, 52260, Note_on_c, 3, 47, 64
5, 52320, Note_off_c, 3, 47, 58
5, 52320, Note_on_c, 3, 45, 64
5, 52440, Note_off_c, 3, 45, 49
5, 52440, Note_on_c, 3, 47, 64
5, 52560, Note_off_c, 3, 47, 59
5, 52560, Note_on_c, 3, 48, 64
5, 52680, Note_off_c, 3, 48, 50
5, 52680, Note_on_c, 3, 43, 64
5, 52800, Note_off_c, 3, 43, 47
5, 52800, Note_on_c, 3, 50, 64
5, 53040, Note_off_c, 3, 50, 59
5, 53040, Note_on_c, 3, 52, 64
5, 53280, Note_off_c, 3, 52, 61
5, 53280, Note_on_c, 3, 54, 64
5, 53520, Note_off_c, 3, 54, 65
5, 53520, Note_on_c, 3, 55, 64
5, 53760, Note_off_c, 3, 55, 68
5, 53760, Note_on_c, 3, 57, 64
5, 54000, Note_off_c, 3, 57, 52
5, 54000, Note_on_c, 3, 59, 64
5, 54120, Note_off_c, 3, 59, 58
5, 54120, Note_on_c, 3, 57, 64
5, 54240, Note_off_c, 3, 57, 52
5, 54240, Note_on_c, 3, 56, 64
5, 54360, Note_off_c, 3, 56, 61
5, 54360, Note_on_c, 3, 52, 64
5, 54480, Note_off_c, 3, 52, 58
5, 54480, Note_on_c, 3, 54, 64
5, 54600, Note_off_c, 3, 54, 59
5, 54600, Note_on_c, 3, 56, 64
5, 54720, Note_off_c, 3, 56, 49
5, 54720, Note_on_c, 3, 57, 64
5, 54840, Note_off_c, 3, 57, 53
5, 54840, Note_on_c, 3, 48, 64
5, 54960, Note_off_c, 3, 48, 49
5, 54960, Note_on_c, 3, 50, 64
5, 55080, Note_off_c, 3, 50, 51
5, 55080, Note_on_c, 3, 52, 64
5, 55200, Note_off_c, 3, 52, 58
5, 55200, Note_on_c, 3, 53, 64
5, 55440, Note_off_c, 3, 53, 62
5, 55560, Note_on_c, 3, 49, 64
5, 55680, Note_off_c, 3, 49, 62
5, 55680, Note_on_c, 3, 50, 64
5, 55800, Note_off_c, 3, 50, 58
5, 55800, Note_on_c, 3, 52, 64
5, 55920, Note_off_c, 3, 52, 63
5, 55920, Note_on_c, 3, 53, 64
5, 56040, Note_off_c, 3, 53, 53
5, 56040, Note_on_c, 3, 49, 64
5, 56160, Note_off_c, 3, 49, 66
5, 56160, Note_on_c, 3, 50, 64
5, 56400, Note_off_c, 3, 50, 62
5, 56400, Note_on_c, 3, 45, 64
5, 56760, Note_off_c, 3, 45, 58
5, 56760, Note_on_c, 3, 44, 64
5, 56880, Note_off_c, 3, 44, 57
5, 56880, Note_on_c, 3, 45, 64
5, 57120, Note_off_c, 3, 45, 52
5, 57120, Note_on_c, 3, 40, 64
5, 58680, Note_off_c, 3, 40, 49
5, 58680, Note_on_c, 3, 52, 64
5, 58740, Note_off_c, 3, 52, 72
5, 58740, Note_on_c, 3, 53, 64
5, 58800, Note_off_c, 3, 53, 59
5, 58800, Note_on_c, 3, 52, 64
5, 58920, Note_off_c, 3, 52, 68
5, 58920, Note_on_c, 3, 50, 64
5, 59040, Note_off_c, 3, 50, 38
5, 59040, Note_on_c, 3, 49, 64
5, 59160, Note_off_c, 3, 49, 61
5, 59160, Note_on_c, 3, 49, 64
5, 59220, Note_off_c, 3, 49, 65
5, 59220, Note_on_c, 3, 50, 64
5, 59280, Note_off_c, 3, 50, 62
5, 59280, Note_on_c, 3, 49, 64
5, 59400, Note_off_c, 3, 49, 72
5, 59400, Note_on_c, 3, 47, 64
5, 59520, Note_off_c, 3, 47, 57
5, 59520, Note_on_c, 3, 45, 64
5, 59580, Note_off_c, 3, 45, 37
5, 59580, Note_on_c, 3, 47, 64
5, 59640, Note_off_c, 3, 47, 51
5, 59640, Note_on_c, 3, 49, 64
5, 59700, Note_off_c, 3, 49, 70
5, 59700, Note_on_c, 3, 47, 64
5, 59760, Note_off_c, 3, 47, 59
5, 59760, Note_on_c, 3, 45, 64
5, 59880, Note_off_c, 3, 45, 40
5, 59880, Note_on_c, 3, 43, 64
5, 60000, Note_off_c, 3, 43, 23
5, 60000, Note_on_c, 3, 41, 64
5, 60240, Note_off_c, 3, 41, 34
5, 60360, Note_on_c, 3, 53, 64
5, 60480, Note_off_c, 3, 53, 34
5, 60480, Note_on_c, 3, 58, 64
5, 60600, Note_off_c, 3, 58, 62
5, 60600, Note_on_c, 3, 55, 64
5, 60720, Note_off_c, 3, 55, 49
5, 60720, Note_on_c, 3, 57, 64
5, 60960, Note_off_c, 3, 57, 52
5, 60960, Note_on_c, 3, 50, 64
5, 61080, Note_off_c, 3, 50, 52
5, 61080, Note_on_c, 3, 50, 64
5, 61140, Note_off_c, 3, 50, 49
5, 61140, Note_on_c, 3, 49, 64
5, 61200, Note_off_c, 3, 49, 65
5, 61200, Note_on_c, 3, 50, 64
5, 61320, Note_off_c, 3, 50, 49
5, 61320, Note_on_c, 3, 52, 64
5, 61440, Note_off_c, 3, 52, 59
5, 61440, Note_on_c, 3, 53, 64
5, 61560, Note_off_c, 3, 53, 49
5, 61560, Note_on_c, 3, 53, 64
5, 61620, Note_off_c, 3, 53, 63
5, 61620, Note_on_c, 3, 52, 64
5, 61680, Note_off_c, 3, 52, 59
5, 61680, Note_on_c, 3, 54, 64
5, 61800, Note_off_c, 3, 54, 59
5, 61800, Note_on_c, 3, 56, 64
5, 61920, Note_off_c, 3, 56, 54
5, 61920, Note_on_c, 3, 57, 64
5, 61980, Note_off_c, 3, 57, 52
5, 61980, Note_on_c, 3, 56, 64
5, 62040, Note_off_c, 3, 56, 42
5, 62040, Note_on_c, 3, 54, 64
5, 62100, Note_off_c, 3, 54, 59
5, 62100, Note_on_c, 3, 56, 64
5, 62160, Note_off_c, 3, 56, 55
5, 62160, Note_on_c, 3, 57, 64
5, 62280, Note_off_c, 3, 57, 54
5, 62280, Note_on_c, 3, 59, 64
5, 62400, Note_off_c, 3, 59, 55
5, 62400, Note_on_c, 3, 48, 64
5, 62520, Note_off_c, 3, 48, 53
5, 62520, Note_on_c, 3, 45, 64
5, 62640, Note_off_c, 3, 45, 40
5, 62760, Note_on_c, 3, 50, 64
5, 62880, Note_off_c, 3, 50, 58
5, 62880, Note_on_c, 3, 52, 64
5, 62940, Note_off_c, 3, 52, 65
5, 62940, Note_on_c, 3, 53, 64
5, 63000, Note_off_c, 3, 53, 65
5, 63000, Note_on_c, 3, 50, 64
5, 63060, Note_off_c, 3, 50, 54
5, 63060, Note_on_c, 3, 52, 64
5, 63120, Note_off_c, 3, 52, 65
5, 63120, Note_on_c, 3, 53, 64
5, 63180, Note_off_c, 3, 53, 55
5, 63180, Note_on_c, 3, 55, 64
5, 63240, Note_off_c, 3, 55, 54
5, 63240, Note_on_c, 3, 52, 64
5, 63300, Note_off_c, 3, 52, 49
5, 63300, Note_on_c, 3, 54, 64
5, 63360, Note_off_c, 3, 54, 51
5, 63360, Note_on_c, 3, 55, 64
5, 63480, Note_off_c, 3, 55, 66
5, 63480, Note_on_c, 3, 53, 64
5, 63600, Note_off_c, 3, 53, 61
5, 63600, Note_on_c, 3, 52, 64
5, 63720, Note_off_c, 3, 52, 54
5, 63720, Note_on_c, 3, 57, 64
5, 63840, Note_off_c, 3, 57, 43
5, 63840, Note_on_c, 3, 50, 64
5, 63960, Note_off_c, 3, 50, 46
5, 63960, Note_on_c, 3, 57, 64
5, 64140, Note_off_c, 3, 57, 52
5, 64140, Note_on_c, 3, 56, 64
5, 64200, Note_off_c, 3, 56, 53
5, 64200, Note_on_c, 3, 57, 64
5, 64260, Note_off_c, 3, 57, 50
5, 64260, Note_on_c, 3, 56, 64
5, 64320, Note_off_c, 3, 56, 58
5, 64320, Note_on_c, 3, 57, 64
5, 64620, Note_off_c, 3, 57, 55
5, 64620, Note_on_c, 3, 55, 64
5, 64680, Note_off_c, 3, 55, 52
5, 64680, Note_on_c, 3, 53, 64
5, 64740, Note_off_c, 3, 53, 43
5, 64740, Note_on_c, 3, 52, 64
5, 64800, Note_off_c, 3, 52, 46
5, 64800, Note_on_c, 3, 53, 64
5, 65100, Note_off_c, 3, 53, 59
5, 65100, Note_on_c, 3, 52, 64
5, 65160, Note_off_c, 3, 52, 55
5, 65160, Note_on_c, 3, 50, 64
5, 65220, Note_off_c, 3, 50, 39
5, 65220, Note_on_c, 3, 49, 64
5, 65280, Note_off_c, 3, 49, 63
5, 65280, Note_on_c, 3, 50, 64
5, 65400, Note_off_c, 3, 50, 41
5, 69240, Note_on_c, 3, 48, 64
5, 69300, Note_off_c, 3, 48, 51
5, 69300, Note_on_c, 3, 50, 64
5, 69360, Note_off_c, 3, 50, 59
5, 69360, Note_on_c, 3, 48, 64
5, 69480, Note_off_c, 3, 48, 73
5, 69480, Note_on_c, 3, 46, 64
5, 69600, Note_off_c, 3, 46, 66
5, 69600, Note_on_c, 3, 45, 64
5, 69720, Note_off_c, 3, 45, 46
5, 69720, Note_on_c, 3, 45, 64
5, 69780, Note_off_c, 3, 45, 51
5, 69780, Note_on_c, 3, 46, 64
5, 69840, Note_off_c, 3, 46, 62
5, 69840, Note_on_c, 3, 45, 64
5, 69960, Note_off_c, 3, 45, 65
5, 69960, Note_on_c, 3, 43, 64
5, 70080, Note_off_c, 3, 43, 34
5, 70080, Note_on_c, 3, 41, 64
5, 70140, Note_off_c, 3, 41, 45
5, 70140, Note_on_c, 3, 43, 64
5, 70200, Note_off_c, 3, 43, 59
5, 70200, Note_on_c, 3, 45, 64
5, 70260, Note_off_c, 3, 45, 62
5, 70260, Note_on_c, 3, 43, 64
5, 70320, Note_off_c, 3, 43, 57
5, 70320, Note_on_c, 3, 41, 64
5, 70440, Note_off_c, 3, 41, 21
5, 70440, Note_on_c, 3, 39, 64
5, 70560, Note_off_c, 3, 39, 63
5, 70560, Note_on_c, 3, 50, 64
5, 70680, Note_off_c, 3, 50, 52
5, 70680, Note_on_c, 3, 54, 64
5, 70800, Note_off_c, 3, 54, 55
5, 70920, Note_on_c, 3, 48, 64
5, 71040, Note_off_c, 3, 48, 34
5, 71040, Note_on_c, 3, 46, 64
5, 71100, Note_off_c, 3, 46, 50
5, 71100, Note_on_c, 3, 45, 64
5, 71160, Note_off_c, 3, 45, 63
5, 71160, Note_on_c, 3, 48, 64
5, 71220, Note_off_c, 3, 48, 65
5, 71220, Note_on_c, 3, 46, 64
5, 71280, Note_off_c, 3, 46, 70
5, 71280, Note_on_c, 3, 45, 64
5, 71340, Note_off_c, 3, 45, 61
5, 71340, Note_on_c, 3, 43, 64
5, 71400, Note_off_c, 3, 43, 49
5, 71400, Note_on_c, 3, 46, 64
5, 71460, Note_off_c, 3, 46, 65
5, 71460, Note_on_c, 3, 45, 64
5, 71520, Note_off_c, 3, 45, 61
5, 71520, Note_on_c, 3, 43, 64
5, 71880, Note_off_c, 3, 43, 21
5, 71880, Note_on_c, 3, 42, 64
5, 72000, Note_off_c, 3, 42, 53
5, 72000, Note_on_c, 3, 43, 64
5, 73560, Note_off_c, 3, 43, 69
5, 73560, Note_on_c, 3, 52, 64
5, 73620, Note_off_c, 3, 52, 61
5, 73620, Note_on_c, 3, 53, 64
5, 73680, Note_off_c, 3, 53, 46
5, 73680, Note_on_c, 3, 55, 64
5, 73740, Note_off_c, 3, 55, 68
5, 73740, Note_on_c, 3, 53, 64
5, 73800, Note_off_c, 3, 53, 49
5, 73800, Note_on_c, 3, 52, 64
5, 73860, Note_off_c, 3, 52, 59
5, 73860, Note_on_c, 3, 50, 64
5, 73920, Note_off_c, 3, 50, 35
5, 73920, Note_on_c, 3, 49, 64
5, 74040, Note_off_c, 3, 49, 62
5, 74520, Note_on_c, 3, 64, 64
5, 74640, Note_off_c, 3, 64, 49
5, 74640, Note_on_c, 3, 61, 64
5, 74760, Note_off_c, 3, 61, 62
5, 74760, Note_on_c, 3, 57, 64
5, 74880, Note_off_c, 3, 57, 49
5, 74880, Note_on_c, 3, 50, 64
5, 75000, Note_off_c, 3, 50, 42
5, 75360, Note_on_c, 3, 50, 64
5, 75480, Note_off_c, 3, 50, 49
5, 75840, Note_on_c, 3, 50, 64
5, 76080, Note_off_c, 3, 50, 46
5, 76320, Note_on_c, 3, 51, 64
5, 76560, Note_off_c, 3, 51, 58
5, 76800, Note_on_c, 3, 52, 64
5, 77040, Note_off_c, 3, 52, 68
5, 77280, Note_on_c, 3, 52, 64
5, 77520, Note_off_c, 3, 52, 72
5, 78240, Note_on_c, 3, 54, 64
5, 78480, Note_off_c, 3, 54, 52
5, 78600, Note_on_c, 3, 56, 64
5, 78720, Note_off_c, 3, 56, 57
5, 78720, Note_on_c, 3, 57, 64
5, 78840, Note_off_c, 3, 57, 59
5, 78840, Note_on_c, 3, 50, 64
5, 78960, Note_off_c, 3, 50, 34
5, 78960, Note_on_c, 3, 52, 64
5, 79200, Note_off_c, 3, 52, 61
5, 79200, Note_on_c, 3, 45, 68
5, 83520, Note_off_c, 3, 45, 40
5, 83520, End_track
0, 0, End_of_file
