0, 0, Header, 1, 4, 240
1, 0, Start_track
1, 0, Time_signature, 6, 3, 36, 8
1, 0, Tempo, 571429
1, 60480, Tempo, 600000
1, 60840, Tempo, 625000
1, 61200, Tempo, 652174
1, 61320, Tempo, 902490
1, 61440, Tempo, 800000
1, 61496, Tempo, 952381
1, 61560, Tempo, 1034483
1, 61560, End_track
2, 0, Start_track
2, 0, Text_t, "RH H"
2, 0, Note_on_c, 0, 67, 64
2, 120, Note_off_c, 0, 67, 40
2, 120, Note_on_c, 0, 69, 64
2, 180, Note_off_c, 0, 69, 61
2, 180, Note_on_c, 0, 67, 64
2, 240, Note_off_c, 0, 67, 49
2, 240, Note_on_c, 0, 66, 64
2, 300, Note_off_c, 0, 66, 43
2, 300, Note_on_c, 0, 67, 64
2, 360, Note_off_c, 0, 67, 40
2, 360, Note_on_c, 0, 69, 64
2, 480, Note_off_c, 0, 69, 51
2, 480, Note_on_c, 0, 71, 64
2, 540, Note_off_c, 0, 71, 66
2, 540, Note_on_c, 0, 69, 64
2, 600, Note_off_c, 0, 69, 61
2, 600, Note_on_c, 0, 67, 64
2, 660, Note_off_c, 0, 67, 38
2, 660, Note_on_c, 0, 69, 64
2, 720, Note_off_c, 0, 69, 62
2, 720, Note_on_c, 0, 71, 64
2, 840, Note_off_c, 0, 71, 68
2, 840, Note_on_c, 0, 69, 64
2, 960, Note_off_c, 0, 69, 63
2, 960, Note_on_c, 0, 67, 64
2, 1080, Note_off_c, 0, 67, 52
2, 1080, Note_on_c, 0, 62, 64
2, 1200, Note_off_c, 0, 62, 9
2, 1200, Note_on_c, 0, 72, 64
2, 1440, Note_off_c, 0, 72, 65
2, 1440, Note_on_c, 0, 71, 64
2, 1560, Note_off_c, 0, 71, 72
2, 1560, Note_on_c, 0, 69, 64
2, 1680, Note_off_c, 0, 69, 66
2, 1680, Note_on_c, 0, 67, 64
2, 1800, Note_off_c, 0, 67, 63
2, 1800, Note_on_c, 0, 66, 64
2, 1920, Note_off_c, 0, 66, 68
2, 1920, Note_on_c, 0, 76, 64
2, 2160, Note_off_c, 0, 76, 41
2, 2160, Note_on_c, 0, 74, 64
2, 2280, Note_off_c, 0, 74, 68
2, 2280, Note_on_c, 0, 76, 64
2, 2340, Note_off_c, 0, 76, 59
2, 2340, Note_on_c, 0, 74, 64
2, 2400, Note_off_c, 0, 74, 62
2, 2400, Note_on_c, 0, 72, 64
2, 2460, Note_off_c, 0, 72, 73
2, 2460, Note_on_c, 0, 71, 64
2, 2520, Note_off_c, 0, 71, 58
2, 2520, Note_on_c, 0, 69, 64
2, 2640, Note_off_c, 0, 69, 50
2, 2640, Note_on_c, 0, 72, 64
2, 2700, Note_off_c, 0, 72, 68
2, 2700, Note_on_c, 0, 71, 64
2, 2760, Note_off_c, 0, 71, 62
2, 2760, Note_on_c, 0, 69, 64
2, 2820, Note_off_c, 0, 69, 73
2, 2820, Note_on_c, 0, 67, 64
2, 2880, Note_off_c, 0, 67, 46
2, 2880, Note_on_c, 0, 66, 64
2, 3000, Note_off_c, 0, 66, 62
2, 3000, Note_on_c, 0, 67, 64
2, 3120, Note_off_c, 0, 67, 49
2, 3120, Note_on_c, 0, 69, 64
2, 3240, Note_off_c, 0, 69, 72
2, 3240, Note_on_c, 0, 67, 64
2, 3360, Note_off_c, 0, 67, 44
2, 3360, Note_on_c, 0, 69, 64
2, 3480, Note_off_c, 0, 69, 65
2, 3480, Note_on_c, 0, 71, 64
2, 3600, Note_off_c, 0, 71, 76
2, 3600, Note_on_c, 0, 69, 64
2, 3720, Note_off_c, 0, 69, 52
2, 3720, Note_on_c, 0, 71, 64
2, 3780, Note_off_c, 0, 71, 65
2, 3780, Note_on_c, 0, 73, 64
2, 3840, Note_off_c, 0, 73, 61
2, 3840, Note_on_c, 0, 74, 64
2, 3900, Note_off_c, 0, 74, 62
2, 3900, Note_on_c, 0, 71, 64
2, 3960, Note_off_c, 0, 71, 68
2, 3960, Note_on_c, 0, 73, 64
2, 4020, Note_off_c, 0, 73, 54
2, 4020, Note_on_c, 0, 71, 64
2, 4080, Note_off_c, 0, 71, 65
2, 4080, Note_on_c, 0, 73, 64
2, 4140, Note_off_c, 0, 73, 70
2, 4140, Note_on_c, 0, 74, 64
2, 4200, Note_off_c, 0, 74, 65
2, 4200, Note_on_c, 0, 76, 64
2, 4260, Note_off_c, 0, 76, 42
2, 4260, Note_on_c, 0, 73, 64
2, 4320, Note_off_c, 0, 73, 59
2, 4320, Note_on_c, 0, 74, 64
2, 4380, Note_off_c, 0, 74, 66
2, 4380, Note_on_c, 0, 73, 64
2, 4440, Note_off_c, 0, 73, 62
2, 4440, Note_on_c, 0, 74, 64
2, 4500, Note_off_c, 0, 74, 61
2, 4500, Note_on_c, 0, 76, 64
2, 4560, Note_off_c, 0, 76, 65
2, 4560, Note_on_c, 0, 78, 64
2, 4620, Note_off_c, 0, 78, 62
2, 4620, Note_on_c, 0, 74, 64
2, 4680, Note_off_c, 0, 74, 52
2, 4680, Note_on_c, 0, 76, 64
2, 4740, Note_off_c, 0, 76, 41
2, 4740, Note_on_c, 0, 74, 64
2, 4800, Note_off_c, 0, 74, 47
2, 4800, Note_on_c, 0, 76, 64
2, 4860, Note_off_c, 0, 76, 47
2, 4860, Note_on_c, 0, 78, 64
2, 4920, Note_off_c, 0, 78, 57
2, 4920, Note_on_c, 0, 79, 64
2, 4980, Note_off_c, 0, 79, 62
2, 4980, Note_on_c, 0, 76, 64
2, 5040, Note_off_c, 0, 76, 48
2, 5040, Note_on_c, 0, 78, 64
2, 5160, Note_off_c, 0, 78, 61
2, 5160, Note_on_c, 0, 79, 64
2, 5220, Note_off_c, 0, 79, 70
2, 5220, Note_on_c, 0, 78, 64
2, 5280, Note_off_c, 0, 78, 54
2, 5280, Note_on_c, 0, 76, 64
2, 5340, Note_off_c, 0, 76, 43
2, 5340, Note_on_c, 0, 74, 64
2, 5400, Note_off_c, 0, 74, 50
2, 5400, Note_on_c, 0, 79, 64
2, 5820, Note_off_c, 0, 79, 72
2, 5820, Note_on_c, 0, 78, 64
2, 5880, Note_off_c, 0, 78, 65
2, 5880, Note_on_c, 0, 76, 64
2, 5940, Note_off_c, 0, 76, 45
2, 5940, Note_on_c, 0, 79, 64
2, 6000, Note_off_c, 0, 79, 51
2, 6000, Note_on_c, 0, 74, 64
2, 6060, Note_off_c, 0, 74, 34
2, 6060, Note_on_c, 0, 79, 64
2, 6120, Note_off_c, 0, 79, 53
2, 6120, Note_on_c, 0, 73, 64
2, 6180, Note_off_c, 0, 73, 52
2, 6180, Note_on_c, 0, 79, 64
2, 6240, Note_off_c, 0, 79, 54
2, 6240, Note_on_c, 0, 71, 64
2, 6300, Note_off_c, 0, 71, 48
2, 6300, Note_on_c, 0, 79, 64
2, 6360, Note_off_c, 0, 79, 42
2, 6360, Note_on_c, 0, 69, 64
2, 6420, Note_off_c, 0, 69, 46
2, 6420, Note_on_c, 0, 79, 64
2, 6480, Note_off_c, 0, 79, 37
2, 6480, Note_on_c, 0, 78, 64
2, 6600, Note_off_c, 0, 78, 48
2, 6600, Note_on_c, 0, 74, 64
2, 6720, Note_off_c, 0, 74, 55
2, 6720, Note_on_c, 0, 76, 64
2, 6840, Note_off_c, 0, 76, 65
2, 6840, Note_on_c, 0, 78, 64
2, 6960, Note_off_c, 0, 78, 42
2, 6960, Note_on_c, 0, 79, 64
2, 7080, Note_off_c, 0, 79, 53
2, 7080, Note_on_c, 0, 81, 64
2, 7320, Note_off_c, 0, 81, 58
2, 7320, Note_on_c, 0, 74, 64
2, 7440, Note_off_c, 0, 74, 47
2, 7440, Note_on_c, 0, 79, 64
2, 7680, Note_off_c, 0, 79, 63
2, 7680, Note_on_c, 0, 78, 64
2, 7800, Note_off_c, 0, 78, 63
2, 7800, Note_on_c, 0, 76, 64
2, 7920, Note_off_c, 0, 76, 49
2, 7920, Note_on_c, 0, 74, 64
2, 8040, Note_off_c, 0, 74, 43
2, 8040, Note_on_c, 0, 72, 64
2, 8160, Note_off_c, 0, 72, 68
2, 8160, Note_on_c, 0, 71, 64
2, 8280, Note_off_c, 0, 71, 48
2, 8280, Note_on_c, 0, 69, 64
2, 8520, Note_off_c, 0, 69, 48
2, 8880, Note_on_c, 0, 74, 64
2, 9120, Note_off_c, 0, 74, 55
2, 9120, Note_on_c, 0, 72, 64
2, 9240, Note_off_c, 0, 72, 55
2, 9240, Note_on_c, 0, 81, 64
2, 9480, Note_off_c, 0, 81, 54
2, 9480, Note_on_c, 0, 79, 64
2, 9840, Note_off_c, 0, 79, 55
2, 9840, Note_on_c, 0, 81, 64
2, 9900, Note_off_c, 0, 81, 55
2, 9900, Note_on_c, 0, 79, 64
2, 9960, Note_off_c, 0, 79, 49
2, 9960, Note_on_c, 0, 78, 64
2, 10020, Note_off_c, 0, 78, 54
2, 10020, Note_on_c, 0, 76, 64
2, 10080, Note_off_c, 0, 76, 46
2, 10080, Note_on_c, 0, 74, 64
2, 10910, Note_off_c, 0, 74, 68
2, 10923, Note_on_c, 0, 74, 64
2, 11043, Note_off_c, 0, 74, 61
2, 11043, Note_on_c, 0, 72, 64
2, 11163, Note_off_c, 0, 72, 68
2, 11163, Note_on_c, 0, 71, 64
2, 11283, Note_off_c, 0, 71, 57
2, 11283, Note_on_c, 0, 69, 64
2, 11403, Note_off_c, 0, 69, 43
2, 11403, Note_on_c, 0, 67, 64
2, 11523, Note_off_c, 0, 67, 28
2, 11523, Note_on_c, 0, 72, 64
2, 11583, Note_off_c, 0, 72, 68
2, 11583, Note_on_c, 0, 74, 64
2, 11643, Note_off_c, 0, 74, 62
2, 11643, Note_on_c, 0, 76, 64
2, 11943, Note_off_c, 0, 76, 52
2, 11943, Note_on_c, 0, 74, 64
2, 12003, Note_off_c, 0, 74, 61
2, 12003, Note_on_c, 0, 72, 64
2, 12063, Note_off_c, 0, 72, 66
2, 12063, Note_on_c, 0, 71, 64
2, 12123, Note_off_c, 0, 71, 59
2, 12123, Note_on_c, 0, 69, 64
2, 12183, Note_off_c, 0, 69, 52
2, 12183, Note_on_c, 0, 72, 64
2, 12243, Note_off_c, 0, 72, 76
2, 12243, Note_on_c, 0, 71, 64
2, 12303, Note_off_c, 0, 71, 53
2, 12303, Note_on_c, 0, 72, 64
2, 12363, Note_off_c, 0, 72, 63
2, 12363, Note_on_c, 0, 74, 64
2, 12663, Note_off_c, 0, 74, 55
2, 12663, Note_on_c, 0, 72, 64
2, 12723, Note_off_c, 0, 72, 73
2, 12723, Note_on_c, 0, 71, 64
2, 12783, Note_off_c, 0, 71, 59
2, 12783, Note_on_c, 0, 69, 64
2, 12843, Note_off_c, 0, 69, 62
2, 12843, Note_on_c, 0, 67, 64
2, 12903, Note_off_c, 0, 67, 36
2, 12903, Note_on_c, 0, 71, 64
2, 12963, Note_off_c, 0, 71, 70
2, 12963, Note_on_c, 0, 69, 64
2, 13023, Note_off_c, 0, 69, 54
2, 13023, Note_on_c, 0, 71, 64
2, 13083, Note_off_c, 0, 71, 57
2, 13083, Note_on_c, 0, 72, 64
2, 13383, Note_off_c, 0, 72, 70
2, 13383, Note_on_c, 0, 71, 64
2, 13443, Note_off_c, 0, 71, 61
2, 13443, Note_on_c, 0, 69, 64
2, 13503, Note_off_c, 0, 69, 55
2, 13503, Note_on_c, 0, 67, 64
2, 13563, Note_off_c, 0, 67, 39
2, 13563, Note_on_c, 0, 66, 64
2, 13623, Note_off_c, 0, 66, 47
2, 13623, Note_on_c, 0, 69, 64
2, 13683, Note_off_c, 0, 69, 65
2, 13683, Note_on_c, 0, 67, 64
2, 13743, Note_off_c, 0, 67, 37
2, 13743, Note_on_c, 0, 69, 64
2, 13803, Note_off_c, 0, 69, 65
2, 13803, Note_on_c, 0, 71, 64
2, 14163, Note_off_c, 0, 71, 72
2, 14163, Note_on_c, 0, 64, 64
2, 14283, Note_off_c, 0, 64, 20
2, 14283, Note_on_c, 0, 69, 64
2, 14463, Note_off_c, 0, 69, 65
2, 14463, Note_on_c, 0, 67, 64
2, 14523, Note_off_c, 0, 67, 30
2, 14523, Note_on_c, 0, 69, 64
2, 14643, Note_off_c, 0, 69, 63
2, 14643, Note_on_c, 0, 71, 64
2, 14763, Note_off_c, 0, 71, 61
2, 14763, Note_on_c, 0, 72, 64
2, 14823, Note_off_c, 0, 72, 74
2, 14823, Note_on_c, 0, 74, 64
2, 14883, Note_off_c, 0, 74, 72
2, 14883, Note_on_c, 0, 72, 64
2, 14943, Note_off_c, 0, 72, 73
2, 14943, Note_on_c, 0, 71, 64
2, 15003, Note_off_c, 0, 71, 68
2, 15003, Note_on_c, 0, 69, 64
2, 15063, Note_off_c, 0, 69, 65
2, 15063, Note_on_c, 0, 67, 64
2, 15113, Note_off_c, 0, 67, 52
2, 15126, Note_on_c, 0, 67, 72
2, 15148, Note_off_c, 0, 67, 53
2, 15148, Note_on_c, 0, 66, 50
2, 15170, Note_off_c, 0, 66, 40
2, 15170, Note_on_c, 0, 67, 52
2, 15192, Note_off_c, 0, 67, 54
2, 15192, Note_on_c, 0, 66, 54
2, 15214, Note_off_c, 0, 66, 52
2, 15214, Note_on_c, 0, 67, 57
2, 15236, Note_off_c, 0, 67, 50
2, 15236, Note_on_c, 0, 66, 59
2, 15258, Note_off_c, 0, 66, 52
2, 15258, Note_on_c, 0, 67, 61
2, 15280, Note_off_c, 0, 67, 49
2, 15280, Note_on_c, 0, 66, 63
2, 15302, Note_off_c, 0, 66, 54
2, 15306, Note_on_c, 0, 64, 68
2, 15336, Note_off_c, 0, 64, 40
2, 15336, Note_on_c, 0, 66, 64
2, 15366, Note_off_c, 0, 66, 70
2, 15366, Note_on_c, 0, 67, 64
2, 15546, Note_off_c, 0, 67, 49
2, 15546, Note_on_c, 0, 71, 64
2, 15606, Note_off_c, 0, 71, 77
2, 15606, Note_on_c, 0, 69, 64
2, 15666, Note_off_c, 0, 69, 68
2, 15666, Note_on_c, 0, 67, 64
2, 15726, Note_off_c, 0, 67, 57
2, 15726, Note_on_c, 0, 66, 64
2, 15786, Note_off_c, 0, 66, 68
2, 15786, Note_on_c, 0, 64, 64
2, 15846, Note_off_c, 0, 64, 50
2, 15846, Note_on_c, 0, 62, 64
2, 15966, Note_off_c, 0, 62, 52
2, 16566, Note_on_c, 0, 69, 64
2, 16686, Note_off_c, 0, 69, 57
2, 16686, Note_on_c, 0, 67, 64
2, 16746, Note_off_c, 0, 67, 47
2, 16746, Note_on_c, 0, 69, 64
2, 16806, Note_off_c, 0, 69, 69
2, 16806, Note_on_c, 0, 71, 64
2, 16866, Note_off_c, 0, 71, 72
2, 16866, Note_on_c, 0, 69, 64
2, 16926, Note_off_c, 0, 69, 62
2, 16926, Note_on_c, 0, 67, 64
2, 17046, Note_off_c, 0, 67, 43
2, 17046, Note_on_c, 0, 66, 64
2, 17106, Note_off_c, 0, 66, 70
2, 17106, Note_on_c, 0, 67, 64
2, 17166, Note_off_c, 0, 67, 46
2, 17166, Note_on_c, 0, 69, 64
2, 17226, Note_off_c, 0, 69, 65
2, 17226, Note_on_c, 0, 66, 64
2, 17286, Note_off_c, 0, 66, 65
2, 17286, Note_on_c, 0, 67, 64
2, 17406, Note_off_c, 0, 67, 53
2, 17406, Note_on_c, 0, 69, 64
2, 17526, Note_off_c, 0, 69, 63
2, 17526, Note_on_c, 0, 71, 64
2, 17646, Note_off_c, 0, 71, 73
2, 17646, Note_on_c, 0, 74, 64
2, 17766, Note_off_c, 0, 74, 70
2, 17766, Note_on_c, 0, 66, 72
2, 17788, Note_off_c, 0, 66, 21
2, 17788, Note_on_c, 0, 64, 50
2, 17810, Note_off_c, 0, 64, 46
2, 17810, Note_on_c, 0, 66, 51
2, 17832, Note_off_c, 0, 66, 66
2, 17832, Note_on_c, 0, 64, 53
2, 17854, Note_off_c, 0, 64, 42
2, 17854, Note_on_c, 0, 66, 54
2, 17876, Note_off_c, 0, 66, 53
2, 17876, Note_on_c, 0, 64, 56
2, 17898, Note_off_c, 0, 64, 45
2, 17898, Note_on_c, 0, 66, 58
2, 17920, Note_off_c, 0, 66, 72
2, 17920, Note_on_c, 0, 64, 59
2, 17942, Note_off_c, 0, 64, 51
2, 17942, Note_on_c, 0, 66, 61
2, 17964, Note_off_c, 0, 66, 62
2, 17964, Note_on_c, 0, 64, 62
2, 18004, Note_off_c, 0, 64, 46
2, 18006, Note_on_c, 0, 66, 68
2, 18126, Note_off_c, 0, 66, 65
2, 18126, Note_on_c, 0, 67, 64
2, 18246, Note_off_c, 0, 67, 51
2, 18246, Note_on_c, 0, 69, 64
2, 18366, Note_off_c, 0, 69, 69
2, 18366, Note_on_c, 0, 71, 64
2, 18486, Note_off_c, 0, 71, 74
2, 18486, Note_on_c, 0, 62, 72
2, 18508, Note_off_c, 0, 62, 21
2, 18508, Note_on_c, 0, 61, 50
2, 18530, Note_off_c, 0, 61, 46
2, 18530, Note_on_c, 0, 62, 51
2, 18552, Note_off_c, 0, 62, 66
2, 18552, Note_on_c, 0, 61, 53
2, 18574, Note_off_c, 0, 61, 42
2, 18574, Note_on_c, 0, 62, 54
2, 18596, Note_off_c, 0, 62, 53
2, 18596, Note_on_c, 0, 61, 56
2, 18618, Note_off_c, 0, 61, 45
2, 18618, Note_on_c, 0, 62, 58
2, 18640, Note_off_c, 0, 62, 72
2, 18640, Note_on_c, 0, 61, 59
2, 18662, Note_off_c, 0, 61, 51
2, 18662, Note_on_c, 0, 62, 61
2, 18684, Note_off_c, 0, 62, 62
2, 18684, Note_on_c, 0, 61, 62
2, 18724, Note_off_c, 0, 61, 46
2, 18726, Note_on_c, 0, 62, 68
2, 18836, Note_off_c, 0, 62, 49
2, 18849, Note_on_c, 0, 62, 64
2, 18909, Note_off_c, 0, 62, 52
2, 18909, Note_on_c, 0, 64, 64
2, 18969, Note_off_c, 0, 64, 44
2, 18969, Note_on_c, 0, 66, 64
2, 19029, Note_off_c, 0, 66, 66
2, 19029, Note_on_c, 0, 67, 64
2, 19089, Note_off_c, 0, 67, 58
2, 19089, Note_on_c, 0, 69, 64
2, 19209, Note_off_c, 0, 69, 66
2, 19209, Note_on_c, 0, 66, 64
2, 19269, Note_off_c, 0, 66, 74
2, 19269, Note_on_c, 0, 67, 64
2, 19329, Note_off_c, 0, 67, 50
2, 19329, Note_on_c, 0, 69, 64
2, 19389, Note_off_c, 0, 69, 63
2, 19389, Note_on_c, 0, 71, 64
2, 19449, Note_off_c, 0, 71, 70
2, 19449, Note_on_c, 0, 72, 64
2, 19689, Note_off_c, 0, 72, 72
2, 19689, Note_on_c, 0, 71, 64
2, 19809, Note_off_c, 0, 71, 69
2, 19809, Note_on_c, 0, 69, 64
2, 20169, Note_off_c, 0, 69, 61
2, 20229, Note_on_c, 0, 79, 64
2, 20289, Note_off_c, 0, 79, 63
2, 20289, Note_on_c, 0, 78, 64
2, 20349, Note_off_c, 0, 78, 70
2, 20349, Note_on_c, 0, 76, 64
2, 20409, Note_off_c, 0, 76, 53
2, 20409, Note_on_c, 0, 74, 64
2, 20469, Note_off_c, 0, 74, 65
2, 20469, Note_on_c, 0, 78, 64
2, 20529, Note_off_c, 0, 78, 72
2, 20529, Note_on_c, 0, 76, 64
2, 20589, Note_off_c, 0, 76, 58
2, 20589, Note_on_c, 0, 78, 64
2, 20649, Note_off_c, 0, 78, 69
2, 20649, Note_on_c, 0, 76, 64
2, 20709, Note_off_c, 0, 76, 53
2, 20709, Note_on_c, 0, 74, 64
2, 20769, Note_off_c, 0, 74, 65
2, 20769, Note_on_c, 0, 72, 64
2, 20829, Note_off_c, 0, 72, 69
2, 20829, Note_on_c, 0, 76, 64
2, 20889, Note_off_c, 0, 76, 53
2, 20889, Note_on_c, 0, 74, 64
2, 20949, Note_off_c, 0, 74, 68
2, 20949, Note_on_c, 0, 76, 64
2, 21009, Note_off_c, 0, 76, 53
2, 21009, Note_on_c, 0, 74, 64
2, 21069, Note_off_c, 0, 74, 62
2, 21069, Note_on_c, 0, 72, 64
2, 21129, Note_off_c, 0, 72, 69
2, 21129, Note_on_c, 0, 71, 64
2, 21189, Note_off_c, 0, 71, 69
2, 21189, Note_on_c, 0, 74, 64
2, 21249, Note_off_c, 0, 74, 62
2, 21249, Note_on_c, 0, 72, 64
2, 21309, Note_off_c, 0, 72, 72
2, 21309, Note_on_c, 0, 74, 64
2, 21369, Note_off_c, 0, 74, 66
2, 21369, Note_on_c, 0, 72, 64
2, 21429, Note_off_c, 0, 72, 70
2, 21429, Note_on_c, 0, 71, 64
2, 21489, Note_off_c, 0, 71, 63
2, 21489, Note_on_c, 0, 69, 64
2, 21549, Note_off_c, 0, 69, 69
2, 21549, Note_on_c, 0, 72, 64
2, 21609, Note_off_c, 0, 72, 63
2, 21609, Note_on_c, 0, 71, 64
2, 21669, Note_off_c, 0, 71, 66
2, 21669, Note_on_c, 0, 69, 64
2, 21729, Note_off_c, 0, 69, 62
2, 21729, Note_on_c, 0, 67, 64
2, 21789, Note_off_c, 0, 67, 41
2, 21789, Note_on_c, 0, 71, 64
2, 21849, Note_off_c, 0, 71, 66
2, 21849, Note_on_c, 0, 66, 64
2, 21909, Note_off_c, 0, 66, 55
2, 21909, Note_on_c, 0, 71, 64
2, 21969, Note_off_c, 0, 71, 70
2, 21969, Note_on_c, 0, 64, 64
2, 22029, Note_off_c, 0, 64, 16
2, 22029, Note_on_c, 0, 71, 64
2, 22089, Note_off_c, 0, 71, 40
2, 22089, Note_on_c, 0, 62, 64
2, 22149, Note_off_c, 0, 62, 40
2, 22149, Note_on_c, 0, 71, 64
2, 22209, Note_off_c, 0, 71, 66
2, 22209, Note_on_c, 0, 61, 64
2, 22269, Note_off_c, 0, 61, 37
2, 22269, Note_on_c, 0, 71, 64
2, 22329, Note_off_c, 0, 71, 70
2, 22329, Note_on_c, 0, 69, 64
2, 22389, Note_off_c, 0, 69, 55
2, 22389, Note_on_c, 0, 67, 64
2, 22449, Note_off_c, 0, 67, 44
2, 22449, Note_on_c, 0, 66, 64
2, 22509, Note_off_c, 0, 66, 59
2, 22509, Note_on_c, 0, 69, 64
2, 22569, Note_off_c, 0, 69, 61
2, 22569, Note_on_c, 0, 64, 64
2, 22629, Note_off_c, 0, 64, 34
2, 22629, Note_on_c, 0, 69, 64
2, 22689, Note_off_c, 0, 69, 62
2, 22689, Note_on_c, 0, 62, 64
2, 22749, Note_off_c, 0, 62, 37
2, 22749, Note_on_c, 0, 69, 64
2, 22809, Note_off_c, 0, 69, 59
2, 22809, Note_on_c, 0, 61, 64
2, 22869, Note_off_c, 0, 61, 47
2, 22869, Note_on_c, 0, 69, 64
2, 22929, Note_off_c, 0, 69, 68
2, 22929, Note_on_c, 0, 59, 64
2, 22989, Note_off_c, 0, 59, 34
2, 22989, Note_on_c, 0, 69, 64
2, 23049, Note_off_c, 0, 69, 48
2, 23049, Note_on_c, 0, 67, 64
2, 23109, Note_off_c, 0, 67, 52
2, 23109, Note_on_c, 0, 66, 64
2, 23169, Note_off_c, 0, 66, 53
2, 23169, Note_on_c, 0, 64, 64
2, 23229, Note_off_c, 0, 64, 48
2, 23229, Note_on_c, 0, 67, 64
2, 23289, Note_off_c, 0, 67, 52
2, 23289, Note_on_c, 0, 62, 64
2, 23349, Note_off_c, 0, 62, 46
2, 23349, Note_on_c, 0, 67, 64
2, 23409, Note_off_c, 0, 67, 54
2, 23409, Note_on_c, 0, 61, 64
2, 23469, Note_off_c, 0, 61, 42
2, 23469, Note_on_c, 0, 67, 64
2, 23529, Note_off_c, 0, 67, 45
2, 23529, Note_on_c, 0, 59, 64
2, 23589, Note_off_c, 0, 59, 41
2, 23589, Note_on_c, 0, 67, 64
2, 23649, Note_off_c, 0, 67, 40
2, 23649, Note_on_c, 0, 57, 64
2, 23709, Note_off_c, 0, 57, 40
2, 23709, Note_on_c, 0, 67, 64
2, 23769, Note_off_c, 0, 67, 46
2, 23769, Note_on_c, 0, 66, 64
2, 23829, Note_off_c, 0, 66, 58
2, 23829, Note_on_c, 0, 74, 64
2, 23889, Note_off_c, 0, 74, 34
2, 23889, Note_on_c, 0, 72, 64
2, 23949, Note_off_c, 0, 72, 68
2, 23949, Note_on_c, 0, 71, 64
2, 24009, Note_off_c, 0, 71, 69
2, 24009, Note_on_c, 0, 69, 64
2, 24069, Note_off_c, 0, 69, 49
2, 24069, Note_on_c, 0, 67, 64
2, 24129, Note_off_c, 0, 67, 53
2, 24129, Note_on_c, 0, 66, 64
2, 24189, Note_off_c, 0, 66, 58
2, 24189, Note_on_c, 0, 64, 64
2, 24249, Note_off_c, 0, 64, 48
2, 24249, Note_on_c, 0, 62, 64
2, 24309, Note_off_c, 0, 62, 55
2, 24309, Note_on_c, 0, 60, 64
2, 24369, Note_off_c, 0, 60, 55
2, 24369, Note_on_c, 0, 59, 64
2, 24429, Note_off_c, 0, 59, 49
2, 24429, Note_on_c, 0, 57, 64
2, 24489, Note_off_c, 0, 57, 57
2, 24489, Note_on_c, 0, 55, 64
2, 24549, Note_off_c, 0, 55, 52
2, 24549, Note_on_c, 0, 57, 64
2, 24609, Note_off_c, 0, 57, 49
2, 24609, Note_on_c, 0, 59, 64
2, 24669, Note_off_c, 0, 59, 55
2, 24669, Note_on_c, 0, 55, 64
2, 24729, Note_off_c, 0, 55, 53
2, 24729, Note_on_c, 0, 60, 64
2, 24789, Note_off_c, 0, 60, 63
2, 24789, Note_on_c, 0, 55, 64
2, 24849, Note_off_c, 0, 55, 58
2, 24849, Note_on_c, 0, 62, 64
2, 24909, Note_off_c, 0, 62, 50
2, 24909, Note_on_c, 0, 55, 64
2, 24969, Note_off_c, 0, 55, 54
2, 24969, Note_on_c, 0, 64, 64
2, 25029, Note_off_c, 0, 64, 46
2, 25029, Note_on_c, 0, 55, 64
2, 25089, Note_off_c, 0, 55, 50
2, 25089, Note_on_c, 0, 65, 64
2, 25149, Note_off_c, 0, 65, 1
2, 25149, Note_on_c, 0, 55, 64
2, 25209, Note_off_c, 0, 55, 51
2, 25209, Note_on_c, 0, 64, 64
2, 25269, Note_off_c, 0, 64, 32
2, 25269, Note_on_c, 0, 72, 64
2, 25329, Note_off_c, 0, 72, 82
2, 25329, Note_on_c, 0, 71, 64
2, 25389, Note_off_c, 0, 71, 74
2, 25389, Note_on_c, 0, 74, 64
2, 25449, Note_off_c, 0, 74, 42
2, 25449, Note_on_c, 0, 69, 64
2, 25509, Note_off_c, 0, 69, 55
2, 25509, Note_on_c, 0, 74, 64
2, 25569, Note_off_c, 0, 74, 68
2, 25569, Note_on_c, 0, 68, 64
2, 25629, Note_off_c, 0, 68, 63
2, 25629, Note_on_c, 0, 74, 64
2, 25689, Note_off_c, 0, 74, 54
2, 25689, Note_on_c, 0, 66, 64
2, 25749, Note_off_c, 0, 66, 51
2, 25749, Note_on_c, 0, 74, 64
2, 25809, Note_off_c, 0, 74, 31
2, 25809, Note_on_c, 0, 64, 64
2, 25869, Note_off_c, 0, 64, 24
2, 25869, Note_on_c, 0, 74, 64
2, 25929, Note_off_c, 0, 74, 46
2, 25929, Note_on_c, 0, 72, 64
2, 25989, Note_off_c, 0, 72, 66
2, 25989, Note_on_c, 0, 69, 64
2, 26049, Note_off_c, 0, 69, 58
2, 26049, Note_on_c, 0, 71, 64
2, 26109, Note_off_c, 0, 71, 82
2, 26109, Note_on_c, 0, 73, 64
2, 26169, Note_off_c, 0, 73, 61
2, 26169, Note_on_c, 0, 75, 64
2, 26229, Note_off_c, 0, 75, 63
2, 26229, Note_on_c, 0, 76, 64
2, 26289, Note_off_c, 0, 76, 49
2, 26289, Note_on_c, 0, 78, 64
2, 26349, Note_off_c, 0, 78, 70
2, 26349, Note_on_c, 0, 79, 64
2, 26409, Note_off_c, 0, 79, 65
2, 26409, Note_on_c, 0, 81, 64
2, 26469, Note_off_c, 0, 81, 57
2, 26469, Note_on_c, 0, 83, 64
2, 26529, Note_off_c, 0, 83, 46
2, 26529, Note_on_c, 0, 84, 64
2, 26589, Note_off_c, 0, 84, 68
2, 26589, Note_on_c, 0, 75, 64
2, 26649, Note_off_c, 0, 75, 55
2, 26649, Note_on_c, 0, 76, 64
2, 26769, Note_off_c, 0, 76, 42
2, 26769, Note_on_c, 0, 78, 64
2, 26829, Note_off_c, 0, 78, 66
2, 26829, Note_on_c, 0, 76, 64
2, 26889, Note_off_c, 0, 76, 58
2, 26889, Note_on_c, 0, 75, 64
2, 26949, Note_off_c, 0, 75, 57
2, 26949, Note_on_c, 0, 76, 64
2, 27009, Note_off_c, 0, 76, 58
2, 27009, Note_on_c, 0, 78, 64
2, 27129, Note_off_c, 0, 78, 65
2, 27129, Note_on_c, 0, 79, 64
2, 27189, Note_off_c, 0, 79, 63
2, 27189, Note_on_c, 0, 78, 64
2, 27249, Note_off_c, 0, 78, 70
2, 27249, Note_on_c, 0, 76, 64
2, 27309, Note_off_c, 0, 76, 52
2, 27309, Note_on_c, 0, 78, 64
2, 27369, Note_off_c, 0, 78, 65
2, 27369, Note_on_c, 0, 79, 64
2, 27489, Note_off_c, 0, 79, 69
2, 27489, Note_on_c, 0, 78, 64
2, 27609, Note_off_c, 0, 78, 68
2, 27609, Note_on_c, 0, 76, 64
2, 27729, Note_off_c, 0, 76, 53
2, 27729, Note_on_c, 0, 71, 64
2, 27849, Note_off_c, 0, 71, 43
2, 27849, Note_on_c, 0, 81, 64
2, 28089, Note_off_c, 0, 81, 59
2, 28089, Note_on_c, 0, 79, 64
2, 28209, Note_off_c, 0, 79, 66
2, 28209, Note_on_c, 0, 78, 64
2, 28329, Note_off_c, 0, 78, 65
2, 28329, Note_on_c, 0, 76, 64
2, 28449, Note_off_c, 0, 76, 63
2, 28449, Note_on_c, 0, 75, 64
2, 28569, Note_off_c, 0, 75, 52
2, 28569, Note_on_c, 0, 84, 64
2, 28809, Note_off_c, 0, 84, 55
2, 28809, Note_on_c, 0, 83, 64
2, 28929, Note_off_c, 0, 83, 69
2, 28929, Note_on_c, 0, 84, 64
2, 28989, Note_off_c, 0, 84, 68
2, 28989, Note_on_c, 0, 83, 64
2, 29049, Note_off_c, 0, 83, 66
2, 29049, Note_on_c, 0, 81, 64
2, 29109, Note_off_c, 0, 81, 49
2, 29109, Note_on_c, 0, 79, 64
2, 29169, Note_off_c, 0, 79, 61
2, 29169, Note_on_c, 0, 78, 64
2, 29289, Note_off_c, 0, 78, 63
2, 29289, Note_on_c, 0, 81, 64
2, 29349, Note_off_c, 0, 81, 68
2, 29349, Note_on_c, 0, 79, 64
2, 29409, Note_off_c, 0, 79, 65
2, 29409, Note_on_c, 0, 78, 64
2, 29469, Note_off_c, 0, 78, 62
2, 29469, Note_on_c, 0, 76, 64
2, 29529, Note_off_c, 0, 76, 49
2, 29529, Note_on_c, 0, 75, 64
2, 29649, Note_off_c, 0, 75, 51
2, 29649, Note_on_c, 0, 81, 64
2, 29769, Note_off_c, 0, 81, 61
2, 29769, Note_on_c, 0, 79, 64
2, 29889, Note_off_c, 0, 79, 63
2, 29889, Note_on_c, 0, 78, 64
2, 30009, Note_off_c, 0, 78, 63
2, 30009, Note_on_c, 0, 76, 64
2, 30129, Note_off_c, 0, 76, 52
2, 30129, Note_on_c, 0, 75, 64
2, 30249, Note_off_c, 0, 75, 44
2, 30249, Note_on_c, 0, 76, 64
2, 30369, Note_off_c, 0, 76, 49
2, 30369, Note_on_c, 0, 74, 64
2, 30489, Note_off_c, 0, 74, 73
2, 30489, Note_on_c, 0, 72, 64
2, 30609, Note_off_c, 0, 72, 54
2, 30609, Note_on_c, 0, 74, 64
2, 30729, Note_off_c, 0, 74, 65
2, 30729, Note_on_c, 0, 72, 64
2, 30849, Note_off_c, 0, 72, 63
2, 30849, Note_on_c, 0, 71, 64
2, 30969, Note_off_c, 0, 71, 49
2, 30969, Note_on_c, 0, 72, 64
2, 31029, Note_off_c, 0, 72, 42
2, 31029, Note_on_c, 0, 84, 64
2, 31089, Note_off_c, 0, 84, 50
2, 31089, Note_on_c, 0, 83, 64
2, 31149, Note_off_c, 0, 83, 48
2, 31149, Note_on_c, 0, 81, 64
2, 31209, Note_off_c, 0, 81, 49
2, 31209, Note_on_c, 0, 79, 64
2, 31269, Note_off_c, 0, 79, 48
2, 31269, Note_on_c, 0, 83, 64
2, 31329, Note_off_c, 0, 83, 63
2, 31329, Note_on_c, 0, 81, 64
2, 31389, Note_off_c, 0, 81, 61
2, 31389, Note_on_c, 0, 83, 64
2, 31449, Note_off_c, 0, 83, 66
2, 31449, Note_on_c, 0, 81, 64
2, 31509, Note_off_c, 0, 81, 53
2, 31509, Note_on_c, 0, 79, 64
2, 31569, Note_off_c, 0, 79, 72
2, 31569, Note_on_c, 0, 78, 64
2, 31629, Note_off_c, 0, 78, 63
2, 31629, Note_on_c, 0, 81, 64
2, 31689, Note_off_c, 0, 81, 63
2, 31689, Note_on_c, 0, 79, 64
2, 31749, Note_off_c, 0, 79, 65
2, 31749, Note_on_c, 0, 81, 64
2, 31809, Note_off_c, 0, 81, 62
2, 31809, Note_on_c, 0, 79, 64
2, 31869, Note_off_c, 0, 79, 59
2, 31869, Note_on_c, 0, 78, 64
2, 31929, Note_off_c, 0, 78, 65
2, 31929, Note_on_c, 0, 76, 64
2, 31989, Note_off_c, 0, 76, 50
2, 31989, Note_on_c, 0, 79, 64
2, 32049, Note_off_c, 0, 79, 62
2, 32049, Note_on_c, 0, 78, 64
2, 32109, Note_off_c, 0, 78, 61
2, 32109, Note_on_c, 0, 79, 64
2, 32169, Note_off_c, 0, 79, 58
2, 32169, Note_on_c, 0, 78, 64
2, 32229, Note_off_c, 0, 78, 59
2, 32229, Note_on_c, 0, 76, 64
2, 32289, Note_off_c, 0, 76, 47
2, 32289, Note_on_c, 0, 75, 64
2, 32349, Note_off_c, 0, 75, 53
2, 32349, Note_on_c, 0, 78, 64
2, 32409, Note_off_c, 0, 78, 65
2, 32409, Note_on_c, 0, 76, 64
2, 32529, Note_off_c, 0, 76, 40
2, 32529, Note_on_c, 0, 78, 64
2, 32589, Note_off_c, 0, 78, 63
2, 32589, Note_on_c, 0, 79, 64
2, 32649, Note_off_c, 0, 79, 50
2, 32649, Note_on_c, 0, 81, 64
2, 32889, Note_off_c, 0, 81, 61
2, 32889, Note_on_c, 0, 79, 64
2, 32949, Note_off_c, 0, 79, 57
2, 32949, Note_on_c, 0, 81, 64
2, 33009, Note_off_c, 0, 81, 57
2, 33009, Note_on_c, 0, 83, 64
2, 33249, Note_off_c, 0, 83, 63
2, 33249, Note_on_c, 0, 81, 64
2, 33369, Note_off_c, 0, 81, 58
2, 33369, Note_on_c, 0, 79, 64
2, 33489, Note_off_c, 0, 79, 48
2, 33489, Note_on_c, 0, 78, 64
2, 33549, Note_off_c, 0, 78, 72
2, 33549, Note_on_c, 0, 79, 64
2, 33609, Note_off_c, 0, 79, 63
2, 33609, Note_on_c, 0, 81, 64
2, 33729, Note_off_c, 0, 81, 63
2, 33729, Note_on_c, 0, 75, 64
2, 33849, Note_off_c, 0, 75, 40
2, 33849, Note_on_c, 0, 76, 64
2, 34089, Note_off_c, 0, 76, 53
2, 34089, Note_on_c, 0, 71, 64
2, 34209, Note_off_c, 0, 71, 40
2, 34209, Note_on_c, 0, 69, 64
2, 34799, Note_off_c, 0, 69, 40
2, 34812, Note_on_c, 0, 69, 64
2, 34932, Note_off_c, 0, 69, 43
2, 34932, Note_on_c, 0, 67, 64
2, 35522, Note_off_c, 0, 67, 39
2, 35535, Note_on_c, 0, 67, 64
2, 35655, Note_off_c, 0, 67, 42
2, 35655, Note_on_c, 0, 66, 64
2, 36075, Note_off_c, 0, 66, 58
2, 36075, Note_on_c, 0, 71, 64
2, 36135, Note_off_c, 0, 71, 69
2, 36135, Note_on_c, 0, 73, 64
2, 36195, Note_off_c, 0, 73, 54
2, 36195, Note_on_c, 0, 71, 64
2, 36255, Note_off_c, 0, 71, 72
2, 36255, Note_on_c, 0, 70, 64
2, 36315, Note_off_c, 0, 70, 66
2, 36315, Note_on_c, 0, 71, 64
2, 36375, Note_off_c, 0, 71, 55
2, 36375, Note_on_c, 0, 73, 64
2, 36495, Note_off_c, 0, 73, 58
2, 36495, Note_on_c, 0, 74, 64
2, 36555, Note_off_c, 0, 74, 66
2, 36555, Note_on_c, 0, 73, 64
2, 36615, Note_off_c, 0, 73, 61
2, 36615, Note_on_c, 0, 71, 64
2, 36675, Note_off_c, 0, 71, 63
2, 36675, Note_on_c, 0, 73, 64
2, 36735, Note_off_c, 0, 73, 62
2, 36735, Note_on_c, 0, 74, 64
2, 36855, Note_off_c, 0, 74, 68
2, 36855, Note_on_c, 0, 73, 64
2, 36975, Note_off_c, 0, 73, 55
2, 36975, Note_on_c, 0, 71, 64
2, 37095, Note_off_c, 0, 71, 80
2, 37095, Note_on_c, 0, 70, 64
2, 37215, Note_off_c, 0, 70, 53
2, 37215, Note_on_c, 0, 79, 64
2, 37455, Note_off_c, 0, 79, 55
2, 37455, Note_on_c, 0, 78, 64
2, 37575, Note_off_c, 0, 78, 65
2, 37575, Note_on_c, 0, 79, 64
2, 37635, Note_off_c, 0, 79, 62
2, 37635, Note_on_c, 0, 78, 64
2, 37695, Note_off_c, 0, 78, 52
2, 37695, Note_on_c, 0, 76, 64
2, 37755, Note_off_c, 0, 76, 53
2, 37755, Note_on_c, 0, 74, 64
2, 37815, Note_off_c, 0, 74, 74
2, 37815, Note_on_c, 0, 73, 64
2, 37935, Note_off_c, 0, 73, 68
2, 37935, Note_on_c, 0, 76, 64
2, 37995, Note_off_c, 0, 76, 52
2, 37995, Note_on_c, 0, 74, 64
2, 38055, Note_off_c, 0, 74, 66
2, 38055, Note_on_c, 0, 73, 64
2, 38115, Note_off_c, 0, 73, 43
2, 38115, Note_on_c, 0, 71, 64
2, 38175, Note_off_c, 0, 71, 54
2, 38175, Note_on_c, 0, 70, 64
2, 38235, Note_off_c, 0, 70, 61
2, 38235, Note_on_c, 0, 71, 64
2, 38295, Note_off_c, 0, 71, 57
2, 38295, Note_on_c, 0, 73, 64
2, 38355, Note_off_c, 0, 73, 63
2, 38355, Note_on_c, 0, 70, 64
2, 38415, Note_off_c, 0, 70, 69
2, 38415, Note_on_c, 0, 74, 64
2, 38475, Note_off_c, 0, 74, 66
2, 38475, Note_on_c, 0, 70, 64
2, 38535, Note_off_c, 0, 70, 68
2, 38535, Note_on_c, 0, 76, 64
2, 38595, Note_off_c, 0, 76, 50
2, 38595, Note_on_c, 0, 70, 64
2, 38655, Note_off_c, 0, 70, 53
2, 38655, Note_on_c, 0, 78, 64
2, 38715, Note_off_c, 0, 78, 61
2, 38715, Note_on_c, 0, 70, 64
2, 38775, Note_off_c, 0, 70, 1
2, 38775, Note_on_c, 0, 79, 64
2, 38835, Note_off_c, 0, 79, 55
2, 38835, Note_on_c, 0, 70, 64
2, 38895, Note_off_c, 0, 70, 51
2, 38895, Note_on_c, 0, 78, 64
2, 38955, Note_off_c, 0, 78, 65
2, 38955, Note_on_c, 0, 70, 64
2, 39015, Note_off_c, 0, 70, 36
2, 39015, Note_on_c, 0, 71, 64
2, 39075, Note_off_c, 0, 71, 46
2, 39075, Note_on_c, 0, 78, 64
2, 39135, Note_off_c, 0, 78, 50
2, 39135, Note_on_c, 0, 76, 64
2, 39165, Note_off_c, 0, 76, 46
2, 39165, Note_on_c, 0, 74, 64
2, 39195, Note_off_c, 0, 74, 69
2, 39195, Note_on_c, 0, 73, 64
2, 39225, Note_off_c, 0, 73, 61
2, 39225, Note_on_c, 0, 74, 64
2, 39255, Note_off_c, 0, 74, 57
2, 39255, Note_on_c, 0, 76, 64
2, 39315, Note_off_c, 0, 76, 65
2, 39315, Note_on_c, 0, 68, 64
2, 39375, Note_off_c, 0, 68, 61
2, 39375, Note_on_c, 0, 69, 64
2, 39435, Note_off_c, 0, 69, 48
2, 39435, Note_on_c, 0, 76, 64
2, 39495, Note_off_c, 0, 76, 32
2, 39495, Note_on_c, 0, 74, 64
2, 39525, Note_off_c, 0, 74, 58
2, 39525, Note_on_c, 0, 73, 64
2, 39555, Note_off_c, 0, 73, 58
2, 39555, Note_on_c, 0, 71, 64
2, 39585, Note_off_c, 0, 71, 59
2, 39585, Note_on_c, 0, 73, 64
2, 39615, Note_off_c, 0, 73, 58
2, 39615, Note_on_c, 0, 74, 64
2, 41115, Note_off_c, 0, 74, 76
2, 41115, Note_on_c, 0, 66, 68
2, 41145, Note_off_c, 0, 66, 61
2, 41145, Note_on_c, 0, 68, 64
2, 41175, Note_off_c, 0, 68, 65
2, 41175, Note_on_c, 0, 69, 64
2, 41235, Note_off_c, 0, 69, 76
2, 41235, Note_on_c, 0, 64, 64
2, 41295, Note_off_c, 0, 64, 32
2, 41295, Note_on_c, 0, 71, 64
2, 41355, Note_off_c, 0, 71, 79
2, 41355, Note_on_c, 0, 64, 64
2, 41415, Note_off_c, 0, 64, 34
2, 41415, Note_on_c, 0, 73, 64
2, 41475, Note_off_c, 0, 73, 61
2, 41475, Note_on_c, 0, 64, 64
2, 41535, Note_off_c, 0, 64, 24
2, 41535, Note_on_c, 0, 74, 64
2, 41595, Note_off_c, 0, 74, 49
2, 41595, Note_on_c, 0, 66, 64
2, 41655, Note_off_c, 0, 66, 69
2, 41655, Note_on_c, 0, 76, 64
2, 41715, Note_off_c, 0, 76, 52
2, 41715, Note_on_c, 0, 67, 64
2, 41775, Note_off_c, 0, 67, 42
2, 41775, Note_on_c, 0, 66, 64
2, 41835, Note_off_c, 0, 66, 65
2, 41835, Note_on_c, 0, 67, 64
2, 41865, Note_off_c, 0, 67, 62
2, 41865, Note_on_c, 0, 69, 64
2, 41895, Note_off_c, 0, 69, 66
2, 41895, Note_on_c, 0, 71, 64
2, 41955, Note_off_c, 0, 71, 73
2, 41955, Note_on_c, 0, 66, 64
2, 42015, Note_off_c, 0, 66, 69
2, 42015, Note_on_c, 0, 73, 64
2, 42075, Note_off_c, 0, 73, 74
2, 42075, Note_on_c, 0, 66, 64
2, 42135, Note_off_c, 0, 66, 57
2, 42135, Note_on_c, 0, 74, 64
2, 42195, Note_off_c, 0, 74, 46
2, 42195, Note_on_c, 0, 66, 64
2, 42255, Note_off_c, 0, 66, 59
2, 42255, Note_on_c, 0, 76, 64
2, 42315, Note_off_c, 0, 76, 45
2, 42315, Note_on_c, 0, 67, 64
2, 42375, Note_off_c, 0, 67, 21
2, 42375, Note_on_c, 0, 78, 64
2, 42435, Note_off_c, 0, 78, 48
2, 42435, Note_on_c, 0, 69, 64
2, 42495, Note_off_c, 0, 69, 58
2, 42495, Note_on_c, 0, 67, 64
2, 42555, Note_off_c, 0, 67, 23
2, 42555, Note_on_c, 0, 66, 64
2, 42615, Note_off_c, 0, 66, 52
2, 42615, Note_on_c, 0, 67, 64
2, 42675, Note_off_c, 0, 67, 31
2, 42675, Note_on_c, 0, 71, 64
2, 42735, Note_off_c, 0, 71, 50
2, 42735, Note_on_c, 0, 76, 64
2, 42795, Note_off_c, 0, 76, 48
2, 42795, Note_on_c, 0, 67, 64
2, 42855, Note_off_c, 0, 67, 34
2, 42855, Note_on_c, 0, 66, 64
2, 42915, Note_off_c, 0, 66, 49
2, 42915, Note_on_c, 0, 71, 64
2, 42975, Note_off_c, 0, 71, 69
2, 42975, Note_on_c, 0, 69, 64
2, 43035, Note_off_c, 0, 69, 49
2, 43035, Note_on_c, 0, 73, 64
2, 43095, Note_off_c, 0, 73, 59
2, 43095, Note_on_c, 0, 74, 64
2, 43335, Note_off_c, 0, 74, 65
2, 43335, Note_on_c, 0, 73, 64
2, 43575, Note_off_c, 0, 73, 52
2, 43575, Note_on_c, 0, 74, 64
2, 43695, Note_off_c, 0, 74, 52
2, 43695, Note_on_c, 0, 76, 64
2, 43755, Note_off_c, 0, 76, 55
2, 43755, Note_on_c, 0, 74, 64
2, 43815, Note_off_c, 0, 74, 52
2, 43815, Note_on_c, 0, 73, 64
2, 43875, Note_off_c, 0, 73, 62
2, 43875, Note_on_c, 0, 74, 64
2, 43935, Note_off_c, 0, 74, 63
2, 43935, Note_on_c, 0, 76, 64
2, 44055, Note_off_c, 0, 76, 66
2, 44055, Note_on_c, 0, 78, 64
2, 44115, Note_off_c, 0, 78, 65
2, 44115, Note_on_c, 0, 76, 64
2, 44175, Note_off_c, 0, 76, 50
2, 44175, Note_on_c, 0, 74, 64
2, 44235, Note_off_c, 0, 74, 52
2, 44235, Note_on_c, 0, 76, 64
2, 44295, Note_off_c, 0, 76, 50
2, 44295, Note_on_c, 0, 78, 64
2, 44415, Note_off_c, 0, 78, 63
2, 44415, Note_on_c, 0, 79, 64
2, 44475, Note_off_c, 0, 79, 63
2, 44475, Note_on_c, 0, 78, 64
2, 44535, Note_off_c, 0, 78, 59
2, 44535, Note_on_c, 0, 76, 64
2, 44595, Note_off_c, 0, 76, 51
2, 44595, Note_on_c, 0, 74, 64
2, 44655, Note_off_c, 0, 74, 49
2, 44655, Note_on_c, 0, 73, 64
2, 44775, Note_off_c, 0, 73, 72
2, 44775, Note_on_c, 0, 83, 64
2, 45075, Note_off_c, 0, 83, 59
2, 45075, Note_on_c, 0, 81, 64
2, 45135, Note_off_c, 0, 81, 62
2, 45135, Note_on_c, 0, 83, 64
2, 45195, Note_off_c, 0, 83, 66
2, 45195, Note_on_c, 0, 81, 64
2, 45255, Note_off_c, 0, 81, 59
2, 45255, Note_on_c, 0, 79, 64
2, 45315, Note_off_c, 0, 79, 72
2, 45315, Note_on_c, 0, 78, 64
2, 45375, Note_off_c, 0, 78, 62
2, 45375, Note_on_c, 0, 78, 72
2, 45397, Note_off_c, 0, 78, 52
2, 45397, Note_on_c, 0, 76, 46
2, 45419, Note_off_c, 0, 76, 54
2, 45419, Note_on_c, 0, 78, 46
2, 45441, Note_off_c, 0, 78, 69
2, 45441, Note_on_c, 0, 76, 47
2, 45463, Note_off_c, 0, 76, 51
2, 45463, Note_on_c, 0, 78, 47
2, 45485, Note_off_c, 0, 78, 65
2, 45485, Note_on_c, 0, 76, 48
2, 45507, Note_off_c, 0, 76, 49
2, 45507, Note_on_c, 0, 78, 48
2, 45529, Note_off_c, 0, 78, 69
2, 45529, Note_on_c, 0, 76, 49
2, 45551, Note_off_c, 0, 76, 47
2, 45551, Note_on_c, 0, 78, 50
2, 45573, Note_off_c, 0, 78, 65
2, 45573, Note_on_c, 0, 76, 50
2, 45595, Note_off_c, 0, 76, 53
2, 45595, Note_on_c, 0, 78, 51
2, 45617, Note_off_c, 0, 78, 65
2, 45617, Note_on_c, 0, 76, 51
2, 45639, Note_off_c, 0, 76, 51
2, 45639, Note_on_c, 0, 78, 52
2, 45661, Note_off_c, 0, 78, 58
2, 45661, Note_on_c, 0, 76, 52
2, 45683, Note_off_c, 0, 76, 52
2, 45683, Note_on_c, 0, 78, 53
2, 45705, Note_off_c, 0, 78, 57
2, 45705, Note_on_c, 0, 76, 54
2, 45727, Note_off_c, 0, 76, 49
2, 45727, Note_on_c, 0, 78, 54
2, 45749, Note_off_c, 0, 78, 65
2, 45749, Note_on_c, 0, 76, 55
2, 45771, Note_off_c, 0, 76, 53
2, 45771, Note_on_c, 0, 78, 55
2, 45793, Note_off_c, 0, 78, 66
2, 45793, Note_on_c, 0, 76, 56
2, 45815, Note_off_c, 0, 76, 48
2, 45815, Note_on_c, 0, 78, 57
2, 45837, Note_off_c, 0, 78, 63
2, 45837, Note_on_c, 0, 76, 57
2, 45859, Note_off_c, 0, 76, 52
2, 45859, Note_on_c, 0, 78, 58
2, 45881, Note_off_c, 0, 78, 62
2, 45881, Note_on_c, 0, 76, 58
2, 45903, Note_off_c, 0, 76, 51
2, 45903, Note_on_c, 0, 78, 59
2, 45925, Note_off_c, 0, 78, 69
2, 45925, Note_on_c, 0, 76, 59
2, 45947, Note_off_c, 0, 76, 49
2, 45947, Note_on_c, 0, 78, 60
2, 45969, Note_off_c, 0, 78, 66
2, 45969, Note_on_c, 0, 76, 61
2, 45991, Note_off_c, 0, 76, 49
2, 45991, Note_on_c, 0, 78, 61
2, 46013, Note_off_c, 0, 78, 65
2, 46013, Note_on_c, 0, 76, 62
2, 46035, Note_off_c, 0, 76, 51
2, 46035, Note_on_c, 0, 78, 62
2, 46057, Note_off_c, 0, 78, 66
2, 46057, Note_on_c, 0, 76, 63
2, 46079, Note_off_c, 0, 76, 58
2, 46079, Note_on_c, 0, 78, 63
2, 46101, Note_off_c, 0, 78, 66
2, 46101, Note_on_c, 0, 76, 50
2, 46155, Note_on_c, 0, 81, 68
2, 46161, Note_off_c, 0, 76, 52
2, 46185, Note_off_c, 0, 81, 49
2, 46185, Note_on_c, 0, 79, 64
2, 46215, Note_off_c, 0, 79, 55
2, 46215, Note_on_c, 0, 78, 64
2, 46275, Note_off_c, 0, 78, 65
2, 46275, Note_on_c, 0, 81, 64
2, 46335, Note_off_c, 0, 81, 58
2, 46335, Note_on_c, 0, 76, 64
2, 46395, Note_off_c, 0, 76, 46
2, 46395, Note_on_c, 0, 81, 64
2, 46455, Note_off_c, 0, 81, 54
2, 46455, Note_on_c, 0, 74, 64
2, 46515, Note_off_c, 0, 74, 54
2, 46515, Note_on_c, 0, 81, 64
2, 46575, Note_off_c, 0, 81, 55
2, 46575, Note_on_c, 0, 73, 64
2, 46635, Note_off_c, 0, 73, 49
2, 46635, Note_on_c, 0, 81, 64
2, 46695, Note_off_c, 0, 81, 51
2, 46695, Note_on_c, 0, 71, 64
2, 46755, Note_off_c, 0, 71, 53
2, 46755, Note_on_c, 0, 81, 64
2, 46815, Note_off_c, 0, 81, 47
2, 46815, Note_on_c, 0, 79, 64
2, 46875, Note_off_c, 0, 79, 54
2, 46875, Note_on_c, 0, 78, 64
2, 46935, Note_off_c, 0, 78, 69
2, 46935, Note_on_c, 0, 76, 64
2, 46995, Note_off_c, 0, 76, 52
2, 46995, Note_on_c, 0, 79, 64
2, 47055, Note_off_c, 0, 79, 52
2, 47055, Note_on_c, 0, 74, 64
2, 47115, Note_off_c, 0, 74, 52
2, 47115, Note_on_c, 0, 79, 64
2, 47175, Note_off_c, 0, 79, 47
2, 47175, Note_on_c, 0, 73, 64
2, 47235, Note_off_c, 0, 73, 66
2, 47235, Note_on_c, 0, 79, 64
2, 47295, Note_off_c, 0, 79, 57
2, 47295, Note_on_c, 0, 71, 64
2, 47355, Note_off_c, 0, 71, 54
2, 47355, Note_on_c, 0, 79, 64
2, 47415, Note_off_c, 0, 79, 53
2, 47415, Note_on_c, 0, 69, 64
2, 47475, Note_off_c, 0, 69, 55
2, 47475, Note_on_c, 0, 79, 64
2, 47535, Note_off_c, 0, 79, 46
2, 47535, Note_on_c, 0, 78, 64
2, 47595, Note_off_c, 0, 78, 68
2, 47595, Note_on_c, 0, 76, 64
2, 47655, Note_off_c, 0, 76, 46
2, 47655, Note_on_c, 0, 74, 64
2, 47715, Note_off_c, 0, 74, 53
2, 47715, Note_on_c, 0, 78, 64
2, 47775, Note_off_c, 0, 78, 51
2, 47775, Note_on_c, 0, 72, 64
2, 47835, Note_off_c, 0, 72, 62
2, 47835, Note_on_c, 0, 78, 64
2, 47895, Note_off_c, 0, 78, 40
2, 47895, Note_on_c, 0, 71, 64
2, 47955, Note_off_c, 0, 71, 50
2, 47955, Note_on_c, 0, 78, 64
2, 48015, Note_off_c, 0, 78, 52
2, 48015, Note_on_c, 0, 69, 64
2, 48075, Note_off_c, 0, 69, 49
2, 48075, Note_on_c, 0, 78, 64
2, 48135, Note_off_c, 0, 78, 50
2, 48135, Note_on_c, 0, 67, 64
2, 48195, Note_off_c, 0, 67, 43
2, 48195, Note_on_c, 0, 78, 64
2, 48255, Note_off_c, 0, 78, 40
2, 48255, Note_on_c, 0, 76, 64
2, 48315, Note_off_c, 0, 76, 49
2, 48315, Note_on_c, 0, 74, 64
2, 48375, Note_off_c, 0, 74, 74
2, 48375, Note_on_c, 0, 73, 64
2, 48435, Note_off_c, 0, 73, 57
2, 48435, Note_on_c, 0, 76, 64
2, 48495, Note_off_c, 0, 76, 43
2, 48495, Note_on_c, 0, 71, 64
2, 48555, Note_off_c, 0, 71, 61
2, 48555, Note_on_c, 0, 76, 64
2, 48615, Note_off_c, 0, 76, 52
2, 48615, Note_on_c, 0, 69, 64
2, 48675, Note_off_c, 0, 69, 50
2, 48675, Note_on_c, 0, 76, 64
2, 48735, Note_off_c, 0, 76, 46
2, 48735, Note_on_c, 0, 67, 64
2, 48795, Note_off_c, 0, 67, 41
2, 48795, Note_on_c, 0, 76, 64
2, 48855, Note_off_c, 0, 76, 47
2, 48855, Note_on_c, 0, 66, 64
2, 48915, Note_off_c, 0, 66, 49
2, 48915, Note_on_c, 0, 76, 64
2, 48975, Note_off_c, 0, 76, 45
2, 48975, Note_on_c, 0, 74, 64
2, 49035, Note_off_c, 0, 74, 66
2, 49035, Note_on_c, 0, 66, 64
2, 49095, Note_off_c, 0, 66, 55
2, 49095, Note_on_c, 0, 64, 64
2, 49155, Note_off_c, 0, 64, 21
2, 49155, Note_on_c, 0, 67, 64
2, 49215, Note_off_c, 0, 67, 42
2, 49215, Note_on_c, 0, 74, 64
2, 49275, Note_off_c, 0, 74, 51
2, 49275, Note_on_c, 0, 73, 64
2, 49335, Note_off_c, 0, 73, 65
2, 49335, Note_on_c, 0, 76, 72
2, 49357, Note_off_c, 0, 76, 57
2, 49357, Note_on_c, 0, 74, 46
2, 49379, Note_off_c, 0, 74, 72
2, 49379, Note_on_c, 0, 76, 46
2, 49401, Note_off_c, 0, 76, 57
2, 49401, Note_on_c, 0, 74, 46
2, 49423, Note_off_c, 0, 74, 70
2, 49423, Note_on_c, 0, 76, 47
2, 49445, Note_off_c, 0, 76, 52
2, 49445, Note_on_c, 0, 74, 47
2, 49467, Note_off_c, 0, 74, 73
2, 49467, Note_on_c, 0, 76, 47
2, 49489, Note_off_c, 0, 76, 54
2, 49489, Note_on_c, 0, 74, 48
2, 49511, Note_off_c, 0, 74, 73
2, 49511, Note_on_c, 0, 76, 48
2, 49533, Note_off_c, 0, 76, 57
2, 49533, Note_on_c, 0, 74, 49
2, 49555, Note_off_c, 0, 74, 73
2, 49555, Note_on_c, 0, 76, 49
2, 49577, Note_off_c, 0, 76, 55
2, 49577, Note_on_c, 0, 74, 49
2, 49599, Note_off_c, 0, 74, 73
2, 49599, Note_on_c, 0, 76, 50
2, 49621, Note_off_c, 0, 76, 53
2, 49621, Note_on_c, 0, 74, 50
2, 49643, Note_off_c, 0, 74, 69
2, 49643, Note_on_c, 0, 76, 50
2, 49665, Note_off_c, 0, 76, 52
2, 49665, Note_on_c, 0, 74, 51
2, 49687, Note_off_c, 0, 74, 70
2, 49687, Note_on_c, 0, 76, 51
2, 49709, Note_off_c, 0, 76, 53
2, 49709, Note_on_c, 0, 74, 51
2, 49731, Note_off_c, 0, 74, 70
2, 49731, Note_on_c, 0, 76, 52
2, 49753, Note_off_c, 0, 76, 52
2, 49753, Note_on_c, 0, 74, 52
2, 49775, Note_off_c, 0, 74, 66
2, 49775, Note_on_c, 0, 76, 52
2, 49797, Note_off_c, 0, 76, 51
2, 49797, Note_on_c, 0, 74, 53
2, 49819, Note_off_c, 0, 74, 68
2, 49819, Note_on_c, 0, 76, 53
2, 49841, Note_off_c, 0, 76, 49
2, 49841, Note_on_c, 0, 74, 54
2, 49863, Note_off_c, 0, 74, 63
2, 49863, Note_on_c, 0, 76, 54
2, 49885, Note_off_c, 0, 76, 50
2, 49885, Note_on_c, 0, 74, 54
2, 49907, Note_off_c, 0, 74, 68
2, 49907, Note_on_c, 0, 76, 55
2, 49929, Note_off_c, 0, 76, 46
2, 49929, Note_on_c, 0, 74, 55
2, 49951, Note_off_c, 0, 74, 68
2, 49951, Note_on_c, 0, 76, 55
2, 49973, Note_off_c, 0, 76, 49
2, 49973, Note_on_c, 0, 74, 56
2, 49995, Note_off_c, 0, 74, 61
2, 49995, Note_on_c, 0, 76, 56
2, 50017, Note_off_c, 0, 76, 43
2, 50017, Note_on_c, 0, 74, 56
2, 50039, Note_off_c, 0, 74, 58
2, 50039, Note_on_c, 0, 76, 57
2, 50061, Note_off_c, 0, 76, 50
2, 50061, Note_on_c, 0, 74, 57
2, 50083, Note_off_c, 0, 74, 66
2, 50083, Note_on_c, 0, 76, 58
2, 50105, Note_off_c, 0, 76, 49
2, 50105, Note_on_c, 0, 74, 58
2, 50127, Note_off_c, 0, 74, 68
2, 50127, Note_on_c, 0, 76, 58
2, 50149, Note_off_c, 0, 76, 49
2, 50149, Note_on_c, 0, 74, 59
2, 50171, Note_off_c, 0, 74, 72
2, 50171, Note_on_c, 0, 76, 59
2, 50193, Note_off_c, 0, 76, 49
2, 50193, Note_on_c, 0, 74, 59
2, 50215, Note_off_c, 0, 74, 70
2, 50215, Note_on_c, 0, 76, 60
2, 50237, Note_off_c, 0, 76, 48
2, 50237, Note_on_c, 0, 74, 60
2, 50259, Note_off_c, 0, 74, 57
2, 50259, Note_on_c, 0, 76, 60
2, 50281, Note_off_c, 0, 76, 43
2, 50281, Note_on_c, 0, 74, 61
2, 50303, Note_off_c, 0, 74, 65
2, 50303, Note_on_c, 0, 76, 61
2, 50325, Note_off_c, 0, 76, 38
2, 50325, Note_on_c, 0, 74, 62
2, 50347, Note_off_c, 0, 74, 62
2, 50347, Note_on_c, 0, 76, 62
2, 50369, Note_off_c, 0, 76, 46
2, 50369, Note_on_c, 0, 74, 62
2, 50391, Note_off_c, 0, 74, 58
2, 50391, Note_on_c, 0, 76, 63
2, 50413, Note_off_c, 0, 76, 45
2, 50413, Note_on_c, 0, 74, 63
2, 50435, Note_off_c, 0, 74, 54
2, 50435, Note_on_c, 0, 76, 63
2, 50457, Note_off_c, 0, 76, 42
2, 50457, Note_on_c, 0, 74, 62
2, 50517, Note_off_c, 0, 74, 58
2, 50535, Note_on_c, 0, 72, 64
2, 50895, Note_off_c, 0, 72, 77
2, 50895, Note_on_c, 0, 71, 64
2, 51255, Note_off_c, 0, 71, 70
2, 51255, Note_on_c, 0, 69, 64
2, 51495, Note_off_c, 0, 69, 68
2, 51555, Note_on_c, 0, 67, 64
2, 51615, Note_off_c, 0, 67, 37
2, 51615, Note_on_c, 0, 69, 64
2, 51675, Note_off_c, 0, 69, 61
2, 51675, Note_on_c, 0, 67, 64
2, 51735, Note_off_c, 0, 67, 47
2, 51735, Note_on_c, 0, 66, 64
2, 51795, Note_off_c, 0, 66, 58
2, 51795, Note_on_c, 0, 67, 64
2, 51855, Note_off_c, 0, 67, 55
2, 51855, Note_on_c, 0, 66, 64
2, 51915, Note_off_c, 0, 66, 59
2, 51915, Note_on_c, 0, 62, 64
2, 51945, Note_off_c, 0, 62, 39
2, 51945, Note_on_c, 0, 64, 64
2, 51975, Note_off_c, 0, 64, 46
2, 51975, Note_on_c, 0, 66, 64
2, 52035, Note_off_c, 0, 66, 63
2, 52035, Note_on_c, 0, 62, 64
2, 52095, Note_off_c, 0, 62, 44
2, 52095, Note_on_c, 0, 67, 64
2, 52155, Note_off_c, 0, 67, 62
2, 52155, Note_on_c, 0, 62, 64
2, 52215, Note_off_c, 0, 62, 48
2, 52215, Note_on_c, 0, 69, 64
2, 52275, Note_off_c, 0, 69, 76
2, 52275, Note_on_c, 0, 62, 64
2, 52335, Note_off_c, 0, 62, 49
2, 52335, Note_on_c, 0, 71, 64
2, 52395, Note_off_c, 0, 71, 63
2, 52395, Note_on_c, 0, 62, 64
2, 52455, Note_off_c, 0, 62, 35
2, 52455, Note_on_c, 0, 72, 64
2, 52515, Note_off_c, 0, 72, 73
2, 52515, Note_on_c, 0, 62, 64
2, 52575, Note_off_c, 0, 62, 43
2, 52575, Note_on_c, 0, 71, 64
2, 52635, Note_off_c, 0, 71, 74
2, 52635, Note_on_c, 0, 79, 64
2, 52695, Note_off_c, 0, 79, 68
2, 52695, Note_on_c, 0, 77, 64
2, 52755, Note_off_c, 0, 77, 73
2, 52755, Note_on_c, 0, 76, 64
2, 52815, Note_off_c, 0, 76, 55
2, 52815, Note_on_c, 0, 74, 64
2, 52875, Note_off_c, 0, 74, 58
2, 52875, Note_on_c, 0, 72, 64
2, 52935, Note_off_c, 0, 72, 63
2, 52935, Note_on_c, 0, 71, 64
2, 52995, Note_off_c, 0, 71, 68
2, 52995, Note_on_c, 0, 69, 64
2, 53055, Note_off_c, 0, 69, 66
2, 53055, Note_on_c, 0, 67, 64
2, 53115, Note_off_c, 0, 67, 52
2, 53115, Note_on_c, 0, 65, 64
2, 53175, Note_off_c, 0, 65, 6
2, 53175, Note_on_c, 0, 64, 64
2, 53235, Note_off_c, 0, 64, 38
2, 53235, Note_on_c, 0, 62, 64
2, 53295, Note_off_c, 0, 62, 48
2, 53295, Note_on_c, 0, 60, 64
2, 53355, Note_off_c, 0, 60, 59
2, 53355, Note_on_c, 0, 76, 64
2, 53415, Note_off_c, 0, 76, 47
2, 53415, Note_on_c, 0, 74, 64
2, 53475, Note_off_c, 0, 74, 72
2, 53475, Note_on_c, 0, 72, 64
2, 53535, Note_off_c, 0, 72, 55
2, 53535, Note_on_c, 0, 71, 64
2, 53595, Note_off_c, 0, 71, 68
2, 53595, Note_on_c, 0, 69, 64
2, 53655, Note_off_c, 0, 69, 66
2, 53655, Note_on_c, 0, 68, 64
2, 53715, Note_off_c, 0, 68, 65
2, 53715, Note_on_c, 0, 66, 64
2, 53775, Note_off_c, 0, 66, 49
2, 53775, Note_on_c, 0, 64, 64
2, 53835, Note_off_c, 0, 64, 45
2, 53835, Note_on_c, 0, 62, 64
2, 53895, Note_off_c, 0, 62, 46
2, 53895, Note_on_c, 0, 60, 64
2, 53955, Note_off_c, 0, 60, 57
2, 53955, Note_on_c, 0, 59, 64
2, 54015, Note_off_c, 0, 59, 34
2, 54015, Note_on_c, 0, 57, 64
2, 54075, Note_off_c, 0, 57, 37
2, 54075, Note_on_c, 0, 59, 64
2, 54135, Note_off_c, 0, 59, 51
2, 54135, Note_on_c, 0, 61, 64
2, 54195, Note_off_c, 0, 61, 62
2, 54195, Note_on_c, 0, 57, 64
2, 54255, Note_off_c, 0, 57, 45
2, 54255, Note_on_c, 0, 62, 64
2, 54315, Note_off_c, 0, 62, 59
2, 54315, Note_on_c, 0, 57, 64
2, 54375, Note_off_c, 0, 57, 40
2, 54375, Note_on_c, 0, 64, 64
2, 54435, Note_off_c, 0, 64, 43
2, 54435, Note_on_c, 0, 57, 64
2, 54495, Note_off_c, 0, 57, 43
2, 54495, Note_on_c, 0, 66, 64
2, 54555, Note_off_c, 0, 66, 70
2, 54555, Note_on_c, 0, 57, 64
2, 54615, Note_off_c, 0, 57, 43
2, 54615, Note_on_c, 0, 67, 64
2, 54675, Note_off_c, 0, 67, 52
2, 54675, Note_on_c, 0, 57, 64
2, 54735, Note_off_c, 0, 57, 38
2, 54735, Note_on_c, 0, 66, 64
2, 54855, Note_off_c, 0, 66, 69
2, 54855, Note_on_c, 0, 71, 64
2, 54975, Note_off_c, 0, 71, 74
2, 54975, Note_on_c, 0, 67, 64
2, 55095, Note_off_c, 0, 67, 58
2, 55095, Note_on_c, 0, 64, 64
2, 55215, Note_off_c, 0, 64, 37
2, 55215, Note_on_c, 0, 69, 64
2, 55335, Note_off_c, 0, 69, 73
2, 55335, Note_on_c, 0, 66, 64
2, 55455, Note_off_c, 0, 66, 70
2, 55455, Note_on_c, 0, 67, 64
2, 55875, Note_off_c, 0, 67, 55
2, 55875, Note_on_c, 0, 69, 64
2, 55925, Note_off_c, 0, 69, 76
2, 55927, Note_on_c, 0, 71, 72
2, 55949, Note_off_c, 0, 71, 65
2, 55949, Note_on_c, 0, 69, 48
2, 55971, Note_off_c, 0, 69, 65
2, 55971, Note_on_c, 0, 71, 53
2, 55993, Note_off_c, 0, 71, 77
2, 55993, Note_on_c, 0, 69, 58
2, 56015, Note_off_c, 0, 69, 73
2, 56015, Note_on_c, 0, 71, 63
2, 56037, Note_off_c, 0, 71, 74
2, 56037, Note_on_c, 0, 69, 79
2, 56115, Note_off_c, 0, 69, 76
2, 56115, Note_on_c, 0, 67, 68
2, 56145, Note_off_c, 0, 67, 58
2, 56145, Note_on_c, 0, 69, 64
2, 56175, Note_off_c, 0, 69, 72
2, 56175, Note_on_c, 0, 71, 64
2, 56295, Note_off_c, 0, 71, 72
2, 56295, Note_on_c, 0, 72, 64
2, 56355, Note_off_c, 0, 72, 77
2, 56355, Note_on_c, 0, 71, 64
2, 56415, Note_off_c, 0, 71, 73
2, 56415, Note_on_c, 0, 69, 64
2, 56475, Note_off_c, 0, 69, 73
2, 56475, Note_on_c, 0, 71, 64
2, 56535, Note_off_c, 0, 71, 79
2, 56535, Note_on_c, 0, 72, 64
2, 56655, Note_off_c, 0, 72, 85
2, 56655, Note_on_c, 0, 74, 64
2, 56715, Note_off_c, 0, 74, 72
2, 56715, Note_on_c, 0, 72, 64
2, 56775, Note_off_c, 0, 72, 77
2, 56775, Note_on_c, 0, 71, 64
2, 56835, Note_off_c, 0, 71, 76
2, 56835, Note_on_c, 0, 72, 64
2, 56895, Note_off_c, 0, 72, 79
2, 56895, Note_on_c, 0, 74, 64
2, 57015, Note_off_c, 0, 74, 70
2, 57015, Note_on_c, 0, 72, 64
2, 57135, Note_off_c, 0, 72, 76
2, 57135, Note_on_c, 0, 71, 64
2, 57255, Note_off_c, 0, 71, 76
2, 57255, Note_on_c, 0, 69, 64
2, 57375, Note_off_c, 0, 69, 54
2, 57375, Note_on_c, 0, 79, 64
2, 57615, Note_off_c, 0, 79, 63
2, 57615, Note_on_c, 0, 78, 64
2, 57735, Note_off_c, 0, 78, 53
2, 57735, Note_on_c, 0, 76, 64
2, 57855, Note_off_c, 0, 76, 52
2, 57855, Note_on_c, 0, 74, 64
2, 57975, Note_off_c, 0, 74, 69
2, 57975, Note_on_c, 0, 73, 64
2, 58095, Note_off_c, 0, 73, 74
2, 58095, Note_on_c, 0, 82, 64
2, 58335, Note_off_c, 0, 82, 69
2, 58335, Note_on_c, 0, 81, 64
2, 58395, Note_off_c, 0, 81, 62
2, 58395, Note_on_c, 0, 79, 64
2, 58455, Note_off_c, 0, 79, 54
2, 58455, Note_on_c, 0, 78, 64
2, 58515, Note_off_c, 0, 78, 51
2, 58515, Note_on_c, 0, 76, 64
2, 58575, Note_off_c, 0, 76, 34
2, 58575, Note_on_c, 0, 74, 64
2, 58695, Note_off_c, 0, 74, 43
2, 58755, Note_on_c, 0, 79, 64
2, 58875, Note_off_c, 0, 79, 69
2, 58875, Note_on_c, 0, 72, 64
2, 58935, Note_off_c, 0, 72, 52
2, 58935, Note_on_c, 0, 79, 64
2, 58995, Note_off_c, 0, 79, 66
2, 58995, Note_on_c, 0, 78, 64
2, 59055, Note_off_c, 0, 78, 61
2, 59055, Note_on_c, 0, 79, 64
2, 59115, Note_off_c, 0, 79, 69
2, 59115, Note_on_c, 0, 78, 64
2, 59145, Note_off_c, 0, 78, 52
2, 59145, Note_on_c, 0, 76, 64
2, 59175, Note_off_c, 0, 76, 47
2, 59175, Note_on_c, 0, 74, 64
2, 59235, Note_off_c, 0, 74, 42
2, 59235, Note_on_c, 0, 79, 64
2, 59295, Note_off_c, 0, 79, 46
2, 59295, Note_on_c, 0, 72, 64
2, 59355, Note_off_c, 0, 72, 39
2, 59355, Note_on_c, 0, 79, 64
2, 59415, Note_off_c, 0, 79, 49
2, 59415, Note_on_c, 0, 71, 64
2, 59535, Note_off_c, 0, 71, 55
2, 59535, Note_on_c, 0, 79, 64
2, 59655, Note_off_c, 0, 79, 51
2, 59655, Note_on_c, 0, 69, 64
2, 59775, Note_off_c, 0, 69, 42
2, 59775, Note_on_c, 0, 71, 64
2, 59835, Note_off_c, 0, 71, 43
2, 59835, Note_on_c, 0, 74, 64
2, 59865, Note_off_c, 0, 74, 59
2, 59865, Note_on_c, 0, 72, 64
2, 59895, Note_off_c, 0, 72, 73
2, 59895, Note_on_c, 0, 71, 64
2, 59955, Note_off_c, 0, 71, 46
2, 59955, Note_on_c, 0, 74, 64
2, 60015, Note_off_c, 0, 74, 59
2, 60015, Note_on_c, 0, 69, 64
2, 60075, Note_off_c, 0, 69, 44
2, 60075, Note_on_c, 0, 74, 64
2, 60135, Note_off_c, 0, 74, 49
2, 60135, Note_on_c, 0, 67, 64
2, 60255, Note_off_c, 0, 67, 34
2, 60255, Note_on_c, 0, 72, 64
2, 60525, Note_on_c, 0, 67, 64
2, 60555, Note_off_c, 0, 67, 40
2, 60555, Note_off_c, 0, 72, 66
2, 60555, Note_on_c, 0, 69, 64
2, 60585, Note_off_c, 0, 69, 54
2, 60585, Note_on_c, 0, 71, 64
2, 60615, Note_off_c, 0, 71, 66
2, 60615, Note_on_c, 0, 72, 64
2, 60675, Note_off_c, 0, 72, 65
2, 60675, Note_on_c, 0, 67, 64
2, 60735, Note_off_c, 0, 67, 32
2, 60735, Note_on_c, 0, 74, 64
2, 60795, Note_off_c, 0, 74, 62
2, 60795, Note_on_c, 0, 67, 64
2, 60855, Note_off_c, 0, 67, 32
2, 60855, Note_on_c, 0, 76, 64
2, 60885, Note_off_c, 0, 76, 43
2, 60885, Note_on_c, 0, 71, 64
2, 60915, Note_off_c, 0, 71, 50
2, 60915, Note_on_c, 0, 72, 64
2, 60945, Note_off_c, 0, 72, 55
2, 60945, Note_on_c, 0, 74, 64
2, 60975, Note_off_c, 0, 74, 47
2, 60975, Note_on_c, 0, 76, 64
2, 61035, Note_off_c, 0, 76, 53
2, 61035, Note_on_c, 0, 72, 64
2, 61095, Note_off_c, 0, 72, 42
2, 61095, Note_on_c, 0, 78, 64
2, 61155, Note_off_c, 0, 78, 61
2, 61155, Note_on_c, 0, 72, 64
2, 61215, Note_off_c, 0, 72, 53
2, 61215, Note_on_c, 0, 79, 64
2, 61515, Note_off_c, 0, 79, 66
2, 61515, Note_on_c, 0, 78, 64
2, 61575, Note_off_c, 0, 78, 51
2, 61575, Note_on_c, 0, 79, 64
2, 61935, Note_off_c, 0, 79, 73
2, 61935, End_track
3, 0, Start_track
3, 0, Text_t, "RH L/ LH H\226@\221"
3, 62, Unknown_event, 00x
3, 126, Unknown_event, 00x
3, 246, Note_off_c, 1, 62, 43
3, 246, Note_on_c, 1, 64, 64
3, 306, Note_off_c, 1, 64, 33
3, 306, Note_on_c, 1, 62, 64
3, 366, Note_off_c, 1, 62, 35
3, 366, Note_on_c, 1, 61, 64
3, 426, Note_off_c, 1, 61, 49
3, 426, Note_on_c, 1, 62, 64
3, 486, Note_off_c, 1, 62, 36
3, 486, Note_on_c, 1, 64, 64
3, 606, Note_off_c, 1, 64, 50
3, 606, Note_on_c, 1, 66, 64
3, 666, Note_off_c, 1, 66, 1
3, 666, Note_on_c, 1, 64, 64
3, 726, Note_off_c, 1, 64, 49
3, 726, Note_on_c, 1, 62, 64
3, 786, Note_off_c, 1, 62, 46
3, 786, Note_on_c, 1, 64, 64
3, 846, Note_off_c, 1, 64, 48
3, 846, Note_on_c, 1, 66, 64
3, 966, Note_off_c, 1, 66, 79
3, 966, Note_on_c, 1, 64, 64
3, 1086, Note_off_c, 1, 64, 51
3, 1086, Note_on_c, 1, 62, 64
3, 1206, Note_off_c, 1, 62, 49
3, 1206, Note_on_c, 1, 57, 64
3, 1326, Note_off_c, 1, 57, 9
3, 1326, Note_on_c, 1, 67, 64
3, 1566, Note_off_c, 1, 67, 55
3, 1566, Note_on_c, 1, 66, 64
3, 1686, Note_off_c, 1, 66, 65
3, 1686, Note_on_c, 1, 64, 64
3, 1806, Note_off_c, 1, 64, 50
3, 1806, Note_on_c, 1, 62, 64
3, 1926, Note_off_c, 1, 62, 61
3, 1926, Note_on_c, 1, 61, 64
3, 2046, Note_off_c, 1, 61, 68
3, 2046, Note_on_c, 1, 71, 64
3, 2286, Note_off_c, 1, 71, 69
3, 2286, Note_on_c, 1, 69, 64
3, 2406, Note_off_c, 1, 69, 70
3, 2406, Note_on_c, 1, 71, 64
3, 2466, Note_off_c, 1, 71, 69
3, 2466, Note_on_c, 1, 69, 64
3, 2526, Note_off_c, 1, 69, 72
3, 2526, Note_on_c, 1, 67, 64
3, 2586, Note_off_c, 1, 67, 49
3, 2586, Note_on_c, 1, 66, 64
3, 2646, Note_off_c, 1, 66, 65
3, 2646, Note_on_c, 1, 64, 64
3, 2766, Note_off_c, 1, 64, 46
3, 2766, Note_on_c, 1, 67, 64
3, 2826, Note_off_c, 1, 67, 54
3, 2826, Note_on_c, 1, 66, 64
3, 2886, Note_off_c, 1, 66, 69
3, 2886, Note_on_c, 1, 64, 64
3, 2946, Note_off_c, 1, 64, 46
3, 2946, Note_on_c, 1, 62, 64
3, 3006, Note_off_c, 1, 62, 48
3, 3006, Note_on_c, 1, 61, 64
3, 3126, Note_off_c, 1, 61, 61
3, 3126, Note_on_c, 1, 67, 64
3, 3246, Note_off_c, 1, 67, 54
3, 3246, Note_on_c, 1, 66, 64
3, 3366, Note_off_c, 1, 66, 69
3, 3366, Note_on_c, 1, 64, 64
3, 3486, Note_off_c, 1, 64, 49
3, 3486, Note_on_c, 1, 62, 64
3, 3606, Note_off_c, 1, 62, 49
3, 3606, Note_on_c, 1, 61, 64
3, 3726, Note_off_c, 1, 61, 55
3, 3726, Note_on_c, 1, 62, 64
3, 3786, Note_off_c, 1, 62, 48
3, 3786, Note_on_c, 1, 64, 64
3, 3846, Note_off_c, 1, 64, 49
3, 3846, Note_on_c, 1, 66, 64
3, 3906, Note_off_c, 1, 66, 66
3, 3906, Note_on_c, 1, 62, 64
3, 3966, Note_off_c, 1, 62, 52
3, 3966, Note_on_c, 1, 67, 64
3, 4026, Note_off_c, 1, 67, 52
3, 4026, Note_on_c, 1, 62, 64
3, 4086, Note_off_c, 1, 62, 34
3, 4086, Note_on_c, 1, 69, 64
3, 4146, Note_off_c, 1, 69, 63
3, 4146, Note_on_c, 1, 62, 64
3, 4206, Note_off_c, 1, 62, 36
3, 4206, Note_on_c, 1, 71, 64
3, 4266, Note_off_c, 1, 71, 66
3, 4266, Note_on_c, 1, 62, 64
3, 4326, Note_off_c, 1, 62, 32
3, 4326, Note_on_c, 1, 72, 64
3, 4386, Note_off_c, 1, 72, 72
3, 4386, Note_on_c, 1, 62, 64
3, 4446, Note_off_c, 1, 62, 30
3, 4446, Note_on_c, 1, 71, 64
3, 4806, Note_off_c, 1, 71, 74
3, 4806, Note_on_c, 1, 72, 64
3, 5286, Note_off_c, 1, 72, 73
3, 5286, Note_on_c, 1, 66, 64
3, 5406, Note_off_c, 1, 66, 53
3, 5406, Note_on_c, 1, 67, 64
3, 5646, Note_off_c, 1, 67, 57
3, 5646, Note_on_c, 1, 66, 64
3, 5706, Note_off_c, 1, 66, 63
3, 5706, Note_on_c, 1, 67, 64
3, 5766, Note_off_c, 1, 67, 46
3, 5766, Note_on_c, 1, 69, 64
3, 5826, Note_off_c, 1, 69, 69
3, 5826, Note_on_c, 1, 66, 64
3, 5886, Note_off_c, 1, 66, 66
3, 5886, Note_on_c, 1, 67, 64
3, 5946, Note_off_c, 1, 67, 48
3, 5946, Note_on_c, 1, 66, 64
3, 6006, Note_off_c, 1, 66, 70
3, 6006, Note_on_c, 1, 67, 64
3, 6066, Note_off_c, 1, 67, 58
3, 6066, Note_on_c, 1, 69, 64
3, 6126, Note_off_c, 1, 69, 53
3, 6126, Note_on_c, 1, 71, 64
3, 6186, Note_off_c, 1, 71, 58
3, 6186, Note_on_c, 1, 67, 64
3, 6246, Note_off_c, 1, 67, 38
3, 6246, Note_on_c, 1, 69, 64
3, 6306, Note_off_c, 1, 69, 58
3, 6306, Note_on_c, 1, 67, 64
3, 6366, Note_off_c, 1, 67, 26
3, 6366, Note_on_c, 1, 69, 64
3, 6426, Note_off_c, 1, 69, 58
3, 6426, Note_on_c, 1, 71, 64
3, 6486, Note_off_c, 1, 71, 62
3, 6486, Note_on_c, 1, 72, 64
3, 6546, Note_off_c, 1, 72, 69
3, 6546, Note_on_c, 1, 69, 64
3, 6606, Note_off_c, 1, 69, 53
3, 6606, Note_on_c, 1, 71, 64
3, 6726, Note_off_c, 1, 71, 58
3, 6726, Note_on_c, 1, 72, 64
3, 6786, Note_off_c, 1, 72, 73
3, 6786, Note_on_c, 1, 71, 64
3, 6846, Note_off_c, 1, 71, 69
3, 6846, Note_on_c, 1, 69, 64
3, 6906, Note_off_c, 1, 69, 58
3, 6906, Note_on_c, 1, 67, 64
3, 6966, Note_off_c, 1, 67, 48
3, 6966, Note_on_c, 1, 72, 64
3, 7386, Note_off_c, 1, 72, 73
3, 7386, Note_on_c, 1, 71, 64
3, 7446, Note_off_c, 1, 71, 63
3, 7446, Note_on_c, 1, 69, 64
3, 7506, Note_off_c, 1, 69, 40
3, 7506, Note_on_c, 1, 72, 64
3, 7566, Note_off_c, 1, 72, 68
3, 7566, Note_on_c, 1, 67, 64
3, 7626, Note_off_c, 1, 67, 35
3, 7626, Note_on_c, 1, 72, 64
3, 7686, Note_off_c, 1, 72, 72
3, 7686, Note_on_c, 1, 66, 64
3, 7746, Note_off_c, 1, 66, 43
3, 7746, Note_on_c, 1, 72, 64
3, 7806, Note_off_c, 1, 72, 80
3, 7806, Note_on_c, 1, 64, 64
3, 7866, Note_off_c, 1, 64, 45
3, 7866, Note_on_c, 1, 72, 64
3, 7926, Note_off_c, 1, 72, 57
3, 7926, Note_on_c, 1, 62, 64
3, 7986, Note_off_c, 1, 62, 30
3, 7986, Note_on_c, 1, 72, 64
3, 8046, Note_off_c, 1, 72, 58
3, 8046, Note_on_c, 1, 71, 64
3, 8166, Note_off_c, 1, 71, 70
3, 8166, Note_on_c, 1, 65, 64
3, 8286, Note_off_c, 1, 65, 1
3, 8286, Note_on_c, 1, 64, 64
3, 8406, Note_off_c, 1, 64, 40
3, 8406, Note_on_c, 1, 62, 64
3, 8526, Note_off_c, 1, 62, 43
3, 8526, Note_on_c, 1, 60, 64
3, 8646, Note_off_c, 1, 60, 52
3, 8646, Note_on_c, 1, 59, 64
3, 8766, Note_off_c, 1, 59, 40
3, 9006, Note_on_c, 1, 67, 64
3, 9126, Note_off_c, 1, 67, 54
3, 9126, Note_on_c, 1, 66, 64
3, 9716, Note_off_c, 1, 66, 68
3, 9729, Note_on_c, 1, 66, 64
3, 9849, Note_off_c, 1, 66, 66
3, 9849, Note_on_c, 1, 64, 64
3, 10439, Note_off_c, 1, 64, 52
3, 10452, Note_on_c, 1, 64, 64
3, 10572, Note_off_c, 1, 64, 50
3, 10572, Note_on_c, 1, 62, 64
3, 10932, Note_off_c, 1, 62, 49
3, 10932, Note_on_c, 1, 62, 64
3, 11052, Note_off_c, 1, 62, 37
3, 11052, Note_on_c, 1, 60, 64
3, 11112, Note_off_c, 1, 60, 52
3, 11112, Note_on_c, 1, 62, 64
3, 11172, Note_off_c, 1, 62, 52
3, 11172, Note_on_c, 1, 64, 64
3, 11232, Note_off_c, 1, 64, 53
3, 11232, Note_on_c, 1, 62, 64
3, 11292, Note_off_c, 1, 62, 51
3, 11292, Note_on_c, 1, 60, 64
3, 11412, Note_off_c, 1, 60, 49
3, 11412, Note_on_c, 1, 59, 64
3, 11472, Note_off_c, 1, 59, 52
3, 11472, Note_on_c, 1, 60, 64
3, 11532, Note_off_c, 1, 60, 55
3, 11532, Note_on_c, 1, 62, 64
3, 11592, Note_off_c, 1, 62, 53
3, 11592, Note_on_c, 1, 60, 64
3, 11652, Note_off_c, 1, 60, 50
3, 11652, Note_on_c, 1, 59, 64
3, 11772, Note_off_c, 1, 59, 49
3, 11772, Note_on_c, 1, 60, 64
3, 11892, Note_off_c, 1, 60, 55
3, 11892, Note_on_c, 1, 62, 64
3, 12012, Note_off_c, 1, 62, 53
3, 12012, Note_on_c, 1, 67, 64
3, 12132, Note_off_c, 1, 67, 46
3, 12132, Note_on_c, 1, 57, 64
3, 12372, Note_off_c, 1, 57, 46
3, 12372, Note_on_c, 1, 59, 64
3, 12492, Note_off_c, 1, 59, 35
3, 12492, Note_on_c, 1, 60, 64
3, 12612, Note_off_c, 1, 60, 50
3, 12612, Note_on_c, 1, 62, 64
3, 12732, Note_off_c, 1, 62, 53
3, 12732, Note_on_c, 1, 64, 64
3, 12852, Note_off_c, 1, 64, 57
3, 12852, Note_on_c, 1, 54, 64
3, 13092, Note_off_c, 1, 54, 57
3, 13092, Note_on_c, 1, 55, 64
3, 13202, Note_off_c, 1, 55, 36
3, 13215, Note_on_c, 1, 55, 64
3, 13275, Note_off_c, 1, 55, 52
3, 13275, Note_on_c, 1, 57, 64
3, 13335, Note_off_c, 1, 57, 40
3, 13335, Note_on_c, 1, 59, 64
3, 13395, Note_off_c, 1, 59, 50
3, 13395, Note_on_c, 1, 61, 64
3, 13455, Note_off_c, 1, 61, 59
3, 13455, Note_on_c, 1, 62, 64
3, 13575, Note_off_c, 1, 62, 57
3, 13575, Note_on_c, 1, 59, 64
3, 13635, Note_off_c, 1, 59, 40
3, 13635, Note_on_c, 1, 61, 64
3, 13695, Note_off_c, 1, 61, 59
3, 13695, Note_on_c, 1, 62, 64
3, 13755, Note_off_c, 1, 62, 43
3, 13755, Note_on_c, 1, 64, 64
3, 13815, Note_off_c, 1, 64, 49
3, 13815, Note_on_c, 1, 66, 64
3, 13935, Note_off_c, 1, 66, 59
3, 13935, Note_on_c, 1, 64, 64
3, 14055, Note_off_c, 1, 64, 58
3, 14055, Note_on_c, 1, 63, 64
3, 14175, Note_off_c, 1, 63, 54
3, 14175, Note_on_c, 1, 64, 64
3, 14295, Note_off_c, 1, 64, 46
3, 14295, Note_on_c, 1, 62, 64
3, 14415, Note_off_c, 1, 62, 24
3, 14415, Note_on_c, 1, 61, 64
3, 14535, Note_off_c, 1, 61, 57
3, 14535, Note_on_c, 1, 62, 64
3, 14655, Note_off_c, 1, 62, 53
3, 14655, Note_on_c, 1, 61, 64
3, 14715, Note_off_c, 1, 61, 65
3, 14715, Note_on_c, 1, 59, 64
3, 14775, Note_off_c, 1, 59, 46
3, 14775, Note_on_c, 1, 57, 64
3, 14835, Note_off_c, 1, 57, 35
3, 14835, Note_on_c, 1, 60, 64
3, 14895, Note_off_c, 1, 60, 54
3, 14895, Note_on_c, 1, 59, 64
3, 14955, Note_off_c, 1, 59, 47
3, 14955, Note_on_c, 1, 60, 64
3, 15015, Note_off_c, 1, 60, 61
3, 15015, Note_on_c, 1, 59, 64
3, 15075, Note_off_c, 1, 59, 53
3, 15075, Note_on_c, 1, 57, 64
3, 15135, Note_off_c, 1, 57, 48
3, 15135, Note_on_c, 1, 55, 64
3, 15195, Note_off_c, 1, 55, 51
3, 15195, Note_on_c, 1, 59, 64
3, 15255, Note_off_c, 1, 59, 59
3, 15255, Note_on_c, 1, 57, 64
3, 15315, Note_off_c, 1, 57, 51
3, 15315, Note_on_c, 1, 59, 64
3, 15375, Note_off_c, 1, 59, 53
3, 15375, Note_on_c, 1, 57, 64
3, 15435, Note_off_c, 1, 57, 52
3, 15435, Note_on_c, 1, 55, 64
3, 15495, Note_off_c, 1, 55, 53
3, 15495, Note_on_c, 1, 54, 64
3, 15555, Note_off_c, 1, 54, 51
3, 15555, Note_on_c, 1, 57, 64
3, 15615, Note_off_c, 1, 57, 53
3, 15615, Note_on_c, 1, 55, 64
3, 15675, Note_off_c, 1, 55, 58
3, 15675, Note_on_c, 1, 57, 64
3, 15735, Note_off_c, 1, 57, 51
3, 15735, Note_on_c, 1, 55, 64
3, 15795, Note_off_c, 1, 55, 54
3, 15795, Note_on_c, 1, 54, 64
3, 15855, Note_off_c, 1, 54, 51
3, 15855, Note_on_c, 1, 52, 64
3, 15915, Note_off_c, 1, 52, 52
3, 15915, Note_on_c, 1, 55, 64
3, 15975, Note_off_c, 1, 55, 62
3, 15975, Note_on_c, 1, 54, 64
3, 16035, Note_off_c, 1, 54, 61
3, 16035, Note_on_c, 1, 55, 64
3, 16095, Note_off_c, 1, 55, 49
3, 16095, Note_on_c, 1, 54, 64
3, 16155, Note_off_c, 1, 54, 38
3, 16155, Note_on_c, 1, 52, 64
3, 16215, Note_off_c, 1, 52, 49
3, 16215, Note_on_c, 1, 50, 64
3, 16275, Note_off_c, 1, 50, 40
3, 16275, Note_on_c, 1, 52, 64
3, 16335, Note_off_c, 1, 52, 52
3, 16335, Note_on_c, 1, 54, 64
3, 16395, Note_off_c, 1, 54, 66
3, 16395, Note_on_c, 1, 55, 64
3, 16455, Note_off_c, 1, 55, 55
3, 16455, Note_on_c, 1, 57, 64
3, 16515, Note_off_c, 1, 57, 49
3, 16515, Note_on_c, 1, 59, 64
3, 16575, Note_off_c, 1, 59, 47
3, 16575, Note_on_c, 1, 60, 64
3, 16635, Note_off_c, 1, 60, 63
3, 16635, Note_on_c, 1, 62, 64
3, 16695, Note_off_c, 1, 62, 52
3, 16695, Note_on_c, 1, 54, 64
3, 16815, Note_off_c, 1, 54, 66
3, 16815, Note_on_c, 1, 69, 64
3, 16935, Note_off_c, 1, 69, 57
3, 16935, Note_on_c, 1, 67, 64
3, 17175, Note_off_c, 1, 67, 53
3, 17175, Note_on_c, 1, 67, 64
3, 17295, Note_off_c, 1, 67, 49
3, 17295, Note_on_c, 1, 66, 64
3, 17415, Note_off_c, 1, 66, 59
3, 17415, Note_on_c, 1, 67, 64
3, 17535, Note_off_c, 1, 67, 59
3, 19095, Note_on_c, 1, 62, 64
3, 19215, Note_off_c, 1, 62, 45
3, 19215, Note_on_c, 1, 61, 64
3, 19335, Note_off_c, 1, 61, 69
3, 19815, Note_on_c, 1, 61, 64
3, 19935, Note_off_c, 1, 61, 59
3, 19935, Note_on_c, 1, 59, 64
3, 20055, Note_off_c, 1, 59, 41
3, 20535, Note_on_c, 1, 59, 64
3, 20655, Note_off_c, 1, 59, 43
3, 20655, Note_on_c, 1, 57, 64
3, 20775, Note_off_c, 1, 57, 46
3, 25395, Note_on_c, 1, 63, 64
3, 25455, Note_off_c, 1, 63, 49
3, 25455, Note_on_c, 1, 64, 64
3, 25515, Note_off_c, 1, 64, 38
3, 25515, Note_on_c, 1, 66, 64
3, 25575, Note_off_c, 1, 66, 70
3, 25575, Note_on_c, 1, 67, 64
3, 25635, Note_off_c, 1, 67, 55
3, 25635, Note_on_c, 1, 64, 64
3, 25695, Note_off_c, 1, 64, 39
3, 25695, Note_on_c, 1, 66, 64
3, 25755, Note_off_c, 1, 66, 74
3, 25755, Note_on_c, 1, 64, 64
3, 25815, Note_off_c, 1, 64, 44
3, 25815, Note_on_c, 1, 66, 64
3, 25875, Note_off_c, 1, 66, 69
3, 25875, Note_on_c, 1, 67, 64
3, 25935, Note_off_c, 1, 67, 52
3, 25935, Note_on_c, 1, 69, 64
3, 25995, Note_off_c, 1, 69, 72
3, 25995, Note_on_c, 1, 66, 64
3, 26055, Note_off_c, 1, 66, 72
3, 26055, Note_on_c, 1, 67, 64
3, 26175, Note_off_c, 1, 67, 59
3, 26175, Note_on_c, 1, 69, 64
3, 26235, Note_off_c, 1, 69, 76
3, 26235, Note_on_c, 1, 67, 64
3, 26295, Note_off_c, 1, 67, 52
3, 26295, Note_on_c, 1, 66, 64
3, 26355, Note_off_c, 1, 66, 47
3, 26355, Note_on_c, 1, 64, 64
3, 26415, Note_off_c, 1, 64, 23
3, 26415, Note_on_c, 1, 69, 64
3, 26835, Note_off_c, 1, 69, 73
3, 26835, Note_on_c, 1, 67, 64
3, 26895, Note_off_c, 1, 67, 46
3, 26895, Note_on_c, 1, 66, 64
3, 26955, Note_off_c, 1, 66, 66
3, 26955, Note_on_c, 1, 69, 64
3, 27015, Note_off_c, 1, 69, 76
3, 27015, Note_on_c, 1, 64, 64
3, 27075, Note_off_c, 1, 64, 37
3, 27075, Note_on_c, 1, 69, 64
3, 27135, Note_off_c, 1, 69, 61
3, 27135, Note_on_c, 1, 63, 64
3, 27195, Note_off_c, 1, 63, 30
3, 27195, Note_on_c, 1, 69, 64
3, 27255, Note_off_c, 1, 69, 65
3, 27255, Note_on_c, 1, 61, 64
3, 27315, Note_off_c, 1, 61, 49
3, 27315, Note_on_c, 1, 69, 64
3, 27375, Note_off_c, 1, 69, 69
3, 27375, Note_on_c, 1, 59, 64
3, 27435, Note_off_c, 1, 59, 30
3, 27435, Note_on_c, 1, 69, 64
3, 27495, Note_off_c, 1, 69, 40
3, 27495, Note_on_c, 1, 67, 64
3, 27615, Note_off_c, 1, 67, 57
3, 27615, Note_on_c, 1, 66, 64
3, 27675, Note_off_c, 1, 66, 70
3, 27675, Note_on_c, 1, 67, 64
3, 27735, Note_off_c, 1, 67, 54
3, 27735, Note_on_c, 1, 69, 64
3, 27795, Note_off_c, 1, 69, 65
3, 27795, Note_on_c, 1, 67, 64
3, 27855, Note_off_c, 1, 67, 59
3, 27855, Note_on_c, 1, 66, 64
3, 27975, Note_off_c, 1, 66, 72
3, 27975, Note_on_c, 1, 64, 64
3, 28035, Note_off_c, 1, 64, 51
3, 28035, Note_on_c, 1, 66, 64
3, 28095, Note_off_c, 1, 66, 72
3, 28095, Note_on_c, 1, 67, 64
3, 28155, Note_off_c, 1, 67, 48
3, 28155, Note_on_c, 1, 66, 64
3, 28215, Note_off_c, 1, 66, 68
3, 28215, Note_on_c, 1, 64, 64
3, 28335, Note_off_c, 1, 64, 48
3, 28335, Note_on_c, 1, 66, 64
3, 28455, Note_off_c, 1, 66, 72
3, 28455, Note_on_c, 1, 67, 64
3, 28575, Note_off_c, 1, 67, 63
3, 28575, Note_on_c, 1, 72, 64
3, 28695, Note_off_c, 1, 72, 83
3, 28695, Note_on_c, 1, 63, 64
3, 28935, Note_off_c, 1, 63, 51
3, 28935, Note_on_c, 1, 64, 64
3, 29055, Note_off_c, 1, 64, 45
3, 29055, Note_on_c, 1, 66, 64
3, 29175, Note_off_c, 1, 66, 69
3, 29175, Note_on_c, 1, 67, 64
3, 29295, Note_off_c, 1, 67, 49
3, 29295, Note_on_c, 1, 69, 64
3, 29415, Note_off_c, 1, 69, 77
3, 29415, Note_on_c, 1, 59, 64
3, 29655, Note_off_c, 1, 59, 72
3, 29655, Note_on_c, 1, 60, 64
3, 29715, Note_off_c, 1, 60, 63
3, 29715, Note_on_c, 1, 59, 64
3, 29775, Note_off_c, 1, 59, 50
3, 29775, Note_on_c, 1, 57, 64
3, 29835, Note_off_c, 1, 57, 51
3, 29835, Note_on_c, 1, 59, 64
3, 29895, Note_off_c, 1, 59, 52
3, 29895, Note_on_c, 1, 60, 64
3, 29955, Note_off_c, 1, 60, 55
3, 29955, Note_on_c, 1, 62, 64
3, 30015, Note_off_c, 1, 62, 52
3, 30015, Note_on_c, 1, 64, 64
3, 30075, Note_off_c, 1, 64, 52
3, 30075, Note_on_c, 1, 63, 64
3, 30135, Note_off_c, 1, 63, 52
3, 30135, Note_on_c, 1, 64, 64
3, 30195, Note_off_c, 1, 64, 48
3, 30195, Note_on_c, 1, 66, 64
3, 30255, Note_off_c, 1, 66, 69
3, 30255, Note_on_c, 1, 67, 64
3, 30315, Note_off_c, 1, 67, 55
3, 30315, Note_on_c, 1, 69, 64
3, 30375, Note_off_c, 1, 69, 74
3, 30375, Note_on_c, 1, 71, 64
3, 30855, Note_off_c, 1, 71, 46
3, 30855, Note_on_c, 1, 72, 64
3, 30975, Note_off_c, 1, 72, 70
3, 30975, Note_on_c, 1, 66, 64
3, 31095, Note_off_c, 1, 66, 59
3, 31095, Note_on_c, 1, 64, 64
3, 31155, Note_off_c, 1, 64, 48
3, 31155, Note_on_c, 1, 66, 64
3, 31215, Note_off_c, 1, 66, 72
3, 31215, Note_on_c, 1, 67, 64
3, 31515, Note_off_c, 1, 67, 55
3, 31515, Note_on_c, 1, 66, 64
3, 31575, Note_off_c, 1, 66, 69
3, 31575, Note_on_c, 1, 64, 64
3, 31635, Note_off_c, 1, 64, 31
3, 31635, Note_on_c, 1, 62, 64
3, 31695, Note_off_c, 1, 62, 40
3, 31695, Note_on_c, 1, 61, 64
3, 31755, Note_off_c, 1, 61, 62
3, 31755, Note_on_c, 1, 64, 64
3, 31815, Note_off_c, 1, 64, 58
3, 31815, Note_on_c, 1, 62, 64
3, 31875, Note_off_c, 1, 62, 50
3, 31875, Note_on_c, 1, 64, 64
3, 31935, Note_off_c, 1, 64, 47
3, 31935, Note_on_c, 1, 66, 64
3, 32235, Note_off_c, 1, 66, 69
3, 32235, Note_on_c, 1, 64, 64
3, 32295, Note_off_c, 1, 64, 46
3, 32295, Note_on_c, 1, 62, 64
3, 32355, Note_off_c, 1, 62, 39
3, 32355, Note_on_c, 1, 61, 64
3, 32415, Note_off_c, 1, 61, 59
3, 32415, Note_on_c, 1, 59, 64
3, 32475, Note_off_c, 1, 59, 49
3, 32475, Note_on_c, 1, 62, 64
3, 32535, Note_off_c, 1, 62, 58
3, 32535, Note_on_c, 1, 61, 64
3, 32595, Note_off_c, 1, 61, 50
3, 32595, Note_on_c, 1, 62, 64
3, 32655, Note_off_c, 1, 62, 52
3, 32655, Note_on_c, 1, 64, 64
3, 32955, Note_off_c, 1, 64, 49
3, 32955, Note_on_c, 1, 62, 64
3, 33015, Note_off_c, 1, 62, 49
3, 33015, Note_on_c, 1, 61, 64
3, 33075, Note_off_c, 1, 61, 43
3, 33075, Note_on_c, 1, 59, 64
3, 33135, Note_off_c, 1, 59, 24
3, 33135, Note_on_c, 1, 58, 64
3, 33195, Note_off_c, 1, 58, 53
3, 33195, Note_on_c, 1, 61, 64
3, 33255, Note_off_c, 1, 61, 63
3, 33255, Note_on_c, 1, 59, 64
3, 33375, Note_off_c, 1, 59, 43
3, 36915, Note_on_c, 1, 61, 64
3, 36975, Note_off_c, 1, 61, 55
3, 36975, Note_on_c, 1, 62, 64
3, 37035, Note_off_c, 1, 62, 47
3, 37035, Note_on_c, 1, 59, 64
3, 37095, Note_off_c, 1, 59, 37
3, 37095, Note_on_c, 1, 64, 64
3, 37155, Note_off_c, 1, 64, 52
3, 37155, Note_on_c, 1, 59, 64
3, 37215, Note_off_c, 1, 59, 41
3, 37215, Note_on_c, 1, 66, 64
3, 37275, Note_off_c, 1, 66, 73
3, 37275, Note_on_c, 1, 59, 64
3, 37335, Note_off_c, 1, 59, 49
3, 37335, Note_on_c, 1, 68, 64
3, 37395, Note_off_c, 1, 68, 69
3, 37395, Note_on_c, 1, 59, 64
3, 37455, Note_off_c, 1, 59, 34
3, 37455, Note_on_c, 1, 69, 64
3, 37515, Note_off_c, 1, 69, 73
3, 37515, Note_on_c, 1, 59, 64
3, 37575, Note_off_c, 1, 59, 27
3, 37575, Note_on_c, 1, 68, 64
3, 37695, Note_off_c, 1, 68, 76
3, 37695, Note_on_c, 1, 64, 64
3, 37815, Note_off_c, 1, 64, 50
3, 37815, Note_on_c, 1, 66, 64
3, 37935, Note_off_c, 1, 66, 85
3, 37935, Note_on_c, 1, 68, 64
3, 38055, Note_off_c, 1, 68, 72
3, 38055, Note_on_c, 1, 69, 64
3, 38175, Note_off_c, 1, 69, 70
3, 38175, Note_on_c, 1, 71, 64
3, 38295, Note_off_c, 1, 71, 76
3, 38295, Note_on_c, 1, 64, 64
3, 38475, Note_off_c, 1, 64, 55
3, 38475, Note_on_c, 1, 62, 64
3, 38535, Note_off_c, 1, 62, 50
3, 38535, Note_on_c, 1, 61, 64
3, 38595, Note_off_c, 1, 61, 53
3, 38595, Note_on_c, 1, 59, 64
3, 38655, Note_off_c, 1, 59, 55
3, 38655, Note_on_c, 1, 57, 64
3, 38715, Note_off_c, 1, 57, 42
3, 38715, Note_on_c, 1, 59, 64
3, 38775, Note_off_c, 1, 59, 59
3, 38775, Note_on_c, 1, 57, 64
3, 38835, Note_off_c, 1, 57, 48
3, 38835, Note_on_c, 1, 55, 64
3, 38895, Note_off_c, 1, 55, 69
3, 38895, Note_on_c, 1, 54, 64
3, 38955, Note_off_c, 1, 54, 55
3, 38955, Note_on_c, 1, 52, 64
3, 39015, Note_off_c, 1, 52, 58
3, 40215, Note_on_c, 1, 52, 64
3, 40275, Note_off_c, 1, 52, 63
3, 40275, Note_on_c, 1, 50, 64
3, 40335, Note_off_c, 1, 50, 23
3, 40335, Note_on_c, 1, 49, 64
3, 40395, Note_off_c, 1, 49, 58
3, 40395, Note_on_c, 1, 50, 64
3, 40455, Note_off_c, 1, 50, 54
3, 40455, Note_on_c, 1, 52, 64
3, 40575, Note_off_c, 1, 52, 69
3, 40575, Note_on_c, 1, 54, 64
3, 40635, Note_off_c, 1, 54, 61
3, 40635, Note_on_c, 1, 52, 64
3, 40695, Note_off_c, 1, 52, 66
3, 40695, Note_on_c, 1, 50, 64
3, 40755, Note_off_c, 1, 50, 49
3, 40755, Note_on_c, 1, 52, 64
3, 40815, Note_off_c, 1, 52, 61
3, 40815, Note_on_c, 1, 54, 64
3, 40935, Note_off_c, 1, 54, 62
3, 40935, Note_on_c, 1, 52, 64
3, 41055, Note_off_c, 1, 52, 68
3, 41055, Note_on_c, 1, 50, 64
3, 41175, Note_off_c, 1, 50, 27
3, 41175, Note_on_c, 1, 49, 64
3, 41295, Note_off_c, 1, 49, 63
3, 41295, Note_on_c, 1, 59, 64
3, 41535, Note_off_c, 1, 59, 38
3, 41535, Note_on_c, 1, 57, 64
3, 41655, Note_off_c, 1, 57, 52
3, 41655, Note_on_c, 1, 59, 64
3, 41715, Note_off_c, 1, 59, 37
3, 41715, Note_on_c, 1, 57, 64
3, 41775, Note_off_c, 1, 57, 49
3, 41775, Note_on_c, 1, 55, 64
3, 41835, Note_off_c, 1, 55, 58
3, 41835, Note_on_c, 1, 54, 64
3, 41895, Note_off_c, 1, 54, 49
3, 41895, Note_on_c, 1, 52, 64
3, 42015, Note_off_c, 1, 52, 49
3, 42015, Note_on_c, 1, 55, 64
3, 42075, Note_off_c, 1, 55, 61
3, 42075, Note_on_c, 1, 54, 64
3, 42135, Note_off_c, 1, 54, 61
3, 42135, Note_on_c, 1, 52, 64
3, 42195, Note_off_c, 1, 52, 52
3, 42195, Note_on_c, 1, 50, 64
3, 42255, Note_off_c, 1, 50, 63
3, 42255, Note_on_c, 1, 49, 64
3, 42495, Note_off_c, 1, 49, 68
3, 42495, Note_on_c, 1, 50, 64
3, 42675, Note_off_c, 1, 50, 66
3, 42675, Note_on_c, 1, 55, 64
3, 42705, Note_off_c, 1, 55, 48
3, 42705, Note_on_c, 1, 54, 64
3, 42735, Note_off_c, 1, 54, 52
3, 42735, Note_on_c, 1, 52, 64
3, 42795, Note_off_c, 1, 52, 63
3, 42795, Note_on_c, 1, 55, 64
3, 42855, Note_off_c, 1, 55, 63
3, 42855, Note_on_c, 1, 50, 64
3, 42915, Note_off_c, 1, 50, 43
3, 42915, Note_on_c, 1, 55, 64
3, 42975, Note_off_c, 1, 55, 69
3, 42975, Note_on_c, 1, 49, 64
3, 43035, Note_off_c, 1, 49, 66
3, 43035, Note_on_c, 1, 55, 64
3, 43095, Note_off_c, 1, 55, 47
3, 43095, Note_on_c, 1, 47, 64
3, 43155, Note_off_c, 1, 47, 39
3, 43155, Note_on_c, 1, 55, 64
3, 43215, Note_off_c, 1, 55, 51
3, 43215, Note_on_c, 1, 45, 64
3, 43275, Note_off_c, 1, 45, 34
3, 43275, Note_on_c, 1, 55, 64
3, 43335, Note_off_c, 1, 55, 66
3, 43335, Note_on_c, 1, 54, 64
3, 43395, Note_off_c, 1, 54, 51
3, 43395, Note_on_c, 1, 55, 64
3, 43455, Note_off_c, 1, 55, 59
3, 43455, Note_on_c, 1, 57, 64
3, 43755, Note_off_c, 1, 57, 53
3, 43755, Note_on_c, 1, 55, 64
3, 43815, Note_off_c, 1, 55, 66
3, 43815, Note_on_c, 1, 54, 64
3, 43875, Note_off_c, 1, 54, 40
3, 43875, Note_on_c, 1, 52, 64
3, 43935, Note_off_c, 1, 52, 45
3, 43935, Note_on_c, 1, 50, 64
3, 43995, Note_off_c, 1, 50, 35
3, 43995, Note_on_c, 1, 54, 64
3, 44055, Note_off_c, 1, 54, 46
3, 44055, Note_on_c, 1, 52, 64
3, 44115, Note_off_c, 1, 52, 54
3, 44115, Note_on_c, 1, 54, 64
3, 44175, Note_off_c, 1, 54, 51
3, 44175, Note_on_c, 1, 55, 64
3, 44475, Note_off_c, 1, 55, 59
3, 44475, Note_on_c, 1, 54, 64
3, 44535, Note_off_c, 1, 54, 52
3, 44535, Note_on_c, 1, 52, 64
3, 44595, Note_off_c, 1, 52, 38
3, 44595, Note_on_c, 1, 50, 64
3, 44655, Note_off_c, 1, 50, 38
3, 44655, Note_on_c, 1, 49, 64
3, 44715, Note_off_c, 1, 49, 55
3, 44715, Note_on_c, 1, 52, 64
3, 44775, Note_off_c, 1, 52, 76
3, 44775, Note_on_c, 1, 50, 64
3, 44835, Note_off_c, 1, 50, 36
3, 44835, Note_on_c, 1, 52, 64
3, 44895, Note_off_c, 1, 52, 65
3, 44895, Note_on_c, 1, 54, 64
3, 45195, Note_off_c, 1, 54, 57
3, 45195, Note_on_c, 1, 47, 64
3, 45255, Note_off_c, 1, 47, 34
3, 45255, Note_on_c, 1, 49, 64
3, 45315, Note_off_c, 1, 49, 65
3, 45315, Note_on_c, 1, 50, 64
3, 45375, Note_off_c, 1, 50, 48
3, 45375, Note_on_c, 1, 52, 64
3, 45435, Note_off_c, 1, 52, 55
3, 45435, Note_on_c, 1, 54, 64
3, 45495, Note_off_c, 1, 54, 68
3, 45495, Note_on_c, 1, 55, 64
3, 45555, Note_off_c, 1, 55, 46
3, 45555, Note_on_c, 1, 57, 64
3, 45615, Note_off_c, 1, 57, 43
3, 45615, Note_on_c, 1, 55, 64
3, 45675, Note_off_c, 1, 55, 69
3, 45675, Note_on_c, 1, 54, 64
3, 45735, Note_off_c, 1, 54, 41
3, 45735, Note_on_c, 1, 52, 64
3, 45795, Note_off_c, 1, 52, 54
3, 45795, Note_on_c, 1, 50, 64
3, 45855, Note_off_c, 1, 50, 36
3, 45855, Note_on_c, 1, 49, 64
3, 45975, Note_off_c, 1, 49, 59
3, 47355, Note_on_c, 1, 67, 64
3, 47415, Note_off_c, 1, 67, 52
3, 47415, Note_on_c, 1, 65, 64
3, 47475, Note_off_c, 1, 65, 1
3, 47475, Note_on_c, 1, 64, 64
3, 47535, Note_off_c, 1, 64, 41
3, 47535, Note_on_c, 1, 62, 64
3, 47595, Note_off_c, 1, 62, 46
3, 47595, Note_on_c, 1, 65, 64
3, 47655, Note_off_c, 1, 65, 52
3, 47655, Note_on_c, 1, 64, 64
3, 47715, Note_off_c, 1, 64, 51
3, 47715, Note_on_c, 1, 65, 64
3, 47775, Note_off_c, 1, 65, 53
3, 47775, Note_on_c, 1, 64, 64
3, 47835, Note_off_c, 1, 64, 51
3, 47835, Note_on_c, 1, 62, 64
3, 47895, Note_off_c, 1, 62, 59
3, 47895, Note_on_c, 1, 60, 64
3, 47955, Note_off_c, 1, 60, 55
3, 47955, Note_on_c, 1, 64, 64
3, 48015, Note_off_c, 1, 64, 46
3, 48015, Note_on_c, 1, 62, 64
3, 48075, Note_off_c, 1, 62, 52
3, 48075, Note_on_c, 1, 64, 64
3, 48135, Note_off_c, 1, 64, 52
3, 48135, Note_on_c, 1, 62, 64
3, 48195, Note_off_c, 1, 62, 38
3, 48195, Note_on_c, 1, 60, 64
3, 48255, Note_off_c, 1, 60, 61
3, 48255, Note_on_c, 1, 59, 64
3, 48315, Note_off_c, 1, 59, 52
3, 48315, Note_on_c, 1, 62, 64
3, 48375, Note_off_c, 1, 62, 53
3, 48375, Note_on_c, 1, 60, 64
3, 48435, Note_off_c, 1, 60, 54
3, 48435, Note_on_c, 1, 62, 64
3, 48495, Note_off_c, 1, 62, 51
3, 48495, Note_on_c, 1, 60, 64
3, 48555, Note_off_c, 1, 60, 55
3, 48555, Note_on_c, 1, 59, 64
3, 48615, Note_off_c, 1, 59, 51
3, 48615, Note_on_c, 1, 57, 64
3, 48675, Note_off_c, 1, 57, 43
3, 48675, Note_on_c, 1, 60, 64
3, 48735, Note_off_c, 1, 60, 51
3, 48735, Note_on_c, 1, 59, 64
3, 49095, Note_off_c, 1, 59, 57
3, 49095, Note_on_c, 1, 57, 64
3, 49215, Note_off_c, 1, 57, 30
3, 51975, Note_on_c, 1, 62, 64
3, 52095, Note_off_c, 1, 62, 53
3, 52095, Note_on_c, 1, 60, 64
3, 52155, Note_off_c, 1, 60, 54
3, 52155, Note_on_c, 1, 62, 64
3, 52215, Note_off_c, 1, 62, 53
3, 52215, Note_on_c, 1, 64, 64
3, 52275, Note_off_c, 1, 64, 52
3, 52275, Note_on_c, 1, 62, 64
3, 52335, Note_off_c, 1, 62, 52
3, 52335, Note_on_c, 1, 60, 64
3, 52455, Note_off_c, 1, 60, 45
3, 52455, Note_on_c, 1, 59, 64
3, 52515, Note_off_c, 1, 59, 57
3, 52515, Note_on_c, 1, 60, 64
3, 52575, Note_off_c, 1, 60, 54
3, 52575, Note_on_c, 1, 62, 64
3, 52635, Note_off_c, 1, 62, 52
3, 52635, Note_on_c, 1, 60, 64
3, 52695, Note_off_c, 1, 60, 54
3, 52695, Note_on_c, 1, 59, 64
3, 52815, Note_off_c, 1, 59, 50
3, 52815, Note_on_c, 1, 60, 64
3, 52935, Note_off_c, 1, 60, 61
3, 52935, Note_on_c, 1, 62, 64
3, 53055, Note_off_c, 1, 62, 66
3, 53055, Note_on_c, 1, 64, 64
3, 53175, Note_off_c, 1, 64, 55
3, 53175, Note_on_c, 1, 54, 64
3, 53415, Note_off_c, 1, 54, 61
3, 53415, Note_on_c, 1, 55, 64
3, 53535, Note_off_c, 1, 55, 65
3, 53535, Note_on_c, 1, 69, 64
3, 53595, Note_off_c, 1, 69, 77
3, 53595, Note_on_c, 1, 67, 64
3, 53655, Note_off_c, 1, 67, 51
3, 53655, Note_on_c, 1, 66, 64
3, 53715, Note_off_c, 1, 66, 59
3, 53715, Note_on_c, 1, 67, 64
3, 53775, Note_off_c, 1, 67, 62
3, 53775, Note_on_c, 1, 69, 64
3, 53895, Note_off_c, 1, 69, 74
3, 53895, Note_on_c, 1, 71, 64
3, 53955, Note_off_c, 1, 71, 80
3, 53955, Note_on_c, 1, 69, 64
3, 54015, Note_off_c, 1, 69, 73
3, 54015, Note_on_c, 1, 67, 64
3, 54075, Note_off_c, 1, 67, 42
3, 54075, Note_on_c, 1, 69, 64
3, 54135, Note_off_c, 1, 69, 77
3, 54135, Note_on_c, 1, 71, 64
3, 54255, Note_off_c, 1, 71, 77
3, 54255, Note_on_c, 1, 69, 64
3, 54375, Note_off_c, 1, 69, 73
3, 54375, Note_on_c, 1, 67, 64
3, 54615, Note_off_c, 1, 67, 58
3, 54615, Note_on_c, 1, 74, 64
3, 54735, Note_off_c, 1, 74, 65
3, 54735, Note_on_c, 1, 73, 64
3, 54855, Note_off_c, 1, 73, 66
3, 54855, Note_on_c, 1, 74, 64
3, 54975, Note_off_c, 1, 74, 68
3, 54975, Note_on_c, 1, 67, 64
3, 55095, Note_off_c, 1, 67, 29
3, 55095, Note_on_c, 1, 66, 64
3, 55215, Note_off_c, 1, 66, 61
3, 55215, Note_on_c, 1, 64, 64
3, 55335, Note_off_c, 1, 64, 27
3, 55335, Note_on_c, 1, 73, 64
3, 55575, Note_off_c, 1, 73, 73
3, 55575, Note_on_c, 1, 72, 64
3, 55815, Note_off_c, 1, 72, 77
3, 55875, Note_on_c, 1, 71, 64
3, 55905, Note_off_c, 1, 71, 76
3, 55905, Note_on_c, 1, 69, 64
3, 55935, Note_off_c, 1, 69, 63
3, 55935, Note_on_c, 1, 71, 64
3, 56055, Note_off_c, 1, 71, 69
3, 56055, Note_on_c, 1, 69, 64
3, 56295, Note_off_c, 1, 69, 70
3, 56295, Note_on_c, 1, 71, 64
3, 56415, Note_off_c, 1, 71, 74
3, 56415, Note_on_c, 1, 71, 64
3, 56535, Note_off_c, 1, 71, 76
3, 56535, Note_on_c, 1, 69, 64
3, 56655, Note_off_c, 1, 69, 69
3, 56655, Note_on_c, 1, 67, 64
3, 56895, Note_off_c, 1, 67, 42
3, 56895, Note_on_c, 1, 66, 64
3, 57015, Note_off_c, 1, 66, 72
3, 57015, Note_on_c, 1, 67, 64
3, 57135, Note_off_c, 1, 67, 55
3, 57135, Note_on_c, 1, 67, 64
3, 57255, Note_off_c, 1, 67, 53
3, 57255, Note_on_c, 1, 65, 64
3, 57375, Note_off_c, 1, 65, 54
3, 57375, Note_on_c, 1, 64, 64
3, 57615, Note_off_c, 1, 64, 47
3, 57615, Note_on_c, 1, 63, 64
3, 57735, Note_off_c, 1, 63, 51
3, 57735, Note_on_c, 1, 62, 64
3, 57855, Note_off_c, 1, 62, 43
3, 57855, Note_on_c, 1, 64, 64
3, 57975, Note_off_c, 1, 64, 52
3, 57975, Note_on_c, 1, 65, 64
3, 57975, Note_on_c, 1, 71, 64
3, 58095, Note_off_c, 1, 71, 52
3, 58095, Note_off_c, 1, 65, 49
3, 58095, Note_on_c, 1, 72, 64
3, 58095, Note_on_c, 1, 67, 64
3, 58215, Note_off_c, 1, 67, 42
3, 58215, Note_off_c, 1, 72, 53
3, 58215, Note_on_c, 1, 67, 64
3, 58335, Note_off_c, 1, 67, 41
3, 58335, Note_on_c, 1, 69, 64
3, 58455, Note_off_c, 1, 69, 59
3, 58455, Note_on_c, 1, 71, 64
3, 58515, Note_on_c, 1, 74, 64
3, 58575, Note_off_c, 1, 74, 72
3, 58575, Note_on_c, 1, 76, 64
3, 58635, Note_off_c, 1, 76, 63
3, 58635, Note_on_c, 1, 72, 64
3, 58695, Note_off_c, 1, 71, 68
3, 58695, Note_on_c, 1, 69, 64
3, 58815, Note_off_c, 1, 69, 57
3, 58815, Note_off_c, 1, 72, 54
3, 58815, Note_on_c, 1, 74, 64
3, 58815, Note_on_c, 1, 71, 64
3, 59175, Note_off_c, 1, 71, 58
3, 59175, Note_off_c, 1, 74, 62
3, 59175, End_track
4, 0, Start_track
4, 0, Text_t, "LH L"
4, 7200, Note_on_c, 2, 55, 64
4, 7320, Note_off_c, 2, 55, 59
4, 7320, Note_on_c, 2, 57, 64
4, 7380, Note_off_c, 2, 57, 52
4, 7380, Note_on_c, 2, 55, 64
4, 7440, Note_off_c, 2, 55, 68
4, 7440, Note_on_c, 2, 54, 64
4, 7500, Note_off_c, 2, 54, 54
4, 7500, Note_on_c, 2, 55, 64
4, 7560, Note_off_c, 2, 55, 72
4, 7560, Note_on_c, 2, 57, 64
4, 7680, Note_off_c, 2, 57, 46
4, 7680, Note_on_c, 2, 59, 64
4, 7740, Note_off_c, 2, 59, 54
4, 7740, Note_on_c, 2, 57, 64
4, 7800, Note_off_c, 2, 57, 53
4, 7800, Note_on_c, 2, 55, 64
4, 7860, Note_off_c, 2, 55, 52
4, 7860, Note_on_c, 2, 57, 64
4, 7920, Note_off_c, 2, 57, 50
4, 7920, Note_on_c, 2, 59, 64
4, 8040, Note_off_c, 2, 59, 54
4, 8040, Note_on_c, 2, 57, 64
4, 8160, Note_off_c, 2, 57, 51
4, 8160, Note_on_c, 2, 55, 64
4, 8280, Note_off_c, 2, 55, 72
4, 8280, Note_on_c, 2, 50, 64
4, 8400, Note_off_c, 2, 50, 38
4, 8400, Note_on_c, 2, 60, 64
4, 8640, Note_off_c, 2, 60, 59
4, 8640, Note_on_c, 2, 59, 64
4, 8760, Note_off_c, 2, 59, 61
4, 8760, Note_on_c, 2, 57, 64
4, 8880, Note_off_c, 2, 57, 52
4, 8880, Note_on_c, 2, 55, 64
4, 9000, Note_off_c, 2, 55, 73
4, 9000, Note_on_c, 2, 54, 64
4, 9120, Note_off_c, 2, 54, 66
4, 9120, Note_on_c, 2, 64, 64
4, 9360, Note_off_c, 2, 64, 46
4, 9360, Note_on_c, 2, 62, 64
4, 9480, Note_off_c, 2, 62, 53
4, 9480, Note_on_c, 2, 64, 64
4, 9540, Note_off_c, 2, 64, 55
4, 9540, Note_on_c, 2, 62, 64
4, 9600, Note_off_c, 2, 62, 52
4, 9600, Note_on_c, 2, 60, 64
4, 9660, Note_off_c, 2, 60, 52
4, 9660, Note_on_c, 2, 59, 64
4, 9720, Note_off_c, 2, 59, 46
4, 9720, Note_on_c, 2, 57, 64
4, 9840, Note_off_c, 2, 57, 48
4, 9840, Note_on_c, 2, 60, 64
4, 9900, Note_off_c, 2, 60, 49
4, 9900, Note_on_c, 2, 59, 64
4, 9960, Note_off_c, 2, 59, 49
4, 9960, Note_on_c, 2, 57, 64
4, 10020, Note_off_c, 2, 57, 52
4, 10020, Note_on_c, 2, 55, 64
4, 10080, Note_off_c, 2, 55, 51
4, 10080, Note_on_c, 2, 54, 64
4, 10320, Note_off_c, 2, 54, 49
4, 10320, Note_on_c, 2, 52, 64
4, 10440, Note_off_c, 2, 52, 65
4, 10440, Note_on_c, 2, 50, 64
4, 10500, Note_off_c, 2, 50, 51
4, 10500, Note_on_c, 2, 52, 64
4, 10560, Note_off_c, 2, 52, 63
4, 10560, Note_on_c, 2, 50, 64
4, 10620, Note_off_c, 2, 50, 51
4, 10620, Note_on_c, 2, 48, 64
4, 10680, Note_off_c, 2, 48, 53
4, 10680, Note_on_c, 2, 47, 64
4, 10740, Note_off_c, 2, 47, 52
4, 10740, Note_on_c, 2, 45, 64
4, 10800, Note_off_c, 2, 45, 59
4, 10800, Note_on_c, 2, 43, 64
4, 10860, Note_off_c, 2, 43, 48
4, 10860, Note_on_c, 2, 45, 64
4, 10920, Note_off_c, 2, 45, 59
4, 10920, Note_on_c, 2, 47, 64
4, 10980, Note_off_c, 2, 47, 62
4, 10980, Note_on_c, 2, 43, 64
4, 11040, Note_off_c, 2, 43, 36
4, 11040, Note_on_c, 2, 48, 64
4, 11100, Note_off_c, 2, 48, 52
4, 11100, Note_on_c, 2, 43, 64
4, 11160, Note_off_c, 2, 43, 37
4, 11160, Note_on_c, 2, 50, 64
4, 11220, Note_off_c, 2, 50, 68
4, 11220, Note_on_c, 2, 43, 64
4, 11280, Note_off_c, 2, 43, 44
4, 11280, Note_on_c, 2, 52, 64
4, 11340, Note_off_c, 2, 52, 70
4, 11340, Note_on_c, 2, 43, 64
4, 11400, Note_off_c, 2, 43, 41
4, 11400, Note_on_c, 2, 53, 64
4, 11460, Note_off_c, 2, 53, 65
4, 11460, Note_on_c, 2, 43, 64
4, 11520, Note_off_c, 2, 43, 46
4, 11520, Note_on_c, 2, 52, 64
4, 11580, Note_off_c, 2, 52, 66
4, 11580, Note_on_c, 2, 50, 64
4, 11640, Note_off_c, 2, 50, 62
4, 11640, Note_on_c, 2, 48, 64
4, 11700, Note_off_c, 2, 48, 50
4, 11700, Note_on_c, 2, 52, 64
4, 11760, Note_off_c, 2, 52, 66
4, 11760, Note_on_c, 2, 47, 64
4, 11820, Note_off_c, 2, 47, 46
4, 11820, Note_on_c, 2, 52, 64
4, 11880, Note_off_c, 2, 52, 68
4, 11880, Note_on_c, 2, 45, 64
4, 11940, Note_off_c, 2, 45, 55
4, 11940, Note_on_c, 2, 52, 64
4, 12000, Note_off_c, 2, 52, 63
4, 12000, Note_on_c, 2, 43, 64
4, 12060, Note_off_c, 2, 43, 43
4, 12060, Note_on_c, 2, 52, 64
4, 12120, Note_off_c, 2, 52, 51
4, 12120, Note_on_c, 2, 42, 64
4, 12180, Note_off_c, 2, 42, 40
4, 12180, Note_on_c, 2, 52, 64
4, 12240, Note_off_c, 2, 52, 48
4, 12240, Note_on_c, 2, 50, 64
4, 12300, Note_off_c, 2, 50, 52
4, 12300, Note_on_c, 2, 48, 64
4, 12360, Note_off_c, 2, 48, 37
4, 12360, Note_on_c, 2, 47, 64
4, 12420, Note_off_c, 2, 47, 46
4, 12420, Note_on_c, 2, 50, 64
4, 12480, Note_off_c, 2, 50, 54
4, 12480, Note_on_c, 2, 45, 64
4, 12540, Note_off_c, 2, 45, 42
4, 12540, Note_on_c, 2, 50, 64
4, 12600, Note_off_c, 2, 50, 65
4, 12600, Note_on_c, 2, 43, 64
4, 12660, Note_off_c, 2, 43, 45
4, 12660, Note_on_c, 2, 50, 64
4, 12720, Note_off_c, 2, 50, 51
4, 12720, Note_on_c, 2, 42, 64
4, 12780, Note_off_c, 2, 42, 44
4, 12780, Note_on_c, 2, 50, 64
4, 12840, Note_off_c, 2, 50, 50
4, 12840, Note_on_c, 2, 40, 64
4, 12900, Note_off_c, 2, 40, 30
4, 12900, Note_on_c, 2, 50, 64
4, 12960, Note_off_c, 2, 50, 63
4, 12960, Note_on_c, 2, 48, 64
4, 13020, Note_off_c, 2, 48, 57
4, 13020, Note_on_c, 2, 47, 64
4, 13080, Note_off_c, 2, 47, 52
4, 13080, Note_on_c, 2, 45, 64
4, 13140, Note_off_c, 2, 45, 44
4, 13140, Note_on_c, 2, 48, 64
4, 13200, Note_off_c, 2, 48, 62
4, 13200, Note_on_c, 2, 43, 64
4, 13260, Note_off_c, 2, 43, 36
4, 13260, Note_on_c, 2, 48, 64
4, 13320, Note_off_c, 2, 48, 66
4, 13320, Note_on_c, 2, 42, 64
4, 13380, Note_off_c, 2, 42, 62
4, 13380, Note_on_c, 2, 48, 64
4, 13440, Note_off_c, 2, 48, 48
4, 13440, Note_on_c, 2, 40, 64
4, 13500, Note_off_c, 2, 40, 40
4, 13500, Note_on_c, 2, 48, 64
4, 13560, Note_off_c, 2, 48, 45
4, 13560, Note_on_c, 2, 38, 64
4, 13620, Note_off_c, 2, 38, 37
4, 13620, Note_on_c, 2, 48, 64
4, 13680, Note_off_c, 2, 48, 58
4, 13680, Note_on_c, 2, 47, 64
4, 13800, Note_off_c, 2, 47, 66
4, 13800, Note_on_c, 2, 45, 64
4, 13920, Note_off_c, 2, 45, 62
4, 13920, Note_on_c, 2, 43, 64
4, 14040, Note_off_c, 2, 43, 63
4, 14040, Note_on_c, 2, 45, 64
4, 14160, Note_off_c, 2, 45, 66
4, 14160, Note_on_c, 2, 43, 64
4, 14280, Note_off_c, 2, 43, 54
4, 14280, Note_on_c, 2, 42, 64
4, 14400, Note_off_c, 2, 42, 53
4, 14400, Note_on_c, 2, 43, 64
4, 14460, Note_off_c, 2, 43, 52
4, 14460, Note_on_c, 2, 55, 64
4, 14520, Note_off_c, 2, 55, 61
4, 14520, Note_on_c, 2, 53, 64
4, 14580, Note_off_c, 2, 53, 51
4, 14580, Note_on_c, 2, 52, 64
4, 14640, Note_off_c, 2, 52, 50
4, 14640, Note_on_c, 2, 50, 64
4, 14700, Note_off_c, 2, 50, 52
4, 14700, Note_on_c, 2, 53, 64
4, 14760, Note_off_c, 2, 53, 62
4, 14760, Note_on_c, 2, 52, 64
4, 14820, Note_off_c, 2, 52, 57
4, 14820, Note_on_c, 2, 53, 64
4, 14880, Note_off_c, 2, 53, 59
4, 14880, Note_on_c, 2, 52, 64
4, 14940, Note_off_c, 2, 52, 53
4, 14940, Note_on_c, 2, 50, 64
4, 15000, Note_off_c, 2, 50, 49
4, 15000, Note_on_c, 2, 48, 64
4, 15060, Note_off_c, 2, 48, 40
4, 15060, Note_on_c, 2, 52, 64
4, 15120, Note_off_c, 2, 52, 58
4, 15120, Note_on_c, 2, 50, 64
4, 15180, Note_off_c, 2, 50, 57
4, 15180, Note_on_c, 2, 52, 64
4, 15240, Note_off_c, 2, 52, 62
4, 15240, Note_on_c, 2, 50, 64
4, 15300, Note_off_c, 2, 50, 51
4, 15300, Note_on_c, 2, 48, 64
4, 15360, Note_off_c, 2, 48, 59
4, 15360, Note_on_c, 2, 47, 64
4, 15420, Note_off_c, 2, 47, 52
4, 15420, Note_on_c, 2, 50, 64
4, 15480, Note_off_c, 2, 50, 58
4, 15480, Note_on_c, 2, 48, 64
4, 15540, Note_off_c, 2, 48, 49
4, 15540, Note_on_c, 2, 50, 64
4, 15600, Note_off_c, 2, 50, 63
4, 15600, Note_on_c, 2, 48, 64
4, 15660, Note_off_c, 2, 48, 49
4, 15660, Note_on_c, 2, 47, 64
4, 15720, Note_off_c, 2, 47, 65
4, 15720, Note_on_c, 2, 45, 64
4, 15780, Note_off_c, 2, 45, 53
4, 15780, Note_on_c, 2, 48, 64
4, 15840, Note_off_c, 2, 48, 57
4, 15840, Note_on_c, 2, 47, 64
4, 15900, Note_off_c, 2, 47, 46
4, 15900, Note_on_c, 2, 48, 64
4, 15960, Note_off_c, 2, 48, 52
4, 15960, Note_on_c, 2, 47, 64
4, 16020, Note_off_c, 2, 47, 54
4, 16020, Note_on_c, 2, 45, 64
4, 16080, Note_off_c, 2, 45, 44
4, 16080, Note_on_c, 2, 43, 64
4, 16140, Note_off_c, 2, 43, 37
4, 16140, Note_on_c, 2, 45, 64
4, 16200, Note_off_c, 2, 45, 52
4, 16200, Note_on_c, 2, 47, 64
4, 16260, Note_off_c, 2, 47, 39
4, 16260, Note_on_c, 2, 49, 64
4, 16320, Note_off_c, 2, 49, 66
4, 16320, Note_on_c, 2, 50, 64
4, 16380, Note_off_c, 2, 50, 66
4, 16380, Note_on_c, 2, 52, 64
4, 16440, Note_off_c, 2, 52, 43
4, 16440, Note_on_c, 2, 54, 64
4, 16500, Note_off_c, 2, 54, 49
4, 16500, Note_on_c, 2, 55, 64
4, 16560, Note_off_c, 2, 55, 69
4, 16560, Note_on_c, 2, 54, 64
4, 16680, Note_off_c, 2, 54, 65
4, 16680, Note_on_c, 2, 59, 64
4, 16800, Note_off_c, 2, 59, 68
4, 16800, Note_on_c, 2, 47, 64
4, 16920, Note_off_c, 2, 47, 36
4, 16920, Note_on_c, 2, 52, 64
4, 17040, Note_off_c, 2, 52, 66
4, 17040, Note_on_c, 2, 57, 64
4, 17160, Note_off_c, 2, 57, 47
4, 17160, Note_on_c, 2, 45, 64
4, 17280, Note_off_c, 2, 45, 30
4, 17280, Note_on_c, 2, 50, 64
4, 17400, Note_off_c, 2, 50, 57
4, 17400, Note_on_c, 2, 52, 64
4, 17520, Note_off_c, 2, 52, 76
4, 17520, Note_on_c, 2, 54, 64
4, 17760, Note_off_c, 2, 54, 57
4, 17760, Note_on_c, 2, 55, 64
4, 17880, Note_off_c, 2, 55, 72
4, 17880, Note_on_c, 2, 49, 64
4, 18000, Note_off_c, 2, 49, 58
4, 18000, Note_on_c, 2, 50, 64
4, 18120, Note_off_c, 2, 50, 66
4, 19440, Note_on_c, 2, 50, 64
4, 19560, Note_off_c, 2, 50, 55
4, 19560, Note_on_c, 2, 48, 64
4, 19620, Note_off_c, 2, 48, 48
4, 19620, Note_on_c, 2, 50, 64
4, 19680, Note_off_c, 2, 50, 61
4, 19680, Note_on_c, 2, 52, 64
4, 19740, Note_off_c, 2, 52, 65
4, 19740, Note_on_c, 2, 50, 64
4, 19800, Note_off_c, 2, 50, 58
4, 19800, Note_on_c, 2, 48, 64
4, 19920, Note_off_c, 2, 48, 38
4, 19920, Note_on_c, 2, 47, 64
4, 19980, Note_off_c, 2, 47, 38
4, 19980, Note_on_c, 2, 48, 64
4, 20040, Note_off_c, 2, 48, 55
4, 20040, Note_on_c, 2, 50, 64
4, 20100, Note_off_c, 2, 50, 68
4, 20100, Note_on_c, 2, 48, 64
4, 20160, Note_off_c, 2, 48, 57
4, 20160, Note_on_c, 2, 47, 64
4, 20280, Note_off_c, 2, 47, 37
4, 20280, Note_on_c, 2, 48, 64
4, 20400, Note_off_c, 2, 48, 47
4, 20400, Note_on_c, 2, 50, 64
4, 20520, Note_off_c, 2, 50, 66
4, 20520, Note_on_c, 2, 55, 64
4, 20640, Note_off_c, 2, 55, 72
4, 20640, Note_on_c, 2, 45, 64
4, 20880, Note_off_c, 2, 45, 37
4, 20880, Note_on_c, 2, 47, 64
4, 21000, Note_off_c, 2, 47, 43
4, 21000, Note_on_c, 2, 48, 64
4, 21120, Note_off_c, 2, 48, 52
4, 21120, Note_on_c, 2, 50, 64
4, 21240, Note_off_c, 2, 50, 46
4, 21240, Note_on_c, 2, 52, 64
4, 21360, Note_off_c, 2, 52, 72
4, 21360, Note_on_c, 2, 42, 64
4, 21600, Note_off_c, 2, 42, 52
4, 21600, Note_on_c, 2, 43, 64
4, 21660, Note_off_c, 2, 43, 47
4, 21660, Note_on_c, 2, 45, 64
4, 21720, Note_off_c, 2, 45, 52
4, 21720, Note_on_c, 2, 47, 64
4, 22020, Note_off_c, 2, 47, 48
4, 22020, Note_on_c, 2, 45, 64
4, 22080, Note_off_c, 2, 45, 55
4, 22080, Note_on_c, 2, 43, 64
4, 22140, Note_off_c, 2, 43, 29
4, 22140, Note_on_c, 2, 42, 64
4, 22200, Note_off_c, 2, 42, 49
4, 22200, Note_on_c, 2, 40, 64
4, 22260, Note_off_c, 2, 40, 43
4, 22260, Note_on_c, 2, 43, 64
4, 22320, Note_off_c, 2, 43, 61
4, 22320, Note_on_c, 2, 42, 64
4, 22380, Note_off_c, 2, 42, 51
4, 22380, Note_on_c, 2, 43, 64
4, 22440, Note_off_c, 2, 43, 55
4, 22440, Note_on_c, 2, 45, 64
4, 22740, Note_off_c, 2, 45, 62
4, 22740, Note_on_c, 2, 43, 64
4, 22800, Note_off_c, 2, 43, 65
4, 22800, Note_on_c, 2, 42, 64
4, 22860, Note_off_c, 2, 42, 48
4, 22860, Note_on_c, 2, 40, 64
4, 22920, Note_off_c, 2, 40, 35
4, 22920, Note_on_c, 2, 38, 64
4, 22980, Note_off_c, 2, 38, 28
4, 22980, Note_on_c, 2, 42, 64
4, 23040, Note_off_c, 2, 42, 53
4, 23040, Note_on_c, 2, 40, 64
4, 23100, Note_off_c, 2, 40, 47
4, 23100, Note_on_c, 2, 42, 64
4, 23160, Note_off_c, 2, 42, 62
4, 23160, Note_on_c, 2, 43, 64
4, 23460, Note_off_c, 2, 43, 61
4, 23460, Note_on_c, 2, 42, 64
4, 23520, Note_off_c, 2, 42, 52
4, 23520, Note_on_c, 2, 40, 64
4, 23580, Note_off_c, 2, 40, 43
4, 23580, Note_on_c, 2, 38, 64
4, 23640, Note_off_c, 2, 38, 27
4, 23640, Note_on_c, 2, 37, 64
4, 23700, Note_off_c, 2, 37, 53
4, 23700, Note_on_c, 2, 40, 64
4, 23760, Note_off_c, 2, 40, 58
4, 23760, Note_on_c, 2, 38, 64
4, 23820, Note_off_c, 2, 38, 44
4, 23820, Note_on_c, 2, 40, 64
4, 23880, Note_off_c, 2, 40, 53
4, 23880, Note_on_c, 2, 42, 64
4, 23940, Note_off_c, 2, 42, 62
4, 23940, Note_on_c, 2, 38, 64
4, 24000, Note_off_c, 2, 38, 38
4, 24000, Note_on_c, 2, 43, 64
4, 24060, Note_off_c, 2, 43, 62
4, 24060, Note_on_c, 2, 38, 64
4, 24120, Note_off_c, 2, 38, 39
4, 24120, Note_on_c, 2, 45, 64
4, 24180, Note_off_c, 2, 45, 59
4, 24180, Note_on_c, 2, 38, 64
4, 24240, Note_off_c, 2, 38, 38
4, 24240, Note_on_c, 2, 47, 64
4, 24300, Note_off_c, 2, 47, 68
4, 24300, Note_on_c, 2, 38, 64
4, 24360, Note_off_c, 2, 38, 24
4, 24360, Note_on_c, 2, 48, 64
4, 24420, Note_off_c, 2, 48, 54
4, 24420, Note_on_c, 2, 38, 64
4, 24480, Note_off_c, 2, 38, 25
4, 24480, Note_on_c, 2, 47, 64
4, 24540, Note_off_c, 2, 47, 27
4, 24540, Note_on_c, 2, 55, 64
4, 24600, Note_off_c, 2, 55, 55
4, 24600, Note_on_c, 2, 53, 64
4, 24660, Note_off_c, 2, 53, 53
4, 24660, Note_on_c, 2, 52, 64
4, 24720, Note_off_c, 2, 52, 55
4, 24720, Note_on_c, 2, 50, 64
4, 24780, Note_off_c, 2, 50, 50
4, 24780, Note_on_c, 2, 48, 64
4, 24840, Note_off_c, 2, 48, 44
4, 24840, Note_on_c, 2, 47, 64
4, 24900, Note_off_c, 2, 47, 51
4, 24900, Note_on_c, 2, 45, 64
4, 24960, Note_off_c, 2, 45, 47
4, 24960, Note_on_c, 2, 43, 64
4, 25020, Note_off_c, 2, 43, 46
4, 25020, Note_on_c, 2, 41, 64
4, 25080, Note_off_c, 2, 41, 52
4, 25080, Note_on_c, 2, 40, 64
4, 25140, Note_off_c, 2, 40, 45
4, 25140, Note_on_c, 2, 38, 64
4, 25200, Note_off_c, 2, 38, 49
4, 25200, Note_on_c, 2, 36, 64
4, 25260, Note_off_c, 2, 36, 43
4, 25260, Note_on_c, 2, 38, 64
4, 25320, Note_off_c, 2, 38, 40
4, 25320, Note_on_c, 2, 40, 64
4, 25380, Note_off_c, 2, 40, 63
4, 25380, Note_on_c, 2, 42, 64
4, 25440, Note_off_c, 2, 42, 54
4, 25440, Note_on_c, 2, 44, 64
4, 25500, Note_off_c, 2, 44, 66
4, 25500, Note_on_c, 2, 45, 64
4, 25560, Note_off_c, 2, 45, 72
4, 25560, Note_on_c, 2, 47, 64
4, 25620, Note_off_c, 2, 47, 46
4, 25620, Note_on_c, 2, 48, 64
4, 25680, Note_off_c, 2, 48, 63
4, 25680, Note_on_c, 2, 50, 64
4, 25740, Note_off_c, 2, 50, 52
4, 25740, Note_on_c, 2, 52, 64
4, 25800, Note_off_c, 2, 52, 55
4, 25800, Note_on_c, 2, 54, 64
4, 25860, Note_off_c, 2, 54, 52
4, 25860, Note_on_c, 2, 56, 64
4, 25920, Note_off_c, 2, 56, 58
4, 25920, Note_on_c, 2, 57, 64
4, 25980, Note_off_c, 2, 57, 32
4, 25980, Note_on_c, 2, 55, 64
4, 26040, Note_off_c, 2, 55, 55
4, 26040, Note_on_c, 2, 54, 64
4, 26100, Note_off_c, 2, 54, 46
4, 26100, Note_on_c, 2, 57, 64
4, 26160, Note_off_c, 2, 57, 14
4, 26160, Note_on_c, 2, 52, 64
4, 26220, Note_off_c, 2, 52, 65
4, 26220, Note_on_c, 2, 57, 64
4, 26280, Note_off_c, 2, 57, 27
4, 26280, Note_on_c, 2, 51, 64
4, 26340, Note_off_c, 2, 51, 61
4, 26340, Note_on_c, 2, 57, 64
4, 26400, Note_off_c, 2, 57, 30
4, 26400, Note_on_c, 2, 49, 64
4, 26460, Note_off_c, 2, 49, 62
4, 26460, Note_on_c, 2, 57, 64
4, 26520, Note_off_c, 2, 57, 34
4, 26520, Note_on_c, 2, 47, 64
4, 26580, Note_off_c, 2, 47, 46
4, 26580, Note_on_c, 2, 57, 64
4, 26640, Note_off_c, 2, 57, 16
4, 26640, Note_on_c, 2, 55, 64
4, 26760, Note_off_c, 2, 55, 40
4, 26760, Note_on_c, 2, 60, 64
4, 26880, Note_off_c, 2, 60, 54
4, 26880, Note_on_c, 2, 59, 64
4, 27000, Note_off_c, 2, 59, 59
4, 27000, Note_on_c, 2, 57, 64
4, 27120, Note_off_c, 2, 57, 50
4, 27120, Note_on_c, 2, 59, 64
4, 27240, Note_off_c, 2, 59, 69
4, 27240, Note_on_c, 2, 47, 64
4, 27360, Note_off_c, 2, 47, 31
4, 27360, Note_on_c, 2, 52, 64
4, 27420, Note_off_c, 2, 52, 53
4, 27420, Note_on_c, 2, 54, 64
4, 27480, Note_off_c, 2, 54, 57
4, 27480, Note_on_c, 2, 55, 64
4, 27540, Note_off_c, 2, 55, 57
4, 27540, Note_on_c, 2, 52, 64
4, 27600, Note_off_c, 2, 52, 50
4, 27600, Note_on_c, 2, 57, 64
4, 27660, Note_off_c, 2, 57, 52
4, 27660, Note_on_c, 2, 52, 64
4, 27720, Note_off_c, 2, 52, 51
4, 27720, Note_on_c, 2, 59, 64
4, 27780, Note_off_c, 2, 59, 65
4, 27780, Note_on_c, 2, 52, 64
4, 27840, Note_off_c, 2, 52, 50
4, 27840, Note_on_c, 2, 61, 64
4, 27900, Note_off_c, 2, 61, 66
4, 27900, Note_on_c, 2, 52, 64
4, 27960, Note_off_c, 2, 52, 47
4, 27960, Note_on_c, 2, 63, 64
4, 28020, Note_off_c, 2, 63, 63
4, 28020, Note_on_c, 2, 52, 64
4, 28080, Note_off_c, 2, 52, 42
4, 28080, Note_on_c, 2, 64, 64
4, 28200, Note_off_c, 2, 64, 52
4, 33180, Note_on_c, 2, 47, 64
4, 33210, Note_off_c, 2, 47, 20
4, 33210, Note_on_c, 2, 49, 64
4, 33240, Note_off_c, 2, 49, 58
4, 33240, Note_on_c, 2, 51, 64
4, 33300, Note_off_c, 2, 51, 52
4, 33300, Note_on_c, 2, 47, 64
4, 33360, Note_off_c, 2, 47, 46
4, 33360, Note_on_c, 2, 52, 64
4, 33420, Note_off_c, 2, 52, 66
4, 33420, Note_on_c, 2, 47, 64
4, 33480, Note_off_c, 2, 47, 47
4, 33480, Note_on_c, 2, 54, 64
4, 33540, Note_off_c, 2, 54, 48
4, 33540, Note_on_c, 2, 47, 64
4, 33600, Note_off_c, 2, 47, 46
4, 33600, Note_on_c, 2, 55, 64
4, 33660, Note_off_c, 2, 55, 58
4, 33660, Note_on_c, 2, 47, 64
4, 33720, Note_off_c, 2, 47, 46
4, 33720, Note_on_c, 2, 57, 64
4, 33780, Note_off_c, 2, 57, 53
4, 33780, Note_on_c, 2, 47, 64
4, 33840, Note_off_c, 2, 47, 51
4, 33840, Note_on_c, 2, 55, 64
4, 33900, Note_off_c, 2, 55, 68
4, 33900, Note_on_c, 2, 54, 64
4, 33960, Note_off_c, 2, 54, 59
4, 33960, Note_on_c, 2, 52, 64
4, 34020, Note_off_c, 2, 52, 59
4, 34020, Note_on_c, 2, 55, 64
4, 34080, Note_off_c, 2, 55, 49
4, 34080, Note_on_c, 2, 50, 64
4, 34140, Note_off_c, 2, 50, 43
4, 34140, Note_on_c, 2, 55, 64
4, 34200, Note_off_c, 2, 55, 54
4, 34200, Note_on_c, 2, 49, 64
4, 34260, Note_off_c, 2, 49, 62
4, 34260, Note_on_c, 2, 55, 64
4, 34320, Note_off_c, 2, 55, 46
4, 34320, Note_on_c, 2, 47, 64
4, 34380, Note_off_c, 2, 47, 37
4, 34380, Note_on_c, 2, 55, 64
4, 34440, Note_off_c, 2, 55, 49
4, 34440, Note_on_c, 2, 45, 64
4, 34500, Note_off_c, 2, 45, 45
4, 34500, Note_on_c, 2, 55, 64
4, 34560, Note_off_c, 2, 55, 70
4, 34560, Note_on_c, 2, 54, 64
4, 34620, Note_off_c, 2, 54, 59
4, 34620, Note_on_c, 2, 52, 64
4, 34680, Note_off_c, 2, 52, 57
4, 34680, Note_on_c, 2, 50, 64
4, 34740, Note_off_c, 2, 50, 51
4, 34740, Note_on_c, 2, 54, 64
4, 34800, Note_off_c, 2, 54, 53
4, 34800, Note_on_c, 2, 49, 64
4, 34860, Note_off_c, 2, 49, 62
4, 34860, Note_on_c, 2, 54, 64
4, 34920, Note_off_c, 2, 54, 48
4, 34920, Note_on_c, 2, 47, 64
4, 34980, Note_off_c, 2, 47, 51
4, 34980, Note_on_c, 2, 54, 64
4, 35040, Note_off_c, 2, 54, 51
4, 35040, Note_on_c, 2, 45, 64
4, 35100, Note_off_c, 2, 45, 52
4, 35100, Note_on_c, 2, 54, 64
4, 35160, Note_off_c, 2, 54, 50
4, 35160, Note_on_c, 2, 43, 64
4, 35220, Note_off_c, 2, 43, 54
4, 35220, Note_on_c, 2, 54, 64
4, 35280, Note_off_c, 2, 54, 63
4, 35280, Note_on_c, 2, 52, 64
4, 35340, Note_off_c, 2, 52, 72
4, 35340, Note_on_c, 2, 50, 64
4, 35400, Note_off_c, 2, 50, 70
4, 35400, Note_on_c, 2, 49, 64
4, 35460, Note_off_c, 2, 49, 61
4, 35460, Note_on_c, 2, 52, 64
4, 35520, Note_off_c, 2, 52, 59
4, 35520, Note_on_c, 2, 47, 64
4, 35580, Note_off_c, 2, 47, 52
4, 35580, Note_on_c, 2, 52, 64
4, 35640, Note_off_c, 2, 52, 68
4, 35640, Note_on_c, 2, 46, 64
4, 35700, Note_off_c, 2, 46, 59
4, 35700, Note_on_c, 2, 52, 64
4, 35760, Note_off_c, 2, 52, 55
4, 35760, Note_on_c, 2, 44, 64
4, 35820, Note_off_c, 2, 44, 31
4, 35820, Note_on_c, 2, 52, 64
4, 35880, Note_off_c, 2, 52, 45
4, 35880, Note_on_c, 2, 42, 64
4, 35940, Note_off_c, 2, 42, 40
4, 35940, Note_on_c, 2, 52, 64
4, 36000, Note_off_c, 2, 52, 48
4, 36000, Note_on_c, 2, 50, 64
4, 36060, Note_off_c, 2, 50, 61
4, 36060, Note_on_c, 2, 54, 64
4, 36120, Note_off_c, 2, 54, 47
4, 36120, Note_on_c, 2, 52, 64
4, 36180, Note_off_c, 2, 52, 46
4, 36180, Note_on_c, 2, 50, 64
4, 36240, Note_off_c, 2, 50, 59
4, 36240, Note_on_c, 2, 49, 64
4, 36300, Note_off_c, 2, 49, 53
4, 36300, Note_on_c, 2, 47, 64
4, 36360, Note_off_c, 2, 47, 41
4, 36360, Note_on_c, 2, 46, 64
4, 36420, Note_off_c, 2, 46, 52
4, 36420, Note_on_c, 2, 49, 64
4, 36480, Note_off_c, 2, 49, 61
4, 36480, Note_on_c, 2, 47, 64
4, 36540, Note_off_c, 2, 47, 66
4, 36540, Note_on_c, 2, 46, 64
4, 36600, Note_off_c, 2, 46, 61
4, 36600, Note_on_c, 2, 44, 64
4, 36660, Note_off_c, 2, 44, 58
4, 36660, Note_on_c, 2, 42, 64
4, 36720, Note_off_c, 2, 42, 52
4, 36720, Note_on_c, 2, 47, 64
4, 36840, Note_off_c, 2, 47, 46
4, 36840, Note_on_c, 2, 49, 64
4, 36900, Note_off_c, 2, 49, 61
4, 36900, Note_on_c, 2, 47, 64
4, 36960, Note_off_c, 2, 47, 57
4, 36960, Note_on_c, 2, 46, 64
4, 37020, Note_off_c, 2, 46, 59
4, 37020, Note_on_c, 2, 47, 64
4, 37080, Note_off_c, 2, 47, 54
4, 37080, Note_on_c, 2, 49, 64
4, 37200, Note_off_c, 2, 49, 58
4, 37200, Note_on_c, 2, 50, 64
4, 37260, Note_off_c, 2, 50, 68
4, 37260, Note_on_c, 2, 49, 64
4, 37320, Note_off_c, 2, 49, 63
4, 37320, Note_on_c, 2, 47, 64
4, 37380, Note_off_c, 2, 47, 55
4, 37380, Note_on_c, 2, 49, 64
4, 37440, Note_off_c, 2, 49, 61
4, 37440, Note_on_c, 2, 50, 64
4, 37560, Note_off_c, 2, 50, 58
4, 37560, Note_on_c, 2, 49, 64
4, 37680, Note_off_c, 2, 49, 66
4, 37680, Note_on_c, 2, 47, 64
4, 37800, Note_off_c, 2, 47, 66
4, 37800, Note_on_c, 2, 46, 64
4, 37920, Note_off_c, 2, 46, 57
4, 37920, Note_on_c, 2, 55, 64
4, 38160, Note_off_c, 2, 55, 55
4, 38160, Note_on_c, 2, 54, 64
4, 38220, Note_off_c, 2, 54, 63
4, 38220, Note_on_c, 2, 56, 64
4, 38280, Note_off_c, 2, 56, 61
4, 38280, Note_on_c, 2, 58, 64
4, 38340, Note_off_c, 2, 58, 68
4, 38340, Note_on_c, 2, 54, 64
4, 38400, Note_off_c, 2, 54, 54
4, 38400, Note_on_c, 2, 59, 64
4, 38460, Note_off_c, 2, 59, 44
4, 38460, Note_on_c, 2, 54, 64
4, 38520, Note_off_c, 2, 54, 58
4, 38520, Note_on_c, 2, 61, 64
4, 38580, Note_off_c, 2, 61, 76
4, 38580, Note_on_c, 2, 54, 64
4, 38640, Note_off_c, 2, 54, 39
4, 38640, Note_on_c, 2, 62, 64
4, 38700, Note_off_c, 2, 62, 46
4, 38700, Note_on_c, 2, 54, 64
4, 38760, Note_off_c, 2, 54, 42
4, 38760, Note_on_c, 2, 64, 64
4, 38820, Note_off_c, 2, 64, 49
4, 38820, Note_on_c, 2, 54, 64
4, 38880, Note_off_c, 2, 54, 45
4, 38880, Note_on_c, 2, 62, 64
4, 38940, Note_off_c, 2, 62, 50
4, 38940, Note_on_c, 2, 54, 64
4, 39000, Note_off_c, 2, 54, 47
4, 39000, Note_on_c, 2, 55, 64
4, 39060, Note_off_c, 2, 55, 40
4, 39060, Note_on_c, 2, 62, 64
4, 39120, Note_off_c, 2, 62, 50
4, 39120, Note_on_c, 2, 61, 64
4, 39150, Note_off_c, 2, 61, 51
4, 39150, Note_on_c, 2, 59, 64
4, 39180, Note_off_c, 2, 59, 40
4, 39180, Note_on_c, 2, 58, 64
4, 39210, Note_off_c, 2, 58, 49
4, 39210, Note_on_c, 2, 59, 64
4, 39240, Note_off_c, 2, 59, 31
4, 39240, Note_on_c, 2, 61, 64
4, 39300, Note_off_c, 2, 61, 61
4, 39300, Note_on_c, 2, 52, 64
4, 39360, Note_off_c, 2, 52, 31
4, 39360, Note_on_c, 2, 54, 64
4, 39420, Note_off_c, 2, 54, 49
4, 39420, Note_on_c, 2, 61, 64
4, 39480, Note_off_c, 2, 61, 51
4, 39480, Note_on_c, 2, 59, 64
4, 39510, Note_off_c, 2, 59, 49
4, 39510, Note_on_c, 2, 57, 64
4, 39540, Note_off_c, 2, 57, 61
4, 39540, Note_on_c, 2, 56, 64
4, 39570, Note_off_c, 2, 56, 54
4, 39570, Note_on_c, 2, 57, 64
4, 39600, Note_off_c, 2, 57, 52
4, 39600, Note_on_c, 2, 59, 64
4, 39720, Note_off_c, 2, 59, 62
4, 40200, Note_on_c, 2, 47, 64
4, 40320, Note_off_c, 2, 47, 28
4, 40320, Note_on_c, 2, 52, 64
4, 40380, Note_off_c, 2, 52, 53
4, 40380, Note_on_c, 2, 54, 64
4, 40440, Note_off_c, 2, 54, 25
4, 40440, Note_on_c, 2, 56, 64
4, 40500, Note_off_c, 2, 56, 58
4, 40500, Note_on_c, 2, 52, 64
4, 40560, Note_off_c, 2, 52, 54
4, 40560, Note_on_c, 2, 57, 64
4, 40620, Note_off_c, 2, 57, 58
4, 40620, Note_on_c, 2, 52, 64
4, 40680, Note_off_c, 2, 52, 52
4, 40680, Note_on_c, 2, 59, 64
4, 40740, Note_off_c, 2, 59, 65
4, 40740, Note_on_c, 2, 52, 64
4, 40800, Note_off_c, 2, 52, 49
4, 40800, Note_on_c, 2, 61, 64
4, 40860, Note_off_c, 2, 61, 63
4, 40860, Note_on_c, 2, 52, 64
4, 40920, Note_off_c, 2, 52, 42
4, 40920, Note_on_c, 2, 62, 64
4, 40980, Note_off_c, 2, 62, 59
4, 40980, Note_on_c, 2, 52, 64
4, 41040, Note_off_c, 2, 52, 39
4, 41040, Note_on_c, 2, 61, 64
4, 41160, Note_off_c, 2, 61, 69
4, 41640, Note_on_c, 2, 49, 64
4, 41760, Note_off_c, 2, 49, 62
4, 41760, Note_on_c, 2, 50, 64
4, 41940, Note_off_c, 2, 50, 33
4, 41940, Note_on_c, 2, 52, 64
4, 42000, Note_off_c, 2, 52, 58
4, 42000, Note_on_c, 2, 50, 64
4, 42060, Note_off_c, 2, 50, 50
4, 42060, Note_on_c, 2, 49, 64
4, 42120, Note_off_c, 2, 49, 73
4, 42120, Note_on_c, 2, 47, 64
4, 42180, Note_off_c, 2, 47, 57
4, 42180, Note_on_c, 2, 49, 64
4, 42240, Note_off_c, 2, 49, 63
4, 42240, Note_on_c, 2, 47, 64
4, 42300, Note_off_c, 2, 47, 53
4, 42300, Note_on_c, 2, 45, 64
4, 42360, Note_off_c, 2, 45, 38
4, 42360, Note_on_c, 2, 43, 64
4, 42420, Note_off_c, 2, 43, 52
4, 42420, Note_on_c, 2, 42, 64
4, 42480, Note_off_c, 2, 42, 54
4, 42480, Note_on_c, 2, 40, 64
4, 42600, Note_off_c, 2, 40, 32
4, 42600, Note_on_c, 2, 50, 64
4, 42720, Note_off_c, 2, 50, 46
4, 42720, Note_on_c, 2, 49, 64
4, 42840, Note_off_c, 2, 49, 65
4, 42840, Note_on_c, 2, 50, 64
4, 42960, Note_off_c, 2, 50, 62
4, 43080, Note_on_c, 2, 47, 64
4, 43200, Note_off_c, 2, 47, 52
4, 43200, Note_on_c, 2, 43, 64
4, 43320, Note_off_c, 2, 43, 40
4, 43320, Note_on_c, 2, 45, 64
4, 43560, Note_off_c, 2, 45, 52
4, 43560, Note_on_c, 2, 50, 64
4, 43680, Note_off_c, 2, 50, 62
4, 43680, Note_on_c, 2, 49, 64
4, 43800, Note_off_c, 2, 49, 65
4, 43800, Note_on_c, 2, 47, 64
4, 43920, Note_off_c, 2, 47, 51
4, 43920, Note_on_c, 2, 45, 64
4, 45960, Note_off_c, 2, 45, 46
4, 46260, Note_on_c, 2, 52, 64
4, 46320, Note_off_c, 2, 52, 73
4, 46320, Note_on_c, 2, 50, 64
4, 46380, Note_off_c, 2, 50, 72
4, 46380, Note_on_c, 2, 49, 64
4, 46440, Note_off_c, 2, 49, 58
4, 46440, Note_on_c, 2, 47, 64
4, 46680, Note_off_c, 2, 47, 23
4, 46980, Note_on_c, 2, 50, 64
4, 47040, Note_off_c, 2, 50, 57
4, 47040, Note_on_c, 2, 49, 64
4, 47100, Note_off_c, 2, 49, 52
4, 47100, Note_on_c, 2, 47, 64
4, 47160, Note_off_c, 2, 47, 27
4, 47160, Note_on_c, 2, 45, 64
4, 47400, Note_off_c, 2, 45, 33
4, 47700, Note_on_c, 2, 48, 64
4, 47760, Note_off_c, 2, 48, 55
4, 47760, Note_on_c, 2, 47, 64
4, 47820, Note_off_c, 2, 47, 46
4, 47820, Note_on_c, 2, 45, 64
4, 47880, Note_off_c, 2, 45, 40
4, 47880, Note_on_c, 2, 43, 64
4, 48000, Note_off_c, 2, 43, 47
4, 48660, Note_on_c, 2, 45, 64
4, 48720, Note_off_c, 2, 45, 35
4, 48720, Note_on_c, 2, 47, 64
4, 48780, Note_off_c, 2, 47, 52
4, 48780, Note_on_c, 2, 49, 64
4, 48840, Note_off_c, 2, 49, 74
4, 48840, Note_on_c, 2, 50, 64
4, 48900, Note_off_c, 2, 50, 40
4, 48900, Note_on_c, 2, 52, 64
4, 48960, Note_off_c, 2, 52, 52
4, 48960, Note_on_c, 2, 54, 64
4, 49020, Note_off_c, 2, 54, 47
4, 49020, Note_on_c, 2, 55, 64
4, 49080, Note_off_c, 2, 55, 69
4, 49080, Note_on_c, 2, 57, 64
4, 49200, Note_off_c, 2, 57, 50
4, 49200, Note_on_c, 2, 45, 64
4, 49320, Note_off_c, 2, 45, 13
4, 49320, Note_on_c, 2, 50, 64
4, 49440, Note_off_c, 2, 50, 34
4, 49440, Note_on_c, 2, 48, 64
4, 49500, Note_off_c, 2, 48, 42
4, 49500, Note_on_c, 2, 50, 64
4, 49560, Note_off_c, 2, 50, 55
4, 49560, Note_on_c, 2, 52, 64
4, 49620, Note_off_c, 2, 52, 59
4, 49620, Note_on_c, 2, 50, 64
4, 49680, Note_off_c, 2, 50, 55
4, 49680, Note_on_c, 2, 48, 64
4, 49800, Note_off_c, 2, 48, 33
4, 49800, Note_on_c, 2, 47, 64
4, 49860, Note_off_c, 2, 47, 45
4, 49860, Note_on_c, 2, 48, 64
4, 49920, Note_off_c, 2, 48, 54
4, 49920, Note_on_c, 2, 50, 64
4, 49980, Note_off_c, 2, 50, 62
4, 49980, Note_on_c, 2, 48, 64
4, 50040, Note_off_c, 2, 48, 52
4, 50040, Note_on_c, 2, 47, 64
4, 50160, Note_off_c, 2, 47, 50
4, 50160, Note_on_c, 2, 48, 64
4, 50280, Note_off_c, 2, 48, 47
4, 50280, Note_on_c, 2, 50, 64
4, 50400, Note_off_c, 2, 50, 70
4, 50400, Note_on_c, 2, 55, 64
4, 50520, Note_off_c, 2, 55, 61
4, 50520, Note_on_c, 2, 45, 64
4, 50760, Note_off_c, 2, 45, 28
4, 50760, Note_on_c, 2, 47, 64
4, 50880, Note_off_c, 2, 47, 41
4, 50880, Note_on_c, 2, 48, 64
4, 51000, Note_off_c, 2, 48, 50
4, 51000, Note_on_c, 2, 50, 64
4, 51120, Note_off_c, 2, 50, 49
4, 51120, Note_on_c, 2, 52, 64
4, 51240, Note_off_c, 2, 52, 77
4, 51240, Note_on_c, 2, 42, 64
4, 51480, Note_off_c, 2, 42, 52
4, 51480, Note_on_c, 2, 43, 64
4, 51600, Note_off_c, 2, 43, 1
4, 51600, Note_on_c, 2, 42, 64
4, 51660, Note_off_c, 2, 42, 51
4, 51660, Note_on_c, 2, 43, 64
4, 51720, Note_off_c, 2, 43, 41
4, 51720, Note_on_c, 2, 45, 64
4, 51780, Note_off_c, 2, 45, 45
4, 51780, Note_on_c, 2, 47, 64
4, 51840, Note_off_c, 2, 47, 50
4, 51840, Note_on_c, 2, 36, 64
4, 51960, Note_off_c, 2, 36, 6
4, 51960, Note_on_c, 2, 60, 64
4, 52020, Note_off_c, 2, 60, 59
4, 52020, Note_on_c, 2, 59, 64
4, 52080, Note_off_c, 2, 59, 51
4, 52080, Note_on_c, 2, 57, 64
4, 52140, Note_off_c, 2, 57, 40
4, 52140, Note_on_c, 2, 55, 64
4, 52200, Note_off_c, 2, 55, 59
4, 52200, Note_on_c, 2, 54, 64
4, 52260, Note_off_c, 2, 54, 52
4, 52260, Note_on_c, 2, 52, 64
4, 52320, Note_off_c, 2, 52, 55
4, 52320, Note_on_c, 2, 50, 64
4, 52380, Note_off_c, 2, 50, 51
4, 52380, Note_on_c, 2, 48, 64
4, 52440, Note_off_c, 2, 48, 50
4, 52440, Note_on_c, 2, 47, 64
4, 52500, Note_off_c, 2, 47, 55
4, 52500, Note_on_c, 2, 45, 64
4, 52560, Note_off_c, 2, 45, 51
4, 52560, Note_on_c, 2, 43, 64
4, 52620, Note_off_c, 2, 43, 46
4, 52620, Note_on_c, 2, 45, 64
4, 52680, Note_off_c, 2, 45, 51
4, 52680, Note_on_c, 2, 47, 64
4, 52740, Note_off_c, 2, 47, 61
4, 52740, Note_on_c, 2, 43, 64
4, 52800, Note_off_c, 2, 43, 50
4, 52800, Note_on_c, 2, 48, 64
4, 52860, Note_off_c, 2, 48, 68
4, 52860, Note_on_c, 2, 43, 64
4, 52920, Note_off_c, 2, 43, 53
4, 52920, Note_on_c, 2, 50, 64
4, 52980, Note_off_c, 2, 50, 65
4, 52980, Note_on_c, 2, 43, 64
4, 53040, Note_off_c, 2, 43, 45
4, 53040, Note_on_c, 2, 52, 64
4, 53100, Note_off_c, 2, 52, 52
4, 53100, Note_on_c, 2, 43, 64
4, 53160, Note_off_c, 2, 43, 47
4, 53160, Note_on_c, 2, 53, 64
4, 53220, Note_off_c, 2, 53, 50
4, 53220, Note_on_c, 2, 43, 64
4, 53280, Note_off_c, 2, 43, 23
4, 53280, Note_on_c, 2, 52, 64
4, 53340, Note_off_c, 2, 52, 63
4, 53340, Note_on_c, 2, 40, 64
4, 53370, Note_off_c, 2, 40, 39
4, 53370, Note_on_c, 2, 42, 64
4, 53400, Note_off_c, 2, 42, 52
4, 53400, Note_on_c, 2, 44, 64
4, 53460, Note_off_c, 2, 44, 52
4, 53460, Note_on_c, 2, 40, 64
4, 53520, Note_off_c, 2, 40, 43
4, 53520, Note_on_c, 2, 45, 64
4, 53580, Note_off_c, 2, 45, 69
4, 53580, Note_on_c, 2, 40, 64
4, 53640, Note_off_c, 2, 40, 36
4, 53640, Note_on_c, 2, 47, 64
4, 53700, Note_off_c, 2, 47, 66
4, 53700, Note_on_c, 2, 40, 64
4, 53760, Note_off_c, 2, 40, 41
4, 53760, Note_on_c, 2, 48, 64
4, 53820, Note_off_c, 2, 48, 59
4, 53820, Note_on_c, 2, 40, 64
4, 53880, Note_off_c, 2, 40, 27
4, 53880, Note_on_c, 2, 50, 64
4, 53940, Note_off_c, 2, 50, 61
4, 53940, Note_on_c, 2, 40, 64
4, 54000, Note_off_c, 2, 40, 18
4, 54000, Note_on_c, 2, 49, 64
4, 54060, Note_off_c, 2, 49, 57
4, 54060, Note_on_c, 2, 57, 64
4, 54120, Note_off_c, 2, 57, 53
4, 54120, Note_on_c, 2, 55, 64
4, 54180, Note_off_c, 2, 55, 48
4, 54180, Note_on_c, 2, 54, 64
4, 54240, Note_off_c, 2, 54, 54
4, 54240, Note_on_c, 2, 52, 64
4, 54300, Note_off_c, 2, 52, 50
4, 54300, Note_on_c, 2, 50, 64
4, 54360, Note_off_c, 2, 50, 43
4, 54360, Note_on_c, 2, 49, 64
4, 54420, Note_off_c, 2, 49, 59
4, 54420, Note_on_c, 2, 47, 64
4, 54480, Note_off_c, 2, 47, 44
4, 54480, Note_on_c, 2, 45, 64
4, 54540, Note_off_c, 2, 45, 46
4, 54540, Note_on_c, 2, 43, 64
4, 54600, Note_off_c, 2, 43, 50
4, 54600, Note_on_c, 2, 42, 64
4, 54660, Note_off_c, 2, 42, 47
4, 54660, Note_on_c, 2, 40, 64
4, 54720, Note_off_c, 2, 40, 43
4, 54720, Note_on_c, 2, 38, 64
4, 55500, Note_off_c, 2, 38, 46
4, 55500, Note_on_c, 2, 50, 64
4, 55560, Note_off_c, 2, 50, 58
4, 55560, Note_on_c, 2, 48, 64
4, 55620, Note_off_c, 2, 48, 43
4, 55620, Note_on_c, 2, 50, 64
4, 55680, Note_off_c, 2, 50, 61
4, 55680, Note_on_c, 2, 52, 64
4, 55740, Note_off_c, 2, 52, 65
4, 55740, Note_on_c, 2, 50, 64
4, 55800, Note_off_c, 2, 50, 69
4, 55800, Note_on_c, 2, 48, 64
4, 55920, Note_off_c, 2, 48, 46
4, 55920, Note_on_c, 2, 47, 64
4, 55980, Note_off_c, 2, 47, 52
4, 55980, Note_on_c, 2, 48, 64
4, 56040, Note_off_c, 2, 48, 52
4, 56040, Note_on_c, 2, 50, 64
4, 56100, Note_off_c, 2, 50, 62
4, 56100, Note_on_c, 2, 48, 64
4, 56160, Note_off_c, 2, 48, 62
4, 56160, Note_on_c, 2, 47, 64
4, 56280, Note_off_c, 2, 47, 44
4, 56280, Note_on_c, 2, 45, 64
4, 56340, Note_off_c, 2, 45, 55
4, 56340, Note_on_c, 2, 47, 64
4, 56400, Note_off_c, 2, 47, 57
4, 56400, Note_on_c, 2, 48, 64
4, 56460, Note_off_c, 2, 48, 51
4, 56460, Note_on_c, 2, 47, 64
4, 56520, Note_off_c, 2, 47, 65
4, 56520, Note_on_c, 2, 45, 64
4, 56640, Note_off_c, 2, 45, 40
4, 56640, Note_on_c, 2, 43, 64
4, 56700, Note_off_c, 2, 43, 54
4, 56700, Note_on_c, 2, 45, 64
4, 56760, Note_off_c, 2, 45, 52
4, 56760, Note_on_c, 2, 47, 64
4, 56820, Note_off_c, 2, 47, 54
4, 56820, Note_on_c, 2, 45, 64
4, 56880, Note_off_c, 2, 45, 55
4, 56880, Note_on_c, 2, 43, 64
4, 56940, Note_off_c, 2, 43, 42
4, 56940, Note_on_c, 2, 55, 64
4, 56970, Note_off_c, 2, 55, 63
4, 56970, Note_on_c, 2, 54, 64
4, 57000, Note_off_c, 2, 54, 50
4, 57000, Note_on_c, 2, 52, 64
4, 57060, Note_off_c, 2, 52, 43
4, 57060, Note_on_c, 2, 55, 64
4, 57120, Note_off_c, 2, 55, 59
4, 57120, Note_on_c, 2, 50, 64
4, 57180, Note_off_c, 2, 50, 42
4, 57180, Note_on_c, 2, 55, 64
4, 57240, Note_off_c, 2, 55, 65
4, 57240, Note_on_c, 2, 49, 64
4, 57300, Note_off_c, 2, 49, 46
4, 57300, Note_on_c, 2, 55, 64
4, 57360, Note_off_c, 2, 55, 74
4, 57360, Note_on_c, 2, 47, 64
4, 57420, Note_off_c, 2, 47, 44
4, 57420, Note_on_c, 2, 55, 64
4, 57480, Note_off_c, 2, 55, 57
4, 57480, Note_on_c, 2, 45, 64
4, 57540, Note_off_c, 2, 45, 30
4, 57540, Note_on_c, 2, 55, 64
4, 57600, Note_off_c, 2, 55, 53
4, 57600, Note_on_c, 2, 50, 64
4, 57660, Note_off_c, 2, 50, 61
4, 57660, Note_on_c, 2, 48, 64
4, 57720, Note_off_c, 2, 48, 59
4, 57720, Note_on_c, 2, 46, 64
4, 57780, Note_off_c, 2, 46, 20
4, 57780, Note_on_c, 2, 50, 64
4, 57840, Note_off_c, 2, 50, 62
4, 57840, Note_on_c, 2, 45, 64
4, 57900, Note_off_c, 2, 45, 35
4, 57900, Note_on_c, 2, 50, 64
4, 57960, Note_off_c, 2, 50, 61
4, 57960, Note_on_c, 2, 43, 64
4, 58020, Note_off_c, 2, 43, 27
4, 58020, Note_on_c, 2, 52, 64
4, 58080, Note_off_c, 2, 52, 61
4, 58080, Note_on_c, 2, 42, 64
4, 58140, Note_off_c, 2, 42, 20
4, 58140, Note_on_c, 2, 52, 64
4, 58200, Note_off_c, 2, 52, 68
4, 58200, Note_on_c, 2, 40, 64
4, 58260, Note_off_c, 2, 40, 31
4, 58260, Note_on_c, 2, 52, 64
4, 58320, Note_off_c, 2, 52, 61
4, 58320, Note_on_c, 2, 42, 64
4, 58440, Note_off_c, 2, 42, 49
4, 58440, Note_on_c, 2, 38, 64
4, 58560, Note_off_c, 2, 38, 9
4, 58560, Note_on_c, 2, 43, 64
4, 58680, Note_off_c, 2, 43, 55
4, 58680, Note_on_c, 2, 40, 64
4, 58800, Note_off_c, 2, 40, 57
4, 58800, Note_on_c, 2, 36, 64
4, 58920, Note_off_c, 2, 36, 30
4, 58920, Note_on_c, 2, 38, 64
4, 59040, Note_off_c, 2, 38, 57
4, 59040, Note_on_c, 2, 43, 64
4, 59400, Note_off_c, 2, 43, 55
4, 59460, Note_on_c, 2, 43, 64
4, 59490, Note_off_c, 2, 43, 52
4, 59490, Note_on_c, 2, 45, 64
4, 59520, Note_off_c, 2, 45, 58
4, 59520, Note_on_c, 2, 47, 64
4, 59580, Note_off_c, 2, 47, 69
4, 59580, Note_on_c, 2, 43, 64
4, 59640, Note_off_c, 2, 43, 47
4, 59640, Note_on_c, 2, 48, 64
4, 59700, Note_off_c, 2, 48, 12
4, 59700, Note_on_c, 2, 43, 64
4, 59760, Note_on_c, 2, 50, 64
4, 59870, Note_off_c, 2, 43, 48
4, 59883, Note_off_c, 2, 50, 51
4, 59883, Note_on_c, 2, 43, 64
4, 60003, Note_on_c, 2, 47, 64
4, 60123, Note_off_c, 2, 47, 33
4, 60123, Note_on_c, 2, 48, 64
4, 60153, Note_off_c, 2, 48, 46
4, 60153, Note_on_c, 2, 47, 64
4, 60183, Note_off_c, 2, 47, 30
4, 60183, Note_on_c, 2, 48, 64
4, 60213, Note_off_c, 2, 48, 50
4, 60213, Note_on_c, 2, 50, 64
4, 60243, Note_off_c, 2, 50, 61
4, 60243, Note_on_c, 2, 52, 64
4, 60303, Note_off_c, 2, 52, 62
4, 60303, Note_on_c, 2, 48, 64
4, 60363, Note_off_c, 2, 48, 17
4, 60363, Note_on_c, 2, 54, 64
4, 60423, Note_off_c, 2, 54, 61
4, 60423, Note_on_c, 2, 48, 64
4, 60483, Note_off_c, 2, 48, 30
4, 60483, Note_on_c, 2, 55, 64
4, 61923, Note_off_c, 2, 43, 66
4, 61923, Note_off_c, 2, 55, 49
4, 61923, End_track
0, 0, End_of_file
