0, 0, Header, 1, 2, 240
1, 0, Start_track
1, 0, Time_signature, 2, 1, 48, 8
1, 0, Tempo, 416667
1, 65280, Tempo, 428571
1, 65460, Tempo, 444444
1, 65688, Tempo, 476190
1, 65952, Tempo, 535714
1, 66240, Tempo, 454545
1, 67200, Tempo, 625000
1, 67200, End_track
2, 0, Start_track
2, 0, Note_on_c, 0, 51, 64
2, 960, Note_off_c, 0, 51, 64
2, 960, Note_on_c, 0, 58, 64
2, 1440, Note_off_c, 0, 58, 64
2, 1680, Note_on_c, 0, 56, 64
2, 1920, Note_off_c, 0, 56, 64
2, 1920, Note_on_c, 0, 55, 64
2, 2160, Note_off_c, 0, 55, 64
2, 2160, Note_on_c, 0, 60, 64
2, 2640, Note_off_c, 0, 60, 64
2, 2640, Note_on_c, 0, 58, 64
2, 2880, Note_off_c, 0, 58, 64
2, 2880, Note_on_c, 0, 56, 64
2, 3120, Note_off_c, 0, 56, 64
2, 3120, Note_on_c, 0, 56, 64
2, 3240, Note_off_c, 0, 56, 64
2, 3240, Note_on_c, 0, 55, 64
2, 3360, Note_off_c, 0, 55, 64
2, 3360, Note_on_c, 0, 56, 64
2, 3600, Note_off_c, 0, 56, 64
2, 3600, Note_on_c, 0, 60, 64
2, 3840, Note_off_c, 0, 60, 64
2, 3840, Note_on_c, 0, 53, 64
2, 4080, Note_off_c, 0, 53, 64
2, 4080, Note_on_c, 0, 58, 64
2, 4560, Note_off_c, 0, 58, 64
2, 4560, Note_on_c, 0, 56, 64
2, 4800, Note_off_c, 0, 56, 64
2, 4800, Note_on_c, 0, 55, 64
2, 5040, Note_off_c, 0, 55, 64
2, 5040, Note_on_c, 0, 55, 64
2, 5160, Note_off_c, 0, 55, 64
2, 5160, Note_on_c, 0, 53, 64
2, 5280, Note_off_c, 0, 53, 64
2, 5280, Note_on_c, 0, 55, 64
2, 5520, Note_off_c, 0, 55, 64
2, 5520, Note_on_c, 0, 58, 64
2, 5760, Note_off_c, 0, 58, 64
2, 5760, Note_on_c, 0, 58, 64
2, 5760, Note_on_c, 0, 51, 64
2, 6000, Note_off_c, 0, 51, 64
2, 6000, Note_on_c, 0, 51, 64
2, 6120, Note_off_c, 0, 51, 64
2, 6120, Note_on_c, 0, 50, 64
2, 6240, Note_off_c, 0, 50, 64
2, 6240, Note_on_c, 0, 51, 64
2, 6480, Note_off_c, 0, 51, 64
2, 6480, Note_on_c, 0, 55, 64
2, 6720, Note_off_c, 0, 55, 64
2, 6720, Note_off_c, 0, 58, 64
2, 6720, Note_on_c, 0, 63, 64
2, 6720, Note_on_c, 0, 48, 64
2, 6960, Note_off_c, 0, 48, 64
2, 6960, Note_on_c, 0, 50, 64
2, 7080, Note_off_c, 0, 50, 64
2, 7080, Note_on_c, 0, 51, 64
2, 7200, Note_off_c, 0, 51, 64
2, 7200, Note_off_c, 0, 63, 64
2, 7200, Note_on_c, 0, 53, 64
2, 7440, Note_on_c, 0, 63, 64
2, 7680, Note_off_c, 0, 63, 64
2, 7680, Note_off_c, 0, 53, 64
2, 7680, Note_on_c, 0, 62, 64
2, 7680, Note_on_c, 0, 46, 64
2, 7920, Note_off_c, 0, 62, 64
2, 7920, Note_on_c, 0, 67, 64
2, 8160, Note_off_c, 0, 46, 64
2, 8160, Note_on_c, 0, 58, 64
2, 8400, Note_off_c, 0, 67, 64
2, 8400, Note_on_c, 0, 65, 64
2, 8640, Note_off_c, 0, 65, 64
2, 8640, Note_on_c, 0, 63, 64
2, 8880, Note_off_c, 0, 63, 64
2, 8880, Note_on_c, 0, 63, 64
2, 9000, Note_off_c, 0, 63, 64
2, 9000, Note_on_c, 0, 62, 64
2, 9120, Note_off_c, 0, 62, 64
2, 9120, Note_off_c, 0, 58, 64
2, 9120, Note_on_c, 0, 63, 64
2, 9120, Note_on_c, 0, 57, 64
2, 9360, Note_off_c, 0, 57, 64
2, 9360, Note_off_c, 0, 63, 64
2, 9360, Note_on_c, 0, 55, 64
2, 9360, Note_on_c, 0, 67, 64
2, 9600, Note_off_c, 0, 67, 64
2, 9600, Note_off_c, 0, 55, 64
2, 9600, Note_on_c, 0, 60, 64
2, 9600, Note_on_c, 0, 57, 64
2, 9840, Note_off_c, 0, 60, 64
2, 9840, Note_on_c, 0, 65, 64
2, 9960, Note_off_c, 0, 57, 64
2, 9960, Note_on_c, 0, 58, 64
2, 10020, Note_off_c, 0, 58, 64
2, 10020, Note_on_c, 0, 57, 64
2, 10080, Note_off_c, 0, 57, 64
2, 10080, Note_on_c, 0, 55, 64
2, 10320, Note_off_c, 0, 55, 64
2, 10320, Note_off_c, 0, 65, 64
2, 10320, Note_on_c, 0, 57, 64
2, 10320, Note_on_c, 0, 63, 64
2, 10560, Note_off_c, 0, 63, 64
2, 10560, Note_off_c, 0, 57, 64
2, 10560, Note_on_c, 0, 62, 64
2, 10560, Note_on_c, 0, 58, 64
2, 10800, Note_off_c, 0, 58, 64
2, 10800, Note_off_c, 0, 62, 64
2, 10800, Note_on_c, 0, 62, 64
2, 10800, Note_on_c, 0, 46, 64
2, 10920, Note_off_c, 0, 62, 64
2, 10920, Note_on_c, 0, 60, 64
2, 11040, Note_off_c, 0, 60, 64
2, 11040, Note_off_c, 0, 46, 64
2, 11040, Note_on_c, 0, 62, 64
2, 11040, Note_on_c, 0, 58, 64
2, 11280, Note_off_c, 0, 58, 64
2, 11280, Note_off_c, 0, 62, 64
2, 11280, Note_on_c, 0, 56, 64
2, 11280, Note_on_c, 0, 65, 64
2, 11520, Note_off_c, 0, 65, 64
2, 11520, Note_off_c, 0, 56, 64
2, 11520, Note_on_c, 0, 58, 64
2, 11520, Note_on_c, 0, 55, 64
2, 11760, Note_off_c, 0, 55, 64
2, 11760, Note_off_c, 0, 58, 64
2, 11760, Note_on_c, 0, 58, 64
2, 11760, Note_on_c, 0, 43, 64
2, 11880, Note_off_c, 0, 58, 64
2, 11880, Note_on_c, 0, 56, 64
2, 12000, Note_off_c, 0, 56, 64
2, 12000, Note_off_c, 0, 43, 64
2, 12000, Note_on_c, 0, 58, 64
2, 12000, Note_on_c, 0, 55, 64
2, 12240, Note_off_c, 0, 55, 64
2, 12240, Note_off_c, 0, 58, 64
2, 12240, Note_on_c, 0, 53, 64
2, 12240, Note_on_c, 0, 62, 64
2, 12480, Note_off_c, 0, 62, 64
2, 12480, Note_off_c, 0, 53, 64
2, 12480, Note_on_c, 0, 63, 64
2, 12480, Note_on_c, 0, 55, 64
2, 12480, Note_on_c, 0, 51, 64
2, 12720, Note_off_c, 0, 51, 64
2, 12720, Note_off_c, 0, 55, 64
2, 12720, Note_on_c, 0, 56, 64
2, 12720, Note_on_c, 0, 53, 64
2, 12840, Note_off_c, 0, 53, 64
2, 12840, Note_off_c, 0, 56, 64
2, 12840, Note_on_c, 0, 58, 64
2, 12840, Note_on_c, 0, 55, 64
2, 12960, Note_off_c, 0, 55, 64
2, 12960, Note_off_c, 0, 58, 64
2, 12960, Note_on_c, 0, 56, 64
2, 12960, Note_on_c, 0, 60, 64
2, 13200, Note_off_c, 0, 60, 64
2, 13200, Note_on_c, 0, 58, 64
2, 13320, Note_off_c, 0, 58, 64
2, 13320, Note_on_c, 0, 60, 64
2, 13440, Note_off_c, 0, 60, 64
2, 13440, Note_off_c, 0, 63, 64
2, 13440, Note_on_c, 0, 70, 64
2, 13440, Note_on_c, 0, 62, 64
2, 13680, Note_off_c, 0, 62, 64
2, 13680, Note_off_c, 0, 56, 64
2, 13680, Note_on_c, 0, 65, 64
2, 13680, Note_on_c, 0, 55, 64
2, 13800, Note_off_c, 0, 55, 64
2, 13800, Note_on_c, 0, 53, 64
2, 13920, Note_off_c, 0, 53, 64
2, 13920, Note_off_c, 0, 65, 64
2, 13920, Note_off_c, 0, 70, 64
2, 13920, Note_on_c, 0, 58, 64
2, 13920, Note_on_c, 0, 55, 64
2, 14160, Note_off_c, 0, 55, 64
2, 14160, Note_off_c, 0, 58, 64
2, 14160, Note_on_c, 0, 68, 64
2, 14160, Note_on_c, 0, 58, 64
2, 14160, Note_on_c, 0, 62, 64
2, 14400, Note_off_c, 0, 62, 64
2, 14400, Note_off_c, 0, 58, 64
2, 14400, Note_off_c, 0, 68, 64
2, 14400, Note_on_c, 0, 63, 64
2, 14400, Note_on_c, 0, 67, 64
2, 14400, Note_on_c, 0, 51, 64
2, 14640, Note_off_c, 0, 51, 64
2, 14640, Note_off_c, 0, 67, 64
2, 14640, Note_on_c, 0, 72, 64
2, 14640, Note_on_c, 0, 56, 64
2, 14760, Note_off_c, 0, 56, 64
2, 14760, Note_on_c, 0, 55, 64
2, 14880, Note_off_c, 0, 55, 64
2, 14880, Note_on_c, 0, 56, 64
2, 15120, Note_off_c, 0, 56, 64
2, 15120, Note_off_c, 0, 72, 64
2, 15120, Note_on_c, 0, 60, 64
2, 15120, Note_on_c, 0, 70, 64
2, 15360, Note_off_c, 0, 70, 64
2, 15360, Note_off_c, 0, 60, 64
2, 15360, Note_on_c, 0, 68, 64
2, 15360, Note_on_c, 0, 53, 64
2, 15600, Note_off_c, 0, 68, 64
2, 15600, Note_on_c, 0, 68, 64
2, 15720, Note_off_c, 0, 68, 64
2, 15720, Note_on_c, 0, 67, 64
2, 15840, Note_off_c, 0, 67, 64
2, 15840, Note_off_c, 0, 63, 64
2, 15840, Note_on_c, 0, 68, 64
2, 15840, Note_on_c, 0, 62, 64
2, 16080, Note_off_c, 0, 62, 64
2, 16080, Note_off_c, 0, 68, 64
2, 16080, Note_off_c, 0, 53, 64
2, 16080, Note_on_c, 0, 60, 64
2, 16080, Note_on_c, 0, 72, 64
2, 16080, Note_on_c, 0, 55, 64
2, 16200, Note_off_c, 0, 55, 64
2, 16200, Note_on_c, 0, 56, 64
2, 16320, Note_off_c, 0, 56, 64
2, 16320, Note_off_c, 0, 72, 64
2, 16320, Note_off_c, 0, 60, 64
2, 16320, Note_on_c, 0, 58, 64
2, 16320, Note_on_c, 0, 65, 64
2, 16320, Note_on_c, 0, 62, 64
2, 16560, Note_off_c, 0, 65, 64
2, 16560, Note_on_c, 0, 70, 64
2, 16680, Note_off_c, 0, 62, 64
2, 16680, Note_on_c, 0, 63, 64
2, 16740, Note_off_c, 0, 63, 64
2, 16740, Note_on_c, 0, 62, 64
2, 16800, Note_off_c, 0, 62, 64
2, 16800, Note_on_c, 0, 60, 64
2, 17040, Note_off_c, 0, 60, 64
2, 17040, Note_off_c, 0, 70, 64
2, 17040, Note_on_c, 0, 62, 64
2, 17040, Note_on_c, 0, 68, 64
2, 17280, Note_off_c, 0, 68, 64
2, 17280, Note_off_c, 0, 62, 64
2, 17280, Note_off_c, 0, 58, 64
2, 17280, Note_on_c, 0, 67, 64
2, 17280, Note_on_c, 0, 63, 64
2, 17280, Note_on_c, 0, 51, 64
2, 17520, Note_off_c, 0, 63, 64
2, 17520, Note_off_c, 0, 67, 64
2, 17520, Note_on_c, 0, 67, 64
2, 17520, Note_on_c, 0, 58, 64
2, 17640, Note_off_c, 0, 58, 64
2, 17640, Note_off_c, 0, 67, 64
2, 17640, Note_on_c, 0, 65, 64
2, 17640, Note_on_c, 0, 56, 64
2, 17760, Note_off_c, 0, 56, 64
2, 17760, Note_off_c, 0, 65, 64
2, 17760, Note_on_c, 0, 58, 64
2, 17760, Note_on_c, 0, 67, 64
2, 18000, Note_off_c, 0, 67, 64
2, 18000, Note_off_c, 0, 51, 64
2, 18000, Note_on_c, 0, 50, 64
2, 18000, Note_on_c, 0, 70, 64
2, 18240, Note_off_c, 0, 70, 64
2, 18240, Note_off_c, 0, 50, 64
2, 18240, Note_on_c, 0, 63, 64
2, 18240, Note_on_c, 0, 48, 64
2, 18480, Note_off_c, 0, 63, 64
2, 18480, Note_off_c, 0, 58, 64
2, 18480, Note_on_c, 0, 65, 64
2, 18480, Note_on_c, 0, 56, 64
2, 18600, Note_off_c, 0, 56, 64
2, 18600, Note_off_c, 0, 65, 64
2, 18600, Note_on_c, 0, 63, 64
2, 18600, Note_on_c, 0, 55, 64
2, 18720, Note_off_c, 0, 55, 64
2, 18720, Note_off_c, 0, 63, 64
2, 18720, Note_off_c, 0, 48, 64
2, 18720, Note_on_c, 0, 56, 64
2, 18720, Note_on_c, 0, 65, 64
2, 18960, Note_off_c, 0, 65, 64
2, 18960, Note_on_c, 0, 53, 64
2, 18960, Note_on_c, 0, 68, 64
2, 19200, Note_off_c, 0, 68, 64
2, 19200, Note_off_c, 0, 53, 64
2, 19200, Note_on_c, 0, 46, 64
2, 19200, Note_on_c, 0, 70, 64
2, 19200, Note_on_c, 0, 62, 64
2, 19440, Note_off_c, 0, 62, 64
2, 19440, Note_off_c, 0, 56, 64
2, 19440, Note_on_c, 0, 63, 64
2, 19440, Note_on_c, 0, 55, 64
2, 19680, Note_off_c, 0, 55, 64
2, 19680, Note_on_c, 0, 53, 64
2, 19920, Note_off_c, 0, 53, 64
2, 19920, Note_off_c, 0, 63, 64
2, 19920, Note_on_c, 0, 58, 64
2, 19920, Note_on_c, 0, 62, 64
2, 20160, Note_off_c, 0, 62, 64
2, 20160, Note_off_c, 0, 58, 64
2, 20160, Note_off_c, 0, 70, 64
2, 20160, Note_on_c, 0, 75, 64
2, 20160, Note_on_c, 0, 60, 64
2, 20160, Note_on_c, 0, 55, 64
2, 20400, Note_off_c, 0, 60, 64
2, 20400, Note_on_c, 0, 67, 64
2, 20640, Note_off_c, 0, 67, 64
2, 20640, Note_off_c, 0, 55, 64
2, 20640, Note_off_c, 0, 75, 64
2, 20640, Note_off_c, 0, 46, 64
2, 20640, Note_on_c, 0, 45, 64
2, 20640, Note_on_c, 0, 53, 64
2, 20640, Note_on_c, 0, 72, 64
2, 20880, Note_on_c, 0, 75, 64
2, 21120, Note_off_c, 0, 75, 64
2, 21120, Note_off_c, 0, 45, 64
2, 21120, Note_on_c, 0, 74, 64
2, 21120, Note_on_c, 0, 46, 64
2, 21360, Note_off_c, 0, 74, 64
2, 21360, Note_off_c, 0, 72, 64
2, 21360, Note_off_c, 0, 53, 64
2, 21360, Note_on_c, 0, 79, 64
2, 21360, Note_on_c, 0, 70, 64
2, 21360, Note_on_c, 0, 50, 64
2, 21480, Note_off_c, 0, 70, 64
2, 21480, Note_on_c, 0, 69, 64
2, 21600, Note_off_c, 0, 69, 64
2, 21600, Note_off_c, 0, 50, 64
2, 21600, Note_off_c, 0, 46, 64
2, 21600, Note_on_c, 0, 55, 64
2, 21600, Note_on_c, 0, 70, 64
2, 21840, Note_off_c, 0, 79, 64
2, 21840, Note_on_c, 0, 43, 64
2, 21840, Note_on_c, 0, 77, 64
2, 22080, Note_off_c, 0, 77, 64
2, 22080, Note_off_c, 0, 43, 64
2, 22080, Note_on_c, 0, 75, 64
2, 22080, Note_on_c, 0, 48, 64
2, 22320, Note_off_c, 0, 75, 64
2, 22320, Note_off_c, 0, 55, 64
2, 22320, Note_on_c, 0, 75, 64
2, 22320, Note_on_c, 0, 60, 64
2, 22440, Note_off_c, 0, 60, 64
2, 22440, Note_off_c, 0, 75, 64
2, 22440, Note_on_c, 0, 74, 64
2, 22440, Note_on_c, 0, 58, 64
2, 22560, Note_off_c, 0, 58, 64
2, 22560, Note_off_c, 0, 74, 64
2, 22560, Note_off_c, 0, 48, 64
2, 22560, Note_off_c, 0, 70, 64
2, 22560, Note_on_c, 0, 60, 64
2, 22560, Note_on_c, 0, 75, 64
2, 22560, Note_on_c, 0, 69, 64
2, 22800, Note_off_c, 0, 69, 64
2, 22800, Note_off_c, 0, 75, 64
2, 22800, Note_on_c, 0, 51, 64
2, 22800, Note_on_c, 0, 67, 64
2, 22800, Note_on_c, 0, 79, 64
2, 23040, Note_off_c, 0, 79, 64
2, 23040, Note_off_c, 0, 67, 64
2, 23040, Note_off_c, 0, 51, 64
2, 23040, Note_on_c, 0, 72, 64
2, 23040, Note_on_c, 0, 69, 64
2, 23040, Note_on_c, 0, 53, 64
2, 23280, Note_off_c, 0, 72, 64
2, 23280, Note_on_c, 0, 77, 64
2, 23400, Note_off_c, 0, 69, 64
2, 23400, Note_off_c, 0, 60, 64
2, 23400, Note_on_c, 0, 70, 64
2, 23400, Note_on_c, 0, 62, 64
2, 23460, Note_off_c, 0, 62, 64
2, 23460, Note_off_c, 0, 70, 64
2, 23460, Note_on_c, 0, 69, 64
2, 23460, Note_on_c, 0, 60, 64
2, 23520, Note_off_c, 0, 60, 64
2, 23520, Note_off_c, 0, 69, 64
2, 23520, Note_off_c, 0, 53, 64
2, 23520, Note_on_c, 0, 67, 64
2, 23520, Note_on_c, 0, 58, 64
2, 23760, Note_off_c, 0, 58, 64
2, 23760, Note_off_c, 0, 67, 64
2, 23760, Note_off_c, 0, 77, 64
2, 23760, Note_on_c, 0, 53, 64
2, 23760, Note_on_c, 0, 60, 64
2, 23760, Note_on_c, 0, 69, 64
2, 23760, Note_on_c, 0, 75, 64
2, 24000, Note_off_c, 0, 75, 64
2, 24000, Note_off_c, 0, 69, 64
2, 24000, Note_off_c, 0, 60, 64
2, 24000, Note_off_c, 0, 53, 64
2, 24000, Note_on_c, 0, 74, 64
2, 24000, Note_on_c, 0, 70, 64
2, 24000, Note_on_c, 0, 62, 64
2, 24000, Note_on_c, 0, 58, 64
2, 24240, Note_off_c, 0, 58, 64
2, 24240, Note_off_c, 0, 74, 64
2, 24240, Note_on_c, 0, 74, 64
2, 24240, Note_on_c, 0, 53, 64
2, 24360, Note_off_c, 0, 74, 64
2, 24360, Note_on_c, 0, 72, 64
2, 24480, Note_off_c, 0, 72, 64
2, 24480, Note_off_c, 0, 53, 64
2, 24480, Note_off_c, 0, 62, 64
2, 24480, Note_off_c, 0, 70, 64
2, 24480, Note_on_c, 0, 74, 64
2, 24480, Note_on_c, 0, 58, 64
2, 24720, Note_off_c, 0, 58, 64
2, 24720, Note_off_c, 0, 74, 64
2, 24720, Note_on_c, 0, 60, 64
2, 24720, Note_on_c, 0, 65, 64
2, 24720, Note_on_c, 0, 57, 64
2, 24720, Note_on_c, 0, 77, 64
2, 24960, Note_off_c, 0, 77, 64
2, 24960, Note_off_c, 0, 57, 64
2, 24960, Note_off_c, 0, 65, 64
2, 24960, Note_off_c, 0, 60, 64
2, 24960, Note_on_c, 0, 70, 64
2, 24960, Note_on_c, 0, 67, 64
2, 24960, Note_on_c, 0, 62, 64
2, 24960, Note_on_c, 0, 55, 64
2, 25200, Note_off_c, 0, 55, 64
2, 25200, Note_off_c, 0, 70, 64
2, 25200, Note_on_c, 0, 70, 64
2, 25200, Note_on_c, 0, 50, 64
2, 25320, Note_off_c, 0, 70, 64
2, 25320, Note_on_c, 0, 69, 64
2, 25440, Note_off_c, 0, 69, 64
2, 25440, Note_off_c, 0, 50, 64
2, 25440, Note_off_c, 0, 62, 64
2, 25440, Note_off_c, 0, 67, 64
2, 25440, Note_on_c, 0, 70, 64
2, 25440, Note_on_c, 0, 55, 64
2, 25680, Note_off_c, 0, 55, 64
2, 25680, Note_off_c, 0, 70, 64
2, 25680, Note_on_c, 0, 56, 64
2, 25680, Note_on_c, 0, 62, 64
2, 25680, Note_on_c, 0, 53, 64
2, 25680, Note_on_c, 0, 74, 64
2, 25920, Note_off_c, 0, 74, 64
2, 25920, Note_off_c, 0, 53, 64
2, 25920, Note_off_c, 0, 62, 64
2, 25920, Note_off_c, 0, 56, 64
2, 25920, Note_on_c, 0, 67, 64
2, 25920, Note_on_c, 0, 63, 64
2, 25920, Note_on_c, 0, 58, 64
2, 25920, Note_on_c, 0, 51, 64
2, 26160, Note_off_c, 0, 58, 64
2, 26160, Note_off_c, 0, 63, 64
2, 26160, Note_off_c, 0, 67, 64
2, 26160, Note_on_c, 0, 69, 64
2, 26160, Note_on_c, 0, 65, 64
2, 26160, Note_on_c, 0, 60, 64
2, 26400, Note_off_c, 0, 60, 64
2, 26400, Note_off_c, 0, 65, 64
2, 26400, Note_off_c, 0, 69, 64
2, 26400, Note_on_c, 0, 61, 64
2, 26400, Note_on_c, 0, 67, 64
2, 26400, Note_on_c, 0, 70, 64
2, 26640, Note_off_c, 0, 51, 64
2, 26640, Note_on_c, 0, 52, 64
2, 26880, Note_off_c, 0, 52, 64
2, 26880, Note_off_c, 0, 67, 64
2, 26880, Note_off_c, 0, 61, 64
2, 26880, Note_on_c, 0, 53, 64
2, 26880, Note_on_c, 0, 65, 64
2, 26880, Note_on_c, 0, 60, 64
2, 27120, Note_off_c, 0, 60, 64
2, 27120, Note_on_c, 0, 58, 64
2, 27360, Note_off_c, 0, 58, 64
2, 27360, Note_off_c, 0, 70, 64
2, 27360, Note_on_c, 0, 69, 64
2, 27360, Note_on_c, 0, 60, 64
2, 27600, Note_off_c, 0, 65, 64
2, 27600, Note_on_c, 0, 63, 64
2, 27840, Note_off_c, 0, 63, 64
2, 27840, Note_off_c, 0, 60, 64
2, 27840, Note_off_c, 0, 69, 64
2, 27840, Note_off_c, 0, 53, 64
2, 27840, Note_on_c, 0, 70, 64
2, 27840, Note_on_c, 0, 62, 64
2, 27840, Note_on_c, 0, 58, 64
2, 27840, Note_on_c, 0, 46, 64
2, 28080, Note_off_c, 0, 62, 64
2, 28080, Note_off_c, 0, 70, 64
2, 28080, Note_on_c, 0, 74, 64
2, 28080, Note_on_c, 0, 65, 64
2, 28200, Note_off_c, 0, 65, 64
2, 28200, Note_off_c, 0, 74, 64
2, 28200, Note_on_c, 0, 75, 64
2, 28200, Note_on_c, 0, 67, 64
2, 28320, Note_off_c, 0, 67, 64
2, 28320, Note_off_c, 0, 75, 64
2, 28320, Note_off_c, 0, 46, 64
2, 28320, Note_off_c, 0, 58, 64
2, 28320, Note_on_c, 0, 58, 64
2, 28320, Note_on_c, 0, 68, 64
2, 28320, Note_on_c, 0, 77, 64
2, 28560, Note_off_c, 0, 77, 64
2, 28560, Note_on_c, 0, 74, 64
2, 28800, Note_off_c, 0, 74, 64
2, 28800, Note_off_c, 0, 58, 64
2, 28800, Note_on_c, 0, 70, 64
2, 28800, Note_on_c, 0, 63, 64
2, 29040, Note_off_c, 0, 70, 64
2, 29040, Note_off_c, 0, 68, 64
2, 29040, Note_on_c, 0, 75, 64
2, 29040, Note_on_c, 0, 67, 64
2, 29160, Note_off_c, 0, 67, 64
2, 29160, Note_off_c, 0, 75, 64
2, 29160, Note_on_c, 0, 77, 64
2, 29160, Note_on_c, 0, 68, 64
2, 29280, Note_off_c, 0, 68, 64
2, 29280, Note_off_c, 0, 77, 64
2, 29280, Note_off_c, 0, 63, 64
2, 29280, Note_on_c, 0, 51, 64
2, 29280, Note_on_c, 0, 79, 64
2, 29280, Note_on_c, 0, 70, 64
2, 29520, Note_off_c, 0, 70, 64
2, 29520, Note_off_c, 0, 79, 64
2, 29520, Note_on_c, 0, 63, 64
2, 29520, Note_on_c, 0, 67, 64
2, 29520, Note_on_c, 0, 75, 64
2, 29760, Note_off_c, 0, 75, 64
2, 29760, Note_off_c, 0, 67, 64
2, 29760, Note_off_c, 0, 63, 64
2, 29760, Note_off_c, 0, 51, 64
2, 29760, Note_on_c, 0, 77, 64
2, 29760, Note_on_c, 0, 65, 64
2, 29760, Note_on_c, 0, 62, 64
2, 29760, Note_on_c, 0, 58, 64
2, 30000, Note_off_c, 0, 62, 64
2, 30000, Note_off_c, 0, 65, 64
2, 30000, Note_off_c, 0, 77, 64
2, 30000, Note_on_c, 0, 75, 64
2, 30000, Note_on_c, 0, 70, 64
2, 30000, Note_on_c, 0, 67, 64
2, 30120, Note_off_c, 0, 75, 64
2, 30120, Note_on_c, 0, 74, 64
2, 30240, Note_off_c, 0, 74, 64
2, 30240, Note_off_c, 0, 70, 64
2, 30240, Note_off_c, 0, 58, 64
2, 30240, Note_on_c, 0, 72, 64
2, 30240, Note_on_c, 0, 68, 64
2, 30480, Note_off_c, 0, 68, 64
2, 30480, Note_off_c, 0, 72, 64
2, 30480, Note_off_c, 0, 67, 64
2, 30480, Note_on_c, 0, 56, 64
2, 30480, Note_on_c, 0, 65, 64
2, 30480, Note_on_c, 0, 70, 64
2, 30480, Note_on_c, 0, 74, 64
2, 30720, Note_off_c, 0, 74, 64
2, 30720, Note_off_c, 0, 70, 64
2, 30720, Note_off_c, 0, 65, 64
2, 30720, Note_off_c, 0, 56, 64
2, 30720, Note_on_c, 0, 75, 64
2, 30720, Note_on_c, 0, 63, 64
2, 30720, Note_on_c, 0, 58, 64
2, 30720, Note_on_c, 0, 55, 64
2, 30960, Note_off_c, 0, 55, 64
2, 30960, Note_off_c, 0, 58, 64
2, 30960, Note_off_c, 0, 63, 64
2, 30960, Note_off_c, 0, 75, 64
2, 30960, Note_on_c, 0, 63, 64
2, 30960, Note_on_c, 0, 60, 64
2, 31080, Note_off_c, 0, 63, 64
2, 31080, Note_on_c, 0, 62, 64
2, 31200, Note_off_c, 0, 62, 64
2, 31200, Note_on_c, 0, 63, 64
2, 31440, Note_off_c, 0, 63, 64
2, 31440, Note_off_c, 0, 60, 64
2, 31440, Note_on_c, 0, 58, 64
2, 31440, Note_on_c, 0, 67, 64
2, 31680, Note_off_c, 0, 67, 64
2, 31680, Note_off_c, 0, 58, 64
2, 31680, Note_on_c, 0, 60, 64
2, 31680, Note_on_c, 0, 56, 64
2, 31920, Note_off_c, 0, 56, 64
2, 31920, Note_off_c, 0, 60, 64
2, 31920, Note_on_c, 0, 65, 64
2, 31920, Note_on_c, 0, 56, 64
2, 32040, Note_off_c, 0, 56, 64
2, 32040, Note_on_c, 0, 55, 64
2, 32160, Note_off_c, 0, 55, 64
2, 32160, Note_on_c, 0, 56, 64
2, 32400, Note_off_c, 0, 56, 64
2, 32400, Note_off_c, 0, 65, 64
2, 32400, Note_on_c, 0, 60, 64
2, 32400, Note_on_c, 0, 63, 64
2, 32640, Note_off_c, 0, 63, 64
2, 32640, Note_off_c, 0, 60, 64
2, 32640, Note_on_c, 0, 62, 64
2, 32640, Note_on_c, 0, 53, 64
2, 32880, Note_off_c, 0, 53, 64
2, 32880, Note_off_c, 0, 62, 64
2, 32880, Note_on_c, 0, 62, 64
2, 32880, Note_on_c, 0, 58, 64
2, 33000, Note_off_c, 0, 62, 64
2, 33000, Note_on_c, 0, 60, 64
2, 33120, Note_off_c, 0, 60, 64
2, 33120, Note_on_c, 0, 62, 64
2, 33360, Note_off_c, 0, 62, 64
2, 33360, Note_off_c, 0, 58, 64
2, 33360, Note_on_c, 0, 56, 64
2, 33360, Note_on_c, 0, 65, 64
2, 33600, Note_off_c, 0, 65, 64
2, 33600, Note_off_c, 0, 56, 64
2, 33600, Note_on_c, 0, 58, 64
2, 33600, Note_on_c, 0, 55, 64
2, 33840, Note_off_c, 0, 55, 64
2, 33840, Note_off_c, 0, 58, 64
2, 33840, Note_on_c, 0, 58, 64
2, 33840, Note_on_c, 0, 55, 64
2, 33960, Note_off_c, 0, 55, 64
2, 33960, Note_off_c, 0, 58, 64
2, 33960, Note_on_c, 0, 56, 64
2, 33960, Note_on_c, 0, 53, 64
2, 34080, Note_off_c, 0, 53, 64
2, 34080, Note_off_c, 0, 56, 64
2, 34080, Note_on_c, 0, 58, 64
2, 34080, Note_on_c, 0, 55, 64
2, 34320, Note_off_c, 0, 55, 64
2, 34320, Note_off_c, 0, 58, 64
2, 34320, Note_on_c, 0, 58, 64
2, 34320, Note_on_c, 0, 62, 64
2, 34560, Note_off_c, 0, 62, 64
2, 34560, Note_off_c, 0, 58, 64
2, 34560, Note_on_c, 0, 70, 64
2, 34560, Note_on_c, 0, 55, 64
2, 34560, Note_on_c, 0, 51, 64
2, 34800, Note_off_c, 0, 51, 64
2, 34800, Note_on_c, 0, 51, 64
2, 34920, Note_off_c, 0, 51, 64
2, 34920, Note_on_c, 0, 50, 64
2, 35040, Note_off_c, 0, 50, 64
2, 35040, Note_off_c, 0, 55, 64
2, 35040, Note_on_c, 0, 67, 64
2, 35040, Note_on_c, 0, 51, 64
2, 35280, Note_off_c, 0, 51, 64
2, 35280, Note_on_c, 0, 55, 64
2, 35520, Note_off_c, 0, 55, 64
2, 35520, Note_off_c, 0, 70, 64
2, 35520, Note_on_c, 0, 75, 64
2, 35520, Note_on_c, 0, 75, 64
2, 35520, Note_on_c, 0, 48, 64
2, 35760, Note_off_c, 0, 67, 64
2, 35760, Note_on_c, 0, 67, 64
2, 35880, Note_off_c, 0, 67, 64
2, 35880, Note_on_c, 0, 65, 64
2, 36000, Note_off_c, 0, 65, 64
2, 36000, Note_off_c, 0, 48, 64
2, 36000, Note_off_c, 0, 75, 64
2, 36000, Note_on_c, 0, 60, 64
2, 36000, Note_on_c, 0, 67, 64
2, 36240, Note_off_c, 0, 67, 64
2, 36240, Note_off_c, 0, 75, 64
2, 36240, Note_on_c, 0, 75, 64
2, 36240, Note_on_c, 0, 69, 64
2, 36480, Note_off_c, 0, 69, 64
2, 36480, Note_off_c, 0, 75, 64
2, 36480, Note_off_c, 0, 60, 64
2, 36480, Note_on_c, 0, 82, 64
2, 36480, Note_on_c, 0, 74, 64
2, 36480, Note_on_c, 0, 70, 64
2, 36480, Note_on_c, 0, 58, 64
2, 36720, Note_off_c, 0, 58, 64
2, 36720, Note_off_c, 0, 70, 64
2, 36720, Note_off_c, 0, 74, 64
2, 36720, Note_on_c, 0, 79, 64
2, 36720, Note_on_c, 0, 62, 64
2, 36720, Note_on_c, 0, 58, 64
2, 36840, Note_off_c, 0, 58, 64
2, 36840, Note_off_c, 0, 62, 64
2, 36840, Note_on_c, 0, 60, 64
2, 36840, Note_on_c, 0, 56, 64
2, 36960, Note_off_c, 0, 56, 64
2, 36960, Note_off_c, 0, 60, 64
2, 36960, Note_off_c, 0, 82, 64
2, 36960, Note_on_c, 0, 62, 64
2, 36960, Note_on_c, 0, 58, 64
2, 37200, Note_off_c, 0, 58, 64
2, 37200, Note_off_c, 0, 62, 64
2, 37200, Note_off_c, 0, 79, 64
2, 37200, Note_on_c, 0, 80, 64
2, 37200, Note_on_c, 0, 62, 64
2, 37200, Note_on_c, 0, 77, 64
2, 37200, Note_on_c, 0, 65, 64
2, 37440, Note_off_c, 0, 65, 64
2, 37440, Note_off_c, 0, 77, 64
2, 37440, Note_off_c, 0, 62, 64
2, 37440, Note_off_c, 0, 80, 64
2, 37440, Note_on_c, 0, 79, 64
2, 37440, Note_on_c, 0, 75, 64
2, 37440, Note_on_c, 0, 67, 64
2, 37440, Note_on_c, 0, 63, 64
2, 37680, Note_off_c, 0, 67, 64
2, 37680, Note_off_c, 0, 75, 64
2, 37680, Note_off_c, 0, 79, 64
2, 37680, Note_on_c, 0, 84, 64
2, 37680, Note_on_c, 0, 75, 64
2, 37680, Note_on_c, 0, 67, 64
2, 37800, Note_off_c, 0, 67, 64
2, 37800, Note_off_c, 0, 75, 64
2, 37800, Note_on_c, 0, 74, 64
2, 37800, Note_on_c, 0, 65, 64
2, 37920, Note_off_c, 0, 65, 64
2, 37920, Note_off_c, 0, 74, 64
2, 37920, Note_off_c, 0, 63, 64
2, 37920, Note_on_c, 0, 67, 64
2, 37920, Note_on_c, 0, 75, 64
2, 38160, Note_off_c, 0, 75, 64
2, 38160, Note_off_c, 0, 84, 64
2, 38160, Note_on_c, 0, 64, 64
2, 38160, Note_on_c, 0, 79, 64
2, 38160, Note_on_c, 0, 82, 64
2, 38400, Note_off_c, 0, 82, 64
2, 38400, Note_off_c, 0, 79, 64
2, 38400, Note_off_c, 0, 64, 64
2, 38400, Note_on_c, 0, 80, 64
2, 38400, Note_on_c, 0, 72, 64
2, 38400, Note_on_c, 0, 65, 64
2, 38640, Note_off_c, 0, 65, 64
2, 38640, Note_off_c, 0, 72, 64
2, 38640, Note_off_c, 0, 80, 64
2, 38640, Note_off_c, 0, 67, 64
2, 38640, Note_on_c, 0, 80, 64
2, 38640, Note_on_c, 0, 77, 64
2, 38640, Note_on_c, 0, 60, 64
2, 38640, Note_on_c, 0, 53, 64
2, 38760, Note_off_c, 0, 53, 64
2, 38760, Note_off_c, 0, 80, 64
2, 38760, Note_on_c, 0, 79, 64
2, 38760, Note_on_c, 0, 52, 64
2, 38880, Note_off_c, 0, 52, 64
2, 38880, Note_off_c, 0, 79, 64
2, 38880, Note_off_c, 0, 60, 64
2, 38880, Note_on_c, 0, 65, 64
2, 38880, Note_on_c, 0, 80, 64
2, 38880, Note_on_c, 0, 53, 64
2, 39120, Note_off_c, 0, 53, 64
2, 39120, Note_off_c, 0, 80, 64
2, 39120, Note_off_c, 0, 77, 64
2, 39120, Note_on_c, 0, 57, 64
2, 39120, Note_on_c, 0, 75, 64
2, 39120, Note_on_c, 0, 84, 64
2, 39360, Note_off_c, 0, 84, 64
2, 39360, Note_off_c, 0, 75, 64
2, 39360, Note_off_c, 0, 57, 64
2, 39360, Note_on_c, 0, 77, 64
2, 39360, Note_on_c, 0, 74, 64
2, 39360, Note_on_c, 0, 58, 64
2, 39600, Note_off_c, 0, 74, 64
2, 39600, Note_off_c, 0, 77, 64
2, 39600, Note_off_c, 0, 65, 64
2, 39600, Note_on_c, 0, 82, 64
2, 39600, Note_on_c, 0, 74, 64
2, 39600, Note_on_c, 0, 65, 64
2, 39720, Note_off_c, 0, 65, 64
2, 39720, Note_off_c, 0, 74, 64
2, 39720, Note_on_c, 0, 72, 64
2, 39720, Note_on_c, 0, 63, 64
2, 39840, Note_off_c, 0, 63, 64
2, 39840, Note_off_c, 0, 72, 64
2, 39840, Note_off_c, 0, 58, 64
2, 39840, Note_on_c, 0, 65, 64
2, 39840, Note_on_c, 0, 74, 64
2, 40080, Note_off_c, 0, 74, 64
2, 40080, Note_off_c, 0, 82, 64
2, 40080, Note_on_c, 0, 62, 64
2, 40080, Note_on_c, 0, 77, 64
2, 40080, Note_on_c, 0, 80, 64
2, 40320, Note_off_c, 0, 80, 64
2, 40320, Note_off_c, 0, 77, 64
2, 40320, Note_off_c, 0, 62, 64
2, 40320, Note_on_c, 0, 79, 64
2, 40320, Note_on_c, 0, 70, 64
2, 40320, Note_on_c, 0, 63, 64
2, 40560, Note_off_c, 0, 63, 64
2, 40560, Note_off_c, 0, 70, 64
2, 40560, Note_off_c, 0, 79, 64
2, 40560, Note_off_c, 0, 65, 64
2, 40560, Note_on_c, 0, 79, 64
2, 40560, Note_on_c, 0, 70, 64
2, 40560, Note_on_c, 0, 58, 64
2, 40560, Note_on_c, 0, 51, 64
2, 40680, Note_off_c, 0, 70, 64
2, 40680, Note_off_c, 0, 79, 64
2, 40680, Note_on_c, 0, 77, 64
2, 40680, Note_on_c, 0, 68, 64
2, 40800, Note_off_c, 0, 68, 64
2, 40800, Note_off_c, 0, 77, 64
2, 40800, Note_off_c, 0, 51, 64
2, 40800, Note_off_c, 0, 58, 64
2, 40800, Note_on_c, 0, 79, 64
2, 40800, Note_on_c, 0, 70, 64
2, 40800, Note_on_c, 0, 63, 64
2, 40920, Note_on_c, 0, 62, 64
2, 41040, Note_off_c, 0, 62, 64
2, 41040, Note_off_c, 0, 63, 64
2, 41040, Note_off_c, 0, 70, 64
2, 41040, Note_off_c, 0, 79, 64
2, 41040, Note_on_c, 0, 74, 64
2, 41040, Note_on_c, 0, 82, 64
2, 41040, Note_on_c, 0, 60, 64
2, 41160, Note_off_c, 0, 60, 64
2, 41160, Note_on_c, 0, 58, 64
2, 41280, Note_off_c, 0, 58, 64
2, 41280, Note_off_c, 0, 82, 64
2, 41280, Note_off_c, 0, 74, 64
2, 41280, Note_on_c, 0, 75, 64
2, 41280, Note_on_c, 0, 67, 64
2, 41280, Note_on_c, 0, 60, 64
2, 41520, Note_off_c, 0, 60, 64
2, 41520, Note_off_c, 0, 67, 64
2, 41520, Note_off_c, 0, 75, 64
2, 41520, Note_on_c, 0, 75, 64
2, 41520, Note_on_c, 0, 69, 64
2, 41520, Note_on_c, 0, 48, 64
2, 41640, Note_off_c, 0, 69, 64
2, 41640, Note_off_c, 0, 75, 64
2, 41640, Note_on_c, 0, 74, 64
2, 41640, Note_on_c, 0, 71, 64
2, 41760, Note_off_c, 0, 71, 64
2, 41760, Note_off_c, 0, 74, 64
2, 41760, Note_off_c, 0, 48, 64
2, 41760, Note_on_c, 0, 75, 64
2, 41760, Note_on_c, 0, 72, 64
2, 41760, Note_on_c, 0, 60, 64
2, 41880, Note_off_c, 0, 60, 64
2, 41880, Note_on_c, 0, 58, 64
2, 42000, Note_off_c, 0, 58, 64
2, 42000, Note_off_c, 0, 72, 64
2, 42000, Note_off_c, 0, 75, 64
2, 42000, Note_on_c, 0, 71, 64
2, 42000, Note_on_c, 0, 79, 64
2, 42000, Note_on_c, 0, 56, 64
2, 42120, Note_off_c, 0, 56, 64
2, 42120, Note_on_c, 0, 55, 64
2, 42240, Note_off_c, 0, 55, 64
2, 42240, Note_off_c, 0, 79, 64
2, 42240, Note_off_c, 0, 71, 64
2, 42240, Note_on_c, 0, 72, 64
2, 42240, Note_on_c, 0, 56, 64
2, 42480, Note_off_c, 0, 56, 64
2, 42480, Note_on_c, 0, 74, 64
2, 42480, Note_on_c, 0, 44, 64
2, 42600, Note_off_c, 0, 74, 64
2, 42600, Note_on_c, 0, 75, 64
2, 42720, Note_off_c, 0, 75, 64
2, 42720, Note_off_c, 0, 44, 64
2, 42720, Note_on_c, 0, 77, 64
2, 42720, Note_on_c, 0, 56, 64
2, 42840, Note_off_c, 0, 72, 64
2, 42840, Note_on_c, 0, 71, 64
2, 42960, Note_off_c, 0, 71, 64
2, 42960, Note_off_c, 0, 56, 64
2, 42960, Note_on_c, 0, 72, 64
2, 42960, Note_on_c, 0, 55, 64
2, 43080, Note_off_c, 0, 55, 64
2, 43080, Note_off_c, 0, 72, 64
2, 43080, Note_on_c, 0, 53, 64
2, 43080, Note_on_c, 0, 74, 64
2, 43200, Note_off_c, 0, 74, 64
2, 43200, Note_off_c, 0, 53, 64
2, 43200, Note_on_c, 0, 55, 64
2, 43200, Note_on_c, 0, 71, 64
2, 43440, Note_off_c, 0, 71, 64
2, 43440, Note_on_c, 0, 67, 64
2, 43680, Note_off_c, 0, 67, 64
2, 43680, Note_off_c, 0, 77, 64
2, 43680, Note_on_c, 0, 72, 64
2, 43680, Note_on_c, 0, 75, 64
2, 43800, Note_off_c, 0, 75, 64
2, 43800, Note_on_c, 0, 74, 64
2, 43920, Note_off_c, 0, 74, 64
2, 43920, Note_on_c, 0, 75, 64
2, 44040, Note_off_c, 0, 75, 64
2, 44040, Note_on_c, 0, 77, 64
2, 44160, Note_off_c, 0, 77, 64
2, 44160, Note_on_c, 0, 74, 64
2, 44280, Note_off_c, 0, 55, 64
2, 44280, Note_on_c, 0, 53, 64
2, 44400, Note_off_c, 0, 53, 64
2, 44400, Note_off_c, 0, 74, 64
2, 44400, Note_on_c, 0, 79, 64
2, 44400, Note_on_c, 0, 55, 64
2, 44520, Note_off_c, 0, 55, 64
2, 44520, Note_on_c, 0, 56, 64
2, 44640, Note_off_c, 0, 56, 64
2, 44640, Note_off_c, 0, 72, 64
2, 44640, Note_on_c, 0, 70, 64
2, 44640, Note_on_c, 0, 55, 64
2, 44760, Note_off_c, 0, 55, 64
2, 44760, Note_on_c, 0, 53, 64
2, 44880, Note_off_c, 0, 53, 64
2, 44880, Note_off_c, 0, 79, 64
2, 44880, Note_on_c, 0, 77, 64
2, 44880, Note_on_c, 0, 52, 64
2, 45000, Note_off_c, 0, 52, 64
2, 45000, Note_on_c, 0, 50, 64
2, 45120, Note_off_c, 0, 50, 64
2, 45120, Note_off_c, 0, 77, 64
2, 45120, Note_on_c, 0, 48, 64
2, 45120, Note_on_c, 0, 76, 64
2, 45360, Note_off_c, 0, 76, 64
2, 45360, Note_on_c, 0, 72, 64
2, 45600, Note_off_c, 0, 72, 64
2, 45600, Note_off_c, 0, 70, 64
2, 45600, Note_on_c, 0, 77, 64
2, 45600, Note_on_c, 0, 68, 64
2, 45720, Note_off_c, 0, 68, 64
2, 45720, Note_on_c, 0, 67, 64
2, 45840, Note_off_c, 0, 67, 64
2, 45840, Note_on_c, 0, 68, 64
2, 45960, Note_off_c, 0, 68, 64
2, 45960, Note_on_c, 0, 70, 64
2, 46080, Note_off_c, 0, 70, 64
2, 46080, Note_on_c, 0, 67, 64
2, 46200, Note_off_c, 0, 48, 64
2, 46200, Note_on_c, 0, 46, 64
2, 46320, Note_off_c, 0, 46, 64
2, 46320, Note_off_c, 0, 67, 64
2, 46320, Note_on_c, 0, 72, 64
2, 46320, Note_on_c, 0, 48, 64
2, 46440, Note_off_c, 0, 48, 64
2, 46440, Note_on_c, 0, 50, 64
2, 46560, Note_off_c, 0, 50, 64
2, 46560, Note_off_c, 0, 77, 64
2, 46560, Note_on_c, 0, 75, 64
2, 46560, Note_on_c, 0, 48, 64
2, 46680, Note_off_c, 0, 48, 64
2, 46680, Note_on_c, 0, 46, 64
2, 46800, Note_off_c, 0, 46, 64
2, 46800, Note_off_c, 0, 72, 64
2, 46800, Note_on_c, 0, 70, 64
2, 46800, Note_on_c, 0, 45, 64
2, 46920, Note_off_c, 0, 45, 64
2, 46920, Note_on_c, 0, 43, 64
2, 47040, Note_off_c, 0, 43, 64
2, 47040, Note_off_c, 0, 70, 64
2, 47040, Note_on_c, 0, 41, 64
2, 47040, Note_on_c, 0, 69, 64
2, 47280, Note_off_c, 0, 69, 64
2, 47280, Note_on_c, 0, 65, 64
2, 47520, Note_off_c, 0, 65, 64
2, 47520, Note_off_c, 0, 75, 64
2, 47520, Note_on_c, 0, 70, 64
2, 47520, Note_on_c, 0, 74, 64
2, 47640, Note_off_c, 0, 74, 64
2, 47640, Note_on_c, 0, 72, 64
2, 47760, Note_off_c, 0, 72, 64
2, 47760, Note_on_c, 0, 74, 64
2, 47880, Note_off_c, 0, 74, 64
2, 47880, Note_on_c, 0, 75, 64
2, 48000, Note_off_c, 0, 75, 64
2, 48000, Note_off_c, 0, 41, 64
2, 48000, Note_on_c, 0, 72, 64
2, 48120, Note_on_c, 0, 51, 64
2, 48240, Note_off_c, 0, 51, 64
2, 48240, Note_off_c, 0, 72, 64
2, 48240, Note_on_c, 0, 77, 64
2, 48240, Note_on_c, 0, 53, 64
2, 48360, Note_off_c, 0, 53, 64
2, 48360, Note_on_c, 0, 55, 64
2, 48480, Note_off_c, 0, 55, 64
2, 48480, Note_off_c, 0, 70, 64
2, 48480, Note_on_c, 0, 68, 64
2, 48480, Note_on_c, 0, 53, 64
2, 48600, Note_off_c, 0, 53, 64
2, 48600, Note_on_c, 0, 51, 64
2, 48720, Note_off_c, 0, 51, 64
2, 48720, Note_off_c, 0, 77, 64
2, 48720, Note_on_c, 0, 75, 64
2, 48720, Note_on_c, 0, 50, 64
2, 48840, Note_off_c, 0, 50, 64
2, 48840, Note_on_c, 0, 48, 64
2, 48960, Note_off_c, 0, 48, 64
2, 48960, Note_off_c, 0, 75, 64
2, 48960, Note_on_c, 0, 46, 64
2, 48960, Note_on_c, 0, 74, 64
2, 49200, Note_off_c, 0, 74, 64
2, 49200, Note_on_c, 0, 70, 64
2, 49440, Note_off_c, 0, 70, 64
2, 49440, Note_off_c, 0, 68, 64
2, 49440, Note_on_c, 0, 75, 64
2, 49440, Note_on_c, 0, 67, 64
2, 49560, Note_off_c, 0, 67, 64
2, 49560, Note_on_c, 0, 65, 64
2, 49680, Note_off_c, 0, 65, 64
2, 49680, Note_on_c, 0, 67, 64
2, 49800, Note_off_c, 0, 67, 64
2, 49800, Note_on_c, 0, 68, 64
2, 49920, Note_off_c, 0, 68, 64
2, 49920, Note_off_c, 0, 46, 64
2, 49920, Note_on_c, 0, 65, 64
2, 50040, Note_on_c, 0, 56, 64
2, 50160, Note_off_c, 0, 56, 64
2, 50160, Note_off_c, 0, 65, 64
2, 50160, Note_on_c, 0, 70, 64
2, 50160, Note_on_c, 0, 58, 64
2, 50280, Note_off_c, 0, 58, 64
2, 50280, Note_on_c, 0, 60, 64
2, 50400, Note_off_c, 0, 60, 64
2, 50400, Note_off_c, 0, 75, 64
2, 50400, Note_on_c, 0, 58, 64
2, 50400, Note_on_c, 0, 73, 64
2, 50520, Note_on_c, 0, 56, 64
2, 50640, Note_off_c, 0, 56, 64
2, 50640, Note_off_c, 0, 70, 64
2, 50640, Note_on_c, 0, 68, 64
2, 50640, Note_on_c, 0, 55, 64
2, 50760, Note_off_c, 0, 55, 64
2, 50760, Note_on_c, 0, 53, 64
2, 50880, Note_off_c, 0, 53, 64
2, 50880, Note_off_c, 0, 68, 64
2, 50880, Note_off_c, 0, 58, 64
2, 50880, Note_on_c, 0, 70, 64
2, 50880, Note_on_c, 0, 63, 64
2, 50880, Note_on_c, 0, 55, 64
2, 51120, Note_off_c, 0, 55, 64
2, 51120, Note_off_c, 0, 70, 64
2, 51120, Note_off_c, 0, 73, 64
2, 51120, Note_on_c, 0, 72, 64
2, 51120, Note_on_c, 0, 68, 64
2, 51120, Note_on_c, 0, 56, 64
2, 51360, Note_off_c, 0, 56, 64
2, 51360, Note_off_c, 0, 72, 64
2, 51360, Note_off_c, 0, 63, 64
2, 51360, Note_on_c, 0, 70, 64
2, 51360, Note_on_c, 0, 50, 64
2, 51600, Note_off_c, 0, 50, 64
2, 51600, Note_off_c, 0, 68, 64
2, 51600, Note_on_c, 0, 61, 64
2, 51600, Note_on_c, 0, 52, 64
2, 51600, Note_on_c, 0, 67, 64
2, 51840, Note_off_c, 0, 52, 64
2, 51840, Note_off_c, 0, 61, 64
2, 51840, Note_off_c, 0, 70, 64
2, 51840, Note_on_c, 0, 68, 64
2, 51840, Note_on_c, 0, 60, 64
2, 51840, Note_on_c, 0, 53, 64
2, 52080, Note_off_c, 0, 60, 64
2, 52080, Note_off_c, 0, 67, 64
2, 52080, Note_on_c, 0, 65, 64
2, 52200, Note_on_c, 0, 67, 64
2, 52320, Note_off_c, 0, 67, 64
2, 52320, Note_off_c, 0, 68, 64
2, 52320, Note_on_c, 0, 68, 64
2, 52440, Note_off_c, 0, 53, 64
2, 52440, Note_on_c, 0, 51, 64
2, 52560, Note_off_c, 0, 51, 64
2, 52560, Note_off_c, 0, 65, 64
2, 52560, Note_on_c, 0, 63, 64
2, 52560, Note_on_c, 0, 49, 64
2, 52680, Note_off_c, 0, 49, 64
2, 52680, Note_on_c, 0, 48, 64
2, 52800, Note_off_c, 0, 48, 64
2, 52800, Note_off_c, 0, 63, 64
2, 52800, Note_on_c, 0, 61, 64
2, 52800, Note_on_c, 0, 46, 64
2, 53040, Note_off_c, 0, 61, 64
2, 53040, Note_off_c, 0, 68, 64
2, 53040, Note_on_c, 0, 65, 64
2, 53040, Note_on_c, 0, 61, 64
2, 53160, Note_off_c, 0, 61, 64
2, 53160, Note_on_c, 0, 60, 64
2, 53280, Note_off_c, 0, 60, 64
2, 53280, Note_off_c, 0, 65, 64
2, 53280, Note_on_c, 0, 70, 64
2, 53280, Note_on_c, 0, 61, 64
2, 53400, Note_off_c, 0, 46, 64
2, 53400, Note_on_c, 0, 46, 64
2, 53520, Note_off_c, 0, 46, 64
2, 53520, Note_off_c, 0, 61, 64
2, 53520, Note_off_c, 0, 70, 64
2, 53520, Note_on_c, 0, 68, 64
2, 53520, Note_on_c, 0, 65, 64
2, 53520, Note_on_c, 0, 48, 64
2, 53640, Note_off_c, 0, 48, 64
2, 53640, Note_on_c, 0, 49, 64
2, 53760, Note_off_c, 0, 49, 64
2, 53760, Note_off_c, 0, 65, 64
2, 53760, Note_off_c, 0, 68, 64
2, 53760, Note_on_c, 0, 67, 64
2, 53760, Note_on_c, 0, 58, 64
2, 53760, Note_on_c, 0, 51, 64
2, 54000, Note_off_c, 0, 58, 64
2, 54000, Note_off_c, 0, 67, 64
2, 54000, Note_on_c, 0, 67, 64
2, 54000, Note_on_c, 0, 63, 64
2, 54120, Note_off_c, 0, 67, 64
2, 54120, Note_on_c, 0, 65, 64
2, 54240, Note_off_c, 0, 65, 64
2, 54240, Note_off_c, 0, 51, 64
2, 54240, Note_on_c, 0, 67, 64
2, 54360, Note_on_c, 0, 39, 64
2, 54480, Note_off_c, 0, 39, 64
2, 54480, Note_off_c, 0, 67, 64
2, 54480, Note_off_c, 0, 63, 64
2, 54480, Note_on_c, 0, 61, 64
2, 54480, Note_on_c, 0, 70, 64
2, 54480, Note_on_c, 0, 41, 64
2, 54600, Note_off_c, 0, 41, 64
2, 54600, Note_on_c, 0, 43, 64
2, 54720, Note_off_c, 0, 43, 64
2, 54720, Note_off_c, 0, 70, 64
2, 54720, Note_off_c, 0, 61, 64
2, 54720, Note_on_c, 0, 63, 64
2, 54720, Note_on_c, 0, 60, 64
2, 54720, Note_on_c, 0, 44, 64
2, 54840, Note_off_c, 0, 44, 64
2, 54840, Note_on_c, 0, 46, 64
2, 54960, Note_off_c, 0, 46, 64
2, 54960, Note_off_c, 0, 60, 64
2, 54960, Note_off_c, 0, 63, 64
2, 54960, Note_on_c, 0, 68, 64
2, 54960, Note_on_c, 0, 60, 64
2, 54960, Note_on_c, 0, 48, 64
2, 55080, Note_off_c, 0, 48, 64
2, 55080, Note_off_c, 0, 60, 64
2, 55080, Note_on_c, 0, 58, 64
2, 55080, Note_on_c, 0, 49, 64
2, 55200, Note_off_c, 0, 49, 64
2, 55200, Note_off_c, 0, 58, 64
2, 55200, Note_on_c, 0, 51, 64
2, 55200, Note_on_c, 0, 60, 64
2, 55440, Note_off_c, 0, 60, 64
2, 55440, Note_off_c, 0, 68, 64
2, 55440, Note_on_c, 0, 63, 64
2, 55440, Note_on_c, 0, 67, 64
2, 55680, Note_off_c, 0, 67, 64
2, 55680, Note_off_c, 0, 63, 64
2, 55680, Note_on_c, 0, 70, 64
2, 55680, Note_on_c, 0, 65, 64
2, 55680, Note_on_c, 0, 56, 64
2, 55920, Note_off_c, 0, 56, 64
2, 55920, Note_off_c, 0, 65, 64
2, 55920, Note_on_c, 0, 65, 64
2, 55920, Note_on_c, 0, 56, 64
2, 56040, Note_off_c, 0, 56, 64
2, 56040, Note_off_c, 0, 65, 64
2, 56040, Note_on_c, 0, 63, 64
2, 56040, Note_on_c, 0, 55, 64
2, 56160, Note_off_c, 0, 55, 64
2, 56160, Note_off_c, 0, 63, 64
2, 56160, Note_off_c, 0, 51, 64
2, 56160, Note_on_c, 0, 50, 64
2, 56160, Note_on_c, 0, 65, 64
2, 56160, Note_on_c, 0, 56, 64
2, 56400, Note_off_c, 0, 56, 64
2, 56400, Note_off_c, 0, 65, 64
2, 56400, Note_on_c, 0, 67, 64
2, 56400, Note_on_c, 0, 58, 64
2, 56520, Note_off_c, 0, 58, 64
2, 56520, Note_off_c, 0, 67, 64
2, 56520, Note_on_c, 0, 56, 64
2, 56520, Note_on_c, 0, 65, 64
2, 56640, Note_off_c, 0, 65, 64
2, 56640, Note_off_c, 0, 56, 64
2, 56640, Note_off_c, 0, 50, 64
2, 56640, Note_off_c, 0, 70, 64
2, 56640, Note_on_c, 0, 51, 64
2, 56640, Note_on_c, 0, 75, 64
2, 56640, Note_on_c, 0, 63, 64
2, 56640, Note_on_c, 0, 55, 64
2, 56880, Note_off_c, 0, 55, 64
2, 56880, Note_off_c, 0, 63, 64
2, 56880, Note_on_c, 0, 67, 64
2, 56880, Note_on_c, 0, 58, 64
2, 57000, Note_off_c, 0, 58, 64
2, 57000, Note_off_c, 0, 67, 64
2, 57000, Note_on_c, 0, 65, 64
2, 57000, Note_on_c, 0, 56, 64
2, 57120, Note_off_c, 0, 56, 64
2, 57120, Note_off_c, 0, 65, 64
2, 57120, Note_off_c, 0, 75, 64
2, 57120, Note_on_c, 0, 67, 64
2, 57120, Note_on_c, 0, 58, 64
2, 57360, Note_off_c, 0, 58, 64
2, 57360, Note_off_c, 0, 67, 64
2, 57360, Note_on_c, 0, 75, 64
2, 57360, Note_on_c, 0, 60, 64
2, 57360, Note_on_c, 0, 69, 64
2, 57480, Note_off_c, 0, 69, 64
2, 57480, Note_on_c, 0, 67, 64
2, 57600, Note_off_c, 0, 67, 64
2, 57600, Note_off_c, 0, 60, 64
2, 57600, Note_off_c, 0, 75, 64
2, 57600, Note_off_c, 0, 51, 64
2, 57600, Note_on_c, 0, 74, 64
2, 57600, Note_on_c, 0, 65, 64
2, 57600, Note_on_c, 0, 62, 64
2, 57600, Note_on_c, 0, 58, 64
2, 57840, Note_off_c, 0, 62, 64
2, 57840, Note_off_c, 0, 65, 64
2, 57840, Note_off_c, 0, 74, 64
2, 57840, Note_on_c, 0, 79, 64
2, 57840, Note_on_c, 0, 70, 64
2, 57840, Note_on_c, 0, 62, 64
2, 57960, Note_off_c, 0, 62, 64
2, 57960, Note_off_c, 0, 70, 64
2, 57960, Note_on_c, 0, 68, 64
2, 57960, Note_on_c, 0, 60, 64
2, 58080, Note_off_c, 0, 60, 64
2, 58080, Note_off_c, 0, 68, 64
2, 58080, Note_off_c, 0, 58, 64
2, 58080, Note_on_c, 0, 70, 64
2, 58080, Note_on_c, 0, 62, 64
2, 58320, Note_off_c, 0, 62, 64
2, 58320, Note_off_c, 0, 70, 64
2, 58320, Note_off_c, 0, 79, 64
2, 58320, Note_on_c, 0, 56, 64
2, 58320, Note_on_c, 0, 65, 64
2, 58320, Note_on_c, 0, 74, 64
2, 58320, Note_on_c, 0, 77, 64
2, 58560, Note_off_c, 0, 77, 64
2, 58560, Note_off_c, 0, 74, 64
2, 58560, Note_off_c, 0, 65, 64
2, 58560, Note_off_c, 0, 56, 64
2, 58560, Note_on_c, 0, 75, 64
2, 58560, Note_on_c, 0, 70, 64
2, 58560, Note_on_c, 0, 55, 64
2, 58800, Note_off_c, 0, 55, 64
2, 58800, Note_off_c, 0, 70, 64
2, 58800, Note_off_c, 0, 75, 64
2, 58800, Note_on_c, 0, 67, 64
2, 58800, Note_on_c, 0, 75, 64
2, 58800, Note_on_c, 0, 72, 64
2, 58800, Note_on_c, 0, 60, 64
2, 58920, Note_off_c, 0, 75, 64
2, 58920, Note_on_c, 0, 74, 64
2, 59040, Note_off_c, 0, 74, 64
2, 59040, Note_off_c, 0, 72, 64
2, 59040, Note_on_c, 0, 63, 64
2, 59040, Note_on_c, 0, 75, 64
2, 59040, Note_on_c, 0, 67, 64
2, 59041, Note_off_c, 0, 67, 64
2, 59280, Note_off_c, 0, 75, 64
2, 59280, Note_off_c, 0, 60, 64
2, 59280, Note_on_c, 0, 79, 64
2, 59280, Note_on_c, 0, 58, 64
2, 59520, Note_off_c, 0, 58, 64
2, 59520, Note_off_c, 0, 79, 64
2, 59520, Note_off_c, 0, 67, 64
2, 59520, Note_on_c, 0, 72, 64
2, 59520, Note_on_c, 0, 68, 64
2, 59520, Note_on_c, 0, 56, 64
2, 59760, Note_off_c, 0, 56, 64
2, 59760, Note_off_c, 0, 68, 64
2, 59760, Note_off_c, 0, 72, 64
2, 59760, Note_off_c, 0, 63, 64
2, 59760, Note_on_c, 0, 77, 64
2, 59760, Note_on_c, 0, 68, 64
2, 59760, Note_on_c, 0, 60, 64
2, 59760, Note_on_c, 0, 56, 64
2, 59880, Note_off_c, 0, 56, 64
2, 59880, Note_off_c, 0, 60, 64
2, 59880, Note_on_c, 0, 58, 64
2, 59880, Note_on_c, 0, 55, 64
2, 60000, Note_off_c, 0, 55, 64
2, 60000, Note_off_c, 0, 58, 64
2, 60000, Note_on_c, 0, 60, 64
2, 60000, Note_on_c, 0, 56, 64
2, 60240, Note_off_c, 0, 56, 64
2, 60240, Note_off_c, 0, 60, 64
2, 60240, Note_off_c, 0, 68, 64
2, 60240, Note_off_c, 0, 77, 64
2, 60240, Note_on_c, 0, 63, 64
2, 60240, Note_on_c, 0, 60, 64
2, 60240, Note_on_c, 0, 67, 64
2, 60240, Note_on_c, 0, 75, 64
2, 60480, Note_off_c, 0, 75, 64
2, 60480, Note_off_c, 0, 67, 64
2, 60480, Note_off_c, 0, 60, 64
2, 60480, Note_off_c, 0, 63, 64
2, 60480, Note_on_c, 0, 74, 64
2, 60480, Note_on_c, 0, 68, 64
2, 60480, Note_on_c, 0, 65, 64
2, 60480, Note_on_c, 0, 53, 64
2, 60720, Note_off_c, 0, 53, 64
2, 60720, Note_off_c, 0, 68, 64
2, 60720, Note_off_c, 0, 74, 64
2, 60720, Note_on_c, 0, 74, 64
2, 60720, Note_on_c, 0, 65, 64
2, 60720, Note_on_c, 0, 62, 64
2, 60720, Note_on_c, 0, 58, 64
2, 60721, Note_off_c, 0, 65, 64
2, 60840, Note_off_c, 0, 74, 64
2, 60840, Note_on_c, 0, 72, 64
2, 60960, Note_off_c, 0, 72, 64
2, 60960, Note_off_c, 0, 62, 64
2, 60960, Note_off_c, 0, 65, 64
2, 60960, Note_on_c, 0, 70, 64
2, 60960, Note_on_c, 0, 74, 64
2, 60960, Note_on_c, 0, 67, 64
2, 61200, Note_off_c, 0, 67, 64
2, 61200, Note_off_c, 0, 74, 64
2, 61200, Note_off_c, 0, 58, 64
2, 61200, Note_on_c, 0, 56, 64
2, 61200, Note_on_c, 0, 62, 64
2, 61200, Note_on_c, 0, 77, 64
2, 61440, Note_off_c, 0, 77, 64
2, 61440, Note_off_c, 0, 62, 64
2, 61440, Note_off_c, 0, 56, 64
2, 61440, Note_off_c, 0, 70, 64
2, 61440, Note_on_c, 0, 70, 64
2, 61440, Note_on_c, 0, 63, 64
2, 61440, Note_on_c, 0, 55, 64
2, 61680, Note_off_c, 0, 55, 64
2, 61680, Note_off_c, 0, 63, 64
2, 61680, Note_off_c, 0, 70, 64
2, 61680, Note_on_c, 0, 75, 64
2, 61680, Note_on_c, 0, 55, 64
2, 61800, Note_off_c, 0, 55, 64
2, 61800, Note_on_c, 0, 53, 64
2, 61920, Note_off_c, 0, 53, 64
2, 61920, Note_off_c, 0, 75, 64
2, 61920, Note_on_c, 0, 73, 64
2, 61920, Note_on_c, 0, 55, 64
2, 62160, Note_off_c, 0, 55, 64
2, 62160, Note_on_c, 0, 65, 64
2, 62160, Note_on_c, 0, 68, 64
2, 62160, Note_on_c, 0, 58, 64
2, 62400, Note_off_c, 0, 58, 64
2, 62400, Note_off_c, 0, 68, 64
2, 62400, Note_off_c, 0, 65, 64
2, 62400, Note_on_c, 0, 67, 64
2, 62400, Note_on_c, 0, 63, 64
2, 62400, Note_on_c, 0, 51, 64
2, 62640, Note_off_c, 0, 51, 64
2, 62640, Note_off_c, 0, 73, 64
2, 62640, Note_on_c, 0, 72, 64
2, 62640, Note_on_c, 0, 51, 64
2, 62760, Note_off_c, 0, 51, 64
2, 62760, Note_on_c, 0, 50, 64
2, 62880, Note_off_c, 0, 50, 64
2, 62880, Note_off_c, 0, 72, 64
2, 62880, Note_off_c, 0, 63, 64
2, 62880, Note_off_c, 0, 67, 64
2, 62880, Note_on_c, 0, 70, 64
2, 62880, Note_on_c, 0, 51, 64
2, 63120, Note_off_c, 0, 51, 64
2, 63120, Note_on_c, 0, 62, 64
2, 63120, Note_on_c, 0, 65, 64
2, 63120, Note_on_c, 0, 55, 64
2, 63360, Note_off_c, 0, 55, 64
2, 63360, Note_off_c, 0, 65, 64
2, 63360, Note_off_c, 0, 62, 64
2, 63360, Note_on_c, 0, 63, 64
2, 63360, Note_on_c, 0, 60, 64
2, 63360, Note_on_c, 0, 48, 64
2, 63600, Note_off_c, 0, 48, 64
2, 63600, Note_off_c, 0, 70, 64
2, 63600, Note_on_c, 0, 68, 64
2, 63600, Note_on_c, 0, 50, 64
2, 63720, Note_off_c, 0, 50, 64
2, 63720, Note_off_c, 0, 68, 64
2, 63720, Note_on_c, 0, 67, 64
2, 63720, Note_on_c, 0, 51, 64
2, 63840, Note_off_c, 0, 51, 64
2, 63840, Note_off_c, 0, 67, 64
2, 63840, Note_on_c, 0, 68, 64
2, 63840, Note_on_c, 0, 53, 64
2, 64080, Note_off_c, 0, 60, 64
2, 64080, Note_off_c, 0, 63, 64
2, 64080, Note_on_c, 0, 56, 64
2, 64080, Note_on_c, 0, 62, 64
2, 64200, Note_off_c, 0, 62, 64
2, 64200, Note_on_c, 0, 60, 64
2, 64320, Note_off_c, 0, 60, 64
2, 64320, Note_off_c, 0, 56, 64
2, 64320, Note_off_c, 0, 53, 64
2, 64320, Note_on_c, 0, 62, 64
2, 64320, Note_on_c, 0, 53, 64
2, 64320, Note_on_c, 0, 46, 64
2, 64560, Note_off_c, 0, 62, 64
2, 64560, Note_on_c, 0, 58, 64
2, 64800, Note_off_c, 0, 58, 64
2, 64800, Note_off_c, 0, 46, 64
2, 64800, Note_off_c, 0, 53, 64
2, 64800, Note_off_c, 0, 68, 64
2, 64800, Note_on_c, 0, 66, 64
2, 64800, Note_on_c, 0, 45, 64
2, 64800, Note_on_c, 0, 63, 64
2, 65040, Note_on_c, 0, 60, 64
2, 65280, Note_off_c, 0, 60, 64
2, 65280, Note_off_c, 0, 45, 64
2, 65280, Note_off_c, 0, 66, 64
2, 65280, Note_on_c, 0, 46, 64
2, 65280, Note_on_c, 0, 65, 64
2, 65280, Note_on_c, 0, 53, 64
2, 65520, Note_off_c, 0, 53, 64
2, 65520, Note_on_c, 0, 53, 64
2, 65640, Note_off_c, 0, 53, 64
2, 65640, Note_on_c, 0, 51, 64
2, 65760, Note_off_c, 0, 51, 64
2, 65760, Note_off_c, 0, 63, 64
2, 65760, Note_on_c, 0, 62, 64
2, 65760, Note_on_c, 0, 53, 64
2, 66000, Note_off_c, 0, 53, 64
2, 66000, Note_on_c, 0, 58, 64
2, 66240, Note_off_c, 0, 58, 64
2, 66240, Note_off_c, 0, 62, 64
2, 66240, Note_off_c, 0, 65, 64
2, 66240, Note_off_c, 0, 46, 64
2, 66240, Note_on_c, 0, 39, 64
2, 66240, Note_on_c, 0, 55, 64
2, 66240, Note_on_c, 0, 58, 64
2, 66240, Note_on_c, 0, 63, 64
2, 67200, Note_off_c, 0, 63, 64
2, 67200, Note_off_c, 0, 58, 64
2, 67200, Note_off_c, 0, 55, 64
2, 67200, Note_off_c, 0, 39, 64
2, 67200, End_track
0, 0, End_of_file
