0, 0, Header, 1, 4, 240
1, 0, Start_track
1, 0, Time_signature, 4, 2, 24, 8
1, 0, Tempo, 750000
1, 6720, Tempo, 857143
1, 6960, Tempo, 833333
1, 7200, Tempo, 810811
1, 7440, Tempo, 769231
1, 7680, Tempo, 750000
1, 7920, Tempo, 810811
1, 8040, Tempo, 952381
1, 8160, Tempo, 1200000
1, 8400, Tempo, 983607
1, 8520, Tempo, 909091
1, 8600, Tempo, 1363636
1, 8640, Tempo, 810811
1, 8880, Tempo, 789474
1, 9120, Tempo, 769231
1, 9360, Tempo, 750000
1, 65520, Tempo, 769231
1, 65760, Tempo, 789474
1, 66000, Tempo, 833333
1, 66120, Tempo, 895522
1, 66240, Tempo, 937500
1, 66240, End_track
2, 0, Start_track
2, 0, Text_t, "RH B"
2, 60, Note_on_c, 0, 67, 64
2, 120, Note_off_c, 0, 67, 43
2, 120, Note_on_c, 0, 68, 64
2, 180, Note_off_c, 0, 68, 62
2, 180, Note_on_c, 0, 70, 64
2, 240, Note_off_c, 0, 70, 58
2, 240, Note_on_c, 0, 68, 64
2, 300, Note_off_c, 0, 68, 58
2, 300, Note_on_c, 0, 67, 64
2, 360, Note_off_c, 0, 67, 50
2, 360, Note_on_c, 0, 65, 64
2, 420, Note_off_c, 0, 65, 63
2, 420, Note_on_c, 0, 63, 64
2, 480, Note_on_c, 0, 73, 64
2, 1020, Note_off_c, 0, 73, 53
2, 1020, Note_on_c, 0, 72, 64
2, 1080, Note_off_c, 0, 72, 55
2, 1080, Note_off_c, 0, 63, 38
2, 1080, Note_on_c, 0, 73, 64
2, 1140, Note_off_c, 0, 73, 63
2, 1140, Note_on_c, 0, 75, 64
2, 1200, Note_off_c, 0, 75, 49
2, 1200, Note_on_c, 0, 73, 64
2, 1260, Note_off_c, 0, 73, 58
2, 1260, Note_on_c, 0, 72, 64
2, 1320, Note_off_c, 0, 72, 37
2, 1320, Note_on_c, 0, 70, 64
2, 1380, Note_off_c, 0, 70, 70
2, 1380, Note_on_c, 0, 68, 64
2, 1440, Note_on_c, 0, 77, 64
2, 1980, Note_off_c, 0, 77, 77
2, 1980, Note_on_c, 0, 74, 64
2, 2040, Note_off_c, 0, 74, 50
2, 2040, Note_off_c, 0, 68, 76
2, 2040, Note_on_c, 0, 75, 64
2, 2100, Note_off_c, 0, 75, 52
2, 2100, Note_on_c, 0, 77, 64
2, 2160, Note_off_c, 0, 77, 72
2, 2160, Note_on_c, 0, 75, 64
2, 2220, Note_off_c, 0, 75, 49
2, 2220, Note_on_c, 0, 74, 64
2, 2280, Note_off_c, 0, 74, 55
2, 2280, Note_on_c, 0, 72, 64
2, 2340, Note_off_c, 0, 72, 83
2, 2340, Note_on_c, 0, 70, 64
2, 2400, Note_on_c, 0, 80, 64
2, 2940, Note_off_c, 0, 80, 83
2, 2940, Note_on_c, 0, 77, 64
2, 3000, Note_off_c, 0, 77, 72
2, 3000, Note_off_c, 0, 70, 77
2, 3000, Note_on_c, 0, 79, 64
2, 3060, Note_off_c, 0, 79, 59
2, 3060, Note_on_c, 0, 80, 64
2, 3120, Note_off_c, 0, 80, 76
2, 3120, Note_on_c, 0, 79, 64
2, 3180, Note_off_c, 0, 79, 52
2, 3180, Note_on_c, 0, 77, 64
2, 3240, Note_off_c, 0, 77, 58
2, 3240, Note_on_c, 0, 75, 64
2, 3300, Note_off_c, 0, 75, 54
2, 3300, Note_on_c, 0, 74, 64
2, 3360, Note_off_c, 0, 74, 63
2, 3360, Note_on_c, 0, 79, 64
2, 3360, Note_on_c, 0, 75, 64
2, 3890, Note_off_c, 0, 75, 63
2, 3890, Note_off_c, 0, 79, 69
2, 3903, Note_on_c, 0, 75, 64
2, 3963, Note_off_c, 0, 75, 49
2, 3963, Note_on_c, 0, 77, 64
2, 4023, Note_off_c, 0, 77, 74
2, 4023, Note_on_c, 0, 79, 64
2, 4083, Note_off_c, 0, 79, 57
2, 4083, Note_on_c, 0, 77, 64
2, 4143, Note_off_c, 0, 77, 70
2, 4143, Note_on_c, 0, 75, 64
2, 4203, Note_off_c, 0, 75, 52
2, 4203, Note_on_c, 0, 74, 64
2, 4263, Note_off_c, 0, 74, 54
2, 4263, Note_on_c, 0, 72, 64
2, 4323, Note_on_c, 0, 84, 64
2, 4803, Note_off_c, 0, 72, 68
2, 4803, Note_on_c, 0, 74, 64
2, 4863, Note_off_c, 0, 84, 46
2, 4863, Note_on_c, 0, 81, 64
2, 4923, Note_off_c, 0, 81, 51
2, 4923, Note_off_c, 0, 74, 55
2, 4923, Note_on_c, 0, 82, 64
2, 4983, Note_off_c, 0, 82, 62
2, 4983, Note_on_c, 0, 84, 64
2, 5043, Note_off_c, 0, 84, 65
2, 5043, Note_on_c, 0, 82, 64
2, 5103, Note_off_c, 0, 82, 68
2, 5103, Note_on_c, 0, 81, 64
2, 5163, Note_off_c, 0, 81, 57
2, 5163, Note_on_c, 0, 79, 64
2, 5223, Note_off_c, 0, 79, 63
2, 5223, Note_on_c, 0, 77, 64
2, 5283, Note_off_c, 0, 77, 61
2, 5283, Note_on_c, 0, 82, 64
2, 5343, Note_off_c, 0, 82, 70
2, 5343, Note_on_c, 0, 81, 64
2, 5403, Note_off_c, 0, 81, 54
2, 5403, Note_on_c, 0, 79, 64
2, 5463, Note_off_c, 0, 79, 70
2, 5463, Note_on_c, 0, 77, 64
2, 5523, Note_off_c, 0, 77, 77
2, 5523, Note_on_c, 0, 75, 64
2, 5583, Note_off_c, 0, 75, 52
2, 5583, Note_on_c, 0, 74, 64
2, 5643, Note_off_c, 0, 74, 57
2, 5643, Note_on_c, 0, 72, 64
2, 5703, Note_off_c, 0, 72, 58
2, 5703, Note_on_c, 0, 70, 64
2, 5763, Note_off_c, 0, 70, 61
2, 5763, Note_on_c, 0, 75, 64
2, 6243, Note_off_c, 0, 75, 66
2, 6303, Note_on_c, 0, 75, 64
2, 6363, Note_off_c, 0, 75, 57
2, 6363, Note_on_c, 0, 77, 64
2, 6423, Note_off_c, 0, 77, 66
2, 6423, Note_on_c, 0, 79, 64
2, 6483, Note_off_c, 0, 79, 53
2, 6483, Note_on_c, 0, 77, 64
2, 6543, Note_off_c, 0, 77, 63
2, 6543, Note_on_c, 0, 75, 64
2, 6603, Note_off_c, 0, 75, 53
2, 6603, Note_on_c, 0, 74, 64
2, 6663, Note_off_c, 0, 74, 62
2, 6663, Note_on_c, 0, 72, 64
2, 6723, Note_off_c, 0, 72, 70
2, 6723, Note_on_c, 0, 74, 64
2, 6753, Note_off_c, 0, 74, 69
2, 6753, Note_on_c, 0, 72, 64
2, 6783, Note_off_c, 0, 72, 77
2, 6783, Note_on_c, 0, 74, 64
2, 6813, Note_off_c, 0, 74, 55
2, 6813, Note_on_c, 0, 75, 64
2, 6843, Note_off_c, 0, 75, 52
2, 6843, Note_on_c, 0, 74, 64
2, 6873, Note_off_c, 0, 74, 57
2, 6873, Note_on_c, 0, 72, 64
2, 6903, Note_off_c, 0, 72, 69
2, 6903, Note_on_c, 0, 70, 64
2, 6933, Note_off_c, 0, 70, 66
2, 6933, Note_on_c, 0, 69, 64
2, 6963, Note_off_c, 0, 69, 73
2, 6963, Note_on_c, 0, 70, 64
2, 6993, Note_off_c, 0, 70, 76
2, 6993, Note_on_c, 0, 69, 64
2, 7023, Note_off_c, 0, 69, 54
2, 7023, Note_on_c, 0, 70, 64
2, 7053, Note_off_c, 0, 70, 76
2, 7053, Note_on_c, 0, 72, 64
2, 7083, Note_off_c, 0, 72, 77
2, 7083, Note_on_c, 0, 70, 64
2, 7113, Note_off_c, 0, 70, 80
2, 7113, Note_on_c, 0, 68, 64
2, 7143, Note_off_c, 0, 68, 77
2, 7143, Note_on_c, 0, 67, 64
2, 7173, Note_off_c, 0, 67, 61
2, 7173, Note_on_c, 0, 65, 64
2, 7203, Note_off_c, 0, 65, 47
2, 7203, Note_on_c, 0, 67, 64
2, 7233, Note_off_c, 0, 67, 46
2, 7233, Note_on_c, 0, 65, 64
2, 7263, Note_off_c, 0, 65, 40
2, 7263, Note_on_c, 0, 67, 64
2, 7293, Note_off_c, 0, 67, 40
2, 7293, Note_on_c, 0, 68, 64
2, 7323, Note_off_c, 0, 68, 74
2, 7323, Note_on_c, 0, 67, 64
2, 7353, Note_off_c, 0, 67, 46
2, 7353, Note_on_c, 0, 65, 64
2, 7383, Note_off_c, 0, 65, 48
2, 7383, Note_on_c, 0, 63, 64
2, 7413, Note_off_c, 0, 63, 30
2, 7413, Note_on_c, 0, 62, 64
2, 7443, Note_off_c, 0, 62, 37
2, 7443, Note_on_c, 0, 63, 64
2, 7473, Note_off_c, 0, 63, 27
2, 7473, Note_on_c, 0, 62, 64
2, 7503, Note_off_c, 0, 62, 48
2, 7503, Note_on_c, 0, 63, 64
2, 7533, Note_off_c, 0, 63, 51
2, 7533, Note_on_c, 0, 65, 64
2, 7563, Note_off_c, 0, 65, 50
2, 7563, Note_on_c, 0, 63, 64
2, 7593, Note_off_c, 0, 63, 52
2, 7593, Note_on_c, 0, 62, 64
2, 7623, Note_off_c, 0, 62, 31
2, 7623, Note_on_c, 0, 60, 64
2, 7653, Note_off_c, 0, 60, 48
2, 7653, Note_on_c, 0, 58, 64
2, 7683, Note_off_c, 0, 58, 68
2, 7713, Note_on_c, 0, 60, 64
2, 7743, Note_off_c, 0, 60, 61
2, 7743, Note_on_c, 0, 62, 64
2, 7773, Note_off_c, 0, 62, 40
2, 7773, Note_on_c, 0, 63, 64
2, 7803, Note_off_c, 0, 63, 63
2, 7803, Note_on_c, 0, 65, 64
2, 7833, Note_off_c, 0, 65, 51
2, 7833, Note_on_c, 0, 67, 64
2, 7863, Note_off_c, 0, 67, 47
2, 7863, Note_on_c, 0, 69, 64
2, 7893, Note_off_c, 0, 69, 72
2, 7893, Note_on_c, 0, 70, 64
2, 7923, Note_off_c, 0, 70, 52
2, 7923, Note_on_c, 0, 72, 64
2, 7953, Note_off_c, 0, 72, 68
2, 7953, Note_on_c, 0, 69, 64
2, 7983, Note_off_c, 0, 69, 68
2, 7983, Note_on_c, 0, 65, 64
2, 8013, Note_off_c, 0, 65, 59
2, 8013, Note_on_c, 0, 67, 64
2, 8043, Note_off_c, 0, 67, 44
2, 8043, Note_on_c, 0, 69, 64
2, 8073, Note_off_c, 0, 69, 65
2, 8073, Note_on_c, 0, 70, 64
2, 8103, Note_off_c, 0, 70, 76
2, 8103, Note_on_c, 0, 72, 64
2, 8133, Note_off_c, 0, 72, 72
2, 8133, Note_on_c, 0, 74, 64
2, 8163, Note_off_c, 0, 74, 69
2, 8163, Note_on_c, 0, 75, 64
2, 8163, Note_on_c, 0, 72, 64
2, 8283, Note_off_c, 0, 75, 44
2, 8313, Note_on_c, 0, 77, 64
2, 8328, Note_off_c, 0, 77, 73
2, 8328, Note_on_c, 0, 75, 64
2, 8343, Note_off_c, 0, 75, 52
2, 8343, Note_on_c, 0, 74, 64
2, 8373, Note_off_c, 0, 74, 70
2, 8373, Note_on_c, 0, 75, 64
2, 8403, Note_off_c, 0, 75, 53
2, 8403, Note_on_c, 0, 77, 72
2, 8423, Note_on_c, 0, 75, 44
2, 8425, Note_off_c, 0, 77, 58
2, 8443, Note_on_c, 0, 77, 47
2, 8445, Note_off_c, 0, 75, 46
2, 8463, Note_on_c, 0, 75, 49
2, 8465, Note_off_c, 0, 77, 53
2, 8483, Note_on_c, 0, 77, 51
2, 8485, Note_off_c, 0, 75, 53
2, 8503, Note_on_c, 0, 75, 54
2, 8505, Note_off_c, 0, 77, 55
2, 8523, Note_on_c, 0, 77, 56
2, 8525, Note_off_c, 0, 75, 55
2, 8543, Note_on_c, 0, 75, 58
2, 8545, Note_off_c, 0, 77, 52
2, 8563, Note_on_c, 0, 77, 60
2, 8565, Note_off_c, 0, 75, 47
2, 8583, Note_on_c, 0, 75, 63
2, 8585, Note_off_c, 0, 77, 59
2, 8603, Note_on_c, 0, 74, 64
2, 8605, Note_off_c, 0, 75, 43
2, 8643, Note_off_c, 0, 74, 72
2, 8643, Note_off_c, 0, 72, 63
2, 8643, Note_on_c, 0, 65, 64
2, 8643, Note_on_c, 0, 74, 64
2, 8883, Note_off_c, 0, 74, 74
2, 8883, Note_off_c, 0, 65, 1
2, 10083, Note_on_c, 0, 63, 64
2, 10323, Note_off_c, 0, 63, 63
2, 10323, Note_on_c, 0, 68, 64
2, 10803, Note_off_c, 0, 68, 86
2, 10803, Note_on_c, 0, 67, 64
2, 10803, Note_on_c, 0, 70, 64
2, 11043, Note_off_c, 0, 70, 83
2, 11043, Note_on_c, 0, 75, 64
2, 11283, Note_off_c, 0, 67, 57
2, 11283, Note_on_c, 0, 65, 64
2, 11519, Note_off_c, 0, 75, 43
2, 11523, Note_on_c, 0, 74, 64
2, 11763, Note_off_c, 0, 65, 70
2, 11763, Note_off_c, 0, 74, 73
2, 11763, Note_on_c, 0, 75, 64
2, 11763, Note_on_c, 0, 67, 64
2, 12243, Note_off_c, 0, 67, 66
2, 12243, Note_off_c, 0, 75, 68
2, 12243, Note_on_c, 0, 80, 64
2, 12243, Note_on_c, 0, 72, 64
2, 12483, Note_off_c, 0, 72, 77
2, 12483, Note_on_c, 0, 70, 64
2, 12723, Note_off_c, 0, 80, 73
2, 12723, Note_on_c, 0, 79, 64
2, 12963, Note_off_c, 0, 70, 83
2, 12963, Note_on_c, 0, 72, 64
2, 13203, Note_on_c, 0, 77, 64
2, 13217, Note_off_c, 0, 79, 74
2, 13323, Note_off_c, 0, 77, 76
2, 13323, Note_on_c, 0, 75, 64
2, 13443, Note_off_c, 0, 75, 63
2, 13443, Note_on_c, 0, 70, 64
2, 13443, Note_on_c, 0, 74, 64
2, 13459, Note_off_c, 0, 72, 76
2, 13683, Note_off_c, 0, 74, 74
2, 13683, Note_on_c, 0, 75, 64
2, 14163, Note_off_c, 0, 75, 65
2, 14163, Note_on_c, 0, 74, 64
2, 14283, Note_off_c, 0, 70, 82
2, 14283, Note_on_c, 0, 68, 64
2, 14403, Note_off_c, 0, 68, 86
2, 14403, Note_off_c, 0, 74, 52
2, 14403, Note_on_c, 0, 67, 64
2, 14403, Note_on_c, 0, 76, 64
2, 14643, Note_off_c, 0, 76, 62
2, 14643, Note_off_c, 0, 67, 66
2, 14643, Note_on_c, 0, 72, 64
2, 14643, Note_on_c, 0, 77, 64
2, 14883, Note_off_c, 0, 72, 72
2, 14883, Note_on_c, 0, 71, 64
2, 15123, Note_off_c, 0, 71, 83
2, 15123, Note_off_c, 0, 77, 76
2, 15123, Note_on_c, 0, 75, 64
2, 15123, Note_on_c, 0, 72, 64
2, 15243, Note_off_c, 0, 72, 69
2, 15243, Note_on_c, 0, 70, 64
2, 15363, Note_off_c, 0, 70, 70
2, 15363, Note_off_c, 0, 75, 65
2, 15363, Note_on_c, 0, 68, 64
2, 15363, Note_on_c, 0, 74, 64
2, 15603, Note_off_c, 0, 74, 76
2, 15603, Note_off_c, 0, 68, 83
2, 15603, Note_on_c, 0, 79, 64
2, 15603, Note_on_c, 0, 70, 64
2, 15843, Note_off_c, 0, 70, 82
2, 15843, Note_on_c, 0, 68, 64
2, 16083, Note_off_c, 0, 79, 68
2, 16083, Note_on_c, 0, 77, 64
2, 16563, Note_off_c, 0, 77, 76
2, 16563, Note_off_c, 0, 68, 86
2, 16563, Note_on_c, 0, 67, 64
2, 16563, Note_on_c, 0, 75, 64
2, 16803, Note_off_c, 0, 67, 51
2, 16803, Note_on_c, 0, 65, 64
2, 17043, Note_off_c, 0, 65, 74
2, 17043, Note_off_c, 0, 75, 65
2, 17043, Note_on_c, 0, 67, 64
2, 17043, Note_on_c, 0, 74, 64
2, 17163, Note_off_c, 0, 67, 54
2, 17163, Note_on_c, 0, 68, 64
2, 17283, Note_off_c, 0, 68, 86
2, 17283, Note_on_c, 0, 67, 64
2, 17523, Note_off_c, 0, 74, 77
2, 17523, Note_on_c, 0, 72, 64
2, 17643, Note_on_c, 0, 70, 64
2, 17651, Note_off_c, 0, 72, 69
2, 17763, Note_off_c, 0, 67, 53
2, 17763, Note_on_c, 0, 69, 64
2, 17763, Note_on_c, 0, 65, 64
2, 17768, Note_off_c, 0, 70, 74
2, 18003, Note_off_c, 0, 69, 80
2, 18003, Note_on_c, 0, 70, 64
2, 18483, Note_off_c, 0, 65, 74
2, 18483, Note_off_c, 0, 70, 83
2, 18483, Note_on_c, 0, 63, 64
2, 18483, Note_on_c, 0, 75, 64
2, 18543, Note_off_c, 0, 63, 30
2, 18543, Note_on_c, 0, 74, 64
2, 18603, Note_off_c, 0, 74, 43
2, 18603, Note_on_c, 0, 72, 64
2, 18663, Note_off_c, 0, 72, 69
2, 18663, Note_on_c, 0, 70, 64
2, 18723, Note_off_c, 0, 70, 57
2, 18723, Note_on_c, 0, 69, 64
2, 18963, Note_off_c, 0, 69, 65
2, 18963, Note_off_c, 0, 75, 47
2, 18963, Note_on_c, 0, 74, 64
2, 18963, Note_on_c, 0, 70, 64
2, 19203, Note_off_c, 0, 74, 63
2, 19203, Note_on_c, 0, 72, 64
2, 19443, Note_off_c, 0, 70, 61
2, 19443, Note_on_c, 0, 68, 64
2, 19683, Note_off_c, 0, 72, 65
2, 19683, Note_on_c, 0, 70, 64
2, 19923, Note_off_c, 0, 68, 55
2, 19923, Note_on_c, 0, 67, 64
2, 20163, Note_off_c, 0, 70, 62
2, 20163, Note_on_c, 0, 68, 64
2, 20403, Note_off_c, 0, 67, 62
2, 20403, Note_on_c, 0, 65, 64
2, 20643, Note_off_c, 0, 68, 65
2, 20643, Note_on_c, 0, 67, 64
2, 20883, Note_off_c, 0, 65, 52
2, 20883, Note_on_c, 0, 63, 64
2, 21003, Note_off_c, 0, 63, 49
2, 21003, Note_on_c, 0, 61, 64
2, 21123, Note_off_c, 0, 61, 52
2, 21123, Note_on_c, 0, 60, 64
2, 21363, Note_off_c, 0, 67, 53
2, 21363, Note_on_c, 0, 65, 64
2, 21483, Note_off_c, 0, 65, 46
2, 21483, Note_on_c, 0, 63, 64
2, 21603, Note_off_c, 0, 63, 39
2, 21603, Note_on_c, 0, 62, 64
2, 21843, Note_off_c, 0, 60, 65
2, 21843, Note_on_c, 0, 58, 64
2, 22083, Note_off_c, 0, 62, 54
2, 22083, Note_on_c, 0, 63, 64
2, 22323, Note_off_c, 0, 58, 69
2, 22323, Note_on_c, 0, 57, 64
2, 22563, Note_off_c, 0, 57, 50
2, 22563, Note_on_c, 0, 58, 64
2, 22803, Note_off_c, 0, 63, 55
2, 22803, Note_on_c, 0, 62, 64
2, 22923, Note_off_c, 0, 62, 52
2, 22923, Note_on_c, 0, 60, 64
2, 23043, Note_off_c, 0, 60, 53
2, 23043, Note_on_c, 0, 62, 64
2, 23103, Note_off_c, 0, 58, 59
2, 23103, Note_on_c, 0, 70, 64
2, 23163, Note_off_c, 0, 70, 57
2, 23163, Note_on_c, 0, 72, 64
2, 23223, Note_off_c, 0, 72, 73
2, 23223, Note_on_c, 0, 74, 64
2, 23283, Note_off_c, 0, 74, 68
2, 23283, Note_off_c, 0, 62, 43
2, 23283, Note_on_c, 0, 72, 64
2, 23343, Note_off_c, 0, 72, 74
2, 23343, Note_on_c, 0, 70, 64
2, 23403, Note_off_c, 0, 70, 68
2, 23403, Note_on_c, 0, 69, 64
2, 23463, Note_off_c, 0, 69, 59
2, 23463, Note_on_c, 0, 67, 64
2, 23523, Note_off_c, 0, 67, 38
2, 23523, Note_on_c, 0, 65, 64
2, 23643, Note_off_c, 0, 65, 37
2, 23643, Note_on_c, 0, 67, 64
2, 23703, Note_off_c, 0, 67, 46
2, 23703, Note_on_c, 0, 69, 64
2, 23763, Note_off_c, 0, 69, 65
2, 23763, Note_on_c, 0, 70, 64
2, 23823, Note_off_c, 0, 70, 69
2, 23823, Note_on_c, 0, 69, 64
2, 23883, Note_off_c, 0, 69, 63
2, 23883, Note_on_c, 0, 67, 64
2, 23943, Note_off_c, 0, 67, 46
2, 23943, Note_on_c, 0, 65, 64
2, 24003, Note_off_c, 0, 65, 46
2, 24003, Note_on_c, 0, 63, 64
2, 24063, Note_off_c, 0, 63, 49
2, 24063, Note_on_c, 0, 62, 64
2, 24123, Note_off_c, 0, 62, 37
2, 24123, Note_on_c, 0, 60, 64
2, 24183, Note_off_c, 0, 60, 51
2, 24183, Note_on_c, 0, 58, 64
2, 24243, Note_off_c, 0, 58, 59
2, 24243, Note_on_c, 0, 63, 64
2, 24363, Note_off_c, 0, 63, 49
2, 24363, Note_on_c, 0, 63, 64
2, 24483, Note_off_c, 0, 63, 50
2, 24483, Note_on_c, 0, 63, 64
2, 24543, Note_on_c, 0, 68, 64
2, 24603, Note_off_c, 0, 68, 58
2, 24603, Note_on_c, 0, 70, 64
2, 24663, Note_off_c, 0, 70, 66
2, 24663, Note_on_c, 0, 72, 64
2, 24723, Note_off_c, 0, 72, 74
2, 24723, Note_off_c, 0, 63, 48
2, 24723, Note_on_c, 0, 62, 64
2, 24723, Note_on_c, 0, 70, 64
2, 24783, Note_off_c, 0, 70, 72
2, 24783, Note_on_c, 0, 68, 64
2, 24843, Note_off_c, 0, 68, 73
2, 24843, Note_on_c, 0, 67, 64
2, 24903, Note_off_c, 0, 67, 47
2, 24903, Note_on_c, 0, 65, 64
2, 24963, Note_off_c, 0, 65, 49
2, 24963, Note_off_c, 0, 62, 53
2, 24963, Note_on_c, 0, 63, 64
2, 24963, Note_on_c, 0, 67, 64
2, 25023, Note_off_c, 0, 67, 28
2, 25023, Note_on_c, 0, 75, 64
2, 25083, Note_off_c, 0, 75, 51
2, 25083, Note_on_c, 0, 77, 64
2, 25143, Note_off_c, 0, 77, 70
2, 25143, Note_on_c, 0, 79, 64
2, 25203, Note_off_c, 0, 79, 52
2, 25203, Note_off_c, 0, 63, 46
2, 25203, Note_on_c, 0, 77, 64
2, 25263, Note_off_c, 0, 77, 57
2, 25263, Note_on_c, 0, 75, 64
2, 25323, Note_off_c, 0, 75, 50
2, 25323, Note_on_c, 0, 74, 64
2, 25383, Note_off_c, 0, 74, 46
2, 25383, Note_on_c, 0, 72, 64
2, 25443, Note_off_c, 0, 72, 69
2, 25443, Note_on_c, 0, 70, 64
2, 25563, Note_off_c, 0, 70, 69
2, 25563, Note_on_c, 0, 72, 64
2, 25623, Note_off_c, 0, 72, 62
2, 25623, Note_on_c, 0, 74, 64
2, 25683, Note_off_c, 0, 74, 72
2, 25683, Note_on_c, 0, 75, 64
2, 25743, Note_off_c, 0, 75, 50
2, 25743, Note_on_c, 0, 74, 64
2, 25803, Note_off_c, 0, 74, 68
2, 25803, Note_on_c, 0, 72, 64
2, 25863, Note_off_c, 0, 72, 44
2, 25863, Note_on_c, 0, 70, 64
2, 25923, Note_off_c, 0, 70, 68
2, 25923, Note_on_c, 0, 60, 64
2, 25923, Note_on_c, 0, 68, 64
2, 25983, Note_off_c, 0, 68, 68
2, 25983, Note_on_c, 0, 67, 64
2, 26043, Note_off_c, 0, 67, 51
2, 26043, Note_on_c, 0, 65, 64
2, 26103, Note_off_c, 0, 65, 50
2, 26103, Note_on_c, 0, 63, 64
2, 26163, Note_off_c, 0, 63, 46
2, 26163, Note_on_c, 0, 68, 64
2, 26283, Note_off_c, 0, 68, 72
2, 26283, Note_on_c, 0, 68, 64
2, 26403, Note_off_c, 0, 68, 68
2, 26403, Note_off_c, 0, 60, 66
2, 26403, Note_on_c, 0, 58, 64
2, 26403, Note_on_c, 0, 68, 64
2, 26643, Note_off_c, 0, 68, 65
2, 26643, Note_on_c, 0, 67, 64
2, 26703, Note_off_c, 0, 58, 50
2, 26703, Note_on_c, 0, 62, 64
2, 26763, Note_off_c, 0, 62, 47
2, 26763, Note_on_c, 0, 63, 64
2, 26823, Note_off_c, 0, 63, 49
2, 26823, Note_on_c, 0, 65, 64
2, 26883, Note_off_c, 0, 65, 53
2, 26883, Note_on_c, 0, 63, 64
2, 26943, Note_off_c, 0, 63, 52
2, 26943, Note_on_c, 0, 62, 64
2, 27003, Note_off_c, 0, 62, 54
2, 27003, Note_on_c, 0, 60, 64
2, 27063, Note_off_c, 0, 60, 43
2, 27063, Note_on_c, 0, 58, 64
2, 27123, Note_off_c, 0, 58, 61
2, 27123, Note_off_c, 0, 67, 49
2, 27123, Note_on_c, 0, 63, 64
2, 27123, Note_on_c, 0, 69, 64
2, 27243, Note_off_c, 0, 63, 51
2, 27243, Note_on_c, 0, 60, 64
2, 27363, Note_off_c, 0, 60, 54
2, 27363, Note_off_c, 0, 69, 72
2, 27363, Note_on_c, 0, 65, 64
2, 27363, Note_on_c, 0, 70, 64
2, 27483, Note_off_c, 0, 70, 68
2, 27483, Note_on_c, 0, 72, 64
2, 27603, Note_off_c, 0, 72, 80
2, 27603, Note_on_c, 0, 74, 64
2, 27653, Note_off_c, 0, 65, 52
2, 27666, Note_on_c, 0, 65, 64
2, 27726, Note_off_c, 0, 65, 48
2, 27726, Note_on_c, 0, 67, 64
2, 27786, Note_off_c, 0, 67, 47
2, 27786, Note_on_c, 0, 68, 64
2, 27846, Note_off_c, 0, 68, 68
2, 27846, Note_on_c, 0, 67, 64
2, 27906, Note_off_c, 0, 67, 53
2, 27906, Note_on_c, 0, 65, 64
2, 27966, Note_off_c, 0, 65, 49
2, 27966, Note_on_c, 0, 63, 64
2, 28026, Note_off_c, 0, 63, 40
2, 28026, Note_on_c, 0, 62, 64
2, 28086, Note_off_c, 0, 62, 47
2, 28086, Note_on_c, 0, 67, 64
2, 28136, Note_off_c, 0, 74, 52
2, 28149, Note_on_c, 0, 74, 64
2, 28209, Note_off_c, 0, 74, 51
2, 28209, Note_on_c, 0, 72, 64
2, 28269, Note_off_c, 0, 72, 72
2, 28269, Note_on_c, 0, 70, 64
2, 28329, Note_off_c, 0, 70, 48
2, 28329, Note_off_c, 0, 67, 46
2, 28329, Note_on_c, 0, 65, 64
2, 28329, Note_on_c, 0, 69, 64
2, 28449, Note_off_c, 0, 69, 54
2, 28449, Note_on_c, 0, 70, 64
2, 28509, Note_off_c, 0, 70, 72
2, 28509, Note_on_c, 0, 72, 64
2, 28569, Note_off_c, 0, 72, 65
2, 28569, Note_on_c, 0, 74, 64
2, 28809, Note_on_c, 0, 67, 83
2, 29049, Note_off_c, 0, 65, 55
2, 29099, Note_off_c, 0, 74, 59
2, 29112, Note_on_c, 0, 72, 64
2, 29172, Note_off_c, 0, 72, 61
2, 29172, Note_on_c, 0, 74, 64
2, 29232, Note_off_c, 0, 74, 65
2, 29232, Note_on_c, 0, 75, 64
2, 29292, Note_off_c, 0, 75, 48
2, 29292, Note_off_c, 0, 67, 65
2, 29292, Note_on_c, 0, 77, 64
2, 29352, Note_on_c, 0, 69, 64
2, 29412, Note_off_c, 0, 69, 47
2, 29412, Note_on_c, 0, 70, 64
2, 29472, Note_off_c, 0, 70, 62
2, 29472, Note_on_c, 0, 72, 64
2, 29532, Note_off_c, 0, 72, 77
2, 29532, Note_off_c, 0, 77, 66
2, 29532, Note_on_c, 0, 70, 64
2, 29592, Note_off_c, 0, 70, 69
2, 29592, Note_on_c, 0, 69, 64
2, 29652, Note_off_c, 0, 69, 59
2, 29652, Note_on_c, 0, 67, 64
2, 29712, Note_off_c, 0, 67, 45
2, 29712, Note_on_c, 0, 65, 64
2, 29772, Note_off_c, 0, 65, 53
2, 29772, Note_on_c, 0, 70, 64
2, 29832, Note_on_c, 0, 77, 64
2, 29892, Note_off_c, 0, 77, 52
2, 29892, Note_on_c, 0, 79, 64
2, 29952, Note_off_c, 0, 79, 50
2, 29952, Note_on_c, 0, 80, 64
2, 30012, Note_off_c, 0, 80, 65
2, 30012, Note_on_c, 0, 79, 64
2, 30072, Note_off_c, 0, 79, 52
2, 30072, Note_on_c, 0, 77, 64
2, 30132, Note_off_c, 0, 77, 62
2, 30132, Note_on_c, 0, 75, 64
2, 30192, Note_off_c, 0, 75, 49
2, 30192, Note_on_c, 0, 74, 64
2, 30252, Note_off_c, 0, 74, 55
2, 30252, Note_on_c, 0, 75, 64
2, 30302, Note_off_c, 0, 70, 72
2, 30315, Note_on_c, 0, 70, 64
2, 30375, Note_off_c, 0, 70, 61
2, 30375, Note_on_c, 0, 72, 64
2, 30435, Note_off_c, 0, 72, 77
2, 30435, Note_on_c, 0, 74, 64
2, 30495, Note_off_c, 0, 74, 65
2, 30495, Note_on_c, 0, 72, 64
2, 30555, Note_off_c, 0, 72, 70
2, 30555, Note_on_c, 0, 70, 64
2, 30615, Note_off_c, 0, 70, 73
2, 30615, Note_on_c, 0, 69, 64
2, 30675, Note_off_c, 0, 69, 55
2, 30675, Note_on_c, 0, 67, 64
2, 30735, Note_off_c, 0, 67, 44
2, 30735, Note_on_c, 0, 69, 64
2, 30785, Note_off_c, 0, 75, 49
2, 30798, Note_on_c, 0, 75, 64
2, 30858, Note_off_c, 0, 75, 44
2, 30858, Note_on_c, 0, 77, 64
2, 30918, Note_off_c, 0, 77, 74
2, 30918, Note_on_c, 0, 79, 64
2, 30978, Note_off_c, 0, 79, 72
2, 30978, Note_on_c, 0, 77, 64
2, 31038, Note_off_c, 0, 77, 68
2, 31038, Note_on_c, 0, 75, 64
2, 31098, Note_off_c, 0, 75, 59
2, 31098, Note_on_c, 0, 74, 64
2, 31158, Note_off_c, 0, 74, 57
2, 31158, Note_on_c, 0, 72, 64
2, 31218, Note_off_c, 0, 72, 51
2, 31218, Note_on_c, 0, 74, 64
2, 31338, Note_off_c, 0, 69, 77
2, 31338, Note_on_c, 0, 62, 64
2, 31458, Note_off_c, 0, 62, 45
2, 31458, Note_on_c, 0, 67, 64
2, 31578, Note_off_c, 0, 67, 51
2, 31578, Note_on_c, 0, 65, 64
2, 31698, Note_off_c, 0, 65, 55
2, 31698, Note_on_c, 0, 63, 64
2, 31938, Note_off_c, 0, 74, 61
2, 31938, Note_on_c, 0, 72, 64
2, 32178, Note_off_c, 0, 63, 55
2, 32178, Note_on_c, 0, 62, 64
2, 32298, Note_off_c, 0, 72, 49
2, 32298, Note_on_c, 0, 70, 64
2, 32418, Note_off_c, 0, 70, 62
2, 32418, Note_off_c, 0, 62, 49
2, 32418, Note_on_c, 0, 69, 64
2, 32418, Note_on_c, 0, 60, 64
2, 32658, Note_off_c, 0, 60, 39
2, 32658, Note_off_c, 0, 69, 69
2, 32658, Note_on_c, 0, 67, 64
2, 32658, Note_on_c, 0, 58, 64
2, 32898, Note_off_c, 0, 58, 61
2, 32898, Note_off_c, 0, 67, 46
2, 32898, Note_on_c, 0, 63, 64
2, 33138, Note_on_c, 0, 65, 64
2, 33378, Note_off_c, 0, 65, 23
2, 33378, Note_off_c, 0, 63, 50
2, 33378, Note_on_c, 0, 70, 64
2, 33378, Note_on_c, 0, 62, 64
2, 33618, Note_off_c, 0, 62, 55
2, 33618, Note_on_c, 0, 67, 64
2, 33858, Note_off_c, 0, 67, 52
2, 33858, Note_off_c, 0, 70, 57
2, 33858, Note_on_c, 0, 65, 64
2, 33858, Note_on_c, 0, 68, 64
2, 34098, Note_off_c, 0, 68, 53
2, 34098, Note_on_c, 0, 73, 64
2, 34148, Note_off_c, 0, 65, 62
2, 34161, Note_on_c, 0, 65, 64
2, 34221, Note_off_c, 0, 65, 48
2, 34221, Note_on_c, 0, 67, 64
2, 34281, Note_off_c, 0, 67, 38
2, 34281, Note_on_c, 0, 68, 64
2, 34341, Note_off_c, 0, 68, 65
2, 34341, Note_on_c, 0, 67, 64
2, 34401, Note_off_c, 0, 67, 43
2, 34401, Note_on_c, 0, 65, 64
2, 34461, Note_off_c, 0, 65, 50
2, 34461, Note_on_c, 0, 64, 64
2, 34521, Note_off_c, 0, 64, 46
2, 34521, Note_on_c, 0, 65, 64
2, 34581, Note_off_c, 0, 65, 57
2, 34581, Note_on_c, 0, 64, 64
2, 34641, Note_off_c, 0, 73, 62
2, 34641, Note_on_c, 0, 70, 64
2, 34701, Note_off_c, 0, 70, 63
2, 34701, Note_on_c, 0, 72, 64
2, 34761, Note_off_c, 0, 72, 69
2, 34761, Note_on_c, 0, 73, 64
2, 34821, Note_off_c, 0, 73, 61
2, 34821, Note_on_c, 0, 72, 64
2, 34881, Note_off_c, 0, 72, 73
2, 34881, Note_on_c, 0, 70, 64
2, 34941, Note_off_c, 0, 70, 63
2, 34941, Note_on_c, 0, 68, 64
2, 35001, Note_off_c, 0, 68, 66
2, 35001, Note_on_c, 0, 67, 64
2, 35061, Note_off_c, 0, 67, 51
2, 35061, Note_off_c, 0, 64, 41
2, 35061, Note_on_c, 0, 65, 64
2, 35121, Note_on_c, 0, 63, 64
2, 35181, Note_off_c, 0, 63, 49
2, 35181, Note_on_c, 0, 61, 64
2, 35241, Note_off_c, 0, 61, 55
2, 35241, Note_on_c, 0, 60, 64
2, 35301, Note_off_c, 0, 60, 45
2, 35301, Note_on_c, 0, 58, 64
2, 35591, Note_off_c, 0, 58, 63
2, 35604, Note_on_c, 0, 58, 64
2, 35664, Note_off_c, 0, 58, 58
2, 35664, Note_on_c, 0, 60, 64
2, 35724, Note_off_c, 0, 60, 63
2, 35724, Note_on_c, 0, 61, 64
2, 35784, Note_off_c, 0, 61, 62
2, 35784, Note_off_c, 0, 65, 51
2, 35784, Note_on_c, 0, 60, 64
2, 35784, Note_on_c, 0, 64, 64
2, 35844, Note_off_c, 0, 60, 59
2, 35844, Note_on_c, 0, 58, 64
2, 35904, Note_off_c, 0, 58, 59
2, 35904, Note_on_c, 0, 56, 64
2, 35964, Note_off_c, 0, 56, 52
2, 35964, Note_on_c, 0, 55, 64
2, 36024, Note_off_c, 0, 55, 49
2, 36024, Note_off_c, 0, 64, 44
2, 36024, Note_on_c, 0, 56, 64
2, 36024, Note_on_c, 0, 65, 64
2, 36264, Note_off_c, 0, 65, 65
2, 36264, Note_off_c, 0, 56, 58
2, 36264, Note_on_c, 0, 72, 64
2, 36564, Note_on_c, 0, 65, 64
2, 36624, Note_off_c, 0, 65, 46
2, 36624, Note_on_c, 0, 67, 64
2, 36684, Note_off_c, 0, 67, 46
2, 36684, Note_on_c, 0, 68, 64
2, 36744, Note_off_c, 0, 68, 72
2, 36744, Note_off_c, 0, 72, 38
2, 36744, Note_on_c, 0, 67, 64
2, 36744, Note_on_c, 0, 71, 64
2, 36804, Note_off_c, 0, 67, 46
2, 36804, Note_on_c, 0, 65, 64
2, 36864, Note_off_c, 0, 65, 55
2, 36864, Note_on_c, 0, 63, 64
2, 36924, Note_off_c, 0, 63, 49
2, 36924, Note_on_c, 0, 62, 64
2, 36984, Note_off_c, 0, 62, 58
2, 36984, Note_off_c, 0, 71, 58
2, 36984, Note_on_c, 0, 75, 64
2, 36984, Note_on_c, 0, 60, 64
2, 37044, Note_off_c, 0, 60, 49
2, 37044, Note_on_c, 0, 67, 64
2, 37104, Note_off_c, 0, 67, 54
2, 37104, Note_on_c, 0, 68, 64
2, 37164, Note_off_c, 0, 68, 72
2, 37164, Note_on_c, 0, 70, 64
2, 37224, Note_off_c, 0, 70, 73
2, 37224, Note_on_c, 0, 68, 64
2, 37284, Note_off_c, 0, 68, 73
2, 37284, Note_on_c, 0, 67, 64
2, 37344, Note_off_c, 0, 67, 43
2, 37344, Note_on_c, 0, 65, 64
2, 37404, Note_off_c, 0, 65, 53
2, 37404, Note_on_c, 0, 63, 64
2, 37464, Note_off_c, 0, 63, 45
2, 37464, Note_on_c, 0, 65, 64
2, 37514, Note_off_c, 0, 75, 43
2, 37527, Note_on_c, 0, 75, 64
2, 37587, Note_off_c, 0, 75, 53
2, 37587, Note_on_c, 0, 77, 64
2, 37647, Note_off_c, 0, 77, 74
2, 37647, Note_on_c, 0, 79, 64
2, 37707, Note_off_c, 0, 79, 61
2, 37707, Note_on_c, 0, 77, 64
2, 37767, Note_off_c, 0, 77, 69
2, 37767, Note_on_c, 0, 75, 64
2, 37827, Note_off_c, 0, 75, 53
2, 37827, Note_on_c, 0, 74, 64
2, 37887, Note_off_c, 0, 74, 69
2, 37887, Note_on_c, 0, 72, 64
2, 37947, Note_off_c, 0, 72, 59
2, 37947, Note_off_c, 0, 65, 66
2, 37947, Note_on_c, 0, 62, 64
2, 37947, Note_on_c, 0, 71, 64
2, 38007, Note_off_c, 0, 71, 59
2, 38007, Note_on_c, 0, 77, 64
2, 38067, Note_off_c, 0, 77, 65
2, 38067, Note_on_c, 0, 79, 64
2, 38127, Note_off_c, 0, 79, 63
2, 38127, Note_on_c, 0, 80, 64
2, 38187, Note_off_c, 0, 80, 73
2, 38187, Note_off_c, 0, 62, 44
2, 38187, Note_on_c, 0, 63, 64
2, 38187, Note_on_c, 0, 79, 64
2, 38247, Note_off_c, 0, 79, 63
2, 38247, Note_on_c, 0, 77, 64
2, 38307, Note_off_c, 0, 77, 74
2, 38307, Note_on_c, 0, 75, 64
2, 38367, Note_off_c, 0, 75, 55
2, 38367, Note_on_c, 0, 74, 64
2, 38427, Note_off_c, 0, 74, 74
2, 38427, Note_on_c, 0, 72, 64
2, 38487, Note_off_c, 0, 72, 73
2, 38487, Note_on_c, 0, 71, 64
2, 38547, Note_off_c, 0, 71, 59
2, 38547, Note_off_c, 0, 63, 53
2, 38547, Note_on_c, 0, 72, 64
2, 38547, Note_on_c, 0, 68, 64
2, 38607, Note_off_c, 0, 72, 59
2, 38607, Note_on_c, 0, 74, 64
2, 38667, Note_off_c, 0, 74, 61
2, 38667, Note_off_c, 0, 68, 44
2, 38667, Note_on_c, 0, 74, 64
2, 38667, Note_on_c, 0, 67, 64
2, 38787, Note_off_c, 0, 67, 53
2, 38787, Note_on_c, 0, 65, 64
2, 38847, Note_off_c, 0, 74, 55
2, 38847, Note_on_c, 0, 72, 64
2, 38907, Note_off_c, 0, 72, 72
2, 38907, Note_off_c, 0, 65, 57
2, 38907, Note_on_c, 0, 72, 64
2, 38907, Note_on_c, 0, 63, 64
2, 39147, Note_off_c, 0, 63, 45
2, 39147, Note_off_c, 0, 72, 68
2, 39147, Note_on_c, 0, 68, 64
2, 39447, Note_on_c, 0, 70, 64
2, 39507, Note_off_c, 0, 70, 58
2, 39507, Note_on_c, 0, 72, 64
2, 39567, Note_off_c, 0, 72, 76
2, 39567, Note_on_c, 0, 73, 64
2, 39627, Note_off_c, 0, 73, 49
2, 39627, Note_off_c, 0, 68, 52
2, 39627, Note_on_c, 0, 72, 64
2, 39627, Note_on_c, 0, 67, 64
2, 39687, Note_off_c, 0, 72, 72
2, 39687, Note_on_c, 0, 70, 64
2, 39747, Note_off_c, 0, 70, 65
2, 39747, Note_on_c, 0, 68, 64
2, 39807, Note_off_c, 0, 68, 59
2, 39807, Note_on_c, 0, 67, 64
2, 39867, Note_off_c, 0, 67, 44
2, 39867, Note_off_c, 0, 67, 47
2, 39867, Note_on_c, 0, 65, 64
2, 39867, Note_on_c, 0, 72, 64
2, 39987, Note_off_c, 0, 65, 43
2, 39987, Note_on_c, 0, 67, 64
2, 40047, Note_off_c, 0, 67, 37
2, 40047, Note_on_c, 0, 68, 64
2, 40107, Note_off_c, 0, 68, 68
2, 40107, Note_off_c, 0, 72, 53
2, 40107, Note_on_c, 0, 70, 64
2, 40167, Note_on_c, 0, 68, 64
2, 40227, Note_off_c, 0, 68, 73
2, 40227, Note_on_c, 0, 67, 64
2, 40287, Note_off_c, 0, 67, 49
2, 40287, Note_on_c, 0, 65, 64
2, 40347, Note_off_c, 0, 65, 51
2, 40347, Note_on_c, 0, 67, 64
2, 40587, Note_on_c, 0, 75, 64
2, 40697, Note_off_c, 0, 75, 51
2, 40710, Note_on_c, 0, 75, 64
2, 40820, Note_off_c, 0, 75, 49
2, 40833, Note_off_c, 0, 67, 57
2, 40833, Note_on_c, 0, 75, 64
2, 41073, Note_off_c, 0, 75, 47
2, 41073, Note_on_c, 0, 74, 64
2, 41313, Note_off_c, 0, 74, 57
2, 41313, Note_on_c, 0, 79, 64
2, 41853, Note_off_c, 0, 70, 63
2, 41853, Note_on_c, 0, 70, 64
2, 41913, Note_off_c, 0, 70, 65
2, 41913, Note_on_c, 0, 72, 64
2, 41973, Note_off_c, 0, 72, 83
2, 41973, Note_on_c, 0, 73, 64
2, 42033, Note_off_c, 0, 73, 69
2, 42033, Note_off_c, 0, 79, 48
2, 42033, Note_on_c, 0, 77, 64
2, 42033, Note_on_c, 0, 72, 64
2, 42093, Note_off_c, 0, 72, 82
2, 42093, Note_on_c, 0, 70, 64
2, 42153, Note_off_c, 0, 70, 74
2, 42153, Note_on_c, 0, 68, 64
2, 42213, Note_off_c, 0, 68, 66
2, 42213, Note_on_c, 0, 67, 64
2, 42273, Note_off_c, 0, 67, 58
2, 42273, Note_off_c, 0, 77, 66
2, 42273, Note_on_c, 0, 71, 64
2, 42273, Note_on_c, 0, 65, 64
2, 42513, Note_off_c, 0, 65, 44
2, 42513, Note_off_c, 0, 71, 52
2, 42513, Note_on_c, 0, 72, 64
2, 42513, Note_on_c, 0, 67, 64
2, 42633, Note_off_c, 0, 67, 40
2, 42633, Note_off_c, 0, 72, 63
2, 42633, Note_on_c, 0, 74, 64
2, 42633, Note_on_c, 0, 71, 64
2, 42753, Note_off_c, 0, 71, 69
2, 42753, Note_off_c, 0, 74, 69
2, 42753, Note_on_c, 0, 75, 64
2, 42753, Note_on_c, 0, 72, 64
2, 42873, Note_off_c, 0, 75, 43
2, 42873, Note_on_c, 0, 76, 64
2, 42993, Note_off_c, 0, 76, 58
2, 42993, Note_off_c, 0, 72, 63
2, 42993, Note_on_c, 0, 77, 64
2, 42993, Note_on_c, 0, 74, 64
2, 43113, Note_off_c, 0, 74, 62
2, 43113, Note_off_c, 0, 77, 72
2, 43113, Note_on_c, 0, 79, 64
2, 43113, Note_on_c, 0, 76, 64
2, 43233, Note_off_c, 0, 76, 53
2, 43233, Note_off_c, 0, 79, 52
2, 43233, Note_on_c, 0, 80, 64
2, 43233, Note_on_c, 0, 77, 64
2, 43293, Note_off_c, 0, 77, 72
2, 43293, Note_on_c, 0, 75, 64
2, 43353, Note_off_c, 0, 75, 54
2, 43353, Note_on_c, 0, 77, 64
2, 43413, Note_off_c, 0, 77, 73
2, 43413, Note_on_c, 0, 79, 64
2, 43473, Note_off_c, 0, 79, 62
2, 43473, Note_on_c, 0, 77, 64
2, 43533, Note_off_c, 0, 77, 68
2, 43533, Note_on_c, 0, 75, 64
2, 43593, Note_off_c, 0, 75, 59
2, 43593, Note_on_c, 0, 74, 64
2, 43653, Note_off_c, 0, 74, 54
2, 43653, Note_on_c, 0, 72, 64
2, 43713, Note_off_c, 0, 72, 52
2, 43713, Note_on_c, 0, 74, 64
2, 43763, Note_off_c, 0, 80, 72
2, 43776, Note_on_c, 0, 80, 64
2, 43836, Note_off_c, 0, 80, 65
2, 43836, Note_on_c, 0, 82, 64
2, 43896, Note_off_c, 0, 82, 61
2, 43896, Note_on_c, 0, 84, 64
2, 43956, Note_off_c, 0, 84, 57
2, 43956, Note_on_c, 0, 82, 64
2, 44016, Note_off_c, 0, 82, 66
2, 44016, Note_on_c, 0, 80, 64
2, 44076, Note_off_c, 0, 80, 69
2, 44076, Note_on_c, 0, 79, 64
2, 44136, Note_off_c, 0, 79, 57
2, 44136, Note_on_c, 0, 77, 64
2, 44196, Note_off_c, 0, 77, 59
2, 44196, Note_on_c, 0, 75, 64
2, 44256, Note_off_c, 0, 74, 69
2, 44256, Note_on_c, 0, 70, 64
2, 44316, Note_off_c, 0, 70, 53
2, 44316, Note_on_c, 0, 72, 64
2, 44376, Note_off_c, 0, 72, 82
2, 44376, Note_on_c, 0, 73, 64
2, 44436, Note_off_c, 0, 73, 66
2, 44436, Note_on_c, 0, 72, 64
2, 44496, Note_off_c, 0, 72, 79
2, 44496, Note_on_c, 0, 70, 64
2, 44556, Note_off_c, 0, 70, 69
2, 44556, Note_on_c, 0, 68, 64
2, 44616, Note_off_c, 0, 68, 70
2, 44616, Note_on_c, 0, 67, 64
2, 44676, Note_off_c, 0, 67, 59
2, 44676, Note_off_c, 0, 75, 57
2, 44676, Note_on_c, 0, 70, 64
2, 44676, Note_on_c, 0, 65, 64
2, 44796, Note_off_c, 0, 65, 36
2, 44796, Note_on_c, 0, 67, 64
2, 44856, Note_off_c, 0, 67, 38
2, 44856, Note_on_c, 0, 68, 64
2, 44916, Note_off_c, 0, 68, 70
2, 44916, Note_on_c, 0, 70, 64
2, 44976, Note_off_c, 0, 70, 65
2, 44976, Note_on_c, 0, 68, 64
2, 45036, Note_off_c, 0, 68, 74
2, 45036, Note_on_c, 0, 67, 64
2, 45096, Note_off_c, 0, 67, 46
2, 45096, Note_on_c, 0, 65, 64
2, 45156, Note_off_c, 0, 65, 38
2, 45156, Note_on_c, 0, 63, 64
2, 45216, Note_off_c, 0, 63, 49
2, 45216, Note_on_c, 0, 62, 64
2, 45276, Note_off_c, 0, 62, 43
2, 45276, Note_on_c, 0, 60, 64
2, 45336, Note_off_c, 0, 60, 44
2, 45336, Note_on_c, 0, 58, 64
2, 45396, Note_off_c, 0, 58, 44
2, 45396, Note_on_c, 0, 63, 64
2, 45456, Note_off_c, 0, 70, 68
2, 45456, Note_on_c, 0, 68, 64
2, 45506, Note_off_c, 0, 63, 54
2, 45519, Note_off_c, 0, 68, 55
2, 45519, Note_on_c, 0, 63, 64
2, 45519, Note_on_c, 0, 70, 64
2, 45579, Note_off_c, 0, 70, 62
2, 45579, Note_on_c, 0, 72, 64
2, 45629, Note_off_c, 0, 63, 48
2, 45642, Note_off_c, 0, 72, 69
2, 45642, Note_on_c, 0, 63, 64
2, 45642, Note_on_c, 0, 65, 64
2, 45882, Note_off_c, 0, 65, 42
2, 45882, Note_off_c, 0, 63, 48
2, 45882, Note_on_c, 0, 62, 64
2, 45882, Note_on_c, 0, 65, 64
2, 46122, Note_off_c, 0, 65, 39
2, 46122, Note_off_c, 0, 62, 47
2, 46122, Note_on_c, 0, 60, 64
2, 46122, Note_on_c, 0, 63, 64
2, 46602, Note_off_c, 0, 63, 49
2, 46602, Note_off_c, 0, 60, 54
2, 46602, Note_on_c, 0, 62, 64
2, 46662, Note_on_c, 0, 65, 64
2, 46722, Note_off_c, 0, 65, 44
2, 46722, Note_on_c, 0, 67, 64
2, 46782, Note_off_c, 0, 67, 52
2, 46782, Note_on_c, 0, 68, 64
2, 46842, Note_off_c, 0, 68, 72
2, 46842, Note_off_c, 0, 62, 49
2, 46842, Note_on_c, 0, 67, 64
2, 46902, Note_off_c, 0, 67, 41
2, 46902, Note_on_c, 0, 65, 64
2, 46962, Note_off_c, 0, 65, 51
2, 46962, Note_on_c, 0, 63, 64
2, 47022, Note_off_c, 0, 63, 46
2, 47022, Note_on_c, 0, 62, 64
2, 47082, Note_off_c, 0, 62, 54
2, 47082, Note_on_c, 0, 68, 64
2, 47082, Note_on_c, 0, 60, 64
2, 47202, Note_off_c, 0, 60, 39
2, 47202, Note_on_c, 0, 62, 64
2, 47262, Note_off_c, 0, 62, 38
2, 47262, Note_on_c, 0, 63, 64
2, 47322, Note_off_c, 0, 63, 47
2, 47322, Note_on_c, 0, 65, 64
2, 47382, Note_off_c, 0, 65, 54
2, 47382, Note_on_c, 0, 63, 64
2, 47442, Note_off_c, 0, 63, 48
2, 47442, Note_on_c, 0, 62, 64
2, 47502, Note_off_c, 0, 62, 36
2, 47502, Note_on_c, 0, 60, 64
2, 47562, Note_off_c, 0, 60, 49
2, 47622, Note_off_c, 0, 68, 57
2, 47622, Note_on_c, 0, 65, 64
2, 47682, Note_off_c, 0, 65, 40
2, 47682, Note_on_c, 0, 67, 64
2, 47742, Note_off_c, 0, 67, 49
2, 47742, Note_on_c, 0, 68, 64
2, 47802, Note_off_c, 0, 68, 70
2, 47802, Note_on_c, 0, 67, 64
2, 47862, Note_off_c, 0, 67, 43
2, 47862, Note_on_c, 0, 65, 64
2, 47922, Note_off_c, 0, 65, 46
2, 47922, Note_on_c, 0, 63, 64
2, 47982, Note_off_c, 0, 63, 38
2, 47982, Note_on_c, 0, 62, 64
2, 48042, Note_off_c, 0, 62, 43
2, 48042, Note_on_c, 0, 60, 64
2, 48332, Note_off_c, 0, 60, 41
2, 48345, Note_on_c, 0, 60, 64
2, 48405, Note_off_c, 0, 60, 45
2, 48405, Note_on_c, 0, 62, 64
2, 48465, Note_off_c, 0, 62, 52
2, 48465, Note_on_c, 0, 63, 64
2, 48525, Note_off_c, 0, 63, 43
2, 48525, Note_on_c, 0, 65, 64
2, 48825, Note_off_c, 0, 65, 48
2, 48825, Note_on_c, 0, 63, 64
2, 48885, Note_off_c, 0, 63, 48
2, 48885, Note_on_c, 0, 65, 64
2, 48945, Note_off_c, 0, 65, 52
2, 48945, Note_on_c, 0, 67, 64
2, 49005, Note_off_c, 0, 67, 50
2, 49005, Note_on_c, 0, 68, 64
2, 49125, Note_on_c, 0, 59, 64
2, 49245, Note_off_c, 0, 59, 37
2, 49245, Note_on_c, 0, 60, 64
2, 49365, Note_off_c, 0, 60, 48
2, 49365, Note_on_c, 0, 62, 64
2, 49485, Note_off_c, 0, 62, 49
2, 49485, Note_on_c, 0, 63, 64
2, 49605, Note_off_c, 0, 68, 63
2, 49605, Note_on_c, 0, 67, 64
2, 49725, Note_off_c, 0, 67, 43
2, 49725, Note_on_c, 0, 68, 64
2, 49845, Note_off_c, 0, 68, 61
2, 49845, Note_on_c, 0, 70, 64
2, 49965, Note_off_c, 0, 70, 68
2, 49965, Note_on_c, 0, 72, 64
2, 50015, Note_off_c, 0, 63, 50
2, 50028, Note_on_c, 0, 63, 64
2, 50088, Note_off_c, 0, 63, 48
2, 50088, Note_on_c, 0, 65, 64
2, 50148, Note_off_c, 0, 65, 55
2, 50148, Note_on_c, 0, 67, 64
2, 50208, Note_off_c, 0, 67, 36
2, 50208, Note_on_c, 0, 65, 64
2, 50268, Note_off_c, 0, 72, 63
2, 50268, Note_on_c, 0, 75, 64
2, 50328, Note_off_c, 0, 75, 54
2, 50328, Note_on_c, 0, 74, 64
2, 50388, Note_off_c, 0, 74, 72
2, 50388, Note_on_c, 0, 72, 64
2, 50448, Note_off_c, 0, 72, 69
2, 50448, Note_off_c, 0, 65, 52
2, 50448, Note_on_c, 0, 67, 64
2, 50448, Note_on_c, 0, 71, 64
2, 50568, Note_off_c, 0, 71, 50
2, 50568, Note_on_c, 0, 72, 64
2, 50628, Note_off_c, 0, 72, 61
2, 50628, Note_on_c, 0, 74, 64
2, 50688, Note_off_c, 0, 74, 70
2, 50688, Note_on_c, 0, 75, 64
2, 50748, Note_off_c, 0, 75, 55
2, 50748, Note_on_c, 0, 74, 64
2, 50808, Note_off_c, 0, 74, 69
2, 50808, Note_on_c, 0, 72, 64
2, 50868, Note_off_c, 0, 72, 76
2, 50868, Note_on_c, 0, 70, 64
2, 50928, Note_off_c, 0, 70, 69
2, 50928, Note_off_c, 0, 67, 53
2, 50928, Note_on_c, 0, 68, 64
2, 50988, Note_off_c, 0, 68, 68
2, 50988, Note_on_c, 0, 67, 64
2, 51048, Note_off_c, 0, 67, 47
2, 51048, Note_on_c, 0, 65, 64
2, 51108, Note_off_c, 0, 65, 43
2, 51108, Note_on_c, 0, 63, 64
2, 51168, Note_off_c, 0, 63, 43
2, 51168, Note_on_c, 0, 62, 64
2, 51228, Note_off_c, 0, 62, 45
2, 51228, Note_on_c, 0, 74, 64
2, 51288, Note_off_c, 0, 74, 58
2, 51288, Note_on_c, 0, 75, 64
2, 51348, Note_off_c, 0, 75, 48
2, 51348, Note_on_c, 0, 77, 64
2, 51408, Note_off_c, 0, 77, 61
2, 51408, Note_on_c, 0, 65, 64
2, 51408, Note_on_c, 0, 71, 64
2, 51528, Note_off_c, 0, 71, 54
2, 51528, Note_on_c, 0, 72, 64
2, 51588, Note_off_c, 0, 72, 59
2, 51588, Note_on_c, 0, 74, 64
2, 51648, Note_off_c, 0, 74, 52
2, 51648, Note_off_c, 0, 65, 53
2, 51648, Note_on_c, 0, 67, 64
2, 51648, Note_on_c, 0, 72, 64
2, 51708, Note_off_c, 0, 72, 57
2, 51708, Note_on_c, 0, 70, 64
2, 51768, Note_off_c, 0, 70, 62
2, 51768, Note_on_c, 0, 68, 64
2, 51828, Note_off_c, 0, 68, 68
2, 51828, Note_on_c, 0, 67, 64
2, 51888, Note_off_c, 0, 67, 49
2, 51888, Note_on_c, 0, 72, 64
2, 52128, Note_off_c, 0, 67, 52
2, 52128, Note_on_c, 0, 65, 64
2, 52368, Note_off_c, 0, 65, 55
2, 52368, Note_off_c, 0, 72, 74
2, 52368, Note_on_c, 0, 70, 64
2, 52488, Note_on_c, 0, 74, 64
2, 52608, Note_off_c, 0, 74, 66
2, 52608, Note_on_c, 0, 76, 64
2, 52848, Note_off_c, 0, 76, 55
2, 52848, Note_off_c, 0, 70, 65
2, 52848, Note_on_c, 0, 77, 64
2, 52908, Note_off_c, 0, 77, 72
2, 52908, Note_on_c, 0, 72, 64
2, 52968, Note_off_c, 0, 72, 50
2, 52968, Note_on_c, 0, 73, 64
2, 52968, Note_on_c, 0, 68, 64
2, 53028, Note_off_c, 0, 73, 61
2, 53028, Note_on_c, 0, 75, 64
2, 53088, Note_off_c, 0, 75, 53
2, 53088, Note_off_c, 0, 68, 65
2, 53088, Note_on_c, 0, 73, 64
2, 53148, Note_on_c, 0, 72, 64
2, 53208, Note_off_c, 0, 72, 52
2, 53208, Note_on_c, 0, 70, 64
2, 53268, Note_off_c, 0, 70, 69
2, 53268, Note_on_c, 0, 68, 64
2, 53328, Note_off_c, 0, 68, 63
2, 53328, Note_on_c, 0, 67, 64
2, 53568, Note_off_c, 0, 67, 43
2, 53568, Note_off_c, 0, 73, 65
2, 53568, Note_on_c, 0, 72, 64
2, 53808, Note_off_c, 0, 72, 79
2, 53808, Note_on_c, 0, 77, 64
2, 53868, Note_on_c, 0, 80, 64
2, 53928, Note_off_c, 0, 80, 63
2, 53928, Note_on_c, 0, 82, 64
2, 53988, Note_off_c, 0, 82, 66
2, 53988, Note_on_c, 0, 84, 64
2, 54048, Note_off_c, 0, 84, 55
2, 54048, Note_on_c, 0, 82, 64
2, 54108, Note_off_c, 0, 82, 65
2, 54108, Note_on_c, 0, 80, 64
2, 54168, Note_off_c, 0, 80, 73
2, 54168, Note_on_c, 0, 79, 64
2, 54228, Note_off_c, 0, 79, 52
2, 54228, Note_on_c, 0, 77, 64
2, 54288, Note_off_c, 0, 77, 54
2, 54288, Note_off_c, 0, 77, 70
2, 54288, Note_on_c, 0, 75, 64
2, 54288, Note_on_c, 0, 80, 64
2, 54348, Note_off_c, 0, 80, 74
2, 54348, Note_on_c, 0, 79, 64
2, 54408, Note_off_c, 0, 79, 49
2, 54408, Note_on_c, 0, 77, 64
2, 54468, Note_off_c, 0, 77, 43
2, 54468, Note_on_c, 0, 75, 64
2, 54528, Note_off_c, 0, 75, 51
2, 54528, Note_on_c, 0, 80, 64
2, 54578, Note_off_c, 0, 75, 57
2, 54591, Note_on_c, 0, 75, 64
2, 54651, Note_off_c, 0, 75, 46
2, 54651, Note_on_c, 0, 77, 64
2, 54711, Note_off_c, 0, 77, 72
2, 54711, Note_on_c, 0, 78, 64
2, 54771, Note_off_c, 0, 78, 66
2, 54771, Note_on_c, 0, 77, 64
2, 54831, Note_off_c, 0, 77, 76
2, 54831, Note_on_c, 0, 75, 64
2, 54891, Note_off_c, 0, 75, 57
2, 54891, Note_on_c, 0, 73, 64
2, 54951, Note_off_c, 0, 73, 59
2, 54951, Note_on_c, 0, 72, 64
2, 55011, Note_off_c, 0, 72, 53
2, 55011, Note_off_c, 0, 80, 80
2, 55011, Note_on_c, 0, 79, 64
2, 55011, Note_on_c, 0, 70, 64
2, 55251, Note_off_c, 0, 70, 52
2, 55251, Note_off_c, 0, 79, 52
2, 55251, Note_on_c, 0, 80, 64
2, 55311, Note_on_c, 0, 70, 64
2, 55371, Note_off_c, 0, 70, 46
2, 55371, Note_off_c, 0, 80, 72
2, 55371, Note_on_c, 0, 75, 64
2, 55371, Note_on_c, 0, 72, 64
2, 55431, Note_off_c, 0, 72, 80
2, 55431, Note_on_c, 0, 73, 64
2, 55491, Note_off_c, 0, 73, 70
2, 55491, Note_off_c, 0, 75, 53
2, 55491, Note_on_c, 0, 80, 64
2, 55491, Note_on_c, 0, 72, 64
2, 55551, Note_off_c, 0, 72, 83
2, 55551, Note_on_c, 0, 70, 64
2, 55611, Note_off_c, 0, 70, 68
2, 55611, Note_on_c, 0, 68, 64
2, 55671, Note_off_c, 0, 68, 61
2, 55671, Note_on_c, 0, 67, 64
2, 55731, Note_off_c, 0, 67, 27
2, 55731, Note_on_c, 0, 65, 64
2, 55851, Note_off_c, 0, 65, 40
2, 55851, Note_on_c, 0, 67, 64
2, 55911, Note_off_c, 0, 67, 46
2, 55911, Note_on_c, 0, 68, 64
2, 55971, Note_off_c, 0, 68, 65
2, 55971, Note_off_c, 0, 80, 63
2, 55971, Note_on_c, 0, 79, 64
2, 55971, Note_on_c, 0, 70, 64
2, 56031, Note_off_c, 0, 70, 65
2, 56031, Note_on_c, 0, 68, 64
2, 56091, Note_off_c, 0, 68, 74
2, 56091, Note_on_c, 0, 67, 64
2, 56151, Note_off_c, 0, 67, 43
2, 56151, Note_on_c, 0, 65, 64
2, 56211, Note_off_c, 0, 65, 43
2, 56211, Note_off_c, 0, 79, 70
2, 56211, Note_on_c, 0, 84, 64
2, 56211, Note_on_c, 0, 63, 64
2, 56331, Note_off_c, 0, 63, 47
2, 56331, Note_on_c, 0, 65, 64
2, 56391, Note_off_c, 0, 65, 49
2, 56391, Note_on_c, 0, 67, 64
2, 56451, Note_off_c, 0, 67, 46
2, 56451, Note_on_c, 0, 68, 64
2, 56571, Note_off_c, 0, 68, 69
2, 56571, Note_on_c, 0, 68, 64
2, 56691, Note_off_c, 0, 84, 42
2, 56691, Note_on_c, 0, 82, 64
2, 56751, Note_off_c, 0, 68, 69
2, 56751, Note_on_c, 0, 67, 64
2, 56811, Note_off_c, 0, 67, 44
2, 56811, Note_on_c, 0, 68, 64
2, 56871, Note_off_c, 0, 68, 68
2, 56871, Note_on_c, 0, 70, 64
2, 56931, Note_off_c, 0, 70, 59
2, 56931, Note_on_c, 0, 72, 64
2, 56981, Note_off_c, 0, 82, 58
2, 56994, Note_on_c, 0, 82, 64
2, 57054, Note_off_c, 0, 82, 59
2, 57054, Note_on_c, 0, 80, 64
2, 57114, Note_off_c, 0, 80, 63
2, 57114, Note_on_c, 0, 79, 64
2, 57174, Note_off_c, 0, 79, 50
2, 57174, Note_on_c, 0, 77, 64
2, 57294, Note_off_c, 0, 77, 43
2, 57294, Note_on_c, 0, 79, 64
2, 57354, Note_off_c, 0, 79, 65
2, 57354, Note_on_c, 0, 80, 64
2, 57414, Note_off_c, 0, 80, 59
2, 57414, Note_off_c, 0, 72, 76
2, 57414, Note_on_c, 0, 79, 64
2, 57414, Note_on_c, 0, 70, 64
2, 57474, Note_off_c, 0, 79, 55
2, 57474, Note_on_c, 0, 77, 64
2, 57534, Note_off_c, 0, 77, 55
2, 57534, Note_on_c, 0, 75, 64
2, 57594, Note_off_c, 0, 75, 46
2, 57594, Note_on_c, 0, 74, 64
2, 57654, Note_off_c, 0, 74, 54
2, 57654, Note_off_c, 0, 70, 63
2, 57654, Note_on_c, 0, 75, 64
2, 57774, Note_on_c, 0, 77, 64
2, 57834, Note_off_c, 0, 77, 70
2, 57834, Note_on_c, 0, 79, 64
2, 57894, Note_off_c, 0, 79, 63
2, 57894, Note_on_c, 0, 80, 64
2, 58014, Note_off_c, 0, 80, 72
2, 58014, Note_on_c, 0, 80, 64
2, 58134, Note_off_c, 0, 75, 47
2, 58134, Note_on_c, 0, 74, 64
2, 58194, Note_off_c, 0, 80, 69
2, 58194, Note_on_c, 0, 79, 64
2, 58254, Note_off_c, 0, 79, 58
2, 58254, Note_on_c, 0, 80, 64
2, 58314, Note_off_c, 0, 80, 63
2, 58314, Note_on_c, 0, 82, 64
2, 58374, Note_off_c, 0, 82, 52
2, 58374, Note_off_c, 0, 74, 61
2, 58374, Note_on_c, 0, 80, 64
2, 58374, Note_on_c, 0, 75, 64
2, 58434, Note_off_c, 0, 80, 73
2, 58434, Note_on_c, 0, 79, 64
2, 58494, Note_off_c, 0, 79, 55
2, 58494, Note_on_c, 0, 77, 64
2, 58554, Note_off_c, 0, 77, 53
2, 58554, Note_on_c, 0, 75, 64
2, 58614, Note_off_c, 0, 75, 43
2, 58614, Note_off_c, 0, 75, 52
2, 58614, Note_on_c, 0, 77, 64
2, 58614, Note_on_c, 0, 72, 64
2, 58734, Note_off_c, 0, 77, 59
2, 58734, Note_on_c, 0, 79, 64
2, 58794, Note_off_c, 0, 79, 54
2, 58794, Note_on_c, 0, 80, 64
2, 58854, Note_off_c, 0, 80, 72
2, 58854, Note_off_c, 0, 72, 68
2, 58854, Note_on_c, 0, 82, 64
2, 58914, Note_off_c, 0, 82, 53
2, 58914, Note_on_c, 0, 80, 64
2, 58974, Note_off_c, 0, 80, 69
2, 58974, Note_on_c, 0, 79, 64
2, 59034, Note_off_c, 0, 79, 51
2, 59034, Note_on_c, 0, 77, 64
2, 59094, Note_off_c, 0, 77, 59
2, 59094, Note_on_c, 0, 75, 64
2, 59154, Note_off_c, 0, 75, 48
2, 59154, Note_on_c, 0, 74, 64
2, 59214, Note_off_c, 0, 74, 51
2, 59214, Note_on_c, 0, 72, 64
2, 59274, Note_off_c, 0, 72, 48
2, 59274, Note_on_c, 0, 70, 64
2, 59334, Note_off_c, 0, 70, 70
2, 59334, Note_on_c, 0, 75, 64
2, 59394, Note_on_c, 0, 67, 64
2, 59444, Note_off_c, 0, 75, 55
2, 59457, Note_off_c, 0, 67, 33
2, 59457, Note_on_c, 0, 75, 64
2, 59457, Note_on_c, 0, 68, 64
2, 59517, Note_off_c, 0, 68, 63
2, 59517, Note_on_c, 0, 70, 64
2, 59567, Note_off_c, 0, 75, 49
2, 59580, Note_off_c, 0, 70, 53
2, 59580, Note_on_c, 0, 68, 64
2, 59580, Note_on_c, 0, 75, 64
2, 59640, Note_off_c, 0, 68, 68
2, 59640, Note_on_c, 0, 67, 64
2, 59700, Note_off_c, 0, 67, 42
2, 59700, Note_on_c, 0, 65, 64
2, 59760, Note_off_c, 0, 65, 1
2, 59760, Note_on_c, 0, 63, 64
2, 59820, Note_off_c, 0, 63, 38
2, 59820, Note_off_c, 0, 75, 57
2, 59820, Note_on_c, 0, 65, 64
2, 59880, Note_on_c, 0, 74, 64
2, 59940, Note_off_c, 0, 74, 46
2, 59940, Note_on_c, 0, 75, 64
2, 60000, Note_off_c, 0, 75, 42
2, 60000, Note_on_c, 0, 77, 64
2, 60060, Note_off_c, 0, 77, 57
2, 60060, Note_on_c, 0, 70, 64
2, 60110, Note_off_c, 0, 65, 51
2, 60123, Note_on_c, 0, 65, 64
2, 60183, Note_off_c, 0, 65, 43
2, 60183, Note_on_c, 0, 67, 64
2, 60243, Note_off_c, 0, 67, 46
2, 60243, Note_on_c, 0, 68, 64
2, 60303, Note_off_c, 0, 68, 62
2, 60303, Note_on_c, 0, 67, 64
2, 60363, Note_off_c, 0, 67, 46
2, 60363, Note_on_c, 0, 65, 64
2, 60423, Note_off_c, 0, 65, 44
2, 60423, Note_on_c, 0, 63, 64
2, 60483, Note_off_c, 0, 63, 43
2, 60483, Note_on_c, 0, 61, 64
2, 60543, Note_off_c, 0, 61, 48
2, 60543, Note_on_c, 0, 60, 64
2, 60783, Note_off_c, 0, 70, 55
2, 60783, Note_off_c, 0, 60, 31
2, 60783, Note_on_c, 0, 65, 64
2, 60783, Note_on_c, 0, 68, 64
2, 61263, Note_off_c, 0, 68, 57
2, 61263, Note_off_c, 0, 65, 51
2, 61263, Note_on_c, 0, 63, 64
2, 61263, Note_on_c, 0, 67, 64
2, 61503, Note_off_c, 0, 67, 40
2, 61503, Note_off_c, 0, 63, 38
2, 61503, Note_on_c, 0, 68, 64
2, 61503, Note_on_c, 0, 72, 64
2, 61983, Note_off_c, 0, 72, 70
2, 61983, Note_on_c, 0, 70, 64
2, 62223, Note_off_c, 0, 70, 65
2, 62223, Note_off_c, 0, 68, 65
2, 62223, Note_on_c, 0, 67, 64
2, 62223, Note_on_c, 0, 75, 64
2, 62463, Note_off_c, 0, 67, 40
2, 62463, Note_on_c, 0, 65, 64
2, 62703, Note_off_c, 0, 75, 47
2, 62703, Note_off_c, 0, 65, 42
2, 62703, Note_on_c, 0, 70, 64
2, 62703, Note_on_c, 0, 74, 64
2, 62943, Note_off_c, 0, 74, 63
2, 62943, Note_on_c, 0, 78, 64
2, 63183, Note_off_c, 0, 70, 53
2, 63183, Note_on_c, 0, 69, 64
2, 63423, Note_off_c, 0, 69, 62
2, 63423, Note_off_c, 0, 78, 54
2, 63423, Note_on_c, 0, 74, 64
2, 63423, Note_on_c, 0, 77, 64
2, 63663, Note_off_c, 0, 77, 69
2, 63663, Note_off_c, 0, 74, 59
2, 63663, Note_on_c, 0, 70, 64
2, 63663, Note_on_c, 0, 75, 64
2, 63903, Note_off_c, 0, 70, 65
2, 63903, Note_on_c, 0, 70, 64
2, 64143, Note_off_c, 0, 75, 49
2, 64143, Note_on_c, 0, 74, 64
2, 64263, Note_off_c, 0, 70, 58
2, 64263, Note_on_c, 0, 68, 64
2, 64383, Note_off_c, 0, 68, 65
2, 64383, Note_off_c, 0, 74, 62
2, 64383, Note_on_c, 0, 67, 64
2, 64383, Note_on_c, 0, 75, 64
2, 64443, Note_off_c, 0, 67, 36
2, 64443, Note_on_c, 0, 70, 64
2, 64503, Note_off_c, 0, 70, 59
2, 64503, Note_on_c, 0, 72, 64
2, 64563, Note_off_c, 0, 72, 77
2, 64563, Note_on_c, 0, 73, 64
2, 64623, Note_off_c, 0, 73, 63
2, 64623, Note_on_c, 0, 72, 64
2, 64683, Note_off_c, 0, 72, 70
2, 64683, Note_on_c, 0, 70, 64
2, 64743, Note_off_c, 0, 70, 61
2, 64743, Note_on_c, 0, 68, 64
2, 64803, Note_off_c, 0, 68, 58
2, 64803, Note_on_c, 0, 67, 64
2, 64863, Note_off_c, 0, 67, 23
2, 64863, Note_off_c, 0, 75, 54
2, 64863, Note_on_c, 0, 65, 64
2, 64863, Note_on_c, 0, 74, 64
2, 64983, Note_off_c, 0, 65, 41
2, 64983, Note_on_c, 0, 67, 64
2, 65043, Note_off_c, 0, 67, 41
2, 65043, Note_on_c, 0, 68, 64
2, 65103, Note_off_c, 0, 68, 69
2, 65103, Note_off_c, 0, 74, 65
2, 65103, Note_on_c, 0, 73, 64
2, 65103, Note_on_c, 0, 70, 64
2, 65163, Note_off_c, 0, 70, 53
2, 65163, Note_on_c, 0, 68, 64
2, 65223, Note_off_c, 0, 68, 68
2, 65223, Note_on_c, 0, 67, 64
2, 65283, Note_off_c, 0, 67, 49
2, 65283, Note_on_c, 0, 65, 64
2, 65343, Note_off_c, 0, 65, 47
2, 65343, Note_on_c, 0, 63, 64
2, 65403, Note_off_c, 0, 73, 66
2, 65403, Note_on_c, 0, 70, 64
2, 65463, Note_off_c, 0, 70, 59
2, 65463, Note_on_c, 0, 72, 64
2, 65523, Note_off_c, 0, 72, 65
2, 65523, Note_on_c, 0, 73, 64
2, 65583, Note_off_c, 0, 73, 55
2, 65583, Note_off_c, 0, 63, 48
2, 65583, Note_on_c, 0, 68, 64
2, 65583, Note_on_c, 0, 72, 64
2, 65643, Note_off_c, 0, 72, 68
2, 65643, Note_on_c, 0, 70, 64
2, 65703, Note_off_c, 0, 70, 61
2, 65703, Note_on_c, 0, 72, 64
2, 65763, Note_off_c, 0, 72, 68
2, 65763, Note_on_c, 0, 68, 64
2, 65823, Note_off_c, 0, 68, 58
2, 65823, Note_on_c, 0, 74, 64
2, 65873, Note_off_c, 0, 68, 70
2, 65886, Note_on_c, 0, 68, 64
2, 65946, Note_off_c, 0, 68, 65
2, 65946, Note_on_c, 0, 70, 64
2, 66006, Note_off_c, 0, 70, 59
2, 66006, Note_on_c, 0, 71, 64
2, 66066, Note_off_c, 0, 71, 68
2, 66066, Note_on_c, 0, 70, 64
2, 66126, Note_off_c, 0, 70, 69
2, 66126, Note_on_c, 0, 68, 64
2, 66186, Note_off_c, 0, 68, 69
2, 66186, Note_on_c, 0, 67, 64
2, 66246, Note_off_c, 0, 67, 27
2, 66246, Note_on_c, 0, 68, 64
2, 66276, Note_off_c, 0, 68, 65
2, 66276, Note_on_c, 0, 65, 64
2, 66306, Note_off_c, 0, 65, 46
2, 66306, Note_off_c, 0, 74, 52
2, 66306, Note_on_c, 0, 67, 64
2, 66306, Note_on_c, 0, 75, 64
2, 67266, Note_off_c, 0, 75, 49
2, 67266, Note_off_c, 0, 67, 63
2, 67266, End_track
3, 0, Start_track
3, 0, Text_t, "LH B"
3, 540, Note_on_c, 1, 55, 64
3, 600, Note_off_c, 1, 55, 50
3, 600, Note_on_c, 1, 56, 64
3, 660, Note_off_c, 1, 56, 61
3, 660, Note_on_c, 1, 58, 64
3, 720, Note_off_c, 1, 58, 53
3, 720, Note_on_c, 1, 56, 64
3, 780, Note_off_c, 1, 56, 52
3, 780, Note_on_c, 1, 55, 64
3, 840, Note_off_c, 1, 55, 52
3, 840, Note_on_c, 1, 53, 64
3, 900, Note_off_c, 1, 53, 70
3, 900, Note_on_c, 1, 51, 64
3, 960, Note_off_c, 1, 51, 70
3, 960, Note_on_c, 1, 56, 64
3, 1490, Note_off_c, 1, 56, 74
3, 1503, Note_on_c, 1, 56, 64
3, 1563, Note_off_c, 1, 56, 62
3, 1563, Note_on_c, 1, 58, 64
3, 1623, Note_off_c, 1, 58, 76
3, 1623, Note_on_c, 1, 60, 64
3, 1683, Note_off_c, 1, 60, 66
3, 1683, Note_on_c, 1, 58, 64
3, 1743, Note_off_c, 1, 58, 74
3, 1743, Note_on_c, 1, 56, 64
3, 1803, Note_off_c, 1, 56, 72
3, 1803, Note_on_c, 1, 55, 64
3, 1863, Note_off_c, 1, 55, 72
3, 1863, Note_on_c, 1, 53, 64
3, 1923, Note_off_c, 1, 53, 74
3, 1923, Note_on_c, 1, 62, 64
3, 2453, Note_off_c, 1, 62, 57
3, 2466, Note_on_c, 1, 62, 64
3, 2526, Note_off_c, 1, 62, 52
3, 2526, Note_on_c, 1, 63, 64
3, 2586, Note_off_c, 1, 63, 68
3, 2586, Note_on_c, 1, 65, 64
3, 2646, Note_off_c, 1, 65, 1
3, 2646, Note_on_c, 1, 63, 64
3, 2706, Note_off_c, 1, 63, 66
3, 2706, Note_on_c, 1, 62, 64
3, 2766, Note_off_c, 1, 62, 52
3, 2766, Note_on_c, 1, 60, 64
3, 2826, Note_off_c, 1, 60, 57
3, 2826, Note_on_c, 1, 58, 64
3, 2886, Note_off_c, 1, 58, 69
3, 2886, Note_on_c, 1, 63, 64
3, 3416, Note_off_c, 1, 63, 63
3, 3429, Note_on_c, 1, 63, 64
3, 3489, Note_off_c, 1, 63, 66
3, 3489, Note_on_c, 1, 65, 64
3, 3549, Note_off_c, 1, 65, 1
3, 3549, Note_on_c, 1, 67, 64
3, 3609, Note_off_c, 1, 67, 68
3, 3609, Note_on_c, 1, 65, 64
3, 3669, Note_off_c, 1, 65, 1
3, 3669, Note_on_c, 1, 63, 64
3, 3729, Note_off_c, 1, 63, 68
3, 3729, Note_on_c, 1, 62, 64
3, 3789, Note_off_c, 1, 62, 72
3, 3789, Note_on_c, 1, 60, 64
3, 3849, Note_off_c, 1, 60, 59
3, 3849, Note_on_c, 1, 58, 64
3, 3909, Note_off_c, 1, 58, 63
3, 3909, Note_on_c, 1, 60, 64
3, 3969, Note_off_c, 1, 60, 54
3, 3969, Note_on_c, 1, 62, 64
3, 4029, Note_off_c, 1, 62, 57
3, 4029, Note_on_c, 1, 63, 64
3, 4089, Note_off_c, 1, 63, 65
3, 4089, Note_on_c, 1, 62, 64
3, 4149, Note_off_c, 1, 62, 70
3, 4149, Note_on_c, 1, 60, 64
3, 4209, Note_off_c, 1, 60, 73
3, 4209, Note_on_c, 1, 58, 64
3, 4269, Note_off_c, 1, 58, 74
3, 4269, Note_on_c, 1, 56, 64
3, 4329, Note_off_c, 1, 56, 70
3, 4329, Note_on_c, 1, 55, 64
3, 4389, Note_off_c, 1, 55, 76
3, 4389, Note_on_c, 1, 51, 64
3, 4449, Note_off_c, 1, 51, 69
3, 4449, Note_on_c, 1, 53, 64
3, 4509, Note_off_c, 1, 53, 62
3, 4509, Note_on_c, 1, 55, 64
3, 4569, Note_off_c, 1, 55, 69
3, 4569, Note_on_c, 1, 53, 64
3, 4629, Note_off_c, 1, 53, 52
3, 4629, Note_on_c, 1, 51, 64
3, 4689, Note_off_c, 1, 51, 72
3, 4689, Note_on_c, 1, 50, 64
3, 4749, Note_off_c, 1, 50, 61
3, 4749, Note_on_c, 1, 48, 64
3, 4809, Note_off_c, 1, 48, 48
3, 4809, Note_on_c, 1, 53, 64
3, 4869, Note_off_c, 1, 53, 69
3, 4869, Note_on_c, 1, 48, 64
3, 4929, Note_off_c, 1, 48, 52
3, 4929, Note_on_c, 1, 50, 64
3, 4989, Note_off_c, 1, 50, 65
3, 4989, Note_on_c, 1, 51, 64
3, 5049, Note_off_c, 1, 51, 68
3, 5049, Note_on_c, 1, 50, 64
3, 5109, Note_off_c, 1, 50, 73
3, 5109, Note_on_c, 1, 48, 64
3, 5169, Note_off_c, 1, 48, 57
3, 5169, Note_on_c, 1, 46, 64
3, 5229, Note_off_c, 1, 46, 63
3, 5229, Note_on_c, 1, 45, 64
3, 5289, Note_off_c, 1, 45, 65
3, 5289, Note_on_c, 1, 50, 64
3, 5349, Note_off_c, 1, 50, 70
3, 5349, Note_on_c, 1, 46, 64
3, 5409, Note_off_c, 1, 46, 55
3, 5409, Note_on_c, 1, 48, 64
3, 5469, Note_off_c, 1, 48, 62
3, 5469, Note_on_c, 1, 50, 64
3, 5529, Note_off_c, 1, 50, 68
3, 5529, Note_on_c, 1, 48, 64
3, 5589, Note_off_c, 1, 48, 65
3, 5589, Note_on_c, 1, 46, 64
3, 5649, Note_off_c, 1, 46, 66
3, 5649, Note_on_c, 1, 45, 64
3, 5709, Note_off_c, 1, 45, 69
3, 5709, Note_on_c, 1, 43, 64
3, 5769, Note_off_c, 1, 43, 45
3, 5769, Note_on_c, 1, 48, 64
3, 5829, Note_on_c, 1, 51, 64
3, 5889, Note_off_c, 1, 51, 57
3, 5889, Note_on_c, 1, 53, 64
3, 5949, Note_off_c, 1, 53, 70
3, 5949, Note_on_c, 1, 55, 64
3, 6009, Note_off_c, 1, 55, 74
3, 6009, Note_on_c, 1, 53, 64
3, 6069, Note_off_c, 1, 53, 65
3, 6069, Note_on_c, 1, 51, 64
3, 6129, Note_off_c, 1, 51, 70
3, 6129, Note_on_c, 1, 50, 64
3, 6189, Note_off_c, 1, 50, 65
3, 6189, Note_on_c, 1, 48, 64
3, 6249, Note_off_c, 1, 48, 47
3, 6249, Note_on_c, 1, 57, 64
3, 6729, Note_off_c, 1, 57, 66
3, 6729, Note_off_c, 1, 48, 76
3, 6729, Note_on_c, 1, 46, 64
3, 6729, Note_on_c, 1, 58, 64
3, 7689, Note_off_c, 1, 58, 77
3, 7689, Note_on_c, 1, 57, 64
3, 8649, Note_off_c, 1, 57, 68
3, 8649, Note_off_c, 1, 46, 74
3, 8649, Note_on_c, 1, 58, 64
3, 8889, Note_off_c, 1, 58, 63
3, 8889, Note_on_c, 1, 63, 64
3, 9129, Note_on_c, 1, 53, 64
3, 9369, Note_off_c, 1, 53, 41
3, 9369, Note_off_c, 1, 63, 49
3, 9369, Note_on_c, 1, 62, 64
3, 9369, Note_on_c, 1, 58, 64
3, 9609, Note_off_c, 1, 62, 59
3, 9609, Note_on_c, 1, 60, 64
3, 9849, Note_off_c, 1, 58, 58
3, 9849, Note_on_c, 1, 56, 64
3, 10089, Note_off_c, 1, 56, 50
3, 10089, Note_off_c, 1, 60, 66
3, 10089, Note_on_c, 1, 58, 64
3, 10089, Note_on_c, 1, 55, 64
3, 10329, Note_off_c, 1, 58, 62
3, 10329, Note_on_c, 1, 60, 64
3, 10569, Note_off_c, 1, 60, 66
3, 10569, Note_off_c, 1, 55, 40
3, 10569, Note_on_c, 1, 62, 64
3, 10569, Note_on_c, 1, 53, 64
3, 10809, Note_off_c, 1, 53, 52
3, 10809, Note_off_c, 1, 62, 52
3, 10809, Note_on_c, 1, 63, 64
3, 10809, Note_on_c, 1, 51, 64
3, 11049, Note_off_c, 1, 63, 49
3, 11049, Note_on_c, 1, 61, 64
3, 11289, Note_off_c, 1, 61, 68
3, 11289, Note_off_c, 1, 51, 53
3, 11289, Note_on_c, 1, 60, 64
3, 11289, Note_on_c, 1, 56, 64
3, 11529, Note_off_c, 1, 60, 66
3, 11529, Note_on_c, 1, 58, 64
3, 11769, Note_off_c, 1, 56, 52
3, 11769, Note_on_c, 1, 55, 64
3, 12009, Note_off_c, 1, 55, 65
3, 12009, Note_off_c, 1, 58, 55
3, 12009, Note_on_c, 1, 63, 64
3, 12009, Note_on_c, 1, 60, 64
3, 12489, Note_off_c, 1, 60, 66
3, 12489, Note_off_c, 1, 63, 39
3, 12489, Note_on_c, 1, 65, 64
3, 12489, Note_on_c, 1, 62, 64
3, 12729, Note_off_c, 1, 62, 52
3, 12729, Note_off_c, 1, 65, 1
3, 12729, Note_on_c, 1, 63, 64
3, 12969, Note_on_c, 1, 56, 64
3, 13209, Note_off_c, 1, 63, 48
3, 13209, Note_on_c, 1, 68, 64
3, 13449, Note_off_c, 1, 56, 45
3, 13449, Note_on_c, 1, 58, 64
3, 13689, Note_off_c, 1, 68, 57
3, 13689, Note_on_c, 1, 67, 64
3, 13929, Note_off_c, 1, 67, 39
3, 13929, Note_on_c, 1, 65, 64
3, 14409, Note_off_c, 1, 65, 1
3, 14409, Note_off_c, 1, 58, 59
3, 14409, Note_on_c, 1, 60, 64
3, 14649, Note_on_c, 1, 56, 64
3, 14889, Note_off_c, 1, 56, 58
3, 14889, Note_off_c, 1, 60, 53
3, 14889, Note_on_c, 1, 62, 64
3, 14889, Note_on_c, 1, 55, 64
3, 15129, Note_off_c, 1, 55, 32
3, 15129, Note_off_c, 1, 62, 41
3, 15129, Note_on_c, 1, 63, 64
3, 15129, Note_on_c, 1, 60, 64
3, 15369, Note_off_c, 1, 63, 49
3, 15369, Note_on_c, 1, 65, 64
3, 15489, Note_off_c, 1, 65, 77
3, 15489, Note_on_c, 1, 63, 64
3, 15609, Note_off_c, 1, 63, 52
3, 15609, Note_off_c, 1, 60, 65
3, 15609, Note_on_c, 1, 62, 64
3, 15609, Note_on_c, 1, 58, 64
3, 15849, Note_off_c, 1, 58, 54
3, 15849, Note_off_c, 1, 62, 52
3, 15849, Note_on_c, 1, 63, 64
3, 15849, Note_on_c, 1, 60, 64
3, 16089, Note_off_c, 1, 60, 62
3, 16089, Note_off_c, 1, 63, 52
3, 16089, Note_on_c, 1, 65, 64
3, 16089, Note_on_c, 1, 62, 64
3, 16329, Note_off_c, 1, 62, 46
3, 16329, Note_off_c, 1, 65, 66
3, 16329, Note_on_c, 1, 58, 64
3, 16329, Note_on_c, 1, 55, 64
3, 16689, Note_off_c, 1, 55, 53
3, 16689, Note_on_c, 1, 56, 64
3, 16799, Note_off_c, 1, 58, 68
3, 16812, Note_off_c, 1, 56, 44
3, 16812, Note_on_c, 1, 58, 64
3, 17052, Note_on_c, 1, 46, 64
3, 17292, Note_off_c, 1, 46, 49
3, 17292, Note_on_c, 1, 51, 64
3, 17532, Note_off_c, 1, 58, 65
3, 17532, Note_on_c, 1, 63, 64
3, 17652, Note_off_c, 1, 63, 52
3, 17652, Note_on_c, 1, 62, 64
3, 17772, Note_off_c, 1, 62, 49
3, 17772, Note_on_c, 1, 60, 64
3, 18012, Note_off_c, 1, 60, 42
3, 18012, Note_off_c, 1, 51, 51
3, 18012, Note_on_c, 1, 62, 64
3, 18012, Note_on_c, 1, 50, 64
3, 18132, Note_off_c, 1, 62, 46
3, 18132, Note_on_c, 1, 60, 64
3, 18252, Note_off_c, 1, 60, 53
3, 18252, Note_off_c, 1, 50, 52
3, 18252, Note_on_c, 1, 58, 64
3, 18252, Note_on_c, 1, 55, 64
3, 18372, Note_off_c, 1, 58, 68
3, 18372, Note_on_c, 1, 56, 64
3, 18492, Note_off_c, 1, 56, 58
3, 18492, Note_on_c, 1, 58, 64
3, 18732, Note_off_c, 1, 58, 77
3, 18732, Note_off_c, 1, 55, 61
3, 18732, Note_on_c, 1, 60, 64
3, 18732, Note_on_c, 1, 53, 64
3, 18972, Note_off_c, 1, 60, 63
3, 18972, Note_on_c, 1, 62, 64
3, 19092, Note_off_c, 1, 62, 50
3, 19092, Note_on_c, 1, 63, 64
3, 19212, Note_off_c, 1, 63, 58
3, 19212, Note_on_c, 1, 65, 64
3, 19572, Note_off_c, 1, 65, 57
3, 19572, Note_on_c, 1, 63, 64
3, 19692, Note_off_c, 1, 63, 52
3, 19692, Note_off_c, 1, 53, 55
3, 19692, Note_on_c, 1, 55, 64
3, 19692, Note_on_c, 1, 62, 64
3, 19812, Note_off_c, 1, 62, 65
3, 19812, Note_on_c, 1, 58, 64
3, 19932, Note_off_c, 1, 58, 65
3, 19932, Note_on_c, 1, 63, 64
3, 19992, Note_off_c, 1, 55, 52
3, 19992, Note_on_c, 1, 53, 64
3, 20052, Note_off_c, 1, 53, 58
3, 20052, Note_on_c, 1, 51, 64
3, 20112, Note_off_c, 1, 51, 52
3, 20112, Note_on_c, 1, 50, 64
3, 20172, Note_off_c, 1, 50, 49
3, 20172, Note_on_c, 1, 48, 64
3, 20412, Note_off_c, 1, 63, 63
3, 20412, Note_off_c, 1, 48, 52
3, 20412, Note_on_c, 1, 50, 64
3, 20412, Note_on_c, 1, 58, 64
3, 20652, Note_off_c, 1, 50, 66
3, 20652, Note_on_c, 1, 51, 64
3, 20952, Note_off_c, 1, 51, 47
3, 20952, Note_on_c, 1, 49, 64
3, 21012, Note_off_c, 1, 49, 65
3, 21012, Note_on_c, 1, 48, 64
3, 21072, Note_off_c, 1, 48, 30
3, 21072, Note_on_c, 1, 46, 64
3, 21132, Note_off_c, 1, 46, 49
3, 21132, Note_on_c, 1, 44, 64
3, 21372, Note_off_c, 1, 58, 55
3, 21372, Note_on_c, 1, 56, 64
3, 21492, Note_off_c, 1, 56, 66
3, 21492, Note_on_c, 1, 55, 64
3, 21612, Note_off_c, 1, 55, 52
3, 21612, Note_off_c, 1, 44, 64
3, 21612, Note_on_c, 1, 46, 64
3, 21612, Note_on_c, 1, 53, 64
3, 21852, Note_off_c, 1, 53, 40
3, 21852, Note_on_c, 1, 55, 64
3, 21972, Note_off_c, 1, 55, 54
3, 21972, Note_on_c, 1, 53, 64
3, 22092, Note_off_c, 1, 53, 53
3, 22092, Note_off_c, 1, 46, 64
3, 22092, Note_on_c, 1, 48, 64
3, 22092, Note_on_c, 1, 51, 64
3, 22452, Note_off_c, 1, 51, 64
3, 22452, Note_on_c, 1, 53, 64
3, 22572, Note_off_c, 1, 53, 48
3, 22572, Note_off_c, 1, 48, 62
3, 22572, Note_on_c, 1, 46, 64
3, 22572, Note_on_c, 1, 55, 64
3, 22812, Note_off_c, 1, 55, 59
3, 22812, Note_on_c, 1, 53, 64
3, 22932, Note_off_c, 1, 53, 59
3, 22932, Note_on_c, 1, 51, 64
3, 23052, Note_off_c, 1, 51, 46
3, 23052, Note_on_c, 1, 53, 64
3, 23292, Note_off_c, 1, 53, 54
3, 23292, Note_off_c, 1, 46, 52
3, 23292, Note_on_c, 1, 51, 64
3, 23772, Note_off_c, 1, 51, 51
3, 23772, Note_on_c, 1, 50, 64
3, 24012, Note_off_c, 1, 50, 58
3, 24012, Note_on_c, 1, 55, 64
3, 24492, Note_off_c, 1, 55, 52
3, 24492, Note_on_c, 1, 53, 64
3, 24972, Note_off_c, 1, 53, 61
3, 24972, Note_on_c, 1, 51, 64
3, 25212, Note_on_c, 1, 56, 64
3, 25332, Note_off_c, 1, 51, 69
3, 25332, Note_on_c, 1, 53, 64
3, 25452, Note_off_c, 1, 53, 59
3, 25452, Note_on_c, 1, 55, 64
3, 25572, Note_off_c, 1, 55, 65
3, 25572, Note_on_c, 1, 53, 64
3, 25692, Note_off_c, 1, 53, 49
3, 25692, Note_off_c, 1, 56, 59
3, 25692, Note_on_c, 1, 55, 64
3, 25692, Note_on_c, 1, 51, 64
3, 25812, Note_off_c, 1, 51, 53
3, 25812, Note_on_c, 1, 50, 64
3, 25932, Note_off_c, 1, 50, 57
3, 25932, Note_off_c, 1, 55, 47
3, 25932, Note_on_c, 1, 48, 64
3, 25992, Note_off_c, 1, 48, 41
3, 25992, Note_on_c, 1, 51, 64
3, 26052, Note_off_c, 1, 51, 53
3, 26052, Note_on_c, 1, 53, 64
3, 26112, Note_off_c, 1, 53, 61
3, 26112, Note_on_c, 1, 55, 64
3, 26172, Note_off_c, 1, 55, 69
3, 26172, Note_on_c, 1, 53, 64
3, 26232, Note_off_c, 1, 53, 62
3, 26232, Note_on_c, 1, 51, 64
3, 26292, Note_off_c, 1, 51, 68
3, 26292, Note_on_c, 1, 50, 64
3, 26352, Note_off_c, 1, 50, 54
3, 26352, Note_on_c, 1, 48, 64
3, 26412, Note_off_c, 1, 48, 50
3, 26412, Note_on_c, 1, 51, 64
3, 26472, Note_off_c, 1, 51, 65
3, 26472, Note_on_c, 1, 50, 64
3, 26532, Note_off_c, 1, 50, 55
3, 26532, Note_on_c, 1, 48, 64
3, 26592, Note_off_c, 1, 48, 49
3, 26592, Note_on_c, 1, 46, 64
3, 26652, Note_off_c, 1, 46, 58
3, 26652, Note_on_c, 1, 51, 64
3, 26772, Note_off_c, 1, 51, 61
3, 26772, Note_on_c, 1, 50, 64
3, 26892, Note_off_c, 1, 50, 61
3, 26892, Note_on_c, 1, 48, 64
3, 27182, Note_off_c, 1, 48, 55
3, 27195, Note_on_c, 1, 48, 64
3, 27255, Note_off_c, 1, 48, 47
3, 27255, Note_on_c, 1, 50, 64
3, 27315, Note_off_c, 1, 50, 69
3, 27315, Note_on_c, 1, 51, 64
3, 27375, Note_off_c, 1, 51, 62
3, 27375, Note_on_c, 1, 50, 64
3, 27435, Note_off_c, 1, 50, 68
3, 27435, Note_on_c, 1, 48, 64
3, 27495, Note_off_c, 1, 48, 2
3, 27495, Note_on_c, 1, 46, 64
3, 27555, Note_off_c, 1, 46, 49
3, 27555, Note_on_c, 1, 45, 64
3, 27615, Note_off_c, 1, 45, 64
3, 27615, Note_on_c, 1, 46, 64
3, 27735, Note_off_c, 1, 46, 51
3, 27735, Note_on_c, 1, 58, 64
3, 27845, Note_off_c, 1, 58, 52
3, 27858, Note_on_c, 1, 58, 86
3, 27858, Note_on_c, 1, 51, 64
3, 28098, Note_off_c, 1, 58, 70
3, 28098, Note_on_c, 1, 63, 82
3, 28338, Note_off_c, 1, 51, 65
3, 28398, Note_on_c, 1, 53, 64
3, 28458, Note_off_c, 1, 53, 42
3, 28458, Note_on_c, 1, 55, 64
3, 28518, Note_off_c, 1, 55, 52
3, 28518, Note_on_c, 1, 57, 64
3, 28578, Note_off_c, 1, 57, 52
3, 28578, Note_off_c, 1, 63, 53
3, 28578, Note_on_c, 1, 62, 63
3, 28578, Note_on_c, 1, 58, 64
3, 28638, Note_off_c, 1, 58, 68
3, 28638, Note_on_c, 1, 57, 64
3, 28698, Note_off_c, 1, 57, 57
3, 28698, Note_on_c, 1, 55, 64
3, 28758, Note_off_c, 1, 55, 66
3, 28758, Note_on_c, 1, 53, 64
3, 28818, Note_off_c, 1, 53, 47
3, 28818, Note_on_c, 1, 51, 64
3, 28878, Note_off_c, 1, 51, 59
3, 28878, Note_on_c, 1, 50, 64
3, 28938, Note_off_c, 1, 50, 61
3, 28938, Note_on_c, 1, 48, 64
3, 28998, Note_off_c, 1, 48, 43
3, 28998, Note_on_c, 1, 46, 64
3, 29058, Note_off_c, 1, 46, 46
3, 29058, Note_off_c, 1, 62, 48
3, 29058, Note_on_c, 1, 63, 64
3, 29058, Note_on_c, 1, 51, 64
3, 29178, Note_off_c, 1, 51, 65
3, 29178, Note_off_c, 1, 63, 45
3, 29178, Note_on_c, 1, 62, 64
3, 29178, Note_on_c, 1, 51, 64
3, 29298, Note_off_c, 1, 51, 68
3, 29298, Note_off_c, 1, 62, 52
3, 29298, Note_on_c, 1, 60, 64
3, 29298, Note_on_c, 1, 51, 64
3, 29538, Note_off_c, 1, 51, 63
3, 29538, Note_off_c, 1, 60, 52
3, 29538, Note_on_c, 1, 62, 64
3, 29538, Note_on_c, 1, 50, 64
3, 29778, Note_off_c, 1, 50, 63
3, 29778, Note_on_c, 1, 55, 64
3, 29828, Note_off_c, 1, 62, 54
3, 29841, Note_on_c, 1, 62, 64
3, 29901, Note_off_c, 1, 62, 53
3, 29901, Note_on_c, 1, 63, 64
3, 29961, Note_off_c, 1, 63, 48
3, 29961, Note_on_c, 1, 65, 64
3, 30021, Note_off_c, 1, 65, 1
3, 30021, Note_on_c, 1, 63, 64
3, 30081, Note_off_c, 1, 63, 52
3, 30081, Note_on_c, 1, 62, 64
3, 30141, Note_off_c, 1, 62, 52
3, 30141, Note_on_c, 1, 60, 64
3, 30201, Note_off_c, 1, 60, 49
3, 30201, Note_on_c, 1, 58, 64
3, 30261, Note_off_c, 1, 58, 61
3, 30261, Note_on_c, 1, 60, 64
3, 30311, Note_off_c, 1, 55, 57
3, 30324, Note_on_c, 1, 55, 64
3, 30384, Note_off_c, 1, 55, 37
3, 30384, Note_on_c, 1, 57, 64
3, 30444, Note_off_c, 1, 57, 52
3, 30444, Note_on_c, 1, 58, 64
3, 30504, Note_off_c, 1, 58, 54
3, 30504, Note_on_c, 1, 57, 64
3, 30564, Note_off_c, 1, 57, 58
3, 30564, Note_on_c, 1, 55, 64
3, 30624, Note_off_c, 1, 55, 46
3, 30624, Note_on_c, 1, 53, 64
3, 30684, Note_off_c, 1, 53, 47
3, 30684, Note_on_c, 1, 51, 64
3, 30744, Note_off_c, 1, 51, 58
3, 30744, Note_on_c, 1, 53, 64
3, 31224, Note_off_c, 1, 53, 53
3, 31284, Note_on_c, 1, 54, 64
3, 31344, Note_off_c, 1, 54, 36
3, 31344, Note_on_c, 1, 55, 64
3, 31404, Note_off_c, 1, 55, 49
3, 31404, Note_on_c, 1, 57, 64
3, 31464, Note_off_c, 1, 57, 46
3, 31464, Note_off_c, 1, 60, 68
3, 31464, Note_on_c, 1, 55, 64
3, 31464, Note_on_c, 1, 58, 64
3, 31524, Note_off_c, 1, 55, 55
3, 31524, Note_on_c, 1, 53, 64
3, 31584, Note_off_c, 1, 53, 36
3, 31584, Note_on_c, 1, 51, 64
3, 31644, Note_off_c, 1, 51, 42
3, 31644, Note_on_c, 1, 50, 64
3, 31704, Note_off_c, 1, 50, 33
3, 31704, Note_off_c, 1, 58, 51
3, 31704, Note_on_c, 1, 48, 64
3, 31764, Note_on_c, 1, 55, 64
3, 31824, Note_off_c, 1, 55, 53
3, 31824, Note_on_c, 1, 57, 64
3, 31884, Note_off_c, 1, 57, 57
3, 31884, Note_on_c, 1, 58, 64
3, 31944, Note_off_c, 1, 58, 68
3, 31944, Note_on_c, 1, 57, 64
3, 32004, Note_off_c, 1, 57, 61
3, 32004, Note_on_c, 1, 55, 64
3, 32064, Note_off_c, 1, 55, 52
3, 32064, Note_on_c, 1, 54, 64
3, 32124, Note_off_c, 1, 54, 61
3, 32124, Note_on_c, 1, 52, 64
3, 32184, Note_off_c, 1, 52, 46
3, 32184, Note_off_c, 1, 48, 32
3, 32184, Note_on_c, 1, 50, 64
3, 32184, Note_on_c, 1, 54, 64
3, 32304, Note_off_c, 1, 54, 62
3, 32304, Note_on_c, 1, 55, 64
3, 32544, Note_off_c, 1, 55, 54
3, 32544, Note_on_c, 1, 54, 64
3, 32664, Note_off_c, 1, 54, 53
3, 32664, Note_off_c, 1, 50, 52
3, 32664, Note_on_c, 1, 43, 64
3, 32724, Note_on_c, 1, 55, 64
3, 32784, Note_off_c, 1, 55, 49
3, 32784, Note_on_c, 1, 56, 64
3, 32844, Note_off_c, 1, 56, 65
3, 32844, Note_on_c, 1, 58, 64
3, 32904, Note_off_c, 1, 58, 69
3, 32904, Note_off_c, 1, 43, 64
3, 32904, Note_on_c, 1, 56, 64
3, 32964, Note_off_c, 1, 56, 63
3, 32964, Note_on_c, 1, 55, 64
3, 33024, Note_off_c, 1, 55, 47
3, 33024, Note_on_c, 1, 53, 64
3, 33084, Note_off_c, 1, 53, 40
3, 33084, Note_on_c, 1, 51, 64
3, 33144, Note_off_c, 1, 51, 52
3, 33144, Note_on_c, 1, 58, 64
3, 33204, Note_on_c, 1, 50, 64
3, 33264, Note_off_c, 1, 50, 40
3, 33264, Note_on_c, 1, 51, 64
3, 33324, Note_off_c, 1, 51, 54
3, 33324, Note_on_c, 1, 53, 64
3, 33384, Note_off_c, 1, 53, 65
3, 33384, Note_off_c, 1, 58, 63
3, 33384, Note_on_c, 1, 51, 64
3, 33444, Note_off_c, 1, 51, 65
3, 33444, Note_on_c, 1, 50, 64
3, 33504, Note_off_c, 1, 50, 61
3, 33504, Note_on_c, 1, 48, 64
3, 33564, Note_off_c, 1, 48, 38
3, 33564, Note_on_c, 1, 46, 64
3, 33624, Note_off_c, 1, 46, 61
3, 33624, Note_on_c, 1, 52, 64
3, 33684, Note_on_c, 1, 58, 64
3, 33744, Note_off_c, 1, 58, 57
3, 33744, Note_on_c, 1, 60, 64
3, 33804, Note_off_c, 1, 60, 73
3, 33804, Note_on_c, 1, 61, 64
3, 33864, Note_off_c, 1, 61, 77
3, 33864, Note_off_c, 1, 52, 54
3, 33864, Note_on_c, 1, 53, 64
3, 33864, Note_on_c, 1, 60, 64
3, 33924, Note_off_c, 1, 60, 72
3, 33924, Note_on_c, 1, 58, 64
3, 33984, Note_off_c, 1, 58, 69
3, 33984, Note_on_c, 1, 56, 64
3, 34044, Note_off_c, 1, 56, 59
3, 34044, Note_on_c, 1, 55, 64
3, 34104, Note_off_c, 1, 55, 53
3, 34104, Note_on_c, 1, 56, 64
3, 34224, Note_off_c, 1, 56, 51
3, 34224, Note_on_c, 1, 58, 64
3, 34284, Note_off_c, 1, 58, 65
3, 34284, Note_on_c, 1, 60, 64
3, 34344, Note_off_c, 1, 60, 65
3, 34344, Note_off_c, 1, 53, 63
3, 34344, Note_on_c, 1, 46, 64
3, 34344, Note_on_c, 1, 58, 64
3, 34464, Note_off_c, 1, 58, 63
3, 34464, Note_on_c, 1, 56, 64
3, 34584, Note_off_c, 1, 56, 53
3, 34584, Note_off_c, 1, 46, 53
3, 34584, Note_on_c, 1, 48, 64
3, 34584, Note_on_c, 1, 55, 64
3, 34824, Note_off_c, 1, 55, 52
3, 34824, Note_on_c, 1, 56, 64
3, 35064, Note_off_c, 1, 48, 53
3, 35064, Note_on_c, 1, 49, 64
3, 35354, Note_off_c, 1, 56, 61
3, 35367, Note_on_c, 1, 56, 64
3, 35427, Note_off_c, 1, 56, 65
3, 35427, Note_on_c, 1, 55, 64
3, 35487, Note_off_c, 1, 55, 58
3, 35487, Note_on_c, 1, 53, 64
3, 35547, Note_off_c, 1, 53, 39
3, 35547, Note_off_c, 1, 49, 65
3, 35547, Note_on_c, 1, 48, 64
3, 35547, Note_on_c, 1, 55, 64
3, 36027, Note_off_c, 1, 55, 58
3, 36027, Note_off_c, 1, 48, 62
3, 36027, Note_on_c, 1, 53, 64
3, 36087, Note_on_c, 1, 41, 64
3, 36147, Note_off_c, 1, 41, 47
3, 36147, Note_on_c, 1, 43, 64
3, 36207, Note_off_c, 1, 43, 49
3, 36207, Note_on_c, 1, 44, 64
3, 36267, Note_off_c, 1, 44, 61
3, 36267, Note_off_c, 1, 53, 41
3, 36267, Note_on_c, 1, 43, 64
3, 36327, Note_off_c, 1, 43, 50
3, 36327, Note_on_c, 1, 41, 64
3, 36387, Note_off_c, 1, 41, 40
3, 36387, Note_on_c, 1, 39, 64
3, 36447, Note_off_c, 1, 39, 45
3, 36447, Note_on_c, 1, 38, 64
3, 36507, Note_off_c, 1, 38, 28
3, 36507, Note_on_c, 1, 50, 64
3, 36507, Note_on_c, 1, 43, 64
3, 36747, Note_off_c, 1, 50, 46
3, 36747, Note_on_c, 1, 55, 64
3, 36987, Note_off_c, 1, 43, 40
3, 36987, Note_on_c, 1, 48, 64
3, 37227, Note_off_c, 1, 55, 52
3, 37227, Note_on_c, 1, 51, 64
3, 37467, Note_off_c, 1, 51, 46
3, 37467, Note_off_c, 1, 48, 66
3, 37467, Note_on_c, 1, 56, 64
3, 37467, Note_on_c, 1, 53, 64
3, 37947, Note_off_c, 1, 56, 37
3, 37947, Note_on_c, 1, 55, 64
3, 38187, Note_off_c, 1, 55, 66
3, 38187, Note_off_c, 1, 53, 52
3, 38187, Note_on_c, 1, 60, 64
3, 38187, Note_on_c, 1, 51, 64
3, 38427, Note_off_c, 1, 51, 24
3, 38427, Note_on_c, 1, 56, 64
3, 38547, Note_off_c, 1, 56, 54
3, 38547, Note_on_c, 1, 53, 64
3, 38667, Note_off_c, 1, 53, 43
3, 38667, Note_on_c, 1, 55, 64
3, 38787, Note_off_c, 1, 60, 72
3, 38787, Note_on_c, 1, 59, 64
3, 38907, Note_off_c, 1, 59, 46
3, 38907, Note_off_c, 1, 55, 49
3, 38907, Note_on_c, 1, 60, 64
3, 38967, Note_on_c, 1, 48, 64
3, 39027, Note_off_c, 1, 48, 46
3, 39027, Note_on_c, 1, 49, 64
3, 39087, Note_off_c, 1, 49, 65
3, 39087, Note_on_c, 1, 51, 64
3, 39147, Note_off_c, 1, 51, 61
3, 39147, Note_off_c, 1, 60, 49
3, 39147, Note_on_c, 1, 49, 64
3, 39207, Note_off_c, 1, 49, 66
3, 39207, Note_on_c, 1, 48, 64
3, 39267, Note_off_c, 1, 48, 52
3, 39267, Note_on_c, 1, 46, 64
3, 39327, Note_off_c, 1, 46, 61
3, 39327, Note_on_c, 1, 44, 64
3, 39387, Note_off_c, 1, 44, 62
3, 39387, Note_on_c, 1, 51, 64
3, 39387, Note_on_c, 1, 58, 64
3, 39627, Note_off_c, 1, 58, 45
3, 39627, Note_on_c, 1, 63, 64
3, 39867, Note_off_c, 1, 51, 52
3, 39867, Note_on_c, 1, 56, 64
3, 40107, Note_off_c, 1, 63, 39
3, 40107, Note_on_c, 1, 62, 64
3, 40347, Note_off_c, 1, 62, 32
3, 40347, Note_off_c, 1, 56, 38
3, 40347, Note_on_c, 1, 55, 64
3, 40347, Note_on_c, 1, 63, 64
3, 40407, Note_off_c, 1, 63, 57
3, 40407, Note_on_c, 1, 62, 64
3, 40467, Note_off_c, 1, 62, 55
3, 40467, Note_on_c, 1, 60, 64
3, 40527, Note_off_c, 1, 60, 51
3, 40527, Note_on_c, 1, 58, 64
3, 40587, Note_off_c, 1, 58, 49
3, 40647, Note_off_c, 1, 55, 55
3, 40647, Note_on_c, 1, 53, 64
3, 40707, Note_off_c, 1, 53, 37
3, 40707, Note_on_c, 1, 55, 64
3, 40767, Note_off_c, 1, 55, 30
3, 40767, Note_on_c, 1, 56, 64
3, 40827, Note_off_c, 1, 56, 43
3, 40827, Note_on_c, 1, 58, 64
3, 40827, Note_on_c, 1, 65, 64
3, 40887, Note_off_c, 1, 58, 61
3, 40887, Note_on_c, 1, 56, 64
3, 40947, Note_off_c, 1, 56, 55
3, 40947, Note_on_c, 1, 58, 64
3, 41007, Note_off_c, 1, 58, 68
3, 41007, Note_on_c, 1, 60, 64
3, 41067, Note_off_c, 1, 60, 63
3, 41067, Note_on_c, 1, 58, 64
3, 41127, Note_off_c, 1, 58, 65
3, 41127, Note_on_c, 1, 56, 64
3, 41187, Note_off_c, 1, 56, 61
3, 41187, Note_on_c, 1, 55, 64
3, 41247, Note_off_c, 1, 55, 58
3, 41247, Note_on_c, 1, 53, 64
3, 41307, Note_off_c, 1, 53, 46
3, 41307, Note_off_c, 1, 65, 1
3, 41307, Note_on_c, 1, 52, 64
3, 41367, Note_on_c, 1, 58, 64
3, 41427, Note_off_c, 1, 58, 57
3, 41427, Note_on_c, 1, 60, 64
3, 41487, Note_off_c, 1, 60, 65
3, 41487, Note_on_c, 1, 61, 64
3, 41547, Note_off_c, 1, 61, 61
3, 41547, Note_on_c, 1, 60, 64
3, 41607, Note_off_c, 1, 60, 62
3, 41607, Note_on_c, 1, 58, 64
3, 41667, Note_off_c, 1, 58, 53
3, 41667, Note_on_c, 1, 56, 64
3, 41727, Note_off_c, 1, 56, 42
3, 41727, Note_on_c, 1, 55, 64
3, 41787, Note_off_c, 1, 55, 33
3, 41787, Note_off_c, 1, 52, 52
3, 41787, Note_on_c, 1, 56, 64
3, 41787, Note_on_c, 1, 60, 64
3, 42267, Note_off_c, 1, 60, 62
3, 42267, Note_on_c, 1, 62, 85
3, 42327, Note_off_c, 1, 56, 59
3, 42327, Note_on_c, 1, 53, 64
3, 42387, Note_off_c, 1, 53, 43
3, 42387, Note_on_c, 1, 55, 64
3, 42447, Note_off_c, 1, 55, 65
3, 42447, Note_on_c, 1, 56, 64
3, 42507, Note_off_c, 1, 56, 59
3, 42507, Note_off_c, 1, 62, 46
3, 42507, Note_on_c, 1, 63, 77
3, 42507, Note_on_c, 1, 55, 64
3, 42567, Note_off_c, 1, 55, 57
3, 42567, Note_on_c, 1, 53, 64
3, 42627, Note_off_c, 1, 53, 54
3, 42627, Note_off_c, 1, 63, 45
3, 42627, Note_on_c, 1, 65, 96
3, 42627, Note_on_c, 1, 51, 64
3, 42687, Note_off_c, 1, 51, 61
3, 42687, Note_on_c, 1, 50, 64
3, 42747, Note_off_c, 1, 50, 63
3, 42747, Note_off_c, 1, 65, 1
3, 42747, Note_on_c, 1, 67, 76
3, 42747, Note_on_c, 1, 48, 64
3, 42807, Note_off_c, 1, 48, 46
3, 42807, Note_on_c, 1, 46, 64
3, 42867, Note_off_c, 1, 46, 65
3, 42867, Note_off_c, 1, 67, 53
3, 42867, Note_on_c, 1, 67, 79
3, 42867, Note_on_c, 1, 48, 64
3, 42927, Note_off_c, 1, 48, 50
3, 42927, Note_on_c, 1, 49, 64
3, 42987, Note_off_c, 1, 49, 77
3, 42987, Note_off_c, 1, 67, 62
3, 42987, Note_on_c, 1, 68, 89
3, 42987, Note_on_c, 1, 48, 64
3, 43047, Note_off_c, 1, 48, 51
3, 43047, Note_on_c, 1, 46, 64
3, 43107, Note_off_c, 1, 46, 77
3, 43107, Note_off_c, 1, 68, 83
3, 43107, Note_on_c, 1, 70, 89
3, 43107, Note_on_c, 1, 44, 64
3, 43167, Note_off_c, 1, 44, 63
3, 43167, Note_on_c, 1, 43, 64
3, 43227, Note_off_c, 1, 43, 45
3, 43227, Note_off_c, 1, 70, 80
3, 43227, Note_on_c, 1, 72, 95
3, 43227, Note_on_c, 1, 41, 64
3, 43467, Note_off_c, 1, 41, 27
3, 43467, Note_off_c, 1, 72, 85
3, 43467, Note_on_c, 1, 46, 64
3, 43947, Note_off_c, 1, 46, 61
3, 43947, Note_on_c, 1, 43, 64
3, 44187, Note_off_c, 1, 43, 47
3, 44187, Note_on_c, 1, 51, 64
3, 44187, Note_on_c, 1, 48, 64
3, 44427, Note_off_c, 1, 51, 50
3, 44427, Note_on_c, 1, 56, 64
3, 44667, Note_off_c, 1, 48, 65
3, 44667, Note_on_c, 1, 50, 64
3, 44787, Note_off_c, 1, 50, 74
3, 44787, Note_on_c, 1, 46, 64
3, 44907, Note_off_c, 1, 46, 39
3, 44907, Note_off_c, 1, 56, 36
3, 44907, Note_on_c, 1, 55, 64
3, 44907, Note_on_c, 1, 51, 64
3, 45027, Note_off_c, 1, 51, 61
3, 45027, Note_on_c, 1, 50, 64
3, 45147, Note_off_c, 1, 50, 49
3, 45147, Note_off_c, 1, 55, 47
3, 45147, Note_on_c, 1, 60, 64
3, 45147, Note_on_c, 1, 48, 64
3, 45507, Note_off_c, 1, 48, 37
3, 45507, Note_on_c, 1, 46, 64
3, 45627, Note_off_c, 1, 46, 42
3, 45627, Note_on_c, 1, 45, 64
3, 45687, Note_off_c, 1, 60, 46
3, 45687, Note_on_c, 1, 57, 64
3, 45747, Note_off_c, 1, 57, 51
3, 45747, Note_on_c, 1, 58, 64
3, 45807, Note_off_c, 1, 58, 61
3, 45807, Note_on_c, 1, 60, 64
3, 45867, Note_off_c, 1, 60, 57
3, 45867, Note_off_c, 1, 45, 26
3, 45867, Note_on_c, 1, 46, 64
3, 45867, Note_on_c, 1, 58, 64
3, 45927, Note_off_c, 1, 58, 73
3, 45927, Note_on_c, 1, 56, 64
3, 45987, Note_off_c, 1, 56, 59
3, 45987, Note_on_c, 1, 55, 64
3, 46047, Note_off_c, 1, 55, 57
3, 46047, Note_on_c, 1, 53, 64
3, 46107, Note_off_c, 1, 53, 34
3, 46107, Note_on_c, 1, 54, 64
3, 46167, Note_off_c, 1, 46, 52
3, 46167, Note_on_c, 1, 45, 64
3, 46227, Note_off_c, 1, 45, 37
3, 46227, Note_on_c, 1, 46, 64
3, 46287, Note_off_c, 1, 46, 54
3, 46287, Note_on_c, 1, 48, 64
3, 46347, Note_off_c, 1, 48, 65
3, 46347, Note_off_c, 1, 54, 45
3, 46347, Note_on_c, 1, 53, 64
3, 46347, Note_on_c, 1, 46, 64
3, 46407, Note_off_c, 1, 46, 57
3, 46407, Note_on_c, 1, 45, 64
3, 46467, Note_off_c, 1, 45, 52
3, 46467, Note_on_c, 1, 43, 64
3, 46527, Note_off_c, 1, 43, 36
3, 46527, Note_on_c, 1, 41, 64
3, 46587, Note_off_c, 1, 41, 30
3, 46587, Note_off_c, 1, 53, 43
3, 46587, Note_on_c, 1, 53, 64
3, 46587, Note_on_c, 1, 46, 64
3, 46827, Note_off_c, 1, 46, 50
3, 46827, Note_off_c, 1, 53, 65
3, 46827, Note_on_c, 1, 51, 64
3, 47307, Note_off_c, 1, 51, 54
3, 47307, Note_on_c, 1, 50, 64
3, 47547, Note_off_c, 1, 50, 62
3, 47547, Note_on_c, 1, 58, 64
3, 47607, Note_off_c, 1, 58, 61
3, 47607, Note_on_c, 1, 56, 64
3, 47667, Note_off_c, 1, 56, 61
3, 47667, Note_on_c, 1, 55, 64
3, 47727, Note_off_c, 1, 55, 55
3, 47727, Note_on_c, 1, 53, 64
3, 47787, Note_off_c, 1, 53, 37
3, 47787, Note_on_c, 1, 58, 64
3, 47907, Note_off_c, 1, 58, 66
3, 47907, Note_on_c, 1, 58, 64
3, 47907, Note_on_c, 1, 53, 64
3, 48027, Note_off_c, 1, 53, 51
3, 48027, Note_off_c, 1, 58, 58
3, 48027, Note_on_c, 1, 58, 64
3, 48027, Note_on_c, 1, 52, 64
3, 48087, Note_off_c, 1, 58, 63
3, 48087, Note_on_c, 1, 55, 64
3, 48147, Note_off_c, 1, 55, 39
3, 48147, Note_on_c, 1, 57, 64
3, 48207, Note_off_c, 1, 57, 51
3, 48207, Note_on_c, 1, 58, 64
3, 48267, Note_off_c, 1, 58, 49
3, 48267, Note_off_c, 1, 52, 49
3, 48267, Note_on_c, 1, 57, 64
3, 48267, Note_on_c, 1, 53, 64
3, 48387, Note_off_c, 1, 53, 59
3, 48387, Note_on_c, 1, 51, 64
3, 48507, Note_off_c, 1, 51, 52
3, 48507, Note_on_c, 1, 50, 64
3, 48557, Note_off_c, 1, 57, 53
3, 48570, Note_on_c, 1, 57, 64
3, 48630, Note_off_c, 1, 57, 46
3, 48630, Note_on_c, 1, 59, 64
3, 48690, Note_off_c, 1, 59, 58
3, 48690, Note_on_c, 1, 60, 64
3, 48750, Note_off_c, 1, 60, 52
3, 48750, Note_on_c, 1, 59, 64
3, 49040, Note_off_c, 1, 50, 50
3, 49053, Note_on_c, 1, 50, 64
3, 49113, Note_off_c, 1, 50, 52
3, 49113, Note_off_c, 1, 59, 48
3, 49113, Note_on_c, 1, 51, 64
3, 49173, Note_off_c, 1, 51, 57
3, 49173, Note_on_c, 1, 53, 64
3, 49233, Note_off_c, 1, 53, 55
3, 49233, Note_on_c, 1, 51, 64
3, 49293, Note_off_c, 1, 51, 62
3, 49293, Note_on_c, 1, 50, 64
3, 49353, Note_off_c, 1, 50, 50
3, 49353, Note_on_c, 1, 48, 64
3, 49413, Note_off_c, 1, 48, 42
3, 49413, Note_on_c, 1, 47, 64
3, 49473, Note_off_c, 1, 47, 44
3, 49473, Note_on_c, 1, 48, 64
3, 49533, Note_off_c, 1, 48, 57
3, 49533, Note_on_c, 1, 47, 64
3, 49593, Note_off_c, 1, 47, 46
3, 49593, Note_on_c, 1, 48, 64
3, 49653, Note_off_c, 1, 48, 52
3, 49653, Note_on_c, 1, 50, 64
3, 49713, Note_off_c, 1, 50, 68
3, 49713, Note_on_c, 1, 48, 64
3, 49773, Note_off_c, 1, 48, 52
3, 49773, Note_on_c, 1, 46, 64
3, 49833, Note_off_c, 1, 46, 63
3, 49833, Note_on_c, 1, 44, 64
3, 49893, Note_off_c, 1, 44, 55
3, 49893, Note_on_c, 1, 43, 64
3, 49953, Note_off_c, 1, 43, 37
3, 49953, Note_on_c, 1, 48, 64
3, 49953, Note_on_c, 1, 44, 64
3, 50193, Note_off_c, 1, 48, 37
3, 50193, Note_on_c, 1, 53, 64
3, 50433, Note_off_c, 1, 44, 63
3, 50493, Note_on_c, 1, 43, 64
3, 50553, Note_off_c, 1, 43, 43
3, 50553, Note_on_c, 1, 45, 64
3, 50613, Note_off_c, 1, 45, 52
3, 50613, Note_on_c, 1, 47, 64
3, 50673, Note_off_c, 1, 47, 46
3, 50673, Note_off_c, 1, 53, 55
3, 50673, Note_on_c, 1, 48, 64
3, 50673, Note_on_c, 1, 51, 64
3, 50913, Note_off_c, 1, 51, 52
3, 50913, Note_on_c, 1, 56, 64
3, 50963, Note_off_c, 1, 48, 55
3, 50976, Note_on_c, 1, 48, 64
3, 51036, Note_off_c, 1, 48, 37
3, 51036, Note_on_c, 1, 50, 64
3, 51096, Note_off_c, 1, 50, 45
3, 51096, Note_on_c, 1, 51, 64
3, 51156, Note_off_c, 1, 51, 54
3, 51156, Note_on_c, 1, 53, 64
3, 51266, Note_off_c, 1, 53, 57
3, 51279, Note_on_c, 1, 53, 64
3, 51389, Note_off_c, 1, 53, 59
3, 51402, Note_off_c, 1, 56, 46
3, 51402, Note_on_c, 1, 55, 64
3, 51402, Note_on_c, 1, 53, 64
3, 51642, Note_off_c, 1, 53, 53
3, 51642, Note_on_c, 1, 51, 64
3, 51882, Note_off_c, 1, 51, 63
3, 51882, Note_off_c, 1, 55, 62
3, 51882, Note_on_c, 1, 56, 64
3, 51942, Note_on_c, 1, 60, 64
3, 52002, Note_off_c, 1, 60, 51
3, 52002, Note_on_c, 1, 61, 64
3, 52062, Note_off_c, 1, 61, 59
3, 52062, Note_on_c, 1, 63, 64
3, 52122, Note_off_c, 1, 63, 62
3, 52122, Note_on_c, 1, 61, 64
3, 52182, Note_off_c, 1, 61, 59
3, 52182, Note_on_c, 1, 60, 64
3, 52242, Note_off_c, 1, 60, 54
3, 52242, Note_on_c, 1, 58, 64
3, 52302, Note_off_c, 1, 58, 62
3, 52302, Note_on_c, 1, 56, 64
3, 52362, Note_off_c, 1, 56, 49
3, 52362, Note_off_c, 1, 56, 61
3, 52362, Note_on_c, 1, 55, 64
3, 52422, Note_on_c, 1, 52, 64
3, 52482, Note_off_c, 1, 52, 61
3, 52482, Note_on_c, 1, 53, 64
3, 52542, Note_off_c, 1, 53, 51
3, 52542, Note_on_c, 1, 55, 64
3, 52602, Note_off_c, 1, 55, 66
3, 52602, Note_on_c, 1, 53, 64
3, 52662, Note_off_c, 1, 53, 62
3, 52662, Note_on_c, 1, 52, 64
3, 52722, Note_off_c, 1, 52, 59
3, 52722, Note_on_c, 1, 50, 64
3, 52782, Note_off_c, 1, 50, 63
3, 52782, Note_on_c, 1, 48, 64
3, 52842, Note_off_c, 1, 48, 49
3, 52842, Note_off_c, 1, 55, 42
3, 52842, Note_on_c, 1, 53, 64
3, 53142, Note_on_c, 1, 56, 64
3, 53202, Note_off_c, 1, 56, 57
3, 53202, Note_on_c, 1, 58, 64
3, 53262, Note_off_c, 1, 58, 68
3, 53262, Note_on_c, 1, 60, 64
3, 53322, Note_off_c, 1, 60, 62
3, 53322, Note_on_c, 1, 58, 64
3, 53382, Note_off_c, 1, 58, 65
3, 53382, Note_on_c, 1, 56, 64
3, 53442, Note_off_c, 1, 56, 52
3, 53442, Note_on_c, 1, 55, 64
3, 53502, Note_off_c, 1, 55, 57
3, 53502, Note_on_c, 1, 53, 64
3, 53562, Note_off_c, 1, 53, 42
3, 53562, Note_off_c, 1, 53, 61
3, 53562, Note_on_c, 1, 51, 64
3, 53562, Note_on_c, 1, 55, 64
3, 53622, Note_off_c, 1, 51, 58
3, 53622, Note_on_c, 1, 48, 64
3, 53682, Note_off_c, 1, 48, 16
3, 53682, Note_off_c, 1, 55, 58
3, 53682, Note_on_c, 1, 49, 64
3, 53742, Note_off_c, 1, 49, 66
3, 53742, Note_on_c, 1, 51, 64
3, 53802, Note_off_c, 1, 51, 68
3, 53802, Note_on_c, 1, 49, 64
3, 53862, Note_off_c, 1, 49, 59
3, 53862, Note_on_c, 1, 48, 64
3, 53922, Note_off_c, 1, 48, 46
3, 53922, Note_on_c, 1, 46, 64
3, 53982, Note_off_c, 1, 46, 68
3, 53982, Note_on_c, 1, 44, 64
3, 54042, Note_off_c, 1, 44, 55
3, 54042, Note_on_c, 1, 49, 64
3, 54152, Note_off_c, 1, 49, 68
3, 54165, Note_on_c, 1, 49, 64
3, 54275, Note_off_c, 1, 49, 46
3, 54288, Note_on_c, 1, 49, 64
3, 54528, Note_off_c, 1, 49, 58
3, 54528, Note_on_c, 1, 48, 64
3, 54768, Note_off_c, 1, 48, 57
3, 54768, Note_on_c, 1, 49, 64
3, 55008, Note_off_c, 1, 49, 63
3, 55008, Note_on_c, 1, 51, 64
3, 55068, Note_on_c, 1, 58, 64
3, 55128, Note_off_c, 1, 58, 58
3, 55128, Note_on_c, 1, 60, 64
3, 55188, Note_off_c, 1, 60, 66
3, 55188, Note_on_c, 1, 61, 64
3, 55248, Note_off_c, 1, 61, 65
3, 55248, Note_off_c, 1, 51, 72
3, 55248, Note_on_c, 1, 56, 64
3, 55248, Note_on_c, 1, 60, 64
3, 55488, Note_off_c, 1, 60, 62
3, 55488, Note_off_c, 1, 56, 63
3, 55488, Note_on_c, 1, 53, 64
3, 55728, Note_off_c, 1, 53, 63
3, 55728, Note_on_c, 1, 58, 64
3, 55788, Note_on_c, 1, 62, 64
3, 55848, Note_off_c, 1, 62, 34
3, 55848, Note_off_c, 1, 58, 62
3, 55848, Note_on_c, 1, 63, 64
3, 55908, Note_off_c, 1, 63, 53
3, 55908, Note_on_c, 1, 65, 64
3, 55968, Note_off_c, 1, 65, 1
3, 55968, Note_on_c, 1, 63, 64
3, 56208, Note_off_c, 1, 63, 48
3, 56268, Note_on_c, 1, 60, 64
3, 56328, Note_off_c, 1, 60, 63
3, 56328, Note_on_c, 1, 61, 64
3, 56388, Note_off_c, 1, 61, 63
3, 56388, Note_on_c, 1, 63, 64
3, 56448, Note_off_c, 1, 63, 65
3, 56448, Note_on_c, 1, 61, 64
3, 56508, Note_off_c, 1, 61, 59
3, 56508, Note_on_c, 1, 60, 64
3, 56568, Note_off_c, 1, 60, 59
3, 56568, Note_on_c, 1, 58, 64
3, 56628, Note_off_c, 1, 58, 61
3, 56628, Note_on_c, 1, 56, 64
3, 56688, Note_off_c, 1, 56, 52
3, 56688, Note_on_c, 1, 63, 64
3, 57168, Note_off_c, 1, 63, 63
3, 57168, Note_on_c, 1, 62, 64
3, 57648, Note_off_c, 1, 62, 58
3, 57708, Note_on_c, 1, 60, 64
3, 57768, Note_off_c, 1, 60, 58
3, 57768, Note_on_c, 1, 61, 64
3, 57828, Note_off_c, 1, 61, 69
3, 57828, Note_on_c, 1, 63, 64
3, 57888, Note_off_c, 1, 63, 63
3, 57888, Note_on_c, 1, 61, 64
3, 57948, Note_off_c, 1, 61, 59
3, 57948, Note_on_c, 1, 60, 64
3, 58008, Note_off_c, 1, 60, 66
3, 58008, Note_on_c, 1, 58, 64
3, 58068, Note_off_c, 1, 58, 61
3, 58068, Note_on_c, 1, 56, 64
3, 58128, Note_off_c, 1, 56, 53
3, 58128, Note_on_c, 1, 46, 64
3, 58128, Note_on_c, 1, 58, 64
3, 58368, Note_off_c, 1, 46, 36
3, 58368, Note_on_c, 1, 51, 64
3, 58608, Note_off_c, 1, 58, 72
3, 58608, Note_on_c, 1, 56, 64
3, 58848, Note_off_c, 1, 56, 54
3, 58848, Note_off_c, 1, 51, 54
3, 58848, Note_on_c, 1, 50, 64
3, 58908, Note_on_c, 1, 53, 64
3, 58968, Note_off_c, 1, 53, 46
3, 58968, Note_on_c, 1, 55, 64
3, 59028, Note_off_c, 1, 55, 62
3, 59028, Note_on_c, 1, 56, 64
3, 59088, Note_off_c, 1, 56, 54
3, 59088, Note_off_c, 1, 50, 43
3, 59088, Note_on_c, 1, 55, 64
3, 59088, Note_on_c, 1, 58, 64
3, 59328, Note_off_c, 1, 58, 61
3, 59388, Note_on_c, 1, 58, 64
3, 59448, Note_off_c, 1, 58, 58
3, 59448, Note_on_c, 1, 60, 64
3, 59508, Note_off_c, 1, 60, 69
3, 59508, Note_on_c, 1, 61, 64
3, 59568, Note_off_c, 1, 61, 62
3, 59568, Note_on_c, 1, 60, 64
3, 59628, Note_off_c, 1, 60, 63
3, 59628, Note_on_c, 1, 58, 64
3, 59688, Note_off_c, 1, 58, 66
3, 59688, Note_on_c, 1, 56, 64
3, 59748, Note_off_c, 1, 56, 59
3, 59748, Note_on_c, 1, 55, 64
3, 59808, Note_off_c, 1, 55, 48
3, 59808, Note_off_c, 1, 55, 55
3, 59808, Note_on_c, 1, 56, 64
3, 59868, Note_on_c, 1, 55, 64
3, 59928, Note_off_c, 1, 55, 46
3, 59928, Note_on_c, 1, 53, 64
3, 59988, Note_off_c, 1, 53, 53
3, 59988, Note_on_c, 1, 51, 64
3, 60048, Note_off_c, 1, 51, 54
3, 60048, Note_on_c, 1, 50, 64
3, 60168, Note_off_c, 1, 50, 34
3, 60168, Note_off_c, 1, 56, 54
3, 60168, Note_on_c, 1, 51, 64
3, 60168, Note_on_c, 1, 55, 64
3, 60228, Note_off_c, 1, 55, 52
3, 60228, Note_off_c, 1, 51, 62
3, 60228, Note_on_c, 1, 53, 64
3, 60288, Note_off_c, 1, 53, 41
3, 60288, Note_on_c, 1, 55, 64
3, 60288, Note_on_c, 1, 51, 64
3, 60348, Note_off_c, 1, 51, 63
3, 60348, Note_on_c, 1, 50, 64
3, 60408, Note_off_c, 1, 50, 59
3, 60408, Note_on_c, 1, 48, 64
3, 60468, Note_off_c, 1, 48, 50
3, 60468, Note_on_c, 1, 46, 64
3, 60528, Note_off_c, 1, 46, 43
3, 60528, Note_on_c, 1, 44, 64
3, 60588, Note_off_c, 1, 55, 54
3, 60588, Note_on_c, 1, 51, 64
3, 60648, Note_off_c, 1, 51, 61
3, 60648, Note_on_c, 1, 53, 64
3, 60708, Note_off_c, 1, 53, 68
3, 60708, Note_on_c, 1, 55, 64
3, 60768, Note_off_c, 1, 55, 63
3, 60768, Note_on_c, 1, 53, 64
3, 60828, Note_off_c, 1, 53, 69
3, 60828, Note_on_c, 1, 51, 64
3, 60888, Note_off_c, 1, 51, 68
3, 60888, Note_on_c, 1, 50, 64
3, 60948, Note_off_c, 1, 50, 69
3, 60948, Note_on_c, 1, 48, 64
3, 61008, Note_off_c, 1, 48, 58
3, 61008, Note_off_c, 1, 44, 54
3, 61008, Note_on_c, 1, 38, 64
3, 61008, Note_on_c, 1, 46, 64
3, 61068, Note_off_c, 1, 46, 39
3, 61068, Note_on_c, 1, 56, 64
3, 61088, Note_off_c, 1, 38, 43
3, 61128, Note_off_c, 1, 56, 69
3, 61128, Note_on_c, 1, 58, 64
3, 61188, Note_off_c, 1, 58, 63
3, 61188, Note_on_c, 1, 60, 64
3, 61248, Note_off_c, 1, 60, 65
3, 61248, Note_on_c, 1, 51, 64
3, 61248, Note_on_c, 1, 58, 64
3, 61308, Note_off_c, 1, 58, 68
3, 61308, Note_on_c, 1, 56, 64
3, 61368, Note_off_c, 1, 56, 58
3, 61368, Note_on_c, 1, 55, 64
3, 61428, Note_off_c, 1, 55, 57
3, 61428, Note_on_c, 1, 53, 64
3, 61478, Note_off_c, 1, 51, 66
3, 61491, Note_off_c, 1, 53, 58
3, 61491, Note_on_c, 1, 51, 64
3, 61551, Note_on_c, 1, 48, 64
3, 61611, Note_off_c, 1, 48, 34
3, 61611, Note_on_c, 1, 49, 64
3, 61671, Note_off_c, 1, 49, 70
3, 61671, Note_on_c, 1, 51, 64
3, 61731, Note_off_c, 1, 51, 73
3, 61731, Note_off_c, 1, 51, 61
3, 61731, Note_on_c, 1, 49, 64
3, 61791, Note_off_c, 1, 49, 69
3, 61791, Note_on_c, 1, 48, 64
3, 61851, Note_off_c, 1, 48, 46
3, 61851, Note_on_c, 1, 46, 64
3, 61911, Note_off_c, 1, 46, 68
3, 61911, Note_on_c, 1, 44, 64
3, 61971, Note_off_c, 1, 44, 50
3, 61971, Note_on_c, 1, 51, 64
3, 62031, Note_off_c, 1, 51, 57
3, 62031, Note_on_c, 1, 50, 64
3, 62091, Note_off_c, 1, 50, 73
3, 62091, Note_on_c, 1, 48, 64
3, 62151, Note_off_c, 1, 48, 74
3, 62151, Note_on_c, 1, 46, 64
3, 62211, Note_off_c, 1, 46, 58
3, 62211, Note_on_c, 1, 56, 64
3, 62271, Note_off_c, 1, 56, 63
3, 62271, Note_on_c, 1, 55, 64
3, 62331, Note_off_c, 1, 55, 69
3, 62331, Note_on_c, 1, 53, 64
3, 62391, Note_off_c, 1, 53, 68
3, 62391, Note_on_c, 1, 51, 64
3, 62451, Note_off_c, 1, 51, 70
3, 62451, Note_on_c, 1, 58, 64
3, 62511, Note_on_c, 1, 60, 64
3, 62571, Note_off_c, 1, 60, 59
3, 62571, Note_on_c, 1, 62, 64
3, 62631, Note_off_c, 1, 62, 51
3, 62631, Note_on_c, 1, 63, 64
3, 62691, Note_off_c, 1, 63, 54
3, 62691, Note_on_c, 1, 65, 64
3, 62751, Note_off_c, 1, 65, 1
3, 62751, Note_on_c, 1, 68, 64
3, 62811, Note_off_c, 1, 68, 83
3, 62811, Note_on_c, 1, 67, 64
3, 62871, Note_off_c, 1, 67, 61
3, 62871, Note_on_c, 1, 65, 64
3, 62931, Note_off_c, 1, 65, 1
3, 62931, Note_on_c, 1, 63, 64
3, 62991, Note_off_c, 1, 63, 58
3, 62991, Note_on_c, 1, 65, 64
3, 63051, Note_off_c, 1, 65, 1
3, 63051, Note_on_c, 1, 63, 64
3, 63111, Note_off_c, 1, 63, 68
3, 63111, Note_on_c, 1, 62, 64
3, 63171, Note_off_c, 1, 62, 70
3, 63171, Note_on_c, 1, 60, 64
3, 63231, Note_off_c, 1, 60, 68
3, 63231, Note_on_c, 1, 63, 64
3, 63291, Note_off_c, 1, 63, 63
3, 63291, Note_on_c, 1, 62, 64
3, 63351, Note_off_c, 1, 62, 52
3, 63351, Note_on_c, 1, 60, 64
3, 63411, Note_off_c, 1, 60, 66
3, 63411, Note_off_c, 1, 58, 77
3, 63411, Note_on_c, 1, 68, 64
3, 63411, Note_on_c, 1, 58, 64
3, 63471, Note_off_c, 1, 58, 69
3, 63471, Note_on_c, 1, 53, 64
3, 63531, Note_off_c, 1, 53, 61
3, 63531, Note_on_c, 1, 51, 64
3, 63591, Note_off_c, 1, 51, 58
3, 63591, Note_on_c, 1, 50, 64
3, 63651, Note_off_c, 1, 50, 49
3, 63651, Note_off_c, 1, 68, 70
3, 63651, Note_on_c, 1, 67, 64
3, 63651, Note_on_c, 1, 51, 64
3, 63711, Note_off_c, 1, 51, 59
3, 63711, Note_on_c, 1, 53, 64
3, 63771, Note_off_c, 1, 53, 55
3, 63771, Note_on_c, 1, 55, 64
3, 63831, Note_off_c, 1, 55, 61
3, 63831, Note_on_c, 1, 56, 64
3, 63891, Note_off_c, 1, 56, 51
3, 63891, Note_off_c, 1, 67, 46
3, 63891, Note_on_c, 1, 46, 64
3, 63891, Note_on_c, 1, 65, 64
3, 64371, Note_off_c, 1, 65, 1
3, 64371, Note_off_c, 1, 46, 59
3, 64371, Note_on_c, 1, 51, 64
3, 64611, Note_on_c, 1, 56, 64
3, 65091, Note_off_c, 1, 56, 59
3, 65091, Note_on_c, 1, 55, 64
3, 65331, Note_off_c, 1, 55, 61
3, 65331, Note_on_c, 1, 60, 64
3, 65811, Note_off_c, 1, 60, 59
3, 65811, Note_on_c, 1, 59, 64
3, 66291, Note_off_c, 1, 59, 65
3, 66291, Note_on_c, 1, 58, 64
3, 67251, Note_off_c, 1, 58, 74
3, 67251, Note_off_c, 1, 51, 68
3, 67251, End_track
4, 0, Start_track
4, 0, Text_t, "LH Pedal"
4, 0, Note_on_c, 2, 51, 64
4, 3360, Note_off_c, 2, 51, 74
4, 47520, Note_on_c, 2, 55, 64
4, 47760, Note_off_c, 2, 55, 64
4, 47760, End_track
0, 0, End_of_file
