0, 0, Header, 1, 5, 240
1, 0, Start_track
1, 0, Time_signature, 4, 2, 24, 8
1, 0, Tempo, 909091
1, 23760, Tempo, 923077
1, 24000, Tempo, 1000000
1, 24120, Tempo, 1034483
1, 24240, Tempo, 1071429
1, 24360, Tempo, 1132075
1, 24480, Tempo, 1153846
1, 24720, Tempo, 1200000
1, 24780, Tempo, 1224490
1, 24840, Tempo, 1276596
1, 24900, Tempo, 1363636
1, 24960, Tempo, 1071429
1, 24960, End_track
2, 0, Start_track
2, 0, Text_t, "RH H"
2, 3150, Note_on_c, 0, 64, 42
2, 3180, Note_off_c, 0, 64, 46
2, 3180, Note_on_c, 0, 66, 45
2, 3210, Note_off_c, 0, 66, 66
2, 3210, Note_on_c, 0, 67, 48
2, 3240, Note_off_c, 0, 67, 61
2, 3240, Note_on_c, 0, 66, 50
2, 3270, Note_off_c, 0, 66, 83
2, 3270, Note_on_c, 0, 64, 53
2, 3300, Note_off_c, 0, 64, 55
2, 3300, Note_on_c, 0, 66, 56
2, 3330, Note_off_c, 0, 66, 83
2, 3330, Note_on_c, 0, 62, 59
2, 3360, Note_off_c, 0, 62, 45
2, 3360, Note_on_c, 0, 71, 64
2, 3530, Note_off_c, 0, 71, 72
2, 3543, Note_on_c, 0, 71, 64
2, 3603, Note_off_c, 0, 71, 63
2, 3603, Note_on_c, 0, 69, 64
2, 3783, Note_off_c, 0, 69, 62
2, 3783, Note_on_c, 0, 67, 64
2, 3843, Note_off_c, 0, 67, 40
2, 3843, Note_on_c, 0, 66, 64
2, 4023, Note_off_c, 0, 66, 49
2, 4023, Note_on_c, 0, 68, 64
2, 4083, Note_off_c, 0, 68, 79
2, 4113, Note_on_c, 0, 71, 41
2, 4143, Note_off_c, 0, 71, 61
2, 4143, Note_on_c, 0, 73, 44
2, 4173, Note_off_c, 0, 73, 77
2, 4173, Note_on_c, 0, 74, 47
2, 4203, Note_off_c, 0, 74, 70
2, 4203, Note_on_c, 0, 73, 50
2, 4233, Note_off_c, 0, 73, 79
2, 4233, Note_on_c, 0, 71, 53
2, 4263, Note_off_c, 0, 71, 74
2, 4263, Note_on_c, 0, 73, 56
2, 4293, Note_off_c, 0, 73, 74
2, 4293, Note_on_c, 0, 69, 59
2, 4323, Note_off_c, 0, 69, 77
2, 4323, Note_on_c, 0, 78, 64
2, 4493, Note_off_c, 0, 78, 74
2, 4506, Note_on_c, 0, 78, 64
2, 4566, Note_off_c, 0, 78, 62
2, 4566, Note_on_c, 0, 76, 64
2, 4746, Note_off_c, 0, 76, 40
2, 4746, Note_on_c, 0, 74, 64
2, 4806, Note_off_c, 0, 74, 54
2, 4806, Note_on_c, 0, 73, 64
2, 4956, Note_off_c, 0, 73, 76
2, 4956, Note_on_c, 0, 76, 64
2, 4986, Note_off_c, 0, 76, 51
2, 4986, Note_on_c, 0, 78, 64
2, 5016, Note_off_c, 0, 78, 53
2, 5016, Note_on_c, 0, 79, 64
2, 5046, Note_off_c, 0, 79, 66
2, 5046, Note_on_c, 0, 81, 64
2, 5216, Note_off_c, 0, 81, 69
2, 5229, Note_on_c, 0, 81, 64
2, 5279, Note_off_c, 0, 81, 52
2, 5292, Note_on_c, 0, 81, 64
2, 5442, Note_off_c, 0, 81, 72
2, 5442, Note_on_c, 0, 74, 64
2, 5472, Note_off_c, 0, 74, 72
2, 5472, Note_on_c, 0, 76, 64
2, 5502, Note_off_c, 0, 76, 48
2, 5502, Note_on_c, 0, 78, 64
2, 5532, Note_off_c, 0, 78, 77
2, 5532, Note_on_c, 0, 79, 64
2, 5702, Note_off_c, 0, 79, 65
2, 5715, Note_on_c, 0, 79, 64
2, 5765, Note_off_c, 0, 79, 61
2, 5778, Note_on_c, 0, 79, 64
2, 6018, Note_off_c, 0, 79, 69
2, 6018, Note_on_c, 0, 78, 64
2, 6198, Note_off_c, 0, 78, 59
2, 6198, Note_on_c, 0, 76, 64
2, 6258, Note_off_c, 0, 76, 54
2, 6258, Note_on_c, 0, 74, 64
2, 6438, Note_off_c, 0, 74, 51
2, 6438, Note_on_c, 0, 76, 64
2, 6498, Note_off_c, 0, 76, 31
2, 6498, Note_on_c, 0, 73, 64
2, 6668, Note_off_c, 0, 73, 74
2, 6681, Note_on_c, 0, 73, 64
2, 6731, Note_off_c, 0, 73, 70
2, 6744, Note_on_c, 0, 73, 64
2, 6974, Note_off_c, 0, 73, 73
2, 7014, Note_on_c, 0, 73, 42
2, 7044, Note_off_c, 0, 73, 57
2, 7044, Note_on_c, 0, 74, 44
2, 7074, Note_off_c, 0, 74, 74
2, 7074, Note_on_c, 0, 76, 47
2, 7104, Note_off_c, 0, 76, 63
2, 7104, Note_on_c, 0, 74, 50
2, 7134, Note_off_c, 0, 74, 76
2, 7134, Note_on_c, 0, 73, 53
2, 7164, Note_off_c, 0, 73, 74
2, 7164, Note_on_c, 0, 74, 56
2, 7194, Note_off_c, 0, 74, 68
2, 7194, Note_on_c, 0, 71, 58
2, 7224, Note_off_c, 0, 71, 72
2, 7224, Note_on_c, 0, 79, 64
2, 7394, Note_off_c, 0, 79, 70
2, 7407, Note_on_c, 0, 79, 64
2, 7467, Note_off_c, 0, 79, 49
2, 7467, Note_on_c, 0, 78, 64
2, 7647, Note_off_c, 0, 78, 57
2, 7647, Note_on_c, 0, 76, 64
2, 7707, Note_off_c, 0, 76, 50
2, 7707, Note_on_c, 0, 74, 64
2, 7947, Note_off_c, 0, 74, 61
2, 7947, Note_on_c, 0, 83, 64
2, 8007, Note_off_c, 0, 83, 45
2, 8007, Note_on_c, 0, 81, 64
2, 8067, Note_off_c, 0, 81, 55
2, 8067, Note_on_c, 0, 83, 64
2, 8127, Note_off_c, 0, 83, 68
2, 8127, Note_on_c, 0, 80, 64
2, 8177, Note_off_c, 0, 80, 74
2, 8190, Note_on_c, 0, 80, 64
2, 8250, Note_off_c, 0, 80, 68
2, 8250, Note_on_c, 0, 78, 64
2, 8310, Note_off_c, 0, 78, 68
2, 8310, Note_on_c, 0, 80, 64
2, 8370, Note_off_c, 0, 80, 51
2, 8370, Note_on_c, 0, 76, 64
2, 8420, Note_off_c, 0, 76, 61
2, 8433, Note_on_c, 0, 76, 64
2, 8493, Note_off_c, 0, 76, 52
2, 8493, Note_on_c, 0, 74, 64
2, 8553, Note_off_c, 0, 74, 65
2, 8553, Note_on_c, 0, 76, 64
2, 8613, Note_off_c, 0, 76, 33
2, 8613, Note_on_c, 0, 73, 64
2, 8663, Note_off_c, 0, 73, 79
2, 8676, Note_on_c, 0, 74, 64
2, 8696, Note_off_c, 0, 74, 64
2, 8696, Note_on_c, 0, 73, 64
2, 8916, Note_off_c, 0, 73, 73
2, 8916, Note_on_c, 0, 81, 64
2, 8976, Note_off_c, 0, 81, 51
2, 8976, Note_on_c, 0, 79, 64
2, 9036, Note_off_c, 0, 79, 52
2, 9036, Note_on_c, 0, 81, 64
2, 9096, Note_off_c, 0, 81, 53
2, 9096, Note_on_c, 0, 78, 64
2, 9146, Note_off_c, 0, 78, 70
2, 9159, Note_on_c, 0, 78, 64
2, 9219, Note_off_c, 0, 78, 50
2, 9219, Note_on_c, 0, 76, 64
2, 9279, Note_off_c, 0, 76, 51
2, 9279, Note_on_c, 0, 78, 64
2, 9339, Note_off_c, 0, 78, 50
2, 9339, Note_on_c, 0, 74, 64
2, 9389, Note_off_c, 0, 74, 72
2, 9402, Note_on_c, 0, 74, 64
2, 9462, Note_off_c, 0, 74, 53
2, 9462, Note_on_c, 0, 72, 64
2, 9522, Note_off_c, 0, 72, 70
2, 9522, Note_on_c, 0, 74, 64
2, 9582, Note_off_c, 0, 74, 45
2, 9582, Note_on_c, 0, 71, 64
2, 9632, Note_off_c, 0, 71, 72
2, 9645, Note_on_c, 0, 71, 64
2, 9866, Note_off_c, 0, 71, 72
2, 9885, Note_on_c, 0, 69, 72
2, 9915, Note_off_c, 0, 69, 76
2, 9915, Note_on_c, 0, 71, 41
2, 9945, Note_off_c, 0, 71, 72
2, 9945, Note_on_c, 0, 72, 44
2, 9975, Note_off_c, 0, 72, 85
2, 9975, Note_on_c, 0, 74, 47
2, 10005, Note_off_c, 0, 74, 74
2, 10005, Note_on_c, 0, 72, 50
2, 10035, Note_off_c, 0, 72, 83
2, 10035, Note_on_c, 0, 71, 53
2, 10065, Note_off_c, 0, 71, 73
2, 10065, Note_on_c, 0, 72, 56
2, 10095, Note_off_c, 0, 72, 82
2, 10095, Note_on_c, 0, 69, 59
2, 10125, Note_off_c, 0, 69, 66
2, 10125, Note_on_c, 0, 76, 64
2, 10295, Note_off_c, 0, 76, 63
2, 10308, Note_on_c, 0, 76, 64
2, 10368, Note_off_c, 0, 76, 45
2, 10368, Note_on_c, 0, 74, 64
2, 10548, Note_off_c, 0, 74, 62
2, 10548, Note_on_c, 0, 72, 64
2, 10608, Note_off_c, 0, 72, 68
2, 10608, Note_on_c, 0, 71, 64
2, 10788, Note_off_c, 0, 71, 76
2, 10788, Note_on_c, 0, 73, 64
2, 10848, Note_off_c, 0, 73, 70
2, 10848, Note_on_c, 0, 74, 64
2, 11328, Note_off_c, 0, 74, 65
2, 11328, Note_on_c, 0, 73, 64
2, 11568, Note_off_c, 0, 73, 59
2, 11568, Note_on_c, 0, 74, 64
2, 11798, Note_off_c, 0, 74, 74
2, 11838, Note_on_c, 0, 76, 41
2, 11868, Note_off_c, 0, 76, 20
2, 11868, Note_on_c, 0, 78, 44
2, 11898, Note_off_c, 0, 78, 73
2, 11898, Note_on_c, 0, 79, 47
2, 11928, Note_off_c, 0, 79, 54
2, 11928, Note_on_c, 0, 78, 50
2, 11958, Note_off_c, 0, 78, 68
2, 11958, Note_on_c, 0, 76, 53
2, 11988, Note_off_c, 0, 76, 41
2, 11988, Note_on_c, 0, 78, 56
2, 12018, Note_off_c, 0, 78, 69
2, 12018, Note_on_c, 0, 74, 59
2, 12048, Note_off_c, 0, 74, 66
2, 12048, Note_on_c, 0, 83, 64
2, 12218, Note_off_c, 0, 83, 53
2, 12231, Note_on_c, 0, 83, 64
2, 12291, Note_off_c, 0, 83, 62
2, 12291, Note_on_c, 0, 81, 64
2, 12471, Note_off_c, 0, 81, 62
2, 12471, Note_on_c, 0, 79, 64
2, 12531, Note_off_c, 0, 79, 39
2, 12531, Note_on_c, 0, 78, 64
2, 12681, Note_off_c, 0, 78, 63
2, 12681, Note_on_c, 0, 74, 64
2, 12711, Note_off_c, 0, 74, 63
2, 12711, Note_on_c, 0, 76, 64
2, 12741, Note_off_c, 0, 76, 27
2, 12741, Note_on_c, 0, 78, 64
2, 12771, Note_off_c, 0, 78, 74
2, 12771, Note_on_c, 0, 79, 64
2, 12941, Note_off_c, 0, 79, 69
2, 12954, Note_on_c, 0, 79, 64
2, 13004, Note_off_c, 0, 79, 69
2, 13017, Note_on_c, 0, 79, 64
2, 13197, Note_off_c, 0, 79, 68
2, 13197, Note_on_c, 0, 81, 64
2, 13257, Note_off_c, 0, 81, 61
2, 13257, Note_on_c, 0, 78, 64
2, 13427, Note_off_c, 0, 78, 77
2, 13440, Note_on_c, 0, 78, 64
2, 13490, Note_off_c, 0, 78, 68
2, 13503, Note_on_c, 0, 78, 72
2, 13523, Note_on_c, 0, 76, 56
2, 13526, Note_off_c, 0, 78, 64
2, 13543, Note_on_c, 0, 78, 64
2, 13546, Note_off_c, 0, 76, 64
2, 13683, Note_off_c, 0, 78, 63
2, 13683, Note_on_c, 0, 76, 64
2, 13713, Note_off_c, 0, 76, 63
2, 13713, Note_on_c, 0, 75, 64
2, 13743, Note_off_c, 0, 75, 65
2, 13743, Note_on_c, 0, 76, 64
2, 14163, Note_off_c, 0, 76, 61
2, 14163, Note_on_c, 0, 74, 64
2, 14223, Note_off_c, 0, 74, 72
2, 14223, Note_on_c, 0, 76, 64
2, 14403, Note_off_c, 0, 76, 57
2, 14403, Note_on_c, 0, 78, 64
2, 14463, Note_off_c, 0, 78, 66
2, 14463, Note_on_c, 0, 71, 64
2, 14643, Note_off_c, 0, 71, 69
2, 14643, Note_on_c, 0, 72, 64
2, 14673, Note_off_c, 0, 72, 73
2, 14673, Note_on_c, 0, 69, 64
2, 14703, Note_off_c, 0, 69, 63
2, 14703, Note_on_c, 0, 71, 64
2, 14883, Note_off_c, 0, 71, 70
2, 14883, Note_on_c, 0, 72, 64
2, 14943, Note_off_c, 0, 72, 62
2, 14943, Note_on_c, 0, 67, 64
2, 15173, Note_off_c, 0, 67, 52
2, 15186, Note_on_c, 0, 67, 72
2, 15206, Note_on_c, 0, 66, 41
2, 15209, Note_off_c, 0, 67, 38
2, 15226, Note_on_c, 0, 67, 42
2, 15229, Note_off_c, 0, 66, 50
2, 15246, Note_on_c, 0, 66, 44
2, 15249, Note_off_c, 0, 67, 26
2, 15266, Note_on_c, 0, 67, 46
2, 15269, Note_off_c, 0, 66, 52
2, 15286, Note_on_c, 0, 66, 48
2, 15289, Note_off_c, 0, 67, 35
2, 15306, Note_on_c, 0, 67, 50
2, 15309, Note_off_c, 0, 66, 1
2, 15326, Note_on_c, 0, 66, 52
2, 15329, Note_off_c, 0, 67, 43
2, 15346, Note_on_c, 0, 67, 53
2, 15349, Note_off_c, 0, 66, 30
2, 15366, Note_on_c, 0, 66, 55
2, 15369, Note_off_c, 0, 67, 37
2, 15386, Note_on_c, 0, 64, 64
2, 15389, Note_off_c, 0, 66, 50
2, 15406, Note_on_c, 0, 66, 59
2, 15409, Note_off_c, 0, 64, 28
2, 15426, Note_off_c, 0, 66, 50
2, 15456, Note_on_c, 0, 66, 64
2, 15486, Note_off_c, 0, 66, 59
2, 15486, Note_on_c, 0, 67, 42
2, 15516, Note_off_c, 0, 67, 58
2, 15516, Note_on_c, 0, 69, 45
2, 15546, Note_off_c, 0, 69, 57
2, 15546, Note_on_c, 0, 67, 49
2, 15576, Note_off_c, 0, 67, 50
2, 15576, Note_on_c, 0, 66, 52
2, 15606, Note_off_c, 0, 66, 66
2, 15606, Note_on_c, 0, 67, 55
2, 15636, Note_off_c, 0, 67, 52
2, 15636, Note_on_c, 0, 64, 59
2, 15666, Note_off_c, 0, 64, 43
2, 15666, Note_on_c, 0, 79, 64
2, 15786, Note_off_c, 0, 79, 68
2, 16386, Note_on_c, 0, 69, 72
2, 16416, Note_off_c, 0, 69, 43
2, 16416, Note_on_c, 0, 71, 41
2, 16446, Note_off_c, 0, 71, 68
2, 16446, Note_on_c, 0, 73, 44
2, 16476, Note_off_c, 0, 73, 73
2, 16476, Note_on_c, 0, 74, 47
2, 16506, Note_off_c, 0, 74, 63
2, 16506, Note_on_c, 0, 73, 50
2, 16536, Note_off_c, 0, 73, 76
2, 16536, Note_on_c, 0, 71, 53
2, 16566, Note_off_c, 0, 71, 73
2, 16566, Note_on_c, 0, 73, 56
2, 16596, Note_off_c, 0, 73, 70
2, 16596, Note_on_c, 0, 69, 59
2, 16626, Note_off_c, 0, 69, 61
2, 16626, Note_on_c, 0, 78, 64
2, 16746, Note_off_c, 0, 78, 70
2, 17346, Note_on_c, 0, 67, 72
2, 17376, Note_off_c, 0, 67, 11
2, 17376, Note_on_c, 0, 69, 42
2, 17406, Note_off_c, 0, 69, 70
2, 17406, Note_on_c, 0, 71, 44
2, 17436, Note_off_c, 0, 71, 76
2, 17436, Note_on_c, 0, 72, 47
2, 17466, Note_off_c, 0, 72, 82
2, 17466, Note_on_c, 0, 71, 50
2, 17496, Note_off_c, 0, 71, 72
2, 17496, Note_on_c, 0, 69, 53
2, 17526, Note_off_c, 0, 69, 54
2, 17526, Note_on_c, 0, 71, 56
2, 17556, Note_off_c, 0, 71, 73
2, 17556, Note_on_c, 0, 67, 59
2, 17586, Note_off_c, 0, 67, 38
2, 17586, Note_on_c, 0, 76, 64
2, 17706, Note_off_c, 0, 76, 61
2, 18306, Note_on_c, 0, 66, 72
2, 18336, Note_off_c, 0, 66, 61
2, 18336, Note_on_c, 0, 67, 41
2, 18366, Note_off_c, 0, 67, 49
2, 18366, Note_on_c, 0, 69, 44
2, 18396, Note_off_c, 0, 69, 68
2, 18396, Note_on_c, 0, 71, 47
2, 18426, Note_off_c, 0, 71, 68
2, 18426, Note_on_c, 0, 69, 50
2, 18456, Note_off_c, 0, 69, 55
2, 18456, Note_on_c, 0, 67, 53
2, 18486, Note_off_c, 0, 67, 47
2, 18486, Note_on_c, 0, 69, 56
2, 18516, Note_off_c, 0, 69, 66
2, 18516, Note_on_c, 0, 66, 59
2, 18546, Note_off_c, 0, 66, 73
2, 18546, Note_on_c, 0, 74, 64
2, 18716, Note_off_c, 0, 74, 72
2, 18729, Note_on_c, 0, 74, 64
2, 18779, Note_off_c, 0, 74, 62
2, 18792, Note_on_c, 0, 74, 64
2, 18972, Note_off_c, 0, 74, 70
2, 18972, Note_on_c, 0, 76, 64
2, 19032, Note_off_c, 0, 76, 52
2, 19032, Note_on_c, 0, 74, 72
2, 19052, Note_on_c, 0, 73, 43
2, 19055, Note_off_c, 0, 74, 57
2, 19072, Note_on_c, 0, 74, 48
2, 19075, Note_off_c, 0, 73, 57
2, 19092, Note_on_c, 0, 73, 53
2, 19095, Note_off_c, 0, 74, 58
2, 19112, Note_on_c, 0, 74, 58
2, 19115, Note_off_c, 0, 73, 58
2, 19132, Note_on_c, 0, 73, 64
2, 19135, Note_off_c, 0, 74, 76
2, 19212, Note_off_c, 0, 73, 74
2, 19212, Note_on_c, 0, 74, 64
2, 19242, Note_off_c, 0, 74, 74
2, 19242, Note_on_c, 0, 76, 64
2, 19272, Note_off_c, 0, 76, 66
2, 19272, Note_on_c, 0, 78, 64
2, 19512, Note_off_c, 0, 78, 48
2, 19512, Note_on_c, 0, 83, 64
2, 19572, Note_off_c, 0, 83, 57
2, 19572, Note_on_c, 0, 81, 64
2, 19632, Note_off_c, 0, 81, 46
2, 19632, Note_on_c, 0, 83, 64
2, 19692, Note_off_c, 0, 83, 51
2, 19692, Note_on_c, 0, 79, 64
2, 19742, Note_off_c, 0, 79, 52
2, 19755, Note_on_c, 0, 79, 64
2, 19815, Note_off_c, 0, 79, 48
2, 19815, Note_on_c, 0, 78, 64
2, 19875, Note_off_c, 0, 78, 53
2, 19875, Note_on_c, 0, 79, 64
2, 19935, Note_off_c, 0, 79, 46
2, 19935, Note_on_c, 0, 76, 64
2, 19985, Note_off_c, 0, 76, 53
2, 19998, Note_on_c, 0, 76, 64
2, 20058, Note_off_c, 0, 76, 45
2, 20058, Note_on_c, 0, 74, 64
2, 20118, Note_off_c, 0, 74, 57
2, 20118, Note_on_c, 0, 76, 64
2, 20178, Note_off_c, 0, 76, 40
2, 20178, Note_on_c, 0, 73, 64
2, 20228, Note_off_c, 0, 73, 69
2, 20241, Note_on_c, 0, 73, 64
2, 20481, Note_off_c, 0, 73, 76
2, 20481, Note_on_c, 0, 74, 64
2, 20651, Note_off_c, 0, 74, 69
2, 20664, Note_on_c, 0, 74, 64
2, 20714, Note_off_c, 0, 74, 53
2, 20727, Note_on_c, 0, 74, 64
2, 20907, Note_off_c, 0, 74, 55
2, 20907, Note_on_c, 0, 76, 64
2, 20967, Note_off_c, 0, 76, 43
2, 20967, Note_on_c, 0, 71, 72
2, 20987, Note_on_c, 0, 73, 41
2, 20990, Note_off_c, 0, 71, 52
2, 21007, Note_on_c, 0, 74, 44
2, 21010, Note_off_c, 0, 73, 66
2, 21027, Note_on_c, 0, 73, 46
2, 21030, Note_off_c, 0, 74, 58
2, 21047, Note_on_c, 0, 74, 49
2, 21050, Note_off_c, 0, 73, 65
2, 21067, Note_on_c, 0, 73, 52
2, 21070, Note_off_c, 0, 74, 53
2, 21087, Note_on_c, 0, 74, 55
2, 21090, Note_off_c, 0, 73, 62
2, 21107, Note_on_c, 0, 73, 58
2, 21110, Note_off_c, 0, 74, 54
2, 21130, Note_off_c, 0, 73, 54
2, 21151, Note_on_c, 0, 74, 64
2, 21201, Note_off_c, 0, 74, 93
2, 21207, Note_on_c, 0, 74, 64
2, 21437, Note_off_c, 0, 74, 65
2, 21450, Note_on_c, 0, 71, 72
2, 21480, Note_off_c, 0, 71, 69
2, 21480, Note_on_c, 0, 73, 41
2, 21510, Note_off_c, 0, 73, 49
2, 21510, Note_on_c, 0, 74, 44
2, 21540, Note_off_c, 0, 74, 76
2, 21540, Note_on_c, 0, 76, 47
2, 21570, Note_off_c, 0, 76, 49
2, 21570, Note_on_c, 0, 74, 50
2, 21600, Note_off_c, 0, 74, 70
2, 21600, Note_on_c, 0, 73, 53
2, 21630, Note_off_c, 0, 73, 72
2, 21630, Note_on_c, 0, 74, 56
2, 21660, Note_off_c, 0, 74, 58
2, 21660, Note_on_c, 0, 71, 59
2, 21690, Note_off_c, 0, 71, 82
2, 21690, Note_on_c, 0, 76, 64
2, 21930, Note_off_c, 0, 76, 53
2, 21930, Note_on_c, 0, 69, 72
2, 21960, Note_off_c, 0, 69, 79
2, 21960, Note_on_c, 0, 71, 41
2, 21990, Note_off_c, 0, 71, 72
2, 21990, Note_on_c, 0, 73, 44
2, 22020, Note_off_c, 0, 73, 80
2, 22020, Note_on_c, 0, 74, 47
2, 22050, Note_off_c, 0, 74, 58
2, 22050, Note_on_c, 0, 73, 50
2, 22080, Note_off_c, 0, 73, 74
2, 22080, Note_on_c, 0, 71, 53
2, 22110, Note_off_c, 0, 71, 68
2, 22110, Note_on_c, 0, 73, 56
2, 22140, Note_off_c, 0, 73, 66
2, 22140, Note_on_c, 0, 69, 59
2, 22170, Note_off_c, 0, 69, 57
2, 22170, Note_on_c, 0, 74, 64
2, 22410, Note_off_c, 0, 74, 70
2, 22410, Note_on_c, 0, 67, 72
2, 22440, Note_off_c, 0, 67, 33
2, 22440, Note_on_c, 0, 69, 41
2, 22470, Note_off_c, 0, 69, 53
2, 22470, Note_on_c, 0, 71, 44
2, 22500, Note_off_c, 0, 71, 61
2, 22500, Note_on_c, 0, 72, 47
2, 22530, Note_off_c, 0, 72, 62
2, 22530, Note_on_c, 0, 71, 50
2, 22560, Note_off_c, 0, 71, 62
2, 22560, Note_on_c, 0, 69, 53
2, 22590, Note_off_c, 0, 69, 53
2, 22590, Note_on_c, 0, 71, 56
2, 22620, Note_off_c, 0, 71, 72
2, 22620, Note_on_c, 0, 67, 59
2, 22650, Note_off_c, 0, 67, 36
2, 22650, Note_on_c, 0, 73, 70
2, 22680, Note_off_c, 0, 73, 13
2, 22680, Note_on_c, 0, 74, 41
2, 22710, Note_off_c, 0, 74, 43
2, 22710, Note_on_c, 0, 76, 44
2, 22740, Note_off_c, 0, 76, 35
2, 22740, Note_on_c, 0, 78, 47
2, 22770, Note_off_c, 0, 78, 47
2, 22770, Note_on_c, 0, 76, 50
2, 22800, Note_off_c, 0, 76, 38
2, 22800, Note_on_c, 0, 74, 53
2, 22830, Note_off_c, 0, 74, 59
2, 22830, Note_on_c, 0, 76, 56
2, 22860, Note_off_c, 0, 76, 39
2, 22860, Note_on_c, 0, 73, 59
2, 22890, Note_off_c, 0, 73, 79
2, 22890, Note_on_c, 0, 78, 70
2, 22920, Note_off_c, 0, 78, 48
2, 22920, Note_on_c, 0, 79, 41
2, 22950, Note_off_c, 0, 79, 45
2, 22950, Note_on_c, 0, 81, 44
2, 22980, Note_off_c, 0, 81, 38
2, 22980, Note_on_c, 0, 83, 47
2, 23010, Note_off_c, 0, 83, 48
2, 23010, Note_on_c, 0, 81, 50
2, 23040, Note_off_c, 0, 81, 39
2, 23040, Note_on_c, 0, 79, 53
2, 23070, Note_off_c, 0, 79, 47
2, 23070, Note_on_c, 0, 81, 56
2, 23100, Note_off_c, 0, 81, 39
2, 23100, Note_on_c, 0, 78, 59
2, 23130, Note_off_c, 0, 78, 79
2, 23130, Note_on_c, 0, 83, 64
2, 23310, Note_off_c, 0, 83, 68
2, 23310, Note_on_c, 0, 73, 64
2, 23370, Note_off_c, 0, 73, 59
2, 23370, Note_on_c, 0, 74, 64
2, 23550, Note_off_c, 0, 74, 65
2, 23550, Note_on_c, 0, 76, 64
2, 23610, Note_off_c, 0, 76, 40
2, 23610, Note_on_c, 0, 78, 64
2, 23790, Note_off_c, 0, 78, 61
2, 23790, Note_on_c, 0, 66, 64
2, 23850, Note_off_c, 0, 66, 59
2, 23850, Note_on_c, 0, 67, 64
2, 24030, Note_off_c, 0, 67, 48
2, 24030, Note_on_c, 0, 69, 64
2, 24090, Note_off_c, 0, 69, 54
2, 24090, Note_on_c, 0, 71, 64
2, 24260, Note_off_c, 0, 71, 72
2, 24273, Note_on_c, 0, 71, 64
2, 24333, Note_off_c, 0, 71, 62
2, 24333, Note_on_c, 0, 73, 64
2, 24513, Note_off_c, 0, 73, 63
2, 24513, Note_on_c, 0, 74, 64
2, 24573, Note_off_c, 0, 74, 50
2, 24573, Note_on_c, 0, 66, 64
2, 24803, Note_off_c, 0, 66, 82
2, 24816, Note_on_c, 0, 66, 72
2, 24836, Note_on_c, 0, 64, 40
2, 24839, Note_off_c, 0, 66, 17
2, 24856, Note_on_c, 0, 66, 42
2, 24859, Note_off_c, 0, 64, 43
2, 24876, Note_on_c, 0, 64, 44
2, 24879, Note_off_c, 0, 66, 48
2, 24896, Note_on_c, 0, 66, 46
2, 24899, Note_off_c, 0, 64, 49
2, 24916, Note_on_c, 0, 64, 49
2, 24919, Note_off_c, 0, 66, 44
2, 24936, Note_on_c, 0, 66, 51
2, 24939, Note_off_c, 0, 64, 37
2, 24956, Note_on_c, 0, 64, 53
2, 24959, Note_off_c, 0, 66, 49
2, 24976, Note_on_c, 0, 66, 55
2, 24979, Note_off_c, 0, 64, 29
2, 24996, Note_on_c, 0, 64, 57
2, 24999, Note_off_c, 0, 66, 55
2, 25016, Note_on_c, 0, 62, 59
2, 25019, Note_off_c, 0, 64, 30
2, 25036, Note_on_c, 0, 64, 61
2, 25039, Note_off_c, 0, 62, 52
2, 25056, Note_on_c, 0, 62, 64
2, 25059, Note_off_c, 0, 64, 43
2, 26016, Note_off_c, 0, 62, 59
2, 26016, End_track
3, 0, Start_track
3, 0, Text_t, "RH L"
3, 1200, Note_on_c, 1, 57, 72
3, 1230, Note_off_c, 1, 57, 62
3, 1230, Note_on_c, 1, 59, 41
3, 1260, Note_off_c, 1, 59, 34
3, 1260, Note_on_c, 1, 61, 44
3, 1290, Note_off_c, 1, 61, 76
3, 1290, Note_on_c, 1, 62, 47
3, 1320, Note_off_c, 1, 62, 40
3, 1320, Note_on_c, 1, 61, 50
3, 1350, Note_off_c, 1, 61, 74
3, 1350, Note_on_c, 1, 59, 53
3, 1380, Note_off_c, 1, 59, 48
3, 1380, Note_on_c, 1, 61, 56
3, 1410, Note_off_c, 1, 61, 77
3, 1410, Note_on_c, 1, 57, 59
3, 1440, Note_off_c, 1, 57, 48
3, 1440, Note_on_c, 1, 66, 68
3, 1460, Note_on_c, 1, 64, 56
3, 1463, Note_off_c, 1, 66, 64
3, 1480, Note_on_c, 1, 66, 64
3, 1483, Note_off_c, 1, 64, 64
3, 1610, Note_off_c, 1, 66, 74
3, 1623, Note_on_c, 1, 66, 64
3, 1683, Note_off_c, 1, 66, 72
3, 1683, Note_on_c, 1, 64, 68
3, 1703, Note_on_c, 1, 66, 56
3, 1706, Note_off_c, 1, 64, 64
3, 1723, Note_on_c, 1, 64, 64
3, 1726, Note_off_c, 1, 66, 64
3, 1863, Note_off_c, 1, 64, 47
3, 1863, Note_on_c, 1, 62, 64
3, 1923, Note_off_c, 1, 62, 46
3, 1923, Note_on_c, 1, 61, 64
3, 2163, Note_off_c, 1, 61, 51
3, 2163, Note_on_c, 1, 66, 64
3, 2183, Note_on_c, 1, 64, 56
3, 2186, Note_off_c, 1, 66, 64
3, 2203, Note_on_c, 1, 66, 64
3, 2206, Note_off_c, 1, 64, 64
3, 2333, Note_off_c, 1, 66, 73
3, 2346, Note_on_c, 1, 66, 64
3, 2406, Note_off_c, 1, 66, 68
3, 2406, Note_on_c, 1, 59, 64
3, 2546, Note_off_c, 1, 59, 66
3, 2559, Note_on_c, 1, 59, 64
3, 2589, Note_off_c, 1, 59, 63
3, 2589, Note_on_c, 1, 61, 64
3, 2619, Note_off_c, 1, 61, 45
3, 2619, Note_on_c, 1, 62, 64
3, 2649, Note_off_c, 1, 62, 58
3, 2649, Note_on_c, 1, 64, 64
3, 2709, Note_off_c, 1, 64, 46
3, 2709, Note_on_c, 1, 62, 64
3, 2769, Note_off_c, 1, 62, 55
3, 2769, Note_on_c, 1, 64, 64
3, 2829, Note_off_c, 1, 64, 46
3, 2829, Note_on_c, 1, 61, 64
3, 2889, Note_off_c, 1, 61, 72
3, 2889, Note_on_c, 1, 57, 64
3, 3129, Note_off_c, 1, 57, 59
3, 3129, Note_on_c, 1, 62, 68
3, 3609, Note_off_c, 1, 62, 62
3, 3609, Note_on_c, 1, 61, 64
3, 3849, Note_off_c, 1, 61, 73
3, 3849, Note_on_c, 1, 62, 64
3, 4089, Note_off_c, 1, 62, 47
3, 4089, Note_on_c, 1, 69, 68
3, 4569, Note_off_c, 1, 69, 68
3, 4569, Note_on_c, 1, 68, 64
3, 4809, Note_off_c, 1, 68, 57
3, 4809, Note_on_c, 1, 69, 64
3, 5049, Note_off_c, 1, 69, 76
3, 5049, Note_on_c, 1, 73, 64
3, 5289, Note_off_c, 1, 73, 42
3, 5289, Note_on_c, 1, 74, 64
3, 5519, Note_off_c, 1, 74, 74
3, 5532, Note_on_c, 1, 74, 64
3, 5772, Note_off_c, 1, 74, 65
3, 5772, Note_on_c, 1, 73, 64
3, 5922, Note_off_c, 1, 73, 76
3, 5922, Note_on_c, 1, 76, 64
3, 5952, Note_off_c, 1, 76, 35
3, 5952, Note_on_c, 1, 74, 64
3, 5982, Note_off_c, 1, 74, 52
3, 5982, Note_on_c, 1, 73, 64
3, 6012, Note_off_c, 1, 73, 66
3, 6012, Note_on_c, 1, 74, 64
3, 6192, Note_off_c, 1, 74, 70
3, 6192, Note_on_c, 1, 73, 64
3, 6252, Note_off_c, 1, 73, 70
3, 6252, Note_on_c, 1, 71, 64
3, 6492, Note_off_c, 1, 71, 65
3, 6492, Note_on_c, 1, 64, 64
3, 6732, Note_off_c, 1, 64, 58
3, 6732, Note_on_c, 1, 69, 64
3, 6972, Note_off_c, 1, 69, 72
3, 6972, Note_on_c, 1, 71, 68
3, 7452, Note_off_c, 1, 71, 73
3, 7452, Note_on_c, 1, 70, 64
3, 7692, Note_off_c, 1, 70, 80
3, 7692, Note_on_c, 1, 71, 64
3, 7932, Note_off_c, 1, 71, 85
3, 8172, Note_on_c, 1, 74, 64
3, 8352, Note_off_c, 1, 74, 61
3, 8352, Note_on_c, 1, 71, 64
3, 8402, Note_off_c, 1, 71, 72
3, 8415, Note_on_c, 1, 71, 64
3, 8595, Note_off_c, 1, 71, 62
3, 8595, Note_on_c, 1, 69, 64
3, 8645, Note_off_c, 1, 69, 70
3, 8658, Note_on_c, 1, 69, 64
3, 8898, Note_off_c, 1, 69, 83
3, 9138, Note_on_c, 1, 72, 64
3, 9318, Note_off_c, 1, 72, 61
3, 9318, Note_on_c, 1, 69, 64
3, 9368, Note_off_c, 1, 69, 66
3, 9381, Note_on_c, 1, 69, 64
3, 9561, Note_off_c, 1, 69, 40
3, 9561, Note_on_c, 1, 67, 64
3, 9611, Note_off_c, 1, 67, 51
3, 9624, Note_on_c, 1, 67, 64
3, 9804, Note_off_c, 1, 67, 68
3, 10824, Note_on_c, 1, 62, 72
3, 10854, Note_off_c, 1, 62, 40
3, 10854, Note_on_c, 1, 64, 41
3, 10884, Note_off_c, 1, 64, 1
3, 10884, Note_on_c, 1, 66, 44
3, 10914, Note_off_c, 1, 66, 63
3, 10914, Note_on_c, 1, 67, 47
3, 10944, Note_off_c, 1, 67, 52
3, 10944, Note_on_c, 1, 66, 50
3, 10974, Note_off_c, 1, 66, 80
3, 10974, Note_on_c, 1, 64, 53
3, 11004, Note_off_c, 1, 64, 53
3, 11004, Note_on_c, 1, 66, 56
3, 11034, Note_off_c, 1, 66, 83
3, 11034, Note_on_c, 1, 62, 59
3, 11064, Note_off_c, 1, 62, 54
3, 11064, Note_on_c, 1, 71, 64
3, 11234, Note_off_c, 1, 71, 74
3, 11247, Note_on_c, 1, 71, 64
3, 11307, Note_off_c, 1, 71, 65
3, 11307, Note_on_c, 1, 69, 64
3, 11487, Note_off_c, 1, 69, 73
3, 11487, Note_on_c, 1, 67, 64
3, 11547, Note_off_c, 1, 67, 40
3, 11547, Note_on_c, 1, 66, 64
3, 11727, Note_off_c, 1, 66, 66
3, 11727, Note_on_c, 1, 69, 64
3, 11787, Note_off_c, 1, 69, 37
3, 11787, Note_on_c, 1, 74, 64
3, 12267, Note_off_c, 1, 74, 68
3, 12267, Note_on_c, 1, 72, 64
3, 12747, Note_off_c, 1, 72, 86
3, 12747, Note_on_c, 1, 71, 64
3, 12987, Note_off_c, 1, 71, 79
3, 12987, Note_on_c, 1, 69, 64
3, 13467, Note_off_c, 1, 69, 77
3, 13467, Note_on_c, 1, 67, 64
3, 13707, Note_off_c, 1, 67, 55
3, 13707, Note_on_c, 1, 71, 64
3, 13947, Note_off_c, 1, 71, 77
3, 13947, Note_on_c, 1, 69, 64
3, 14667, Note_off_c, 1, 69, 61
3, 14667, Note_on_c, 1, 67, 64
3, 14847, Note_off_c, 1, 67, 45
3, 14847, Note_on_c, 1, 64, 64
3, 14897, Note_off_c, 1, 64, 46
3, 14910, Note_on_c, 1, 64, 64
3, 15150, Note_off_c, 1, 64, 58
3, 15150, Note_on_c, 1, 63, 64
3, 15390, Note_off_c, 1, 63, 65
3, 15390, Note_on_c, 1, 64, 64
3, 15648, Note_off_c, 1, 64, 68
3, 15870, Note_on_c, 1, 64, 64
3, 16050, Note_off_c, 1, 64, 39
3, 16050, Note_on_c, 1, 61, 64
3, 16100, Note_off_c, 1, 61, 59
3, 16113, Note_on_c, 1, 61, 64
3, 16293, Note_off_c, 1, 61, 69
3, 16293, Note_on_c, 1, 57, 64
3, 16343, Note_off_c, 1, 57, 57
3, 16356, Note_on_c, 1, 57, 64
3, 16596, Note_off_c, 1, 57, 65
3, 16836, Note_on_c, 1, 62, 64
3, 17016, Note_off_c, 1, 62, 33
3, 17016, Note_on_c, 1, 59, 64
3, 17066, Note_off_c, 1, 59, 55
3, 17079, Note_on_c, 1, 59, 64
3, 17259, Note_off_c, 1, 59, 58
3, 17259, Note_on_c, 1, 55, 64
3, 17309, Note_off_c, 1, 55, 68
3, 17322, Note_on_c, 1, 55, 64
3, 17562, Note_off_c, 1, 55, 62
3, 17802, Note_on_c, 1, 61, 64
3, 17982, Note_off_c, 1, 61, 52
3, 17982, Note_on_c, 1, 57, 64
3, 18032, Note_off_c, 1, 57, 62
3, 18045, Note_on_c, 1, 57, 64
3, 18225, Note_off_c, 1, 57, 38
3, 18225, Note_on_c, 1, 54, 64
3, 18275, Note_off_c, 1, 54, 50
3, 18288, Note_on_c, 1, 54, 64
3, 18468, Note_off_c, 1, 54, 74
3, 18528, Note_on_c, 1, 59, 72
3, 18558, Note_off_c, 1, 59, 44
3, 18558, Note_on_c, 1, 61, 41
3, 18588, Note_off_c, 1, 61, 8
3, 18588, Note_on_c, 1, 62, 44
3, 18618, Note_off_c, 1, 62, 58
3, 18618, Note_on_c, 1, 64, 47
3, 18648, Note_off_c, 1, 64, 49
3, 18648, Note_on_c, 1, 62, 50
3, 18678, Note_off_c, 1, 62, 52
3, 18678, Note_on_c, 1, 61, 53
3, 18708, Note_off_c, 1, 61, 65
3, 18708, Note_on_c, 1, 62, 56
3, 18738, Note_off_c, 1, 62, 65
3, 18738, Note_on_c, 1, 59, 59
3, 18768, Note_off_c, 1, 59, 22
3, 18768, Note_on_c, 1, 67, 64
3, 19248, Note_off_c, 1, 67, 52
3, 19248, Note_on_c, 1, 66, 64
3, 19488, Note_off_c, 1, 66, 80
3, 19728, Note_on_c, 1, 74, 64
3, 19908, Note_off_c, 1, 74, 43
3, 19908, Note_on_c, 1, 71, 64
3, 19958, Note_off_c, 1, 71, 59
3, 19971, Note_on_c, 1, 71, 64
3, 20151, Note_off_c, 1, 71, 59
3, 20151, Note_on_c, 1, 69, 64
3, 20201, Note_off_c, 1, 69, 62
3, 20214, Note_on_c, 1, 69, 64
3, 20444, Note_off_c, 1, 69, 63
3, 20457, Note_on_c, 1, 69, 64
3, 20627, Note_off_c, 1, 69, 74
3, 20640, Note_on_c, 1, 69, 64
3, 20700, Note_off_c, 1, 69, 58
3, 20700, Note_on_c, 1, 71, 64
3, 20870, Note_off_c, 1, 71, 61
3, 20883, Note_on_c, 1, 71, 64
3, 20943, Note_off_c, 1, 71, 54
3, 20943, Note_on_c, 1, 69, 64
3, 21173, Note_off_c, 1, 69, 69
3, 21186, Note_on_c, 1, 69, 64
3, 21426, Note_off_c, 1, 69, 83
3, 21666, Note_on_c, 1, 71, 64
3, 21906, Note_off_c, 1, 71, 83
3, 22146, Note_on_c, 1, 69, 64
3, 22386, Note_off_c, 1, 69, 80
3, 23286, Note_on_c, 1, 69, 64
3, 23336, Note_off_c, 1, 69, 72
3, 23349, Note_on_c, 1, 69, 64
3, 23529, Note_off_c, 1, 69, 55
3, 23529, Note_on_c, 1, 73, 64
3, 23589, Note_off_c, 1, 73, 44
3, 23589, Note_on_c, 1, 74, 64
3, 23769, Note_off_c, 1, 74, 51
3, 23769, Note_on_c, 1, 62, 64
3, 23819, Note_off_c, 1, 62, 41
3, 23832, Note_on_c, 1, 62, 64
3, 24012, Note_off_c, 1, 62, 37
3, 24012, Note_on_c, 1, 66, 64
3, 24072, Note_off_c, 1, 66, 51
3, 24072, Note_on_c, 1, 67, 64
3, 24252, Note_off_c, 1, 67, 39
3, 24252, Note_on_c, 1, 62, 64
3, 24312, Note_off_c, 1, 62, 38
3, 24312, Note_on_c, 1, 64, 64
3, 24492, Note_off_c, 1, 64, 40
3, 24492, Note_on_c, 1, 66, 64
3, 24537, Note_off_c, 1, 66, 59
3, 24552, Note_on_c, 1, 62, 64
3, 24782, Note_off_c, 1, 62, 49
3, 24795, Note_on_c, 1, 61, 64
3, 25025, Note_off_c, 1, 61, 63
3, 25038, Note_on_c, 1, 57, 64
3, 25998, Note_off_c, 1, 57, 69
3, 25998, End_track
4, 0, Start_track
4, 0, Text_t, "LH H"
4, 4080, Note_on_c, 2, 61, 64
4, 4320, Note_off_c, 2, 61, 41
4, 4320, Note_on_c, 2, 59, 64
4, 4800, Note_off_c, 2, 59, 40
4, 5040, Note_on_c, 2, 66, 72
4, 5070, Note_off_c, 2, 66, 1
4, 5070, Note_on_c, 2, 67, 42
4, 5100, Note_off_c, 2, 67, 25
4, 5100, Note_on_c, 2, 69, 45
4, 5130, Note_off_c, 2, 69, 53
4, 5130, Note_on_c, 2, 71, 47
4, 5160, Note_off_c, 2, 71, 62
4, 5160, Note_on_c, 2, 69, 50
4, 5190, Note_off_c, 2, 69, 61
4, 5190, Note_on_c, 2, 67, 53
4, 5220, Note_off_c, 2, 67, 29
4, 5220, Note_on_c, 2, 69, 56
4, 5250, Note_off_c, 2, 69, 69
4, 5250, Note_on_c, 2, 66, 59
4, 5280, Note_off_c, 2, 66, 58
4, 5280, Note_on_c, 2, 71, 64
4, 5520, Note_off_c, 2, 71, 74
4, 5520, Note_on_c, 2, 64, 72
4, 5550, Note_off_c, 2, 64, 28
4, 5550, Note_on_c, 2, 66, 41
4, 5580, Note_off_c, 2, 66, 57
4, 5580, Note_on_c, 2, 67, 44
4, 5610, Note_off_c, 2, 67, 46
4, 5610, Note_on_c, 2, 69, 47
4, 5640, Note_off_c, 2, 69, 61
4, 5640, Note_on_c, 2, 67, 50
4, 5670, Note_off_c, 2, 67, 47
4, 5670, Note_on_c, 2, 66, 53
4, 5700, Note_off_c, 2, 66, 55
4, 5700, Note_on_c, 2, 67, 56
4, 5730, Note_off_c, 2, 67, 31
4, 5730, Note_on_c, 2, 64, 59
4, 5760, Note_off_c, 2, 64, 46
4, 5760, Note_on_c, 2, 69, 64
4, 6000, Note_off_c, 2, 69, 63
4, 6000, Note_on_c, 2, 69, 64
4, 6180, Note_off_c, 2, 69, 62
4, 6180, Note_on_c, 2, 67, 64
4, 6240, Note_off_c, 2, 67, 46
4, 6240, Note_on_c, 2, 66, 64
4, 6420, Note_off_c, 2, 66, 66
4, 6420, Note_on_c, 2, 67, 64
4, 6480, Note_off_c, 2, 67, 47
4, 6480, Note_on_c, 2, 69, 64
4, 6720, Note_off_c, 2, 69, 68
4, 6720, Note_on_c, 2, 62, 64
4, 6960, Note_off_c, 2, 62, 46
4, 6960, Note_on_c, 2, 62, 64
4, 7200, Note_off_c, 2, 62, 43
4, 7200, Note_on_c, 2, 61, 64
4, 7680, Note_off_c, 2, 61, 62
4, 7680, Note_on_c, 2, 59, 64
4, 7920, Note_off_c, 2, 59, 48
4, 8160, Note_on_c, 2, 71, 64
4, 8340, Note_off_c, 2, 71, 65
4, 8340, Note_on_c, 2, 68, 64
4, 8390, Note_off_c, 2, 68, 54
4, 8403, Note_on_c, 2, 68, 64
4, 8583, Note_off_c, 2, 68, 57
4, 8583, Note_on_c, 2, 64, 64
4, 8633, Note_off_c, 2, 64, 34
4, 8646, Note_on_c, 2, 64, 64
4, 8886, Note_off_c, 2, 64, 37
4, 9126, Note_on_c, 2, 69, 64
4, 9306, Note_off_c, 2, 69, 57
4, 9306, Note_on_c, 2, 66, 64
4, 9356, Note_off_c, 2, 66, 51
4, 9369, Note_on_c, 2, 66, 64
4, 9549, Note_off_c, 2, 66, 59
4, 9549, Note_on_c, 2, 62, 64
4, 9599, Note_off_c, 2, 62, 36
4, 9612, Note_on_c, 2, 62, 64
4, 9852, Note_off_c, 2, 62, 35
4, 12732, Note_on_c, 2, 55, 72
4, 12762, Note_off_c, 2, 55, 44
4, 12762, Note_on_c, 2, 57, 42
4, 12792, Note_off_c, 2, 57, 37
4, 12792, Note_on_c, 2, 59, 44
4, 12822, Note_off_c, 2, 59, 58
4, 12822, Note_on_c, 2, 60, 47
4, 12852, Note_off_c, 2, 60, 61
4, 12852, Note_on_c, 2, 59, 50
4, 12882, Note_off_c, 2, 59, 47
4, 12882, Note_on_c, 2, 57, 52
4, 12912, Note_off_c, 2, 57, 39
4, 12912, Note_on_c, 2, 59, 55
4, 12942, Note_off_c, 2, 59, 45
4, 12942, Note_on_c, 2, 55, 58
4, 12972, Note_off_c, 2, 55, 44
4, 12972, Note_on_c, 2, 64, 64
4, 13142, Note_off_c, 2, 64, 46
4, 13155, Note_on_c, 2, 64, 64
4, 13215, Note_off_c, 2, 64, 59
4, 13395, Note_on_c, 2, 60, 64
4, 13455, Note_off_c, 2, 60, 51
4, 13455, Note_on_c, 2, 59, 64
4, 13695, Note_off_c, 2, 59, 52
4, 13695, Note_on_c, 2, 67, 64
4, 13935, Note_off_c, 2, 67, 47
4, 13935, Note_on_c, 2, 66, 64
4, 14655, Note_off_c, 2, 66, 57
4, 14655, Note_on_c, 2, 64, 64
4, 14835, Note_off_c, 2, 64, 46
4, 14835, Note_on_c, 2, 54, 64
4, 14895, Note_off_c, 2, 54, 39
4, 14895, Note_on_c, 2, 55, 64
4, 15075, Note_off_c, 2, 55, 52
4, 15075, Note_on_c, 2, 57, 64
4, 15135, Note_off_c, 2, 57, 49
4, 15135, Note_on_c, 2, 59, 64
4, 15315, Note_off_c, 2, 59, 49
4, 15315, Note_on_c, 2, 57, 64
4, 15375, Note_off_c, 2, 57, 46
4, 15375, Note_on_c, 2, 55, 64
4, 15615, Note_off_c, 2, 55, 46
4, 15855, Note_on_c, 2, 59, 64
4, 16035, Note_off_c, 2, 59, 46
4, 16035, Note_on_c, 2, 55, 64
4, 16085, Note_off_c, 2, 55, 25
4, 16098, Note_on_c, 2, 55, 64
4, 16278, Note_off_c, 2, 55, 34
4, 16278, Note_on_c, 2, 52, 64
4, 16338, Note_off_c, 2, 52, 46
4, 16338, Note_on_c, 2, 52, 64
4, 16578, Note_off_c, 2, 52, 33
4, 16818, Note_on_c, 2, 57, 64
4, 16998, Note_off_c, 2, 57, 50
4, 16998, Note_on_c, 2, 54, 64
4, 17048, Note_off_c, 2, 54, 36
4, 17061, Note_on_c, 2, 54, 64
4, 17241, Note_off_c, 2, 54, 37
4, 17241, Note_on_c, 2, 50, 64
4, 17291, Note_off_c, 2, 50, 47
4, 17304, Note_on_c, 2, 50, 64
4, 17544, Note_off_c, 2, 50, 42
4, 17784, Note_on_c, 2, 55, 64
4, 17964, Note_off_c, 2, 55, 53
4, 17964, Note_on_c, 2, 52, 64
4, 18014, Note_off_c, 2, 52, 43
4, 18027, Note_on_c, 2, 52, 64
4, 18207, Note_off_c, 2, 52, 35
4, 18207, Note_on_c, 2, 49, 64
4, 18257, Note_off_c, 2, 49, 55
4, 18270, Note_on_c, 2, 49, 64
4, 18510, Note_off_c, 2, 49, 49
4, 19020, Note_on_c, 2, 59, 42
4, 19050, Note_off_c, 2, 59, 45
4, 19050, Note_on_c, 2, 61, 45
4, 19080, Note_off_c, 2, 61, 66
4, 19080, Note_on_c, 2, 62, 47
4, 19110, Note_off_c, 2, 62, 46
4, 19110, Note_on_c, 2, 61, 50
4, 19140, Note_off_c, 2, 61, 63
4, 19140, Note_on_c, 2, 59, 53
4, 19170, Note_off_c, 2, 59, 49
4, 19170, Note_on_c, 2, 61, 55
4, 19200, Note_off_c, 2, 61, 62
4, 19200, Note_on_c, 2, 57, 58
4, 19230, Note_off_c, 2, 57, 43
4, 19230, Note_on_c, 2, 62, 64
4, 19470, Note_off_c, 2, 62, 46
4, 19710, Note_on_c, 2, 71, 64
4, 19890, Note_off_c, 2, 71, 59
4, 19890, Note_on_c, 2, 67, 64
4, 19940, Note_off_c, 2, 67, 49
4, 19953, Note_on_c, 2, 67, 64
4, 20133, Note_off_c, 2, 67, 47
4, 20133, Note_on_c, 2, 64, 64
4, 20183, Note_off_c, 2, 64, 40
4, 20196, Note_on_c, 2, 64, 64
4, 20436, Note_off_c, 2, 64, 30
4, 20436, Note_on_c, 2, 66, 64
4, 20606, Note_off_c, 2, 66, 53
4, 20619, Note_on_c, 2, 66, 64
4, 20669, Note_off_c, 2, 66, 55
4, 20682, Note_on_c, 2, 66, 64
4, 20862, Note_off_c, 2, 66, 57
4, 20862, Note_on_c, 2, 67, 64
4, 20922, Note_off_c, 2, 67, 52
4, 20922, Note_on_c, 2, 64, 64
4, 21162, Note_off_c, 2, 64, 48
4, 21162, Note_on_c, 2, 66, 64
4, 21402, Note_off_c, 2, 66, 57
4, 21642, Note_on_c, 2, 64, 64
4, 21882, Note_off_c, 2, 64, 40
4, 22122, Note_on_c, 2, 62, 64
4, 22362, Note_off_c, 2, 62, 37
4, 23262, Note_on_c, 2, 64, 64
4, 23322, Note_off_c, 2, 64, 32
4, 23322, Note_on_c, 2, 66, 64
4, 23502, Note_off_c, 2, 66, 57
4, 23502, Note_on_c, 2, 67, 64
4, 23562, Note_off_c, 2, 67, 46
4, 23562, Note_on_c, 2, 69, 64
4, 23742, Note_off_c, 2, 69, 61
4, 23742, Note_on_c, 2, 57, 64
4, 23802, Note_off_c, 2, 57, 40
4, 23802, Note_on_c, 2, 59, 64
4, 23982, Note_off_c, 2, 59, 57
4, 23982, Note_on_c, 2, 60, 64
4, 24042, Note_off_c, 2, 60, 52
4, 24042, Note_on_c, 2, 62, 64
4, 24222, Note_off_c, 2, 62, 41
4, 24222, Note_on_c, 2, 67, 64
4, 24282, Note_off_c, 2, 67, 1
4, 24282, Note_on_c, 2, 67, 64
4, 24462, Note_off_c, 2, 67, 14
4, 24462, Note_on_c, 2, 69, 64
4, 24522, Note_off_c, 2, 69, 54
4, 24522, Note_on_c, 2, 57, 64
4, 24752, Note_off_c, 2, 57, 32
4, 24765, Note_on_c, 2, 55, 64
4, 24995, Note_off_c, 2, 55, 43
4, 25008, Note_on_c, 2, 54, 64
4, 25968, Note_off_c, 2, 54, 57
4, 25968, End_track
5, 0, Start_track
5, 0, Text_t, "LH L"
5, 240, Note_on_c, 3, 50, 72
5, 270, Note_off_c, 3, 50, 37
5, 270, Note_on_c, 3, 52, 64
5, 300, Note_off_c, 3, 52, 24
5, 300, Note_on_c, 3, 54, 44
5, 330, Note_off_c, 3, 54, 45
5, 330, Note_on_c, 3, 55, 47
5, 360, Note_off_c, 3, 55, 42
5, 360, Note_on_c, 3, 54, 50
5, 390, Note_off_c, 3, 54, 63
5, 390, Note_on_c, 3, 52, 53
5, 420, Note_off_c, 3, 52, 58
5, 420, Note_on_c, 3, 54, 56
5, 450, Note_off_c, 3, 54, 66
5, 450, Note_on_c, 3, 50, 59
5, 480, Note_off_c, 3, 50, 62
5, 480, Note_on_c, 3, 59, 68
5, 500, Note_on_c, 3, 57, 56
5, 503, Note_off_c, 3, 59, 64
5, 520, Note_on_c, 3, 59, 64
5, 523, Note_off_c, 3, 57, 64
5, 650, Note_off_c, 3, 59, 54
5, 663, Note_on_c, 3, 59, 64
5, 723, Note_off_c, 3, 59, 53
5, 723, Note_on_c, 3, 57, 68
5, 743, Note_on_c, 3, 59, 56
5, 746, Note_off_c, 3, 57, 64
5, 763, Note_on_c, 3, 57, 64
5, 766, Note_off_c, 3, 59, 64
5, 903, Note_off_c, 3, 57, 62
5, 903, Note_on_c, 3, 55, 64
5, 963, Note_off_c, 3, 55, 54
5, 963, Note_on_c, 3, 54, 64
5, 1133, Note_off_c, 3, 54, 65
5, 1146, Note_on_c, 3, 55, 64
5, 1206, Note_off_c, 3, 55, 55
5, 1206, Note_on_c, 3, 54, 64
5, 1386, Note_off_c, 3, 54, 53
5, 1386, Note_on_c, 3, 52, 64
5, 1446, Note_off_c, 3, 52, 52
5, 1446, Note_on_c, 3, 50, 64
5, 1686, Note_off_c, 3, 50, 49
5, 1686, Note_on_c, 3, 52, 64
5, 1926, Note_off_c, 3, 52, 23
5, 1926, Note_on_c, 3, 45, 64
5, 2076, Note_off_c, 3, 45, 53
5, 2076, Note_on_c, 3, 52, 64
5, 2106, Note_off_c, 3, 52, 42
5, 2106, Note_on_c, 3, 54, 64
5, 2136, Note_off_c, 3, 54, 37
5, 2136, Note_on_c, 3, 55, 64
5, 2166, Note_off_c, 3, 55, 66
5, 2166, Note_on_c, 3, 57, 64
5, 2646, Note_off_c, 3, 57, 44
5, 2646, Note_on_c, 3, 55, 64
5, 3066, Note_off_c, 3, 55, 59
5, 3066, Note_on_c, 3, 54, 64
5, 3096, Note_off_c, 3, 54, 53
5, 3096, Note_on_c, 3, 52, 64
5, 3126, Note_off_c, 3, 52, 62
5, 3126, Note_on_c, 3, 54, 64
5, 3306, Note_off_c, 3, 54, 48
5, 3306, Note_on_c, 3, 50, 64
5, 3366, Note_off_c, 3, 50, 51
5, 3366, Note_on_c, 3, 55, 64
5, 3546, Note_off_c, 3, 55, 37
5, 3546, Note_on_c, 3, 52, 64
5, 3606, Note_off_c, 3, 52, 34
5, 3606, Note_on_c, 3, 57, 64
5, 3786, Note_off_c, 3, 57, 46
5, 3786, Note_on_c, 3, 45, 64
5, 3846, Note_off_c, 3, 45, 69
5, 3846, Note_on_c, 3, 50, 64
5, 4026, Note_off_c, 3, 50, 50
5, 4026, Note_on_c, 3, 52, 64
5, 4086, Note_off_c, 3, 52, 52
5, 4086, Note_on_c, 3, 54, 64
5, 4266, Note_off_c, 3, 54, 47
5, 4266, Note_on_c, 3, 52, 64
5, 4326, Note_off_c, 3, 52, 66
5, 4326, Note_on_c, 3, 50, 64
5, 4506, Note_off_c, 3, 50, 42
5, 4506, Note_on_c, 3, 47, 64
5, 4566, Note_off_c, 3, 47, 47
5, 4566, Note_on_c, 3, 52, 64
5, 4806, Note_off_c, 3, 52, 46
5, 4806, Note_on_c, 3, 45, 64
5, 5046, Note_off_c, 3, 45, 74
5, 6006, Note_on_c, 3, 38, 64
5, 6036, Note_off_c, 3, 38, 23
5, 6036, Note_on_c, 3, 40, 64
5, 6066, Note_off_c, 3, 40, 15
5, 6066, Note_on_c, 3, 42, 64
5, 6096, Note_off_c, 3, 42, 63
5, 6096, Note_on_c, 3, 43, 64
5, 6126, Note_off_c, 3, 43, 46
5, 6126, Note_on_c, 3, 42, 64
5, 6156, Note_off_c, 3, 42, 66
5, 6156, Note_on_c, 3, 40, 64
5, 6186, Note_off_c, 3, 40, 48
5, 6186, Note_on_c, 3, 42, 64
5, 6216, Note_off_c, 3, 42, 62
5, 6216, Note_on_c, 3, 38, 64
5, 6246, Note_off_c, 3, 38, 49
5, 6246, Note_on_c, 3, 47, 64
5, 6266, Note_off_c, 3, 47, 64
5, 6266, Note_on_c, 3, 45, 56
5, 6286, Note_off_c, 3, 45, 56
5, 6286, Note_on_c, 3, 47, 64
5, 6416, Note_off_c, 3, 47, 64
5, 6429, Note_on_c, 3, 47, 64
5, 6489, Note_off_c, 3, 47, 66
5, 6489, Note_on_c, 3, 45, 64
5, 6509, Note_off_c, 3, 45, 64
5, 6509, Note_on_c, 3, 47, 56
5, 6529, Note_off_c, 3, 47, 64
5, 6529, Note_on_c, 3, 45, 64
5, 6669, Note_off_c, 3, 45, 59
5, 6669, Note_on_c, 3, 43, 64
5, 6729, Note_off_c, 3, 43, 47
5, 6729, Note_on_c, 3, 42, 64
5, 6879, Note_off_c, 3, 42, 76
5, 6879, Note_on_c, 3, 50, 64
5, 6909, Note_off_c, 3, 50, 46
5, 6909, Note_on_c, 3, 52, 64
5, 6939, Note_off_c, 3, 52, 40
5, 6939, Note_on_c, 3, 54, 64
5, 6969, Note_off_c, 3, 54, 72
5, 6969, Note_on_c, 3, 55, 64
5, 7149, Note_off_c, 3, 55, 51
5, 7149, Note_on_c, 3, 54, 64
5, 7209, Note_off_c, 3, 54, 40
5, 7209, Note_on_c, 3, 52, 64
5, 7389, Note_off_c, 3, 52, 61
5, 7389, Note_on_c, 3, 49, 64
5, 7449, Note_off_c, 3, 49, 68
5, 7449, Note_on_c, 3, 54, 64
5, 7689, Note_off_c, 3, 54, 61
5, 7689, Note_on_c, 3, 47, 72
5, 7719, Note_off_c, 3, 47, 45
5, 7719, Note_on_c, 3, 49, 41
5, 7749, Note_off_c, 3, 49, 49
5, 7749, Note_on_c, 3, 50, 44
5, 7779, Note_off_c, 3, 50, 52
5, 7779, Note_on_c, 3, 52, 47
5, 7809, Note_off_c, 3, 52, 54
5, 7809, Note_on_c, 3, 50, 50
5, 7839, Note_off_c, 3, 50, 49
5, 7839, Note_on_c, 3, 49, 53
5, 7869, Note_off_c, 3, 49, 51
5, 7869, Note_on_c, 3, 50, 56
5, 7899, Note_off_c, 3, 50, 47
5, 7899, Note_on_c, 3, 47, 59
5, 7929, Note_off_c, 3, 47, 54
5, 7929, Note_on_c, 3, 56, 64
5, 8049, Note_off_c, 3, 56, 69
5, 8649, Note_on_c, 3, 45, 72
5, 8679, Note_off_c, 3, 45, 33
5, 8679, Note_on_c, 3, 47, 41
5, 8709, Note_off_c, 3, 47, 4
5, 8709, Note_on_c, 3, 49, 44
5, 8739, Note_off_c, 3, 49, 72
5, 8739, Note_on_c, 3, 50, 47
5, 8769, Note_off_c, 3, 50, 50
5, 8769, Note_on_c, 3, 49, 50
5, 8799, Note_off_c, 3, 49, 73
5, 8799, Note_on_c, 3, 47, 53
5, 8829, Note_off_c, 3, 47, 45
5, 8829, Note_on_c, 3, 49, 56
5, 8859, Note_off_c, 3, 49, 58
5, 8859, Note_on_c, 3, 45, 59
5, 8889, Note_off_c, 3, 45, 46
5, 8889, Note_on_c, 3, 54, 64
5, 9009, Note_off_c, 3, 54, 76
5, 9609, Note_on_c, 3, 43, 72
5, 9639, Note_off_c, 3, 43, 52
5, 9639, Note_on_c, 3, 45, 41
5, 9669, Note_off_c, 3, 45, 43
5, 9669, Note_on_c, 3, 47, 44
5, 9699, Note_off_c, 3, 47, 61
5, 9699, Note_on_c, 3, 48, 47
5, 9729, Note_off_c, 3, 48, 57
5, 9729, Note_on_c, 3, 47, 50
5, 9759, Note_off_c, 3, 47, 51
5, 9759, Note_on_c, 3, 45, 53
5, 9789, Note_off_c, 3, 45, 52
5, 9789, Note_on_c, 3, 47, 56
5, 9819, Note_off_c, 3, 47, 51
5, 9819, Note_on_c, 3, 43, 59
5, 9849, Note_off_c, 3, 43, 54
5, 9849, Note_on_c, 3, 52, 64
5, 10029, Note_off_c, 3, 52, 62
5, 10029, Note_on_c, 3, 50, 64
5, 10089, Note_off_c, 3, 50, 62
5, 10089, Note_on_c, 3, 48, 64
5, 10329, Note_off_c, 3, 48, 69
5, 10329, Note_on_c, 3, 50, 64
5, 10569, Note_off_c, 3, 50, 50
5, 10569, Note_on_c, 3, 55, 64
5, 10749, Note_off_c, 3, 55, 48
5, 10749, Note_on_c, 3, 57, 64
5, 10809, Note_off_c, 3, 57, 51
5, 10809, Note_on_c, 3, 59, 64
5, 10989, Note_off_c, 3, 59, 49
5, 10989, Note_on_c, 3, 57, 64
5, 11049, Note_off_c, 3, 57, 66
5, 11049, Note_on_c, 3, 55, 64
5, 11229, Note_off_c, 3, 55, 63
5, 11229, Note_on_c, 3, 52, 64
5, 11289, Note_off_c, 3, 52, 68
5, 11289, Note_on_c, 3, 57, 64
5, 11469, Note_off_c, 3, 57, 62
5, 11469, Note_on_c, 3, 45, 64
5, 11525, Note_off_c, 3, 45, 73
5, 11529, Note_on_c, 3, 47, 72
5, 11559, Note_off_c, 3, 47, 48
5, 11559, Note_on_c, 3, 49, 41
5, 11589, Note_off_c, 3, 49, 55
5, 11589, Note_on_c, 3, 50, 44
5, 11619, Note_off_c, 3, 50, 54
5, 11619, Note_on_c, 3, 52, 47
5, 11649, Note_off_c, 3, 52, 55
5, 11649, Note_on_c, 3, 50, 50
5, 11679, Note_off_c, 3, 50, 51
5, 11679, Note_on_c, 3, 49, 53
5, 11709, Note_off_c, 3, 49, 62
5, 11709, Note_on_c, 3, 50, 56
5, 11739, Note_off_c, 3, 50, 48
5, 11739, Note_on_c, 3, 47, 59
5, 11769, Note_off_c, 3, 47, 22
5, 11769, Note_on_c, 3, 59, 64
5, 11949, Note_off_c, 3, 59, 42
5, 11949, Note_on_c, 3, 57, 64
5, 12009, Note_off_c, 3, 57, 49
5, 12009, Note_on_c, 3, 55, 64
5, 12189, Note_off_c, 3, 55, 55
5, 12189, Note_on_c, 3, 52, 64
5, 12249, Note_off_c, 3, 52, 70
5, 12249, Note_on_c, 3, 57, 64
5, 12429, Note_off_c, 3, 57, 58
5, 12429, Note_on_c, 3, 45, 64
5, 12489, Note_off_c, 3, 45, 74
5, 12489, Note_on_c, 3, 50, 64
5, 12729, Note_off_c, 3, 50, 66
5, 12729, Note_on_c, 3, 52, 64
5, 12969, Note_on_c, 3, 60, 64
5, 12982, Note_off_c, 3, 52, 63
5, 13149, Note_off_c, 3, 60, 63
5, 13149, Note_on_c, 3, 57, 64
5, 13209, Note_off_c, 3, 57, 63
5, 13209, Note_on_c, 3, 62, 64
5, 13389, Note_off_c, 3, 62, 49
5, 13389, Note_on_c, 3, 50, 64
5, 13449, Note_off_c, 3, 50, 45
5, 13449, Note_on_c, 3, 55, 64
5, 13684, Note_off_c, 3, 55, 76
5, 13689, Note_on_c, 3, 40, 72
5, 13719, Note_off_c, 3, 40, 53
5, 13719, Note_on_c, 3, 42, 42
5, 13749, Note_off_c, 3, 42, 30
5, 13749, Note_on_c, 3, 43, 45
5, 13779, Note_off_c, 3, 43, 55
5, 13779, Note_on_c, 3, 45, 47
5, 13809, Note_off_c, 3, 45, 54
5, 13809, Note_on_c, 3, 43, 50
5, 13839, Note_off_c, 3, 43, 59
5, 13839, Note_on_c, 3, 42, 53
5, 13869, Note_off_c, 3, 42, 36
5, 13869, Note_on_c, 3, 43, 56
5, 13899, Note_off_c, 3, 43, 62
5, 13899, Note_on_c, 3, 40, 59
5, 13929, Note_off_c, 3, 40, 37
5, 13929, Note_on_c, 3, 48, 64
5, 14099, Note_off_c, 3, 48, 61
5, 14112, Note_on_c, 3, 48, 64
5, 14172, Note_off_c, 3, 48, 57
5, 14172, Note_on_c, 3, 47, 64
5, 14352, Note_off_c, 3, 47, 65
5, 14352, Note_on_c, 3, 45, 64
5, 14412, Note_off_c, 3, 45, 47
5, 14412, Note_on_c, 3, 43, 64
5, 14592, Note_off_c, 3, 43, 58
5, 14592, Note_on_c, 3, 42, 64
5, 14652, Note_off_c, 3, 42, 59
5, 14652, Note_on_c, 3, 43, 64
5, 14832, Note_off_c, 3, 43, 23
5, 14832, Note_on_c, 3, 45, 64
5, 14892, Note_off_c, 3, 45, 51
5, 14892, Note_on_c, 3, 47, 64
5, 15372, Note_off_c, 3, 47, 43
5, 15372, Note_on_c, 3, 52, 64
5, 15612, Note_on_c, 3, 59, 64
5, 15614, Note_off_c, 3, 52, 48
5, 15672, Note_off_c, 3, 59, 48
5, 15672, Note_on_c, 3, 57, 64
5, 15732, Note_on_c, 3, 59, 64
5, 15734, Note_off_c, 3, 57, 49
5, 15791, Note_off_c, 3, 59, 55
5, 15792, Note_on_c, 3, 55, 64
5, 15833, Note_off_c, 3, 55, 73
5, 15852, Note_on_c, 3, 55, 64
5, 15912, Note_off_c, 3, 55, 40
5, 15912, Note_on_c, 3, 54, 64
5, 15972, Note_off_c, 3, 54, 62
5, 15972, Note_on_c, 3, 55, 64
5, 16026, Note_off_c, 3, 55, 51
5, 16032, Note_on_c, 3, 52, 64
5, 16082, Note_off_c, 3, 52, 55
5, 16095, Note_on_c, 3, 52, 64
5, 16155, Note_on_c, 3, 50, 64
5, 16160, Note_off_c, 3, 52, 72
5, 16215, Note_off_c, 3, 50, 49
5, 16215, Note_on_c, 3, 52, 64
5, 16275, Note_on_c, 3, 49, 64
5, 16281, Note_off_c, 3, 52, 39
5, 16325, Note_off_c, 3, 49, 79
5, 16338, Note_on_c, 3, 49, 64
5, 16557, Note_off_c, 3, 49, 65
5, 16578, Note_on_c, 3, 57, 64
5, 16638, Note_off_c, 3, 57, 40
5, 16638, Note_on_c, 3, 55, 64
5, 16698, Note_off_c, 3, 55, 58
5, 16698, Note_on_c, 3, 57, 64
5, 16758, Note_off_c, 3, 57, 53
5, 16758, Note_on_c, 3, 54, 64
5, 16808, Note_off_c, 3, 54, 62
5, 16821, Note_on_c, 3, 54, 64
5, 16881, Note_off_c, 3, 54, 62
5, 16881, Note_on_c, 3, 52, 64
5, 16941, Note_off_c, 3, 52, 65
5, 16941, Note_on_c, 3, 54, 64
5, 17001, Note_off_c, 3, 54, 27
5, 17001, Note_on_c, 3, 50, 64
5, 17051, Note_off_c, 3, 50, 54
5, 17064, Note_on_c, 3, 50, 64
5, 17124, Note_off_c, 3, 50, 51
5, 17124, Note_on_c, 3, 49, 64
5, 17184, Note_off_c, 3, 49, 70
5, 17184, Note_on_c, 3, 50, 64
5, 17244, Note_off_c, 3, 50, 12
5, 17244, Note_on_c, 3, 47, 64
5, 17294, Note_off_c, 3, 47, 57
5, 17307, Note_on_c, 3, 47, 64
5, 17547, Note_off_c, 3, 47, 20
5, 17547, Note_on_c, 3, 55, 64
5, 17607, Note_off_c, 3, 55, 59
5, 17607, Note_on_c, 3, 54, 64
5, 17667, Note_off_c, 3, 54, 26
5, 17667, Note_on_c, 3, 55, 64
5, 17727, Note_off_c, 3, 55, 52
5, 17727, Note_on_c, 3, 52, 64
5, 17777, Note_off_c, 3, 52, 61
5, 17790, Note_on_c, 3, 52, 64
5, 17850, Note_off_c, 3, 52, 16
5, 17850, Note_on_c, 3, 50, 64
5, 17910, Note_off_c, 3, 50, 63
5, 17910, Note_on_c, 3, 52, 64
5, 17970, Note_off_c, 3, 52, 37
5, 17970, Note_on_c, 3, 49, 64
5, 18020, Note_off_c, 3, 49, 69
5, 18033, Note_on_c, 3, 49, 64
5, 18093, Note_off_c, 3, 49, 70
5, 18093, Note_on_c, 3, 47, 64
5, 18153, Note_off_c, 3, 47, 49
5, 18153, Note_on_c, 3, 49, 64
5, 18213, Note_off_c, 3, 49, 53
5, 18213, Note_on_c, 3, 45, 64
5, 18273, Note_off_c, 3, 45, 48
5, 18273, Note_on_c, 3, 45, 64
5, 18513, Note_off_c, 3, 45, 69
5, 18753, Note_on_c, 3, 52, 72
5, 18783, Note_off_c, 3, 52, 47
5, 18783, Note_on_c, 3, 54, 42
5, 18813, Note_off_c, 3, 54, 49
5, 18813, Note_on_c, 3, 55, 45
5, 18843, Note_off_c, 3, 55, 52
5, 18843, Note_on_c, 3, 57, 48
5, 18873, Note_off_c, 3, 57, 47
5, 18873, Note_on_c, 3, 55, 51
5, 18903, Note_off_c, 3, 55, 49
5, 18903, Note_on_c, 3, 54, 53
5, 18933, Note_off_c, 3, 54, 52
5, 18933, Note_on_c, 3, 55, 56
5, 18963, Note_off_c, 3, 55, 43
5, 18963, Note_on_c, 3, 52, 59
5, 18993, Note_off_c, 3, 52, 55
5, 18993, Note_on_c, 3, 57, 64
5, 19233, Note_off_c, 3, 57, 52
5, 19233, Note_on_c, 3, 50, 72
5, 19263, Note_off_c, 3, 50, 47
5, 19263, Note_on_c, 3, 52, 41
5, 19293, Note_off_c, 3, 52, 47
5, 19293, Note_on_c, 3, 54, 44
5, 19323, Note_off_c, 3, 54, 62
5, 19323, Note_on_c, 3, 55, 47
5, 19353, Note_off_c, 3, 55, 54
5, 19353, Note_on_c, 3, 54, 50
5, 19383, Note_off_c, 3, 54, 57
5, 19383, Note_on_c, 3, 52, 53
5, 19413, Note_off_c, 3, 52, 55
5, 19413, Note_on_c, 3, 54, 56
5, 19443, Note_off_c, 3, 54, 48
5, 19443, Note_on_c, 3, 50, 59
5, 19473, Note_off_c, 3, 50, 50
5, 19473, Note_on_c, 3, 55, 64
5, 19593, Note_off_c, 3, 55, 63
5, 20193, Note_on_c, 3, 43, 64
5, 20433, Note_off_c, 3, 43, 69
5, 20433, Note_on_c, 3, 54, 72
5, 20463, Note_off_c, 3, 54, 51
5, 20463, Note_on_c, 3, 55, 40
5, 20493, Note_off_c, 3, 55, 52
5, 20493, Note_on_c, 3, 57, 42
5, 20523, Note_off_c, 3, 57, 49
5, 20523, Note_on_c, 3, 55, 43
5, 20553, Note_off_c, 3, 55, 49
5, 20553, Note_on_c, 3, 54, 44
5, 20583, Note_off_c, 3, 54, 39
5, 20583, Note_on_c, 3, 52, 46
5, 20613, Note_off_c, 3, 52, 66
5, 20613, Note_on_c, 3, 50, 47
5, 20643, Note_off_c, 3, 50, 72
5, 20643, Note_on_c, 3, 49, 48
5, 20673, Note_off_c, 3, 49, 58
5, 20673, Note_on_c, 3, 47, 50
5, 20703, Note_off_c, 3, 47, 50
5, 20703, Note_on_c, 3, 49, 51
5, 20733, Note_off_c, 3, 49, 62
5, 20733, Note_on_c, 3, 50, 52
5, 20763, Note_off_c, 3, 50, 49
5, 20763, Note_on_c, 3, 49, 54
5, 20793, Note_off_c, 3, 49, 51
5, 20793, Note_on_c, 3, 47, 55
5, 20823, Note_off_c, 3, 47, 46
5, 20823, Note_on_c, 3, 45, 56
5, 20853, Note_off_c, 3, 45, 39
5, 20853, Note_on_c, 3, 47, 58
5, 20883, Note_off_c, 3, 47, 61
5, 20883, Note_on_c, 3, 43, 59
5, 20913, Note_off_c, 3, 43, 53
5, 20913, Note_on_c, 3, 45, 64
5, 21093, Note_off_c, 3, 45, 54
5, 21093, Note_on_c, 3, 45, 64
5, 21153, Note_off_c, 3, 45, 54
5, 21153, Note_on_c, 3, 38, 64
5, 21303, Note_off_c, 3, 38, 40
5, 21303, Note_on_c, 3, 50, 64
5, 21333, Note_off_c, 3, 50, 41
5, 21333, Note_on_c, 3, 52, 64
5, 21363, Note_off_c, 3, 52, 46
5, 21363, Note_on_c, 3, 54, 64
5, 21393, Note_off_c, 3, 54, 43
5, 21393, Note_on_c, 3, 55, 64
5, 21633, Note_off_c, 3, 55, 70
5, 21633, Note_on_c, 3, 49, 72
5, 21663, Note_off_c, 3, 49, 55
5, 21663, Note_on_c, 3, 50, 42
5, 21693, Note_off_c, 3, 50, 43
5, 21693, Note_on_c, 3, 52, 45
5, 21723, Note_off_c, 3, 52, 35
5, 21723, Note_on_c, 3, 54, 47
5, 21753, Note_off_c, 3, 54, 47
5, 21753, Note_on_c, 3, 52, 50
5, 21783, Note_off_c, 3, 52, 43
5, 21783, Note_on_c, 3, 50, 53
5, 21813, Note_off_c, 3, 50, 47
5, 21813, Note_on_c, 3, 52, 56
5, 21843, Note_off_c, 3, 52, 61
5, 21843, Note_on_c, 3, 49, 59
5, 21873, Note_off_c, 3, 49, 58
5, 21873, Note_on_c, 3, 54, 64
5, 22113, Note_off_c, 3, 54, 52
5, 22113, Note_on_c, 3, 47, 72
5, 22143, Note_off_c, 3, 47, 39
5, 22143, Note_on_c, 3, 49, 41
5, 22173, Note_off_c, 3, 49, 52
5, 22173, Note_on_c, 3, 50, 44
5, 22203, Note_off_c, 3, 50, 55
5, 22203, Note_on_c, 3, 52, 47
5, 22233, Note_off_c, 3, 52, 59
5, 22233, Note_on_c, 3, 50, 50
5, 22263, Note_off_c, 3, 50, 52
5, 22263, Note_on_c, 3, 49, 53
5, 22293, Note_off_c, 3, 49, 50
5, 22293, Note_on_c, 3, 50, 56
5, 22323, Note_off_c, 3, 50, 52
5, 22323, Note_on_c, 3, 47, 59
5, 22353, Note_off_c, 3, 47, 49
5, 22353, Note_on_c, 3, 52, 70
5, 22383, Note_off_c, 3, 52, 46
5, 22383, Note_on_c, 3, 54, 64
5, 22413, Note_off_c, 3, 54, 37
5, 22413, Note_on_c, 3, 55, 42
5, 22443, Note_off_c, 3, 55, 43
5, 22443, Note_on_c, 3, 57, 46
5, 22473, Note_off_c, 3, 57, 37
5, 22473, Note_on_c, 3, 55, 49
5, 22503, Note_off_c, 3, 55, 39
5, 22503, Note_on_c, 3, 54, 52
5, 22533, Note_off_c, 3, 54, 39
5, 22533, Note_on_c, 3, 55, 56
5, 22563, Note_off_c, 3, 55, 41
5, 22563, Note_on_c, 3, 52, 59
5, 22593, Note_off_c, 3, 52, 66
5, 22593, Note_on_c, 3, 57, 70
5, 22623, Note_off_c, 3, 57, 34
5, 22623, Note_on_c, 3, 59, 41
5, 22653, Note_off_c, 3, 59, 39
5, 22653, Note_on_c, 3, 61, 44
5, 22683, Note_off_c, 3, 61, 46
5, 22683, Note_on_c, 3, 62, 47
5, 22713, Note_off_c, 3, 62, 40
5, 22713, Note_on_c, 3, 61, 50
5, 22743, Note_off_c, 3, 61, 52
5, 22743, Note_on_c, 3, 59, 53
5, 22773, Note_off_c, 3, 59, 43
5, 22773, Note_on_c, 3, 61, 56
5, 22803, Note_off_c, 3, 61, 50
5, 22803, Note_on_c, 3, 57, 59
5, 22833, Note_off_c, 3, 57, 58
5, 22833, Note_on_c, 3, 62, 70
5, 22863, Note_off_c, 3, 62, 40
5, 22863, Note_on_c, 3, 64, 41
5, 22893, Note_off_c, 3, 64, 39
5, 22893, Note_on_c, 3, 66, 44
5, 22923, Note_off_c, 3, 66, 13
5, 22923, Note_on_c, 3, 67, 47
5, 22953, Note_off_c, 3, 67, 41
5, 22953, Note_on_c, 3, 66, 50
5, 22983, Note_off_c, 3, 66, 65
5, 22983, Note_on_c, 3, 64, 53
5, 23013, Note_off_c, 3, 64, 36
5, 23013, Note_on_c, 3, 66, 56
5, 23043, Note_off_c, 3, 66, 61
5, 23043, Note_on_c, 3, 62, 59
5, 23073, Note_off_c, 3, 62, 42
5, 23073, Note_on_c, 3, 67, 64
5, 23253, Note_off_c, 3, 67, 27
5, 23253, Note_on_c, 3, 55, 64
5, 23313, Note_off_c, 3, 55, 69
5, 23313, Note_on_c, 3, 54, 64
5, 23493, Note_off_c, 3, 54, 34
5, 23493, Note_on_c, 3, 52, 64
5, 23553, Note_off_c, 3, 52, 58
5, 23553, Note_on_c, 3, 50, 64
5, 23733, Note_off_c, 3, 50, 49
5, 23733, Note_on_c, 3, 48, 64
5, 23793, Note_off_c, 3, 48, 37
5, 23793, Note_on_c, 3, 47, 64
5, 23973, Note_off_c, 3, 47, 49
5, 23973, Note_on_c, 3, 45, 64
5, 24033, Note_off_c, 3, 45, 50
5, 24033, Note_on_c, 3, 43, 64
5, 24213, Note_off_c, 3, 43, 48
5, 24213, Note_on_c, 3, 42, 64
5, 24273, Note_off_c, 3, 42, 59
5, 24273, Note_on_c, 3, 40, 64
5, 24453, Note_off_c, 3, 40, 39
5, 24453, Note_on_c, 3, 38, 64
5, 24513, Note_off_c, 3, 38, 48
5, 24513, Note_on_c, 3, 45, 64
5, 24988, Note_off_c, 3, 45, 65
5, 24993, Note_on_c, 3, 38, 64
5, 25953, Note_off_c, 3, 38, 63
5, 25953, End_track
0, 0, End_of_file
