0, 0, Header, 1, 2, 240
1, 0, Start_track
1, 0, Time_signature, 4, 1, 48, 8
1, 0, Tempo, 394737
1, 80640, Tempo, 408163
1, 80808, Tempo, 419580
1, 81060, Tempo, 428571
1, 81456, Tempo, 454545
1, 81672, Tempo, 483871
1, 82560, Tempo, 394737
1, 82560, End_track
2, 0, Start_track
2, 0, Program_c, 0, 0
2, 0, Note_on_c, 0, 52, 64
2, 960, Note_off_c, 0, 52, 64
2, 960, Note_on_c, 0, 54, 64
2, 1440, Note_off_c, 0, 54, 64
2, 1440, Note_on_c, 0, 57, 64
2, 1920, Note_off_c, 0, 57, 64
2, 1920, Note_on_c, 0, 56, 64
2, 2400, Note_off_c, 0, 56, 64
2, 2400, Note_on_c, 0, 54, 64
2, 2880, Note_off_c, 0, 54, 64
2, 2880, Note_on_c, 0, 59, 64
2, 2880, Note_on_c, 0, 52, 64
2, 3120, Note_off_c, 0, 52, 64
2, 3120, Note_on_c, 0, 51, 64
2, 3240, Note_off_c, 0, 51, 64
2, 3240, Note_on_c, 0, 49, 64
2, 3360, Note_off_c, 0, 49, 64
2, 3360, Note_on_c, 0, 51, 64
2, 3600, Note_off_c, 0, 51, 64
2, 3600, Note_on_c, 0, 47, 64
2, 3840, Note_off_c, 0, 47, 64
2, 3840, Note_off_c, 0, 59, 64
2, 3840, Note_on_c, 0, 61, 64
2, 3840, Note_on_c, 0, 52, 64
2, 4080, Note_off_c, 0, 52, 64
2, 4080, Note_on_c, 0, 54, 64
2, 4320, Note_off_c, 0, 54, 64
2, 4320, Note_off_c, 0, 61, 64
2, 4320, Note_on_c, 0, 64, 64
2, 4320, Note_on_c, 0, 56, 64
2, 4560, Note_off_c, 0, 56, 64
2, 4560, Note_on_c, 0, 58, 64
2, 4800, Note_off_c, 0, 58, 64
2, 4800, Note_off_c, 0, 64, 64
2, 4800, Note_on_c, 0, 63, 64
2, 4800, Note_on_c, 0, 59, 64
2, 4920, Note_off_c, 0, 59, 64
2, 4920, Note_on_c, 0, 54, 64
2, 5040, Note_off_c, 0, 54, 64
2, 5040, Note_on_c, 0, 59, 64
2, 5280, Note_off_c, 0, 63, 64
2, 5280, Note_on_c, 0, 61, 64
2, 5520, Note_off_c, 0, 59, 64
2, 5520, Note_on_c, 0, 57, 64
2, 5760, Note_off_c, 0, 61, 64
2, 5760, Note_on_c, 0, 64, 64
2, 5760, Note_on_c, 0, 59, 64
2, 6000, Note_off_c, 0, 57, 64
2, 6000, Note_on_c, 0, 56, 64
2, 6120, Note_off_c, 0, 56, 64
2, 6120, Note_on_c, 0, 54, 64
2, 6240, Note_off_c, 0, 54, 64
2, 6240, Note_on_c, 0, 56, 64
2, 6480, Note_off_c, 0, 59, 64
2, 6480, Note_on_c, 0, 59, 64
2, 6720, Note_off_c, 0, 59, 64
2, 6720, Note_off_c, 0, 64, 64
2, 6720, Note_on_c, 0, 66, 64
2, 6720, Note_on_c, 0, 57, 64
2, 6960, Note_off_c, 0, 57, 64
2, 6960, Note_on_c, 0, 59, 64
2, 7200, Note_off_c, 0, 59, 64
2, 7200, Note_off_c, 0, 66, 64
2, 7200, Note_off_c, 0, 56, 64
2, 7200, Note_on_c, 0, 54, 64
2, 7200, Note_on_c, 0, 69, 64
2, 7200, Note_on_c, 0, 61, 64
2, 7440, Note_off_c, 0, 61, 64
2, 7440, Note_on_c, 0, 63, 64
2, 7680, Note_off_c, 0, 63, 64
2, 7680, Note_off_c, 0, 69, 64
2, 7680, Note_off_c, 0, 54, 64
2, 7680, Note_on_c, 0, 68, 64
2, 7680, Note_on_c, 0, 64, 64
2, 7680, Note_on_c, 0, 56, 64
2, 7800, Note_off_c, 0, 64, 64
2, 7800, Note_on_c, 0, 59, 64
2, 7920, Note_off_c, 0, 59, 64
2, 7920, Note_on_c, 0, 64, 64
2, 8160, Note_off_c, 0, 56, 64
2, 8160, Note_off_c, 0, 68, 64
2, 8160, Note_on_c, 0, 66, 64
2, 8160, Note_on_c, 0, 57, 64
2, 8400, Note_off_c, 0, 57, 64
2, 8400, Note_off_c, 0, 64, 64
2, 8400, Note_on_c, 0, 63, 64
2, 8400, Note_on_c, 0, 59, 64
2, 8520, Note_off_c, 0, 59, 64
2, 8520, Note_on_c, 0, 57, 64
2, 8640, Note_off_c, 0, 57, 64
2, 8640, Note_off_c, 0, 63, 64
2, 8640, Note_off_c, 0, 66, 64
2, 8640, Note_on_c, 0, 71, 64
2, 8640, Note_on_c, 0, 64, 64
2, 8640, Note_on_c, 0, 64, 64
2, 8640, Note_on_c, 0, 56, 64
2, 8880, Note_off_c, 0, 56, 64
2, 8880, Note_on_c, 0, 54, 64
2, 9120, Note_off_c, 0, 54, 64
2, 9120, Note_off_c, 0, 64, 64
2, 9120, Note_off_c, 0, 64, 64
2, 9120, Note_on_c, 0, 56, 64
2, 9120, Note_on_c, 0, 52, 64
2, 9360, Note_off_c, 0, 52, 64
2, 9360, Note_off_c, 0, 56, 64
2, 9360, Note_on_c, 0, 59, 64
2, 9360, Note_on_c, 0, 51, 64
2, 9360, Note_on_c, 0, 54, 64
2, 9600, Note_off_c, 0, 54, 64
2, 9600, Note_off_c, 0, 51, 64
2, 9600, Note_off_c, 0, 59, 64
2, 9600, Note_off_c, 0, 71, 64
2, 9600, Note_on_c, 0, 73, 64
2, 9600, Note_on_c, 0, 64, 64
2, 9600, Note_on_c, 0, 56, 64
2, 9600, Note_on_c, 0, 49, 64
2, 9840, Note_off_c, 0, 64, 64
2, 9840, Note_on_c, 0, 66, 64
2, 10080, Note_off_c, 0, 66, 64
2, 10080, Note_off_c, 0, 56, 64
2, 10080, Note_off_c, 0, 73, 64
2, 10080, Note_on_c, 0, 76, 64
2, 10080, Note_on_c, 0, 68, 64
2, 10080, Note_on_c, 0, 52, 64
2, 10320, Note_off_c, 0, 68, 64
2, 10320, Note_on_c, 0, 70, 64
2, 10560, Note_off_c, 0, 70, 64
2, 10560, Note_off_c, 0, 52, 64
2, 10560, Note_off_c, 0, 76, 64
2, 10560, Note_off_c, 0, 49, 64
2, 10560, Note_on_c, 0, 54, 64
2, 10560, Note_on_c, 0, 75, 64
2, 10560, Note_on_c, 0, 71, 64
2, 10560, Note_on_c, 0, 47, 64
2, 10680, Note_off_c, 0, 71, 64
2, 10680, Note_on_c, 0, 66, 64
2, 10800, Note_off_c, 0, 66, 64
2, 10800, Note_on_c, 0, 71, 64
2, 11040, Note_off_c, 0, 47, 64
2, 11040, Note_off_c, 0, 75, 64
2, 11040, Note_on_c, 0, 42, 64
2, 11040, Note_on_c, 0, 73, 64
2, 11280, Note_off_c, 0, 71, 64
2, 11280, Note_on_c, 0, 69, 64
2, 11520, Note_off_c, 0, 73, 64
2, 11520, Note_off_c, 0, 42, 64
2, 11520, Note_on_c, 0, 71, 64
2, 11520, Note_on_c, 0, 44, 64
2, 11760, Note_off_c, 0, 69, 64
2, 11760, Note_off_c, 0, 54, 64
2, 11760, Note_on_c, 0, 68, 64
2, 11760, Note_on_c, 0, 47, 64
2, 11880, Note_off_c, 0, 68, 64
2, 11880, Note_on_c, 0, 66, 64
2, 12000, Note_off_c, 0, 66, 64
2, 12000, Note_off_c, 0, 47, 64
2, 12000, Note_on_c, 0, 68, 64
2, 12000, Note_on_c, 0, 52, 64
2, 12240, Note_off_c, 0, 44, 64
2, 12240, Note_on_c, 0, 40, 64
2, 12480, Note_off_c, 0, 40, 64
2, 12480, Note_off_c, 0, 68, 64
2, 12480, Note_on_c, 0, 61, 64
2, 12480, Note_on_c, 0, 45, 64
2, 12720, Note_off_c, 0, 52, 64
2, 12720, Note_off_c, 0, 71, 64
2, 12720, Note_on_c, 0, 69, 64
2, 12720, Note_on_c, 0, 49, 64
2, 12840, Note_off_c, 0, 69, 64
2, 12840, Note_on_c, 0, 68, 64
2, 12960, Note_off_c, 0, 68, 64
2, 12960, Note_off_c, 0, 49, 64
2, 12960, Note_on_c, 0, 54, 64
2, 12960, Note_on_c, 0, 69, 64
2, 13200, Note_off_c, 0, 45, 64
2, 13200, Note_off_c, 0, 61, 64
2, 13200, Note_on_c, 0, 42, 64
2, 13200, Note_on_c, 0, 63, 64
2, 13320, Note_off_c, 0, 63, 64
2, 13320, Note_on_c, 0, 64, 64
2, 13440, Note_off_c, 0, 64, 64
2, 13440, Note_off_c, 0, 42, 64
2, 13440, Note_on_c, 0, 47, 64
2, 13440, Note_on_c, 0, 63, 64
2, 13680, Note_off_c, 0, 54, 64
2, 13680, Note_on_c, 0, 52, 64
2, 13800, Note_off_c, 0, 52, 64
2, 13800, Note_on_c, 0, 54, 64
2, 13920, Note_off_c, 0, 54, 64
2, 13920, Note_off_c, 0, 63, 64
2, 13920, Note_off_c, 0, 69, 64
2, 13920, Note_on_c, 0, 68, 64
2, 13920, Note_on_c, 0, 64, 64
2, 13920, Note_on_c, 0, 56, 64
2, 14160, Note_off_c, 0, 56, 64
2, 14160, Note_on_c, 0, 57, 64
2, 14400, Note_off_c, 0, 57, 64
2, 14400, Note_off_c, 0, 68, 64
2, 14400, Note_on_c, 0, 66, 64
2, 14400, Note_on_c, 0, 59, 64
2, 14520, Note_off_c, 0, 59, 64
2, 14520, Note_on_c, 0, 54, 64
2, 14640, Note_off_c, 0, 54, 64
2, 14640, Note_off_c, 0, 64, 64
2, 14640, Note_on_c, 0, 63, 64
2, 14640, Note_on_c, 0, 59, 64
2, 14880, Note_off_c, 0, 63, 64
2, 14880, Note_off_c, 0, 66, 64
2, 14880, Note_on_c, 0, 64, 64
2, 14880, Note_on_c, 0, 61, 64
2, 15120, Note_off_c, 0, 59, 64
2, 15120, Note_on_c, 0, 58, 64
2, 15360, Note_off_c, 0, 58, 64
2, 15360, Note_off_c, 0, 61, 64
2, 15360, Note_off_c, 0, 64, 64
2, 15360, Note_on_c, 0, 59, 64
2, 15360, Note_on_c, 0, 63, 64
2, 15360, Note_on_c, 0, 54, 64
2, 15840, Note_off_c, 0, 54, 64
2, 15840, Note_off_c, 0, 63, 64
2, 15840, Note_off_c, 0, 47, 64
2, 15840, Note_off_c, 0, 59, 64
2, 15840, Note_on_c, 0, 59, 64
2, 16320, Note_off_c, 0, 59, 64
2, 16320, Note_on_c, 0, 52, 64
2, 16320, Note_on_c, 0, 61, 64
2, 16800, Note_off_c, 0, 61, 64
2, 16800, Note_on_c, 0, 64, 64
2, 17280, Note_off_c, 0, 64, 64
2, 17280, Note_off_c, 0, 52, 64
2, 17280, Note_on_c, 0, 63, 64
2, 17280, Note_on_c, 0, 54, 64
2, 17760, Note_off_c, 0, 54, 64
2, 17760, Note_off_c, 0, 63, 64
2, 17760, Note_on_c, 0, 61, 64
2, 17760, Note_on_c, 0, 57, 64
2, 18240, Note_off_c, 0, 57, 64
2, 18240, Note_off_c, 0, 61, 64
2, 18240, Note_on_c, 0, 47, 64
2, 18240, Note_on_c, 0, 59, 64
2, 18240, Note_on_c, 0, 56, 64
2, 18480, Note_off_c, 0, 59, 64
2, 18480, Note_on_c, 0, 64, 64
2, 18720, Note_off_c, 0, 56, 64
2, 18720, Note_on_c, 0, 54, 64
2, 18960, Note_off_c, 0, 64, 64
2, 18960, Note_on_c, 0, 63, 64
2, 19200, Note_off_c, 0, 54, 64
2, 19200, Note_off_c, 0, 47, 64
2, 19200, Note_on_c, 0, 64, 64
2, 19200, Note_on_c, 0, 52, 64
2, 19200, Note_on_c, 0, 49, 64
2, 19440, Note_off_c, 0, 52, 64
2, 19440, Note_off_c, 0, 63, 64
2, 19440, Note_on_c, 0, 61, 64
2, 19440, Note_on_c, 0, 57, 64
2, 19680, Note_off_c, 0, 49, 64
2, 19680, Note_on_c, 0, 52, 64
2, 19920, Note_off_c, 0, 57, 64
2, 19920, Note_off_c, 0, 61, 64
2, 19920, Note_on_c, 0, 59, 64
2, 19920, Note_on_c, 0, 56, 64
2, 20040, Note_off_c, 0, 59, 64
2, 20040, Note_on_c, 0, 58, 64
2, 20160, Note_off_c, 0, 58, 64
2, 20160, Note_off_c, 0, 56, 64
2, 20160, Note_off_c, 0, 52, 64
2, 20160, Note_off_c, 0, 64, 64
2, 20160, Note_on_c, 0, 66, 64
2, 20160, Note_on_c, 0, 59, 64
2, 20160, Note_on_c, 0, 54, 64
2, 20160, Note_on_c, 0, 51, 64
2, 20400, Note_off_c, 0, 54, 64
2, 20400, Note_off_c, 0, 59, 64
2, 20400, Note_on_c, 0, 66, 64
2, 20400, Note_on_c, 0, 52, 64
2, 20520, Note_off_c, 0, 52, 64
2, 20520, Note_on_c, 0, 51, 64
2, 20640, Note_off_c, 0, 51, 64
2, 20640, Note_off_c, 0, 51, 64
2, 20640, Note_off_c, 0, 66, 64
2, 20640, Note_on_c, 0, 69, 64
2, 20640, Note_on_c, 0, 49, 64
2, 20640, Note_on_c, 0, 52, 64
2, 20880, Note_off_c, 0, 52, 64
2, 20880, Note_off_c, 0, 66, 64
2, 20880, Note_on_c, 0, 54, 64
2, 20880, Note_on_c, 0, 64, 64
2, 21000, Note_off_c, 0, 64, 64
2, 21000, Note_on_c, 0, 63, 64
2, 21120, Note_off_c, 0, 63, 64
2, 21120, Note_off_c, 0, 54, 64
2, 21120, Note_off_c, 0, 49, 64
2, 21120, Note_off_c, 0, 69, 64
2, 21120, Note_on_c, 0, 68, 64
2, 21120, Note_on_c, 0, 64, 64
2, 21120, Note_on_c, 0, 56, 64
2, 21120, Note_on_c, 0, 47, 64
2, 21360, Note_off_c, 0, 56, 64
2, 21360, Note_on_c, 0, 57, 64
2, 21600, Note_off_c, 0, 57, 64
2, 21600, Note_off_c, 0, 68, 64
2, 21600, Note_on_c, 0, 66, 64
2, 21600, Note_on_c, 0, 59, 64
2, 21720, Note_off_c, 0, 59, 64
2, 21720, Note_on_c, 0, 54, 64
2, 21840, Note_off_c, 0, 54, 64
2, 21840, Note_off_c, 0, 64, 64
2, 21840, Note_on_c, 0, 63, 64
2, 21840, Note_on_c, 0, 57, 64
2, 22080, Note_off_c, 0, 57, 64
2, 22080, Note_off_c, 0, 63, 64
2, 22080, Note_off_c, 0, 66, 64
2, 22080, Note_off_c, 0, 47, 64
2, 22080, Note_on_c, 0, 61, 64
2, 22080, Note_on_c, 0, 65, 64
2, 22080, Note_on_c, 0, 56, 64
2, 22080, Note_on_c, 0, 47, 64
2, 22320, Note_off_c, 0, 65, 64
2, 22320, Note_on_c, 0, 66, 64
2, 22560, Note_off_c, 0, 66, 64
2, 22560, Note_off_c, 0, 47, 64
2, 22560, Note_off_c, 0, 56, 64
2, 22560, Note_on_c, 0, 45, 64
2, 22560, Note_on_c, 0, 54, 64
2, 22560, Note_on_c, 0, 68, 64
2, 22800, Note_off_c, 0, 68, 64
2, 22800, Note_on_c, 0, 69, 64
2, 23040, Note_off_c, 0, 69, 64
2, 23040, Note_off_c, 0, 45, 64
2, 23040, Note_off_c, 0, 61, 64
2, 23040, Note_on_c, 0, 71, 64
2, 23040, Note_on_c, 0, 59, 64
2, 23040, Note_on_c, 0, 44, 64
2, 23280, Note_off_c, 0, 59, 64
2, 23280, Note_off_c, 0, 71, 64
2, 23280, Note_on_c, 0, 66, 64
2, 23280, Note_on_c, 0, 61, 64
2, 23520, Note_off_c, 0, 61, 64
2, 23520, Note_off_c, 0, 66, 64
2, 23520, Note_off_c, 0, 54, 64
2, 23520, Note_on_c, 0, 71, 64
2, 23520, Note_on_c, 0, 63, 64
2, 23520, Note_on_c, 0, 52, 64
2, 23760, Note_off_c, 0, 63, 64
2, 23760, Note_on_c, 0, 64, 64
2, 24000, Note_off_c, 0, 64, 64
2, 24000, Note_off_c, 0, 52, 64
2, 24000, Note_off_c, 0, 44, 64
2, 24000, Note_on_c, 0, 42, 64
2, 24000, Note_on_c, 0, 66, 64
2, 24000, Note_on_c, 0, 51, 64
2, 24240, Note_off_c, 0, 51, 64
2, 24240, Note_off_c, 0, 66, 64
2, 24240, Note_off_c, 0, 42, 64
2, 24240, Note_on_c, 0, 61, 64
2, 24240, Note_on_c, 0, 53, 64
2, 24240, Note_on_c, 0, 44, 64
2, 24480, Note_off_c, 0, 44, 64
2, 24480, Note_off_c, 0, 53, 64
2, 24480, Note_off_c, 0, 61, 64
2, 24480, Note_off_c, 0, 71, 64
2, 24480, Note_on_c, 0, 54, 64
2, 24480, Note_on_c, 0, 66, 64
2, 24480, Note_on_c, 0, 69, 64
2, 24480, Note_on_c, 0, 45, 64
2, 24720, Note_off_c, 0, 45, 64
2, 24720, Note_on_c, 0, 47, 64
2, 24960, Note_off_c, 0, 47, 64
2, 24960, Note_off_c, 0, 69, 64
2, 24960, Note_off_c, 0, 54, 64
2, 24960, Note_on_c, 0, 49, 64
2, 24960, Note_on_c, 0, 68, 64
2, 25200, Note_off_c, 0, 49, 64
2, 25200, Note_on_c, 0, 51, 64
2, 25200, Note_on_c, 0, 44, 64
2, 25440, Note_off_c, 0, 44, 64
2, 25440, Note_off_c, 0, 51, 64
2, 25440, Note_off_c, 0, 66, 64
2, 25440, Note_on_c, 0, 64, 64
2, 25440, Note_on_c, 0, 52, 64
2, 25440, Note_on_c, 0, 49, 64
2, 25680, Note_off_c, 0, 52, 64
2, 25680, Note_on_c, 0, 54, 64
2, 25920, Note_off_c, 0, 54, 64
2, 25920, Note_off_c, 0, 64, 64
2, 25920, Note_on_c, 0, 63, 64
2, 25920, Note_on_c, 0, 56, 64
2, 26160, Note_off_c, 0, 56, 64
2, 26160, Note_on_c, 0, 51, 64
2, 26400, Note_off_c, 0, 51, 64
2, 26400, Note_off_c, 0, 49, 64
2, 26400, Note_on_c, 0, 56, 64
2, 26400, Note_on_c, 0, 47, 64
2, 26640, Note_off_c, 0, 68, 64
2, 26640, Note_on_c, 0, 69, 64
2, 26760, Note_off_c, 0, 69, 64
2, 26760, Note_on_c, 0, 71, 64
2, 26880, Note_off_c, 0, 71, 64
2, 26880, Note_off_c, 0, 47, 64
2, 26880, Note_off_c, 0, 63, 64
2, 26880, Note_on_c, 0, 73, 64
2, 26880, Note_on_c, 0, 61, 64
2, 26880, Note_on_c, 0, 45, 64
2, 27120, Note_off_c, 0, 61, 64
2, 27120, Note_off_c, 0, 73, 64
2, 27120, Note_on_c, 0, 72, 64
2, 27120, Note_on_c, 0, 63, 64
2, 27360, Note_off_c, 0, 63, 64
2, 27360, Note_off_c, 0, 72, 64
2, 27360, Note_off_c, 0, 56, 64
2, 27360, Note_on_c, 0, 73, 64
2, 27360, Note_on_c, 0, 64, 64
2, 27360, Note_on_c, 0, 54, 64
2, 27600, Note_off_c, 0, 64, 64
2, 27600, Note_off_c, 0, 73, 64
2, 27600, Note_on_c, 0, 75, 64
2, 27600, Note_on_c, 0, 66, 64
2, 27840, Note_off_c, 0, 66, 64
2, 27840, Note_off_c, 0, 75, 64
2, 27840, Note_off_c, 0, 45, 64
2, 27840, Note_on_c, 0, 44, 64
2, 27840, Note_on_c, 0, 72, 64
2, 27840, Note_on_c, 0, 68, 64
2, 28080, Note_off_c, 0, 72, 64
2, 28080, Note_off_c, 0, 54, 64
2, 28080, Note_on_c, 0, 73, 64
2, 28080, Note_on_c, 0, 52, 64
2, 28320, Note_off_c, 0, 52, 64
2, 28320, Note_off_c, 0, 68, 64
2, 28320, Note_on_c, 0, 51, 64
2, 28320, Note_on_c, 0, 66, 64
2, 28560, Note_off_c, 0, 73, 64
2, 28560, Note_on_c, 0, 72, 64
2, 28800, Note_off_c, 0, 72, 64
2, 28800, Note_off_c, 0, 66, 64
2, 28800, Note_off_c, 0, 51, 64
2, 28800, Note_off_c, 0, 44, 64
2, 28800, Note_on_c, 0, 73, 64
2, 28800, Note_on_c, 0, 64, 64
2, 28800, Note_on_c, 0, 49, 64
2, 29040, Note_on_c, 0, 56, 64
2, 29280, Note_off_c, 0, 56, 64
2, 29280, Note_off_c, 0, 49, 64
2, 29280, Note_on_c, 0, 61, 64
2, 29520, Note_on_c, 0, 49, 64
2, 29760, Note_off_c, 0, 49, 64
2, 29760, Note_off_c, 0, 64, 64
2, 29760, Note_off_c, 0, 73, 64
2, 29760, Note_on_c, 0, 66, 64
2, 29760, Note_on_c, 0, 50, 64
2, 30000, Note_off_c, 0, 61, 64
2, 30000, Note_on_c, 0, 59, 64
2, 30120, Note_off_c, 0, 59, 64
2, 30120, Note_on_c, 0, 58, 64
2, 30240, Note_off_c, 0, 58, 64
2, 30240, Note_off_c, 0, 66, 64
2, 30240, Note_on_c, 0, 59, 64
2, 30240, Note_on_c, 0, 69, 64
2, 30480, Note_off_c, 0, 50, 64
2, 30480, Note_on_c, 0, 51, 64
2, 30720, Note_off_c, 0, 51, 64
2, 30720, Note_off_c, 0, 69, 64
2, 30720, Note_on_c, 0, 71, 64
2, 30720, Note_on_c, 0, 68, 64
2, 30720, Note_on_c, 0, 52, 64
2, 30960, Note_off_c, 0, 59, 64
2, 30960, Note_on_c, 0, 57, 64
2, 31080, Note_off_c, 0, 57, 64
2, 31080, Note_on_c, 0, 56, 64
2, 31200, Note_off_c, 0, 56, 64
2, 31200, Note_off_c, 0, 68, 64
2, 31200, Note_on_c, 0, 66, 64
2, 31200, Note_on_c, 0, 57, 64
2, 31440, Note_off_c, 0, 57, 64
2, 31440, Note_off_c, 0, 52, 64
2, 31440, Note_on_c, 0, 59, 64
2, 31440, Note_on_c, 0, 51, 64
2, 31560, Note_off_c, 0, 59, 64
2, 31560, Note_on_c, 0, 57, 64
2, 31680, Note_off_c, 0, 57, 64
2, 31680, Note_off_c, 0, 51, 64
2, 31680, Note_off_c, 0, 66, 64
2, 31680, Note_off_c, 0, 71, 64
2, 31680, Note_on_c, 0, 73, 64
2, 31680, Note_on_c, 0, 64, 64
2, 31680, Note_on_c, 0, 56, 64
2, 31680, Note_on_c, 0, 52, 64
2, 31920, Note_off_c, 0, 64, 64
2, 31920, Note_on_c, 0, 61, 64
2, 32160, Note_off_c, 0, 61, 64
2, 32160, Note_off_c, 0, 52, 64
2, 32160, Note_off_c, 0, 73, 64
2, 32160, Note_on_c, 0, 49, 64
2, 32160, Note_on_c, 0, 68, 64
2, 32160, Note_on_c, 0, 76, 64
2, 32400, Note_off_c, 0, 56, 64
2, 32400, Note_on_c, 0, 56, 64
2, 32640, Note_off_c, 0, 56, 64
2, 32640, Note_off_c, 0, 76, 64
2, 32640, Note_off_c, 0, 49, 64
2, 32640, Note_on_c, 0, 75, 64
2, 32640, Note_on_c, 0, 57, 64
2, 32640, Note_on_c, 0, 54, 64
2, 32880, Note_off_c, 0, 68, 64
2, 32880, Note_on_c, 0, 66, 64
2, 33000, Note_off_c, 0, 66, 64
2, 33000, Note_on_c, 0, 65, 64
2, 33120, Note_off_c, 0, 65, 64
2, 33120, Note_off_c, 0, 54, 64
2, 33120, Note_off_c, 0, 75, 64
2, 33120, Note_on_c, 0, 73, 64
2, 33120, Note_on_c, 0, 66, 64
2, 33120, Note_on_c, 0, 52, 64
2, 33360, Note_off_c, 0, 57, 64
2, 33360, Note_on_c, 0, 58, 64
2, 33600, Note_off_c, 0, 58, 64
2, 33600, Note_off_c, 0, 52, 64
2, 33600, Note_off_c, 0, 73, 64
2, 33600, Note_on_c, 0, 71, 64
2, 33600, Note_on_c, 0, 59, 64
2, 33600, Note_on_c, 0, 51, 64
2, 33840, Note_off_c, 0, 66, 64
2, 33840, Note_on_c, 0, 64, 64
2, 33960, Note_off_c, 0, 64, 64
2, 33960, Note_on_c, 0, 63, 64
2, 34080, Note_off_c, 0, 63, 64
2, 34080, Note_off_c, 0, 51, 64
2, 34080, Note_off_c, 0, 71, 64
2, 34080, Note_on_c, 0, 49, 64
2, 34080, Note_on_c, 0, 73, 64
2, 34080, Note_on_c, 0, 64, 64
2, 34320, Note_off_c, 0, 64, 64
2, 34320, Note_off_c, 0, 59, 64
2, 34320, Note_on_c, 0, 58, 64
2, 34320, Note_on_c, 0, 66, 64
2, 34440, Note_off_c, 0, 66, 64
2, 34440, Note_on_c, 0, 64, 64
2, 34560, Note_off_c, 0, 64, 64
2, 34560, Note_off_c, 0, 58, 64
2, 34560, Note_off_c, 0, 73, 64
2, 34560, Note_off_c, 0, 49, 64
2, 34560, Note_on_c, 0, 66, 64
2, 34560, Note_on_c, 0, 63, 64
2, 34560, Note_on_c, 0, 59, 64
2, 34560, Note_on_c, 0, 47, 64
2, 34800, Note_off_c, 0, 66, 64
2, 34800, Note_on_c, 0, 63, 64
2, 34920, Note_off_c, 0, 59, 64
2, 34920, Note_on_c, 0, 57, 64
2, 35040, Note_off_c, 0, 57, 64
2, 35040, Note_off_c, 0, 63, 64
2, 35040, Note_on_c, 0, 68, 64
2, 35040, Note_on_c, 0, 56, 64
2, 35160, Note_off_c, 0, 56, 64
2, 35160, Note_on_c, 0, 54, 64
2, 35280, Note_off_c, 0, 54, 64
2, 35280, Note_off_c, 0, 63, 64
2, 35280, Note_on_c, 0, 56, 64
2, 35280, Note_on_c, 0, 52, 64
2, 35400, Note_off_c, 0, 52, 64
2, 35400, Note_on_c, 0, 51, 64
2, 35520, Note_off_c, 0, 51, 64
2, 35520, Note_off_c, 0, 56, 64
2, 35520, Note_off_c, 0, 47, 64
2, 35520, Note_on_c, 0, 57, 64
2, 35520, Note_on_c, 0, 52, 64
2, 35520, Note_on_c, 0, 49, 64
2, 35760, Note_off_c, 0, 68, 64
2, 35760, Note_on_c, 0, 66, 64
2, 35880, Note_off_c, 0, 66, 64
2, 35880, Note_on_c, 0, 65, 64
2, 36000, Note_off_c, 0, 65, 64
2, 36000, Note_off_c, 0, 49, 64
2, 36000, Note_off_c, 0, 52, 64
2, 36000, Note_on_c, 0, 52, 64
2, 36000, Note_on_c, 0, 66, 64
2, 36240, Note_off_c, 0, 57, 64
2, 36240, Note_on_c, 0, 58, 64
2, 36480, Note_off_c, 0, 58, 64
2, 36480, Note_off_c, 0, 52, 64
2, 36480, Note_on_c, 0, 59, 64
2, 36480, Note_on_c, 0, 54, 64
2, 36480, Note_on_c, 0, 51, 64
2, 36720, Note_off_c, 0, 66, 64
2, 36720, Note_on_c, 0, 64, 64
2, 36840, Note_off_c, 0, 64, 64
2, 36840, Note_on_c, 0, 63, 64
2, 36960, Note_off_c, 0, 63, 64
2, 36960, Note_off_c, 0, 51, 64
2, 36960, Note_on_c, 0, 64, 64
2, 36960, Note_on_c, 0, 49, 64
2, 37200, Note_off_c, 0, 64, 64
2, 37200, Note_off_c, 0, 59, 64
2, 37200, Note_on_c, 0, 66, 64
2, 37200, Note_on_c, 0, 58, 64
2, 37320, Note_off_c, 0, 66, 64
2, 37320, Note_on_c, 0, 64, 64
2, 37440, Note_off_c, 0, 64, 64
2, 37440, Note_off_c, 0, 58, 64
2, 37440, Note_off_c, 0, 49, 64
2, 37440, Note_off_c, 0, 54, 64
2, 37440, Note_on_c, 0, 63, 64
2, 37440, Note_on_c, 0, 59, 64
2, 37440, Note_on_c, 0, 56, 64
2, 37440, Note_on_c, 0, 47, 64
2, 37680, Note_off_c, 0, 47, 64
2, 37680, Note_off_c, 0, 63, 64
2, 37680, Note_on_c, 0, 71, 64
2, 37680, Note_on_c, 0, 44, 64
2, 37920, Note_off_c, 0, 71, 64
2, 37920, Note_off_c, 0, 56, 64
2, 37920, Note_off_c, 0, 59, 64
2, 37920, Note_on_c, 0, 65, 64
2, 37920, Note_on_c, 0, 59, 64
2, 37920, Note_on_c, 0, 63, 64
2, 38160, Note_off_c, 0, 44, 64
2, 38160, Note_on_c, 0, 45, 64
2, 38280, Note_off_c, 0, 45, 64
2, 38280, Note_on_c, 0, 47, 64
2, 38400, Note_off_c, 0, 47, 64
2, 38400, Note_off_c, 0, 63, 64
2, 38400, Note_off_c, 0, 59, 64
2, 38400, Note_on_c, 0, 61, 64
2, 38400, Note_on_c, 0, 57, 64
2, 38400, Note_on_c, 0, 49, 64
2, 38640, Note_off_c, 0, 65, 64
2, 38640, Note_on_c, 0, 66, 64
2, 38880, Note_off_c, 0, 49, 64
2, 38880, Note_off_c, 0, 57, 64
2, 38880, Note_on_c, 0, 56, 64
2, 38880, Note_on_c, 0, 47, 64
2, 39120, Note_off_c, 0, 66, 64
2, 39120, Note_on_c, 0, 65, 64
2, 39360, Note_off_c, 0, 65, 64
2, 39360, Note_off_c, 0, 47, 64
2, 39360, Note_on_c, 0, 73, 64
2, 39360, Note_on_c, 0, 45, 64
2, 39600, Note_off_c, 0, 56, 64
2, 39600, Note_on_c, 0, 54, 64
2, 39840, Note_off_c, 0, 45, 64
2, 39840, Note_off_c, 0, 73, 64
2, 39840, Note_off_c, 0, 61, 64
2, 39840, Note_on_c, 0, 71, 64
2, 39840, Note_on_c, 0, 44, 64
2, 39840, Note_on_c, 0, 68, 64
2, 40080, Note_off_c, 0, 54, 64
2, 40080, Note_on_c, 0, 53, 64
2, 40320, Note_off_c, 0, 53, 64
2, 40320, Note_off_c, 0, 68, 64
2, 40320, Note_off_c, 0, 44, 64
2, 40320, Note_on_c, 0, 61, 64
2, 40320, Note_on_c, 0, 54, 64
2, 40320, Note_on_c, 0, 42, 64
2, 40560, Note_off_c, 0, 71, 64
2, 40560, Note_on_c, 0, 69, 64
2, 40800, Note_off_c, 0, 42, 64
2, 40800, Note_off_c, 0, 54, 64
2, 40800, Note_off_c, 0, 61, 64
2, 40800, Note_on_c, 0, 59, 64
2, 40800, Note_on_c, 0, 50, 64
2, 40800, Note_on_c, 0, 47, 64
2, 41040, Note_off_c, 0, 69, 64
2, 41040, Note_on_c, 0, 68, 64
2, 41280, Note_off_c, 0, 47, 64
2, 41280, Note_off_c, 0, 50, 64
2, 41280, Note_off_c, 0, 59, 64
2, 41280, Note_on_c, 0, 49, 64
2, 41280, Note_on_c, 0, 57, 64
2, 41520, Note_off_c, 0, 68, 64
2, 41520, Note_on_c, 0, 66, 64
2, 41760, Note_off_c, 0, 57, 64
2, 41760, Note_on_c, 0, 37, 64
2, 41760, Note_on_c, 0, 56, 64
2, 42000, Note_off_c, 0, 66, 64
2, 42000, Note_on_c, 0, 65, 64
2, 42240, Note_off_c, 0, 65, 64
2, 42240, Note_off_c, 0, 56, 64
2, 42240, Note_off_c, 0, 37, 64
2, 42240, Note_on_c, 0, 66, 64
2, 42240, Note_on_c, 0, 57, 64
2, 42240, Note_on_c, 0, 42, 64
2, 42480, Note_off_c, 0, 42, 64
2, 42480, Note_off_c, 0, 57, 64
2, 42480, Note_on_c, 0, 59, 64
2, 42480, Note_on_c, 0, 44, 64
2, 42720, Note_off_c, 0, 44, 64
2, 42720, Note_off_c, 0, 59, 64
2, 42720, Note_on_c, 0, 61, 64
2, 42720, Note_on_c, 0, 45, 64
2, 42960, Note_off_c, 0, 45, 64
2, 42960, Note_off_c, 0, 49, 64
2, 42960, Note_on_c, 0, 51, 64
2, 42960, Note_on_c, 0, 42, 64
2, 43200, Note_off_c, 0, 42, 64
2, 43200, Note_off_c, 0, 51, 64
2, 43200, Note_off_c, 0, 66, 64
2, 43200, Note_on_c, 0, 68, 64
2, 43200, Note_on_c, 0, 53, 64
2, 43200, Note_on_c, 0, 49, 64
2, 43440, Note_off_c, 0, 53, 64
2, 43440, Note_off_c, 0, 68, 64
2, 43440, Note_on_c, 0, 69, 64
2, 43440, Note_on_c, 0, 49, 64
2, 43680, Note_off_c, 0, 49, 64
2, 43680, Note_off_c, 0, 69, 64
2, 43680, Note_off_c, 0, 49, 64
2, 43680, Note_off_c, 0, 61, 64
2, 43680, Note_on_c, 0, 56, 64
2, 43680, Note_on_c, 0, 71, 64
2, 43680, Note_on_c, 0, 63, 64
2, 43680, Note_on_c, 0, 47, 64
2, 43920, Note_off_c, 0, 47, 64
2, 43920, Note_off_c, 0, 63, 64
2, 43920, Note_on_c, 0, 49, 64
2, 43920, Note_on_c, 0, 65, 64
2, 44160, Note_off_c, 0, 65, 64
2, 44160, Note_off_c, 0, 49, 64
2, 44160, Note_off_c, 0, 56, 64
2, 44160, Note_on_c, 0, 66, 64
2, 44160, Note_on_c, 0, 54, 64
2, 44160, Note_on_c, 0, 50, 64
2, 44400, Note_off_c, 0, 50, 64
2, 44400, Note_off_c, 0, 71, 64
2, 44400, Note_on_c, 0, 69, 64
2, 44400, Note_on_c, 0, 49, 64
2, 44640, Note_off_c, 0, 49, 64
2, 44640, Note_off_c, 0, 69, 64
2, 44640, Note_off_c, 0, 54, 64
2, 44640, Note_on_c, 0, 68, 64
2, 44640, Note_on_c, 0, 56, 64
2, 44640, Note_on_c, 0, 48, 64
2, 44880, Note_off_c, 0, 48, 64
2, 44880, Note_off_c, 0, 56, 64
2, 44880, Note_off_c, 0, 66, 64
2, 44880, Note_on_c, 0, 64, 64
2, 44880, Note_on_c, 0, 49, 64
2, 45120, Note_off_c, 0, 64, 64
2, 45120, Note_off_c, 0, 68, 64
2, 45120, Note_on_c, 0, 66, 64
2, 45120, Note_on_c, 0, 63, 64
2, 45120, Note_on_c, 0, 42, 64
2, 45360, Note_off_c, 0, 42, 64
2, 45360, Note_off_c, 0, 49, 64
2, 45360, Note_on_c, 0, 48, 64
2, 45360, Note_on_c, 0, 44, 64
2, 45600, Note_off_c, 0, 44, 64
2, 45600, Note_off_c, 0, 48, 64
2, 45600, Note_off_c, 0, 63, 64
2, 45600, Note_off_c, 0, 66, 64
2, 45600, Note_on_c, 0, 45, 64
2, 45600, Note_on_c, 0, 61, 64
2, 45600, Note_on_c, 0, 64, 64
2, 45600, Note_on_c, 0, 49, 64
2, 45840, Note_off_c, 0, 49, 64
2, 45840, Note_off_c, 0, 64, 64
2, 45840, Note_on_c, 0, 66, 64
2, 45840, Note_on_c, 0, 51, 64
2, 46080, Note_off_c, 0, 51, 64
2, 46080, Note_off_c, 0, 66, 64
2, 46080, Note_off_c, 0, 45, 64
2, 46080, Note_on_c, 0, 68, 64
2, 46080, Note_on_c, 0, 52, 64
2, 46080, Note_on_c, 0, 44, 64
2, 46320, Note_off_c, 0, 52, 64
2, 46320, Note_off_c, 0, 61, 64
2, 46320, Note_on_c, 0, 63, 64
2, 46320, Note_on_c, 0, 54, 64
2, 46440, Note_off_c, 0, 54, 64
2, 46440, Note_off_c, 0, 63, 64
2, 46440, Note_on_c, 0, 61, 64
2, 46440, Note_on_c, 0, 52, 64
2, 46560, Note_off_c, 0, 52, 64
2, 46560, Note_off_c, 0, 61, 64
2, 46560, Note_on_c, 0, 60, 64
2, 46560, Note_on_c, 0, 51, 64
2, 46800, Note_off_c, 0, 68, 64
2, 46800, Note_on_c, 0, 69, 64
2, 47040, Note_off_c, 0, 69, 64
2, 47040, Note_off_c, 0, 60, 64
2, 47040, Note_off_c, 0, 44, 64
2, 47040, Note_on_c, 0, 68, 64
2, 47040, Note_on_c, 0, 61, 64
2, 47040, Note_on_c, 0, 46, 64
2, 47280, Note_off_c, 0, 46, 64
2, 47280, Note_off_c, 0, 61, 64
2, 47280, Note_off_c, 0, 68, 64
2, 47280, Note_on_c, 0, 66, 64
2, 47280, Note_on_c, 0, 63, 64
2, 47280, Note_on_c, 0, 48, 64
2, 47520, Note_off_c, 0, 48, 64
2, 47520, Note_off_c, 0, 63, 64
2, 47520, Note_off_c, 0, 66, 64
2, 47520, Note_off_c, 0, 51, 64
2, 47520, Note_on_c, 0, 56, 64
2, 47520, Note_on_c, 0, 49, 64
2, 47520, Note_on_c, 0, 64, 64
2, 47520, Note_on_c, 0, 52, 64
2, 47760, Note_off_c, 0, 52, 64
2, 47760, Note_on_c, 0, 54, 64
2, 48000, Note_off_c, 0, 54, 64
2, 48000, Note_off_c, 0, 64, 64
2, 48000, Note_off_c, 0, 56, 64
2, 48000, Note_on_c, 0, 63, 64
2, 48000, Note_on_c, 0, 56, 64
2, 48240, Note_off_c, 0, 63, 64
2, 48240, Note_off_c, 0, 49, 64
2, 48240, Note_on_c, 0, 64, 64
2, 48240, Note_on_c, 0, 47, 64
2, 48360, Note_off_c, 0, 64, 64
2, 48360, Note_on_c, 0, 63, 64
2, 48480, Note_off_c, 0, 63, 64
2, 48480, Note_off_c, 0, 47, 64
2, 48480, Note_on_c, 0, 61, 64
2, 48480, Note_on_c, 0, 45, 64
2, 48720, Note_off_c, 0, 61, 64
2, 48720, Note_off_c, 0, 56, 64
2, 48720, Note_on_c, 0, 69, 64
2, 48720, Note_on_c, 0, 54, 64
2, 48960, Note_off_c, 0, 54, 64
2, 48960, Note_off_c, 0, 69, 64
2, 48960, Note_off_c, 0, 45, 64
2, 48960, Note_on_c, 0, 44, 64
2, 48960, Note_on_c, 0, 60, 64
2, 48960, Note_on_c, 0, 52, 64
2, 49200, Note_off_c, 0, 60, 64
2, 49200, Note_on_c, 0, 61, 64
2, 49440, Note_off_c, 0, 52, 64
2, 49440, Note_on_c, 0, 68, 64
2, 49440, Note_on_c, 0, 51, 64
2, 49680, Note_off_c, 0, 61, 64
2, 49680, Note_on_c, 0, 60, 64
2, 49920, Note_off_c, 0, 60, 64
2, 49920, Note_off_c, 0, 51, 64
2, 49920, Note_off_c, 0, 68, 64
2, 49920, Note_on_c, 0, 69, 64
2, 49920, Note_on_c, 0, 61, 64
2, 49920, Note_on_c, 0, 52, 64
2, 50160, Note_off_c, 0, 69, 64
2, 50160, Note_on_c, 0, 73, 64
2, 50400, Note_off_c, 0, 73, 64
2, 50400, Note_off_c, 0, 52, 64
2, 50400, Note_off_c, 0, 61, 64
2, 50400, Note_off_c, 0, 44, 64
2, 50400, Note_on_c, 0, 71, 64
2, 50400, Note_on_c, 0, 63, 64
2, 50400, Note_on_c, 0, 42, 64
2, 50640, Note_off_c, 0, 71, 64
2, 50640, Note_on_c, 0, 69, 64
2, 50880, Note_off_c, 0, 69, 64
2, 50880, Note_off_c, 0, 42, 64
2, 50880, Note_off_c, 0, 63, 64
2, 50880, Note_on_c, 0, 68, 64
2, 50880, Note_on_c, 0, 64, 64
2, 50880, Note_on_c, 0, 40, 64
2, 51120, Note_off_c, 0, 40, 64
2, 51120, Note_off_c, 0, 64, 64
2, 51120, Note_on_c, 0, 68, 64
2, 51120, Note_on_c, 0, 37, 64
2, 51360, Note_off_c, 0, 37, 64
2, 51360, Note_off_c, 0, 68, 64
2, 51360, Note_off_c, 0, 68, 64
2, 51360, Note_on_c, 0, 42, 64
2, 51360, Note_on_c, 0, 70, 64
2, 51360, Note_on_c, 0, 66, 64
2, 51600, Note_off_c, 0, 66, 64
2, 51600, Note_on_c, 0, 64, 64
2, 51840, Note_off_c, 0, 64, 64
2, 51840, Note_off_c, 0, 70, 64
2, 51840, Note_off_c, 0, 42, 64
2, 51840, Note_on_c, 0, 71, 64
2, 51840, Note_on_c, 0, 63, 64
2, 51840, Note_on_c, 0, 47, 64
2, 52080, Note_off_c, 0, 63, 64
2, 52080, Note_on_c, 0, 69, 64
2, 52320, Note_off_c, 0, 69, 64
2, 52320, Note_off_c, 0, 47, 64
2, 52320, Note_on_c, 0, 68, 64
2, 52320, Note_on_c, 0, 59, 64
2, 52560, Note_off_c, 0, 68, 64
2, 52560, Note_on_c, 0, 66, 64
2, 52800, Note_off_c, 0, 66, 64
2, 52800, Note_off_c, 0, 59, 64
2, 52800, Note_on_c, 0, 64, 64
2, 52800, Note_on_c, 0, 61, 64
2, 53040, Note_off_c, 0, 61, 64
2, 53040, Note_off_c, 0, 64, 64
2, 53040, Note_on_c, 0, 68, 64
2, 53040, Note_on_c, 0, 64, 64
2, 53280, Note_off_c, 0, 64, 64
2, 53280, Note_off_c, 0, 68, 64
2, 53280, Note_on_c, 0, 54, 64
2, 53280, Note_on_c, 0, 66, 64
2, 53280, Note_on_c, 0, 63, 64
2, 53520, Note_off_c, 0, 63, 64
2, 53520, Note_off_c, 0, 66, 64
2, 53520, Note_off_c, 0, 71, 64
2, 53520, Note_on_c, 0, 61, 64
2, 53520, Note_on_c, 0, 64, 64
2, 53520, Note_on_c, 0, 70, 64
2, 53760, Note_off_c, 0, 70, 64
2, 53760, Note_off_c, 0, 64, 64
2, 53760, Note_off_c, 0, 61, 64
2, 53760, Note_off_c, 0, 54, 64
2, 53760, Note_on_c, 0, 71, 64
2, 53760, Note_on_c, 0, 63, 64
2, 53760, Note_on_c, 0, 59, 64
2, 53760, Note_on_c, 0, 56, 64
2, 54000, Note_off_c, 0, 56, 64
2, 54000, Note_off_c, 0, 59, 64
2, 54000, Note_off_c, 0, 63, 64
2, 54000, Note_off_c, 0, 71, 64
2, 54000, Note_on_c, 0, 68, 64
2, 54000, Note_on_c, 0, 64, 64
2, 54000, Note_on_c, 0, 62, 64
2, 54000, Note_on_c, 0, 59, 64
2, 54240, Note_off_c, 0, 59, 64
2, 54240, Note_off_c, 0, 62, 64
2, 54240, Note_off_c, 0, 64, 64
2, 54240, Note_off_c, 0, 68, 64
2, 54240, Note_on_c, 0, 69, 64
2, 54240, Note_on_c, 0, 66, 64
2, 54240, Note_on_c, 0, 61, 64
2, 54240, Note_on_c, 0, 57, 64
2, 54480, Note_off_c, 0, 57, 64
2, 54480, Note_off_c, 0, 61, 64
2, 54480, Note_off_c, 0, 66, 64
2, 54480, Note_off_c, 0, 69, 64
2, 54480, Note_on_c, 0, 71, 64
2, 54480, Note_on_c, 0, 68, 64
2, 54480, Note_on_c, 0, 59, 64
2, 54480, Note_on_c, 0, 56, 64
2, 54720, Note_off_c, 0, 56, 64
2, 54720, Note_off_c, 0, 59, 64
2, 54720, Note_off_c, 0, 68, 64
2, 54720, Note_off_c, 0, 71, 64
2, 54720, Note_on_c, 0, 73, 64
2, 54720, Note_on_c, 0, 69, 64
2, 54720, Note_on_c, 0, 57, 64
2, 54720, Note_on_c, 0, 54, 64
2, 54960, Note_off_c, 0, 73, 64
2, 54960, Note_on_c, 0, 75, 64
2, 55200, Note_off_c, 0, 75, 64
2, 55200, Note_off_c, 0, 54, 64
2, 55200, Note_off_c, 0, 57, 64
2, 55200, Note_on_c, 0, 52, 64
2, 55200, Note_on_c, 0, 59, 64
2, 55200, Note_on_c, 0, 76, 64
2, 55440, Note_off_c, 0, 69, 64
2, 55440, Note_on_c, 0, 68, 64
2, 55680, Note_off_c, 0, 68, 64
2, 55680, Note_off_c, 0, 59, 64
2, 55680, Note_off_c, 0, 52, 64
2, 55680, Note_on_c, 0, 66, 64
2, 55680, Note_on_c, 0, 59, 64
2, 55920, Note_off_c, 0, 66, 64
2, 55920, Note_on_c, 0, 64, 64
2, 56160, Note_off_c, 0, 64, 64
2, 56160, Note_on_c, 0, 66, 64
2, 56160, Note_on_c, 0, 47, 64
2, 56400, Note_off_c, 0, 59, 64
2, 56400, Note_off_c, 0, 76, 64
2, 56400, Note_on_c, 0, 75, 64
2, 56400, Note_on_c, 0, 57, 64
2, 56640, Note_off_c, 0, 57, 64
2, 56640, Note_off_c, 0, 75, 64
2, 56640, Note_off_c, 0, 47, 64
2, 56640, Note_off_c, 0, 66, 64
2, 56640, Note_on_c, 0, 64, 64
2, 56640, Note_on_c, 0, 76, 64
2, 56640, Note_on_c, 0, 56, 64
2, 56640, Note_on_c, 0, 49, 64
2, 56880, Note_off_c, 0, 49, 64
2, 56880, Note_off_c, 0, 76, 64
2, 56880, Note_on_c, 0, 71, 64
2, 56880, Note_on_c, 0, 52, 64
2, 57120, Note_off_c, 0, 52, 64
2, 57120, Note_on_c, 0, 51, 64
2, 57360, Note_off_c, 0, 51, 64
2, 57360, Note_off_c, 0, 71, 64
2, 57360, Note_off_c, 0, 56, 64
2, 57360, Note_on_c, 0, 70, 64
2, 57360, Note_on_c, 0, 49, 64
2, 57360, Note_on_c, 0, 61, 64
2, 57600, Note_off_c, 0, 61, 64
2, 57600, Note_off_c, 0, 49, 64
2, 57600, Note_off_c, 0, 70, 64
2, 57600, Note_off_c, 0, 64, 64
2, 57600, Note_on_c, 0, 51, 64
2, 57600, Note_on_c, 0, 71, 64
2, 57600, Note_on_c, 0, 66, 64
2, 57600, Note_on_c, 0, 54, 64
2, 57840, Note_off_c, 0, 54, 64
2, 57840, Note_off_c, 0, 51, 64
2, 57840, Note_on_c, 0, 51, 64
2, 57840, Note_on_c, 0, 47, 64
2, 58080, Note_off_c, 0, 47, 64
2, 58080, Note_off_c, 0, 51, 64
2, 58080, Note_off_c, 0, 66, 64
2, 58080, Note_off_c, 0, 71, 64
2, 58080, Note_on_c, 0, 69, 64
2, 58080, Note_on_c, 0, 52, 64
2, 58080, Note_on_c, 0, 49, 64
2, 58320, Note_off_c, 0, 49, 64
2, 58320, Note_off_c, 0, 52, 64
2, 58320, Note_on_c, 0, 78, 64
2, 58320, Note_on_c, 0, 54, 64
2, 58320, Note_on_c, 0, 51, 64
2, 58560, Note_off_c, 0, 51, 64
2, 58560, Note_off_c, 0, 54, 64
2, 58560, Note_off_c, 0, 78, 64
2, 58560, Note_off_c, 0, 69, 64
2, 58560, Note_on_c, 0, 71, 64
2, 58560, Note_on_c, 0, 68, 64
2, 58560, Note_on_c, 0, 56, 64
2, 58560, Note_on_c, 0, 52, 64
2, 58800, Note_off_c, 0, 56, 64
2, 58800, Note_off_c, 0, 71, 64
2, 58800, Note_on_c, 0, 68, 64
2, 58800, Note_on_c, 0, 59, 64
2, 59040, Note_off_c, 0, 59, 64
2, 59040, Note_off_c, 0, 68, 64
2, 59040, Note_off_c, 0, 68, 64
2, 59040, Note_on_c, 0, 66, 64
2, 59040, Note_on_c, 0, 69, 64
2, 59040, Note_on_c, 0, 61, 64
2, 59280, Note_off_c, 0, 61, 64
2, 59280, Note_off_c, 0, 69, 64
2, 59280, Note_off_c, 0, 52, 64
2, 59280, Note_on_c, 0, 51, 64
2, 59280, Note_on_c, 0, 63, 64
2, 59280, Note_on_c, 0, 71, 64
2, 59520, Note_off_c, 0, 71, 64
2, 59520, Note_off_c, 0, 63, 64
2, 59520, Note_off_c, 0, 51, 64
2, 59520, Note_off_c, 0, 66, 64
2, 59520, Note_on_c, 0, 52, 64
2, 59520, Note_on_c, 0, 73, 64
2, 59520, Note_on_c, 0, 64, 64
2, 59520, Note_on_c, 0, 56, 64
2, 59760, Note_off_c, 0, 56, 64
2, 59760, Note_off_c, 0, 64, 64
2, 59760, Note_off_c, 0, 52, 64
2, 59760, Note_on_c, 0, 52, 64
2, 59760, Note_on_c, 0, 69, 64
2, 59760, Note_on_c, 0, 49, 64
2, 60000, Note_off_c, 0, 49, 64
2, 60000, Note_off_c, 0, 52, 64
2, 60000, Note_off_c, 0, 73, 64
2, 60000, Note_on_c, 0, 71, 64
2, 60000, Note_on_c, 0, 54, 64
2, 60000, Note_on_c, 0, 51, 64
2, 60240, Note_off_c, 0, 51, 64
2, 60240, Note_off_c, 0, 54, 64
2, 60240, Note_off_c, 0, 69, 64
2, 60240, Note_on_c, 0, 68, 64
2, 60240, Note_on_c, 0, 56, 64
2, 60240, Note_on_c, 0, 53, 64
2, 60480, Note_off_c, 0, 53, 64
2, 60480, Note_off_c, 0, 56, 64
2, 60480, Note_off_c, 0, 68, 64
2, 60480, Note_off_c, 0, 71, 64
2, 60480, Note_on_c, 0, 69, 64
2, 60480, Note_on_c, 0, 66, 64
2, 60480, Note_on_c, 0, 57, 64
2, 60480, Note_on_c, 0, 54, 64
2, 60720, Note_off_c, 0, 57, 64
2, 60720, Note_off_c, 0, 66, 64
2, 60720, Note_on_c, 0, 74, 64
2, 60720, Note_on_c, 0, 59, 64
2, 60960, Note_off_c, 0, 59, 64
2, 60960, Note_off_c, 0, 74, 64
2, 60960, Note_off_c, 0, 69, 64
2, 60960, Note_on_c, 0, 61, 64
2, 60960, Note_on_c, 0, 68, 64
2, 60960, Note_on_c, 0, 73, 64
2, 61200, Note_off_c, 0, 73, 64
2, 61200, Note_off_c, 0, 54, 64
2, 61200, Note_on_c, 0, 53, 64
2, 61200, Note_on_c, 0, 71, 64
2, 61440, Note_off_c, 0, 71, 64
2, 61440, Note_off_c, 0, 53, 64
2, 61440, Note_off_c, 0, 68, 64
2, 61440, Note_on_c, 0, 66, 64
2, 61440, Note_on_c, 0, 69, 64
2, 61440, Note_on_c, 0, 54, 64
2, 61680, Note_off_c, 0, 54, 64
2, 61680, Note_off_c, 0, 69, 64
2, 61680, Note_off_c, 0, 66, 64
2, 61680, Note_off_c, 0, 61, 64
2, 61680, Note_on_c, 0, 76, 64
2, 61680, Note_on_c, 0, 67, 64
2, 61680, Note_on_c, 0, 61, 64
2, 61680, Note_on_c, 0, 51, 64
2, 61920, Note_off_c, 0, 51, 64
2, 61920, Note_off_c, 0, 61, 64
2, 61920, Note_off_c, 0, 67, 64
2, 61920, Note_off_c, 0, 76, 64
2, 61920, Note_on_c, 0, 75, 64
2, 61920, Note_on_c, 0, 68, 64
2, 61920, Note_on_c, 0, 59, 64
2, 61920, Note_on_c, 0, 53, 64
2, 62160, Note_off_c, 0, 53, 64
2, 62160, Note_off_c, 0, 59, 64
2, 62160, Note_off_c, 0, 68, 64
2, 62160, Note_off_c, 0, 75, 64
2, 62160, Note_on_c, 0, 73, 64
2, 62160, Note_on_c, 0, 70, 64
2, 62160, Note_on_c, 0, 58, 64
2, 62160, Note_on_c, 0, 55, 64
2, 62400, Note_off_c, 0, 55, 64
2, 62400, Note_off_c, 0, 58, 64
2, 62400, Note_off_c, 0, 70, 64
2, 62400, Note_off_c, 0, 73, 64
2, 62400, Note_on_c, 0, 71, 64
2, 62400, Note_on_c, 0, 68, 64
2, 62400, Note_on_c, 0, 59, 64
2, 62400, Note_on_c, 0, 56, 64
2, 62640, Note_off_c, 0, 59, 64
2, 62640, Note_off_c, 0, 68, 64
2, 62640, Note_on_c, 0, 66, 64
2, 62640, Note_on_c, 0, 63, 64
2, 62880, Note_off_c, 0, 63, 64
2, 62880, Note_off_c, 0, 66, 64
2, 62880, Note_off_c, 0, 71, 64
2, 62880, Note_on_c, 0, 61, 64
2, 62880, Note_on_c, 0, 64, 64
2, 62880, Note_on_c, 0, 70, 64
2, 63120, Note_off_c, 0, 56, 64
2, 63120, Note_on_c, 0, 55, 64
2, 63360, Note_off_c, 0, 55, 64
2, 63360, Note_off_c, 0, 64, 64
2, 63360, Note_off_c, 0, 61, 64
2, 63360, Note_on_c, 0, 63, 64
2, 63360, Note_on_c, 0, 59, 64
2, 63360, Note_on_c, 0, 56, 64
2, 63600, Note_off_c, 0, 70, 64
2, 63600, Note_on_c, 0, 68, 64
2, 63720, Note_off_c, 0, 68, 64
2, 63720, Note_on_c, 0, 67, 64
2, 63840, Note_off_c, 0, 67, 64
2, 63840, Note_off_c, 0, 56, 64
2, 63840, Note_off_c, 0, 63, 64
2, 63840, Note_on_c, 0, 68, 64
2, 63840, Note_on_c, 0, 62, 64
2, 63840, Note_on_c, 0, 53, 64
2, 64080, Note_off_c, 0, 59, 64
2, 64080, Note_on_c, 0, 58, 64
2, 64200, Note_off_c, 0, 58, 64
2, 64200, Note_on_c, 0, 56, 64
2, 64320, Note_off_c, 0, 56, 64
2, 64320, Note_off_c, 0, 53, 64
2, 64320, Note_off_c, 0, 62, 64
2, 64320, Note_on_c, 0, 63, 64
2, 64320, Note_on_c, 0, 58, 64
2, 64320, Note_on_c, 0, 51, 64
2, 64560, Note_off_c, 0, 58, 64
2, 64560, Note_on_c, 0, 59, 64
2, 64800, Note_off_c, 0, 59, 64
2, 64800, Note_off_c, 0, 51, 64
2, 64800, Note_on_c, 0, 39, 64
2, 64800, Note_on_c, 0, 61, 64
2, 65040, Note_off_c, 0, 68, 64
2, 65040, Note_on_c, 0, 67, 64
2, 65280, Note_off_c, 0, 67, 64
2, 65280, Note_off_c, 0, 61, 64
2, 65280, Note_off_c, 0, 39, 64
2, 65280, Note_off_c, 0, 63, 64
2, 65280, Note_on_c, 0, 59, 64
2, 65280, Note_on_c, 0, 68, 64
2, 65280, Note_on_c, 0, 63, 64
2, 65280, Note_on_c, 0, 44, 64
2, 65760, Note_off_c, 0, 44, 64
2, 65760, Note_off_c, 0, 63, 64
2, 65760, Note_off_c, 0, 68, 64
2, 65760, Note_off_c, 0, 59, 64
2, 65760, Note_on_c, 0, 59, 64
2, 66000, Note_on_c, 0, 71, 64
2, 66240, Note_off_c, 0, 71, 64
2, 66240, Note_off_c, 0, 59, 64
2, 66240, Note_on_c, 0, 52, 64
2, 66240, Note_on_c, 0, 68, 64
2, 66240, Note_on_c, 0, 61, 64
2, 66480, Note_off_c, 0, 68, 64
2, 66480, Note_on_c, 0, 64, 64
2, 66720, Note_off_c, 0, 64, 64
2, 66720, Note_off_c, 0, 61, 64
2, 66720, Note_on_c, 0, 64, 64
2, 66720, Note_on_c, 0, 66, 64
2, 66960, Note_off_c, 0, 66, 64
2, 66960, Note_on_c, 0, 68, 64
2, 67200, Note_off_c, 0, 68, 64
2, 67200, Note_off_c, 0, 64, 64
2, 67200, Note_off_c, 0, 52, 64
2, 67200, Note_on_c, 0, 69, 64
2, 67200, Note_on_c, 0, 63, 64
2, 67200, Note_on_c, 0, 54, 64
2, 67440, Note_off_c, 0, 69, 64
2, 67440, Note_on_c, 0, 71, 64
2, 67680, Note_off_c, 0, 71, 64
2, 67680, Note_off_c, 0, 54, 64
2, 67680, Note_off_c, 0, 63, 64
2, 67680, Note_on_c, 0, 73, 64
2, 67680, Note_on_c, 0, 61, 64
2, 67680, Note_on_c, 0, 57, 64
2, 67920, Note_off_c, 0, 73, 64
2, 67920, Note_on_c, 0, 75, 64
2, 68160, Note_off_c, 0, 75, 64
2, 68160, Note_off_c, 0, 57, 64
2, 68160, Note_off_c, 0, 61, 64
2, 68160, Note_on_c, 0, 47, 64
2, 68160, Note_on_c, 0, 76, 64
2, 68160, Note_on_c, 0, 59, 64
2, 68160, Note_on_c, 0, 56, 64
2, 68280, Note_off_c, 0, 76, 64
2, 68280, Note_on_c, 0, 71, 64
2, 68400, Note_off_c, 0, 71, 64
2, 68400, Note_on_c, 0, 76, 64
2, 68640, Note_off_c, 0, 56, 64
2, 68640, Note_off_c, 0, 59, 64
2, 68640, Note_on_c, 0, 54, 64
2, 68640, Note_on_c, 0, 71, 64
2, 68880, Note_off_c, 0, 76, 64
2, 68880, Note_on_c, 0, 75, 64
2, 69120, Note_off_c, 0, 71, 64
2, 69120, Note_off_c, 0, 54, 64
2, 69120, Note_off_c, 0, 47, 64
2, 69120, Note_on_c, 0, 68, 64
2, 69120, Note_on_c, 0, 52, 64
2, 69120, Note_on_c, 0, 49, 64
2, 69360, Note_off_c, 0, 68, 64
2, 69360, Note_off_c, 0, 75, 64
2, 69360, Note_on_c, 0, 73, 64
2, 69360, Note_on_c, 0, 64, 64
2, 69480, Note_off_c, 0, 73, 64
2, 69480, Note_on_c, 0, 71, 64
2, 69600, Note_off_c, 0, 71, 64
2, 69600, Note_off_c, 0, 64, 64
2, 69600, Note_off_c, 0, 49, 64
2, 69600, Note_off_c, 0, 52, 64
2, 69600, Note_on_c, 0, 73, 64
2, 69600, Note_on_c, 0, 68, 64
2, 69600, Note_on_c, 0, 52, 64
2, 69840, Note_off_c, 0, 68, 64
2, 69840, Note_on_c, 0, 70, 64
2, 70080, Note_off_c, 0, 70, 64
2, 70080, Note_off_c, 0, 52, 64
2, 70080, Note_off_c, 0, 73, 64
2, 70080, Note_on_c, 0, 71, 64
2, 70080, Note_on_c, 0, 51, 64
2, 70200, Note_on_c, 0, 66, 64
2, 70320, Note_off_c, 0, 66, 64
2, 70320, Note_off_c, 0, 71, 64
2, 70320, Note_on_c, 0, 71, 64
2, 70560, Note_off_c, 0, 51, 64
2, 70560, Note_on_c, 0, 76, 64
2, 70560, Note_on_c, 0, 49, 64
2, 70800, Note_off_c, 0, 71, 64
2, 70800, Note_on_c, 0, 52, 64
2, 70800, Note_on_c, 0, 69, 64
2, 71040, Note_off_c, 0, 52, 64
2, 71040, Note_off_c, 0, 49, 64
2, 71040, Note_off_c, 0, 76, 64
2, 71040, Note_on_c, 0, 78, 64
2, 71040, Note_on_c, 0, 51, 64
2, 71040, Note_on_c, 0, 47, 64
2, 71280, Note_off_c, 0, 51, 64
2, 71280, Note_off_c, 0, 69, 64
2, 71280, Note_on_c, 0, 63, 64
2, 71280, Note_on_c, 0, 59, 64
2, 71520, Note_off_c, 0, 59, 64
2, 71520, Note_off_c, 0, 63, 64
2, 71520, Note_off_c, 0, 47, 64
2, 71520, Note_off_c, 0, 78, 64
2, 71520, Note_on_c, 0, 81, 64
2, 71520, Note_on_c, 0, 64, 64
2, 71520, Note_on_c, 0, 61, 64
2, 71760, Note_off_c, 0, 61, 64
2, 71760, Note_off_c, 0, 64, 64
2, 71760, Note_on_c, 0, 66, 64
2, 71760, Note_on_c, 0, 63, 64
2, 72000, Note_off_c, 0, 63, 64
2, 72000, Note_off_c, 0, 66, 64
2, 72000, Note_off_c, 0, 81, 64
2, 72000, Note_on_c, 0, 80, 64
2, 72000, Note_on_c, 0, 68, 64
2, 72000, Note_on_c, 0, 64, 64
2, 72120, Note_off_c, 0, 64, 64
2, 72120, Note_on_c, 0, 59, 64
2, 72240, Note_off_c, 0, 59, 64
2, 72240, Note_off_c, 0, 68, 64
2, 72240, Note_on_c, 0, 73, 64
2, 72240, Note_on_c, 0, 64, 64
2, 72480, Note_off_c, 0, 73, 64
2, 72480, Note_off_c, 0, 80, 64
2, 72480, Note_on_c, 0, 78, 64
2, 72480, Note_on_c, 0, 69, 64
2, 72720, Note_off_c, 0, 69, 64
2, 72720, Note_off_c, 0, 64, 64
2, 72720, Note_on_c, 0, 71, 64
2, 72720, Note_on_c, 0, 63, 64
2, 72960, Note_off_c, 0, 71, 64
2, 72960, Note_off_c, 0, 78, 64
2, 72960, Note_on_c, 0, 76, 64
2, 72960, Note_on_c, 0, 68, 64
2, 73080, Note_off_c, 0, 63, 64
2, 73080, Note_on_c, 0, 56, 64
2, 73200, Note_off_c, 0, 56, 64
2, 73200, Note_off_c, 0, 68, 64
2, 73200, Note_on_c, 0, 69, 64
2, 73200, Note_on_c, 0, 61, 64
2, 73440, Note_off_c, 0, 69, 64
2, 73440, Note_off_c, 0, 76, 64
2, 73440, Note_on_c, 0, 75, 64
2, 73440, Note_on_c, 0, 66, 64
2, 73680, Note_off_c, 0, 66, 64
2, 73680, Note_off_c, 0, 61, 64
2, 73680, Note_on_c, 0, 68, 64
2, 73680, Note_on_c, 0, 59, 64
2, 73920, Note_off_c, 0, 68, 64
2, 73920, Note_off_c, 0, 75, 64
2, 73920, Note_on_c, 0, 73, 64
2, 73920, Note_on_c, 0, 64, 64
2, 74040, Note_off_c, 0, 59, 64
2, 74040, Note_on_c, 0, 52, 64
2, 74160, Note_off_c, 0, 52, 64
2, 74160, Note_off_c, 0, 64, 64
2, 74160, Note_on_c, 0, 66, 64
2, 74160, Note_on_c, 0, 57, 64
2, 74400, Note_off_c, 0, 66, 64
2, 74400, Note_off_c, 0, 73, 64
2, 74400, Note_on_c, 0, 71, 64
2, 74400, Note_on_c, 0, 63, 64
2, 74640, Note_off_c, 0, 63, 64
2, 74640, Note_off_c, 0, 57, 64
2, 74640, Note_on_c, 0, 56, 64
2, 74640, Note_on_c, 0, 64, 64
2, 74880, Note_off_c, 0, 56, 64
2, 74880, Note_on_c, 0, 54, 64
2, 74880, Note_on_c, 0, 47, 64
2, 75120, Note_off_c, 0, 71, 64
2, 75120, Note_off_c, 0, 64, 64
2, 75120, Note_on_c, 0, 73, 64
2, 75120, Note_on_c, 0, 63, 64
2, 75240, Note_off_c, 0, 63, 64
2, 75240, Note_on_c, 0, 61, 64
2, 75360, Note_off_c, 0, 61, 64
2, 75360, Note_off_c, 0, 73, 64
2, 75360, Note_on_c, 0, 71, 64
2, 75360, Note_on_c, 0, 63, 64
2, 75600, Note_off_c, 0, 71, 64
2, 75600, Note_on_c, 0, 69, 64
2, 75840, Note_off_c, 0, 69, 64
2, 75840, Note_off_c, 0, 63, 64
2, 75840, Note_off_c, 0, 47, 64
2, 75840, Note_off_c, 0, 54, 64
2, 75840, Note_on_c, 0, 68, 64
2, 75840, Note_on_c, 0, 52, 64
2, 75840, Note_on_c, 0, 49, 64
2, 76080, Note_off_c, 0, 52, 64
2, 76080, Note_on_c, 0, 64, 64
2, 76080, Note_on_c, 0, 56, 64
2, 76200, Note_off_c, 0, 64, 64
2, 76200, Note_on_c, 0, 66, 64
2, 76320, Note_off_c, 0, 66, 64
2, 76320, Note_off_c, 0, 56, 64
2, 76320, Note_off_c, 0, 49, 64
2, 76320, Note_off_c, 0, 68, 64
2, 76320, Note_on_c, 0, 52, 64
2, 76320, Note_on_c, 0, 68, 64
2, 76320, Note_on_c, 0, 61, 64
2, 76560, Note_off_c, 0, 61, 64
2, 76560, Note_off_c, 0, 68, 64
2, 76560, Note_on_c, 0, 70, 64
2, 76560, Note_on_c, 0, 54, 64
2, 76800, Note_off_c, 0, 70, 64
2, 76800, Note_off_c, 0, 52, 64
2, 76800, Note_on_c, 0, 71, 64
2, 76800, Note_on_c, 0, 51, 64
2, 76920, Note_off_c, 0, 71, 64
2, 76920, Note_on_c, 0, 66, 64
2, 77040, Note_off_c, 0, 66, 64
2, 77040, Note_off_c, 0, 54, 64
2, 77040, Note_on_c, 0, 71, 64
2, 77040, Note_on_c, 0, 54, 64
2, 77280, Note_off_c, 0, 54, 64
2, 77280, Note_off_c, 0, 51, 64
2, 77280, Note_on_c, 0, 76, 64
2, 77280, Note_on_c, 0, 56, 64
2, 77280, Note_on_c, 0, 49, 64
2, 77520, Note_off_c, 0, 56, 64
2, 77520, Note_off_c, 0, 71, 64
2, 77520, Note_on_c, 0, 69, 64
2, 77520, Note_on_c, 0, 57, 64
2, 77760, Note_off_c, 0, 57, 64
2, 77760, Note_off_c, 0, 49, 64
2, 77760, Note_off_c, 0, 76, 64
2, 77760, Note_on_c, 0, 75, 64
2, 77760, Note_on_c, 0, 59, 64
2, 77760, Note_on_c, 0, 47, 64
2, 77880, Note_off_c, 0, 69, 64
2, 77880, Note_on_c, 0, 63, 64
2, 78000, Note_off_c, 0, 63, 64
2, 78000, Note_off_c, 0, 59, 64
2, 78000, Note_on_c, 0, 68, 64
2, 78000, Note_on_c, 0, 51, 64
2, 78240, Note_off_c, 0, 51, 64
2, 78240, Note_off_c, 0, 47, 64
2, 78240, Note_off_c, 0, 75, 64
2, 78240, Note_on_c, 0, 73, 64
2, 78240, Note_on_c, 0, 45, 64
2, 78240, Note_on_c, 0, 52, 64
2, 78480, Note_off_c, 0, 52, 64
2, 78480, Note_off_c, 0, 68, 64
2, 78480, Note_on_c, 0, 54, 64
2, 78480, Note_on_c, 0, 66, 64
2, 78720, Note_off_c, 0, 54, 64
2, 78720, Note_off_c, 0, 45, 64
2, 78720, Note_off_c, 0, 73, 64
2, 78720, Note_on_c, 0, 71, 64
2, 78720, Note_on_c, 0, 56, 64
2, 78720, Note_on_c, 0, 44, 64
2, 78840, Note_off_c, 0, 66, 64
2, 78840, Note_on_c, 0, 59, 64
2, 78960, Note_off_c, 0, 59, 64
2, 78960, Note_on_c, 0, 64, 64
2, 79200, Note_off_c, 0, 44, 64
2, 79200, Note_off_c, 0, 56, 64
2, 79200, Note_off_c, 0, 71, 64
2, 79200, Note_on_c, 0, 69, 64
2, 79200, Note_on_c, 0, 57, 64
2, 79200, Note_on_c, 0, 42, 64
2, 79440, Note_off_c, 0, 64, 64
2, 79440, Note_on_c, 0, 63, 64
2, 79680, Note_off_c, 0, 63, 64
2, 79680, Note_off_c, 0, 42, 64
2, 79680, Note_off_c, 0, 57, 64
2, 79680, Note_off_c, 0, 69, 64
2, 79680, Note_on_c, 0, 68, 64
2, 79680, Note_on_c, 0, 64, 64
2, 79680, Note_on_c, 0, 59, 64
2, 79680, Note_on_c, 0, 40, 64
2, 79800, Note_off_c, 0, 68, 64
2, 79800, Note_on_c, 0, 66, 64
2, 79920, Note_off_c, 0, 66, 64
2, 79920, Note_off_c, 0, 40, 64
2, 79920, Note_off_c, 0, 59, 64
2, 79920, Note_off_c, 0, 64, 64
2, 79920, Note_on_c, 0, 68, 64
2, 79920, Note_on_c, 0, 42, 64
2, 80040, Note_off_c, 0, 68, 64
2, 80040, Note_on_c, 0, 69, 64
2, 80160, Note_off_c, 0, 69, 64
2, 80160, Note_off_c, 0, 42, 64
2, 80160, Note_on_c, 0, 71, 64
2, 80160, Note_on_c, 0, 44, 64
2, 80400, Note_off_c, 0, 44, 64
2, 80400, Note_off_c, 0, 71, 64
2, 80400, Note_on_c, 0, 61, 64
2, 80400, Note_on_c, 0, 64, 64
2, 80400, Note_on_c, 0, 45, 64
2, 80400, Note_on_c, 0, 69, 64
2, 80640, Note_off_c, 0, 69, 64
2, 80640, Note_off_c, 0, 45, 64
2, 80640, Note_off_c, 0, 64, 64
2, 80640, Note_off_c, 0, 61, 64
2, 80640, Note_on_c, 0, 68, 64
2, 80640, Note_on_c, 0, 64, 64
2, 80640, Note_on_c, 0, 59, 64
2, 80640, Note_on_c, 0, 47, 64
2, 81120, Note_off_c, 0, 64, 64
2, 81120, Note_off_c, 0, 68, 64
2, 81120, Note_on_c, 0, 66, 64
2, 81120, Note_on_c, 0, 63, 64
2, 81360, Note_off_c, 0, 59, 64
2, 81360, Note_on_c, 0, 57, 64
2, 81600, Note_off_c, 0, 57, 64
2, 81600, Note_off_c, 0, 63, 64
2, 81600, Note_off_c, 0, 66, 64
2, 81600, Note_off_c, 0, 47, 64
2, 81600, Note_on_c, 0, 40, 64
2, 81600, Note_on_c, 0, 56, 64
2, 81600, Note_on_c, 0, 59, 64
2, 81600, Note_on_c, 0, 64, 64
2, 82560, Note_off_c, 0, 64, 64
2, 82560, Note_off_c, 0, 59, 64
2, 82560, Note_off_c, 0, 56, 64
2, 82560, Note_off_c, 0, 40, 64
2, 82560, End_track
0, 0, End_of_file
