0, 0, Header, 1, 5, 240
1, 0, Start_track
1, 0, Time_signature, 6, 2, 24, 8
1, 0, Tempo, 462306
1, 54960, Tempo, 468750
1, 55200, Tempo, 476190
1, 55440, Tempo, 491803
1, 55560, Tempo, 512821
1, 55704, Tempo, 530973
1, 55800, Tempo, 555556
1, 55920, Tempo, 576923
1, 56040, Tempo, 878426
1, 56160, Tempo, 870765
1, 56160, End_track
2, 0, Start_track
2, 0, Text_t, "RH H"
2, 20400, Note_on_c, 0, 66, 64
2, 20640, Note_off_c, 0, 66, 41
2, 20640, Note_on_c, 0, 68, 64
2, 20880, Note_off_c, 0, 68, 72
2, 20880, Note_on_c, 0, 69, 64
2, 21840, Note_off_c, 0, 69, 73
2, 21960, Note_on_c, 0, 70, 64
2, 22080, Note_off_c, 0, 70, 47
2, 22080, Note_on_c, 0, 71, 64
2, 22560, Note_off_c, 0, 71, 72
2, 22560, Note_on_c, 0, 70, 64
2, 22680, Note_off_c, 0, 70, 58
2, 22680, Note_on_c, 0, 68, 64
2, 22800, Note_off_c, 0, 68, 61
2, 22800, Note_on_c, 0, 70, 64
2, 22920, Note_off_c, 0, 70, 82
2, 22920, Note_on_c, 0, 72, 64
2, 23040, Note_off_c, 0, 72, 69
2, 23040, Note_on_c, 0, 73, 64
2, 23400, Note_off_c, 0, 73, 57
2, 23400, Note_on_c, 0, 71, 64
2, 23520, Note_off_c, 0, 71, 48
2, 23520, Note_on_c, 0, 69, 64
2, 23640, Note_off_c, 0, 69, 46
2, 23640, Note_on_c, 0, 73, 64
2, 23760, Note_off_c, 0, 73, 65
2, 23760, Note_on_c, 0, 71, 64
2, 23880, Note_off_c, 0, 71, 63
2, 23880, Note_on_c, 0, 69, 64
2, 24000, Note_off_c, 0, 69, 38
2, 24000, Note_on_c, 0, 68, 64
2, 24480, Note_off_c, 0, 68, 68
2, 24480, Note_on_c, 0, 66, 64
2, 24600, Note_off_c, 0, 66, 66
2, 24600, Note_on_c, 0, 69, 64
2, 24720, Note_off_c, 0, 69, 77
2, 24720, Note_on_c, 0, 71, 64
2, 24840, Note_off_c, 0, 71, 68
2, 24840, Note_on_c, 0, 73, 64
2, 24960, Note_off_c, 0, 73, 53
2, 24960, Note_on_c, 0, 74, 64
2, 25320, Note_off_c, 0, 74, 66
2, 25320, Note_on_c, 0, 71, 64
2, 25440, Note_off_c, 0, 71, 72
2, 25440, Note_on_c, 0, 73, 64
2, 25560, Note_off_c, 0, 73, 63
2, 25560, Note_on_c, 0, 75, 64
2, 25680, Note_off_c, 0, 75, 49
2, 25680, Note_on_c, 0, 76, 64
2, 26040, Note_off_c, 0, 76, 8
2, 26040, Note_on_c, 0, 74, 64
2, 26160, Note_off_c, 0, 74, 70
2, 26160, Note_on_c, 0, 74, 64
2, 26280, Note_off_c, 0, 74, 73
2, 26280, Note_on_c, 0, 73, 64
2, 26400, Note_off_c, 0, 73, 68
2, 26400, Note_on_c, 0, 73, 64
2, 26520, Note_off_c, 0, 73, 70
2, 26520, Note_on_c, 0, 72, 64
2, 26640, Note_off_c, 0, 72, 73
2, 26640, Note_on_c, 0, 72, 64
2, 26880, Note_off_c, 0, 72, 77
2, 26880, Note_on_c, 0, 73, 64
2, 27600, Note_off_c, 0, 73, 65
2, 27600, Note_on_c, 0, 72, 64
2, 28080, Note_off_c, 0, 72, 77
2, 28080, Note_on_c, 0, 73, 64
2, 28200, Note_off_c, 0, 73, 62
2, 28200, Note_on_c, 0, 75, 64
2, 28320, Note_off_c, 0, 75, 66
2, 28320, Note_on_c, 0, 76, 64
2, 28440, Note_off_c, 0, 76, 49
2, 28440, Note_on_c, 0, 78, 64
2, 28560, Note_off_c, 0, 78, 49
2, 28560, Note_on_c, 0, 79, 64
2, 29040, Note_off_c, 0, 79, 70
2, 29040, Note_on_c, 0, 73, 64
2, 29280, Note_off_c, 0, 73, 66
2, 29280, Note_on_c, 0, 78, 64
2, 29400, Note_off_c, 0, 78, 51
2, 29400, Note_on_c, 0, 76, 64
2, 29520, Note_off_c, 0, 76, 58
2, 29520, Note_on_c, 0, 74, 64
2, 29640, Note_off_c, 0, 74, 70
2, 29640, Note_on_c, 0, 73, 64
2, 29760, Note_off_c, 0, 73, 57
2, 29760, Note_on_c, 0, 74, 64
2, 30240, Note_off_c, 0, 74, 49
2, 30240, Note_on_c, 0, 73, 64
2, 30480, Note_off_c, 0, 73, 65
2, 30480, Note_on_c, 0, 75, 64
2, 30720, Note_off_c, 0, 75, 68
2, 30720, Note_on_c, 0, 77, 64
2, 30960, Note_off_c, 0, 77, 70
2, 30960, Note_on_c, 0, 78, 64
2, 32160, Note_off_c, 0, 78, 62
2, 32160, Note_on_c, 0, 76, 64
2, 32640, Note_off_c, 0, 76, 58
2, 32640, Note_on_c, 0, 74, 64
2, 33360, Note_off_c, 0, 74, 68
2, 33360, Note_on_c, 0, 73, 64
2, 34080, Note_off_c, 0, 73, 62
2, 34080, Note_on_c, 0, 71, 64
2, 34680, Note_off_c, 0, 71, 72
2, 34680, Note_on_c, 0, 68, 64
2, 34800, Note_off_c, 0, 68, 74
2, 34800, Note_on_c, 0, 69, 64
2, 34920, Note_off_c, 0, 69, 9
2, 34920, Note_on_c, 0, 73, 64
2, 35040, Note_off_c, 0, 73, 59
2, 35040, Note_on_c, 0, 78, 64
2, 35160, Note_off_c, 0, 78, 73
2, 35160, Note_on_c, 0, 75, 64
2, 35280, Note_off_c, 0, 75, 52
2, 35280, Note_on_c, 0, 76, 64
2, 36240, Note_off_c, 0, 76, 58
2, 36240, Note_on_c, 0, 75, 64
2, 36360, Note_off_c, 0, 75, 68
2, 36360, Note_on_c, 0, 77, 64
2, 36480, Note_off_c, 0, 77, 77
2, 36480, Note_on_c, 0, 78, 64
2, 36960, Note_off_c, 0, 78, 69
2, 36960, Note_on_c, 0, 77, 64
2, 37080, Note_off_c, 0, 77, 77
2, 37080, Note_on_c, 0, 75, 64
2, 37200, Note_off_c, 0, 75, 58
2, 37200, Note_on_c, 0, 77, 64
2, 37320, Note_off_c, 0, 77, 77
2, 37320, Note_on_c, 0, 79, 64
2, 37440, Note_off_c, 0, 79, 73
2, 37440, Note_on_c, 0, 80, 64
2, 37800, Note_off_c, 0, 80, 61
2, 37800, Note_on_c, 0, 78, 64
2, 37920, Note_off_c, 0, 78, 57
2, 37920, Note_on_c, 0, 76, 64
2, 38040, Note_off_c, 0, 76, 36
2, 38040, Note_on_c, 0, 80, 64
2, 38160, Note_off_c, 0, 80, 66
2, 38160, Note_on_c, 0, 78, 64
2, 38280, Note_off_c, 0, 78, 52
2, 38280, Note_on_c, 0, 76, 64
2, 38400, Note_off_c, 0, 76, 17
2, 38400, Note_on_c, 0, 75, 64
2, 38880, Note_off_c, 0, 75, 58
2, 39000, Note_on_c, 0, 76, 64
2, 39120, Note_off_c, 0, 76, 11
2, 39120, Note_on_c, 0, 78, 64
2, 39240, Note_off_c, 0, 78, 55
2, 39240, Note_on_c, 0, 80, 64
2, 39360, Note_off_c, 0, 80, 72
2, 39360, Note_on_c, 0, 81, 64
2, 39720, Note_off_c, 0, 81, 63
2, 39720, Note_on_c, 0, 78, 64
2, 39840, Note_off_c, 0, 78, 73
2, 39840, Note_on_c, 0, 80, 64
2, 39960, Note_off_c, 0, 80, 74
2, 39960, Note_on_c, 0, 82, 64
2, 40080, Note_off_c, 0, 82, 66
2, 40080, Note_on_c, 0, 83, 64
2, 40440, Note_off_c, 0, 83, 44
2, 40440, Note_on_c, 0, 81, 64
2, 40560, Note_off_c, 0, 81, 66
2, 40560, Note_on_c, 0, 81, 64
2, 40680, Note_off_c, 0, 81, 65
2, 40680, Note_on_c, 0, 80, 64
2, 40800, Note_off_c, 0, 80, 74
2, 40800, Note_on_c, 0, 80, 64
2, 40920, Note_off_c, 0, 80, 73
2, 40920, Note_on_c, 0, 78, 64
2, 41040, Note_off_c, 0, 78, 48
2, 41040, Note_on_c, 0, 78, 64
2, 41160, Note_off_c, 0, 78, 51
2, 41160, Note_on_c, 0, 81, 64
2, 41220, Note_off_c, 0, 81, 68
2, 41220, Note_on_c, 0, 80, 64
2, 41280, Note_off_c, 0, 80, 72
2, 41280, Note_on_c, 0, 78, 64
2, 41400, Note_off_c, 0, 78, 73
2, 41400, Note_on_c, 0, 76, 64
2, 41520, Note_off_c, 0, 76, 62
2, 41520, Note_on_c, 0, 76, 64
2, 41640, Note_off_c, 0, 76, 62
2, 41640, Note_on_c, 0, 75, 64
2, 41760, Note_off_c, 0, 75, 55
2, 41760, Note_on_c, 0, 75, 64
2, 41880, Note_off_c, 0, 75, 68
2, 41880, Note_on_c, 0, 76, 64
2, 42000, Note_off_c, 0, 76, 63
2, 42000, Note_on_c, 0, 76, 64
2, 42120, Note_off_c, 0, 76, 65
2, 42120, Note_on_c, 0, 74, 64
2, 42240, Note_off_c, 0, 74, 77
2, 42240, Note_on_c, 0, 74, 64
2, 42360, Note_off_c, 0, 74, 76
2, 42360, Note_on_c, 0, 73, 64
2, 42480, Note_off_c, 0, 73, 65
2, 42480, Note_on_c, 0, 73, 64
2, 43080, Note_off_c, 0, 73, 69
2, 43080, Note_on_c, 0, 75, 64
2, 43200, Note_off_c, 0, 75, 57
2, 43200, Note_on_c, 0, 77, 64
2, 43320, Note_off_c, 0, 77, 61
2, 43320, Note_on_c, 0, 78, 64
2, 43440, Note_off_c, 0, 78, 62
2, 43440, Note_on_c, 0, 80, 64
2, 43680, Note_off_c, 0, 80, 70
2, 43680, Note_on_c, 0, 73, 64
2, 43920, Note_off_c, 0, 73, 54
2, 43920, Note_on_c, 0, 78, 64
2, 44400, Note_off_c, 0, 78, 66
2, 44400, Note_on_c, 0, 77, 64
2, 44640, Note_off_c, 0, 77, 73
2, 44640, Note_on_c, 0, 78, 64
2, 44760, Note_off_c, 0, 78, 76
2, 44760, Note_on_c, 0, 76, 64
2, 44880, Note_off_c, 0, 76, 53
2, 44880, Note_on_c, 0, 74, 64
2, 45000, Note_off_c, 0, 74, 70
2, 45000, Note_on_c, 0, 73, 64
2, 45120, Note_off_c, 0, 73, 69
2, 45120, Note_on_c, 0, 73, 64
2, 45240, Note_off_c, 0, 73, 73
2, 45240, Note_on_c, 0, 71, 64
2, 45360, Note_off_c, 0, 71, 80
2, 45360, Note_on_c, 0, 71, 64
2, 45480, Note_off_c, 0, 71, 69
2, 45480, Note_on_c, 0, 78, 64
2, 45600, Note_off_c, 0, 78, 31
2, 45600, Note_on_c, 0, 71, 64
2, 45720, Note_off_c, 0, 71, 50
2, 45720, Note_on_c, 0, 69, 64
2, 45840, Note_off_c, 0, 69, 40
2, 45840, Note_on_c, 0, 69, 64
2, 45960, Note_off_c, 0, 69, 49
2, 45960, Note_on_c, 0, 68, 64
2, 46080, Note_off_c, 0, 68, 57
2, 46080, Note_on_c, 0, 68, 64
2, 46440, Note_off_c, 0, 68, 73
2, 46440, Note_on_c, 0, 71, 64
2, 46560, Note_off_c, 0, 71, 73
2, 46560, Note_on_c, 0, 69, 64
2, 46680, Note_off_c, 0, 69, 38
2, 46680, Note_on_c, 0, 68, 64
2, 46800, Note_off_c, 0, 68, 76
2, 46800, Note_on_c, 0, 66, 64
2, 46920, Note_off_c, 0, 66, 66
2, 46920, Note_on_c, 0, 65, 64
2, 47040, Note_off_c, 0, 65, 46
2, 47040, Note_on_c, 0, 66, 64
2, 47160, Note_off_c, 0, 66, 80
2, 47160, Note_on_c, 0, 69, 64
2, 47280, Note_off_c, 0, 69, 79
2, 47280, Note_on_c, 0, 71, 64
2, 47400, Note_off_c, 0, 71, 76
2, 47400, Note_on_c, 0, 73, 64
2, 47520, Note_off_c, 0, 73, 63
2, 47520, Note_on_c, 0, 74, 64
2, 48360, Note_off_c, 0, 74, 62
2, 48360, Note_on_c, 0, 68, 64
2, 48480, Note_off_c, 0, 68, 73
2, 48480, Note_on_c, 0, 73, 64
2, 48600, Note_off_c, 0, 73, 66
2, 48600, Note_on_c, 0, 71, 64
2, 48720, Note_off_c, 0, 71, 83
2, 48720, Note_on_c, 0, 71, 64
2, 48840, Note_off_c, 0, 71, 83
2, 48840, Note_on_c, 0, 69, 64
2, 48960, Note_off_c, 0, 69, 68
2, 48960, Note_on_c, 0, 69, 64
2, 49800, Note_off_c, 0, 69, 69
2, 49800, Note_on_c, 0, 73, 64
2, 49920, Note_off_c, 0, 73, 76
2, 49920, Note_on_c, 0, 71, 64
2, 50040, Note_off_c, 0, 71, 82
2, 50040, Note_on_c, 0, 69, 64
2, 50160, Note_off_c, 0, 69, 73
2, 50160, Note_on_c, 0, 69, 64
2, 50280, Note_off_c, 0, 69, 80
2, 50280, Note_on_c, 0, 68, 64
2, 50400, Note_off_c, 0, 68, 66
2, 50400, Note_on_c, 0, 68, 64
2, 51240, Note_off_c, 0, 68, 72
2, 51240, Note_on_c, 0, 71, 64
2, 51360, Note_off_c, 0, 71, 79
2, 51360, Note_on_c, 0, 69, 64
2, 51480, Note_off_c, 0, 69, 70
2, 51480, Note_on_c, 0, 67, 64
2, 51600, Note_off_c, 0, 67, 55
2, 51600, Note_on_c, 0, 67, 64
2, 51720, Note_off_c, 0, 67, 65
2, 51720, Note_on_c, 0, 66, 64
2, 51840, Note_off_c, 0, 66, 72
2, 51840, Note_on_c, 0, 66, 64
2, 51960, Note_off_c, 0, 66, 68
2, 51960, Note_on_c, 0, 65, 64
2, 52080, Note_off_c, 0, 65, 41
2, 52080, Note_on_c, 0, 66, 64
2, 52320, Note_off_c, 0, 66, 70
2, 52320, Note_on_c, 0, 68, 64
2, 52560, Note_off_c, 0, 68, 72
2, 52560, Note_on_c, 0, 69, 64
2, 53520, Note_off_c, 0, 69, 69
2, 53520, Note_on_c, 0, 68, 64
2, 53640, Note_off_c, 0, 68, 74
2, 53640, Note_on_c, 0, 70, 64
2, 53760, Note_off_c, 0, 70, 72
2, 53760, Note_on_c, 0, 71, 64
2, 54240, Note_off_c, 0, 71, 70
2, 54240, Note_on_c, 0, 70, 64
2, 54360, Note_off_c, 0, 70, 76
2, 54360, Note_on_c, 0, 68, 64
2, 54480, Note_off_c, 0, 68, 80
2, 54480, Note_on_c, 0, 70, 64
2, 54600, Note_off_c, 0, 70, 80
2, 54600, Note_on_c, 0, 72, 64
2, 54720, Note_off_c, 0, 72, 82
2, 54720, Note_on_c, 0, 73, 64
2, 55080, Note_off_c, 0, 73, 69
2, 55080, Note_on_c, 0, 71, 64
2, 55200, Note_off_c, 0, 71, 73
2, 55200, Note_on_c, 0, 69, 64
2, 55320, Note_off_c, 0, 69, 54
2, 55320, Note_on_c, 0, 73, 64
2, 55440, Note_off_c, 0, 73, 69
2, 55440, Note_on_c, 0, 71, 64
2, 55560, Note_off_c, 0, 71, 77
2, 55560, Note_on_c, 0, 69, 64
2, 55680, Note_off_c, 0, 69, 52
2, 55680, Note_on_c, 0, 68, 64
2, 56160, Note_off_c, 0, 68, 76
2, 56160, Note_on_c, 0, 66, 64
2, 57600, Note_off_c, 0, 66, 77
2, 57600, End_track
3, 0, Start_track
3, 0, Text_t, "RH L"
3, 4560, Note_on_c, 1, 61, 64
3, 4800, Note_off_c, 1, 61, 76
3, 4800, Note_on_c, 1, 63, 64
3, 5040, Note_off_c, 1, 63, 66
3, 5040, Note_on_c, 1, 64, 64
3, 6000, Note_off_c, 1, 64, 55
3, 6000, Note_on_c, 1, 63, 64
3, 6120, Note_off_c, 1, 63, 66
3, 6120, Note_on_c, 1, 65, 64
3, 6240, Note_off_c, 1, 65, 1
3, 6240, Note_on_c, 1, 66, 64
3, 6720, Note_off_c, 1, 66, 73
3, 6720, Note_on_c, 1, 65, 64
3, 6840, Note_off_c, 1, 65, 1
3, 6840, Note_on_c, 1, 63, 64
3, 6960, Note_off_c, 1, 63, 68
3, 6960, Note_on_c, 1, 65, 64
3, 7080, Note_off_c, 1, 65, 55
3, 7080, Note_on_c, 1, 67, 64
3, 7200, Note_off_c, 1, 67, 51
3, 7200, Note_on_c, 1, 68, 64
3, 7560, Note_off_c, 1, 68, 74
3, 7560, Note_on_c, 1, 66, 64
3, 7680, Note_off_c, 1, 66, 49
3, 7680, Note_on_c, 1, 64, 64
3, 7800, Note_off_c, 1, 64, 9
3, 7800, Note_on_c, 1, 68, 64
3, 7920, Note_off_c, 1, 68, 65
3, 7920, Note_on_c, 1, 66, 64
3, 8040, Note_off_c, 1, 66, 52
3, 8040, Note_on_c, 1, 64, 64
3, 8150, Note_off_c, 1, 64, 42
3, 8163, Note_on_c, 1, 64, 70
3, 8193, Note_off_c, 1, 64, 54
3, 8193, Note_on_c, 1, 63, 51
3, 8223, Note_off_c, 1, 63, 49
3, 8223, Note_on_c, 1, 64, 53
3, 8253, Note_off_c, 1, 64, 52
3, 8253, Note_on_c, 1, 63, 56
3, 8283, Note_off_c, 1, 63, 53
3, 8283, Note_on_c, 1, 64, 58
3, 8313, Note_off_c, 1, 64, 39
3, 8313, Note_on_c, 1, 63, 61
3, 8343, Note_off_c, 1, 63, 49
3, 8343, Note_on_c, 1, 64, 63
3, 8373, Note_off_c, 1, 64, 51
3, 8373, Note_on_c, 1, 63, 66
3, 8643, Note_off_c, 1, 63, 53
3, 8763, Note_on_c, 1, 64, 64
3, 8883, Note_off_c, 1, 64, 61
3, 8883, Note_on_c, 1, 66, 64
3, 9003, Note_off_c, 1, 66, 72
3, 9003, Note_on_c, 1, 68, 64
3, 9123, Note_off_c, 1, 68, 73
3, 9123, Note_on_c, 1, 69, 64
3, 9483, Note_off_c, 1, 69, 76
3, 9483, Note_on_c, 1, 66, 64
3, 9603, Note_off_c, 1, 66, 63
3, 9603, Note_on_c, 1, 68, 64
3, 9723, Note_off_c, 1, 68, 83
3, 9723, Note_on_c, 1, 70, 64
3, 9843, Note_off_c, 1, 70, 80
3, 9843, Note_on_c, 1, 71, 64
3, 10203, Note_off_c, 1, 71, 70
3, 10203, Note_on_c, 1, 71, 64
3, 10323, Note_off_c, 1, 71, 79
3, 10323, Note_on_c, 1, 71, 64
3, 10443, Note_off_c, 1, 71, 80
3, 10443, Note_on_c, 1, 69, 64
3, 10563, Note_off_c, 1, 69, 77
3, 10563, Note_on_c, 1, 69, 64
3, 10683, Note_off_c, 1, 69, 80
3, 10683, Note_on_c, 1, 68, 64
3, 10803, Note_off_c, 1, 68, 79
3, 10803, Note_on_c, 1, 68, 64
3, 10923, Note_off_c, 1, 68, 83
3, 10923, Note_on_c, 1, 66, 64
3, 11043, Note_off_c, 1, 66, 70
3, 11043, Note_on_c, 1, 66, 64
3, 11163, Note_off_c, 1, 66, 77
3, 11163, Note_on_c, 1, 64, 64
3, 11283, Note_off_c, 1, 64, 53
3, 11283, Note_on_c, 1, 64, 64
3, 11403, Note_off_c, 1, 64, 57
3, 11403, Note_on_c, 1, 63, 64
3, 11523, Note_off_c, 1, 63, 66
3, 11523, Note_on_c, 1, 63, 64
3, 11643, Note_off_c, 1, 63, 62
3, 11643, Note_on_c, 1, 64, 64
3, 11763, Note_off_c, 1, 64, 59
3, 11763, Note_on_c, 1, 64, 64
3, 11883, Note_off_c, 1, 64, 52
3, 11883, Note_on_c, 1, 62, 64
3, 12003, Note_off_c, 1, 62, 47
3, 12003, Note_on_c, 1, 62, 64
3, 12123, Note_off_c, 1, 62, 26
3, 12123, Note_on_c, 1, 61, 64
3, 12243, Note_off_c, 1, 61, 70
3, 12243, Note_on_c, 1, 61, 64
3, 12723, Note_off_c, 1, 61, 68
3, 12843, Note_on_c, 1, 63, 64
3, 12963, Note_off_c, 1, 63, 57
3, 12963, Note_on_c, 1, 65, 64
3, 13083, Note_off_c, 1, 65, 52
3, 13083, Note_on_c, 1, 66, 64
3, 13203, Note_off_c, 1, 66, 57
3, 13203, Note_on_c, 1, 68, 64
3, 13443, Note_off_c, 1, 68, 74
3, 13443, Note_on_c, 1, 61, 64
3, 13683, Note_off_c, 1, 61, 70
3, 13683, Note_on_c, 1, 66, 64
3, 14163, Note_off_c, 1, 66, 58
3, 14163, Note_on_c, 1, 65, 64
3, 14403, Note_off_c, 1, 65, 69
3, 14403, Note_on_c, 1, 66, 64
3, 15123, Note_off_c, 1, 66, 63
3, 15123, Note_on_c, 1, 64, 64
3, 15363, Note_off_c, 1, 64, 39
3, 15363, Note_on_c, 1, 66, 64
3, 15483, Note_off_c, 1, 66, 80
3, 15483, Note_on_c, 1, 68, 64
3, 15603, Note_off_c, 1, 68, 70
3, 15603, Note_on_c, 1, 69, 64
3, 15843, Note_off_c, 1, 69, 74
3, 15843, Note_on_c, 1, 68, 64
3, 16563, Note_off_c, 1, 68, 80
3, 16563, Note_on_c, 1, 66, 64
3, 17283, Note_off_c, 1, 66, 69
3, 17283, Note_on_c, 1, 64, 64
3, 17643, Note_off_c, 1, 64, 58
3, 17643, Note_on_c, 1, 66, 64
3, 17763, Note_off_c, 1, 66, 65
3, 17763, Note_on_c, 1, 67, 64
3, 18243, Note_off_c, 1, 67, 55
3, 18243, Note_on_c, 1, 66, 64
3, 18363, Note_off_c, 1, 66, 77
3, 18363, Note_on_c, 1, 64, 64
3, 18483, Note_off_c, 1, 64, 53
3, 18483, Note_on_c, 1, 62, 64
3, 18603, Note_off_c, 1, 62, 34
3, 18603, Note_on_c, 1, 61, 64
3, 18723, Note_off_c, 1, 61, 62
3, 18723, Note_on_c, 1, 62, 64
3, 19083, Note_off_c, 1, 62, 61
3, 19083, Note_on_c, 1, 64, 64
3, 19203, Note_off_c, 1, 64, 52
3, 19203, Note_on_c, 1, 66, 64
3, 19683, Note_off_c, 1, 66, 74
3, 19683, Note_on_c, 1, 64, 64
3, 19803, Note_off_c, 1, 64, 53
3, 19803, Note_on_c, 1, 62, 64
3, 19923, Note_off_c, 1, 62, 62
3, 19923, Note_on_c, 1, 61, 64
3, 20043, Note_off_c, 1, 61, 58
3, 20043, Note_on_c, 1, 59, 64
3, 20163, Note_off_c, 1, 59, 61
3, 20163, Note_on_c, 1, 61, 64
3, 20403, Note_off_c, 1, 61, 74
3, 20403, Note_on_c, 1, 63, 64
3, 20643, Note_off_c, 1, 63, 50
3, 20643, Note_on_c, 1, 65, 64
3, 20883, Note_off_c, 1, 65, 58
3, 20883, Note_on_c, 1, 66, 64
3, 21843, Note_off_c, 1, 66, 82
3, 21843, Note_on_c, 1, 68, 64
3, 22083, Note_off_c, 1, 68, 69
3, 22083, Note_on_c, 1, 66, 64
3, 22323, Note_off_c, 1, 66, 69
3, 22323, Note_on_c, 1, 65, 64
3, 22563, Note_off_c, 1, 65, 66
3, 22563, Note_on_c, 1, 66, 64
3, 22683, Note_off_c, 1, 66, 82
3, 22683, Note_on_c, 1, 65, 64
3, 22803, Note_off_c, 1, 65, 72
3, 22803, Note_on_c, 1, 66, 64
3, 23043, Note_off_c, 1, 66, 79
3, 23043, Note_on_c, 1, 68, 64
3, 23523, Note_off_c, 1, 68, 70
3, 23523, Note_on_c, 1, 66, 64
3, 23883, Note_off_c, 1, 66, 73
3, 23883, Note_on_c, 1, 64, 64
3, 24003, Note_off_c, 1, 64, 54
3, 24003, Note_on_c, 1, 62, 64
3, 24243, Note_off_c, 1, 62, 39
3, 24243, Note_on_c, 1, 61, 64
3, 24843, Note_off_c, 1, 61, 65
3, 24843, Note_on_c, 1, 68, 64
3, 24963, Note_off_c, 1, 68, 80
3, 24963, Note_on_c, 1, 69, 64
3, 25083, Note_off_c, 1, 69, 80
3, 25083, Note_on_c, 1, 71, 64
3, 25203, Note_off_c, 1, 71, 73
3, 25203, Note_on_c, 1, 64, 64
3, 25563, Note_off_c, 1, 64, 34
3, 25563, Note_on_c, 1, 69, 64
3, 25683, Note_off_c, 1, 69, 49
3, 25683, Note_on_c, 1, 71, 64
3, 25803, Note_off_c, 1, 71, 68
3, 25803, Note_on_c, 1, 73, 64
3, 25923, Note_off_c, 1, 73, 72
3, 25923, Note_on_c, 1, 66, 64
3, 26753, Note_off_c, 1, 66, 72
3, 26766, Note_on_c, 1, 66, 64
3, 26886, Note_off_c, 1, 66, 77
3, 26886, Note_on_c, 1, 66, 64
3, 27006, Note_off_c, 1, 66, 79
3, 27006, Note_on_c, 1, 64, 64
3, 27126, Note_off_c, 1, 64, 62
3, 27126, Note_on_c, 1, 64, 64
3, 27246, Note_off_c, 1, 64, 55
3, 27246, Note_on_c, 1, 63, 64
3, 27366, Note_off_c, 1, 63, 48
3, 27366, Note_on_c, 1, 63, 64
3, 27486, Note_off_c, 1, 63, 49
3, 27486, Note_on_c, 1, 68, 64
3, 27606, Note_off_c, 1, 68, 72
3, 27606, Note_on_c, 1, 68, 64
3, 27726, Note_off_c, 1, 68, 80
3, 27726, Note_on_c, 1, 66, 64
3, 27846, Note_off_c, 1, 66, 73
3, 27846, Note_on_c, 1, 66, 64
3, 27966, Note_off_c, 1, 66, 66
3, 27966, Note_on_c, 1, 64, 64
3, 28086, Note_off_c, 1, 64, 52
3, 28086, Note_on_c, 1, 64, 64
3, 28326, Note_off_c, 1, 64, 49
3, 28326, Note_on_c, 1, 73, 64
3, 28566, Note_off_c, 1, 73, 66
3, 28566, Note_on_c, 1, 71, 64
3, 28806, Note_off_c, 1, 71, 77
3, 28806, Note_on_c, 1, 70, 64
3, 29766, Note_off_c, 1, 70, 82
3, 29766, Note_on_c, 1, 71, 64
3, 29886, Note_off_c, 1, 71, 79
3, 29886, Note_on_c, 1, 69, 64
3, 30006, Note_off_c, 1, 69, 74
3, 30006, Note_on_c, 1, 68, 64
3, 30486, Note_off_c, 1, 68, 77
3, 30486, Note_on_c, 1, 69, 64
3, 30606, Note_off_c, 1, 69, 46
3, 30606, Note_on_c, 1, 71, 64
3, 30726, Note_off_c, 1, 71, 69
3, 30726, Note_on_c, 1, 69, 64
3, 30846, Note_off_c, 1, 69, 77
3, 30846, Note_on_c, 1, 68, 64
3, 30966, Note_off_c, 1, 68, 68
3, 30966, Note_on_c, 1, 66, 64
3, 31326, Note_off_c, 1, 66, 52
3, 31326, Note_on_c, 1, 68, 64
3, 31446, Note_off_c, 1, 68, 62
3, 31446, Note_on_c, 1, 69, 64
3, 31566, Note_off_c, 1, 69, 49
3, 31566, Note_on_c, 1, 66, 64
3, 31686, Note_off_c, 1, 66, 57
3, 31686, Note_on_c, 1, 68, 64
3, 31806, Note_off_c, 1, 68, 72
3, 31806, Note_on_c, 1, 69, 64
3, 31926, Note_off_c, 1, 69, 66
3, 31926, Note_on_c, 1, 71, 64
3, 32406, Note_off_c, 1, 71, 79
3, 32406, Note_on_c, 1, 73, 64
3, 32886, Note_off_c, 1, 73, 70
3, 32886, Note_on_c, 1, 66, 64
3, 33126, Note_off_c, 1, 66, 62
3, 33126, Note_on_c, 1, 71, 64
3, 33486, Note_off_c, 1, 71, 74
3, 33486, Note_on_c, 1, 64, 64
3, 33606, Note_off_c, 1, 64, 36
3, 33606, Note_on_c, 1, 66, 64
3, 33726, Note_off_c, 1, 66, 66
3, 33726, Note_on_c, 1, 68, 64
3, 33846, Note_off_c, 1, 68, 74
3, 33846, Note_on_c, 1, 69, 64
3, 34326, Note_off_c, 1, 69, 74
3, 34326, Note_on_c, 1, 62, 64
3, 34566, Note_off_c, 1, 62, 37
3, 34566, Note_on_c, 1, 61, 64
3, 35046, Note_off_c, 1, 61, 69
3, 35046, Note_on_c, 1, 69, 64
3, 35286, Note_off_c, 1, 69, 66
3, 35286, Note_on_c, 1, 68, 64
3, 35406, Note_off_c, 1, 68, 70
3, 35406, Note_on_c, 1, 73, 64
3, 35526, Note_off_c, 1, 73, 69
3, 35526, Note_on_c, 1, 73, 64
3, 35646, Note_off_c, 1, 73, 59
3, 35646, Note_on_c, 1, 71, 64
3, 35766, Note_off_c, 1, 71, 73
3, 35766, Note_on_c, 1, 71, 64
3, 35886, Note_off_c, 1, 71, 69
3, 35886, Note_on_c, 1, 70, 64
3, 36006, Note_off_c, 1, 70, 72
3, 36006, Note_on_c, 1, 70, 64
3, 36126, Note_off_c, 1, 70, 65
3, 36126, Note_on_c, 1, 71, 64
3, 36246, Note_off_c, 1, 71, 70
3, 36246, Note_on_c, 1, 71, 64
3, 36366, Note_off_c, 1, 71, 66
3, 36366, Note_on_c, 1, 69, 64
3, 36486, Note_off_c, 1, 69, 70
3, 36486, Note_on_c, 1, 69, 64
3, 36606, Note_off_c, 1, 69, 80
3, 36606, Note_on_c, 1, 68, 64
3, 36726, Note_off_c, 1, 68, 74
3, 36726, Note_on_c, 1, 68, 64
3, 37326, Note_off_c, 1, 68, 69
3, 37326, Note_on_c, 1, 70, 64
3, 37446, Note_off_c, 1, 70, 72
3, 37446, Note_on_c, 1, 72, 64
3, 37566, Note_off_c, 1, 72, 80
3, 37566, Note_on_c, 1, 73, 64
3, 37686, Note_off_c, 1, 73, 70
3, 37686, Note_on_c, 1, 75, 64
3, 37926, Note_off_c, 1, 75, 49
3, 37926, Note_on_c, 1, 68, 64
3, 38166, Note_off_c, 1, 68, 35
3, 38166, Note_on_c, 1, 73, 64
3, 38646, Note_off_c, 1, 73, 58
3, 38646, Note_on_c, 1, 72, 64
3, 38886, Note_off_c, 1, 72, 66
3, 38886, Note_on_c, 1, 73, 64
3, 39246, Note_off_c, 1, 73, 65
3, 39246, Note_on_c, 1, 71, 64
3, 39366, Note_off_c, 1, 71, 47
3, 39366, Note_on_c, 1, 73, 64
3, 39486, Note_off_c, 1, 73, 70
3, 39486, Note_on_c, 1, 75, 64
3, 39606, Note_off_c, 1, 75, 49
3, 39606, Note_on_c, 1, 76, 64
3, 39966, Note_off_c, 1, 76, 46
3, 39966, Note_on_c, 1, 73, 64
3, 40086, Note_off_c, 1, 73, 65
3, 40086, Note_on_c, 1, 75, 64
3, 40206, Note_off_c, 1, 75, 51
3, 40206, Note_on_c, 1, 77, 64
3, 40326, Note_off_c, 1, 77, 69
3, 40326, Note_on_c, 1, 78, 64
3, 40566, Note_off_c, 1, 78, 72
3, 40566, Note_on_c, 1, 66, 64
3, 40806, Note_off_c, 1, 66, 61
3, 40806, Note_on_c, 1, 65, 64
3, 41046, Note_off_c, 1, 65, 51
3, 41046, Note_on_c, 1, 66, 64
3, 41166, Note_off_c, 1, 66, 82
3, 41166, Note_on_c, 1, 61, 64
3, 41286, Note_off_c, 1, 61, 40
3, 41286, Note_on_c, 1, 66, 64
3, 41406, Note_off_c, 1, 66, 69
3, 41406, Note_on_c, 1, 68, 64
3, 41526, Note_off_c, 1, 68, 72
3, 41526, Note_on_c, 1, 69, 64
3, 41646, Note_off_c, 1, 69, 57
3, 41646, Note_on_c, 1, 66, 64
3, 41766, Note_off_c, 1, 66, 50
3, 41766, Note_on_c, 1, 69, 64
3, 42126, Note_off_c, 1, 69, 63
3, 42126, Note_on_c, 1, 66, 64
3, 42246, Note_off_c, 1, 66, 70
3, 42246, Note_on_c, 1, 68, 64
3, 42366, Note_off_c, 1, 68, 61
3, 42366, Note_on_c, 1, 69, 64
3, 42486, Note_off_c, 1, 69, 58
3, 42486, Note_on_c, 1, 65, 64
3, 42606, Note_off_c, 1, 65, 55
3, 42606, Note_on_c, 1, 61, 64
3, 42726, Note_off_c, 1, 61, 39
3, 42726, Note_on_c, 1, 66, 64
3, 42966, Note_off_c, 1, 66, 66
3, 42966, Note_on_c, 1, 61, 64
3, 43326, Note_off_c, 1, 61, 68
3, 43326, Note_on_c, 1, 63, 64
3, 43446, Note_off_c, 1, 63, 48
3, 43446, Note_on_c, 1, 65, 64
3, 43686, Note_off_c, 1, 65, 58
3, 43686, Note_on_c, 1, 66, 64
3, 43806, Note_off_c, 1, 66, 73
3, 43806, Note_on_c, 1, 64, 64
3, 43926, Note_off_c, 1, 64, 38
3, 43926, Note_on_c, 1, 62, 64
3, 44046, Note_off_c, 1, 62, 37
3, 44046, Note_on_c, 1, 61, 64
3, 44166, Note_off_c, 1, 61, 57
3, 44166, Note_on_c, 1, 59, 64
3, 44646, Note_off_c, 1, 59, 16
3, 44646, Note_on_c, 1, 57, 64
3, 44766, Note_off_c, 1, 57, 30
3, 44766, Note_on_c, 1, 61, 64
3, 44886, Note_off_c, 1, 61, 61
3, 44886, Note_on_c, 1, 66, 64
3, 46196, Note_off_c, 1, 66, 68
3, 46209, Note_on_c, 1, 66, 64
3, 46329, Note_off_c, 1, 66, 69
3, 46329, Note_on_c, 1, 64, 64
3, 46809, Note_off_c, 1, 64, 52
3, 46809, Note_on_c, 1, 62, 64
3, 47169, Note_off_c, 1, 62, 30
3, 47169, Note_on_c, 1, 66, 64
3, 47289, Note_off_c, 1, 66, 76
3, 47289, Note_on_c, 1, 68, 64
3, 47409, Note_off_c, 1, 68, 74
3, 47409, Note_on_c, 1, 70, 64
3, 47529, Note_off_c, 1, 70, 68
3, 47529, Note_on_c, 1, 71, 64
3, 47649, Note_off_c, 1, 71, 73
3, 47649, Note_on_c, 1, 69, 64
3, 47769, Note_off_c, 1, 69, 74
3, 47769, Note_on_c, 1, 68, 64
3, 47889, Note_off_c, 1, 68, 73
3, 47889, Note_on_c, 1, 66, 64
3, 48009, Note_off_c, 1, 66, 72
3, 48009, Note_on_c, 1, 65, 64
3, 48129, Note_off_c, 1, 65, 50
3, 48129, Note_on_c, 1, 66, 64
3, 48249, Note_off_c, 1, 66, 76
3, 48249, Note_on_c, 1, 65, 64
3, 48369, Note_off_c, 1, 65, 55
3, 48369, Note_on_c, 1, 66, 64
3, 48489, Note_off_c, 1, 66, 69
3, 48489, Note_on_c, 1, 68, 64
3, 49079, Note_off_c, 1, 68, 74
3, 49092, Note_on_c, 1, 68, 64
3, 49212, Note_off_c, 1, 68, 79
3, 49212, Note_on_c, 1, 66, 64
3, 49332, Note_off_c, 1, 66, 65
3, 49332, Note_on_c, 1, 64, 64
3, 49452, Note_off_c, 1, 64, 61
3, 49452, Note_on_c, 1, 64, 64
3, 49572, Note_off_c, 1, 64, 51
3, 49572, Note_on_c, 1, 63, 64
3, 49692, Note_off_c, 1, 63, 52
3, 49692, Note_on_c, 1, 63, 64
3, 50522, Note_off_c, 1, 63, 50
3, 50535, Note_on_c, 1, 66, 64
3, 50655, Note_off_c, 1, 66, 72
3, 50655, Note_on_c, 1, 64, 64
3, 50775, Note_off_c, 1, 64, 52
3, 50775, Note_on_c, 1, 62, 64
3, 50895, Note_off_c, 1, 62, 62
3, 50895, Note_on_c, 1, 62, 64
3, 51015, Note_off_c, 1, 62, 65
3, 51015, Note_on_c, 1, 61, 64
3, 51135, Note_off_c, 1, 61, 65
3, 51135, Note_on_c, 1, 61, 64
3, 52095, Note_off_c, 1, 61, 68
3, 52095, Note_on_c, 1, 59, 64
3, 52575, Note_off_c, 1, 59, 11
3, 52695, Note_on_c, 1, 68, 64
3, 52815, Note_off_c, 1, 68, 65
3, 52815, Note_on_c, 1, 66, 64
3, 52935, Note_off_c, 1, 66, 65
3, 52935, Note_on_c, 1, 64, 64
3, 53055, Note_off_c, 1, 64, 52
3, 53055, Note_on_c, 1, 64, 64
3, 53175, Note_off_c, 1, 64, 49
3, 53175, Note_on_c, 1, 63, 64
3, 53295, Note_off_c, 1, 63, 58
3, 53295, Note_on_c, 1, 63, 64
3, 53415, Note_off_c, 1, 63, 46
3, 53415, Note_on_c, 1, 64, 64
3, 53535, Note_off_c, 1, 64, 52
3, 53535, Note_on_c, 1, 64, 64
3, 53655, Note_off_c, 1, 64, 58
3, 53655, Note_on_c, 1, 62, 64
3, 53775, Note_off_c, 1, 62, 52
3, 53775, Note_on_c, 1, 62, 64
3, 53895, Note_off_c, 1, 62, 63
3, 53895, Note_on_c, 1, 61, 64
3, 54015, Note_off_c, 1, 61, 61
3, 54015, Note_on_c, 1, 61, 64
3, 54615, Note_off_c, 1, 61, 55
3, 54615, Note_on_c, 1, 63, 64
3, 54735, Note_off_c, 1, 63, 50
3, 54735, Note_on_c, 1, 64, 64
3, 54975, Note_off_c, 1, 64, 53
3, 54975, Note_on_c, 1, 66, 64
3, 55095, Note_off_c, 1, 66, 68
3, 55095, Note_on_c, 1, 64, 64
3, 55215, Note_off_c, 1, 64, 49
3, 55215, Note_on_c, 1, 66, 64
3, 55935, Note_off_c, 1, 66, 69
3, 55935, Note_on_c, 1, 65, 64
3, 56175, Note_off_c, 1, 65, 61
3, 56175, Note_on_c, 1, 66, 64
3, 57615, Note_off_c, 1, 66, 79
3, 57615, End_track
4, 0, Start_track
4, 0, Text_t, "LH H"
4, 240, Note_on_c, 2, 54, 64
4, 480, Note_off_c, 2, 54, 49
4, 480, Note_on_c, 2, 56, 64
4, 720, Note_off_c, 2, 56, 61
4, 720, Note_on_c, 2, 57, 64
4, 1680, Note_off_c, 2, 57, 52
4, 1680, Note_on_c, 2, 56, 64
4, 1800, Note_off_c, 2, 56, 61
4, 1800, Note_on_c, 2, 58, 64
4, 1920, Note_off_c, 2, 58, 51
4, 1920, Note_on_c, 2, 59, 64
4, 2400, Note_off_c, 2, 59, 53
4, 2400, Note_on_c, 2, 58, 64
4, 2520, Note_off_c, 2, 58, 65
4, 2520, Note_on_c, 2, 56, 64
4, 2640, Note_off_c, 2, 56, 51
4, 2640, Note_on_c, 2, 58, 64
4, 2760, Note_off_c, 2, 58, 61
4, 2760, Note_on_c, 2, 60, 64
4, 2880, Note_off_c, 2, 60, 52
4, 2880, Note_on_c, 2, 61, 64
4, 3240, Note_off_c, 2, 61, 54
4, 3240, Note_on_c, 2, 59, 64
4, 3360, Note_off_c, 2, 59, 48
4, 3360, Note_on_c, 2, 57, 64
4, 3480, Note_off_c, 2, 57, 25
4, 3480, Note_on_c, 2, 61, 64
4, 3600, Note_off_c, 2, 61, 53
4, 3600, Note_on_c, 2, 59, 64
4, 3720, Note_off_c, 2, 59, 46
4, 3720, Note_on_c, 2, 57, 64
4, 3830, Note_off_c, 2, 57, 31
4, 3843, Note_on_c, 2, 57, 70
4, 3873, Note_off_c, 2, 57, 54
4, 3873, Note_on_c, 2, 56, 51
4, 3903, Note_off_c, 2, 56, 49
4, 3903, Note_on_c, 2, 57, 53
4, 3933, Note_off_c, 2, 57, 52
4, 3933, Note_on_c, 2, 56, 56
4, 3963, Note_off_c, 2, 56, 53
4, 3963, Note_on_c, 2, 57, 58
4, 3993, Note_off_c, 2, 57, 39
4, 3993, Note_on_c, 2, 56, 61
4, 4023, Note_off_c, 2, 56, 49
4, 4023, Note_on_c, 2, 57, 63
4, 4053, Note_off_c, 2, 57, 51
4, 4053, Note_on_c, 2, 56, 66
4, 4323, Note_off_c, 2, 56, 53
4, 4323, Note_on_c, 2, 54, 64
4, 5043, Note_off_c, 2, 54, 58
4, 5163, Note_on_c, 2, 61, 64
4, 5283, Note_off_c, 2, 61, 69
4, 5283, Note_on_c, 2, 61, 64
4, 5403, Note_off_c, 2, 61, 69
4, 5403, Note_on_c, 2, 59, 64
4, 5523, Note_off_c, 2, 59, 49
4, 5523, Note_on_c, 2, 59, 64
4, 5643, Note_off_c, 2, 59, 65
4, 5643, Note_on_c, 2, 58, 64
4, 5763, Note_off_c, 2, 58, 66
4, 5763, Note_on_c, 2, 58, 64
4, 5883, Note_off_c, 2, 58, 49
4, 5883, Note_on_c, 2, 59, 64
4, 6003, Note_off_c, 2, 59, 57
4, 6003, Note_on_c, 2, 59, 64
4, 6123, Note_off_c, 2, 59, 51
4, 6123, Note_on_c, 2, 57, 64
4, 6243, Note_off_c, 2, 57, 52
4, 6243, Note_on_c, 2, 57, 64
4, 6363, Note_off_c, 2, 57, 58
4, 6363, Note_on_c, 2, 56, 64
4, 6483, Note_off_c, 2, 56, 57
4, 6483, Note_on_c, 2, 56, 64
4, 7083, Note_off_c, 2, 56, 49
4, 7083, Note_on_c, 2, 58, 64
4, 7203, Note_off_c, 2, 58, 59
4, 7203, Note_on_c, 2, 60, 64
4, 7323, Note_off_c, 2, 60, 52
4, 7323, Note_on_c, 2, 61, 64
4, 7443, Note_off_c, 2, 61, 62
4, 7443, Note_on_c, 2, 63, 64
4, 7683, Note_off_c, 2, 63, 57
4, 7683, Note_on_c, 2, 56, 64
4, 7923, Note_off_c, 2, 56, 54
4, 7923, Note_on_c, 2, 61, 64
4, 8403, Note_off_c, 2, 61, 68
4, 8403, Note_on_c, 2, 60, 64
4, 8643, Note_off_c, 2, 60, 61
4, 8643, Note_on_c, 2, 61, 64
4, 9003, Note_off_c, 2, 61, 62
4, 9003, Note_on_c, 2, 59, 64
4, 9123, Note_off_c, 2, 59, 47
4, 9123, Note_on_c, 2, 61, 64
4, 9243, Note_off_c, 2, 61, 69
4, 9243, Note_on_c, 2, 63, 64
4, 9363, Note_off_c, 2, 63, 54
4, 9363, Note_on_c, 2, 64, 64
4, 9723, Note_off_c, 2, 64, 47
4, 9723, Note_on_c, 2, 61, 64
4, 9843, Note_off_c, 2, 61, 68
4, 9843, Note_on_c, 2, 63, 64
4, 9963, Note_off_c, 2, 63, 55
4, 9963, Note_on_c, 2, 65, 64
4, 10083, Note_off_c, 2, 65, 63
4, 10083, Note_on_c, 2, 66, 64
4, 10323, Note_off_c, 2, 66, 72
4, 10323, Note_on_c, 2, 61, 64
4, 10563, Note_off_c, 2, 61, 70
4, 10563, Note_on_c, 2, 59, 64
4, 10803, Note_off_c, 2, 59, 55
4, 10803, Note_on_c, 2, 61, 64
4, 11043, Note_off_c, 2, 61, 72
4, 11043, Note_on_c, 2, 57, 64
4, 11283, Note_off_c, 2, 57, 63
4, 11283, Note_on_c, 2, 54, 64
4, 11523, Note_off_c, 2, 54, 65
4, 11523, Note_on_c, 2, 59, 64
4, 12243, Note_off_c, 2, 59, 62
4, 12243, Note_on_c, 2, 53, 64
4, 12363, Note_off_c, 2, 53, 69
4, 12363, Note_on_c, 2, 49, 64
4, 12483, Note_off_c, 2, 49, 40
4, 12483, Note_on_c, 2, 54, 64
4, 12723, Note_off_c, 2, 54, 62
4, 12723, Note_on_c, 2, 61, 64
4, 13083, Note_off_c, 2, 61, 62
4, 13083, Note_on_c, 2, 63, 64
4, 13203, Note_off_c, 2, 63, 51
4, 13203, Note_on_c, 2, 65, 64
4, 13443, Note_off_c, 2, 65, 61
4, 13443, Note_on_c, 2, 66, 64
4, 13563, Note_off_c, 2, 66, 66
4, 13563, Note_on_c, 2, 64, 64
4, 13683, Note_off_c, 2, 64, 57
4, 13683, Note_on_c, 2, 62, 64
4, 13803, Note_off_c, 2, 62, 62
4, 13803, Note_on_c, 2, 61, 64
4, 13923, Note_off_c, 2, 61, 51
4, 13923, Note_on_c, 2, 59, 64
4, 14523, Note_off_c, 2, 59, 52
4, 14523, Note_on_c, 2, 57, 64
4, 14643, Note_off_c, 2, 57, 37
4, 14643, Note_on_c, 2, 59, 64
4, 14763, Note_off_c, 2, 59, 55
4, 14763, Note_on_c, 2, 61, 64
4, 14883, Note_off_c, 2, 61, 58
4, 14883, Note_on_c, 2, 62, 64
4, 15243, Note_off_c, 2, 62, 57
4, 15243, Note_on_c, 2, 61, 64
4, 15363, Note_off_c, 2, 61, 69
4, 15363, Note_on_c, 2, 63, 64
4, 15483, Note_off_c, 2, 63, 68
4, 15483, Note_on_c, 2, 65, 64
4, 15603, Note_off_c, 2, 65, 46
4, 15603, Note_on_c, 2, 66, 64
4, 15963, Note_off_c, 2, 66, 72
4, 15963, Note_on_c, 2, 66, 64
4, 16083, Note_off_c, 2, 66, 70
4, 16083, Note_on_c, 2, 64, 64
4, 16203, Note_off_c, 2, 64, 63
4, 16203, Note_on_c, 2, 63, 64
4, 16323, Note_off_c, 2, 63, 63
4, 16323, Note_on_c, 2, 61, 64
4, 16443, Note_off_c, 2, 61, 65
4, 16443, Note_on_c, 2, 59, 64
4, 16563, Note_off_c, 2, 59, 39
4, 16563, Note_on_c, 2, 58, 64
4, 16803, Note_off_c, 2, 58, 68
4, 16803, Note_on_c, 2, 60, 64
4, 16923, Note_off_c, 2, 60, 66
4, 16923, Note_on_c, 2, 61, 64
4, 17043, Note_off_c, 2, 61, 69
4, 17043, Note_on_c, 2, 63, 64
4, 17403, Note_off_c, 2, 63, 55
4, 17403, Note_on_c, 2, 63, 64
4, 17523, Note_off_c, 2, 63, 49
4, 17523, Note_on_c, 2, 61, 64
4, 17763, Note_off_c, 2, 61, 68
4, 17763, Note_on_c, 2, 59, 64
4, 18003, Note_off_c, 2, 59, 55
4, 18003, Note_on_c, 2, 58, 64
4, 18123, Note_off_c, 2, 58, 61
4, 18123, Note_on_c, 2, 59, 64
4, 18243, Note_off_c, 2, 59, 58
4, 18243, Note_on_c, 2, 61, 64
4, 18833, Note_off_c, 2, 61, 68
4, 18846, Note_on_c, 2, 61, 64
4, 18966, Note_off_c, 2, 61, 68
4, 18966, Note_on_c, 2, 59, 64
4, 19206, Note_off_c, 2, 59, 54
4, 19206, Note_on_c, 2, 57, 64
4, 19446, Note_off_c, 2, 57, 52
4, 19446, Note_on_c, 2, 56, 64
4, 19566, Note_off_c, 2, 56, 53
4, 19566, Note_on_c, 2, 57, 64
4, 19686, Note_off_c, 2, 57, 58
4, 19686, Note_on_c, 2, 59, 64
4, 20286, Note_off_c, 2, 59, 61
4, 20286, Note_on_c, 2, 62, 64
4, 20406, Note_off_c, 2, 62, 57
4, 20406, Note_on_c, 2, 61, 64
4, 20526, Note_off_c, 2, 61, 66
4, 20526, Note_on_c, 2, 59, 64
4, 20646, Note_off_c, 2, 59, 65
4, 20646, Note_on_c, 2, 59, 64
4, 20766, Note_off_c, 2, 59, 54
4, 20766, Note_on_c, 2, 57, 64
4, 20886, Note_off_c, 2, 57, 43
4, 20886, Note_on_c, 2, 57, 64
4, 21006, Note_off_c, 2, 57, 40
4, 21006, Note_on_c, 2, 59, 64
4, 21126, Note_off_c, 2, 59, 49
4, 21126, Note_on_c, 2, 61, 64
4, 21606, Note_off_c, 2, 61, 65
4, 21606, Note_on_c, 2, 59, 64
4, 22326, Note_off_c, 2, 59, 51
4, 22326, Note_on_c, 2, 61, 64
4, 23166, Note_off_c, 2, 61, 65
4, 23166, Note_on_c, 2, 63, 64
4, 23286, Note_off_c, 2, 63, 51
4, 23286, Note_on_c, 2, 65, 64
4, 23526, Note_off_c, 2, 65, 1
4, 23526, Note_on_c, 2, 66, 64
4, 23646, Note_off_c, 2, 66, 70
4, 23646, Note_on_c, 2, 64, 64
4, 23766, Note_off_c, 2, 64, 51
4, 23766, Note_on_c, 2, 62, 64
4, 23886, Note_off_c, 2, 62, 47
4, 23886, Note_on_c, 2, 61, 64
4, 24006, Note_off_c, 2, 61, 66
4, 24006, Note_on_c, 2, 59, 64
4, 24126, Note_off_c, 2, 59, 53
4, 24126, Note_on_c, 2, 57, 64
4, 24246, Note_off_c, 2, 57, 27
4, 24246, Note_on_c, 2, 56, 64
4, 24366, Note_off_c, 2, 56, 59
4, 24366, Note_on_c, 2, 59, 64
4, 24486, Note_off_c, 2, 59, 63
4, 24486, Note_on_c, 2, 57, 64
4, 24726, Note_off_c, 2, 57, 62
4, 40566, Note_on_c, 2, 54, 64
4, 40806, Note_off_c, 2, 54, 66
4, 40806, Note_on_c, 2, 56, 64
4, 41046, Note_off_c, 2, 56, 62
4, 41046, Note_on_c, 2, 57, 64
4, 42006, Note_off_c, 2, 57, 54
4, 42006, Note_on_c, 2, 56, 64
4, 42126, Note_off_c, 2, 56, 46
4, 42126, Note_on_c, 2, 58, 64
4, 42246, Note_off_c, 2, 58, 49
4, 42246, Note_on_c, 2, 59, 64
4, 42726, Note_off_c, 2, 59, 43
4, 42726, Note_on_c, 2, 58, 64
4, 42846, Note_off_c, 2, 58, 43
4, 42846, Note_on_c, 2, 56, 64
4, 42966, Note_off_c, 2, 56, 50
4, 42966, Note_on_c, 2, 58, 64
4, 43086, Note_off_c, 2, 58, 76
4, 43086, Note_on_c, 2, 60, 64
4, 43206, Note_off_c, 2, 60, 45
4, 43206, Note_on_c, 2, 61, 64
4, 43566, Note_off_c, 2, 61, 66
4, 43566, Note_on_c, 2, 59, 64
4, 43686, Note_off_c, 2, 59, 49
4, 43686, Note_on_c, 2, 57, 64
4, 43806, Note_off_c, 2, 57, 37
4, 43806, Note_on_c, 2, 61, 64
4, 43926, Note_off_c, 2, 61, 57
4, 43926, Note_on_c, 2, 59, 64
4, 44046, Note_off_c, 2, 59, 50
4, 44046, Note_on_c, 2, 57, 64
4, 44166, Note_off_c, 2, 57, 35
4, 44166, Note_on_c, 2, 56, 64
4, 44646, Note_off_c, 2, 56, 49
4, 44646, Note_on_c, 2, 54, 64
4, 44886, Note_off_c, 2, 54, 46
4, 44886, Note_on_c, 2, 57, 64
4, 45606, Note_off_c, 2, 57, 50
4, 45606, Note_on_c, 2, 54, 64
4, 45846, Note_off_c, 2, 54, 39
4, 45846, Note_on_c, 2, 59, 64
4, 46566, Note_off_c, 2, 59, 46
4, 46566, Note_on_c, 2, 61, 64
4, 46686, Note_off_c, 2, 61, 61
4, 46686, Note_on_c, 2, 59, 64
4, 46806, Note_off_c, 2, 59, 51
4, 46806, Note_on_c, 2, 57, 64
4, 47286, Note_off_c, 2, 57, 46
4, 47646, Note_on_c, 2, 54, 64
4, 47766, Note_off_c, 2, 54, 51
4, 47766, Note_on_c, 2, 59, 64
4, 48126, Note_off_c, 2, 59, 47
4, 48126, Note_on_c, 2, 57, 64
4, 48246, Note_off_c, 2, 57, 55
4, 48246, Note_on_c, 2, 56, 64
4, 48606, Note_off_c, 2, 56, 55
4, 48606, Note_on_c, 2, 56, 64
4, 48726, Note_off_c, 2, 56, 55
4, 48726, Note_on_c, 2, 61, 64
4, 49086, Note_off_c, 2, 61, 40
4, 49086, Note_on_c, 2, 64, 64
4, 49206, Note_off_c, 2, 64, 30
4, 49206, Note_on_c, 2, 63, 64
4, 49326, Note_off_c, 2, 63, 49
4, 49326, Note_on_c, 2, 61, 64
4, 49446, Note_off_c, 2, 61, 65
4, 49446, Note_on_c, 2, 61, 64
4, 49566, Note_off_c, 2, 61, 57
4, 49566, Note_on_c, 2, 59, 64
4, 49686, Note_off_c, 2, 59, 50
4, 49686, Note_on_c, 2, 59, 64
4, 50406, Note_off_c, 2, 59, 40
4, 50526, Note_on_c, 2, 62, 64
4, 50646, Note_off_c, 2, 62, 45
4, 50646, Note_on_c, 2, 61, 64
4, 50766, Note_off_c, 2, 61, 61
4, 50766, Note_on_c, 2, 59, 64
4, 50886, Note_off_c, 2, 59, 50
4, 50886, Note_on_c, 2, 59, 64
4, 51006, Note_off_c, 2, 59, 52
4, 51006, Note_on_c, 2, 57, 64
4, 51126, Note_off_c, 2, 57, 37
4, 51126, Note_on_c, 2, 57, 64
4, 52086, Note_off_c, 2, 57, 40
4, 52206, Note_on_c, 2, 57, 64
4, 52326, Note_off_c, 2, 57, 37
4, 52326, Note_on_c, 2, 56, 64
4, 52446, Note_off_c, 2, 56, 55
4, 52446, Note_on_c, 2, 54, 64
4, 52566, Note_off_c, 2, 54, 35
4, 52566, Note_on_c, 2, 53, 64
4, 52686, Note_off_c, 2, 53, 34
4, 52686, Note_on_c, 2, 59, 64
4, 52806, Note_off_c, 2, 59, 51
4, 52806, Note_on_c, 2, 57, 64
4, 52926, Note_off_c, 2, 57, 51
4, 52926, Note_on_c, 2, 56, 64
4, 53046, Note_off_c, 2, 56, 68
4, 53046, Note_on_c, 2, 56, 64
4, 53166, Note_off_c, 2, 56, 49
4, 53166, Note_on_c, 2, 54, 64
4, 53286, Note_off_c, 2, 54, 59
4, 53286, Note_on_c, 2, 54, 64
4, 53406, Note_off_c, 2, 54, 58
4, 53406, Note_on_c, 2, 56, 64
4, 53526, Note_off_c, 2, 56, 63
4, 53526, Note_on_c, 2, 56, 64
4, 53646, Note_off_c, 2, 56, 61
4, 53646, Note_on_c, 2, 54, 64
4, 53766, Note_off_c, 2, 54, 57
4, 53766, Note_on_c, 2, 54, 64
4, 53886, Note_off_c, 2, 54, 62
4, 53886, Note_on_c, 2, 53, 64
4, 54006, Note_off_c, 2, 53, 58
4, 54006, Note_on_c, 2, 53, 64
4, 54246, Note_off_c, 2, 53, 53
4, 54246, Note_on_c, 2, 54, 64
4, 54366, Note_off_c, 2, 54, 59
4, 54366, Note_on_c, 2, 53, 64
4, 54486, Note_off_c, 2, 53, 59
4, 54486, Note_on_c, 2, 54, 64
4, 54726, Note_off_c, 2, 54, 58
4, 54726, Note_on_c, 2, 56, 64
4, 54966, Note_off_c, 2, 56, 54
4, 54966, Note_on_c, 2, 61, 64
4, 55446, Note_off_c, 2, 61, 66
4, 55566, Note_on_c, 2, 54, 64
4, 55686, Note_off_c, 2, 54, 48
4, 55686, Note_on_c, 2, 61, 64
4, 55806, Note_off_c, 2, 61, 59
4, 55806, Note_on_c, 2, 59, 64
4, 55926, Note_off_c, 2, 59, 37
4, 55926, Note_on_c, 2, 59, 64
4, 56046, Note_off_c, 2, 59, 55
4, 56046, Note_on_c, 2, 58, 64
4, 56156, Note_off_c, 2, 58, 55
4, 56169, Note_on_c, 2, 58, 64
4, 57609, Note_off_c, 2, 58, 82
4, 57609, End_track
5, 0, Start_track
5, 0, Text_t, "LH L"
5, 10320, Note_on_c, 3, 42, 64
5, 10560, Note_off_c, 3, 42, 55
5, 10560, Note_on_c, 3, 44, 64
5, 10800, Note_off_c, 3, 44, 63
5, 10800, Note_on_c, 3, 45, 64
5, 11760, Note_off_c, 3, 45, 57
5, 11760, Note_on_c, 3, 44, 64
5, 11880, Note_off_c, 3, 44, 62
5, 11880, Note_on_c, 3, 46, 64
5, 12000, Note_off_c, 3, 46, 62
5, 12000, Note_on_c, 3, 47, 64
5, 12480, Note_off_c, 3, 47, 54
5, 12480, Note_on_c, 3, 46, 64
5, 12600, Note_off_c, 3, 46, 70
5, 12600, Note_on_c, 3, 44, 64
5, 12720, Note_off_c, 3, 44, 59
5, 12720, Note_on_c, 3, 46, 64
5, 12840, Note_off_c, 3, 46, 79
5, 12840, Note_on_c, 3, 48, 64
5, 12960, Note_off_c, 3, 48, 35
5, 12960, Note_on_c, 3, 49, 64
5, 13320, Note_off_c, 3, 49, 65
5, 13320, Note_on_c, 3, 47, 64
5, 13440, Note_off_c, 3, 47, 25
5, 13440, Note_on_c, 3, 45, 64
5, 13560, Note_off_c, 3, 45, 34
5, 13560, Note_on_c, 3, 49, 64
5, 13680, Note_off_c, 3, 49, 55
5, 13680, Note_on_c, 3, 47, 64
5, 13800, Note_off_c, 3, 47, 55
5, 13800, Note_on_c, 3, 45, 64
5, 13910, Note_off_c, 3, 45, 28
5, 13923, Note_on_c, 3, 45, 70
5, 13953, Note_off_c, 3, 45, 54
5, 13953, Note_on_c, 3, 44, 51
5, 13983, Note_off_c, 3, 44, 49
5, 13983, Note_on_c, 3, 45, 53
5, 14013, Note_off_c, 3, 45, 52
5, 14013, Note_on_c, 3, 44, 56
5, 14043, Note_off_c, 3, 44, 53
5, 14043, Note_on_c, 3, 45, 58
5, 14073, Note_off_c, 3, 45, 39
5, 14073, Note_on_c, 3, 44, 61
5, 14103, Note_off_c, 3, 44, 49
5, 14103, Note_on_c, 3, 45, 63
5, 14133, Note_off_c, 3, 45, 51
5, 14133, Note_on_c, 3, 44, 66
5, 14403, Note_off_c, 3, 44, 53
5, 14403, Note_on_c, 3, 42, 64
5, 14763, Note_off_c, 3, 42, 52
5, 14763, Note_on_c, 3, 40, 64
5, 14883, Note_off_c, 3, 40, 23
5, 14883, Note_on_c, 3, 42, 64
5, 15003, Note_off_c, 3, 42, 61
5, 15003, Note_on_c, 3, 44, 64
5, 15123, Note_off_c, 3, 44, 63
5, 15123, Note_on_c, 3, 45, 64
5, 15723, Note_off_c, 3, 45, 51
5, 15723, Note_on_c, 3, 47, 64
5, 15843, Note_off_c, 3, 47, 49
5, 15843, Note_on_c, 3, 49, 64
5, 15963, Note_off_c, 3, 49, 68
5, 15963, Note_on_c, 3, 48, 64
5, 16083, Note_off_c, 3, 48, 35
5, 16083, Note_on_c, 3, 49, 64
5, 16203, Note_off_c, 3, 49, 66
5, 16203, Note_on_c, 3, 51, 64
5, 16323, Note_off_c, 3, 51, 52
5, 16323, Note_on_c, 3, 52, 64
5, 16683, Note_off_c, 3, 52, 70
5, 16683, Note_on_c, 3, 54, 64
5, 16803, Note_off_c, 3, 54, 53
5, 16803, Note_on_c, 3, 52, 64
5, 16923, Note_off_c, 3, 52, 74
5, 16923, Note_on_c, 3, 51, 64
5, 17043, Note_off_c, 3, 51, 54
5, 17043, Note_on_c, 3, 49, 64
5, 17163, Note_off_c, 3, 49, 54
5, 17163, Note_on_c, 3, 48, 64
5, 17283, Note_off_c, 3, 48, 39
5, 17283, Note_on_c, 3, 49, 64
5, 17643, Note_off_c, 3, 49, 72
5, 17643, Note_on_c, 3, 49, 64
5, 17763, Note_off_c, 3, 49, 61
5, 17763, Note_on_c, 3, 50, 64
5, 17883, Note_off_c, 3, 50, 40
5, 17883, Note_on_c, 3, 52, 64
5, 18003, Note_off_c, 3, 52, 61
5, 18003, Note_on_c, 3, 54, 64
5, 18363, Note_off_c, 3, 54, 57
5, 18363, Note_on_c, 3, 42, 64
5, 18483, Note_off_c, 3, 42, 61
5, 18483, Note_on_c, 3, 44, 64
5, 18603, Note_off_c, 3, 44, 54
5, 18603, Note_on_c, 3, 46, 64
5, 18723, Note_off_c, 3, 46, 58
5, 18723, Note_on_c, 3, 47, 64
5, 19083, Note_off_c, 3, 47, 53
5, 19083, Note_on_c, 3, 47, 64
5, 19203, Note_off_c, 3, 47, 57
5, 19203, Note_on_c, 3, 49, 64
5, 19323, Note_off_c, 3, 49, 69
5, 19323, Note_on_c, 3, 50, 64
5, 19443, Note_off_c, 3, 50, 69
5, 19443, Note_on_c, 3, 52, 64
5, 19803, Note_off_c, 3, 52, 65
5, 19803, Note_on_c, 3, 40, 64
5, 19923, Note_off_c, 3, 40, 20
5, 19923, Note_on_c, 3, 42, 64
5, 20043, Note_off_c, 3, 42, 53
5, 20043, Note_on_c, 3, 44, 64
5, 20163, Note_off_c, 3, 44, 54
5, 20163, Note_on_c, 3, 45, 64
5, 20283, Note_off_c, 3, 45, 55
5, 20283, Note_on_c, 3, 47, 64
5, 20403, Note_off_c, 3, 47, 58
5, 20403, Note_on_c, 3, 45, 64
5, 20523, Note_off_c, 3, 45, 70
5, 20523, Note_on_c, 3, 44, 64
5, 20643, Note_off_c, 3, 44, 63
5, 20643, Note_on_c, 3, 44, 64
5, 20763, Note_off_c, 3, 44, 66
5, 20763, Note_on_c, 3, 42, 64
5, 20883, Note_off_c, 3, 42, 65
5, 20883, Note_on_c, 3, 42, 64
5, 21003, Note_off_c, 3, 42, 76
5, 21003, Note_on_c, 3, 54, 64
5, 21123, Note_off_c, 3, 54, 69
5, 21123, Note_on_c, 3, 54, 64
5, 21243, Note_off_c, 3, 54, 61
5, 21243, Note_on_c, 3, 52, 64
5, 21363, Note_off_c, 3, 52, 70
5, 21363, Note_on_c, 3, 52, 64
5, 21483, Note_off_c, 3, 52, 77
5, 21483, Note_on_c, 3, 51, 64
5, 21603, Note_off_c, 3, 51, 62
5, 21603, Note_on_c, 3, 51, 64
5, 21723, Note_off_c, 3, 51, 63
5, 21723, Note_on_c, 3, 52, 64
5, 21843, Note_off_c, 3, 52, 76
5, 21843, Note_on_c, 3, 52, 64
5, 21963, Note_off_c, 3, 52, 66
5, 21963, Note_on_c, 3, 50, 64
5, 22083, Note_off_c, 3, 50, 72
5, 22083, Note_on_c, 3, 50, 64
5, 22203, Note_off_c, 3, 50, 74
5, 22203, Note_on_c, 3, 49, 64
5, 22323, Note_off_c, 3, 49, 68
5, 22323, Note_on_c, 3, 49, 64
5, 22923, Note_off_c, 3, 49, 69
5, 22923, Note_on_c, 3, 51, 64
5, 23043, Note_off_c, 3, 51, 63
5, 23043, Note_on_c, 3, 53, 64
5, 23163, Note_off_c, 3, 53, 57
5, 23163, Note_on_c, 3, 54, 64
5, 23283, Note_off_c, 3, 54, 57
5, 23283, Note_on_c, 3, 56, 64
5, 23523, Note_off_c, 3, 56, 55
5, 23523, Note_on_c, 3, 49, 64
5, 23763, Note_off_c, 3, 49, 69
5, 23763, Note_on_c, 3, 54, 64
5, 24243, Note_off_c, 3, 54, 61
5, 24243, Note_on_c, 3, 53, 64
5, 24483, Note_off_c, 3, 53, 65
5, 24483, Note_on_c, 3, 54, 64
5, 24843, Note_off_c, 3, 54, 65
5, 24843, Note_on_c, 3, 53, 64
5, 24963, Note_off_c, 3, 53, 53
5, 24963, Note_on_c, 3, 54, 64
5, 25083, Note_off_c, 3, 54, 57
5, 25083, Note_on_c, 3, 56, 64
5, 25203, Note_off_c, 3, 56, 49
5, 25203, Note_on_c, 3, 57, 64
5, 25563, Note_off_c, 3, 57, 57
5, 25563, Note_on_c, 3, 54, 64
5, 25683, Note_off_c, 3, 54, 58
5, 25683, Note_on_c, 3, 56, 64
5, 25803, Note_off_c, 3, 56, 61
5, 25803, Note_on_c, 3, 58, 64
5, 25923, Note_off_c, 3, 58, 49
5, 25923, Note_on_c, 3, 59, 64
5, 26043, Note_off_c, 3, 59, 66
5, 26043, Note_on_c, 3, 47, 64
5, 26163, Note_off_c, 3, 47, 61
5, 26163, Note_on_c, 3, 47, 64
5, 26283, Note_off_c, 3, 47, 49
5, 26283, Note_on_c, 3, 45, 64
5, 26403, Note_off_c, 3, 45, 51
5, 26403, Note_on_c, 3, 45, 64
5, 26523, Note_off_c, 3, 45, 37
5, 26523, Note_on_c, 3, 44, 64
5, 26643, Note_off_c, 3, 44, 69
5, 26643, Note_on_c, 3, 44, 64
5, 26763, Note_off_c, 3, 44, 76
5, 26763, Note_on_c, 3, 57, 64
5, 26883, Note_off_c, 3, 57, 57
5, 26883, Note_on_c, 3, 57, 64
5, 27003, Note_off_c, 3, 57, 57
5, 27003, Note_on_c, 3, 56, 64
5, 27123, Note_off_c, 3, 56, 42
5, 27123, Note_on_c, 3, 56, 64
5, 27243, Note_off_c, 3, 56, 58
5, 27243, Note_on_c, 3, 54, 64
5, 27363, Note_off_c, 3, 54, 55
5, 27363, Note_on_c, 3, 54, 64
5, 27603, Note_off_c, 3, 54, 65
5, 27603, Note_on_c, 3, 56, 64
5, 27843, Note_off_c, 3, 56, 72
5, 27843, Note_on_c, 3, 44, 64
5, 28083, Note_off_c, 3, 44, 70
5, 28083, Note_on_c, 3, 49, 64
5, 28443, Note_off_c, 3, 49, 61
5, 28443, Note_on_c, 3, 49, 64
5, 28563, Note_off_c, 3, 49, 63
5, 28563, Note_on_c, 3, 50, 64
5, 28683, Note_off_c, 3, 50, 72
5, 28683, Note_on_c, 3, 52, 64
5, 28803, Note_off_c, 3, 52, 62
5, 28803, Note_on_c, 3, 54, 64
5, 28923, Note_off_c, 3, 54, 61
5, 28923, Note_on_c, 3, 55, 64
5, 29043, Note_off_c, 3, 55, 72
5, 29043, Note_on_c, 3, 54, 64
5, 29163, Note_off_c, 3, 54, 54
5, 29163, Note_on_c, 3, 52, 64
5, 29283, Note_off_c, 3, 52, 70
5, 29283, Note_on_c, 3, 50, 64
5, 29403, Note_off_c, 3, 50, 37
5, 29403, Note_on_c, 3, 49, 64
5, 29523, Note_off_c, 3, 49, 65
5, 29523, Note_on_c, 3, 47, 64
5, 29643, Note_off_c, 3, 47, 44
5, 29643, Note_on_c, 3, 50, 64
5, 29763, Note_off_c, 3, 50, 76
5, 29763, Note_on_c, 3, 44, 64
5, 29883, Note_off_c, 3, 44, 61
5, 29883, Note_on_c, 3, 42, 64
5, 30003, Note_off_c, 3, 42, 62
5, 30003, Note_on_c, 3, 42, 64
5, 30123, Note_off_c, 3, 42, 46
5, 30123, Note_on_c, 3, 41, 64
5, 30243, Note_off_c, 3, 41, 31
5, 30243, Note_on_c, 3, 41, 64
5, 30363, Note_off_c, 3, 41, 49
5, 30363, Note_on_c, 3, 53, 64
5, 30483, Note_off_c, 3, 53, 62
5, 30483, Note_on_c, 3, 54, 64
5, 30603, Note_off_c, 3, 54, 50
5, 30603, Note_on_c, 3, 56, 64
5, 30723, Note_off_c, 3, 56, 61
5, 30723, Note_on_c, 3, 56, 64
5, 30843, Note_off_c, 3, 56, 73
5, 30843, Note_on_c, 3, 57, 64
5, 30963, Note_off_c, 3, 57, 55
5, 30963, Note_on_c, 3, 57, 64
5, 31083, Note_off_c, 3, 57, 57
5, 31083, Note_on_c, 3, 62, 64
5, 31203, Note_off_c, 3, 62, 52
5, 31203, Note_on_c, 3, 62, 64
5, 31323, Note_off_c, 3, 62, 53
5, 31323, Note_on_c, 3, 61, 64
5, 31443, Note_off_c, 3, 61, 68
5, 31443, Note_on_c, 3, 61, 64
5, 31563, Note_off_c, 3, 61, 66
5, 31563, Note_on_c, 3, 59, 64
5, 31683, Note_off_c, 3, 59, 55
5, 31683, Note_on_c, 3, 59, 64
5, 31803, Note_off_c, 3, 59, 48
5, 31803, Note_on_c, 3, 57, 64
5, 31923, Note_off_c, 3, 57, 20
5, 31923, Note_on_c, 3, 56, 64
5, 32043, Note_off_c, 3, 56, 54
5, 32043, Note_on_c, 3, 62, 64
5, 32163, Note_off_c, 3, 62, 3
5, 32163, Note_on_c, 3, 61, 64
5, 32283, Note_off_c, 3, 61, 46
5, 32283, Note_on_c, 3, 59, 64
5, 32403, Note_off_c, 3, 59, 45
5, 32403, Note_on_c, 3, 58, 64
5, 32523, Note_off_c, 3, 58, 52
5, 32523, Note_on_c, 3, 59, 64
5, 32643, Note_off_c, 3, 59, 45
5, 32643, Note_on_c, 3, 59, 64
5, 32763, Note_off_c, 3, 59, 48
5, 32763, Note_on_c, 3, 57, 64
5, 32883, Note_off_c, 3, 57, 50
5, 32883, Note_on_c, 3, 57, 64
5, 33003, Note_off_c, 3, 57, 59
5, 33003, Note_on_c, 3, 56, 64
5, 33123, Note_off_c, 3, 56, 53
5, 33123, Note_on_c, 3, 56, 64
5, 33243, Note_off_c, 3, 56, 61
5, 33243, Note_on_c, 3, 54, 64
5, 33363, Note_off_c, 3, 54, 45
5, 33363, Note_on_c, 3, 52, 64
5, 33483, Note_off_c, 3, 52, 26
5, 33483, Note_on_c, 3, 59, 64
5, 33603, Note_off_c, 3, 59, 32
5, 33603, Note_on_c, 3, 57, 64
5, 33723, Note_off_c, 3, 57, 39
5, 33723, Note_on_c, 3, 56, 64
5, 33843, Note_off_c, 3, 56, 49
5, 33843, Note_on_c, 3, 54, 64
5, 33963, Note_off_c, 3, 54, 58
5, 33963, Note_on_c, 3, 56, 64
5, 34083, Note_off_c, 3, 56, 58
5, 34083, Note_on_c, 3, 56, 64
5, 34203, Note_off_c, 3, 56, 62
5, 34203, Note_on_c, 3, 54, 64
5, 34323, Note_off_c, 3, 54, 59
5, 34323, Note_on_c, 3, 54, 64
5, 34443, Note_off_c, 3, 54, 57
5, 34443, Note_on_c, 3, 53, 64
5, 34563, Note_off_c, 3, 53, 52
5, 34563, Note_on_c, 3, 53, 64
5, 34803, Note_off_c, 3, 53, 50
5, 34803, Note_on_c, 3, 54, 64
5, 35043, Note_off_c, 3, 54, 34
5, 35043, Note_on_c, 3, 42, 64
5, 35283, Note_off_c, 3, 42, 29
5, 35283, Note_on_c, 3, 49, 64
5, 35403, Note_off_c, 3, 49, 55
5, 35403, Note_on_c, 3, 51, 64
5, 35523, Note_off_c, 3, 51, 62
5, 35523, Note_on_c, 3, 52, 64
5, 35643, Note_off_c, 3, 52, 48
5, 35643, Note_on_c, 3, 54, 64
5, 35763, Note_off_c, 3, 54, 44
5, 35763, Note_on_c, 3, 55, 64
5, 35883, Note_off_c, 3, 55, 59
5, 35883, Note_on_c, 3, 52, 64
5, 36003, Note_off_c, 3, 52, 47
5, 36003, Note_on_c, 3, 54, 64
5, 36123, Note_off_c, 3, 54, 69
5, 36123, Note_on_c, 3, 42, 64
5, 36243, Note_off_c, 3, 42, 43
5, 36243, Note_on_c, 3, 47, 64
5, 36363, Note_off_c, 3, 47, 49
5, 36363, Note_on_c, 3, 49, 64
5, 36483, Note_off_c, 3, 49, 48
5, 36483, Note_on_c, 3, 50, 64
5, 36603, Note_off_c, 3, 50, 49
5, 36603, Note_on_c, 3, 47, 64
5, 36723, Note_off_c, 3, 47, 48
5, 36723, Note_on_c, 3, 49, 64
5, 36843, Note_off_c, 3, 49, 74
5, 36843, Note_on_c, 3, 37, 64
5, 36963, Note_off_c, 3, 37, 46
5, 36963, Note_on_c, 3, 49, 64
5, 37083, Note_off_c, 3, 49, 57
5, 37083, Note_on_c, 3, 48, 64
5, 37203, Note_off_c, 3, 48, 49
5, 37203, Note_on_c, 3, 49, 64
5, 37323, Note_off_c, 3, 49, 70
5, 37323, Note_on_c, 3, 52, 64
5, 37443, Note_off_c, 3, 52, 58
5, 37443, Note_on_c, 3, 51, 64
5, 37563, Note_off_c, 3, 51, 58
5, 37563, Note_on_c, 3, 49, 64
5, 37683, Note_off_c, 3, 49, 48
5, 37683, Note_on_c, 3, 48, 64
5, 37803, Note_off_c, 3, 48, 61
5, 37803, Note_on_c, 3, 44, 64
5, 37923, Note_off_c, 3, 44, 37
5, 37923, Note_on_c, 3, 49, 64
5, 38043, Note_off_c, 3, 49, 68
5, 38043, Note_on_c, 3, 52, 64
5, 38163, Note_off_c, 3, 52, 76
5, 38163, Note_on_c, 3, 57, 64
5, 38283, Note_off_c, 3, 57, 50
5, 38283, Note_on_c, 3, 54, 64
5, 38403, Note_off_c, 3, 54, 47
5, 38403, Note_on_c, 3, 56, 64
5, 38523, Note_off_c, 3, 56, 52
5, 38523, Note_on_c, 3, 54, 64
5, 38643, Note_off_c, 3, 54, 69
5, 38643, Note_on_c, 3, 56, 64
5, 38763, Note_off_c, 3, 56, 66
5, 38763, Note_on_c, 3, 44, 64
5, 38883, Note_off_c, 3, 44, 47
5, 38883, Note_on_c, 3, 49, 64
5, 39123, Note_off_c, 3, 49, 72
5, 44883, Note_on_c, 3, 54, 64
5, 45123, Note_off_c, 3, 54, 51
5, 45123, Note_on_c, 3, 52, 64
5, 45363, Note_off_c, 3, 52, 59
5, 45363, Note_on_c, 3, 51, 64
5, 46323, Note_off_c, 3, 51, 41
5, 46323, Note_on_c, 3, 52, 64
5, 46443, Note_off_c, 3, 52, 63
5, 46443, Note_on_c, 3, 50, 64
5, 46563, Note_off_c, 3, 50, 41
5, 46563, Note_on_c, 3, 49, 64
5, 47043, Note_off_c, 3, 49, 65
5, 47043, Note_on_c, 3, 50, 64
5, 47163, Note_off_c, 3, 50, 62
5, 47163, Note_on_c, 3, 52, 64
5, 47283, Note_off_c, 3, 52, 65
5, 47283, Note_on_c, 3, 50, 64
5, 47403, Note_off_c, 3, 50, 49
5, 47403, Note_on_c, 3, 49, 64
5, 47523, Note_off_c, 3, 49, 52
5, 47523, Note_on_c, 3, 47, 64
5, 47883, Note_off_c, 3, 47, 34
5, 47883, Note_on_c, 3, 49, 64
5, 48003, Note_off_c, 3, 49, 65
5, 48003, Note_on_c, 3, 50, 64
5, 48123, Note_off_c, 3, 50, 53
5, 48123, Note_on_c, 3, 47, 64
5, 48243, Note_off_c, 3, 47, 43
5, 48243, Note_on_c, 3, 49, 64
5, 48363, Note_off_c, 3, 49, 62
5, 48363, Note_on_c, 3, 51, 64
5, 48483, Note_off_c, 3, 51, 76
5, 48483, Note_on_c, 3, 53, 64
5, 48963, Note_off_c, 3, 53, 63
5, 48963, Note_on_c, 3, 54, 64
5, 49803, Note_off_c, 3, 54, 50
5, 49803, Note_on_c, 3, 57, 64
5, 49923, Note_off_c, 3, 57, 47
5, 49923, Note_on_c, 3, 56, 64
5, 50043, Note_off_c, 3, 56, 51
5, 50043, Note_on_c, 3, 54, 64
5, 50163, Note_off_c, 3, 54, 55
5, 50163, Note_on_c, 3, 54, 64
5, 50283, Note_off_c, 3, 54, 46
5, 50283, Note_on_c, 3, 52, 64
5, 50403, Note_off_c, 3, 52, 52
5, 50403, Note_on_c, 3, 52, 64
5, 51243, Note_off_c, 3, 52, 42
5, 51243, Note_on_c, 3, 56, 64
5, 51363, Note_off_c, 3, 56, 50
5, 51363, Note_on_c, 3, 54, 64
5, 51483, Note_off_c, 3, 54, 46
5, 51483, Note_on_c, 3, 52, 64
5, 51603, Note_off_c, 3, 52, 43
5, 51603, Note_on_c, 3, 52, 64
5, 51723, Note_off_c, 3, 52, 33
5, 51723, Note_on_c, 3, 50, 64
5, 51843, Note_off_c, 3, 50, 37
5, 51843, Note_on_c, 3, 50, 64
5, 52563, Note_off_c, 3, 50, 33
5, 52563, Note_on_c, 3, 49, 64
5, 54843, Note_off_c, 3, 49, 70
5, 54843, Note_on_c, 3, 47, 64
5, 54963, Note_off_c, 3, 47, 49
5, 54963, Note_on_c, 3, 45, 64
5, 55083, Note_off_c, 3, 45, 16
5, 55083, Note_on_c, 3, 44, 64
5, 55203, Note_off_c, 3, 44, 48
5, 55203, Note_on_c, 3, 42, 64
5, 55323, Note_off_c, 3, 42, 46
5, 55323, Note_on_c, 3, 45, 64
5, 55443, Note_off_c, 3, 45, 72
5, 55443, Note_on_c, 3, 50, 64
5, 55563, Note_off_c, 3, 50, 57
5, 55563, Note_on_c, 3, 47, 64
5, 55683, Note_off_c, 3, 47, 43
5, 55683, Note_on_c, 3, 49, 64
5, 55923, Note_off_c, 3, 49, 76
5, 55923, Note_on_c, 3, 37, 64
5, 56163, Note_off_c, 3, 37, 53
5, 56163, Note_on_c, 3, 42, 64
5, 57603, Note_off_c, 3, 42, 74
5, 57603, End_track
0, 0, End_of_file
