0, 0, Header, 1, 3, 240
1, 0, Start_track
1, 0, Time_signature, 4, 2, 24, 8
1, 0, Tempo, 789474
1, 23160, Tempo, 821918
1, 23280, Tempo, 857143
1, 23400, Tempo, 895522
1, 23520, Tempo, 923077
1, 23760, Tempo, 1090909
1, 24000, Tempo, 1153846
1, 24240, Tempo, 1250000
1, 24240, End_track
2, 0, Start_track
2, 0, Text_t, "RH B"
2, 180, Note_on_c, 0, 69, 64
2, 240, Note_off_c, 0, 69, 69
2, 240, Note_on_c, 0, 65, 64
2, 280, Note_off_c, 0, 65, 46
2, 280, Note_on_c, 0, 62, 64
2, 320, Note_off_c, 0, 62, 15
2, 320, Note_on_c, 0, 69, 64
2, 360, Note_off_c, 0, 69, 65
2, 360, Note_on_c, 0, 65, 64
2, 400, Note_off_c, 0, 65, 45
2, 400, Note_on_c, 0, 62, 64
2, 440, Note_off_c, 0, 62, 20
2, 440, Note_on_c, 0, 74, 64
2, 480, Note_off_c, 0, 74, 20
2, 480, Note_on_c, 0, 70, 64
2, 520, Note_off_c, 0, 70, 49
2, 520, Note_on_c, 0, 67, 64
2, 560, Note_off_c, 0, 67, 19
2, 560, Note_on_c, 0, 70, 64
2, 600, Note_off_c, 0, 70, 47
2, 600, Note_on_c, 0, 67, 64
2, 640, Note_off_c, 0, 67, 44
2, 640, Note_on_c, 0, 64, 64
2, 680, Note_off_c, 0, 64, 30
2, 680, Note_on_c, 0, 67, 64
2, 720, Note_off_c, 0, 67, 45
2, 720, Note_on_c, 0, 64, 64
2, 760, Note_off_c, 0, 64, 29
2, 760, Note_on_c, 0, 61, 64
2, 800, Note_off_c, 0, 61, 50
2, 800, Note_on_c, 0, 67, 64
2, 840, Note_off_c, 0, 67, 42
2, 840, Note_on_c, 0, 64, 64
2, 880, Note_off_c, 0, 64, 22
2, 880, Note_on_c, 0, 61, 64
2, 920, Note_off_c, 0, 61, 45
2, 920, Note_on_c, 0, 69, 64
2, 960, Note_off_c, 0, 69, 53
2, 960, Note_on_c, 0, 65, 64
2, 1000, Note_off_c, 0, 65, 46
2, 1000, Note_on_c, 0, 62, 64
2, 1040, Note_off_c, 0, 62, 35
2, 1040, Note_on_c, 0, 69, 64
2, 1080, Note_off_c, 0, 69, 58
2, 1080, Note_on_c, 0, 65, 64
2, 1120, Note_off_c, 0, 65, 43
2, 1120, Note_on_c, 0, 62, 64
2, 1160, Note_off_c, 0, 62, 66
2, 1160, Note_on_c, 0, 81, 64
2, 1200, Note_off_c, 0, 81, 41
2, 1200, Note_on_c, 0, 77, 64
2, 1240, Note_off_c, 0, 77, 39
2, 1240, Note_on_c, 0, 74, 64
2, 1280, Note_off_c, 0, 74, 55
2, 1280, Note_on_c, 0, 77, 64
2, 1320, Note_off_c, 0, 77, 66
2, 1320, Note_on_c, 0, 74, 64
2, 1360, Note_off_c, 0, 74, 58
2, 1360, Note_on_c, 0, 69, 64
2, 1400, Note_off_c, 0, 69, 45
2, 1400, Note_on_c, 0, 74, 64
2, 1440, Note_off_c, 0, 74, 52
2, 1440, Note_on_c, 0, 70, 64
2, 1480, Note_off_c, 0, 70, 58
2, 1480, Note_on_c, 0, 67, 64
2, 1520, Note_off_c, 0, 67, 26
2, 1520, Note_on_c, 0, 74, 64
2, 1560, Note_off_c, 0, 74, 49
2, 1560, Note_on_c, 0, 70, 64
2, 1600, Note_off_c, 0, 70, 46
2, 1600, Note_on_c, 0, 67, 64
2, 1640, Note_off_c, 0, 67, 23
2, 1640, Note_on_c, 0, 79, 64
2, 1680, Note_off_c, 0, 79, 40
2, 1680, Note_on_c, 0, 76, 64
2, 1720, Note_off_c, 0, 76, 47
2, 1720, Note_on_c, 0, 72, 64
2, 1760, Note_off_c, 0, 72, 65
2, 1760, Note_on_c, 0, 76, 64
2, 1800, Note_off_c, 0, 76, 46
2, 1800, Note_on_c, 0, 72, 64
2, 1840, Note_off_c, 0, 72, 65
2, 1840, Note_on_c, 0, 67, 64
2, 1880, Note_off_c, 0, 67, 33
2, 1880, Note_on_c, 0, 72, 64
2, 1920, Note_off_c, 0, 72, 58
2, 1920, Note_on_c, 0, 69, 64
2, 1960, Note_off_c, 0, 69, 48
2, 1960, Note_on_c, 0, 65, 64
2, 2000, Note_off_c, 0, 65, 34
2, 2000, Note_on_c, 0, 72, 64
2, 2040, Note_off_c, 0, 72, 53
2, 2040, Note_on_c, 0, 69, 64
2, 2080, Note_off_c, 0, 69, 58
2, 2080, Note_on_c, 0, 65, 64
2, 2120, Note_off_c, 0, 65, 40
2, 2120, Note_on_c, 0, 77, 64
2, 2160, Note_off_c, 0, 77, 40
2, 2160, Note_on_c, 0, 74, 64
2, 2200, Note_off_c, 0, 74, 39
2, 2200, Note_on_c, 0, 70, 64
2, 2240, Note_off_c, 0, 70, 47
2, 2240, Note_on_c, 0, 74, 64
2, 2280, Note_off_c, 0, 74, 49
2, 2280, Note_on_c, 0, 70, 64
2, 2320, Note_off_c, 0, 70, 40
2, 2320, Note_on_c, 0, 67, 64
2, 2360, Note_off_c, 0, 67, 20
2, 2360, Note_on_c, 0, 79, 64
2, 2400, Note_off_c, 0, 79, 34
2, 2400, Note_on_c, 0, 76, 64
2, 2440, Note_off_c, 0, 76, 40
2, 2440, Note_on_c, 0, 72, 64
2, 2480, Note_off_c, 0, 72, 65
2, 2480, Note_on_c, 0, 76, 64
2, 2520, Note_off_c, 0, 76, 17
2, 2520, Note_on_c, 0, 72, 64
2, 2560, Note_off_c, 0, 72, 52
2, 2560, Note_on_c, 0, 69, 64
2, 2600, Note_off_c, 0, 69, 43
2, 2600, Note_on_c, 0, 81, 64
2, 2640, Note_off_c, 0, 81, 43
2, 2640, Note_on_c, 0, 77, 64
2, 2680, Note_off_c, 0, 77, 49
2, 2680, Note_on_c, 0, 74, 64
2, 2720, Note_off_c, 0, 74, 52
2, 2720, Note_on_c, 0, 77, 64
2, 2760, Note_off_c, 0, 77, 31
2, 2760, Note_on_c, 0, 74, 64
2, 2800, Note_off_c, 0, 74, 50
2, 2800, Note_on_c, 0, 70, 64
2, 2840, Note_off_c, 0, 70, 47
2, 2840, Note_on_c, 0, 82, 64
2, 2880, Note_off_c, 0, 82, 40
2, 2880, Note_on_c, 0, 79, 64
2, 2920, Note_off_c, 0, 79, 3
2, 2920, Note_on_c, 0, 76, 64
2, 2960, Note_off_c, 0, 76, 1
2, 2960, Note_on_c, 0, 79, 64
2, 3000, Note_off_c, 0, 79, 49
2, 3000, Note_on_c, 0, 76, 64
2, 3040, Note_off_c, 0, 76, 43
2, 3040, Note_on_c, 0, 72, 64
2, 3080, Note_off_c, 0, 72, 52
2, 3080, Note_on_c, 0, 84, 64
2, 3120, Note_off_c, 0, 84, 42
2, 3120, Note_on_c, 0, 81, 64
2, 3160, Note_off_c, 0, 81, 35
2, 3160, Note_on_c, 0, 77, 64
2, 3200, Note_off_c, 0, 77, 48
2, 3200, Note_on_c, 0, 81, 64
2, 3240, Note_off_c, 0, 81, 18
2, 3240, Note_on_c, 0, 77, 64
2, 3280, Note_off_c, 0, 77, 32
2, 3280, Note_on_c, 0, 72, 64
2, 3320, Note_off_c, 0, 72, 52
2, 3320, Note_on_c, 0, 81, 64
2, 3360, Note_off_c, 0, 81, 25
2, 3360, Note_on_c, 0, 77, 64
2, 3400, Note_off_c, 0, 77, 41
2, 3400, Note_on_c, 0, 74, 64
2, 3440, Note_off_c, 0, 74, 37
2, 3440, Note_on_c, 0, 77, 64
2, 3480, Note_off_c, 0, 77, 45
2, 3480, Note_on_c, 0, 74, 64
2, 3520, Note_off_c, 0, 74, 58
2, 3520, Note_on_c, 0, 69, 64
2, 3560, Note_off_c, 0, 69, 34
2, 3560, Note_on_c, 0, 77, 64
2, 3600, Note_off_c, 0, 77, 52
2, 3600, Note_on_c, 0, 74, 64
2, 3640, Note_off_c, 0, 74, 65
2, 3640, Note_on_c, 0, 70, 64
2, 3680, Note_off_c, 0, 70, 58
2, 3680, Note_on_c, 0, 74, 64
2, 3720, Note_off_c, 0, 74, 48
2, 3720, Note_on_c, 0, 70, 64
2, 3760, Note_off_c, 0, 70, 51
2, 3760, Note_on_c, 0, 65, 64
2, 3800, Note_off_c, 0, 65, 32
2, 3800, Note_on_c, 0, 74, 64
2, 3840, Note_off_c, 0, 74, 46
2, 3840, Note_on_c, 0, 70, 64
2, 3880, Note_off_c, 0, 70, 50
2, 3880, Note_on_c, 0, 67, 64
2, 3920, Note_off_c, 0, 67, 37
2, 3920, Note_on_c, 0, 70, 64
2, 3960, Note_off_c, 0, 70, 59
2, 3960, Note_on_c, 0, 67, 64
2, 4000, Note_off_c, 0, 67, 24
2, 4000, Note_on_c, 0, 62, 64
2, 4040, Note_off_c, 0, 62, 39
2, 4040, Note_on_c, 0, 70, 64
2, 4080, Note_off_c, 0, 70, 52
2, 4080, Note_on_c, 0, 67, 64
2, 4120, Note_off_c, 0, 67, 48
2, 4120, Note_on_c, 0, 60, 64
2, 4160, Note_off_c, 0, 60, 46
2, 4160, Note_on_c, 0, 70, 64
2, 4200, Note_off_c, 0, 70, 43
2, 4200, Note_on_c, 0, 67, 64
2, 4240, Note_off_c, 0, 67, 25
2, 4240, Note_on_c, 0, 64, 64
2, 4280, Note_off_c, 0, 64, 29
2, 4280, Note_on_c, 0, 70, 64
2, 4320, Note_off_c, 0, 70, 57
2, 4320, Note_on_c, 0, 69, 64
2, 4360, Note_off_c, 0, 69, 58
2, 4360, Note_on_c, 0, 65, 64
2, 4400, Note_off_c, 0, 65, 38
2, 4400, Note_on_c, 0, 69, 64
2, 4440, Note_off_c, 0, 69, 66
2, 4440, Note_on_c, 0, 65, 64
2, 4480, Note_off_c, 0, 65, 58
2, 4480, Note_on_c, 0, 60, 64
2, 4520, Note_off_c, 0, 60, 40
2, 4520, Note_on_c, 0, 65, 64
2, 4560, Note_off_c, 0, 65, 59
2, 4560, Note_on_c, 0, 62, 64
2, 4600, Note_off_c, 0, 62, 22
2, 4600, Note_on_c, 0, 58, 64
2, 4640, Note_off_c, 0, 58, 30
2, 4640, Note_on_c, 0, 65, 64
2, 4680, Note_off_c, 0, 65, 15
2, 4680, Note_on_c, 0, 60, 64
2, 4720, Note_off_c, 0, 60, 46
2, 4720, Note_on_c, 0, 58, 64
2, 4760, Note_off_c, 0, 58, 44
2, 4760, Note_on_c, 0, 64, 64
2, 4800, Note_off_c, 0, 64, 31
2, 4800, Note_on_c, 0, 60, 64
2, 4840, Note_off_c, 0, 60, 46
2, 4840, Note_on_c, 0, 57, 64
2, 4880, Note_off_c, 0, 57, 30
2, 4880, Note_on_c, 0, 65, 64
2, 4920, Note_off_c, 0, 65, 45
2, 4920, Note_on_c, 0, 60, 64
2, 4960, Note_off_c, 0, 60, 39
2, 4960, Note_on_c, 0, 57, 64
2, 5000, Note_off_c, 0, 57, 24
2, 5000, Note_on_c, 0, 60, 64
2, 5040, Note_off_c, 0, 60, 49
2, 5040, Note_on_c, 0, 57, 64
2, 5080, Note_off_c, 0, 57, 20
2, 5080, Note_on_c, 0, 53, 64
2, 5120, Note_off_c, 0, 53, 45
2, 5120, Note_on_c, 0, 60, 64
2, 5160, Note_off_c, 0, 60, 30
2, 5160, Note_on_c, 0, 57, 64
2, 5200, Note_off_c, 0, 57, 37
2, 5200, Note_on_c, 0, 53, 64
2, 5240, Note_off_c, 0, 53, 50
2, 5240, Note_on_c, 0, 60, 64
2, 5280, Note_off_c, 0, 60, 55
2, 5280, Note_on_c, 0, 57, 64
2, 5320, Note_off_c, 0, 57, 29
2, 5320, Note_on_c, 0, 54, 64
2, 5360, Note_off_c, 0, 54, 37
2, 5360, Note_on_c, 0, 60, 64
2, 5400, Note_off_c, 0, 60, 47
2, 5400, Note_on_c, 0, 57, 64
2, 5440, Note_off_c, 0, 57, 28
2, 5440, Note_on_c, 0, 54, 64
2, 5480, Note_off_c, 0, 54, 37
2, 5480, Note_on_c, 0, 63, 64
2, 5520, Note_off_c, 0, 63, 44
2, 5520, Note_on_c, 0, 57, 64
2, 5560, Note_off_c, 0, 57, 28
2, 5560, Note_on_c, 0, 54, 64
2, 5600, Note_off_c, 0, 54, 41
2, 5600, Note_on_c, 0, 62, 64
2, 5640, Note_off_c, 0, 62, 49
2, 5640, Note_on_c, 0, 57, 64
2, 5680, Note_off_c, 0, 57, 29
2, 5680, Note_on_c, 0, 54, 64
2, 5720, Note_off_c, 0, 54, 26
2, 5720, Note_on_c, 0, 60, 64
2, 5760, Note_off_c, 0, 60, 63
2, 5760, Note_on_c, 0, 58, 64
2, 5800, Note_off_c, 0, 58, 49
2, 5800, Note_on_c, 0, 55, 64
2, 5840, Note_off_c, 0, 55, 45
2, 5840, Note_on_c, 0, 62, 64
2, 5880, Note_off_c, 0, 62, 41
2, 5880, Note_on_c, 0, 58, 64
2, 5920, Note_off_c, 0, 58, 40
2, 5920, Note_on_c, 0, 55, 64
2, 5960, Note_off_c, 0, 55, 38
2, 5960, Note_on_c, 0, 62, 64
2, 6000, Note_off_c, 0, 62, 36
2, 6000, Note_on_c, 0, 58, 64
2, 6040, Note_off_c, 0, 58, 51
2, 6040, Note_on_c, 0, 55, 64
2, 6080, Note_off_c, 0, 55, 33
2, 6080, Note_on_c, 0, 64, 64
2, 6120, Note_off_c, 0, 64, 34
2, 6120, Note_on_c, 0, 58, 64
2, 6160, Note_off_c, 0, 58, 49
2, 6160, Note_on_c, 0, 55, 64
2, 6200, Note_off_c, 0, 55, 13
2, 6200, Note_on_c, 0, 66, 64
2, 6240, Note_off_c, 0, 66, 36
2, 6240, Note_on_c, 0, 58, 64
2, 6280, Note_off_c, 0, 58, 48
2, 6280, Note_on_c, 0, 55, 64
2, 6320, Note_off_c, 0, 55, 39
2, 6320, Note_on_c, 0, 67, 64
2, 6360, Note_off_c, 0, 67, 41
2, 6360, Note_on_c, 0, 62, 64
2, 6400, Note_off_c, 0, 62, 37
2, 6400, Note_on_c, 0, 58, 64
2, 6440, Note_off_c, 0, 58, 27
2, 6440, Note_on_c, 0, 67, 64
2, 6480, Note_off_c, 0, 67, 23
2, 6480, Note_on_c, 0, 63, 64
2, 6520, Note_off_c, 0, 63, 40
2, 6520, Note_on_c, 0, 57, 64
2, 6560, Note_off_c, 0, 57, 1
2, 6560, Note_on_c, 0, 67, 64
2, 6600, Note_off_c, 0, 67, 13
2, 6600, Note_on_c, 0, 62, 64
2, 6640, Note_off_c, 0, 62, 45
2, 6640, Note_on_c, 0, 57, 64
2, 6680, Note_off_c, 0, 57, 5
2, 6680, Note_on_c, 0, 66, 64
2, 6720, Note_off_c, 0, 66, 48
2, 6720, Note_on_c, 0, 62, 64
2, 6760, Note_off_c, 0, 62, 45
2, 6760, Note_on_c, 0, 58, 64
2, 6800, Note_off_c, 0, 58, 37
2, 6800, Note_on_c, 0, 67, 64
2, 6840, Note_off_c, 0, 67, 34
2, 6840, Note_on_c, 0, 62, 64
2, 6880, Note_off_c, 0, 62, 37
2, 6880, Note_on_c, 0, 58, 64
2, 6920, Note_off_c, 0, 58, 49
2, 6920, Note_on_c, 0, 62, 64
2, 6960, Note_off_c, 0, 62, 17
2, 6960, Note_on_c, 0, 58, 64
2, 7000, Note_off_c, 0, 58, 49
2, 7000, Note_on_c, 0, 55, 64
2, 7040, Note_off_c, 0, 55, 23
2, 7040, Note_on_c, 0, 62, 64
2, 7080, Note_off_c, 0, 62, 34
2, 7080, Note_on_c, 0, 58, 64
2, 7120, Note_off_c, 0, 58, 46
2, 7120, Note_on_c, 0, 55, 64
2, 7160, Note_off_c, 0, 55, 31
2, 7160, Note_on_c, 0, 62, 64
2, 7200, Note_off_c, 0, 62, 42
2, 7200, Note_on_c, 0, 59, 64
2, 7240, Note_off_c, 0, 59, 43
2, 7240, Note_on_c, 0, 56, 64
2, 7280, Note_off_c, 0, 56, 36
2, 7280, Note_on_c, 0, 62, 64
2, 7320, Note_off_c, 0, 62, 15
2, 7320, Note_on_c, 0, 59, 64
2, 7360, Note_off_c, 0, 59, 36
2, 7360, Note_on_c, 0, 56, 64
2, 7400, Note_off_c, 0, 56, 40
2, 7400, Note_on_c, 0, 65, 64
2, 7440, Note_off_c, 0, 65, 29
2, 7440, Note_on_c, 0, 59, 64
2, 7480, Note_off_c, 0, 59, 33
2, 7480, Note_on_c, 0, 56, 64
2, 7520, Note_off_c, 0, 56, 34
2, 7520, Note_on_c, 0, 64, 64
2, 7560, Note_off_c, 0, 64, 33
2, 7560, Note_on_c, 0, 59, 64
2, 7600, Note_off_c, 0, 59, 35
2, 7600, Note_on_c, 0, 56, 64
2, 7640, Note_off_c, 0, 56, 37
2, 7640, Note_on_c, 0, 62, 64
2, 7680, Note_off_c, 0, 62, 34
2, 7680, Note_on_c, 0, 60, 64
2, 7720, Note_off_c, 0, 60, 21
2, 7720, Note_on_c, 0, 57, 64
2, 7760, Note_off_c, 0, 57, 34
2, 7760, Note_on_c, 0, 64, 64
2, 7800, Note_off_c, 0, 64, 30
2, 7800, Note_on_c, 0, 60, 64
2, 7840, Note_off_c, 0, 60, 37
2, 7840, Note_on_c, 0, 57, 64
2, 7880, Note_off_c, 0, 57, 30
2, 7880, Note_on_c, 0, 64, 64
2, 7920, Note_off_c, 0, 64, 35
2, 7920, Note_on_c, 0, 60, 64
2, 7960, Note_off_c, 0, 60, 51
2, 7960, Note_on_c, 0, 57, 64
2, 8000, Note_off_c, 0, 57, 14
2, 8000, Note_on_c, 0, 66, 64
2, 8040, Note_off_c, 0, 66, 48
2, 8040, Note_on_c, 0, 60, 64
2, 8080, Note_off_c, 0, 60, 42
2, 8080, Note_on_c, 0, 57, 64
2, 8120, Note_off_c, 0, 57, 15
2, 8120, Note_on_c, 0, 68, 64
2, 8160, Note_off_c, 0, 68, 58
2, 8160, Note_on_c, 0, 60, 64
2, 8200, Note_off_c, 0, 60, 36
2, 8200, Note_on_c, 0, 57, 64
2, 8240, Note_off_c, 0, 57, 26
2, 8240, Note_on_c, 0, 69, 64
2, 8280, Note_off_c, 0, 69, 46
2, 8280, Note_on_c, 0, 64, 64
2, 8320, Note_off_c, 0, 64, 27
2, 8320, Note_on_c, 0, 60, 64
2, 8360, Note_off_c, 0, 60, 33
2, 8360, Note_on_c, 0, 69, 64
2, 8400, Note_off_c, 0, 69, 52
2, 8400, Note_on_c, 0, 65, 64
2, 8440, Note_off_c, 0, 65, 1
2, 8440, Note_on_c, 0, 59, 64
2, 8480, Note_off_c, 0, 59, 6
2, 8480, Note_on_c, 0, 69, 64
2, 8520, Note_off_c, 0, 69, 1
2, 8520, Note_on_c, 0, 64, 64
2, 8560, Note_off_c, 0, 64, 12
2, 8560, Note_on_c, 0, 59, 64
2, 8600, Note_off_c, 0, 59, 1
2, 8600, Note_on_c, 0, 68, 64
2, 8640, Note_off_c, 0, 68, 37
2, 8640, Note_on_c, 0, 64, 64
2, 8680, Note_off_c, 0, 64, 34
2, 8680, Note_on_c, 0, 60, 64
2, 8720, Note_off_c, 0, 60, 38
2, 8720, Note_on_c, 0, 69, 64
2, 8760, Note_off_c, 0, 69, 53
2, 8760, Note_on_c, 0, 64, 64
2, 8800, Note_off_c, 0, 64, 36
2, 8800, Note_on_c, 0, 60, 64
2, 8840, Note_off_c, 0, 60, 1
2, 8840, Note_on_c, 0, 72, 64
2, 8880, Note_off_c, 0, 72, 52
2, 8880, Note_on_c, 0, 65, 64
2, 8920, Note_off_c, 0, 65, 42
2, 8920, Note_on_c, 0, 62, 64
2, 8960, Note_off_c, 0, 62, 37
2, 8960, Note_on_c, 0, 70, 64
2, 9000, Note_off_c, 0, 70, 44
2, 9000, Note_on_c, 0, 67, 64
2, 9040, Note_off_c, 0, 67, 31
2, 9040, Note_on_c, 0, 64, 64
2, 9080, Note_off_c, 0, 64, 40
2, 9080, Note_on_c, 0, 70, 64
2, 9120, Note_off_c, 0, 70, 65
2, 9120, Note_on_c, 0, 69, 64
2, 9160, Note_off_c, 0, 69, 51
2, 9160, Note_on_c, 0, 65, 64
2, 9200, Note_off_c, 0, 65, 50
2, 9200, Note_on_c, 0, 69, 64
2, 9240, Note_off_c, 0, 69, 76
2, 9240, Note_on_c, 0, 60, 64
2, 9280, Note_off_c, 0, 60, 47
2, 9280, Note_on_c, 0, 57, 64
2, 9320, Note_off_c, 0, 57, 1
2, 9320, Note_on_c, 0, 69, 64
2, 9360, Note_off_c, 0, 69, 15
2, 9360, Note_on_c, 0, 62, 64
2, 9400, Note_off_c, 0, 62, 24
2, 9400, Note_on_c, 0, 59, 64
2, 9440, Note_off_c, 0, 59, 14
2, 9440, Note_on_c, 0, 67, 64
2, 9480, Note_off_c, 0, 67, 17
2, 9480, Note_on_c, 0, 64, 64
2, 9520, Note_off_c, 0, 64, 40
2, 9520, Note_on_c, 0, 61, 64
2, 9560, Note_off_c, 0, 61, 34
2, 9560, Note_on_c, 0, 67, 64
2, 9600, Note_off_c, 0, 67, 23
2, 9600, Note_on_c, 0, 65, 64
2, 9640, Note_off_c, 0, 65, 24
2, 9640, Note_on_c, 0, 62, 64
2, 9680, Note_off_c, 0, 62, 3
2, 9680, Note_on_c, 0, 74, 64
2, 9720, Note_off_c, 0, 74, 51
2, 9720, Note_on_c, 0, 69, 64
2, 9760, Note_off_c, 0, 69, 63
2, 9760, Note_on_c, 0, 65, 64
2, 9800, Note_off_c, 0, 65, 33
2, 9800, Note_on_c, 0, 77, 64
2, 9840, Note_off_c, 0, 77, 47
2, 9840, Note_on_c, 0, 70, 64
2, 9880, Note_off_c, 0, 70, 34
2, 9880, Note_on_c, 0, 67, 64
2, 9920, Note_off_c, 0, 67, 34
2, 9920, Note_on_c, 0, 75, 64
2, 9960, Note_off_c, 0, 75, 40
2, 9960, Note_on_c, 0, 72, 64
2, 10000, Note_off_c, 0, 72, 58
2, 10000, Note_on_c, 0, 69, 64
2, 10040, Note_off_c, 0, 69, 46
2, 10040, Note_on_c, 0, 75, 64
2, 10080, Note_off_c, 0, 75, 49
2, 10080, Note_on_c, 0, 74, 64
2, 10120, Note_off_c, 0, 74, 57
2, 10120, Note_on_c, 0, 70, 64
2, 10160, Note_off_c, 0, 70, 53
2, 10160, Note_on_c, 0, 74, 64
2, 10200, Note_off_c, 0, 74, 66
2, 10200, Note_on_c, 0, 65, 64
2, 10240, Note_off_c, 0, 65, 45
2, 10240, Note_on_c, 0, 62, 64
2, 10280, Note_off_c, 0, 62, 23
2, 10280, Note_on_c, 0, 74, 64
2, 10320, Note_off_c, 0, 74, 50
2, 10320, Note_on_c, 0, 67, 64
2, 10360, Note_off_c, 0, 67, 49
2, 10360, Note_on_c, 0, 64, 64
2, 10400, Note_off_c, 0, 64, 12
2, 10400, Note_on_c, 0, 72, 64
2, 10440, Note_off_c, 0, 72, 57
2, 10440, Note_on_c, 0, 69, 64
2, 10480, Note_off_c, 0, 69, 58
2, 10480, Note_on_c, 0, 66, 64
2, 10520, Note_off_c, 0, 66, 27
2, 10520, Note_on_c, 0, 72, 64
2, 10560, Note_off_c, 0, 72, 59
2, 10560, Note_on_c, 0, 70, 64
2, 10600, Note_off_c, 0, 70, 52
2, 10600, Note_on_c, 0, 67, 64
2, 10640, Note_off_c, 0, 67, 44
2, 10640, Note_on_c, 0, 74, 64
2, 10680, Note_off_c, 0, 74, 53
2, 10680, Note_on_c, 0, 70, 64
2, 10720, Note_off_c, 0, 70, 55
2, 10720, Note_on_c, 0, 67, 64
2, 10760, Note_off_c, 0, 67, 1
2, 10760, Note_on_c, 0, 79, 64
2, 10800, Note_off_c, 0, 79, 37
2, 10800, Note_on_c, 0, 75, 64
2, 10840, Note_off_c, 0, 75, 35
2, 10840, Note_on_c, 0, 67, 64
2, 10880, Note_off_c, 0, 67, 24
2, 10880, Note_on_c, 0, 79, 64
2, 10920, Note_off_c, 0, 79, 46
2, 10920, Note_on_c, 0, 74, 64
2, 10960, Note_off_c, 0, 74, 19
2, 10960, Note_on_c, 0, 67, 64
2, 11000, Note_off_c, 0, 67, 18
2, 11000, Note_on_c, 0, 79, 64
2, 11040, Note_off_c, 0, 79, 39
2, 11040, Note_on_c, 0, 73, 64
2, 11080, Note_off_c, 0, 73, 43
2, 11080, Note_on_c, 0, 69, 64
2, 11120, Note_off_c, 0, 69, 49
2, 11120, Note_on_c, 0, 79, 64
2, 11160, Note_off_c, 0, 79, 42
2, 11160, Note_on_c, 0, 76, 64
2, 11200, Note_off_c, 0, 76, 33
2, 11200, Note_on_c, 0, 73, 64
2, 11240, Note_off_c, 0, 73, 74
2, 11240, Note_on_c, 0, 82, 64
2, 11280, Note_off_c, 0, 82, 49
2, 11280, Note_on_c, 0, 76, 64
2, 11320, Note_off_c, 0, 76, 40
2, 11320, Note_on_c, 0, 73, 64
2, 11360, Note_off_c, 0, 73, 52
2, 11360, Note_on_c, 0, 81, 64
2, 11400, Note_off_c, 0, 81, 48
2, 11400, Note_on_c, 0, 76, 64
2, 11440, Note_off_c, 0, 76, 32
2, 11440, Note_on_c, 0, 73, 64
2, 11480, Note_off_c, 0, 73, 57
2, 11480, Note_on_c, 0, 79, 64
2, 11520, Note_off_c, 0, 79, 61
2, 11520, Note_on_c, 0, 77, 64
2, 11560, Note_off_c, 0, 77, 58
2, 11560, Note_on_c, 0, 74, 64
2, 11600, Note_off_c, 0, 74, 52
2, 11600, Note_on_c, 0, 69, 64
2, 11640, Note_off_c, 0, 69, 45
2, 11640, Note_on_c, 0, 65, 64
2, 11680, Note_off_c, 0, 65, 25
2, 11680, Note_on_c, 0, 62, 64
2, 11720, Note_off_c, 0, 62, 37
2, 11720, Note_on_c, 0, 69, 64
2, 11760, Note_off_c, 0, 69, 41
2, 11760, Note_on_c, 0, 65, 64
2, 11800, Note_off_c, 0, 65, 36
2, 11800, Note_on_c, 0, 62, 64
2, 11840, Note_off_c, 0, 62, 45
2, 11840, Note_on_c, 0, 71, 64
2, 11880, Note_off_c, 0, 71, 63
2, 11880, Note_on_c, 0, 65, 64
2, 11920, Note_off_c, 0, 65, 37
2, 11920, Note_on_c, 0, 62, 64
2, 11960, Note_off_c, 0, 62, 46
2, 11960, Note_on_c, 0, 73, 64
2, 12000, Note_off_c, 0, 73, 65
2, 12000, Note_on_c, 0, 65, 64
2, 12040, Note_off_c, 0, 65, 40
2, 12040, Note_on_c, 0, 62, 64
2, 12080, Note_off_c, 0, 62, 44
2, 12080, Note_on_c, 0, 74, 64
2, 12120, Note_off_c, 0, 74, 48
2, 12120, Note_on_c, 0, 65, 64
2, 12160, Note_off_c, 0, 65, 42
2, 12160, Note_on_c, 0, 62, 64
2, 12200, Note_off_c, 0, 62, 28
2, 12200, Note_on_c, 0, 69, 64
2, 12240, Note_off_c, 0, 69, 61
2, 12240, Note_on_c, 0, 65, 64
2, 12280, Note_off_c, 0, 65, 34
2, 12280, Note_on_c, 0, 62, 64
2, 12320, Note_off_c, 0, 62, 31
2, 12320, Note_on_c, 0, 70, 64
2, 12360, Note_off_c, 0, 70, 52
2, 12360, Note_on_c, 0, 64, 64
2, 12400, Note_off_c, 0, 64, 39
2, 12400, Note_on_c, 0, 61, 64
2, 12440, Note_off_c, 0, 61, 55
2, 12440, Note_on_c, 0, 69, 64
2, 12480, Note_off_c, 0, 69, 62
2, 12480, Note_on_c, 0, 64, 64
2, 12520, Note_off_c, 0, 64, 34
2, 12520, Note_on_c, 0, 61, 64
2, 12560, Note_off_c, 0, 61, 68
2, 12560, Note_on_c, 0, 67, 64
2, 12600, Note_off_c, 0, 67, 55
2, 12600, Note_on_c, 0, 62, 64
2, 12640, Note_off_c, 0, 62, 48
2, 12640, Note_on_c, 0, 57, 64
2, 12680, Note_off_c, 0, 57, 54
2, 12680, Note_on_c, 0, 65, 64
2, 12720, Note_off_c, 0, 65, 41
2, 12720, Note_on_c, 0, 62, 64
2, 12760, Note_off_c, 0, 62, 46
2, 12760, Note_on_c, 0, 58, 64
2, 12800, Note_off_c, 0, 58, 49
2, 12800, Note_on_c, 0, 64, 64
2, 12840, Note_off_c, 0, 64, 49
2, 12840, Note_on_c, 0, 60, 64
2, 12880, Note_off_c, 0, 60, 49
2, 12880, Note_on_c, 0, 55, 64
2, 12920, Note_off_c, 0, 55, 51
2, 12920, Note_on_c, 0, 63, 64
2, 12960, Note_off_c, 0, 63, 43
2, 12960, Note_on_c, 0, 58, 64
2, 13000, Note_off_c, 0, 58, 44
2, 13000, Note_on_c, 0, 55, 64
2, 13040, Note_off_c, 0, 55, 43
2, 13040, Note_on_c, 0, 62, 64
2, 13080, Note_off_c, 0, 62, 43
2, 13080, Note_on_c, 0, 57, 64
2, 13120, Note_off_c, 0, 57, 41
2, 13120, Note_on_c, 0, 53, 64
2, 13160, Note_off_c, 0, 53, 45
2, 13160, Note_on_c, 0, 62, 64
2, 13200, Note_off_c, 0, 62, 38
2, 13200, Note_on_c, 0, 58, 64
2, 13240, Note_off_c, 0, 58, 44
2, 13240, Note_on_c, 0, 52, 64
2, 13280, Note_off_c, 0, 52, 49
2, 13280, Note_on_c, 0, 62, 64
2, 13320, Note_off_c, 0, 62, 39
2, 13320, Note_on_c, 0, 57, 64
2, 13360, Note_off_c, 0, 57, 33
2, 13360, Note_on_c, 0, 52, 64
2, 13400, Note_off_c, 0, 52, 46
2, 13400, Note_on_c, 0, 61, 64
2, 13440, Note_off_c, 0, 61, 47
2, 13440, Note_on_c, 0, 57, 64
2, 13480, Note_off_c, 0, 57, 49
2, 13480, Note_on_c, 0, 54, 64
2, 13520, Note_off_c, 0, 54, 36
2, 13520, Note_on_c, 0, 57, 64
2, 13560, Note_off_c, 0, 57, 46
2, 13560, Note_on_c, 0, 60, 64
2, 13600, Note_off_c, 0, 60, 51
2, 13600, Note_on_c, 0, 57, 64
2, 13640, Note_off_c, 0, 57, 34
2, 13640, Note_on_c, 0, 60, 64
2, 13680, Note_off_c, 0, 60, 52
2, 13680, Note_on_c, 0, 63, 64
2, 13720, Note_off_c, 0, 63, 46
2, 13720, Note_on_c, 0, 60, 64
2, 13760, Note_off_c, 0, 60, 46
2, 13760, Note_on_c, 0, 63, 64
2, 13800, Note_off_c, 0, 63, 50
2, 13800, Note_on_c, 0, 66, 64
2, 13920, Note_off_c, 0, 66, 48
2, 13920, Note_on_c, 0, 58, 64
2, 13960, Note_off_c, 0, 58, 52
2, 13960, Note_on_c, 0, 55, 64
2, 14000, Note_off_c, 0, 55, 37
2, 14000, Note_on_c, 0, 58, 64
2, 14040, Note_off_c, 0, 58, 44
2, 14040, Note_on_c, 0, 62, 64
2, 14080, Note_off_c, 0, 62, 49
2, 14080, Note_on_c, 0, 58, 64
2, 14120, Note_off_c, 0, 58, 43
2, 14120, Note_on_c, 0, 62, 64
2, 14160, Note_off_c, 0, 62, 57
2, 14160, Note_on_c, 0, 67, 64
2, 14200, Note_off_c, 0, 67, 49
2, 14200, Note_on_c, 0, 62, 64
2, 14240, Note_off_c, 0, 62, 40
2, 14240, Note_on_c, 0, 67, 64
2, 14280, Note_off_c, 0, 67, 53
2, 14280, Note_on_c, 0, 70, 64
2, 14440, Note_off_c, 0, 70, 62
2, 14440, Note_on_c, 0, 67, 64
2, 14480, Note_off_c, 0, 67, 27
2, 14480, Note_on_c, 0, 76, 64
2, 14520, Note_off_c, 0, 76, 48
2, 14520, Note_on_c, 0, 70, 64
2, 14560, Note_off_c, 0, 70, 57
2, 14560, Note_on_c, 0, 67, 64
2, 14600, Note_off_c, 0, 67, 30
2, 14600, Note_on_c, 0, 79, 64
2, 14640, Note_off_c, 0, 79, 52
2, 14640, Note_on_c, 0, 70, 64
2, 14680, Note_off_c, 0, 70, 49
2, 14680, Note_on_c, 0, 67, 64
2, 14720, Note_off_c, 0, 67, 23
2, 14720, Note_on_c, 0, 76, 64
2, 14760, Note_off_c, 0, 76, 46
2, 14760, Note_on_c, 0, 70, 64
2, 14800, Note_off_c, 0, 70, 46
2, 14800, Note_on_c, 0, 67, 64
2, 14840, Note_off_c, 0, 67, 26
2, 14840, Note_on_c, 0, 73, 64
2, 14880, Note_off_c, 0, 73, 49
2, 14880, Note_on_c, 0, 70, 64
2, 14920, Note_off_c, 0, 70, 51
2, 14920, Note_on_c, 0, 67, 64
2, 14960, Note_off_c, 0, 67, 30
2, 14960, Note_on_c, 0, 76, 64
2, 15000, Note_off_c, 0, 76, 43
2, 15000, Note_on_c, 0, 70, 64
2, 15040, Note_off_c, 0, 70, 37
2, 15040, Note_on_c, 0, 67, 64
2, 15080, Note_off_c, 0, 67, 13
2, 15080, Note_on_c, 0, 79, 64
2, 15120, Note_off_c, 0, 79, 47
2, 15120, Note_on_c, 0, 70, 64
2, 15160, Note_off_c, 0, 70, 1
2, 15160, Note_on_c, 0, 67, 64
2, 15200, Note_off_c, 0, 67, 12
2, 15200, Note_on_c, 0, 76, 64
2, 15240, Note_off_c, 0, 76, 37
2, 15240, Note_on_c, 0, 70, 64
2, 15280, Note_off_c, 0, 70, 49
2, 15280, Note_on_c, 0, 67, 64
2, 15320, Note_off_c, 0, 67, 34
2, 15320, Note_on_c, 0, 73, 64
2, 15360, Note_off_c, 0, 73, 57
2, 15360, Note_on_c, 0, 69, 64
2, 15400, Note_off_c, 0, 69, 47
2, 15400, Note_on_c, 0, 66, 64
2, 15440, Note_off_c, 0, 66, 50
2, 15440, Note_on_c, 0, 74, 64
2, 15480, Note_off_c, 0, 74, 61
2, 15480, Note_on_c, 0, 69, 64
2, 15520, Note_off_c, 0, 69, 49
2, 15520, Note_on_c, 0, 66, 64
2, 15560, Note_off_c, 0, 66, 52
2, 15560, Note_on_c, 0, 75, 64
2, 15600, Note_off_c, 0, 75, 51
2, 15600, Note_on_c, 0, 69, 64
2, 15640, Note_off_c, 0, 69, 40
2, 15640, Note_on_c, 0, 66, 64
2, 15680, Note_off_c, 0, 66, 69
2, 15680, Note_on_c, 0, 74, 64
2, 15720, Note_off_c, 0, 74, 63
2, 15720, Note_on_c, 0, 69, 64
2, 15760, Note_off_c, 0, 69, 41
2, 15760, Note_on_c, 0, 66, 64
2, 15800, Note_off_c, 0, 66, 65
2, 15800, Note_on_c, 0, 72, 64
2, 15840, Note_off_c, 0, 72, 72
2, 15840, Note_on_c, 0, 69, 64
2, 15880, Note_off_c, 0, 69, 48
2, 15880, Note_on_c, 0, 66, 64
2, 15920, Note_off_c, 0, 66, 69
2, 15920, Note_on_c, 0, 74, 64
2, 15960, Note_off_c, 0, 74, 59
2, 15960, Note_on_c, 0, 69, 64
2, 16000, Note_off_c, 0, 69, 46
2, 16000, Note_on_c, 0, 66, 64
2, 16040, Note_off_c, 0, 66, 69
2, 16040, Note_on_c, 0, 75, 64
2, 16080, Note_off_c, 0, 75, 50
2, 16080, Note_on_c, 0, 69, 64
2, 16120, Note_off_c, 0, 69, 37
2, 16120, Note_on_c, 0, 66, 64
2, 16160, Note_off_c, 0, 66, 69
2, 16160, Note_on_c, 0, 74, 64
2, 16200, Note_off_c, 0, 74, 63
2, 16200, Note_on_c, 0, 69, 64
2, 16240, Note_off_c, 0, 69, 35
2, 16240, Note_on_c, 0, 66, 64
2, 16280, Note_off_c, 0, 66, 52
2, 16280, Note_on_c, 0, 72, 64
2, 16320, Note_off_c, 0, 72, 82
2, 16320, Note_on_c, 0, 67, 64
2, 16360, Note_off_c, 0, 67, 49
2, 16360, Note_on_c, 0, 62, 64
2, 16400, Note_off_c, 0, 62, 38
2, 16400, Note_on_c, 0, 67, 64
2, 16440, Note_off_c, 0, 67, 46
2, 16440, Note_on_c, 0, 70, 64
2, 16480, Note_off_c, 0, 70, 59
2, 16480, Note_on_c, 0, 67, 64
2, 16520, Note_off_c, 0, 67, 38
2, 16520, Note_on_c, 0, 70, 64
2, 16560, Note_off_c, 0, 70, 65
2, 16560, Note_on_c, 0, 74, 64
2, 16600, Note_off_c, 0, 74, 62
2, 16600, Note_on_c, 0, 70, 64
2, 16640, Note_off_c, 0, 70, 57
2, 16640, Note_on_c, 0, 74, 64
2, 16680, Note_off_c, 0, 74, 69
2, 16680, Note_on_c, 0, 79, 64
2, 16720, Note_off_c, 0, 79, 52
2, 16720, Note_on_c, 0, 74, 64
2, 16760, Note_off_c, 0, 74, 55
2, 16760, Note_on_c, 0, 79, 64
2, 16800, Note_off_c, 0, 79, 49
2, 16800, Note_on_c, 0, 82, 64
2, 16840, Note_off_c, 0, 82, 65
2, 16840, Note_on_c, 0, 81, 64
2, 16880, Note_off_c, 0, 81, 52
2, 16880, Note_on_c, 0, 79, 64
2, 16920, Note_off_c, 0, 79, 59
2, 16920, Note_on_c, 0, 77, 64
2, 16960, Note_off_c, 0, 77, 58
2, 16960, Note_on_c, 0, 76, 64
2, 17000, Note_off_c, 0, 76, 33
2, 17000, Note_on_c, 0, 74, 64
2, 17040, Note_off_c, 0, 74, 61
2, 17040, Note_on_c, 0, 73, 64
2, 17080, Note_off_c, 0, 73, 53
2, 17080, Note_on_c, 0, 69, 64
2, 17120, Note_off_c, 0, 69, 46
2, 17120, Note_on_c, 0, 73, 64
2, 17160, Note_off_c, 0, 73, 57
2, 17160, Note_on_c, 0, 76, 64
2, 17200, Note_off_c, 0, 76, 49
2, 17200, Note_on_c, 0, 73, 64
2, 17240, Note_off_c, 0, 73, 63
2, 17240, Note_on_c, 0, 76, 64
2, 17280, Note_off_c, 0, 76, 51
2, 17280, Note_on_c, 0, 79, 64
2, 17320, Note_off_c, 0, 79, 53
2, 17320, Note_on_c, 0, 76, 64
2, 17360, Note_off_c, 0, 76, 47
2, 17360, Note_on_c, 0, 74, 64
2, 17400, Note_off_c, 0, 74, 51
2, 17400, Note_on_c, 0, 73, 64
2, 17440, Note_off_c, 0, 73, 54
2, 17440, Note_on_c, 0, 71, 64
2, 17480, Note_off_c, 0, 71, 59
2, 17480, Note_on_c, 0, 69, 64
2, 17520, Note_off_c, 0, 69, 61
2, 17520, Note_on_c, 0, 67, 64
2, 17560, Note_off_c, 0, 67, 44
2, 17560, Note_on_c, 0, 64, 64
2, 17600, Note_off_c, 0, 64, 29
2, 17600, Note_on_c, 0, 67, 64
2, 17640, Note_off_c, 0, 67, 30
2, 17640, Note_on_c, 0, 70, 64
2, 17680, Note_off_c, 0, 70, 52
2, 17680, Note_on_c, 0, 67, 64
2, 17720, Note_off_c, 0, 67, 28
2, 17720, Note_on_c, 0, 70, 64
2, 17760, Note_off_c, 0, 70, 54
2, 17760, Note_on_c, 0, 73, 64
2, 17800, Note_off_c, 0, 73, 1
2, 17800, Note_on_c, 0, 67, 64
2, 17840, Note_off_c, 0, 67, 8
2, 17840, Note_on_c, 0, 76, 64
2, 17880, Note_off_c, 0, 76, 34
2, 17880, Note_on_c, 0, 73, 64
2, 17920, Note_off_c, 0, 73, 49
2, 17920, Note_on_c, 0, 70, 64
2, 17960, Note_off_c, 0, 70, 43
2, 17960, Note_on_c, 0, 76, 64
2, 18000, Note_off_c, 0, 76, 35
2, 18000, Note_on_c, 0, 73, 64
2, 18040, Note_off_c, 0, 73, 50
2, 18040, Note_on_c, 0, 69, 64
2, 18080, Note_off_c, 0, 69, 46
2, 18080, Note_on_c, 0, 76, 64
2, 18120, Note_off_c, 0, 76, 20
2, 18120, Note_on_c, 0, 73, 64
2, 18160, Note_off_c, 0, 73, 47
2, 18160, Note_on_c, 0, 67, 64
2, 18200, Note_off_c, 0, 67, 31
2, 18200, Note_on_c, 0, 76, 64
2, 18240, Note_off_c, 0, 76, 47
2, 18240, Note_on_c, 0, 72, 64
2, 18280, Note_off_c, 0, 72, 59
2, 18280, Note_on_c, 0, 69, 64
2, 18320, Note_off_c, 0, 69, 49
2, 18320, Note_on_c, 0, 74, 64
2, 18360, Note_off_c, 0, 74, 53
2, 18360, Note_on_c, 0, 70, 64
2, 18400, Note_off_c, 0, 70, 46
2, 18400, Note_on_c, 0, 67, 64
2, 18440, Note_off_c, 0, 67, 34
2, 18440, Note_on_c, 0, 75, 64
2, 18480, Note_off_c, 0, 75, 42
2, 18480, Note_on_c, 0, 69, 64
2, 18520, Note_off_c, 0, 69, 51
2, 18520, Note_on_c, 0, 66, 64
2, 18560, Note_off_c, 0, 66, 28
2, 18560, Note_on_c, 0, 74, 64
2, 18600, Note_off_c, 0, 74, 52
2, 18600, Note_on_c, 0, 69, 64
2, 18640, Note_off_c, 0, 69, 52
2, 18640, Note_on_c, 0, 66, 64
2, 18680, Note_off_c, 0, 66, 48
2, 18680, Note_on_c, 0, 72, 64
2, 18720, Note_off_c, 0, 72, 70
2, 18720, Note_on_c, 0, 67, 64
2, 18760, Note_off_c, 0, 67, 34
2, 18760, Note_on_c, 0, 62, 64
2, 18800, Note_off_c, 0, 62, 27
2, 18800, Note_on_c, 0, 70, 64
2, 18840, Note_off_c, 0, 70, 40
2, 18840, Note_on_c, 0, 67, 64
2, 18880, Note_off_c, 0, 67, 26
2, 18880, Note_on_c, 0, 65, 64
2, 18920, Note_off_c, 0, 65, 21
2, 18920, Note_on_c, 0, 70, 64
2, 18960, Note_off_c, 0, 70, 48
2, 18960, Note_on_c, 0, 67, 64
2, 19000, Note_off_c, 0, 67, 47
2, 19000, Note_on_c, 0, 63, 64
2, 19040, Note_off_c, 0, 63, 27
2, 19040, Note_on_c, 0, 70, 64
2, 19080, Note_off_c, 0, 70, 44
2, 19080, Note_on_c, 0, 67, 64
2, 19120, Note_off_c, 0, 67, 1
2, 19120, Note_on_c, 0, 62, 64
2, 19160, Note_off_c, 0, 62, 18
2, 19160, Note_on_c, 0, 70, 64
2, 19200, Note_off_c, 0, 70, 51
2, 19200, Note_on_c, 0, 67, 64
2, 19240, Note_off_c, 0, 67, 44
2, 19240, Note_on_c, 0, 61, 64
2, 19280, Note_off_c, 0, 61, 49
2, 19280, Note_on_c, 0, 70, 64
2, 19320, Note_off_c, 0, 70, 51
2, 19320, Note_on_c, 0, 64, 64
2, 19360, Note_off_c, 0, 64, 28
2, 19360, Note_on_c, 0, 61, 64
2, 19400, Note_off_c, 0, 61, 50
2, 19400, Note_on_c, 0, 70, 64
2, 19440, Note_off_c, 0, 70, 59
2, 19440, Note_on_c, 0, 64, 64
2, 19480, Note_off_c, 0, 64, 15
2, 19480, Note_on_c, 0, 61, 64
2, 19520, Note_off_c, 0, 61, 52
2, 19520, Note_on_c, 0, 69, 64
2, 19560, Note_off_c, 0, 69, 62
2, 19560, Note_on_c, 0, 64, 64
2, 19600, Note_off_c, 0, 64, 36
2, 19600, Note_on_c, 0, 61, 64
2, 19640, Note_off_c, 0, 61, 50
2, 19640, Note_on_c, 0, 67, 64
2, 19680, Note_off_c, 0, 67, 46
2, 19680, Note_on_c, 0, 62, 64
2, 19720, Note_off_c, 0, 62, 37
2, 19720, Note_on_c, 0, 59, 64
2, 19760, Note_off_c, 0, 59, 44
2, 19760, Note_on_c, 0, 65, 64
2, 19800, Note_off_c, 0, 65, 49
2, 19800, Note_on_c, 0, 62, 64
2, 19840, Note_off_c, 0, 62, 46
2, 19840, Note_on_c, 0, 61, 64
2, 19880, Note_off_c, 0, 61, 48
2, 19880, Note_on_c, 0, 65, 64
2, 19920, Note_off_c, 0, 65, 50
2, 19920, Note_on_c, 0, 62, 64
2, 19960, Note_off_c, 0, 62, 37
2, 19960, Note_on_c, 0, 59, 64
2, 20000, Note_off_c, 0, 59, 52
2, 20000, Note_on_c, 0, 65, 64
2, 20040, Note_off_c, 0, 65, 47
2, 20040, Note_on_c, 0, 62, 64
2, 20080, Note_off_c, 0, 62, 34
2, 20080, Note_on_c, 0, 57, 64
2, 20120, Note_off_c, 0, 57, 39
2, 20120, Note_on_c, 0, 65, 64
2, 20160, Note_off_c, 0, 65, 43
2, 20160, Note_on_c, 0, 61, 64
2, 20200, Note_off_c, 0, 61, 50
2, 20200, Note_on_c, 0, 55, 64
2, 20240, Note_off_c, 0, 55, 38
2, 20240, Note_on_c, 0, 64, 64
2, 20280, Note_off_c, 0, 64, 38
2, 20280, Note_on_c, 0, 61, 64
2, 20320, Note_off_c, 0, 61, 45
2, 20320, Note_on_c, 0, 58, 64
2, 20360, Note_off_c, 0, 58, 66
2, 20360, Note_on_c, 0, 64, 64
2, 20400, Note_off_c, 0, 64, 37
2, 20400, Note_on_c, 0, 61, 64
2, 20440, Note_off_c, 0, 61, 46
2, 20440, Note_on_c, 0, 57, 64
2, 20480, Note_off_c, 0, 57, 21
2, 20480, Note_on_c, 0, 64, 64
2, 20520, Note_off_c, 0, 64, 37
2, 20520, Note_on_c, 0, 61, 64
2, 20560, Note_off_c, 0, 61, 40
2, 20560, Note_on_c, 0, 55, 64
2, 20600, Note_off_c, 0, 55, 27
2, 20600, Note_on_c, 0, 64, 64
2, 20640, Note_off_c, 0, 64, 30
2, 20640, Note_on_c, 0, 59, 64
2, 20680, Note_off_c, 0, 59, 44
2, 20680, Note_on_c, 0, 56, 64
2, 20720, Note_off_c, 0, 56, 25
2, 20720, Note_on_c, 0, 62, 64
2, 20760, Note_off_c, 0, 62, 6
2, 20760, Note_on_c, 0, 61, 64
2, 20800, Note_off_c, 0, 61, 51
2, 20800, Note_on_c, 0, 56, 64
2, 20840, Note_off_c, 0, 56, 23
2, 20840, Note_on_c, 0, 64, 64
2, 20880, Note_off_c, 0, 64, 27
2, 20880, Note_on_c, 0, 62, 64
2, 20920, Note_off_c, 0, 62, 14
2, 20920, Note_on_c, 0, 56, 64
2, 20960, Note_off_c, 0, 56, 27
2, 20960, Note_on_c, 0, 65, 64
2, 21000, Note_off_c, 0, 65, 6
2, 21000, Note_on_c, 0, 55, 64
2, 21160, Note_off_c, 0, 55, 46
2, 21160, Note_on_c, 0, 52, 64
2, 21200, Note_off_c, 0, 52, 50
2, 21200, Note_on_c, 0, 55, 64
2, 21240, Note_off_c, 0, 55, 47
2, 21240, Note_on_c, 0, 61, 64
2, 21280, Note_off_c, 0, 61, 54
2, 21280, Note_on_c, 0, 55, 64
2, 21320, Note_off_c, 0, 55, 44
2, 21320, Note_on_c, 0, 61, 64
2, 21360, Note_off_c, 0, 61, 15
2, 21360, Note_on_c, 0, 64, 64
2, 21400, Note_off_c, 0, 64, 46
2, 21400, Note_on_c, 0, 61, 64
2, 21440, Note_off_c, 0, 61, 54
2, 21440, Note_on_c, 0, 64, 64
2, 21480, Note_off_c, 0, 64, 30
2, 21480, Note_on_c, 0, 67, 64
2, 21600, Note_off_c, 0, 67, 44
2, 21600, Note_on_c, 0, 65, 64
2, 21640, Note_off_c, 0, 65, 46
2, 21640, Note_on_c, 0, 62, 64
2, 21680, Note_off_c, 0, 62, 32
2, 21680, Note_on_c, 0, 65, 64
2, 21720, Note_off_c, 0, 65, 61
2, 21720, Note_on_c, 0, 69, 64
2, 21760, Note_off_c, 0, 69, 65
2, 21760, Note_on_c, 0, 65, 64
2, 21800, Note_off_c, 0, 65, 52
2, 21800, Note_on_c, 0, 69, 64
2, 21840, Note_off_c, 0, 69, 72
2, 21840, Note_on_c, 0, 74, 64
2, 21880, Note_off_c, 0, 74, 59
2, 21880, Note_on_c, 0, 69, 64
2, 21920, Note_off_c, 0, 69, 46
2, 21920, Note_on_c, 0, 74, 64
2, 21960, Note_off_c, 0, 74, 58
2, 21960, Note_on_c, 0, 77, 64
2, 22120, Note_off_c, 0, 77, 65
2, 22120, Note_on_c, 0, 71, 64
2, 22160, Note_off_c, 0, 71, 42
2, 22160, Note_on_c, 0, 74, 65
2, 22200, Note_off_c, 0, 74, 46
2, 22200, Note_on_c, 0, 77, 65
2, 22240, Note_off_c, 0, 77, 58
2, 22240, Note_on_c, 0, 74, 66
2, 22280, Note_off_c, 0, 74, 41
2, 22280, Note_on_c, 0, 77, 67
2, 22320, Note_off_c, 0, 77, 76
2, 22320, Note_on_c, 0, 80, 67
2, 22360, Note_off_c, 0, 80, 47
2, 22360, Note_on_c, 0, 77, 68
2, 22400, Note_off_c, 0, 77, 46
2, 22400, Note_on_c, 0, 80, 69
2, 22440, Note_off_c, 0, 80, 53
2, 22440, Note_on_c, 0, 83, 69
2, 22480, Note_off_c, 0, 83, 57
2, 22480, Note_on_c, 0, 80, 70
2, 22520, Note_off_c, 0, 80, 52
2, 22520, Note_on_c, 0, 77, 71
2, 22560, Note_off_c, 0, 77, 44
2, 22560, Note_on_c, 0, 82, 71
2, 22600, Note_off_c, 0, 82, 45
2, 22600, Note_on_c, 0, 79, 70
2, 22640, Note_off_c, 0, 79, 35
2, 22640, Note_on_c, 0, 76, 69
2, 22680, Note_off_c, 0, 76, 42
2, 22680, Note_on_c, 0, 81, 68
2, 22720, Note_off_c, 0, 81, 40
2, 22720, Note_on_c, 0, 78, 67
2, 22760, Note_off_c, 0, 78, 46
2, 22760, Note_on_c, 0, 75, 66
2, 22800, Note_off_c, 0, 75, 49
2, 22800, Note_on_c, 0, 80, 65
2, 22840, Note_off_c, 0, 80, 51
2, 22840, Note_on_c, 0, 77, 64
2, 22880, Note_off_c, 0, 77, 49
2, 22880, Note_on_c, 0, 74, 64
2, 22920, Note_off_c, 0, 74, 47
2, 22920, Note_on_c, 0, 79, 63
2, 22960, Note_off_c, 0, 79, 46
2, 22960, Note_on_c, 0, 76, 62
2, 23000, Note_off_c, 0, 76, 13
2, 23000, Note_on_c, 0, 73, 61
2, 23040, Note_off_c, 0, 73, 61
2, 23040, Note_on_c, 0, 78, 62
2, 23080, Note_off_c, 0, 78, 54
2, 23080, Note_on_c, 0, 75, 63
2, 23120, Note_off_c, 0, 75, 36
2, 23120, Note_on_c, 0, 72, 64
2, 23160, Note_off_c, 0, 72, 53
2, 23160, Note_on_c, 0, 77, 65
2, 23200, Note_off_c, 0, 77, 8
2, 23200, Note_on_c, 0, 74, 66
2, 23240, Note_off_c, 0, 74, 52
2, 23240, Note_on_c, 0, 71, 68
2, 23280, Note_off_c, 0, 71, 52
2, 23280, Note_on_c, 0, 76, 69
2, 23320, Note_off_c, 0, 76, 34
2, 23320, Note_on_c, 0, 73, 70
2, 23360, Note_off_c, 0, 73, 48
2, 23360, Note_on_c, 0, 70, 71
2, 23400, Note_off_c, 0, 70, 50
2, 23400, Note_on_c, 0, 75, 72
2, 23440, Note_off_c, 0, 75, 33
2, 23440, Note_on_c, 0, 72, 73
2, 23480, Note_off_c, 0, 72, 65
2, 23480, Note_on_c, 0, 69, 74
2, 23520, Note_off_c, 0, 69, 59
2, 23520, Note_on_c, 0, 74, 75
2, 23760, Note_on_c, 0, 71, 62
2, 23760, Note_on_c, 0, 65, 62
2, 23760, Note_on_c, 0, 68, 62
2, 23760, Note_on_c, 0, 62, 62
2, 24000, Note_off_c, 0, 62, 46
2, 24000, Note_off_c, 0, 68, 77
2, 24000, Note_off_c, 0, 65, 1
2, 24000, Note_off_c, 0, 71, 77
2, 24000, Note_on_c, 0, 69, 66
2, 24000, Note_on_c, 0, 65, 66
2, 24000, Note_on_c, 0, 62, 66
2, 24240, Note_off_c, 0, 74, 58
2, 24240, Note_off_c, 0, 62, 46
2, 24240, Note_off_c, 0, 65, 20
2, 24240, Note_on_c, 0, 73, 71
2, 24240, Note_on_c, 0, 67, 71
2, 24240, Note_on_c, 0, 64, 71
2, 24240, Note_on_c, 0, 73, 71
2, 24480, Note_off_c, 0, 73, 54
2, 24480, Note_off_c, 0, 64, 49
2, 24480, Note_off_c, 0, 67, 52
2, 24480, Note_off_c, 0, 73, 77
2, 24480, Note_off_c, 0, 69, 68
2, 24480, Note_on_c, 0, 69, 75
2, 24480, Note_on_c, 0, 66, 75
2, 24480, Note_on_c, 0, 62, 75
2, 24480, Note_on_c, 0, 74, 75
2, 24960, Note_off_c, 0, 74, 70
2, 24960, Note_off_c, 0, 62, 55
2, 24960, Note_off_c, 0, 66, 85
2, 24960, Note_off_c, 0, 69, 76
2, 24960, End_track
3, 0, Start_track
3, 0, Text_t, "LH B"
3, 0, Note_on_c, 1, 50, 64
3, 115, Note_off_c, 1, 50, 73
3, 120, Note_on_c, 1, 50, 64
3, 235, Note_off_c, 1, 50, 70
3, 240, Note_on_c, 1, 50, 64
3, 355, Note_off_c, 1, 50, 69
3, 360, Note_on_c, 1, 50, 64
3, 475, Note_off_c, 1, 50, 68
3, 480, Note_on_c, 1, 50, 64
3, 595, Note_off_c, 1, 50, 66
3, 600, Note_on_c, 1, 50, 64
3, 715, Note_off_c, 1, 50, 69
3, 720, Note_on_c, 1, 50, 64
3, 835, Note_off_c, 1, 50, 66
3, 840, Note_on_c, 1, 50, 64
3, 955, Note_off_c, 1, 50, 73
3, 960, Note_on_c, 1, 50, 64
3, 1075, Note_off_c, 1, 50, 43
3, 1080, Note_on_c, 1, 50, 64
3, 1195, Note_off_c, 1, 50, 55
3, 1200, Note_on_c, 1, 62, 64
3, 1315, Note_off_c, 1, 62, 43
3, 1320, Note_on_c, 1, 62, 64
3, 1435, Note_off_c, 1, 62, 38
3, 1440, Note_on_c, 1, 55, 64
3, 1555, Note_off_c, 1, 55, 51
3, 1560, Note_on_c, 1, 55, 64
3, 1675, Note_off_c, 1, 55, 43
3, 1680, Note_on_c, 1, 60, 64
3, 1795, Note_off_c, 1, 60, 61
3, 1800, Note_on_c, 1, 60, 64
3, 1915, Note_off_c, 1, 60, 63
3, 1920, Note_on_c, 1, 53, 64
3, 2035, Note_off_c, 1, 53, 43
3, 2040, Note_on_c, 1, 53, 64
3, 2155, Note_off_c, 1, 53, 48
3, 2160, Note_on_c, 1, 58, 64
3, 2275, Note_off_c, 1, 58, 63
3, 2280, Note_on_c, 1, 55, 64
3, 2395, Note_off_c, 1, 55, 68
3, 2400, Note_on_c, 1, 60, 64
3, 2515, Note_off_c, 1, 60, 54
3, 2520, Note_on_c, 1, 57, 64
3, 2635, Note_off_c, 1, 57, 53
3, 2640, Note_on_c, 1, 62, 64
3, 2755, Note_off_c, 1, 62, 63
3, 2760, Note_on_c, 1, 50, 64
3, 2875, Note_off_c, 1, 50, 34
3, 2880, Note_on_c, 1, 52, 64
3, 2995, Note_off_c, 1, 52, 61
3, 3000, Note_on_c, 1, 48, 64
3, 3115, Note_off_c, 1, 48, 47
3, 3120, Note_on_c, 1, 53, 64
3, 3235, Note_off_c, 1, 53, 66
3, 3240, Note_on_c, 1, 52, 64
3, 3355, Note_off_c, 1, 52, 65
3, 3360, Note_on_c, 1, 50, 64
3, 3475, Note_off_c, 1, 50, 54
3, 3480, Note_on_c, 1, 48, 64
3, 3595, Note_off_c, 1, 48, 61
3, 3600, Note_on_c, 1, 46, 64
3, 3715, Note_off_c, 1, 46, 59
3, 3720, Note_on_c, 1, 45, 64
3, 3835, Note_off_c, 1, 45, 52
3, 3840, Note_on_c, 1, 43, 64
3, 3955, Note_off_c, 1, 43, 39
3, 3960, Note_on_c, 1, 41, 64
3, 4075, Note_off_c, 1, 41, 52
3, 4080, Note_on_c, 1, 40, 64
3, 4195, Note_off_c, 1, 40, 45
3, 4200, Note_on_c, 1, 36, 64
3, 4315, Note_off_c, 1, 36, 45
3, 4320, Note_on_c, 1, 41, 64
3, 4435, Note_off_c, 1, 41, 38
3, 4440, Note_on_c, 1, 45, 64
3, 4555, Note_off_c, 1, 45, 51
3, 4560, Note_on_c, 1, 46, 64
3, 4675, Note_off_c, 1, 46, 50
3, 4680, Note_on_c, 1, 48, 64
3, 4795, Note_off_c, 1, 48, 65
3, 4800, Note_on_c, 1, 41, 64
3, 5040, Note_off_c, 1, 41, 70
3, 5160, Note_on_c, 1, 51, 64
3, 5275, Note_off_c, 1, 51, 59
3, 5280, Note_on_c, 1, 50, 64
3, 5395, Note_off_c, 1, 50, 61
3, 5400, Note_on_c, 1, 48, 64
3, 5515, Note_off_c, 1, 48, 61
3, 5520, Note_on_c, 1, 46, 64
3, 5635, Note_off_c, 1, 46, 51
3, 5640, Note_on_c, 1, 45, 64
3, 5755, Note_off_c, 1, 45, 69
3, 5760, Note_on_c, 1, 43, 64
3, 5875, Note_off_c, 1, 43, 69
3, 5880, Note_on_c, 1, 46, 64
3, 5995, Note_off_c, 1, 46, 49
3, 6000, Note_on_c, 1, 48, 64
3, 6115, Note_off_c, 1, 48, 65
3, 6120, Note_on_c, 1, 50, 64
3, 6235, Note_off_c, 1, 50, 76
3, 6240, Note_on_c, 1, 51, 64
3, 6355, Note_off_c, 1, 51, 63
3, 6360, Note_on_c, 1, 46, 64
3, 6475, Note_off_c, 1, 46, 72
3, 6480, Note_on_c, 1, 48, 64
3, 6595, Note_off_c, 1, 48, 49
3, 6600, Note_on_c, 1, 50, 64
3, 6715, Note_off_c, 1, 50, 66
3, 6720, Note_on_c, 1, 43, 64
3, 6960, Note_off_c, 1, 43, 72
3, 7080, Note_on_c, 1, 53, 64
3, 7195, Note_off_c, 1, 53, 58
3, 7200, Note_on_c, 1, 52, 64
3, 7315, Note_off_c, 1, 52, 62
3, 7320, Note_on_c, 1, 50, 64
3, 7435, Note_off_c, 1, 50, 54
3, 7440, Note_on_c, 1, 48, 64
3, 7555, Note_off_c, 1, 48, 43
3, 7560, Note_on_c, 1, 47, 64
3, 7675, Note_off_c, 1, 47, 46
3, 7680, Note_on_c, 1, 45, 64
3, 7795, Note_off_c, 1, 45, 65
3, 7800, Note_on_c, 1, 48, 64
3, 7915, Note_off_c, 1, 48, 52
3, 7920, Note_on_c, 1, 50, 64
3, 8035, Note_off_c, 1, 50, 54
3, 8040, Note_on_c, 1, 52, 64
3, 8155, Note_off_c, 1, 52, 62
3, 8160, Note_on_c, 1, 53, 64
3, 8275, Note_off_c, 1, 53, 68
3, 8280, Note_on_c, 1, 48, 64
3, 8395, Note_off_c, 1, 48, 47
3, 8400, Note_on_c, 1, 50, 64
3, 8515, Note_off_c, 1, 50, 52
3, 8520, Note_on_c, 1, 52, 64
3, 8635, Note_off_c, 1, 52, 65
3, 8640, Note_on_c, 1, 45, 64
3, 8755, Note_off_c, 1, 45, 69
3, 8760, Note_on_c, 1, 57, 64
3, 8875, Note_off_c, 1, 57, 49
3, 8880, Note_on_c, 1, 57, 64
3, 8995, Note_off_c, 1, 57, 52
3, 9000, Note_on_c, 1, 55, 64
3, 9115, Note_off_c, 1, 55, 49
3, 9120, Note_on_c, 1, 53, 64
3, 9235, Note_off_c, 1, 53, 62
3, 9240, Note_on_c, 1, 41, 64
3, 9355, Note_off_c, 1, 41, 62
3, 9360, Note_on_c, 1, 41, 64
3, 9475, Note_off_c, 1, 41, 42
3, 9480, Note_on_c, 1, 40, 64
3, 9595, Note_off_c, 1, 40, 40
3, 9600, Note_on_c, 1, 38, 64
3, 9715, Note_off_c, 1, 38, 54
3, 9720, Note_on_c, 1, 50, 64
3, 9835, Note_off_c, 1, 50, 53
3, 9840, Note_on_c, 1, 50, 64
3, 9955, Note_off_c, 1, 50, 50
3, 9960, Note_on_c, 1, 48, 64
3, 10075, Note_off_c, 1, 48, 48
3, 10080, Note_on_c, 1, 46, 64
3, 10195, Note_off_c, 1, 46, 52
3, 10200, Note_on_c, 1, 58, 64
3, 10315, Note_off_c, 1, 58, 54
3, 10320, Note_on_c, 1, 58, 64
3, 10435, Note_off_c, 1, 58, 52
3, 10440, Note_on_c, 1, 57, 64
3, 10555, Note_off_c, 1, 57, 53
3, 10560, Note_on_c, 1, 55, 64
3, 10800, Note_off_c, 1, 55, 74
3, 10920, Note_on_c, 1, 58, 64
3, 11035, Note_off_c, 1, 58, 40
3, 11040, Note_on_c, 1, 57, 64
3, 11155, Note_off_c, 1, 57, 55
3, 11160, Note_on_c, 1, 55, 64
3, 11275, Note_off_c, 1, 55, 57
3, 11280, Note_on_c, 1, 53, 64
3, 11395, Note_off_c, 1, 53, 49
3, 11400, Note_on_c, 1, 52, 64
3, 11515, Note_off_c, 1, 52, 74
3, 11520, Note_on_c, 1, 50, 64
3, 11635, Note_off_c, 1, 50, 49
3, 11640, Note_on_c, 1, 53, 64
3, 11755, Note_off_c, 1, 53, 54
3, 11760, Note_on_c, 1, 55, 64
3, 11875, Note_off_c, 1, 55, 51
3, 11880, Note_on_c, 1, 57, 64
3, 11995, Note_off_c, 1, 57, 52
3, 12000, Note_on_c, 1, 58, 64
3, 12115, Note_off_c, 1, 58, 59
3, 12120, Note_on_c, 1, 53, 64
3, 12235, Note_off_c, 1, 53, 46
3, 12240, Note_on_c, 1, 55, 64
3, 12355, Note_off_c, 1, 55, 59
3, 12360, Note_on_c, 1, 57, 64
3, 12475, Note_off_c, 1, 57, 51
3, 12480, Note_on_c, 1, 46, 64
3, 12595, Note_off_c, 1, 46, 42
3, 12600, Note_on_c, 1, 41, 64
3, 12715, Note_off_c, 1, 41, 44
3, 12720, Note_on_c, 1, 43, 64
3, 12835, Note_off_c, 1, 43, 42
3, 12840, Note_on_c, 1, 45, 64
3, 12955, Note_off_c, 1, 45, 68
3, 12960, Note_on_c, 1, 46, 64
3, 13075, Note_off_c, 1, 46, 34
3, 13080, Note_on_c, 1, 41, 64
3, 13195, Note_off_c, 1, 41, 43
3, 13200, Note_on_c, 1, 43, 64
3, 13315, Note_off_c, 1, 43, 33
3, 13320, Note_on_c, 1, 45, 64
3, 13435, Note_off_c, 1, 45, 62
3, 13440, Note_on_c, 1, 38, 64
3, 13800, Note_off_c, 1, 38, 64
3, 13840, Note_on_c, 1, 42, 64
3, 13880, Note_off_c, 1, 42, 64
3, 13880, Note_on_c, 1, 45, 64
3, 13920, Note_off_c, 1, 45, 64
3, 13920, Note_on_c, 1, 50, 64
3, 14280, Note_off_c, 1, 50, 64
3, 14320, Note_on_c, 1, 55, 64
3, 14360, Note_off_c, 1, 55, 64
3, 14360, Note_on_c, 1, 58, 64
3, 14400, Note_off_c, 1, 58, 64
3, 14400, Note_on_c, 1, 61, 64
3, 14520, Note_off_c, 1, 61, 55
3, 14520, Note_on_c, 1, 50, 64
3, 14640, Note_off_c, 1, 50, 26
3, 14640, Note_on_c, 1, 61, 64
3, 14760, Note_off_c, 1, 61, 52
3, 14760, Note_on_c, 1, 50, 64
3, 14880, Note_off_c, 1, 50, 43
3, 14880, Note_on_c, 1, 61, 64
3, 15000, Note_off_c, 1, 61, 62
3, 15000, Note_on_c, 1, 50, 64
3, 15120, Note_off_c, 1, 50, 36
3, 15120, Note_on_c, 1, 61, 64
3, 15240, Note_off_c, 1, 61, 50
3, 15240, Note_on_c, 1, 50, 64
3, 15360, Note_off_c, 1, 50, 31
3, 15360, Note_on_c, 1, 60, 64
3, 15480, Note_off_c, 1, 60, 58
3, 15480, Note_on_c, 1, 50, 64
3, 15600, Note_off_c, 1, 50, 33
3, 15600, Note_on_c, 1, 60, 64
3, 15720, Note_off_c, 1, 60, 61
3, 15720, Note_on_c, 1, 50, 64
3, 15840, Note_off_c, 1, 50, 47
3, 15840, Note_on_c, 1, 60, 64
3, 15960, Note_off_c, 1, 60, 61
3, 15960, Note_on_c, 1, 50, 64
3, 16080, Note_off_c, 1, 50, 50
3, 16080, Note_on_c, 1, 60, 64
3, 16200, Note_off_c, 1, 60, 62
3, 16200, Note_on_c, 1, 50, 64
3, 16320, Note_off_c, 1, 50, 45
3, 16320, Note_on_c, 1, 58, 64
3, 16440, Note_off_c, 1, 58, 62
3, 16440, Note_on_c, 1, 50, 64
3, 16560, Note_off_c, 1, 50, 44
3, 16560, Note_on_c, 1, 58, 64
3, 16680, Note_off_c, 1, 58, 58
3, 16680, Note_on_c, 1, 50, 64
3, 16800, Note_off_c, 1, 50, 44
3, 16800, Note_on_c, 1, 55, 64
3, 16920, Note_off_c, 1, 55, 49
3, 16920, Note_on_c, 1, 50, 64
3, 17040, Note_off_c, 1, 50, 40
3, 17040, Note_on_c, 1, 55, 64
3, 17160, Note_off_c, 1, 55, 51
3, 17160, Note_on_c, 1, 50, 64
3, 17280, Note_off_c, 1, 50, 52
3, 17280, Note_on_c, 1, 52, 64
3, 17400, Note_off_c, 1, 52, 66
3, 17400, Note_on_c, 1, 50, 64
3, 17520, Note_off_c, 1, 50, 52
3, 17520, Note_on_c, 1, 52, 64
3, 17640, Note_off_c, 1, 52, 58
3, 17640, Note_on_c, 1, 50, 64
3, 17760, Note_off_c, 1, 50, 51
3, 17760, Note_on_c, 1, 52, 64
3, 17880, Note_off_c, 1, 52, 57
3, 17880, Note_on_c, 1, 50, 64
3, 18000, Note_off_c, 1, 50, 48
3, 18000, Note_on_c, 1, 52, 64
3, 18120, Note_off_c, 1, 52, 52
3, 18120, Note_on_c, 1, 50, 64
3, 18240, Note_off_c, 1, 50, 42
3, 18240, Note_on_c, 1, 54, 64
3, 18360, Note_off_c, 1, 54, 47
3, 18360, Note_on_c, 1, 50, 64
3, 18480, Note_off_c, 1, 50, 38
3, 18480, Note_on_c, 1, 54, 64
3, 18600, Note_off_c, 1, 54, 50
3, 18600, Note_on_c, 1, 50, 64
3, 18720, Note_on_c, 1, 55, 64
3, 18840, Note_off_c, 1, 55, 51
3, 18840, Note_on_c, 1, 57, 64
3, 18960, Note_off_c, 1, 57, 49
3, 18960, Note_on_c, 1, 55, 64
3, 19080, Note_off_c, 1, 55, 53
3, 19080, Note_on_c, 1, 53, 64
3, 19200, Note_off_c, 1, 53, 51
3, 19200, Note_on_c, 1, 52, 64
3, 19320, Note_off_c, 1, 52, 51
3, 19320, Note_on_c, 1, 55, 64
3, 19440, Note_off_c, 1, 55, 48
3, 19440, Note_on_c, 1, 53, 64
3, 19560, Note_off_c, 1, 53, 51
3, 19560, Note_on_c, 1, 52, 64
3, 19670, Note_off_c, 1, 50, 35
3, 19683, Note_off_c, 1, 52, 49
3, 19683, Note_on_c, 1, 44, 64
3, 19683, Note_on_c, 1, 50, 64
3, 19803, Note_off_c, 1, 50, 44
3, 19803, Note_on_c, 1, 52, 64
3, 19923, Note_off_c, 1, 52, 55
3, 19923, Note_on_c, 1, 53, 64
3, 20043, Note_off_c, 1, 44, 48
3, 20043, Note_on_c, 1, 45, 64
3, 20163, Note_off_c, 1, 45, 46
3, 20163, Note_off_c, 1, 53, 48
3, 20163, Note_on_c, 1, 46, 64
3, 20163, Note_on_c, 1, 52, 64
3, 20283, Note_off_c, 1, 52, 52
3, 20283, Note_on_c, 1, 55, 64
3, 20403, Note_off_c, 1, 55, 52
3, 20403, Note_on_c, 1, 53, 64
3, 20523, Note_off_c, 1, 53, 52
3, 20523, Note_on_c, 1, 52, 64
3, 20643, Note_off_c, 1, 52, 40
3, 20643, Note_off_c, 1, 46, 65
3, 20643, Note_on_c, 1, 47, 64
3, 20643, Note_on_c, 1, 53, 64
3, 20763, Note_off_c, 1, 53, 52
3, 20763, Note_on_c, 1, 52, 64
3, 20883, Note_off_c, 1, 52, 55
3, 20883, Note_on_c, 1, 53, 64
3, 21003, Note_off_c, 1, 47, 51
3, 21003, Note_on_c, 1, 46, 64
3, 21043, Note_off_c, 1, 53, 65
3, 21043, Note_on_c, 1, 52, 64
3, 21083, Note_off_c, 1, 52, 64
3, 21083, Note_on_c, 1, 50, 64
3, 21123, Note_off_c, 1, 50, 64
3, 21123, Note_off_c, 1, 46, 65
3, 21123, Note_on_c, 1, 45, 64
3, 21123, Note_on_c, 1, 49, 64
3, 21243, Note_off_c, 1, 49, 73
3, 21243, Note_on_c, 1, 52, 64
3, 21363, Note_off_c, 1, 52, 66
3, 21363, Note_on_c, 1, 55, 64
3, 21483, Note_off_c, 1, 55, 48
3, 21483, Note_off_c, 1, 45, 64
3, 21483, Note_on_c, 1, 58, 64
3, 21523, Note_on_c, 1, 49, 64
3, 21563, Note_off_c, 1, 49, 64
3, 21563, Note_on_c, 1, 52, 64
3, 21603, Note_off_c, 1, 52, 64
3, 21603, Note_off_c, 1, 58, 51
3, 21603, Note_on_c, 1, 57, 64
3, 21723, Note_on_c, 1, 62, 64
3, 21843, Note_off_c, 1, 62, 50
3, 21843, Note_on_c, 1, 65, 64
3, 21963, Note_off_c, 1, 65, 1
3, 21963, Note_on_c, 1, 69, 64
3, 21993, Note_off_c, 1, 57, 32
3, 22006, Note_on_c, 1, 62, 64
3, 22046, Note_off_c, 1, 62, 64
3, 22046, Note_on_c, 1, 65, 64
3, 22086, Note_off_c, 1, 65, 64
3, 22086, Note_off_c, 1, 69, 49
3, 22086, Note_on_c, 1, 68, 64
3, 22206, Note_off_c, 1, 68, 72
3, 23766, Note_on_c, 1, 47, 64
3, 23766, Note_on_c, 1, 56, 64
3, 23766, Note_on_c, 1, 50, 64
3, 23766, Note_on_c, 1, 53, 64
3, 24006, Note_off_c, 1, 53, 57
3, 24006, Note_off_c, 1, 50, 59
3, 24006, Note_off_c, 1, 56, 43
3, 24006, Note_off_c, 1, 47, 41
3, 24006, Note_on_c, 1, 57, 64
3, 24006, Note_on_c, 1, 45, 64
3, 24006, Note_on_c, 1, 50, 64
3, 24006, Note_on_c, 1, 53, 64
3, 24246, Note_off_c, 1, 53, 58
3, 24246, Note_off_c, 1, 50, 57
3, 24246, Note_on_c, 1, 52, 64
3, 24486, Note_off_c, 1, 52, 53
3, 24486, Note_off_c, 1, 45, 72
3, 24486, Note_off_c, 1, 57, 68
3, 24486, Note_on_c, 1, 50, 64
3, 24486, Note_on_c, 1, 38, 64
3, 24966, Note_off_c, 1, 38, 63
3, 24966, Note_off_c, 1, 50, 77
3, 24966, End_track
0, 0, End_of_file
