0, 0, Header, 1, 5, 240
1, 0, Start_track
1, 0, Time_signature, 4, 2, 24, 8
1, 0, Tempo, 878426
1, 32400, Tempo, 902490
1, 32640, Tempo, 740741
1, 32760, Tempo, 779221
1, 32880, Tempo, 857143
1, 33000, Tempo, 937500
1, 33056, Tempo, 1132075
1, 33120, Tempo, 1276596
1, 33120, End_track
2, 0, Start_track
2, 0, Text_t, "RH H"
2, 4080, Note_on_c, 0, 68, 64
2, 4200, Note_off_c, 0, 68, 44
2, 4200, Note_on_c, 0, 75, 64
2, 4320, Note_off_c, 0, 75, 46
2, 4320, Note_on_c, 0, 72, 64
2, 4440, Note_off_c, 0, 72, 77
2, 4440, Note_on_c, 0, 68, 64
2, 4560, Note_off_c, 0, 68, 30
2, 4560, Note_on_c, 0, 77, 64
2, 4680, Note_off_c, 0, 77, 29
2, 4680, Note_on_c, 0, 73, 64
2, 4800, Note_off_c, 0, 73, 52
2, 4800, Note_on_c, 0, 75, 64
2, 5520, Note_off_c, 0, 75, 47
2, 5520, Note_on_c, 0, 80, 64
2, 5760, Note_off_c, 0, 80, 63
2, 5760, Note_on_c, 0, 80, 64
2, 6000, Note_off_c, 0, 80, 66
2, 6000, Note_on_c, 0, 79, 64
2, 6240, Note_off_c, 0, 79, 48
2, 6240, Note_on_c, 0, 77, 64
2, 6780, Note_off_c, 0, 77, 45
2, 6780, Note_on_c, 0, 70, 64
2, 6840, Note_off_c, 0, 70, 46
2, 6840, Note_on_c, 0, 72, 64
2, 6900, Note_off_c, 0, 72, 63
2, 6900, Note_on_c, 0, 74, 64
2, 6960, Note_off_c, 0, 74, 53
2, 6960, Note_on_c, 0, 75, 64
2, 7320, Note_off_c, 0, 75, 54
2, 7320, Note_on_c, 0, 80, 64
2, 7440, Note_off_c, 0, 80, 57
2, 7440, Note_on_c, 0, 73, 64
2, 7560, Note_off_c, 0, 73, 70
2, 7560, Note_on_c, 0, 82, 64
2, 7680, Note_off_c, 0, 82, 61
2, 7680, Note_on_c, 0, 73, 64
2, 7920, Note_off_c, 0, 73, 77
2, 7920, Note_on_c, 0, 72, 64
2, 8160, Note_off_c, 0, 72, 83
2, 8160, Note_on_c, 0, 70, 64
2, 8640, Note_off_c, 0, 70, 73
2, 8640, Note_on_c, 0, 68, 64
2, 9170, Note_off_c, 0, 68, 74
2, 9183, Note_on_c, 0, 68, 64
2, 9243, Note_off_c, 0, 68, 57
2, 9243, Note_on_c, 0, 70, 64
2, 9303, Note_off_c, 0, 70, 76
2, 9303, Note_on_c, 0, 72, 64
2, 9363, Note_off_c, 0, 72, 70
2, 9363, Note_on_c, 0, 73, 64
2, 9663, Note_off_c, 0, 73, 72
2, 9663, Note_on_c, 0, 70, 64
2, 9723, Note_off_c, 0, 70, 69
2, 9723, Note_on_c, 0, 72, 64
2, 9783, Note_off_c, 0, 72, 74
2, 9783, Note_on_c, 0, 75, 64
2, 9843, Note_off_c, 0, 75, 51
2, 9843, Note_on_c, 0, 80, 64
2, 9903, Note_off_c, 0, 80, 76
2, 9903, Note_on_c, 0, 79, 64
2, 9963, Note_off_c, 0, 79, 63
2, 9963, Note_on_c, 0, 80, 64
2, 10023, Note_off_c, 0, 80, 69
2, 10023, Note_on_c, 0, 82, 64
2, 10083, Note_off_c, 0, 82, 55
2, 10083, Note_on_c, 0, 84, 64
2, 10143, Note_off_c, 0, 84, 59
2, 10143, Note_on_c, 0, 82, 64
2, 10203, Note_off_c, 0, 82, 66
2, 10203, Note_on_c, 0, 80, 64
2, 10263, Note_off_c, 0, 80, 76
2, 10263, Note_on_c, 0, 79, 64
2, 10323, Note_off_c, 0, 79, 66
2, 10323, Note_on_c, 0, 77, 64
2, 10383, Note_off_c, 0, 77, 62
2, 10383, Note_on_c, 0, 79, 64
2, 10443, Note_off_c, 0, 79, 52
2, 10443, Note_on_c, 0, 80, 64
2, 10503, Note_off_c, 0, 80, 57
2, 10503, Note_on_c, 0, 84, 64
2, 10563, Note_off_c, 0, 84, 47
2, 10563, Note_on_c, 0, 82, 64
2, 10623, Note_off_c, 0, 82, 68
2, 10623, Note_on_c, 0, 80, 64
2, 10683, Note_off_c, 0, 80, 74
2, 10683, Note_on_c, 0, 79, 64
2, 10743, Note_off_c, 0, 79, 61
2, 10743, Note_on_c, 0, 77, 64
2, 10803, Note_off_c, 0, 77, 51
2, 10803, Note_on_c, 0, 75, 64
2, 10863, Note_off_c, 0, 75, 53
2, 10863, Note_on_c, 0, 77, 64
2, 10923, Note_off_c, 0, 77, 47
2, 10923, Note_on_c, 0, 79, 64
2, 10983, Note_off_c, 0, 79, 45
2, 10983, Note_on_c, 0, 82, 64
2, 11043, Note_off_c, 0, 82, 69
2, 11043, Note_on_c, 0, 80, 64
2, 11103, Note_off_c, 0, 80, 76
2, 11103, Note_on_c, 0, 79, 64
2, 11163, Note_off_c, 0, 79, 59
2, 11163, Note_on_c, 0, 77, 64
2, 11223, Note_off_c, 0, 77, 61
2, 11223, Note_on_c, 0, 75, 64
2, 11283, Note_off_c, 0, 75, 52
2, 11283, Note_on_c, 0, 74, 64
2, 11343, Note_off_c, 0, 74, 54
2, 11343, Note_on_c, 0, 75, 64
2, 11403, Note_off_c, 0, 75, 49
2, 11403, Note_on_c, 0, 77, 64
2, 11463, Note_off_c, 0, 77, 77
2, 11463, Note_on_c, 0, 80, 64
2, 11523, Note_off_c, 0, 80, 72
2, 11523, Note_on_c, 0, 79, 64
2, 11583, Note_off_c, 0, 79, 63
2, 11583, Note_on_c, 0, 77, 64
2, 11643, Note_off_c, 0, 77, 52
2, 11643, Note_on_c, 0, 76, 64
2, 11703, Note_off_c, 0, 76, 49
2, 11703, Note_on_c, 0, 79, 64
2, 11763, Note_off_c, 0, 79, 53
2, 11763, Note_on_c, 0, 77, 64
2, 11823, Note_off_c, 0, 77, 65
2, 11823, Note_on_c, 0, 76, 64
2, 11883, Note_off_c, 0, 76, 54
2, 11883, Note_on_c, 0, 77, 64
2, 11943, Note_off_c, 0, 77, 63
2, 11943, Note_on_c, 0, 79, 64
2, 12003, Note_off_c, 0, 79, 57
2, 12003, Note_on_c, 0, 72, 64
2, 12123, Note_off_c, 0, 72, 52
2, 12123, Note_on_c, 0, 77, 64
2, 12363, Note_off_c, 0, 77, 59
2, 12363, Note_on_c, 0, 79, 64
2, 12423, Note_off_c, 0, 79, 69
2, 12423, Note_on_c, 0, 76, 64
2, 12483, Note_off_c, 0, 76, 47
2, 12483, Note_on_c, 0, 77, 64
2, 12543, Note_off_c, 0, 77, 69
2, 12543, Note_on_c, 0, 76, 64
2, 12603, Note_off_c, 0, 76, 49
2, 12603, Note_on_c, 0, 77, 64
2, 12663, Note_off_c, 0, 77, 63
2, 12663, Note_on_c, 0, 79, 64
2, 12723, Note_off_c, 0, 79, 70
2, 12723, Note_on_c, 0, 80, 64
2, 13203, Note_off_c, 0, 80, 73
2, 13203, Note_on_c, 0, 79, 64
2, 13683, Note_off_c, 0, 79, 63
2, 13683, Note_on_c, 0, 77, 64
2, 14163, Note_off_c, 0, 77, 65
2, 14163, Note_on_c, 0, 76, 64
2, 14403, Note_off_c, 0, 76, 52
2, 14403, Note_on_c, 0, 77, 64
2, 14703, Note_off_c, 0, 77, 52
2, 14703, Note_on_c, 0, 75, 64
2, 14763, Note_off_c, 0, 75, 48
2, 14763, Note_on_c, 0, 73, 64
2, 14823, Note_off_c, 0, 73, 72
2, 14823, Note_on_c, 0, 72, 64
2, 14883, Note_off_c, 0, 72, 85
2, 14883, Note_on_c, 0, 70, 64
2, 14943, Note_off_c, 0, 70, 72
2, 14943, Note_on_c, 0, 68, 64
2, 15003, Note_off_c, 0, 68, 58
2, 15003, Note_on_c, 0, 67, 64
2, 15063, Note_off_c, 0, 67, 25
2, 15063, Note_on_c, 0, 68, 64
2, 15123, Note_off_c, 0, 68, 74
2, 15123, Note_on_c, 0, 70, 64
2, 15183, Note_off_c, 0, 70, 77
2, 15183, Note_on_c, 0, 73, 64
2, 15243, Note_off_c, 0, 73, 77
2, 15243, Note_on_c, 0, 72, 64
2, 15303, Note_off_c, 0, 72, 83
2, 15303, Note_on_c, 0, 70, 64
2, 15363, Note_off_c, 0, 70, 70
2, 15363, Note_on_c, 0, 69, 64
2, 15423, Note_off_c, 0, 69, 37
2, 15423, Note_on_c, 0, 72, 64
2, 15483, Note_off_c, 0, 72, 72
2, 15483, Note_on_c, 0, 73, 64
2, 15543, Note_off_c, 0, 73, 65
2, 15543, Note_on_c, 0, 75, 64
2, 15603, Note_off_c, 0, 75, 63
2, 15603, Note_on_c, 0, 77, 64
2, 15663, Note_off_c, 0, 77, 68
2, 15663, Note_on_c, 0, 75, 64
2, 15723, Note_off_c, 0, 75, 52
2, 15723, Note_on_c, 0, 73, 64
2, 15783, Note_off_c, 0, 73, 58
2, 15783, Note_on_c, 0, 72, 64
2, 15843, Note_off_c, 0, 72, 74
2, 15843, Note_on_c, 0, 70, 64
2, 15903, Note_off_c, 0, 70, 43
2, 15903, Note_on_c, 0, 73, 64
2, 15963, Note_off_c, 0, 73, 61
2, 15963, Note_on_c, 0, 78, 64
2, 16023, Note_off_c, 0, 78, 58
2, 16023, Note_on_c, 0, 77, 64
2, 16083, Note_off_c, 0, 77, 66
2, 16083, Note_on_c, 0, 75, 64
2, 16143, Note_off_c, 0, 75, 53
2, 16143, Note_on_c, 0, 73, 64
2, 16203, Note_off_c, 0, 73, 58
2, 16203, Note_on_c, 0, 72, 64
2, 16263, Note_off_c, 0, 72, 65
2, 16263, Note_on_c, 0, 70, 64
2, 16323, Note_off_c, 0, 70, 59
2, 16323, Note_on_c, 0, 69, 64
2, 16563, Note_off_c, 0, 69, 55
2, 16563, Note_on_c, 0, 70, 64
2, 16623, Note_off_c, 0, 70, 58
2, 16623, Note_on_c, 0, 72, 64
2, 16683, Note_off_c, 0, 72, 61
2, 16683, Note_on_c, 0, 73, 64
2, 16923, Note_off_c, 0, 73, 66
2, 16923, Note_on_c, 0, 72, 64
2, 16983, Note_off_c, 0, 72, 74
2, 16983, Note_on_c, 0, 73, 64
2, 17043, Note_off_c, 0, 73, 57
2, 17043, Note_on_c, 0, 75, 64
2, 17343, Note_off_c, 0, 75, 53
2, 17343, Note_on_c, 0, 72, 64
2, 17403, Note_off_c, 0, 72, 49
2, 17403, Note_on_c, 0, 73, 64
2, 17463, Note_off_c, 0, 73, 55
2, 17463, Note_on_c, 0, 77, 64
2, 17523, Note_off_c, 0, 77, 69
2, 17523, Note_on_c, 0, 82, 64
2, 17643, Note_off_c, 0, 82, 62
2, 17643, Note_on_c, 0, 77, 64
2, 17763, Note_off_c, 0, 77, 40
2, 17763, Note_on_c, 0, 78, 64
2, 17883, Note_off_c, 0, 78, 62
2, 17883, Note_on_c, 0, 75, 64
2, 18003, Note_off_c, 0, 75, 47
2, 18003, Note_on_c, 0, 80, 64
2, 18123, Note_off_c, 0, 80, 73
2, 18123, Note_on_c, 0, 75, 64
2, 18243, Note_off_c, 0, 75, 46
2, 18243, Note_on_c, 0, 77, 64
2, 18363, Note_off_c, 0, 77, 61
2, 18363, Note_on_c, 0, 73, 64
2, 18423, Note_off_c, 0, 73, 59
2, 18423, Note_on_c, 0, 77, 64
2, 18483, Note_off_c, 0, 77, 72
2, 18483, Note_on_c, 0, 78, 64
2, 18603, Note_off_c, 0, 78, 52
2, 18603, Note_on_c, 0, 73, 64
2, 18723, Note_off_c, 0, 73, 57
2, 18723, Note_on_c, 0, 75, 64
2, 18843, Note_off_c, 0, 75, 52
2, 18843, Note_on_c, 0, 72, 64
2, 18963, Note_off_c, 0, 72, 51
2, 18963, Note_on_c, 0, 77, 64
2, 19083, Note_off_c, 0, 77, 66
2, 19083, Note_on_c, 0, 72, 64
2, 19203, Note_off_c, 0, 72, 51
2, 19203, Note_on_c, 0, 73, 64
2, 19923, Note_off_c, 0, 73, 59
2, 19923, Note_on_c, 0, 72, 64
2, 20043, Note_off_c, 0, 72, 41
2, 20043, Note_on_c, 0, 77, 64
2, 20163, Note_off_c, 0, 77, 62
2, 20163, Note_on_c, 0, 74, 64
2, 20283, Note_off_c, 0, 74, 57
2, 20283, Note_on_c, 0, 70, 64
2, 20403, Note_off_c, 0, 70, 49
2, 20403, Note_on_c, 0, 75, 64
2, 20883, Note_off_c, 0, 75, 43
2, 20883, Note_on_c, 0, 73, 64
2, 21123, Note_off_c, 0, 73, 52
2, 21123, Note_on_c, 0, 75, 64
2, 21363, Note_off_c, 0, 75, 54
2, 22323, Note_on_c, 0, 68, 64
2, 22443, Note_off_c, 0, 68, 47
2, 22443, Note_on_c, 0, 75, 64
2, 22563, Note_off_c, 0, 75, 37
2, 22563, Note_on_c, 0, 72, 64
2, 22683, Note_off_c, 0, 72, 73
2, 22683, Note_on_c, 0, 68, 64
2, 22803, Note_off_c, 0, 68, 43
2, 22803, Note_on_c, 0, 78, 64
2, 22923, Note_off_c, 0, 78, 54
2, 23043, Note_on_c, 0, 77, 64
2, 23283, Note_off_c, 0, 77, 69
2, 23283, Note_on_c, 0, 77, 64
2, 23403, Note_off_c, 0, 77, 61
2, 23403, Note_on_c, 0, 79, 64
2, 23523, Note_off_c, 0, 79, 61
2, 23523, Note_on_c, 0, 75, 64
2, 23763, Note_off_c, 0, 75, 44
2, 23763, Note_on_c, 0, 75, 64
2, 23883, Note_off_c, 0, 75, 58
2, 23883, Note_on_c, 0, 77, 64
2, 24003, Note_off_c, 0, 77, 66
2, 24003, Note_on_c, 0, 73, 64
2, 24243, Note_off_c, 0, 73, 63
2, 24243, Note_on_c, 0, 73, 64
2, 24363, Note_off_c, 0, 73, 40
2, 24363, Note_on_c, 0, 82, 64
2, 24483, Note_off_c, 0, 82, 69
2, 24483, Note_on_c, 0, 72, 64
2, 24603, Note_off_c, 0, 72, 40
2, 24603, Note_on_c, 0, 73, 64
2, 24663, Note_off_c, 0, 73, 51
2, 24663, Note_on_c, 0, 70, 64
2, 24723, Note_off_c, 0, 70, 45
2, 24723, Note_on_c, 0, 72, 64
2, 24843, Note_off_c, 0, 72, 40
2, 24843, Note_on_c, 0, 80, 64
2, 24963, Note_off_c, 0, 80, 62
2, 24963, Note_on_c, 0, 70, 64
2, 25203, Note_off_c, 0, 70, 61
2, 25263, Note_on_c, 0, 75, 64
2, 25323, Note_off_c, 0, 75, 55
2, 25323, Note_on_c, 0, 77, 64
2, 25383, Note_off_c, 0, 77, 46
2, 25383, Note_on_c, 0, 79, 64
2, 25443, Note_off_c, 0, 79, 61
2, 25443, Note_on_c, 0, 80, 64
2, 25743, Note_off_c, 0, 80, 70
2, 25743, Note_on_c, 0, 79, 64
2, 25803, Note_off_c, 0, 79, 58
2, 25803, Note_on_c, 0, 77, 64
2, 25863, Note_off_c, 0, 77, 54
2, 25863, Note_on_c, 0, 80, 64
2, 25923, Note_off_c, 0, 80, 72
2, 25923, Note_on_c, 0, 79, 64
2, 26703, Note_off_c, 0, 79, 66
2, 26703, Note_on_c, 0, 72, 64
2, 26763, Note_off_c, 0, 72, 51
2, 26763, Note_on_c, 0, 77, 64
2, 26943, Note_off_c, 0, 77, 68
2, 26943, Note_on_c, 0, 75, 64
2, 27003, Note_off_c, 0, 75, 54
2, 27003, Note_on_c, 0, 73, 64
2, 27063, Note_off_c, 0, 73, 62
2, 27063, Note_on_c, 0, 77, 64
2, 27123, Note_off_c, 0, 77, 70
2, 27123, Note_on_c, 0, 75, 64
2, 27603, Note_off_c, 0, 75, 52
2, 27603, Note_on_c, 0, 73, 64
2, 27843, Note_off_c, 0, 73, 61
2, 27903, Note_on_c, 0, 72, 64
2, 27963, Note_off_c, 0, 72, 66
2, 27963, Note_on_c, 0, 70, 64
2, 28023, Note_off_c, 0, 70, 61
2, 28023, Note_on_c, 0, 73, 64
2, 28083, Note_off_c, 0, 73, 69
2, 28083, Note_on_c, 0, 72, 64
2, 28203, Note_off_c, 0, 72, 77
2, 28203, Note_on_c, 0, 77, 64
2, 28323, Note_off_c, 0, 77, 68
2, 28323, Note_on_c, 0, 73, 64
2, 28443, Note_off_c, 0, 73, 66
2, 28443, Note_on_c, 0, 70, 64
2, 28563, Note_off_c, 0, 70, 74
2, 28563, Note_on_c, 0, 78, 64
2, 28683, Note_off_c, 0, 78, 62
2, 28803, Note_on_c, 0, 77, 64
2, 29043, Note_off_c, 0, 77, 73
2, 29043, Note_on_c, 0, 80, 64
2, 29163, Note_off_c, 0, 80, 69
2, 29283, Note_on_c, 0, 79, 64
2, 29523, Note_off_c, 0, 79, 57
2, 29523, Note_on_c, 0, 82, 64
2, 29643, Note_off_c, 0, 82, 65
2, 29643, Note_on_c, 0, 79, 64
2, 29763, Note_off_c, 0, 79, 59
2, 29763, Note_on_c, 0, 80, 64
2, 29883, Note_off_c, 0, 80, 72
2, 29883, Note_on_c, 0, 77, 64
2, 30003, Note_off_c, 0, 77, 65
2, 30003, Note_on_c, 0, 73, 64
2, 30363, Note_off_c, 0, 73, 66
2, 30363, Note_on_c, 0, 75, 64
2, 30483, Note_off_c, 0, 75, 59
2, 30483, Note_on_c, 0, 72, 64
2, 30603, Note_off_c, 0, 72, 80
2, 30603, Note_on_c, 0, 77, 64
2, 30723, Note_off_c, 0, 77, 70
2, 30723, Note_on_c, 0, 72, 64
2, 30963, Note_off_c, 0, 72, 72
2, 30963, Note_on_c, 0, 70, 64
2, 31323, Note_off_c, 0, 70, 65
2, 31323, Note_on_c, 0, 68, 64
2, 31383, Note_off_c, 0, 68, 55
2, 31383, Note_on_c, 0, 67, 64
2, 31443, Note_off_c, 0, 67, 57
2, 31443, Note_on_c, 0, 68, 64
2, 31563, Note_off_c, 0, 68, 68
2, 31563, Note_on_c, 0, 75, 64
2, 31683, Note_off_c, 0, 75, 61
2, 31683, Note_on_c, 0, 72, 64
2, 31803, Note_off_c, 0, 72, 85
2, 31803, Note_on_c, 0, 68, 64
2, 31923, Note_off_c, 0, 68, 77
2, 31923, Note_on_c, 0, 77, 64
2, 32043, Note_off_c, 0, 77, 52
2, 32043, Note_on_c, 0, 73, 64
2, 32163, Note_off_c, 0, 73, 70
2, 32163, Note_on_c, 0, 75, 64
2, 32283, Note_off_c, 0, 75, 52
2, 32283, Note_on_c, 0, 67, 64
2, 32403, Note_off_c, 0, 67, 34
2, 32403, Note_on_c, 0, 68, 64
2, 32883, Note_off_c, 0, 68, 55
2, 32883, Note_on_c, 0, 67, 64
2, 33123, Note_off_c, 0, 67, 43
2, 33123, Note_on_c, 0, 68, 64
2, 33603, Note_off_c, 0, 68, 74
2, 33603, End_track
3, 0, Start_track
3, 0, Text_t, "RH L"
3, 5040, Note_on_c, 1, 63, 64
3, 5160, Note_off_c, 1, 63, 38
3, 5160, Note_on_c, 1, 68, 64
3, 5280, Note_off_c, 1, 68, 57
3, 5280, Note_on_c, 1, 67, 64
3, 5400, Note_off_c, 1, 67, 47
3, 5400, Note_on_c, 1, 63, 64
3, 5520, Note_off_c, 1, 63, 19
3, 5520, Note_on_c, 1, 72, 64
3, 5640, Note_off_c, 1, 72, 61
3, 5640, Note_on_c, 1, 68, 64
3, 5760, Note_off_c, 1, 68, 52
3, 5760, Note_on_c, 1, 70, 64
3, 6000, Note_off_c, 1, 70, 72
3, 6060, Note_on_c, 1, 63, 64
3, 6120, Note_off_c, 1, 63, 58
3, 6120, Note_on_c, 1, 65, 64
3, 6180, Note_off_c, 1, 65, 1
3, 6180, Note_on_c, 1, 67, 64
3, 6240, Note_off_c, 1, 67, 50
3, 6240, Note_on_c, 1, 68, 64
3, 6300, Note_off_c, 1, 68, 59
3, 6300, Note_on_c, 1, 70, 64
3, 6360, Note_off_c, 1, 70, 74
3, 6360, Note_on_c, 1, 72, 64
3, 6420, Note_off_c, 1, 72, 74
3, 6420, Note_on_c, 1, 70, 64
3, 6480, Note_off_c, 1, 70, 72
3, 6480, Note_on_c, 1, 68, 64
3, 6540, Note_off_c, 1, 68, 72
3, 6540, Note_on_c, 1, 67, 64
3, 6600, Note_off_c, 1, 67, 52
3, 6600, Note_on_c, 1, 65, 64
3, 6660, Note_off_c, 1, 65, 5
3, 6660, Note_on_c, 1, 68, 64
3, 6720, Note_off_c, 1, 68, 68
3, 6720, Note_on_c, 1, 67, 64
3, 7200, Note_off_c, 1, 67, 53
3, 7200, Note_on_c, 1, 65, 64
3, 7680, Note_off_c, 1, 65, 55
3, 7740, Note_on_c, 1, 63, 64
3, 7800, Note_off_c, 1, 63, 12
3, 7800, Note_on_c, 1, 65, 64
3, 7860, Note_off_c, 1, 65, 53
3, 7860, Note_on_c, 1, 67, 64
3, 7920, Note_off_c, 1, 67, 52
3, 7920, Note_on_c, 1, 68, 64
3, 8400, Note_off_c, 1, 68, 73
3, 8400, Note_on_c, 1, 67, 64
3, 8640, Note_off_c, 1, 67, 62
3, 8640, Note_on_c, 1, 68, 64
3, 8760, Note_off_c, 1, 68, 63
3, 8760, Note_on_c, 1, 67, 64
3, 8820, Note_off_c, 1, 67, 46
3, 8820, Note_on_c, 1, 65, 64
3, 8880, Note_off_c, 1, 65, 37
3, 8880, Note_on_c, 1, 63, 64
3, 8940, Note_off_c, 1, 63, 52
3, 8940, Note_on_c, 1, 61, 64
3, 9000, Note_off_c, 1, 61, 46
3, 9000, Note_on_c, 1, 60, 64
3, 9060, Note_off_c, 1, 60, 45
3, 9060, Note_on_c, 1, 61, 64
3, 9120, Note_off_c, 1, 61, 57
3, 9120, Note_on_c, 1, 63, 64
3, 9240, Note_off_c, 1, 63, 52
3, 9480, Note_on_c, 1, 56, 64
3, 9600, Note_off_c, 1, 56, 16
3, 9600, Note_on_c, 1, 68, 64
3, 9720, Note_off_c, 1, 68, 46
3, 11760, Note_on_c, 1, 65, 64
3, 11880, Note_off_c, 1, 65, 37
3, 11880, Note_on_c, 1, 72, 64
3, 12000, Note_off_c, 1, 72, 76
3, 12000, Note_on_c, 1, 68, 64
3, 12120, Note_off_c, 1, 68, 62
3, 12120, Note_on_c, 1, 65, 64
3, 12240, Note_off_c, 1, 65, 35
3, 12240, Note_on_c, 1, 73, 64
3, 12360, Note_off_c, 1, 73, 58
3, 12360, Note_on_c, 1, 70, 64
3, 12480, Note_off_c, 1, 70, 37
3, 12480, Note_on_c, 1, 72, 64
3, 12600, Note_off_c, 1, 72, 82
3, 12600, Note_on_c, 1, 74, 64
3, 12660, Note_off_c, 1, 74, 58
3, 12660, Note_on_c, 1, 76, 64
3, 12720, Note_off_c, 1, 76, 49
3, 12720, Note_on_c, 1, 77, 64
3, 12840, Note_off_c, 1, 77, 70
3, 12840, Note_on_c, 1, 72, 64
3, 12960, Note_off_c, 1, 72, 57
3, 12960, Note_on_c, 1, 73, 64
3, 13080, Note_off_c, 1, 73, 62
3, 13080, Note_on_c, 1, 70, 64
3, 13200, Note_off_c, 1, 70, 61
3, 13200, Note_on_c, 1, 75, 64
3, 13320, Note_off_c, 1, 75, 57
3, 13320, Note_on_c, 1, 70, 64
3, 13440, Note_off_c, 1, 70, 66
3, 13440, Note_on_c, 1, 72, 64
3, 13560, Note_off_c, 1, 72, 83
3, 13560, Note_on_c, 1, 68, 64
3, 13680, Note_off_c, 1, 68, 59
3, 13680, Note_on_c, 1, 73, 64
3, 13800, Note_off_c, 1, 73, 65
3, 13800, Note_on_c, 1, 68, 64
3, 13920, Note_off_c, 1, 68, 79
3, 13920, Note_on_c, 1, 70, 64
3, 13980, Note_off_c, 1, 70, 69
3, 13980, Note_on_c, 1, 72, 64
3, 14040, Note_off_c, 1, 72, 83
3, 14040, Note_on_c, 1, 73, 64
3, 14100, Note_off_c, 1, 73, 77
3, 14100, Note_on_c, 1, 72, 64
3, 14160, Note_off_c, 1, 72, 83
3, 14160, Note_on_c, 1, 70, 64
3, 14220, Note_off_c, 1, 70, 70
3, 14220, Note_on_c, 1, 68, 64
3, 14280, Note_off_c, 1, 68, 73
3, 14280, Note_on_c, 1, 67, 64
3, 14340, Note_off_c, 1, 67, 48
3, 14340, Note_on_c, 1, 70, 64
3, 14400, Note_off_c, 1, 70, 57
3, 14400, Note_on_c, 1, 68, 64
3, 14640, Note_off_c, 1, 68, 66
3, 16560, Note_on_c, 1, 65, 64
3, 16680, Note_off_c, 1, 65, 38
3, 16680, Note_on_c, 1, 70, 64
3, 16800, Note_off_c, 1, 70, 73
3, 16800, Note_on_c, 1, 66, 64
3, 16920, Note_off_c, 1, 66, 41
3, 16920, Note_on_c, 1, 63, 64
3, 17040, Note_off_c, 1, 63, 40
3, 17040, Note_on_c, 1, 72, 64
3, 17160, Note_off_c, 1, 72, 63
3, 17160, Note_on_c, 1, 69, 64
3, 17280, Note_off_c, 1, 69, 74
3, 17280, Note_on_c, 1, 70, 64
3, 17520, Note_off_c, 1, 70, 63
3, 17580, Note_on_c, 1, 65, 64
3, 17640, Note_off_c, 1, 65, 27
3, 17640, Note_on_c, 1, 66, 64
3, 17700, Note_off_c, 1, 66, 66
3, 17700, Note_on_c, 1, 68, 64
3, 17760, Note_off_c, 1, 68, 76
3, 17760, Note_on_c, 1, 70, 64
3, 17820, Note_off_c, 1, 70, 73
3, 17820, Note_on_c, 1, 68, 64
3, 17880, Note_off_c, 1, 68, 72
3, 17880, Note_on_c, 1, 66, 64
3, 17940, Note_off_c, 1, 66, 74
3, 17940, Note_on_c, 1, 65, 64
3, 18000, Note_off_c, 1, 65, 37
3, 18000, Note_on_c, 1, 63, 64
3, 18060, Note_off_c, 1, 63, 53
3, 18060, Note_on_c, 1, 65, 64
3, 18120, Note_off_c, 1, 65, 45
3, 18120, Note_on_c, 1, 66, 64
3, 18180, Note_off_c, 1, 66, 74
3, 18180, Note_on_c, 1, 70, 64
3, 18240, Note_off_c, 1, 70, 73
3, 18240, Note_on_c, 1, 68, 64
3, 18300, Note_off_c, 1, 68, 80
3, 18300, Note_on_c, 1, 66, 64
3, 18360, Note_off_c, 1, 66, 76
3, 18360, Note_on_c, 1, 65, 64
3, 18420, Note_off_c, 1, 65, 48
3, 18420, Note_on_c, 1, 63, 64
3, 18480, Note_off_c, 1, 63, 49
3, 18480, Note_on_c, 1, 61, 64
3, 18540, Note_off_c, 1, 61, 37
3, 18540, Note_on_c, 1, 63, 64
3, 18600, Note_off_c, 1, 63, 31
3, 18600, Note_on_c, 1, 65, 64
3, 18660, Note_off_c, 1, 65, 73
3, 18660, Note_on_c, 1, 68, 64
3, 18720, Note_off_c, 1, 68, 52
3, 18720, Note_on_c, 1, 66, 64
3, 18780, Note_off_c, 1, 66, 68
3, 18780, Note_on_c, 1, 65, 64
3, 18840, Note_off_c, 1, 65, 46
3, 18840, Note_on_c, 1, 63, 64
3, 18900, Note_off_c, 1, 63, 58
3, 18900, Note_on_c, 1, 61, 64
3, 18960, Note_off_c, 1, 61, 63
3, 18960, Note_on_c, 1, 60, 64
3, 19020, Note_off_c, 1, 60, 43
3, 19020, Note_on_c, 1, 61, 64
3, 19080, Note_off_c, 1, 61, 59
3, 19080, Note_on_c, 1, 63, 64
3, 19140, Note_off_c, 1, 63, 50
3, 19140, Note_on_c, 1, 66, 64
3, 19200, Note_off_c, 1, 66, 65
3, 19200, Note_on_c, 1, 65, 64
3, 19440, Note_off_c, 1, 65, 69
3, 19440, Note_on_c, 1, 65, 64
3, 19560, Note_off_c, 1, 65, 79
3, 19560, Note_on_c, 1, 70, 64
3, 19680, Note_off_c, 1, 70, 52
3, 19680, Note_on_c, 1, 67, 64
3, 19800, Note_off_c, 1, 67, 44
3, 19800, Note_on_c, 1, 63, 64
3, 20040, Note_off_c, 1, 63, 20
3, 20040, Note_on_c, 1, 68, 64
3, 20160, Note_off_c, 1, 68, 57
3, 20160, Note_on_c, 1, 65, 64
3, 20280, Note_off_c, 1, 65, 52
3, 20280, Note_on_c, 1, 62, 64
3, 20400, Note_off_c, 1, 62, 33
3, 20520, Note_on_c, 1, 67, 64
3, 20640, Note_off_c, 1, 67, 54
3, 20640, Note_on_c, 1, 68, 64
3, 20700, Note_off_c, 1, 68, 72
3, 20700, Note_on_c, 1, 70, 64
3, 20760, Note_off_c, 1, 70, 72
3, 20760, Note_on_c, 1, 72, 64
3, 20820, Note_off_c, 1, 72, 74
3, 20820, Note_on_c, 1, 70, 64
3, 20880, Note_off_c, 1, 70, 74
3, 20880, Note_on_c, 1, 68, 64
3, 20940, Note_off_c, 1, 68, 73
3, 20940, Note_on_c, 1, 67, 64
3, 21000, Note_off_c, 1, 67, 48
3, 21000, Note_on_c, 1, 65, 64
3, 21060, Note_off_c, 1, 65, 50
3, 21060, Note_on_c, 1, 68, 64
3, 21120, Note_off_c, 1, 68, 70
3, 21120, Note_on_c, 1, 67, 64
3, 21180, Note_off_c, 1, 67, 43
3, 21180, Note_on_c, 1, 68, 64
3, 21240, Note_off_c, 1, 68, 68
3, 21240, Note_on_c, 1, 70, 64
3, 21300, Note_off_c, 1, 70, 65
3, 21300, Note_on_c, 1, 67, 64
3, 21360, Note_off_c, 1, 67, 43
3, 21360, Note_on_c, 1, 63, 64
3, 21480, Note_off_c, 1, 63, 29
3, 21480, Note_on_c, 1, 70, 64
3, 21600, Note_off_c, 1, 70, 73
3, 21600, Note_on_c, 1, 67, 64
3, 21720, Note_off_c, 1, 67, 52
3, 21720, Note_on_c, 1, 63, 64
3, 21840, Note_off_c, 1, 63, 32
3, 21840, Note_on_c, 1, 73, 64
3, 21960, Note_off_c, 1, 73, 70
3, 21960, Note_on_c, 1, 70, 64
3, 22080, Note_off_c, 1, 70, 68
3, 22080, Note_on_c, 1, 72, 64
3, 22320, Note_off_c, 1, 72, 63
3, 22800, Note_on_c, 1, 72, 64
3, 22920, Note_off_c, 1, 72, 74
3, 22920, Note_on_c, 1, 75, 64
3, 23160, Note_off_c, 1, 75, 61
3, 23160, Note_on_c, 1, 68, 64
3, 23280, Note_off_c, 1, 68, 62
3, 23280, Note_on_c, 1, 70, 64
3, 23400, Note_off_c, 1, 70, 65
3, 23400, Note_on_c, 1, 73, 64
3, 23640, Note_off_c, 1, 73, 52
3, 23640, Note_on_c, 1, 67, 64
3, 23760, Note_off_c, 1, 67, 18
3, 23760, Note_on_c, 1, 69, 64
3, 23880, Note_off_c, 1, 69, 59
3, 23880, Note_on_c, 1, 72, 64
3, 24120, Note_off_c, 1, 72, 72
3, 24120, Note_on_c, 1, 65, 64
3, 24240, Note_off_c, 1, 65, 34
3, 24240, Note_on_c, 1, 70, 64
3, 24720, Note_off_c, 1, 70, 62
3, 24720, Note_on_c, 1, 68, 64
3, 25020, Note_off_c, 1, 68, 68
3, 25020, Note_on_c, 1, 67, 64
3, 25080, Note_off_c, 1, 67, 46
3, 25080, Note_on_c, 1, 68, 64
3, 25140, Note_off_c, 1, 68, 70
3, 25140, Note_on_c, 1, 70, 64
3, 25200, Note_off_c, 1, 70, 66
3, 25200, Note_on_c, 1, 72, 64
3, 25500, Note_off_c, 1, 72, 73
3, 25500, Note_on_c, 1, 73, 64
3, 25560, Note_off_c, 1, 73, 65
3, 25560, Note_on_c, 1, 75, 64
3, 25620, Note_off_c, 1, 75, 46
3, 25620, Note_on_c, 1, 72, 64
3, 25680, Note_off_c, 1, 72, 73
3, 25680, Note_on_c, 1, 73, 64
3, 25980, Note_off_c, 1, 73, 66
3, 25980, Note_on_c, 1, 72, 64
3, 26040, Note_off_c, 1, 72, 79
3, 26040, Note_on_c, 1, 70, 64
3, 26100, Note_off_c, 1, 70, 57
3, 26100, Note_on_c, 1, 73, 64
3, 26160, Note_off_c, 1, 73, 47
3, 26160, Note_on_c, 1, 72, 64
3, 26460, Note_off_c, 1, 72, 72
3, 26460, Note_on_c, 1, 70, 64
3, 26520, Note_off_c, 1, 70, 68
3, 26520, Note_on_c, 1, 68, 64
3, 26580, Note_off_c, 1, 68, 65
3, 26580, Note_on_c, 1, 67, 64
3, 26640, Note_off_c, 1, 67, 46
3, 26640, Note_on_c, 1, 68, 64
3, 26810, Note_off_c, 1, 68, 52
3, 26823, Note_on_c, 1, 68, 64
3, 26883, Note_off_c, 1, 68, 70
3, 26883, Note_on_c, 1, 67, 64
3, 27003, Note_off_c, 1, 67, 47
3, 27123, Note_on_c, 1, 63, 64
3, 27243, Note_off_c, 1, 63, 23
3, 27243, Note_on_c, 1, 68, 64
3, 27363, Note_off_c, 1, 68, 73
3, 27363, Note_on_c, 1, 65, 64
3, 27483, Note_off_c, 1, 65, 62
3, 27483, Note_on_c, 1, 61, 64
3, 27603, Note_off_c, 1, 61, 18
3, 27603, Note_on_c, 1, 70, 64
3, 27723, Note_off_c, 1, 70, 69
3, 27723, Note_on_c, 1, 67, 64
3, 27843, Note_off_c, 1, 67, 46
3, 27843, Note_on_c, 1, 68, 64
3, 28083, Note_off_c, 1, 68, 73
3, 28683, Note_on_c, 1, 75, 64
3, 28923, Note_off_c, 1, 75, 49
3, 28923, Note_on_c, 1, 73, 64
3, 29043, Note_off_c, 1, 73, 73
3, 29163, Note_on_c, 1, 77, 64
3, 29403, Note_off_c, 1, 77, 72
3, 29403, Note_on_c, 1, 75, 64
3, 29523, Note_off_c, 1, 75, 53
3, 29763, Note_on_c, 1, 77, 64
3, 29883, Note_off_c, 1, 77, 73
3, 30123, Note_on_c, 1, 70, 64
3, 30243, Note_off_c, 1, 70, 53
3, 30243, Note_on_c, 1, 67, 64
3, 30363, Note_off_c, 1, 67, 42
3, 30363, Note_on_c, 1, 70, 64
3, 30483, Note_off_c, 1, 70, 73
3, 30603, Note_on_c, 1, 68, 64
3, 30723, Note_off_c, 1, 68, 63
3, 30723, Note_on_c, 1, 68, 64
3, 31083, Note_off_c, 1, 68, 68
3, 31083, Note_on_c, 1, 67, 64
3, 31203, Note_off_c, 1, 67, 57
3, 31203, Note_on_c, 1, 65, 64
3, 31443, Note_off_c, 1, 65, 37
3, 31563, Note_on_c, 1, 70, 64
3, 31683, Note_off_c, 1, 70, 65
3, 31683, Note_on_c, 1, 68, 64
3, 31803, Note_off_c, 1, 68, 58
3, 32043, Note_on_c, 1, 70, 64
3, 32163, Note_off_c, 1, 70, 77
3, 32163, Note_on_c, 1, 70, 64
3, 32283, Note_off_c, 1, 70, 72
3, 32523, Note_on_c, 1, 65, 64
3, 32643, Note_off_c, 1, 65, 32
3, 32703, Note_on_c, 1, 60, 64
3, 32763, Note_off_c, 1, 60, 42
3, 32763, Note_on_c, 1, 61, 64
3, 32823, Note_off_c, 1, 61, 59
3, 32823, Note_on_c, 1, 65, 64
3, 32883, Note_off_c, 1, 65, 57
3, 32883, Note_on_c, 1, 63, 64
3, 32943, Note_off_c, 1, 63, 58
3, 32943, Note_on_c, 1, 61, 64
3, 33003, Note_off_c, 1, 61, 63
3, 33003, Note_on_c, 1, 60, 64
3, 33063, Note_off_c, 1, 60, 46
3, 33063, Note_on_c, 1, 61, 64
3, 33123, Note_off_c, 1, 61, 61
3, 33123, Note_on_c, 1, 60, 64
3, 33603, Note_off_c, 1, 60, 63
3, 33603, End_track
4, 0, Start_track
4, 0, Text_t, "LH H"
4, 240, Note_on_c, 2, 56, 64
4, 360, Note_off_c, 2, 56, 48
4, 360, Note_on_c, 2, 63, 64
4, 480, Note_off_c, 2, 63, 37
4, 480, Note_on_c, 2, 60, 64
4, 600, Note_off_c, 2, 60, 63
4, 600, Note_on_c, 2, 56, 64
4, 720, Note_off_c, 2, 56, 55
4, 720, Note_on_c, 2, 65, 64
4, 840, Note_off_c, 2, 65, 2
4, 840, Note_on_c, 2, 61, 64
4, 960, Note_off_c, 2, 61, 62
4, 960, Note_on_c, 2, 63, 64
4, 1260, Note_off_c, 2, 63, 51
4, 1260, Note_on_c, 2, 61, 64
4, 1320, Note_off_c, 2, 61, 59
4, 1320, Note_on_c, 2, 60, 64
4, 1380, Note_off_c, 2, 60, 47
4, 1380, Note_on_c, 2, 61, 64
4, 1440, Note_off_c, 2, 61, 59
4, 1440, Note_on_c, 2, 63, 64
4, 1500, Note_off_c, 2, 63, 49
4, 1500, Note_on_c, 2, 65, 64
4, 1560, Note_off_c, 2, 65, 54
4, 1560, Note_on_c, 2, 67, 64
4, 1620, Note_off_c, 2, 67, 54
4, 1620, Note_on_c, 2, 63, 64
4, 1680, Note_off_c, 2, 63, 62
4, 1680, Note_on_c, 2, 68, 64
4, 1740, Note_off_c, 2, 68, 79
4, 1740, Note_on_c, 2, 70, 64
4, 1800, Note_off_c, 2, 70, 73
4, 1800, Note_on_c, 2, 72, 64
4, 1860, Note_off_c, 2, 72, 63
4, 1860, Note_on_c, 2, 70, 64
4, 1920, Note_off_c, 2, 70, 76
4, 1920, Note_on_c, 2, 68, 64
4, 1980, Note_off_c, 2, 68, 72
4, 1980, Note_on_c, 2, 67, 64
4, 2040, Note_off_c, 2, 67, 52
4, 2040, Note_on_c, 2, 65, 64
4, 2100, Note_off_c, 2, 65, 40
4, 2100, Note_on_c, 2, 68, 64
4, 2160, Note_off_c, 2, 68, 74
4, 2160, Note_on_c, 2, 67, 64
4, 2640, Note_off_c, 2, 67, 51
4, 2640, Note_on_c, 2, 65, 64
4, 2940, Note_off_c, 2, 65, 58
4, 2940, Note_on_c, 2, 63, 64
4, 3000, Note_off_c, 2, 63, 46
4, 3000, Note_on_c, 2, 62, 64
4, 3060, Note_off_c, 2, 62, 25
4, 3060, Note_on_c, 2, 65, 64
4, 3120, Note_off_c, 2, 65, 57
4, 3120, Note_on_c, 2, 63, 64
4, 3480, Note_off_c, 2, 63, 55
4, 3480, Note_on_c, 2, 61, 64
4, 3540, Note_off_c, 2, 61, 53
4, 3540, Note_on_c, 2, 60, 64
4, 3600, Note_off_c, 2, 60, 23
4, 3600, Note_on_c, 2, 61, 64
4, 3660, Note_off_c, 2, 61, 68
4, 3660, Note_on_c, 2, 65, 64
4, 3720, Note_off_c, 2, 65, 38
4, 3720, Note_on_c, 2, 70, 64
4, 3780, Note_off_c, 2, 70, 65
4, 3780, Note_on_c, 2, 68, 64
4, 3840, Note_off_c, 2, 68, 70
4, 3840, Note_on_c, 2, 67, 64
4, 3900, Note_off_c, 2, 67, 46
4, 3900, Note_on_c, 2, 65, 64
4, 3960, Note_off_c, 2, 65, 34
4, 3960, Note_on_c, 2, 63, 64
4, 4020, Note_off_c, 2, 63, 52
4, 4020, Note_on_c, 2, 61, 64
4, 4080, Note_off_c, 2, 61, 58
4, 4080, Note_on_c, 2, 60, 64
4, 4140, Note_off_c, 2, 60, 66
4, 4140, Note_on_c, 2, 58, 64
4, 4200, Note_off_c, 2, 58, 61
4, 4200, Note_on_c, 2, 60, 64
4, 4260, Note_off_c, 2, 60, 53
4, 4260, Note_on_c, 2, 61, 64
4, 4320, Note_off_c, 2, 61, 62
4, 4320, Note_on_c, 2, 63, 64
4, 4560, Note_off_c, 2, 63, 51
4, 4560, Note_on_c, 2, 56, 64
4, 4800, Note_off_c, 2, 56, 55
4, 4800, Note_on_c, 2, 55, 64
4, 5040, Note_off_c, 2, 55, 47
4, 5040, Note_on_c, 2, 56, 64
4, 5100, Note_off_c, 2, 56, 63
4, 5100, Note_on_c, 2, 58, 64
4, 5160, Note_off_c, 2, 58, 66
4, 5160, Note_on_c, 2, 60, 64
4, 5280, Note_off_c, 2, 60, 66
4, 5280, Note_on_c, 2, 58, 64
4, 5460, Note_off_c, 2, 58, 66
4, 5460, Note_on_c, 2, 58, 64
4, 5520, Note_off_c, 2, 58, 61
4, 5520, Note_on_c, 2, 56, 64
4, 5640, Note_off_c, 2, 56, 63
4, 5640, Note_on_c, 2, 60, 64
4, 5760, Note_off_c, 2, 60, 50
4, 5760, Note_on_c, 2, 53, 64
4, 5880, Note_off_c, 2, 53, 46
4, 8880, Note_on_c, 2, 56, 64
4, 9000, Note_off_c, 2, 56, 58
4, 9000, Note_on_c, 2, 63, 64
4, 9120, Note_off_c, 2, 63, 55
4, 9120, Note_on_c, 2, 60, 64
4, 9240, Note_off_c, 2, 60, 62
4, 9240, Note_on_c, 2, 56, 64
4, 9360, Note_off_c, 2, 56, 34
4, 9360, Note_on_c, 2, 65, 64
4, 9480, Note_off_c, 2, 65, 13
4, 9480, Note_on_c, 2, 61, 64
4, 9600, Note_off_c, 2, 61, 70
4, 9600, Note_on_c, 2, 63, 64
4, 9840, Note_off_c, 2, 63, 59
4, 9840, Note_on_c, 2, 63, 64
4, 10320, Note_off_c, 2, 63, 55
4, 10320, Note_on_c, 2, 61, 64
4, 10800, Note_off_c, 2, 61, 72
4, 10800, Note_on_c, 2, 60, 64
4, 11280, Note_off_c, 2, 60, 69
4, 11280, Note_on_c, 2, 58, 64
4, 11760, Note_off_c, 2, 58, 69
4, 11760, Note_on_c, 2, 56, 64
4, 11880, Note_off_c, 2, 56, 68
4, 11880, Note_on_c, 2, 55, 64
4, 12060, Note_off_c, 2, 55, 63
4, 12060, Note_on_c, 2, 58, 64
4, 12120, Note_off_c, 2, 58, 57
4, 12120, Note_on_c, 2, 56, 64
4, 12180, Note_off_c, 2, 56, 54
4, 12180, Note_on_c, 2, 55, 64
4, 12240, Note_off_c, 2, 55, 50
4, 12240, Note_on_c, 2, 53, 64
4, 12300, Note_off_c, 2, 53, 48
4, 12300, Note_on_c, 2, 52, 64
4, 12360, Note_off_c, 2, 52, 53
4, 12360, Note_on_c, 2, 53, 64
4, 12420, Note_off_c, 2, 53, 50
4, 12420, Note_on_c, 2, 55, 64
4, 12480, Note_off_c, 2, 55, 68
4, 12480, Note_on_c, 2, 56, 64
4, 12540, Note_off_c, 2, 56, 62
4, 12540, Note_on_c, 2, 58, 64
4, 12600, Note_off_c, 2, 58, 66
4, 12600, Note_on_c, 2, 56, 64
4, 12660, Note_off_c, 2, 56, 59
4, 12660, Note_on_c, 2, 55, 64
4, 12720, Note_off_c, 2, 55, 70
4, 12720, Note_on_c, 2, 53, 64
4, 12840, Note_off_c, 2, 53, 44
4, 15600, Note_on_c, 2, 58, 64
4, 15720, Note_off_c, 2, 58, 62
4, 15720, Note_on_c, 2, 65, 64
4, 15840, Note_off_c, 2, 65, 8
4, 15840, Note_on_c, 2, 61, 64
4, 15960, Note_off_c, 2, 61, 70
4, 15960, Note_on_c, 2, 58, 64
4, 16080, Note_off_c, 2, 58, 58
4, 16080, Note_on_c, 2, 66, 64
4, 16200, Note_off_c, 2, 66, 52
4, 16200, Note_on_c, 2, 63, 64
4, 16320, Note_off_c, 2, 63, 50
4, 16320, Note_on_c, 2, 65, 64
4, 16560, Note_off_c, 2, 65, 61
4, 16560, Note_on_c, 2, 58, 64
4, 17040, Note_off_c, 2, 58, 66
4, 17040, Note_on_c, 2, 57, 64
4, 17100, Note_off_c, 2, 57, 58
4, 17100, Note_on_c, 2, 58, 64
4, 17160, Note_off_c, 2, 58, 65
4, 17160, Note_on_c, 2, 60, 64
4, 17220, Note_off_c, 2, 60, 63
4, 17220, Note_on_c, 2, 57, 64
4, 17280, Note_off_c, 2, 57, 47
4, 17280, Note_on_c, 2, 53, 64
4, 17400, Note_off_c, 2, 53, 36
4, 17400, Note_on_c, 2, 58, 64
4, 17460, Note_off_c, 2, 58, 65
4, 17460, Note_on_c, 2, 60, 64
4, 17520, Note_off_c, 2, 60, 63
4, 17520, Note_on_c, 2, 61, 64
4, 18000, Note_off_c, 2, 61, 74
4, 18000, Note_on_c, 2, 60, 64
4, 18480, Note_off_c, 2, 60, 66
4, 18480, Note_on_c, 2, 58, 64
4, 18960, Note_off_c, 2, 58, 57
4, 18960, Note_on_c, 2, 57, 64
4, 19200, Note_off_c, 2, 57, 63
4, 19200, Note_on_c, 2, 58, 64
4, 19260, Note_off_c, 2, 58, 63
4, 19260, Note_on_c, 2, 63, 64
4, 19320, Note_off_c, 2, 63, 53
4, 19320, Note_on_c, 2, 61, 64
4, 19380, Note_off_c, 2, 61, 61
4, 19380, Note_on_c, 2, 60, 64
4, 19440, Note_off_c, 2, 60, 59
4, 19440, Note_on_c, 2, 58, 64
4, 19500, Note_off_c, 2, 58, 62
4, 19500, Note_on_c, 2, 56, 64
4, 19560, Note_off_c, 2, 56, 59
4, 19560, Note_on_c, 2, 55, 64
4, 19620, Note_off_c, 2, 55, 62
4, 19620, Note_on_c, 2, 53, 64
4, 19680, Note_off_c, 2, 53, 55
4, 19680, Note_on_c, 2, 51, 64
4, 19740, Note_off_c, 2, 51, 48
4, 19740, Note_on_c, 2, 61, 64
4, 19800, Note_off_c, 2, 61, 34
4, 19800, Note_on_c, 2, 60, 64
4, 19860, Note_off_c, 2, 60, 59
4, 19860, Note_on_c, 2, 58, 64
4, 19920, Note_off_c, 2, 58, 55
4, 19920, Note_on_c, 2, 56, 64
4, 19980, Note_off_c, 2, 56, 50
4, 19980, Note_on_c, 2, 55, 64
4, 20040, Note_off_c, 2, 55, 46
4, 20040, Note_on_c, 2, 53, 64
4, 20100, Note_off_c, 2, 53, 51
4, 20100, Note_on_c, 2, 55, 64
4, 20160, Note_off_c, 2, 55, 50
4, 20160, Note_on_c, 2, 56, 64
4, 20220, Note_off_c, 2, 56, 53
4, 20220, Note_on_c, 2, 60, 64
4, 20280, Note_off_c, 2, 60, 52
4, 20280, Note_on_c, 2, 58, 64
4, 20340, Note_off_c, 2, 58, 59
4, 20340, Note_on_c, 2, 56, 64
4, 20400, Note_off_c, 2, 56, 62
4, 20400, Note_on_c, 2, 55, 64
4, 20460, Note_off_c, 2, 55, 59
4, 20460, Note_on_c, 2, 53, 64
4, 20520, Note_off_c, 2, 53, 55
4, 20520, Note_on_c, 2, 51, 64
4, 20580, Note_off_c, 2, 51, 53
4, 20580, Note_on_c, 2, 49, 64
4, 20640, Note_off_c, 2, 49, 54
4, 20640, Note_on_c, 2, 48, 64
4, 20760, Note_off_c, 2, 48, 20
4, 20760, Note_on_c, 2, 56, 64
4, 20880, Note_off_c, 2, 56, 54
4, 20880, Note_on_c, 2, 58, 64
4, 21000, Note_off_c, 2, 58, 51
4, 21000, Note_on_c, 2, 46, 64
4, 21120, Note_off_c, 2, 46, 25
4, 21120, Note_on_c, 2, 51, 64
4, 21360, Note_off_c, 2, 51, 63
4, 21420, Note_on_c, 2, 53, 64
4, 21480, Note_off_c, 2, 53, 34
4, 21480, Note_on_c, 2, 55, 64
4, 21540, Note_off_c, 2, 55, 57
4, 21540, Note_on_c, 2, 56, 64
4, 21600, Note_off_c, 2, 56, 48
4, 21600, Note_on_c, 2, 58, 64
4, 21660, Note_off_c, 2, 58, 76
4, 21660, Note_on_c, 2, 60, 64
4, 21720, Note_off_c, 2, 60, 51
4, 21720, Note_on_c, 2, 61, 64
4, 21780, Note_off_c, 2, 61, 62
4, 21780, Note_on_c, 2, 60, 64
4, 21840, Note_off_c, 2, 60, 70
4, 21840, Note_on_c, 2, 58, 64
4, 21900, Note_off_c, 2, 58, 66
4, 21900, Note_on_c, 2, 56, 64
4, 21960, Note_off_c, 2, 56, 54
4, 21960, Note_on_c, 2, 55, 64
4, 22020, Note_off_c, 2, 55, 57
4, 22020, Note_on_c, 2, 58, 64
4, 22080, Note_off_c, 2, 58, 61
4, 22080, Note_on_c, 2, 56, 64
4, 22140, Note_off_c, 2, 56, 52
4, 22140, Note_on_c, 2, 51, 64
4, 22200, Note_off_c, 2, 51, 57
4, 22200, Note_on_c, 2, 53, 64
4, 22260, Note_off_c, 2, 53, 43
4, 22260, Note_on_c, 2, 55, 64
4, 22320, Note_off_c, 2, 55, 49
4, 22320, Note_on_c, 2, 56, 64
4, 22380, Note_off_c, 2, 56, 57
4, 22380, Note_on_c, 2, 58, 64
4, 22440, Note_off_c, 2, 58, 65
4, 22440, Note_on_c, 2, 60, 64
4, 22500, Note_off_c, 2, 60, 52
4, 22500, Note_on_c, 2, 61, 64
4, 22560, Note_off_c, 2, 61, 65
4, 22560, Note_on_c, 2, 63, 64
4, 22620, Note_off_c, 2, 63, 62
4, 22620, Note_on_c, 2, 65, 64
4, 22680, Note_off_c, 2, 65, 62
4, 22680, Note_on_c, 2, 66, 64
4, 22740, Note_off_c, 2, 66, 66
4, 22740, Note_on_c, 2, 65, 64
4, 22800, Note_off_c, 2, 65, 58
4, 22800, Note_on_c, 2, 63, 64
4, 22860, Note_off_c, 2, 63, 57
4, 22860, Note_on_c, 2, 61, 64
4, 22920, Note_off_c, 2, 61, 65
4, 22920, Note_on_c, 2, 60, 64
4, 22980, Note_off_c, 2, 60, 46
4, 22980, Note_on_c, 2, 63, 64
4, 23040, Note_off_c, 2, 63, 55
4, 23040, Note_on_c, 2, 61, 64
4, 23100, Note_off_c, 2, 61, 63
4, 23100, Note_on_c, 2, 63, 64
4, 23160, Note_off_c, 2, 63, 59
4, 23160, Note_on_c, 2, 65, 64
4, 23220, Note_off_c, 2, 65, 61
4, 23220, Note_on_c, 2, 63, 64
4, 23280, Note_off_c, 2, 63, 58
4, 23280, Note_on_c, 2, 61, 64
4, 23340, Note_off_c, 2, 61, 70
4, 23340, Note_on_c, 2, 60, 64
4, 23400, Note_off_c, 2, 60, 62
4, 23400, Note_on_c, 2, 58, 64
4, 23460, Note_off_c, 2, 58, 73
4, 23460, Note_on_c, 2, 61, 64
4, 23520, Note_off_c, 2, 61, 70
4, 23520, Note_on_c, 2, 60, 64
4, 23580, Note_off_c, 2, 60, 72
4, 23580, Note_on_c, 2, 61, 64
4, 23640, Note_off_c, 2, 61, 69
4, 23640, Note_on_c, 2, 63, 64
4, 23700, Note_off_c, 2, 63, 58
4, 23700, Note_on_c, 2, 61, 64
4, 23760, Note_off_c, 2, 61, 59
4, 23760, Note_on_c, 2, 60, 64
4, 23820, Note_off_c, 2, 60, 68
4, 23820, Note_on_c, 2, 58, 64
4, 23880, Note_off_c, 2, 58, 69
4, 23880, Note_on_c, 2, 57, 64
4, 23940, Note_off_c, 2, 57, 46
4, 23940, Note_on_c, 2, 60, 64
4, 24000, Note_off_c, 2, 60, 59
4, 24000, Note_on_c, 2, 58, 64
4, 24060, Note_off_c, 2, 58, 68
4, 24060, Note_on_c, 2, 60, 64
4, 24120, Note_off_c, 2, 60, 61
4, 24120, Note_on_c, 2, 61, 64
4, 24180, Note_off_c, 2, 61, 74
4, 24180, Note_on_c, 2, 60, 64
4, 24240, Note_off_c, 2, 60, 62
4, 24240, Note_on_c, 2, 58, 64
4, 24300, Note_off_c, 2, 58, 52
4, 24300, Note_on_c, 2, 56, 64
4, 24360, Note_off_c, 2, 56, 46
4, 24360, Note_on_c, 2, 55, 64
4, 24420, Note_off_c, 2, 55, 62
4, 24420, Note_on_c, 2, 58, 64
4, 24480, Note_off_c, 2, 58, 65
4, 24480, Note_on_c, 2, 56, 64
4, 24540, Note_off_c, 2, 56, 66
4, 24540, Note_on_c, 2, 58, 64
4, 24600, Note_off_c, 2, 58, 68
4, 24600, Note_on_c, 2, 56, 64
4, 24660, Note_off_c, 2, 56, 53
4, 24660, Note_on_c, 2, 55, 64
4, 24720, Note_off_c, 2, 55, 61
4, 24720, Note_on_c, 2, 53, 64
4, 24780, Note_off_c, 2, 53, 53
4, 24780, Note_on_c, 2, 51, 64
4, 24840, Note_off_c, 2, 51, 58
4, 24840, Note_on_c, 2, 53, 64
4, 24900, Note_off_c, 2, 53, 51
4, 24900, Note_on_c, 2, 49, 64
4, 24960, Note_off_c, 2, 49, 53
4, 24960, Note_on_c, 2, 51, 64
4, 25020, Note_off_c, 2, 51, 69
4, 25020, Note_on_c, 2, 49, 64
4, 25080, Note_off_c, 2, 49, 52
4, 25080, Note_on_c, 2, 48, 64
4, 25140, Note_off_c, 2, 48, 49
4, 25140, Note_on_c, 2, 46, 64
4, 25200, Note_off_c, 2, 46, 69
4, 25200, Note_on_c, 2, 44, 64
4, 25320, Note_off_c, 2, 44, 61
4, 26160, Note_on_c, 2, 55, 64
4, 26280, Note_off_c, 2, 55, 58
4, 26280, Note_on_c, 2, 60, 64
4, 26400, Note_off_c, 2, 60, 45
4, 26400, Note_on_c, 2, 56, 64
4, 26520, Note_off_c, 2, 56, 63
4, 26520, Note_on_c, 2, 53, 64
4, 26640, Note_off_c, 2, 53, 20
4, 26640, Note_on_c, 2, 62, 64
4, 26760, Note_off_c, 2, 62, 43
4, 26760, Note_on_c, 2, 59, 64
4, 26880, Note_off_c, 2, 59, 53
4, 26880, Note_on_c, 2, 60, 64
4, 26940, Note_off_c, 2, 60, 54
4, 26940, Note_on_c, 2, 51, 64
4, 27000, Note_off_c, 2, 51, 48
4, 27000, Note_on_c, 2, 53, 64
4, 27060, Note_off_c, 2, 53, 52
4, 27060, Note_on_c, 2, 55, 64
4, 27120, Note_off_c, 2, 55, 66
4, 27120, Note_on_c, 2, 56, 64
4, 27180, Note_off_c, 2, 56, 52
4, 27180, Note_on_c, 2, 58, 64
4, 27240, Note_off_c, 2, 58, 65
4, 27240, Note_on_c, 2, 60, 64
4, 27300, Note_off_c, 2, 60, 61
4, 27300, Note_on_c, 2, 58, 64
4, 27360, Note_off_c, 2, 58, 66
4, 27360, Note_on_c, 2, 56, 64
4, 27420, Note_off_c, 2, 56, 61
4, 27420, Note_on_c, 2, 55, 64
4, 27480, Note_off_c, 2, 55, 63
4, 27480, Note_on_c, 2, 53, 64
4, 27540, Note_off_c, 2, 53, 53
4, 27540, Note_on_c, 2, 55, 64
4, 27600, Note_off_c, 2, 55, 57
4, 27600, Note_on_c, 2, 56, 64
4, 27660, Note_off_c, 2, 56, 62
4, 27660, Note_on_c, 2, 55, 64
4, 27720, Note_off_c, 2, 55, 54
4, 27720, Note_on_c, 2, 53, 64
4, 27780, Note_off_c, 2, 53, 55
4, 27780, Note_on_c, 2, 51, 64
4, 27840, Note_off_c, 2, 51, 51
4, 27840, Note_on_c, 2, 53, 64
4, 27900, Note_off_c, 2, 53, 52
4, 27900, Note_on_c, 2, 51, 64
4, 27960, Note_off_c, 2, 51, 49
4, 27960, Note_on_c, 2, 49, 64
4, 28020, Note_off_c, 2, 49, 66
4, 28020, Note_on_c, 2, 53, 64
4, 28080, Note_off_c, 2, 53, 55
4, 28080, Note_on_c, 2, 51, 64
4, 28200, Note_off_c, 2, 51, 59
4, 28680, Note_on_c, 2, 72, 64
4, 28800, Note_off_c, 2, 72, 76
4, 28800, Note_on_c, 2, 68, 64
4, 29040, Note_off_c, 2, 68, 70
4, 29160, Note_on_c, 2, 74, 64
4, 29280, Note_off_c, 2, 74, 61
4, 29280, Note_on_c, 2, 70, 64
4, 29520, Note_off_c, 2, 70, 69
4, 29640, Note_on_c, 2, 76, 64
4, 29760, Note_off_c, 2, 76, 34
4, 29760, Note_on_c, 2, 72, 64
4, 29880, Note_off_c, 2, 72, 85
4, 30360, Note_on_c, 2, 67, 64
4, 30480, Note_off_c, 2, 67, 30
4, 30480, Note_on_c, 2, 68, 64
4, 30600, Note_off_c, 2, 68, 70
4, 30600, Note_on_c, 2, 65, 64
4, 30720, Note_off_c, 2, 65, 9
4, 30720, Note_on_c, 2, 63, 64
4, 30960, Note_off_c, 2, 63, 52
4, 30960, Note_on_c, 2, 61, 64
4, 31200, Note_off_c, 2, 61, 59
4, 31200, Note_on_c, 2, 60, 64
4, 31440, Note_off_c, 2, 60, 65
4, 31560, Note_on_c, 2, 63, 64
4, 31680, Note_off_c, 2, 63, 55
4, 31680, Note_on_c, 2, 63, 64
4, 31800, Note_off_c, 2, 63, 52
4, 32040, Note_on_c, 2, 65, 64
4, 32160, Note_off_c, 2, 65, 65
4, 32160, Note_on_c, 2, 63, 64
4, 32280, Note_off_c, 2, 63, 55
4, 32520, Note_on_c, 2, 58, 64
4, 32630, Note_off_c, 2, 58, 66
4, 32643, Note_on_c, 2, 58, 64
4, 32883, Note_off_c, 2, 58, 30
4, 32883, Note_on_c, 2, 51, 64
4, 33113, Note_off_c, 2, 51, 70
4, 33126, Note_on_c, 2, 51, 64
4, 33606, Note_off_c, 2, 51, 80
4, 33606, End_track
5, 0, Start_track
5, 0, Text_t, "LH L"
5, 1200, Note_on_c, 3, 51, 64
5, 1320, Note_off_c, 3, 51, 49
5, 1320, Note_on_c, 3, 56, 64
5, 1440, Note_off_c, 3, 56, 55
5, 1440, Note_on_c, 3, 55, 64
5, 1560, Note_off_c, 3, 55, 59
5, 1560, Note_on_c, 3, 51, 64
5, 1680, Note_off_c, 3, 51, 68
5, 1680, Note_on_c, 3, 60, 64
5, 1800, Note_off_c, 3, 60, 46
5, 1800, Note_on_c, 3, 56, 64
5, 1920, Note_off_c, 3, 56, 57
5, 1920, Note_on_c, 3, 58, 64
5, 2040, Note_off_c, 3, 58, 57
5, 2040, Note_on_c, 3, 51, 64
5, 2160, Note_off_c, 3, 51, 46
5, 2160, Note_on_c, 3, 58, 64
5, 2280, Note_off_c, 3, 58, 51
5, 2280, Note_on_c, 3, 55, 64
5, 2400, Note_off_c, 3, 55, 48
5, 2400, Note_on_c, 3, 56, 64
5, 2520, Note_off_c, 3, 56, 62
5, 2520, Note_on_c, 3, 51, 64
5, 2640, Note_off_c, 3, 51, 59
5, 2640, Note_on_c, 3, 56, 64
5, 2760, Note_off_c, 3, 56, 43
5, 2760, Note_on_c, 3, 53, 64
5, 2880, Note_off_c, 3, 53, 48
5, 2880, Note_on_c, 3, 55, 64
5, 3180, Note_off_c, 3, 55, 63
5, 3180, Note_on_c, 3, 48, 64
5, 3240, Note_off_c, 3, 48, 39
5, 3240, Note_on_c, 3, 49, 64
5, 3300, Note_off_c, 3, 49, 53
5, 3300, Note_on_c, 3, 51, 64
5, 3360, Note_off_c, 3, 51, 66
5, 3360, Note_on_c, 3, 53, 64
5, 3420, Note_off_c, 3, 53, 52
5, 3420, Note_on_c, 3, 55, 64
5, 3480, Note_off_c, 3, 55, 52
5, 3480, Note_on_c, 3, 56, 64
5, 3540, Note_off_c, 3, 56, 55
5, 3540, Note_on_c, 3, 53, 64
5, 3600, Note_off_c, 3, 53, 42
5, 3600, Note_on_c, 3, 58, 64
5, 3660, Note_off_c, 3, 58, 62
5, 3660, Note_on_c, 3, 60, 64
5, 3720, Note_off_c, 3, 60, 62
5, 3720, Note_on_c, 3, 61, 64
5, 3780, Note_off_c, 3, 61, 72
5, 3780, Note_on_c, 3, 60, 64
5, 3840, Note_off_c, 3, 60, 70
5, 3840, Note_on_c, 3, 58, 64
5, 3900, Note_off_c, 3, 58, 63
5, 3900, Note_on_c, 3, 56, 64
5, 3960, Note_off_c, 3, 56, 55
5, 3960, Note_on_c, 3, 55, 64
5, 4020, Note_off_c, 3, 55, 45
5, 4020, Note_on_c, 3, 58, 64
5, 4080, Note_off_c, 3, 58, 54
5, 4080, Note_on_c, 3, 56, 64
5, 4380, Note_off_c, 3, 56, 53
5, 4380, Note_on_c, 3, 44, 64
5, 4440, Note_off_c, 3, 44, 51
5, 4440, Note_on_c, 3, 46, 64
5, 4500, Note_off_c, 3, 46, 65
5, 4500, Note_on_c, 3, 48, 64
5, 4560, Note_off_c, 3, 48, 55
5, 4560, Note_on_c, 3, 49, 64
5, 4620, Note_off_c, 3, 49, 22
5, 4620, Note_on_c, 3, 51, 64
5, 4680, Note_off_c, 3, 51, 46
5, 4680, Note_on_c, 3, 53, 64
5, 4740, Note_off_c, 3, 53, 61
5, 4740, Note_on_c, 3, 51, 64
5, 4800, Note_off_c, 3, 51, 53
5, 4800, Note_on_c, 3, 49, 64
5, 4860, Note_off_c, 3, 49, 68
5, 4860, Note_on_c, 3, 48, 64
5, 4920, Note_off_c, 3, 48, 63
5, 4920, Note_on_c, 3, 46, 64
5, 4980, Note_off_c, 3, 46, 61
5, 4980, Note_on_c, 3, 49, 64
5, 5040, Note_off_c, 3, 49, 54
5, 5040, Note_on_c, 3, 48, 64
5, 5220, Note_off_c, 3, 48, 57
5, 5220, Note_on_c, 3, 50, 64
5, 5280, Note_off_c, 3, 50, 55
5, 5280, Note_on_c, 3, 51, 64
5, 5340, Note_off_c, 3, 51, 63
5, 5340, Note_on_c, 3, 53, 64
5, 5400, Note_off_c, 3, 53, 55
5, 5400, Note_on_c, 3, 55, 64
5, 5580, Note_off_c, 3, 55, 57
5, 5580, Note_on_c, 3, 55, 64
5, 5640, Note_off_c, 3, 55, 57
5, 5640, Note_on_c, 3, 53, 64
5, 5700, Note_off_c, 3, 53, 61
5, 5700, Note_on_c, 3, 51, 64
5, 5760, Note_off_c, 3, 51, 48
5, 5760, Note_on_c, 3, 50, 64
5, 5820, Note_off_c, 3, 50, 49
5, 5820, Note_on_c, 3, 46, 64
5, 5880, Note_off_c, 3, 46, 43
5, 5880, Note_on_c, 3, 48, 64
5, 5940, Note_off_c, 3, 48, 36
5, 5940, Note_on_c, 3, 50, 64
5, 6000, Note_off_c, 3, 50, 53
5, 6000, Note_on_c, 3, 51, 64
5, 6360, Note_off_c, 3, 51, 50
5, 6360, Note_on_c, 3, 56, 64
5, 6480, Note_off_c, 3, 56, 52
5, 6480, Note_on_c, 3, 49, 64
5, 6600, Note_off_c, 3, 49, 63
5, 6600, Note_on_c, 3, 58, 64
5, 6720, Note_off_c, 3, 58, 54
5, 6720, Note_on_c, 3, 51, 64
5, 7010, Note_off_c, 3, 51, 65
5, 7023, Note_on_c, 3, 51, 64
5, 7083, Note_off_c, 3, 51, 54
5, 7083, Note_on_c, 3, 53, 64
5, 7143, Note_off_c, 3, 53, 69
5, 7143, Note_on_c, 3, 55, 64
5, 7203, Note_off_c, 3, 55, 69
5, 7203, Note_on_c, 3, 56, 64
5, 7263, Note_off_c, 3, 56, 52
5, 7263, Note_on_c, 3, 58, 64
5, 7323, Note_off_c, 3, 58, 52
5, 7323, Note_on_c, 3, 60, 64
5, 7383, Note_off_c, 3, 60, 57
5, 7383, Note_on_c, 3, 58, 64
5, 7443, Note_off_c, 3, 58, 62
5, 7443, Note_on_c, 3, 56, 64
5, 7503, Note_off_c, 3, 56, 59
5, 7503, Note_on_c, 3, 55, 64
5, 7563, Note_off_c, 3, 55, 51
5, 7563, Note_on_c, 3, 53, 64
5, 7623, Note_off_c, 3, 53, 18
5, 7623, Note_on_c, 3, 56, 64
5, 7683, Note_off_c, 3, 56, 51
5, 7683, Note_on_c, 3, 55, 64
5, 7803, Note_off_c, 3, 55, 57
5, 7803, Note_on_c, 3, 51, 64
5, 7923, Note_off_c, 3, 51, 49
5, 7983, Note_on_c, 3, 44, 64
5, 8043, Note_off_c, 3, 44, 46
5, 8043, Note_on_c, 3, 46, 64
5, 8103, Note_off_c, 3, 46, 61
5, 8103, Note_on_c, 3, 48, 64
5, 8163, Note_off_c, 3, 48, 32
5, 8163, Note_on_c, 3, 49, 64
5, 8223, Note_off_c, 3, 49, 68
5, 8223, Note_on_c, 3, 51, 64
5, 8283, Note_off_c, 3, 51, 65
5, 8283, Note_on_c, 3, 53, 64
5, 8343, Note_off_c, 3, 53, 61
5, 8343, Note_on_c, 3, 51, 64
5, 8403, Note_off_c, 3, 51, 63
5, 8403, Note_on_c, 3, 49, 64
5, 8463, Note_off_c, 3, 49, 62
5, 8463, Note_on_c, 3, 48, 64
5, 8523, Note_off_c, 3, 48, 50
5, 8523, Note_on_c, 3, 46, 64
5, 8583, Note_off_c, 3, 46, 55
5, 8583, Note_on_c, 3, 49, 64
5, 8643, Note_off_c, 3, 49, 63
5, 8643, Note_on_c, 3, 48, 64
5, 8943, Note_off_c, 3, 48, 45
5, 8943, Note_on_c, 3, 49, 64
5, 9003, Note_off_c, 3, 49, 59
5, 9003, Note_on_c, 3, 51, 64
5, 9063, Note_off_c, 3, 51, 52
5, 9063, Note_on_c, 3, 48, 64
5, 9123, Note_off_c, 3, 48, 34
5, 9123, Note_on_c, 3, 53, 64
5, 9423, Note_off_c, 3, 53, 59
5, 9423, Note_on_c, 3, 51, 64
5, 9483, Note_off_c, 3, 51, 58
5, 9483, Note_on_c, 3, 53, 64
5, 9543, Note_off_c, 3, 53, 54
5, 9543, Note_on_c, 3, 49, 64
5, 9603, Note_off_c, 3, 49, 65
5, 9603, Note_on_c, 3, 56, 64
5, 9663, Note_off_c, 3, 56, 59
5, 9663, Note_on_c, 3, 55, 64
5, 9723, Note_off_c, 3, 55, 49
5, 9723, Note_on_c, 3, 56, 64
5, 9783, Note_off_c, 3, 56, 49
5, 9783, Note_on_c, 3, 58, 64
5, 9843, Note_off_c, 3, 58, 53
5, 9843, Note_on_c, 3, 60, 64
5, 9963, Note_off_c, 3, 60, 44
5, 9963, Note_on_c, 3, 55, 64
5, 10083, Note_off_c, 3, 55, 55
5, 10083, Note_on_c, 3, 56, 64
5, 10203, Note_off_c, 3, 56, 58
5, 10203, Note_on_c, 3, 53, 64
5, 10323, Note_off_c, 3, 53, 46
5, 10323, Note_on_c, 3, 58, 64
5, 10443, Note_off_c, 3, 58, 50
5, 10443, Note_on_c, 3, 53, 64
5, 10563, Note_off_c, 3, 53, 33
5, 10563, Note_on_c, 3, 55, 64
5, 10683, Note_off_c, 3, 55, 72
5, 10683, Note_on_c, 3, 51, 64
5, 10803, Note_off_c, 3, 51, 50
5, 10803, Note_on_c, 3, 56, 64
5, 10923, Note_off_c, 3, 56, 52
5, 10923, Note_on_c, 3, 51, 64
5, 11043, Note_off_c, 3, 51, 53
5, 11043, Note_on_c, 3, 53, 64
5, 11163, Note_off_c, 3, 53, 63
5, 11163, Note_on_c, 3, 50, 64
5, 11283, Note_off_c, 3, 50, 42
5, 11283, Note_on_c, 3, 55, 64
5, 11403, Note_off_c, 3, 55, 61
5, 11403, Note_on_c, 3, 50, 64
5, 11523, Note_off_c, 3, 50, 47
5, 11523, Note_on_c, 3, 52, 64
5, 11643, Note_off_c, 3, 52, 68
5, 11643, Note_on_c, 3, 48, 64
5, 11763, Note_off_c, 3, 48, 23
5, 11763, Note_on_c, 3, 50, 64
5, 11883, Note_off_c, 3, 50, 48
5, 11883, Note_on_c, 3, 52, 64
5, 12003, Note_off_c, 3, 52, 63
5, 12003, Note_on_c, 3, 53, 64
5, 12243, Note_off_c, 3, 53, 63
5, 12243, Note_on_c, 3, 46, 64
5, 12483, Note_off_c, 3, 46, 50
5, 12483, Note_on_c, 3, 53, 64
5, 12723, Note_off_c, 3, 53, 49
5, 12783, Note_on_c, 3, 41, 64
5, 12843, Note_off_c, 3, 41, 43
5, 12843, Note_on_c, 3, 43, 64
5, 12903, Note_off_c, 3, 43, 47
5, 12903, Note_on_c, 3, 44, 64
5, 12963, Note_off_c, 3, 44, 66
5, 12963, Note_on_c, 3, 46, 64
5, 13023, Note_off_c, 3, 46, 66
5, 13023, Note_on_c, 3, 44, 64
5, 13083, Note_off_c, 3, 44, 58
5, 13083, Note_on_c, 3, 43, 64
5, 13143, Note_off_c, 3, 43, 43
5, 13143, Note_on_c, 3, 41, 64
5, 13203, Note_off_c, 3, 41, 21
5, 13203, Note_on_c, 3, 39, 64
5, 13263, Note_off_c, 3, 39, 53
5, 13263, Note_on_c, 3, 41, 64
5, 13323, Note_off_c, 3, 41, 37
5, 13323, Note_on_c, 3, 43, 64
5, 13383, Note_off_c, 3, 43, 48
5, 13383, Note_on_c, 3, 46, 64
5, 13443, Note_off_c, 3, 46, 55
5, 13443, Note_on_c, 3, 44, 64
5, 13503, Note_off_c, 3, 44, 61
5, 13503, Note_on_c, 3, 43, 64
5, 13563, Note_off_c, 3, 43, 52
5, 13563, Note_on_c, 3, 41, 64
5, 13623, Note_off_c, 3, 41, 40
5, 13623, Note_on_c, 3, 39, 64
5, 13683, Note_off_c, 3, 39, 52
5, 13683, Note_on_c, 3, 37, 64
5, 13743, Note_off_c, 3, 37, 52
5, 13743, Note_on_c, 3, 39, 64
5, 13803, Note_off_c, 3, 39, 52
5, 13803, Note_on_c, 3, 41, 64
5, 13863, Note_off_c, 3, 41, 66
5, 13863, Note_on_c, 3, 44, 64
5, 13923, Note_off_c, 3, 44, 65
5, 13923, Note_on_c, 3, 43, 64
5, 14043, Note_off_c, 3, 43, 52
5, 14043, Note_on_c, 3, 46, 64
5, 14163, Note_off_c, 3, 46, 58
5, 14163, Note_on_c, 3, 48, 64
5, 14283, Note_off_c, 3, 48, 70
5, 14283, Note_on_c, 3, 36, 64
5, 14403, Note_off_c, 3, 36, 29
5, 14403, Note_on_c, 3, 41, 64
5, 14463, Note_off_c, 3, 41, 37
5, 14463, Note_on_c, 3, 48, 64
5, 14523, Note_off_c, 3, 48, 42
5, 14523, Note_on_c, 3, 50, 64
5, 14583, Note_off_c, 3, 50, 63
5, 14583, Note_on_c, 3, 52, 64
5, 14643, Note_off_c, 3, 52, 57
5, 14643, Note_on_c, 3, 53, 64
5, 15003, Note_off_c, 3, 53, 59
5, 15003, Note_on_c, 3, 58, 64
5, 15123, Note_off_c, 3, 58, 59
5, 15123, Note_on_c, 3, 52, 64
5, 15243, Note_off_c, 3, 52, 47
5, 15243, Note_on_c, 3, 60, 64
5, 15363, Note_off_c, 3, 60, 59
5, 15363, Note_on_c, 3, 51, 64
5, 15483, Note_off_c, 3, 51, 55
5, 15483, Note_on_c, 3, 57, 64
5, 15603, Note_off_c, 3, 57, 52
5, 15603, Note_on_c, 3, 49, 64
5, 15843, Note_off_c, 3, 49, 61
5, 15843, Note_on_c, 3, 54, 64
5, 16083, Note_off_c, 3, 54, 51
5, 16203, Note_on_c, 3, 54, 64
5, 16263, Note_off_c, 3, 54, 65
5, 16263, Note_on_c, 3, 53, 64
5, 16323, Note_off_c, 3, 53, 55
5, 16323, Note_on_c, 3, 51, 64
5, 16383, Note_off_c, 3, 51, 50
5, 16383, Note_on_c, 3, 54, 64
5, 16443, Note_off_c, 3, 54, 55
5, 16443, Note_on_c, 3, 53, 64
5, 16503, Note_off_c, 3, 53, 65
5, 16503, Note_on_c, 3, 51, 64
5, 16563, Note_off_c, 3, 51, 55
5, 16563, Note_on_c, 3, 49, 64
5, 16623, Note_off_c, 3, 49, 49
5, 16623, Note_on_c, 3, 48, 64
5, 16683, Note_off_c, 3, 48, 29
5, 16683, Note_on_c, 3, 46, 64
5, 16743, Note_off_c, 3, 46, 52
5, 16743, Note_on_c, 3, 49, 64
5, 16803, Note_off_c, 3, 49, 68
5, 16803, Note_on_c, 3, 51, 64
5, 16863, Note_off_c, 3, 51, 30
5, 16863, Note_on_c, 3, 53, 64
5, 16923, Note_off_c, 3, 53, 58
5, 16923, Note_on_c, 3, 54, 64
5, 16983, Note_off_c, 3, 54, 46
5, 16983, Note_on_c, 3, 51, 64
5, 17043, Note_off_c, 3, 51, 52
5, 17043, Note_on_c, 3, 53, 64
5, 17283, Note_off_c, 3, 53, 65
5, 17283, Note_on_c, 3, 46, 64
5, 17523, Note_off_c, 3, 46, 55
5, 25323, Note_on_c, 3, 51, 64
5, 25443, Note_off_c, 3, 51, 54
5, 25443, Note_on_c, 3, 48, 64
5, 25563, Note_off_c, 3, 48, 49
5, 25563, Note_on_c, 3, 44, 64
5, 25683, Note_off_c, 3, 44, 31
5, 25683, Note_on_c, 3, 53, 64
5, 25803, Note_off_c, 3, 53, 49
5, 25803, Note_on_c, 3, 49, 64
5, 25923, Note_off_c, 3, 49, 52
5, 25923, Note_on_c, 3, 51, 64
5, 26163, Note_off_c, 3, 51, 43
5, 26163, Note_on_c, 3, 52, 64
5, 26223, Note_off_c, 3, 52, 59
5, 26223, Note_on_c, 3, 58, 64
5, 26283, Note_off_c, 3, 58, 55
5, 26283, Note_on_c, 3, 56, 64
5, 26343, Note_off_c, 3, 56, 55
5, 26343, Note_on_c, 3, 55, 64
5, 26403, Note_off_c, 3, 55, 53
5, 26403, Note_on_c, 3, 53, 64
5, 26883, Note_off_c, 3, 53, 46
5, 26883, Note_on_c, 3, 48, 64
5, 27363, Note_off_c, 3, 48, 34
5, 27363, Note_on_c, 3, 49, 64
5, 27843, Note_off_c, 3, 49, 53
5, 27843, Note_on_c, 3, 44, 64
5, 28143, Note_off_c, 3, 44, 43
5, 28143, Note_on_c, 3, 41, 64
5, 28203, Note_off_c, 3, 41, 38
5, 28203, Note_on_c, 3, 43, 64
5, 28263, Note_off_c, 3, 43, 41
5, 28263, Note_on_c, 3, 44, 64
5, 28323, Note_off_c, 3, 44, 54
5, 28323, Note_on_c, 3, 46, 64
5, 28383, Note_off_c, 3, 46, 74
5, 28383, Note_on_c, 3, 48, 64
5, 28443, Note_off_c, 3, 48, 46
5, 28443, Note_on_c, 3, 49, 64
5, 28503, Note_off_c, 3, 49, 63
5, 28503, Note_on_c, 3, 51, 64
5, 28563, Note_off_c, 3, 51, 62
5, 28563, Note_on_c, 3, 49, 64
5, 28623, Note_off_c, 3, 49, 57
5, 28623, Note_on_c, 3, 48, 64
5, 28683, Note_off_c, 3, 48, 46
5, 28683, Note_on_c, 3, 46, 64
5, 28743, Note_off_c, 3, 46, 59
5, 28743, Note_on_c, 3, 44, 64
5, 28803, Note_off_c, 3, 44, 62
5, 28803, Note_on_c, 3, 49, 64
5, 28863, Note_off_c, 3, 49, 61
5, 28863, Note_on_c, 3, 48, 64
5, 28923, Note_off_c, 3, 48, 46
5, 28923, Note_on_c, 3, 49, 64
5, 28983, Note_off_c, 3, 49, 57
5, 28983, Note_on_c, 3, 53, 64
5, 29043, Note_off_c, 3, 53, 62
5, 29043, Note_on_c, 3, 51, 64
5, 29103, Note_off_c, 3, 51, 54
5, 29103, Note_on_c, 3, 50, 64
5, 29163, Note_off_c, 3, 50, 52
5, 29163, Note_on_c, 3, 48, 64
5, 29223, Note_off_c, 3, 48, 45
5, 29223, Note_on_c, 3, 46, 64
5, 29283, Note_off_c, 3, 46, 55
5, 29283, Note_on_c, 3, 51, 64
5, 29343, Note_off_c, 3, 51, 68
5, 29343, Note_on_c, 3, 50, 64
5, 29403, Note_off_c, 3, 50, 47
5, 29403, Note_on_c, 3, 51, 64
5, 29463, Note_off_c, 3, 51, 52
5, 29463, Note_on_c, 3, 55, 64
5, 29523, Note_off_c, 3, 55, 59
5, 29523, Note_on_c, 3, 53, 64
5, 29583, Note_off_c, 3, 53, 61
5, 29583, Note_on_c, 3, 52, 64
5, 29643, Note_off_c, 3, 52, 54
5, 29643, Note_on_c, 3, 50, 64
5, 29703, Note_off_c, 3, 50, 51
5, 29703, Note_on_c, 3, 48, 64
5, 29763, Note_off_c, 3, 48, 46
5, 29763, Note_on_c, 3, 53, 64
5, 29823, Note_off_c, 3, 53, 52
5, 29823, Note_on_c, 3, 55, 64
5, 29883, Note_off_c, 3, 55, 68
5, 29883, Note_on_c, 3, 56, 64
5, 29943, Note_off_c, 3, 56, 62
5, 29943, Note_on_c, 3, 53, 64
5, 30003, Note_off_c, 3, 53, 46
5, 30003, Note_on_c, 3, 58, 64
5, 30063, Note_off_c, 3, 58, 63
5, 30063, Note_on_c, 3, 56, 64
5, 30123, Note_off_c, 3, 56, 54
5, 30123, Note_on_c, 3, 55, 64
5, 30183, Note_off_c, 3, 55, 54
5, 30183, Note_on_c, 3, 53, 64
5, 30243, Note_off_c, 3, 53, 62
5, 30243, Note_on_c, 3, 51, 64
5, 30303, Note_off_c, 3, 51, 63
5, 30303, Note_on_c, 3, 49, 64
5, 30363, Note_off_c, 3, 49, 73
5, 30363, Note_on_c, 3, 48, 64
5, 30423, Note_off_c, 3, 48, 63
5, 30423, Note_on_c, 3, 46, 64
5, 30483, Note_off_c, 3, 46, 50
5, 30483, Note_on_c, 3, 44, 64
5, 30543, Note_off_c, 3, 44, 53
5, 30543, Note_on_c, 3, 46, 64
5, 30603, Note_off_c, 3, 46, 74
5, 30603, Note_on_c, 3, 48, 64
5, 30663, Note_off_c, 3, 48, 44
5, 30663, Note_on_c, 3, 49, 64
5, 30723, Note_off_c, 3, 49, 66
5, 30723, Note_on_c, 3, 51, 64
5, 30783, Note_off_c, 3, 51, 61
5, 30783, Note_on_c, 3, 49, 64
5, 30843, Note_off_c, 3, 49, 63
5, 30843, Note_on_c, 3, 48, 64
5, 30903, Note_off_c, 3, 48, 47
5, 30903, Note_on_c, 3, 49, 64
5, 30963, Note_off_c, 3, 49, 62
5, 30963, Note_on_c, 3, 51, 64
5, 31083, Note_off_c, 3, 51, 63
5, 31083, Note_on_c, 3, 39, 64
5, 31203, Note_off_c, 3, 39, 27
5, 31203, Note_on_c, 3, 41, 64
5, 31443, Note_off_c, 3, 41, 29
5, 31503, Note_on_c, 3, 39, 64
5, 31563, Note_off_c, 3, 39, 51
5, 31563, Note_on_c, 3, 41, 64
5, 31623, Note_off_c, 3, 41, 47
5, 31623, Note_on_c, 3, 43, 64
5, 31683, Note_off_c, 3, 43, 61
5, 31683, Note_on_c, 3, 44, 64
5, 31743, Note_off_c, 3, 44, 57
5, 31743, Note_on_c, 3, 46, 64
5, 31803, Note_off_c, 3, 46, 52
5, 31803, Note_on_c, 3, 48, 64
5, 31863, Note_off_c, 3, 48, 70
5, 31863, Note_on_c, 3, 51, 64
5, 31923, Note_off_c, 3, 51, 66
5, 31923, Note_on_c, 3, 49, 64
5, 31983, Note_off_c, 3, 49, 74
5, 31983, Note_on_c, 3, 48, 64
5, 32043, Note_off_c, 3, 48, 66
5, 32043, Note_on_c, 3, 46, 64
5, 32103, Note_off_c, 3, 46, 49
5, 32103, Note_on_c, 3, 44, 64
5, 32163, Note_off_c, 3, 44, 58
5, 32163, Note_on_c, 3, 43, 64
5, 32223, Note_off_c, 3, 43, 55
5, 32223, Note_on_c, 3, 41, 64
5, 32283, Note_off_c, 3, 41, 39
5, 32283, Note_on_c, 3, 39, 64
5, 32343, Note_off_c, 3, 39, 57
5, 32343, Note_on_c, 3, 37, 64
5, 32403, Note_off_c, 3, 37, 43
5, 32403, Note_on_c, 3, 36, 64
5, 32463, Note_off_c, 3, 36, 17
5, 32463, Note_on_c, 3, 39, 64
5, 32523, Note_off_c, 3, 39, 57
5, 32523, Note_on_c, 3, 37, 64
5, 32583, Note_off_c, 3, 37, 49
5, 32583, Note_on_c, 3, 41, 64
5, 32643, Note_off_c, 3, 41, 57
5, 32643, Note_on_c, 3, 39, 64
5, 33123, Note_off_c, 3, 39, 57
5, 33123, Note_on_c, 3, 44, 64
5, 33603, Note_off_c, 3, 44, 74
5, 33603, End_track
0, 0, End_of_file
