0, 0, Header, 1, 3, 240
1, 0, Start_track
1, 0, Time_signature, 3, 1, 24, 8
1, 0, Tempo, 910894
1, 54720, Time_signature, 3, 1, 48, 8
1, 54720, Tempo, 878426
1, 55680, Tempo, 902490
1, 55920, Tempo, 779221
1, 56040, Tempo, 869565
1, 56160, Tempo, 625000
1, 56160, End_track
2, 0, Start_track
2, 0, Text_t, "RH B"
2, 0, Note_on_c, 0, 66, 56
2, 0, Note_on_c, 0, 70, 56
2, 0, Note_on_c, 0, 63, 56
2, 470, Note_off_c, 0, 63, 54
2, 470, Note_off_c, 0, 70, 66
2, 470, Note_off_c, 0, 66, 53
2, 483, Note_on_c, 0, 66, 56
2, 483, Note_on_c, 0, 63, 56
2, 843, Note_on_c, 0, 70, 64
2, 953, Note_off_c, 0, 63, 52
2, 953, Note_off_c, 0, 66, 66
2, 966, Note_off_c, 0, 70, 28
2, 966, Note_on_c, 0, 75, 64
2, 966, Note_on_c, 0, 66, 56
2, 966, Note_on_c, 0, 63, 56
2, 1326, Note_off_c, 0, 75, 68
2, 1326, Note_on_c, 0, 78, 64
2, 1436, Note_off_c, 0, 63, 49
2, 1436, Note_off_c, 0, 66, 59
2, 1449, Note_off_c, 0, 78, 80
2, 1449, Note_on_c, 0, 63, 56
2, 1449, Note_on_c, 0, 68, 56
2, 1449, Note_on_c, 0, 71, 56
2, 1919, Note_off_c, 0, 71, 53
2, 1919, Note_off_c, 0, 68, 52
2, 1919, Note_off_c, 0, 63, 49
2, 1932, Note_on_c, 0, 68, 56
2, 1932, Note_on_c, 0, 71, 56
2, 1932, Note_on_c, 0, 63, 56
2, 2292, Note_on_c, 0, 75, 64
2, 2402, Note_off_c, 0, 63, 53
2, 2402, Note_off_c, 0, 71, 31
2, 2402, Note_off_c, 0, 68, 57
2, 2415, Note_off_c, 0, 75, 36
2, 2415, Note_on_c, 0, 80, 64
2, 2415, Note_on_c, 0, 63, 56
2, 2415, Note_on_c, 0, 68, 56
2, 2415, Note_on_c, 0, 71, 56
2, 2775, Note_off_c, 0, 80, 83
2, 2775, Note_on_c, 0, 83, 64
2, 2885, Note_off_c, 0, 71, 79
2, 2885, Note_off_c, 0, 68, 83
2, 2885, Note_off_c, 0, 63, 52
2, 2898, Note_off_c, 0, 83, 77
2, 2898, Note_on_c, 0, 74, 64
2, 2898, Note_on_c, 0, 68, 56
2, 2898, Note_on_c, 0, 65, 56
2, 2898, Note_on_c, 0, 63, 56
2, 3368, Note_off_c, 0, 63, 52
2, 3368, Note_off_c, 0, 65, 12
2, 3368, Note_off_c, 0, 68, 62
2, 3368, Note_off_c, 0, 74, 47
2, 3381, Note_on_c, 0, 68, 56
2, 3381, Note_on_c, 0, 65, 56
2, 3381, Note_on_c, 0, 62, 56
2, 3741, Note_on_c, 0, 77, 64
2, 3851, Note_off_c, 0, 62, 49
2, 3851, Note_off_c, 0, 65, 19
2, 3851, Note_off_c, 0, 68, 61
2, 3864, Note_off_c, 0, 77, 39
2, 3864, Note_on_c, 0, 70, 74
2, 3864, Note_on_c, 0, 65, 56
2, 3864, Note_on_c, 0, 62, 56
2, 3884, Note_on_c, 0, 68, 45
2, 3886, Note_off_c, 0, 70, 65
2, 3904, Note_on_c, 0, 70, 51
2, 3906, Note_off_c, 0, 68, 68
2, 3924, Note_on_c, 0, 68, 58
2, 3926, Note_off_c, 0, 70, 72
2, 3944, Note_on_c, 0, 70, 52
2, 3946, Note_off_c, 0, 68, 54
2, 3964, Note_off_c, 0, 70, 57
2, 3964, Note_on_c, 0, 68, 76
2, 4164, Note_off_c, 0, 68, 70
2, 4164, Note_on_c, 0, 66, 64
2, 4224, Note_off_c, 0, 66, 51
2, 4224, Note_on_c, 0, 68, 64
2, 4284, Note_off_c, 0, 68, 66
2, 4284, Note_on_c, 0, 70, 64
2, 4334, Note_off_c, 0, 62, 34
2, 4334, Note_off_c, 0, 65, 36
2, 4347, Note_off_c, 0, 70, 58
2, 4347, Note_on_c, 0, 68, 72
2, 4347, Note_on_c, 0, 63, 56
2, 4367, Note_on_c, 0, 66, 42
2, 4369, Note_off_c, 0, 68, 79
2, 4387, Note_on_c, 0, 68, 47
2, 4389, Note_off_c, 0, 66, 1
2, 4407, Note_on_c, 0, 66, 51
2, 4409, Note_off_c, 0, 68, 58
2, 4427, Note_on_c, 0, 68, 55
2, 4429, Note_off_c, 0, 66, 62
2, 4447, Note_on_c, 0, 66, 59
2, 4449, Note_off_c, 0, 68, 43
2, 4467, Note_on_c, 0, 68, 73
2, 4469, Note_off_c, 0, 66, 62
2, 4487, Note_off_c, 0, 68, 59
2, 4487, Note_on_c, 0, 66, 76
2, 4707, Note_off_c, 0, 66, 51
2, 4707, Note_on_c, 0, 65, 64
2, 4767, Note_off_c, 0, 65, 4
2, 4767, Note_on_c, 0, 63, 64
2, 4817, Note_off_c, 0, 63, 51
2, 4830, Note_off_c, 0, 63, 70
2, 4830, Note_on_c, 0, 78, 64
2, 5300, Note_off_c, 0, 78, 52
2, 5313, Note_on_c, 0, 66, 56
2, 5326, Note_on_c, 0, 70, 56
2, 5339, Note_on_c, 0, 75, 56
2, 5352, Note_on_c, 0, 78, 56
2, 5792, Note_off_c, 0, 78, 36
2, 5792, Note_off_c, 0, 75, 40
2, 5792, Note_off_c, 0, 70, 19
2, 5792, Note_off_c, 0, 66, 49
2, 5805, Note_on_c, 0, 66, 56
2, 5818, Note_on_c, 0, 70, 56
2, 5831, Note_on_c, 0, 73, 56
2, 5844, Note_on_c, 0, 78, 56
2, 6284, Note_off_c, 0, 78, 73
2, 6284, Note_off_c, 0, 73, 76
2, 6284, Note_off_c, 0, 70, 73
2, 6284, Note_off_c, 0, 66, 69
2, 6594, Note_on_c, 0, 78, 64
2, 6654, Note_off_c, 0, 78, 68
2, 6654, Note_on_c, 0, 76, 64
2, 6714, Note_off_c, 0, 76, 52
2, 6714, Note_on_c, 0, 75, 64
2, 6774, Note_off_c, 0, 75, 42
2, 6774, Note_on_c, 0, 76, 64
2, 7134, Note_off_c, 0, 76, 41
2, 7134, Note_on_c, 0, 73, 64
2, 7254, Note_off_c, 0, 73, 80
2, 7254, Note_on_c, 0, 63, 56
2, 7267, Note_on_c, 0, 66, 56
2, 7280, Note_on_c, 0, 71, 56
2, 7293, Note_on_c, 0, 75, 56
2, 7733, Note_off_c, 0, 75, 43
2, 7733, Note_off_c, 0, 71, 59
2, 7733, Note_off_c, 0, 66, 42
2, 7733, Note_off_c, 0, 63, 57
2, 7746, Note_on_c, 0, 66, 56
2, 7759, Note_on_c, 0, 71, 56
2, 7772, Note_on_c, 0, 75, 56
2, 8222, Note_off_c, 0, 75, 41
2, 8222, Note_off_c, 0, 71, 52
2, 8222, Note_off_c, 0, 66, 49
2, 8235, Note_on_c, 0, 66, 56
2, 8248, Note_on_c, 0, 71, 56
2, 8261, Note_on_c, 0, 75, 56
2, 8711, Note_off_c, 0, 75, 49
2, 8711, Note_off_c, 0, 71, 76
2, 8711, Note_off_c, 0, 66, 73
2, 8731, Note_on_c, 0, 70, 56
2, 8744, Note_on_c, 0, 75, 56
2, 8757, Note_on_c, 0, 82, 56
2, 9197, Note_off_c, 0, 82, 63
2, 9197, Note_off_c, 0, 75, 63
2, 9197, Note_off_c, 0, 70, 79
2, 9507, Note_on_c, 0, 75, 64
2, 9567, Note_off_c, 0, 75, 47
2, 9567, Note_on_c, 0, 73, 64
2, 9627, Note_off_c, 0, 73, 59
2, 9627, Note_on_c, 0, 71, 64
2, 9687, Note_off_c, 0, 71, 65
2, 9687, Note_on_c, 0, 73, 64
2, 10047, Note_off_c, 0, 73, 58
2, 10047, Note_on_c, 0, 70, 64
2, 10167, Note_off_c, 0, 70, 61
2, 10167, Note_on_c, 0, 73, 72
2, 10187, Note_on_c, 0, 71, 45
2, 10189, Note_off_c, 0, 73, 46
2, 10207, Note_on_c, 0, 73, 51
2, 10209, Note_off_c, 0, 71, 61
2, 10227, Note_on_c, 0, 71, 58
2, 10229, Note_off_c, 0, 73, 50
2, 10247, Note_on_c, 0, 73, 86
2, 10249, Note_off_c, 0, 71, 48
2, 10267, Note_off_c, 0, 73, 77
2, 10267, Note_on_c, 0, 71, 79
2, 10527, Note_off_c, 0, 71, 73
2, 10527, Note_on_c, 0, 70, 64
2, 10587, Note_off_c, 0, 70, 79
2, 10587, Note_on_c, 0, 68, 64
2, 10647, Note_off_c, 0, 68, 79
2, 10647, Note_on_c, 0, 75, 56
2, 10660, Note_on_c, 0, 80, 56
2, 10673, Note_on_c, 0, 83, 56
2, 11013, Note_on_c, 0, 71, 64
2, 11123, Note_off_c, 0, 83, 34
2, 11123, Note_off_c, 0, 80, 47
2, 11123, Note_off_c, 0, 75, 16
2, 11136, Note_off_c, 0, 71, 61
2, 11136, Note_on_c, 0, 68, 64
2, 11136, Note_on_c, 0, 75, 56
2, 11149, Note_on_c, 0, 80, 56
2, 11162, Note_on_c, 0, 83, 56
2, 11502, Note_off_c, 0, 68, 50
2, 11502, Note_on_c, 0, 65, 64
2, 11612, Note_off_c, 0, 83, 31
2, 11612, Note_off_c, 0, 80, 53
2, 11612, Note_off_c, 0, 75, 49
2, 11625, Note_off_c, 0, 65, 1
2, 11625, Note_on_c, 0, 62, 64
2, 11638, Note_on_c, 0, 77, 56
2, 11651, Note_on_c, 0, 80, 56
2, 11664, Note_on_c, 0, 83, 56
2, 12104, Note_off_c, 0, 83, 73
2, 12104, Note_off_c, 0, 80, 83
2, 12104, Note_off_c, 0, 77, 70
2, 12104, Note_off_c, 0, 62, 52
2, 12117, Note_on_c, 0, 62, 56
2, 12130, Note_on_c, 0, 65, 56
2, 12143, Note_on_c, 0, 70, 56
2, 12423, Note_on_c, 0, 82, 64
2, 12483, Note_off_c, 0, 82, 66
2, 12483, Note_on_c, 0, 80, 64
2, 12543, Note_off_c, 0, 80, 83
2, 12543, Note_on_c, 0, 78, 64
2, 12593, Note_off_c, 0, 70, 65
2, 12593, Note_off_c, 0, 65, 34
2, 12593, Note_off_c, 0, 62, 51
2, 12606, Note_off_c, 0, 78, 68
2, 12606, Note_on_c, 0, 77, 64
2, 12606, Note_on_c, 0, 62, 56
2, 12619, Note_on_c, 0, 65, 56
2, 12632, Note_on_c, 0, 70, 56
2, 12672, Note_off_c, 0, 77, 69
2, 12672, Note_on_c, 0, 78, 64
2, 12732, Note_off_c, 0, 78, 62
2, 12732, Note_on_c, 0, 77, 64
2, 12792, Note_off_c, 0, 77, 62
2, 12792, Note_on_c, 0, 78, 64
2, 12852, Note_off_c, 0, 78, 62
2, 12852, Note_on_c, 0, 80, 64
2, 12912, Note_off_c, 0, 80, 70
2, 12912, Note_on_c, 0, 78, 64
2, 12972, Note_off_c, 0, 78, 51
2, 12972, Note_on_c, 0, 80, 64
2, 13032, Note_off_c, 0, 80, 66
2, 13032, Note_on_c, 0, 77, 64
2, 13082, Note_off_c, 0, 70, 46
2, 13082, Note_off_c, 0, 65, 24
2, 13082, Note_off_c, 0, 62, 34
2, 13095, Note_off_c, 0, 77, 66
2, 13095, Note_on_c, 0, 80, 74
2, 13095, Note_on_c, 0, 63, 56
2, 13108, Note_on_c, 0, 66, 56
2, 13121, Note_off_c, 0, 80, 62
2, 13121, Note_on_c, 0, 78, 45
2, 13121, Note_on_c, 0, 70, 56
2, 13141, Note_on_c, 0, 80, 51
2, 13143, Note_off_c, 0, 78, 58
2, 13161, Note_on_c, 0, 78, 58
2, 13163, Note_off_c, 0, 80, 66
2, 13181, Note_on_c, 0, 80, 77
2, 13183, Note_off_c, 0, 78, 61
2, 13201, Note_off_c, 0, 80, 63
2, 13201, Note_on_c, 0, 78, 64
2, 13461, Note_off_c, 0, 78, 52
2, 13461, Note_on_c, 0, 77, 64
2, 13521, Note_off_c, 0, 77, 73
2, 13521, Note_on_c, 0, 75, 64
2, 13571, Note_off_c, 0, 70, 83
2, 13571, Note_off_c, 0, 66, 68
2, 13571, Note_off_c, 0, 63, 65
2, 13584, Note_off_c, 0, 75, 72
2, 13584, Note_on_c, 0, 70, 56
2, 13597, Note_on_c, 0, 75, 56
2, 13610, Note_on_c, 0, 78, 56
2, 13623, Note_on_c, 0, 82, 64
2, 13953, Note_on_c, 0, 66, 64
2, 14063, Note_off_c, 0, 82, 43
2, 14063, Note_off_c, 0, 78, 39
2, 14063, Note_off_c, 0, 75, 44
2, 14063, Note_off_c, 0, 70, 69
2, 14076, Note_off_c, 0, 66, 62
2, 14076, Note_on_c, 0, 63, 64
2, 14076, Note_on_c, 0, 73, 56
2, 14089, Note_on_c, 0, 75, 56
2, 14102, Note_on_c, 0, 78, 56
2, 14115, Note_on_c, 0, 82, 56
2, 14445, Note_off_c, 0, 63, 46
2, 14445, Note_on_c, 0, 60, 64
2, 14555, Note_off_c, 0, 82, 46
2, 14555, Note_off_c, 0, 78, 49
2, 14555, Note_off_c, 0, 75, 43
2, 14555, Note_off_c, 0, 73, 77
2, 14568, Note_off_c, 0, 60, 70
2, 14568, Note_on_c, 0, 72, 56
2, 14581, Note_on_c, 0, 75, 56
2, 14594, Note_on_c, 0, 78, 56
2, 14607, Note_on_c, 0, 84, 56
2, 15047, Note_off_c, 0, 84, 73
2, 15047, Note_off_c, 0, 78, 76
2, 15047, Note_off_c, 0, 75, 69
2, 15047, Note_off_c, 0, 72, 85
2, 15357, Note_on_c, 0, 77, 64
2, 15417, Note_off_c, 0, 77, 54
2, 15417, Note_on_c, 0, 75, 64
2, 15477, Note_off_c, 0, 75, 57
2, 15477, Note_on_c, 0, 73, 64
2, 15537, Note_off_c, 0, 73, 57
2, 15537, Note_on_c, 0, 72, 64
2, 15597, Note_off_c, 0, 72, 76
2, 15597, Note_on_c, 0, 73, 64
2, 15657, Note_off_c, 0, 73, 53
2, 15657, Note_on_c, 0, 72, 64
2, 15717, Note_off_c, 0, 72, 77
2, 15717, Note_on_c, 0, 73, 64
2, 15777, Note_off_c, 0, 73, 55
2, 15777, Note_on_c, 0, 75, 64
2, 15837, Note_off_c, 0, 75, 52
2, 15837, Note_on_c, 0, 72, 64
2, 15897, Note_off_c, 0, 72, 68
2, 15897, Note_on_c, 0, 75, 64
2, 15957, Note_off_c, 0, 75, 52
2, 15957, Note_on_c, 0, 72, 64
2, 16017, Note_off_c, 0, 72, 74
2, 16017, Note_on_c, 0, 75, 73
2, 16037, Note_on_c, 0, 73, 45
2, 16039, Note_off_c, 0, 75, 59
2, 16057, Note_on_c, 0, 75, 51
2, 16059, Note_off_c, 0, 73, 62
2, 16077, Note_on_c, 0, 73, 58
2, 16079, Note_off_c, 0, 75, 49
2, 16097, Note_on_c, 0, 75, 79
2, 16099, Note_off_c, 0, 73, 69
2, 16117, Note_off_c, 0, 75, 66
2, 16117, Note_on_c, 0, 73, 64
2, 16377, Note_off_c, 0, 73, 65
2, 16377, Note_on_c, 0, 72, 64
2, 16437, Note_off_c, 0, 72, 66
2, 16437, Note_on_c, 0, 70, 64
2, 16497, Note_off_c, 0, 70, 66
2, 16497, Note_on_c, 0, 70, 56
2, 16510, Note_on_c, 0, 73, 56
2, 16523, Note_on_c, 0, 77, 64
2, 16743, Note_off_c, 0, 73, 82
2, 16743, Note_off_c, 0, 70, 61
2, 16803, Note_off_c, 0, 77, 44
2, 16803, Note_on_c, 0, 78, 64
2, 16863, Note_off_c, 0, 78, 63
2, 16863, Note_on_c, 0, 77, 64
2, 16923, Note_off_c, 0, 77, 61
2, 16923, Note_on_c, 0, 75, 64
2, 16983, Note_off_c, 0, 75, 57
2, 16983, Note_on_c, 0, 73, 64
2, 17043, Note_off_c, 0, 73, 69
2, 17043, Note_on_c, 0, 72, 64
2, 17103, Note_off_c, 0, 72, 74
2, 17103, Note_on_c, 0, 70, 64
2, 17163, Note_off_c, 0, 70, 49
2, 17163, Note_on_c, 0, 68, 64
2, 17223, Note_off_c, 0, 68, 61
2, 17223, Note_on_c, 0, 66, 64
2, 17343, Note_off_c, 0, 66, 57
2, 17343, Note_on_c, 0, 68, 64
2, 17403, Note_off_c, 0, 68, 66
2, 17403, Note_on_c, 0, 65, 64
2, 17463, Note_off_c, 0, 65, 1
2, 17463, Note_on_c, 0, 63, 56
2, 17476, Note_on_c, 0, 66, 64
2, 17706, Note_off_c, 0, 63, 64
2, 17826, Note_off_c, 0, 66, 66
2, 17826, Note_on_c, 0, 70, 64
2, 17886, Note_off_c, 0, 70, 44
2, 17886, Note_on_c, 0, 73, 64
2, 17946, Note_off_c, 0, 73, 70
2, 17946, Note_on_c, 0, 78, 64
2, 18246, Note_off_c, 0, 78, 61
2, 18246, Note_on_c, 0, 77, 64
2, 18306, Note_off_c, 0, 77, 63
2, 18306, Note_on_c, 0, 75, 64
2, 18366, Note_off_c, 0, 75, 37
2, 18366, Note_on_c, 0, 73, 64
2, 18426, Note_off_c, 0, 73, 59
2, 18426, Note_on_c, 0, 72, 64
2, 18606, Note_off_c, 0, 72, 54
2, 18606, Note_on_c, 0, 75, 64
2, 18636, Note_off_c, 0, 75, 46
2, 18636, Note_on_c, 0, 73, 56
2, 18666, Note_off_c, 0, 73, 54
2, 18666, Note_on_c, 0, 72, 64
2, 18726, Note_off_c, 0, 72, 80
2, 18726, Note_on_c, 0, 73, 64
2, 18786, Note_off_c, 0, 73, 65
2, 18786, Note_on_c, 0, 75, 64
2, 18906, Note_off_c, 0, 75, 53
2, 18906, Note_on_c, 0, 65, 64
2, 19076, Note_off_c, 0, 65, 29
2, 19089, Note_on_c, 0, 67, 64
2, 19119, Note_off_c, 0, 67, 36
2, 19119, Note_on_c, 0, 69, 56
2, 19149, Note_off_c, 0, 69, 55
2, 19149, Note_on_c, 0, 70, 43
2, 19169, Note_on_c, 0, 69, 44
2, 19171, Note_off_c, 0, 70, 66
2, 19189, Note_on_c, 0, 70, 46
2, 19191, Note_off_c, 0, 69, 61
2, 19209, Note_on_c, 0, 69, 47
2, 19211, Note_off_c, 0, 70, 53
2, 19229, Note_on_c, 0, 70, 48
2, 19231, Note_off_c, 0, 69, 49
2, 19249, Note_on_c, 0, 69, 70
2, 19251, Note_off_c, 0, 70, 48
2, 19269, Note_off_c, 0, 69, 39
2, 19269, Note_on_c, 0, 67, 56
2, 19299, Note_off_c, 0, 67, 36
2, 19299, Note_on_c, 0, 69, 57
2, 19329, Note_off_c, 0, 69, 52
2, 19329, Note_on_c, 0, 67, 72
2, 19359, Note_off_c, 0, 67, 43
2, 19359, Note_on_c, 0, 69, 64
2, 19389, Note_off_c, 0, 69, 48
2, 19389, Note_on_c, 0, 70, 64
2, 19749, Note_on_c, 0, 65, 64
2, 19869, Note_off_c, 0, 65, 23
2, 19869, Note_on_c, 0, 66, 64
2, 20229, Note_off_c, 0, 66, 40
2, 20229, Note_on_c, 0, 63, 64
2, 20349, Note_off_c, 0, 63, 27
2, 20349, Note_on_c, 0, 60, 64
2, 20649, Note_off_c, 0, 60, 39
2, 20649, Note_on_c, 0, 61, 64
2, 20709, Note_off_c, 0, 61, 62
2, 20709, Note_on_c, 0, 60, 64
2, 20769, Note_off_c, 0, 60, 27
2, 20769, Note_on_c, 0, 61, 64
2, 20829, Note_off_c, 0, 61, 59
2, 20829, Note_on_c, 0, 63, 64
2, 20889, Note_off_c, 0, 63, 52
2, 20889, Note_on_c, 0, 61, 64
2, 20949, Note_off_c, 0, 61, 58
2, 20949, Note_on_c, 0, 60, 64
2, 21009, Note_off_c, 0, 60, 37
2, 21009, Note_on_c, 0, 61, 64
2, 21069, Note_off_c, 0, 61, 52
2, 21069, Note_on_c, 0, 63, 64
2, 21129, Note_off_c, 0, 63, 40
2, 21129, Note_on_c, 0, 65, 64
2, 21189, Note_off_c, 0, 65, 47
2, 21189, Note_on_c, 0, 63, 64
2, 21249, Note_off_c, 0, 63, 46
2, 21249, Note_on_c, 0, 65, 64
2, 21309, Note_off_c, 0, 65, 53
2, 21309, Note_off_c, 0, 70, 64
2, 21309, Note_on_c, 0, 66, 64
2, 21309, Note_on_c, 0, 69, 64
2, 21309, Note_on_c, 0, 60, 64
2, 21544, Note_off_c, 0, 66, 58
2, 21549, Note_on_c, 0, 66, 80
2, 21569, Note_off_c, 0, 66, 55
2, 21569, Note_on_c, 0, 65, 43
2, 21589, Note_on_c, 0, 66, 46
2, 21591, Note_off_c, 0, 65, 1
2, 21609, Note_on_c, 0, 65, 49
2, 21611, Note_off_c, 0, 66, 77
2, 21629, Note_on_c, 0, 66, 52
2, 21631, Note_off_c, 0, 65, 57
2, 21649, Note_on_c, 0, 65, 55
2, 21651, Note_off_c, 0, 66, 70
2, 21669, Note_on_c, 0, 66, 57
2, 21671, Note_off_c, 0, 65, 55
2, 21689, Note_on_c, 0, 65, 63
2, 21691, Note_off_c, 0, 66, 66
2, 21709, Note_off_c, 0, 65, 52
2, 21729, Note_on_c, 0, 63, 64
2, 21789, Note_off_c, 0, 63, 46
2, 21789, Note_off_c, 0, 60, 31
2, 21789, Note_off_c, 0, 69, 43
2, 21789, Note_on_c, 0, 70, 64
2, 21789, Note_on_c, 0, 61, 64
2, 22149, Note_off_c, 0, 61, 54
2, 22149, Note_off_c, 0, 70, 50
2, 22149, Note_on_c, 0, 72, 64
2, 22149, Note_on_c, 0, 63, 64
2, 22269, Note_off_c, 0, 63, 32
2, 22269, Note_off_c, 0, 72, 40
2, 22269, Note_on_c, 0, 65, 56
2, 22282, Note_on_c, 0, 70, 56
2, 22295, Note_on_c, 0, 73, 60
2, 22745, Note_off_c, 0, 73, 50
2, 22745, Note_off_c, 0, 70, 54
2, 22745, Note_off_c, 0, 65, 37
2, 22758, Note_on_c, 0, 65, 56
2, 22771, Note_on_c, 0, 70, 56
2, 22784, Note_on_c, 0, 73, 64
2, 23234, Note_off_c, 0, 73, 77
2, 23234, Note_off_c, 0, 70, 82
2, 23234, Note_off_c, 0, 65, 1
2, 23247, Note_on_c, 0, 73, 64
2, 23247, Note_on_c, 0, 70, 64
2, 23247, Note_on_c, 0, 64, 64
2, 23607, Note_off_c, 0, 64, 9
2, 23607, Note_off_c, 0, 70, 51
2, 23607, Note_off_c, 0, 73, 52
2, 23607, Note_on_c, 0, 71, 64
2, 23667, Note_off_c, 0, 71, 58
2, 23667, Note_on_c, 0, 70, 64
2, 23727, Note_off_c, 0, 70, 72
2, 23727, Note_on_c, 0, 70, 56
2, 23727, Note_on_c, 0, 76, 56
2, 23727, Note_on_c, 0, 73, 56
2, 24567, Note_off_c, 0, 73, 59
2, 24567, Note_off_c, 0, 76, 50
2, 24567, Note_off_c, 0, 70, 20
2, 24567, Note_on_c, 0, 75, 64
2, 24627, Note_off_c, 0, 75, 47
2, 24627, Note_on_c, 0, 73, 64
2, 24687, Note_off_c, 0, 73, 72
2, 24687, Note_on_c, 0, 79, 56
2, 24687, Note_on_c, 0, 73, 56
2, 24687, Note_on_c, 0, 70, 56
2, 25527, Note_off_c, 0, 70, 59
2, 25527, Note_off_c, 0, 73, 74
2, 25527, Note_off_c, 0, 79, 55
2, 25527, Note_on_c, 0, 77, 64
2, 25587, Note_off_c, 0, 77, 59
2, 25587, Note_on_c, 0, 75, 64
2, 25647, Note_off_c, 0, 75, 48
2, 25647, Note_on_c, 0, 80, 56
2, 25647, Note_on_c, 0, 71, 56
2, 25647, Note_on_c, 0, 75, 56
2, 26127, Note_off_c, 0, 75, 57
2, 26127, Note_off_c, 0, 71, 51
2, 26247, Note_off_c, 0, 80, 70
2, 26247, Note_on_c, 0, 79, 64
2, 26367, Note_off_c, 0, 79, 52
2, 26367, Note_on_c, 0, 80, 64
2, 26487, Note_off_c, 0, 80, 72
2, 26487, Note_on_c, 0, 82, 64
2, 26597, Note_off_c, 0, 82, 54
2, 26610, Note_on_c, 0, 83, 72
2, 26610, Note_on_c, 0, 79, 64
2, 26610, Note_on_c, 0, 75, 64
2, 26630, Note_off_c, 0, 83, 68
2, 26630, Note_on_c, 0, 82, 45
2, 26650, Note_on_c, 0, 83, 50
2, 26652, Note_off_c, 0, 82, 57
2, 26670, Note_on_c, 0, 82, 55
2, 26672, Note_off_c, 0, 83, 61
2, 26690, Note_on_c, 0, 83, 86
2, 26692, Note_off_c, 0, 82, 58
2, 26710, Note_off_c, 0, 83, 61
2, 26710, Note_on_c, 0, 82, 64
2, 27090, Note_off_c, 0, 75, 49
2, 27090, Note_on_c, 0, 73, 64
2, 27330, Note_off_c, 0, 82, 58
2, 27330, Note_on_c, 0, 80, 64
2, 27570, Note_off_c, 0, 80, 58
2, 27570, Note_off_c, 0, 73, 65
2, 27570, Note_off_c, 0, 79, 72
2, 27570, Note_on_c, 0, 75, 64
2, 27570, Note_on_c, 0, 80, 64
2, 27570, Note_on_c, 0, 71, 64
2, 27930, Note_off_c, 0, 71, 65
2, 27930, Note_off_c, 0, 80, 72
2, 27930, Note_off_c, 0, 75, 50
2, 27930, Note_on_c, 0, 83, 64
2, 28050, Note_off_c, 0, 83, 62
2, 28050, Note_on_c, 0, 77, 64
2, 28410, Note_off_c, 0, 77, 63
2, 28410, Note_on_c, 0, 78, 64
2, 28470, Note_off_c, 0, 78, 69
2, 28470, Note_on_c, 0, 80, 64
2, 28530, Note_off_c, 0, 80, 65
2, 28530, Note_on_c, 0, 74, 64
2, 28890, Note_off_c, 0, 74, 27
2, 28890, Note_on_c, 0, 75, 64
2, 28950, Note_off_c, 0, 75, 52
2, 28950, Note_on_c, 0, 77, 64
2, 29010, Note_off_c, 0, 77, 68
2, 29010, Note_on_c, 0, 70, 64
2, 29370, Note_off_c, 0, 70, 35
2, 29370, Note_on_c, 0, 80, 64
2, 29490, Note_off_c, 0, 80, 5
2, 29490, Note_on_c, 0, 74, 64
2, 29850, Note_off_c, 0, 74, 55
2, 29850, Note_on_c, 0, 75, 64
2, 29910, Note_off_c, 0, 75, 45
2, 29910, Note_on_c, 0, 77, 64
2, 29970, Note_off_c, 0, 77, 58
2, 29970, Note_on_c, 0, 70, 64
2, 30330, Note_off_c, 0, 70, 18
2, 30330, Note_on_c, 0, 72, 64
2, 30390, Note_off_c, 0, 72, 66
2, 30390, Note_on_c, 0, 74, 64
2, 30450, Note_off_c, 0, 74, 57
2, 30450, Note_on_c, 0, 75, 64
2, 30810, Note_off_c, 0, 75, 49
2, 30810, Note_on_c, 0, 73, 64
2, 30870, Note_off_c, 0, 73, 57
2, 30870, Note_on_c, 0, 71, 64
2, 30930, Note_off_c, 0, 71, 50
2, 30930, Note_on_c, 0, 73, 64
2, 31410, Note_off_c, 0, 73, 52
2, 31410, Note_on_c, 0, 73, 56
2, 31410, Note_on_c, 0, 63, 56
2, 31410, Note_on_c, 0, 70, 56
2, 31866, Note_off_c, 0, 70, 72
2, 31866, Note_off_c, 0, 63, 49
2, 31866, Note_off_c, 0, 73, 74
2, 31890, Note_on_c, 0, 73, 64
2, 31890, Note_on_c, 0, 70, 64
2, 31890, Note_on_c, 0, 63, 64
2, 32250, Note_off_c, 0, 63, 39
2, 32250, Note_off_c, 0, 70, 63
2, 32250, Note_off_c, 0, 73, 51
2, 32250, Note_on_c, 0, 71, 64
2, 32310, Note_off_c, 0, 71, 53
2, 32310, Note_on_c, 0, 70, 64
2, 32370, Note_off_c, 0, 70, 55
2, 32370, Note_on_c, 0, 71, 64
2, 32850, Note_off_c, 0, 71, 53
2, 32850, Note_on_c, 0, 63, 56
2, 32863, Note_on_c, 0, 68, 56
2, 32876, Note_on_c, 0, 71, 64
2, 33326, Note_off_c, 0, 71, 66
2, 33326, Note_off_c, 0, 68, 58
2, 33326, Note_off_c, 0, 63, 34
2, 33339, Note_on_c, 0, 65, 56
2, 33352, Note_on_c, 0, 68, 56
2, 33365, Note_on_c, 0, 71, 64
2, 33705, Note_off_c, 0, 71, 65
2, 33705, Note_off_c, 0, 68, 52
2, 33705, Note_off_c, 0, 65, 1
2, 33705, Note_on_c, 0, 70, 64
2, 33765, Note_off_c, 0, 70, 25
2, 33765, Note_on_c, 0, 68, 64
2, 33825, Note_off_c, 0, 68, 72
2, 33825, Note_on_c, 0, 77, 64
2, 34185, Note_off_c, 0, 77, 31
2, 34185, Note_on_c, 0, 71, 64
2, 34295, Note_off_c, 0, 71, 61
2, 34308, Note_on_c, 0, 71, 77
2, 34328, Note_on_c, 0, 70, 80
2, 34330, Note_off_c, 0, 71, 72
2, 34348, Note_on_c, 0, 71, 42
2, 34350, Note_off_c, 0, 70, 70
2, 34368, Note_on_c, 0, 70, 43
2, 34370, Note_off_c, 0, 71, 72
2, 34388, Note_on_c, 0, 71, 44
2, 34390, Note_off_c, 0, 70, 69
2, 34408, Note_on_c, 0, 70, 45
2, 34410, Note_off_c, 0, 71, 66
2, 34428, Note_on_c, 0, 71, 47
2, 34430, Note_off_c, 0, 70, 65
2, 34448, Note_on_c, 0, 70, 48
2, 34450, Note_off_c, 0, 71, 63
2, 34468, Note_on_c, 0, 71, 49
2, 34470, Note_off_c, 0, 70, 72
2, 34488, Note_on_c, 0, 70, 50
2, 34490, Note_off_c, 0, 71, 61
2, 34508, Note_on_c, 0, 71, 51
2, 34510, Note_off_c, 0, 70, 68
2, 34528, Note_on_c, 0, 70, 52
2, 34530, Note_off_c, 0, 71, 59
2, 34548, Note_on_c, 0, 71, 54
2, 34550, Note_off_c, 0, 70, 59
2, 34568, Note_on_c, 0, 70, 55
2, 34570, Note_off_c, 0, 71, 58
2, 34588, Note_on_c, 0, 71, 56
2, 34590, Note_off_c, 0, 70, 54
2, 34608, Note_on_c, 0, 70, 57
2, 34610, Note_off_c, 0, 71, 49
2, 34628, Note_on_c, 0, 71, 58
2, 34630, Note_off_c, 0, 70, 46
2, 34648, Note_on_c, 0, 70, 59
2, 34650, Note_off_c, 0, 71, 43
2, 34668, Note_off_c, 0, 70, 45
2, 34668, Note_on_c, 0, 71, 70
2, 34728, Note_off_c, 0, 71, 76
2, 34728, Note_on_c, 0, 68, 64
2, 34788, Note_off_c, 0, 68, 53
2, 34788, Note_on_c, 0, 63, 56
2, 34801, Note_on_c, 0, 66, 64
2, 35271, Note_off_c, 0, 63, 46
2, 35331, Note_off_c, 0, 66, 1
2, 35331, Note_on_c, 0, 63, 64
2, 35391, Note_off_c, 0, 63, 53
2, 35391, Note_on_c, 0, 65, 64
2, 35451, Note_off_c, 0, 65, 1
2, 35451, Note_on_c, 0, 66, 64
2, 35511, Note_off_c, 0, 66, 50
2, 35511, Note_on_c, 0, 68, 64
2, 35571, Note_off_c, 0, 68, 76
2, 35571, Note_on_c, 0, 70, 64
2, 35631, Note_off_c, 0, 70, 72
2, 35631, Note_on_c, 0, 72, 64
2, 35691, Note_off_c, 0, 72, 70
2, 35691, Note_on_c, 0, 74, 64
2, 35751, Note_off_c, 0, 74, 72
2, 35751, Note_on_c, 0, 75, 64
2, 35811, Note_off_c, 0, 75, 59
2, 35811, Note_on_c, 0, 77, 64
2, 35871, Note_off_c, 0, 77, 72
2, 35871, Note_on_c, 0, 78, 64
2, 35931, Note_off_c, 0, 78, 70
2, 35931, Note_on_c, 0, 80, 64
2, 35991, Note_off_c, 0, 80, 79
2, 35991, Note_on_c, 0, 78, 64
2, 36051, Note_off_c, 0, 78, 73
2, 36051, Note_on_c, 0, 77, 64
2, 36111, Note_off_c, 0, 77, 66
2, 36111, Note_on_c, 0, 78, 64
2, 36171, Note_off_c, 0, 78, 68
2, 36171, Note_on_c, 0, 75, 64
2, 36231, Note_off_c, 0, 75, 55
2, 36231, Note_on_c, 0, 64, 64
2, 36244, Note_on_c, 0, 68, 64
2, 36257, Note_on_c, 0, 71, 64
2, 36270, Note_on_c, 0, 76, 64
2, 36600, Note_off_c, 0, 76, 36
2, 36600, Note_off_c, 0, 71, 70
2, 36600, Note_off_c, 0, 68, 61
2, 36600, Note_off_c, 0, 64, 37
2, 36600, Note_on_c, 0, 71, 64
2, 36660, Note_off_c, 0, 71, 55
2, 36660, Note_on_c, 0, 69, 64
2, 36720, Note_off_c, 0, 69, 65
2, 36720, Note_on_c, 0, 68, 64
2, 37080, Note_off_c, 0, 68, 65
2, 37080, Note_on_c, 0, 69, 64
2, 37140, Note_off_c, 0, 69, 65
2, 37140, Note_on_c, 0, 71, 64
2, 37200, Note_off_c, 0, 71, 63
2, 37200, Note_on_c, 0, 64, 64
2, 37560, Note_off_c, 0, 64, 37
2, 37560, Note_on_c, 0, 66, 64
2, 37620, Note_off_c, 0, 66, 55
2, 37620, Note_on_c, 0, 68, 64
2, 37680, Note_off_c, 0, 68, 54
2, 37680, Note_on_c, 0, 62, 64
2, 38040, Note_off_c, 0, 62, 32
2, 38040, Note_on_c, 0, 65, 64
2, 38100, Note_off_c, 0, 65, 39
2, 38100, Note_on_c, 0, 68, 64
2, 38160, Note_off_c, 0, 68, 40
2, 38160, Note_on_c, 0, 71, 64
2, 38520, Note_off_c, 0, 71, 53
2, 38520, Note_on_c, 0, 70, 64
2, 38580, Note_off_c, 0, 70, 59
2, 38580, Note_on_c, 0, 68, 64
2, 38640, Note_off_c, 0, 68, 46
2, 38640, Note_on_c, 0, 77, 64
2, 39000, Note_off_c, 0, 77, 47
2, 39000, Note_on_c, 0, 75, 64
2, 39060, Note_off_c, 0, 75, 42
2, 39060, Note_on_c, 0, 74, 64
2, 39120, Note_off_c, 0, 74, 52
2, 39120, Note_on_c, 0, 83, 64
2, 39240, Note_off_c, 0, 83, 21
2, 39240, Note_on_c, 0, 81, 64
2, 39480, Note_off_c, 0, 81, 57
2, 39480, Note_on_c, 0, 82, 64
2, 39600, Note_off_c, 0, 82, 66
2, 39600, Note_on_c, 0, 66, 56
2, 39613, Note_on_c, 0, 70, 56
2, 39626, Note_on_c, 0, 75, 64
2, 40076, Note_off_c, 0, 75, 40
2, 40076, Note_off_c, 0, 70, 49
2, 40076, Note_off_c, 0, 66, 27
2, 40089, Note_on_c, 0, 65, 56
2, 40102, Note_on_c, 0, 70, 56
2, 40115, Note_on_c, 0, 74, 56
2, 40455, Note_off_c, 0, 74, 64
2, 40455, Note_on_c, 0, 75, 64
2, 40565, Note_off_c, 0, 75, 42
2, 40565, Note_off_c, 0, 70, 55
2, 40565, Note_off_c, 0, 65, 35
2, 40578, Note_on_c, 0, 75, 56
2, 40578, Note_on_c, 0, 70, 64
2, 40578, Note_on_c, 0, 63, 64
2, 40818, Note_off_c, 0, 63, 40
2, 40818, Note_off_c, 0, 70, 53
2, 40878, Note_on_c, 0, 68, 64
2, 40938, Note_off_c, 0, 68, 58
2, 40938, Note_on_c, 0, 67, 64
2, 40998, Note_off_c, 0, 67, 52
2, 40998, Note_on_c, 0, 68, 60
2, 41048, Note_off_c, 0, 68, 63
2, 41061, Note_on_c, 0, 70, 72
2, 41081, Note_on_c, 0, 68, 47
2, 41083, Note_off_c, 0, 70, 66
2, 41101, Note_on_c, 0, 70, 51
2, 41103, Note_off_c, 0, 68, 57
2, 41121, Note_on_c, 0, 68, 56
2, 41123, Note_off_c, 0, 70, 53
2, 41141, Note_on_c, 0, 70, 50
2, 41143, Note_off_c, 0, 68, 55
2, 41161, Note_off_c, 0, 70, 49
2, 41161, Note_on_c, 0, 68, 64
2, 41891, Note_off_c, 0, 68, 69
2, 41904, Note_on_c, 0, 67, 64
2, 41964, Note_off_c, 0, 67, 59
2, 41964, Note_on_c, 0, 68, 64
2, 42014, Note_off_c, 0, 68, 36
2, 42027, Note_on_c, 0, 70, 64
2, 42807, Note_off_c, 0, 75, 51
2, 42807, Note_on_c, 0, 75, 64
2, 42867, Note_off_c, 0, 75, 51
2, 42867, Note_on_c, 0, 73, 64
2, 42927, Note_off_c, 0, 73, 32
2, 42927, Note_on_c, 0, 71, 64
2, 42987, Note_off_c, 0, 71, 44
2, 42987, Note_on_c, 0, 73, 64
2, 43337, Note_off_c, 0, 70, 49
2, 43350, Note_off_c, 0, 73, 47
2, 43350, Note_on_c, 0, 70, 64
2, 43470, Note_off_c, 0, 70, 73
2, 43470, Note_on_c, 0, 63, 64
2, 43470, Note_on_c, 0, 71, 64
2, 43470, Note_on_c, 0, 68, 64
2, 43950, Note_off_c, 0, 68, 66
2, 44240, Note_off_c, 0, 71, 36
2, 44240, Note_off_c, 0, 63, 37
2, 44253, Note_on_c, 0, 71, 64
2, 44253, Note_on_c, 0, 63, 64
2, 44313, Note_off_c, 0, 63, 25
2, 44313, Note_off_c, 0, 71, 49
2, 44313, Note_on_c, 0, 61, 64
2, 44313, Note_on_c, 0, 70, 64
2, 44373, Note_off_c, 0, 70, 57
2, 44373, Note_off_c, 0, 61, 41
2, 44373, Note_on_c, 0, 59, 64
2, 44373, Note_on_c, 0, 68, 64
2, 44433, Note_off_c, 0, 68, 59
2, 44433, Note_off_c, 0, 59, 31
2, 44433, Note_on_c, 0, 61, 64
2, 44433, Note_on_c, 0, 70, 64
2, 44793, Note_off_c, 0, 70, 61
2, 44793, Note_off_c, 0, 61, 43
2, 44793, Note_on_c, 0, 67, 64
2, 44793, Note_on_c, 0, 58, 64
2, 44913, Note_off_c, 0, 58, 49
2, 44913, Note_off_c, 0, 67, 38
2, 44913, Note_on_c, 0, 68, 56
2, 44913, Note_on_c, 0, 62, 56
2, 44913, Note_on_c, 0, 59, 56
2, 45383, Note_off_c, 0, 59, 42
2, 45383, Note_off_c, 0, 62, 46
2, 45383, Note_off_c, 0, 68, 59
2, 45396, Note_on_c, 0, 59, 56
2, 45396, Note_on_c, 0, 68, 56
2, 45396, Note_on_c, 0, 62, 56
2, 45866, Note_off_c, 0, 62, 49
2, 45866, Note_off_c, 0, 68, 55
2, 45866, Note_off_c, 0, 59, 36
2, 45879, Note_on_c, 0, 68, 56
2, 45879, Note_on_c, 0, 59, 56
2, 45879, Note_on_c, 0, 62, 56
2, 46349, Note_off_c, 0, 62, 50
2, 46349, Note_off_c, 0, 59, 17
2, 46349, Note_off_c, 0, 68, 46
2, 46362, Note_on_c, 0, 68, 56
2, 46362, Note_on_c, 0, 59, 56
2, 46362, Note_on_c, 0, 65, 56
2, 46832, Note_off_c, 0, 65, 5
2, 46832, Note_off_c, 0, 59, 41
2, 46832, Note_off_c, 0, 68, 53
2, 46845, Note_on_c, 0, 59, 56
2, 46845, Note_on_c, 0, 68, 56
2, 46845, Note_on_c, 0, 65, 56
2, 47315, Note_off_c, 0, 65, 1
2, 47315, Note_off_c, 0, 68, 53
2, 47315, Note_off_c, 0, 59, 34
2, 47328, Note_on_c, 0, 59, 56
2, 47328, Note_on_c, 0, 68, 56
2, 47328, Note_on_c, 0, 65, 56
2, 47798, Note_off_c, 0, 65, 52
2, 47798, Note_off_c, 0, 68, 80
2, 47798, Note_off_c, 0, 59, 49
2, 47811, Note_on_c, 0, 68, 56
2, 47811, Note_on_c, 0, 65, 56
2, 47811, Note_on_c, 0, 62, 56
2, 48281, Note_off_c, 0, 62, 42
2, 48281, Note_off_c, 0, 65, 49
2, 48281, Note_off_c, 0, 68, 69
2, 48294, Note_on_c, 0, 68, 56
2, 48294, Note_on_c, 0, 62, 56
2, 48294, Note_on_c, 0, 65, 56
2, 48764, Note_off_c, 0, 65, 2
2, 48764, Note_off_c, 0, 62, 30
2, 48764, Note_off_c, 0, 68, 69
2, 48777, Note_on_c, 0, 68, 56
2, 48777, Note_on_c, 0, 65, 56
2, 48777, Note_on_c, 0, 62, 56
2, 49247, Note_off_c, 0, 62, 27
2, 49247, Note_off_c, 0, 65, 43
2, 49247, Note_off_c, 0, 68, 62
2, 49267, Note_on_c, 0, 62, 56
2, 49280, Note_on_c, 0, 65, 56
2, 49293, Note_on_c, 0, 68, 56
2, 49306, Note_on_c, 0, 71, 56
2, 49736, Note_off_c, 0, 68, 80
2, 49736, Note_off_c, 0, 65, 1
2, 49736, Note_off_c, 0, 62, 59
2, 49806, Note_off_c, 0, 71, 80
2, 49806, Note_on_c, 0, 70, 64
2, 49866, Note_off_c, 0, 70, 54
2, 49866, Note_on_c, 0, 68, 64
2, 49926, Note_off_c, 0, 68, 54
2, 49926, Note_on_c, 0, 66, 64
2, 49986, Note_off_c, 0, 66, 39
2, 49986, Note_on_c, 0, 65, 64
2, 50046, Note_off_c, 0, 65, 58
2, 50046, Note_on_c, 0, 63, 64
2, 50106, Note_off_c, 0, 63, 51
2, 50106, Note_on_c, 0, 62, 64
2, 50166, Note_off_c, 0, 62, 74
2, 50166, Note_on_c, 0, 65, 64
2, 50226, Note_off_c, 0, 65, 65
2, 50226, Note_on_c, 0, 68, 64
2, 50286, Note_off_c, 0, 68, 76
2, 50286, Note_on_c, 0, 71, 64
2, 50346, Note_off_c, 0, 71, 82
2, 50346, Note_on_c, 0, 74, 64
2, 50406, Note_off_c, 0, 74, 76
2, 50406, Note_on_c, 0, 77, 64
2, 50466, Note_off_c, 0, 77, 46
2, 50466, Note_on_c, 0, 80, 64
2, 50526, Note_off_c, 0, 80, 73
2, 50526, Note_on_c, 0, 83, 64
2, 50586, Note_off_c, 0, 83, 52
2, 50586, Note_on_c, 0, 82, 64
2, 50646, Note_off_c, 0, 82, 40
2, 50646, Note_on_c, 0, 74, 64
2, 50706, Note_off_c, 0, 74, 68
2, 50706, Note_on_c, 0, 75, 64
2, 51066, Note_off_c, 0, 75, 52
2, 51066, Note_on_c, 0, 66, 64
2, 51066, Note_on_c, 0, 70, 64
2, 51176, Note_off_c, 0, 66, 63
2, 51189, Note_off_c, 0, 70, 69
2, 51189, Note_on_c, 0, 68, 72
2, 51189, Note_on_c, 0, 63, 64
2, 51219, Note_off_c, 0, 68, 82
2, 51219, Note_on_c, 0, 66, 64
2, 51659, Note_off_c, 0, 66, 69
2, 51672, Note_off_c, 0, 63, 58
2, 51672, Note_on_c, 0, 66, 74
2, 51672, Note_on_c, 0, 62, 64
2, 51692, Note_off_c, 0, 66, 30
2, 51692, Note_on_c, 0, 65, 44
2, 51712, Note_on_c, 0, 66, 48
2, 51714, Note_off_c, 0, 65, 1
2, 51732, Note_on_c, 0, 65, 52
2, 51734, Note_off_c, 0, 66, 66
2, 51752, Note_on_c, 0, 66, 56
2, 51754, Note_off_c, 0, 65, 1
2, 51772, Note_on_c, 0, 65, 73
2, 51774, Note_off_c, 0, 66, 73
2, 51792, Note_off_c, 0, 65, 58
2, 51792, Note_on_c, 0, 63, 64
2, 51912, Note_off_c, 0, 63, 48
2, 51912, Note_on_c, 0, 65, 64
2, 52152, Note_off_c, 0, 65, 50
2, 52152, Note_off_c, 0, 62, 25
2, 52152, Note_on_c, 0, 63, 64
2, 52932, Note_off_c, 0, 63, 68
2, 52932, Note_on_c, 0, 65, 64
2, 52992, Note_off_c, 0, 65, 33
2, 52992, Note_on_c, 0, 67, 64
2, 53052, Note_off_c, 0, 67, 59
2, 53052, Note_on_c, 0, 68, 64
2, 53112, Note_off_c, 0, 68, 77
2, 53112, Note_on_c, 0, 70, 64
2, 53412, Note_off_c, 0, 70, 59
2, 53412, Note_on_c, 0, 64, 64
2, 53472, Note_off_c, 0, 64, 55
2, 53472, Note_on_c, 0, 63, 64
2, 53532, Note_off_c, 0, 63, 42
2, 53532, Note_on_c, 0, 61, 64
2, 53592, Note_off_c, 0, 61, 52
2, 53592, Note_on_c, 0, 59, 64
2, 54252, Note_off_c, 0, 59, 31
2, 54252, Note_on_c, 0, 63, 64
2, 54312, Note_off_c, 0, 63, 49
2, 54312, Note_on_c, 0, 65, 64
2, 54372, Note_off_c, 0, 65, 39
2, 54372, Note_on_c, 0, 67, 64
2, 54432, Note_off_c, 0, 67, 52
2, 54432, Note_on_c, 0, 68, 64
2, 54492, Note_off_c, 0, 68, 66
2, 54492, Note_on_c, 0, 70, 64
2, 54552, Note_off_c, 0, 70, 58
2, 54552, Note_on_c, 0, 71, 64
2, 54702, Note_off_c, 0, 71, 74
2, 54702, Note_on_c, 0, 70, 64
2, 54732, Note_off_c, 0, 70, 62
2, 54732, Note_on_c, 0, 68, 64
2, 54762, Note_off_c, 0, 68, 76
2, 54762, Note_on_c, 0, 66, 64
2, 54792, Note_off_c, 0, 66, 1
2, 54792, Note_on_c, 0, 65, 64
2, 54852, Note_off_c, 0, 65, 1
2, 54852, Note_on_c, 0, 66, 64
2, 54912, Note_off_c, 0, 66, 72
2, 54912, Note_on_c, 0, 68, 64
2, 54972, Note_off_c, 0, 68, 85
2, 54972, Note_on_c, 0, 65, 64
2, 55032, Note_off_c, 0, 65, 72
2, 55032, Note_on_c, 0, 62, 56
2, 55392, Note_on_c, 0, 59, 64
2, 55452, Note_off_c, 0, 59, 50
2, 55452, Note_on_c, 0, 58, 64
2, 55512, Note_off_c, 0, 58, 47
2, 55512, Note_on_c, 0, 59, 64
2, 55872, Note_off_c, 0, 59, 50
2, 55872, Note_on_c, 0, 56, 64
2, 55992, Note_off_c, 0, 56, 28
2, 55992, Note_on_c, 0, 53, 64
2, 56342, Note_off_c, 0, 62, 64
2, 56355, Note_on_c, 0, 62, 64
2, 56475, Note_off_c, 0, 62, 58
2, 56475, Note_off_c, 0, 53, 26
2, 56475, Note_on_c, 0, 55, 56
2, 56475, Note_on_c, 0, 58, 56
2, 56475, Note_on_c, 0, 63, 64
2, 57915, Note_off_c, 0, 63, 58
2, 57915, Note_off_c, 0, 58, 68
2, 57915, Note_off_c, 0, 55, 61
2, 57915, End_track
3, 0, Start_track
3, 0, Text_t, "LH B"
3, 5160, Note_on_c, 1, 58, 64
3, 5280, Note_off_c, 1, 58, 61
3, 5280, Note_on_c, 1, 54, 64
3, 5640, Note_off_c, 1, 54, 58
3, 5640, Note_on_c, 1, 51, 64
3, 5760, Note_off_c, 1, 51, 51
3, 5760, Note_on_c, 1, 46, 64
3, 6230, Note_off_c, 1, 46, 72
3, 6243, Note_on_c, 1, 46, 56
3, 6256, Note_on_c, 1, 49, 56
3, 6269, Note_on_c, 1, 54, 56
3, 6282, Note_on_c, 1, 58, 56
3, 6722, Note_off_c, 1, 58, 68
3, 6722, Note_off_c, 1, 54, 55
3, 6722, Note_off_c, 1, 49, 68
3, 6722, Note_off_c, 1, 46, 61
3, 6735, Note_on_c, 1, 46, 56
3, 6748, Note_on_c, 1, 49, 56
3, 6761, Note_on_c, 1, 54, 56
3, 6774, Note_on_c, 1, 58, 56
3, 7214, Note_off_c, 1, 58, 59
3, 7214, Note_off_c, 1, 54, 50
3, 7214, Note_off_c, 1, 49, 61
3, 7214, Note_off_c, 1, 46, 46
3, 7227, Note_on_c, 1, 47, 56
3, 7240, Note_on_c, 1, 51, 56
3, 7253, Note_on_c, 1, 54, 56
3, 7266, Note_on_c, 1, 59, 56
3, 7706, Note_off_c, 1, 54, 51
3, 7706, Note_off_c, 1, 51, 63
3, 7706, Note_off_c, 1, 47, 54
3, 7726, Note_off_c, 1, 59, 50
3, 8076, Note_on_c, 1, 54, 64
3, 8196, Note_off_c, 1, 54, 46
3, 8196, Note_on_c, 1, 51, 64
3, 8556, Note_off_c, 1, 51, 53
3, 8556, Note_on_c, 1, 47, 64
3, 8676, Note_off_c, 1, 47, 44
3, 8676, Note_on_c, 1, 43, 64
3, 9146, Note_off_c, 1, 43, 35
3, 9159, Note_on_c, 1, 43, 56
3, 9172, Note_on_c, 1, 46, 56
3, 9185, Note_on_c, 1, 51, 56
3, 9198, Note_on_c, 1, 55, 56
3, 9638, Note_off_c, 1, 55, 62
3, 9638, Note_off_c, 1, 51, 68
3, 9638, Note_off_c, 1, 46, 59
3, 9638, Note_off_c, 1, 43, 61
3, 9651, Note_on_c, 1, 43, 56
3, 9664, Note_on_c, 1, 46, 56
3, 9677, Note_on_c, 1, 51, 56
3, 9690, Note_on_c, 1, 55, 56
3, 10130, Note_off_c, 1, 55, 36
3, 10130, Note_off_c, 1, 51, 63
3, 10130, Note_off_c, 1, 46, 51
3, 10130, Note_off_c, 1, 43, 68
3, 10143, Note_on_c, 1, 44, 56
3, 10156, Note_on_c, 1, 47, 56
3, 10169, Note_on_c, 1, 51, 56
3, 10182, Note_on_c, 1, 56, 56
3, 10622, Note_off_c, 1, 56, 68
3, 10622, Note_off_c, 1, 51, 74
3, 10622, Note_off_c, 1, 47, 61
3, 10622, Note_off_c, 1, 44, 76
3, 14475, Note_on_c, 1, 57, 64
3, 14945, Note_off_c, 1, 57, 66
3, 14958, Note_on_c, 1, 57, 56
3, 14971, Note_on_c, 1, 60, 56
3, 14984, Note_on_c, 1, 65, 56
3, 15434, Note_off_c, 1, 65, 1
3, 15434, Note_off_c, 1, 60, 69
3, 15434, Note_off_c, 1, 57, 61
3, 15447, Note_on_c, 1, 57, 56
3, 15460, Note_on_c, 1, 60, 56
3, 15473, Note_on_c, 1, 65, 56
3, 15923, Note_off_c, 1, 65, 1
3, 15923, Note_off_c, 1, 60, 63
3, 15923, Note_off_c, 1, 57, 48
3, 15936, Note_on_c, 1, 58, 56
3, 15949, Note_on_c, 1, 61, 56
3, 15962, Note_on_c, 1, 65, 56
3, 16412, Note_off_c, 1, 65, 1
3, 16412, Note_off_c, 1, 61, 79
3, 16412, Note_off_c, 1, 58, 73
3, 16425, Note_on_c, 1, 58, 56
3, 16438, Note_on_c, 1, 61, 56
3, 16451, Note_on_c, 1, 65, 56
3, 16901, Note_off_c, 1, 65, 52
3, 16901, Note_off_c, 1, 61, 74
3, 16901, Note_off_c, 1, 58, 68
3, 16914, Note_on_c, 1, 58, 56
3, 16927, Note_on_c, 1, 61, 56
3, 16940, Note_on_c, 1, 65, 56
3, 17390, Note_off_c, 1, 65, 55
3, 17390, Note_off_c, 1, 61, 70
3, 17390, Note_off_c, 1, 58, 59
3, 17403, Note_on_c, 1, 51, 56
3, 17416, Note_on_c, 1, 58, 56
3, 17429, Note_on_c, 1, 61, 56
3, 17879, Note_off_c, 1, 61, 68
3, 17879, Note_off_c, 1, 58, 66
3, 17879, Note_off_c, 1, 51, 59
3, 17892, Note_on_c, 1, 51, 56
3, 17905, Note_on_c, 1, 58, 56
3, 17918, Note_on_c, 1, 60, 56
3, 18368, Note_off_c, 1, 60, 62
3, 18368, Note_off_c, 1, 58, 61
3, 18368, Note_off_c, 1, 51, 43
3, 18381, Note_on_c, 1, 51, 56
3, 18394, Note_on_c, 1, 58, 56
3, 18407, Note_on_c, 1, 60, 56
3, 18857, Note_off_c, 1, 60, 52
3, 18857, Note_off_c, 1, 58, 54
3, 18857, Note_off_c, 1, 51, 32
3, 18870, Note_on_c, 1, 51, 56
3, 18883, Note_on_c, 1, 57, 56
3, 18896, Note_on_c, 1, 60, 56
3, 19346, Note_off_c, 1, 60, 45
3, 19346, Note_off_c, 1, 57, 53
3, 19346, Note_off_c, 1, 51, 40
3, 19359, Note_on_c, 1, 49, 56
3, 19372, Note_on_c, 1, 53, 56
3, 19385, Note_on_c, 1, 58, 56
3, 19835, Note_off_c, 1, 58, 58
3, 19835, Note_off_c, 1, 53, 57
3, 19835, Note_off_c, 1, 49, 47
3, 19848, Note_on_c, 1, 58, 56
3, 19848, Note_on_c, 1, 51, 56
3, 20318, Note_off_c, 1, 51, 57
3, 20318, Note_off_c, 1, 58, 63
3, 20331, Note_on_c, 1, 53, 56
3, 20801, Note_off_c, 1, 53, 61
3, 20814, Note_on_c, 1, 41, 56
3, 20814, Note_on_c, 1, 53, 56
3, 21284, Note_off_c, 1, 53, 61
3, 21284, Note_off_c, 1, 41, 50
3, 21297, Note_on_c, 1, 41, 56
3, 21297, Note_on_c, 1, 53, 56
3, 21767, Note_off_c, 1, 53, 62
3, 21767, Note_off_c, 1, 41, 58
3, 21780, Note_on_c, 1, 58, 56
3, 21780, Note_on_c, 1, 53, 56
3, 21780, Note_on_c, 1, 46, 56
3, 22250, Note_off_c, 1, 46, 72
3, 22250, Note_off_c, 1, 53, 54
3, 22250, Note_off_c, 1, 58, 68
3, 22620, Note_on_c, 1, 46, 64
3, 22740, Note_off_c, 1, 46, 43
3, 22740, Note_on_c, 1, 49, 64
3, 23100, Note_off_c, 1, 49, 61
3, 23100, Note_on_c, 1, 53, 64
3, 23220, Note_off_c, 1, 53, 63
3, 23220, Note_on_c, 1, 43, 64
3, 24000, Note_off_c, 1, 43, 51
3, 24000, Note_on_c, 1, 46, 64
3, 24060, Note_off_c, 1, 46, 66
3, 24060, Note_on_c, 1, 44, 64
3, 24120, Note_off_c, 1, 44, 63
3, 24120, Note_on_c, 1, 43, 64
3, 24180, Note_off_c, 1, 43, 49
3, 24180, Note_on_c, 1, 49, 64
3, 25020, Note_off_c, 1, 49, 77
3, 25020, Note_on_c, 1, 47, 64
3, 25080, Note_off_c, 1, 47, 46
3, 25080, Note_on_c, 1, 46, 64
3, 25140, Note_off_c, 1, 46, 59
3, 25140, Note_on_c, 1, 52, 64
3, 25260, Note_off_c, 1, 52, 63
3, 25260, Note_on_c, 1, 51, 64
3, 25380, Note_off_c, 1, 51, 53
3, 25380, Note_on_c, 1, 52, 64
3, 25500, Note_off_c, 1, 52, 52
3, 25500, Note_on_c, 1, 49, 64
3, 25620, Note_off_c, 1, 49, 57
3, 25620, Note_on_c, 1, 47, 64
3, 25680, Note_off_c, 1, 47, 46
3, 25680, Note_on_c, 1, 46, 64
3, 25740, Note_off_c, 1, 46, 55
3, 25740, Note_on_c, 1, 44, 64
3, 25800, Note_off_c, 1, 44, 57
3, 25800, Note_on_c, 1, 46, 64
3, 25860, Note_off_c, 1, 46, 51
3, 25860, Note_on_c, 1, 47, 64
3, 25920, Note_off_c, 1, 47, 73
3, 25920, Note_on_c, 1, 44, 64
3, 25980, Note_off_c, 1, 44, 57
3, 25980, Note_on_c, 1, 46, 64
3, 26040, Note_off_c, 1, 46, 50
3, 26040, Note_on_c, 1, 47, 64
3, 26100, Note_off_c, 1, 47, 52
3, 26100, Note_on_c, 1, 40, 64
3, 26400, Note_off_c, 1, 40, 53
3, 26400, Note_on_c, 1, 52, 64
3, 26460, Note_off_c, 1, 52, 68
3, 26460, Note_on_c, 1, 51, 64
3, 26520, Note_off_c, 1, 51, 58
3, 26520, Note_on_c, 1, 49, 64
3, 26580, Note_off_c, 1, 49, 62
3, 26580, Note_on_c, 1, 51, 64
3, 26940, Note_off_c, 1, 51, 59
3, 26940, Note_on_c, 1, 49, 64
3, 27060, Note_off_c, 1, 49, 62
3, 27060, Note_on_c, 1, 51, 64
3, 27420, Note_off_c, 1, 51, 57
3, 27420, Note_on_c, 1, 39, 64
3, 27540, Note_off_c, 1, 39, 51
3, 27540, Note_on_c, 1, 44, 64
3, 28020, Note_off_c, 1, 44, 62
3, 28380, Note_on_c, 1, 59, 64
3, 28500, Note_off_c, 1, 59, 46
3, 28500, Note_on_c, 1, 53, 64
3, 28860, Note_off_c, 1, 53, 45
3, 28860, Note_on_c, 1, 54, 64
3, 28920, Note_off_c, 1, 54, 59
3, 28920, Note_on_c, 1, 56, 64
3, 28980, Note_off_c, 1, 56, 52
3, 28980, Note_on_c, 1, 50, 64
3, 29340, Note_off_c, 1, 50, 50
3, 29340, Note_on_c, 1, 51, 64
3, 29400, Note_off_c, 1, 51, 53
3, 29400, Note_on_c, 1, 53, 64
3, 29460, Note_off_c, 1, 53, 58
3, 29460, Note_on_c, 1, 46, 64
3, 29820, Note_off_c, 1, 46, 62
3, 29820, Note_on_c, 1, 56, 64
3, 29940, Note_off_c, 1, 56, 53
3, 29940, Note_on_c, 1, 50, 64
3, 30300, Note_off_c, 1, 50, 65
3, 30300, Note_on_c, 1, 51, 64
3, 30360, Note_off_c, 1, 51, 52
3, 30360, Note_on_c, 1, 53, 64
3, 30420, Note_off_c, 1, 53, 52
3, 30420, Note_on_c, 1, 42, 64
3, 30900, Note_off_c, 1, 42, 61
3, 30900, Note_on_c, 1, 43, 64
3, 31260, Note_off_c, 1, 43, 46
3, 31260, Note_on_c, 1, 58, 64
3, 31380, Note_off_c, 1, 58, 61
3, 31380, Note_on_c, 1, 55, 64
3, 31740, Note_off_c, 1, 55, 62
3, 31740, Note_on_c, 1, 51, 64
3, 31860, Note_off_c, 1, 51, 55
3, 31860, Note_on_c, 1, 44, 64
3, 32340, Note_off_c, 1, 44, 58
3, 32700, Note_on_c, 1, 59, 64
3, 32820, Note_off_c, 1, 59, 44
3, 32820, Note_on_c, 1, 56, 64
3, 33180, Note_off_c, 1, 56, 43
3, 33180, Note_on_c, 1, 53, 64
3, 33290, Note_off_c, 1, 53, 49
3, 33303, Note_on_c, 1, 50, 64
3, 33316, Note_on_c, 1, 53, 56
3, 33329, Note_on_c, 1, 56, 56
3, 33779, Note_off_c, 1, 56, 58
3, 33779, Note_off_c, 1, 53, 65
3, 33779, Note_off_c, 1, 50, 49
3, 33792, Note_on_c, 1, 49, 56
3, 33805, Note_on_c, 1, 53, 56
3, 33818, Note_on_c, 1, 58, 56
3, 34268, Note_off_c, 1, 58, 53
3, 34268, Note_off_c, 1, 53, 40
3, 34268, Note_off_c, 1, 49, 37
3, 34281, Note_on_c, 1, 49, 56
3, 34294, Note_on_c, 1, 53, 56
3, 34307, Note_on_c, 1, 58, 56
3, 34757, Note_off_c, 1, 58, 55
3, 34757, Note_off_c, 1, 53, 63
3, 34757, Note_off_c, 1, 49, 51
3, 34770, Note_on_c, 1, 51, 56
3, 34783, Note_on_c, 1, 54, 56
3, 34796, Note_on_c, 1, 58, 56
3, 35246, Note_off_c, 1, 58, 63
3, 35246, Note_off_c, 1, 54, 65
3, 35246, Note_off_c, 1, 51, 52
3, 35259, Note_on_c, 1, 51, 56
3, 35272, Note_on_c, 1, 54, 56
3, 35285, Note_on_c, 1, 58, 56
3, 35735, Note_off_c, 1, 58, 62
3, 35735, Note_off_c, 1, 54, 65
3, 35735, Note_off_c, 1, 51, 54
3, 35748, Note_on_c, 1, 51, 56
3, 35761, Note_on_c, 1, 54, 56
3, 35774, Note_on_c, 1, 58, 56
3, 36224, Note_off_c, 1, 58, 54
3, 36224, Note_off_c, 1, 54, 50
3, 36224, Note_off_c, 1, 51, 41
3, 36237, Note_on_c, 1, 44, 56
3, 36250, Note_on_c, 1, 47, 56
3, 36263, Note_on_c, 1, 52, 56
3, 36276, Note_on_c, 1, 56, 56
3, 36716, Note_off_c, 1, 56, 66
3, 36716, Note_off_c, 1, 52, 65
3, 36716, Note_off_c, 1, 47, 63
3, 36716, Note_off_c, 1, 44, 62
3, 37686, Note_on_c, 1, 44, 56
3, 37686, Note_on_c, 1, 53, 56
3, 37686, Note_on_c, 1, 58, 56
3, 38166, Note_off_c, 1, 58, 61
3, 38166, Note_off_c, 1, 53, 63
3, 38166, Note_off_c, 1, 44, 65
3, 39606, Note_on_c, 1, 46, 56
3, 39619, Note_on_c, 1, 51, 56
3, 39632, Note_on_c, 1, 54, 56
3, 39645, Note_on_c, 1, 58, 56
3, 40085, Note_off_c, 1, 58, 55
3, 40085, Note_off_c, 1, 54, 50
3, 40085, Note_off_c, 1, 51, 37
3, 40085, Note_off_c, 1, 46, 49
3, 40098, Note_on_c, 1, 46, 56
3, 40111, Note_on_c, 1, 53, 56
3, 40124, Note_on_c, 1, 56, 56
3, 40137, Note_on_c, 1, 58, 56
3, 40577, Note_off_c, 1, 58, 55
3, 40577, Note_off_c, 1, 56, 57
3, 40577, Note_off_c, 1, 53, 50
3, 40577, Note_off_c, 1, 46, 62
3, 40590, Note_on_c, 1, 59, 56
3, 40590, Note_on_c, 1, 47, 56
3, 41060, Note_off_c, 1, 47, 63
3, 41060, Note_off_c, 1, 59, 55
3, 41073, Note_on_c, 1, 59, 56
3, 41073, Note_on_c, 1, 63, 56
3, 41543, Note_off_c, 1, 63, 46
3, 41543, Note_off_c, 1, 59, 48
3, 41556, Note_on_c, 1, 59, 56
3, 41556, Note_on_c, 1, 63, 56
3, 42026, Note_off_c, 1, 63, 28
3, 42026, Note_off_c, 1, 59, 40
3, 42039, Note_on_c, 1, 63, 56
3, 42039, Note_on_c, 1, 58, 56
3, 42039, Note_on_c, 1, 55, 56
3, 42509, Note_off_c, 1, 55, 46
3, 42509, Note_off_c, 1, 58, 70
3, 42509, Note_off_c, 1, 63, 58
3, 42522, Note_on_c, 1, 63, 56
3, 42522, Note_on_c, 1, 58, 56
3, 42522, Note_on_c, 1, 55, 56
3, 42992, Note_off_c, 1, 55, 46
3, 42992, Note_off_c, 1, 58, 59
3, 42992, Note_off_c, 1, 63, 52
3, 43005, Note_on_c, 1, 63, 56
3, 43005, Note_on_c, 1, 58, 56
3, 43005, Note_on_c, 1, 55, 56
3, 43475, Note_off_c, 1, 55, 40
3, 43475, Note_off_c, 1, 58, 61
3, 43475, Note_off_c, 1, 63, 43
3, 43488, Note_on_c, 1, 56, 56
3, 43488, Note_on_c, 1, 59, 56
3, 43958, Note_off_c, 1, 59, 62
3, 43958, Note_off_c, 1, 56, 43
3, 43971, Note_on_c, 1, 52, 56
3, 44441, Note_off_c, 1, 52, 58
3, 44454, Note_on_c, 1, 52, 56
3, 44924, Note_off_c, 1, 52, 46
3, 44937, Note_on_c, 1, 53, 64
3, 45717, Note_off_c, 1, 53, 59
3, 45717, Note_on_c, 1, 54, 64
3, 45777, Note_off_c, 1, 54, 54
3, 45777, Note_on_c, 1, 53, 64
3, 45837, Note_off_c, 1, 53, 54
3, 45837, Note_on_c, 1, 51, 64
3, 45897, Note_off_c, 1, 51, 52
3, 45897, Note_on_c, 1, 53, 64
3, 46077, Note_off_c, 1, 53, 59
3, 46077, Note_on_c, 1, 54, 64
3, 46137, Note_off_c, 1, 54, 54
3, 46137, Note_on_c, 1, 56, 64
3, 46197, Note_off_c, 1, 56, 53
3, 46197, Note_on_c, 1, 53, 64
3, 46257, Note_off_c, 1, 53, 48
3, 46257, Note_on_c, 1, 54, 64
3, 46317, Note_off_c, 1, 54, 55
3, 46317, Note_on_c, 1, 56, 64
3, 46377, Note_off_c, 1, 56, 52
3, 46377, Note_on_c, 1, 50, 64
3, 47157, Note_off_c, 1, 50, 41
3, 47157, Note_on_c, 1, 51, 64
3, 47217, Note_off_c, 1, 51, 49
3, 47217, Note_on_c, 1, 50, 64
3, 47277, Note_off_c, 1, 50, 49
3, 47277, Note_on_c, 1, 48, 64
3, 47337, Note_off_c, 1, 48, 34
3, 47337, Note_on_c, 1, 50, 64
3, 47517, Note_off_c, 1, 50, 65
3, 47517, Note_on_c, 1, 51, 64
3, 47577, Note_off_c, 1, 51, 52
3, 47577, Note_on_c, 1, 53, 64
3, 47637, Note_off_c, 1, 53, 62
3, 47637, Note_on_c, 1, 50, 64
3, 47697, Note_off_c, 1, 50, 59
3, 47697, Note_on_c, 1, 51, 64
3, 47757, Note_off_c, 1, 51, 53
3, 47757, Note_on_c, 1, 53, 64
3, 47817, Note_off_c, 1, 53, 68
3, 47817, Note_on_c, 1, 47, 64
3, 48597, Note_off_c, 1, 47, 49
3, 48597, Note_on_c, 1, 49, 64
3, 48657, Note_off_c, 1, 49, 65
3, 48657, Note_on_c, 1, 47, 64
3, 48717, Note_off_c, 1, 47, 38
3, 48717, Note_on_c, 1, 46, 64
3, 48777, Note_off_c, 1, 46, 63
3, 48777, Note_on_c, 1, 47, 64
3, 48837, Note_off_c, 1, 47, 42
3, 48837, Note_on_c, 1, 46, 64
3, 48897, Note_off_c, 1, 46, 52
3, 48897, Note_on_c, 1, 44, 64
3, 48957, Note_off_c, 1, 44, 54
3, 48957, Note_on_c, 1, 46, 64
3, 49017, Note_off_c, 1, 46, 62
3, 49017, Note_on_c, 1, 47, 64
3, 49077, Note_off_c, 1, 47, 69
3, 49077, Note_on_c, 1, 44, 64
3, 49137, Note_off_c, 1, 44, 53
3, 49137, Note_on_c, 1, 46, 64
3, 49197, Note_off_c, 1, 46, 50
3, 49197, Note_on_c, 1, 47, 64
3, 49257, Note_off_c, 1, 47, 69
3, 49257, Note_on_c, 1, 38, 64
3, 49737, Note_off_c, 1, 38, 76
3, 51057, Note_on_c, 1, 51, 56
3, 51057, Note_on_c, 1, 39, 56
3, 51167, Note_off_c, 1, 51, 59
3, 51180, Note_off_c, 1, 39, 43
3, 51180, Note_on_c, 1, 51, 56
3, 51180, Note_on_c, 1, 54, 56
3, 51180, Note_on_c, 1, 46, 56
3, 51650, Note_off_c, 1, 46, 57
3, 51650, Note_off_c, 1, 54, 57
3, 51650, Note_off_c, 1, 51, 57
3, 51663, Note_on_c, 1, 53, 56
3, 51663, Note_on_c, 1, 56, 56
3, 51663, Note_on_c, 1, 46, 56
3, 52133, Note_off_c, 1, 46, 65
3, 52133, Note_off_c, 1, 56, 58
3, 52133, Note_off_c, 1, 53, 58
3, 52146, Note_on_c, 1, 51, 56
3, 52159, Note_on_c, 1, 55, 56
3, 52172, Note_on_c, 1, 58, 56
3, 52185, Note_on_c, 1, 61, 56
3, 52625, Note_off_c, 1, 61, 69
3, 52625, Note_off_c, 1, 58, 55
3, 52625, Note_off_c, 1, 55, 58
3, 52625, Note_off_c, 1, 51, 65
3, 52638, Note_on_c, 1, 51, 56
3, 52651, Note_on_c, 1, 55, 56
3, 52664, Note_on_c, 1, 58, 56
3, 52677, Note_on_c, 1, 61, 56
3, 53117, Note_off_c, 1, 61, 73
3, 53117, Note_off_c, 1, 58, 65
3, 53117, Note_off_c, 1, 55, 59
3, 53117, Note_off_c, 1, 51, 69
3, 53130, Note_on_c, 1, 51, 56
3, 53143, Note_on_c, 1, 55, 56
3, 53156, Note_on_c, 1, 58, 56
3, 53169, Note_on_c, 1, 61, 56
3, 53609, Note_off_c, 1, 61, 73
3, 53609, Note_off_c, 1, 58, 68
3, 53609, Note_off_c, 1, 55, 53
3, 53609, Note_off_c, 1, 51, 69
3, 53622, Note_on_c, 1, 56, 56
3, 53622, Note_on_c, 1, 51, 56
3, 54092, Note_off_c, 1, 51, 69
3, 54092, Note_off_c, 1, 56, 61
3, 54105, Note_on_c, 1, 51, 56
3, 54105, Note_on_c, 1, 56, 56
3, 54575, Note_off_c, 1, 56, 63
3, 54575, Note_off_c, 1, 51, 69
3, 54588, Note_on_c, 1, 56, 56
3, 54588, Note_on_c, 1, 51, 56
3, 55058, Note_off_c, 1, 51, 65
3, 55058, Note_off_c, 1, 56, 57
3, 55071, Note_on_c, 1, 53, 56
3, 55071, Note_on_c, 1, 51, 56
3, 55541, Note_off_c, 1, 51, 65
3, 55541, Note_off_c, 1, 53, 58
3, 55554, Note_on_c, 1, 53, 56
3, 55554, Note_on_c, 1, 51, 56
3, 56024, Note_off_c, 1, 51, 58
3, 56024, Note_off_c, 1, 53, 49
3, 56037, Note_on_c, 1, 51, 56
3, 56507, Note_off_c, 1, 51, 66
3, 56520, Note_on_c, 1, 51, 56
3, 56520, Note_on_c, 1, 39, 56
3, 56520, Note_on_c, 1, 46, 56
3, 57960, Note_off_c, 1, 46, 77
3, 57960, Note_off_c, 1, 39, 79
3, 57960, Note_off_c, 1, 51, 74
3, 57960, End_track
0, 0, End_of_file
