0, 0, Header, 1, 5, 240
1, 0, Start_track
1, 0, Time_signature, 4, 2, 24, 8
1, 0, Tempo, 750000
1, 37680, Tempo, 779221
1, 37920, Tempo, 833333
1, 38040, Tempo, 895522
1, 38160, Tempo, 967742
1, 38280, Tempo, 1111111
1, 38400, Tempo, 750000
1, 38400, End_track
2, 0, Start_track
2, 0, Text_t, "RH H"
2, 4080, Note_on_c, 0, 68, 64
2, 4320, Note_off_c, 0, 68, 61
2, 4320, Note_on_c, 0, 67, 64
2, 4440, Note_off_c, 0, 67, 16
2, 4440, Note_on_c, 0, 68, 64
2, 4500, Note_off_c, 0, 68, 68
2, 4500, Note_on_c, 0, 70, 64
2, 4560, Note_off_c, 0, 70, 62
2, 4560, Note_on_c, 0, 71, 64
2, 4680, Note_off_c, 0, 71, 62
2, 4680, Note_on_c, 0, 70, 64
2, 4800, Note_off_c, 0, 70, 58
2, 4800, Note_on_c, 0, 68, 64
2, 4920, Note_off_c, 0, 68, 74
2, 4920, Note_on_c, 0, 74, 64
2, 5040, Note_off_c, 0, 74, 73
2, 5040, Note_on_c, 0, 75, 64
2, 5160, Note_off_c, 0, 75, 62
2, 5160, Note_on_c, 0, 66, 64
2, 5280, Note_off_c, 0, 66, 55
2, 5280, Note_on_c, 0, 68, 64
2, 5400, Note_off_c, 0, 68, 73
2, 5400, Note_on_c, 0, 68, 64
2, 5520, Note_off_c, 0, 68, 73
2, 5520, Note_on_c, 0, 70, 64
2, 5640, Note_off_c, 0, 70, 77
2, 5640, Note_on_c, 0, 70, 64
2, 5760, Note_off_c, 0, 70, 79
2, 5880, Note_on_c, 0, 65, 64
2, 6000, Note_off_c, 0, 65, 26
2, 6000, Note_on_c, 0, 66, 64
2, 6360, Note_off_c, 0, 66, 53
2, 6360, Note_on_c, 0, 64, 64
2, 6420, Note_off_c, 0, 64, 26
2, 6420, Note_on_c, 0, 66, 64
2, 6480, Note_off_c, 0, 66, 62
2, 6480, Note_on_c, 0, 68, 64
2, 6600, Note_off_c, 0, 68, 58
2, 6600, Note_on_c, 0, 67, 64
2, 6660, Note_off_c, 0, 67, 49
2, 6660, Note_on_c, 0, 68, 64
2, 6720, Note_off_c, 0, 68, 74
2, 6720, Note_on_c, 0, 70, 64
2, 6840, Note_off_c, 0, 70, 66
2, 6840, Note_on_c, 0, 68, 64
2, 6900, Note_off_c, 0, 68, 63
2, 6900, Note_on_c, 0, 70, 64
2, 6960, Note_off_c, 0, 70, 53
2, 6960, Note_on_c, 0, 71, 64
2, 7080, Note_off_c, 0, 71, 63
2, 7080, Note_on_c, 0, 68, 64
2, 7200, Note_off_c, 0, 68, 59
2, 7200, Note_on_c, 0, 70, 64
2, 7320, Note_off_c, 0, 70, 52
2, 7440, Note_on_c, 0, 67, 64
2, 7560, Note_off_c, 0, 67, 52
2, 7680, Note_on_c, 0, 68, 64
2, 7800, Note_off_c, 0, 68, 69
2, 7800, Note_on_c, 0, 70, 64
2, 7920, Note_off_c, 0, 70, 51
2, 7920, Note_on_c, 0, 71, 64
2, 8160, Note_off_c, 0, 71, 46
2, 8160, Note_on_c, 0, 73, 64
2, 8280, Note_off_c, 0, 73, 49
2, 8400, Note_on_c, 0, 70, 64
2, 8520, Note_off_c, 0, 70, 58
2, 8640, Note_on_c, 0, 71, 64
2, 8760, Note_off_c, 0, 71, 46
2, 8760, Note_on_c, 0, 75, 64
2, 8820, Note_off_c, 0, 75, 41
2, 8820, Note_on_c, 0, 74, 64
2, 8880, Note_off_c, 0, 74, 62
2, 8880, Note_on_c, 0, 75, 64
2, 9120, Note_off_c, 0, 75, 45
2, 9120, Note_on_c, 0, 76, 64
2, 9240, Note_off_c, 0, 76, 29
2, 9360, Note_on_c, 0, 74, 64
2, 9480, Note_off_c, 0, 74, 45
2, 9600, Note_on_c, 0, 75, 64
2, 9720, Note_off_c, 0, 75, 45
2, 9720, Note_on_c, 0, 77, 64
2, 9840, Note_off_c, 0, 77, 52
2, 9840, Note_on_c, 0, 78, 64
2, 10200, Note_off_c, 0, 78, 55
2, 10200, Note_on_c, 0, 76, 64
2, 10260, Note_off_c, 0, 76, 35
2, 10260, Note_on_c, 0, 78, 64
2, 10320, Note_off_c, 0, 78, 58
2, 10320, Note_on_c, 0, 80, 64
2, 10440, Note_off_c, 0, 80, 46
2, 10440, Note_on_c, 0, 79, 64
2, 10500, Note_off_c, 0, 79, 49
2, 10500, Note_on_c, 0, 80, 64
2, 10560, Note_off_c, 0, 80, 44
2, 10560, Note_on_c, 0, 82, 64
2, 10680, Note_off_c, 0, 82, 49
2, 10680, Note_on_c, 0, 80, 64
2, 10740, Note_off_c, 0, 80, 76
2, 10740, Note_on_c, 0, 82, 64
2, 10800, Note_off_c, 0, 82, 57
2, 10800, Note_on_c, 0, 83, 64
2, 10920, Note_off_c, 0, 83, 74
2, 10920, Note_on_c, 0, 80, 64
2, 11040, Note_off_c, 0, 80, 59
2, 11040, Note_on_c, 0, 82, 64
2, 11160, Note_off_c, 0, 82, 46
2, 11280, Note_on_c, 0, 79, 64
2, 11400, Note_off_c, 0, 79, 59
2, 11520, Note_on_c, 0, 80, 64
2, 11640, Note_off_c, 0, 80, 49
2, 11640, Note_on_c, 0, 78, 64
2, 11700, Note_off_c, 0, 78, 53
2, 11700, Note_on_c, 0, 76, 64
2, 11760, Note_off_c, 0, 76, 52
2, 11760, Note_on_c, 0, 75, 64
2, 11880, Note_off_c, 0, 75, 55
2, 11880, Note_on_c, 0, 76, 64
2, 12000, Note_off_c, 0, 76, 44
2, 12000, Note_on_c, 0, 78, 64
2, 12120, Note_off_c, 0, 78, 53
2, 12240, Note_on_c, 0, 75, 64
2, 12360, Note_off_c, 0, 75, 49
2, 12480, Note_on_c, 0, 76, 64
2, 12600, Note_off_c, 0, 76, 47
2, 12600, Note_on_c, 0, 75, 64
2, 12660, Note_off_c, 0, 75, 45
2, 12660, Note_on_c, 0, 73, 64
2, 12720, Note_off_c, 0, 73, 66
2, 12720, Note_on_c, 0, 72, 64
2, 12840, Note_off_c, 0, 72, 76
2, 12840, Note_on_c, 0, 73, 64
2, 12960, Note_off_c, 0, 73, 61
2, 12960, Note_on_c, 0, 75, 64
2, 13080, Note_off_c, 0, 75, 45
2, 13200, Note_on_c, 0, 72, 64
2, 13320, Note_off_c, 0, 72, 79
2, 13440, Note_on_c, 0, 73, 64
2, 13680, Note_off_c, 0, 73, 53
2, 14040, Note_on_c, 0, 73, 64
2, 14280, Note_off_c, 0, 73, 58
2, 14280, Note_on_c, 0, 75, 64
2, 14400, Note_off_c, 0, 75, 46
2, 14400, Note_on_c, 0, 76, 64
2, 14640, Note_off_c, 0, 76, 49
2, 14640, Note_on_c, 0, 75, 64
2, 14880, Note_off_c, 0, 75, 46
2, 14880, Note_on_c, 0, 73, 64
2, 15480, Note_off_c, 0, 73, 69
2, 15480, Note_on_c, 0, 79, 64
2, 15600, Note_off_c, 0, 79, 59
2, 15600, Note_on_c, 0, 80, 64
2, 15720, Note_off_c, 0, 80, 61
2, 15720, Note_on_c, 0, 71, 64
2, 15840, Note_off_c, 0, 71, 41
2, 15840, Note_on_c, 0, 70, 64
2, 15960, Note_off_c, 0, 70, 43
2, 15960, Note_on_c, 0, 79, 64
2, 16080, Note_off_c, 0, 79, 65
2, 16080, Note_on_c, 0, 80, 64
2, 16200, Note_off_c, 0, 80, 66
2, 16200, Note_on_c, 0, 73, 64
2, 16320, Note_off_c, 0, 73, 57
2, 16320, Note_on_c, 0, 71, 64
2, 16440, Note_off_c, 0, 71, 39
2, 16440, Note_on_c, 0, 80, 64
2, 16560, Note_off_c, 0, 80, 66
2, 16560, Note_on_c, 0, 78, 64
2, 16680, Note_off_c, 0, 78, 61
2, 16680, Note_on_c, 0, 70, 64
2, 16800, Note_off_c, 0, 70, 62
2, 16800, Note_on_c, 0, 68, 64
2, 16920, Note_off_c, 0, 68, 43
2, 16920, Note_on_c, 0, 78, 64
2, 17040, Note_off_c, 0, 78, 54
2, 17040, Note_on_c, 0, 77, 64
2, 17160, Note_off_c, 0, 77, 54
2, 17160, Note_on_c, 0, 68, 64
2, 17280, Note_off_c, 0, 68, 46
2, 17280, Note_on_c, 0, 66, 64
2, 17520, Note_off_c, 0, 66, 59
2, 22320, Note_on_c, 0, 75, 64
2, 22560, Note_off_c, 0, 75, 47
2, 22560, Note_on_c, 0, 74, 64
2, 22680, Note_off_c, 0, 74, 74
2, 22680, Note_on_c, 0, 75, 64
2, 22740, Note_off_c, 0, 75, 55
2, 22740, Note_on_c, 0, 77, 64
2, 22800, Note_off_c, 0, 77, 74
2, 22800, Note_on_c, 0, 78, 64
2, 22920, Note_off_c, 0, 78, 66
2, 22920, Note_on_c, 0, 77, 64
2, 23040, Note_off_c, 0, 77, 68
2, 23040, Note_on_c, 0, 75, 64
2, 23160, Note_off_c, 0, 75, 65
2, 23160, Note_on_c, 0, 81, 64
2, 23280, Note_off_c, 0, 81, 70
2, 23280, Note_on_c, 0, 82, 64
2, 23400, Note_off_c, 0, 82, 63
2, 23400, Note_on_c, 0, 73, 64
2, 23520, Note_off_c, 0, 73, 63
2, 23520, Note_on_c, 0, 75, 64
2, 23640, Note_off_c, 0, 75, 68
2, 23640, Note_on_c, 0, 75, 64
2, 23760, Note_off_c, 0, 75, 54
2, 23760, Note_on_c, 0, 77, 64
2, 23880, Note_off_c, 0, 77, 70
2, 23880, Note_on_c, 0, 77, 64
2, 24000, Note_off_c, 0, 77, 74
2, 24000, Note_on_c, 0, 70, 64
2, 24120, Note_off_c, 0, 70, 38
2, 24120, Note_on_c, 0, 77, 64
2, 24240, Note_off_c, 0, 77, 46
2, 24240, Note_on_c, 0, 78, 64
2, 24600, Note_off_c, 0, 78, 49
2, 24600, Note_on_c, 0, 82, 64
2, 24720, Note_off_c, 0, 82, 59
2, 24720, Note_on_c, 0, 83, 64
2, 25080, Note_off_c, 0, 83, 36
2, 25080, Note_on_c, 0, 76, 64
2, 25200, Note_off_c, 0, 76, 37
2, 25200, Note_on_c, 0, 75, 64
2, 25440, Note_off_c, 0, 75, 33
2, 25440, Note_on_c, 0, 73, 64
2, 26160, Note_off_c, 0, 73, 49
2, 26160, Note_on_c, 0, 71, 64
2, 26520, Note_off_c, 0, 71, 63
2, 26520, Note_on_c, 0, 70, 64
2, 26580, Note_off_c, 0, 70, 68
2, 26580, Note_on_c, 0, 68, 64
2, 26640, Note_off_c, 0, 68, 63
2, 26640, Note_on_c, 0, 70, 64
2, 26700, Note_off_c, 0, 70, 59
2, 26700, Note_on_c, 0, 66, 64
2, 26760, Note_off_c, 0, 66, 61
2, 26760, Note_on_c, 0, 72, 64
2, 26880, Note_off_c, 0, 72, 72
2, 26880, Note_on_c, 0, 73, 64
2, 27480, Note_off_c, 0, 73, 70
2, 27480, Note_on_c, 0, 71, 64
2, 27540, Note_off_c, 0, 71, 73
2, 27540, Note_on_c, 0, 70, 64
2, 27600, Note_off_c, 0, 70, 70
2, 27600, Note_on_c, 0, 71, 64
2, 27660, Note_off_c, 0, 71, 65
2, 27660, Note_on_c, 0, 68, 64
2, 27720, Note_off_c, 0, 68, 62
2, 27720, Note_on_c, 0, 74, 64
2, 27840, Note_off_c, 0, 74, 65
2, 27840, Note_on_c, 0, 75, 64
2, 27960, Note_off_c, 0, 75, 52
2, 27960, Note_on_c, 0, 73, 64
2, 28020, Note_off_c, 0, 73, 62
2, 28020, Note_on_c, 0, 71, 64
2, 28080, Note_off_c, 0, 71, 62
2, 28080, Note_on_c, 0, 70, 64
2, 28200, Note_off_c, 0, 70, 68
2, 28200, Note_on_c, 0, 71, 64
2, 28320, Note_off_c, 0, 71, 63
2, 28320, Note_on_c, 0, 73, 64
2, 28440, Note_off_c, 0, 73, 63
2, 28560, Note_on_c, 0, 70, 64
2, 28680, Note_off_c, 0, 70, 61
2, 28800, Note_on_c, 0, 71, 64
2, 28920, Note_off_c, 0, 71, 51
2, 28920, Note_on_c, 0, 70, 64
2, 28980, Note_off_c, 0, 70, 59
2, 28980, Note_on_c, 0, 68, 64
2, 29040, Note_off_c, 0, 68, 63
2, 29040, Note_on_c, 0, 67, 64
2, 29160, Note_off_c, 0, 67, 52
2, 29160, Note_on_c, 0, 68, 64
2, 29280, Note_off_c, 0, 68, 62
2, 29280, Note_on_c, 0, 70, 64
2, 29400, Note_off_c, 0, 70, 58
2, 29520, Note_on_c, 0, 67, 64
2, 29640, Note_off_c, 0, 67, 45
2, 29760, Note_on_c, 0, 68, 64
2, 30000, Note_off_c, 0, 68, 69
2, 30360, Note_on_c, 0, 68, 64
2, 30600, Note_off_c, 0, 68, 70
2, 30600, Note_on_c, 0, 70, 64
2, 30720, Note_off_c, 0, 70, 68
2, 30720, Note_on_c, 0, 71, 64
2, 30960, Note_off_c, 0, 71, 66
2, 30960, Note_on_c, 0, 70, 64
2, 31200, Note_off_c, 0, 70, 51
2, 31200, Note_on_c, 0, 68, 64
2, 31920, Note_off_c, 0, 68, 61
2, 31920, Note_on_c, 0, 66, 64
2, 32160, Note_off_c, 0, 66, 53
2, 32160, Note_on_c, 0, 64, 64
2, 32760, Note_off_c, 0, 64, 38
2, 32760, Note_on_c, 0, 63, 64
2, 32880, Note_off_c, 0, 63, 41
2, 32880, Note_on_c, 0, 71, 64
2, 33360, Note_off_c, 0, 71, 58
2, 33360, Note_on_c, 0, 69, 64
2, 33840, Note_off_c, 0, 69, 28
2, 33960, Note_on_c, 0, 68, 64
2, 34080, Note_off_c, 0, 68, 70
2, 34080, Note_on_c, 0, 70, 64
2, 34200, Note_off_c, 0, 70, 72
2, 34200, Note_on_c, 0, 70, 64
2, 34320, Note_off_c, 0, 70, 70
2, 34320, Note_on_c, 0, 72, 64
2, 34440, Note_off_c, 0, 72, 76
2, 34440, Note_on_c, 0, 72, 64
2, 34560, Note_off_c, 0, 72, 44
2, 34560, Note_on_c, 0, 73, 64
2, 34800, Note_off_c, 0, 73, 52
2, 34920, Note_on_c, 0, 73, 64
2, 35040, Note_off_c, 0, 73, 57
2, 35040, Note_on_c, 0, 72, 64
2, 35160, Note_off_c, 0, 72, 72
2, 35160, Note_on_c, 0, 73, 64
2, 35220, Note_off_c, 0, 73, 57
2, 35220, Note_on_c, 0, 75, 64
2, 35280, Note_off_c, 0, 75, 46
2, 35280, Note_on_c, 0, 76, 64
2, 35400, Note_off_c, 0, 76, 52
2, 35400, Note_on_c, 0, 75, 64
2, 35520, Note_off_c, 0, 75, 37
2, 35520, Note_on_c, 0, 73, 64
2, 35640, Note_off_c, 0, 73, 68
2, 35640, Note_on_c, 0, 79, 64
2, 35760, Note_off_c, 0, 79, 61
2, 35760, Note_on_c, 0, 80, 64
2, 35880, Note_off_c, 0, 80, 70
2, 35880, Note_on_c, 0, 71, 64
2, 36000, Note_off_c, 0, 71, 34
2, 36000, Note_on_c, 0, 73, 64
2, 36120, Note_off_c, 0, 73, 69
2, 36120, Note_on_c, 0, 73, 64
2, 36240, Note_off_c, 0, 73, 63
2, 36240, Note_on_c, 0, 75, 64
2, 36360, Note_off_c, 0, 75, 55
2, 36360, Note_on_c, 0, 75, 64
2, 36480, Note_off_c, 0, 75, 54
2, 36480, Note_on_c, 0, 68, 64
2, 36600, Note_off_c, 0, 68, 38
2, 36600, Note_on_c, 0, 72, 64
2, 36720, Note_off_c, 0, 72, 73
2, 36720, Note_on_c, 0, 73, 64
2, 37200, Note_off_c, 0, 73, 68
2, 37200, Note_on_c, 0, 71, 64
2, 37680, Note_off_c, 0, 71, 63
2, 37680, Note_on_c, 0, 70, 64
2, 37800, Note_off_c, 0, 70, 49
2, 37800, Note_on_c, 0, 68, 64
2, 37920, Note_off_c, 0, 68, 57
2, 37920, Note_on_c, 0, 67, 64
2, 38040, Note_off_c, 0, 67, 37
2, 38040, Note_on_c, 0, 68, 64
2, 38280, Note_off_c, 0, 68, 65
2, 38280, Note_on_c, 0, 67, 64
2, 38400, Note_off_c, 0, 67, 37
2, 38400, Note_on_c, 0, 68, 64
2, 39360, Note_off_c, 0, 68, 86
2, 39360, End_track
3, 0, Start_track
3, 0, Text_t, "RH L"
3, 2160, Note_on_c, 1, 63, 64
3, 2400, Note_off_c, 1, 63, 43
3, 2400, Note_on_c, 1, 60, 64
3, 2520, Note_off_c, 1, 60, 24
3, 2520, Note_on_c, 1, 61, 64
3, 2580, Note_off_c, 1, 61, 59
3, 2580, Note_on_c, 1, 63, 64
3, 2640, Note_off_c, 1, 63, 33
3, 2640, Note_on_c, 1, 64, 64
3, 2760, Note_off_c, 1, 64, 52
3, 2760, Note_on_c, 1, 63, 64
3, 2880, Note_off_c, 1, 63, 49
3, 2880, Note_on_c, 1, 61, 64
3, 3000, Note_off_c, 1, 61, 69
3, 3000, Note_on_c, 1, 67, 64
3, 3120, Note_off_c, 1, 67, 65
3, 3120, Note_on_c, 1, 68, 64
3, 3240, Note_off_c, 1, 68, 73
3, 3240, Note_on_c, 1, 59, 64
3, 3360, Note_off_c, 1, 59, 21
3, 3360, Note_on_c, 1, 61, 64
3, 3480, Note_off_c, 1, 61, 59
3, 3480, Note_on_c, 1, 61, 64
3, 3600, Note_off_c, 1, 61, 57
3, 3600, Note_on_c, 1, 63, 64
3, 3720, Note_off_c, 1, 63, 57
3, 3720, Note_on_c, 1, 63, 64
3, 3840, Note_off_c, 1, 63, 53
3, 3840, Note_on_c, 1, 56, 64
3, 4080, Note_off_c, 1, 56, 19
3, 4080, Note_on_c, 1, 61, 64
3, 4440, Note_off_c, 1, 61, 51
3, 4440, Note_on_c, 1, 59, 64
3, 4500, Note_off_c, 1, 59, 34
3, 4500, Note_on_c, 1, 61, 64
3, 4560, Note_off_c, 1, 61, 61
3, 4560, Note_on_c, 1, 63, 64
3, 4680, Note_off_c, 1, 63, 49
3, 4680, Note_on_c, 1, 62, 64
3, 4740, Note_off_c, 1, 62, 48
3, 4740, Note_on_c, 1, 63, 64
3, 4800, Note_off_c, 1, 63, 54
3, 4800, Note_on_c, 1, 65, 64
3, 4920, Note_off_c, 1, 65, 3
3, 4920, Note_on_c, 1, 63, 64
3, 4980, Note_off_c, 1, 63, 52
3, 4980, Note_on_c, 1, 65, 64
3, 5040, Note_off_c, 1, 65, 1
3, 5040, Note_on_c, 1, 66, 64
3, 5160, Note_off_c, 1, 66, 74
3, 5160, Note_on_c, 1, 63, 64
3, 5280, Note_off_c, 1, 63, 55
3, 5280, Note_on_c, 1, 65, 64
3, 5400, Note_off_c, 1, 65, 55
3, 5520, Note_on_c, 1, 62, 64
3, 5640, Note_off_c, 1, 62, 45
3, 5760, Note_on_c, 1, 63, 64
3, 6000, Note_off_c, 1, 63, 63
3, 6120, Note_on_c, 1, 58, 64
3, 6240, Note_off_c, 1, 58, 58
3, 6240, Note_on_c, 1, 56, 64
3, 6480, Note_off_c, 1, 56, 59
3, 6600, Note_on_c, 1, 63, 64
3, 6720, Note_off_c, 1, 63, 43
3, 6720, Note_on_c, 1, 64, 64
3, 6840, Note_off_c, 1, 64, 52
3, 6840, Note_on_c, 1, 63, 64
3, 6960, Note_off_c, 1, 63, 62
3, 7200, Note_on_c, 1, 64, 64
3, 7320, Note_off_c, 1, 64, 38
3, 7440, Note_on_c, 1, 63, 64
3, 7560, Note_off_c, 1, 63, 52
3, 7680, Note_on_c, 1, 63, 64
3, 7920, Note_off_c, 1, 63, 52
3, 8040, Note_on_c, 1, 66, 64
3, 8160, Note_off_c, 1, 66, 72
3, 8160, Note_on_c, 1, 68, 64
3, 8280, Note_off_c, 1, 68, 70
3, 8400, Note_on_c, 1, 66, 64
3, 8520, Note_off_c, 1, 66, 76
3, 8640, Note_on_c, 1, 66, 64
3, 8880, Note_off_c, 1, 66, 79
3, 9000, Note_on_c, 1, 70, 64
3, 9120, Note_off_c, 1, 70, 66
3, 9120, Note_on_c, 1, 71, 64
3, 9240, Note_off_c, 1, 71, 65
3, 9360, Note_on_c, 1, 70, 64
3, 9480, Note_off_c, 1, 70, 68
3, 9600, Note_on_c, 1, 66, 64
3, 9720, Note_off_c, 1, 66, 59
3, 9720, Note_on_c, 1, 68, 64
3, 9840, Note_off_c, 1, 68, 77
3, 9840, Note_on_c, 1, 70, 64
3, 9960, Note_off_c, 1, 70, 59
3, 9960, Note_on_c, 1, 71, 64
3, 10020, Note_off_c, 1, 71, 68
3, 10020, Note_on_c, 1, 70, 64
3, 10080, Note_off_c, 1, 70, 66
3, 10080, Note_on_c, 1, 68, 64
3, 10200, Note_off_c, 1, 68, 66
3, 10200, Note_on_c, 1, 73, 64
3, 10440, Note_off_c, 1, 73, 65
3, 10440, Note_on_c, 1, 75, 64
3, 10560, Note_off_c, 1, 75, 59
3, 10560, Note_on_c, 1, 76, 64
3, 10800, Note_off_c, 1, 76, 57
3, 10800, Note_on_c, 1, 75, 64
3, 11040, Note_off_c, 1, 75, 52
3, 11040, Note_on_c, 1, 73, 64
3, 11760, Note_off_c, 1, 73, 74
3, 11760, Note_on_c, 1, 71, 64
3, 12000, Note_off_c, 1, 71, 69
3, 12000, Note_on_c, 1, 69, 64
3, 12720, Note_off_c, 1, 69, 74
3, 12720, Note_on_c, 1, 68, 64
3, 12960, Note_off_c, 1, 68, 73
3, 12960, Note_on_c, 1, 66, 64
3, 13560, Note_off_c, 1, 66, 70
3, 13560, Note_on_c, 1, 64, 64
3, 13620, Note_off_c, 1, 64, 37
3, 13620, Note_on_c, 1, 66, 64
3, 13680, Note_off_c, 1, 66, 61
3, 13680, Note_on_c, 1, 68, 64
3, 13800, Note_off_c, 1, 68, 70
3, 13800, Note_on_c, 1, 66, 64
3, 13860, Note_off_c, 1, 66, 72
3, 13860, Note_on_c, 1, 64, 64
3, 13920, Note_off_c, 1, 64, 14
3, 13920, Note_on_c, 1, 63, 64
3, 14040, Note_off_c, 1, 63, 36
3, 14040, Note_on_c, 1, 64, 64
3, 14100, Note_off_c, 1, 64, 34
3, 14100, Note_on_c, 1, 66, 64
3, 14160, Note_off_c, 1, 66, 73
3, 14160, Note_on_c, 1, 68, 64
3, 14280, Note_off_c, 1, 68, 72
3, 14280, Note_on_c, 1, 67, 64
3, 14340, Note_off_c, 1, 67, 52
3, 14340, Note_on_c, 1, 68, 64
3, 14400, Note_off_c, 1, 68, 79
3, 14400, Note_on_c, 1, 70, 64
3, 14520, Note_off_c, 1, 70, 77
3, 14520, Note_on_c, 1, 68, 64
3, 14580, Note_off_c, 1, 68, 68
3, 14580, Note_on_c, 1, 70, 64
3, 14640, Note_off_c, 1, 70, 74
3, 14640, Note_on_c, 1, 71, 64
3, 14760, Note_off_c, 1, 71, 74
3, 14760, Note_on_c, 1, 68, 64
3, 14880, Note_off_c, 1, 68, 65
3, 14880, Note_on_c, 1, 70, 64
3, 15000, Note_off_c, 1, 70, 59
3, 15120, Note_on_c, 1, 67, 64
3, 15240, Note_off_c, 1, 67, 58
3, 15360, Note_on_c, 1, 68, 64
3, 15480, Note_off_c, 1, 68, 73
3, 16200, Note_on_c, 1, 67, 64
3, 16320, Note_off_c, 1, 67, 42
3, 16320, Note_on_c, 1, 68, 64
3, 16560, Note_off_c, 1, 68, 73
3, 16680, Note_on_c, 1, 66, 64
3, 16800, Note_off_c, 1, 66, 55
3, 16800, Note_on_c, 1, 64, 64
3, 17040, Note_off_c, 1, 64, 45
3, 17160, Note_on_c, 1, 65, 64
3, 17400, Note_off_c, 1, 65, 53
3, 17400, Note_on_c, 1, 63, 64
3, 17460, Note_off_c, 1, 63, 57
3, 17460, Note_on_c, 1, 62, 64
3, 17520, Note_off_c, 1, 62, 43
3, 17520, Note_on_c, 1, 63, 64
3, 17760, Note_off_c, 1, 63, 52
3, 17760, Note_on_c, 1, 60, 64
3, 17880, Note_off_c, 1, 60, 1
3, 17880, Note_on_c, 1, 61, 64
3, 17940, Note_off_c, 1, 61, 69
3, 17940, Note_on_c, 1, 63, 64
3, 18000, Note_off_c, 1, 63, 52
3, 18000, Note_on_c, 1, 64, 64
3, 18120, Note_off_c, 1, 64, 49
3, 18120, Note_on_c, 1, 63, 64
3, 18240, Note_off_c, 1, 63, 66
3, 18240, Note_on_c, 1, 61, 64
3, 18360, Note_off_c, 1, 61, 70
3, 18360, Note_on_c, 1, 67, 64
3, 18480, Note_off_c, 1, 67, 51
3, 18480, Note_on_c, 1, 68, 64
3, 18600, Note_off_c, 1, 68, 70
3, 18600, Note_on_c, 1, 59, 64
3, 18720, Note_off_c, 1, 59, 30
3, 18720, Note_on_c, 1, 61, 64
3, 18840, Note_off_c, 1, 61, 73
3, 18840, Note_on_c, 1, 61, 64
3, 18960, Note_off_c, 1, 61, 69
3, 18960, Note_on_c, 1, 63, 64
3, 19080, Note_off_c, 1, 63, 52
3, 19080, Note_on_c, 1, 63, 64
3, 19200, Note_off_c, 1, 63, 61
3, 19320, Note_on_c, 1, 67, 64
3, 19440, Note_off_c, 1, 67, 49
3, 19440, Note_on_c, 1, 68, 64
3, 19800, Note_off_c, 1, 68, 76
3, 19800, Note_on_c, 1, 66, 64
3, 19860, Note_off_c, 1, 66, 57
3, 19860, Note_on_c, 1, 65, 64
3, 19920, Note_off_c, 1, 65, 32
3, 19920, Note_on_c, 1, 66, 64
3, 19980, Note_off_c, 1, 66, 68
3, 19980, Note_on_c, 1, 63, 64
3, 20040, Note_off_c, 1, 63, 52
3, 20040, Note_on_c, 1, 69, 64
3, 20160, Note_off_c, 1, 69, 68
3, 20160, Note_on_c, 1, 70, 64
3, 20760, Note_off_c, 1, 70, 66
3, 20760, Note_on_c, 1, 69, 64
3, 20820, Note_off_c, 1, 69, 61
3, 20820, Note_on_c, 1, 67, 64
3, 20880, Note_off_c, 1, 67, 39
3, 20880, Note_on_c, 1, 69, 64
3, 20940, Note_off_c, 1, 69, 62
3, 20940, Note_on_c, 1, 65, 64
3, 21000, Note_off_c, 1, 65, 9
3, 21000, Note_on_c, 1, 70, 64
3, 21120, Note_off_c, 1, 70, 59
3, 21120, Note_on_c, 1, 71, 64
3, 21720, Note_off_c, 1, 71, 66
3, 21720, Note_on_c, 1, 70, 64
3, 21780, Note_off_c, 1, 70, 59
3, 21780, Note_on_c, 1, 69, 64
3, 21840, Note_off_c, 1, 69, 54
3, 21840, Note_on_c, 1, 70, 64
3, 21900, Note_off_c, 1, 70, 79
3, 21900, Note_on_c, 1, 72, 64
3, 21960, Note_off_c, 1, 72, 65
3, 21960, Note_on_c, 1, 73, 64
3, 22200, Note_off_c, 1, 73, 65
3, 22200, Note_on_c, 1, 72, 64
3, 22260, Note_off_c, 1, 72, 62
3, 22260, Note_on_c, 1, 70, 64
3, 22320, Note_off_c, 1, 70, 40
3, 22320, Note_on_c, 1, 69, 64
3, 22380, Note_off_c, 1, 69, 54
3, 22380, Note_on_c, 1, 70, 64
3, 22440, Note_off_c, 1, 70, 46
3, 22440, Note_on_c, 1, 67, 64
3, 22500, Note_off_c, 1, 67, 29
3, 22500, Note_on_c, 1, 69, 64
3, 22560, Note_off_c, 1, 69, 59
3, 22560, Note_on_c, 1, 70, 64
3, 23040, Note_off_c, 1, 70, 70
3, 23160, Note_on_c, 1, 72, 64
3, 23280, Note_off_c, 1, 72, 74
3, 23280, Note_on_c, 1, 73, 64
3, 23400, Note_off_c, 1, 73, 52
3, 23400, Note_on_c, 1, 70, 64
3, 23520, Note_off_c, 1, 70, 52
3, 23520, Note_on_c, 1, 71, 64
3, 23760, Note_off_c, 1, 71, 68
3, 23820, Note_on_c, 1, 58, 64
3, 23880, Note_off_c, 1, 58, 53
3, 23880, Note_on_c, 1, 59, 64
3, 23940, Note_off_c, 1, 59, 23
3, 23940, Note_on_c, 1, 61, 64
3, 24000, Note_off_c, 1, 61, 59
3, 24000, Note_on_c, 1, 63, 64
3, 24240, Note_off_c, 1, 63, 47
3, 24240, Note_on_c, 1, 61, 64
3, 24360, Note_off_c, 1, 61, 73
3, 24360, Note_on_c, 1, 70, 64
3, 24480, Note_off_c, 1, 70, 63
3, 24480, Note_on_c, 1, 71, 64
3, 24720, Note_off_c, 1, 71, 27
3, 24780, Note_on_c, 1, 75, 64
3, 24840, Note_off_c, 1, 75, 55
3, 24840, Note_on_c, 1, 76, 64
3, 24900, Note_off_c, 1, 76, 48
3, 24900, Note_on_c, 1, 78, 64
3, 24960, Note_off_c, 1, 78, 68
3, 24960, Note_on_c, 1, 80, 64
3, 25080, Note_off_c, 1, 80, 51
3, 25320, Note_on_c, 1, 66, 64
3, 25440, Note_off_c, 1, 66, 58
3, 25440, Note_on_c, 1, 68, 64
3, 25560, Note_off_c, 1, 68, 61
3, 25560, Note_on_c, 1, 70, 64
3, 25620, Note_off_c, 1, 70, 59
3, 25620, Note_on_c, 1, 71, 64
3, 25680, Note_off_c, 1, 71, 73
3, 25680, Note_on_c, 1, 64, 64
3, 26040, Note_off_c, 1, 64, 38
3, 26040, Note_on_c, 1, 63, 64
3, 26100, Note_off_c, 1, 63, 55
3, 26100, Note_on_c, 1, 61, 64
3, 26160, Note_off_c, 1, 61, 57
3, 26160, Note_on_c, 1, 63, 64
3, 26220, Note_off_c, 1, 63, 53
3, 26220, Note_on_c, 1, 59, 64
3, 26280, Note_off_c, 1, 59, 22
3, 26280, Note_on_c, 1, 65, 64
3, 26400, Note_off_c, 1, 65, 43
3, 26400, Note_on_c, 1, 66, 64
3, 27000, Note_off_c, 1, 66, 69
3, 27000, Note_on_c, 1, 64, 64
3, 27060, Note_off_c, 1, 64, 32
3, 27060, Note_on_c, 1, 63, 64
3, 27120, Note_off_c, 1, 63, 43
3, 27120, Note_on_c, 1, 64, 64
3, 27180, Note_off_c, 1, 64, 41
3, 27180, Note_on_c, 1, 61, 64
3, 27240, Note_off_c, 1, 61, 61
3, 27240, Note_on_c, 1, 67, 64
3, 27360, Note_off_c, 1, 67, 61
3, 27360, Note_on_c, 1, 68, 64
3, 28080, Note_off_c, 1, 68, 68
3, 28080, Note_on_c, 1, 66, 64
3, 28320, Note_off_c, 1, 66, 70
3, 28320, Note_on_c, 1, 64, 64
3, 29040, Note_off_c, 1, 64, 27
3, 29040, Note_on_c, 1, 63, 64
3, 29280, Note_off_c, 1, 63, 55
3, 29280, Note_on_c, 1, 61, 64
3, 29880, Note_off_c, 1, 61, 57
3, 29880, Note_on_c, 1, 59, 64
3, 29940, Note_off_c, 1, 59, 44
3, 29940, Note_on_c, 1, 61, 64
3, 30000, Note_off_c, 1, 61, 52
3, 30000, Note_on_c, 1, 63, 64
3, 30120, Note_off_c, 1, 63, 52
3, 30120, Note_on_c, 1, 61, 64
3, 30180, Note_off_c, 1, 61, 59
3, 30180, Note_on_c, 1, 59, 64
3, 30240, Note_off_c, 1, 59, 29
3, 30240, Note_on_c, 1, 58, 64
3, 30360, Note_off_c, 1, 58, 61
3, 30360, Note_on_c, 1, 60, 64
3, 30420, Note_off_c, 1, 60, 49
3, 30420, Note_on_c, 1, 61, 64
3, 30480, Note_off_c, 1, 61, 62
3, 30480, Note_on_c, 1, 63, 64
3, 30600, Note_off_c, 1, 63, 52
3, 30600, Note_on_c, 1, 62, 64
3, 30660, Note_off_c, 1, 62, 46
3, 30660, Note_on_c, 1, 63, 64
3, 30720, Note_off_c, 1, 63, 57
3, 30720, Note_on_c, 1, 65, 64
3, 30840, Note_off_c, 1, 65, 58
3, 30840, Note_on_c, 1, 63, 64
3, 30900, Note_off_c, 1, 63, 54
3, 30900, Note_on_c, 1, 65, 64
3, 30960, Note_off_c, 1, 65, 62
3, 30960, Note_on_c, 1, 66, 64
3, 31080, Note_off_c, 1, 66, 77
3, 31080, Note_on_c, 1, 63, 64
3, 31200, Note_off_c, 1, 63, 49
3, 31200, Note_on_c, 1, 65, 64
3, 31320, Note_off_c, 1, 65, 62
3, 31440, Note_on_c, 1, 62, 64
3, 31560, Note_off_c, 1, 62, 43
3, 31680, Note_on_c, 1, 63, 64
3, 31800, Note_off_c, 1, 63, 55
3, 31800, Note_on_c, 1, 61, 64
3, 31860, Note_off_c, 1, 61, 52
3, 31860, Note_on_c, 1, 59, 64
3, 31920, Note_off_c, 1, 59, 24
3, 31920, Note_on_c, 1, 58, 64
3, 32040, Note_off_c, 1, 58, 51
3, 32040, Note_on_c, 1, 59, 64
3, 32160, Note_off_c, 1, 59, 16
3, 32160, Note_on_c, 1, 61, 64
3, 32280, Note_off_c, 1, 61, 59
3, 32400, Note_on_c, 1, 58, 64
3, 32520, Note_off_c, 1, 58, 61
3, 32640, Note_on_c, 1, 59, 64
3, 32880, Note_off_c, 1, 59, 20
3, 33000, Note_on_c, 1, 59, 64
3, 33120, Note_off_c, 1, 59, 38
3, 33120, Note_on_c, 1, 61, 64
3, 33240, Note_off_c, 1, 61, 69
3, 33240, Note_on_c, 1, 61, 64
3, 33360, Note_off_c, 1, 61, 65
3, 33360, Note_on_c, 1, 63, 64
3, 33480, Note_off_c, 1, 63, 59
3, 33480, Note_on_c, 1, 63, 64
3, 33600, Note_off_c, 1, 63, 52
3, 33600, Note_on_c, 1, 64, 64
3, 33660, Note_off_c, 1, 64, 39
3, 33660, Note_on_c, 1, 59, 64
3, 33720, Note_off_c, 1, 59, 20
3, 33720, Note_on_c, 1, 61, 64
3, 33780, Note_off_c, 1, 61, 65
3, 33780, Note_on_c, 1, 63, 64
3, 33840, Note_off_c, 1, 63, 52
3, 33840, Note_on_c, 1, 64, 64
3, 33960, Note_off_c, 1, 64, 52
3, 34080, Note_on_c, 1, 66, 64
3, 34620, Note_off_c, 1, 66, 62
3, 34620, Note_on_c, 1, 63, 64
3, 34680, Note_off_c, 1, 63, 49
3, 34680, Note_on_c, 1, 64, 64
3, 34740, Note_off_c, 1, 64, 41
3, 34740, Note_on_c, 1, 66, 64
3, 34800, Note_off_c, 1, 66, 69
3, 34800, Note_on_c, 1, 68, 64
3, 34920, Note_off_c, 1, 68, 68
3, 34920, Note_on_c, 1, 66, 64
3, 34980, Note_off_c, 1, 66, 69
3, 34980, Note_on_c, 1, 64, 64
3, 35040, Note_off_c, 1, 64, 46
3, 35040, Note_on_c, 1, 63, 64
3, 35160, Note_off_c, 1, 63, 50
3, 35160, Note_on_c, 1, 68, 64
3, 35400, Note_off_c, 1, 68, 72
3, 35400, Note_on_c, 1, 67, 64
3, 35460, Note_off_c, 1, 67, 49
3, 35460, Note_on_c, 1, 68, 64
3, 35520, Note_off_c, 1, 68, 62
3, 35520, Note_on_c, 1, 70, 64
3, 35640, Note_off_c, 1, 70, 73
3, 35640, Note_on_c, 1, 68, 64
3, 35700, Note_off_c, 1, 68, 65
3, 35700, Note_on_c, 1, 70, 64
3, 35760, Note_off_c, 1, 70, 66
3, 35760, Note_on_c, 1, 71, 64
3, 35880, Note_off_c, 1, 71, 61
3, 35880, Note_on_c, 1, 68, 64
3, 36000, Note_off_c, 1, 68, 65
3, 36000, Note_on_c, 1, 69, 64
3, 36120, Note_off_c, 1, 69, 68
3, 36240, Note_on_c, 1, 69, 64
3, 36360, Note_off_c, 1, 69, 63
3, 36480, Note_on_c, 1, 63, 64
3, 36600, Note_off_c, 1, 63, 45
3, 36840, Note_on_c, 1, 68, 64
3, 36960, Note_off_c, 1, 68, 74
3, 36960, Note_on_c, 1, 70, 64
3, 37080, Note_off_c, 1, 70, 66
3, 37200, Note_on_c, 1, 68, 64
3, 37320, Note_off_c, 1, 68, 65
3, 37320, Note_on_c, 1, 66, 64
3, 37440, Note_off_c, 1, 66, 52
3, 37440, Note_on_c, 1, 64, 64
3, 37560, Note_off_c, 1, 64, 34
3, 37560, Note_on_c, 1, 63, 64
3, 37680, Note_off_c, 1, 63, 49
3, 37680, Note_on_c, 1, 61, 64
3, 38040, Note_off_c, 1, 61, 62
3, 38040, Note_on_c, 1, 59, 64
3, 38160, Note_off_c, 1, 59, 34
3, 38160, Note_on_c, 1, 58, 64
3, 38400, Note_off_c, 1, 58, 57
3, 38400, Note_on_c, 1, 60, 64
3, 39360, Note_off_c, 1, 60, 80
3, 39360, End_track
4, 0, Start_track
4, 0, Text_t, "LH H"
4, 240, Note_on_c, 2, 56, 64
4, 480, Note_off_c, 2, 56, 54
4, 480, Note_on_c, 2, 55, 64
4, 600, Note_off_c, 2, 55, 49
4, 600, Note_on_c, 2, 56, 64
4, 660, Note_off_c, 2, 56, 63
4, 660, Note_on_c, 2, 58, 64
4, 720, Note_off_c, 2, 58, 53
4, 720, Note_on_c, 2, 59, 64
4, 840, Note_off_c, 2, 59, 65
4, 840, Note_on_c, 2, 58, 64
4, 960, Note_off_c, 2, 58, 62
4, 960, Note_on_c, 2, 56, 64
4, 1080, Note_off_c, 2, 56, 50
4, 1080, Note_on_c, 2, 62, 64
4, 1200, Note_off_c, 2, 62, 49
4, 1200, Note_on_c, 2, 63, 64
4, 1320, Note_off_c, 2, 63, 42
4, 1320, Note_on_c, 2, 54, 64
4, 1440, Note_off_c, 2, 54, 3
4, 1440, Note_on_c, 2, 56, 64
4, 1560, Note_off_c, 2, 56, 58
4, 1560, Note_on_c, 2, 56, 64
4, 1680, Note_off_c, 2, 56, 53
4, 1680, Note_on_c, 2, 58, 64
4, 1800, Note_off_c, 2, 58, 63
4, 1800, Note_on_c, 2, 58, 64
4, 1920, Note_off_c, 2, 58, 53
4, 1920, Note_on_c, 2, 51, 64
4, 2040, Note_off_c, 2, 51, 52
4, 2040, Note_on_c, 2, 53, 64
4, 2160, Note_off_c, 2, 53, 52
4, 2160, Note_on_c, 2, 54, 64
4, 2520, Note_off_c, 2, 54, 52
4, 2520, Note_on_c, 2, 53, 64
4, 2580, Note_off_c, 2, 53, 69
4, 2580, Note_on_c, 2, 54, 64
4, 2640, Note_off_c, 2, 54, 61
4, 2640, Note_on_c, 2, 56, 64
4, 2760, Note_off_c, 2, 56, 58
4, 2760, Note_on_c, 2, 55, 64
4, 2820, Note_off_c, 2, 55, 54
4, 2820, Note_on_c, 2, 56, 64
4, 2880, Note_off_c, 2, 56, 59
4, 2880, Note_on_c, 2, 58, 64
4, 3000, Note_off_c, 2, 58, 57
4, 3000, Note_on_c, 2, 56, 64
4, 3060, Note_off_c, 2, 56, 52
4, 3060, Note_on_c, 2, 58, 64
4, 3120, Note_off_c, 2, 58, 59
4, 3120, Note_on_c, 2, 59, 64
4, 3240, Note_off_c, 2, 59, 63
4, 3240, Note_on_c, 2, 56, 64
4, 3360, Note_off_c, 2, 56, 58
4, 3360, Note_on_c, 2, 58, 64
4, 3480, Note_off_c, 2, 58, 58
4, 3600, Note_on_c, 2, 55, 64
4, 3720, Note_off_c, 2, 55, 53
4, 3960, Note_on_c, 2, 54, 64
4, 4080, Note_off_c, 2, 54, 44
4, 4080, Note_on_c, 2, 52, 64
4, 4320, Note_off_c, 2, 52, 54
4, 4320, Note_on_c, 2, 51, 64
4, 4440, Note_off_c, 2, 51, 55
4, 4440, Note_on_c, 2, 56, 64
4, 4680, Note_off_c, 2, 56, 54
4, 4680, Note_on_c, 2, 58, 64
4, 4800, Note_off_c, 2, 58, 59
4, 4800, Note_on_c, 2, 59, 64
4, 5040, Note_off_c, 2, 59, 58
4, 5040, Note_on_c, 2, 58, 64
4, 5280, Note_off_c, 2, 58, 58
4, 5280, Note_on_c, 2, 56, 64
4, 5880, Note_off_c, 2, 56, 58
4, 5880, Note_on_c, 2, 54, 64
4, 5940, Note_off_c, 2, 54, 50
4, 5940, Note_on_c, 2, 56, 64
4, 6000, Note_off_c, 2, 56, 49
4, 6000, Note_on_c, 2, 58, 64
4, 6120, Note_off_c, 2, 58, 54
4, 6120, Note_on_c, 2, 54, 64
4, 6240, Note_off_c, 2, 54, 25
4, 6240, Note_on_c, 2, 51, 64
4, 6360, Note_off_c, 2, 51, 35
4, 6360, Note_on_c, 2, 52, 64
4, 6480, Note_off_c, 2, 52, 54
4, 6600, Note_on_c, 2, 59, 64
4, 6720, Note_off_c, 2, 59, 46
4, 6720, Note_on_c, 2, 61, 64
4, 6960, Note_off_c, 2, 61, 62
4, 7200, Note_on_c, 2, 61, 64
4, 7320, Note_off_c, 2, 61, 65
4, 7440, Note_on_c, 2, 58, 64
4, 7560, Note_off_c, 2, 58, 57
4, 7680, Note_on_c, 2, 59, 64
4, 7920, Note_off_c, 2, 59, 57
4, 8040, Note_on_c, 2, 59, 64
4, 8160, Note_off_c, 2, 59, 33
4, 8160, Note_on_c, 2, 64, 64
4, 8280, Note_off_c, 2, 64, 43
4, 8400, Note_on_c, 2, 61, 64
4, 8520, Note_off_c, 2, 61, 53
4, 8640, Note_on_c, 2, 63, 64
4, 8880, Note_off_c, 2, 63, 44
4, 9000, Note_on_c, 2, 63, 64
4, 9120, Note_off_c, 2, 63, 31
4, 9120, Note_on_c, 2, 68, 64
4, 9240, Note_off_c, 2, 68, 62
4, 9360, Note_on_c, 2, 65, 64
4, 9480, Note_off_c, 2, 65, 57
4, 9600, Note_on_c, 2, 63, 64
4, 9720, Note_off_c, 2, 63, 58
4, 9840, Note_on_c, 2, 63, 64
4, 10080, Note_off_c, 2, 63, 54
4, 10080, Note_on_c, 2, 60, 64
4, 10200, Note_off_c, 2, 60, 32
4, 10200, Note_on_c, 2, 61, 64
4, 10260, Note_off_c, 2, 61, 55
4, 10260, Note_on_c, 2, 63, 64
4, 10320, Note_off_c, 2, 63, 45
4, 10320, Note_on_c, 2, 64, 64
4, 10440, Note_off_c, 2, 64, 52
4, 10440, Note_on_c, 2, 63, 64
4, 10560, Note_off_c, 2, 63, 46
4, 10560, Note_on_c, 2, 61, 64
4, 10680, Note_off_c, 2, 61, 68
4, 10680, Note_on_c, 2, 67, 64
4, 10800, Note_off_c, 2, 67, 63
4, 10800, Note_on_c, 2, 68, 64
4, 10920, Note_off_c, 2, 68, 74
4, 10920, Note_on_c, 2, 59, 64
4, 11040, Note_off_c, 2, 59, 38
4, 11040, Note_on_c, 2, 61, 64
4, 11160, Note_off_c, 2, 61, 70
4, 11160, Note_on_c, 2, 61, 64
4, 11280, Note_off_c, 2, 61, 63
4, 11280, Note_on_c, 2, 63, 64
4, 11400, Note_off_c, 2, 63, 54
4, 11400, Note_on_c, 2, 63, 64
4, 11520, Note_off_c, 2, 63, 52
4, 11520, Note_on_c, 2, 56, 64
4, 11760, Note_off_c, 2, 56, 49
4, 11880, Note_on_c, 2, 56, 64
4, 12000, Note_off_c, 2, 56, 53
4, 12000, Note_on_c, 2, 57, 64
4, 12120, Note_off_c, 2, 57, 58
4, 12120, Note_on_c, 2, 57, 64
4, 12240, Note_off_c, 2, 57, 57
4, 12240, Note_on_c, 2, 59, 64
4, 12360, Note_off_c, 2, 59, 62
4, 12360, Note_on_c, 2, 59, 64
4, 12480, Note_off_c, 2, 59, 62
4, 12480, Note_on_c, 2, 52, 64
4, 12720, Note_off_c, 2, 52, 59
4, 12840, Note_on_c, 2, 52, 64
4, 12960, Note_off_c, 2, 52, 59
4, 12960, Note_on_c, 2, 54, 64
4, 13080, Note_off_c, 2, 54, 63
4, 13080, Note_on_c, 2, 54, 64
4, 13200, Note_off_c, 2, 54, 57
4, 13200, Note_on_c, 2, 56, 64
4, 13320, Note_off_c, 2, 56, 52
4, 13320, Note_on_c, 2, 56, 64
4, 13440, Note_off_c, 2, 56, 59
4, 13440, Note_on_c, 2, 49, 64
4, 13560, Note_off_c, 2, 49, 66
4, 13560, Note_on_c, 2, 51, 64
4, 13680, Note_off_c, 2, 51, 72
4, 13680, Note_on_c, 2, 52, 64
4, 13800, Note_off_c, 2, 52, 69
4, 13800, Note_on_c, 2, 54, 64
4, 13920, Note_off_c, 2, 54, 62
4, 13920, Note_on_c, 2, 56, 64
4, 14280, Note_off_c, 2, 56, 59
4, 14280, Note_on_c, 2, 59, 64
4, 14400, Note_off_c, 2, 59, 50
4, 14400, Note_on_c, 2, 61, 64
4, 14640, Note_off_c, 2, 61, 58
4, 14640, Note_on_c, 2, 59, 64
4, 14760, Note_off_c, 2, 59, 51
4, 14760, Note_on_c, 2, 63, 64
4, 14880, Note_off_c, 2, 63, 57
4, 14880, Note_on_c, 2, 64, 64
4, 15000, Note_off_c, 2, 64, 58
4, 15120, Note_on_c, 2, 63, 64
4, 15240, Note_off_c, 2, 63, 48
4, 15360, Note_on_c, 2, 63, 64
4, 15480, Note_off_c, 2, 63, 48
4, 15600, Note_on_c, 2, 56, 64
4, 15840, Note_off_c, 2, 56, 49
4, 15840, Note_on_c, 2, 55, 64
4, 15960, Note_off_c, 2, 55, 52
4, 15960, Note_on_c, 2, 56, 64
4, 16020, Note_off_c, 2, 56, 52
4, 16020, Note_on_c, 2, 58, 64
4, 16080, Note_off_c, 2, 58, 69
4, 16080, Note_on_c, 2, 59, 64
4, 16200, Note_off_c, 2, 59, 63
4, 16200, Note_on_c, 2, 58, 64
4, 16320, Note_off_c, 2, 58, 65
4, 16320, Note_on_c, 2, 56, 64
4, 16440, Note_off_c, 2, 56, 49
4, 16440, Note_on_c, 2, 62, 64
4, 16560, Note_off_c, 2, 62, 61
4, 16560, Note_on_c, 2, 63, 64
4, 16680, Note_off_c, 2, 63, 57
4, 16680, Note_on_c, 2, 54, 64
4, 16800, Note_off_c, 2, 54, 52
4, 16800, Note_on_c, 2, 56, 64
4, 16920, Note_off_c, 2, 56, 66
4, 16920, Note_on_c, 2, 56, 64
4, 17040, Note_off_c, 2, 56, 63
4, 17040, Note_on_c, 2, 58, 64
4, 17160, Note_off_c, 2, 58, 65
4, 17160, Note_on_c, 2, 58, 64
4, 17280, Note_off_c, 2, 58, 65
4, 17400, Note_on_c, 2, 53, 64
4, 17520, Note_off_c, 2, 53, 58
4, 17520, Note_on_c, 2, 54, 64
4, 17880, Note_off_c, 2, 54, 55
4, 17880, Note_on_c, 2, 52, 64
4, 17940, Note_off_c, 2, 52, 53
4, 17940, Note_on_c, 2, 54, 64
4, 18000, Note_off_c, 2, 54, 55
4, 18000, Note_on_c, 2, 56, 64
4, 18120, Note_off_c, 2, 56, 54
4, 18120, Note_on_c, 2, 55, 64
4, 18180, Note_off_c, 2, 55, 54
4, 18180, Note_on_c, 2, 56, 64
4, 18240, Note_off_c, 2, 56, 61
4, 18240, Note_on_c, 2, 58, 64
4, 18360, Note_off_c, 2, 58, 68
4, 18360, Note_on_c, 2, 56, 64
4, 18420, Note_off_c, 2, 56, 58
4, 18420, Note_on_c, 2, 58, 64
4, 18480, Note_off_c, 2, 58, 62
4, 18480, Note_on_c, 2, 59, 64
4, 18600, Note_off_c, 2, 59, 62
4, 18600, Note_on_c, 2, 56, 64
4, 18720, Note_off_c, 2, 56, 55
4, 18720, Note_on_c, 2, 58, 64
4, 18840, Note_off_c, 2, 58, 54
4, 18960, Note_on_c, 2, 55, 64
4, 19080, Note_off_c, 2, 55, 30
4, 19200, Note_on_c, 2, 56, 64
4, 19440, Note_off_c, 2, 56, 66
4, 19560, Note_on_c, 2, 59, 64
4, 19680, Note_off_c, 2, 59, 54
4, 19680, Note_on_c, 2, 58, 64
4, 19800, Note_off_c, 2, 58, 53
4, 19800, Note_on_c, 2, 56, 64
4, 19920, Note_off_c, 2, 56, 49
4, 19920, Note_on_c, 2, 58, 64
4, 20040, Note_off_c, 2, 58, 73
4, 20040, Note_on_c, 2, 60, 64
4, 20160, Note_off_c, 2, 60, 65
4, 20160, Note_on_c, 2, 53, 64
4, 20280, Note_off_c, 2, 53, 14
4, 20280, Note_on_c, 2, 63, 64
4, 20400, Note_off_c, 2, 63, 48
4, 20400, Note_on_c, 2, 65, 64
4, 20520, Note_off_c, 2, 65, 1
4, 20520, Note_on_c, 2, 67, 64
4, 20640, Note_off_c, 2, 67, 41
4, 20640, Note_on_c, 2, 60, 64
4, 20760, Note_off_c, 2, 60, 41
4, 20760, Note_on_c, 2, 58, 64
4, 20880, Note_off_c, 2, 58, 46
4, 20880, Note_on_c, 2, 60, 64
4, 21000, Note_off_c, 2, 60, 53
4, 21000, Note_on_c, 2, 61, 64
4, 21120, Note_off_c, 2, 61, 53
4, 21120, Note_on_c, 2, 63, 64
4, 21720, Note_off_c, 2, 63, 45
4, 21720, Note_on_c, 2, 61, 64
4, 21780, Note_off_c, 2, 61, 59
4, 21780, Note_on_c, 2, 60, 64
4, 21840, Note_off_c, 2, 60, 62
4, 21840, Note_on_c, 2, 61, 64
4, 21960, Note_off_c, 2, 61, 59
4, 21960, Note_on_c, 2, 58, 64
4, 22140, Note_off_c, 2, 58, 65
4, 22140, Note_on_c, 2, 58, 64
4, 22200, Note_off_c, 2, 58, 43
4, 22200, Note_on_c, 2, 63, 64
4, 22260, Note_off_c, 2, 63, 59
4, 22260, Note_on_c, 2, 61, 64
4, 22320, Note_off_c, 2, 61, 52
4, 22320, Note_on_c, 2, 60, 64
4, 22380, Note_off_c, 2, 60, 61
4, 22380, Note_on_c, 2, 58, 64
4, 22440, Note_off_c, 2, 58, 69
4, 22440, Note_on_c, 2, 60, 64
4, 22560, Note_off_c, 2, 60, 70
4, 22560, Note_on_c, 2, 58, 64
4, 22680, Note_off_c, 2, 58, 65
4, 22680, Note_on_c, 2, 60, 64
4, 22740, Note_off_c, 2, 60, 66
4, 22740, Note_on_c, 2, 62, 64
4, 22800, Note_off_c, 2, 62, 49
4, 22800, Note_on_c, 2, 63, 64
4, 22920, Note_off_c, 2, 63, 49
4, 22920, Note_on_c, 2, 65, 64
4, 23040, Note_off_c, 2, 65, 1
4, 23040, Note_on_c, 2, 66, 64
4, 23280, Note_off_c, 2, 66, 49
4, 23340, Note_on_c, 2, 68, 64
4, 23400, Note_off_c, 2, 68, 63
4, 23400, Note_on_c, 2, 66, 64
4, 23460, Note_off_c, 2, 66, 53
4, 23460, Note_on_c, 2, 65, 64
4, 23520, Note_off_c, 2, 65, 57
4, 23520, Note_on_c, 2, 63, 64
4, 23580, Note_off_c, 2, 63, 49
4, 23580, Note_on_c, 2, 61, 64
4, 23640, Note_off_c, 2, 61, 55
4, 23640, Note_on_c, 2, 59, 64
4, 23700, Note_off_c, 2, 59, 55
4, 23700, Note_on_c, 2, 58, 64
4, 23760, Note_off_c, 2, 58, 57
4, 23760, Note_on_c, 2, 56, 64
4, 24000, Note_off_c, 2, 56, 57
4, 24000, Note_on_c, 2, 54, 64
4, 24120, Note_off_c, 2, 54, 66
4, 24120, Note_on_c, 2, 56, 64
4, 24240, Note_off_c, 2, 56, 66
4, 24240, Note_on_c, 2, 58, 64
4, 24360, Note_off_c, 2, 58, 73
4, 24360, Note_on_c, 2, 61, 64
4, 24480, Note_off_c, 2, 61, 52
4, 24480, Note_on_c, 2, 63, 64
4, 24960, Note_off_c, 2, 63, 57
4, 24960, Note_on_c, 2, 61, 64
4, 25320, Note_off_c, 2, 61, 62
4, 25320, Note_on_c, 2, 59, 64
4, 25440, Note_off_c, 2, 59, 59
4, 25440, Note_on_c, 2, 59, 64
4, 25560, Note_off_c, 2, 59, 52
4, 25680, Note_on_c, 2, 58, 64
4, 25800, Note_off_c, 2, 58, 59
4, 25920, Note_on_c, 2, 59, 64
4, 26160, Note_off_c, 2, 59, 54
4, 30000, Note_on_c, 2, 56, 64
4, 30240, Note_off_c, 2, 56, 52
4, 30240, Note_on_c, 2, 55, 64
4, 30360, Note_off_c, 2, 55, 62
4, 30360, Note_on_c, 2, 56, 64
4, 30420, Note_off_c, 2, 56, 65
4, 30420, Note_on_c, 2, 58, 64
4, 30480, Note_off_c, 2, 58, 58
4, 30480, Note_on_c, 2, 60, 64
4, 30600, Note_off_c, 2, 60, 54
4, 30600, Note_on_c, 2, 58, 64
4, 30720, Note_off_c, 2, 58, 59
4, 30720, Note_on_c, 2, 56, 64
4, 30840, Note_off_c, 2, 56, 50
4, 30840, Note_on_c, 2, 62, 64
4, 30960, Note_off_c, 2, 62, 52
4, 30960, Note_on_c, 2, 63, 64
4, 31080, Note_off_c, 2, 63, 49
4, 31080, Note_on_c, 2, 54, 64
4, 31200, Note_off_c, 2, 54, 59
4, 31200, Note_on_c, 2, 56, 64
4, 31320, Note_off_c, 2, 56, 63
4, 31320, Note_on_c, 2, 56, 64
4, 31440, Note_off_c, 2, 56, 55
4, 31440, Note_on_c, 2, 58, 64
4, 31560, Note_off_c, 2, 58, 62
4, 31560, Note_on_c, 2, 58, 64
4, 31680, Note_off_c, 2, 58, 54
4, 31680, Note_on_c, 2, 51, 64
4, 31920, Note_off_c, 2, 51, 52
4, 32040, Note_on_c, 2, 51, 64
4, 32160, Note_off_c, 2, 51, 66
4, 32160, Note_on_c, 2, 52, 64
4, 32280, Note_off_c, 2, 52, 74
4, 32280, Note_on_c, 2, 52, 64
4, 32400, Note_off_c, 2, 52, 72
4, 32400, Note_on_c, 2, 54, 64
4, 32520, Note_off_c, 2, 54, 69
4, 32520, Note_on_c, 2, 54, 64
4, 32640, Note_off_c, 2, 54, 66
4, 32640, Note_on_c, 2, 47, 64
4, 32700, Note_off_c, 2, 47, 43
4, 32700, Note_on_c, 2, 51, 64
4, 32760, Note_off_c, 2, 51, 62
4, 32760, Note_on_c, 2, 52, 64
4, 32820, Note_off_c, 2, 52, 57
4, 32820, Note_on_c, 2, 54, 64
4, 32880, Note_off_c, 2, 54, 61
4, 32880, Note_on_c, 2, 56, 64
4, 33360, Note_off_c, 2, 56, 53
4, 33360, Note_on_c, 2, 54, 64
4, 33600, Note_off_c, 2, 54, 54
4, 33600, Note_on_c, 2, 52, 64
4, 33840, Note_off_c, 2, 52, 52
4, 33960, Note_on_c, 2, 59, 64
4, 34080, Note_off_c, 2, 59, 54
4, 34080, Note_on_c, 2, 61, 64
4, 34200, Note_off_c, 2, 61, 66
4, 34200, Note_on_c, 2, 61, 64
4, 34320, Note_off_c, 2, 61, 63
4, 34320, Note_on_c, 2, 63, 64
4, 34440, Note_off_c, 2, 63, 62
4, 34440, Note_on_c, 2, 63, 64
4, 34560, Note_off_c, 2, 63, 54
4, 34560, Note_on_c, 2, 56, 64
4, 35040, Note_off_c, 2, 56, 54
4, 35160, Note_on_c, 2, 58, 64
4, 35220, Note_off_c, 2, 58, 51
4, 35220, Note_on_c, 2, 60, 64
4, 35280, Note_off_c, 2, 60, 57
4, 35280, Note_on_c, 2, 61, 64
4, 35400, Note_off_c, 2, 61, 59
4, 35400, Note_on_c, 2, 63, 64
4, 35520, Note_off_c, 2, 63, 43
4, 35520, Note_on_c, 2, 64, 64
4, 35760, Note_off_c, 2, 64, 46
4, 35760, Note_on_c, 2, 63, 64
4, 36000, Note_off_c, 2, 63, 45
4, 36000, Note_on_c, 2, 64, 64
4, 36120, Note_off_c, 2, 64, 50
4, 36240, Note_on_c, 2, 66, 64
4, 36360, Note_off_c, 2, 66, 50
4, 36480, Note_on_c, 2, 60, 64
4, 36600, Note_off_c, 2, 60, 62
4, 36840, Note_on_c, 2, 64, 64
4, 36960, Note_off_c, 2, 64, 52
4, 36960, Note_on_c, 2, 63, 64
4, 37080, Note_off_c, 2, 63, 52
4, 37200, Note_on_c, 2, 63, 64
4, 37440, Note_off_c, 2, 63, 48
4, 37440, Note_on_c, 2, 61, 64
4, 37680, Note_off_c, 2, 61, 52
4, 37800, Note_on_c, 2, 49, 64
4, 37920, Note_off_c, 2, 49, 70
4, 37920, Note_on_c, 2, 51, 64
4, 39360, Note_off_c, 2, 51, 70
4, 39360, End_track
5, 0, Start_track
5, 0, Text_t, "LH L"
5, 6000, Note_on_c, 3, 51, 64
5, 6240, Note_off_c, 3, 51, 35
5, 6240, Note_on_c, 3, 48, 64
5, 6360, Note_off_c, 3, 48, 40
5, 6360, Note_on_c, 3, 49, 64
5, 6420, Note_off_c, 3, 49, 72
5, 6420, Note_on_c, 3, 51, 64
5, 6480, Note_off_c, 3, 51, 36
5, 6480, Note_on_c, 3, 52, 64
5, 6600, Note_off_c, 3, 52, 74
5, 6600, Note_on_c, 3, 51, 64
5, 6720, Note_off_c, 3, 51, 53
5, 6720, Note_on_c, 3, 49, 64
5, 6840, Note_off_c, 3, 49, 79
5, 6840, Note_on_c, 3, 55, 64
5, 6960, Note_off_c, 3, 55, 61
5, 6960, Note_on_c, 3, 56, 64
5, 7080, Note_off_c, 3, 56, 51
5, 7080, Note_on_c, 3, 47, 64
5, 7200, Note_off_c, 3, 47, 26
5, 7200, Note_on_c, 3, 49, 64
5, 7320, Note_off_c, 3, 49, 65
5, 7320, Note_on_c, 3, 49, 64
5, 7440, Note_off_c, 3, 49, 68
5, 7440, Note_on_c, 3, 51, 64
5, 7560, Note_off_c, 3, 51, 55
5, 7560, Note_on_c, 3, 51, 64
5, 7680, Note_off_c, 3, 51, 44
5, 7680, Note_on_c, 3, 44, 64
5, 7920, Note_off_c, 3, 44, 52
5, 8040, Note_on_c, 3, 51, 64
5, 8160, Note_off_c, 3, 51, 62
5, 8160, Note_on_c, 3, 52, 64
5, 8280, Note_off_c, 3, 52, 69
5, 8280, Note_on_c, 3, 52, 64
5, 8400, Note_off_c, 3, 52, 70
5, 8400, Note_on_c, 3, 54, 64
5, 8520, Note_off_c, 3, 54, 59
5, 8520, Note_on_c, 3, 54, 64
5, 8640, Note_off_c, 3, 54, 53
5, 8640, Note_on_c, 3, 47, 64
5, 8880, Note_off_c, 3, 47, 27
5, 9000, Note_on_c, 3, 54, 64
5, 9120, Note_off_c, 3, 54, 54
5, 9120, Note_on_c, 3, 56, 64
5, 9240, Note_off_c, 3, 56, 58
5, 9240, Note_on_c, 3, 56, 64
5, 9360, Note_off_c, 3, 56, 52
5, 9360, Note_on_c, 3, 58, 64
5, 9480, Note_off_c, 3, 58, 63
5, 9480, Note_on_c, 3, 58, 64
5, 9600, Note_off_c, 3, 58, 65
5, 9600, Note_on_c, 3, 51, 64
5, 9720, Note_off_c, 3, 51, 68
5, 13680, Note_on_c, 3, 49, 64
5, 13920, Note_off_c, 3, 49, 57
5, 13920, Note_on_c, 3, 48, 64
5, 14040, Note_off_c, 3, 48, 34
5, 14040, Note_on_c, 3, 49, 64
5, 14100, Note_off_c, 3, 49, 66
5, 14100, Note_on_c, 3, 51, 64
5, 14160, Note_off_c, 3, 51, 61
5, 14160, Note_on_c, 3, 52, 64
5, 14280, Note_off_c, 3, 52, 77
5, 14280, Note_on_c, 3, 51, 64
5, 14400, Note_off_c, 3, 51, 69
5, 14400, Note_on_c, 3, 49, 64
5, 14520, Note_off_c, 3, 49, 80
5, 14520, Note_on_c, 3, 55, 64
5, 14640, Note_off_c, 3, 55, 69
5, 14640, Note_on_c, 3, 56, 64
5, 14760, Note_off_c, 3, 56, 66
5, 14760, Note_on_c, 3, 47, 64
5, 14880, Note_off_c, 3, 47, 35
5, 14880, Note_on_c, 3, 49, 64
5, 15000, Note_off_c, 3, 49, 74
5, 15000, Note_on_c, 3, 49, 64
5, 15120, Note_off_c, 3, 49, 68
5, 15120, Note_on_c, 3, 51, 64
5, 15240, Note_off_c, 3, 51, 68
5, 15240, Note_on_c, 3, 51, 64
5, 15360, Note_off_c, 3, 51, 76
5, 15360, Note_on_c, 3, 44, 64
5, 15480, Note_off_c, 3, 44, 63
5, 15480, Note_on_c, 3, 46, 64
5, 15600, Note_off_c, 3, 46, 76
5, 15600, Note_on_c, 3, 47, 64
5, 15720, Note_off_c, 3, 47, 42
5, 15720, Note_on_c, 3, 49, 64
5, 15840, Note_off_c, 3, 49, 72
5, 15840, Note_on_c, 3, 51, 64
5, 16080, Note_off_c, 3, 51, 57
5, 16200, Note_on_c, 3, 51, 64
5, 16320, Note_off_c, 3, 51, 54
5, 16320, Note_on_c, 3, 53, 64
5, 16560, Note_off_c, 3, 53, 57
5, 16560, Note_on_c, 3, 51, 64
5, 17040, Note_off_c, 3, 51, 49
5, 17040, Note_on_c, 3, 50, 64
5, 17280, Note_off_c, 3, 50, 63
5, 17280, Note_on_c, 3, 51, 64
5, 17520, Note_off_c, 3, 51, 52
5, 17580, Note_on_c, 3, 39, 64
5, 17640, Note_off_c, 3, 39, 55
5, 17640, Note_on_c, 3, 40, 64
5, 17700, Note_off_c, 3, 40, 24
5, 17700, Note_on_c, 3, 42, 64
5, 17760, Note_off_c, 3, 42, 63
5, 17760, Note_on_c, 3, 44, 64
5, 17880, Note_off_c, 3, 44, 62
5, 17880, Note_on_c, 3, 49, 64
5, 18120, Note_off_c, 3, 49, 63
5, 18120, Note_on_c, 3, 51, 64
5, 18240, Note_off_c, 3, 51, 58
5, 18240, Note_on_c, 3, 52, 64
5, 18480, Note_off_c, 3, 52, 62
5, 18480, Note_on_c, 3, 51, 64
5, 18720, Note_off_c, 3, 51, 54
5, 18720, Note_on_c, 3, 49, 64
5, 19320, Note_off_c, 3, 49, 65
5, 19320, Note_on_c, 3, 47, 64
5, 19380, Note_off_c, 3, 47, 40
5, 19380, Note_on_c, 3, 46, 64
5, 19440, Note_off_c, 3, 46, 51
5, 19440, Note_on_c, 3, 47, 64
5, 19500, Note_off_c, 3, 47, 37
5, 19500, Note_on_c, 3, 44, 64
5, 19560, Note_off_c, 3, 44, 52
5, 19560, Note_on_c, 3, 50, 64
5, 19680, Note_off_c, 3, 50, 63
5, 19680, Note_on_c, 3, 51, 64
5, 20280, Note_off_c, 3, 51, 52
5, 20280, Note_on_c, 3, 49, 64
5, 20340, Note_off_c, 3, 49, 50
5, 20340, Note_on_c, 3, 48, 64
5, 20400, Note_off_c, 3, 48, 34
5, 20400, Note_on_c, 3, 49, 64
5, 20460, Note_off_c, 3, 49, 14
5, 20460, Note_on_c, 3, 46, 64
5, 20520, Note_off_c, 3, 46, 50
5, 20520, Note_on_c, 3, 52, 64
5, 20640, Note_off_c, 3, 52, 52
5, 20640, Note_on_c, 3, 53, 64
5, 21240, Note_off_c, 3, 53, 73
5, 21240, Note_on_c, 3, 51, 64
5, 21300, Note_off_c, 3, 51, 55
5, 21300, Note_on_c, 3, 49, 64
5, 21360, Note_off_c, 3, 49, 57
5, 21360, Note_on_c, 3, 51, 64
5, 21420, Note_off_c, 3, 51, 22
5, 21420, Note_on_c, 3, 48, 64
5, 21480, Note_off_c, 3, 48, 21
5, 21480, Note_on_c, 3, 53, 64
5, 21600, Note_off_c, 3, 53, 47
5, 21600, Note_on_c, 3, 54, 64
5, 22020, Note_off_c, 3, 54, 63
5, 22020, Note_on_c, 3, 52, 64
5, 22080, Note_off_c, 3, 52, 12
5, 22080, Note_on_c, 3, 51, 64
5, 22320, Note_off_c, 3, 51, 48
5, 22320, Note_on_c, 3, 53, 64
5, 22560, Note_off_c, 3, 53, 46
5, 22560, Note_on_c, 3, 46, 64
5, 22800, Note_off_c, 3, 46, 40
5, 24240, Note_on_c, 3, 54, 64
5, 24480, Note_off_c, 3, 54, 49
5, 24480, Note_on_c, 3, 51, 64
5, 24600, Note_off_c, 3, 51, 47
5, 24600, Note_on_c, 3, 52, 64
5, 24660, Note_off_c, 3, 52, 73
5, 24660, Note_on_c, 3, 54, 64
5, 24720, Note_off_c, 3, 54, 54
5, 24720, Note_on_c, 3, 56, 64
5, 24840, Note_off_c, 3, 56, 65
5, 24840, Note_on_c, 3, 54, 64
5, 24960, Note_off_c, 3, 54, 47
5, 24960, Note_on_c, 3, 52, 64
5, 25080, Note_off_c, 3, 52, 58
5, 25080, Note_on_c, 3, 58, 64
5, 25200, Note_off_c, 3, 58, 48
5, 25200, Note_on_c, 3, 59, 64
5, 25320, Note_off_c, 3, 59, 25
5, 25320, Note_on_c, 3, 51, 64
5, 25440, Note_off_c, 3, 51, 50
5, 25440, Note_on_c, 3, 52, 64
5, 25560, Note_off_c, 3, 52, 62
5, 25560, Note_on_c, 3, 52, 64
5, 25680, Note_off_c, 3, 52, 57
5, 25680, Note_on_c, 3, 54, 64
5, 25800, Note_off_c, 3, 54, 61
5, 25800, Note_on_c, 3, 54, 64
5, 25920, Note_off_c, 3, 54, 68
5, 25920, Note_on_c, 3, 47, 64
5, 26040, Note_off_c, 3, 47, 39
5, 26040, Note_on_c, 3, 46, 64
5, 26160, Note_off_c, 3, 46, 55
5, 26160, Note_on_c, 3, 44, 64
5, 26280, Note_off_c, 3, 44, 57
5, 26280, Note_on_c, 3, 49, 64
5, 26400, Note_off_c, 3, 49, 59
5, 26400, Note_on_c, 3, 42, 64
5, 26520, Note_off_c, 3, 42, 45
5, 26520, Note_on_c, 3, 40, 64
5, 26640, Note_off_c, 3, 40, 30
5, 26640, Note_on_c, 3, 39, 64
5, 26760, Note_off_c, 3, 39, 59
5, 26760, Note_on_c, 3, 44, 64
5, 26880, Note_off_c, 3, 44, 76
5, 26880, Note_on_c, 3, 49, 64
5, 27000, Note_off_c, 3, 49, 68
5, 27000, Note_on_c, 3, 47, 64
5, 27120, Note_off_c, 3, 47, 61
5, 27120, Note_on_c, 3, 46, 64
5, 27240, Note_off_c, 3, 46, 53
5, 27240, Note_on_c, 3, 51, 64
5, 27360, Note_off_c, 3, 51, 58
5, 27360, Note_on_c, 3, 44, 64
5, 27480, Note_off_c, 3, 44, 50
5, 27480, Note_on_c, 3, 42, 64
5, 27600, Note_off_c, 3, 42, 43
5, 27600, Note_on_c, 3, 41, 64
5, 27720, Note_off_c, 3, 41, 25
5, 27720, Note_on_c, 3, 46, 64
5, 27840, Note_off_c, 3, 46, 69
5, 27840, Note_on_c, 3, 39, 64
5, 28080, Note_off_c, 3, 39, 38
5, 28200, Note_on_c, 3, 51, 64
5, 28320, Note_off_c, 3, 51, 53
5, 28320, Note_on_c, 3, 52, 64
5, 28440, Note_off_c, 3, 52, 70
5, 28440, Note_on_c, 3, 52, 64
5, 28560, Note_off_c, 3, 52, 66
5, 28560, Note_on_c, 3, 54, 64
5, 28680, Note_off_c, 3, 54, 57
5, 28680, Note_on_c, 3, 54, 64
5, 28800, Note_off_c, 3, 54, 51
5, 28800, Note_on_c, 3, 47, 64
5, 29040, Note_off_c, 3, 47, 28
5, 29160, Note_on_c, 3, 47, 64
5, 29280, Note_off_c, 3, 47, 40
5, 29280, Note_on_c, 3, 49, 64
5, 29400, Note_off_c, 3, 49, 68
5, 29400, Note_on_c, 3, 49, 64
5, 29520, Note_off_c, 3, 49, 72
5, 29520, Note_on_c, 3, 51, 64
5, 29640, Note_off_c, 3, 51, 55
5, 29640, Note_on_c, 3, 51, 64
5, 29760, Note_off_c, 3, 51, 50
5, 29760, Note_on_c, 3, 44, 64
5, 29880, Note_off_c, 3, 44, 58
5, 29880, Note_on_c, 3, 46, 64
5, 30000, Note_off_c, 3, 46, 73
5, 30000, Note_on_c, 3, 47, 64
5, 30120, Note_off_c, 3, 47, 34
5, 30120, Note_on_c, 3, 49, 64
5, 30240, Note_off_c, 3, 49, 70
5, 30240, Note_on_c, 3, 51, 64
5, 30360, Note_off_c, 3, 51, 61
5, 30360, Note_on_c, 3, 54, 64
5, 30540, Note_off_c, 3, 54, 55
5, 30540, Note_on_c, 3, 56, 64
5, 30600, Note_off_c, 3, 56, 59
5, 30600, Note_on_c, 3, 54, 64
5, 30660, Note_off_c, 3, 54, 34
5, 30660, Note_on_c, 3, 53, 64
5, 30720, Note_off_c, 3, 53, 42
5, 30720, Note_on_c, 3, 51, 64
5, 30780, Note_off_c, 3, 51, 58
5, 30780, Note_on_c, 3, 50, 64
5, 30840, Note_off_c, 3, 50, 57
5, 30840, Note_on_c, 3, 48, 64
5, 30900, Note_off_c, 3, 48, 24
5, 30900, Note_on_c, 3, 46, 64
5, 30960, Note_off_c, 3, 46, 66
5, 30960, Note_on_c, 3, 44, 64
5, 31020, Note_off_c, 3, 44, 68
5, 31020, Note_on_c, 3, 42, 64
5, 31080, Note_off_c, 3, 42, 51
5, 31080, Note_on_c, 3, 44, 64
5, 31140, Note_off_c, 3, 44, 47
5, 31140, Note_on_c, 3, 46, 64
5, 31200, Note_off_c, 3, 46, 20
5, 31200, Note_on_c, 3, 47, 64
5, 31440, Note_off_c, 3, 47, 37
5, 31440, Note_on_c, 3, 46, 64
5, 31560, Note_off_c, 3, 46, 48
5, 31560, Note_on_c, 3, 44, 64
5, 31680, Note_off_c, 3, 44, 42
5, 31680, Note_on_c, 3, 42, 64
5, 31800, Note_off_c, 3, 42, 53
5, 31800, Note_on_c, 3, 46, 64
5, 31920, Note_off_c, 3, 46, 51
5, 31920, Note_on_c, 3, 39, 64
5, 32160, Note_off_c, 3, 39, 53
5, 33000, Note_on_c, 3, 44, 64
5, 33120, Note_off_c, 3, 44, 52
5, 33120, Note_on_c, 3, 45, 64
5, 33240, Note_off_c, 3, 45, 59
5, 33240, Note_on_c, 3, 45, 64
5, 33360, Note_off_c, 3, 45, 52
5, 33360, Note_on_c, 3, 47, 64
5, 33480, Note_off_c, 3, 47, 52
5, 33480, Note_on_c, 3, 47, 64
5, 33600, Note_off_c, 3, 47, 61
5, 33600, Note_on_c, 3, 40, 64
5, 33840, Note_off_c, 3, 40, 37
5, 33840, Note_on_c, 3, 52, 64
5, 34320, Note_off_c, 3, 52, 45
5, 34320, Note_on_c, 3, 51, 64
5, 34560, Note_off_c, 3, 51, 53
5, 34560, Note_on_c, 3, 49, 64
5, 34680, Note_off_c, 3, 49, 65
5, 34680, Note_on_c, 3, 51, 64
5, 34800, Note_off_c, 3, 51, 76
5, 34800, Note_on_c, 3, 52, 64
5, 34920, Note_off_c, 3, 52, 44
5, 34920, Note_on_c, 3, 54, 64
5, 35040, Note_off_c, 3, 54, 55
5, 35040, Note_on_c, 3, 56, 64
5, 36240, Note_off_c, 3, 56, 61
5, 36240, Note_on_c, 3, 54, 64
5, 36720, Note_off_c, 3, 54, 70
5, 36840, Note_on_c, 3, 52, 64
5, 36960, Note_off_c, 3, 52, 68
5, 36960, Note_on_c, 3, 43, 64
5, 37080, Note_off_c, 3, 43, 48
5, 37080, Note_on_c, 3, 43, 64
5, 37200, Note_off_c, 3, 43, 49
5, 37200, Note_on_c, 3, 44, 64
5, 37320, Note_off_c, 3, 44, 59
5, 37320, Note_on_c, 3, 44, 64
5, 37440, Note_off_c, 3, 44, 66
5, 37440, Note_on_c, 3, 37, 64
5, 37560, Note_off_c, 3, 37, 49
5, 37560, Note_on_c, 3, 39, 64
5, 37680, Note_off_c, 3, 39, 57
5, 37680, Note_on_c, 3, 40, 64
5, 37920, Note_off_c, 3, 40, 58
5, 37920, Note_on_c, 3, 39, 64
5, 38400, Note_off_c, 3, 39, 55
5, 38400, Note_on_c, 3, 44, 64
5, 39360, Note_off_c, 3, 44, 73
5, 39360, End_track
0, 0, End_of_file
