0, 0, Header, 1, 2, 240
1, 0, Start_track
1, 0, Time_signature, 4, 2, 24, 8
1, 0, Tempo, 625000
1, 23040, Time_signature, 3, 3, 36, 8
1, 23040, Tempo, 1016949
1, 23152, Tempo, 555556
1, 31680, Tempo, 594059
1, 31828, Tempo, 625000
1, 31912, Tempo, 855949
1, 31988, Tempo, 759494
1, 32040, Tempo, 1000000
1, 32040, End_track
2, 0, Start_track
2, 0, Note_on_c, 0, 56, 56
2, 0, Note_on_c, 0, 49, 64
2, 60, Note_on_c, 0, 65, 64
2, 120, Note_off_c, 0, 65, 64
2, 120, Note_off_c, 0, 56, 64
2, 120, Note_on_c, 0, 68, 64
2, 120, Note_on_c, 0, 56, 56
2, 180, Note_off_c, 0, 68, 64
2, 180, Note_on_c, 0, 73, 64
2, 240, Note_off_c, 0, 56, 64
2, 240, Note_off_c, 0, 49, 64
2, 240, Note_on_c, 0, 68, 64
2, 240, Note_on_c, 0, 61, 56
2, 300, Note_off_c, 0, 68, 64
2, 300, Note_on_c, 0, 66, 64
2, 360, Note_off_c, 0, 66, 64
2, 360, Note_off_c, 0, 61, 64
2, 360, Note_on_c, 0, 68, 64
2, 360, Note_on_c, 0, 61, 56
2, 420, Note_off_c, 0, 68, 64
2, 420, Note_on_c, 0, 65, 64
2, 480, Note_off_c, 0, 65, 64
2, 480, Note_off_c, 0, 61, 64
2, 480, Note_off_c, 0, 73, 64
2, 480, Note_on_c, 0, 59, 56
2, 480, Note_on_c, 0, 49, 64
2, 540, Note_on_c, 0, 65, 64
2, 600, Note_off_c, 0, 65, 64
2, 600, Note_off_c, 0, 59, 64
2, 600, Note_on_c, 0, 68, 64
2, 600, Note_on_c, 0, 59, 56
2, 660, Note_off_c, 0, 68, 64
2, 660, Note_on_c, 0, 73, 64
2, 720, Note_off_c, 0, 59, 64
2, 720, Note_off_c, 0, 49, 64
2, 720, Note_on_c, 0, 68, 64
2, 720, Note_on_c, 0, 59, 56
2, 780, Note_off_c, 0, 68, 64
2, 780, Note_on_c, 0, 66, 64
2, 840, Note_off_c, 0, 66, 64
2, 840, Note_off_c, 0, 59, 64
2, 840, Note_on_c, 0, 59, 56
2, 840, Note_on_c, 0, 68, 64
2, 900, Note_off_c, 0, 68, 64
2, 900, Note_on_c, 0, 65, 64
2, 960, Note_off_c, 0, 65, 64
2, 960, Note_off_c, 0, 59, 64
2, 960, Note_off_c, 0, 73, 64
2, 960, Note_on_c, 0, 58, 56
2, 960, Note_on_c, 0, 49, 64
2, 1020, Note_on_c, 0, 66, 64
2, 1080, Note_off_c, 0, 66, 64
2, 1080, Note_off_c, 0, 58, 64
2, 1080, Note_on_c, 0, 70, 64
2, 1080, Note_on_c, 0, 58, 56
2, 1140, Note_off_c, 0, 70, 64
2, 1140, Note_on_c, 0, 73, 64
2, 1200, Note_off_c, 0, 58, 64
2, 1200, Note_off_c, 0, 49, 64
2, 1200, Note_on_c, 0, 70, 64
2, 1200, Note_on_c, 0, 54, 56
2, 1260, Note_off_c, 0, 70, 64
2, 1260, Note_on_c, 0, 68, 64
2, 1320, Note_off_c, 0, 68, 64
2, 1320, Note_off_c, 0, 54, 64
2, 1320, Note_on_c, 0, 70, 64
2, 1320, Note_on_c, 0, 54, 56
2, 1380, Note_off_c, 0, 70, 64
2, 1380, Note_on_c, 0, 66, 64
2, 1440, Note_off_c, 0, 66, 64
2, 1440, Note_off_c, 0, 54, 64
2, 1440, Note_off_c, 0, 73, 64
2, 1440, Note_on_c, 0, 60, 56
2, 1440, Note_on_c, 0, 49, 64
2, 1500, Note_on_c, 0, 66, 64
2, 1560, Note_off_c, 0, 66, 64
2, 1560, Note_off_c, 0, 60, 64
2, 1560, Note_on_c, 0, 68, 64
2, 1560, Note_on_c, 0, 60, 56
2, 1620, Note_off_c, 0, 68, 64
2, 1620, Note_on_c, 0, 75, 64
2, 1680, Note_off_c, 0, 60, 64
2, 1680, Note_off_c, 0, 49, 64
2, 1680, Note_on_c, 0, 68, 64
2, 1680, Note_on_c, 0, 60, 56
2, 1740, Note_off_c, 0, 68, 64
2, 1740, Note_on_c, 0, 66, 64
2, 1800, Note_off_c, 0, 66, 64
2, 1800, Note_off_c, 0, 60, 64
2, 1800, Note_on_c, 0, 60, 56
2, 1800, Note_on_c, 0, 68, 64
2, 1860, Note_off_c, 0, 68, 64
2, 1860, Note_on_c, 0, 66, 64
2, 1920, Note_off_c, 0, 66, 64
2, 1920, Note_off_c, 0, 60, 64
2, 1920, Note_off_c, 0, 75, 64
2, 1920, Note_on_c, 0, 61, 56
2, 1920, Note_on_c, 0, 49, 64
2, 1980, Note_on_c, 0, 65, 64
2, 2040, Note_off_c, 0, 65, 64
2, 2040, Note_off_c, 0, 61, 64
2, 2040, Note_on_c, 0, 68, 64
2, 2040, Note_on_c, 0, 61, 56
2, 2100, Note_off_c, 0, 68, 64
2, 2100, Note_on_c, 0, 75, 64
2, 2160, Note_off_c, 0, 61, 64
2, 2160, Note_off_c, 0, 49, 64
2, 2160, Note_on_c, 0, 68, 64
2, 2160, Note_on_c, 0, 61, 56
2, 2220, Note_off_c, 0, 68, 64
2, 2220, Note_on_c, 0, 66, 64
2, 2280, Note_off_c, 0, 66, 64
2, 2280, Note_off_c, 0, 61, 64
2, 2280, Note_on_c, 0, 68, 64
2, 2280, Note_on_c, 0, 61, 56
2, 2340, Note_off_c, 0, 68, 64
2, 2340, Note_on_c, 0, 66, 64
2, 2400, Note_off_c, 0, 66, 64
2, 2400, Note_off_c, 0, 61, 64
2, 2400, Note_off_c, 0, 75, 64
2, 2400, Note_on_c, 0, 56, 56
2, 2400, Note_on_c, 0, 49, 64
2, 2460, Note_on_c, 0, 65, 64
2, 2520, Note_off_c, 0, 65, 64
2, 2520, Note_off_c, 0, 56, 64
2, 2520, Note_on_c, 0, 68, 64
2, 2520, Note_on_c, 0, 56, 56
2, 2580, Note_off_c, 0, 68, 64
2, 2580, Note_on_c, 0, 73, 64
2, 2640, Note_off_c, 0, 56, 64
2, 2640, Note_off_c, 0, 49, 64
2, 2640, Note_on_c, 0, 68, 64
2, 2640, Note_on_c, 0, 53, 56
2, 2700, Note_off_c, 0, 68, 64
2, 2700, Note_on_c, 0, 66, 64
2, 2760, Note_off_c, 0, 66, 64
2, 2760, Note_off_c, 0, 53, 64
2, 2760, Note_on_c, 0, 53, 56
2, 2760, Note_on_c, 0, 68, 64
2, 2820, Note_off_c, 0, 68, 64
2, 2820, Note_on_c, 0, 65, 64
2, 2880, Note_off_c, 0, 65, 64
2, 2880, Note_off_c, 0, 53, 64
2, 2880, Note_off_c, 0, 73, 64
2, 2880, Note_on_c, 0, 58, 56
2, 2880, Note_on_c, 0, 49, 64
2, 2940, Note_on_c, 0, 63, 64
2, 3000, Note_off_c, 0, 63, 64
2, 3000, Note_off_c, 0, 58, 64
2, 3000, Note_on_c, 0, 67, 64
2, 3000, Note_on_c, 0, 58, 56
2, 3060, Note_off_c, 0, 67, 64
2, 3060, Note_on_c, 0, 70, 64
2, 3120, Note_off_c, 0, 58, 64
2, 3120, Note_off_c, 0, 49, 64
2, 3120, Note_on_c, 0, 67, 64
2, 3120, Note_on_c, 0, 58, 56
2, 3180, Note_off_c, 0, 67, 64
2, 3180, Note_on_c, 0, 65, 64
2, 3240, Note_off_c, 0, 65, 64
2, 3240, Note_off_c, 0, 58, 64
2, 3240, Note_on_c, 0, 67, 64
2, 3240, Note_on_c, 0, 58, 56
2, 3300, Note_off_c, 0, 67, 64
2, 3300, Note_on_c, 0, 63, 64
2, 3360, Note_off_c, 0, 63, 64
2, 3360, Note_off_c, 0, 58, 64
2, 3360, Note_off_c, 0, 70, 64
2, 3360, Note_on_c, 0, 56, 56
2, 3360, Note_on_c, 0, 48, 64
2, 3420, Note_on_c, 0, 63, 64
2, 3480, Note_off_c, 0, 63, 64
2, 3480, Note_off_c, 0, 56, 64
2, 3480, Note_on_c, 0, 68, 64
2, 3480, Note_on_c, 0, 56, 56
2, 3540, Note_off_c, 0, 68, 64
2, 3540, Note_on_c, 0, 72, 64
2, 3600, Note_off_c, 0, 56, 64
2, 3600, Note_off_c, 0, 48, 64
2, 3600, Note_on_c, 0, 68, 64
2, 3600, Note_on_c, 0, 51, 56
2, 3660, Note_off_c, 0, 68, 64
2, 3660, Note_on_c, 0, 67, 64
2, 3720, Note_off_c, 0, 67, 64
2, 3720, Note_off_c, 0, 51, 64
2, 3720, Note_on_c, 0, 56, 56
2, 3720, Note_on_c, 0, 68, 64
2, 3780, Note_off_c, 0, 68, 64
2, 3780, Note_on_c, 0, 63, 64
2, 3840, Note_off_c, 0, 63, 64
2, 3840, Note_off_c, 0, 56, 64
2, 3840, Note_off_c, 0, 72, 64
2, 3840, Note_on_c, 0, 56, 56
2, 3840, Note_on_c, 0, 46, 64
2, 3900, Note_on_c, 0, 63, 64
2, 3960, Note_off_c, 0, 63, 64
2, 3960, Note_off_c, 0, 56, 64
2, 3960, Note_on_c, 0, 70, 64
2, 3960, Note_on_c, 0, 56, 56
2, 4020, Note_off_c, 0, 70, 64
2, 4020, Note_on_c, 0, 73, 64
2, 4080, Note_off_c, 0, 56, 64
2, 4080, Note_off_c, 0, 46, 64
2, 4080, Note_on_c, 0, 70, 64
2, 4080, Note_on_c, 0, 56, 56
2, 4140, Note_off_c, 0, 70, 64
2, 4140, Note_on_c, 0, 68, 64
2, 4200, Note_off_c, 0, 68, 64
2, 4200, Note_off_c, 0, 56, 64
2, 4200, Note_on_c, 0, 70, 64
2, 4200, Note_on_c, 0, 56, 56
2, 4260, Note_off_c, 0, 70, 64
2, 4260, Note_on_c, 0, 65, 64
2, 4320, Note_off_c, 0, 65, 64
2, 4320, Note_off_c, 0, 56, 64
2, 4320, Note_off_c, 0, 73, 64
2, 4320, Note_on_c, 0, 55, 56
2, 4320, Note_on_c, 0, 51, 64
2, 4380, Note_on_c, 0, 63, 64
2, 4440, Note_off_c, 0, 63, 64
2, 4440, Note_off_c, 0, 55, 64
2, 4440, Note_on_c, 0, 70, 64
2, 4440, Note_on_c, 0, 55, 56
2, 4500, Note_off_c, 0, 70, 64
2, 4500, Note_on_c, 0, 73, 64
2, 4560, Note_off_c, 0, 55, 64
2, 4560, Note_off_c, 0, 51, 64
2, 4560, Note_on_c, 0, 70, 64
2, 4560, Note_on_c, 0, 55, 56
2, 4620, Note_off_c, 0, 70, 64
2, 4620, Note_on_c, 0, 68, 64
2, 4680, Note_off_c, 0, 68, 64
2, 4680, Note_off_c, 0, 55, 64
2, 4680, Note_on_c, 0, 55, 56
2, 4680, Note_on_c, 0, 70, 64
2, 4740, Note_off_c, 0, 70, 64
2, 4740, Note_on_c, 0, 63, 64
2, 4800, Note_off_c, 0, 63, 64
2, 4800, Note_off_c, 0, 55, 64
2, 4800, Note_off_c, 0, 73, 64
2, 4800, Note_on_c, 0, 56, 56
2, 4800, Note_on_c, 0, 44, 64
2, 4860, Note_on_c, 0, 63, 64
2, 4920, Note_off_c, 0, 63, 64
2, 4920, Note_off_c, 0, 56, 64
2, 4920, Note_on_c, 0, 70, 64
2, 4920, Note_on_c, 0, 55, 56
2, 4980, Note_off_c, 0, 70, 64
2, 4980, Note_on_c, 0, 73, 64
2, 5040, Note_off_c, 0, 55, 64
2, 5040, Note_off_c, 0, 44, 64
2, 5040, Note_on_c, 0, 70, 64
2, 5040, Note_on_c, 0, 53, 56
2, 5100, Note_off_c, 0, 70, 64
2, 5100, Note_on_c, 0, 68, 64
2, 5160, Note_off_c, 0, 68, 64
2, 5160, Note_off_c, 0, 53, 64
2, 5160, Note_on_c, 0, 70, 64
2, 5160, Note_on_c, 0, 55, 56
2, 5220, Note_off_c, 0, 70, 64
2, 5220, Note_on_c, 0, 63, 64
2, 5280, Note_off_c, 0, 63, 64
2, 5280, Note_off_c, 0, 55, 64
2, 5280, Note_off_c, 0, 73, 64
2, 5280, Note_on_c, 0, 56, 56
2, 5280, Note_on_c, 0, 44, 64
2, 5340, Note_on_c, 0, 63, 64
2, 5400, Note_off_c, 0, 63, 64
2, 5400, Note_off_c, 0, 56, 64
2, 5400, Note_on_c, 0, 68, 64
2, 5400, Note_on_c, 0, 56, 56
2, 5460, Note_off_c, 0, 68, 64
2, 5460, Note_on_c, 0, 72, 64
2, 5520, Note_off_c, 0, 56, 64
2, 5520, Note_off_c, 0, 44, 64
2, 5520, Note_on_c, 0, 68, 64
2, 5520, Note_on_c, 0, 60, 56
2, 5580, Note_off_c, 0, 68, 64
2, 5580, Note_on_c, 0, 67, 64
2, 5640, Note_off_c, 0, 67, 64
2, 5640, Note_off_c, 0, 60, 64
2, 5640, Note_on_c, 0, 60, 56
2, 5640, Note_on_c, 0, 68, 64
2, 5700, Note_off_c, 0, 68, 64
2, 5700, Note_on_c, 0, 63, 64
2, 5760, Note_off_c, 0, 63, 64
2, 5760, Note_off_c, 0, 60, 64
2, 5760, Note_off_c, 0, 72, 64
2, 5760, Note_on_c, 0, 58, 56
2, 5760, Note_on_c, 0, 44, 64
2, 5820, Note_on_c, 0, 63, 64
2, 5880, Note_off_c, 0, 63, 64
2, 5880, Note_off_c, 0, 58, 64
2, 5880, Note_on_c, 0, 70, 64
2, 5880, Note_on_c, 0, 53, 56
2, 5940, Note_off_c, 0, 70, 64
2, 5940, Note_on_c, 0, 74, 64
2, 6000, Note_off_c, 0, 53, 64
2, 6000, Note_off_c, 0, 44, 64
2, 6000, Note_on_c, 0, 70, 64
2, 6000, Note_on_c, 0, 50, 56
2, 6060, Note_off_c, 0, 70, 64
2, 6060, Note_on_c, 0, 68, 64
2, 6120, Note_off_c, 0, 68, 64
2, 6120, Note_off_c, 0, 50, 64
2, 6120, Note_on_c, 0, 70, 64
2, 6120, Note_on_c, 0, 46, 56
2, 6180, Note_off_c, 0, 70, 64
2, 6180, Note_on_c, 0, 65, 64
2, 6240, Note_off_c, 0, 65, 64
2, 6240, Note_off_c, 0, 46, 64
2, 6240, Note_off_c, 0, 74, 64
2, 6240, Note_on_c, 0, 51, 56
2, 6240, Note_on_c, 0, 42, 64
2, 6300, Note_on_c, 0, 63, 64
2, 6360, Note_off_c, 0, 63, 64
2, 6360, Note_off_c, 0, 51, 64
2, 6360, Note_on_c, 0, 70, 64
2, 6360, Note_on_c, 0, 51, 56
2, 6420, Note_off_c, 0, 70, 64
2, 6420, Note_on_c, 0, 75, 64
2, 6480, Note_off_c, 0, 51, 64
2, 6480, Note_off_c, 0, 42, 64
2, 6480, Note_on_c, 0, 70, 64
2, 6480, Note_on_c, 0, 54, 56
2, 6540, Note_off_c, 0, 70, 64
2, 6540, Note_on_c, 0, 68, 64
2, 6600, Note_off_c, 0, 68, 64
2, 6600, Note_off_c, 0, 54, 64
2, 6600, Note_on_c, 0, 54, 56
2, 6600, Note_on_c, 0, 70, 64
2, 6660, Note_off_c, 0, 70, 64
2, 6660, Note_on_c, 0, 63, 64
2, 6720, Note_off_c, 0, 54, 64
2, 6720, Note_off_c, 0, 75, 64
2, 6720, Note_on_c, 0, 41, 64
2, 6720, Note_on_c, 0, 48, 56
2, 6780, Note_on_c, 0, 65, 64
2, 6840, Note_off_c, 0, 65, 64
2, 6840, Note_off_c, 0, 48, 64
2, 6840, Note_on_c, 0, 69, 64
2, 6840, Note_on_c, 0, 48, 56
2, 6900, Note_off_c, 0, 69, 64
2, 6900, Note_on_c, 0, 75, 64
2, 6960, Note_off_c, 0, 48, 64
2, 6960, Note_off_c, 0, 63, 64
2, 6960, Note_off_c, 0, 41, 64
2, 6960, Note_on_c, 0, 69, 64
2, 6960, Note_on_c, 0, 53, 56
2, 7020, Note_off_c, 0, 69, 64
2, 7020, Note_on_c, 0, 67, 64
2, 7080, Note_off_c, 0, 67, 64
2, 7080, Note_off_c, 0, 53, 64
2, 7080, Note_on_c, 0, 69, 64
2, 7080, Note_on_c, 0, 53, 56
2, 7140, Note_off_c, 0, 69, 64
2, 7140, Note_on_c, 0, 65, 64
2, 7200, Note_off_c, 0, 65, 64
2, 7200, Note_off_c, 0, 53, 64
2, 7200, Note_off_c, 0, 75, 64
2, 7200, Note_on_c, 0, 53, 56
2, 7200, Note_on_c, 0, 46, 64
2, 7260, Note_on_c, 0, 65, 64
2, 7320, Note_off_c, 0, 65, 64
2, 7320, Note_off_c, 0, 53, 64
2, 7320, Note_on_c, 0, 70, 64
2, 7320, Note_on_c, 0, 53, 56
2, 7380, Note_off_c, 0, 70, 64
2, 7380, Note_on_c, 0, 73, 64
2, 7440, Note_off_c, 0, 53, 64
2, 7440, Note_off_c, 0, 46, 64
2, 7440, Note_on_c, 0, 70, 64
2, 7440, Note_on_c, 0, 61, 56
2, 7500, Note_off_c, 0, 70, 64
2, 7500, Note_on_c, 0, 69, 64
2, 7560, Note_off_c, 0, 69, 64
2, 7560, Note_off_c, 0, 61, 64
2, 7560, Note_on_c, 0, 61, 56
2, 7560, Note_on_c, 0, 70, 64
2, 7620, Note_off_c, 0, 70, 64
2, 7620, Note_on_c, 0, 65, 64
2, 7680, Note_off_c, 0, 65, 64
2, 7680, Note_off_c, 0, 61, 64
2, 7680, Note_off_c, 0, 73, 64
2, 7680, Note_on_c, 0, 60, 64
2, 7680, Note_on_c, 0, 58, 64
2, 7740, Note_on_c, 0, 66, 64
2, 7800, Note_off_c, 0, 66, 64
2, 7800, Note_off_c, 0, 60, 64
2, 7800, Note_on_c, 0, 66, 64
2, 7800, Note_on_c, 0, 72, 64
2, 7860, Note_off_c, 0, 72, 64
2, 7860, Note_on_c, 0, 75, 64
2, 7920, Note_off_c, 0, 66, 64
2, 7920, Note_off_c, 0, 58, 64
2, 7920, Note_on_c, 0, 72, 64
2, 7920, Note_on_c, 0, 63, 64
2, 7980, Note_off_c, 0, 72, 64
2, 7980, Note_on_c, 0, 70, 64
2, 8040, Note_off_c, 0, 70, 64
2, 8040, Note_off_c, 0, 63, 64
2, 8040, Note_on_c, 0, 72, 64
2, 8040, Note_on_c, 0, 60, 64
2, 8100, Note_off_c, 0, 72, 64
2, 8100, Note_on_c, 0, 66, 64
2, 8160, Note_off_c, 0, 66, 64
2, 8160, Note_off_c, 0, 60, 64
2, 8160, Note_off_c, 0, 75, 64
2, 8160, Note_on_c, 0, 65, 56
2, 8160, Note_on_c, 0, 56, 64
2, 8220, Note_on_c, 0, 68, 64
2, 8280, Note_off_c, 0, 68, 64
2, 8280, Note_off_c, 0, 65, 64
2, 8280, Note_on_c, 0, 72, 64
2, 8280, Note_on_c, 0, 65, 56
2, 8340, Note_off_c, 0, 72, 64
2, 8340, Note_on_c, 0, 77, 64
2, 8400, Note_off_c, 0, 65, 64
2, 8400, Note_off_c, 0, 56, 64
2, 8400, Note_on_c, 0, 72, 64
2, 8400, Note_on_c, 0, 65, 56
2, 8460, Note_off_c, 0, 72, 64
2, 8460, Note_on_c, 0, 70, 64
2, 8520, Note_off_c, 0, 70, 64
2, 8520, Note_off_c, 0, 65, 64
2, 8520, Note_on_c, 0, 65, 56
2, 8520, Note_on_c, 0, 72, 64
2, 8580, Note_off_c, 0, 72, 64
2, 8580, Note_on_c, 0, 68, 64
2, 8640, Note_off_c, 0, 68, 64
2, 8640, Note_off_c, 0, 65, 64
2, 8640, Note_off_c, 0, 77, 64
2, 8640, Note_on_c, 0, 58, 64
2, 8640, Note_on_c, 0, 61, 64
2, 8700, Note_on_c, 0, 66, 64
2, 8760, Note_off_c, 0, 66, 64
2, 8760, Note_off_c, 0, 61, 64
2, 8760, Note_on_c, 0, 73, 64
2, 8760, Note_on_c, 0, 61, 64
2, 8820, Note_off_c, 0, 73, 64
2, 8820, Note_on_c, 0, 77, 64
2, 8880, Note_off_c, 0, 61, 64
2, 8880, Note_off_c, 0, 58, 64
2, 8880, Note_on_c, 0, 58, 56
2, 8880, Note_on_c, 0, 73, 64
2, 8940, Note_off_c, 0, 73, 64
2, 8940, Note_on_c, 0, 72, 64
2, 9000, Note_off_c, 0, 72, 64
2, 9000, Note_off_c, 0, 58, 64
2, 9000, Note_on_c, 0, 73, 64
2, 9000, Note_on_c, 0, 58, 56
2, 9060, Note_off_c, 0, 73, 64
2, 9060, Note_on_c, 0, 66, 64
2, 9120, Note_off_c, 0, 66, 64
2, 9120, Note_off_c, 0, 58, 64
2, 9120, Note_off_c, 0, 77, 64
2, 9120, Note_on_c, 0, 60, 64
2, 9120, Note_on_c, 0, 63, 56
2, 9180, Note_on_c, 0, 66, 64
2, 9240, Note_off_c, 0, 66, 64
2, 9240, Note_off_c, 0, 63, 64
2, 9240, Note_on_c, 0, 68, 64
2, 9240, Note_on_c, 0, 63, 56
2, 9300, Note_off_c, 0, 68, 64
2, 9300, Note_on_c, 0, 75, 64
2, 9360, Note_off_c, 0, 63, 64
2, 9360, Note_off_c, 0, 60, 64
2, 9360, Note_on_c, 0, 60, 56
2, 9360, Note_on_c, 0, 68, 64
2, 9420, Note_off_c, 0, 68, 64
2, 9420, Note_on_c, 0, 66, 64
2, 9480, Note_off_c, 0, 66, 64
2, 9480, Note_off_c, 0, 60, 64
2, 9480, Note_on_c, 0, 60, 56
2, 9480, Note_on_c, 0, 68, 64
2, 9540, Note_off_c, 0, 68, 64
2, 9540, Note_on_c, 0, 66, 64
2, 9600, Note_off_c, 0, 66, 64
2, 9600, Note_off_c, 0, 60, 64
2, 9600, Note_off_c, 0, 75, 64
2, 9600, Note_on_c, 0, 56, 56
2, 9600, Note_on_c, 0, 53, 64
2, 9660, Note_on_c, 0, 66, 64
2, 9720, Note_off_c, 0, 66, 64
2, 9720, Note_off_c, 0, 56, 64
2, 9720, Note_on_c, 0, 68, 64
2, 9720, Note_on_c, 0, 56, 56
2, 9780, Note_off_c, 0, 68, 64
2, 9780, Note_on_c, 0, 75, 64
2, 9840, Note_off_c, 0, 56, 64
2, 9840, Note_off_c, 0, 53, 64
2, 9840, Note_on_c, 0, 68, 64
2, 9840, Note_on_c, 0, 60, 56
2, 9900, Note_off_c, 0, 68, 64
2, 9900, Note_on_c, 0, 66, 64
2, 9960, Note_off_c, 0, 66, 64
2, 9960, Note_off_c, 0, 60, 64
2, 9960, Note_on_c, 0, 68, 64
2, 9960, Note_on_c, 0, 60, 56
2, 10020, Note_off_c, 0, 68, 64
2, 10020, Note_on_c, 0, 66, 64
2, 10080, Note_off_c, 0, 66, 64
2, 10080, Note_off_c, 0, 60, 64
2, 10080, Note_off_c, 0, 75, 64
2, 10080, Note_on_c, 0, 61, 56
2, 10080, Note_on_c, 0, 53, 64
2, 10140, Note_on_c, 0, 65, 64
2, 10200, Note_off_c, 0, 65, 64
2, 10200, Note_off_c, 0, 61, 64
2, 10200, Note_on_c, 0, 68, 64
2, 10200, Note_on_c, 0, 61, 56
2, 10260, Note_off_c, 0, 68, 64
2, 10260, Note_on_c, 0, 73, 64
2, 10320, Note_off_c, 0, 61, 64
2, 10320, Note_off_c, 0, 53, 64
2, 10320, Note_on_c, 0, 68, 64
2, 10320, Note_on_c, 0, 59, 56
2, 10380, Note_off_c, 0, 68, 64
2, 10380, Note_on_c, 0, 66, 64
2, 10440, Note_off_c, 0, 66, 64
2, 10440, Note_off_c, 0, 59, 64
2, 10440, Note_on_c, 0, 59, 56
2, 10440, Note_on_c, 0, 68, 64
2, 10500, Note_off_c, 0, 68, 64
2, 10500, Note_on_c, 0, 65, 64
2, 10560, Note_off_c, 0, 65, 64
2, 10560, Note_off_c, 0, 59, 64
2, 10560, Note_off_c, 0, 73, 64
2, 10560, Note_on_c, 0, 58, 56
2, 10560, Note_on_c, 0, 54, 64
2, 10620, Note_on_c, 0, 63, 64
2, 10680, Note_off_c, 0, 63, 64
2, 10680, Note_off_c, 0, 58, 64
2, 10680, Note_on_c, 0, 66, 64
2, 10680, Note_on_c, 0, 58, 56
2, 10740, Note_off_c, 0, 66, 64
2, 10740, Note_on_c, 0, 73, 64
2, 10800, Note_off_c, 0, 58, 64
2, 10800, Note_off_c, 0, 54, 64
2, 10800, Note_on_c, 0, 66, 64
2, 10800, Note_on_c, 0, 58, 56
2, 10860, Note_off_c, 0, 66, 64
2, 10860, Note_on_c, 0, 65, 64
2, 10920, Note_off_c, 0, 65, 64
2, 10920, Note_off_c, 0, 58, 64
2, 10920, Note_on_c, 0, 66, 64
2, 10920, Note_on_c, 0, 58, 56
2, 10980, Note_off_c, 0, 66, 64
2, 10980, Note_on_c, 0, 63, 64
2, 11040, Note_off_c, 0, 63, 64
2, 11040, Note_off_c, 0, 58, 64
2, 11040, Note_off_c, 0, 73, 64
2, 11040, Note_on_c, 0, 59, 56
2, 11040, Note_on_c, 0, 56, 64
2, 11100, Note_on_c, 0, 63, 64
2, 11160, Note_off_c, 0, 63, 64
2, 11160, Note_off_c, 0, 59, 64
2, 11160, Note_on_c, 0, 66, 64
2, 11160, Note_on_c, 0, 59, 56
2, 11220, Note_off_c, 0, 66, 64
2, 11220, Note_on_c, 0, 71, 64
2, 11280, Note_off_c, 0, 59, 64
2, 11280, Note_off_c, 0, 56, 64
2, 11280, Note_on_c, 0, 66, 64
2, 11280, Note_on_c, 0, 59, 56
2, 11340, Note_off_c, 0, 66, 64
2, 11340, Note_on_c, 0, 65, 64
2, 11400, Note_off_c, 0, 65, 64
2, 11400, Note_off_c, 0, 59, 64
2, 11400, Note_on_c, 0, 59, 56
2, 11400, Note_on_c, 0, 66, 64
2, 11460, Note_off_c, 0, 66, 64
2, 11460, Note_on_c, 0, 63, 64
2, 11520, Note_off_c, 0, 63, 64
2, 11520, Note_off_c, 0, 59, 64
2, 11520, Note_off_c, 0, 71, 64
2, 11520, Note_on_c, 0, 56, 56
2, 11520, Note_on_c, 0, 49, 64
2, 11580, Note_on_c, 0, 61, 64
2, 11640, Note_off_c, 0, 61, 64
2, 11640, Note_off_c, 0, 56, 64
2, 11640, Note_on_c, 0, 65, 64
2, 11640, Note_on_c, 0, 56, 56
2, 11700, Note_off_c, 0, 65, 64
2, 11700, Note_on_c, 0, 71, 64
2, 11760, Note_off_c, 0, 56, 64
2, 11760, Note_off_c, 0, 49, 64
2, 11760, Note_on_c, 0, 65, 64
2, 11760, Note_on_c, 0, 56, 56
2, 11820, Note_off_c, 0, 65, 64
2, 11820, Note_on_c, 0, 63, 64
2, 11880, Note_off_c, 0, 63, 64
2, 11880, Note_off_c, 0, 56, 64
2, 11880, Note_on_c, 0, 65, 64
2, 11880, Note_on_c, 0, 56, 56
2, 11940, Note_off_c, 0, 65, 64
2, 11940, Note_on_c, 0, 61, 64
2, 12000, Note_off_c, 0, 61, 64
2, 12000, Note_off_c, 0, 56, 64
2, 12000, Note_off_c, 0, 71, 64
2, 12000, Note_on_c, 0, 58, 56
2, 12000, Note_on_c, 0, 54, 64
2, 12060, Note_on_c, 0, 61, 64
2, 12120, Note_off_c, 0, 61, 64
2, 12120, Note_off_c, 0, 58, 64
2, 12120, Note_on_c, 0, 66, 64
2, 12120, Note_on_c, 0, 58, 56
2, 12180, Note_off_c, 0, 66, 64
2, 12180, Note_on_c, 0, 70, 64
2, 12240, Note_off_c, 0, 58, 64
2, 12240, Note_off_c, 0, 54, 64
2, 12240, Note_on_c, 0, 66, 64
2, 12240, Note_on_c, 0, 58, 56
2, 12300, Note_off_c, 0, 66, 64
2, 12300, Note_on_c, 0, 65, 64
2, 12360, Note_off_c, 0, 65, 64
2, 12360, Note_off_c, 0, 58, 64
2, 12360, Note_on_c, 0, 58, 56
2, 12360, Note_on_c, 0, 66, 64
2, 12420, Note_off_c, 0, 66, 64
2, 12420, Note_on_c, 0, 61, 64
2, 12480, Note_off_c, 0, 61, 64
2, 12480, Note_off_c, 0, 58, 64
2, 12480, Note_off_c, 0, 70, 64
2, 12480, Note_on_c, 0, 51, 64
2, 12480, Note_on_c, 0, 48, 64
2, 12540, Note_on_c, 0, 63, 64
2, 12600, Note_off_c, 0, 63, 64
2, 12600, Note_off_c, 0, 51, 64
2, 12600, Note_on_c, 0, 66, 64
2, 12600, Note_on_c, 0, 51, 64
2, 12660, Note_off_c, 0, 66, 64
2, 12660, Note_on_c, 0, 68, 64
2, 12720, Note_off_c, 0, 51, 64
2, 12720, Note_off_c, 0, 48, 64
2, 12720, Note_on_c, 0, 66, 64
2, 12720, Note_on_c, 0, 51, 64
2, 12780, Note_off_c, 0, 66, 64
2, 12780, Note_on_c, 0, 65, 64
2, 12840, Note_off_c, 0, 65, 64
2, 12840, Note_off_c, 0, 51, 64
2, 12840, Note_on_c, 0, 66, 64
2, 12840, Note_on_c, 0, 51, 64
2, 12900, Note_off_c, 0, 66, 64
2, 12900, Note_on_c, 0, 63, 64
2, 12960, Note_off_c, 0, 63, 64
2, 12960, Note_off_c, 0, 51, 64
2, 12960, Note_off_c, 0, 68, 64
2, 12960, Note_on_c, 0, 53, 56
2, 12960, Note_on_c, 0, 50, 64
2, 13020, Note_on_c, 0, 58, 64
2, 13080, Note_off_c, 0, 58, 64
2, 13080, Note_off_c, 0, 53, 64
2, 13080, Note_on_c, 0, 65, 64
2, 13080, Note_on_c, 0, 53, 56
2, 13140, Note_off_c, 0, 65, 64
2, 13140, Note_on_c, 0, 68, 64
2, 13200, Note_off_c, 0, 53, 64
2, 13200, Note_off_c, 0, 50, 64
2, 13200, Note_on_c, 0, 65, 64
2, 13200, Note_on_c, 0, 58, 56
2, 13260, Note_off_c, 0, 65, 64
2, 13260, Note_on_c, 0, 63, 64
2, 13320, Note_off_c, 0, 63, 64
2, 13320, Note_off_c, 0, 58, 64
2, 13320, Note_on_c, 0, 58, 56
2, 13320, Note_on_c, 0, 65, 64
2, 13380, Note_off_c, 0, 65, 64
2, 13380, Note_on_c, 0, 62, 64
2, 13440, Note_off_c, 0, 62, 64
2, 13440, Note_off_c, 0, 58, 64
2, 13440, Note_off_c, 0, 68, 64
2, 13440, Note_on_c, 0, 59, 56
2, 13440, Note_on_c, 0, 51, 64
2, 13500, Note_on_c, 0, 62, 64
2, 13560, Note_off_c, 0, 62, 64
2, 13560, Note_off_c, 0, 59, 64
2, 13560, Note_on_c, 0, 65, 64
2, 13560, Note_on_c, 0, 59, 56
2, 13620, Note_off_c, 0, 65, 64
2, 13620, Note_on_c, 0, 68, 64
2, 13680, Note_off_c, 0, 59, 64
2, 13680, Note_off_c, 0, 51, 64
2, 13680, Note_on_c, 0, 65, 64
2, 13680, Note_on_c, 0, 59, 56
2, 13740, Note_off_c, 0, 65, 64
2, 13740, Note_on_c, 0, 63, 64
2, 13800, Note_off_c, 0, 63, 64
2, 13800, Note_off_c, 0, 59, 64
2, 13800, Note_on_c, 0, 65, 64
2, 13800, Note_on_c, 0, 59, 56
2, 13860, Note_off_c, 0, 65, 64
2, 13860, Note_on_c, 0, 62, 64
2, 13920, Note_off_c, 0, 62, 64
2, 13920, Note_off_c, 0, 59, 64
2, 13920, Note_off_c, 0, 68, 64
2, 13920, Note_on_c, 0, 58, 56
2, 13920, Note_on_c, 0, 51, 64
2, 13980, Note_on_c, 0, 61, 64
2, 14040, Note_off_c, 0, 61, 64
2, 14040, Note_off_c, 0, 58, 64
2, 14040, Note_on_c, 0, 63, 64
2, 14040, Note_on_c, 0, 58, 56
2, 14100, Note_off_c, 0, 63, 64
2, 14100, Note_on_c, 0, 67, 64
2, 14160, Note_off_c, 0, 58, 64
2, 14160, Note_off_c, 0, 51, 64
2, 14160, Note_on_c, 0, 63, 64
2, 14160, Note_on_c, 0, 58, 56
2, 14220, Note_off_c, 0, 63, 64
2, 14220, Note_on_c, 0, 61, 64
2, 14280, Note_off_c, 0, 61, 64
2, 14280, Note_off_c, 0, 58, 64
2, 14280, Note_on_c, 0, 58, 56
2, 14280, Note_on_c, 0, 63, 64
2, 14340, Note_off_c, 0, 63, 64
2, 14340, Note_on_c, 0, 61, 64
2, 14400, Note_off_c, 0, 61, 64
2, 14400, Note_off_c, 0, 58, 64
2, 14400, Note_off_c, 0, 67, 64
2, 14400, Note_on_c, 0, 56, 64
2, 14400, Note_on_c, 0, 53, 64
2, 14460, Note_on_c, 0, 60, 64
2, 14520, Note_off_c, 0, 60, 64
2, 14520, Note_off_c, 0, 56, 64
2, 14520, Note_on_c, 0, 63, 64
2, 14520, Note_on_c, 0, 56, 64
2, 14580, Note_off_c, 0, 63, 64
2, 14580, Note_on_c, 0, 66, 64
2, 14640, Note_off_c, 0, 56, 64
2, 14640, Note_off_c, 0, 53, 64
2, 14640, Note_on_c, 0, 63, 64
2, 14640, Note_on_c, 0, 56, 64
2, 14700, Note_off_c, 0, 63, 64
2, 14700, Note_on_c, 0, 61, 64
2, 14760, Note_off_c, 0, 61, 64
2, 14760, Note_off_c, 0, 56, 64
2, 14760, Note_on_c, 0, 63, 64
2, 14760, Note_on_c, 0, 56, 64
2, 14820, Note_off_c, 0, 63, 64
2, 14820, Note_on_c, 0, 60, 64
2, 14880, Note_off_c, 0, 60, 64
2, 14880, Note_off_c, 0, 56, 64
2, 14880, Note_off_c, 0, 66, 64
2, 14880, Note_on_c, 0, 56, 56
2, 14880, Note_on_c, 0, 49, 64
2, 14940, Note_on_c, 0, 59, 64
2, 15000, Note_off_c, 0, 59, 64
2, 15000, Note_off_c, 0, 56, 64
2, 15000, Note_on_c, 0, 61, 64
2, 15000, Note_on_c, 0, 56, 56
2, 15060, Note_off_c, 0, 61, 64
2, 15060, Note_on_c, 0, 65, 64
2, 15120, Note_off_c, 0, 56, 64
2, 15120, Note_off_c, 0, 49, 64
2, 15120, Note_on_c, 0, 61, 64
2, 15120, Note_on_c, 0, 56, 56
2, 15180, Note_off_c, 0, 61, 64
2, 15180, Note_on_c, 0, 59, 64
2, 15240, Note_off_c, 0, 59, 64
2, 15240, Note_off_c, 0, 56, 64
2, 15240, Note_on_c, 0, 56, 56
2, 15240, Note_on_c, 0, 61, 64
2, 15300, Note_off_c, 0, 61, 64
2, 15300, Note_on_c, 0, 59, 64
2, 15360, Note_off_c, 0, 59, 64
2, 15360, Note_off_c, 0, 56, 64
2, 15360, Note_off_c, 0, 65, 64
2, 15360, Note_on_c, 0, 54, 56
2, 15360, Note_on_c, 0, 42, 64
2, 15420, Note_on_c, 0, 58, 64
2, 15480, Note_off_c, 0, 58, 64
2, 15480, Note_off_c, 0, 54, 64
2, 15480, Note_on_c, 0, 61, 64
2, 15480, Note_on_c, 0, 54, 56
2, 15540, Note_off_c, 0, 61, 64
2, 15540, Note_on_c, 0, 65, 64
2, 15600, Note_off_c, 0, 54, 64
2, 15600, Note_off_c, 0, 42, 64
2, 15600, Note_on_c, 0, 61, 64
2, 15600, Note_on_c, 0, 54, 56
2, 15660, Note_off_c, 0, 61, 64
2, 15660, Note_on_c, 0, 60, 64
2, 15720, Note_off_c, 0, 60, 64
2, 15720, Note_off_c, 0, 54, 64
2, 15720, Note_on_c, 0, 61, 64
2, 15720, Note_on_c, 0, 54, 56
2, 15780, Note_off_c, 0, 61, 64
2, 15780, Note_on_c, 0, 58, 64
2, 15840, Note_off_c, 0, 58, 64
2, 15840, Note_off_c, 0, 54, 64
2, 15840, Note_off_c, 0, 65, 64
2, 15840, Note_on_c, 0, 54, 56
2, 15840, Note_on_c, 0, 42, 64
2, 15900, Note_on_c, 0, 58, 64
2, 15960, Note_off_c, 0, 58, 64
2, 15960, Note_off_c, 0, 54, 64
2, 15960, Note_on_c, 0, 61, 64
2, 15960, Note_on_c, 0, 54, 56
2, 16020, Note_off_c, 0, 61, 64
2, 16020, Note_on_c, 0, 63, 64
2, 16080, Note_off_c, 0, 54, 64
2, 16080, Note_off_c, 0, 42, 64
2, 16080, Note_on_c, 0, 61, 64
2, 16080, Note_on_c, 0, 54, 56
2, 16140, Note_off_c, 0, 61, 64
2, 16140, Note_on_c, 0, 60, 64
2, 16200, Note_off_c, 0, 60, 64
2, 16200, Note_off_c, 0, 54, 64
2, 16200, Note_on_c, 0, 54, 56
2, 16200, Note_on_c, 0, 61, 64
2, 16260, Note_off_c, 0, 61, 64
2, 16260, Note_on_c, 0, 58, 64
2, 16320, Note_off_c, 0, 58, 64
2, 16320, Note_off_c, 0, 54, 64
2, 16320, Note_off_c, 0, 63, 64
2, 16320, Note_on_c, 0, 51, 56
2, 16320, Note_on_c, 0, 42, 64
2, 16380, Note_on_c, 0, 56, 64
2, 16440, Note_off_c, 0, 56, 64
2, 16440, Note_off_c, 0, 51, 64
2, 16440, Note_on_c, 0, 61, 64
2, 16440, Note_on_c, 0, 51, 56
2, 16500, Note_off_c, 0, 61, 64
2, 16500, Note_on_c, 0, 63, 64
2, 16560, Note_off_c, 0, 51, 64
2, 16560, Note_off_c, 0, 42, 64
2, 16560, Note_on_c, 0, 59, 64
2, 16560, Note_on_c, 0, 51, 56
2, 16620, Note_off_c, 0, 59, 64
2, 16620, Note_on_c, 0, 58, 64
2, 16680, Note_off_c, 0, 58, 64
2, 16680, Note_off_c, 0, 51, 64
2, 16680, Note_on_c, 0, 59, 64
2, 16680, Note_on_c, 0, 51, 56
2, 16740, Note_off_c, 0, 59, 64
2, 16740, Note_on_c, 0, 56, 64
2, 16800, Note_off_c, 0, 56, 64
2, 16800, Note_off_c, 0, 51, 64
2, 16800, Note_off_c, 0, 63, 64
2, 16800, Note_on_c, 0, 49, 56
2, 16800, Note_on_c, 0, 41, 64
2, 16860, Note_on_c, 0, 56, 64
2, 16920, Note_off_c, 0, 56, 64
2, 16920, Note_off_c, 0, 49, 64
2, 16920, Note_on_c, 0, 61, 64
2, 16920, Note_on_c, 0, 49, 56
2, 16980, Note_off_c, 0, 61, 64
2, 16980, Note_on_c, 0, 65, 64
2, 17040, Note_off_c, 0, 49, 64
2, 17040, Note_off_c, 0, 41, 64
2, 17040, Note_on_c, 0, 61, 64
2, 17040, Note_on_c, 0, 44, 56
2, 17100, Note_off_c, 0, 61, 64
2, 17100, Note_on_c, 0, 60, 64
2, 17160, Note_off_c, 0, 60, 64
2, 17160, Note_off_c, 0, 44, 64
2, 17160, Note_on_c, 0, 49, 56
2, 17160, Note_on_c, 0, 61, 64
2, 17220, Note_off_c, 0, 61, 64
2, 17220, Note_on_c, 0, 56, 64
2, 17280, Note_off_c, 0, 56, 64
2, 17280, Note_off_c, 0, 49, 64
2, 17280, Note_off_c, 0, 65, 64
2, 17280, Note_on_c, 0, 49, 56
2, 17280, Note_on_c, 0, 39, 64
2, 17340, Note_on_c, 0, 58, 64
2, 17400, Note_off_c, 0, 58, 64
2, 17400, Note_off_c, 0, 49, 64
2, 17400, Note_on_c, 0, 63, 64
2, 17400, Note_on_c, 0, 49, 56
2, 17460, Note_off_c, 0, 63, 64
2, 17460, Note_on_c, 0, 66, 64
2, 17520, Note_off_c, 0, 49, 64
2, 17520, Note_off_c, 0, 39, 64
2, 17520, Note_on_c, 0, 63, 64
2, 17520, Note_on_c, 0, 48, 56
2, 17580, Note_off_c, 0, 63, 64
2, 17580, Note_on_c, 0, 61, 64
2, 17640, Note_off_c, 0, 61, 64
2, 17640, Note_off_c, 0, 48, 64
2, 17640, Note_on_c, 0, 63, 64
2, 17640, Note_on_c, 0, 46, 56
2, 17700, Note_off_c, 0, 63, 64
2, 17700, Note_on_c, 0, 58, 64
2, 17760, Note_off_c, 0, 58, 64
2, 17760, Note_off_c, 0, 46, 64
2, 17760, Note_off_c, 0, 66, 64
2, 17760, Note_on_c, 0, 48, 56
2, 17760, Note_on_c, 0, 44, 64
2, 17820, Note_on_c, 0, 56, 64
2, 17880, Note_off_c, 0, 56, 64
2, 17880, Note_off_c, 0, 48, 64
2, 17880, Note_on_c, 0, 63, 64
2, 17880, Note_on_c, 0, 48, 56
2, 17940, Note_off_c, 0, 63, 64
2, 17940, Note_on_c, 0, 66, 64
2, 18000, Note_off_c, 0, 48, 64
2, 18000, Note_off_c, 0, 44, 64
2, 18000, Note_on_c, 0, 63, 64
2, 18000, Note_on_c, 0, 48, 56
2, 18060, Note_off_c, 0, 63, 64
2, 18060, Note_on_c, 0, 61, 64
2, 18120, Note_off_c, 0, 61, 64
2, 18120, Note_off_c, 0, 48, 64
2, 18120, Note_on_c, 0, 48, 56
2, 18120, Note_on_c, 0, 63, 64
2, 18180, Note_off_c, 0, 63, 64
2, 18180, Note_on_c, 0, 56, 64
2, 18240, Note_off_c, 0, 56, 64
2, 18240, Note_off_c, 0, 48, 64
2, 18240, Note_off_c, 0, 66, 64
2, 18240, Note_on_c, 0, 49, 56
2, 18240, Note_on_c, 0, 37, 64
2, 18300, Note_on_c, 0, 56, 64
2, 18360, Note_off_c, 0, 56, 64
2, 18360, Note_off_c, 0, 49, 64
2, 18360, Note_on_c, 0, 63, 64
2, 18360, Note_on_c, 0, 48, 56
2, 18420, Note_off_c, 0, 63, 64
2, 18420, Note_on_c, 0, 66, 64
2, 18480, Note_off_c, 0, 48, 64
2, 18480, Note_off_c, 0, 37, 64
2, 18480, Note_on_c, 0, 63, 64
2, 18480, Note_on_c, 0, 46, 56
2, 18540, Note_off_c, 0, 63, 64
2, 18540, Note_on_c, 0, 61, 64
2, 18600, Note_off_c, 0, 61, 64
2, 18600, Note_off_c, 0, 46, 64
2, 18600, Note_on_c, 0, 63, 64
2, 18600, Note_on_c, 0, 48, 56
2, 18660, Note_off_c, 0, 63, 64
2, 18660, Note_on_c, 0, 56, 64
2, 18720, Note_off_c, 0, 56, 64
2, 18720, Note_off_c, 0, 48, 64
2, 18720, Note_off_c, 0, 66, 64
2, 18720, Note_on_c, 0, 49, 56
2, 18720, Note_on_c, 0, 37, 64
2, 18780, Note_on_c, 0, 56, 64
2, 18840, Note_off_c, 0, 56, 64
2, 18840, Note_off_c, 0, 49, 64
2, 18840, Note_on_c, 0, 61, 64
2, 18840, Note_on_c, 0, 49, 56
2, 18900, Note_off_c, 0, 61, 64
2, 18900, Note_on_c, 0, 65, 64
2, 18960, Note_off_c, 0, 49, 64
2, 18960, Note_off_c, 0, 37, 64
2, 18960, Note_on_c, 0, 61, 64
2, 18960, Note_on_c, 0, 53, 56
2, 19020, Note_off_c, 0, 61, 64
2, 19020, Note_on_c, 0, 60, 64
2, 19080, Note_off_c, 0, 60, 64
2, 19080, Note_off_c, 0, 53, 64
2, 19080, Note_on_c, 0, 53, 56
2, 19080, Note_on_c, 0, 61, 64
2, 19140, Note_off_c, 0, 61, 64
2, 19140, Note_on_c, 0, 56, 64
2, 19200, Note_off_c, 0, 56, 64
2, 19200, Note_off_c, 0, 53, 64
2, 19200, Note_off_c, 0, 65, 64
2, 19200, Note_on_c, 0, 51, 56
2, 19200, Note_on_c, 0, 49, 64
2, 19260, Note_on_c, 0, 58, 64
2, 19320, Note_off_c, 0, 58, 64
2, 19320, Note_off_c, 0, 51, 64
2, 19320, Note_on_c, 0, 63, 64
2, 19320, Note_on_c, 0, 55, 64
2, 19380, Note_off_c, 0, 63, 64
2, 19380, Note_on_c, 0, 67, 64
2, 19440, Note_off_c, 0, 55, 64
2, 19440, Note_off_c, 0, 49, 64
2, 19440, Note_on_c, 0, 63, 64
2, 19440, Note_on_c, 0, 58, 64
2, 19500, Note_off_c, 0, 63, 64
2, 19500, Note_on_c, 0, 61, 64
2, 19560, Note_off_c, 0, 61, 64
2, 19560, Note_off_c, 0, 58, 64
2, 19560, Note_on_c, 0, 63, 64
2, 19560, Note_on_c, 0, 55, 64
2, 19620, Note_off_c, 0, 63, 64
2, 19620, Note_on_c, 0, 58, 64
2, 19680, Note_off_c, 0, 58, 64
2, 19680, Note_off_c, 0, 55, 64
2, 19680, Note_off_c, 0, 67, 64
2, 19680, Note_on_c, 0, 51, 64
2, 19680, Note_on_c, 0, 47, 64
2, 19740, Note_on_c, 0, 59, 64
2, 19800, Note_off_c, 0, 59, 64
2, 19800, Note_off_c, 0, 51, 64
2, 19800, Note_on_c, 0, 63, 64
2, 19800, Note_on_c, 0, 51, 64
2, 19860, Note_off_c, 0, 63, 64
2, 19860, Note_on_c, 0, 68, 64
2, 19920, Note_off_c, 0, 51, 64
2, 19920, Note_off_c, 0, 47, 64
2, 19920, Note_on_c, 0, 63, 64
2, 19920, Note_on_c, 0, 56, 56
2, 19980, Note_off_c, 0, 63, 64
2, 19980, Note_on_c, 0, 61, 64
2, 20040, Note_off_c, 0, 61, 64
2, 20040, Note_off_c, 0, 56, 64
2, 20040, Note_on_c, 0, 56, 56
2, 20040, Note_on_c, 0, 63, 64
2, 20100, Note_off_c, 0, 63, 64
2, 20100, Note_on_c, 0, 59, 64
2, 20160, Note_off_c, 0, 59, 64
2, 20160, Note_off_c, 0, 56, 64
2, 20160, Note_off_c, 0, 68, 64
2, 20160, Note_on_c, 0, 56, 56
2, 20160, Note_on_c, 0, 52, 64
2, 20220, Note_on_c, 0, 59, 64
2, 20280, Note_off_c, 0, 59, 64
2, 20280, Note_off_c, 0, 56, 64
2, 20280, Note_on_c, 0, 63, 64
2, 20280, Note_on_c, 0, 56, 56
2, 20340, Note_off_c, 0, 63, 64
2, 20340, Note_on_c, 0, 68, 64
2, 20400, Note_off_c, 0, 56, 64
2, 20400, Note_off_c, 0, 52, 64
2, 20400, Note_on_c, 0, 63, 64
2, 20400, Note_on_c, 0, 56, 56
2, 20460, Note_off_c, 0, 63, 64
2, 20460, Note_on_c, 0, 61, 64
2, 20520, Note_off_c, 0, 61, 64
2, 20520, Note_off_c, 0, 56, 64
2, 20520, Note_on_c, 0, 63, 64
2, 20520, Note_on_c, 0, 56, 56
2, 20580, Note_off_c, 0, 63, 64
2, 20580, Note_on_c, 0, 59, 64
2, 20640, Note_off_c, 0, 59, 64
2, 20640, Note_off_c, 0, 56, 64
2, 20640, Note_off_c, 0, 68, 64
2, 20640, Note_on_c, 0, 56, 56
2, 20640, Note_on_c, 0, 53, 64
2, 20700, Note_on_c, 0, 59, 64
2, 20760, Note_off_c, 0, 59, 64
2, 20760, Note_off_c, 0, 56, 64
2, 20760, Note_on_c, 0, 62, 64
2, 20760, Note_on_c, 0, 56, 56
2, 20820, Note_off_c, 0, 62, 64
2, 20820, Note_on_c, 0, 68, 64
2, 20880, Note_off_c, 0, 56, 64
2, 20880, Note_off_c, 0, 53, 64
2, 20880, Note_on_c, 0, 63, 64
2, 20880, Note_on_c, 0, 56, 56
2, 20940, Note_off_c, 0, 63, 64
2, 20940, Note_on_c, 0, 62, 64
2, 21000, Note_off_c, 0, 62, 64
2, 21000, Note_off_c, 0, 56, 64
2, 21000, Note_on_c, 0, 56, 56
2, 21000, Note_on_c, 0, 63, 64
2, 21060, Note_off_c, 0, 63, 64
2, 21060, Note_on_c, 0, 62, 64
2, 21120, Note_off_c, 0, 62, 64
2, 21120, Note_off_c, 0, 56, 64
2, 21120, Note_off_c, 0, 68, 64
2, 21120, Note_on_c, 0, 56, 56
2, 21120, Note_on_c, 0, 51, 64
2, 21180, Note_on_c, 0, 59, 64
2, 21240, Note_off_c, 0, 59, 64
2, 21240, Note_off_c, 0, 56, 64
2, 21240, Note_on_c, 0, 63, 64
2, 21240, Note_on_c, 0, 56, 56
2, 21300, Note_off_c, 0, 63, 64
2, 21300, Note_on_c, 0, 68, 64
2, 21360, Note_off_c, 0, 56, 64
2, 21360, Note_off_c, 0, 51, 64
2, 21360, Note_on_c, 0, 63, 64
2, 21360, Note_on_c, 0, 56, 56
2, 21420, Note_off_c, 0, 63, 64
2, 21420, Note_on_c, 0, 61, 64
2, 21480, Note_off_c, 0, 61, 64
2, 21480, Note_off_c, 0, 56, 64
2, 21480, Note_on_c, 0, 63, 64
2, 21480, Note_on_c, 0, 56, 56
2, 21540, Note_off_c, 0, 63, 64
2, 21540, Note_on_c, 0, 59, 64
2, 21590, Note_off_c, 0, 59, 64
2, 21603, Note_off_c, 0, 56, 64
2, 21603, Note_off_c, 0, 68, 64
2, 21603, Note_on_c, 0, 59, 56
2, 21603, Note_on_c, 0, 51, 64
2, 21663, Note_on_c, 0, 62, 64
2, 21723, Note_off_c, 0, 62, 64
2, 21723, Note_off_c, 0, 59, 64
2, 21723, Note_on_c, 0, 65, 64
2, 21723, Note_on_c, 0, 59, 56
2, 21783, Note_off_c, 0, 65, 64
2, 21783, Note_on_c, 0, 68, 64
2, 21843, Note_off_c, 0, 59, 64
2, 21843, Note_off_c, 0, 51, 64
2, 21843, Note_on_c, 0, 65, 64
2, 21843, Note_on_c, 0, 59, 56
2, 21903, Note_off_c, 0, 65, 64
2, 21903, Note_on_c, 0, 63, 64
2, 21963, Note_off_c, 0, 63, 64
2, 21963, Note_off_c, 0, 59, 64
2, 21963, Note_on_c, 0, 59, 56
2, 21963, Note_on_c, 0, 65, 64
2, 22023, Note_off_c, 0, 65, 64
2, 22023, Note_on_c, 0, 62, 64
2, 22083, Note_off_c, 0, 62, 64
2, 22083, Note_off_c, 0, 59, 64
2, 22083, Note_off_c, 0, 68, 64
2, 22083, Note_on_c, 0, 58, 56
2, 22083, Note_on_c, 0, 51, 64
2, 22143, Note_on_c, 0, 61, 64
2, 22203, Note_off_c, 0, 61, 64
2, 22203, Note_off_c, 0, 58, 64
2, 22203, Note_on_c, 0, 64, 64
2, 22203, Note_on_c, 0, 58, 56
2, 22263, Note_off_c, 0, 64, 64
2, 22263, Note_on_c, 0, 68, 64
2, 22323, Note_off_c, 0, 58, 64
2, 22323, Note_off_c, 0, 51, 64
2, 22323, Note_on_c, 0, 64, 64
2, 22323, Note_on_c, 0, 58, 56
2, 22383, Note_off_c, 0, 64, 64
2, 22383, Note_on_c, 0, 63, 64
2, 22443, Note_off_c, 0, 63, 64
2, 22443, Note_off_c, 0, 58, 64
2, 22443, Note_on_c, 0, 64, 64
2, 22443, Note_on_c, 0, 58, 56
2, 22503, Note_off_c, 0, 64, 64
2, 22503, Note_on_c, 0, 61, 64
2, 22563, Note_off_c, 0, 61, 64
2, 22563, Note_off_c, 0, 58, 64
2, 22563, Note_off_c, 0, 68, 64
2, 22563, Note_on_c, 0, 58, 56
2, 22563, Note_on_c, 0, 51, 64
2, 22623, Note_on_c, 0, 61, 64
2, 22683, Note_off_c, 0, 61, 64
2, 22683, Note_off_c, 0, 58, 64
2, 22683, Note_on_c, 0, 63, 64
2, 22683, Note_on_c, 0, 58, 56
2, 22743, Note_off_c, 0, 63, 64
2, 22743, Note_on_c, 0, 67, 64
2, 22803, Note_off_c, 0, 58, 64
2, 22803, Note_off_c, 0, 51, 64
2, 22803, Note_on_c, 0, 63, 64
2, 22803, Note_on_c, 0, 58, 56
2, 22863, Note_off_c, 0, 63, 64
2, 22863, Note_on_c, 0, 61, 64
2, 22923, Note_off_c, 0, 61, 64
2, 22923, Note_off_c, 0, 58, 64
2, 22923, Note_on_c, 0, 58, 56
2, 22923, Note_on_c, 0, 63, 64
2, 22983, Note_off_c, 0, 63, 64
2, 22983, Note_on_c, 0, 61, 64
2, 23043, Note_off_c, 0, 61, 64
2, 23043, Note_off_c, 0, 58, 64
2, 23043, Note_off_c, 0, 67, 64
2, 23043, Note_on_c, 0, 56, 64
2, 23043, Note_on_c, 0, 44, 64
2, 23043, Note_on_c, 0, 68, 64
2, 23043, Note_on_c, 0, 63, 64
2, 23043, Note_on_c, 0, 60, 64
2, 23133, Note_off_c, 0, 60, 64
2, 23133, Note_off_c, 0, 63, 64
2, 23133, Note_off_c, 0, 68, 64
2, 23133, Note_off_c, 0, 44, 64
2, 23133, Note_off_c, 0, 56, 64
2, 23163, Note_on_c, 0, 63, 64
2, 23223, Note_off_c, 0, 63, 64
2, 23223, Note_on_c, 0, 61, 64
2, 23283, Note_off_c, 0, 61, 64
2, 23283, Note_on_c, 0, 63, 64
2, 23343, Note_off_c, 0, 63, 64
2, 23343, Note_on_c, 0, 65, 64
2, 23393, Note_off_c, 0, 65, 64
2, 23406, Note_on_c, 0, 65, 72
2, 23436, Note_off_c, 0, 65, 64
2, 23436, Note_on_c, 0, 66, 64
2, 23526, Note_on_c, 0, 58, 64
2, 23586, Note_off_c, 0, 58, 64
2, 23586, Note_on_c, 0, 56, 64
2, 23646, Note_off_c, 0, 56, 64
2, 23646, Note_on_c, 0, 58, 64
2, 23706, Note_off_c, 0, 58, 64
2, 23706, Note_on_c, 0, 60, 64
2, 23756, Note_off_c, 0, 60, 64
2, 23769, Note_on_c, 0, 60, 72
2, 23799, Note_off_c, 0, 60, 64
2, 23799, Note_on_c, 0, 61, 64
2, 23869, Note_off_c, 0, 66, 64
2, 23889, Note_on_c, 0, 65, 64
2, 23979, Note_off_c, 0, 65, 64
2, 24009, Note_on_c, 0, 70, 64
2, 24099, Note_off_c, 0, 70, 64
2, 24129, Note_on_c, 0, 63, 64
2, 24249, Note_off_c, 0, 63, 64
2, 24249, Note_off_c, 0, 61, 64
2, 24249, Note_on_c, 0, 68, 72
2, 24249, Note_on_c, 0, 60, 64
2, 24279, Note_off_c, 0, 68, 64
2, 24281, Note_on_c, 0, 66, 72
2, 24309, Note_on_c, 0, 68, 64
2, 24311, Note_off_c, 0, 66, 64
2, 24369, Note_off_c, 0, 60, 64
2, 24369, Note_on_c, 0, 65, 64
2, 24489, Note_off_c, 0, 65, 64
2, 24489, Note_on_c, 0, 58, 64
2, 24609, Note_off_c, 0, 58, 64
2, 24609, Note_off_c, 0, 68, 64
2, 24609, Note_on_c, 0, 63, 72
2, 24609, Note_on_c, 0, 66, 64
2, 24639, Note_off_c, 0, 63, 64
2, 24641, Note_on_c, 0, 61, 72
2, 24669, Note_off_c, 0, 66, 64
2, 24669, Note_on_c, 0, 63, 64
2, 24669, Note_on_c, 0, 65, 64
2, 24671, Note_off_c, 0, 61, 64
2, 24729, Note_off_c, 0, 65, 64
2, 24729, Note_on_c, 0, 66, 64
2, 24789, Note_off_c, 0, 66, 64
2, 24789, Note_on_c, 0, 68, 64
2, 24849, Note_off_c, 0, 68, 64
2, 24849, Note_on_c, 0, 66, 72
2, 24879, Note_off_c, 0, 66, 64
2, 24879, Note_on_c, 0, 65, 64
2, 24969, Note_off_c, 0, 63, 64
2, 24969, Note_on_c, 0, 61, 64
2, 24969, Note_on_c, 0, 53, 64
2, 25029, Note_off_c, 0, 53, 64
2, 25029, Note_on_c, 0, 51, 64
2, 25089, Note_off_c, 0, 51, 64
2, 25089, Note_on_c, 0, 53, 64
2, 25149, Note_off_c, 0, 53, 64
2, 25149, Note_on_c, 0, 54, 64
2, 25209, Note_off_c, 0, 54, 64
2, 25209, Note_off_c, 0, 65, 64
2, 25209, Note_on_c, 0, 56, 64
2, 25209, Note_on_c, 0, 63, 64
2, 25329, Note_off_c, 0, 63, 64
2, 25329, Note_off_c, 0, 61, 64
2, 25329, Note_on_c, 0, 68, 64
2, 25329, Note_on_c, 0, 60, 64
2, 25389, Note_off_c, 0, 60, 64
2, 25389, Note_off_c, 0, 68, 64
2, 25389, Note_on_c, 0, 67, 64
2, 25389, Note_on_c, 0, 58, 64
2, 25449, Note_off_c, 0, 58, 64
2, 25449, Note_off_c, 0, 67, 64
2, 25449, Note_on_c, 0, 68, 64
2, 25449, Note_on_c, 0, 60, 64
2, 25509, Note_off_c, 0, 60, 64
2, 25509, Note_off_c, 0, 68, 64
2, 25509, Note_on_c, 0, 61, 64
2, 25509, Note_on_c, 0, 70, 64
2, 25569, Note_off_c, 0, 70, 64
2, 25569, Note_off_c, 0, 61, 64
2, 25569, Note_on_c, 0, 72, 64
2, 25569, Note_on_c, 0, 63, 64
2, 25629, Note_off_c, 0, 72, 64
2, 25629, Note_on_c, 0, 68, 64
2, 25689, Note_off_c, 0, 68, 64
2, 25689, Note_off_c, 0, 63, 64
2, 25689, Note_on_c, 0, 73, 64
2, 25689, Note_on_c, 0, 56, 64
2, 25689, Note_on_c, 0, 53, 64
2, 25690, Note_off_c, 0, 56, 64
2, 25749, Note_off_c, 0, 73, 64
2, 25749, Note_on_c, 0, 75, 64
2, 25809, Note_off_c, 0, 75, 64
2, 25809, Note_off_c, 0, 53, 64
2, 25809, Note_off_c, 0, 56, 64
2, 25809, Note_on_c, 0, 58, 64
2, 25809, Note_on_c, 0, 73, 64
2, 25869, Note_off_c, 0, 73, 64
2, 25869, Note_on_c, 0, 72, 64
2, 25929, Note_off_c, 0, 72, 64
2, 25929, Note_off_c, 0, 58, 64
2, 25929, Note_on_c, 0, 66, 64
2, 25929, Note_on_c, 0, 70, 64
2, 25929, Note_on_c, 0, 51, 64
2, 25989, Note_off_c, 0, 70, 64
2, 25989, Note_on_c, 0, 72, 64
2, 26039, Note_off_c, 0, 72, 64
2, 26052, Note_off_c, 0, 51, 64
2, 26052, Note_on_c, 0, 73, 57
2, 26052, Note_on_c, 0, 56, 64
2, 26082, Note_off_c, 0, 73, 43
2, 26082, Note_on_c, 0, 72, 50
2, 26112, Note_off_c, 0, 72, 41
2, 26112, Note_on_c, 0, 73, 52
2, 26142, Note_off_c, 0, 73, 40
2, 26142, Note_on_c, 0, 72, 54
2, 26172, Note_off_c, 0, 72, 23
2, 26172, Note_off_c, 0, 56, 64
2, 26172, Note_on_c, 0, 73, 56
2, 26172, Note_on_c, 0, 44, 64
2, 26202, Note_off_c, 0, 73, 36
2, 26202, Note_on_c, 0, 72, 59
2, 26232, Note_off_c, 0, 72, 37
2, 26232, Note_on_c, 0, 73, 76
2, 26282, Note_off_c, 0, 73, 64
2, 26295, Note_off_c, 0, 44, 64
2, 26295, Note_on_c, 0, 73, 64
2, 26295, Note_on_c, 0, 49, 64
2, 26355, Note_off_c, 0, 66, 64
2, 26355, Note_on_c, 0, 65, 64
2, 26415, Note_off_c, 0, 49, 64
2, 26415, Note_off_c, 0, 73, 64
2, 26415, Note_on_c, 0, 77, 64
2, 26415, Note_on_c, 0, 61, 64
2, 26475, Note_off_c, 0, 61, 64
2, 26475, Note_on_c, 0, 63, 64
2, 26535, Note_off_c, 0, 63, 64
2, 26535, Note_off_c, 0, 77, 64
2, 26535, Note_off_c, 0, 65, 64
2, 26535, Note_on_c, 0, 68, 64
2, 26535, Note_on_c, 0, 75, 64
2, 26535, Note_on_c, 0, 61, 64
2, 26595, Note_off_c, 0, 61, 64
2, 26595, Note_on_c, 0, 60, 64
2, 26655, Note_off_c, 0, 60, 64
2, 26655, Note_off_c, 0, 75, 64
2, 26655, Note_on_c, 0, 58, 64
2, 26655, Note_on_c, 0, 73, 64
2, 26715, Note_off_c, 0, 68, 64
2, 26715, Note_on_c, 0, 65, 64
2, 26775, Note_off_c, 0, 65, 64
2, 26775, Note_off_c, 0, 73, 64
2, 26775, Note_on_c, 0, 78, 64
2, 26775, Note_on_c, 0, 61, 64
2, 26835, Note_off_c, 0, 61, 64
2, 26835, Note_off_c, 0, 78, 64
2, 26835, Note_on_c, 0, 80, 64
2, 26835, Note_on_c, 0, 65, 64
2, 26895, Note_off_c, 0, 65, 64
2, 26895, Note_off_c, 0, 80, 64
2, 26895, Note_on_c, 0, 78, 64
2, 26895, Note_on_c, 0, 63, 64
2, 26955, Note_off_c, 0, 63, 64
2, 26955, Note_off_c, 0, 78, 64
2, 26955, Note_on_c, 0, 61, 64
2, 26955, Note_on_c, 0, 77, 64
2, 27015, Note_off_c, 0, 77, 64
2, 27015, Note_off_c, 0, 61, 64
2, 27015, Note_on_c, 0, 75, 64
2, 27015, Note_on_c, 0, 60, 64
2, 27075, Note_off_c, 0, 58, 64
2, 27075, Note_on_c, 0, 58, 64
2, 27135, Note_off_c, 0, 58, 64
2, 27135, Note_off_c, 0, 60, 64
2, 27135, Note_on_c, 0, 72, 64
2, 27135, Note_on_c, 0, 57, 64
2, 27195, Note_off_c, 0, 57, 64
2, 27195, Note_on_c, 0, 55, 64
2, 27255, Note_off_c, 0, 55, 64
2, 27255, Note_off_c, 0, 72, 64
2, 27255, Note_on_c, 0, 65, 64
2, 27255, Note_on_c, 0, 57, 64
2, 27315, Note_off_c, 0, 57, 64
2, 27315, Note_off_c, 0, 75, 64
2, 27315, Note_on_c, 0, 53, 64
2, 27315, Note_on_c, 0, 75, 64
2, 27375, Note_off_c, 0, 75, 64
2, 27375, Note_off_c, 0, 53, 64
2, 27375, Note_on_c, 0, 73, 64
2, 27375, Note_on_c, 0, 58, 64
2, 27435, Note_off_c, 0, 65, 64
2, 27435, Note_on_c, 0, 65, 64
2, 27495, Note_off_c, 0, 65, 64
2, 27495, Note_off_c, 0, 58, 64
2, 27495, Note_on_c, 0, 66, 64
2, 27495, Note_on_c, 0, 46, 64
2, 27555, Note_off_c, 0, 46, 64
2, 27555, Note_off_c, 0, 73, 64
2, 27555, Note_on_c, 0, 72, 64
2, 27555, Note_on_c, 0, 44, 64
2, 27615, Note_off_c, 0, 44, 64
2, 27615, Note_off_c, 0, 72, 64
2, 27615, Note_on_c, 0, 73, 64
2, 27615, Note_on_c, 0, 46, 64
2, 27675, Note_off_c, 0, 46, 64
2, 27675, Note_off_c, 0, 73, 64
2, 27675, Note_on_c, 0, 48, 64
2, 27675, Note_on_c, 0, 75, 64
2, 27735, Note_off_c, 0, 75, 64
2, 27735, Note_off_c, 0, 48, 64
2, 27735, Note_on_c, 0, 49, 64
2, 27735, Note_on_c, 0, 68, 64
2, 27795, Note_off_c, 0, 66, 64
2, 27795, Note_on_c, 0, 65, 64
2, 27855, Note_off_c, 0, 68, 64
2, 27855, Note_on_c, 0, 73, 64
2, 27915, Note_off_c, 0, 73, 64
2, 27915, Note_on_c, 0, 75, 64
2, 27975, Note_off_c, 0, 75, 64
2, 27975, Note_on_c, 0, 73, 64
2, 28035, Note_off_c, 0, 73, 64
2, 28035, Note_on_c, 0, 72, 64
2, 28095, Note_off_c, 0, 72, 64
2, 28095, Note_off_c, 0, 65, 64
2, 28095, Note_on_c, 0, 70, 64
2, 28095, Note_on_c, 0, 67, 64
2, 28155, Note_off_c, 0, 67, 64
2, 28155, Note_on_c, 0, 63, 64
2, 28215, Note_off_c, 0, 63, 64
2, 28215, Note_off_c, 0, 70, 64
2, 28215, Note_off_c, 0, 49, 64
2, 28215, Note_on_c, 0, 72, 64
2, 28215, Note_on_c, 0, 68, 64
2, 28215, Note_on_c, 0, 48, 64
2, 28275, Note_off_c, 0, 68, 64
2, 28275, Note_on_c, 0, 67, 64
2, 28335, Note_off_c, 0, 67, 64
2, 28335, Note_off_c, 0, 48, 64
2, 28335, Note_on_c, 0, 53, 64
2, 28335, Note_on_c, 0, 68, 64
2, 28395, Note_off_c, 0, 72, 64
2, 28395, Note_on_c, 0, 72, 64
2, 28455, Note_off_c, 0, 72, 64
2, 28455, Note_off_c, 0, 53, 64
2, 28455, Note_on_c, 0, 73, 64
2, 28455, Note_on_c, 0, 46, 64
2, 28515, Note_off_c, 0, 68, 64
2, 28515, Note_on_c, 0, 68, 64
2, 28575, Note_off_c, 0, 68, 64
2, 28575, Note_off_c, 0, 46, 64
2, 28575, Note_on_c, 0, 67, 64
2, 28575, Note_on_c, 0, 51, 64
2, 28635, Note_off_c, 0, 67, 64
2, 28635, Note_on_c, 0, 65, 64
2, 28695, Note_off_c, 0, 65, 64
2, 28695, Note_off_c, 0, 51, 64
2, 28695, Note_on_c, 0, 67, 64
2, 28695, Note_on_c, 0, 39, 64
2, 28755, Note_off_c, 0, 73, 64
2, 28755, Note_on_c, 0, 73, 64
2, 28815, Note_off_c, 0, 73, 64
2, 28815, Note_off_c, 0, 39, 64
2, 28815, Note_off_c, 0, 67, 64
2, 28815, Note_on_c, 0, 72, 64
2, 28815, Note_on_c, 0, 68, 64
2, 28815, Note_on_c, 0, 44, 64
2, 28875, Note_off_c, 0, 44, 64
2, 28875, Note_on_c, 0, 43, 64
2, 28935, Note_off_c, 0, 43, 64
2, 28935, Note_off_c, 0, 68, 64
2, 28935, Note_off_c, 0, 72, 64
2, 28935, Note_on_c, 0, 63, 64
2, 28935, Note_on_c, 0, 44, 64
2, 28995, Note_off_c, 0, 44, 64
2, 28995, Note_off_c, 0, 63, 64
2, 28995, Note_on_c, 0, 61, 64
2, 28995, Note_on_c, 0, 46, 64
2, 29055, Note_off_c, 0, 46, 64
2, 29055, Note_off_c, 0, 61, 64
2, 29055, Note_on_c, 0, 63, 64
2, 29055, Note_on_c, 0, 48, 64
2, 29115, Note_off_c, 0, 48, 64
2, 29115, Note_off_c, 0, 63, 64
2, 29115, Note_on_c, 0, 49, 64
2, 29115, Note_on_c, 0, 65, 64
2, 29175, Note_off_c, 0, 65, 64
2, 29175, Note_off_c, 0, 49, 64
2, 29175, Note_on_c, 0, 66, 64
2, 29175, Note_on_c, 0, 51, 64
2, 29235, Note_off_c, 0, 51, 64
2, 29235, Note_on_c, 0, 50, 64
2, 29295, Note_off_c, 0, 50, 64
2, 29295, Note_on_c, 0, 70, 64
2, 29295, Note_on_c, 0, 51, 64
2, 29355, Note_off_c, 0, 51, 64
2, 29355, Note_off_c, 0, 70, 64
2, 29355, Note_on_c, 0, 68, 64
2, 29355, Note_on_c, 0, 53, 64
2, 29415, Note_off_c, 0, 53, 64
2, 29415, Note_off_c, 0, 68, 64
2, 29415, Note_on_c, 0, 70, 64
2, 29415, Note_on_c, 0, 54, 64
2, 29475, Note_off_c, 0, 54, 64
2, 29475, Note_off_c, 0, 70, 64
2, 29475, Note_on_c, 0, 72, 64
2, 29475, Note_on_c, 0, 56, 64
2, 29535, Note_off_c, 0, 56, 64
2, 29535, Note_off_c, 0, 72, 64
2, 29535, Note_on_c, 0, 73, 64
2, 29535, Note_on_c, 0, 58, 64
2, 29595, Note_off_c, 0, 58, 64
2, 29595, Note_on_c, 0, 57, 64
2, 29655, Note_off_c, 0, 57, 64
2, 29655, Note_off_c, 0, 66, 64
2, 29655, Note_on_c, 0, 65, 64
2, 29655, Note_on_c, 0, 58, 64
2, 29715, Note_off_c, 0, 58, 64
2, 29715, Note_on_c, 0, 60, 64
2, 29775, Note_off_c, 0, 60, 64
2, 29775, Note_off_c, 0, 65, 64
2, 29775, Note_on_c, 0, 70, 64
2, 29775, Note_on_c, 0, 61, 64
2, 29835, Note_off_c, 0, 61, 64
2, 29835, Note_on_c, 0, 63, 64
2, 29895, Note_off_c, 0, 63, 64
2, 29895, Note_off_c, 0, 70, 64
2, 29895, Note_on_c, 0, 69, 64
2, 29895, Note_on_c, 0, 65, 64
2, 29955, Note_off_c, 0, 65, 64
2, 29955, Note_on_c, 0, 63, 64
2, 30015, Note_off_c, 0, 63, 64
2, 30015, Note_off_c, 0, 73, 64
2, 30015, Note_on_c, 0, 72, 64
2, 30015, Note_on_c, 0, 65, 64
2, 30075, Note_off_c, 0, 65, 64
2, 30075, Note_on_c, 0, 66, 64
2, 30135, Note_off_c, 0, 66, 64
2, 30135, Note_off_c, 0, 72, 64
2, 30135, Note_off_c, 0, 69, 64
2, 30135, Note_on_c, 0, 77, 64
2, 30135, Note_on_c, 0, 68, 64
2, 30135, Note_on_c, 0, 65, 64
2, 30195, Note_off_c, 0, 65, 64
2, 30195, Note_on_c, 0, 63, 64
2, 30255, Note_off_c, 0, 63, 64
2, 30255, Note_off_c, 0, 77, 64
2, 30255, Note_on_c, 0, 70, 64
2, 30255, Note_on_c, 0, 62, 64
2, 30315, Note_off_c, 0, 62, 64
2, 30315, Note_on_c, 0, 58, 64
2, 30375, Note_off_c, 0, 58, 64
2, 30375, Note_off_c, 0, 68, 64
2, 30375, Note_on_c, 0, 67, 64
2, 30375, Note_on_c, 0, 63, 64
2, 30435, Note_off_c, 0, 63, 64
2, 30435, Note_on_c, 0, 65, 64
2, 30495, Note_off_c, 0, 65, 64
2, 30495, Note_off_c, 0, 67, 64
2, 30495, Note_off_c, 0, 70, 64
2, 30495, Note_on_c, 0, 66, 64
2, 30495, Note_on_c, 0, 75, 64
2, 30495, Note_on_c, 0, 63, 64
2, 30555, Note_off_c, 0, 63, 64
2, 30555, Note_on_c, 0, 61, 64
2, 30615, Note_off_c, 0, 61, 64
2, 30615, Note_off_c, 0, 75, 64
2, 30615, Note_on_c, 0, 68, 64
2, 30615, Note_on_c, 0, 60, 64
2, 30675, Note_off_c, 0, 60, 64
2, 30675, Note_on_c, 0, 56, 64
2, 30735, Note_off_c, 0, 56, 64
2, 30735, Note_off_c, 0, 66, 64
2, 30735, Note_on_c, 0, 65, 64
2, 30735, Note_on_c, 0, 61, 64
2, 30795, Note_off_c, 0, 61, 64
2, 30795, Note_on_c, 0, 59, 64
2, 30855, Note_off_c, 0, 59, 64
2, 30855, Note_off_c, 0, 65, 64
2, 30855, Note_off_c, 0, 68, 64
2, 30855, Note_on_c, 0, 64, 64
2, 30855, Note_on_c, 0, 73, 64
2, 30855, Note_on_c, 0, 58, 64
2, 30915, Note_off_c, 0, 58, 64
2, 30915, Note_on_c, 0, 56, 64
2, 30975, Note_off_c, 0, 56, 64
2, 30975, Note_off_c, 0, 64, 64
2, 30975, Note_on_c, 0, 63, 64
2, 30975, Note_on_c, 0, 55, 64
2, 31035, Note_off_c, 0, 55, 64
2, 31035, Note_on_c, 0, 51, 64
2, 31095, Note_off_c, 0, 51, 64
2, 31095, Note_off_c, 0, 73, 64
2, 31095, Note_on_c, 0, 72, 64
2, 31095, Note_on_c, 0, 56, 64
2, 31155, Note_off_c, 0, 56, 64
2, 31155, Note_off_c, 0, 72, 64
2, 31155, Note_on_c, 0, 70, 64
2, 31155, Note_on_c, 0, 58, 64
2, 31215, Note_off_c, 0, 58, 64
2, 31215, Note_off_c, 0, 70, 64
2, 31215, Note_on_c, 0, 72, 64
2, 31215, Note_on_c, 0, 56, 64
2, 31275, Note_off_c, 0, 56, 64
2, 31275, Note_off_c, 0, 72, 64
2, 31275, Note_on_c, 0, 75, 64
2, 31275, Note_on_c, 0, 54, 64
2, 31335, Note_off_c, 0, 54, 64
2, 31335, Note_off_c, 0, 75, 64
2, 31335, Note_on_c, 0, 68, 64
2, 31335, Note_on_c, 0, 53, 64
2, 31395, Note_off_c, 0, 53, 64
2, 31395, Note_on_c, 0, 54, 64
2, 31455, Note_off_c, 0, 54, 64
2, 31455, Note_off_c, 0, 68, 64
2, 31455, Note_off_c, 0, 63, 64
2, 31455, Note_on_c, 0, 73, 64
2, 31455, Note_on_c, 0, 61, 64
2, 31455, Note_on_c, 0, 53, 64
2, 31515, Note_off_c, 0, 53, 64
2, 31515, Note_on_c, 0, 51, 64
2, 31575, Note_off_c, 0, 51, 64
2, 31575, Note_off_c, 0, 61, 64
2, 31575, Note_off_c, 0, 73, 64
2, 31575, Note_on_c, 0, 63, 64
2, 31575, Note_on_c, 0, 66, 64
2, 31575, Note_on_c, 0, 53, 64
2, 31635, Note_off_c, 0, 53, 64
2, 31635, Note_on_c, 0, 54, 64
2, 31695, Note_off_c, 0, 54, 64
2, 31695, Note_off_c, 0, 66, 64
2, 31695, Note_on_c, 0, 65, 64
2, 31695, Note_on_c, 0, 56, 64
2, 31755, Note_off_c, 0, 63, 64
2, 31755, Note_on_c, 0, 61, 64
2, 31815, Note_off_c, 0, 56, 64
2, 31815, Note_off_c, 0, 65, 64
2, 31815, Note_on_c, 0, 63, 64
2, 31815, Note_on_c, 0, 42, 64
2, 31875, Note_off_c, 0, 61, 64
2, 31875, Note_on_c, 0, 58, 64
2, 31935, Note_off_c, 0, 58, 64
2, 31935, Note_off_c, 0, 42, 64
2, 31935, Note_on_c, 0, 60, 64
2, 31935, Note_on_c, 0, 44, 64
2, 31995, Note_on_c, 0, 54, 64
2, 32055, Note_off_c, 0, 54, 64
2, 32055, Note_off_c, 0, 44, 64
2, 32055, Note_off_c, 0, 60, 64
2, 32055, Note_off_c, 0, 63, 64
2, 32055, Note_on_c, 0, 53, 64
2, 32055, Note_on_c, 0, 37, 64
2, 32055, Note_on_c, 0, 56, 64
2, 32055, Note_on_c, 0, 61, 64
2, 32415, Note_off_c, 0, 61, 64
2, 32415, Note_off_c, 0, 56, 64
2, 32415, Note_off_c, 0, 37, 64
2, 32415, Note_off_c, 0, 53, 64
2, 32415, End_track
0, 0, End_of_file
