0, 0, Header, 1, 2, 240
1, 0, Start_track
1, 0, Time_signature, 9, 3, 36, 8
1, 0, Tempo, 582524
1, 65320, Tempo, 606061
1, 65512, Tempo, 631579
1, 65696, Tempo, 652174
1, 65880, Tempo, 894282
1, 65880, End_track
2, 0, Start_track
2, 0, Note_on_c, 0, 49, 64
2, 120, Note_off_c, 0, 49, 64
2, 120, Note_on_c, 0, 52, 64
2, 240, Note_off_c, 0, 52, 64
2, 240, Note_on_c, 0, 56, 64
2, 360, Note_off_c, 0, 56, 64
2, 360, Note_on_c, 0, 61, 64
2, 600, Note_on_c, 0, 68, 64
2, 720, Note_off_c, 0, 68, 64
2, 720, Note_on_c, 0, 73, 64
2, 720, Note_on_c, 0, 64, 64
2, 750, Note_off_c, 0, 73, 64
2, 750, Note_on_c, 0, 71, 64
2, 780, Note_off_c, 0, 71, 64
2, 780, Note_on_c, 0, 73, 64
2, 960, Note_off_c, 0, 73, 64
2, 960, Note_on_c, 0, 76, 64
2, 1080, Note_off_c, 0, 76, 64
2, 1080, Note_off_c, 0, 64, 64
2, 1080, Note_on_c, 0, 76, 72
2, 1080, Note_on_c, 0, 66, 64
2, 1110, Note_off_c, 0, 76, 64
2, 1110, Note_on_c, 0, 75, 64
2, 1200, Note_off_c, 0, 61, 64
2, 1200, Note_on_c, 0, 59, 64
2, 1320, Note_off_c, 0, 59, 64
2, 1320, Note_on_c, 0, 57, 64
2, 1440, Note_off_c, 0, 57, 64
2, 1440, Note_off_c, 0, 66, 64
2, 1440, Note_on_c, 0, 68, 64
2, 1440, Note_on_c, 0, 59, 64
2, 1610, Note_off_c, 0, 75, 64
2, 1623, Note_on_c, 0, 75, 64
2, 1683, Note_off_c, 0, 75, 64
2, 1683, Note_on_c, 0, 76, 64
2, 1743, Note_off_c, 0, 76, 64
2, 1743, Note_on_c, 0, 78, 64
2, 1803, Note_off_c, 0, 78, 64
2, 1803, Note_off_c, 0, 68, 64
2, 1803, Note_on_c, 0, 80, 64
2, 1803, Note_on_c, 0, 63, 64
2, 1833, Note_off_c, 0, 80, 64
2, 1833, Note_on_c, 0, 78, 64
2, 1863, Note_off_c, 0, 78, 64
2, 1863, Note_on_c, 0, 80, 64
2, 1983, Note_off_c, 0, 59, 64
2, 1983, Note_on_c, 0, 52, 64
2, 2043, Note_off_c, 0, 52, 64
2, 2043, Note_off_c, 0, 80, 64
2, 2043, Note_on_c, 0, 80, 64
2, 2043, Note_on_c, 0, 54, 64
2, 2103, Note_off_c, 0, 54, 64
2, 2103, Note_on_c, 0, 56, 64
2, 2163, Note_off_c, 0, 56, 64
2, 2163, Note_off_c, 0, 80, 64
2, 2163, Note_off_c, 0, 63, 64
2, 2163, Note_on_c, 0, 56, 72
2, 2163, Note_on_c, 0, 80, 64
2, 2163, Note_on_c, 0, 61, 64
2, 2193, Note_off_c, 0, 56, 64
2, 2193, Note_on_c, 0, 57, 64
2, 2403, Note_off_c, 0, 80, 64
2, 2403, Note_on_c, 0, 73, 64
2, 2523, Note_off_c, 0, 73, 64
2, 2523, Note_on_c, 0, 78, 64
2, 2553, Note_off_c, 0, 78, 64
2, 2553, Note_on_c, 0, 76, 64
2, 2583, Note_off_c, 0, 76, 64
2, 2583, Note_on_c, 0, 78, 64
2, 2703, Note_off_c, 0, 57, 64
2, 2703, Note_off_c, 0, 61, 64
2, 2703, Note_on_c, 0, 76, 64
2, 2703, Note_on_c, 0, 56, 64
2, 2763, Note_off_c, 0, 56, 64
2, 2763, Note_off_c, 0, 76, 64
2, 2763, Note_on_c, 0, 75, 64
2, 2763, Note_on_c, 0, 54, 64
2, 2823, Note_off_c, 0, 54, 64
2, 2823, Note_off_c, 0, 75, 64
2, 2823, Note_on_c, 0, 73, 64
2, 2823, Note_on_c, 0, 52, 64
2, 2883, Note_off_c, 0, 52, 64
2, 2883, Note_off_c, 0, 73, 64
2, 2883, Note_on_c, 0, 73, 64
2, 2883, Note_on_c, 0, 51, 64
2, 3003, Note_off_c, 0, 73, 64
2, 3003, Note_on_c, 0, 72, 64
2, 3123, Note_off_c, 0, 72, 64
2, 3123, Note_off_c, 0, 51, 64
2, 3123, Note_off_c, 0, 78, 64
2, 3123, Note_on_c, 0, 54, 64
2, 3123, Note_on_c, 0, 73, 64
2, 3123, Note_on_c, 0, 78, 64
2, 3243, Note_off_c, 0, 78, 64
2, 3243, Note_off_c, 0, 73, 64
2, 3243, Note_off_c, 0, 54, 64
2, 3243, Note_on_c, 0, 69, 64
2, 3243, Note_on_c, 0, 78, 64
2, 3243, Note_on_c, 0, 48, 64
2, 3273, Note_off_c, 0, 69, 64
2, 3273, Note_on_c, 0, 68, 64
2, 3483, Note_off_c, 0, 68, 64
2, 3483, Note_off_c, 0, 48, 64
2, 3483, Note_off_c, 0, 78, 64
2, 3483, Note_on_c, 0, 80, 64
2, 3483, Note_on_c, 0, 72, 64
2, 3483, Note_on_c, 0, 44, 64
2, 3603, Note_off_c, 0, 44, 64
2, 3603, Note_off_c, 0, 72, 64
2, 3603, Note_off_c, 0, 80, 64
2, 3603, Note_on_c, 0, 78, 64
2, 3603, Note_on_c, 0, 73, 64
2, 3603, Note_on_c, 0, 49, 64
2, 3633, Note_off_c, 0, 78, 64
2, 3633, Note_on_c, 0, 76, 64
2, 3963, Note_off_c, 0, 49, 64
2, 3963, Note_on_c, 0, 37, 64
2, 4083, Note_off_c, 0, 76, 64
2, 4083, Note_off_c, 0, 73, 64
2, 4083, Note_on_c, 0, 75, 64
2, 4083, Note_on_c, 0, 72, 64
2, 4203, Note_off_c, 0, 72, 64
2, 4203, Note_off_c, 0, 75, 64
2, 4203, Note_on_c, 0, 73, 64
2, 4203, Note_on_c, 0, 76, 64
2, 4323, Note_off_c, 0, 76, 64
2, 4323, Note_off_c, 0, 73, 64
2, 4323, Note_off_c, 0, 37, 64
2, 4323, Note_on_c, 0, 75, 64
2, 4323, Note_on_c, 0, 72, 64
2, 4323, Note_on_c, 0, 44, 64
2, 4443, Note_off_c, 0, 44, 64
2, 4443, Note_on_c, 0, 48, 64
2, 4563, Note_off_c, 0, 48, 64
2, 4563, Note_on_c, 0, 51, 64
2, 4683, Note_off_c, 0, 51, 64
2, 4683, Note_off_c, 0, 72, 64
2, 4683, Note_off_c, 0, 75, 64
2, 4683, Note_on_c, 0, 56, 64
2, 4863, Note_off_c, 0, 56, 64
2, 4863, Note_on_c, 0, 57, 64
2, 4923, Note_off_c, 0, 57, 64
2, 4923, Note_on_c, 0, 75, 64
2, 4923, Note_on_c, 0, 56, 64
2, 4983, Note_off_c, 0, 56, 64
2, 4983, Note_on_c, 0, 54, 64
2, 5033, Note_off_c, 0, 75, 64
2, 5035, Note_on_c, 0, 56, 64
2, 5043, Note_off_c, 0, 54, 64
2, 5043, Note_on_c, 0, 75, 64
2, 5065, Note_off_c, 0, 56, 64
2, 5073, Note_off_c, 0, 75, 64
2, 5073, Note_on_c, 0, 76, 64
2, 5075, Note_on_c, 0, 54, 64
2, 5103, Note_on_c, 0, 56, 64
2, 5105, Note_off_c, 0, 54, 64
2, 5283, Note_off_c, 0, 56, 64
2, 5283, Note_off_c, 0, 76, 64
2, 5283, Note_on_c, 0, 68, 64
2, 5283, Note_on_c, 0, 72, 64
2, 5283, Note_on_c, 0, 56, 64
2, 5403, Note_off_c, 0, 56, 64
2, 5403, Note_off_c, 0, 72, 64
2, 5403, Note_off_c, 0, 68, 64
2, 5403, Note_on_c, 0, 72, 64
2, 5403, Note_on_c, 0, 69, 64
2, 5403, Note_on_c, 0, 56, 64
2, 5433, Note_off_c, 0, 72, 64
2, 5433, Note_on_c, 0, 73, 64
2, 5583, Note_off_c, 0, 56, 64
2, 5583, Note_on_c, 0, 49, 64
2, 5643, Note_off_c, 0, 49, 64
2, 5643, Note_on_c, 0, 51, 64
2, 5703, Note_off_c, 0, 51, 64
2, 5703, Note_on_c, 0, 53, 64
2, 5763, Note_off_c, 0, 53, 64
2, 5763, Note_off_c, 0, 69, 64
2, 5763, Note_on_c, 0, 54, 64
2, 5793, Note_off_c, 0, 54, 64
2, 5795, Note_on_c, 0, 53, 64
2, 5823, Note_on_c, 0, 54, 64
2, 5825, Note_off_c, 0, 53, 64
2, 5943, Note_off_c, 0, 54, 64
2, 5943, Note_off_c, 0, 73, 64
2, 5943, Note_on_c, 0, 76, 64
2, 5943, Note_on_c, 0, 56, 64
2, 6003, Note_off_c, 0, 56, 64
2, 6003, Note_off_c, 0, 76, 64
2, 6003, Note_on_c, 0, 75, 64
2, 6003, Note_on_c, 0, 54, 64
2, 6063, Note_off_c, 0, 54, 64
2, 6063, Note_off_c, 0, 75, 64
2, 6063, Note_on_c, 0, 73, 64
2, 6063, Note_on_c, 0, 52, 64
2, 6113, Note_off_c, 0, 73, 64
2, 6126, Note_off_c, 0, 52, 64
2, 6126, Note_on_c, 0, 73, 64
2, 6126, Note_on_c, 0, 54, 64
2, 6156, Note_off_c, 0, 73, 64
2, 6156, Note_on_c, 0, 81, 64
2, 6366, Note_off_c, 0, 81, 64
2, 6366, Note_off_c, 0, 54, 64
2, 6366, Note_on_c, 0, 69, 64
2, 6366, Note_on_c, 0, 54, 64
2, 6366, Note_on_c, 0, 73, 64
2, 6486, Note_off_c, 0, 73, 64
2, 6486, Note_off_c, 0, 54, 64
2, 6486, Note_off_c, 0, 69, 64
2, 6486, Note_on_c, 0, 68, 64
2, 6486, Note_on_c, 0, 73, 64
2, 6486, Note_on_c, 0, 54, 64
2, 6516, Note_off_c, 0, 73, 64
2, 6516, Note_on_c, 0, 72, 64
2, 6606, Note_off_c, 0, 54, 64
2, 6606, Note_on_c, 0, 56, 64
2, 6666, Note_off_c, 0, 56, 64
2, 6666, Note_on_c, 0, 54, 64
2, 6716, Note_off_c, 0, 68, 64
2, 6729, Note_off_c, 0, 54, 64
2, 6729, Note_off_c, 0, 72, 64
2, 6729, Note_on_c, 0, 68, 64
2, 6729, Note_on_c, 0, 52, 64
2, 6789, Note_off_c, 0, 52, 64
2, 6789, Note_on_c, 0, 51, 64
2, 6849, Note_off_c, 0, 51, 64
2, 6849, Note_off_c, 0, 68, 64
2, 6849, Note_on_c, 0, 68, 64
2, 6849, Note_on_c, 0, 52, 64
2, 6873, Note_on_c, 0, 73, 64
2, 6879, Note_off_c, 0, 68, 64
2, 6903, Note_off_c, 0, 73, 64
2, 6916, Note_on_c, 0, 71, 64
2, 6942, Note_on_c, 0, 73, 64
2, 6946, Note_off_c, 0, 71, 64
2, 7092, Note_on_c, 0, 56, 64
2, 7212, Note_off_c, 0, 56, 64
2, 7212, Note_on_c, 0, 61, 64
2, 7332, Note_off_c, 0, 52, 64
2, 7332, Note_on_c, 0, 51, 64
2, 7452, Note_off_c, 0, 51, 64
2, 7452, Note_off_c, 0, 61, 64
2, 7452, Note_on_c, 0, 64, 64
2, 7452, Note_on_c, 0, 49, 64
2, 7572, Note_off_c, 0, 49, 64
2, 7572, Note_off_c, 0, 64, 64
2, 7572, Note_on_c, 0, 63, 64
2, 7572, Note_on_c, 0, 54, 64
2, 7692, Note_off_c, 0, 54, 64
2, 7692, Note_on_c, 0, 52, 64
2, 7812, Note_off_c, 0, 52, 64
2, 7812, Note_off_c, 0, 73, 64
2, 7812, Note_on_c, 0, 75, 64
2, 7812, Note_on_c, 0, 51, 64
2, 7932, Note_off_c, 0, 51, 64
2, 7932, Note_off_c, 0, 75, 64
2, 7932, Note_on_c, 0, 73, 64
2, 7932, Note_on_c, 0, 56, 64
2, 7962, Note_off_c, 0, 73, 64
2, 7962, Note_on_c, 0, 71, 64
2, 8112, Note_off_c, 0, 63, 64
2, 8112, Note_on_c, 0, 63, 64
2, 8172, Note_off_c, 0, 63, 64
2, 8172, Note_off_c, 0, 56, 64
2, 8172, Note_on_c, 0, 64, 64
2, 8172, Note_on_c, 0, 54, 64
2, 8232, Note_off_c, 0, 64, 64
2, 8232, Note_on_c, 0, 66, 64
2, 8292, Note_off_c, 0, 66, 64
2, 8292, Note_off_c, 0, 54, 64
2, 8292, Note_on_c, 0, 54, 64
2, 8292, Note_on_c, 0, 68, 64
2, 8322, Note_off_c, 0, 54, 64
2, 8322, Note_on_c, 0, 53, 64
2, 8472, Note_off_c, 0, 53, 64
2, 8472, Note_on_c, 0, 53, 64
2, 8532, Note_off_c, 0, 53, 64
2, 8532, Note_off_c, 0, 68, 64
2, 8532, Note_on_c, 0, 68, 64
2, 8532, Note_on_c, 0, 54, 64
2, 8592, Note_off_c, 0, 54, 64
2, 8592, Note_on_c, 0, 56, 64
2, 8652, Note_off_c, 0, 56, 64
2, 8652, Note_off_c, 0, 68, 64
2, 8652, Note_on_c, 0, 68, 64
2, 8652, Note_on_c, 0, 57, 64
2, 8772, Note_off_c, 0, 57, 64
2, 8772, Note_on_c, 0, 59, 64
2, 8892, Note_off_c, 0, 59, 64
2, 8892, Note_off_c, 0, 68, 64
2, 8892, Note_on_c, 0, 61, 64
2, 8892, Note_on_c, 0, 56, 64
2, 9002, Note_off_c, 0, 71, 64
2, 9015, Note_off_c, 0, 56, 64
2, 9015, Note_off_c, 0, 61, 64
2, 9015, Note_on_c, 0, 71, 64
2, 9015, Note_on_c, 0, 66, 64
2, 9015, Note_on_c, 0, 54, 64
2, 9045, Note_off_c, 0, 71, 64
2, 9047, Note_on_c, 0, 69, 64
2, 9077, Note_off_c, 0, 69, 64
2, 9079, Note_on_c, 0, 71, 64
2, 9105, Note_on_c, 0, 69, 64
2, 9109, Note_off_c, 0, 71, 64
2, 9135, Note_off_c, 0, 54, 64
2, 9135, Note_on_c, 0, 56, 64
2, 9255, Note_off_c, 0, 56, 64
2, 9255, Note_off_c, 0, 69, 64
2, 9255, Note_on_c, 0, 68, 64
2, 9255, Note_on_c, 0, 52, 64
2, 9375, Note_off_c, 0, 52, 64
2, 9375, Note_off_c, 0, 68, 64
2, 9375, Note_on_c, 0, 68, 64
2, 9375, Note_on_c, 0, 51, 64
2, 9405, Note_off_c, 0, 68, 64
2, 9405, Note_on_c, 0, 69, 64
2, 9495, Note_off_c, 0, 51, 64
2, 9495, Note_on_c, 0, 52, 64
2, 9615, Note_off_c, 0, 52, 64
2, 9615, Note_off_c, 0, 69, 64
2, 9615, Note_off_c, 0, 66, 64
2, 9615, Note_on_c, 0, 71, 64
2, 9615, Note_on_c, 0, 49, 64
2, 9615, Note_on_c, 0, 66, 64
2, 9735, Note_off_c, 0, 66, 64
2, 9735, Note_off_c, 0, 49, 64
2, 9735, Note_off_c, 0, 71, 64
2, 9735, Note_on_c, 0, 69, 64
2, 9735, Note_on_c, 0, 66, 64
2, 9735, Note_on_c, 0, 48, 64
2, 9765, Note_off_c, 0, 69, 64
2, 9765, Note_on_c, 0, 68, 64
2, 9855, Note_off_c, 0, 48, 64
2, 9855, Note_on_c, 0, 46, 64
2, 9965, Note_off_c, 0, 68, 64
2, 9978, Note_off_c, 0, 46, 64
2, 9978, Note_off_c, 0, 66, 64
2, 9978, Note_on_c, 0, 68, 64
2, 9978, Note_on_c, 0, 44, 64
2, 10098, Note_off_c, 0, 44, 64
2, 10098, Note_off_c, 0, 68, 64
2, 10098, Note_on_c, 0, 66, 64
2, 10098, Note_on_c, 0, 49, 64
2, 10128, Note_off_c, 0, 66, 64
2, 10130, Note_on_c, 0, 64, 64
2, 10154, Note_on_c, 0, 66, 64
2, 10160, Note_off_c, 0, 64, 64
2, 10184, Note_off_c, 0, 66, 64
2, 10188, Note_on_c, 0, 64, 64
2, 10218, Note_off_c, 0, 49, 64
2, 10218, Note_on_c, 0, 51, 64
2, 10338, Note_off_c, 0, 51, 64
2, 10338, Note_on_c, 0, 68, 64
2, 10338, Note_on_c, 0, 47, 64
2, 10458, Note_off_c, 0, 47, 64
2, 10458, Note_off_c, 0, 68, 64
2, 10458, Note_on_c, 0, 73, 64
2, 10458, Note_on_c, 0, 46, 64
2, 10578, Note_off_c, 0, 46, 64
2, 10578, Note_off_c, 0, 64, 64
2, 10578, Note_on_c, 0, 63, 64
2, 10578, Note_on_c, 0, 47, 64
2, 10698, Note_off_c, 0, 47, 64
2, 10698, Note_off_c, 0, 63, 64
2, 10698, Note_on_c, 0, 44, 64
2, 10698, Note_on_c, 0, 64, 64
2, 10818, Note_off_c, 0, 64, 64
2, 10818, Note_off_c, 0, 44, 64
2, 10818, Note_on_c, 0, 63, 64
2, 10818, Note_on_c, 0, 43, 64
2, 10938, Note_off_c, 0, 43, 64
2, 10938, Note_on_c, 0, 41, 64
2, 11058, Note_off_c, 0, 41, 64
2, 11058, Note_off_c, 0, 73, 64
2, 11058, Note_on_c, 0, 75, 64
2, 11058, Note_on_c, 0, 39, 64
2, 11178, Note_off_c, 0, 39, 64
2, 11178, Note_off_c, 0, 75, 64
2, 11178, Note_on_c, 0, 73, 64
2, 11178, Note_on_c, 0, 44, 64
2, 11208, Note_off_c, 0, 73, 64
2, 11210, Note_on_c, 0, 71, 64
2, 11240, Note_off_c, 0, 71, 64
2, 11242, Note_on_c, 0, 73, 64
2, 11268, Note_on_c, 0, 71, 64
2, 11272, Note_off_c, 0, 73, 64
2, 11298, Note_off_c, 0, 44, 64
2, 11298, Note_on_c, 0, 47, 64
2, 11418, Note_off_c, 0, 47, 64
2, 11418, Note_on_c, 0, 46, 64
2, 11538, Note_off_c, 0, 46, 64
2, 11538, Note_off_c, 0, 63, 64
2, 11538, Note_on_c, 0, 68, 64
2, 11538, Note_on_c, 0, 47, 64
2, 11658, Note_off_c, 0, 47, 64
2, 11658, Note_on_c, 0, 70, 64
2, 11658, Note_on_c, 0, 49, 64
2, 11671, Note_off_c, 0, 71, 64
2, 11781, Note_off_c, 0, 49, 64
2, 11781, Note_off_c, 0, 70, 64
2, 11781, Note_on_c, 0, 71, 64
2, 11781, Note_on_c, 0, 51, 64
2, 11901, Note_off_c, 0, 51, 64
2, 11901, Note_off_c, 0, 71, 64
2, 11901, Note_on_c, 0, 71, 64
2, 11901, Note_on_c, 0, 52, 64
2, 11931, Note_off_c, 0, 71, 64
2, 11931, Note_on_c, 0, 70, 64
2, 12021, Note_off_c, 0, 52, 64
2, 12021, Note_on_c, 0, 54, 64
2, 12141, Note_off_c, 0, 54, 64
2, 12141, Note_on_c, 0, 51, 64
2, 12261, Note_off_c, 0, 51, 64
2, 12261, Note_off_c, 0, 68, 64
2, 12261, Note_on_c, 0, 67, 64
2, 12261, Note_on_c, 0, 49, 64
2, 12381, Note_off_c, 0, 49, 64
2, 12381, Note_on_c, 0, 51, 64
2, 12501, Note_off_c, 0, 51, 64
2, 12501, Note_off_c, 0, 67, 64
2, 12501, Note_off_c, 0, 70, 64
2, 12501, Note_on_c, 0, 71, 64
2, 12501, Note_on_c, 0, 68, 64
2, 12501, Note_on_c, 0, 47, 64
2, 12621, Note_off_c, 0, 47, 64
2, 12621, Note_off_c, 0, 68, 64
2, 12621, Note_off_c, 0, 71, 64
2, 12621, Note_on_c, 0, 70, 64
2, 12621, Note_on_c, 0, 73, 64
2, 12621, Note_on_c, 0, 46, 64
2, 12681, Note_off_c, 0, 46, 64
2, 12681, Note_on_c, 0, 47, 64
2, 12741, Note_off_c, 0, 47, 64
2, 12741, Note_on_c, 0, 49, 64
2, 12861, Note_off_c, 0, 49, 64
2, 12861, Note_on_c, 0, 46, 64
2, 12981, Note_off_c, 0, 46, 64
2, 12981, Note_on_c, 0, 39, 64
2, 13101, Note_off_c, 0, 73, 64
2, 13101, Note_on_c, 0, 76, 64
2, 13221, Note_off_c, 0, 76, 64
2, 13221, Note_off_c, 0, 70, 64
2, 13221, Note_on_c, 0, 75, 64
2, 13221, Note_on_c, 0, 71, 64
2, 13331, Note_off_c, 0, 75, 64
2, 13344, Note_off_c, 0, 71, 64
2, 13344, Note_on_c, 0, 75, 64
2, 13344, Note_on_c, 0, 73, 64
2, 13374, Note_off_c, 0, 75, 64
2, 13376, Note_on_c, 0, 76, 64
2, 13406, Note_off_c, 0, 76, 64
2, 13408, Note_on_c, 0, 75, 64
2, 13434, Note_on_c, 0, 76, 64
2, 13438, Note_off_c, 0, 75, 64
2, 13584, Note_off_c, 0, 39, 64
2, 13584, Note_on_c, 0, 55, 64
2, 13694, Note_off_c, 0, 55, 64
2, 13707, Note_on_c, 0, 55, 64
2, 13737, Note_off_c, 0, 55, 64
2, 13737, Note_on_c, 0, 56, 64
2, 13947, Note_off_c, 0, 76, 64
2, 13947, Note_on_c, 0, 70, 64
2, 13947, Note_on_c, 0, 73, 64
2, 13948, Note_off_c, 0, 73, 64
2, 14067, Note_off_c, 0, 70, 64
2, 14067, Note_off_c, 0, 73, 64
2, 14067, Note_on_c, 0, 75, 64
2, 14067, Note_on_c, 0, 71, 64
2, 14097, Note_off_c, 0, 75, 64
2, 14099, Note_on_c, 0, 73, 64
2, 14127, Note_on_c, 0, 75, 64
2, 14129, Note_off_c, 0, 73, 64
2, 14187, Note_off_c, 0, 56, 64
2, 14187, Note_on_c, 0, 54, 64
2, 14307, Note_off_c, 0, 54, 64
2, 14307, Note_off_c, 0, 75, 64
2, 14307, Note_on_c, 0, 76, 64
2, 14307, Note_on_c, 0, 52, 64
2, 14427, Note_off_c, 0, 52, 64
2, 14427, Note_off_c, 0, 76, 64
2, 14427, Note_off_c, 0, 71, 64
2, 14427, Note_on_c, 0, 78, 64
2, 14427, Note_on_c, 0, 72, 64
2, 14427, Note_on_c, 0, 51, 64
2, 14547, Note_off_c, 0, 78, 64
2, 14547, Note_on_c, 0, 76, 64
2, 14667, Note_off_c, 0, 76, 64
2, 14667, Note_off_c, 0, 51, 64
2, 14667, Note_on_c, 0, 75, 64
2, 14667, Note_on_c, 0, 56, 64
2, 14787, Note_off_c, 0, 56, 64
2, 14787, Note_off_c, 0, 75, 64
2, 14787, Note_off_c, 0, 72, 64
2, 14787, Note_on_c, 0, 51, 72
2, 14787, Note_on_c, 0, 73, 64
2, 14787, Note_on_c, 0, 77, 64
2, 14817, Note_off_c, 0, 51, 43
2, 14817, Note_on_c, 0, 49, 50
2, 14847, Note_off_c, 0, 49, 30
2, 14847, Note_on_c, 0, 51, 52
2, 14877, Note_off_c, 0, 51, 40
2, 14877, Note_on_c, 0, 49, 54
2, 14907, Note_off_c, 0, 49, 37
2, 14907, Note_off_c, 0, 77, 64
2, 14907, Note_on_c, 0, 51, 55
2, 14907, Note_on_c, 0, 80, 64
2, 14937, Note_off_c, 0, 51, 48
2, 14937, Note_on_c, 0, 49, 57
2, 14967, Note_off_c, 0, 49, 12
2, 14967, Note_on_c, 0, 51, 59
2, 14997, Note_off_c, 0, 51, 36
2, 14997, Note_on_c, 0, 49, 60
2, 15027, Note_off_c, 0, 49, 37
2, 15027, Note_off_c, 0, 80, 64
2, 15027, Note_on_c, 0, 51, 62
2, 15027, Note_on_c, 0, 79, 64
2, 15057, Note_off_c, 0, 51, 34
2, 15057, Note_on_c, 0, 49, 63
2, 15087, Note_off_c, 0, 49, 47
2, 15087, Note_on_c, 0, 48, 64
2, 15117, Note_off_c, 0, 48, 64
2, 15117, Note_on_c, 0, 49, 64
2, 15147, Note_off_c, 0, 49, 64
2, 15147, Note_off_c, 0, 79, 64
2, 15147, Note_off_c, 0, 73, 64
2, 15147, Note_on_c, 0, 51, 72
2, 15147, Note_on_c, 0, 80, 64
2, 15147, Note_on_c, 0, 71, 64
2, 15177, Note_off_c, 0, 51, 52
2, 15177, Note_on_c, 0, 50, 50
2, 15207, Note_off_c, 0, 50, 54
2, 15207, Note_on_c, 0, 51, 52
2, 15237, Note_off_c, 0, 51, 52
2, 15237, Note_on_c, 0, 50, 53
2, 15267, Note_off_c, 0, 50, 53
2, 15267, Note_off_c, 0, 80, 64
2, 15267, Note_on_c, 0, 51, 55
2, 15267, Note_on_c, 0, 79, 64
2, 15297, Note_off_c, 0, 51, 53
2, 15297, Note_on_c, 0, 50, 57
2, 15327, Note_off_c, 0, 50, 53
2, 15327, Note_on_c, 0, 51, 58
2, 15357, Note_off_c, 0, 51, 50
2, 15357, Note_on_c, 0, 50, 60
2, 15387, Note_off_c, 0, 50, 53
2, 15387, Note_off_c, 0, 79, 64
2, 15387, Note_on_c, 0, 51, 62
2, 15387, Note_on_c, 0, 77, 64
2, 15417, Note_off_c, 0, 51, 16
2, 15417, Note_on_c, 0, 50, 63
2, 15447, Note_off_c, 0, 50, 49
2, 15447, Note_on_c, 0, 47, 64
2, 15477, Note_off_c, 0, 47, 64
2, 15477, Note_on_c, 0, 50, 64
2, 15507, Note_off_c, 0, 50, 64
2, 15507, Note_off_c, 0, 77, 64
2, 15507, Note_off_c, 0, 71, 64
2, 15507, Note_on_c, 0, 79, 64
2, 15507, Note_on_c, 0, 70, 64
2, 15507, Note_on_c, 0, 51, 64
2, 15627, Note_off_c, 0, 70, 64
2, 15627, Note_on_c, 0, 73, 64
2, 15747, Note_off_c, 0, 73, 64
2, 15747, Note_off_c, 0, 79, 64
2, 15747, Note_on_c, 0, 80, 64
2, 15747, Note_on_c, 0, 71, 64
2, 15867, Note_off_c, 0, 71, 64
2, 15867, Note_off_c, 0, 80, 64
2, 15867, Note_on_c, 0, 82, 64
2, 15867, Note_on_c, 0, 73, 64
2, 15927, Note_off_c, 0, 73, 64
2, 15927, Note_on_c, 0, 75, 64
2, 15987, Note_off_c, 0, 75, 64
2, 15987, Note_on_c, 0, 76, 64
2, 16107, Note_off_c, 0, 76, 64
2, 16107, Note_off_c, 0, 82, 64
2, 16107, Note_off_c, 0, 51, 64
2, 16107, Note_on_c, 0, 63, 64
2, 16107, Note_on_c, 0, 75, 64
2, 16107, Note_on_c, 0, 79, 64
2, 16227, Note_off_c, 0, 79, 64
2, 16227, Note_off_c, 0, 75, 64
2, 16227, Note_off_c, 0, 63, 64
2, 16227, Note_on_c, 0, 73, 64
2, 16227, Note_on_c, 0, 80, 64
2, 16227, Note_on_c, 0, 64, 64
2, 16257, Note_off_c, 0, 73, 64
2, 16257, Note_on_c, 0, 71, 64
2, 16347, Note_off_c, 0, 64, 64
2, 16347, Note_on_c, 0, 63, 64
2, 16467, Note_off_c, 0, 63, 64
2, 16467, Note_off_c, 0, 71, 64
2, 16467, Note_off_c, 0, 80, 64
2, 16467, Note_on_c, 0, 82, 64
2, 16467, Note_on_c, 0, 73, 64
2, 16467, Note_on_c, 0, 61, 64
2, 16587, Note_off_c, 0, 61, 64
2, 16587, Note_off_c, 0, 73, 64
2, 16587, Note_off_c, 0, 82, 64
2, 16587, Note_on_c, 0, 80, 64
2, 16587, Note_on_c, 0, 71, 64
2, 16587, Note_on_c, 0, 63, 64
2, 16947, Note_off_c, 0, 63, 64
2, 16947, Note_off_c, 0, 71, 64
2, 16947, Note_off_c, 0, 80, 64
2, 16947, Note_on_c, 0, 80, 72
2, 16947, Note_on_c, 0, 51, 64
2, 16947, Note_on_c, 0, 70, 64
2, 16977, Note_off_c, 0, 80, 50
2, 16977, Note_on_c, 0, 79, 72
2, 17007, Note_off_c, 0, 79, 37
2, 17007, Note_on_c, 0, 80, 51
2, 17037, Note_off_c, 0, 80, 47
2, 17037, Note_on_c, 0, 79, 53
2, 17067, Note_off_c, 0, 79, 41
2, 17067, Note_on_c, 0, 80, 56
2, 17097, Note_off_c, 0, 80, 52
2, 17097, Note_on_c, 0, 79, 58
2, 17127, Note_off_c, 0, 79, 36
2, 17127, Note_on_c, 0, 80, 61
2, 17157, Note_off_c, 0, 80, 55
2, 17157, Note_on_c, 0, 79, 63
2, 17187, Note_off_c, 0, 79, 39
2, 17187, Note_off_c, 0, 70, 64
2, 17187, Note_on_c, 0, 80, 70
2, 17187, Note_on_c, 0, 71, 64
2, 17297, Note_off_c, 0, 71, 64
2, 17297, Note_off_c, 0, 80, 64
2, 17310, Note_off_c, 0, 51, 64
2, 17310, Note_on_c, 0, 80, 64
2, 17310, Note_on_c, 0, 71, 64
2, 17310, Note_on_c, 0, 44, 64
2, 17430, Note_off_c, 0, 44, 64
2, 17430, Note_on_c, 0, 47, 64
2, 17550, Note_off_c, 0, 47, 64
2, 17550, Note_on_c, 0, 51, 64
2, 17670, Note_off_c, 0, 51, 64
2, 17670, Note_off_c, 0, 80, 64
2, 17670, Note_on_c, 0, 56, 64
2, 17910, Note_off_c, 0, 71, 64
2, 17910, Note_on_c, 0, 75, 64
2, 18020, Note_off_c, 0, 75, 64
2, 18033, Note_on_c, 0, 75, 64
2, 18063, Note_off_c, 0, 75, 64
2, 18063, Note_on_c, 0, 76, 64
2, 18273, Note_off_c, 0, 76, 64
2, 18273, Note_on_c, 0, 73, 64
2, 18393, Note_off_c, 0, 73, 64
2, 18393, Note_on_c, 0, 71, 64
2, 18423, Note_off_c, 0, 71, 64
2, 18423, Note_on_c, 0, 70, 64
2, 18573, Note_off_c, 0, 56, 64
2, 18573, Note_on_c, 0, 49, 64
2, 18633, Note_off_c, 0, 49, 64
2, 18633, Note_on_c, 0, 51, 64
2, 18693, Note_off_c, 0, 51, 64
2, 18693, Note_on_c, 0, 52, 64
2, 18753, Note_off_c, 0, 52, 64
2, 18753, Note_on_c, 0, 54, 64
2, 18933, Note_off_c, 0, 70, 64
2, 18933, Note_on_c, 0, 73, 64
2, 18993, Note_off_c, 0, 73, 64
2, 18993, Note_off_c, 0, 54, 64
2, 18993, Note_on_c, 0, 71, 64
2, 18993, Note_on_c, 0, 42, 64
2, 19053, Note_off_c, 0, 71, 64
2, 19053, Note_on_c, 0, 70, 64
2, 19113, Note_off_c, 0, 70, 64
2, 19113, Note_off_c, 0, 42, 64
2, 19113, Note_on_c, 0, 56, 64
2, 19113, Note_on_c, 0, 75, 64
2, 19143, Note_off_c, 0, 56, 64
2, 19145, Note_on_c, 0, 54, 64
2, 19175, Note_off_c, 0, 54, 64
2, 19177, Note_on_c, 0, 56, 64
2, 19203, Note_on_c, 0, 54, 64
2, 19207, Note_off_c, 0, 56, 64
2, 19233, Note_off_c, 0, 75, 64
2, 19233, Note_on_c, 0, 78, 64
2, 19293, Note_off_c, 0, 78, 64
2, 19293, Note_on_c, 0, 76, 64
2, 19353, Note_off_c, 0, 76, 64
2, 19353, Note_on_c, 0, 78, 64
2, 19473, Note_off_c, 0, 78, 64
2, 19473, Note_on_c, 0, 73, 64
2, 19503, Note_off_c, 0, 73, 64
2, 19505, Note_on_c, 0, 72, 64
2, 19535, Note_off_c, 0, 72, 64
2, 19537, Note_on_c, 0, 73, 64
2, 19563, Note_on_c, 0, 72, 64
2, 19567, Note_off_c, 0, 73, 64
2, 19593, Note_off_c, 0, 72, 64
2, 19593, Note_on_c, 0, 70, 64
2, 19713, Note_off_c, 0, 70, 64
2, 19713, Note_on_c, 0, 68, 64
2, 19823, Note_off_c, 0, 54, 64
2, 19836, Note_off_c, 0, 68, 64
2, 19836, Note_on_c, 0, 54, 72
2, 19836, Note_on_c, 0, 73, 64
2, 19866, Note_off_c, 0, 54, 37
2, 19866, Note_on_c, 0, 52, 47
2, 19896, Note_off_c, 0, 52, 43
2, 19896, Note_on_c, 0, 54, 51
2, 19926, Note_off_c, 0, 54, 49
2, 19926, Note_on_c, 0, 52, 53
2, 19956, Note_off_c, 0, 52, 44
2, 19956, Note_on_c, 0, 54, 55
2, 19986, Note_off_c, 0, 54, 44
2, 19986, Note_on_c, 0, 52, 56
2, 20016, Note_off_c, 0, 52, 32
2, 20016, Note_on_c, 0, 54, 58
2, 20046, Note_off_c, 0, 54, 48
2, 20046, Note_on_c, 0, 52, 60
2, 20076, Note_off_c, 0, 52, 43
2, 20076, Note_on_c, 0, 54, 62
2, 20076, Note_on_c, 0, 80, 64
2, 20106, Note_off_c, 0, 54, 44
2, 20106, Note_on_c, 0, 52, 63
2, 20136, Note_off_c, 0, 52, 34
2, 20136, Note_on_c, 0, 51, 64
2, 20166, Note_off_c, 0, 51, 64
2, 20166, Note_on_c, 0, 52, 64
2, 20196, Note_off_c, 0, 52, 64
2, 20196, Note_off_c, 0, 80, 64
2, 20196, Note_on_c, 0, 80, 64
2, 20196, Note_on_c, 0, 56, 72
2, 20226, Note_off_c, 0, 56, 39
2, 20226, Note_off_c, 0, 80, 64
2, 20226, Note_on_c, 0, 81, 64
2, 20226, Note_on_c, 0, 54, 50
2, 20256, Note_off_c, 0, 54, 34
2, 20256, Note_on_c, 0, 56, 52
2, 20286, Note_off_c, 0, 56, 52
2, 20286, Note_on_c, 0, 54, 53
2, 20316, Note_off_c, 0, 54, 55
2, 20316, Note_on_c, 0, 56, 55
2, 20346, Note_off_c, 0, 56, 61
2, 20346, Note_on_c, 0, 54, 57
2, 20376, Note_off_c, 0, 54, 49
2, 20376, Note_on_c, 0, 56, 58
2, 20406, Note_off_c, 0, 56, 52
2, 20406, Note_on_c, 0, 54, 60
2, 20436, Note_off_c, 0, 54, 50
2, 20436, Note_off_c, 0, 81, 64
2, 20436, Note_on_c, 0, 56, 62
2, 20436, Note_on_c, 0, 78, 64
2, 20466, Note_off_c, 0, 56, 49
2, 20466, Note_on_c, 0, 54, 63
2, 20496, Note_off_c, 0, 54, 54
2, 20496, Note_on_c, 0, 52, 64
2, 20526, Note_off_c, 0, 52, 64
2, 20526, Note_on_c, 0, 54, 64
2, 20556, Note_off_c, 0, 54, 64
2, 20556, Note_off_c, 0, 78, 64
2, 20556, Note_on_c, 0, 76, 64
2, 20556, Note_on_c, 0, 56, 64
2, 20586, Note_off_c, 0, 76, 64
2, 20586, Note_on_c, 0, 75, 64
2, 20796, Note_off_c, 0, 56, 64
2, 20796, Note_on_c, 0, 57, 64
2, 20916, Note_off_c, 0, 57, 64
2, 20916, Note_off_c, 0, 73, 64
2, 20916, Note_on_c, 0, 71, 64
2, 20916, Note_on_c, 0, 56, 64
2, 21096, Note_off_c, 0, 75, 64
2, 21096, Note_on_c, 0, 78, 64
2, 21156, Note_off_c, 0, 78, 64
2, 21156, Note_off_c, 0, 56, 64
2, 21156, Note_on_c, 0, 77, 64
2, 21156, Note_on_c, 0, 54, 64
2, 21216, Note_off_c, 0, 77, 64
2, 21216, Note_on_c, 0, 75, 64
2, 21276, Note_off_c, 0, 75, 64
2, 21276, Note_off_c, 0, 54, 64
2, 21276, Note_on_c, 0, 80, 64
2, 21276, Note_on_c, 0, 53, 64
2, 21396, Note_off_c, 0, 53, 64
2, 21396, Note_off_c, 0, 80, 64
2, 21396, Note_on_c, 0, 83, 64
2, 21396, Note_on_c, 0, 54, 64
2, 21456, Note_off_c, 0, 83, 64
2, 21456, Note_on_c, 0, 81, 64
2, 21516, Note_off_c, 0, 81, 64
2, 21516, Note_off_c, 0, 54, 64
2, 21516, Note_on_c, 0, 56, 64
2, 21516, Note_on_c, 0, 83, 64
2, 21636, Note_off_c, 0, 83, 64
2, 21636, Note_off_c, 0, 56, 64
2, 21636, Note_on_c, 0, 78, 64
2, 21636, Note_on_c, 0, 49, 64
2, 21666, Note_off_c, 0, 78, 64
2, 21668, Note_on_c, 0, 77, 64
2, 21698, Note_off_c, 0, 77, 64
2, 21700, Note_on_c, 0, 78, 64
2, 21726, Note_on_c, 0, 77, 64
2, 21730, Note_off_c, 0, 78, 64
2, 21756, Note_off_c, 0, 77, 64
2, 21756, Note_on_c, 0, 75, 64
2, 21876, Note_off_c, 0, 75, 64
2, 21876, Note_on_c, 0, 73, 64
2, 21996, Note_off_c, 0, 73, 64
2, 21996, Note_off_c, 0, 49, 64
2, 21996, Note_off_c, 0, 71, 64
2, 21996, Note_on_c, 0, 78, 64
2, 21996, Note_on_c, 0, 69, 64
2, 22116, Note_off_c, 0, 69, 64
2, 22116, Note_on_c, 0, 71, 64
2, 22236, Note_off_c, 0, 71, 64
2, 22236, Note_on_c, 0, 61, 64
2, 22236, Note_on_c, 0, 69, 64
2, 22346, Note_off_c, 0, 61, 64
2, 22359, Note_off_c, 0, 69, 64
2, 22359, Note_on_c, 0, 69, 64
2, 22359, Note_on_c, 0, 61, 64
2, 22389, Note_off_c, 0, 61, 64
2, 22389, Note_off_c, 0, 69, 64
2, 22389, Note_on_c, 0, 68, 64
2, 22389, Note_on_c, 0, 62, 64
2, 22599, Note_off_c, 0, 62, 64
2, 22599, Note_off_c, 0, 68, 64
2, 22599, Note_on_c, 0, 59, 64
2, 22599, Note_on_c, 0, 69, 64
2, 22719, Note_off_c, 0, 69, 64
2, 22719, Note_off_c, 0, 59, 64
2, 22719, Note_on_c, 0, 57, 64
2, 22719, Note_on_c, 0, 71, 64
2, 22749, Note_off_c, 0, 57, 64
2, 22749, Note_on_c, 0, 56, 64
2, 22839, Note_off_c, 0, 78, 64
2, 22839, Note_on_c, 0, 76, 64
2, 22959, Note_off_c, 0, 76, 64
2, 22959, Note_on_c, 0, 75, 64
2, 23079, Note_off_c, 0, 75, 64
2, 23079, Note_on_c, 0, 76, 64
2, 23259, Note_off_c, 0, 56, 64
2, 23259, Note_on_c, 0, 59, 64
2, 23319, Note_off_c, 0, 59, 64
2, 23319, Note_off_c, 0, 71, 64
2, 23319, Note_on_c, 0, 73, 64
2, 23319, Note_on_c, 0, 58, 64
2, 23379, Note_off_c, 0, 58, 64
2, 23379, Note_on_c, 0, 56, 64
2, 23439, Note_off_c, 0, 56, 64
2, 23439, Note_off_c, 0, 73, 64
2, 23439, Note_on_c, 0, 71, 64
2, 23439, Note_on_c, 0, 61, 64
2, 23469, Note_off_c, 0, 71, 64
2, 23469, Note_on_c, 0, 70, 64
2, 23559, Note_off_c, 0, 61, 64
2, 23559, Note_on_c, 0, 64, 64
2, 23619, Note_off_c, 0, 64, 64
2, 23619, Note_on_c, 0, 61, 64
2, 23679, Note_off_c, 0, 61, 64
2, 23679, Note_off_c, 0, 70, 64
2, 23679, Note_on_c, 0, 64, 64
2, 23679, Note_on_c, 0, 68, 64
2, 23799, Note_off_c, 0, 68, 64
2, 23799, Note_off_c, 0, 64, 64
2, 23799, Note_on_c, 0, 59, 64
2, 23799, Note_on_c, 0, 73, 64
2, 23829, Note_off_c, 0, 59, 64
2, 23831, Note_on_c, 0, 58, 64
2, 23861, Note_off_c, 0, 58, 64
2, 23863, Note_on_c, 0, 59, 64
2, 23889, Note_on_c, 0, 58, 64
2, 23893, Note_off_c, 0, 59, 64
2, 23919, Note_off_c, 0, 58, 64
2, 23919, Note_on_c, 0, 56, 64
2, 24039, Note_off_c, 0, 56, 64
2, 24039, Note_off_c, 0, 73, 64
2, 24039, Note_on_c, 0, 70, 64
2, 24039, Note_on_c, 0, 54, 64
2, 24159, Note_off_c, 0, 54, 64
2, 24159, Note_off_c, 0, 70, 64
2, 24159, Note_on_c, 0, 59, 64
2, 24159, Note_on_c, 0, 66, 64
2, 24189, Note_off_c, 0, 59, 64
2, 24191, Note_on_c, 0, 58, 64
2, 24219, Note_on_c, 0, 59, 64
2, 24221, Note_off_c, 0, 58, 64
2, 24279, Note_off_c, 0, 76, 64
2, 24279, Note_on_c, 0, 75, 64
2, 24399, Note_off_c, 0, 75, 64
2, 24399, Note_off_c, 0, 59, 64
2, 24399, Note_on_c, 0, 73, 64
2, 24399, Note_on_c, 0, 47, 64
2, 24519, Note_off_c, 0, 47, 64
2, 24519, Note_off_c, 0, 73, 64
2, 24519, Note_on_c, 0, 59, 64
2, 24519, Note_on_c, 0, 75, 64
2, 24549, Note_off_c, 0, 59, 64
2, 24551, Note_on_c, 0, 58, 64
2, 24579, Note_on_c, 0, 59, 64
2, 24581, Note_off_c, 0, 58, 64
2, 24639, Note_off_c, 0, 75, 64
2, 24639, Note_on_c, 0, 73, 64
2, 24759, Note_off_c, 0, 73, 64
2, 24759, Note_off_c, 0, 66, 64
2, 24759, Note_on_c, 0, 71, 64
2, 24759, Note_on_c, 0, 68, 64
2, 24879, Note_off_c, 0, 68, 64
2, 24879, Note_off_c, 0, 71, 64
2, 24879, Note_on_c, 0, 73, 64
2, 24879, Note_on_c, 0, 64, 64
2, 24999, Note_off_c, 0, 64, 64
2, 24999, Note_off_c, 0, 59, 64
2, 24999, Note_on_c, 0, 63, 64
2, 24999, Note_on_c, 0, 61, 64
2, 25059, Note_off_c, 0, 61, 64
2, 25059, Note_on_c, 0, 59, 64
2, 25119, Note_off_c, 0, 59, 64
2, 25119, Note_off_c, 0, 63, 64
2, 25119, Note_on_c, 0, 61, 64
2, 25119, Note_on_c, 0, 57, 64
2, 25179, Note_off_c, 0, 57, 64
2, 25179, Note_on_c, 0, 56, 64
2, 25239, Note_off_c, 0, 56, 64
2, 25239, Note_off_c, 0, 61, 64
2, 25239, Note_on_c, 0, 66, 64
2, 25239, Note_on_c, 0, 57, 64
2, 25359, Note_off_c, 0, 66, 64
2, 25359, Note_on_c, 0, 68, 64
2, 25479, Note_off_c, 0, 68, 64
2, 25479, Note_off_c, 0, 57, 64
2, 25479, Note_off_c, 0, 73, 64
2, 25479, Note_on_c, 0, 78, 64
2, 25479, Note_on_c, 0, 69, 64
2, 25479, Note_on_c, 0, 45, 64
2, 25599, Note_off_c, 0, 45, 64
2, 25599, Note_off_c, 0, 69, 64
2, 25599, Note_off_c, 0, 78, 64
2, 25599, Note_on_c, 0, 57, 64
2, 25599, Note_on_c, 0, 76, 64
2, 25599, Note_on_c, 0, 68, 64
2, 25629, Note_off_c, 0, 57, 64
2, 25631, Note_on_c, 0, 56, 64
2, 25659, Note_on_c, 0, 57, 64
2, 25661, Note_off_c, 0, 56, 64
2, 25719, Note_off_c, 0, 68, 64
2, 25719, Note_off_c, 0, 76, 64
2, 25719, Note_on_c, 0, 75, 64
2, 25719, Note_on_c, 0, 66, 64
2, 25839, Note_off_c, 0, 66, 64
2, 25839, Note_off_c, 0, 75, 64
2, 25839, Note_on_c, 0, 64, 64
2, 25839, Note_on_c, 0, 73, 64
2, 25959, Note_off_c, 0, 73, 64
2, 25959, Note_off_c, 0, 64, 64
2, 25959, Note_on_c, 0, 71, 64
2, 25959, Note_on_c, 0, 63, 64
2, 26079, Note_off_c, 0, 63, 64
2, 26079, Note_off_c, 0, 57, 64
2, 26079, Note_on_c, 0, 61, 64
2, 26079, Note_on_c, 0, 59, 64
2, 26139, Note_off_c, 0, 59, 64
2, 26139, Note_on_c, 0, 57, 64
2, 26199, Note_off_c, 0, 57, 64
2, 26199, Note_off_c, 0, 61, 64
2, 26199, Note_on_c, 0, 59, 64
2, 26199, Note_on_c, 0, 56, 64
2, 26259, Note_off_c, 0, 56, 64
2, 26259, Note_on_c, 0, 54, 64
2, 26319, Note_off_c, 0, 54, 64
2, 26319, Note_off_c, 0, 59, 64
2, 26319, Note_on_c, 0, 64, 64
2, 26319, Note_on_c, 0, 56, 64
2, 26439, Note_off_c, 0, 71, 64
2, 26439, Note_on_c, 0, 69, 64
2, 26559, Note_off_c, 0, 69, 64
2, 26559, Note_off_c, 0, 56, 64
2, 26559, Note_on_c, 0, 68, 64
2, 26559, Note_on_c, 0, 61, 64
2, 26679, Note_off_c, 0, 61, 64
2, 26679, Note_off_c, 0, 68, 64
2, 26679, Note_on_c, 0, 59, 64
2, 26679, Note_on_c, 0, 73, 64
2, 26709, Note_off_c, 0, 59, 64
2, 26709, Note_on_c, 0, 57, 64
2, 26799, Note_off_c, 0, 73, 64
2, 26799, Note_on_c, 0, 75, 64
2, 26919, Note_off_c, 0, 75, 64
2, 26919, Note_off_c, 0, 57, 64
2, 26919, Note_on_c, 0, 56, 64
2, 26919, Note_on_c, 0, 76, 64
2, 27039, Note_off_c, 0, 76, 64
2, 27039, Note_off_c, 0, 56, 64
2, 27039, Note_on_c, 0, 69, 64
2, 27039, Note_on_c, 0, 54, 64
2, 27159, Note_off_c, 0, 54, 64
2, 27159, Note_off_c, 0, 69, 64
2, 27159, Note_on_c, 0, 71, 64
2, 27159, Note_on_c, 0, 56, 64
2, 27279, Note_off_c, 0, 56, 64
2, 27279, Note_off_c, 0, 71, 64
2, 27279, Note_on_c, 0, 73, 64
2, 27279, Note_on_c, 0, 57, 64
2, 27399, Note_off_c, 0, 57, 64
2, 27399, Note_off_c, 0, 73, 64
2, 27399, Note_on_c, 0, 69, 64
2, 27399, Note_on_c, 0, 59, 64
2, 27429, Note_off_c, 0, 59, 64
2, 27429, Note_off_c, 0, 69, 64
2, 27429, Note_on_c, 0, 68, 64
2, 27431, Note_on_c, 0, 57, 64
2, 27459, Note_on_c, 0, 59, 64
2, 27461, Note_off_c, 0, 57, 64
2, 27579, Note_off_c, 0, 68, 64
2, 27579, Note_on_c, 0, 66, 64
2, 27639, Note_off_c, 0, 66, 64
2, 27639, Note_on_c, 0, 64, 64
2, 27699, Note_off_c, 0, 64, 64
2, 27699, Note_on_c, 0, 66, 64
2, 27759, Note_off_c, 0, 66, 64
2, 27759, Note_off_c, 0, 64, 64
2, 27759, Note_off_c, 0, 59, 64
2, 27759, Note_on_c, 0, 68, 73
2, 27759, Note_on_c, 0, 47, 64
2, 27759, Note_on_c, 0, 63, 64
2, 27789, Note_off_c, 0, 68, 58
2, 27789, Note_on_c, 0, 66, 50
2, 27819, Note_off_c, 0, 66, 65
2, 27819, Note_on_c, 0, 68, 51
2, 27849, Note_off_c, 0, 68, 69
2, 27849, Note_on_c, 0, 66, 53
2, 27879, Note_off_c, 0, 66, 77
2, 27879, Note_on_c, 0, 68, 55
2, 27909, Note_off_c, 0, 68, 73
2, 27909, Note_on_c, 0, 66, 56
2, 27939, Note_off_c, 0, 66, 73
2, 27939, Note_on_c, 0, 68, 58
2, 27969, Note_off_c, 0, 68, 66
2, 27969, Note_on_c, 0, 66, 60
2, 27999, Note_off_c, 0, 66, 68
2, 27999, Note_on_c, 0, 68, 61
2, 28029, Note_off_c, 0, 68, 53
2, 28029, Note_on_c, 0, 66, 63
2, 28059, Note_off_c, 0, 66, 61
2, 28059, Note_on_c, 0, 64, 64
2, 28089, Note_off_c, 0, 64, 64
2, 28089, Note_on_c, 0, 66, 64
2, 28119, Note_off_c, 0, 66, 64
2, 28119, Note_off_c, 0, 63, 64
2, 28119, Note_off_c, 0, 47, 64
2, 28119, Note_on_c, 0, 64, 64
2, 28119, Note_on_c, 0, 52, 64
2, 28239, Note_on_c, 0, 68, 64
2, 28359, Note_off_c, 0, 68, 64
2, 28359, Note_on_c, 0, 71, 64
2, 28479, Note_off_c, 0, 71, 64
2, 28479, Note_off_c, 0, 64, 64
2, 28479, Note_on_c, 0, 76, 64
2, 28539, Note_off_c, 0, 76, 64
2, 28539, Note_on_c, 0, 75, 64
2, 28599, Note_off_c, 0, 75, 64
2, 28599, Note_off_c, 0, 52, 64
2, 28599, Note_on_c, 0, 76, 64
2, 28599, Note_on_c, 0, 56, 64
2, 28659, Note_off_c, 0, 56, 64
2, 28659, Note_on_c, 0, 54, 64
2, 28719, Note_off_c, 0, 54, 64
2, 28719, Note_off_c, 0, 76, 64
2, 28719, Note_on_c, 0, 76, 64
2, 28719, Note_on_c, 0, 52, 64
2, 28779, Note_off_c, 0, 52, 64
2, 28779, Note_on_c, 0, 51, 64
2, 28829, Note_off_c, 0, 76, 64
2, 28842, Note_off_c, 0, 51, 64
2, 28842, Note_on_c, 0, 76, 64
2, 28842, Note_on_c, 0, 49, 64
2, 28872, Note_off_c, 0, 76, 64
2, 28874, Note_on_c, 0, 75, 64
2, 28902, Note_on_c, 0, 76, 64
2, 28904, Note_off_c, 0, 75, 64
2, 28962, Note_off_c, 0, 49, 64
2, 28962, Note_on_c, 0, 59, 64
2, 29082, Note_off_c, 0, 59, 64
2, 29082, Note_off_c, 0, 76, 64
2, 29082, Note_on_c, 0, 58, 64
2, 29082, Note_on_c, 0, 76, 64
2, 29202, Note_off_c, 0, 76, 64
2, 29202, Note_off_c, 0, 58, 64
2, 29202, Note_on_c, 0, 76, 64
2, 29202, Note_on_c, 0, 59, 64
2, 29322, Note_off_c, 0, 76, 64
2, 29322, Note_on_c, 0, 78, 64
2, 29322, Note_on_c, 0, 63, 64
2, 29382, Note_off_c, 0, 78, 64
2, 29382, Note_on_c, 0, 76, 64
2, 29442, Note_off_c, 0, 76, 64
2, 29442, Note_off_c, 0, 63, 64
2, 29442, Note_on_c, 0, 75, 64
2, 29442, Note_on_c, 0, 66, 64
2, 29502, Note_off_c, 0, 75, 64
2, 29502, Note_on_c, 0, 73, 64
2, 29562, Note_off_c, 0, 73, 64
2, 29562, Note_off_c, 0, 66, 64
2, 29562, Note_on_c, 0, 75, 64
2, 29562, Note_on_c, 0, 71, 64
2, 29622, Note_off_c, 0, 71, 64
2, 29622, Note_on_c, 0, 69, 64
2, 29682, Note_off_c, 0, 69, 64
2, 29682, Note_on_c, 0, 71, 64
2, 29742, Note_off_c, 0, 59, 64
2, 29742, Note_on_c, 0, 57, 64
2, 29802, Note_off_c, 0, 57, 64
2, 29802, Note_off_c, 0, 71, 64
2, 29802, Note_off_c, 0, 75, 64
2, 29802, Note_on_c, 0, 77, 64
2, 29802, Note_on_c, 0, 71, 64
2, 29802, Note_on_c, 0, 56, 64
2, 29862, Note_off_c, 0, 56, 64
2, 29862, Note_on_c, 0, 54, 64
2, 29922, Note_off_c, 0, 54, 64
2, 29922, Note_off_c, 0, 71, 64
2, 29922, Note_off_c, 0, 77, 64
2, 29922, Note_on_c, 0, 78, 64
2, 29922, Note_on_c, 0, 71, 64
2, 29922, Note_on_c, 0, 56, 64
2, 29952, Note_off_c, 0, 78, 64
2, 29952, Note_on_c, 0, 77, 64
2, 30162, Note_off_c, 0, 77, 64
2, 30162, Note_off_c, 0, 56, 64
2, 30162, Note_off_c, 0, 71, 64
2, 30162, Note_on_c, 0, 71, 64
2, 30162, Note_on_c, 0, 61, 64
2, 30162, Note_on_c, 0, 78, 64
2, 30282, Note_off_c, 0, 78, 64
2, 30282, Note_off_c, 0, 61, 64
2, 30282, Note_off_c, 0, 71, 64
2, 30282, Note_on_c, 0, 78, 64
2, 30282, Note_on_c, 0, 71, 64
2, 30282, Note_on_c, 0, 54, 64
2, 30402, Note_off_c, 0, 54, 64
2, 30402, Note_off_c, 0, 71, 64
2, 30402, Note_on_c, 0, 73, 64
2, 30402, Note_on_c, 0, 57, 64
2, 30462, Note_off_c, 0, 73, 64
2, 30462, Note_on_c, 0, 71, 64
2, 30522, Note_off_c, 0, 71, 64
2, 30522, Note_off_c, 0, 57, 64
2, 30522, Note_on_c, 0, 69, 64
2, 30522, Note_on_c, 0, 61, 64
2, 30582, Note_off_c, 0, 69, 64
2, 30582, Note_on_c, 0, 68, 64
2, 30642, Note_off_c, 0, 68, 64
2, 30642, Note_off_c, 0, 61, 64
2, 30642, Note_on_c, 0, 69, 64
2, 30642, Note_on_c, 0, 66, 64
2, 30702, Note_off_c, 0, 66, 64
2, 30702, Note_on_c, 0, 65, 64
2, 30762, Note_off_c, 0, 65, 64
2, 30762, Note_off_c, 0, 78, 64
2, 30762, Note_on_c, 0, 81, 64
2, 30762, Note_on_c, 0, 66, 64
2, 30822, Note_off_c, 0, 81, 64
2, 30822, Note_on_c, 0, 80, 64
2, 30882, Note_off_c, 0, 80, 64
2, 30882, Note_off_c, 0, 66, 64
2, 30882, Note_on_c, 0, 66, 64
2, 30882, Note_on_c, 0, 78, 64
2, 30942, Note_off_c, 0, 78, 64
2, 30942, Note_on_c, 0, 76, 64
2, 30992, Note_off_c, 0, 66, 64
2, 31005, Note_off_c, 0, 76, 64
2, 31005, Note_on_c, 0, 66, 64
2, 31005, Note_on_c, 0, 75, 64
2, 31035, Note_off_c, 0, 66, 64
2, 31037, Note_on_c, 0, 64, 64
2, 31065, Note_on_c, 0, 66, 64
2, 31067, Note_off_c, 0, 64, 64
2, 31125, Note_off_c, 0, 75, 64
2, 31125, Note_on_c, 0, 78, 64
2, 31185, Note_off_c, 0, 78, 64
2, 31185, Note_on_c, 0, 76, 64
2, 31245, Note_off_c, 0, 76, 64
2, 31245, Note_off_c, 0, 66, 64
2, 31245, Note_off_c, 0, 69, 64
2, 31245, Note_on_c, 0, 66, 64
2, 31245, Note_on_c, 0, 69, 64
2, 31245, Note_on_c, 0, 78, 64
2, 31365, Note_off_c, 0, 78, 64
2, 31365, Note_off_c, 0, 69, 64
2, 31365, Note_off_c, 0, 66, 64
2, 31365, Note_on_c, 0, 68, 64
2, 31365, Note_on_c, 0, 73, 64
2, 31365, Note_on_c, 0, 66, 64
2, 31395, Note_off_c, 0, 73, 64
2, 31395, Note_on_c, 0, 72, 64
2, 31485, Note_off_c, 0, 66, 64
2, 31485, Note_off_c, 0, 68, 64
2, 31485, Note_on_c, 0, 68, 64
2, 31545, Note_on_c, 0, 66, 64
2, 31605, Note_off_c, 0, 66, 64
2, 31605, Note_off_c, 0, 72, 64
2, 31605, Note_on_c, 0, 75, 64
2, 31605, Note_on_c, 0, 64, 64
2, 31665, Note_off_c, 0, 64, 64
2, 31665, Note_on_c, 0, 63, 64
2, 31725, Note_off_c, 0, 63, 64
2, 31725, Note_off_c, 0, 75, 64
2, 31725, Note_off_c, 0, 68, 64
2, 31725, Note_on_c, 0, 80, 64
2, 31725, Note_on_c, 0, 64, 64
2, 31845, Note_off_c, 0, 64, 64
2, 31845, Note_on_c, 0, 64, 64
2, 31905, Note_off_c, 0, 64, 64
2, 31905, Note_on_c, 0, 63, 64
2, 31965, Note_off_c, 0, 63, 64
2, 31965, Note_on_c, 0, 64, 64
2, 31965, Note_on_c, 0, 68, 64
2, 32075, Note_off_c, 0, 64, 64
2, 32088, Note_off_c, 0, 68, 64
2, 32088, Note_on_c, 0, 64, 64
2, 32088, Note_on_c, 0, 73, 64
2, 32118, Note_off_c, 0, 64, 64
2, 32120, Note_on_c, 0, 63, 64
2, 32148, Note_on_c, 0, 64, 64
2, 32150, Note_off_c, 0, 63, 64
2, 32268, Note_off_c, 0, 80, 64
2, 32268, Note_on_c, 0, 80, 64
2, 32328, Note_off_c, 0, 80, 64
2, 32328, Note_off_c, 0, 64, 64
2, 32328, Note_on_c, 0, 64, 64
2, 32328, Note_on_c, 0, 82, 64
2, 32388, Note_off_c, 0, 82, 64
2, 32388, Note_on_c, 0, 83, 64
2, 32438, Note_off_c, 0, 83, 64
2, 32451, Note_off_c, 0, 64, 64
2, 32451, Note_on_c, 0, 83, 72
2, 32451, Note_on_c, 0, 64, 64
2, 32481, Note_off_c, 0, 83, 49
2, 32481, Note_on_c, 0, 82, 50
2, 32511, Note_off_c, 0, 82, 54
2, 32511, Note_on_c, 0, 83, 52
2, 32541, Note_off_c, 0, 83, 49
2, 32541, Note_on_c, 0, 82, 54
2, 32571, Note_off_c, 0, 82, 52
2, 32571, Note_off_c, 0, 64, 64
2, 32571, Note_on_c, 0, 83, 55
2, 32571, Note_on_c, 0, 66, 64
2, 32601, Note_off_c, 0, 83, 51
2, 32601, Note_on_c, 0, 82, 57
2, 32631, Note_off_c, 0, 82, 54
2, 32631, Note_off_c, 0, 66, 64
2, 32631, Note_on_c, 0, 83, 59
2, 32631, Note_on_c, 0, 64, 64
2, 32661, Note_off_c, 0, 83, 51
2, 32661, Note_on_c, 0, 82, 60
2, 32691, Note_off_c, 0, 82, 51
2, 32691, Note_off_c, 0, 64, 64
2, 32691, Note_on_c, 0, 83, 62
2, 32691, Note_on_c, 0, 62, 64
2, 32721, Note_off_c, 0, 83, 49
2, 32721, Note_on_c, 0, 82, 82
2, 32751, Note_off_c, 0, 82, 52
2, 32751, Note_off_c, 0, 62, 64
2, 32751, Note_on_c, 0, 80, 64
2, 32751, Note_on_c, 0, 61, 64
2, 32781, Note_off_c, 0, 80, 64
2, 32781, Note_on_c, 0, 82, 64
2, 32811, Note_off_c, 0, 82, 64
2, 32811, Note_off_c, 0, 61, 64
2, 32811, Note_off_c, 0, 73, 64
2, 32811, Note_on_c, 0, 83, 64
2, 32811, Note_on_c, 0, 62, 64
2, 32871, Note_off_c, 0, 62, 64
2, 32871, Note_on_c, 0, 61, 64
2, 32931, Note_off_c, 0, 61, 64
2, 32931, Note_on_c, 0, 62, 64
2, 32991, Note_off_c, 0, 83, 64
2, 32991, Note_on_c, 0, 81, 64
2, 33051, Note_off_c, 0, 81, 64
2, 33051, Note_off_c, 0, 62, 64
2, 33051, Note_on_c, 0, 80, 64
2, 33051, Note_on_c, 0, 66, 64
2, 33051, Note_on_c, 0, 62, 64
2, 33111, Note_off_c, 0, 80, 64
2, 33111, Note_on_c, 0, 78, 64
2, 33171, Note_off_c, 0, 78, 64
2, 33171, Note_off_c, 0, 62, 64
2, 33171, Note_off_c, 0, 66, 64
2, 33171, Note_on_c, 0, 78, 64
2, 33171, Note_on_c, 0, 71, 64
2, 33171, Note_on_c, 0, 62, 64
2, 33201, Note_off_c, 0, 78, 64
2, 33201, Note_on_c, 0, 80, 64
2, 33411, Note_off_c, 0, 80, 64
2, 33411, Note_off_c, 0, 62, 64
2, 33411, Note_off_c, 0, 71, 64
2, 33411, Note_on_c, 0, 68, 64
2, 33411, Note_on_c, 0, 62, 64
2, 33411, Note_on_c, 0, 77, 64
2, 33531, Note_off_c, 0, 77, 64
2, 33531, Note_off_c, 0, 62, 64
2, 33531, Note_off_c, 0, 68, 64
2, 33531, Note_on_c, 0, 77, 64
2, 33531, Note_on_c, 0, 69, 64
2, 33531, Note_on_c, 0, 61, 64
2, 33561, Note_off_c, 0, 77, 64
2, 33561, Note_on_c, 0, 78, 64
2, 33771, Note_off_c, 0, 78, 64
2, 33771, Note_off_c, 0, 61, 64
2, 33771, Note_off_c, 0, 69, 64
2, 33771, Note_on_c, 0, 80, 64
2, 33771, Note_on_c, 0, 71, 64
2, 33771, Note_on_c, 0, 59, 64
2, 33891, Note_off_c, 0, 59, 64
2, 33891, Note_off_c, 0, 71, 64
2, 33891, Note_off_c, 0, 80, 64
2, 33891, Note_on_c, 0, 78, 64
2, 33891, Note_on_c, 0, 68, 64
2, 33891, Note_on_c, 0, 61, 64
2, 33921, Note_off_c, 0, 78, 64
2, 33921, Note_on_c, 0, 77, 64
2, 34131, Note_off_c, 0, 68, 64
2, 34131, Note_on_c, 0, 71, 64
2, 34191, Note_off_c, 0, 71, 64
2, 34191, Note_on_c, 0, 73, 64
2, 34221, Note_off_c, 0, 73, 64
2, 34221, Note_on_c, 0, 74, 64
2, 34251, Note_off_c, 0, 74, 64
2, 34251, Note_off_c, 0, 61, 64
2, 34251, Note_on_c, 0, 49, 64
2, 34251, Note_on_c, 0, 74, 64
2, 34371, Note_off_c, 0, 74, 64
2, 34371, Note_on_c, 0, 73, 64
2, 34491, Note_off_c, 0, 73, 64
2, 34491, Note_off_c, 0, 77, 64
2, 34491, Note_on_c, 0, 71, 64
2, 34491, Note_on_c, 0, 78, 64
2, 34611, Note_off_c, 0, 78, 64
2, 34611, Note_off_c, 0, 71, 64
2, 34611, Note_off_c, 0, 49, 64
2, 34611, Note_on_c, 0, 78, 64
2, 34611, Note_on_c, 0, 69, 64
2, 34611, Note_on_c, 0, 42, 64
2, 34731, Note_off_c, 0, 42, 64
2, 34731, Note_on_c, 0, 45, 64
2, 34851, Note_off_c, 0, 45, 64
2, 34851, Note_on_c, 0, 49, 64
2, 34971, Note_off_c, 0, 49, 64
2, 34971, Note_off_c, 0, 69, 64
2, 34971, Note_on_c, 0, 54, 64
2, 35211, Note_off_c, 0, 78, 64
2, 35211, Note_on_c, 0, 78, 64
2, 35271, Note_off_c, 0, 78, 64
2, 35271, Note_on_c, 0, 80, 64
2, 35301, Note_off_c, 0, 80, 64
2, 35301, Note_on_c, 0, 81, 64
2, 35331, Note_off_c, 0, 81, 64
2, 35331, Note_on_c, 0, 76, 64
2, 35361, Note_off_c, 0, 76, 64
2, 35361, Note_on_c, 0, 74, 64
2, 35571, Note_off_c, 0, 74, 64
2, 35571, Note_on_c, 0, 69, 64
2, 35571, Note_on_c, 0, 73, 64
2, 35691, Note_off_c, 0, 73, 64
2, 35691, Note_off_c, 0, 69, 64
2, 35691, Note_on_c, 0, 73, 64
2, 35691, Note_on_c, 0, 68, 64
2, 35721, Note_off_c, 0, 73, 64
2, 35721, Note_on_c, 0, 71, 64
2, 35811, Note_off_c, 0, 54, 64
2, 35811, Note_on_c, 0, 52, 64
2, 35871, Note_off_c, 0, 71, 64
2, 35871, Note_on_c, 0, 74, 64
2, 35931, Note_off_c, 0, 74, 64
2, 35931, Note_off_c, 0, 52, 64
2, 35931, Note_on_c, 0, 73, 64
2, 35931, Note_on_c, 0, 50, 64
2, 35991, Note_off_c, 0, 73, 64
2, 35991, Note_on_c, 0, 71, 64
2, 36051, Note_off_c, 0, 71, 64
2, 36051, Note_off_c, 0, 50, 64
2, 36051, Note_on_c, 0, 50, 64
2, 36051, Note_on_c, 0, 80, 64
2, 36081, Note_off_c, 0, 50, 64
2, 36081, Note_on_c, 0, 52, 64
2, 36231, Note_off_c, 0, 68, 64
2, 36231, Note_on_c, 0, 68, 64
2, 36291, Note_off_c, 0, 68, 64
2, 36291, Note_on_c, 0, 69, 64
2, 36351, Note_off_c, 0, 69, 64
2, 36351, Note_on_c, 0, 71, 64
2, 36411, Note_off_c, 0, 71, 64
2, 36411, Note_on_c, 0, 73, 64
2, 36591, Note_off_c, 0, 52, 64
2, 36591, Note_on_c, 0, 45, 64
2, 36651, Note_off_c, 0, 45, 64
2, 36651, Note_off_c, 0, 73, 64
2, 36651, Note_off_c, 0, 80, 64
2, 36651, Note_on_c, 0, 73, 64
2, 36651, Note_on_c, 0, 81, 64
2, 36651, Note_on_c, 0, 47, 64
2, 36711, Note_off_c, 0, 47, 64
2, 36711, Note_on_c, 0, 49, 64
2, 36771, Note_off_c, 0, 49, 64
2, 36771, Note_off_c, 0, 81, 64
2, 36771, Note_off_c, 0, 73, 64
2, 36771, Note_on_c, 0, 80, 64
2, 36771, Note_on_c, 0, 73, 64
2, 36771, Note_on_c, 0, 50, 64
2, 36801, Note_off_c, 0, 80, 64
2, 36801, Note_on_c, 0, 78, 64
2, 37011, Note_off_c, 0, 73, 64
2, 37011, Note_on_c, 0, 66, 64
2, 37131, Note_off_c, 0, 66, 64
2, 37131, Note_on_c, 0, 71, 64
2, 37311, Note_off_c, 0, 78, 64
2, 37311, Note_off_c, 0, 50, 64
2, 37311, Note_on_c, 0, 81, 64
2, 37311, Note_on_c, 0, 49, 64
2, 37371, Note_off_c, 0, 49, 64
2, 37371, Note_off_c, 0, 81, 64
2, 37371, Note_on_c, 0, 80, 64
2, 37371, Note_on_c, 0, 47, 64
2, 37431, Note_off_c, 0, 47, 64
2, 37431, Note_off_c, 0, 80, 64
2, 37431, Note_on_c, 0, 78, 64
2, 37431, Note_on_c, 0, 45, 64
2, 37491, Note_off_c, 0, 45, 64
2, 37491, Note_off_c, 0, 78, 64
2, 37491, Note_on_c, 0, 78, 64
2, 37491, Note_on_c, 0, 44, 64
2, 37611, Note_off_c, 0, 78, 64
2, 37611, Note_on_c, 0, 77, 64
2, 37731, Note_off_c, 0, 77, 64
2, 37731, Note_off_c, 0, 44, 64
2, 37731, Note_off_c, 0, 71, 64
2, 37731, Note_on_c, 0, 47, 64
2, 37731, Note_on_c, 0, 71, 64
2, 37731, Note_on_c, 0, 80, 64
2, 37851, Note_off_c, 0, 80, 64
2, 37851, Note_off_c, 0, 71, 64
2, 37851, Note_off_c, 0, 47, 64
2, 37851, Note_on_c, 0, 74, 64
2, 37851, Note_on_c, 0, 71, 64
2, 37851, Note_on_c, 0, 41, 64
2, 37881, Note_off_c, 0, 74, 64
2, 37881, Note_on_c, 0, 73, 64
2, 38091, Note_off_c, 0, 73, 64
2, 38091, Note_off_c, 0, 41, 64
2, 38091, Note_off_c, 0, 71, 64
2, 38091, Note_on_c, 0, 77, 64
2, 38091, Note_on_c, 0, 73, 64
2, 38091, Note_on_c, 0, 37, 64
2, 38211, Note_off_c, 0, 37, 64
2, 38211, Note_off_c, 0, 73, 64
2, 38211, Note_off_c, 0, 77, 64
2, 38211, Note_on_c, 0, 71, 64
2, 38211, Note_on_c, 0, 78, 64
2, 38211, Note_on_c, 0, 42, 64
2, 38241, Note_off_c, 0, 71, 64
2, 38241, Note_on_c, 0, 69, 64
2, 38391, Note_off_c, 0, 42, 64
2, 38391, Note_on_c, 0, 49, 64
2, 38451, Note_off_c, 0, 49, 64
2, 38451, Note_off_c, 0, 78, 64
2, 38451, Note_on_c, 0, 81, 64
2, 38451, Note_on_c, 0, 51, 64
2, 38511, Note_off_c, 0, 51, 64
2, 38511, Note_on_c, 0, 52, 64
2, 38571, Note_off_c, 0, 52, 64
2, 38571, Note_off_c, 0, 81, 64
2, 38571, Note_on_c, 0, 75, 64
2, 38571, Note_on_c, 0, 54, 64
2, 38691, Note_off_c, 0, 75, 64
2, 38691, Note_off_c, 0, 69, 64
2, 38691, Note_on_c, 0, 76, 64
2, 38691, Note_on_c, 0, 68, 64
2, 38811, Note_off_c, 0, 68, 64
2, 38811, Note_off_c, 0, 76, 64
2, 38811, Note_off_c, 0, 54, 64
2, 38811, Note_on_c, 0, 54, 64
2, 38811, Note_on_c, 0, 69, 64
2, 38811, Note_on_c, 0, 78, 64
2, 38931, Note_off_c, 0, 78, 64
2, 38931, Note_off_c, 0, 69, 64
2, 38931, Note_off_c, 0, 54, 64
2, 38931, Note_on_c, 0, 73, 64
2, 38931, Note_on_c, 0, 68, 64
2, 38931, Note_on_c, 0, 54, 64
2, 38961, Note_off_c, 0, 73, 64
2, 38961, Note_on_c, 0, 72, 64
2, 39051, Note_off_c, 0, 54, 64
2, 39051, Note_on_c, 0, 56, 64
2, 39111, Note_off_c, 0, 56, 64
2, 39111, Note_on_c, 0, 54, 64
2, 39171, Note_off_c, 0, 54, 64
2, 39171, Note_off_c, 0, 72, 64
2, 39171, Note_on_c, 0, 68, 64
2, 39171, Note_on_c, 0, 52, 64
2, 39231, Note_off_c, 0, 52, 64
2, 39231, Note_on_c, 0, 51, 64
2, 39291, Note_off_c, 0, 51, 64
2, 39291, Note_off_c, 0, 68, 64
2, 39291, Note_off_c, 0, 68, 64
2, 39291, Note_on_c, 0, 73, 64
2, 39291, Note_on_c, 0, 52, 64
2, 39411, Note_off_c, 0, 52, 64
2, 39411, Note_on_c, 0, 54, 64
2, 39471, Note_off_c, 0, 54, 64
2, 39471, Note_on_c, 0, 52, 64
2, 39531, Note_off_c, 0, 52, 64
2, 39531, Note_on_c, 0, 68, 64
2, 39531, Note_on_c, 0, 51, 64
2, 39591, Note_off_c, 0, 51, 64
2, 39591, Note_on_c, 0, 49, 64
2, 39651, Note_off_c, 0, 49, 64
2, 39651, Note_off_c, 0, 68, 64
2, 39651, Note_on_c, 0, 69, 64
2, 39651, Note_on_c, 0, 54, 64
2, 39681, Note_off_c, 0, 69, 64
2, 39683, Note_on_c, 0, 68, 64
2, 39711, Note_on_c, 0, 69, 64
2, 39713, Note_off_c, 0, 68, 64
2, 39771, Note_off_c, 0, 54, 64
2, 39771, Note_on_c, 0, 57, 64
2, 39831, Note_off_c, 0, 57, 64
2, 39831, Note_on_c, 0, 54, 64
2, 39891, Note_off_c, 0, 54, 64
2, 39891, Note_off_c, 0, 69, 64
2, 39891, Note_on_c, 0, 64, 64
2, 39891, Note_on_c, 0, 57, 64
2, 40011, Note_off_c, 0, 57, 64
2, 40011, Note_off_c, 0, 64, 64
2, 40011, Note_on_c, 0, 66, 64
2, 40011, Note_on_c, 0, 51, 64
2, 40131, Note_off_c, 0, 51, 64
2, 40131, Note_on_c, 0, 52, 64
2, 40191, Note_off_c, 0, 73, 64
2, 40191, Note_on_c, 0, 76, 64
2, 40251, Note_off_c, 0, 76, 64
2, 40251, Note_off_c, 0, 52, 64
2, 40251, Note_on_c, 0, 75, 64
2, 40251, Note_on_c, 0, 54, 64
2, 40311, Note_off_c, 0, 75, 64
2, 40311, Note_on_c, 0, 73, 64
2, 40361, Note_off_c, 0, 73, 64
2, 40374, Note_off_c, 0, 54, 64
2, 40374, Note_on_c, 0, 73, 64
2, 40374, Note_on_c, 0, 56, 64
2, 40404, Note_off_c, 0, 73, 64
2, 40404, Note_on_c, 0, 72, 64
2, 40554, Note_off_c, 0, 66, 64
2, 40554, Note_on_c, 0, 69, 64
2, 40614, Note_off_c, 0, 69, 64
2, 40614, Note_off_c, 0, 56, 64
2, 40614, Note_on_c, 0, 68, 64
2, 40614, Note_on_c, 0, 51, 64
2, 40674, Note_off_c, 0, 68, 64
2, 40674, Note_on_c, 0, 66, 64
2, 40724, Note_off_c, 0, 66, 64
2, 40737, Note_off_c, 0, 51, 64
2, 40737, Note_off_c, 0, 72, 64
2, 40737, Note_on_c, 0, 66, 64
2, 40737, Note_on_c, 0, 48, 64
2, 40767, Note_off_c, 0, 66, 64
2, 40767, Note_on_c, 0, 75, 64
2, 40977, Note_off_c, 0, 75, 64
2, 40977, Note_off_c, 0, 48, 64
2, 40977, Note_on_c, 0, 44, 64
2, 40977, Note_on_c, 0, 66, 64
2, 41097, Note_off_c, 0, 66, 64
2, 41097, Note_off_c, 0, 44, 64
2, 41097, Note_on_c, 0, 64, 64
2, 41097, Note_on_c, 0, 49, 64
2, 41277, Note_off_c, 0, 49, 64
2, 41277, Note_on_c, 0, 56, 64
2, 41337, Note_off_c, 0, 56, 64
2, 41337, Note_on_c, 0, 58, 64
2, 41397, Note_off_c, 0, 58, 64
2, 41397, Note_on_c, 0, 60, 64
2, 41457, Note_off_c, 0, 60, 64
2, 41457, Note_on_c, 0, 61, 64
2, 41577, Note_off_c, 0, 61, 64
2, 41577, Note_on_c, 0, 63, 64
2, 41697, Note_off_c, 0, 63, 64
2, 41697, Note_on_c, 0, 68, 64
2, 41697, Note_on_c, 0, 59, 64
2, 41817, Note_off_c, 0, 59, 64
2, 41817, Note_off_c, 0, 68, 64
2, 41817, Note_on_c, 0, 73, 64
2, 41817, Note_on_c, 0, 57, 64
2, 41847, Note_off_c, 0, 73, 64
2, 41849, Note_on_c, 0, 71, 64
2, 41877, Note_on_c, 0, 73, 64
2, 41879, Note_off_c, 0, 71, 64
2, 41937, Note_off_c, 0, 57, 64
2, 41937, Note_on_c, 0, 59, 64
2, 42057, Note_off_c, 0, 59, 64
2, 42057, Note_off_c, 0, 73, 64
2, 42057, Note_off_c, 0, 64, 64
2, 42057, Note_on_c, 0, 76, 64
2, 42057, Note_on_c, 0, 56, 64
2, 42057, Note_on_c, 0, 73, 64
2, 42177, Note_off_c, 0, 73, 64
2, 42177, Note_off_c, 0, 56, 64
2, 42177, Note_off_c, 0, 76, 64
2, 42177, Note_on_c, 0, 76, 64
2, 42177, Note_on_c, 0, 73, 64
2, 42177, Note_on_c, 0, 54, 64
2, 42207, Note_off_c, 0, 76, 64
2, 42207, Note_on_c, 0, 75, 64
2, 42357, Note_off_c, 0, 54, 64
2, 42357, Note_on_c, 0, 51, 64
2, 42417, Note_off_c, 0, 51, 64
2, 42417, Note_on_c, 0, 52, 64
2, 42477, Note_off_c, 0, 52, 64
2, 42477, Note_on_c, 0, 54, 64
2, 42537, Note_off_c, 0, 54, 64
2, 42537, Note_off_c, 0, 73, 64
2, 42537, Note_on_c, 0, 72, 64
2, 42537, Note_on_c, 0, 56, 64
2, 42657, Note_off_c, 0, 56, 64
2, 42657, Note_on_c, 0, 57, 64
2, 42717, Note_off_c, 0, 75, 64
2, 42717, Note_on_c, 0, 75, 64
2, 42777, Note_off_c, 0, 75, 64
2, 42777, Note_off_c, 0, 57, 64
2, 42777, Note_on_c, 0, 54, 64
2, 42777, Note_on_c, 0, 76, 64
2, 42837, Note_off_c, 0, 76, 64
2, 42837, Note_on_c, 0, 78, 64
2, 42887, Note_off_c, 0, 54, 64
2, 42900, Note_off_c, 0, 78, 64
2, 42900, Note_off_c, 0, 72, 64
2, 42900, Note_on_c, 0, 54, 72
2, 42900, Note_on_c, 0, 80, 64
2, 42930, Note_off_c, 0, 54, 30
2, 42930, Note_on_c, 0, 53, 50
2, 42960, Note_off_c, 0, 53, 44
2, 42960, Note_on_c, 0, 54, 52
2, 42990, Note_off_c, 0, 54, 52
2, 42990, Note_on_c, 0, 53, 53
2, 43020, Note_off_c, 0, 53, 31
2, 43020, Note_on_c, 0, 54, 55
2, 43020, Note_on_c, 0, 71, 64
2, 43050, Note_off_c, 0, 54, 61
2, 43050, Note_on_c, 0, 53, 57
2, 43080, Note_off_c, 0, 53, 37
2, 43080, Note_off_c, 0, 71, 64
2, 43080, Note_on_c, 0, 54, 58
2, 43080, Note_on_c, 0, 70, 64
2, 43110, Note_off_c, 0, 54, 46
2, 43110, Note_on_c, 0, 53, 60
2, 43140, Note_off_c, 0, 53, 37
2, 43140, Note_off_c, 0, 70, 64
2, 43140, Note_off_c, 0, 80, 64
2, 43140, Note_on_c, 0, 54, 61
2, 43140, Note_on_c, 0, 71, 64
2, 43140, Note_on_c, 0, 80, 64
2, 43170, Note_off_c, 0, 54, 63
2, 43170, Note_on_c, 0, 53, 63
2, 43200, Note_off_c, 0, 53, 49
2, 43200, Note_on_c, 0, 51, 64
2, 43230, Note_off_c, 0, 51, 64
2, 43230, Note_on_c, 0, 53, 64
2, 43260, Note_off_c, 0, 53, 64
2, 43260, Note_off_c, 0, 80, 64
2, 43260, Note_off_c, 0, 71, 64
2, 43260, Note_on_c, 0, 81, 64
2, 43260, Note_on_c, 0, 71, 64
2, 43260, Note_on_c, 0, 54, 64
2, 43290, Note_off_c, 0, 81, 64
2, 43290, Note_on_c, 0, 80, 64
2, 43500, Note_off_c, 0, 80, 64
2, 43500, Note_on_c, 0, 73, 64
2, 43620, Note_off_c, 0, 73, 64
2, 43620, Note_off_c, 0, 71, 64
2, 43620, Note_on_c, 0, 78, 64
2, 43620, Note_on_c, 0, 70, 64
2, 43800, Note_off_c, 0, 70, 64
2, 43800, Note_on_c, 0, 71, 64
2, 43860, Note_off_c, 0, 71, 64
2, 43860, Note_off_c, 0, 54, 64
2, 43860, Note_on_c, 0, 70, 64
2, 43860, Note_on_c, 0, 52, 64
2, 43920, Note_off_c, 0, 70, 64
2, 43920, Note_on_c, 0, 68, 64
2, 43980, Note_off_c, 0, 68, 64
2, 43980, Note_off_c, 0, 52, 64
2, 43980, Note_on_c, 0, 69, 64
2, 43980, Note_on_c, 0, 51, 64
2, 44100, Note_off_c, 0, 51, 64
2, 44100, Note_on_c, 0, 52, 64
2, 44220, Note_off_c, 0, 52, 64
2, 44220, Note_off_c, 0, 69, 64
2, 44220, Note_off_c, 0, 78, 64
2, 44220, Note_on_c, 0, 49, 64
2, 44220, Note_on_c, 0, 69, 64
2, 44220, Note_on_c, 0, 78, 64
2, 44340, Note_off_c, 0, 78, 64
2, 44340, Note_off_c, 0, 69, 64
2, 44340, Note_off_c, 0, 49, 64
2, 44340, Note_on_c, 0, 78, 64
2, 44340, Note_on_c, 0, 69, 64
2, 44340, Note_on_c, 0, 48, 64
2, 44460, Note_off_c, 0, 69, 64
2, 44460, Note_on_c, 0, 68, 64
2, 44580, Note_off_c, 0, 68, 64
2, 44580, Note_off_c, 0, 48, 64
2, 44580, Note_off_c, 0, 78, 64
2, 44580, Note_on_c, 0, 80, 64
2, 44580, Note_on_c, 0, 72, 64
2, 44580, Note_on_c, 0, 44, 64
2, 44700, Note_off_c, 0, 44, 64
2, 44700, Note_off_c, 0, 72, 64
2, 44700, Note_off_c, 0, 80, 64
2, 44700, Note_on_c, 0, 78, 64
2, 44700, Note_on_c, 0, 73, 64
2, 44700, Note_on_c, 0, 49, 64
2, 44730, Note_off_c, 0, 78, 64
2, 44730, Note_on_c, 0, 76, 64
2, 45060, Note_off_c, 0, 49, 64
2, 45060, Note_on_c, 0, 37, 64
2, 45180, Note_off_c, 0, 76, 64
2, 45180, Note_off_c, 0, 73, 64
2, 45180, Note_on_c, 0, 75, 64
2, 45180, Note_on_c, 0, 72, 64
2, 45300, Note_off_c, 0, 72, 64
2, 45300, Note_off_c, 0, 75, 64
2, 45300, Note_on_c, 0, 73, 64
2, 45300, Note_on_c, 0, 76, 64
2, 45420, Note_off_c, 0, 76, 64
2, 45420, Note_off_c, 0, 73, 64
2, 45420, Note_off_c, 0, 37, 64
2, 45420, Note_on_c, 0, 76, 64
2, 45420, Note_on_c, 0, 72, 64
2, 45420, Note_on_c, 0, 44, 64
2, 45450, Note_off_c, 0, 76, 64
2, 45450, Note_on_c, 0, 75, 64
2, 45540, Note_off_c, 0, 44, 64
2, 45540, Note_on_c, 0, 48, 64
2, 45660, Note_off_c, 0, 48, 64
2, 45660, Note_on_c, 0, 51, 64
2, 45780, Note_off_c, 0, 51, 64
2, 45780, Note_off_c, 0, 75, 64
2, 45780, Note_off_c, 0, 72, 64
2, 45780, Note_on_c, 0, 56, 64
2, 45960, Note_off_c, 0, 56, 64
2, 45960, Note_on_c, 0, 57, 64
2, 46020, Note_off_c, 0, 57, 64
2, 46020, Note_on_c, 0, 75, 64
2, 46020, Note_on_c, 0, 56, 64
2, 46080, Note_off_c, 0, 56, 64
2, 46080, Note_on_c, 0, 54, 64
2, 46140, Note_off_c, 0, 54, 64
2, 46140, Note_off_c, 0, 75, 64
2, 46140, Note_on_c, 0, 56, 64
2, 46140, Note_on_c, 0, 76, 64
2, 46170, Note_off_c, 0, 56, 64
2, 46172, Note_on_c, 0, 54, 64
2, 46200, Note_on_c, 0, 56, 64
2, 46202, Note_off_c, 0, 54, 64
2, 46380, Note_off_c, 0, 56, 64
2, 46380, Note_off_c, 0, 76, 64
2, 46380, Note_on_c, 0, 68, 64
2, 46380, Note_on_c, 0, 72, 64
2, 46380, Note_on_c, 0, 56, 64
2, 46500, Note_off_c, 0, 56, 64
2, 46500, Note_off_c, 0, 72, 64
2, 46500, Note_off_c, 0, 68, 64
2, 46500, Note_on_c, 0, 72, 64
2, 46500, Note_on_c, 0, 69, 64
2, 46500, Note_on_c, 0, 56, 64
2, 46530, Note_off_c, 0, 72, 64
2, 46530, Note_on_c, 0, 73, 64
2, 46680, Note_off_c, 0, 56, 64
2, 46680, Note_on_c, 0, 49, 64
2, 46740, Note_off_c, 0, 49, 64
2, 46740, Note_on_c, 0, 51, 64
2, 46800, Note_off_c, 0, 51, 64
2, 46800, Note_on_c, 0, 53, 64
2, 46860, Note_off_c, 0, 53, 64
2, 46860, Note_off_c, 0, 69, 64
2, 46860, Note_on_c, 0, 54, 64
2, 47040, Note_off_c, 0, 54, 64
2, 47040, Note_off_c, 0, 73, 64
2, 47040, Note_on_c, 0, 76, 64
2, 47040, Note_on_c, 0, 56, 64
2, 47100, Note_off_c, 0, 56, 64
2, 47100, Note_off_c, 0, 76, 64
2, 47100, Note_on_c, 0, 75, 64
2, 47100, Note_on_c, 0, 54, 64
2, 47160, Note_off_c, 0, 54, 64
2, 47160, Note_off_c, 0, 75, 64
2, 47160, Note_on_c, 0, 73, 64
2, 47160, Note_on_c, 0, 52, 64
2, 47210, Note_off_c, 0, 73, 64
2, 47223, Note_off_c, 0, 52, 64
2, 47223, Note_on_c, 0, 54, 64
2, 47223, Note_on_c, 0, 73, 64
2, 47253, Note_off_c, 0, 73, 64
2, 47253, Note_off_c, 0, 54, 64
2, 47253, Note_on_c, 0, 81, 64
2, 47255, Note_on_c, 0, 52, 64
2, 47283, Note_on_c, 0, 54, 64
2, 47285, Note_off_c, 0, 52, 64
2, 47463, Note_off_c, 0, 54, 64
2, 47463, Note_off_c, 0, 81, 64
2, 47463, Note_on_c, 0, 69, 64
2, 47463, Note_on_c, 0, 54, 64
2, 47463, Note_on_c, 0, 73, 64
2, 47583, Note_off_c, 0, 73, 64
2, 47583, Note_off_c, 0, 54, 64
2, 47583, Note_off_c, 0, 69, 64
2, 47583, Note_on_c, 0, 73, 64
2, 47583, Note_on_c, 0, 68, 64
2, 47583, Note_on_c, 0, 54, 64
2, 47613, Note_off_c, 0, 73, 64
2, 47613, Note_on_c, 0, 72, 64
2, 47763, Note_off_c, 0, 54, 64
2, 47763, Note_on_c, 0, 48, 64
2, 47823, Note_off_c, 0, 48, 64
2, 47823, Note_off_c, 0, 72, 64
2, 47823, Note_on_c, 0, 68, 64
2, 47823, Note_on_c, 0, 49, 64
2, 47824, Note_off_c, 0, 68, 64
2, 47883, Note_off_c, 0, 49, 64
2, 47883, Note_on_c, 0, 51, 64
2, 47943, Note_off_c, 0, 51, 64
2, 47943, Note_off_c, 0, 68, 64
2, 47943, Note_on_c, 0, 80, 64
2, 47943, Note_on_c, 0, 52, 64
2, 48123, Note_off_c, 0, 52, 64
2, 48123, Note_on_c, 0, 54, 64
2, 48183, Note_off_c, 0, 54, 64
2, 48183, Note_on_c, 0, 68, 64
2, 48183, Note_on_c, 0, 52, 64
2, 48243, Note_off_c, 0, 52, 64
2, 48243, Note_on_c, 0, 51, 64
2, 48303, Note_off_c, 0, 51, 64
2, 48303, Note_off_c, 0, 68, 64
2, 48303, Note_on_c, 0, 73, 64
2, 48303, Note_on_c, 0, 52, 64
2, 48363, Note_off_c, 0, 73, 64
2, 48363, Note_on_c, 0, 75, 64
2, 48423, Note_off_c, 0, 75, 64
2, 48423, Note_on_c, 0, 76, 64
2, 48543, Note_off_c, 0, 76, 64
2, 48543, Note_off_c, 0, 52, 64
2, 48543, Note_off_c, 0, 80, 64
2, 48543, Note_on_c, 0, 73, 64
2, 48543, Note_on_c, 0, 80, 64
2, 48543, Note_on_c, 0, 52, 64
2, 48663, Note_off_c, 0, 52, 64
2, 48663, Note_off_c, 0, 80, 64
2, 48663, Note_off_c, 0, 73, 64
2, 48663, Note_on_c, 0, 71, 64
2, 48663, Note_on_c, 0, 80, 64
2, 48663, Note_on_c, 0, 52, 64
2, 48693, Note_off_c, 0, 71, 64
2, 48693, Note_on_c, 0, 70, 64
2, 48843, Note_off_c, 0, 52, 64
2, 48843, Note_on_c, 0, 46, 64
2, 48903, Note_off_c, 0, 46, 64
2, 48903, Note_on_c, 0, 48, 64
2, 48963, Note_off_c, 0, 48, 64
2, 48963, Note_on_c, 0, 49, 64
2, 49023, Note_off_c, 0, 49, 64
2, 49023, Note_off_c, 0, 80, 64
2, 49023, Note_on_c, 0, 79, 64
2, 49023, Note_on_c, 0, 51, 64
2, 49203, Note_off_c, 0, 51, 64
2, 49203, Note_off_c, 0, 70, 64
2, 49203, Note_on_c, 0, 73, 64
2, 49203, Note_on_c, 0, 52, 64
2, 49263, Note_off_c, 0, 52, 64
2, 49263, Note_off_c, 0, 73, 64
2, 49263, Note_on_c, 0, 71, 64
2, 49263, Note_on_c, 0, 51, 64
2, 49323, Note_off_c, 0, 51, 64
2, 49323, Note_off_c, 0, 71, 64
2, 49323, Note_on_c, 0, 70, 64
2, 49323, Note_on_c, 0, 49, 64
2, 49383, Note_off_c, 0, 49, 64
2, 49383, Note_off_c, 0, 70, 64
2, 49383, Note_off_c, 0, 79, 64
2, 49383, Note_on_c, 0, 72, 64
2, 49383, Note_on_c, 0, 51, 64
2, 49503, Note_off_c, 0, 72, 64
2, 49503, Note_on_c, 0, 73, 64
2, 49623, Note_off_c, 0, 73, 64
2, 49623, Note_off_c, 0, 51, 64
2, 49623, Note_on_c, 0, 78, 64
2, 49623, Note_on_c, 0, 51, 64
2, 49623, Note_on_c, 0, 75, 64
2, 49743, Note_off_c, 0, 75, 64
2, 49743, Note_off_c, 0, 51, 64
2, 49743, Note_off_c, 0, 78, 64
2, 49743, Note_on_c, 0, 78, 64
2, 49743, Note_on_c, 0, 68, 64
2, 49743, Note_on_c, 0, 51, 64
2, 49773, Note_off_c, 0, 78, 64
2, 49773, Note_on_c, 0, 77, 64
2, 49923, Note_off_c, 0, 77, 64
2, 49923, Note_off_c, 0, 51, 64
2, 49923, Note_on_c, 0, 75, 64
2, 49923, Note_on_c, 0, 44, 64
2, 49983, Note_off_c, 0, 44, 64
2, 49983, Note_off_c, 0, 75, 64
2, 49983, Note_on_c, 0, 73, 64
2, 49983, Note_on_c, 0, 46, 64
2, 50043, Note_off_c, 0, 46, 64
2, 50043, Note_off_c, 0, 73, 64
2, 50043, Note_on_c, 0, 75, 64
2, 50043, Note_on_c, 0, 48, 64
2, 50103, Note_off_c, 0, 48, 64
2, 50103, Note_off_c, 0, 75, 64
2, 50103, Note_on_c, 0, 76, 64
2, 50103, Note_on_c, 0, 49, 64
2, 50283, Note_off_c, 0, 49, 64
2, 50283, Note_off_c, 0, 68, 64
2, 50283, Note_on_c, 0, 64, 64
2, 50283, Note_on_c, 0, 51, 64
2, 50343, Note_off_c, 0, 51, 64
2, 50343, Note_off_c, 0, 64, 64
2, 50343, Note_on_c, 0, 66, 64
2, 50343, Note_on_c, 0, 49, 64
2, 50403, Note_off_c, 0, 49, 64
2, 50403, Note_off_c, 0, 66, 64
2, 50403, Note_on_c, 0, 68, 64
2, 50403, Note_on_c, 0, 48, 64
2, 50463, Note_off_c, 0, 48, 64
2, 50463, Note_off_c, 0, 68, 64
2, 50463, Note_on_c, 0, 69, 64
2, 50463, Note_on_c, 0, 49, 64
2, 50583, Note_off_c, 0, 49, 64
2, 50583, Note_off_c, 0, 69, 64
2, 50583, Note_on_c, 0, 73, 64
2, 50583, Note_on_c, 0, 51, 64
2, 50643, Note_off_c, 0, 73, 64
2, 50643, Note_on_c, 0, 72, 64
2, 50703, Note_off_c, 0, 72, 64
2, 50703, Note_off_c, 0, 51, 64
2, 50703, Note_on_c, 0, 52, 64
2, 50703, Note_on_c, 0, 73, 64
2, 50823, Note_off_c, 0, 73, 64
2, 50823, Note_off_c, 0, 52, 64
2, 50823, Note_on_c, 0, 66, 64
2, 50823, Note_on_c, 0, 45, 64
2, 50943, Note_off_c, 0, 76, 64
2, 50943, Note_on_c, 0, 75, 64
2, 51063, Note_off_c, 0, 75, 64
2, 51063, Note_off_c, 0, 45, 64
2, 51063, Note_on_c, 0, 57, 64
2, 51063, Note_on_c, 0, 73, 64
2, 51173, Note_off_c, 0, 57, 64
2, 51186, Note_off_c, 0, 73, 64
2, 51186, Note_on_c, 0, 73, 64
2, 51186, Note_on_c, 0, 57, 64
2, 51216, Note_off_c, 0, 57, 64
2, 51216, Note_off_c, 0, 73, 64
2, 51216, Note_on_c, 0, 72, 64
2, 51218, Note_on_c, 0, 56, 64
2, 51246, Note_on_c, 0, 57, 64
2, 51248, Note_off_c, 0, 56, 64
2, 51366, Note_off_c, 0, 57, 64
2, 51366, Note_on_c, 0, 51, 64
2, 51426, Note_off_c, 0, 51, 64
2, 51426, Note_off_c, 0, 66, 64
2, 51426, Note_on_c, 0, 68, 64
2, 51426, Note_on_c, 0, 52, 64
2, 51486, Note_off_c, 0, 52, 64
2, 51486, Note_on_c, 0, 54, 64
2, 51546, Note_off_c, 0, 54, 64
2, 51546, Note_off_c, 0, 68, 64
2, 51546, Note_off_c, 0, 72, 64
2, 51546, Note_on_c, 0, 71, 64
2, 51546, Note_on_c, 0, 66, 64
2, 51546, Note_on_c, 0, 56, 64
2, 51666, Note_off_c, 0, 66, 64
2, 51666, Note_on_c, 0, 65, 64
2, 51786, Note_off_c, 0, 65, 64
2, 51786, Note_off_c, 0, 56, 64
2, 51786, Note_on_c, 0, 56, 64
2, 51786, Note_on_c, 0, 63, 64
2, 51906, Note_off_c, 0, 63, 64
2, 51906, Note_off_c, 0, 56, 64
2, 51906, Note_on_c, 0, 56, 64
2, 51914, Note_on_c, 0, 63, 64
2, 51936, Note_on_c, 0, 65, 64
2, 51944, Note_off_c, 0, 63, 64
2, 52146, Note_off_c, 0, 56, 64
2, 52146, Note_off_c, 0, 71, 64
2, 52146, Note_on_c, 0, 73, 64
2, 52146, Note_on_c, 0, 49, 64
2, 52266, Note_off_c, 0, 49, 64
2, 52266, Note_off_c, 0, 73, 64
2, 52266, Note_off_c, 0, 65, 64
2, 52266, Note_on_c, 0, 71, 64
2, 52266, Note_on_c, 0, 66, 64
2, 52266, Note_on_c, 0, 54, 64
2, 52326, Note_off_c, 0, 54, 64
2, 52326, Note_on_c, 0, 53, 64
2, 52386, Note_off_c, 0, 53, 64
2, 52386, Note_off_c, 0, 71, 64
2, 52386, Note_on_c, 0, 69, 64
2, 52386, Note_on_c, 0, 54, 64
2, 52506, Note_off_c, 0, 54, 64
2, 52506, Note_off_c, 0, 69, 64
2, 52506, Note_off_c, 0, 66, 64
2, 52506, Note_on_c, 0, 68, 64
2, 52506, Note_on_c, 0, 64, 64
2, 52506, Note_on_c, 0, 54, 64
2, 52616, Note_off_c, 0, 64, 64
2, 52616, Note_off_c, 0, 68, 64
2, 52629, Note_off_c, 0, 54, 64
2, 52629, Note_on_c, 0, 64, 64
2, 52629, Note_on_c, 0, 68, 64
2, 52629, Note_on_c, 0, 54, 64
2, 52659, Note_off_c, 0, 68, 64
2, 52659, Note_off_c, 0, 64, 64
2, 52659, Note_on_c, 0, 63, 64
2, 52659, Note_on_c, 0, 66, 64
2, 52869, Note_off_c, 0, 66, 64
2, 52869, Note_off_c, 0, 63, 64
2, 52869, Note_off_c, 0, 54, 64
2, 52869, Note_on_c, 0, 64, 64
2, 52869, Note_on_c, 0, 54, 64
2, 52869, Note_on_c, 0, 61, 64
2, 52989, Note_off_c, 0, 61, 64
2, 52989, Note_off_c, 0, 54, 64
2, 52989, Note_off_c, 0, 64, 64
2, 52989, Note_on_c, 0, 63, 64
2, 52989, Note_on_c, 0, 60, 64
2, 52989, Note_on_c, 0, 54, 64
2, 53109, Note_off_c, 0, 54, 64
2, 53109, Note_on_c, 0, 56, 64
2, 53169, Note_off_c, 0, 56, 64
2, 53169, Note_off_c, 0, 63, 64
2, 53169, Note_on_c, 0, 68, 64
2, 53169, Note_on_c, 0, 54, 64
2, 53229, Note_off_c, 0, 54, 64
2, 53229, Note_off_c, 0, 68, 64
2, 53229, Note_on_c, 0, 72, 64
2, 53229, Note_on_c, 0, 52, 64
2, 53289, Note_off_c, 0, 52, 64
2, 53289, Note_off_c, 0, 72, 64
2, 53289, Note_on_c, 0, 75, 64
2, 53289, Note_on_c, 0, 51, 64
2, 53349, Note_off_c, 0, 51, 64
2, 53349, Note_off_c, 0, 75, 64
2, 53349, Note_off_c, 0, 60, 64
2, 53349, Note_on_c, 0, 54, 72
2, 53349, Note_on_c, 0, 80, 64
2, 53379, Note_off_c, 0, 54, 20
2, 53379, Note_on_c, 0, 52, 50
2, 53409, Note_off_c, 0, 52, 43
2, 53409, Note_off_c, 0, 80, 64
2, 53409, Note_on_c, 0, 54, 51
2, 53409, Note_on_c, 0, 78, 64
2, 53439, Note_off_c, 0, 54, 49
2, 53439, Note_on_c, 0, 52, 51
2, 53469, Note_off_c, 0, 52, 55
2, 53469, Note_off_c, 0, 78, 64
2, 53469, Note_on_c, 0, 54, 52
2, 53469, Note_on_c, 0, 80, 64
2, 53499, Note_off_c, 0, 54, 52
2, 53499, Note_on_c, 0, 52, 53
2, 53529, Note_off_c, 0, 52, 54
2, 53529, Note_on_c, 0, 54, 54
2, 53559, Note_off_c, 0, 54, 52
2, 53559, Note_on_c, 0, 52, 54
2, 53589, Note_off_c, 0, 52, 55
2, 53589, Note_off_c, 0, 80, 64
2, 53589, Note_on_c, 0, 54, 55
2, 53589, Note_on_c, 0, 80, 64
2, 53619, Note_off_c, 0, 54, 66
2, 53619, Note_on_c, 0, 52, 56
2, 53649, Note_off_c, 0, 52, 47
2, 53649, Note_on_c, 0, 54, 57
2, 53679, Note_off_c, 0, 54, 65
2, 53679, Note_on_c, 0, 52, 57
2, 53709, Note_off_c, 0, 52, 40
2, 53709, Note_off_c, 0, 80, 64
2, 53709, Note_on_c, 0, 54, 58
2, 53709, Note_on_c, 0, 80, 64
2, 53739, Note_off_c, 0, 54, 57
2, 53739, Note_on_c, 0, 52, 59
2, 53769, Note_off_c, 0, 52, 48
2, 53769, Note_on_c, 0, 54, 60
2, 53799, Note_off_c, 0, 54, 62
2, 53799, Note_on_c, 0, 52, 60
2, 53829, Note_off_c, 0, 52, 46
2, 53829, Note_on_c, 0, 54, 61
2, 53859, Note_off_c, 0, 54, 55
2, 53859, Note_on_c, 0, 52, 62
2, 53889, Note_off_c, 0, 52, 41
2, 53889, Note_on_c, 0, 54, 63
2, 53919, Note_off_c, 0, 54, 63
2, 53919, Note_on_c, 0, 52, 63
2, 53949, Note_off_c, 0, 52, 40
2, 53949, Note_off_c, 0, 80, 64
2, 53949, Note_on_c, 0, 80, 64
2, 53949, Note_on_c, 0, 51, 64
2, 54009, Note_off_c, 0, 51, 64
2, 54009, Note_on_c, 0, 52, 64
2, 54069, Note_off_c, 0, 52, 64
2, 54069, Note_off_c, 0, 80, 64
2, 54069, Note_on_c, 0, 80, 64
2, 54069, Note_on_c, 0, 51, 64
2, 54189, Note_off_c, 0, 51, 64
2, 54189, Note_off_c, 0, 80, 64
2, 54189, Note_on_c, 0, 81, 64
2, 54249, Note_off_c, 0, 81, 64
2, 54249, Note_on_c, 0, 80, 64
2, 54249, Note_on_c, 0, 63, 64
2, 54309, Note_off_c, 0, 63, 64
2, 54309, Note_off_c, 0, 80, 64
2, 54309, Note_on_c, 0, 78, 64
2, 54309, Note_on_c, 0, 66, 64
2, 54369, Note_off_c, 0, 66, 64
2, 54369, Note_off_c, 0, 78, 64
2, 54369, Note_on_c, 0, 76, 64
2, 54369, Note_on_c, 0, 70, 64
2, 54429, Note_off_c, 0, 70, 64
2, 54429, Note_off_c, 0, 76, 64
2, 54429, Note_on_c, 0, 78, 64
2, 54429, Note_on_c, 0, 75, 64
2, 54489, Note_off_c, 0, 75, 64
2, 54489, Note_on_c, 0, 73, 64
2, 54549, Note_off_c, 0, 73, 64
2, 54549, Note_on_c, 0, 75, 64
2, 54609, Note_on_c, 0, 52, 64
2, 54669, Note_off_c, 0, 52, 64
2, 54669, Note_off_c, 0, 75, 64
2, 54669, Note_off_c, 0, 78, 64
2, 54669, Note_on_c, 0, 78, 64
2, 54669, Note_on_c, 0, 75, 64
2, 54669, Note_on_c, 0, 51, 64
2, 54729, Note_off_c, 0, 51, 64
2, 54729, Note_on_c, 0, 49, 64
2, 54789, Note_off_c, 0, 49, 64
2, 54789, Note_off_c, 0, 75, 64
2, 54789, Note_off_c, 0, 78, 64
2, 54789, Note_on_c, 0, 78, 64
2, 54789, Note_on_c, 0, 75, 64
2, 54789, Note_on_c, 0, 48, 64
2, 54849, Note_off_c, 0, 48, 64
2, 54849, Note_on_c, 0, 49, 64
2, 54909, Note_off_c, 0, 49, 64
2, 54909, Note_on_c, 0, 51, 64
2, 55029, Note_off_c, 0, 51, 64
2, 55029, Note_off_c, 0, 75, 64
2, 55029, Note_off_c, 0, 78, 64
2, 55029, Note_on_c, 0, 44, 64
2, 55029, Note_on_c, 0, 75, 64
2, 55029, Note_on_c, 0, 78, 64
2, 55149, Note_off_c, 0, 78, 64
2, 55149, Note_off_c, 0, 75, 64
2, 55149, Note_off_c, 0, 44, 64
2, 55149, Note_on_c, 0, 78, 64
2, 55149, Note_on_c, 0, 73, 64
2, 55149, Note_on_c, 0, 49, 64
2, 55269, Note_off_c, 0, 73, 64
2, 55269, Note_on_c, 0, 76, 64
2, 55329, Note_off_c, 0, 76, 64
2, 55329, Note_off_c, 0, 49, 64
2, 55329, Note_on_c, 0, 75, 64
2, 55329, Note_on_c, 0, 51, 64
2, 55389, Note_off_c, 0, 51, 64
2, 55389, Note_off_c, 0, 75, 64
2, 55389, Note_on_c, 0, 73, 64
2, 55389, Note_on_c, 0, 52, 64
2, 55449, Note_off_c, 0, 52, 64
2, 55449, Note_off_c, 0, 73, 64
2, 55449, Note_on_c, 0, 72, 64
2, 55449, Note_on_c, 0, 56, 64
2, 55509, Note_off_c, 0, 56, 64
2, 55509, Note_off_c, 0, 72, 64
2, 55509, Note_off_c, 0, 78, 64
2, 55509, Note_on_c, 0, 76, 64
2, 55509, Note_on_c, 0, 73, 64
2, 55509, Note_on_c, 0, 61, 64
2, 55569, Note_off_c, 0, 61, 64
2, 55569, Note_on_c, 0, 60, 64
2, 55629, Note_off_c, 0, 60, 64
2, 55629, Note_off_c, 0, 73, 64
2, 55629, Note_off_c, 0, 76, 64
2, 55629, Note_on_c, 0, 78, 64
2, 55629, Note_on_c, 0, 75, 64
2, 55629, Note_on_c, 0, 61, 64
2, 55749, Note_off_c, 0, 61, 64
2, 55749, Note_off_c, 0, 75, 64
2, 55749, Note_off_c, 0, 78, 64
2, 55749, Note_on_c, 0, 80, 64
2, 55749, Note_on_c, 0, 76, 64
2, 55749, Note_on_c, 0, 61, 64
2, 55869, Note_off_c, 0, 61, 64
2, 55869, Note_off_c, 0, 76, 64
2, 55869, Note_off_c, 0, 80, 64
2, 55869, Note_on_c, 0, 73, 64
2, 55869, Note_on_c, 0, 70, 64
2, 55869, Note_on_c, 0, 61, 64
2, 55989, Note_off_c, 0, 70, 64
2, 55989, Note_off_c, 0, 73, 64
2, 55989, Note_on_c, 0, 75, 64
2, 55989, Note_on_c, 0, 71, 64
2, 56109, Note_off_c, 0, 71, 64
2, 56109, Note_off_c, 0, 75, 64
2, 56109, Note_off_c, 0, 61, 64
2, 56109, Note_on_c, 0, 61, 64
2, 56109, Note_on_c, 0, 73, 64
2, 56109, Note_on_c, 0, 76, 64
2, 56229, Note_off_c, 0, 76, 64
2, 56229, Note_off_c, 0, 73, 64
2, 56229, Note_off_c, 0, 61, 64
2, 56229, Note_on_c, 0, 71, 64
2, 56229, Note_on_c, 0, 67, 64
2, 56229, Note_on_c, 0, 61, 64
2, 56259, Note_off_c, 0, 71, 64
2, 56259, Note_on_c, 0, 70, 64
2, 56349, Note_off_c, 0, 61, 64
2, 56349, Note_on_c, 0, 63, 64
2, 56409, Note_off_c, 0, 63, 64
2, 56409, Note_on_c, 0, 61, 64
2, 56469, Note_off_c, 0, 61, 64
2, 56469, Note_off_c, 0, 70, 64
2, 56469, Note_on_c, 0, 63, 64
2, 56469, Note_on_c, 0, 59, 64
2, 56529, Note_off_c, 0, 59, 64
2, 56529, Note_on_c, 0, 58, 64
2, 56589, Note_off_c, 0, 58, 64
2, 56589, Note_off_c, 0, 63, 64
2, 56589, Note_off_c, 0, 67, 64
2, 56589, Note_on_c, 0, 75, 64
2, 56589, Note_on_c, 0, 59, 64
2, 56649, Note_off_c, 0, 75, 64
2, 56649, Note_on_c, 0, 73, 64
2, 56709, Note_off_c, 0, 73, 64
2, 56709, Note_off_c, 0, 59, 64
2, 56709, Note_on_c, 0, 75, 64
2, 56709, Note_on_c, 0, 59, 64
2, 56769, Note_off_c, 0, 59, 64
2, 56769, Note_on_c, 0, 58, 64
2, 56829, Note_off_c, 0, 58, 64
2, 56829, Note_on_c, 0, 63, 64
2, 56829, Note_on_c, 0, 59, 64
2, 56949, Note_off_c, 0, 59, 64
2, 56949, Note_off_c, 0, 63, 64
2, 56949, Note_on_c, 0, 68, 64
2, 56949, Note_on_c, 0, 59, 64
2, 57129, Note_off_c, 0, 75, 64
2, 57129, Note_on_c, 0, 75, 64
2, 57189, Note_off_c, 0, 75, 64
2, 57189, Note_off_c, 0, 59, 64
2, 57189, Note_on_c, 0, 59, 64
2, 57189, Note_on_c, 0, 77, 64
2, 57249, Note_off_c, 0, 77, 64
2, 57249, Note_on_c, 0, 78, 64
2, 57299, Note_off_c, 0, 78, 64
2, 57312, Note_off_c, 0, 59, 64
2, 57312, Note_on_c, 0, 78, 72
2, 57312, Note_on_c, 0, 59, 64
2, 57342, Note_off_c, 0, 78, 44
2, 57342, Note_on_c, 0, 77, 50
2, 57372, Note_off_c, 0, 77, 46
2, 57372, Note_on_c, 0, 78, 52
2, 57402, Note_off_c, 0, 78, 61
2, 57402, Note_on_c, 0, 77, 54
2, 57432, Note_off_c, 0, 77, 49
2, 57432, Note_off_c, 0, 59, 64
2, 57432, Note_on_c, 0, 78, 55
2, 57432, Note_on_c, 0, 61, 64
2, 57462, Note_off_c, 0, 78, 52
2, 57462, Note_on_c, 0, 77, 57
2, 57492, Note_off_c, 0, 77, 55
2, 57492, Note_off_c, 0, 61, 64
2, 57492, Note_on_c, 0, 78, 59
2, 57492, Note_on_c, 0, 59, 64
2, 57522, Note_off_c, 0, 78, 59
2, 57522, Note_on_c, 0, 77, 60
2, 57552, Note_off_c, 0, 77, 47
2, 57552, Note_off_c, 0, 59, 64
2, 57552, Note_on_c, 0, 78, 62
2, 57552, Note_on_c, 0, 57, 64
2, 57582, Note_off_c, 0, 78, 52
2, 57582, Note_on_c, 0, 77, 63
2, 57612, Note_off_c, 0, 77, 51
2, 57612, Note_off_c, 0, 57, 64
2, 57612, Note_on_c, 0, 75, 64
2, 57612, Note_on_c, 0, 56, 64
2, 57642, Note_off_c, 0, 75, 64
2, 57642, Note_on_c, 0, 77, 64
2, 57672, Note_off_c, 0, 77, 64
2, 57672, Note_off_c, 0, 56, 64
2, 57672, Note_on_c, 0, 61, 64
2, 57672, Note_on_c, 0, 78, 64
2, 57672, Note_on_c, 0, 57, 64
2, 57732, Note_off_c, 0, 57, 64
2, 57732, Note_on_c, 0, 54, 64
2, 57792, Note_off_c, 0, 54, 64
2, 57792, Note_off_c, 0, 61, 64
2, 57792, Note_on_c, 0, 56, 64
2, 57852, Note_off_c, 0, 56, 64
2, 57852, Note_off_c, 0, 78, 64
2, 57852, Note_on_c, 0, 76, 64
2, 57852, Note_on_c, 0, 57, 64
2, 57912, Note_off_c, 0, 57, 64
2, 57912, Note_off_c, 0, 76, 64
2, 57912, Note_on_c, 0, 74, 64
2, 57912, Note_on_c, 0, 59, 64
2, 57972, Note_off_c, 0, 59, 64
2, 57972, Note_off_c, 0, 74, 64
2, 57972, Note_on_c, 0, 73, 64
2, 57972, Note_on_c, 0, 61, 64
2, 58032, Note_off_c, 0, 61, 64
2, 58032, Note_off_c, 0, 73, 64
2, 58032, Note_off_c, 0, 68, 64
2, 58032, Note_on_c, 0, 71, 64
2, 58032, Note_on_c, 0, 62, 64
2, 58092, Note_off_c, 0, 62, 64
2, 58092, Note_on_c, 0, 61, 64
2, 58152, Note_off_c, 0, 61, 64
2, 58152, Note_on_c, 0, 62, 64
2, 58212, Note_on_c, 0, 69, 64
2, 58272, Note_off_c, 0, 69, 64
2, 58272, Note_off_c, 0, 62, 64
2, 58272, Note_on_c, 0, 59, 64
2, 58272, Note_on_c, 0, 68, 64
2, 58332, Note_off_c, 0, 68, 64
2, 58332, Note_on_c, 0, 66, 64
2, 58392, Note_off_c, 0, 66, 64
2, 58392, Note_off_c, 0, 59, 64
2, 58392, Note_on_c, 0, 54, 64
2, 58392, Note_on_c, 0, 68, 64
2, 58422, Note_off_c, 0, 54, 64
2, 58422, Note_on_c, 0, 53, 64
2, 58572, Note_off_c, 0, 53, 64
2, 58572, Note_on_c, 0, 49, 64
2, 58632, Note_off_c, 0, 49, 64
2, 58632, Note_off_c, 0, 71, 64
2, 58632, Note_on_c, 0, 73, 64
2, 58632, Note_on_c, 0, 51, 64
2, 58692, Note_off_c, 0, 51, 64
2, 58692, Note_on_c, 0, 53, 64
2, 58752, Note_off_c, 0, 53, 64
2, 58752, Note_off_c, 0, 73, 64
2, 58752, Note_on_c, 0, 69, 64
2, 58752, Note_on_c, 0, 54, 64
2, 58872, Note_off_c, 0, 54, 64
2, 58872, Note_on_c, 0, 57, 64
2, 58932, Note_off_c, 0, 57, 64
2, 58932, Note_on_c, 0, 56, 64
2, 58992, Note_off_c, 0, 56, 64
2, 58992, Note_on_c, 0, 54, 64
2, 59052, Note_off_c, 0, 54, 64
2, 59052, Note_on_c, 0, 52, 64
2, 59112, Note_off_c, 0, 52, 64
2, 59112, Note_off_c, 0, 69, 64
2, 59112, Note_off_c, 0, 68, 64
2, 59112, Note_on_c, 0, 71, 72
2, 59112, Note_on_c, 0, 66, 64
2, 59112, Note_on_c, 0, 51, 64
2, 59142, Note_off_c, 0, 71, 41
2, 59142, Note_on_c, 0, 69, 50
2, 59172, Note_off_c, 0, 69, 52
2, 59172, Note_on_c, 0, 71, 52
2, 59202, Note_off_c, 0, 71, 61
2, 59202, Note_on_c, 0, 69, 54
2, 59232, Note_off_c, 0, 69, 59
2, 59232, Note_off_c, 0, 51, 64
2, 59232, Note_on_c, 0, 71, 55
2, 59232, Note_on_c, 0, 52, 64
2, 59262, Note_off_c, 0, 71, 72
2, 59262, Note_on_c, 0, 69, 57
2, 59292, Note_off_c, 0, 69, 63
2, 59292, Note_on_c, 0, 71, 59
2, 59322, Note_off_c, 0, 71, 74
2, 59322, Note_on_c, 0, 69, 60
2, 59352, Note_off_c, 0, 69, 74
2, 59352, Note_off_c, 0, 52, 64
2, 59352, Note_on_c, 0, 71, 62
2, 59352, Note_on_c, 0, 49, 64
2, 59382, Note_off_c, 0, 71, 73
2, 59382, Note_on_c, 0, 69, 63
2, 59412, Note_off_c, 0, 69, 73
2, 59412, Note_on_c, 0, 68, 64
2, 59442, Note_off_c, 0, 68, 64
2, 59442, Note_on_c, 0, 69, 64
2, 59472, Note_off_c, 0, 69, 64
2, 59472, Note_off_c, 0, 49, 64
2, 59472, Note_on_c, 0, 68, 64
2, 59472, Note_on_c, 0, 48, 64
2, 59532, Note_off_c, 0, 48, 64
2, 59532, Note_on_c, 0, 49, 64
2, 59592, Note_off_c, 0, 49, 64
2, 59592, Note_on_c, 0, 51, 64
2, 59712, Note_off_c, 0, 51, 64
2, 59712, Note_off_c, 0, 68, 64
2, 59712, Note_off_c, 0, 66, 64
2, 59712, Note_on_c, 0, 68, 64
2, 59712, Note_on_c, 0, 44, 64
2, 59832, Note_off_c, 0, 44, 64
2, 59832, Note_off_c, 0, 68, 64
2, 59832, Note_on_c, 0, 64, 64
2, 59832, Note_on_c, 0, 49, 64
2, 59952, Note_off_c, 0, 49, 64
2, 59952, Note_on_c, 0, 52, 64
2, 60072, Note_off_c, 0, 52, 64
2, 60072, Note_on_c, 0, 68, 64
2, 60072, Note_on_c, 0, 51, 64
2, 60192, Note_off_c, 0, 51, 64
2, 60192, Note_off_c, 0, 68, 64
2, 60192, Note_on_c, 0, 73, 64
2, 60192, Note_on_c, 0, 52, 64
2, 60312, Note_off_c, 0, 52, 64
2, 60312, Note_off_c, 0, 64, 64
2, 60312, Note_on_c, 0, 63, 64
2, 60312, Note_on_c, 0, 54, 64
2, 60432, Note_off_c, 0, 54, 64
2, 60432, Note_off_c, 0, 63, 64
2, 60432, Note_on_c, 0, 56, 64
2, 60432, Note_on_c, 0, 64, 64
2, 60552, Note_off_c, 0, 64, 64
2, 60552, Note_off_c, 0, 56, 64
2, 60552, Note_on_c, 0, 64, 64
2, 60552, Note_on_c, 0, 57, 64
2, 60582, Note_off_c, 0, 64, 64
2, 60582, Note_on_c, 0, 63, 64
2, 60672, Note_off_c, 0, 57, 64
2, 60672, Note_on_c, 0, 59, 64
2, 60792, Note_off_c, 0, 59, 64
2, 60792, Note_on_c, 0, 56, 64
2, 60912, Note_off_c, 0, 56, 64
2, 60912, Note_off_c, 0, 73, 64
2, 60912, Note_on_c, 0, 72, 64
2, 60912, Note_on_c, 0, 54, 64
2, 61032, Note_off_c, 0, 54, 64
2, 61032, Note_on_c, 0, 56, 64
2, 61152, Note_off_c, 0, 56, 64
2, 61152, Note_off_c, 0, 72, 64
2, 61152, Note_off_c, 0, 63, 64
2, 61152, Note_on_c, 0, 73, 64
2, 61152, Note_on_c, 0, 64, 64
2, 61152, Note_on_c, 0, 52, 64
2, 61272, Note_off_c, 0, 52, 64
2, 61272, Note_off_c, 0, 64, 64
2, 61272, Note_off_c, 0, 73, 64
2, 61272, Note_on_c, 0, 75, 64
2, 61272, Note_on_c, 0, 66, 64
2, 61272, Note_on_c, 0, 51, 64
2, 61332, Note_off_c, 0, 51, 64
2, 61332, Note_on_c, 0, 52, 64
2, 61392, Note_off_c, 0, 52, 64
2, 61392, Note_on_c, 0, 54, 64
2, 61512, Note_off_c, 0, 54, 64
2, 61512, Note_on_c, 0, 51, 64
2, 61632, Note_off_c, 0, 51, 64
2, 61632, Note_on_c, 0, 44, 64
2, 61752, Note_off_c, 0, 66, 64
2, 61752, Note_on_c, 0, 69, 64
2, 61872, Note_off_c, 0, 69, 64
2, 61872, Note_off_c, 0, 75, 64
2, 61872, Note_on_c, 0, 68, 64
2, 61872, Note_on_c, 0, 76, 64
2, 61982, Note_off_c, 0, 76, 64
2, 61982, Note_off_c, 0, 68, 64
2, 61995, Note_on_c, 0, 68, 64
2, 61995, Note_on_c, 0, 76, 64
2, 62025, Note_off_c, 0, 76, 64
2, 62025, Note_off_c, 0, 68, 64
2, 62025, Note_on_c, 0, 69, 64
2, 62025, Note_on_c, 0, 78, 64
2, 62235, Note_off_c, 0, 44, 64
2, 62235, Note_on_c, 0, 60, 64
2, 62355, Note_off_c, 0, 60, 64
2, 62355, Note_on_c, 0, 61, 64
2, 62595, Note_off_c, 0, 78, 64
2, 62595, Note_off_c, 0, 69, 64
2, 62595, Note_on_c, 0, 75, 64
2, 62595, Note_on_c, 0, 66, 64
2, 62715, Note_off_c, 0, 66, 64
2, 62715, Note_off_c, 0, 75, 64
2, 62715, Note_on_c, 0, 75, 64
2, 62715, Note_on_c, 0, 68, 64
2, 62745, Note_off_c, 0, 75, 64
2, 62745, Note_on_c, 0, 76, 64
2, 62835, Note_off_c, 0, 61, 64
2, 62835, Note_on_c, 0, 59, 64
2, 62955, Note_off_c, 0, 59, 64
2, 62955, Note_off_c, 0, 68, 64
2, 62955, Note_on_c, 0, 69, 64
2, 62955, Note_on_c, 0, 57, 64
2, 63075, Note_off_c, 0, 57, 64
2, 63075, Note_off_c, 0, 69, 64
2, 63075, Note_off_c, 0, 76, 64
2, 63075, Note_on_c, 0, 77, 64
2, 63075, Note_on_c, 0, 71, 64
2, 63075, Note_on_c, 0, 56, 64
2, 63195, Note_off_c, 0, 71, 64
2, 63195, Note_on_c, 0, 69, 64
2, 63315, Note_off_c, 0, 69, 64
2, 63315, Note_off_c, 0, 56, 64
2, 63315, Note_on_c, 0, 68, 64
2, 63315, Note_on_c, 0, 61, 64
2, 63435, Note_off_c, 0, 61, 64
2, 63435, Note_off_c, 0, 68, 64
2, 63435, Note_off_c, 0, 77, 64
2, 63435, Note_on_c, 0, 56, 72
2, 63435, Note_on_c, 0, 78, 64
2, 63435, Note_on_c, 0, 70, 64
2, 63465, Note_off_c, 0, 56, 40
2, 63465, Note_on_c, 0, 54, 50
2, 63495, Note_off_c, 0, 54, 53
2, 63495, Note_on_c, 0, 56, 52
2, 63525, Note_off_c, 0, 56, 46
2, 63525, Note_on_c, 0, 54, 53
2, 63555, Note_off_c, 0, 54, 63
2, 63555, Note_off_c, 0, 70, 64
2, 63555, Note_on_c, 0, 56, 55
2, 63555, Note_on_c, 0, 73, 64
2, 63585, Note_off_c, 0, 56, 45
2, 63585, Note_on_c, 0, 54, 57
2, 63615, Note_off_c, 0, 54, 57
2, 63615, Note_on_c, 0, 56, 59
2, 63645, Note_off_c, 0, 56, 39
2, 63645, Note_on_c, 0, 54, 60
2, 63675, Note_off_c, 0, 54, 48
2, 63675, Note_off_c, 0, 73, 64
2, 63675, Note_on_c, 0, 56, 62
2, 63675, Note_on_c, 0, 72, 64
2, 63705, Note_off_c, 0, 56, 40
2, 63705, Note_on_c, 0, 54, 63
2, 63735, Note_off_c, 0, 54, 48
2, 63735, Note_on_c, 0, 53, 64
2, 63765, Note_off_c, 0, 53, 64
2, 63765, Note_on_c, 0, 54, 64
2, 63795, Note_off_c, 0, 54, 64
2, 63795, Note_off_c, 0, 72, 64
2, 63795, Note_off_c, 0, 78, 64
2, 63795, Note_on_c, 0, 56, 72
2, 63795, Note_on_c, 0, 76, 64
2, 63795, Note_on_c, 0, 73, 64
2, 63825, Note_off_c, 0, 56, 35
2, 63825, Note_on_c, 0, 55, 50
2, 63855, Note_off_c, 0, 55, 42
2, 63855, Note_on_c, 0, 56, 52
2, 63885, Note_off_c, 0, 56, 46
2, 63885, Note_on_c, 0, 55, 53
2, 63915, Note_off_c, 0, 55, 55
2, 63915, Note_off_c, 0, 73, 64
2, 63915, Note_on_c, 0, 56, 55
2, 63915, Note_on_c, 0, 72, 64
2, 63945, Note_off_c, 0, 56, 50
2, 63945, Note_on_c, 0, 55, 57
2, 63975, Note_off_c, 0, 55, 46
2, 63975, Note_on_c, 0, 56, 58
2, 64005, Note_off_c, 0, 56, 46
2, 64005, Note_on_c, 0, 55, 60
2, 64035, Note_off_c, 0, 55, 42
2, 64035, Note_off_c, 0, 72, 64
2, 64035, Note_on_c, 0, 56, 62
2, 64035, Note_on_c, 0, 70, 64
2, 64065, Note_off_c, 0, 56, 39
2, 64065, Note_on_c, 0, 55, 63
2, 64095, Note_off_c, 0, 55, 42
2, 64095, Note_on_c, 0, 53, 64
2, 64125, Note_off_c, 0, 53, 64
2, 64125, Note_on_c, 0, 55, 64
2, 64155, Note_off_c, 0, 55, 64
2, 64155, Note_off_c, 0, 70, 64
2, 64155, Note_off_c, 0, 76, 64
2, 64155, Note_on_c, 0, 75, 64
2, 64155, Note_on_c, 0, 72, 64
2, 64155, Note_on_c, 0, 56, 64
2, 64275, Note_off_c, 0, 75, 64
2, 64275, Note_on_c, 0, 78, 64
2, 64395, Note_off_c, 0, 78, 64
2, 64395, Note_off_c, 0, 72, 64
2, 64395, Note_on_c, 0, 76, 64
2, 64395, Note_on_c, 0, 73, 64
2, 64515, Note_off_c, 0, 73, 64
2, 64515, Note_off_c, 0, 76, 64
2, 64515, Note_on_c, 0, 78, 64
2, 64515, Note_on_c, 0, 75, 64
2, 64575, Note_off_c, 0, 78, 64
2, 64575, Note_on_c, 0, 80, 64
2, 64635, Note_off_c, 0, 80, 64
2, 64635, Note_on_c, 0, 81, 64
2, 64755, Note_off_c, 0, 81, 64
2, 64755, Note_off_c, 0, 75, 64
2, 64755, Note_off_c, 0, 56, 64
2, 64755, Note_on_c, 0, 44, 64
2, 64755, Note_on_c, 0, 72, 64
2, 64755, Note_on_c, 0, 80, 64
2, 64875, Note_off_c, 0, 80, 64
2, 64875, Note_off_c, 0, 72, 64
2, 64875, Note_off_c, 0, 44, 64
2, 64875, Note_on_c, 0, 78, 64
2, 64875, Note_on_c, 0, 73, 64
2, 64875, Note_on_c, 0, 45, 64
2, 64905, Note_off_c, 0, 78, 64
2, 64905, Note_on_c, 0, 76, 64
2, 64995, Note_off_c, 0, 45, 64
2, 64995, Note_on_c, 0, 44, 64
2, 65115, Note_off_c, 0, 44, 64
2, 65115, Note_off_c, 0, 76, 64
2, 65115, Note_off_c, 0, 73, 64
2, 65115, Note_on_c, 0, 75, 64
2, 65115, Note_on_c, 0, 69, 64
2, 65115, Note_on_c, 0, 42, 64
2, 65235, Note_off_c, 0, 42, 64
2, 65235, Note_off_c, 0, 69, 64
2, 65235, Note_off_c, 0, 75, 64
2, 65235, Note_on_c, 0, 44, 64
2, 65235, Note_on_c, 0, 73, 64
2, 65235, Note_on_c, 0, 64, 64
2, 65595, Note_off_c, 0, 64, 64
2, 65595, Note_off_c, 0, 73, 64
2, 65595, Note_on_c, 0, 56, 64
2, 65595, Note_on_c, 0, 72, 64
2, 65595, Note_on_c, 0, 63, 64
2, 65835, Note_off_c, 0, 63, 64
2, 65835, Note_off_c, 0, 72, 64
2, 65835, Note_on_c, 0, 64, 64
2, 65835, Note_on_c, 0, 73, 64
2, 65955, Note_off_c, 0, 73, 64
2, 65955, Note_off_c, 0, 64, 64
2, 65955, Note_off_c, 0, 56, 64
2, 65955, Note_off_c, 0, 44, 64
2, 65955, Note_on_c, 0, 61, 64
2, 65955, Note_on_c, 0, 64, 64
2, 65955, Note_on_c, 0, 68, 64
2, 65955, Note_on_c, 0, 73, 64
2, 65955, Note_on_c, 0, 37, 64
2, 66315, Note_off_c, 0, 37, 64
2, 66315, Note_off_c, 0, 73, 64
2, 66315, Note_off_c, 0, 68, 64
2, 66315, Note_off_c, 0, 64, 64
2, 66315, Note_off_c, 0, 61, 64
2, 66315, End_track
0, 0, End_of_file
