0, 0, Header, 1, 6, 240
1, 0, Start_track
1, 0, Time_signature, 2, 1, 48, 8
1, 0, Tempo, 416667
1, 69600, Tempo, 425532
1, 69840, Tempo, 431655
1, 70080, Tempo, 441176
1, 70320, Tempo, 451128
1, 70560, Tempo, 472441
1, 70800, Tempo, 521739
1, 71040, Tempo, 560748
1, 71040, End_track
2, 0, Start_track
2, 0, Text_t, "1"
2, 0, Note_on_c, 0, 70, 64
2, 480, Note_off_c, 0, 70, 74
2, 480, Note_on_c, 0, 65, 64
2, 960, Note_off_c, 0, 65, 1
2, 1200, Note_on_c, 0, 78, 64
2, 1440, Note_off_c, 0, 78, 68
2, 1440, Note_on_c, 0, 77, 64
2, 1680, Note_off_c, 0, 77, 76
2, 1680, Note_on_c, 0, 75, 64
2, 1920, Note_off_c, 0, 75, 65
2, 1920, Note_on_c, 0, 73, 64
2, 2160, Note_off_c, 0, 73, 68
2, 2160, Note_on_c, 0, 72, 64
2, 2400, Note_off_c, 0, 72, 82
2, 2400, Note_on_c, 0, 73, 64
2, 2640, Note_off_c, 0, 73, 68
2, 2640, Note_on_c, 0, 75, 64
2, 2880, Note_off_c, 0, 75, 61
2, 2880, Note_on_c, 0, 77, 64
2, 3120, Note_off_c, 0, 77, 76
2, 3120, Note_on_c, 0, 76, 64
2, 3240, Note_off_c, 0, 76, 61
2, 3240, Note_on_c, 0, 77, 64
2, 3360, Note_off_c, 0, 77, 69
2, 3360, Note_on_c, 0, 79, 64
2, 4080, Note_off_c, 0, 79, 73
2, 4080, Note_on_c, 0, 80, 64
2, 4200, Note_off_c, 0, 80, 74
2, 4200, Note_on_c, 0, 79, 64
2, 4320, Note_off_c, 0, 79, 69
2, 4320, Note_on_c, 0, 77, 64
2, 5040, Note_off_c, 0, 77, 76
2, 5040, Note_on_c, 0, 75, 64
2, 5160, Note_off_c, 0, 75, 58
2, 5160, Note_on_c, 0, 73, 64
2, 5280, Note_off_c, 0, 73, 59
2, 5280, Note_on_c, 0, 75, 64
2, 5520, Note_off_c, 0, 75, 58
2, 5520, Note_on_c, 0, 77, 64
2, 5760, Note_off_c, 0, 77, 69
2, 5760, Note_on_c, 0, 78, 64
2, 6480, Note_off_c, 0, 78, 59
2, 6480, Note_on_c, 0, 77, 64
2, 6600, Note_off_c, 0, 77, 68
2, 6600, Note_on_c, 0, 75, 64
2, 6720, Note_off_c, 0, 75, 49
2, 6720, Note_on_c, 0, 77, 64
2, 6960, Note_off_c, 0, 77, 66
2, 6960, Note_on_c, 0, 79, 64
2, 7200, Note_off_c, 0, 79, 72
2, 7200, Note_on_c, 0, 80, 64
2, 7920, Note_off_c, 0, 80, 69
2, 7920, Note_on_c, 0, 79, 64
2, 8040, Note_off_c, 0, 79, 66
2, 8040, Note_on_c, 0, 77, 64
2, 8160, Note_off_c, 0, 77, 76
2, 8160, Note_on_c, 0, 79, 64
2, 8400, Note_off_c, 0, 79, 73
2, 8400, Note_on_c, 0, 81, 64
2, 8640, Note_off_c, 0, 81, 70
2, 8640, Note_on_c, 0, 82, 64
2, 9360, Note_off_c, 0, 82, 61
2, 9360, Note_on_c, 0, 81, 64
2, 9480, Note_off_c, 0, 81, 69
2, 9480, Note_on_c, 0, 79, 64
2, 9600, Note_off_c, 0, 79, 70
2, 9600, Note_on_c, 0, 81, 64
2, 9840, Note_off_c, 0, 81, 69
2, 9840, Note_on_c, 0, 82, 64
2, 10080, Note_off_c, 0, 82, 57
2, 10080, Note_on_c, 0, 84, 64
2, 10800, Note_off_c, 0, 84, 61
2, 10800, Note_on_c, 0, 82, 64
2, 10920, Note_off_c, 0, 82, 62
2, 10920, Note_on_c, 0, 81, 64
2, 11040, Note_off_c, 0, 81, 57
2, 11040, Note_on_c, 0, 82, 64
2, 11280, Note_off_c, 0, 82, 61
2, 11280, Note_on_c, 0, 80, 64
2, 11520, Note_off_c, 0, 80, 68
2, 11520, Note_on_c, 0, 78, 64
2, 11760, Note_off_c, 0, 78, 62
2, 11760, Note_on_c, 0, 77, 64
2, 12000, Note_off_c, 0, 77, 59
2, 12000, Note_on_c, 0, 75, 64
2, 12720, Note_off_c, 0, 75, 52
2, 12720, Note_on_c, 0, 77, 64
2, 12840, Note_off_c, 0, 77, 62
2, 12840, Note_on_c, 0, 78, 64
2, 12960, Note_off_c, 0, 78, 63
2, 12960, Note_on_c, 0, 77, 64
2, 13200, Note_off_c, 0, 77, 72
2, 13200, Note_on_c, 0, 75, 64
2, 13440, Note_off_c, 0, 75, 45
2, 13440, Note_on_c, 0, 73, 64
2, 14400, Note_off_c, 0, 73, 70
2, 14400, Note_on_c, 0, 72, 64
2, 15360, Note_off_c, 0, 72, 73
2, 15360, Note_on_c, 0, 70, 64
2, 17040, Note_off_c, 0, 70, 65
2, 17040, Note_on_c, 0, 75, 64
2, 17280, Note_off_c, 0, 75, 52
2, 17280, Note_on_c, 0, 68, 64
2, 18720, Note_off_c, 0, 68, 74
2, 18720, Note_on_c, 0, 73, 64
2, 19200, Note_off_c, 0, 73, 72
2, 19200, Note_on_c, 0, 72, 64
2, 19680, Note_off_c, 0, 72, 69
2, 19680, Note_on_c, 0, 77, 64
2, 20640, Note_off_c, 0, 77, 74
2, 20640, Note_on_c, 0, 75, 64
2, 20880, Note_off_c, 0, 75, 61
2, 20880, Note_on_c, 0, 73, 64
2, 21120, Note_off_c, 0, 73, 62
2, 21120, Note_on_c, 0, 72, 64
2, 21600, Note_off_c, 0, 72, 68
2, 21600, Note_on_c, 0, 73, 64
2, 22560, Note_off_c, 0, 73, 52
2, 22560, Note_on_c, 0, 72, 64
2, 23040, Note_off_c, 0, 72, 79
2, 23040, Note_on_c, 0, 73, 64
2, 23520, Note_off_c, 0, 73, 72
2, 23520, Note_on_c, 0, 68, 64
2, 24000, Note_off_c, 0, 68, 54
2, 24240, Note_on_c, 0, 83, 64
2, 24480, Note_off_c, 0, 83, 55
2, 24480, Note_on_c, 0, 82, 64
2, 24720, Note_off_c, 0, 82, 68
2, 24720, Note_on_c, 0, 80, 64
2, 24960, Note_off_c, 0, 80, 77
2, 24960, Note_on_c, 0, 78, 64
2, 25200, Note_off_c, 0, 78, 52
2, 25200, Note_on_c, 0, 77, 64
2, 25440, Note_off_c, 0, 77, 77
2, 25440, Note_on_c, 0, 78, 64
2, 25680, Note_off_c, 0, 78, 52
2, 25680, Note_on_c, 0, 80, 64
2, 25920, Note_off_c, 0, 80, 77
2, 25920, Note_on_c, 0, 82, 64
2, 26160, Note_off_c, 0, 82, 57
2, 26160, Note_on_c, 0, 81, 64
2, 26280, Note_off_c, 0, 81, 63
2, 26280, Note_on_c, 0, 82, 64
2, 26400, Note_off_c, 0, 82, 63
2, 26400, Note_on_c, 0, 84, 64
2, 27120, Note_off_c, 0, 84, 63
2, 27120, Note_on_c, 0, 82, 64
2, 27600, Note_off_c, 0, 82, 62
2, 27600, Note_on_c, 0, 81, 64
2, 27840, Note_off_c, 0, 81, 52
2, 27840, Note_on_c, 0, 82, 64
2, 29280, Note_off_c, 0, 82, 58
2, 29280, Note_on_c, 0, 80, 64
2, 29760, Note_off_c, 0, 80, 65
2, 29760, Note_on_c, 0, 78, 64
2, 30720, Note_off_c, 0, 78, 61
2, 30720, Note_on_c, 0, 77, 64
2, 31200, Note_off_c, 0, 77, 74
2, 31200, Note_on_c, 0, 76, 64
2, 31680, Note_off_c, 0, 76, 49
2, 31680, Note_on_c, 0, 75, 64
2, 33120, Note_off_c, 0, 75, 50
2, 33120, Note_on_c, 0, 80, 64
2, 34080, Note_off_c, 0, 80, 85
2, 34080, Note_on_c, 0, 79, 64
2, 34560, Note_off_c, 0, 79, 70
2, 34560, Note_on_c, 0, 80, 64
2, 35040, Note_off_c, 0, 80, 74
2, 47040, Note_on_c, 0, 77, 64
2, 47520, Note_off_c, 0, 77, 76
2, 47520, Note_on_c, 0, 70, 64
2, 48000, Note_off_c, 0, 70, 76
2, 48240, Note_on_c, 0, 83, 64
2, 48480, Note_off_c, 0, 83, 73
2, 48480, Note_on_c, 0, 82, 64
2, 48720, Note_off_c, 0, 82, 70
2, 48720, Note_on_c, 0, 80, 64
2, 48960, Note_off_c, 0, 80, 77
2, 48960, Note_on_c, 0, 78, 64
2, 49440, Note_off_c, 0, 78, 69
2, 49440, Note_on_c, 0, 77, 64
2, 49680, Note_off_c, 0, 77, 77
2, 49680, Note_on_c, 0, 75, 64
2, 49920, Note_off_c, 0, 75, 68
2, 49920, Note_on_c, 0, 74, 64
2, 50400, Note_off_c, 0, 74, 76
2, 50400, Note_on_c, 0, 75, 64
2, 51360, Note_off_c, 0, 75, 58
2, 51360, Note_on_c, 0, 74, 64
2, 51840, Note_off_c, 0, 74, 70
2, 51840, Note_on_c, 0, 75, 64
2, 52320, Note_off_c, 0, 75, 45
2, 53040, Note_on_c, 0, 77, 64
2, 53280, Note_off_c, 0, 77, 76
2, 53280, Note_on_c, 0, 75, 64
2, 53520, Note_off_c, 0, 75, 62
2, 53520, Note_on_c, 0, 73, 64
2, 53760, Note_off_c, 0, 73, 66
2, 53760, Note_on_c, 0, 72, 64
2, 54000, Note_off_c, 0, 72, 83
2, 54000, Note_on_c, 0, 70, 64
2, 54240, Note_off_c, 0, 70, 77
2, 54240, Note_on_c, 0, 72, 64
2, 54480, Note_off_c, 0, 72, 83
2, 54480, Note_on_c, 0, 73, 64
2, 54720, Note_off_c, 0, 73, 65
2, 54720, Note_on_c, 0, 75, 64
2, 54960, Note_off_c, 0, 75, 65
2, 54960, Note_on_c, 0, 78, 64
2, 55200, Note_off_c, 0, 78, 70
2, 55200, Note_on_c, 0, 77, 64
2, 55440, Note_off_c, 0, 77, 68
2, 55440, Note_on_c, 0, 75, 64
2, 55680, Note_off_c, 0, 75, 58
2, 55680, Note_on_c, 0, 74, 64
2, 55920, Note_off_c, 0, 74, 70
2, 55920, Note_on_c, 0, 77, 64
2, 56160, Note_off_c, 0, 77, 69
2, 56160, Note_on_c, 0, 75, 64
2, 56400, Note_off_c, 0, 75, 46
2, 56400, Note_on_c, 0, 73, 64
2, 56640, Note_off_c, 0, 73, 63
2, 56640, Note_on_c, 0, 72, 64
2, 57120, Note_off_c, 0, 72, 77
2, 57120, Note_on_c, 0, 73, 64
2, 57840, Note_off_c, 0, 73, 72
2, 57840, Note_on_c, 0, 72, 64
2, 58320, Note_off_c, 0, 72, 76
2, 58320, Note_on_c, 0, 70, 64
2, 58560, Note_off_c, 0, 70, 62
2, 58560, Note_on_c, 0, 69, 64
2, 58800, Note_off_c, 0, 69, 77
2, 58800, Note_on_c, 0, 78, 64
2, 59040, Note_off_c, 0, 78, 69
2, 59040, Note_on_c, 0, 77, 64
2, 59280, Note_off_c, 0, 77, 70
2, 59280, Note_on_c, 0, 75, 64
2, 59520, Note_off_c, 0, 75, 47
2, 59520, Note_on_c, 0, 73, 64
2, 60000, Note_off_c, 0, 73, 72
2, 60000, Note_on_c, 0, 72, 64
2, 60480, Note_off_c, 0, 72, 82
2, 60480, Note_on_c, 0, 70, 64
2, 61440, Note_off_c, 0, 70, 68
2, 61440, Note_on_c, 0, 68, 64
2, 62400, Note_off_c, 0, 68, 80
2, 62400, Note_on_c, 0, 66, 64
2, 63360, Note_off_c, 0, 66, 52
2, 63360, Note_on_c, 0, 65, 64
2, 63840, Note_on_c, 0, 70, 64
2, 64320, Note_off_c, 0, 70, 77
2, 64320, Note_off_c, 0, 65, 1
2, 64320, Note_on_c, 0, 65, 64
2, 64800, Note_off_c, 0, 65, 63
2, 65040, Note_on_c, 0, 78, 64
2, 65280, Note_off_c, 0, 78, 74
2, 65280, Note_on_c, 0, 77, 64
2, 65520, Note_off_c, 0, 77, 74
2, 65520, Note_on_c, 0, 75, 64
2, 65760, Note_off_c, 0, 75, 65
2, 65760, Note_on_c, 0, 73, 64
2, 66000, Note_off_c, 0, 73, 79
2, 66000, Note_on_c, 0, 72, 64
2, 66240, Note_off_c, 0, 72, 86
2, 66240, Note_on_c, 0, 73, 64
2, 66480, Note_off_c, 0, 73, 70
2, 66480, Note_on_c, 0, 75, 64
2, 66720, Note_off_c, 0, 75, 63
2, 66720, Note_on_c, 0, 77, 64
2, 66960, Note_off_c, 0, 77, 76
2, 66960, Note_on_c, 0, 75, 64
2, 67200, Note_off_c, 0, 75, 59
2, 67200, Note_on_c, 0, 73, 64
2, 67440, Note_off_c, 0, 73, 74
2, 67440, Note_on_c, 0, 72, 64
2, 67680, Note_off_c, 0, 72, 82
2, 67680, Note_on_c, 0, 70, 64
2, 68400, Note_off_c, 0, 70, 70
2, 68400, Note_on_c, 0, 72, 64
2, 68640, Note_off_c, 0, 72, 70
2, 68640, Note_on_c, 0, 73, 64
2, 69360, Note_off_c, 0, 73, 74
2, 69360, Note_on_c, 0, 73, 64
2, 69600, Note_off_c, 0, 73, 73
2, 69600, Note_on_c, 0, 72, 64
2, 69840, Note_off_c, 0, 72, 82
2, 69840, Note_on_c, 0, 70, 64
2, 70080, Note_off_c, 0, 70, 72
2, 70080, Note_on_c, 0, 70, 64
2, 70560, Note_off_c, 0, 70, 72
2, 70560, Note_on_c, 0, 69, 64
2, 71040, Note_off_c, 0, 69, 80
2, 71040, Note_on_c, 0, 70, 64
2, 72000, Note_off_c, 0, 70, 76
2, 72000, End_track
3, 0, Start_track
3, 0, Text_t, "2"
3, 1920, Note_on_c, 1, 65, 64
3, 2400, Note_off_c, 1, 65, 1
3, 2400, Note_on_c, 1, 58, 64
3, 2880, Note_off_c, 1, 58, 58
3, 3120, Note_on_c, 1, 73, 64
3, 3360, Note_off_c, 1, 73, 72
3, 3360, Note_on_c, 1, 72, 64
3, 3600, Note_off_c, 1, 72, 82
3, 3600, Note_on_c, 1, 70, 64
3, 3840, Note_off_c, 1, 70, 69
3, 3840, Note_on_c, 1, 68, 64
3, 4080, Note_off_c, 1, 68, 76
3, 4080, Note_on_c, 1, 67, 64
3, 4320, Note_off_c, 1, 67, 66
3, 4320, Note_on_c, 1, 68, 64
3, 4560, Note_off_c, 1, 68, 72
3, 4560, Note_on_c, 1, 70, 64
3, 4800, Note_off_c, 1, 70, 57
3, 4800, Note_on_c, 1, 72, 64
3, 5520, Note_off_c, 1, 72, 80
3, 5520, Note_on_c, 1, 70, 64
3, 5640, Note_off_c, 1, 70, 69
3, 5640, Note_on_c, 1, 69, 64
3, 5760, Note_off_c, 1, 69, 55
3, 5760, Note_on_c, 1, 70, 64
3, 6000, Note_off_c, 1, 70, 62
3, 6000, Note_on_c, 1, 72, 64
3, 6240, Note_off_c, 1, 72, 83
3, 6240, Note_on_c, 1, 73, 64
3, 6960, Note_off_c, 1, 73, 62
3, 6960, Note_on_c, 1, 72, 64
3, 7080, Note_off_c, 1, 72, 80
3, 7080, Note_on_c, 1, 70, 64
3, 7200, Note_off_c, 1, 70, 61
3, 7200, Note_on_c, 1, 72, 64
3, 7440, Note_off_c, 1, 72, 82
3, 7440, Note_on_c, 1, 74, 64
3, 7680, Note_off_c, 1, 74, 72
3, 7680, Note_on_c, 1, 75, 64
3, 8400, Note_off_c, 1, 75, 47
3, 8400, Note_on_c, 1, 73, 64
3, 8520, Note_off_c, 1, 73, 73
3, 8520, Note_on_c, 1, 72, 64
3, 8640, Note_off_c, 1, 72, 77
3, 8640, Note_on_c, 1, 73, 64
3, 8880, Note_off_c, 1, 73, 69
3, 8880, Note_on_c, 1, 75, 64
3, 9120, Note_off_c, 1, 75, 50
3, 9120, Note_on_c, 1, 77, 64
3, 9840, Note_off_c, 1, 77, 76
3, 9840, Note_on_c, 1, 75, 64
3, 9960, Note_off_c, 1, 75, 58
3, 9960, Note_on_c, 1, 73, 64
3, 10080, Note_off_c, 1, 73, 61
3, 10080, Note_on_c, 1, 75, 64
3, 10800, Note_off_c, 1, 75, 57
3, 10800, Note_on_c, 1, 77, 64
3, 10920, Note_off_c, 1, 77, 76
3, 10920, Note_on_c, 1, 75, 64
3, 11040, Note_off_c, 1, 75, 51
3, 11040, Note_on_c, 1, 73, 64
3, 11280, Note_off_c, 1, 73, 69
3, 11280, Note_on_c, 1, 72, 64
3, 11520, Note_off_c, 1, 72, 66
3, 11520, Note_on_c, 1, 70, 64
3, 12240, Note_off_c, 1, 70, 53
3, 12240, Note_on_c, 1, 69, 64
3, 12360, Note_off_c, 1, 69, 80
3, 12360, Note_on_c, 1, 70, 64
3, 12480, Note_off_c, 1, 70, 74
3, 12480, Note_on_c, 1, 72, 64
3, 12720, Note_off_c, 1, 72, 85
3, 12720, Note_on_c, 1, 69, 64
3, 12960, Note_off_c, 1, 69, 79
3, 12960, Note_on_c, 1, 70, 64
3, 13200, Note_off_c, 1, 70, 61
3, 13200, Note_on_c, 1, 72, 64
3, 13680, Note_off_c, 1, 72, 66
3, 13680, Note_on_c, 1, 70, 64
3, 13800, Note_off_c, 1, 70, 73
3, 13800, Note_on_c, 1, 69, 64
3, 13920, Note_off_c, 1, 69, 66
3, 13920, Note_on_c, 1, 70, 64
3, 14880, Note_off_c, 1, 70, 62
3, 14880, Note_on_c, 1, 68, 64
3, 16320, Note_off_c, 1, 68, 69
3, 16320, Note_on_c, 1, 66, 64
3, 18240, Note_off_c, 1, 66, 58
3, 18240, Note_on_c, 1, 65, 64
3, 18720, Note_off_c, 1, 65, 1
3, 18720, Note_on_c, 1, 70, 64
3, 19200, Note_off_c, 1, 70, 77
3, 19200, Note_on_c, 1, 68, 64
3, 19680, Note_off_c, 1, 68, 69
3, 19680, Note_on_c, 1, 73, 64
3, 20400, Note_off_c, 1, 73, 70
3, 20400, Note_on_c, 1, 71, 64
3, 20640, Note_off_c, 1, 71, 70
3, 20640, Note_on_c, 1, 70, 64
3, 21120, Note_off_c, 1, 70, 65
3, 21120, Note_on_c, 1, 68, 64
3, 22320, Note_off_c, 1, 68, 73
3, 22320, Note_on_c, 1, 70, 64
3, 22560, Note_off_c, 1, 70, 72
3, 22560, Note_on_c, 1, 68, 64
3, 22800, Note_off_c, 1, 68, 61
3, 22800, Note_on_c, 1, 66, 64
3, 23040, Note_off_c, 1, 66, 52
3, 23040, Note_on_c, 1, 65, 64
3, 23280, Note_off_c, 1, 65, 1
3, 23280, Note_on_c, 1, 63, 64
3, 23520, Note_off_c, 1, 63, 63
3, 23520, Note_on_c, 1, 65, 64
3, 23760, Note_off_c, 1, 65, 73
3, 23760, Note_on_c, 1, 66, 64
3, 24000, Note_off_c, 1, 66, 80
3, 24000, Note_on_c, 1, 68, 64
3, 24480, Note_off_c, 1, 68, 76
3, 24480, Note_on_c, 1, 65, 64
3, 24960, Note_off_c, 1, 65, 77
3, 24960, Note_on_c, 1, 70, 64
3, 25440, Note_off_c, 1, 70, 73
3, 25440, Note_on_c, 1, 63, 64
3, 25920, Note_off_c, 1, 63, 62
3, 26160, Note_on_c, 1, 78, 64
3, 26400, Note_off_c, 1, 78, 65
3, 26400, Note_on_c, 1, 77, 64
3, 26640, Note_off_c, 1, 77, 76
3, 26640, Note_on_c, 1, 75, 64
3, 26880, Note_off_c, 1, 75, 52
3, 26880, Note_on_c, 1, 73, 64
3, 27360, Note_off_c, 1, 73, 72
3, 27360, Note_on_c, 1, 72, 64
3, 27840, Note_off_c, 1, 72, 74
3, 27840, Note_on_c, 1, 74, 64
3, 28320, Note_off_c, 1, 74, 68
3, 28320, Note_on_c, 1, 75, 64
3, 28800, Note_off_c, 1, 75, 49
3, 28800, Note_on_c, 1, 77, 64
3, 30000, Note_off_c, 1, 77, 74
3, 30000, Note_on_c, 1, 75, 64
3, 30120, Note_off_c, 1, 75, 53
3, 30120, Note_on_c, 1, 74, 64
3, 30240, Note_off_c, 1, 74, 73
3, 30240, Note_on_c, 1, 75, 64
3, 31200, Note_off_c, 1, 75, 45
3, 31200, Note_on_c, 1, 73, 64
3, 31920, Note_off_c, 1, 73, 70
3, 31920, Note_on_c, 1, 75, 64
3, 32040, Note_off_c, 1, 75, 52
3, 32040, Note_on_c, 1, 76, 64
3, 32160, Note_off_c, 1, 76, 53
3, 32160, Note_on_c, 1, 75, 64
3, 32400, Note_off_c, 1, 75, 53
3, 32400, Note_on_c, 1, 73, 64
3, 32640, Note_off_c, 1, 73, 58
3, 32640, Note_on_c, 1, 71, 64
3, 33120, Note_off_c, 1, 71, 54
3, 33120, Note_on_c, 1, 76, 64
3, 33720, Note_off_c, 1, 76, 34
3, 33720, Note_on_c, 1, 75, 64
3, 33840, Note_off_c, 1, 75, 54
3, 33840, Note_on_c, 1, 73, 64
3, 34200, Note_off_c, 1, 73, 59
3, 34200, Note_on_c, 1, 76, 64
3, 34320, Note_off_c, 1, 76, 61
3, 34320, Note_on_c, 1, 75, 64
3, 34440, Note_off_c, 1, 75, 42
3, 34440, Note_on_c, 1, 73, 64
3, 34560, Note_off_c, 1, 73, 68
3, 34560, Note_on_c, 1, 72, 64
3, 35040, Note_off_c, 1, 72, 82
3, 35760, Note_on_c, 1, 77, 64
3, 36000, Note_off_c, 1, 77, 77
3, 36000, Note_on_c, 1, 75, 64
3, 36240, Note_off_c, 1, 75, 62
3, 36240, Note_on_c, 1, 73, 64
3, 36480, Note_off_c, 1, 73, 74
3, 36480, Note_on_c, 1, 72, 64
3, 36720, Note_off_c, 1, 72, 79
3, 36720, Note_on_c, 1, 68, 64
3, 36960, Note_off_c, 1, 68, 53
3, 36960, Note_on_c, 1, 70, 64
3, 37200, Note_off_c, 1, 70, 76
3, 37200, Note_on_c, 1, 72, 64
3, 37440, Note_off_c, 1, 72, 82
3, 37440, Note_on_c, 1, 73, 64
3, 38880, Note_off_c, 1, 73, 76
3, 38880, Note_on_c, 1, 72, 64
3, 39360, Note_off_c, 1, 72, 77
3, 39360, Note_on_c, 1, 73, 64
3, 39600, Note_off_c, 1, 73, 73
3, 39600, Note_on_c, 1, 71, 64
3, 39720, Note_off_c, 1, 71, 83
3, 39720, Note_on_c, 1, 70, 64
3, 39840, Note_off_c, 1, 70, 79
3, 39840, Note_on_c, 1, 72, 64
3, 40560, Note_off_c, 1, 72, 79
3, 40560, Note_on_c, 1, 70, 64
3, 40680, Note_off_c, 1, 70, 69
3, 40680, Note_on_c, 1, 68, 64
3, 40800, Note_off_c, 1, 68, 80
3, 40800, Note_on_c, 1, 70, 64
3, 41040, Note_off_c, 1, 70, 72
3, 41040, Note_on_c, 1, 72, 64
3, 41280, Note_off_c, 1, 72, 83
3, 41280, Note_on_c, 1, 73, 64
3, 42000, Note_off_c, 1, 73, 76
3, 42000, Note_on_c, 1, 72, 64
3, 42120, Note_off_c, 1, 72, 77
3, 42120, Note_on_c, 1, 70, 64
3, 42240, Note_off_c, 1, 70, 72
3, 42240, Note_on_c, 1, 72, 64
3, 42480, Note_off_c, 1, 72, 85
3, 42480, Note_on_c, 1, 74, 64
3, 42720, Note_off_c, 1, 74, 69
3, 42720, Note_on_c, 1, 75, 64
3, 43440, Note_off_c, 1, 75, 50
3, 43440, Note_on_c, 1, 73, 64
3, 43560, Note_off_c, 1, 73, 68
3, 43560, Note_on_c, 1, 72, 64
3, 43680, Note_off_c, 1, 72, 82
3, 43680, Note_on_c, 1, 73, 64
3, 43800, Note_off_c, 1, 73, 68
3, 43800, Note_on_c, 1, 75, 64
3, 43920, Note_off_c, 1, 75, 63
3, 43920, Note_on_c, 1, 73, 64
3, 44040, Note_off_c, 1, 73, 68
3, 44040, Note_on_c, 1, 75, 64
3, 44160, Note_off_c, 1, 75, 66
3, 44160, Note_on_c, 1, 77, 64
3, 44640, Note_off_c, 1, 77, 76
3, 44640, Note_on_c, 1, 75, 64
3, 45360, Note_off_c, 1, 75, 59
3, 45360, Note_on_c, 1, 75, 64
3, 45600, Note_off_c, 1, 75, 62
3, 45600, Note_on_c, 1, 73, 64
3, 45840, Note_off_c, 1, 73, 77
3, 45840, Note_on_c, 1, 72, 64
3, 46080, Note_off_c, 1, 72, 83
3, 46080, Note_on_c, 1, 70, 64
3, 46200, Note_off_c, 1, 70, 83
3, 46200, Note_on_c, 1, 72, 64
3, 46320, Note_off_c, 1, 72, 85
3, 46320, Note_on_c, 1, 73, 64
3, 46440, Note_off_c, 1, 73, 70
3, 46440, Note_on_c, 1, 70, 64
3, 46560, Note_off_c, 1, 70, 79
3, 46560, Note_on_c, 1, 68, 68
3, 46590, Note_off_c, 1, 68, 68
3, 46590, Note_on_c, 1, 66, 48
3, 46620, Note_off_c, 1, 66, 1
3, 46620, Note_on_c, 1, 68, 49
3, 46650, Note_off_c, 1, 68, 70
3, 46650, Note_on_c, 1, 66, 50
3, 46680, Note_off_c, 1, 66, 77
3, 46680, Note_on_c, 1, 68, 51
3, 46710, Note_off_c, 1, 68, 74
3, 46710, Note_on_c, 1, 66, 52
3, 46740, Note_off_c, 1, 66, 73
3, 46740, Note_on_c, 1, 68, 53
3, 46770, Note_off_c, 1, 68, 74
3, 46770, Note_on_c, 1, 66, 55
3, 46800, Note_off_c, 1, 66, 77
3, 46800, Note_on_c, 1, 68, 56
3, 46830, Note_off_c, 1, 68, 72
3, 46830, Note_on_c, 1, 66, 57
3, 46860, Note_off_c, 1, 66, 76
3, 46860, Note_on_c, 1, 68, 58
3, 46890, Note_off_c, 1, 68, 73
3, 46890, Note_on_c, 1, 66, 59
3, 46920, Note_off_c, 1, 66, 73
3, 46920, Note_on_c, 1, 68, 60
3, 46950, Note_off_c, 1, 68, 68
3, 46950, Note_on_c, 1, 66, 61
3, 46980, Note_off_c, 1, 66, 70
3, 46980, Note_on_c, 1, 68, 63
3, 47010, Note_off_c, 1, 68, 70
3, 47010, Note_on_c, 1, 66, 74
3, 47040, Note_off_c, 1, 66, 66
3, 47040, Note_on_c, 1, 65, 64
3, 47520, Note_off_c, 1, 65, 59
3, 48720, Note_on_c, 1, 77, 64
3, 48960, Note_off_c, 1, 77, 73
3, 48960, Note_on_c, 1, 75, 64
3, 49200, Note_off_c, 1, 75, 69
3, 49200, Note_on_c, 1, 73, 64
3, 49440, Note_off_c, 1, 73, 69
3, 49440, Note_on_c, 1, 71, 64
3, 49920, Note_off_c, 1, 71, 77
3, 49920, Note_on_c, 1, 70, 64
3, 51840, Note_off_c, 1, 70, 79
3, 51840, Note_on_c, 1, 70, 64
3, 52320, Note_off_c, 1, 70, 74
3, 52320, Note_on_c, 1, 63, 64
3, 52800, Note_off_c, 1, 63, 66
3, 53040, Note_on_c, 1, 73, 64
3, 53280, Note_off_c, 1, 73, 73
3, 53280, Note_on_c, 1, 72, 64
3, 53520, Note_off_c, 1, 72, 77
3, 53520, Note_on_c, 1, 70, 64
3, 53760, Note_off_c, 1, 70, 76
3, 53760, Note_on_c, 1, 69, 64
3, 54000, Note_off_c, 1, 69, 79
3, 54000, Note_on_c, 1, 67, 64
3, 54240, Note_off_c, 1, 67, 63
3, 54240, Note_on_c, 1, 69, 64
3, 54480, Note_off_c, 1, 69, 77
3, 54480, Note_on_c, 1, 70, 64
3, 54720, Note_off_c, 1, 70, 73
3, 54720, Note_on_c, 1, 72, 64
3, 54960, Note_off_c, 1, 72, 83
3, 54960, Note_on_c, 1, 75, 64
3, 55200, Note_off_c, 1, 75, 62
3, 55200, Note_on_c, 1, 73, 64
3, 55440, Note_off_c, 1, 73, 73
3, 55440, Note_on_c, 1, 71, 64
3, 55680, Note_off_c, 1, 71, 79
3, 55680, Note_on_c, 1, 70, 64
3, 55920, Note_off_c, 1, 70, 72
3, 55920, Note_on_c, 1, 74, 64
3, 56160, Note_off_c, 1, 74, 73
3, 56160, Note_on_c, 1, 72, 64
3, 56400, Note_off_c, 1, 72, 77
3, 56400, Note_on_c, 1, 70, 64
3, 56640, Note_off_c, 1, 70, 73
3, 56640, Note_on_c, 1, 69, 64
3, 57120, Note_off_c, 1, 69, 76
3, 57120, Note_on_c, 1, 70, 64
3, 57600, Note_off_c, 1, 70, 74
3, 57600, Note_on_c, 1, 63, 64
3, 58080, Note_off_c, 1, 63, 63
3, 58080, Note_on_c, 1, 64, 64
3, 58560, Note_off_c, 1, 64, 55
3, 58560, Note_on_c, 1, 65, 64
3, 58800, Note_off_c, 1, 65, 63
3, 58800, Note_on_c, 1, 69, 64
3, 59040, Note_off_c, 1, 69, 72
3, 59040, Note_on_c, 1, 70, 64
3, 59280, Note_off_c, 1, 70, 73
3, 59280, Note_on_c, 1, 72, 64
3, 59760, Note_off_c, 1, 72, 79
3, 59760, Note_on_c, 1, 70, 64
3, 60240, Note_off_c, 1, 70, 74
3, 60240, Note_on_c, 1, 69, 64
3, 60480, Note_off_c, 1, 69, 72
3, 60720, Note_on_c, 1, 68, 64
3, 60960, Note_off_c, 1, 68, 79
3, 60960, Note_on_c, 1, 66, 64
3, 61200, Note_off_c, 1, 66, 66
3, 61200, Note_on_c, 1, 65, 64
3, 61440, Note_off_c, 1, 65, 62
3, 61440, Note_on_c, 1, 63, 64
3, 61680, Note_off_c, 1, 63, 54
3, 61680, Note_on_c, 1, 62, 64
3, 61800, Note_off_c, 1, 62, 61
3, 61800, Note_on_c, 1, 63, 64
3, 61920, Note_off_c, 1, 63, 62
3, 61920, Note_on_c, 1, 65, 64
3, 62640, Note_off_c, 1, 65, 63
3, 62640, Note_on_c, 1, 65, 64
3, 62880, Note_off_c, 1, 65, 69
3, 62880, Note_on_c, 1, 63, 64
3, 63120, Note_off_c, 1, 63, 54
3, 63120, Note_on_c, 1, 61, 64
3, 63360, Note_off_c, 1, 61, 66
3, 63360, Note_on_c, 1, 60, 64
3, 63600, Note_off_c, 1, 60, 46
3, 63600, Note_on_c, 1, 63, 64
3, 64080, Note_off_c, 1, 63, 47
3, 64080, Note_on_c, 1, 61, 64
3, 64320, Note_off_c, 1, 61, 68
3, 64320, Note_on_c, 1, 60, 64
3, 64800, Note_off_c, 1, 60, 40
3, 64800, Note_on_c, 1, 58, 64
3, 65280, Note_off_c, 1, 58, 77
3, 65520, Note_on_c, 1, 72, 64
3, 65760, Note_off_c, 1, 72, 70
3, 65760, Note_on_c, 1, 70, 64
3, 66000, Note_off_c, 1, 70, 79
3, 66000, Note_on_c, 1, 69, 64
3, 66240, Note_off_c, 1, 69, 82
3, 66240, Note_on_c, 1, 70, 64
3, 66480, Note_off_c, 1, 70, 82
3, 66480, Note_on_c, 1, 69, 64
3, 66720, Note_off_c, 1, 69, 82
3, 66720, Note_on_c, 1, 70, 64
3, 66960, Note_off_c, 1, 70, 79
3, 66960, Note_on_c, 1, 72, 64
3, 67200, Note_off_c, 1, 72, 80
3, 67200, Note_on_c, 1, 70, 64
3, 67440, Note_off_c, 1, 70, 80
3, 67440, Note_on_c, 1, 69, 64
3, 67680, Note_off_c, 1, 69, 76
3, 67920, Note_on_c, 1, 66, 64
3, 68160, Note_off_c, 1, 66, 80
3, 68160, Note_on_c, 1, 68, 64
3, 68400, Note_off_c, 1, 68, 77
3, 68400, Note_on_c, 1, 66, 64
3, 68640, Note_off_c, 1, 66, 79
3, 68640, Note_on_c, 1, 65, 64
3, 69120, Note_off_c, 1, 65, 62
3, 69120, Note_on_c, 1, 66, 64
3, 70080, Note_off_c, 1, 66, 70
3, 70080, Note_on_c, 1, 65, 64
3, 70320, Note_off_c, 1, 65, 61
3, 70320, Note_on_c, 1, 66, 64
3, 70560, Note_off_c, 1, 66, 74
3, 70560, Note_on_c, 1, 65, 64
3, 70800, Note_off_c, 1, 65, 77
3, 70800, Note_on_c, 1, 63, 64
3, 71040, Note_off_c, 1, 63, 63
3, 71040, Note_on_c, 1, 62, 64
3, 72000, Note_off_c, 1, 62, 70
3, 72000, End_track
4, 0, Start_track
4, 0, Text_t, "3"
4, 8640, Note_on_c, 2, 58, 64
4, 9120, Note_off_c, 2, 58, 62
4, 9120, Note_on_c, 2, 53, 64
4, 9600, Note_off_c, 2, 53, 36
4, 9840, Note_on_c, 2, 66, 64
4, 10080, Note_off_c, 2, 66, 62
4, 10080, Note_on_c, 2, 65, 64
4, 10320, Note_off_c, 2, 65, 72
4, 10320, Note_on_c, 2, 63, 64
4, 10560, Note_off_c, 2, 63, 66
4, 10560, Note_on_c, 2, 61, 64
4, 10800, Note_off_c, 2, 61, 68
4, 10800, Note_on_c, 2, 60, 64
4, 11040, Note_off_c, 2, 60, 74
4, 11040, Note_on_c, 2, 58, 64
4, 11280, Note_off_c, 2, 58, 65
4, 11280, Note_on_c, 2, 60, 64
4, 11400, Note_off_c, 2, 60, 72
4, 11400, Note_on_c, 2, 61, 64
4, 11520, Note_off_c, 2, 61, 68
4, 11520, Note_on_c, 2, 63, 64
4, 11760, Note_off_c, 2, 63, 58
4, 11760, Note_on_c, 2, 65, 64
4, 12000, Note_off_c, 2, 65, 73
4, 12000, Note_on_c, 2, 66, 64
4, 12480, Note_off_c, 2, 66, 74
4, 12480, Note_on_c, 2, 65, 64
4, 12720, Note_off_c, 2, 65, 66
4, 12720, Note_on_c, 2, 63, 64
4, 12960, Note_off_c, 2, 63, 58
4, 12960, Note_on_c, 2, 61, 64
4, 13200, Note_off_c, 2, 61, 70
4, 13200, Note_on_c, 2, 60, 64
4, 13440, Note_off_c, 2, 60, 73
4, 13440, Note_on_c, 2, 61, 64
4, 13680, Note_off_c, 2, 61, 73
4, 13680, Note_on_c, 2, 63, 64
4, 13920, Note_off_c, 2, 63, 62
4, 13920, Note_on_c, 2, 65, 64
4, 14160, Note_off_c, 2, 65, 68
4, 14160, Note_on_c, 2, 66, 64
4, 14400, Note_off_c, 2, 66, 68
4, 14400, Note_on_c, 2, 60, 64
4, 14880, Note_off_c, 2, 60, 57
4, 14880, Note_on_c, 2, 65, 64
4, 15600, Note_off_c, 2, 65, 70
4, 15600, Note_on_c, 2, 62, 64
4, 15840, Note_off_c, 2, 62, 58
4, 15840, Note_on_c, 2, 63, 64
4, 16080, Note_off_c, 2, 63, 46
4, 16080, Note_on_c, 2, 65, 64
4, 16560, Note_off_c, 2, 65, 54
4, 16560, Note_on_c, 2, 63, 64
4, 16680, Note_off_c, 2, 63, 52
4, 16680, Note_on_c, 2, 62, 64
4, 16800, Note_off_c, 2, 62, 58
4, 16800, Note_on_c, 2, 63, 64
4, 18240, Note_off_c, 2, 63, 59
4, 18240, Note_on_c, 2, 61, 64
4, 18720, Note_off_c, 2, 61, 69
4, 18720, Note_on_c, 2, 65, 64
4, 20160, Note_off_c, 2, 65, 62
4, 20160, Note_on_c, 2, 70, 64
4, 20400, Note_off_c, 2, 70, 74
4, 20400, Note_on_c, 2, 68, 64
4, 20640, Note_off_c, 2, 68, 79
4, 20640, Note_on_c, 2, 66, 64
4, 20880, Note_off_c, 2, 66, 4
4, 20880, Note_on_c, 2, 65, 64
4, 21120, Note_off_c, 2, 65, 66
4, 21120, Note_on_c, 2, 63, 64
4, 21600, Note_off_c, 2, 63, 62
4, 21600, Note_on_c, 2, 65, 64
4, 22080, Note_off_c, 2, 65, 72
4, 22080, Note_on_c, 2, 63, 64
4, 23040, Note_off_c, 2, 63, 63
4, 23040, Note_on_c, 2, 61, 64
4, 23280, Note_off_c, 2, 61, 69
4, 23280, Note_on_c, 2, 60, 64
4, 23520, Note_off_c, 2, 60, 30
4, 23520, Note_on_c, 2, 61, 64
4, 23760, Note_off_c, 2, 61, 62
4, 23760, Note_on_c, 2, 63, 64
4, 24000, Note_off_c, 2, 63, 49
4, 24000, Note_on_c, 2, 65, 64
4, 24480, Note_off_c, 2, 65, 1
4, 24480, Note_on_c, 2, 62, 64
4, 24960, Note_off_c, 2, 62, 54
4, 24960, Note_on_c, 2, 63, 64
4, 25680, Note_off_c, 2, 63, 62
4, 25680, Note_on_c, 2, 65, 64
4, 25920, Note_off_c, 2, 65, 63
4, 25920, Note_on_c, 2, 66, 64
4, 26160, Note_off_c, 2, 66, 57
4, 26160, Note_on_c, 2, 63, 64
4, 26400, Note_off_c, 2, 63, 66
4, 26400, Note_on_c, 2, 69, 64
4, 26640, Note_off_c, 2, 69, 80
4, 26640, Note_on_c, 2, 67, 64
4, 26760, Note_off_c, 2, 67, 62
4, 26760, Note_on_c, 2, 65, 64
4, 26880, Note_off_c, 2, 65, 63
4, 26880, Note_on_c, 2, 70, 64
4, 27120, Note_off_c, 2, 70, 77
4, 27120, Note_on_c, 2, 77, 64
4, 27360, Note_off_c, 2, 77, 58
4, 27360, Note_on_c, 2, 75, 64
4, 27840, Note_off_c, 2, 75, 63
4, 27840, Note_on_c, 2, 70, 64
4, 32640, Note_off_c, 2, 70, 82
4, 32640, Note_on_c, 2, 68, 64
4, 32880, Note_off_c, 2, 68, 85
4, 32880, Note_on_c, 2, 70, 64
4, 33120, Note_off_c, 2, 70, 69
4, 33120, Note_on_c, 2, 71, 64
4, 33600, Note_off_c, 2, 71, 83
4, 33600, Note_on_c, 2, 70, 64
4, 34560, Note_off_c, 2, 70, 77
4, 34560, Note_on_c, 2, 68, 64
4, 35040, Note_off_c, 2, 68, 80
4, 35040, Note_on_c, 2, 61, 64
4, 35520, Note_off_c, 2, 61, 77
4, 48480, Note_on_c, 2, 62, 64
4, 48960, Note_off_c, 2, 62, 47
4, 48960, Note_on_c, 2, 63, 64
4, 49200, Note_off_c, 2, 63, 52
4, 49200, Note_on_c, 2, 70, 64
4, 49440, Note_off_c, 2, 70, 80
4, 49440, Note_on_c, 2, 68, 64
4, 49680, Note_off_c, 2, 68, 80
4, 49680, Note_on_c, 2, 66, 64
4, 49920, Note_off_c, 2, 66, 68
4, 49920, Note_on_c, 2, 65, 64
4, 50400, Note_off_c, 2, 65, 73
4, 50400, Note_on_c, 2, 66, 64
4, 50880, Note_off_c, 2, 66, 77
4, 50880, Note_on_c, 2, 65, 64
4, 51840, Note_off_c, 2, 65, 62
4, 51840, Note_on_c, 2, 63, 64
4, 52320, Note_off_c, 2, 63, 59
4, 52320, Note_on_c, 2, 58, 64
4, 52800, Note_off_c, 2, 58, 70
4, 66000, Note_on_c, 2, 66, 64
4, 66240, Note_off_c, 2, 66, 70
4, 66240, Note_on_c, 2, 65, 64
4, 66480, Note_off_c, 2, 65, 69
4, 66480, Note_on_c, 2, 63, 64
4, 66720, Note_off_c, 2, 63, 52
4, 66720, Note_on_c, 2, 61, 64
4, 66960, Note_off_c, 2, 61, 72
4, 66960, Note_on_c, 2, 60, 64
4, 67200, Note_off_c, 2, 60, 62
4, 67200, Note_on_c, 2, 61, 64
4, 67320, Note_off_c, 2, 61, 76
4, 67320, Note_on_c, 2, 63, 64
4, 67440, Note_off_c, 2, 63, 54
4, 67440, Note_on_c, 2, 65, 64
4, 67920, Note_off_c, 2, 65, 54
4, 67920, Note_on_c, 2, 63, 64
4, 68160, Note_off_c, 2, 63, 57
4, 68160, Note_on_c, 2, 65, 64
4, 68400, Note_off_c, 2, 65, 65
4, 68400, Note_on_c, 2, 63, 64
4, 68640, Note_off_c, 2, 63, 48
4, 68640, Note_on_c, 2, 61, 64
4, 69120, Note_off_c, 2, 61, 59
4, 69600, Note_on_c, 2, 60, 64
4, 71040, Note_off_c, 2, 60, 41
4, 71040, Note_on_c, 2, 58, 64
4, 72000, Note_off_c, 2, 58, 69
4, 72000, End_track
5, 0, Start_track
5, 0, Text_t, "4"
5, 10560, Note_on_c, 3, 53, 64
5, 11040, Note_off_c, 3, 53, 72
5, 11040, Note_on_c, 3, 46, 64
5, 11520, Note_off_c, 3, 46, 69
5, 11760, Note_on_c, 3, 61, 64
5, 12000, Note_off_c, 3, 61, 74
5, 12000, Note_on_c, 3, 60, 64
5, 12240, Note_off_c, 3, 60, 74
5, 12240, Note_on_c, 3, 58, 64
5, 12480, Note_off_c, 3, 58, 68
5, 12480, Note_on_c, 3, 57, 64
5, 12720, Note_off_c, 3, 57, 59
5, 12720, Note_on_c, 3, 53, 64
5, 12960, Note_off_c, 3, 53, 37
5, 12960, Note_on_c, 3, 55, 64
5, 13200, Note_off_c, 3, 55, 49
5, 13200, Note_on_c, 3, 57, 64
5, 13440, Note_off_c, 3, 57, 49
5, 13440, Note_on_c, 3, 58, 64
5, 13680, Note_off_c, 3, 58, 70
5, 13680, Note_on_c, 3, 48, 64
5, 13920, Note_off_c, 3, 48, 30
5, 13920, Note_on_c, 3, 49, 64
5, 14160, Note_off_c, 3, 49, 69
5, 14160, Note_on_c, 3, 51, 64
5, 14400, Note_off_c, 3, 51, 70
5, 14400, Note_on_c, 3, 53, 64
5, 14640, Note_off_c, 3, 53, 57
5, 14880, Note_on_c, 3, 56, 64
5, 15360, Note_off_c, 3, 56, 63
5, 15360, Note_on_c, 3, 58, 64
5, 17280, Note_off_c, 3, 58, 70
5, 17280, Note_on_c, 3, 60, 64
5, 17520, Note_off_c, 3, 60, 63
5, 17520, Note_on_c, 3, 48, 64
5, 17760, Note_off_c, 3, 48, 18
5, 17760, Note_on_c, 3, 49, 64
5, 18000, Note_off_c, 3, 49, 61
5, 18000, Note_on_c, 3, 51, 64
5, 18240, Note_off_c, 3, 51, 73
5, 18240, Note_on_c, 3, 53, 64
5, 18480, Note_off_c, 3, 53, 46
5, 18480, Note_on_c, 3, 51, 64
5, 18720, Note_off_c, 3, 51, 57
5, 18720, Note_on_c, 3, 53, 64
5, 18960, Note_off_c, 3, 53, 37
5, 18960, Note_on_c, 3, 54, 64
5, 19200, Note_off_c, 3, 54, 49
5, 19200, Note_on_c, 3, 56, 64
5, 19440, Note_off_c, 3, 56, 58
5, 19440, Note_on_c, 3, 58, 64
5, 19560, Note_off_c, 3, 58, 53
5, 19560, Note_on_c, 3, 60, 64
5, 19680, Note_off_c, 3, 60, 63
5, 19680, Note_on_c, 3, 58, 64
5, 19920, Note_off_c, 3, 58, 63
5, 19920, Note_on_c, 3, 56, 64
5, 20160, Note_off_c, 3, 56, 51
5, 20160, Note_on_c, 3, 54, 64
5, 20400, Note_off_c, 3, 54, 63
5, 20400, Note_on_c, 3, 56, 64
5, 20640, Note_off_c, 3, 56, 59
5, 20640, Note_on_c, 3, 58, 64
5, 20880, Note_off_c, 3, 58, 76
5, 20880, Note_on_c, 3, 60, 64
5, 21000, Note_off_c, 3, 60, 59
5, 21000, Note_on_c, 3, 61, 64
5, 21120, Note_off_c, 3, 61, 63
5, 21120, Note_on_c, 3, 56, 64
5, 23520, Note_off_c, 3, 56, 61
5, 26880, Note_on_c, 3, 58, 64
5, 27360, Note_off_c, 3, 58, 69
5, 27360, Note_on_c, 3, 53, 64
5, 27840, Note_off_c, 3, 53, 43
5, 28080, Note_on_c, 3, 66, 64
5, 28320, Note_off_c, 3, 66, 69
5, 28320, Note_on_c, 3, 65, 64
5, 28560, Note_off_c, 3, 65, 1
5, 28560, Note_on_c, 3, 63, 64
5, 28800, Note_off_c, 3, 63, 54
5, 28800, Note_on_c, 3, 62, 64
5, 29040, Note_off_c, 3, 62, 52
5, 29040, Note_on_c, 3, 58, 64
5, 29280, Note_off_c, 3, 58, 68
5, 29280, Note_on_c, 3, 60, 64
5, 29520, Note_off_c, 3, 60, 65
5, 29520, Note_on_c, 3, 62, 64
5, 29760, Note_off_c, 3, 62, 58
5, 29760, Note_on_c, 3, 63, 64
5, 30000, Note_off_c, 3, 63, 66
5, 30000, Note_on_c, 3, 53, 64
5, 30240, Note_off_c, 3, 53, 50
5, 30240, Note_on_c, 3, 54, 64
5, 30480, Note_off_c, 3, 54, 72
5, 30480, Note_on_c, 3, 56, 64
5, 30720, Note_off_c, 3, 56, 68
5, 30720, Note_on_c, 3, 58, 64
5, 30960, Note_off_c, 3, 58, 68
5, 31200, Note_on_c, 3, 61, 64
5, 31680, Note_off_c, 3, 61, 70
5, 31680, Note_on_c, 3, 63, 64
5, 31920, Note_off_c, 3, 63, 46
5, 31920, Note_on_c, 3, 55, 64
5, 32160, Note_off_c, 3, 55, 36
5, 32160, Note_on_c, 3, 56, 64
5, 32400, Note_off_c, 3, 56, 63
5, 32400, Note_on_c, 3, 58, 64
5, 32640, Note_off_c, 3, 58, 62
5, 32640, Note_on_c, 3, 59, 64
5, 32880, Note_off_c, 3, 59, 65
5, 32880, Note_on_c, 3, 58, 64
5, 33120, Note_off_c, 3, 58, 70
5, 33120, Note_on_c, 3, 56, 64
5, 33360, Note_off_c, 3, 56, 46
5, 33360, Note_on_c, 3, 54, 64
5, 33600, Note_off_c, 3, 54, 68
5, 33600, Note_on_c, 3, 52, 64
5, 34080, Note_off_c, 3, 52, 42
5, 34080, Note_on_c, 3, 51, 64
5, 34800, Note_off_c, 3, 51, 72
5, 34800, Note_on_c, 3, 56, 64
5, 35040, Note_off_c, 3, 56, 63
5, 35040, Note_on_c, 3, 54, 64
5, 35280, Note_off_c, 3, 54, 52
5, 35280, Note_on_c, 3, 53, 64
5, 35520, Note_off_c, 3, 53, 63
5, 35520, Note_on_c, 3, 51, 64
5, 35760, Note_off_c, 3, 51, 61
5, 35760, Note_on_c, 3, 49, 64
5, 36000, Note_off_c, 3, 49, 66
5, 36000, Note_on_c, 3, 58, 64
5, 36480, Note_off_c, 3, 58, 66
5, 36480, Note_on_c, 3, 56, 64
5, 36720, Note_off_c, 3, 56, 65
5, 36720, Note_on_c, 3, 66, 64
5, 36960, Note_off_c, 3, 66, 51
5, 36960, Note_on_c, 3, 65, 64
5, 37200, Note_off_c, 3, 65, 1
5, 37200, Note_on_c, 3, 63, 64
5, 37440, Note_off_c, 3, 63, 48
5, 37440, Note_on_c, 3, 61, 64
5, 37680, Note_off_c, 3, 61, 55
5, 37680, Note_on_c, 3, 66, 64
5, 38160, Note_off_c, 3, 66, 63
5, 38160, Note_on_c, 3, 65, 64
5, 38400, Note_off_c, 3, 65, 54
5, 38400, Note_on_c, 3, 63, 64
5, 39360, Note_off_c, 3, 63, 61
5, 39360, Note_on_c, 3, 56, 64
5, 39840, Note_off_c, 3, 56, 57
5, 39840, Note_on_c, 3, 68, 64
5, 40080, Note_off_c, 3, 68, 70
5, 40080, Note_on_c, 3, 66, 64
5, 40200, Note_off_c, 3, 66, 80
5, 40200, Note_on_c, 3, 65, 64
5, 40320, Note_off_c, 3, 65, 57
5, 40320, Note_on_c, 3, 66, 64
5, 40560, Note_off_c, 3, 66, 73
5, 40560, Note_on_c, 3, 61, 64
5, 41040, Note_off_c, 3, 61, 63
5, 41040, Note_on_c, 3, 63, 64
5, 41280, Note_off_c, 3, 63, 59
5, 41280, Note_on_c, 3, 56, 64
5, 41520, Note_off_c, 3, 56, 68
5, 41520, Note_on_c, 3, 68, 64
5, 41640, Note_off_c, 3, 68, 76
5, 41640, Note_on_c, 3, 66, 64
5, 41760, Note_off_c, 3, 66, 73
5, 41760, Note_on_c, 3, 68, 64
5, 42000, Note_off_c, 3, 68, 65
5, 42000, Note_on_c, 3, 63, 64
5, 42480, Note_off_c, 3, 63, 52
5, 42480, Note_on_c, 3, 65, 64
5, 42720, Note_off_c, 3, 65, 36
5, 42720, Note_on_c, 3, 58, 64
5, 43440, Note_off_c, 3, 58, 68
5, 43440, Note_on_c, 3, 65, 64
5, 43920, Note_off_c, 3, 65, 59
5, 43920, Note_on_c, 3, 58, 64
5, 44160, Note_off_c, 3, 58, 69
5, 44400, Note_on_c, 3, 73, 64
5, 44640, Note_off_c, 3, 73, 80
5, 44640, Note_on_c, 3, 72, 64
5, 44880, Note_off_c, 3, 72, 85
5, 44880, Note_on_c, 3, 70, 64
5, 45120, Note_off_c, 3, 70, 76
5, 45120, Note_on_c, 3, 69, 64
5, 45240, Note_off_c, 3, 69, 73
5, 45240, Note_on_c, 3, 70, 64
5, 45360, Note_off_c, 3, 70, 76
5, 45360, Note_on_c, 3, 72, 64
5, 45480, Note_off_c, 3, 72, 66
5, 45480, Note_on_c, 3, 69, 64
5, 45600, Note_off_c, 3, 69, 69
5, 45600, Note_on_c, 3, 65, 64
5, 45840, Note_off_c, 3, 65, 47
5, 45840, Note_on_c, 3, 68, 64
5, 46080, Note_off_c, 3, 68, 68
5, 46080, Note_on_c, 3, 66, 64
5, 46320, Note_off_c, 3, 66, 70
5, 46320, Note_on_c, 3, 65, 64
5, 46560, Note_off_c, 3, 65, 68
5, 46560, Note_on_c, 3, 63, 64
5, 47280, Note_off_c, 3, 63, 51
5, 47280, Note_on_c, 3, 62, 64
5, 47400, Note_off_c, 3, 62, 54
5, 47400, Note_on_c, 3, 60, 64
5, 47520, Note_off_c, 3, 60, 59
5, 47520, Note_on_c, 3, 62, 64
5, 48000, Note_off_c, 3, 62, 54
5, 48000, Note_on_c, 3, 63, 64
5, 48480, Note_off_c, 3, 63, 65
5, 49920, Note_on_c, 3, 53, 64
5, 50400, Note_off_c, 3, 53, 62
5, 50400, Note_on_c, 3, 46, 64
5, 50880, Note_off_c, 3, 46, 45
5, 51120, Note_on_c, 3, 59, 64
5, 51360, Note_off_c, 3, 59, 59
5, 51360, Note_on_c, 3, 58, 64
5, 51600, Note_off_c, 3, 58, 54
5, 51600, Note_on_c, 3, 56, 64
5, 51840, Note_off_c, 3, 56, 68
5, 51840, Note_on_c, 3, 54, 64
5, 52080, Note_off_c, 3, 54, 61
5, 52080, Note_on_c, 3, 53, 64
5, 52320, Note_off_c, 3, 53, 57
5, 52320, Note_on_c, 3, 54, 64
5, 52560, Note_off_c, 3, 54, 61
5, 52560, Note_on_c, 3, 56, 64
5, 52800, Note_off_c, 3, 56, 68
5, 52800, Note_on_c, 3, 58, 64
5, 53040, Note_off_c, 3, 58, 76
5, 53040, Note_on_c, 3, 60, 64
5, 53160, Note_off_c, 3, 60, 65
5, 53160, Note_on_c, 3, 61, 64
5, 53280, Note_off_c, 3, 61, 66
5, 53280, Note_on_c, 3, 63, 64
5, 54000, Note_off_c, 3, 63, 52
5, 54000, Note_on_c, 3, 61, 64
5, 54240, Note_off_c, 3, 61, 72
5, 54240, Note_on_c, 3, 60, 64
5, 54480, Note_off_c, 3, 60, 70
5, 54480, Note_on_c, 3, 58, 64
5, 54720, Note_off_c, 3, 58, 70
5, 54720, Note_on_c, 3, 57, 64
5, 55200, Note_off_c, 3, 57, 49
5, 55200, Note_on_c, 3, 56, 64
5, 56160, Note_off_c, 3, 56, 65
5, 56160, Note_on_c, 3, 54, 64
5, 56880, Note_off_c, 3, 54, 63
5, 56880, Note_on_c, 3, 53, 64
5, 57120, Note_off_c, 3, 53, 43
5, 57120, Note_on_c, 3, 51, 64
5, 57360, Note_off_c, 3, 51, 72
5, 57360, Note_on_c, 3, 49, 64
5, 57600, Note_off_c, 3, 49, 76
5, 57600, Note_on_c, 3, 58, 64
5, 58320, Note_off_c, 3, 58, 65
5, 58320, Note_on_c, 3, 60, 64
5, 58560, Note_off_c, 3, 60, 70
5, 58560, Note_on_c, 3, 61, 64
5, 58800, Note_off_c, 3, 61, 74
5, 58800, Note_on_c, 3, 60, 64
5, 59040, Note_off_c, 3, 60, 65
5, 59040, Note_on_c, 3, 61, 64
5, 59280, Note_off_c, 3, 61, 74
5, 59280, Note_on_c, 3, 63, 64
5, 59520, Note_off_c, 3, 63, 63
5, 59520, Note_on_c, 3, 65, 64
5, 60960, Note_off_c, 3, 65, 1
5, 60960, Note_on_c, 3, 63, 64
5, 61200, Note_off_c, 3, 63, 54
5, 61200, Note_on_c, 3, 61, 64
5, 61440, Note_off_c, 3, 61, 68
5, 61440, Note_on_c, 3, 59, 64
5, 62400, Note_off_c, 3, 59, 43
5, 62400, Note_on_c, 3, 58, 64
5, 62640, Note_off_c, 3, 58, 63
5, 62640, Note_on_c, 3, 61, 64
5, 62880, Note_off_c, 3, 61, 62
5, 62880, Note_on_c, 3, 60, 64
5, 63120, Note_off_c, 3, 60, 63
5, 63120, Note_on_c, 3, 58, 64
5, 63360, Note_off_c, 3, 58, 59
5, 63360, Note_on_c, 3, 57, 64
5, 63840, Note_off_c, 3, 57, 55
5, 63840, Note_on_c, 3, 58, 64
5, 64320, Note_off_c, 3, 58, 65
5, 64320, Note_on_c, 3, 57, 64
5, 64800, Note_off_c, 3, 57, 63
5, 65280, Note_on_c, 3, 53, 64
5, 65760, Note_off_c, 3, 53, 73
5, 66480, Note_on_c, 3, 60, 64
5, 66720, Note_off_c, 3, 60, 72
5, 66720, Note_on_c, 3, 58, 64
5, 66960, Note_off_c, 3, 58, 61
5, 66960, Note_on_c, 3, 57, 64
5, 67200, Note_off_c, 3, 57, 65
5, 67200, Note_on_c, 3, 58, 64
5, 67440, Note_off_c, 3, 58, 74
5, 67440, Note_on_c, 3, 60, 64
5, 67680, Note_off_c, 3, 60, 57
5, 67680, Note_on_c, 3, 61, 64
5, 67920, Note_off_c, 3, 61, 61
5, 68160, Note_on_c, 3, 58, 64
5, 69120, Note_off_c, 3, 58, 76
5, 70080, Note_on_c, 3, 60, 64
5, 70560, Note_off_c, 3, 60, 68
5, 70560, Note_on_c, 3, 53, 64
5, 72000, Note_off_c, 3, 53, 49
5, 72000, End_track
6, 0, Start_track
6, 0, Text_t, "5"
6, 13440, Note_on_c, 4, 46, 64
6, 13920, Note_off_c, 4, 46, 72
6, 13920, Note_on_c, 4, 41, 64
6, 14400, Note_off_c, 4, 41, 47
6, 14640, Note_on_c, 4, 54, 64
6, 14880, Note_off_c, 4, 54, 61
6, 14880, Note_on_c, 4, 53, 64
6, 15120, Note_off_c, 4, 53, 66
6, 15120, Note_on_c, 4, 51, 64
6, 15360, Note_off_c, 4, 51, 55
6, 15360, Note_on_c, 4, 50, 64
6, 15600, Note_off_c, 4, 50, 73
6, 15600, Note_on_c, 4, 46, 64
6, 15840, Note_off_c, 4, 46, 52
6, 15840, Note_on_c, 4, 48, 64
6, 16080, Note_off_c, 4, 48, 47
6, 16080, Note_on_c, 4, 50, 64
6, 16320, Note_off_c, 4, 50, 63
6, 16320, Note_on_c, 4, 51, 64
6, 16560, Note_off_c, 4, 51, 66
6, 16560, Note_on_c, 4, 53, 64
6, 16800, Note_off_c, 4, 53, 59
6, 16800, Note_on_c, 4, 51, 64
6, 17040, Note_off_c, 4, 51, 68
6, 17040, Note_on_c, 4, 49, 64
6, 17280, Note_off_c, 4, 49, 58
6, 17280, Note_on_c, 4, 48, 64
6, 17520, Note_off_c, 4, 48, 70
6, 17520, Note_on_c, 4, 44, 64
6, 17760, Note_off_c, 4, 44, 49
6, 17760, Note_on_c, 4, 46, 64
6, 18000, Note_off_c, 4, 46, 53
6, 18000, Note_on_c, 4, 48, 64
6, 18240, Note_off_c, 4, 48, 68
6, 18240, Note_on_c, 4, 49, 64
6, 18720, Note_off_c, 4, 49, 66
6, 18720, Note_on_c, 4, 46, 64
6, 19200, Note_off_c, 4, 46, 68
6, 19200, Note_on_c, 4, 53, 64
6, 19680, Note_off_c, 4, 53, 52
6, 19680, Note_on_c, 4, 49, 64
6, 20160, Note_off_c, 4, 49, 76
6, 20160, Note_on_c, 4, 51, 64
6, 20400, Note_off_c, 4, 51, 53
6, 20400, Note_on_c, 4, 53, 64
6, 20640, Note_off_c, 4, 53, 69
6, 20640, Note_on_c, 4, 54, 64
6, 21360, Note_off_c, 4, 54, 62
6, 21360, Note_on_c, 4, 53, 64
6, 21600, Note_off_c, 4, 53, 73
6, 21600, Note_on_c, 4, 51, 64
6, 21840, Note_off_c, 4, 51, 65
6, 21840, Note_on_c, 4, 49, 64
6, 22080, Note_off_c, 4, 49, 73
6, 22080, Note_on_c, 4, 56, 64
6, 22560, Note_off_c, 4, 56, 54
6, 22560, Note_on_c, 4, 44, 64
6, 23040, Note_off_c, 4, 44, 40
6, 23040, Note_on_c, 4, 49, 64
6, 23520, Note_off_c, 4, 49, 59
6, 29760, Note_on_c, 4, 51, 64
6, 30240, Note_off_c, 4, 51, 72
6, 30240, Note_on_c, 4, 46, 64
6, 30720, Note_off_c, 4, 46, 73
6, 30960, Note_on_c, 4, 59, 64
6, 31200, Note_off_c, 4, 59, 53
6, 31200, Note_on_c, 4, 58, 64
6, 31440, Note_off_c, 4, 58, 72
6, 31440, Note_on_c, 4, 56, 64
6, 31680, Note_off_c, 4, 56, 58
6, 31680, Note_on_c, 4, 55, 64
6, 31920, Note_off_c, 4, 55, 74
6, 31920, Note_on_c, 4, 51, 64
6, 32160, Note_off_c, 4, 51, 51
6, 32160, Note_on_c, 4, 53, 64
6, 32400, Note_off_c, 4, 53, 51
6, 32400, Note_on_c, 4, 55, 64
6, 32640, Note_off_c, 4, 55, 68
6, 32640, Note_on_c, 4, 56, 64
6, 32880, Note_off_c, 4, 56, 63
6, 32880, Note_on_c, 4, 54, 64
6, 33120, Note_off_c, 4, 54, 69
6, 33120, Note_on_c, 4, 52, 64
6, 33360, Note_off_c, 4, 52, 74
6, 33360, Note_on_c, 4, 51, 64
6, 33600, Note_off_c, 4, 51, 72
6, 33600, Note_on_c, 4, 49, 64
6, 33840, Note_off_c, 4, 49, 72
6, 33840, Note_on_c, 4, 46, 64
6, 34080, Note_off_c, 4, 46, 40
6, 34320, Note_on_c, 4, 39, 64
6, 34560, Note_off_c, 4, 39, 59
6, 34560, Note_on_c, 4, 44, 64
6, 35040, Note_off_c, 4, 44, 54
6, 35040, Note_on_c, 4, 46, 64
6, 35280, Note_off_c, 4, 46, 70
6, 35280, Note_on_c, 4, 44, 64
6, 35520, Note_off_c, 4, 44, 69
6, 35520, Note_on_c, 4, 42, 64
6, 36000, Note_off_c, 4, 42, 48
6, 36000, Note_on_c, 4, 54, 64
6, 36720, Note_off_c, 4, 54, 66
6, 36720, Note_on_c, 4, 53, 64
6, 36960, Note_off_c, 4, 53, 69
6, 36960, Note_on_c, 4, 54, 64
6, 37200, Note_off_c, 4, 54, 69
6, 37200, Note_on_c, 4, 56, 64
6, 37440, Note_off_c, 4, 56, 53
6, 37440, Note_on_c, 4, 58, 64
6, 37920, Note_off_c, 4, 58, 70
6, 37920, Note_on_c, 4, 54, 64
6, 38400, Note_off_c, 4, 54, 50
6, 38400, Note_on_c, 4, 56, 64
6, 38640, Note_off_c, 4, 56, 72
6, 38640, Note_on_c, 4, 58, 64
6, 38880, Note_off_c, 4, 58, 65
6, 38880, Note_on_c, 4, 56, 64
6, 39120, Note_off_c, 4, 56, 50
6, 39120, Note_on_c, 4, 54, 64
6, 39360, Note_off_c, 4, 54, 54
6, 39360, Note_on_c, 4, 53, 64
6, 40080, Note_off_c, 4, 53, 58
6, 40080, Note_on_c, 4, 51, 64
6, 40200, Note_off_c, 4, 51, 72
6, 40200, Note_on_c, 4, 49, 64
6, 40320, Note_off_c, 4, 49, 73
6, 40320, Note_on_c, 4, 51, 64
6, 40560, Note_off_c, 4, 51, 69
6, 40560, Note_on_c, 4, 53, 64
6, 40800, Note_off_c, 4, 53, 68
6, 40800, Note_on_c, 4, 54, 64
6, 41520, Note_off_c, 4, 54, 62
6, 41520, Note_on_c, 4, 53, 64
6, 41640, Note_off_c, 4, 53, 72
6, 41640, Note_on_c, 4, 51, 64
6, 41760, Note_off_c, 4, 51, 74
6, 41760, Note_on_c, 4, 53, 64
6, 42000, Note_off_c, 4, 53, 72
6, 42000, Note_on_c, 4, 55, 64
6, 42240, Note_off_c, 4, 55, 65
6, 42240, Note_on_c, 4, 56, 64
6, 42960, Note_off_c, 4, 56, 57
6, 42960, Note_on_c, 4, 55, 64
6, 43080, Note_off_c, 4, 55, 66
6, 43080, Note_on_c, 4, 53, 64
6, 43200, Note_off_c, 4, 53, 38
6, 43200, Note_on_c, 4, 55, 64
6, 43440, Note_off_c, 4, 55, 65
6, 43440, Note_on_c, 4, 57, 64
6, 43680, Note_off_c, 4, 57, 61
6, 43680, Note_on_c, 4, 58, 64
6, 43800, Note_off_c, 4, 58, 63
6, 43800, Note_on_c, 4, 60, 64
6, 43920, Note_off_c, 4, 60, 65
6, 44040, Note_on_c, 4, 60, 64
6, 44160, Note_off_c, 4, 60, 65
6, 44160, Note_on_c, 4, 61, 64
6, 44280, Note_off_c, 4, 61, 69
6, 44280, Note_on_c, 4, 60, 64
6, 44400, Note_off_c, 4, 60, 73
6, 44400, Note_on_c, 4, 58, 64
6, 44520, Note_off_c, 4, 58, 58
6, 44520, Note_on_c, 4, 56, 64
6, 44640, Note_off_c, 4, 56, 55
6, 44640, Note_on_c, 4, 54, 64
6, 44760, Note_off_c, 4, 54, 59
6, 44760, Note_on_c, 4, 53, 64
6, 44880, Note_off_c, 4, 53, 66
6, 44880, Note_on_c, 4, 54, 64
6, 45000, Note_off_c, 4, 54, 51
6, 45000, Note_on_c, 4, 51, 64
6, 45120, Note_off_c, 4, 51, 61
6, 45120, Note_on_c, 4, 53, 64
6, 45600, Note_off_c, 4, 53, 55
6, 45600, Note_on_c, 4, 46, 64
6, 46080, Note_off_c, 4, 46, 54
6, 46320, Note_on_c, 4, 61, 64
6, 46560, Note_off_c, 4, 61, 69
6, 46560, Note_on_c, 4, 60, 64
6, 46800, Note_off_c, 4, 60, 68
6, 46800, Note_on_c, 4, 58, 64
6, 47040, Note_off_c, 4, 58, 58
6, 47040, Note_on_c, 4, 57, 64
6, 47280, Note_off_c, 4, 57, 65
6, 47280, Note_on_c, 4, 56, 64
6, 47760, Note_off_c, 4, 56, 66
6, 47760, Note_on_c, 4, 54, 64
6, 47880, Note_off_c, 4, 54, 66
6, 47880, Note_on_c, 4, 53, 64
6, 48000, Note_off_c, 4, 53, 66
6, 48000, Note_on_c, 4, 54, 64
6, 48240, Note_off_c, 4, 54, 52
6, 48240, Note_on_c, 4, 56, 64
6, 48480, Note_off_c, 4, 56, 66
6, 48480, Note_on_c, 4, 58, 64
6, 48960, Note_off_c, 4, 58, 72
6, 48960, Note_on_c, 4, 51, 64
6, 49440, Note_off_c, 4, 51, 66
6, 49440, Note_on_c, 4, 44, 64
6, 50160, Note_off_c, 4, 44, 73
6, 50160, Note_on_c, 4, 42, 64
6, 50400, Note_off_c, 4, 42, 62
6, 50400, Note_on_c, 4, 41, 64
6, 50640, Note_off_c, 4, 41, 61
6, 50640, Note_on_c, 4, 39, 64
6, 50880, Note_off_c, 4, 39, 55
6, 50880, Note_on_c, 4, 46, 64
6, 51840, Note_off_c, 4, 46, 76
6, 51840, Note_on_c, 4, 51, 64
6, 52560, Note_off_c, 4, 51, 63
6, 52560, Note_on_c, 4, 53, 64
6, 52800, Note_off_c, 4, 53, 63
6, 52800, Note_on_c, 4, 54, 64
6, 54000, Note_off_c, 4, 54, 68
6, 54000, Note_on_c, 4, 53, 64
6, 54240, Note_off_c, 4, 53, 70
6, 54240, Note_on_c, 4, 51, 64
6, 54480, Note_off_c, 4, 51, 69
6, 54480, Note_on_c, 4, 49, 64
6, 54720, Note_off_c, 4, 49, 68
6, 54720, Note_on_c, 4, 48, 64
6, 55200, Note_off_c, 4, 48, 61
6, 55200, Note_on_c, 4, 53, 64
6, 55680, Note_off_c, 4, 53, 72
6, 55680, Note_on_c, 4, 46, 64
6, 56160, Note_off_c, 4, 46, 62
6, 56160, Note_on_c, 4, 51, 64
6, 56880, Note_off_c, 4, 51, 53
6, 56880, Note_on_c, 4, 49, 64
6, 57120, Note_off_c, 4, 49, 66
6, 57120, Note_on_c, 4, 48, 64
6, 57360, Note_off_c, 4, 48, 68
6, 57360, Note_on_c, 4, 46, 64
6, 57600, Note_off_c, 4, 46, 74
6, 57600, Note_on_c, 4, 54, 64
6, 58080, Note_off_c, 4, 54, 54
6, 58080, Note_on_c, 4, 55, 64
6, 58560, Note_off_c, 4, 55, 68
6, 58560, Note_on_c, 4, 53, 64
6, 60000, Note_off_c, 4, 53, 61
6, 60000, Note_on_c, 4, 41, 64
6, 60480, Note_off_c, 4, 41, 37
6, 60480, Note_on_c, 4, 42, 64
6, 61680, Note_off_c, 4, 42, 63
6, 61680, Note_on_c, 4, 41, 64
6, 61920, Note_off_c, 4, 41, 59
6, 61920, Note_on_c, 4, 39, 64
6, 62160, Note_off_c, 4, 39, 62
6, 62160, Note_on_c, 4, 38, 64
6, 62400, Note_off_c, 4, 38, 49
6, 62400, Note_on_c, 4, 39, 64
6, 62880, Note_off_c, 4, 39, 57
6, 62880, Note_on_c, 4, 51, 64
6, 63600, Note_off_c, 4, 51, 74
6, 63600, Note_on_c, 4, 49, 64
6, 63720, Note_off_c, 4, 49, 65
6, 63720, Note_on_c, 4, 48, 64
6, 63840, Note_off_c, 4, 48, 37
6, 63840, Note_on_c, 4, 49, 64
6, 64080, Note_off_c, 4, 49, 69
6, 64080, Note_on_c, 4, 51, 64
6, 64320, Note_off_c, 4, 51, 66
6, 64320, Note_on_c, 4, 53, 64
6, 64560, Note_off_c, 4, 53, 69
6, 64560, Note_on_c, 4, 51, 64
6, 64800, Note_off_c, 4, 51, 62
6, 64800, Note_on_c, 4, 49, 64
6, 65040, Note_off_c, 4, 49, 65
6, 65040, Note_on_c, 4, 48, 64
6, 65280, Note_off_c, 4, 48, 40
6, 65280, Note_on_c, 4, 49, 64
6, 65520, Note_off_c, 4, 49, 62
6, 65520, Note_on_c, 4, 45, 64
6, 65760, Note_off_c, 4, 45, 57
6, 65760, Note_on_c, 4, 46, 64
6, 66240, Note_off_c, 4, 46, 63
6, 66240, Note_on_c, 4, 41, 64
6, 66720, Note_off_c, 4, 41, 66
6, 66960, Note_on_c, 4, 54, 64
6, 67200, Note_off_c, 4, 54, 62
6, 67200, Note_on_c, 4, 53, 64
6, 67440, Note_off_c, 4, 53, 63
6, 67440, Note_on_c, 4, 51, 64
6, 67680, Note_off_c, 4, 51, 58
6, 67680, Note_on_c, 4, 49, 64
6, 67920, Note_off_c, 4, 49, 68
6, 67920, Note_on_c, 4, 48, 64
6, 68160, Note_off_c, 4, 48, 62
6, 68160, Note_on_c, 4, 50, 64
6, 68400, Note_off_c, 4, 50, 65
6, 68400, Note_on_c, 4, 51, 64
6, 68640, Note_off_c, 4, 51, 69
6, 68640, Note_on_c, 4, 53, 64
6, 68760, Note_off_c, 4, 53, 57
6, 68760, Note_on_c, 4, 54, 64
6, 68880, Note_off_c, 4, 54, 57
6, 68880, Note_on_c, 4, 52, 64
6, 69000, Note_off_c, 4, 52, 62
6, 69000, Note_on_c, 4, 53, 64
6, 69120, Note_off_c, 4, 53, 58
6, 69120, Note_on_c, 4, 40, 64
6, 70080, Note_off_c, 4, 40, 51
6, 70080, Note_on_c, 4, 41, 64
6, 71040, Note_off_c, 4, 41, 63
6, 71040, Note_on_c, 4, 46, 64
6, 72000, Note_off_c, 4, 46, 73
6, 72000, End_track
0, 0, End_of_file
