0, 0, Header, 1, 2, 240
1, 0, Start_track
1, 0, Time_signature, 3, 2, 24, 8
1, 0, Tempo, 625000
1, 76144, Tempo, 638298
1, 76320, Tempo, 855949
1, 76472, Tempo, 878426
1, 76672, Tempo, 902490
1, 76800, Tempo, 731707
1, 76976, Tempo, 952381
1, 77040, Tempo, 810811
1, 77040, End_track
2, 0, Start_track
2, 0, Note_on_c, 0, 52, 64
2, 120, Note_on_c, 0, 71, 64
2, 240, Note_off_c, 0, 71, 64
2, 240, Note_on_c, 0, 73, 64
2, 360, Note_on_c, 0, 68, 64
2, 480, Note_off_c, 0, 68, 64
2, 480, Note_on_c, 0, 69, 64
2, 540, Note_off_c, 0, 73, 64
2, 540, Note_on_c, 0, 73, 64
2, 600, Note_off_c, 0, 73, 64
2, 600, Note_on_c, 0, 71, 64
2, 660, Note_off_c, 0, 71, 64
2, 660, Note_on_c, 0, 69, 64
2, 720, Note_off_c, 0, 69, 64
2, 720, Note_on_c, 0, 71, 64
2, 780, Note_off_c, 0, 69, 64
2, 780, Note_on_c, 0, 69, 64
2, 840, Note_off_c, 0, 69, 64
2, 840, Note_on_c, 0, 68, 64
2, 900, Note_off_c, 0, 68, 64
2, 900, Note_on_c, 0, 66, 64
2, 960, Note_off_c, 0, 66, 64
2, 960, Note_on_c, 0, 68, 64
2, 1020, Note_off_c, 0, 71, 64
2, 1020, Note_on_c, 0, 71, 64
2, 1080, Note_off_c, 0, 71, 64
2, 1080, Note_off_c, 0, 68, 64
2, 1080, Note_on_c, 0, 76, 64
2, 1140, Note_off_c, 0, 76, 64
2, 1140, Note_on_c, 0, 75, 64
2, 1200, Note_off_c, 0, 75, 64
2, 1200, Note_on_c, 0, 73, 64
2, 1260, Note_off_c, 0, 73, 64
2, 1260, Note_on_c, 0, 71, 64
2, 1320, Note_off_c, 0, 71, 64
2, 1320, Note_on_c, 0, 69, 64
2, 1380, Note_off_c, 0, 69, 64
2, 1380, Note_on_c, 0, 68, 64
2, 1440, Note_off_c, 0, 68, 64
2, 1440, Note_on_c, 0, 69, 64
2, 1500, Note_on_c, 0, 68, 64
2, 1560, Note_off_c, 0, 68, 64
2, 1560, Note_on_c, 0, 66, 64
2, 1620, Note_off_c, 0, 66, 64
2, 1620, Note_on_c, 0, 64, 64
2, 1680, Note_off_c, 0, 64, 64
2, 1680, Note_on_c, 0, 66, 64
2, 1740, Note_off_c, 0, 52, 64
2, 1740, Note_on_c, 0, 52, 64
2, 1800, Note_off_c, 0, 52, 64
2, 1800, Note_on_c, 0, 51, 64
2, 1860, Note_off_c, 0, 51, 64
2, 1860, Note_on_c, 0, 49, 64
2, 1920, Note_off_c, 0, 49, 64
2, 1920, Note_on_c, 0, 51, 64
2, 1980, Note_off_c, 0, 51, 64
2, 1980, Note_on_c, 0, 54, 64
2, 2040, Note_off_c, 0, 54, 64
2, 2040, Note_on_c, 0, 47, 64
2, 2100, Note_off_c, 0, 47, 64
2, 2100, Note_on_c, 0, 51, 64
2, 2160, Note_off_c, 0, 51, 64
2, 2160, Note_on_c, 0, 52, 64
2, 2220, Note_off_c, 0, 69, 64
2, 2220, Note_on_c, 0, 69, 64
2, 2280, Note_off_c, 0, 69, 64
2, 2280, Note_off_c, 0, 52, 64
2, 2280, Note_on_c, 0, 68, 64
2, 2280, Note_on_c, 0, 40, 64
2, 2340, Note_off_c, 0, 68, 64
2, 2340, Note_on_c, 0, 66, 64
2, 2400, Note_off_c, 0, 40, 64
2, 2400, Note_off_c, 0, 66, 64
2, 2400, Note_on_c, 0, 68, 64
2, 2400, Note_on_c, 0, 52, 64
2, 2460, Note_off_c, 0, 66, 64
2, 2460, Note_on_c, 0, 66, 64
2, 2520, Note_off_c, 0, 66, 64
2, 2520, Note_off_c, 0, 52, 64
2, 2520, Note_on_c, 0, 64, 64
2, 2520, Note_on_c, 0, 54, 64
2, 2580, Note_off_c, 0, 64, 64
2, 2580, Note_on_c, 0, 63, 64
2, 2640, Note_off_c, 0, 63, 64
2, 2640, Note_off_c, 0, 54, 64
2, 2640, Note_on_c, 0, 64, 64
2, 2640, Note_on_c, 0, 56, 64
2, 2700, Note_off_c, 0, 68, 64
2, 2700, Note_on_c, 0, 68, 64
2, 2760, Note_off_c, 0, 68, 64
2, 2760, Note_off_c, 0, 56, 64
2, 2760, Note_off_c, 0, 64, 64
2, 2760, Note_on_c, 0, 57, 64
2, 2760, Note_on_c, 0, 66, 64
2, 2820, Note_off_c, 0, 66, 64
2, 2820, Note_on_c, 0, 64, 64
2, 2880, Note_off_c, 0, 64, 64
2, 2880, Note_off_c, 0, 57, 64
2, 2880, Note_on_c, 0, 59, 64
2, 2880, Note_on_c, 0, 63, 64
2, 3000, Note_off_c, 0, 63, 64
2, 3000, Note_on_c, 0, 66, 64
2, 3120, Note_off_c, 0, 66, 64
2, 3120, Note_on_c, 0, 68, 64
2, 3240, Note_on_c, 0, 75, 64
2, 3360, Note_off_c, 0, 75, 64
2, 3360, Note_on_c, 0, 76, 64
2, 3420, Note_off_c, 0, 68, 64
2, 3420, Note_on_c, 0, 68, 64
2, 3480, Note_off_c, 0, 68, 64
2, 3480, Note_on_c, 0, 66, 64
2, 3540, Note_off_c, 0, 66, 64
2, 3540, Note_on_c, 0, 64, 64
2, 3600, Note_off_c, 0, 64, 64
2, 3600, Note_on_c, 0, 66, 64
2, 3660, Note_off_c, 0, 76, 64
2, 3660, Note_on_c, 0, 76, 64
2, 3720, Note_off_c, 0, 76, 64
2, 3720, Note_on_c, 0, 75, 64
2, 3780, Note_off_c, 0, 75, 64
2, 3780, Note_on_c, 0, 73, 64
2, 3840, Note_off_c, 0, 73, 64
2, 3840, Note_on_c, 0, 75, 64
2, 3900, Note_off_c, 0, 66, 64
2, 3900, Note_on_c, 0, 66, 64
2, 3960, Note_off_c, 0, 66, 64
2, 3960, Note_off_c, 0, 75, 64
2, 3960, Note_on_c, 0, 71, 64
2, 4020, Note_off_c, 0, 71, 64
2, 4020, Note_on_c, 0, 69, 64
2, 4080, Note_off_c, 0, 69, 64
2, 4080, Note_on_c, 0, 68, 64
2, 4140, Note_off_c, 0, 68, 64
2, 4140, Note_on_c, 0, 66, 64
2, 4200, Note_off_c, 0, 66, 64
2, 4200, Note_on_c, 0, 64, 64
2, 4260, Note_off_c, 0, 64, 64
2, 4260, Note_on_c, 0, 63, 64
2, 4320, Note_off_c, 0, 63, 64
2, 4320, Note_on_c, 0, 64, 64
2, 4380, Note_on_c, 0, 75, 64
2, 4440, Note_off_c, 0, 75, 64
2, 4440, Note_on_c, 0, 73, 64
2, 4500, Note_off_c, 0, 73, 64
2, 4500, Note_on_c, 0, 71, 64
2, 4560, Note_off_c, 0, 71, 64
2, 4560, Note_on_c, 0, 73, 64
2, 4620, Note_off_c, 0, 59, 64
2, 4620, Note_on_c, 0, 59, 64
2, 4680, Note_off_c, 0, 59, 64
2, 4680, Note_on_c, 0, 58, 64
2, 4740, Note_off_c, 0, 58, 64
2, 4740, Note_on_c, 0, 56, 64
2, 4800, Note_off_c, 0, 56, 64
2, 4800, Note_on_c, 0, 58, 64
2, 4860, Note_off_c, 0, 58, 64
2, 4860, Note_on_c, 0, 61, 64
2, 4920, Note_off_c, 0, 61, 64
2, 4920, Note_on_c, 0, 54, 64
2, 4980, Note_off_c, 0, 54, 64
2, 4980, Note_on_c, 0, 58, 64
2, 5040, Note_off_c, 0, 58, 64
2, 5040, Note_on_c, 0, 59, 64
2, 5100, Note_off_c, 0, 64, 64
2, 5100, Note_on_c, 0, 64, 64
2, 5160, Note_off_c, 0, 64, 64
2, 5160, Note_on_c, 0, 63, 64
2, 5220, Note_off_c, 0, 63, 64
2, 5220, Note_on_c, 0, 61, 64
2, 5280, Note_off_c, 0, 61, 64
2, 5280, Note_on_c, 0, 63, 64
2, 5340, Note_off_c, 0, 73, 64
2, 5340, Note_on_c, 0, 73, 64
2, 5400, Note_off_c, 0, 73, 64
2, 5400, Note_on_c, 0, 71, 64
2, 5460, Note_off_c, 0, 71, 64
2, 5460, Note_on_c, 0, 70, 64
2, 5520, Note_off_c, 0, 70, 64
2, 5520, Note_on_c, 0, 71, 64
2, 5580, Note_off_c, 0, 59, 64
2, 5580, Note_on_c, 0, 61, 64
2, 5640, Note_off_c, 0, 61, 64
2, 5640, Note_on_c, 0, 59, 64
2, 5700, Note_off_c, 0, 59, 64
2, 5700, Note_on_c, 0, 57, 64
2, 5760, Note_off_c, 0, 57, 64
2, 5760, Note_off_c, 0, 63, 64
2, 5760, Note_on_c, 0, 56, 64
2, 5820, Note_off_c, 0, 71, 64
2, 5820, Note_on_c, 0, 69, 64
2, 5880, Note_off_c, 0, 69, 64
2, 5880, Note_on_c, 0, 68, 64
2, 5880, Note_on_c, 0, 57, 64
2, 5940, Note_off_c, 0, 68, 64
2, 5940, Note_on_c, 0, 66, 64
2, 6000, Note_off_c, 0, 66, 64
2, 6000, Note_off_c, 0, 57, 64
2, 6000, Note_on_c, 0, 65, 64
2, 6000, Note_on_c, 0, 59, 64
2, 6060, Note_off_c, 0, 65, 64
2, 6060, Note_on_c, 0, 68, 64
2, 6120, Note_off_c, 0, 68, 64
2, 6120, Note_off_c, 0, 59, 64
2, 6120, Note_on_c, 0, 71, 64
2, 6120, Note_on_c, 0, 62, 64
2, 6180, Note_off_c, 0, 62, 64
2, 6180, Note_off_c, 0, 71, 64
2, 6180, Note_on_c, 0, 74, 64
2, 6180, Note_on_c, 0, 65, 64
2, 6240, Note_off_c, 0, 65, 64
2, 6240, Note_on_c, 0, 66, 64
2, 6300, Note_off_c, 0, 74, 64
2, 6300, Note_on_c, 0, 74, 64
2, 6360, Note_off_c, 0, 74, 64
2, 6360, Note_off_c, 0, 66, 64
2, 6360, Note_on_c, 0, 65, 64
2, 6360, Note_on_c, 0, 73, 64
2, 6420, Note_off_c, 0, 73, 64
2, 6420, Note_on_c, 0, 71, 64
2, 6480, Note_off_c, 0, 56, 64
2, 6480, Note_on_c, 0, 54, 64
2, 6540, Note_off_c, 0, 71, 64
2, 6540, Note_on_c, 0, 69, 64
2, 6600, Note_off_c, 0, 69, 64
2, 6600, Note_off_c, 0, 65, 64
2, 6600, Note_on_c, 0, 68, 64
2, 6600, Note_on_c, 0, 65, 64
2, 6660, Note_off_c, 0, 68, 64
2, 6660, Note_on_c, 0, 71, 64
2, 6720, Note_off_c, 0, 71, 64
2, 6720, Note_off_c, 0, 65, 64
2, 6720, Note_on_c, 0, 69, 64
2, 6720, Note_on_c, 0, 66, 64
2, 6780, Note_off_c, 0, 69, 64
2, 6780, Note_on_c, 0, 73, 64
2, 6840, Note_off_c, 0, 73, 64
2, 6840, Note_off_c, 0, 66, 64
2, 6840, Note_on_c, 0, 78, 64
2, 6840, Note_on_c, 0, 64, 64
2, 6900, Note_off_c, 0, 78, 64
2, 6900, Note_on_c, 0, 81, 64
2, 6960, Note_off_c, 0, 64, 64
2, 6960, Note_on_c, 0, 63, 64
2, 7020, Note_off_c, 0, 81, 64
2, 7020, Note_on_c, 0, 78, 64
2, 7080, Note_off_c, 0, 78, 64
2, 7080, Note_off_c, 0, 63, 64
2, 7080, Note_on_c, 0, 61, 64
2, 7080, Note_on_c, 0, 80, 64
2, 7140, Note_off_c, 0, 80, 64
2, 7140, Note_on_c, 0, 81, 64
2, 7200, Note_off_c, 0, 81, 64
2, 7200, Note_off_c, 0, 61, 64
2, 7200, Note_on_c, 0, 72, 64
2, 7200, Note_on_c, 0, 63, 64
2, 7260, Note_off_c, 0, 54, 64
2, 7260, Note_on_c, 0, 52, 64
2, 7320, Note_off_c, 0, 52, 64
2, 7320, Note_off_c, 0, 63, 64
2, 7320, Note_off_c, 0, 72, 64
2, 7320, Note_on_c, 0, 73, 64
2, 7320, Note_on_c, 0, 64, 64
2, 7320, Note_on_c, 0, 51, 64
2, 7380, Note_off_c, 0, 51, 64
2, 7380, Note_on_c, 0, 49, 64
2, 7440, Note_off_c, 0, 49, 64
2, 7440, Note_off_c, 0, 64, 64
2, 7440, Note_off_c, 0, 73, 64
2, 7440, Note_on_c, 0, 75, 64
2, 7440, Note_on_c, 0, 66, 64
2, 7440, Note_on_c, 0, 48, 64
2, 7500, Note_off_c, 0, 48, 64
2, 7500, Note_on_c, 0, 51, 64
2, 7560, Note_off_c, 0, 51, 64
2, 7560, Note_off_c, 0, 66, 64
2, 7560, Note_on_c, 0, 69, 64
2, 7560, Note_on_c, 0, 54, 64
2, 7620, Note_off_c, 0, 54, 64
2, 7620, Note_off_c, 0, 69, 64
2, 7620, Note_on_c, 0, 72, 64
2, 7620, Note_on_c, 0, 57, 64
2, 7680, Note_off_c, 0, 72, 64
2, 7680, Note_on_c, 0, 73, 64
2, 7740, Note_off_c, 0, 57, 64
2, 7740, Note_on_c, 0, 57, 64
2, 7800, Note_off_c, 0, 57, 64
2, 7800, Note_off_c, 0, 73, 64
2, 7800, Note_on_c, 0, 72, 64
2, 7800, Note_on_c, 0, 56, 64
2, 7860, Note_off_c, 0, 56, 64
2, 7860, Note_on_c, 0, 54, 64
2, 7920, Note_off_c, 0, 72, 64
2, 7920, Note_off_c, 0, 75, 64
2, 7920, Note_on_c, 0, 73, 64
2, 7980, Note_off_c, 0, 54, 64
2, 7980, Note_on_c, 0, 52, 64
2, 8040, Note_off_c, 0, 52, 64
2, 8040, Note_on_c, 0, 68, 64
2, 8040, Note_on_c, 0, 51, 64
2, 8100, Note_off_c, 0, 51, 64
2, 8100, Note_on_c, 0, 54, 64
2, 8160, Note_off_c, 0, 54, 64
2, 8160, Note_off_c, 0, 68, 64
2, 8160, Note_off_c, 0, 73, 64
2, 8160, Note_on_c, 0, 73, 64
2, 8160, Note_on_c, 0, 52, 64
2, 8220, Note_off_c, 0, 52, 64
2, 8220, Note_on_c, 0, 56, 64
2, 8280, Note_off_c, 0, 56, 64
2, 8280, Note_off_c, 0, 73, 64
2, 8280, Note_on_c, 0, 76, 64
2, 8280, Note_on_c, 0, 61, 64
2, 8340, Note_off_c, 0, 61, 64
2, 8340, Note_on_c, 0, 64, 64
2, 8400, Note_off_c, 0, 76, 64
2, 8400, Note_on_c, 0, 67, 64
2, 8400, Note_on_c, 0, 70, 64
2, 8460, Note_off_c, 0, 64, 64
2, 8460, Note_on_c, 0, 61, 64
2, 8520, Note_off_c, 0, 61, 64
2, 8520, Note_off_c, 0, 70, 64
2, 8520, Note_on_c, 0, 71, 64
2, 8520, Note_on_c, 0, 63, 64
2, 8580, Note_off_c, 0, 63, 64
2, 8580, Note_off_c, 0, 71, 64
2, 8580, Note_on_c, 0, 73, 64
2, 8580, Note_on_c, 0, 64, 64
2, 8640, Note_off_c, 0, 64, 64
2, 8640, Note_off_c, 0, 67, 64
2, 8640, Note_on_c, 0, 66, 64
2, 8640, Note_on_c, 0, 58, 64
2, 8700, Note_off_c, 0, 73, 64
2, 8700, Note_on_c, 0, 65, 64
2, 8760, Note_off_c, 0, 65, 64
2, 8760, Note_off_c, 0, 58, 64
2, 8760, Note_off_c, 0, 66, 64
2, 8760, Note_on_c, 0, 66, 64
2, 8760, Note_on_c, 0, 61, 64
2, 8820, Note_off_c, 0, 66, 64
2, 8820, Note_on_c, 0, 68, 64
2, 8880, Note_off_c, 0, 68, 64
2, 8880, Note_off_c, 0, 61, 64
2, 8880, Note_on_c, 0, 70, 64
2, 8880, Note_on_c, 0, 66, 64
2, 8940, Note_off_c, 0, 70, 64
2, 8940, Note_on_c, 0, 71, 64
2, 9000, Note_off_c, 0, 71, 64
2, 9000, Note_off_c, 0, 66, 64
2, 9000, Note_on_c, 0, 73, 64
2, 9000, Note_on_c, 0, 61, 64
2, 9060, Note_off_c, 0, 73, 64
2, 9060, Note_on_c, 0, 75, 64
2, 9120, Note_off_c, 0, 75, 64
2, 9120, Note_off_c, 0, 61, 64
2, 9120, Note_on_c, 0, 76, 64
2, 9120, Note_on_c, 0, 58, 64
2, 9180, Note_off_c, 0, 76, 64
2, 9180, Note_on_c, 0, 75, 64
2, 9240, Note_off_c, 0, 75, 64
2, 9240, Note_off_c, 0, 58, 64
2, 9240, Note_on_c, 0, 54, 64
2, 9240, Note_on_c, 0, 76, 64
2, 9300, Note_off_c, 0, 76, 64
2, 9300, Note_on_c, 0, 73, 64
2, 9360, Note_off_c, 0, 73, 64
2, 9360, Note_off_c, 0, 54, 64
2, 9360, Note_on_c, 0, 75, 64
2, 9360, Note_on_c, 0, 59, 64
2, 9420, Note_on_c, 0, 58, 64
2, 9480, Note_off_c, 0, 58, 64
2, 9480, Note_off_c, 0, 59, 64
2, 9480, Note_on_c, 0, 59, 64
2, 9540, Note_off_c, 0, 59, 64
2, 9540, Note_on_c, 0, 61, 64
2, 9600, Note_off_c, 0, 61, 64
2, 9600, Note_on_c, 0, 63, 64
2, 9660, Note_off_c, 0, 63, 64
2, 9660, Note_on_c, 0, 64, 64
2, 9720, Note_off_c, 0, 64, 64
2, 9720, Note_on_c, 0, 66, 64
2, 9780, Note_off_c, 0, 66, 64
2, 9780, Note_on_c, 0, 68, 64
2, 9840, Note_off_c, 0, 68, 64
2, 9840, Note_on_c, 0, 69, 64
2, 9900, Note_off_c, 0, 69, 64
2, 9900, Note_on_c, 0, 68, 64
2, 9960, Note_off_c, 0, 68, 64
2, 9960, Note_on_c, 0, 69, 64
2, 10020, Note_off_c, 0, 69, 64
2, 10020, Note_on_c, 0, 66, 64
2, 10080, Note_off_c, 0, 66, 64
2, 10080, Note_on_c, 0, 68, 64
2, 10140, Note_off_c, 0, 68, 64
2, 10140, Note_on_c, 0, 66, 64
2, 10140, Note_on_c, 0, 51, 64
2, 10200, Note_off_c, 0, 51, 64
2, 10200, Note_off_c, 0, 66, 64
2, 10200, Note_on_c, 0, 68, 64
2, 10200, Note_on_c, 0, 52, 64
2, 10260, Note_off_c, 0, 52, 64
2, 10260, Note_off_c, 0, 68, 64
2, 10260, Note_on_c, 0, 70, 64
2, 10260, Note_on_c, 0, 54, 64
2, 10320, Note_off_c, 0, 54, 64
2, 10320, Note_off_c, 0, 70, 64
2, 10320, Note_off_c, 0, 75, 64
2, 10320, Note_on_c, 0, 74, 64
2, 10320, Note_on_c, 0, 71, 64
2, 10320, Note_on_c, 0, 56, 64
2, 10380, Note_off_c, 0, 56, 64
2, 10380, Note_on_c, 0, 58, 64
2, 10440, Note_off_c, 0, 58, 64
2, 10440, Note_off_c, 0, 71, 64
2, 10440, Note_off_c, 0, 74, 64
2, 10440, Note_on_c, 0, 71, 64
2, 10440, Note_on_c, 0, 68, 64
2, 10440, Note_on_c, 0, 59, 64
2, 10500, Note_off_c, 0, 59, 64
2, 10500, Note_on_c, 0, 61, 64
2, 10560, Note_off_c, 0, 61, 64
2, 10560, Note_off_c, 0, 68, 64
2, 10560, Note_off_c, 0, 71, 64
2, 10560, Note_on_c, 0, 65, 64
2, 10560, Note_on_c, 0, 68, 64
2, 10560, Note_on_c, 0, 62, 64
2, 10620, Note_off_c, 0, 62, 64
2, 10620, Note_on_c, 0, 61, 64
2, 10680, Note_off_c, 0, 61, 64
2, 10680, Note_off_c, 0, 68, 64
2, 10680, Note_on_c, 0, 71, 64
2, 10680, Note_on_c, 0, 62, 64
2, 10740, Note_off_c, 0, 62, 64
2, 10740, Note_on_c, 0, 59, 64
2, 10800, Note_off_c, 0, 59, 64
2, 10800, Note_off_c, 0, 65, 64
2, 10800, Note_on_c, 0, 64, 64
2, 10800, Note_on_c, 0, 61, 64
2, 10860, Note_off_c, 0, 71, 64
2, 10860, Note_on_c, 0, 71, 64
2, 10920, Note_off_c, 0, 71, 64
2, 10920, Note_on_c, 0, 70, 64
2, 10980, Note_off_c, 0, 70, 64
2, 10980, Note_on_c, 0, 68, 64
2, 11040, Note_off_c, 0, 68, 64
2, 11040, Note_on_c, 0, 70, 64
2, 11100, Note_off_c, 0, 70, 64
2, 11100, Note_on_c, 0, 71, 64
2, 11160, Note_off_c, 0, 71, 64
2, 11160, Note_off_c, 0, 61, 64
2, 11160, Note_on_c, 0, 73, 64
2, 11160, Note_on_c, 0, 59, 64
2, 11220, Note_off_c, 0, 73, 64
2, 11220, Note_on_c, 0, 70, 64
2, 11280, Note_off_c, 0, 70, 64
2, 11280, Note_off_c, 0, 59, 64
2, 11280, Note_on_c, 0, 58, 64
2, 11280, Note_on_c, 0, 66, 64
2, 11340, Note_off_c, 0, 64, 64
2, 11340, Note_on_c, 0, 64, 64
2, 11400, Note_off_c, 0, 64, 64
2, 11400, Note_off_c, 0, 66, 64
2, 11400, Note_on_c, 0, 78, 64
2, 11400, Note_on_c, 0, 63, 64
2, 11460, Note_off_c, 0, 63, 64
2, 11460, Note_on_c, 0, 61, 64
2, 11520, Note_off_c, 0, 61, 64
2, 11520, Note_off_c, 0, 58, 64
2, 11520, Note_on_c, 0, 59, 64
2, 11520, Note_on_c, 0, 63, 64
2, 11580, Note_off_c, 0, 78, 64
2, 11580, Note_on_c, 0, 76, 64
2, 11640, Note_off_c, 0, 76, 64
2, 11640, Note_off_c, 0, 63, 64
2, 11640, Note_off_c, 0, 59, 64
2, 11640, Note_on_c, 0, 80, 64
2, 11640, Note_on_c, 0, 58, 64
2, 11640, Note_on_c, 0, 54, 64
2, 11700, Note_off_c, 0, 80, 64
2, 11700, Note_on_c, 0, 78, 64
2, 11760, Note_off_c, 0, 78, 64
2, 11760, Note_off_c, 0, 54, 64
2, 11760, Note_off_c, 0, 58, 64
2, 11760, Note_on_c, 0, 76, 64
2, 11760, Note_on_c, 0, 59, 64
2, 11760, Note_on_c, 0, 56, 64
2, 11820, Note_off_c, 0, 76, 64
2, 11820, Note_on_c, 0, 75, 64
2, 11880, Note_off_c, 0, 75, 64
2, 11880, Note_off_c, 0, 56, 64
2, 11880, Note_on_c, 0, 73, 64
2, 11880, Note_on_c, 0, 52, 64
2, 11940, Note_off_c, 0, 73, 64
2, 11940, Note_on_c, 0, 71, 64
2, 12000, Note_off_c, 0, 71, 64
2, 12000, Note_off_c, 0, 52, 64
2, 12000, Note_on_c, 0, 54, 64
2, 12000, Note_on_c, 0, 75, 64
2, 12060, Note_off_c, 0, 75, 64
2, 12060, Note_on_c, 0, 66, 64
2, 12120, Note_off_c, 0, 66, 64
2, 12120, Note_off_c, 0, 59, 64
2, 12120, Note_on_c, 0, 58, 64
2, 12120, Note_on_c, 0, 73, 64
2, 12180, Note_off_c, 0, 73, 64
2, 12180, Note_on_c, 0, 64, 64
2, 12240, Note_off_c, 0, 64, 64
2, 12240, Note_off_c, 0, 58, 64
2, 12240, Note_off_c, 0, 54, 64
2, 12240, Note_on_c, 0, 63, 64
2, 12240, Note_on_c, 0, 59, 64
2, 12300, Note_off_c, 0, 63, 64
2, 12300, Note_on_c, 0, 66, 64
2, 12360, Note_off_c, 0, 66, 64
2, 12360, Note_on_c, 0, 71, 64
2, 12360, Note_on_c, 0, 47, 64
2, 12420, Note_off_c, 0, 71, 64
2, 12420, Note_on_c, 0, 70, 64
2, 12480, Note_off_c, 0, 70, 64
2, 12480, Note_off_c, 0, 47, 64
2, 12480, Note_off_c, 0, 59, 64
2, 12480, Note_on_c, 0, 71, 64
2, 12480, Note_on_c, 0, 47, 64
2, 12540, Note_on_c, 0, 66, 64
2, 12600, Note_off_c, 0, 66, 64
2, 12600, Note_off_c, 0, 47, 64
2, 12600, Note_on_c, 0, 64, 64
2, 12600, Note_on_c, 0, 59, 64
2, 12660, Note_off_c, 0, 64, 64
2, 12660, Note_on_c, 0, 66, 64
2, 12720, Note_off_c, 0, 59, 64
2, 12720, Note_off_c, 0, 71, 64
2, 12720, Note_on_c, 0, 68, 64
2, 12720, Note_on_c, 0, 59, 64
2, 12780, Note_off_c, 0, 66, 64
2, 12780, Note_on_c, 0, 64, 64
2, 12840, Note_off_c, 0, 64, 64
2, 12840, Note_off_c, 0, 59, 64
2, 12840, Note_on_c, 0, 47, 64
2, 12840, Note_on_c, 0, 63, 64
2, 12900, Note_off_c, 0, 63, 64
2, 12900, Note_on_c, 0, 64, 64
2, 12960, Note_off_c, 0, 47, 64
2, 12960, Note_off_c, 0, 68, 64
2, 12960, Note_on_c, 0, 66, 64
2, 12960, Note_on_c, 0, 59, 64
2, 13020, Note_off_c, 0, 66, 64
2, 13020, Note_on_c, 0, 68, 64
2, 13080, Note_off_c, 0, 68, 64
2, 13080, Note_off_c, 0, 59, 64
2, 13080, Note_on_c, 0, 69, 64
2, 13080, Note_on_c, 0, 47, 64
2, 13140, Note_off_c, 0, 69, 64
2, 13140, Note_on_c, 0, 68, 64
2, 13200, Note_off_c, 0, 68, 64
2, 13200, Note_off_c, 0, 47, 64
2, 13200, Note_off_c, 0, 64, 64
2, 13200, Note_on_c, 0, 69, 64
2, 13200, Note_on_c, 0, 47, 64
2, 13260, Note_on_c, 0, 64, 64
2, 13320, Note_off_c, 0, 64, 64
2, 13320, Note_off_c, 0, 47, 64
2, 13320, Note_on_c, 0, 63, 64
2, 13320, Note_on_c, 0, 59, 64
2, 13380, Note_off_c, 0, 63, 64
2, 13380, Note_on_c, 0, 64, 64
2, 13440, Note_off_c, 0, 59, 64
2, 13440, Note_off_c, 0, 69, 64
2, 13440, Note_on_c, 0, 66, 64
2, 13440, Note_on_c, 0, 59, 64
2, 13500, Note_off_c, 0, 64, 64
2, 13500, Note_on_c, 0, 63, 64
2, 13560, Note_off_c, 0, 63, 64
2, 13560, Note_off_c, 0, 59, 64
2, 13560, Note_on_c, 0, 47, 64
2, 13560, Note_on_c, 0, 61, 64
2, 13620, Note_off_c, 0, 61, 64
2, 13620, Note_on_c, 0, 63, 64
2, 13680, Note_off_c, 0, 47, 64
2, 13680, Note_off_c, 0, 66, 64
2, 13680, Note_on_c, 0, 64, 64
2, 13680, Note_on_c, 0, 59, 64
2, 13740, Note_off_c, 0, 64, 64
2, 13740, Note_on_c, 0, 66, 64
2, 13800, Note_off_c, 0, 66, 64
2, 13800, Note_off_c, 0, 59, 64
2, 13800, Note_on_c, 0, 67, 64
2, 13800, Note_on_c, 0, 47, 64
2, 13860, Note_off_c, 0, 67, 64
2, 13860, Note_on_c, 0, 66, 64
2, 13920, Note_off_c, 0, 66, 64
2, 13920, Note_off_c, 0, 47, 64
2, 13920, Note_off_c, 0, 63, 64
2, 13920, Note_on_c, 0, 67, 64
2, 13920, Note_on_c, 0, 47, 64
2, 13980, Note_on_c, 0, 63, 64
2, 14040, Note_off_c, 0, 63, 64
2, 14040, Note_off_c, 0, 47, 64
2, 14040, Note_on_c, 0, 61, 64
2, 14040, Note_on_c, 0, 59, 64
2, 14100, Note_off_c, 0, 61, 64
2, 14100, Note_on_c, 0, 63, 64
2, 14160, Note_off_c, 0, 59, 64
2, 14160, Note_off_c, 0, 67, 64
2, 14160, Note_on_c, 0, 64, 64
2, 14160, Note_on_c, 0, 59, 64
2, 14220, Note_off_c, 0, 63, 64
2, 14220, Note_on_c, 0, 61, 64
2, 14280, Note_off_c, 0, 61, 64
2, 14280, Note_off_c, 0, 59, 64
2, 14280, Note_on_c, 0, 47, 64
2, 14280, Note_on_c, 0, 59, 64
2, 14340, Note_off_c, 0, 59, 64
2, 14340, Note_on_c, 0, 61, 64
2, 14400, Note_off_c, 0, 47, 64
2, 14400, Note_on_c, 0, 59, 64
2, 14520, Note_off_c, 0, 59, 64
2, 14520, Note_off_c, 0, 64, 64
2, 14520, Note_on_c, 0, 59, 64
2, 14520, Note_on_c, 0, 73, 64
2, 14550, Note_off_c, 0, 59, 64
2, 14552, Note_on_c, 0, 58, 64
2, 14580, Note_on_c, 0, 59, 64
2, 14582, Note_off_c, 0, 58, 64
2, 14610, Note_off_c, 0, 59, 64
2, 14612, Note_on_c, 0, 58, 64
2, 14640, Note_off_c, 0, 73, 64
2, 14640, Note_off_c, 0, 61, 64
2, 14640, Note_on_c, 0, 59, 64
2, 14640, Note_on_c, 0, 73, 64
2, 14642, Note_off_c, 0, 58, 64
2, 14670, Note_off_c, 0, 59, 64
2, 14670, Note_on_c, 0, 58, 64
2, 14700, Note_off_c, 0, 58, 64
2, 14700, Note_on_c, 0, 54, 64
2, 14760, Note_off_c, 0, 54, 64
2, 14760, Note_off_c, 0, 73, 64
2, 14760, Note_on_c, 0, 64, 64
2, 14760, Note_on_c, 0, 61, 64
2, 14760, Note_on_c, 0, 56, 64
2, 14820, Note_off_c, 0, 56, 64
2, 14820, Note_on_c, 0, 58, 64
2, 14880, Note_off_c, 0, 58, 64
2, 14880, Note_off_c, 0, 61, 64
2, 14880, Note_off_c, 0, 64, 64
2, 14880, Note_on_c, 0, 59, 64
2, 14880, Note_on_c, 0, 63, 64
2, 14880, Note_on_c, 0, 59, 64
2, 14940, Note_off_c, 0, 59, 64
2, 14940, Note_on_c, 0, 56, 64
2, 15000, Note_off_c, 0, 56, 64
2, 15000, Note_off_c, 0, 63, 64
2, 15000, Note_on_c, 0, 78, 64
2, 15000, Note_on_c, 0, 54, 64
2, 15060, Note_off_c, 0, 54, 64
2, 15060, Note_on_c, 0, 52, 64
2, 15120, Note_off_c, 0, 52, 64
2, 15120, Note_off_c, 0, 78, 64
2, 15120, Note_off_c, 0, 59, 64
2, 15120, Note_on_c, 0, 78, 64
2, 15120, Note_on_c, 0, 51, 64
2, 15180, Note_off_c, 0, 51, 64
2, 15180, Note_on_c, 0, 49, 64
2, 15240, Note_off_c, 0, 49, 64
2, 15240, Note_off_c, 0, 78, 64
2, 15240, Note_on_c, 0, 71, 64
2, 15240, Note_on_c, 0, 63, 64
2, 15240, Note_on_c, 0, 51, 64
2, 15300, Note_off_c, 0, 51, 64
2, 15300, Note_on_c, 0, 52, 64
2, 15360, Note_off_c, 0, 52, 64
2, 15360, Note_off_c, 0, 63, 64
2, 15360, Note_off_c, 0, 71, 64
2, 15360, Note_on_c, 0, 70, 64
2, 15360, Note_on_c, 0, 61, 64
2, 15360, Note_on_c, 0, 54, 64
2, 15420, Note_off_c, 0, 54, 64
2, 15420, Note_on_c, 0, 51, 64
2, 15480, Note_off_c, 0, 51, 64
2, 15480, Note_off_c, 0, 70, 64
2, 15480, Note_on_c, 0, 76, 64
2, 15480, Note_on_c, 0, 49, 64
2, 15540, Note_off_c, 0, 49, 64
2, 15540, Note_on_c, 0, 47, 64
2, 15600, Note_off_c, 0, 47, 64
2, 15600, Note_off_c, 0, 76, 64
2, 15600, Note_off_c, 0, 61, 64
2, 15600, Note_on_c, 0, 76, 64
2, 15600, Note_on_c, 0, 46, 64
2, 15660, Note_off_c, 0, 46, 64
2, 15660, Note_on_c, 0, 44, 64
2, 15720, Note_off_c, 0, 44, 64
2, 15720, Note_off_c, 0, 76, 64
2, 15720, Note_on_c, 0, 64, 64
2, 15720, Note_on_c, 0, 61, 64
2, 15720, Note_on_c, 0, 66, 64
2, 15720, Note_on_c, 0, 46, 64
2, 15780, Note_off_c, 0, 46, 64
2, 15780, Note_on_c, 0, 47, 64
2, 15840, Note_off_c, 0, 47, 64
2, 15840, Note_off_c, 0, 66, 64
2, 15840, Note_off_c, 0, 61, 64
2, 15840, Note_off_c, 0, 64, 64
2, 15840, Note_on_c, 0, 66, 64
2, 15840, Note_on_c, 0, 58, 64
2, 15840, Note_on_c, 0, 64, 64
2, 15840, Note_on_c, 0, 49, 64
2, 15900, Note_off_c, 0, 49, 64
2, 15900, Note_on_c, 0, 46, 64
2, 15960, Note_off_c, 0, 46, 64
2, 15960, Note_on_c, 0, 44, 64
2, 16020, Note_off_c, 0, 44, 64
2, 16020, Note_on_c, 0, 42, 64
2, 16080, Note_off_c, 0, 42, 64
2, 16080, Note_off_c, 0, 58, 64
2, 16080, Note_on_c, 0, 59, 64
2, 16080, Note_on_c, 0, 47, 64
2, 16140, Note_off_c, 0, 64, 64
2, 16140, Note_on_c, 0, 63, 64
2, 16200, Note_off_c, 0, 47, 64
2, 16200, Note_off_c, 0, 66, 64
2, 16200, Note_on_c, 0, 68, 64
2, 16200, Note_on_c, 0, 44, 64
2, 16260, Note_off_c, 0, 68, 64
2, 16260, Note_on_c, 0, 71, 64
2, 16320, Note_off_c, 0, 44, 64
2, 16320, Note_off_c, 0, 63, 64
2, 16320, Note_off_c, 0, 59, 64
2, 16320, Note_on_c, 0, 61, 64
2, 16320, Note_on_c, 0, 40, 64
2, 16380, Note_off_c, 0, 71, 64
2, 16380, Note_on_c, 0, 71, 64
2, 16440, Note_off_c, 0, 40, 64
2, 16440, Note_off_c, 0, 61, 64
2, 16440, Note_on_c, 0, 54, 64
2, 16440, Note_on_c, 0, 42, 64
2, 16440, Note_on_c, 0, 64, 64
2, 16500, Note_off_c, 0, 71, 64
2, 16500, Note_on_c, 0, 70, 64
2, 16560, Note_off_c, 0, 70, 64
2, 16560, Note_off_c, 0, 42, 64
2, 16560, Note_on_c, 0, 47, 64
2, 16560, Note_on_c, 0, 71, 64
2, 16620, Note_off_c, 0, 64, 64
2, 16620, Note_on_c, 0, 63, 64
2, 16680, Note_off_c, 0, 71, 64
2, 16680, Note_off_c, 0, 54, 39
2, 16680, Note_on_c, 0, 55, 64
2, 16680, Note_on_c, 0, 64, 64
2, 16740, Note_off_c, 0, 63, 64
2, 16740, Note_on_c, 0, 61, 64
2, 16800, Note_off_c, 0, 64, 64
2, 16800, Note_off_c, 0, 55, 55
2, 16800, Note_on_c, 0, 54, 64
2, 16800, Note_on_c, 0, 63, 64
2, 16860, Note_off_c, 0, 61, 64
2, 16860, Note_on_c, 0, 59, 64
2, 16920, Note_off_c, 0, 63, 64
2, 16920, Note_off_c, 0, 54, 43
2, 16920, Note_on_c, 0, 52, 64
2, 16920, Note_on_c, 0, 61, 64
2, 16980, Note_off_c, 0, 59, 64
2, 16980, Note_on_c, 0, 58, 64
2, 17040, Note_off_c, 0, 58, 64
2, 17040, Note_off_c, 0, 61, 64
2, 17040, Note_off_c, 0, 52, 43
2, 17040, Note_on_c, 0, 54, 64
2, 17040, Note_on_c, 0, 59, 64
2, 17040, Note_on_c, 0, 63, 64
2, 17280, Note_off_c, 0, 63, 64
2, 17280, Note_off_c, 0, 59, 64
2, 17280, Note_off_c, 0, 54, 41
2, 17280, Note_off_c, 0, 47, 64
2, 17280, Note_on_c, 0, 52, 64
2, 17400, Note_on_c, 0, 71, 64
2, 17520, Note_off_c, 0, 71, 64
2, 17520, Note_on_c, 0, 73, 64
2, 17640, Note_on_c, 0, 68, 64
2, 17760, Note_off_c, 0, 68, 64
2, 17760, Note_on_c, 0, 69, 64
2, 17820, Note_off_c, 0, 73, 64
2, 17820, Note_on_c, 0, 73, 64
2, 17880, Note_off_c, 0, 73, 64
2, 17880, Note_on_c, 0, 71, 64
2, 17940, Note_off_c, 0, 71, 64
2, 17940, Note_on_c, 0, 69, 64
2, 18000, Note_off_c, 0, 69, 64
2, 18000, Note_on_c, 0, 71, 64
2, 18060, Note_off_c, 0, 69, 64
2, 18060, Note_on_c, 0, 69, 64
2, 18120, Note_off_c, 0, 69, 64
2, 18120, Note_on_c, 0, 68, 64
2, 18180, Note_off_c, 0, 68, 64
2, 18180, Note_on_c, 0, 66, 64
2, 18240, Note_off_c, 0, 66, 64
2, 18240, Note_on_c, 0, 68, 64
2, 18300, Note_off_c, 0, 71, 64
2, 18300, Note_on_c, 0, 71, 64
2, 18360, Note_off_c, 0, 71, 64
2, 18360, Note_off_c, 0, 68, 64
2, 18360, Note_on_c, 0, 76, 64
2, 18420, Note_off_c, 0, 76, 64
2, 18420, Note_on_c, 0, 75, 64
2, 18480, Note_off_c, 0, 75, 64
2, 18480, Note_on_c, 0, 73, 64
2, 18540, Note_off_c, 0, 73, 64
2, 18540, Note_on_c, 0, 71, 64
2, 18600, Note_off_c, 0, 71, 64
2, 18600, Note_on_c, 0, 69, 64
2, 18660, Note_off_c, 0, 69, 64
2, 18660, Note_on_c, 0, 68, 64
2, 18720, Note_off_c, 0, 68, 64
2, 18720, Note_on_c, 0, 69, 64
2, 18780, Note_on_c, 0, 68, 64
2, 18840, Note_off_c, 0, 68, 64
2, 18840, Note_on_c, 0, 66, 64
2, 18900, Note_off_c, 0, 66, 64
2, 18900, Note_on_c, 0, 64, 64
2, 18960, Note_off_c, 0, 64, 64
2, 18960, Note_on_c, 0, 66, 64
2, 19020, Note_off_c, 0, 52, 64
2, 19020, Note_on_c, 0, 52, 64
2, 19080, Note_off_c, 0, 52, 64
2, 19080, Note_on_c, 0, 51, 64
2, 19140, Note_off_c, 0, 51, 64
2, 19140, Note_on_c, 0, 49, 64
2, 19200, Note_off_c, 0, 49, 64
2, 19200, Note_on_c, 0, 51, 64
2, 19260, Note_off_c, 0, 51, 64
2, 19260, Note_on_c, 0, 54, 64
2, 19320, Note_off_c, 0, 54, 64
2, 19320, Note_on_c, 0, 47, 64
2, 19380, Note_off_c, 0, 47, 64
2, 19380, Note_on_c, 0, 51, 64
2, 19440, Note_off_c, 0, 51, 64
2, 19440, Note_on_c, 0, 52, 64
2, 19500, Note_off_c, 0, 69, 64
2, 19500, Note_on_c, 0, 69, 64
2, 19560, Note_off_c, 0, 69, 64
2, 19560, Note_off_c, 0, 52, 64
2, 19560, Note_on_c, 0, 68, 64
2, 19560, Note_on_c, 0, 40, 64
2, 19620, Note_off_c, 0, 68, 64
2, 19620, Note_on_c, 0, 66, 64
2, 19680, Note_off_c, 0, 40, 64
2, 19680, Note_off_c, 0, 66, 64
2, 19680, Note_on_c, 0, 68, 64
2, 19680, Note_on_c, 0, 52, 64
2, 19740, Note_off_c, 0, 66, 64
2, 19740, Note_on_c, 0, 66, 64
2, 19800, Note_off_c, 0, 66, 64
2, 19800, Note_off_c, 0, 52, 64
2, 19800, Note_on_c, 0, 64, 64
2, 19800, Note_on_c, 0, 54, 64
2, 19860, Note_off_c, 0, 64, 64
2, 19860, Note_on_c, 0, 63, 64
2, 19920, Note_off_c, 0, 63, 64
2, 19920, Note_off_c, 0, 54, 64
2, 19920, Note_on_c, 0, 64, 64
2, 19920, Note_on_c, 0, 56, 64
2, 19980, Note_off_c, 0, 68, 64
2, 19980, Note_on_c, 0, 68, 64
2, 20040, Note_off_c, 0, 68, 64
2, 20040, Note_off_c, 0, 56, 64
2, 20040, Note_off_c, 0, 64, 64
2, 20040, Note_on_c, 0, 57, 64
2, 20040, Note_on_c, 0, 66, 64
2, 20100, Note_off_c, 0, 66, 64
2, 20100, Note_on_c, 0, 64, 64
2, 20160, Note_off_c, 0, 64, 64
2, 20160, Note_off_c, 0, 57, 64
2, 20160, Note_on_c, 0, 59, 64
2, 20160, Note_on_c, 0, 63, 64
2, 20280, Note_off_c, 0, 63, 64
2, 20280, Note_on_c, 0, 66, 64
2, 20400, Note_off_c, 0, 66, 64
2, 20400, Note_on_c, 0, 68, 64
2, 20520, Note_on_c, 0, 75, 64
2, 20640, Note_off_c, 0, 75, 64
2, 20640, Note_on_c, 0, 76, 64
2, 20700, Note_off_c, 0, 68, 64
2, 20700, Note_on_c, 0, 68, 64
2, 20760, Note_off_c, 0, 68, 64
2, 20760, Note_on_c, 0, 66, 64
2, 20820, Note_off_c, 0, 66, 64
2, 20820, Note_on_c, 0, 64, 64
2, 20880, Note_off_c, 0, 64, 64
2, 20880, Note_on_c, 0, 66, 64
2, 20940, Note_off_c, 0, 76, 64
2, 20940, Note_on_c, 0, 76, 64
2, 21000, Note_off_c, 0, 76, 64
2, 21000, Note_on_c, 0, 75, 64
2, 21060, Note_off_c, 0, 75, 64
2, 21060, Note_on_c, 0, 73, 64
2, 21120, Note_off_c, 0, 73, 64
2, 21120, Note_on_c, 0, 75, 64
2, 21180, Note_off_c, 0, 66, 64
2, 21180, Note_on_c, 0, 66, 64
2, 21240, Note_off_c, 0, 66, 64
2, 21240, Note_off_c, 0, 75, 64
2, 21240, Note_on_c, 0, 71, 64
2, 21300, Note_off_c, 0, 71, 64
2, 21300, Note_on_c, 0, 69, 64
2, 21360, Note_off_c, 0, 69, 64
2, 21360, Note_on_c, 0, 68, 64
2, 21420, Note_off_c, 0, 68, 64
2, 21420, Note_on_c, 0, 66, 64
2, 21480, Note_off_c, 0, 66, 64
2, 21480, Note_on_c, 0, 64, 64
2, 21540, Note_off_c, 0, 64, 64
2, 21540, Note_on_c, 0, 63, 64
2, 21600, Note_off_c, 0, 63, 64
2, 21600, Note_on_c, 0, 64, 64
2, 21660, Note_on_c, 0, 75, 64
2, 21720, Note_off_c, 0, 75, 64
2, 21720, Note_on_c, 0, 73, 64
2, 21780, Note_off_c, 0, 73, 64
2, 21780, Note_on_c, 0, 71, 64
2, 21840, Note_off_c, 0, 71, 64
2, 21840, Note_on_c, 0, 73, 64
2, 21900, Note_off_c, 0, 59, 64
2, 21900, Note_on_c, 0, 59, 64
2, 21960, Note_off_c, 0, 59, 64
2, 21960, Note_on_c, 0, 58, 64
2, 22020, Note_off_c, 0, 58, 64
2, 22020, Note_on_c, 0, 56, 64
2, 22080, Note_off_c, 0, 56, 64
2, 22080, Note_on_c, 0, 58, 64
2, 22140, Note_off_c, 0, 58, 64
2, 22140, Note_on_c, 0, 61, 64
2, 22200, Note_off_c, 0, 61, 64
2, 22200, Note_on_c, 0, 54, 64
2, 22260, Note_off_c, 0, 54, 64
2, 22260, Note_on_c, 0, 58, 64
2, 22320, Note_off_c, 0, 58, 64
2, 22320, Note_on_c, 0, 59, 64
2, 22380, Note_off_c, 0, 64, 64
2, 22380, Note_on_c, 0, 64, 64
2, 22440, Note_off_c, 0, 64, 64
2, 22440, Note_on_c, 0, 63, 64
2, 22500, Note_off_c, 0, 63, 64
2, 22500, Note_on_c, 0, 61, 64
2, 22560, Note_off_c, 0, 61, 64
2, 22560, Note_on_c, 0, 63, 64
2, 22620, Note_off_c, 0, 73, 64
2, 22620, Note_on_c, 0, 73, 64
2, 22680, Note_off_c, 0, 73, 64
2, 22680, Note_on_c, 0, 71, 64
2, 22740, Note_off_c, 0, 71, 64
2, 22740, Note_on_c, 0, 70, 64
2, 22800, Note_off_c, 0, 70, 64
2, 22800, Note_on_c, 0, 71, 64
2, 22860, Note_off_c, 0, 59, 64
2, 22860, Note_on_c, 0, 61, 64
2, 22920, Note_off_c, 0, 61, 64
2, 22920, Note_on_c, 0, 59, 64
2, 22980, Note_off_c, 0, 59, 64
2, 22980, Note_on_c, 0, 57, 64
2, 23040, Note_off_c, 0, 57, 64
2, 23040, Note_off_c, 0, 63, 64
2, 23040, Note_on_c, 0, 56, 64
2, 23100, Note_off_c, 0, 71, 64
2, 23100, Note_on_c, 0, 69, 64
2, 23160, Note_off_c, 0, 69, 64
2, 23160, Note_on_c, 0, 68, 64
2, 23160, Note_on_c, 0, 57, 64
2, 23220, Note_off_c, 0, 68, 64
2, 23220, Note_on_c, 0, 66, 64
2, 23280, Note_off_c, 0, 66, 64
2, 23280, Note_off_c, 0, 57, 64
2, 23280, Note_on_c, 0, 65, 64
2, 23280, Note_on_c, 0, 59, 64
2, 23340, Note_off_c, 0, 65, 64
2, 23340, Note_on_c, 0, 68, 64
2, 23400, Note_off_c, 0, 68, 64
2, 23400, Note_off_c, 0, 59, 64
2, 23400, Note_on_c, 0, 71, 64
2, 23400, Note_on_c, 0, 62, 64
2, 23460, Note_off_c, 0, 62, 64
2, 23460, Note_off_c, 0, 71, 64
2, 23460, Note_on_c, 0, 74, 64
2, 23460, Note_on_c, 0, 65, 64
2, 23520, Note_off_c, 0, 65, 64
2, 23520, Note_on_c, 0, 66, 64
2, 23580, Note_off_c, 0, 74, 64
2, 23580, Note_on_c, 0, 74, 64
2, 23640, Note_off_c, 0, 74, 64
2, 23640, Note_off_c, 0, 66, 64
2, 23640, Note_on_c, 0, 65, 64
2, 23640, Note_on_c, 0, 73, 64
2, 23700, Note_off_c, 0, 73, 64
2, 23700, Note_on_c, 0, 71, 64
2, 23760, Note_off_c, 0, 56, 64
2, 23760, Note_on_c, 0, 54, 64
2, 23820, Note_off_c, 0, 71, 64
2, 23820, Note_on_c, 0, 69, 64
2, 23880, Note_off_c, 0, 69, 64
2, 23880, Note_off_c, 0, 65, 64
2, 23880, Note_on_c, 0, 68, 64
2, 23880, Note_on_c, 0, 65, 64
2, 23940, Note_off_c, 0, 68, 64
2, 23940, Note_on_c, 0, 71, 64
2, 24000, Note_off_c, 0, 71, 64
2, 24000, Note_off_c, 0, 65, 64
2, 24000, Note_on_c, 0, 69, 64
2, 24000, Note_on_c, 0, 66, 64
2, 24060, Note_off_c, 0, 69, 64
2, 24060, Note_on_c, 0, 73, 64
2, 24120, Note_off_c, 0, 73, 64
2, 24120, Note_off_c, 0, 66, 64
2, 24120, Note_on_c, 0, 78, 64
2, 24120, Note_on_c, 0, 64, 64
2, 24180, Note_off_c, 0, 78, 64
2, 24180, Note_on_c, 0, 81, 64
2, 24240, Note_off_c, 0, 64, 64
2, 24240, Note_on_c, 0, 63, 64
2, 24300, Note_off_c, 0, 81, 64
2, 24300, Note_on_c, 0, 78, 64
2, 24360, Note_off_c, 0, 78, 64
2, 24360, Note_off_c, 0, 63, 64
2, 24360, Note_on_c, 0, 61, 64
2, 24360, Note_on_c, 0, 80, 64
2, 24420, Note_off_c, 0, 80, 64
2, 24420, Note_on_c, 0, 81, 64
2, 24480, Note_off_c, 0, 81, 64
2, 24480, Note_off_c, 0, 61, 64
2, 24480, Note_on_c, 0, 72, 64
2, 24480, Note_on_c, 0, 63, 64
2, 24540, Note_off_c, 0, 54, 64
2, 24540, Note_on_c, 0, 52, 64
2, 24600, Note_off_c, 0, 52, 64
2, 24600, Note_off_c, 0, 63, 64
2, 24600, Note_off_c, 0, 72, 64
2, 24600, Note_on_c, 0, 73, 64
2, 24600, Note_on_c, 0, 64, 64
2, 24600, Note_on_c, 0, 51, 64
2, 24660, Note_off_c, 0, 51, 64
2, 24660, Note_on_c, 0, 49, 64
2, 24720, Note_off_c, 0, 49, 64
2, 24720, Note_off_c, 0, 64, 64
2, 24720, Note_off_c, 0, 73, 64
2, 24720, Note_on_c, 0, 75, 64
2, 24720, Note_on_c, 0, 66, 64
2, 24720, Note_on_c, 0, 48, 64
2, 24780, Note_off_c, 0, 48, 64
2, 24780, Note_on_c, 0, 51, 64
2, 24840, Note_off_c, 0, 51, 64
2, 24840, Note_off_c, 0, 66, 64
2, 24840, Note_on_c, 0, 69, 64
2, 24840, Note_on_c, 0, 54, 64
2, 24900, Note_off_c, 0, 54, 64
2, 24900, Note_off_c, 0, 69, 64
2, 24900, Note_on_c, 0, 72, 64
2, 24900, Note_on_c, 0, 57, 64
2, 24960, Note_off_c, 0, 72, 64
2, 24960, Note_on_c, 0, 73, 64
2, 25020, Note_off_c, 0, 57, 64
2, 25020, Note_on_c, 0, 57, 64
2, 25080, Note_off_c, 0, 57, 64
2, 25080, Note_off_c, 0, 73, 64
2, 25080, Note_on_c, 0, 72, 64
2, 25080, Note_on_c, 0, 56, 64
2, 25140, Note_off_c, 0, 56, 64
2, 25140, Note_on_c, 0, 54, 64
2, 25200, Note_off_c, 0, 72, 64
2, 25200, Note_off_c, 0, 75, 64
2, 25200, Note_on_c, 0, 73, 64
2, 25260, Note_off_c, 0, 54, 64
2, 25260, Note_on_c, 0, 52, 64
2, 25320, Note_off_c, 0, 52, 64
2, 25320, Note_on_c, 0, 68, 64
2, 25320, Note_on_c, 0, 51, 64
2, 25380, Note_off_c, 0, 51, 64
2, 25380, Note_on_c, 0, 54, 64
2, 25440, Note_off_c, 0, 54, 64
2, 25440, Note_off_c, 0, 68, 64
2, 25440, Note_off_c, 0, 73, 64
2, 25440, Note_on_c, 0, 73, 64
2, 25440, Note_on_c, 0, 52, 64
2, 25500, Note_off_c, 0, 52, 64
2, 25500, Note_on_c, 0, 56, 64
2, 25560, Note_off_c, 0, 56, 64
2, 25560, Note_off_c, 0, 73, 64
2, 25560, Note_on_c, 0, 76, 64
2, 25560, Note_on_c, 0, 61, 64
2, 25620, Note_off_c, 0, 61, 64
2, 25620, Note_on_c, 0, 64, 64
2, 25680, Note_off_c, 0, 76, 64
2, 25680, Note_on_c, 0, 67, 64
2, 25680, Note_on_c, 0, 70, 64
2, 25740, Note_off_c, 0, 64, 64
2, 25740, Note_on_c, 0, 61, 64
2, 25800, Note_off_c, 0, 61, 64
2, 25800, Note_off_c, 0, 70, 64
2, 25800, Note_on_c, 0, 71, 64
2, 25800, Note_on_c, 0, 63, 64
2, 25860, Note_off_c, 0, 63, 64
2, 25860, Note_off_c, 0, 71, 64
2, 25860, Note_on_c, 0, 73, 64
2, 25860, Note_on_c, 0, 64, 64
2, 25920, Note_off_c, 0, 64, 64
2, 25920, Note_off_c, 0, 67, 64
2, 25920, Note_on_c, 0, 66, 64
2, 25920, Note_on_c, 0, 58, 64
2, 25980, Note_off_c, 0, 73, 64
2, 25980, Note_on_c, 0, 65, 64
2, 26040, Note_off_c, 0, 65, 64
2, 26040, Note_off_c, 0, 58, 64
2, 26040, Note_off_c, 0, 66, 64
2, 26040, Note_on_c, 0, 66, 64
2, 26040, Note_on_c, 0, 61, 64
2, 26100, Note_off_c, 0, 66, 64
2, 26100, Note_on_c, 0, 68, 64
2, 26160, Note_off_c, 0, 68, 64
2, 26160, Note_off_c, 0, 61, 64
2, 26160, Note_on_c, 0, 70, 64
2, 26160, Note_on_c, 0, 66, 64
2, 26220, Note_off_c, 0, 70, 64
2, 26220, Note_on_c, 0, 71, 64
2, 26280, Note_off_c, 0, 71, 64
2, 26280, Note_off_c, 0, 66, 64
2, 26280, Note_on_c, 0, 73, 64
2, 26280, Note_on_c, 0, 61, 64
2, 26340, Note_off_c, 0, 73, 64
2, 26340, Note_on_c, 0, 75, 64
2, 26400, Note_off_c, 0, 75, 64
2, 26400, Note_off_c, 0, 61, 64
2, 26400, Note_on_c, 0, 76, 64
2, 26400, Note_on_c, 0, 58, 64
2, 26460, Note_off_c, 0, 76, 64
2, 26460, Note_on_c, 0, 75, 64
2, 26520, Note_off_c, 0, 75, 64
2, 26520, Note_off_c, 0, 58, 64
2, 26520, Note_on_c, 0, 54, 64
2, 26520, Note_on_c, 0, 76, 64
2, 26580, Note_off_c, 0, 76, 64
2, 26580, Note_on_c, 0, 73, 64
2, 26640, Note_off_c, 0, 73, 64
2, 26640, Note_off_c, 0, 54, 64
2, 26640, Note_on_c, 0, 75, 64
2, 26640, Note_on_c, 0, 59, 64
2, 26700, Note_on_c, 0, 58, 64
2, 26760, Note_off_c, 0, 58, 64
2, 26760, Note_off_c, 0, 59, 64
2, 26760, Note_on_c, 0, 59, 64
2, 26820, Note_off_c, 0, 59, 64
2, 26820, Note_on_c, 0, 61, 64
2, 26880, Note_off_c, 0, 61, 64
2, 26880, Note_on_c, 0, 63, 64
2, 26940, Note_off_c, 0, 63, 64
2, 26940, Note_on_c, 0, 64, 64
2, 27000, Note_off_c, 0, 64, 64
2, 27000, Note_on_c, 0, 66, 64
2, 27060, Note_off_c, 0, 66, 64
2, 27060, Note_on_c, 0, 68, 64
2, 27120, Note_off_c, 0, 68, 64
2, 27120, Note_on_c, 0, 69, 64
2, 27180, Note_off_c, 0, 69, 64
2, 27180, Note_on_c, 0, 68, 64
2, 27240, Note_off_c, 0, 68, 64
2, 27240, Note_on_c, 0, 69, 64
2, 27300, Note_off_c, 0, 69, 64
2, 27300, Note_on_c, 0, 66, 64
2, 27360, Note_off_c, 0, 66, 64
2, 27360, Note_on_c, 0, 68, 64
2, 27420, Note_off_c, 0, 68, 64
2, 27420, Note_on_c, 0, 66, 64
2, 27420, Note_on_c, 0, 51, 64
2, 27480, Note_off_c, 0, 51, 64
2, 27480, Note_off_c, 0, 66, 64
2, 27480, Note_on_c, 0, 68, 64
2, 27480, Note_on_c, 0, 52, 64
2, 27540, Note_off_c, 0, 52, 64
2, 27540, Note_off_c, 0, 68, 64
2, 27540, Note_on_c, 0, 70, 64
2, 27540, Note_on_c, 0, 54, 64
2, 27600, Note_off_c, 0, 54, 64
2, 27600, Note_off_c, 0, 70, 64
2, 27600, Note_off_c, 0, 75, 64
2, 27600, Note_on_c, 0, 74, 64
2, 27600, Note_on_c, 0, 71, 64
2, 27600, Note_on_c, 0, 56, 64
2, 27660, Note_off_c, 0, 56, 64
2, 27660, Note_on_c, 0, 58, 64
2, 27720, Note_off_c, 0, 58, 64
2, 27720, Note_off_c, 0, 71, 64
2, 27720, Note_off_c, 0, 74, 64
2, 27720, Note_on_c, 0, 71, 64
2, 27720, Note_on_c, 0, 68, 64
2, 27720, Note_on_c, 0, 59, 64
2, 27780, Note_off_c, 0, 59, 64
2, 27780, Note_on_c, 0, 61, 64
2, 27840, Note_off_c, 0, 61, 64
2, 27840, Note_off_c, 0, 68, 64
2, 27840, Note_off_c, 0, 71, 64
2, 27840, Note_on_c, 0, 65, 64
2, 27840, Note_on_c, 0, 68, 64
2, 27840, Note_on_c, 0, 62, 64
2, 27900, Note_off_c, 0, 62, 64
2, 27900, Note_on_c, 0, 61, 64
2, 27960, Note_off_c, 0, 61, 64
2, 27960, Note_off_c, 0, 68, 64
2, 27960, Note_on_c, 0, 71, 64
2, 27960, Note_on_c, 0, 62, 64
2, 28020, Note_off_c, 0, 62, 64
2, 28020, Note_on_c, 0, 59, 64
2, 28080, Note_off_c, 0, 59, 64
2, 28080, Note_off_c, 0, 65, 64
2, 28080, Note_on_c, 0, 64, 64
2, 28080, Note_on_c, 0, 61, 64
2, 28140, Note_off_c, 0, 71, 64
2, 28140, Note_on_c, 0, 71, 64
2, 28200, Note_off_c, 0, 71, 64
2, 28200, Note_on_c, 0, 70, 64
2, 28260, Note_off_c, 0, 70, 64
2, 28260, Note_on_c, 0, 68, 64
2, 28320, Note_off_c, 0, 68, 64
2, 28320, Note_on_c, 0, 70, 64
2, 28380, Note_off_c, 0, 70, 64
2, 28380, Note_on_c, 0, 71, 64
2, 28440, Note_off_c, 0, 71, 64
2, 28440, Note_off_c, 0, 61, 64
2, 28440, Note_on_c, 0, 73, 64
2, 28440, Note_on_c, 0, 59, 64
2, 28500, Note_off_c, 0, 73, 64
2, 28500, Note_on_c, 0, 70, 64
2, 28560, Note_off_c, 0, 70, 64
2, 28560, Note_off_c, 0, 59, 64
2, 28560, Note_on_c, 0, 58, 64
2, 28560, Note_on_c, 0, 66, 64
2, 28620, Note_off_c, 0, 64, 64
2, 28620, Note_on_c, 0, 64, 64
2, 28680, Note_off_c, 0, 64, 64
2, 28680, Note_off_c, 0, 66, 64
2, 28680, Note_on_c, 0, 78, 64
2, 28680, Note_on_c, 0, 63, 64
2, 28740, Note_off_c, 0, 63, 64
2, 28740, Note_on_c, 0, 61, 64
2, 28800, Note_off_c, 0, 61, 64
2, 28800, Note_off_c, 0, 58, 64
2, 28800, Note_on_c, 0, 59, 64
2, 28800, Note_on_c, 0, 63, 64
2, 28860, Note_off_c, 0, 78, 64
2, 28860, Note_on_c, 0, 76, 64
2, 28920, Note_off_c, 0, 76, 64
2, 28920, Note_off_c, 0, 63, 64
2, 28920, Note_off_c, 0, 59, 64
2, 28920, Note_on_c, 0, 80, 64
2, 28920, Note_on_c, 0, 58, 64
2, 28920, Note_on_c, 0, 54, 64
2, 28980, Note_off_c, 0, 80, 64
2, 28980, Note_on_c, 0, 78, 64
2, 29040, Note_off_c, 0, 78, 64
2, 29040, Note_off_c, 0, 54, 64
2, 29040, Note_off_c, 0, 58, 64
2, 29040, Note_on_c, 0, 76, 64
2, 29040, Note_on_c, 0, 59, 64
2, 29040, Note_on_c, 0, 56, 64
2, 29100, Note_off_c, 0, 76, 64
2, 29100, Note_on_c, 0, 75, 64
2, 29160, Note_off_c, 0, 75, 64
2, 29160, Note_off_c, 0, 56, 64
2, 29160, Note_on_c, 0, 73, 64
2, 29160, Note_on_c, 0, 52, 64
2, 29220, Note_off_c, 0, 73, 64
2, 29220, Note_on_c, 0, 71, 64
2, 29280, Note_off_c, 0, 71, 64
2, 29280, Note_off_c, 0, 52, 64
2, 29280, Note_on_c, 0, 54, 64
2, 29280, Note_on_c, 0, 75, 64
2, 29340, Note_off_c, 0, 75, 64
2, 29340, Note_on_c, 0, 66, 64
2, 29400, Note_off_c, 0, 66, 64
2, 29400, Note_off_c, 0, 59, 64
2, 29400, Note_on_c, 0, 58, 64
2, 29400, Note_on_c, 0, 73, 64
2, 29460, Note_off_c, 0, 73, 64
2, 29460, Note_on_c, 0, 64, 64
2, 29520, Note_off_c, 0, 64, 64
2, 29520, Note_off_c, 0, 58, 64
2, 29520, Note_off_c, 0, 54, 64
2, 29520, Note_on_c, 0, 63, 64
2, 29520, Note_on_c, 0, 59, 64
2, 29580, Note_off_c, 0, 63, 64
2, 29580, Note_on_c, 0, 66, 64
2, 29640, Note_off_c, 0, 66, 64
2, 29640, Note_on_c, 0, 71, 64
2, 29640, Note_on_c, 0, 47, 64
2, 29700, Note_off_c, 0, 71, 64
2, 29700, Note_on_c, 0, 70, 64
2, 29760, Note_off_c, 0, 70, 64
2, 29760, Note_off_c, 0, 47, 64
2, 29760, Note_off_c, 0, 59, 64
2, 29760, Note_on_c, 0, 71, 64
2, 29760, Note_on_c, 0, 47, 64
2, 29820, Note_on_c, 0, 66, 64
2, 29880, Note_off_c, 0, 66, 64
2, 29880, Note_off_c, 0, 47, 64
2, 29880, Note_on_c, 0, 64, 64
2, 29880, Note_on_c, 0, 59, 64
2, 29940, Note_off_c, 0, 64, 64
2, 29940, Note_on_c, 0, 66, 64
2, 30000, Note_off_c, 0, 59, 64
2, 30000, Note_off_c, 0, 71, 64
2, 30000, Note_on_c, 0, 68, 64
2, 30000, Note_on_c, 0, 59, 64
2, 30060, Note_off_c, 0, 66, 64
2, 30060, Note_on_c, 0, 64, 64
2, 30120, Note_off_c, 0, 64, 64
2, 30120, Note_off_c, 0, 59, 64
2, 30120, Note_on_c, 0, 47, 64
2, 30120, Note_on_c, 0, 63, 64
2, 30180, Note_off_c, 0, 63, 64
2, 30180, Note_on_c, 0, 64, 64
2, 30240, Note_off_c, 0, 47, 64
2, 30240, Note_off_c, 0, 68, 64
2, 30240, Note_on_c, 0, 66, 64
2, 30240, Note_on_c, 0, 59, 64
2, 30300, Note_off_c, 0, 66, 64
2, 30300, Note_on_c, 0, 68, 64
2, 30360, Note_off_c, 0, 68, 64
2, 30360, Note_off_c, 0, 59, 64
2, 30360, Note_on_c, 0, 69, 64
2, 30360, Note_on_c, 0, 47, 64
2, 30420, Note_off_c, 0, 69, 64
2, 30420, Note_on_c, 0, 68, 64
2, 30480, Note_off_c, 0, 68, 64
2, 30480, Note_off_c, 0, 47, 64
2, 30480, Note_off_c, 0, 64, 64
2, 30480, Note_on_c, 0, 69, 64
2, 30480, Note_on_c, 0, 47, 64
2, 30540, Note_on_c, 0, 64, 64
2, 30600, Note_off_c, 0, 64, 64
2, 30600, Note_off_c, 0, 47, 64
2, 30600, Note_on_c, 0, 63, 64
2, 30600, Note_on_c, 0, 59, 64
2, 30660, Note_off_c, 0, 63, 64
2, 30660, Note_on_c, 0, 64, 64
2, 30720, Note_off_c, 0, 59, 64
2, 30720, Note_off_c, 0, 69, 64
2, 30720, Note_on_c, 0, 66, 64
2, 30720, Note_on_c, 0, 59, 64
2, 30780, Note_off_c, 0, 64, 64
2, 30780, Note_on_c, 0, 63, 64
2, 30840, Note_off_c, 0, 63, 64
2, 30840, Note_off_c, 0, 59, 64
2, 30840, Note_on_c, 0, 47, 64
2, 30840, Note_on_c, 0, 61, 64
2, 30900, Note_off_c, 0, 61, 64
2, 30900, Note_on_c, 0, 63, 64
2, 30960, Note_off_c, 0, 47, 64
2, 30960, Note_off_c, 0, 66, 64
2, 30960, Note_on_c, 0, 64, 64
2, 30960, Note_on_c, 0, 59, 64
2, 31020, Note_off_c, 0, 64, 64
2, 31020, Note_on_c, 0, 66, 64
2, 31080, Note_off_c, 0, 66, 64
2, 31080, Note_off_c, 0, 59, 64
2, 31080, Note_on_c, 0, 67, 64
2, 31080, Note_on_c, 0, 47, 64
2, 31140, Note_off_c, 0, 67, 64
2, 31140, Note_on_c, 0, 66, 64
2, 31200, Note_off_c, 0, 66, 64
2, 31200, Note_off_c, 0, 47, 64
2, 31200, Note_off_c, 0, 63, 64
2, 31200, Note_on_c, 0, 67, 64
2, 31200, Note_on_c, 0, 47, 64
2, 31260, Note_on_c, 0, 63, 64
2, 31320, Note_off_c, 0, 63, 64
2, 31320, Note_off_c, 0, 47, 64
2, 31320, Note_on_c, 0, 61, 64
2, 31320, Note_on_c, 0, 59, 64
2, 31380, Note_off_c, 0, 61, 64
2, 31380, Note_on_c, 0, 63, 64
2, 31440, Note_off_c, 0, 59, 64
2, 31440, Note_off_c, 0, 67, 64
2, 31440, Note_on_c, 0, 64, 64
2, 31440, Note_on_c, 0, 59, 64
2, 31500, Note_off_c, 0, 63, 64
2, 31500, Note_on_c, 0, 61, 64
2, 31560, Note_off_c, 0, 61, 64
2, 31560, Note_off_c, 0, 59, 64
2, 31560, Note_on_c, 0, 47, 64
2, 31560, Note_on_c, 0, 59, 64
2, 31620, Note_off_c, 0, 59, 64
2, 31620, Note_on_c, 0, 61, 64
2, 31680, Note_off_c, 0, 47, 64
2, 31680, Note_on_c, 0, 59, 64
2, 31800, Note_off_c, 0, 59, 64
2, 31800, Note_off_c, 0, 64, 64
2, 31800, Note_on_c, 0, 59, 64
2, 31800, Note_on_c, 0, 73, 64
2, 31830, Note_off_c, 0, 59, 64
2, 31832, Note_on_c, 0, 58, 64
2, 31860, Note_on_c, 0, 59, 64
2, 31862, Note_off_c, 0, 58, 64
2, 31890, Note_off_c, 0, 59, 64
2, 31892, Note_on_c, 0, 58, 64
2, 31920, Note_off_c, 0, 73, 64
2, 31920, Note_off_c, 0, 61, 64
2, 31920, Note_on_c, 0, 59, 64
2, 31920, Note_on_c, 0, 73, 64
2, 31922, Note_off_c, 0, 58, 64
2, 31950, Note_off_c, 0, 59, 64
2, 31950, Note_on_c, 0, 58, 64
2, 31980, Note_off_c, 0, 58, 64
2, 31980, Note_on_c, 0, 54, 64
2, 32040, Note_off_c, 0, 54, 64
2, 32040, Note_off_c, 0, 73, 64
2, 32040, Note_on_c, 0, 64, 64
2, 32040, Note_on_c, 0, 61, 64
2, 32040, Note_on_c, 0, 56, 64
2, 32100, Note_off_c, 0, 56, 64
2, 32100, Note_on_c, 0, 58, 64
2, 32160, Note_off_c, 0, 58, 64
2, 32160, Note_off_c, 0, 61, 64
2, 32160, Note_off_c, 0, 64, 64
2, 32160, Note_on_c, 0, 59, 64
2, 32160, Note_on_c, 0, 63, 64
2, 32160, Note_on_c, 0, 59, 64
2, 32220, Note_off_c, 0, 59, 64
2, 32220, Note_on_c, 0, 56, 64
2, 32280, Note_off_c, 0, 56, 64
2, 32280, Note_off_c, 0, 63, 64
2, 32280, Note_on_c, 0, 78, 64
2, 32280, Note_on_c, 0, 54, 64
2, 32340, Note_off_c, 0, 54, 64
2, 32340, Note_on_c, 0, 52, 64
2, 32400, Note_off_c, 0, 52, 64
2, 32400, Note_off_c, 0, 78, 64
2, 32400, Note_off_c, 0, 59, 64
2, 32400, Note_on_c, 0, 78, 64
2, 32400, Note_on_c, 0, 51, 64
2, 32460, Note_off_c, 0, 51, 64
2, 32460, Note_on_c, 0, 49, 64
2, 32520, Note_off_c, 0, 49, 64
2, 32520, Note_off_c, 0, 78, 64
2, 32520, Note_on_c, 0, 71, 64
2, 32520, Note_on_c, 0, 63, 64
2, 32520, Note_on_c, 0, 51, 64
2, 32580, Note_off_c, 0, 51, 64
2, 32580, Note_on_c, 0, 52, 64
2, 32640, Note_off_c, 0, 52, 64
2, 32640, Note_off_c, 0, 63, 64
2, 32640, Note_off_c, 0, 71, 64
2, 32640, Note_on_c, 0, 70, 64
2, 32640, Note_on_c, 0, 61, 64
2, 32640, Note_on_c, 0, 54, 64
2, 32700, Note_off_c, 0, 54, 64
2, 32700, Note_on_c, 0, 51, 64
2, 32760, Note_off_c, 0, 51, 64
2, 32760, Note_off_c, 0, 70, 64
2, 32760, Note_on_c, 0, 76, 64
2, 32760, Note_on_c, 0, 49, 64
2, 32820, Note_off_c, 0, 49, 64
2, 32820, Note_on_c, 0, 47, 64
2, 32880, Note_off_c, 0, 47, 64
2, 32880, Note_off_c, 0, 76, 64
2, 32880, Note_off_c, 0, 61, 64
2, 32880, Note_on_c, 0, 76, 64
2, 32880, Note_on_c, 0, 46, 64
2, 32940, Note_off_c, 0, 46, 64
2, 32940, Note_on_c, 0, 44, 64
2, 33000, Note_off_c, 0, 44, 64
2, 33000, Note_off_c, 0, 76, 64
2, 33000, Note_on_c, 0, 64, 64
2, 33000, Note_on_c, 0, 61, 64
2, 33000, Note_on_c, 0, 66, 64
2, 33000, Note_on_c, 0, 46, 64
2, 33060, Note_off_c, 0, 46, 64
2, 33060, Note_on_c, 0, 47, 64
2, 33120, Note_off_c, 0, 47, 64
2, 33120, Note_off_c, 0, 66, 64
2, 33120, Note_off_c, 0, 61, 64
2, 33120, Note_off_c, 0, 64, 64
2, 33120, Note_on_c, 0, 66, 64
2, 33120, Note_on_c, 0, 58, 64
2, 33120, Note_on_c, 0, 64, 64
2, 33120, Note_on_c, 0, 49, 64
2, 33180, Note_off_c, 0, 49, 64
2, 33180, Note_on_c, 0, 46, 64
2, 33240, Note_off_c, 0, 46, 64
2, 33240, Note_on_c, 0, 44, 64
2, 33300, Note_off_c, 0, 44, 64
2, 33300, Note_on_c, 0, 42, 64
2, 33360, Note_off_c, 0, 42, 64
2, 33360, Note_off_c, 0, 58, 64
2, 33360, Note_on_c, 0, 59, 64
2, 33360, Note_on_c, 0, 47, 64
2, 33420, Note_off_c, 0, 64, 64
2, 33420, Note_on_c, 0, 63, 64
2, 33480, Note_off_c, 0, 47, 64
2, 33480, Note_off_c, 0, 66, 64
2, 33480, Note_on_c, 0, 68, 64
2, 33480, Note_on_c, 0, 44, 64
2, 33540, Note_off_c, 0, 68, 64
2, 33540, Note_on_c, 0, 71, 64
2, 33600, Note_off_c, 0, 44, 64
2, 33600, Note_off_c, 0, 63, 64
2, 33600, Note_off_c, 0, 59, 64
2, 33600, Note_on_c, 0, 61, 64
2, 33600, Note_on_c, 0, 40, 64
2, 33660, Note_off_c, 0, 71, 64
2, 33660, Note_on_c, 0, 71, 64
2, 33720, Note_off_c, 0, 40, 64
2, 33720, Note_off_c, 0, 61, 64
2, 33720, Note_on_c, 0, 54, 64
2, 33720, Note_on_c, 0, 42, 64
2, 33720, Note_on_c, 0, 64, 64
2, 33780, Note_off_c, 0, 71, 64
2, 33780, Note_on_c, 0, 70, 64
2, 33840, Note_off_c, 0, 70, 64
2, 33840, Note_off_c, 0, 42, 64
2, 33840, Note_on_c, 0, 47, 64
2, 33840, Note_on_c, 0, 71, 64
2, 33900, Note_off_c, 0, 64, 64
2, 33900, Note_on_c, 0, 63, 64
2, 33960, Note_off_c, 0, 71, 64
2, 33960, Note_off_c, 0, 54, 39
2, 33960, Note_on_c, 0, 55, 64
2, 33960, Note_on_c, 0, 64, 64
2, 34020, Note_off_c, 0, 63, 64
2, 34020, Note_on_c, 0, 61, 64
2, 34080, Note_off_c, 0, 64, 64
2, 34080, Note_off_c, 0, 55, 55
2, 34080, Note_on_c, 0, 54, 64
2, 34080, Note_on_c, 0, 63, 64
2, 34140, Note_off_c, 0, 61, 64
2, 34140, Note_on_c, 0, 59, 64
2, 34200, Note_off_c, 0, 63, 64
2, 34200, Note_off_c, 0, 54, 43
2, 34200, Note_on_c, 0, 52, 64
2, 34200, Note_on_c, 0, 61, 64
2, 34260, Note_off_c, 0, 59, 64
2, 34260, Note_on_c, 0, 58, 64
2, 34320, Note_off_c, 0, 58, 64
2, 34320, Note_off_c, 0, 61, 64
2, 34320, Note_off_c, 0, 52, 43
2, 34320, Note_on_c, 0, 54, 64
2, 34320, Note_on_c, 0, 59, 64
2, 34320, Note_on_c, 0, 63, 64
2, 34560, Note_off_c, 0, 63, 64
2, 34560, Note_off_c, 0, 59, 64
2, 34560, Note_off_c, 0, 54, 41
2, 34560, Note_off_c, 0, 47, 64
2, 34560, Note_on_c, 0, 59, 64
2, 34680, Note_on_c, 0, 78, 64
2, 34800, Note_off_c, 0, 78, 64
2, 34800, Note_on_c, 0, 80, 64
2, 34920, Note_on_c, 0, 75, 64
2, 35040, Note_off_c, 0, 75, 64
2, 35040, Note_on_c, 0, 76, 64
2, 35100, Note_off_c, 0, 80, 64
2, 35100, Note_on_c, 0, 80, 64
2, 35160, Note_off_c, 0, 80, 64
2, 35160, Note_on_c, 0, 78, 64
2, 35220, Note_off_c, 0, 78, 64
2, 35220, Note_on_c, 0, 76, 64
2, 35280, Note_off_c, 0, 76, 64
2, 35280, Note_on_c, 0, 78, 64
2, 35340, Note_off_c, 0, 76, 64
2, 35340, Note_on_c, 0, 76, 64
2, 35400, Note_off_c, 0, 76, 64
2, 35400, Note_on_c, 0, 75, 64
2, 35460, Note_off_c, 0, 75, 64
2, 35460, Note_on_c, 0, 73, 64
2, 35520, Note_off_c, 0, 73, 64
2, 35520, Note_off_c, 0, 59, 64
2, 35520, Note_on_c, 0, 61, 72
2, 35520, Note_on_c, 0, 75, 64
2, 35550, Note_off_c, 0, 61, 46
2, 35550, Note_on_c, 0, 60, 61
2, 35580, Note_off_c, 0, 78, 64
2, 35580, Note_on_c, 0, 61, 62
2, 35580, Note_on_c, 0, 78, 64
2, 35583, Note_off_c, 0, 60, 40
2, 35610, Note_on_c, 0, 60, 62
2, 35613, Note_off_c, 0, 61, 47
2, 35640, Note_off_c, 0, 78, 64
2, 35640, Note_on_c, 0, 61, 53
2, 35640, Note_on_c, 0, 80, 64
2, 35643, Note_off_c, 0, 60, 41
2, 35670, Note_on_c, 0, 60, 51
2, 35673, Note_off_c, 0, 61, 59
2, 35700, Note_off_c, 0, 80, 64
2, 35700, Note_on_c, 0, 61, 45
2, 35700, Note_on_c, 0, 81, 64
2, 35703, Note_off_c, 0, 60, 46
2, 35730, Note_on_c, 0, 60, 53
2, 35733, Note_off_c, 0, 61, 58
2, 35760, Note_off_c, 0, 81, 64
2, 35760, Note_off_c, 0, 75, 64
2, 35760, Note_on_c, 0, 61, 66
2, 35760, Note_on_c, 0, 80, 64
2, 35763, Note_off_c, 0, 60, 50
2, 35790, Note_on_c, 0, 60, 69
2, 35793, Note_off_c, 0, 61, 43
2, 35820, Note_off_c, 0, 80, 64
2, 35820, Note_on_c, 0, 61, 69
2, 35820, Note_on_c, 0, 78, 64
2, 35823, Note_off_c, 0, 60, 49
2, 35850, Note_on_c, 0, 60, 63
2, 35853, Note_off_c, 0, 61, 53
2, 35880, Note_off_c, 0, 78, 64
2, 35880, Note_on_c, 0, 61, 57
2, 35880, Note_on_c, 0, 76, 64
2, 35883, Note_off_c, 0, 60, 49
2, 35910, Note_on_c, 0, 60, 53
2, 35913, Note_off_c, 0, 61, 62
2, 35940, Note_off_c, 0, 76, 64
2, 35940, Note_on_c, 0, 61, 61
2, 35940, Note_on_c, 0, 75, 64
2, 35943, Note_off_c, 0, 60, 46
2, 35970, Note_on_c, 0, 60, 59
2, 35973, Note_off_c, 0, 61, 50
2, 36000, Note_off_c, 0, 75, 64
2, 36000, Note_on_c, 0, 76, 64
2, 36000, Note_on_c, 0, 61, 64
2, 36003, Note_off_c, 0, 60, 35
2, 36060, Note_on_c, 0, 75, 64
2, 36120, Note_off_c, 0, 75, 64
2, 36120, Note_on_c, 0, 73, 64
2, 36180, Note_off_c, 0, 73, 64
2, 36180, Note_on_c, 0, 72, 64
2, 36240, Note_off_c, 0, 72, 64
2, 36240, Note_on_c, 0, 73, 64
2, 36300, Note_off_c, 0, 61, 64
2, 36300, Note_on_c, 0, 59, 64
2, 36360, Note_off_c, 0, 59, 64
2, 36360, Note_off_c, 0, 76, 64
2, 36360, Note_on_c, 0, 76, 64
2, 36360, Note_on_c, 0, 57, 64
2, 36420, Note_off_c, 0, 57, 64
2, 36420, Note_on_c, 0, 56, 64
2, 36480, Note_off_c, 0, 56, 64
2, 36480, Note_off_c, 0, 76, 64
2, 36480, Note_off_c, 0, 73, 64
2, 36480, Note_on_c, 0, 66, 64
2, 36480, Note_on_c, 0, 75, 64
2, 36480, Note_on_c, 0, 57, 64
2, 36540, Note_off_c, 0, 57, 64
2, 36540, Note_on_c, 0, 61, 64
2, 36600, Note_off_c, 0, 61, 64
2, 36600, Note_off_c, 0, 75, 64
2, 36600, Note_on_c, 0, 73, 64
2, 36600, Note_on_c, 0, 54, 64
2, 36660, Note_off_c, 0, 54, 64
2, 36660, Note_on_c, 0, 57, 64
2, 36720, Note_off_c, 0, 57, 64
2, 36720, Note_off_c, 0, 73, 64
2, 36720, Note_on_c, 0, 72, 64
2, 36720, Note_on_c, 0, 56, 64
2, 36780, Note_off_c, 0, 66, 64
2, 36780, Note_on_c, 0, 66, 64
2, 36840, Note_off_c, 0, 66, 64
2, 36840, Note_off_c, 0, 56, 64
2, 36840, Note_on_c, 0, 68, 64
2, 36840, Note_on_c, 0, 44, 64
2, 36900, Note_off_c, 0, 68, 64
2, 36900, Note_on_c, 0, 69, 64
2, 36960, Note_off_c, 0, 69, 64
2, 36960, Note_off_c, 0, 44, 64
2, 36960, Note_on_c, 0, 68, 64
2, 36960, Note_on_c, 0, 56, 64
2, 37020, Note_off_c, 0, 68, 64
2, 37020, Note_on_c, 0, 66, 64
2, 37080, Note_off_c, 0, 66, 64
2, 37080, Note_off_c, 0, 56, 64
2, 37080, Note_on_c, 0, 64, 64
2, 37080, Note_on_c, 0, 57, 64
2, 37140, Note_off_c, 0, 64, 64
2, 37140, Note_on_c, 0, 63, 64
2, 37200, Note_off_c, 0, 63, 64
2, 37200, Note_off_c, 0, 57, 64
2, 37200, Note_off_c, 0, 72, 64
2, 37200, Note_on_c, 0, 61, 64
2, 37200, Note_on_c, 0, 56, 64
2, 37260, Note_off_c, 0, 61, 64
2, 37260, Note_on_c, 0, 60, 64
2, 37320, Note_off_c, 0, 60, 64
2, 37320, Note_off_c, 0, 56, 64
2, 37320, Note_on_c, 0, 54, 64
2, 37320, Note_on_c, 0, 61, 64
2, 37380, Note_off_c, 0, 61, 64
2, 37380, Note_on_c, 0, 63, 64
2, 37440, Note_off_c, 0, 63, 64
2, 37440, Note_off_c, 0, 54, 64
2, 37440, Note_on_c, 0, 56, 64
2, 37440, Note_on_c, 0, 52, 64
2, 37500, Note_on_c, 0, 73, 64
2, 37560, Note_off_c, 0, 73, 64
2, 37560, Note_off_c, 0, 52, 64
2, 37560, Note_off_c, 0, 56, 64
2, 37560, Note_on_c, 0, 68, 64
2, 37560, Note_on_c, 0, 61, 64
2, 37620, Note_off_c, 0, 68, 64
2, 37620, Note_on_c, 0, 67, 64
2, 37680, Note_off_c, 0, 67, 64
2, 37680, Note_off_c, 0, 61, 64
2, 37680, Note_on_c, 0, 68, 64
2, 37680, Note_on_c, 0, 61, 64
2, 37740, Note_off_c, 0, 68, 64
2, 37740, Note_on_c, 0, 72, 64
2, 37800, Note_off_c, 0, 72, 64
2, 37800, Note_off_c, 0, 61, 64
2, 37800, Note_on_c, 0, 73, 64
2, 37800, Note_on_c, 0, 56, 64
2, 37860, Note_off_c, 0, 73, 64
2, 37860, Note_on_c, 0, 75, 64
2, 37920, Note_off_c, 0, 75, 64
2, 37920, Note_off_c, 0, 56, 64
2, 37920, Note_on_c, 0, 49, 64
2, 37920, Note_on_c, 0, 76, 64
2, 37920, Note_on_c, 0, 56, 64
2, 37980, Note_off_c, 0, 76, 64
2, 37980, Note_on_c, 0, 75, 64
2, 38040, Note_off_c, 0, 75, 64
2, 38040, Note_off_c, 0, 56, 64
2, 38040, Note_on_c, 0, 56, 64
2, 38040, Note_on_c, 0, 76, 64
2, 38100, Note_off_c, 0, 76, 64
2, 38100, Note_on_c, 0, 73, 64
2, 38160, Note_off_c, 0, 73, 64
2, 38160, Note_off_c, 0, 56, 64
2, 38160, Note_off_c, 0, 49, 64
2, 38160, Note_on_c, 0, 76, 64
2, 38160, Note_on_c, 0, 56, 64
2, 38160, Note_on_c, 0, 48, 64
2, 38220, Note_off_c, 0, 76, 64
2, 38220, Note_on_c, 0, 72, 64
2, 38280, Note_off_c, 0, 72, 64
2, 38280, Note_off_c, 0, 48, 64
2, 38280, Note_off_c, 0, 56, 64
2, 38280, Note_on_c, 0, 68, 64
2, 38280, Note_on_c, 0, 63, 64
2, 38340, Note_off_c, 0, 68, 64
2, 38340, Note_on_c, 0, 67, 64
2, 38400, Note_off_c, 0, 67, 64
2, 38400, Note_off_c, 0, 63, 64
2, 38400, Note_on_c, 0, 68, 64
2, 38400, Note_on_c, 0, 63, 64
2, 38460, Note_off_c, 0, 68, 64
2, 38460, Note_on_c, 0, 72, 64
2, 38520, Note_off_c, 0, 72, 64
2, 38520, Note_off_c, 0, 63, 64
2, 38520, Note_on_c, 0, 75, 64
2, 38520, Note_on_c, 0, 56, 64
2, 38580, Note_off_c, 0, 75, 64
2, 38580, Note_on_c, 0, 76, 64
2, 38640, Note_off_c, 0, 76, 64
2, 38640, Note_off_c, 0, 56, 64
2, 38640, Note_on_c, 0, 44, 64
2, 38640, Note_on_c, 0, 78, 64
2, 38640, Note_on_c, 0, 56, 64
2, 38700, Note_off_c, 0, 78, 64
2, 38700, Note_on_c, 0, 76, 64
2, 38760, Note_off_c, 0, 76, 64
2, 38760, Note_off_c, 0, 56, 64
2, 38760, Note_on_c, 0, 56, 64
2, 38760, Note_on_c, 0, 78, 64
2, 38820, Note_off_c, 0, 78, 64
2, 38820, Note_on_c, 0, 75, 64
2, 38880, Note_off_c, 0, 75, 64
2, 38880, Note_off_c, 0, 56, 64
2, 38880, Note_off_c, 0, 44, 64
2, 38880, Note_on_c, 0, 76, 64
2, 38880, Note_on_c, 0, 56, 64
2, 38880, Note_on_c, 0, 49, 64
2, 38940, Note_off_c, 0, 56, 64
2, 38940, Note_on_c, 0, 73, 64
2, 39000, Note_off_c, 0, 73, 64
2, 39000, Note_off_c, 0, 49, 64
2, 39000, Note_on_c, 0, 68, 64
2, 39000, Note_on_c, 0, 52, 64
2, 39060, Note_off_c, 0, 68, 64
2, 39060, Note_on_c, 0, 71, 64
2, 39120, Note_off_c, 0, 71, 64
2, 39120, Note_off_c, 0, 52, 64
2, 39120, Note_on_c, 0, 69, 64
2, 39120, Note_on_c, 0, 54, 64
2, 39180, Note_off_c, 0, 69, 64
2, 39180, Note_on_c, 0, 73, 64
2, 39240, Note_off_c, 0, 73, 64
2, 39240, Note_off_c, 0, 54, 64
2, 39240, Note_on_c, 0, 66, 64
2, 39240, Note_on_c, 0, 57, 64
2, 39300, Note_off_c, 0, 76, 64
2, 39300, Note_on_c, 0, 75, 64
2, 39360, Note_off_c, 0, 57, 64
2, 39360, Note_off_c, 0, 66, 64
2, 39360, Note_on_c, 0, 64, 64
2, 39360, Note_on_c, 0, 55, 64
2, 39420, Note_off_c, 0, 75, 64
2, 39420, Note_on_c, 0, 73, 64
2, 39480, Note_off_c, 0, 55, 64
2, 39480, Note_off_c, 0, 64, 64
2, 39480, Note_on_c, 0, 56, 64
2, 39480, Note_on_c, 0, 63, 64
2, 39540, Note_off_c, 0, 73, 64
2, 39540, Note_on_c, 0, 72, 64
2, 39600, Note_off_c, 0, 72, 64
2, 39600, Note_off_c, 0, 63, 64
2, 39600, Note_off_c, 0, 56, 64
2, 39600, Note_on_c, 0, 73, 64
2, 39600, Note_on_c, 0, 64, 64
2, 39600, Note_on_c, 0, 49, 64
2, 39660, Note_off_c, 0, 64, 64
2, 39660, Note_on_c, 0, 69, 64
2, 39720, Note_off_c, 0, 69, 64
2, 39720, Note_off_c, 0, 49, 64
2, 39720, Note_on_c, 0, 68, 64
2, 39720, Note_on_c, 0, 52, 64
2, 39780, Note_off_c, 0, 68, 64
2, 39780, Note_on_c, 0, 66, 64
2, 39840, Note_off_c, 0, 66, 64
2, 39840, Note_off_c, 0, 52, 64
2, 39840, Note_off_c, 0, 73, 64
2, 39840, Note_on_c, 0, 64, 64
2, 39840, Note_on_c, 0, 56, 64
2, 39900, Note_off_c, 0, 64, 64
2, 39900, Note_on_c, 0, 63, 64
2, 39960, Note_off_c, 0, 63, 64
2, 39960, Note_off_c, 0, 56, 64
2, 39960, Note_on_c, 0, 64, 64
2, 39960, Note_on_c, 0, 61, 64
2, 40020, Note_off_c, 0, 64, 64
2, 40020, Note_on_c, 0, 66, 64
2, 40080, Note_off_c, 0, 66, 64
2, 40080, Note_off_c, 0, 61, 64
2, 40080, Note_on_c, 0, 68, 64
2, 40080, Note_on_c, 0, 59, 64
2, 40140, Note_off_c, 0, 68, 64
2, 40140, Note_on_c, 0, 69, 64
2, 40200, Note_off_c, 0, 69, 64
2, 40200, Note_off_c, 0, 59, 64
2, 40200, Note_on_c, 0, 57, 64
2, 40200, Note_on_c, 0, 71, 64
2, 40230, Note_off_c, 0, 71, 64
2, 40230, Note_on_c, 0, 69, 64
2, 40260, Note_off_c, 0, 69, 64
2, 40260, Note_on_c, 0, 68, 64
2, 40290, Note_off_c, 0, 68, 64
2, 40290, Note_on_c, 0, 69, 64
2, 40320, Note_off_c, 0, 69, 64
2, 40320, Note_off_c, 0, 57, 64
2, 40320, Note_on_c, 0, 71, 64
2, 40320, Note_on_c, 0, 56, 64
2, 40380, Note_on_c, 0, 76, 64
2, 40440, Note_off_c, 0, 76, 64
2, 40440, Note_off_c, 0, 56, 64
2, 40440, Note_off_c, 0, 71, 64
2, 40440, Note_on_c, 0, 75, 64
2, 40440, Note_on_c, 0, 59, 64
2, 40500, Note_off_c, 0, 75, 64
2, 40500, Note_on_c, 0, 73, 64
2, 40560, Note_off_c, 0, 73, 64
2, 40560, Note_off_c, 0, 59, 64
2, 40560, Note_on_c, 0, 71, 64
2, 40560, Note_on_c, 0, 64, 64
2, 40620, Note_off_c, 0, 71, 64
2, 40620, Note_on_c, 0, 70, 64
2, 40680, Note_off_c, 0, 70, 64
2, 40680, Note_off_c, 0, 64, 64
2, 40680, Note_on_c, 0, 71, 64
2, 40680, Note_on_c, 0, 68, 64
2, 40740, Note_off_c, 0, 71, 64
2, 40740, Note_on_c, 0, 73, 64
2, 40800, Note_off_c, 0, 73, 64
2, 40800, Note_off_c, 0, 68, 64
2, 40800, Note_on_c, 0, 75, 64
2, 40800, Note_on_c, 0, 66, 64
2, 40860, Note_off_c, 0, 75, 64
2, 40860, Note_on_c, 0, 76, 64
2, 40920, Note_off_c, 0, 76, 64
2, 40920, Note_off_c, 0, 66, 64
2, 40920, Note_on_c, 0, 64, 64
2, 40920, Note_on_c, 0, 78, 64
2, 40950, Note_off_c, 0, 78, 64
2, 40950, Note_on_c, 0, 76, 64
2, 40980, Note_off_c, 0, 76, 64
2, 40980, Note_on_c, 0, 75, 64
2, 41010, Note_off_c, 0, 75, 64
2, 41010, Note_on_c, 0, 76, 64
2, 41040, Note_off_c, 0, 76, 64
2, 41040, Note_off_c, 0, 64, 64
2, 41040, Note_on_c, 0, 78, 64
2, 41040, Note_on_c, 0, 63, 64
2, 41100, Note_off_c, 0, 78, 64
2, 41100, Note_on_c, 0, 80, 64
2, 41160, Note_off_c, 0, 80, 64
2, 41160, Note_off_c, 0, 63, 64
2, 41160, Note_on_c, 0, 78, 64
2, 41160, Note_on_c, 0, 68, 64
2, 41160, Note_on_c, 0, 71, 64
2, 41220, Note_off_c, 0, 78, 64
2, 41220, Note_on_c, 0, 76, 64
2, 41280, Note_off_c, 0, 76, 64
2, 41280, Note_off_c, 0, 71, 64
2, 41280, Note_off_c, 0, 68, 64
2, 41280, Note_on_c, 0, 75, 64
2, 41280, Note_on_c, 0, 66, 64
2, 41280, Note_on_c, 0, 69, 64
2, 41340, Note_off_c, 0, 75, 64
2, 41340, Note_on_c, 0, 73, 64
2, 41400, Note_off_c, 0, 73, 64
2, 41400, Note_off_c, 0, 69, 64
2, 41400, Note_off_c, 0, 66, 64
2, 41400, Note_on_c, 0, 75, 64
2, 41400, Note_on_c, 0, 64, 64
2, 41400, Note_on_c, 0, 68, 64
2, 41520, Note_off_c, 0, 68, 64
2, 41520, Note_off_c, 0, 64, 64
2, 41520, Note_off_c, 0, 75, 64
2, 41520, Note_on_c, 0, 78, 64
2, 41520, Note_on_c, 0, 63, 64
2, 41520, Note_on_c, 0, 66, 64
2, 41580, Note_off_c, 0, 78, 64
2, 41580, Note_on_c, 0, 80, 64
2, 41640, Note_off_c, 0, 80, 64
2, 41640, Note_off_c, 0, 66, 64
2, 41640, Note_off_c, 0, 63, 64
2, 41640, Note_on_c, 0, 64, 64
2, 41640, Note_on_c, 0, 61, 64
2, 41640, Note_on_c, 0, 81, 64
2, 41670, Note_off_c, 0, 81, 64
2, 41670, Note_on_c, 0, 80, 64
2, 41700, Note_off_c, 0, 80, 64
2, 41700, Note_on_c, 0, 78, 64
2, 41730, Note_off_c, 0, 78, 64
2, 41730, Note_on_c, 0, 80, 64
2, 41760, Note_off_c, 0, 80, 64
2, 41760, Note_off_c, 0, 61, 64
2, 41760, Note_off_c, 0, 64, 64
2, 41760, Note_on_c, 0, 81, 64
2, 41760, Note_on_c, 0, 59, 64
2, 41760, Note_on_c, 0, 63, 64
2, 41820, Note_off_c, 0, 81, 64
2, 41820, Note_on_c, 0, 73, 64
2, 41880, Note_off_c, 0, 73, 64
2, 41880, Note_off_c, 0, 63, 64
2, 41880, Note_off_c, 0, 59, 64
2, 41880, Note_on_c, 0, 71, 64
2, 41880, Note_on_c, 0, 61, 64
2, 41880, Note_on_c, 0, 64, 64
2, 41940, Note_off_c, 0, 71, 64
2, 41940, Note_on_c, 0, 70, 64
2, 42000, Note_off_c, 0, 70, 64
2, 42000, Note_off_c, 0, 64, 64
2, 42000, Note_off_c, 0, 61, 64
2, 42000, Note_on_c, 0, 71, 64
2, 42000, Note_on_c, 0, 59, 64
2, 42000, Note_on_c, 0, 63, 64
2, 42060, Note_off_c, 0, 71, 64
2, 42060, Note_on_c, 0, 81, 64
2, 42120, Note_off_c, 0, 81, 64
2, 42120, Note_off_c, 0, 63, 64
2, 42120, Note_off_c, 0, 59, 64
2, 42120, Note_on_c, 0, 80, 64
2, 42120, Note_on_c, 0, 57, 64
2, 42120, Note_on_c, 0, 61, 64
2, 42180, Note_off_c, 0, 80, 64
2, 42180, Note_on_c, 0, 78, 64
2, 42240, Note_off_c, 0, 78, 64
2, 42240, Note_off_c, 0, 61, 64
2, 42240, Note_off_c, 0, 57, 64
2, 42240, Note_on_c, 0, 59, 64
2, 42240, Note_on_c, 0, 83, 64
2, 42240, Note_on_c, 0, 56, 64
2, 42300, Note_off_c, 0, 83, 64
2, 42300, Note_on_c, 0, 76, 64
2, 42360, Note_off_c, 0, 76, 64
2, 42360, Note_off_c, 0, 56, 64
2, 42360, Note_on_c, 0, 54, 64
2, 42360, Note_on_c, 0, 75, 64
2, 42420, Note_off_c, 0, 75, 64
2, 42420, Note_on_c, 0, 81, 64
2, 42480, Note_off_c, 0, 81, 64
2, 42480, Note_off_c, 0, 54, 64
2, 42480, Note_on_c, 0, 80, 64
2, 42480, Note_on_c, 0, 52, 64
2, 42540, Note_off_c, 0, 80, 64
2, 42540, Note_off_c, 0, 59, 64
2, 42540, Note_on_c, 0, 66, 64
2, 42600, Note_off_c, 0, 66, 64
2, 42600, Note_off_c, 0, 52, 64
2, 42600, Note_on_c, 0, 64, 64
2, 42600, Note_on_c, 0, 54, 64
2, 42660, Note_off_c, 0, 64, 64
2, 42660, Note_on_c, 0, 63, 64
2, 42720, Note_off_c, 0, 63, 64
2, 42720, Note_off_c, 0, 54, 64
2, 42720, Note_on_c, 0, 64, 64
2, 42720, Note_on_c, 0, 56, 64
2, 42780, Note_off_c, 0, 64, 64
2, 42780, Note_on_c, 0, 74, 64
2, 42840, Note_off_c, 0, 74, 64
2, 42840, Note_off_c, 0, 56, 64
2, 42840, Note_on_c, 0, 73, 64
2, 42840, Note_on_c, 0, 52, 64
2, 42900, Note_off_c, 0, 73, 64
2, 42900, Note_on_c, 0, 71, 64
2, 42960, Note_off_c, 0, 71, 64
2, 42960, Note_off_c, 0, 52, 64
2, 42960, Note_on_c, 0, 76, 64
2, 42960, Note_on_c, 0, 49, 64
2, 43020, Note_off_c, 0, 76, 64
2, 43020, Note_on_c, 0, 69, 64
2, 43080, Note_off_c, 0, 69, 64
2, 43080, Note_off_c, 0, 49, 64
2, 43080, Note_on_c, 0, 52, 64
2, 43080, Note_on_c, 0, 68, 64
2, 43140, Note_off_c, 0, 68, 64
2, 43140, Note_on_c, 0, 74, 64
2, 43200, Note_off_c, 0, 74, 64
2, 43200, Note_off_c, 0, 52, 64
2, 43200, Note_on_c, 0, 73, 64
2, 43200, Note_on_c, 0, 45, 64
2, 43260, Note_on_c, 0, 80, 64
2, 43320, Note_off_c, 0, 80, 64
2, 43320, Note_off_c, 0, 45, 64
2, 43320, Note_on_c, 0, 78, 64
2, 43320, Note_on_c, 0, 57, 64
2, 43380, Note_off_c, 0, 78, 64
2, 43380, Note_on_c, 0, 76, 64
2, 43440, Note_off_c, 0, 76, 64
2, 43440, Note_on_c, 0, 78, 64
2, 43500, Note_off_c, 0, 57, 64
2, 43500, Note_on_c, 0, 56, 64
2, 43560, Note_off_c, 0, 56, 64
2, 43560, Note_off_c, 0, 78, 64
2, 43560, Note_on_c, 0, 81, 64
2, 43560, Note_on_c, 0, 54, 64
2, 43620, Note_off_c, 0, 54, 64
2, 43620, Note_on_c, 0, 52, 64
2, 43680, Note_off_c, 0, 52, 64
2, 43680, Note_off_c, 0, 73, 64
2, 43680, Note_on_c, 0, 71, 64
2, 43680, Note_on_c, 0, 51, 64
2, 43740, Note_off_c, 0, 51, 64
2, 43740, Note_on_c, 0, 49, 64
2, 43800, Note_off_c, 0, 49, 64
2, 43800, Note_off_c, 0, 81, 64
2, 43800, Note_on_c, 0, 75, 64
2, 43800, Note_on_c, 0, 47, 64
2, 43860, Note_off_c, 0, 47, 64
2, 43860, Note_on_c, 0, 45, 64
2, 43920, Note_off_c, 0, 45, 64
2, 43920, Note_on_c, 0, 44, 64
2, 43980, Note_off_c, 0, 75, 64
2, 43980, Note_on_c, 0, 78, 64
2, 44040, Note_off_c, 0, 78, 64
2, 44040, Note_off_c, 0, 44, 64
2, 44040, Note_on_c, 0, 76, 64
2, 44040, Note_on_c, 0, 56, 64
2, 44100, Note_off_c, 0, 76, 64
2, 44100, Note_on_c, 0, 75, 64
2, 44160, Note_off_c, 0, 75, 64
2, 44160, Note_on_c, 0, 76, 64
2, 44220, Note_off_c, 0, 56, 64
2, 44220, Note_on_c, 0, 54, 64
2, 44280, Note_off_c, 0, 54, 64
2, 44280, Note_off_c, 0, 76, 64
2, 44280, Note_on_c, 0, 80, 64
2, 44280, Note_on_c, 0, 52, 64
2, 44340, Note_off_c, 0, 52, 64
2, 44340, Note_on_c, 0, 51, 64
2, 44400, Note_off_c, 0, 51, 64
2, 44400, Note_off_c, 0, 71, 64
2, 44400, Note_on_c, 0, 69, 64
2, 44400, Note_on_c, 0, 49, 64
2, 44460, Note_off_c, 0, 49, 64
2, 44460, Note_on_c, 0, 47, 64
2, 44520, Note_off_c, 0, 47, 64
2, 44520, Note_off_c, 0, 80, 64
2, 44520, Note_on_c, 0, 73, 64
2, 44520, Note_on_c, 0, 45, 64
2, 44580, Note_off_c, 0, 45, 64
2, 44580, Note_on_c, 0, 44, 64
2, 44640, Note_off_c, 0, 44, 64
2, 44640, Note_on_c, 0, 42, 64
2, 44700, Note_off_c, 0, 73, 64
2, 44700, Note_on_c, 0, 76, 64
2, 44760, Note_off_c, 0, 76, 64
2, 44760, Note_off_c, 0, 42, 64
2, 44760, Note_on_c, 0, 75, 64
2, 44760, Note_on_c, 0, 54, 64
2, 44820, Note_off_c, 0, 75, 64
2, 44820, Note_on_c, 0, 73, 64
2, 44880, Note_off_c, 0, 73, 64
2, 44880, Note_on_c, 0, 75, 64
2, 44940, Note_off_c, 0, 54, 64
2, 44940, Note_on_c, 0, 52, 64
2, 45000, Note_off_c, 0, 52, 64
2, 45000, Note_off_c, 0, 75, 64
2, 45000, Note_on_c, 0, 78, 64
2, 45000, Note_on_c, 0, 51, 64
2, 45060, Note_off_c, 0, 51, 64
2, 45060, Note_on_c, 0, 49, 64
2, 45120, Note_off_c, 0, 49, 64
2, 45120, Note_off_c, 0, 78, 64
2, 45120, Note_on_c, 0, 78, 64
2, 45120, Note_on_c, 0, 47, 64
2, 45180, Note_off_c, 0, 47, 64
2, 45180, Note_on_c, 0, 45, 64
2, 45240, Note_off_c, 0, 45, 64
2, 45240, Note_off_c, 0, 78, 64
2, 45240, Note_on_c, 0, 63, 64
2, 45240, Note_on_c, 0, 69, 64
2, 45240, Note_on_c, 0, 44, 64
2, 45241, Note_off_c, 0, 69, 64
2, 45300, Note_off_c, 0, 44, 64
2, 45300, Note_on_c, 0, 42, 64
2, 45360, Note_off_c, 0, 42, 64
2, 45360, Note_on_c, 0, 40, 64
2, 45420, Note_off_c, 0, 63, 64
2, 45420, Note_on_c, 0, 59, 64
2, 45480, Note_off_c, 0, 40, 64
2, 45480, Note_off_c, 0, 69, 64
2, 45480, Note_on_c, 0, 68, 64
2, 45480, Note_on_c, 0, 52, 64
2, 45540, Note_off_c, 0, 68, 64
2, 45540, Note_on_c, 0, 66, 64
2, 45600, Note_off_c, 0, 66, 64
2, 45600, Note_on_c, 0, 64, 64
2, 45600, Note_on_c, 0, 68, 64
2, 45660, Note_off_c, 0, 52, 64
2, 45660, Note_on_c, 0, 51, 64
2, 45720, Note_off_c, 0, 51, 64
2, 45720, Note_on_c, 0, 52, 64
2, 45780, Note_off_c, 0, 52, 64
2, 45780, Note_on_c, 0, 54, 64
2, 45840, Note_off_c, 0, 54, 64
2, 45840, Note_off_c, 0, 59, 64
2, 45840, Note_on_c, 0, 56, 64
2, 45900, Note_off_c, 0, 56, 64
2, 45900, Note_on_c, 0, 59, 64
2, 45960, Note_off_c, 0, 59, 64
2, 45960, Note_on_c, 0, 52, 64
2, 46020, Note_off_c, 0, 52, 64
2, 46020, Note_on_c, 0, 56, 64
2, 46080, Note_off_c, 0, 56, 64
2, 46080, Note_off_c, 0, 64, 64
2, 46080, Note_on_c, 0, 61, 64
2, 46080, Note_on_c, 0, 57, 64
2, 46140, Note_off_c, 0, 68, 64
2, 46140, Note_on_c, 0, 68, 64
2, 46200, Note_off_c, 0, 68, 64
2, 46200, Note_off_c, 0, 57, 64
2, 46200, Note_on_c, 0, 66, 64
2, 46200, Note_on_c, 0, 45, 64
2, 46260, Note_off_c, 0, 66, 64
2, 46260, Note_on_c, 0, 64, 64
2, 46320, Note_off_c, 0, 64, 64
2, 46320, Note_off_c, 0, 45, 64
2, 46320, Note_off_c, 0, 61, 64
2, 46320, Note_on_c, 0, 63, 64
2, 46320, Note_on_c, 0, 57, 64
2, 46380, Note_off_c, 0, 63, 64
2, 46380, Note_on_c, 0, 61, 64
2, 46440, Note_off_c, 0, 61, 64
2, 46440, Note_off_c, 0, 57, 64
2, 46440, Note_on_c, 0, 63, 64
2, 46440, Note_on_c, 0, 59, 64
2, 46500, Note_off_c, 0, 63, 64
2, 46500, Note_on_c, 0, 64, 64
2, 46560, Note_off_c, 0, 64, 64
2, 46560, Note_off_c, 0, 59, 64
2, 46560, Note_on_c, 0, 66, 64
2, 46560, Note_on_c, 0, 57, 64
2, 46620, Note_off_c, 0, 66, 64
2, 46620, Note_on_c, 0, 68, 64
2, 46680, Note_off_c, 0, 68, 64
2, 46680, Note_off_c, 0, 57, 64
2, 46680, Note_on_c, 0, 56, 64
2, 46680, Note_on_c, 0, 69, 64
2, 46710, Note_off_c, 0, 69, 64
2, 46710, Note_on_c, 0, 68, 64
2, 46740, Note_off_c, 0, 68, 64
2, 46740, Note_on_c, 0, 66, 64
2, 46770, Note_off_c, 0, 66, 64
2, 46770, Note_on_c, 0, 68, 64
2, 46800, Note_off_c, 0, 68, 64
2, 46800, Note_off_c, 0, 56, 64
2, 46800, Note_on_c, 0, 69, 64
2, 46800, Note_on_c, 0, 54, 64
2, 46860, Note_on_c, 0, 64, 64
2, 46920, Note_off_c, 0, 64, 64
2, 46920, Note_on_c, 0, 63, 64
2, 46980, Note_off_c, 0, 63, 64
2, 46980, Note_on_c, 0, 61, 64
2, 47040, Note_off_c, 0, 61, 64
2, 47040, Note_off_c, 0, 54, 64
2, 47040, Note_on_c, 0, 59, 64
2, 47100, Note_off_c, 0, 59, 64
2, 47100, Note_on_c, 0, 58, 64
2, 47160, Note_off_c, 0, 58, 64
2, 47160, Note_on_c, 0, 59, 64
2, 47160, Note_on_c, 0, 56, 64
2, 47220, Note_off_c, 0, 59, 64
2, 47220, Note_on_c, 0, 61, 64
2, 47280, Note_off_c, 0, 61, 64
2, 47280, Note_off_c, 0, 56, 64
2, 47280, Note_on_c, 0, 63, 64
2, 47280, Note_on_c, 0, 54, 64
2, 47340, Note_off_c, 0, 63, 64
2, 47340, Note_on_c, 0, 64, 64
2, 47400, Note_off_c, 0, 64, 64
2, 47400, Note_off_c, 0, 54, 64
2, 47400, Note_on_c, 0, 52, 64
2, 47400, Note_on_c, 0, 66, 64
2, 47430, Note_off_c, 0, 66, 64
2, 47430, Note_on_c, 0, 64, 64
2, 47460, Note_off_c, 0, 64, 64
2, 47460, Note_on_c, 0, 63, 64
2, 47490, Note_off_c, 0, 63, 64
2, 47490, Note_on_c, 0, 64, 64
2, 47510, Note_off_c, 0, 52, 64
2, 47523, Note_off_c, 0, 64, 64
2, 47523, Note_on_c, 0, 52, 72
2, 47523, Note_on_c, 0, 66, 64
2, 47553, Note_off_c, 0, 52, 64
2, 47553, Note_on_c, 0, 51, 64
2, 47643, Note_off_c, 0, 69, 64
2, 47643, Note_on_c, 0, 78, 64
2, 47763, Note_off_c, 0, 78, 64
2, 47763, Note_off_c, 0, 66, 64
2, 47763, Note_on_c, 0, 78, 64
2, 47823, Note_off_c, 0, 51, 64
2, 47823, Note_on_c, 0, 59, 64
2, 47883, Note_off_c, 0, 59, 64
2, 47883, Note_off_c, 0, 78, 64
2, 47883, Note_on_c, 0, 69, 64
2, 47883, Note_on_c, 0, 66, 64
2, 47883, Note_on_c, 0, 61, 64
2, 47943, Note_off_c, 0, 61, 64
2, 47943, Note_on_c, 0, 63, 64
2, 48003, Note_off_c, 0, 63, 64
2, 48003, Note_off_c, 0, 66, 64
2, 48003, Note_off_c, 0, 69, 64
2, 48003, Note_on_c, 0, 68, 64
2, 48003, Note_on_c, 0, 64, 64
2, 48063, Note_on_c, 0, 61, 64
2, 48123, Note_off_c, 0, 61, 64
2, 48123, Note_off_c, 0, 64, 64
2, 48123, Note_off_c, 0, 68, 64
2, 48123, Note_on_c, 0, 83, 64
2, 48123, Note_on_c, 0, 59, 64
2, 48183, Note_off_c, 0, 59, 64
2, 48183, Note_on_c, 0, 57, 64
2, 48243, Note_off_c, 0, 57, 64
2, 48243, Note_off_c, 0, 83, 64
2, 48243, Note_on_c, 0, 83, 64
2, 48243, Note_on_c, 0, 56, 64
2, 48303, Note_off_c, 0, 56, 64
2, 48303, Note_on_c, 0, 54, 64
2, 48363, Note_off_c, 0, 54, 64
2, 48363, Note_off_c, 0, 83, 64
2, 48363, Note_on_c, 0, 76, 64
2, 48363, Note_on_c, 0, 68, 64
2, 48363, Note_on_c, 0, 56, 64
2, 48423, Note_off_c, 0, 56, 64
2, 48423, Note_on_c, 0, 57, 64
2, 48483, Note_off_c, 0, 57, 64
2, 48483, Note_off_c, 0, 68, 64
2, 48483, Note_off_c, 0, 76, 64
2, 48483, Note_on_c, 0, 75, 64
2, 48483, Note_on_c, 0, 66, 64
2, 48483, Note_on_c, 0, 59, 64
2, 48543, Note_off_c, 0, 59, 64
2, 48543, Note_on_c, 0, 56, 64
2, 48603, Note_off_c, 0, 56, 64
2, 48603, Note_off_c, 0, 75, 64
2, 48603, Note_on_c, 0, 81, 64
2, 48603, Note_on_c, 0, 54, 64
2, 48663, Note_off_c, 0, 54, 64
2, 48663, Note_on_c, 0, 52, 64
2, 48723, Note_off_c, 0, 52, 64
2, 48723, Note_off_c, 0, 81, 64
2, 48723, Note_off_c, 0, 66, 64
2, 48723, Note_on_c, 0, 81, 64
2, 48723, Note_on_c, 0, 51, 64
2, 48783, Note_off_c, 0, 51, 64
2, 48783, Note_on_c, 0, 49, 64
2, 48843, Note_off_c, 0, 49, 64
2, 48843, Note_off_c, 0, 81, 64
2, 48843, Note_on_c, 0, 69, 64
2, 48843, Note_on_c, 0, 66, 64
2, 48843, Note_on_c, 0, 71, 64
2, 48843, Note_on_c, 0, 51, 64
2, 48903, Note_off_c, 0, 51, 64
2, 48903, Note_on_c, 0, 52, 64
2, 48963, Note_off_c, 0, 52, 64
2, 48963, Note_off_c, 0, 71, 64
2, 48963, Note_off_c, 0, 66, 64
2, 48963, Note_off_c, 0, 69, 64
2, 48963, Note_on_c, 0, 71, 64
2, 48963, Note_on_c, 0, 63, 64
2, 48963, Note_on_c, 0, 69, 64
2, 48963, Note_on_c, 0, 54, 64
2, 49023, Note_off_c, 0, 54, 64
2, 49023, Note_on_c, 0, 51, 64
2, 49083, Note_off_c, 0, 51, 64
2, 49083, Note_on_c, 0, 49, 64
2, 49143, Note_off_c, 0, 49, 64
2, 49143, Note_on_c, 0, 47, 64
2, 49203, Note_off_c, 0, 47, 64
2, 49203, Note_off_c, 0, 63, 64
2, 49203, Note_on_c, 0, 64, 64
2, 49203, Note_on_c, 0, 52, 64
2, 49263, Note_off_c, 0, 69, 64
2, 49263, Note_on_c, 0, 68, 64
2, 49323, Note_off_c, 0, 52, 64
2, 49323, Note_off_c, 0, 71, 64
2, 49323, Note_on_c, 0, 73, 64
2, 49323, Note_on_c, 0, 49, 64
2, 49383, Note_off_c, 0, 73, 64
2, 49383, Note_on_c, 0, 76, 64
2, 49443, Note_off_c, 0, 49, 64
2, 49443, Note_off_c, 0, 68, 64
2, 49443, Note_off_c, 0, 64, 64
2, 49443, Note_on_c, 0, 66, 64
2, 49443, Note_on_c, 0, 45, 64
2, 49503, Note_off_c, 0, 76, 64
2, 49503, Note_on_c, 0, 76, 64
2, 49563, Note_off_c, 0, 45, 64
2, 49563, Note_off_c, 0, 66, 64
2, 49563, Note_on_c, 0, 47, 64
2, 49563, Note_on_c, 0, 69, 64
2, 49623, Note_off_c, 0, 76, 64
2, 49623, Note_on_c, 0, 75, 64
2, 49683, Note_off_c, 0, 75, 64
2, 49683, Note_off_c, 0, 69, 64
2, 49683, Note_off_c, 0, 47, 64
2, 49683, Note_on_c, 0, 68, 64
2, 49683, Note_on_c, 0, 52, 64
2, 49743, Note_on_c, 0, 71, 64
2, 49803, Note_off_c, 0, 71, 64
2, 49803, Note_off_c, 0, 52, 64
2, 49803, Note_on_c, 0, 76, 64
2, 49803, Note_on_c, 0, 40, 64
2, 49863, Note_off_c, 0, 76, 64
2, 49863, Note_on_c, 0, 75, 64
2, 49923, Note_off_c, 0, 75, 64
2, 49923, Note_off_c, 0, 40, 64
2, 49923, Note_off_c, 0, 68, 64
2, 49923, Note_on_c, 0, 76, 64
2, 49923, Note_on_c, 0, 40, 64
2, 49983, Note_on_c, 0, 71, 64
2, 50043, Note_off_c, 0, 71, 64
2, 50043, Note_off_c, 0, 40, 64
2, 50043, Note_on_c, 0, 69, 64
2, 50043, Note_on_c, 0, 52, 64
2, 50103, Note_off_c, 0, 69, 64
2, 50103, Note_on_c, 0, 71, 64
2, 50163, Note_off_c, 0, 71, 64
2, 50163, Note_off_c, 0, 52, 64
2, 50163, Note_off_c, 0, 76, 64
2, 50163, Note_on_c, 0, 73, 64
2, 50163, Note_on_c, 0, 52, 64
2, 50223, Note_on_c, 0, 69, 64
2, 50283, Note_off_c, 0, 69, 64
2, 50283, Note_off_c, 0, 52, 64
2, 50283, Note_on_c, 0, 40, 64
2, 50283, Note_on_c, 0, 68, 64
2, 50343, Note_off_c, 0, 68, 64
2, 50343, Note_on_c, 0, 69, 64
2, 50403, Note_off_c, 0, 40, 64
2, 50403, Note_off_c, 0, 73, 64
2, 50403, Note_on_c, 0, 71, 64
2, 50403, Note_on_c, 0, 52, 64
2, 50463, Note_off_c, 0, 71, 64
2, 50463, Note_on_c, 0, 73, 64
2, 50523, Note_off_c, 0, 73, 64
2, 50523, Note_off_c, 0, 52, 64
2, 50523, Note_on_c, 0, 74, 64
2, 50523, Note_on_c, 0, 40, 64
2, 50583, Note_off_c, 0, 74, 64
2, 50583, Note_on_c, 0, 73, 64
2, 50643, Note_off_c, 0, 73, 64
2, 50643, Note_off_c, 0, 40, 64
2, 50643, Note_on_c, 0, 74, 64
2, 50643, Note_on_c, 0, 40, 64
2, 50703, Note_off_c, 0, 69, 64
2, 50703, Note_on_c, 0, 69, 64
2, 50763, Note_off_c, 0, 69, 64
2, 50763, Note_off_c, 0, 40, 64
2, 50763, Note_on_c, 0, 68, 64
2, 50763, Note_on_c, 0, 52, 64
2, 50823, Note_off_c, 0, 68, 64
2, 50823, Note_on_c, 0, 69, 64
2, 50883, Note_off_c, 0, 52, 64
2, 50883, Note_off_c, 0, 74, 64
2, 50883, Note_on_c, 0, 71, 64
2, 50883, Note_on_c, 0, 52, 64
2, 50943, Note_off_c, 0, 69, 64
2, 50943, Note_on_c, 0, 68, 64
2, 51003, Note_off_c, 0, 68, 64
2, 51003, Note_off_c, 0, 52, 64
2, 51003, Note_on_c, 0, 40, 64
2, 51003, Note_on_c, 0, 66, 64
2, 51063, Note_off_c, 0, 66, 64
2, 51063, Note_on_c, 0, 68, 64
2, 51123, Note_off_c, 0, 40, 64
2, 51123, Note_off_c, 0, 71, 64
2, 51123, Note_on_c, 0, 69, 64
2, 51123, Note_on_c, 0, 52, 64
2, 51183, Note_off_c, 0, 69, 64
2, 51183, Note_on_c, 0, 71, 64
2, 51243, Note_off_c, 0, 71, 64
2, 51243, Note_off_c, 0, 52, 64
2, 51243, Note_on_c, 0, 72, 64
2, 51243, Note_on_c, 0, 40, 64
2, 51303, Note_off_c, 0, 72, 64
2, 51303, Note_on_c, 0, 71, 64
2, 51363, Note_off_c, 0, 71, 64
2, 51363, Note_off_c, 0, 40, 64
2, 51363, Note_off_c, 0, 68, 64
2, 51363, Note_on_c, 0, 72, 64
2, 51363, Note_on_c, 0, 40, 64
2, 51423, Note_on_c, 0, 68, 64
2, 51483, Note_off_c, 0, 68, 64
2, 51483, Note_off_c, 0, 40, 64
2, 51483, Note_on_c, 0, 66, 64
2, 51483, Note_on_c, 0, 52, 64
2, 51543, Note_off_c, 0, 66, 64
2, 51543, Note_on_c, 0, 68, 64
2, 51603, Note_off_c, 0, 68, 64
2, 51603, Note_off_c, 0, 52, 64
2, 51603, Note_off_c, 0, 72, 64
2, 51603, Note_on_c, 0, 69, 64
2, 51603, Note_on_c, 0, 52, 64
2, 51663, Note_on_c, 0, 66, 64
2, 51723, Note_off_c, 0, 66, 64
2, 51723, Note_off_c, 0, 52, 64
2, 51723, Note_on_c, 0, 40, 64
2, 51723, Note_on_c, 0, 64, 64
2, 51783, Note_off_c, 0, 64, 64
2, 51783, Note_on_c, 0, 66, 64
2, 51843, Note_off_c, 0, 40, 64
2, 51843, Note_on_c, 0, 59, 64
2, 51843, Note_on_c, 0, 39, 64
2, 51903, Note_off_c, 0, 39, 64
2, 51903, Note_on_c, 0, 42, 64
2, 51963, Note_off_c, 0, 42, 64
2, 51963, Note_on_c, 0, 47, 64
2, 52023, Note_off_c, 0, 47, 64
2, 52023, Note_on_c, 0, 49, 64
2, 52083, Note_off_c, 0, 49, 64
2, 52083, Note_off_c, 0, 59, 64
2, 52083, Note_off_c, 0, 69, 64
2, 52083, Note_off_c, 0, 66, 64
2, 52083, Note_on_c, 0, 51, 64
2, 52143, Note_off_c, 0, 51, 64
2, 52143, Note_on_c, 0, 52, 64
2, 52203, Note_off_c, 0, 52, 64
2, 52203, Note_on_c, 0, 54, 64
2, 52263, Note_off_c, 0, 54, 64
2, 52263, Note_on_c, 0, 56, 64
2, 52323, Note_off_c, 0, 56, 64
2, 52323, Note_on_c, 0, 57, 64
2, 52383, Note_off_c, 0, 57, 64
2, 52383, Note_on_c, 0, 59, 64
2, 52443, Note_off_c, 0, 59, 64
2, 52443, Note_on_c, 0, 61, 64
2, 52503, Note_off_c, 0, 61, 64
2, 52503, Note_on_c, 0, 63, 64
2, 52563, Note_off_c, 0, 63, 64
2, 52563, Note_on_c, 0, 68, 64
2, 52563, Note_on_c, 0, 64, 64
2, 52623, Note_on_c, 0, 61, 64
2, 52683, Note_off_c, 0, 61, 64
2, 52683, Note_on_c, 0, 59, 64
2, 52743, Note_off_c, 0, 59, 64
2, 52743, Note_on_c, 0, 57, 64
2, 52803, Note_off_c, 0, 57, 64
2, 52803, Note_off_c, 0, 64, 64
2, 52803, Note_off_c, 0, 68, 64
2, 52803, Note_on_c, 0, 59, 64
2, 52863, Note_on_c, 0, 68, 64
2, 52923, Note_off_c, 0, 68, 64
2, 52923, Note_on_c, 0, 66, 64
2, 52983, Note_off_c, 0, 66, 64
2, 52983, Note_on_c, 0, 64, 64
2, 53043, Note_off_c, 0, 64, 64
2, 53043, Note_off_c, 0, 59, 64
2, 53043, Note_on_c, 0, 66, 64
2, 53043, Note_on_c, 0, 47, 64
2, 53103, Note_on_c, 0, 61, 64
2, 53163, Note_off_c, 0, 61, 64
2, 53163, Note_on_c, 0, 62, 64
2, 53223, Note_on_c, 0, 57, 64
2, 53283, Note_off_c, 0, 57, 64
2, 53283, Note_off_c, 0, 62, 64
2, 53283, Note_off_c, 0, 47, 64
2, 53283, Note_off_c, 0, 66, 64
2, 53283, Note_on_c, 0, 52, 64
2, 53283, Note_on_c, 0, 56, 64
2, 53343, Note_on_c, 0, 59, 64
2, 53403, Note_off_c, 0, 59, 64
2, 53403, Note_off_c, 0, 56, 64
2, 53403, Note_on_c, 0, 64, 64
2, 53403, Note_on_c, 0, 54, 64
2, 53463, Note_off_c, 0, 64, 64
2, 53463, Note_on_c, 0, 63, 64
2, 53523, Note_off_c, 0, 63, 64
2, 53523, Note_off_c, 0, 54, 64
2, 53523, Note_on_c, 0, 64, 64
2, 53523, Note_on_c, 0, 56, 64
2, 53583, Note_off_c, 0, 64, 64
2, 53583, Note_on_c, 0, 59, 64
2, 53643, Note_off_c, 0, 59, 64
2, 53643, Note_off_c, 0, 56, 64
2, 53643, Note_on_c, 0, 68, 64
2, 53643, Note_on_c, 0, 59, 64
2, 53703, Note_off_c, 0, 68, 64
2, 53703, Note_on_c, 0, 64, 64
2, 53763, Note_off_c, 0, 64, 64
2, 53763, Note_off_c, 0, 59, 64
2, 53763, Note_on_c, 0, 71, 64
2, 53763, Note_on_c, 0, 57, 64
2, 53823, Note_on_c, 0, 66, 64
2, 53883, Note_off_c, 0, 66, 64
2, 53883, Note_off_c, 0, 57, 64
2, 53883, Note_on_c, 0, 56, 64
2, 53883, Note_on_c, 0, 64, 64
2, 53943, Note_off_c, 0, 64, 64
2, 53943, Note_on_c, 0, 62, 64
2, 54003, Note_off_c, 0, 62, 64
2, 54003, Note_off_c, 0, 56, 64
2, 54003, Note_on_c, 0, 61, 64
2, 54003, Note_on_c, 0, 57, 64
2, 54063, Note_off_c, 0, 71, 64
2, 54063, Note_on_c, 0, 64, 64
2, 54123, Note_off_c, 0, 64, 64
2, 54123, Note_off_c, 0, 57, 64
2, 54123, Note_off_c, 0, 61, 64
2, 54123, Note_on_c, 0, 69, 64
2, 54123, Note_on_c, 0, 59, 64
2, 54183, Note_off_c, 0, 69, 64
2, 54183, Note_on_c, 0, 68, 64
2, 54243, Note_off_c, 0, 68, 64
2, 54243, Note_off_c, 0, 59, 64
2, 54243, Note_on_c, 0, 69, 64
2, 54243, Note_on_c, 0, 61, 64
2, 54303, Note_off_c, 0, 69, 64
2, 54303, Note_on_c, 0, 64, 64
2, 54363, Note_off_c, 0, 64, 64
2, 54363, Note_off_c, 0, 61, 64
2, 54363, Note_on_c, 0, 73, 64
2, 54363, Note_on_c, 0, 64, 64
2, 54423, Note_off_c, 0, 73, 64
2, 54423, Note_on_c, 0, 69, 64
2, 54483, Note_off_c, 0, 69, 64
2, 54483, Note_off_c, 0, 64, 64
2, 54483, Note_on_c, 0, 57, 64
2, 54483, Note_on_c, 0, 76, 64
2, 54543, Note_on_c, 0, 71, 64
2, 54603, Note_off_c, 0, 71, 64
2, 54603, Note_on_c, 0, 59, 64
2, 54603, Note_on_c, 0, 69, 64
2, 54663, Note_off_c, 0, 69, 64
2, 54663, Note_on_c, 0, 68, 64
2, 54723, Note_off_c, 0, 68, 64
2, 54723, Note_off_c, 0, 59, 64
2, 54723, Note_on_c, 0, 66, 64
2, 54723, Note_on_c, 0, 60, 64
2, 54783, Note_off_c, 0, 76, 64
2, 54783, Note_on_c, 0, 69, 64
2, 54843, Note_off_c, 0, 69, 64
2, 54843, Note_off_c, 0, 66, 64
2, 54843, Note_on_c, 0, 75, 64
2, 54903, Note_off_c, 0, 75, 64
2, 54903, Note_on_c, 0, 73, 64
2, 54963, Note_off_c, 0, 73, 64
2, 54963, Note_off_c, 0, 60, 64
2, 54963, Note_off_c, 0, 57, 64
2, 54963, Note_on_c, 0, 75, 64
2, 55023, Note_off_c, 0, 75, 64
2, 55023, Note_on_c, 0, 69, 64
2, 55083, Note_off_c, 0, 69, 64
2, 55083, Note_on_c, 0, 78, 64
2, 55083, Note_on_c, 0, 57, 64
2, 55083, Note_on_c, 0, 60, 64
2, 55143, Note_off_c, 0, 78, 64
2, 55143, Note_on_c, 0, 75, 64
2, 55203, Note_off_c, 0, 75, 64
2, 55203, Note_off_c, 0, 60, 64
2, 55203, Note_off_c, 0, 57, 64
2, 55203, Note_on_c, 0, 81, 64
2, 55203, Note_on_c, 0, 57, 64
2, 55203, Note_on_c, 0, 60, 64
2, 55263, Note_off_c, 0, 81, 64
2, 55263, Note_on_c, 0, 78, 64
2, 55323, Note_off_c, 0, 78, 64
2, 55323, Note_off_c, 0, 60, 64
2, 55323, Note_off_c, 0, 57, 64
2, 55323, Note_on_c, 0, 60, 64
2, 55323, Note_on_c, 0, 57, 64
2, 55323, Note_on_c, 0, 76, 64
2, 55383, Note_off_c, 0, 76, 64
2, 55383, Note_on_c, 0, 75, 64
2, 55443, Note_off_c, 0, 75, 64
2, 55443, Note_off_c, 0, 57, 64
2, 55443, Note_off_c, 0, 60, 64
2, 55443, Note_on_c, 0, 56, 64
2, 55443, Note_on_c, 0, 59, 64
2, 55443, Note_on_c, 0, 76, 64
2, 55443, Note_on_c, 0, 71, 64
2, 55443, Note_on_c, 0, 68, 64
2, 56163, Note_off_c, 0, 68, 64
2, 56163, Note_off_c, 0, 71, 64
2, 56163, Note_off_c, 0, 76, 64
2, 56163, Note_off_c, 0, 52, 64
2, 56163, Note_off_c, 0, 59, 58
2, 56163, Note_off_c, 0, 56, 65
2, 56163, Note_on_c, 0, 59, 64
2, 56283, Note_on_c, 0, 78, 64
2, 56403, Note_off_c, 0, 78, 64
2, 56403, Note_on_c, 0, 80, 64
2, 56523, Note_on_c, 0, 75, 64
2, 56643, Note_off_c, 0, 75, 64
2, 56643, Note_on_c, 0, 76, 64
2, 56703, Note_off_c, 0, 80, 64
2, 56703, Note_on_c, 0, 80, 64
2, 56763, Note_off_c, 0, 80, 64
2, 56763, Note_on_c, 0, 78, 64
2, 56823, Note_off_c, 0, 78, 64
2, 56823, Note_on_c, 0, 76, 64
2, 56883, Note_off_c, 0, 76, 64
2, 56883, Note_on_c, 0, 78, 64
2, 56943, Note_off_c, 0, 76, 64
2, 56943, Note_on_c, 0, 76, 64
2, 57003, Note_off_c, 0, 76, 64
2, 57003, Note_on_c, 0, 75, 64
2, 57063, Note_off_c, 0, 75, 64
2, 57063, Note_on_c, 0, 73, 64
2, 57123, Note_off_c, 0, 73, 64
2, 57123, Note_off_c, 0, 59, 64
2, 57123, Note_on_c, 0, 61, 72
2, 57123, Note_on_c, 0, 75, 64
2, 57153, Note_off_c, 0, 61, 46
2, 57153, Note_on_c, 0, 60, 61
2, 57183, Note_off_c, 0, 78, 64
2, 57183, Note_on_c, 0, 61, 62
2, 57183, Note_on_c, 0, 78, 64
2, 57186, Note_off_c, 0, 60, 40
2, 57213, Note_on_c, 0, 60, 62
2, 57216, Note_off_c, 0, 61, 47
2, 57243, Note_off_c, 0, 78, 64
2, 57243, Note_on_c, 0, 61, 53
2, 57243, Note_on_c, 0, 80, 64
2, 57246, Note_off_c, 0, 60, 41
2, 57273, Note_on_c, 0, 60, 51
2, 57276, Note_off_c, 0, 61, 59
2, 57303, Note_off_c, 0, 80, 64
2, 57303, Note_on_c, 0, 61, 45
2, 57303, Note_on_c, 0, 81, 64
2, 57306, Note_off_c, 0, 60, 46
2, 57333, Note_on_c, 0, 60, 53
2, 57336, Note_off_c, 0, 61, 58
2, 57363, Note_off_c, 0, 81, 64
2, 57363, Note_off_c, 0, 75, 64
2, 57363, Note_on_c, 0, 61, 66
2, 57363, Note_on_c, 0, 80, 64
2, 57366, Note_off_c, 0, 60, 50
2, 57393, Note_on_c, 0, 60, 69
2, 57396, Note_off_c, 0, 61, 43
2, 57423, Note_off_c, 0, 80, 64
2, 57423, Note_on_c, 0, 61, 69
2, 57423, Note_on_c, 0, 78, 64
2, 57426, Note_off_c, 0, 60, 49
2, 57453, Note_on_c, 0, 60, 63
2, 57456, Note_off_c, 0, 61, 53
2, 57483, Note_off_c, 0, 78, 64
2, 57483, Note_on_c, 0, 61, 57
2, 57483, Note_on_c, 0, 76, 64
2, 57486, Note_off_c, 0, 60, 49
2, 57513, Note_on_c, 0, 60, 53
2, 57516, Note_off_c, 0, 61, 62
2, 57543, Note_off_c, 0, 76, 64
2, 57543, Note_on_c, 0, 61, 61
2, 57543, Note_on_c, 0, 75, 64
2, 57546, Note_off_c, 0, 60, 46
2, 57573, Note_on_c, 0, 60, 59
2, 57576, Note_off_c, 0, 61, 50
2, 57603, Note_off_c, 0, 75, 64
2, 57603, Note_on_c, 0, 76, 64
2, 57603, Note_on_c, 0, 61, 64
2, 57606, Note_off_c, 0, 60, 35
2, 57663, Note_on_c, 0, 75, 64
2, 57723, Note_off_c, 0, 75, 64
2, 57723, Note_on_c, 0, 73, 64
2, 57783, Note_off_c, 0, 73, 64
2, 57783, Note_on_c, 0, 72, 64
2, 57843, Note_off_c, 0, 72, 64
2, 57843, Note_on_c, 0, 73, 64
2, 57903, Note_off_c, 0, 61, 64
2, 57903, Note_on_c, 0, 59, 64
2, 57963, Note_off_c, 0, 59, 64
2, 57963, Note_off_c, 0, 76, 64
2, 57963, Note_on_c, 0, 76, 64
2, 57963, Note_on_c, 0, 57, 64
2, 58023, Note_off_c, 0, 57, 64
2, 58023, Note_on_c, 0, 56, 64
2, 58083, Note_off_c, 0, 56, 64
2, 58083, Note_off_c, 0, 76, 64
2, 58083, Note_off_c, 0, 73, 64
2, 58083, Note_on_c, 0, 66, 64
2, 58083, Note_on_c, 0, 75, 64
2, 58083, Note_on_c, 0, 57, 64
2, 58143, Note_off_c, 0, 57, 64
2, 58143, Note_on_c, 0, 61, 64
2, 58203, Note_off_c, 0, 61, 64
2, 58203, Note_off_c, 0, 75, 64
2, 58203, Note_on_c, 0, 73, 64
2, 58203, Note_on_c, 0, 54, 64
2, 58263, Note_off_c, 0, 54, 64
2, 58263, Note_on_c, 0, 57, 64
2, 58323, Note_off_c, 0, 57, 64
2, 58323, Note_off_c, 0, 73, 64
2, 58323, Note_on_c, 0, 72, 64
2, 58323, Note_on_c, 0, 56, 64
2, 58383, Note_off_c, 0, 66, 64
2, 58383, Note_on_c, 0, 66, 64
2, 58443, Note_off_c, 0, 66, 64
2, 58443, Note_off_c, 0, 56, 64
2, 58443, Note_on_c, 0, 68, 64
2, 58443, Note_on_c, 0, 44, 64
2, 58503, Note_off_c, 0, 68, 64
2, 58503, Note_on_c, 0, 69, 64
2, 58563, Note_off_c, 0, 69, 64
2, 58563, Note_off_c, 0, 44, 64
2, 58563, Note_on_c, 0, 68, 64
2, 58563, Note_on_c, 0, 56, 64
2, 58623, Note_off_c, 0, 68, 64
2, 58623, Note_on_c, 0, 66, 64
2, 58683, Note_off_c, 0, 66, 64
2, 58683, Note_off_c, 0, 56, 64
2, 58683, Note_on_c, 0, 64, 64
2, 58683, Note_on_c, 0, 57, 64
2, 58743, Note_off_c, 0, 64, 64
2, 58743, Note_on_c, 0, 63, 64
2, 58803, Note_off_c, 0, 63, 64
2, 58803, Note_off_c, 0, 57, 64
2, 58803, Note_off_c, 0, 72, 64
2, 58803, Note_on_c, 0, 61, 64
2, 58803, Note_on_c, 0, 56, 64
2, 58863, Note_off_c, 0, 61, 64
2, 58863, Note_on_c, 0, 60, 64
2, 58923, Note_off_c, 0, 60, 64
2, 58923, Note_off_c, 0, 56, 64
2, 58923, Note_on_c, 0, 54, 64
2, 58923, Note_on_c, 0, 61, 64
2, 58983, Note_off_c, 0, 61, 64
2, 58983, Note_on_c, 0, 63, 64
2, 59043, Note_off_c, 0, 63, 64
2, 59043, Note_off_c, 0, 54, 64
2, 59043, Note_on_c, 0, 56, 64
2, 59043, Note_on_c, 0, 52, 64
2, 59103, Note_on_c, 0, 73, 64
2, 59163, Note_off_c, 0, 73, 64
2, 59163, Note_off_c, 0, 52, 64
2, 59163, Note_off_c, 0, 56, 64
2, 59163, Note_on_c, 0, 68, 64
2, 59163, Note_on_c, 0, 61, 64
2, 59223, Note_off_c, 0, 68, 64
2, 59223, Note_on_c, 0, 67, 64
2, 59283, Note_off_c, 0, 67, 64
2, 59283, Note_off_c, 0, 61, 64
2, 59283, Note_on_c, 0, 68, 64
2, 59283, Note_on_c, 0, 61, 64
2, 59343, Note_off_c, 0, 68, 64
2, 59343, Note_on_c, 0, 72, 64
2, 59403, Note_off_c, 0, 72, 64
2, 59403, Note_off_c, 0, 61, 64
2, 59403, Note_on_c, 0, 73, 64
2, 59403, Note_on_c, 0, 56, 64
2, 59463, Note_off_c, 0, 73, 64
2, 59463, Note_on_c, 0, 75, 64
2, 59523, Note_off_c, 0, 75, 64
2, 59523, Note_off_c, 0, 56, 64
2, 59523, Note_on_c, 0, 49, 64
2, 59523, Note_on_c, 0, 76, 64
2, 59523, Note_on_c, 0, 56, 64
2, 59583, Note_off_c, 0, 76, 64
2, 59583, Note_on_c, 0, 75, 64
2, 59643, Note_off_c, 0, 75, 64
2, 59643, Note_off_c, 0, 56, 64
2, 59643, Note_on_c, 0, 56, 64
2, 59643, Note_on_c, 0, 76, 64
2, 59703, Note_off_c, 0, 76, 64
2, 59703, Note_on_c, 0, 73, 64
2, 59763, Note_off_c, 0, 73, 64
2, 59763, Note_off_c, 0, 56, 64
2, 59763, Note_off_c, 0, 49, 64
2, 59763, Note_on_c, 0, 76, 64
2, 59763, Note_on_c, 0, 56, 64
2, 59763, Note_on_c, 0, 48, 64
2, 59823, Note_off_c, 0, 76, 64
2, 59823, Note_on_c, 0, 72, 64
2, 59883, Note_off_c, 0, 72, 64
2, 59883, Note_off_c, 0, 48, 64
2, 59883, Note_off_c, 0, 56, 64
2, 59883, Note_on_c, 0, 68, 64
2, 59883, Note_on_c, 0, 63, 64
2, 59943, Note_off_c, 0, 68, 64
2, 59943, Note_on_c, 0, 67, 64
2, 60003, Note_off_c, 0, 67, 64
2, 60003, Note_off_c, 0, 63, 64
2, 60003, Note_on_c, 0, 68, 64
2, 60003, Note_on_c, 0, 63, 64
2, 60063, Note_off_c, 0, 68, 64
2, 60063, Note_on_c, 0, 72, 64
2, 60123, Note_off_c, 0, 72, 64
2, 60123, Note_off_c, 0, 63, 64
2, 60123, Note_on_c, 0, 75, 64
2, 60123, Note_on_c, 0, 56, 64
2, 60183, Note_off_c, 0, 75, 64
2, 60183, Note_on_c, 0, 76, 64
2, 60243, Note_off_c, 0, 76, 64
2, 60243, Note_off_c, 0, 56, 64
2, 60243, Note_on_c, 0, 44, 64
2, 60243, Note_on_c, 0, 78, 64
2, 60243, Note_on_c, 0, 56, 64
2, 60303, Note_off_c, 0, 78, 64
2, 60303, Note_on_c, 0, 76, 64
2, 60363, Note_off_c, 0, 76, 64
2, 60363, Note_off_c, 0, 56, 64
2, 60363, Note_on_c, 0, 56, 64
2, 60363, Note_on_c, 0, 78, 64
2, 60423, Note_off_c, 0, 78, 64
2, 60423, Note_on_c, 0, 75, 64
2, 60483, Note_off_c, 0, 75, 64
2, 60483, Note_off_c, 0, 56, 64
2, 60483, Note_off_c, 0, 44, 64
2, 60483, Note_on_c, 0, 76, 64
2, 60483, Note_on_c, 0, 56, 64
2, 60483, Note_on_c, 0, 49, 64
2, 60543, Note_off_c, 0, 56, 64
2, 60543, Note_on_c, 0, 73, 64
2, 60603, Note_off_c, 0, 73, 64
2, 60603, Note_off_c, 0, 49, 64
2, 60603, Note_on_c, 0, 68, 64
2, 60603, Note_on_c, 0, 52, 64
2, 60663, Note_off_c, 0, 68, 64
2, 60663, Note_on_c, 0, 71, 64
2, 60723, Note_off_c, 0, 71, 64
2, 60723, Note_off_c, 0, 52, 64
2, 60723, Note_on_c, 0, 69, 64
2, 60723, Note_on_c, 0, 54, 64
2, 60783, Note_off_c, 0, 69, 64
2, 60783, Note_on_c, 0, 73, 64
2, 60843, Note_off_c, 0, 73, 64
2, 60843, Note_off_c, 0, 54, 64
2, 60843, Note_on_c, 0, 66, 64
2, 60843, Note_on_c, 0, 57, 64
2, 60903, Note_off_c, 0, 76, 64
2, 60903, Note_on_c, 0, 75, 64
2, 60963, Note_off_c, 0, 57, 64
2, 60963, Note_off_c, 0, 66, 64
2, 60963, Note_on_c, 0, 64, 64
2, 60963, Note_on_c, 0, 55, 64
2, 61023, Note_off_c, 0, 75, 64
2, 61023, Note_on_c, 0, 73, 64
2, 61083, Note_off_c, 0, 55, 64
2, 61083, Note_off_c, 0, 64, 64
2, 61083, Note_on_c, 0, 56, 64
2, 61083, Note_on_c, 0, 63, 64
2, 61143, Note_off_c, 0, 73, 64
2, 61143, Note_on_c, 0, 72, 64
2, 61203, Note_off_c, 0, 72, 64
2, 61203, Note_off_c, 0, 63, 64
2, 61203, Note_off_c, 0, 56, 64
2, 61203, Note_on_c, 0, 73, 64
2, 61203, Note_on_c, 0, 64, 64
2, 61203, Note_on_c, 0, 49, 64
2, 61263, Note_off_c, 0, 64, 64
2, 61263, Note_on_c, 0, 69, 64
2, 61323, Note_off_c, 0, 69, 64
2, 61323, Note_off_c, 0, 49, 64
2, 61323, Note_on_c, 0, 68, 64
2, 61323, Note_on_c, 0, 52, 64
2, 61383, Note_off_c, 0, 68, 64
2, 61383, Note_on_c, 0, 66, 64
2, 61443, Note_off_c, 0, 66, 64
2, 61443, Note_off_c, 0, 52, 64
2, 61443, Note_off_c, 0, 73, 64
2, 61443, Note_on_c, 0, 64, 64
2, 61443, Note_on_c, 0, 56, 64
2, 61503, Note_off_c, 0, 64, 64
2, 61503, Note_on_c, 0, 63, 64
2, 61563, Note_off_c, 0, 63, 64
2, 61563, Note_off_c, 0, 56, 64
2, 61563, Note_on_c, 0, 64, 64
2, 61563, Note_on_c, 0, 61, 64
2, 61623, Note_off_c, 0, 64, 64
2, 61623, Note_on_c, 0, 66, 64
2, 61683, Note_off_c, 0, 66, 64
2, 61683, Note_off_c, 0, 61, 64
2, 61683, Note_on_c, 0, 68, 64
2, 61683, Note_on_c, 0, 59, 64
2, 61743, Note_off_c, 0, 68, 64
2, 61743, Note_on_c, 0, 69, 64
2, 61803, Note_off_c, 0, 69, 64
2, 61803, Note_off_c, 0, 59, 64
2, 61803, Note_on_c, 0, 57, 64
2, 61803, Note_on_c, 0, 71, 64
2, 61833, Note_off_c, 0, 71, 64
2, 61833, Note_on_c, 0, 69, 64
2, 61863, Note_off_c, 0, 69, 64
2, 61863, Note_on_c, 0, 68, 64
2, 61893, Note_off_c, 0, 68, 64
2, 61893, Note_on_c, 0, 69, 64
2, 61923, Note_off_c, 0, 69, 64
2, 61923, Note_off_c, 0, 57, 64
2, 61923, Note_on_c, 0, 71, 64
2, 61923, Note_on_c, 0, 56, 64
2, 61983, Note_on_c, 0, 76, 64
2, 62043, Note_off_c, 0, 76, 64
2, 62043, Note_off_c, 0, 56, 64
2, 62043, Note_off_c, 0, 71, 64
2, 62043, Note_on_c, 0, 75, 64
2, 62043, Note_on_c, 0, 59, 64
2, 62103, Note_off_c, 0, 75, 64
2, 62103, Note_on_c, 0, 73, 64
2, 62163, Note_off_c, 0, 73, 64
2, 62163, Note_off_c, 0, 59, 64
2, 62163, Note_on_c, 0, 71, 64
2, 62163, Note_on_c, 0, 64, 64
2, 62223, Note_off_c, 0, 71, 64
2, 62223, Note_on_c, 0, 70, 64
2, 62283, Note_off_c, 0, 70, 64
2, 62283, Note_off_c, 0, 64, 64
2, 62283, Note_on_c, 0, 71, 64
2, 62283, Note_on_c, 0, 68, 64
2, 62343, Note_off_c, 0, 71, 64
2, 62343, Note_on_c, 0, 73, 64
2, 62403, Note_off_c, 0, 73, 64
2, 62403, Note_off_c, 0, 68, 64
2, 62403, Note_on_c, 0, 75, 64
2, 62403, Note_on_c, 0, 66, 64
2, 62463, Note_off_c, 0, 75, 64
2, 62463, Note_on_c, 0, 76, 64
2, 62523, Note_off_c, 0, 76, 64
2, 62523, Note_off_c, 0, 66, 64
2, 62523, Note_on_c, 0, 64, 64
2, 62523, Note_on_c, 0, 78, 64
2, 62553, Note_off_c, 0, 78, 64
2, 62553, Note_on_c, 0, 76, 64
2, 62583, Note_off_c, 0, 76, 64
2, 62583, Note_on_c, 0, 75, 64
2, 62613, Note_off_c, 0, 75, 64
2, 62613, Note_on_c, 0, 76, 64
2, 62643, Note_off_c, 0, 76, 64
2, 62643, Note_off_c, 0, 64, 64
2, 62643, Note_on_c, 0, 78, 64
2, 62643, Note_on_c, 0, 63, 64
2, 62703, Note_off_c, 0, 78, 64
2, 62703, Note_on_c, 0, 80, 64
2, 62763, Note_off_c, 0, 80, 64
2, 62763, Note_off_c, 0, 63, 64
2, 62763, Note_on_c, 0, 78, 64
2, 62763, Note_on_c, 0, 68, 64
2, 62763, Note_on_c, 0, 71, 64
2, 62823, Note_off_c, 0, 78, 64
2, 62823, Note_on_c, 0, 76, 64
2, 62883, Note_off_c, 0, 76, 64
2, 62883, Note_off_c, 0, 71, 64
2, 62883, Note_off_c, 0, 68, 64
2, 62883, Note_on_c, 0, 75, 64
2, 62883, Note_on_c, 0, 66, 64
2, 62883, Note_on_c, 0, 69, 64
2, 62943, Note_off_c, 0, 75, 64
2, 62943, Note_on_c, 0, 73, 64
2, 63003, Note_off_c, 0, 73, 64
2, 63003, Note_off_c, 0, 69, 64
2, 63003, Note_off_c, 0, 66, 64
2, 63003, Note_on_c, 0, 75, 64
2, 63003, Note_on_c, 0, 64, 64
2, 63003, Note_on_c, 0, 68, 64
2, 63123, Note_off_c, 0, 68, 64
2, 63123, Note_off_c, 0, 64, 64
2, 63123, Note_off_c, 0, 75, 64
2, 63123, Note_on_c, 0, 78, 64
2, 63123, Note_on_c, 0, 63, 64
2, 63123, Note_on_c, 0, 66, 64
2, 63183, Note_off_c, 0, 78, 64
2, 63183, Note_on_c, 0, 80, 64
2, 63243, Note_off_c, 0, 80, 64
2, 63243, Note_off_c, 0, 66, 64
2, 63243, Note_off_c, 0, 63, 64
2, 63243, Note_on_c, 0, 64, 64
2, 63243, Note_on_c, 0, 61, 64
2, 63243, Note_on_c, 0, 81, 64
2, 63273, Note_off_c, 0, 81, 64
2, 63273, Note_on_c, 0, 80, 64
2, 63303, Note_off_c, 0, 80, 64
2, 63303, Note_on_c, 0, 78, 64
2, 63333, Note_off_c, 0, 78, 64
2, 63333, Note_on_c, 0, 80, 64
2, 63363, Note_off_c, 0, 80, 64
2, 63363, Note_off_c, 0, 61, 64
2, 63363, Note_off_c, 0, 64, 64
2, 63363, Note_on_c, 0, 81, 64
2, 63363, Note_on_c, 0, 59, 64
2, 63363, Note_on_c, 0, 63, 64
2, 63423, Note_off_c, 0, 81, 64
2, 63423, Note_on_c, 0, 73, 64
2, 63483, Note_off_c, 0, 73, 64
2, 63483, Note_off_c, 0, 63, 64
2, 63483, Note_off_c, 0, 59, 64
2, 63483, Note_on_c, 0, 71, 64
2, 63483, Note_on_c, 0, 61, 64
2, 63483, Note_on_c, 0, 64, 64
2, 63543, Note_off_c, 0, 71, 64
2, 63543, Note_on_c, 0, 70, 64
2, 63603, Note_off_c, 0, 70, 64
2, 63603, Note_off_c, 0, 64, 64
2, 63603, Note_off_c, 0, 61, 64
2, 63603, Note_on_c, 0, 71, 64
2, 63603, Note_on_c, 0, 59, 64
2, 63603, Note_on_c, 0, 63, 64
2, 63663, Note_off_c, 0, 71, 64
2, 63663, Note_on_c, 0, 81, 64
2, 63723, Note_off_c, 0, 81, 64
2, 63723, Note_off_c, 0, 63, 64
2, 63723, Note_off_c, 0, 59, 64
2, 63723, Note_on_c, 0, 80, 64
2, 63723, Note_on_c, 0, 57, 64
2, 63723, Note_on_c, 0, 61, 64
2, 63783, Note_off_c, 0, 80, 64
2, 63783, Note_on_c, 0, 78, 64
2, 63843, Note_off_c, 0, 78, 64
2, 63843, Note_off_c, 0, 61, 64
2, 63843, Note_off_c, 0, 57, 64
2, 63843, Note_on_c, 0, 59, 64
2, 63843, Note_on_c, 0, 83, 64
2, 63843, Note_on_c, 0, 56, 64
2, 63903, Note_off_c, 0, 83, 64
2, 63903, Note_on_c, 0, 76, 64
2, 63963, Note_off_c, 0, 76, 64
2, 63963, Note_off_c, 0, 56, 64
2, 63963, Note_on_c, 0, 54, 64
2, 63963, Note_on_c, 0, 75, 64
2, 64023, Note_off_c, 0, 75, 64
2, 64023, Note_on_c, 0, 81, 64
2, 64083, Note_off_c, 0, 81, 64
2, 64083, Note_off_c, 0, 54, 64
2, 64083, Note_on_c, 0, 80, 64
2, 64083, Note_on_c, 0, 52, 64
2, 64143, Note_off_c, 0, 80, 64
2, 64143, Note_off_c, 0, 59, 64
2, 64143, Note_on_c, 0, 66, 64
2, 64203, Note_off_c, 0, 66, 64
2, 64203, Note_off_c, 0, 52, 64
2, 64203, Note_on_c, 0, 64, 64
2, 64203, Note_on_c, 0, 54, 64
2, 64263, Note_off_c, 0, 64, 64
2, 64263, Note_on_c, 0, 63, 64
2, 64323, Note_off_c, 0, 63, 64
2, 64323, Note_off_c, 0, 54, 64
2, 64323, Note_on_c, 0, 64, 64
2, 64323, Note_on_c, 0, 56, 64
2, 64383, Note_off_c, 0, 64, 64
2, 64383, Note_on_c, 0, 74, 64
2, 64443, Note_off_c, 0, 74, 64
2, 64443, Note_off_c, 0, 56, 64
2, 64443, Note_on_c, 0, 73, 64
2, 64443, Note_on_c, 0, 52, 64
2, 64503, Note_off_c, 0, 73, 64
2, 64503, Note_on_c, 0, 71, 64
2, 64563, Note_off_c, 0, 71, 64
2, 64563, Note_off_c, 0, 52, 64
2, 64563, Note_on_c, 0, 76, 64
2, 64563, Note_on_c, 0, 49, 64
2, 64623, Note_off_c, 0, 76, 64
2, 64623, Note_on_c, 0, 69, 64
2, 64683, Note_off_c, 0, 69, 64
2, 64683, Note_off_c, 0, 49, 64
2, 64683, Note_on_c, 0, 52, 64
2, 64683, Note_on_c, 0, 68, 64
2, 64743, Note_off_c, 0, 68, 64
2, 64743, Note_on_c, 0, 74, 64
2, 64803, Note_off_c, 0, 74, 64
2, 64803, Note_off_c, 0, 52, 64
2, 64803, Note_on_c, 0, 73, 64
2, 64803, Note_on_c, 0, 45, 64
2, 64863, Note_on_c, 0, 80, 64
2, 64923, Note_off_c, 0, 80, 64
2, 64923, Note_off_c, 0, 45, 64
2, 64923, Note_on_c, 0, 78, 64
2, 64923, Note_on_c, 0, 57, 64
2, 64983, Note_off_c, 0, 78, 64
2, 64983, Note_on_c, 0, 76, 64
2, 65043, Note_off_c, 0, 76, 64
2, 65043, Note_on_c, 0, 78, 64
2, 65103, Note_off_c, 0, 57, 64
2, 65103, Note_on_c, 0, 56, 64
2, 65163, Note_off_c, 0, 56, 64
2, 65163, Note_off_c, 0, 78, 64
2, 65163, Note_on_c, 0, 81, 64
2, 65163, Note_on_c, 0, 54, 64
2, 65223, Note_off_c, 0, 54, 64
2, 65223, Note_on_c, 0, 52, 64
2, 65283, Note_off_c, 0, 52, 64
2, 65283, Note_off_c, 0, 73, 64
2, 65283, Note_on_c, 0, 71, 64
2, 65283, Note_on_c, 0, 51, 64
2, 65343, Note_off_c, 0, 51, 64
2, 65343, Note_on_c, 0, 49, 64
2, 65403, Note_off_c, 0, 49, 64
2, 65403, Note_off_c, 0, 81, 64
2, 65403, Note_on_c, 0, 75, 64
2, 65403, Note_on_c, 0, 47, 64
2, 65463, Note_off_c, 0, 47, 64
2, 65463, Note_on_c, 0, 45, 64
2, 65523, Note_off_c, 0, 45, 64
2, 65523, Note_on_c, 0, 44, 64
2, 65583, Note_off_c, 0, 75, 64
2, 65583, Note_on_c, 0, 78, 64
2, 65643, Note_off_c, 0, 78, 64
2, 65643, Note_off_c, 0, 44, 64
2, 65643, Note_on_c, 0, 76, 64
2, 65643, Note_on_c, 0, 56, 64
2, 65703, Note_off_c, 0, 76, 64
2, 65703, Note_on_c, 0, 75, 64
2, 65763, Note_off_c, 0, 75, 64
2, 65763, Note_on_c, 0, 76, 64
2, 65823, Note_off_c, 0, 56, 64
2, 65823, Note_on_c, 0, 54, 64
2, 65883, Note_off_c, 0, 54, 64
2, 65883, Note_off_c, 0, 76, 64
2, 65883, Note_on_c, 0, 80, 64
2, 65883, Note_on_c, 0, 52, 64
2, 65943, Note_off_c, 0, 52, 64
2, 65943, Note_on_c, 0, 51, 64
2, 66003, Note_off_c, 0, 51, 64
2, 66003, Note_off_c, 0, 71, 64
2, 66003, Note_on_c, 0, 69, 64
2, 66003, Note_on_c, 0, 49, 64
2, 66063, Note_off_c, 0, 49, 64
2, 66063, Note_on_c, 0, 47, 64
2, 66123, Note_off_c, 0, 47, 64
2, 66123, Note_off_c, 0, 80, 64
2, 66123, Note_on_c, 0, 73, 64
2, 66123, Note_on_c, 0, 45, 64
2, 66183, Note_off_c, 0, 45, 64
2, 66183, Note_on_c, 0, 44, 64
2, 66243, Note_off_c, 0, 44, 64
2, 66243, Note_on_c, 0, 42, 64
2, 66303, Note_off_c, 0, 73, 64
2, 66303, Note_on_c, 0, 76, 64
2, 66363, Note_off_c, 0, 76, 64
2, 66363, Note_off_c, 0, 42, 64
2, 66363, Note_on_c, 0, 75, 64
2, 66363, Note_on_c, 0, 54, 64
2, 66423, Note_off_c, 0, 75, 64
2, 66423, Note_on_c, 0, 73, 64
2, 66483, Note_off_c, 0, 73, 64
2, 66483, Note_on_c, 0, 75, 64
2, 66543, Note_off_c, 0, 54, 64
2, 66543, Note_on_c, 0, 52, 64
2, 66603, Note_off_c, 0, 52, 64
2, 66603, Note_off_c, 0, 75, 64
2, 66603, Note_on_c, 0, 78, 64
2, 66603, Note_on_c, 0, 51, 64
2, 66663, Note_off_c, 0, 51, 64
2, 66663, Note_on_c, 0, 49, 64
2, 66723, Note_off_c, 0, 49, 64
2, 66723, Note_off_c, 0, 78, 64
2, 66723, Note_on_c, 0, 78, 64
2, 66723, Note_on_c, 0, 47, 64
2, 66783, Note_off_c, 0, 47, 64
2, 66783, Note_on_c, 0, 45, 64
2, 66843, Note_off_c, 0, 45, 64
2, 66843, Note_off_c, 0, 78, 64
2, 66843, Note_on_c, 0, 63, 64
2, 66843, Note_on_c, 0, 69, 64
2, 66843, Note_on_c, 0, 44, 64
2, 66844, Note_off_c, 0, 69, 64
2, 66903, Note_off_c, 0, 44, 64
2, 66903, Note_on_c, 0, 42, 64
2, 66963, Note_off_c, 0, 42, 64
2, 66963, Note_on_c, 0, 40, 64
2, 67023, Note_off_c, 0, 63, 64
2, 67023, Note_on_c, 0, 59, 64
2, 67083, Note_off_c, 0, 40, 64
2, 67083, Note_off_c, 0, 69, 64
2, 67083, Note_on_c, 0, 68, 64
2, 67083, Note_on_c, 0, 52, 64
2, 67143, Note_off_c, 0, 68, 64
2, 67143, Note_on_c, 0, 66, 64
2, 67203, Note_off_c, 0, 66, 64
2, 67203, Note_on_c, 0, 64, 64
2, 67203, Note_on_c, 0, 68, 64
2, 67263, Note_off_c, 0, 52, 64
2, 67263, Note_on_c, 0, 51, 64
2, 67323, Note_off_c, 0, 51, 64
2, 67323, Note_on_c, 0, 52, 64
2, 67383, Note_off_c, 0, 52, 64
2, 67383, Note_on_c, 0, 54, 64
2, 67443, Note_off_c, 0, 54, 64
2, 67443, Note_off_c, 0, 59, 64
2, 67443, Note_on_c, 0, 56, 64
2, 67503, Note_off_c, 0, 56, 64
2, 67503, Note_on_c, 0, 59, 64
2, 67563, Note_off_c, 0, 59, 64
2, 67563, Note_on_c, 0, 52, 64
2, 67623, Note_off_c, 0, 52, 64
2, 67623, Note_on_c, 0, 56, 64
2, 67683, Note_off_c, 0, 56, 64
2, 67683, Note_off_c, 0, 64, 64
2, 67683, Note_on_c, 0, 61, 64
2, 67683, Note_on_c, 0, 57, 64
2, 67743, Note_off_c, 0, 68, 64
2, 67743, Note_on_c, 0, 68, 64
2, 67803, Note_off_c, 0, 68, 64
2, 67803, Note_off_c, 0, 57, 64
2, 67803, Note_on_c, 0, 66, 64
2, 67803, Note_on_c, 0, 45, 64
2, 67863, Note_off_c, 0, 66, 64
2, 67863, Note_on_c, 0, 64, 64
2, 67923, Note_off_c, 0, 64, 64
2, 67923, Note_off_c, 0, 45, 64
2, 67923, Note_off_c, 0, 61, 64
2, 67923, Note_on_c, 0, 63, 64
2, 67923, Note_on_c, 0, 57, 64
2, 67983, Note_off_c, 0, 63, 64
2, 67983, Note_on_c, 0, 61, 64
2, 68043, Note_off_c, 0, 61, 64
2, 68043, Note_off_c, 0, 57, 64
2, 68043, Note_on_c, 0, 63, 64
2, 68043, Note_on_c, 0, 59, 64
2, 68103, Note_off_c, 0, 63, 64
2, 68103, Note_on_c, 0, 64, 64
2, 68163, Note_off_c, 0, 64, 64
2, 68163, Note_off_c, 0, 59, 64
2, 68163, Note_on_c, 0, 66, 64
2, 68163, Note_on_c, 0, 57, 64
2, 68223, Note_off_c, 0, 66, 64
2, 68223, Note_on_c, 0, 68, 64
2, 68283, Note_off_c, 0, 68, 64
2, 68283, Note_off_c, 0, 57, 64
2, 68283, Note_on_c, 0, 56, 64
2, 68283, Note_on_c, 0, 69, 64
2, 68313, Note_off_c, 0, 69, 64
2, 68313, Note_on_c, 0, 68, 64
2, 68343, Note_off_c, 0, 68, 64
2, 68343, Note_on_c, 0, 66, 64
2, 68373, Note_off_c, 0, 66, 64
2, 68373, Note_on_c, 0, 68, 64
2, 68403, Note_off_c, 0, 68, 64
2, 68403, Note_off_c, 0, 56, 64
2, 68403, Note_on_c, 0, 69, 64
2, 68403, Note_on_c, 0, 54, 64
2, 68463, Note_on_c, 0, 64, 64
2, 68523, Note_off_c, 0, 64, 64
2, 68523, Note_on_c, 0, 63, 64
2, 68583, Note_off_c, 0, 63, 64
2, 68583, Note_on_c, 0, 61, 64
2, 68643, Note_off_c, 0, 61, 64
2, 68643, Note_off_c, 0, 54, 64
2, 68643, Note_on_c, 0, 59, 64
2, 68703, Note_off_c, 0, 59, 64
2, 68703, Note_on_c, 0, 58, 64
2, 68763, Note_off_c, 0, 58, 64
2, 68763, Note_on_c, 0, 59, 64
2, 68763, Note_on_c, 0, 56, 64
2, 68823, Note_off_c, 0, 59, 64
2, 68823, Note_on_c, 0, 61, 64
2, 68883, Note_off_c, 0, 61, 64
2, 68883, Note_off_c, 0, 56, 64
2, 68883, Note_on_c, 0, 63, 64
2, 68883, Note_on_c, 0, 54, 64
2, 68943, Note_off_c, 0, 63, 64
2, 68943, Note_on_c, 0, 64, 64
2, 69003, Note_off_c, 0, 64, 64
2, 69003, Note_off_c, 0, 54, 64
2, 69003, Note_on_c, 0, 52, 64
2, 69003, Note_on_c, 0, 66, 64
2, 69033, Note_off_c, 0, 66, 64
2, 69033, Note_on_c, 0, 64, 64
2, 69063, Note_off_c, 0, 64, 64
2, 69063, Note_on_c, 0, 63, 64
2, 69093, Note_off_c, 0, 63, 64
2, 69093, Note_on_c, 0, 64, 64
2, 69113, Note_off_c, 0, 52, 64
2, 69126, Note_off_c, 0, 64, 64
2, 69126, Note_on_c, 0, 52, 72
2, 69126, Note_on_c, 0, 66, 64
2, 69156, Note_off_c, 0, 52, 64
2, 69156, Note_on_c, 0, 51, 64
2, 69246, Note_off_c, 0, 69, 64
2, 69246, Note_on_c, 0, 78, 64
2, 69366, Note_off_c, 0, 78, 64
2, 69366, Note_off_c, 0, 66, 64
2, 69366, Note_on_c, 0, 78, 64
2, 69426, Note_off_c, 0, 51, 64
2, 69426, Note_on_c, 0, 59, 64
2, 69486, Note_off_c, 0, 59, 64
2, 69486, Note_off_c, 0, 78, 64
2, 69486, Note_on_c, 0, 69, 64
2, 69486, Note_on_c, 0, 66, 64
2, 69486, Note_on_c, 0, 61, 64
2, 69546, Note_off_c, 0, 61, 64
2, 69546, Note_on_c, 0, 63, 64
2, 69606, Note_off_c, 0, 63, 64
2, 69606, Note_off_c, 0, 66, 64
2, 69606, Note_off_c, 0, 69, 64
2, 69606, Note_on_c, 0, 68, 64
2, 69606, Note_on_c, 0, 64, 64
2, 69666, Note_on_c, 0, 61, 64
2, 69726, Note_off_c, 0, 61, 64
2, 69726, Note_off_c, 0, 64, 64
2, 69726, Note_off_c, 0, 68, 64
2, 69726, Note_on_c, 0, 83, 64
2, 69726, Note_on_c, 0, 59, 64
2, 69786, Note_off_c, 0, 59, 64
2, 69786, Note_on_c, 0, 57, 64
2, 69846, Note_off_c, 0, 57, 64
2, 69846, Note_off_c, 0, 83, 64
2, 69846, Note_on_c, 0, 83, 64
2, 69846, Note_on_c, 0, 56, 64
2, 69906, Note_off_c, 0, 56, 64
2, 69906, Note_on_c, 0, 54, 64
2, 69966, Note_off_c, 0, 54, 64
2, 69966, Note_off_c, 0, 83, 64
2, 69966, Note_on_c, 0, 76, 64
2, 69966, Note_on_c, 0, 68, 64
2, 69966, Note_on_c, 0, 56, 64
2, 70026, Note_off_c, 0, 56, 64
2, 70026, Note_on_c, 0, 57, 64
2, 70086, Note_off_c, 0, 57, 64
2, 70086, Note_off_c, 0, 68, 64
2, 70086, Note_off_c, 0, 76, 64
2, 70086, Note_on_c, 0, 75, 64
2, 70086, Note_on_c, 0, 66, 64
2, 70086, Note_on_c, 0, 59, 64
2, 70146, Note_off_c, 0, 59, 64
2, 70146, Note_on_c, 0, 56, 64
2, 70206, Note_off_c, 0, 56, 64
2, 70206, Note_off_c, 0, 75, 64
2, 70206, Note_on_c, 0, 81, 64
2, 70206, Note_on_c, 0, 54, 64
2, 70266, Note_off_c, 0, 54, 64
2, 70266, Note_on_c, 0, 52, 64
2, 70326, Note_off_c, 0, 52, 64
2, 70326, Note_off_c, 0, 81, 64
2, 70326, Note_off_c, 0, 66, 64
2, 70326, Note_on_c, 0, 81, 64
2, 70326, Note_on_c, 0, 51, 64
2, 70386, Note_off_c, 0, 51, 64
2, 70386, Note_on_c, 0, 49, 64
2, 70446, Note_off_c, 0, 49, 64
2, 70446, Note_off_c, 0, 81, 64
2, 70446, Note_on_c, 0, 69, 64
2, 70446, Note_on_c, 0, 66, 64
2, 70446, Note_on_c, 0, 71, 64
2, 70446, Note_on_c, 0, 51, 64
2, 70506, Note_off_c, 0, 51, 64
2, 70506, Note_on_c, 0, 52, 64
2, 70566, Note_off_c, 0, 52, 64
2, 70566, Note_off_c, 0, 71, 64
2, 70566, Note_off_c, 0, 66, 64
2, 70566, Note_off_c, 0, 69, 64
2, 70566, Note_on_c, 0, 71, 64
2, 70566, Note_on_c, 0, 63, 64
2, 70566, Note_on_c, 0, 69, 64
2, 70566, Note_on_c, 0, 54, 64
2, 70626, Note_off_c, 0, 54, 64
2, 70626, Note_on_c, 0, 51, 64
2, 70686, Note_off_c, 0, 51, 64
2, 70686, Note_on_c, 0, 49, 64
2, 70746, Note_off_c, 0, 49, 64
2, 70746, Note_on_c, 0, 47, 64
2, 70806, Note_off_c, 0, 47, 64
2, 70806, Note_off_c, 0, 63, 64
2, 70806, Note_on_c, 0, 64, 64
2, 70806, Note_on_c, 0, 52, 64
2, 70866, Note_off_c, 0, 69, 64
2, 70866, Note_on_c, 0, 68, 64
2, 70926, Note_off_c, 0, 52, 64
2, 70926, Note_off_c, 0, 71, 64
2, 70926, Note_on_c, 0, 73, 64
2, 70926, Note_on_c, 0, 49, 64
2, 70986, Note_off_c, 0, 73, 64
2, 70986, Note_on_c, 0, 76, 64
2, 71046, Note_off_c, 0, 49, 64
2, 71046, Note_off_c, 0, 68, 64
2, 71046, Note_off_c, 0, 64, 64
2, 71046, Note_on_c, 0, 66, 64
2, 71046, Note_on_c, 0, 45, 64
2, 71106, Note_off_c, 0, 76, 64
2, 71106, Note_on_c, 0, 76, 64
2, 71166, Note_off_c, 0, 45, 64
2, 71166, Note_off_c, 0, 66, 64
2, 71166, Note_on_c, 0, 47, 64
2, 71166, Note_on_c, 0, 69, 64
2, 71226, Note_off_c, 0, 76, 64
2, 71226, Note_on_c, 0, 75, 64
2, 71286, Note_off_c, 0, 75, 64
2, 71286, Note_off_c, 0, 69, 64
2, 71286, Note_off_c, 0, 47, 64
2, 71286, Note_on_c, 0, 68, 64
2, 71286, Note_on_c, 0, 52, 64
2, 71346, Note_on_c, 0, 71, 64
2, 71406, Note_off_c, 0, 71, 64
2, 71406, Note_off_c, 0, 52, 64
2, 71406, Note_on_c, 0, 76, 64
2, 71406, Note_on_c, 0, 40, 64
2, 71466, Note_off_c, 0, 76, 64
2, 71466, Note_on_c, 0, 75, 64
2, 71526, Note_off_c, 0, 75, 64
2, 71526, Note_off_c, 0, 40, 64
2, 71526, Note_off_c, 0, 68, 64
2, 71526, Note_on_c, 0, 76, 64
2, 71526, Note_on_c, 0, 40, 64
2, 71586, Note_on_c, 0, 71, 64
2, 71646, Note_off_c, 0, 71, 64
2, 71646, Note_off_c, 0, 40, 64
2, 71646, Note_on_c, 0, 69, 64
2, 71646, Note_on_c, 0, 52, 64
2, 71706, Note_off_c, 0, 69, 64
2, 71706, Note_on_c, 0, 71, 64
2, 71766, Note_off_c, 0, 71, 64
2, 71766, Note_off_c, 0, 52, 64
2, 71766, Note_off_c, 0, 76, 64
2, 71766, Note_on_c, 0, 73, 64
2, 71766, Note_on_c, 0, 52, 64
2, 71826, Note_on_c, 0, 69, 64
2, 71886, Note_off_c, 0, 69, 64
2, 71886, Note_off_c, 0, 52, 64
2, 71886, Note_on_c, 0, 40, 64
2, 71886, Note_on_c, 0, 68, 64
2, 71946, Note_off_c, 0, 68, 64
2, 71946, Note_on_c, 0, 69, 64
2, 72006, Note_off_c, 0, 40, 64
2, 72006, Note_off_c, 0, 73, 64
2, 72006, Note_on_c, 0, 71, 64
2, 72006, Note_on_c, 0, 52, 64
2, 72066, Note_off_c, 0, 71, 64
2, 72066, Note_on_c, 0, 73, 64
2, 72126, Note_off_c, 0, 73, 64
2, 72126, Note_off_c, 0, 52, 64
2, 72126, Note_on_c, 0, 74, 64
2, 72126, Note_on_c, 0, 40, 64
2, 72186, Note_off_c, 0, 74, 64
2, 72186, Note_on_c, 0, 73, 64
2, 72246, Note_off_c, 0, 73, 64
2, 72246, Note_off_c, 0, 40, 64
2, 72246, Note_on_c, 0, 74, 64
2, 72246, Note_on_c, 0, 40, 64
2, 72306, Note_off_c, 0, 69, 64
2, 72306, Note_on_c, 0, 69, 64
2, 72366, Note_off_c, 0, 69, 64
2, 72366, Note_off_c, 0, 40, 64
2, 72366, Note_on_c, 0, 68, 64
2, 72366, Note_on_c, 0, 52, 64
2, 72426, Note_off_c, 0, 68, 64
2, 72426, Note_on_c, 0, 69, 64
2, 72486, Note_off_c, 0, 52, 64
2, 72486, Note_off_c, 0, 74, 64
2, 72486, Note_on_c, 0, 71, 64
2, 72486, Note_on_c, 0, 52, 64
2, 72546, Note_off_c, 0, 69, 64
2, 72546, Note_on_c, 0, 68, 64
2, 72606, Note_off_c, 0, 68, 64
2, 72606, Note_off_c, 0, 52, 64
2, 72606, Note_on_c, 0, 40, 64
2, 72606, Note_on_c, 0, 66, 64
2, 72666, Note_off_c, 0, 66, 64
2, 72666, Note_on_c, 0, 68, 64
2, 72726, Note_off_c, 0, 40, 64
2, 72726, Note_off_c, 0, 71, 64
2, 72726, Note_on_c, 0, 69, 64
2, 72726, Note_on_c, 0, 52, 64
2, 72786, Note_off_c, 0, 69, 64
2, 72786, Note_on_c, 0, 71, 64
2, 72846, Note_off_c, 0, 71, 64
2, 72846, Note_off_c, 0, 52, 64
2, 72846, Note_on_c, 0, 72, 64
2, 72846, Note_on_c, 0, 40, 64
2, 72906, Note_off_c, 0, 72, 64
2, 72906, Note_on_c, 0, 71, 64
2, 72966, Note_off_c, 0, 71, 64
2, 72966, Note_off_c, 0, 40, 64
2, 72966, Note_off_c, 0, 68, 64
2, 72966, Note_on_c, 0, 72, 64
2, 72966, Note_on_c, 0, 40, 64
2, 73026, Note_on_c, 0, 68, 64
2, 73086, Note_off_c, 0, 68, 64
2, 73086, Note_off_c, 0, 40, 64
2, 73086, Note_on_c, 0, 66, 64
2, 73086, Note_on_c, 0, 52, 64
2, 73146, Note_off_c, 0, 66, 64
2, 73146, Note_on_c, 0, 68, 64
2, 73206, Note_off_c, 0, 68, 64
2, 73206, Note_off_c, 0, 52, 64
2, 73206, Note_off_c, 0, 72, 64
2, 73206, Note_on_c, 0, 69, 64
2, 73206, Note_on_c, 0, 52, 64
2, 73266, Note_on_c, 0, 66, 64
2, 73326, Note_off_c, 0, 66, 64
2, 73326, Note_off_c, 0, 52, 64
2, 73326, Note_on_c, 0, 40, 64
2, 73326, Note_on_c, 0, 64, 64
2, 73386, Note_off_c, 0, 64, 64
2, 73386, Note_on_c, 0, 66, 64
2, 73446, Note_off_c, 0, 40, 64
2, 73446, Note_on_c, 0, 59, 64
2, 73446, Note_on_c, 0, 39, 64
2, 73506, Note_off_c, 0, 39, 64
2, 73506, Note_on_c, 0, 42, 64
2, 73566, Note_off_c, 0, 42, 64
2, 73566, Note_on_c, 0, 47, 64
2, 73626, Note_off_c, 0, 47, 64
2, 73626, Note_on_c, 0, 49, 64
2, 73686, Note_off_c, 0, 49, 64
2, 73686, Note_off_c, 0, 59, 64
2, 73686, Note_off_c, 0, 69, 64
2, 73686, Note_off_c, 0, 66, 64
2, 73686, Note_on_c, 0, 51, 64
2, 73746, Note_off_c, 0, 51, 64
2, 73746, Note_on_c, 0, 52, 64
2, 73806, Note_off_c, 0, 52, 64
2, 73806, Note_on_c, 0, 54, 64
2, 73866, Note_off_c, 0, 54, 64
2, 73866, Note_on_c, 0, 56, 64
2, 73926, Note_off_c, 0, 56, 64
2, 73926, Note_on_c, 0, 57, 64
2, 73986, Note_off_c, 0, 57, 64
2, 73986, Note_on_c, 0, 59, 64
2, 74046, Note_off_c, 0, 59, 64
2, 74046, Note_on_c, 0, 61, 64
2, 74106, Note_off_c, 0, 61, 64
2, 74106, Note_on_c, 0, 63, 64
2, 74166, Note_off_c, 0, 63, 64
2, 74166, Note_on_c, 0, 68, 64
2, 74166, Note_on_c, 0, 64, 64
2, 74226, Note_on_c, 0, 61, 64
2, 74286, Note_off_c, 0, 61, 64
2, 74286, Note_on_c, 0, 59, 64
2, 74346, Note_off_c, 0, 59, 64
2, 74346, Note_on_c, 0, 57, 64
2, 74406, Note_off_c, 0, 57, 64
2, 74406, Note_off_c, 0, 64, 64
2, 74406, Note_off_c, 0, 68, 64
2, 74406, Note_on_c, 0, 59, 64
2, 74466, Note_on_c, 0, 68, 64
2, 74526, Note_off_c, 0, 68, 64
2, 74526, Note_on_c, 0, 66, 64
2, 74586, Note_off_c, 0, 66, 64
2, 74586, Note_on_c, 0, 64, 64
2, 74646, Note_off_c, 0, 64, 64
2, 74646, Note_off_c, 0, 59, 64
2, 74646, Note_on_c, 0, 66, 64
2, 74646, Note_on_c, 0, 47, 64
2, 74706, Note_on_c, 0, 61, 64
2, 74766, Note_off_c, 0, 61, 64
2, 74766, Note_on_c, 0, 62, 64
2, 74826, Note_on_c, 0, 57, 64
2, 74886, Note_off_c, 0, 57, 64
2, 74886, Note_off_c, 0, 62, 64
2, 74886, Note_off_c, 0, 47, 64
2, 74886, Note_off_c, 0, 66, 64
2, 74886, Note_on_c, 0, 52, 64
2, 74886, Note_on_c, 0, 56, 64
2, 74946, Note_on_c, 0, 59, 64
2, 75006, Note_off_c, 0, 59, 64
2, 75006, Note_off_c, 0, 56, 64
2, 75006, Note_on_c, 0, 64, 64
2, 75006, Note_on_c, 0, 54, 64
2, 75066, Note_off_c, 0, 64, 64
2, 75066, Note_on_c, 0, 63, 64
2, 75126, Note_off_c, 0, 63, 64
2, 75126, Note_off_c, 0, 54, 64
2, 75126, Note_on_c, 0, 64, 64
2, 75126, Note_on_c, 0, 56, 64
2, 75186, Note_off_c, 0, 64, 64
2, 75186, Note_on_c, 0, 59, 64
2, 75246, Note_off_c, 0, 59, 64
2, 75246, Note_off_c, 0, 56, 64
2, 75246, Note_on_c, 0, 68, 64
2, 75246, Note_on_c, 0, 59, 64
2, 75306, Note_off_c, 0, 68, 64
2, 75306, Note_on_c, 0, 64, 64
2, 75366, Note_off_c, 0, 64, 64
2, 75366, Note_off_c, 0, 59, 64
2, 75366, Note_on_c, 0, 71, 64
2, 75366, Note_on_c, 0, 57, 64
2, 75426, Note_on_c, 0, 66, 64
2, 75486, Note_off_c, 0, 66, 64
2, 75486, Note_off_c, 0, 57, 64
2, 75486, Note_on_c, 0, 56, 64
2, 75486, Note_on_c, 0, 64, 64
2, 75546, Note_off_c, 0, 64, 64
2, 75546, Note_on_c, 0, 62, 64
2, 75606, Note_off_c, 0, 62, 64
2, 75606, Note_off_c, 0, 56, 64
2, 75606, Note_on_c, 0, 61, 64
2, 75606, Note_on_c, 0, 57, 64
2, 75666, Note_off_c, 0, 71, 64
2, 75666, Note_on_c, 0, 64, 64
2, 75726, Note_off_c, 0, 64, 64
2, 75726, Note_off_c, 0, 57, 64
2, 75726, Note_off_c, 0, 61, 64
2, 75726, Note_on_c, 0, 69, 64
2, 75726, Note_on_c, 0, 59, 64
2, 75786, Note_off_c, 0, 69, 64
2, 75786, Note_on_c, 0, 68, 64
2, 75846, Note_off_c, 0, 68, 64
2, 75846, Note_off_c, 0, 59, 64
2, 75846, Note_on_c, 0, 69, 64
2, 75846, Note_on_c, 0, 61, 64
2, 75906, Note_off_c, 0, 69, 64
2, 75906, Note_on_c, 0, 64, 64
2, 75966, Note_off_c, 0, 64, 64
2, 75966, Note_off_c, 0, 61, 64
2, 75966, Note_on_c, 0, 73, 64
2, 75966, Note_on_c, 0, 64, 64
2, 76026, Note_off_c, 0, 73, 64
2, 76026, Note_on_c, 0, 69, 64
2, 76086, Note_off_c, 0, 69, 64
2, 76086, Note_off_c, 0, 64, 64
2, 76086, Note_on_c, 0, 57, 64
2, 76086, Note_on_c, 0, 76, 64
2, 76146, Note_on_c, 0, 71, 64
2, 76206, Note_off_c, 0, 71, 64
2, 76206, Note_on_c, 0, 59, 64
2, 76206, Note_on_c, 0, 69, 64
2, 76266, Note_off_c, 0, 69, 64
2, 76266, Note_on_c, 0, 68, 64
2, 76326, Note_off_c, 0, 68, 64
2, 76326, Note_off_c, 0, 59, 64
2, 76326, Note_on_c, 0, 66, 64
2, 76326, Note_on_c, 0, 60, 64
2, 76386, Note_off_c, 0, 76, 64
2, 76386, Note_on_c, 0, 69, 64
2, 76446, Note_off_c, 0, 69, 64
2, 76446, Note_off_c, 0, 66, 64
2, 76446, Note_on_c, 0, 75, 64
2, 76506, Note_off_c, 0, 75, 64
2, 76506, Note_on_c, 0, 73, 64
2, 76566, Note_off_c, 0, 73, 64
2, 76566, Note_off_c, 0, 60, 64
2, 76566, Note_off_c, 0, 57, 64
2, 76566, Note_on_c, 0, 75, 64
2, 76626, Note_off_c, 0, 75, 64
2, 76626, Note_on_c, 0, 69, 64
2, 76686, Note_off_c, 0, 69, 64
2, 76686, Note_on_c, 0, 78, 64
2, 76686, Note_on_c, 0, 57, 64
2, 76686, Note_on_c, 0, 60, 64
2, 76746, Note_off_c, 0, 78, 64
2, 76746, Note_on_c, 0, 75, 64
2, 76806, Note_off_c, 0, 75, 64
2, 76806, Note_off_c, 0, 60, 64
2, 76806, Note_off_c, 0, 57, 64
2, 76806, Note_on_c, 0, 81, 64
2, 76806, Note_on_c, 0, 57, 64
2, 76806, Note_on_c, 0, 60, 64
2, 76866, Note_off_c, 0, 81, 64
2, 76866, Note_on_c, 0, 78, 64
2, 76926, Note_off_c, 0, 78, 64
2, 76926, Note_off_c, 0, 60, 64
2, 76926, Note_off_c, 0, 57, 64
2, 76926, Note_on_c, 0, 60, 64
2, 76926, Note_on_c, 0, 57, 64
2, 76926, Note_on_c, 0, 76, 64
2, 76986, Note_off_c, 0, 76, 64
2, 76986, Note_on_c, 0, 75, 64
2, 77046, Note_off_c, 0, 75, 64
2, 77046, Note_off_c, 0, 57, 64
2, 77046, Note_off_c, 0, 60, 64
2, 77046, Note_on_c, 0, 56, 64
2, 77046, Note_on_c, 0, 59, 64
2, 77046, Note_on_c, 0, 76, 64
2, 77046, Note_on_c, 0, 71, 64
2, 77046, Note_on_c, 0, 68, 64
2, 77766, Note_off_c, 0, 68, 64
2, 77766, Note_off_c, 0, 71, 64
2, 77766, Note_off_c, 0, 76, 64
2, 77766, Note_off_c, 0, 52, 64
2, 77766, Note_off_c, 0, 59, 58
2, 77766, Note_off_c, 0, 56, 65
2, 77766, End_track
0, 0, End_of_file
