0, 0, Header, 1, 2, 240
1, 0, Start_track
1, 0, Time_signature, 4, 2, 24, 8
1, 0, Tempo, 833333
1, 30720, Text_t, "B section"
1, 30720, End_track
2, 0, Start_track
2, 0, Note_on_c, 0, 51, 76
2, 0, Note_on_c, 0, 63, 64
2, 30, Note_off_c, 0, 51, 64
2, 32, Note_on_c, 0, 49, 76
2, 60, Note_off_c, 0, 63, 64
2, 60, Note_on_c, 0, 51, 64
2, 60, Note_on_c, 0, 66, 64
2, 62, Note_off_c, 0, 49, 64
2, 120, Note_off_c, 0, 66, 64
2, 120, Note_on_c, 0, 65, 64
2, 180, Note_off_c, 0, 65, 64
2, 180, Note_on_c, 0, 68, 64
2, 240, Note_off_c, 0, 68, 64
2, 240, Note_off_c, 0, 51, 64
2, 240, Note_on_c, 0, 66, 64
2, 240, Note_on_c, 0, 39, 64
2, 300, Note_off_c, 0, 66, 64
2, 300, Note_on_c, 0, 70, 64
2, 360, Note_off_c, 0, 70, 64
2, 360, Note_on_c, 0, 68, 64
2, 420, Note_off_c, 0, 68, 64
2, 420, Note_on_c, 0, 71, 64
2, 480, Note_off_c, 0, 71, 64
2, 480, Note_off_c, 0, 39, 64
2, 480, Note_on_c, 0, 70, 64
2, 540, Note_off_c, 0, 70, 64
2, 540, Note_on_c, 0, 75, 64
2, 600, Note_off_c, 0, 75, 64
2, 600, Note_on_c, 0, 74, 64
2, 660, Note_off_c, 0, 74, 64
2, 660, Note_on_c, 0, 72, 64
2, 720, Note_off_c, 0, 72, 64
2, 720, Note_on_c, 0, 70, 64
2, 780, Note_off_c, 0, 70, 64
2, 780, Note_on_c, 0, 68, 64
2, 840, Note_off_c, 0, 68, 64
2, 840, Note_on_c, 0, 66, 64
2, 900, Note_off_c, 0, 66, 64
2, 900, Note_on_c, 0, 65, 64
2, 960, Note_off_c, 0, 65, 64
2, 960, Note_on_c, 0, 66, 64
2, 960, Note_on_c, 0, 51, 64
2, 1020, Note_off_c, 0, 51, 64
2, 1020, Note_on_c, 0, 54, 64
2, 1080, Note_off_c, 0, 54, 64
2, 1080, Note_off_c, 0, 66, 64
2, 1080, Note_on_c, 0, 62, 64
2, 1080, Note_on_c, 0, 53, 64
2, 1140, Note_off_c, 0, 53, 64
2, 1140, Note_on_c, 0, 56, 64
2, 1200, Note_off_c, 0, 56, 64
2, 1200, Note_off_c, 0, 62, 64
2, 1200, Note_on_c, 0, 63, 64
2, 1200, Note_on_c, 0, 54, 64
2, 1260, Note_off_c, 0, 54, 64
2, 1260, Note_on_c, 0, 58, 64
2, 1320, Note_off_c, 0, 58, 64
2, 1320, Note_off_c, 0, 63, 64
2, 1320, Note_on_c, 0, 75, 64
2, 1320, Note_on_c, 0, 56, 64
2, 1380, Note_off_c, 0, 56, 64
2, 1380, Note_on_c, 0, 59, 64
2, 1440, Note_off_c, 0, 59, 64
2, 1440, Note_off_c, 0, 75, 64
2, 1440, Note_on_c, 0, 74, 76
2, 1440, Note_on_c, 0, 58, 64
2, 1460, Note_off_c, 0, 74, 64
2, 1464, Note_on_c, 0, 75, 76
2, 1480, Note_on_c, 0, 74, 64
2, 1484, Note_off_c, 0, 75, 64
2, 1500, Note_off_c, 0, 74, 64
2, 1500, Note_off_c, 0, 58, 64
2, 1500, Note_on_c, 0, 72, 64
2, 1500, Note_on_c, 0, 63, 64
2, 1560, Note_off_c, 0, 63, 64
2, 1560, Note_off_c, 0, 72, 64
2, 1560, Note_on_c, 0, 70, 64
2, 1560, Note_on_c, 0, 62, 64
2, 1620, Note_off_c, 0, 62, 64
2, 1620, Note_on_c, 0, 60, 64
2, 1680, Note_off_c, 0, 60, 64
2, 1680, Note_off_c, 0, 70, 64
2, 1680, Note_on_c, 0, 58, 64
2, 1740, Note_off_c, 0, 58, 64
2, 1740, Note_on_c, 0, 56, 64
2, 1800, Note_off_c, 0, 56, 64
2, 1800, Note_on_c, 0, 75, 76
2, 1800, Note_on_c, 0, 54, 64
2, 1830, Note_off_c, 0, 75, 64
2, 1832, Note_on_c, 0, 74, 76
2, 1860, Note_off_c, 0, 54, 64
2, 1860, Note_on_c, 0, 53, 64
2, 1862, Note_off_c, 0, 74, 64
2, 1864, Note_on_c, 0, 72, 76
2, 1890, Note_on_c, 0, 74, 64
2, 1894, Note_off_c, 0, 72, 64
2, 1920, Note_off_c, 0, 74, 64
2, 1920, Note_off_c, 0, 53, 64
2, 1920, Note_on_c, 0, 75, 64
2, 1920, Note_on_c, 0, 54, 64
2, 1980, Note_off_c, 0, 75, 64
2, 1980, Note_on_c, 0, 78, 64
2, 2040, Note_off_c, 0, 78, 64
2, 2040, Note_off_c, 0, 54, 64
2, 2040, Note_on_c, 0, 77, 64
2, 2040, Note_on_c, 0, 50, 64
2, 2100, Note_off_c, 0, 77, 64
2, 2100, Note_on_c, 0, 80, 64
2, 2160, Note_off_c, 0, 80, 64
2, 2160, Note_off_c, 0, 50, 64
2, 2160, Note_on_c, 0, 78, 64
2, 2160, Note_on_c, 0, 51, 64
2, 2220, Note_off_c, 0, 78, 64
2, 2220, Note_on_c, 0, 77, 64
2, 2280, Note_off_c, 0, 77, 64
2, 2280, Note_off_c, 0, 51, 64
2, 2280, Note_on_c, 0, 75, 64
2, 2280, Note_on_c, 0, 54, 64
2, 2340, Note_off_c, 0, 75, 64
2, 2340, Note_on_c, 0, 73, 64
2, 2400, Note_off_c, 0, 73, 64
2, 2400, Note_off_c, 0, 54, 64
2, 2400, Note_on_c, 0, 71, 64
2, 2400, Note_on_c, 0, 56, 64
2, 2460, Note_off_c, 0, 56, 64
2, 2460, Note_on_c, 0, 59, 64
2, 2520, Note_off_c, 0, 59, 64
2, 2520, Note_off_c, 0, 71, 64
2, 2520, Note_on_c, 0, 75, 64
2, 2520, Note_on_c, 0, 58, 64
2, 2580, Note_off_c, 0, 58, 64
2, 2580, Note_on_c, 0, 61, 64
2, 2640, Note_off_c, 0, 61, 64
2, 2640, Note_off_c, 0, 75, 64
2, 2640, Note_on_c, 0, 80, 76
2, 2640, Note_on_c, 0, 59, 64
2, 2670, Note_off_c, 0, 80, 64
2, 2672, Note_on_c, 0, 78, 76
2, 2700, Note_off_c, 0, 59, 64
2, 2700, Note_on_c, 0, 80, 64
2, 2700, Note_on_c, 0, 58, 64
2, 2702, Note_off_c, 0, 78, 64
2, 2760, Note_off_c, 0, 58, 64
2, 2760, Note_on_c, 0, 56, 64
2, 2820, Note_off_c, 0, 56, 64
2, 2820, Note_on_c, 0, 54, 64
2, 2880, Note_off_c, 0, 54, 64
2, 2880, Note_on_c, 0, 53, 64
2, 2940, Note_off_c, 0, 80, 64
2, 2940, Note_on_c, 0, 77, 64
2, 3000, Note_off_c, 0, 77, 64
2, 3000, Note_off_c, 0, 53, 64
2, 3000, Note_on_c, 0, 78, 64
2, 3000, Note_on_c, 0, 56, 64
2, 3060, Note_off_c, 0, 78, 64
2, 3060, Note_on_c, 0, 75, 64
2, 3120, Note_off_c, 0, 75, 64
2, 3120, Note_off_c, 0, 56, 64
2, 3120, Note_on_c, 0, 61, 76
2, 3120, Note_on_c, 0, 77, 64
2, 3150, Note_off_c, 0, 61, 64
2, 3152, Note_on_c, 0, 59, 76
2, 3180, Note_off_c, 0, 77, 64
2, 3180, Note_on_c, 0, 61, 64
2, 3180, Note_on_c, 0, 80, 64
2, 3182, Note_off_c, 0, 59, 64
2, 3240, Note_off_c, 0, 80, 64
2, 3240, Note_on_c, 0, 73, 64
2, 3300, Note_off_c, 0, 73, 64
2, 3300, Note_on_c, 0, 71, 64
2, 3360, Note_off_c, 0, 71, 64
2, 3360, Note_on_c, 0, 70, 64
2, 3420, Note_off_c, 0, 61, 64
2, 3420, Note_on_c, 0, 58, 64
2, 3480, Note_off_c, 0, 58, 64
2, 3480, Note_off_c, 0, 70, 64
2, 3480, Note_on_c, 0, 73, 64
2, 3480, Note_on_c, 0, 59, 64
2, 3540, Note_off_c, 0, 59, 64
2, 3540, Note_on_c, 0, 56, 64
2, 3600, Note_off_c, 0, 56, 64
2, 3600, Note_off_c, 0, 73, 64
2, 3600, Note_on_c, 0, 78, 76
2, 3600, Note_on_c, 0, 58, 64
2, 3630, Note_off_c, 0, 78, 64
2, 3632, Note_on_c, 0, 76, 76
2, 3660, Note_off_c, 0, 58, 64
2, 3660, Note_on_c, 0, 78, 64
2, 3660, Note_on_c, 0, 61, 64
2, 3662, Note_off_c, 0, 76, 64
2, 3720, Note_off_c, 0, 61, 64
2, 3720, Note_on_c, 0, 54, 64
2, 3780, Note_off_c, 0, 54, 64
2, 3780, Note_on_c, 0, 53, 64
2, 3840, Note_off_c, 0, 53, 64
2, 3840, Note_on_c, 0, 51, 64
2, 3900, Note_off_c, 0, 78, 64
2, 3900, Note_on_c, 0, 77, 64
2, 3960, Note_off_c, 0, 77, 64
2, 3960, Note_off_c, 0, 51, 64
2, 3960, Note_on_c, 0, 75, 64
2, 3960, Note_on_c, 0, 54, 64
2, 4020, Note_off_c, 0, 75, 64
2, 4020, Note_on_c, 0, 74, 64
2, 4080, Note_off_c, 0, 74, 64
2, 4080, Note_off_c, 0, 54, 64
2, 4080, Note_on_c, 0, 59, 76
2, 4080, Note_on_c, 0, 75, 64
2, 4110, Note_off_c, 0, 59, 64
2, 4112, Note_on_c, 0, 58, 76
2, 4140, Note_off_c, 0, 75, 64
2, 4140, Note_on_c, 0, 59, 64
2, 4140, Note_on_c, 0, 78, 64
2, 4142, Note_off_c, 0, 58, 64
2, 4200, Note_off_c, 0, 78, 64
2, 4200, Note_on_c, 0, 68, 64
2, 4260, Note_off_c, 0, 68, 64
2, 4260, Note_on_c, 0, 78, 64
2, 4320, Note_off_c, 0, 78, 64
2, 4320, Note_off_c, 0, 59, 64
2, 4320, Note_on_c, 0, 77, 64
2, 4320, Note_on_c, 0, 49, 64
2, 4380, Note_off_c, 0, 77, 64
2, 4380, Note_on_c, 0, 75, 64
2, 4440, Note_off_c, 0, 75, 64
2, 4440, Note_off_c, 0, 49, 64
2, 4440, Note_on_c, 0, 73, 64
2, 4440, Note_on_c, 0, 53, 64
2, 4500, Note_off_c, 0, 73, 64
2, 4500, Note_on_c, 0, 72, 64
2, 4560, Note_off_c, 0, 72, 64
2, 4560, Note_off_c, 0, 53, 64
2, 4560, Note_on_c, 0, 58, 76
2, 4560, Note_on_c, 0, 73, 64
2, 4590, Note_off_c, 0, 58, 64
2, 4592, Note_on_c, 0, 56, 76
2, 4620, Note_off_c, 0, 73, 64
2, 4620, Note_on_c, 0, 77, 64
2, 4620, Note_on_c, 0, 58, 64
2, 4622, Note_off_c, 0, 56, 64
2, 4680, Note_off_c, 0, 77, 64
2, 4680, Note_on_c, 0, 66, 64
2, 4740, Note_off_c, 0, 66, 64
2, 4740, Note_on_c, 0, 76, 64
2, 4800, Note_off_c, 0, 76, 64
2, 4800, Note_off_c, 0, 58, 64
2, 4800, Note_on_c, 0, 75, 64
2, 4800, Note_on_c, 0, 47, 64
2, 4860, Note_off_c, 0, 75, 64
2, 4860, Note_on_c, 0, 73, 64
2, 4920, Note_off_c, 0, 73, 64
2, 4920, Note_off_c, 0, 47, 64
2, 4920, Note_on_c, 0, 71, 64
2, 4920, Note_on_c, 0, 51, 64
2, 4980, Note_off_c, 0, 71, 64
2, 4980, Note_on_c, 0, 70, 64
2, 5040, Note_off_c, 0, 70, 64
2, 5040, Note_off_c, 0, 51, 64
2, 5040, Note_on_c, 0, 71, 64
2, 5040, Note_on_c, 0, 56, 64
2, 5100, Note_off_c, 0, 71, 64
2, 5100, Note_on_c, 0, 75, 64
2, 5160, Note_off_c, 0, 75, 64
2, 5160, Note_off_c, 0, 56, 64
2, 5160, Note_on_c, 0, 65, 64
2, 5160, Note_on_c, 0, 49, 64
2, 5220, Note_off_c, 0, 65, 64
2, 5220, Note_on_c, 0, 75, 64
2, 5280, Note_off_c, 0, 75, 64
2, 5280, Note_off_c, 0, 49, 64
2, 5280, Note_on_c, 0, 71, 64
2, 5280, Note_on_c, 0, 51, 64
2, 5340, Note_off_c, 0, 71, 64
2, 5340, Note_on_c, 0, 75, 64
2, 5400, Note_off_c, 0, 75, 64
2, 5400, Note_off_c, 0, 51, 64
2, 5400, Note_on_c, 0, 66, 64
2, 5400, Note_on_c, 0, 59, 64
2, 5460, Note_off_c, 0, 66, 64
2, 5460, Note_on_c, 0, 75, 64
2, 5520, Note_off_c, 0, 75, 64
2, 5520, Note_off_c, 0, 59, 64
2, 5520, Note_on_c, 0, 71, 64
2, 5520, Note_on_c, 0, 56, 64
2, 5580, Note_off_c, 0, 71, 64
2, 5580, Note_on_c, 0, 75, 64
2, 5640, Note_off_c, 0, 75, 64
2, 5640, Note_off_c, 0, 56, 64
2, 5640, Note_on_c, 0, 53, 64
2, 5640, Note_on_c, 0, 68, 64
2, 5700, Note_off_c, 0, 68, 64
2, 5700, Note_on_c, 0, 75, 64
2, 5760, Note_off_c, 0, 75, 64
2, 5760, Note_off_c, 0, 53, 64
2, 5760, Note_on_c, 0, 73, 64
2, 5760, Note_on_c, 0, 46, 64
2, 5820, Note_off_c, 0, 73, 64
2, 5820, Note_on_c, 0, 71, 64
2, 5880, Note_off_c, 0, 71, 64
2, 5880, Note_off_c, 0, 46, 64
2, 5880, Note_on_c, 0, 70, 64
2, 5880, Note_on_c, 0, 49, 64
2, 5940, Note_off_c, 0, 70, 64
2, 5940, Note_on_c, 0, 68, 64
2, 6000, Note_off_c, 0, 68, 64
2, 6000, Note_off_c, 0, 49, 64
2, 6000, Note_on_c, 0, 70, 64
2, 6000, Note_on_c, 0, 54, 64
2, 6060, Note_off_c, 0, 70, 64
2, 6060, Note_on_c, 0, 73, 64
2, 6120, Note_off_c, 0, 73, 64
2, 6120, Note_off_c, 0, 54, 64
2, 6120, Note_on_c, 0, 63, 64
2, 6120, Note_on_c, 0, 47, 64
2, 6180, Note_off_c, 0, 63, 64
2, 6180, Note_on_c, 0, 73, 64
2, 6240, Note_off_c, 0, 73, 64
2, 6240, Note_off_c, 0, 47, 64
2, 6240, Note_on_c, 0, 70, 64
2, 6240, Note_on_c, 0, 49, 64
2, 6300, Note_off_c, 0, 70, 64
2, 6300, Note_on_c, 0, 73, 64
2, 6360, Note_off_c, 0, 73, 64
2, 6360, Note_off_c, 0, 49, 64
2, 6360, Note_on_c, 0, 65, 64
2, 6360, Note_on_c, 0, 58, 64
2, 6420, Note_off_c, 0, 65, 64
2, 6420, Note_on_c, 0, 73, 64
2, 6480, Note_off_c, 0, 73, 64
2, 6480, Note_off_c, 0, 58, 64
2, 6480, Note_on_c, 0, 70, 64
2, 6480, Note_on_c, 0, 54, 64
2, 6540, Note_off_c, 0, 70, 64
2, 6540, Note_on_c, 0, 73, 64
2, 6600, Note_off_c, 0, 73, 64
2, 6600, Note_off_c, 0, 54, 64
2, 6600, Note_on_c, 0, 51, 64
2, 6600, Note_on_c, 0, 66, 64
2, 6660, Note_off_c, 0, 66, 64
2, 6660, Note_on_c, 0, 73, 64
2, 6720, Note_off_c, 0, 73, 64
2, 6720, Note_off_c, 0, 51, 64
2, 6720, Note_on_c, 0, 71, 64
2, 6720, Note_on_c, 0, 44, 64
2, 6780, Note_off_c, 0, 71, 64
2, 6780, Note_on_c, 0, 70, 64
2, 6840, Note_off_c, 0, 70, 64
2, 6840, Note_off_c, 0, 44, 64
2, 6840, Note_on_c, 0, 68, 64
2, 6840, Note_on_c, 0, 47, 64
2, 6900, Note_off_c, 0, 68, 64
2, 6900, Note_on_c, 0, 66, 64
2, 6960, Note_off_c, 0, 66, 64
2, 6960, Note_off_c, 0, 47, 64
2, 6960, Note_on_c, 0, 68, 64
2, 6960, Note_on_c, 0, 53, 64
2, 7020, Note_off_c, 0, 68, 64
2, 7020, Note_on_c, 0, 71, 64
2, 7080, Note_off_c, 0, 71, 64
2, 7080, Note_off_c, 0, 53, 64
2, 7080, Note_on_c, 0, 61, 64
2, 7080, Note_on_c, 0, 46, 64
2, 7140, Note_off_c, 0, 61, 64
2, 7140, Note_on_c, 0, 71, 64
2, 7200, Note_off_c, 0, 71, 64
2, 7200, Note_off_c, 0, 46, 64
2, 7200, Note_on_c, 0, 68, 64
2, 7200, Note_on_c, 0, 47, 64
2, 7260, Note_off_c, 0, 68, 64
2, 7260, Note_on_c, 0, 71, 64
2, 7320, Note_off_c, 0, 71, 64
2, 7320, Note_off_c, 0, 47, 64
2, 7320, Note_on_c, 0, 63, 64
2, 7320, Note_on_c, 0, 56, 64
2, 7380, Note_off_c, 0, 63, 64
2, 7380, Note_on_c, 0, 71, 64
2, 7440, Note_off_c, 0, 71, 64
2, 7440, Note_off_c, 0, 56, 64
2, 7440, Note_on_c, 0, 68, 64
2, 7440, Note_on_c, 0, 53, 64
2, 7500, Note_off_c, 0, 68, 64
2, 7500, Note_on_c, 0, 71, 64
2, 7560, Note_off_c, 0, 71, 64
2, 7560, Note_off_c, 0, 53, 64
2, 7560, Note_on_c, 0, 49, 64
2, 7560, Note_on_c, 0, 65, 64
2, 7620, Note_off_c, 0, 65, 64
2, 7620, Note_on_c, 0, 71, 64
2, 7680, Note_off_c, 0, 71, 64
2, 7680, Note_off_c, 0, 49, 64
2, 7680, Note_on_c, 0, 70, 64
2, 7680, Note_on_c, 0, 42, 64
2, 7740, Note_off_c, 0, 42, 64
2, 7740, Note_off_c, 0, 70, 64
2, 7740, Note_on_c, 0, 66, 64
2, 7740, Note_on_c, 0, 46, 64
2, 7800, Note_off_c, 0, 46, 64
2, 7800, Note_off_c, 0, 66, 64
2, 7800, Note_on_c, 0, 65, 64
2, 7800, Note_on_c, 0, 44, 64
2, 7860, Note_off_c, 0, 44, 64
2, 7860, Note_off_c, 0, 65, 64
2, 7860, Note_on_c, 0, 75, 64
2, 7860, Note_on_c, 0, 47, 64
2, 7920, Note_off_c, 0, 47, 64
2, 7920, Note_off_c, 0, 75, 64
2, 7920, Note_on_c, 0, 73, 64
2, 7920, Note_on_c, 0, 46, 64
2, 7980, Note_off_c, 0, 46, 64
2, 7980, Note_off_c, 0, 73, 64
2, 7980, Note_on_c, 0, 70, 64
2, 7980, Note_on_c, 0, 49, 64
2, 8040, Note_off_c, 0, 49, 64
2, 8040, Note_off_c, 0, 70, 64
2, 8040, Note_on_c, 0, 66, 64
2, 8040, Note_on_c, 0, 47, 64
2, 8100, Note_off_c, 0, 47, 64
2, 8100, Note_off_c, 0, 66, 64
2, 8100, Note_on_c, 0, 78, 64
2, 8100, Note_on_c, 0, 51, 64
2, 8160, Note_off_c, 0, 51, 64
2, 8160, Note_off_c, 0, 78, 64
2, 8160, Note_on_c, 0, 77, 76
2, 8160, Note_on_c, 0, 49, 64
2, 8180, Note_off_c, 0, 77, 64
2, 8184, Note_on_c, 0, 78, 76
2, 8200, Note_on_c, 0, 77, 64
2, 8204, Note_off_c, 0, 78, 64
2, 8220, Note_off_c, 0, 77, 64
2, 8220, Note_off_c, 0, 49, 64
2, 8220, Note_on_c, 0, 75, 64
2, 8220, Note_on_c, 0, 54, 64
2, 8280, Note_off_c, 0, 54, 64
2, 8280, Note_off_c, 0, 75, 64
2, 8280, Note_on_c, 0, 73, 64
2, 8280, Note_on_c, 0, 53, 64
2, 8340, Note_off_c, 0, 53, 64
2, 8340, Note_on_c, 0, 51, 64
2, 8400, Note_off_c, 0, 51, 64
2, 8400, Note_off_c, 0, 73, 64
2, 8400, Note_on_c, 0, 49, 64
2, 8460, Note_off_c, 0, 49, 64
2, 8460, Note_on_c, 0, 47, 64
2, 8520, Note_off_c, 0, 47, 64
2, 8520, Note_on_c, 0, 46, 64
2, 8580, Note_off_c, 0, 46, 64
2, 8580, Note_on_c, 0, 44, 64
2, 8640, Note_off_c, 0, 44, 64
2, 8640, Note_on_c, 0, 66, 64
2, 8640, Note_on_c, 0, 46, 64
2, 8700, Note_off_c, 0, 66, 64
2, 8700, Note_on_c, 0, 70, 64
2, 8760, Note_off_c, 0, 70, 64
2, 8760, Note_off_c, 0, 46, 64
2, 8760, Note_on_c, 0, 68, 64
2, 8760, Note_on_c, 0, 49, 64
2, 8820, Note_off_c, 0, 68, 64
2, 8820, Note_on_c, 0, 71, 64
2, 8880, Note_off_c, 0, 71, 64
2, 8880, Note_off_c, 0, 49, 64
2, 8880, Note_on_c, 0, 70, 64
2, 8880, Note_on_c, 0, 54, 64
2, 8940, Note_off_c, 0, 70, 64
2, 8940, Note_on_c, 0, 73, 64
2, 9000, Note_off_c, 0, 73, 64
2, 9000, Note_off_c, 0, 54, 64
2, 9000, Note_on_c, 0, 71, 64
2, 9000, Note_on_c, 0, 56, 64
2, 9060, Note_off_c, 0, 71, 64
2, 9060, Note_on_c, 0, 75, 64
2, 9120, Note_off_c, 0, 75, 64
2, 9120, Note_off_c, 0, 56, 64
2, 9120, Note_on_c, 0, 73, 64
2, 9120, Note_on_c, 0, 58, 64
2, 9180, Note_off_c, 0, 73, 64
2, 9180, Note_on_c, 0, 78, 64
2, 9240, Note_off_c, 0, 78, 64
2, 9240, Note_off_c, 0, 58, 64
2, 9240, Note_on_c, 0, 77, 64
2, 9240, Note_on_c, 0, 59, 64
2, 9300, Note_off_c, 0, 77, 64
2, 9300, Note_on_c, 0, 75, 64
2, 9360, Note_off_c, 0, 75, 64
2, 9360, Note_off_c, 0, 59, 64
2, 9360, Note_on_c, 0, 73, 64
2, 9360, Note_on_c, 0, 61, 64
2, 9420, Note_off_c, 0, 73, 64
2, 9420, Note_on_c, 0, 71, 64
2, 9480, Note_off_c, 0, 71, 64
2, 9480, Note_off_c, 0, 61, 64
2, 9480, Note_on_c, 0, 49, 64
2, 9480, Note_on_c, 0, 70, 64
2, 9540, Note_off_c, 0, 70, 64
2, 9540, Note_on_c, 0, 68, 64
2, 9600, Note_off_c, 0, 68, 64
2, 9600, Note_off_c, 0, 49, 64
2, 9600, Note_on_c, 0, 70, 64
2, 9600, Note_on_c, 0, 54, 64
2, 9660, Note_off_c, 0, 70, 64
2, 9660, Note_on_c, 0, 73, 64
2, 9720, Note_off_c, 0, 73, 64
2, 9720, Note_off_c, 0, 54, 64
2, 9720, Note_on_c, 0, 72, 64
2, 9720, Note_on_c, 0, 51, 64
2, 9780, Note_off_c, 0, 72, 64
2, 9780, Note_on_c, 0, 75, 64
2, 9840, Note_off_c, 0, 75, 64
2, 9840, Note_off_c, 0, 51, 64
2, 9840, Note_on_c, 0, 73, 64
2, 9840, Note_on_c, 0, 53, 64
2, 9900, Note_off_c, 0, 73, 64
2, 9900, Note_on_c, 0, 77, 64
2, 9960, Note_off_c, 0, 77, 64
2, 9960, Note_off_c, 0, 53, 64
2, 9960, Note_on_c, 0, 75, 64
2, 9960, Note_on_c, 0, 48, 64
2, 10020, Note_off_c, 0, 75, 64
2, 10020, Note_on_c, 0, 78, 64
2, 10080, Note_off_c, 0, 78, 64
2, 10080, Note_off_c, 0, 48, 64
2, 10080, Note_on_c, 0, 77, 64
2, 10080, Note_on_c, 0, 49, 64
2, 10140, Note_off_c, 0, 77, 64
2, 10140, Note_on_c, 0, 82, 64
2, 10200, Note_off_c, 0, 82, 64
2, 10200, Note_off_c, 0, 49, 64
2, 10200, Note_on_c, 0, 81, 64
2, 10200, Note_on_c, 0, 51, 64
2, 10260, Note_off_c, 0, 81, 64
2, 10260, Note_on_c, 0, 79, 64
2, 10320, Note_off_c, 0, 79, 64
2, 10320, Note_off_c, 0, 51, 64
2, 10320, Note_on_c, 0, 77, 64
2, 10320, Note_on_c, 0, 53, 64
2, 10380, Note_off_c, 0, 77, 64
2, 10380, Note_on_c, 0, 75, 64
2, 10440, Note_off_c, 0, 75, 64
2, 10440, Note_off_c, 0, 53, 64
2, 10440, Note_on_c, 0, 41, 64
2, 10440, Note_on_c, 0, 73, 64
2, 10500, Note_off_c, 0, 73, 64
2, 10500, Note_on_c, 0, 72, 64
2, 10560, Note_off_c, 0, 72, 64
2, 10560, Note_off_c, 0, 41, 64
2, 10560, Note_on_c, 0, 73, 64
2, 10560, Note_on_c, 0, 46, 64
2, 10620, Note_off_c, 0, 46, 64
2, 10620, Note_on_c, 0, 49, 64
2, 10680, Note_off_c, 0, 49, 64
2, 10680, Note_off_c, 0, 73, 64
2, 10680, Note_on_c, 0, 69, 64
2, 10680, Note_on_c, 0, 48, 64
2, 10740, Note_off_c, 0, 48, 64
2, 10740, Note_on_c, 0, 51, 64
2, 10800, Note_off_c, 0, 51, 64
2, 10800, Note_off_c, 0, 69, 64
2, 10800, Note_on_c, 0, 70, 64
2, 10800, Note_on_c, 0, 49, 64
2, 10860, Note_off_c, 0, 49, 64
2, 10860, Note_on_c, 0, 53, 64
2, 10920, Note_off_c, 0, 53, 64
2, 10920, Note_off_c, 0, 70, 64
2, 10920, Note_on_c, 0, 78, 64
2, 10920, Note_on_c, 0, 51, 64
2, 10980, Note_off_c, 0, 51, 64
2, 10980, Note_on_c, 0, 54, 64
2, 11040, Note_off_c, 0, 54, 64
2, 11040, Note_off_c, 0, 78, 64
2, 11040, Note_on_c, 0, 69, 64
2, 11040, Note_on_c, 0, 53, 64
2, 11070, Note_off_c, 0, 69, 64
2, 11070, Note_on_c, 0, 67, 64
2, 11100, Note_off_c, 0, 67, 64
2, 11100, Note_off_c, 0, 53, 64
2, 11100, Note_on_c, 0, 65, 64
2, 11100, Note_on_c, 0, 58, 64
2, 11160, Note_off_c, 0, 58, 64
2, 11160, Note_off_c, 0, 65, 64
2, 11160, Note_on_c, 0, 75, 64
2, 11160, Note_on_c, 0, 57, 64
2, 11220, Note_off_c, 0, 57, 64
2, 11220, Note_on_c, 0, 55, 64
2, 11280, Note_off_c, 0, 55, 64
2, 11280, Note_off_c, 0, 75, 64
2, 11280, Note_on_c, 0, 53, 64
2, 11340, Note_off_c, 0, 53, 64
2, 11340, Note_on_c, 0, 69, 64
2, 11340, Note_on_c, 0, 51, 64
2, 11400, Note_off_c, 0, 51, 64
2, 11400, Note_off_c, 0, 69, 64
2, 11400, Note_on_c, 0, 70, 64
2, 11400, Note_on_c, 0, 49, 64
2, 11460, Note_off_c, 0, 49, 64
2, 11460, Note_off_c, 0, 70, 64
2, 11460, Note_on_c, 0, 72, 64
2, 11460, Note_on_c, 0, 48, 64
2, 11520, Note_off_c, 0, 48, 64
2, 11520, Note_off_c, 0, 72, 64
2, 11520, Note_on_c, 0, 65, 64
2, 11520, Note_on_c, 0, 49, 64
2, 11580, Note_off_c, 0, 49, 64
2, 11580, Note_off_c, 0, 65, 64
2, 11580, Note_on_c, 0, 73, 64
2, 11580, Note_on_c, 0, 53, 64
2, 11640, Note_off_c, 0, 53, 64
2, 11640, Note_off_c, 0, 73, 64
2, 11640, Note_on_c, 0, 72, 64
2, 11640, Note_on_c, 0, 51, 64
2, 11700, Note_off_c, 0, 51, 64
2, 11700, Note_off_c, 0, 72, 64
2, 11700, Note_on_c, 0, 75, 64
2, 11700, Note_on_c, 0, 54, 64
2, 11760, Note_off_c, 0, 54, 64
2, 11760, Note_off_c, 0, 75, 64
2, 11760, Note_on_c, 0, 73, 64
2, 11760, Note_on_c, 0, 53, 64
2, 11820, Note_off_c, 0, 53, 64
2, 11820, Note_off_c, 0, 73, 64
2, 11820, Note_on_c, 0, 72, 64
2, 11820, Note_on_c, 0, 51, 64
2, 11880, Note_off_c, 0, 51, 64
2, 11880, Note_off_c, 0, 72, 64
2, 11880, Note_on_c, 0, 70, 64
2, 11880, Note_on_c, 0, 49, 64
2, 11940, Note_off_c, 0, 49, 64
2, 11940, Note_off_c, 0, 70, 64
2, 11940, Note_on_c, 0, 69, 64
2, 11940, Note_on_c, 0, 48, 64
2, 12000, Note_off_c, 0, 48, 64
2, 12000, Note_off_c, 0, 69, 64
2, 12000, Note_on_c, 0, 73, 64
2, 12000, Note_on_c, 0, 46, 64
2, 12060, Note_off_c, 0, 46, 64
2, 12060, Note_off_c, 0, 73, 64
2, 12060, Note_on_c, 0, 70, 64
2, 12060, Note_on_c, 0, 49, 64
2, 12120, Note_off_c, 0, 49, 64
2, 12120, Note_off_c, 0, 70, 64
2, 12120, Note_on_c, 0, 69, 64
2, 12120, Note_on_c, 0, 48, 64
2, 12180, Note_off_c, 0, 48, 64
2, 12180, Note_off_c, 0, 69, 64
2, 12180, Note_on_c, 0, 72, 64
2, 12180, Note_on_c, 0, 51, 64
2, 12240, Note_off_c, 0, 51, 64
2, 12240, Note_off_c, 0, 72, 64
2, 12240, Note_on_c, 0, 70, 64
2, 12240, Note_on_c, 0, 49, 64
2, 12300, Note_off_c, 0, 49, 64
2, 12300, Note_off_c, 0, 70, 64
2, 12300, Note_on_c, 0, 68, 64
2, 12300, Note_on_c, 0, 48, 64
2, 12360, Note_off_c, 0, 48, 64
2, 12360, Note_off_c, 0, 68, 64
2, 12360, Note_on_c, 0, 66, 64
2, 12360, Note_on_c, 0, 46, 64
2, 12420, Note_off_c, 0, 46, 64
2, 12420, Note_off_c, 0, 66, 64
2, 12420, Note_on_c, 0, 44, 64
2, 12420, Note_on_c, 0, 65, 64
2, 12480, Note_off_c, 0, 65, 64
2, 12480, Note_off_c, 0, 44, 64
2, 12480, Note_on_c, 0, 63, 64
2, 12480, Note_on_c, 0, 43, 64
2, 12540, Note_off_c, 0, 43, 64
2, 12540, Note_off_c, 0, 63, 64
2, 12540, Note_on_c, 0, 73, 64
2, 12540, Note_on_c, 0, 46, 64
2, 12600, Note_off_c, 0, 46, 64
2, 12600, Note_off_c, 0, 73, 64
2, 12600, Note_on_c, 0, 72, 64
2, 12600, Note_on_c, 0, 45, 64
2, 12660, Note_off_c, 0, 45, 64
2, 12660, Note_off_c, 0, 72, 64
2, 12660, Note_on_c, 0, 75, 64
2, 12660, Note_on_c, 0, 48, 64
2, 12720, Note_off_c, 0, 48, 64
2, 12720, Note_off_c, 0, 75, 64
2, 12720, Note_on_c, 0, 73, 64
2, 12720, Note_on_c, 0, 46, 64
2, 12780, Note_off_c, 0, 46, 64
2, 12780, Note_off_c, 0, 73, 64
2, 12780, Note_on_c, 0, 72, 64
2, 12780, Note_on_c, 0, 44, 64
2, 12840, Note_off_c, 0, 44, 64
2, 12840, Note_off_c, 0, 72, 64
2, 12840, Note_on_c, 0, 70, 64
2, 12840, Note_on_c, 0, 42, 64
2, 12900, Note_off_c, 0, 42, 64
2, 12900, Note_off_c, 0, 70, 64
2, 12900, Note_on_c, 0, 69, 64
2, 12900, Note_on_c, 0, 41, 64
2, 12960, Note_off_c, 0, 41, 64
2, 12960, Note_off_c, 0, 69, 64
2, 12960, Note_on_c, 0, 79, 64
2, 12960, Note_on_c, 0, 40, 64
2, 13020, Note_off_c, 0, 79, 64
2, 13020, Note_on_c, 0, 73, 64
2, 13080, Note_off_c, 0, 73, 64
2, 13080, Note_off_c, 0, 40, 64
2, 13080, Note_on_c, 0, 72, 64
2, 13080, Note_on_c, 0, 52, 64
2, 13140, Note_off_c, 0, 72, 64
2, 13140, Note_on_c, 0, 70, 64
2, 13200, Note_off_c, 0, 70, 64
2, 13200, Note_off_c, 0, 52, 64
2, 13200, Note_on_c, 0, 82, 74
2, 13220, Note_off_c, 0, 82, 65
2, 13220, Note_on_c, 0, 81, 50
2, 13240, Note_on_c, 0, 82, 52
2, 13242, Note_off_c, 0, 81, 62
2, 13260, Note_on_c, 0, 81, 54
2, 13260, Note_on_c, 0, 54, 64
2, 13262, Note_off_c, 0, 82, 62
2, 13280, Note_on_c, 0, 82, 57
2, 13282, Note_off_c, 0, 81, 52
2, 13300, Note_on_c, 0, 81, 59
2, 13302, Note_off_c, 0, 82, 61
2, 13320, Note_off_c, 0, 54, 64
2, 13320, Note_on_c, 0, 82, 61
2, 13320, Note_on_c, 0, 53, 64
2, 13322, Note_off_c, 0, 81, 54
2, 13340, Note_on_c, 0, 81, 63
2, 13342, Note_off_c, 0, 82, 66
2, 13380, Note_off_c, 0, 53, 64
2, 13380, Note_on_c, 0, 51, 64
2, 13380, Note_on_c, 0, 79, 64
2, 13384, Note_off_c, 0, 81, 59
2, 13410, Note_off_c, 0, 79, 64
2, 13410, Note_on_c, 0, 81, 64
2, 13440, Note_off_c, 0, 81, 64
2, 13440, Note_off_c, 0, 51, 64
2, 13440, Note_on_c, 0, 82, 64
2, 13440, Note_on_c, 0, 49, 64
2, 13500, Note_off_c, 0, 49, 64
2, 13500, Note_off_c, 0, 82, 64
2, 13500, Note_on_c, 0, 80, 64
2, 13500, Note_on_c, 0, 48, 64
2, 13530, Note_off_c, 0, 80, 64
2, 13530, Note_on_c, 0, 78, 64
2, 13560, Note_off_c, 0, 78, 64
2, 13560, Note_off_c, 0, 48, 64
2, 13560, Note_on_c, 0, 77, 64
2, 13560, Note_on_c, 0, 49, 64
2, 13620, Note_off_c, 0, 49, 64
2, 13620, Note_off_c, 0, 77, 64
2, 13620, Note_on_c, 0, 75, 64
2, 13620, Note_on_c, 0, 51, 64
2, 13680, Note_off_c, 0, 51, 64
2, 13680, Note_off_c, 0, 75, 64
2, 13680, Note_on_c, 0, 73, 64
2, 13680, Note_on_c, 0, 53, 64
2, 13740, Note_off_c, 0, 53, 64
2, 13740, Note_off_c, 0, 73, 64
2, 13740, Note_on_c, 0, 82, 64
2, 13740, Note_on_c, 0, 54, 64
2, 13800, Note_off_c, 0, 54, 64
2, 13800, Note_off_c, 0, 82, 64
2, 13800, Note_on_c, 0, 72, 64
2, 13800, Note_on_c, 0, 51, 64
2, 13860, Note_off_c, 0, 51, 64
2, 13860, Note_off_c, 0, 72, 64
2, 13860, Note_on_c, 0, 81, 64
2, 13860, Note_on_c, 0, 53, 64
2, 13920, Note_off_c, 0, 53, 64
2, 13920, Note_off_c, 0, 81, 64
2, 13920, Note_on_c, 0, 82, 64
2, 13920, Note_on_c, 0, 54, 64
2, 13980, Note_off_c, 0, 82, 64
2, 13980, Note_on_c, 0, 70, 64
2, 14040, Note_off_c, 0, 70, 64
2, 14040, Note_off_c, 0, 54, 64
2, 14040, Note_on_c, 0, 75, 64
2, 14040, Note_on_c, 0, 42, 64
2, 14070, Note_off_c, 0, 75, 64
2, 14070, Note_on_c, 0, 73, 64
2, 14100, Note_off_c, 0, 73, 64
2, 14100, Note_on_c, 0, 72, 64
2, 14160, Note_off_c, 0, 72, 64
2, 14160, Note_off_c, 0, 42, 64
2, 14160, Note_on_c, 0, 73, 64
2, 14160, Note_on_c, 0, 41, 64
2, 14220, Note_off_c, 0, 73, 64
2, 14220, Note_on_c, 0, 72, 64
2, 14250, Note_off_c, 0, 72, 64
2, 14250, Note_on_c, 0, 70, 64
2, 14280, Note_off_c, 0, 70, 64
2, 14280, Note_off_c, 0, 41, 64
2, 14280, Note_on_c, 0, 39, 64
2, 14280, Note_on_c, 0, 69, 64
2, 14310, Note_off_c, 0, 69, 64
2, 14310, Note_on_c, 0, 70, 64
2, 14340, Note_off_c, 0, 70, 64
2, 14340, Note_on_c, 0, 72, 64
2, 14400, Note_off_c, 0, 72, 64
2, 14400, Note_off_c, 0, 39, 64
2, 14400, Note_on_c, 0, 65, 64
2, 14400, Note_on_c, 0, 37, 64
2, 14430, Note_off_c, 0, 65, 64
2, 14430, Note_on_c, 0, 70, 64
2, 14460, Note_off_c, 0, 70, 64
2, 14460, Note_on_c, 0, 68, 64
2, 14490, Note_off_c, 0, 68, 64
2, 14490, Note_on_c, 0, 66, 64
2, 14520, Note_off_c, 0, 66, 64
2, 14520, Note_off_c, 0, 37, 64
2, 14520, Note_on_c, 0, 65, 64
2, 14520, Note_on_c, 0, 49, 64
2, 14580, Note_off_c, 0, 49, 64
2, 14580, Note_off_c, 0, 65, 64
2, 14580, Note_on_c, 0, 63, 64
2, 14580, Note_on_c, 0, 51, 64
2, 14640, Note_off_c, 0, 51, 64
2, 14640, Note_off_c, 0, 63, 64
2, 14640, Note_on_c, 0, 61, 64
2, 14640, Note_on_c, 0, 53, 64
2, 14700, Note_off_c, 0, 61, 64
2, 14700, Note_on_c, 0, 60, 64
2, 14730, Note_off_c, 0, 60, 64
2, 14730, Note_on_c, 0, 61, 64
2, 14760, Note_off_c, 0, 61, 64
2, 14760, Note_off_c, 0, 53, 64
2, 14760, Note_on_c, 0, 63, 64
2, 14760, Note_on_c, 0, 41, 64
2, 14790, Note_off_c, 0, 63, 64
2, 14790, Note_on_c, 0, 61, 64
2, 14820, Note_off_c, 0, 61, 64
2, 14820, Note_on_c, 0, 60, 64
2, 14880, Note_off_c, 0, 60, 64
2, 14880, Note_off_c, 0, 41, 64
2, 14880, Note_on_c, 0, 46, 64
2, 14880, Note_on_c, 0, 58, 64
2, 14940, Note_off_c, 0, 58, 64
2, 14940, Note_on_c, 0, 61, 64
2, 15000, Note_off_c, 0, 61, 64
2, 15000, Note_on_c, 0, 65, 64
2, 15060, Note_off_c, 0, 65, 64
2, 15060, Note_on_c, 0, 69, 64
2, 15120, Note_off_c, 0, 69, 64
2, 15120, Note_on_c, 0, 69, 64
2, 15240, Note_off_c, 0, 69, 64
2, 15240, Note_on_c, 0, 70, 64
2, 15360, Note_off_c, 0, 70, 64
2, 15360, Note_off_c, 0, 46, 64
2, 15360, Note_on_c, 0, 51, 76
2, 15360, Note_on_c, 0, 63, 64
2, 15390, Note_off_c, 0, 51, 64
2, 15392, Note_on_c, 0, 49, 76
2, 15420, Note_off_c, 0, 63, 64
2, 15420, Note_on_c, 0, 51, 64
2, 15420, Note_on_c, 0, 66, 64
2, 15422, Note_off_c, 0, 49, 64
2, 15480, Note_off_c, 0, 66, 64
2, 15480, Note_on_c, 0, 65, 64
2, 15540, Note_off_c, 0, 65, 64
2, 15540, Note_on_c, 0, 68, 64
2, 15600, Note_off_c, 0, 68, 64
2, 15600, Note_off_c, 0, 51, 64
2, 15600, Note_on_c, 0, 66, 64
2, 15600, Note_on_c, 0, 39, 64
2, 15660, Note_off_c, 0, 66, 64
2, 15660, Note_on_c, 0, 70, 64
2, 15720, Note_off_c, 0, 70, 64
2, 15720, Note_on_c, 0, 68, 64
2, 15780, Note_off_c, 0, 68, 64
2, 15780, Note_on_c, 0, 71, 64
2, 15840, Note_off_c, 0, 71, 64
2, 15840, Note_off_c, 0, 39, 64
2, 15840, Note_on_c, 0, 70, 64
2, 15900, Note_off_c, 0, 70, 64
2, 15900, Note_on_c, 0, 75, 64
2, 15960, Note_off_c, 0, 75, 64
2, 15960, Note_on_c, 0, 74, 64
2, 16020, Note_off_c, 0, 74, 64
2, 16020, Note_on_c, 0, 72, 64
2, 16080, Note_off_c, 0, 72, 64
2, 16080, Note_on_c, 0, 70, 64
2, 16140, Note_off_c, 0, 70, 64
2, 16140, Note_on_c, 0, 68, 64
2, 16200, Note_off_c, 0, 68, 64
2, 16200, Note_on_c, 0, 66, 64
2, 16260, Note_off_c, 0, 66, 64
2, 16260, Note_on_c, 0, 65, 64
2, 16320, Note_off_c, 0, 65, 64
2, 16320, Note_on_c, 0, 66, 64
2, 16320, Note_on_c, 0, 51, 64
2, 16380, Note_off_c, 0, 51, 64
2, 16380, Note_on_c, 0, 54, 64
2, 16440, Note_off_c, 0, 54, 64
2, 16440, Note_off_c, 0, 66, 64
2, 16440, Note_on_c, 0, 62, 64
2, 16440, Note_on_c, 0, 53, 64
2, 16500, Note_off_c, 0, 53, 64
2, 16500, Note_on_c, 0, 56, 64
2, 16560, Note_off_c, 0, 56, 64
2, 16560, Note_off_c, 0, 62, 64
2, 16560, Note_on_c, 0, 63, 64
2, 16560, Note_on_c, 0, 54, 64
2, 16620, Note_off_c, 0, 54, 64
2, 16620, Note_on_c, 0, 58, 64
2, 16680, Note_off_c, 0, 58, 64
2, 16680, Note_off_c, 0, 63, 64
2, 16680, Note_on_c, 0, 75, 64
2, 16680, Note_on_c, 0, 56, 64
2, 16740, Note_off_c, 0, 56, 64
2, 16740, Note_on_c, 0, 59, 64
2, 16800, Note_off_c, 0, 59, 64
2, 16800, Note_off_c, 0, 75, 64
2, 16800, Note_on_c, 0, 74, 76
2, 16800, Note_on_c, 0, 58, 64
2, 16820, Note_off_c, 0, 74, 64
2, 16824, Note_on_c, 0, 75, 76
2, 16840, Note_on_c, 0, 74, 64
2, 16844, Note_off_c, 0, 75, 64
2, 16860, Note_off_c, 0, 74, 64
2, 16860, Note_off_c, 0, 58, 64
2, 16860, Note_on_c, 0, 72, 64
2, 16860, Note_on_c, 0, 63, 64
2, 16920, Note_off_c, 0, 63, 64
2, 16920, Note_off_c, 0, 72, 64
2, 16920, Note_on_c, 0, 70, 64
2, 16920, Note_on_c, 0, 62, 64
2, 16980, Note_off_c, 0, 62, 64
2, 16980, Note_on_c, 0, 60, 64
2, 17040, Note_off_c, 0, 60, 64
2, 17040, Note_off_c, 0, 70, 64
2, 17040, Note_on_c, 0, 58, 64
2, 17100, Note_off_c, 0, 58, 64
2, 17100, Note_on_c, 0, 56, 64
2, 17160, Note_off_c, 0, 56, 64
2, 17160, Note_on_c, 0, 75, 76
2, 17160, Note_on_c, 0, 54, 64
2, 17190, Note_off_c, 0, 75, 64
2, 17192, Note_on_c, 0, 74, 76
2, 17220, Note_off_c, 0, 54, 64
2, 17220, Note_on_c, 0, 53, 64
2, 17222, Note_off_c, 0, 74, 64
2, 17224, Note_on_c, 0, 72, 76
2, 17250, Note_on_c, 0, 74, 64
2, 17254, Note_off_c, 0, 72, 64
2, 17280, Note_off_c, 0, 74, 64
2, 17280, Note_off_c, 0, 53, 64
2, 17280, Note_on_c, 0, 75, 64
2, 17280, Note_on_c, 0, 54, 64
2, 17340, Note_off_c, 0, 75, 64
2, 17340, Note_on_c, 0, 78, 64
2, 17400, Note_off_c, 0, 78, 64
2, 17400, Note_off_c, 0, 54, 64
2, 17400, Note_on_c, 0, 77, 64
2, 17400, Note_on_c, 0, 50, 64
2, 17460, Note_off_c, 0, 77, 64
2, 17460, Note_on_c, 0, 80, 64
2, 17520, Note_off_c, 0, 80, 64
2, 17520, Note_off_c, 0, 50, 64
2, 17520, Note_on_c, 0, 78, 64
2, 17520, Note_on_c, 0, 51, 64
2, 17580, Note_off_c, 0, 78, 64
2, 17580, Note_on_c, 0, 77, 64
2, 17640, Note_off_c, 0, 77, 64
2, 17640, Note_off_c, 0, 51, 64
2, 17640, Note_on_c, 0, 75, 64
2, 17640, Note_on_c, 0, 54, 64
2, 17700, Note_off_c, 0, 75, 64
2, 17700, Note_on_c, 0, 73, 64
2, 17760, Note_off_c, 0, 73, 64
2, 17760, Note_off_c, 0, 54, 64
2, 17760, Note_on_c, 0, 71, 64
2, 17760, Note_on_c, 0, 56, 64
2, 17820, Note_off_c, 0, 56, 64
2, 17820, Note_on_c, 0, 59, 64
2, 17880, Note_off_c, 0, 59, 64
2, 17880, Note_off_c, 0, 71, 64
2, 17880, Note_on_c, 0, 75, 64
2, 17880, Note_on_c, 0, 58, 64
2, 17940, Note_off_c, 0, 58, 64
2, 17940, Note_on_c, 0, 61, 64
2, 18000, Note_off_c, 0, 61, 64
2, 18000, Note_off_c, 0, 75, 64
2, 18000, Note_on_c, 0, 80, 76
2, 18000, Note_on_c, 0, 59, 64
2, 18030, Note_off_c, 0, 80, 64
2, 18032, Note_on_c, 0, 78, 76
2, 18060, Note_off_c, 0, 59, 64
2, 18060, Note_on_c, 0, 80, 64
2, 18060, Note_on_c, 0, 58, 64
2, 18062, Note_off_c, 0, 78, 64
2, 18120, Note_off_c, 0, 58, 64
2, 18120, Note_on_c, 0, 56, 64
2, 18180, Note_off_c, 0, 56, 64
2, 18180, Note_on_c, 0, 54, 64
2, 18240, Note_off_c, 0, 54, 64
2, 18240, Note_on_c, 0, 53, 64
2, 18300, Note_off_c, 0, 80, 64
2, 18300, Note_on_c, 0, 77, 64
2, 18360, Note_off_c, 0, 77, 64
2, 18360, Note_off_c, 0, 53, 64
2, 18360, Note_on_c, 0, 78, 64
2, 18360, Note_on_c, 0, 56, 64
2, 18420, Note_off_c, 0, 78, 64
2, 18420, Note_on_c, 0, 75, 64
2, 18480, Note_off_c, 0, 75, 64
2, 18480, Note_off_c, 0, 56, 64
2, 18480, Note_on_c, 0, 61, 76
2, 18480, Note_on_c, 0, 77, 64
2, 18510, Note_off_c, 0, 61, 64
2, 18512, Note_on_c, 0, 59, 76
2, 18540, Note_off_c, 0, 77, 64
2, 18540, Note_on_c, 0, 61, 64
2, 18540, Note_on_c, 0, 80, 64
2, 18542, Note_off_c, 0, 59, 64
2, 18600, Note_off_c, 0, 80, 64
2, 18600, Note_on_c, 0, 73, 64
2, 18660, Note_off_c, 0, 73, 64
2, 18660, Note_on_c, 0, 71, 64
2, 18720, Note_off_c, 0, 71, 64
2, 18720, Note_on_c, 0, 70, 64
2, 18780, Note_off_c, 0, 61, 64
2, 18780, Note_on_c, 0, 58, 64
2, 18840, Note_off_c, 0, 58, 64
2, 18840, Note_off_c, 0, 70, 64
2, 18840, Note_on_c, 0, 73, 64
2, 18840, Note_on_c, 0, 59, 64
2, 18900, Note_off_c, 0, 59, 64
2, 18900, Note_on_c, 0, 56, 64
2, 18960, Note_off_c, 0, 56, 64
2, 18960, Note_off_c, 0, 73, 64
2, 18960, Note_on_c, 0, 78, 76
2, 18960, Note_on_c, 0, 58, 64
2, 18990, Note_off_c, 0, 78, 64
2, 18992, Note_on_c, 0, 76, 76
2, 19020, Note_off_c, 0, 58, 64
2, 19020, Note_on_c, 0, 78, 64
2, 19020, Note_on_c, 0, 61, 64
2, 19022, Note_off_c, 0, 76, 64
2, 19080, Note_off_c, 0, 61, 64
2, 19080, Note_on_c, 0, 54, 64
2, 19140, Note_off_c, 0, 54, 64
2, 19140, Note_on_c, 0, 53, 64
2, 19200, Note_off_c, 0, 53, 64
2, 19200, Note_on_c, 0, 51, 64
2, 19260, Note_off_c, 0, 78, 64
2, 19260, Note_on_c, 0, 77, 64
2, 19320, Note_off_c, 0, 77, 64
2, 19320, Note_off_c, 0, 51, 64
2, 19320, Note_on_c, 0, 75, 64
2, 19320, Note_on_c, 0, 54, 64
2, 19380, Note_off_c, 0, 75, 64
2, 19380, Note_on_c, 0, 74, 64
2, 19440, Note_off_c, 0, 74, 64
2, 19440, Note_off_c, 0, 54, 64
2, 19440, Note_on_c, 0, 59, 76
2, 19440, Note_on_c, 0, 75, 64
2, 19470, Note_off_c, 0, 59, 64
2, 19472, Note_on_c, 0, 58, 76
2, 19500, Note_off_c, 0, 75, 64
2, 19500, Note_on_c, 0, 59, 64
2, 19500, Note_on_c, 0, 78, 64
2, 19502, Note_off_c, 0, 58, 64
2, 19560, Note_off_c, 0, 78, 64
2, 19560, Note_on_c, 0, 68, 64
2, 19620, Note_off_c, 0, 68, 64
2, 19620, Note_on_c, 0, 78, 64
2, 19680, Note_off_c, 0, 78, 64
2, 19680, Note_off_c, 0, 59, 64
2, 19680, Note_on_c, 0, 77, 64
2, 19680, Note_on_c, 0, 49, 64
2, 19740, Note_off_c, 0, 77, 64
2, 19740, Note_on_c, 0, 75, 64
2, 19800, Note_off_c, 0, 75, 64
2, 19800, Note_off_c, 0, 49, 64
2, 19800, Note_on_c, 0, 73, 64
2, 19800, Note_on_c, 0, 53, 64
2, 19860, Note_off_c, 0, 73, 64
2, 19860, Note_on_c, 0, 72, 64
2, 19920, Note_off_c, 0, 72, 64
2, 19920, Note_off_c, 0, 53, 64
2, 19920, Note_on_c, 0, 58, 76
2, 19920, Note_on_c, 0, 73, 64
2, 19950, Note_off_c, 0, 58, 64
2, 19952, Note_on_c, 0, 56, 76
2, 19980, Note_off_c, 0, 73, 64
2, 19980, Note_on_c, 0, 77, 64
2, 19980, Note_on_c, 0, 58, 64
2, 19982, Note_off_c, 0, 56, 64
2, 20040, Note_off_c, 0, 77, 64
2, 20040, Note_on_c, 0, 66, 64
2, 20100, Note_off_c, 0, 66, 64
2, 20100, Note_on_c, 0, 76, 64
2, 20160, Note_off_c, 0, 76, 64
2, 20160, Note_off_c, 0, 58, 64
2, 20160, Note_on_c, 0, 75, 64
2, 20160, Note_on_c, 0, 47, 64
2, 20220, Note_off_c, 0, 75, 64
2, 20220, Note_on_c, 0, 73, 64
2, 20280, Note_off_c, 0, 73, 64
2, 20280, Note_off_c, 0, 47, 64
2, 20280, Note_on_c, 0, 71, 64
2, 20280, Note_on_c, 0, 51, 64
2, 20340, Note_off_c, 0, 71, 64
2, 20340, Note_on_c, 0, 70, 64
2, 20400, Note_off_c, 0, 70, 64
2, 20400, Note_off_c, 0, 51, 64
2, 20400, Note_on_c, 0, 71, 64
2, 20400, Note_on_c, 0, 56, 64
2, 20460, Note_off_c, 0, 71, 64
2, 20460, Note_on_c, 0, 75, 64
2, 20520, Note_off_c, 0, 75, 64
2, 20520, Note_off_c, 0, 56, 64
2, 20520, Note_on_c, 0, 65, 64
2, 20520, Note_on_c, 0, 49, 64
2, 20580, Note_off_c, 0, 65, 64
2, 20580, Note_on_c, 0, 75, 64
2, 20640, Note_off_c, 0, 75, 64
2, 20640, Note_off_c, 0, 49, 64
2, 20640, Note_on_c, 0, 71, 64
2, 20640, Note_on_c, 0, 51, 64
2, 20700, Note_off_c, 0, 71, 64
2, 20700, Note_on_c, 0, 75, 64
2, 20760, Note_off_c, 0, 75, 64
2, 20760, Note_off_c, 0, 51, 64
2, 20760, Note_on_c, 0, 66, 64
2, 20760, Note_on_c, 0, 59, 64
2, 20820, Note_off_c, 0, 66, 64
2, 20820, Note_on_c, 0, 75, 64
2, 20880, Note_off_c, 0, 75, 64
2, 20880, Note_off_c, 0, 59, 64
2, 20880, Note_on_c, 0, 71, 64
2, 20880, Note_on_c, 0, 56, 64
2, 20940, Note_off_c, 0, 71, 64
2, 20940, Note_on_c, 0, 75, 64
2, 21000, Note_off_c, 0, 75, 64
2, 21000, Note_off_c, 0, 56, 64
2, 21000, Note_on_c, 0, 53, 64
2, 21000, Note_on_c, 0, 68, 64
2, 21060, Note_off_c, 0, 68, 64
2, 21060, Note_on_c, 0, 75, 64
2, 21120, Note_off_c, 0, 75, 64
2, 21120, Note_off_c, 0, 53, 64
2, 21120, Note_on_c, 0, 73, 64
2, 21120, Note_on_c, 0, 46, 64
2, 21180, Note_off_c, 0, 73, 64
2, 21180, Note_on_c, 0, 71, 64
2, 21240, Note_off_c, 0, 71, 64
2, 21240, Note_off_c, 0, 46, 64
2, 21240, Note_on_c, 0, 70, 64
2, 21240, Note_on_c, 0, 49, 64
2, 21300, Note_off_c, 0, 70, 64
2, 21300, Note_on_c, 0, 68, 64
2, 21360, Note_off_c, 0, 68, 64
2, 21360, Note_off_c, 0, 49, 64
2, 21360, Note_on_c, 0, 70, 64
2, 21360, Note_on_c, 0, 54, 64
2, 21420, Note_off_c, 0, 70, 64
2, 21420, Note_on_c, 0, 73, 64
2, 21480, Note_off_c, 0, 73, 64
2, 21480, Note_off_c, 0, 54, 64
2, 21480, Note_on_c, 0, 63, 64
2, 21480, Note_on_c, 0, 47, 64
2, 21540, Note_off_c, 0, 63, 64
2, 21540, Note_on_c, 0, 73, 64
2, 21600, Note_off_c, 0, 73, 64
2, 21600, Note_off_c, 0, 47, 64
2, 21600, Note_on_c, 0, 70, 64
2, 21600, Note_on_c, 0, 49, 64
2, 21660, Note_off_c, 0, 70, 64
2, 21660, Note_on_c, 0, 73, 64
2, 21720, Note_off_c, 0, 73, 64
2, 21720, Note_off_c, 0, 49, 64
2, 21720, Note_on_c, 0, 65, 64
2, 21720, Note_on_c, 0, 58, 64
2, 21780, Note_off_c, 0, 65, 64
2, 21780, Note_on_c, 0, 73, 64
2, 21840, Note_off_c, 0, 73, 64
2, 21840, Note_off_c, 0, 58, 64
2, 21840, Note_on_c, 0, 70, 64
2, 21840, Note_on_c, 0, 54, 64
2, 21900, Note_off_c, 0, 70, 64
2, 21900, Note_on_c, 0, 73, 64
2, 21960, Note_off_c, 0, 73, 64
2, 21960, Note_off_c, 0, 54, 64
2, 21960, Note_on_c, 0, 51, 64
2, 21960, Note_on_c, 0, 66, 64
2, 22020, Note_off_c, 0, 66, 64
2, 22020, Note_on_c, 0, 73, 64
2, 22080, Note_off_c, 0, 73, 64
2, 22080, Note_off_c, 0, 51, 64
2, 22080, Note_on_c, 0, 71, 64
2, 22080, Note_on_c, 0, 44, 64
2, 22140, Note_off_c, 0, 71, 64
2, 22140, Note_on_c, 0, 70, 64
2, 22200, Note_off_c, 0, 70, 64
2, 22200, Note_off_c, 0, 44, 64
2, 22200, Note_on_c, 0, 68, 64
2, 22200, Note_on_c, 0, 47, 64
2, 22260, Note_off_c, 0, 68, 64
2, 22260, Note_on_c, 0, 66, 64
2, 22320, Note_off_c, 0, 66, 64
2, 22320, Note_off_c, 0, 47, 64
2, 22320, Note_on_c, 0, 68, 64
2, 22320, Note_on_c, 0, 53, 64
2, 22380, Note_off_c, 0, 68, 64
2, 22380, Note_on_c, 0, 71, 64
2, 22440, Note_off_c, 0, 71, 64
2, 22440, Note_off_c, 0, 53, 64
2, 22440, Note_on_c, 0, 61, 64
2, 22440, Note_on_c, 0, 46, 64
2, 22500, Note_off_c, 0, 61, 64
2, 22500, Note_on_c, 0, 71, 64
2, 22560, Note_off_c, 0, 71, 64
2, 22560, Note_off_c, 0, 46, 64
2, 22560, Note_on_c, 0, 68, 64
2, 22560, Note_on_c, 0, 47, 64
2, 22620, Note_off_c, 0, 68, 64
2, 22620, Note_on_c, 0, 71, 64
2, 22680, Note_off_c, 0, 71, 64
2, 22680, Note_off_c, 0, 47, 64
2, 22680, Note_on_c, 0, 63, 64
2, 22680, Note_on_c, 0, 56, 64
2, 22740, Note_off_c, 0, 63, 64
2, 22740, Note_on_c, 0, 71, 64
2, 22800, Note_off_c, 0, 71, 64
2, 22800, Note_off_c, 0, 56, 64
2, 22800, Note_on_c, 0, 68, 64
2, 22800, Note_on_c, 0, 53, 64
2, 22860, Note_off_c, 0, 68, 64
2, 22860, Note_on_c, 0, 71, 64
2, 22920, Note_off_c, 0, 71, 64
2, 22920, Note_off_c, 0, 53, 64
2, 22920, Note_on_c, 0, 49, 64
2, 22920, Note_on_c, 0, 65, 64
2, 22980, Note_off_c, 0, 65, 64
2, 22980, Note_on_c, 0, 71, 64
2, 23040, Note_off_c, 0, 71, 64
2, 23040, Note_off_c, 0, 49, 64
2, 23040, Note_on_c, 0, 70, 64
2, 23040, Note_on_c, 0, 42, 64
2, 23100, Note_off_c, 0, 42, 64
2, 23100, Note_off_c, 0, 70, 64
2, 23100, Note_on_c, 0, 66, 64
2, 23100, Note_on_c, 0, 46, 64
2, 23160, Note_off_c, 0, 46, 64
2, 23160, Note_off_c, 0, 66, 64
2, 23160, Note_on_c, 0, 65, 64
2, 23160, Note_on_c, 0, 44, 64
2, 23220, Note_off_c, 0, 44, 64
2, 23220, Note_off_c, 0, 65, 64
2, 23220, Note_on_c, 0, 75, 64
2, 23220, Note_on_c, 0, 47, 64
2, 23280, Note_off_c, 0, 47, 64
2, 23280, Note_off_c, 0, 75, 64
2, 23280, Note_on_c, 0, 73, 64
2, 23280, Note_on_c, 0, 46, 64
2, 23340, Note_off_c, 0, 46, 64
2, 23340, Note_off_c, 0, 73, 64
2, 23340, Note_on_c, 0, 70, 64
2, 23340, Note_on_c, 0, 49, 64
2, 23400, Note_off_c, 0, 49, 64
2, 23400, Note_off_c, 0, 70, 64
2, 23400, Note_on_c, 0, 66, 64
2, 23400, Note_on_c, 0, 47, 64
2, 23460, Note_off_c, 0, 47, 64
2, 23460, Note_off_c, 0, 66, 64
2, 23460, Note_on_c, 0, 78, 64
2, 23460, Note_on_c, 0, 51, 64
2, 23520, Note_off_c, 0, 51, 64
2, 23520, Note_off_c, 0, 78, 64
2, 23520, Note_on_c, 0, 77, 76
2, 23520, Note_on_c, 0, 49, 64
2, 23540, Note_off_c, 0, 77, 64
2, 23544, Note_on_c, 0, 78, 76
2, 23560, Note_on_c, 0, 77, 64
2, 23564, Note_off_c, 0, 78, 64
2, 23580, Note_off_c, 0, 77, 64
2, 23580, Note_off_c, 0, 49, 64
2, 23580, Note_on_c, 0, 75, 64
2, 23580, Note_on_c, 0, 54, 64
2, 23640, Note_off_c, 0, 54, 64
2, 23640, Note_off_c, 0, 75, 64
2, 23640, Note_on_c, 0, 73, 64
2, 23640, Note_on_c, 0, 53, 64
2, 23700, Note_off_c, 0, 53, 64
2, 23700, Note_on_c, 0, 51, 64
2, 23760, Note_off_c, 0, 51, 64
2, 23760, Note_off_c, 0, 73, 64
2, 23760, Note_on_c, 0, 49, 64
2, 23820, Note_off_c, 0, 49, 64
2, 23820, Note_on_c, 0, 47, 64
2, 23880, Note_off_c, 0, 47, 64
2, 23880, Note_on_c, 0, 46, 64
2, 23940, Note_off_c, 0, 46, 64
2, 23940, Note_on_c, 0, 44, 64
2, 24000, Note_off_c, 0, 44, 64
2, 24000, Note_on_c, 0, 66, 64
2, 24000, Note_on_c, 0, 46, 64
2, 24060, Note_off_c, 0, 66, 64
2, 24060, Note_on_c, 0, 70, 64
2, 24120, Note_off_c, 0, 70, 64
2, 24120, Note_off_c, 0, 46, 64
2, 24120, Note_on_c, 0, 68, 64
2, 24120, Note_on_c, 0, 49, 64
2, 24180, Note_off_c, 0, 68, 64
2, 24180, Note_on_c, 0, 71, 64
2, 24240, Note_off_c, 0, 71, 64
2, 24240, Note_off_c, 0, 49, 64
2, 24240, Note_on_c, 0, 70, 64
2, 24240, Note_on_c, 0, 54, 64
2, 24300, Note_off_c, 0, 70, 64
2, 24300, Note_on_c, 0, 73, 64
2, 24360, Note_off_c, 0, 73, 64
2, 24360, Note_off_c, 0, 54, 64
2, 24360, Note_on_c, 0, 71, 64
2, 24360, Note_on_c, 0, 56, 64
2, 24420, Note_off_c, 0, 71, 64
2, 24420, Note_on_c, 0, 75, 64
2, 24480, Note_off_c, 0, 75, 64
2, 24480, Note_off_c, 0, 56, 64
2, 24480, Note_on_c, 0, 73, 64
2, 24480, Note_on_c, 0, 58, 64
2, 24540, Note_off_c, 0, 73, 64
2, 24540, Note_on_c, 0, 78, 64
2, 24600, Note_off_c, 0, 78, 64
2, 24600, Note_off_c, 0, 58, 64
2, 24600, Note_on_c, 0, 77, 64
2, 24600, Note_on_c, 0, 59, 64
2, 24660, Note_off_c, 0, 77, 64
2, 24660, Note_on_c, 0, 75, 64
2, 24720, Note_off_c, 0, 75, 64
2, 24720, Note_off_c, 0, 59, 64
2, 24720, Note_on_c, 0, 73, 64
2, 24720, Note_on_c, 0, 61, 64
2, 24780, Note_off_c, 0, 73, 64
2, 24780, Note_on_c, 0, 71, 64
2, 24840, Note_off_c, 0, 71, 64
2, 24840, Note_off_c, 0, 61, 64
2, 24840, Note_on_c, 0, 49, 64
2, 24840, Note_on_c, 0, 70, 64
2, 24900, Note_off_c, 0, 70, 64
2, 24900, Note_on_c, 0, 68, 64
2, 24960, Note_off_c, 0, 68, 64
2, 24960, Note_off_c, 0, 49, 64
2, 24960, Note_on_c, 0, 70, 64
2, 24960, Note_on_c, 0, 54, 64
2, 25020, Note_off_c, 0, 70, 64
2, 25020, Note_on_c, 0, 73, 64
2, 25080, Note_off_c, 0, 73, 64
2, 25080, Note_off_c, 0, 54, 64
2, 25080, Note_on_c, 0, 72, 64
2, 25080, Note_on_c, 0, 51, 64
2, 25140, Note_off_c, 0, 72, 64
2, 25140, Note_on_c, 0, 75, 64
2, 25200, Note_off_c, 0, 75, 64
2, 25200, Note_off_c, 0, 51, 64
2, 25200, Note_on_c, 0, 73, 64
2, 25200, Note_on_c, 0, 53, 64
2, 25260, Note_off_c, 0, 73, 64
2, 25260, Note_on_c, 0, 77, 64
2, 25320, Note_off_c, 0, 77, 64
2, 25320, Note_off_c, 0, 53, 64
2, 25320, Note_on_c, 0, 75, 64
2, 25320, Note_on_c, 0, 48, 64
2, 25380, Note_off_c, 0, 75, 64
2, 25380, Note_on_c, 0, 78, 64
2, 25440, Note_off_c, 0, 78, 64
2, 25440, Note_off_c, 0, 48, 64
2, 25440, Note_on_c, 0, 77, 64
2, 25440, Note_on_c, 0, 49, 64
2, 25500, Note_off_c, 0, 77, 64
2, 25500, Note_on_c, 0, 82, 64
2, 25560, Note_off_c, 0, 82, 64
2, 25560, Note_off_c, 0, 49, 64
2, 25560, Note_on_c, 0, 81, 64
2, 25560, Note_on_c, 0, 51, 64
2, 25620, Note_off_c, 0, 81, 64
2, 25620, Note_on_c, 0, 79, 64
2, 25680, Note_off_c, 0, 79, 64
2, 25680, Note_off_c, 0, 51, 64
2, 25680, Note_on_c, 0, 77, 64
2, 25680, Note_on_c, 0, 53, 64
2, 25740, Note_off_c, 0, 77, 64
2, 25740, Note_on_c, 0, 75, 64
2, 25800, Note_off_c, 0, 75, 64
2, 25800, Note_off_c, 0, 53, 64
2, 25800, Note_on_c, 0, 41, 64
2, 25800, Note_on_c, 0, 73, 64
2, 25860, Note_off_c, 0, 73, 64
2, 25860, Note_on_c, 0, 72, 64
2, 25920, Note_off_c, 0, 72, 64
2, 25920, Note_off_c, 0, 41, 64
2, 25920, Note_on_c, 0, 73, 64
2, 25920, Note_on_c, 0, 46, 64
2, 25980, Note_off_c, 0, 46, 64
2, 25980, Note_on_c, 0, 49, 64
2, 26040, Note_off_c, 0, 49, 64
2, 26040, Note_off_c, 0, 73, 64
2, 26040, Note_on_c, 0, 69, 64
2, 26040, Note_on_c, 0, 48, 64
2, 26100, Note_off_c, 0, 48, 64
2, 26100, Note_on_c, 0, 51, 64
2, 26160, Note_off_c, 0, 51, 64
2, 26160, Note_off_c, 0, 69, 64
2, 26160, Note_on_c, 0, 70, 64
2, 26160, Note_on_c, 0, 49, 64
2, 26220, Note_off_c, 0, 49, 64
2, 26220, Note_on_c, 0, 53, 64
2, 26280, Note_off_c, 0, 53, 64
2, 26280, Note_off_c, 0, 70, 64
2, 26280, Note_on_c, 0, 78, 64
2, 26280, Note_on_c, 0, 51, 64
2, 26340, Note_off_c, 0, 51, 64
2, 26340, Note_on_c, 0, 54, 64
2, 26400, Note_off_c, 0, 54, 64
2, 26400, Note_off_c, 0, 78, 64
2, 26400, Note_on_c, 0, 69, 64
2, 26400, Note_on_c, 0, 53, 64
2, 26430, Note_off_c, 0, 69, 64
2, 26430, Note_on_c, 0, 67, 64
2, 26460, Note_off_c, 0, 67, 64
2, 26460, Note_off_c, 0, 53, 64
2, 26460, Note_on_c, 0, 65, 64
2, 26460, Note_on_c, 0, 58, 64
2, 26520, Note_off_c, 0, 58, 64
2, 26520, Note_off_c, 0, 65, 64
2, 26520, Note_on_c, 0, 75, 64
2, 26520, Note_on_c, 0, 57, 64
2, 26580, Note_off_c, 0, 57, 64
2, 26580, Note_on_c, 0, 55, 64
2, 26640, Note_off_c, 0, 55, 64
2, 26640, Note_off_c, 0, 75, 64
2, 26640, Note_on_c, 0, 53, 64
2, 26700, Note_off_c, 0, 53, 64
2, 26700, Note_on_c, 0, 69, 64
2, 26700, Note_on_c, 0, 51, 64
2, 26760, Note_off_c, 0, 51, 64
2, 26760, Note_off_c, 0, 69, 64
2, 26760, Note_on_c, 0, 70, 64
2, 26760, Note_on_c, 0, 49, 64
2, 26820, Note_off_c, 0, 49, 64
2, 26820, Note_off_c, 0, 70, 64
2, 26820, Note_on_c, 0, 72, 64
2, 26820, Note_on_c, 0, 48, 64
2, 26880, Note_off_c, 0, 48, 64
2, 26880, Note_off_c, 0, 72, 64
2, 26880, Note_on_c, 0, 65, 64
2, 26880, Note_on_c, 0, 49, 64
2, 26940, Note_off_c, 0, 49, 64
2, 26940, Note_off_c, 0, 65, 64
2, 26940, Note_on_c, 0, 73, 64
2, 26940, Note_on_c, 0, 53, 64
2, 27000, Note_off_c, 0, 53, 64
2, 27000, Note_off_c, 0, 73, 64
2, 27000, Note_on_c, 0, 72, 64
2, 27000, Note_on_c, 0, 51, 64
2, 27060, Note_off_c, 0, 51, 64
2, 27060, Note_off_c, 0, 72, 64
2, 27060, Note_on_c, 0, 75, 64
2, 27060, Note_on_c, 0, 54, 64
2, 27120, Note_off_c, 0, 54, 64
2, 27120, Note_off_c, 0, 75, 64
2, 27120, Note_on_c, 0, 73, 64
2, 27120, Note_on_c, 0, 53, 64
2, 27180, Note_off_c, 0, 53, 64
2, 27180, Note_off_c, 0, 73, 64
2, 27180, Note_on_c, 0, 72, 64
2, 27180, Note_on_c, 0, 51, 64
2, 27240, Note_off_c, 0, 51, 64
2, 27240, Note_off_c, 0, 72, 64
2, 27240, Note_on_c, 0, 70, 64
2, 27240, Note_on_c, 0, 49, 64
2, 27300, Note_off_c, 0, 49, 64
2, 27300, Note_off_c, 0, 70, 64
2, 27300, Note_on_c, 0, 69, 64
2, 27300, Note_on_c, 0, 48, 64
2, 27360, Note_off_c, 0, 48, 64
2, 27360, Note_off_c, 0, 69, 64
2, 27360, Note_on_c, 0, 73, 64
2, 27360, Note_on_c, 0, 46, 64
2, 27420, Note_off_c, 0, 46, 64
2, 27420, Note_off_c, 0, 73, 64
2, 27420, Note_on_c, 0, 70, 64
2, 27420, Note_on_c, 0, 49, 64
2, 27480, Note_off_c, 0, 49, 64
2, 27480, Note_off_c, 0, 70, 64
2, 27480, Note_on_c, 0, 69, 64
2, 27480, Note_on_c, 0, 48, 64
2, 27540, Note_off_c, 0, 48, 64
2, 27540, Note_off_c, 0, 69, 64
2, 27540, Note_on_c, 0, 72, 64
2, 27540, Note_on_c, 0, 51, 64
2, 27600, Note_off_c, 0, 51, 64
2, 27600, Note_off_c, 0, 72, 64
2, 27600, Note_on_c, 0, 70, 64
2, 27600, Note_on_c, 0, 49, 64
2, 27660, Note_off_c, 0, 49, 64
2, 27660, Note_off_c, 0, 70, 64
2, 27660, Note_on_c, 0, 68, 64
2, 27660, Note_on_c, 0, 48, 64
2, 27720, Note_off_c, 0, 48, 64
2, 27720, Note_off_c, 0, 68, 64
2, 27720, Note_on_c, 0, 66, 64
2, 27720, Note_on_c, 0, 46, 64
2, 27780, Note_off_c, 0, 46, 64
2, 27780, Note_off_c, 0, 66, 64
2, 27780, Note_on_c, 0, 44, 64
2, 27780, Note_on_c, 0, 65, 64
2, 27840, Note_off_c, 0, 65, 64
2, 27840, Note_off_c, 0, 44, 64
2, 27840, Note_on_c, 0, 63, 64
2, 27840, Note_on_c, 0, 43, 64
2, 27900, Note_off_c, 0, 43, 64
2, 27900, Note_off_c, 0, 63, 64
2, 27900, Note_on_c, 0, 73, 64
2, 27900, Note_on_c, 0, 46, 64
2, 27960, Note_off_c, 0, 46, 64
2, 27960, Note_off_c, 0, 73, 64
2, 27960, Note_on_c, 0, 72, 64
2, 27960, Note_on_c, 0, 45, 64
2, 28020, Note_off_c, 0, 45, 64
2, 28020, Note_off_c, 0, 72, 64
2, 28020, Note_on_c, 0, 75, 64
2, 28020, Note_on_c, 0, 48, 64
2, 28080, Note_off_c, 0, 48, 64
2, 28080, Note_off_c, 0, 75, 64
2, 28080, Note_on_c, 0, 73, 64
2, 28080, Note_on_c, 0, 46, 64
2, 28140, Note_off_c, 0, 46, 64
2, 28140, Note_off_c, 0, 73, 64
2, 28140, Note_on_c, 0, 72, 64
2, 28140, Note_on_c, 0, 44, 64
2, 28200, Note_off_c, 0, 44, 64
2, 28200, Note_off_c, 0, 72, 64
2, 28200, Note_on_c, 0, 70, 64
2, 28200, Note_on_c, 0, 42, 64
2, 28260, Note_off_c, 0, 42, 64
2, 28260, Note_off_c, 0, 70, 64
2, 28260, Note_on_c, 0, 69, 64
2, 28260, Note_on_c, 0, 41, 64
2, 28320, Note_off_c, 0, 41, 64
2, 28320, Note_off_c, 0, 69, 64
2, 28320, Note_on_c, 0, 79, 64
2, 28320, Note_on_c, 0, 40, 64
2, 28380, Note_off_c, 0, 79, 64
2, 28380, Note_on_c, 0, 73, 64
2, 28440, Note_off_c, 0, 73, 64
2, 28440, Note_off_c, 0, 40, 64
2, 28440, Note_on_c, 0, 72, 64
2, 28440, Note_on_c, 0, 52, 64
2, 28500, Note_off_c, 0, 72, 64
2, 28500, Note_on_c, 0, 70, 64
2, 28560, Note_off_c, 0, 70, 64
2, 28560, Note_off_c, 0, 52, 64
2, 28560, Note_on_c, 0, 82, 74
2, 28580, Note_off_c, 0, 82, 65
2, 28580, Note_on_c, 0, 81, 50
2, 28600, Note_on_c, 0, 82, 52
2, 28602, Note_off_c, 0, 81, 62
2, 28620, Note_on_c, 0, 81, 54
2, 28620, Note_on_c, 0, 54, 64
2, 28622, Note_off_c, 0, 82, 62
2, 28640, Note_on_c, 0, 82, 57
2, 28642, Note_off_c, 0, 81, 52
2, 28660, Note_on_c, 0, 81, 59
2, 28662, Note_off_c, 0, 82, 61
2, 28680, Note_off_c, 0, 54, 64
2, 28680, Note_on_c, 0, 82, 61
2, 28680, Note_on_c, 0, 53, 64
2, 28682, Note_off_c, 0, 81, 54
2, 28700, Note_on_c, 0, 81, 63
2, 28702, Note_off_c, 0, 82, 66
2, 28740, Note_off_c, 0, 53, 64
2, 28740, Note_on_c, 0, 51, 64
2, 28740, Note_on_c, 0, 79, 64
2, 28744, Note_off_c, 0, 81, 59
2, 28770, Note_off_c, 0, 79, 64
2, 28770, Note_on_c, 0, 81, 64
2, 28800, Note_off_c, 0, 81, 64
2, 28800, Note_off_c, 0, 51, 64
2, 28800, Note_on_c, 0, 82, 64
2, 28800, Note_on_c, 0, 49, 64
2, 28860, Note_off_c, 0, 49, 64
2, 28860, Note_off_c, 0, 82, 64
2, 28860, Note_on_c, 0, 80, 64
2, 28860, Note_on_c, 0, 48, 64
2, 28890, Note_off_c, 0, 80, 64
2, 28890, Note_on_c, 0, 78, 64
2, 28920, Note_off_c, 0, 78, 64
2, 28920, Note_off_c, 0, 48, 64
2, 28920, Note_on_c, 0, 77, 64
2, 28920, Note_on_c, 0, 49, 64
2, 28980, Note_off_c, 0, 49, 64
2, 28980, Note_off_c, 0, 77, 64
2, 28980, Note_on_c, 0, 75, 64
2, 28980, Note_on_c, 0, 51, 64
2, 29040, Note_off_c, 0, 51, 64
2, 29040, Note_off_c, 0, 75, 64
2, 29040, Note_on_c, 0, 73, 64
2, 29040, Note_on_c, 0, 53, 64
2, 29100, Note_off_c, 0, 53, 64
2, 29100, Note_off_c, 0, 73, 64
2, 29100, Note_on_c, 0, 82, 64
2, 29100, Note_on_c, 0, 54, 64
2, 29160, Note_off_c, 0, 54, 64
2, 29160, Note_off_c, 0, 82, 64
2, 29160, Note_on_c, 0, 72, 64
2, 29160, Note_on_c, 0, 51, 64
2, 29220, Note_off_c, 0, 51, 64
2, 29220, Note_off_c, 0, 72, 64
2, 29220, Note_on_c, 0, 81, 64
2, 29220, Note_on_c, 0, 53, 64
2, 29280, Note_off_c, 0, 53, 64
2, 29280, Note_off_c, 0, 81, 64
2, 29280, Note_on_c, 0, 82, 64
2, 29280, Note_on_c, 0, 54, 64
2, 29340, Note_off_c, 0, 82, 64
2, 29340, Note_on_c, 0, 70, 64
2, 29400, Note_off_c, 0, 70, 64
2, 29400, Note_off_c, 0, 54, 64
2, 29400, Note_on_c, 0, 75, 64
2, 29400, Note_on_c, 0, 42, 64
2, 29430, Note_off_c, 0, 75, 64
2, 29430, Note_on_c, 0, 73, 64
2, 29460, Note_off_c, 0, 73, 64
2, 29460, Note_on_c, 0, 72, 64
2, 29520, Note_off_c, 0, 72, 64
2, 29520, Note_off_c, 0, 42, 64
2, 29520, Note_on_c, 0, 73, 64
2, 29520, Note_on_c, 0, 41, 64
2, 29580, Note_off_c, 0, 73, 64
2, 29580, Note_on_c, 0, 72, 64
2, 29610, Note_off_c, 0, 72, 64
2, 29610, Note_on_c, 0, 70, 64
2, 29640, Note_off_c, 0, 70, 64
2, 29640, Note_off_c, 0, 41, 64
2, 29640, Note_on_c, 0, 39, 64
2, 29640, Note_on_c, 0, 69, 64
2, 29670, Note_off_c, 0, 69, 64
2, 29670, Note_on_c, 0, 70, 64
2, 29700, Note_off_c, 0, 70, 64
2, 29700, Note_on_c, 0, 72, 64
2, 29760, Note_off_c, 0, 72, 64
2, 29760, Note_off_c, 0, 39, 64
2, 29760, Note_on_c, 0, 65, 64
2, 29760, Note_on_c, 0, 37, 64
2, 29790, Note_off_c, 0, 65, 64
2, 29790, Note_on_c, 0, 70, 64
2, 29820, Note_off_c, 0, 70, 64
2, 29820, Note_on_c, 0, 68, 64
2, 29850, Note_off_c, 0, 68, 64
2, 29850, Note_on_c, 0, 66, 64
2, 29880, Note_off_c, 0, 66, 64
2, 29880, Note_off_c, 0, 37, 64
2, 29880, Note_on_c, 0, 65, 64
2, 29880, Note_on_c, 0, 49, 64
2, 29940, Note_off_c, 0, 49, 64
2, 29940, Note_off_c, 0, 65, 64
2, 29940, Note_on_c, 0, 63, 64
2, 29940, Note_on_c, 0, 51, 64
2, 30000, Note_off_c, 0, 51, 64
2, 30000, Note_off_c, 0, 63, 64
2, 30000, Note_on_c, 0, 61, 64
2, 30000, Note_on_c, 0, 53, 64
2, 30060, Note_off_c, 0, 61, 64
2, 30060, Note_on_c, 0, 60, 64
2, 30090, Note_off_c, 0, 60, 64
2, 30090, Note_on_c, 0, 61, 64
2, 30120, Note_off_c, 0, 61, 64
2, 30120, Note_off_c, 0, 53, 64
2, 30120, Note_on_c, 0, 63, 64
2, 30120, Note_on_c, 0, 41, 64
2, 30150, Note_off_c, 0, 63, 64
2, 30150, Note_on_c, 0, 61, 64
2, 30180, Note_off_c, 0, 61, 64
2, 30180, Note_on_c, 0, 60, 64
2, 30240, Note_off_c, 0, 60, 64
2, 30240, Note_off_c, 0, 41, 64
2, 30240, Note_on_c, 0, 46, 64
2, 30240, Note_on_c, 0, 58, 64
2, 30300, Note_off_c, 0, 58, 64
2, 30300, Note_on_c, 0, 61, 64
2, 30360, Note_off_c, 0, 61, 64
2, 30360, Note_on_c, 0, 65, 64
2, 30420, Note_off_c, 0, 65, 64
2, 30420, Note_on_c, 0, 69, 64
2, 30480, Note_off_c, 0, 69, 64
2, 30480, Note_on_c, 0, 69, 64
2, 30600, Note_off_c, 0, 69, 64
2, 30600, Note_on_c, 0, 70, 64
2, 30720, Note_off_c, 0, 70, 64
2, 30720, Note_off_c, 0, 46, 64
2, 30720, Note_on_c, 0, 80, 64
2, 30720, Note_on_c, 0, 46, 64
2, 30780, Note_off_c, 0, 46, 64
2, 30780, Note_off_c, 0, 80, 64
2, 30780, Note_on_c, 0, 77, 64
2, 30780, Note_on_c, 0, 50, 64
2, 30810, Note_off_c, 0, 77, 64
2, 30810, Note_on_c, 0, 74, 64
2, 30840, Note_off_c, 0, 74, 64
2, 30840, Note_off_c, 0, 50, 64
2, 30840, Note_on_c, 0, 70, 64
2, 30840, Note_on_c, 0, 48, 64
2, 30900, Note_off_c, 0, 48, 64
2, 30900, Note_on_c, 0, 51, 64
2, 30960, Note_off_c, 0, 51, 64
2, 30960, Note_on_c, 0, 50, 64
2, 31020, Note_off_c, 0, 50, 64
2, 31020, Note_off_c, 0, 70, 64
2, 31020, Note_on_c, 0, 74, 64
2, 31020, Note_on_c, 0, 53, 64
2, 31050, Note_off_c, 0, 74, 64
2, 31050, Note_on_c, 0, 77, 64
2, 31080, Note_off_c, 0, 77, 64
2, 31080, Note_off_c, 0, 53, 64
2, 31080, Note_on_c, 0, 78, 64
2, 31080, Note_on_c, 0, 51, 64
2, 31110, Note_off_c, 0, 78, 64
2, 31110, Note_on_c, 0, 77, 64
2, 31140, Note_off_c, 0, 77, 64
2, 31140, Note_off_c, 0, 51, 64
2, 31140, Note_on_c, 0, 75, 64
2, 31140, Note_on_c, 0, 54, 64
2, 31200, Note_off_c, 0, 54, 64
2, 31200, Note_off_c, 0, 75, 64
2, 31200, Note_on_c, 0, 74, 64
2, 31200, Note_on_c, 0, 53, 64
2, 31260, Note_off_c, 0, 53, 64
2, 31260, Note_off_c, 0, 74, 64
2, 31260, Note_on_c, 0, 77, 64
2, 31260, Note_on_c, 0, 56, 64
2, 31290, Note_off_c, 0, 77, 64
2, 31290, Note_on_c, 0, 80, 64
2, 31320, Note_off_c, 0, 80, 64
2, 31320, Note_off_c, 0, 56, 64
2, 31320, Note_on_c, 0, 83, 64
2, 31320, Note_on_c, 0, 54, 64
2, 31380, Note_off_c, 0, 54, 64
2, 31380, Note_on_c, 0, 53, 64
2, 31440, Note_off_c, 0, 53, 64
2, 31440, Note_on_c, 0, 51, 64
2, 31500, Note_off_c, 0, 51, 64
2, 31500, Note_off_c, 0, 83, 64
2, 31500, Note_on_c, 0, 77, 64
2, 31500, Note_on_c, 0, 50, 64
2, 31530, Note_off_c, 0, 77, 64
2, 31530, Note_on_c, 0, 75, 64
2, 31560, Note_off_c, 0, 75, 64
2, 31560, Note_off_c, 0, 50, 64
2, 31560, Note_on_c, 0, 77, 64
2, 31560, Note_on_c, 0, 48, 64
2, 31590, Note_off_c, 0, 77, 64
2, 31590, Note_on_c, 0, 78, 64
2, 31620, Note_off_c, 0, 78, 64
2, 31620, Note_off_c, 0, 48, 64
2, 31620, Note_on_c, 0, 46, 64
2, 31620, Note_on_c, 0, 80, 64
2, 31680, Note_off_c, 0, 80, 64
2, 31680, Note_off_c, 0, 46, 64
2, 31680, Note_on_c, 0, 78, 64
2, 31680, Note_on_c, 0, 51, 64
2, 31740, Note_off_c, 0, 78, 64
2, 31740, Note_on_c, 0, 77, 64
2, 31800, Note_off_c, 0, 77, 64
2, 31800, Note_off_c, 0, 51, 64
2, 31800, Note_on_c, 0, 75, 64
2, 31800, Note_on_c, 0, 54, 64
2, 31860, Note_off_c, 0, 75, 64
2, 31860, Note_on_c, 0, 74, 64
2, 31920, Note_off_c, 0, 74, 64
2, 31920, Note_off_c, 0, 54, 64
2, 31920, Note_on_c, 0, 75, 64
2, 31920, Note_on_c, 0, 60, 64
2, 31980, Note_off_c, 0, 75, 64
2, 31980, Note_on_c, 0, 78, 64
2, 32040, Note_off_c, 0, 78, 64
2, 32040, Note_off_c, 0, 60, 64
2, 32040, Note_on_c, 0, 68, 64
2, 32040, Note_on_c, 0, 53, 64
2, 32100, Note_off_c, 0, 68, 64
2, 32100, Note_on_c, 0, 78, 64
2, 32160, Note_off_c, 0, 78, 64
2, 32160, Note_off_c, 0, 53, 64
2, 32160, Note_on_c, 0, 75, 64
2, 32160, Note_on_c, 0, 54, 64
2, 32220, Note_off_c, 0, 75, 64
2, 32220, Note_on_c, 0, 78, 64
2, 32280, Note_off_c, 0, 78, 64
2, 32280, Note_off_c, 0, 54, 64
2, 32280, Note_on_c, 0, 70, 64
2, 32280, Note_on_c, 0, 63, 64
2, 32340, Note_off_c, 0, 70, 64
2, 32340, Note_on_c, 0, 78, 64
2, 32400, Note_off_c, 0, 78, 64
2, 32400, Note_off_c, 0, 63, 64
2, 32400, Note_on_c, 0, 75, 64
2, 32400, Note_on_c, 0, 60, 64
2, 32460, Note_off_c, 0, 75, 64
2, 32460, Note_on_c, 0, 78, 64
2, 32520, Note_off_c, 0, 78, 64
2, 32520, Note_off_c, 0, 60, 64
2, 32520, Note_on_c, 0, 56, 64
2, 32520, Note_on_c, 0, 72, 64
2, 32580, Note_off_c, 0, 72, 64
2, 32580, Note_on_c, 0, 78, 64
2, 32640, Note_off_c, 0, 78, 64
2, 32640, Note_off_c, 0, 56, 64
2, 32640, Note_on_c, 0, 73, 64
2, 32640, Note_on_c, 0, 59, 64
2, 32700, Note_off_c, 0, 59, 64
2, 32700, Note_off_c, 0, 73, 64
2, 32700, Note_on_c, 0, 77, 64
2, 32700, Note_on_c, 0, 56, 64
2, 32730, Note_off_c, 0, 56, 64
2, 32730, Note_on_c, 0, 53, 64
2, 32760, Note_off_c, 0, 53, 64
2, 32760, Note_off_c, 0, 77, 64
2, 32760, Note_on_c, 0, 75, 64
2, 32760, Note_on_c, 0, 49, 64
2, 32820, Note_off_c, 0, 75, 64
2, 32820, Note_on_c, 0, 78, 64
2, 32880, Note_off_c, 0, 78, 64
2, 32880, Note_on_c, 0, 77, 64
2, 32940, Note_off_c, 0, 77, 64
2, 32940, Note_off_c, 0, 49, 64
2, 32940, Note_on_c, 0, 80, 64
2, 32940, Note_on_c, 0, 53, 64
2, 32970, Note_off_c, 0, 53, 64
2, 32970, Note_on_c, 0, 56, 64
2, 33000, Note_off_c, 0, 56, 64
2, 33000, Note_off_c, 0, 80, 64
2, 33000, Note_on_c, 0, 78, 64
2, 33000, Note_on_c, 0, 58, 64
2, 33030, Note_off_c, 0, 58, 64
2, 33030, Note_on_c, 0, 56, 64
2, 33060, Note_off_c, 0, 56, 64
2, 33060, Note_off_c, 0, 78, 64
2, 33060, Note_on_c, 0, 82, 64
2, 33060, Note_on_c, 0, 54, 64
2, 33120, Note_off_c, 0, 54, 64
2, 33120, Note_off_c, 0, 82, 64
2, 33120, Note_on_c, 0, 80, 64
2, 33120, Note_on_c, 0, 53, 64
2, 33180, Note_off_c, 0, 53, 64
2, 33180, Note_off_c, 0, 80, 64
2, 33180, Note_on_c, 0, 83, 64
2, 33180, Note_on_c, 0, 56, 64
2, 33210, Note_off_c, 0, 56, 64
2, 33210, Note_on_c, 0, 59, 64
2, 33240, Note_off_c, 0, 59, 64
2, 33240, Note_off_c, 0, 83, 64
2, 33240, Note_on_c, 0, 82, 64
2, 33240, Note_on_c, 0, 63, 64
2, 33300, Note_off_c, 0, 82, 64
2, 33300, Note_on_c, 0, 80, 64
2, 33360, Note_off_c, 0, 80, 64
2, 33360, Note_on_c, 0, 78, 64
2, 33420, Note_off_c, 0, 78, 64
2, 33420, Note_off_c, 0, 63, 64
2, 33420, Note_on_c, 0, 77, 64
2, 33420, Note_on_c, 0, 56, 64
2, 33450, Note_off_c, 0, 56, 64
2, 33450, Note_on_c, 0, 54, 64
2, 33480, Note_off_c, 0, 54, 64
2, 33480, Note_off_c, 0, 77, 64
2, 33480, Note_on_c, 0, 75, 64
2, 33480, Note_on_c, 0, 56, 64
2, 33510, Note_off_c, 0, 56, 64
2, 33510, Note_on_c, 0, 58, 64
2, 33540, Note_off_c, 0, 58, 64
2, 33540, Note_off_c, 0, 75, 64
2, 33540, Note_on_c, 0, 59, 64
2, 33540, Note_on_c, 0, 73, 64
2, 33600, Note_off_c, 0, 73, 64
2, 33600, Note_off_c, 0, 59, 64
2, 33600, Note_on_c, 0, 78, 64
2, 33600, Note_on_c, 0, 58, 64
2, 33660, Note_off_c, 0, 58, 64
2, 33660, Note_off_c, 0, 78, 64
2, 33660, Note_on_c, 0, 71, 64
2, 33660, Note_on_c, 0, 56, 64
2, 33720, Note_off_c, 0, 56, 64
2, 33720, Note_off_c, 0, 71, 64
2, 33720, Note_on_c, 0, 70, 64
2, 33720, Note_on_c, 0, 54, 64
2, 33780, Note_off_c, 0, 54, 64
2, 33780, Note_off_c, 0, 70, 64
2, 33780, Note_on_c, 0, 71, 64
2, 33780, Note_on_c, 0, 53, 64
2, 33840, Note_off_c, 0, 53, 64
2, 33840, Note_off_c, 0, 71, 64
2, 33840, Note_on_c, 0, 70, 64
2, 33840, Note_on_c, 0, 54, 64
2, 33900, Note_off_c, 0, 54, 64
2, 33900, Note_off_c, 0, 70, 64
2, 33900, Note_on_c, 0, 76, 64
2, 33900, Note_on_c, 0, 58, 64
2, 33960, Note_off_c, 0, 58, 64
2, 33960, Note_on_c, 0, 47, 64
2, 34020, Note_off_c, 0, 47, 64
2, 34020, Note_off_c, 0, 76, 64
2, 34020, Note_on_c, 0, 75, 64
2, 34020, Note_on_c, 0, 58, 64
2, 34080, Note_off_c, 0, 58, 64
2, 34080, Note_off_c, 0, 75, 64
2, 34080, Note_on_c, 0, 73, 64
2, 34080, Note_on_c, 0, 54, 64
2, 34140, Note_off_c, 0, 54, 64
2, 34140, Note_off_c, 0, 73, 64
2, 34140, Note_on_c, 0, 78, 64
2, 34140, Note_on_c, 0, 58, 64
2, 34200, Note_off_c, 0, 58, 64
2, 34200, Note_on_c, 0, 49, 64
2, 34260, Note_off_c, 0, 49, 64
2, 34260, Note_off_c, 0, 78, 64
2, 34260, Note_on_c, 0, 76, 64
2, 34260, Note_on_c, 0, 58, 64
2, 34320, Note_off_c, 0, 58, 64
2, 34320, Note_off_c, 0, 76, 64
2, 34320, Note_on_c, 0, 75, 64
2, 34320, Note_on_c, 0, 54, 64
2, 34380, Note_off_c, 0, 54, 64
2, 34380, Note_off_c, 0, 75, 64
2, 34380, Note_on_c, 0, 78, 64
2, 34380, Note_on_c, 0, 58, 64
2, 34440, Note_off_c, 0, 58, 64
2, 34440, Note_off_c, 0, 78, 64
2, 34440, Note_on_c, 0, 83, 64
2, 34440, Note_on_c, 0, 51, 64
2, 34500, Note_off_c, 0, 51, 64
2, 34500, Note_off_c, 0, 83, 64
2, 34500, Note_on_c, 0, 58, 64
2, 34500, Note_on_c, 0, 79, 64
2, 34560, Note_off_c, 0, 79, 64
2, 34560, Note_off_c, 0, 58, 64
2, 34560, Note_on_c, 0, 80, 64
2, 34560, Note_on_c, 0, 52, 64
2, 34620, Note_off_c, 0, 52, 64
2, 34620, Note_off_c, 0, 80, 64
2, 34620, Note_on_c, 0, 76, 64
2, 34620, Note_on_c, 0, 56, 64
2, 34680, Note_off_c, 0, 56, 64
2, 34680, Note_off_c, 0, 76, 64
2, 34680, Note_on_c, 0, 75, 64
2, 34680, Note_on_c, 0, 54, 64
2, 34740, Note_off_c, 0, 54, 64
2, 34740, Note_off_c, 0, 75, 64
2, 34740, Note_on_c, 0, 78, 64
2, 34740, Note_on_c, 0, 57, 64
2, 34800, Note_off_c, 0, 57, 64
2, 34800, Note_off_c, 0, 78, 64
2, 34800, Note_on_c, 0, 76, 64
2, 34800, Note_on_c, 0, 56, 64
2, 34860, Note_off_c, 0, 56, 64
2, 34860, Note_off_c, 0, 76, 64
2, 34860, Note_on_c, 0, 75, 64
2, 34860, Note_on_c, 0, 54, 64
2, 34920, Note_off_c, 0, 54, 64
2, 34920, Note_off_c, 0, 75, 64
2, 34920, Note_on_c, 0, 73, 64
2, 34920, Note_on_c, 0, 52, 64
2, 34980, Note_off_c, 0, 52, 64
2, 34980, Note_off_c, 0, 73, 64
2, 34980, Note_on_c, 0, 72, 64
2, 34980, Note_on_c, 0, 51, 64
2, 35040, Note_off_c, 0, 51, 64
2, 35040, Note_off_c, 0, 72, 64
2, 35040, Note_on_c, 0, 76, 64
2, 35040, Note_on_c, 0, 49, 64
2, 35100, Note_off_c, 0, 76, 64
2, 35100, Note_on_c, 0, 73, 64
2, 35160, Note_off_c, 0, 73, 64
2, 35160, Note_off_c, 0, 49, 64
2, 35160, Note_on_c, 0, 71, 64
2, 35160, Note_on_c, 0, 52, 64
2, 35220, Note_off_c, 0, 71, 64
2, 35220, Note_on_c, 0, 75, 64
2, 35280, Note_off_c, 0, 75, 64
2, 35280, Note_off_c, 0, 52, 64
2, 35280, Note_on_c, 0, 58, 76
2, 35280, Note_on_c, 0, 73, 64
2, 35310, Note_off_c, 0, 58, 64
2, 35312, Note_on_c, 0, 56, 76
2, 35340, Note_off_c, 0, 73, 64
2, 35340, Note_on_c, 0, 58, 64
2, 35340, Note_on_c, 0, 71, 64
2, 35342, Note_off_c, 0, 56, 64
2, 35400, Note_off_c, 0, 71, 64
2, 35400, Note_on_c, 0, 70, 64
2, 35460, Note_off_c, 0, 70, 64
2, 35460, Note_on_c, 0, 68, 64
2, 35520, Note_off_c, 0, 68, 64
2, 35520, Note_on_c, 0, 67, 64
2, 35580, Note_off_c, 0, 58, 64
2, 35580, Note_on_c, 0, 55, 64
2, 35640, Note_off_c, 0, 55, 64
2, 35640, Note_off_c, 0, 67, 64
2, 35640, Note_on_c, 0, 70, 64
2, 35640, Note_on_c, 0, 56, 64
2, 35700, Note_off_c, 0, 56, 64
2, 35700, Note_on_c, 0, 53, 64
2, 35760, Note_off_c, 0, 53, 64
2, 35760, Note_off_c, 0, 70, 64
2, 35760, Note_on_c, 0, 75, 76
2, 35760, Note_on_c, 0, 55, 64
2, 35790, Note_off_c, 0, 75, 64
2, 35792, Note_on_c, 0, 73, 76
2, 35820, Note_off_c, 0, 55, 64
2, 35820, Note_on_c, 0, 75, 64
2, 35820, Note_on_c, 0, 58, 64
2, 35822, Note_off_c, 0, 73, 64
2, 35880, Note_off_c, 0, 58, 64
2, 35880, Note_on_c, 0, 51, 64
2, 35940, Note_off_c, 0, 51, 64
2, 35940, Note_on_c, 0, 49, 64
2, 36000, Note_off_c, 0, 49, 64
2, 36000, Note_on_c, 0, 47, 64
2, 36060, Note_off_c, 0, 75, 64
2, 36060, Note_on_c, 0, 71, 64
2, 36120, Note_off_c, 0, 71, 64
2, 36120, Note_off_c, 0, 47, 64
2, 36120, Note_on_c, 0, 73, 64
2, 36120, Note_on_c, 0, 51, 64
2, 36180, Note_off_c, 0, 73, 64
2, 36180, Note_on_c, 0, 70, 64
2, 36240, Note_off_c, 0, 70, 64
2, 36240, Note_off_c, 0, 51, 64
2, 36240, Note_on_c, 0, 56, 76
2, 36240, Note_on_c, 0, 71, 64
2, 36270, Note_off_c, 0, 56, 64
2, 36272, Note_on_c, 0, 55, 76
2, 36300, Note_off_c, 0, 71, 64
2, 36300, Note_on_c, 0, 56, 64
2, 36300, Note_on_c, 0, 73, 64
2, 36302, Note_off_c, 0, 55, 64
2, 36360, Note_off_c, 0, 73, 64
2, 36360, Note_on_c, 0, 68, 64
2, 36420, Note_off_c, 0, 68, 64
2, 36420, Note_on_c, 0, 66, 64
2, 36480, Note_off_c, 0, 66, 64
2, 36480, Note_on_c, 0, 64, 64
2, 36540, Note_off_c, 0, 56, 64
2, 36540, Note_on_c, 0, 54, 64
2, 36600, Note_off_c, 0, 54, 64
2, 36600, Note_off_c, 0, 64, 64
2, 36600, Note_on_c, 0, 68, 64
2, 36600, Note_on_c, 0, 52, 64
2, 36660, Note_off_c, 0, 52, 64
2, 36660, Note_on_c, 0, 51, 64
2, 36720, Note_off_c, 0, 51, 64
2, 36720, Note_off_c, 0, 68, 64
2, 36720, Note_on_c, 0, 73, 76
2, 36720, Note_on_c, 0, 52, 64
2, 36750, Note_off_c, 0, 73, 64
2, 36752, Note_on_c, 0, 71, 76
2, 36780, Note_off_c, 0, 52, 64
2, 36780, Note_on_c, 0, 73, 64
2, 36780, Note_on_c, 0, 56, 64
2, 36782, Note_off_c, 0, 71, 64
2, 36840, Note_off_c, 0, 56, 64
2, 36840, Note_on_c, 0, 49, 64
2, 36900, Note_off_c, 0, 49, 64
2, 36900, Note_on_c, 0, 47, 64
2, 36960, Note_off_c, 0, 47, 64
2, 36960, Note_on_c, 0, 46, 64
2, 37020, Note_off_c, 0, 46, 64
2, 37020, Note_off_c, 0, 73, 64
2, 37020, Note_on_c, 0, 64, 64
2, 37020, Note_on_c, 0, 56, 64
2, 37080, Note_off_c, 0, 56, 64
2, 37080, Note_off_c, 0, 64, 64
2, 37080, Note_on_c, 0, 63, 64
2, 37080, Note_on_c, 0, 55, 64
2, 37140, Note_off_c, 0, 55, 64
2, 37140, Note_off_c, 0, 63, 64
2, 37140, Note_on_c, 0, 62, 64
2, 37140, Note_on_c, 0, 53, 64
2, 37200, Note_off_c, 0, 53, 64
2, 37200, Note_off_c, 0, 62, 64
2, 37200, Note_on_c, 0, 63, 64
2, 37200, Note_on_c, 0, 55, 64
2, 37260, Note_off_c, 0, 55, 64
2, 37260, Note_on_c, 0, 58, 64
2, 37320, Note_off_c, 0, 58, 64
2, 37320, Note_on_c, 0, 51, 64
2, 37380, Note_off_c, 0, 51, 64
2, 37380, Note_off_c, 0, 63, 64
2, 37380, Note_on_c, 0, 49, 64
2, 37380, Note_on_c, 0, 70, 64
2, 37440, Note_off_c, 0, 70, 64
2, 37440, Note_off_c, 0, 49, 64
2, 37440, Note_on_c, 0, 75, 64
2, 37440, Note_on_c, 0, 47, 64
2, 37500, Note_off_c, 0, 75, 64
2, 37500, Note_on_c, 0, 73, 64
2, 37530, Note_off_c, 0, 73, 64
2, 37530, Note_on_c, 0, 71, 64
2, 37560, Note_off_c, 0, 71, 64
2, 37560, Note_off_c, 0, 47, 64
2, 37560, Note_on_c, 0, 70, 64
2, 37560, Note_on_c, 0, 52, 64
2, 37590, Note_off_c, 0, 70, 64
2, 37590, Note_on_c, 0, 71, 64
2, 37620, Note_off_c, 0, 71, 64
2, 37620, Note_on_c, 0, 73, 64
2, 37680, Note_off_c, 0, 73, 64
2, 37680, Note_off_c, 0, 52, 64
2, 37680, Note_on_c, 0, 71, 64
2, 37680, Note_on_c, 0, 49, 64
2, 37740, Note_off_c, 0, 71, 64
2, 37740, Note_on_c, 0, 80, 64
2, 37800, Note_off_c, 0, 80, 64
2, 37800, Note_off_c, 0, 49, 64
2, 37800, Note_on_c, 0, 70, 64
2, 37800, Note_on_c, 0, 51, 64
2, 37860, Note_off_c, 0, 70, 64
2, 37860, Note_on_c, 0, 79, 64
2, 37920, Note_off_c, 0, 79, 64
2, 37920, Note_off_c, 0, 51, 64
2, 37920, Note_on_c, 0, 80, 64
2, 37920, Note_on_c, 0, 44, 64
2, 37980, Note_off_c, 0, 80, 64
2, 37980, Note_on_c, 0, 76, 64
2, 38040, Note_off_c, 0, 76, 64
2, 38040, Note_off_c, 0, 44, 64
2, 38040, Note_on_c, 0, 75, 64
2, 38040, Note_on_c, 0, 46, 64
2, 38100, Note_off_c, 0, 75, 64
2, 38100, Note_on_c, 0, 73, 64
2, 38160, Note_off_c, 0, 73, 64
2, 38160, Note_off_c, 0, 46, 64
2, 38160, Note_on_c, 0, 75, 64
2, 38160, Note_on_c, 0, 47, 64
2, 38220, Note_off_c, 0, 75, 64
2, 38220, Note_on_c, 0, 68, 64
2, 38280, Note_off_c, 0, 68, 64
2, 38280, Note_off_c, 0, 47, 64
2, 38280, Note_on_c, 0, 46, 64
2, 38280, Note_on_c, 0, 67, 64
2, 38340, Note_off_c, 0, 67, 64
2, 38340, Note_on_c, 0, 73, 64
2, 38400, Note_off_c, 0, 73, 64
2, 38400, Note_off_c, 0, 46, 64
2, 38400, Note_on_c, 0, 44, 64
2, 38400, Note_on_c, 0, 71, 64
2, 38460, Note_off_c, 0, 71, 64
2, 38460, Note_on_c, 0, 70, 64
2, 38520, Note_off_c, 0, 70, 64
2, 38520, Note_off_c, 0, 44, 64
2, 38520, Note_on_c, 0, 68, 64
2, 38520, Note_on_c, 0, 47, 64
2, 38580, Note_off_c, 0, 68, 64
2, 38580, Note_on_c, 0, 67, 64
2, 38640, Note_off_c, 0, 67, 64
2, 38640, Note_off_c, 0, 47, 64
2, 38640, Note_on_c, 0, 68, 64
2, 38640, Note_on_c, 0, 53, 64
2, 38700, Note_off_c, 0, 68, 64
2, 38700, Note_on_c, 0, 71, 64
2, 38760, Note_off_c, 0, 71, 64
2, 38760, Note_off_c, 0, 53, 64
2, 38760, Note_on_c, 0, 61, 64
2, 38760, Note_on_c, 0, 46, 64
2, 38820, Note_off_c, 0, 61, 64
2, 38820, Note_on_c, 0, 71, 64
2, 38880, Note_off_c, 0, 71, 64
2, 38880, Note_off_c, 0, 46, 64
2, 38880, Note_on_c, 0, 68, 64
2, 38880, Note_on_c, 0, 47, 64
2, 38940, Note_off_c, 0, 68, 64
2, 38940, Note_on_c, 0, 71, 64
2, 39000, Note_off_c, 0, 71, 64
2, 39000, Note_off_c, 0, 47, 64
2, 39000, Note_on_c, 0, 63, 64
2, 39000, Note_on_c, 0, 56, 64
2, 39060, Note_off_c, 0, 63, 64
2, 39060, Note_on_c, 0, 71, 64
2, 39120, Note_off_c, 0, 71, 64
2, 39120, Note_off_c, 0, 56, 64
2, 39120, Note_on_c, 0, 68, 64
2, 39120, Note_on_c, 0, 53, 64
2, 39180, Note_off_c, 0, 68, 64
2, 39180, Note_on_c, 0, 71, 64
2, 39240, Note_off_c, 0, 71, 64
2, 39240, Note_off_c, 0, 53, 64
2, 39240, Note_on_c, 0, 49, 64
2, 39240, Note_on_c, 0, 65, 64
2, 39300, Note_off_c, 0, 65, 64
2, 39300, Note_on_c, 0, 71, 64
2, 39360, Note_off_c, 0, 71, 64
2, 39360, Note_off_c, 0, 49, 64
2, 39360, Note_on_c, 0, 70, 64
2, 39360, Note_on_c, 0, 42, 64
2, 39420, Note_off_c, 0, 70, 64
2, 39420, Note_on_c, 0, 68, 64
2, 39480, Note_off_c, 0, 68, 64
2, 39480, Note_off_c, 0, 42, 64
2, 39480, Note_on_c, 0, 66, 64
2, 39480, Note_on_c, 0, 46, 64
2, 39540, Note_off_c, 0, 66, 64
2, 39540, Note_on_c, 0, 65, 64
2, 39600, Note_off_c, 0, 65, 64
2, 39600, Note_off_c, 0, 46, 64
2, 39600, Note_on_c, 0, 66, 64
2, 39600, Note_on_c, 0, 51, 64
2, 39660, Note_off_c, 0, 66, 64
2, 39660, Note_on_c, 0, 68, 64
2, 39720, Note_off_c, 0, 68, 64
2, 39720, Note_off_c, 0, 51, 64
2, 39720, Note_on_c, 0, 60, 64
2, 39720, Note_on_c, 0, 44, 64
2, 39780, Note_off_c, 0, 60, 64
2, 39780, Note_on_c, 0, 70, 64
2, 39840, Note_off_c, 0, 70, 64
2, 39840, Note_off_c, 0, 44, 64
2, 39840, Note_on_c, 0, 66, 64
2, 39840, Note_on_c, 0, 46, 64
2, 39900, Note_off_c, 0, 66, 64
2, 39900, Note_on_c, 0, 70, 64
2, 39960, Note_off_c, 0, 70, 64
2, 39960, Note_off_c, 0, 46, 64
2, 39960, Note_on_c, 0, 62, 64
2, 39960, Note_on_c, 0, 54, 64
2, 40020, Note_off_c, 0, 62, 64
2, 40020, Note_on_c, 0, 70, 64
2, 40080, Note_off_c, 0, 70, 64
2, 40080, Note_off_c, 0, 54, 64
2, 40080, Note_on_c, 0, 66, 64
2, 40080, Note_on_c, 0, 51, 64
2, 40140, Note_off_c, 0, 66, 64
2, 40140, Note_on_c, 0, 70, 64
2, 40200, Note_off_c, 0, 70, 64
2, 40200, Note_off_c, 0, 51, 64
2, 40200, Note_on_c, 0, 47, 64
2, 40200, Note_on_c, 0, 63, 64
2, 40260, Note_off_c, 0, 63, 64
2, 40260, Note_on_c, 0, 70, 64
2, 40320, Note_off_c, 0, 70, 64
2, 40320, Note_off_c, 0, 47, 64
2, 40320, Note_on_c, 0, 68, 64
2, 40320, Note_on_c, 0, 41, 64
2, 40380, Note_off_c, 0, 68, 64
2, 40380, Note_on_c, 0, 66, 64
2, 40440, Note_off_c, 0, 66, 64
2, 40440, Note_off_c, 0, 41, 64
2, 40440, Note_on_c, 0, 65, 64
2, 40440, Note_on_c, 0, 44, 64
2, 40500, Note_off_c, 0, 65, 64
2, 40500, Note_on_c, 0, 63, 64
2, 40560, Note_off_c, 0, 63, 64
2, 40560, Note_off_c, 0, 44, 64
2, 40560, Note_on_c, 0, 65, 64
2, 40560, Note_on_c, 0, 50, 64
2, 40620, Note_off_c, 0, 65, 64
2, 40620, Note_on_c, 0, 68, 64
2, 40680, Note_off_c, 0, 68, 64
2, 40680, Note_off_c, 0, 50, 64
2, 40680, Note_on_c, 0, 58, 64
2, 40680, Note_on_c, 0, 42, 64
2, 40740, Note_off_c, 0, 58, 64
2, 40740, Note_on_c, 0, 68, 64
2, 40800, Note_off_c, 0, 68, 64
2, 40800, Note_off_c, 0, 42, 64
2, 40800, Note_on_c, 0, 65, 64
2, 40800, Note_on_c, 0, 44, 64
2, 40860, Note_off_c, 0, 65, 64
2, 40860, Note_on_c, 0, 68, 64
2, 40920, Note_off_c, 0, 68, 64
2, 40920, Note_off_c, 0, 44, 64
2, 40920, Note_on_c, 0, 59, 64
2, 40920, Note_on_c, 0, 53, 64
2, 40980, Note_off_c, 0, 59, 64
2, 40980, Note_on_c, 0, 68, 64
2, 41040, Note_off_c, 0, 68, 64
2, 41040, Note_off_c, 0, 53, 64
2, 41040, Note_on_c, 0, 65, 64
2, 41040, Note_on_c, 0, 50, 64
2, 41100, Note_off_c, 0, 65, 64
2, 41100, Note_on_c, 0, 68, 64
2, 41160, Note_off_c, 0, 68, 64
2, 41160, Note_off_c, 0, 50, 64
2, 41160, Note_on_c, 0, 46, 64
2, 41160, Note_on_c, 0, 62, 64
2, 41220, Note_off_c, 0, 62, 64
2, 41220, Note_on_c, 0, 68, 64
2, 41280, Note_off_c, 0, 68, 64
2, 41280, Note_off_c, 0, 46, 64
2, 41280, Note_on_c, 0, 66, 64
2, 41280, Note_on_c, 0, 39, 64
2, 41340, Note_off_c, 0, 39, 64
2, 41340, Note_off_c, 0, 66, 64
2, 41340, Note_on_c, 0, 70, 64
2, 41340, Note_on_c, 0, 42, 64
2, 41400, Note_off_c, 0, 42, 64
2, 41400, Note_off_c, 0, 70, 64
2, 41400, Note_on_c, 0, 74, 64
2, 41400, Note_on_c, 0, 41, 64
2, 41460, Note_off_c, 0, 41, 64
2, 41460, Note_off_c, 0, 74, 64
2, 41460, Note_on_c, 0, 77, 64
2, 41460, Note_on_c, 0, 44, 64
2, 41520, Note_off_c, 0, 44, 64
2, 41520, Note_off_c, 0, 77, 64
2, 41520, Note_on_c, 0, 70, 64
2, 41520, Note_on_c, 0, 42, 64
2, 41580, Note_off_c, 0, 42, 64
2, 41580, Note_off_c, 0, 70, 64
2, 41580, Note_on_c, 0, 74, 64
2, 41580, Note_on_c, 0, 46, 64
2, 41640, Note_off_c, 0, 46, 64
2, 41640, Note_off_c, 0, 74, 64
2, 41640, Note_on_c, 0, 77, 64
2, 41640, Note_on_c, 0, 44, 64
2, 41700, Note_off_c, 0, 44, 64
2, 41700, Note_off_c, 0, 77, 64
2, 41700, Note_on_c, 0, 80, 64
2, 41700, Note_on_c, 0, 47, 64
2, 41760, Note_off_c, 0, 47, 64
2, 41760, Note_off_c, 0, 80, 64
2, 41760, Note_on_c, 0, 78, 64
2, 41760, Note_on_c, 0, 46, 64
2, 41790, Note_off_c, 0, 78, 64
2, 41790, Note_on_c, 0, 77, 64
2, 41820, Note_off_c, 0, 77, 64
2, 41820, Note_off_c, 0, 46, 64
2, 41820, Note_on_c, 0, 75, 64
2, 41820, Note_on_c, 0, 51, 64
2, 41880, Note_off_c, 0, 51, 64
2, 41880, Note_off_c, 0, 75, 64
2, 41880, Note_on_c, 0, 77, 64
2, 41880, Note_on_c, 0, 50, 64
2, 41940, Note_off_c, 0, 50, 64
2, 41940, Note_on_c, 0, 48, 64
2, 42000, Note_off_c, 0, 48, 64
2, 42000, Note_off_c, 0, 77, 64
2, 42000, Note_on_c, 0, 46, 64
2, 42060, Note_off_c, 0, 46, 64
2, 42060, Note_on_c, 0, 44, 64
2, 42120, Note_off_c, 0, 44, 64
2, 42120, Note_on_c, 0, 42, 64
2, 42180, Note_off_c, 0, 42, 64
2, 42180, Note_on_c, 0, 41, 64
2, 42240, Note_off_c, 0, 41, 64
2, 42240, Note_on_c, 0, 63, 64
2, 42240, Note_on_c, 0, 42, 64
2, 42300, Note_off_c, 0, 42, 64
2, 42300, Note_off_c, 0, 63, 64
2, 42300, Note_on_c, 0, 66, 64
2, 42300, Note_on_c, 0, 46, 64
2, 42360, Note_off_c, 0, 46, 64
2, 42360, Note_off_c, 0, 66, 64
2, 42360, Note_on_c, 0, 65, 64
2, 42360, Note_on_c, 0, 50, 64
2, 42420, Note_off_c, 0, 50, 64
2, 42420, Note_off_c, 0, 65, 64
2, 42420, Note_on_c, 0, 68, 64
2, 42420, Note_on_c, 0, 53, 64
2, 42480, Note_off_c, 0, 53, 64
2, 42480, Note_off_c, 0, 68, 64
2, 42480, Note_on_c, 0, 66, 64
2, 42480, Note_on_c, 0, 46, 64
2, 42540, Note_off_c, 0, 46, 64
2, 42540, Note_off_c, 0, 66, 64
2, 42540, Note_on_c, 0, 70, 64
2, 42540, Note_on_c, 0, 50, 64
2, 42600, Note_off_c, 0, 50, 64
2, 42600, Note_off_c, 0, 70, 64
2, 42600, Note_on_c, 0, 68, 64
2, 42600, Note_on_c, 0, 53, 64
2, 42660, Note_off_c, 0, 53, 64
2, 42660, Note_off_c, 0, 68, 64
2, 42660, Note_on_c, 0, 71, 64
2, 42660, Note_on_c, 0, 56, 64
2, 42720, Note_off_c, 0, 56, 64
2, 42720, Note_off_c, 0, 71, 64
2, 42720, Note_on_c, 0, 70, 64
2, 42720, Note_on_c, 0, 54, 64
2, 42750, Note_off_c, 0, 54, 64
2, 42750, Note_on_c, 0, 53, 64
2, 42780, Note_off_c, 0, 53, 64
2, 42780, Note_off_c, 0, 70, 64
2, 42780, Note_on_c, 0, 75, 64
2, 42780, Note_on_c, 0, 51, 64
2, 42840, Note_off_c, 0, 51, 64
2, 42840, Note_off_c, 0, 75, 64
2, 42840, Note_on_c, 0, 74, 64
2, 42840, Note_on_c, 0, 53, 64
2, 42900, Note_off_c, 0, 74, 64
2, 42900, Note_on_c, 0, 72, 64
2, 42960, Note_off_c, 0, 72, 64
2, 42960, Note_off_c, 0, 53, 64
2, 42960, Note_on_c, 0, 70, 64
2, 43020, Note_off_c, 0, 70, 64
2, 43020, Note_on_c, 0, 68, 64
2, 43080, Note_off_c, 0, 68, 64
2, 43080, Note_on_c, 0, 58, 64
2, 43080, Note_on_c, 0, 66, 64
2, 43140, Note_off_c, 0, 66, 64
2, 43140, Note_on_c, 0, 65, 64
2, 43200, Note_off_c, 0, 65, 64
2, 43200, Note_off_c, 0, 58, 64
2, 43200, Note_on_c, 0, 66, 64
2, 43200, Note_on_c, 0, 51, 64
2, 43260, Note_off_c, 0, 66, 64
2, 43260, Note_on_c, 0, 70, 64
2, 43320, Note_off_c, 0, 70, 64
2, 43320, Note_off_c, 0, 51, 64
2, 43320, Note_on_c, 0, 68, 64
2, 43320, Note_on_c, 0, 59, 64
2, 43380, Note_off_c, 0, 68, 64
2, 43380, Note_on_c, 0, 71, 64
2, 43440, Note_off_c, 0, 71, 64
2, 43440, Note_off_c, 0, 59, 64
2, 43440, Note_on_c, 0, 70, 64
2, 43440, Note_on_c, 0, 49, 64
2, 43500, Note_off_c, 0, 70, 64
2, 43500, Note_on_c, 0, 68, 64
2, 43560, Note_off_c, 0, 68, 64
2, 43560, Note_off_c, 0, 49, 64
2, 43560, Note_on_c, 0, 66, 64
2, 43560, Note_on_c, 0, 58, 64
2, 43620, Note_off_c, 0, 66, 64
2, 43620, Note_on_c, 0, 65, 64
2, 43680, Note_off_c, 0, 65, 64
2, 43680, Note_off_c, 0, 58, 64
2, 43680, Note_on_c, 0, 63, 64
2, 43680, Note_on_c, 0, 47, 64
2, 43740, Note_off_c, 0, 63, 64
2, 43740, Note_on_c, 0, 66, 64
2, 43800, Note_off_c, 0, 66, 64
2, 43800, Note_off_c, 0, 47, 64
2, 43800, Note_on_c, 0, 65, 64
2, 43800, Note_on_c, 0, 56, 64
2, 43860, Note_off_c, 0, 65, 64
2, 43860, Note_on_c, 0, 68, 64
2, 43920, Note_off_c, 0, 68, 64
2, 43920, Note_off_c, 0, 56, 64
2, 43920, Note_on_c, 0, 66, 64
2, 43920, Note_on_c, 0, 46, 64
2, 43980, Note_off_c, 0, 66, 64
2, 43980, Note_on_c, 0, 65, 64
2, 44040, Note_off_c, 0, 65, 64
2, 44040, Note_off_c, 0, 46, 64
2, 44040, Note_on_c, 0, 58, 64
2, 44040, Note_on_c, 0, 63, 64
2, 44100, Note_off_c, 0, 63, 64
2, 44100, Note_on_c, 0, 62, 64
2, 44160, Note_off_c, 0, 62, 64
2, 44160, Note_off_c, 0, 58, 64
2, 44160, Note_on_c, 0, 63, 64
2, 44160, Note_on_c, 0, 59, 64
2, 44220, Note_off_c, 0, 59, 64
2, 44220, Note_off_c, 0, 63, 64
2, 44220, Note_on_c, 0, 68, 64
2, 44220, Note_on_c, 0, 56, 64
2, 44280, Note_off_c, 0, 56, 64
2, 44280, Note_off_c, 0, 68, 64
2, 44280, Note_on_c, 0, 67, 64
2, 44280, Note_on_c, 0, 58, 64
2, 44340, Note_off_c, 0, 58, 64
2, 44340, Note_off_c, 0, 67, 64
2, 44340, Note_on_c, 0, 70, 64
2, 44340, Note_on_c, 0, 61, 64
2, 44400, Note_off_c, 0, 61, 64
2, 44400, Note_off_c, 0, 70, 64
2, 44400, Note_on_c, 0, 68, 64
2, 44400, Note_on_c, 0, 59, 64
2, 44460, Note_off_c, 0, 59, 64
2, 44460, Note_off_c, 0, 68, 64
2, 44460, Note_on_c, 0, 66, 64
2, 44460, Note_on_c, 0, 58, 64
2, 44520, Note_off_c, 0, 58, 64
2, 44520, Note_off_c, 0, 66, 64
2, 44520, Note_on_c, 0, 65, 64
2, 44520, Note_on_c, 0, 56, 64
2, 44580, Note_off_c, 0, 56, 64
2, 44580, Note_off_c, 0, 65, 64
2, 44580, Note_on_c, 0, 63, 64
2, 44580, Note_on_c, 0, 59, 64
2, 44640, Note_off_c, 0, 59, 64
2, 44640, Note_off_c, 0, 63, 64
2, 44640, Note_on_c, 0, 62, 64
2, 44640, Note_on_c, 0, 58, 64
2, 44700, Note_off_c, 0, 58, 64
2, 44700, Note_off_c, 0, 62, 64
2, 44700, Note_on_c, 0, 65, 64
2, 44700, Note_on_c, 0, 53, 64
2, 44760, Note_off_c, 0, 53, 64
2, 44760, Note_off_c, 0, 65, 64
2, 44760, Note_on_c, 0, 63, 64
2, 44760, Note_on_c, 0, 54, 64
2, 44820, Note_off_c, 0, 54, 64
2, 44820, Note_off_c, 0, 63, 64
2, 44820, Note_on_c, 0, 66, 64
2, 44820, Note_on_c, 0, 58, 64
2, 44880, Note_off_c, 0, 58, 64
2, 44880, Note_off_c, 0, 66, 64
2, 44880, Note_on_c, 0, 65, 64
2, 44880, Note_on_c, 0, 56, 64
2, 44940, Note_off_c, 0, 56, 64
2, 44940, Note_off_c, 0, 65, 64
2, 44940, Note_on_c, 0, 63, 64
2, 44940, Note_on_c, 0, 54, 64
2, 45000, Note_off_c, 0, 54, 64
2, 45000, Note_off_c, 0, 63, 64
2, 45000, Note_on_c, 0, 61, 64
2, 45000, Note_on_c, 0, 53, 64
2, 45060, Note_off_c, 0, 53, 64
2, 45060, Note_off_c, 0, 61, 64
2, 45060, Note_on_c, 0, 56, 64
2, 45060, Note_on_c, 0, 60, 64
2, 45120, Note_off_c, 0, 60, 64
2, 45120, Note_off_c, 0, 56, 64
2, 45120, Note_on_c, 0, 58, 64
2, 45120, Note_on_c, 0, 54, 64
2, 45180, Note_off_c, 0, 54, 64
2, 45180, Note_on_c, 0, 50, 64
2, 45240, Note_off_c, 0, 50, 64
2, 45240, Note_off_c, 0, 58, 64
2, 45240, Note_on_c, 0, 70, 64
2, 45240, Note_on_c, 0, 51, 64
2, 45300, Note_off_c, 0, 51, 64
2, 45300, Note_on_c, 0, 54, 64
2, 45360, Note_off_c, 0, 54, 64
2, 45360, Note_off_c, 0, 70, 64
2, 45360, Note_on_c, 0, 68, 64
2, 45360, Note_on_c, 0, 58, 64
2, 45420, Note_off_c, 0, 68, 64
2, 45420, Note_on_c, 0, 66, 64
2, 45480, Note_off_c, 0, 66, 64
2, 45480, Note_off_c, 0, 58, 64
2, 45480, Note_on_c, 0, 65, 64
2, 45480, Note_on_c, 0, 46, 64
2, 45540, Note_off_c, 0, 65, 64
2, 45540, Note_on_c, 0, 66, 64
2, 45600, Note_off_c, 0, 66, 64
2, 45600, Note_off_c, 0, 46, 64
2, 45600, Note_on_c, 0, 63, 64
2, 45600, Note_on_c, 0, 61, 64
2, 45660, Note_off_c, 0, 61, 64
2, 45660, Note_off_c, 0, 63, 64
2, 45660, Note_on_c, 0, 67, 64
2, 45660, Note_on_c, 0, 58, 64
2, 45690, Note_off_c, 0, 58, 64
2, 45690, Note_on_c, 0, 55, 64
2, 45720, Note_off_c, 0, 55, 64
2, 45720, Note_off_c, 0, 67, 64
2, 45720, Note_on_c, 0, 65, 64
2, 45720, Note_on_c, 0, 51, 64
2, 45780, Note_off_c, 0, 65, 64
2, 45780, Note_on_c, 0, 68, 64
2, 45840, Note_off_c, 0, 68, 64
2, 45840, Note_on_c, 0, 67, 64
2, 45900, Note_off_c, 0, 67, 64
2, 45900, Note_off_c, 0, 51, 64
2, 45900, Note_on_c, 0, 70, 64
2, 45900, Note_on_c, 0, 55, 64
2, 45930, Note_off_c, 0, 55, 64
2, 45930, Note_on_c, 0, 58, 64
2, 45960, Note_off_c, 0, 58, 64
2, 45960, Note_off_c, 0, 70, 64
2, 45960, Note_on_c, 0, 68, 64
2, 45960, Note_on_c, 0, 59, 64
2, 45990, Note_off_c, 0, 59, 64
2, 45990, Note_on_c, 0, 58, 64
2, 46020, Note_off_c, 0, 58, 64
2, 46020, Note_off_c, 0, 68, 64
2, 46020, Note_on_c, 0, 56, 64
2, 46020, Note_on_c, 0, 71, 64
2, 46080, Note_off_c, 0, 71, 64
2, 46080, Note_off_c, 0, 56, 64
2, 46080, Note_on_c, 0, 70, 64
2, 46080, Note_on_c, 0, 55, 64
2, 46140, Note_off_c, 0, 55, 64
2, 46140, Note_off_c, 0, 70, 64
2, 46140, Note_on_c, 0, 73, 64
2, 46140, Note_on_c, 0, 58, 64
2, 46170, Note_off_c, 0, 58, 64
2, 46170, Note_on_c, 0, 61, 64
2, 46200, Note_off_c, 0, 61, 64
2, 46200, Note_off_c, 0, 73, 64
2, 46200, Note_on_c, 0, 71, 64
2, 46200, Note_on_c, 0, 64, 64
2, 46260, Note_off_c, 0, 71, 64
2, 46260, Note_on_c, 0, 70, 64
2, 46320, Note_off_c, 0, 70, 64
2, 46320, Note_on_c, 0, 68, 64
2, 46380, Note_off_c, 0, 68, 64
2, 46380, Note_off_c, 0, 64, 64
2, 46380, Note_on_c, 0, 67, 64
2, 46380, Note_on_c, 0, 58, 64
2, 46410, Note_off_c, 0, 58, 64
2, 46410, Note_on_c, 0, 56, 64
2, 46440, Note_off_c, 0, 56, 64
2, 46440, Note_off_c, 0, 67, 64
2, 46440, Note_on_c, 0, 65, 64
2, 46440, Note_on_c, 0, 58, 64
2, 46470, Note_off_c, 0, 58, 64
2, 46470, Note_on_c, 0, 59, 64
2, 46500, Note_off_c, 0, 59, 64
2, 46500, Note_off_c, 0, 65, 64
2, 46500, Note_on_c, 0, 63, 64
2, 46500, Note_on_c, 0, 61, 64
2, 46560, Note_off_c, 0, 61, 64
2, 46560, Note_off_c, 0, 63, 64
2, 46560, Note_on_c, 0, 75, 64
2, 46560, Note_on_c, 0, 53, 64
2, 46620, Note_off_c, 0, 53, 64
2, 46620, Note_off_c, 0, 75, 64
2, 46620, Note_on_c, 0, 72, 64
2, 46620, Note_on_c, 0, 57, 64
2, 46650, Note_off_c, 0, 72, 64
2, 46650, Note_on_c, 0, 69, 64
2, 46680, Note_off_c, 0, 69, 64
2, 46680, Note_off_c, 0, 57, 64
2, 46680, Note_on_c, 0, 65, 64
2, 46680, Note_on_c, 0, 55, 64
2, 46740, Note_off_c, 0, 55, 64
2, 46740, Note_on_c, 0, 58, 64
2, 46800, Note_off_c, 0, 58, 64
2, 46800, Note_on_c, 0, 57, 64
2, 46860, Note_off_c, 0, 57, 64
2, 46860, Note_off_c, 0, 65, 64
2, 46860, Note_on_c, 0, 69, 64
2, 46860, Note_on_c, 0, 60, 64
2, 46890, Note_off_c, 0, 69, 64
2, 46890, Note_on_c, 0, 72, 64
2, 46920, Note_off_c, 0, 72, 64
2, 46920, Note_off_c, 0, 60, 64
2, 46920, Note_on_c, 0, 73, 64
2, 46920, Note_on_c, 0, 58, 64
2, 46950, Note_off_c, 0, 73, 64
2, 46950, Note_on_c, 0, 72, 64
2, 46980, Note_off_c, 0, 72, 64
2, 46980, Note_off_c, 0, 58, 64
2, 46980, Note_on_c, 0, 61, 64
2, 46980, Note_on_c, 0, 70, 64
2, 47040, Note_off_c, 0, 70, 64
2, 47040, Note_off_c, 0, 61, 64
2, 47040, Note_on_c, 0, 69, 64
2, 47040, Note_on_c, 0, 60, 64
2, 47100, Note_off_c, 0, 60, 64
2, 47100, Note_off_c, 0, 69, 64
2, 47100, Note_on_c, 0, 72, 64
2, 47100, Note_on_c, 0, 63, 64
2, 47130, Note_off_c, 0, 72, 64
2, 47130, Note_on_c, 0, 75, 64
2, 47160, Note_off_c, 0, 75, 64
2, 47160, Note_off_c, 0, 63, 64
2, 47160, Note_on_c, 0, 78, 64
2, 47160, Note_on_c, 0, 61, 64
2, 47220, Note_off_c, 0, 61, 64
2, 47220, Note_on_c, 0, 59, 64
2, 47280, Note_off_c, 0, 59, 64
2, 47280, Note_on_c, 0, 58, 64
2, 47340, Note_off_c, 0, 58, 64
2, 47340, Note_off_c, 0, 78, 64
2, 47340, Note_on_c, 0, 72, 64
2, 47340, Note_on_c, 0, 57, 64
2, 47370, Note_off_c, 0, 72, 64
2, 47370, Note_on_c, 0, 70, 64
2, 47400, Note_off_c, 0, 70, 64
2, 47400, Note_off_c, 0, 57, 64
2, 47400, Note_on_c, 0, 72, 64
2, 47400, Note_on_c, 0, 55, 64
2, 47430, Note_off_c, 0, 72, 64
2, 47430, Note_on_c, 0, 74, 64
2, 47460, Note_off_c, 0, 74, 64
2, 47460, Note_off_c, 0, 55, 64
2, 47460, Note_on_c, 0, 75, 64
2, 47460, Note_on_c, 0, 53, 64
2, 47520, Note_off_c, 0, 53, 64
2, 47520, Note_off_c, 0, 75, 64
2, 47520, Note_on_c, 0, 74, 64
2, 47520, Note_on_c, 0, 56, 64
2, 47580, Note_off_c, 0, 56, 64
2, 47580, Note_off_c, 0, 74, 64
2, 47580, Note_on_c, 0, 77, 64
2, 47580, Note_on_c, 0, 53, 64
2, 47610, Note_off_c, 0, 53, 64
2, 47610, Note_on_c, 0, 50, 64
2, 47640, Note_off_c, 0, 50, 64
2, 47640, Note_off_c, 0, 77, 64
2, 47640, Note_on_c, 0, 75, 64
2, 47640, Note_on_c, 0, 46, 64
2, 47700, Note_off_c, 0, 75, 64
2, 47700, Note_on_c, 0, 78, 64
2, 47760, Note_off_c, 0, 78, 64
2, 47760, Note_on_c, 0, 77, 64
2, 47820, Note_off_c, 0, 77, 64
2, 47820, Note_off_c, 0, 46, 64
2, 47820, Note_on_c, 0, 80, 64
2, 47820, Note_on_c, 0, 50, 64
2, 47850, Note_off_c, 0, 50, 64
2, 47850, Note_on_c, 0, 53, 64
2, 47880, Note_off_c, 0, 53, 64
2, 47880, Note_off_c, 0, 80, 64
2, 47880, Note_on_c, 0, 58, 64
2, 47880, Note_on_c, 0, 78, 64
2, 47940, Note_off_c, 0, 78, 64
2, 47940, Note_on_c, 0, 82, 64
2, 48000, Note_off_c, 0, 82, 64
2, 48000, Note_on_c, 0, 80, 64
2, 48060, Note_off_c, 0, 80, 64
2, 48060, Note_off_c, 0, 58, 64
2, 48060, Note_on_c, 0, 83, 64
2, 48060, Note_on_c, 0, 56, 64
2, 48090, Note_off_c, 0, 56, 64
2, 48090, Note_on_c, 0, 53, 64
2, 48120, Note_off_c, 0, 53, 64
2, 48120, Note_off_c, 0, 83, 64
2, 48120, Note_on_c, 0, 82, 64
2, 48120, Note_on_c, 0, 50, 64
2, 48180, Note_off_c, 0, 50, 64
2, 48180, Note_off_c, 0, 82, 64
2, 48180, Note_on_c, 0, 80, 64
2, 48180, Note_on_c, 0, 59, 64
2, 48240, Note_off_c, 0, 59, 64
2, 48240, Note_off_c, 0, 80, 64
2, 48240, Note_on_c, 0, 78, 64
2, 48240, Note_on_c, 0, 58, 64
2, 48300, Note_off_c, 0, 58, 64
2, 48300, Note_off_c, 0, 78, 64
2, 48300, Note_on_c, 0, 77, 64
2, 48300, Note_on_c, 0, 56, 64
2, 48330, Note_off_c, 0, 56, 64
2, 48330, Note_on_c, 0, 54, 64
2, 48360, Note_off_c, 0, 54, 64
2, 48360, Note_off_c, 0, 77, 64
2, 48360, Note_on_c, 0, 75, 64
2, 48360, Note_on_c, 0, 53, 64
2, 48390, Note_off_c, 0, 53, 64
2, 48390, Note_on_c, 0, 54, 64
2, 48420, Note_off_c, 0, 54, 64
2, 48420, Note_off_c, 0, 75, 64
2, 48420, Note_on_c, 0, 74, 64
2, 48420, Note_on_c, 0, 56, 64
2, 48480, Note_off_c, 0, 56, 64
2, 48480, Note_off_c, 0, 74, 64
2, 48480, Note_on_c, 0, 75, 64
2, 48480, Note_on_c, 0, 54, 64
2, 48540, Note_off_c, 0, 75, 64
2, 48540, Note_on_c, 0, 77, 64
2, 48570, Note_off_c, 0, 77, 64
2, 48570, Note_on_c, 0, 78, 64
2, 48600, Note_off_c, 0, 78, 64
2, 48600, Note_off_c, 0, 54, 64
2, 48600, Note_on_c, 0, 80, 64
2, 48600, Note_on_c, 0, 47, 64
2, 48630, Note_off_c, 0, 80, 64
2, 48630, Note_on_c, 0, 78, 64
2, 48660, Note_off_c, 0, 78, 64
2, 48660, Note_on_c, 0, 77, 64
2, 48720, Note_off_c, 0, 77, 64
2, 48720, Note_off_c, 0, 47, 64
2, 48720, Note_on_c, 0, 78, 64
2, 48720, Note_on_c, 0, 46, 64
2, 48780, Note_off_c, 0, 78, 64
2, 48780, Note_on_c, 0, 77, 64
2, 48810, Note_off_c, 0, 77, 64
2, 48810, Note_on_c, 0, 75, 64
2, 48840, Note_off_c, 0, 75, 64
2, 48840, Note_off_c, 0, 46, 64
2, 48840, Note_on_c, 0, 44, 64
2, 48840, Note_on_c, 0, 74, 64
2, 48870, Note_off_c, 0, 74, 64
2, 48870, Note_on_c, 0, 75, 64
2, 48900, Note_off_c, 0, 75, 64
2, 48900, Note_on_c, 0, 77, 64
2, 48960, Note_off_c, 0, 77, 64
2, 48960, Note_off_c, 0, 44, 64
2, 48960, Note_on_c, 0, 70, 64
2, 48960, Note_on_c, 0, 42, 64
2, 48990, Note_off_c, 0, 70, 64
2, 48990, Note_on_c, 0, 75, 64
2, 49020, Note_off_c, 0, 75, 64
2, 49020, Note_on_c, 0, 73, 64
2, 49050, Note_off_c, 0, 73, 64
2, 49050, Note_on_c, 0, 71, 64
2, 49080, Note_off_c, 0, 71, 64
2, 49080, Note_off_c, 0, 42, 64
2, 49080, Note_on_c, 0, 70, 64
2, 49080, Note_on_c, 0, 54, 64
2, 49140, Note_off_c, 0, 54, 64
2, 49140, Note_off_c, 0, 70, 64
2, 49140, Note_on_c, 0, 68, 64
2, 49140, Note_on_c, 0, 56, 64
2, 49200, Note_off_c, 0, 56, 64
2, 49200, Note_off_c, 0, 68, 64
2, 49200, Note_on_c, 0, 66, 64
2, 49200, Note_on_c, 0, 58, 64
2, 49260, Note_off_c, 0, 66, 64
2, 49260, Note_on_c, 0, 65, 64
2, 49290, Note_off_c, 0, 65, 64
2, 49290, Note_on_c, 0, 66, 64
2, 49320, Note_off_c, 0, 66, 64
2, 49320, Note_off_c, 0, 58, 64
2, 49320, Note_on_c, 0, 68, 64
2, 49320, Note_on_c, 0, 46, 64
2, 49350, Note_off_c, 0, 68, 64
2, 49350, Note_on_c, 0, 66, 64
2, 49380, Note_off_c, 0, 66, 64
2, 49380, Note_on_c, 0, 65, 64
2, 49440, Note_off_c, 0, 65, 64
2, 49440, Note_off_c, 0, 46, 64
2, 49440, Note_on_c, 0, 39, 64
2, 49440, Note_on_c, 0, 63, 64
2, 49500, Note_off_c, 0, 63, 64
2, 49500, Note_on_c, 0, 66, 64
2, 49560, Note_off_c, 0, 66, 64
2, 49560, Note_on_c, 0, 70, 64
2, 49620, Note_off_c, 0, 70, 64
2, 49620, Note_on_c, 0, 74, 64
2, 49680, Note_off_c, 0, 74, 64
2, 49680, Note_on_c, 0, 74, 64
2, 49800, Note_off_c, 0, 74, 64
2, 49800, Note_on_c, 0, 75, 64
2, 49920, Note_off_c, 0, 75, 64
2, 49920, Note_off_c, 0, 39, 64
2, 49920, Note_on_c, 0, 80, 64
2, 49920, Note_on_c, 0, 46, 64
2, 49980, Note_off_c, 0, 46, 64
2, 49980, Note_off_c, 0, 80, 64
2, 49980, Note_on_c, 0, 77, 64
2, 49980, Note_on_c, 0, 50, 64
2, 50010, Note_off_c, 0, 77, 64
2, 50010, Note_on_c, 0, 74, 64
2, 50040, Note_off_c, 0, 74, 64
2, 50040, Note_off_c, 0, 50, 64
2, 50040, Note_on_c, 0, 70, 64
2, 50040, Note_on_c, 0, 48, 64
2, 50100, Note_off_c, 0, 48, 64
2, 50100, Note_on_c, 0, 51, 64
2, 50160, Note_off_c, 0, 51, 64
2, 50160, Note_on_c, 0, 50, 64
2, 50220, Note_off_c, 0, 50, 64
2, 50220, Note_off_c, 0, 70, 64
2, 50220, Note_on_c, 0, 74, 64
2, 50220, Note_on_c, 0, 53, 64
2, 50250, Note_off_c, 0, 74, 64
2, 50250, Note_on_c, 0, 77, 64
2, 50280, Note_off_c, 0, 77, 64
2, 50280, Note_off_c, 0, 53, 64
2, 50280, Note_on_c, 0, 78, 64
2, 50280, Note_on_c, 0, 51, 64
2, 50310, Note_off_c, 0, 78, 64
2, 50310, Note_on_c, 0, 77, 64
2, 50340, Note_off_c, 0, 77, 64
2, 50340, Note_off_c, 0, 51, 64
2, 50340, Note_on_c, 0, 75, 64
2, 50340, Note_on_c, 0, 54, 64
2, 50400, Note_off_c, 0, 54, 64
2, 50400, Note_off_c, 0, 75, 64
2, 50400, Note_on_c, 0, 74, 64
2, 50400, Note_on_c, 0, 53, 64
2, 50460, Note_off_c, 0, 53, 64
2, 50460, Note_off_c, 0, 74, 64
2, 50460, Note_on_c, 0, 77, 64
2, 50460, Note_on_c, 0, 56, 64
2, 50490, Note_off_c, 0, 77, 64
2, 50490, Note_on_c, 0, 80, 64
2, 50520, Note_off_c, 0, 80, 64
2, 50520, Note_off_c, 0, 56, 64
2, 50520, Note_on_c, 0, 83, 64
2, 50520, Note_on_c, 0, 54, 64
2, 50580, Note_off_c, 0, 54, 64
2, 50580, Note_on_c, 0, 53, 64
2, 50640, Note_off_c, 0, 53, 64
2, 50640, Note_on_c, 0, 51, 64
2, 50700, Note_off_c, 0, 51, 64
2, 50700, Note_off_c, 0, 83, 64
2, 50700, Note_on_c, 0, 77, 64
2, 50700, Note_on_c, 0, 50, 64
2, 50730, Note_off_c, 0, 77, 64
2, 50730, Note_on_c, 0, 75, 64
2, 50760, Note_off_c, 0, 75, 64
2, 50760, Note_off_c, 0, 50, 64
2, 50760, Note_on_c, 0, 77, 64
2, 50760, Note_on_c, 0, 48, 64
2, 50790, Note_off_c, 0, 77, 64
2, 50790, Note_on_c, 0, 78, 64
2, 50820, Note_off_c, 0, 78, 64
2, 50820, Note_off_c, 0, 48, 64
2, 50820, Note_on_c, 0, 46, 64
2, 50820, Note_on_c, 0, 80, 64
2, 50880, Note_off_c, 0, 80, 64
2, 50880, Note_off_c, 0, 46, 64
2, 50880, Note_on_c, 0, 78, 64
2, 50880, Note_on_c, 0, 51, 64
2, 50940, Note_off_c, 0, 78, 64
2, 50940, Note_on_c, 0, 77, 64
2, 51000, Note_off_c, 0, 77, 64
2, 51000, Note_off_c, 0, 51, 64
2, 51000, Note_on_c, 0, 75, 64
2, 51000, Note_on_c, 0, 54, 64
2, 51060, Note_off_c, 0, 75, 64
2, 51060, Note_on_c, 0, 74, 64
2, 51120, Note_off_c, 0, 74, 64
2, 51120, Note_off_c, 0, 54, 64
2, 51120, Note_on_c, 0, 75, 64
2, 51120, Note_on_c, 0, 60, 64
2, 51180, Note_off_c, 0, 75, 64
2, 51180, Note_on_c, 0, 78, 64
2, 51240, Note_off_c, 0, 78, 64
2, 51240, Note_off_c, 0, 60, 64
2, 51240, Note_on_c, 0, 68, 64
2, 51240, Note_on_c, 0, 53, 64
2, 51300, Note_off_c, 0, 68, 64
2, 51300, Note_on_c, 0, 78, 64
2, 51360, Note_off_c, 0, 78, 64
2, 51360, Note_off_c, 0, 53, 64
2, 51360, Note_on_c, 0, 75, 64
2, 51360, Note_on_c, 0, 54, 64
2, 51420, Note_off_c, 0, 75, 64
2, 51420, Note_on_c, 0, 78, 64
2, 51480, Note_off_c, 0, 78, 64
2, 51480, Note_off_c, 0, 54, 64
2, 51480, Note_on_c, 0, 70, 64
2, 51480, Note_on_c, 0, 63, 64
2, 51540, Note_off_c, 0, 70, 64
2, 51540, Note_on_c, 0, 78, 64
2, 51600, Note_off_c, 0, 78, 64
2, 51600, Note_off_c, 0, 63, 64
2, 51600, Note_on_c, 0, 75, 64
2, 51600, Note_on_c, 0, 60, 64
2, 51660, Note_off_c, 0, 75, 64
2, 51660, Note_on_c, 0, 78, 64
2, 51720, Note_off_c, 0, 78, 64
2, 51720, Note_off_c, 0, 60, 64
2, 51720, Note_on_c, 0, 56, 64
2, 51720, Note_on_c, 0, 72, 64
2, 51780, Note_off_c, 0, 72, 64
2, 51780, Note_on_c, 0, 78, 64
2, 51840, Note_off_c, 0, 78, 64
2, 51840, Note_off_c, 0, 56, 64
2, 51840, Note_on_c, 0, 73, 64
2, 51840, Note_on_c, 0, 59, 64
2, 51900, Note_off_c, 0, 59, 64
2, 51900, Note_off_c, 0, 73, 64
2, 51900, Note_on_c, 0, 77, 64
2, 51900, Note_on_c, 0, 56, 64
2, 51930, Note_off_c, 0, 56, 64
2, 51930, Note_on_c, 0, 53, 64
2, 51960, Note_off_c, 0, 53, 64
2, 51960, Note_off_c, 0, 77, 64
2, 51960, Note_on_c, 0, 75, 64
2, 51960, Note_on_c, 0, 49, 64
2, 52020, Note_off_c, 0, 75, 64
2, 52020, Note_on_c, 0, 78, 64
2, 52080, Note_off_c, 0, 78, 64
2, 52080, Note_on_c, 0, 77, 64
2, 52140, Note_off_c, 0, 77, 64
2, 52140, Note_off_c, 0, 49, 64
2, 52140, Note_on_c, 0, 80, 64
2, 52140, Note_on_c, 0, 53, 64
2, 52170, Note_off_c, 0, 53, 64
2, 52170, Note_on_c, 0, 56, 64
2, 52200, Note_off_c, 0, 56, 64
2, 52200, Note_off_c, 0, 80, 64
2, 52200, Note_on_c, 0, 78, 64
2, 52200, Note_on_c, 0, 58, 64
2, 52230, Note_off_c, 0, 58, 64
2, 52230, Note_on_c, 0, 56, 64
2, 52260, Note_off_c, 0, 56, 64
2, 52260, Note_off_c, 0, 78, 64
2, 52260, Note_on_c, 0, 82, 64
2, 52260, Note_on_c, 0, 54, 64
2, 52320, Note_off_c, 0, 54, 64
2, 52320, Note_off_c, 0, 82, 64
2, 52320, Note_on_c, 0, 80, 64
2, 52320, Note_on_c, 0, 53, 64
2, 52380, Note_off_c, 0, 53, 64
2, 52380, Note_off_c, 0, 80, 64
2, 52380, Note_on_c, 0, 83, 64
2, 52380, Note_on_c, 0, 56, 64
2, 52410, Note_off_c, 0, 56, 64
2, 52410, Note_on_c, 0, 59, 64
2, 52440, Note_off_c, 0, 59, 64
2, 52440, Note_off_c, 0, 83, 64
2, 52440, Note_on_c, 0, 82, 64
2, 52440, Note_on_c, 0, 63, 64
2, 52500, Note_off_c, 0, 82, 64
2, 52500, Note_on_c, 0, 80, 64
2, 52560, Note_off_c, 0, 80, 64
2, 52560, Note_on_c, 0, 78, 64
2, 52620, Note_off_c, 0, 78, 64
2, 52620, Note_off_c, 0, 63, 64
2, 52620, Note_on_c, 0, 77, 64
2, 52620, Note_on_c, 0, 56, 64
2, 52650, Note_off_c, 0, 56, 64
2, 52650, Note_on_c, 0, 54, 64
2, 52680, Note_off_c, 0, 54, 64
2, 52680, Note_off_c, 0, 77, 64
2, 52680, Note_on_c, 0, 75, 64
2, 52680, Note_on_c, 0, 56, 64
2, 52710, Note_off_c, 0, 56, 64
2, 52710, Note_on_c, 0, 58, 64
2, 52740, Note_off_c, 0, 58, 64
2, 52740, Note_off_c, 0, 75, 64
2, 52740, Note_on_c, 0, 59, 64
2, 52740, Note_on_c, 0, 73, 64
2, 52800, Note_off_c, 0, 73, 64
2, 52800, Note_off_c, 0, 59, 64
2, 52800, Note_on_c, 0, 78, 64
2, 52800, Note_on_c, 0, 58, 64
2, 52860, Note_off_c, 0, 58, 64
2, 52860, Note_off_c, 0, 78, 64
2, 52860, Note_on_c, 0, 71, 64
2, 52860, Note_on_c, 0, 56, 64
2, 52920, Note_off_c, 0, 56, 64
2, 52920, Note_off_c, 0, 71, 64
2, 52920, Note_on_c, 0, 70, 64
2, 52920, Note_on_c, 0, 54, 64
2, 52980, Note_off_c, 0, 54, 64
2, 52980, Note_off_c, 0, 70, 64
2, 52980, Note_on_c, 0, 71, 64
2, 52980, Note_on_c, 0, 53, 64
2, 53040, Note_off_c, 0, 53, 64
2, 53040, Note_off_c, 0, 71, 64
2, 53040, Note_on_c, 0, 70, 64
2, 53040, Note_on_c, 0, 54, 64
2, 53100, Note_off_c, 0, 54, 64
2, 53100, Note_off_c, 0, 70, 64
2, 53100, Note_on_c, 0, 76, 64
2, 53100, Note_on_c, 0, 58, 64
2, 53160, Note_off_c, 0, 58, 64
2, 53160, Note_on_c, 0, 47, 64
2, 53220, Note_off_c, 0, 47, 64
2, 53220, Note_off_c, 0, 76, 64
2, 53220, Note_on_c, 0, 75, 64
2, 53220, Note_on_c, 0, 58, 64
2, 53280, Note_off_c, 0, 58, 64
2, 53280, Note_off_c, 0, 75, 64
2, 53280, Note_on_c, 0, 73, 64
2, 53280, Note_on_c, 0, 54, 64
2, 53340, Note_off_c, 0, 54, 64
2, 53340, Note_off_c, 0, 73, 64
2, 53340, Note_on_c, 0, 78, 64
2, 53340, Note_on_c, 0, 58, 64
2, 53400, Note_off_c, 0, 58, 64
2, 53400, Note_on_c, 0, 49, 64
2, 53460, Note_off_c, 0, 49, 64
2, 53460, Note_off_c, 0, 78, 64
2, 53460, Note_on_c, 0, 76, 64
2, 53460, Note_on_c, 0, 58, 64
2, 53520, Note_off_c, 0, 58, 64
2, 53520, Note_off_c, 0, 76, 64
2, 53520, Note_on_c, 0, 75, 64
2, 53520, Note_on_c, 0, 54, 64
2, 53580, Note_off_c, 0, 54, 64
2, 53580, Note_off_c, 0, 75, 64
2, 53580, Note_on_c, 0, 78, 64
2, 53580, Note_on_c, 0, 58, 64
2, 53640, Note_off_c, 0, 58, 64
2, 53640, Note_off_c, 0, 78, 64
2, 53640, Note_on_c, 0, 83, 64
2, 53640, Note_on_c, 0, 51, 64
2, 53700, Note_off_c, 0, 51, 64
2, 53700, Note_off_c, 0, 83, 64
2, 53700, Note_on_c, 0, 58, 64
2, 53700, Note_on_c, 0, 79, 64
2, 53760, Note_off_c, 0, 79, 64
2, 53760, Note_off_c, 0, 58, 64
2, 53760, Note_on_c, 0, 80, 64
2, 53760, Note_on_c, 0, 52, 64
2, 53820, Note_off_c, 0, 52, 64
2, 53820, Note_off_c, 0, 80, 64
2, 53820, Note_on_c, 0, 76, 64
2, 53820, Note_on_c, 0, 56, 64
2, 53880, Note_off_c, 0, 56, 64
2, 53880, Note_off_c, 0, 76, 64
2, 53880, Note_on_c, 0, 75, 64
2, 53880, Note_on_c, 0, 54, 64
2, 53940, Note_off_c, 0, 54, 64
2, 53940, Note_off_c, 0, 75, 64
2, 53940, Note_on_c, 0, 78, 64
2, 53940, Note_on_c, 0, 57, 64
2, 54000, Note_off_c, 0, 57, 64
2, 54000, Note_off_c, 0, 78, 64
2, 54000, Note_on_c, 0, 76, 64
2, 54000, Note_on_c, 0, 56, 64
2, 54060, Note_off_c, 0, 56, 64
2, 54060, Note_off_c, 0, 76, 64
2, 54060, Note_on_c, 0, 75, 64
2, 54060, Note_on_c, 0, 54, 64
2, 54120, Note_off_c, 0, 54, 64
2, 54120, Note_off_c, 0, 75, 64
2, 54120, Note_on_c, 0, 73, 64
2, 54120, Note_on_c, 0, 52, 64
2, 54180, Note_off_c, 0, 52, 64
2, 54180, Note_off_c, 0, 73, 64
2, 54180, Note_on_c, 0, 72, 64
2, 54180, Note_on_c, 0, 51, 64
2, 54240, Note_off_c, 0, 51, 64
2, 54240, Note_off_c, 0, 72, 64
2, 54240, Note_on_c, 0, 76, 64
2, 54240, Note_on_c, 0, 49, 64
2, 54300, Note_off_c, 0, 76, 64
2, 54300, Note_on_c, 0, 73, 64
2, 54360, Note_off_c, 0, 73, 64
2, 54360, Note_off_c, 0, 49, 64
2, 54360, Note_on_c, 0, 71, 64
2, 54360, Note_on_c, 0, 52, 64
2, 54420, Note_off_c, 0, 71, 64
2, 54420, Note_on_c, 0, 75, 64
2, 54480, Note_off_c, 0, 75, 64
2, 54480, Note_off_c, 0, 52, 64
2, 54480, Note_on_c, 0, 58, 76
2, 54480, Note_on_c, 0, 73, 64
2, 54510, Note_off_c, 0, 58, 64
2, 54512, Note_on_c, 0, 56, 76
2, 54540, Note_off_c, 0, 73, 64
2, 54540, Note_on_c, 0, 58, 64
2, 54540, Note_on_c, 0, 71, 64
2, 54542, Note_off_c, 0, 56, 64
2, 54600, Note_off_c, 0, 71, 64
2, 54600, Note_on_c, 0, 70, 64
2, 54660, Note_off_c, 0, 70, 64
2, 54660, Note_on_c, 0, 68, 64
2, 54720, Note_off_c, 0, 68, 64
2, 54720, Note_on_c, 0, 67, 64
2, 54780, Note_off_c, 0, 58, 64
2, 54780, Note_on_c, 0, 55, 64
2, 54840, Note_off_c, 0, 55, 64
2, 54840, Note_off_c, 0, 67, 64
2, 54840, Note_on_c, 0, 70, 64
2, 54840, Note_on_c, 0, 56, 64
2, 54900, Note_off_c, 0, 56, 64
2, 54900, Note_on_c, 0, 53, 64
2, 54960, Note_off_c, 0, 53, 64
2, 54960, Note_off_c, 0, 70, 64
2, 54960, Note_on_c, 0, 75, 76
2, 54960, Note_on_c, 0, 55, 64
2, 54990, Note_off_c, 0, 75, 64
2, 54992, Note_on_c, 0, 73, 76
2, 55020, Note_off_c, 0, 55, 64
2, 55020, Note_on_c, 0, 75, 64
2, 55020, Note_on_c, 0, 58, 64
2, 55022, Note_off_c, 0, 73, 64
2, 55080, Note_off_c, 0, 58, 64
2, 55080, Note_on_c, 0, 51, 64
2, 55140, Note_off_c, 0, 51, 64
2, 55140, Note_on_c, 0, 49, 64
2, 55200, Note_off_c, 0, 49, 64
2, 55200, Note_on_c, 0, 47, 64
2, 55260, Note_off_c, 0, 75, 64
2, 55260, Note_on_c, 0, 71, 64
2, 55320, Note_off_c, 0, 71, 64
2, 55320, Note_off_c, 0, 47, 64
2, 55320, Note_on_c, 0, 73, 64
2, 55320, Note_on_c, 0, 51, 64
2, 55380, Note_off_c, 0, 73, 64
2, 55380, Note_on_c, 0, 70, 64
2, 55440, Note_off_c, 0, 70, 64
2, 55440, Note_off_c, 0, 51, 64
2, 55440, Note_on_c, 0, 56, 76
2, 55440, Note_on_c, 0, 71, 64
2, 55470, Note_off_c, 0, 56, 64
2, 55472, Note_on_c, 0, 55, 76
2, 55500, Note_off_c, 0, 71, 64
2, 55500, Note_on_c, 0, 56, 64
2, 55500, Note_on_c, 0, 73, 64
2, 55502, Note_off_c, 0, 55, 64
2, 55560, Note_off_c, 0, 73, 64
2, 55560, Note_on_c, 0, 68, 64
2, 55620, Note_off_c, 0, 68, 64
2, 55620, Note_on_c, 0, 66, 64
2, 55680, Note_off_c, 0, 66, 64
2, 55680, Note_on_c, 0, 64, 64
2, 55740, Note_off_c, 0, 56, 64
2, 55740, Note_on_c, 0, 54, 64
2, 55800, Note_off_c, 0, 54, 64
2, 55800, Note_off_c, 0, 64, 64
2, 55800, Note_on_c, 0, 68, 64
2, 55800, Note_on_c, 0, 52, 64
2, 55860, Note_off_c, 0, 52, 64
2, 55860, Note_on_c, 0, 51, 64
2, 55920, Note_off_c, 0, 51, 64
2, 55920, Note_off_c, 0, 68, 64
2, 55920, Note_on_c, 0, 73, 76
2, 55920, Note_on_c, 0, 52, 64
2, 55950, Note_off_c, 0, 73, 64
2, 55952, Note_on_c, 0, 71, 76
2, 55980, Note_off_c, 0, 52, 64
2, 55980, Note_on_c, 0, 73, 64
2, 55980, Note_on_c, 0, 56, 64
2, 55982, Note_off_c, 0, 71, 64
2, 56040, Note_off_c, 0, 56, 64
2, 56040, Note_on_c, 0, 49, 64
2, 56100, Note_off_c, 0, 49, 64
2, 56100, Note_on_c, 0, 47, 64
2, 56160, Note_off_c, 0, 47, 64
2, 56160, Note_on_c, 0, 46, 64
2, 56220, Note_off_c, 0, 46, 64
2, 56220, Note_off_c, 0, 73, 64
2, 56220, Note_on_c, 0, 64, 64
2, 56220, Note_on_c, 0, 56, 64
2, 56280, Note_off_c, 0, 56, 64
2, 56280, Note_off_c, 0, 64, 64
2, 56280, Note_on_c, 0, 63, 64
2, 56280, Note_on_c, 0, 55, 64
2, 56340, Note_off_c, 0, 55, 64
2, 56340, Note_off_c, 0, 63, 64
2, 56340, Note_on_c, 0, 62, 64
2, 56340, Note_on_c, 0, 53, 64
2, 56400, Note_off_c, 0, 53, 64
2, 56400, Note_off_c, 0, 62, 64
2, 56400, Note_on_c, 0, 63, 64
2, 56400, Note_on_c, 0, 55, 64
2, 56460, Note_off_c, 0, 55, 64
2, 56460, Note_on_c, 0, 58, 64
2, 56520, Note_off_c, 0, 58, 64
2, 56520, Note_on_c, 0, 51, 64
2, 56580, Note_off_c, 0, 51, 64
2, 56580, Note_off_c, 0, 63, 64
2, 56580, Note_on_c, 0, 49, 64
2, 56580, Note_on_c, 0, 70, 64
2, 56640, Note_off_c, 0, 70, 64
2, 56640, Note_off_c, 0, 49, 64
2, 56640, Note_on_c, 0, 75, 64
2, 56640, Note_on_c, 0, 47, 64
2, 56700, Note_off_c, 0, 75, 64
2, 56700, Note_on_c, 0, 73, 64
2, 56730, Note_off_c, 0, 73, 64
2, 56730, Note_on_c, 0, 71, 64
2, 56760, Note_off_c, 0, 71, 64
2, 56760, Note_off_c, 0, 47, 64
2, 56760, Note_on_c, 0, 70, 64
2, 56760, Note_on_c, 0, 52, 64
2, 56790, Note_off_c, 0, 70, 64
2, 56790, Note_on_c, 0, 71, 64
2, 56820, Note_off_c, 0, 71, 64
2, 56820, Note_on_c, 0, 73, 64
2, 56880, Note_off_c, 0, 73, 64
2, 56880, Note_off_c, 0, 52, 64
2, 56880, Note_on_c, 0, 71, 64
2, 56880, Note_on_c, 0, 49, 64
2, 56940, Note_off_c, 0, 71, 64
2, 56940, Note_on_c, 0, 80, 64
2, 57000, Note_off_c, 0, 80, 64
2, 57000, Note_off_c, 0, 49, 64
2, 57000, Note_on_c, 0, 70, 64
2, 57000, Note_on_c, 0, 51, 64
2, 57060, Note_off_c, 0, 70, 64
2, 57060, Note_on_c, 0, 79, 64
2, 57120, Note_off_c, 0, 79, 64
2, 57120, Note_off_c, 0, 51, 64
2, 57120, Note_on_c, 0, 80, 64
2, 57120, Note_on_c, 0, 44, 64
2, 57180, Note_off_c, 0, 80, 64
2, 57180, Note_on_c, 0, 76, 64
2, 57240, Note_off_c, 0, 76, 64
2, 57240, Note_off_c, 0, 44, 64
2, 57240, Note_on_c, 0, 75, 64
2, 57240, Note_on_c, 0, 46, 64
2, 57300, Note_off_c, 0, 75, 64
2, 57300, Note_on_c, 0, 73, 64
2, 57360, Note_off_c, 0, 73, 64
2, 57360, Note_off_c, 0, 46, 64
2, 57360, Note_on_c, 0, 75, 64
2, 57360, Note_on_c, 0, 47, 64
2, 57420, Note_off_c, 0, 75, 64
2, 57420, Note_on_c, 0, 68, 64
2, 57480, Note_off_c, 0, 68, 64
2, 57480, Note_off_c, 0, 47, 64
2, 57480, Note_on_c, 0, 46, 64
2, 57480, Note_on_c, 0, 67, 64
2, 57540, Note_off_c, 0, 67, 64
2, 57540, Note_on_c, 0, 73, 64
2, 57600, Note_off_c, 0, 73, 64
2, 57600, Note_off_c, 0, 46, 64
2, 57600, Note_on_c, 0, 44, 64
2, 57600, Note_on_c, 0, 71, 64
2, 57660, Note_off_c, 0, 71, 64
2, 57660, Note_on_c, 0, 70, 64
2, 57720, Note_off_c, 0, 70, 64
2, 57720, Note_off_c, 0, 44, 64
2, 57720, Note_on_c, 0, 68, 64
2, 57720, Note_on_c, 0, 47, 64
2, 57780, Note_off_c, 0, 68, 64
2, 57780, Note_on_c, 0, 67, 64
2, 57840, Note_off_c, 0, 67, 64
2, 57840, Note_off_c, 0, 47, 64
2, 57840, Note_on_c, 0, 68, 64
2, 57840, Note_on_c, 0, 53, 64
2, 57900, Note_off_c, 0, 68, 64
2, 57900, Note_on_c, 0, 71, 64
2, 57960, Note_off_c, 0, 71, 64
2, 57960, Note_off_c, 0, 53, 64
2, 57960, Note_on_c, 0, 61, 64
2, 57960, Note_on_c, 0, 46, 64
2, 58020, Note_off_c, 0, 61, 64
2, 58020, Note_on_c, 0, 71, 64
2, 58080, Note_off_c, 0, 71, 64
2, 58080, Note_off_c, 0, 46, 64
2, 58080, Note_on_c, 0, 68, 64
2, 58080, Note_on_c, 0, 47, 64
2, 58140, Note_off_c, 0, 68, 64
2, 58140, Note_on_c, 0, 71, 64
2, 58200, Note_off_c, 0, 71, 64
2, 58200, Note_off_c, 0, 47, 64
2, 58200, Note_on_c, 0, 63, 64
2, 58200, Note_on_c, 0, 56, 64
2, 58260, Note_off_c, 0, 63, 64
2, 58260, Note_on_c, 0, 71, 64
2, 58320, Note_off_c, 0, 71, 64
2, 58320, Note_off_c, 0, 56, 64
2, 58320, Note_on_c, 0, 68, 64
2, 58320, Note_on_c, 0, 53, 64
2, 58380, Note_off_c, 0, 68, 64
2, 58380, Note_on_c, 0, 71, 64
2, 58440, Note_off_c, 0, 71, 64
2, 58440, Note_off_c, 0, 53, 64
2, 58440, Note_on_c, 0, 49, 64
2, 58440, Note_on_c, 0, 65, 64
2, 58500, Note_off_c, 0, 65, 64
2, 58500, Note_on_c, 0, 71, 64
2, 58560, Note_off_c, 0, 71, 64
2, 58560, Note_off_c, 0, 49, 64
2, 58560, Note_on_c, 0, 70, 64
2, 58560, Note_on_c, 0, 42, 64
2, 58620, Note_off_c, 0, 70, 64
2, 58620, Note_on_c, 0, 68, 64
2, 58680, Note_off_c, 0, 68, 64
2, 58680, Note_off_c, 0, 42, 64
2, 58680, Note_on_c, 0, 66, 64
2, 58680, Note_on_c, 0, 46, 64
2, 58740, Note_off_c, 0, 66, 64
2, 58740, Note_on_c, 0, 65, 64
2, 58800, Note_off_c, 0, 65, 64
2, 58800, Note_off_c, 0, 46, 64
2, 58800, Note_on_c, 0, 66, 64
2, 58800, Note_on_c, 0, 51, 64
2, 58860, Note_off_c, 0, 66, 64
2, 58860, Note_on_c, 0, 68, 64
2, 58920, Note_off_c, 0, 68, 64
2, 58920, Note_off_c, 0, 51, 64
2, 58920, Note_on_c, 0, 60, 64
2, 58920, Note_on_c, 0, 44, 64
2, 58980, Note_off_c, 0, 60, 64
2, 58980, Note_on_c, 0, 70, 64
2, 59040, Note_off_c, 0, 70, 64
2, 59040, Note_off_c, 0, 44, 64
2, 59040, Note_on_c, 0, 66, 64
2, 59040, Note_on_c, 0, 46, 64
2, 59100, Note_off_c, 0, 66, 64
2, 59100, Note_on_c, 0, 70, 64
2, 59160, Note_off_c, 0, 70, 64
2, 59160, Note_off_c, 0, 46, 64
2, 59160, Note_on_c, 0, 62, 64
2, 59160, Note_on_c, 0, 54, 64
2, 59220, Note_off_c, 0, 62, 64
2, 59220, Note_on_c, 0, 70, 64
2, 59280, Note_off_c, 0, 70, 64
2, 59280, Note_off_c, 0, 54, 64
2, 59280, Note_on_c, 0, 66, 64
2, 59280, Note_on_c, 0, 51, 64
2, 59340, Note_off_c, 0, 66, 64
2, 59340, Note_on_c, 0, 70, 64
2, 59400, Note_off_c, 0, 70, 64
2, 59400, Note_off_c, 0, 51, 64
2, 59400, Note_on_c, 0, 47, 64
2, 59400, Note_on_c, 0, 63, 64
2, 59460, Note_off_c, 0, 63, 64
2, 59460, Note_on_c, 0, 70, 64
2, 59520, Note_off_c, 0, 70, 64
2, 59520, Note_off_c, 0, 47, 64
2, 59520, Note_on_c, 0, 68, 64
2, 59520, Note_on_c, 0, 41, 64
2, 59580, Note_off_c, 0, 68, 64
2, 59580, Note_on_c, 0, 66, 64
2, 59640, Note_off_c, 0, 66, 64
2, 59640, Note_off_c, 0, 41, 64
2, 59640, Note_on_c, 0, 65, 64
2, 59640, Note_on_c, 0, 44, 64
2, 59700, Note_off_c, 0, 65, 64
2, 59700, Note_on_c, 0, 63, 64
2, 59760, Note_off_c, 0, 63, 64
2, 59760, Note_off_c, 0, 44, 64
2, 59760, Note_on_c, 0, 65, 64
2, 59760, Note_on_c, 0, 50, 64
2, 59820, Note_off_c, 0, 65, 64
2, 59820, Note_on_c, 0, 68, 64
2, 59880, Note_off_c, 0, 68, 64
2, 59880, Note_off_c, 0, 50, 64
2, 59880, Note_on_c, 0, 58, 64
2, 59880, Note_on_c, 0, 42, 64
2, 59940, Note_off_c, 0, 58, 64
2, 59940, Note_on_c, 0, 68, 64
2, 60000, Note_off_c, 0, 68, 64
2, 60000, Note_off_c, 0, 42, 64
2, 60000, Note_on_c, 0, 65, 64
2, 60000, Note_on_c, 0, 44, 64
2, 60060, Note_off_c, 0, 65, 64
2, 60060, Note_on_c, 0, 68, 64
2, 60120, Note_off_c, 0, 68, 64
2, 60120, Note_off_c, 0, 44, 64
2, 60120, Note_on_c, 0, 59, 64
2, 60120, Note_on_c, 0, 53, 64
2, 60180, Note_off_c, 0, 59, 64
2, 60180, Note_on_c, 0, 68, 64
2, 60240, Note_off_c, 0, 68, 64
2, 60240, Note_off_c, 0, 53, 64
2, 60240, Note_on_c, 0, 65, 64
2, 60240, Note_on_c, 0, 50, 64
2, 60300, Note_off_c, 0, 65, 64
2, 60300, Note_on_c, 0, 68, 64
2, 60360, Note_off_c, 0, 68, 64
2, 60360, Note_off_c, 0, 50, 64
2, 60360, Note_on_c, 0, 46, 64
2, 60360, Note_on_c, 0, 62, 64
2, 60420, Note_off_c, 0, 62, 64
2, 60420, Note_on_c, 0, 68, 64
2, 60480, Note_off_c, 0, 68, 64
2, 60480, Note_off_c, 0, 46, 64
2, 60480, Note_on_c, 0, 66, 64
2, 60480, Note_on_c, 0, 39, 64
2, 60540, Note_off_c, 0, 39, 64
2, 60540, Note_off_c, 0, 66, 64
2, 60540, Note_on_c, 0, 70, 64
2, 60540, Note_on_c, 0, 42, 64
2, 60600, Note_off_c, 0, 42, 64
2, 60600, Note_off_c, 0, 70, 64
2, 60600, Note_on_c, 0, 74, 64
2, 60600, Note_on_c, 0, 41, 64
2, 60660, Note_off_c, 0, 41, 64
2, 60660, Note_off_c, 0, 74, 64
2, 60660, Note_on_c, 0, 77, 64
2, 60660, Note_on_c, 0, 44, 64
2, 60720, Note_off_c, 0, 44, 64
2, 60720, Note_off_c, 0, 77, 64
2, 60720, Note_on_c, 0, 70, 64
2, 60720, Note_on_c, 0, 42, 64
2, 60780, Note_off_c, 0, 42, 64
2, 60780, Note_off_c, 0, 70, 64
2, 60780, Note_on_c, 0, 74, 64
2, 60780, Note_on_c, 0, 46, 64
2, 60840, Note_off_c, 0, 46, 64
2, 60840, Note_off_c, 0, 74, 64
2, 60840, Note_on_c, 0, 77, 64
2, 60840, Note_on_c, 0, 44, 64
2, 60900, Note_off_c, 0, 44, 64
2, 60900, Note_off_c, 0, 77, 64
2, 60900, Note_on_c, 0, 80, 64
2, 60900, Note_on_c, 0, 47, 64
2, 60960, Note_off_c, 0, 47, 64
2, 60960, Note_off_c, 0, 80, 64
2, 60960, Note_on_c, 0, 78, 64
2, 60960, Note_on_c, 0, 46, 64
2, 60990, Note_off_c, 0, 78, 64
2, 60990, Note_on_c, 0, 77, 64
2, 61020, Note_off_c, 0, 77, 64
2, 61020, Note_off_c, 0, 46, 64
2, 61020, Note_on_c, 0, 75, 64
2, 61020, Note_on_c, 0, 51, 64
2, 61080, Note_off_c, 0, 51, 64
2, 61080, Note_off_c, 0, 75, 64
2, 61080, Note_on_c, 0, 77, 64
2, 61080, Note_on_c, 0, 50, 64
2, 61140, Note_off_c, 0, 50, 64
2, 61140, Note_on_c, 0, 48, 64
2, 61200, Note_off_c, 0, 48, 64
2, 61200, Note_off_c, 0, 77, 64
2, 61200, Note_on_c, 0, 46, 64
2, 61260, Note_off_c, 0, 46, 64
2, 61260, Note_on_c, 0, 44, 64
2, 61320, Note_off_c, 0, 44, 64
2, 61320, Note_on_c, 0, 42, 64
2, 61380, Note_off_c, 0, 42, 64
2, 61380, Note_on_c, 0, 41, 64
2, 61440, Note_off_c, 0, 41, 64
2, 61440, Note_on_c, 0, 63, 64
2, 61440, Note_on_c, 0, 42, 64
2, 61500, Note_off_c, 0, 42, 64
2, 61500, Note_off_c, 0, 63, 64
2, 61500, Note_on_c, 0, 66, 64
2, 61500, Note_on_c, 0, 46, 64
2, 61560, Note_off_c, 0, 46, 64
2, 61560, Note_off_c, 0, 66, 64
2, 61560, Note_on_c, 0, 65, 64
2, 61560, Note_on_c, 0, 50, 64
2, 61620, Note_off_c, 0, 50, 64
2, 61620, Note_off_c, 0, 65, 64
2, 61620, Note_on_c, 0, 68, 64
2, 61620, Note_on_c, 0, 53, 64
2, 61680, Note_off_c, 0, 53, 64
2, 61680, Note_off_c, 0, 68, 64
2, 61680, Note_on_c, 0, 66, 64
2, 61680, Note_on_c, 0, 46, 64
2, 61740, Note_off_c, 0, 46, 64
2, 61740, Note_off_c, 0, 66, 64
2, 61740, Note_on_c, 0, 70, 64
2, 61740, Note_on_c, 0, 50, 64
2, 61800, Note_off_c, 0, 50, 64
2, 61800, Note_off_c, 0, 70, 64
2, 61800, Note_on_c, 0, 68, 64
2, 61800, Note_on_c, 0, 53, 64
2, 61860, Note_off_c, 0, 53, 64
2, 61860, Note_off_c, 0, 68, 64
2, 61860, Note_on_c, 0, 71, 64
2, 61860, Note_on_c, 0, 56, 64
2, 61920, Note_off_c, 0, 56, 64
2, 61920, Note_off_c, 0, 71, 64
2, 61920, Note_on_c, 0, 70, 64
2, 61920, Note_on_c, 0, 54, 64
2, 61950, Note_off_c, 0, 54, 64
2, 61950, Note_on_c, 0, 53, 64
2, 61980, Note_off_c, 0, 53, 64
2, 61980, Note_off_c, 0, 70, 64
2, 61980, Note_on_c, 0, 75, 64
2, 61980, Note_on_c, 0, 51, 64
2, 62040, Note_off_c, 0, 51, 64
2, 62040, Note_off_c, 0, 75, 64
2, 62040, Note_on_c, 0, 74, 64
2, 62040, Note_on_c, 0, 53, 64
2, 62100, Note_off_c, 0, 74, 64
2, 62100, Note_on_c, 0, 72, 64
2, 62160, Note_off_c, 0, 72, 64
2, 62160, Note_off_c, 0, 53, 64
2, 62160, Note_on_c, 0, 70, 64
2, 62220, Note_off_c, 0, 70, 64
2, 62220, Note_on_c, 0, 68, 64
2, 62280, Note_off_c, 0, 68, 64
2, 62280, Note_on_c, 0, 58, 64
2, 62280, Note_on_c, 0, 66, 64
2, 62340, Note_off_c, 0, 66, 64
2, 62340, Note_on_c, 0, 65, 64
2, 62400, Note_off_c, 0, 65, 64
2, 62400, Note_off_c, 0, 58, 64
2, 62400, Note_on_c, 0, 66, 64
2, 62400, Note_on_c, 0, 51, 64
2, 62460, Note_off_c, 0, 66, 64
2, 62460, Note_on_c, 0, 70, 64
2, 62520, Note_off_c, 0, 70, 64
2, 62520, Note_off_c, 0, 51, 64
2, 62520, Note_on_c, 0, 68, 64
2, 62520, Note_on_c, 0, 59, 64
2, 62580, Note_off_c, 0, 68, 64
2, 62580, Note_on_c, 0, 71, 64
2, 62640, Note_off_c, 0, 71, 64
2, 62640, Note_off_c, 0, 59, 64
2, 62640, Note_on_c, 0, 70, 64
2, 62640, Note_on_c, 0, 49, 64
2, 62700, Note_off_c, 0, 70, 64
2, 62700, Note_on_c, 0, 68, 64
2, 62760, Note_off_c, 0, 68, 64
2, 62760, Note_off_c, 0, 49, 64
2, 62760, Note_on_c, 0, 66, 64
2, 62760, Note_on_c, 0, 58, 64
2, 62820, Note_off_c, 0, 66, 64
2, 62820, Note_on_c, 0, 65, 64
2, 62880, Note_off_c, 0, 65, 64
2, 62880, Note_off_c, 0, 58, 64
2, 62880, Note_on_c, 0, 63, 64
2, 62880, Note_on_c, 0, 47, 64
2, 62940, Note_off_c, 0, 63, 64
2, 62940, Note_on_c, 0, 66, 64
2, 63000, Note_off_c, 0, 66, 64
2, 63000, Note_off_c, 0, 47, 64
2, 63000, Note_on_c, 0, 65, 64
2, 63000, Note_on_c, 0, 56, 64
2, 63060, Note_off_c, 0, 65, 64
2, 63060, Note_on_c, 0, 68, 64
2, 63120, Note_off_c, 0, 68, 64
2, 63120, Note_off_c, 0, 56, 64
2, 63120, Note_on_c, 0, 66, 64
2, 63120, Note_on_c, 0, 46, 64
2, 63180, Note_off_c, 0, 66, 64
2, 63180, Note_on_c, 0, 65, 64
2, 63240, Note_off_c, 0, 65, 64
2, 63240, Note_off_c, 0, 46, 64
2, 63240, Note_on_c, 0, 58, 64
2, 63240, Note_on_c, 0, 63, 64
2, 63300, Note_off_c, 0, 63, 64
2, 63300, Note_on_c, 0, 62, 64
2, 63360, Note_off_c, 0, 62, 64
2, 63360, Note_off_c, 0, 58, 64
2, 63360, Note_on_c, 0, 63, 64
2, 63360, Note_on_c, 0, 59, 64
2, 63420, Note_off_c, 0, 59, 64
2, 63420, Note_off_c, 0, 63, 64
2, 63420, Note_on_c, 0, 68, 64
2, 63420, Note_on_c, 0, 56, 64
2, 63480, Note_off_c, 0, 56, 64
2, 63480, Note_off_c, 0, 68, 64
2, 63480, Note_on_c, 0, 67, 64
2, 63480, Note_on_c, 0, 58, 64
2, 63540, Note_off_c, 0, 58, 64
2, 63540, Note_off_c, 0, 67, 64
2, 63540, Note_on_c, 0, 70, 64
2, 63540, Note_on_c, 0, 61, 64
2, 63600, Note_off_c, 0, 61, 64
2, 63600, Note_off_c, 0, 70, 64
2, 63600, Note_on_c, 0, 68, 64
2, 63600, Note_on_c, 0, 59, 64
2, 63660, Note_off_c, 0, 59, 64
2, 63660, Note_off_c, 0, 68, 64
2, 63660, Note_on_c, 0, 66, 64
2, 63660, Note_on_c, 0, 58, 64
2, 63720, Note_off_c, 0, 58, 64
2, 63720, Note_off_c, 0, 66, 64
2, 63720, Note_on_c, 0, 65, 64
2, 63720, Note_on_c, 0, 56, 64
2, 63780, Note_off_c, 0, 56, 64
2, 63780, Note_off_c, 0, 65, 64
2, 63780, Note_on_c, 0, 63, 64
2, 63780, Note_on_c, 0, 59, 64
2, 63840, Note_off_c, 0, 59, 64
2, 63840, Note_off_c, 0, 63, 64
2, 63840, Note_on_c, 0, 62, 64
2, 63840, Note_on_c, 0, 58, 64
2, 63900, Note_off_c, 0, 58, 64
2, 63900, Note_off_c, 0, 62, 64
2, 63900, Note_on_c, 0, 65, 64
2, 63900, Note_on_c, 0, 53, 64
2, 63960, Note_off_c, 0, 53, 64
2, 63960, Note_off_c, 0, 65, 64
2, 63960, Note_on_c, 0, 63, 64
2, 63960, Note_on_c, 0, 54, 64
2, 64020, Note_off_c, 0, 54, 64
2, 64020, Note_off_c, 0, 63, 64
2, 64020, Note_on_c, 0, 66, 64
2, 64020, Note_on_c, 0, 58, 64
2, 64080, Note_off_c, 0, 58, 64
2, 64080, Note_off_c, 0, 66, 64
2, 64080, Note_on_c, 0, 65, 64
2, 64080, Note_on_c, 0, 56, 64
2, 64140, Note_off_c, 0, 56, 64
2, 64140, Note_off_c, 0, 65, 64
2, 64140, Note_on_c, 0, 63, 64
2, 64140, Note_on_c, 0, 54, 64
2, 64200, Note_off_c, 0, 54, 64
2, 64200, Note_off_c, 0, 63, 64
2, 64200, Note_on_c, 0, 61, 64
2, 64200, Note_on_c, 0, 53, 64
2, 64260, Note_off_c, 0, 53, 64
2, 64260, Note_off_c, 0, 61, 64
2, 64260, Note_on_c, 0, 56, 64
2, 64260, Note_on_c, 0, 60, 64
2, 64320, Note_off_c, 0, 60, 64
2, 64320, Note_off_c, 0, 56, 64
2, 64320, Note_on_c, 0, 58, 64
2, 64320, Note_on_c, 0, 54, 64
2, 64380, Note_off_c, 0, 54, 64
2, 64380, Note_on_c, 0, 50, 64
2, 64440, Note_off_c, 0, 50, 64
2, 64440, Note_off_c, 0, 58, 64
2, 64440, Note_on_c, 0, 70, 64
2, 64440, Note_on_c, 0, 51, 64
2, 64500, Note_off_c, 0, 51, 64
2, 64500, Note_on_c, 0, 54, 64
2, 64560, Note_off_c, 0, 54, 64
2, 64560, Note_off_c, 0, 70, 64
2, 64560, Note_on_c, 0, 68, 64
2, 64560, Note_on_c, 0, 58, 64
2, 64620, Note_off_c, 0, 68, 64
2, 64620, Note_on_c, 0, 66, 64
2, 64680, Note_off_c, 0, 66, 64
2, 64680, Note_off_c, 0, 58, 64
2, 64680, Note_on_c, 0, 65, 64
2, 64680, Note_on_c, 0, 46, 64
2, 64740, Note_off_c, 0, 65, 64
2, 64740, Note_on_c, 0, 66, 64
2, 64800, Note_off_c, 0, 66, 64
2, 64800, Note_off_c, 0, 46, 64
2, 64800, Note_on_c, 0, 63, 64
2, 64800, Note_on_c, 0, 61, 64
2, 64860, Note_off_c, 0, 61, 64
2, 64860, Note_off_c, 0, 63, 64
2, 64860, Note_on_c, 0, 67, 64
2, 64860, Note_on_c, 0, 58, 64
2, 64890, Note_off_c, 0, 58, 64
2, 64890, Note_on_c, 0, 55, 64
2, 64920, Note_off_c, 0, 55, 64
2, 64920, Note_off_c, 0, 67, 64
2, 64920, Note_on_c, 0, 65, 64
2, 64920, Note_on_c, 0, 51, 64
2, 64980, Note_off_c, 0, 65, 64
2, 64980, Note_on_c, 0, 68, 64
2, 65040, Note_off_c, 0, 68, 64
2, 65040, Note_on_c, 0, 67, 64
2, 65100, Note_off_c, 0, 67, 64
2, 65100, Note_off_c, 0, 51, 64
2, 65100, Note_on_c, 0, 70, 64
2, 65100, Note_on_c, 0, 55, 64
2, 65130, Note_off_c, 0, 55, 64
2, 65130, Note_on_c, 0, 58, 64
2, 65160, Note_off_c, 0, 58, 64
2, 65160, Note_off_c, 0, 70, 64
2, 65160, Note_on_c, 0, 68, 64
2, 65160, Note_on_c, 0, 59, 64
2, 65190, Note_off_c, 0, 59, 64
2, 65190, Note_on_c, 0, 58, 64
2, 65220, Note_off_c, 0, 58, 64
2, 65220, Note_off_c, 0, 68, 64
2, 65220, Note_on_c, 0, 56, 64
2, 65220, Note_on_c, 0, 71, 64
2, 65280, Note_off_c, 0, 71, 64
2, 65280, Note_off_c, 0, 56, 64
2, 65280, Note_on_c, 0, 70, 64
2, 65280, Note_on_c, 0, 55, 64
2, 65340, Note_off_c, 0, 55, 64
2, 65340, Note_off_c, 0, 70, 64
2, 65340, Note_on_c, 0, 73, 64
2, 65340, Note_on_c, 0, 58, 64
2, 65370, Note_off_c, 0, 58, 64
2, 65370, Note_on_c, 0, 61, 64
2, 65400, Note_off_c, 0, 61, 64
2, 65400, Note_off_c, 0, 73, 64
2, 65400, Note_on_c, 0, 71, 64
2, 65400, Note_on_c, 0, 64, 64
2, 65460, Note_off_c, 0, 71, 64
2, 65460, Note_on_c, 0, 70, 64
2, 65520, Note_off_c, 0, 70, 64
2, 65520, Note_on_c, 0, 68, 64
2, 65580, Note_off_c, 0, 68, 64
2, 65580, Note_off_c, 0, 64, 64
2, 65580, Note_on_c, 0, 67, 64
2, 65580, Note_on_c, 0, 58, 64
2, 65610, Note_off_c, 0, 58, 64
2, 65610, Note_on_c, 0, 56, 64
2, 65640, Note_off_c, 0, 56, 64
2, 65640, Note_off_c, 0, 67, 64
2, 65640, Note_on_c, 0, 65, 64
2, 65640, Note_on_c, 0, 58, 64
2, 65670, Note_off_c, 0, 58, 64
2, 65670, Note_on_c, 0, 59, 64
2, 65700, Note_off_c, 0, 59, 64
2, 65700, Note_off_c, 0, 65, 64
2, 65700, Note_on_c, 0, 63, 64
2, 65700, Note_on_c, 0, 61, 64
2, 65760, Note_off_c, 0, 61, 64
2, 65760, Note_off_c, 0, 63, 64
2, 65760, Note_on_c, 0, 75, 64
2, 65760, Note_on_c, 0, 53, 64
2, 65820, Note_off_c, 0, 53, 64
2, 65820, Note_off_c, 0, 75, 64
2, 65820, Note_on_c, 0, 72, 64
2, 65820, Note_on_c, 0, 57, 64
2, 65850, Note_off_c, 0, 72, 64
2, 65850, Note_on_c, 0, 69, 64
2, 65880, Note_off_c, 0, 69, 64
2, 65880, Note_off_c, 0, 57, 64
2, 65880, Note_on_c, 0, 65, 64
2, 65880, Note_on_c, 0, 55, 64
2, 65940, Note_off_c, 0, 55, 64
2, 65940, Note_on_c, 0, 58, 64
2, 66000, Note_off_c, 0, 58, 64
2, 66000, Note_on_c, 0, 57, 64
2, 66060, Note_off_c, 0, 57, 64
2, 66060, Note_off_c, 0, 65, 64
2, 66060, Note_on_c, 0, 69, 64
2, 66060, Note_on_c, 0, 60, 64
2, 66090, Note_off_c, 0, 69, 64
2, 66090, Note_on_c, 0, 72, 64
2, 66120, Note_off_c, 0, 72, 64
2, 66120, Note_off_c, 0, 60, 64
2, 66120, Note_on_c, 0, 73, 64
2, 66120, Note_on_c, 0, 58, 64
2, 66150, Note_off_c, 0, 73, 64
2, 66150, Note_on_c, 0, 72, 64
2, 66180, Note_off_c, 0, 72, 64
2, 66180, Note_off_c, 0, 58, 64
2, 66180, Note_on_c, 0, 61, 64
2, 66180, Note_on_c, 0, 70, 64
2, 66240, Note_off_c, 0, 70, 64
2, 66240, Note_off_c, 0, 61, 64
2, 66240, Note_on_c, 0, 69, 64
2, 66240, Note_on_c, 0, 60, 64
2, 66300, Note_off_c, 0, 60, 64
2, 66300, Note_off_c, 0, 69, 64
2, 66300, Note_on_c, 0, 72, 64
2, 66300, Note_on_c, 0, 63, 64
2, 66330, Note_off_c, 0, 72, 64
2, 66330, Note_on_c, 0, 75, 64
2, 66360, Note_off_c, 0, 75, 64
2, 66360, Note_off_c, 0, 63, 64
2, 66360, Note_on_c, 0, 78, 64
2, 66360, Note_on_c, 0, 61, 64
2, 66420, Note_off_c, 0, 61, 64
2, 66420, Note_on_c, 0, 59, 64
2, 66480, Note_off_c, 0, 59, 64
2, 66480, Note_on_c, 0, 58, 64
2, 66540, Note_off_c, 0, 58, 64
2, 66540, Note_off_c, 0, 78, 64
2, 66540, Note_on_c, 0, 72, 64
2, 66540, Note_on_c, 0, 57, 64
2, 66570, Note_off_c, 0, 72, 64
2, 66570, Note_on_c, 0, 70, 64
2, 66600, Note_off_c, 0, 70, 64
2, 66600, Note_off_c, 0, 57, 64
2, 66600, Note_on_c, 0, 72, 64
2, 66600, Note_on_c, 0, 55, 64
2, 66630, Note_off_c, 0, 72, 64
2, 66630, Note_on_c, 0, 74, 64
2, 66660, Note_off_c, 0, 74, 64
2, 66660, Note_off_c, 0, 55, 64
2, 66660, Note_on_c, 0, 75, 64
2, 66660, Note_on_c, 0, 53, 64
2, 66720, Note_off_c, 0, 53, 64
2, 66720, Note_off_c, 0, 75, 64
2, 66720, Note_on_c, 0, 74, 64
2, 66720, Note_on_c, 0, 56, 64
2, 66780, Note_off_c, 0, 56, 64
2, 66780, Note_off_c, 0, 74, 64
2, 66780, Note_on_c, 0, 77, 64
2, 66780, Note_on_c, 0, 53, 64
2, 66810, Note_off_c, 0, 53, 64
2, 66810, Note_on_c, 0, 50, 64
2, 66840, Note_off_c, 0, 50, 64
2, 66840, Note_off_c, 0, 77, 64
2, 66840, Note_on_c, 0, 75, 64
2, 66840, Note_on_c, 0, 46, 64
2, 66900, Note_off_c, 0, 75, 64
2, 66900, Note_on_c, 0, 78, 64
2, 66960, Note_off_c, 0, 78, 64
2, 66960, Note_on_c, 0, 77, 64
2, 67020, Note_off_c, 0, 77, 64
2, 67020, Note_off_c, 0, 46, 64
2, 67020, Note_on_c, 0, 80, 64
2, 67020, Note_on_c, 0, 50, 64
2, 67050, Note_off_c, 0, 50, 64
2, 67050, Note_on_c, 0, 53, 64
2, 67080, Note_off_c, 0, 53, 64
2, 67080, Note_off_c, 0, 80, 64
2, 67080, Note_on_c, 0, 58, 64
2, 67080, Note_on_c, 0, 78, 64
2, 67140, Note_off_c, 0, 78, 64
2, 67140, Note_on_c, 0, 82, 64
2, 67200, Note_off_c, 0, 82, 64
2, 67200, Note_on_c, 0, 80, 64
2, 67260, Note_off_c, 0, 80, 64
2, 67260, Note_off_c, 0, 58, 64
2, 67260, Note_on_c, 0, 83, 64
2, 67260, Note_on_c, 0, 56, 64
2, 67290, Note_off_c, 0, 56, 64
2, 67290, Note_on_c, 0, 53, 64
2, 67320, Note_off_c, 0, 53, 64
2, 67320, Note_off_c, 0, 83, 64
2, 67320, Note_on_c, 0, 82, 64
2, 67320, Note_on_c, 0, 50, 64
2, 67380, Note_off_c, 0, 50, 64
2, 67380, Note_off_c, 0, 82, 64
2, 67380, Note_on_c, 0, 80, 64
2, 67380, Note_on_c, 0, 59, 64
2, 67440, Note_off_c, 0, 59, 64
2, 67440, Note_off_c, 0, 80, 64
2, 67440, Note_on_c, 0, 78, 64
2, 67440, Note_on_c, 0, 58, 64
2, 67500, Note_off_c, 0, 58, 64
2, 67500, Note_off_c, 0, 78, 64
2, 67500, Note_on_c, 0, 77, 64
2, 67500, Note_on_c, 0, 56, 64
2, 67530, Note_off_c, 0, 56, 64
2, 67530, Note_on_c, 0, 54, 64
2, 67560, Note_off_c, 0, 54, 64
2, 67560, Note_off_c, 0, 77, 64
2, 67560, Note_on_c, 0, 75, 64
2, 67560, Note_on_c, 0, 53, 64
2, 67590, Note_off_c, 0, 53, 64
2, 67590, Note_on_c, 0, 54, 64
2, 67620, Note_off_c, 0, 54, 64
2, 67620, Note_off_c, 0, 75, 64
2, 67620, Note_on_c, 0, 74, 64
2, 67620, Note_on_c, 0, 56, 64
2, 67680, Note_off_c, 0, 56, 64
2, 67680, Note_off_c, 0, 74, 64
2, 67680, Note_on_c, 0, 75, 64
2, 67680, Note_on_c, 0, 54, 64
2, 67740, Note_off_c, 0, 75, 64
2, 67740, Note_on_c, 0, 77, 64
2, 67770, Note_off_c, 0, 77, 64
2, 67770, Note_on_c, 0, 78, 64
2, 67800, Note_off_c, 0, 78, 64
2, 67800, Note_off_c, 0, 54, 64
2, 67800, Note_on_c, 0, 80, 64
2, 67800, Note_on_c, 0, 47, 64
2, 67830, Note_off_c, 0, 80, 64
2, 67830, Note_on_c, 0, 78, 64
2, 67860, Note_off_c, 0, 78, 64
2, 67860, Note_on_c, 0, 77, 64
2, 67920, Note_off_c, 0, 77, 64
2, 67920, Note_off_c, 0, 47, 64
2, 67920, Note_on_c, 0, 78, 64
2, 67920, Note_on_c, 0, 46, 64
2, 67980, Note_off_c, 0, 78, 64
2, 67980, Note_on_c, 0, 77, 64
2, 68010, Note_off_c, 0, 77, 64
2, 68010, Note_on_c, 0, 75, 64
2, 68040, Note_off_c, 0, 75, 64
2, 68040, Note_off_c, 0, 46, 64
2, 68040, Note_on_c, 0, 44, 64
2, 68040, Note_on_c, 0, 74, 64
2, 68070, Note_off_c, 0, 74, 64
2, 68070, Note_on_c, 0, 75, 64
2, 68100, Note_off_c, 0, 75, 64
2, 68100, Note_on_c, 0, 77, 64
2, 68160, Note_off_c, 0, 77, 64
2, 68160, Note_off_c, 0, 44, 64
2, 68160, Note_on_c, 0, 70, 64
2, 68160, Note_on_c, 0, 42, 64
2, 68190, Note_off_c, 0, 70, 64
2, 68190, Note_on_c, 0, 75, 64
2, 68220, Note_off_c, 0, 75, 64
2, 68220, Note_on_c, 0, 73, 64
2, 68250, Note_off_c, 0, 73, 64
2, 68250, Note_on_c, 0, 71, 64
2, 68280, Note_off_c, 0, 71, 64
2, 68280, Note_off_c, 0, 42, 64
2, 68280, Note_on_c, 0, 70, 64
2, 68280, Note_on_c, 0, 54, 64
2, 68340, Note_off_c, 0, 54, 64
2, 68340, Note_off_c, 0, 70, 64
2, 68340, Note_on_c, 0, 68, 64
2, 68340, Note_on_c, 0, 56, 64
2, 68400, Note_off_c, 0, 56, 64
2, 68400, Note_off_c, 0, 68, 64
2, 68400, Note_on_c, 0, 66, 64
2, 68400, Note_on_c, 0, 58, 64
2, 68460, Note_off_c, 0, 66, 64
2, 68460, Note_on_c, 0, 65, 64
2, 68490, Note_off_c, 0, 65, 64
2, 68490, Note_on_c, 0, 66, 64
2, 68520, Note_off_c, 0, 66, 64
2, 68520, Note_off_c, 0, 58, 64
2, 68520, Note_on_c, 0, 68, 64
2, 68520, Note_on_c, 0, 46, 64
2, 68550, Note_off_c, 0, 68, 64
2, 68550, Note_on_c, 0, 66, 64
2, 68580, Note_off_c, 0, 66, 64
2, 68580, Note_on_c, 0, 65, 64
2, 68640, Note_off_c, 0, 65, 64
2, 68640, Note_off_c, 0, 46, 64
2, 68640, Note_on_c, 0, 39, 64
2, 68640, Note_on_c, 0, 63, 64
2, 68700, Note_off_c, 0, 63, 64
2, 68700, Note_on_c, 0, 66, 64
2, 68760, Note_off_c, 0, 66, 64
2, 68760, Note_on_c, 0, 70, 64
2, 68820, Note_off_c, 0, 70, 64
2, 68820, Note_on_c, 0, 74, 64
2, 68880, Note_off_c, 0, 74, 64
2, 68880, Note_on_c, 0, 74, 64
2, 69000, Note_off_c, 0, 74, 64
2, 69000, Note_on_c, 0, 75, 64
2, 69120, Note_off_c, 0, 75, 64
2, 69120, Note_off_c, 0, 39, 64
2, 69120, End_track
0, 0, End_of_file
