0, 0, Header, 1, 4, 240
1, 0, Start_track
1, 0, Time_signature, 4, 2, 24, 8
1, 0, Tempo, 1111111
1, 20400, Tempo, 1153846
1, 20640, Tempo, 1200000
1, 20880, Tempo, 1250000
1, 21000, Tempo, 1333333
1, 21060, Tempo, 1500000
1, 21120, Tempo, 600000
1, 21176, Tempo, 555556
1, 37920, Tempo, 571429
1, 38040, Tempo, 588235
1, 38160, Tempo, 606061
1, 38280, Tempo, 625000
1, 38400, Tempo, 863275
1, 38456, Tempo, 886263
1, 38520, Tempo, 910894
1, 38576, Tempo, 750000
1, 38640, Tempo, 833333
1, 38704, Tempo, 923077
1, 38760, Tempo, 1052632
1, 38816, Tempo, 1276596
1, 38880, Tempo, 1538462
1, 38880, End_track
2, 0, Start_track
2, 0, Text_t, "RH Melody"
2, 0, Note_on_c, 0, 76, 68
2, 600, Note_off_c, 0, 76, 68
2, 600, Note_on_c, 0, 78, 68
2, 630, Note_off_c, 0, 78, 59
2, 630, Note_on_c, 0, 76, 68
2, 660, Note_off_c, 0, 76, 63
2, 660, Note_on_c, 0, 75, 68
2, 690, Note_off_c, 0, 75, 62
2, 690, Note_on_c, 0, 76, 68
2, 720, Note_off_c, 0, 76, 65
2, 720, Note_on_c, 0, 78, 72
2, 735, Note_on_c, 0, 76, 52
2, 737, Note_off_c, 0, 78, 43
2, 750, Note_on_c, 0, 78, 54
2, 752, Note_off_c, 0, 76, 51
2, 765, Note_on_c, 0, 76, 57
2, 767, Note_off_c, 0, 78, 51
2, 780, Note_on_c, 0, 78, 59
2, 782, Note_off_c, 0, 76, 46
2, 795, Note_on_c, 0, 76, 72
2, 797, Note_off_c, 0, 78, 53
2, 900, Note_off_c, 0, 76, 53
2, 900, Note_on_c, 0, 75, 68
2, 930, Note_off_c, 0, 75, 63
2, 930, Note_on_c, 0, 76, 68
2, 960, Note_off_c, 0, 76, 63
2, 960, Note_on_c, 0, 78, 68
2, 1980, Note_off_c, 0, 78, 73
2, 1980, Note_on_c, 0, 76, 68
2, 2040, Note_off_c, 0, 76, 63
2, 2040, Note_on_c, 0, 75, 72
2, 2100, Note_off_c, 0, 75, 68
2, 2100, Note_on_c, 0, 76, 60
2, 2140, Note_off_c, 0, 76, 63
2, 2160, Note_on_c, 0, 78, 72
2, 2220, Note_off_c, 0, 78, 68
2, 2220, Note_on_c, 0, 76, 60
2, 2260, Note_off_c, 0, 76, 62
2, 2280, Note_on_c, 0, 79, 72
2, 2340, Note_off_c, 0, 79, 72
2, 2340, Note_on_c, 0, 78, 60
2, 2380, Note_off_c, 0, 78, 55
2, 2400, Note_on_c, 0, 81, 68
2, 2670, Note_off_c, 0, 81, 59
2, 2670, Note_on_c, 0, 84, 68
2, 2700, Note_off_c, 0, 84, 48
2, 2700, Note_on_c, 0, 83, 68
2, 2730, Note_off_c, 0, 83, 59
2, 2730, Note_on_c, 0, 81, 68
2, 2760, Note_off_c, 0, 81, 53
2, 2760, Note_on_c, 0, 79, 68
2, 2820, Note_off_c, 0, 79, 65
2, 2820, Note_on_c, 0, 81, 68
2, 2850, Note_off_c, 0, 81, 58
2, 2850, Note_on_c, 0, 78, 68
2, 2880, Note_off_c, 0, 78, 53
2, 2880, Note_on_c, 0, 79, 68
2, 3480, Note_off_c, 0, 79, 62
2, 3480, Note_on_c, 0, 84, 68
2, 3540, Note_off_c, 0, 84, 37
2, 3540, Note_on_c, 0, 83, 68
2, 3600, Note_off_c, 0, 83, 57
2, 3600, Note_on_c, 0, 84, 68
2, 3720, Note_off_c, 0, 84, 46
2, 3720, Note_on_c, 0, 76, 68
2, 3840, Note_off_c, 0, 76, 40
2, 3840, Note_on_c, 0, 78, 68
2, 4440, Note_off_c, 0, 78, 69
2, 4440, Note_on_c, 0, 83, 68
2, 4590, Note_off_c, 0, 83, 70
2, 4590, Note_on_c, 0, 84, 68
2, 4620, Note_off_c, 0, 84, 46
2, 4620, Note_on_c, 0, 83, 68
2, 4650, Note_off_c, 0, 83, 68
2, 4650, Note_on_c, 0, 81, 68
2, 4680, Note_off_c, 0, 81, 51
2, 4680, Note_on_c, 0, 83, 68
2, 4710, Note_off_c, 0, 83, 66
2, 4710, Note_on_c, 0, 79, 68
2, 4740, Note_off_c, 0, 79, 66
2, 4740, Note_on_c, 0, 81, 68
2, 4770, Note_off_c, 0, 81, 55
2, 4770, Note_on_c, 0, 83, 68
2, 4800, Note_off_c, 0, 83, 73
2, 4800, Note_on_c, 0, 76, 68
2, 5340, Note_off_c, 0, 76, 53
2, 5340, Note_on_c, 0, 72, 68
2, 5400, Note_off_c, 0, 72, 65
2, 5400, Note_on_c, 0, 69, 68
2, 5460, Note_off_c, 0, 69, 48
2, 5460, Note_on_c, 0, 71, 68
2, 5520, Note_off_c, 0, 71, 59
2, 5520, Note_on_c, 0, 72, 68
2, 5580, Note_off_c, 0, 72, 61
2, 5580, Note_on_c, 0, 76, 68
2, 5640, Note_off_c, 0, 76, 25
2, 5640, Note_on_c, 0, 74, 68
2, 5700, Note_off_c, 0, 74, 51
2, 5700, Note_on_c, 0, 76, 68
2, 5730, Note_off_c, 0, 76, 40
2, 5730, Note_on_c, 0, 72, 68
2, 5760, Note_off_c, 0, 72, 70
2, 5760, Note_on_c, 0, 74, 68
2, 6360, Note_off_c, 0, 74, 66
2, 6360, Note_on_c, 0, 79, 68
2, 6510, Note_off_c, 0, 79, 53
2, 6510, Note_on_c, 0, 77, 68
2, 6540, Note_off_c, 0, 77, 70
2, 6540, Note_on_c, 0, 76, 68
2, 6570, Note_off_c, 0, 76, 52
2, 6570, Note_on_c, 0, 74, 68
2, 6600, Note_off_c, 0, 74, 58
2, 6600, Note_on_c, 0, 72, 68
2, 6660, Note_off_c, 0, 72, 74
2, 6660, Note_on_c, 0, 74, 68
2, 6690, Note_off_c, 0, 74, 72
2, 6690, Note_on_c, 0, 71, 68
2, 6720, Note_off_c, 0, 71, 66
2, 6720, Note_on_c, 0, 72, 68
2, 7260, Note_off_c, 0, 72, 70
2, 7260, Note_on_c, 0, 74, 68
2, 7320, Note_off_c, 0, 74, 58
2, 7320, Note_on_c, 0, 76, 68
2, 7380, Note_off_c, 0, 76, 50
2, 7380, Note_on_c, 0, 77, 68
2, 7440, Note_off_c, 0, 77, 57
2, 7440, Note_on_c, 0, 79, 68
2, 7500, Note_off_c, 0, 79, 66
2, 7500, Note_on_c, 0, 77, 68
2, 7560, Note_off_c, 0, 77, 66
2, 7560, Note_on_c, 0, 81, 68
2, 7620, Note_off_c, 0, 81, 44
2, 7620, Note_on_c, 0, 72, 68
2, 7670, Note_off_c, 0, 72, 53
2, 7683, Note_on_c, 0, 72, 76
2, 7698, Note_off_c, 0, 72, 76
2, 7698, Note_on_c, 0, 71, 68
2, 8273, Note_off_c, 0, 71, 59
2, 8286, Note_on_c, 0, 71, 68
2, 8406, Note_off_c, 0, 71, 72
2, 8406, Note_on_c, 0, 69, 68
2, 8436, Note_off_c, 0, 69, 66
2, 8436, Note_on_c, 0, 67, 68
2, 8466, Note_off_c, 0, 67, 45
2, 8466, Note_on_c, 0, 66, 68
2, 8526, Note_off_c, 0, 66, 40
2, 8526, Note_on_c, 0, 67, 68
2, 8556, Note_off_c, 0, 67, 51
2, 8556, Note_on_c, 0, 66, 68
2, 8586, Note_off_c, 0, 66, 55
2, 8586, Note_on_c, 0, 64, 68
2, 8646, Note_off_c, 0, 64, 43
2, 8646, Note_on_c, 0, 76, 68
2, 8796, Note_off_c, 0, 76, 52
2, 8796, Note_on_c, 0, 78, 68
2, 8826, Note_off_c, 0, 78, 58
2, 8826, Note_on_c, 0, 76, 68
2, 8856, Note_off_c, 0, 76, 49
2, 8856, Note_on_c, 0, 75, 68
2, 8886, Note_off_c, 0, 75, 47
2, 8886, Note_on_c, 0, 76, 68
2, 9066, Note_off_c, 0, 76, 28
2, 9066, Note_on_c, 0, 78, 68
2, 9116, Note_off_c, 0, 78, 51
2, 9129, Note_on_c, 0, 79, 77
2, 9144, Note_on_c, 0, 78, 40
2, 9146, Note_off_c, 0, 79, 43
2, 9159, Note_on_c, 0, 79, 40
2, 9161, Note_off_c, 0, 78, 52
2, 9174, Note_on_c, 0, 78, 40
2, 9176, Note_off_c, 0, 79, 65
2, 9189, Note_on_c, 0, 79, 40
2, 9191, Note_off_c, 0, 78, 62
2, 9204, Note_on_c, 0, 78, 40
2, 9206, Note_off_c, 0, 79, 55
2, 9219, Note_on_c, 0, 79, 40
2, 9221, Note_off_c, 0, 78, 65
2, 9234, Note_on_c, 0, 78, 40
2, 9236, Note_off_c, 0, 79, 62
2, 9249, Note_on_c, 0, 79, 40
2, 9251, Note_off_c, 0, 78, 62
2, 9264, Note_on_c, 0, 78, 40
2, 9266, Note_off_c, 0, 79, 57
2, 9279, Note_on_c, 0, 79, 40
2, 9281, Note_off_c, 0, 78, 65
2, 9294, Note_on_c, 0, 78, 40
2, 9296, Note_off_c, 0, 79, 58
2, 9309, Note_on_c, 0, 79, 40
2, 9311, Note_off_c, 0, 78, 61
2, 9324, Note_on_c, 0, 78, 40
2, 9326, Note_off_c, 0, 79, 54
2, 9339, Note_on_c, 0, 79, 40
2, 9341, Note_off_c, 0, 78, 55
2, 9354, Note_on_c, 0, 78, 40
2, 9356, Note_off_c, 0, 79, 51
2, 9369, Note_on_c, 0, 79, 40
2, 9371, Note_off_c, 0, 78, 53
2, 9384, Note_on_c, 0, 78, 56
2, 9386, Note_off_c, 0, 79, 52
2, 9399, Note_on_c, 0, 79, 49
2, 9401, Note_off_c, 0, 78, 45
2, 9414, Note_on_c, 0, 78, 51
2, 9416, Note_off_c, 0, 79, 49
2, 9429, Note_on_c, 0, 79, 53
2, 9431, Note_off_c, 0, 78, 42
2, 9444, Note_on_c, 0, 78, 54
2, 9446, Note_off_c, 0, 79, 46
2, 9459, Note_on_c, 0, 79, 56
2, 9461, Note_off_c, 0, 78, 51
2, 9474, Note_on_c, 0, 78, 58
2, 9476, Note_off_c, 0, 79, 49
2, 9504, Note_off_c, 0, 78, 47
2, 9549, Note_on_c, 0, 76, 68
2, 9579, Note_off_c, 0, 76, 62
2, 9579, Note_on_c, 0, 78, 68
2, 9609, Note_off_c, 0, 78, 62
2, 9609, Note_on_c, 0, 79, 68
2, 10149, Note_off_c, 0, 79, 47
2, 10149, Note_on_c, 0, 71, 68
2, 10209, Note_off_c, 0, 71, 69
2, 10209, Note_on_c, 0, 69, 68
2, 10269, Note_off_c, 0, 69, 63
2, 10269, Note_on_c, 0, 67, 68
2, 10389, Note_off_c, 0, 67, 39
2, 10389, Note_on_c, 0, 66, 68
2, 10419, Note_off_c, 0, 66, 43
2, 10419, Note_on_c, 0, 64, 68
2, 10449, Note_off_c, 0, 64, 40
2, 10449, Note_on_c, 0, 63, 68
2, 10509, Note_off_c, 0, 63, 47
2, 10509, Note_on_c, 0, 64, 68
2, 10569, Note_off_c, 0, 64, 52
2, 10569, Note_on_c, 0, 72, 68
2, 10719, Note_off_c, 0, 72, 70
2, 10719, Note_on_c, 0, 71, 68
2, 10749, Note_off_c, 0, 71, 68
2, 10749, Note_on_c, 0, 69, 68
2, 10779, Note_off_c, 0, 69, 40
2, 10779, Note_on_c, 0, 71, 68
2, 10809, Note_off_c, 0, 71, 65
2, 10809, Note_on_c, 0, 72, 68
2, 10839, Note_off_c, 0, 72, 69
2, 10839, Note_on_c, 0, 74, 68
2, 10869, Note_off_c, 0, 74, 65
2, 10869, Note_on_c, 0, 72, 68
2, 10899, Note_off_c, 0, 72, 59
2, 10899, Note_on_c, 0, 71, 68
2, 10929, Note_off_c, 0, 71, 61
2, 10929, Note_on_c, 0, 72, 68
2, 10989, Note_off_c, 0, 72, 61
2, 10989, Note_on_c, 0, 74, 68
2, 11049, Note_off_c, 0, 74, 62
2, 11049, Note_on_c, 0, 76, 77
2, 11064, Note_on_c, 0, 74, 40
2, 11066, Note_off_c, 0, 76, 46
2, 11079, Note_on_c, 0, 76, 40
2, 11081, Note_off_c, 0, 74, 59
2, 11094, Note_on_c, 0, 74, 40
2, 11096, Note_off_c, 0, 76, 49
2, 11109, Note_on_c, 0, 76, 40
2, 11111, Note_off_c, 0, 74, 69
2, 11124, Note_on_c, 0, 74, 40
2, 11126, Note_off_c, 0, 76, 45
2, 11139, Note_on_c, 0, 76, 40
2, 11141, Note_off_c, 0, 74, 73
2, 11154, Note_on_c, 0, 74, 40
2, 11156, Note_off_c, 0, 76, 48
2, 11169, Note_on_c, 0, 76, 40
2, 11171, Note_off_c, 0, 74, 72
2, 11184, Note_on_c, 0, 74, 40
2, 11186, Note_off_c, 0, 76, 52
2, 11199, Note_on_c, 0, 76, 40
2, 11201, Note_off_c, 0, 74, 69
2, 11214, Note_on_c, 0, 74, 40
2, 11216, Note_off_c, 0, 76, 53
2, 11229, Note_on_c, 0, 76, 40
2, 11231, Note_off_c, 0, 74, 66
2, 11244, Note_on_c, 0, 74, 40
2, 11246, Note_off_c, 0, 76, 49
2, 11259, Note_on_c, 0, 76, 40
2, 11261, Note_off_c, 0, 74, 69
2, 11274, Note_on_c, 0, 74, 48
2, 11276, Note_off_c, 0, 76, 51
2, 11289, Note_on_c, 0, 76, 49
2, 11291, Note_off_c, 0, 74, 63
2, 11304, Note_on_c, 0, 74, 51
2, 11306, Note_off_c, 0, 76, 49
2, 11319, Note_on_c, 0, 76, 52
2, 11321, Note_off_c, 0, 74, 63
2, 11334, Note_on_c, 0, 74, 54
2, 11336, Note_off_c, 0, 76, 43
2, 11349, Note_on_c, 0, 76, 55
2, 11351, Note_off_c, 0, 74, 70
2, 11364, Note_on_c, 0, 74, 56
2, 11366, Note_off_c, 0, 76, 46
2, 11379, Note_on_c, 0, 76, 58
2, 11381, Note_off_c, 0, 74, 62
2, 11394, Note_on_c, 0, 74, 59
2, 11396, Note_off_c, 0, 76, 40
2, 11424, Note_off_c, 0, 74, 57
2, 11469, Note_on_c, 0, 72, 68
2, 11499, Note_off_c, 0, 72, 76
2, 11499, Note_on_c, 0, 74, 68
2, 11529, Note_off_c, 0, 74, 65
2, 11529, Note_on_c, 0, 76, 68
2, 12129, Note_off_c, 0, 76, 47
2, 12129, Note_on_c, 0, 74, 68
2, 12189, Note_off_c, 0, 74, 62
2, 12189, Note_on_c, 0, 72, 68
2, 12249, Note_off_c, 0, 72, 66
2, 12249, Note_on_c, 0, 74, 68
2, 12309, Note_off_c, 0, 74, 63
2, 12309, Note_on_c, 0, 71, 68
2, 12369, Note_off_c, 0, 71, 80
2, 12369, Note_on_c, 0, 68, 68
2, 12429, Note_off_c, 0, 68, 70
2, 12429, Note_on_c, 0, 69, 68
2, 12489, Note_off_c, 0, 69, 69
2, 12489, Note_on_c, 0, 74, 68
2, 13029, Note_off_c, 0, 74, 73
2, 13029, Note_on_c, 0, 77, 68
2, 13089, Note_off_c, 0, 77, 58
2, 13089, Note_on_c, 0, 76, 68
2, 13149, Note_off_c, 0, 76, 51
2, 13149, Note_on_c, 0, 74, 68
2, 13199, Note_off_c, 0, 74, 50
2, 13212, Note_on_c, 0, 74, 77
2, 13227, Note_off_c, 0, 74, 54
2, 13227, Note_on_c, 0, 72, 48
2, 13242, Note_on_c, 0, 74, 49
2, 13244, Note_off_c, 0, 72, 61
2, 13257, Note_on_c, 0, 72, 50
2, 13259, Note_off_c, 0, 74, 50
2, 13272, Note_on_c, 0, 74, 52
2, 13274, Note_off_c, 0, 72, 59
2, 13287, Note_on_c, 0, 72, 53
2, 13289, Note_off_c, 0, 74, 50
2, 13302, Note_on_c, 0, 74, 54
2, 13304, Note_off_c, 0, 72, 65
2, 13317, Note_on_c, 0, 72, 55
2, 13319, Note_off_c, 0, 74, 52
2, 13332, Note_on_c, 0, 74, 56
2, 13334, Note_off_c, 0, 72, 53
2, 13347, Note_on_c, 0, 72, 57
2, 13349, Note_off_c, 0, 74, 50
2, 13362, Note_on_c, 0, 74, 58
2, 13364, Note_off_c, 0, 72, 58
2, 13377, Note_on_c, 0, 72, 59
2, 13379, Note_off_c, 0, 74, 49
2, 13392, Note_on_c, 0, 74, 68
2, 13394, Note_off_c, 0, 72, 55
2, 13422, Note_off_c, 0, 74, 59
2, 13422, Note_on_c, 0, 71, 68
2, 13452, Note_off_c, 0, 71, 52
2, 13452, Note_on_c, 0, 72, 68
2, 14712, Note_off_c, 0, 72, 65
2, 14712, Note_on_c, 0, 69, 68
2, 14772, Note_off_c, 0, 69, 54
2, 14772, Note_on_c, 0, 68, 68
2, 14832, Note_off_c, 0, 68, 66
2, 14832, Note_on_c, 0, 69, 68
2, 14892, Note_off_c, 0, 69, 69
2, 14892, Note_on_c, 0, 72, 68
2, 14952, Note_off_c, 0, 72, 68
2, 14952, Note_on_c, 0, 69, 68
2, 15012, Note_off_c, 0, 69, 59
2, 15012, Note_on_c, 0, 68, 68
2, 15072, Note_off_c, 0, 68, 65
2, 15072, Note_on_c, 0, 69, 68
2, 15132, Note_off_c, 0, 69, 61
2, 15132, Note_on_c, 0, 64, 68
2, 15192, Note_off_c, 0, 64, 29
2, 15192, Note_on_c, 0, 69, 68
2, 15252, Note_off_c, 0, 69, 54
2, 15252, Note_on_c, 0, 67, 68
2, 15312, Note_off_c, 0, 67, 50
2, 15312, Note_on_c, 0, 69, 68
2, 15372, Note_off_c, 0, 69, 61
2, 15372, Note_on_c, 0, 72, 68
2, 15972, Note_off_c, 0, 72, 69
2, 15972, Note_on_c, 0, 71, 68
2, 16092, Note_off_c, 0, 71, 58
2, 16092, Note_on_c, 0, 73, 68
2, 16212, Note_off_c, 0, 73, 61
2, 16212, Note_on_c, 0, 76, 68
2, 16272, Note_off_c, 0, 76, 46
2, 16272, Note_on_c, 0, 75, 68
2, 16332, Note_off_c, 0, 75, 51
2, 16332, Note_on_c, 0, 76, 68
2, 17412, Note_off_c, 0, 76, 54
2, 17412, Note_on_c, 0, 75, 68
2, 17472, Note_off_c, 0, 75, 35
2, 17472, Note_on_c, 0, 78, 68
2, 17532, Note_off_c, 0, 78, 1
2, 17532, Note_on_c, 0, 81, 68
2, 17592, Note_off_c, 0, 81, 62
2, 17592, Note_on_c, 0, 84, 68
2, 17652, Note_off_c, 0, 84, 40
2, 17652, Note_on_c, 0, 83, 68
2, 17712, Note_off_c, 0, 83, 52
2, 17712, Note_on_c, 0, 75, 68
2, 17772, Note_off_c, 0, 75, 49
2, 17772, Note_on_c, 0, 76, 68
2, 18522, Note_off_c, 0, 76, 43
2, 18522, Note_on_c, 0, 78, 68
2, 18552, Note_off_c, 0, 78, 62
2, 18552, Note_on_c, 0, 76, 68
2, 18582, Note_off_c, 0, 76, 49
2, 18582, Note_on_c, 0, 75, 68
2, 18612, Note_off_c, 0, 75, 55
2, 18612, Note_on_c, 0, 76, 68
2, 18642, Note_off_c, 0, 76, 59
2, 18642, Note_on_c, 0, 73, 68
2, 18672, Note_off_c, 0, 73, 52
2, 18672, Note_on_c, 0, 75, 68
2, 18722, Note_off_c, 0, 75, 64
2, 18735, Note_on_c, 0, 76, 78
2, 18750, Note_on_c, 0, 75, 40
2, 18752, Note_off_c, 0, 76, 55
2, 18765, Note_on_c, 0, 76, 40
2, 18767, Note_off_c, 0, 75, 66
2, 18780, Note_on_c, 0, 75, 40
2, 18782, Note_off_c, 0, 76, 52
2, 18795, Note_on_c, 0, 76, 40
2, 18797, Note_off_c, 0, 75, 72
2, 18810, Note_on_c, 0, 75, 40
2, 18812, Note_off_c, 0, 76, 54
2, 18825, Note_on_c, 0, 76, 40
2, 18827, Note_off_c, 0, 75, 72
2, 18840, Note_on_c, 0, 75, 40
2, 18842, Note_off_c, 0, 76, 52
2, 18855, Note_on_c, 0, 76, 40
2, 18857, Note_off_c, 0, 75, 72
2, 18870, Note_on_c, 0, 75, 40
2, 18872, Note_off_c, 0, 76, 53
2, 18885, Note_on_c, 0, 76, 40
2, 18887, Note_off_c, 0, 75, 66
2, 18900, Note_on_c, 0, 75, 40
2, 18902, Note_off_c, 0, 76, 52
2, 18915, Note_on_c, 0, 76, 40
2, 18917, Note_off_c, 0, 75, 69
2, 18930, Note_on_c, 0, 75, 40
2, 18932, Note_off_c, 0, 76, 54
2, 18945, Note_on_c, 0, 76, 40
2, 18947, Note_off_c, 0, 75, 66
2, 18960, Note_on_c, 0, 75, 48
2, 18962, Note_off_c, 0, 76, 48
2, 18975, Note_on_c, 0, 76, 49
2, 18977, Note_off_c, 0, 75, 66
2, 18990, Note_on_c, 0, 75, 51
2, 18992, Note_off_c, 0, 76, 43
2, 19005, Note_on_c, 0, 76, 52
2, 19007, Note_off_c, 0, 75, 69
2, 19020, Note_on_c, 0, 75, 54
2, 19022, Note_off_c, 0, 76, 32
2, 19035, Note_on_c, 0, 76, 55
2, 19037, Note_off_c, 0, 75, 65
2, 19050, Note_on_c, 0, 75, 56
2, 19052, Note_off_c, 0, 76, 1
2, 19090, Note_off_c, 0, 75, 62
2, 19095, Note_on_c, 0, 76, 74
2, 19205, Note_off_c, 0, 76, 57
2, 19218, Note_on_c, 0, 76, 68
2, 21198, Note_off_c, 0, 76, 55
2, 21198, Note_on_c, 0, 81, 64
2, 21258, Note_off_c, 0, 81, 52
2, 21258, Note_on_c, 0, 83, 64
2, 21318, Note_off_c, 0, 83, 61
2, 21318, Note_on_c, 0, 84, 64
2, 21378, Note_off_c, 0, 84, 69
2, 21378, Note_on_c, 0, 83, 64
2, 21438, Note_off_c, 0, 83, 68
2, 21438, Note_on_c, 0, 84, 64
2, 21498, Note_off_c, 0, 84, 63
2, 21498, Note_on_c, 0, 83, 64
2, 21558, Note_off_c, 0, 83, 65
2, 21558, Note_on_c, 0, 81, 64
2, 21618, Note_off_c, 0, 81, 59
2, 21618, Note_on_c, 0, 76, 64
2, 21678, Note_off_c, 0, 76, 40
2, 21678, Note_on_c, 0, 81, 64
2, 21738, Note_off_c, 0, 81, 61
2, 21738, Note_on_c, 0, 83, 64
2, 21798, Note_off_c, 0, 83, 69
2, 21798, Note_on_c, 0, 84, 64
2, 21858, Note_off_c, 0, 84, 55
2, 21858, Note_on_c, 0, 83, 64
2, 21918, Note_off_c, 0, 83, 68
2, 21918, Note_on_c, 0, 84, 64
2, 21978, Note_off_c, 0, 84, 58
2, 21978, Note_on_c, 0, 83, 64
2, 22038, Note_off_c, 0, 83, 62
2, 22038, Note_on_c, 0, 81, 64
2, 22098, Note_off_c, 0, 81, 47
2, 22098, Note_on_c, 0, 83, 64
2, 22158, Note_off_c, 0, 83, 61
2, 22158, Note_on_c, 0, 81, 64
2, 22218, Note_off_c, 0, 81, 69
2, 22218, Note_on_c, 0, 80, 64
2, 22278, Note_off_c, 0, 80, 69
2, 22278, Note_on_c, 0, 81, 64
2, 22338, Note_off_c, 0, 81, 50
2, 22338, Note_on_c, 0, 83, 64
2, 22398, Note_off_c, 0, 83, 57
2, 22398, Note_on_c, 0, 81, 64
2, 22458, Note_off_c, 0, 81, 57
2, 22458, Note_on_c, 0, 80, 64
2, 22518, Note_off_c, 0, 80, 68
2, 22518, Note_on_c, 0, 81, 64
2, 22578, Note_off_c, 0, 81, 63
2, 22578, Note_on_c, 0, 74, 64
2, 22698, Note_off_c, 0, 74, 49
2, 22698, Note_on_c, 0, 83, 64
2, 22878, Note_off_c, 0, 83, 55
2, 22878, Note_on_c, 0, 81, 64
2, 22938, Note_off_c, 0, 81, 62
2, 22938, Note_on_c, 0, 79, 64
2, 22998, Note_off_c, 0, 79, 69
2, 22998, Note_on_c, 0, 81, 64
2, 23058, Note_off_c, 0, 81, 54
2, 23058, Note_on_c, 0, 77, 64
2, 23118, Note_off_c, 0, 77, 47
2, 23118, Note_on_c, 0, 71, 64
2, 23178, Note_off_c, 0, 71, 45
2, 23178, Note_on_c, 0, 72, 64
2, 23238, Note_off_c, 0, 72, 76
2, 23238, Note_on_c, 0, 74, 64
2, 23298, Note_off_c, 0, 74, 66
2, 23298, Note_on_c, 0, 72, 64
2, 23358, Note_off_c, 0, 72, 74
2, 23358, Note_on_c, 0, 74, 64
2, 23418, Note_off_c, 0, 74, 63
2, 23418, Note_on_c, 0, 72, 64
2, 23478, Note_off_c, 0, 72, 70
2, 23478, Note_on_c, 0, 71, 64
2, 23538, Note_off_c, 0, 71, 61
2, 23538, Note_on_c, 0, 76, 64
2, 23598, Note_off_c, 0, 76, 57
2, 23598, Note_on_c, 0, 74, 64
2, 23658, Note_off_c, 0, 74, 68
2, 23658, Note_on_c, 0, 76, 64
2, 23718, Note_off_c, 0, 76, 54
2, 23718, Note_on_c, 0, 77, 64
2, 23778, Note_off_c, 0, 77, 73
2, 23778, Note_on_c, 0, 76, 64
2, 23838, Note_off_c, 0, 76, 52
2, 23838, Note_on_c, 0, 77, 64
2, 23898, Note_off_c, 0, 77, 74
2, 23898, Note_on_c, 0, 76, 64
2, 23958, Note_off_c, 0, 76, 52
2, 23958, Note_on_c, 0, 74, 64
2, 24018, Note_off_c, 0, 74, 52
2, 24018, Note_on_c, 0, 72, 64
2, 24078, Note_off_c, 0, 72, 73
2, 24078, Note_on_c, 0, 68, 64
2, 24138, Note_off_c, 0, 68, 49
2, 24138, Note_on_c, 0, 69, 64
2, 24198, Note_off_c, 0, 69, 61
2, 24198, Note_on_c, 0, 71, 64
2, 24258, Note_off_c, 0, 71, 65
2, 24258, Note_on_c, 0, 69, 64
2, 24318, Note_off_c, 0, 69, 76
2, 24318, Note_on_c, 0, 68, 64
2, 24378, Note_off_c, 0, 68, 73
2, 24378, Note_on_c, 0, 69, 64
2, 24438, Note_off_c, 0, 69, 55
2, 24438, Note_on_c, 0, 71, 64
2, 24498, Note_off_c, 0, 71, 74
2, 24498, Note_on_c, 0, 72, 64
2, 24558, Note_off_c, 0, 72, 76
2, 24558, Note_on_c, 0, 81, 64
2, 24618, Note_off_c, 0, 81, 53
2, 24618, Note_on_c, 0, 79, 64
2, 24678, Note_off_c, 0, 79, 54
2, 24678, Note_on_c, 0, 77, 64
2, 24738, Note_off_c, 0, 77, 63
2, 24738, Note_on_c, 0, 76, 64
2, 24798, Note_off_c, 0, 76, 39
2, 24798, Note_on_c, 0, 77, 64
2, 24858, Note_off_c, 0, 77, 62
2, 24858, Note_on_c, 0, 76, 64
2, 24918, Note_off_c, 0, 76, 49
2, 24918, Note_on_c, 0, 74, 64
2, 24978, Note_off_c, 0, 74, 74
2, 24978, Note_on_c, 0, 73, 64
2, 25038, Note_off_c, 0, 73, 52
2, 25038, Note_on_c, 0, 76, 64
2, 25098, Note_off_c, 0, 76, 45
2, 25098, Note_on_c, 0, 78, 64
2, 25158, Note_off_c, 0, 78, 51
2, 25158, Note_on_c, 0, 79, 64
2, 25218, Note_off_c, 0, 79, 49
2, 25218, Note_on_c, 0, 78, 64
2, 25278, Note_off_c, 0, 78, 66
2, 25278, Note_on_c, 0, 79, 64
2, 25338, Note_off_c, 0, 79, 52
2, 25338, Note_on_c, 0, 78, 64
2, 25398, Note_off_c, 0, 78, 51
2, 25398, Note_on_c, 0, 76, 64
2, 25458, Note_off_c, 0, 76, 54
2, 25458, Note_on_c, 0, 75, 64
2, 25518, Note_off_c, 0, 75, 49
2, 25518, Note_on_c, 0, 78, 64
2, 25578, Note_off_c, 0, 78, 65
2, 25578, Note_on_c, 0, 79, 64
2, 25638, Note_off_c, 0, 79, 55
2, 25638, Note_on_c, 0, 81, 64
2, 25698, Note_off_c, 0, 81, 54
2, 25698, Note_on_c, 0, 79, 64
2, 25758, Note_off_c, 0, 79, 66
2, 25758, Note_on_c, 0, 81, 64
2, 25818, Note_off_c, 0, 81, 61
2, 25818, Note_on_c, 0, 79, 64
2, 25878, Note_off_c, 0, 79, 50
2, 25878, Note_on_c, 0, 78, 64
2, 25938, Note_off_c, 0, 78, 52
2, 25938, Note_on_c, 0, 79, 64
2, 25998, Note_off_c, 0, 79, 51
2, 25998, Note_on_c, 0, 67, 64
2, 26058, Note_off_c, 0, 67, 43
2, 26058, Note_on_c, 0, 69, 64
2, 26118, Note_off_c, 0, 69, 53
2, 26118, Note_on_c, 0, 71, 64
2, 26178, Note_off_c, 0, 71, 65
2, 26178, Note_on_c, 0, 69, 64
2, 26238, Note_off_c, 0, 69, 58
2, 26238, Note_on_c, 0, 71, 64
2, 26298, Note_off_c, 0, 71, 63
2, 26298, Note_on_c, 0, 69, 64
2, 26358, Note_off_c, 0, 69, 66
2, 26358, Note_on_c, 0, 67, 64
2, 26418, Note_off_c, 0, 67, 39
2, 26418, Note_on_c, 0, 77, 64
2, 26478, Note_off_c, 0, 77, 52
2, 26478, Note_on_c, 0, 68, 64
2, 26538, Note_off_c, 0, 68, 53
2, 26538, Note_on_c, 0, 69, 64
2, 26598, Note_off_c, 0, 69, 57
2, 26598, Note_on_c, 0, 71, 64
2, 26658, Note_off_c, 0, 71, 65
2, 26658, Note_on_c, 0, 69, 64
2, 26718, Note_off_c, 0, 69, 52
2, 26718, Note_on_c, 0, 71, 64
2, 26778, Note_off_c, 0, 71, 59
2, 26778, Note_on_c, 0, 69, 64
2, 26838, Note_off_c, 0, 69, 52
2, 26838, Note_on_c, 0, 68, 64
2, 26898, Note_off_c, 0, 68, 53
2, 26898, Note_on_c, 0, 76, 64
2, 26958, Note_off_c, 0, 76, 38
2, 26958, Note_on_c, 0, 69, 64
2, 27018, Note_off_c, 0, 69, 51
2, 27018, Note_on_c, 0, 71, 64
2, 27078, Note_off_c, 0, 71, 61
2, 27078, Note_on_c, 0, 72, 64
2, 27138, Note_off_c, 0, 72, 69
2, 27138, Note_on_c, 0, 71, 64
2, 27198, Note_off_c, 0, 71, 57
2, 27198, Note_on_c, 0, 72, 64
2, 27258, Note_off_c, 0, 72, 68
2, 27258, Note_on_c, 0, 71, 64
2, 27318, Note_off_c, 0, 71, 58
2, 27318, Note_on_c, 0, 69, 64
2, 27378, Note_off_c, 0, 69, 46
2, 27378, Note_on_c, 0, 74, 64
2, 27438, Note_off_c, 0, 74, 58
2, 27438, Note_on_c, 0, 71, 64
2, 27498, Note_off_c, 0, 71, 59
2, 27498, Note_on_c, 0, 72, 64
2, 27558, Note_off_c, 0, 72, 69
2, 27558, Note_on_c, 0, 74, 64
2, 27618, Note_off_c, 0, 74, 65
2, 27618, Note_on_c, 0, 72, 64
2, 27678, Note_off_c, 0, 72, 69
2, 27678, Note_on_c, 0, 74, 64
2, 27738, Note_off_c, 0, 74, 54
2, 27738, Note_on_c, 0, 72, 64
2, 27798, Note_off_c, 0, 72, 72
2, 27798, Note_on_c, 0, 71, 64
2, 27858, Note_off_c, 0, 71, 55
2, 27858, Note_on_c, 0, 72, 64
2, 27918, Note_off_c, 0, 72, 68
2, 27918, Note_on_c, 0, 69, 64
2, 27978, Note_off_c, 0, 69, 58
2, 27978, Note_on_c, 0, 68, 64
2, 28038, Note_off_c, 0, 68, 68
2, 28038, Note_on_c, 0, 69, 64
2, 28098, Note_off_c, 0, 69, 65
2, 28098, Note_on_c, 0, 64, 64
2, 28158, Note_off_c, 0, 64, 30
2, 28158, Note_on_c, 0, 69, 64
2, 28218, Note_off_c, 0, 69, 68
2, 28218, Note_on_c, 0, 68, 64
2, 28278, Note_off_c, 0, 68, 55
2, 28278, Note_on_c, 0, 69, 64
2, 28338, Note_off_c, 0, 69, 68
2, 28338, Note_on_c, 0, 72, 64
2, 28818, Note_off_c, 0, 72, 70
2, 28878, Note_on_c, 0, 69, 64
2, 28938, Note_off_c, 0, 69, 65
2, 28938, Note_on_c, 0, 68, 64
2, 28998, Note_off_c, 0, 68, 61
2, 28998, Note_on_c, 0, 69, 64
2, 29058, Note_off_c, 0, 69, 79
2, 29058, Note_on_c, 0, 63, 64
2, 29118, Note_off_c, 0, 63, 49
2, 29118, Note_on_c, 0, 69, 64
2, 29178, Note_off_c, 0, 69, 58
2, 29178, Note_on_c, 0, 68, 64
2, 29238, Note_off_c, 0, 68, 61
2, 29238, Note_on_c, 0, 69, 64
2, 29298, Note_off_c, 0, 69, 63
2, 29298, Note_on_c, 0, 72, 64
2, 29358, Note_off_c, 0, 72, 62
2, 29358, Note_on_c, 0, 69, 64
2, 29418, Note_off_c, 0, 69, 47
2, 29418, Note_on_c, 0, 68, 64
2, 29478, Note_off_c, 0, 68, 66
2, 29478, Note_on_c, 0, 69, 64
2, 29538, Note_off_c, 0, 69, 69
2, 29538, Note_on_c, 0, 64, 64
2, 29598, Note_off_c, 0, 64, 34
2, 29598, Note_on_c, 0, 69, 64
2, 29658, Note_off_c, 0, 69, 55
2, 29658, Note_on_c, 0, 68, 64
2, 29718, Note_off_c, 0, 68, 63
2, 29718, Note_on_c, 0, 69, 64
2, 29778, Note_off_c, 0, 69, 58
2, 29778, Note_on_c, 0, 72, 64
2, 29838, Note_off_c, 0, 72, 63
2, 29838, Note_on_c, 0, 66, 64
2, 29898, Note_off_c, 0, 66, 42
2, 29898, Note_on_c, 0, 67, 64
2, 29958, Note_off_c, 0, 67, 50
2, 29958, Note_on_c, 0, 69, 64
2, 30018, Note_off_c, 0, 69, 49
2, 30018, Note_on_c, 0, 67, 64
2, 30078, Note_off_c, 0, 67, 51
2, 30078, Note_on_c, 0, 66, 64
2, 30138, Note_off_c, 0, 66, 58
2, 30138, Note_on_c, 0, 64, 64
2, 30198, Note_off_c, 0, 64, 11
2, 30198, Note_on_c, 0, 63, 64
2, 30258, Note_off_c, 0, 63, 46
2, 30258, Note_on_c, 0, 71, 64
2, 30318, Note_off_c, 0, 71, 62
2, 30318, Note_on_c, 0, 64, 64
2, 30378, Note_off_c, 0, 64, 38
2, 30378, Note_on_c, 0, 66, 64
2, 30438, Note_off_c, 0, 66, 62
2, 30438, Note_on_c, 0, 67, 64
2, 30498, Note_off_c, 0, 67, 44
2, 30498, Note_on_c, 0, 66, 64
2, 30558, Note_off_c, 0, 66, 63
2, 30558, Note_on_c, 0, 64, 64
2, 30618, Note_off_c, 0, 64, 53
2, 30618, Note_on_c, 0, 63, 64
2, 30678, Note_off_c, 0, 63, 50
2, 30678, Note_on_c, 0, 64, 64
2, 30738, Note_off_c, 0, 64, 53
2, 30738, Note_on_c, 0, 69, 64
2, 30798, Note_off_c, 0, 69, 44
2, 30798, Note_on_c, 0, 79, 64
2, 30858, Note_off_c, 0, 79, 68
2, 30858, Note_on_c, 0, 81, 64
2, 30918, Note_off_c, 0, 81, 62
2, 30918, Note_on_c, 0, 83, 64
2, 30978, Note_off_c, 0, 83, 58
2, 30978, Note_on_c, 0, 81, 64
2, 31038, Note_off_c, 0, 81, 62
2, 31038, Note_on_c, 0, 83, 64
2, 31098, Note_off_c, 0, 83, 59
2, 31098, Note_on_c, 0, 81, 64
2, 31158, Note_off_c, 0, 81, 51
2, 31158, Note_on_c, 0, 79, 64
2, 31218, Note_off_c, 0, 79, 66
2, 31218, Note_on_c, 0, 69, 64
2, 31278, Note_off_c, 0, 69, 46
2, 31278, Note_on_c, 0, 78, 64
2, 31338, Note_off_c, 0, 78, 65
2, 31338, Note_on_c, 0, 79, 64
2, 31398, Note_off_c, 0, 79, 63
2, 31398, Note_on_c, 0, 81, 64
2, 31458, Note_off_c, 0, 81, 37
2, 31458, Note_on_c, 0, 79, 64
2, 31518, Note_off_c, 0, 79, 65
2, 31518, Note_on_c, 0, 81, 64
2, 31578, Note_off_c, 0, 81, 58
2, 31578, Note_on_c, 0, 79, 64
2, 31638, Note_off_c, 0, 79, 46
2, 31638, Note_on_c, 0, 78, 64
2, 31698, Note_off_c, 0, 78, 62
2, 31698, Note_on_c, 0, 70, 64
2, 31758, Note_off_c, 0, 70, 45
2, 31758, Note_on_c, 0, 76, 64
2, 31818, Note_off_c, 0, 76, 47
2, 31818, Note_on_c, 0, 78, 64
2, 31878, Note_off_c, 0, 78, 49
2, 31878, Note_on_c, 0, 79, 64
2, 31938, Note_off_c, 0, 79, 54
2, 31938, Note_on_c, 0, 78, 64
2, 31998, Note_off_c, 0, 78, 54
2, 31998, Note_on_c, 0, 79, 64
2, 32058, Note_off_c, 0, 79, 51
2, 32058, Note_on_c, 0, 78, 64
2, 32118, Note_off_c, 0, 78, 52
2, 32118, Note_on_c, 0, 76, 64
2, 32178, Note_off_c, 0, 76, 53
2, 32178, Note_on_c, 0, 75, 64
2, 32238, Note_on_c, 0, 69, 64
2, 32298, Note_off_c, 0, 69, 63
2, 32298, Note_on_c, 0, 71, 64
2, 32358, Note_off_c, 0, 71, 68
2, 32358, Note_on_c, 0, 72, 64
2, 32418, Note_off_c, 0, 72, 77
2, 32418, Note_on_c, 0, 71, 64
2, 32478, Note_off_c, 0, 71, 66
2, 32478, Note_on_c, 0, 72, 64
2, 32538, Note_off_c, 0, 72, 74
2, 32538, Note_on_c, 0, 71, 64
2, 32598, Note_off_c, 0, 71, 66
2, 32598, Note_on_c, 0, 69, 64
2, 32658, Note_off_c, 0, 69, 55
2, 32658, Note_off_c, 0, 75, 54
2, 32658, Note_on_c, 0, 67, 64
2, 32718, Note_on_c, 0, 71, 64
2, 32778, Note_off_c, 0, 71, 51
2, 32778, Note_on_c, 0, 72, 64
2, 32838, Note_off_c, 0, 72, 70
2, 32838, Note_on_c, 0, 74, 64
2, 32898, Note_off_c, 0, 74, 70
2, 32898, Note_on_c, 0, 72, 64
2, 32958, Note_off_c, 0, 72, 69
2, 32958, Note_on_c, 0, 74, 64
2, 33018, Note_off_c, 0, 74, 69
2, 33018, Note_on_c, 0, 72, 64
2, 33078, Note_off_c, 0, 72, 69
2, 33078, Note_on_c, 0, 71, 64
2, 33138, Note_off_c, 0, 71, 55
2, 33138, Note_off_c, 0, 67, 33
2, 33138, Note_on_c, 0, 69, 64
2, 33198, Note_on_c, 0, 66, 64
2, 33258, Note_off_c, 0, 66, 59
2, 33258, Note_on_c, 0, 67, 64
2, 33318, Note_off_c, 0, 67, 59
2, 33318, Note_on_c, 0, 69, 64
2, 33378, Note_off_c, 0, 69, 68
2, 33378, Note_on_c, 0, 67, 64
2, 33438, Note_off_c, 0, 67, 55
2, 33438, Note_on_c, 0, 69, 64
2, 33498, Note_off_c, 0, 69, 68
2, 33498, Note_on_c, 0, 67, 64
2, 33558, Note_off_c, 0, 67, 50
2, 33558, Note_on_c, 0, 66, 64
2, 33618, Note_off_c, 0, 66, 62
2, 33618, Note_off_c, 0, 69, 52
2, 33618, Note_on_c, 0, 64, 64
2, 33678, Note_on_c, 0, 67, 64
2, 33738, Note_off_c, 0, 67, 48
2, 33738, Note_on_c, 0, 69, 64
2, 33798, Note_off_c, 0, 69, 62
2, 33798, Note_on_c, 0, 71, 64
2, 33858, Note_off_c, 0, 71, 65
2, 33858, Note_on_c, 0, 69, 64
2, 33918, Note_off_c, 0, 69, 74
2, 33918, Note_on_c, 0, 71, 64
2, 33978, Note_off_c, 0, 71, 72
2, 33978, Note_on_c, 0, 69, 64
2, 34038, Note_off_c, 0, 69, 70
2, 34038, Note_on_c, 0, 67, 64
2, 34098, Note_off_c, 0, 67, 53
2, 34098, Note_off_c, 0, 64, 29
2, 34098, Note_on_c, 0, 63, 64
2, 34158, Note_on_c, 0, 66, 64
2, 34218, Note_off_c, 0, 66, 68
2, 34218, Note_on_c, 0, 67, 64
2, 34278, Note_off_c, 0, 67, 51
2, 34278, Note_on_c, 0, 69, 64
2, 34338, Note_off_c, 0, 69, 69
2, 34338, Note_on_c, 0, 67, 64
2, 34398, Note_off_c, 0, 67, 50
2, 34398, Note_on_c, 0, 69, 64
2, 34458, Note_off_c, 0, 69, 55
2, 34458, Note_on_c, 0, 67, 64
2, 34518, Note_off_c, 0, 67, 52
2, 34518, Note_on_c, 0, 66, 64
2, 34578, Note_off_c, 0, 66, 61
2, 34578, Note_off_c, 0, 63, 44
2, 34578, Note_on_c, 0, 61, 64
2, 34638, Note_on_c, 0, 64, 64
2, 34698, Note_off_c, 0, 64, 37
2, 34698, Note_on_c, 0, 66, 64
2, 34758, Note_off_c, 0, 66, 72
2, 34758, Note_on_c, 0, 67, 64
2, 34818, Note_off_c, 0, 67, 52
2, 34818, Note_on_c, 0, 66, 64
2, 34878, Note_off_c, 0, 66, 74
2, 34878, Note_on_c, 0, 67, 64
2, 34938, Note_off_c, 0, 67, 47
2, 34938, Note_on_c, 0, 66, 64
2, 34998, Note_off_c, 0, 66, 70
2, 34998, Note_on_c, 0, 64, 64
2, 35058, Note_off_c, 0, 64, 40
2, 35058, Note_off_c, 0, 61, 59
2, 35058, Note_on_c, 0, 63, 64
2, 35118, Note_on_c, 0, 57, 64
2, 35178, Note_off_c, 0, 57, 43
2, 35178, Note_on_c, 0, 59, 64
2, 35238, Note_off_c, 0, 59, 55
2, 35238, Note_on_c, 0, 60, 64
2, 35298, Note_off_c, 0, 60, 58
2, 35298, Note_on_c, 0, 59, 64
2, 35358, Note_off_c, 0, 59, 50
2, 35358, Note_on_c, 0, 60, 64
2, 35418, Note_off_c, 0, 60, 59
2, 35418, Note_on_c, 0, 59, 64
2, 35478, Note_off_c, 0, 59, 48
2, 35478, Note_on_c, 0, 57, 64
2, 35538, Note_off_c, 0, 57, 40
2, 35538, Note_off_c, 0, 63, 46
2, 35538, Note_on_c, 0, 59, 64
2, 35598, Note_off_c, 0, 59, 47
2, 35598, Note_on_c, 0, 61, 64
2, 35658, Note_off_c, 0, 61, 63
2, 35658, Note_on_c, 0, 63, 64
2, 35718, Note_off_c, 0, 63, 58
2, 35718, Note_on_c, 0, 64, 64
2, 35778, Note_off_c, 0, 64, 49
2, 35778, Note_on_c, 0, 66, 64
2, 35838, Note_off_c, 0, 66, 68
2, 35838, Note_on_c, 0, 67, 64
2, 35898, Note_off_c, 0, 67, 52
2, 35898, Note_on_c, 0, 69, 64
2, 35958, Note_off_c, 0, 69, 70
2, 35958, Note_on_c, 0, 71, 64
2, 36018, Note_off_c, 0, 71, 74
2, 36018, Note_on_c, 0, 72, 64
2, 36078, Note_on_c, 0, 66, 64
2, 36138, Note_off_c, 0, 66, 70
2, 36138, Note_on_c, 0, 67, 64
2, 36198, Note_off_c, 0, 67, 50
2, 36198, Note_on_c, 0, 69, 64
2, 36258, Note_off_c, 0, 69, 66
2, 36258, Note_on_c, 0, 67, 64
2, 36318, Note_off_c, 0, 67, 25
2, 36318, Note_on_c, 0, 69, 64
2, 36378, Note_off_c, 0, 69, 66
2, 36378, Note_on_c, 0, 67, 64
2, 36438, Note_off_c, 0, 67, 15
2, 36438, Note_on_c, 0, 66, 64
2, 36498, Note_off_c, 0, 66, 59
2, 36498, Note_off_c, 0, 72, 58
2, 36498, Note_on_c, 0, 73, 64
2, 36558, Note_on_c, 0, 67, 64
2, 36618, Note_off_c, 0, 67, 43
2, 36618, Note_on_c, 0, 69, 64
2, 36678, Note_off_c, 0, 69, 68
2, 36678, Note_on_c, 0, 71, 64
2, 36738, Note_off_c, 0, 71, 73
2, 36738, Note_on_c, 0, 69, 64
2, 36798, Note_off_c, 0, 69, 62
2, 36798, Note_on_c, 0, 71, 64
2, 36858, Note_off_c, 0, 71, 70
2, 36858, Note_on_c, 0, 69, 64
2, 36918, Note_off_c, 0, 69, 59
2, 36918, Note_on_c, 0, 67, 64
2, 36978, Note_off_c, 0, 67, 45
2, 36978, Note_off_c, 0, 73, 68
2, 36978, Note_on_c, 0, 75, 64
2, 37038, Note_on_c, 0, 69, 64
2, 37098, Note_off_c, 0, 69, 53
2, 37098, Note_on_c, 0, 71, 64
2, 37158, Note_off_c, 0, 71, 69
2, 37158, Note_on_c, 0, 72, 64
2, 37218, Note_off_c, 0, 72, 77
2, 37218, Note_on_c, 0, 71, 64
2, 37278, Note_off_c, 0, 71, 72
2, 37278, Note_on_c, 0, 72, 64
2, 37338, Note_off_c, 0, 72, 65
2, 37338, Note_on_c, 0, 71, 64
2, 37398, Note_off_c, 0, 71, 66
2, 37398, Note_on_c, 0, 69, 64
2, 37458, Note_off_c, 0, 69, 57
2, 37458, Note_off_c, 0, 75, 57
2, 37458, Note_on_c, 0, 76, 64
2, 37458, Note_on_c, 0, 67, 64
2, 37518, Note_off_c, 0, 76, 42
2, 37518, Note_on_c, 0, 74, 64
2, 37578, Note_off_c, 0, 74, 70
2, 37578, Note_off_c, 0, 67, 37
2, 37578, Note_on_c, 0, 72, 64
2, 37638, Note_off_c, 0, 72, 73
2, 37638, Note_on_c, 0, 71, 64
2, 37698, Note_off_c, 0, 71, 65
2, 37698, Note_on_c, 0, 69, 64
2, 37758, Note_off_c, 0, 69, 55
2, 37758, Note_on_c, 0, 67, 64
2, 37818, Note_off_c, 0, 67, 49
2, 37818, Note_on_c, 0, 66, 64
2, 37878, Note_off_c, 0, 66, 59
2, 37878, Note_on_c, 0, 64, 64
2, 37938, Note_off_c, 0, 64, 39
2, 37938, Note_on_c, 0, 72, 64
2, 37998, Note_off_c, 0, 72, 74
2, 37998, Note_on_c, 0, 71, 64
2, 38058, Note_off_c, 0, 71, 74
2, 38058, Note_on_c, 0, 69, 64
2, 38118, Note_off_c, 0, 69, 65
2, 38118, Note_on_c, 0, 67, 64
2, 38178, Note_off_c, 0, 67, 44
2, 38178, Note_on_c, 0, 66, 64
2, 38238, Note_off_c, 0, 66, 74
2, 38238, Note_on_c, 0, 64, 64
2, 38298, Note_off_c, 0, 64, 46
2, 38298, Note_on_c, 0, 63, 64
2, 38358, Note_off_c, 0, 63, 57
2, 38358, Note_on_c, 0, 61, 64
2, 38418, Note_off_c, 0, 61, 61
2, 38418, Note_on_c, 0, 63, 64
2, 38478, Note_off_c, 0, 63, 54
2, 38478, Note_on_c, 0, 59, 64
2, 38538, Note_on_c, 0, 66, 64
2, 38658, Note_off_c, 0, 66, 68
2, 38718, Note_on_c, 0, 64, 64
2, 38778, Note_off_c, 0, 59, 28
2, 38778, Note_on_c, 0, 57, 64
2, 38838, Note_off_c, 0, 64, 58
2, 38838, Note_on_c, 0, 63, 64
2, 38898, Note_off_c, 0, 63, 39
2, 38898, Note_off_c, 0, 57, 50
2, 38898, Note_on_c, 0, 59, 64
2, 38898, Note_on_c, 0, 56, 64
2, 38898, Note_on_c, 0, 64, 64
2, 39378, Note_off_c, 0, 64, 58
2, 39378, Note_off_c, 0, 56, 69
2, 39378, Note_off_c, 0, 59, 69
2, 39378, End_track
3, 0, Start_track
3, 0, Text_t, "RH Chords"
3, 0, Note_on_c, 1, 71, 54
3, 0, Note_on_c, 1, 67, 54
3, 120, Note_off_c, 1, 67, 46
3, 120, Note_off_c, 1, 71, 63
3, 480, Note_on_c, 1, 71, 54
3, 480, Note_on_c, 1, 67, 54
3, 600, Note_off_c, 1, 67, 41
3, 600, Note_off_c, 1, 71, 79
3, 960, Note_on_c, 1, 69, 54
3, 960, Note_on_c, 1, 72, 54
3, 1080, Note_off_c, 1, 72, 68
3, 1080, Note_off_c, 1, 69, 54
3, 1440, Note_on_c, 1, 72, 54
3, 1440, Note_on_c, 1, 69, 54
3, 1560, Note_off_c, 1, 69, 65
3, 1560, Note_off_c, 1, 72, 72
3, 1920, Note_on_c, 1, 72, 54
3, 1920, Note_on_c, 1, 69, 54
3, 2040, Note_off_c, 1, 69, 77
3, 2040, Note_off_c, 1, 72, 74
3, 2400, Note_on_c, 1, 78, 54
3, 2400, Note_on_c, 1, 71, 54
3, 2520, Note_off_c, 1, 71, 61
3, 2520, Note_off_c, 1, 78, 68
3, 2880, Note_on_c, 1, 71, 54
3, 2880, Note_on_c, 1, 76, 54
3, 3000, Note_off_c, 1, 76, 54
3, 3000, Note_off_c, 1, 71, 52
3, 3360, Note_on_c, 1, 76, 54
3, 3360, Note_on_c, 1, 71, 54
3, 3480, Note_off_c, 1, 71, 46
3, 3480, Note_off_c, 1, 76, 59
3, 3840, Note_on_c, 1, 72, 54
3, 3840, Note_on_c, 1, 69, 54
3, 3960, Note_off_c, 1, 69, 42
3, 3960, Note_off_c, 1, 72, 79
3, 4320, Note_on_c, 1, 71, 54
3, 4320, Note_on_c, 1, 74, 54
3, 4440, Note_off_c, 1, 74, 73
3, 4440, Note_off_c, 1, 71, 49
3, 4800, Note_on_c, 1, 71, 54
3, 4800, Note_on_c, 1, 67, 54
3, 4920, Note_off_c, 1, 67, 43
3, 4920, Note_off_c, 1, 71, 73
3, 5280, Note_on_c, 1, 72, 54
3, 5280, Note_on_c, 1, 69, 54
3, 5400, Note_off_c, 1, 69, 55
3, 5400, Note_off_c, 1, 72, 82
3, 5760, Note_on_c, 1, 69, 54
3, 5760, Note_on_c, 1, 66, 54
3, 5880, Note_off_c, 1, 66, 53
3, 5880, Note_off_c, 1, 69, 74
3, 6240, Note_on_c, 1, 71, 54
3, 6240, Note_on_c, 1, 67, 54
3, 6360, Note_off_c, 1, 67, 53
3, 6360, Note_off_c, 1, 71, 73
3, 6720, Note_on_c, 1, 64, 54
3, 6720, Note_on_c, 1, 67, 54
3, 6840, Note_off_c, 1, 67, 49
3, 6840, Note_off_c, 1, 64, 20
3, 7200, Note_on_c, 1, 69, 54
3, 7200, Note_on_c, 1, 66, 54
3, 7320, Note_off_c, 1, 66, 63
3, 7320, Note_off_c, 1, 69, 76
3, 7680, Note_on_c, 1, 67, 54
3, 7680, Note_on_c, 1, 62, 54
3, 7800, Note_off_c, 1, 62, 51
3, 7800, Note_off_c, 1, 67, 59
3, 8160, Note_on_c, 1, 62, 54
3, 8160, Note_on_c, 1, 67, 54
3, 8280, Note_off_c, 1, 67, 55
3, 8280, Note_off_c, 1, 62, 43
3, 8640, Note_on_c, 1, 69, 54
3, 8640, Note_on_c, 1, 73, 54
3, 8760, Note_off_c, 1, 73, 72
3, 8760, Note_off_c, 1, 69, 72
3, 9120, Note_on_c, 1, 69, 54
3, 9120, Note_on_c, 1, 75, 54
3, 9240, Note_off_c, 1, 75, 51
3, 9240, Note_off_c, 1, 69, 73
3, 9600, Note_on_c, 1, 71, 54
3, 9600, Note_on_c, 1, 76, 54
3, 9720, Note_off_c, 1, 76, 49
3, 9720, Note_off_c, 1, 71, 76
3, 10080, Note_on_c, 1, 71, 54
3, 10080, Note_on_c, 1, 67, 54
3, 10200, Note_off_c, 1, 67, 41
3, 10200, Note_off_c, 1, 71, 80
3, 10560, Note_on_c, 1, 65, 54
3, 10560, Note_on_c, 1, 69, 54
3, 10680, Note_off_c, 1, 69, 69
3, 10680, Note_off_c, 1, 65, 1
3, 11040, Note_on_c, 1, 65, 54
3, 11040, Note_on_c, 1, 71, 54
3, 11160, Note_off_c, 1, 71, 82
3, 11160, Note_off_c, 1, 65, 39
3, 11520, Note_on_c, 1, 72, 54
3, 11520, Note_on_c, 1, 67, 54
3, 11640, Note_off_c, 1, 67, 34
3, 11640, Note_off_c, 1, 72, 73
3, 12000, Note_on_c, 1, 64, 54
3, 12000, Note_on_c, 1, 67, 54
3, 12120, Note_off_c, 1, 67, 50
3, 12120, Note_off_c, 1, 64, 26
3, 12480, Note_on_c, 1, 69, 54
3, 12480, Note_on_c, 1, 66, 54
3, 12600, Note_off_c, 1, 66, 69
3, 12600, Note_off_c, 1, 69, 72
3, 12960, Note_on_c, 1, 71, 54
3, 12960, Note_on_c, 1, 68, 54
3, 13080, Note_off_c, 1, 68, 66
3, 13080, Note_off_c, 1, 71, 73
3, 13440, Note_on_c, 1, 64, 54
3, 13440, Note_on_c, 1, 69, 54
3, 13560, Note_off_c, 1, 69, 68
3, 13560, Note_off_c, 1, 64, 37
3, 13920, Note_on_c, 1, 69, 54
3, 13920, Note_on_c, 1, 64, 54
3, 14040, Note_off_c, 1, 64, 41
3, 14040, Note_off_c, 1, 69, 73
3, 14400, Note_on_c, 1, 63, 54
3, 14400, Note_on_c, 1, 69, 54
3, 14520, Note_off_c, 1, 69, 69
3, 14520, Note_off_c, 1, 63, 55
3, 14880, Note_on_c, 1, 64, 54
3, 14880, Note_on_c, 1, 69, 54
3, 15000, Note_off_c, 1, 69, 69
3, 15000, Note_off_c, 1, 64, 55
3, 15360, Note_on_c, 1, 66, 54
3, 15360, Note_on_c, 1, 69, 54
3, 15480, Note_off_c, 1, 69, 55
3, 15480, Note_off_c, 1, 66, 72
3, 15840, Note_on_c, 1, 66, 54
3, 15840, Note_on_c, 1, 69, 54
3, 15960, Note_off_c, 1, 69, 63
3, 15960, Note_off_c, 1, 66, 74
3, 16320, Note_on_c, 1, 71, 54
3, 16320, Note_on_c, 1, 68, 54
3, 16440, Note_off_c, 1, 68, 66
3, 16440, Note_off_c, 1, 71, 72
3, 16800, Note_on_c, 1, 70, 54
3, 16800, Note_on_c, 1, 73, 54
3, 16920, Note_off_c, 1, 73, 74
3, 16920, Note_off_c, 1, 70, 73
3, 17280, Note_on_c, 1, 69, 54
3, 17280, Note_on_c, 1, 66, 54
3, 17400, Note_off_c, 1, 66, 76
3, 17400, Note_off_c, 1, 69, 74
3, 17760, Note_on_c, 1, 71, 54
3, 17760, Note_on_c, 1, 67, 54
3, 17880, Note_off_c, 1, 67, 53
3, 17880, Note_off_c, 1, 71, 72
3, 18240, Note_on_c, 1, 73, 54
3, 18240, Note_on_c, 1, 67, 54
3, 18360, Note_off_c, 1, 67, 40
3, 18360, Note_off_c, 1, 73, 73
3, 18720, Note_on_c, 1, 66, 54
3, 18720, Note_on_c, 1, 71, 54
3, 18840, Note_off_c, 1, 71, 79
3, 18840, Note_off_c, 1, 66, 68
3, 19200, Note_on_c, 1, 71, 54
3, 19200, Note_on_c, 1, 67, 54
3, 19320, Note_off_c, 1, 67, 52
3, 19320, Note_off_c, 1, 71, 68
3, 19680, Note_on_c, 1, 71, 54
3, 19680, Note_on_c, 1, 68, 54
3, 19800, Note_off_c, 1, 68, 76
3, 19800, Note_off_c, 1, 71, 77
3, 20160, Note_on_c, 1, 69, 54
3, 20160, Note_on_c, 1, 72, 54
3, 20280, Note_off_c, 1, 72, 73
3, 20280, Note_off_c, 1, 69, 68
3, 20640, Note_on_c, 1, 71, 54
3, 20640, Note_on_c, 1, 74, 54
3, 20760, Note_off_c, 1, 74, 61
3, 20760, Note_off_c, 1, 71, 70
3, 21120, Note_on_c, 1, 72, 54
3, 21240, Note_off_c, 1, 72, 83
3, 21240, End_track
4, 0, Start_track
4, 0, Text_t, "LH B"
4, 0, Note_on_c, 2, 52, 56
4, 60, Note_off_c, 2, 52, 40
4, 60, Note_on_c, 2, 55, 56
4, 120, Note_off_c, 2, 55, 69
4, 120, Note_on_c, 2, 57, 56
4, 180, Note_off_c, 2, 57, 55
4, 180, Note_on_c, 2, 59, 56
4, 240, Note_off_c, 2, 59, 54
4, 240, Note_on_c, 2, 57, 56
4, 300, Note_off_c, 2, 57, 57
4, 300, Note_on_c, 2, 59, 56
4, 360, Note_off_c, 2, 59, 58
4, 360, Note_on_c, 2, 57, 56
4, 420, Note_off_c, 2, 57, 52
4, 420, Note_on_c, 2, 55, 56
4, 480, Note_off_c, 2, 55, 57
4, 480, Note_on_c, 2, 52, 56
4, 540, Note_off_c, 2, 52, 61
4, 540, Note_on_c, 2, 55, 56
4, 600, Note_off_c, 2, 55, 63
4, 600, Note_on_c, 2, 57, 56
4, 660, Note_off_c, 2, 57, 54
4, 660, Note_on_c, 2, 59, 56
4, 720, Note_off_c, 2, 59, 62
4, 720, Note_on_c, 2, 57, 56
4, 780, Note_off_c, 2, 57, 57
4, 780, Note_on_c, 2, 59, 56
4, 840, Note_off_c, 2, 59, 58
4, 840, Note_on_c, 2, 57, 56
4, 900, Note_off_c, 2, 57, 51
4, 900, Note_on_c, 2, 55, 56
4, 960, Note_off_c, 2, 55, 72
4, 960, Note_on_c, 2, 52, 56
4, 1020, Note_off_c, 2, 52, 61
4, 1020, Note_on_c, 2, 57, 56
4, 1080, Note_off_c, 2, 57, 51
4, 1080, Note_on_c, 2, 59, 56
4, 1140, Note_off_c, 2, 59, 59
4, 1140, Note_on_c, 2, 60, 56
4, 1200, Note_off_c, 2, 60, 68
4, 1200, Note_on_c, 2, 59, 56
4, 1260, Note_off_c, 2, 59, 61
4, 1260, Note_on_c, 2, 60, 56
4, 1320, Note_off_c, 2, 60, 66
4, 1320, Note_on_c, 2, 59, 56
4, 1380, Note_off_c, 2, 59, 52
4, 1380, Note_on_c, 2, 57, 56
4, 1440, Note_off_c, 2, 57, 57
4, 1440, Note_on_c, 2, 52, 56
4, 1500, Note_off_c, 2, 52, 43
4, 1500, Note_on_c, 2, 57, 56
4, 1560, Note_off_c, 2, 57, 51
4, 1560, Note_on_c, 2, 59, 56
4, 1620, Note_off_c, 2, 59, 53
4, 1620, Note_on_c, 2, 60, 56
4, 1680, Note_off_c, 2, 60, 53
4, 1680, Note_on_c, 2, 59, 56
4, 1740, Note_off_c, 2, 59, 52
4, 1740, Note_on_c, 2, 60, 56
4, 1800, Note_off_c, 2, 60, 66
4, 1800, Note_on_c, 2, 59, 56
4, 1860, Note_off_c, 2, 59, 44
4, 1860, Note_on_c, 2, 57, 56
4, 1920, Note_off_c, 2, 57, 51
4, 1920, Note_on_c, 2, 51, 56
4, 1980, Note_off_c, 2, 51, 14
4, 1980, Note_on_c, 2, 57, 56
4, 2040, Note_off_c, 2, 57, 46
4, 2040, Note_on_c, 2, 59, 56
4, 2100, Note_off_c, 2, 59, 49
4, 2100, Note_on_c, 2, 60, 56
4, 2160, Note_off_c, 2, 60, 58
4, 2160, Note_on_c, 2, 59, 56
4, 2220, Note_off_c, 2, 59, 48
4, 2220, Note_on_c, 2, 60, 56
4, 2280, Note_off_c, 2, 60, 52
4, 2280, Note_on_c, 2, 59, 56
4, 2340, Note_off_c, 2, 59, 50
4, 2340, Note_on_c, 2, 57, 56
4, 2400, Note_off_c, 2, 57, 40
4, 2400, Note_on_c, 2, 51, 56
4, 2460, Note_off_c, 2, 51, 76
4, 2460, Note_on_c, 2, 57, 56
4, 2520, Note_off_c, 2, 57, 49
4, 2520, Note_on_c, 2, 59, 56
4, 2580, Note_off_c, 2, 59, 49
4, 2580, Note_on_c, 2, 60, 56
4, 2640, Note_off_c, 2, 60, 54
4, 2640, Note_on_c, 2, 59, 56
4, 2700, Note_off_c, 2, 59, 59
4, 2700, Note_on_c, 2, 60, 56
4, 2760, Note_off_c, 2, 60, 59
4, 2760, Note_on_c, 2, 59, 56
4, 2820, Note_off_c, 2, 59, 47
4, 2820, Note_on_c, 2, 57, 56
4, 2880, Note_off_c, 2, 57, 43
4, 2880, Note_on_c, 2, 52, 56
4, 2940, Note_off_c, 2, 52, 70
4, 2940, Note_on_c, 2, 55, 56
4, 3000, Note_off_c, 2, 55, 49
4, 3000, Note_on_c, 2, 57, 56
4, 3060, Note_off_c, 2, 57, 51
4, 3060, Note_on_c, 2, 59, 56
4, 3120, Note_off_c, 2, 59, 51
4, 3120, Note_on_c, 2, 57, 56
4, 3180, Note_off_c, 2, 57, 53
4, 3180, Note_on_c, 2, 59, 56
4, 3240, Note_off_c, 2, 59, 46
4, 3240, Note_on_c, 2, 57, 56
4, 3300, Note_off_c, 2, 57, 53
4, 3300, Note_on_c, 2, 55, 56
4, 3360, Note_off_c, 2, 55, 62
4, 3360, Note_on_c, 2, 52, 56
4, 3420, Note_off_c, 2, 52, 79
4, 3420, Note_on_c, 2, 55, 56
4, 3480, Note_off_c, 2, 55, 59
4, 3480, Note_on_c, 2, 57, 56
4, 3540, Note_off_c, 2, 57, 57
4, 3540, Note_on_c, 2, 59, 56
4, 3600, Note_off_c, 2, 59, 54
4, 3600, Note_on_c, 2, 57, 56
4, 3660, Note_off_c, 2, 57, 52
4, 3660, Note_on_c, 2, 59, 56
4, 3720, Note_off_c, 2, 59, 51
4, 3720, Note_on_c, 2, 57, 56
4, 3780, Note_off_c, 2, 57, 48
4, 3780, Note_on_c, 2, 55, 56
4, 3840, Note_off_c, 2, 55, 52
4, 3840, Note_on_c, 2, 52, 56
4, 3900, Note_off_c, 2, 52, 58
4, 3900, Note_on_c, 2, 54, 56
4, 3960, Note_off_c, 2, 54, 66
4, 3960, Note_on_c, 2, 55, 56
4, 4020, Note_off_c, 2, 55, 65
4, 4020, Note_on_c, 2, 57, 56
4, 4080, Note_off_c, 2, 57, 61
4, 4080, Note_on_c, 2, 55, 56
4, 4140, Note_off_c, 2, 55, 72
4, 4140, Note_on_c, 2, 57, 56
4, 4200, Note_off_c, 2, 57, 58
4, 4200, Note_on_c, 2, 55, 56
4, 4260, Note_off_c, 2, 55, 65
4, 4260, Note_on_c, 2, 54, 56
4, 4320, Note_off_c, 2, 54, 50
4, 4320, Note_on_c, 2, 50, 56
4, 4380, Note_off_c, 2, 50, 41
4, 4380, Note_on_c, 2, 54, 56
4, 4440, Note_off_c, 2, 54, 59
4, 4440, Note_on_c, 2, 55, 56
4, 4500, Note_off_c, 2, 55, 63
4, 4500, Note_on_c, 2, 57, 56
4, 4560, Note_off_c, 2, 57, 52
4, 4560, Note_on_c, 2, 55, 56
4, 4620, Note_off_c, 2, 55, 53
4, 4620, Note_on_c, 2, 57, 56
4, 4680, Note_off_c, 2, 57, 53
4, 4680, Note_on_c, 2, 55, 56
4, 4740, Note_off_c, 2, 55, 51
4, 4740, Note_on_c, 2, 54, 56
4, 4800, Note_off_c, 2, 54, 61
4, 4800, Note_on_c, 2, 50, 56
4, 4860, Note_off_c, 2, 50, 54
4, 4860, Note_on_c, 2, 52, 56
4, 4920, Note_off_c, 2, 52, 57
4, 4920, Note_on_c, 2, 54, 56
4, 4980, Note_off_c, 2, 54, 57
4, 4980, Note_on_c, 2, 55, 56
4, 5040, Note_off_c, 2, 55, 68
4, 5040, Note_on_c, 2, 54, 56
4, 5100, Note_off_c, 2, 54, 61
4, 5100, Note_on_c, 2, 55, 56
4, 5160, Note_off_c, 2, 55, 57
4, 5160, Note_on_c, 2, 54, 56
4, 5220, Note_off_c, 2, 54, 54
4, 5220, Note_on_c, 2, 52, 56
4, 5280, Note_off_c, 2, 52, 61
4, 5280, Note_on_c, 2, 48, 56
4, 5340, Note_off_c, 2, 48, 43
4, 5340, Note_on_c, 2, 52, 56
4, 5400, Note_off_c, 2, 52, 59
4, 5400, Note_on_c, 2, 54, 56
4, 5460, Note_off_c, 2, 54, 53
4, 5460, Note_on_c, 2, 55, 56
4, 5520, Note_off_c, 2, 55, 62
4, 5520, Note_on_c, 2, 54, 56
4, 5580, Note_off_c, 2, 54, 62
4, 5580, Note_on_c, 2, 55, 56
4, 5640, Note_off_c, 2, 55, 55
4, 5640, Note_on_c, 2, 54, 56
4, 5700, Note_off_c, 2, 54, 41
4, 5700, Note_on_c, 2, 52, 56
4, 5760, Note_off_c, 2, 52, 43
4, 5760, Note_on_c, 2, 48, 56
4, 5820, Note_off_c, 2, 48, 43
4, 5820, Note_on_c, 2, 54, 56
4, 5880, Note_off_c, 2, 54, 59
4, 5880, Note_on_c, 2, 55, 56
4, 5940, Note_off_c, 2, 55, 58
4, 5940, Note_on_c, 2, 57, 56
4, 6000, Note_off_c, 2, 57, 53
4, 6000, Note_on_c, 2, 55, 56
4, 6060, Note_off_c, 2, 55, 68
4, 6060, Note_on_c, 2, 57, 56
4, 6120, Note_off_c, 2, 57, 53
4, 6120, Note_on_c, 2, 55, 56
4, 6180, Note_off_c, 2, 55, 49
4, 6180, Note_on_c, 2, 54, 56
4, 6240, Note_off_c, 2, 54, 54
4, 6240, Note_on_c, 2, 47, 56
4, 6300, Note_off_c, 2, 47, 49
4, 6300, Note_on_c, 2, 55, 56
4, 6360, Note_off_c, 2, 55, 70
4, 6360, Note_on_c, 2, 57, 56
4, 6420, Note_off_c, 2, 57, 58
4, 6420, Note_on_c, 2, 59, 56
4, 6480, Note_off_c, 2, 59, 8
4, 6480, Note_on_c, 2, 57, 56
4, 6540, Note_off_c, 2, 57, 58
4, 6540, Note_on_c, 2, 59, 56
4, 6600, Note_off_c, 2, 59, 42
4, 6600, Note_on_c, 2, 57, 56
4, 6660, Note_off_c, 2, 57, 48
4, 6660, Note_on_c, 2, 55, 56
4, 6720, Note_off_c, 2, 55, 59
4, 6720, Note_on_c, 2, 47, 56
4, 6780, Note_off_c, 2, 47, 40
4, 6780, Note_on_c, 2, 52, 56
4, 6840, Note_off_c, 2, 52, 46
4, 6840, Note_on_c, 2, 54, 56
4, 6900, Note_off_c, 2, 54, 59
4, 6900, Note_on_c, 2, 55, 56
4, 6960, Note_off_c, 2, 55, 57
4, 6960, Note_on_c, 2, 54, 56
4, 7020, Note_off_c, 2, 54, 63
4, 7020, Note_on_c, 2, 55, 56
4, 7080, Note_off_c, 2, 55, 53
4, 7080, Note_on_c, 2, 54, 56
4, 7140, Note_off_c, 2, 54, 42
4, 7140, Note_on_c, 2, 52, 56
4, 7200, Note_off_c, 2, 52, 61
4, 7200, Note_on_c, 2, 45, 56
4, 7260, Note_off_c, 2, 45, 62
4, 7260, Note_on_c, 2, 54, 56
4, 7320, Note_off_c, 2, 54, 58
4, 7320, Note_on_c, 2, 55, 56
4, 7380, Note_off_c, 2, 55, 59
4, 7380, Note_on_c, 2, 57, 56
4, 7440, Note_off_c, 2, 57, 53
4, 7440, Note_on_c, 2, 55, 56
4, 7500, Note_off_c, 2, 55, 53
4, 7500, Note_on_c, 2, 57, 56
4, 7560, Note_off_c, 2, 57, 45
4, 7560, Note_on_c, 2, 55, 56
4, 7620, Note_off_c, 2, 55, 53
4, 7620, Note_on_c, 2, 54, 56
4, 7680, Note_off_c, 2, 54, 52
4, 7680, Note_on_c, 2, 43, 56
4, 7740, Note_off_c, 2, 43, 57
4, 7740, Note_on_c, 2, 57, 56
4, 7800, Note_off_c, 2, 57, 53
4, 7800, Note_on_c, 2, 59, 56
4, 7860, Note_off_c, 2, 59, 48
4, 7860, Note_on_c, 2, 60, 56
4, 7920, Note_off_c, 2, 60, 59
4, 7920, Note_on_c, 2, 59, 56
4, 7980, Note_off_c, 2, 59, 55
4, 7980, Note_on_c, 2, 60, 56
4, 8040, Note_off_c, 2, 60, 55
4, 8040, Note_on_c, 2, 59, 56
4, 8100, Note_off_c, 2, 59, 45
4, 8100, Note_on_c, 2, 57, 56
4, 8160, Note_off_c, 2, 57, 57
4, 8160, Note_on_c, 2, 55, 56
4, 8220, Note_off_c, 2, 55, 59
4, 8220, Note_on_c, 2, 59, 56
4, 8280, Note_off_c, 2, 59, 52
4, 8280, Note_on_c, 2, 60, 56
4, 8340, Note_off_c, 2, 60, 52
4, 8340, Note_on_c, 2, 62, 56
4, 8400, Note_off_c, 2, 62, 52
4, 8400, Note_on_c, 2, 60, 56
4, 8460, Note_off_c, 2, 60, 63
4, 8460, Note_on_c, 2, 62, 56
4, 8520, Note_off_c, 2, 62, 52
4, 8520, Note_on_c, 2, 60, 56
4, 8580, Note_off_c, 2, 60, 43
4, 8580, Note_on_c, 2, 59, 56
4, 8640, Note_off_c, 2, 59, 53
4, 8640, Note_on_c, 2, 55, 56
4, 8700, Note_off_c, 2, 55, 40
4, 8700, Note_on_c, 2, 61, 56
4, 8760, Note_off_c, 2, 61, 57
4, 8760, Note_on_c, 2, 62, 56
4, 8820, Note_off_c, 2, 62, 46
4, 8820, Note_on_c, 2, 64, 56
4, 8880, Note_off_c, 2, 64, 46
4, 8880, Note_on_c, 2, 62, 56
4, 8940, Note_off_c, 2, 62, 46
4, 8940, Note_on_c, 2, 64, 56
4, 9000, Note_off_c, 2, 64, 49
4, 9000, Note_on_c, 2, 62, 56
4, 9060, Note_off_c, 2, 62, 49
4, 9060, Note_on_c, 2, 61, 56
4, 9120, Note_off_c, 2, 61, 55
4, 9120, Note_on_c, 2, 54, 56
4, 9180, Note_off_c, 2, 54, 43
4, 9180, Note_on_c, 2, 63, 56
4, 9240, Note_off_c, 2, 63, 46
4, 9240, Note_on_c, 2, 64, 56
4, 9300, Note_off_c, 2, 64, 51
4, 9300, Note_on_c, 2, 66, 56
4, 9360, Note_off_c, 2, 66, 1
4, 9360, Note_on_c, 2, 64, 56
4, 9420, Note_off_c, 2, 64, 52
4, 9420, Note_on_c, 2, 66, 56
4, 9480, Note_off_c, 2, 66, 62
4, 9480, Note_on_c, 2, 64, 56
4, 9540, Note_off_c, 2, 64, 46
4, 9540, Note_on_c, 2, 63, 56
4, 9600, Note_off_c, 2, 63, 50
4, 9600, Note_on_c, 2, 52, 56
4, 9660, Note_off_c, 2, 52, 48
4, 9660, Note_on_c, 2, 54, 56
4, 9720, Note_off_c, 2, 54, 54
4, 9720, Note_on_c, 2, 55, 56
4, 9780, Note_off_c, 2, 55, 66
4, 9780, Note_on_c, 2, 57, 56
4, 9840, Note_off_c, 2, 57, 50
4, 9840, Note_on_c, 2, 55, 56
4, 9900, Note_off_c, 2, 55, 62
4, 9900, Note_on_c, 2, 57, 56
4, 9960, Note_off_c, 2, 57, 49
4, 9960, Note_on_c, 2, 55, 56
4, 10020, Note_off_c, 2, 55, 57
4, 10020, Note_on_c, 2, 54, 56
4, 10080, Note_off_c, 2, 54, 54
4, 10080, Note_on_c, 2, 52, 56
4, 10140, Note_off_c, 2, 52, 57
4, 10140, Note_on_c, 2, 55, 56
4, 10200, Note_off_c, 2, 55, 53
4, 10200, Note_on_c, 2, 57, 56
4, 10260, Note_off_c, 2, 57, 52
4, 10260, Note_on_c, 2, 59, 56
4, 10320, Note_off_c, 2, 59, 54
4, 10320, Note_on_c, 2, 57, 56
4, 10380, Note_off_c, 2, 57, 53
4, 10380, Note_on_c, 2, 59, 56
4, 10440, Note_off_c, 2, 59, 49
4, 10440, Note_on_c, 2, 57, 56
4, 10500, Note_off_c, 2, 57, 49
4, 10500, Note_on_c, 2, 55, 56
4, 10560, Note_off_c, 2, 55, 63
4, 10560, Note_on_c, 2, 52, 56
4, 10620, Note_off_c, 2, 52, 53
4, 10620, Note_on_c, 2, 57, 56
4, 10680, Note_off_c, 2, 57, 51
4, 10680, Note_on_c, 2, 59, 56
4, 10740, Note_off_c, 2, 59, 50
4, 10740, Note_on_c, 2, 60, 56
4, 10800, Note_off_c, 2, 60, 58
4, 10800, Note_on_c, 2, 59, 56
4, 10860, Note_off_c, 2, 59, 52
4, 10860, Note_on_c, 2, 60, 56
4, 10920, Note_off_c, 2, 60, 55
4, 10920, Note_on_c, 2, 59, 56
4, 10980, Note_off_c, 2, 59, 51
4, 10980, Note_on_c, 2, 57, 56
4, 11040, Note_off_c, 2, 57, 61
4, 11040, Note_on_c, 2, 50, 56
4, 11100, Note_off_c, 2, 50, 47
4, 11100, Note_on_c, 2, 59, 56
4, 11160, Note_off_c, 2, 59, 66
4, 11160, Note_on_c, 2, 60, 56
4, 11220, Note_off_c, 2, 60, 58
4, 11220, Note_on_c, 2, 62, 56
4, 11280, Note_off_c, 2, 62, 47
4, 11280, Note_on_c, 2, 60, 56
4, 11340, Note_off_c, 2, 60, 61
4, 11340, Note_on_c, 2, 62, 56
4, 11400, Note_off_c, 2, 62, 46
4, 11400, Note_on_c, 2, 60, 56
4, 11460, Note_off_c, 2, 60, 55
4, 11460, Note_on_c, 2, 59, 56
4, 11520, Note_off_c, 2, 59, 62
4, 11520, Note_on_c, 2, 48, 56
4, 11580, Note_off_c, 2, 48, 68
4, 11580, Note_on_c, 2, 50, 56
4, 11640, Note_off_c, 2, 50, 46
4, 11640, Note_on_c, 2, 52, 56
4, 11700, Note_off_c, 2, 52, 59
4, 11700, Note_on_c, 2, 53, 56
4, 11760, Note_off_c, 2, 53, 59
4, 11760, Note_on_c, 2, 52, 56
4, 11820, Note_off_c, 2, 52, 61
4, 11820, Note_on_c, 2, 53, 56
4, 11880, Note_off_c, 2, 53, 62
4, 11880, Note_on_c, 2, 52, 56
4, 11940, Note_off_c, 2, 52, 59
4, 11940, Note_on_c, 2, 50, 56
4, 12000, Note_off_c, 2, 50, 62
4, 12000, Note_on_c, 2, 48, 56
4, 12060, Note_off_c, 2, 48, 54
4, 12060, Note_on_c, 2, 50, 56
4, 12120, Note_off_c, 2, 50, 57
4, 12120, Note_on_c, 2, 52, 56
4, 12180, Note_off_c, 2, 52, 63
4, 12180, Note_on_c, 2, 53, 56
4, 12240, Note_off_c, 2, 53, 62
4, 12240, Note_on_c, 2, 52, 56
4, 12300, Note_off_c, 2, 52, 66
4, 12300, Note_on_c, 2, 53, 56
4, 12360, Note_off_c, 2, 53, 58
4, 12360, Note_on_c, 2, 52, 56
4, 12420, Note_off_c, 2, 52, 65
4, 12420, Note_on_c, 2, 50, 56
4, 12480, Note_off_c, 2, 50, 54
4, 12480, Note_on_c, 2, 48, 56
4, 12540, Note_off_c, 2, 48, 61
4, 12540, Note_on_c, 2, 54, 56
4, 12600, Note_off_c, 2, 54, 52
4, 12600, Note_on_c, 2, 55, 56
4, 12660, Note_off_c, 2, 55, 63
4, 12660, Note_on_c, 2, 57, 56
4, 12720, Note_off_c, 2, 57, 58
4, 12720, Note_on_c, 2, 55, 56
4, 12780, Note_off_c, 2, 55, 61
4, 12780, Note_on_c, 2, 57, 56
4, 12840, Note_off_c, 2, 57, 51
4, 12840, Note_on_c, 2, 55, 56
4, 12900, Note_off_c, 2, 55, 49
4, 12900, Note_on_c, 2, 54, 56
4, 12960, Note_off_c, 2, 54, 62
4, 12960, Note_on_c, 2, 47, 56
4, 13020, Note_off_c, 2, 47, 57
4, 13020, Note_on_c, 2, 56, 56
4, 13080, Note_off_c, 2, 56, 51
4, 13080, Note_on_c, 2, 57, 56
4, 13140, Note_off_c, 2, 57, 57
4, 13140, Note_on_c, 2, 59, 56
4, 13200, Note_off_c, 2, 59, 49
4, 13200, Note_on_c, 2, 57, 56
4, 13260, Note_off_c, 2, 57, 58
4, 13260, Note_on_c, 2, 59, 56
4, 13320, Note_off_c, 2, 59, 50
4, 13320, Note_on_c, 2, 57, 56
4, 13380, Note_off_c, 2, 57, 42
4, 13380, Note_on_c, 2, 56, 56
4, 13440, Note_off_c, 2, 56, 63
4, 13440, Note_on_c, 2, 57, 56
4, 13500, Note_off_c, 2, 57, 54
4, 13500, Note_on_c, 2, 59, 56
4, 13560, Note_off_c, 2, 59, 49
4, 13560, Note_on_c, 2, 60, 56
4, 13620, Note_off_c, 2, 60, 55
4, 13620, Note_on_c, 2, 62, 56
4, 13680, Note_off_c, 2, 62, 52
4, 13680, Note_on_c, 2, 60, 56
4, 13740, Note_off_c, 2, 60, 61
4, 13740, Note_on_c, 2, 62, 56
4, 13800, Note_off_c, 2, 62, 51
4, 13800, Note_on_c, 2, 60, 56
4, 13860, Note_off_c, 2, 60, 52
4, 13860, Note_on_c, 2, 59, 56
4, 13920, Note_off_c, 2, 59, 52
4, 13920, Note_on_c, 2, 55, 56
4, 13980, Note_off_c, 2, 55, 46
4, 13980, Note_on_c, 2, 57, 56
4, 14040, Note_off_c, 2, 57, 47
4, 14040, Note_on_c, 2, 59, 56
4, 14100, Note_off_c, 2, 59, 44
4, 14100, Note_on_c, 2, 60, 56
4, 14160, Note_off_c, 2, 60, 63
4, 14160, Note_on_c, 2, 59, 56
4, 14220, Note_off_c, 2, 59, 52
4, 14220, Note_on_c, 2, 60, 56
4, 14280, Note_off_c, 2, 60, 59
4, 14280, Note_on_c, 2, 59, 56
4, 14340, Note_off_c, 2, 59, 49
4, 14340, Note_on_c, 2, 57, 56
4, 14400, Note_off_c, 2, 57, 51
4, 14400, Note_on_c, 2, 54, 56
4, 14460, Note_off_c, 2, 54, 65
4, 14460, Note_on_c, 2, 57, 56
4, 14520, Note_off_c, 2, 57, 49
4, 14520, Note_on_c, 2, 59, 56
4, 14580, Note_off_c, 2, 59, 50
4, 14580, Note_on_c, 2, 60, 56
4, 14640, Note_off_c, 2, 60, 57
4, 14640, Note_on_c, 2, 59, 56
4, 14700, Note_off_c, 2, 59, 49
4, 14700, Note_on_c, 2, 60, 56
4, 14760, Note_off_c, 2, 60, 57
4, 14760, Note_on_c, 2, 59, 56
4, 14820, Note_off_c, 2, 59, 46
4, 14820, Note_on_c, 2, 57, 56
4, 14880, Note_off_c, 2, 57, 46
4, 14880, Note_on_c, 2, 52, 56
4, 14940, Note_off_c, 2, 52, 69
4, 14940, Note_on_c, 2, 57, 56
4, 15000, Note_off_c, 2, 57, 43
4, 15000, Note_on_c, 2, 59, 56
4, 15060, Note_off_c, 2, 59, 51
4, 15060, Note_on_c, 2, 60, 56
4, 15120, Note_off_c, 2, 60, 58
4, 15120, Note_on_c, 2, 59, 56
4, 15180, Note_off_c, 2, 59, 55
4, 15180, Note_on_c, 2, 60, 56
4, 15240, Note_off_c, 2, 60, 52
4, 15240, Note_on_c, 2, 59, 56
4, 15300, Note_off_c, 2, 59, 48
4, 15300, Note_on_c, 2, 57, 56
4, 15360, Note_off_c, 2, 57, 44
4, 15360, Note_on_c, 2, 51, 56
4, 15420, Note_off_c, 2, 51, 70
4, 15420, Note_on_c, 2, 57, 56
4, 15480, Note_off_c, 2, 57, 45
4, 15480, Note_on_c, 2, 59, 56
4, 15540, Note_off_c, 2, 59, 55
4, 15540, Note_on_c, 2, 60, 56
4, 15600, Note_off_c, 2, 60, 55
4, 15600, Note_on_c, 2, 59, 56
4, 15660, Note_off_c, 2, 59, 47
4, 15660, Note_on_c, 2, 60, 56
4, 15720, Note_off_c, 2, 60, 54
4, 15720, Note_on_c, 2, 59, 56
4, 15780, Note_off_c, 2, 59, 50
4, 15780, Note_on_c, 2, 57, 56
4, 15840, Note_off_c, 2, 57, 51
4, 15840, Note_on_c, 2, 51, 56
4, 15900, Note_off_c, 2, 51, 69
4, 15900, Note_on_c, 2, 54, 56
4, 15960, Note_off_c, 2, 54, 61
4, 15960, Note_on_c, 2, 55, 56
4, 16020, Note_off_c, 2, 55, 58
4, 16020, Note_on_c, 2, 57, 56
4, 16080, Note_off_c, 2, 57, 57
4, 16080, Note_on_c, 2, 55, 56
4, 16140, Note_off_c, 2, 55, 59
4, 16140, Note_on_c, 2, 57, 56
4, 16200, Note_off_c, 2, 57, 47
4, 16200, Note_on_c, 2, 55, 56
4, 16260, Note_off_c, 2, 55, 72
4, 16260, Note_on_c, 2, 54, 56
4, 16320, Note_off_c, 2, 54, 58
4, 16320, Note_on_c, 2, 50, 56
4, 16380, Note_off_c, 2, 50, 70
4, 16380, Note_on_c, 2, 56, 56
4, 16440, Note_off_c, 2, 56, 51
4, 16440, Note_on_c, 2, 57, 56
4, 16500, Note_off_c, 2, 57, 51
4, 16500, Note_on_c, 2, 59, 56
4, 16560, Note_off_c, 2, 59, 51
4, 16560, Note_on_c, 2, 57, 56
4, 16620, Note_off_c, 2, 57, 44
4, 16620, Note_on_c, 2, 59, 56
4, 16680, Note_off_c, 2, 59, 48
4, 16680, Note_on_c, 2, 57, 56
4, 16740, Note_off_c, 2, 57, 46
4, 16740, Note_on_c, 2, 56, 56
4, 16800, Note_off_c, 2, 56, 59
4, 16800, Note_on_c, 2, 49, 56
4, 16860, Note_off_c, 2, 49, 51
4, 16860, Note_on_c, 2, 52, 56
4, 16920, Note_off_c, 2, 52, 46
4, 16920, Note_on_c, 2, 54, 56
4, 16980, Note_off_c, 2, 54, 52
4, 16980, Note_on_c, 2, 55, 56
4, 17040, Note_off_c, 2, 55, 61
4, 17040, Note_on_c, 2, 54, 56
4, 17100, Note_off_c, 2, 54, 55
4, 17100, Note_on_c, 2, 55, 56
4, 17160, Note_off_c, 2, 55, 58
4, 17160, Note_on_c, 2, 54, 56
4, 17220, Note_off_c, 2, 54, 51
4, 17220, Note_on_c, 2, 52, 56
4, 17280, Note_off_c, 2, 52, 54
4, 17280, Note_on_c, 2, 48, 56
4, 17340, Note_off_c, 2, 48, 62
4, 17340, Note_on_c, 2, 54, 56
4, 17400, Note_off_c, 2, 54, 58
4, 17400, Note_on_c, 2, 55, 56
4, 17460, Note_off_c, 2, 55, 63
4, 17460, Note_on_c, 2, 57, 56
4, 17520, Note_off_c, 2, 57, 57
4, 17520, Note_on_c, 2, 55, 56
4, 17580, Note_off_c, 2, 55, 50
4, 17580, Note_on_c, 2, 57, 56
4, 17640, Note_off_c, 2, 57, 50
4, 17640, Note_on_c, 2, 55, 56
4, 17700, Note_off_c, 2, 55, 57
4, 17700, Note_on_c, 2, 54, 56
4, 17760, Note_off_c, 2, 54, 63
4, 17760, Note_on_c, 2, 47, 56
4, 17820, Note_off_c, 2, 47, 62
4, 17820, Note_on_c, 2, 52, 56
4, 17880, Note_off_c, 2, 52, 57
4, 17880, Note_on_c, 2, 54, 56
4, 17940, Note_off_c, 2, 54, 58
4, 17940, Note_on_c, 2, 55, 56
4, 18000, Note_off_c, 2, 55, 59
4, 18000, Note_on_c, 2, 54, 56
4, 18060, Note_off_c, 2, 54, 62
4, 18060, Note_on_c, 2, 55, 56
4, 18120, Note_off_c, 2, 55, 53
4, 18120, Note_on_c, 2, 54, 56
4, 18180, Note_off_c, 2, 54, 52
4, 18180, Note_on_c, 2, 52, 56
4, 18240, Note_off_c, 2, 52, 49
4, 18240, Note_on_c, 2, 46, 56
4, 18300, Note_off_c, 2, 46, 59
4, 18300, Note_on_c, 2, 52, 56
4, 18360, Note_off_c, 2, 52, 52
4, 18360, Note_on_c, 2, 54, 56
4, 18420, Note_off_c, 2, 54, 55
4, 18420, Note_on_c, 2, 55, 56
4, 18480, Note_off_c, 2, 55, 62
4, 18480, Note_on_c, 2, 54, 56
4, 18540, Note_off_c, 2, 54, 54
4, 18540, Note_on_c, 2, 55, 56
4, 18600, Note_off_c, 2, 55, 51
4, 18600, Note_on_c, 2, 54, 56
4, 18660, Note_off_c, 2, 54, 52
4, 18660, Note_on_c, 2, 52, 56
4, 18720, Note_off_c, 2, 52, 54
4, 18720, Note_on_c, 2, 47, 56
4, 18780, Note_off_c, 2, 47, 65
4, 18780, Note_on_c, 2, 54, 56
4, 18840, Note_off_c, 2, 54, 58
4, 18840, Note_on_c, 2, 55, 56
4, 18900, Note_off_c, 2, 55, 55
4, 18900, Note_on_c, 2, 57, 56
4, 18960, Note_off_c, 2, 57, 51
4, 18960, Note_on_c, 2, 55, 56
4, 19020, Note_off_c, 2, 55, 55
4, 19020, Note_on_c, 2, 57, 56
4, 19080, Note_off_c, 2, 57, 45
4, 19080, Note_on_c, 2, 55, 56
4, 19140, Note_off_c, 2, 55, 57
4, 19140, Note_on_c, 2, 54, 56
4, 19200, Note_off_c, 2, 54, 57
4, 19200, Note_on_c, 2, 52, 56
4, 19260, Note_off_c, 2, 52, 43
4, 19260, Note_on_c, 2, 55, 56
4, 19320, Note_off_c, 2, 55, 49
4, 19320, Note_on_c, 2, 57, 56
4, 19380, Note_off_c, 2, 57, 51
4, 19380, Note_on_c, 2, 59, 56
4, 19440, Note_off_c, 2, 59, 58
4, 19440, Note_on_c, 2, 57, 56
4, 19500, Note_off_c, 2, 57, 49
4, 19500, Note_on_c, 2, 59, 56
4, 19560, Note_off_c, 2, 59, 52
4, 19560, Note_on_c, 2, 57, 56
4, 19620, Note_off_c, 2, 57, 47
4, 19620, Note_on_c, 2, 55, 56
4, 19680, Note_off_c, 2, 55, 54
4, 19680, Note_on_c, 2, 50, 56
4, 19740, Note_off_c, 2, 50, 57
4, 19740, Note_on_c, 2, 56, 56
4, 19800, Note_off_c, 2, 56, 52
4, 19800, Note_on_c, 2, 57, 56
4, 19860, Note_off_c, 2, 57, 49
4, 19860, Note_on_c, 2, 59, 56
4, 19920, Note_off_c, 2, 59, 52
4, 19920, Note_on_c, 2, 57, 56
4, 19980, Note_off_c, 2, 57, 53
4, 19980, Note_on_c, 2, 59, 56
4, 20040, Note_off_c, 2, 59, 46
4, 20040, Note_on_c, 2, 57, 56
4, 20100, Note_off_c, 2, 57, 41
4, 20100, Note_on_c, 2, 56, 56
4, 20160, Note_off_c, 2, 56, 53
4, 20160, Note_on_c, 2, 48, 56
4, 20220, Note_off_c, 2, 48, 43
4, 20220, Note_on_c, 2, 57, 56
4, 20280, Note_off_c, 2, 57, 49
4, 20280, Note_on_c, 2, 59, 56
4, 20340, Note_off_c, 2, 59, 53
4, 20340, Note_on_c, 2, 60, 56
4, 20400, Note_off_c, 2, 60, 57
4, 20400, Note_on_c, 2, 59, 56
4, 20460, Note_off_c, 2, 59, 52
4, 20460, Note_on_c, 2, 60, 56
4, 20520, Note_off_c, 2, 60, 54
4, 20520, Note_on_c, 2, 59, 56
4, 20580, Note_off_c, 2, 59, 49
4, 20580, Note_on_c, 2, 57, 56
4, 20640, Note_off_c, 2, 57, 63
4, 20640, Note_on_c, 2, 56, 56
4, 20700, Note_off_c, 2, 56, 59
4, 20700, Note_on_c, 2, 59, 56
4, 20760, Note_off_c, 2, 59, 48
4, 20760, Note_on_c, 2, 60, 56
4, 20820, Note_off_c, 2, 60, 57
4, 20820, Note_on_c, 2, 62, 56
4, 20880, Note_off_c, 2, 62, 54
4, 20880, Note_on_c, 2, 60, 56
4, 20940, Note_off_c, 2, 60, 54
4, 20940, Note_on_c, 2, 62, 56
4, 21000, Note_off_c, 2, 62, 46
4, 21000, Note_on_c, 2, 60, 56
4, 21060, Note_off_c, 2, 60, 53
4, 21060, Note_on_c, 2, 59, 56
4, 21120, Note_off_c, 2, 59, 54
4, 21120, Note_on_c, 2, 57, 64
4, 21180, Note_off_c, 2, 57, 52
4, 21180, Note_on_c, 2, 60, 64
4, 21240, Note_off_c, 2, 60, 51
4, 21240, Note_on_c, 2, 62, 64
4, 21300, Note_off_c, 2, 62, 52
4, 21300, Note_on_c, 2, 64, 64
4, 21360, Note_off_c, 2, 64, 51
4, 21360, Note_on_c, 2, 62, 64
4, 21420, Note_off_c, 2, 62, 54
4, 21420, Note_on_c, 2, 64, 64
4, 21480, Note_off_c, 2, 64, 44
4, 21480, Note_on_c, 2, 62, 64
4, 21540, Note_off_c, 2, 62, 53
4, 21540, Note_on_c, 2, 60, 64
4, 21600, Note_off_c, 2, 60, 65
4, 21600, Note_on_c, 2, 57, 64
4, 21660, Note_off_c, 2, 57, 45
4, 21660, Note_on_c, 2, 60, 64
4, 21720, Note_off_c, 2, 60, 53
4, 21720, Note_on_c, 2, 62, 64
4, 21780, Note_off_c, 2, 62, 40
4, 21780, Note_on_c, 2, 64, 64
4, 21840, Note_off_c, 2, 64, 52
4, 21840, Note_on_c, 2, 62, 64
4, 21900, Note_off_c, 2, 62, 50
4, 21900, Note_on_c, 2, 64, 64
4, 21960, Note_off_c, 2, 64, 50
4, 21960, Note_on_c, 2, 62, 64
4, 22020, Note_off_c, 2, 62, 52
4, 22020, Note_on_c, 2, 60, 64
4, 22080, Note_off_c, 2, 60, 50
4, 22080, Note_on_c, 2, 57, 64
4, 22140, Note_off_c, 2, 57, 51
4, 22140, Note_on_c, 2, 62, 64
4, 22200, Note_off_c, 2, 62, 50
4, 22200, Note_on_c, 2, 64, 64
4, 22260, Note_off_c, 2, 64, 52
4, 22260, Note_on_c, 2, 65, 64
4, 22320, Note_off_c, 2, 65, 65
4, 22320, Note_on_c, 2, 64, 64
4, 22380, Note_off_c, 2, 64, 52
4, 22380, Note_on_c, 2, 65, 64
4, 22440, Note_off_c, 2, 65, 69
4, 22440, Note_on_c, 2, 64, 64
4, 22500, Note_off_c, 2, 64, 54
4, 22500, Note_on_c, 2, 62, 64
4, 22560, Note_off_c, 2, 62, 63
4, 22560, Note_on_c, 2, 57, 64
4, 22620, Note_off_c, 2, 57, 58
4, 22620, Note_on_c, 2, 62, 64
4, 22680, Note_off_c, 2, 62, 53
4, 22680, Note_on_c, 2, 64, 64
4, 22740, Note_off_c, 2, 64, 49
4, 22740, Note_on_c, 2, 65, 64
4, 22800, Note_off_c, 2, 65, 72
4, 22800, Note_on_c, 2, 64, 64
4, 22860, Note_off_c, 2, 64, 52
4, 22860, Note_on_c, 2, 65, 64
4, 22920, Note_off_c, 2, 65, 72
4, 22920, Note_on_c, 2, 64, 64
4, 22980, Note_off_c, 2, 64, 50
4, 22980, Note_on_c, 2, 62, 64
4, 23040, Note_off_c, 2, 62, 53
4, 23040, Note_on_c, 2, 56, 64
4, 23100, Note_off_c, 2, 56, 43
4, 23100, Note_on_c, 2, 62, 64
4, 23160, Note_off_c, 2, 62, 52
4, 23160, Note_on_c, 2, 64, 64
4, 23220, Note_off_c, 2, 64, 50
4, 23220, Note_on_c, 2, 65, 64
4, 23280, Note_off_c, 2, 65, 70
4, 23280, Note_on_c, 2, 64, 64
4, 23340, Note_off_c, 2, 64, 57
4, 23340, Note_on_c, 2, 65, 64
4, 23400, Note_off_c, 2, 65, 74
4, 23400, Note_on_c, 2, 64, 64
4, 23460, Note_off_c, 2, 64, 51
4, 23460, Note_on_c, 2, 62, 64
4, 23520, Note_off_c, 2, 62, 50
4, 23520, Note_on_c, 2, 56, 64
4, 23580, Note_off_c, 2, 56, 72
4, 23580, Note_on_c, 2, 59, 64
4, 23640, Note_off_c, 2, 59, 50
4, 23640, Note_on_c, 2, 60, 64
4, 23700, Note_off_c, 2, 60, 58
4, 23700, Note_on_c, 2, 62, 64
4, 23760, Note_off_c, 2, 62, 65
4, 23760, Note_on_c, 2, 60, 64
4, 23820, Note_off_c, 2, 60, 61
4, 23820, Note_on_c, 2, 62, 64
4, 23880, Note_off_c, 2, 62, 57
4, 23880, Note_on_c, 2, 60, 64
4, 23940, Note_off_c, 2, 60, 59
4, 23940, Note_on_c, 2, 59, 64
4, 24000, Note_off_c, 2, 59, 55
4, 24000, Note_on_c, 2, 57, 64
4, 24060, Note_off_c, 2, 57, 51
4, 24060, Note_on_c, 2, 59, 64
4, 24120, Note_off_c, 2, 59, 47
4, 24120, Note_on_c, 2, 60, 64
4, 24180, Note_off_c, 2, 60, 63
4, 24180, Note_on_c, 2, 62, 64
4, 24240, Note_off_c, 2, 62, 55
4, 24240, Note_on_c, 2, 60, 64
4, 24300, Note_off_c, 2, 60, 68
4, 24300, Note_on_c, 2, 62, 64
4, 24360, Note_off_c, 2, 62, 52
4, 24360, Note_on_c, 2, 60, 64
4, 24420, Note_off_c, 2, 60, 59
4, 24420, Note_on_c, 2, 59, 64
4, 24480, Note_off_c, 2, 59, 50
4, 24480, Note_on_c, 2, 57, 64
4, 24540, Note_off_c, 2, 57, 55
4, 24540, Note_on_c, 2, 59, 64
4, 24600, Note_off_c, 2, 59, 48
4, 24600, Note_on_c, 2, 60, 64
4, 24660, Note_off_c, 2, 60, 58
4, 24660, Note_on_c, 2, 62, 64
4, 24720, Note_off_c, 2, 62, 57
4, 24720, Note_on_c, 2, 60, 64
4, 24780, Note_off_c, 2, 60, 63
4, 24780, Note_on_c, 2, 62, 64
4, 24840, Note_off_c, 2, 62, 53
4, 24840, Note_on_c, 2, 60, 64
4, 24900, Note_off_c, 2, 60, 58
4, 24900, Note_on_c, 2, 59, 64
4, 24960, Note_off_c, 2, 59, 40
4, 24960, Note_on_c, 2, 55, 64
4, 25020, Note_off_c, 2, 55, 53
4, 25020, Note_on_c, 2, 61, 64
4, 25080, Note_off_c, 2, 61, 65
4, 25080, Note_on_c, 2, 62, 64
4, 25140, Note_off_c, 2, 62, 57
4, 25140, Note_on_c, 2, 64, 64
4, 25200, Note_off_c, 2, 64, 41
4, 25200, Note_on_c, 2, 62, 64
4, 25260, Note_off_c, 2, 62, 58
4, 25260, Note_on_c, 2, 64, 64
4, 25320, Note_off_c, 2, 64, 52
4, 25320, Note_on_c, 2, 62, 64
4, 25380, Note_off_c, 2, 62, 49
4, 25380, Note_on_c, 2, 61, 64
4, 25440, Note_off_c, 2, 61, 66
4, 25440, Note_on_c, 2, 54, 64
4, 25500, Note_off_c, 2, 54, 51
4, 25500, Note_on_c, 2, 63, 64
4, 25560, Note_off_c, 2, 63, 49
4, 25560, Note_on_c, 2, 64, 64
4, 25620, Note_off_c, 2, 64, 54
4, 25620, Note_on_c, 2, 66, 64
4, 25680, Note_off_c, 2, 66, 69
4, 25680, Note_on_c, 2, 64, 64
4, 25740, Note_off_c, 2, 64, 53
4, 25740, Note_on_c, 2, 66, 64
4, 25800, Note_off_c, 2, 66, 76
4, 25800, Note_on_c, 2, 64, 64
4, 25860, Note_off_c, 2, 64, 49
4, 25860, Note_on_c, 2, 63, 64
4, 25920, Note_off_c, 2, 63, 51
4, 25920, Note_on_c, 2, 64, 64
4, 25980, Note_off_c, 2, 64, 57
4, 25980, Note_on_c, 2, 52, 64
4, 26040, Note_off_c, 2, 52, 70
4, 26040, Note_on_c, 2, 54, 64
4, 26100, Note_off_c, 2, 54, 54
4, 26100, Note_on_c, 2, 55, 64
4, 26160, Note_off_c, 2, 55, 68
4, 26160, Note_on_c, 2, 54, 64
4, 26220, Note_off_c, 2, 54, 62
4, 26220, Note_on_c, 2, 55, 64
4, 26280, Note_off_c, 2, 55, 61
4, 26280, Note_on_c, 2, 54, 64
4, 26340, Note_off_c, 2, 54, 59
4, 26340, Note_on_c, 2, 52, 64
4, 26400, Note_off_c, 2, 52, 49
4, 26400, Note_on_c, 2, 50, 64
4, 26460, Note_off_c, 2, 50, 49
4, 26460, Note_on_c, 2, 52, 64
4, 26520, Note_off_c, 2, 52, 70
4, 26520, Note_on_c, 2, 53, 64
4, 26580, Note_off_c, 2, 53, 54
4, 26580, Note_on_c, 2, 55, 64
4, 26640, Note_off_c, 2, 55, 66
4, 26640, Note_on_c, 2, 53, 64
4, 26700, Note_off_c, 2, 53, 58
4, 26700, Note_on_c, 2, 55, 64
4, 26760, Note_off_c, 2, 55, 68
4, 26760, Note_on_c, 2, 53, 64
4, 26820, Note_off_c, 2, 53, 58
4, 26820, Note_on_c, 2, 52, 64
4, 26880, Note_off_c, 2, 52, 53
4, 26880, Note_on_c, 2, 48, 64
4, 26940, Note_off_c, 2, 48, 45
4, 26940, Note_on_c, 2, 54, 64
4, 27000, Note_off_c, 2, 54, 63
4, 27000, Note_on_c, 2, 56, 64
4, 27060, Note_off_c, 2, 56, 54
4, 27060, Note_on_c, 2, 57, 64
4, 27120, Note_off_c, 2, 57, 62
4, 27120, Note_on_c, 2, 56, 64
4, 27180, Note_off_c, 2, 56, 59
4, 27180, Note_on_c, 2, 57, 64
4, 27240, Note_off_c, 2, 57, 53
4, 27240, Note_on_c, 2, 56, 64
4, 27300, Note_off_c, 2, 56, 55
4, 27300, Note_on_c, 2, 54, 64
4, 27360, Note_off_c, 2, 54, 58
4, 27360, Note_on_c, 2, 47, 64
4, 27420, Note_off_c, 2, 47, 54
4, 27420, Note_on_c, 2, 56, 64
4, 27480, Note_off_c, 2, 56, 52
4, 27480, Note_on_c, 2, 57, 64
4, 27540, Note_off_c, 2, 57, 55
4, 27540, Note_on_c, 2, 59, 64
4, 27600, Note_off_c, 2, 59, 54
4, 27600, Note_on_c, 2, 57, 64
4, 27660, Note_off_c, 2, 57, 54
4, 27660, Note_on_c, 2, 59, 64
4, 27720, Note_off_c, 2, 59, 51
4, 27720, Note_on_c, 2, 57, 64
4, 27780, Note_off_c, 2, 57, 45
4, 27780, Note_on_c, 2, 56, 64
4, 27840, Note_off_c, 2, 56, 52
4, 27840, Note_on_c, 2, 57, 64
4, 27900, Note_off_c, 2, 57, 54
4, 27900, Note_on_c, 2, 45, 64
4, 27960, Note_off_c, 2, 45, 55
4, 27960, Note_on_c, 2, 47, 64
4, 28020, Note_off_c, 2, 47, 47
4, 28020, Note_on_c, 2, 48, 64
4, 28080, Note_off_c, 2, 48, 51
4, 28080, Note_on_c, 2, 47, 64
4, 28140, Note_off_c, 2, 47, 66
4, 28140, Note_on_c, 2, 48, 64
4, 28200, Note_off_c, 2, 48, 43
4, 28200, Note_on_c, 2, 47, 64
4, 28260, Note_off_c, 2, 47, 54
4, 28260, Note_on_c, 2, 45, 64
4, 28320, Note_off_c, 2, 45, 62
4, 28320, Note_on_c, 2, 43, 64
4, 28380, Note_off_c, 2, 43, 58
4, 28380, Note_on_c, 2, 45, 64
4, 28440, Note_off_c, 2, 45, 54
4, 28440, Note_on_c, 2, 47, 64
4, 28500, Note_off_c, 2, 47, 58
4, 28500, Note_on_c, 2, 48, 64
4, 28560, Note_off_c, 2, 48, 61
4, 28560, Note_on_c, 2, 47, 64
4, 28620, Note_off_c, 2, 47, 51
4, 28620, Note_on_c, 2, 48, 64
4, 28680, Note_off_c, 2, 48, 45
4, 28680, Note_on_c, 2, 47, 64
4, 28740, Note_off_c, 2, 47, 52
4, 28740, Note_on_c, 2, 45, 64
4, 28800, Note_off_c, 2, 45, 53
4, 28800, Note_on_c, 2, 42, 64
4, 28860, Note_off_c, 2, 42, 70
4, 28860, Note_on_c, 2, 45, 64
4, 28920, Note_off_c, 2, 45, 62
4, 28920, Note_on_c, 2, 47, 64
4, 28980, Note_off_c, 2, 47, 55
4, 28980, Note_on_c, 2, 48, 64
4, 29040, Note_off_c, 2, 48, 57
4, 29040, Note_on_c, 2, 47, 64
4, 29100, Note_off_c, 2, 47, 58
4, 29100, Note_on_c, 2, 48, 64
4, 29160, Note_off_c, 2, 48, 50
4, 29160, Note_on_c, 2, 47, 64
4, 29220, Note_off_c, 2, 47, 47
4, 29220, Note_on_c, 2, 45, 64
4, 29280, Note_off_c, 2, 45, 46
4, 29280, Note_on_c, 2, 40, 64
4, 29340, Note_off_c, 2, 40, 40
4, 29340, Note_on_c, 2, 45, 64
4, 29400, Note_off_c, 2, 45, 46
4, 29400, Note_on_c, 2, 47, 64
4, 29460, Note_off_c, 2, 47, 49
4, 29460, Note_on_c, 2, 48, 64
4, 29520, Note_off_c, 2, 48, 54
4, 29520, Note_on_c, 2, 47, 64
4, 29580, Note_off_c, 2, 47, 58
4, 29580, Note_on_c, 2, 48, 64
4, 29640, Note_off_c, 2, 48, 51
4, 29640, Note_on_c, 2, 47, 64
4, 29700, Note_off_c, 2, 47, 49
4, 29700, Note_on_c, 2, 45, 64
4, 29760, Note_off_c, 2, 45, 34
4, 29760, Note_on_c, 2, 39, 64
4, 29820, Note_off_c, 2, 39, 43
4, 29820, Note_on_c, 2, 45, 64
4, 29880, Note_off_c, 2, 45, 58
4, 29880, Note_on_c, 2, 47, 64
4, 29940, Note_off_c, 2, 47, 54
4, 29940, Note_on_c, 2, 48, 64
4, 30000, Note_off_c, 2, 48, 55
4, 30000, Note_on_c, 2, 47, 64
4, 30060, Note_off_c, 2, 47, 52
4, 30060, Note_on_c, 2, 48, 64
4, 30120, Note_off_c, 2, 48, 43
4, 30120, Note_on_c, 2, 47, 64
4, 30180, Note_off_c, 2, 47, 43
4, 30180, Note_on_c, 2, 45, 64
4, 30240, Note_off_c, 2, 45, 43
4, 30240, Note_on_c, 2, 40, 64
4, 30300, Note_off_c, 2, 40, 43
4, 30300, Note_on_c, 2, 43, 64
4, 30360, Note_off_c, 2, 43, 39
4, 30360, Note_on_c, 2, 45, 64
4, 30420, Note_off_c, 2, 45, 45
4, 30420, Note_on_c, 2, 47, 64
4, 30480, Note_off_c, 2, 47, 53
4, 30480, Note_on_c, 2, 45, 64
4, 30540, Note_off_c, 2, 45, 51
4, 30540, Note_on_c, 2, 47, 64
4, 30600, Note_off_c, 2, 47, 41
4, 30600, Note_on_c, 2, 45, 64
4, 30660, Note_off_c, 2, 45, 46
4, 30660, Note_on_c, 2, 43, 64
4, 30720, Note_off_c, 2, 43, 62
4, 30720, Note_on_c, 2, 36, 64
4, 30840, Note_off_c, 2, 36, 49
4, 31260, Note_on_c, 2, 57, 64
4, 31320, Note_off_c, 2, 57, 53
4, 31320, Note_on_c, 2, 59, 64
4, 31380, Note_off_c, 2, 59, 59
4, 31380, Note_on_c, 2, 60, 64
4, 31440, Note_off_c, 2, 60, 65
4, 31440, Note_on_c, 2, 59, 64
4, 31500, Note_off_c, 2, 59, 57
4, 31500, Note_on_c, 2, 60, 64
4, 31560, Note_off_c, 2, 60, 59
4, 31560, Note_on_c, 2, 59, 64
4, 31620, Note_off_c, 2, 59, 51
4, 31620, Note_on_c, 2, 57, 64
4, 31680, Note_off_c, 2, 57, 43
4, 31680, Note_on_c, 2, 49, 64
4, 31800, Note_off_c, 2, 49, 70
4, 32160, Note_on_c, 2, 47, 64
4, 32220, Note_off_c, 2, 47, 55
4, 32220, Note_on_c, 2, 54, 64
4, 32280, Note_off_c, 2, 54, 55
4, 32280, Note_on_c, 2, 55, 64
4, 32340, Note_off_c, 2, 55, 62
4, 32340, Note_on_c, 2, 57, 64
4, 32400, Note_off_c, 2, 57, 54
4, 32400, Note_on_c, 2, 55, 64
4, 32460, Note_off_c, 2, 55, 61
4, 32460, Note_on_c, 2, 57, 64
4, 32520, Note_off_c, 2, 57, 50
4, 32520, Note_on_c, 2, 55, 64
4, 32580, Note_off_c, 2, 55, 68
4, 32580, Note_on_c, 2, 54, 64
4, 32640, Note_off_c, 2, 54, 57
4, 32640, Note_on_c, 2, 47, 64
4, 32700, Note_off_c, 2, 47, 57
4, 32700, Note_on_c, 2, 55, 64
4, 32760, Note_off_c, 2, 55, 50
4, 32760, Note_on_c, 2, 57, 64
4, 32820, Note_off_c, 2, 57, 51
4, 32820, Note_on_c, 2, 59, 64
4, 32880, Note_off_c, 2, 59, 55
4, 32880, Note_on_c, 2, 57, 64
4, 32940, Note_off_c, 2, 57, 53
4, 32940, Note_on_c, 2, 59, 64
4, 33000, Note_off_c, 2, 59, 53
4, 33000, Note_on_c, 2, 57, 64
4, 33060, Note_off_c, 2, 57, 45
4, 33060, Note_on_c, 2, 55, 64
4, 33120, Note_off_c, 2, 55, 69
4, 33120, Note_on_c, 2, 47, 64
4, 33180, Note_off_c, 2, 47, 58
4, 33180, Note_on_c, 2, 57, 64
4, 33240, Note_off_c, 2, 57, 59
4, 33240, Note_on_c, 2, 59, 64
4, 33300, Note_off_c, 2, 59, 58
4, 33300, Note_on_c, 2, 60, 64
4, 33360, Note_off_c, 2, 60, 57
4, 33360, Note_on_c, 2, 59, 64
4, 33420, Note_off_c, 2, 59, 52
4, 33420, Note_on_c, 2, 60, 64
4, 33480, Note_off_c, 2, 60, 54
4, 33480, Note_on_c, 2, 59, 64
4, 33540, Note_off_c, 2, 59, 46
4, 33540, Note_on_c, 2, 57, 64
4, 33600, Note_off_c, 2, 57, 43
4, 33600, Note_on_c, 2, 47, 64
4, 33660, Note_off_c, 2, 47, 59
4, 33660, Note_on_c, 2, 59, 64
4, 33720, Note_off_c, 2, 59, 55
4, 33720, Note_on_c, 2, 60, 64
4, 33780, Note_off_c, 2, 60, 49
4, 33780, Note_on_c, 2, 62, 64
4, 33840, Note_off_c, 2, 62, 54
4, 33840, Note_on_c, 2, 60, 64
4, 33900, Note_off_c, 2, 60, 59
4, 33900, Note_on_c, 2, 62, 64
4, 33960, Note_off_c, 2, 62, 57
4, 33960, Note_on_c, 2, 60, 64
4, 34020, Note_off_c, 2, 60, 49
4, 34020, Note_on_c, 2, 59, 64
4, 34080, Note_off_c, 2, 59, 40
4, 34080, Note_on_c, 2, 47, 64
4, 34140, Note_off_c, 2, 47, 63
4, 34140, Note_on_c, 2, 57, 64
4, 34200, Note_off_c, 2, 57, 38
4, 34200, Note_on_c, 2, 59, 64
4, 34260, Note_off_c, 2, 59, 53
4, 34260, Note_on_c, 2, 60, 64
4, 34320, Note_off_c, 2, 60, 59
4, 34320, Note_on_c, 2, 59, 64
4, 34380, Note_off_c, 2, 59, 50
4, 34380, Note_on_c, 2, 60, 64
4, 34440, Note_off_c, 2, 60, 54
4, 34440, Note_on_c, 2, 59, 64
4, 34500, Note_off_c, 2, 59, 49
4, 34500, Note_on_c, 2, 57, 64
4, 34560, Note_off_c, 2, 57, 50
4, 34560, Note_on_c, 2, 47, 64
4, 34620, Note_off_c, 2, 47, 70
4, 34620, Note_on_c, 2, 55, 64
4, 34680, Note_off_c, 2, 55, 53
4, 34680, Note_on_c, 2, 57, 64
4, 34740, Note_off_c, 2, 57, 52
4, 34740, Note_on_c, 2, 59, 64
4, 34800, Note_off_c, 2, 59, 50
4, 34800, Note_on_c, 2, 57, 64
4, 34860, Note_off_c, 2, 57, 57
4, 34860, Note_on_c, 2, 59, 64
4, 34920, Note_off_c, 2, 59, 52
4, 34920, Note_on_c, 2, 57, 64
4, 34980, Note_off_c, 2, 57, 40
4, 34980, Note_on_c, 2, 55, 64
4, 35040, Note_off_c, 2, 55, 46
4, 35040, Note_on_c, 2, 47, 64
4, 35100, Note_off_c, 2, 47, 63
4, 35100, Note_on_c, 2, 54, 64
4, 35160, Note_off_c, 2, 54, 61
4, 35160, Note_on_c, 2, 55, 64
4, 35220, Note_off_c, 2, 55, 65
4, 35220, Note_on_c, 2, 57, 64
4, 35280, Note_off_c, 2, 57, 51
4, 35280, Note_on_c, 2, 55, 64
4, 35340, Note_off_c, 2, 55, 59
4, 35340, Note_on_c, 2, 57, 64
4, 35400, Note_off_c, 2, 57, 51
4, 35400, Note_on_c, 2, 55, 64
4, 35460, Note_off_c, 2, 55, 57
4, 35460, Note_on_c, 2, 54, 64
4, 35520, Note_off_c, 2, 54, 57
4, 35520, Note_on_c, 2, 55, 64
4, 35580, Note_off_c, 2, 55, 55
4, 35580, Note_on_c, 2, 59, 64
4, 35640, Note_off_c, 2, 59, 52
4, 35640, Note_on_c, 2, 57, 64
4, 35700, Note_off_c, 2, 57, 49
4, 35700, Note_on_c, 2, 55, 64
4, 35760, Note_off_c, 2, 55, 59
4, 35760, Note_on_c, 2, 54, 64
4, 35820, Note_off_c, 2, 54, 53
4, 35820, Note_on_c, 2, 52, 64
4, 35880, Note_off_c, 2, 52, 72
4, 35880, Note_on_c, 2, 51, 64
4, 35940, Note_off_c, 2, 51, 52
4, 35940, Note_on_c, 2, 54, 64
4, 36000, Note_off_c, 2, 54, 54
4, 36000, Note_on_c, 2, 47, 64
4, 36060, Note_on_c, 2, 51, 64
4, 36120, Note_off_c, 2, 51, 59
4, 36120, Note_on_c, 2, 52, 64
4, 36180, Note_off_c, 2, 52, 65
4, 36180, Note_on_c, 2, 54, 64
4, 36240, Note_off_c, 2, 54, 65
4, 36240, Note_on_c, 2, 52, 64
4, 36300, Note_off_c, 2, 52, 69
4, 36300, Note_on_c, 2, 54, 64
4, 36360, Note_off_c, 2, 54, 57
4, 36360, Note_on_c, 2, 52, 64
4, 36420, Note_off_c, 2, 52, 70
4, 36420, Note_on_c, 2, 51, 64
4, 36480, Note_off_c, 2, 51, 63
4, 36480, Note_off_c, 2, 47, 61
4, 36480, Note_on_c, 2, 47, 64
4, 36540, Note_on_c, 2, 52, 64
4, 36600, Note_off_c, 2, 52, 46
4, 36600, Note_on_c, 2, 54, 64
4, 36660, Note_off_c, 2, 54, 58
4, 36660, Note_on_c, 2, 55, 64
4, 36720, Note_off_c, 2, 55, 68
4, 36720, Note_on_c, 2, 54, 64
4, 36780, Note_off_c, 2, 54, 65
4, 36780, Note_on_c, 2, 55, 64
4, 36840, Note_off_c, 2, 55, 55
4, 36840, Note_on_c, 2, 54, 64
4, 36900, Note_off_c, 2, 54, 54
4, 36900, Note_on_c, 2, 52, 64
4, 36960, Note_off_c, 2, 52, 57
4, 36960, Note_off_c, 2, 47, 49
4, 36960, Note_on_c, 2, 47, 64
4, 37020, Note_on_c, 2, 54, 64
4, 37080, Note_off_c, 2, 54, 62
4, 37080, Note_on_c, 2, 55, 64
4, 37140, Note_off_c, 2, 55, 61
4, 37140, Note_on_c, 2, 57, 64
4, 37200, Note_off_c, 2, 57, 53
4, 37200, Note_on_c, 2, 55, 64
4, 37260, Note_off_c, 2, 55, 62
4, 37260, Note_on_c, 2, 57, 64
4, 37320, Note_off_c, 2, 57, 49
4, 37320, Note_on_c, 2, 55, 64
4, 37380, Note_off_c, 2, 55, 66
4, 37380, Note_on_c, 2, 54, 64
4, 37440, Note_off_c, 2, 54, 52
4, 37440, Note_off_c, 2, 47, 49
4, 37440, Note_on_c, 2, 52, 64
4, 37440, Note_on_c, 2, 48, 64
4, 37560, Note_off_c, 2, 48, 70
4, 37560, Note_off_c, 2, 52, 53
4, 37920, Note_on_c, 2, 45, 64
4, 37980, Note_off_c, 2, 45, 46
4, 37980, Note_on_c, 2, 47, 64
4, 38040, Note_off_c, 2, 47, 69
4, 38040, Note_on_c, 2, 48, 64
4, 38100, Note_off_c, 2, 48, 59
4, 38100, Note_on_c, 2, 50, 64
4, 38160, Note_off_c, 2, 50, 63
4, 38160, Note_on_c, 2, 52, 64
4, 38220, Note_off_c, 2, 52, 69
4, 38220, Note_on_c, 2, 54, 64
4, 38280, Note_off_c, 2, 54, 68
4, 38280, Note_on_c, 2, 55, 64
4, 38340, Note_off_c, 2, 55, 57
4, 38340, Note_on_c, 2, 57, 64
4, 38400, Note_on_c, 2, 47, 64
4, 38580, Note_off_c, 2, 57, 49
4, 38580, Note_on_c, 2, 57, 64
4, 38640, Note_off_c, 2, 57, 53
4, 38640, Note_on_c, 2, 55, 64
4, 38760, Note_off_c, 2, 55, 61
4, 38760, Note_on_c, 2, 54, 64
4, 38880, Note_off_c, 2, 54, 49
4, 38880, Note_off_c, 2, 47, 77
4, 38880, Note_on_c, 2, 40, 64
4, 38880, Note_on_c, 2, 52, 64
4, 39360, Note_off_c, 2, 52, 79
4, 39360, Note_off_c, 2, 40, 68
4, 39360, End_track
0, 0, End_of_file
