0, 0, Header, 1, 2, 240
1, 0, Start_track
1, 0, Time_signature, 4, 2, 24, 8
1, 0, Tempo, 869565
1, 25476, Tempo, 895522
1, 25608, Tempo, 952381
1, 25692, Tempo, 1034483
1, 25776, Tempo, 1153846
1, 25860, Tempo, 1428571
1, 25920, Tempo, 1224490
1, 26880, Tempo, 869565
1, 26880, End_track
2, 0, Start_track
2, 120, Note_on_c, 0, 67, 64
2, 240, Note_off_c, 0, 67, 64
2, 240, Note_on_c, 0, 63, 64
2, 360, Note_off_c, 0, 63, 64
2, 360, Note_on_c, 0, 65, 64
2, 480, Note_off_c, 0, 65, 64
2, 480, Note_on_c, 0, 67, 64
2, 600, Note_off_c, 0, 67, 64
2, 600, Note_on_c, 0, 60, 64
2, 720, Note_off_c, 0, 60, 64
2, 720, Note_on_c, 0, 65, 64
2, 840, Note_off_c, 0, 65, 64
2, 840, Note_on_c, 0, 63, 64
2, 900, Note_off_c, 0, 63, 64
2, 900, Note_on_c, 0, 62, 64
2, 960, Note_off_c, 0, 62, 64
2, 960, Note_on_c, 0, 63, 64
2, 1080, Note_on_c, 0, 72, 64
2, 1200, Note_off_c, 0, 72, 64
2, 1200, Note_off_c, 0, 63, 64
2, 1200, Note_on_c, 0, 70, 64
2, 1200, Note_on_c, 0, 62, 64
2, 1320, Note_off_c, 0, 62, 64
2, 1320, Note_off_c, 0, 70, 64
2, 1320, Note_on_c, 0, 72, 64
2, 1320, Note_on_c, 0, 60, 64
2, 1440, Note_off_c, 0, 60, 64
2, 1440, Note_off_c, 0, 72, 64
2, 1440, Note_on_c, 0, 74, 64
2, 1440, Note_on_c, 0, 58, 64
2, 1560, Note_off_c, 0, 74, 64
2, 1560, Note_on_c, 0, 67, 64
2, 1680, Note_off_c, 0, 67, 64
2, 1680, Note_off_c, 0, 58, 64
2, 1680, Note_on_c, 0, 57, 64
2, 1680, Note_on_c, 0, 72, 64
2, 1800, Note_off_c, 0, 72, 64
2, 1800, Note_on_c, 0, 70, 64
2, 1860, Note_off_c, 0, 70, 64
2, 1860, Note_on_c, 0, 69, 64
2, 1920, Note_off_c, 0, 69, 64
2, 1920, Note_off_c, 0, 57, 64
2, 1920, Note_on_c, 0, 70, 64
2, 1920, Note_on_c, 0, 55, 64
2, 2040, Note_off_c, 0, 55, 64
2, 2040, Note_on_c, 0, 67, 64
2, 2160, Note_off_c, 0, 70, 64
2, 2160, Note_on_c, 0, 68, 64
2, 2280, Note_off_c, 0, 67, 64
2, 2280, Note_on_c, 0, 65, 64
2, 2400, Note_off_c, 0, 68, 64
2, 2400, Note_on_c, 0, 67, 64
2, 2520, Note_off_c, 0, 67, 64
2, 2520, Note_off_c, 0, 65, 64
2, 2520, Note_on_c, 0, 72, 64
2, 2520, Note_on_c, 0, 63, 64
2, 2640, Note_off_c, 0, 72, 64
2, 2640, Note_on_c, 0, 65, 64
2, 2760, Note_off_c, 0, 63, 64
2, 2760, Note_on_c, 0, 62, 64
2, 2820, Note_off_c, 0, 62, 64
2, 2820, Note_on_c, 0, 60, 64
2, 2880, Note_off_c, 0, 60, 64
2, 2880, Note_on_c, 0, 59, 64
2, 3000, Note_off_c, 0, 65, 64
2, 3000, Note_on_c, 0, 63, 64
2, 3000, Note_on_c, 0, 55, 64
2, 3060, Note_off_c, 0, 63, 64
2, 3060, Note_on_c, 0, 62, 64
2, 3120, Note_off_c, 0, 62, 64
2, 3120, Note_off_c, 0, 55, 64
2, 3120, Note_off_c, 0, 59, 64
2, 3120, Note_on_c, 0, 67, 64
2, 3120, Note_on_c, 0, 60, 64
2, 3120, Note_on_c, 0, 51, 64
2, 3240, Note_off_c, 0, 51, 64
2, 3240, Note_off_c, 0, 67, 64
2, 3240, Note_on_c, 0, 65, 64
2, 3240, Note_on_c, 0, 53, 64
2, 3360, Note_off_c, 0, 53, 64
2, 3360, Note_off_c, 0, 65, 64
2, 3360, Note_on_c, 0, 63, 64
2, 3360, Note_on_c, 0, 55, 64
2, 3480, Note_off_c, 0, 55, 64
2, 3480, Note_on_c, 0, 48, 64
2, 3600, Note_off_c, 0, 48, 64
2, 3600, Note_off_c, 0, 63, 64
2, 3600, Note_off_c, 0, 60, 64
2, 3600, Note_on_c, 0, 62, 64
2, 3600, Note_on_c, 0, 59, 64
2, 3600, Note_on_c, 0, 53, 64
2, 3720, Note_off_c, 0, 53, 64
2, 3720, Note_on_c, 0, 51, 64
2, 3780, Note_off_c, 0, 51, 64
2, 3780, Note_on_c, 0, 50, 64
2, 3840, Note_off_c, 0, 50, 64
2, 3840, Note_off_c, 0, 59, 64
2, 3840, Note_off_c, 0, 62, 64
2, 3840, Note_on_c, 0, 60, 64
2, 3840, Note_on_c, 0, 51, 64
2, 3900, Note_off_c, 0, 51, 64
2, 3900, Note_on_c, 0, 55, 64
2, 3960, Note_off_c, 0, 55, 64
2, 3960, Note_on_c, 0, 67, 64
2, 3960, Note_on_c, 0, 48, 64
2, 4020, Note_off_c, 0, 48, 64
2, 4020, Note_on_c, 0, 50, 64
2, 4080, Note_off_c, 0, 50, 64
2, 4080, Note_off_c, 0, 67, 64
2, 4080, Note_off_c, 0, 60, 64
2, 4080, Note_on_c, 0, 72, 64
2, 4080, Note_on_c, 0, 51, 64
2, 4140, Note_off_c, 0, 51, 64
2, 4140, Note_on_c, 0, 53, 64
2, 4200, Note_off_c, 0, 53, 64
2, 4200, Note_on_c, 0, 63, 64
2, 4200, Note_on_c, 0, 55, 64
2, 4260, Note_off_c, 0, 55, 64
2, 4260, Note_on_c, 0, 57, 64
2, 4320, Note_off_c, 0, 57, 64
2, 4320, Note_off_c, 0, 63, 64
2, 4320, Note_on_c, 0, 62, 64
2, 4320, Note_on_c, 0, 58, 64
2, 4380, Note_off_c, 0, 58, 64
2, 4380, Note_off_c, 0, 62, 64
2, 4380, Note_on_c, 0, 66, 64
2, 4380, Note_on_c, 0, 62, 64
2, 4440, Note_off_c, 0, 62, 64
2, 4440, Note_off_c, 0, 66, 64
2, 4440, Note_off_c, 0, 72, 64
2, 4440, Note_on_c, 0, 70, 64
2, 4440, Note_on_c, 0, 67, 64
2, 4440, Note_on_c, 0, 55, 64
2, 4500, Note_off_c, 0, 55, 64
2, 4500, Note_off_c, 0, 70, 64
2, 4500, Note_on_c, 0, 72, 64
2, 4500, Note_on_c, 0, 57, 64
2, 4560, Note_off_c, 0, 57, 64
2, 4560, Note_off_c, 0, 72, 64
2, 4560, Note_off_c, 0, 67, 64
2, 4560, Note_on_c, 0, 74, 64
2, 4560, Note_on_c, 0, 58, 64
2, 4620, Note_off_c, 0, 58, 64
2, 4620, Note_off_c, 0, 74, 64
2, 4620, Note_on_c, 0, 76, 64
2, 4620, Note_on_c, 0, 60, 64
2, 4680, Note_off_c, 0, 60, 64
2, 4680, Note_off_c, 0, 76, 64
2, 4680, Note_on_c, 0, 77, 64
2, 4680, Note_on_c, 0, 62, 64
2, 4740, Note_off_c, 0, 62, 64
2, 4740, Note_off_c, 0, 77, 64
2, 4740, Note_on_c, 0, 79, 64
2, 4740, Note_on_c, 0, 64, 64
2, 4800, Note_off_c, 0, 64, 64
2, 4800, Note_off_c, 0, 79, 64
2, 4800, Note_on_c, 0, 80, 64
2, 4800, Note_on_c, 0, 65, 64
2, 4860, Note_off_c, 0, 80, 64
2, 4860, Note_on_c, 0, 77, 64
2, 4920, Note_off_c, 0, 77, 64
2, 4920, Note_off_c, 0, 65, 64
2, 4920, Note_on_c, 0, 84, 64
2, 4920, Note_on_c, 0, 56, 64
2, 4980, Note_off_c, 0, 84, 64
2, 4980, Note_on_c, 0, 82, 64
2, 5040, Note_off_c, 0, 82, 64
2, 5040, Note_off_c, 0, 56, 64
2, 5040, Note_on_c, 0, 80, 64
2, 5040, Note_on_c, 0, 53, 64
2, 5100, Note_off_c, 0, 80, 64
2, 5100, Note_on_c, 0, 79, 64
2, 5160, Note_off_c, 0, 79, 64
2, 5160, Note_off_c, 0, 53, 64
2, 5160, Note_on_c, 0, 77, 64
2, 5160, Note_on_c, 0, 56, 64
2, 5220, Note_off_c, 0, 77, 64
2, 5220, Note_on_c, 0, 75, 64
2, 5280, Note_off_c, 0, 75, 64
2, 5280, Note_off_c, 0, 56, 64
2, 5280, Note_on_c, 0, 58, 64
2, 5280, Note_on_c, 0, 74, 64
2, 5340, Note_off_c, 0, 74, 64
2, 5340, Note_on_c, 0, 70, 64
2, 5400, Note_off_c, 0, 70, 64
2, 5400, Note_off_c, 0, 58, 64
2, 5400, Note_on_c, 0, 77, 64
2, 5400, Note_on_c, 0, 62, 64
2, 5460, Note_off_c, 0, 77, 64
2, 5460, Note_on_c, 0, 75, 64
2, 5520, Note_off_c, 0, 75, 64
2, 5520, Note_off_c, 0, 62, 64
2, 5520, Note_on_c, 0, 74, 64
2, 5520, Note_on_c, 0, 58, 64
2, 5580, Note_off_c, 0, 74, 64
2, 5580, Note_on_c, 0, 72, 64
2, 5640, Note_off_c, 0, 72, 64
2, 5640, Note_off_c, 0, 58, 64
2, 5640, Note_on_c, 0, 62, 64
2, 5640, Note_on_c, 0, 70, 64
2, 5700, Note_off_c, 0, 70, 64
2, 5700, Note_on_c, 0, 68, 64
2, 5760, Note_off_c, 0, 68, 64
2, 5760, Note_off_c, 0, 62, 64
2, 5760, Note_on_c, 0, 67, 64
2, 5760, Note_on_c, 0, 63, 64
2, 5820, Note_off_c, 0, 63, 64
2, 5820, Note_on_c, 0, 60, 64
2, 5880, Note_off_c, 0, 60, 64
2, 5880, Note_off_c, 0, 67, 64
2, 5880, Note_on_c, 0, 68, 64
2, 5880, Note_on_c, 0, 48, 64
2, 5940, Note_off_c, 0, 68, 64
2, 5940, Note_on_c, 0, 67, 64
2, 6000, Note_off_c, 0, 67, 64
2, 6000, Note_off_c, 0, 48, 64
2, 6000, Note_on_c, 0, 65, 64
2, 6000, Note_on_c, 0, 47, 64
2, 6060, Note_off_c, 0, 65, 64
2, 6060, Note_on_c, 0, 63, 64
2, 6120, Note_off_c, 0, 63, 64
2, 6120, Note_off_c, 0, 47, 64
2, 6120, Note_on_c, 0, 62, 64
2, 6120, Note_on_c, 0, 48, 64
2, 6180, Note_off_c, 0, 62, 64
2, 6180, Note_on_c, 0, 60, 64
2, 6240, Note_off_c, 0, 60, 64
2, 6240, Note_off_c, 0, 48, 64
2, 6240, Note_on_c, 0, 59, 64
2, 6240, Note_on_c, 0, 50, 64
2, 6300, Note_off_c, 0, 59, 64
2, 6300, Note_on_c, 0, 65, 64
2, 6360, Note_off_c, 0, 65, 64
2, 6360, Note_off_c, 0, 50, 64
2, 6360, Note_on_c, 0, 63, 64
2, 6360, Note_on_c, 0, 43, 64
2, 6420, Note_off_c, 0, 63, 64
2, 6420, Note_on_c, 0, 62, 64
2, 6480, Note_off_c, 0, 62, 64
2, 6480, Note_off_c, 0, 43, 64
2, 6480, Note_on_c, 0, 63, 64
2, 6480, Note_on_c, 0, 48, 64
2, 6540, Note_off_c, 0, 63, 64
2, 6540, Note_on_c, 0, 68, 64
2, 6600, Note_off_c, 0, 68, 64
2, 6600, Note_off_c, 0, 48, 64
2, 6600, Note_on_c, 0, 67, 64
2, 6600, Note_on_c, 0, 47, 64
2, 6660, Note_off_c, 0, 47, 64
2, 6660, Note_off_c, 0, 67, 64
2, 6660, Note_on_c, 0, 45, 64
2, 6660, Note_on_c, 0, 65, 64
2, 6720, Note_off_c, 0, 65, 64
2, 6720, Note_off_c, 0, 45, 64
2, 6720, Note_on_c, 0, 74, 64
2, 6720, Note_on_c, 0, 47, 64
2, 6780, Note_off_c, 0, 74, 64
2, 6780, Note_on_c, 0, 72, 64
2, 6840, Note_off_c, 0, 72, 64
2, 6840, Note_off_c, 0, 47, 64
2, 6840, Note_on_c, 0, 74, 64
2, 6840, Note_on_c, 0, 43, 64
2, 6900, Note_on_c, 0, 79, 64
2, 6960, Note_off_c, 0, 79, 64
2, 6960, Note_off_c, 0, 43, 64
2, 6960, Note_on_c, 0, 75, 64
2, 6960, Note_on_c, 0, 48, 64
2, 7020, Note_off_c, 0, 74, 64
2, 7020, Note_on_c, 0, 71, 64
2, 7080, Note_off_c, 0, 71, 64
2, 7080, Note_off_c, 0, 48, 64
2, 7080, Note_on_c, 0, 72, 64
2, 7080, Note_on_c, 0, 44, 64
2, 7140, Note_off_c, 0, 75, 64
2, 7140, Note_on_c, 0, 77, 64
2, 7200, Note_off_c, 0, 77, 64
2, 7200, Note_off_c, 0, 44, 64
2, 7200, Note_on_c, 0, 79, 64
2, 7200, Note_on_c, 0, 39, 64
2, 7260, Note_off_c, 0, 72, 64
2, 7260, Note_on_c, 0, 71, 64
2, 7320, Note_off_c, 0, 71, 64
2, 7320, Note_off_c, 0, 79, 64
2, 7320, Note_on_c, 0, 72, 64
2, 7380, Note_off_c, 0, 39, 64
2, 7380, Note_on_c, 0, 56, 64
2, 7440, Note_off_c, 0, 56, 64
2, 7440, Note_on_c, 0, 77, 64
2, 7440, Note_on_c, 0, 50, 64
2, 7500, Note_off_c, 0, 72, 64
2, 7500, Note_on_c, 0, 71, 64
2, 7560, Note_off_c, 0, 50, 64
2, 7560, Note_off_c, 0, 77, 64
2, 7560, Note_on_c, 0, 55, 64
2, 7560, Note_on_c, 0, 75, 64
2, 7620, Note_off_c, 0, 75, 64
2, 7620, Note_on_c, 0, 74, 64
2, 7680, Note_off_c, 0, 74, 64
2, 7680, Note_off_c, 0, 55, 64
2, 7680, Note_off_c, 0, 71, 64
2, 7680, Note_on_c, 0, 75, 64
2, 7680, Note_on_c, 0, 72, 64
2, 7680, Note_on_c, 0, 48, 64
2, 7740, Note_off_c, 0, 72, 64
2, 7740, Note_on_c, 0, 67, 64
2, 7800, Note_off_c, 0, 67, 64
2, 7800, Note_off_c, 0, 75, 64
2, 7800, Note_on_c, 0, 68, 64
2, 7860, Note_off_c, 0, 48, 64
2, 7860, Note_on_c, 0, 53, 64
2, 7920, Note_off_c, 0, 53, 64
2, 7920, Note_on_c, 0, 73, 64
2, 7920, Note_on_c, 0, 46, 64
2, 7980, Note_off_c, 0, 68, 64
2, 7980, Note_on_c, 0, 67, 64
2, 8040, Note_off_c, 0, 46, 64
2, 8040, Note_off_c, 0, 73, 64
2, 8040, Note_on_c, 0, 72, 64
2, 8040, Note_on_c, 0, 51, 64
2, 8100, Note_off_c, 0, 72, 64
2, 8100, Note_on_c, 0, 70, 64
2, 8160, Note_off_c, 0, 70, 64
2, 8160, Note_off_c, 0, 51, 64
2, 8160, Note_on_c, 0, 72, 64
2, 8160, Note_on_c, 0, 44, 64
2, 8220, Note_off_c, 0, 67, 64
2, 8220, Note_on_c, 0, 64, 64
2, 8280, Note_off_c, 0, 64, 64
2, 8280, Note_off_c, 0, 72, 64
2, 8280, Note_on_c, 0, 65, 64
2, 8340, Note_off_c, 0, 44, 64
2, 8340, Note_on_c, 0, 49, 64
2, 8400, Note_off_c, 0, 49, 64
2, 8400, Note_on_c, 0, 70, 64
2, 8400, Note_on_c, 0, 43, 64
2, 8460, Note_off_c, 0, 65, 64
2, 8460, Note_on_c, 0, 64, 64
2, 8520, Note_off_c, 0, 43, 64
2, 8520, Note_off_c, 0, 70, 64
2, 8520, Note_on_c, 0, 48, 64
2, 8520, Note_on_c, 0, 68, 64
2, 8580, Note_off_c, 0, 68, 64
2, 8580, Note_on_c, 0, 67, 64
2, 8640, Note_off_c, 0, 67, 64
2, 8640, Note_off_c, 0, 48, 64
2, 8640, Note_off_c, 0, 64, 64
2, 8640, Note_on_c, 0, 68, 64
2, 8640, Note_on_c, 0, 65, 64
2, 8640, Note_on_c, 0, 41, 64
2, 8700, Note_off_c, 0, 41, 64
2, 8700, Note_on_c, 0, 48, 64
2, 8760, Note_off_c, 0, 48, 64
2, 8760, Note_off_c, 0, 65, 64
2, 8760, Note_on_c, 0, 60, 64
2, 8760, Note_on_c, 0, 53, 64
2, 8820, Note_off_c, 0, 68, 64
2, 8820, Note_on_c, 0, 68, 64
2, 8880, Note_off_c, 0, 68, 64
2, 8880, Note_off_c, 0, 60, 64
2, 8880, Note_on_c, 0, 62, 64
2, 8880, Note_on_c, 0, 59, 64
2, 8940, Note_off_c, 0, 53, 64
2, 8940, Note_on_c, 0, 51, 64
2, 9000, Note_off_c, 0, 51, 64
2, 9000, Note_off_c, 0, 59, 64
2, 9000, Note_off_c, 0, 62, 64
2, 9000, Note_on_c, 0, 63, 64
2, 9000, Note_on_c, 0, 60, 64
2, 9000, Note_on_c, 0, 50, 64
2, 9060, Note_off_c, 0, 50, 64
2, 9060, Note_on_c, 0, 48, 64
2, 9120, Note_off_c, 0, 48, 64
2, 9120, Note_off_c, 0, 60, 64
2, 9120, Note_off_c, 0, 63, 64
2, 9120, Note_on_c, 0, 65, 64
2, 9120, Note_on_c, 0, 62, 64
2, 9120, Note_on_c, 0, 47, 64
2, 9180, Note_off_c, 0, 47, 64
2, 9180, Note_on_c, 0, 43, 64
2, 9240, Note_off_c, 0, 43, 64
2, 9240, Note_off_c, 0, 62, 64
2, 9240, Note_off_c, 0, 65, 64
2, 9240, Note_on_c, 0, 63, 64
2, 9240, Note_on_c, 0, 55, 64
2, 9240, Note_on_c, 0, 48, 64
2, 9300, Note_off_c, 0, 48, 64
2, 9300, Note_on_c, 0, 46, 64
2, 9360, Note_off_c, 0, 46, 64
2, 9360, Note_off_c, 0, 55, 64
2, 9360, Note_on_c, 0, 60, 64
2, 9360, Note_on_c, 0, 44, 64
2, 9420, Note_off_c, 0, 44, 64
2, 9420, Note_on_c, 0, 48, 64
2, 9480, Note_off_c, 0, 48, 64
2, 9480, Note_off_c, 0, 60, 64
2, 9480, Note_off_c, 0, 63, 64
2, 9480, Note_on_c, 0, 38, 64
2, 9480, Note_on_c, 0, 65, 64
2, 9480, Note_on_c, 0, 59, 64
2, 9540, Note_off_c, 0, 59, 64
2, 9540, Note_on_c, 0, 57, 64
2, 9600, Note_off_c, 0, 57, 64
2, 9600, Note_off_c, 0, 38, 64
2, 9600, Note_on_c, 0, 55, 64
2, 9600, Note_on_c, 0, 39, 64
2, 9660, Note_off_c, 0, 55, 64
2, 9660, Note_on_c, 0, 59, 64
2, 9720, Note_off_c, 0, 59, 64
2, 9720, Note_off_c, 0, 65, 64
2, 9720, Note_on_c, 0, 63, 64
2, 9720, Note_on_c, 0, 60, 64
2, 9780, Note_off_c, 0, 39, 64
2, 9780, Note_on_c, 0, 36, 64
2, 9840, Note_off_c, 0, 36, 64
2, 9840, Note_off_c, 0, 63, 64
2, 9840, Note_on_c, 0, 68, 64
2, 9840, Note_on_c, 0, 41, 64
2, 9900, Note_off_c, 0, 60, 64
2, 9900, Note_on_c, 0, 60, 64
2, 9960, Note_off_c, 0, 60, 64
2, 9960, Note_off_c, 0, 41, 64
2, 9960, Note_on_c, 0, 62, 64
2, 9960, Note_on_c, 0, 46, 64
2, 10020, Note_off_c, 0, 68, 64
2, 10020, Note_on_c, 0, 68, 64
2, 10080, Note_off_c, 0, 68, 64
2, 10080, Note_off_c, 0, 46, 64
2, 10080, Note_on_c, 0, 67, 64
2, 10080, Note_on_c, 0, 47, 64
2, 10140, Note_off_c, 0, 62, 64
2, 10140, Note_on_c, 0, 62, 64
2, 10200, Note_off_c, 0, 62, 64
2, 10200, Note_off_c, 0, 47, 64
2, 10200, Note_on_c, 0, 63, 64
2, 10200, Note_on_c, 0, 48, 64
2, 10260, Note_off_c, 0, 67, 64
2, 10260, Note_on_c, 0, 67, 64
2, 10320, Note_off_c, 0, 67, 64
2, 10320, Note_off_c, 0, 48, 64
2, 10320, Note_on_c, 0, 72, 64
2, 10320, Note_on_c, 0, 44, 64
2, 10380, Note_off_c, 0, 63, 64
2, 10380, Note_on_c, 0, 65, 64
2, 10440, Note_off_c, 0, 65, 64
2, 10440, Note_off_c, 0, 44, 64
2, 10440, Note_on_c, 0, 46, 64
2, 10440, Note_on_c, 0, 66, 64
2, 10500, Note_off_c, 0, 72, 64
2, 10500, Note_on_c, 0, 70, 64
2, 10560, Note_off_c, 0, 66, 64
2, 10560, Note_off_c, 0, 46, 64
2, 10560, Note_on_c, 0, 64, 64
2, 10560, Note_on_c, 0, 48, 64
2, 10620, Note_off_c, 0, 70, 64
2, 10620, Note_on_c, 0, 70, 64
2, 10680, Note_off_c, 0, 70, 64
2, 10680, Note_off_c, 0, 48, 64
2, 10680, Note_off_c, 0, 64, 64
2, 10680, Note_on_c, 0, 68, 64
2, 10680, Note_on_c, 0, 41, 64
2, 10740, Note_on_c, 0, 65, 64
2, 10800, Note_off_c, 0, 65, 64
2, 10800, Note_off_c, 0, 41, 64
2, 10800, Note_on_c, 0, 61, 64
2, 10800, Note_on_c, 0, 46, 64
2, 10860, Note_off_c, 0, 68, 64
2, 10860, Note_on_c, 0, 67, 64
2, 10920, Note_off_c, 0, 67, 64
2, 10920, Note_off_c, 0, 46, 64
2, 10920, Note_on_c, 0, 68, 64
2, 10920, Note_on_c, 0, 44, 64
2, 10980, Note_off_c, 0, 44, 64
2, 10980, Note_off_c, 0, 68, 64
2, 10980, Note_on_c, 0, 70, 64
2, 10980, Note_on_c, 0, 43, 64
2, 11040, Note_off_c, 0, 43, 64
2, 11040, Note_off_c, 0, 70, 64
2, 11040, Note_on_c, 0, 64, 64
2, 11040, Note_on_c, 0, 44, 64
2, 11100, Note_off_c, 0, 61, 64
2, 11100, Note_on_c, 0, 60, 64
2, 11160, Note_off_c, 0, 60, 64
2, 11160, Note_off_c, 0, 44, 64
2, 11160, Note_off_c, 0, 64, 64
2, 11160, Note_on_c, 0, 65, 64
2, 11160, Note_on_c, 0, 56, 64
2, 11220, Note_off_c, 0, 56, 64
2, 11220, Note_on_c, 0, 68, 64
2, 11220, Note_on_c, 0, 53, 64
2, 11280, Note_off_c, 0, 53, 64
2, 11280, Note_off_c, 0, 68, 64
2, 11280, Note_on_c, 0, 73, 64
2, 11280, Note_on_c, 0, 56, 64
2, 11340, Note_off_c, 0, 65, 64
2, 11340, Note_on_c, 0, 67, 64
2, 11400, Note_off_c, 0, 67, 64
2, 11400, Note_off_c, 0, 56, 64
2, 11400, Note_on_c, 0, 68, 64
2, 11400, Note_on_c, 0, 60, 64
2, 11460, Note_off_c, 0, 73, 64
2, 11460, Note_on_c, 0, 72, 64
2, 11520, Note_off_c, 0, 60, 64
2, 11520, Note_off_c, 0, 68, 64
2, 11520, Note_on_c, 0, 66, 64
2, 11520, Note_on_c, 0, 50, 64
2, 11580, Note_off_c, 0, 72, 64
2, 11580, Note_on_c, 0, 72, 64
2, 11640, Note_off_c, 0, 72, 64
2, 11640, Note_off_c, 0, 50, 64
2, 11640, Note_off_c, 0, 66, 64
2, 11640, Note_on_c, 0, 70, 64
2, 11640, Note_on_c, 0, 55, 64
2, 11700, Note_on_c, 0, 67, 64
2, 11760, Note_off_c, 0, 67, 64
2, 11760, Note_off_c, 0, 55, 64
2, 11760, Note_on_c, 0, 63, 64
2, 11760, Note_on_c, 0, 48, 64
2, 11820, Note_off_c, 0, 70, 64
2, 11820, Note_on_c, 0, 69, 64
2, 11880, Note_off_c, 0, 69, 64
2, 11880, Note_off_c, 0, 48, 64
2, 11880, Note_on_c, 0, 70, 64
2, 11880, Note_on_c, 0, 46, 64
2, 11940, Note_off_c, 0, 46, 64
2, 11940, Note_off_c, 0, 70, 64
2, 11940, Note_on_c, 0, 72, 64
2, 11940, Note_on_c, 0, 45, 64
2, 12000, Note_off_c, 0, 45, 64
2, 12000, Note_off_c, 0, 72, 64
2, 12000, Note_on_c, 0, 66, 64
2, 12000, Note_on_c, 0, 46, 64
2, 12060, Note_off_c, 0, 63, 64
2, 12060, Note_on_c, 0, 62, 64
2, 12120, Note_off_c, 0, 46, 64
2, 12120, Note_off_c, 0, 66, 64
2, 12120, Note_on_c, 0, 67, 64
2, 12120, Note_on_c, 0, 51, 64
2, 12180, Note_off_c, 0, 62, 64
2, 12180, Note_on_c, 0, 60, 64
2, 12240, Note_off_c, 0, 60, 64
2, 12240, Note_off_c, 0, 51, 64
2, 12240, Note_on_c, 0, 58, 64
2, 12240, Note_on_c, 0, 48, 64
2, 12300, Note_off_c, 0, 67, 64
2, 12300, Note_on_c, 0, 67, 64
2, 12360, Note_off_c, 0, 48, 64
2, 12360, Note_off_c, 0, 58, 64
2, 12360, Note_on_c, 0, 57, 64
2, 12360, Note_on_c, 0, 50, 64
2, 12420, Note_off_c, 0, 67, 64
2, 12420, Note_on_c, 0, 66, 64
2, 12480, Note_off_c, 0, 66, 64
2, 12480, Note_off_c, 0, 50, 64
2, 12480, Note_off_c, 0, 57, 64
2, 12480, Note_on_c, 0, 67, 64
2, 12480, Note_on_c, 0, 55, 64
2, 12480, Note_on_c, 0, 43, 64
2, 12600, Note_off_c, 0, 43, 64
2, 12600, Note_off_c, 0, 55, 64
2, 12600, Note_off_c, 0, 67, 64
2, 12600, Note_on_c, 0, 79, 64
2, 12720, Note_off_c, 0, 79, 64
2, 12720, Note_on_c, 0, 75, 64
2, 12720, Note_on_c, 0, 67, 64
2, 12840, Note_off_c, 0, 75, 64
2, 12840, Note_on_c, 0, 77, 64
2, 12960, Note_off_c, 0, 77, 64
2, 12960, Note_off_c, 0, 67, 64
2, 12960, Note_on_c, 0, 79, 64
2, 12960, Note_on_c, 0, 63, 64
2, 13080, Note_off_c, 0, 79, 64
2, 13080, Note_on_c, 0, 72, 64
2, 13200, Note_off_c, 0, 72, 64
2, 13200, Note_off_c, 0, 63, 64
2, 13200, Note_on_c, 0, 65, 64
2, 13200, Note_on_c, 0, 77, 64
2, 13320, Note_off_c, 0, 77, 64
2, 13320, Note_on_c, 0, 75, 64
2, 13380, Note_off_c, 0, 75, 64
2, 13380, Note_on_c, 0, 74, 64
2, 13440, Note_off_c, 0, 74, 64
2, 13440, Note_off_c, 0, 65, 64
2, 13440, Note_on_c, 0, 75, 64
2, 13440, Note_on_c, 0, 67, 64
2, 13500, Note_off_c, 0, 75, 64
2, 13500, Note_on_c, 0, 74, 64
2, 13560, Note_off_c, 0, 74, 64
2, 13560, Note_on_c, 0, 72, 64
2, 13560, Note_on_c, 0, 55, 64
2, 13620, Note_off_c, 0, 72, 64
2, 13620, Note_on_c, 0, 71, 64
2, 13680, Note_off_c, 0, 71, 64
2, 13680, Note_off_c, 0, 55, 64
2, 13680, Note_off_c, 0, 67, 64
2, 13680, Note_on_c, 0, 72, 64
2, 13680, Note_on_c, 0, 60, 64
2, 13680, Note_on_c, 0, 56, 64
2, 13740, Note_off_c, 0, 72, 64
2, 13740, Note_on_c, 0, 75, 64
2, 13800, Note_off_c, 0, 75, 64
2, 13800, Note_off_c, 0, 56, 64
2, 13800, Note_on_c, 0, 77, 64
2, 13800, Note_on_c, 0, 55, 64
2, 13860, Note_off_c, 0, 77, 64
2, 13860, Note_on_c, 0, 79, 64
2, 13920, Note_off_c, 0, 79, 64
2, 13920, Note_off_c, 0, 55, 64
2, 13920, Note_off_c, 0, 60, 64
2, 13920, Note_on_c, 0, 80, 64
2, 13920, Note_on_c, 0, 65, 64
2, 13920, Note_on_c, 0, 53, 64
2, 13980, Note_off_c, 0, 80, 64
2, 13980, Note_on_c, 0, 72, 64
2, 14040, Note_off_c, 0, 72, 64
2, 14040, Note_off_c, 0, 53, 64
2, 14040, Note_on_c, 0, 71, 64
2, 14040, Note_on_c, 0, 62, 64
2, 14100, Note_off_c, 0, 71, 64
2, 14100, Note_on_c, 0, 69, 64
2, 14160, Note_off_c, 0, 69, 64
2, 14160, Note_off_c, 0, 62, 64
2, 14160, Note_off_c, 0, 65, 64
2, 14160, Note_on_c, 0, 71, 64
2, 14160, Note_on_c, 0, 63, 64
2, 14160, Note_on_c, 0, 55, 64
2, 14220, Note_off_c, 0, 71, 64
2, 14220, Note_on_c, 0, 79, 64
2, 14280, Note_off_c, 0, 79, 64
2, 14280, Note_off_c, 0, 55, 64
2, 14280, Note_off_c, 0, 63, 64
2, 14280, Note_on_c, 0, 62, 64
2, 14280, Note_on_c, 0, 77, 64
2, 14280, Note_on_c, 0, 57, 64
2, 14340, Note_off_c, 0, 57, 64
2, 14340, Note_off_c, 0, 77, 64
2, 14340, Note_on_c, 0, 59, 64
2, 14340, Note_on_c, 0, 79, 64
2, 14400, Note_off_c, 0, 79, 64
2, 14400, Note_off_c, 0, 59, 64
2, 14400, Note_off_c, 0, 62, 64
2, 14400, Note_on_c, 0, 75, 64
2, 14400, Note_on_c, 0, 63, 64
2, 14400, Note_on_c, 0, 60, 64
2, 14460, Note_off_c, 0, 60, 64
2, 14460, Note_on_c, 0, 62, 64
2, 14520, Note_off_c, 0, 62, 64
2, 14520, Note_off_c, 0, 63, 64
2, 14520, Note_off_c, 0, 75, 64
2, 14520, Note_on_c, 0, 72, 64
2, 14520, Note_on_c, 0, 63, 64
2, 14580, Note_off_c, 0, 63, 64
2, 14580, Note_on_c, 0, 65, 64
2, 14640, Note_off_c, 0, 65, 64
2, 14640, Note_off_c, 0, 72, 64
2, 14640, Note_on_c, 0, 70, 64
2, 14640, Note_on_c, 0, 67, 64
2, 14700, Note_off_c, 0, 67, 64
2, 14700, Note_on_c, 0, 62, 64
2, 14760, Note_off_c, 0, 62, 64
2, 14760, Note_off_c, 0, 70, 64
2, 14760, Note_on_c, 0, 72, 64
2, 14760, Note_on_c, 0, 60, 64
2, 14880, Note_off_c, 0, 60, 64
2, 14880, Note_off_c, 0, 72, 64
2, 14880, Note_on_c, 0, 74, 64
2, 14880, Note_on_c, 0, 58, 64
2, 14940, Note_off_c, 0, 58, 64
2, 14940, Note_on_c, 0, 57, 64
2, 15000, Note_off_c, 0, 57, 64
2, 15000, Note_off_c, 0, 74, 64
2, 15000, Note_on_c, 0, 79, 64
2, 15000, Note_on_c, 0, 67, 64
2, 15000, Note_on_c, 0, 58, 64
2, 15120, Note_off_c, 0, 67, 64
2, 15120, Note_off_c, 0, 79, 64
2, 15120, Note_on_c, 0, 76, 64
2, 15120, Note_on_c, 0, 72, 64
2, 15180, Note_off_c, 0, 58, 64
2, 15180, Note_on_c, 0, 57, 64
2, 15240, Note_off_c, 0, 57, 64
2, 15240, Note_off_c, 0, 72, 64
2, 15240, Note_off_c, 0, 76, 64
2, 15240, Note_on_c, 0, 78, 64
2, 15240, Note_on_c, 0, 70, 64
2, 15240, Note_on_c, 0, 62, 64
2, 15300, Note_off_c, 0, 62, 64
2, 15300, Note_off_c, 0, 70, 64
2, 15300, Note_on_c, 0, 60, 64
2, 15300, Note_on_c, 0, 69, 64
2, 15360, Note_off_c, 0, 69, 64
2, 15360, Note_off_c, 0, 60, 64
2, 15360, Note_off_c, 0, 78, 64
2, 15360, Note_on_c, 0, 79, 64
2, 15360, Note_on_c, 0, 70, 64
2, 15360, Note_on_c, 0, 58, 64
2, 15420, Note_off_c, 0, 58, 64
2, 15420, Note_on_c, 0, 55, 64
2, 15480, Note_off_c, 0, 55, 64
2, 15480, Note_off_c, 0, 70, 64
2, 15480, Note_off_c, 0, 79, 64
2, 15480, Note_on_c, 0, 72, 64
2, 15480, Note_on_c, 0, 68, 64
2, 15480, Note_on_c, 0, 60, 64
2, 15540, Note_off_c, 0, 68, 64
2, 15540, Note_on_c, 0, 67, 64
2, 15600, Note_off_c, 0, 67, 64
2, 15600, Note_off_c, 0, 60, 64
2, 15600, Note_off_c, 0, 72, 64
2, 15600, Note_on_c, 0, 77, 64
2, 15600, Note_on_c, 0, 72, 64
2, 15600, Note_on_c, 0, 57, 64
2, 15660, Note_off_c, 0, 72, 64
2, 15660, Note_on_c, 0, 60, 64
2, 15720, Note_off_c, 0, 60, 64
2, 15720, Note_off_c, 0, 57, 64
2, 15720, Note_off_c, 0, 77, 64
2, 15720, Note_on_c, 0, 75, 64
2, 15720, Note_on_c, 0, 67, 64
2, 15720, Note_on_c, 0, 59, 64
2, 15780, Note_off_c, 0, 75, 64
2, 15780, Note_on_c, 0, 74, 64
2, 15840, Note_off_c, 0, 74, 64
2, 15840, Note_off_c, 0, 59, 64
2, 15840, Note_on_c, 0, 75, 64
2, 15840, Note_on_c, 0, 60, 64
2, 15900, Note_off_c, 0, 67, 64
2, 15900, Note_on_c, 0, 67, 64
2, 15960, Note_off_c, 0, 67, 64
2, 15960, Note_off_c, 0, 60, 64
2, 15960, Note_on_c, 0, 69, 64
2, 15960, Note_on_c, 0, 53, 64
2, 16020, Note_off_c, 0, 75, 64
2, 16020, Note_on_c, 0, 75, 64
2, 16080, Note_off_c, 0, 75, 64
2, 16080, Note_off_c, 0, 53, 64
2, 16080, Note_off_c, 0, 69, 64
2, 16080, Note_on_c, 0, 74, 64
2, 16080, Note_on_c, 0, 70, 64
2, 16080, Note_on_c, 0, 58, 64
2, 16140, Note_off_c, 0, 70, 64
2, 16140, Note_on_c, 0, 72, 64
2, 16200, Note_off_c, 0, 72, 64
2, 16200, Note_off_c, 0, 58, 64
2, 16200, Note_off_c, 0, 74, 64
2, 16200, Note_on_c, 0, 73, 64
2, 16200, Note_on_c, 0, 76, 64
2, 16200, Note_on_c, 0, 56, 64
2, 16260, Note_off_c, 0, 56, 64
2, 16260, Note_on_c, 0, 55, 64
2, 16320, Note_off_c, 0, 55, 64
2, 16320, Note_off_c, 0, 76, 64
2, 16320, Note_on_c, 0, 77, 64
2, 16320, Note_on_c, 0, 57, 64
2, 16380, Note_off_c, 0, 73, 64
2, 16380, Note_on_c, 0, 72, 64
2, 16440, Note_off_c, 0, 72, 64
2, 16440, Note_off_c, 0, 57, 64
2, 16440, Note_off_c, 0, 77, 64
2, 16440, Note_on_c, 0, 70, 64
2, 16440, Note_on_c, 0, 62, 64
2, 16500, Note_on_c, 0, 68, 64
2, 16560, Note_off_c, 0, 68, 64
2, 16560, Note_off_c, 0, 70, 64
2, 16560, Note_on_c, 0, 75, 64
2, 16560, Note_on_c, 0, 67, 64
2, 16620, Note_off_c, 0, 62, 64
2, 16620, Note_on_c, 0, 60, 64
2, 16680, Note_off_c, 0, 60, 64
2, 16680, Note_off_c, 0, 67, 64
2, 16680, Note_off_c, 0, 75, 64
2, 16680, Note_on_c, 0, 74, 64
2, 16680, Note_on_c, 0, 69, 64
2, 16680, Note_on_c, 0, 65, 64
2, 16740, Note_off_c, 0, 65, 64
2, 16740, Note_off_c, 0, 74, 64
2, 16740, Note_on_c, 0, 72, 64
2, 16740, Note_on_c, 0, 63, 64
2, 16800, Note_off_c, 0, 63, 64
2, 16800, Note_off_c, 0, 72, 64
2, 16800, Note_off_c, 0, 69, 64
2, 16800, Note_on_c, 0, 74, 64
2, 16800, Note_on_c, 0, 70, 64
2, 16800, Note_on_c, 0, 62, 64
2, 16860, Note_off_c, 0, 62, 64
2, 16860, Note_on_c, 0, 60, 64
2, 16920, Note_off_c, 0, 60, 64
2, 16920, Note_off_c, 0, 70, 64
2, 16920, Note_off_c, 0, 74, 64
2, 16920, Note_on_c, 0, 67, 64
2, 16920, Note_on_c, 0, 63, 64
2, 16920, Note_on_c, 0, 61, 64
2, 17040, Note_off_c, 0, 63, 64
2, 17040, Note_off_c, 0, 67, 64
2, 17040, Note_on_c, 0, 75, 64
2, 17040, Note_on_c, 0, 68, 64
2, 17100, Note_off_c, 0, 61, 64
2, 17100, Note_on_c, 0, 60, 64
2, 17160, Note_off_c, 0, 60, 64
2, 17160, Note_off_c, 0, 68, 64
2, 17160, Note_on_c, 0, 67, 64
2, 17160, Note_on_c, 0, 58, 64
2, 17220, Note_off_c, 0, 58, 64
2, 17220, Note_off_c, 0, 67, 64
2, 17220, Note_on_c, 0, 65, 64
2, 17220, Note_on_c, 0, 56, 64
2, 17280, Note_off_c, 0, 56, 64
2, 17280, Note_off_c, 0, 65, 64
2, 17280, Note_on_c, 0, 67, 64
2, 17280, Note_on_c, 0, 58, 64
2, 17340, Note_off_c, 0, 75, 64
2, 17340, Note_on_c, 0, 75, 64
2, 17400, Note_off_c, 0, 75, 64
2, 17400, Note_off_c, 0, 58, 64
2, 17400, Note_on_c, 0, 74, 64
2, 17400, Note_on_c, 0, 59, 64
2, 17460, Note_off_c, 0, 67, 64
2, 17460, Note_on_c, 0, 65, 64
2, 17520, Note_off_c, 0, 65, 64
2, 17520, Note_off_c, 0, 59, 64
2, 17520, Note_on_c, 0, 63, 64
2, 17520, Note_on_c, 0, 60, 64
2, 17520, Note_on_c, 0, 55, 64
2, 17580, Note_off_c, 0, 74, 64
2, 17580, Note_on_c, 0, 72, 64
2, 17640, Note_off_c, 0, 60, 64
2, 17640, Note_off_c, 0, 63, 64
2, 17640, Note_on_c, 0, 62, 64
2, 17700, Note_off_c, 0, 72, 64
2, 17700, Note_on_c, 0, 71, 64
2, 17760, Note_off_c, 0, 71, 64
2, 17760, Note_off_c, 0, 62, 64
2, 17760, Note_on_c, 0, 72, 64
2, 17760, Note_on_c, 0, 60, 64
2, 17760, Note_on_c, 0, 55, 64
2, 17760, Note_on_c, 0, 51, 64
2, 17761, Note_off_c, 0, 55, 64
2, 17820, Note_off_c, 0, 55, 64
2, 17820, Note_on_c, 0, 60, 64
2, 17880, Note_off_c, 0, 60, 64
2, 17880, Note_off_c, 0, 60, 64
2, 17880, Note_off_c, 0, 72, 64
2, 17880, Note_on_c, 0, 79, 64
2, 17880, Note_on_c, 0, 75, 64
2, 17880, Note_on_c, 0, 58, 64
2, 17940, Note_off_c, 0, 58, 64
2, 17940, Note_on_c, 0, 60, 64
2, 18000, Note_off_c, 0, 75, 64
2, 18000, Note_off_c, 0, 79, 64
2, 18000, Note_off_c, 0, 51, 64
2, 18000, Note_on_c, 0, 53, 64
2, 18000, Note_on_c, 0, 68, 64
2, 18000, Note_on_c, 0, 74, 64
2, 18060, Note_off_c, 0, 60, 64
2, 18060, Note_on_c, 0, 58, 64
2, 18120, Note_off_c, 0, 58, 64
2, 18120, Note_off_c, 0, 74, 64
2, 18120, Note_on_c, 0, 60, 64
2, 18120, Note_on_c, 0, 75, 64
2, 18180, Note_off_c, 0, 75, 64
2, 18180, Note_on_c, 0, 77, 64
2, 18240, Note_off_c, 0, 77, 64
2, 18240, Note_off_c, 0, 68, 64
2, 18240, Note_off_c, 0, 53, 64
2, 18240, Note_on_c, 0, 75, 64
2, 18240, Note_on_c, 0, 55, 64
2, 18300, Note_on_c, 0, 67, 64
2, 18360, Note_off_c, 0, 75, 64
2, 18360, Note_off_c, 0, 60, 64
2, 18360, Note_on_c, 0, 74, 64
2, 18360, Note_on_c, 0, 59, 64
2, 18420, Note_off_c, 0, 67, 64
2, 18420, Note_on_c, 0, 65, 64
2, 18480, Note_off_c, 0, 65, 64
2, 18480, Note_off_c, 0, 59, 64
2, 18480, Note_off_c, 0, 74, 64
2, 18480, Note_off_c, 0, 55, 64
2, 18480, Note_on_c, 0, 63, 64
2, 18480, Note_on_c, 0, 60, 64
2, 18480, Note_on_c, 0, 48, 64
2, 18540, Note_on_c, 0, 72, 64
2, 18600, Note_off_c, 0, 63, 64
2, 18600, Note_on_c, 0, 64, 64
2, 18660, Note_off_c, 0, 72, 64
2, 18660, Note_on_c, 0, 70, 64
2, 18720, Note_off_c, 0, 70, 64
2, 18720, Note_off_c, 0, 64, 64
2, 18720, Note_off_c, 0, 48, 64
2, 18720, Note_on_c, 0, 68, 64
2, 18720, Note_on_c, 0, 53, 64
2, 18780, Note_on_c, 0, 65, 64
2, 18840, Note_off_c, 0, 65, 64
2, 18840, Note_off_c, 0, 60, 64
2, 18840, Note_on_c, 0, 62, 64
2, 18840, Note_on_c, 0, 59, 64
2, 18900, Note_off_c, 0, 68, 64
2, 18900, Note_on_c, 0, 68, 64
2, 18960, Note_off_c, 0, 68, 64
2, 18960, Note_off_c, 0, 59, 64
2, 18960, Note_off_c, 0, 62, 64
2, 18960, Note_off_c, 0, 53, 64
2, 18960, Note_on_c, 0, 67, 64
2, 18960, Note_on_c, 0, 60, 64
2, 18960, Note_on_c, 0, 51, 64
2, 19020, Note_on_c, 0, 63, 64
2, 19080, Note_off_c, 0, 63, 64
2, 19080, Note_off_c, 0, 51, 64
2, 19080, Note_on_c, 0, 65, 64
2, 19080, Note_on_c, 0, 50, 64
2, 19140, Note_off_c, 0, 60, 64
2, 19140, Note_on_c, 0, 59, 64
2, 19200, Note_off_c, 0, 50, 64
2, 19200, Note_on_c, 0, 51, 64
2, 19260, Note_off_c, 0, 59, 64
2, 19260, Note_on_c, 0, 55, 64
2, 19320, Note_off_c, 0, 55, 64
2, 19320, Note_off_c, 0, 65, 64
2, 19320, Note_on_c, 0, 63, 64
2, 19320, Note_on_c, 0, 60, 64
2, 19380, Note_off_c, 0, 51, 64
2, 19380, Note_on_c, 0, 55, 64
2, 19440, Note_off_c, 0, 55, 64
2, 19440, Note_off_c, 0, 67, 64
2, 19440, Note_on_c, 0, 72, 64
2, 19440, Note_on_c, 0, 56, 64
2, 19500, Note_off_c, 0, 63, 64
2, 19500, Note_on_c, 0, 64, 64
2, 19560, Note_off_c, 0, 64, 64
2, 19560, Note_off_c, 0, 56, 64
2, 19560, Note_off_c, 0, 60, 64
2, 19560, Note_on_c, 0, 65, 64
2, 19560, Note_on_c, 0, 58, 64
2, 19560, Note_on_c, 0, 55, 64
2, 19620, Note_off_c, 0, 65, 64
2, 19620, Note_on_c, 0, 67, 64
2, 19680, Note_off_c, 0, 67, 64
2, 19680, Note_off_c, 0, 55, 64
2, 19680, Note_off_c, 0, 58, 64
2, 19680, Note_on_c, 0, 68, 64
2, 19680, Note_on_c, 0, 56, 64
2, 19680, Note_on_c, 0, 53, 64
2, 19740, Note_off_c, 0, 56, 64
2, 19740, Note_on_c, 0, 67, 64
2, 19800, Note_off_c, 0, 67, 64
2, 19800, Note_off_c, 0, 53, 64
2, 19800, Note_on_c, 0, 65, 64
2, 19800, Note_on_c, 0, 62, 64
2, 19860, Note_off_c, 0, 65, 64
2, 19860, Note_on_c, 0, 63, 64
2, 19920, Note_off_c, 0, 63, 64
2, 19920, Note_off_c, 0, 62, 64
2, 19920, Note_off_c, 0, 68, 64
2, 19920, Note_on_c, 0, 62, 64
2, 19920, Note_on_c, 0, 67, 64
2, 19920, Note_on_c, 0, 55, 64
2, 19980, Note_off_c, 0, 72, 64
2, 19980, Note_on_c, 0, 71, 64
2, 20040, Note_off_c, 0, 71, 64
2, 20040, Note_off_c, 0, 55, 64
2, 20040, Note_off_c, 0, 67, 64
2, 20040, Note_on_c, 0, 65, 64
2, 20040, Note_on_c, 0, 72, 64
2, 20040, Note_on_c, 0, 57, 64
2, 20100, Note_off_c, 0, 57, 64
2, 20100, Note_off_c, 0, 72, 64
2, 20100, Note_on_c, 0, 74, 64
2, 20100, Note_on_c, 0, 59, 64
2, 20160, Note_off_c, 0, 59, 64
2, 20160, Note_off_c, 0, 74, 64
2, 20160, Note_on_c, 0, 67, 64
2, 20160, Note_on_c, 0, 60, 64
2, 20220, Note_off_c, 0, 65, 64
2, 20220, Note_on_c, 0, 63, 64
2, 20280, Note_off_c, 0, 60, 64
2, 20280, Note_off_c, 0, 67, 64
2, 20280, Note_off_c, 0, 62, 64
2, 20280, Note_on_c, 0, 68, 64
2, 20280, Note_on_c, 0, 60, 64
2, 20280, Note_on_c, 0, 48, 64
2, 20340, Note_off_c, 0, 63, 64
2, 20340, Note_on_c, 0, 65, 64
2, 20400, Note_off_c, 0, 48, 64
2, 20400, Note_off_c, 0, 60, 64
2, 20400, Note_off_c, 0, 68, 64
2, 20400, Note_on_c, 0, 67, 64
2, 20400, Note_on_c, 0, 62, 64
2, 20400, Note_on_c, 0, 47, 64
2, 20460, Note_off_c, 0, 65, 64
2, 20460, Note_on_c, 0, 65, 64
2, 20520, Note_off_c, 0, 65, 64
2, 20520, Note_off_c, 0, 47, 64
2, 20520, Note_off_c, 0, 62, 64
2, 20520, Note_on_c, 0, 63, 64
2, 20520, Note_on_c, 0, 60, 64
2, 20520, Note_on_c, 0, 48, 64
2, 20580, Note_off_c, 0, 67, 64
2, 20580, Note_on_c, 0, 69, 64
2, 20640, Note_off_c, 0, 69, 64
2, 20640, Note_off_c, 0, 48, 64
2, 20640, Note_off_c, 0, 60, 64
2, 20640, Note_off_c, 0, 63, 64
2, 20640, Note_on_c, 0, 70, 64
2, 20640, Note_on_c, 0, 53, 64
2, 20640, Note_on_c, 0, 50, 64
2, 20700, Note_on_c, 0, 65, 64
2, 20760, Note_off_c, 0, 65, 64
2, 20760, Note_off_c, 0, 50, 64
2, 20760, Note_off_c, 0, 53, 64
2, 20760, Note_off_c, 0, 70, 64
2, 20760, Note_on_c, 0, 71, 64
2, 20760, Note_on_c, 0, 63, 64
2, 20760, Note_on_c, 0, 55, 64
2, 20760, Note_on_c, 0, 43, 64
2, 20820, Note_off_c, 0, 63, 64
2, 20820, Note_on_c, 0, 62, 64
2, 20880, Note_off_c, 0, 62, 64
2, 20880, Note_off_c, 0, 43, 64
2, 20880, Note_off_c, 0, 71, 64
2, 20880, Note_on_c, 0, 63, 64
2, 20880, Note_on_c, 0, 48, 64
2, 20940, Note_on_c, 0, 67, 64
2, 21000, Note_off_c, 0, 67, 64
2, 21000, Note_off_c, 0, 48, 64
2, 21000, Note_off_c, 0, 55, 64
2, 21000, Note_on_c, 0, 47, 64
2, 21000, Note_on_c, 0, 57, 64
2, 21000, Note_on_c, 0, 72, 64
2, 21060, Note_off_c, 0, 72, 64
2, 21060, Note_off_c, 0, 47, 64
2, 21060, Note_on_c, 0, 66, 64
2, 21060, Note_on_c, 0, 45, 64
2, 21120, Note_off_c, 0, 45, 64
2, 21120, Note_off_c, 0, 66, 64
2, 21120, Note_off_c, 0, 57, 64
2, 21120, Note_off_c, 0, 63, 64
2, 21120, Note_on_c, 0, 67, 64
2, 21120, Note_on_c, 0, 55, 64
2, 21120, Note_on_c, 0, 47, 64
2, 21180, Note_on_c, 0, 62, 64
2, 21240, Note_off_c, 0, 47, 64
2, 21240, Note_off_c, 0, 67, 64
2, 21240, Note_on_c, 0, 63, 64
2, 21240, Note_on_c, 0, 48, 64
2, 21300, Note_off_c, 0, 62, 64
2, 21300, Note_on_c, 0, 60, 64
2, 21360, Note_off_c, 0, 48, 64
2, 21360, Note_off_c, 0, 63, 64
2, 21360, Note_off_c, 0, 55, 64
2, 21360, Note_on_c, 0, 62, 64
2, 21360, Note_on_c, 0, 41, 64
2, 21420, Note_off_c, 0, 60, 64
2, 21420, Note_on_c, 0, 57, 64
2, 21480, Note_off_c, 0, 57, 64
2, 21480, Note_off_c, 0, 41, 64
2, 21480, Note_on_c, 0, 59, 64
2, 21480, Note_on_c, 0, 43, 64
2, 21540, Note_on_c, 0, 53, 64
2, 21600, Note_off_c, 0, 53, 64
2, 21600, Note_off_c, 0, 43, 64
2, 21600, Note_off_c, 0, 59, 64
2, 21600, Note_off_c, 0, 62, 64
2, 21600, Note_on_c, 0, 36, 64
2, 21600, Note_on_c, 0, 60, 64
2, 21600, Note_on_c, 0, 51, 64
2, 21720, Note_off_c, 0, 51, 64
2, 21720, Note_off_c, 0, 60, 64
2, 21720, Note_off_c, 0, 36, 64
2, 21720, Note_on_c, 0, 67, 64
2, 21840, Note_off_c, 0, 67, 64
2, 21840, Note_on_c, 0, 63, 64
2, 21960, Note_off_c, 0, 63, 64
2, 21960, Note_on_c, 0, 72, 64
2, 21960, Note_on_c, 0, 65, 64
2, 22080, Note_off_c, 0, 65, 64
2, 22080, Note_off_c, 0, 72, 64
2, 22080, Note_on_c, 0, 71, 64
2, 22080, Note_on_c, 0, 67, 64
2, 22200, Note_off_c, 0, 67, 64
2, 22200, Note_off_c, 0, 71, 64
2, 22200, Note_on_c, 0, 72, 64
2, 22200, Note_on_c, 0, 60, 64
2, 22200, Note_on_c, 0, 63, 64
2, 22320, Note_off_c, 0, 63, 64
2, 22320, Note_off_c, 0, 60, 64
2, 22320, Note_off_c, 0, 72, 64
2, 22320, Note_on_c, 0, 74, 64
2, 22320, Note_on_c, 0, 65, 64
2, 22320, Note_on_c, 0, 59, 64
2, 22440, Note_off_c, 0, 59, 64
2, 22440, Note_off_c, 0, 65, 64
2, 22440, Note_off_c, 0, 74, 64
2, 22440, Note_on_c, 0, 67, 64
2, 22440, Note_on_c, 0, 63, 64
2, 22440, Note_on_c, 0, 60, 64
2, 22500, Note_off_c, 0, 63, 64
2, 22500, Note_on_c, 0, 62, 64
2, 22560, Note_off_c, 0, 62, 64
2, 22560, Note_off_c, 0, 60, 64
2, 22560, Note_off_c, 0, 67, 64
2, 22560, Note_on_c, 0, 72, 64
2, 22560, Note_on_c, 0, 64, 64
2, 22560, Note_on_c, 0, 55, 64
2, 22560, Note_on_c, 0, 48, 64
2, 22680, Note_off_c, 0, 48, 64
2, 22680, Note_off_c, 0, 55, 64
2, 22680, Note_off_c, 0, 64, 64
2, 22680, Note_off_c, 0, 72, 64
2, 22680, Note_on_c, 0, 70, 64
2, 22680, Note_on_c, 0, 65, 64
2, 22740, Note_off_c, 0, 70, 64
2, 22740, Note_on_c, 0, 68, 64
2, 22800, Note_off_c, 0, 68, 64
2, 22800, Note_off_c, 0, 65, 64
2, 22800, Note_on_c, 0, 70, 64
2, 22800, Note_on_c, 0, 67, 64
2, 22920, Note_off_c, 0, 67, 64
2, 22920, Note_off_c, 0, 70, 64
2, 22920, Note_on_c, 0, 72, 64
2, 22920, Note_on_c, 0, 65, 64
2, 22980, Note_off_c, 0, 65, 64
2, 22980, Note_on_c, 0, 64, 64
2, 23040, Note_off_c, 0, 64, 64
2, 23040, Note_off_c, 0, 72, 64
2, 23040, Note_on_c, 0, 68, 64
2, 23040, Note_on_c, 0, 65, 64
2, 23160, Note_off_c, 0, 65, 64
2, 23160, Note_off_c, 0, 68, 64
2, 23160, Note_on_c, 0, 70, 64
2, 23160, Note_on_c, 0, 67, 64
2, 23160, Note_on_c, 0, 61, 64
2, 23280, Note_off_c, 0, 61, 64
2, 23280, Note_off_c, 0, 67, 64
2, 23280, Note_off_c, 0, 70, 64
2, 23280, Note_on_c, 0, 72, 64
2, 23280, Note_on_c, 0, 64, 64
2, 23280, Note_on_c, 0, 55, 64
2, 23400, Note_off_c, 0, 55, 64
2, 23400, Note_off_c, 0, 64, 64
2, 23400, Note_off_c, 0, 72, 64
2, 23400, Note_on_c, 0, 65, 64
2, 23400, Note_on_c, 0, 56, 64
2, 23520, Note_off_c, 0, 56, 64
2, 23520, Note_off_c, 0, 65, 64
2, 23520, Note_on_c, 0, 70, 64
2, 23520, Note_on_c, 0, 67, 64
2, 23520, Note_on_c, 0, 52, 64
2, 23520, Note_on_c, 0, 48, 64
2, 23640, Note_off_c, 0, 48, 64
2, 23640, Note_off_c, 0, 52, 64
2, 23640, Note_off_c, 0, 67, 64
2, 23640, Note_off_c, 0, 70, 64
2, 23640, Note_on_c, 0, 68, 64
2, 23640, Note_on_c, 0, 60, 64
2, 23700, Note_off_c, 0, 68, 64
2, 23700, Note_on_c, 0, 67, 64
2, 23760, Note_off_c, 0, 67, 64
2, 23760, Note_off_c, 0, 60, 64
2, 23760, Note_on_c, 0, 68, 64
2, 23760, Note_on_c, 0, 65, 64
2, 23760, Note_on_c, 0, 56, 64
2, 23880, Note_off_c, 0, 56, 64
2, 23880, Note_off_c, 0, 65, 64
2, 23880, Note_off_c, 0, 68, 64
2, 23880, Note_on_c, 0, 58, 64
2, 23880, Note_on_c, 0, 67, 64
2, 23880, Note_on_c, 0, 63, 64
2, 23940, Note_off_c, 0, 63, 64
2, 23940, Note_on_c, 0, 62, 64
2, 24000, Note_off_c, 0, 62, 64
2, 24000, Note_off_c, 0, 58, 64
2, 24000, Note_on_c, 0, 64, 64
2, 24000, Note_on_c, 0, 60, 64
2, 24120, Note_off_c, 0, 60, 64
2, 24120, Note_off_c, 0, 64, 64
2, 24120, Note_off_c, 0, 67, 64
2, 24120, Note_on_c, 0, 69, 64
2, 24120, Note_on_c, 0, 63, 64
2, 24120, Note_on_c, 0, 53, 64
2, 24120, Note_on_c, 0, 48, 64
2, 24180, Note_off_c, 0, 69, 64
2, 24180, Note_on_c, 0, 70, 64
2, 24210, Note_off_c, 0, 70, 64
2, 24210, Note_on_c, 0, 72, 64
2, 24240, Note_off_c, 0, 72, 64
2, 24240, Note_off_c, 0, 48, 64
2, 24240, Note_off_c, 0, 53, 64
2, 24240, Note_off_c, 0, 63, 64
2, 24240, Note_on_c, 0, 65, 64
2, 24240, Note_on_c, 0, 61, 64
2, 24240, Note_on_c, 0, 58, 64
2, 24240, Note_on_c, 0, 49, 64
2, 24360, Note_off_c, 0, 49, 64
2, 24360, Note_off_c, 0, 58, 64
2, 24360, Note_off_c, 0, 61, 64
2, 24360, Note_off_c, 0, 65, 64
2, 24360, Note_on_c, 0, 72, 64
2, 24360, Note_on_c, 0, 63, 64
2, 24360, Note_on_c, 0, 56, 64
2, 24360, Note_on_c, 0, 48, 64
2, 24420, Note_off_c, 0, 56, 64
2, 24420, Note_on_c, 0, 55, 64
2, 24480, Note_off_c, 0, 55, 64
2, 24480, Note_off_c, 0, 48, 64
2, 24480, Note_off_c, 0, 63, 64
2, 24480, Note_off_c, 0, 72, 64
2, 24480, Note_on_c, 0, 74, 64
2, 24480, Note_on_c, 0, 65, 64
2, 24480, Note_on_c, 0, 56, 64
2, 24480, Note_on_c, 0, 47, 64
2, 24600, Note_off_c, 0, 47, 64
2, 24600, Note_off_c, 0, 56, 64
2, 24600, Note_off_c, 0, 65, 64
2, 24600, Note_off_c, 0, 74, 64
2, 24600, Note_on_c, 0, 72, 64
2, 24600, Note_on_c, 0, 63, 64
2, 24600, Note_on_c, 0, 55, 64
2, 24600, Note_on_c, 0, 53, 64
2, 24660, Note_off_c, 0, 63, 64
2, 24660, Note_off_c, 0, 72, 64
2, 24660, Note_on_c, 0, 71, 64
2, 24660, Note_on_c, 0, 62, 64
2, 24720, Note_off_c, 0, 62, 64
2, 24720, Note_off_c, 0, 71, 64
2, 24720, Note_off_c, 0, 53, 64
2, 24720, Note_off_c, 0, 55, 64
2, 24720, Note_on_c, 0, 72, 64
2, 24720, Note_on_c, 0, 63, 64
2, 24720, Note_on_c, 0, 55, 64
2, 24720, Note_on_c, 0, 51, 64
2, 24780, Note_off_c, 0, 51, 64
2, 24780, Note_on_c, 0, 50, 64
2, 24840, Note_off_c, 0, 50, 64
2, 24840, Note_off_c, 0, 55, 64
2, 24840, Note_off_c, 0, 63, 64
2, 24840, Note_on_c, 0, 63, 64
2, 24840, Note_on_c, 0, 67, 64
2, 24840, Note_on_c, 0, 48, 64
2, 24900, Note_off_c, 0, 48, 64
2, 24900, Note_on_c, 0, 50, 64
2, 24930, Note_off_c, 0, 50, 64
2, 24930, Note_on_c, 0, 51, 64
2, 24960, Note_off_c, 0, 51, 64
2, 24960, Note_off_c, 0, 67, 64
2, 24960, Note_off_c, 0, 63, 64
2, 24960, Note_off_c, 0, 72, 64
2, 24960, Note_on_c, 0, 42, 64
2, 25020, Note_on_c, 0, 74, 64
2, 25080, Note_off_c, 0, 74, 64
2, 25080, Note_on_c, 0, 75, 64
2, 25140, Note_off_c, 0, 75, 64
2, 25140, Note_on_c, 0, 71, 64
2, 25200, Note_off_c, 0, 71, 64
2, 25200, Note_off_c, 0, 42, 64
2, 25200, Note_on_c, 0, 72, 64
2, 25260, Note_on_c, 0, 69, 64
2, 25320, Note_on_c, 0, 66, 64
2, 25380, Note_on_c, 0, 62, 64
2, 25440, Note_off_c, 0, 62, 64
2, 25440, Note_on_c, 0, 63, 64
2, 25500, Note_on_c, 0, 59, 64
2, 25560, Note_off_c, 0, 59, 64
2, 25560, Note_on_c, 0, 60, 64
2, 25620, Note_off_c, 0, 60, 64
2, 25620, Note_on_c, 0, 54, 64
2, 25680, Note_off_c, 0, 54, 64
2, 25680, Note_off_c, 0, 63, 64
2, 25680, Note_off_c, 0, 66, 64
2, 25680, Note_off_c, 0, 69, 64
2, 25680, Note_off_c, 0, 72, 64
2, 25680, Note_on_c, 0, 55, 64
2, 25800, Note_off_c, 0, 55, 64
2, 25800, Note_on_c, 0, 65, 64
2, 25800, Note_on_c, 0, 62, 64
2, 25800, Note_on_c, 0, 71, 64
2, 25800, Note_on_c, 0, 67, 64
2, 25800, Note_on_c, 0, 43, 64
2, 25900, Note_on_c, 0, 36, 64
2, 25913, Note_on_c, 0, 48, 64
2, 25926, Note_off_c, 0, 43, 64
2, 25926, Note_off_c, 0, 67, 64
2, 25926, Note_off_c, 0, 71, 64
2, 25926, Note_off_c, 0, 62, 64
2, 25926, Note_off_c, 0, 65, 64
2, 25926, Note_on_c, 0, 60, 64
2, 25939, Note_on_c, 0, 63, 64
2, 25952, Note_on_c, 0, 67, 64
2, 25965, Note_on_c, 0, 72, 64
2, 26895, Note_off_c, 0, 72, 64
2, 26895, Note_off_c, 0, 67, 64
2, 26895, Note_off_c, 0, 63, 64
2, 26895, Note_off_c, 0, 60, 64
2, 26895, Note_off_c, 0, 36, 64
2, 26895, Note_off_c, 0, 48, 64
2, 26895, End_track
0, 0, End_of_file
