0, 0, Header, 1, 3, 240
1, 0, Start_track
1, 0, Time_signature, 3, 3, 12, 8
1, 0, Tempo, 631579
1, 36480, Tempo, 652174
1, 36600, Tempo, 878426
1, 36660, Tempo, 902490
1, 36720, Tempo, 821918
1, 36840, Tempo, 895522
1, 36960, Tempo, 1090909
1, 37080, Tempo, 1224490
1, 37080, End_track
2, 0, Start_track
2, 0, Text_t, "RH B"
2, 0, Note_on_c, 0, 77, 64
2, 60, Note_off_c, 0, 77, 68
2, 60, Note_on_c, 0, 73, 64
2, 120, Note_off_c, 0, 73, 70
2, 120, Note_on_c, 0, 68, 64
2, 180, Note_off_c, 0, 68, 59
2, 180, Note_on_c, 0, 73, 64
2, 240, Note_off_c, 0, 73, 63
2, 240, Note_on_c, 0, 77, 64
2, 300, Note_off_c, 0, 77, 58
2, 300, Note_on_c, 0, 73, 64
2, 360, Note_off_c, 0, 73, 62
2, 360, Note_on_c, 0, 78, 64
2, 420, Note_off_c, 0, 78, 61
2, 420, Note_on_c, 0, 73, 64
2, 480, Note_off_c, 0, 73, 61
2, 480, Note_on_c, 0, 78, 64
2, 540, Note_off_c, 0, 78, 62
2, 540, Note_on_c, 0, 73, 64
2, 600, Note_off_c, 0, 73, 52
2, 600, Note_on_c, 0, 78, 64
2, 660, Note_off_c, 0, 78, 59
2, 660, Note_on_c, 0, 73, 64
2, 720, Note_off_c, 0, 73, 69
2, 720, Note_on_c, 0, 80, 64
2, 780, Note_off_c, 0, 80, 76
2, 780, Note_on_c, 0, 73, 64
2, 840, Note_off_c, 0, 73, 68
2, 840, Note_on_c, 0, 80, 64
2, 900, Note_off_c, 0, 80, 70
2, 900, Note_on_c, 0, 73, 64
2, 960, Note_off_c, 0, 73, 61
2, 960, Note_on_c, 0, 80, 64
2, 1020, Note_off_c, 0, 80, 72
2, 1020, Note_on_c, 0, 73, 64
2, 1080, Note_off_c, 0, 73, 62
2, 1080, Note_on_c, 0, 82, 64
2, 1140, Note_off_c, 0, 82, 65
2, 1140, Note_on_c, 0, 73, 64
2, 1200, Note_off_c, 0, 73, 54
2, 1200, Note_on_c, 0, 82, 64
2, 1260, Note_off_c, 0, 82, 58
2, 1260, Note_on_c, 0, 73, 64
2, 1320, Note_off_c, 0, 73, 65
2, 1320, Note_on_c, 0, 82, 64
2, 1380, Note_off_c, 0, 82, 54
2, 1380, Note_on_c, 0, 73, 64
2, 1440, Note_off_c, 0, 73, 68
2, 1440, Note_on_c, 0, 80, 64
2, 1500, Note_off_c, 0, 80, 70
2, 1500, Note_on_c, 0, 73, 64
2, 1560, Note_off_c, 0, 73, 61
2, 1560, Note_on_c, 0, 80, 64
2, 1620, Note_off_c, 0, 80, 59
2, 1620, Note_on_c, 0, 73, 64
2, 1680, Note_off_c, 0, 73, 66
2, 1680, Note_on_c, 0, 80, 64
2, 1740, Note_off_c, 0, 80, 77
2, 1740, Note_on_c, 0, 73, 64
2, 1800, Note_off_c, 0, 73, 53
2, 1800, Note_on_c, 0, 78, 64
2, 1860, Note_off_c, 0, 78, 57
2, 1860, Note_on_c, 0, 77, 64
2, 1920, Note_off_c, 0, 77, 73
2, 1920, Note_on_c, 0, 75, 64
2, 1980, Note_off_c, 0, 75, 79
2, 1980, Note_on_c, 0, 77, 64
2, 2040, Note_off_c, 0, 77, 69
2, 2040, Note_on_c, 0, 78, 64
2, 2100, Note_off_c, 0, 78, 79
2, 2100, Note_on_c, 0, 75, 64
2, 2160, Note_off_c, 0, 75, 74
2, 2160, Note_on_c, 0, 77, 64
2, 2220, Note_off_c, 0, 77, 68
2, 2220, Note_on_c, 0, 75, 64
2, 2280, Note_off_c, 0, 75, 74
2, 2280, Note_on_c, 0, 73, 64
2, 2340, Note_off_c, 0, 73, 62
2, 2340, Note_on_c, 0, 75, 64
2, 2400, Note_off_c, 0, 75, 66
2, 2400, Note_on_c, 0, 77, 64
2, 2460, Note_off_c, 0, 77, 62
2, 2460, Note_on_c, 0, 73, 64
2, 2520, Note_off_c, 0, 73, 72
2, 2520, Note_on_c, 0, 75, 64
2, 2580, Note_off_c, 0, 75, 37
2, 2580, Note_on_c, 0, 77, 64
2, 2640, Note_off_c, 0, 77, 62
2, 2640, Note_on_c, 0, 75, 64
2, 2700, Note_off_c, 0, 75, 66
2, 2700, Note_on_c, 0, 73, 64
2, 2760, Note_off_c, 0, 73, 73
2, 2760, Note_on_c, 0, 72, 64
2, 2820, Note_off_c, 0, 72, 55
2, 2820, Note_on_c, 0, 70, 64
2, 2880, Note_off_c, 0, 70, 80
2, 2880, Note_on_c, 0, 68, 64
2, 3120, Note_off_c, 0, 68, 42
2, 3120, Note_on_c, 0, 80, 64
2, 3240, Note_off_c, 0, 80, 53
2, 3240, Note_on_c, 0, 70, 64
2, 3480, Note_off_c, 0, 70, 58
2, 3480, Note_on_c, 0, 80, 64
2, 3600, Note_off_c, 0, 80, 51
2, 3600, Note_on_c, 0, 72, 64
2, 3840, Note_off_c, 0, 72, 52
2, 3840, Note_on_c, 0, 80, 64
2, 3960, Note_off_c, 0, 80, 52
2, 3960, Note_on_c, 0, 73, 64
2, 4200, Note_off_c, 0, 73, 44
2, 4200, Note_on_c, 0, 80, 64
2, 4320, Note_off_c, 0, 80, 57
2, 4320, Note_on_c, 0, 72, 64
2, 4560, Note_off_c, 0, 72, 35
2, 4560, Note_on_c, 0, 80, 64
2, 4680, Note_off_c, 0, 80, 61
2, 4680, Note_on_c, 0, 70, 64
2, 4920, Note_off_c, 0, 70, 16
2, 4920, Note_on_c, 0, 79, 64
2, 5040, Note_off_c, 0, 79, 26
2, 5040, Note_on_c, 0, 68, 64
2, 5280, Note_off_c, 0, 68, 50
2, 5280, Note_on_c, 0, 80, 64
2, 5520, Note_off_c, 0, 80, 61
2, 5520, Note_on_c, 0, 78, 64
2, 5580, Note_off_c, 0, 78, 63
2, 5580, Note_on_c, 0, 77, 64
2, 5640, Note_off_c, 0, 77, 69
2, 5640, Note_on_c, 0, 75, 64
2, 5700, Note_off_c, 0, 75, 62
2, 5700, Note_on_c, 0, 77, 64
2, 5760, Note_off_c, 0, 77, 70
2, 5760, Note_on_c, 0, 78, 64
2, 5820, Note_off_c, 0, 78, 61
2, 5820, Note_on_c, 0, 75, 64
2, 5880, Note_off_c, 0, 75, 65
2, 5880, Note_on_c, 0, 70, 64
2, 5940, Note_off_c, 0, 70, 59
2, 5940, Note_on_c, 0, 75, 64
2, 6000, Note_off_c, 0, 75, 69
2, 6000, Note_on_c, 0, 78, 64
2, 6060, Note_off_c, 0, 78, 52
2, 6060, Note_on_c, 0, 75, 64
2, 6120, Note_off_c, 0, 75, 79
2, 6120, Note_on_c, 0, 80, 64
2, 6180, Note_off_c, 0, 80, 79
2, 6180, Note_on_c, 0, 75, 64
2, 6240, Note_off_c, 0, 75, 79
2, 6240, Note_on_c, 0, 80, 64
2, 6300, Note_off_c, 0, 80, 79
2, 6300, Note_on_c, 0, 75, 64
2, 6360, Note_off_c, 0, 75, 73
2, 6360, Note_on_c, 0, 80, 64
2, 6420, Note_off_c, 0, 80, 70
2, 6420, Note_on_c, 0, 75, 64
2, 6480, Note_off_c, 0, 75, 74
2, 6480, Note_on_c, 0, 82, 64
2, 6540, Note_off_c, 0, 82, 68
2, 6540, Note_on_c, 0, 75, 64
2, 6600, Note_off_c, 0, 75, 74
2, 6600, Note_on_c, 0, 82, 64
2, 6660, Note_off_c, 0, 82, 51
2, 6660, Note_on_c, 0, 75, 64
2, 6720, Note_off_c, 0, 75, 82
2, 6720, Note_on_c, 0, 82, 64
2, 6780, Note_off_c, 0, 82, 52
2, 6780, Note_on_c, 0, 75, 64
2, 6840, Note_off_c, 0, 75, 70
2, 6840, Note_on_c, 0, 83, 64
2, 6900, Note_off_c, 0, 83, 59
2, 6900, Note_on_c, 0, 75, 64
2, 6960, Note_off_c, 0, 75, 80
2, 6960, Note_on_c, 0, 83, 64
2, 7020, Note_off_c, 0, 83, 62
2, 7020, Note_on_c, 0, 75, 64
2, 7080, Note_off_c, 0, 75, 74
2, 7080, Note_on_c, 0, 83, 64
2, 7140, Note_off_c, 0, 83, 55
2, 7140, Note_on_c, 0, 75, 64
2, 7200, Note_off_c, 0, 75, 80
2, 7200, Note_on_c, 0, 82, 64
2, 7260, Note_off_c, 0, 82, 69
2, 7260, Note_on_c, 0, 75, 64
2, 7320, Note_off_c, 0, 75, 74
2, 7320, Note_on_c, 0, 82, 64
2, 7380, Note_off_c, 0, 82, 66
2, 7380, Note_on_c, 0, 75, 64
2, 7440, Note_off_c, 0, 75, 73
2, 7440, Note_on_c, 0, 82, 64
2, 7500, Note_off_c, 0, 82, 59
2, 7500, Note_on_c, 0, 75, 64
2, 7560, Note_off_c, 0, 75, 82
2, 7560, Note_on_c, 0, 80, 64
2, 7620, Note_off_c, 0, 80, 63
2, 7620, Note_on_c, 0, 78, 64
2, 7680, Note_off_c, 0, 78, 65
2, 7680, Note_on_c, 0, 77, 64
2, 7740, Note_off_c, 0, 77, 59
2, 7740, Note_on_c, 0, 78, 64
2, 7800, Note_off_c, 0, 78, 66
2, 7800, Note_on_c, 0, 80, 64
2, 7860, Note_off_c, 0, 80, 79
2, 7860, Note_on_c, 0, 77, 64
2, 7920, Note_off_c, 0, 77, 70
2, 7920, Note_on_c, 0, 78, 64
2, 7980, Note_off_c, 0, 78, 69
2, 7980, Note_on_c, 0, 77, 64
2, 8040, Note_off_c, 0, 77, 55
2, 8040, Note_on_c, 0, 75, 64
2, 8100, Note_off_c, 0, 75, 77
2, 8100, Note_on_c, 0, 77, 64
2, 8160, Note_off_c, 0, 77, 76
2, 8160, Note_on_c, 0, 78, 64
2, 8220, Note_off_c, 0, 78, 57
2, 8220, Note_on_c, 0, 75, 64
2, 8280, Note_off_c, 0, 75, 77
2, 8280, Note_on_c, 0, 77, 64
2, 8340, Note_off_c, 0, 77, 74
2, 8340, Note_on_c, 0, 78, 64
2, 8400, Note_off_c, 0, 78, 1
2, 8400, Note_on_c, 0, 77, 64
2, 8460, Note_off_c, 0, 77, 73
2, 8460, Note_on_c, 0, 75, 64
2, 8520, Note_off_c, 0, 75, 53
2, 8520, Note_on_c, 0, 73, 64
2, 8580, Note_off_c, 0, 73, 80
2, 8580, Note_on_c, 0, 72, 64
2, 8640, Note_off_c, 0, 72, 72
2, 8640, Note_on_c, 0, 70, 64
2, 8880, Note_off_c, 0, 70, 69
2, 8880, Note_on_c, 0, 82, 64
2, 9000, Note_off_c, 0, 82, 69
2, 9000, Note_on_c, 0, 72, 64
2, 9240, Note_off_c, 0, 72, 80
2, 9240, Note_on_c, 0, 82, 64
2, 9360, Note_off_c, 0, 82, 63
2, 9360, Note_on_c, 0, 73, 64
2, 9600, Note_off_c, 0, 73, 73
2, 9600, Note_on_c, 0, 82, 64
2, 9720, Note_off_c, 0, 82, 63
2, 9720, Note_on_c, 0, 75, 64
2, 9960, Note_off_c, 0, 75, 77
2, 9960, Note_on_c, 0, 82, 64
2, 10080, Note_off_c, 0, 82, 59
2, 10080, Note_on_c, 0, 73, 64
2, 10320, Note_off_c, 0, 73, 68
2, 10320, Note_on_c, 0, 82, 64
2, 10440, Note_off_c, 0, 82, 68
2, 10440, Note_on_c, 0, 72, 64
2, 10680, Note_off_c, 0, 72, 59
2, 10680, Note_on_c, 0, 81, 64
2, 10800, Note_off_c, 0, 81, 64
2, 10800, Note_on_c, 0, 70, 64
2, 11040, Note_off_c, 0, 70, 70
2, 11040, Note_on_c, 0, 82, 64
2, 11280, Note_off_c, 0, 82, 57
2, 11280, Note_on_c, 0, 80, 64
2, 11400, Note_off_c, 0, 80, 1
2, 11400, Note_on_c, 0, 79, 64
2, 11520, Note_off_c, 0, 79, 58
2, 11520, Note_on_c, 0, 80, 64
2, 11640, Note_off_c, 0, 80, 76
2, 11640, Note_on_c, 0, 68, 64
2, 11760, Note_off_c, 0, 68, 53
2, 11760, Note_on_c, 0, 80, 64
2, 12000, Note_off_c, 0, 80, 77
2, 12000, Note_on_c, 0, 78, 64
2, 12120, Note_off_c, 0, 78, 49
2, 12120, Note_on_c, 0, 77, 64
2, 12240, Note_off_c, 0, 77, 69
2, 12240, Note_on_c, 0, 78, 64
2, 12300, Note_off_c, 0, 78, 66
2, 12300, Note_on_c, 0, 77, 64
2, 12360, Note_off_c, 0, 77, 61
2, 12360, Note_on_c, 0, 75, 64
2, 12420, Note_off_c, 0, 75, 72
2, 12420, Note_on_c, 0, 77, 64
2, 12480, Note_off_c, 0, 77, 66
2, 12480, Note_on_c, 0, 78, 64
2, 12540, Note_off_c, 0, 78, 62
2, 12540, Note_on_c, 0, 75, 64
2, 12600, Note_off_c, 0, 75, 74
2, 12600, Note_on_c, 0, 81, 64
2, 12660, Note_off_c, 0, 81, 42
2, 12660, Note_on_c, 0, 79, 64
2, 12720, Note_off_c, 0, 79, 46
2, 12720, Note_on_c, 0, 77, 64
2, 12780, Note_off_c, 0, 77, 49
2, 12780, Note_on_c, 0, 79, 64
2, 12840, Note_off_c, 0, 79, 52
2, 12840, Note_on_c, 0, 81, 64
2, 12900, Note_off_c, 0, 81, 49
2, 12900, Note_on_c, 0, 77, 64
2, 12960, Note_off_c, 0, 77, 50
2, 12960, Note_on_c, 0, 82, 64
2, 13020, Note_off_c, 0, 82, 49
2, 13020, Note_on_c, 0, 81, 64
2, 13080, Note_off_c, 0, 81, 66
2, 13080, Note_on_c, 0, 82, 64
2, 13140, Note_off_c, 0, 82, 51
2, 13140, Note_on_c, 0, 84, 64
2, 13200, Note_off_c, 0, 84, 61
2, 13200, Note_on_c, 0, 82, 64
2, 13260, Note_off_c, 0, 82, 55
2, 13260, Note_on_c, 0, 80, 64
2, 13320, Note_off_c, 0, 80, 49
2, 13320, Note_on_c, 0, 79, 64
2, 13380, Note_off_c, 0, 79, 62
2, 13380, Note_on_c, 0, 77, 64
2, 13440, Note_off_c, 0, 77, 68
2, 13440, Note_on_c, 0, 75, 64
2, 13500, Note_off_c, 0, 75, 52
2, 13500, Note_on_c, 0, 77, 64
2, 13560, Note_off_c, 0, 77, 59
2, 13560, Note_on_c, 0, 79, 64
2, 13620, Note_off_c, 0, 79, 61
2, 13620, Note_on_c, 0, 75, 64
2, 13680, Note_off_c, 0, 75, 61
2, 13680, Note_on_c, 0, 80, 64
2, 13800, Note_off_c, 0, 80, 68
2, 13800, Note_on_c, 0, 68, 64
2, 13920, Note_off_c, 0, 68, 65
2, 13920, Note_on_c, 0, 80, 64
2, 14160, Note_off_c, 0, 80, 76
2, 14160, Note_on_c, 0, 78, 64
2, 14280, Note_off_c, 0, 78, 58
2, 14280, Note_on_c, 0, 77, 64
2, 14400, Note_off_c, 0, 77, 74
2, 14400, Note_on_c, 0, 78, 64
2, 14520, Note_off_c, 0, 78, 72
2, 14520, Note_on_c, 0, 66, 64
2, 14640, Note_off_c, 0, 66, 34
2, 14640, Note_on_c, 0, 78, 64
2, 14880, Note_off_c, 0, 78, 61
2, 14880, Note_on_c, 0, 77, 64
2, 15000, Note_off_c, 0, 77, 68
2, 15000, Note_on_c, 0, 75, 64
2, 15120, Note_off_c, 0, 75, 69
2, 15120, Note_on_c, 0, 77, 64
2, 15180, Note_off_c, 0, 77, 70
2, 15180, Note_on_c, 0, 75, 64
2, 15240, Note_off_c, 0, 75, 77
2, 15240, Note_on_c, 0, 73, 64
2, 15300, Note_off_c, 0, 73, 66
2, 15300, Note_on_c, 0, 75, 64
2, 15360, Note_off_c, 0, 75, 73
2, 15360, Note_on_c, 0, 77, 64
2, 15420, Note_off_c, 0, 77, 62
2, 15420, Note_on_c, 0, 73, 64
2, 15480, Note_off_c, 0, 73, 70
2, 15480, Note_on_c, 0, 79, 64
2, 15540, Note_off_c, 0, 79, 45
2, 15540, Note_on_c, 0, 77, 64
2, 15600, Note_off_c, 0, 77, 70
2, 15600, Note_on_c, 0, 75, 64
2, 15660, Note_off_c, 0, 75, 51
2, 15660, Note_on_c, 0, 77, 64
2, 15720, Note_off_c, 0, 77, 59
2, 15720, Note_on_c, 0, 79, 64
2, 15780, Note_off_c, 0, 79, 65
2, 15780, Note_on_c, 0, 75, 64
2, 15840, Note_off_c, 0, 75, 77
2, 15840, Note_on_c, 0, 80, 64
2, 15900, Note_off_c, 0, 80, 85
2, 15900, Note_on_c, 0, 79, 64
2, 15960, Note_off_c, 0, 79, 52
2, 15960, Note_on_c, 0, 80, 64
2, 16020, Note_off_c, 0, 80, 77
2, 16020, Note_on_c, 0, 82, 64
2, 16080, Note_off_c, 0, 82, 70
2, 16080, Note_on_c, 0, 80, 64
2, 16140, Note_off_c, 0, 80, 46
2, 16140, Note_on_c, 0, 78, 64
2, 16200, Note_off_c, 0, 78, 79
2, 16200, Note_on_c, 0, 77, 64
2, 16260, Note_off_c, 0, 77, 50
2, 16260, Note_on_c, 0, 75, 64
2, 16320, Note_off_c, 0, 75, 73
2, 16320, Note_on_c, 0, 73, 64
2, 16380, Note_off_c, 0, 73, 73
2, 16380, Note_on_c, 0, 75, 64
2, 16440, Note_off_c, 0, 75, 65
2, 16440, Note_on_c, 0, 77, 64
2, 16500, Note_off_c, 0, 77, 76
2, 16500, Note_on_c, 0, 73, 64
2, 16560, Note_off_c, 0, 73, 59
2, 16560, Note_on_c, 0, 66, 64
2, 16800, Note_off_c, 0, 66, 51
2, 16800, Note_on_c, 0, 78, 64
2, 16920, Note_off_c, 0, 78, 65
2, 16920, Note_on_c, 0, 68, 64
2, 17160, Note_off_c, 0, 68, 65
2, 17160, Note_on_c, 0, 78, 64
2, 17280, Note_off_c, 0, 78, 70
2, 17280, Note_on_c, 0, 70, 64
2, 17520, Note_off_c, 0, 70, 58
2, 17520, Note_on_c, 0, 78, 64
2, 17640, Note_off_c, 0, 78, 59
2, 17640, Note_on_c, 0, 71, 64
2, 17880, Note_off_c, 0, 71, 77
2, 17880, Note_on_c, 0, 78, 64
2, 18000, Note_off_c, 0, 78, 69
2, 18000, Note_on_c, 0, 70, 64
2, 18240, Note_off_c, 0, 70, 55
2, 18240, Note_on_c, 0, 78, 64
2, 18360, Note_off_c, 0, 78, 54
2, 18360, Note_on_c, 0, 68, 64
2, 18600, Note_off_c, 0, 68, 57
2, 18600, Note_on_c, 0, 77, 64
2, 18720, Note_off_c, 0, 77, 61
2, 18720, Note_on_c, 0, 66, 64
2, 18960, Note_off_c, 0, 66, 53
2, 18960, Note_on_c, 0, 78, 64
2, 19200, Note_off_c, 0, 78, 1
2, 19200, Note_on_c, 0, 77, 64
2, 19260, Note_off_c, 0, 77, 77
2, 19260, Note_on_c, 0, 75, 64
2, 19320, Note_off_c, 0, 75, 69
2, 19320, Note_on_c, 0, 73, 64
2, 19380, Note_off_c, 0, 73, 72
2, 19380, Note_on_c, 0, 75, 64
2, 19440, Note_off_c, 0, 75, 65
2, 19440, Note_on_c, 0, 77, 64
2, 19500, Note_off_c, 0, 77, 66
2, 19500, Note_on_c, 0, 73, 64
2, 19560, Note_off_c, 0, 73, 57
2, 19560, Note_on_c, 0, 68, 64
2, 19620, Note_off_c, 0, 68, 54
2, 19620, Note_on_c, 0, 73, 64
2, 19680, Note_off_c, 0, 73, 69
2, 19680, Note_on_c, 0, 77, 64
2, 19740, Note_off_c, 0, 77, 66
2, 19740, Note_on_c, 0, 73, 64
2, 19800, Note_off_c, 0, 73, 69
2, 19800, Note_on_c, 0, 78, 64
2, 19860, Note_off_c, 0, 78, 63
2, 19860, Note_on_c, 0, 73, 64
2, 19920, Note_off_c, 0, 73, 72
2, 19920, Note_on_c, 0, 78, 64
2, 19980, Note_off_c, 0, 78, 61
2, 19980, Note_on_c, 0, 73, 64
2, 20040, Note_off_c, 0, 73, 80
2, 20040, Note_on_c, 0, 78, 64
2, 20100, Note_off_c, 0, 78, 51
2, 20100, Note_on_c, 0, 73, 64
2, 20160, Note_off_c, 0, 73, 74
2, 20160, Note_on_c, 0, 80, 64
2, 20220, Note_off_c, 0, 80, 72
2, 20220, Note_on_c, 0, 73, 64
2, 20280, Note_off_c, 0, 73, 74
2, 20280, Note_on_c, 0, 80, 64
2, 20340, Note_off_c, 0, 80, 74
2, 20340, Note_on_c, 0, 73, 64
2, 20400, Note_off_c, 0, 73, 77
2, 20400, Note_on_c, 0, 80, 64
2, 20460, Note_off_c, 0, 80, 79
2, 20460, Note_on_c, 0, 73, 64
2, 20520, Note_off_c, 0, 73, 69
2, 20520, Note_on_c, 0, 82, 64
2, 20580, Note_off_c, 0, 82, 61
2, 20580, Note_on_c, 0, 73, 64
2, 20640, Note_off_c, 0, 73, 73
2, 20640, Note_on_c, 0, 82, 64
2, 20700, Note_off_c, 0, 82, 68
2, 20700, Note_on_c, 0, 73, 64
2, 20760, Note_off_c, 0, 73, 70
2, 20760, Note_on_c, 0, 82, 64
2, 20820, Note_off_c, 0, 82, 66
2, 20820, Note_on_c, 0, 73, 64
2, 20880, Note_off_c, 0, 73, 79
2, 20880, Note_on_c, 0, 80, 64
2, 20940, Note_off_c, 0, 80, 77
2, 20940, Note_on_c, 0, 73, 64
2, 21000, Note_off_c, 0, 73, 70
2, 21000, Note_on_c, 0, 80, 64
2, 21060, Note_off_c, 0, 80, 72
2, 21060, Note_on_c, 0, 73, 64
2, 21120, Note_off_c, 0, 73, 73
2, 21120, Note_on_c, 0, 80, 64
2, 21180, Note_off_c, 0, 80, 77
2, 21180, Note_on_c, 0, 73, 64
2, 21240, Note_off_c, 0, 73, 74
2, 21240, Note_on_c, 0, 78, 64
2, 21300, Note_off_c, 0, 78, 63
2, 21300, Note_on_c, 0, 77, 64
2, 21360, Note_off_c, 0, 77, 62
2, 21360, Note_on_c, 0, 75, 64
2, 21420, Note_off_c, 0, 75, 74
2, 21420, Note_on_c, 0, 77, 64
2, 21480, Note_off_c, 0, 77, 68
2, 21480, Note_on_c, 0, 78, 64
2, 21540, Note_off_c, 0, 78, 73
2, 21540, Note_on_c, 0, 75, 64
2, 21600, Note_off_c, 0, 75, 74
2, 21600, Note_on_c, 0, 77, 64
2, 21660, Note_off_c, 0, 77, 63
2, 21660, Note_on_c, 0, 75, 64
2, 21720, Note_off_c, 0, 75, 70
2, 21720, Note_on_c, 0, 73, 64
2, 21780, Note_off_c, 0, 73, 68
2, 21780, Note_on_c, 0, 75, 64
2, 21840, Note_off_c, 0, 75, 74
2, 21840, Note_on_c, 0, 77, 64
2, 21900, Note_off_c, 0, 77, 57
2, 21900, Note_on_c, 0, 73, 64
2, 21960, Note_off_c, 0, 73, 68
2, 21960, Note_on_c, 0, 75, 64
2, 22020, Note_off_c, 0, 75, 74
2, 22020, Note_on_c, 0, 77, 64
2, 22080, Note_off_c, 0, 77, 62
2, 22080, Note_on_c, 0, 75, 64
2, 22140, Note_off_c, 0, 75, 74
2, 22140, Note_on_c, 0, 73, 64
2, 22200, Note_off_c, 0, 73, 1
2, 22200, Note_on_c, 0, 72, 64
2, 22260, Note_off_c, 0, 72, 85
2, 22260, Note_on_c, 0, 70, 64
2, 22320, Note_off_c, 0, 70, 65
2, 22320, Note_on_c, 0, 72, 64
2, 22380, Note_off_c, 0, 72, 76
2, 22380, Note_on_c, 0, 68, 64
2, 22440, Note_off_c, 0, 68, 72
2, 22500, Note_on_c, 0, 68, 64
2, 22560, Note_off_c, 0, 68, 66
2, 22620, Note_on_c, 0, 68, 64
2, 22680, Note_off_c, 0, 68, 52
2, 22680, Note_on_c, 0, 72, 64
2, 22740, Note_off_c, 0, 72, 68
2, 22740, Note_on_c, 0, 68, 64
2, 22800, Note_off_c, 0, 68, 59
2, 22860, Note_on_c, 0, 68, 64
2, 22920, Note_off_c, 0, 68, 58
2, 22980, Note_on_c, 0, 68, 64
2, 23040, Note_off_c, 0, 68, 52
2, 23040, Note_on_c, 0, 73, 64
2, 23100, Note_off_c, 0, 73, 62
2, 23100, Note_on_c, 0, 68, 64
2, 23160, Note_off_c, 0, 68, 59
2, 23220, Note_on_c, 0, 68, 64
2, 23280, Note_off_c, 0, 68, 52
2, 23340, Note_on_c, 0, 68, 64
2, 23400, Note_off_c, 0, 68, 63
2, 23400, Note_on_c, 0, 73, 64
2, 23460, Note_off_c, 0, 73, 68
2, 23460, Note_on_c, 0, 68, 64
2, 23520, Note_off_c, 0, 68, 55
2, 23580, Note_on_c, 0, 68, 64
2, 23640, Note_off_c, 0, 68, 65
2, 23700, Note_on_c, 0, 68, 64
2, 23760, Note_off_c, 0, 68, 49
2, 23760, Note_on_c, 0, 78, 64
2, 23820, Note_off_c, 0, 78, 57
2, 23820, Note_on_c, 0, 68, 64
2, 23880, Note_off_c, 0, 68, 73
2, 23940, Note_on_c, 0, 68, 64
2, 24000, Note_off_c, 0, 68, 70
2, 24060, Note_on_c, 0, 68, 64
2, 24120, Note_off_c, 0, 68, 68
2, 24120, Note_on_c, 0, 78, 64
2, 24180, Note_off_c, 0, 78, 55
2, 24180, Note_on_c, 0, 68, 64
2, 24240, Note_off_c, 0, 68, 73
2, 24300, Note_on_c, 0, 68, 64
2, 24360, Note_off_c, 0, 68, 61
2, 24420, Note_on_c, 0, 68, 64
2, 24480, Note_off_c, 0, 68, 70
2, 24480, Note_on_c, 0, 77, 64
2, 24540, Note_off_c, 0, 77, 49
2, 24540, Note_on_c, 0, 68, 64
2, 24600, Note_off_c, 0, 68, 72
2, 24660, Note_on_c, 0, 68, 64
2, 24720, Note_off_c, 0, 68, 66
2, 24780, Note_on_c, 0, 68, 64
2, 24840, Note_off_c, 0, 68, 59
2, 24840, Note_on_c, 0, 77, 64
2, 24900, Note_off_c, 0, 77, 55
2, 24900, Note_on_c, 0, 68, 64
2, 24960, Note_off_c, 0, 68, 52
2, 25020, Note_on_c, 0, 68, 64
2, 25080, Note_off_c, 0, 68, 66
2, 25140, Note_on_c, 0, 68, 64
2, 25200, Note_off_c, 0, 68, 79
2, 25200, Note_on_c, 0, 79, 64
2, 25260, Note_off_c, 0, 79, 46
2, 25260, Note_on_c, 0, 70, 64
2, 25320, Note_off_c, 0, 70, 63
2, 25380, Note_on_c, 0, 70, 64
2, 25440, Note_off_c, 0, 70, 69
2, 25500, Note_on_c, 0, 70, 64
2, 25560, Note_off_c, 0, 70, 68
2, 25560, Note_on_c, 0, 79, 64
2, 25620, Note_off_c, 0, 79, 37
2, 25620, Note_on_c, 0, 70, 64
2, 25680, Note_off_c, 0, 70, 59
2, 25740, Note_on_c, 0, 70, 64
2, 25800, Note_off_c, 0, 70, 40
2, 25860, Note_on_c, 0, 70, 64
2, 25920, Note_off_c, 0, 70, 50
2, 25920, Note_on_c, 0, 80, 64
2, 25980, Note_off_c, 0, 80, 65
2, 25980, Note_on_c, 0, 72, 64
2, 26040, Note_off_c, 0, 72, 77
2, 26100, Note_on_c, 0, 72, 64
2, 26160, Note_off_c, 0, 72, 77
2, 26220, Note_on_c, 0, 72, 64
2, 26280, Note_off_c, 0, 72, 55
2, 26280, Note_on_c, 0, 80, 64
2, 26340, Note_off_c, 0, 80, 57
2, 26340, Note_on_c, 0, 72, 64
2, 26400, Note_off_c, 0, 72, 76
2, 26460, Note_on_c, 0, 72, 64
2, 26520, Note_off_c, 0, 72, 74
2, 26580, Note_on_c, 0, 72, 64
2, 26640, Note_off_c, 0, 72, 74
2, 26640, Note_on_c, 0, 80, 64
2, 26700, Note_off_c, 0, 80, 63
2, 26700, Note_on_c, 0, 73, 64
2, 26760, Note_off_c, 0, 73, 74
2, 26820, Note_on_c, 0, 68, 64
2, 26880, Note_off_c, 0, 68, 62
2, 26940, Note_on_c, 0, 73, 64
2, 27000, Note_off_c, 0, 73, 65
2, 27060, Note_on_c, 0, 77, 64
2, 27120, Note_off_c, 0, 77, 72
2, 27180, Note_on_c, 0, 80, 64
2, 27240, Note_off_c, 0, 80, 76
2, 27300, Note_on_c, 0, 82, 64
2, 27360, Note_off_c, 0, 82, 34
2, 27360, Note_on_c, 0, 83, 64
2, 27420, Note_off_c, 0, 83, 61
2, 27420, Note_on_c, 0, 82, 64
2, 27480, Note_off_c, 0, 82, 57
2, 27480, Note_on_c, 0, 80, 64
2, 27540, Note_off_c, 0, 80, 72
2, 27540, Note_on_c, 0, 78, 64
2, 27600, Note_off_c, 0, 78, 73
2, 27600, Note_on_c, 0, 77, 64
2, 27660, Note_off_c, 0, 77, 68
2, 27660, Note_on_c, 0, 75, 64
2, 27720, Note_off_c, 0, 75, 72
2, 27720, Note_on_c, 0, 77, 64
2, 27780, Note_off_c, 0, 77, 65
2, 27780, Note_on_c, 0, 78, 64
2, 27840, Note_off_c, 0, 78, 58
2, 27840, Note_on_c, 0, 80, 64
2, 27900, Note_off_c, 0, 80, 68
2, 27900, Note_on_c, 0, 83, 64
2, 27960, Note_off_c, 0, 83, 58
2, 27960, Note_on_c, 0, 82, 64
2, 28020, Note_off_c, 0, 82, 65
2, 28020, Note_on_c, 0, 80, 64
2, 28080, Note_off_c, 0, 80, 76
2, 28080, Note_on_c, 0, 82, 64
2, 28140, Note_off_c, 0, 82, 73
2, 28140, Note_on_c, 0, 75, 64
2, 28200, Note_off_c, 0, 75, 83
2, 28260, Note_on_c, 0, 66, 64
2, 28320, Note_off_c, 0, 66, 63
2, 28380, Note_on_c, 0, 70, 64
2, 28440, Note_off_c, 0, 70, 74
2, 28500, Note_on_c, 0, 75, 64
2, 28560, Note_off_c, 0, 75, 73
2, 28620, Note_on_c, 0, 78, 64
2, 28680, Note_off_c, 0, 78, 74
2, 28740, Note_on_c, 0, 80, 64
2, 28800, Note_off_c, 0, 80, 73
2, 28800, Note_on_c, 0, 81, 64
2, 28860, Note_off_c, 0, 81, 39
2, 28860, Note_on_c, 0, 80, 64
2, 28920, Note_off_c, 0, 80, 76
2, 28920, Note_on_c, 0, 78, 64
2, 28980, Note_off_c, 0, 78, 70
2, 28980, Note_on_c, 0, 76, 64
2, 29040, Note_off_c, 0, 76, 63
2, 29040, Note_on_c, 0, 75, 64
2, 29100, Note_off_c, 0, 75, 74
2, 29100, Note_on_c, 0, 73, 64
2, 29160, Note_off_c, 0, 73, 70
2, 29160, Note_on_c, 0, 75, 64
2, 29220, Note_off_c, 0, 75, 82
2, 29220, Note_on_c, 0, 76, 64
2, 29280, Note_off_c, 0, 76, 46
2, 29280, Note_on_c, 0, 78, 64
2, 29340, Note_off_c, 0, 78, 76
2, 29340, Note_on_c, 0, 81, 64
2, 29400, Note_off_c, 0, 81, 46
2, 29400, Note_on_c, 0, 80, 64
2, 29460, Note_off_c, 0, 80, 80
2, 29460, Note_on_c, 0, 78, 64
2, 29520, Note_off_c, 0, 78, 58
2, 29520, Note_on_c, 0, 80, 64
2, 29580, Note_off_c, 0, 80, 76
2, 29580, Note_on_c, 0, 73, 64
2, 29640, Note_off_c, 0, 73, 62
2, 29700, Note_on_c, 0, 76, 64
2, 29760, Note_off_c, 0, 76, 65
2, 29820, Note_on_c, 0, 73, 64
2, 29880, Note_off_c, 0, 73, 72
2, 29940, Note_on_c, 0, 69, 64
2, 30000, Note_off_c, 0, 69, 73
2, 30060, Note_on_c, 0, 66, 64
2, 30120, Note_off_c, 0, 66, 58
2, 30180, Note_on_c, 0, 75, 64
2, 30240, Note_off_c, 0, 75, 69
2, 30300, Note_on_c, 0, 68, 64
2, 30360, Note_off_c, 0, 68, 69
2, 30420, Note_on_c, 0, 64, 64
2, 30480, Note_off_c, 0, 64, 43
2, 30540, Note_on_c, 0, 73, 64
2, 30600, Note_off_c, 0, 73, 68
2, 30660, Note_on_c, 0, 69, 64
2, 30720, Note_off_c, 0, 69, 73
2, 30780, Note_on_c, 0, 66, 64
2, 30840, Note_off_c, 0, 66, 72
2, 30900, Note_on_c, 0, 63, 64
2, 30960, Note_off_c, 0, 63, 48
2, 30960, Note_on_c, 0, 60, 64
2, 31020, Note_off_c, 0, 60, 36
2, 31020, Note_on_c, 0, 56, 64
2, 31080, Note_off_c, 0, 56, 29
2, 31140, Note_on_c, 0, 56, 64
2, 31200, Note_off_c, 0, 56, 59
2, 31260, Note_on_c, 0, 56, 64
2, 31320, Note_off_c, 0, 56, 42
2, 31320, Note_on_c, 0, 60, 64
2, 31380, Note_off_c, 0, 60, 46
2, 31380, Note_on_c, 0, 56, 64
2, 31440, Note_off_c, 0, 56, 58
2, 31500, Note_on_c, 0, 56, 64
2, 31560, Note_off_c, 0, 56, 57
2, 31620, Note_on_c, 0, 56, 64
2, 31680, Note_off_c, 0, 56, 5
2, 31680, Note_on_c, 0, 61, 64
2, 31740, Note_off_c, 0, 61, 46
2, 31740, Note_on_c, 0, 56, 64
2, 31800, Note_off_c, 0, 56, 49
2, 31860, Note_on_c, 0, 56, 64
2, 31920, Note_off_c, 0, 56, 61
2, 31980, Note_on_c, 0, 56, 64
2, 32040, Note_off_c, 0, 56, 55
2, 32040, Note_on_c, 0, 61, 64
2, 32100, Note_off_c, 0, 61, 51
2, 32100, Note_on_c, 0, 56, 64
2, 32160, Note_off_c, 0, 56, 59
2, 32220, Note_on_c, 0, 56, 64
2, 32280, Note_off_c, 0, 56, 48
2, 32340, Note_on_c, 0, 56, 64
2, 32400, Note_off_c, 0, 56, 37
2, 32400, Note_on_c, 0, 66, 64
2, 32460, Note_off_c, 0, 66, 58
2, 32460, Note_on_c, 0, 56, 64
2, 32520, Note_off_c, 0, 56, 53
2, 32580, Note_on_c, 0, 56, 64
2, 32640, Note_off_c, 0, 56, 65
2, 32700, Note_on_c, 0, 56, 64
2, 32760, Note_off_c, 0, 56, 49
2, 32760, Note_on_c, 0, 66, 64
2, 32820, Note_off_c, 0, 66, 65
2, 32820, Note_on_c, 0, 56, 64
2, 32880, Note_off_c, 0, 56, 53
2, 32940, Note_on_c, 0, 56, 64
2, 33000, Note_off_c, 0, 56, 45
2, 33060, Note_on_c, 0, 56, 64
2, 33120, Note_off_c, 0, 56, 43
2, 33120, Note_on_c, 0, 65, 64
2, 33180, Note_off_c, 0, 65, 1
2, 33180, Note_on_c, 0, 56, 64
2, 33240, Note_off_c, 0, 56, 50
2, 33300, Note_on_c, 0, 56, 64
2, 33360, Note_off_c, 0, 56, 50
2, 33420, Note_on_c, 0, 56, 64
2, 33480, Note_off_c, 0, 56, 46
2, 33480, Note_on_c, 0, 65, 64
2, 33540, Note_off_c, 0, 65, 13
2, 33540, Note_on_c, 0, 56, 64
2, 33600, Note_off_c, 0, 56, 49
2, 33660, Note_on_c, 0, 56, 64
2, 33720, Note_off_c, 0, 56, 47
2, 33780, Note_on_c, 0, 56, 64
2, 33840, Note_off_c, 0, 56, 38
2, 33840, Note_on_c, 0, 67, 64
2, 33900, Note_off_c, 0, 67, 27
2, 33900, Note_on_c, 0, 58, 64
2, 33960, Note_off_c, 0, 58, 52
2, 34020, Note_on_c, 0, 58, 64
2, 34080, Note_off_c, 0, 58, 51
2, 34140, Note_on_c, 0, 58, 64
2, 34200, Note_off_c, 0, 58, 50
2, 34200, Note_on_c, 0, 67, 64
2, 34260, Note_off_c, 0, 67, 31
2, 34260, Note_on_c, 0, 58, 64
2, 34320, Note_off_c, 0, 58, 52
2, 34380, Note_on_c, 0, 58, 64
2, 34440, Note_off_c, 0, 58, 49
2, 34500, Note_on_c, 0, 58, 64
2, 34560, Note_off_c, 0, 58, 53
2, 34740, Note_on_c, 0, 54, 64
2, 34800, Note_off_c, 0, 54, 49
2, 34800, Note_on_c, 0, 57, 64
2, 34860, Note_off_c, 0, 57, 41
2, 34860, Note_on_c, 0, 60, 64
2, 34920, Note_off_c, 0, 60, 58
2, 35100, Note_on_c, 0, 70, 64
2, 35160, Note_off_c, 0, 70, 55
2, 35160, Note_on_c, 0, 73, 64
2, 35220, Note_off_c, 0, 73, 55
2, 35220, Note_on_c, 0, 76, 64
2, 35280, Note_off_c, 0, 76, 46
2, 35280, Note_on_c, 0, 72, 64
2, 35340, Note_off_c, 0, 72, 52
2, 35340, Note_on_c, 0, 75, 64
2, 35400, Note_off_c, 0, 75, 58
2, 35400, Note_on_c, 0, 78, 64
2, 35460, Note_off_c, 0, 78, 50
2, 35460, Note_on_c, 0, 75, 64
2, 35520, Note_off_c, 0, 75, 58
2, 35520, Note_on_c, 0, 72, 64
2, 35580, Note_off_c, 0, 72, 74
2, 35580, Note_on_c, 0, 68, 64
2, 35640, Note_off_c, 0, 68, 72
2, 36000, Note_on_c, 0, 65, 64
2, 36060, Note_off_c, 0, 65, 38
2, 36060, Note_on_c, 0, 68, 64
2, 36120, Note_off_c, 0, 68, 61
2, 36120, Note_on_c, 0, 73, 64
2, 36180, Note_off_c, 0, 73, 51
2, 36180, Note_on_c, 0, 68, 64
2, 36240, Note_off_c, 0, 68, 59
2, 36240, Note_on_c, 0, 65, 64
2, 36300, Note_off_c, 0, 65, 55
2, 36300, Note_on_c, 0, 61, 64
2, 36360, Note_off_c, 0, 61, 72
2, 36840, Note_on_c, 0, 65, 64
2, 36840, Note_on_c, 0, 73, 64
2, 36840, Note_on_c, 0, 68, 64
2, 36940, Note_off_c, 0, 68, 68
2, 36940, Note_off_c, 0, 73, 55
2, 36940, Note_off_c, 0, 65, 62
2, 36960, Note_on_c, 0, 63, 64
2, 36960, Note_on_c, 0, 72, 64
2, 36960, Note_on_c, 0, 68, 64
2, 37060, Note_off_c, 0, 68, 73
2, 37060, Note_off_c, 0, 72, 53
2, 37060, Note_off_c, 0, 63, 39
2, 37080, Note_on_c, 0, 73, 64
2, 37080, Note_on_c, 0, 68, 64
2, 37080, Note_on_c, 0, 61, 64
2, 37440, Note_off_c, 0, 61, 83
2, 37440, Note_off_c, 0, 68, 86
2, 37440, Note_off_c, 0, 73, 83
2, 37440, End_track
3, 0, Start_track
3, 0, Text_t, "LH B"
3, 0, Note_on_c, 1, 49, 64
3, 240, Note_off_c, 1, 49, 85
3, 240, Note_on_c, 1, 61, 64
3, 360, Note_off_c, 1, 61, 83
3, 360, Note_on_c, 1, 51, 64
3, 600, Note_off_c, 1, 51, 74
3, 600, Note_on_c, 1, 61, 64
3, 720, Note_off_c, 1, 61, 77
3, 720, Note_on_c, 1, 53, 64
3, 960, Note_off_c, 1, 53, 72
3, 960, Note_on_c, 1, 61, 64
3, 1080, Note_off_c, 1, 61, 66
3, 1080, Note_on_c, 1, 54, 64
3, 1320, Note_off_c, 1, 54, 61
3, 1320, Note_on_c, 1, 61, 64
3, 1440, Note_off_c, 1, 61, 69
3, 1440, Note_on_c, 1, 53, 64
3, 1680, Note_off_c, 1, 53, 59
3, 1680, Note_on_c, 1, 61, 64
3, 1800, Note_off_c, 1, 61, 70
3, 1800, Note_on_c, 1, 51, 64
3, 2040, Note_off_c, 1, 51, 74
3, 2040, Note_on_c, 1, 60, 64
3, 2160, Note_off_c, 1, 60, 74
3, 2160, Note_on_c, 1, 49, 64
3, 2400, Note_off_c, 1, 49, 80
3, 2400, Note_on_c, 1, 61, 64
3, 2640, Note_off_c, 1, 61, 65
3, 2640, Note_on_c, 1, 60, 64
3, 2700, Note_off_c, 1, 60, 52
3, 2700, Note_on_c, 1, 58, 64
3, 2760, Note_off_c, 1, 58, 61
3, 2760, Note_on_c, 1, 56, 64
3, 2820, Note_off_c, 1, 56, 55
3, 2820, Note_on_c, 1, 58, 64
3, 2880, Note_off_c, 1, 58, 58
3, 2880, Note_on_c, 1, 60, 64
3, 2940, Note_off_c, 1, 60, 61
3, 2940, Note_on_c, 1, 56, 64
3, 3000, Note_off_c, 1, 56, 57
3, 3000, Note_on_c, 1, 51, 64
3, 3060, Note_off_c, 1, 51, 46
3, 3060, Note_on_c, 1, 56, 64
3, 3120, Note_off_c, 1, 56, 59
3, 3120, Note_on_c, 1, 60, 64
3, 3180, Note_off_c, 1, 60, 59
3, 3180, Note_on_c, 1, 56, 64
3, 3240, Note_off_c, 1, 56, 58
3, 3240, Note_on_c, 1, 61, 64
3, 3300, Note_off_c, 1, 61, 70
3, 3300, Note_on_c, 1, 56, 64
3, 3360, Note_off_c, 1, 56, 61
3, 3360, Note_on_c, 1, 61, 64
3, 3420, Note_off_c, 1, 61, 57
3, 3420, Note_on_c, 1, 56, 64
3, 3480, Note_off_c, 1, 56, 57
3, 3480, Note_on_c, 1, 61, 64
3, 3540, Note_off_c, 1, 61, 63
3, 3540, Note_on_c, 1, 56, 64
3, 3600, Note_off_c, 1, 56, 69
3, 3600, Note_on_c, 1, 63, 64
3, 3660, Note_off_c, 1, 63, 65
3, 3660, Note_on_c, 1, 56, 64
3, 3720, Note_off_c, 1, 56, 68
3, 3720, Note_on_c, 1, 63, 64
3, 3780, Note_off_c, 1, 63, 61
3, 3780, Note_on_c, 1, 56, 64
3, 3840, Note_off_c, 1, 56, 63
3, 3840, Note_on_c, 1, 63, 64
3, 3900, Note_off_c, 1, 63, 51
3, 3900, Note_on_c, 1, 56, 64
3, 3960, Note_off_c, 1, 56, 61
3, 3960, Note_on_c, 1, 65, 64
3, 4020, Note_off_c, 1, 65, 1
3, 4020, Note_on_c, 1, 56, 64
3, 4080, Note_off_c, 1, 56, 58
3, 4080, Note_on_c, 1, 65, 64
3, 4140, Note_off_c, 1, 65, 29
3, 4140, Note_on_c, 1, 56, 64
3, 4200, Note_off_c, 1, 56, 65
3, 4200, Note_on_c, 1, 65, 64
3, 4260, Note_off_c, 1, 65, 37
3, 4260, Note_on_c, 1, 56, 64
3, 4320, Note_off_c, 1, 56, 57
3, 4320, Note_on_c, 1, 63, 64
3, 4380, Note_off_c, 1, 63, 52
3, 4380, Note_on_c, 1, 56, 64
3, 4440, Note_off_c, 1, 56, 66
3, 4440, Note_on_c, 1, 63, 64
3, 4500, Note_off_c, 1, 63, 52
3, 4500, Note_on_c, 1, 56, 64
3, 4560, Note_off_c, 1, 56, 65
3, 4560, Note_on_c, 1, 63, 64
3, 4620, Note_off_c, 1, 63, 54
3, 4620, Note_on_c, 1, 56, 64
3, 4680, Note_off_c, 1, 56, 63
3, 4680, Note_on_c, 1, 61, 64
3, 4740, Note_off_c, 1, 61, 69
3, 4740, Note_on_c, 1, 60, 64
3, 4800, Note_off_c, 1, 60, 54
3, 4800, Note_on_c, 1, 58, 64
3, 4860, Note_off_c, 1, 58, 65
3, 4860, Note_on_c, 1, 60, 64
3, 4920, Note_off_c, 1, 60, 59
3, 4920, Note_on_c, 1, 61, 64
3, 4980, Note_off_c, 1, 61, 63
3, 4980, Note_on_c, 1, 58, 64
3, 5040, Note_off_c, 1, 58, 70
3, 5040, Note_on_c, 1, 60, 64
3, 5100, Note_off_c, 1, 60, 57
3, 5100, Note_on_c, 1, 58, 64
3, 5160, Note_off_c, 1, 58, 69
3, 5160, Note_on_c, 1, 56, 64
3, 5220, Note_off_c, 1, 56, 52
3, 5220, Note_on_c, 1, 58, 64
3, 5280, Note_off_c, 1, 58, 49
3, 5280, Note_on_c, 1, 60, 64
3, 5340, Note_off_c, 1, 60, 65
3, 5340, Note_on_c, 1, 56, 64
3, 5400, Note_off_c, 1, 56, 52
3, 5400, Note_on_c, 1, 58, 64
3, 5460, Note_off_c, 1, 58, 1
3, 5460, Note_on_c, 1, 59, 64
3, 5520, Note_off_c, 1, 59, 50
3, 5520, Note_on_c, 1, 58, 64
3, 5580, Note_off_c, 1, 58, 52
3, 5580, Note_on_c, 1, 56, 64
3, 5640, Note_off_c, 1, 56, 52
3, 5640, Note_on_c, 1, 54, 64
3, 5700, Note_off_c, 1, 54, 68
3, 5700, Note_on_c, 1, 53, 64
3, 5760, Note_off_c, 1, 53, 59
3, 5760, Note_on_c, 1, 51, 64
3, 6000, Note_off_c, 1, 51, 54
3, 6000, Note_on_c, 1, 63, 64
3, 6120, Note_off_c, 1, 63, 52
3, 6120, Note_on_c, 1, 53, 64
3, 6360, Note_off_c, 1, 53, 37
3, 6360, Note_on_c, 1, 63, 64
3, 6480, Note_off_c, 1, 63, 53
3, 6480, Note_on_c, 1, 54, 64
3, 6720, Note_off_c, 1, 54, 68
3, 6720, Note_on_c, 1, 63, 64
3, 6840, Note_off_c, 1, 63, 50
3, 6840, Note_on_c, 1, 56, 64
3, 7080, Note_off_c, 1, 56, 73
3, 7080, Note_on_c, 1, 63, 64
3, 7200, Note_off_c, 1, 63, 49
3, 7200, Note_on_c, 1, 54, 64
3, 7440, Note_off_c, 1, 54, 73
3, 7440, Note_on_c, 1, 63, 64
3, 7560, Note_off_c, 1, 63, 49
3, 7560, Note_on_c, 1, 53, 64
3, 7800, Note_off_c, 1, 53, 53
3, 7800, Note_on_c, 1, 62, 64
3, 7920, Note_off_c, 1, 62, 45
3, 7920, Note_on_c, 1, 51, 64
3, 8160, Note_off_c, 1, 51, 57
3, 8160, Note_on_c, 1, 63, 64
3, 8400, Note_off_c, 1, 63, 59
3, 8400, Note_on_c, 1, 61, 64
3, 8460, Note_off_c, 1, 61, 74
3, 8460, Note_on_c, 1, 60, 64
3, 8520, Note_off_c, 1, 60, 43
3, 8520, Note_on_c, 1, 58, 64
3, 8580, Note_off_c, 1, 58, 61
3, 8580, Note_on_c, 1, 60, 64
3, 8640, Note_off_c, 1, 60, 52
3, 8640, Note_on_c, 1, 61, 64
3, 8700, Note_off_c, 1, 61, 54
3, 8700, Note_on_c, 1, 58, 64
3, 8760, Note_off_c, 1, 58, 72
3, 8760, Note_on_c, 1, 53, 64
3, 8820, Note_off_c, 1, 53, 72
3, 8820, Note_on_c, 1, 58, 64
3, 8880, Note_off_c, 1, 58, 68
3, 8880, Note_on_c, 1, 61, 64
3, 8940, Note_off_c, 1, 61, 62
3, 8940, Note_on_c, 1, 58, 64
3, 9000, Note_off_c, 1, 58, 76
3, 9000, Note_on_c, 1, 63, 64
3, 9060, Note_off_c, 1, 63, 52
3, 9060, Note_on_c, 1, 58, 64
3, 9120, Note_off_c, 1, 58, 73
3, 9120, Note_on_c, 1, 63, 64
3, 9180, Note_off_c, 1, 63, 52
3, 9180, Note_on_c, 1, 58, 64
3, 9240, Note_off_c, 1, 58, 73
3, 9240, Note_on_c, 1, 63, 64
3, 9300, Note_off_c, 1, 63, 50
3, 9300, Note_on_c, 1, 58, 64
3, 9360, Note_off_c, 1, 58, 72
3, 9360, Note_on_c, 1, 65, 64
3, 9420, Note_off_c, 1, 65, 43
3, 9420, Note_on_c, 1, 58, 64
3, 9480, Note_off_c, 1, 58, 74
3, 9480, Note_on_c, 1, 65, 64
3, 9540, Note_off_c, 1, 65, 47
3, 9540, Note_on_c, 1, 58, 64
3, 9600, Note_off_c, 1, 58, 72
3, 9600, Note_on_c, 1, 65, 64
3, 9660, Note_off_c, 1, 65, 44
3, 9660, Note_on_c, 1, 58, 64
3, 9720, Note_off_c, 1, 58, 68
3, 9720, Note_on_c, 1, 66, 64
3, 9780, Note_off_c, 1, 66, 46
3, 9780, Note_on_c, 1, 58, 64
3, 9840, Note_off_c, 1, 58, 73
3, 9840, Note_on_c, 1, 66, 64
3, 9900, Note_off_c, 1, 66, 54
3, 9900, Note_on_c, 1, 58, 64
3, 9960, Note_off_c, 1, 58, 72
3, 9960, Note_on_c, 1, 66, 64
3, 10020, Note_off_c, 1, 66, 58
3, 10020, Note_on_c, 1, 58, 64
3, 10080, Note_off_c, 1, 58, 70
3, 10080, Note_on_c, 1, 65, 64
3, 10140, Note_off_c, 1, 65, 52
3, 10140, Note_on_c, 1, 58, 64
3, 10200, Note_off_c, 1, 58, 65
3, 10200, Note_on_c, 1, 65, 64
3, 10260, Note_off_c, 1, 65, 50
3, 10260, Note_on_c, 1, 58, 64
3, 10320, Note_off_c, 1, 58, 72
3, 10320, Note_on_c, 1, 65, 64
3, 10380, Note_off_c, 1, 65, 50
3, 10380, Note_on_c, 1, 58, 64
3, 10440, Note_off_c, 1, 58, 69
3, 10440, Note_on_c, 1, 63, 64
3, 10500, Note_off_c, 1, 63, 49
3, 10500, Note_on_c, 1, 61, 64
3, 10560, Note_off_c, 1, 61, 72
3, 10560, Note_on_c, 1, 60, 64
3, 10620, Note_off_c, 1, 60, 59
3, 10620, Note_on_c, 1, 61, 64
3, 10680, Note_off_c, 1, 61, 66
3, 10680, Note_on_c, 1, 63, 64
3, 10740, Note_off_c, 1, 63, 55
3, 10740, Note_on_c, 1, 60, 64
3, 10800, Note_off_c, 1, 60, 55
3, 10800, Note_on_c, 1, 61, 64
3, 10860, Note_off_c, 1, 61, 76
3, 10860, Note_on_c, 1, 60, 64
3, 10920, Note_off_c, 1, 60, 45
3, 10920, Note_on_c, 1, 58, 64
3, 10980, Note_off_c, 1, 58, 57
3, 10980, Note_on_c, 1, 60, 64
3, 11040, Note_off_c, 1, 60, 68
3, 11040, Note_on_c, 1, 61, 64
3, 11100, Note_off_c, 1, 61, 70
3, 11100, Note_on_c, 1, 58, 64
3, 11160, Note_off_c, 1, 58, 61
3, 11160, Note_on_c, 1, 64, 64
3, 11220, Note_off_c, 1, 64, 50
3, 11220, Note_on_c, 1, 62, 64
3, 11280, Note_off_c, 1, 62, 63
3, 11280, Note_on_c, 1, 60, 64
3, 11340, Note_off_c, 1, 60, 52
3, 11340, Note_on_c, 1, 62, 64
3, 11400, Note_off_c, 1, 62, 63
3, 11400, Note_on_c, 1, 64, 64
3, 11460, Note_off_c, 1, 64, 49
3, 11460, Note_on_c, 1, 60, 64
3, 11520, Note_off_c, 1, 60, 49
3, 11520, Note_on_c, 1, 65, 64
3, 11580, Note_off_c, 1, 65, 74
3, 11580, Note_on_c, 1, 64, 64
3, 11640, Note_off_c, 1, 64, 48
3, 11640, Note_on_c, 1, 65, 64
3, 11700, Note_off_c, 1, 65, 66
3, 11700, Note_on_c, 1, 67, 64
3, 11760, Note_off_c, 1, 67, 26
3, 11760, Note_on_c, 1, 65, 64
3, 11820, Note_off_c, 1, 65, 63
3, 11820, Note_on_c, 1, 63, 64
3, 11880, Note_off_c, 1, 63, 57
3, 11880, Note_on_c, 1, 62, 64
3, 11940, Note_off_c, 1, 62, 63
3, 11940, Note_on_c, 1, 60, 64
3, 12000, Note_off_c, 1, 60, 62
3, 12000, Note_on_c, 1, 58, 64
3, 12060, Note_off_c, 1, 58, 61
3, 12060, Note_on_c, 1, 60, 64
3, 12120, Note_off_c, 1, 60, 59
3, 12120, Note_on_c, 1, 62, 64
3, 12180, Note_off_c, 1, 62, 53
3, 12180, Note_on_c, 1, 58, 64
3, 12240, Note_off_c, 1, 58, 74
3, 12240, Note_on_c, 1, 63, 64
3, 12360, Note_off_c, 1, 63, 62
3, 12360, Note_on_c, 1, 51, 64
3, 12480, Note_off_c, 1, 51, 76
3, 12480, Note_on_c, 1, 63, 64
3, 12720, Note_off_c, 1, 63, 50
3, 12720, Note_on_c, 1, 61, 64
3, 12840, Note_off_c, 1, 61, 72
3, 12840, Note_on_c, 1, 60, 64
3, 12960, Note_off_c, 1, 60, 68
3, 12960, Note_on_c, 1, 61, 64
3, 13080, Note_off_c, 1, 61, 72
3, 13080, Note_on_c, 1, 49, 64
3, 13200, Note_off_c, 1, 49, 61
3, 13200, Note_on_c, 1, 61, 64
3, 13440, Note_off_c, 1, 61, 12
3, 13440, Note_on_c, 1, 60, 64
3, 13560, Note_off_c, 1, 60, 65
3, 13560, Note_on_c, 1, 58, 64
3, 13680, Note_off_c, 1, 58, 54
3, 13680, Note_on_c, 1, 60, 64
3, 13740, Note_off_c, 1, 60, 57
3, 13740, Note_on_c, 1, 58, 64
3, 13800, Note_off_c, 1, 58, 65
3, 13800, Note_on_c, 1, 56, 64
3, 13860, Note_off_c, 1, 56, 59
3, 13860, Note_on_c, 1, 58, 64
3, 13920, Note_off_c, 1, 58, 53
3, 13920, Note_on_c, 1, 60, 64
3, 13980, Note_off_c, 1, 60, 59
3, 13980, Note_on_c, 1, 56, 64
3, 14040, Note_off_c, 1, 56, 54
3, 14040, Note_on_c, 1, 62, 64
3, 14100, Note_off_c, 1, 62, 41
3, 14100, Note_on_c, 1, 60, 64
3, 14160, Note_off_c, 1, 60, 65
3, 14160, Note_on_c, 1, 58, 64
3, 14220, Note_off_c, 1, 58, 49
3, 14220, Note_on_c, 1, 60, 64
3, 14280, Note_off_c, 1, 60, 61
3, 14280, Note_on_c, 1, 62, 64
3, 14340, Note_off_c, 1, 62, 59
3, 14340, Note_on_c, 1, 58, 64
3, 14400, Note_off_c, 1, 58, 79
3, 14400, Note_on_c, 1, 63, 64
3, 14460, Note_off_c, 1, 63, 69
3, 14460, Note_on_c, 1, 62, 64
3, 14520, Note_off_c, 1, 62, 52
3, 14520, Note_on_c, 1, 63, 64
3, 14580, Note_off_c, 1, 63, 59
3, 14580, Note_on_c, 1, 65, 64
3, 14640, Note_off_c, 1, 65, 62
3, 14640, Note_on_c, 1, 63, 64
3, 14700, Note_off_c, 1, 63, 34
3, 14700, Note_on_c, 1, 61, 64
3, 14760, Note_off_c, 1, 61, 77
3, 14760, Note_on_c, 1, 60, 64
3, 14820, Note_off_c, 1, 60, 63
3, 14820, Note_on_c, 1, 58, 64
3, 14880, Note_off_c, 1, 58, 74
3, 14880, Note_on_c, 1, 56, 64
3, 14940, Note_off_c, 1, 56, 58
3, 14940, Note_on_c, 1, 58, 64
3, 15000, Note_off_c, 1, 58, 57
3, 15000, Note_on_c, 1, 60, 64
3, 15060, Note_off_c, 1, 60, 66
3, 15060, Note_on_c, 1, 56, 64
3, 15120, Note_off_c, 1, 56, 69
3, 15120, Note_on_c, 1, 61, 64
3, 15240, Note_off_c, 1, 61, 77
3, 15240, Note_on_c, 1, 49, 64
3, 15360, Note_off_c, 1, 49, 48
3, 15360, Note_on_c, 1, 61, 64
3, 15600, Note_off_c, 1, 61, 65
3, 15600, Note_on_c, 1, 59, 64
3, 15720, Note_off_c, 1, 59, 66
3, 15720, Note_on_c, 1, 58, 64
3, 15840, Note_off_c, 1, 58, 51
3, 15840, Note_on_c, 1, 59, 64
3, 15960, Note_off_c, 1, 59, 53
3, 15960, Note_on_c, 1, 47, 64
3, 16080, Note_off_c, 1, 47, 46
3, 16080, Note_on_c, 1, 59, 64
3, 16320, Note_off_c, 1, 59, 47
3, 16320, Note_on_c, 1, 58, 64
3, 16440, Note_off_c, 1, 58, 61
3, 16440, Note_on_c, 1, 56, 64
3, 16560, Note_off_c, 1, 56, 59
3, 16560, Note_on_c, 1, 58, 64
3, 16620, Note_off_c, 1, 58, 54
3, 16620, Note_on_c, 1, 54, 64
3, 16680, Note_off_c, 1, 54, 54
3, 16680, Note_on_c, 1, 49, 64
3, 16740, Note_off_c, 1, 49, 40
3, 16740, Note_on_c, 1, 54, 64
3, 16800, Note_off_c, 1, 54, 58
3, 16800, Note_on_c, 1, 58, 64
3, 16860, Note_off_c, 1, 58, 69
3, 16860, Note_on_c, 1, 54, 64
3, 16920, Note_off_c, 1, 54, 59
3, 16920, Note_on_c, 1, 59, 64
3, 16980, Note_off_c, 1, 59, 51
3, 16980, Note_on_c, 1, 54, 64
3, 17040, Note_off_c, 1, 54, 59
3, 17040, Note_on_c, 1, 59, 64
3, 17100, Note_off_c, 1, 59, 53
3, 17100, Note_on_c, 1, 54, 64
3, 17160, Note_off_c, 1, 54, 62
3, 17160, Note_on_c, 1, 59, 64
3, 17220, Note_off_c, 1, 59, 68
3, 17220, Note_on_c, 1, 54, 64
3, 17280, Note_off_c, 1, 54, 62
3, 17280, Note_on_c, 1, 61, 64
3, 17340, Note_off_c, 1, 61, 74
3, 17340, Note_on_c, 1, 54, 64
3, 17400, Note_off_c, 1, 54, 63
3, 17400, Note_on_c, 1, 61, 64
3, 17460, Note_off_c, 1, 61, 72
3, 17460, Note_on_c, 1, 54, 64
3, 17520, Note_off_c, 1, 54, 65
3, 17520, Note_on_c, 1, 61, 64
3, 17580, Note_off_c, 1, 61, 76
3, 17580, Note_on_c, 1, 54, 64
3, 17640, Note_off_c, 1, 54, 70
3, 17640, Note_on_c, 1, 63, 64
3, 17700, Note_off_c, 1, 63, 52
3, 17700, Note_on_c, 1, 54, 64
3, 17760, Note_off_c, 1, 54, 70
3, 17760, Note_on_c, 1, 63, 64
3, 17820, Note_off_c, 1, 63, 50
3, 17820, Note_on_c, 1, 54, 64
3, 17880, Note_off_c, 1, 54, 68
3, 17880, Note_on_c, 1, 63, 64
3, 17940, Note_off_c, 1, 63, 46
3, 17940, Note_on_c, 1, 54, 64
3, 18000, Note_off_c, 1, 54, 70
3, 18000, Note_on_c, 1, 61, 64
3, 18060, Note_off_c, 1, 61, 65
3, 18060, Note_on_c, 1, 54, 64
3, 18120, Note_off_c, 1, 54, 63
3, 18120, Note_on_c, 1, 61, 64
3, 18180, Note_off_c, 1, 61, 66
3, 18180, Note_on_c, 1, 54, 64
3, 18240, Note_off_c, 1, 54, 65
3, 18240, Note_on_c, 1, 61, 64
3, 18300, Note_off_c, 1, 61, 62
3, 18300, Note_on_c, 1, 54, 64
3, 18360, Note_off_c, 1, 54, 68
3, 18360, Note_on_c, 1, 59, 64
3, 18420, Note_off_c, 1, 59, 49
3, 18420, Note_on_c, 1, 58, 64
3, 18480, Note_off_c, 1, 58, 59
3, 18480, Note_on_c, 1, 56, 64
3, 18540, Note_off_c, 1, 56, 46
3, 18540, Note_on_c, 1, 58, 64
3, 18600, Note_off_c, 1, 58, 21
3, 18600, Note_on_c, 1, 59, 64
3, 18660, Note_off_c, 1, 59, 51
3, 18660, Note_on_c, 1, 56, 64
3, 18720, Note_off_c, 1, 56, 61
3, 18720, Note_on_c, 1, 58, 64
3, 18780, Note_off_c, 1, 58, 54
3, 18780, Note_on_c, 1, 56, 64
3, 18840, Note_off_c, 1, 56, 57
3, 18840, Note_on_c, 1, 54, 64
3, 18900, Note_off_c, 1, 54, 37
3, 18900, Note_on_c, 1, 56, 64
3, 18960, Note_off_c, 1, 56, 54
3, 18960, Note_on_c, 1, 58, 64
3, 19020, Note_off_c, 1, 58, 61
3, 19020, Note_on_c, 1, 54, 64
3, 19080, Note_off_c, 1, 54, 43
3, 19080, Note_on_c, 1, 56, 64
3, 19140, Note_off_c, 1, 56, 57
3, 19140, Note_on_c, 1, 58, 64
3, 19200, Note_off_c, 1, 58, 68
3, 19200, Note_on_c, 1, 56, 64
3, 19260, Note_off_c, 1, 56, 55
3, 19260, Note_on_c, 1, 54, 64
3, 19320, Note_off_c, 1, 54, 74
3, 19320, Note_on_c, 1, 53, 64
3, 19380, Note_off_c, 1, 53, 61
3, 19380, Note_on_c, 1, 51, 64
3, 19440, Note_off_c, 1, 51, 70
3, 19440, Note_on_c, 1, 49, 64
3, 19680, Note_off_c, 1, 49, 82
3, 19680, Note_on_c, 1, 61, 64
3, 19800, Note_off_c, 1, 61, 80
3, 19800, Note_on_c, 1, 51, 64
3, 20040, Note_off_c, 1, 51, 73
3, 20040, Note_on_c, 1, 61, 64
3, 20160, Note_off_c, 1, 61, 62
3, 20160, Note_on_c, 1, 53, 64
3, 20400, Note_off_c, 1, 53, 62
3, 20400, Note_on_c, 1, 61, 64
3, 20520, Note_off_c, 1, 61, 72
3, 20520, Note_on_c, 1, 54, 64
3, 20760, Note_off_c, 1, 54, 69
3, 20760, Note_on_c, 1, 61, 64
3, 20880, Note_off_c, 1, 61, 72
3, 20880, Note_on_c, 1, 53, 64
3, 21120, Note_off_c, 1, 53, 66
3, 21120, Note_on_c, 1, 61, 64
3, 21240, Note_off_c, 1, 61, 72
3, 21240, Note_on_c, 1, 51, 64
3, 21480, Note_off_c, 1, 51, 70
3, 21480, Note_on_c, 1, 60, 64
3, 21600, Note_off_c, 1, 60, 65
3, 21600, Note_on_c, 1, 49, 64
3, 21840, Note_off_c, 1, 49, 80
3, 21840, Note_on_c, 1, 61, 64
3, 21960, Note_off_c, 1, 61, 76
3, 21960, Note_on_c, 1, 54, 64
3, 22080, Note_off_c, 1, 54, 70
3, 22080, Note_on_c, 1, 53, 64
3, 22200, Note_off_c, 1, 53, 70
3, 22200, Note_on_c, 1, 51, 64
3, 22320, Note_off_c, 1, 51, 76
3, 22320, Note_on_c, 1, 56, 64
3, 22440, Note_off_c, 1, 56, 50
3, 22440, Note_on_c, 1, 66, 64
3, 22560, Note_off_c, 1, 66, 61
3, 22560, Note_on_c, 1, 63, 64
3, 22680, Note_off_c, 1, 63, 53
3, 22680, Note_on_c, 1, 56, 64
3, 22800, Note_off_c, 1, 56, 53
3, 22800, Note_on_c, 1, 66, 64
3, 22920, Note_off_c, 1, 66, 77
3, 22920, Note_on_c, 1, 63, 64
3, 23040, Note_off_c, 1, 63, 47
3, 23040, Note_on_c, 1, 56, 64
3, 23160, Note_off_c, 1, 56, 50
3, 23160, Note_on_c, 1, 65, 64
3, 23280, Note_off_c, 1, 65, 49
3, 23280, Note_on_c, 1, 61, 64
3, 23400, Note_off_c, 1, 61, 68
3, 23400, Note_on_c, 1, 56, 64
3, 23520, Note_off_c, 1, 56, 52
3, 23520, Note_on_c, 1, 65, 64
3, 23640, Note_off_c, 1, 65, 61
3, 23640, Note_on_c, 1, 61, 64
3, 23760, Note_off_c, 1, 61, 76
3, 23760, Note_on_c, 1, 56, 64
3, 23880, Note_off_c, 1, 56, 46
3, 23880, Note_on_c, 1, 63, 64
3, 24000, Note_off_c, 1, 63, 52
3, 24000, Note_on_c, 1, 60, 64
3, 24120, Note_off_c, 1, 60, 65
3, 24120, Note_on_c, 1, 56, 64
3, 24240, Note_off_c, 1, 56, 49
3, 24240, Note_on_c, 1, 63, 64
3, 24360, Note_off_c, 1, 63, 55
3, 24360, Note_on_c, 1, 60, 64
3, 24480, Note_off_c, 1, 60, 61
3, 24480, Note_on_c, 1, 56, 64
3, 24600, Note_off_c, 1, 56, 47
3, 24600, Note_on_c, 1, 65, 64
3, 24720, Note_off_c, 1, 65, 50
3, 24720, Note_on_c, 1, 61, 64
3, 24840, Note_off_c, 1, 61, 61
3, 24840, Note_on_c, 1, 56, 64
3, 24960, Note_off_c, 1, 56, 54
3, 24960, Note_on_c, 1, 65, 64
3, 25080, Note_off_c, 1, 65, 52
3, 25080, Note_on_c, 1, 61, 64
3, 25200, Note_off_c, 1, 61, 52
3, 25200, Note_on_c, 1, 56, 64
3, 25320, Note_off_c, 1, 56, 52
3, 25320, Note_on_c, 1, 64, 64
3, 25440, Note_off_c, 1, 64, 45
3, 25440, Note_on_c, 1, 61, 64
3, 25560, Note_off_c, 1, 61, 61
3, 25560, Note_on_c, 1, 56, 64
3, 25680, Note_off_c, 1, 56, 55
3, 25680, Note_on_c, 1, 64, 64
3, 25800, Note_off_c, 1, 64, 50
3, 25800, Note_on_c, 1, 61, 64
3, 25920, Note_off_c, 1, 61, 66
3, 25920, Note_on_c, 1, 56, 64
3, 26040, Note_off_c, 1, 56, 53
3, 26040, Note_on_c, 1, 63, 64
3, 26160, Note_off_c, 1, 63, 57
3, 26160, Note_on_c, 1, 60, 64
3, 26280, Note_off_c, 1, 60, 54
3, 26280, Note_on_c, 1, 54, 64
3, 26400, Note_off_c, 1, 54, 54
3, 26400, Note_on_c, 1, 63, 64
3, 26520, Note_off_c, 1, 63, 52
3, 26520, Note_on_c, 1, 60, 64
3, 26640, Note_off_c, 1, 60, 61
3, 26640, Note_on_c, 1, 53, 64
3, 26760, Note_off_c, 1, 53, 68
3, 26760, Note_on_c, 1, 65, 64
3, 26880, Note_off_c, 1, 65, 52
3, 26880, Note_on_c, 1, 61, 64
3, 27000, Note_off_c, 1, 61, 52
3, 27000, Note_on_c, 1, 56, 64
3, 27120, Note_off_c, 1, 56, 62
3, 27120, Note_on_c, 1, 53, 64
3, 27240, Note_off_c, 1, 53, 43
3, 27240, Note_on_c, 1, 51, 64
3, 27360, Note_off_c, 1, 51, 76
3, 27360, Note_on_c, 1, 50, 64
3, 27480, Note_off_c, 1, 50, 70
3, 27480, Note_on_c, 1, 53, 64
3, 27600, Note_off_c, 1, 53, 47
3, 27600, Note_on_c, 1, 58, 64
3, 27720, Note_off_c, 1, 58, 72
3, 27720, Note_on_c, 1, 62, 64
3, 27840, Note_off_c, 1, 62, 44
3, 27840, Note_on_c, 1, 65, 64
3, 27960, Note_off_c, 1, 65, 50
3, 27960, Note_on_c, 1, 68, 64
3, 28080, Note_off_c, 1, 68, 73
3, 28080, Note_on_c, 1, 66, 64
3, 28200, Note_off_c, 1, 66, 66
3, 28200, Note_on_c, 1, 63, 64
3, 28320, Note_off_c, 1, 63, 58
3, 28320, Note_on_c, 1, 58, 64
3, 28440, Note_off_c, 1, 58, 55
3, 28440, Note_on_c, 1, 54, 64
3, 28560, Note_off_c, 1, 54, 61
3, 28560, Note_on_c, 1, 51, 64
3, 28680, Note_off_c, 1, 51, 73
3, 28680, Note_on_c, 1, 49, 64
3, 28800, Note_off_c, 1, 49, 77
3, 28800, Note_on_c, 1, 48, 64
3, 28920, Note_off_c, 1, 48, 70
3, 28920, Note_on_c, 1, 51, 64
3, 29040, Note_off_c, 1, 51, 54
3, 29040, Note_on_c, 1, 56, 64
3, 29160, Note_off_c, 1, 56, 70
3, 29160, Note_on_c, 1, 60, 64
3, 29280, Note_off_c, 1, 60, 52
3, 29280, Note_on_c, 1, 63, 64
3, 29400, Note_off_c, 1, 63, 63
3, 29400, Note_on_c, 1, 66, 64
3, 29520, Note_off_c, 1, 66, 72
3, 29520, Note_on_c, 1, 64, 64
3, 29640, Note_off_c, 1, 64, 54
3, 29640, Note_on_c, 1, 61, 64
3, 29760, Note_off_c, 1, 61, 61
3, 29760, Note_on_c, 1, 57, 64
3, 29880, Note_off_c, 1, 57, 57
3, 29880, Note_on_c, 1, 54, 64
3, 30000, Note_off_c, 1, 54, 45
3, 30000, Note_on_c, 1, 63, 64
3, 30120, Note_off_c, 1, 63, 66
3, 30120, Note_on_c, 1, 60, 64
3, 30240, Note_off_c, 1, 60, 61
3, 30240, Note_on_c, 1, 52, 64
3, 30360, Note_off_c, 1, 52, 40
3, 30360, Note_on_c, 1, 61, 64
3, 30480, Note_off_c, 1, 61, 70
3, 30480, Note_on_c, 1, 57, 64
3, 30600, Note_off_c, 1, 57, 45
3, 30600, Note_on_c, 1, 54, 64
3, 30720, Note_off_c, 1, 54, 50
3, 30720, Note_on_c, 1, 51, 64
3, 30840, Note_off_c, 1, 51, 62
3, 30840, Note_on_c, 1, 48, 64
3, 30960, Note_off_c, 1, 48, 40
3, 30960, Note_on_c, 1, 44, 64
3, 31080, Note_off_c, 1, 44, 76
3, 31080, Note_on_c, 1, 54, 64
3, 31200, Note_off_c, 1, 54, 57
3, 31200, Note_on_c, 1, 51, 64
3, 31320, Note_off_c, 1, 51, 70
3, 31320, Note_on_c, 1, 44, 64
3, 31440, Note_off_c, 1, 44, 77
3, 31440, Note_on_c, 1, 54, 64
3, 31560, Note_off_c, 1, 54, 59
3, 31560, Note_on_c, 1, 51, 64
3, 31680, Note_off_c, 1, 51, 68
3, 31680, Note_on_c, 1, 44, 64
3, 31800, Note_off_c, 1, 44, 77
3, 31800, Note_on_c, 1, 53, 64
3, 31920, Note_off_c, 1, 53, 55
3, 31920, Note_on_c, 1, 49, 64
3, 32040, Note_off_c, 1, 49, 77
3, 32040, Note_on_c, 1, 44, 64
3, 32160, Note_off_c, 1, 44, 76
3, 32160, Note_on_c, 1, 53, 64
3, 32280, Note_off_c, 1, 53, 52
3, 32280, Note_on_c, 1, 49, 64
3, 32400, Note_off_c, 1, 49, 70
3, 32400, Note_on_c, 1, 44, 64
3, 32520, Note_off_c, 1, 44, 76
3, 32520, Note_on_c, 1, 51, 64
3, 32640, Note_off_c, 1, 51, 66
3, 32640, Note_on_c, 1, 48, 64
3, 32760, Note_off_c, 1, 48, 62
3, 32760, Note_on_c, 1, 44, 64
3, 32880, Note_off_c, 1, 44, 74
3, 32880, Note_on_c, 1, 51, 64
3, 33000, Note_off_c, 1, 51, 74
3, 33000, Note_on_c, 1, 48, 64
3, 33120, Note_off_c, 1, 48, 52
3, 33120, Note_on_c, 1, 44, 64
3, 33240, Note_off_c, 1, 44, 74
3, 33240, Note_on_c, 1, 53, 64
3, 33360, Note_off_c, 1, 53, 59
3, 33360, Note_on_c, 1, 49, 64
3, 33480, Note_off_c, 1, 49, 68
3, 33480, Note_on_c, 1, 44, 64
3, 33600, Note_off_c, 1, 44, 74
3, 33600, Note_on_c, 1, 53, 64
3, 33720, Note_off_c, 1, 53, 59
3, 33720, Note_on_c, 1, 49, 64
3, 33840, Note_off_c, 1, 49, 68
3, 33840, Note_on_c, 1, 44, 64
3, 33960, Note_off_c, 1, 44, 72
3, 33960, Note_on_c, 1, 52, 64
3, 34080, Note_off_c, 1, 52, 63
3, 34080, Note_on_c, 1, 49, 64
3, 34200, Note_off_c, 1, 49, 70
3, 34200, Note_on_c, 1, 44, 64
3, 34320, Note_off_c, 1, 44, 73
3, 34320, Note_on_c, 1, 52, 64
3, 34440, Note_off_c, 1, 52, 73
3, 34440, Note_on_c, 1, 49, 64
3, 34560, Note_off_c, 1, 49, 74
3, 34560, Note_on_c, 1, 44, 64
3, 34620, Note_off_c, 1, 44, 74
3, 34620, Note_on_c, 1, 48, 64
3, 34680, Note_off_c, 1, 48, 57
3, 34680, Note_on_c, 1, 51, 64
3, 34740, Note_off_c, 1, 51, 77
3, 34920, Note_on_c, 1, 61, 64
3, 34980, Note_off_c, 1, 61, 46
3, 34980, Note_on_c, 1, 64, 64
3, 35040, Note_off_c, 1, 64, 46
3, 35040, Note_on_c, 1, 67, 64
3, 35100, Note_off_c, 1, 67, 58
3, 35280, Note_on_c, 1, 44, 64
3, 35400, Note_off_c, 1, 44, 77
3, 35640, Note_on_c, 1, 66, 64
3, 35700, Note_off_c, 1, 66, 63
3, 35700, Note_on_c, 1, 63, 64
3, 35760, Note_off_c, 1, 63, 59
3, 35760, Note_on_c, 1, 60, 64
3, 35820, Note_off_c, 1, 60, 61
3, 35820, Note_on_c, 1, 56, 64
3, 35880, Note_off_c, 1, 56, 65
3, 35880, Note_on_c, 1, 60, 64
3, 35940, Note_off_c, 1, 60, 61
3, 35940, Note_on_c, 1, 63, 64
3, 36000, Note_off_c, 1, 63, 74
3, 36000, Note_on_c, 1, 56, 64
3, 36120, Note_off_c, 1, 56, 77
3, 36360, Note_on_c, 1, 58, 64
3, 36420, Note_off_c, 1, 58, 52
3, 36420, Note_on_c, 1, 55, 64
3, 36480, Note_off_c, 1, 55, 57
3, 36480, Note_on_c, 1, 52, 64
3, 36540, Note_off_c, 1, 52, 17
3, 36540, Note_on_c, 1, 49, 64
3, 36600, Note_off_c, 1, 49, 35
3, 36600, Note_on_c, 1, 52, 64
3, 36660, Note_off_c, 1, 52, 44
3, 36660, Note_on_c, 1, 55, 64
3, 36720, Note_off_c, 1, 55, 62
3, 36720, Note_on_c, 1, 44, 64
3, 36840, Note_on_c, 1, 56, 64
3, 36840, Note_on_c, 1, 53, 64
3, 36840, Note_on_c, 1, 49, 64
3, 36940, Note_off_c, 1, 49, 74
3, 36940, Note_off_c, 1, 53, 63
3, 36940, Note_off_c, 1, 56, 66
3, 36960, Note_on_c, 1, 51, 64
3, 36960, Note_on_c, 1, 56, 64
3, 36960, Note_on_c, 1, 54, 64
3, 37060, Note_off_c, 1, 54, 73
3, 37060, Note_off_c, 1, 56, 66
3, 37060, Note_off_c, 1, 51, 77
3, 37080, Note_off_c, 1, 44, 68
3, 37080, Note_on_c, 1, 49, 64
3, 37080, Note_on_c, 1, 53, 64
3, 37080, Note_on_c, 1, 56, 64
3, 37080, Note_on_c, 1, 51, 64
3, 37087, Note_off_c, 1, 51, 73
3, 37440, Note_off_c, 1, 56, 74
3, 37440, Note_off_c, 1, 53, 74
3, 37440, Note_off_c, 1, 49, 85
3, 37440, End_track
0, 0, End_of_file
