0, 0, Header, 1, 2, 240
1, 0, Start_track
1, 0, Time_signature, 3, 3, 12, 8
1, 0, Tempo, 625000
1, 17280, Text_t, "Repeat"
1, 34560, Text_t, "Part 2"
1, 56160, Text_t, "Repeat"
1, 56160, End_track
2, 0, Start_track
2, 0, Note_on_c, 0, 52, 64
2, 60, Note_on_c, 0, 67, 64
2, 120, Note_off_c, 0, 67, 64
2, 120, Note_off_c, 0, 52, 64
2, 120, Note_on_c, 0, 69, 64
2, 120, Note_on_c, 0, 40, 64
2, 180, Note_off_c, 0, 69, 64
2, 180, Note_on_c, 0, 71, 64
2, 240, Note_off_c, 0, 71, 64
2, 240, Note_off_c, 0, 40, 64
2, 240, Note_on_c, 0, 72, 64
2, 300, Note_off_c, 0, 72, 64
2, 300, Note_on_c, 0, 69, 64
2, 360, Note_off_c, 0, 69, 64
2, 360, Note_on_c, 0, 71, 64
2, 420, Note_off_c, 0, 71, 64
2, 420, Note_on_c, 0, 67, 64
2, 480, Note_off_c, 0, 67, 64
2, 480, Note_on_c, 0, 66, 64
2, 540, Note_off_c, 0, 66, 64
2, 540, Note_on_c, 0, 64, 64
2, 600, Note_off_c, 0, 64, 64
2, 600, Note_on_c, 0, 63, 64
2, 660, Note_off_c, 0, 63, 64
2, 660, Note_on_c, 0, 69, 64
2, 720, Note_off_c, 0, 69, 64
2, 720, Note_on_c, 0, 67, 64
2, 750, Note_off_c, 0, 67, 64
2, 750, Note_on_c, 0, 66, 64
2, 780, Note_off_c, 0, 66, 64
2, 780, Note_on_c, 0, 64, 64
2, 780, Note_on_c, 0, 55, 64
2, 840, Note_off_c, 0, 55, 64
2, 840, Note_off_c, 0, 64, 64
2, 840, Note_on_c, 0, 76, 64
2, 840, Note_on_c, 0, 57, 64
2, 900, Note_off_c, 0, 57, 64
2, 900, Note_on_c, 0, 59, 64
2, 960, Note_off_c, 0, 59, 64
2, 960, Note_off_c, 0, 76, 64
2, 960, Note_on_c, 0, 60, 64
2, 1020, Note_off_c, 0, 60, 64
2, 1020, Note_on_c, 0, 57, 64
2, 1080, Note_off_c, 0, 57, 64
2, 1080, Note_on_c, 0, 75, 64
2, 1080, Note_on_c, 0, 59, 64
2, 1110, Note_off_c, 0, 75, 64
2, 1110, Note_on_c, 0, 73, 64
2, 1140, Note_off_c, 0, 73, 64
2, 1140, Note_off_c, 0, 59, 64
2, 1140, Note_on_c, 0, 71, 64
2, 1140, Note_on_c, 0, 55, 64
2, 1200, Note_off_c, 0, 55, 64
2, 1200, Note_off_c, 0, 71, 64
2, 1200, Note_on_c, 0, 81, 64
2, 1200, Note_on_c, 0, 54, 64
2, 1260, Note_off_c, 0, 54, 64
2, 1260, Note_on_c, 0, 52, 64
2, 1320, Note_off_c, 0, 52, 64
2, 1320, Note_off_c, 0, 81, 64
2, 1320, Note_on_c, 0, 51, 64
2, 1380, Note_off_c, 0, 51, 64
2, 1380, Note_on_c, 0, 57, 64
2, 1440, Note_off_c, 0, 57, 64
2, 1440, Note_on_c, 0, 55, 64
2, 1500, Note_off_c, 0, 55, 64
2, 1500, Note_on_c, 0, 67, 64
2, 1500, Note_on_c, 0, 52, 64
2, 1560, Note_off_c, 0, 52, 64
2, 1560, Note_off_c, 0, 67, 64
2, 1560, Note_on_c, 0, 69, 64
2, 1560, Note_on_c, 0, 54, 64
2, 1620, Note_off_c, 0, 54, 64
2, 1620, Note_off_c, 0, 69, 64
2, 1620, Note_on_c, 0, 71, 64
2, 1620, Note_on_c, 0, 55, 64
2, 1680, Note_off_c, 0, 55, 64
2, 1680, Note_off_c, 0, 71, 64
2, 1680, Note_on_c, 0, 72, 64
2, 1680, Note_on_c, 0, 57, 64
2, 1740, Note_off_c, 0, 57, 64
2, 1740, Note_off_c, 0, 72, 64
2, 1740, Note_on_c, 0, 69, 64
2, 1740, Note_on_c, 0, 54, 64
2, 1800, Note_off_c, 0, 54, 64
2, 1800, Note_off_c, 0, 69, 64
2, 1800, Note_on_c, 0, 71, 64
2, 1800, Note_on_c, 0, 55, 64
2, 1860, Note_off_c, 0, 71, 64
2, 1860, Note_on_c, 0, 67, 64
2, 1920, Note_off_c, 0, 67, 64
2, 1920, Note_off_c, 0, 55, 64
2, 1920, Note_on_c, 0, 66, 64
2, 1920, Note_on_c, 0, 57, 64
2, 1980, Note_off_c, 0, 66, 64
2, 1980, Note_on_c, 0, 64, 64
2, 2040, Note_off_c, 0, 64, 64
2, 2040, Note_off_c, 0, 57, 64
2, 2040, Note_on_c, 0, 59, 64
2, 2040, Note_on_c, 0, 63, 64
2, 2100, Note_off_c, 0, 63, 64
2, 2100, Note_on_c, 0, 69, 64
2, 2160, Note_off_c, 0, 69, 64
2, 2160, Note_off_c, 0, 59, 64
2, 2160, Note_on_c, 0, 67, 64
2, 2160, Note_on_c, 0, 52, 64
2, 2220, Note_off_c, 0, 67, 64
2, 2220, Note_on_c, 0, 71, 64
2, 2280, Note_off_c, 0, 71, 64
2, 2280, Note_off_c, 0, 52, 64
2, 2280, Note_on_c, 0, 72, 64
2, 2280, Note_on_c, 0, 50, 64
2, 2340, Note_off_c, 0, 72, 64
2, 2340, Note_on_c, 0, 74, 64
2, 2400, Note_off_c, 0, 74, 64
2, 2400, Note_off_c, 0, 50, 64
2, 2400, Note_on_c, 0, 48, 64
2, 2400, Note_on_c, 0, 76, 64
2, 2460, Note_off_c, 0, 76, 64
2, 2460, Note_on_c, 0, 72, 64
2, 2520, Note_off_c, 0, 72, 64
2, 2520, Note_off_c, 0, 48, 64
2, 2520, Note_on_c, 0, 74, 64
2, 2520, Note_on_c, 0, 47, 64
2, 2580, Note_off_c, 0, 74, 64
2, 2580, Note_on_c, 0, 71, 64
2, 2640, Note_off_c, 0, 71, 64
2, 2640, Note_off_c, 0, 47, 64
2, 2640, Note_on_c, 0, 69, 64
2, 2640, Note_on_c, 0, 48, 64
2, 2700, Note_off_c, 0, 69, 64
2, 2700, Note_on_c, 0, 67, 64
2, 2760, Note_off_c, 0, 67, 64
2, 2760, Note_off_c, 0, 48, 64
2, 2760, Note_on_c, 0, 50, 64
2, 2760, Note_on_c, 0, 66, 64
2, 2820, Note_off_c, 0, 66, 64
2, 2820, Note_on_c, 0, 72, 64
2, 2880, Note_off_c, 0, 72, 64
2, 2880, Note_off_c, 0, 50, 64
2, 2880, Note_on_c, 0, 71, 64
2, 2880, Note_on_c, 0, 43, 64
2, 2940, Note_off_c, 0, 71, 64
2, 2940, Note_on_c, 0, 74, 64
2, 3000, Note_off_c, 0, 74, 64
2, 3000, Note_off_c, 0, 43, 64
2, 3000, Note_on_c, 0, 76, 64
2, 3000, Note_on_c, 0, 42, 64
2, 3060, Note_off_c, 0, 76, 64
2, 3060, Note_on_c, 0, 78, 64
2, 3120, Note_off_c, 0, 78, 64
2, 3120, Note_off_c, 0, 42, 64
2, 3120, Note_on_c, 0, 40, 64
2, 3120, Note_on_c, 0, 79, 64
2, 3180, Note_off_c, 0, 79, 64
2, 3180, Note_on_c, 0, 76, 64
2, 3240, Note_off_c, 0, 76, 64
2, 3240, Note_off_c, 0, 40, 64
2, 3240, Note_on_c, 0, 78, 64
2, 3240, Note_on_c, 0, 38, 64
2, 3300, Note_off_c, 0, 78, 64
2, 3300, Note_on_c, 0, 74, 64
2, 3360, Note_off_c, 0, 74, 64
2, 3360, Note_off_c, 0, 38, 64
2, 3360, Note_on_c, 0, 73, 64
2, 3360, Note_on_c, 0, 40, 64
2, 3420, Note_off_c, 0, 73, 64
2, 3420, Note_on_c, 0, 71, 64
2, 3480, Note_off_c, 0, 71, 64
2, 3480, Note_off_c, 0, 40, 64
2, 3480, Note_on_c, 0, 42, 64
2, 3480, Note_on_c, 0, 70, 64
2, 3540, Note_off_c, 0, 70, 64
2, 3540, Note_on_c, 0, 76, 64
2, 3600, Note_off_c, 0, 76, 64
2, 3600, Note_off_c, 0, 42, 64
2, 3600, Note_on_c, 0, 74, 64
2, 3600, Note_on_c, 0, 47, 64
2, 3660, Note_off_c, 0, 47, 64
2, 3660, Note_off_c, 0, 74, 64
2, 3660, Note_on_c, 0, 78, 64
2, 3660, Note_on_c, 0, 50, 64
2, 3720, Note_off_c, 0, 50, 64
2, 3720, Note_off_c, 0, 78, 64
2, 3720, Note_on_c, 0, 76, 64
2, 3720, Note_on_c, 0, 52, 64
2, 3780, Note_off_c, 0, 52, 64
2, 3780, Note_off_c, 0, 76, 64
2, 3780, Note_on_c, 0, 74, 64
2, 3780, Note_on_c, 0, 54, 64
2, 3840, Note_off_c, 0, 54, 64
2, 3840, Note_off_c, 0, 74, 64
2, 3840, Note_on_c, 0, 73, 64
2, 3840, Note_on_c, 0, 55, 64
2, 3900, Note_off_c, 0, 55, 64
2, 3900, Note_off_c, 0, 73, 64
2, 3900, Note_on_c, 0, 52, 64
2, 3900, Note_on_c, 0, 71, 64
2, 3960, Note_off_c, 0, 71, 64
2, 3960, Note_off_c, 0, 52, 64
2, 3960, Note_on_c, 0, 70, 64
2, 3960, Note_on_c, 0, 54, 64
2, 3990, Note_off_c, 0, 70, 64
2, 3990, Note_on_c, 0, 68, 64
2, 4020, Note_off_c, 0, 68, 64
2, 4020, Note_off_c, 0, 54, 64
2, 4020, Note_on_c, 0, 66, 64
2, 4020, Note_on_c, 0, 50, 64
2, 4080, Note_off_c, 0, 50, 64
2, 4080, Note_off_c, 0, 66, 64
2, 4080, Note_on_c, 0, 76, 64
2, 4080, Note_on_c, 0, 49, 64
2, 4140, Note_off_c, 0, 49, 64
2, 4140, Note_on_c, 0, 47, 64
2, 4200, Note_off_c, 0, 47, 64
2, 4200, Note_off_c, 0, 76, 64
2, 4200, Note_on_c, 0, 46, 64
2, 4260, Note_off_c, 0, 46, 64
2, 4260, Note_on_c, 0, 52, 64
2, 4320, Note_off_c, 0, 52, 64
2, 4320, Note_on_c, 0, 50, 64
2, 4380, Note_off_c, 0, 50, 64
2, 4380, Note_on_c, 0, 74, 64
2, 4380, Note_on_c, 0, 47, 64
2, 4440, Note_off_c, 0, 47, 64
2, 4440, Note_off_c, 0, 74, 64
2, 4440, Note_on_c, 0, 76, 64
2, 4440, Note_on_c, 0, 49, 64
2, 4500, Note_off_c, 0, 49, 64
2, 4500, Note_off_c, 0, 76, 64
2, 4500, Note_on_c, 0, 78, 64
2, 4500, Note_on_c, 0, 50, 64
2, 4560, Note_off_c, 0, 50, 64
2, 4560, Note_off_c, 0, 78, 64
2, 4560, Note_on_c, 0, 79, 64
2, 4560, Note_on_c, 0, 52, 64
2, 4620, Note_off_c, 0, 52, 64
2, 4620, Note_off_c, 0, 79, 64
2, 4620, Note_on_c, 0, 76, 64
2, 4620, Note_on_c, 0, 49, 64
2, 4680, Note_off_c, 0, 49, 64
2, 4680, Note_off_c, 0, 76, 64
2, 4680, Note_on_c, 0, 78, 64
2, 4680, Note_on_c, 0, 50, 64
2, 4740, Note_off_c, 0, 78, 64
2, 4740, Note_on_c, 0, 74, 64
2, 4800, Note_off_c, 0, 74, 64
2, 4800, Note_off_c, 0, 50, 64
2, 4800, Note_on_c, 0, 73, 64
2, 4800, Note_on_c, 0, 52, 64
2, 4860, Note_off_c, 0, 73, 64
2, 4860, Note_on_c, 0, 71, 64
2, 4920, Note_off_c, 0, 71, 64
2, 4920, Note_off_c, 0, 52, 64
2, 4920, Note_on_c, 0, 54, 64
2, 4920, Note_on_c, 0, 70, 64
2, 4980, Note_off_c, 0, 70, 64
2, 4980, Note_on_c, 0, 76, 64
2, 5040, Note_off_c, 0, 76, 64
2, 5040, Note_off_c, 0, 54, 64
2, 5040, Note_on_c, 0, 74, 64
2, 5040, Note_on_c, 0, 47, 64
2, 5100, Note_off_c, 0, 74, 64
2, 5100, Note_on_c, 0, 71, 64
2, 5160, Note_off_c, 0, 71, 64
2, 5160, Note_off_c, 0, 47, 64
2, 5160, Note_on_c, 0, 73, 64
2, 5160, Note_on_c, 0, 59, 64
2, 5220, Note_off_c, 0, 73, 64
2, 5220, Note_on_c, 0, 74, 64
2, 5280, Note_off_c, 0, 74, 64
2, 5280, Note_off_c, 0, 59, 64
2, 5280, Note_on_c, 0, 58, 64
2, 5280, Note_on_c, 0, 76, 64
2, 5340, Note_off_c, 0, 76, 64
2, 5340, Note_on_c, 0, 73, 64
2, 5400, Note_off_c, 0, 73, 64
2, 5400, Note_off_c, 0, 58, 64
2, 5400, Note_on_c, 0, 74, 64
2, 5400, Note_on_c, 0, 59, 64
2, 5460, Note_off_c, 0, 74, 64
2, 5460, Note_on_c, 0, 71, 64
2, 5520, Note_off_c, 0, 71, 64
2, 5520, Note_off_c, 0, 59, 64
2, 5520, Note_on_c, 0, 69, 64
2, 5520, Note_on_c, 0, 54, 64
2, 5580, Note_off_c, 0, 69, 64
2, 5580, Note_on_c, 0, 67, 64
2, 5640, Note_off_c, 0, 67, 64
2, 5640, Note_off_c, 0, 54, 64
2, 5640, Note_on_c, 0, 50, 64
2, 5640, Note_on_c, 0, 66, 64
2, 5700, Note_off_c, 0, 66, 64
2, 5700, Note_on_c, 0, 72, 64
2, 5760, Note_off_c, 0, 72, 64
2, 5760, Note_off_c, 0, 50, 64
2, 5760, Note_on_c, 0, 71, 64
2, 5760, Note_on_c, 0, 55, 64
2, 5820, Note_off_c, 0, 55, 64
2, 5820, Note_off_c, 0, 71, 64
2, 5820, Note_on_c, 0, 67, 64
2, 5820, Note_on_c, 0, 59, 64
2, 5880, Note_off_c, 0, 59, 64
2, 5880, Note_off_c, 0, 67, 64
2, 5880, Note_on_c, 0, 76, 64
2, 5880, Note_on_c, 0, 60, 64
2, 5940, Note_off_c, 0, 60, 64
2, 5940, Note_off_c, 0, 76, 64
2, 5940, Note_on_c, 0, 71, 64
2, 5940, Note_on_c, 0, 62, 64
2, 6000, Note_off_c, 0, 62, 64
2, 6000, Note_off_c, 0, 71, 64
2, 6000, Note_on_c, 0, 72, 64
2, 6000, Note_on_c, 0, 64, 64
2, 6060, Note_off_c, 0, 64, 64
2, 6060, Note_off_c, 0, 72, 64
2, 6060, Note_on_c, 0, 60, 64
2, 6060, Note_on_c, 0, 81, 64
2, 6120, Note_off_c, 0, 81, 64
2, 6120, Note_off_c, 0, 60, 64
2, 6120, Note_on_c, 0, 71, 64
2, 6120, Note_on_c, 0, 62, 64
2, 6180, Note_off_c, 0, 62, 64
2, 6180, Note_off_c, 0, 71, 64
2, 6180, Note_on_c, 0, 74, 64
2, 6180, Note_on_c, 0, 59, 64
2, 6240, Note_off_c, 0, 59, 64
2, 6240, Note_off_c, 0, 74, 64
2, 6240, Note_on_c, 0, 79, 64
2, 6240, Note_on_c, 0, 57, 64
2, 6300, Note_off_c, 0, 57, 64
2, 6300, Note_on_c, 0, 55, 64
2, 6360, Note_off_c, 0, 55, 64
2, 6360, Note_off_c, 0, 79, 64
2, 6360, Note_on_c, 0, 71, 64
2, 6360, Note_on_c, 0, 54, 64
2, 6375, Note_off_c, 0, 71, 55
2, 6375, Note_on_c, 0, 69, 64
2, 6390, Note_off_c, 0, 69, 55
2, 6390, Note_on_c, 0, 71, 64
2, 6405, Note_off_c, 0, 71, 68
2, 6405, Note_on_c, 0, 69, 64
2, 6420, Note_off_c, 0, 69, 58
2, 6420, Note_off_c, 0, 54, 64
2, 6420, Note_on_c, 0, 71, 64
2, 6420, Note_on_c, 0, 60, 64
2, 6435, Note_off_c, 0, 71, 72
2, 6435, Note_on_c, 0, 69, 64
2, 6480, Note_off_c, 0, 69, 79
2, 6480, Note_off_c, 0, 60, 64
2, 6480, Note_on_c, 0, 67, 64
2, 6480, Note_on_c, 0, 59, 64
2, 6540, Note_off_c, 0, 59, 64
2, 6540, Note_off_c, 0, 67, 64
2, 6540, Note_on_c, 0, 64, 64
2, 6540, Note_on_c, 0, 55, 64
2, 6600, Note_off_c, 0, 55, 64
2, 6600, Note_off_c, 0, 64, 64
2, 6600, Note_on_c, 0, 72, 64
2, 6600, Note_on_c, 0, 57, 64
2, 6660, Note_off_c, 0, 57, 64
2, 6660, Note_off_c, 0, 72, 64
2, 6660, Note_on_c, 0, 67, 64
2, 6660, Note_on_c, 0, 59, 64
2, 6720, Note_off_c, 0, 59, 64
2, 6720, Note_off_c, 0, 67, 64
2, 6720, Note_on_c, 0, 69, 64
2, 6720, Note_on_c, 0, 60, 64
2, 6780, Note_off_c, 0, 60, 64
2, 6780, Note_off_c, 0, 69, 64
2, 6780, Note_on_c, 0, 57, 64
2, 6780, Note_on_c, 0, 78, 64
2, 6840, Note_off_c, 0, 78, 64
2, 6840, Note_off_c, 0, 57, 64
2, 6840, Note_on_c, 0, 67, 64
2, 6840, Note_on_c, 0, 59, 64
2, 6900, Note_off_c, 0, 59, 64
2, 6900, Note_off_c, 0, 67, 64
2, 6900, Note_on_c, 0, 71, 64
2, 6900, Note_on_c, 0, 55, 64
2, 6960, Note_off_c, 0, 55, 64
2, 6960, Note_off_c, 0, 71, 64
2, 6960, Note_on_c, 0, 76, 64
2, 6960, Note_on_c, 0, 54, 64
2, 7020, Note_off_c, 0, 54, 64
2, 7020, Note_on_c, 0, 52, 64
2, 7080, Note_off_c, 0, 52, 64
2, 7080, Note_off_c, 0, 76, 64
2, 7080, Note_on_c, 0, 67, 70
2, 7080, Note_on_c, 0, 51, 64
2, 7095, Note_off_c, 0, 67, 46
2, 7095, Note_on_c, 0, 66, 64
2, 7110, Note_off_c, 0, 66, 80
2, 7110, Note_on_c, 0, 67, 64
2, 7125, Note_off_c, 0, 67, 51
2, 7125, Note_on_c, 0, 66, 64
2, 7140, Note_off_c, 0, 66, 70
2, 7140, Note_off_c, 0, 51, 64
2, 7140, Note_on_c, 0, 67, 64
2, 7140, Note_on_c, 0, 57, 64
2, 7155, Note_off_c, 0, 67, 52
2, 7155, Note_on_c, 0, 66, 64
2, 7200, Note_off_c, 0, 66, 64
2, 7200, Note_off_c, 0, 57, 64
2, 7200, Note_on_c, 0, 64, 64
2, 7200, Note_on_c, 0, 55, 64
2, 7260, Note_off_c, 0, 55, 64
2, 7260, Note_off_c, 0, 64, 64
2, 7260, Note_on_c, 0, 67, 64
2, 7260, Note_on_c, 0, 52, 64
2, 7320, Note_off_c, 0, 52, 64
2, 7320, Note_off_c, 0, 67, 64
2, 7320, Note_on_c, 0, 69, 64
2, 7320, Note_on_c, 0, 54, 64
2, 7380, Note_off_c, 0, 54, 64
2, 7380, Note_off_c, 0, 69, 64
2, 7380, Note_on_c, 0, 71, 64
2, 7380, Note_on_c, 0, 55, 64
2, 7440, Note_off_c, 0, 55, 64
2, 7440, Note_off_c, 0, 71, 64
2, 7440, Note_on_c, 0, 72, 64
2, 7440, Note_on_c, 0, 57, 64
2, 7500, Note_off_c, 0, 57, 64
2, 7500, Note_off_c, 0, 72, 64
2, 7500, Note_on_c, 0, 54, 64
2, 7500, Note_on_c, 0, 69, 64
2, 7560, Note_off_c, 0, 69, 64
2, 7560, Note_off_c, 0, 54, 64
2, 7560, Note_on_c, 0, 71, 64
2, 7560, Note_on_c, 0, 55, 64
2, 7590, Note_off_c, 0, 71, 64
2, 7590, Note_on_c, 0, 69, 64
2, 7620, Note_off_c, 0, 69, 64
2, 7620, Note_off_c, 0, 55, 64
2, 7620, Note_on_c, 0, 67, 64
2, 7620, Note_on_c, 0, 52, 64
2, 7680, Note_off_c, 0, 52, 64
2, 7680, Note_off_c, 0, 67, 64
2, 7680, Note_on_c, 0, 77, 64
2, 7680, Note_on_c, 0, 50, 64
2, 7740, Note_off_c, 0, 50, 64
2, 7740, Note_on_c, 0, 48, 64
2, 7800, Note_off_c, 0, 48, 64
2, 7800, Note_off_c, 0, 77, 64
2, 7800, Note_on_c, 0, 47, 64
2, 7860, Note_off_c, 0, 47, 64
2, 7860, Note_on_c, 0, 53, 64
2, 7920, Note_off_c, 0, 53, 64
2, 7920, Note_on_c, 0, 52, 64
2, 7980, Note_off_c, 0, 52, 64
2, 7980, Note_on_c, 0, 64, 64
2, 7980, Note_on_c, 0, 43, 64
2, 8040, Note_off_c, 0, 43, 64
2, 8040, Note_off_c, 0, 64, 64
2, 8040, Note_on_c, 0, 66, 64
2, 8040, Note_on_c, 0, 45, 64
2, 8100, Note_off_c, 0, 45, 64
2, 8100, Note_off_c, 0, 66, 64
2, 8100, Note_on_c, 0, 67, 64
2, 8100, Note_on_c, 0, 47, 64
2, 8160, Note_off_c, 0, 47, 64
2, 8160, Note_off_c, 0, 67, 64
2, 8160, Note_on_c, 0, 48, 64
2, 8160, Note_on_c, 0, 69, 64
2, 8220, Note_off_c, 0, 69, 64
2, 8220, Note_on_c, 0, 66, 64
2, 8280, Note_off_c, 0, 66, 64
2, 8280, Note_on_c, 0, 67, 64
2, 8340, Note_off_c, 0, 67, 64
2, 8340, Note_off_c, 0, 48, 64
2, 8340, Note_on_c, 0, 62, 64
2, 8340, Note_on_c, 0, 47, 64
2, 8400, Note_off_c, 0, 47, 64
2, 8400, Note_off_c, 0, 62, 64
2, 8400, Note_on_c, 0, 64, 64
2, 8400, Note_on_c, 0, 49, 64
2, 8460, Note_off_c, 0, 49, 64
2, 8460, Note_off_c, 0, 64, 64
2, 8460, Note_on_c, 0, 66, 64
2, 8460, Note_on_c, 0, 50, 64
2, 8520, Note_off_c, 0, 50, 64
2, 8520, Note_off_c, 0, 66, 64
2, 8520, Note_on_c, 0, 67, 64
2, 8520, Note_on_c, 0, 52, 64
2, 8580, Note_off_c, 0, 52, 64
2, 8580, Note_on_c, 0, 49, 64
2, 8640, Note_off_c, 0, 49, 64
2, 8640, Note_on_c, 0, 50, 64
2, 8700, Note_off_c, 0, 50, 64
2, 8700, Note_off_c, 0, 67, 64
2, 8700, Note_on_c, 0, 66, 64
2, 8700, Note_on_c, 0, 45, 64
2, 8760, Note_off_c, 0, 45, 64
2, 8760, Note_off_c, 0, 66, 64
2, 8760, Note_on_c, 0, 68, 64
2, 8760, Note_on_c, 0, 47, 64
2, 8820, Note_off_c, 0, 47, 64
2, 8820, Note_off_c, 0, 68, 64
2, 8820, Note_on_c, 0, 69, 64
2, 8820, Note_on_c, 0, 48, 64
2, 8880, Note_off_c, 0, 48, 64
2, 8880, Note_off_c, 0, 69, 64
2, 8880, Note_on_c, 0, 50, 64
2, 8880, Note_on_c, 0, 71, 64
2, 8940, Note_off_c, 0, 71, 64
2, 8940, Note_on_c, 0, 68, 64
2, 9000, Note_off_c, 0, 68, 64
2, 9000, Note_on_c, 0, 69, 64
2, 9060, Note_off_c, 0, 69, 64
2, 9060, Note_off_c, 0, 50, 64
2, 9060, Note_on_c, 0, 64, 64
2, 9060, Note_on_c, 0, 49, 64
2, 9120, Note_off_c, 0, 49, 64
2, 9120, Note_off_c, 0, 64, 64
2, 9120, Note_on_c, 0, 66, 64
2, 9120, Note_on_c, 0, 51, 64
2, 9180, Note_off_c, 0, 51, 64
2, 9180, Note_off_c, 0, 66, 64
2, 9180, Note_on_c, 0, 67, 64
2, 9180, Note_on_c, 0, 52, 64
2, 9240, Note_off_c, 0, 52, 64
2, 9240, Note_off_c, 0, 67, 64
2, 9240, Note_on_c, 0, 69, 64
2, 9240, Note_on_c, 0, 54, 64
2, 9300, Note_off_c, 0, 54, 64
2, 9300, Note_on_c, 0, 51, 64
2, 9360, Note_off_c, 0, 51, 64
2, 9360, Note_on_c, 0, 52, 64
2, 9420, Note_off_c, 0, 52, 64
2, 9420, Note_off_c, 0, 69, 64
2, 9420, Note_on_c, 0, 68, 64
2, 9420, Note_on_c, 0, 47, 64
2, 9480, Note_off_c, 0, 47, 64
2, 9480, Note_off_c, 0, 68, 64
2, 9480, Note_on_c, 0, 70, 64
2, 9480, Note_on_c, 0, 49, 64
2, 9540, Note_off_c, 0, 49, 64
2, 9540, Note_off_c, 0, 70, 64
2, 9540, Note_on_c, 0, 71, 64
2, 9540, Note_on_c, 0, 50, 64
2, 9600, Note_off_c, 0, 50, 64
2, 9600, Note_off_c, 0, 71, 64
2, 9600, Note_on_c, 0, 52, 64
2, 9600, Note_on_c, 0, 73, 64
2, 9660, Note_off_c, 0, 73, 64
2, 9660, Note_on_c, 0, 70, 64
2, 9720, Note_off_c, 0, 70, 64
2, 9720, Note_on_c, 0, 71, 64
2, 9780, Note_off_c, 0, 71, 64
2, 9780, Note_off_c, 0, 52, 64
2, 9780, Note_on_c, 0, 66, 64
2, 9780, Note_on_c, 0, 50, 64
2, 9840, Note_off_c, 0, 50, 64
2, 9840, Note_off_c, 0, 66, 64
2, 9840, Note_on_c, 0, 68, 64
2, 9840, Note_on_c, 0, 52, 64
2, 9900, Note_off_c, 0, 52, 64
2, 9900, Note_off_c, 0, 68, 64
2, 9900, Note_on_c, 0, 70, 64
2, 9900, Note_on_c, 0, 54, 64
2, 9960, Note_off_c, 0, 54, 64
2, 9960, Note_off_c, 0, 70, 64
2, 9960, Note_on_c, 0, 71, 64
2, 9960, Note_on_c, 0, 55, 64
2, 10020, Note_off_c, 0, 55, 64
2, 10020, Note_on_c, 0, 52, 64
2, 10080, Note_off_c, 0, 52, 64
2, 10080, Note_on_c, 0, 55, 76
2, 10100, Note_off_c, 0, 55, 46
2, 10100, Note_on_c, 0, 54, 48
2, 10120, Note_on_c, 0, 55, 48
2, 10122, Note_off_c, 0, 54, 55
2, 10140, Note_off_c, 0, 71, 64
2, 10140, Note_on_c, 0, 54, 48
2, 10140, Note_on_c, 0, 70, 64
2, 10142, Note_off_c, 0, 55, 69
2, 10160, Note_on_c, 0, 55, 48
2, 10162, Note_off_c, 0, 54, 63
2, 10180, Note_on_c, 0, 54, 49
2, 10182, Note_off_c, 0, 55, 63
2, 10200, Note_off_c, 0, 70, 64
2, 10200, Note_on_c, 0, 55, 49
2, 10200, Note_on_c, 0, 71, 64
2, 10202, Note_off_c, 0, 54, 68
2, 10220, Note_on_c, 0, 54, 49
2, 10222, Note_off_c, 0, 55, 61
2, 10240, Note_on_c, 0, 55, 49
2, 10242, Note_off_c, 0, 54, 66
2, 10260, Note_off_c, 0, 71, 64
2, 10260, Note_on_c, 0, 54, 49
2, 10260, Note_on_c, 0, 73, 64
2, 10262, Note_off_c, 0, 55, 61
2, 10280, Note_on_c, 0, 55, 50
2, 10282, Note_off_c, 0, 54, 65
2, 10300, Note_on_c, 0, 54, 50
2, 10302, Note_off_c, 0, 55, 55
2, 10320, Note_off_c, 0, 73, 64
2, 10320, Note_on_c, 0, 55, 50
2, 10320, Note_on_c, 0, 74, 64
2, 10322, Note_off_c, 0, 54, 63
2, 10340, Note_on_c, 0, 54, 50
2, 10342, Note_off_c, 0, 55, 51
2, 10360, Note_on_c, 0, 55, 51
2, 10362, Note_off_c, 0, 54, 65
2, 10380, Note_off_c, 0, 74, 64
2, 10380, Note_on_c, 0, 54, 51
2, 10380, Note_on_c, 0, 71, 64
2, 10382, Note_off_c, 0, 55, 51
2, 10400, Note_on_c, 0, 55, 51
2, 10402, Note_off_c, 0, 54, 58
2, 10420, Note_on_c, 0, 54, 51
2, 10422, Note_off_c, 0, 55, 52
2, 10440, Note_off_c, 0, 71, 64
2, 10440, Note_on_c, 0, 55, 52
2, 10440, Note_on_c, 0, 73, 64
2, 10442, Note_off_c, 0, 54, 66
2, 10460, Note_on_c, 0, 54, 52
2, 10462, Note_off_c, 0, 55, 69
2, 10480, Note_on_c, 0, 55, 52
2, 10482, Note_off_c, 0, 54, 68
2, 10500, Note_off_c, 0, 73, 64
2, 10500, Note_on_c, 0, 54, 52
2, 10500, Note_on_c, 0, 71, 64
2, 10502, Note_off_c, 0, 55, 58
2, 10520, Note_on_c, 0, 55, 52
2, 10522, Note_off_c, 0, 54, 63
2, 10540, Note_on_c, 0, 54, 53
2, 10542, Note_off_c, 0, 55, 57
2, 10560, Note_off_c, 0, 71, 64
2, 10560, Note_on_c, 0, 55, 53
2, 10560, Note_on_c, 0, 70, 64
2, 10562, Note_off_c, 0, 54, 57
2, 10580, Note_on_c, 0, 54, 53
2, 10582, Note_off_c, 0, 55, 57
2, 10600, Note_on_c, 0, 55, 53
2, 10602, Note_off_c, 0, 54, 62
2, 10620, Note_off_c, 0, 70, 64
2, 10620, Note_on_c, 0, 54, 54
2, 10620, Note_on_c, 0, 68, 64
2, 10622, Note_off_c, 0, 55, 52
2, 10640, Note_on_c, 0, 55, 54
2, 10642, Note_off_c, 0, 54, 63
2, 10660, Note_on_c, 0, 54, 54
2, 10662, Note_off_c, 0, 55, 58
2, 10680, Note_off_c, 0, 68, 64
2, 10680, Note_on_c, 0, 55, 54
2, 10680, Note_on_c, 0, 66, 64
2, 10682, Note_off_c, 0, 54, 66
2, 10700, Note_on_c, 0, 54, 55
2, 10702, Note_off_c, 0, 55, 58
2, 10720, Note_on_c, 0, 55, 55
2, 10722, Note_off_c, 0, 54, 61
2, 10740, Note_off_c, 0, 66, 64
2, 10740, Note_on_c, 0, 54, 55
2, 10740, Note_on_c, 0, 64, 64
2, 10742, Note_off_c, 0, 55, 58
2, 10760, Note_on_c, 0, 55, 55
2, 10762, Note_off_c, 0, 54, 62
2, 10780, Note_on_c, 0, 54, 55
2, 10782, Note_off_c, 0, 55, 52
2, 10800, Note_off_c, 0, 64, 64
2, 10800, Note_on_c, 0, 55, 56
2, 10800, Note_on_c, 0, 62, 64
2, 10802, Note_off_c, 0, 54, 63
2, 10820, Note_on_c, 0, 54, 56
2, 10822, Note_off_c, 0, 55, 66
2, 10840, Note_on_c, 0, 55, 56
2, 10842, Note_off_c, 0, 54, 68
2, 10860, Note_off_c, 0, 62, 64
2, 10860, Note_on_c, 0, 54, 56
2, 10860, Note_on_c, 0, 66, 64
2, 10862, Note_off_c, 0, 55, 55
2, 10880, Note_on_c, 0, 55, 57
2, 10882, Note_off_c, 0, 54, 50
2, 10900, Note_on_c, 0, 54, 57
2, 10902, Note_off_c, 0, 55, 48
2, 10920, Note_off_c, 0, 66, 64
2, 10920, Note_on_c, 0, 55, 57
2, 10920, Note_on_c, 0, 68, 64
2, 10922, Note_off_c, 0, 54, 66
2, 10940, Note_on_c, 0, 54, 57
2, 10942, Note_off_c, 0, 55, 49
2, 10960, Note_on_c, 0, 55, 58
2, 10962, Note_off_c, 0, 54, 70
2, 10980, Note_off_c, 0, 68, 64
2, 10980, Note_on_c, 0, 54, 58
2, 10980, Note_on_c, 0, 70, 64
2, 10982, Note_off_c, 0, 55, 63
2, 11000, Note_on_c, 0, 55, 58
2, 11002, Note_off_c, 0, 54, 63
2, 11020, Note_on_c, 0, 54, 58
2, 11022, Note_off_c, 0, 55, 55
2, 11040, Note_off_c, 0, 70, 64
2, 11040, Note_on_c, 0, 55, 58
2, 11040, Note_on_c, 0, 71, 64
2, 11042, Note_off_c, 0, 54, 62
2, 11060, Note_on_c, 0, 54, 59
2, 11062, Note_off_c, 0, 55, 61
2, 11080, Note_on_c, 0, 55, 59
2, 11082, Note_off_c, 0, 54, 66
2, 11100, Note_off_c, 0, 71, 64
2, 11100, Note_on_c, 0, 54, 59
2, 11100, Note_on_c, 0, 68, 64
2, 11102, Note_off_c, 0, 55, 53
2, 11120, Note_on_c, 0, 55, 59
2, 11122, Note_off_c, 0, 54, 65
2, 11140, Note_on_c, 0, 54, 60
2, 11142, Note_off_c, 0, 55, 62
2, 11160, Note_off_c, 0, 68, 64
2, 11160, Note_on_c, 0, 55, 60
2, 11160, Note_on_c, 0, 70, 64
2, 11162, Note_off_c, 0, 54, 68
2, 11180, Note_on_c, 0, 54, 60
2, 11182, Note_off_c, 0, 55, 63
2, 11200, Note_on_c, 0, 55, 60
2, 11202, Note_off_c, 0, 54, 66
2, 11220, Note_off_c, 0, 70, 64
2, 11220, Note_on_c, 0, 54, 61
2, 11220, Note_on_c, 0, 68, 64
2, 11222, Note_off_c, 0, 55, 55
2, 11240, Note_on_c, 0, 55, 61
2, 11242, Note_off_c, 0, 54, 69
2, 11260, Note_on_c, 0, 54, 61
2, 11262, Note_off_c, 0, 55, 48
2, 11280, Note_off_c, 0, 68, 64
2, 11280, Note_on_c, 0, 55, 61
2, 11280, Note_on_c, 0, 66, 64
2, 11282, Note_off_c, 0, 54, 65
2, 11300, Note_on_c, 0, 54, 62
2, 11302, Note_off_c, 0, 55, 61
2, 11320, Note_on_c, 0, 55, 62
2, 11322, Note_off_c, 0, 54, 62
2, 11340, Note_off_c, 0, 66, 64
2, 11340, Note_on_c, 0, 54, 62
2, 11340, Note_on_c, 0, 64, 64
2, 11342, Note_off_c, 0, 55, 58
2, 11360, Note_on_c, 0, 55, 62
2, 11362, Note_off_c, 0, 54, 65
2, 11380, Note_on_c, 0, 54, 62
2, 11382, Note_off_c, 0, 55, 68
2, 11400, Note_off_c, 0, 64, 64
2, 11400, Note_on_c, 0, 55, 63
2, 11400, Note_on_c, 0, 62, 64
2, 11402, Note_off_c, 0, 54, 58
2, 11420, Note_on_c, 0, 54, 63
2, 11422, Note_off_c, 0, 55, 50
2, 11440, Note_on_c, 0, 55, 63
2, 11442, Note_off_c, 0, 54, 69
2, 11460, Note_off_c, 0, 62, 64
2, 11460, Note_on_c, 0, 61, 64
2, 11460, Note_on_c, 0, 54, 63
2, 11462, Note_off_c, 0, 55, 58
2, 11510, Note_off_c, 0, 61, 64
2, 11523, Note_on_c, 0, 61, 76
2, 11529, Note_off_c, 0, 54, 57
2, 11543, Note_off_c, 0, 61, 47
2, 11543, Note_on_c, 0, 59, 48
2, 11563, Note_on_c, 0, 61, 48
2, 11565, Note_off_c, 0, 59, 53
2, 11583, Note_on_c, 0, 59, 48
2, 11583, Note_on_c, 0, 51, 64
2, 11585, Note_off_c, 0, 61, 45
2, 11603, Note_on_c, 0, 61, 48
2, 11605, Note_off_c, 0, 59, 49
2, 11623, Note_on_c, 0, 59, 48
2, 11625, Note_off_c, 0, 61, 68
2, 11643, Note_off_c, 0, 51, 64
2, 11643, Note_on_c, 0, 61, 49
2, 11643, Note_on_c, 0, 52, 64
2, 11645, Note_off_c, 0, 59, 53
2, 11663, Note_on_c, 0, 59, 49
2, 11665, Note_off_c, 0, 61, 58
2, 11683, Note_on_c, 0, 61, 49
2, 11685, Note_off_c, 0, 59, 43
2, 11703, Note_off_c, 0, 52, 64
2, 11703, Note_on_c, 0, 59, 49
2, 11703, Note_on_c, 0, 54, 64
2, 11705, Note_off_c, 0, 61, 62
2, 11723, Note_on_c, 0, 61, 50
2, 11725, Note_off_c, 0, 59, 52
2, 11743, Note_on_c, 0, 59, 50
2, 11745, Note_off_c, 0, 61, 57
2, 11763, Note_off_c, 0, 54, 64
2, 11763, Note_on_c, 0, 61, 50
2, 11763, Note_on_c, 0, 55, 64
2, 11765, Note_off_c, 0, 59, 46
2, 11783, Note_on_c, 0, 59, 50
2, 11785, Note_off_c, 0, 61, 62
2, 11803, Note_on_c, 0, 61, 50
2, 11805, Note_off_c, 0, 59, 41
2, 11823, Note_off_c, 0, 55, 64
2, 11823, Note_on_c, 0, 59, 51
2, 11823, Note_on_c, 0, 52, 64
2, 11825, Note_off_c, 0, 61, 63
2, 11843, Note_on_c, 0, 61, 51
2, 11845, Note_off_c, 0, 59, 49
2, 11863, Note_on_c, 0, 59, 51
2, 11865, Note_off_c, 0, 61, 62
2, 11883, Note_off_c, 0, 52, 64
2, 11883, Note_on_c, 0, 61, 51
2, 11883, Note_on_c, 0, 54, 64
2, 11885, Note_off_c, 0, 59, 25
2, 11903, Note_on_c, 0, 59, 52
2, 11905, Note_off_c, 0, 61, 54
2, 11923, Note_on_c, 0, 61, 52
2, 11925, Note_off_c, 0, 59, 40
2, 11943, Note_off_c, 0, 54, 64
2, 11943, Note_on_c, 0, 59, 52
2, 11943, Note_on_c, 0, 52, 64
2, 11945, Note_off_c, 0, 61, 65
2, 11963, Note_on_c, 0, 61, 52
2, 11965, Note_off_c, 0, 59, 52
2, 11983, Note_on_c, 0, 59, 52
2, 11985, Note_off_c, 0, 61, 73
2, 12003, Note_off_c, 0, 52, 64
2, 12003, Note_on_c, 0, 61, 53
2, 12003, Note_on_c, 0, 51, 64
2, 12005, Note_off_c, 0, 59, 61
2, 12023, Note_on_c, 0, 59, 53
2, 12025, Note_off_c, 0, 61, 73
2, 12043, Note_on_c, 0, 61, 53
2, 12045, Note_off_c, 0, 59, 49
2, 12063, Note_off_c, 0, 51, 64
2, 12063, Note_on_c, 0, 59, 53
2, 12063, Note_on_c, 0, 49, 64
2, 12065, Note_off_c, 0, 61, 76
2, 12083, Note_on_c, 0, 61, 53
2, 12085, Note_off_c, 0, 59, 61
2, 12103, Note_on_c, 0, 59, 54
2, 12105, Note_off_c, 0, 61, 77
2, 12123, Note_off_c, 0, 49, 64
2, 12123, Note_on_c, 0, 61, 54
2, 12123, Note_on_c, 0, 47, 64
2, 12125, Note_off_c, 0, 59, 52
2, 12143, Note_on_c, 0, 59, 54
2, 12145, Note_off_c, 0, 61, 72
2, 12163, Note_on_c, 0, 61, 54
2, 12165, Note_off_c, 0, 59, 47
2, 12183, Note_off_c, 0, 47, 64
2, 12183, Note_on_c, 0, 59, 55
2, 12183, Note_on_c, 0, 45, 64
2, 12185, Note_off_c, 0, 61, 76
2, 12203, Note_on_c, 0, 61, 55
2, 12205, Note_off_c, 0, 59, 57
2, 12223, Note_on_c, 0, 59, 55
2, 12225, Note_off_c, 0, 61, 76
2, 12243, Note_off_c, 0, 45, 64
2, 12243, Note_on_c, 0, 61, 55
2, 12243, Note_on_c, 0, 43, 64
2, 12245, Note_off_c, 0, 59, 49
2, 12263, Note_on_c, 0, 59, 55
2, 12265, Note_off_c, 0, 61, 73
2, 12283, Note_on_c, 0, 61, 56
2, 12285, Note_off_c, 0, 59, 37
2, 12303, Note_off_c, 0, 43, 64
2, 12303, Note_on_c, 0, 59, 56
2, 12303, Note_on_c, 0, 47, 64
2, 12305, Note_off_c, 0, 61, 74
2, 12323, Note_on_c, 0, 61, 56
2, 12325, Note_off_c, 0, 59, 55
2, 12343, Note_on_c, 0, 59, 56
2, 12345, Note_off_c, 0, 61, 69
2, 12363, Note_off_c, 0, 47, 64
2, 12363, Note_on_c, 0, 61, 57
2, 12363, Note_on_c, 0, 49, 64
2, 12365, Note_off_c, 0, 59, 44
2, 12383, Note_on_c, 0, 59, 57
2, 12385, Note_off_c, 0, 61, 70
2, 12403, Note_on_c, 0, 61, 57
2, 12405, Note_off_c, 0, 59, 42
2, 12423, Note_off_c, 0, 49, 64
2, 12423, Note_on_c, 0, 59, 57
2, 12423, Note_on_c, 0, 51, 64
2, 12425, Note_off_c, 0, 61, 68
2, 12443, Note_on_c, 0, 61, 57
2, 12445, Note_off_c, 0, 59, 49
2, 12463, Note_on_c, 0, 59, 58
2, 12465, Note_off_c, 0, 61, 68
2, 12483, Note_off_c, 0, 51, 64
2, 12483, Note_on_c, 0, 61, 58
2, 12483, Note_on_c, 0, 52, 64
2, 12485, Note_off_c, 0, 59, 47
2, 12503, Note_on_c, 0, 59, 58
2, 12505, Note_off_c, 0, 61, 68
2, 12523, Note_on_c, 0, 61, 58
2, 12525, Note_off_c, 0, 59, 43
2, 12543, Note_off_c, 0, 52, 64
2, 12543, Note_on_c, 0, 59, 59
2, 12543, Note_on_c, 0, 49, 64
2, 12545, Note_off_c, 0, 61, 68
2, 12563, Note_on_c, 0, 61, 59
2, 12565, Note_off_c, 0, 59, 46
2, 12583, Note_on_c, 0, 59, 59
2, 12585, Note_off_c, 0, 61, 69
2, 12603, Note_off_c, 0, 49, 64
2, 12603, Note_on_c, 0, 61, 59
2, 12603, Note_on_c, 0, 51, 64
2, 12605, Note_off_c, 0, 59, 51
2, 12623, Note_on_c, 0, 59, 59
2, 12625, Note_off_c, 0, 61, 63
2, 12643, Note_on_c, 0, 61, 60
2, 12645, Note_off_c, 0, 59, 46
2, 12663, Note_off_c, 0, 51, 64
2, 12663, Note_on_c, 0, 59, 60
2, 12663, Note_on_c, 0, 49, 64
2, 12665, Note_off_c, 0, 61, 58
2, 12683, Note_on_c, 0, 61, 60
2, 12685, Note_off_c, 0, 59, 47
2, 12703, Note_on_c, 0, 59, 60
2, 12705, Note_off_c, 0, 61, 59
2, 12723, Note_off_c, 0, 49, 64
2, 12723, Note_on_c, 0, 61, 60
2, 12723, Note_on_c, 0, 47, 64
2, 12725, Note_off_c, 0, 59, 52
2, 12743, Note_on_c, 0, 59, 61
2, 12745, Note_off_c, 0, 61, 74
2, 12763, Note_on_c, 0, 61, 61
2, 12765, Note_off_c, 0, 59, 68
2, 12783, Note_off_c, 0, 47, 64
2, 12783, Note_on_c, 0, 59, 61
2, 12783, Note_on_c, 0, 45, 64
2, 12785, Note_off_c, 0, 61, 68
2, 12803, Note_on_c, 0, 61, 61
2, 12805, Note_off_c, 0, 59, 48
2, 12823, Note_on_c, 0, 59, 62
2, 12825, Note_off_c, 0, 61, 69
2, 12843, Note_off_c, 0, 45, 64
2, 12843, Note_on_c, 0, 61, 62
2, 12843, Note_on_c, 0, 43, 64
2, 12845, Note_off_c, 0, 59, 52
2, 12863, Note_on_c, 0, 59, 62
2, 12865, Note_off_c, 0, 61, 61
2, 12883, Note_on_c, 0, 61, 62
2, 12885, Note_off_c, 0, 59, 51
2, 12903, Note_off_c, 0, 43, 64
2, 12903, Note_on_c, 0, 59, 62
2, 12903, Note_on_c, 0, 42, 64
2, 12905, Note_off_c, 0, 61, 72
2, 12923, Note_on_c, 0, 61, 63
2, 12925, Note_off_c, 0, 59, 34
2, 12943, Note_on_c, 0, 59, 63
2, 12945, Note_off_c, 0, 61, 70
2, 12963, Note_off_c, 0, 42, 64
2, 12963, Note_on_c, 0, 61, 63
2, 12963, Note_on_c, 0, 40, 64
2, 12965, Note_off_c, 0, 59, 49
2, 12983, Note_on_c, 0, 59, 63
2, 12985, Note_off_c, 0, 61, 70
2, 13023, Note_off_c, 0, 40, 64
2, 13023, Note_on_c, 0, 50, 64
2, 13071, Note_off_c, 0, 59, 52
2, 13083, Note_off_c, 0, 50, 64
2, 13083, Note_on_c, 0, 64, 64
2, 13083, Note_on_c, 0, 49, 64
2, 13098, Note_off_c, 0, 64, 38
2, 13098, Note_on_c, 0, 62, 64
2, 13113, Note_off_c, 0, 62, 46
2, 13113, Note_on_c, 0, 64, 64
2, 13143, Note_off_c, 0, 49, 64
2, 13143, Note_on_c, 0, 47, 64
2, 13203, Note_off_c, 0, 47, 64
2, 13203, Note_on_c, 0, 46, 64
2, 13263, Note_off_c, 0, 46, 64
2, 13263, Note_on_c, 0, 49, 64
2, 13323, Note_off_c, 0, 49, 64
2, 13323, Note_on_c, 0, 42, 64
2, 13383, Note_off_c, 0, 64, 64
2, 13383, Note_on_c, 0, 66, 64
2, 13443, Note_off_c, 0, 66, 64
2, 13443, Note_off_c, 0, 42, 64
2, 13443, Note_on_c, 0, 55, 72
2, 13443, Note_on_c, 0, 64, 64
2, 13463, Note_off_c, 0, 55, 64
2, 13463, Note_on_c, 0, 54, 64
2, 13483, Note_off_c, 0, 54, 64
2, 13483, Note_on_c, 0, 55, 64
2, 13503, Note_off_c, 0, 64, 64
2, 13503, Note_on_c, 0, 62, 64
2, 13563, Note_off_c, 0, 62, 64
2, 13563, Note_on_c, 0, 61, 64
2, 13623, Note_off_c, 0, 61, 64
2, 13623, Note_on_c, 0, 64, 64
2, 13683, Note_off_c, 0, 64, 64
2, 13683, Note_on_c, 0, 58, 64
2, 13743, Note_off_c, 0, 55, 64
2, 13743, Note_on_c, 0, 54, 64
2, 13803, Note_off_c, 0, 54, 64
2, 13803, Note_off_c, 0, 58, 64
2, 13803, Note_on_c, 0, 73, 64
2, 13803, Note_on_c, 0, 52, 64
2, 13823, Note_off_c, 0, 73, 64
2, 13823, Note_on_c, 0, 71, 64
2, 13843, Note_off_c, 0, 71, 64
2, 13843, Note_on_c, 0, 73, 64
2, 13863, Note_off_c, 0, 52, 64
2, 13863, Note_on_c, 0, 50, 64
2, 13923, Note_off_c, 0, 50, 64
2, 13923, Note_on_c, 0, 49, 64
2, 13983, Note_off_c, 0, 49, 64
2, 13983, Note_on_c, 0, 52, 64
2, 14043, Note_off_c, 0, 52, 64
2, 14043, Note_on_c, 0, 46, 64
2, 14103, Note_off_c, 0, 73, 64
2, 14103, Note_on_c, 0, 74, 64
2, 14163, Note_off_c, 0, 74, 64
2, 14163, Note_off_c, 0, 46, 64
2, 14163, Note_on_c, 0, 64, 64
2, 14163, Note_on_c, 0, 73, 64
2, 14223, Note_off_c, 0, 73, 64
2, 14223, Note_on_c, 0, 71, 64
2, 14283, Note_off_c, 0, 71, 64
2, 14283, Note_on_c, 0, 70, 64
2, 14343, Note_off_c, 0, 70, 64
2, 14343, Note_on_c, 0, 73, 64
2, 14403, Note_off_c, 0, 73, 64
2, 14403, Note_on_c, 0, 66, 64
2, 14463, Note_off_c, 0, 64, 64
2, 14463, Note_on_c, 0, 62, 64
2, 14523, Note_off_c, 0, 62, 64
2, 14523, Note_off_c, 0, 66, 64
2, 14523, Note_on_c, 0, 79, 64
2, 14523, Note_on_c, 0, 61, 64
2, 14543, Note_off_c, 0, 79, 64
2, 14543, Note_on_c, 0, 78, 64
2, 14563, Note_off_c, 0, 78, 64
2, 14563, Note_on_c, 0, 79, 64
2, 14583, Note_off_c, 0, 61, 64
2, 14583, Note_on_c, 0, 59, 64
2, 14643, Note_off_c, 0, 59, 64
2, 14643, Note_on_c, 0, 58, 64
2, 14703, Note_off_c, 0, 58, 64
2, 14703, Note_on_c, 0, 61, 64
2, 14763, Note_off_c, 0, 61, 64
2, 14763, Note_on_c, 0, 54, 64
2, 14823, Note_off_c, 0, 79, 64
2, 14823, Note_on_c, 0, 78, 64
2, 14883, Note_off_c, 0, 78, 64
2, 14883, Note_off_c, 0, 54, 64
2, 14883, Note_on_c, 0, 76, 64
2, 14883, Note_on_c, 0, 56, 64
2, 14943, Note_off_c, 0, 76, 64
2, 14943, Note_on_c, 0, 74, 64
2, 15003, Note_off_c, 0, 74, 64
2, 15003, Note_off_c, 0, 56, 64
2, 15003, Note_on_c, 0, 58, 64
2, 15003, Note_on_c, 0, 73, 64
2, 15063, Note_off_c, 0, 73, 64
2, 15063, Note_on_c, 0, 76, 64
2, 15123, Note_off_c, 0, 76, 64
2, 15123, Note_off_c, 0, 58, 64
2, 15123, Note_on_c, 0, 76, 64
2, 15123, Note_on_c, 0, 59, 64
2, 15143, Note_off_c, 0, 76, 44
2, 15143, Note_on_c, 0, 74, 64
2, 15163, Note_off_c, 0, 74, 52
2, 15163, Note_on_c, 0, 73, 64
2, 15183, Note_off_c, 0, 73, 53
2, 15183, Note_off_c, 0, 59, 64
2, 15183, Note_on_c, 0, 74, 64
2, 15183, Note_on_c, 0, 58, 64
2, 15203, Note_off_c, 0, 74, 49
2, 15203, Note_on_c, 0, 76, 64
2, 15223, Note_off_c, 0, 76, 34
2, 15223, Note_on_c, 0, 74, 64
2, 15243, Note_off_c, 0, 74, 52
2, 15243, Note_off_c, 0, 58, 64
2, 15243, Note_on_c, 0, 76, 64
2, 15243, Note_on_c, 0, 59, 64
2, 15263, Note_off_c, 0, 76, 30
2, 15263, Note_on_c, 0, 74, 64
2, 15303, Note_off_c, 0, 59, 64
2, 15303, Note_on_c, 0, 61, 64
2, 15363, Note_off_c, 0, 61, 64
2, 15363, Note_on_c, 0, 62, 64
2, 15423, Note_off_c, 0, 62, 64
2, 15423, Note_on_c, 0, 59, 64
2, 15483, Note_off_c, 0, 59, 64
2, 15483, Note_on_c, 0, 53, 64
2, 15543, Note_off_c, 0, 53, 64
2, 15543, Note_off_c, 0, 74, 64
2, 15543, Note_on_c, 0, 73, 64
2, 15543, Note_on_c, 0, 54, 64
2, 15603, Note_off_c, 0, 54, 64
2, 15603, Note_off_c, 0, 73, 64
2, 15603, Note_on_c, 0, 71, 64
2, 15603, Note_on_c, 0, 56, 64
2, 15663, Note_off_c, 0, 56, 64
2, 15663, Note_off_c, 0, 71, 64
2, 15663, Note_on_c, 0, 69, 64
2, 15663, Note_on_c, 0, 57, 64
2, 15723, Note_off_c, 0, 57, 64
2, 15723, Note_off_c, 0, 69, 64
2, 15723, Note_on_c, 0, 68, 64
2, 15723, Note_on_c, 0, 59, 64
2, 15783, Note_off_c, 0, 59, 64
2, 15783, Note_off_c, 0, 68, 64
2, 15783, Note_on_c, 0, 71, 64
2, 15783, Note_on_c, 0, 56, 64
2, 15843, Note_off_c, 0, 56, 64
2, 15843, Note_off_c, 0, 71, 64
2, 15843, Note_on_c, 0, 65, 64
2, 15843, Note_on_c, 0, 49, 64
2, 15903, Note_off_c, 0, 65, 64
2, 15903, Note_on_c, 0, 74, 64
2, 15963, Note_off_c, 0, 74, 64
2, 15963, Note_off_c, 0, 49, 64
2, 15963, Note_on_c, 0, 73, 64
2, 15963, Note_on_c, 0, 53, 64
2, 16023, Note_off_c, 0, 73, 64
2, 16023, Note_on_c, 0, 71, 64
2, 16083, Note_off_c, 0, 71, 64
2, 16083, Note_off_c, 0, 53, 64
2, 16083, Note_on_c, 0, 54, 64
2, 16083, Note_on_c, 0, 70, 64
2, 16143, Note_off_c, 0, 70, 64
2, 16143, Note_on_c, 0, 73, 64
2, 16203, Note_off_c, 0, 73, 64
2, 16203, Note_off_c, 0, 54, 64
2, 16203, Note_on_c, 0, 76, 64
2, 16203, Note_on_c, 0, 55, 64
2, 16263, Note_off_c, 0, 76, 64
2, 16263, Note_on_c, 0, 79, 64
2, 16323, Note_off_c, 0, 79, 64
2, 16323, Note_off_c, 0, 55, 64
2, 16323, Note_on_c, 0, 78, 64
2, 16323, Note_on_c, 0, 46, 64
2, 16383, Note_off_c, 0, 78, 64
2, 16383, Note_on_c, 0, 76, 64
2, 16443, Note_off_c, 0, 76, 64
2, 16443, Note_off_c, 0, 46, 64
2, 16443, Note_on_c, 0, 47, 64
2, 16443, Note_on_c, 0, 74, 64
2, 16503, Note_off_c, 0, 74, 64
2, 16503, Note_on_c, 0, 78, 64
2, 16563, Note_off_c, 0, 78, 64
2, 16563, Note_off_c, 0, 47, 64
2, 16563, Note_on_c, 0, 71, 64
2, 16563, Note_on_c, 0, 43, 64
2, 16683, Note_off_c, 0, 43, 64
2, 16683, Note_off_c, 0, 71, 64
2, 16683, Note_on_c, 0, 73, 64
2, 16683, Note_on_c, 0, 40, 64
2, 16803, Note_off_c, 0, 40, 64
2, 16803, Note_off_c, 0, 73, 64
2, 16803, Note_on_c, 0, 71, 64
2, 16803, Note_on_c, 0, 42, 64
2, 16823, Note_off_c, 0, 71, 64
2, 16823, Note_on_c, 0, 70, 64
2, 16843, Note_off_c, 0, 70, 64
2, 16843, Note_on_c, 0, 68, 64
2, 16863, Note_off_c, 0, 68, 64
2, 16863, Note_on_c, 0, 70, 64
2, 16923, Note_off_c, 0, 70, 64
2, 16923, Note_off_c, 0, 42, 64
2, 16923, Note_on_c, 0, 71, 64
2, 16923, Note_on_c, 0, 47, 64
2, 16983, Note_off_c, 0, 47, 64
2, 16983, Note_on_c, 0, 49, 64
2, 17043, Note_off_c, 0, 49, 64
2, 17043, Note_on_c, 0, 51, 64
2, 17103, Note_off_c, 0, 51, 64
2, 17103, Note_on_c, 0, 52, 64
2, 17163, Note_off_c, 0, 52, 64
2, 17163, Note_on_c, 0, 54, 64
2, 17223, Note_off_c, 0, 54, 64
2, 17223, Note_on_c, 0, 51, 64
2, 17283, Note_off_c, 0, 51, 64
2, 17283, Note_off_c, 0, 71, 64
2, 17283, Note_on_c, 0, 52, 64
2, 17343, Note_on_c, 0, 67, 64
2, 17403, Note_off_c, 0, 67, 64
2, 17403, Note_off_c, 0, 52, 64
2, 17403, Note_on_c, 0, 69, 64
2, 17403, Note_on_c, 0, 40, 64
2, 17463, Note_off_c, 0, 69, 64
2, 17463, Note_on_c, 0, 71, 64
2, 17523, Note_off_c, 0, 71, 64
2, 17523, Note_off_c, 0, 40, 64
2, 17523, Note_on_c, 0, 72, 64
2, 17583, Note_off_c, 0, 72, 64
2, 17583, Note_on_c, 0, 69, 64
2, 17643, Note_off_c, 0, 69, 64
2, 17643, Note_on_c, 0, 71, 64
2, 17703, Note_off_c, 0, 71, 64
2, 17703, Note_on_c, 0, 67, 64
2, 17763, Note_off_c, 0, 67, 64
2, 17763, Note_on_c, 0, 66, 64
2, 17823, Note_off_c, 0, 66, 64
2, 17823, Note_on_c, 0, 64, 64
2, 17883, Note_off_c, 0, 64, 64
2, 17883, Note_on_c, 0, 63, 64
2, 17943, Note_off_c, 0, 63, 64
2, 17943, Note_on_c, 0, 69, 64
2, 18003, Note_off_c, 0, 69, 64
2, 18003, Note_on_c, 0, 67, 64
2, 18033, Note_off_c, 0, 67, 64
2, 18033, Note_on_c, 0, 66, 64
2, 18063, Note_off_c, 0, 66, 64
2, 18063, Note_on_c, 0, 64, 64
2, 18063, Note_on_c, 0, 55, 64
2, 18123, Note_off_c, 0, 55, 64
2, 18123, Note_off_c, 0, 64, 64
2, 18123, Note_on_c, 0, 76, 64
2, 18123, Note_on_c, 0, 57, 64
2, 18183, Note_off_c, 0, 57, 64
2, 18183, Note_on_c, 0, 59, 64
2, 18243, Note_off_c, 0, 59, 64
2, 18243, Note_off_c, 0, 76, 64
2, 18243, Note_on_c, 0, 60, 64
2, 18303, Note_off_c, 0, 60, 64
2, 18303, Note_on_c, 0, 57, 64
2, 18363, Note_off_c, 0, 57, 64
2, 18363, Note_on_c, 0, 75, 64
2, 18363, Note_on_c, 0, 59, 64
2, 18393, Note_off_c, 0, 75, 64
2, 18393, Note_on_c, 0, 73, 64
2, 18423, Note_off_c, 0, 73, 64
2, 18423, Note_off_c, 0, 59, 64
2, 18423, Note_on_c, 0, 71, 64
2, 18423, Note_on_c, 0, 55, 64
2, 18483, Note_off_c, 0, 55, 64
2, 18483, Note_off_c, 0, 71, 64
2, 18483, Note_on_c, 0, 81, 64
2, 18483, Note_on_c, 0, 54, 64
2, 18543, Note_off_c, 0, 54, 64
2, 18543, Note_on_c, 0, 52, 64
2, 18603, Note_off_c, 0, 52, 64
2, 18603, Note_off_c, 0, 81, 64
2, 18603, Note_on_c, 0, 51, 64
2, 18663, Note_off_c, 0, 51, 64
2, 18663, Note_on_c, 0, 57, 64
2, 18723, Note_off_c, 0, 57, 64
2, 18723, Note_on_c, 0, 55, 64
2, 18783, Note_off_c, 0, 55, 64
2, 18783, Note_on_c, 0, 67, 64
2, 18783, Note_on_c, 0, 52, 64
2, 18843, Note_off_c, 0, 52, 64
2, 18843, Note_off_c, 0, 67, 64
2, 18843, Note_on_c, 0, 69, 64
2, 18843, Note_on_c, 0, 54, 64
2, 18903, Note_off_c, 0, 54, 64
2, 18903, Note_off_c, 0, 69, 64
2, 18903, Note_on_c, 0, 71, 64
2, 18903, Note_on_c, 0, 55, 64
2, 18963, Note_off_c, 0, 55, 64
2, 18963, Note_off_c, 0, 71, 64
2, 18963, Note_on_c, 0, 72, 64
2, 18963, Note_on_c, 0, 57, 64
2, 19023, Note_off_c, 0, 57, 64
2, 19023, Note_off_c, 0, 72, 64
2, 19023, Note_on_c, 0, 69, 64
2, 19023, Note_on_c, 0, 54, 64
2, 19083, Note_off_c, 0, 54, 64
2, 19083, Note_off_c, 0, 69, 64
2, 19083, Note_on_c, 0, 71, 64
2, 19083, Note_on_c, 0, 55, 64
2, 19143, Note_off_c, 0, 71, 64
2, 19143, Note_on_c, 0, 67, 64
2, 19203, Note_off_c, 0, 67, 64
2, 19203, Note_off_c, 0, 55, 64
2, 19203, Note_on_c, 0, 66, 64
2, 19203, Note_on_c, 0, 57, 64
2, 19263, Note_off_c, 0, 66, 64
2, 19263, Note_on_c, 0, 64, 64
2, 19323, Note_off_c, 0, 64, 64
2, 19323, Note_off_c, 0, 57, 64
2, 19323, Note_on_c, 0, 59, 64
2, 19323, Note_on_c, 0, 63, 64
2, 19383, Note_off_c, 0, 63, 64
2, 19383, Note_on_c, 0, 69, 64
2, 19443, Note_off_c, 0, 69, 64
2, 19443, Note_off_c, 0, 59, 64
2, 19443, Note_on_c, 0, 67, 64
2, 19443, Note_on_c, 0, 52, 64
2, 19503, Note_off_c, 0, 67, 64
2, 19503, Note_on_c, 0, 71, 64
2, 19563, Note_off_c, 0, 71, 64
2, 19563, Note_off_c, 0, 52, 64
2, 19563, Note_on_c, 0, 72, 64
2, 19563, Note_on_c, 0, 50, 64
2, 19623, Note_off_c, 0, 72, 64
2, 19623, Note_on_c, 0, 74, 64
2, 19683, Note_off_c, 0, 74, 64
2, 19683, Note_off_c, 0, 50, 64
2, 19683, Note_on_c, 0, 48, 64
2, 19683, Note_on_c, 0, 76, 64
2, 19743, Note_off_c, 0, 76, 64
2, 19743, Note_on_c, 0, 72, 64
2, 19803, Note_off_c, 0, 72, 64
2, 19803, Note_off_c, 0, 48, 64
2, 19803, Note_on_c, 0, 74, 64
2, 19803, Note_on_c, 0, 47, 64
2, 19863, Note_off_c, 0, 74, 64
2, 19863, Note_on_c, 0, 71, 64
2, 19923, Note_off_c, 0, 71, 64
2, 19923, Note_off_c, 0, 47, 64
2, 19923, Note_on_c, 0, 69, 64
2, 19923, Note_on_c, 0, 48, 64
2, 19983, Note_off_c, 0, 69, 64
2, 19983, Note_on_c, 0, 67, 64
2, 20043, Note_off_c, 0, 67, 64
2, 20043, Note_off_c, 0, 48, 64
2, 20043, Note_on_c, 0, 50, 64
2, 20043, Note_on_c, 0, 66, 64
2, 20103, Note_off_c, 0, 66, 64
2, 20103, Note_on_c, 0, 72, 64
2, 20163, Note_off_c, 0, 72, 64
2, 20163, Note_off_c, 0, 50, 64
2, 20163, Note_on_c, 0, 71, 64
2, 20163, Note_on_c, 0, 43, 64
2, 20223, Note_off_c, 0, 71, 64
2, 20223, Note_on_c, 0, 74, 64
2, 20283, Note_off_c, 0, 74, 64
2, 20283, Note_off_c, 0, 43, 64
2, 20283, Note_on_c, 0, 76, 64
2, 20283, Note_on_c, 0, 42, 64
2, 20343, Note_off_c, 0, 76, 64
2, 20343, Note_on_c, 0, 78, 64
2, 20403, Note_off_c, 0, 78, 64
2, 20403, Note_off_c, 0, 42, 64
2, 20403, Note_on_c, 0, 40, 64
2, 20403, Note_on_c, 0, 79, 64
2, 20463, Note_off_c, 0, 79, 64
2, 20463, Note_on_c, 0, 76, 64
2, 20523, Note_off_c, 0, 76, 64
2, 20523, Note_off_c, 0, 40, 64
2, 20523, Note_on_c, 0, 78, 64
2, 20523, Note_on_c, 0, 38, 64
2, 20583, Note_off_c, 0, 78, 64
2, 20583, Note_on_c, 0, 74, 64
2, 20643, Note_off_c, 0, 74, 64
2, 20643, Note_off_c, 0, 38, 64
2, 20643, Note_on_c, 0, 73, 64
2, 20643, Note_on_c, 0, 40, 64
2, 20703, Note_off_c, 0, 73, 64
2, 20703, Note_on_c, 0, 71, 64
2, 20763, Note_off_c, 0, 71, 64
2, 20763, Note_off_c, 0, 40, 64
2, 20763, Note_on_c, 0, 42, 64
2, 20763, Note_on_c, 0, 70, 64
2, 20823, Note_off_c, 0, 70, 64
2, 20823, Note_on_c, 0, 76, 64
2, 20883, Note_off_c, 0, 76, 64
2, 20883, Note_off_c, 0, 42, 64
2, 20883, Note_on_c, 0, 74, 64
2, 20883, Note_on_c, 0, 47, 64
2, 20943, Note_off_c, 0, 47, 64
2, 20943, Note_off_c, 0, 74, 64
2, 20943, Note_on_c, 0, 78, 64
2, 20943, Note_on_c, 0, 50, 64
2, 21003, Note_off_c, 0, 50, 64
2, 21003, Note_off_c, 0, 78, 64
2, 21003, Note_on_c, 0, 76, 64
2, 21003, Note_on_c, 0, 52, 64
2, 21063, Note_off_c, 0, 52, 64
2, 21063, Note_off_c, 0, 76, 64
2, 21063, Note_on_c, 0, 74, 64
2, 21063, Note_on_c, 0, 54, 64
2, 21123, Note_off_c, 0, 54, 64
2, 21123, Note_off_c, 0, 74, 64
2, 21123, Note_on_c, 0, 73, 64
2, 21123, Note_on_c, 0, 55, 64
2, 21183, Note_off_c, 0, 55, 64
2, 21183, Note_off_c, 0, 73, 64
2, 21183, Note_on_c, 0, 52, 64
2, 21183, Note_on_c, 0, 71, 64
2, 21243, Note_off_c, 0, 71, 64
2, 21243, Note_off_c, 0, 52, 64
2, 21243, Note_on_c, 0, 70, 64
2, 21243, Note_on_c, 0, 54, 64
2, 21273, Note_off_c, 0, 70, 64
2, 21273, Note_on_c, 0, 68, 64
2, 21303, Note_off_c, 0, 68, 64
2, 21303, Note_off_c, 0, 54, 64
2, 21303, Note_on_c, 0, 66, 64
2, 21303, Note_on_c, 0, 50, 64
2, 21363, Note_off_c, 0, 50, 64
2, 21363, Note_off_c, 0, 66, 64
2, 21363, Note_on_c, 0, 76, 64
2, 21363, Note_on_c, 0, 49, 64
2, 21423, Note_off_c, 0, 49, 64
2, 21423, Note_on_c, 0, 47, 64
2, 21483, Note_off_c, 0, 47, 64
2, 21483, Note_off_c, 0, 76, 64
2, 21483, Note_on_c, 0, 46, 64
2, 21543, Note_off_c, 0, 46, 64
2, 21543, Note_on_c, 0, 52, 64
2, 21603, Note_off_c, 0, 52, 64
2, 21603, Note_on_c, 0, 50, 64
2, 21663, Note_off_c, 0, 50, 64
2, 21663, Note_on_c, 0, 74, 64
2, 21663, Note_on_c, 0, 47, 64
2, 21723, Note_off_c, 0, 47, 64
2, 21723, Note_off_c, 0, 74, 64
2, 21723, Note_on_c, 0, 76, 64
2, 21723, Note_on_c, 0, 49, 64
2, 21783, Note_off_c, 0, 49, 64
2, 21783, Note_off_c, 0, 76, 64
2, 21783, Note_on_c, 0, 78, 64
2, 21783, Note_on_c, 0, 50, 64
2, 21843, Note_off_c, 0, 50, 64
2, 21843, Note_off_c, 0, 78, 64
2, 21843, Note_on_c, 0, 79, 64
2, 21843, Note_on_c, 0, 52, 64
2, 21903, Note_off_c, 0, 52, 64
2, 21903, Note_off_c, 0, 79, 64
2, 21903, Note_on_c, 0, 76, 64
2, 21903, Note_on_c, 0, 49, 64
2, 21963, Note_off_c, 0, 49, 64
2, 21963, Note_off_c, 0, 76, 64
2, 21963, Note_on_c, 0, 78, 64
2, 21963, Note_on_c, 0, 50, 64
2, 22023, Note_off_c, 0, 78, 64
2, 22023, Note_on_c, 0, 74, 64
2, 22083, Note_off_c, 0, 74, 64
2, 22083, Note_off_c, 0, 50, 64
2, 22083, Note_on_c, 0, 73, 64
2, 22083, Note_on_c, 0, 52, 64
2, 22143, Note_off_c, 0, 73, 64
2, 22143, Note_on_c, 0, 71, 64
2, 22203, Note_off_c, 0, 71, 64
2, 22203, Note_off_c, 0, 52, 64
2, 22203, Note_on_c, 0, 54, 64
2, 22203, Note_on_c, 0, 70, 64
2, 22263, Note_off_c, 0, 70, 64
2, 22263, Note_on_c, 0, 76, 64
2, 22323, Note_off_c, 0, 76, 64
2, 22323, Note_off_c, 0, 54, 64
2, 22323, Note_on_c, 0, 74, 64
2, 22323, Note_on_c, 0, 47, 64
2, 22383, Note_off_c, 0, 74, 64
2, 22383, Note_on_c, 0, 71, 64
2, 22443, Note_off_c, 0, 71, 64
2, 22443, Note_off_c, 0, 47, 64
2, 22443, Note_on_c, 0, 73, 64
2, 22443, Note_on_c, 0, 59, 64
2, 22503, Note_off_c, 0, 73, 64
2, 22503, Note_on_c, 0, 74, 64
2, 22563, Note_off_c, 0, 74, 64
2, 22563, Note_off_c, 0, 59, 64
2, 22563, Note_on_c, 0, 58, 64
2, 22563, Note_on_c, 0, 76, 64
2, 22623, Note_off_c, 0, 76, 64
2, 22623, Note_on_c, 0, 73, 64
2, 22683, Note_off_c, 0, 73, 64
2, 22683, Note_off_c, 0, 58, 64
2, 22683, Note_on_c, 0, 74, 64
2, 22683, Note_on_c, 0, 59, 64
2, 22743, Note_off_c, 0, 74, 64
2, 22743, Note_on_c, 0, 71, 64
2, 22803, Note_off_c, 0, 71, 64
2, 22803, Note_off_c, 0, 59, 64
2, 22803, Note_on_c, 0, 69, 64
2, 22803, Note_on_c, 0, 54, 64
2, 22863, Note_off_c, 0, 69, 64
2, 22863, Note_on_c, 0, 67, 64
2, 22923, Note_off_c, 0, 67, 64
2, 22923, Note_off_c, 0, 54, 64
2, 22923, Note_on_c, 0, 50, 64
2, 22923, Note_on_c, 0, 66, 64
2, 22983, Note_off_c, 0, 66, 64
2, 22983, Note_on_c, 0, 72, 64
2, 23043, Note_off_c, 0, 72, 64
2, 23043, Note_off_c, 0, 50, 64
2, 23043, Note_on_c, 0, 71, 64
2, 23043, Note_on_c, 0, 55, 64
2, 23103, Note_off_c, 0, 55, 64
2, 23103, Note_off_c, 0, 71, 64
2, 23103, Note_on_c, 0, 67, 64
2, 23103, Note_on_c, 0, 59, 64
2, 23163, Note_off_c, 0, 59, 64
2, 23163, Note_off_c, 0, 67, 64
2, 23163, Note_on_c, 0, 76, 64
2, 23163, Note_on_c, 0, 60, 64
2, 23223, Note_off_c, 0, 60, 64
2, 23223, Note_off_c, 0, 76, 64
2, 23223, Note_on_c, 0, 71, 64
2, 23223, Note_on_c, 0, 62, 64
2, 23283, Note_off_c, 0, 62, 64
2, 23283, Note_off_c, 0, 71, 64
2, 23283, Note_on_c, 0, 72, 64
2, 23283, Note_on_c, 0, 64, 64
2, 23343, Note_off_c, 0, 64, 64
2, 23343, Note_off_c, 0, 72, 64
2, 23343, Note_on_c, 0, 60, 64
2, 23343, Note_on_c, 0, 81, 64
2, 23403, Note_off_c, 0, 81, 64
2, 23403, Note_off_c, 0, 60, 64
2, 23403, Note_on_c, 0, 71, 64
2, 23403, Note_on_c, 0, 62, 64
2, 23463, Note_off_c, 0, 62, 64
2, 23463, Note_off_c, 0, 71, 64
2, 23463, Note_on_c, 0, 74, 64
2, 23463, Note_on_c, 0, 59, 64
2, 23523, Note_off_c, 0, 59, 64
2, 23523, Note_off_c, 0, 74, 64
2, 23523, Note_on_c, 0, 79, 64
2, 23523, Note_on_c, 0, 57, 64
2, 23583, Note_off_c, 0, 57, 64
2, 23583, Note_on_c, 0, 55, 64
2, 23643, Note_off_c, 0, 55, 64
2, 23643, Note_off_c, 0, 79, 64
2, 23643, Note_on_c, 0, 71, 64
2, 23643, Note_on_c, 0, 54, 64
2, 23658, Note_off_c, 0, 71, 55
2, 23658, Note_on_c, 0, 69, 64
2, 23673, Note_off_c, 0, 69, 55
2, 23673, Note_on_c, 0, 71, 64
2, 23688, Note_off_c, 0, 71, 68
2, 23688, Note_on_c, 0, 69, 64
2, 23703, Note_off_c, 0, 69, 58
2, 23703, Note_off_c, 0, 54, 64
2, 23703, Note_on_c, 0, 71, 64
2, 23703, Note_on_c, 0, 60, 64
2, 23718, Note_off_c, 0, 71, 72
2, 23718, Note_on_c, 0, 69, 64
2, 23763, Note_off_c, 0, 69, 79
2, 23763, Note_off_c, 0, 60, 64
2, 23763, Note_on_c, 0, 67, 64
2, 23763, Note_on_c, 0, 59, 64
2, 23823, Note_off_c, 0, 59, 64
2, 23823, Note_off_c, 0, 67, 64
2, 23823, Note_on_c, 0, 64, 64
2, 23823, Note_on_c, 0, 55, 64
2, 23883, Note_off_c, 0, 55, 64
2, 23883, Note_off_c, 0, 64, 64
2, 23883, Note_on_c, 0, 72, 64
2, 23883, Note_on_c, 0, 57, 64
2, 23943, Note_off_c, 0, 57, 64
2, 23943, Note_off_c, 0, 72, 64
2, 23943, Note_on_c, 0, 67, 64
2, 23943, Note_on_c, 0, 59, 64
2, 24003, Note_off_c, 0, 59, 64
2, 24003, Note_off_c, 0, 67, 64
2, 24003, Note_on_c, 0, 69, 64
2, 24003, Note_on_c, 0, 60, 64
2, 24063, Note_off_c, 0, 60, 64
2, 24063, Note_off_c, 0, 69, 64
2, 24063, Note_on_c, 0, 57, 64
2, 24063, Note_on_c, 0, 78, 64
2, 24123, Note_off_c, 0, 78, 64
2, 24123, Note_off_c, 0, 57, 64
2, 24123, Note_on_c, 0, 67, 64
2, 24123, Note_on_c, 0, 59, 64
2, 24183, Note_off_c, 0, 59, 64
2, 24183, Note_off_c, 0, 67, 64
2, 24183, Note_on_c, 0, 71, 64
2, 24183, Note_on_c, 0, 55, 64
2, 24243, Note_off_c, 0, 55, 64
2, 24243, Note_off_c, 0, 71, 64
2, 24243, Note_on_c, 0, 76, 64
2, 24243, Note_on_c, 0, 54, 64
2, 24303, Note_off_c, 0, 54, 64
2, 24303, Note_on_c, 0, 52, 64
2, 24363, Note_off_c, 0, 52, 64
2, 24363, Note_off_c, 0, 76, 64
2, 24363, Note_on_c, 0, 67, 70
2, 24363, Note_on_c, 0, 51, 64
2, 24378, Note_off_c, 0, 67, 46
2, 24378, Note_on_c, 0, 66, 64
2, 24393, Note_off_c, 0, 66, 80
2, 24393, Note_on_c, 0, 67, 64
2, 24408, Note_off_c, 0, 67, 51
2, 24408, Note_on_c, 0, 66, 64
2, 24423, Note_off_c, 0, 66, 70
2, 24423, Note_off_c, 0, 51, 64
2, 24423, Note_on_c, 0, 67, 64
2, 24423, Note_on_c, 0, 57, 64
2, 24438, Note_off_c, 0, 67, 52
2, 24438, Note_on_c, 0, 66, 64
2, 24483, Note_off_c, 0, 66, 64
2, 24483, Note_off_c, 0, 57, 64
2, 24483, Note_on_c, 0, 64, 64
2, 24483, Note_on_c, 0, 55, 64
2, 24543, Note_off_c, 0, 55, 64
2, 24543, Note_off_c, 0, 64, 64
2, 24543, Note_on_c, 0, 67, 64
2, 24543, Note_on_c, 0, 52, 64
2, 24603, Note_off_c, 0, 52, 64
2, 24603, Note_off_c, 0, 67, 64
2, 24603, Note_on_c, 0, 69, 64
2, 24603, Note_on_c, 0, 54, 64
2, 24663, Note_off_c, 0, 54, 64
2, 24663, Note_off_c, 0, 69, 64
2, 24663, Note_on_c, 0, 71, 64
2, 24663, Note_on_c, 0, 55, 64
2, 24723, Note_off_c, 0, 55, 64
2, 24723, Note_off_c, 0, 71, 64
2, 24723, Note_on_c, 0, 72, 64
2, 24723, Note_on_c, 0, 57, 64
2, 24783, Note_off_c, 0, 57, 64
2, 24783, Note_off_c, 0, 72, 64
2, 24783, Note_on_c, 0, 54, 64
2, 24783, Note_on_c, 0, 69, 64
2, 24843, Note_off_c, 0, 69, 64
2, 24843, Note_off_c, 0, 54, 64
2, 24843, Note_on_c, 0, 71, 64
2, 24843, Note_on_c, 0, 55, 64
2, 24873, Note_off_c, 0, 71, 64
2, 24873, Note_on_c, 0, 69, 64
2, 24903, Note_off_c, 0, 69, 64
2, 24903, Note_off_c, 0, 55, 64
2, 24903, Note_on_c, 0, 67, 64
2, 24903, Note_on_c, 0, 52, 64
2, 24963, Note_off_c, 0, 52, 64
2, 24963, Note_off_c, 0, 67, 64
2, 24963, Note_on_c, 0, 77, 64
2, 24963, Note_on_c, 0, 50, 64
2, 25023, Note_off_c, 0, 50, 64
2, 25023, Note_on_c, 0, 48, 64
2, 25083, Note_off_c, 0, 48, 64
2, 25083, Note_off_c, 0, 77, 64
2, 25083, Note_on_c, 0, 47, 64
2, 25143, Note_off_c, 0, 47, 64
2, 25143, Note_on_c, 0, 53, 64
2, 25203, Note_off_c, 0, 53, 64
2, 25203, Note_on_c, 0, 52, 64
2, 25263, Note_off_c, 0, 52, 64
2, 25263, Note_on_c, 0, 64, 64
2, 25263, Note_on_c, 0, 43, 64
2, 25323, Note_off_c, 0, 43, 64
2, 25323, Note_off_c, 0, 64, 64
2, 25323, Note_on_c, 0, 66, 64
2, 25323, Note_on_c, 0, 45, 64
2, 25383, Note_off_c, 0, 45, 64
2, 25383, Note_off_c, 0, 66, 64
2, 25383, Note_on_c, 0, 67, 64
2, 25383, Note_on_c, 0, 47, 64
2, 25443, Note_off_c, 0, 47, 64
2, 25443, Note_off_c, 0, 67, 64
2, 25443, Note_on_c, 0, 48, 64
2, 25443, Note_on_c, 0, 69, 64
2, 25503, Note_off_c, 0, 69, 64
2, 25503, Note_on_c, 0, 66, 64
2, 25563, Note_off_c, 0, 66, 64
2, 25563, Note_on_c, 0, 67, 64
2, 25623, Note_off_c, 0, 67, 64
2, 25623, Note_off_c, 0, 48, 64
2, 25623, Note_on_c, 0, 62, 64
2, 25623, Note_on_c, 0, 47, 64
2, 25683, Note_off_c, 0, 47, 64
2, 25683, Note_off_c, 0, 62, 64
2, 25683, Note_on_c, 0, 64, 64
2, 25683, Note_on_c, 0, 49, 64
2, 25743, Note_off_c, 0, 49, 64
2, 25743, Note_off_c, 0, 64, 64
2, 25743, Note_on_c, 0, 66, 64
2, 25743, Note_on_c, 0, 50, 64
2, 25803, Note_off_c, 0, 50, 64
2, 25803, Note_off_c, 0, 66, 64
2, 25803, Note_on_c, 0, 67, 64
2, 25803, Note_on_c, 0, 52, 64
2, 25863, Note_off_c, 0, 52, 64
2, 25863, Note_on_c, 0, 49, 64
2, 25923, Note_off_c, 0, 49, 64
2, 25923, Note_on_c, 0, 50, 64
2, 25983, Note_off_c, 0, 50, 64
2, 25983, Note_off_c, 0, 67, 64
2, 25983, Note_on_c, 0, 66, 64
2, 25983, Note_on_c, 0, 45, 64
2, 26043, Note_off_c, 0, 45, 64
2, 26043, Note_off_c, 0, 66, 64
2, 26043, Note_on_c, 0, 68, 64
2, 26043, Note_on_c, 0, 47, 64
2, 26103, Note_off_c, 0, 47, 64
2, 26103, Note_off_c, 0, 68, 64
2, 26103, Note_on_c, 0, 69, 64
2, 26103, Note_on_c, 0, 48, 64
2, 26163, Note_off_c, 0, 48, 64
2, 26163, Note_off_c, 0, 69, 64
2, 26163, Note_on_c, 0, 50, 64
2, 26163, Note_on_c, 0, 71, 64
2, 26223, Note_off_c, 0, 71, 64
2, 26223, Note_on_c, 0, 68, 64
2, 26283, Note_off_c, 0, 68, 64
2, 26283, Note_on_c, 0, 69, 64
2, 26343, Note_off_c, 0, 69, 64
2, 26343, Note_off_c, 0, 50, 64
2, 26343, Note_on_c, 0, 64, 64
2, 26343, Note_on_c, 0, 49, 64
2, 26403, Note_off_c, 0, 49, 64
2, 26403, Note_off_c, 0, 64, 64
2, 26403, Note_on_c, 0, 66, 64
2, 26403, Note_on_c, 0, 51, 64
2, 26463, Note_off_c, 0, 51, 64
2, 26463, Note_off_c, 0, 66, 64
2, 26463, Note_on_c, 0, 67, 64
2, 26463, Note_on_c, 0, 52, 64
2, 26523, Note_off_c, 0, 52, 64
2, 26523, Note_off_c, 0, 67, 64
2, 26523, Note_on_c, 0, 69, 64
2, 26523, Note_on_c, 0, 54, 64
2, 26583, Note_off_c, 0, 54, 64
2, 26583, Note_on_c, 0, 51, 64
2, 26643, Note_off_c, 0, 51, 64
2, 26643, Note_on_c, 0, 52, 64
2, 26703, Note_off_c, 0, 52, 64
2, 26703, Note_off_c, 0, 69, 64
2, 26703, Note_on_c, 0, 68, 64
2, 26703, Note_on_c, 0, 47, 64
2, 26763, Note_off_c, 0, 47, 64
2, 26763, Note_off_c, 0, 68, 64
2, 26763, Note_on_c, 0, 70, 64
2, 26763, Note_on_c, 0, 49, 64
2, 26823, Note_off_c, 0, 49, 64
2, 26823, Note_off_c, 0, 70, 64
2, 26823, Note_on_c, 0, 71, 64
2, 26823, Note_on_c, 0, 50, 64
2, 26883, Note_off_c, 0, 50, 64
2, 26883, Note_off_c, 0, 71, 64
2, 26883, Note_on_c, 0, 52, 64
2, 26883, Note_on_c, 0, 73, 64
2, 26943, Note_off_c, 0, 73, 64
2, 26943, Note_on_c, 0, 70, 64
2, 27003, Note_off_c, 0, 70, 64
2, 27003, Note_on_c, 0, 71, 64
2, 27063, Note_off_c, 0, 71, 64
2, 27063, Note_off_c, 0, 52, 64
2, 27063, Note_on_c, 0, 66, 64
2, 27063, Note_on_c, 0, 50, 64
2, 27123, Note_off_c, 0, 50, 64
2, 27123, Note_off_c, 0, 66, 64
2, 27123, Note_on_c, 0, 68, 64
2, 27123, Note_on_c, 0, 52, 64
2, 27183, Note_off_c, 0, 52, 64
2, 27183, Note_off_c, 0, 68, 64
2, 27183, Note_on_c, 0, 70, 64
2, 27183, Note_on_c, 0, 54, 64
2, 27243, Note_off_c, 0, 54, 64
2, 27243, Note_off_c, 0, 70, 64
2, 27243, Note_on_c, 0, 71, 64
2, 27243, Note_on_c, 0, 55, 64
2, 27303, Note_off_c, 0, 55, 64
2, 27303, Note_on_c, 0, 52, 64
2, 27363, Note_off_c, 0, 52, 64
2, 27363, Note_on_c, 0, 55, 76
2, 27383, Note_off_c, 0, 55, 46
2, 27383, Note_on_c, 0, 54, 48
2, 27403, Note_on_c, 0, 55, 48
2, 27405, Note_off_c, 0, 54, 55
2, 27423, Note_off_c, 0, 71, 64
2, 27423, Note_on_c, 0, 54, 48
2, 27423, Note_on_c, 0, 70, 64
2, 27425, Note_off_c, 0, 55, 69
2, 27443, Note_on_c, 0, 55, 48
2, 27445, Note_off_c, 0, 54, 63
2, 27463, Note_on_c, 0, 54, 49
2, 27465, Note_off_c, 0, 55, 63
2, 27483, Note_off_c, 0, 70, 64
2, 27483, Note_on_c, 0, 55, 49
2, 27483, Note_on_c, 0, 71, 64
2, 27485, Note_off_c, 0, 54, 68
2, 27503, Note_on_c, 0, 54, 49
2, 27505, Note_off_c, 0, 55, 61
2, 27523, Note_on_c, 0, 55, 49
2, 27525, Note_off_c, 0, 54, 66
2, 27543, Note_off_c, 0, 71, 64
2, 27543, Note_on_c, 0, 54, 49
2, 27543, Note_on_c, 0, 73, 64
2, 27545, Note_off_c, 0, 55, 61
2, 27563, Note_on_c, 0, 55, 50
2, 27565, Note_off_c, 0, 54, 65
2, 27583, Note_on_c, 0, 54, 50
2, 27585, Note_off_c, 0, 55, 55
2, 27603, Note_off_c, 0, 73, 64
2, 27603, Note_on_c, 0, 55, 50
2, 27603, Note_on_c, 0, 74, 64
2, 27605, Note_off_c, 0, 54, 63
2, 27623, Note_on_c, 0, 54, 50
2, 27625, Note_off_c, 0, 55, 51
2, 27643, Note_on_c, 0, 55, 51
2, 27645, Note_off_c, 0, 54, 65
2, 27663, Note_off_c, 0, 74, 64
2, 27663, Note_on_c, 0, 54, 51
2, 27663, Note_on_c, 0, 71, 64
2, 27665, Note_off_c, 0, 55, 51
2, 27683, Note_on_c, 0, 55, 51
2, 27685, Note_off_c, 0, 54, 58
2, 27703, Note_on_c, 0, 54, 51
2, 27705, Note_off_c, 0, 55, 52
2, 27723, Note_off_c, 0, 71, 64
2, 27723, Note_on_c, 0, 55, 52
2, 27723, Note_on_c, 0, 73, 64
2, 27725, Note_off_c, 0, 54, 66
2, 27743, Note_on_c, 0, 54, 52
2, 27745, Note_off_c, 0, 55, 69
2, 27763, Note_on_c, 0, 55, 52
2, 27765, Note_off_c, 0, 54, 68
2, 27783, Note_off_c, 0, 73, 64
2, 27783, Note_on_c, 0, 54, 52
2, 27783, Note_on_c, 0, 71, 64
2, 27785, Note_off_c, 0, 55, 58
2, 27803, Note_on_c, 0, 55, 52
2, 27805, Note_off_c, 0, 54, 63
2, 27823, Note_on_c, 0, 54, 53
2, 27825, Note_off_c, 0, 55, 57
2, 27843, Note_off_c, 0, 71, 64
2, 27843, Note_on_c, 0, 55, 53
2, 27843, Note_on_c, 0, 70, 64
2, 27845, Note_off_c, 0, 54, 57
2, 27863, Note_on_c, 0, 54, 53
2, 27865, Note_off_c, 0, 55, 57
2, 27883, Note_on_c, 0, 55, 53
2, 27885, Note_off_c, 0, 54, 62
2, 27903, Note_off_c, 0, 70, 64
2, 27903, Note_on_c, 0, 54, 54
2, 27903, Note_on_c, 0, 68, 64
2, 27905, Note_off_c, 0, 55, 52
2, 27923, Note_on_c, 0, 55, 54
2, 27925, Note_off_c, 0, 54, 63
2, 27943, Note_on_c, 0, 54, 54
2, 27945, Note_off_c, 0, 55, 58
2, 27963, Note_off_c, 0, 68, 64
2, 27963, Note_on_c, 0, 55, 54
2, 27963, Note_on_c, 0, 66, 64
2, 27965, Note_off_c, 0, 54, 66
2, 27983, Note_on_c, 0, 54, 55
2, 27985, Note_off_c, 0, 55, 58
2, 28003, Note_on_c, 0, 55, 55
2, 28005, Note_off_c, 0, 54, 61
2, 28023, Note_off_c, 0, 66, 64
2, 28023, Note_on_c, 0, 54, 55
2, 28023, Note_on_c, 0, 64, 64
2, 28025, Note_off_c, 0, 55, 58
2, 28043, Note_on_c, 0, 55, 55
2, 28045, Note_off_c, 0, 54, 62
2, 28063, Note_on_c, 0, 54, 55
2, 28065, Note_off_c, 0, 55, 52
2, 28083, Note_off_c, 0, 64, 64
2, 28083, Note_on_c, 0, 55, 56
2, 28083, Note_on_c, 0, 62, 64
2, 28085, Note_off_c, 0, 54, 63
2, 28103, Note_on_c, 0, 54, 56
2, 28105, Note_off_c, 0, 55, 66
2, 28123, Note_on_c, 0, 55, 56
2, 28125, Note_off_c, 0, 54, 68
2, 28143, Note_off_c, 0, 62, 64
2, 28143, Note_on_c, 0, 54, 56
2, 28143, Note_on_c, 0, 66, 64
2, 28145, Note_off_c, 0, 55, 55
2, 28163, Note_on_c, 0, 55, 57
2, 28165, Note_off_c, 0, 54, 50
2, 28183, Note_on_c, 0, 54, 57
2, 28185, Note_off_c, 0, 55, 48
2, 28203, Note_off_c, 0, 66, 64
2, 28203, Note_on_c, 0, 55, 57
2, 28203, Note_on_c, 0, 68, 64
2, 28205, Note_off_c, 0, 54, 66
2, 28223, Note_on_c, 0, 54, 57
2, 28225, Note_off_c, 0, 55, 49
2, 28243, Note_on_c, 0, 55, 58
2, 28245, Note_off_c, 0, 54, 70
2, 28263, Note_off_c, 0, 68, 64
2, 28263, Note_on_c, 0, 54, 58
2, 28263, Note_on_c, 0, 70, 64
2, 28265, Note_off_c, 0, 55, 63
2, 28283, Note_on_c, 0, 55, 58
2, 28285, Note_off_c, 0, 54, 63
2, 28303, Note_on_c, 0, 54, 58
2, 28305, Note_off_c, 0, 55, 55
2, 28323, Note_off_c, 0, 70, 64
2, 28323, Note_on_c, 0, 55, 58
2, 28323, Note_on_c, 0, 71, 64
2, 28325, Note_off_c, 0, 54, 62
2, 28343, Note_on_c, 0, 54, 59
2, 28345, Note_off_c, 0, 55, 61
2, 28363, Note_on_c, 0, 55, 59
2, 28365, Note_off_c, 0, 54, 66
2, 28383, Note_off_c, 0, 71, 64
2, 28383, Note_on_c, 0, 54, 59
2, 28383, Note_on_c, 0, 68, 64
2, 28385, Note_off_c, 0, 55, 53
2, 28403, Note_on_c, 0, 55, 59
2, 28405, Note_off_c, 0, 54, 65
2, 28423, Note_on_c, 0, 54, 60
2, 28425, Note_off_c, 0, 55, 62
2, 28443, Note_off_c, 0, 68, 64
2, 28443, Note_on_c, 0, 55, 60
2, 28443, Note_on_c, 0, 70, 64
2, 28445, Note_off_c, 0, 54, 68
2, 28463, Note_on_c, 0, 54, 60
2, 28465, Note_off_c, 0, 55, 63
2, 28483, Note_on_c, 0, 55, 60
2, 28485, Note_off_c, 0, 54, 66
2, 28503, Note_off_c, 0, 70, 64
2, 28503, Note_on_c, 0, 54, 61
2, 28503, Note_on_c, 0, 68, 64
2, 28505, Note_off_c, 0, 55, 55
2, 28523, Note_on_c, 0, 55, 61
2, 28525, Note_off_c, 0, 54, 69
2, 28543, Note_on_c, 0, 54, 61
2, 28545, Note_off_c, 0, 55, 48
2, 28563, Note_off_c, 0, 68, 64
2, 28563, Note_on_c, 0, 55, 61
2, 28563, Note_on_c, 0, 66, 64
2, 28565, Note_off_c, 0, 54, 65
2, 28583, Note_on_c, 0, 54, 62
2, 28585, Note_off_c, 0, 55, 61
2, 28603, Note_on_c, 0, 55, 62
2, 28605, Note_off_c, 0, 54, 62
2, 28623, Note_off_c, 0, 66, 64
2, 28623, Note_on_c, 0, 54, 62
2, 28623, Note_on_c, 0, 64, 64
2, 28625, Note_off_c, 0, 55, 58
2, 28643, Note_on_c, 0, 55, 62
2, 28645, Note_off_c, 0, 54, 65
2, 28663, Note_on_c, 0, 54, 62
2, 28665, Note_off_c, 0, 55, 68
2, 28683, Note_off_c, 0, 64, 64
2, 28683, Note_on_c, 0, 55, 63
2, 28683, Note_on_c, 0, 62, 64
2, 28685, Note_off_c, 0, 54, 58
2, 28703, Note_on_c, 0, 54, 63
2, 28705, Note_off_c, 0, 55, 50
2, 28723, Note_on_c, 0, 55, 63
2, 28725, Note_off_c, 0, 54, 69
2, 28743, Note_off_c, 0, 62, 64
2, 28743, Note_on_c, 0, 61, 64
2, 28743, Note_on_c, 0, 54, 63
2, 28745, Note_off_c, 0, 55, 58
2, 28793, Note_off_c, 0, 61, 64
2, 28806, Note_on_c, 0, 61, 76
2, 28812, Note_off_c, 0, 54, 57
2, 28826, Note_off_c, 0, 61, 47
2, 28826, Note_on_c, 0, 59, 48
2, 28846, Note_on_c, 0, 61, 48
2, 28848, Note_off_c, 0, 59, 53
2, 28866, Note_on_c, 0, 59, 48
2, 28866, Note_on_c, 0, 51, 64
2, 28868, Note_off_c, 0, 61, 45
2, 28886, Note_on_c, 0, 61, 48
2, 28888, Note_off_c, 0, 59, 49
2, 28906, Note_on_c, 0, 59, 48
2, 28908, Note_off_c, 0, 61, 68
2, 28926, Note_off_c, 0, 51, 64
2, 28926, Note_on_c, 0, 61, 49
2, 28926, Note_on_c, 0, 52, 64
2, 28928, Note_off_c, 0, 59, 53
2, 28946, Note_on_c, 0, 59, 49
2, 28948, Note_off_c, 0, 61, 58
2, 28966, Note_on_c, 0, 61, 49
2, 28968, Note_off_c, 0, 59, 43
2, 28986, Note_off_c, 0, 52, 64
2, 28986, Note_on_c, 0, 59, 49
2, 28986, Note_on_c, 0, 54, 64
2, 28988, Note_off_c, 0, 61, 62
2, 29006, Note_on_c, 0, 61, 50
2, 29008, Note_off_c, 0, 59, 52
2, 29026, Note_on_c, 0, 59, 50
2, 29028, Note_off_c, 0, 61, 57
2, 29046, Note_off_c, 0, 54, 64
2, 29046, Note_on_c, 0, 61, 50
2, 29046, Note_on_c, 0, 55, 64
2, 29048, Note_off_c, 0, 59, 46
2, 29066, Note_on_c, 0, 59, 50
2, 29068, Note_off_c, 0, 61, 62
2, 29086, Note_on_c, 0, 61, 50
2, 29088, Note_off_c, 0, 59, 41
2, 29106, Note_off_c, 0, 55, 64
2, 29106, Note_on_c, 0, 59, 51
2, 29106, Note_on_c, 0, 52, 64
2, 29108, Note_off_c, 0, 61, 63
2, 29126, Note_on_c, 0, 61, 51
2, 29128, Note_off_c, 0, 59, 49
2, 29146, Note_on_c, 0, 59, 51
2, 29148, Note_off_c, 0, 61, 62
2, 29166, Note_off_c, 0, 52, 64
2, 29166, Note_on_c, 0, 61, 51
2, 29166, Note_on_c, 0, 54, 64
2, 29168, Note_off_c, 0, 59, 25
2, 29186, Note_on_c, 0, 59, 52
2, 29188, Note_off_c, 0, 61, 54
2, 29206, Note_on_c, 0, 61, 52
2, 29208, Note_off_c, 0, 59, 40
2, 29226, Note_off_c, 0, 54, 64
2, 29226, Note_on_c, 0, 59, 52
2, 29226, Note_on_c, 0, 52, 64
2, 29228, Note_off_c, 0, 61, 65
2, 29246, Note_on_c, 0, 61, 52
2, 29248, Note_off_c, 0, 59, 52
2, 29266, Note_on_c, 0, 59, 52
2, 29268, Note_off_c, 0, 61, 73
2, 29286, Note_off_c, 0, 52, 64
2, 29286, Note_on_c, 0, 61, 53
2, 29286, Note_on_c, 0, 51, 64
2, 29288, Note_off_c, 0, 59, 61
2, 29306, Note_on_c, 0, 59, 53
2, 29308, Note_off_c, 0, 61, 73
2, 29326, Note_on_c, 0, 61, 53
2, 29328, Note_off_c, 0, 59, 49
2, 29346, Note_off_c, 0, 51, 64
2, 29346, Note_on_c, 0, 59, 53
2, 29346, Note_on_c, 0, 49, 64
2, 29348, Note_off_c, 0, 61, 76
2, 29366, Note_on_c, 0, 61, 53
2, 29368, Note_off_c, 0, 59, 61
2, 29386, Note_on_c, 0, 59, 54
2, 29388, Note_off_c, 0, 61, 77
2, 29406, Note_off_c, 0, 49, 64
2, 29406, Note_on_c, 0, 61, 54
2, 29406, Note_on_c, 0, 47, 64
2, 29408, Note_off_c, 0, 59, 52
2, 29426, Note_on_c, 0, 59, 54
2, 29428, Note_off_c, 0, 61, 72
2, 29446, Note_on_c, 0, 61, 54
2, 29448, Note_off_c, 0, 59, 47
2, 29466, Note_off_c, 0, 47, 64
2, 29466, Note_on_c, 0, 59, 55
2, 29466, Note_on_c, 0, 45, 64
2, 29468, Note_off_c, 0, 61, 76
2, 29486, Note_on_c, 0, 61, 55
2, 29488, Note_off_c, 0, 59, 57
2, 29506, Note_on_c, 0, 59, 55
2, 29508, Note_off_c, 0, 61, 76
2, 29526, Note_off_c, 0, 45, 64
2, 29526, Note_on_c, 0, 61, 55
2, 29526, Note_on_c, 0, 43, 64
2, 29528, Note_off_c, 0, 59, 49
2, 29546, Note_on_c, 0, 59, 55
2, 29548, Note_off_c, 0, 61, 73
2, 29566, Note_on_c, 0, 61, 56
2, 29568, Note_off_c, 0, 59, 37
2, 29586, Note_off_c, 0, 43, 64
2, 29586, Note_on_c, 0, 59, 56
2, 29586, Note_on_c, 0, 47, 64
2, 29588, Note_off_c, 0, 61, 74
2, 29606, Note_on_c, 0, 61, 56
2, 29608, Note_off_c, 0, 59, 55
2, 29626, Note_on_c, 0, 59, 56
2, 29628, Note_off_c, 0, 61, 69
2, 29646, Note_off_c, 0, 47, 64
2, 29646, Note_on_c, 0, 61, 57
2, 29646, Note_on_c, 0, 49, 64
2, 29648, Note_off_c, 0, 59, 44
2, 29666, Note_on_c, 0, 59, 57
2, 29668, Note_off_c, 0, 61, 70
2, 29686, Note_on_c, 0, 61, 57
2, 29688, Note_off_c, 0, 59, 42
2, 29706, Note_off_c, 0, 49, 64
2, 29706, Note_on_c, 0, 59, 57
2, 29706, Note_on_c, 0, 51, 64
2, 29708, Note_off_c, 0, 61, 68
2, 29726, Note_on_c, 0, 61, 57
2, 29728, Note_off_c, 0, 59, 49
2, 29746, Note_on_c, 0, 59, 58
2, 29748, Note_off_c, 0, 61, 68
2, 29766, Note_off_c, 0, 51, 64
2, 29766, Note_on_c, 0, 61, 58
2, 29766, Note_on_c, 0, 52, 64
2, 29768, Note_off_c, 0, 59, 47
2, 29786, Note_on_c, 0, 59, 58
2, 29788, Note_off_c, 0, 61, 68
2, 29806, Note_on_c, 0, 61, 58
2, 29808, Note_off_c, 0, 59, 43
2, 29826, Note_off_c, 0, 52, 64
2, 29826, Note_on_c, 0, 59, 59
2, 29826, Note_on_c, 0, 49, 64
2, 29828, Note_off_c, 0, 61, 68
2, 29846, Note_on_c, 0, 61, 59
2, 29848, Note_off_c, 0, 59, 46
2, 29866, Note_on_c, 0, 59, 59
2, 29868, Note_off_c, 0, 61, 69
2, 29886, Note_off_c, 0, 49, 64
2, 29886, Note_on_c, 0, 61, 59
2, 29886, Note_on_c, 0, 51, 64
2, 29888, Note_off_c, 0, 59, 51
2, 29906, Note_on_c, 0, 59, 59
2, 29908, Note_off_c, 0, 61, 63
2, 29926, Note_on_c, 0, 61, 60
2, 29928, Note_off_c, 0, 59, 46
2, 29946, Note_off_c, 0, 51, 64
2, 29946, Note_on_c, 0, 59, 60
2, 29946, Note_on_c, 0, 49, 64
2, 29948, Note_off_c, 0, 61, 58
2, 29966, Note_on_c, 0, 61, 60
2, 29968, Note_off_c, 0, 59, 47
2, 29986, Note_on_c, 0, 59, 60
2, 29988, Note_off_c, 0, 61, 59
2, 30006, Note_off_c, 0, 49, 64
2, 30006, Note_on_c, 0, 61, 60
2, 30006, Note_on_c, 0, 47, 64
2, 30008, Note_off_c, 0, 59, 52
2, 30026, Note_on_c, 0, 59, 61
2, 30028, Note_off_c, 0, 61, 74
2, 30046, Note_on_c, 0, 61, 61
2, 30048, Note_off_c, 0, 59, 68
2, 30066, Note_off_c, 0, 47, 64
2, 30066, Note_on_c, 0, 59, 61
2, 30066, Note_on_c, 0, 45, 64
2, 30068, Note_off_c, 0, 61, 68
2, 30086, Note_on_c, 0, 61, 61
2, 30088, Note_off_c, 0, 59, 48
2, 30106, Note_on_c, 0, 59, 62
2, 30108, Note_off_c, 0, 61, 69
2, 30126, Note_off_c, 0, 45, 64
2, 30126, Note_on_c, 0, 61, 62
2, 30126, Note_on_c, 0, 43, 64
2, 30128, Note_off_c, 0, 59, 52
2, 30146, Note_on_c, 0, 59, 62
2, 30148, Note_off_c, 0, 61, 61
2, 30166, Note_on_c, 0, 61, 62
2, 30168, Note_off_c, 0, 59, 51
2, 30186, Note_off_c, 0, 43, 64
2, 30186, Note_on_c, 0, 59, 62
2, 30186, Note_on_c, 0, 42, 64
2, 30188, Note_off_c, 0, 61, 72
2, 30206, Note_on_c, 0, 61, 63
2, 30208, Note_off_c, 0, 59, 34
2, 30226, Note_on_c, 0, 59, 63
2, 30228, Note_off_c, 0, 61, 70
2, 30246, Note_off_c, 0, 42, 64
2, 30246, Note_on_c, 0, 61, 63
2, 30246, Note_on_c, 0, 40, 64
2, 30248, Note_off_c, 0, 59, 49
2, 30266, Note_on_c, 0, 59, 63
2, 30268, Note_off_c, 0, 61, 70
2, 30306, Note_off_c, 0, 40, 64
2, 30306, Note_on_c, 0, 50, 64
2, 30354, Note_off_c, 0, 59, 52
2, 30366, Note_off_c, 0, 50, 64
2, 30366, Note_on_c, 0, 64, 64
2, 30366, Note_on_c, 0, 49, 64
2, 30381, Note_off_c, 0, 64, 38
2, 30381, Note_on_c, 0, 62, 64
2, 30396, Note_off_c, 0, 62, 46
2, 30396, Note_on_c, 0, 64, 64
2, 30426, Note_off_c, 0, 49, 64
2, 30426, Note_on_c, 0, 47, 64
2, 30486, Note_off_c, 0, 47, 64
2, 30486, Note_on_c, 0, 46, 64
2, 30546, Note_off_c, 0, 46, 64
2, 30546, Note_on_c, 0, 49, 64
2, 30606, Note_off_c, 0, 49, 64
2, 30606, Note_on_c, 0, 42, 64
2, 30666, Note_off_c, 0, 64, 64
2, 30666, Note_on_c, 0, 66, 64
2, 30726, Note_off_c, 0, 66, 64
2, 30726, Note_off_c, 0, 42, 64
2, 30726, Note_on_c, 0, 55, 72
2, 30726, Note_on_c, 0, 64, 64
2, 30746, Note_off_c, 0, 55, 64
2, 30746, Note_on_c, 0, 54, 64
2, 30766, Note_off_c, 0, 54, 64
2, 30766, Note_on_c, 0, 55, 64
2, 30786, Note_off_c, 0, 64, 64
2, 30786, Note_on_c, 0, 62, 64
2, 30846, Note_off_c, 0, 62, 64
2, 30846, Note_on_c, 0, 61, 64
2, 30906, Note_off_c, 0, 61, 64
2, 30906, Note_on_c, 0, 64, 64
2, 30966, Note_off_c, 0, 64, 64
2, 30966, Note_on_c, 0, 58, 64
2, 31026, Note_off_c, 0, 55, 64
2, 31026, Note_on_c, 0, 54, 64
2, 31086, Note_off_c, 0, 54, 64
2, 31086, Note_off_c, 0, 58, 64
2, 31086, Note_on_c, 0, 73, 64
2, 31086, Note_on_c, 0, 52, 64
2, 31106, Note_off_c, 0, 73, 64
2, 31106, Note_on_c, 0, 71, 64
2, 31126, Note_off_c, 0, 71, 64
2, 31126, Note_on_c, 0, 73, 64
2, 31146, Note_off_c, 0, 52, 64
2, 31146, Note_on_c, 0, 50, 64
2, 31206, Note_off_c, 0, 50, 64
2, 31206, Note_on_c, 0, 49, 64
2, 31266, Note_off_c, 0, 49, 64
2, 31266, Note_on_c, 0, 52, 64
2, 31326, Note_off_c, 0, 52, 64
2, 31326, Note_on_c, 0, 46, 64
2, 31386, Note_off_c, 0, 73, 64
2, 31386, Note_on_c, 0, 74, 64
2, 31446, Note_off_c, 0, 74, 64
2, 31446, Note_off_c, 0, 46, 64
2, 31446, Note_on_c, 0, 64, 64
2, 31446, Note_on_c, 0, 73, 64
2, 31506, Note_off_c, 0, 73, 64
2, 31506, Note_on_c, 0, 71, 64
2, 31566, Note_off_c, 0, 71, 64
2, 31566, Note_on_c, 0, 70, 64
2, 31626, Note_off_c, 0, 70, 64
2, 31626, Note_on_c, 0, 73, 64
2, 31686, Note_off_c, 0, 73, 64
2, 31686, Note_on_c, 0, 66, 64
2, 31746, Note_off_c, 0, 64, 64
2, 31746, Note_on_c, 0, 62, 64
2, 31806, Note_off_c, 0, 62, 64
2, 31806, Note_off_c, 0, 66, 64
2, 31806, Note_on_c, 0, 79, 64
2, 31806, Note_on_c, 0, 61, 64
2, 31826, Note_off_c, 0, 79, 64
2, 31826, Note_on_c, 0, 78, 64
2, 31846, Note_off_c, 0, 78, 64
2, 31846, Note_on_c, 0, 79, 64
2, 31866, Note_off_c, 0, 61, 64
2, 31866, Note_on_c, 0, 59, 64
2, 31926, Note_off_c, 0, 59, 64
2, 31926, Note_on_c, 0, 58, 64
2, 31986, Note_off_c, 0, 58, 64
2, 31986, Note_on_c, 0, 61, 64
2, 32046, Note_off_c, 0, 61, 64
2, 32046, Note_on_c, 0, 54, 64
2, 32106, Note_off_c, 0, 79, 64
2, 32106, Note_on_c, 0, 78, 64
2, 32166, Note_off_c, 0, 78, 64
2, 32166, Note_off_c, 0, 54, 64
2, 32166, Note_on_c, 0, 76, 64
2, 32166, Note_on_c, 0, 56, 64
2, 32226, Note_off_c, 0, 76, 64
2, 32226, Note_on_c, 0, 74, 64
2, 32286, Note_off_c, 0, 74, 64
2, 32286, Note_off_c, 0, 56, 64
2, 32286, Note_on_c, 0, 58, 64
2, 32286, Note_on_c, 0, 73, 64
2, 32346, Note_off_c, 0, 73, 64
2, 32346, Note_on_c, 0, 76, 64
2, 32406, Note_off_c, 0, 76, 64
2, 32406, Note_off_c, 0, 58, 64
2, 32406, Note_on_c, 0, 76, 64
2, 32406, Note_on_c, 0, 59, 64
2, 32426, Note_off_c, 0, 76, 44
2, 32426, Note_on_c, 0, 74, 64
2, 32446, Note_off_c, 0, 74, 52
2, 32446, Note_on_c, 0, 73, 64
2, 32466, Note_off_c, 0, 73, 53
2, 32466, Note_off_c, 0, 59, 64
2, 32466, Note_on_c, 0, 74, 64
2, 32466, Note_on_c, 0, 58, 64
2, 32486, Note_off_c, 0, 74, 49
2, 32486, Note_on_c, 0, 76, 64
2, 32506, Note_off_c, 0, 76, 34
2, 32506, Note_on_c, 0, 74, 64
2, 32526, Note_off_c, 0, 74, 52
2, 32526, Note_off_c, 0, 58, 64
2, 32526, Note_on_c, 0, 76, 64
2, 32526, Note_on_c, 0, 59, 64
2, 32546, Note_off_c, 0, 76, 30
2, 32546, Note_on_c, 0, 74, 64
2, 32586, Note_off_c, 0, 59, 64
2, 32586, Note_on_c, 0, 61, 64
2, 32646, Note_off_c, 0, 61, 64
2, 32646, Note_on_c, 0, 62, 64
2, 32706, Note_off_c, 0, 62, 64
2, 32706, Note_on_c, 0, 59, 64
2, 32766, Note_off_c, 0, 59, 64
2, 32766, Note_on_c, 0, 53, 64
2, 32826, Note_off_c, 0, 53, 64
2, 32826, Note_off_c, 0, 74, 64
2, 32826, Note_on_c, 0, 73, 64
2, 32826, Note_on_c, 0, 54, 64
2, 32886, Note_off_c, 0, 54, 64
2, 32886, Note_off_c, 0, 73, 64
2, 32886, Note_on_c, 0, 71, 64
2, 32886, Note_on_c, 0, 56, 64
2, 32946, Note_off_c, 0, 56, 64
2, 32946, Note_off_c, 0, 71, 64
2, 32946, Note_on_c, 0, 69, 64
2, 32946, Note_on_c, 0, 57, 64
2, 33006, Note_off_c, 0, 57, 64
2, 33006, Note_off_c, 0, 69, 64
2, 33006, Note_on_c, 0, 68, 64
2, 33006, Note_on_c, 0, 59, 64
2, 33066, Note_off_c, 0, 59, 64
2, 33066, Note_off_c, 0, 68, 64
2, 33066, Note_on_c, 0, 71, 64
2, 33066, Note_on_c, 0, 56, 64
2, 33126, Note_off_c, 0, 56, 64
2, 33126, Note_off_c, 0, 71, 64
2, 33126, Note_on_c, 0, 65, 64
2, 33126, Note_on_c, 0, 49, 64
2, 33186, Note_off_c, 0, 65, 64
2, 33186, Note_on_c, 0, 74, 64
2, 33246, Note_off_c, 0, 74, 64
2, 33246, Note_off_c, 0, 49, 64
2, 33246, Note_on_c, 0, 73, 64
2, 33246, Note_on_c, 0, 53, 64
2, 33306, Note_off_c, 0, 73, 64
2, 33306, Note_on_c, 0, 71, 64
2, 33366, Note_off_c, 0, 71, 64
2, 33366, Note_off_c, 0, 53, 64
2, 33366, Note_on_c, 0, 54, 64
2, 33366, Note_on_c, 0, 70, 64
2, 33426, Note_off_c, 0, 70, 64
2, 33426, Note_on_c, 0, 73, 64
2, 33486, Note_off_c, 0, 73, 64
2, 33486, Note_off_c, 0, 54, 64
2, 33486, Note_on_c, 0, 76, 64
2, 33486, Note_on_c, 0, 55, 64
2, 33546, Note_off_c, 0, 76, 64
2, 33546, Note_on_c, 0, 79, 64
2, 33606, Note_off_c, 0, 79, 64
2, 33606, Note_off_c, 0, 55, 64
2, 33606, Note_on_c, 0, 78, 64
2, 33606, Note_on_c, 0, 46, 64
2, 33666, Note_off_c, 0, 78, 64
2, 33666, Note_on_c, 0, 76, 64
2, 33726, Note_off_c, 0, 76, 64
2, 33726, Note_off_c, 0, 46, 64
2, 33726, Note_on_c, 0, 47, 64
2, 33726, Note_on_c, 0, 74, 64
2, 33786, Note_off_c, 0, 74, 64
2, 33786, Note_on_c, 0, 78, 64
2, 33846, Note_off_c, 0, 78, 64
2, 33846, Note_off_c, 0, 47, 64
2, 33846, Note_on_c, 0, 71, 64
2, 33846, Note_on_c, 0, 43, 64
2, 33966, Note_off_c, 0, 43, 64
2, 33966, Note_off_c, 0, 71, 64
2, 33966, Note_on_c, 0, 73, 64
2, 33966, Note_on_c, 0, 40, 64
2, 34086, Note_off_c, 0, 40, 64
2, 34086, Note_off_c, 0, 73, 64
2, 34086, Note_on_c, 0, 71, 64
2, 34086, Note_on_c, 0, 42, 64
2, 34106, Note_off_c, 0, 71, 64
2, 34106, Note_on_c, 0, 70, 64
2, 34126, Note_off_c, 0, 70, 64
2, 34126, Note_on_c, 0, 68, 64
2, 34146, Note_off_c, 0, 68, 64
2, 34146, Note_on_c, 0, 70, 64
2, 34206, Note_off_c, 0, 70, 64
2, 34206, Note_off_c, 0, 42, 64
2, 34206, Note_on_c, 0, 47, 64
2, 34206, Note_on_c, 0, 71, 64
2, 34566, Note_off_c, 0, 71, 64
2, 34566, Note_off_c, 0, 47, 64
2, 34566, Note_on_c, 0, 78, 64
2, 34626, Note_on_c, 0, 59, 64
2, 34686, Note_off_c, 0, 59, 64
2, 34686, Note_on_c, 0, 57, 64
2, 34746, Note_off_c, 0, 57, 64
2, 34746, Note_on_c, 0, 55, 64
2, 34806, Note_off_c, 0, 55, 64
2, 34806, Note_on_c, 0, 54, 64
2, 34866, Note_off_c, 0, 54, 64
2, 34866, Note_on_c, 0, 57, 64
2, 34926, Note_off_c, 0, 57, 64
2, 34926, Note_on_c, 0, 55, 64
2, 34986, Note_off_c, 0, 55, 64
2, 34986, Note_on_c, 0, 59, 64
2, 35046, Note_off_c, 0, 59, 64
2, 35046, Note_off_c, 0, 78, 64
2, 35046, Note_on_c, 0, 76, 64
2, 35046, Note_on_c, 0, 61, 64
2, 35106, Note_off_c, 0, 61, 64
2, 35106, Note_off_c, 0, 76, 64
2, 35106, Note_on_c, 0, 78, 64
2, 35106, Note_on_c, 0, 62, 64
2, 35166, Note_off_c, 0, 62, 64
2, 35166, Note_off_c, 0, 78, 64
2, 35166, Note_on_c, 0, 79, 64
2, 35166, Note_on_c, 0, 64, 64
2, 35226, Note_off_c, 0, 64, 64
2, 35226, Note_on_c, 0, 57, 64
2, 35286, Note_off_c, 0, 57, 64
2, 35286, Note_off_c, 0, 79, 64
2, 35286, Note_on_c, 0, 78, 64
2, 35286, Note_on_c, 0, 62, 64
2, 35346, Note_off_c, 0, 62, 64
2, 35346, Note_on_c, 0, 55, 64
2, 35396, Note_off_c, 0, 78, 64
2, 35409, Note_off_c, 0, 55, 64
2, 35409, Note_on_c, 0, 78, 64
2, 35409, Note_on_c, 0, 57, 64
2, 35424, Note_off_c, 0, 78, 57
2, 35424, Note_on_c, 0, 76, 64
2, 35439, Note_off_c, 0, 76, 23
2, 35439, Note_on_c, 0, 78, 64
2, 35454, Note_off_c, 0, 78, 61
2, 35454, Note_on_c, 0, 76, 64
2, 35469, Note_off_c, 0, 76, 34
2, 35469, Note_off_c, 0, 57, 64
2, 35469, Note_on_c, 0, 78, 64
2, 35469, Note_on_c, 0, 59, 64
2, 35484, Note_off_c, 0, 78, 50
2, 35484, Note_on_c, 0, 76, 64
2, 35484, Note_on_c, 0, 76, 64
2, 35499, Note_off_c, 0, 76, 52
2, 35529, Note_off_c, 0, 76, 64
2, 35529, Note_off_c, 0, 59, 64
2, 35529, Note_on_c, 0, 69, 64
2, 35529, Note_on_c, 0, 60, 64
2, 35589, Note_off_c, 0, 60, 64
2, 35589, Note_on_c, 0, 54, 64
2, 35649, Note_off_c, 0, 54, 64
2, 35649, Note_off_c, 0, 69, 64
2, 35649, Note_on_c, 0, 74, 64
2, 35649, Note_on_c, 0, 59, 64
2, 35709, Note_off_c, 0, 59, 64
2, 35709, Note_on_c, 0, 52, 64
2, 35769, Note_off_c, 0, 52, 64
2, 35769, Note_off_c, 0, 74, 64
2, 35769, Note_on_c, 0, 72, 64
2, 35769, Note_on_c, 0, 54, 64
2, 35829, Note_off_c, 0, 54, 64
2, 35829, Note_off_c, 0, 72, 64
2, 35829, Note_on_c, 0, 71, 64
2, 35829, Note_on_c, 0, 55, 64
2, 35889, Note_off_c, 0, 55, 64
2, 35889, Note_off_c, 0, 71, 64
2, 35889, Note_on_c, 0, 72, 64
2, 35889, Note_on_c, 0, 57, 64
2, 35949, Note_off_c, 0, 57, 64
2, 35949, Note_on_c, 0, 51, 64
2, 36009, Note_off_c, 0, 51, 64
2, 36009, Note_on_c, 0, 55, 64
2, 36069, Note_off_c, 0, 72, 64
2, 36069, Note_on_c, 0, 71, 64
2, 36129, Note_off_c, 0, 71, 64
2, 36129, Note_off_c, 0, 55, 64
2, 36129, Note_on_c, 0, 69, 64
2, 36129, Note_on_c, 0, 57, 64
2, 36189, Note_off_c, 0, 69, 64
2, 36189, Note_on_c, 0, 67, 64
2, 36249, Note_off_c, 0, 67, 64
2, 36249, Note_off_c, 0, 57, 64
2, 36249, Note_on_c, 0, 59, 64
2, 36249, Note_on_c, 0, 66, 64
2, 36309, Note_off_c, 0, 66, 64
2, 36309, Note_on_c, 0, 69, 64
2, 36369, Note_off_c, 0, 69, 64
2, 36369, Note_off_c, 0, 59, 64
2, 36369, Note_on_c, 0, 67, 64
2, 36369, Note_on_c, 0, 52, 64
2, 36429, Note_off_c, 0, 67, 64
2, 36429, Note_on_c, 0, 71, 64
2, 36489, Note_off_c, 0, 71, 64
2, 36489, Note_off_c, 0, 52, 64
2, 36489, Note_on_c, 0, 72, 64
2, 36489, Note_on_c, 0, 50, 64
2, 36549, Note_off_c, 0, 72, 64
2, 36549, Note_on_c, 0, 74, 64
2, 36609, Note_off_c, 0, 74, 64
2, 36609, Note_off_c, 0, 50, 64
2, 36609, Note_on_c, 0, 48, 64
2, 36609, Note_on_c, 0, 76, 64
2, 36669, Note_off_c, 0, 76, 64
2, 36669, Note_on_c, 0, 69, 64
2, 36729, Note_off_c, 0, 69, 64
2, 36729, Note_off_c, 0, 48, 64
2, 36729, Note_on_c, 0, 74, 64
2, 36729, Note_on_c, 0, 47, 64
2, 36789, Note_off_c, 0, 74, 64
2, 36789, Note_on_c, 0, 68, 64
2, 36849, Note_off_c, 0, 68, 64
2, 36849, Note_off_c, 0, 47, 64
2, 36849, Note_on_c, 0, 69, 64
2, 36849, Note_on_c, 0, 40, 64
2, 36909, Note_off_c, 0, 69, 64
2, 36909, Note_on_c, 0, 71, 64
2, 36969, Note_off_c, 0, 71, 64
2, 36969, Note_off_c, 0, 40, 64
2, 36969, Note_on_c, 0, 45, 64
2, 36969, Note_on_c, 0, 72, 64
2, 37029, Note_off_c, 0, 72, 64
2, 37029, Note_on_c, 0, 66, 64
2, 37089, Note_off_c, 0, 66, 64
2, 37089, Note_off_c, 0, 45, 64
2, 37089, Note_on_c, 0, 71, 64
2, 37089, Note_on_c, 0, 38, 64
2, 37149, Note_off_c, 0, 38, 64
2, 37149, Note_off_c, 0, 71, 64
2, 37149, Note_on_c, 0, 64, 64
2, 37149, Note_on_c, 0, 36, 64
2, 37209, Note_off_c, 0, 36, 64
2, 37209, Note_off_c, 0, 64, 64
2, 37209, Note_on_c, 0, 66, 64
2, 37209, Note_on_c, 0, 38, 64
2, 37269, Note_off_c, 0, 38, 64
2, 37269, Note_off_c, 0, 66, 64
2, 37269, Note_on_c, 0, 68, 64
2, 37269, Note_on_c, 0, 40, 64
2, 37329, Note_off_c, 0, 40, 64
2, 37329, Note_off_c, 0, 68, 64
2, 37329, Note_on_c, 0, 41, 64
2, 37329, Note_on_c, 0, 69, 64
2, 37389, Note_off_c, 0, 69, 64
2, 37389, Note_on_c, 0, 63, 64
2, 37449, Note_off_c, 0, 63, 64
2, 37449, Note_off_c, 0, 41, 64
2, 37449, Note_on_c, 0, 68, 64
2, 37449, Note_on_c, 0, 40, 64
2, 37509, Note_off_c, 0, 40, 64
2, 37509, Note_on_c, 0, 52, 64
2, 37569, Note_off_c, 0, 52, 64
2, 37569, Note_off_c, 0, 68, 64
2, 37569, Note_on_c, 0, 71, 64
2, 37569, Note_on_c, 0, 50, 64
2, 37589, Note_off_c, 0, 71, 64
2, 37589, Note_on_c, 0, 69, 64
2, 37609, Note_off_c, 0, 69, 64
2, 37609, Note_on_c, 0, 68, 64
2, 37629, Note_off_c, 0, 68, 64
2, 37629, Note_off_c, 0, 50, 64
2, 37629, Note_on_c, 0, 69, 64
2, 37629, Note_on_c, 0, 48, 64
2, 37689, Note_off_c, 0, 48, 64
2, 37689, Note_off_c, 0, 69, 64
2, 37689, Note_on_c, 0, 71, 64
2, 37689, Note_on_c, 0, 47, 64
2, 37749, Note_off_c, 0, 47, 64
2, 37749, Note_on_c, 0, 50, 64
2, 37809, Note_off_c, 0, 50, 64
2, 37809, Note_off_c, 0, 71, 64
2, 37809, Note_on_c, 0, 64, 64
2, 37809, Note_on_c, 0, 48, 64
2, 37869, Note_off_c, 0, 64, 64
2, 37869, Note_on_c, 0, 76, 64
2, 37929, Note_off_c, 0, 76, 64
2, 37929, Note_off_c, 0, 48, 64
2, 37929, Note_on_c, 0, 52, 64
2, 37929, Note_on_c, 0, 74, 64
2, 37949, Note_off_c, 0, 52, 64
2, 37949, Note_on_c, 0, 50, 64
2, 37969, Note_off_c, 0, 50, 64
2, 37969, Note_on_c, 0, 48, 64
2, 37989, Note_off_c, 0, 48, 64
2, 37989, Note_off_c, 0, 74, 64
2, 37989, Note_on_c, 0, 50, 64
2, 37989, Note_on_c, 0, 72, 64
2, 38049, Note_off_c, 0, 72, 64
2, 38049, Note_off_c, 0, 50, 64
2, 38049, Note_on_c, 0, 52, 64
2, 38049, Note_on_c, 0, 71, 64
2, 38109, Note_off_c, 0, 71, 64
2, 38109, Note_on_c, 0, 74, 64
2, 38169, Note_off_c, 0, 74, 64
2, 38169, Note_off_c, 0, 52, 64
2, 38169, Note_on_c, 0, 72, 64
2, 38169, Note_on_c, 0, 45, 64
2, 38229, Note_off_c, 0, 45, 64
2, 38229, Note_on_c, 0, 57, 64
2, 38289, Note_off_c, 0, 57, 64
2, 38289, Note_off_c, 0, 72, 64
2, 38289, Note_on_c, 0, 76, 64
2, 38289, Note_on_c, 0, 55, 64
2, 38309, Note_off_c, 0, 76, 64
2, 38309, Note_on_c, 0, 74, 64
2, 38329, Note_off_c, 0, 74, 64
2, 38329, Note_on_c, 0, 72, 64
2, 38349, Note_off_c, 0, 72, 64
2, 38349, Note_off_c, 0, 55, 64
2, 38349, Note_on_c, 0, 74, 64
2, 38349, Note_on_c, 0, 53, 64
2, 38409, Note_off_c, 0, 53, 64
2, 38409, Note_off_c, 0, 74, 64
2, 38409, Note_on_c, 0, 76, 64
2, 38409, Note_on_c, 0, 52, 64
2, 38469, Note_off_c, 0, 52, 64
2, 38469, Note_on_c, 0, 55, 64
2, 38529, Note_off_c, 0, 55, 64
2, 38529, Note_off_c, 0, 76, 64
2, 38529, Note_on_c, 0, 69, 64
2, 38529, Note_on_c, 0, 53, 64
2, 38589, Note_off_c, 0, 69, 64
2, 38589, Note_on_c, 0, 81, 64
2, 38649, Note_off_c, 0, 81, 64
2, 38649, Note_off_c, 0, 53, 64
2, 38649, Note_on_c, 0, 79, 64
2, 38649, Note_on_c, 0, 55, 64
2, 38709, Note_off_c, 0, 79, 64
2, 38709, Note_on_c, 0, 77, 64
2, 38769, Note_off_c, 0, 77, 64
2, 38769, Note_off_c, 0, 55, 64
2, 38769, Note_on_c, 0, 57, 64
2, 38769, Note_on_c, 0, 76, 64
2, 38829, Note_off_c, 0, 76, 64
2, 38829, Note_on_c, 0, 79, 64
2, 38889, Note_off_c, 0, 79, 64
2, 38889, Note_off_c, 0, 57, 64
2, 38889, Note_on_c, 0, 77, 64
2, 38889, Note_on_c, 0, 50, 64
2, 38949, Note_off_c, 0, 50, 64
2, 38949, Note_on_c, 0, 62, 64
2, 39009, Note_off_c, 0, 62, 64
2, 39009, Note_off_c, 0, 77, 64
2, 39009, Note_on_c, 0, 79, 64
2, 39009, Note_on_c, 0, 60, 64
2, 39069, Note_off_c, 0, 60, 64
2, 39069, Note_on_c, 0, 59, 64
2, 39129, Note_off_c, 0, 59, 64
2, 39129, Note_off_c, 0, 79, 64
2, 39129, Note_on_c, 0, 81, 64
2, 39129, Note_on_c, 0, 57, 64
2, 39189, Note_off_c, 0, 57, 64
2, 39189, Note_on_c, 0, 60, 64
2, 39249, Note_off_c, 0, 60, 64
2, 39249, Note_on_c, 0, 59, 64
2, 39309, Note_off_c, 0, 81, 64
2, 39309, Note_on_c, 0, 74, 64
2, 39369, Note_off_c, 0, 74, 64
2, 39369, Note_off_c, 0, 59, 64
2, 39369, Note_on_c, 0, 72, 64
2, 39369, Note_on_c, 0, 60, 64
2, 39429, Note_off_c, 0, 72, 64
2, 39429, Note_on_c, 0, 71, 64
2, 39489, Note_off_c, 0, 71, 64
2, 39489, Note_off_c, 0, 60, 64
2, 39489, Note_on_c, 0, 62, 64
2, 39489, Note_on_c, 0, 69, 64
2, 39549, Note_off_c, 0, 69, 64
2, 39549, Note_on_c, 0, 72, 64
2, 39609, Note_off_c, 0, 72, 64
2, 39609, Note_off_c, 0, 62, 64
2, 39609, Note_on_c, 0, 71, 64
2, 39669, Note_on_c, 0, 55, 64
2, 39729, Note_off_c, 0, 55, 64
2, 39729, Note_off_c, 0, 71, 64
2, 39729, Note_on_c, 0, 72, 64
2, 39729, Note_on_c, 0, 53, 64
2, 39789, Note_off_c, 0, 53, 64
2, 39789, Note_on_c, 0, 52, 64
2, 39849, Note_off_c, 0, 52, 64
2, 39849, Note_off_c, 0, 72, 64
2, 39849, Note_on_c, 0, 74, 64
2, 39849, Note_on_c, 0, 50, 64
2, 39909, Note_off_c, 0, 50, 64
2, 39909, Note_on_c, 0, 53, 64
2, 39969, Note_off_c, 0, 53, 64
2, 39969, Note_on_c, 0, 43, 64
2, 40029, Note_off_c, 0, 43, 64
2, 40029, Note_off_c, 0, 74, 64
2, 40029, Note_on_c, 0, 67, 64
2, 40029, Note_on_c, 0, 53, 64
2, 40089, Note_off_c, 0, 53, 64
2, 40089, Note_off_c, 0, 67, 64
2, 40089, Note_on_c, 0, 72, 64
2, 40089, Note_on_c, 0, 52, 64
2, 40149, Note_off_c, 0, 52, 64
2, 40149, Note_off_c, 0, 72, 64
2, 40149, Note_on_c, 0, 74, 64
2, 40149, Note_on_c, 0, 50, 64
2, 40209, Note_off_c, 0, 50, 64
2, 40209, Note_off_c, 0, 74, 64
2, 40209, Note_on_c, 0, 76, 64
2, 40209, Note_on_c, 0, 48, 64
2, 40269, Note_off_c, 0, 48, 64
2, 40269, Note_on_c, 0, 52, 64
2, 40329, Note_off_c, 0, 52, 64
2, 40329, Note_on_c, 0, 43, 64
2, 40389, Note_off_c, 0, 43, 64
2, 40389, Note_off_c, 0, 76, 64
2, 40389, Note_on_c, 0, 72, 64
2, 40389, Note_on_c, 0, 52, 64
2, 40449, Note_off_c, 0, 52, 64
2, 40449, Note_off_c, 0, 72, 64
2, 40449, Note_on_c, 0, 74, 64
2, 40449, Note_on_c, 0, 50, 64
2, 40509, Note_off_c, 0, 50, 64
2, 40509, Note_off_c, 0, 74, 64
2, 40509, Note_on_c, 0, 76, 64
2, 40509, Note_on_c, 0, 48, 64
2, 40569, Note_off_c, 0, 48, 64
2, 40569, Note_off_c, 0, 76, 64
2, 40569, Note_on_c, 0, 77, 64
2, 40569, Note_on_c, 0, 47, 64
2, 40629, Note_off_c, 0, 47, 64
2, 40629, Note_on_c, 0, 50, 64
2, 40689, Note_off_c, 0, 50, 64
2, 40689, Note_on_c, 0, 43, 64
2, 40749, Note_off_c, 0, 77, 64
2, 40749, Note_on_c, 0, 79, 64
2, 40809, Note_off_c, 0, 79, 64
2, 40809, Note_off_c, 0, 43, 64
2, 40809, Note_on_c, 0, 77, 64
2, 40809, Note_on_c, 0, 45, 64
2, 40869, Note_off_c, 0, 77, 64
2, 40869, Note_on_c, 0, 76, 64
2, 40929, Note_off_c, 0, 76, 64
2, 40929, Note_off_c, 0, 45, 64
2, 40929, Note_on_c, 0, 47, 64
2, 40929, Note_on_c, 0, 74, 64
2, 40989, Note_off_c, 0, 74, 64
2, 40989, Note_on_c, 0, 77, 64
2, 41049, Note_off_c, 0, 77, 64
2, 41049, Note_off_c, 0, 47, 64
2, 41049, Note_on_c, 0, 76, 64
2, 41049, Note_on_c, 0, 48, 64
2, 41109, Note_off_c, 0, 48, 64
2, 41109, Note_off_c, 0, 76, 64
2, 41109, Note_on_c, 0, 64, 64
2, 41109, Note_on_c, 0, 62, 64
2, 41169, Note_off_c, 0, 62, 64
2, 41169, Note_off_c, 0, 64, 64
2, 41169, Note_on_c, 0, 66, 64
2, 41169, Note_on_c, 0, 60, 64
2, 41229, Note_off_c, 0, 60, 64
2, 41229, Note_off_c, 0, 66, 64
2, 41229, Note_on_c, 0, 68, 64
2, 41229, Note_on_c, 0, 59, 64
2, 41289, Note_off_c, 0, 59, 64
2, 41289, Note_off_c, 0, 68, 64
2, 41289, Note_on_c, 0, 69, 64
2, 41289, Note_on_c, 0, 57, 64
2, 41349, Note_off_c, 0, 57, 64
2, 41349, Note_off_c, 0, 69, 64
2, 41349, Note_on_c, 0, 60, 64
2, 41349, Note_on_c, 0, 66, 64
2, 41409, Note_off_c, 0, 66, 64
2, 41409, Note_off_c, 0, 60, 64
2, 41409, Note_on_c, 0, 74, 64
2, 41409, Note_on_c, 0, 47, 64
2, 41469, Note_off_c, 0, 47, 64
2, 41469, Note_off_c, 0, 74, 64
2, 41469, Note_on_c, 0, 66, 64
2, 41469, Note_on_c, 0, 60, 64
2, 41529, Note_off_c, 0, 60, 64
2, 41529, Note_off_c, 0, 66, 64
2, 41529, Note_on_c, 0, 68, 64
2, 41529, Note_on_c, 0, 59, 64
2, 41589, Note_off_c, 0, 59, 64
2, 41589, Note_off_c, 0, 68, 64
2, 41589, Note_on_c, 0, 69, 64
2, 41589, Note_on_c, 0, 57, 64
2, 41649, Note_off_c, 0, 57, 64
2, 41649, Note_off_c, 0, 69, 64
2, 41649, Note_on_c, 0, 71, 64
2, 41649, Note_on_c, 0, 56, 64
2, 41709, Note_off_c, 0, 56, 64
2, 41709, Note_off_c, 0, 71, 64
2, 41709, Note_on_c, 0, 59, 64
2, 41709, Note_on_c, 0, 68, 64
2, 41769, Note_off_c, 0, 68, 64
2, 41769, Note_off_c, 0, 59, 64
2, 41769, Note_on_c, 0, 72, 64
2, 41769, Note_on_c, 0, 45, 64
2, 41829, Note_off_c, 0, 45, 64
2, 41829, Note_off_c, 0, 72, 64
2, 41829, Note_on_c, 0, 68, 64
2, 41829, Note_on_c, 0, 59, 64
2, 41889, Note_off_c, 0, 59, 64
2, 41889, Note_off_c, 0, 68, 64
2, 41889, Note_on_c, 0, 69, 64
2, 41889, Note_on_c, 0, 57, 64
2, 41949, Note_off_c, 0, 57, 64
2, 41949, Note_off_c, 0, 69, 64
2, 41949, Note_on_c, 0, 71, 64
2, 41949, Note_on_c, 0, 56, 64
2, 42009, Note_off_c, 0, 56, 64
2, 42009, Note_off_c, 0, 71, 64
2, 42009, Note_on_c, 0, 72, 64
2, 42009, Note_on_c, 0, 54, 64
2, 42069, Note_off_c, 0, 54, 64
2, 42069, Note_off_c, 0, 72, 64
2, 42069, Note_on_c, 0, 57, 64
2, 42069, Note_on_c, 0, 69, 64
2, 42129, Note_off_c, 0, 69, 64
2, 42129, Note_off_c, 0, 57, 64
2, 42129, Note_on_c, 0, 72, 64
2, 42129, Note_on_c, 0, 51, 64
2, 42189, Note_off_c, 0, 72, 64
2, 42189, Note_on_c, 0, 71, 64
2, 42249, Note_off_c, 0, 71, 64
2, 42249, Note_off_c, 0, 51, 64
2, 42249, Note_on_c, 0, 69, 64
2, 42249, Note_on_c, 0, 52, 64
2, 42309, Note_off_c, 0, 69, 64
2, 42309, Note_on_c, 0, 68, 64
2, 42369, Note_off_c, 0, 68, 64
2, 42369, Note_off_c, 0, 52, 64
2, 42369, Note_on_c, 0, 53, 64
2, 42369, Note_on_c, 0, 69, 64
2, 42489, Note_off_c, 0, 53, 64
2, 42489, Note_on_c, 0, 52, 64
2, 42549, Note_off_c, 0, 52, 64
2, 42549, Note_off_c, 0, 69, 64
2, 42549, Note_on_c, 0, 71, 64
2, 42549, Note_on_c, 0, 50, 64
2, 42609, Note_off_c, 0, 50, 64
2, 42609, Note_off_c, 0, 71, 64
2, 42609, Note_on_c, 0, 71, 64
2, 42609, Note_on_c, 0, 52, 64
2, 42729, Note_off_c, 0, 52, 64
2, 42729, Note_on_c, 0, 40, 64
2, 42789, Note_off_c, 0, 71, 64
2, 42789, Note_on_c, 0, 69, 64
2, 42849, Note_off_c, 0, 69, 64
2, 42849, Note_off_c, 0, 40, 64
2, 42849, Note_on_c, 0, 69, 64
2, 42849, Note_on_c, 0, 45, 64
2, 42909, Note_off_c, 0, 45, 64
2, 42909, Note_on_c, 0, 57, 64
2, 42969, Note_off_c, 0, 57, 64
2, 42969, Note_on_c, 0, 55, 64
2, 43029, Note_off_c, 0, 55, 64
2, 43029, Note_on_c, 0, 54, 64
2, 43089, Note_off_c, 0, 54, 64
2, 43089, Note_on_c, 0, 52, 64
2, 43149, Note_off_c, 0, 52, 64
2, 43149, Note_on_c, 0, 55, 64
2, 43209, Note_off_c, 0, 55, 64
2, 43209, Note_off_c, 0, 69, 64
2, 43209, Note_on_c, 0, 54, 64
2, 43269, Note_on_c, 0, 74, 64
2, 43329, Note_off_c, 0, 74, 64
2, 43329, Note_off_c, 0, 54, 64
2, 43329, Note_on_c, 0, 72, 64
2, 43329, Note_on_c, 0, 50, 64
2, 43389, Note_off_c, 0, 72, 64
2, 43389, Note_on_c, 0, 71, 64
2, 43449, Note_off_c, 0, 71, 64
2, 43449, Note_off_c, 0, 50, 64
2, 43449, Note_on_c, 0, 54, 64
2, 43449, Note_on_c, 0, 69, 64
2, 43509, Note_off_c, 0, 69, 64
2, 43509, Note_on_c, 0, 72, 64
2, 43569, Note_off_c, 0, 72, 64
2, 43569, Note_off_c, 0, 54, 64
2, 43569, Note_on_c, 0, 71, 64
2, 43569, Note_on_c, 0, 55, 64
2, 43629, Note_off_c, 0, 71, 64
2, 43629, Note_on_c, 0, 74, 64
2, 43689, Note_off_c, 0, 74, 64
2, 43689, Note_off_c, 0, 55, 64
2, 43689, Note_on_c, 0, 76, 64
2, 43689, Note_on_c, 0, 54, 64
2, 43749, Note_off_c, 0, 76, 64
2, 43749, Note_on_c, 0, 78, 64
2, 43809, Note_off_c, 0, 78, 64
2, 43809, Note_off_c, 0, 54, 64
2, 43809, Note_on_c, 0, 52, 64
2, 43809, Note_on_c, 0, 79, 64
2, 43869, Note_off_c, 0, 79, 64
2, 43869, Note_on_c, 0, 73, 64
2, 43929, Note_off_c, 0, 73, 64
2, 43929, Note_off_c, 0, 52, 64
2, 43929, Note_on_c, 0, 78, 64
2, 43929, Note_on_c, 0, 50, 64
2, 43989, Note_off_c, 0, 50, 64
2, 43989, Note_off_c, 0, 78, 64
2, 43989, Note_on_c, 0, 71, 64
2, 43989, Note_on_c, 0, 55, 64
2, 44049, Note_off_c, 0, 55, 64
2, 44049, Note_off_c, 0, 71, 64
2, 44049, Note_on_c, 0, 72, 64
2, 44049, Note_on_c, 0, 57, 64
2, 44109, Note_off_c, 0, 57, 64
2, 44109, Note_off_c, 0, 72, 64
2, 44109, Note_on_c, 0, 74, 64
2, 44109, Note_on_c, 0, 59, 64
2, 44169, Note_off_c, 0, 59, 64
2, 44169, Note_off_c, 0, 74, 64
2, 44169, Note_on_c, 0, 60, 64
2, 44169, Note_on_c, 0, 76, 64
2, 44229, Note_off_c, 0, 76, 64
2, 44229, Note_on_c, 0, 69, 64
2, 44289, Note_off_c, 0, 69, 64
2, 44289, Note_on_c, 0, 74, 64
2, 44349, Note_off_c, 0, 74, 64
2, 44349, Note_off_c, 0, 60, 64
2, 44349, Note_on_c, 0, 67, 64
2, 44349, Note_on_c, 0, 59, 64
2, 44409, Note_off_c, 0, 59, 64
2, 44409, Note_off_c, 0, 67, 64
2, 44409, Note_on_c, 0, 69, 64
2, 44409, Note_on_c, 0, 57, 64
2, 44469, Note_off_c, 0, 57, 64
2, 44469, Note_off_c, 0, 69, 64
2, 44469, Note_on_c, 0, 71, 64
2, 44469, Note_on_c, 0, 55, 64
2, 44529, Note_off_c, 0, 55, 64
2, 44529, Note_off_c, 0, 71, 64
2, 44529, Note_on_c, 0, 57, 64
2, 44529, Note_on_c, 0, 72, 64
2, 44589, Note_off_c, 0, 72, 64
2, 44589, Note_on_c, 0, 66, 64
2, 44649, Note_off_c, 0, 66, 64
2, 44649, Note_on_c, 0, 71, 64
2, 44709, Note_off_c, 0, 57, 64
2, 44709, Note_on_c, 0, 59, 64
2, 44769, Note_off_c, 0, 59, 64
2, 44769, Note_off_c, 0, 71, 64
2, 44769, Note_on_c, 0, 73, 64
2, 44769, Note_on_c, 0, 57, 64
2, 44789, Note_off_c, 0, 73, 58
2, 44789, Note_on_c, 0, 75, 64
2, 44809, Note_off_c, 0, 75, 50
2, 44809, Note_on_c, 0, 76, 64
2, 44829, Note_off_c, 0, 76, 46
2, 44829, Note_off_c, 0, 57, 64
2, 44829, Note_on_c, 0, 75, 64
2, 44829, Note_on_c, 0, 55, 64
2, 44849, Note_off_c, 0, 75, 43
2, 44849, Note_on_c, 0, 76, 64
2, 44869, Note_off_c, 0, 76, 50
2, 44869, Note_on_c, 0, 75, 64
2, 44889, Note_off_c, 0, 75, 44
2, 44889, Note_off_c, 0, 55, 64
2, 44889, Note_on_c, 0, 76, 64
2, 44889, Note_on_c, 0, 54, 64
2, 44909, Note_off_c, 0, 76, 51
2, 44909, Note_on_c, 0, 75, 64
2, 44949, Note_off_c, 0, 75, 46
2, 44949, Note_off_c, 0, 54, 64
2, 44949, Note_on_c, 0, 57, 64
2, 44949, Note_on_c, 0, 73, 64
2, 44979, Note_off_c, 0, 73, 64
2, 44979, Note_on_c, 0, 75, 64
2, 45009, Note_off_c, 0, 75, 64
2, 45009, Note_off_c, 0, 57, 64
2, 45009, Note_on_c, 0, 76, 64
2, 45009, Note_on_c, 0, 55, 64
2, 45069, Note_off_c, 0, 55, 64
2, 45069, Note_on_c, 0, 59, 64
2, 45129, Note_off_c, 0, 59, 64
2, 45129, Note_off_c, 0, 76, 64
2, 45129, Note_on_c, 0, 79, 64
2, 45129, Note_on_c, 0, 61, 64
2, 45145, Note_on_c, 0, 78, 64
2, 45149, Note_off_c, 0, 79, 64
2, 45165, Note_off_c, 0, 78, 64
2, 45169, Note_on_c, 0, 76, 64
2, 45189, Note_off_c, 0, 76, 64
2, 45189, Note_off_c, 0, 61, 64
2, 45189, Note_on_c, 0, 78, 64
2, 45189, Note_on_c, 0, 63, 64
2, 45249, Note_off_c, 0, 63, 64
2, 45249, Note_off_c, 0, 78, 64
2, 45249, Note_on_c, 0, 79, 64
2, 45249, Note_on_c, 0, 64, 64
2, 45309, Note_off_c, 0, 64, 64
2, 45309, Note_on_c, 0, 57, 64
2, 45369, Note_off_c, 0, 57, 64
2, 45369, Note_on_c, 0, 62, 64
2, 45429, Note_off_c, 0, 62, 64
2, 45429, Note_off_c, 0, 79, 64
2, 45429, Note_on_c, 0, 78, 64
2, 45429, Note_on_c, 0, 55, 64
2, 45489, Note_off_c, 0, 55, 64
2, 45489, Note_off_c, 0, 78, 64
2, 45489, Note_on_c, 0, 76, 64
2, 45489, Note_on_c, 0, 57, 64
2, 45549, Note_off_c, 0, 57, 64
2, 45549, Note_off_c, 0, 76, 64
2, 45549, Note_on_c, 0, 75, 64
2, 45549, Note_on_c, 0, 59, 64
2, 45609, Note_off_c, 0, 59, 64
2, 45609, Note_off_c, 0, 75, 64
2, 45609, Note_on_c, 0, 76, 64
2, 45609, Note_on_c, 0, 60, 64
2, 45669, Note_off_c, 0, 60, 64
2, 45669, Note_on_c, 0, 54, 64
2, 45729, Note_off_c, 0, 54, 64
2, 45729, Note_on_c, 0, 59, 64
2, 45789, Note_off_c, 0, 59, 64
2, 45789, Note_off_c, 0, 76, 64
2, 45789, Note_on_c, 0, 74, 64
2, 45789, Note_on_c, 0, 52, 64
2, 45849, Note_off_c, 0, 52, 64
2, 45849, Note_off_c, 0, 74, 64
2, 45849, Note_on_c, 0, 72, 64
2, 45849, Note_on_c, 0, 54, 64
2, 45909, Note_off_c, 0, 54, 64
2, 45909, Note_off_c, 0, 72, 64
2, 45909, Note_on_c, 0, 71, 64
2, 45909, Note_on_c, 0, 55, 64
2, 45969, Note_off_c, 0, 55, 64
2, 45969, Note_off_c, 0, 71, 64
2, 45969, Note_on_c, 0, 72, 64
2, 45969, Note_on_c, 0, 57, 64
2, 46029, Note_off_c, 0, 57, 64
2, 46029, Note_off_c, 0, 72, 64
2, 46029, Note_on_c, 0, 81, 64
2, 46029, Note_on_c, 0, 50, 64
2, 46089, Note_off_c, 0, 50, 64
2, 46089, Note_off_c, 0, 81, 64
2, 46089, Note_on_c, 0, 71, 64
2, 46089, Note_on_c, 0, 55, 64
2, 46149, Note_off_c, 0, 55, 64
2, 46149, Note_off_c, 0, 71, 64
2, 46149, Note_on_c, 0, 62, 64
2, 46149, Note_on_c, 0, 54, 64
2, 46209, Note_off_c, 0, 54, 64
2, 46209, Note_off_c, 0, 62, 64
2, 46209, Note_on_c, 0, 64, 64
2, 46209, Note_on_c, 0, 55, 64
2, 46269, Note_off_c, 0, 55, 64
2, 46269, Note_off_c, 0, 64, 64
2, 46269, Note_on_c, 0, 66, 64
2, 46269, Note_on_c, 0, 57, 64
2, 46329, Note_off_c, 0, 57, 64
2, 46329, Note_off_c, 0, 66, 64
2, 46329, Note_on_c, 0, 67, 64
2, 46329, Note_on_c, 0, 59, 64
2, 46389, Note_off_c, 0, 59, 64
2, 46389, Note_on_c, 0, 61, 64
2, 46449, Note_off_c, 0, 61, 64
2, 46449, Note_on_c, 0, 62, 64
2, 46509, Note_off_c, 0, 62, 64
2, 46509, Note_off_c, 0, 67, 64
2, 46509, Note_on_c, 0, 66, 64
2, 46509, Note_on_c, 0, 57, 64
2, 46569, Note_off_c, 0, 57, 64
2, 46569, Note_off_c, 0, 66, 64
2, 46569, Note_on_c, 0, 68, 64
2, 46569, Note_on_c, 0, 59, 64
2, 46629, Note_off_c, 0, 59, 64
2, 46629, Note_off_c, 0, 68, 64
2, 46629, Note_on_c, 0, 69, 64
2, 46629, Note_on_c, 0, 60, 64
2, 46689, Note_off_c, 0, 60, 64
2, 46689, Note_off_c, 0, 69, 64
2, 46689, Note_on_c, 0, 62, 64
2, 46689, Note_on_c, 0, 71, 64
2, 46749, Note_off_c, 0, 71, 64
2, 46749, Note_on_c, 0, 68, 64
2, 46809, Note_off_c, 0, 68, 64
2, 46809, Note_on_c, 0, 69, 64
2, 46869, Note_off_c, 0, 69, 64
2, 46869, Note_off_c, 0, 62, 64
2, 46869, Note_on_c, 0, 64, 64
2, 46869, Note_on_c, 0, 61, 64
2, 46929, Note_off_c, 0, 61, 64
2, 46929, Note_off_c, 0, 64, 64
2, 46929, Note_on_c, 0, 66, 64
2, 46929, Note_on_c, 0, 63, 64
2, 46989, Note_off_c, 0, 63, 64
2, 46989, Note_off_c, 0, 66, 64
2, 46989, Note_on_c, 0, 67, 64
2, 46989, Note_on_c, 0, 64, 64
2, 47049, Note_off_c, 0, 64, 64
2, 47049, Note_off_c, 0, 67, 64
2, 47049, Note_on_c, 0, 69, 64
2, 47049, Note_on_c, 0, 66, 64
2, 47109, Note_off_c, 0, 66, 64
2, 47109, Note_on_c, 0, 63, 64
2, 47169, Note_off_c, 0, 63, 64
2, 47169, Note_on_c, 0, 64, 64
2, 47229, Note_off_c, 0, 64, 64
2, 47229, Note_off_c, 0, 69, 64
2, 47229, Note_on_c, 0, 67, 64
2, 47229, Note_on_c, 0, 52, 64
2, 47289, Note_off_c, 0, 52, 64
2, 47289, Note_off_c, 0, 67, 64
2, 47289, Note_on_c, 0, 69, 64
2, 47289, Note_on_c, 0, 54, 64
2, 47349, Note_off_c, 0, 54, 64
2, 47349, Note_off_c, 0, 69, 64
2, 47349, Note_on_c, 0, 71, 64
2, 47349, Note_on_c, 0, 55, 64
2, 47409, Note_off_c, 0, 55, 64
2, 47409, Note_off_c, 0, 71, 64
2, 47409, Note_on_c, 0, 72, 64
2, 47409, Note_on_c, 0, 57, 64
2, 47469, Note_off_c, 0, 57, 64
2, 47469, Note_off_c, 0, 72, 64
2, 47469, Note_on_c, 0, 69, 64
2, 47469, Note_on_c, 0, 54, 64
2, 47529, Note_off_c, 0, 54, 64
2, 47529, Note_off_c, 0, 69, 64
2, 47529, Note_on_c, 0, 71, 64
2, 47529, Note_on_c, 0, 55, 64
2, 47589, Note_off_c, 0, 71, 64
2, 47589, Note_on_c, 0, 75, 64
2, 47649, Note_off_c, 0, 75, 64
2, 47649, Note_off_c, 0, 55, 64
2, 47649, Note_on_c, 0, 76, 64
2, 47649, Note_on_c, 0, 54, 64
2, 47709, Note_off_c, 0, 76, 64
2, 47709, Note_on_c, 0, 78, 64
2, 47769, Note_off_c, 0, 78, 64
2, 47769, Note_off_c, 0, 54, 64
2, 47769, Note_on_c, 0, 52, 64
2, 47769, Note_on_c, 0, 79, 64
2, 47829, Note_off_c, 0, 79, 64
2, 47829, Note_on_c, 0, 76, 64
2, 47889, Note_off_c, 0, 76, 64
2, 47889, Note_off_c, 0, 52, 64
2, 47889, Note_on_c, 0, 61, 72
2, 47889, Note_on_c, 0, 78, 64
2, 47909, Note_off_c, 0, 61, 52
2, 47909, Note_on_c, 0, 59, 48
2, 47929, Note_on_c, 0, 61, 48
2, 47931, Note_off_c, 0, 59, 49
2, 47949, Note_off_c, 0, 78, 64
2, 47949, Note_on_c, 0, 59, 48
2, 47949, Note_on_c, 0, 76, 64
2, 47951, Note_off_c, 0, 61, 62
2, 47969, Note_on_c, 0, 61, 49
2, 47971, Note_off_c, 0, 59, 52
2, 47989, Note_on_c, 0, 59, 49
2, 47991, Note_off_c, 0, 61, 54
2, 48009, Note_off_c, 0, 76, 64
2, 48009, Note_on_c, 0, 61, 49
2, 48009, Note_on_c, 0, 75, 64
2, 48011, Note_off_c, 0, 59, 48
2, 48029, Note_on_c, 0, 59, 50
2, 48031, Note_off_c, 0, 61, 63
2, 48049, Note_on_c, 0, 61, 50
2, 48051, Note_off_c, 0, 59, 55
2, 48069, Note_off_c, 0, 75, 64
2, 48069, Note_on_c, 0, 59, 50
2, 48069, Note_on_c, 0, 73, 64
2, 48071, Note_off_c, 0, 61, 66
2, 48089, Note_on_c, 0, 61, 51
2, 48091, Note_off_c, 0, 59, 53
2, 48109, Note_on_c, 0, 59, 51
2, 48111, Note_off_c, 0, 61, 62
2, 48129, Note_off_c, 0, 73, 64
2, 48129, Note_on_c, 0, 61, 51
2, 48129, Note_on_c, 0, 71, 64
2, 48131, Note_off_c, 0, 59, 53
2, 48149, Note_on_c, 0, 59, 51
2, 48151, Note_off_c, 0, 61, 63
2, 48169, Note_on_c, 0, 61, 52
2, 48171, Note_off_c, 0, 59, 50
2, 48189, Note_off_c, 0, 71, 64
2, 48189, Note_on_c, 0, 59, 52
2, 48189, Note_on_c, 0, 69, 64
2, 48191, Note_off_c, 0, 61, 63
2, 48209, Note_on_c, 0, 61, 52
2, 48211, Note_off_c, 0, 59, 46
2, 48229, Note_on_c, 0, 59, 53
2, 48231, Note_off_c, 0, 61, 63
2, 48249, Note_off_c, 0, 69, 64
2, 48249, Note_on_c, 0, 61, 53
2, 48249, Note_on_c, 0, 67, 64
2, 48251, Note_off_c, 0, 59, 52
2, 48269, Note_on_c, 0, 59, 53
2, 48271, Note_off_c, 0, 61, 61
2, 48289, Note_on_c, 0, 61, 54
2, 48291, Note_off_c, 0, 59, 52
2, 48309, Note_off_c, 0, 67, 64
2, 48309, Note_on_c, 0, 59, 54
2, 48309, Note_on_c, 0, 71, 64
2, 48311, Note_off_c, 0, 61, 65
2, 48329, Note_on_c, 0, 61, 54
2, 48331, Note_off_c, 0, 59, 51
2, 48349, Note_on_c, 0, 59, 55
2, 48351, Note_off_c, 0, 61, 68
2, 48369, Note_off_c, 0, 71, 64
2, 48369, Note_on_c, 0, 61, 55
2, 48369, Note_on_c, 0, 73, 64
2, 48371, Note_off_c, 0, 59, 54
2, 48389, Note_on_c, 0, 59, 55
2, 48391, Note_off_c, 0, 61, 59
2, 48409, Note_on_c, 0, 61, 56
2, 48411, Note_off_c, 0, 59, 44
2, 48429, Note_off_c, 0, 73, 64
2, 48429, Note_on_c, 0, 59, 56
2, 48429, Note_on_c, 0, 75, 64
2, 48431, Note_off_c, 0, 61, 70
2, 48449, Note_on_c, 0, 61, 56
2, 48451, Note_off_c, 0, 59, 57
2, 48469, Note_on_c, 0, 59, 56
2, 48471, Note_off_c, 0, 61, 65
2, 48489, Note_off_c, 0, 75, 64
2, 48489, Note_on_c, 0, 61, 57
2, 48489, Note_on_c, 0, 76, 64
2, 48491, Note_off_c, 0, 59, 52
2, 48509, Note_on_c, 0, 59, 57
2, 48511, Note_off_c, 0, 61, 69
2, 48529, Note_on_c, 0, 61, 57
2, 48531, Note_off_c, 0, 59, 51
2, 48549, Note_off_c, 0, 76, 64
2, 48549, Note_on_c, 0, 59, 58
2, 48549, Note_on_c, 0, 73, 64
2, 48551, Note_off_c, 0, 61, 65
2, 48569, Note_on_c, 0, 61, 58
2, 48571, Note_off_c, 0, 59, 49
2, 48589, Note_on_c, 0, 59, 58
2, 48591, Note_off_c, 0, 61, 62
2, 48609, Note_off_c, 0, 73, 64
2, 48609, Note_on_c, 0, 61, 59
2, 48609, Note_on_c, 0, 75, 64
2, 48611, Note_off_c, 0, 59, 46
2, 48629, Note_on_c, 0, 59, 59
2, 48631, Note_off_c, 0, 61, 65
2, 48649, Note_on_c, 0, 61, 59
2, 48651, Note_off_c, 0, 59, 54
2, 48669, Note_off_c, 0, 75, 64
2, 48669, Note_on_c, 0, 59, 60
2, 48669, Note_on_c, 0, 73, 64
2, 48671, Note_off_c, 0, 61, 69
2, 48689, Note_on_c, 0, 61, 60
2, 48691, Note_off_c, 0, 59, 61
2, 48709, Note_on_c, 0, 59, 60
2, 48711, Note_off_c, 0, 61, 70
2, 48729, Note_off_c, 0, 73, 64
2, 48729, Note_on_c, 0, 61, 61
2, 48729, Note_on_c, 0, 71, 64
2, 48731, Note_off_c, 0, 59, 53
2, 48749, Note_on_c, 0, 59, 61
2, 48751, Note_off_c, 0, 61, 62
2, 48769, Note_on_c, 0, 61, 61
2, 48771, Note_off_c, 0, 59, 37
2, 48789, Note_off_c, 0, 71, 64
2, 48789, Note_on_c, 0, 59, 61
2, 48789, Note_on_c, 0, 69, 64
2, 48791, Note_off_c, 0, 61, 69
2, 48809, Note_on_c, 0, 61, 62
2, 48811, Note_off_c, 0, 59, 46
2, 48829, Note_on_c, 0, 59, 62
2, 48831, Note_off_c, 0, 61, 66
2, 48849, Note_off_c, 0, 69, 64
2, 48849, Note_on_c, 0, 61, 62
2, 48849, Note_on_c, 0, 67, 64
2, 48851, Note_off_c, 0, 59, 44
2, 48869, Note_on_c, 0, 59, 63
2, 48871, Note_off_c, 0, 61, 65
2, 48889, Note_on_c, 0, 61, 63
2, 48891, Note_off_c, 0, 59, 45
2, 48909, Note_off_c, 0, 67, 64
2, 48909, Note_on_c, 0, 59, 63
2, 48909, Note_on_c, 0, 66, 64
2, 48911, Note_off_c, 0, 61, 59
2, 48959, Note_off_c, 0, 66, 64
2, 48972, Note_on_c, 0, 66, 72
2, 48978, Note_off_c, 0, 59, 51
2, 48992, Note_off_c, 0, 66, 86
2, 48992, Note_on_c, 0, 64, 48
2, 49012, Note_on_c, 0, 66, 48
2, 49014, Note_off_c, 0, 64, 59
2, 49032, Note_on_c, 0, 64, 48
2, 49032, Note_on_c, 0, 56, 64
2, 49034, Note_off_c, 0, 66, 74
2, 49052, Note_on_c, 0, 66, 48
2, 49054, Note_off_c, 0, 64, 43
2, 49072, Note_on_c, 0, 64, 49
2, 49074, Note_off_c, 0, 66, 86
2, 49092, Note_off_c, 0, 56, 64
2, 49092, Note_on_c, 0, 66, 49
2, 49092, Note_on_c, 0, 57, 64
2, 49094, Note_off_c, 0, 64, 51
2, 49112, Note_on_c, 0, 64, 49
2, 49114, Note_off_c, 0, 66, 86
2, 49132, Note_on_c, 0, 66, 50
2, 49134, Note_off_c, 0, 64, 52
2, 49152, Note_off_c, 0, 57, 64
2, 49152, Note_on_c, 0, 64, 50
2, 49152, Note_on_c, 0, 59, 64
2, 49154, Note_off_c, 0, 66, 80
2, 49172, Note_on_c, 0, 66, 50
2, 49174, Note_off_c, 0, 64, 48
2, 49192, Note_on_c, 0, 64, 51
2, 49194, Note_off_c, 0, 66, 80
2, 49212, Note_off_c, 0, 59, 64
2, 49212, Note_on_c, 0, 66, 51
2, 49212, Note_on_c, 0, 60, 64
2, 49214, Note_off_c, 0, 64, 40
2, 49232, Note_on_c, 0, 64, 51
2, 49234, Note_off_c, 0, 66, 79
2, 49252, Note_on_c, 0, 66, 51
2, 49254, Note_off_c, 0, 64, 52
2, 49272, Note_off_c, 0, 60, 64
2, 49272, Note_on_c, 0, 64, 52
2, 49272, Note_on_c, 0, 57, 64
2, 49274, Note_off_c, 0, 66, 74
2, 49292, Note_on_c, 0, 66, 52
2, 49294, Note_off_c, 0, 64, 58
2, 49312, Note_on_c, 0, 64, 52
2, 49314, Note_off_c, 0, 66, 83
2, 49332, Note_off_c, 0, 57, 64
2, 49332, Note_on_c, 0, 66, 53
2, 49332, Note_on_c, 0, 59, 64
2, 49334, Note_off_c, 0, 64, 58
2, 49352, Note_on_c, 0, 64, 53
2, 49354, Note_off_c, 0, 66, 82
2, 49372, Note_on_c, 0, 66, 53
2, 49374, Note_off_c, 0, 64, 59
2, 49392, Note_off_c, 0, 59, 64
2, 49392, Note_on_c, 0, 64, 53
2, 49392, Note_on_c, 0, 57, 64
2, 49394, Note_off_c, 0, 66, 83
2, 49412, Note_on_c, 0, 66, 54
2, 49414, Note_off_c, 0, 64, 57
2, 49432, Note_on_c, 0, 64, 54
2, 49434, Note_off_c, 0, 66, 83
2, 49452, Note_off_c, 0, 57, 64
2, 49452, Note_on_c, 0, 66, 54
2, 49452, Note_on_c, 0, 56, 64
2, 49454, Note_off_c, 0, 64, 58
2, 49472, Note_on_c, 0, 64, 55
2, 49474, Note_off_c, 0, 66, 82
2, 49492, Note_on_c, 0, 66, 55
2, 49494, Note_off_c, 0, 64, 44
2, 49512, Note_off_c, 0, 56, 64
2, 49512, Note_on_c, 0, 64, 55
2, 49512, Note_on_c, 0, 54, 64
2, 49514, Note_off_c, 0, 66, 82
2, 49532, Note_on_c, 0, 66, 55
2, 49534, Note_off_c, 0, 64, 45
2, 49552, Note_on_c, 0, 64, 56
2, 49554, Note_off_c, 0, 66, 80
2, 49572, Note_off_c, 0, 54, 64
2, 49572, Note_on_c, 0, 66, 56
2, 49572, Note_on_c, 0, 52, 64
2, 49574, Note_off_c, 0, 64, 57
2, 49592, Note_on_c, 0, 64, 56
2, 49594, Note_off_c, 0, 66, 83
2, 49612, Note_on_c, 0, 66, 57
2, 49614, Note_off_c, 0, 64, 55
2, 49632, Note_off_c, 0, 52, 64
2, 49632, Note_on_c, 0, 64, 57
2, 49632, Note_on_c, 0, 50, 64
2, 49634, Note_off_c, 0, 66, 86
2, 49652, Note_on_c, 0, 66, 57
2, 49654, Note_off_c, 0, 64, 61
2, 49672, Note_on_c, 0, 64, 57
2, 49674, Note_off_c, 0, 66, 83
2, 49692, Note_off_c, 0, 50, 64
2, 49692, Note_on_c, 0, 66, 58
2, 49692, Note_on_c, 0, 48, 64
2, 49694, Note_off_c, 0, 64, 59
2, 49712, Note_on_c, 0, 64, 58
2, 49714, Note_off_c, 0, 66, 76
2, 49732, Note_on_c, 0, 66, 58
2, 49734, Note_off_c, 0, 64, 37
2, 49752, Note_off_c, 0, 48, 64
2, 49752, Note_on_c, 0, 64, 59
2, 49752, Note_on_c, 0, 52, 64
2, 49754, Note_off_c, 0, 66, 80
2, 49772, Note_on_c, 0, 66, 59
2, 49774, Note_off_c, 0, 64, 57
2, 49792, Note_on_c, 0, 64, 59
2, 49794, Note_off_c, 0, 66, 85
2, 49812, Note_off_c, 0, 52, 64
2, 49812, Note_on_c, 0, 66, 60
2, 49812, Note_on_c, 0, 54, 64
2, 49814, Note_off_c, 0, 64, 47
2, 49832, Note_on_c, 0, 64, 60
2, 49834, Note_off_c, 0, 66, 82
2, 49852, Note_on_c, 0, 66, 60
2, 49854, Note_off_c, 0, 64, 51
2, 49872, Note_off_c, 0, 54, 64
2, 49872, Note_on_c, 0, 64, 60
2, 49872, Note_on_c, 0, 56, 64
2, 49874, Note_off_c, 0, 66, 83
2, 49892, Note_on_c, 0, 66, 61
2, 49894, Note_off_c, 0, 64, 57
2, 49912, Note_on_c, 0, 64, 61
2, 49914, Note_off_c, 0, 66, 82
2, 49932, Note_off_c, 0, 56, 64
2, 49932, Note_on_c, 0, 66, 61
2, 49932, Note_on_c, 0, 57, 64
2, 49934, Note_off_c, 0, 64, 54
2, 49952, Note_on_c, 0, 64, 62
2, 49954, Note_off_c, 0, 66, 85
2, 49972, Note_on_c, 0, 66, 62
2, 49974, Note_off_c, 0, 64, 45
2, 49992, Note_off_c, 0, 57, 64
2, 49992, Note_on_c, 0, 64, 62
2, 49992, Note_on_c, 0, 54, 64
2, 49994, Note_off_c, 0, 66, 83
2, 50012, Note_on_c, 0, 66, 62
2, 50014, Note_off_c, 0, 64, 58
2, 50032, Note_on_c, 0, 64, 63
2, 50034, Note_off_c, 0, 66, 85
2, 50052, Note_off_c, 0, 54, 64
2, 50052, Note_on_c, 0, 66, 63
2, 50052, Note_on_c, 0, 56, 64
2, 50054, Note_off_c, 0, 64, 55
2, 50072, Note_on_c, 0, 64, 63
2, 50074, Note_off_c, 0, 66, 43
2, 50112, Note_off_c, 0, 56, 64
2, 50112, Note_on_c, 0, 54, 64
2, 50172, Note_off_c, 0, 54, 64
2, 50172, Note_on_c, 0, 74, 64
2, 50172, Note_on_c, 0, 52, 64
2, 50185, Note_off_c, 0, 64, 54
2, 50198, Note_off_c, 0, 74, 64
2, 50198, Note_on_c, 0, 72, 64
2, 50218, Note_off_c, 0, 72, 64
2, 50218, Note_on_c, 0, 74, 64
2, 50238, Note_off_c, 0, 52, 64
2, 50238, Note_on_c, 0, 50, 64
2, 50298, Note_off_c, 0, 50, 64
2, 50298, Note_on_c, 0, 48, 64
2, 50358, Note_off_c, 0, 48, 64
2, 50358, Note_on_c, 0, 47, 64
2, 50418, Note_off_c, 0, 47, 64
2, 50418, Note_on_c, 0, 45, 64
2, 50478, Note_off_c, 0, 74, 64
2, 50478, Note_on_c, 0, 76, 64
2, 50538, Note_off_c, 0, 76, 64
2, 50538, Note_off_c, 0, 45, 64
2, 50538, Note_on_c, 0, 74, 64
2, 50538, Note_on_c, 0, 52, 64
2, 50598, Note_off_c, 0, 74, 64
2, 50598, Note_on_c, 0, 72, 64
2, 50658, Note_off_c, 0, 72, 64
2, 50658, Note_off_c, 0, 52, 64
2, 50658, Note_on_c, 0, 56, 64
2, 50658, Note_on_c, 0, 71, 64
2, 50718, Note_off_c, 0, 71, 64
2, 50718, Note_on_c, 0, 74, 64
2, 50778, Note_off_c, 0, 74, 64
2, 50778, Note_off_c, 0, 56, 64
2, 50778, Note_on_c, 0, 72, 64
2, 50778, Note_on_c, 0, 57, 64
2, 50838, Note_off_c, 0, 57, 64
2, 50838, Note_on_c, 0, 59, 64
2, 50898, Note_off_c, 0, 59, 64
2, 50898, Note_off_c, 0, 72, 64
2, 50898, Note_on_c, 0, 76, 64
2, 50898, Note_on_c, 0, 57, 64
2, 50958, Note_off_c, 0, 57, 64
2, 50958, Note_on_c, 0, 55, 64
2, 51018, Note_off_c, 0, 55, 64
2, 51018, Note_off_c, 0, 76, 64
2, 51018, Note_on_c, 0, 81, 64
2, 51018, Note_on_c, 0, 54, 64
2, 51078, Note_off_c, 0, 54, 64
2, 51078, Note_on_c, 0, 57, 64
2, 51138, Note_off_c, 0, 57, 64
2, 51138, Note_on_c, 0, 51, 64
2, 51198, Note_off_c, 0, 81, 64
2, 51198, Note_on_c, 0, 83, 64
2, 51258, Note_off_c, 0, 83, 64
2, 51258, Note_off_c, 0, 51, 64
2, 51258, Note_on_c, 0, 60, 64
2, 51258, Note_on_c, 0, 81, 64
2, 51278, Note_off_c, 0, 60, 64
2, 51278, Note_on_c, 0, 59, 64
2, 51298, Note_off_c, 0, 59, 64
2, 51298, Note_on_c, 0, 60, 64
2, 51318, Note_off_c, 0, 81, 64
2, 51318, Note_on_c, 0, 79, 64
2, 51378, Note_off_c, 0, 79, 64
2, 51378, Note_on_c, 0, 78, 64
2, 51438, Note_off_c, 0, 78, 64
2, 51438, Note_on_c, 0, 81, 64
2, 51498, Note_off_c, 0, 81, 64
2, 51498, Note_on_c, 0, 75, 64
2, 51558, Note_off_c, 0, 60, 64
2, 51558, Note_on_c, 0, 57, 64
2, 51618, Note_off_c, 0, 57, 64
2, 51618, Note_off_c, 0, 75, 64
2, 51618, Note_on_c, 0, 84, 64
2, 51618, Note_on_c, 0, 54, 64
2, 51638, Note_off_c, 0, 84, 64
2, 51638, Note_on_c, 0, 83, 64
2, 51658, Note_off_c, 0, 83, 64
2, 51658, Note_on_c, 0, 84, 64
2, 51678, Note_off_c, 0, 54, 64
2, 51678, Note_on_c, 0, 57, 64
2, 51738, Note_off_c, 0, 57, 64
2, 51738, Note_on_c, 0, 51, 64
2, 51798, Note_off_c, 0, 51, 64
2, 51798, Note_on_c, 0, 54, 64
2, 51858, Note_off_c, 0, 54, 64
2, 51858, Note_on_c, 0, 47, 64
2, 51918, Note_off_c, 0, 84, 64
2, 51918, Note_on_c, 0, 83, 64
2, 51978, Note_off_c, 0, 83, 64
2, 51978, Note_off_c, 0, 47, 64
2, 51978, Note_on_c, 0, 64, 64
2, 51978, Note_on_c, 0, 81, 64
2, 51998, Note_off_c, 0, 64, 48
2, 51998, Note_on_c, 0, 63, 64
2, 52018, Note_off_c, 0, 63, 47
2, 52018, Note_on_c, 0, 64, 64
2, 52038, Note_off_c, 0, 64, 40
2, 52038, Note_off_c, 0, 81, 64
2, 52038, Note_on_c, 0, 63, 64
2, 52038, Note_on_c, 0, 79, 64
2, 52058, Note_off_c, 0, 63, 47
2, 52058, Note_on_c, 0, 64, 64
2, 52078, Note_off_c, 0, 64, 23
2, 52078, Note_on_c, 0, 63, 64
2, 52098, Note_off_c, 0, 79, 64
2, 52098, Note_on_c, 0, 78, 64
2, 52158, Note_off_c, 0, 78, 64
2, 52158, Note_off_c, 0, 63, 44
2, 52158, Note_on_c, 0, 81, 64
2, 52158, Note_on_c, 0, 61, 64
2, 52188, Note_off_c, 0, 61, 64
2, 52188, Note_on_c, 0, 63, 64
2, 52218, Note_off_c, 0, 63, 64
2, 52218, Note_off_c, 0, 81, 64
2, 52218, Note_on_c, 0, 79, 64
2, 52218, Note_on_c, 0, 64, 64
2, 52278, Note_off_c, 0, 64, 64
2, 52278, Note_on_c, 0, 63, 64
2, 52338, Note_off_c, 0, 63, 64
2, 52338, Note_on_c, 0, 64, 64
2, 52398, Note_off_c, 0, 64, 64
2, 52398, Note_on_c, 0, 66, 64
2, 52458, Note_off_c, 0, 66, 64
2, 52458, Note_on_c, 0, 67, 64
2, 52518, Note_off_c, 0, 67, 64
2, 52518, Note_on_c, 0, 64, 64
2, 52578, Note_off_c, 0, 64, 64
2, 52578, Note_on_c, 0, 58, 64
2, 52638, Note_off_c, 0, 58, 64
2, 52638, Note_off_c, 0, 79, 64
2, 52638, Note_on_c, 0, 78, 64
2, 52638, Note_on_c, 0, 59, 64
2, 52698, Note_off_c, 0, 59, 64
2, 52698, Note_off_c, 0, 78, 64
2, 52698, Note_on_c, 0, 76, 64
2, 52698, Note_on_c, 0, 61, 64
2, 52758, Note_off_c, 0, 61, 64
2, 52758, Note_off_c, 0, 76, 64
2, 52758, Note_on_c, 0, 74, 64
2, 52758, Note_on_c, 0, 62, 64
2, 52818, Note_off_c, 0, 62, 64
2, 52818, Note_off_c, 0, 74, 64
2, 52818, Note_on_c, 0, 73, 64
2, 52818, Note_on_c, 0, 64, 64
2, 52878, Note_off_c, 0, 64, 64
2, 52878, Note_off_c, 0, 73, 64
2, 52878, Note_on_c, 0, 76, 64
2, 52878, Note_on_c, 0, 61, 64
2, 52938, Note_off_c, 0, 61, 64
2, 52938, Note_off_c, 0, 76, 64
2, 52938, Note_on_c, 0, 70, 64
2, 52938, Note_on_c, 0, 54, 64
2, 52998, Note_off_c, 0, 70, 64
2, 52998, Note_on_c, 0, 79, 64
2, 53058, Note_off_c, 0, 79, 64
2, 53058, Note_off_c, 0, 54, 64
2, 53058, Note_on_c, 0, 78, 64
2, 53058, Note_on_c, 0, 58, 64
2, 53118, Note_off_c, 0, 78, 64
2, 53118, Note_on_c, 0, 76, 64
2, 53178, Note_off_c, 0, 76, 64
2, 53178, Note_off_c, 0, 58, 64
2, 53178, Note_on_c, 0, 59, 64
2, 53178, Note_on_c, 0, 75, 64
2, 53238, Note_off_c, 0, 75, 64
2, 53238, Note_on_c, 0, 78, 64
2, 53298, Note_off_c, 0, 78, 64
2, 53298, Note_off_c, 0, 59, 64
2, 53298, Note_on_c, 0, 69, 64
2, 53298, Note_on_c, 0, 60, 64
2, 53358, Note_off_c, 0, 69, 64
2, 53358, Note_on_c, 0, 72, 64
2, 53418, Note_off_c, 0, 72, 64
2, 53418, Note_off_c, 0, 60, 64
2, 53418, Note_on_c, 0, 71, 64
2, 53418, Note_on_c, 0, 51, 64
2, 53478, Note_off_c, 0, 71, 64
2, 53478, Note_on_c, 0, 69, 64
2, 53538, Note_off_c, 0, 69, 64
2, 53538, Note_off_c, 0, 51, 64
2, 53538, Note_on_c, 0, 52, 64
2, 53538, Note_on_c, 0, 67, 64
2, 53598, Note_off_c, 0, 67, 64
2, 53598, Note_on_c, 0, 71, 64
2, 53658, Note_off_c, 0, 71, 64
2, 53658, Note_off_c, 0, 52, 64
2, 53658, Note_on_c, 0, 64, 64
2, 53658, Note_on_c, 0, 48, 64
2, 53778, Note_off_c, 0, 48, 64
2, 53778, Note_off_c, 0, 64, 64
2, 53778, Note_on_c, 0, 66, 64
2, 53778, Note_on_c, 0, 45, 64
2, 53798, Note_off_c, 0, 66, 64
2, 53798, Note_on_c, 0, 64, 64
2, 53818, Note_off_c, 0, 64, 64
2, 53818, Note_on_c, 0, 66, 64
2, 53898, Note_off_c, 0, 66, 64
2, 53898, Note_off_c, 0, 45, 64
2, 53898, Note_on_c, 0, 64, 64
2, 53898, Note_on_c, 0, 47, 64
2, 53918, Note_off_c, 0, 64, 64
2, 53918, Note_on_c, 0, 63, 64
2, 53938, Note_off_c, 0, 63, 64
2, 53938, Note_on_c, 0, 61, 64
2, 53958, Note_off_c, 0, 61, 64
2, 53958, Note_on_c, 0, 63, 64
2, 54018, Note_off_c, 0, 63, 64
2, 54018, Note_off_c, 0, 47, 64
2, 54018, Note_on_c, 0, 64, 64
2, 54018, Note_on_c, 0, 36, 64
2, 54078, Note_off_c, 0, 36, 64
2, 54078, Note_off_c, 0, 64, 64
2, 54078, Note_on_c, 0, 68, 64
2, 54078, Note_on_c, 0, 40, 64
2, 54138, Note_off_c, 0, 40, 64
2, 54138, Note_off_c, 0, 68, 64
2, 54138, Note_on_c, 0, 69, 64
2, 54138, Note_on_c, 0, 42, 64
2, 54198, Note_off_c, 0, 42, 64
2, 54198, Note_off_c, 0, 69, 64
2, 54198, Note_on_c, 0, 71, 64
2, 54198, Note_on_c, 0, 44, 64
2, 54258, Note_off_c, 0, 44, 64
2, 54258, Note_off_c, 0, 71, 64
2, 54258, Note_on_c, 0, 72, 64
2, 54258, Note_on_c, 0, 45, 64
2, 54318, Note_off_c, 0, 45, 64
2, 54318, Note_off_c, 0, 72, 64
2, 54318, Note_on_c, 0, 42, 64
2, 54318, Note_on_c, 0, 69, 64
2, 54378, Note_off_c, 0, 69, 64
2, 54378, Note_off_c, 0, 42, 64
2, 54378, Note_on_c, 0, 71, 64
2, 54378, Note_on_c, 0, 44, 64
2, 54438, Note_off_c, 0, 44, 64
2, 54438, Note_off_c, 0, 71, 64
2, 54438, Note_on_c, 0, 69, 64
2, 54438, Note_on_c, 0, 45, 64
2, 54498, Note_off_c, 0, 45, 64
2, 54498, Note_off_c, 0, 69, 64
2, 54498, Note_on_c, 0, 68, 64
2, 54498, Note_on_c, 0, 47, 64
2, 54558, Note_off_c, 0, 47, 64
2, 54558, Note_off_c, 0, 68, 64
2, 54558, Note_on_c, 0, 66, 64
2, 54558, Note_on_c, 0, 48, 64
2, 54618, Note_off_c, 0, 48, 64
2, 54618, Note_off_c, 0, 66, 64
2, 54618, Note_on_c, 0, 64, 64
2, 54618, Note_on_c, 0, 50, 64
2, 54678, Note_off_c, 0, 50, 64
2, 54678, Note_off_c, 0, 64, 64
2, 54678, Note_on_c, 0, 53, 64
2, 54678, Note_on_c, 0, 74, 64
2, 54738, Note_off_c, 0, 74, 64
2, 54738, Note_off_c, 0, 53, 64
2, 54738, Note_on_c, 0, 73, 64
2, 54738, Note_on_c, 0, 55, 64
2, 54798, Note_off_c, 0, 73, 64
2, 54798, Note_on_c, 0, 75, 64
2, 54858, Note_off_c, 0, 75, 64
2, 54858, Note_off_c, 0, 55, 64
2, 54858, Note_on_c, 0, 76, 64
2, 54858, Note_on_c, 0, 54, 64
2, 54918, Note_off_c, 0, 76, 64
2, 54918, Note_on_c, 0, 78, 64
2, 54978, Note_off_c, 0, 78, 64
2, 54978, Note_off_c, 0, 54, 64
2, 54978, Note_on_c, 0, 52, 64
2, 54978, Note_on_c, 0, 79, 64
2, 55038, Note_off_c, 0, 79, 64
2, 55038, Note_on_c, 0, 76, 64
2, 55098, Note_off_c, 0, 76, 64
2, 55098, Note_off_c, 0, 52, 64
2, 55098, Note_on_c, 0, 78, 64
2, 55098, Note_on_c, 0, 51, 64
2, 55158, Note_off_c, 0, 78, 64
2, 55158, Note_on_c, 0, 76, 64
2, 55218, Note_off_c, 0, 76, 64
2, 55218, Note_off_c, 0, 51, 64
2, 55218, Note_on_c, 0, 75, 64
2, 55218, Note_on_c, 0, 47, 64
2, 55278, Note_off_c, 0, 75, 64
2, 55278, Note_on_c, 0, 73, 64
2, 55338, Note_off_c, 0, 73, 64
2, 55338, Note_off_c, 0, 47, 64
2, 55338, Note_on_c, 0, 51, 64
2, 55338, Note_on_c, 0, 71, 64
2, 55398, Note_off_c, 0, 71, 64
2, 55398, Note_on_c, 0, 69, 64
2, 55458, Note_off_c, 0, 69, 64
2, 55458, Note_off_c, 0, 51, 64
2, 55458, Note_on_c, 0, 67, 64
2, 55458, Note_on_c, 0, 52, 64
2, 55578, Note_off_c, 0, 52, 64
2, 55578, Note_off_c, 0, 67, 64
2, 55578, Note_on_c, 0, 69, 64
2, 55578, Note_on_c, 0, 45, 64
2, 55598, Note_off_c, 0, 69, 64
2, 55598, Note_on_c, 0, 67, 64
2, 55618, Note_off_c, 0, 67, 64
2, 55618, Note_on_c, 0, 69, 64
2, 55698, Note_off_c, 0, 69, 64
2, 55698, Note_off_c, 0, 45, 64
2, 55698, Note_on_c, 0, 67, 64
2, 55698, Note_on_c, 0, 47, 64
2, 55718, Note_off_c, 0, 67, 64
2, 55718, Note_on_c, 0, 66, 64
2, 55738, Note_off_c, 0, 66, 64
2, 55738, Note_on_c, 0, 64, 64
2, 55758, Note_off_c, 0, 64, 64
2, 55758, Note_on_c, 0, 66, 64
2, 55818, Note_off_c, 0, 66, 64
2, 55818, Note_off_c, 0, 47, 64
2, 55818, Note_on_c, 0, 40, 64
2, 55818, Note_on_c, 0, 64, 64
2, 56178, Note_off_c, 0, 64, 64
2, 56178, Note_off_c, 0, 40, 64
2, 56178, Note_on_c, 0, 78, 64
2, 56238, Note_on_c, 0, 59, 64
2, 56298, Note_off_c, 0, 59, 64
2, 56298, Note_on_c, 0, 57, 64
2, 56358, Note_off_c, 0, 57, 64
2, 56358, Note_on_c, 0, 55, 64
2, 56418, Note_off_c, 0, 55, 64
2, 56418, Note_on_c, 0, 54, 64
2, 56478, Note_off_c, 0, 54, 64
2, 56478, Note_on_c, 0, 57, 64
2, 56538, Note_off_c, 0, 57, 64
2, 56538, Note_on_c, 0, 55, 64
2, 56598, Note_off_c, 0, 55, 64
2, 56598, Note_on_c, 0, 59, 64
2, 56658, Note_off_c, 0, 59, 64
2, 56658, Note_off_c, 0, 78, 64
2, 56658, Note_on_c, 0, 76, 64
2, 56658, Note_on_c, 0, 61, 64
2, 56718, Note_off_c, 0, 61, 64
2, 56718, Note_off_c, 0, 76, 64
2, 56718, Note_on_c, 0, 78, 64
2, 56718, Note_on_c, 0, 62, 64
2, 56778, Note_off_c, 0, 62, 64
2, 56778, Note_off_c, 0, 78, 64
2, 56778, Note_on_c, 0, 79, 64
2, 56778, Note_on_c, 0, 64, 64
2, 56838, Note_off_c, 0, 64, 64
2, 56838, Note_on_c, 0, 57, 64
2, 56898, Note_off_c, 0, 57, 64
2, 56898, Note_off_c, 0, 79, 64
2, 56898, Note_on_c, 0, 78, 64
2, 56898, Note_on_c, 0, 62, 64
2, 56958, Note_off_c, 0, 62, 64
2, 56958, Note_on_c, 0, 55, 64
2, 57008, Note_off_c, 0, 78, 64
2, 57021, Note_off_c, 0, 55, 64
2, 57021, Note_on_c, 0, 78, 64
2, 57021, Note_on_c, 0, 57, 64
2, 57036, Note_off_c, 0, 78, 57
2, 57036, Note_on_c, 0, 76, 64
2, 57051, Note_off_c, 0, 76, 23
2, 57051, Note_on_c, 0, 78, 64
2, 57066, Note_off_c, 0, 78, 61
2, 57066, Note_on_c, 0, 76, 64
2, 57081, Note_off_c, 0, 76, 34
2, 57081, Note_off_c, 0, 57, 64
2, 57081, Note_on_c, 0, 78, 64
2, 57081, Note_on_c, 0, 59, 64
2, 57096, Note_off_c, 0, 78, 50
2, 57096, Note_on_c, 0, 76, 64
2, 57096, Note_on_c, 0, 76, 64
2, 57111, Note_off_c, 0, 76, 52
2, 57141, Note_off_c, 0, 76, 64
2, 57141, Note_off_c, 0, 59, 64
2, 57141, Note_on_c, 0, 69, 64
2, 57141, Note_on_c, 0, 60, 64
2, 57201, Note_off_c, 0, 60, 64
2, 57201, Note_on_c, 0, 54, 64
2, 57261, Note_off_c, 0, 54, 64
2, 57261, Note_off_c, 0, 69, 64
2, 57261, Note_on_c, 0, 74, 64
2, 57261, Note_on_c, 0, 59, 64
2, 57321, Note_off_c, 0, 59, 64
2, 57321, Note_on_c, 0, 52, 64
2, 57381, Note_off_c, 0, 52, 64
2, 57381, Note_off_c, 0, 74, 64
2, 57381, Note_on_c, 0, 72, 64
2, 57381, Note_on_c, 0, 54, 64
2, 57441, Note_off_c, 0, 54, 64
2, 57441, Note_off_c, 0, 72, 64
2, 57441, Note_on_c, 0, 71, 64
2, 57441, Note_on_c, 0, 55, 64
2, 57501, Note_off_c, 0, 55, 64
2, 57501, Note_off_c, 0, 71, 64
2, 57501, Note_on_c, 0, 72, 64
2, 57501, Note_on_c, 0, 57, 64
2, 57561, Note_off_c, 0, 57, 64
2, 57561, Note_on_c, 0, 51, 64
2, 57621, Note_off_c, 0, 51, 64
2, 57621, Note_on_c, 0, 55, 64
2, 57681, Note_off_c, 0, 72, 64
2, 57681, Note_on_c, 0, 71, 64
2, 57741, Note_off_c, 0, 71, 64
2, 57741, Note_off_c, 0, 55, 64
2, 57741, Note_on_c, 0, 69, 64
2, 57741, Note_on_c, 0, 57, 64
2, 57801, Note_off_c, 0, 69, 64
2, 57801, Note_on_c, 0, 67, 64
2, 57861, Note_off_c, 0, 67, 64
2, 57861, Note_off_c, 0, 57, 64
2, 57861, Note_on_c, 0, 59, 64
2, 57861, Note_on_c, 0, 66, 64
2, 57921, Note_off_c, 0, 66, 64
2, 57921, Note_on_c, 0, 69, 64
2, 57981, Note_off_c, 0, 69, 64
2, 57981, Note_off_c, 0, 59, 64
2, 57981, Note_on_c, 0, 67, 64
2, 57981, Note_on_c, 0, 52, 64
2, 58041, Note_off_c, 0, 67, 64
2, 58041, Note_on_c, 0, 71, 64
2, 58101, Note_off_c, 0, 71, 64
2, 58101, Note_off_c, 0, 52, 64
2, 58101, Note_on_c, 0, 72, 64
2, 58101, Note_on_c, 0, 50, 64
2, 58161, Note_off_c, 0, 72, 64
2, 58161, Note_on_c, 0, 74, 64
2, 58221, Note_off_c, 0, 74, 64
2, 58221, Note_off_c, 0, 50, 64
2, 58221, Note_on_c, 0, 48, 64
2, 58221, Note_on_c, 0, 76, 64
2, 58281, Note_off_c, 0, 76, 64
2, 58281, Note_on_c, 0, 69, 64
2, 58341, Note_off_c, 0, 69, 64
2, 58341, Note_off_c, 0, 48, 64
2, 58341, Note_on_c, 0, 74, 64
2, 58341, Note_on_c, 0, 47, 64
2, 58401, Note_off_c, 0, 74, 64
2, 58401, Note_on_c, 0, 68, 64
2, 58461, Note_off_c, 0, 68, 64
2, 58461, Note_off_c, 0, 47, 64
2, 58461, Note_on_c, 0, 69, 64
2, 58461, Note_on_c, 0, 40, 64
2, 58521, Note_off_c, 0, 69, 64
2, 58521, Note_on_c, 0, 71, 64
2, 58581, Note_off_c, 0, 71, 64
2, 58581, Note_off_c, 0, 40, 64
2, 58581, Note_on_c, 0, 45, 64
2, 58581, Note_on_c, 0, 72, 64
2, 58641, Note_off_c, 0, 72, 64
2, 58641, Note_on_c, 0, 66, 64
2, 58701, Note_off_c, 0, 66, 64
2, 58701, Note_off_c, 0, 45, 64
2, 58701, Note_on_c, 0, 71, 64
2, 58701, Note_on_c, 0, 38, 64
2, 58761, Note_off_c, 0, 38, 64
2, 58761, Note_off_c, 0, 71, 64
2, 58761, Note_on_c, 0, 64, 64
2, 58761, Note_on_c, 0, 36, 64
2, 58821, Note_off_c, 0, 36, 64
2, 58821, Note_off_c, 0, 64, 64
2, 58821, Note_on_c, 0, 66, 64
2, 58821, Note_on_c, 0, 38, 64
2, 58881, Note_off_c, 0, 38, 64
2, 58881, Note_off_c, 0, 66, 64
2, 58881, Note_on_c, 0, 68, 64
2, 58881, Note_on_c, 0, 40, 64
2, 58941, Note_off_c, 0, 40, 64
2, 58941, Note_off_c, 0, 68, 64
2, 58941, Note_on_c, 0, 41, 64
2, 58941, Note_on_c, 0, 69, 64
2, 59001, Note_off_c, 0, 69, 64
2, 59001, Note_on_c, 0, 63, 64
2, 59061, Note_off_c, 0, 63, 64
2, 59061, Note_off_c, 0, 41, 64
2, 59061, Note_on_c, 0, 68, 64
2, 59061, Note_on_c, 0, 40, 64
2, 59121, Note_off_c, 0, 40, 64
2, 59121, Note_on_c, 0, 52, 64
2, 59181, Note_off_c, 0, 52, 64
2, 59181, Note_off_c, 0, 68, 64
2, 59181, Note_on_c, 0, 71, 64
2, 59181, Note_on_c, 0, 50, 64
2, 59201, Note_off_c, 0, 71, 64
2, 59201, Note_on_c, 0, 69, 64
2, 59221, Note_off_c, 0, 69, 64
2, 59221, Note_on_c, 0, 68, 64
2, 59241, Note_off_c, 0, 68, 64
2, 59241, Note_off_c, 0, 50, 64
2, 59241, Note_on_c, 0, 69, 64
2, 59241, Note_on_c, 0, 48, 64
2, 59301, Note_off_c, 0, 48, 64
2, 59301, Note_off_c, 0, 69, 64
2, 59301, Note_on_c, 0, 71, 64
2, 59301, Note_on_c, 0, 47, 64
2, 59361, Note_off_c, 0, 47, 64
2, 59361, Note_on_c, 0, 50, 64
2, 59421, Note_off_c, 0, 50, 64
2, 59421, Note_off_c, 0, 71, 64
2, 59421, Note_on_c, 0, 64, 64
2, 59421, Note_on_c, 0, 48, 64
2, 59481, Note_off_c, 0, 64, 64
2, 59481, Note_on_c, 0, 76, 64
2, 59541, Note_off_c, 0, 76, 64
2, 59541, Note_off_c, 0, 48, 64
2, 59541, Note_on_c, 0, 52, 64
2, 59541, Note_on_c, 0, 74, 64
2, 59561, Note_off_c, 0, 52, 64
2, 59561, Note_on_c, 0, 50, 64
2, 59581, Note_off_c, 0, 50, 64
2, 59581, Note_on_c, 0, 48, 64
2, 59601, Note_off_c, 0, 48, 64
2, 59601, Note_off_c, 0, 74, 64
2, 59601, Note_on_c, 0, 50, 64
2, 59601, Note_on_c, 0, 72, 64
2, 59661, Note_off_c, 0, 72, 64
2, 59661, Note_off_c, 0, 50, 64
2, 59661, Note_on_c, 0, 52, 64
2, 59661, Note_on_c, 0, 71, 64
2, 59721, Note_off_c, 0, 71, 64
2, 59721, Note_on_c, 0, 74, 64
2, 59781, Note_off_c, 0, 74, 64
2, 59781, Note_off_c, 0, 52, 64
2, 59781, Note_on_c, 0, 72, 64
2, 59781, Note_on_c, 0, 45, 64
2, 59841, Note_off_c, 0, 45, 64
2, 59841, Note_on_c, 0, 57, 64
2, 59901, Note_off_c, 0, 57, 64
2, 59901, Note_off_c, 0, 72, 64
2, 59901, Note_on_c, 0, 76, 64
2, 59901, Note_on_c, 0, 55, 64
2, 59921, Note_off_c, 0, 76, 64
2, 59921, Note_on_c, 0, 74, 64
2, 59941, Note_off_c, 0, 74, 64
2, 59941, Note_on_c, 0, 72, 64
2, 59961, Note_off_c, 0, 72, 64
2, 59961, Note_off_c, 0, 55, 64
2, 59961, Note_on_c, 0, 74, 64
2, 59961, Note_on_c, 0, 53, 64
2, 60021, Note_off_c, 0, 53, 64
2, 60021, Note_off_c, 0, 74, 64
2, 60021, Note_on_c, 0, 76, 64
2, 60021, Note_on_c, 0, 52, 64
2, 60081, Note_off_c, 0, 52, 64
2, 60081, Note_on_c, 0, 55, 64
2, 60141, Note_off_c, 0, 55, 64
2, 60141, Note_off_c, 0, 76, 64
2, 60141, Note_on_c, 0, 69, 64
2, 60141, Note_on_c, 0, 53, 64
2, 60201, Note_off_c, 0, 69, 64
2, 60201, Note_on_c, 0, 81, 64
2, 60261, Note_off_c, 0, 81, 64
2, 60261, Note_off_c, 0, 53, 64
2, 60261, Note_on_c, 0, 79, 64
2, 60261, Note_on_c, 0, 55, 64
2, 60321, Note_off_c, 0, 79, 64
2, 60321, Note_on_c, 0, 77, 64
2, 60381, Note_off_c, 0, 77, 64
2, 60381, Note_off_c, 0, 55, 64
2, 60381, Note_on_c, 0, 57, 64
2, 60381, Note_on_c, 0, 76, 64
2, 60441, Note_off_c, 0, 76, 64
2, 60441, Note_on_c, 0, 79, 64
2, 60501, Note_off_c, 0, 79, 64
2, 60501, Note_off_c, 0, 57, 64
2, 60501, Note_on_c, 0, 77, 64
2, 60501, Note_on_c, 0, 50, 64
2, 60561, Note_off_c, 0, 50, 64
2, 60561, Note_on_c, 0, 62, 64
2, 60621, Note_off_c, 0, 62, 64
2, 60621, Note_off_c, 0, 77, 64
2, 60621, Note_on_c, 0, 79, 64
2, 60621, Note_on_c, 0, 60, 64
2, 60681, Note_off_c, 0, 60, 64
2, 60681, Note_on_c, 0, 59, 64
2, 60741, Note_off_c, 0, 59, 64
2, 60741, Note_off_c, 0, 79, 64
2, 60741, Note_on_c, 0, 81, 64
2, 60741, Note_on_c, 0, 57, 64
2, 60801, Note_off_c, 0, 57, 64
2, 60801, Note_on_c, 0, 60, 64
2, 60861, Note_off_c, 0, 60, 64
2, 60861, Note_on_c, 0, 59, 64
2, 60921, Note_off_c, 0, 81, 64
2, 60921, Note_on_c, 0, 74, 64
2, 60981, Note_off_c, 0, 74, 64
2, 60981, Note_off_c, 0, 59, 64
2, 60981, Note_on_c, 0, 72, 64
2, 60981, Note_on_c, 0, 60, 64
2, 61041, Note_off_c, 0, 72, 64
2, 61041, Note_on_c, 0, 71, 64
2, 61101, Note_off_c, 0, 71, 64
2, 61101, Note_off_c, 0, 60, 64
2, 61101, Note_on_c, 0, 62, 64
2, 61101, Note_on_c, 0, 69, 64
2, 61161, Note_off_c, 0, 69, 64
2, 61161, Note_on_c, 0, 72, 64
2, 61221, Note_off_c, 0, 72, 64
2, 61221, Note_off_c, 0, 62, 64
2, 61221, Note_on_c, 0, 71, 64
2, 61281, Note_on_c, 0, 55, 64
2, 61341, Note_off_c, 0, 55, 64
2, 61341, Note_off_c, 0, 71, 64
2, 61341, Note_on_c, 0, 72, 64
2, 61341, Note_on_c, 0, 53, 64
2, 61401, Note_off_c, 0, 53, 64
2, 61401, Note_on_c, 0, 52, 64
2, 61461, Note_off_c, 0, 52, 64
2, 61461, Note_off_c, 0, 72, 64
2, 61461, Note_on_c, 0, 74, 64
2, 61461, Note_on_c, 0, 50, 64
2, 61521, Note_off_c, 0, 50, 64
2, 61521, Note_on_c, 0, 53, 64
2, 61581, Note_off_c, 0, 53, 64
2, 61581, Note_on_c, 0, 43, 64
2, 61641, Note_off_c, 0, 43, 64
2, 61641, Note_off_c, 0, 74, 64
2, 61641, Note_on_c, 0, 67, 64
2, 61641, Note_on_c, 0, 53, 64
2, 61701, Note_off_c, 0, 53, 64
2, 61701, Note_off_c, 0, 67, 64
2, 61701, Note_on_c, 0, 72, 64
2, 61701, Note_on_c, 0, 52, 64
2, 61761, Note_off_c, 0, 52, 64
2, 61761, Note_off_c, 0, 72, 64
2, 61761, Note_on_c, 0, 74, 64
2, 61761, Note_on_c, 0, 50, 64
2, 61821, Note_off_c, 0, 50, 64
2, 61821, Note_off_c, 0, 74, 64
2, 61821, Note_on_c, 0, 76, 64
2, 61821, Note_on_c, 0, 48, 64
2, 61881, Note_off_c, 0, 48, 64
2, 61881, Note_on_c, 0, 52, 64
2, 61941, Note_off_c, 0, 52, 64
2, 61941, Note_on_c, 0, 43, 64
2, 62001, Note_off_c, 0, 43, 64
2, 62001, Note_off_c, 0, 76, 64
2, 62001, Note_on_c, 0, 72, 64
2, 62001, Note_on_c, 0, 52, 64
2, 62061, Note_off_c, 0, 52, 64
2, 62061, Note_off_c, 0, 72, 64
2, 62061, Note_on_c, 0, 74, 64
2, 62061, Note_on_c, 0, 50, 64
2, 62121, Note_off_c, 0, 50, 64
2, 62121, Note_off_c, 0, 74, 64
2, 62121, Note_on_c, 0, 76, 64
2, 62121, Note_on_c, 0, 48, 64
2, 62181, Note_off_c, 0, 48, 64
2, 62181, Note_off_c, 0, 76, 64
2, 62181, Note_on_c, 0, 77, 64
2, 62181, Note_on_c, 0, 47, 64
2, 62241, Note_off_c, 0, 47, 64
2, 62241, Note_on_c, 0, 50, 64
2, 62301, Note_off_c, 0, 50, 64
2, 62301, Note_on_c, 0, 43, 64
2, 62361, Note_off_c, 0, 77, 64
2, 62361, Note_on_c, 0, 79, 64
2, 62421, Note_off_c, 0, 79, 64
2, 62421, Note_off_c, 0, 43, 64
2, 62421, Note_on_c, 0, 77, 64
2, 62421, Note_on_c, 0, 45, 64
2, 62481, Note_off_c, 0, 77, 64
2, 62481, Note_on_c, 0, 76, 64
2, 62541, Note_off_c, 0, 76, 64
2, 62541, Note_off_c, 0, 45, 64
2, 62541, Note_on_c, 0, 47, 64
2, 62541, Note_on_c, 0, 74, 64
2, 62601, Note_off_c, 0, 74, 64
2, 62601, Note_on_c, 0, 77, 64
2, 62661, Note_off_c, 0, 77, 64
2, 62661, Note_off_c, 0, 47, 64
2, 62661, Note_on_c, 0, 76, 64
2, 62661, Note_on_c, 0, 48, 64
2, 62721, Note_off_c, 0, 48, 64
2, 62721, Note_off_c, 0, 76, 64
2, 62721, Note_on_c, 0, 64, 64
2, 62721, Note_on_c, 0, 62, 64
2, 62781, Note_off_c, 0, 62, 64
2, 62781, Note_off_c, 0, 64, 64
2, 62781, Note_on_c, 0, 66, 64
2, 62781, Note_on_c, 0, 60, 64
2, 62841, Note_off_c, 0, 60, 64
2, 62841, Note_off_c, 0, 66, 64
2, 62841, Note_on_c, 0, 68, 64
2, 62841, Note_on_c, 0, 59, 64
2, 62901, Note_off_c, 0, 59, 64
2, 62901, Note_off_c, 0, 68, 64
2, 62901, Note_on_c, 0, 69, 64
2, 62901, Note_on_c, 0, 57, 64
2, 62961, Note_off_c, 0, 57, 64
2, 62961, Note_off_c, 0, 69, 64
2, 62961, Note_on_c, 0, 60, 64
2, 62961, Note_on_c, 0, 66, 64
2, 63021, Note_off_c, 0, 66, 64
2, 63021, Note_off_c, 0, 60, 64
2, 63021, Note_on_c, 0, 74, 64
2, 63021, Note_on_c, 0, 47, 64
2, 63081, Note_off_c, 0, 47, 64
2, 63081, Note_off_c, 0, 74, 64
2, 63081, Note_on_c, 0, 66, 64
2, 63081, Note_on_c, 0, 60, 64
2, 63141, Note_off_c, 0, 60, 64
2, 63141, Note_off_c, 0, 66, 64
2, 63141, Note_on_c, 0, 68, 64
2, 63141, Note_on_c, 0, 59, 64
2, 63201, Note_off_c, 0, 59, 64
2, 63201, Note_off_c, 0, 68, 64
2, 63201, Note_on_c, 0, 69, 64
2, 63201, Note_on_c, 0, 57, 64
2, 63261, Note_off_c, 0, 57, 64
2, 63261, Note_off_c, 0, 69, 64
2, 63261, Note_on_c, 0, 71, 64
2, 63261, Note_on_c, 0, 56, 64
2, 63321, Note_off_c, 0, 56, 64
2, 63321, Note_off_c, 0, 71, 64
2, 63321, Note_on_c, 0, 59, 64
2, 63321, Note_on_c, 0, 68, 64
2, 63381, Note_off_c, 0, 68, 64
2, 63381, Note_off_c, 0, 59, 64
2, 63381, Note_on_c, 0, 72, 64
2, 63381, Note_on_c, 0, 45, 64
2, 63441, Note_off_c, 0, 45, 64
2, 63441, Note_off_c, 0, 72, 64
2, 63441, Note_on_c, 0, 68, 64
2, 63441, Note_on_c, 0, 59, 64
2, 63501, Note_off_c, 0, 59, 64
2, 63501, Note_off_c, 0, 68, 64
2, 63501, Note_on_c, 0, 69, 64
2, 63501, Note_on_c, 0, 57, 64
2, 63561, Note_off_c, 0, 57, 64
2, 63561, Note_off_c, 0, 69, 64
2, 63561, Note_on_c, 0, 71, 64
2, 63561, Note_on_c, 0, 56, 64
2, 63621, Note_off_c, 0, 56, 64
2, 63621, Note_off_c, 0, 71, 64
2, 63621, Note_on_c, 0, 72, 64
2, 63621, Note_on_c, 0, 54, 64
2, 63681, Note_off_c, 0, 54, 64
2, 63681, Note_off_c, 0, 72, 64
2, 63681, Note_on_c, 0, 57, 64
2, 63681, Note_on_c, 0, 69, 64
2, 63741, Note_off_c, 0, 69, 64
2, 63741, Note_off_c, 0, 57, 64
2, 63741, Note_on_c, 0, 72, 64
2, 63741, Note_on_c, 0, 51, 64
2, 63801, Note_off_c, 0, 72, 64
2, 63801, Note_on_c, 0, 71, 64
2, 63861, Note_off_c, 0, 71, 64
2, 63861, Note_off_c, 0, 51, 64
2, 63861, Note_on_c, 0, 69, 64
2, 63861, Note_on_c, 0, 52, 64
2, 63921, Note_off_c, 0, 69, 64
2, 63921, Note_on_c, 0, 68, 64
2, 63981, Note_off_c, 0, 68, 64
2, 63981, Note_off_c, 0, 52, 64
2, 63981, Note_on_c, 0, 53, 64
2, 63981, Note_on_c, 0, 69, 64
2, 64101, Note_off_c, 0, 53, 64
2, 64101, Note_on_c, 0, 52, 64
2, 64161, Note_off_c, 0, 52, 64
2, 64161, Note_off_c, 0, 69, 64
2, 64161, Note_on_c, 0, 71, 64
2, 64161, Note_on_c, 0, 50, 64
2, 64221, Note_off_c, 0, 50, 64
2, 64221, Note_off_c, 0, 71, 64
2, 64221, Note_on_c, 0, 71, 64
2, 64221, Note_on_c, 0, 52, 64
2, 64341, Note_off_c, 0, 52, 64
2, 64341, Note_on_c, 0, 40, 64
2, 64401, Note_off_c, 0, 71, 64
2, 64401, Note_on_c, 0, 69, 64
2, 64461, Note_off_c, 0, 69, 64
2, 64461, Note_off_c, 0, 40, 64
2, 64461, Note_on_c, 0, 69, 64
2, 64461, Note_on_c, 0, 45, 64
2, 64521, Note_off_c, 0, 45, 64
2, 64521, Note_on_c, 0, 57, 64
2, 64581, Note_off_c, 0, 57, 64
2, 64581, Note_on_c, 0, 55, 64
2, 64641, Note_off_c, 0, 55, 64
2, 64641, Note_on_c, 0, 54, 64
2, 64701, Note_off_c, 0, 54, 64
2, 64701, Note_on_c, 0, 52, 64
2, 64761, Note_off_c, 0, 52, 64
2, 64761, Note_on_c, 0, 55, 64
2, 64821, Note_off_c, 0, 55, 64
2, 64821, Note_off_c, 0, 69, 64
2, 64821, Note_on_c, 0, 54, 64
2, 64881, Note_on_c, 0, 74, 64
2, 64941, Note_off_c, 0, 74, 64
2, 64941, Note_off_c, 0, 54, 64
2, 64941, Note_on_c, 0, 72, 64
2, 64941, Note_on_c, 0, 50, 64
2, 65001, Note_off_c, 0, 72, 64
2, 65001, Note_on_c, 0, 71, 64
2, 65061, Note_off_c, 0, 71, 64
2, 65061, Note_off_c, 0, 50, 64
2, 65061, Note_on_c, 0, 54, 64
2, 65061, Note_on_c, 0, 69, 64
2, 65121, Note_off_c, 0, 69, 64
2, 65121, Note_on_c, 0, 72, 64
2, 65181, Note_off_c, 0, 72, 64
2, 65181, Note_off_c, 0, 54, 64
2, 65181, Note_on_c, 0, 71, 64
2, 65181, Note_on_c, 0, 55, 64
2, 65241, Note_off_c, 0, 71, 64
2, 65241, Note_on_c, 0, 74, 64
2, 65301, Note_off_c, 0, 74, 64
2, 65301, Note_off_c, 0, 55, 64
2, 65301, Note_on_c, 0, 76, 64
2, 65301, Note_on_c, 0, 54, 64
2, 65361, Note_off_c, 0, 76, 64
2, 65361, Note_on_c, 0, 78, 64
2, 65421, Note_off_c, 0, 78, 64
2, 65421, Note_off_c, 0, 54, 64
2, 65421, Note_on_c, 0, 52, 64
2, 65421, Note_on_c, 0, 79, 64
2, 65481, Note_off_c, 0, 79, 64
2, 65481, Note_on_c, 0, 73, 64
2, 65541, Note_off_c, 0, 73, 64
2, 65541, Note_off_c, 0, 52, 64
2, 65541, Note_on_c, 0, 78, 64
2, 65541, Note_on_c, 0, 50, 64
2, 65601, Note_off_c, 0, 50, 64
2, 65601, Note_off_c, 0, 78, 64
2, 65601, Note_on_c, 0, 71, 64
2, 65601, Note_on_c, 0, 55, 64
2, 65661, Note_off_c, 0, 55, 64
2, 65661, Note_off_c, 0, 71, 64
2, 65661, Note_on_c, 0, 72, 64
2, 65661, Note_on_c, 0, 57, 64
2, 65721, Note_off_c, 0, 57, 64
2, 65721, Note_off_c, 0, 72, 64
2, 65721, Note_on_c, 0, 74, 64
2, 65721, Note_on_c, 0, 59, 64
2, 65781, Note_off_c, 0, 59, 64
2, 65781, Note_off_c, 0, 74, 64
2, 65781, Note_on_c, 0, 60, 64
2, 65781, Note_on_c, 0, 76, 64
2, 65841, Note_off_c, 0, 76, 64
2, 65841, Note_on_c, 0, 69, 64
2, 65901, Note_off_c, 0, 69, 64
2, 65901, Note_on_c, 0, 74, 64
2, 65961, Note_off_c, 0, 74, 64
2, 65961, Note_off_c, 0, 60, 64
2, 65961, Note_on_c, 0, 67, 64
2, 65961, Note_on_c, 0, 59, 64
2, 66021, Note_off_c, 0, 59, 64
2, 66021, Note_off_c, 0, 67, 64
2, 66021, Note_on_c, 0, 69, 64
2, 66021, Note_on_c, 0, 57, 64
2, 66081, Note_off_c, 0, 57, 64
2, 66081, Note_off_c, 0, 69, 64
2, 66081, Note_on_c, 0, 71, 64
2, 66081, Note_on_c, 0, 55, 64
2, 66141, Note_off_c, 0, 55, 64
2, 66141, Note_off_c, 0, 71, 64
2, 66141, Note_on_c, 0, 57, 64
2, 66141, Note_on_c, 0, 72, 64
2, 66201, Note_off_c, 0, 72, 64
2, 66201, Note_on_c, 0, 66, 64
2, 66261, Note_off_c, 0, 66, 64
2, 66261, Note_on_c, 0, 71, 64
2, 66321, Note_off_c, 0, 57, 64
2, 66321, Note_on_c, 0, 59, 64
2, 66381, Note_off_c, 0, 59, 64
2, 66381, Note_off_c, 0, 71, 64
2, 66381, Note_on_c, 0, 73, 64
2, 66381, Note_on_c, 0, 57, 64
2, 66401, Note_off_c, 0, 73, 58
2, 66401, Note_on_c, 0, 75, 64
2, 66421, Note_off_c, 0, 75, 50
2, 66421, Note_on_c, 0, 76, 64
2, 66441, Note_off_c, 0, 76, 46
2, 66441, Note_off_c, 0, 57, 64
2, 66441, Note_on_c, 0, 75, 64
2, 66441, Note_on_c, 0, 55, 64
2, 66461, Note_off_c, 0, 75, 43
2, 66461, Note_on_c, 0, 76, 64
2, 66481, Note_off_c, 0, 76, 50
2, 66481, Note_on_c, 0, 75, 64
2, 66501, Note_off_c, 0, 75, 44
2, 66501, Note_off_c, 0, 55, 64
2, 66501, Note_on_c, 0, 76, 64
2, 66501, Note_on_c, 0, 54, 64
2, 66521, Note_off_c, 0, 76, 51
2, 66521, Note_on_c, 0, 75, 64
2, 66561, Note_off_c, 0, 75, 46
2, 66561, Note_off_c, 0, 54, 64
2, 66561, Note_on_c, 0, 57, 64
2, 66561, Note_on_c, 0, 73, 64
2, 66591, Note_off_c, 0, 73, 64
2, 66591, Note_on_c, 0, 75, 64
2, 66621, Note_off_c, 0, 75, 64
2, 66621, Note_off_c, 0, 57, 64
2, 66621, Note_on_c, 0, 76, 64
2, 66621, Note_on_c, 0, 55, 64
2, 66681, Note_off_c, 0, 55, 64
2, 66681, Note_on_c, 0, 59, 64
2, 66741, Note_off_c, 0, 59, 64
2, 66741, Note_off_c, 0, 76, 64
2, 66741, Note_on_c, 0, 79, 64
2, 66741, Note_on_c, 0, 61, 64
2, 66757, Note_on_c, 0, 78, 64
2, 66761, Note_off_c, 0, 79, 64
2, 66777, Note_off_c, 0, 78, 64
2, 66781, Note_on_c, 0, 76, 64
2, 66801, Note_off_c, 0, 76, 64
2, 66801, Note_off_c, 0, 61, 64
2, 66801, Note_on_c, 0, 78, 64
2, 66801, Note_on_c, 0, 63, 64
2, 66861, Note_off_c, 0, 63, 64
2, 66861, Note_off_c, 0, 78, 64
2, 66861, Note_on_c, 0, 79, 64
2, 66861, Note_on_c, 0, 64, 64
2, 66921, Note_off_c, 0, 64, 64
2, 66921, Note_on_c, 0, 57, 64
2, 66981, Note_off_c, 0, 57, 64
2, 66981, Note_on_c, 0, 62, 64
2, 67041, Note_off_c, 0, 62, 64
2, 67041, Note_off_c, 0, 79, 64
2, 67041, Note_on_c, 0, 78, 64
2, 67041, Note_on_c, 0, 55, 64
2, 67101, Note_off_c, 0, 55, 64
2, 67101, Note_off_c, 0, 78, 64
2, 67101, Note_on_c, 0, 76, 64
2, 67101, Note_on_c, 0, 57, 64
2, 67161, Note_off_c, 0, 57, 64
2, 67161, Note_off_c, 0, 76, 64
2, 67161, Note_on_c, 0, 75, 64
2, 67161, Note_on_c, 0, 59, 64
2, 67221, Note_off_c, 0, 59, 64
2, 67221, Note_off_c, 0, 75, 64
2, 67221, Note_on_c, 0, 76, 64
2, 67221, Note_on_c, 0, 60, 64
2, 67281, Note_off_c, 0, 60, 64
2, 67281, Note_on_c, 0, 54, 64
2, 67341, Note_off_c, 0, 54, 64
2, 67341, Note_on_c, 0, 59, 64
2, 67401, Note_off_c, 0, 59, 64
2, 67401, Note_off_c, 0, 76, 64
2, 67401, Note_on_c, 0, 74, 64
2, 67401, Note_on_c, 0, 52, 64
2, 67461, Note_off_c, 0, 52, 64
2, 67461, Note_off_c, 0, 74, 64
2, 67461, Note_on_c, 0, 72, 64
2, 67461, Note_on_c, 0, 54, 64
2, 67521, Note_off_c, 0, 54, 64
2, 67521, Note_off_c, 0, 72, 64
2, 67521, Note_on_c, 0, 71, 64
2, 67521, Note_on_c, 0, 55, 64
2, 67581, Note_off_c, 0, 55, 64
2, 67581, Note_off_c, 0, 71, 64
2, 67581, Note_on_c, 0, 72, 64
2, 67581, Note_on_c, 0, 57, 64
2, 67641, Note_off_c, 0, 57, 64
2, 67641, Note_off_c, 0, 72, 64
2, 67641, Note_on_c, 0, 81, 64
2, 67641, Note_on_c, 0, 50, 64
2, 67701, Note_off_c, 0, 50, 64
2, 67701, Note_off_c, 0, 81, 64
2, 67701, Note_on_c, 0, 71, 64
2, 67701, Note_on_c, 0, 55, 64
2, 67761, Note_off_c, 0, 55, 64
2, 67761, Note_off_c, 0, 71, 64
2, 67761, Note_on_c, 0, 62, 64
2, 67761, Note_on_c, 0, 54, 64
2, 67821, Note_off_c, 0, 54, 64
2, 67821, Note_off_c, 0, 62, 64
2, 67821, Note_on_c, 0, 64, 64
2, 67821, Note_on_c, 0, 55, 64
2, 67881, Note_off_c, 0, 55, 64
2, 67881, Note_off_c, 0, 64, 64
2, 67881, Note_on_c, 0, 66, 64
2, 67881, Note_on_c, 0, 57, 64
2, 67941, Note_off_c, 0, 57, 64
2, 67941, Note_off_c, 0, 66, 64
2, 67941, Note_on_c, 0, 67, 64
2, 67941, Note_on_c, 0, 59, 64
2, 68001, Note_off_c, 0, 59, 64
2, 68001, Note_on_c, 0, 61, 64
2, 68061, Note_off_c, 0, 61, 64
2, 68061, Note_on_c, 0, 62, 64
2, 68121, Note_off_c, 0, 62, 64
2, 68121, Note_off_c, 0, 67, 64
2, 68121, Note_on_c, 0, 66, 64
2, 68121, Note_on_c, 0, 57, 64
2, 68181, Note_off_c, 0, 57, 64
2, 68181, Note_off_c, 0, 66, 64
2, 68181, Note_on_c, 0, 68, 64
2, 68181, Note_on_c, 0, 59, 64
2, 68241, Note_off_c, 0, 59, 64
2, 68241, Note_off_c, 0, 68, 64
2, 68241, Note_on_c, 0, 69, 64
2, 68241, Note_on_c, 0, 60, 64
2, 68301, Note_off_c, 0, 60, 64
2, 68301, Note_off_c, 0, 69, 64
2, 68301, Note_on_c, 0, 62, 64
2, 68301, Note_on_c, 0, 71, 64
2, 68361, Note_off_c, 0, 71, 64
2, 68361, Note_on_c, 0, 68, 64
2, 68421, Note_off_c, 0, 68, 64
2, 68421, Note_on_c, 0, 69, 64
2, 68481, Note_off_c, 0, 69, 64
2, 68481, Note_off_c, 0, 62, 64
2, 68481, Note_on_c, 0, 64, 64
2, 68481, Note_on_c, 0, 61, 64
2, 68541, Note_off_c, 0, 61, 64
2, 68541, Note_off_c, 0, 64, 64
2, 68541, Note_on_c, 0, 66, 64
2, 68541, Note_on_c, 0, 63, 64
2, 68601, Note_off_c, 0, 63, 64
2, 68601, Note_off_c, 0, 66, 64
2, 68601, Note_on_c, 0, 67, 64
2, 68601, Note_on_c, 0, 64, 64
2, 68661, Note_off_c, 0, 64, 64
2, 68661, Note_off_c, 0, 67, 64
2, 68661, Note_on_c, 0, 69, 64
2, 68661, Note_on_c, 0, 66, 64
2, 68721, Note_off_c, 0, 66, 64
2, 68721, Note_on_c, 0, 63, 64
2, 68781, Note_off_c, 0, 63, 64
2, 68781, Note_on_c, 0, 64, 64
2, 68841, Note_off_c, 0, 64, 64
2, 68841, Note_off_c, 0, 69, 64
2, 68841, Note_on_c, 0, 67, 64
2, 68841, Note_on_c, 0, 52, 64
2, 68901, Note_off_c, 0, 52, 64
2, 68901, Note_off_c, 0, 67, 64
2, 68901, Note_on_c, 0, 69, 64
2, 68901, Note_on_c, 0, 54, 64
2, 68961, Note_off_c, 0, 54, 64
2, 68961, Note_off_c, 0, 69, 64
2, 68961, Note_on_c, 0, 71, 64
2, 68961, Note_on_c, 0, 55, 64
2, 69021, Note_off_c, 0, 55, 64
2, 69021, Note_off_c, 0, 71, 64
2, 69021, Note_on_c, 0, 72, 64
2, 69021, Note_on_c, 0, 57, 64
2, 69081, Note_off_c, 0, 57, 64
2, 69081, Note_off_c, 0, 72, 64
2, 69081, Note_on_c, 0, 69, 64
2, 69081, Note_on_c, 0, 54, 64
2, 69141, Note_off_c, 0, 54, 64
2, 69141, Note_off_c, 0, 69, 64
2, 69141, Note_on_c, 0, 71, 64
2, 69141, Note_on_c, 0, 55, 64
2, 69201, Note_off_c, 0, 71, 64
2, 69201, Note_on_c, 0, 75, 64
2, 69261, Note_off_c, 0, 75, 64
2, 69261, Note_off_c, 0, 55, 64
2, 69261, Note_on_c, 0, 76, 64
2, 69261, Note_on_c, 0, 54, 64
2, 69321, Note_off_c, 0, 76, 64
2, 69321, Note_on_c, 0, 78, 64
2, 69381, Note_off_c, 0, 78, 64
2, 69381, Note_off_c, 0, 54, 64
2, 69381, Note_on_c, 0, 52, 64
2, 69381, Note_on_c, 0, 79, 64
2, 69441, Note_off_c, 0, 79, 64
2, 69441, Note_on_c, 0, 76, 64
2, 69501, Note_off_c, 0, 76, 64
2, 69501, Note_off_c, 0, 52, 64
2, 69501, Note_on_c, 0, 61, 72
2, 69501, Note_on_c, 0, 78, 64
2, 69521, Note_off_c, 0, 61, 52
2, 69521, Note_on_c, 0, 59, 48
2, 69541, Note_on_c, 0, 61, 48
2, 69543, Note_off_c, 0, 59, 49
2, 69561, Note_off_c, 0, 78, 64
2, 69561, Note_on_c, 0, 59, 48
2, 69561, Note_on_c, 0, 76, 64
2, 69563, Note_off_c, 0, 61, 62
2, 69581, Note_on_c, 0, 61, 49
2, 69583, Note_off_c, 0, 59, 52
2, 69601, Note_on_c, 0, 59, 49
2, 69603, Note_off_c, 0, 61, 54
2, 69621, Note_off_c, 0, 76, 64
2, 69621, Note_on_c, 0, 61, 49
2, 69621, Note_on_c, 0, 75, 64
2, 69623, Note_off_c, 0, 59, 48
2, 69641, Note_on_c, 0, 59, 50
2, 69643, Note_off_c, 0, 61, 63
2, 69661, Note_on_c, 0, 61, 50
2, 69663, Note_off_c, 0, 59, 55
2, 69681, Note_off_c, 0, 75, 64
2, 69681, Note_on_c, 0, 59, 50
2, 69681, Note_on_c, 0, 73, 64
2, 69683, Note_off_c, 0, 61, 66
2, 69701, Note_on_c, 0, 61, 51
2, 69703, Note_off_c, 0, 59, 53
2, 69721, Note_on_c, 0, 59, 51
2, 69723, Note_off_c, 0, 61, 62
2, 69741, Note_off_c, 0, 73, 64
2, 69741, Note_on_c, 0, 61, 51
2, 69741, Note_on_c, 0, 71, 64
2, 69743, Note_off_c, 0, 59, 53
2, 69761, Note_on_c, 0, 59, 51
2, 69763, Note_off_c, 0, 61, 63
2, 69781, Note_on_c, 0, 61, 52
2, 69783, Note_off_c, 0, 59, 50
2, 69801, Note_off_c, 0, 71, 64
2, 69801, Note_on_c, 0, 59, 52
2, 69801, Note_on_c, 0, 69, 64
2, 69803, Note_off_c, 0, 61, 63
2, 69821, Note_on_c, 0, 61, 52
2, 69823, Note_off_c, 0, 59, 46
2, 69841, Note_on_c, 0, 59, 53
2, 69843, Note_off_c, 0, 61, 63
2, 69861, Note_off_c, 0, 69, 64
2, 69861, Note_on_c, 0, 61, 53
2, 69861, Note_on_c, 0, 67, 64
2, 69863, Note_off_c, 0, 59, 52
2, 69881, Note_on_c, 0, 59, 53
2, 69883, Note_off_c, 0, 61, 61
2, 69901, Note_on_c, 0, 61, 54
2, 69903, Note_off_c, 0, 59, 52
2, 69921, Note_off_c, 0, 67, 64
2, 69921, Note_on_c, 0, 59, 54
2, 69921, Note_on_c, 0, 71, 64
2, 69923, Note_off_c, 0, 61, 65
2, 69941, Note_on_c, 0, 61, 54
2, 69943, Note_off_c, 0, 59, 51
2, 69961, Note_on_c, 0, 59, 55
2, 69963, Note_off_c, 0, 61, 68
2, 69981, Note_off_c, 0, 71, 64
2, 69981, Note_on_c, 0, 61, 55
2, 69981, Note_on_c, 0, 73, 64
2, 69983, Note_off_c, 0, 59, 54
2, 70001, Note_on_c, 0, 59, 55
2, 70003, Note_off_c, 0, 61, 59
2, 70021, Note_on_c, 0, 61, 56
2, 70023, Note_off_c, 0, 59, 44
2, 70041, Note_off_c, 0, 73, 64
2, 70041, Note_on_c, 0, 59, 56
2, 70041, Note_on_c, 0, 75, 64
2, 70043, Note_off_c, 0, 61, 70
2, 70061, Note_on_c, 0, 61, 56
2, 70063, Note_off_c, 0, 59, 57
2, 70081, Note_on_c, 0, 59, 56
2, 70083, Note_off_c, 0, 61, 65
2, 70101, Note_off_c, 0, 75, 64
2, 70101, Note_on_c, 0, 61, 57
2, 70101, Note_on_c, 0, 76, 64
2, 70103, Note_off_c, 0, 59, 52
2, 70121, Note_on_c, 0, 59, 57
2, 70123, Note_off_c, 0, 61, 69
2, 70141, Note_on_c, 0, 61, 57
2, 70143, Note_off_c, 0, 59, 51
2, 70161, Note_off_c, 0, 76, 64
2, 70161, Note_on_c, 0, 59, 58
2, 70161, Note_on_c, 0, 73, 64
2, 70163, Note_off_c, 0, 61, 65
2, 70181, Note_on_c, 0, 61, 58
2, 70183, Note_off_c, 0, 59, 49
2, 70201, Note_on_c, 0, 59, 58
2, 70203, Note_off_c, 0, 61, 62
2, 70221, Note_off_c, 0, 73, 64
2, 70221, Note_on_c, 0, 61, 59
2, 70221, Note_on_c, 0, 75, 64
2, 70223, Note_off_c, 0, 59, 46
2, 70241, Note_on_c, 0, 59, 59
2, 70243, Note_off_c, 0, 61, 65
2, 70261, Note_on_c, 0, 61, 59
2, 70263, Note_off_c, 0, 59, 54
2, 70281, Note_off_c, 0, 75, 64
2, 70281, Note_on_c, 0, 59, 60
2, 70281, Note_on_c, 0, 73, 64
2, 70283, Note_off_c, 0, 61, 69
2, 70301, Note_on_c, 0, 61, 60
2, 70303, Note_off_c, 0, 59, 61
2, 70321, Note_on_c, 0, 59, 60
2, 70323, Note_off_c, 0, 61, 70
2, 70341, Note_off_c, 0, 73, 64
2, 70341, Note_on_c, 0, 61, 61
2, 70341, Note_on_c, 0, 71, 64
2, 70343, Note_off_c, 0, 59, 53
2, 70361, Note_on_c, 0, 59, 61
2, 70363, Note_off_c, 0, 61, 62
2, 70381, Note_on_c, 0, 61, 61
2, 70383, Note_off_c, 0, 59, 37
2, 70401, Note_off_c, 0, 71, 64
2, 70401, Note_on_c, 0, 59, 61
2, 70401, Note_on_c, 0, 69, 64
2, 70403, Note_off_c, 0, 61, 69
2, 70421, Note_on_c, 0, 61, 62
2, 70423, Note_off_c, 0, 59, 46
2, 70441, Note_on_c, 0, 59, 62
2, 70443, Note_off_c, 0, 61, 66
2, 70461, Note_off_c, 0, 69, 64
2, 70461, Note_on_c, 0, 61, 62
2, 70461, Note_on_c, 0, 67, 64
2, 70463, Note_off_c, 0, 59, 44
2, 70481, Note_on_c, 0, 59, 63
2, 70483, Note_off_c, 0, 61, 65
2, 70501, Note_on_c, 0, 61, 63
2, 70503, Note_off_c, 0, 59, 45
2, 70521, Note_off_c, 0, 67, 64
2, 70521, Note_on_c, 0, 59, 63
2, 70521, Note_on_c, 0, 66, 64
2, 70523, Note_off_c, 0, 61, 59
2, 70571, Note_off_c, 0, 66, 64
2, 70584, Note_on_c, 0, 66, 72
2, 70590, Note_off_c, 0, 59, 51
2, 70604, Note_off_c, 0, 66, 86
2, 70604, Note_on_c, 0, 64, 48
2, 70624, Note_on_c, 0, 66, 48
2, 70626, Note_off_c, 0, 64, 59
2, 70644, Note_on_c, 0, 64, 48
2, 70644, Note_on_c, 0, 56, 64
2, 70646, Note_off_c, 0, 66, 74
2, 70664, Note_on_c, 0, 66, 48
2, 70666, Note_off_c, 0, 64, 43
2, 70684, Note_on_c, 0, 64, 49
2, 70686, Note_off_c, 0, 66, 86
2, 70704, Note_off_c, 0, 56, 64
2, 70704, Note_on_c, 0, 66, 49
2, 70704, Note_on_c, 0, 57, 64
2, 70706, Note_off_c, 0, 64, 51
2, 70724, Note_on_c, 0, 64, 49
2, 70726, Note_off_c, 0, 66, 86
2, 70744, Note_on_c, 0, 66, 50
2, 70746, Note_off_c, 0, 64, 52
2, 70764, Note_off_c, 0, 57, 64
2, 70764, Note_on_c, 0, 64, 50
2, 70764, Note_on_c, 0, 59, 64
2, 70766, Note_off_c, 0, 66, 80
2, 70784, Note_on_c, 0, 66, 50
2, 70786, Note_off_c, 0, 64, 48
2, 70804, Note_on_c, 0, 64, 51
2, 70806, Note_off_c, 0, 66, 80
2, 70824, Note_off_c, 0, 59, 64
2, 70824, Note_on_c, 0, 66, 51
2, 70824, Note_on_c, 0, 60, 64
2, 70826, Note_off_c, 0, 64, 40
2, 70844, Note_on_c, 0, 64, 51
2, 70846, Note_off_c, 0, 66, 79
2, 70864, Note_on_c, 0, 66, 51
2, 70866, Note_off_c, 0, 64, 52
2, 70884, Note_off_c, 0, 60, 64
2, 70884, Note_on_c, 0, 64, 52
2, 70884, Note_on_c, 0, 57, 64
2, 70886, Note_off_c, 0, 66, 74
2, 70904, Note_on_c, 0, 66, 52
2, 70906, Note_off_c, 0, 64, 58
2, 70924, Note_on_c, 0, 64, 52
2, 70926, Note_off_c, 0, 66, 83
2, 70944, Note_off_c, 0, 57, 64
2, 70944, Note_on_c, 0, 66, 53
2, 70944, Note_on_c, 0, 59, 64
2, 70946, Note_off_c, 0, 64, 58
2, 70964, Note_on_c, 0, 64, 53
2, 70966, Note_off_c, 0, 66, 82
2, 70984, Note_on_c, 0, 66, 53
2, 70986, Note_off_c, 0, 64, 59
2, 71004, Note_off_c, 0, 59, 64
2, 71004, Note_on_c, 0, 64, 53
2, 71004, Note_on_c, 0, 57, 64
2, 71006, Note_off_c, 0, 66, 83
2, 71024, Note_on_c, 0, 66, 54
2, 71026, Note_off_c, 0, 64, 57
2, 71044, Note_on_c, 0, 64, 54
2, 71046, Note_off_c, 0, 66, 83
2, 71064, Note_off_c, 0, 57, 64
2, 71064, Note_on_c, 0, 66, 54
2, 71064, Note_on_c, 0, 56, 64
2, 71066, Note_off_c, 0, 64, 58
2, 71084, Note_on_c, 0, 64, 55
2, 71086, Note_off_c, 0, 66, 82
2, 71104, Note_on_c, 0, 66, 55
2, 71106, Note_off_c, 0, 64, 44
2, 71124, Note_off_c, 0, 56, 64
2, 71124, Note_on_c, 0, 64, 55
2, 71124, Note_on_c, 0, 54, 64
2, 71126, Note_off_c, 0, 66, 82
2, 71144, Note_on_c, 0, 66, 55
2, 71146, Note_off_c, 0, 64, 45
2, 71164, Note_on_c, 0, 64, 56
2, 71166, Note_off_c, 0, 66, 80
2, 71184, Note_off_c, 0, 54, 64
2, 71184, Note_on_c, 0, 66, 56
2, 71184, Note_on_c, 0, 52, 64
2, 71186, Note_off_c, 0, 64, 57
2, 71204, Note_on_c, 0, 64, 56
2, 71206, Note_off_c, 0, 66, 83
2, 71224, Note_on_c, 0, 66, 57
2, 71226, Note_off_c, 0, 64, 55
2, 71244, Note_off_c, 0, 52, 64
2, 71244, Note_on_c, 0, 64, 57
2, 71244, Note_on_c, 0, 50, 64
2, 71246, Note_off_c, 0, 66, 86
2, 71264, Note_on_c, 0, 66, 57
2, 71266, Note_off_c, 0, 64, 61
2, 71284, Note_on_c, 0, 64, 57
2, 71286, Note_off_c, 0, 66, 83
2, 71304, Note_off_c, 0, 50, 64
2, 71304, Note_on_c, 0, 66, 58
2, 71304, Note_on_c, 0, 48, 64
2, 71306, Note_off_c, 0, 64, 59
2, 71324, Note_on_c, 0, 64, 58
2, 71326, Note_off_c, 0, 66, 76
2, 71344, Note_on_c, 0, 66, 58
2, 71346, Note_off_c, 0, 64, 37
2, 71364, Note_off_c, 0, 48, 64
2, 71364, Note_on_c, 0, 64, 59
2, 71364, Note_on_c, 0, 52, 64
2, 71366, Note_off_c, 0, 66, 80
2, 71384, Note_on_c, 0, 66, 59
2, 71386, Note_off_c, 0, 64, 57
2, 71404, Note_on_c, 0, 64, 59
2, 71406, Note_off_c, 0, 66, 85
2, 71424, Note_off_c, 0, 52, 64
2, 71424, Note_on_c, 0, 66, 60
2, 71424, Note_on_c, 0, 54, 64
2, 71426, Note_off_c, 0, 64, 47
2, 71444, Note_on_c, 0, 64, 60
2, 71446, Note_off_c, 0, 66, 82
2, 71464, Note_on_c, 0, 66, 60
2, 71466, Note_off_c, 0, 64, 51
2, 71484, Note_off_c, 0, 54, 64
2, 71484, Note_on_c, 0, 64, 60
2, 71484, Note_on_c, 0, 56, 64
2, 71486, Note_off_c, 0, 66, 83
2, 71504, Note_on_c, 0, 66, 61
2, 71506, Note_off_c, 0, 64, 57
2, 71524, Note_on_c, 0, 64, 61
2, 71526, Note_off_c, 0, 66, 82
2, 71544, Note_off_c, 0, 56, 64
2, 71544, Note_on_c, 0, 66, 61
2, 71544, Note_on_c, 0, 57, 64
2, 71546, Note_off_c, 0, 64, 54
2, 71564, Note_on_c, 0, 64, 62
2, 71566, Note_off_c, 0, 66, 85
2, 71584, Note_on_c, 0, 66, 62
2, 71586, Note_off_c, 0, 64, 45
2, 71604, Note_off_c, 0, 57, 64
2, 71604, Note_on_c, 0, 64, 62
2, 71604, Note_on_c, 0, 54, 64
2, 71606, Note_off_c, 0, 66, 83
2, 71624, Note_on_c, 0, 66, 62
2, 71626, Note_off_c, 0, 64, 58
2, 71644, Note_on_c, 0, 64, 63
2, 71646, Note_off_c, 0, 66, 85
2, 71664, Note_off_c, 0, 54, 64
2, 71664, Note_on_c, 0, 66, 63
2, 71664, Note_on_c, 0, 56, 64
2, 71666, Note_off_c, 0, 64, 55
2, 71684, Note_on_c, 0, 64, 63
2, 71686, Note_off_c, 0, 66, 43
2, 71724, Note_off_c, 0, 56, 64
2, 71724, Note_on_c, 0, 54, 64
2, 71784, Note_off_c, 0, 54, 64
2, 71784, Note_on_c, 0, 74, 64
2, 71784, Note_on_c, 0, 52, 64
2, 71797, Note_off_c, 0, 64, 54
2, 71810, Note_off_c, 0, 74, 64
2, 71810, Note_on_c, 0, 72, 64
2, 71830, Note_off_c, 0, 72, 64
2, 71830, Note_on_c, 0, 74, 64
2, 71850, Note_off_c, 0, 52, 64
2, 71850, Note_on_c, 0, 50, 64
2, 71910, Note_off_c, 0, 50, 64
2, 71910, Note_on_c, 0, 48, 64
2, 71970, Note_off_c, 0, 48, 64
2, 71970, Note_on_c, 0, 47, 64
2, 72030, Note_off_c, 0, 47, 64
2, 72030, Note_on_c, 0, 45, 64
2, 72090, Note_off_c, 0, 74, 64
2, 72090, Note_on_c, 0, 76, 64
2, 72150, Note_off_c, 0, 76, 64
2, 72150, Note_off_c, 0, 45, 64
2, 72150, Note_on_c, 0, 74, 64
2, 72150, Note_on_c, 0, 52, 64
2, 72210, Note_off_c, 0, 74, 64
2, 72210, Note_on_c, 0, 72, 64
2, 72270, Note_off_c, 0, 72, 64
2, 72270, Note_off_c, 0, 52, 64
2, 72270, Note_on_c, 0, 56, 64
2, 72270, Note_on_c, 0, 71, 64
2, 72330, Note_off_c, 0, 71, 64
2, 72330, Note_on_c, 0, 74, 64
2, 72390, Note_off_c, 0, 74, 64
2, 72390, Note_off_c, 0, 56, 64
2, 72390, Note_on_c, 0, 72, 64
2, 72390, Note_on_c, 0, 57, 64
2, 72450, Note_off_c, 0, 57, 64
2, 72450, Note_on_c, 0, 59, 64
2, 72510, Note_off_c, 0, 59, 64
2, 72510, Note_off_c, 0, 72, 64
2, 72510, Note_on_c, 0, 76, 64
2, 72510, Note_on_c, 0, 57, 64
2, 72570, Note_off_c, 0, 57, 64
2, 72570, Note_on_c, 0, 55, 64
2, 72630, Note_off_c, 0, 55, 64
2, 72630, Note_off_c, 0, 76, 64
2, 72630, Note_on_c, 0, 81, 64
2, 72630, Note_on_c, 0, 54, 64
2, 72690, Note_off_c, 0, 54, 64
2, 72690, Note_on_c, 0, 57, 64
2, 72750, Note_off_c, 0, 57, 64
2, 72750, Note_on_c, 0, 51, 64
2, 72810, Note_off_c, 0, 81, 64
2, 72810, Note_on_c, 0, 83, 64
2, 72870, Note_off_c, 0, 83, 64
2, 72870, Note_off_c, 0, 51, 64
2, 72870, Note_on_c, 0, 60, 64
2, 72870, Note_on_c, 0, 81, 64
2, 72890, Note_off_c, 0, 60, 64
2, 72890, Note_on_c, 0, 59, 64
2, 72910, Note_off_c, 0, 59, 64
2, 72910, Note_on_c, 0, 60, 64
2, 72930, Note_off_c, 0, 81, 64
2, 72930, Note_on_c, 0, 79, 64
2, 72990, Note_off_c, 0, 79, 64
2, 72990, Note_on_c, 0, 78, 64
2, 73050, Note_off_c, 0, 78, 64
2, 73050, Note_on_c, 0, 81, 64
2, 73110, Note_off_c, 0, 81, 64
2, 73110, Note_on_c, 0, 75, 64
2, 73170, Note_off_c, 0, 60, 64
2, 73170, Note_on_c, 0, 57, 64
2, 73230, Note_off_c, 0, 57, 64
2, 73230, Note_off_c, 0, 75, 64
2, 73230, Note_on_c, 0, 84, 64
2, 73230, Note_on_c, 0, 54, 64
2, 73250, Note_off_c, 0, 84, 64
2, 73250, Note_on_c, 0, 83, 64
2, 73270, Note_off_c, 0, 83, 64
2, 73270, Note_on_c, 0, 84, 64
2, 73290, Note_off_c, 0, 54, 64
2, 73290, Note_on_c, 0, 57, 64
2, 73350, Note_off_c, 0, 57, 64
2, 73350, Note_on_c, 0, 51, 64
2, 73410, Note_off_c, 0, 51, 64
2, 73410, Note_on_c, 0, 54, 64
2, 73470, Note_off_c, 0, 54, 64
2, 73470, Note_on_c, 0, 47, 64
2, 73530, Note_off_c, 0, 84, 64
2, 73530, Note_on_c, 0, 83, 64
2, 73590, Note_off_c, 0, 83, 64
2, 73590, Note_off_c, 0, 47, 64
2, 73590, Note_on_c, 0, 64, 64
2, 73590, Note_on_c, 0, 81, 64
2, 73610, Note_off_c, 0, 64, 48
2, 73610, Note_on_c, 0, 63, 64
2, 73630, Note_off_c, 0, 63, 47
2, 73630, Note_on_c, 0, 64, 64
2, 73650, Note_off_c, 0, 64, 40
2, 73650, Note_off_c, 0, 81, 64
2, 73650, Note_on_c, 0, 63, 64
2, 73650, Note_on_c, 0, 79, 64
2, 73670, Note_off_c, 0, 63, 47
2, 73670, Note_on_c, 0, 64, 64
2, 73690, Note_off_c, 0, 64, 23
2, 73690, Note_on_c, 0, 63, 64
2, 73710, Note_off_c, 0, 79, 64
2, 73710, Note_on_c, 0, 78, 64
2, 73770, Note_off_c, 0, 78, 64
2, 73770, Note_off_c, 0, 63, 44
2, 73770, Note_on_c, 0, 81, 64
2, 73770, Note_on_c, 0, 61, 64
2, 73800, Note_off_c, 0, 61, 64
2, 73800, Note_on_c, 0, 63, 64
2, 73830, Note_off_c, 0, 63, 64
2, 73830, Note_off_c, 0, 81, 64
2, 73830, Note_on_c, 0, 79, 64
2, 73830, Note_on_c, 0, 64, 64
2, 73890, Note_off_c, 0, 64, 64
2, 73890, Note_on_c, 0, 63, 64
2, 73950, Note_off_c, 0, 63, 64
2, 73950, Note_on_c, 0, 64, 64
2, 74010, Note_off_c, 0, 64, 64
2, 74010, Note_on_c, 0, 66, 64
2, 74070, Note_off_c, 0, 66, 64
2, 74070, Note_on_c, 0, 67, 64
2, 74130, Note_off_c, 0, 67, 64
2, 74130, Note_on_c, 0, 64, 64
2, 74190, Note_off_c, 0, 64, 64
2, 74190, Note_on_c, 0, 58, 64
2, 74250, Note_off_c, 0, 58, 64
2, 74250, Note_off_c, 0, 79, 64
2, 74250, Note_on_c, 0, 78, 64
2, 74250, Note_on_c, 0, 59, 64
2, 74310, Note_off_c, 0, 59, 64
2, 74310, Note_off_c, 0, 78, 64
2, 74310, Note_on_c, 0, 76, 64
2, 74310, Note_on_c, 0, 61, 64
2, 74370, Note_off_c, 0, 61, 64
2, 74370, Note_off_c, 0, 76, 64
2, 74370, Note_on_c, 0, 74, 64
2, 74370, Note_on_c, 0, 62, 64
2, 74430, Note_off_c, 0, 62, 64
2, 74430, Note_off_c, 0, 74, 64
2, 74430, Note_on_c, 0, 73, 64
2, 74430, Note_on_c, 0, 64, 64
2, 74490, Note_off_c, 0, 64, 64
2, 74490, Note_off_c, 0, 73, 64
2, 74490, Note_on_c, 0, 76, 64
2, 74490, Note_on_c, 0, 61, 64
2, 74550, Note_off_c, 0, 61, 64
2, 74550, Note_off_c, 0, 76, 64
2, 74550, Note_on_c, 0, 70, 64
2, 74550, Note_on_c, 0, 54, 64
2, 74610, Note_off_c, 0, 70, 64
2, 74610, Note_on_c, 0, 79, 64
2, 74670, Note_off_c, 0, 79, 64
2, 74670, Note_off_c, 0, 54, 64
2, 74670, Note_on_c, 0, 78, 64
2, 74670, Note_on_c, 0, 58, 64
2, 74730, Note_off_c, 0, 78, 64
2, 74730, Note_on_c, 0, 76, 64
2, 74790, Note_off_c, 0, 76, 64
2, 74790, Note_off_c, 0, 58, 64
2, 74790, Note_on_c, 0, 59, 64
2, 74790, Note_on_c, 0, 75, 64
2, 74850, Note_off_c, 0, 75, 64
2, 74850, Note_on_c, 0, 78, 64
2, 74910, Note_off_c, 0, 78, 64
2, 74910, Note_off_c, 0, 59, 64
2, 74910, Note_on_c, 0, 69, 64
2, 74910, Note_on_c, 0, 60, 64
2, 74970, Note_off_c, 0, 69, 64
2, 74970, Note_on_c, 0, 72, 64
2, 75030, Note_off_c, 0, 72, 64
2, 75030, Note_off_c, 0, 60, 64
2, 75030, Note_on_c, 0, 71, 64
2, 75030, Note_on_c, 0, 51, 64
2, 75090, Note_off_c, 0, 71, 64
2, 75090, Note_on_c, 0, 69, 64
2, 75150, Note_off_c, 0, 69, 64
2, 75150, Note_off_c, 0, 51, 64
2, 75150, Note_on_c, 0, 52, 64
2, 75150, Note_on_c, 0, 67, 64
2, 75210, Note_off_c, 0, 67, 64
2, 75210, Note_on_c, 0, 71, 64
2, 75270, Note_off_c, 0, 71, 64
2, 75270, Note_off_c, 0, 52, 64
2, 75270, Note_on_c, 0, 64, 64
2, 75270, Note_on_c, 0, 48, 64
2, 75390, Note_off_c, 0, 48, 64
2, 75390, Note_off_c, 0, 64, 64
2, 75390, Note_on_c, 0, 66, 64
2, 75390, Note_on_c, 0, 45, 64
2, 75410, Note_off_c, 0, 66, 64
2, 75410, Note_on_c, 0, 64, 64
2, 75430, Note_off_c, 0, 64, 64
2, 75430, Note_on_c, 0, 66, 64
2, 75510, Note_off_c, 0, 66, 64
2, 75510, Note_off_c, 0, 45, 64
2, 75510, Note_on_c, 0, 64, 64
2, 75510, Note_on_c, 0, 47, 64
2, 75530, Note_off_c, 0, 64, 64
2, 75530, Note_on_c, 0, 63, 64
2, 75550, Note_off_c, 0, 63, 64
2, 75550, Note_on_c, 0, 61, 64
2, 75570, Note_off_c, 0, 61, 64
2, 75570, Note_on_c, 0, 63, 64
2, 75630, Note_off_c, 0, 63, 64
2, 75630, Note_off_c, 0, 47, 64
2, 75630, Note_on_c, 0, 64, 64
2, 75630, Note_on_c, 0, 36, 64
2, 75690, Note_off_c, 0, 36, 64
2, 75690, Note_off_c, 0, 64, 64
2, 75690, Note_on_c, 0, 68, 64
2, 75690, Note_on_c, 0, 40, 64
2, 75750, Note_off_c, 0, 40, 64
2, 75750, Note_off_c, 0, 68, 64
2, 75750, Note_on_c, 0, 69, 64
2, 75750, Note_on_c, 0, 42, 64
2, 75810, Note_off_c, 0, 42, 64
2, 75810, Note_off_c, 0, 69, 64
2, 75810, Note_on_c, 0, 71, 64
2, 75810, Note_on_c, 0, 44, 64
2, 75870, Note_off_c, 0, 44, 64
2, 75870, Note_off_c, 0, 71, 64
2, 75870, Note_on_c, 0, 72, 64
2, 75870, Note_on_c, 0, 45, 64
2, 75930, Note_off_c, 0, 45, 64
2, 75930, Note_off_c, 0, 72, 64
2, 75930, Note_on_c, 0, 42, 64
2, 75930, Note_on_c, 0, 69, 64
2, 75990, Note_off_c, 0, 69, 64
2, 75990, Note_off_c, 0, 42, 64
2, 75990, Note_on_c, 0, 71, 64
2, 75990, Note_on_c, 0, 44, 64
2, 76050, Note_off_c, 0, 44, 64
2, 76050, Note_off_c, 0, 71, 64
2, 76050, Note_on_c, 0, 69, 64
2, 76050, Note_on_c, 0, 45, 64
2, 76110, Note_off_c, 0, 45, 64
2, 76110, Note_off_c, 0, 69, 64
2, 76110, Note_on_c, 0, 68, 64
2, 76110, Note_on_c, 0, 47, 64
2, 76170, Note_off_c, 0, 47, 64
2, 76170, Note_off_c, 0, 68, 64
2, 76170, Note_on_c, 0, 66, 64
2, 76170, Note_on_c, 0, 48, 64
2, 76230, Note_off_c, 0, 48, 64
2, 76230, Note_off_c, 0, 66, 64
2, 76230, Note_on_c, 0, 64, 64
2, 76230, Note_on_c, 0, 50, 64
2, 76290, Note_off_c, 0, 50, 64
2, 76290, Note_off_c, 0, 64, 64
2, 76290, Note_on_c, 0, 53, 64
2, 76290, Note_on_c, 0, 74, 64
2, 76350, Note_off_c, 0, 74, 64
2, 76350, Note_off_c, 0, 53, 64
2, 76350, Note_on_c, 0, 73, 64
2, 76350, Note_on_c, 0, 55, 64
2, 76410, Note_off_c, 0, 73, 64
2, 76410, Note_on_c, 0, 75, 64
2, 76470, Note_off_c, 0, 75, 64
2, 76470, Note_off_c, 0, 55, 64
2, 76470, Note_on_c, 0, 76, 64
2, 76470, Note_on_c, 0, 54, 64
2, 76530, Note_off_c, 0, 76, 64
2, 76530, Note_on_c, 0, 78, 64
2, 76590, Note_off_c, 0, 78, 64
2, 76590, Note_off_c, 0, 54, 64
2, 76590, Note_on_c, 0, 52, 64
2, 76590, Note_on_c, 0, 79, 64
2, 76650, Note_off_c, 0, 79, 64
2, 76650, Note_on_c, 0, 76, 64
2, 76710, Note_off_c, 0, 76, 64
2, 76710, Note_off_c, 0, 52, 64
2, 76710, Note_on_c, 0, 78, 64
2, 76710, Note_on_c, 0, 51, 64
2, 76770, Note_off_c, 0, 78, 64
2, 76770, Note_on_c, 0, 76, 64
2, 76830, Note_off_c, 0, 76, 64
2, 76830, Note_off_c, 0, 51, 64
2, 76830, Note_on_c, 0, 75, 64
2, 76830, Note_on_c, 0, 47, 64
2, 76890, Note_off_c, 0, 75, 64
2, 76890, Note_on_c, 0, 73, 64
2, 76950, Note_off_c, 0, 73, 64
2, 76950, Note_off_c, 0, 47, 64
2, 76950, Note_on_c, 0, 51, 64
2, 76950, Note_on_c, 0, 71, 64
2, 77010, Note_off_c, 0, 71, 64
2, 77010, Note_on_c, 0, 69, 64
2, 77070, Note_off_c, 0, 69, 64
2, 77070, Note_off_c, 0, 51, 64
2, 77070, Note_on_c, 0, 67, 64
2, 77070, Note_on_c, 0, 52, 64
2, 77190, Note_off_c, 0, 52, 64
2, 77190, Note_off_c, 0, 67, 64
2, 77190, Note_on_c, 0, 69, 64
2, 77190, Note_on_c, 0, 45, 64
2, 77210, Note_off_c, 0, 69, 64
2, 77210, Note_on_c, 0, 67, 64
2, 77230, Note_off_c, 0, 67, 64
2, 77230, Note_on_c, 0, 69, 64
2, 77310, Note_off_c, 0, 69, 64
2, 77310, Note_off_c, 0, 45, 64
2, 77310, Note_on_c, 0, 67, 64
2, 77310, Note_on_c, 0, 47, 64
2, 77330, Note_off_c, 0, 67, 64
2, 77330, Note_on_c, 0, 66, 64
2, 77350, Note_off_c, 0, 66, 64
2, 77350, Note_on_c, 0, 64, 64
2, 77370, Note_off_c, 0, 64, 64
2, 77370, Note_on_c, 0, 66, 64
2, 77430, Note_off_c, 0, 66, 64
2, 77430, Note_off_c, 0, 47, 64
2, 77430, Note_on_c, 0, 40, 64
2, 77430, Note_on_c, 0, 64, 64
2, 77790, Note_off_c, 0, 64, 64
2, 77790, Note_off_c, 0, 40, 64
2, 77790, End_track
0, 0, End_of_file
